<?xml version="1.0" encoding="utf-8"?>
<!-- Generator: Adobe Illustrator 27.2.0, SVG Export Plug-In . SVG Version: 6.00 Build 0)  -->
<svg version="1.1" baseProfile="tiny" id="Layer_1" xmlns="http://www.w3.org/2000/svg" xmlns:xlink="http://www.w3.org/1999/xlink"
	 x="0px" y="0px" viewBox="0 0 92.89 206.06" overflow="visible" xml:space="preserve">
<path fill="#FFFFFF" d="M72.74,48.42c-0.02,0-0.05,0-0.07,0l-55.68-7.62c-5.08-1.01-5.28-2.94-5.14-8.86l0.61-31.44
	C12.46,0.21,12.64,0,12.97,0c0.28,0.01,0.5,0.23,0.49,0.51l-0.61,31.44c-0.14,6.09,0.12,7.02,4.31,7.85l55.65,7.61
	c0.27,0.04,0.46,0.29,0.43,0.56C73.2,48.23,72.98,48.42,72.74,48.42z"/>
<path fill="#FFFFFF" d="M0.5,206.06c-0.03,0-0.06,0-0.09-0.01c-0.27-0.05-0.45-0.31-0.4-0.58l10.17-53.77
	c0.87-4.62,4.37-8.38,8.9-9.6l49.19-14.4c0.27-0.08,0.54,0.07,0.62,0.34c0.08,0.27-0.07,0.54-0.34,0.62l-49.2,14.4
	c-4.18,1.12-7.39,4.58-8.19,8.82L0.99,205.66C0.95,205.9,0.74,206.06,0.5,206.06z"/>
<path fill="#FFFFFF" d="M24.2,79.27H7.79c-0.55,0-1-0.45-1-1s0.45-1,1-1H24.2c0.55,0,1,0.45,1,1S24.75,79.27,24.2,79.27z"/>
</svg>
