<?xml version="1.0" encoding="utf-8"?>
<!-- Generator: Adobe Illustrator 26.0.1, SVG Export Plug-In . SVG Version: 6.00 Build 0)  -->
<svg version="1.1" baseProfile="tiny" id="animated"
	 xmlns="http://www.w3.org/2000/svg" xmlns:xlink="http://www.w3.org/1999/xlink" x="0px" y="0px" viewBox="0 0 1920 1080"
	 overflow="visible" xml:space="preserve">
<g id="Corners_00000182509534355331126270000002294709755595558309_">
	<polygon fill="#1D48FF" points="1335.5,487.7 1315.2,487.7 1315.2,443.1 1291.1,419.1 1252.1,419.1 1252.1,398.8 1299.6,398.8 
		1335.5,434.7 	"/>
	<polygon fill="#1D48FF" points="1299.6,681.2 1252.1,681.2 1252.1,660.9 1291.1,660.9 1315.2,636.9 1315.2,592.3 1335.5,592.3 
		1335.5,645.3 	"/>
	<polygon fill="#1D48FF" points="670.4,681.2 620.4,681.2 584.5,645.3 584.5,592.3 604.8,592.3 604.8,636.9 628.9,660.9 
		670.4,660.9 	"/>
	<polygon fill="#1D48FF" points="604.8,487.7 584.5,487.7 584.5,434.7 620.4,398.8 670.4,398.8 670.4,419.1 628.9,419.1 
		604.8,443.1 	"/>
</g>
</svg>
