<?xml version="1.0" encoding="utf-8"?>
<!-- Generator: Adobe Illustrator 26.0.1, SVG Export Plug-In . SVG Version: 6.00 Build 0)  -->
<svg version="1.1" baseProfile="tiny" id="Layer_1" xmlns="http://www.w3.org/2000/svg" xmlns:xlink="http://www.w3.org/1999/xlink"
	 x="0px" y="0px" viewBox="0 0 1920 1080" overflow="visible" xml:space="preserve">
<g>
	<polygon fill="#1D48FF" points="315.6,1080.5 -187.4,-0.5 798.5,-0.5 1301.6,1080.5 	"/>
	<path fill="#FFFFFF" d="M798.2,0l502.6,1080H316L-186.6,0H798.2 M798.9-1h-0.6h-984.8h-1.6l0.7,1.4l502.6,1080l0.3,0.6h0.6h984.8
		h1.6l-0.7-1.4L799.1-0.4L798.9-1L798.9-1z"/>
</g>
<g>
	<polygon fill="#1D48FF" points="2154,1080.5 1650.9,-0.5 1776.8,-0.5 2279.9,1080.5 	"/>
	<path fill="#FFFFFF" d="M1776.5,0l502.6,1080h-124.8L1651.7,0H1776.5 M1777.2-1h-0.6h-124.8h-1.6l0.7,1.4l502.6,1080l0.3,0.6h0.6
		h124.8h1.6l-0.7-1.4L1777.4-0.4L1777.2-1L1777.2-1z"/>
</g>
</svg>
