<?xml version="1.0" encoding="utf-8"?>
<!-- Generator: Adobe Illustrator 26.0.1, SVG Export Plug-In . SVG Version: 6.00 Build 0)  -->
<svg version="1.1" baseProfile="tiny" id="animated"
	 xmlns="http://www.w3.org/2000/svg" xmlns:xlink="http://www.w3.org/1999/xlink" x="0px" y="0px" viewBox="0 0 1920 1080"
	 overflow="visible" xml:space="preserve">
<g>
	<polygon id="Backplate_00000049930016774748503960000015748251982403991447_" fill="#D6D6D6" points="849.8,429.9 219.7,429.9 
		202.4,447.2 202.4,608.7 219.7,626 849.8,626 867.1,608.7 867.1,447.2 	"/>
	<g>
		<path fill="#969696" d="M655.8,428.1V403l-119-17.7l-119,17.7v25.1c0,0.6,0,1.2,0,1.8h238C655.8,429.3,655.8,428.7,655.8,428.1z"
			/>
		<path fill="#969696" d="M384.4,428.1c0,0.6,0,1.2,0,1.8h15.1c0-0.6,0-1.1,0-1.7v-40.8l137.2-20.5L674,387.3v40.8
			c0,0.6,0,1.2,0,1.8h15.4c0-0.7,0-1.4,0-2.1v-9.7l7.6-5.4v-15.1v-15.1v-15.1l-44.8-7.2l-6.3,7.6l-109.1-16.3l-109.1,16.3l-6.3-7.6
			l-44.6,7.5v15.1v15.1V413l7.6,5.4V428.1z"/>
		<path fill="#969696" d="M536.7,677.2c9.8-6.1,32.8-22.3,55.9-51.2H481C503.9,655,527,671.1,536.7,677.2z"/>
		<path fill="#969696" d="M619.6,645.9c5-6.4,9.9-13,14.4-19.9h-18.6c-2.6,3.6-5.2,7.2-7.9,10.6c-1.2,1.6-2.5,3.1-3.8,4.6l-0.2-0.2
			c-2.9,3.7-6,7.3-9.1,10.9c-3.7,4-7.4,7.9-11.3,11.6c-6.9,6.7-14.1,12.9-21.4,18.5c-6.6,5-12,8.6-15.3,10.7
			c-3.6,2.2-5.8,3.4-6.2,3.6l-3.5,1.8l-3.5-1.8c0,0-2.2-1.1-6.2-3.6c-3.4-2.1-8.8-5.7-15.3-10.7c-7.3-5.6-14.5-11.8-21.4-18.5
			c-3.8-3.7-7.6-7.6-11.3-11.6c-3.1-3.6-6.2-7.2-9.1-10.9l-0.2,0.2c-1.3-1.5-2.5-3.1-3.8-4.6c-2.7-3.4-5.4-7-8-10.6h-18.2
			c4.6,6.9,9.4,13.5,14.4,19.9c1.2,1.6,2.5,3.1,3.8,4.6l-7.8,6.1c8.1,10.3,16.9,20,26.2,29c7.5,7.2,15.3,13.9,23.1,20
			c5.8,4.4,11.5,8.4,16.9,11.8c4.6,2.8,7.4,4.3,7.6,4.4l12.8,6.6l12.8-6.6c0.9-0.5,3.6-1.9,7.6-4.4c5.5-3.4,11.2-7.4,17-11.8
			c7.9-6,15.7-12.8,23.2-20c9.3-8.9,18.1-18.7,26.2-29l-7.8-6.1C617.1,649,618.3,647.4,619.6,645.9z"/>
	</g>
	<g id="CORDRY_x27_S_00000142859349090653443100000009412268190127669687_">
		<g id="C_00000098936980868888525540000009791241612384077485_">
			<path fill="#1D48FF" d="M273.1,574.8h-8.8v-98.2h8.8v-17h-18.3c-5.9,0-10.7,4.8-10.7,10.7V581c0,5.9,4.8,10.7,10.7,10.7h18.3
				V574.8z"/>
			<path fill="#1D48FF" d="M289.6,574.8h-9.2v17h18.3c5.9,0,10.7-4.8,10.7-10.7v-34.9h-19.9v28.6H289.6z"/>
			<path fill="#1D48FF" d="M298.8,459.6h-18.3v17h9.2v26.9h19.9v-33.3C309.5,464.4,304.7,459.6,298.8,459.6z"/>
		</g>
		<g id="O_00000098926688750532007990000015031175066420986518_">
			<path fill="#1D48FF" d="M355.7,592.1h-18.3c-5.9,0-10.7-4.8-10.8-10.7l-0.2-111c0-5.9,4.8-10.7,10.7-10.8h18.3v17.1h-8.8
				l0.2,98.4h8.8L355.7,592.1z"/>
			<path fill="#1D48FF" d="M365.6,592.1h18.3c5.9,0,10.7-4.8,10.7-10.8l-0.2-111c0-5.9-4.8-10.7-10.8-10.7h-18.3v17.1h8.8l0.2,98.4
				h-8.8L365.6,592.1z"/>
		</g>
		<g id="R_00000045592330400492385190000016932593461389696416_">
			<polygon fill="#1D48FF" points="435.7,476.7 441.2,476.7 441.2,459.6 435.7,459.6 411.7,459.6 411.7,476.7 415.4,476.7 
				415.4,574.8 411.2,574.8 411.2,591.8 439,591.8 439,574.8 435.7,574.8 			"/>
			<path fill="#1D48FF" d="M477.4,574.1l-15.7-41.8h7.4c5.9,0,10.7-4.8,10.7-10.7v-51.2c0-5.9-4.8-10.7-10.7-10.7h-20.6v17.1h12
				v41.8h-19.6v12.7l16.2,43.5v17h26.2v-17.7H477.4z"/>
		</g>
		<g id="D_00000044169540618663343290000018382110921111015565_">
			<polygon fill="#1D48FF" points="526.7,460.1 521.3,460.1 497.3,460.1 497.3,477.2 501.1,477.2 501.1,575.3 496.8,575.3 
				496.8,592.3 526.7,592.3 526.7,575.3 521.3,575.3 521.3,477.2 526.7,477.2 			"/>
			<path fill="#1D48FF" d="M542.7,460.1h-5.8v17h0.5c5.3,0,9.6,4.3,9.6,9.6v78.9c0,5.3-4.3,9.6-9.6,9.6h-1v17h6.3
				c13,0,23.6-10.6,23.6-23.6v-84.9C566.3,470.7,555.7,460.1,542.7,460.1z"/>
		</g>
		<g id="R_00000181069226088537555610000015172917472008450201_">
			<polygon fill="#1D48FF" points="605.4,476.7 610.8,476.7 610.8,459.6 605.4,459.6 581.4,459.6 581.4,476.7 585.1,476.7 
				585.1,574.8 580.9,574.8 580.9,591.8 608.7,591.8 608.7,574.8 605.4,574.8 			"/>
			<path fill="#1D48FF" d="M647.1,574.1l-15.7-41.8h7.4c5.9,0,10.7-4.8,10.7-10.7v-51.2c0-5.9-4.8-10.7-10.7-10.7h-20.7v17.1h12.1
				v41.8h-19.6v12.7l16.2,43.5v17H653v-17.7H647.1z"/>
		</g>
		<g id="Y_00000131369968758432798330000004789023540400834966_">
			<polygon fill="#1D48FF" points="714.9,532.4 731.9,476.7 739.9,476.7 739.9,459.6 718.2,459.6 706.1,502.3 			"/>
			<polygon fill="#1D48FF" points="711.7,547.7 702.3,515.7 686,459.6 663.1,459.6 663.1,476.7 671,476.7 691.9,543.4 691.9,574.8 
				688.4,574.8 688.4,591.8 714.6,591.8 714.6,574.8 711.7,574.8 			"/>
		</g>
		<polygon id="_x27__00000157278708589399616790000011171526691774519727_" fill="#1D48FF" points="747.5,447.3 745.3,468.9 
			748.6,468.9 758.7,447.3 		"/>
		<g id="S_00000137105111610376600180000007918443791128439970_">
			<path fill="#1D48FF" d="M785.1,574.8H776v-6.9l0,0v-20h-19.9v33.3c0,5.9,4.8,10.7,10.7,10.7h18.3V574.8z"/>
			<path fill="#1D48FF" d="M776.4,500.7v-24.1h8.8v-17h-18.3c-5.9,0-10.7,4.8-10.7,10.7v30.1c0,4.4,1.8,8.7,5.1,11.7l38.7,36.3v26.2
				h-7.4v17h17c5.9,0,10.7-4.8,10.7-10.7v-32.3c0-4.4-1.8-8.7-5.1-11.7L776.4,500.7z"/>
			<path fill="#1D48FF" d="M810.8,459.6h-18.3v17h9.2v6.9l0,0v20h19.9v-33.3C821.5,464.4,816.7,459.6,810.8,459.6z"/>
		</g>
	</g>
</g>
</svg>
