<?xml version="1.0" encoding="utf-8"?>
<!-- Generator: Adobe Illustrator 25.4.1, SVG Export Plug-In . SVG Version: 6.00 Build 0)  -->
<svg version="1.1" baseProfile="tiny" id="Layer_1" xmlns="http://www.w3.org/2000/svg" xmlns:xlink="http://www.w3.org/1999/xlink"
	 x="0px" y="0px" width="17px" height="39px" viewBox="0 0 17 39" overflow="visible" xml:space="preserve">
<path d="M16.6,21.2l0.1,1.1l-0.4,0.3l-0.9-0.4c-0.1-0.1-0.2-0.2-0.2-0.3l-0.4-1.7c0,0,0,0,0-0.1l-0.2-1.3c0,0,0-0.1,0-0.1l-1.8-4.1
	c0-0.1-0.1-0.2-0.1-0.2l0-0.6c0,0,0-0.1,0-0.1l-0.3-1.3l-0.4,1.9c0,0,0,0.1,0,0.1l0.1,3.1c0,0.1,0,0.1,0,0.1l0.5,5.6
	c0,0.1,0,0.3,0,0.4l-0.3,2.9c0,0.2,0,0.4,0,0.6l0.4,1.5c0,0.1,0.1,0.3,0.1,0.4l0.1,3.3c0,0.1,0,0.2,0,0.4l-0.4,2c0,0,0,0.1,0,0.1
	l0.3,2.1c0,0.1,0.1,0.3,0.2,0.4l0.9,0.9l-0.2,0.6h-2.2c-0.1,0-0.3-0.1-0.4-0.2l-0.3-0.3l0.2-1.1c0,0,0-0.1,0-0.1l-0.4-3.2
	c0-0.1,0-0.3,0-0.4l-0.8-3.5c0-0.1,0-0.2,0-0.4l0-2.6c0-0.1,0-0.2,0-0.3l-1-6.8H8.3l-0.9,6.7c0,0.1,0,0.2,0,0.3l0,2.6
	c0,0.1,0,0.3,0,0.4l-0.8,3.5c0,0.1,0,0.2,0,0.4L6,36.8c0,0,0,0.1,0,0.1L6.3,38l-0.3,0.3c-0.1,0.1-0.2,0.2-0.4,0.2H3.3l-0.2-0.6L4,37
	c0.1-0.1,0.2-0.2,0.2-0.4l0.3-2.1c0,0,0-0.1,0-0.1l-0.4-2c0-0.1,0-0.2,0-0.4l0.1-3.3c0-0.1,0-0.3,0.1-0.4l0.4-1.5
	c0.1-0.2,0.1-0.4,0-0.6l-0.3-2.9c0-0.1,0-0.3,0-0.4l0.5-5.5c0,0,0-0.1,0-0.1L5,14.3c0,0,0-0.1,0-0.1l-0.3-1.6l-0.2,1.1
	c0,0,0,0.1,0,0.1l0,0.6c0,0.1,0,0.2-0.1,0.2l-1.8,4.1c0,0,0,0.1,0,0.1l-0.2,1.3c0,0,0,0,0,0.1l-0.4,1.7c0,0.1-0.1,0.2-0.2,0.3
	l-0.9,0.4l-0.4-0.3l0.1-1.1l-0.1-0.3l0.2-1.1c0-0.1,0.1-0.2,0.1-0.3L1.2,19c0.1-0.1,0.1-0.2,0.1-0.3l0.6-4.2c0-0.1,0-0.2,0.1-0.3
	l0.5-0.8c0-0.1,0.1-0.1,0.1-0.2L4,8.2C4,8.1,4,8.1,4.1,8l0.5-0.3c0.1-0.1,0.1-0.1,0.2-0.2l2.1-0.7c0.1,0,0.1,0,0.2,0h2.8
	c0.1,0,0.1,0,0.2,0l2.1,0.7c0,0,0.1,0.1,0.1,0.1c0.1,0,0.1,0,0.2,0L12.9,8C13,8,13,8.1,13,8.2l1.4,5.1c0,0.1,0,0.1,0.1,0.2l0.5,0.8
	c0.1,0.1,0.1,0.2,0.1,0.3l0.6,4.2c0,0.1,0.1,0.2,0.1,0.3l0.6,0.6c0.1,0.1,0.1,0.2,0.1,0.3l0.2,1.1L16.6,21.2z"/>
<path d="M6.6,4.7l0.2,0.1L7,5.3L7.6,6c0.1,0.1,0.2,0.1,0.3,0.1H9c0.1,0,0.2,0,0.3-0.1l0.6-0.7l0.2-0.6l0.2-0.1L10.5,4l0.1-0.9
	l-0.2-0.2l-0.1-1.4c0-0.1-0.1-0.3-0.2-0.4L9.4,0.6C9.3,0.5,9,0.4,8.8,0.4H8c-0.2,0-0.4,0.1-0.6,0.2L6.7,1.2C6.6,1.2,6.6,1.4,6.6,1.5
	L6.5,2.9L6.3,3.1L6.3,4L6.6,4.7z"/>
</svg>
