<?xml version="1.0" encoding="utf-8"?>
<!-- Generator: Adobe Illustrator 25.4.1, SVG Export Plug-In . SVG Version: 6.00 Build 0)  -->
<svg version="1.1" baseProfile="tiny" id="Layer_1" xmlns="http://www.w3.org/2000/svg" xmlns:xlink="http://www.w3.org/1999/xlink"
	 x="0px" y="0px" width="27px" height="19px" viewBox="0 0 27 19" overflow="visible" xml:space="preserve">
<path d="M25.8,7.3c-0.4-0.6-0.8-1.1-1.2-1.5c-0.7-0.8-1.9-1.3-2.7-1.7c-0.1,0-0.2-0.1-0.2-0.3V1.6H23c0.4,0,0.6-0.3,0.6-0.6
	c0-0.4-0.3-0.6-0.6-0.6h-5.4C17.2,0.4,17,0.7,17,1c0,0.4,0.3,0.6,0.6,0.6h1.2v2.3c0,0.1-0.1,0.2-0.2,0.3C17.8,4.4,16.7,5,16,5.8
	c-0.4,0.4-0.8,1-1.2,1.5C14.2,8.2,14,9.1,14,10.2v6.7c0,1,0.8,1.8,1.8,1.8h9c1,0,1.8-0.8,1.8-1.8v-6.7C26.6,9.1,26.3,8.2,25.8,7.3z
	 M25.6,16.9c0,0.4-0.4,0.8-0.8,0.8h-9c-0.4,0-0.8-0.4-0.8-0.8v-6.7c0-0.8,0.2-1.7,0.6-2.3c0.3-0.5,0.7-1,1.1-1.4
	C17.3,5.8,18.4,5.3,19,5c0.5-0.2,0.8-0.7,0.8-1.2V1.6h1v2.3c0,0.5,0.3,1,0.8,1.2c0.6,0.2,1.7,0.8,2.3,1.4c0.4,0.4,0.7,0.9,1.1,1.4
	c0.4,0.7,0.6,1.5,0.6,2.3C25.6,10.2,25.6,16.9,25.6,16.9z"/>
<path d="M10.4,1.3c0-0.1,0-0.2-0.2-0.2c-1.7,0-3.5,0-5.2,0c-0.1,0-0.2,0-0.3,0.1c-0.3,0.3-0.7,0.7-1,1c-0.1,0.1-0.2,0.1-0.3,0
	C3.1,1.8,2.7,1.4,2.3,1C2.2,0.9,2.1,0.9,2,1C1.6,1.5,1.1,1.9,0.7,2.4c-0.2,0.2-0.2,0.2,0,0.4C1.1,3.2,1.5,3.6,1.9,4
	C1.9,4.1,1.8,4.1,1.8,4.2c0,0.1-0.1,0.2-0.1,0.3c0,2.1,0,4.1,0,6.2c0,0.1,0,0.2,0.2,0.2c2.8,0,5.6,0,8.4,0c0.1,0,0.2,0,0.2-0.2
	C10.4,7.5,10.4,4.4,10.4,1.3z M2.6,3.3C2.4,3.1,2.1,2.8,1.9,2.5C2,2.5,2,2.4,2.1,2.3c0.2,0.3,0.5,0.5,0.7,0.8
	C2.8,3.1,2.7,3.2,2.6,3.3z M8.3,4C8.2,4,8.1,4,8,4C7.6,4,7.3,4,7,4C6.7,4,6.3,4,6,4C5.9,4,5.8,4,5.7,4C5.6,4,5.5,4,5.5,3.8
	c0-0.2,0-0.4,0-0.6c0-0.1,0-0.2,0.2-0.2c0.9,0,1.7,0,2.6,0c0.1,0,0.2,0,0.2,0.2c0,0.2,0,0.4,0,0.6C8.5,4,8.4,4,8.3,4z"/>
</svg>
