<?xml version="1.0" encoding="utf-8"?>
<!-- Generator: Adobe Illustrator 25.4.1, SVG Export Plug-In . SVG Version: 6.00 Build 0)  -->
<svg version="1.1" baseProfile="tiny" id="Layer_1" xmlns="http://www.w3.org/2000/svg" xmlns:xlink="http://www.w3.org/1999/xlink"
	 x="0px" y="0px" width="20px" height="79px" viewBox="0 0 20 79" overflow="visible" xml:space="preserve">
<path d="M3.4,2H6V0H3.4C1.5,0,0,1.5,0,3.4v71.7c0,1.9,1.5,3.4,3.4,3.4H6v-2H3.4c-0.8,0-1.4-0.6-1.4-1.4V59.4h3.1v-2H2V40.3h3.1v-2H2
	V21.2h3.1v-2H2V3.4C2,2.6,2.6,2,3.4,2z"/>
<path d="M16.6,2H14V0l2.6,0C18.5,0,20,1.5,20,3.4v71.7c0,1.9-1.5,3.4-3.4,3.4H14v-2h2.6c0.8,0,1.4-0.6,1.4-1.4V59.4h-3.1v-2H18V40.3
	h-3.1v-2H18V21.2h-3.1v-2H18V3.4C18,2.6,17.4,2,16.6,2z"/>
</svg>
