<?xml version="1.0" encoding="utf-8"?>
<!-- Generator: Adobe Illustrator 25.4.1, SVG Export Plug-In . SVG Version: 6.00 Build 0)  -->
<svg version="1.1" baseProfile="tiny" id="Layer_1" xmlns="http://www.w3.org/2000/svg" xmlns:xlink="http://www.w3.org/1999/xlink"
	 x="0px" y="0px" width="27px" height="19px" viewBox="0 0 27 19" overflow="visible" xml:space="preserve">
<path d="M25.8,7.3c-0.4-0.6-0.8-1.1-1.2-1.5c-0.7-0.8-1.9-1.3-2.7-1.7c-0.1,0-0.2-0.1-0.2-0.3V1.6H23c0.4,0,0.6-0.3,0.6-0.6
	c0-0.4-0.3-0.6-0.6-0.6h-5.4c-0.4,0-0.6,0.3-0.6,0.6c0,0.4,0.3,0.6,0.6,0.6h1.2v2.3c0,0.1-0.1,0.2-0.2,0.3C17.8,4.4,16.7,5,16,5.8
	c-0.4,0.4-0.8,1-1.2,1.5C14.2,8.2,14,9.1,14,10.2v6.7c0,1,0.8,1.8,1.8,1.8h9c1,0,1.8-0.8,1.8-1.8v-6.7C26.6,9.1,26.3,8.2,25.8,7.3z
	 M25.6,16.9c0,0.4-0.4,0.8-0.8,0.8h-9c-0.4,0-0.8-0.4-0.8-0.8v-6.7c0-0.8,0.2-1.7,0.6-2.3c0.3-0.5,0.7-1,1.1-1.4
	C17.3,5.8,18.4,5.3,19,5c0.5-0.2,0.8-0.7,0.8-1.2V1.6h1v2.3c0,0.5,0.3,1,0.8,1.2c0.6,0.2,1.7,0.8,2.3,1.4c0.4,0.4,0.7,0.9,1.1,1.4
	c0.4,0.7,0.6,1.5,0.6,2.3V16.9z"/>
<g>
	<path d="M5.9,9.8C5.8,10,5.3,10.5,5,10.6c-0.2,0.1-0.5,0.2-0.7,0.2h-2c-0.2,0-0.5-0.1-0.7-0.2C1.3,10.5,0.8,10,0.6,9.8
		C0.5,9.6,0.4,9.3,0.4,9.1V4.9c0-0.2,0-0.5,0.2-0.7C0.8,4,1.3,3.5,1.5,3.3C1.7,3.2,2,3.1,2.3,3.1h2c0.2,0,0.5,0.1,0.7,0.2
		C5.3,3.5,5.8,4,5.9,4.2c0.1,0.2,0.2,0.4,0.2,0.7v4.2C6.1,9.3,6.1,9.6,5.9,9.8z M5.1,4.9c0-0.1,0-0.1,0-0.1C4.9,4.6,4.5,4.2,4.3,4.1
		c0,0-0.1,0-0.1,0H2.3c-0.1,0-0.1,0-0.1,0C2,4.2,1.5,4.7,1.5,4.9v4.1c0,0.2,0.5,0.7,0.7,0.8c0,0,0.1,0,0.1,0h1.9c0.1,0,0.1,0,0.1,0
		c0.2-0.1,0.7-0.6,0.7-0.8V4.9z"/>
	<path d="M8.3,7.7L7.5,7.5c0.1-0.1,0.1-0.2,0.2-0.3C7.8,7,8.2,6.6,8.6,6.6h0.8c0.2,0,0.4,0.1,0.5,0.2c0.1,0.1,0.3,0.3,0.4,0.4
		c0.1,0.1,0.1,0.4,0.1,0.5V8c0,0.4-0.2,0.7-0.5,0.8C9.4,9.1,8.9,9.3,8.5,9.5c0,0-0.1,0-0.1,0.1V10h1.9v0.8H7.5V9.6
		c0-0.4,0.2-0.6,0.5-0.8C8.6,8.6,9,8.3,9.5,8.1c0,0,0,0,0-0.1V7.6c0-0.1-0.1-0.2-0.2-0.2H8.6C8.5,7.5,8.4,7.6,8.3,7.7z"/>
</g>
</svg>
