<?xml version="1.0" encoding="utf-8"?>
<!-- Generator: Adobe Illustrator 26.0.1, SVG Export Plug-In . SVG Version: 6.00 Build 0)  -->
<svg version="1.1" baseProfile="tiny" id="molten" xmlns="http://www.w3.org/2000/svg" xmlns:xlink="http://www.w3.org/1999/xlink"
	 x="0px" y="0px" viewBox="0 0 1920 1080" overflow="visible" xml:space="preserve">
<g>
	
		<path fill="#9B1A09" stroke="#E41916" stroke-width="3" stroke-linecap="round" stroke-linejoin="round" stroke-miterlimit="10" d="
		M794.5,827.3l24.6-34l0,0c7.4-9.2,11.5-19.1,11.5-29.3V634.3c0-24.5-26.7-70.2-70-92.6c-43.2-24.2-102.9-25-168.9-2.8
		c-65.9,22.2-125.7,42.8-168.9,53.1c-43.2,12.2-70,14.1-70,42.3h0V764c0,10.1,3.9,19.8,11.2,29l0,0.3l24.6,34l0.1-0.1
		c24.7,35.4,106.1,61.5,202.8,61.5C688.3,888.6,769.7,862.7,794.5,827.3L794.5,827.3z"/>
</g>
<path fill="#F75717" stroke="#E41916" stroke-width="3" stroke-linecap="round" stroke-linejoin="round" stroke-miterlimit="10" d="
	M830.6,634.1c0,28.2-26.7,30.1-70,42.3c-43.2,10.3-102.9,30.8-168.9,53.1c-65.9,22.2-125.7,21.4-168.9-2.8
	c-43.2-22.3-70-68.1-69.9-92.6c0-28.2,26.7-30.1,70-42.3c43.2-10.3,102.9-30.8,168.9-53.1c65.9-22.2,125.7-21.4,168.9,2.8
	C803.9,563.9,830.6,609.7,830.6,634.1z"/>
<g>
	<path fill="none" d="M570.9,801c38.2-33.8,89.9-68.1,139.9-101.2c40.9-27.1,82.4-54.6,116.8-82c-1.6-4.8-3.7-10-6.5-15.3
		c-2.2,2-4.4,4-6.7,6.1c-38.2,33.8-89.9,68.1-139.9,101.2c-83.2,55.1-168.8,111.8-192.3,166.6c8.9,2.2,18.2,4.1,28,5.7
		C517.6,857,537.4,830.7,570.9,801z"/>
	<path fill="none" d="M485.1,801c38.2-33.8,89.9-68.1,139.9-101.2c66-43.7,133.4-88.4,170.3-132.3c-5.2-5.3-11-10.3-17.3-14.9
		c-10.6,17.6-26.9,36-49.4,56c-38.2,33.8-89.9,68.1-139.9,101.2c-69.4,45.9-140.4,93-175.8,139.2c6.2,4,13.2,7.7,20.9,11.2
		C444.3,841.6,461.2,822.2,485.1,801z"/>
	<path fill="none" d="M490.6,572.6c-12.9,4.1-25.2,7.9-36.8,11.2c-7.4,8-15.9,16.3-25.5,24.8c-21.7,19.2-47.7,38.6-75.4,57.8V681
		C406.7,645.1,458.5,608.6,490.6,572.6z"/>
	<path fill="none" d="M785.4,801c13.6-12,28.9-24.1,45.2-36.2c0-0.3,0-0.5,0-0.8v-15c-62.3,42.9-117,86.3-134.4,128.6
		c12.1-2.8,23.5-6,33.9-9.6C739.9,847.1,758.1,825.2,785.4,801z"/>
	<path fill="none" d="M601.7,535.8c-3.3,1-6.6,2.1-9.9,3.2c-8.6,2.9-17,5.7-25.3,8.5c-10.4,19.1-27.6,39.2-52.3,61.1
		c-38.2,33.8-89.9,68.1-139.9,101.2c-7.1,4.7-14.2,9.4-21.3,14.1v14.5c18.9-13,38.3-25.9,57.6-38.6
		C492.4,645.5,576.6,589.8,601.7,535.8z"/>
	<path fill="none" d="M656.7,801c38.2-33.8,89.9-68.1,139.9-101.2c11.3-7.5,22.7-15.1,34-22.6v-14.8c-22.7,16-46.7,31.8-70.3,47.4
		c-89,59-180.8,119.8-196.4,178.1c9.1,0.5,18.4,0.7,27.8,0.7c0.8,0,1.7,0,2.5,0C600,861.6,620.3,833.3,656.7,801z"/>
	<path fill="none" d="M699.6,801c35.9-31.8,83.8-64,131-95.3v-14.1c-9.1,6.1-18.3,12.2-27.4,18.2
		c-89.3,59.1-181.4,120.1-196.5,178.6c10.5-0.3,20.9-0.9,30.9-1.8C643.9,860.2,664.1,832.5,699.6,801z"/>
	<path fill="none" d="M422.9,592c-10.1,2.8-19.2,5.1-27.4,7.3c-3.2,3.1-6.6,6.2-10.1,9.3c-10,8.9-20.9,17.7-32.5,26.6v16.5
		c29.2-20.5,56.1-41.1,77.7-61.6C428,590.8,425.4,591.4,422.9,592z"/>
	<path fill="none" d="M613.8,801c38.2-33.8,89.9-68.1,139.9-101.2c26.1-17.3,52.4-34.7,76.9-52.1v-13.3c0-1.1-0.1-2.3-0.2-3.4
		c-33.9,26.5-73.9,53.1-113,78.9c-87,57.6-176.7,117-195.2,174.1c9.5,1.3,19.4,2.4,29.5,3.2C557.9,860.5,578.1,832.7,613.8,801z"/>
	<path fill="none" d="M528,801c38.2-33.8,89.9-68.1,139.9-101.2c53.8-35.6,108.6-71.9,147-108c-3.3-5.2-7.1-10.3-11.4-15.4
		c-8.8,10.3-19.4,21-32,32.2c-38.2,33.8-89.9,68.1-139.9,101.2C554.2,761,474.8,813.7,445.1,864.9c7.9,3,16.3,5.9,25.3,8.4
		C479.5,850.8,498.4,827.2,528,801z"/>
	<path fill="none" d="M692.2,523.2c-9.8-0.5-20-0.3-30.6,0.6c-6.5,26.2-26.6,53.6-61.8,84.8C561.7,642.4,510,676.7,460,709.8
		c-35.7,23.6-71.7,47.5-103.2,71.4c1.8,4,4.3,8,7.3,11.8l0,0.3l0.4,0.6c37.2-31.5,85.2-63.3,131.7-94.1
		C584.6,641.3,675.5,581.1,692.2,523.2z"/>
	<path fill="none" d="M548.5,553.5c-12.6,4.2-24.9,8.3-36.8,12.2c-10.1,13.6-23.6,27.8-40.6,42.8c-32.7,29-75.3,58.3-118.3,86.9v14
		c4.9-3.3,9.8-6.5,14.7-9.7C440.6,651.5,515.3,601.9,548.5,553.5z"/>
	<path fill="none" d="M742.5,801c25-22.2,55.8-44.5,88.1-66.5v-14.4C748,774.9,667,831.1,650.5,885.3c11-1.3,21.6-2.9,31.8-4.8
		C690,855.9,709.7,830.1,742.5,801z"/>
	<path fill="none" d="M648.7,525.2c-10.5,1.5-21.3,3.6-32.3,6.4c-8.3,23.8-27.8,48.9-59.5,77c-38.2,33.8-89.9,68.1-139.9,101.2
		c-21.6,14.3-43.4,28.7-64.2,43.2v11c0,1.6,0.1,3.2,0.3,4.9c30.9-23.2,65.9-46.4,100.2-69.1C540.6,642,630.5,582.5,648.7,525.2z"/>
	<path fill="none" d="M825.5,783.6c-33.7,25.9-61.8,51.8-77.8,77.4c21.6-9.5,37.9-21,46.8-33.8l0,0l24.6-34l0,0
		C821.7,790.1,823.8,786.9,825.5,783.6z"/>
	<path fill="none" d="M442.2,801c38.2-33.8,89.9-68.1,139.9-101.2c76.8-50.9,155.7-103.1,185.9-153.9c-2.4-1.4-4.8-2.8-7.3-4.1
		c-5.2-2.9-10.7-5.5-16.4-7.7c-8.8,23.1-28,47.4-58.6,74.6c-38.2,33.8-89.9,68.1-139.9,101.2c-58.6,38.8-118.3,78.3-156.8,117.5
		c3.6,5.1,8.3,10,14.1,14.6C413.1,828.9,426.1,815.3,442.2,801z"/>
	<path fill="none" d="M399.3,801c38.2-33.8,89.9-68.1,139.9-101.2c84.8-56.2,172.1-114,193.6-169.7c-9-2.7-18.5-4.6-28.4-5.8
		c-6.7,26-26.7,53.4-61.7,84.4c-38.2,33.8-89.9,68.1-139.9,101.2c-46.8,31-94.4,62.5-131.2,93.9l10,13.9
		C387.1,812.1,393,806.6,399.3,801z"/>
	<path fill="#E41916" d="M717.4,709.8c39-25.9,79.1-52.4,113-78.9c-0.4-4-1.3-8.4-2.8-13.1c-34.4,27.4-75.9,54.9-116.8,82
		c-50,33.1-101.7,67.4-139.9,101.2c-33.5,29.7-53.3,56-60.8,81.1c4,0.7,8,1.3,12.1,1.9C540.7,826.8,630.4,767.4,717.4,709.8z"/>
	<path fill="#E41916" d="M760.3,709.8c23.6-15.6,47.5-31.5,70.3-47.4v-14.7c-24.6,17.5-50.8,34.9-76.9,52.1
		c-50,33.1-101.7,67.4-139.9,101.2c-35.8,31.7-55.9,59.6-62.1,86.1c4,0.3,8.1,0.6,12.2,0.8C579.5,829.5,671.3,768.8,760.3,709.8z"/>
	<path fill="#E41916" d="M631.6,709.8c50-33.1,101.7-67.4,139.9-101.2c12.6-11.2,23.2-21.8,32-32.2c-2.6-3.1-5.3-6.1-8.2-9
		c-36.9,44-104.3,88.6-170.3,132.3c-50,33.1-101.7,67.4-139.9,101.2c-23.9,21.2-40.8,40.7-51.3,59.2c3.6,1.6,7.4,3.2,11.3,4.7
		C474.8,813.7,554.2,761,631.6,709.8z"/>
	<path fill="#E41916" d="M674.5,709.8c50-33.1,101.7-67.4,139.9-101.2c2.3-2,4.5-4.1,6.7-6.1c-1.8-3.5-3.9-7.1-6.2-10.7
		c-38.4,36-93.2,72.3-147,108c-50,33.1-101.7,67.4-139.9,101.2c-29.6,26.3-48.5,49.9-57.7,72.3c3.8,1.1,7.8,2.1,11.8,3.1
		C505.8,821.5,591.3,764.9,674.5,709.8z"/>
	<path fill="#E41916" d="M825.5,783.6c3.2-6.1,4.9-12.4,5.1-18.9c-16.3,12.1-31.6,24.1-45.2,36.2c-27.3,24.2-45.5,46.1-55.3,67
		c6.2-2.2,12.1-4.5,17.6-6.9C763.7,835.5,791.8,809.6,825.5,783.6z"/>
	<path fill="#E41916" d="M588.7,709.8c50-33.1,101.7-67.4,139.9-101.2c22.5-20,38.9-38.5,49.4-56c-3.2-2.4-6.6-4.6-10.1-6.7
		c-30.2,50.8-109.1,103.1-185.9,153.9c-50,33.1-101.7,67.4-139.9,101.2c-16.2,14.4-29.2,27.9-39.1,40.9c3,2.4,6.3,4.8,9.8,7
		C448.3,802.8,519.3,755.7,588.7,709.8z"/>
	<path fill="#E41916" d="M803.2,709.8c9.1-6,18.3-12.1,27.4-18.2v-14.4c-11.3,7.6-22.7,15.1-34,22.6
		c-50,33.1-101.7,67.4-139.9,101.2c-36.4,32.3-56.7,60.6-62.5,87.6c4.2,0,8.3-0.1,12.4-0.2C621.8,829.9,713.9,768.9,803.2,709.8z"/>
	<path fill="#E41916" d="M830.6,749v-14.6c-32.3,22.1-63.1,44.4-88.1,66.5c-32.8,29.1-52.5,54.9-60.3,79.5c4.7-0.9,9.4-1.9,13.9-2.9
		C713.6,835.3,768.3,791.9,830.6,749z"/>
	<path fill="#E41916" d="M830.6,720.1v-14.4c-47.2,31.3-95.1,63.5-131,95.3c-35.5,31.5-55.7,59.2-62,85.7c4.3-0.4,8.6-0.8,12.9-1.3
		C667,831.1,748,774.9,830.6,720.1z"/>
	<path fill="#E41916" d="M511.8,565.8c-7.2,2.4-14.3,4.7-21.2,6.8c-32.1,36-83.8,72.5-137.6,108.4v14.4
		c43-28.6,85.6-57.9,118.3-86.9C488.2,593.5,501.6,579.3,511.8,565.8z"/>
	<path fill="#E41916" d="M453.8,583.8c-8.1,2.3-15.8,4.4-23.2,6.3c-21.6,20.5-48.5,41.1-77.7,61.6v14.6
		c27.6-19.2,53.7-38.6,75.4-57.8C437.9,600.1,446.4,591.8,453.8,583.8z"/>
	<path fill="#E41916" d="M395.5,599.3c-26.8,7.2-42.6,13.4-42.6,35h0v0.9c11.6-8.9,22.5-17.8,32.5-26.6
		C388.9,605.5,392.3,602.4,395.5,599.3z"/>
	<path fill="#E41916" d="M514.1,608.6c24.7-21.9,42-42,52.3-61.1c-6,2-12,4.1-17.9,6c-33.2,48.4-108,97.9-180.9,146.2
		c-4.9,3.2-9.8,6.5-14.7,9.7v14.4c7.1-4.7,14.2-9.4,21.3-14.1C424.2,676.7,475.9,642.4,514.1,608.6z"/>
	<path fill="#E41916" d="M642.8,608.6c35-31,55-58.3,61.7-84.4c-4-0.5-8.1-0.8-12.2-1c-16.7,57.9-107.7,118.1-195.9,176.6
		c-46.5,30.8-94.5,62.6-131.7,94.1l7.1,9.8c36.9-31.4,84.4-62.9,131.2-93.9C552.9,676.7,604.6,642.4,642.8,608.6z"/>
	<path fill="#E41916" d="M557,608.6c31.7-28.1,51.1-53.1,59.5-77c-4.9,1.2-9.8,2.6-14.7,4.1c-25.1,54-109.3,109.8-191.2,164
		c-19.2,12.7-38.7,25.6-57.6,38.6V753c20.8-14.5,42.6-28.9,64.2-43.2C467.1,676.7,518.8,642.4,557,608.6z"/>
	<path fill="#E41916" d="M545.8,709.8c50-33.1,101.7-67.4,139.9-101.2c30.6-27.2,49.8-51.5,58.6-74.6c-3.7-1.5-7.5-2.8-11.4-4
		C711.3,585.8,624,643.6,539.2,699.8c-50,33.1-101.7,67.4-139.9,101.2c-6.4,5.6-12.2,11.1-17.6,16.6l7.1,9.7l0.1-0.1
		c0,0,0.1,0.1,0.1,0.1C427.5,788.1,487.3,748.6,545.8,709.8z"/>
	<path fill="#E41916" d="M599.9,608.6c35.2-31.2,55.3-58.7,61.8-84.8c-4.3,0.4-8.6,0.9-13,1.5C630.5,582.5,540.6,642,453.4,699.8
		c-34.2,22.7-69.2,45.8-100.2,69.1c0.5,4.2,1.7,8.3,3.6,12.4c31.5-23.9,67.5-47.8,103.2-71.4C510,676.7,561.7,642.4,599.9,608.6z"/>
</g>
</svg>
