<?xml version="1.0" encoding="utf-8"?>
<!-- Generator: Adobe Illustrator 26.0.1, SVG Export Plug-In . SVG Version: 6.00 Build 0)  -->
<svg version="1.1" baseProfile="tiny" id="Layer_1" xmlns="http://www.w3.org/2000/svg" xmlns:xlink="http://www.w3.org/1999/xlink"
	 x="0px" y="0px" viewBox="0 0 1920 1080" overflow="visible" xml:space="preserve">
<path fill="none" stroke="#3D0C0F" stroke-width="3" stroke-linecap="round" stroke-linejoin="round" stroke-miterlimit="10" d="
	M685.6,93.4c0,20.7-42,37.5-93.8,37.5s-93.8-16.8-93.8-37.5"/>
<path fill="none" stroke="#76100F" stroke-width="3" stroke-linecap="round" stroke-linejoin="round" stroke-miterlimit="10" d="
	M715.1,111.9c-19.3,19.7-67.3,33.6-123.4,33.6c-56.2,0-104.2-14-123.4-33.6"/>
<path fill="none" stroke="#76100F" stroke-width="3" stroke-linecap="round" stroke-linejoin="round" stroke-miterlimit="10" d="
	M755.1,50.8c0,36-73.1,65.2-163.4,65.2S428.4,86.8,428.4,50.8"/>
<path fill="none" stroke="#76100F" stroke-width="3" stroke-linecap="round" stroke-linejoin="round" stroke-miterlimit="10" d="
	M755.1,17.2c0,36-73.1,65.2-163.4,65.2S428.4,53.2,428.4,17.2"/>
<path fill="none" stroke="#76100F" stroke-width="3" stroke-linecap="round" stroke-linejoin="round" stroke-miterlimit="10" d="
	M724.2,18.4c0,29.2-59.3,52.9-132.5,52.9S459.3,47.6,459.3,18.4"/>
<path fill="none" stroke="#76100F" stroke-width="3" stroke-linecap="round" stroke-linejoin="round" stroke-miterlimit="10" d="
	M724.2-48c0,29.2-59.3,52.9-132.5,52.9S459.3-18.8,459.3-48"/>
<path fill="none" stroke="#76100F" stroke-width="3" stroke-linecap="round" stroke-linejoin="round" stroke-miterlimit="10" d="
	M685.6-48c0,20.7-42,37.5-93.8,37.5S497.9-27.3,497.9-48"/>
<path fill="none" stroke="#76100F" stroke-width="3" stroke-linecap="round" stroke-linejoin="round" stroke-miterlimit="10" d="
	M685.6-308.3c0,20.7-42,37.5-93.8,37.5s-93.8-16.8-93.8-37.5"/>
<path fill="none" stroke="#3D0C0F" stroke-width="3" stroke-linecap="round" stroke-linejoin="round" stroke-miterlimit="10" d="
	M720.7,1025.7c0,28.4-57.7,51.4-128.8,51.4s-128.8-23-128.8-51.4"/>
<path fill="none" stroke="#76100F" stroke-width="3" stroke-linecap="round" stroke-linejoin="round" stroke-miterlimit="10" d="
	M746.1,987.3c0,34-69,61.6-154.2,61.6s-154.2-27.6-154.2-61.6"/>
<path fill="none" stroke="#76100F" stroke-width="3" stroke-linecap="round" stroke-linejoin="round" stroke-miterlimit="10" d="
	M746.1,1025.7c0,34-69,61.6-154.2,61.6s-154.2-27.6-154.2-61.6"/>
<path fill="none" stroke="#76100F" stroke-width="3" stroke-linecap="round" stroke-linejoin="round" stroke-miterlimit="10" d="
	M746.1,1110.4c0,34-69,61.6-154.2,61.6s-154.2-27.6-154.2-61.6"/>
<path fill="none" stroke="#76100F" stroke-width="3" stroke-linecap="round" stroke-linejoin="round" stroke-miterlimit="10" d="
	M746.1,1148.8c0,34-69,61.6-154.2,61.6s-154.2-27.6-154.2-61.6"/>
<path fill="none" stroke="#76100F" stroke-width="3" stroke-linecap="round" stroke-linejoin="round" stroke-miterlimit="10" d="
	M720.7,987.3c0,28.4-57.7,51.4-128.8,51.4s-128.8-23-128.8-51.4"/>
<path fill="none" stroke="#76100F" stroke-width="3" stroke-linecap="round" stroke-linejoin="round" stroke-miterlimit="10" d="
	M720.7,1113.4c0,28.4-57.7,51.4-128.8,51.4s-128.8-23-128.8-51.4"/>
</svg>
