<?xml version="1.0" encoding="utf-8"?>
<!-- Generator: Adobe Illustrator 26.0.1, SVG Export Plug-In . SVG Version: 6.00 Build 0)  -->
<svg version="1.1" baseProfile="tiny" id="Layer_1" xmlns="http://www.w3.org/2000/svg" xmlns:xlink="http://www.w3.org/1999/xlink"
	 x="0px" y="0px" viewBox="0 0 1920 1080" overflow="visible" xml:space="preserve">
<g id="Layer_4">
	
		<path fill="#9B1A09" stroke="#E41916" stroke-width="3" stroke-linecap="round" stroke-linejoin="round" stroke-miterlimit="10" d="
		M600.4,805.4h-17.3c-4.8,0-8.6-3.9-8.6-8.6V366.8c0-4.8,3.9-8.6,8.6-8.6h17.3c4.8,0,8.6,3.9,8.6,8.6v429.9
		C609,801.5,605.1,805.4,600.4,805.4z"/>
</g>
<g id="Layer_3">
	<g>
		<path fill="#E41916" d="M574.5,527.1c11.9-8.9,23.5-17.8,34.5-26.9v-15.6c-10.9,9.2-22.5,18.4-34.5,27.5V527.1z"/>
		<path fill="#E41916" d="M609,660.5v-14.6c-12,8.4-23.6,16.6-34.5,24.8v15.1C585.3,677.4,596.9,669,609,660.5z"/>
		<path fill="#E41916" d="M609,379.8v-13c0-4.8-3.9-8.6-8.6-8.6H599c0.9,20.3-7.1,42.2-24.5,66.1v19.5
			C593.2,421.2,604.6,399.9,609,379.8z"/>
		<path fill="#E41916" d="M581.6,467.8c-2.3,2.2-4.7,4.4-7.2,6.5v16c5.3-4.6,10.4-9.1,15.3-13.7c6.9-6.4,13.3-12.8,19.2-19v-17.8
			C601.1,448.8,592,458.1,581.6,467.8z"/>
		<path fill="#E41916" d="M609,731.8v-16.4c-13.7,12.4-25.1,24.3-34.5,36.1v20.1C583.2,758.8,594.6,745.6,609,731.8z"/>
		<path fill="#E41916" d="M593.5,706.4c5-4.1,10.1-8.3,15.5-12.5v-15.2c-8.1,6.2-15.8,12.3-23.2,18.4c-4,3.3-7.7,6.5-11.4,9.8v16.2
			C580.3,717.6,586.7,712,593.5,706.4z"/>
		<path fill="#E41916" d="M584,805.4h12.8c3.1-7.8,7.1-15.6,12.2-23.5v-20.8C597.4,776.1,589.2,790.8,584,805.4z"/>
		<path fill="#E41916" d="M609,553.5c-11.5,7.8-23,15.5-34.5,23.1V591c11.5-7.6,23-15.2,34.5-23V553.5z"/>
		<path fill="#E41916" d="M609,629.2v-14.4c-11.8,7.9-23.4,15.6-34.5,23.3v14.6C585.6,645,597.1,637.1,609,629.2z"/>
		<path fill="#E41916" d="M574.5,545.4V560c11.7-8,23.2-16.1,34.5-24.3v-14.8C597.7,529.2,586.2,537.4,574.5,545.4z"/>
		<path fill="#E41916" d="M607.7,599.6l1.3-0.9v-14.4l-7.9,5.2c-9,5.9-17.9,11.8-26.6,17.6v14.4C585.3,614.3,596.4,607,607.7,599.6z
			"/>
	</g>
</g>
</svg>
