<?xml version="1.0" encoding="utf-8"?>
<!-- Generator: Adobe Illustrator 26.0.1, SVG Export Plug-In . SVG Version: 6.00 Build 0)  -->
<svg version="1.1" baseProfile="tiny" id="Layer_3" xmlns="http://www.w3.org/2000/svg" xmlns:xlink="http://www.w3.org/1999/xlink"
	 x="0px" y="0px" viewBox="0 0 1920 1080" overflow="visible" xml:space="preserve">
<path fill="none" stroke="#720F16" stroke-width="3" stroke-linecap="round" stroke-linejoin="round" stroke-miterlimit="10" d="
	M563.1,872.1"/>
<path fill="none" stroke="#720F16" stroke-width="3" stroke-linecap="round" stroke-linejoin="round" stroke-miterlimit="10" d="
	M620.5,872.1"/>
<path fill="none" stroke="#720F16" stroke-width="3" stroke-linecap="round" stroke-linejoin="round" stroke-miterlimit="10" d="
	M554.4,907.2"/>
<path fill="none" stroke="#720F16" stroke-width="3" stroke-linecap="round" stroke-linejoin="round" stroke-miterlimit="10" d="
	M629.1,907.2"/>
<line fill="none" stroke="#E41916" stroke-width="3" stroke-linecap="round" stroke-linejoin="round" stroke-miterlimit="10" x1="629.1" y1="907.2" x2="629.1" y2="922.1"/>
<line fill="none" stroke="#E41916" stroke-width="3" stroke-linecap="round" stroke-linejoin="round" stroke-miterlimit="10" x1="554.4" y1="907.2" x2="554.4" y2="922.1"/>
<line fill="none" stroke="#E41916" stroke-width="3" stroke-linecap="round" stroke-linejoin="round" stroke-miterlimit="10" x1="620.5" y1="897.7" x2="620.5" y2="907.2"/>
<line fill="none" stroke="#E41916" stroke-width="3" stroke-linecap="round" stroke-linejoin="round" stroke-miterlimit="10" x1="563.1" y1="897.7" x2="563.1" y2="907.2"/>
<line fill="none" stroke="#E41916" stroke-width="3" stroke-linecap="round" stroke-linejoin="round" stroke-miterlimit="10" x1="620.5" y1="889.4" x2="620.5" y2="897.7"/>
<line fill="none" stroke="#E41916" stroke-width="3" stroke-linecap="round" stroke-linejoin="round" stroke-miterlimit="10" x1="563.1" y1="889.4" x2="563.1" y2="897.7"/>
<path fill="none" stroke="#E41916" stroke-width="3" stroke-linecap="round" stroke-linejoin="round" stroke-miterlimit="10" d="
	M629.1,922.1c0,8.2-16.7,14.9-37.3,14.9c-20.6,0-37.3-6.7-37.3-14.9"/>
<path fill="none" stroke="#E41916" stroke-width="3" stroke-linecap="round" stroke-linejoin="round" stroke-miterlimit="10" d="
	M629.1,907.2c0,8.2-16.7,14.9-37.3,14.9c-20.6,0-37.3-6.7-37.3-14.9"/>
<path fill="none" stroke="#E41916" stroke-width="3" stroke-linecap="round" stroke-linejoin="round" stroke-miterlimit="10" d="
	M620.5,897.7c5.4,2.6,8.6,5.9,8.6,9.5"/>
<path fill="none" stroke="#E41916" stroke-width="3" stroke-linecap="round" stroke-linejoin="round" stroke-miterlimit="10" d="
	M554.4,907.2c0-3.6,3.2-6.9,8.6-9.5"/>
<path fill="none" stroke="#E41916" stroke-width="3" stroke-linecap="round" stroke-linejoin="round" stroke-miterlimit="10" d="
	M620.5,907.2c0,6.3-12.9,11.5-28.7,11.5c-15.9,0-28.7-5.1-28.7-11.5"/>
<line fill="none" stroke="#E41916" stroke-width="3" stroke-linecap="round" stroke-linejoin="round" stroke-miterlimit="10" x1="742.4" y1="228" x2="822" y2="334.4"/>
<line fill="none" stroke="#E41916" stroke-width="3" stroke-linecap="round" stroke-linejoin="round" stroke-miterlimit="10" x1="440.8" y1="228" x2="361.2" y2="334.4"/>
<line fill="none" stroke="#E41916" stroke-width="3" stroke-linecap="round" stroke-linejoin="round" stroke-miterlimit="10" x1="794.5" y1="828.4" x2="819.1" y2="794.4"/>
<line fill="none" stroke="#E41916" stroke-width="3" stroke-linecap="round" stroke-linejoin="round" stroke-miterlimit="10" x1="388.8" y1="828.4" x2="364.2" y2="794.4"/>
<path fill="none" stroke="#E41916" stroke-width="3" stroke-linecap="round" stroke-linejoin="round" stroke-miterlimit="10" d="
	M822,334.4c5.6,8.1,8.6,16.6,8.6,25.4c0,52.7-106.9,95.3-238.8,95.3s-238.8-42.7-238.8-95.3c0-8.7,2.9-17.2,8.5-25.3"/>
<path fill="none" stroke="#E41916" stroke-width="3" stroke-linecap="round" stroke-linejoin="round" stroke-miterlimit="10" d="
	M794.5,828.4c-24.8,35.4-106.1,61.4-202.7,61.4c-96.7,0-178.1-26-202.8-61.5"/>
<path fill="none" stroke="#E41916" stroke-width="3" stroke-linecap="round" stroke-linejoin="round" stroke-miterlimit="10" d="
	M830.6,765.1c0,52.7-106.9,95.3-238.8,95.3s-238.8-42.7-238.8-95.3"/>
<ellipse fill="none" stroke="#E41916" stroke-width="3" stroke-linecap="round" stroke-linejoin="round" stroke-miterlimit="10" cx="591.8" cy="244.7" rx="156.3" ry="62.4"/>
<ellipse fill="none" stroke="#E41916" stroke-width="3" stroke-linecap="round" stroke-linejoin="round" stroke-miterlimit="10" cx="591.8" cy="244.7" rx="127.2" ry="50.8"/>
<line fill="none" stroke="#E41916" stroke-width="3" stroke-linecap="round" stroke-linejoin="round" stroke-miterlimit="10" x1="352.9" y1="359.8" x2="352.9" y2="765.1"/>
<line fill="none" stroke="#E41916" stroke-width="3" stroke-linecap="round" stroke-linejoin="round" stroke-miterlimit="10" x1="830.6" y1="359.8" x2="830.6" y2="765.1"/>
<path fill="none" stroke="#E41916" stroke-width="3" stroke-linecap="round" stroke-linejoin="round" stroke-miterlimit="10" d="
	M764.7,258.2c0,34.2-57.4,60.8-136.1,67.4l-5.1,6.3c0,0-15.9,1.5-29.5,1.5s-29.5-1.5-29.5-1.5l-5.1-6.3
	c-78.8-6.6-140.7-34.2-140.7-68.4"/>
<path fill="none" stroke="#E41916" stroke-width="3" stroke-linecap="round" stroke-linejoin="round" stroke-miterlimit="10" d="
	M822,335.2c0,46-79,86.8-183.9,95.6l-6.8-6.2c0,0-21.2,2-39.2,2s-39.2-2-39.2-2l-6.8,6.2C441,422,362.1,381.2,362.1,335.2"/>
</svg>
