<?xml version="1.0" encoding="utf-8"?>
<!-- Generator: Adobe Illustrator 27.0.0, SVG Export Plug-In . SVG Version: 6.00 Build 0)  -->
<svg version="1.1" baseProfile="tiny" xmlns="http://www.w3.org/2000/svg" xmlns:xlink="http://www.w3.org/1999/xlink" x="0px"
	 y="0px" viewBox="0 0 64 64" overflow="visible" xml:space="preserve">
<g id="GUIDES" display="none">
</g>
<g id="Scope">
	<g id="Rangefinder" display="none">
	</g>
	<g id="_x32_x_00000021113514599009434030000009143942807477849755_">
		<path d="M32,14.632c-0.447,0-0.812-0.364-0.812-0.812V2.18c0-0.448,0.364-0.812,0.812-0.812c0.448,0,0.812,0.364,0.812,0.812
			v11.64C32.812,14.268,32.448,14.632,32,14.632z"/>
		<path d="M32,62.632c-0.447,0-0.812-0.364-0.812-0.812V50.18c0-0.448,0.364-0.812,0.812-0.812c0.448,0,0.812,0.364,0.812,0.812
			v11.64C32.812,62.268,32.448,62.632,32,62.632z"/>
		<g>
			<path d="M43.756,35.51c-0.556,0-1.006,0.45-1.006,1.006v0.664c0,1.185-0.438,2.319-1.235,3.195l-7.253,11.194
				c-0.106,0.163-0.162,0.353-0.162,0.547v2.688c0.711-0.301,1.359-0.751,1.889-1.333l7.447-11.494
				c1.171-1.325,1.814-3.024,1.814-4.797v-0.664c0-0.556-0.45-1.006-1.006-1.006H43.756z"/>
			<path d="M42.75,26.82v0.674c0,0.55,0.446,0.996,0.996,0.996h0.507c0.55,0,0.996-0.446,0.996-0.996V26.82
				c0-1.772-0.644-3.472-1.814-4.797l-7.322-11.332l-0.125-0.163c-0.529-0.582-1.177-1.032-1.889-1.334v2.986l7.415,11.444
				C42.311,24.5,42.75,25.635,42.75,26.82z"/>
		</g>
		<g>
			<path d="M20.249,28.49c0.553,0,1.001-0.448,1.001-1.001V26.82c0-1.184,0.438-2.319,1.235-3.195L29.9,12.182V9.195
				c-0.711,0.301-1.359,0.751-1.888,1.334l-7.449,11.494c-1.17,1.327-1.813,3.025-1.813,4.797v0.669
				c0,0.553,0.448,1.001,1.001,1.001H20.249z"/>
			<path d="M22.485,40.375c-0.797-0.876-1.235-2.011-1.235-3.195v-0.667c0-0.554-0.449-1.004-1.004-1.004h-0.492
				c-0.554,0-1.004,0.449-1.004,1.004v0.667c0,1.771,0.644,3.47,1.813,4.797l7.324,11.332l0.125,0.162
				c0.529,0.582,1.177,1.032,1.888,1.333v-2.987l-7.29-11.28L22.485,40.375z"/>
		</g>
	</g>
</g>
<g id="Layer_4">
</g>
</svg>
