<?xml version="1.0" encoding="utf-8"?>
<!-- Generator: Adobe Illustrator 28.6.0, SVG Export Plug-In . SVG Version: 9.03 Build 54939)  -->
<svg version="1.1" baseProfile="tiny" id="Layer_1" xmlns="http://www.w3.org/2000/svg" xmlns:xlink="http://www.w3.org/1999/xlink"
	 x="0px" y="0px" viewBox="0 0 1920 1080" overflow="visible" xml:space="preserve">
<path fill="#6FB8C7" d="M1920,851.2l-5.7-11.4c-3.4-6.8-5.6-22-5.6-38.8V283c0-16.8,2.2-32.1,5.6-38.8l5.7-11.4V851.2z"/>
<path fill="#6FB8C7" d="M0,232.8l5.7,11.4c3.4,6.8,5.6,22,5.6,38.8V801c0,16.8-2.2,32.1-5.6,38.8L0,851.2V232.8z"/>
<path fill="#6FB8C7" d="M646.4,1080l11.4-5.7c6.8-3.4,22-5.6,38.8-5.6l517.9,0c16.8,0,32.1,2.2,38.8,5.6l11.4,5.7L646.4,1080z"/>
<path fill="#6FB8C7" d="M1264.9,0l-11.4,5.7c-6.8,3.4-22,5.6-38.8,5.6l-517.9,0c-16.8,0-32.1-2.2-38.8-5.6L646.4,0L1264.9,0z"/>
</svg>
