<?xml version="1.0" encoding="utf-8"?>
<!-- Generator: Adobe Illustrator 28.6.0, SVG Export Plug-In . SVG Version: 9.03 Build 54939)  -->
<svg version="1.1" baseProfile="tiny" id="Layer_1" xmlns="http://www.w3.org/2000/svg" xmlns:xlink="http://www.w3.org/1999/xlink"
	 x="0px" y="0px" viewBox="0 0 468 681.5" overflow="visible" xml:space="preserve">
<path fill="#32646D" d="M438,482h-1V11.1h1V482z M436.5,1.3c0,0.6,0.5,1.1,1.1,1.1s1.1-0.5,1.1-1.1s-0.5-1.1-1.1-1.1
	S436.5,0.7,436.5,1.3z M438.9,1.3c0-0.7-0.6-1.3-1.3-1.3c-0.7,0-1.3,0.6-1.3,1.3s0.6,1.3,1.3,1.3S438.9,2,438.9,1.3z M438.4,1.3
	c0,0.5-0.4,0.8-0.8,0.8s-0.8-0.4-0.8-0.8c0-0.5,0.4-0.8,0.8-0.8S438.4,0.9,438.4,1.3z M427.2,11.1h-1V482h1V11.1z M425.6,1.3
	c0,0.6,0.5,1.1,1.1,1.1s1.1-0.5,1.1-1.1s-0.5-1.1-1.1-1.1S425.6,0.7,425.6,1.3z M428,1.3c0-0.7-0.6-1.3-1.3-1.3s-1.3,0.6-1.3,1.3
	s0.6,1.3,1.3,1.3S428,2,428,1.3z M427.5,1.3c0,0.5-0.4,0.8-0.8,0.8s-0.8-0.4-0.8-0.8c0-0.5,0.4-0.8,0.8-0.8S427.5,0.9,427.5,1.3z
	 M427.2,613.7h-1v46.7h1V613.7z M427.8,670.2c0-0.6-0.5-1.1-1.1-1.1s-1.1,0.5-1.1,1.1s0.5,1.1,1.1,1.1S427.8,670.8,427.8,670.2z
	 M428,670.2c0-0.7-0.6-1.3-1.3-1.3s-1.3,0.6-1.3,1.3s0.6,1.3,1.3,1.3S428,671,428,670.2z M427.5,670.2c0,0.5-0.4,0.8-0.8,0.8
	s-0.8-0.4-0.8-0.8s0.4-0.8,0.8-0.8S427.5,669.8,427.5,670.2z M438,613.7h-1v46.7h1V613.7z M438.6,670.2c0-0.6-0.5-1.1-1.1-1.1
	s-1.1,0.5-1.1,1.1s0.5,1.1,1.1,1.1S438.6,670.8,438.6,670.2z M438.9,670.2c0-0.7-0.6-1.3-1.3-1.3c-0.7,0-1.3,0.6-1.3,1.3
	s0.6,1.3,1.3,1.3S438.9,671,438.9,670.2z M438.4,670.2c0,0.5-0.4,0.8-0.8,0.8s-0.8-0.4-0.8-0.8s0.4-0.8,0.8-0.8
	S438.4,669.8,438.4,670.2z"/>
<path id="opacity:35" fill="#27424B" d="M391.1,637.2c0,7.7-6.3,14-14,14H14c-7.7,0-14-6.3-14-14v-623c0-7.7,6.3-14,14-14h363.1
	c7.7,0,14,6.3,14,14l0,491.5c0,0.7,0.3,1.5,0.8,1.9l38.2,38.2c1.1,1.1,1.1,2.8,0,3.9l-38.2,38.2c-0.5,0.5-0.8,1.2-0.8,1.9
	L391.1,637.2z M413.5,588.8l39-39c1.1-1.1,1.1-2.8,0-3.9l-39-39h-9.7l39.8,39.8c0.6,0.6,0.6,1.7,0,2.3l-39.8,39.8L413.5,588.8
	L413.5,588.8z"/>
</svg>
