<?xml version="1.0" encoding="utf-8"?>
<!-- Generator: Adobe Illustrator 29.2.1, SVG Export Plug-In . SVG Version: 9.03 Build 55982)  -->
<svg version="1.1" baseProfile="tiny" id="Layer_1" xmlns="http://www.w3.org/2000/svg" xmlns:xlink="http://www.w3.org/1999/xlink"
	 x="0px" y="0px" viewBox="0 0 27.9 7" overflow="visible" xml:space="preserve">
<path fill="#D3012F" d="M4.8,6.7C1.7,7.9-1.1,4.6,0.5,1.8C0.9,1,2,0.2,2.8,0C7-0.6,8.6,5.2,4.8,6.7z M2.7,0.7
	C-0.2,1.4-0.1,5.8,3,6.3C7.6,7.1,7.3-0.4,2.7,0.7z"/>
<path fill="#FBFCFC" d="M11.4,1.2c0.2,0,0.4,0,0.6,0l0,4h2.2l0,0.9c-0.8,0-1.7,0-2.5,0c-0.2,0-0.4,0-0.6,0l0-4.9
	C11.2,1.2,11.3,1.2,11.4,1.2z"/>
<path fill="#FBFCFC" d="M19.7,1.3l1.1,3.4l1-3.3l1.1-0.1l-1.6,5c-0.3,0-0.8,0.1-1-0.1l-1.6-4.7c0-0.2,0-0.1,0.1-0.1
	C18.9,1.2,19.7,1.2,19.7,1.3z"/>
<path fill="#FBFCFC" d="M17,1.2c0,0.7-0.1,4.8,0,5h-1v-5H17z"/>
<polygon fill="#FBFCFC" points="27.9,1.2 27.9,2.2 25.7,2.2 25.7,3.2 27.8,3.2 27.8,4.2 25.7,4.2 25.7,5.2 27.9,5.2 27.9,6.1 
	24.7,6.1 24.7,1.2 "/>
<path fill="#D3012F" d="M3.2,5C2.5,4.9,1.9,4.2,1.9,3.5c0-0.5,0.5-1.2,0.9-1.4c0.6-0.3,1.5,0,1.9,0.6C5.5,3.8,4.6,5.2,3.2,5z"/>
</svg>
