<?xml version="1.0" encoding="utf-8"?>
<!-- Generator: Adobe Illustrator 29.2.1, SVG Export Plug-In . SVG Version: 9.03 Build 55982)  -->
<svg version="1.1" baseProfile="tiny" id="Layer_1" xmlns="http://www.w3.org/2000/svg" xmlns:xlink="http://www.w3.org/1999/xlink"
	 x="0px" y="0px" viewBox="0 0 80.8 32.6" overflow="visible" xml:space="preserve">
<rect id="_x3C_Rectangle_x3E__opacity:20" x="0" y="21.8" fill="#D3012F" width="35.8" height="10.8"/>
<path fill="#D3012F" d="M0.5,21.8C0.5,21.8,0.6,21.8,0.5,21.8l0.1,10.8H0.5H0.3c-0.1,0-0.2,0-0.3,0c0-0.2,0-0.3,0-0.5
	c-0.1-1.7,0-3.4,0-5.1c0-1.8,0-3.5,0-5.3C0.2,21.8,0.3,21.8,0.5,21.8z"/>
<path fill="#FFFFFF" d="M1.7,6.8c0,1.7,6.8,1.8,6.8,4.6v1.2c0,1.4-1.1,2.5-2.5,2.5H0.5L0,13.5h6c0.5,0,0.8-0.4,0.8-0.8v-0.8
	c0-1.7-6.8-1.7-6.8-4.6V6c0-1.4,1.1-2.5,2.5-2.5H8l0.5,1.7h-6C2,5.2,1.7,5.5,1.7,6V6.8z"/>
<path fill="#FFFFFF" d="M11.1,6.8c0,1.7,6.8,1.8,6.8,4.6v1.2c0,1.4-1.1,2.5-2.5,2.5H10l-0.5-1.7h6c0.5,0,0.8-0.4,0.8-0.8v-0.8
	c0-1.7-6.8-1.7-6.8-4.6V6c0-1.4,1.1-2.5,2.5-2.5h5.5l0.5,1.7h-6c-0.5,0-0.8,0.4-0.8,0.8V6.8z"/>
<path fill="#FFFFFF" d="M21.7,5.2c-0.5,0-0.8,0.4-0.8,0.8v9.1h-1.7V6c0-1.4,1.1-2.5,2.5-2.5h3.3c1.4,0,2.5,1.1,2.5,2.5v9.1h-1.7V6
	c0-0.5-0.4-0.8-0.8-0.8H21.7z"/>
<path fill="#FFFFFF" d="M34,0h1.8l-5.3,18.6h-1.8L34,0z"/>
<path fill="#0060D3" d="M54.4,5.2H51c-0.5,0-0.8,0.4-0.8,0.8v2.5h5V6C55.2,5.5,54.8,5.2,54.4,5.2z M54.4,5.2H51
	c-0.5,0-0.8,0.4-0.8,0.8v2.5h5V6C55.2,5.5,54.8,5.2,54.4,5.2z M54.4,5.2H51c-0.5,0-0.8,0.4-0.8,0.8v2.5h5V6
	C55.2,5.5,54.8,5.2,54.4,5.2z M54.4,5.2H51c-0.5,0-0.8,0.4-0.8,0.8v2.5h5V6C55.2,5.5,54.8,5.2,54.4,5.2z M38.5,0l-5.3,18.6h42.3
	l1.8-6.2L80.8,0H38.5z M41.6,13.5h5.8l-0.5,1.7h-5.3c-0.6,0-1.2-0.2-1.6-0.6l-0.3-0.3c-0.4-0.4-0.6-1-0.6-1.6V6
	c0-1.4,1.1-2.5,2.5-2.5h5.3l0.5,1.7h-5.8c-0.5,0-0.8,0.4-0.8,0.8v6.6C40.7,13.1,41.1,13.5,41.6,13.5z M56.8,15.1h-1.7v-5h-5v5h-1.7
	V6c0-0.3,0-0.5,0.1-0.7c0.3-1,1.3-1.8,2.4-1.8h3.3c0.1,0,0.2,0,0.3,0c1.2,0.1,2.2,1.2,2.2,2.5V15.1z M66.1,5.2h-3.3v10h-1.7v-10
	h-3.3V3.5h8.3V5.2z M75.4,7.5c0,2.5-3.3,7.6-3.3,7.6h-1.6c0,0-3.3-5.1-3.3-7.6v-4h1.7v4c0,1.7,2.5,5.8,2.5,5.8s1.9-3.2,2.4-5.1
	c0,0,0,0,0,0c0.1-0.3,0.1-0.5,0.1-0.7v-4h1.7V7.5z M54.4,5.2H51c-0.5,0-0.8,0.4-0.8,0.8v2.5h5V6C55.2,5.5,54.8,5.2,54.4,5.2z
	 M54.4,5.2H51c-0.5,0-0.8,0.4-0.8,0.8v2.5h5V6C55.2,5.5,54.8,5.2,54.4,5.2z M54.4,5.2H51c-0.5,0-0.8,0.4-0.8,0.8v2.5h5V6
	C55.2,5.5,54.8,5.2,54.4,5.2z M54.4,5.2H51c-0.5,0-0.8,0.4-0.8,0.8v2.5h5V6C55.2,5.5,54.8,5.2,54.4,5.2z M54.4,5.2H51
	c-0.5,0-0.8,0.4-0.8,0.8v2.5h5V6C55.2,5.5,54.8,5.2,54.4,5.2z"/>
<g>
	<path fill="#003084" d="M55.2,6v2.5h-5V6c0-0.5,0.4-0.8,0.8-0.8h3.3C54.8,5.2,55.2,5.5,55.2,6z"/>
	<path fill="#003084" d="M73.7,8.2c-0.5,1.9-2.4,5.1-2.4,5.1s-2.5-4.1-2.5-5.8v-4l4.8,4.8L73.7,8.2z"/>
	<path fill="#003084" d="M78.8,6.9l-1.6,5.6l-1.8,6.2H44.1L40,14.5c0.4,0.4,1,0.6,1.6,0.6h5.3l0.5-1.7h-5.8c-0.5,0-0.8-0.4-0.8-0.8
		V6c0-0.5,0.4-0.8,0.8-0.8h5.8l-0.5-1.7l1.8,1.8c-0.1,0.2-0.1,0.5-0.1,0.7v9.1h1.7v-5h5v5h1.7V6c0-1.3-1-2.3-2.2-2.5l0,0h1.6
		l1.6,1.6h3.3v10h1.7v-10h3.3V3.5l1,1l0,0v3c0,2.5,3.3,7.6,3.3,7.6h1.6c0,0,3.3-5.1,3.3-7.6v-4L78.8,6.9z"/>
</g>
<path fill="#FFFFFF" d="M39.7,14.3c0.1,0.1,0.2,0.2,0.3,0.3L39.7,14.3z"/>
<path fill="#FFFFFF" d="M41.6,13.5h5.8l-0.5,1.7h-5.3c-0.6,0-1.2-0.2-1.6-0.6l-0.3-0.3c-0.4-0.4-0.6-1-0.6-1.6V6
	c0-1.4,1.1-2.5,2.5-2.5h5.3l0.5,1.7h-5.8c-0.5,0-0.8,0.4-0.8,0.8v6.6C40.7,13.1,41.1,13.5,41.6,13.5z"/>
<path fill="#FFFFFF" d="M54.6,3.5c-0.1,0-0.2,0-0.3,0H51c-1.1,0-2.1,0.7-2.4,1.8c-0.1,0.2-0.1,0.5-0.1,0.7v9.1h1.7v-5h5v5h1.7V6
	C56.8,4.7,55.9,3.7,54.6,3.5z M55.2,8.5h-5V6c0-0.5,0.4-0.8,0.8-0.8h3.3c0.5,0,0.8,0.4,0.8,0.8V8.5z"/>
<polygon fill="#FFFFFF" points="66.1,3.5 66.1,5.2 62.8,5.2 62.8,15.1 61.2,15.1 61.2,5.2 57.8,5.2 57.8,3.5 "/>
<path fill="#FFFFFF" d="M75.4,3.5v4c0,2.5-3.3,7.6-3.3,7.6h-1.6c0,0-3.3-5.1-3.3-7.6v-4h1.7v4c0,1.7,2.5,5.8,2.5,5.8
	s1.9-3.2,2.4-5.1c0,0,0,0,0,0c0.1-0.3,0.1-0.5,0.1-0.7v-4H75.4z"/>
</svg>
