<?xml version="1.0" encoding="utf-8"?>
<!-- Generator: Adobe Illustrator 25.4.1, SVG Export Plug-In . SVG Version: 6.00 Build 0)  -->
<svg version="1.1" baseProfile="tiny" id="Layer_1" xmlns="http://www.w3.org/2000/svg" xmlns:xlink="http://www.w3.org/1999/xlink"
	 x="0px" y="0px" width="64px" height="64px" viewBox="0 0 64 64" overflow="visible" xml:space="preserve">
<polygon fill="#0074FF" points="40.9,53.6 43.3,52.8 41.7,51.2 "/>
<rect x="19.3" y="10.3" fill="#50A0FF" width="16.5" height="2.1"/>
<path fill="#0051C6" d="M48.2,54.8c0,1.1-0.9,1.9-1.9,1.9H17.1c-1.1,0-1.9-0.9-1.9-1.9V9.2c0-1.1,0.9-1.9,1.9-1.9h29.1
	c1.1,0,1.9,0.9,1.9,1.9v31.5l4.1-4.1V9.2c0-3.3-2.7-6-6-6H17.1c-3.3,0-6,2.7-6,6v45.7c0,3.3,2.7,6,6,6h29.1c3.3,0,6-2.7,6-6V48
	l-4.1,4.1L48.2,54.8L48.2,54.8z"/>
<rect x="19.3" y="14.4" fill="#50A0FF" width="24.7" height="2.1"/>
<rect x="19.3" y="18.5" fill="#50A0FF" width="8.3" height="2.1"/>
<rect x="31.7" y="18.5" fill="#50A0FF" width="12.4" height="2.1"/>
<rect x="19.3" y="22.7" fill="#50A0FF" width="16.5" height="2.1"/>
<rect x="39.9" y="22.7" fill="#50A0FF" width="4.1" height="2.1"/>
<rect x="19.3" y="26.8" fill="#50A0FF" width="8.3" height="2.1"/>
<rect x="31.7" y="26.8" fill="#50A0FF" width="12.4" height="2.1"/>
<rect x="19.3" y="31" fill="#50A0FF" width="24.7" height="2.1"/>
<rect x="19.3" y="35.1" fill="#50A0FF" width="16.5" height="2.1"/>
<rect x="39.9" y="35.1" fill="#50A0FF" width="4.1" height="2.1"/>
<rect x="19.3" y="39.1" fill="#50A0FF" width="4.1" height="2.1"/>
<rect x="27.6" y="39.1" fill="#50A0FF" width="16.5" height="2.1"/>
<rect x="19.3" y="43.3" fill="#50A0FF" width="12.4" height="2.1"/>
<rect x="19.3" y="47.4" fill="#50A0FF" width="8.3" height="2.1"/>
<rect x="19.3" y="51.6" fill="#50A0FF" width="8.3" height="2.1"/>
<rect x="31.7" y="51.6" fill="#50A0FF" width="4.1" height="2.1"/>
<path fill="#FF00B7" d="M60.2,37.8c0.5-0.5,0.5-1.5,0-2.1l-1.3-1.3c-0.5-0.5-1.5-0.5-2.1,0l-0.7,0.7l3.4,3.4L60.2,37.8z"/>
<polygon fill="#B7582E" points="42.6,48.6 42,50.4 44.2,52.5 46,52 58.6,39.4 55.2,36 "/>
</svg>
