<?xml version="1.0" encoding="utf-8"?>
<!-- Generator: Adobe Illustrator 25.4.1, SVG Export Plug-In . SVG Version: 6.00 Build 0)  -->
<svg version="1.1" baseProfile="tiny" id="Layer_1" xmlns="http://www.w3.org/2000/svg" xmlns:xlink="http://www.w3.org/1999/xlink"
	 x="0px" y="0px" width="64px" height="64px" viewBox="0 0 64 64" overflow="visible" xml:space="preserve">
<path fill="#8E8769" d="M56.1,27.9h-1.5V14.7H9.2v13.2H7.6c-2.1,0-3.7,1.7-3.7,3.7v24.6c0,2.1,1.7,3.7,3.7,3.7H56
	c2.1,0,3.7-1.7,3.7-3.7V31.7C59.8,29.6,58.1,27.9,56.1,27.9z M56.1,30.9c0.5,0,0.8,0.4,0.8,0.8v9.5h-2.4V30.9H56.1z M51.6,17.6v23.6
	H12.1V17.6H51.6z M56.1,57.1H7.6c-0.5,0-0.8-0.4-0.8-0.8V44.2H57v12.2C56.9,56.7,56.6,57.1,56.1,57.1z M9.2,41.2H6.8v-9.5
	c0-0.5,0.4-0.8,0.8-0.8h1.5L9.2,41.2L9.2,41.2z"/>
<path fill="#8E8769" d="M18,10.7l0.2,0.1c0.4,0.2,1,0.2,1.4-0.1C23.2,8.3,27.4,7,31.8,7s8.6,1.3,12.3,3.7c0.2,0.2,0.5,0.2,0.7,0.2
	s0.4-0.1,0.6-0.2l0.2-0.1c0.4-0.2,0.7-0.6,0.7-1.1s-0.2-1-0.6-1.2c-4.1-2.8-8.9-4.1-13.9-4.1s-9.7,1.5-13.9,4.1
	c-0.4,0.2-0.6,0.7-0.6,1.2C17.3,10,17.6,10.4,18,10.7z"/>
<path fill="#8E8769" d="M31.8,9.4c-2.2,0-4.4,0.5-6.3,1.5c-0.6,0.2-0.8,0.8-0.7,1.4c0.1,0.6,0.5,1.1,1.1,1.2l0.2,0.1
	c0.1,0,0.2,0,0.2,0c0.2,0,0.4-0.1,0.6-0.2c1.5-0.7,3.2-1.1,4.9-1.1s3.3,0.3,4.9,1.1c0.2,0.2,0.6,0.2,0.8,0.1l0.2-0.1
	c0.6-0.2,1.1-0.6,1.1-1.2c0.1-0.6-0.2-1.1-0.7-1.4C36.2,9.9,34.1,9.4,31.8,9.4z"/>
<rect x="20.7" y="20.1" fill="#A86A18" width="22.2" height="2.7"/>
<rect x="18" y="25.4" fill="#A86A18" width="27.6" height="2.7"/>
<rect x="23.4" y="30.8" fill="#A86A18" width="17" height="2.7"/>
<rect x="15.4" y="36.1" fill="#A86A18" width="32.9" height="2.7"/>
</svg>
