<?xml version="1.0" encoding="utf-8"?>
<!-- Generator: Adobe Illustrator 27.4.0, SVG Export Plug-In . SVG Version: 6.00 Build 0)  -->
<svg version="1.1" baseProfile="tiny" id="Layer_1" xmlns="http://www.w3.org/2000/svg" xmlns:xlink="http://www.w3.org/1999/xlink"
	 x="0px" y="0px" viewBox="0 0 640 640" overflow="visible" xml:space="preserve">
<g>
	<path fill="#B2CDE5" d="M105.5,92.7v28.9H88.4l0,0v0h0l0,0V99.4l0,0l-14,0v22.2H57.1V92.8l3.5-3.1v28.4h0H71V94.9v0v0h21l0,0h0
		v23.2H102V89.5L105.5,92.7z M111.3,87.8c0,0-25-21.7-27.3-23.6c-2.9-2.4-5.7,0-5.7,0l3.4,3l-0.6-0.6l30.1,26.3L111.3,87.8z
		 M51.7,87.7l0,4.8l29.5-25.8l-2.7-2.5L51.7,87.7z"/>
	<image width="69" height="70" xlink:href="521F31E5.png"  transform="matrix(1 0 0 1 47 58)">
	</image>
</g>
</svg>
