<?xml version="1.0" encoding="utf-8"?>
<!-- Generator: Adobe Illustrator 27.4.0, SVG Export Plug-In . SVG Version: 6.00 Build 0)  -->
<svg version="1.1" baseProfile="tiny" id="Layer_1" xmlns="http://www.w3.org/2000/svg" xmlns:xlink="http://www.w3.org/1999/xlink"
	 x="0px" y="0px" viewBox="0 0 68.5 68.5" overflow="visible" xml:space="preserve">
<g>
	<path id="Status" fill="#B2CDE5" d="M59.8,64.9h-2.9V46.2c0-1.5-5.1-5.5-14.6-8.9l0,0l0,0c-0.9-0.3-1.6-0.9-2.3-1.5
		c-1.4,0.4-2.9,0.6-4.5,0.6c-1.8,0-3.5-0.3-5.1-0.8c-0.6,0.7-1.5,1.3-2.4,1.7l0,0l0,0c-9.5,3.5-14.6,7.4-14.6,8.9v18.7h-2.9V46.2
		c0-5,11.7-9.9,16.5-11.7c1.1-0.4,1.9-1.5,2-2.8c1.9,1,4,1.7,6.5,1.7c2.2,0,4.1-0.5,5.8-1.4c0.2,1.1,1,2,2,2.4
		c4.9,1.8,16.5,6.7,16.5,11.7V64.9z M35.1,4.8c-3.9,0-7.1,3.2-7.2,7.1L29,22c0.1,0.6,0.3,1.1,0.5,1.6c1.3,2.2,3.3,3.3,5.9,3.3
		c1.5,0,2.8-0.4,3.9-1.3l0.2-0.2l0.1-0.1l0.1-0.1c0.5-0.3,1.3-1.5,1.3-2.8v-0.2l0-0.2l1.2-10.2C42.3,8,39.1,4.8,35.1,4.8L35.1,4.8
		L35.1,4.8z M35.1,1.9c5.6,0,10.1,4.6,10.1,10.2L44,22.5c0,2.1-1.3,4.3-2.5,5.1l-0.3,0.2c-1.5,1.2-3.4,2-5.7,2
		c-4.2,0-6.9-2.1-8.5-4.8c-0.3-0.7-0.6-1.5-0.8-2.5L25,12.1C25,6.5,29.5,1.9,35.1,1.9L35.1,1.9C35.1,1.9,35.1,1.9,35.1,1.9
		C35.1,1.9,35.1,1.9,35.1,1.9L35.1,1.9z M36.1,66c0,0,0.1,0,0.1,0c0.8-0.1,1-0.1,2.5-7.7l0.3,2.7c0.1,0.5,0.4,0.9,0.9,1
		c0.5,0.1,1-0.2,1.2-0.6l1.6-3.3h5.7c0.6,0,1.1-0.5,1.1-1.1c0-0.6-0.5-1.1-1.1-1.1H42c-0.4,0-0.8,0.2-1,0.6l-0.2,0.4l-0.6-6
		c-0.1-0.5-0.5-1-1-1c-0.5,0-1,0.3-1.1,0.9c-0.4,2-0.9,4.5-1.4,6.9c-0.3-3.7-0.6-8.2-0.8-11.8c0-0.6-0.5-1-1.1-1h0
		c-0.6,0-1.1,0.5-1.1,1c-0.3,4.1-1.6,9.8-3.4,9.8H20.2c-0.6,0-1.1,0.5-1.1,1.1c0,0.6,0.5,1.1,1.1,1.1h10.1c1.8,0,3.1-1.6,3.9-3.6
		C34.9,65,35,65.2,35.1,65.4C35.3,65.8,35.7,66,36.1,66"/>
	<image width="69" height="69" xlink:href="F6AAF6EE.png"  transform="matrix(1 0 0 1 -9.631348e-02 -0.3316)">
	</image>
</g>
</svg>
