<?xml version="1.0" encoding="utf-8"?>
<!-- Generator: Adobe Illustrator 27.4.0, SVG Export Plug-In . SVG Version: 6.00 Build 0)  -->
<svg version="1.1" baseProfile="tiny" id="Layer_1" xmlns="http://www.w3.org/2000/svg" xmlns:xlink="http://www.w3.org/1999/xlink"
	 x="0px" y="0px" viewBox="0 0 68.5 68.5" overflow="visible" xml:space="preserve">
<g>
	<g id="Missions">
		<path fill="#B2CDE5" d="M26.1,65.7c-0.6,0-1.3-0.2-1.8-0.6l-7.6-5.4c-0.8-0.6-1.3-1.5-1.3-2.5c0-1,0.5-1.9,1.3-2.5l7.6-5.4
			c1.1-0.8,2.5-0.7,3.6,0l7.6,5.4c0.8,0.6,1.3,1.5,1.3,2.5c0,1-0.5,1.9-1.3,2.5l-7.6,5.4C27.4,65.5,26.8,65.7,26.1,65.7z M26.1,51.7
			C26.1,51.7,26.1,51.7,26.1,51.7l-7.6,5.5l7.6,5.5l7.6-5.4L26.1,51.7z"/>
		<path fill="#B2CDE5" d="M62.6,33.7L55,28.3c-1-0.8-2.5-0.8-3.6,0l-2.9,2.1l-8.4-5.7l4-2.9c3.2-2.3,3.2-7,0-9.3L30.6,2.7
			c-1-0.7-2.2-1.1-3.3-1.1c-1.2,0-2.3,0.4-3.3,1.1l-13.6,9.8c-3.2,2.3-3.2,7,0,9.3l13.6,9.8c1,0.7,2.2,1.1,3.3,1.1
			c1.2,0,2.3-0.4,3.3-1.1l6.9-5l8.4,5.7l-2.1,1.5c-0.8,0.6-1.3,1.5-1.3,2.5c0,1,0.5,1.9,1.3,2.5l7.6,5.4c0.5,0.4,1.1,0.6,1.8,0.6
			c0.6,0,1.3-0.2,1.8-0.6l7.6-5.4c0.8-0.6,1.3-1.5,1.3-2.5C63.8,35.2,63.4,34.3,62.6,33.7z M28.9,29.2c-0.5,0.3-1,0.5-1.6,0.5
			c-0.6,0-1.1-0.2-1.6-0.5L12,19.4c-0.7-0.5-1.2-1.3-1.2-2.3c0-0.9,0.4-1.7,1.2-2.3l13.6-9.8c0.5-0.3,1-0.5,1.6-0.5s1.1,0.2,1.6,0.5
			l13.6,9.8c0.7,0.5,1.2,1.3,1.2,2.3c0,0.9-0.4,1.7-1.2,2.3l-4.9,3.5l-3.1-2.1l3-2.1c1.1-0.8,1.1-2.3,0-3.1l-9.1-6.5
			c-0.7-0.5-1.6-0.5-2.2,0l-9.1,6.5c-1.1,0.8-1.1,2.3,0,3.1l9.1,6.5c0.7,0.5,1.6,0.5,2.2,0l3.5-2.5l3.1,2.1L28.9,29.2z M53.2,41.7
			l-7.6-5.5l7.6-5.4c0,0,0,0,0,0l7.6,5.5L53.2,41.7z"/>
		<path fill="#B2CDE5" d="M35,51.6c-0.5,0-1-0.3-1.3-0.7c-0.5-0.8-0.3-1.8,0.4-2.3l0.1-0.1c0.8-0.5,1.8-0.3,2.3,0.4
			c0.5,0.8,0.3,1.8-0.4,2.3l-0.1,0.1C35.7,51.5,35.4,51.6,35,51.6 M39.6,48.3c-0.5,0-1-0.3-1.3-0.7c-0.5-0.8-0.3-1.8,0.4-2.3
			l0.1-0.1c0.8-0.5,1.8-0.3,2.3,0.4c0.5,0.8,0.3,1.8-0.4,2.3L40.7,48C40.4,48.3,40,48.4,39.6,48.3 M44.3,45.1c-0.5,0-1-0.3-1.3-0.7
			c-0.5-0.8-0.3-1.8,0.4-2.3l0.1-0.1c0.8-0.5,1.8-0.3,2.3,0.4c0.5,0.8,0.3,1.8-0.4,2.3l-0.1,0.1C45,45,44.6,45.1,44.3,45.1"/>
	</g>
	<image width="69" height="69" xlink:href="301B188C.png"  transform="matrix(1 0 0 1 -9.631348e-02 -0.3316)">
	</image>
</g>
</svg>
