<?xml version="1.0" encoding="utf-8"?>
<!-- Generator: Adobe Illustrator 27.4.0, SVG Export Plug-In . SVG Version: 6.00 Build 0)  -->
<svg version="1.1" baseProfile="tiny" id="Layer_1" xmlns="http://www.w3.org/2000/svg" xmlns:xlink="http://www.w3.org/1999/xlink"
	 x="0px" y="0px" viewBox="0 0 68.5 68.5" overflow="visible" xml:space="preserve">
<path id="Starmap" fill-rule="evenodd" fill="#B2CDE5" d="M51.8,30c0,1.2-0.9,2.1-2.1,2.1s-2.1-0.9-2.1-2.1c0-1.2,0.9-2.1,2.1-2.1
	S51.8,28.8,51.8,30 M35.1,34.4c0-1.4-1.2-2.6-2.6-2.6c-1.4,0-2.6,1.2-2.6,2.6c0,1.4,1.2,2.6,2.6,2.6C33.9,37,35.1,35.9,35.1,34.4
	 M24.6,39.8c0-0.6-0.5-1.1-1.1-1.1c-0.6,0-1.1,0.5-1.1,1.1c0,0.6,0.5,1.1,1.1,1.1C24.1,40.9,24.6,40.4,24.6,39.8 M45.4,45.8
	C40,51.7,33.5,56.1,27.3,58.1c-2.5,0.8-4.8,1.2-6.9,1.2c-3.4,0-6.4-1-8.5-3c-3.5-3.3-4.6-8.7-3.1-15.3c0.2-0.9,0.5-1.7,0.7-2.6
	c0.1,2,0.4,4,1,5.9c-0.5,4.4,0.5,8,2.9,10.3c2.8,2.6,7.2,3.1,12.6,1.6C17.7,52.4,13.2,44.4,13.2,36c0-12.2,9.9-22.2,22.2-22.2
	c8,0,15.1,4.3,18.9,10.7c0.8-4.9-0.1-8.9-2.7-11.3c-1.8-1.6-4.2-2.4-7-2.4c-1.5,0-3.1,0.2-4.8,0.7c-1.4-0.2-2.8-0.3-4.3-0.3
	c-0.5,0-1,0-1.5,0c1.2-0.6,2.4-1,3.6-1.4c6.4-2.1,11.9-1.4,15.5,1.8c3.5,3.3,4.6,8.7,3.1,15.3C54.7,33.2,50.8,39.9,45.4,45.8
	 M51.1,24.8c-2.1,1-4.9,1.8-8.1,2.3c0.3,1.9,0.5,4,0.6,6.1h7.8c0.7-1.5,1.4-3,1.9-4.5C52.7,27.3,52,26,51.1,24.8 M30.9,47.3
	c0.4,2.2,1.3,4.4,2,5.8c2.4-1.4,4.7-3,6.9-5c0-0.3,0.1-0.7,0.1-0.8c-1.4-0.1-2.9-0.2-4.5-0.2S32.3,47.2,30.9,47.3 M37.4,34.4
	c0-0.4-0.1-0.8-0.1-1.2h3.6c-0.1-2.1-0.3-4-0.5-5.8c-1.6,0.1-3.2,0.2-4.9,0.2c-1.7,0-3.4-0.1-4.9-0.2c-0.1,0.9-0.2,1.8-0.3,2.7
	c-1.5,0.8-2.5,2.4-2.5,4.3c0,1.7,0.9,3.3,2.3,4.1c0.1,2.1,0.3,4.2,0.5,6c1.6-0.1,3.2-0.2,5-0.2c1.7,0,3.4,0.1,4.9,0.2
	c0.4-2.6,0.6-5.5,0.6-8.5h-3.9C37.3,35.5,37.4,35,37.4,34.4 M50.1,23.6c-2.7-3.1-6.2-5.4-10.4-6.4c1.1,1.8,2.1,4.4,2.7,7.4
	c2-0.2,3.8-0.6,5.3-1H50.1 M35.4,16.6c-1.9,0-3.5,3.2-4.5,8.1c1.4,0.1,2.9,0.2,4.5,0.2c1.6,0,3-0.1,4.5-0.2
	C38.9,19.9,37.2,16.6,35.4,16.6 M31,17.2c-4.1,1-7.7,3.3-10.4,6.4H23c1.5,0.4,3.3,0.7,5.3,1C29,21.6,29.9,19,31,17.2 M19.7,24.8
	c-1.8,2.5-3,5.3-3.4,8.5h10.9c0.1-2.2,0.3-4.2,0.6-6.1C24.5,26.7,21.7,25.8,19.7,24.8 M16,36c0,4.2,1.4,8,3.6,11.1
	c2.1-1,4.9-1.8,8.2-2.3c-0.4-2.7-0.7-5.7-0.7-8.9H16 M20.6,48.5c2.2,2.6,5.5,5,9.3,6.1c0.3-0.1,0.5-0.2,0.8-0.4
	c-0.9-1.7-1.8-4.3-2.3-6.8c-2.1,0.2-3.9,0.6-5.5,1H20.6 M43.1,44.9c0.2-0.2,0.4-0.4,0.6-0.6c2.4-2.6,4.5-5.4,6.2-8.3h-6.2
	c0,3.2-0.3,6.1-0.7,8.9C43,44.9,43.1,44.9,43.1,44.9 M57.4,33.1c-0.8,1.8-1.7,3.6-2.7,5.4c-0.4,3.2-1.7,6.2-3.5,8.7
	c-0.7-0.3-1.4-0.6-2.3-0.9c-0.3,0.3-0.6,0.7-0.9,1c-0.3,0.4-0.7,0.7-1,1c0.3,0.1,0.6,0.1,0.9,0.2h2.2c-2.7,3.1-6.3,5.4-10.4,6.4
	c0.1-0.2,0.2-0.4,0.3-0.6c-2.1,1.5-4.3,2.8-6.4,3.8c0.6,0,1.1,0.1,1.7,0.1c12.2,0,22.2-9.9,22.2-22.2C57.6,35,57.5,34.1,57.4,33.1
	 M47.2,37.3c-0.2-0.1-0.4-0.1-0.6-0.1c-0.9,0-1.7,0.7-1.7,1.7c0,0.4,0.1,0.7,0.3,1C46.1,38.8,46.7,37.9,47.2,37.3"/>
<image width="69" height="69" xlink:href="901EDD5A.png"  transform="matrix(1 0 0 1 -9.631348e-02 -0.3316)">
</image>
</svg>
