<?xml version="1.0" encoding="utf-8"?>
<!-- Generator: Adobe Illustrator 25.4.1, SVG Export Plug-In . SVG Version: 6.00 Build 0)  -->
<svg version="1.1" baseProfile="tiny" id="Layer_1" xmlns="http://www.w3.org/2000/svg" xmlns:xlink="http://www.w3.org/1999/xlink"
	 x="0px" y="0px" width="64px" height="64px" viewBox="0 0 64 64" overflow="visible" xml:space="preserve">
<polygon fill="#45FF00" points="7.7,30.1 28,40.2 28,37.2 7.7,27.1 "/>
<polygon fill="#00A80C" points="7.7,35.6 28,45.7 28,42.8 7.7,32.7 "/>
<polygon fill="#005B06" points="7.7,41.2 28,51.3 28,48.4 7.7,38.2 "/>
<path fill="#0A8400" d="M60.4,17.3L32.6,3.4c-0.4-0.2-0.8-0.2-1.1,0L3.6,17.3c-0.4,0.2-0.7,0.7-0.7,1.1v27.9c0,0.5,0.2,1,0.7,1.1
	l27.9,13.9c0.2,0.1,0.4,0.2,0.6,0.2c0.2,0,0.4-0.1,0.6-0.2l27.9-13.9c0.4-0.2,0.7-0.7,0.7-1.1V18.5C61.2,18,60.8,17.6,60.4,17.3z
	 M5.6,45.5V20.8l25,12.5V58L5.6,45.5z M58.4,20.8v24.7l-8.8,4.4V25.2L58.4,20.8z M48,22.9L23.3,10.5l8.6-4.3l24.7,12.3L48,22.9z
	 M17,13.7L41.7,26L32,30.9L7.3,18.5L17,13.7z M43.3,28.3V53l-9.9,5V33.3L43.3,28.3z"/>
</svg>
