<?xml version="1.0" encoding="utf-8"?>
<!-- Generator: Adobe Illustrator 25.4.1, SVG Export Plug-In . SVG Version: 6.00 Build 0)  -->
<svg version="1.1" baseProfile="tiny" id="Layer_1" xmlns="http://www.w3.org/2000/svg" xmlns:xlink="http://www.w3.org/1999/xlink"
	 x="0px" y="0px" width="64px" height="64px" viewBox="0 0 64 64" overflow="visible" xml:space="preserve">
<g id="XMLID_1_">
	<g>
		<g>
			<path fill="#DD54CD" d="M44.9,19.4c-1.1-1.7-0.4-6-5.8-9c-2.3-1.2-4.7-2-7-2.1c-0.9-2-2.8-4.5-6.4-4.8c0.8,2.3,0.3,4.4-0.2,5.7
				L25,9.3c-6,2.1-10.6,7.3-12.8,14.5c-1.8,5.9-1.1,11.8,3.3,16.8c1.2,2.1-0.1,4.8-0.2,5.3c1.2-0.1,2.5-1.4,2.5-1.4l-0.2-1.2l0.7,1
				c0,0,2.6-0.6,4.3-2.6c-0.7-0.3-3.5,0.1-6-1.4c-1.9-3.4-1.4-9.2,1.6-13.8c0.2-0.4,0.6-0.8,0.9-1.2c0.2-0.2,0.5-0.6,0.7-0.8
				c5-5.6,11.8-6.3,21.8-3.6c1.2,0.3,2.3,0.7,3.4,1.2c0.7,0.3,1.5,0.7,2.1,1.1c0.7,0.4,1.3,0.7,1.7,1C49.9,22.2,45.4,20.3,44.9,19.4
				z"/>
		</g>
	</g>
</g>
<g>
	<g>
		<g>
			<path fill="#00B5D3" d="M7.3,33.4c-0.9,1.7-5,3.4-4.9,9.6c0.1,2.6,0.7,5,1.7,7.1c-1.2,1.7-2.6,4.7-1,7.9c1.6-1.9,3.6-2.5,5-2.6
				l0.4,0.3c4.8,4.2,11.6,5.5,18.9,3.9c6-1.4,10.7-5,12.9-11.2c1.2-2.1,4.2-2.3,4.6-2.5c-0.7-1-2.5-1.5-2.5-1.5l-1,0.8l0.5-1.1
				c0,0-1.8-1.9-4.5-2.4c0.2,0.8,1.8,3,1.8,5.9c-2,3.4-7.3,5.8-12.7,5.5c-0.5,0-1-0.1-1.5-0.2c-0.3-0.1-0.7-0.1-1.1-0.2
				c-7.4-1.6-11.3-7.1-14-17.1c-0.3-1.2-0.5-2.4-0.7-3.6C9.1,31.2,9,30.3,9,29.6c0-0.8,0-1.5,0-1.9C7.1,27.6,7.8,32.4,7.3,33.4z"/>
		</g>
	</g>
</g>
<g>
	<g>
		<g>
			<path fill="#E59200" d="M38.2,58.9c2-0.1,5.5,2.6,10.7-0.5c2.2-1.3,4-3.1,5.4-5c2.1,0.2,5.3-0.2,7.3-3.1c-2.4-0.4-4-1.9-4.8-3.1
				l0.1-0.5c1.2-6.2-1-12.8-6.1-18.3c-4.2-4.5-9.7-6.8-16.2-5.5c-2.4,0-4.1-2.5-4.5-2.8C29.6,21.2,30,23,30,23l1.2,0.4L30,23.5
				c0,0-0.7,2.6,0.2,5c0.7-0.5,1.7-3.1,4.2-4.5c4,0,8.6,3.4,11.1,8.3c0.2,0.4,0.4,0.9,0.7,1.4c0.2,0.3,0.2,0.7,0.4,1
				c2.4,7.2-0.5,13.4-7.8,20.7c-0.8,0.8-1.8,1.7-2.7,2.3c-0.7,0.5-1.4,0.9-2,1.3c-0.7,0.4-1.3,0.7-1.7,0.9
				C33.2,61.9,37.1,59,38.2,58.9z"/>
		</g>
	</g>
</g>
</svg>
