<?xml version="1.0" encoding="utf-8"?>
<!-- Generator: Adobe Illustrator 27.8.0, SVG Export Plug-In . SVG Version: 6.00 Build 0)  -->
<svg version="1.1" baseProfile="tiny" id="animated"
	 xmlns="http://www.w3.org/2000/svg" xmlns:xlink="http://www.w3.org/1999/xlink" x="0px" y="0px" viewBox="0 0 189.7 116.1"
	 overflow="visible" xml:space="preserve">
<g id="_x35_">
	<path fill="#FFFFFF" d="M59.7,99.8L54,94c10.6-10.6,25.4-17.2,40.9-17.2l0,0c15.5,0,30.3,5.7,40.9,17.2l-5.7,5.7
		c-9-9-22.1-14.7-35.2-14.7l0,0C81.8,85,69.5,90,59.7,99.8z"/>
	<path fill="#FFFFFF" d="M76.9,116.1l-5.7-5.7c13.1-13.1,35.2-13.9,49.1,0l-5.7,5.7C103.9,105.5,86.7,105.5,76.9,116.1z"/>
	<path fill="#FFFFFF" d="M40.9,81l-5.7-5.7C51.5,58.9,72,50.7,94.9,50.7l0,0c22.9,0,43.3,9,59.7,24.5l-5.7,5.7
		c-14.7-14.7-33.5-22.1-54-22.1l0,0C74.4,58.1,55.6,66.2,40.9,81z"/>
	<path fill="#FFFFFF" d="M166.8,63C127.6,23.7,63,23.7,23.7,63L18,57.2c42.5-42.5,112-42.5,154.6,0L166.8,63z"/>
	<path fill="#FFFFFF" d="M184,45C160.3,21.3,129.2,8.2,94.9,8.2C61.3,8.2,29.4,21.3,5.7,45L0,39.3C25.4,13.9,58.9,0,94.9,0
		s69.5,13.9,94.9,39.3L184,45z"/>
</g>
<g id="_x34_">
	<path fill="#FFFFFF" d="M59.7,99.8L54,94c10.6-10.6,25.4-17.2,40.9-17.2l0,0c15.5,0,30.3,5.7,40.9,17.2l-5.7,5.7
		c-9-9-22.1-14.7-35.2-14.7l0,0C81.8,85,69.5,90,59.7,99.8z"/>
	<path fill="#FFFFFF" d="M76.9,116.1l-5.7-5.7c13.1-13.1,35.2-13.9,49.1,0l-5.7,5.7C103.9,105.5,86.7,105.5,76.9,116.1z"/>
	<path fill="#FFFFFF" d="M40.9,81l-5.7-5.7C51.5,58.9,72,50.7,94.9,50.7l0,0c22.9,0,43.3,9,59.7,24.5l-5.7,5.7
		c-14.7-14.7-33.5-22.1-54-22.1l0,0C74.4,58.1,55.6,66.2,40.9,81z"/>
	<path fill="#FFFFFF" d="M166.8,63C127.6,23.7,63,23.7,23.7,63L18,57.2c42.5-42.5,112-42.5,154.6,0L166.8,63z"/>
</g>
<g id="_x33_">
	<path fill="#FFFFFF" d="M59.7,99.8L54,94c10.6-10.6,25.4-17.2,40.9-17.2l0,0c15.5,0,30.3,5.7,40.9,17.2l-5.7,5.7
		c-9-9-22.1-14.7-35.2-14.7l0,0C81.8,85,69.5,90,59.7,99.8z"/>
	<path fill="#FFFFFF" d="M76.9,116.1l-5.7-5.7c13.1-13.1,35.2-13.9,49.1,0l-5.7,5.7C103.9,105.5,86.7,105.5,76.9,116.1z"/>
	<path fill="#FFFFFF" d="M40.9,81l-5.7-5.7C51.5,58.9,72,50.7,94.9,50.7l0,0c22.9,0,43.3,9,59.7,24.5l-5.7,5.7
		c-14.7-14.7-33.5-22.1-54-22.1l0,0C74.4,58.1,55.6,66.2,40.9,81z"/>
</g>
<g id="_x32_">
	<path fill="#FFFFFF" d="M59.7,99.8L54,94c10.6-10.6,25.4-17.2,40.9-17.2l0,0c15.5,0,30.3,5.7,40.9,17.2l-5.7,5.7
		c-9-9-22.1-14.7-35.2-14.7l0,0C81.8,85,69.5,90,59.7,99.8z"/>
	<path fill="#FFFFFF" d="M76.9,116.1l-5.7-5.7c13.1-13.1,35.2-13.9,49.1,0l-5.7,5.7C103.9,105.5,86.7,105.5,76.9,116.1z"/>
</g>
<g id="_x31__00000038371152238991792320000007085170374428609187_">
	<path fill="#FFFFFF" d="M76.9,116.1l-5.7-5.7c13.1-13.1,35.2-13.9,49.1,0l-5.7,5.7C103.9,105.5,86.7,105.5,76.9,116.1z"/>
</g>
<g id="_x30_">
</g>
</svg>
