<?xml version="1.0" encoding="utf-8"?>
<!-- Generator: Adobe Illustrator 27.8.0, SVG Export Plug-In . SVG Version: 6.00 Build 0)  -->
<svg version="1.1" baseProfile="tiny" id="animated"
	 xmlns="http://www.w3.org/2000/svg" xmlns:xlink="http://www.w3.org/1999/xlink" x="0px" y="0px" viewBox="0 0 332.2 38.2"
	 overflow="visible" xml:space="preserve">
<g id="_x31_3">
	<path fill="#FFFFFF" d="M119.3,38.2h-11.4c-1.6,0-2.9-1.3-2.9-2.9V2.9c0-1.6,1.3-2.9,2.9-2.9l11.4,0c1.6,0,2.9,1.3,2.9,2.9v32.4
		C122.2,36.9,120.9,38.2,119.3,38.2z"/>
	<path fill="#FFFFFF" d="M93.1,38.2H81.6c-1.6,0-2.9-1.3-2.9-2.9V2.9C78.8,1.3,80,0,81.6,0l11.4,0c1.6,0,2.9,1.3,2.9,2.9v32.4
		C95.9,36.9,94.7,38.2,93.1,38.2z"/>
	<path fill="#FFFFFF" d="M66.8,38.2H55.4c-1.6,0-2.9-1.3-2.9-2.9V2.9c0-1.6,1.3-2.9,2.9-2.9l11.4,0c1.6,0,2.9,1.3,2.9,2.9v32.4
		C69.7,36.9,68.4,38.2,66.8,38.2z"/>
	<path fill="#FFFFFF" d="M40.6,38.2H29.1c-1.6,0-2.9-1.3-2.9-2.9V2.9c0-1.6,1.3-2.9,2.9-2.9l11.4,0c1.6,0,2.9,1.3,2.9,2.9v32.4
		C43.4,36.9,42.1,38.2,40.6,38.2z"/>
	<path fill="#FFFFFF" d="M14.3,38.2H2.9c-1.6,0-2.9-1.3-2.9-2.9L0,2.9C0,1.3,1.3,0,2.9,0l11.4,0c1.6,0,2.9,1.3,2.9,2.9v32.4
		C17.2,36.9,15.9,38.2,14.3,38.2z"/>
	<path fill="#FFFFFF" d="M145.6,38.2h-11.4c-1.6,0-2.9-1.3-2.9-2.9V2.9c0-1.6,1.3-2.9,2.9-2.9l11.4,0c1.6,0,2.9,1.3,2.9,2.9v32.4
		C148.4,36.9,147.2,38.2,145.6,38.2z"/>
	<path fill="#FFFFFF" d="M171.8,38.2h-11.4c-1.6,0-2.9-1.3-2.9-2.9V2.9c0-1.6,1.3-2.9,2.9-2.9l11.4,0c1.6,0,2.9,1.3,2.9,2.9v32.4
		C174.7,36.9,173.4,38.2,171.8,38.2z"/>
	<path fill="#FFFFFF" d="M198.1,38.2h-11.4c-1.6,0-2.9-1.3-2.9-2.9V2.9c0-1.6,1.3-2.9,2.9-2.9l11.4,0c1.6,0,2.9,1.3,2.9,2.9v32.4
		C201,36.9,199.7,38.2,198.1,38.2z"/>
	<path fill="#FFFFFF" d="M224.3,38.2h-11.4c-1.6,0-2.9-1.3-2.9-2.9V2.9c0-1.6,1.3-2.9,2.9-2.9l11.4,0c1.6,0,2.9,1.3,2.9,2.9v32.4
		C227.2,36.9,225.9,38.2,224.3,38.2z"/>
	<path fill="#FFFFFF" d="M250.6,38.2h-11.4c-1.6,0-2.9-1.3-2.9-2.9V2.9c0-1.6,1.3-2.9,2.9-2.9l11.4,0c1.6,0,2.9,1.3,2.9,2.9v32.4
		C253.5,36.9,252.2,38.2,250.6,38.2z"/>
	<path fill="#FFFFFF" d="M276.8,38.2h-11.4c-1.6,0-2.9-1.3-2.9-2.9V2.9c0-1.6,1.3-2.9,2.9-2.9l11.4,0c1.6,0,2.9,1.3,2.9,2.9v32.4
		C279.7,36.9,278.4,38.2,276.8,38.2z"/>
	<path fill="#FFFFFF" d="M303.1,38.2h-11.4c-1.6,0-2.9-1.3-2.9-2.9V2.9c0-1.6,1.3-2.9,2.9-2.9l11.4,0c1.6,0,2.9,1.3,2.9,2.9v32.4
		C306,36.9,304.7,38.2,303.1,38.2z"/>
	<path fill="#FFFFFF" d="M329.3,38.2h-11.4c-1.6,0-2.9-1.3-2.9-2.9V2.9c0-1.6,1.3-2.9,2.9-2.9l11.4,0c1.6,0,2.9,1.3,2.9,2.9v32.4
		C332.2,36.9,330.9,38.2,329.3,38.2z"/>
</g>
<g id="_x31_2">
	<path fill="#FFFFFF" d="M119.3,38.2h-11.4c-1.6,0-2.9-1.3-2.9-2.9V2.9c0-1.6,1.3-2.9,2.9-2.9l11.4,0c1.6,0,2.9,1.3,2.9,2.9v32.4
		C122.2,36.9,120.9,38.2,119.3,38.2z"/>
	<path fill="#FFFFFF" d="M93.1,38.2H81.6c-1.6,0-2.9-1.3-2.9-2.9V2.9C78.8,1.3,80,0,81.6,0l11.4,0c1.6,0,2.9,1.3,2.9,2.9v32.4
		C95.9,36.9,94.7,38.2,93.1,38.2z"/>
	<path fill="#FFFFFF" d="M66.8,38.2H55.4c-1.6,0-2.9-1.3-2.9-2.9V2.9c0-1.6,1.3-2.9,2.9-2.9l11.4,0c1.6,0,2.9,1.3,2.9,2.9v32.4
		C69.7,36.9,68.4,38.2,66.8,38.2z"/>
	<path fill="#FFFFFF" d="M40.6,38.2H29.1c-1.6,0-2.9-1.3-2.9-2.9V2.9c0-1.6,1.3-2.9,2.9-2.9l11.4,0c1.6,0,2.9,1.3,2.9,2.9v32.4
		C43.4,36.9,42.1,38.2,40.6,38.2z"/>
	<path fill="#FFFFFF" d="M14.3,38.2H2.9c-1.6,0-2.9-1.3-2.9-2.9L0,2.9C0,1.3,1.3,0,2.9,0l11.4,0c1.6,0,2.9,1.3,2.9,2.9v32.4
		C17.2,36.9,15.9,38.2,14.3,38.2z"/>
	<path fill="#FFFFFF" d="M145.6,38.2h-11.4c-1.6,0-2.9-1.3-2.9-2.9V2.9c0-1.6,1.3-2.9,2.9-2.9l11.4,0c1.6,0,2.9,1.3,2.9,2.9v32.4
		C148.4,36.9,147.2,38.2,145.6,38.2z"/>
	<path fill="#FFFFFF" d="M171.8,38.2h-11.4c-1.6,0-2.9-1.3-2.9-2.9V2.9c0-1.6,1.3-2.9,2.9-2.9l11.4,0c1.6,0,2.9,1.3,2.9,2.9v32.4
		C174.7,36.9,173.4,38.2,171.8,38.2z"/>
	<path fill="#FFFFFF" d="M198.1,38.2h-11.4c-1.6,0-2.9-1.3-2.9-2.9V2.9c0-1.6,1.3-2.9,2.9-2.9l11.4,0c1.6,0,2.9,1.3,2.9,2.9v32.4
		C201,36.9,199.7,38.2,198.1,38.2z"/>
	<path fill="#FFFFFF" d="M224.3,38.2h-11.4c-1.6,0-2.9-1.3-2.9-2.9V2.9c0-1.6,1.3-2.9,2.9-2.9l11.4,0c1.6,0,2.9,1.3,2.9,2.9v32.4
		C227.2,36.9,225.9,38.2,224.3,38.2z"/>
	<path fill="#FFFFFF" d="M250.6,38.2h-11.4c-1.6,0-2.9-1.3-2.9-2.9V2.9c0-1.6,1.3-2.9,2.9-2.9l11.4,0c1.6,0,2.9,1.3,2.9,2.9v32.4
		C253.5,36.9,252.2,38.2,250.6,38.2z"/>
	<path fill="#FFFFFF" d="M276.8,38.2h-11.4c-1.6,0-2.9-1.3-2.9-2.9V2.9c0-1.6,1.3-2.9,2.9-2.9l11.4,0c1.6,0,2.9,1.3,2.9,2.9v32.4
		C279.7,36.9,278.4,38.2,276.8,38.2z"/>
	<path fill="#FFFFFF" d="M303.1,38.2h-11.4c-1.6,0-2.9-1.3-2.9-2.9V2.9c0-1.6,1.3-2.9,2.9-2.9l11.4,0c1.6,0,2.9,1.3,2.9,2.9v32.4
		C306,36.9,304.7,38.2,303.1,38.2z"/>
</g>
<g id="_x31_1">
	<path fill="#FFFFFF" d="M119.3,38.2h-11.4c-1.6,0-2.9-1.3-2.9-2.9V2.9c0-1.6,1.3-2.9,2.9-2.9l11.4,0c1.6,0,2.9,1.3,2.9,2.9v32.4
		C122.2,36.9,120.9,38.2,119.3,38.2z"/>
	<path fill="#FFFFFF" d="M93.1,38.2H81.6c-1.6,0-2.9-1.3-2.9-2.9V2.9C78.8,1.3,80,0,81.6,0l11.4,0c1.6,0,2.9,1.3,2.9,2.9v32.4
		C95.9,36.9,94.7,38.2,93.1,38.2z"/>
	<path fill="#FFFFFF" d="M66.8,38.2H55.4c-1.6,0-2.9-1.3-2.9-2.9V2.9c0-1.6,1.3-2.9,2.9-2.9l11.4,0c1.6,0,2.9,1.3,2.9,2.9v32.4
		C69.7,36.9,68.4,38.2,66.8,38.2z"/>
	<path fill="#FFFFFF" d="M40.6,38.2H29.1c-1.6,0-2.9-1.3-2.9-2.9V2.9c0-1.6,1.3-2.9,2.9-2.9l11.4,0c1.6,0,2.9,1.3,2.9,2.9v32.4
		C43.4,36.9,42.1,38.2,40.6,38.2z"/>
	<path fill="#FFFFFF" d="M14.3,38.2H2.9c-1.6,0-2.9-1.3-2.9-2.9L0,2.9C0,1.3,1.3,0,2.9,0l11.4,0c1.6,0,2.9,1.3,2.9,2.9v32.4
		C17.2,36.9,15.9,38.2,14.3,38.2z"/>
	<path fill="#FFFFFF" d="M145.6,38.2h-11.4c-1.6,0-2.9-1.3-2.9-2.9V2.9c0-1.6,1.3-2.9,2.9-2.9l11.4,0c1.6,0,2.9,1.3,2.9,2.9v32.4
		C148.4,36.9,147.2,38.2,145.6,38.2z"/>
	<path fill="#FFFFFF" d="M171.8,38.2h-11.4c-1.6,0-2.9-1.3-2.9-2.9V2.9c0-1.6,1.3-2.9,2.9-2.9l11.4,0c1.6,0,2.9,1.3,2.9,2.9v32.4
		C174.7,36.9,173.4,38.2,171.8,38.2z"/>
	<path fill="#FFFFFF" d="M198.1,38.2h-11.4c-1.6,0-2.9-1.3-2.9-2.9V2.9c0-1.6,1.3-2.9,2.9-2.9l11.4,0c1.6,0,2.9,1.3,2.9,2.9v32.4
		C201,36.9,199.7,38.2,198.1,38.2z"/>
	<path fill="#FFFFFF" d="M224.3,38.2h-11.4c-1.6,0-2.9-1.3-2.9-2.9V2.9c0-1.6,1.3-2.9,2.9-2.9l11.4,0c1.6,0,2.9,1.3,2.9,2.9v32.4
		C227.2,36.9,225.9,38.2,224.3,38.2z"/>
	<path fill="#FFFFFF" d="M250.6,38.2h-11.4c-1.6,0-2.9-1.3-2.9-2.9V2.9c0-1.6,1.3-2.9,2.9-2.9l11.4,0c1.6,0,2.9,1.3,2.9,2.9v32.4
		C253.5,36.9,252.2,38.2,250.6,38.2z"/>
	<path fill="#FFFFFF" d="M276.8,38.2h-11.4c-1.6,0-2.9-1.3-2.9-2.9V2.9c0-1.6,1.3-2.9,2.9-2.9l11.4,0c1.6,0,2.9,1.3,2.9,2.9v32.4
		C279.7,36.9,278.4,38.2,276.8,38.2z"/>
</g>
<g id="_x31_0">
	<path fill="#FFFFFF" d="M119.3,38.2h-11.4c-1.6,0-2.9-1.3-2.9-2.9V2.9c0-1.6,1.3-2.9,2.9-2.9l11.4,0c1.6,0,2.9,1.3,2.9,2.9v32.4
		C122.2,36.9,120.9,38.2,119.3,38.2z"/>
	<path fill="#FFFFFF" d="M93.1,38.2H81.6c-1.6,0-2.9-1.3-2.9-2.9V2.9C78.8,1.3,80,0,81.6,0l11.4,0c1.6,0,2.9,1.3,2.9,2.9v32.4
		C95.9,36.9,94.7,38.2,93.1,38.2z"/>
	<path fill="#FFFFFF" d="M66.8,38.2H55.4c-1.6,0-2.9-1.3-2.9-2.9V2.9c0-1.6,1.3-2.9,2.9-2.9l11.4,0c1.6,0,2.9,1.3,2.9,2.9v32.4
		C69.7,36.9,68.4,38.2,66.8,38.2z"/>
	<path fill="#FFFFFF" d="M40.6,38.2H29.1c-1.6,0-2.9-1.3-2.9-2.9V2.9c0-1.6,1.3-2.9,2.9-2.9l11.4,0c1.6,0,2.9,1.3,2.9,2.9v32.4
		C43.4,36.9,42.1,38.2,40.6,38.2z"/>
	<path fill="#FFFFFF" d="M14.3,38.2H2.9c-1.6,0-2.9-1.3-2.9-2.9L0,2.9C0,1.3,1.3,0,2.9,0l11.4,0c1.6,0,2.9,1.3,2.9,2.9v32.4
		C17.2,36.9,15.9,38.2,14.3,38.2z"/>
	<path fill="#FFFFFF" d="M145.6,38.2h-11.4c-1.6,0-2.9-1.3-2.9-2.9V2.9c0-1.6,1.3-2.9,2.9-2.9l11.4,0c1.6,0,2.9,1.3,2.9,2.9v32.4
		C148.4,36.9,147.2,38.2,145.6,38.2z"/>
	<path fill="#FFFFFF" d="M171.8,38.2h-11.4c-1.6,0-2.9-1.3-2.9-2.9V2.9c0-1.6,1.3-2.9,2.9-2.9l11.4,0c1.6,0,2.9,1.3,2.9,2.9v32.4
		C174.7,36.9,173.4,38.2,171.8,38.2z"/>
	<path fill="#FFFFFF" d="M198.1,38.2h-11.4c-1.6,0-2.9-1.3-2.9-2.9V2.9c0-1.6,1.3-2.9,2.9-2.9l11.4,0c1.6,0,2.9,1.3,2.9,2.9v32.4
		C201,36.9,199.7,38.2,198.1,38.2z"/>
	<path fill="#FFFFFF" d="M224.3,38.2h-11.4c-1.6,0-2.9-1.3-2.9-2.9V2.9c0-1.6,1.3-2.9,2.9-2.9l11.4,0c1.6,0,2.9,1.3,2.9,2.9v32.4
		C227.2,36.9,225.9,38.2,224.3,38.2z"/>
	<path fill="#FFFFFF" d="M250.6,38.2h-11.4c-1.6,0-2.9-1.3-2.9-2.9V2.9c0-1.6,1.3-2.9,2.9-2.9l11.4,0c1.6,0,2.9,1.3,2.9,2.9v32.4
		C253.5,36.9,252.2,38.2,250.6,38.2z"/>
</g>
<g id="_x39_">
	<path fill="#FFFFFF" d="M119.3,38.2h-11.4c-1.6,0-2.9-1.3-2.9-2.9V2.9c0-1.6,1.3-2.9,2.9-2.9l11.4,0c1.6,0,2.9,1.3,2.9,2.9v32.4
		C122.2,36.9,120.9,38.2,119.3,38.2z"/>
	<path fill="#FFFFFF" d="M93.1,38.2H81.6c-1.6,0-2.9-1.3-2.9-2.9V2.9C78.8,1.3,80,0,81.6,0l11.4,0c1.6,0,2.9,1.3,2.9,2.9v32.4
		C95.9,36.9,94.7,38.2,93.1,38.2z"/>
	<path fill="#FFFFFF" d="M66.8,38.2H55.4c-1.6,0-2.9-1.3-2.9-2.9V2.9c0-1.6,1.3-2.9,2.9-2.9l11.4,0c1.6,0,2.9,1.3,2.9,2.9v32.4
		C69.7,36.9,68.4,38.2,66.8,38.2z"/>
	<path fill="#FFFFFF" d="M40.6,38.2H29.1c-1.6,0-2.9-1.3-2.9-2.9V2.9c0-1.6,1.3-2.9,2.9-2.9l11.4,0c1.6,0,2.9,1.3,2.9,2.9v32.4
		C43.4,36.9,42.1,38.2,40.6,38.2z"/>
	<path fill="#FFFFFF" d="M14.3,38.2H2.9c-1.6,0-2.9-1.3-2.9-2.9L0,2.9C0,1.3,1.3,0,2.9,0l11.4,0c1.6,0,2.9,1.3,2.9,2.9v32.4
		C17.2,36.9,15.9,38.2,14.3,38.2z"/>
	<path fill="#FFFFFF" d="M145.6,38.2h-11.4c-1.6,0-2.9-1.3-2.9-2.9V2.9c0-1.6,1.3-2.9,2.9-2.9l11.4,0c1.6,0,2.9,1.3,2.9,2.9v32.4
		C148.4,36.9,147.2,38.2,145.6,38.2z"/>
	<path fill="#FFFFFF" d="M171.8,38.2h-11.4c-1.6,0-2.9-1.3-2.9-2.9V2.9c0-1.6,1.3-2.9,2.9-2.9l11.4,0c1.6,0,2.9,1.3,2.9,2.9v32.4
		C174.7,36.9,173.4,38.2,171.8,38.2z"/>
	<path fill="#FFFFFF" d="M198.1,38.2h-11.4c-1.6,0-2.9-1.3-2.9-2.9V2.9c0-1.6,1.3-2.9,2.9-2.9l11.4,0c1.6,0,2.9,1.3,2.9,2.9v32.4
		C201,36.9,199.7,38.2,198.1,38.2z"/>
	<path fill="#FFFFFF" d="M224.3,38.2h-11.4c-1.6,0-2.9-1.3-2.9-2.9V2.9c0-1.6,1.3-2.9,2.9-2.9l11.4,0c1.6,0,2.9,1.3,2.9,2.9v32.4
		C227.2,36.9,225.9,38.2,224.3,38.2z"/>
</g>
<g id="_x38_">
	<path fill="#FFFFFF" d="M119.3,38.2h-11.4c-1.6,0-2.9-1.3-2.9-2.9V2.9c0-1.6,1.3-2.9,2.9-2.9l11.4,0c1.6,0,2.9,1.3,2.9,2.9v32.4
		C122.2,36.9,120.9,38.2,119.3,38.2z"/>
	<path fill="#FFFFFF" d="M93.1,38.2H81.6c-1.6,0-2.9-1.3-2.9-2.9V2.9C78.8,1.3,80,0,81.6,0l11.4,0c1.6,0,2.9,1.3,2.9,2.9v32.4
		C95.9,36.9,94.7,38.2,93.1,38.2z"/>
	<path fill="#FFFFFF" d="M66.8,38.2H55.4c-1.6,0-2.9-1.3-2.9-2.9V2.9c0-1.6,1.3-2.9,2.9-2.9l11.4,0c1.6,0,2.9,1.3,2.9,2.9v32.4
		C69.7,36.9,68.4,38.2,66.8,38.2z"/>
	<path fill="#FFFFFF" d="M40.6,38.2H29.1c-1.6,0-2.9-1.3-2.9-2.9V2.9c0-1.6,1.3-2.9,2.9-2.9l11.4,0c1.6,0,2.9,1.3,2.9,2.9v32.4
		C43.4,36.9,42.1,38.2,40.6,38.2z"/>
	<path fill="#FFFFFF" d="M14.3,38.2H2.9c-1.6,0-2.9-1.3-2.9-2.9L0,2.9C0,1.3,1.3,0,2.9,0l11.4,0c1.6,0,2.9,1.3,2.9,2.9v32.4
		C17.2,36.9,15.9,38.2,14.3,38.2z"/>
	<path fill="#FFFFFF" d="M145.6,38.2h-11.4c-1.6,0-2.9-1.3-2.9-2.9V2.9c0-1.6,1.3-2.9,2.9-2.9l11.4,0c1.6,0,2.9,1.3,2.9,2.9v32.4
		C148.4,36.9,147.2,38.2,145.6,38.2z"/>
	<path fill="#FFFFFF" d="M171.8,38.2h-11.4c-1.6,0-2.9-1.3-2.9-2.9V2.9c0-1.6,1.3-2.9,2.9-2.9l11.4,0c1.6,0,2.9,1.3,2.9,2.9v32.4
		C174.7,36.9,173.4,38.2,171.8,38.2z"/>
	<path fill="#FFFFFF" d="M198.1,38.2h-11.4c-1.6,0-2.9-1.3-2.9-2.9V2.9c0-1.6,1.3-2.9,2.9-2.9l11.4,0c1.6,0,2.9,1.3,2.9,2.9v32.4
		C201,36.9,199.7,38.2,198.1,38.2z"/>
</g>
<g id="_x37_">
	<path fill="#FFFFFF" d="M119.3,38.2h-11.4c-1.6,0-2.9-1.3-2.9-2.9V2.9c0-1.6,1.3-2.9,2.9-2.9l11.4,0c1.6,0,2.9,1.3,2.9,2.9v32.4
		C122.2,36.9,120.9,38.2,119.3,38.2z"/>
	<path fill="#FFFFFF" d="M93.1,38.2H81.6c-1.6,0-2.9-1.3-2.9-2.9V2.9C78.8,1.3,80,0,81.6,0l11.4,0c1.6,0,2.9,1.3,2.9,2.9v32.4
		C95.9,36.9,94.7,38.2,93.1,38.2z"/>
	<path fill="#FFFFFF" d="M66.8,38.2H55.4c-1.6,0-2.9-1.3-2.9-2.9V2.9c0-1.6,1.3-2.9,2.9-2.9l11.4,0c1.6,0,2.9,1.3,2.9,2.9v32.4
		C69.7,36.9,68.4,38.2,66.8,38.2z"/>
	<path fill="#FFFFFF" d="M40.6,38.2H29.1c-1.6,0-2.9-1.3-2.9-2.9V2.9c0-1.6,1.3-2.9,2.9-2.9l11.4,0c1.6,0,2.9,1.3,2.9,2.9v32.4
		C43.4,36.9,42.1,38.2,40.6,38.2z"/>
	<path fill="#FFFFFF" d="M14.3,38.2H2.9c-1.6,0-2.9-1.3-2.9-2.9L0,2.9C0,1.3,1.3,0,2.9,0l11.4,0c1.6,0,2.9,1.3,2.9,2.9v32.4
		C17.2,36.9,15.9,38.2,14.3,38.2z"/>
	<path fill="#FFFFFF" d="M145.6,38.2h-11.4c-1.6,0-2.9-1.3-2.9-2.9V2.9c0-1.6,1.3-2.9,2.9-2.9l11.4,0c1.6,0,2.9,1.3,2.9,2.9v32.4
		C148.4,36.9,147.2,38.2,145.6,38.2z"/>
	<path fill="#FFFFFF" d="M171.8,38.2h-11.4c-1.6,0-2.9-1.3-2.9-2.9V2.9c0-1.6,1.3-2.9,2.9-2.9l11.4,0c1.6,0,2.9,1.3,2.9,2.9v32.4
		C174.7,36.9,173.4,38.2,171.8,38.2z"/>
</g>
<g id="_x36_">
	<path fill="#FFFFFF" d="M119.3,38.2h-11.4c-1.6,0-2.9-1.3-2.9-2.9V2.9c0-1.6,1.3-2.9,2.9-2.9l11.4,0c1.6,0,2.9,1.3,2.9,2.9v32.4
		C122.2,36.9,120.9,38.2,119.3,38.2z"/>
	<path fill="#FFFFFF" d="M93.1,38.2H81.6c-1.6,0-2.9-1.3-2.9-2.9V2.9C78.8,1.3,80,0,81.6,0l11.4,0c1.6,0,2.9,1.3,2.9,2.9v32.4
		C95.9,36.9,94.7,38.2,93.1,38.2z"/>
	<path fill="#FFFFFF" d="M66.8,38.2H55.4c-1.6,0-2.9-1.3-2.9-2.9V2.9c0-1.6,1.3-2.9,2.9-2.9l11.4,0c1.6,0,2.9,1.3,2.9,2.9v32.4
		C69.7,36.9,68.4,38.2,66.8,38.2z"/>
	<path fill="#FFFFFF" d="M40.6,38.2H29.1c-1.6,0-2.9-1.3-2.9-2.9V2.9c0-1.6,1.3-2.9,2.9-2.9l11.4,0c1.6,0,2.9,1.3,2.9,2.9v32.4
		C43.4,36.9,42.1,38.2,40.6,38.2z"/>
	<path fill="#FFFFFF" d="M14.3,38.2H2.9c-1.6,0-2.9-1.3-2.9-2.9L0,2.9C0,1.3,1.3,0,2.9,0l11.4,0c1.6,0,2.9,1.3,2.9,2.9v32.4
		C17.2,36.9,15.9,38.2,14.3,38.2z"/>
	<path fill="#FFFFFF" d="M145.6,38.2h-11.4c-1.6,0-2.9-1.3-2.9-2.9V2.9c0-1.6,1.3-2.9,2.9-2.9l11.4,0c1.6,0,2.9,1.3,2.9,2.9v32.4
		C148.4,36.9,147.2,38.2,145.6,38.2z"/>
</g>
<g id="_x35_">
	<path fill="#FFFFFF" d="M119.3,38.2h-11.4c-1.6,0-2.9-1.3-2.9-2.9V2.9c0-1.6,1.3-2.9,2.9-2.9l11.4,0c1.6,0,2.9,1.3,2.9,2.9v32.4
		C122.2,36.9,120.9,38.2,119.3,38.2z"/>
	<path fill="#FFFFFF" d="M93.1,38.2H81.6c-1.6,0-2.9-1.3-2.9-2.9V2.9C78.8,1.3,80,0,81.6,0l11.4,0c1.6,0,2.9,1.3,2.9,2.9v32.4
		C95.9,36.9,94.7,38.2,93.1,38.2z"/>
	<path fill="#FFFFFF" d="M66.8,38.2H55.4c-1.6,0-2.9-1.3-2.9-2.9V2.9c0-1.6,1.3-2.9,2.9-2.9l11.4,0c1.6,0,2.9,1.3,2.9,2.9v32.4
		C69.7,36.9,68.4,38.2,66.8,38.2z"/>
	<path fill="#FFFFFF" d="M40.6,38.2H29.1c-1.6,0-2.9-1.3-2.9-2.9V2.9c0-1.6,1.3-2.9,2.9-2.9l11.4,0c1.6,0,2.9,1.3,2.9,2.9v32.4
		C43.4,36.9,42.1,38.2,40.6,38.2z"/>
	<path fill="#FFFFFF" d="M14.3,38.2H2.9c-1.6,0-2.9-1.3-2.9-2.9L0,2.9C0,1.3,1.3,0,2.9,0l11.4,0c1.6,0,2.9,1.3,2.9,2.9v32.4
		C17.2,36.9,15.9,38.2,14.3,38.2z"/>
</g>
<g id="_x34_">
	<path fill="#FFFFFF" d="M93.1,38.2H81.6c-1.6,0-2.9-1.3-2.9-2.9V2.9C78.8,1.3,80,0,81.6,0l11.4,0c1.6,0,2.9,1.3,2.9,2.9v32.4
		C95.9,36.9,94.7,38.2,93.1,38.2z"/>
	<path fill="#FFFFFF" d="M66.8,38.2H55.4c-1.6,0-2.9-1.3-2.9-2.9V2.9c0-1.6,1.3-2.9,2.9-2.9l11.4,0c1.6,0,2.9,1.3,2.9,2.9v32.4
		C69.7,36.9,68.4,38.2,66.8,38.2z"/>
	<path fill="#FFFFFF" d="M40.6,38.2H29.1c-1.6,0-2.9-1.3-2.9-2.9V2.9c0-1.6,1.3-2.9,2.9-2.9l11.4,0c1.6,0,2.9,1.3,2.9,2.9v32.4
		C43.4,36.9,42.1,38.2,40.6,38.2z"/>
	<path fill="#FFFFFF" d="M14.3,38.2H2.9c-1.6,0-2.9-1.3-2.9-2.9L0,2.9C0,1.3,1.3,0,2.9,0l11.4,0c1.6,0,2.9,1.3,2.9,2.9v32.4
		C17.2,36.9,15.9,38.2,14.3,38.2z"/>
</g>
<g id="_x33_">
	<path fill="#FFFFFF" d="M66.8,38.2H55.4c-1.6,0-2.9-1.3-2.9-2.9V2.9c0-1.6,1.3-2.9,2.9-2.9l11.4,0c1.6,0,2.9,1.3,2.9,2.9v32.4
		C69.7,36.9,68.4,38.2,66.8,38.2z"/>
	<path fill="#FFFFFF" d="M40.6,38.2H29.1c-1.6,0-2.9-1.3-2.9-2.9V2.9c0-1.6,1.3-2.9,2.9-2.9l11.4,0c1.6,0,2.9,1.3,2.9,2.9v32.4
		C43.4,36.9,42.1,38.2,40.6,38.2z"/>
	<path fill="#FFFFFF" d="M14.3,38.2H2.9c-1.6,0-2.9-1.3-2.9-2.9L0,2.9C0,1.3,1.3,0,2.9,0l11.4,0c1.6,0,2.9,1.3,2.9,2.9v32.4
		C17.2,36.9,15.9,38.2,14.3,38.2z"/>
</g>
<g id="_x32_">
	<path fill="#FFFFFF" d="M40.6,38.2H29.1c-1.6,0-2.9-1.3-2.9-2.9V2.9c0-1.6,1.3-2.9,2.9-2.9l11.4,0c1.6,0,2.9,1.3,2.9,2.9v32.4
		C43.4,36.9,42.1,38.2,40.6,38.2z"/>
	<path fill="#FFFFFF" d="M14.3,38.2H2.9c-1.6,0-2.9-1.3-2.9-2.9L0,2.9C0,1.3,1.3,0,2.9,0l11.4,0c1.6,0,2.9,1.3,2.9,2.9v32.4
		C17.2,36.9,15.9,38.2,14.3,38.2z"/>
</g>
<g id="_x31_">
	<path fill="#FFFFFF" d="M14.3,38.2H2.9c-1.6,0-2.9-1.3-2.9-2.9L0,2.9C0,1.3,1.3,0,2.9,0l11.4,0c1.6,0,2.9,1.3,2.9,2.9v32.4
		C17.2,36.9,15.9,38.2,14.3,38.2z"/>
</g>
<g id="_x30__00000057826356324892336950000011920641075402617256_">
</g>
</svg>
