<?xml version="1.0" encoding="utf-8"?>
<!-- Generator: Adobe Illustrator 26.5.0, SVG Export Plug-In . SVG Version: 6.00 Build 0)  -->
<svg version="1.1" baseProfile="tiny" id="Layer_1" xmlns="http://www.w3.org/2000/svg" xmlns:xlink="http://www.w3.org/1999/xlink"
	 x="0px" y="0px" viewBox="0 0 261.4 71.4" overflow="visible" xml:space="preserve">
<g display="none">
	<path display="inline" fill="#FFC442" d="M252.4,0H25.6v0H11C4.9,0,0,4.9,0,11v49.3c0,6.1,4.9,11,11,11h241.4c5,0,9-4.1,9-9V9
		C261.4,4,257.3,0,252.4,0z M258.4,62.3c0,3.3-2.7,6-6,6H25.6c-4.4,0-8-3.6-8-8V11c0-4.3,3.4-7.8,7.6-8h227.2c3.3,0,6,2.7,6,6V62.3z
		"/>
</g>
<path fill="#3A1415" d="M248.2,63.6H27.1c-2.2,0-4-1.8-4-4V11.8c0-2.2,1.8-4,4-4h221.1c2.2,0,4,1.8,4,4v47.8
	C252.2,61.8,250.4,63.6,248.2,63.6z"/>
</svg>
