<?xml version="1.0" encoding="utf-8"?>
<!-- Generator: Adobe Illustrator 28.7.3, SVG Export Plug-In . SVG Version: 9.03 Build 54978)  -->
<svg version="1.1" baseProfile="tiny" id="Layer_1" xmlns="http://www.w3.org/2000/svg" xmlns:xlink="http://www.w3.org/1999/xlink"
	 x="0px" y="0px" viewBox="0 0 365 104.8" overflow="visible" xml:space="preserve">
<path fill="#00FFEE" d="M350.1,21.5h-42.8c-9.2,0-17.9-3.6-24.4-10.1C275.6,4,265.8,0,255.5,0H14.9C6.7,0,0,6.7,0,14.9V90
	c0,8.2,6.7,14.9,14.9,14.9h315.5h19h0.8c8.2,0,14.9-6.7,14.9-14.9V36.3C365,28.1,358.3,21.5,350.1,21.5z M14.9,100.6
	C9,100.6,4.2,95.9,4.2,90V14.9C4.2,9,9,4.2,14.9,4.2h240.6c9.2,0,17.9,3.6,24.4,10.1c7.3,7.3,17.1,11.4,27.4,11.4h23l0,0
	c5.7,0,10.3,4.8,10.3,10.4v54.2c0,5.7-4.6,10.3-10.3,10.3H14.9z"/>
</svg>
