<?xml version="1.0" encoding="utf-8"?>
<!-- Generator: Adobe Illustrator 26.5.0, SVG Export Plug-In . SVG Version: 6.00 Build 0)  -->
<svg version="1.1" baseProfile="tiny" id="Layer_1" xmlns="http://www.w3.org/2000/svg" xmlns:xlink="http://www.w3.org/1999/xlink"
	 x="0px" y="0px" viewBox="0 0 494 9.4" overflow="visible" xml:space="preserve">
<g>
	<path fill="#FFC442" d="M5.8,0.3h11.8v6H13c-1.1,0-1.9,0.9-1.9,1.9v1.2H0l0-3.3C0,2.9,2.6,0.3,5.8,0.3z"/>
	<path fill="#4481E3" d="M20.1,0.5v5.4c0,0.2-0.2,0.5-0.5,0.5l0,0c-0.2,0-0.5-0.2-0.5-0.5V0.5c0-0.2,0.2-0.5,0.5-0.5l0,0
		C19.9,0,20.1,0.2,20.1,0.5z"/>
	<path fill="#FFC442" d="M490.1,9.4h3.9v-2c0-2.4-1.9-4.3-4.3-4.3h-11c-0.7,0-1.4-0.2-1.9-0.6l-2.2-1.6c-0.6-0.4-1.2-0.6-1.9-0.6
		H21.7v5.9h329c0.6,0,1.2,0.2,1.6,0.6l0.6,0.5c0.4,0.4,0.9,0.6,1.5,0.6H489c0.6,0,1.1,0.5,1.1,1.1L490.1,9.4z"/>
</g>
</svg>
