<?xml version="1.0" encoding="utf-8"?>
<!-- Generator: Adobe Illustrator 27.8.0, SVG Export Plug-In . SVG Version: 6.00 Build 0)  -->
<svg version="1.1" baseProfile="tiny" id="Layer_1" xmlns="http://www.w3.org/2000/svg" xmlns:xlink="http://www.w3.org/1999/xlink"
	 x="0px" y="0px" viewBox="0 0 1328.2 217.8" overflow="visible" xml:space="preserve">
<path fill="#FFFFFF" d="M1285.9,176.2h-25c-1.4,0-2.5-1.1-2.5-2.5V44.1c0-1.4,1.1-2.5,2.5-2.5h25c1.4,0,2.5,1.1,2.5,2.5v129.6
	C1288.3,175.1,1287.2,176.2,1285.9,176.2z"/>
<path fill="#FFFFFF" d="M67.1,176.2h-25c-1.4,0-2.5-1.1-2.5-2.5V44.1c0-1.4,1.1-2.5,2.5-2.5h25c1.4,0,2.5,1.1,2.5,2.5v129.6
	C69.6,175.1,68.5,176.2,67.1,176.2z"/>
</svg>
