<?xml version="1.0" encoding="utf-8"?>
<!-- Generator: Adobe Illustrator 26.0.1, SVG Export Plug-In . SVG Version: 6.00 Build 0)  -->
<svg version="1.1" baseProfile="tiny" id="Layer_1" xmlns="http://www.w3.org/2000/svg" xmlns:xlink="http://www.w3.org/1999/xlink"
	 x="0px" y="0px" viewBox="0 0 254.3 565.4" overflow="visible" xml:space="preserve">
<g>
	<path fill="#FFFFFF" d="M129.7,233.5c-13.5,0-26.7,1.6-39.3,4.5v79.1V343v126.6l36.8,95.8l36.8-95.8V340.2v-25v-78
		C152.9,234.8,141.4,233.5,129.7,233.5z"/>
	<path fill="#B3B3B3" d="M254.3,168.6h-107V52.7c6.2-5.5,10.1-13.5,10.1-22.5c0-16.7-13.5-30.2-30.2-30.2C110.5,0,97,13.5,97,30.2
		c0,8.9,3.9,16.9,10.1,22.5v115.9H0l50.9,31.8h39.4v14.2c12.7-2.6,25.9-4,39.3-4c11.7,0,23.1,1,34.3,3v-13.2h39.4L254.3,168.6z"/>
</g>
</svg>
