<?xml version="1.0" encoding="utf-8"?>
<!-- Generator: Adobe Illustrator 26.0.1, SVG Export Plug-In . SVG Version: 6.00 Build 0)  -->
<svg version="1.1" baseProfile="tiny" id="Layer_1" xmlns="http://www.w3.org/2000/svg" xmlns:xlink="http://www.w3.org/1999/xlink"
	 x="0px" y="0px" viewBox="0 0 1920 1080" overflow="visible" xml:space="preserve">
<path fill="#005FC5" d="M2281.4-111.5l-30.5-30.5l-523.1,523.1c-19.7,21-42.3,22.1-42.3,22.1h-217.3c-46.6-1.2-52.2-0.2-72,20
	l-107.6,107.6c-23,23-24.9,58.2-4.4,78.7l100.9,100.9c20.5,20.5,55.8,18.6,78.7-4.4L2281.4-111.5 M1656.6,465.7l-12.8,12.6
	c-16.8,16.5-37.7,32.2-46.6,34.7c-8.8,2.6-35.3,4.4-58.9,3.9l-151.7-2.8c-23.5-0.4-29.1-14.3-12.3-30.8l15.6-15.3
	c16.8-16.5,37.6-31.3,46.3-32.8c8.7-1.5,35.1-2.5,58.6-2.2l149.5,2.1C1667.8,435.4,1673.4,449.2,1656.6,465.7z"/>
<path fill="#005FC5" d="M1516.3,841.6l100.9,100.9c20.5,20.5,55.8,18.6,78.7-4.4l107.6-107.6c20.2-19.7,21.2-25.4,20-72V541.2
	c0,0,1.1-22.6,22.1-42.3l523.1-523.1l-30.5-30.5l-817.5,817.5C1497.7,785.8,1495.8,821.1,1516.3,841.6z M1791.6,582.4l2.1,149.5
	c0.3,23.5-0.6,49.9-2.2,58.6c-1.5,8.7-16.3,29.5-32.8,46.3l-15.3,15.6c-16.5,16.8-30.4,11.2-30.8-12.3l-2.8-151.7
	c-0.4-23.5,1.3-50,3.9-58.9c2.6-8.8,18.2-29.8,34.7-46.6l12.6-12.8C1777.5,553.3,1791.3,558.8,1791.6,582.4z"/>
</svg>
