<?xml version="1.0" encoding="utf-8"?>
<!-- Generator: Adobe Illustrator 26.0.1, SVG Export Plug-In . SVG Version: 6.00 Build 0)  -->
<svg version="1.1" baseProfile="tiny" id="Layer_1" xmlns="http://www.w3.org/2000/svg" xmlns:xlink="http://www.w3.org/1999/xlink"
	 x="0px" y="0px" viewBox="0 0 1920 1080" overflow="visible" xml:space="preserve">
<g>
	<g>
		<path fill="#005FC5" d="M431.8,479.8H511c-13.7-57.3-55.9-103.5-110.8-122.8v84.2C413.8,451.1,424.8,464.3,431.8,479.8z"/>
		<path fill="#005FC5" d="M400.3,598.9v1.2l-9.1,4.8l-3.2,1.7c-0.4,0.2-0.8,0.4-1.2,0.6c-2,1-4.1,2-6.2,2.9
			c-0.6,0.2-1.1,0.4-1.7,0.7c-2.2,0.9-4.3,1.7-6.6,2.4c-0.7,0.2-1.3,0.4-2,0.6c-2.1,0.6-4.3,1.2-6.4,1.7c-2.9,0.6-5.7,1.1-8.6,1.5
			c-0.4,0.1-0.9,0.1-1.3,0.1c-3.6,0.4-7.2,0.7-10.8,0.7c-2.9,0-5.8-0.2-8.7-0.4c-1-0.1-1.9-0.2-2.8-0.3c-2-0.2-3.9-0.5-5.8-0.9
			c-1.7-0.3-3.4-0.7-5.1-1.1c-1.6-0.4-3.2-0.8-4.7-1.2c-1.7-0.5-3.3-1-5-1.6c-0.7-0.2-1.4-0.5-2.1-0.8c-3.2-1.2-6.3-2.6-9.4-4.2
			c-1.7-0.9-3.4-1.9-5.1-2.8c-0.9-0.5-1.8-1-2.7-1.5l-3.5-2.2l-7.3-4.6v-0.9c-21.5-17.9-35.3-44.9-35.3-75.1
			c0-30.2,13.7-57.2,35.3-75.1v-86.1c-64.6,25-110.5,87.7-110.5,161.2c0,95.4,77.3,172.8,172.7,172.8c81.5,0,149.8-56.5,167.9-132.5
			h-79.2C424.8,575.8,413.8,589.1,400.3,598.9z"/>
	</g>
	<path fill="#005FC5" d="M308.9,611.3c-3.2-1.2-6.4-2.6-9.4-4.2C302.5,608.7,305.7,610.1,308.9,611.3z"/>
	<path fill="#005FC5" d="M291.6,602.8c0.9,0.5,1.8,1,2.7,1.5c-2.1-1.2-4.2-2.3-6.1-3.7L291.6,602.8z"/>
	<path fill="#005FC5" d="M353.9,616.9c-3.6,0.4-7.2,0.7-10.8,0.7C346.7,617.6,350.3,617.3,353.9,616.9z"/>
	<path fill="#005FC5" d="M387.9,606.5l3.2-1.7c-1.4,0.8-2.9,1.5-4.4,2.2C387.2,606.9,387.6,606.7,387.9,606.5z"/>
	<path fill="#005FC5" d="M380.6,610c-0.6,0.2-1.1,0.4-1.7,0.7C379.4,610.4,380,610.2,380.6,610z"/>
	<path fill="#005FC5" d="M372.3,613c-0.7,0.2-1.3,0.4-2,0.6C371,613.4,371.6,613.2,372.3,613z"/>
	<path fill="#005FC5" d="M363.9,615.3c-2.8,0.6-5.7,1.1-8.6,1.5C358.1,616.4,361,615.9,363.9,615.3z"/>
	<path fill="#005FC5" d="M400.3,600.1v-1.2c-2.9,2.1-6,4.1-9.1,5.9L400.3,600.1z"/>
	<path fill="#005FC5" d="M280.9,596.1l7.3,4.6c-2.5-1.7-5-3.6-7.3-5.5V596.1z"/>
</g>
<g>
	<path fill="#FFFFFF" d="M343.2,347.2c-13.5,0-26.7,1.6-39.3,4.5v79.1v25.9v126.6c11.4,7.1,24.9,11.3,39.4,11.3
		c12.2,0,23.9-3,34.3-8.5V453.9v-25v-78C366.4,348.6,355,347.2,343.2,347.2z"/>
	<path fill="#B3B3B3" d="M467.9,282.3h-107V166.4c6.2-5.5,10.1-13.5,10.1-22.5c0-16.7-13.5-30.2-30.2-30.2
		c-16.7,0-30.2,13.5-30.2,30.2c0,8.9,3.9,16.9,10.1,22.5v115.9h-107l50.9,31.8h39.4v14.2c12.7-2.6,25.9-4,39.3-4
		c11.7,0,23.1,1,34.3,3v-13.2H417L467.9,282.3z"/>
</g>
</svg>
