<?xml version="1.0" encoding="utf-8"?>
<!-- Generator: Adobe Illustrator 26.0.1, SVG Export Plug-In . SVG Version: 6.00 Build 0)  -->
<svg version="1.1" baseProfile="tiny" id="Layer_1" xmlns="http://www.w3.org/2000/svg" xmlns:xlink="http://www.w3.org/1999/xlink"
	 x="0px" y="0px" viewBox="0 0 1920 1080" overflow="visible" xml:space="preserve">
<g>
	<g>
		<g>
			<path fill="#005FC5" d="M431.8,479.8H511c-13.7-57.3-55.9-103.5-110.8-122.8v84.2C413.8,451.1,424.8,464.3,431.8,479.8z"/>
			<path fill="#005FC5" d="M400.3,598.9v1.2l-9.1,4.8l-3.2,1.7c-0.4,0.2-0.8,0.4-1.2,0.6c-2,1-4.1,2-6.2,2.9
				c-0.6,0.2-1.1,0.4-1.7,0.7c-2.2,0.9-4.3,1.7-6.6,2.4c-0.7,0.2-1.3,0.4-2,0.6c-2.1,0.6-4.3,1.2-6.4,1.7c-2.9,0.6-5.7,1.1-8.6,1.5
				c-0.4,0.1-0.9,0.1-1.3,0.1c-3.6,0.4-7.2,0.7-10.8,0.7c-2.9,0-5.8-0.2-8.7-0.4c-1-0.1-1.9-0.2-2.8-0.3c-2-0.2-3.9-0.5-5.8-0.9
				c-1.7-0.3-3.4-0.7-5.1-1.1c-1.6-0.4-3.2-0.8-4.7-1.2c-1.7-0.5-3.3-1-5-1.6c-0.7-0.2-1.4-0.5-2.1-0.8c-3.2-1.2-6.3-2.6-9.4-4.2
				c-1.7-0.9-3.4-1.9-5.1-2.8c-0.9-0.5-1.8-1-2.7-1.5l-3.5-2.2l-7.3-4.6v-0.9c-21.5-17.9-35.3-44.9-35.3-75.1
				c0-30.2,13.7-57.2,35.3-75.1v-86.1c-64.6,25-110.5,87.7-110.5,161.2c0,95.4,77.3,172.8,172.7,172.8
				c81.5,0,149.8-56.5,167.9-132.5h-79.2C424.8,575.8,413.8,589.1,400.3,598.9z"/>
		</g>
		<path fill="#005FC5" d="M308.9,611.3c-3.2-1.2-6.4-2.6-9.4-4.2C302.5,608.7,305.7,610.1,308.9,611.3z"/>
		<path fill="#005FC5" d="M291.6,602.8c0.9,0.5,1.8,1,2.7,1.5c-2.1-1.2-4.2-2.3-6.1-3.7L291.6,602.8z"/>
		<path fill="#005FC5" d="M353.9,616.9c-3.6,0.4-7.2,0.7-10.8,0.7C346.7,617.6,350.3,617.3,353.9,616.9z"/>
		<path fill="#005FC5" d="M387.9,606.5l3.2-1.7c-1.4,0.8-2.9,1.5-4.4,2.2C387.2,606.9,387.6,606.7,387.9,606.5z"/>
		<path fill="#005FC5" d="M380.6,610c-0.6,0.2-1.1,0.4-1.7,0.7C379.4,610.4,380,610.2,380.6,610z"/>
		<path fill="#005FC5" d="M372.3,613c-0.7,0.2-1.3,0.4-2,0.6C371,613.4,371.6,613.2,372.3,613z"/>
		<path fill="#005FC5" d="M363.9,615.3c-2.8,0.6-5.7,1.1-8.6,1.5C358.1,616.4,361,615.9,363.9,615.3z"/>
		<path fill="#005FC5" d="M400.3,600.1v-1.2c-2.9,2.1-6,4.1-9.1,5.9L400.3,600.1z"/>
		<path fill="#005FC5" d="M280.9,596.1l7.3,4.6c-2.5-1.7-5-3.6-7.3-5.5V596.1z"/>
	</g>
	<g>
		<path fill="#B3B3B3" d="M597.2,563.4c0,12-3.3,21.8-9.9,29.2c-5.9,6.8-12.7,10.2-20.3,10.2c-7.6,0-14.5-3.1-20.6-9.4
			c-6.9-7.1-10.4-16.9-10.4-29.2V437.6c0-12.5,3-22.6,9-30.2c6-7.6,13.3-11.4,22-11.4c8.3,0,15.3,3.6,21.1,10.9
			c6.1,7.8,9.1,17.6,9.1,29.5v29.7h-19.8v-27.2c0-4.6-0.9-8.6-2.7-11.9c-1.8-3.4-4.4-5.1-7.7-5.1c-2.7,0-5.2,1.5-7.6,4.6
			c-2.4,3-3.6,6.4-3.6,9.9v126c0,4.6,1.2,8.1,3.7,10.7c2.5,2.5,5,3.8,7.4,3.8c2.8,0,5.2-1.4,7.3-4.1c2.1-2.7,3.1-6.4,3.1-10.9v-31.5
			h19.8V563.4z"/>
		<path fill="#B3B3B3" d="M683.8,599.2h-21l-17.3-86.4H634v86.4h-19.8V398.3h36.6c18.4,0,27.7,19.4,27.7,58.2
			c0,13.2-0.5,22.7-1.5,28.5c-2,10.2-6.3,17.2-12.7,21.1L683.8,599.2z M658.7,456.3c0-21.4-3.9-32.1-11.8-32.1H634v62.2h14.3
			C655.2,486.6,658.7,476.5,658.7,456.3z"/>
		<path fill="#B3B3B3" d="M761.5,562.3c0,11.9-3.1,21.5-9.1,29.1c-6.1,7.5-13.5,11.3-22.1,11.3c-9,0-16.5-3.8-22.5-11.4
			c-6-7.6-9-18.1-9-31.5V398.3h19.8v159.5c0,4.6,1,8.7,3,12.4c2.2,4.4,5.1,6.6,8.7,6.6c2.8,0,5.4-1.7,7.8-5.2
			c2.4-3.5,3.6-7.1,3.6-10.8V398.3h19.8V562.3z"/>
		<path fill="#B3B3B3" d="M840.7,551.7c0,15.6-2.5,27.8-7.6,36.6c-5.6,9.7-13.7,14.5-24.4,14.5c-8.3,0-15.5-3.7-21.6-11.2
			c-6.6-8-9.9-18.2-9.9-30.7v-25.1H797c0.2,8,0.3,15.9,0.5,23.9c1.3,11.5,5.1,17.3,11.4,17.3c8,0,11.9-8,11.9-23.9
			c0-11.2-3.7-22.5-11.1-34c-6.9-10.2-13.8-20.3-20.7-30.5c-7.4-13-11.1-27.1-11.1-42.2c0-14.4,2.3-26,6.8-34.8
			c5.6-10.3,13.6-15.5,24.1-15.5c9.5,0,17,4.4,22.6,13.2c5.1,8.1,7.6,18.3,7.6,30.5v20.1h-19.5c-0.2-7.5-0.3-14.8-0.3-22.1
			c-0.7-10.5-4.1-15.7-10.4-15.7c-7.4,0-11.2,8-11.2,23.9c0,9.6,3.8,19.9,11.4,30.7c6.7,10.2,13.5,20.2,20.4,30.2
			C837,520.4,840.7,535.4,840.7,551.7z"/>
		<path fill="#B3B3B3" d="M925.7,599.2h-19.4c-1-10.2-3.1-25.2-6.2-45.2H875c-1.5,9.8-3.3,24.9-5.3,45.2h-18.9l23.6-200.9h26.1
			L925.7,599.2z M897.2,526.8l-9.4-87.6l-9.5,87.6H897.2z"/>
		<path fill="#B3B3B3" d="M1003.4,556.8c0,11.9-3.1,21.9-9.3,30.2c-6.2,8.3-13.6,12.5-22.2,12.5h-31.2V398.3h32.7
			c7.8-0.2,14.7,4.1,20.8,12.9c6.1,8.8,9.1,18.6,9.1,29.5V556.8z M983.6,552.2V443.9c0-2.9-1-6.5-3-10.9c-2.2-5.2-4.6-7.9-7.3-7.9
			h-12.8V573h9c3.8,0.2,7.2-1.8,9.9-6C982.2,562.9,983.6,558,983.6,552.2z"/>
		<path fill="#B3B3B3" d="M1077.5,599.2h-55.1V398.3h54.3v25.6h-34.5v58.2h29.2v26.4h-29.2v64.3h35.3V599.2z"/>
		<path fill="#B3B3B3" d="M1162,599.2h-21l-17.3-86.4h-11.4v86.4h-19.8V398.3h36.5c18.4,0,27.7,19.4,27.7,58.2
			c0,13.2-0.5,22.7-1.5,28.5c-2,10.2-6.3,17.2-12.7,21.1L1162,599.2z M1136.9,456.3c0-21.4-3.9-32.1-11.8-32.1h-12.8v62.2h14.3
			C1133.4,486.6,1136.9,476.5,1136.9,456.3z"/>
	</g>
	<g>
		<path fill="#FFFFFF" d="M536,622.1h4.7v34.8H536V622.1z"/>
		<path fill="#FFFFFF" d="M588.8,622.1h6.2l19.1,28.6h0.1v-28.6h4.7v34.8h-6l-19.3-28.6h-0.1v28.6h-4.7V622.1z"/>
		<path fill="#FFFFFF" d="M666.4,622.1h12.1c2.5,0,4.6,0.3,6.5,0.8c1.8,0.6,3.4,1.3,4.8,2.2c1.3,0.9,2.5,2,3.4,3.2
			c0.9,1.2,1.6,2.5,2.1,3.7c0.5,1.3,0.9,2.6,1.1,3.8c0.2,1.3,0.3,2.5,0.3,3.5c0,2.2-0.4,4.4-1.2,6.5c-0.8,2.1-2,3.9-3.6,5.6
			c-1.6,1.6-3.6,2.9-6,3.9c-2.4,1-5.1,1.5-8.2,1.5h-11.3V622.1z M671.1,652.5h5.9c2,0,3.9-0.3,5.7-0.8c1.8-0.6,3.3-1.4,4.7-2.4
			c1.3-1.1,2.4-2.4,3.2-4.1c0.8-1.6,1.2-3.5,1.2-5.7c0-1.1-0.2-2.4-0.5-3.9c-0.4-1.5-1-2.9-2-4.3c-1-1.3-2.4-2.5-4.1-3.4
			c-1.8-0.9-4.1-1.4-6.9-1.4h-7.1V652.5z"/>
		<path fill="#FFFFFF" d="M746.8,622.1v21.4c0,1.1,0.1,2.2,0.4,3.4c0.3,1.2,0.8,2.2,1.5,3.2c0.7,1,1.6,1.8,2.7,2.4
			c1.1,0.6,2.5,0.9,4.1,0.9c1.6,0,3-0.3,4.1-0.9c1.1-0.6,2-1.4,2.7-2.4c0.7-1,1.2-2.1,1.5-3.2c0.3-1.2,0.4-2.3,0.4-3.4v-21.4h4.7
			v22.1c0,2-0.3,3.9-1,5.5c-0.7,1.7-1.6,3.1-2.8,4.3c-1.2,1.2-2.6,2.2-4.3,2.8c-1.6,0.7-3.4,1-5.3,1c-1.9,0-3.7-0.3-5.3-1
			c-1.6-0.7-3.1-1.6-4.3-2.8c-1.2-1.2-2.1-2.6-2.8-4.3c-0.7-1.7-1-3.5-1-5.5v-22.1H746.8z"/>
		<path fill="#FFFFFF" d="M817.6,649.6c0.9,1.3,1.9,2.2,3.3,2.8c1.3,0.6,2.7,0.9,4.1,0.9c0.8,0,1.6-0.1,2.4-0.4
			c0.8-0.2,1.6-0.6,2.2-1.1c0.7-0.5,1.2-1.1,1.7-1.8c0.4-0.7,0.6-1.5,0.6-2.5c0-1.4-0.4-2.4-1.3-3.1c-0.9-0.7-1.9-1.3-3.2-1.8
			c-1.3-0.5-2.6-0.9-4.1-1.4c-1.5-0.4-2.9-1.1-4.1-1.9c-1.2-0.8-2.3-1.8-3.2-3.2c-0.8-1.3-1.3-3.1-1.3-5.4c0-1,0.2-2.1,0.7-3.2
			c0.4-1.1,1.1-2.2,2.1-3.2c1-0.9,2.2-1.7,3.7-2.4c1.5-0.6,3.3-1,5.4-1c1.9,0,3.7,0.3,5.4,0.8c1.7,0.5,3.3,1.6,4.6,3.2l-3.8,3.5
			c-0.6-0.9-1.4-1.7-2.5-2.2c-1.1-0.6-2.3-0.8-3.7-0.8c-1.3,0-2.4,0.2-3.3,0.5c-0.9,0.3-1.6,0.8-2.1,1.3c-0.5,0.5-0.9,1.1-1.1,1.7
			c-0.2,0.6-0.3,1.2-0.3,1.7c0,1.5,0.4,2.6,1.3,3.4c0.8,0.8,1.9,1.4,3.2,1.9c1.3,0.5,2.6,0.9,4.1,1.3c1.5,0.4,2.9,0.9,4.1,1.7
			c1.2,0.7,2.3,1.7,3.1,2.9c0.9,1.2,1.3,2.8,1.3,4.9c0,1.7-0.3,3.2-1,4.5c-0.6,1.4-1.5,2.5-2.6,3.4c-1.1,0.9-2.4,1.6-3.8,2.1
			c-1.5,0.5-3,0.7-4.7,0.7c-2.2,0-4.3-0.4-6.3-1.2c-2-0.8-3.6-2-4.8-3.6L817.6,649.6z"/>
		<path fill="#FFFFFF" d="M890.3,626.5h-11.2v-4.4h27.1v4.4H895v30.4h-4.7V626.5z"/>
		<path fill="#FFFFFF" d="M950.5,622.1h12.2c2.2,0,4.1,0.3,5.5,0.9c1.4,0.6,2.6,1.4,3.4,2.3c0.8,0.9,1.4,2,1.7,3.2
			c0.3,1.2,0.5,2.3,0.5,3.4c0,1.1-0.2,2.2-0.6,3.2c-0.4,1-0.9,2-1.7,2.8c-0.7,0.8-1.6,1.5-2.7,2.1c-1.1,0.6-2.2,0.9-3.5,1.1
			l9.9,15.9h-5.9l-8.8-15.4h-5.3v15.4h-4.7V622.1z M955.2,637.4h6.2c0.9,0,1.8-0.1,2.7-0.2c0.9-0.2,1.7-0.4,2.4-0.8
			c0.7-0.4,1.3-1,1.7-1.7c0.4-0.7,0.6-1.7,0.6-2.9c0-1.2-0.2-2.1-0.6-2.9c-0.4-0.7-1-1.3-1.7-1.7s-1.5-0.7-2.4-0.8
			c-0.9-0.1-1.8-0.2-2.7-0.2h-6.2V637.4z"/>
		<path fill="#FFFFFF" d="M1019.7,622.1h4.7v34.8h-4.7V622.1z"/>
		<path fill="#FFFFFF" d="M1072.6,622.1h22.4v4.4h-17.7v10.4h16.5v4.4h-16.5v11.2h18.6v4.4h-23.3V622.1z"/>
		<path fill="#FFFFFF" d="M1142.8,649.6c0.9,1.3,1.9,2.2,3.3,2.8c1.3,0.6,2.7,0.9,4.1,0.9c0.8,0,1.6-0.1,2.4-0.4
			c0.8-0.2,1.6-0.6,2.2-1.1c0.7-0.5,1.2-1.1,1.6-1.8c0.4-0.7,0.6-1.5,0.6-2.5c0-1.4-0.4-2.4-1.3-3.1c-0.8-0.7-1.9-1.3-3.2-1.8
			c-1.3-0.5-2.6-0.9-4.1-1.4c-1.5-0.4-2.9-1.1-4.1-1.9c-1.3-0.8-2.3-1.8-3.2-3.2c-0.9-1.3-1.3-3.1-1.3-5.4c0-1,0.2-2.1,0.6-3.2
			c0.5-1.1,1.1-2.2,2.1-3.2c0.9-0.9,2.2-1.7,3.6-2.4c1.5-0.6,3.3-1,5.4-1c1.9,0,3.7,0.3,5.4,0.8c1.7,0.5,3.2,1.6,4.6,3.2l-3.8,3.5
			c-0.6-0.9-1.4-1.7-2.5-2.2c-1.1-0.6-2.3-0.8-3.7-0.8c-1.3,0-2.4,0.2-3.3,0.5c-0.9,0.3-1.6,0.8-2.1,1.3c-0.5,0.5-0.9,1.1-1.1,1.7
			c-0.2,0.6-0.3,1.2-0.3,1.7c0,1.5,0.4,2.6,1.3,3.4c0.8,0.8,1.9,1.4,3.2,1.9c1.3,0.5,2.6,0.9,4.1,1.3c1.5,0.4,2.9,0.9,4.1,1.7
			c1.3,0.7,2.3,1.7,3.2,2.9c0.9,1.2,1.3,2.8,1.3,4.9c0,1.7-0.3,3.2-1,4.5c-0.6,1.4-1.5,2.5-2.6,3.4c-1.1,0.9-2.4,1.6-3.8,2.1
			c-1.5,0.5-3,0.7-4.7,0.7c-2.2,0-4.3-0.4-6.3-1.2c-2-0.8-3.6-2-4.8-3.6L1142.8,649.6z"/>
	</g>
</g>
<g>
	<path fill="#FFFFFF" d="M343.2,347.2c-13.5,0-26.7,1.6-39.3,4.5v79.1v25.9v126.6c11.4,7.1,24.9,11.3,39.4,11.3
		c12.2,0,23.9-3,34.3-8.5V453.9v-25v-78C366.4,348.6,355,347.2,343.2,347.2z"/>
	<path fill="#B3B3B3" d="M467.9,282.3h-107V166.4c6.2-5.5,10.1-13.5,10.1-22.5c0-16.7-13.5-30.2-30.2-30.2
		c-16.7,0-30.2,13.5-30.2,30.2c0,8.9,3.9,16.9,10.1,22.5v115.9h-107l50.9,31.8h39.4v14.2c12.7-2.6,25.9-4,39.3-4
		c11.7,0,23.1,1,34.3,3v-13.2H417L467.9,282.3z"/>
</g>
</svg>
