<?xml version="1.0" encoding="utf-8"?>
<!-- Generator: Adobe Illustrator 26.0.1, SVG Export Plug-In . SVG Version: 6.00 Build 0)  -->
<svg version="1.1" baseProfile="tiny" id="Layer_1" xmlns="http://www.w3.org/2000/svg" xmlns:xlink="http://www.w3.org/1999/xlink"
	 x="0px" y="0px" viewBox="0 0 1920 1080" overflow="visible" xml:space="preserve">
<path fill="#0071CE" d="M1117.5,810H767.7c-5.5,0-10-4.5-10-10v-46.7c0-5.5,4.5-10,10-10h391c2,0,3.6,1.6,3.6,3.6v18.3
	C1144.8,782.7,1134.9,792.6,1117.5,810z"/>
<path fill="#051C2C" d="M1083.9,810H767.7c-5.5,0-10-4.5-10-10v-46.7c0-5.5,4.5-10,10-10h357.3c2,0,3.6,1.6,3.6,3.6v18.3
	C1111.2,782.7,1101.3,792.6,1083.9,810z"/>
</svg>
