<?xml version="1.0" encoding="utf-8"?>
<!-- Generator: Adobe Illustrator 29.3.1, SVG Export Plug-In . SVG Version: 9.03 Build 55982)  -->
<svg version="1.1" baseProfile="tiny" id="animated"
	 xmlns="http://www.w3.org/2000/svg" xmlns:xlink="http://www.w3.org/1999/xlink" x="0px" y="0px" viewBox="0 0 1035.3 464.7"
	 overflow="visible" xml:space="preserve">
<g id="_x30_">
</g>
<g id="_x31__00000179612962853250776090000006484222694524114067_">
	
		<rect id="colorstyle:Base_00000182488873005054897590000005604494631857125042_" y="422.2" fill="#93CAA0" width="43.3" height="42.6"/>
</g>
<g id="_x32__00000131336899908963648700000015529301879002519972_">
	
		<rect id="colorstyle:Base_00000007407142194333555100000011278792580284272563_" y="422.2" fill="#93CAA0" width="43.3" height="42.6"/>
	
		<rect id="colorstyle:Base_00000088828853400054163270000011658734861017252491_" x="52.1" y="422.2" fill="#93CAA0" width="43.3" height="42.6"/>
</g>
<g id="_x33__00000065071005926385288120000015412939576209145776_">
	
		<rect id="colorstyle:Base_00000113335900313846994900000003570130461236495518_" y="422.2" fill="#93CAA0" width="43.3" height="42.6"/>
	
		<rect id="colorstyle:Base_00000115504621386951928110000015484125762978177678_" x="104.2" y="422.2" fill="#93CAA0" width="43.3" height="42.6"/>
	
		<rect id="colorstyle:Base_00000120561044008640666420000017906312317949272981_" x="52.1" y="422.2" fill="#93CAA0" width="43.3" height="42.6"/>
</g>
<g id="_x34__00000080187059762915289690000001798668374838955428_">
	
		<rect id="colorstyle:Base_00000170971999822770369600000000256514358473798832_" x="156.2" y="422.2" fill="#93CAA0" width="43.3" height="42.6"/>
	
		<rect id="colorstyle:Base_00000107590373433238800470000003072650275835849901_" y="422.2" fill="#93CAA0" width="43.3" height="42.6"/>
	
		<rect id="colorstyle:Base_00000178175001611344177490000001639536106339169719_" x="104.2" y="422.2" fill="#93CAA0" width="43.3" height="42.6"/>
	
		<rect id="colorstyle:Base_00000113331297715187903420000007271356942611980464_" x="52.1" y="422.2" fill="#93CAA0" width="43.3" height="42.6"/>
</g>
<g id="_x35__00000063605392042329336720000008649182642477398455_">
	
		<rect id="colorstyle:Base_00000081613425134696402390000015935154745899157940_" x="208.3" y="422.2" fill="#93CAA0" width="43.3" height="42.6"/>
	
		<rect id="colorstyle:Base_00000007386125207591927450000006644219381330162870_" x="156.2" y="422.2" fill="#93CAA0" width="43.3" height="42.6"/>
	
		<rect id="colorstyle:Base_00000148620715299948517790000008477009042373483966_" y="422.2" fill="#93CAA0" width="43.3" height="42.6"/>
	
		<rect id="colorstyle:Base_00000048496998861449635850000014833758227394276231_" x="104.2" y="422.2" fill="#93CAA0" width="43.3" height="42.6"/>
	
		<rect id="colorstyle:Base_00000102542598618696250750000006111670395733939862_" x="52.1" y="422.2" fill="#93CAA0" width="43.3" height="42.6"/>
</g>
<g id="_x36__00000157309795152194530360000008244919318263855790_">
	
		<rect id="colorstyle:Base_00000132772376383333204440000004102961920719231621_" x="208.3" y="422.2" fill="#93CAA0" width="43.3" height="42.6"/>
	
		<rect id="colorstyle:Base_00000103267533548518314000000005448500925668300950_" x="156.2" y="422.2" fill="#93CAA0" width="43.3" height="42.6"/>
	
		<rect id="colorstyle:Base_00000161632627289415599930000002413533199899163040_" y="422.2" fill="#93CAA0" width="43.3" height="42.6"/>
	<path id="colorstyle:Base_00000157284939990061124550000017033346315315354776_" fill="#93CAA0" d="M260.4,464.7h43.3v-45.6
		c-12.7,2-25.6,3-38.7,3h-4.6V464.7z"/>
	
		<rect id="colorstyle:Base_00000037650543143787702740000016900454889720595641_" x="104.2" y="422.2" fill="#93CAA0" width="43.3" height="42.6"/>
	
		<rect id="colorstyle:Base_00000026134030741404602040000014718159045449001858_" x="52.1" y="422.2" fill="#93CAA0" width="43.3" height="42.6"/>
</g>
<g id="_x37__00000078040867224501106070000011410635335071833262_">
	<path id="colorstyle:Base_00000048490720981249671520000005690514935686845850_" fill="#93CAA0" d="M355.7,404.7
		c-13.8,5.6-28.3,9.9-43.3,12.9v47.2h41.3c0.7,0,1.3,0,2,0V404.7z"/>
	
		<rect id="colorstyle:Base_00000083068747221884768050000015827559257639678118_" x="208.3" y="422.2" fill="#93CAA0" width="43.3" height="42.6"/>
	
		<rect id="colorstyle:Base_00000058552908507464189860000012471718601709936528_" x="156.2" y="422.2" fill="#93CAA0" width="43.3" height="42.6"/>
	
		<rect id="colorstyle:Base_00000140010997768578223120000006412478687724796290_" y="422.2" fill="#93CAA0" width="43.3" height="42.6"/>
	<path id="colorstyle:Base_00000037663609355015193430000004636930011733877180_" fill="#93CAA0" d="M260.4,464.7h43.3v-45.6
		c-12.7,2-25.6,3-38.7,3h-4.6V464.7z"/>
	
		<rect id="colorstyle:Base_00000075126184403070194200000005558639746461809037_" x="104.2" y="422.2" fill="#93CAA0" width="43.3" height="42.6"/>
	
		<rect id="colorstyle:Base_00000140711033341062470140000001596009115021946260_" x="52.1" y="422.2" fill="#93CAA0" width="43.3" height="42.6"/>
</g>
<g id="_x38__00000170977501873807607880000018362306715552945826_">
	<path id="colorstyle:Base_00000168116016995834331550000003257343312531592634_" fill="#93CAA0" d="M355.7,404.7
		c-13.8,5.6-28.3,9.9-43.3,12.9v47.2h41.3c0.7,0,1.3,0,2,0V404.7z"/>
	
		<rect id="colorstyle:Base_00000089559153187888730920000004917557272662510474_" x="208.3" y="422.2" fill="#93CAA0" width="43.3" height="42.6"/>
	
		<rect id="colorstyle:Base_00000012437821053356962790000010153908487341681807_" x="156.2" y="422.2" fill="#93CAA0" width="43.3" height="42.6"/>
	<path id="colorstyle:Base_00000141457940357643855420000005612098676920758402_" fill="#93CAA0" d="M364.6,464.5
		c14.7-0.6,29.2-2.6,43.3-5.7v-82.5l-30.7,18.4c-4.1,2.2-8.3,4.3-12.6,6.3V464.5z"/>
	
		<rect id="colorstyle:Base_00000152232782279270508240000015336809522794179490_" y="422.2" fill="#93CAA0" width="43.3" height="42.6"/>
	<path id="colorstyle:Base_00000127038861018891055440000000149402298588232836_" fill="#93CAA0" d="M260.4,464.7h43.3v-45.6
		c-12.7,2-25.6,3-38.7,3h-4.6V464.7z"/>
	
		<rect id="colorstyle:Base_00000008107984153900827290000011488274198614167959_" x="104.2" y="422.2" fill="#93CAA0" width="43.3" height="42.6"/>
	
		<rect id="colorstyle:Base_00000071518989653425729830000017511148120619709323_" x="52.1" y="422.2" fill="#93CAA0" width="43.3" height="42.6"/>
</g>
<g id="_x39__00000165944464694085135490000012493783032215294111_">
	<path id="colorstyle:Base_00000011717295859819374350000000262419192373851060_" fill="#93CAA0" d="M416.6,456.6
		c15.1-4,29.6-9.5,43.3-16.3V345l-43.3,25.9V456.6z"/>
	<path id="colorstyle:Base_00000145044428982677435970000001719752136108845989_" fill="#93CAA0" d="M355.7,404.7
		c-13.8,5.6-28.3,9.9-43.3,12.9v47.2h41.3c0.7,0,1.3,0,2,0V404.7z"/>
	
		<rect id="colorstyle:Base_00000161606540121071248810000004339252858719091637_" x="208.3" y="422.2" fill="#93CAA0" width="43.3" height="42.6"/>
	
		<rect id="colorstyle:Base_00000148622825962890293840000017175762022610901924_" x="156.2" y="422.2" fill="#93CAA0" width="43.3" height="42.6"/>
	<path id="colorstyle:Base_00000005974897068179649260000004491723975024153772_" fill="#93CAA0" d="M364.6,464.5
		c14.7-0.6,29.2-2.6,43.3-5.7v-82.5l-30.7,18.4c-4.1,2.2-8.3,4.3-12.6,6.3V464.5z"/>
	
		<rect id="colorstyle:Base_00000134954749324592684880000011680570893191867067_" y="422.2" fill="#93CAA0" width="43.3" height="42.6"/>
	<path id="colorstyle:Base_00000097478331274970034490000009685197630918253963_" fill="#93CAA0" d="M260.4,464.7h43.3v-45.6
		c-12.7,2-25.6,3-38.7,3h-4.6V464.7z"/>
	
		<rect id="colorstyle:Base_00000147912594265764366660000011173042777834002583_" x="104.2" y="422.2" fill="#93CAA0" width="43.3" height="42.6"/>
	
		<rect id="colorstyle:Base_00000085222622419793559770000009313604269599047329_" x="52.1" y="422.2" fill="#93CAA0" width="43.3" height="42.6"/>
</g>
<g id="_x31_0_00000171687749754561825290000012654212739532411053_">
	<path id="colorstyle:Base_00000045584347032055435210000015053566835894326959_" fill="#93CAA0" d="M416.6,456.6
		c15.1-4,29.6-9.5,43.3-16.3V345l-43.3,25.9V456.6z"/>
	<polygon id="colorstyle:Base_00000115509732720344230340000006721385422234713775_" fill="#93CAA0" points="512,313.8 468.7,339.7 
		468.7,435.5 512,409.3 	"/>
	<path id="colorstyle:Base_00000103253105436494884060000015608939922959232443_" fill="#93CAA0" d="M355.7,404.7
		c-13.8,5.6-28.3,9.9-43.3,12.9v47.2h41.3c0.7,0,1.3,0,2,0V404.7z"/>
	
		<rect id="colorstyle:Base_00000067210633878070698780000012452493543177309577_" x="208.3" y="422.2" fill="#93CAA0" width="43.3" height="42.6"/>
	
		<rect id="colorstyle:Base_00000161593307492779027870000003563728112110602627_" x="156.2" y="422.2" fill="#93CAA0" width="43.3" height="42.6"/>
	<path id="colorstyle:Base_00000165223326871769088660000009215434262542758584_" fill="#93CAA0" d="M364.6,464.5
		c14.7-0.6,29.2-2.6,43.3-5.7v-82.5l-30.7,18.4c-4.1,2.2-8.3,4.3-12.6,6.3V464.5z"/>
	
		<rect id="colorstyle:Base_00000080924189878936131320000018237545167528582293_" y="422.2" fill="#93CAA0" width="43.3" height="42.6"/>
	<path id="colorstyle:Base_00000098178787382435432900000005189332839531496624_" fill="#93CAA0" d="M260.4,464.7h43.3v-45.6
		c-12.7,2-25.6,3-38.7,3h-4.6V464.7z"/>
	
		<rect id="colorstyle:Base_00000078006537541578932650000016303829144965126323_" x="104.2" y="422.2" fill="#93CAA0" width="43.3" height="42.6"/>
	
		<rect id="colorstyle:Base_00000097488486632749498330000011153555138812713903_" x="52.1" y="422.2" fill="#93CAA0" width="43.3" height="42.6"/>
</g>
<g id="_x31_1_00000054263159384884927450000010271711498011582378_">
	<polygon id="colorstyle:Base_00000044156062126182357300000010409149170182788758_" fill="#93CAA0" points="564.1,282.5 
		520.8,308.5 520.8,403.9 564.1,377.7 	"/>
	<path id="colorstyle:Base_00000150799398891333814720000000586383724658783893_" fill="#93CAA0" d="M416.6,456.6
		c15.1-4,29.6-9.5,43.3-16.3V345l-43.3,25.9V456.6z"/>
	<polygon id="colorstyle:Base_00000112604401226292597430000011093074702739462017_" fill="#93CAA0" points="512,313.8 468.7,339.7 
		468.7,435.5 512,409.3 	"/>
	<path id="colorstyle:Base_00000159438534110647781250000002116261025259340456_" fill="#93CAA0" d="M355.7,404.7
		c-13.8,5.6-28.3,9.9-43.3,12.9v47.2h41.3c0.7,0,1.3,0,2,0V404.7z"/>
	
		<rect id="colorstyle:Base_00000145761023209035188480000010518086082460859055_" x="208.3" y="422.2" fill="#93CAA0" width="43.3" height="42.6"/>
	
		<rect id="colorstyle:Base_00000058585466835639776940000014147366845844929671_" x="156.2" y="422.2" fill="#93CAA0" width="43.3" height="42.6"/>
	<path id="colorstyle:Base_00000019672827248967772980000013228074930954109850_" fill="#93CAA0" d="M364.6,464.5
		c14.7-0.6,29.2-2.6,43.3-5.7v-82.5l-30.7,18.4c-4.1,2.2-8.3,4.3-12.6,6.3V464.5z"/>
	
		<rect id="colorstyle:Base_00000047747892027955270670000008068757166826772653_" y="422.2" fill="#93CAA0" width="43.3" height="42.6"/>
	<path id="colorstyle:Base_00000139999568385746605390000001170366476953217954_" fill="#93CAA0" d="M260.4,464.7h43.3v-45.6
		c-12.7,2-25.6,3-38.7,3h-4.6V464.7z"/>
	
		<rect id="colorstyle:Base_00000109027475349451132960000008588801660916808112_" x="104.2" y="422.2" fill="#93CAA0" width="43.3" height="42.6"/>
	
		<rect id="colorstyle:Base_00000071542081797769986130000013518781235896274068_" x="52.1" y="422.2" fill="#93CAA0" width="43.3" height="42.6"/>
</g>
<g id="_x31_2_00000149346837852482989680000004235179254965135288_">
	<polygon id="colorstyle:Base_00000048483458119680020340000001837074507544829056_" fill="#93CAA0" points="616.1,251.3 
		572.9,277.3 572.9,372.4 616.1,346.2 	"/>
	<polygon id="colorstyle:Base_00000078735839162246704740000009752323668942157961_" fill="#93CAA0" points="564.1,282.5 
		520.8,308.5 520.8,403.9 564.1,377.7 	"/>
	<path id="colorstyle:Base_00000158739819592598638720000014676214124897181091_" fill="#93CAA0" d="M416.6,456.6
		c15.1-4,29.6-9.5,43.3-16.3V345l-43.3,25.9V456.6z"/>
	<polygon id="colorstyle:Base_00000127750644829685482580000010422747743585643432_" fill="#93CAA0" points="512,313.8 468.7,339.7 
		468.7,435.5 512,409.3 	"/>
	<path id="colorstyle:Base_00000031182757072415565990000009398656175555597464_" fill="#93CAA0" d="M355.7,404.7
		c-13.8,5.6-28.3,9.9-43.3,12.9v47.2h41.3c0.7,0,1.3,0,2,0V404.7z"/>
	
		<rect id="colorstyle:Base_00000067945235292139160690000004729998080492771208_" x="208.3" y="422.2" fill="#93CAA0" width="43.3" height="42.6"/>
	
		<rect id="colorstyle:Base_00000110466318363858109690000007567695047974336168_" x="156.2" y="422.2" fill="#93CAA0" width="43.3" height="42.6"/>
	<path id="colorstyle:Base_00000142878844911028431200000008419356174336445064_" fill="#93CAA0" d="M364.6,464.5
		c14.7-0.6,29.2-2.6,43.3-5.7v-82.5l-30.7,18.4c-4.1,2.2-8.3,4.3-12.6,6.3V464.5z"/>
	
		<rect id="colorstyle:Base_00000131364609028902724910000014853129192567299498_" y="422.2" fill="#93CAA0" width="43.3" height="42.6"/>
	<path id="colorstyle:Base_00000016033432752332735120000018176716927202259096_" fill="#93CAA0" d="M260.4,464.7h43.3v-45.6
		c-12.7,2-25.6,3-38.7,3h-4.6V464.7z"/>
	
		<rect id="colorstyle:Base_00000127733415402657256980000005353826420029707196_" x="104.2" y="422.2" fill="#93CAA0" width="43.3" height="42.6"/>
	
		<rect id="colorstyle:Base_00000014598565265442866070000009411852007685660032_" x="52.1" y="422.2" fill="#93CAA0" width="43.3" height="42.6"/>
</g>
<g id="_x31_3_00000036952010184955965180000005716318008149251465_">
	<polygon id="colorstyle:Base_00000056404341765771317650000006562873532025009809_" fill="#93CAA0" points="668.2,220.1 625,246 
		625,340.8 668.2,314.6 	"/>
	<polygon id="colorstyle:Base_00000009548508076728980210000015842457027446896015_" fill="#93CAA0" points="616.1,251.3 
		572.9,277.3 572.9,372.4 616.1,346.2 	"/>
	<polygon id="colorstyle:Base_00000060011023055474483640000002878741951134813856_" fill="#93CAA0" points="564.1,282.5 
		520.8,308.5 520.8,403.9 564.1,377.7 	"/>
	<path id="colorstyle:Base_00000022535129670101096980000006925118405570937478_" fill="#93CAA0" d="M416.6,456.6
		c15.1-4,29.6-9.5,43.3-16.3V345l-43.3,25.9V456.6z"/>
	<polygon id="colorstyle:Base_00000140003539704646441530000018412038305873271724_" fill="#93CAA0" points="512,313.8 468.7,339.7 
		468.7,435.5 512,409.3 	"/>
	<path id="colorstyle:Base_00000049203481396113723400000000486281611012807596_" fill="#93CAA0" d="M355.7,404.7
		c-13.8,5.6-28.3,9.9-43.3,12.9v47.2h41.3c0.7,0,1.3,0,2,0V404.7z"/>
	
		<rect id="colorstyle:Base_00000178902150890809587690000003368665702828833462_" x="208.3" y="422.2" fill="#93CAA0" width="43.3" height="42.6"/>
	
		<rect id="colorstyle:Base_00000028295718441712996600000002384906816393874827_" x="156.2" y="422.2" fill="#93CAA0" width="43.3" height="42.6"/>
	<path id="colorstyle:Base_00000145767855823203948810000017316907785213226630_" fill="#93CAA0" d="M364.6,464.5
		c14.7-0.6,29.2-2.6,43.3-5.7v-82.5l-30.7,18.4c-4.1,2.2-8.3,4.3-12.6,6.3V464.5z"/>
	
		<rect id="colorstyle:Base_00000156582192696968716240000011727985804107732870_" y="422.2" fill="#93CAA0" width="43.3" height="42.6"/>
	<path id="colorstyle:Base_00000111909954347286103490000016278458979476726954_" fill="#93CAA0" d="M260.4,464.7h43.3v-45.6
		c-12.7,2-25.6,3-38.7,3h-4.6V464.7z"/>
	
		<rect id="colorstyle:Base_00000133522176009153850010000015100175638545009068_" x="104.2" y="422.2" fill="#93CAA0" width="43.3" height="42.6"/>
	
		<rect id="colorstyle:Base_00000097487633888863895690000009148488111223357620_" x="52.1" y="422.2" fill="#93CAA0" width="43.3" height="42.6"/>
</g>
<g id="_x31_4_00000013896610049967517810000017537563521199398037_">
	<polygon id="colorstyle:Base_00000092417742159349892860000015170914631881530029_" fill="#93CAA0" points="668.2,220.1 625,246 
		625,340.8 668.2,314.6 	"/>
	<polygon id="colorstyle:Base_00000152228488523245155010000010163690076169784725_" fill="#93CAA0" points="616.1,251.3 
		572.9,277.3 572.9,372.4 616.1,346.2 	"/>
	<polygon id="colorstyle:Base_00000060014717531597130810000002646313041262516885_" fill="#93CAA0" points="564.1,282.5 
		520.8,308.5 520.8,403.9 564.1,377.7 	"/>
	<path id="colorstyle:Base_00000070099572090057123940000010515566805990023611_" fill="#93CAA0" d="M416.6,456.6
		c15.1-4,29.6-9.5,43.3-16.3V345l-43.3,25.9V456.6z"/>
	<polygon id="colorstyle:Base_00000057836857505315368630000013094128062649301951_" fill="#93CAA0" points="512,313.8 468.7,339.7 
		468.7,435.5 512,409.3 	"/>
	<polygon id="colorstyle:Base_00000009590354695359580380000007271989837754447270_" fill="#93CAA0" points="720.3,188.9 677,214.8 
		677,309.3 720.3,283.1 	"/>
	<path id="colorstyle:Base_00000097462275870756493340000002030994440327376529_" fill="#93CAA0" d="M355.7,404.7
		c-13.8,5.6-28.3,9.9-43.3,12.9v47.2h41.3c0.7,0,1.3,0,2,0V404.7z"/>
	
		<rect id="colorstyle:Base_00000146490577856943208690000006913419419352699277_" x="208.3" y="422.2" fill="#93CAA0" width="43.3" height="42.6"/>
	
		<rect id="colorstyle:Base_00000138566177037407074170000015306449136398380679_" x="156.2" y="422.2" fill="#93CAA0" width="43.3" height="42.6"/>
	<path id="colorstyle:Base_00000111908875709964360610000000952272290497944486_" fill="#93CAA0" d="M364.6,464.5
		c14.7-0.6,29.2-2.6,43.3-5.7v-82.5l-30.7,18.4c-4.1,2.2-8.3,4.3-12.6,6.3V464.5z"/>
	
		<rect id="colorstyle:Base_00000040533410578813087170000002601144399162485390_" y="422.2" fill="#93CAA0" width="43.3" height="42.6"/>
	<path id="colorstyle:Base_00000011751318199122870070000011562908830755612060_" fill="#93CAA0" d="M260.4,464.7h43.3v-45.6
		c-12.7,2-25.6,3-38.7,3h-4.6V464.7z"/>
	
		<rect id="colorstyle:Base_00000077282680753772368870000013130122118277141168_" x="104.2" y="422.2" fill="#93CAA0" width="43.3" height="42.6"/>
	
		<rect id="colorstyle:Base_00000168825550353318537870000007883564181597602476_" x="52.1" y="422.2" fill="#93CAA0" width="43.3" height="42.6"/>
</g>
<g id="_x31_5_00000115478135903926871720000001405585108417338787_">
	<polygon id="colorstyle:Base_00000148645209924478463310000006429181776012648584_" fill="#93CAA0" points="668.2,220.1 625,246 
		625,340.8 668.2,314.6 	"/>
	<polygon id="colorstyle:Base_00000026164067515667465550000005889176705291360183_" fill="#93CAA0" points="772.4,157.7 
		729.1,183.6 729.1,277.7 772.4,251.5 	"/>
	<polygon id="colorstyle:Base_00000119838786409182706170000013429260783951094189_" fill="#93CAA0" points="616.1,251.3 
		572.9,277.3 572.9,372.4 616.1,346.2 	"/>
	<polygon id="colorstyle:Base_00000129163411718534035010000015357001629100568213_" fill="#93CAA0" points="564.1,282.5 
		520.8,308.5 520.8,403.9 564.1,377.7 	"/>
	<path id="colorstyle:Base_00000125581612471021153820000001095711972090109825_" fill="#93CAA0" d="M416.6,456.6
		c15.1-4,29.6-9.5,43.3-16.3V345l-43.3,25.9V456.6z"/>
	<polygon id="colorstyle:Base_00000059992427077342737440000010723494923144951725_" fill="#93CAA0" points="512,313.8 468.7,339.7 
		468.7,435.5 512,409.3 	"/>
	<polygon id="colorstyle:Base_00000140012702608751417950000016920050197805634946_" fill="#93CAA0" points="720.3,188.9 677,214.8 
		677,309.3 720.3,283.1 	"/>
	<path id="colorstyle:Base_00000054979852150007256680000000432429462895431065_" fill="#93CAA0" d="M355.7,404.7
		c-13.8,5.6-28.3,9.9-43.3,12.9v47.2h41.3c0.7,0,1.3,0,2,0V404.7z"/>
	
		<rect id="colorstyle:Base_00000117656550883801284790000013455988735810862215_" x="208.3" y="422.2" fill="#93CAA0" width="43.3" height="42.6"/>
	
		<rect id="colorstyle:Base_00000142877921877474409090000007169365254869731236_" x="156.2" y="422.2" fill="#93CAA0" width="43.3" height="42.6"/>
	<path id="colorstyle:Base_00000002345323403086532500000004487775586129495181_" fill="#93CAA0" d="M364.6,464.5
		c14.7-0.6,29.2-2.6,43.3-5.7v-82.5l-30.7,18.4c-4.1,2.2-8.3,4.3-12.6,6.3V464.5z"/>
	
		<rect id="colorstyle:Base_00000088103339445771027830000000670150844242169238_" y="422.2" fill="#93CAA0" width="43.3" height="42.6"/>
	<path id="colorstyle:Base_00000032626694371493197890000011663316859087819946_" fill="#93CAA0" d="M260.4,464.7h43.3v-45.6
		c-12.7,2-25.6,3-38.7,3h-4.6V464.7z"/>
	
		<rect id="colorstyle:Base_00000176016187196669155950000016999404880605478035_" x="104.2" y="422.2" fill="#93CAA0" width="43.3" height="42.6"/>
	
		<rect id="colorstyle:Base_00000093176706042823917300000011377529080163068838_" x="52.1" y="422.2" fill="#93CAA0" width="43.3" height="42.6"/>
</g>
<g id="_x31_6_00000005958157903091029730000004049782427410777991_">
	<polygon id="colorstyle:Base_00000043446906759450092790000013501823461783469221_" fill="#93CAA0" points="824.5,126.4 
		781.2,152.4 781.2,246.2 824.5,220 	"/>
	<polygon id="colorstyle:Base_00000134239339627619593580000011751812121057318057_" fill="#93CAA0" points="668.2,220.1 625,246 
		625,340.8 668.2,314.6 	"/>
	<polygon id="colorstyle:Base_00000030475063804928081580000006177657176093106083_" fill="#93CAA0" points="772.4,157.7 
		729.1,183.6 729.1,277.7 772.4,251.5 	"/>
	<polygon id="colorstyle:Base_00000015347729182390384220000003761424321562626466_" fill="#93CAA0" points="616.1,251.3 
		572.9,277.3 572.9,372.4 616.1,346.2 	"/>
	<polygon id="colorstyle:Base_00000171707829842934535350000017153084681369305517_" fill="#93CAA0" points="564.1,282.5 
		520.8,308.5 520.8,403.9 564.1,377.7 	"/>
	<path id="colorstyle:Base_00000029033782671811738280000017731884430285111741_" fill="#93CAA0" d="M416.6,456.6
		c15.1-4,29.6-9.5,43.3-16.3V345l-43.3,25.9V456.6z"/>
	<polygon id="colorstyle:Base_00000036959372269416944520000012529364031114167703_" fill="#93CAA0" points="512,313.8 468.7,339.7 
		468.7,435.5 512,409.3 	"/>
	<polygon id="colorstyle:Base_00000171692176893878297600000016318048926017825196_" fill="#93CAA0" points="720.3,188.9 677,214.8 
		677,309.3 720.3,283.1 	"/>
	<path id="colorstyle:Base_00000063610722588028965910000015316008103500849047_" fill="#93CAA0" d="M355.7,404.7
		c-13.8,5.6-28.3,9.9-43.3,12.9v47.2h41.3c0.7,0,1.3,0,2,0V404.7z"/>
	
		<rect id="colorstyle:Base_00000008863650173553119490000010115201665507529397_" x="208.3" y="422.2" fill="#93CAA0" width="43.3" height="42.6"/>
	
		<rect id="colorstyle:Base_00000129181283941936055370000015708442637044121231_" x="156.2" y="422.2" fill="#93CAA0" width="43.3" height="42.6"/>
	<path id="colorstyle:Base_00000132787370331256648620000018148094555901410193_" fill="#93CAA0" d="M364.6,464.5
		c14.7-0.6,29.2-2.6,43.3-5.7v-82.5l-30.7,18.4c-4.1,2.2-8.3,4.3-12.6,6.3V464.5z"/>
	
		<rect id="colorstyle:Base_00000079452479335252053840000010690449264575719322_" y="422.2" fill="#93CAA0" width="43.3" height="42.6"/>
	<path id="colorstyle:Base_00000134225327178715539850000006502906169983056054_" fill="#93CAA0" d="M260.4,464.7h43.3v-45.6
		c-12.7,2-25.6,3-38.7,3h-4.6V464.7z"/>
	
		<rect id="colorstyle:Base_00000088855427390250632900000012799268013923352208_" x="104.2" y="422.2" fill="#93CAA0" width="43.3" height="42.6"/>
	
		<rect id="colorstyle:Base_00000073723185828433531400000011995191998761535931_" x="52.1" y="422.2" fill="#93CAA0" width="43.3" height="42.6"/>
</g>
<g id="_x31_7_00000007423041392627842780000004250444124502142341_">
	<polygon id="colorstyle:Base_00000115491961529248151730000006144125239282376066_" fill="#93CAA0" points="824.5,126.4 
		781.2,152.4 781.2,246.2 824.5,220 	"/>
	<polygon id="colorstyle:Base_00000057835511900449301770000015089532688208338327_" fill="#93CAA0" points="668.2,220.1 625,246 
		625,340.8 668.2,314.6 	"/>
	<polygon id="colorstyle:Base_00000030451626611212771700000018270736875742543281_" fill="#93CAA0" points="772.4,157.7 
		729.1,183.6 729.1,277.7 772.4,251.5 	"/>
	<polygon id="colorstyle:Base_00000027575890858290127310000009875613877287675776_" fill="#93CAA0" points="616.1,251.3 
		572.9,277.3 572.9,372.4 616.1,346.2 	"/>
	<polygon id="colorstyle:Base_00000031176154499996931560000008353124325166976682_" fill="#93CAA0" points="564.1,282.5 
		520.8,308.5 520.8,403.9 564.1,377.7 	"/>
	<path id="colorstyle:Base_00000124138611178827158730000008243386356861429151_" fill="#93CAA0" d="M416.6,456.6
		c15.1-4,29.6-9.5,43.3-16.3V345l-43.3,25.9V456.6z"/>
	<polygon id="colorstyle:Base_00000183208949780884598090000016596137048483489428_" fill="#93CAA0" points="512,313.8 468.7,339.7 
		468.7,435.5 512,409.3 	"/>
	<polygon id="colorstyle:Base_00000146468629056074454440000002063638321665464508_" fill="#93CAA0" points="720.3,188.9 677,214.8 
		677,309.3 720.3,283.1 	"/>
	<path id="colorstyle:Base_00000083803796875006170030000003286325167297069732_" fill="#93CAA0" d="M355.7,404.7
		c-13.8,5.6-28.3,9.9-43.3,12.9v47.2h41.3c0.7,0,1.3,0,2,0V404.7z"/>
	
		<rect id="colorstyle:Base_00000049922627710124434410000012885686374196057009_" x="208.3" y="422.2" fill="#93CAA0" width="43.3" height="42.6"/>
	
		<rect id="colorstyle:Base_00000096034178933050936920000007931544853884524734_" x="156.2" y="422.2" fill="#93CAA0" width="43.3" height="42.6"/>
	<path id="colorstyle:Base_00000034079248071422176730000010375686401569931663_" fill="#93CAA0" d="M364.6,464.5
		c14.7-0.6,29.2-2.6,43.3-5.7v-82.5l-30.7,18.4c-4.1,2.2-8.3,4.3-12.6,6.3V464.5z"/>
	
		<rect id="colorstyle:Base_00000088100346100117597710000004017830725795037337_" y="422.2" fill="#93CAA0" width="43.3" height="42.6"/>
	<path id="colorstyle:Base_00000147189104716863044590000014866929835442286233_" fill="#93CAA0" d="M260.4,464.7h43.3v-45.6
		c-12.7,2-25.6,3-38.7,3h-4.6V464.7z"/>
	
		<rect id="colorstyle:Base_00000126318416329319830720000006068085930484588991_" x="104.2" y="422.2" fill="#93CAA0" width="43.3" height="42.6"/>
	
		<rect id="colorstyle:Base_00000079474468640742845800000011823551080418585738_" x="52.1" y="422.2" fill="#93CAA0" width="43.3" height="42.6"/>
	<path id="colorstyle:Critical_00000096764674103213244610000013367416494595226271_" fill="#F93838" d="M876.5,95.2l-43.3,25.9
		v93.5l4.3-2.6c11.6-7,25-10.8,38.6-10.8l0.4,0V95.2z"/>
</g>
<g id="_x31_8_00000124852137392843160230000007224351510539823796_">
	<polygon id="colorstyle:Base_00000034778283402280152040000017356932121417459342_" fill="#93CAA0" points="824.5,126.4 
		781.2,152.4 781.2,246.2 824.5,220 	"/>
	<polygon id="colorstyle:Base_00000155836315091631246250000018311201093171173551_" fill="#93CAA0" points="668.2,220.1 625,246 
		625,340.8 668.2,314.6 	"/>
	<polygon id="colorstyle:Base_00000077293885501852845640000018404953607453748108_" fill="#93CAA0" points="772.4,157.7 
		729.1,183.6 729.1,277.7 772.4,251.5 	"/>
	<polygon id="colorstyle:Base_00000151529632643947336910000000336642252316672941_" fill="#93CAA0" points="616.1,251.3 
		572.9,277.3 572.9,372.4 616.1,346.2 	"/>
	<polygon id="colorstyle:Base_00000058582025015002208440000008571395045628412076_" fill="#93CAA0" points="564.1,282.5 
		520.8,308.5 520.8,403.9 564.1,377.7 	"/>
	<path id="colorstyle:Base_00000013167961422564864790000011210276247854915495_" fill="#93CAA0" d="M416.6,456.6
		c15.1-4,29.6-9.5,43.3-16.3V345l-43.3,25.9V456.6z"/>
	<polygon id="colorstyle:Base_00000119822505573307282980000000704953252854345629_" fill="#93CAA0" points="512,313.8 468.7,339.7 
		468.7,435.5 512,409.3 	"/>
	<polygon id="colorstyle:Base_00000132787668868699864360000000688453841376252066_" fill="#93CAA0" points="720.3,188.9 677,214.8 
		677,309.3 720.3,283.1 	"/>
	<path id="colorstyle:Base_00000167353904336940548750000010636316749799854519_" fill="#93CAA0" d="M355.7,404.7
		c-13.8,5.6-28.3,9.9-43.3,12.9v47.2h41.3c0.7,0,1.3,0,2,0V404.7z"/>
	
		<rect id="colorstyle:Base_00000081631687309895493530000014539620523312305070_" x="208.3" y="422.2" fill="#93CAA0" width="43.3" height="42.6"/>
	
		<rect id="colorstyle:Base_00000023257881893242760790000008920119816653657998_" x="156.2" y="422.2" fill="#93CAA0" width="43.3" height="42.6"/>
	<path id="colorstyle:Base_00000018923276197988629010000003466854016605628544_" fill="#93CAA0" d="M364.6,464.5
		c14.7-0.6,29.2-2.6,43.3-5.7v-82.5l-30.7,18.4c-4.1,2.2-8.3,4.3-12.6,6.3V464.5z"/>
	
		<rect id="colorstyle:Base_00000043444112061890923340000004844715288115795877_" y="422.2" fill="#93CAA0" width="43.3" height="42.6"/>
	<path id="colorstyle:Base_00000006671399197272040860000009567984328454608792_" fill="#93CAA0" d="M260.4,464.7h43.3v-45.6
		c-12.7,2-25.6,3-38.7,3h-4.6V464.7z"/>
	
		<rect id="colorstyle:Base_00000052823894229845881160000010656915847997408954_" x="104.2" y="422.2" fill="#93CAA0" width="43.3" height="42.6"/>
	
		<rect id="colorstyle:Base_00000004522513584357579910000010308704098404690090_" x="52.1" y="422.2" fill="#93CAA0" width="43.3" height="42.6"/>
	<polygon id="colorstyle:Critical_00000087386390524329128170000014866654617362178724_" fill="#F93838" points="885.4,201.2 
		928.6,201.1 928.6,64 885.4,89.9 	"/>
	<path id="colorstyle:Critical_00000025434620937331190440000014071369924085015735_" fill="#F93838" d="M876.5,95.2l-43.3,25.9
		v93.5l4.3-2.6c11.6-7,25-10.8,38.6-10.8l0.4,0V95.2z"/>
</g>
<g id="_x31_9">
	<polygon id="colorstyle:Base_00000079456254784452631060000013306602392103676819_" fill="#93CAA0" points="824.5,126.4 
		781.2,152.4 781.2,246.2 824.5,220 	"/>
	<polygon id="colorstyle:Base_00000132782005958805916680000007573034428850735259_" fill="#93CAA0" points="668.2,220.1 625,246 
		625,340.8 668.2,314.6 	"/>
	<polygon id="colorstyle:Base_00000005959907547691561240000002924716652958541732_" fill="#93CAA0" points="772.4,157.7 
		729.1,183.6 729.1,277.7 772.4,251.5 	"/>
	<polygon id="colorstyle:Base_00000155127245005641055700000013244811847712699058_" fill="#93CAA0" points="616.1,251.3 
		572.9,277.3 572.9,372.4 616.1,346.2 	"/>
	<polygon id="colorstyle:Base_00000049182230957387887100000002188763903913383041_" fill="#93CAA0" points="564.1,282.5 
		520.8,308.5 520.8,403.9 564.1,377.7 	"/>
	<path id="colorstyle:Base_00000065055216226473737810000006035802248526335387_" fill="#93CAA0" d="M416.6,456.6
		c15.1-4,29.6-9.5,43.3-16.3V345l-43.3,25.9V456.6z"/>
	<polygon id="colorstyle:Base_00000046326225814850623450000014222565314706627757_" fill="#93CAA0" points="512,313.8 468.7,339.7 
		468.7,435.5 512,409.3 	"/>
	<polygon id="colorstyle:Base_00000170252089502520484400000012620955005965126073_" fill="#93CAA0" points="720.3,188.9 677,214.8 
		677,309.3 720.3,283.1 	"/>
	<path id="colorstyle:Base_00000054962124947675807860000007309113938934625460_" fill="#93CAA0" d="M355.7,404.7
		c-13.8,5.6-28.3,9.9-43.3,12.9v47.2h41.3c0.7,0,1.3,0,2,0V404.7z"/>
	
		<rect id="colorstyle:Base_00000121999649232437469430000017704388951752150925_" x="208.3" y="422.2" fill="#93CAA0" width="43.3" height="42.6"/>
	
		<rect id="colorstyle:Base_00000147209169540363269090000007387148360906123431_" x="156.2" y="422.2" fill="#93CAA0" width="43.3" height="42.6"/>
	<path id="colorstyle:Base_00000057870736279634668080000009938005075312554167_" fill="#93CAA0" d="M364.6,464.5
		c14.7-0.6,29.2-2.6,43.3-5.7v-82.5l-30.7,18.4c-4.1,2.2-8.3,4.3-12.6,6.3V464.5z"/>
	
		<rect id="colorstyle:Base_00000106136821518874061570000002129131156511979435_" y="422.2" fill="#93CAA0" width="43.3" height="42.6"/>
	<path id="colorstyle:Base_00000133498909983882520410000000330391152597328284_" fill="#93CAA0" d="M260.4,464.7h43.3v-45.6
		c-12.7,2-25.6,3-38.7,3h-4.6V464.7z"/>
	
		<rect id="colorstyle:Base_00000033331917408069961880000000138350717664824962_" x="104.2" y="422.2" fill="#93CAA0" width="43.3" height="42.6"/>
	<rect id="colorstyle:Base" x="52.1" y="422.2" fill="#93CAA0" width="43.3" height="42.6"/>
	<polygon id="colorstyle:Critical_00000088095515337142022960000004276614024006303675_" fill="#F93838" points="980.7,32.8 
		937.4,58.7 937.4,201 980.7,200.9 	"/>
	<polygon id="colorstyle:Critical_00000162310149708060957580000013950619413375567251_" fill="#F93838" points="885.4,201.2 
		928.6,201.1 928.6,64 885.4,89.9 	"/>
	<path id="colorstyle:Critical" fill="#F93838" d="M876.5,95.2l-43.3,25.9v93.5l4.3-2.6c11.6-7,25-10.8,38.6-10.8l0.4,0V95.2z"/>
</g>
<g id="_x32_0_00000042715840293496319640000015360330621253884596_">
	<polygon id="colorstyle:Base_00000039107493008668701760000006618391634829619642_" fill="#93CAA0" points="824.5,126.4 
		781.2,152.4 781.2,246.2 824.5,220 	"/>
	<polygon id="colorstyle:Base_00000028302619891740320150000013658709289378060439_" fill="#93CAA0" points="668.2,220.1 625,246 
		625,340.8 668.2,314.6 	"/>
	<polygon id="colorstyle:Base_00000057871196804259599390000003466549703803815614_" fill="#93CAA0" points="772.4,157.7 
		729.1,183.6 729.1,277.7 772.4,251.5 	"/>
	<polygon id="colorstyle:Base_00000123419624979599896200000009229358358124037530_" fill="#93CAA0" points="616.1,251.3 
		572.9,277.3 572.9,372.4 616.1,346.2 	"/>
	<polygon id="colorstyle:Base_00000089566553022304168630000004087678303243296403_" fill="#93CAA0" points="564.1,282.5 
		520.8,308.5 520.8,403.9 564.1,377.7 	"/>
	<path id="colorstyle:Base_00000151522343834841021480000001737573175561112193_" fill="#93CAA0" d="M416.6,456.6
		c15.1-4,29.6-9.5,43.3-16.3V345l-43.3,25.9V456.6z"/>
	<polygon id="colorstyle:Base_00000029743080281957774860000016899487965636648080_" fill="#93CAA0" points="512,313.8 468.7,339.7 
		468.7,435.5 512,409.3 	"/>
	<polygon id="colorstyle:Base_00000083052260212352830700000012460530745731299247_" fill="#93CAA0" points="720.3,188.9 677,214.8 
		677,309.3 720.3,283.1 	"/>
	<path id="colorstyle:Base_00000060002635226316981940000002690312342102867864_" fill="#93CAA0" d="M355.7,404.7
		c-13.8,5.6-28.3,9.9-43.3,12.9v47.2h41.3c0.7,0,1.3,0,2,0V404.7z"/>
	
		<rect id="colorstyle:Base_00000054240803671485074220000018332136509802075809_" x="208.3" y="422.2" fill="#93CAA0" width="43.3" height="42.6"/>
	
		<rect id="colorstyle:Base_00000055695094993079466830000011338706019625492907_" x="156.2" y="422.2" fill="#93CAA0" width="43.3" height="42.6"/>
	<path id="colorstyle:Base_00000158007924891253278110000007742763958215787143_" fill="#93CAA0" d="M364.6,464.5
		c14.7-0.6,29.2-2.6,43.3-5.7v-82.5l-30.7,18.4c-4.1,2.2-8.3,4.3-12.6,6.3V464.5z"/>
	
		<rect id="colorstyle:Base_00000000921959997525093110000014826439385066097823_" y="422.2" fill="#93CAA0" width="43.3" height="42.6"/>
	<path id="colorstyle:Base_00000042734286037754630390000015724645245968794301_" fill="#93CAA0" d="M260.4,464.7h43.3v-45.6
		c-12.7,2-25.6,3-38.7,3h-4.6V464.7z"/>
	
		<rect id="colorstyle:Base_00000147200072653148037620000003471564468795974539_" x="104.2" y="422.2" fill="#93CAA0" width="43.3" height="42.6"/>
	
		<rect id="colorstyle:Base_00000039854544757708216860000002680187222008184995_" x="52.1" y="422.2" fill="#93CAA0" width="43.3" height="42.6"/>
	<polygon id="colorstyle:Critical_00000036943535880873461670000006028213287971773346_" fill="#F93838" points="980.7,32.8 
		937.4,58.7 937.4,201 980.7,200.9 	"/>
	<polygon id="colorstyle:Critical_00000044177076746096326540000014836643787660344465_" fill="#F93838" points="885.4,201.2 
		928.6,201.1 928.6,64 885.4,89.9 	"/>
	<polygon id="colorstyle:Critical_00000102534973992777454420000004865914343349002405_" fill="#F93838" points="989.5,27.5 
		989.5,200.9 1035.3,200.8 1035.3,0 	"/>
	<path id="colorstyle:Critical_00000028310291061523147360000014874105534093639351_" fill="#F93838" d="M876.5,95.2l-43.3,25.9
		v93.5l4.3-2.6c11.6-7,25-10.8,38.6-10.8l0.4,0V95.2z"/>
</g>
</svg>
