<?xml version="1.0" encoding="utf-8"?>
<!-- Generator: Adobe Illustrator 29.3.1, SVG Export Plug-In . SVG Version: 9.03 Build 55982)  -->
<svg version="1.1" baseProfile="tiny" id="Layer_1" xmlns="http://www.w3.org/2000/svg" xmlns:xlink="http://www.w3.org/1999/xlink"
	 x="0px" y="0px" viewBox="0 0 1035.3 464.7" overflow="visible" xml:space="preserve">
<polygon fill="#FEF6AA" points="824.5,126.4 781.2,152.4 781.2,246.2 824.5,220 "/>
<polygon fill="#FEF6AA" points="668.2,220.1 625,246 625,340.8 668.2,314.6 "/>
<polygon fill="#FEF6AA" points="772.4,157.7 729.1,183.6 729.1,277.7 772.4,251.5 "/>
<polygon fill="#F93838" points="980.7,32.8 937.4,58.7 937.4,201 980.7,200.9 "/>
<polygon fill="#FEF6AA" points="616.1,251.3 572.9,277.3 572.9,372.4 616.1,346.2 "/>
<polygon fill="#FEF6AA" points="564.1,282.5 520.8,308.5 520.8,403.9 564.1,377.7 "/>
<polygon fill="#F93838" points="885.4,201.2 928.6,201.1 928.6,64 885.4,89.9 "/>
<path fill="#FEF6AA" d="M416.6,456.6c15.1-4,29.6-9.5,43.3-16.3V345l-43.3,25.9V456.6z"/>
<polygon fill="#FEF6AA" points="512,313.8 468.7,339.7 468.7,435.5 512,409.3 "/>
<polygon fill="#FEF6AA" points="720.3,188.9 677,214.8 677,309.3 720.3,283.1 "/>
<path fill="#FEF6AA" d="M355.7,404.7c-13.8,5.6-28.3,9.9-43.3,12.9v47.2h41.3c0.7,0,1.3,0,2,0V404.7z"/>
<rect x="208.3" y="422.2" fill="#FEF6AA" width="43.3" height="42.6"/>
<polygon fill="#F93838" points="989.5,27.5 989.5,200.9 1035.3,200.8 1035.3,0 "/>
<path fill="#F93838" d="M876.5,95.2l-43.3,25.9v93.5l4.3-2.6c11.6-7,25-10.8,38.6-10.8l0.4,0V95.2z"/>
<rect x="156.2" y="422.2" fill="#FEF6AA" width="43.3" height="42.6"/>
<path fill="#FEF6AA" d="M364.6,464.5c14.7-0.6,29.2-2.6,43.3-5.7v-82.5l-30.7,18.4c-4.1,2.2-8.3,4.3-12.6,6.3V464.5z"/>
<rect y="422.2" fill="#FEF6AA" width="43.3" height="42.6"/>
<path fill="#FEF6AA" d="M260.4,464.7h43.3v-45.6c-12.7,2-25.6,3-38.7,3h-4.6V464.7z"/>
<rect x="104.2" y="422.2" fill="#FEF6AA" width="43.3" height="42.6"/>
<rect x="52.1" y="422.2" fill="#FEF6AA" width="43.3" height="42.6"/>
</svg>
