<?xml version="1.0" encoding="utf-8"?>
<!-- Generator: Adobe Illustrator 27.8.0, SVG Export Plug-In . SVG Version: 6.00 Build 0)  -->
<svg version="1.1" baseProfile="tiny" id="Layer_1" xmlns="http://www.w3.org/2000/svg" xmlns:xlink="http://www.w3.org/1999/xlink"
	 x="0px" y="0px" viewBox="0 0 58.8 58.8" overflow="visible" xml:space="preserve">
<g>
	<path fill="#E95813" d="M29.4,58.8c-1.6,0-3.2-0.6-4.5-1.9L1.9,33.9C0.7,32.7,0,31.1,0,29.4c0-1.7,0.7-3.3,1.9-4.5L24.9,1.9
		C26.1,0.7,27.7,0,29.4,0c1.7,0,3.3,0.7,4.5,1.9L57,24.9c2.5,2.5,2.5,6.5,0,9L33.9,57C32.7,58.2,31,58.8,29.4,58.8z M27.8,54.2
		c0.9,0.9,2.4,0.9,3.3,0l23.1-23.1c0.9-0.9,0.9-2.4,0-3.3L31.1,4.7c-0.9-0.9-2.4-0.9-3.3,0L4.7,27.8c-0.4,0.4-0.7,1-0.7,1.6
		s0.2,1.2,0.7,1.6L27.8,54.2z"/>
</g>
<circle fill="#E9DDD6" cx="29.4" cy="29.4" r="7.9"/>
</svg>
