<?xml version="1.0" encoding="utf-8"?>
<!-- Generator: Adobe Illustrator 27.8.0, SVG Export Plug-In . SVG Version: 6.00 Build 0)  -->
<svg version="1.1" baseProfile="tiny" id="Layer_1" xmlns="http://www.w3.org/2000/svg" xmlns:xlink="http://www.w3.org/1999/xlink"
	 x="0px" y="0px" viewBox="0 0 640 640" overflow="visible" xml:space="preserve">
<path id="opacity:100" fill="#FF9D7A" d="M319.5,438.2c-3.3,0-6.6-0.1-9.9-0.4c-1.1-0.1-2-1.1-1.9-2.2c0.1-1.1,1.1-2,2.2-1.9
	c3.2,0.3,6.4,0.4,9.6,0.4c20.1,0,39.8-5.3,57.1-15.3c1-0.6,2.3-0.2,2.8,0.8s0.2,2.3-0.8,2.8C360.8,432.7,340.4,438.2,319.5,438.2z
	 M261.5,422.7c-0.4,0-0.7-0.1-1-0.3c-21-12.1-37.6-30.1-47.9-52.1c-0.5-1,0-2.3,1-2.8c1-0.5,2.3,0,2.8,1c10,21.2,26,38.5,46.3,50.3
	c1,0.6,1.3,1.8,0.8,2.8C262.9,422.3,262.2,422.7,261.5,422.7z M414.9,388.4c-0.4,0-0.8-0.1-1.2-0.4c-0.9-0.7-1.2-1.9-0.5-2.9
	c13.4-19.2,20.4-41.7,20.4-65.2v-0.3c0-1.1,0.9-2.1,2.1-2.1s2.1,0.9,2.1,2.1v0.3c0,24.3-7.3,47.7-21.2,67.5
	C416.2,388,415.6,388.4,414.9,388.4z M203.4,322.1c-1.1,0-2.1-0.9-2.1-2.1l0-0.1c0-24.3,7.3-47.6,21.1-67.5c0.7-0.9,1.9-1.2,2.9-0.5
	c0.9,0.7,1.2,1.9,0.5,2.9c-13.3,19.1-20.3,41.6-20.3,65.1l0,0.1C205.4,321.2,204.5,322.1,203.4,322.1z M424.6,272.4
	c-0.8,0-1.5-0.4-1.9-1.2c-10-21.1-26-38.5-46.3-50.2c-1-0.6-1.3-1.8-0.8-2.8c0.6-1,1.8-1.3,2.8-0.8c21,12.1,37.6,30.1,48,52
	c0.5,1,0,2.3-1,2.8C425.2,272.3,424.9,272.4,424.6,272.4z M261.3,221.5c-0.7,0-1.4-0.4-1.8-1c-0.6-1-0.2-2.3,0.8-2.8
	c17.9-10.4,38.4-15.9,59.3-15.9c0,0,0,0,0,0c3.3,0,6.5,0.1,9.8,0.4c1.1,0.1,2,1.1,1.9,2.2c-0.1,1.1-1.1,2-2.2,1.9
	c-3.1-0.3-6.3-0.4-9.4-0.4c-20.1,0-39.9,5.3-57.2,15.4C262,221.4,261.7,221.5,261.3,221.5z"/>
<path id="opacity:20" fill="#FF9D7A" d="M319.5,240.4c43.9,0,79.6,35.7,79.6,79.6s-35.7,79.6-79.6,79.6S240,363.8,240,319.9
	S275.7,240.4,319.5,240.4 M319.5,219.3c-55.6,0-100.6,45-100.6,100.6c0,55.6,45,100.6,100.6,100.6c55.6,0,100.6-45,100.6-100.6
	C420.2,264.4,375.1,219.3,319.5,219.3L319.5,219.3z"/>
</svg>
