<?xml version="1.0" encoding="utf-8"?>
<!-- Generator: Adobe Illustrator 25.4.1, SVG Export Plug-In . SVG Version: 6.00 Build 0)  -->
<svg version="1.1" baseProfile="tiny" id="Layer_1" xmlns="http://www.w3.org/2000/svg" xmlns:xlink="http://www.w3.org/1999/xlink"
	 x="0px" y="0px" width="25px" height="25px" viewBox="0 0 25 25" overflow="visible" xml:space="preserve">
<path d="M18.1,13.6l-4.9,3.6c-0.4,0.3-0.9,0.3-1.2,0l-4.9-3.6c-0.6-0.4-0.6-1.3,0-1.7l4.9-3.6c0.4-0.3,0.9-0.3,1.2,0l4.9,3.6
	C18.6,12.4,18.6,13.2,18.1,13.6z"/>
<path d="M12.5,5.5c0.3,0,0.6,0.1,0.8,0.3l8.1,5.8c0.4,0.3,0.6,0.7,0.6,1.1c0,0.4-0.2,0.8-0.6,1.1l-8.1,5.8c-0.2,0.2-0.5,0.3-0.8,0.3
	s-0.6-0.1-0.8-0.3l-8.1-5.8C3.2,13.5,3,13.1,3,12.6c0-0.4,0.2-0.8,0.6-1.1l8.1-5.8C11.9,5.5,12.2,5.5,12.5,5.5 M12.5,3.4
	c-0.7,0-1.4,0.2-2,0.6L2.4,9.9c-1.9,1.4-1.9,4.2,0,5.5l8.1,5.8c0.6,0.4,1.3,0.6,2,0.6c0.7,0,1.4-0.2,2-0.6l8.1-5.8
	c1.9-1.4,1.9-4.2,0-5.5l-8.1-5.8C13.9,3.6,13.2,3.4,12.5,3.4L12.5,3.4z"/>
</svg>
