<?xml version="1.0" encoding="iso-8859-1"?>
<!-- Generator: Adobe Illustrator 27.5.0, SVG Export Plug-In . SVG Version: 6.00 Build 0)  -->
<svg version="1.1" baseProfile="tiny" id="Layer_1" xmlns="http://www.w3.org/2000/svg" xmlns:xlink="http://www.w3.org/1999/xlink"
	 x="0px" y="0px" width="108.083px" height="36.22px" viewBox="0 0 108.083 36.22" overflow="visible" xml:space="preserve">
<path fill="#6EB8C7" d="M104.298,1c1.536,0,2.785,1.25,2.785,2.785v27.836c0,1.586-1.311,3.598-2.785,3.598H26.532
	c-1.755,0-2.119-0.185-5.591-2.854L1.397,18.361C1.135,18.167,1.002,17.936,1,17.676c-0.002-0.356,0.231-0.747,0.589-1.021
	L20.949,3.154C23.442,1.333,24.785,1,26.532,1H104.298 M104.298,0H26.532c-2.091,0-3.619,0.481-6.173,2.347L1.018,15.834
	c-1.198,0.911-1.423,2.435-0.216,3.33l19.557,14.014c3.481,2.677,4.083,3.041,6.173,3.041h77.766c2.091,0,3.785-2.508,3.785-4.598
	V3.785C108.083,1.695,106.389,0,104.298,0L104.298,0z"/>
</svg>
