<?xml version="1.0" encoding="iso-8859-1"?>
<!-- Generator: Adobe Illustrator 27.5.0, SVG Export Plug-In . SVG Version: 6.00 Build 0)  -->
<svg version="1.1" baseProfile="tiny" id="Layer_1" xmlns="http://www.w3.org/2000/svg" xmlns:xlink="http://www.w3.org/1999/xlink"
	 x="0px" y="0px" width="22.575px" height="44.3px" viewBox="0 0 22.575 44.3" overflow="visible" xml:space="preserve">
<g>
	<g>
		<path fill="#79C0CE" d="M18.4,38.4l-3.5,2.5c-0.3,0.2-0.6,0.2-0.9,0l-3.5-2.5c-0.4-0.3-0.4-0.9,0-1.2l3.5-2.5
			c0.3-0.2,0.6-0.2,0.9,0l3.5,2.5C18.8,37.5,18.8,38.1,18.4,38.4z"/>
		<path fill="#79C0CE" d="M14.4,32.7c0.2,0,0.4,0.1,0.6,0.2l5.8,4.1c0.3,0.2,0.4,0.5,0.4,0.8s-0.1,0.6-0.4,0.8L15,42.7
			c-0.2,0.1-0.4,0.2-0.6,0.2s-0.4-0.1-0.6-0.2L8,38.6c-0.3-0.2-0.4-0.5-0.4-0.8S7.7,37.2,8,37l5.8-4.1C14,32.7,14.2,32.7,14.4,32.7
			 M14.4,31.2c-0.5,0-1,0.2-1.4,0.5l-5.8,4.1c-1.3,1-1.3,3,0,3.9l5.8,4.1c0.4,0.3,0.9,0.5,1.4,0.5s1-0.2,1.4-0.5l5.8-4.1
			c1.3-1,1.3-3,0-3.9l-5.8-4.1C15.4,31.4,14.9,31.2,14.4,31.2L14.4,31.2z"/>
	</g>
	<path fill="#BFE1DE" d="M3.3,35.2c0,0-0.7-0.5-2-1.5S0,32,0,30.6c0-0.3,0-0.6,0-1V0h1v29.7c0,0.4,0,0.7,0,1C1,32,1,32.3,1.9,33
		c1.3,1,2,1.4,2,1.4L3.3,35.2z"/>
</g>
</svg>
