<?xml version="1.0" encoding="utf-8"?>
<!-- Generator: Adobe Illustrator 27.4.0, SVG Export Plug-In . SVG Version: 6.00 Build 0)  -->
<svg version="1.1" baseProfile="tiny" id="Layer_1" xmlns="http://www.w3.org/2000/svg" xmlns:xlink="http://www.w3.org/1999/xlink"
	 x="0px" y="0px" viewBox="0 0 24 19.2" overflow="visible" xml:space="preserve">
<path fill="#79C0CE" d="M18.3,10.6l-5.6,4c-0.4,0.3-1,0.3-1.4,0l-5.6-4C5,10.1,5,9.1,5.7,8.7l5.6-4c0.4-0.3,1-0.3,1.4,0l5.6,4
	C19,9.1,19,10.1,18.3,10.6z"/>
<path fill="#79C0CE" d="M12,1.8c0.4,0,0.7,0.1,1,0.3l8.5,6.1c0.5,0.3,0.7,0.8,0.7,1.4c0,0.6-0.3,1.1-0.7,1.4L13,17.1
	c-0.3,0.2-0.6,0.3-1,0.3s-0.7-0.1-1-0.3L2.5,11c-0.5-0.3-0.7-0.8-0.7-1.4c0-0.6,0.3-1.1,0.7-1.4L11,2.1C11.3,1.9,11.6,1.8,12,1.8
	 M12,0c-0.7,0-1.4,0.2-2.1,0.7L1.5,6.7c-2,1.4-2,4.3,0,5.8l8.5,6.1c0.6,0.4,1.3,0.7,2.1,0.7s1.4-0.2,2.1-0.7l8.5-6.1
	c2-1.4,2-4.3,0-5.8l-8.5-6.1C13.4,0.2,12.7,0,12,0L12,0z"/>
</svg>
