<?xml version="1.0" encoding="utf-8"?>
<!-- Generator: Adobe Illustrator 26.0.1, SVG Export Plug-In . SVG Version: 6.00 Build 0)  -->
<svg version="1.1" baseProfile="tiny" id="Layer_1" xmlns="http://www.w3.org/2000/svg" xmlns:xlink="http://www.w3.org/1999/xlink"
	 x="0px" y="0px" viewBox="0 0 1920 1080" overflow="visible" xml:space="preserve">
<g>
	<path fill="#FFFFFF" d="M542.9,354.3h17.4c21.2,0,28.5,5.9,28.5,27.2c0,19.9-7.5,28-25.8,28h-6.2v39.4h-14V354.3z M561.5,397.3
		c10.5,0,13.1-4.4,13.1-16.5c0-10.2-3.3-14.5-12.4-14.5h-5.2v31H561.5z"/>
	<path fill="#FFFFFF" d="M603.8,354.3h15.4c21.5,0,28.8,6.2,28.8,27.6c0,12.4-3.3,20.2-11,24.2l12.4,42.8h-14.4L624,409.1h-6.2v39.8
		h-14V354.3z M621.3,397c9.7,0,12.6-3.9,12.6-15.8c0-10.6-2.7-14.8-11.4-14.8h-4.6V397H621.3z"/>
	<path fill="#FFFFFF" d="M687.5,352.5c16.6,0,22.8,10.9,22.8,33.8V417c0,22.9-6,33.8-22.8,33.8s-22.8-10.9-22.8-33.8v-30.8
		C664.7,363.3,670.7,352.5,687.5,352.5z M679,424.4c0,9.6,2.4,14.3,8.5,14.3s8.5-4.7,8.5-14.3v-45.7c0-9.6-2.4-14.3-8.5-14.3
		s-8.5,4.7-8.5,14.3V424.4z"/>
	<path fill="#FFFFFF" d="M724.2,354.3h13.5l6.4,48.8c1.7,12.6,3,23.9,3.7,34.5c0.9-14.4,2-25.9,3-34.7l6.2-48.7h13.7l-16,94.6h-14
		L724.2,354.3z"/>
	<rect x="785" y="354.3" fill="#FFFFFF" width="14" height="94.6"/>
	<path fill="#FFFFFF" d="M820.2,354.3h14.9c21.5,0,29.3,5.8,29.3,26.6v42.3c0,17.8-7.1,25.8-23.7,25.8h-20.5V354.3z M838.1,436.6
		c9,0,12-5,12-16.9v-39.4c0-10.5-2.6-14-11.9-14h-4.1v70.3H838.1z"/>
	<polygon fill="#FFFFFF" points="884.4,354.3 921.8,354.3 921.8,367 898.4,367 898.4,393.2 916.7,393.2 916.7,406.1 898.4,406.1 
		898.4,436.2 924.1,436.2 924.1,448.9 884.4,448.9 	"/>
	<path fill="#FFFFFF" d="M937.9,354.3h13.5l21.2,73c-2.4-22.8-3.4-44.8-3.4-66.1c0-2.2,0-4.6,0-6.9h12.6v94.6H970l-23.2-80.5
		c2.2,26.3,3.4,53.1,3.7,80.5h-12.6V354.3z"/>
	<path fill="#FFFFFF" d="M1024.7,450.7c-16.8,0-22.8-10.9-22.8-33.8v-30.8c0-22.9,6-33.8,22.8-33.8c14.8,0,22.8,9.9,22.8,29.1v4.7
		h-14.3v-7.5c0-9.6-2.4-14.3-8.5-14.3s-8.5,4.7-8.5,14.3v45.7c0,9.6,2.4,14.3,8.5,14.3s8.5-4.7,8.5-14.3v-9h14.3v6
		C1047.4,440.7,1039.6,450.7,1024.7,450.7z"/>
	<polygon fill="#FFFFFF" points="1064.3,354.3 1101.8,354.3 1101.8,367 1078.3,367 1078.3,393.2 1096.6,393.2 1096.6,406.1 
		1078.3,406.1 1078.3,436.2 1104,436.2 1104,448.9 1064.3,448.9 	"/>
	<path fill="#FFFFFF" d="M1187.6,422.3c0,0.3,0,0.5,0,0.8c0,10.2,2.6,15.4,8,15.4c4.6,0,7.3-3.7,7.3-10.5c0-4.8-1.8-9.2-5.4-14
		c-6.8-9.2-13.7-16-17.4-22.6c-3.3-6-4.8-11.5-4.8-16.5c0-14.1,7.9-22.6,19.8-22.6c12.3,0,19.9,8.5,20.4,23.7l-12.7,1.6
		c-0.4-8.8-2.6-13-7.7-13c-3.5,0-6.3,3.4-6.3,8.8c0,4.3,2.2,9.9,6.7,15.6c6,7.5,11.5,13.9,15.3,19.8s5.6,12.2,5.6,19.4
		c0,13.5-8.6,22.6-20.8,22.6c-12.6,0-20.3-9.3-21.3-26.4L1187.6,422.3z"/>
	<path fill="#FFFFFF" d="M1231.8,354.3h14v68.8c0,9.8,2,14.5,7.9,14.5s7.9-4.7,7.9-14.5v-68.8h13.9v65c0,21.5-5.2,31.3-21.7,31.3
		s-21.9-9.8-21.9-31.3V354.3z"/>
	<path fill="#FFFFFF" d="M1296.6,354.3h15.4c21.5,0,28.8,6.2,28.8,27.6c0,12.4-3.3,20.2-11,24.2l12.4,42.8h-14.4l-11.1-39.8h-6.2
		v39.8h-14V354.3z M1314,397c9.7,0,12.6-3.9,12.6-15.8c0-10.6-2.7-14.8-11.4-14.8h-4.6V397H1314z"/>
	<path fill="#FFFFFF" d="M1358.5,354.3h17.4c21.2,0,28.5,5.9,28.5,27.2c0,19.9-7.5,28-25.8,28h-6.2v39.4h-14V354.3z M1377.1,397.3
		c10.5,0,13.1-4.4,13.1-16.5c0-10.2-3.3-14.5-12.4-14.5h-5.2v31H1377.1z"/>
	<polygon fill="#FFFFFF" points="1419.5,354.3 1433.5,354.3 1433.5,435.8 1459.1,435.8 1459.1,448.9 1419.5,448.9 	"/>
	<path fill="#FFFFFF" d="M1471.9,354.3h14v68.8c0,9.8,2,14.5,7.9,14.5s7.9-4.7,7.9-14.5v-68.8h13.9v65c0,21.5-5.2,31.3-21.7,31.3
		s-21.9-9.8-21.9-31.3V354.3z"/>
	<path fill="#FFFFFF" d="M1544.9,422.3c0,0.3,0,0.5,0,0.8c0,10.2,2.6,15.4,8,15.4c4.6,0,7.3-3.7,7.3-10.5c0-4.8-1.8-9.2-5.4-14
		c-6.8-9.2-13.7-16-17.4-22.6c-3.3-6-4.8-11.5-4.8-16.5c0-14.1,7.9-22.6,19.8-22.6c12.3,0,19.9,8.5,20.4,23.7l-12.7,1.6
		c-0.4-8.8-2.6-13-7.7-13c-3.5,0-6.3,3.4-6.3,8.8c0,4.3,2.2,9.9,6.7,15.6c6,7.5,11.5,13.9,15.3,19.8s5.6,12.2,5.6,19.4
		c0,13.5-8.6,22.6-20.8,22.6c-12.6,0-20.3-9.3-21.3-26.4L1544.9,422.3z"/>
	<path fill="#CDCDCD" d="M569.1,571.3c-3.1,2.1-6.2,3-10,3c-13.1,0-17.9-8.5-17.9-26.5v-24.1c0-18,4.7-26.5,17.9-26.5
		c13,0,17.9,8.5,17.9,26.5v24.1c0,8.2-0.6,14-2.5,17.4c1.1,1.7,2.9,2.7,5.2,3.2v9.8C574.9,577.7,571.3,575.6,569.1,571.3z
		 M558.7,547.1c2.9,0.6,5.1,2.6,7.2,6v-35.3c0-7.5-1.8-11.2-6.7-11.2c-4.8,0-6.7,3.7-6.7,11.2v35.9c0,7.5,1.8,11.2,6.7,11.2
		c1.8,0,3.3-0.8,4.6-2.3c-0.6-2.5-2.5-4.4-5.1-5.4V547.1z"/>
	<path fill="#CDCDCD" d="M592.3,498.5h11v54c0,7.7,1.5,11.4,6.2,11.4c4.6,0,6.2-3.7,6.2-11.4v-54h10.9v51.1
		c0,16.8-4.1,24.5-17.1,24.5c-12.9,0-17.2-7.7-17.2-24.5V498.5z"/>
	<path fill="#CDCDCD" d="M647.1,498.5h14.3l11.4,74.3h-11.2l-1.8-15h-11l-1.7,15h-10.8L647.1,498.5z M658.7,547.9l-4.1-43.1h-0.5
		l-4.3,43.1H658.7z"/>
	<polygon fill="#CDCDCD" points="683.5,498.5 694.5,498.5 694.5,562.5 714.6,562.5 714.6,572.8 683.5,572.8 	"/>
	<rect x="724" y="498.5" fill="#CDCDCD" width="11" height="74.3"/>
	<polygon fill="#CDCDCD" points="755.8,508 745.6,508 745.6,498.5 776.9,498.5 776.9,508 766.8,508 766.8,572.8 755.8,572.8 	"/>
	<polygon fill="#CDCDCD" points="793.8,542.4 781,498.5 792.6,498.5 799.5,532.1 806.7,498.5 817.7,498.5 804.8,542.5 804.8,572.8 
		793.8,572.8 	"/>
	<path fill="#CDCDCD" d="M904.8,572.8l-2.7-5.4c-3,4.1-7.2,6.3-12.1,6.3c-11.2,0-15.7-8.4-15.7-25.9v-24.1c0-18,4.7-26.5,17.9-26.5
		c11.6,0,17.9,7.8,17.9,22.8v2.7h-11.2v-4.8c0-7.5-1.8-11.2-6.7-11.2c-4.8,0-6.7,3.7-6.7,11.2v35.4c0,7.5,1.8,11.2,6.7,11.2
		c4.8,0,6.7-3.7,6.7-11.2v-8.6H893v-9.2h17.1v37.5H904.8z"/>
	<polygon fill="#CDCDCD" points="925,498.5 954.3,498.5 954.3,508.5 935.9,508.5 935.9,529 950.3,529 950.3,539.2 935.9,539.2 
		935.9,562.8 956.1,562.8 956.1,572.8 925,572.8 	"/>
	<path fill="#CDCDCD" d="M973,498.5h14.3l11.4,74.3h-11.2l-1.8-15h-11l-1.7,15h-10.8L973,498.5z M984.6,547.9l-4.1-43.1H980
		l-4.3,43.1H984.6z"/>
	<path fill="#CDCDCD" d="M1009.4,498.5h12.1c16.8,0,22.6,4.8,22.6,21.7c0,9.8-2.6,15.8-8.6,19l9.8,33.6h-11.3l-8.7-31.2h-4.8v31.2
		h-11V498.5z M1023,532c7.6,0,9.9-3.1,9.9-12.4c0-8.3-2.2-11.6-8.9-11.6h-3.6v24H1023z"/>
	<path fill="#CDCDCD" d="M1108,574c-10.4,0-16.3-6.9-16.3-18.7c0-7.6,2.9-13.7,8.8-19.9c-3.9-7.8-5.8-15.1-5.8-21.1
		c0-10.4,5.6-17.1,14.4-17.1c8.5,0,14.1,6.1,14.1,15.5c0,6.8-4.1,14-11.7,23.3c1.8,4.4,4.5,9.7,8.3,15.5c1-4.2,1.7-8.6,2.3-13.3
		l9.6,2c-1.1,8.5-3.1,15-5.7,19.4c1.5,1.7,3.3,3.2,5.4,4.3v10.4c-4.6-0.6-8.4-2.9-11.3-6.7C1117.4,571.8,1113,574,1108,574z
		 M1104.5,543.8c-2,3.9-3,7.4-3,10.5c0,5.9,3.2,9.7,7.1,9.7c2.1,0,3.7-0.9,5.3-3C1109.9,555.9,1106.9,550.2,1104.5,543.8z
		 M1113.2,511.4c0-3.9-1.4-6.1-3.9-6.1c-3.2,0-4.9,3-4.9,8.8c0,4,0.9,8.7,2.6,14.1C1110.7,521.6,1113.2,516.5,1113.2,511.4z"/>
	<path fill="#CDCDCD" d="M1190.4,498.5h10l4.2,38.9c0.2,1.8,0.5,10.2,1.4,25.2c0.4-9,1.3-17.5,2.2-25.4l4.3-38.7h9.2l5,38.3
		c0.4,2.9,1.2,11.4,2.4,25.8c0.4-11.8,1-20.4,1.5-25.8l3.9-38.3h9.8l-10.2,74.3h-9.7l-5-37.7c-1.1-8.4-1.7-17.5-2.2-27.3
		c-1.1,15.5-2,24.7-2.3,27.4l-4.5,37.6h-9.3L1190.4,498.5z"/>
	<path fill="#CDCDCD" d="M1271.3,497.1c13,0,17.9,8.5,17.9,26.5v24.1c0,18-4.7,26.5-17.9,26.5s-17.9-8.5-17.9-26.5v-24.1
		C1253.4,505.6,1258.2,497.1,1271.3,497.1z M1264.6,553.6c0,7.5,1.8,11.2,6.7,11.2c4.8,0,6.7-3.7,6.7-11.2v-35.9
		c0-7.5-1.8-11.2-6.7-11.2c-4.8,0-6.7,3.7-6.7,11.2V553.6z"/>
	<path fill="#CDCDCD" d="M1304.4,498.5h12.1c16.8,0,22.6,4.8,22.6,21.7c0,9.8-2.6,15.8-8.6,19l9.8,33.6h-11.3l-8.7-31.2h-4.8v31.2
		h-11V498.5z M1318,532c7.6,0,9.9-3.1,9.9-12.4c0-8.3-2.2-11.6-8.9-11.6h-3.6v24H1318z"/>
	<polygon fill="#CDCDCD" points="1352.4,498.5 1363.3,498.5 1363.3,529.5 1375.1,498.5 1385.9,498.5 1374.6,525 1387.3,572.8 
		1376.2,572.8 1366.8,535.1 1363.3,542.9 1363.3,572.8 1352.4,572.8 	"/>
	<path fill="#CDCDCD" d="M1391.3,498.5h10l4.2,38.9c0.2,1.8,0.5,10.2,1.4,25.2c0.4-9,1.3-17.5,2.2-25.4l4.3-38.7h9.2l5,38.3
		c0.4,2.9,1.2,11.4,2.4,25.8c0.4-11.8,1-20.4,1.5-25.8l3.9-38.3h9.8l-10.2,74.3h-9.7l-5-37.7c-1.1-8.4-1.7-17.5-2.2-27.3
		c-1.1,15.5-2,24.7-2.3,27.4l-4.5,37.6h-9.3L1391.3,498.5z"/>
	<polygon fill="#CDCDCD" points="1455.2,498.5 1484.5,498.5 1484.5,508.5 1466.2,508.5 1466.2,529 1480.5,529 1480.5,539.2 
		1466.2,539.2 1466.2,562.8 1486.3,562.8 1486.3,572.8 1455.2,572.8 	"/>
	<path fill="#CDCDCD" d="M1503.2,498.5h14.3l11.4,74.3h-11.2l-1.8-15h-11l-1.7,15h-10.8L1503.2,498.5z M1514.9,547.9l-4.1-43.1h-0.5
		l-4.3,43.1H1514.9z"/>
	<path fill="#CDCDCD" d="M1539.6,498.5h12.1c16.8,0,22.6,4.8,22.6,21.7c0,9.8-2.6,15.8-8.6,19l9.8,33.6h-11.3l-8.7-31.2h-4.8v31.2
		h-11V498.5z M1553.3,532c7.6,0,9.9-3.1,9.9-12.4c0-8.3-2.2-11.6-8.9-11.6h-3.6v24H1553.3z"/>
	<rect x="542.5" y="471.2" fill="#CDCDCD" width="1031.9" height="8.5"/>
	<path fill="#FFFFFF" d="M420.5,441.3c-6.3,0-12.5,0.8-18.5,2.1v37.2v12.2v59.5c5.4,3.3,11.7,5.3,18.5,5.3c5.7,0,11.2-1.4,16.1-4
		v-62.1v-11.7V443C431.4,441.9,426,441.3,420.5,441.3z"/>
	<path fill="#B3B3B3" d="M479.1,410.8h-50.3v-54.4c2.9-2.6,4.7-6.3,4.7-10.6c0-7.8-6.3-14.2-14.2-14.2c-7.8,0-14.2,6.3-14.2,14.2
		c0,4.2,1.8,7.9,4.7,10.6v54.4h-50.3l23.9,14.9h18.5v6.7c6-1.2,12.2-1.9,18.5-1.9c5.5,0,10.9,0.5,16.1,1.4v-6.2h18.5L479.1,410.8z"
		/>
	<path fill="#005FC5" d="M462.2,541.2c-7.2,15.9-23.2,27-41.8,27c-25.3,0-45.8-20.5-45.8-45.8c0-14.2,6.5-26.9,16.6-35.3v-40.4
		c-30.4,11.7-52,41.2-52,75.7c0,44.8,36.4,81.2,81.2,81.2c38.3,0,70.5-26.6,79-62.3L462.2,541.2L462.2,541.2z"/>
	<path fill="#005FC5" d="M447.3,485.2c6.5,4.7,11.7,11,15,18.3h37.2c-6.4-27-26.3-48.7-52.1-57.8V485.2z"/>
</g>
</svg>
