<?xml version="1.0" encoding="utf-8"?>
<!-- Generator: Adobe Illustrator 26.0.1, SVG Export Plug-In . SVG Version: 6.00 Build 0)  -->
<svg version="1.1" baseProfile="tiny" id="Layer_1" xmlns="http://www.w3.org/2000/svg" xmlns:xlink="http://www.w3.org/1999/xlink"
	 x="0px" y="0px" viewBox="0 0 1920 1080" overflow="visible" xml:space="preserve">
<g>
	<path fill="none" stroke="#003768" stroke-width="2.1455" stroke-miterlimit="10" d="M211.5,277.2c0,0-49.8,105.9-77.1,268.2
		c-2.3,13.7-3.3,34.5-2.9,48.4c1.2,37.2,6,113.8,24.5,237.9"/>
	<path fill="none" stroke="#003768" stroke-width="2.1455" stroke-miterlimit="10" d="M627.2,277.2c0,0,49.8,105.9,77.1,268.2
		c2.3,13.7,3.3,34.5,2.9,48.4c-1.2,37.2-6,113.8-24.5,237.9"/>
	<path fill="none" stroke="#003768" stroke-width="6.5641" stroke-miterlimit="10" d="M228.2,852.1c0-11.2,85.6-20.3,191.1-20.3
		s191.1,9.1,191.1,20.3"/>
	<path fill="none" stroke="#003768" stroke-width="6.4371" stroke-miterlimit="10" d="M116.3,848.3c-0.9-5.1,18-12.7,42.2-17.2
		s44.6-3.9,45.6,1.1"/>
	<path fill="none" stroke="#003768" stroke-width="6.4371" stroke-miterlimit="10" d="M722.3,848.3c0.9-5.1-18-12.7-42.2-17.2
		c-24.3-4.5-44.6-3.9-45.6,1.1"/>
	<path fill="none" stroke="#003768" stroke-width="2.1455" stroke-miterlimit="10" d="M641.3,244.9c-6.3-1.3-19.8,39.4-30.3,90.8
		c-10.5,51.4-13.9,94.2-7.7,95.4"/>
	<path fill="none" stroke="#003768" stroke-width="2.1455" stroke-miterlimit="10" d="M196.1,247.2c6.3-1.3,19.8,39.4,30.3,90.8
		c10.5,51.4,13.9,94.2,7.7,95.4"/>
	<line fill="none" stroke="#003768" stroke-width="2.1455" stroke-miterlimit="10" x1="494.5" y1="831.7" x2="494.5" y2="354.1"/>
	<line fill="none" stroke="#003768" stroke-width="2.1455" stroke-miterlimit="10" x1="343.9" y1="831.7" x2="343.9" y2="354.1"/>
	<path fill="none" stroke="#003768" stroke-width="2.1455" stroke-miterlimit="10" d="M742.9,649.7c0,0-44.7-20.6-97.8-8.3"/>
	<path fill="none" stroke="#003768" stroke-width="2.1455" stroke-miterlimit="10" d="M722.8,452.6c0,0-68.7,39.9-80.7,112.2"/>
	<path fill="none" stroke="#003768" stroke-width="2.1455" stroke-miterlimit="10" d="M94.1,649.7c0,0,44.7-20.6,97.8-8.3"/>
	<path fill="none" stroke="#003768" stroke-width="2.1455" stroke-miterlimit="10" d="M114.2,452.6c0,0,68.7,39.9,80.7,112.2"/>
</g>
</svg>
