<?xml version="1.0" encoding="utf-8"?>
<!-- Generator: Adobe Illustrator 26.4.1, SVG Export Plug-In . SVG Version: 6.00 Build 0)  -->
<svg version="1.1" baseProfile="tiny" id="Layer_1" xmlns="http://www.w3.org/2000/svg" xmlns:xlink="http://www.w3.org/1999/xlink"
	 x="0px" y="0px" viewBox="0 0 18 18" overflow="visible" xml:space="preserve">
<g>
	<path fill="#FF5748" d="M0,0v18h18V0H0z M16,16H2V2h14V16z"/>
	<polygon fill="#FF5748" points="6,10 6,11 5.1,11 5.1,12 4.1,12 4.1,12.9 3.1,12.9 3.1,14.9 5.1,14.9 5.1,13.9 6,13.9 6,12.9 
		7,12.9 7,12 8,12 8,11 10,11 10,12 11,12 11,12.9 12,12.9 12,13.9 12.9,13.9 12.9,14.9 14.9,14.9 14.9,12.9 13.9,12.9 13.9,12 
		12.9,12 12.9,11 12,11 12,10 11,10 11,8 12,8 12,7 12.9,7 12.9,6 13.9,6 13.9,5.1 14.9,5.1 14.9,3.1 12.9,3.1 12.9,4.1 12,4.1 
		12,5.1 11,5.1 11,6 10,6 10,7 8,7 8,6 7,6 7,5.1 6,5.1 6,4.1 5.1,4.1 5.1,3.1 3.1,3.1 3.1,5.1 4.1,5.1 4.1,6 5.1,6 5.1,7 6,7 6,8 
		7,8 7,10 	"/>
</g>
</svg>
