<?xml version="1.0" encoding="utf-8"?>
<!-- Generator: Adobe Illustrator 26.0.1, SVG Export Plug-In . SVG Version: 6.00 Build 0)  -->
<svg version="1.1" baseProfile="tiny" id="Layer_1" xmlns="http://www.w3.org/2000/svg" xmlns:xlink="http://www.w3.org/1999/xlink"
	 x="0px" y="0px" viewBox="0 0 454.1 959.1" overflow="visible" xml:space="preserve">
<g>
	<rect x="411.5" y="0" fill="#0F3A44" width="33.6" height="9.1"/>
	<line fill="none" stroke="#45525D" stroke-width="2" stroke-miterlimit="10" x1="453.1" y1="664.8" x2="453.1" y2="8.1"/>
	<line fill="none" stroke="#FF705C" stroke-width="2" stroke-miterlimit="10" x1="453.1" y1="699" x2="453.1" y2="669"/>
	<rect x="446" y="1" fill="none" stroke="#89C7E7" stroke-width="2" stroke-miterlimit="10" width="7.1" height="7.1"/>
	<path fill="none" stroke="#45525D" stroke-width="2" stroke-miterlimit="10" d="M436.1,958.1h7.3c3.8-3.8,5.9-5.9,9.7-9.7V704.2"/>
	<rect x="433.1" y="957.1" fill="#8AC6E5" width="2" height="2"/>
	<rect x="423" y="957.1" fill="#8AC6E5" width="2" height="2"/>
	<line fill="none" stroke="#45525D" stroke-width="2" stroke-miterlimit="10" x1="432" y1="958.1" x2="426.1" y2="958.1"/>
	<line fill="none" stroke="#45525D" stroke-width="2" stroke-miterlimit="10" x1="422" y1="958.1" x2="416.1" y2="958.1"/>
	<line fill="none" stroke="#1F2E36" stroke-width="2" stroke-miterlimit="10" x1="411" y1="958.1" x2="20.1" y2="958.1"/>
	<line fill="none" stroke="#1F2E36" stroke-width="2" stroke-miterlimit="10" x1="442.8" y1="938.1" x2="10.9" y2="938.1"/>
	<polygon fill="#89C7E6" points="448,944 443.9,944 439.1,948.9 439.1,953 441,953 447.9,946 	"/>
	<rect x="9.1" y="0" fill="#0F3A44" width="220" height="9.1"/>
	<rect x="229.1" y="0" fill="#335B6B" width="182.4" height="9.1"/>
	<path fill="none" stroke="#45525D" stroke-width="2" stroke-miterlimit="10" d="M15,958.1h-4.4c-3.8-3.8-5.9-5.9-9.7-9.7V8.1"/>
	<polygon fill="#89C7E6" points="6.1,944 10.2,944 15,948.9 15,953 13.1,953 6.1,946 	"/>
	<path fill="#CEEAFF" d="M235.9,6c-0.1,0-0.1,0.1-0.2,0.1H235L234.8,6l-0.3-0.3l-0.1-0.2V3.7l0.1-0.2l0.3-0.3L235,3h0.7
		c0.1,0,0.2,0,0.2,0.1c0.1,0.1,0.3,0.3,0.4,0.4l-0.2,0.1c-0.1-0.1-0.2-0.3-0.3-0.4l-0.1,0H235l-0.1,0c-0.1,0-0.2,0.2-0.3,0.3l0,0.1
		v1.8l0,0.1c0.1,0.1,0.2,0.3,0.3,0.3l0.1,0h0.7l0.1,0c0.1-0.1,0.3-0.2,0.3-0.4l0.2,0.1C236.2,5.7,236.1,5.9,235.9,6z"/>
	<path fill="#CEEAFF" d="M239.5,5.7L239.2,6l-0.2,0.1h-0.8L237.9,6l-0.3-0.3l-0.1-0.2V3.7l0.1-0.2l0.3-0.3l0.2-0.1h0.8l0.2,0.1
		l0.3,0.3l0.1,0.2v1.8L239.5,5.7z M239.4,3.7L239.4,3.7c-0.1-0.2-0.3-0.4-0.3-0.4l-0.1,0h-0.8l-0.1,0c-0.1,0-0.3,0.2-0.3,0.3l0,0.1
		v1.8l0,0.1c0.1,0.1,0.3,0.3,0.3,0.3l0.1,0h0.8l0.1,0c0.1-0.1,0.2-0.2,0.3-0.3l0-0.1V3.7z"/>
	<polygon fill="#CEEAFF" points="243,6 243,3.2 242.9,3.2 242,5.2 241.9,5.2 241,3.2 241,3.2 241,6 240.8,6 240.8,3.1 241.1,3.1 
		242,4.9 242.8,3.1 243.2,3.1 243.2,6 	"/>
	<polygon fill="#CEEAFF" points="246.7,6 246.7,3.2 246.6,3.2 245.7,5.2 245.6,5.2 244.7,3.2 244.7,3.2 244.7,6 244.5,6 244.5,3.1 
		244.8,3.1 245.7,4.9 246.5,3.1 246.9,3.1 246.9,6 	"/>
	<path fill="#CEEAFF" d="M250.1,5.7L249.8,6l-0.2,0.1h-0.8L248.5,6l-0.3-0.3l-0.1-0.2V3.7l0.1-0.2l0.3-0.3l0.2-0.1h0.8l0.2,0.1
		l0.3,0.3l0.1,0.2v1.8L250.1,5.7z M250,3.7L250,3.7c-0.1-0.2-0.3-0.4-0.3-0.4l-0.1,0h-0.8l-0.1,0c-0.1,0-0.3,0.2-0.3,0.3l0,0.1v1.8
		l0,0.1c0.1,0.1,0.3,0.3,0.3,0.3l0.1,0h0.8l0.1,0c0.1-0.1,0.2-0.2,0.3-0.3l0-0.1V3.7z"/>
	<path fill="#CEEAFF" d="M253.3,5.6c-0.1,0.1-0.2,0.3-0.3,0.3c-0.1,0-0.1,0.1-0.2,0.1h-1.3v-3h1.3c0.1,0,0.2,0,0.2,0.1l0.3,0.3
		l0.1,0.2v1.7L253.3,5.6z M253.2,3.7l0-0.1c-0.1-0.1-0.2-0.3-0.3-0.3l-0.1,0h-1.1v2.6h1.1l0.1,0c0.1,0,0.3-0.2,0.3-0.3l0-0.1V3.7z"
		/>
	<rect x="254.6" y="3.1" fill="#CEEAFF" width="0.2" height="3"/>
	<polygon fill="#CEEAFF" points="256.9,3.2 256.9,6 256.7,6 256.7,3.2 255.8,3.2 255.8,3.1 257.8,3.1 257.8,3.2 	"/>
	<polygon fill="#CEEAFF" points="259.7,4.7 259.7,6 259.5,6 259.5,4.7 258.6,3.1 258.8,3.1 259.6,4.5 260.4,3.1 260.6,3.1 	"/>
	<polygon fill="#CEEAFF" points="264,3.2 264,6 263.8,6 263.8,3.2 263,3.2 263,3.1 264.9,3.1 264.9,3.2 	"/>
	<path fill="#CEEAFF" d="M267.5,6l-0.2-0.7h-1.4L265.6,6h-0.2l1-3h0.4l1,3H267.5z M266.6,3.2h-0.1l-0.6,1.9h1.3L266.6,3.2z"/>
	<path fill="#CEEAFF" d="M270.7,6l0-0.3c-0.1,0.1-0.2,0.2-0.2,0.2l-0.2,0.1h-0.8L269.1,6l-0.3-0.3l-0.1-0.2V3.7l0.1-0.2l0.3-0.3
		l0.2-0.1h0.8l0.2,0.1c0.2,0.1,0.3,0.3,0.4,0.4l-0.2,0.1c-0.1-0.1-0.2-0.3-0.3-0.4l-0.1,0h-0.8l-0.1,0c-0.1,0-0.3,0.2-0.3,0.3l0,0.1
		v1.7l0,0.1c0.1,0.1,0.3,0.3,0.3,0.3l0.1,0h0.8l0.1,0c0.1,0,0.3-0.2,0.3-0.3l0-0.1V4.6h-0.7V4.4h0.9c0,0.8,0,1.1,0,1.1
		s0,0.2,0.1,0.5H270.7z"/>
	<path fill="#CEEAFF" d="M275.6,5.7L275.3,6l-0.2,0.1h-0.9L274,6c-0.1-0.1-0.3-0.3-0.4-0.4l0.2-0.1c0.1,0.1,0.2,0.3,0.3,0.4l0.1,0
		h0.8l0.1,0c0.1-0.1,0.3-0.2,0.3-0.3l0-0.1V5.1c0-0.1,0-0.2-0.2-0.3L274,4.4c-0.2,0-0.3-0.2-0.3-0.4V3.7l0-0.2l0.3-0.3l0.2-0.1h0.8
		l0.2,0.1c0.2,0.1,0.3,0.3,0.4,0.4l-0.2,0.1c-0.1-0.1-0.2-0.3-0.3-0.4l-0.1,0h-0.7l-0.1,0c-0.1,0-0.3,0.2-0.3,0.3l0,0.1V4
		c0,0.1,0,0.2,0.2,0.3l1.4,0.4c0.2,0,0.3,0.2,0.3,0.4v0.4L275.6,5.7z"/>
	<path fill="#CEEAFF" d="M278.4,6c-0.1,0-0.1,0.1-0.2,0.1h-0.7L277.3,6L277,5.7l-0.1-0.2V3.7l0.1-0.2l0.3-0.3l0.2-0.1h0.7
		c0.1,0,0.2,0,0.2,0.1c0.1,0.1,0.3,0.3,0.4,0.4l-0.2,0.1c-0.1-0.1-0.2-0.3-0.3-0.4l-0.1,0h-0.7l-0.1,0c-0.1,0-0.2,0.2-0.3,0.3l0,0.1
		v1.8l0,0.1c0.1,0.1,0.2,0.3,0.3,0.3l0.1,0h0.7l0.1,0c0.1-0.1,0.3-0.2,0.3-0.4l0.2,0.1C278.7,5.7,278.6,5.9,278.4,6z"/>
	<path fill="#CEEAFF" d="M281.8,6l-0.2-0.7h-1.4L279.9,6h-0.2l1-3h0.4l1,3H281.8z M281,3.2h-0.1l-0.6,1.9h1.3L281,3.2z"/>
	<polygon fill="#CEEAFF" points="284.6,6 283.3,3.2 283.2,3.2 283.2,6 283.1,6 283.1,3.1 283.4,3.1 284.7,5.9 284.8,5.9 284.8,3.1 
		285,3.1 285,6 	"/>
	<polygon fill="#CEEAFF" points="287.9,6 287.9,3.1 288.1,3.1 288.1,5.9 289.5,5.9 289.5,6 	"/>
	<rect x="290.6" y="3.1" fill="#CEEAFF" width="0.2" height="3"/>
	<path fill="#CEEAFF" d="M294,5.7L293.7,6l-0.2,0.1h-0.9L292.4,6c-0.1-0.1-0.3-0.3-0.4-0.4l0.2-0.1c0.1,0.1,0.2,0.3,0.3,0.4l0.1,0
		h0.8l0.1,0c0.1-0.1,0.3-0.2,0.3-0.3l0-0.1V5.1c0-0.1,0-0.2-0.2-0.3l-1.3-0.4c-0.2,0-0.3-0.2-0.3-0.4V3.7l0-0.2l0.3-0.3l0.2-0.1h0.8
		l0.2,0.1c0.2,0.1,0.3,0.3,0.4,0.4l-0.2,0.1c-0.1-0.1-0.2-0.3-0.3-0.4l-0.1,0h-0.7l-0.1,0c-0.1,0-0.3,0.2-0.3,0.3l0,0.1V4
		c0,0.1,0,0.2,0.2,0.3l1.4,0.4c0.2,0,0.3,0.2,0.3,0.4v0.4L294,5.7z"/>
	<polygon fill="#CEEAFF" points="296.1,3.2 296.1,6 295.9,6 295.9,3.2 295.1,3.2 295.1,3.1 297,3.1 297,3.2 	"/>
	<path fill="#CEEAFF" d="M301.5,4.3l-0.2,0.3c-0.1,0.1-0.2,0.1-0.3,0.1h-0.1l0.8,1.4h-0.2l-0.8-1.4h-0.8V6h-0.2v-3h1.3
		c0.1,0,0.2,0,0.3,0.1l0.2,0.3l0.1,0.2v0.4L301.5,4.3z M301.4,3.7l0-0.1c0-0.1-0.2-0.2-0.3-0.3l-0.1,0h-1.1v1.2h1.1l0.1,0
		c0.1,0,0.2-0.2,0.3-0.3l0-0.1V3.7z"/>
	<polygon fill="#CEEAFF" points="302.9,6 302.9,3.1 304.6,3.1 304.6,3.2 303.1,3.2 303.1,4.4 304.5,4.4 304.5,4.6 303.1,4.6 
		303.1,5.9 304.6,5.9 304.6,6 	"/>
	<polygon fill="#CEEAFF" points="306.7,3.2 306.7,6 306.5,6 306.5,3.2 305.6,3.2 305.6,3.1 307.5,3.1 307.5,3.2 	"/>
	<path fill="#CEEAFF" d="M310.5,5.7L310.1,6l-0.2,0.1h-0.7L309,6l-0.3-0.3l-0.1-0.2V3.1h0.2v2.4l0,0.1c0.1,0.1,0.2,0.3,0.3,0.3
		l0.1,0h0.7l0.1,0c0.1-0.1,0.3-0.2,0.3-0.3l0-0.1V3.1h0.2v2.4L310.5,5.7z"/>
	<path fill="#CEEAFF" d="M313.6,4.3l-0.2,0.3c-0.1,0.1-0.2,0.1-0.3,0.1H313l0.8,1.4h-0.2l-0.8-1.4H312V6h-0.2v-3h1.3
		c0.1,0,0.2,0,0.3,0.1l0.2,0.3l0.1,0.2v0.4L313.6,4.3z M313.5,3.7l0-0.1c0-0.1-0.2-0.2-0.3-0.3l-0.1,0H312v1.2h1.1l0.1,0
		c0.1,0,0.2-0.2,0.3-0.3l0-0.1V3.7z"/>
	<polygon fill="#CEEAFF" points="316.5,6 315.2,3.2 315.2,3.2 315.2,6 315,6 315,3.1 315.3,3.1 316.7,5.9 316.7,5.9 316.7,3.1 
		316.9,3.1 316.9,6 	"/>
	<path fill="#CEEAFF" d="M319.8,3.4l0.2-0.3c0.1-0.1,0.2-0.1,0.3-0.1h0.7c0.1,0,0.2,0,0.3,0.1l0.2,0.3l0.1,0.2v1.9l-0.1,0.2L321.2,6
		c-0.1,0.1-0.2,0.1-0.3,0.1h-0.6L320.1,6c-0.1-0.1-0.3-0.3-0.4-0.4l0.2-0.1c0.1,0.1,0.2,0.3,0.3,0.4l0.1,0h0.6l0.1,0
		c0.1,0,0.2-0.2,0.3-0.3l0-0.1V4.5c-0.1,0.1-0.2,0.2-0.3,0.3l-0.2,0.1h-0.6c-0.1,0-0.2,0-0.3-0.1l-0.2-0.3l-0.1-0.2V3.6L319.8,3.4z
		 M319.9,4.3l0,0.1c0.1,0.1,0.2,0.2,0.3,0.3l0.1,0h0.6l0.1,0c0.1-0.1,0.2-0.2,0.3-0.3l0-0.1V3.6l0-0.1c-0.1-0.1-0.2-0.2-0.3-0.3
		l-0.1,0h-0.7l-0.1,0c-0.1,0.1-0.2,0.2-0.3,0.3l0,0.1V4.3z"/>
	<path fill="#CEEAFF" d="M324.5,5.7L324.2,6C324.1,6,324,6.1,324,6.1h-0.7c-0.1,0-0.2,0-0.3-0.1l-0.2-0.3l-0.1-0.2V3.6l0.1-0.2
		l0.2-0.3c0.1-0.1,0.2-0.1,0.3-0.1h0.7c0.1,0,0.2,0,0.3,0.1l0.2,0.3l0.1,0.2v1.9L324.5,5.7z M324.3,3.6l0-0.1c0-0.1-0.2-0.2-0.3-0.3
		l-0.1,0h-0.7l-0.1,0c-0.1,0-0.2,0.2-0.3,0.3l0,0.1v1.9l0,0.1c0.1,0.1,0.2,0.2,0.3,0.3l0.1,0h0.7l0.1,0c0.1,0,0.2-0.2,0.3-0.3l0-0.1
		V3.6z"/>
	<path fill="#CEEAFF" d="M325.8,3.4l0.2-0.3c0.1-0.1,0.2-0.1,0.3-0.1h0.7c0.1,0,0.2,0,0.3,0.1l0.2,0.3l0.1,0.2v1.9l-0.1,0.2L327.2,6
		c-0.1,0.1-0.2,0.1-0.3,0.1h-0.6L326.1,6c-0.1-0.1-0.3-0.3-0.4-0.4l0.2-0.1c0.1,0.1,0.2,0.3,0.3,0.4l0.1,0h0.6l0.1,0
		c0.1,0,0.2-0.2,0.2-0.3l0-0.1V4.5c-0.1,0.1-0.2,0.2-0.3,0.3l-0.2,0.1h-0.6c-0.1,0-0.2,0-0.3-0.1l-0.2-0.3l-0.1-0.2V3.6L325.8,3.4z
		 M325.9,4.3l0,0.1c0.1,0.1,0.2,0.2,0.3,0.3l0.1,0h0.6l0.1,0c0.1-0.1,0.2-0.2,0.3-0.3l0-0.1V3.6l0-0.1c0-0.1-0.2-0.2-0.3-0.3l-0.1,0
		h-0.7l-0.1,0c-0.1,0.1-0.2,0.2-0.3,0.3l0,0.1V4.3z"/>
	<polygon fill="#CEEAFF" points="328.8,6 328.8,5.9 329.5,5.9 329.5,3.2 328.8,3.2 328.8,3.1 329.7,3.1 329.7,5.9 330.4,5.9 
		330.4,6 	"/>
	<polygon fill="#CEEAFF" points="332.1,6 331.9,6 333.2,3.2 331.7,3.2 331.7,3.1 333.4,3.1 333.4,3.2 	"/>
	<path fill="#CEEAFF" d="M336.3,5.7L336.1,6c-0.1,0.1-0.2,0.1-0.3,0.1h-0.7c-0.1,0-0.2,0-0.3-0.1l-0.2-0.3l-0.1-0.2V5l0.1-0.2
		c0,0,0.1-0.1,0.2-0.2c-0.1-0.1-0.2-0.2-0.2-0.3L334.6,4V3.6l0.1-0.2l0.2-0.3c0.1-0.1,0.2-0.1,0.3-0.1h0.7c0.1,0,0.2,0,0.3,0.1
		l0.2,0.3l0.1,0.2V4l-0.1,0.2c0,0-0.1,0.2-0.2,0.3c0.1,0.1,0.2,0.2,0.2,0.2l0.1,0.2v0.5L336.3,5.7z M336.2,3.6l0-0.1
		c-0.1-0.1-0.2-0.2-0.3-0.3l-0.1,0h-0.7l-0.1,0c-0.1,0.1-0.2,0.2-0.3,0.3l0,0.1V4l0,0.1c0.1,0.1,0.2,0.2,0.3,0.3l0.1,0h0.7l0.1,0
		c0.1,0,0.2-0.2,0.3-0.3l0-0.1V3.6z M336.2,5l0-0.1c-0.1-0.1-0.2-0.2-0.3-0.3l-0.1,0h-0.7l-0.1,0c-0.1,0-0.2,0.2-0.3,0.3l0,0.1v0.5
		l0,0.1c0.1,0.1,0.2,0.2,0.3,0.3l0.1,0h0.7l0.1,0c0.1,0,0.2-0.2,0.3-0.3l0-0.1V5z"/>
	<path fill="#CEEAFF" d="M339.1,4.4L338,5c-0.1,0.1-0.2,0.2-0.2,0.3v0.6h1.5V6h-1.7V5.3c0-0.2,0.1-0.3,0.3-0.4l1.1-0.6
		c0.1-0.1,0.2-0.2,0.2-0.3V3.6l0-0.1c-0.1-0.1-0.2-0.2-0.3-0.3l-0.1,0h-0.6l-0.1,0c-0.1,0.1-0.3,0.2-0.3,0.4l-0.2-0.1
		c0.1-0.2,0.2-0.3,0.4-0.4l0.2-0.1h0.6c0.1,0,0.2,0,0.3,0.1l0.2,0.3l0.1,0.2V4C339.4,4.2,339.3,4.3,339.1,4.4z"/>
	<rect x="0" y="0" fill="#89C7E7" width="9.1" height="9.1"/>
</g>
</svg>
