<?xml version="1.0" encoding="utf-8"?>
<!-- Generator: Adobe Illustrator 26.0.1, SVG Export Plug-In . SVG Version: 6.00 Build 0)  -->
<svg version="1.1" baseProfile="tiny" id="Layer_1" xmlns="http://www.w3.org/2000/svg" xmlns:xlink="http://www.w3.org/1999/xlink"
	 x="0px" y="0px" viewBox="0 0 1920 1080" overflow="visible" xml:space="preserve">
<g>
	<rect x="1858.2" y="1046.2" fill="#8AC6E5" width="2" height="2"/>
	<path fill="none" stroke="#45525D" stroke-width="2" stroke-miterlimit="10" d="M1888.3,687.9V31.2"/>
	<path fill="none" stroke="#FF705C" stroke-width="2" stroke-miterlimit="10" d="M1888.3,722.1v-30"/>
	<rect x="1881.2" y="24.1" fill="none" stroke="#009E79" stroke-width="2" stroke-miterlimit="10" width="7.1" height="7.1"/>
	<path fill="none" stroke="#45525D" stroke-width="2" stroke-miterlimit="10" d="M1871.3,1047.2h7.3c3.8-3.8,5.9-5.9,9.7-9.7V727.3"
		/>
	<rect x="1868.3" y="1046.2" fill="#8AC6E5" width="2" height="2"/>
	<line fill="none" stroke="#45525D" stroke-width="2" stroke-miterlimit="10" x1="1867.2" y1="1047.2" x2="1861.3" y2="1047.2"/>
	<polygon fill="#89C7E6" points="1883.2,1033.1 1879.1,1033.1 1874.3,1038 1874.3,1042.1 1876.2,1042.1 1883.1,1035.1 	"/>
</g>
<g>
	<g>
		<path fill="none" stroke="#45525D" stroke-width="2" stroke-miterlimit="10" d="M43.6,1047.2h-4.4c-3.8-3.8-5.9-5.9-9.7-9.7
			L29.6,31.2"/>
		<polygon fill="#FF705C" points="34.7,1033.1 38.8,1033.1 43.6,1038 43.6,1042.1 41.7,1042.1 34.7,1035.1 		"/>
		<rect x="28.6" y="23.1" fill="#89C7E7" width="9.1" height="9.1"/>
	</g>
	<rect x="44.9" y="1046.2" fill="#8AC6E5" width="2" height="2"/>
	<rect x="55" y="1046.2" fill="#8AC6E5" width="2" height="2"/>
	<line fill="none" stroke="#45525D" stroke-width="2" stroke-miterlimit="10" x1="53.9" y1="1047.2" x2="48" y2="1047.2"/>
</g>
</svg>
