<?xml version="1.0" encoding="utf-8"?>
<!-- Generator: Adobe Illustrator 26.0.1, SVG Export Plug-In . SVG Version: 6.00 Build 0)  -->
<svg version="1.1" baseProfile="tiny" id="Layer_1" xmlns="http://www.w3.org/2000/svg" xmlns:xlink="http://www.w3.org/1999/xlink"
	 x="0px" y="0px" viewBox="0 0 1920 1080" overflow="visible" xml:space="preserve">
<path fill="none" stroke="#4285A3" stroke-width="2" stroke-linecap="round" stroke-linejoin="round" stroke-miterlimit="10" d="
	M110.1,329.6l10.9-4.3c0.6-0.2,1.1-0.3,1.7-0.3l50.2-1c0.3,0,0.6,0,1-0.1l14.9-3.2c0.3-0.1,0.6-0.1,0.9-0.1l97.1-2
	c0.5,0,1.1,0.1,1.6,0.2l5.1,1.6c0.6,0.2,1.1,0.2,1.7,0.2l55.4-2.8c0.3,0,0.6,0,0.9,0l46.7,5.9c0,0,17.9,2.8,37.6,13.7
	c43.4,24,73.3,40.7,91,53.5c0.3,0.2,0.6,0.5,0.8,0.8l8.2,9.4c0.3,0.3,0.5,0.7,0.7,1.1l10.4,21.6c0.3,0.6,0.4,1.2,0.5,1.8l2.3,27.6
	l10.4-6.3c1.5-0.9,2.4-2.4,2.4-4.2l0.4-14.4c0,0,0.3-13.7,12.4-21.8c0,0,1.9-3.4,19.2-4.8c1.2-0.1,2.3-0.6,3.1-1.5l4.7-4.7
	c0.1-0.1,0.3-0.3,0.5-0.4l1.4-1.1c1.3-1,2-2.5,1.9-4.1l-1.7-71.4c0-1.6,0.7-3.1,1.9-4l10.2-8.2c0.9-0.7,1.9-1.1,3.1-1.1l96.9-2.3
	c0.4,0,0.7,0,1.1,0.1l83.3,16.4c1.1,0.2,2,0.8,2.8,1.6l4.6,5c1,1.1,2.4,1.7,3.9,1.7l4.6-0.2c0.6,0,1.1,0.1,1.6,0.2l12.2,3.7
	c0.5,0.1,0.9,0.2,1.4,0.2l26.8,0.2c0.3,0,0.6,0,0.9,0.1l40,7.4c0,0,4.1,0.8,4.1,8.8c0,7.2-0.4,18.8-0.5,21.1c0,0.3,0,0.5,0,0.8
	l0.9,7.2c0.1,0.5,0.1,0.9,0,1.4l-1.1,7.8c0,0.2,0,0.4-0.1,0.6l-0.2,13.6c0,0.4,0,0.8,0.1,1.2l0.9,3.8c0.2,0.9,0.2,1.8-0.1,2.6
	l-0.9,3c-0.5,1.6-0.2,3.3,0.8,4.6l0.3,0.4c0.5,0.6,0.8,1.3,1,2.1l0,4.8c0.1,0.8,0.1,1.5-0.1,2.3l-1.2,4.3c-0.2,0.8-0.2,1.7,0,2.6
	l1.3,5c0.3,1.1,1,2.1,1.9,2.8l27.4,20.3c0.7,0.5,1.5,0.8,2.4,1l82.3,10c1,0.1,2-0.1,2.9-0.5c2.9-1.5,9.8-4.7,14.2-3.7
	c5.7,1.3,20.2,6.2,23.1,7s7.5,2.6,15.5,7.3c8,4.7,10.6,5.2,25.4,9.3c14.8,4.1,39.6,9.6,53.6,18.1c14,8.5,14,8,16.6,13.2
	c1.5,3.1,2.3,6.5,2.7,8.8c0.3,1.7,1.4,3.1,3,3.7l25,10.6c0.7,0.3,1.4,0.8,1.9,1.4l7.1,8.6c0.5,0.6,0.8,1.2,1,1.9l0.4,1.6
	c0.4,1.5,1.4,2.7,2.8,3.3l206.1,95.6c0.2,0.1,0.3,0.2,0.5,0.3c2.5,1.5,23,14.8,27.9,31.8c0.2,0.7,0.5,1.3,0.9,1.8
	c1.2,1.4,3.6,4.8,4.7,9.7c0.3,1.3,1,2.4,2,3.1c5.6,3.8,23.2,17.1,24.4,33c0.1,0.7,0.2,1.4,0.6,2.1c2.8,5.3,16.4,33,16.3,72.5
	c0,1,0.3,2,0.8,2.8c1.9,2.9,6,11.4-2,25.2c-0.3,0.4-0.4,0.9-0.6,1.4l-3.5,15c-0.1,0.5-0.2,1.1-0.1,1.6c0.4,4.2,1.9,24.1-5.3,43.2
	c-8,21.5-10.6,23.8-12.9,26.9c-2.3,3.1-4.1,6.2-10.6,9.8c-6.5,3.6-47.9,19.4-47.9,19.4s7.8,4.7,9.8,7.3c2.1,2.6,11.7,5.7,17.6,9.1
	c5.5,3.1,32.8,16,37,17.9c4,1.7,3.5,3.6,2,4.6c-3.8,2.5-7.6,3.8-11.2,2.8c-3.4-1-51.9-14.9-57.9-16.7c-0.5-0.1-2.3-0.5-2.8-0.5
	c-1.7,0-4.7,1.3-1.6,4.1c3.4,3.2,28.9,15.3,35.1,18.1c1.3,0.6,2.3,1.7,2.7,3.1c0.4,1.4,0,3.1-2.7,4.2c-5.4,2.3-6.3,1.6-10.7,0.3
	c-3.7-1.1-15-5.1-18.6-6.3c-0.7-0.2-1.4-0.3-2.1-0.2l-2.2,0.3c-0.7,0.1-1.5,0-2.2-0.2l-19-5.1c-0.5-0.2-0.9-0.2-1.4-0.3l-5.1-0.2
	c-0.3,0-0.5,0-0.8-0.1c-2.4-0.5-15.6-2.9-23.7-7.6c-1.1-0.7-2.5-0.9-3.8-0.6c-5.7,1.4-23.5,4.2-46.7-7.8
	c-21.2-11-25.2-20.1-25.8-24.1c-0.2-1.3-0.9-2.4-1.9-3.2c-1.9-1.4-5.2-4.7-8.7-12c-0.5-1.1-1.5-2-2.6-2.5c-2.8-1.2-8.3-3.4-11-4.5
	c-1.1-0.4-2.3-0.5-3.4-0.2l-41.7,12.8c-0.7,0.2-1.5,0.3-2.3,0.2l-195.7-32.4c0,0-8-3-30-0.2s-40.6,2.4-68-6.6
	c-8.5-2.8-33.7-16.9-61.5-30.9c-47.4-23.8-107.9-54.1-118.3-59.4c-1-0.5-4.1-0.2-5.3,0l-122.9,24c0,0-8.5,2.1-15-1
	c-6-2.9-84.8-39.9-97.4-45.8c-1.4-0.6-2.4-1.9-2.7-3.4c-0.5-2-0.7-5.1,0.5-9.6c0-0.2,0.1-0.3,0.2-0.5l3.8-10.6c0,0,0.5-4.1,8.3-8.5
	c10.2-5.8,64.7-39.8,64.7-39.8l-36.4-17.5c-0.9-0.4-1.6-1.1-2.1-2l-7.4-12.6c-0.4-0.7-0.7-1.6-0.7-2.4l-0.7-27.3c0-0.1,0-0.3,0-0.4
	l-2.3-22c-0.2-1.7,0.5-3.4,1.8-4.4l13.4-11l-38.4-15.1c-0.8-0.3-1.7-0.4-2.5-0.3l-27.5,3.9c-0.5,0.1-0.9,0.1-1.4,0
	c-2.7-0.4-12.6-1.6-12.8-0.9c-0.3,0.8,3.9,114.2,3.9,114.2s0.5,5.8-5.8,8c-0.6,0.2-1.1,0.5-1.5,0.9l-6.2,5.2
	c-0.7,0.6-1.5,0.9-2.4,1.1L337.6,761c-0.3,0.1-0.7,0.1-1,0.1l-13.8-0.5c-0.6,0-1.3,0.1-1.9,0.3l-11.4,4.1c-0.5,0.2-1,0.3-1.5,0.3
	c-1.8,0.1-6.1,0-8.7-2.7c-1.9-1.9-4.4-3.7-6.1-4.8c-1.1-0.8-2.5-1-3.9-0.7c-1.9,0.5-5.1,0.4-8.7-3c-5.7-5.4-4.1-3.6-4.1-3.6
	s-9.1-1.3-14.6-6.9c-0.8-0.9-1.9-1.4-3.1-1.5c-2.8-0.3-8.2-1.4-12-5.7c-0.8-0.9-1.8-1.5-2.9-1.7c-2.4-0.5-7.1-1.9-13.3-6.3
	c-8.3-5.9-18.5-12.3-20.2-13.3c-0.2-0.1-0.3-0.2-0.5-0.3l-7.7-3.6c-0.6-0.3-1.1-0.7-1.6-1.1l-1.7-1.8c-0.5-0.6-1.2-1-1.9-1.3
	l-11.2-4.4c-0.6-0.3-1.3-0.4-2-0.3l-4.9,0.2c-0.9,0-1.7-0.2-2.5-0.5l-15.2-7.7l-12-6.1c-0.5-0.3-1.1-0.4-1.7-0.5
	c-0.8-0.1-2.3-1.6-2.8-10.2c-0.7-11.7-11.1-130-11.9-138.6c0-0.3-0.1-0.5-0.1-0.8c-0.4-1.3-1.2-6.2,5.3-6.2c7.5,0,68.1-5.7,68.1-5.7
	s6.5-1.6-2.6-5.4c-9.1-3.9-81.1-30.3-81.1-30.3s-3.4-1.3-3.9-12.4c-0.6-11.9-10.1-121.6-11.9-143.4
	C106.7,332.5,108,330.4,110.1,329.6z"/>
</svg>
