<?xml version="1.0" encoding="utf-8"?>
<!-- Generator: Adobe Illustrator 26.0.1, SVG Export Plug-In . SVG Version: 6.00 Build 0)  -->
<svg version="1.1" baseProfile="tiny" id="Layer_1" xmlns="http://www.w3.org/2000/svg" xmlns:xlink="http://www.w3.org/1999/xlink"
	 x="0px" y="0px" viewBox="0 0 49.6 61.1" overflow="visible" xml:space="preserve">
<g>
	<path d="M39.7,17.5c4.7,0,8,1.9,8,3.6c0,1.7-3.3,3.6-8,3.6c-4.7,0-8-1.9-8-3.6C31.7,19.4,35,17.5,39.7,17.5z M29.8,32.3l-1.3,1.3
		L25.7,32l4.1-4.1V32.3z M19.9,33c-0.6-1.6-1.3-3.3-2-4.9l3.8,3.8L19.9,33z M29.8,25.3l-5.1,5.1v-4.1l5.1-5.1V25.3z M22.8,30.4
		l-5.1-5.1v-4.1l5.1,5.1V30.4z M29.8,14.4v4.1l-5.1,5.1v-4.1L29.8,14.4z M22.8,19.6v4.1l-5.1-5.1v-4.1L22.8,19.6z M10.6,18.7
		c1.7,2.7,5.7,9.5,7.6,15.2l-3.7,2.1c-0.2,0-0.5-0.1-0.7-0.2L12,35.2c-1-0.4-2.1-0.4-3.1,0L7,36c-0.6,0.2-1.2,0.2-1.7,0l-1.9-0.8
		C3.1,35.1,2.9,35,2.6,35C4.4,29,8.8,21.6,10.6,18.7z M10.6,40.4v1.1c-0.6,0-1.2,0.1-1.8,0.3L7,42.6c-0.6,0.2-1.2,0.2-1.7,0
		l-1.9-0.8c-0.4-0.2-0.8-0.3-1.3-0.3c-0.1-0.7-0.2-1.5-0.2-2.3c0-0.7,0.1-1.6,0.3-2.4c0.2,0,0.4,0.1,0.5,0.1l1.9,0.8
		c0.5,0.2,1,0.3,1.5,0.3c0.5,0,1-0.1,1.6-0.3l1.9-0.8c0.6-0.2,1.2-0.2,1.7,0l1.1,0.4h0C11.3,38,10.6,39.2,10.6,40.4z M5.6,46.8
		c-1.3-0.8-2.2-1.9-2.8-3.2l1.9,0.8c0.5,0.2,1,0.3,1.5,0.3c0.5,0,1-0.1,1.6-0.3l1.9-0.8c0.3-0.1,0.7-0.2,1.1-0.2v4.9
		C10.3,48.2,7.8,48.2,5.6,46.8z M39.7,49.7c-1,0-2-0.1-2.9-0.3v-6.5c0.9,0.1,1.9,0.2,2.9,0.2c3.3,0,6.2-0.9,8-2.2v5.2
		C47.7,47.8,44.4,49.7,39.7,49.7z M39.7,41.3c-1,0-2-0.1-2.9-0.3v-0.6c0-1.2-0.7-2.4-1.7-3l-3.4-2v-2.5c1.8,1.4,4.7,2.2,8,2.2
		c3.3,0,6.2-0.9,8-2.2v4.8C47.7,39.4,44.4,41.3,39.7,41.3z M39.7,33.2c-4.7,0-8-1.9-8-3.6v-2v-3.3c1.8,1.4,4.7,2.2,8,2.2
		c3.3,0,6.2-0.9,8-2.2v5.3C47.7,31.3,44.4,33.2,39.7,33.2z"/>
	<path d="M20,35.8l1.5,1.4c1.3-1.4,2.4-1.9,3.2-1.4c0.6,0.3,1.2,1.1,1.6,2.1c-0.9,0.3-1.9,0.7-2.8,1.2c-3.6-1.5-7.1-2.1-9.2-0.8
		c-1.2,0.7-2.4,2.3-1.3,5.9l1.9-0.6c-0.6-1.8-0.4-3,0.4-3.5c0.6-0.4,1.5-0.5,2.6-0.3c-0.2,0.9-0.3,2-0.4,3.1
		c-3.1,2.4-5.3,5.2-5.3,7.6c0,1.4,0.8,3.2,4.5,4l0.4-2c-1.9-0.4-2.8-1.1-2.9-2.1c0-0.7,0.4-1.6,1-2.5c0.7,0.6,1.5,1.3,2.4,1.9
		c0.5,3.8,1.8,7.2,3.9,8.4c0.5,0.2,1,0.4,1.6,0.4c1.1,0,2.5-0.6,4.1-2.3l-1.5-1.4c-1.3,1.4-2.4,1.9-3.2,1.4
		c-0.6-0.3-1.2-1.1-1.6-2.1c0.9-0.3,1.9-0.7,2.8-1.1c2.2,0.9,4.4,1.5,6.3,1.5c1.1,0,2.1-0.2,2.9-0.7c1.2-0.7,2.4-2.3,1.3-5.9
		l-1.9,0.6c0.6,1.8,0.5,3-0.4,3.5c-0.6,0.4-1.5,0.5-2.7,0.3c0.2-0.9,0.3-1.9,0.4-3c3.1-2.4,5.4-5.1,5.3-7.6c0-1.4-0.8-3.2-4.5-4
		l-0.4,2c1.9,0.4,2.8,1.1,2.9,2.1c0,0.7-0.4,1.6-1,2.5c-0.7-0.6-1.5-1.3-2.4-1.9c-0.5-3.8-1.8-7.2-3.9-8.4
		C24.5,33.3,22.5,33.1,20,35.8z M20,40c0.4,0.1,0.7,0.2,1.1,0.3c-0.4,0.3-0.9,0.5-1.3,0.8C19.9,40.8,19.9,40.4,20,40z M27.8,48.2
		c-1.2,0.9-2.6,1.7-4,2.5c-1.4-0.6-2.8-1.4-4.1-2.2c-0.2-1.5-0.2-3.1-0.1-4.7c1.2-0.9,2.6-1.8,4-2.5c1.4,0.6,2.8,1.4,4.1,2.3
		C27.9,45.1,27.9,46.7,27.8,48.2z M16.7,46.2c0.2-0.3,0.5-0.5,0.8-0.8c0,0.5,0,1,0,1.4C17.3,46.7,17,46.5,16.7,46.2z M20.4,52.2
		c-0.1-0.3-0.2-0.7-0.3-1.1c0.4,0.2,0.8,0.5,1.3,0.7C21.1,51.9,20.7,52.1,20.4,52.2z M27.4,52c-0.3-0.1-0.7-0.2-1-0.3
		c0.4-0.2,0.8-0.5,1.2-0.8C27.5,51.3,27.4,51.6,27.4,52z M30.7,45.8c-0.2,0.2-0.5,0.5-0.8,0.7c0-0.5,0-1,0-1.4
		C30.2,45.4,30.4,45.6,30.7,45.8z M26,40.2c0.4-0.1,0.7-0.3,1.1-0.4c0.1,0.4,0.2,0.7,0.3,1.1C26.9,40.7,26.4,40.4,26,40.2z"/>
	<path d="M20.4,46c0,1.9,1.5,3.4,3.4,3.4s3.4-1.5,3.4-3.4c0-1.9-1.5-3.4-3.4-3.4S20.4,44.2,20.4,46z M25,46c0,0.7-0.6,1.3-1.3,1.3
		c-0.7,0-1.3-0.6-1.3-1.3s0.6-1.3,1.3-1.3C24.4,44.7,25,45.3,25,46z"/>
	<g>
		<polygon points="26.4,15.3 26.4,1 24.5,1 24.5,17.2 		"/>
		<polygon points="29.8,11.8 29.8,4.4 27.9,4.4 27.9,13.7 		"/>
		<polygon points="22.9,17.1 22.9,1 21.1,1 21.1,15.2 		"/>
		<polygon points="19.5,13.6 19.5,4.4 17.6,4.4 17.6,11.8 		"/>
	</g>
</g>
</svg>
