<?xml version="1.0" encoding="utf-8"?>
<!-- Generator: Adobe Illustrator 29.3.1, SVG Export Plug-In . SVG Version: 9.03 Build 55982)  -->
<svg version="1.1" baseProfile="tiny" id="Layer_1" xmlns="http://www.w3.org/2000/svg" xmlns:xlink="http://www.w3.org/1999/xlink"
	 x="0px" y="0px" viewBox="0 0 457.4 141.4" overflow="visible" xml:space="preserve">
<path id="colorstyle:Accent1" fill="#FEF6AA" d="M443.1,0H151.6c-4.7,0.8-9.5,2.5-14.3,5.7L10.1,84.6C3.2,90.2,0,96.1,0,102.8v22.7
	c0,8.8,7.1,15.9,15.9,15.9h427.2c7.9,0,14.3-6.4,14.3-14.3V14.3C457.4,6.4,451,0,443.1,0z M440.1,118c0,3.9-3.2,7-7,7H156
	c-3.9,0-7-3.2-7-7V22.7c0-3.9,3.2-7,7-7h277c3.9,0,7,3.2,7,7V118z"/>
</svg>
