<?xml version="1.0" encoding="utf-8"?>
<!-- Generator: Adobe Illustrator 26.3.1, SVG Export Plug-In . SVG Version: 6.00 Build 0)  -->
<svg version="1.1" baseProfile="tiny" id="Layer_1" xmlns="http://www.w3.org/2000/svg" xmlns:xlink="http://www.w3.org/1999/xlink"
	 x="0px" y="0px" viewBox="0 0 235.5 236.1" overflow="visible" xml:space="preserve">
<path d="M231.3,4.8c-3.4-3.4-9.8-4.7-10.1-4.8l-0.1,0C220,0,124.3,0.2,78.3,0v1.7c45.6,0.2,140.1,0,142.8,0c0.5,0.1,6.1,1.4,9,4.3
	c2.4,2.4,3.7,5.5,3.7,8.9v207c0,6.9-5.6,12.6-12.6,12.6h-207c-5.4,0-9.1-1.7-11-5.1c-1.6-2.7-1.6-5.7-1.6-7c0-0.3,0-0.5,0-0.7
	c0-19.7,0-44.8,0.1-69C1.8,104.2,1.8,54,1.7,44.2c0-7.2,0-11.2,1.6-14.1c1.6-2.9,5-5.3,11.6-10c1.7-1.2,3.5-2.5,5.7-4
	C40,2.2,43.4,1.7,54.9,1.7c2.2,0,7.5,0,17.9,0V0C62.4,0,57.2,0,54.9,0C42.4,0,38.7,1.1,19.6,14.7c-2.1,1.5-4,2.8-5.6,4
	C0.1,28.4,0,28.7,0,44.2c0.2,9.8,0.1,60,0.1,108.6C0,177,0,202.1,0,221.9v0.3l0,0v0.3c0,1.3,0,4.7,1.8,7.8c2.3,3.9,6.4,5.9,12.4,5.9
	h207c7.9,0,14.2-6.4,14.2-14.2v-207C235.5,11.1,234,7.5,231.3,4.8z"/>
<rect x="73.7" y="4.4" width="3.6" height="4.6"/>
</svg>
