<?xml version="1.0" encoding="utf-8"?>
<!-- Generator: Adobe Illustrator 29.0.1, SVG Export Plug-In . SVG Version: 9.03 Build 54978)  -->
<svg version="1.1" baseProfile="tiny" id="Layer_1" xmlns="http://www.w3.org/2000/svg" xmlns:xlink="http://www.w3.org/1999/xlink"
	 x="0px" y="0px" viewBox="0 0 560.2 74.5" overflow="visible" xml:space="preserve">
<path id="_x3C_Path_x3E__opacity:50" fill="#53AC9F" d="M268.7,66.3c-5.2,0-10.4-0.3-15.4-1c-14.2-2-28-9.8-41.4-17.3
	c-7.5-4.2-14.6-8.3-21.4-11c-10.9-4.5-20.3-6.6-29.3-8.6c-5.5-1.3-11.2-2.5-17.3-4.4c-3.3-1-6.2-2-9-3c-7.2-2.5-13.3-4.6-21.8-5.2
	c-8.7-0.6-17,2.8-24.9,6.2c-1.8,0.8-3.7,1.5-5.5,2.3c-7.7,3-15.3,4.7-23.3,6.5c-2.3,0.5-4.5,1-6.8,1.6c-0.2,0-0.4-0.1-0.5-0.3
	c0-0.2,0.1-0.4,0.3-0.5c2.3-0.5,4.6-1.1,6.8-1.6c8-1.8,15.5-3.5,23.2-6.5c1.8-0.7,3.7-1.5,5.5-2.3c8.1-3.4,16.4-6.9,25.3-6.3
	c8.6,0.6,14.8,2.8,22,5.2c2.8,1,5.7,2,9,3c6,1.8,11.7,3.1,17.2,4.4c9.1,2.1,18.4,4.2,29.4,8.7c6.9,2.8,14,6.8,21.5,11.1
	c13.3,7.5,27.1,15.3,41.2,17.3c16.3,2.3,34.2,0.1,49.9-1.8c3.5-0.4,6.8-0.8,10.1-1.2c24.1-2.6,46.5-8.5,72.6-19.3
	c7.4-3.1,14.1-7,20.6-10.7c9.2-5.4,17.9-10.4,28.6-13.4c11.9-3.3,23.8-1.1,36.9,1.9c4.9,1.1,9.7,2.6,14.4,4.1
	c6.9,2.2,14,4.4,21.4,5.4c0.2,0,0.4,0.2,0.3,0.4c0,0.2-0.2,0.3-0.4,0.3c-7.4-1-14.6-3.2-21.5-5.4c-4.7-1.5-9.5-3-14.3-4.1
	c-13-3-24.8-5.2-36.5-2c-10.6,2.9-19.2,8-28.4,13.3c-6.5,3.8-13.2,7.7-20.7,10.8c-26.2,10.8-48.7,16.8-72.9,19.4
	c-3.3,0.3-6.6,0.7-10.1,1.2C292.5,64.9,280.5,66.3,268.7,66.3z"/>
<path id="_x3C_Path_x3E__opacity:50_00000138550807257324720310000009520622210189636489_" fill="#53AC9F" d="M302.3,65.8
	c-15.6,0-32.5-1.8-47.8-3.5l-0.6-0.1c-20.6-2.2-43.2-12.6-61.4-20.8l-3.4-1.6c-5.9-2.7-11.1-5.2-16-7.6c-9.5-4.7-17.8-8.7-28.2-12.3
	c-10.2-3.5-18-4-27.9-4.6c-1.2-0.1-2.5-0.2-3.8-0.2c-9.4-0.6-20.1,1.3-31.7,5.8c-5.2,2-10.3,4-15.1,5.9c-4.6,1.8-9.3,3.6-14,5.5
	c-0.2,0.1-0.4,0-0.5-0.2c-0.1-0.2,0-0.4,0.2-0.5c4.8-1.8,9.5-3.7,14-5.5c4.9-1.9,9.9-3.9,15.2-5.9c11.7-4.5,22.5-6.4,32-5.8
	c1.3,0.1,2.6,0.2,3.8,0.2c10,0.6,17.8,1.1,28.1,4.7c10.5,3.7,18.7,7.7,28.3,12.4c5,2.4,10.1,4.9,16,7.6l3.4,1.6
	c18.1,8.3,40.7,18.6,61.2,20.8l0.7,0.1c19.2,2.1,40.9,4.4,59.5,3.1c18.8-1.4,34.1-8.6,50.4-16.3c6.6-3.1,13.3-6.3,20.3-9
	c5.4-2.1,10.6-4.3,15.6-6.5c11.8-5,22.9-9.7,35.7-13.2c11.2-3.1,24.9-3.6,38.4-1.5c7.4,1.1,14,3.8,20.4,6.4
	c4.3,1.7,8.7,3.5,13.4,4.8c0.2,0.1,0.3,0.3,0.3,0.5c-0.1,0.2-0.3,0.3-0.5,0.3c-4.7-1.3-9.1-3.1-13.4-4.8c-6.4-2.6-13-5.2-20.3-6.3
	c-13.4-2.1-27-1.6-38.1,1.5c-12.7,3.5-23.8,8.2-35.6,13.1c-5,2.1-10.2,4.3-15.6,6.5c-6.9,2.7-13.7,5.9-20.3,9
	c-15.6,7.4-31.7,15-50.6,16.4C310.4,65.7,306.4,65.8,302.3,65.8z"/>
<g>
	<path fill="#C5534E" d="M553.7,41.2c-5.9-0.7-10.6-5.4-11.3-11.3l-0.8-6.5l-0.8,6.5c-0.7,5.9-5.4,10.6-11.3,11.3L523,42l6.5,0.8
		c5.9,0.7,10.6,5.4,11.3,11.3l0.8,6.5l0.8-6.5c0.7-5.9,5.4-10.6,11.3-11.3l6.5-0.8L553.7,41.2z"/>
	<path fill="#53AC9F" d="M546.6,36c0.1-0.1,0.3-0.2,0.4-0.3l3.4-2.5l-2.5,3.4c-0.1,0.1-0.2,0.3-0.3,0.4c0.2,0.2,0.5,0.4,0.7,0.6
		c0.1-0.2,0.2-0.3,0.3-0.4l3.8-5.2c0.3-0.4,0-0.9-0.4-0.9c-0.1,0-0.2,0-0.3,0.1l-5.2,3.8c-0.1,0.1-0.3,0.2-0.4,0.3
		C546.3,35.5,546.4,35.7,546.6,36z"/>
	<path fill="#53AC9F" d="M534.5,37.1c0.1,0.1,0.2,0.3,0.3,0.4c0.2-0.2,0.5-0.4,0.7-0.6c-0.1-0.1-0.2-0.3-0.3-0.4l-2.5-3.4l3.4,2.5
		c0.1,0.1,0.3,0.2,0.4,0.3c0.2-0.2,0.4-0.5,0.6-0.7c-0.2-0.1-0.3-0.2-0.4-0.3l-5.2-3.8c-0.1-0.1-0.2-0.1-0.3-0.1
		c-0.4,0-0.8,0.5-0.4,0.9L534.5,37.1z"/>
	<path fill="#53AC9F" d="M548.6,47c-0.1-0.1-0.2-0.3-0.3-0.4c-0.2,0.2-0.5,0.4-0.7,0.6c0.1,0.1,0.2,0.3,0.3,0.4l2.5,3.4l-3.4-2.5
		c-0.1-0.1-0.3-0.2-0.4-0.3c-0.2,0.2-0.4,0.5-0.6,0.7c0.2,0.1,0.3,0.2,0.4,0.3l5.2,3.8c0.1,0.1,0.2,0.1,0.3,0.1
		c0.4,0,0.8-0.5,0.4-0.9L548.6,47z"/>
	<path fill="#53AC9F" d="M536.5,48.1c-0.1,0.1-0.3,0.2-0.4,0.3l-3.4,2.5l2.5-3.4c0.1-0.1,0.2-0.3,0.3-0.4c-0.2-0.2-0.5-0.4-0.7-0.6
		c-0.1,0.2-0.2,0.3-0.3,0.4l-3.8,5.2c-0.3,0.4,0,0.9,0.4,0.9c0.1,0,0.2,0,0.3-0.1l5.2-3.8c0.1-0.1,0.3-0.2,0.4-0.3
		C536.9,48.5,536.7,48.3,536.5,48.1z"/>
	<path fill="#53AC9F" d="M549.3,54.7c-0.1-0.2-0.3-0.2-0.5-0.1c-0.2,0.1-0.2,0.3-0.1,0.5l2.2,3.8c0.1,0.1,0.2,0.2,0.3,0.2
		c0.1,0,0.1,0,0.2,0c0.2-0.1,0.2-0.3,0.1-0.5L549.3,54.7z"/>
	<path fill="#53AC9F" d="M533.8,29.3c0.1,0.1,0.2,0.2,0.3,0.2c0.1,0,0.1,0,0.2,0c0.2-0.1,0.2-0.3,0.1-0.5l-2.2-3.8
		c-0.1-0.2-0.3-0.2-0.5-0.1c-0.2,0.1-0.2,0.3-0.1,0.5L533.8,29.3z"/>
	<path fill="#53AC9F" d="M558.5,51.4l-3.8-2.2c-0.2-0.1-0.4,0-0.5,0.1c-0.1,0.2,0,0.4,0.1,0.5l3.8,2.2c0.1,0,0.1,0,0.2,0
		c0.1,0,0.2-0.1,0.3-0.2C558.7,51.7,558.6,51.5,558.5,51.4z"/>
	<path fill="#53AC9F" d="M524.7,32.7l3.8,2.2c0.1,0,0.1,0,0.2,0c0.1,0,0.2-0.1,0.3-0.2c0.1-0.2,0-0.4-0.1-0.5l-3.8-2.2
		c-0.2-0.1-0.4,0-0.5,0.1S524.5,32.6,524.7,32.7z"/>
	<path fill="#53AC9F" d="M554.7,34.9l3.8-2.2c0.1,0,0.1-0.1,0.1-0.1c0.1-0.1,0.1-0.2,0-0.4c-0.1-0.2-0.3-0.2-0.5-0.1l-3.8,2.2
		c-0.2,0.1-0.2,0.3-0.1,0.5C554.3,34.9,554.5,35,554.7,34.9z"/>
	<path fill="#53AC9F" d="M528.5,49.2l-3.8,2.2c-0.2,0.1-0.2,0.3-0.1,0.5c0.1,0.2,0.3,0.2,0.5,0.1l3.8-2.2c0.1,0,0.1-0.1,0.1-0.1
		c0.1-0.1,0.1-0.2,0-0.4C528.9,49.1,528.7,49.1,528.5,49.2z"/>
	<path fill="#53AC9F" d="M548.8,29.5c0.2,0.1,0.4,0,0.5-0.1l2.2-3.8c0-0.1,0-0.1,0-0.2c0-0.1-0.1-0.2-0.2-0.3
		c-0.2-0.1-0.4,0-0.5,0.1l-2.2,3.8C548.6,29.1,548.7,29.4,548.8,29.5z"/>
	<path fill="#53AC9F" d="M534.3,54.6c-0.2-0.1-0.4,0-0.5,0.1l-2.2,3.8c-0.1,0.2,0,0.4,0.1,0.5c0.2,0.1,0.4,0,0.5-0.1l2.2-3.8
		c0-0.1,0-0.1,0-0.2C534.5,54.8,534.4,54.7,534.3,54.6z"/>
	<path fill="#53AC9F" d="M545.2,54.4c0-0.1-0.2-0.2-0.3-0.2c-0.1,0-0.2,0.2-0.2,0.3l1,3.7c0,0.1,0.1,0.2,0.3,0.2c0,0,0,0,0.1,0
		c0.1,0,0.2-0.2,0.2-0.3L545.2,54.4z"/>
	<path fill="#53AC9F" d="M538,29.5c0,0.1,0.1,0.2,0.3,0.2c0,0,0,0,0.1,0c0.1,0,0.2-0.2,0.2-0.3l-1-3.7c0-0.1-0.2-0.2-0.3-0.2
		c-0.1,0-0.2,0.2-0.2,0.3L538,29.5z"/>
	<path fill="#53AC9F" d="M557.8,46.6c0.1,0,0.2-0.1,0.3-0.2c0-0.1,0-0.3-0.2-0.3l-3.7-1c-0.1,0-0.3,0-0.3,0.2c0,0.1,0,0.3,0.2,0.3
		L557.8,46.6C557.7,46.6,557.8,46.6,557.8,46.6z"/>
	<path fill="#53AC9F" d="M525.1,37.6c0,0.1,0,0.3,0.2,0.3l3.7,1c0,0,0,0,0.1,0c0.1,0,0.2-0.1,0.3-0.2c0-0.1,0-0.3-0.2-0.3l-3.7-1
		C525.3,37.4,525.2,37.5,525.1,37.6z"/>
	<path fill="#53AC9F" d="M554.2,38.9l3.7-1c0,0,0,0,0.1,0c0.1-0.1,0.2-0.2,0.1-0.3c0-0.1-0.2-0.2-0.3-0.2l-3.7,1
		c-0.1,0-0.2,0.2-0.2,0.3C553.9,38.9,554,38.9,554.2,38.9z"/>
	<path fill="#53AC9F" d="M529,45.1l-3.7,1c-0.1,0-0.2,0.2-0.2,0.3c0,0.1,0.2,0.2,0.3,0.2l3.7-1c0,0,0,0,0.1,0
		c0.1-0.1,0.2-0.2,0.1-0.3C529.3,45.1,529.1,45.1,529,45.1z"/>
	<path fill="#53AC9F" d="M544.9,29.8c0.1,0,0.3,0,0.3-0.2l1-3.7c0,0,0,0,0-0.1c0-0.1-0.1-0.2-0.2-0.3c-0.1,0-0.3,0-0.3,0.2l-1,3.7
		C544.6,29.6,544.7,29.7,544.9,29.8z"/>
	<path fill="#53AC9F" d="M538.3,54.3c-0.1,0-0.3,0-0.3,0.2l-1,3.7c0,0.1,0,0.3,0.2,0.3c0.1,0,0.3,0,0.3-0.2l1-3.7c0,0,0,0,0-0.1
		C538.5,54.4,538.4,54.3,538.3,54.3z"/>
</g>
<g>
	<path fill="#C5534E" d="M30.7,41.2c-5.9-0.7-10.6-5.4-11.3-11.3l-0.8-6.5l-0.8,6.5c-0.7,5.9-5.4,10.6-11.3,11.3L0,42l6.5,0.8
		c5.9,0.7,10.6,5.4,11.3,11.3l0.8,6.5l0.8-6.5c0.7-5.9,5.4-10.6,11.3-11.3l6.5-0.8L30.7,41.2z"/>
	<path fill="#53AC9F" d="M23.6,36c0.1-0.1,0.3-0.2,0.4-0.3l3.4-2.5l-2.5,3.4c-0.1,0.1-0.2,0.3-0.3,0.4c0.2,0.2,0.5,0.4,0.7,0.6
		c0.1-0.2,0.2-0.3,0.3-0.4l3.8-5.2c0.3-0.4,0-0.9-0.4-0.9c-0.1,0-0.2,0-0.3,0.1L23.5,35c-0.1,0.1-0.3,0.2-0.4,0.3
		C23.2,35.5,23.4,35.7,23.6,36z"/>
	<path fill="#53AC9F" d="M11.5,37.1c0.1,0.1,0.2,0.3,0.3,0.4c0.2-0.2,0.5-0.4,0.7-0.6c-0.1-0.1-0.2-0.3-0.3-0.4l-2.5-3.4l3.4,2.5
		c0.1,0.1,0.3,0.2,0.4,0.3c0.2-0.2,0.4-0.5,0.6-0.7c-0.2-0.1-0.3-0.2-0.4-0.3l-5.2-3.8C8.4,31,8.2,31,8.1,31c-0.4,0-0.8,0.5-0.4,0.9
		L11.5,37.1z"/>
	<path fill="#53AC9F" d="M25.6,47c-0.1-0.1-0.2-0.3-0.3-0.4c-0.2,0.2-0.5,0.4-0.7,0.6c0.1,0.1,0.2,0.3,0.3,0.4l2.5,3.4L24,48.4
		c-0.1-0.1-0.3-0.2-0.4-0.3c-0.2,0.2-0.4,0.5-0.6,0.7c0.2,0.1,0.3,0.2,0.4,0.3l5.2,3.8C28.8,53,28.9,53,29,53c0.4,0,0.8-0.5,0.4-0.9
		L25.6,47z"/>
	<path fill="#53AC9F" d="M13.5,48.1c-0.1,0.1-0.3,0.2-0.4,0.3l-3.4,2.5l2.5-3.4c0.1-0.1,0.2-0.3,0.3-0.4c-0.2-0.2-0.5-0.4-0.7-0.6
		c-0.1,0.2-0.2,0.3-0.3,0.4l-3.8,5.2c-0.3,0.4,0,0.9,0.4,0.9c0.1,0,0.2,0,0.3-0.1l5.2-3.8c0.1-0.1,0.3-0.2,0.4-0.3
		C13.9,48.5,13.7,48.3,13.5,48.1z"/>
	<path fill="#53AC9F" d="M26.3,54.7c-0.1-0.2-0.3-0.2-0.5-0.1c-0.2,0.1-0.2,0.3-0.1,0.5l2.2,3.8c0.1,0.1,0.2,0.2,0.3,0.2
		c0.1,0,0.1,0,0.2,0c0.2-0.1,0.2-0.3,0.1-0.5L26.3,54.7z"/>
	<path fill="#53AC9F" d="M10.8,29.3c0.1,0.1,0.2,0.2,0.3,0.2c0.1,0,0.1,0,0.2,0c0.2-0.1,0.2-0.3,0.1-0.5l-2.2-3.8
		C9.2,25,8.9,24.9,8.8,25c-0.2,0.1-0.2,0.3-0.1,0.5L10.8,29.3z"/>
	<path fill="#53AC9F" d="M35.5,51.4l-3.8-2.2c-0.2-0.1-0.4,0-0.5,0.1c-0.1,0.2,0,0.4,0.1,0.5l3.8,2.2c0.1,0,0.1,0,0.2,0
		c0.1,0,0.2-0.1,0.3-0.2C35.7,51.7,35.6,51.5,35.5,51.4z"/>
	<path fill="#53AC9F" d="M1.7,32.7l3.8,2.2c0.1,0,0.1,0,0.2,0c0.1,0,0.2-0.1,0.3-0.2c0.1-0.2,0-0.4-0.1-0.5l-3.8-2.2
		c-0.2-0.1-0.4,0-0.5,0.1C1.5,32.4,1.5,32.6,1.7,32.7z"/>
	<path fill="#53AC9F" d="M31.6,34.9l3.8-2.2c0.1,0,0.1-0.1,0.1-0.1c0.1-0.1,0.1-0.2,0-0.4c-0.1-0.2-0.3-0.2-0.5-0.1l-3.8,2.2
		c-0.2,0.1-0.2,0.3-0.1,0.5C31.3,34.9,31.5,35,31.6,34.9z"/>
	<path fill="#53AC9F" d="M5.5,49.2l-3.8,2.2c-0.2,0.1-0.2,0.3-0.1,0.5C1.7,52,1.9,52.1,2.1,52l3.8-2.2c0.1,0,0.1-0.1,0.1-0.1
		C6,49.6,6,49.4,6,49.3C5.9,49.1,5.7,49.1,5.5,49.2z"/>
	<path fill="#53AC9F" d="M25.8,29.5c0.2,0.1,0.4,0,0.5-0.1l2.2-3.8c0-0.1,0-0.1,0-0.2c0-0.1-0.1-0.2-0.2-0.3c-0.2-0.1-0.4,0-0.5,0.1
		L25.7,29C25.6,29.1,25.7,29.4,25.8,29.5z"/>
	<path fill="#53AC9F" d="M11.3,54.6c-0.2-0.1-0.4,0-0.5,0.1l-2.2,3.8c-0.1,0.2,0,0.4,0.1,0.5c0.2,0.1,0.4,0,0.5-0.1l2.2-3.8
		c0-0.1,0-0.1,0-0.2C11.5,54.8,11.4,54.7,11.3,54.6z"/>
	<path fill="#53AC9F" d="M22.2,54.4c0-0.1-0.2-0.2-0.3-0.2c-0.1,0-0.2,0.2-0.2,0.3l1,3.7c0,0.1,0.1,0.2,0.3,0.2c0,0,0,0,0.1,0
		c0.1,0,0.2-0.2,0.2-0.3L22.2,54.4z"/>
	<path fill="#53AC9F" d="M15,29.5c0,0.1,0.1,0.2,0.3,0.2c0,0,0,0,0.1,0c0.1,0,0.2-0.2,0.2-0.3l-1-3.7c0-0.1-0.2-0.2-0.3-0.2
		c-0.1,0-0.2,0.2-0.2,0.3L15,29.5z"/>
	<path fill="#53AC9F" d="M34.8,46.6c0.1,0,0.2-0.1,0.3-0.2c0-0.1,0-0.3-0.2-0.3l-3.7-1c-0.1,0-0.3,0-0.3,0.2c0,0.1,0,0.3,0.2,0.3
		L34.8,46.6C34.7,46.6,34.7,46.6,34.8,46.6z"/>
	<path fill="#53AC9F" d="M2.1,37.6c0,0.1,0,0.3,0.2,0.3l3.7,1c0,0,0,0,0.1,0c0.1,0,0.2-0.1,0.3-0.2c0-0.1,0-0.3-0.2-0.3l-3.7-1
		C2.3,37.4,2.2,37.5,2.1,37.6z"/>
	<path fill="#53AC9F" d="M31.1,38.9l3.7-1c0,0,0,0,0.1,0c0.1-0.1,0.2-0.2,0.1-0.3c0-0.1-0.2-0.2-0.3-0.2l-3.7,1
		c-0.1,0-0.2,0.2-0.2,0.3C30.9,38.9,31,38.9,31.1,38.9z"/>
	<path fill="#53AC9F" d="M6,45.1l-3.7,1c-0.1,0-0.2,0.2-0.2,0.3c0,0.1,0.2,0.2,0.3,0.2l3.7-1c0,0,0,0,0.1,0c0.1-0.1,0.2-0.2,0.1-0.3
		C6.3,45.1,6.1,45.1,6,45.1z"/>
	<path fill="#53AC9F" d="M21.9,29.8c0.1,0,0.3,0,0.3-0.2l1-3.7c0,0,0,0,0-0.1c0-0.1-0.1-0.2-0.2-0.3c-0.1,0-0.3,0-0.3,0.2l-1,3.7
		C21.6,29.6,21.7,29.7,21.9,29.8z"/>
	<path fill="#53AC9F" d="M15.3,54.3c-0.1,0-0.3,0-0.3,0.2l-1,3.7c0,0.1,0,0.3,0.2,0.3c0.1,0,0.3,0,0.3-0.2l1-3.7c0,0,0,0,0-0.1
		C15.5,54.4,15.4,54.3,15.3,54.3z"/>
</g>
<path fill="#FFFFFF" d="M193.7,34c-0.3-0.4-0.6-0.8-0.9-1.2c-0.1-0.2-0.2-0.6-0.3-0.8c0.2,0.2,0.5,0.3,0.7,0.5
	c0.2,0.1,0.3,0.3,0.4,0.5c0.5-0.6-0.3-0.9-0.2-1.4c0.6-0.2,0.8-0.6,0.4-1.2c-0.1-0.2-0.2-0.5-0.2-0.5c0.3-0.1,0.6-0.3,0.9-0.3
	c0.7,0.2,0.7,0.5,0.2,1c-0.4,0.4-0.3,0.8,0.2,1.2c-0.2,0.4-0.5,0.8-0.7,1.2c0.1,0.1,0.1,0.1,0.2,0.2c0.3-0.2,0.6-0.4,0.9-0.6
	c0.1-0.1,0.3,0,0.5-0.1c0,0.2,0,0.4-0.1,0.5c-0.2,0.2-0.5,0.4-0.8,0.6c-0.2,0.2-0.4,0.4-0.7,0.6c0.3,0.4,0.6,0.4,0.9,0.1
	c0.5-0.4,1-0.7,1.1-1.4c0.1-0.6,0.4-0.1,0.7,0.2c0.3-0.5,0.6-0.9,0.9-1.4c0.3,0.1,0.5,0.2,0.8,0.3c0,0.2,0.1,0.5,0.1,0.7
	c0,0.1-0.2,0.3-0.4,0.3c-0.4,0.1-0.8,0.2-1.2,0.3c0.1,0.3,0.2,0.5,0.3,0.6c-0.2,0.1-0.4,0.2-0.5,0.1c-0.9-0.1-1.2,0.7-1.8,1.1
	c-0.1,0,0,0.4,0.1,0.4c0.1,0.1,0.3,0.1,0.4,0c0.4-0.3,0.7-0.6,1.1-0.8c0.2-0.1,0.4-0.1,0.6-0.2c-0.1,0.2-0.1,0.4-0.3,0.5
	c-0.2,0.2-0.4,0.4-0.7,0.7c0.6,0.5,0.9-0.2,1.4-0.2c0.3,0.7,0.7,0.8,1.3,0.4c0.3-0.2,0.5-0.3,0.5,0.2c0,0.2,0.4,0.3,0.1,0.7
	c-0.4,0.4-0.6,0.5-1,0c-0.3-0.4-0.8-0.2-1.2,0.2c-0.4-0.1-0.6-0.9-1.3-0.5c0.2,0.2,0.3,0.4,0.4,0.6c0.1,0.2,0.3,0.7,0.3,0.7
	c-0.4,0.3-0.5-0.2-0.7-0.4c-0.2-0.3-0.4-0.6-0.7-0.8c-0.2-0.1-0.5-0.3-0.6-0.2c-0.4,0.2-0.2,0.5,0,0.7c0.4,0.5,0.8,1.2,1.6,1.2
	c0.1,0,0.1,0.1,0.2,0.2c-0.1,0.1-0.2,0.3-0.4,0.5c0.3,0.2,0.5,0.5,0.8,0.6c0.4,0.2,0.8,0.2,0.3,0.7c-0.1,0.1-0.1,0.2-0.1,0.3
	c-0.3,0.1-0.6,0.1-0.8,0.2c-0.2-0.5-0.3-1-0.5-1.6c-0.7,0.4-0.8,0.3-0.7-0.3c0-0.4-0.7-1.6-1.1-1.7c-0.1,0-0.3,0-0.5,0.1
	c0,0.1,0,0.3,0.1,0.4c0.3,0.4,0.6,0.7,0.8,1.1c0.1,0.2,0.1,0.5,0.2,0.7c-0.2-0.1-0.4-0.2-0.6-0.3c-0.2-0.2-0.4-0.4-0.6-0.6
	c-0.4,0.6,0.2,0.9,0.2,1.4c-0.7,0.3-0.8,0.7-0.4,1.3c0.1,0.1,0.1,0.5,0.1,0.5c-0.3,0.1-0.6,0.2-0.9,0.2c-0.2,0-0.4-0.3-0.6-0.5
	c0.2-0.5,1.3-1,0.2-1.7c0.2-0.4,0.5-0.8,0.7-1.1c-0.1-0.1-0.1-0.1-0.2-0.2c-0.3,0.2-0.6,0.4-0.9,0.6c-0.1,0.1-0.3,0-0.4,0.1
	c0-0.1,0-0.4,0.1-0.4c0.4-0.3,0.8-0.6,1.2-1c0.1-0.1,0.2-0.3,0.2-0.5c-0.2,0-0.5-0.1-0.6-0.1c-0.5,0.4-1.3,0.6-1.3,1.5
	c0,0.1-0.2,0.3-0.2,0.3c-0.2-0.1-0.3-0.2-0.6-0.4c-0.2,0.4-0.4,0.8-0.6,1.2c-0.1,0.2-0.2,0.4-0.5,0.2c0,0-0.6-0.8-0.6-0.8
	c-0.2-0.4,0.1-0.4,0.3-0.4c0.4-0.1,0.8-0.2,1.3-0.4c-0.2-0.3-0.3-0.4-0.4-0.5c0.1-0.1,0.2-0.2,0.3-0.2c0.9,0.2,1.4-0.5,1.9-1
	c0.1-0.1,0.1-0.4,0.1-0.5c-0.2,0-0.4-0.1-0.5,0c-0.4,0.3-0.8,0.6-1.2,0.9c-0.2,0.1-0.4,0.1-0.6,0.1c0.1-0.2,0.1-0.4,0.3-0.5
	c0.2-0.2,0.5-0.3,0.8-0.5c-0.7-0.5-1,0.1-1.5,0.1c-0.3-0.7-0.6-0.8-1.3-0.4c-0.1,0.1-0.5,0.1-0.5,0c-0.1-0.3-0.3-0.6-0.2-0.8
	c0.3-0.6,0.5-0.6,1-0.2c0.4,0.4,0.9,0.3,1.2-0.3c0.5,0.1,0.7,0.9,1.4,0.6c-0.2-0.3-0.5-0.7-0.7-1c-0.1-0.1,0-0.3,0-0.4
	c0.1,0,0.3,0,0.4,0.1c0.3,0.4,0.6,0.8,1,1.2c0.1,0.1,0.4,0.1,0.6,0.2c0-0.2,0.1-0.5,0-0.6c-0.4-0.5-0.7-1.2-1.6-1.3
	c-0.6-0.1-0.1-0.4,0.2-0.7c-0.4-0.2-0.8-0.5-1.2-0.7c-0.2-0.1-0.4-0.2-0.2-0.5c0-0.1,0.1-0.1,0.1-0.2c-0.1-0.8,0.6-0.1,0.8-0.5
	c0.1,0.2,0.2,0.4,0.2,0.6c0.1,0.6,0.3,0.7,0.8,0.7c0.1,0,0.3,0.3,0.3,0.4c-0.2,0.8,0.5,1.2,1,1.7c0.1,0.1,0.4,0.1,0.6,0.1
	C193.6,34.1,193.6,34,193.7,34z M193.9,34.8c-0.5-0.1-1,0.3-1,0.7c-0.1,0.4,0.3,0.9,0.8,1c0.5,0.1,1-0.3,1-0.7
	C194.8,35.4,194.3,34.9,193.9,34.8z"/>
<path fill="#FFFFFF" d="M167.6,27.7c-0.2-0.3-0.4-0.5-0.6-0.8c-0.1-0.2-0.1-0.4-0.2-0.6c0.2,0.1,0.3,0.2,0.5,0.3
	c0.1,0.1,0.2,0.2,0.3,0.4c0.4-0.4-0.2-0.7-0.2-1c0.5-0.1,0.6-0.4,0.3-0.9c-0.1-0.1-0.1-0.4-0.1-0.4c0.2-0.1,0.5-0.2,0.6-0.2
	c0.5,0.2,0.5,0.3,0.2,0.7c-0.3,0.3-0.2,0.6,0.2,0.8c-0.2,0.3-0.3,0.5-0.5,0.8c0,0,0.1,0.1,0.1,0.1c0.2-0.1,0.4-0.3,0.6-0.4
	c0.1-0.1,0.2,0,0.3,0c0,0.1,0,0.3-0.1,0.3c-0.2,0.2-0.4,0.3-0.5,0.4c-0.2,0.1-0.3,0.3-0.5,0.4c0.2,0.3,0.4,0.3,0.7,0.1
	c0.3-0.3,0.7-0.5,0.8-1c0.1-0.4,0.3-0.1,0.5,0.1c0.2-0.3,0.4-0.7,0.6-1c0.2,0.1,0.4,0.1,0.6,0.2c0,0.2,0.1,0.3,0.1,0.5
	c0,0.1-0.1,0.2-0.2,0.2c-0.3,0.1-0.6,0.2-0.9,0.2c0.1,0.2,0.1,0.3,0.2,0.4c-0.1,0-0.2,0.1-0.4,0.1c-0.6-0.1-0.9,0.5-1.3,0.8
	c0,0,0,0.3,0.1,0.3c0.1,0.1,0.2,0,0.3,0c0.3-0.2,0.5-0.4,0.8-0.6c0.1-0.1,0.3-0.1,0.4-0.1c-0.1,0.1-0.1,0.3-0.2,0.4
	c-0.1,0.2-0.3,0.3-0.5,0.5c0.4,0.3,0.6-0.2,1-0.2c0.2,0.5,0.5,0.6,0.9,0.3c0.2-0.1,0.4-0.2,0.4,0.2c0,0.2,0.3,0.2,0.1,0.5
	c-0.3,0.3-0.4,0.3-0.7,0c-0.2-0.3-0.6-0.2-0.8,0.2c-0.3-0.1-0.4-0.6-0.9-0.4c0.1,0.1,0.2,0.3,0.3,0.4c0.1,0.2,0.2,0.5,0.2,0.5
	c-0.3,0.2-0.4-0.1-0.5-0.3c-0.2-0.2-0.3-0.4-0.5-0.6c-0.1-0.1-0.3-0.2-0.4-0.2c-0.3,0.1-0.1,0.3,0,0.5c0.3,0.4,0.5,0.8,1.1,0.9
	c0,0,0.1,0.1,0.1,0.1c-0.1,0.1-0.2,0.2-0.3,0.3c0.2,0.2,0.4,0.4,0.6,0.5c0.3,0.1,0.6,0.1,0.2,0.5c-0.1,0.1,0,0.2-0.1,0.2
	c-0.2,0-0.4,0.1-0.6,0.1c-0.1-0.4-0.2-0.7-0.4-1.1c-0.5,0.3-0.5,0.2-0.5-0.2c0-0.3-0.5-1.1-0.8-1.2c-0.1,0-0.2,0-0.3,0
	c0,0.1,0,0.2,0,0.3c0.2,0.3,0.4,0.5,0.6,0.8c0.1,0.1,0.1,0.3,0.1,0.5c-0.1-0.1-0.3-0.1-0.4-0.2c-0.1-0.1-0.3-0.3-0.4-0.4
	c-0.3,0.4,0.2,0.7,0.2,1c-0.5,0.2-0.5,0.5-0.3,0.9c0.1,0.1,0.1,0.3,0.1,0.3c-0.2,0.1-0.4,0.2-0.6,0.1c-0.1,0-0.3-0.2-0.4-0.3
	c0.1-0.4,0.9-0.7,0.1-1.2c0.2-0.3,0.3-0.5,0.5-0.8c0,0-0.1-0.1-0.1-0.1c-0.2,0.1-0.4,0.3-0.7,0.4c-0.1,0-0.2,0-0.3,0
	c0-0.1,0-0.3,0.1-0.3c0.3-0.2,0.6-0.4,0.8-0.7c0.1-0.1,0.1-0.2,0.2-0.4c-0.2,0-0.4-0.1-0.4,0c-0.4,0.3-0.9,0.5-0.9,1.1
	c0,0.1-0.1,0.2-0.1,0.2c-0.1-0.1-0.2-0.1-0.4-0.3c-0.2,0.3-0.3,0.5-0.4,0.8c-0.1,0.2-0.1,0.3-0.3,0.1c0,0-0.4-0.5-0.4-0.6
	c-0.1-0.3,0.1-0.2,0.2-0.3c0.3-0.1,0.6-0.2,0.9-0.3c-0.1-0.2-0.2-0.3-0.3-0.4c0.1,0,0.2-0.1,0.2-0.1c0.6,0.1,1-0.4,1.4-0.7
	c0.1-0.1,0-0.3,0.1-0.4c-0.1,0-0.3-0.1-0.4,0c-0.3,0.2-0.5,0.4-0.8,0.6c-0.1,0.1-0.3,0-0.4,0.1c0.1-0.1,0.1-0.3,0.2-0.4
	c0.2-0.1,0.4-0.2,0.6-0.4c-0.5-0.4-0.7,0.1-1,0.1c-0.2-0.5-0.4-0.5-0.9-0.3c-0.1,0.1-0.3,0.1-0.3,0c-0.1-0.2-0.2-0.4-0.2-0.6
	c0.2-0.4,0.3-0.4,0.7-0.1c0.3,0.3,0.6,0.2,0.8-0.2c0.4,0.1,0.5,0.6,1,0.4c-0.2-0.2-0.3-0.5-0.5-0.7c0-0.1,0-0.2,0-0.3
	c0.1,0,0.2,0,0.3,0.1c0.2,0.3,0.5,0.6,0.7,0.9c0.1,0.1,0.3,0.1,0.4,0.1c0-0.1,0.1-0.3,0-0.4c-0.3-0.4-0.5-0.8-1.1-1
	c-0.4-0.1-0.1-0.3,0.1-0.5c-0.3-0.2-0.6-0.3-0.8-0.5c-0.2-0.1-0.3-0.1-0.1-0.3c0,0,0.1-0.1,0.1-0.1c-0.1-0.6,0.5-0.1,0.6-0.3
	c0.1,0.1,0.2,0.3,0.2,0.4c0,0.4,0.2,0.5,0.6,0.5c0.1,0,0.2,0.2,0.2,0.3c-0.1,0.6,0.4,0.9,0.7,1.2c0.1,0.1,0.3,0,0.4,0.1
	C167.6,27.8,167.6,27.7,167.6,27.7z M167.8,28.3c-0.3,0-0.7,0.2-0.7,0.5c-0.1,0.3,0.2,0.7,0.6,0.7c0.3,0,0.7-0.2,0.7-0.5
	C168.4,28.7,168.1,28.3,167.8,28.3z"/>
<path fill="#FFFFFF" d="M320.9,59.9c-0.2-0.3-0.4-0.5-0.6-0.8c-0.1-0.2-0.1-0.4-0.2-0.6c0.2,0.1,0.3,0.2,0.5,0.3
	c0.1,0.1,0.2,0.2,0.3,0.4c0.4-0.4-0.2-0.7-0.2-1c0.5-0.1,0.6-0.4,0.3-0.9c-0.1-0.1-0.1-0.4-0.1-0.4c0.2-0.1,0.5-0.2,0.6-0.2
	c0.5,0.2,0.5,0.3,0.2,0.7c-0.3,0.3-0.2,0.6,0.2,0.8c-0.2,0.3-0.3,0.5-0.5,0.8c0,0,0.1,0.1,0.1,0.1c0.2-0.1,0.4-0.3,0.6-0.4
	c0.1-0.1,0.2,0,0.3,0c0,0.1,0,0.3-0.1,0.3c-0.2,0.2-0.4,0.3-0.5,0.4c-0.2,0.1-0.3,0.3-0.5,0.4c0.2,0.3,0.4,0.3,0.7,0.1
	c0.3-0.3,0.7-0.5,0.8-1c0.1-0.4,0.3-0.1,0.5,0.1c0.2-0.3,0.4-0.7,0.6-1c0.2,0.1,0.4,0.1,0.6,0.2c0,0.2,0.1,0.3,0.1,0.5
	c0,0.1-0.1,0.2-0.2,0.2c-0.3,0.1-0.6,0.2-0.9,0.2c0.1,0.2,0.1,0.3,0.2,0.4c-0.1,0-0.2,0.1-0.4,0.1c-0.6-0.1-0.9,0.5-1.3,0.8
	c0,0,0,0.3,0.1,0.3c0.1,0.1,0.2,0,0.3,0c0.3-0.2,0.5-0.4,0.8-0.6c0.1-0.1,0.3-0.1,0.4-0.1c-0.1,0.1-0.1,0.3-0.2,0.4
	c-0.1,0.2-0.3,0.3-0.5,0.5c0.4,0.3,0.6-0.2,1-0.2c0.2,0.5,0.5,0.6,0.9,0.3c0.2-0.1,0.4-0.2,0.4,0.2c0,0.2,0.3,0.2,0.1,0.5
	c-0.3,0.3-0.4,0.3-0.7,0c-0.2-0.3-0.6-0.2-0.8,0.2c-0.3-0.1-0.4-0.6-0.9-0.4c0.1,0.1,0.2,0.3,0.3,0.4c0.1,0.2,0.2,0.5,0.2,0.5
	c-0.3,0.2-0.4-0.1-0.5-0.3c-0.2-0.2-0.3-0.4-0.5-0.6c-0.1-0.1-0.3-0.2-0.4-0.2c-0.3,0.1-0.1,0.3,0,0.5c0.3,0.4,0.5,0.8,1.1,0.9
	c0,0,0.1,0.1,0.1,0.1c-0.1,0.1-0.2,0.2-0.3,0.3c0.2,0.2,0.4,0.4,0.6,0.5c0.3,0.1,0.6,0.1,0.2,0.5c-0.1,0.1,0,0.2-0.1,0.2
	c-0.2,0-0.4,0.1-0.6,0.1c-0.1-0.4-0.2-0.7-0.4-1.1c-0.5,0.3-0.5,0.2-0.5-0.2c0-0.3-0.5-1.1-0.8-1.2c-0.1,0-0.2,0-0.3,0
	c0,0.1,0,0.2,0,0.3c0.2,0.3,0.4,0.5,0.6,0.8c0.1,0.1,0.1,0.3,0.1,0.5c-0.1-0.1-0.3-0.1-0.4-0.2c-0.1-0.1-0.3-0.3-0.4-0.4
	c-0.3,0.4,0.2,0.7,0.2,1c-0.5,0.2-0.5,0.5-0.3,0.9c0.1,0.1,0.1,0.3,0.1,0.3c-0.2,0.1-0.4,0.2-0.6,0.1c-0.1,0-0.3-0.2-0.4-0.3
	c0.1-0.4,0.9-0.7,0.1-1.2c0.2-0.3,0.3-0.5,0.5-0.8c0,0-0.1-0.1-0.1-0.1c-0.2,0.1-0.4,0.3-0.7,0.4c-0.1,0-0.2,0-0.3,0
	c0-0.1,0-0.3,0.1-0.3c0.3-0.2,0.6-0.4,0.8-0.7c0.1-0.1,0.1-0.2,0.2-0.4c-0.2,0-0.4-0.1-0.4,0c-0.4,0.3-0.9,0.5-0.9,1.1
	c0,0.1-0.1,0.2-0.1,0.2c-0.1-0.1-0.2-0.1-0.4-0.3c-0.2,0.3-0.3,0.5-0.4,0.8c-0.1,0.2-0.1,0.3-0.3,0.1c0,0-0.4-0.5-0.4-0.6
	c-0.1-0.3,0.1-0.2,0.2-0.3c0.3-0.1,0.6-0.2,0.9-0.3c-0.1-0.2-0.2-0.3-0.3-0.4c0.1,0,0.2-0.1,0.2-0.1c0.6,0.1,1-0.4,1.4-0.7
	c0.1-0.1,0-0.3,0.1-0.4c-0.1,0-0.3-0.1-0.4,0c-0.3,0.2-0.5,0.4-0.8,0.6c-0.1,0.1-0.3,0-0.4,0.1c0.1-0.1,0.1-0.3,0.2-0.4
	c0.2-0.1,0.4-0.2,0.6-0.4c-0.5-0.4-0.7,0.1-1,0.1c-0.2-0.5-0.4-0.5-0.9-0.3c-0.1,0.1-0.3,0.1-0.3,0c-0.1-0.2-0.2-0.4-0.2-0.6
	c0.2-0.4,0.3-0.4,0.7-0.1c0.3,0.3,0.6,0.2,0.8-0.2c0.4,0.1,0.5,0.6,1,0.4c-0.2-0.2-0.3-0.5-0.5-0.7c0-0.1,0-0.2,0-0.3
	c0.1,0,0.2,0,0.3,0.1c0.2,0.3,0.5,0.6,0.7,0.9c0.1,0.1,0.3,0.1,0.4,0.1c0-0.1,0.1-0.3,0-0.4c-0.3-0.4-0.5-0.8-1.1-1
	c-0.4-0.1-0.1-0.3,0.1-0.5c-0.3-0.2-0.6-0.3-0.8-0.5c-0.2-0.1-0.3-0.1-0.1-0.3c0,0,0.1-0.1,0.1-0.1c-0.1-0.6,0.5-0.1,0.6-0.3
	c0.1,0.1,0.2,0.3,0.2,0.4c0,0.4,0.2,0.5,0.6,0.5c0.1,0,0.2,0.2,0.2,0.3c-0.1,0.6,0.4,0.9,0.7,1.2c0.1,0.1,0.3,0,0.4,0.1
	C320.8,60,320.9,59.9,320.9,59.9z M321,60.5c-0.3,0-0.7,0.2-0.7,0.5c-0.1,0.3,0.2,0.7,0.6,0.7c0.3,0,0.7-0.2,0.7-0.5
	C321.7,60.9,321.4,60.5,321,60.5z"/>
<path fill="#FFFFFF" d="M222.4,53.9c-0.3-0.4-0.6-0.8-0.9-1.2c-0.2-0.3-0.2-0.6-0.3-0.9c0.2,0.2,0.5,0.3,0.7,0.5
	c0.2,0.1,0.3,0.3,0.4,0.5c0.5-0.6-0.3-1-0.2-1.5c0.7-0.2,0.8-0.7,0.5-1.3c-0.1-0.2-0.2-0.6-0.2-0.6c0.3-0.1,0.7-0.4,0.9-0.3
	c0.7,0.2,0.7,0.5,0.2,1.1c-0.4,0.5-0.3,0.9,0.2,1.3c-0.3,0.4-0.5,0.8-0.8,1.2c0.1,0.1,0.1,0.1,0.2,0.2c0.3-0.2,0.6-0.5,0.9-0.7
	c0.1-0.1,0.3,0,0.5-0.1c0,0.2,0,0.4-0.1,0.5c-0.2,0.2-0.5,0.4-0.8,0.6c-0.2,0.2-0.5,0.4-0.7,0.7c0.3,0.4,0.6,0.4,1,0.1
	c0.5-0.4,1.1-0.7,1.2-1.5c0.1-0.6,0.4-0.1,0.7,0.2c0.3-0.5,0.6-1,0.9-1.5c0.3,0.1,0.6,0.2,0.8,0.3c0,0.2,0.1,0.5,0.1,0.7
	c0,0.1-0.2,0.3-0.4,0.4c-0.4,0.1-0.8,0.2-1.3,0.4c0.1,0.3,0.2,0.5,0.3,0.7c-0.2,0.1-0.4,0.2-0.5,0.2c-0.9-0.1-1.3,0.7-1.9,1.2
	c-0.1,0,0,0.4,0.1,0.5c0.1,0.1,0.4,0.1,0.5,0c0.4-0.3,0.8-0.6,1.2-0.9c0.2-0.1,0.4-0.1,0.6-0.2c-0.1,0.2-0.1,0.4-0.3,0.6
	c-0.2,0.2-0.5,0.5-0.7,0.7c0.6,0.5,1-0.3,1.4-0.3c0.3,0.7,0.7,0.8,1.4,0.4c0.3-0.2,0.6-0.3,0.6,0.3c0,0.2,0.4,0.4,0.1,0.8
	c-0.4,0.5-0.6,0.5-1,0c-0.3-0.4-0.8-0.3-1.2,0.3c-0.5-0.1-0.6-0.9-1.4-0.6c0.2,0.2,0.3,0.4,0.4,0.6c0.1,0.2,0.3,0.7,0.3,0.7
	c-0.4,0.3-0.5-0.2-0.7-0.4c-0.2-0.3-0.4-0.6-0.7-0.8c-0.2-0.2-0.5-0.3-0.6-0.3c-0.4,0.2-0.2,0.5,0,0.8c0.5,0.6,0.8,1.3,1.7,1.3
	c0.1,0,0.1,0.1,0.2,0.2c-0.1,0.1-0.2,0.3-0.4,0.5c0.3,0.2,0.5,0.6,0.9,0.7c0.4,0.2,0.9,0.2,0.4,0.7c-0.1,0.1-0.1,0.3-0.1,0.4
	c-0.3,0.1-0.6,0.1-0.9,0.2c-0.2-0.5-0.4-1.1-0.5-1.7c-0.7,0.4-0.8,0.4-0.8-0.3c0-0.4-0.8-1.6-1.2-1.7c-0.2,0-0.3,0-0.5,0.1
	c0,0.2,0,0.3,0.1,0.4c0.3,0.4,0.6,0.7,0.8,1.1c0.1,0.2,0.1,0.5,0.2,0.7c-0.2-0.1-0.4-0.2-0.6-0.4c-0.2-0.2-0.4-0.4-0.6-0.7
	c-0.4,0.6,0.2,1,0.2,1.4c-0.7,0.3-0.8,0.7-0.4,1.4c0.1,0.1,0.1,0.5,0.1,0.5c-0.3,0.1-0.6,0.2-1,0.2c-0.2,0-0.4-0.3-0.6-0.5
	c0.2-0.6,1.4-1,0.2-1.8c0.3-0.4,0.5-0.8,0.8-1.2c-0.1-0.1-0.1-0.1-0.2-0.2c-0.3,0.2-0.6,0.4-1,0.6c-0.1,0.1-0.3,0.1-0.4,0.1
	c0-0.2,0-0.4,0.1-0.5c0.4-0.4,0.8-0.7,1.2-1c0.1-0.1,0.2-0.4,0.3-0.5c-0.2,0-0.5-0.2-0.7-0.1c-0.6,0.4-1.3,0.7-1.4,1.6
	c0,0.1-0.2,0.3-0.2,0.3c-0.2-0.1-0.3-0.2-0.6-0.4c-0.2,0.4-0.5,0.8-0.7,1.2c-0.1,0.2-0.2,0.4-0.5,0.2c0,0-0.6-0.8-0.7-0.8
	c-0.2-0.4,0.1-0.4,0.3-0.4c0.4-0.1,0.8-0.2,1.3-0.4c-0.2-0.3-0.3-0.4-0.4-0.6c0.1-0.1,0.2-0.2,0.3-0.2c0.9,0.2,1.4-0.6,2-1
	c0.1-0.1,0.1-0.4,0.1-0.6c-0.2,0-0.4-0.1-0.5,0c-0.4,0.3-0.8,0.6-1.2,0.9c-0.2,0.1-0.4,0.1-0.6,0.1c0.1-0.2,0.1-0.4,0.3-0.5
	c0.2-0.2,0.5-0.4,0.9-0.6c-0.7-0.6-1.1,0.1-1.6,0.2c-0.3-0.7-0.7-0.8-1.4-0.4c-0.1,0.1-0.5,0.1-0.5,0c-0.1-0.3-0.3-0.7-0.2-0.9
	c0.3-0.7,0.5-0.7,1.1-0.2c0.5,0.4,0.9,0.3,1.2-0.3c0.5,0.1,0.8,0.9,1.5,0.6c-0.2-0.4-0.5-0.7-0.7-1.1c-0.1-0.1,0-0.3,0-0.4
	c0.1,0,0.3,0,0.4,0.1c0.4,0.4,0.7,0.9,1.1,1.3c0.1,0.1,0.4,0.1,0.6,0.2c0-0.2,0.1-0.5,0-0.6c-0.5-0.6-0.8-1.3-1.6-1.4
	c-0.6-0.1-0.1-0.4,0.2-0.7c-0.4-0.3-0.8-0.5-1.2-0.7c-0.3-0.1-0.5-0.2-0.2-0.5c0.1-0.1,0.1-0.1,0.1-0.2c-0.1-0.9,0.7-0.2,0.9-0.5
	c0.1,0.2,0.2,0.4,0.3,0.6c0.1,0.6,0.3,0.8,0.8,0.8c0.1,0,0.4,0.3,0.3,0.4c-0.2,0.9,0.6,1.3,1,1.8c0.1,0.1,0.4,0.1,0.7,0.1
	C222.3,54.1,222.3,54,222.4,53.9z M222.6,54.8c-0.5-0.1-1,0.3-1.1,0.8c-0.1,0.5,0.4,1,0.9,1.1c0.5,0.1,1-0.3,1.1-0.7
	C223.5,55.4,223.1,54.9,222.6,54.8z"/>
<path fill="#FFFFFF" d="M354.1,52.9c-0.1-0.4-0.3-0.8-0.4-1.2c-0.1-0.2,0-0.5,0-0.7c0.1,0.2,0.3,0.4,0.4,0.6
	c0.1,0.1,0.1,0.3,0.2,0.5c0.6-0.3,0-0.8,0.2-1.2c0.6,0,0.8-0.3,0.7-0.8c0-0.2,0-0.5,0-0.5c0.3,0,0.6-0.1,0.8,0
	c0.5,0.4,0.4,0.5-0.1,0.9c-0.4,0.2-0.5,0.6-0.1,1c-0.3,0.2-0.6,0.5-0.9,0.7c0,0.1,0.1,0.1,0.1,0.2c0.3-0.1,0.6-0.2,0.8-0.3
	c0.1,0,0.3,0,0.4,0.1c-0.1,0.1-0.1,0.3-0.2,0.3c-0.2,0.1-0.5,0.2-0.8,0.3c-0.2,0.1-0.5,0.2-0.7,0.3c0.2,0.4,0.4,0.5,0.7,0.4
	c0.5-0.2,1-0.3,1.3-0.8c0.2-0.4,0.3,0,0.5,0.3c0.4-0.3,0.7-0.6,1.1-0.9c0.2,0.1,0.4,0.3,0.5,0.4c0,0.2,0,0.4-0.1,0.6
	c0,0.1-0.2,0.2-0.4,0.2c-0.3,0-0.7,0-1-0.1c0,0.3,0,0.4,0.1,0.6c-0.1,0-0.3,0-0.4,0c-0.7-0.3-1.1,0.2-1.7,0.4c-0.1,0-0.1,0.3,0,0.4
	c0,0.1,0.2,0.1,0.4,0.1c0.4-0.1,0.7-0.3,1.1-0.4c0.2,0,0.3,0,0.5,0c-0.1,0.1-0.2,0.3-0.3,0.4c-0.2,0.1-0.4,0.2-0.7,0.3
	c0.3,0.5,0.8,0.1,1.1,0.2c0.1,0.6,0.3,0.8,0.9,0.6c0.3-0.1,0.5-0.1,0.4,0.3c-0.1,0.2,0.2,0.4-0.1,0.6c-0.4,0.2-0.6,0.2-0.8-0.2
	c-0.2-0.4-0.6-0.4-1-0.1c-0.3-0.2-0.2-0.8-0.9-0.8c0.1,0.2,0.1,0.4,0.2,0.6c0,0.2,0.1,0.6,0,0.6c-0.4,0.1-0.3-0.3-0.4-0.5
	c-0.1-0.3-0.2-0.6-0.3-0.8c-0.1-0.2-0.3-0.4-0.4-0.3c-0.3,0.1-0.3,0.3-0.2,0.6c0.2,0.5,0.3,1.1,0.9,1.4c0,0,0.1,0.1,0.1,0.2
	c-0.1,0.1-0.2,0.1-0.4,0.3c0.2,0.2,0.3,0.5,0.5,0.7c0.3,0.2,0.6,0.3,0.1,0.6c-0.1,0-0.1,0.2-0.2,0.2c-0.3,0-0.5-0.1-0.7-0.1
	c0-0.4,0-0.9,0-1.4c-0.6,0.1-0.7,0.1-0.5-0.5c0.1-0.3-0.2-1.4-0.4-1.6c-0.1-0.1-0.3-0.1-0.4-0.1c0,0.1-0.1,0.2-0.1,0.3
	c0.1,0.4,0.3,0.7,0.3,1c0,0.2,0,0.4,0,0.6c-0.1-0.1-0.3-0.3-0.4-0.4c-0.1-0.2-0.2-0.4-0.3-0.6c-0.5,0.3-0.1,0.8-0.2,1.1
	c-0.6,0-0.8,0.3-0.7,0.9c0,0.1,0,0.4-0.1,0.4c-0.3,0-0.5,0-0.8-0.1c-0.1-0.1-0.2-0.3-0.3-0.5c0.3-0.4,1.3-0.4,0.6-1.3
	c0.3-0.2,0.6-0.5,0.9-0.7c0-0.1-0.1-0.1-0.1-0.2c-0.3,0.1-0.6,0.2-0.9,0.2c-0.1,0-0.2,0-0.3-0.1c0.1-0.1,0.1-0.3,0.2-0.3
	c0.4-0.2,0.8-0.3,1.2-0.4c0.1-0.1,0.2-0.2,0.3-0.3c-0.2-0.1-0.4-0.2-0.5-0.2c-0.5,0.2-1.2,0.2-1.4,0.8c0,0.1-0.2,0.2-0.2,0.2
	c-0.1-0.1-0.2-0.2-0.3-0.4c-0.3,0.3-0.5,0.5-0.8,0.8c-0.2,0.2-0.3,0.2-0.4,0c0,0-0.3-0.8-0.3-0.8c0-0.3,0.2-0.3,0.4-0.2
	c0.3,0,0.7,0,1.1,0c-0.1-0.3-0.1-0.4-0.1-0.5c0.1,0,0.2-0.1,0.3-0.1c0.7,0.4,1.2-0.1,1.8-0.2c0.1,0,0.1-0.3,0.2-0.4
	c-0.1,0-0.3-0.2-0.4-0.1c-0.4,0.1-0.8,0.3-1.1,0.4c-0.1,0-0.3-0.1-0.5-0.1c0.1-0.1,0.2-0.3,0.3-0.3c0.2-0.1,0.5-0.1,0.8-0.2
	c-0.4-0.6-0.8-0.2-1.2-0.3c-0.1-0.6-0.3-0.8-0.9-0.7c-0.1,0-0.4,0-0.4-0.1c0-0.2-0.1-0.6,0-0.7c0.4-0.4,0.5-0.4,0.8,0.1
	c0.3,0.4,0.6,0.4,1,0.1c0.4,0.2,0.3,0.9,0.9,0.8c-0.1-0.3-0.2-0.6-0.3-1c0-0.1,0.1-0.2,0.1-0.3c0.1,0.1,0.2,0.1,0.3,0.2
	c0.2,0.4,0.3,0.8,0.5,1.2c0.1,0.1,0.3,0.2,0.4,0.3c0.1-0.2,0.2-0.4,0.1-0.5c-0.2-0.5-0.2-1.1-0.9-1.5c-0.4-0.2,0-0.3,0.3-0.5
	c-0.3-0.3-0.5-0.6-0.7-0.8c-0.2-0.2-0.3-0.3,0-0.4c0.1,0,0.1-0.1,0.1-0.1c0.1-0.7,0.5,0.1,0.8-0.2c0,0.2,0.1,0.4,0,0.5
	c-0.1,0.5,0,0.7,0.4,0.8c0.1,0,0.2,0.3,0.2,0.4c-0.3,0.6,0.1,1.1,0.3,1.6c0,0.1,0.3,0.2,0.5,0.2C354,53,354.1,52.9,354.1,52.9z
	 M354.1,53.6c-0.3-0.2-0.8,0-1,0.3c-0.2,0.3,0,0.8,0.4,1c0.3,0.2,0.8,0,1-0.3C354.6,54.3,354.4,53.8,354.1,53.6z"/>
<g>
	<path fill="#53AC9F" d="M182.6,31.1c-2.2,0.1-4.7,0.3-7.1,0.5c-0.3,0-0.5,0.1-0.8,0.1c-1.3,0-2.2-0.7-2.2-1.7c0-1,0.9-1.9,2.1-1.9
		c2.8,0,5.5,0.2,8.3,0.2c3.8,0,7.6-0.1,11.4-0.2c0.2,0,0.3,0,0.5,0c1.8,0,2.7,0.6,2.8,1.8c0,1.1-0.6,1.6-2.5,1.8
		c-0.1,0-0.2,0.1-0.5,0.2c0,1.5,0,3,0,4.5c0.2,6.9,0.9,13.7,2.2,20.5c0.1,0.7,0.2,1.5,0.2,2.2c-0.1,1-0.7,1.8-1.8,1.9
		c-1.1,0.1-2-0.5-2.2-1.6c-0.3-1.5-0.4-3-0.5-4.5c-0.2-2.5-0.3-4.9-0.6-7.4c0-0.3-0.6-0.8-0.9-0.8c-4.5-0.1-9-0.1-13.5,0
		c-0.4,0-1,0.4-1.2,0.8c-2.7,5.5-5.4,11-8.1,16.5c-0.2,0.3,0,1.1,0.3,1.4c1.6,1.9,3.6,3.2,5.9,4.2c0.5,0.2,1,0.4,1.4,0.7
		c0.9,0.6,1.3,1.6,0.9,2.5c-0.3,0.7-1.2,1.3-1.9,1.5c-1.8,0.4-3.4-0.4-4.8-1.5c-1.6-1.3-3-2.8-4.5-4.2c-0.9,1.2-1.8,2.4-2.8,3.6
		c-0.5,0.7-1.2,1.4-1.9,1.7c-0.6,0.3-1.8,0.4-2.2,0c-0.5-0.5-0.8-1.7-0.5-2.3c0.5-1.2,1.5-2.2,2.3-3.2c0.9-1.1,2.4-2,2.6-3.1
		c0.1-1.1-1.2-2.4-1.8-3.6c-2.8-6-5.7-12-8.5-18.1c-1.7-3.8-3.6-7.4-7.4-9.6c-1-0.6-2.1-0.9-3.6-1.6c0,2.3-0.1,4.3,0,6.2
		c0.2,6.1,0.5,12.1,0.8,18.1c0,0.6,0.1,1.3,0.1,1.9c0,1.4-1,2.4-2.2,2.4c-1.3,0-2.3-1.1-2.2-2.5c0.1-1.4,0.3-2.8,0.4-4.1
		c0.2-3.3,0.5-6.6,0.5-9.8c0.1-3.8-0.1-7.5-0.2-11.3c0-0.4-0.4-0.9-0.8-1c-1-0.4-1.6-1-1.5-2.1c0.1-1.2,0.9-1.7,2-1.9
		c3.1-0.3,5.9,0.8,8.3,2.6c3.7,2.8,6.3,6.4,8.2,10.6c1.7,3.8,3.3,7.5,5,11.3c0.2,0.4,0.4,0.8,0.9,1.2c0-1.4,0.1-2.9,0-4.3
		c-0.2-4.3-0.4-8.6-0.7-13c-0.1-1.8-0.5-3.6-0.6-5.4c0-0.6,0.1-1.3,0.4-1.9c0.4-0.9,1.2-1.3,2.3-1.2c1,0.2,1.7,0.9,1.7,1.9
		c0.1,2,0,4.1,0,6.1c-0.2,7.3-0.4,14.5-0.4,21.8c0,1.3,1.2,2.7,2,4.2c3.6-4.9,5.7-10.1,8.1-15.1c-0.1-0.2-0.1-0.3-0.2-0.3
		c-1-0.3-1.9-0.8-1.6-2.1c0.2-1.3,1.2-1.7,2.3-1.6c1.1,0.1,1.6-0.4,2.2-1.4C178.3,38.1,180.5,34.6,182.6,31.1z M190.9,31.1
		c-2.4-0.3-4.3,0.7-5.7,2.3c-2,2.3-3.8,4.9-5.6,7.4c-0.5,0.6-0.7,1.4-1.2,2.2c4.5,0,8.9,0,13.2,0C191.4,38.9,191.1,35,190.9,31.1z"
		/>
	<path fill="#53AC9F" d="M342,38.4c1.1-1.3,2.3-2.8,3.6-4.1c2.1-2.2,4.4-4.4,7.3-5.5c1-0.4,2.2-0.6,3.3-0.7c1-0.1,1.9,0.2,2.1,1.4
		c0.2,1.2-0.5,1.9-1.5,2.3c-0.3,0.1-0.7,0.2-0.9,0.3c0,2.3-0.1,4.6,0,6.9c0.2,3.9,0.5,7.9,0.6,11.8c0.1,2,0.5,3.9,1.8,5.6
		c0.5,0.6,0.8,1.6,0.8,2.4c0,1.1-0.6,1.9-1.7,2.2c-1.1,0.3-2-0.2-2.3-1.2c-0.5-1.8-0.9-3.6-1.1-5.4c-0.8-6.6-1.6-13.3-2.4-20
		c0-0.3-0.2-0.6-0.4-1.3c-1.9,1.6-3.7,2.9-5.3,4.5c-2.8,2.7-2.8,2.7-1,6.2c1.5,3,2.5,6.2,1.6,9.6c-0.8,3-2.7,5.2-5.4,6.7
		c-1.7,1-3.4,0.9-5-0.2c-1.7-1.2-2.4-3-2.1-5c0.3-2,1-4,1.8-5.9c0.9-2,2.1-3.9,3.1-5.8c0.2-0.4,0.4-1.1,0.2-1.4
		c-2.4-3.4-5.2-6.3-9-8.2c-0.2-0.1-0.5-0.2-0.9-0.3c-0.3,1.6-0.6,3.1-0.7,4.6c-0.7,8-1.3,15.9-1.8,23.9c-0.2,2.8-0.2,5.5-0.3,8.3
		c0,0.6-0.1,1.2-0.2,1.8c-0.3,1.3-1.1,2.1-2.3,2.1c-1.2,0-2.2-0.9-2.2-2.2c0-1.4,0.1-2.9,0.4-4.3c1.6-10,3.2-20,3.5-30.1
		c0-1,0-1.9,0.1-2.9c0-1,0.1-1.9-1.1-2.6c-1.2-0.7-1-2.8,0.3-3.3c0.9-0.4,1.9-0.5,2.9-0.4c2.7,0.3,5,1.5,7,3.2
		C337,33.5,339.4,35.9,342,38.4z M340.7,44.5c-0.2-0.1-0.3-0.1-0.5-0.2c-1.1,2.4-2.2,4.7-3.1,7.2c-0.6,1.6-0.4,3.2,0.6,4.7
		c1,1.5,2.8,1.7,3.9,0.3c0.5-0.6,0.9-1.4,1.1-2.2C343.6,50.8,342.3,47.6,340.7,44.5z"/>
	<path fill="#53AC9F" d="M299.4,38.5c1.3-1.5,2.5-3,3.8-4.3c2.1-2.2,4.4-4.4,7.3-5.5c1-0.4,2.2-0.6,3.3-0.7c1-0.1,1.9,0.3,2.1,1.5
		c0.2,1.2-0.5,1.9-1.6,2.3c-0.3,0.1-0.7,0.2-0.9,0.2c0,2.4-0.1,4.8,0,7.2c0.2,4.2,0.5,8.4,0.7,12.6c0.1,1.7,0.6,3.1,1.7,4.4
		c0.7,0.9,1.3,1.9,0.8,3c-0.4,0.7-1.2,1.5-1.9,1.7c-0.6,0.1-1.8-0.6-2-1.1c-0.6-1.5-0.9-3.2-1.1-4.9c-0.8-6.8-1.6-13.6-2.4-20.4
		c0-0.3-0.2-0.7-0.3-1.1c-2.5,1.2-4.4,3-6.2,4.9c-2,2.2-2,2.2-0.7,4.8c1.3,2.5,2.4,5.1,2.3,8c-0.1,4.2-2.3,7.1-5.8,9.1
		c-3.6,2-7.5-0.9-7-5.2c0.2-1.8,0.7-3.6,1.5-5.2c1-2.2,2.2-4.3,3.4-6.4c0.4-0.7,0.5-1.3-0.1-2c-2.1-2.8-4.5-5.3-7.6-7.1
		c-0.6-0.3-1.2-0.6-2-1c-0.3,1.6-0.6,3-0.7,4.5c-0.7,8-1.3,16-1.9,24.1c-0.2,3.2-0.3,6.4-0.5,9.6c-0.1,1.9-1,2.8-2.5,2.7
		c-1.4-0.1-2.4-1.4-2.1-3.2c0.4-2.9,0.9-5.8,1.3-8.7c0.9-7.1,1.7-14.3,2.5-21.4c0.2-2.4,0.2-4.8,0.3-7.1c0-0.4-0.5-0.9-0.7-1.3
		c-0.4-0.7-1-1.5-1-2.2c0-0.6,0.8-1.5,1.4-1.7c1-0.3,2.2-0.3,3.3-0.1c3.6,0.8,6.5,3,9.1,5.5C296.5,35.3,297.9,36.9,299.4,38.5z
		 M298.1,44.3c-1.7,2.6-3,5-3.6,7.8c-0.3,1.5-0.1,2.9,0.8,4.2c1,1.5,2.9,1.7,3.9,0.2c0.7-1.2,1.3-2.6,1.4-3.9
		C300.7,49.6,299.6,47,298.1,44.3z"/>
	<path fill="#53AC9F" d="M402.6,32.6c-0.1,0.6-0.1,1.3-0.1,1.9c0,7.4-0.2,14.8,0.7,22.2c0.1,0.6,0.1,1.1,0.1,1.7
		c0,1.5-1,2.5-2.3,2.5c-1.3,0-2.3-1.2-2.2-2.7c0.1-2,0.4-4,0.5-6c0.1-6.4,0.2-12.8,0.2-19.2c0-0.3-0.4-0.9-0.7-1
		c-1.1-0.4-1.7-1-1.6-2.2c0.1-1.2,1-1.7,2-1.8c2.5-0.3,4.8,0.4,6.9,1.7c4.6,2.9,7.7,7.2,9.8,12.1c1.8,4,3.5,8.1,5.6,12
		c0-1.5,0.1-3,0-4.5c-0.4-5.7-0.8-11.4-1.2-17.1c-0.1-0.8-0.1-1.7,0-2.5c0.2-1.2,1.2-2,2.3-2c1.1,0,2,0.8,2.1,2.1
		c0.1,1.7,0,3.5,0,5.2c-0.2,7.4-0.4,14.8-0.5,22.2c0,0.7,0.2,1.5,0.6,2c1.2,1.8,2.5,3.5,3.8,5.2c1.7,2.1,3.9,3.7,6.4,4.7
		c0.5,0.2,1,0.4,1.4,0.7c0.9,0.6,1.3,1.6,0.9,2.5c-0.3,0.7-1.2,1.3-1.9,1.5c-1.9,0.4-3.5-0.5-5-1.7c-3.5-2.7-6.1-6.3-8.1-10.2
		c-3.1-6.2-6-12.5-8.9-18.7c-1.4-3.1-2.9-6.2-5.7-8.4c-1.4-1.1-3.1-1.9-4.7-2.8C402.9,32.4,402.8,32.5,402.6,32.6z"/>
	<path fill="#53AC9F" d="M438.2,31.5c-1.2,0-2.3,0-3.5,0c-0.3,0-0.5,0.1-0.8,0.1c-1.4,0-2.3-0.7-2.3-1.8c0-1.1,0.9-1.8,2.3-1.7
		c2,0.1,4.1,0.2,6.1,0.2c1.6,0,3.1-0.1,4.7-0.2c3.3-0.2,6.3,0.7,9.2,2.3c3.8,2.2,5.6,5.5,6.1,9.7c1.1,8.9-5.1,18.1-13.8,20.4
		c-2.9,0.8-5.8,0.6-8.6-0.6c-7-3.1-7.9-11.4-1.7-15.9c0.3-0.2,0.6-0.5,1-0.6c1.6-0.6,2-1.7,1.9-3.3
		C438.4,37.1,438.3,34.3,438.2,31.5z M442.2,41.1c1.1,0.2,2,0.3,2.8,0.6c2.4,0.7,4.3,3.1,4.3,5.4c0,1.4-0.8,2.5-2,2.6
		c-1.3,0.1-2.2-0.8-2.4-2.2c-0.1-0.3,0-0.7-0.1-1c-0.3-1.2-1.1-1.9-2.4-2.2c0.1,2.2,0.3,4.2,0.4,6.2c0.1,1.6-0.9,2.8-2.2,2.8
		c-1.3,0-2.3-1.1-2.3-2.7c0-0.3,0.1-0.6,0.1-0.9c0.1-1.7,0.2-3.4,0.3-5.5c-0.7,0.6-1.3,1-1.7,1.5c-3.2,3.8-1.7,9.6,3,11.2
		c3.8,1.3,7.5,0.9,10.8-1.4c4.5-3.2,6.2-7.7,5.8-13.1c-0.6-8-7.2-11.4-13.8-10.8C442.5,34.6,442.4,37.8,442.2,41.1z"/>
	<path fill="#53AC9F" d="M52.6,46.7c-1.3-0.3-2.2-0.9-1.9-2.2c0.3-1.3,1.4-1.6,2.5-1.5c1,0.1,1.4-0.3,1.9-1.2
		c2.1-3.6,4.3-7.2,6.4-10.7c-0.8,0-2,0.1-3.1,0.2c-1.5,0.1-3,0.2-4.5,0.3c-1.4,0.1-2.4-0.7-2.4-1.7c0-1.1,1-1.9,2.4-1.8
		c5.1,0,10.1,0.1,15.2,0.1c1.9,0,3.7-0.1,5.6-0.1c1.2,0,2,0.8,2,1.8c0,1.2-0.7,1.7-1.8,1.8c-0.3,0-0.7,0.1-0.9,0.1
		c0,3.3-0.2,6.5,0.1,9.6c0.5,5.2,1.3,10.4,1.9,15.6c0.1,0.7,0.2,1.4,0.1,2.1c-0.1,1-0.7,1.8-1.8,1.9c-1.1,0.1-2-0.4-2.2-1.4
		c-0.3-1.5-0.4-3.1-0.6-4.6c-0.2-2.5-0.3-4.9-0.6-7.4c0-0.3-0.6-0.9-0.9-0.9c-4.5-0.1-9,0-13.5-0.1c-0.8,0-1.1,0.5-1.4,1.1
		c-2.8,5.8-5.6,11.6-8.6,17.3c-1.3,2.5-3.1,4.8-4.8,7.1c-0.5,0.7-1.1,1.2-1.8,1.7c-0.7,0.6-1.6,0.7-2.4,0.1c-0.8-0.7-1-1.6-0.5-2.5
		c0.5-0.9,1.1-1.8,1.8-2.5c5.6-5.4,9.3-12.1,12.5-19.1C51.6,48.7,52.1,47.8,52.6,46.7z M57.2,43c4.5,0,8.9,0,13.2,0
		c-0.2-4.1-0.5-8-0.7-11.8c-1.9-0.3-3.4,0.4-4.8,1.4C61.4,35.2,59.4,39,57.2,43z"/>
	<path fill="#53AC9F" d="M377.3,31.1c-2.2,0.1-4.7,0.3-7.1,0.5c-1.9,0.1-3-0.4-3-1.6c-0.1-1.2,1.1-1.9,3-1.9c6.4,0,12.7,0,19.1,0
		c0.4,0,0.9,0,1.3,0c1.1,0.1,1.8,0.8,1.8,1.9c0,1.1-0.7,1.6-1.8,1.7c-0.3,0-0.7,0-1.1,0.1c0,2.3-0.2,4.6,0,6.8
		c0.5,5.8,1.3,11.7,1.9,17.5c0.1,0.9,0.3,1.9,0.3,2.8c0,1-0.6,1.8-1.7,2c-1.1,0.1-2-0.4-2.3-1.5c-0.3-1.3-0.4-2.6-0.5-4
		c-0.2-2.6-0.4-5.2-0.5-7.8c0-0.9-0.4-1.1-1.2-1.1c-4.3,0-8.7,0-13,0c-0.9,0-1.3,0.3-1.8,1.1c-3.1,6.2-6.1,12.4-9.3,18.5
		c-1.3,2.4-3,4.5-4.8,6.6c-1.3,1.5-2.5,1.8-3.5,1c-1-0.8-0.9-2.2,0.3-3.7c2.3-2.8,4.7-5.4,6.9-8.3c3.3-4.5,5.5-9.6,7.8-14.6
		c0.1-0.1,0-0.2,0.1-0.4c-0.1-0.1-0.2-0.2-0.3-0.2c-1-0.3-1.6-0.9-1.4-2c0.2-1.1,1-1.7,1.9-1.6c1.6,0.2,2.2-0.7,2.9-1.9
		C373.2,37.7,375.3,34.4,377.3,31.1z M386.3,43c-0.2-4.1-0.5-8-0.7-11.9c-2.4-0.3-4.3,0.7-5.7,2.3c-2,2.3-3.8,4.9-5.6,7.4
		c-0.5,0.6-0.8,1.4-1.2,2.3C377.6,43,381.9,43,386.3,43z"/>
	<path fill="#53AC9F" d="M95.7,48.1c4.4,2.8,7,6.9,9.7,10.8c2.6,3.8,5.3,7.5,9.1,10.2c0.7,0.5,1.4,1.3,1.5,2.1
		c0.1,0.7-0.3,1.7-0.8,2.3c-0.8,0.8-2,1-3,0.4c-1-0.6-2-1.3-2.7-2.2c-2.2-3.2-4.3-6.4-6.3-9.7c-2.3-3.6-4.3-7.5-7.6-10.3
		c-1.3-1.1-2.8-2-4.3-2.9c-0.7-0.4-1.7-0.4-2.6-0.6c0,2.5,0,4.7,0,6.9c0,1,0.1,2,0.1,3c0,1.7-1,2.7-2.3,2.7c-1.3,0-2.3-1.2-2.2-2.7
		c0.1-3.4,0.4-6.8,0.4-10.2c0-5.4-0.1-10.8-0.2-16.2c-0.6-0.1-0.9-0.2-1.2-0.2c-1.1-0.2-1.7-0.8-1.7-1.9c0.1-1,0.9-1.6,2.1-1.6
		c2.2,0,4.3,0.1,6.5,0.1c0.9,0,1.8-0.1,2.7-0.1c6.2-0.3,10.6,4.5,9.7,10.8c-0.5,4.1-2.7,6.9-6.2,8.9C96.3,47.7,96.1,47.9,95.7,48.1z
		 M89,31.2c-0.1,0.6-0.1,0.9-0.2,1.2c-0.1,3.8-0.2,7.5-0.3,11.3c0,2,0,2,2,2.3c0.2,0,0.4,0.1,0.6,0.1c3.8,0.5,7.3-1.9,8.1-5.5
		c0.9-4.3-1.2-8-5.2-9C92.5,31.3,90.7,31.3,89,31.2z"/>
	<path fill="#53AC9F" d="M499.2,48.3c0,3.1,0,5.9,0,8.7c0,0.4,0,0.9,0,1.3c0,1.6-0.9,2.6-2.3,2.6c-1.3,0-2.3-1.1-2.3-2.8
		c0.1-2.4,0.3-4.8,0.3-7.3c0-6.3,0-12.7,0-19c-0.6-0.2-0.8-0.2-1.1-0.3c-1.4-0.3-2-1-1.9-2c0.1-1,1-1.6,2.3-1.6
		c2.1,0.1,4.2,0.1,6.3,0.1c0.9,0,1.7-0.1,2.6-0.1c6.2-0.3,10.4,4.2,9.8,10.4c-0.4,4.5-3,7.5-6.9,9.5c0,0.1,0,0.2,0,0.2
		c4.2,2.7,6.8,6.8,9.6,10.8c2.6,3.7,5.2,7.4,8.9,10c0.2,0.2,0.5,0.4,0.7,0.6c1.1,1.1,1.4,2.3,0.6,3.3c-0.7,1-2.3,1.6-3.5,0.9
		c-1-0.5-2-1.3-2.7-2.2c-1.9-2.6-3.6-5.4-5.4-8.1c-2-3.1-3.9-6.3-6-9.2c-1.7-2.3-3.8-4.3-6.5-5.5C501.1,48.6,500.1,48.5,499.2,48.3z
		 M499.1,31.4c-0.1,4-0.2,7.9-0.2,11.8c0,2.6,0,2.6,2.6,2.9c3.6,0.4,7.1-1.8,7.9-5.1c1-3.9-0.6-7.6-3.9-9.1
		C503.6,31.1,501.5,31.3,499.1,31.4z"/>
	<path fill="#53AC9F" d="M467.1,31.8c-0.6,0-0.9,0-1.2-0.1c-1.3-0.2-2-0.9-1.9-2c0.1-1,0.8-1.7,2-1.7c1.8,0,3.5,0.1,5.3,0.1
		c4.1,0,8.2-0.1,12.3-0.1c0.3,0,0.5,0,0.8,0c1.4,0,2.2,0.7,2.3,1.8c0,1.2-0.9,1.9-2.3,1.9c-3.8-0.1-7.6-0.1-11.4-0.3
		c-1.2,0-1.7,0.3-1.7,1.6c0,2.5-0.1,5-0.3,7.5c0,0.9,0.3,1.1,1.1,1.2c1.2,0.1,2.1,0.1,2.9-1.3c1.6-2.7,4.1-4.2,7.1-4.7
		c1.5-0.2,2.9,0.3,3.1,1.3c0.1,0.7,0,1.7-0.4,2.3c-0.6,0.9-1.5,0.6-2.3,0.1c-2.4-1.2-4.8-0.6-6.2,1.6c-0.1,0.1-0.1,0.3-0.2,0.6
		c1.2,0,2.4,0,3.5,0c1,0,1.9-0.1,2.9-0.1c1.1,0,1.7,0.6,1.7,1.7c0,1.1-0.6,1.8-1.7,1.8c-1.9,0-3.8-0.1-5.7-0.2c-0.3,0-0.7,0-1,0
		c0.1,3,3.5,5,6.4,3.7c0.7-0.3,1.4-0.9,2.1-1.2c0.3-0.1,0.7-0.1,1.1-0.1c0,0.4,0.1,0.9-0.1,1c-1.1,0.9-2.2,2-3.5,2.6
		c-3.7,1.7-7.2,0.3-8.3-3.1c-0.3-0.9-0.3-1.9-0.4-2.8c-2,0-2.1,0-2,1.9c0.1,3.5,0.2,7,0.3,10.5c3.4,0,6.6,0,9.8,0
		c1.3,0,2.7-0.1,4-0.1c1.3,0,2.1,0.8,2.1,1.8c0,1.2-0.8,1.9-2.1,1.9c-3.9-0.1-7.7-0.2-11.5-0.2c-1.3,0-2.5,0.2-3.8,0.2
		c-2,0.1-3-0.8-2.9-2.9c0.1-3.2,0.3-6.4,0.3-9.6C467.3,42.9,467.1,37.4,467.1,31.8z"/>
	<path fill="#53AC9F" d="M116.4,31.5c-0.1,0.5-0.2,0.9-0.2,1.3c-0.1,2.6-0.2,5.2-0.3,7.8c0,0.8,0.3,1.1,1.1,1.2
		c1.3,0.2,2.2,0,2.9-1.3c1.4-2.4,3.6-3.8,6.3-4.4c0.7-0.2,1.6-0.3,2.3,0c0.7,0.3,1.4,0.9,1.6,1.5c0.2,0.6-0.2,1.5-0.6,2
		c-0.6,0.8-1.5,0.3-2.3-0.1c-2.3-1.2-4.8-0.5-6.2,1.6c-0.1,0.2-0.2,0.4-0.3,0.8c2.2-0.1,4.3-0.3,6.3-0.3c1.4,0,2.1,0.9,1.7,2.2
		c-0.3,1-1,1.2-1.9,1.2c-2.2,0-4.3,0-6.5,0c0.4,2.9,3.6,4.8,6.5,3.5c0.8-0.3,1.5-0.9,2.2-1.3c0.2-0.1,0.7-0.2,0.8-0.1
		c0.2,0.2,0.2,0.6,0.1,0.9c-0.1,0.3-0.3,0.6-0.6,0.8c-1.9,1.9-4.2,2.8-6.8,2.6c-2.6-0.2-4.6-2.5-4.6-5.2c0-0.4,0-0.8,0-1.4
		c-0.8,0.1-1.4,0.2-2.3,0.3c0.2,4.1,0.3,8.2,0.5,12.3c3.4,0,6.6,0,9.7,0c1.3,0,2.7-0.1,4-0.1c1.3,0,2.2,0.8,2.2,1.9
		c0,1.1-0.8,1.8-2.1,1.8c-3.8-0.1-7.7-0.2-11.5-0.2c-1.3,0-2.5,0.2-3.8,0.2c-2.1,0.1-3-0.9-3-3c0.1-5.1,0.3-10.1,0.4-15.2
		c0-3.6-0.2-7.2-0.3-10.8c-0.3-0.1-0.6-0.1-0.8-0.1c-1.5-0.1-2.2-0.8-2.2-2c0.1-1.1,0.9-1.8,2.4-1.7c2.2,0.1,4.5,0.2,6.7,0.2
		c3.5,0,7-0.1,10.5-0.2c0.3,0,0.7,0,1,0c1.3,0.1,2,0.8,2,1.9c0,1.1-0.9,1.8-2.1,1.8c-3.8-0.1-7.5-0.2-11.3-0.2
		C117.5,31.5,117,31.5,116.4,31.5z"/>
	<path fill="#53AC9F" d="M276.8,43c-0.1,7.1-2.7,12.6-8.7,15.9c-5.1,2.8-10.5,3-15.5-0.3c-5.2-3.4-7.3-8.5-6.7-14.7
		c0.6-6.4,3.5-11.5,9.4-14.4c9.2-4.5,19.3,0.5,21.3,10.6C276.8,41.1,276.8,42.2,276.8,43z M273,45.3c-0.1-3.8-1.1-7.2-3.5-10.1
		c-2.9-3.5-6.7-4.6-11.1-3.8c-3.9,0.7-6.5,3-7.8,6.7c-1.7,5-1.2,9.9,1.8,14.4c4.5,6.8,12.9,6,16.9,2.4C272.1,52.4,272.9,49,273,45.3
		z"/>
	<path fill="#53AC9F" d="M215.1,45.7c0-11.3,9.3-19.4,19.5-17.4c2.9,0.6,5.3,1.9,7,4.3c2.3,3.4,1.6,8.1-1.7,10.4
		c-0.9,0.6-2.1,1-3.2,1.1c-1.2,0.1-2.1-1.1-1.9-2.3c0.2-1.2,1.2-2,2.4-1.8c0.9,0.1,1.9,0.8,2.6-0.2c0.7-1.1,0.5-2.3-0.1-3.3
		c-1.5-2.7-3.7-4.5-6.7-5.1c-7.4-1.5-12.9,2.5-13.9,10c-0.5,4.3,0.4,8.2,3,11.6c4,5.3,11,6,16,1.7c0.9-0.8,1.7-1.8,2.6-2.7
		c0.3-0.3,0.9-0.3,1.4-0.5c0.2,0.5,0.4,1,0.4,1.5c0,0.4-0.3,0.8-0.6,1.1c-4.8,7.2-15.4,8.7-21.9,3C216.5,54.1,215.2,49.9,215.1,45.7
		z"/>
</g>
<path fill="#FFFFFF" d="M74.5,21c-0.3-0.4-0.7-0.7-1-1.1c-0.2-0.2-0.2-0.5-0.4-0.8c0.2,0.1,0.5,0.2,0.7,0.4c0.2,0.1,0.3,0.3,0.5,0.4
	c0.4-0.7-0.4-0.9-0.4-1.4c0.6-0.3,0.7-0.7,0.3-1.2c-0.1-0.2-0.2-0.5-0.2-0.5c0.3-0.2,0.6-0.4,0.9-0.4c0.7,0.1,0.8,0.4,0.3,1
	c-0.3,0.5-0.2,0.9,0.4,1.2c-0.2,0.4-0.4,0.8-0.6,1.2c0.1,0,0.1,0.1,0.2,0.1c0.3-0.2,0.5-0.5,0.8-0.7c0.1-0.1,0.3-0.1,0.5-0.1
	c0,0.2,0,0.4-0.1,0.5c-0.2,0.3-0.5,0.5-0.7,0.7c-0.2,0.2-0.4,0.5-0.6,0.7c0.4,0.3,0.7,0.3,0.9,0c0.4-0.5,0.9-0.8,1-1.6
	c0-0.6,0.4-0.1,0.7,0.1c0.2-0.5,0.5-1,0.7-1.5c0.3,0.1,0.5,0.1,0.8,0.2c0.1,0.2,0.2,0.4,0.2,0.7c0,0.1-0.2,0.3-0.3,0.4
	c-0.4,0.2-0.8,0.3-1.2,0.5c0.2,0.3,0.3,0.4,0.4,0.6c-0.2,0.1-0.3,0.2-0.5,0.2c-0.9,0-1.1,0.8-1.6,1.3c-0.1,0,0,0.4,0.1,0.4
	c0.1,0.1,0.3,0,0.4-0.1c0.4-0.3,0.7-0.7,1-1c0.2-0.1,0.4-0.2,0.6-0.3c-0.1,0.2-0.1,0.4-0.2,0.6c-0.2,0.3-0.4,0.5-0.6,0.7
	c0.6,0.4,0.9-0.3,1.3-0.4c0.4,0.6,0.8,0.7,1.4,0.2c0.3-0.2,0.5-0.3,0.6,0.2c0,0.2,0.5,0.3,0.2,0.7c-0.3,0.5-0.5,0.6-0.9,0.1
	c-0.4-0.3-0.8-0.1-1.1,0.4c-0.5,0-0.7-0.8-1.4-0.4c0.2,0.2,0.4,0.3,0.5,0.5c0.1,0.2,0.4,0.6,0.4,0.7c-0.4,0.3-0.5-0.1-0.7-0.3
	c-0.3-0.2-0.5-0.5-0.7-0.7c-0.2-0.1-0.5-0.3-0.6-0.2c-0.3,0.2-0.1,0.5,0.1,0.7c0.5,0.5,0.9,1.1,1.7,1c0.1,0,0.1,0.1,0.2,0.1
	c-0.1,0.2-0.2,0.3-0.3,0.5c0.3,0.2,0.6,0.5,0.9,0.5c0.4,0.1,0.8,0.1,0.4,0.7c-0.1,0.1,0,0.3,0,0.4c-0.3,0.1-0.6,0.2-0.8,0.3
	c-0.2-0.5-0.5-1-0.7-1.5c-0.6,0.5-0.7,0.4-0.8-0.2c0-0.4-0.9-1.5-1.3-1.5c-0.1,0-0.3,0.1-0.5,0.1c0,0.1,0,0.3,0.1,0.4
	c0.3,0.3,0.6,0.6,0.9,1c0.1,0.2,0.2,0.4,0.3,0.7c-0.2-0.1-0.4-0.1-0.6-0.3c-0.2-0.1-0.4-0.3-0.6-0.6c-0.4,0.6,0.3,0.9,0.4,1.3
	c-0.6,0.4-0.7,0.8-0.2,1.4c0.1,0.1,0.2,0.5,0.1,0.5c-0.3,0.1-0.6,0.3-0.9,0.3c-0.2,0-0.4-0.2-0.6-0.4c0.1-0.6,1.2-1.1,0-1.7
	c0.2-0.4,0.4-0.8,0.6-1.2c-0.1,0-0.1-0.1-0.2-0.1c-0.3,0.2-0.6,0.5-0.9,0.7c-0.1,0.1-0.3,0.1-0.4,0.1c0-0.2,0-0.4,0.1-0.4
	c0.3-0.4,0.7-0.7,1-1.1c0.1-0.1,0.1-0.4,0.2-0.5c-0.2,0-0.5-0.1-0.6,0c-0.5,0.5-1.2,0.8-1.1,1.6c0,0.1-0.1,0.3-0.2,0.3
	c-0.2-0.1-0.3-0.2-0.6-0.3c-0.2,0.4-0.3,0.8-0.5,1.2c-0.1,0.2-0.2,0.4-0.4,0.2c0,0-0.7-0.7-0.7-0.7c-0.2-0.3,0-0.4,0.3-0.4
	c0.4-0.1,0.8-0.3,1.2-0.5c-0.2-0.2-0.3-0.4-0.4-0.5c0.1-0.1,0.2-0.2,0.3-0.2c0.9,0.1,1.3-0.7,1.8-1.2c0.1-0.1,0-0.4,0-0.6
	c-0.2,0-0.4,0-0.5,0.1c-0.4,0.3-0.7,0.7-1,1c-0.1,0.1-0.4,0.1-0.6,0.2c0.1-0.2,0.1-0.4,0.2-0.5c0.2-0.2,0.5-0.4,0.8-0.6
	c-0.7-0.5-1,0.3-1.4,0.3c-0.4-0.6-0.7-0.7-1.4-0.2c-0.1,0.1-0.4,0.1-0.5,0.1c-0.2-0.2-0.4-0.6-0.3-0.8c0.2-0.6,0.4-0.7,1-0.3
	c0.5,0.3,0.9,0.2,1.1-0.4c0.5,0,0.8,0.8,1.4,0.4c-0.3-0.3-0.5-0.6-0.8-0.9c-0.1-0.1-0.1-0.3-0.1-0.4c0.1,0,0.3,0,0.4,0.1
	c0.4,0.3,0.7,0.7,1.1,1.1c0.1,0.1,0.4,0.1,0.6,0.1c0-0.2,0-0.5-0.1-0.6c-0.5-0.5-0.9-1.1-1.7-1.1c-0.6,0-0.1-0.4,0.1-0.7
	c-0.4-0.2-0.8-0.4-1.2-0.5c-0.3-0.1-0.5-0.1-0.2-0.5c0-0.1,0.1-0.1,0.1-0.2c-0.2-0.8,0.6-0.2,0.8-0.6c0.1,0.2,0.3,0.4,0.3,0.6
	c0.1,0.6,0.3,0.7,0.9,0.6c0.1,0,0.4,0.2,0.4,0.3c0,0.9,0.7,1.1,1.2,1.6c0.1,0.1,0.4,0,0.6,0C74.5,21.2,74.5,21.1,74.5,21z
	 M74.8,21.8c-0.5,0-0.9,0.4-0.9,0.8c0,0.4,0.5,0.9,0.9,0.9c0.5,0,0.9-0.4,0.9-0.8C75.7,22.3,75.3,21.8,74.8,21.8z"/>
<path fill="#FFFFFF" d="M433.8,17.3c-0.1-0.5-0.3-0.9-0.3-1.4c0-0.3,0-0.6,0.1-0.9c0.2,0.2,0.3,0.5,0.4,0.7c0.1,0.2,0.1,0.4,0.2,0.6
	c0.7-0.4,0.1-1,0.3-1.4c0.7,0.1,1-0.3,0.9-0.9c0-0.2,0-0.6,0.1-0.6c0.3,0,0.7-0.1,0.9,0.1c0.5,0.5,0.5,0.7-0.2,1
	c-0.5,0.3-0.6,0.7-0.3,1.2c-0.4,0.3-0.7,0.5-1.1,0.8c0,0.1,0.1,0.1,0.1,0.2c0.3-0.1,0.7-0.2,1-0.2c0.1,0,0.3,0.1,0.5,0.1
	c-0.1,0.1-0.2,0.3-0.3,0.4c-0.3,0.1-0.6,0.2-0.9,0.3c-0.3,0.1-0.6,0.2-0.9,0.3c0.2,0.5,0.4,0.6,0.8,0.5c0.6-0.2,1.2-0.3,1.6-0.9
	c0.3-0.5,0.4,0.1,0.6,0.4c0.5-0.3,0.9-0.6,1.4-0.9c0.2,0.2,0.4,0.4,0.6,0.5c-0.1,0.2-0.1,0.5-0.2,0.7c-0.1,0.1-0.3,0.2-0.5,0.2
	c-0.4,0-0.8-0.1-1.3-0.2c0,0.3,0,0.5,0,0.7c-0.2,0-0.4,0-0.5-0.1c-0.8-0.4-1.4,0.2-2.1,0.3c-0.1,0-0.1,0.3-0.1,0.4
	c0,0.1,0.3,0.2,0.4,0.2c0.5-0.1,0.9-0.3,1.3-0.3c0.2,0,0.4,0,0.6,0.1c-0.1,0.1-0.3,0.3-0.4,0.4c-0.3,0.1-0.6,0.2-0.9,0.4
	c0.4,0.6,0.9,0.1,1.3,0.3c0,0.8,0.3,1,1.1,0.9c0.4-0.1,0.6,0,0.4,0.4c-0.1,0.2,0.3,0.5-0.2,0.7c-0.5,0.3-0.7,0.2-0.9-0.3
	c-0.2-0.5-0.6-0.5-1.2-0.2c-0.4-0.3-0.2-1-1-1c0.1,0.2,0.1,0.5,0.2,0.7c0,0.3,0,0.7,0,0.7c-0.5,0.1-0.4-0.3-0.5-0.6
	c-0.1-0.3-0.2-0.7-0.3-1c-0.1-0.2-0.3-0.5-0.4-0.5c-0.4,0-0.3,0.4-0.2,0.7c0.2,0.7,0.2,1.4,1,1.7c0.1,0,0.1,0.1,0.1,0.2
	c-0.2,0.1-0.3,0.2-0.5,0.3c0.2,0.3,0.3,0.7,0.5,0.9c0.3,0.3,0.7,0.5,0,0.8c-0.1,0-0.2,0.2-0.2,0.3c-0.3-0.1-0.6-0.1-0.8-0.2
	c0-0.5,0.1-1.1,0.1-1.7c-0.8,0.1-0.8,0-0.6-0.6c0.2-0.4-0.1-1.7-0.4-2c-0.1-0.1-0.3-0.1-0.5-0.1c0,0.1-0.1,0.3-0.1,0.4
	c0.1,0.4,0.3,0.9,0.3,1.3c0,0.2-0.1,0.5-0.1,0.7c-0.1-0.2-0.3-0.3-0.4-0.5c-0.1-0.2-0.2-0.5-0.3-0.8c-0.6,0.4-0.2,0.9-0.3,1.4
	c-0.7,0-1,0.3-0.9,1.1c0,0.2-0.1,0.5-0.1,0.5c-0.3,0-0.7,0-0.9-0.2c-0.2-0.1-0.2-0.4-0.4-0.7c0.4-0.4,1.6-0.4,0.8-1.5
	c0.4-0.3,0.7-0.5,1.1-0.8c0-0.1-0.1-0.1-0.1-0.2c-0.4,0.1-0.7,0.2-1.1,0.2c-0.1,0-0.3-0.1-0.4-0.1c0.1-0.1,0.2-0.3,0.3-0.4
	c0.5-0.2,1-0.3,1.4-0.4c0.2-0.1,0.3-0.3,0.4-0.4c-0.2-0.1-0.4-0.3-0.6-0.3c-0.6,0.2-1.4,0.1-1.8,0.9c0,0.1-0.3,0.2-0.3,0.2
	c-0.1-0.1-0.2-0.3-0.4-0.6c-0.4,0.3-0.7,0.5-1,0.8c-0.2,0.2-0.3,0.3-0.5,0c0-0.1-0.3-0.9-0.3-1c0-0.4,0.2-0.3,0.5-0.2
	c0.4,0.1,0.8,0.1,1.3,0.1c-0.1-0.3-0.1-0.5-0.1-0.6c0.1,0,0.3-0.1,0.3,0c0.8,0.5,1.5,0,2.2-0.1c0.1,0,0.2-0.3,0.3-0.5
	c-0.2-0.1-0.3-0.2-0.5-0.2c-0.5,0.1-0.9,0.3-1.4,0.3c-0.2,0-0.4-0.1-0.6-0.1c0.1-0.1,0.3-0.3,0.4-0.4c0.3-0.1,0.6-0.1,1-0.2
	c-0.4-0.8-1-0.3-1.4-0.4c0-0.8-0.3-0.9-1.1-0.9c-0.2,0-0.5-0.1-0.5-0.2c0-0.3,0-0.7,0.1-0.8c0.5-0.5,0.7-0.4,1,0.2
	c0.3,0.5,0.7,0.6,1.2,0.2c0.4,0.3,0.3,1.1,1,1.1c-0.1-0.4-0.2-0.8-0.2-1.2c0-0.1,0.1-0.3,0.1-0.4c0.1,0.1,0.3,0.1,0.3,0.3
	c0.2,0.5,0.3,1,0.5,1.5c0.1,0.2,0.3,0.2,0.5,0.4c0.1-0.2,0.3-0.4,0.2-0.6c-0.2-0.7-0.2-1.4-0.9-1.8c-0.5-0.3,0.1-0.4,0.4-0.5
	c-0.3-0.4-0.5-0.7-0.8-1.1c-0.2-0.2-0.3-0.3,0-0.5c0.1,0,0.2-0.1,0.2-0.1c0.2-0.8,0.7,0.1,0.9-0.1c0,0.2,0,0.5,0,0.7
	c-0.2,0.5,0,0.8,0.5,1c0.1,0,0.2,0.4,0.2,0.5c-0.5,0.7,0,1.3,0.2,2c0,0.1,0.4,0.2,0.5,0.3C433.7,17.4,433.8,17.3,433.8,17.3z
	 M433.7,18.1c-0.4-0.2-1-0.1-1.2,0.3c-0.2,0.4,0,1,0.4,1.2c0.4,0.2,1,0.1,1.2-0.3C434.3,19,434.1,18.3,433.7,18.1z"/>
<path fill="#FFFFFF" d="M409.8,26.8c-0.1-0.4-0.3-0.8-0.4-1.2c-0.1-0.2,0-0.5,0-0.7c0.1,0.2,0.3,0.4,0.4,0.6
	c0.1,0.1,0.1,0.3,0.2,0.5c0.6-0.3,0-0.8,0.2-1.2c0.6,0,0.8-0.3,0.7-0.8c0-0.2,0-0.5,0-0.5c0.3,0,0.6-0.1,0.8,0
	c0.5,0.4,0.4,0.5-0.1,0.9c-0.4,0.2-0.5,0.6-0.1,1c-0.3,0.2-0.6,0.5-0.9,0.7c0,0.1,0.1,0.1,0.1,0.2c0.3-0.1,0.6-0.2,0.8-0.3
	c0.1,0,0.3,0,0.4,0.1c-0.1,0.1-0.1,0.3-0.2,0.3c-0.2,0.1-0.5,0.2-0.8,0.3c-0.2,0.1-0.5,0.2-0.7,0.3c0.2,0.4,0.4,0.5,0.7,0.4
	c0.5-0.2,1-0.3,1.3-0.8c0.2-0.4,0.3,0,0.5,0.3c0.4-0.3,0.7-0.6,1.1-0.9c0.2,0.1,0.4,0.3,0.5,0.4c0,0.2,0,0.4-0.1,0.6
	c0,0.1-0.2,0.2-0.4,0.2c-0.3,0-0.7,0-1-0.1c0,0.3,0,0.4,0.1,0.6c-0.1,0-0.3,0-0.4,0c-0.7-0.3-1.1,0.2-1.7,0.4c-0.1,0-0.1,0.3,0,0.4
	c0,0.1,0.2,0.1,0.4,0.1c0.4-0.1,0.7-0.3,1.1-0.4c0.2,0,0.3,0,0.5,0c-0.1,0.1-0.2,0.3-0.3,0.4c-0.2,0.1-0.4,0.2-0.7,0.3
	c0.3,0.5,0.8,0.1,1.1,0.2c0.1,0.6,0.3,0.8,0.9,0.6c0.3-0.1,0.5-0.1,0.4,0.3c-0.1,0.2,0.2,0.4-0.1,0.6c-0.4,0.2-0.6,0.2-0.8-0.2
	c-0.2-0.4-0.6-0.4-1-0.1c-0.3-0.2-0.2-0.8-0.9-0.8c0.1,0.2,0.1,0.4,0.2,0.6c0,0.2,0.1,0.6,0,0.6c-0.4,0.1-0.3-0.3-0.4-0.5
	c-0.1-0.3-0.2-0.6-0.3-0.8c-0.1-0.2-0.3-0.4-0.4-0.3c-0.3,0.1-0.3,0.3-0.2,0.6c0.2,0.5,0.3,1.1,0.9,1.4c0,0,0.1,0.1,0.1,0.2
	c-0.1,0.1-0.2,0.1-0.4,0.3c0.2,0.2,0.3,0.5,0.5,0.7c0.3,0.2,0.6,0.3,0.1,0.6c-0.1,0-0.1,0.2-0.2,0.2c-0.3,0-0.5-0.1-0.7-0.1
	c0-0.4,0-0.9,0-1.4c-0.6,0.1-0.7,0.1-0.5-0.5c0.1-0.3-0.2-1.4-0.4-1.6c-0.1-0.1-0.3-0.1-0.4-0.1c0,0.1-0.1,0.2-0.1,0.3
	c0.1,0.4,0.3,0.7,0.3,1c0,0.2,0,0.4,0,0.6c-0.1-0.1-0.3-0.3-0.4-0.4c-0.1-0.2-0.2-0.4-0.3-0.6c-0.5,0.3-0.1,0.8-0.2,1.1
	c-0.6,0-0.8,0.3-0.7,0.9c0,0.1,0,0.4-0.1,0.4c-0.3,0-0.5,0-0.8-0.1c-0.1-0.1-0.2-0.3-0.3-0.5c0.3-0.4,1.3-0.4,0.6-1.3
	c0.3-0.2,0.6-0.5,0.9-0.7c0-0.1-0.1-0.1-0.1-0.2c-0.3,0.1-0.6,0.2-0.9,0.2c-0.1,0-0.2,0-0.3-0.1c0.1-0.1,0.1-0.3,0.2-0.3
	c0.4-0.2,0.8-0.3,1.2-0.4c0.1-0.1,0.2-0.2,0.3-0.3c-0.2-0.1-0.4-0.2-0.5-0.2c-0.5,0.2-1.2,0.2-1.4,0.8c0,0.1-0.2,0.2-0.2,0.2
	c-0.1-0.1-0.2-0.2-0.3-0.4c-0.3,0.3-0.5,0.5-0.8,0.8c-0.2,0.2-0.3,0.2-0.4,0c0,0-0.3-0.8-0.3-0.8c0-0.3,0.2-0.3,0.4-0.2
	c0.3,0,0.7,0,1.1,0c-0.1-0.3-0.1-0.4-0.1-0.5c0.1,0,0.2-0.1,0.3-0.1c0.7,0.4,1.2-0.1,1.8-0.2c0.1,0,0.1-0.3,0.2-0.4
	c-0.1,0-0.3-0.2-0.4-0.1c-0.4,0.1-0.8,0.3-1.1,0.4c-0.1,0-0.3-0.1-0.5-0.1c0.1-0.1,0.2-0.3,0.3-0.3c0.2-0.1,0.5-0.1,0.8-0.2
	c-0.4-0.6-0.8-0.2-1.2-0.3c-0.1-0.6-0.3-0.8-0.9-0.7c-0.1,0-0.4,0-0.4-0.1c0-0.2-0.1-0.6,0-0.7c0.4-0.4,0.5-0.4,0.8,0.1
	c0.3,0.4,0.6,0.4,1,0.1c0.4,0.2,0.3,0.9,0.9,0.8c-0.1-0.3-0.2-0.6-0.3-1c0-0.1,0.1-0.2,0.1-0.3c0.1,0.1,0.2,0.1,0.3,0.2
	c0.2,0.4,0.3,0.8,0.5,1.2c0.1,0.1,0.3,0.2,0.4,0.3c0.1-0.2,0.2-0.4,0.1-0.5c-0.2-0.5-0.2-1.1-0.9-1.5c-0.4-0.2,0-0.3,0.3-0.5
	c-0.3-0.3-0.5-0.6-0.7-0.8c-0.2-0.2-0.3-0.3,0-0.4c0.1,0,0.1-0.1,0.1-0.1c0.1-0.7,0.5,0.1,0.8-0.2c0,0.2,0.1,0.4,0,0.5
	c-0.1,0.5,0,0.7,0.4,0.8c0.1,0,0.2,0.3,0.2,0.4c-0.3,0.6,0.1,1.1,0.3,1.6c0,0.1,0.3,0.2,0.5,0.2C409.7,26.9,409.7,26.9,409.8,26.8z
	 M409.7,27.5c-0.3-0.2-0.8,0-1,0.3c-0.2,0.3,0,0.8,0.4,1c0.3,0.2,0.8,0,1-0.3C410.2,28.2,410.1,27.7,409.7,27.5z"/>
<g>
	<path fill="#C5534E" d="M181.6,30.1c-2.2,0.1-4.7,0.3-7.1,0.5c-0.3,0-0.5,0.1-0.8,0.1c-1.3,0-2.2-0.7-2.2-1.7c0-1,0.9-1.9,2.1-1.9
		c2.8,0,5.5,0.2,8.3,0.2c3.8,0,7.6-0.1,11.4-0.2c0.2,0,0.3,0,0.5,0c1.8,0,2.7,0.6,2.8,1.8c0,1.1-0.6,1.6-2.5,1.8
		c-0.1,0-0.2,0.1-0.5,0.2c0,1.5,0,3,0,4.5c0.2,6.9,0.9,13.7,2.2,20.5c0.1,0.7,0.2,1.5,0.2,2.2c-0.1,1-0.7,1.8-1.8,1.9
		c-1.1,0.1-2-0.5-2.2-1.6c-0.3-1.5-0.4-3-0.5-4.5c-0.2-2.5-0.3-4.9-0.6-7.4c0-0.3-0.6-0.8-0.9-0.8c-4.5-0.1-9-0.1-13.5,0
		c-0.4,0-1,0.4-1.2,0.8c-2.7,5.5-5.4,11-8.1,16.5c-0.2,0.3,0,1.1,0.3,1.4c1.6,1.9,3.6,3.2,5.9,4.2c0.5,0.2,1,0.4,1.4,0.7
		c0.9,0.6,1.3,1.6,0.9,2.5c-0.3,0.7-1.2,1.3-1.9,1.5c-1.8,0.4-3.4-0.4-4.8-1.5c-1.6-1.3-3-2.8-4.5-4.2c-0.9,1.2-1.8,2.4-2.8,3.6
		c-0.5,0.7-1.2,1.4-1.9,1.7c-0.6,0.3-1.8,0.4-2.2,0c-0.5-0.5-0.8-1.7-0.5-2.3c0.5-1.2,1.5-2.2,2.3-3.2c0.9-1.1,2.4-2,2.6-3.1
		c0.1-1.1-1.2-2.4-1.8-3.6c-2.8-6-5.7-12-8.5-18.1c-1.7-3.8-3.6-7.4-7.4-9.6c-1-0.6-2.1-0.9-3.6-1.6c0,2.3-0.1,4.3,0,6.2
		c0.2,6.1,0.5,12.1,0.8,18.1c0,0.6,0.1,1.3,0.1,1.9c0,1.4-1,2.4-2.2,2.4c-1.3,0-2.3-1.1-2.2-2.5c0.1-1.4,0.3-2.8,0.4-4.1
		c0.2-3.3,0.5-6.6,0.5-9.8c0.1-3.8-0.1-7.5-0.2-11.3c0-0.4-0.4-0.9-0.8-1c-1-0.4-1.6-1-1.5-2.1c0.1-1.2,0.9-1.7,2-1.9
		c3.1-0.3,5.9,0.8,8.3,2.6c3.7,2.8,6.3,6.4,8.2,10.6c1.7,3.8,3.3,7.5,5,11.3c0.2,0.4,0.4,0.8,0.9,1.2c0-1.4,0.1-2.9,0-4.3
		c-0.2-4.3-0.4-8.6-0.7-13c-0.1-1.8-0.5-3.6-0.6-5.4c0-0.6,0.1-1.3,0.4-1.9c0.4-0.9,1.2-1.3,2.3-1.2c1,0.2,1.7,0.9,1.7,1.9
		c0.1,2,0,4.1,0,6.1c-0.2,7.3-0.4,14.5-0.4,21.8c0,1.3,1.2,2.7,2,4.2c3.6-4.9,5.7-10.1,8.1-15.1c-0.1-0.2-0.1-0.3-0.2-0.3
		c-1-0.3-1.9-0.8-1.6-2.1c0.2-1.3,1.2-1.7,2.3-1.6c1.1,0.1,1.6-0.4,2.2-1.4C177.3,37.1,179.5,33.6,181.6,30.1z M189.9,30.1
		c-2.4-0.3-4.3,0.7-5.7,2.3c-2,2.3-3.8,4.9-5.6,7.4c-0.5,0.6-0.7,1.4-1.2,2.2c4.5,0,8.9,0,13.2,0C190.4,37.9,190.1,34,189.9,30.1z"
		/>
	<path fill="#C5534E" d="M341,37.4c1.1-1.3,2.3-2.8,3.6-4.1c2.1-2.2,4.4-4.4,7.3-5.5c1-0.4,2.2-0.6,3.3-0.7c1-0.1,1.9,0.2,2.1,1.4
		c0.2,1.2-0.5,1.9-1.5,2.3c-0.3,0.1-0.7,0.2-0.9,0.3c0,2.3-0.1,4.6,0,6.9c0.2,3.9,0.5,7.9,0.6,11.8c0.1,2,0.5,3.9,1.8,5.6
		c0.5,0.6,0.8,1.6,0.8,2.4c0,1.1-0.6,1.9-1.7,2.2c-1.1,0.3-2-0.2-2.3-1.2c-0.5-1.8-0.9-3.6-1.1-5.4c-0.8-6.6-1.6-13.3-2.4-20
		c0-0.3-0.2-0.6-0.4-1.3c-1.9,1.6-3.7,2.9-5.3,4.5c-2.8,2.7-2.8,2.7-1,6.2c1.5,3,2.5,6.2,1.6,9.6c-0.8,3-2.7,5.2-5.4,6.7
		c-1.7,1-3.4,0.9-5-0.2c-1.7-1.2-2.4-3-2.1-5c0.3-2,1-4,1.8-5.9c0.9-2,2.1-3.9,3.1-5.8c0.2-0.4,0.4-1.1,0.2-1.4
		c-2.4-3.4-5.2-6.3-9-8.2c-0.2-0.1-0.5-0.2-0.9-0.3c-0.3,1.6-0.6,3.1-0.7,4.6c-0.7,8-1.3,15.9-1.8,23.9c-0.2,2.8-0.2,5.5-0.3,8.3
		c0,0.6-0.1,1.2-0.2,1.8c-0.3,1.3-1.1,2.1-2.3,2.1c-1.2,0-2.2-0.9-2.2-2.2c0-1.4,0.1-2.9,0.4-4.3c1.6-10,3.2-20,3.5-30.1
		c0-1,0-1.9,0.1-2.9c0-1,0.1-1.9-1.1-2.6c-1.2-0.7-1-2.8,0.3-3.3c0.9-0.4,1.9-0.5,2.9-0.4c2.7,0.3,5,1.5,7,3.2
		C336,32.5,338.4,34.9,341,37.4z M339.7,43.5c-0.2-0.1-0.3-0.1-0.5-0.2c-1.1,2.4-2.2,4.7-3.1,7.2c-0.6,1.6-0.4,3.2,0.6,4.7
		c1,1.5,2.8,1.7,3.9,0.3c0.5-0.6,0.9-1.4,1.1-2.2C342.6,49.8,341.3,46.6,339.7,43.5z"/>
	<path fill="#C5534E" d="M298.4,37.5c1.3-1.5,2.5-3,3.8-4.3c2.1-2.2,4.4-4.4,7.3-5.5c1-0.4,2.2-0.6,3.3-0.7c1-0.1,1.9,0.3,2.1,1.5
		c0.2,1.2-0.5,1.9-1.6,2.3c-0.3,0.1-0.7,0.2-0.9,0.2c0,2.4-0.1,4.8,0,7.2c0.2,4.2,0.5,8.4,0.7,12.6c0.1,1.7,0.6,3.1,1.7,4.4
		c0.7,0.9,1.3,1.9,0.8,3c-0.4,0.7-1.2,1.5-1.9,1.7c-0.6,0.1-1.8-0.6-2-1.1c-0.6-1.5-0.9-3.2-1.1-4.9c-0.8-6.8-1.6-13.6-2.4-20.4
		c0-0.3-0.2-0.7-0.3-1.1c-2.5,1.2-4.4,3-6.2,4.9c-2,2.2-2,2.2-0.7,4.8c1.3,2.5,2.4,5.1,2.3,8c-0.1,4.2-2.3,7.1-5.8,9.1
		c-3.6,2-7.5-0.9-7-5.2c0.2-1.8,0.7-3.6,1.5-5.2c1-2.2,2.2-4.3,3.4-6.4c0.4-0.7,0.5-1.3-0.1-2c-2.1-2.8-4.5-5.3-7.6-7.1
		c-0.6-0.3-1.2-0.6-2-1c-0.3,1.6-0.6,3-0.7,4.5c-0.7,8-1.3,16-1.9,24.1c-0.2,3.2-0.3,6.4-0.5,9.6c-0.1,1.9-1,2.8-2.5,2.7
		c-1.4-0.1-2.4-1.4-2.1-3.2c0.4-2.9,0.9-5.8,1.3-8.7c0.9-7.1,1.7-14.3,2.5-21.4c0.2-2.4,0.2-4.8,0.3-7.1c0-0.4-0.5-0.9-0.7-1.3
		c-0.4-0.7-1-1.5-1-2.2c0-0.6,0.8-1.5,1.4-1.7c1-0.3,2.2-0.3,3.3-0.1c3.6,0.8,6.5,3,9.1,5.5C295.5,34.3,296.9,35.9,298.4,37.5z
		 M297.1,43.3c-1.7,2.6-3,5-3.6,7.8c-0.3,1.5-0.1,2.9,0.8,4.2c1,1.5,2.9,1.7,3.9,0.2c0.7-1.2,1.3-2.6,1.4-3.9
		C299.7,48.6,298.6,46,297.1,43.3z"/>
	<path fill="#C5534E" d="M401.6,31.6c-0.1,0.6-0.1,1.3-0.1,1.9c0,7.4-0.2,14.8,0.7,22.2c0.1,0.6,0.1,1.1,0.1,1.7
		c0,1.5-1,2.5-2.3,2.5c-1.3,0-2.3-1.2-2.2-2.7c0.1-2,0.4-4,0.5-6c0.1-6.4,0.2-12.8,0.2-19.2c0-0.3-0.4-0.9-0.7-1
		c-1.1-0.4-1.7-1-1.6-2.2c0.1-1.2,1-1.7,2-1.8c2.5-0.3,4.8,0.4,6.9,1.7c4.6,2.9,7.7,7.2,9.8,12.1c1.8,4,3.5,8.1,5.6,12
		c0-1.5,0.1-3,0-4.5c-0.4-5.7-0.8-11.4-1.2-17.1c-0.1-0.8-0.1-1.7,0-2.5c0.2-1.2,1.2-2,2.3-2c1.1,0,2,0.8,2.1,2.1
		c0.1,1.7,0,3.5,0,5.2c-0.2,7.4-0.4,14.8-0.5,22.2c0,0.7,0.2,1.5,0.6,2c1.2,1.8,2.5,3.5,3.8,5.2c1.7,2.1,3.9,3.7,6.4,4.7
		c0.5,0.2,1,0.4,1.4,0.7c0.9,0.6,1.3,1.6,0.9,2.5c-0.3,0.7-1.2,1.3-1.9,1.5c-1.9,0.4-3.5-0.5-5-1.7c-3.5-2.7-6.1-6.3-8.1-10.2
		c-3.1-6.2-6-12.5-8.9-18.7c-1.4-3.1-2.9-6.2-5.7-8.4c-1.4-1.1-3.1-1.9-4.7-2.8C401.9,31.4,401.8,31.5,401.6,31.6z"/>
	<path fill="#C5534E" d="M437.2,30.5c-1.2,0-2.3,0-3.5,0c-0.3,0-0.5,0.1-0.8,0.1c-1.4,0-2.3-0.7-2.3-1.8c0-1.1,0.9-1.8,2.3-1.7
		c2,0.1,4.1,0.2,6.1,0.2c1.6,0,3.1-0.1,4.7-0.2c3.3-0.2,6.3,0.7,9.2,2.3c3.8,2.2,5.6,5.5,6.1,9.7c1.1,8.9-5.1,18.1-13.8,20.4
		c-2.9,0.8-5.8,0.6-8.6-0.6c-7-3.1-7.9-11.4-1.7-15.9c0.3-0.2,0.6-0.5,1-0.6c1.6-0.6,2-1.7,1.9-3.3
		C437.4,36.1,437.3,33.3,437.2,30.5z M441.2,40.1c1.1,0.2,2,0.3,2.8,0.6c2.4,0.7,4.3,3.1,4.3,5.4c0,1.4-0.8,2.5-2,2.6
		c-1.3,0.1-2.2-0.8-2.4-2.2c-0.1-0.3,0-0.7-0.1-1c-0.3-1.2-1.1-1.9-2.4-2.2c0.1,2.2,0.3,4.2,0.4,6.2c0.1,1.6-0.9,2.8-2.2,2.8
		c-1.3,0-2.3-1.1-2.3-2.7c0-0.3,0.1-0.6,0.1-0.9c0.1-1.7,0.2-3.4,0.3-5.5c-0.7,0.6-1.3,1-1.7,1.5c-3.2,3.8-1.7,9.6,3,11.2
		c3.8,1.3,7.5,0.9,10.8-1.4c4.5-3.2,6.2-7.7,5.8-13.1c-0.6-8-7.2-11.4-13.8-10.8C441.5,33.6,441.4,36.8,441.2,40.1z"/>
	<path fill="#C5534E" d="M51.6,45.7c-1.3-0.3-2.2-0.9-1.9-2.2c0.3-1.3,1.4-1.6,2.5-1.5c1,0.1,1.4-0.3,1.9-1.2
		c2.1-3.6,4.3-7.2,6.4-10.7c-0.8,0-2,0.1-3.1,0.2c-1.5,0.1-3,0.2-4.5,0.3c-1.4,0.1-2.4-0.7-2.4-1.7c0-1.1,1-1.9,2.4-1.8
		c5.1,0,10.1,0.1,15.2,0.1c1.9,0,3.7-0.1,5.6-0.1c1.2,0,2,0.8,2,1.8c0,1.2-0.7,1.7-1.8,1.8c-0.3,0-0.7,0.1-0.9,0.1
		c0,3.3-0.2,6.5,0.1,9.6c0.5,5.2,1.3,10.4,1.9,15.6c0.1,0.7,0.2,1.4,0.1,2.1c-0.1,1-0.7,1.8-1.8,1.9c-1.1,0.1-2-0.4-2.2-1.4
		c-0.3-1.5-0.4-3.1-0.6-4.6c-0.2-2.5-0.3-4.9-0.6-7.4c0-0.3-0.6-0.9-0.9-0.9c-4.5-0.1-9,0-13.5-0.1c-0.8,0-1.1,0.5-1.4,1.1
		c-2.8,5.8-5.6,11.6-8.6,17.3c-1.3,2.5-3.1,4.8-4.8,7.1c-0.5,0.7-1.1,1.2-1.8,1.7c-0.7,0.6-1.6,0.7-2.4,0.1c-0.8-0.7-1-1.6-0.5-2.5
		c0.5-0.9,1.1-1.8,1.8-2.5c5.6-5.4,9.3-12.1,12.5-19.1C50.6,47.7,51.1,46.8,51.6,45.7z M56.2,42c4.5,0,8.9,0,13.2,0
		c-0.2-4.1-0.5-8-0.7-11.8c-1.9-0.3-3.4,0.4-4.8,1.4C60.4,34.2,58.4,38,56.2,42z"/>
	<path fill="#C5534E" d="M376.3,30.1c-2.2,0.1-4.7,0.3-7.1,0.5c-1.9,0.1-3-0.4-3-1.6c-0.1-1.2,1.1-1.9,3-1.9c6.4,0,12.7,0,19.1,0
		c0.4,0,0.9,0,1.3,0c1.1,0.1,1.8,0.8,1.8,1.9c0,1.1-0.7,1.6-1.8,1.7c-0.3,0-0.7,0-1.1,0.1c0,2.3-0.2,4.6,0,6.8
		c0.5,5.8,1.3,11.7,1.9,17.5c0.1,0.9,0.3,1.9,0.3,2.8c0,1-0.6,1.8-1.7,2c-1.1,0.1-2-0.4-2.3-1.5c-0.3-1.3-0.4-2.6-0.5-4
		c-0.2-2.6-0.4-5.2-0.5-7.8c0-0.9-0.4-1.1-1.2-1.1c-4.3,0-8.7,0-13,0c-0.9,0-1.3,0.3-1.8,1.1c-3.1,6.2-6.1,12.4-9.3,18.5
		c-1.3,2.4-3,4.5-4.8,6.6c-1.3,1.5-2.5,1.8-3.5,1c-1-0.8-0.9-2.2,0.3-3.7c2.3-2.8,4.7-5.4,6.9-8.3c3.3-4.5,5.5-9.6,7.8-14.6
		c0.1-0.1,0-0.2,0.1-0.4c-0.1-0.1-0.2-0.2-0.3-0.2c-1-0.3-1.6-0.9-1.4-2c0.2-1.1,1-1.7,1.9-1.6c1.6,0.2,2.2-0.7,2.9-1.9
		C372.2,36.7,374.3,33.4,376.3,30.1z M385.3,42c-0.2-4.1-0.5-8-0.7-11.9c-2.4-0.3-4.3,0.7-5.7,2.3c-2,2.3-3.8,4.9-5.6,7.4
		c-0.5,0.6-0.8,1.4-1.2,2.3C376.6,42,380.9,42,385.3,42z"/>
	<path fill="#C5534E" d="M94.7,47.1c4.4,2.8,7,6.9,9.7,10.8c2.6,3.8,5.3,7.5,9.1,10.2c0.7,0.5,1.4,1.3,1.5,2.1
		c0.1,0.7-0.3,1.7-0.8,2.3c-0.8,0.8-2,1-3,0.4c-1-0.6-2-1.3-2.7-2.2c-2.2-3.2-4.3-6.4-6.3-9.7c-2.3-3.6-4.3-7.5-7.6-10.3
		c-1.3-1.1-2.8-2-4.3-2.9c-0.7-0.4-1.7-0.4-2.6-0.6c0,2.5,0,4.7,0,6.9c0,1,0.1,2,0.1,3c0,1.7-1,2.7-2.3,2.7c-1.3,0-2.3-1.2-2.2-2.7
		c0.1-3.4,0.4-6.8,0.4-10.2c0-5.4-0.1-10.8-0.2-16.2c-0.6-0.1-0.9-0.2-1.2-0.2c-1.1-0.2-1.7-0.8-1.7-1.9c0.1-1,0.9-1.6,2.1-1.6
		c2.2,0,4.3,0.1,6.5,0.1c0.9,0,1.8-0.1,2.7-0.1c6.2-0.3,10.6,4.5,9.7,10.8c-0.5,4.1-2.7,6.9-6.2,8.9C95.3,46.7,95.1,46.9,94.7,47.1z
		 M88,30.2c-0.1,0.6-0.1,0.9-0.2,1.2c-0.1,3.8-0.2,7.5-0.3,11.3c0,2,0,2,2,2.3c0.2,0,0.4,0.1,0.6,0.1c3.8,0.5,7.3-1.9,8.1-5.5
		c0.9-4.3-1.2-8-5.2-9C91.5,30.3,89.7,30.3,88,30.2z"/>
	<path fill="#C5534E" d="M498.2,47.3c0,3.1,0,5.9,0,8.7c0,0.4,0,0.9,0,1.3c0,1.6-0.9,2.6-2.3,2.6c-1.3,0-2.3-1.1-2.3-2.8
		c0.1-2.4,0.3-4.8,0.3-7.3c0-6.3,0-12.7,0-19c-0.6-0.2-0.8-0.2-1.1-0.3c-1.4-0.3-2-1-1.9-2c0.1-1,1-1.6,2.3-1.6
		c2.1,0.1,4.2,0.1,6.3,0.1c0.9,0,1.7-0.1,2.6-0.1c6.2-0.3,10.4,4.2,9.8,10.4c-0.4,4.5-3,7.5-6.9,9.5c0,0.1,0,0.2,0,0.2
		c4.2,2.7,6.8,6.8,9.6,10.8c2.6,3.7,5.2,7.4,8.9,10c0.2,0.2,0.5,0.4,0.7,0.6c1.1,1.1,1.4,2.3,0.6,3.3c-0.7,1-2.3,1.6-3.5,0.9
		c-1-0.5-2-1.3-2.7-2.2c-1.9-2.6-3.6-5.4-5.4-8.1c-2-3.1-3.9-6.3-6-9.2c-1.7-2.3-3.8-4.3-6.5-5.5C500.1,47.6,499.1,47.5,498.2,47.3z
		 M498.1,30.4c-0.1,4-0.2,7.9-0.2,11.8c0,2.6,0,2.6,2.6,2.9c3.6,0.4,7.1-1.8,7.9-5.1c1-3.9-0.6-7.6-3.9-9.1
		C502.6,30.1,500.5,30.3,498.1,30.4z"/>
	<path fill="#C5534E" d="M466.1,30.8c-0.6,0-0.9,0-1.2-0.1c-1.3-0.2-2-0.9-1.9-2c0.1-1,0.8-1.7,2-1.7c1.8,0,3.5,0.1,5.3,0.1
		c4.1,0,8.2-0.1,12.3-0.1c0.3,0,0.5,0,0.8,0c1.4,0,2.2,0.7,2.3,1.8c0,1.2-0.9,1.9-2.3,1.9c-3.8-0.1-7.6-0.1-11.4-0.3
		c-1.2,0-1.7,0.3-1.7,1.6c0,2.5-0.1,5-0.3,7.5c0,0.9,0.3,1.1,1.1,1.2c1.2,0.1,2.1,0.1,2.9-1.3c1.6-2.7,4.1-4.2,7.1-4.7
		c1.5-0.2,2.9,0.3,3.1,1.3c0.1,0.7,0,1.7-0.4,2.3c-0.6,0.9-1.5,0.6-2.3,0.1c-2.4-1.2-4.8-0.6-6.2,1.6c-0.1,0.1-0.1,0.3-0.2,0.6
		c1.2,0,2.4,0,3.5,0c1,0,1.9-0.1,2.9-0.1c1.1,0,1.7,0.6,1.7,1.7c0,1.1-0.6,1.8-1.7,1.8c-1.9,0-3.8-0.1-5.7-0.2c-0.3,0-0.7,0-1,0
		c0.1,3,3.5,5,6.4,3.7c0.7-0.3,1.4-0.9,2.1-1.2c0.3-0.1,0.7-0.1,1.1-0.1c0,0.4,0.1,0.9-0.1,1c-1.1,0.9-2.2,2-3.5,2.6
		c-3.7,1.7-7.2,0.3-8.3-3.1c-0.3-0.9-0.3-1.9-0.4-2.8c-2,0-2.1,0-2,1.9c0.1,3.5,0.2,7,0.3,10.5c3.4,0,6.6,0,9.8,0
		c1.3,0,2.7-0.1,4-0.1c1.3,0,2.1,0.8,2.1,1.8c0,1.2-0.8,1.9-2.1,1.9c-3.9-0.1-7.7-0.2-11.5-0.2c-1.3,0-2.5,0.2-3.8,0.2
		c-2,0.1-3-0.8-2.9-2.9c0.1-3.2,0.3-6.4,0.3-9.6C466.3,41.9,466.1,36.4,466.1,30.8z"/>
	<path fill="#C5534E" d="M115.4,30.5c-0.1,0.5-0.2,0.9-0.2,1.3c-0.1,2.6-0.2,5.2-0.3,7.8c0,0.8,0.3,1.1,1.1,1.2
		c1.3,0.2,2.2,0,2.9-1.3c1.4-2.4,3.6-3.8,6.3-4.4c0.7-0.2,1.6-0.3,2.3,0c0.7,0.3,1.4,0.9,1.6,1.5c0.2,0.6-0.2,1.5-0.6,2
		c-0.6,0.8-1.5,0.3-2.3-0.1c-2.3-1.2-4.8-0.5-6.2,1.6c-0.1,0.2-0.2,0.4-0.3,0.8c2.2-0.1,4.3-0.3,6.3-0.3c1.4,0,2.1,0.9,1.7,2.2
		c-0.3,1-1,1.2-1.9,1.2c-2.2,0-4.3,0-6.5,0c0.4,2.9,3.6,4.8,6.5,3.5c0.8-0.3,1.5-0.9,2.2-1.3c0.2-0.1,0.7-0.2,0.8-0.1
		c0.2,0.2,0.2,0.6,0.1,0.9c-0.1,0.3-0.3,0.6-0.6,0.8c-1.9,1.9-4.2,2.8-6.8,2.6c-2.6-0.2-4.6-2.5-4.6-5.2c0-0.4,0-0.8,0-1.4
		c-0.8,0.1-1.4,0.2-2.3,0.3c0.2,4.1,0.3,8.2,0.5,12.3c3.4,0,6.6,0,9.7,0c1.3,0,2.7-0.1,4-0.1c1.3,0,2.2,0.8,2.2,1.9
		c0,1.1-0.8,1.8-2.1,1.8c-3.8-0.1-7.7-0.2-11.5-0.2c-1.3,0-2.5,0.2-3.8,0.2c-2.1,0.1-3-0.9-3-3c0.1-5.1,0.3-10.1,0.4-15.2
		c0-3.6-0.2-7.2-0.3-10.8c-0.3-0.1-0.6-0.1-0.8-0.1c-1.5-0.1-2.2-0.8-2.2-2c0.1-1.1,0.9-1.8,2.4-1.7c2.2,0.1,4.5,0.2,6.7,0.2
		c3.5,0,7-0.1,10.5-0.2c0.3,0,0.7,0,1,0c1.3,0.1,2,0.8,2,1.9c0,1.1-0.9,1.8-2.1,1.8c-3.8-0.1-7.5-0.2-11.3-0.2
		C116.5,30.5,116,30.5,115.4,30.5z"/>
	<path fill="#C5534E" d="M275.8,42c-0.1,7.1-2.7,12.6-8.7,15.9c-5.1,2.8-10.5,3-15.5-0.3c-5.2-3.4-7.3-8.5-6.7-14.7
		c0.6-6.4,3.5-11.5,9.4-14.4c9.2-4.5,19.3,0.5,21.3,10.6C275.8,40.1,275.8,41.2,275.8,42z M272,44.3c-0.1-3.8-1.1-7.2-3.5-10.1
		c-2.9-3.5-6.7-4.6-11.1-3.8c-3.9,0.7-6.5,3-7.8,6.7c-1.7,5-1.2,9.9,1.8,14.4c4.5,6.8,12.9,6,16.9,2.4C271.1,51.4,271.9,48,272,44.3
		z"/>
	<path fill="#C5534E" d="M214.1,44.7c0-11.3,9.3-19.4,19.5-17.4c2.9,0.6,5.3,1.9,7,4.3c2.3,3.4,1.6,8.1-1.7,10.4
		c-0.9,0.6-2.1,1-3.2,1.1c-1.2,0.1-2.1-1.1-1.9-2.3c0.2-1.2,1.2-2,2.4-1.8c0.9,0.1,1.9,0.8,2.6-0.2c0.7-1.1,0.5-2.3-0.1-3.3
		c-1.5-2.7-3.7-4.5-6.7-5.1c-7.4-1.5-12.9,2.5-13.9,10c-0.5,4.3,0.4,8.2,3,11.6c4,5.3,11,6,16,1.7c0.9-0.8,1.7-1.8,2.6-2.7
		c0.3-0.3,0.9-0.3,1.4-0.5c0.2,0.5,0.4,1,0.4,1.5c0,0.4-0.3,0.8-0.6,1.1c-4.8,7.2-15.4,8.7-21.9,3C215.5,53.1,214.2,48.9,214.1,44.7
		z"/>
</g>
<g>
	<path fill="#C5534E" d="M497.6,1.7C497,1.2,495.5,0,495.5,0s-0.4,3.1-1.2,4.4c-1.9,3.1-4.8,5.8-1,9.2c0.7-0.9-0.1-1.9-0.2-3.1
		c-0.1-1.2,0.4-2.5,0.4-2.5s0.3,0.6,0.7,0.9c0.5,0.3,1,0.2,1,0.2c-0.4-1.7,0.3-4.1,1.4-5.4c2.1,1.4,2.6,4.2,2.4,5.6
		c-0.2,1.9-1,2.8-2,4.2C501.3,11.1,501.3,5,497.6,1.7z"/>
	<path fill="#C5534E" d="M492.7,21.4c0,0.5,0.4,0.9,0.9,0.9h3.9c0.5,0,0.9-0.4,0.9-0.9v-5.8h-5.7V21.4z M493.4,19.9h4.1v1.3
		c0,0.2-0.1,0.4-0.3,0.4h-3.4c-0.2,0-0.3-0.2-0.3-0.4V19.9z"/>
	<rect x="495.1" y="13.4" fill="#C5534E" width="0.7" height="1.7"/>
</g>
<path fill="#FFFFFF" d="M111.2,13.1c-0.1-0.4-0.3-0.8-0.4-1.2c-0.1-0.2,0-0.5,0-0.7c0.1,0.2,0.3,0.4,0.4,0.6
	c0.1,0.1,0.1,0.3,0.2,0.5c0.6-0.3,0-0.8,0.2-1.2c0.6,0,0.8-0.3,0.7-0.8c0-0.2,0-0.5,0-0.5c0.3,0,0.6-0.1,0.8,0
	c0.5,0.4,0.4,0.5-0.1,0.9c-0.4,0.2-0.5,0.6-0.1,1c-0.3,0.2-0.6,0.5-0.9,0.7c0,0.1,0.1,0.1,0.1,0.2c0.3-0.1,0.6-0.2,0.8-0.3
	c0.1,0,0.3,0,0.4,0.1c-0.1,0.1-0.1,0.3-0.2,0.3c-0.2,0.1-0.5,0.2-0.8,0.3c-0.2,0.1-0.5,0.2-0.7,0.3c0.2,0.4,0.4,0.5,0.7,0.4
	c0.5-0.2,1-0.3,1.3-0.8c0.2-0.4,0.3,0,0.5,0.3c0.4-0.3,0.7-0.6,1.1-0.9c0.2,0.1,0.4,0.3,0.5,0.4c0,0.2,0,0.4-0.1,0.6
	c0,0.1-0.2,0.2-0.4,0.2c-0.3,0-0.7,0-1-0.1c0,0.3,0,0.4,0.1,0.6c-0.1,0-0.3,0-0.4,0c-0.7-0.3-1.1,0.2-1.7,0.4c-0.1,0-0.1,0.3,0,0.4
	c0,0.1,0.2,0.1,0.4,0.1c0.4-0.1,0.7-0.3,1.1-0.4c0.2,0,0.3,0,0.5,0c-0.1,0.1-0.2,0.3-0.3,0.4c-0.2,0.1-0.4,0.2-0.7,0.3
	c0.3,0.5,0.8,0.1,1.1,0.2c0.1,0.6,0.3,0.8,0.9,0.6c0.3-0.1,0.5-0.1,0.4,0.3c-0.1,0.2,0.2,0.4-0.1,0.6c-0.4,0.2-0.6,0.2-0.8-0.2
	c-0.2-0.4-0.6-0.4-1-0.1c-0.3-0.2-0.2-0.8-0.9-0.8c0.1,0.2,0.1,0.4,0.2,0.6c0,0.2,0.1,0.6,0,0.6c-0.4,0.1-0.3-0.3-0.4-0.5
	c-0.1-0.3-0.2-0.6-0.3-0.8c-0.1-0.2-0.3-0.4-0.4-0.3c-0.3,0.1-0.3,0.3-0.2,0.6c0.2,0.5,0.3,1.1,0.9,1.4c0,0,0.1,0.1,0.1,0.2
	c-0.1,0.1-0.2,0.1-0.4,0.3c0.2,0.2,0.3,0.5,0.5,0.7c0.3,0.2,0.6,0.3,0.1,0.6c-0.1,0-0.1,0.2-0.2,0.2c-0.3,0-0.5-0.1-0.7-0.1
	c0-0.4,0-0.9,0-1.4c-0.6,0.1-0.7,0.1-0.5-0.5c0.1-0.3-0.2-1.4-0.4-1.6c-0.1-0.1-0.3-0.1-0.4-0.1c0,0.1-0.1,0.2-0.1,0.3
	c0.1,0.4,0.3,0.7,0.3,1c0,0.2,0,0.4,0,0.6c-0.1-0.1-0.3-0.3-0.4-0.4c-0.1-0.2-0.2-0.4-0.3-0.6c-0.5,0.3-0.1,0.8-0.2,1.1
	c-0.6,0-0.8,0.3-0.7,0.9c0,0.1,0,0.4-0.1,0.4c-0.3,0-0.5,0-0.8-0.1c-0.1-0.1-0.2-0.3-0.3-0.5c0.3-0.4,1.3-0.4,0.6-1.3
	c0.3-0.2,0.6-0.5,0.9-0.7c0-0.1-0.1-0.1-0.1-0.2c-0.3,0.1-0.6,0.2-0.9,0.2c-0.1,0-0.2,0-0.3-0.1c0.1-0.1,0.1-0.3,0.2-0.3
	c0.4-0.2,0.8-0.3,1.2-0.4c0.1-0.1,0.2-0.2,0.3-0.3c-0.2-0.1-0.4-0.2-0.5-0.2c-0.5,0.2-1.2,0.2-1.4,0.8c0,0.1-0.2,0.2-0.2,0.2
	c-0.1-0.1-0.2-0.2-0.3-0.4c-0.3,0.3-0.5,0.5-0.8,0.8c-0.2,0.2-0.3,0.2-0.4,0c0,0-0.3-0.8-0.3-0.8c0-0.3,0.2-0.3,0.4-0.2
	c0.3,0,0.7,0,1.1,0c-0.1-0.3-0.1-0.4-0.1-0.5c0.1,0,0.2-0.1,0.3-0.1c0.7,0.4,1.2-0.1,1.8-0.2c0.1,0,0.1-0.3,0.2-0.4
	c-0.1,0-0.3-0.2-0.4-0.1c-0.4,0.1-0.8,0.3-1.1,0.4c-0.1,0-0.3-0.1-0.5-0.1c0.1-0.1,0.2-0.3,0.3-0.3c0.2-0.1,0.5-0.1,0.8-0.2
	c-0.4-0.6-0.8-0.2-1.2-0.3c-0.1-0.6-0.3-0.8-0.9-0.7c-0.1,0-0.4,0-0.4-0.1c0-0.2-0.1-0.6,0-0.7c0.4-0.4,0.5-0.4,0.8,0.1
	c0.3,0.4,0.6,0.4,1,0.1c0.4,0.2,0.3,0.9,0.9,0.8c-0.1-0.3-0.2-0.6-0.3-1c0-0.1,0.1-0.2,0.1-0.3c0.1,0.1,0.2,0.1,0.3,0.2
	c0.2,0.4,0.3,0.8,0.5,1.2c0.1,0.1,0.3,0.2,0.4,0.3c0.1-0.2,0.2-0.4,0.1-0.5c-0.2-0.5-0.2-1.1-0.9-1.5c-0.4-0.2,0-0.3,0.3-0.5
	c-0.3-0.3-0.5-0.6-0.7-0.8c-0.2-0.2-0.3-0.3,0-0.4c0.1,0,0.1-0.1,0.1-0.1c0.1-0.7,0.5,0.1,0.8-0.2c0,0.2,0.1,0.4,0,0.5
	c-0.1,0.5,0,0.7,0.4,0.8c0.1,0,0.2,0.3,0.2,0.4c-0.3,0.6,0.1,1.1,0.3,1.6c0,0.1,0.3,0.2,0.5,0.2C111.1,13.2,111.1,13.2,111.2,13.1z
	 M111.1,13.8c-0.3-0.2-0.8,0-1,0.3c-0.2,0.3,0,0.8,0.4,1c0.3,0.2,0.8,0,1-0.3C111.7,14.5,111.5,14,111.1,13.8z"/>
<path fill="#FFFFFF" d="M459.1,15.9c-0.1-0.4-0.3-0.8-0.4-1.2c-0.1-0.2,0-0.5,0-0.7c0.1,0.2,0.3,0.4,0.4,0.6
	c0.1,0.1,0.1,0.3,0.2,0.5c0.6-0.3,0-0.8,0.2-1.2c0.6,0,0.8-0.3,0.7-0.8c0-0.2,0-0.5,0-0.5c0.3,0,0.6-0.1,0.8,0
	c0.5,0.4,0.4,0.5-0.1,0.9c-0.4,0.2-0.5,0.6-0.1,1c-0.3,0.2-0.6,0.5-0.9,0.7c0,0.1,0.1,0.1,0.1,0.2c0.3-0.1,0.6-0.2,0.8-0.3
	c0.1,0,0.3,0,0.4,0.1c-0.1,0.1-0.1,0.3-0.2,0.3c-0.2,0.1-0.5,0.2-0.8,0.3c-0.2,0.1-0.5,0.2-0.7,0.3c0.2,0.4,0.4,0.5,0.7,0.4
	c0.5-0.2,1-0.3,1.3-0.8c0.2-0.4,0.3,0,0.5,0.3c0.4-0.3,0.7-0.6,1.1-0.9c0.2,0.1,0.4,0.3,0.5,0.4c0,0.2,0,0.4-0.1,0.6
	c0,0.1-0.2,0.2-0.4,0.2c-0.3,0-0.7,0-1-0.1c0,0.3,0,0.4,0.1,0.6c-0.1,0-0.3,0-0.4,0c-0.7-0.3-1.1,0.2-1.7,0.4c-0.1,0-0.1,0.3,0,0.4
	c0,0.1,0.2,0.1,0.4,0.1c0.4-0.1,0.7-0.3,1.1-0.4c0.2,0,0.3,0,0.5,0c-0.1,0.1-0.2,0.3-0.3,0.4c-0.2,0.1-0.4,0.2-0.7,0.3
	c0.3,0.5,0.8,0.1,1.1,0.2c0.1,0.6,0.3,0.8,0.9,0.6c0.3-0.1,0.5-0.1,0.4,0.3c-0.1,0.2,0.2,0.4-0.1,0.6c-0.4,0.2-0.6,0.2-0.8-0.2
	c-0.2-0.4-0.6-0.4-1-0.1c-0.3-0.2-0.2-0.8-0.9-0.8c0.1,0.2,0.1,0.4,0.2,0.6c0,0.2,0.1,0.6,0,0.6c-0.4,0.1-0.3-0.3-0.4-0.5
	c-0.1-0.3-0.2-0.6-0.3-0.8c-0.1-0.2-0.3-0.4-0.4-0.3c-0.3,0.1-0.3,0.3-0.2,0.6c0.2,0.5,0.3,1.1,0.9,1.4c0,0,0.1,0.1,0.1,0.2
	c-0.1,0.1-0.2,0.1-0.4,0.3c0.2,0.2,0.3,0.5,0.5,0.7c0.3,0.2,0.6,0.3,0.1,0.6c-0.1,0-0.1,0.2-0.2,0.2c-0.3,0-0.5-0.1-0.7-0.1
	c0-0.4,0-0.9,0-1.4c-0.6,0.1-0.7,0.1-0.5-0.5c0.1-0.3-0.2-1.4-0.4-1.6c-0.1-0.1-0.3-0.1-0.4-0.1c0,0.1-0.1,0.2-0.1,0.3
	c0.1,0.4,0.3,0.7,0.3,1c0,0.2,0,0.4,0,0.6c-0.1-0.1-0.3-0.3-0.4-0.4c-0.1-0.2-0.2-0.4-0.3-0.6c-0.5,0.3-0.1,0.8-0.2,1.1
	c-0.6,0-0.8,0.3-0.7,0.9c0,0.1,0,0.4-0.1,0.4c-0.3,0-0.5,0-0.8-0.1c-0.1-0.1-0.2-0.3-0.3-0.5c0.3-0.4,1.3-0.4,0.6-1.3
	c0.3-0.2,0.6-0.5,0.9-0.7c0-0.1-0.1-0.1-0.1-0.2c-0.3,0.1-0.6,0.2-0.9,0.2c-0.1,0-0.2,0-0.3-0.1c0.1-0.1,0.1-0.3,0.2-0.3
	c0.4-0.2,0.8-0.3,1.2-0.4c0.1-0.1,0.2-0.2,0.3-0.3c-0.2-0.1-0.4-0.2-0.5-0.2c-0.5,0.2-1.2,0.2-1.4,0.8c0,0.1-0.2,0.2-0.2,0.2
	c-0.1-0.1-0.2-0.2-0.3-0.4c-0.3,0.3-0.5,0.5-0.8,0.8c-0.2,0.2-0.3,0.2-0.4,0c0,0-0.3-0.8-0.3-0.8c0-0.3,0.2-0.3,0.4-0.2
	c0.3,0,0.7,0,1.1,0c-0.1-0.3-0.1-0.4-0.1-0.5c0.1,0,0.2-0.1,0.3-0.1c0.7,0.4,1.2-0.1,1.8-0.2c0.1,0,0.1-0.3,0.2-0.4
	c-0.1,0-0.3-0.2-0.4-0.1c-0.4,0.1-0.8,0.3-1.1,0.4c-0.1,0-0.3-0.1-0.5-0.1c0.1-0.1,0.2-0.3,0.3-0.3c0.2-0.1,0.5-0.1,0.8-0.2
	c-0.4-0.6-0.8-0.2-1.2-0.3c-0.1-0.6-0.3-0.8-0.9-0.7c-0.1,0-0.4,0-0.4-0.1c0-0.2-0.1-0.6,0-0.7c0.4-0.4,0.5-0.4,0.8,0.1
	c0.3,0.4,0.6,0.4,1,0.1c0.4,0.2,0.3,0.9,0.9,0.8c-0.1-0.3-0.2-0.6-0.3-1c0-0.1,0.1-0.2,0.1-0.3c0.1,0.1,0.2,0.1,0.3,0.2
	c0.2,0.4,0.3,0.8,0.5,1.2c0.1,0.1,0.3,0.2,0.4,0.3c0.1-0.2,0.2-0.4,0.1-0.5c-0.2-0.5-0.2-1.1-0.9-1.5c-0.4-0.2,0-0.3,0.3-0.5
	c-0.3-0.3-0.5-0.6-0.7-0.8c-0.2-0.2-0.3-0.3,0-0.4c0.1,0,0.1-0.1,0.1-0.1c0.1-0.7,0.5,0.1,0.8-0.2c0,0.2,0.1,0.4,0,0.5
	c-0.1,0.5,0,0.7,0.4,0.8c0.1,0,0.2,0.3,0.2,0.4c-0.3,0.6,0.1,1.1,0.3,1.6c0,0.1,0.3,0.2,0.5,0.2C459,16,459,16,459.1,15.9z
	 M459,16.6c-0.3-0.2-0.8,0-1,0.3c-0.2,0.3,0,0.8,0.4,1c0.3,0.2,0.8,0,1-0.3C459.5,17.3,459.3,16.8,459,16.6z"/>
<path fill="#FFFFFF" d="M143.5,17.4c-0.4-0.2-0.9-0.4-1.3-0.7c-0.2-0.2-0.4-0.4-0.6-0.6c0.3,0,0.6,0.1,0.8,0.1
	c0.2,0,0.4,0.2,0.6,0.3c0.2-0.8-0.7-0.7-0.8-1.2c0.5-0.5,0.4-0.9-0.2-1.3c-0.2-0.1-0.4-0.4-0.4-0.4c0.2-0.2,0.4-0.6,0.7-0.6
	c0.7-0.1,0.8,0.1,0.7,0.8c-0.1,0.6,0.1,0.9,0.7,1c0,0.5-0.1,0.9-0.1,1.4c0.1,0,0.2,0,0.2,0.1c0.2-0.3,0.3-0.6,0.5-1
	c0.1-0.1,0.3-0.2,0.4-0.3c0,0.2,0.1,0.4,0.1,0.5c-0.1,0.3-0.3,0.6-0.4,0.9c-0.1,0.3-0.2,0.6-0.3,0.9c0.5,0.2,0.7,0.1,0.9-0.3
	c0.2-0.6,0.6-1.1,0.4-1.8c-0.2-0.5,0.3-0.2,0.7-0.2c0.1-0.6,0.1-1.1,0.1-1.7c0.3,0,0.5-0.1,0.8-0.1c0.1,0.2,0.3,0.4,0.4,0.6
	c0,0.1-0.1,0.3-0.2,0.5c-0.3,0.3-0.6,0.6-0.9,0.9c0.3,0.2,0.4,0.3,0.5,0.4c-0.1,0.1-0.2,0.3-0.4,0.4c-0.8,0.3-0.8,1.2-1.1,1.8
	c0,0.1,0.2,0.3,0.3,0.4c0.1,0,0.3-0.1,0.4-0.2c0.2-0.4,0.4-0.8,0.6-1.2c0.1-0.2,0.3-0.3,0.4-0.4c0,0.2,0.1,0.4,0,0.6
	c-0.1,0.3-0.2,0.6-0.3,0.9c0.7,0.1,0.7-0.6,1.1-0.8c0.6,0.5,1,0.4,1.3-0.3c0.2-0.3,0.4-0.5,0.6,0c0.1,0.2,0.5,0.1,0.4,0.6
	c-0.1,0.6-0.3,0.7-0.8,0.5c-0.5-0.2-0.8,0.1-0.9,0.7c-0.4,0.1-0.9-0.5-1.4,0.1c0.2,0.1,0.5,0.2,0.6,0.3c0.2,0.1,0.6,0.4,0.6,0.5
	c-0.2,0.4-0.5,0.1-0.8,0c-0.3-0.1-0.6-0.3-1-0.4c-0.2-0.1-0.6-0.1-0.6,0c-0.2,0.3,0.1,0.5,0.4,0.6c0.6,0.3,1.2,0.7,2,0.4
	c0.1,0,0.1,0,0.3,0.1c0,0.2-0.1,0.3-0.1,0.6c0.3,0.1,0.7,0.2,1,0.2c0.4,0,0.8-0.2,0.6,0.5c0,0.1,0.1,0.3,0.1,0.3
	c-0.2,0.2-0.5,0.4-0.7,0.5c-0.4-0.4-0.8-0.8-1.2-1.2c-0.4,0.7-0.5,0.7-0.8,0.1c-0.2-0.4-1.4-1-1.7-1c-0.1,0-0.3,0.2-0.4,0.3
	c0.1,0.1,0.1,0.3,0.3,0.3c0.4,0.2,0.8,0.4,1.2,0.6c0.2,0.1,0.3,0.3,0.5,0.5c-0.2,0-0.5,0-0.7,0c-0.3-0.1-0.5-0.2-0.8-0.3
	c-0.1,0.7,0.6,0.7,0.8,1.1c-0.5,0.6-0.4,0.9,0.3,1.4c0.1,0.1,0.3,0.4,0.3,0.4c-0.2,0.2-0.4,0.5-0.7,0.6c-0.2,0.1-0.5-0.1-0.7-0.1
	c-0.1-0.6,0.7-1.5-0.6-1.6c0-0.4,0.1-0.9,0.1-1.3c-0.1,0-0.2,0-0.2-0.1c-0.2,0.3-0.4,0.7-0.6,1c-0.1,0.1-0.2,0.2-0.3,0.3
	c0-0.1-0.1-0.3-0.1-0.4c0.2-0.5,0.4-0.9,0.6-1.4c0.1-0.2,0-0.4,0-0.6c-0.2,0.1-0.5,0.1-0.6,0.2c-0.3,0.6-0.8,1.2-0.5,1.9
	c0,0.1,0,0.4-0.1,0.4c-0.2,0-0.3,0-0.7-0.1c0,0.5,0,0.9,0,1.3c0,0.3,0,0.4-0.3,0.3c-0.1,0-0.9-0.4-0.9-0.4c-0.3-0.2-0.1-0.3,0.1-0.5
	c0.3-0.3,0.6-0.6,1-0.9c-0.3-0.2-0.4-0.2-0.6-0.3c0.1-0.1,0.1-0.3,0.2-0.3c0.9-0.3,1-1.1,1.3-1.7c0.1-0.1-0.1-0.3-0.2-0.5
	c-0.2,0.1-0.4,0.1-0.4,0.2c-0.2,0.4-0.4,0.9-0.6,1.3c-0.1,0.2-0.3,0.2-0.5,0.4c0-0.2-0.1-0.4,0-0.6c0.1-0.3,0.3-0.5,0.5-0.9
	c-0.9-0.2-0.9,0.6-1.2,0.8c-0.6-0.5-0.9-0.4-1.4,0.3c-0.1,0.1-0.4,0.3-0.4,0.3c-0.2-0.2-0.6-0.4-0.6-0.6c0-0.7,0.1-0.8,0.8-0.6
	c0.6,0.1,0.9-0.2,0.9-0.8c0.5-0.1,1,0.4,1.5-0.1c-0.4-0.2-0.7-0.4-1.1-0.6c-0.1-0.1-0.1-0.2-0.2-0.3c0.1,0,0.3-0.1,0.4-0.1
	c0.5,0.2,0.9,0.4,1.4,0.6c0.2,0.1,0.4-0.1,0.6-0.1c-0.1-0.2-0.1-0.5-0.3-0.5c-0.6-0.3-1.2-0.7-2-0.5c-0.6,0.2-0.2-0.3-0.1-0.7
	c-0.5,0-0.9-0.1-1.3-0.1c-0.3,0-0.5,0-0.4-0.3c0-0.1,0-0.2,0-0.2c-0.5-0.7,0.5-0.4,0.5-0.8c0.2,0.1,0.4,0.3,0.5,0.4
	c0.3,0.5,0.6,0.5,1.1,0.3c0.1-0.1,0.4,0.1,0.5,0.2c0.3,0.8,1,0.8,1.6,1.1c0.1,0.1,0.4-0.1,0.6-0.2C143.4,17.6,143.4,17.5,143.5,17.4
	z M144,18.1c-0.4,0.2-0.7,0.7-0.6,1.1c0.1,0.4,0.7,0.7,1.2,0.5c0.4-0.2,0.7-0.7,0.6-1.1C145,18.2,144.4,17.9,144,18.1z"/>
<path fill="#FFFFFF" d="M289.2,64.1c-0.3-0.2-0.7-0.3-1-0.5c-0.2-0.1-0.3-0.3-0.5-0.5c0.2,0,0.4,0,0.6,0.1c0.2,0,0.3,0.1,0.5,0.2
	c0.1-0.6-0.5-0.5-0.6-0.9c0.4-0.4,0.3-0.7-0.1-1c-0.1-0.1-0.3-0.3-0.3-0.3c0.2-0.2,0.3-0.5,0.5-0.5c0.5-0.1,0.6,0.1,0.5,0.6
	c-0.1,0.4,0.1,0.7,0.6,0.7c0,0.3-0.1,0.7-0.1,1c0.1,0,0.1,0,0.2,0c0.1-0.2,0.2-0.5,0.4-0.7c0.1-0.1,0.2-0.1,0.3-0.2
	c0,0.1,0.1,0.3,0.1,0.4c-0.1,0.2-0.2,0.4-0.3,0.7c-0.1,0.2-0.2,0.4-0.2,0.7c0.3,0.1,0.6,0.1,0.7-0.2c0.2-0.4,0.4-0.8,0.3-1.4
	c-0.1-0.4,0.2-0.2,0.5-0.1c0-0.4,0.1-0.8,0.1-1.3c0.2,0,0.4-0.1,0.6-0.1c0.1,0.1,0.2,0.3,0.3,0.4c0,0.1,0,0.3-0.1,0.3
	c-0.2,0.2-0.5,0.4-0.7,0.7c0.2,0.2,0.3,0.2,0.4,0.3c-0.1,0.1-0.2,0.2-0.3,0.3c-0.6,0.2-0.6,0.9-0.8,1.4c0,0,0.1,0.2,0.2,0.3
	c0.1,0,0.2-0.1,0.3-0.2c0.2-0.3,0.3-0.6,0.5-0.9c0.1-0.1,0.2-0.2,0.3-0.3c0,0.2,0,0.3,0,0.5c0,0.2-0.1,0.4-0.2,0.7
	c0.5,0.1,0.5-0.5,0.8-0.6c0.4,0.4,0.7,0.3,1-0.2c0.1-0.2,0.3-0.4,0.4,0c0.1,0.2,0.4,0.1,0.3,0.5c-0.1,0.4-0.2,0.5-0.6,0.4
	c-0.4-0.1-0.6,0.1-0.7,0.6c-0.3,0.1-0.7-0.4-1.1,0.1c0.2,0.1,0.3,0.2,0.5,0.3c0.2,0.1,0.4,0.3,0.4,0.4c-0.2,0.3-0.4,0.1-0.6,0
	c-0.2-0.1-0.5-0.2-0.7-0.3c-0.2,0-0.4,0-0.5,0c-0.2,0.3,0.1,0.4,0.3,0.5c0.5,0.2,0.9,0.5,1.5,0.3c0,0,0.1,0,0.2,0
	c0,0.1-0.1,0.3-0.1,0.4c0.3,0.1,0.5,0.2,0.8,0.1c0.3,0,0.6-0.2,0.5,0.4c0,0.1,0,0.2,0.1,0.3c-0.2,0.1-0.3,0.3-0.5,0.4
	c-0.3-0.3-0.6-0.6-0.9-0.9c-0.3,0.5-0.4,0.5-0.6,0c-0.1-0.3-1-0.8-1.3-0.7c-0.1,0-0.2,0.1-0.3,0.2c0.1,0.1,0.1,0.2,0.2,0.3
	c0.3,0.2,0.6,0.3,0.9,0.4c0.1,0.1,0.2,0.3,0.4,0.4c-0.2,0-0.3,0-0.5,0c-0.2,0-0.4-0.1-0.6-0.2c-0.1,0.5,0.5,0.5,0.6,0.8
	c-0.4,0.4-0.3,0.7,0.2,1c0.1,0.1,0.2,0.3,0.2,0.3c-0.2,0.2-0.3,0.4-0.5,0.5c-0.1,0.1-0.3-0.1-0.6-0.1c-0.1-0.4,0.5-1.1-0.5-1.2
	c0-0.3,0.1-0.7,0.1-1c-0.1,0-0.1,0-0.2,0c-0.1,0.2-0.3,0.5-0.4,0.7c-0.1,0.1-0.2,0.1-0.3,0.2c0-0.1-0.1-0.2-0.1-0.3
	c0.1-0.4,0.3-0.7,0.5-1c0-0.1,0-0.3,0-0.4c-0.2,0.1-0.4,0.1-0.4,0.2c-0.2,0.5-0.6,0.9-0.4,1.5c0,0.1,0,0.3,0,0.3
	c-0.1,0-0.3,0-0.5-0.1c0,0.3,0,0.7,0,1c0,0.2,0,0.3-0.3,0.3c0,0-0.7-0.3-0.7-0.3c-0.2-0.2-0.1-0.3,0.1-0.4c0.2-0.2,0.5-0.4,0.7-0.7
	c-0.2-0.1-0.3-0.2-0.4-0.2c0.1-0.1,0.1-0.2,0.1-0.2c0.7-0.2,0.7-0.8,1-1.3c0-0.1-0.1-0.3-0.1-0.4c-0.1,0.1-0.3,0.1-0.3,0.2
	c-0.2,0.3-0.3,0.7-0.5,1c-0.1,0.1-0.2,0.2-0.4,0.3c0-0.1,0-0.3,0-0.4c0.1-0.2,0.2-0.4,0.4-0.7c-0.7-0.1-0.6,0.4-0.9,0.6
	c-0.5-0.3-0.7-0.3-1,0.2c-0.1,0.1-0.3,0.2-0.3,0.2c-0.2-0.1-0.4-0.3-0.4-0.5c0-0.5,0.1-0.6,0.6-0.5c0.4,0.1,0.7-0.1,0.7-0.6
	c0.4-0.1,0.8,0.3,1.1-0.1c-0.3-0.1-0.5-0.3-0.8-0.4c-0.1,0-0.1-0.2-0.2-0.3c0.1,0,0.2-0.1,0.3-0.1c0.4,0.1,0.7,0.3,1.1,0.5
	c0.1,0,0.3-0.1,0.4-0.1c-0.1-0.1-0.1-0.3-0.2-0.4c-0.5-0.2-0.9-0.6-1.5-0.4c-0.4,0.1-0.2-0.2-0.1-0.5c-0.4,0-0.7-0.1-1,0
	c-0.2,0-0.4,0-0.3-0.3c0-0.1,0-0.1,0-0.2c-0.4-0.5,0.4-0.3,0.4-0.6c0.1,0.1,0.3,0.2,0.4,0.3c0.2,0.4,0.4,0.4,0.8,0.2
	c0.1,0,0.3,0.1,0.3,0.1c0.2,0.6,0.8,0.6,1.2,0.8c0.1,0,0.3-0.1,0.5-0.2C289.2,64.3,289.2,64.2,289.2,64.1z M289.6,64.6
	c-0.3,0.1-0.5,0.5-0.4,0.8c0.1,0.3,0.6,0.5,0.9,0.4c0.3-0.1,0.6-0.5,0.4-0.8C290.4,64.7,290,64.5,289.6,64.6z"/>
<path fill="#FFFFFF" d="M260.5,42.1c-0.4-0.4-0.8-0.7-1.1-1.2c-0.2-0.2-0.3-0.6-0.4-0.9c0.3,0.1,0.5,0.3,0.8,0.4
	c0.2,0.1,0.3,0.3,0.5,0.5c0.5-0.7-0.5-1-0.4-1.5c0.7-0.3,0.7-0.8,0.3-1.3c-0.1-0.2-0.3-0.5-0.2-0.5c0.3-0.2,0.6-0.5,0.9-0.4
	c0.8,0.2,0.8,0.4,0.4,1.1c-0.3,0.5-0.2,0.9,0.4,1.2c-0.2,0.4-0.4,0.9-0.6,1.3c0.1,0,0.1,0.1,0.2,0.1c0.3-0.3,0.5-0.5,0.8-0.8
	c0.1-0.1,0.3-0.1,0.5-0.1c0,0.2,0,0.4-0.1,0.5c-0.2,0.3-0.5,0.5-0.7,0.7c-0.2,0.2-0.4,0.5-0.6,0.8c0.4,0.4,0.7,0.4,1,0
	c0.5-0.5,1-0.9,1-1.7c0-0.6,0.4-0.1,0.8,0.1c0.3-0.6,0.5-1.1,0.8-1.6c0.3,0.1,0.6,0.1,0.9,0.2c0.1,0.2,0.2,0.5,0.2,0.7
	c0,0.1-0.2,0.3-0.3,0.4c-0.4,0.2-0.8,0.3-1.3,0.5c0.2,0.3,0.3,0.5,0.4,0.6c-0.2,0.1-0.4,0.2-0.5,0.2c-1,0-1.2,0.9-1.8,1.4
	c-0.1,0.1,0,0.4,0.2,0.5c0.1,0.1,0.4,0,0.5-0.1c0.4-0.3,0.7-0.7,1.1-1c0.2-0.1,0.4-0.2,0.6-0.3c-0.1,0.2-0.1,0.4-0.2,0.6
	c-0.2,0.3-0.4,0.5-0.6,0.8c0.7,0.4,0.9-0.4,1.4-0.4c0.4,0.7,0.8,0.8,1.5,0.2c0.3-0.3,0.5-0.4,0.6,0.2c0,0.2,0.5,0.3,0.2,0.8
	c-0.4,0.5-0.5,0.6-1,0.2c-0.4-0.4-0.9-0.2-1.2,0.4c-0.5-0.1-0.8-0.9-1.5-0.4c0.2,0.2,0.4,0.4,0.5,0.6c0.2,0.2,0.4,0.7,0.4,0.7
	c-0.4,0.3-0.6-0.1-0.8-0.3c-0.3-0.2-0.5-0.6-0.8-0.8c-0.2-0.1-0.5-0.3-0.7-0.2c-0.4,0.3-0.1,0.5,0.1,0.8c0.5,0.5,1,1.2,1.8,1.1
	c0.1,0,0.1,0.1,0.2,0.2c-0.1,0.2-0.2,0.3-0.4,0.5c0.3,0.2,0.6,0.5,1,0.6c0.4,0.1,0.9,0.1,0.4,0.7c-0.1,0.1,0,0.3,0,0.4
	c-0.3,0.1-0.6,0.2-0.9,0.3c-0.2-0.5-0.5-1.1-0.7-1.6c-0.7,0.5-0.8,0.5-0.8-0.2c0-0.5-1-1.6-1.4-1.6c-0.2,0-0.3,0.1-0.5,0.1
	c0,0.1,0,0.3,0.1,0.4c0.3,0.4,0.7,0.7,1,1c0.2,0.2,0.2,0.5,0.3,0.7c-0.2-0.1-0.5-0.2-0.7-0.3c-0.2-0.2-0.4-0.4-0.7-0.6
	c-0.4,0.7,0.3,1,0.4,1.4c-0.7,0.4-0.7,0.8-0.2,1.5c0.1,0.1,0.2,0.5,0.1,0.5c-0.3,0.2-0.6,0.3-0.9,0.3c-0.2,0-0.4-0.3-0.7-0.4
	c0.1-0.6,1.3-1.2,0-1.9c0.2-0.4,0.4-0.9,0.6-1.3c-0.1,0-0.1-0.1-0.2-0.1c-0.3,0.3-0.6,0.5-0.9,0.8c-0.1,0.1-0.3,0.1-0.4,0.1
	c0-0.2,0-0.4,0.1-0.5c0.4-0.4,0.8-0.8,1.1-1.2c0.1-0.1,0.1-0.4,0.2-0.6c-0.2,0-0.6-0.1-0.7,0c-0.5,0.5-1.3,0.8-1.2,1.8
	c0,0.1-0.2,0.3-0.2,0.3c-0.2-0.1-0.3-0.2-0.6-0.3c-0.2,0.5-0.4,0.9-0.5,1.3c-0.1,0.3-0.2,0.4-0.5,0.2c0,0-0.7-0.7-0.8-0.8
	c-0.2-0.4,0-0.4,0.3-0.5c0.4-0.1,0.8-0.4,1.3-0.6c-0.2-0.3-0.3-0.4-0.4-0.5c0.1-0.1,0.2-0.2,0.3-0.2c1,0.1,1.4-0.7,1.9-1.3
	c0.1-0.1,0-0.4,0-0.6c-0.2,0-0.4,0-0.5,0.1c-0.4,0.3-0.7,0.7-1.1,1.1c-0.2,0.1-0.4,0.1-0.6,0.2c0.1-0.2,0.1-0.4,0.2-0.6
	c0.2-0.2,0.5-0.4,0.8-0.7c-0.8-0.5-1.1,0.3-1.5,0.3c-0.4-0.7-0.8-0.7-1.5-0.2c-0.1,0.1-0.5,0.2-0.5,0.1c-0.2-0.3-0.4-0.6-0.3-0.9
	c0.2-0.7,0.4-0.7,1.1-0.3c0.5,0.3,0.9,0.2,1.2-0.4c0.5,0,0.9,0.8,1.6,0.5c-0.3-0.3-0.6-0.6-0.8-1c-0.1-0.1-0.1-0.3-0.1-0.4
	c0.1,0,0.3,0,0.4,0.1c0.4,0.4,0.8,0.8,1.2,1.2c0.1,0.1,0.4,0.1,0.6,0.1c0-0.2,0-0.5-0.1-0.6c-0.5-0.5-0.9-1.2-1.8-1.2
	c-0.6,0-0.1-0.4,0.1-0.7c-0.5-0.2-0.9-0.4-1.3-0.6c-0.3-0.1-0.5-0.1-0.3-0.5c0-0.1,0.1-0.2,0.1-0.2c-0.2-0.9,0.7-0.2,0.8-0.6
	c0.1,0.2,0.3,0.4,0.3,0.6c0.1,0.6,0.4,0.8,0.9,0.7c0.1,0,0.4,0.2,0.4,0.4c-0.1,0.9,0.7,1.2,1.2,1.7c0.1,0.1,0.4,0,0.7,0
	C260.4,42.3,260.4,42.2,260.5,42.1z M260.8,43c-0.5,0-1,0.4-1,0.9c0,0.5,0.5,1,1,1c0.5,0,1-0.4,1-0.9C261.8,43.5,261.3,43,260.8,43z
	"/>
</svg>
