<?xml version="1.0" encoding="utf-8"?>
<!-- Generator: Adobe Illustrator 29.8.2, SVG Export Plug-In . SVG Version: 9.03 Build 0)  -->
<svg version="1.1" baseProfile="tiny" id="UI" xmlns="http://www.w3.org/2000/svg" xmlns:xlink="http://www.w3.org/1999/xlink"
	 x="0px" y="0px" viewBox="0 0 321 234.8" overflow="visible" xml:space="preserve">
<g>
	<g>
		<polygon fill="#FFFFFF" points="294.1,234.8 16,234.8 0,218.8 0,8 1,8 1,218.4 16.4,233.8 294.1,233.8 		"/>
	</g>
	<g>
		<path fill="#FFFFFF" d="M321,231.1H18.5L3.7,216.3V0H321V231.1z M18.9,230.1H320V1H4.7v214.9L18.9,230.1z"/>
	</g>
	<g>
		<rect x="4.2" y="16.5" fill="#FFFFFF" width="316.3" height="1"/>
	</g>
	<g>
		<path fill="#FFFFFF" d="M13.9,10.7h-0.8l2.3-4.2h0.8L13.9,10.7z"/>
		<path fill="#FFFFFF" d="M17,10.7h-0.8l2.3-4.2h0.8L17,10.7z"/>
		<path fill="#FFFFFF" d="M22.6,10.7V10h0.2V7.2h-0.2V6.5h2.1c0.1,0,0.3,0,0.4,0.1c0.2,0.1,0.4,0.4,0.5,0.5s0.1,0.3,0.1,0.4v2.1
			c0,0.1,0,0.3-0.1,0.4c-0.2,0.3-0.6,0.6-0.9,0.6L22.6,10.7L22.6,10.7z M24.7,10L24.7,10C24.8,9.9,25,9.7,25,9.6V7.5l0,0
			c-0.1-0.1-0.2-0.3-0.3-0.3c0,0,0,0-0.1,0h-1.1V10H24.7z"/>
		<path fill="#FFFFFF" d="M30.7,10.7h-0.8l-0.3-0.9H28l-0.3,0.9H27l1.5-4.2h0.9L30.7,10.7z M29.4,9.1l-0.6-1.7l-0.6,1.7H29.4z"/>
		<path fill="#FFFFFF" d="M33.2,7.2v3.5h-0.7V7.2h-1.1V6.5h3v0.7H33.2z"/>
		<path fill="#FFFFFF" d="M37.6,10.7h-0.8c-0.4,0-0.9-0.5-1.1-0.9l0.7-0.2c0.1,0.1,0.2,0.4,0.4,0.4h0.7l0,0c0.1,0,0.2-0.1,0.2-0.2
			l0,0V9l0,0c0-0.1-0.1-0.2-0.2-0.2l0,0h-1.7V6.5h2.5v0.7h-1.7V8h0.9c0.2,0,0.4,0.1,0.5,0.2c0.1,0.1,0.3,0.3,0.4,0.4
			c0.1,0.1,0.1,0.3,0.1,0.4v0.7C38.6,10.2,38.1,10.7,37.6,10.7z"/>
		<path fill="#FFFFFF" d="M42.9,9.7c0,0.1,0,0.3-0.1,0.4c-0.1,0.1-0.3,0.3-0.4,0.4c-0.1,0.1-0.3,0.2-0.5,0.2h-0.8
			c-0.2,0-0.4-0.1-0.5-0.2c-0.1-0.1-0.3-0.3-0.4-0.4c-0.1-0.1-0.1-0.3-0.1-0.4V9.2c0-0.3,0.1-0.4,0.3-0.6c-0.2-0.2-0.3-0.3-0.3-0.6
			V7.4c0-0.1,0-0.3,0.1-0.4s0.3-0.3,0.4-0.4c0.1-0.1,0.3-0.2,0.5-0.2h0.8c0.2,0,0.4,0.1,0.5,0.2s0.3,0.3,0.4,0.4
			c0.1,0.1,0.1,0.3,0.1,0.4V8c0,0.3-0.1,0.4-0.3,0.6c0.2,0.2,0.3,0.3,0.3,0.6V9.7z M42.2,8V7.4l0,0c-0.1-0.1-0.2-0.2-0.3-0.2h-0.8
			c-0.1,0-0.2,0.1-0.3,0.2l0,0V8l0,0c0.1,0.1,0.2,0.2,0.3,0.2h0.8C42,8.2,42.1,8.1,42.2,8L42.2,8z M42.2,9.7V9.2l0,0
			C42.1,9,42,8.9,41.9,8.9h-0.8c-0.1,0-0.2,0.1-0.3,0.2l0,0v0.6l0,0C40.9,9.9,41,10,41.1,10h0.8C42,10,42.1,9.9,42.2,9.7
			C42.2,9.8,42.2,9.8,42.2,9.7z"/>
		<path fill="#FFFFFF" d="M45.7,10.7h-0.8l1.7-3.5h-2.1V6.5h2.9v0.6L45.7,10.7z"/>
		<path fill="#FFFFFF" d="M48.7,9.3V8.6h1.6v0.7H48.7z"/>
		<path fill="#FFFFFF" d="M53.5,10.7h-0.9l-1.4-4.2H52l1,3.2l1-3.2h0.8L53.5,10.7z"/>
		<path fill="#FFFFFF" d="M57.3,10.7h-0.8l1.7-3.5h-2.1V6.5H59v0.6L57.3,10.7z"/>
		<path fill="#FFFFFF" d="M60.5,10.7V9.8h0.9v0.9H60.5z"/>
		<path fill="#FFFFFF" d="M63.7,7.4v0.7c0,0,0.2-0.2,0.4-0.2h0.7c0.2,0,0.3,0,0.5,0.1c0.1,0.1,0.3,0.3,0.4,0.4
			c0.1,0.1,0.1,0.3,0.1,0.4v0.8c0,0.1,0,0.3-0.1,0.4c-0.1,0.1-0.3,0.3-0.4,0.4c-0.1,0.1-0.3,0.2-0.5,0.2H64c-0.2,0-0.4-0.1-0.5-0.2
			c-0.1-0.1-0.3-0.3-0.4-0.4C63,10,63,9.9,63,9.7V7.4c0-0.1,0-0.3,0.1-0.4s0.3-0.3,0.4-0.4c0.1-0.1,0.3-0.2,0.5-0.2h0.8
			c0.4,0,0.9,0.5,1.1,0.9l-0.7,0.2l0,0c0-0.1-0.3-0.4-0.4-0.4H64C63.9,7.2,63.8,7.4,63.7,7.4L63.7,7.4z M65.1,8.9L65.1,8.9
			c-0.1-0.2-0.2-0.3-0.3-0.3h-0.7H64c0,0-0.3,0.2-0.3,0.3v0.7c0,0.1,0,0.1,0,0.1C63.8,9.9,63.9,10,64,10h0.8c0.1,0,0.2-0.1,0.3-0.2
			c0,0,0,0,0-0.1C65.1,9.7,65.1,8.9,65.1,8.9z"/>
	</g>
</g>
</svg>
