<?xml version="1.0" encoding="utf-8"?>
<!-- Generator: Adobe Illustrator 28.0.0, SVG Export Plug-In . SVG Version: 6.00 Build 0)  -->
<svg version="1.1" baseProfile="tiny" id="Layer_1" xmlns="http://www.w3.org/2000/svg" xmlns:xlink="http://www.w3.org/1999/xlink"
	 x="0px" y="0px" viewBox="0 0 147.2 8" overflow="visible" xml:space="preserve">
<path id="opacity:60_colorstyle:Base" fill="#383838" d="M6.9,2.4h48.9l4.8,4.8h26.2l4.8-4.8h48.9V0.8H91l-4.8,4.8H61.3l-4.8-4.8
	H6.9V2.4z"/>
<path id="colorstyle:Selected" fill="#848484" d="M147.2,5.7V1.6c0-0.3-0.3-0.4-0.5-0.2l-4.1,4.1c-0.2,0.2-0.1,0.5,0.2,0.5h4.1
	C147.1,6.1,147.2,5.9,147.2,5.7z M0.3,6.1h4.1c0.3,0,0.4-0.3,0.2-0.5L0.5,1.4C0.3,1.2,0,1.4,0,1.6v4.1C0,5.9,0.1,6.1,0.3,6.1z"/>
<path id="opacity:40_colorstyle:Accent1" fill="#BABABA" d="M141.9,0.8v1.6h1.6V0.8H141.9z M5.2,0.8H3.6v1.6h1.6V0.8z M84.8,3.9
	L88,0.8H59.4l3.1,3.1C62.5,3.9,84.8,3.9,84.8,3.9z"/>
</svg>
