<?xml version="1.0" encoding="utf-8"?>
<!-- Generator: Adobe Illustrator 28.0.0, SVG Export Plug-In . SVG Version: 6.00 Build 0)  -->
<svg version="1.1" baseProfile="tiny" id="Layer_1" xmlns="http://www.w3.org/2000/svg" xmlns:xlink="http://www.w3.org/1999/xlink"
	 x="0px" y="0px" viewBox="0 0 8 147.7" overflow="visible" xml:space="preserve">
<path id="colorstyle:Base" fill="#383838" d="M3.7,140.6V91.7l4.8-4.8V60.7l-4.8-4.8V7H2.1v49.5l4.8,4.8v24.8L2.1,91v49.5h1.6V140.6
	z"/>
<path id="colorstyle:Selected" fill="#848484" d="M7,0.2H2.9c-0.3,0-0.4,0.3-0.2,0.5l4.1,4.1C7,5.1,7.3,5,7.3,4.7V0.6
	C7.3,0.4,7.2,0.2,7,0.2z M7.3,147.1V143c0-0.3-0.3-0.4-0.5-0.2l-4.1,4.1c-0.2,0.2-0.1,0.5,0.2,0.5H7C7.2,147.4,7.3,147.3,7.3,147.1z
	"/>
<path id="opacity:80_colorstyle:Accent1" fill="#BABABA" d="M2.1,5.5h1.6V3.9H2.1V5.5z M2,142.2v1.6h1.6v-1.6H2z M5.2,62.6L2,59.5
	v28.6L5.1,85L5.2,62.6L5.2,62.6z"/>
</svg>
