<?xml version="1.0" encoding="utf-8"?>
<!-- Generator: Adobe Illustrator 27.8.1, SVG Export Plug-In . SVG Version: 6.00 Build 0)  -->
<svg version="1.1" baseProfile="tiny" id="Border" xmlns="http://www.w3.org/2000/svg" xmlns:xlink="http://www.w3.org/1999/xlink"
	 x="0px" y="0px" viewBox="0 0 1836.5 958.5" overflow="visible" xml:space="preserve">
<path id="Shape" fill="#FFFFFF" d="M1830.8,0h-672.2c0,0,0,0,0,0c-7.9,0-15.3,3.1-20.8,8.6c-5.5,5.5-12.7,8.5-20.5,8.5H719.2
	c-7.7,0-15-3-20.5-8.5c-5.6-5.6-13-8.6-20.8-8.6H5.7C2.6,0,0,2.6,0,5.7v947c0,3.2,2.6,5.7,5.7,5.7h1825c3.2,0,5.7-2.6,5.7-5.7V5.7
	C1836.5,2.6,1833.9,0,1830.8,0z M1835,5.7v947c0,2.3-1.9,4.2-4.2,4.2H5.7c-2.3,0-4.2-1.9-4.2-4.2V5.7c0-2.3,1.9-4.2,4.2-4.2h672.2
	c0,0,0,0,0.1,0c7.3,0,14.5,3,19.7,8.2c5.6,5.7,13.5,8.9,21.5,8.9c0,0,0.1,0,0.1,0h398.1c0,0,0.1,0,0.1,0c8,0,15.8-3.2,21.5-8.9
	c5.2-5.2,12.4-8.2,19.7-8.2c0,0,0,0,0.1,0h672.2C1833.1,1.5,1835,3.4,1835,5.7z"/>
</svg>
