<?xml version="1.0" encoding="utf-8"?>
<!-- Generator: Adobe Illustrator 28.0.0, SVG Export Plug-In . SVG Version: 6.00 Build 0)  -->
<svg version="1.1" baseProfile="tiny" id="Layer_1" xmlns="http://www.w3.org/2000/svg" xmlns:xlink="http://www.w3.org/1999/xlink"
	 x="0px" y="0px" viewBox="0 0 112 112" overflow="visible" xml:space="preserve">
<path id="opacity:60_colorstyle:Base" fill="#383838" d="M107,64.6V47.4l3.3-3.3l0,0l0,0V10.8V9.7h-1.1h-7.4V2.5V1.4h-1.1h-33
	l-3.3,3.3h-17l-3.3-3.3H11.3h-1.1v1.1v7.4H2.8H1.7v1.1v33.3l0,0l0,0L5,47.5v17l-3.3,3.3l0,0l0,0v33.3v1.1h1.1h7.4v7.4v1.1h1.1h32.9
	l3.3-3.3h17l3.3,3.3h32.9h1.1v-1.1v-7.4h7.4h1.1v-1.1V67.9l0,0l0,0L107,64.6z M100.7,101.2v8.5H68.3l-3.3-3.3H47l-3.3,3.3H11.3v-8.5
	H2.8V68.3L6.1,65V47l-3.3-3.3V10.8h8.5V2.5h32.5l3.3,3.3h18l3.3-3.3H101v8.5h8.5v32.9l-3.3,3.3V65l3.3,3.3v32.9H100.7z"/>
<path id="colorstyle:Selected" fill="#848484" d="M2.5,6.9l4.7-4.7C7.4,1.9,7.7,2,7.7,2.4v4.7c0,0.2-0.1,0.3-0.3,0.3H2.8
	C2.5,7.5,2.2,7.1,2.5,6.9z M104.5,7.5h4.7c0.3,0,0.4-0.3,0.2-0.5l-4.6-4.8c-0.2-0.2-0.5-0.1-0.5,0.2v4.7
	C104.1,7.3,104.4,7.5,104.5,7.5z M7.5,104.5H2.8c-0.3,0-0.4,0.3-0.2,0.5l4.7,4.7c0.2,0.2,0.5,0.1,0.5-0.2v-4.7
	C7.9,104.7,7.6,104.5,7.5,104.5z M109.2,104.5h-4.7c-0.2,0-0.3,0.1-0.3,0.3v4.7c0,0.3,0.3,0.4,0.5,0.2l4.7-4.7
	C109.8,104.9,109.5,104.5,109.2,104.5z"/>
<path id="opacity:40_colorstyle:Accent1" fill="#BABABA" d="M3.6,3.3H1.7V1.5h1.9V3.3z M110.2,1.5h-1.9v1.9h1.9V1.5z M1.7,110.5h1.9
	v-1.8H1.7V110.5z M108.3,110.5h1.9v-1.8h-1.9V110.5z M108.3,48.3V56v7.7l2.2,2.2V56v-9.8L108.3,48.3z M3.7,56v-7.7l-2.2-2.2V56v9.8
	l2.2-2.2V56z M56,3.5h7.7l2.2-2.2H56h-9.8l2.2,2.2H56z M56,108.5h-7.7l-2.2,2.2H56h9.8l-2.2-2.2H56z"/>
</svg>
