<?xml version="1.0" encoding="utf-8"?>
<!-- Generator: Adobe Illustrator 28.0.0, SVG Export Plug-In . SVG Version: 6.00 Build 0)  -->
<svg version="1.1" baseProfile="tiny" id="Layer_1" xmlns="http://www.w3.org/2000/svg" xmlns:xlink="http://www.w3.org/1999/xlink"
	 x="0px" y="0px" viewBox="0 0 8 32" overflow="visible" xml:space="preserve">
<path id="colorstyle:Base" fill="#383838" d="M2.3,32v-3.8l4.8-4.8V8.7L2.3,3.8V0H0.7v4.5l4.8,4.8v13.4l-4.8,4.8V32H2.3z"/>
<path id="colorstyle:Selected" fill="#848484" d="M5.6,29.7l-2,2c-0.1,0.1,0,0.4,0.1,0.4h4c0.2,0,0.3-0.2,0.1-0.4l-2-2
	C5.8,29.6,5.7,29.6,5.6,29.7z M5.9,2.3l2-2C8,0.2,8,0,7.8,0h-4C3.6,0,3.5,0.2,3.6,0.4l2,2C5.7,2.4,5.8,2.4,5.9,2.3z"/>
</svg>
