<?xml version="1.0" encoding="utf-8"?>
<!-- Generator: Adobe Illustrator 26.0.1, SVG Export Plug-In . SVG Version: 6.00 Build 0)  -->
<svg version="1.1" baseProfile="tiny" id="Layer_1" xmlns="http://www.w3.org/2000/svg" xmlns:xlink="http://www.w3.org/1999/xlink"
	 x="0px" y="0px" viewBox="0 0 1920 1080" overflow="visible" xml:space="preserve">
<path display="none" fill="#7D6223" d="M1356.3,1412.8l495.4-495.4c5.6-5.6,8.8-13.3,8.8-21.2v-395c0-8,3.2-15.6,8.8-21.2
	l207.3-207.4l133.9,133.9l-119.9,119.9v205l-363.2,363.2c-5.6,5.6-8.8,13.3-8.8,21.2v202.4l-228.5,228.4L1356.3,1412.8z"/>
<path display="none" fill="#7D6223" d="M-162.9,640.5l320-319.9c5.6-5.6,8.8-13.3,8.8-21.2v-249c0-8,3.2-15.6,8.8-21.2L306.9-103
	l-25.5-18.2l-429.3,429.3v243.7l-51.8,51.9L-162.9,640.5z"/>
<path display="none" fill="#7D6223" d="M-148.5,978.5L71.1,758.9c5.6-5.6,8.8-13.3,8.8-21.2V547.7c0-8,3.2-15.6,8.8-21.2
	l354.5-354.4c5.6-5.6,8.8-13.3,8.8-21.2V-41.7l119.9-119.9l118.5,128C701.3-21.8,701-3.4,689.6,8L149.2,548.3
	c-5.6,5.6-8.8,13.3-8.8,21.2v439.1c0,8-3.2,15.6-8.8,21.2L17.2,1144.3L-148.5,978.5z"/>
<path display="none" fill="#7D6223" d="M2038.3,58.7l-258.5,258.5c-5.6,5.6-8.8,13.3-8.8,21.2v108.8c0,8-3.2,15.6-8.8,21.2
	L1415,815.7c-5.6,5.6-8.8,13.3-8.8,21.2v331.3l142.7-46.5l70.7-70.7c5.6-5.6,8.8-13.3,8.8-21.2V680.8c0-8,3.2-15.6,8.8-21.2
	l649.5-649.5L2038.3,58.7z"/>
<path fill="#7D6223" d="M1356.3,1412.8l495.4-495.4c5.6-5.6,8.8-13.3,8.8-21.2v-395c0-8,3.2-15.6,8.8-21.2l207.3-207.4l133.9,133.9
	l-119.9,119.9v205l-363.2,363.2c-5.6,5.6-8.8,13.3-8.8,21.2v202.4l-228.5,228.4L1356.3,1412.8z"/>
<path fill="#7D6223" d="M-162.9,640.5l320-319.9c5.6-5.6,8.8-13.3,8.8-21.2v-249c0-8,3.2-15.6,8.8-21.2L306.9-103l-25.5-18.2
	l-429.3,429.3v243.7l-51.8,51.9L-162.9,640.5z"/>
<path fill="#7D6223" d="M-148.5,978.5L71.1,758.9c5.6-5.6,8.8-13.3,8.8-21.2V547.7c0-8,3.2-15.6,8.8-21.2l354.5-354.4
	c5.6-5.6,8.8-13.3,8.8-21.2V-41.7l119.9-119.9l118.5,128C701.3-21.8,701-3.4,689.6,8L149.2,548.3c-5.6,5.6-8.8,13.3-8.8,21.2v439.1
	c0,8-3.2,15.6-8.8,21.2L17.2,1144.3L-148.5,978.5z"/>
<path fill="#7D6223" d="M2038.3,58.7l-258.5,258.5c-5.6,5.6-8.8,13.3-8.8,21.2v108.8c0,8-3.2,15.6-8.8,21.2L1415,815.7
	c-5.6,5.6-8.8,13.3-8.8,21.2v331.3l142.7-46.5l70.7-70.7c5.6-5.6,8.8-13.3,8.8-21.2V680.8c0-8,3.2-15.6,8.8-21.2l649.5-649.5
	L2038.3,58.7z"/>
</svg>
