<?xml version="1.0" encoding="utf-8"?>
<!-- Generator: Adobe Illustrator 27.8.0, SVG Export Plug-In . SVG Version: 6.00 Build 0)  -->
<svg version="1.1" baseProfile="tiny" id="Layer_1" xmlns="http://www.w3.org/2000/svg" xmlns:xlink="http://www.w3.org/1999/xlink"
	 x="0px" y="0px" viewBox="0 0 486.2 55.4" overflow="visible" xml:space="preserve">
<path id="opacity:25" fill="#D4EDFF" d="M458.5,55.4H27.7C12.4,55.4,0,43,0,27.7v0C0,12.4,12.4,0,27.7,0l430.7,0
	c15.3,0,27.7,12.4,27.7,27.7v0C486.2,43,473.8,55.4,458.5,55.4z"/>
<path fill="#D4EDFF" d="M458.5,2.6c13.8,0,25.1,11.3,25.1,25.1s-11.3,25.1-25.1,25.1H27.7c-13.8,0-25.1-11.3-25.1-25.1
	S13.9,2.6,27.7,2.6H458.5 M458.5,0H27.7C12.4,0,0,12.4,0,27.7s12.4,27.7,27.7,27.7h430.7c15.3,0,27.7-12.4,27.7-27.7
	S473.8,0,458.5,0L458.5,0z"/>
</svg>
