<?xml version="1.0" encoding="utf-8"?>
<!-- Generator: Adobe Illustrator 25.4.1, SVG Export Plug-In . SVG Version: 6.00 Build 0)  -->
<svg version="1.2" baseProfile="tiny" id="Layer_1" xmlns="http://www.w3.org/2000/svg" xmlns:xlink="http://www.w3.org/1999/xlink"
	 x="0px" y="0px" viewBox="0 0 532 97" overflow="visible" xml:space="preserve">
<g>
	<path fill="#FFFFFF" d="M529.4,95.7L488,2.6h-22.3l-31.1,69.7h19.9l5.9-14.3h32.9l9.4,22.8H95.2v15.4h434.3h0.2L529.4,95.7z
		 M465.6,45.4L476.9,17l0-0.5l0,0.5l11.2,28.4H465.6z"/>
	<path fill="#FFFFFF" d="M413.4,34.7c4.8-1.8,10-5.7,10.2-14.5v-0.4c-0.3-16.8-18.8-17-18.8-17h-52.3v69.8H407c0,0,19.6-2.4,20-20.3
		v-0.5C426.8,40.7,419.1,36.4,413.4,34.7z M370.8,15.7v-0.5c0,0,23-0.1,26.6-0.1c5.8,0,7.4,5.1,7.4,5.1c0.4,2,1.4,10.6-7.4,10.6
		c-3.5,0-26.6-0.1-26.6-0.1V15.7z M407,53.5c0,0-1.8,5.4-7.9,5.4c-3.8,0-28.2-0.1-28.2-0.1v-16c0,0,24.5-0.1,28.2-0.1
		C408.5,42.7,407.4,51.4,407,53.5z"/>
	<path fill="#FFFFFF" d="M179.4,50.5c0,24.1,29.4,24.1,37.9,24.1s28.8-1.1,35.2-13.2c5.8-11,1-22.8-8-26.7c-10.8-4.6-33-6.4-39-8
		c-7.2-1.8-8-14.4,8.6-14.4c17.5,0,16.9,10.1,16.9,10.1h21c0-14.9-16.1-22-34.5-22s-36.9,4.9-37.1,19.7
		c-0.1,13.4,5.4,16.2,10.8,18.8c8.3,3.9,28.1,5.6,32.7,6.3c4.6,0.7,9.5,2.1,9.5,7.3s-4.3,9.2-13.9,9.2c-20.6,0-19.2-11.3-19.2-11.3
		H179.4z"/>
	<path fill="#FFFFFF" d="M2.8,39.9c0.5,13.3,4.9,34.5,40.6,34.5c41,0,41-28.6,41-28.6H65c0,0-1.8,15.5-22,15.5S21.4,40.8,21.4,37.1
		s1.4-24,21.6-24c20.2,0,22,15.5,22,15.5h19.4c0,0,0-28.6-41-28.6C7.7,0,3.3,21.1,2.8,34.5c0,0-0.1,1.7-0.1,2.7
		C2.7,38.1,2.8,39.9,2.8,39.9z"/>
	<path fill="#FFFFFF" d="M115.8,58h32.9l5.9,14.3h19.9L143.4,2.6h-22.3L90,72.3h19.9L115.8,58z M132.2,17l0-0.5L132.2,17l11.3,28.4
		H121L132.2,17z"/>
	<path fill="#FFFFFF" d="M284.9,58h32.9l5.9,14.3h19.9L312.5,2.6h-22.3l-31.1,69.7H279L284.9,58z M301.3,17l0-0.5L301.3,17
		l11.3,28.4h-22.5L301.3,17z"/>
	<polygon fill="#FFFFFF" points="76.2,83.6 81,83.6 81,95.9 83.6,95.9 83.6,83.6 88.5,83.6 88.5,80.8 76.2,80.8 	"/>
	<polygon fill="#FFFFFF" points="62.9,82.4 62.9,82.4 62.9,95.9 65.5,95.9 65.5,95.8 74.1,95.8 74.1,93 65.5,93 65.5,89.5 
		73.8,89.5 73.8,86.7 65.5,86.7 65.5,83.6 74.1,83.6 74.1,80.8 62.9,80.8 	"/>
	<polygon fill="#FFFFFF" points="34.5,83.6 39.3,83.6 39.3,95.9 42,95.9 42,83.6 46.8,83.6 46.8,80.8 34.5,80.8 	"/>
	<polygon fill="#FFFFFF" points="51.7,80.8 49,80.8 49,95.8 51.7,95.8 59.8,95.8 59.8,93 51.7,93 	"/>
	<path fill="#FFFFFF" d="M29.1,92.2c-0.1,0.3-0.8,1.6-3.5,1.6c-2.7,0-3.4-1.3-3.5-1.6V80.8h-2.6v12.3c0.2,0.6,0.9,1.7,2.6,2.5
		c0.9,0.4,2,0.7,3.5,0.7l0,0l0,0l0,0l0,0c1.5,0,2.6-0.3,3.5-0.7c1.7-0.8,2.4-1.8,2.6-2.5V80.8h-2.6C29.1,80.8,29.1,92.2,29.1,92.2z"
		/>
	<path fill="#FFFFFF" d="M8.9,80.6c-2.1,0-3.9,0.7-5.4,2.2c-1.4,1.4-2.1,3.5-2.1,6c0,1.3,0.2,2.5,0.5,3.4v0C3,95,5.2,96.3,8.6,96.3
		c2.1,0,3.9-0.7,5.4-2.2c1.4-1.4,2.1-3.5,2.1-6c0-1.3-0.2-2.5-0.6-3.4C14.5,82,12.2,80.6,8.9,80.6z M12.1,92.4
		c-0.9,1-2.1,1.5-3.4,1.5c-1.4,0-2.5-0.4-3.4-1.4c-0.9-0.9-1.3-2.3-1.3-4s0.5-3.1,1.4-4.1c0.9-1,2.1-1.5,3.5-1.5s2.5,0.4,3.4,1.4
		c0.9,0.9,1.3,2.3,1.3,4C13.5,90.1,13,91.5,12.1,92.4z"/>
</g>
</svg>
