<?xml version="1.0" encoding="utf-8"?>
<!-- Generator: Adobe Illustrator 29.5.1, SVG Export Plug-In . SVG Version: 9.03 Build 0)  -->
<svg version="1.1" baseProfile="tiny" id="Layer_1" xmlns="http://www.w3.org/2000/svg" xmlns:xlink="http://www.w3.org/1999/xlink"
	 x="0px" y="0px" viewBox="0 0 444.5 858.7" overflow="visible" xml:space="preserve">
<polygon id="opacity:20" fill="#00DDEC" points="253.3,251 253.6,25.8 243.1,25.8 167.2,25.8 167.2,0 89.1,0 89.1,25.8 0,25.8 
	0,858.7 444.5,858.7 444.5,401.5 "/>
<path fill="#00DDEC" d="M253.3,251l0.3-225.1H243h-18.6h-57.2V0H89.1v25.8H37.7H0v832.9h444.5V401.5L253.3,251z M167.2,35.8h54.1
	l-1.9,288.6v1.5l1.2,0.9l157.7,122.9v228.1H167.2v-586l0,0V35.8z M92.1,3h72.2v88.3H92.1V3z M164.2,94.8v583H92.1v-583L164.2,94.8
	L164.2,94.8z M40.7,35.8h48.4v56l0,0v586h-6L40.7,634V35.8z M10,848.7V35.8h27.7v599.3l44.1,45.6H89v168L10,848.7L10,848.7z
	 M92.1,848.7v-168h72.2v168H92.1z M434.5,848.7H167.2v-168h214.2V448.2L222.5,324.5l1.9-288.6h18.7h0.5l-0.3,220l191.3,150.5
	L434.5,848.7L434.5,848.7z M97.3,5.5v56.3H159V5.5H97.3z M113.5,61.8h-1V5.5h1V61.8z M128.8,61.8h-1V5.5h1V61.8z M144.2,61.8h-1V5.5
	h1V61.8z M120.3,633.7l23.4-10.9v7.1l-4.8,2.3V652l4.8,2.3v7.1l-23.4-10.9c-0.3-3.1-0.3-5.6-0.3-8.5S120,636.8,120.3,633.7z
	 M125.2,645.6l8.8,4.2v-15.2l-8.8,4.2c-0.1,0.8-0.2,2.4-0.2,3.4S125.1,644.8,125.2,645.6z M132.8,619c-2.1,0.4-3.8,0.6-5.9,0.6
	c-2.2,0-4-0.2-6.3-0.6c-0.6-5.2-0.8-10.4-0.8-15.5c0-5.2,0.1-10.5,0.6-15.8h4.5c-0.2,4-0.5,7.9-0.5,12.7c0,4.6,0.2,8.2,0.5,12
	c0.7,0.1,1.3,0.2,2,0.2c0.6,0,1.2-0.1,1.8-0.2c0.6-8.2,0.3-16.5,1.8-24.9c2.2-0.4,3.9-0.6,6.1-0.6c2.3,0,4.2,0.2,6.5,0.6
	c0.6,5.3,0.8,10.6,0.8,15.8s-0.1,10.4-0.6,15.7H139c0.2-4,0.4-8,0.4-13.1c0-4.6-0.2-8.3-0.4-11.8c-0.7-0.1-1.4-0.2-2.3-0.2
	c-0.7,0-1.4,0.1-2.1,0.2C134.1,602.4,134.1,610.6,132.8,619z M121,548.8c3.7-1.6,7.2-2.3,10.9-2.3s7.2,0.7,10.9,2.3
	c0.9,5.6,1.2,11.1,1.2,16.6c0,3.6-0.1,7.1-0.4,16.4h-23.5c-0.2-8.9-0.4-12.6-0.4-16.4C119.8,559.9,120.2,554.3,121,548.8z
	 M138.7,555.6c-2.3-0.8-4.5-1.1-6.8-1.1s-4.5,0.4-6.8,1.1c-0.4,3.2-0.5,6-0.5,9.8c0,3.6,0.2,6.3,0.4,9.3h13.7c0.2-3,0.4-5.6,0.4-9.3
	C139.2,561.6,139.1,558.7,138.7,555.6z M287.7,573.2L267.6,585c-1.2,0.7-1.9,1.9-1.9,3.3v0.3c0,1.4-0.8,2.6-2,3.3l-29.4,16.8
	c-5.5-1.5-8.6-2.3-14-3.8l-1-1.7l71.9-41.5l1,1.7L287.7,573.2z M287.7,646.7l-20.1-11.8c-1.2-0.7-1.9-2-1.9-3.4l0,0
	c0-1.4-0.8-2.7-2-3.4l-29.4-16.8c-5.5,1.5-8.6,2.3-14,3.8l-1,1.7l71.9,41.5l1-1.7L287.7,646.7z M290.1,574.5v20c0,1.1,0.6,2,1.5,2.5
	l1.7,0.9c0.9,0.5,1.5,1.5,1.5,2.5V619c0,0.9-0.4,1.8-1.2,2.3l-2.4,1.7c-0.8,0.5-1.2,1.4-1.2,2.3v20l9.8,9.4h2v-89.2h-2L290.1,574.5z
	 M268.8,546.5c0,0.8,0,1.6,0.1,2.4l7.6,3.8v-1.8l-1.8-0.9v-6.9l1.8-0.9v-1.8l-7.6,3.8C268.8,545,268.8,545.7,268.8,546.5z
	 M270.1,546.5c0-0.4,0-0.9,0-1.2l3.3-1.7v5.7l-3.3-1.7C270.1,547.4,270.1,546.9,270.1,546.5z M273.4,528.1c0.3-0.1,0.6-0.1,0.9-0.1
	s0.7,0,1,0.1c0.1,1.2,0.1,2.5,0.1,4c0,1.6-0.1,3-0.1,4.4h1.2c0.1-1.7,0.2-3.4,0.2-5c0-1.7-0.1-3.4-0.2-5c-0.7-0.1-1.3-0.2-2.1-0.2
	c-0.7,0-1.2,0.1-2,0.2c-0.5,2.9-0.4,5.6-0.6,8.4c-0.3,0-0.5,0.1-0.8,0.1s-0.6,0-0.9-0.1c-0.1-1.3-0.2-2.6-0.2-4
	c0-1.6,0.1-2.9,0.2-4.3h-1.2c-0.1,1.7-0.2,3.4-0.2,5s0.1,3.3,0.3,4.9c0.7,0.1,1.2,0.2,2,0.2c0.6,0,1.2-0.1,1.8-0.2
	C273.2,533.7,273.2,530.9,273.4,528.1z M273.4,513.4c0.3-0.1,0.6-0.1,0.9-0.1s0.7,0,1,0.1c0.1,1.2,0.1,2.5,0.1,4
	c0,1.6-0.1,3-0.1,4.4h1.2c0.1-1.7,0.2-3.4,0.2-5c0-1.7-0.1-3.4-0.2-5c-0.7-0.1-1.3-0.2-2.1-0.2c-0.7,0-1.2,0.1-2,0.2
	c-0.5,2.9-0.4,5.6-0.6,8.4c-0.3,0-0.5,0.1-0.8,0.1s-0.6,0-0.9-0.1c-0.1-1.3-0.2-2.6-0.2-4c0-1.6,0.1-2.9,0.2-4.3h-1.2
	c-0.1,1.7-0.2,3.4-0.2,5s0.1,3.3,0.3,4.9c0.7,0.1,1.2,0.2,2,0.2c0.6,0,1.2-0.1,1.8-0.2C273.2,518.9,273.2,516.2,273.4,513.4z
	 M276.3,496.1c-1.2-0.1-2.4-0.1-3.7-0.1s-2.4,0.1-3.7,0.1c-0.2,1.8-0.3,3.7-0.3,5.5s0.1,3.7,0.3,5.5c1.2,0.1,2.4,0.1,3.7,0.1
	s2.4-0.1,3.7-0.1c0.2-1.8,0.3-3.7,0.3-5.5C276.6,499.7,276.5,497.9,276.3,496.1z M272.7,505.3c-0.9,0-1.6,0-2.5-0.1
	c-0.1-1.2-0.1-2.4-0.1-3.6s0-2.4,0.1-3.6c0.9-0.1,1.6-0.1,2.5-0.1s1.6,0.1,2.5,0.1c0.1,1.2,0.1,2.4,0.1,3.6s0,2.4-0.1,3.6
	C274.3,505.3,273.5,505.3,272.7,505.3z M275.3,486c0,1.2,0,2.4-0.1,3.5c-0.9,0.1-1.6,0.1-2.5,0.1s-1.6-0.1-2.5-0.1
	c-0.1-1.2-0.1-2.4-0.1-3.5s0-2.3,0.1-3.4c0.4-0.1,0.8-0.1,1.3-0.1v-2c-0.8,0-1.6,0.1-2.5,0.2c-0.2,1.8-0.3,3.5-0.3,5.3
	s0.1,3.6,0.4,5.4c1.2,0.1,2.4,0.2,3.6,0.2s2.4-0.1,3.6-0.2c0.2-1.8,0.4-3.6,0.4-5.4s-0.1-3.5-0.4-5.3c-0.8-0.1-1.6-0.2-2.4-0.2v2
	c0.5,0,0.9,0,1.3,0.1C275.3,483.7,275.3,484.9,275.3,486z M268.8,474.3v1.8h7.7v-1.8H268.8z M268.8,464.4c0,0.8,0,1.6,0.1,2.4
	l7.6,3.8v-1.8l-1.8-0.9V461l1.8-0.9v-1.8l-7.6,3.8C268.8,462.9,268.8,463.6,268.8,464.4z M270.1,464.4c0-0.4,0-0.9,0-1.2l3.3-1.7
	v5.7l-3.3-1.7C270.1,465.3,270.1,464.8,270.1,464.4z M268.9,446.2c-0.1,1.8-0.2,3.6-0.2,5.4s0,3.6,0.2,5.4h1.3
	c-0.1-2.3-0.1-3.5-0.1-4.5h6.5v-1.8H270c0-1,0-2.2,0.1-4.5H268.9z M272.2,434.8v5.9h-2.1c-0.1-1.3-0.1-2.7-0.1-4c0-1.4,0-3,0.2-4.3
	h-1.3c-0.1,1.6-0.2,3-0.2,4.6c0,1.8,0.1,3.8,0.2,5.6h7.6c0.1-1.8,0.2-3.6,0.2-5.4c0-1.6-0.1-3.2-0.2-4.8h-1.3
	c0.1,1.3,0.2,2.8,0.2,4.2c0,1.4,0,2.8-0.1,4.2h-2.1v-5.9h-1V434.8z M268.7,423.1c0,1.3,0.1,2.7,0.1,5.3h7.7c0.1-2.7,0.1-4,0.1-5.3
	c0-1.7-0.1-3.5-0.4-5.3c-1.2-0.5-2.4-0.7-3.6-0.7s-2.4,0.2-3.6,0.7C268.8,419.5,268.7,421.3,268.7,423.1z M275.4,423.1
	c0,1.3-0.1,2.3-0.1,3.5h-5.1c-0.1-1.1-0.1-2.2-0.1-3.5s0-2.4,0.1-3.6c0.9-0.3,1.7-0.4,2.6-0.4s1.7,0.1,2.6,0.4
	C275.3,420.6,275.4,421.7,275.4,423.1z M285.6,543.5c0.3-0.1,0.6-0.1,0.9-0.1s0.7,0,1,0.1c0.1,1.2,0.1,2.5,0.1,4
	c0,1.6-0.1,3-0.1,4.4h1.2c0.1-1.7,0.2-3.4,0.2-5c0-1.7-0.1-3.4-0.2-5c-0.7-0.1-1.3-0.2-2.1-0.2c-0.7,0-1.2,0.1-2,0.2
	c-0.5,2.9-0.4,5.6-0.6,8.4c-0.3,0-0.5,0.1-0.8,0.1s-0.6,0-0.9-0.1c-0.1-1.3-0.2-2.6-0.2-4c0-1.6,0.1-2.9,0.2-4.3h-1.2
	c-0.1,1.7-0.2,3.4-0.2,5s0.1,3.3,0.3,4.9c0.7,0.1,1.2,0.2,2,0.2c0.6,0,1.2-0.1,1.8-0.2C285.4,549,285.4,546.3,285.6,543.5z
	 M287.5,532.6c0,1.2,0,2.4-0.1,3.5c-0.9,0.1-1.6,0.1-2.5,0.1s-1.6-0.1-2.5-0.1c-0.1-1.2-0.1-2.4-0.1-3.5s0-2.3,0.1-3.4
	c0.4-0.1,0.8-0.1,1.3-0.1v-2c-0.8,0-1.6,0.1-2.5,0.2c-0.2,1.8-0.3,3.5-0.3,5.3s0.1,3.6,0.4,5.4c1.2,0.1,2.4,0.2,3.6,0.2
	s2.4-0.1,3.6-0.2c0.2-1.8,0.4-3.6,0.4-5.4c0-1.8-0.1-3.5-0.4-5.3c-0.8-0.1-1.6-0.2-2.4-0.2v2c0.5,0,0.9,0,1.3,0.1
	C287.5,530.3,287.5,531.5,287.5,532.6z M281,521.8v1.8h7.7v-1.8H281z M284.4,510.5v5.9h-2.1c-0.1-1.3-0.1-2.7-0.1-4
	c0-1.4,0-3,0.2-4.3h-1.3c-0.1,1.6-0.2,3-0.2,4.6c0,1.8,0.1,3.8,0.2,5.6h7.6c0.1-1.8,0.2-3.6,0.2-5.4c0-1.6-0.1-3.2-0.2-4.8h-1.3
	c0.1,1.3,0.2,2.8,0.2,4.2s0,2.8-0.1,4.2h-2.1v-5.9h-1V510.5z M281,493.9v1.8h5.4l-5.3,4.8c-0.1,1.5-0.1,2.8-0.1,4v0.3h7.7V503h-6.3
	c0-0.5,0-0.9,0-1.4l6.3-5.9l0,0v-1.8H281z M287.5,484.8c0,1.2,0,2.4-0.1,3.5c-0.9,0.1-1.6,0.1-2.5,0.1s-1.6-0.1-2.5-0.1
	c-0.1-1.2-0.1-2.4-0.1-3.5s0-2.3,0.1-3.4c0.4-0.1,0.8-0.1,1.3-0.1v-2c-0.8,0-1.6,0.1-2.5,0.2c-0.2,1.8-0.3,3.5-0.3,5.3
	s0.1,3.6,0.4,5.4c1.2,0.1,2.4,0.2,3.6,0.2s2.4-0.1,3.6-0.2c0.2-1.8,0.4-3.6,0.4-5.4s-0.1-3.5-0.4-5.3c-0.8-0.1-1.6-0.2-2.4-0.2v2
	c0.5,0,0.9,0,1.3,0.1C287.5,482.5,287.5,483.7,287.5,484.8z M284.4,468.1v5.9h-2.1c-0.1-1.3-0.1-2.7-0.1-4c0-1.4,0-3,0.2-4.3h-1.3
	c-0.1,1.6-0.2,3-0.2,4.6c0,1.8,0.1,3.8,0.2,5.6h7.6c0.1-1.8,0.2-3.6,0.2-5.4c0-1.6-0.1-3.2-0.2-4.8h-1.3c0.1,1.3,0.2,2.8,0.2,4.2
	c0,1.4,0,2.8-0.1,4.2h-2.1v-5.9h-1V468.1z M281,452.1c0,0.8,0,1.6,0.1,2.4l7.6,3.8v-1.8l-1.8-0.9v-6.9l1.8-0.9V446l-7.6,3.8
	C281,450.5,281,451.2,281,452.1z M282.3,452.1c0-0.4,0-0.9,0-1.2l3.3-1.7v5.7l-3.3-1.7C282.3,452.9,282.3,452.4,282.3,452.1z
	 M281,432.1v1.8h5.4l-5.3,4.8c-0.1,1.5-0.1,2.8-0.1,4v0.3h7.7v-1.8h-6.3c0-0.5,0-0.9,0-1.4l6.3-5.9l0,0v-1.8H281z M280.9,423.3
	c0,1.3,0.1,2.7,0.1,5.3h7.7c0.1-2.7,0.1-4,0.1-5.3c0-1.7-0.1-3.5-0.4-5.3c-1.2-0.5-2.4-0.7-3.6-0.7s-2.4,0.2-3.6,0.7
	C281,419.7,280.9,421.5,280.9,423.3z M287.6,423.3c0,1.3-0.1,2.3-0.1,3.5h-5.1c-0.1-1.1-0.1-2.2-0.1-3.5s0-2.4,0.1-3.6
	c0.9-0.3,1.7-0.4,2.6-0.4s1.7,0.1,2.6,0.4C287.5,420.8,287.6,421.9,287.6,423.3z M293.1,546.7c0,1.3,0.1,2.7,0.1,5.3h7.7
	c0.1-2.7,0.1-4,0.1-5.3c0-1.7-0.1-3.5-0.4-5.3c-1.2-0.5-2.4-0.7-3.6-0.7s-2.4,0.2-3.6,0.7C293.2,543.2,293.1,545,293.1,546.7z
	 M299.8,546.7c0,1.3-0.1,2.3-0.1,3.5h-5.1c-0.1-1.1-0.1-2.2-0.1-3.5s0-2.4,0.1-3.6c0.9-0.3,1.7-0.4,2.6-0.4s1.7,0.1,2.6,0.4
	C299.7,544.3,299.8,545.4,299.8,546.7z M296.6,531v5.9h-2.1c-0.1-1.3-0.1-2.7-0.1-4c0-1.4,0-3,0.2-4.3h-1.3c-0.1,1.6-0.2,3-0.2,4.6
	c0,1.8,0.1,3.8,0.2,5.6h7.6c0.1-1.8,0.2-3.6,0.2-5.4c0-1.6-0.1-3.2-0.2-4.8h-1.3c0.1,1.3,0.2,2.8,0.2,4.2s0,2.8-0.1,4.2h-2.1v-6
	H296.6z M299.7,521.6c0,0.4,0,0.7-0.1,1l-6.4,3.1v1.9l7.6-3.6c0.1-0.9,0.1-1.6,0.1-2.4c0-0.8,0-1.6-0.1-2.4l-7.6-3.6v2l6.4,3.1
	C299.6,520.9,299.7,521.2,299.7,521.6z M296.6,506.5v5.9h-2.1c-0.1-1.3-0.1-2.7-0.1-4c0-1.4,0-3,0.2-4.3h-1.3
	c-0.1,1.6-0.2,3-0.2,4.6c0,1.8,0.1,3.8,0.2,5.6h7.6c0.1-1.8,0.2-3.6,0.2-5.4c0-1.6-0.1-3.2-0.2-4.8h-1.3c0.1,1.3,0.2,2.8,0.2,4.2
	c0,1.4,0,2.8-0.1,4.2h-2.1v-5.9h-1V506.5z M293.2,502.4h1.5c2,0,4.1-0.1,6.1-0.2c0.2-1.6,0.2-3,0.2-4.6c0-1.5-0.1-3-0.2-4.6
	c-0.8-0.1-1.5-0.2-2.3-0.2v1.8c0.4,0,0.7,0.1,1,0.1c0.1,0.9,0.1,1.9,0.1,2.9c0,0.9,0,1.9-0.1,2.9c-1.6,0.1-3.3,0.1-4.9,0.1h-1.5
	L293.2,502.4L293.2,502.4z M300.7,480.2c-1.2-0.1-2.4-0.1-3.7-0.1s-2.4,0.1-3.7,0.1c-0.2,1.8-0.3,3.7-0.3,5.5s0.1,3.7,0.3,5.5
	c1.2,0.1,2.4,0.1,3.7,0.1s2.4-0.1,3.7-0.1c0.2-1.8,0.3-3.7,0.3-5.5C301,483.8,300.9,482,300.7,480.2z M297.1,489.4
	c-0.9,0-1.6,0-2.5-0.1c-0.1-1.2-0.1-2.4-0.1-3.6s0-2.4,0.1-3.6c0.9-0.1,1.6-0.1,2.5-0.1s1.6,0.1,2.5,0.1c0.1,1.2,0.1,2.4,0.1,3.6
	s0,2.4-0.1,3.6C298.7,489.4,297.9,489.4,297.1,489.4z M300.9,478v-1.8h-2.6c0-1.3,0-2.3,0-3.1c0-1.6-0.1-3.2-0.2-4.8
	c-0.8-0.2-1.6-0.2-2.4-0.2s-1.6,0.1-2.4,0.2c-0.2,1.6-0.2,3.2-0.2,4.8c0,1.1,0,2.5,0.1,4.3v0.6H300.9z M297.1,473
	c0,1.1,0,2.1-0.1,3.1h-2.6c0-1-0.1-2-0.1-3.1c0-0.9,0-2.2,0.1-3.1c0.4-0.1,0.8-0.1,1.3-0.1c0.4,0,0.8,0,1.3,0.1
	C297.1,471,297.1,471.9,297.1,473z M300.9,464.4c-2,0-4.3,0-6.3-0.1c-0.1-1.1-0.1-2.2-0.1-3.3h6.5v-1.8h-6.5c0-1.1,0.1-2.2,0.1-3.3
	c2-0.1,4.3-0.1,6.3-0.1V454c-2.4,0-5.1,0-7.5,0.2c-0.2,2-0.3,4-0.3,6s0.1,4,0.3,6c2.4,0.1,5.1,0.2,7.5,0.2V464.4z M296.6,444v5.9
	h-2.1c-0.1-1.3-0.1-2.7-0.1-4c0-1.4,0-3,0.2-4.3h-1.3c-0.1,1.6-0.2,3-0.2,4.6c0,1.8,0.1,3.8,0.2,5.6h7.6c0.1-1.8,0.2-3.6,0.2-5.4
	c0-1.6-0.1-3.2-0.2-4.8h-1.3c0.1,1.3,0.2,2.8,0.2,4.2c0,1.4,0,2.8-0.1,4.2h-2.1v-6H296.6z M293.2,429v1.8h5.4l-5.3,4.8
	c-0.1,1.5-0.1,2.8-0.1,4v0.3h7.7v-1.8h-6.3c0-0.5,0-0.9,0-1.4l6.3-5.9l0,0V429H293.2z M293.3,416.8c-0.1,1.8-0.2,3.6-0.2,5.4
	s0,3.6,0.2,5.4h1.3c-0.1-2.3-0.1-3.5-0.1-4.5h6.5v-1.8h-6.5c0-1,0-2.2,0.1-4.5H293.3z M259.3,532.7v-12.3l-9.4,5.6v1.2L259.3,532.7z
	 M226,422.1c-3.4,3.4-5.3,8.2-5.3,13.5v59c0,3.8,1.1,7,3.3,9.2c2.1,2.1,4.9,3.3,8.2,3.3s6.3-1.2,8.4-3.4c2.1-2.2,3.3-5.4,3.3-9
	v-16.3c0-3.2,1.6-3.6,3-3.6c2.5,0,3.1,2,3.1,3.6V506l-27,16.3c-0.7,0.4-2.8,1.7-2.8,4.3c0,1.8,0.9,3.3,2.8,4.4l36.3,21.8V542
	l-25.7-15.2l25.7-15.3v-5v-6.1v-22c0-7.8-4.6-12.6-11.9-12.6c-7.6,0-11.8,4.5-11.8,12.6v16.2c0,1.3-0.5,2.9-2.7,2.9
	c-1.9,0-2.8-1-2.8-2.9v-59c0-5.6,4.1-9.5,9.9-9.5c5.8,0,10.1,4,10.1,9.5V451h-14.2v9.2h23.5v-24.6c0-10.7-8.4-18.8-19.6-18.8
	C234.3,416.8,229.5,418.7,226,422.1z M135.5,359.8l7.6,0.9c1,7.4,1.6,14.9,1.2,22.3c-0.1,2.1-0.5,8.1-1.1,9.7
	c-0.4,1.1-3.9,1.2-5,1.3c-3.3,0.2-14,0.4-16.6-0.6c-0.5-0.2-0.6-0.2-0.7-0.7c-0.6-1.8-1-8-1.1-10.2c-0.3-7.4,0.2-15,1-22.3l7.8-0.5
	v7.6l-2.9,0.7c0.5,3-0.5,6.3-0.5,9c0,2.5,1,5.8,0.5,8.6c1.6,0.7,12.5,0.8,12.7-0.3c-0.6-2.9,0.5-6.1,0.5-8.8c0-2.6-1.1-5.8-0.5-8.6
	l-2.9-0.7V359.8z M143.8,314.8v-7.3h-18.6V290c1.4-1.2,5.4-1.2,6.9,0v14c0.9,0.2,0.9-0.3,1.4-0.8c1.3-1.4,10.4-11.8,10.4-12.6V281
	l-6.6,7.3l-0.3-6.3c-5.3-0.8-10.8-0.8-16.1,0l-0.5,32.8H143.8z M143.8,487.1l0-31.8l-5.4,0l0.5,24l-4.9,0v-16.6h-3.9v16.6l-4.9,0
	l0.5-24l-5.4,0l0,31.8H143.8z M120.3,526.3h23.5v-7.8H135v-9.1c0-0.8,8.8-9.6,8.8-10.3v-9.1l-12,12.7l-11.5-12.2v9.1
	c0,0.7,8.8,9,8.8,9.8v9.1h-8.8V526.3z M120.3,452.8l15.4-10.3l0.8-4.9h7.3v-8.8h-7.3l-1-5.1l-15.2-10.6v8.8c1.7,1,9.4,5.6,10,6.9
	c0.4,0.9,0.4,5.9,0.3,7.1c0,0.4,0,0.9-0.1,1.3l-10.2,7.2V452.8z M143.8,326l-4.3,2.3l0,18.7l4.3,2.3v7.6l-23.4-10.4
	c-1.3-1.4-0.4-14.7-0.4-17.5l23.8-10.8V326z M134,330.4l-8.2,3.5c-0.4,1.8-0.9,5.6,0.4,7c0.3,0.4,7.5,3.5,7.8,3.2V330.4z
	 M143.8,276.1h-23.5c-0.3-10.9-1.2-21.7,0.6-32.5c6.5-3.7,15.9-3.7,22.4,0C144.8,254.4,144.5,265.2,143.8,276.1z M138.4,250.7
	c-4.1-1.4-8.5-1.4-12.6,0c-0.9,6-0.7,12.1-0.1,18.1h12.7C139.1,262.7,139.2,256.7,138.4,250.7z"/>
</svg>
