<?xml version="1.0" encoding="utf-8"?>
<!-- Generator: Adobe Illustrator 28.7.5, SVG Export Plug-In . SVG Version: 9.03 Build 55973)  -->
<svg version="1.1" baseProfile="tiny" id="Layer_1" xmlns="http://www.w3.org/2000/svg" xmlns:xlink="http://www.w3.org/1999/xlink"
	 x="0px" y="0px" viewBox="0 0 1080 1920" overflow="visible" xml:space="preserve">
<rect id="opacity:20" x="59.8" y="237.9" fill="#EF4850" width="960.2" height="1581.7"/>
<path fill="#EF4850" d="M0,621.9V507l40,40v114.8L0,621.9z M119.3,40h114.8l-40-40H79.3L119.3,40z M40,194.4V79.6l-40-40v114.8
	L40,194.4z M40,428.1V313.3l-40-40v114.8L40,428.1z M40,895.6V780.8l-40-40v114.8L40,895.6z M40,1129.3v-114.8l-40-40v114.8
	L40,1129.3z M40,1363v-114.8l-40-40V1323L40,1363z M353,40h114.8l-40-40H313L353,40z M1080,65.8V0h-65.8L1080,65.8z M0,1909.4v10.6
	h10.6L0,1909.4z M895.3,0H780.5l40,40h114.8L895.3,0z M586.8,40h114.8l-40-40H546.8L586.8,40z M1040,1780.7v99.3h-15.6l40,40h15.6
	v-99.3L1040,1780.7z M1040,1313.3v114.8l40,40v-114.8L1040,1313.3z M1040,1079.6v114.8l40,40v-114.8L1040,1079.6z M1040,612.1v114.8
	l40,40V652.1L1040,612.1z M40,1596.7v-114.8l-40-40v114.8L40,1596.7z M1040,378.4v114.8l40,40V418.4L1040,378.4z M1040,144.7v114.8
	l40,40V184.7L1040,144.7z M1040,845.8v114.8l40,40V885.8L1040,845.8z M438.1,1880H323.3l40,40h114.8L438.1,1880z M204.4,1880H89.5
	l40,40h114.8L204.4,1880z M40,1830.5v-114.8l-40-40v114.8L40,1830.5z M905.5,1880H790.7l40,40h114.8L905.5,1880z M1040,1547v114.8
	l40,40V1587L1040,1547z M671.8,1880H557l40,40h114.8L671.8,1880z"/>
</svg>
