<?xml version="1.0" encoding="UTF-8"?>
<svg xmlns="http://www.w3.org/2000/svg" baseProfile="tiny" version="1.2" viewBox="0 0 1920 1080">
  <!-- Generator: Adobe Illustrator 28.7.5, SVG Export Plug-In . SVG Version: 1.2.0 Build 176)  -->
  <g>
    <g id="Layer_1">
      <path id="colorstyle:Moderate" d="M22.2,202.6L.2,180.6v-115.7l22,22v115.7ZM185.2,22.4L163.2.4H47.5l22,22h115.7ZM412.7,22.4L390.7.4h-115.7l22,22h115.7ZM22.2,314.3L.2,292.3v115.7l22,22v-115.7ZM640.2,22.4L618.2.4h-115.7l22,22h115.7ZM22.2,541.7L.2,519.7v115.7l22,22v-115.7ZM1850,22.4l22-22h-115.7l-22,22h115.7ZM1622.5,22.4l22-22h-115.7l-22,22h115.7ZM1395,22.4l22-22h-115.7l-22,22h115.7ZM22.2,769.2L.2,747.2v115.7l22,22v-115.7ZM962,.4h-4.5l2.2,2.2,2.2-2.2ZM867.7,22.4L845.7.4h-115.8l22,22h115.8ZM1167.5,22.4l22-22h-115.7l-22,22h115.7ZM423.3,1058.4l22,22h115.7l-22-22h-115.7ZM1898.2,883.9l22-22v-115.7l-22,22v115.7ZM1898.2,656.5l22-22v-115.7l-22,22v115.7ZM1898.2,1058.4h-62.7l-22,22h106.7v-106.7l-22,22v62.7ZM1898.2,429.1l22-22v-115.7l-22,22v115.7ZM1898.2,201.6l22-22V63.9l-22,22v115.7ZM1608,1058.4l-22,22h115.7l22-22h-115.7ZM650.8,1058.4l22,22h115.7l-22-22h-115.7ZM22.2,1058.4v-61.8L.2,974.6v105.8h105.8l-22-22H22.2ZM195.8,1058.4l22,22h115.7l-22-22h-115.7ZM1380.5,1058.4l-22,22h115.7l22-22h-115.7ZM878.3,1058.4l22,22h118.9l22-22h-162.9ZM1153,1058.4l-22,22h115.7l22-22h-115.7Z" fill="#ff9200"/>
    </g>
  </g>
</svg>