<?xml version="1.0" encoding="utf-8"?>
<!-- Generator: Adobe Illustrator 28.4.1, SVG Export Plug-In . SVG Version: 6.00 Build 0)  -->
<svg version="1.1" baseProfile="tiny" id="Layer_1" xmlns="http://www.w3.org/2000/svg" xmlns:xlink="http://www.w3.org/1999/xlink"
	 x="0px" y="0px" viewBox="0 0 112 112" overflow="visible" xml:space="preserve">
<path id="opacity:97_colorstyle:Background" fill="#06111B" d="M109.8,111.2H2.2c-0.8,0-1.4-0.6-1.4-1.4v-19c0-0.4,0.2-0.8,0.4-1.1
	l1.3-1.4C2.8,88,3,87.6,3,87.2v-42c0-0.4-0.1-0.8-0.4-1.1l-1.4-1.5c-0.3-0.3-0.4-0.7-0.4-1.1V2.2c0-0.8,0.6-1.4,1.4-1.4h72.2
	c0.7,0,1.4,0.3,1.9,0.8l2.8,2.8c0.5,0.5,1.2,0.8,1.9,0.8h28.8c0.8,0,1.4,0.6,1.4,1.4v58c0,0.3-0.1,0.6-0.3,0.8l-0.9,1
	c-0.2,0.2-0.3,0.5-0.3,0.8v21c0,0.3,0.1,0.6,0.3,0.8l0.8,0.9c0.2,0.2,0.3,0.5,0.3,0.8v19.1C111.2,110.6,110.6,111.2,109.8,111.2z"/>
</svg>
