<?xml version="1.0" encoding="utf-8"?>
<!-- Generator: Adobe Illustrator 28.2.0, SVG Export Plug-In . SVG Version: 6.00 Build 0)  -->
<svg version="1.1" baseProfile="tiny" id="Layer_1" xmlns="http://www.w3.org/2000/svg" xmlns:xlink="http://www.w3.org/1999/xlink"
	 x="0px" y="0px" viewBox="0 0 72.3 8" overflow="visible" xml:space="preserve">
<path id="opacity:100_colorstyle:Base_00000139274628813007658970000008233030333939962240_" fill="#6DA3BE" d="M2.2,4
	c0-0.6-0.5-1.1-1.1-1.1S0,3.4,0,4s0.5,1.1,1.1,1.1S2.2,4.6,2.2,4z"/>
<path id="opacity:100_colorstyle:Base_00000018931060875631666300000018309590666012568511_" fill="#6DA3BE" d="M7.1,4
	c0-0.6-0.5-1.1-1.1-1.1S4.8,3.4,4.8,4S5.3,5.1,6,5.1S7.1,4.6,7.1,4z"/>
<path id="opacity:100_colorstyle:Base_00000177458244854923482610000015863216655149321873_" fill="#6DA3BE" d="M11.9,4
	c0-0.6-0.5-1.1-1.1-1.1c-0.6,0-1.1,0.5-1.1,1.1s0.5,1.1,1.1,1.1C11.4,5.1,11.9,4.6,11.9,4z"/>
<path id="opacity:100_colorstyle:Base_00000036945335670583500160000001892053368315938220_" fill="#6DA3BE" d="M62.7,4
	c0-0.6-0.5-1.1-1.1-1.1c-0.6,0-1.1,0.5-1.1,1.1s0.5,1.1,1.1,1.1C62.2,5.1,62.7,4.6,62.7,4z"/>
<path id="opacity:100_colorstyle:Base_00000117677535573926835570000004548433168516093073_" fill="#6DA3BE" d="M67.5,4
	c0-0.6-0.5-1.1-1.1-1.1c-0.6,0-1.1,0.5-1.1,1.1s0.5,1.1,1.1,1.1C67,5.1,67.5,4.6,67.5,4z"/>
<path id="opacity:100_colorstyle:Base_00000156545332741798641580000003927986374363710350_" fill="#6DA3BE" d="M72.3,4
	c0-0.6-0.5-1.1-1.1-1.1c-0.6,0-1.1,0.5-1.1,1.1s0.5,1.1,1.1,1.1C71.8,5.1,72.3,4.6,72.3,4z"/>
<line fill="none" stroke="#6DA3BE" stroke-miterlimit="10" x1="15.8" y1="4" x2="56.5" y2="4"/>
</svg>
