<?xml version="1.0" encoding="utf-8"?>
<!-- Generator: Adobe Illustrator 28.2.0, SVG Export Plug-In . SVG Version: 6.00 Build 0)  -->
<svg version="1.1" baseProfile="tiny" id="Layer_1" xmlns="http://www.w3.org/2000/svg" xmlns:xlink="http://www.w3.org/1999/xlink"
	 x="0px" y="0px" viewBox="0 0 8 72.5" overflow="visible" xml:space="preserve">
<path id="opacity:100_colorstyle:Base" fill="#6DA3BE" d="M5.1,5.1c0,0.6-0.5,1.1-1.1,1.1S2.9,5.7,2.9,5.1S3.4,3.9,4,3.9
	S5.1,4.4,5.1,5.1z M4,14.3c-0.6,0-1.1,0.5-1.1,1.1s0.5,1.1,1.1,1.1s1.1-0.5,1.1-1.1S4.6,14.3,4,14.3z M4,24.7
	c-0.6,0-1.1,0.5-1.1,1.1C2.9,26.5,3.4,27,4,27s1.1-0.5,1.1-1.1C5.1,25.2,4.6,24.7,4,24.7z M4,35.1c-0.6,0-1.1,0.5-1.1,1.1
	s0.5,1.1,1.1,1.1s1.1-0.5,1.1-1.1S4.6,35.1,4,35.1z M4,45.5c-0.6,0-1.1,0.5-1.1,1.1s0.5,1.1,1.1,1.1s1.1-0.5,1.1-1.1
	S4.6,45.5,4,45.5z M4,55.9c-0.6,0-1.1,0.5-1.1,1.1s0.5,1.1,1.1,1.1s1.1-0.5,1.1-1.1S4.6,55.9,4,55.9z M4,66.4
	c-0.6,0-1.1,0.5-1.1,1.1s0.5,1.1,1.1,1.1s1.1-0.5,1.1-1.1S4.6,66.4,4,66.4z"/>
</svg>
