<?xml version="1.0" encoding="utf-8"?>
<!-- Generator: Adobe Illustrator 28.2.0, SVG Export Plug-In . SVG Version: 6.00 Build 0)  -->
<svg version="1.1" baseProfile="tiny" id="Layer_1" xmlns="http://www.w3.org/2000/svg" xmlns:xlink="http://www.w3.org/1999/xlink"
	 x="0px" y="0px" viewBox="0 0 112 112" overflow="visible" xml:space="preserve">
<path id="opacity:60_colorstyle:Base" fill="#383838" d="M102.4,63.8V48.2l3-3l0,0l0,0V17.9v-1h-1h-9.7V7.3v-1h-1h-17l-3,3H38.2
	l-3-3H15.3h-1v1V14H7.6h-1v1v30.3l0,0l0,0l3,3v15.5l-3,3l0,0l0,0v5c0,18.8,15.2,34,34,34h4.6l3-3h15.5l3,3h29.9h1v-1v-6.7h6.7h1v-1
	V66.8l0,0l0,0L102.4,63.8z M96.7,97.1v7.7H67.2l-3-3H47.8l-3,3h-3.9c-18.4,0-33.3-14.9-33.3-33.3v-4.3l3-3V47.8l-3-3V14.9h7.7V7.3
	h19.6l3,3h36.4l3-3h16.6V18h10.7v26.9l-3,3v16.3l3,3v29.9H96.7z"/>
<path id="colorstyle:Selected" fill="#848484" d="M7.3,11.3L11.6,7c0.2-0.2,0.5-0.1,0.5,0.2v4.3c0,0.2-0.1,0.3-0.3,0.3H7.6
	C7.3,11.9,7.1,11.5,7.3,11.3z M97.1,14.9h4.3c0.3,0,0.4-0.3,0.2-0.5L97.4,10c-0.2-0.2-0.5-0.1-0.5,0.2v4.3
	C96.8,14.7,97,14.9,97.1,14.9z M104.4,100.1h-4.3c-0.2,0-0.3,0.1-0.3,0.3v4.3c0,0.3,0.3,0.4,0.5,0.2l4.3-4.3
	C104.9,100.5,104.7,100.1,104.4,100.1z"/>
<path id="opacity:40_colorstyle:Accent1" fill="#BABABA" d="M8.3,8.1H6.6V6.4h1.7V8.1z M102.3,9.4h-1.7v1.7h1.7V9.4z M103.6,105.6
	h1.7V104h-1.7V105.6z M103.6,49v7v7l2,2v-9v-8.9L103.6,49z M8.4,56v-7l-2-2v9v8.9l2-2V56z M73,8.2l2-2H37.1l2,2H73z M56,103.8h-7
	l-2,2h9h8.9l-2-2H56z M14.9,72.6c0,14,11.4,25.4,25.4,25.4h1.3V79.4c-3.4-3.4-5.3-5.3-8.7-8.7h-18C14.9,70.7,14.9,72.6,14.9,72.6z"
	/>
</svg>
