<?xml version="1.0" encoding="utf-8"?>
<!-- Generator: Adobe Illustrator 25.2.3, SVG Export Plug-In . SVG Version: 6.00 Build 0)  -->
<svg version="1.1" baseProfile="tiny" id="Layer_1" xmlns="http://www.w3.org/2000/svg" xmlns:xlink="http://www.w3.org/1999/xlink"
	 x="0px" y="0px" viewBox="0 0 128 128" overflow="visible" xml:space="preserve">
<path fill="#C0E7FB" d="M59,87.2l-0.4,2.5c-0.1,0.3-0.1,0.6-0.1,0.9v2.2V95l-2.6-3.6L59,87.2z M51.8,91.3L50,88.9
	c0.1,0.7,0,1.2-0.1,1.9l-0.5,1.9l-0.5,2.7L51.8,91.3z M53.9,93.9l-5.4,7.1l-0.1,6.4c0,0.4,0,0.7,0.1,1.1l1.1,6.3c0,0.1,0,0.2,0,0.3
	l-1.1,6.8c0,0.4-0.2,0.8-0.5,1.2l-5.8,2.8l0.7,2.1H53c0.4,0,0.9-0.2,1.2-0.5l1.1-1.1l-0.7-3.5c0-0.1,0-0.2,0-0.4l1.1-10.3
	c0-0.4,0.1-0.8,0.1-1.2l2.6-11.2L53.9,93.9z M49.4,82.8l4.5,5.9l6-7.8l1.9-13.7c0-0.3,0-0.5-0.2-0.7l-2.5-2.6l-6.9-4.2
	c-0.2,0-0.4-0.1-0.6-0.1c-0.4,0-0.8,0.3-0.9,0.8L49,78.5c0,0.4-0.1,0.8,0,1.2L49.4,82.8z"/>
</svg>
