<?xml version="1.0" encoding="utf-8"?>
<!-- Generator: Adobe Illustrator 24.0.0, SVG Export Plug-In . SVG Version: 6.00 Build 0)  -->
<svg version="1.1" id="Layer_1" xmlns="http://www.w3.org/2000/svg" xmlns:xlink="http://www.w3.org/1999/xlink" x="0px" y="0px"
	 viewBox="0 0 128 128" style="enable-background:new 0 0 128 128;" xml:space="preserve">
<style type="text/css">
	.st0{fill:#BEE7FA;}
</style>
<path class="st0" d="M66,8.8l3.9-5.3l0.3,4.1l0.7,0.7l-0.3,3l-0.7,2l-0.5,0.1L66,8.8z M58,3.4C58,3.4,58,3.4,58,3.4l-0.3,4.3
	l-0.6,0.7l0.3,3l0.7,2l0.5,0.1L62,8.8L58,3.4z M64,6.2l3.8-5l-0.8-0.6C66.5,0.2,65.9,0,65.2,0h-2.5c-0.7,0-1.3,0.2-1.8,0.6l-0.7,0.5
	L64,6.2z M64,11.5l-3.7,4.9l1.1,1.2c0.2,0.3,0.6,0.4,0.9,0.4h3.4c0.3,0,0.7-0.1,0.9-0.4l1.2-1.3L64,11.5z"/>
</svg>
