<?xml version="1.0" encoding="utf-8"?>
<!-- Generator: Adobe Illustrator 25.2.3, SVG Export Plug-In . SVG Version: 6.00 Build 0)  -->
<svg version="1.1" baseProfile="tiny" id="Layer_1" xmlns="http://www.w3.org/2000/svg" xmlns:xlink="http://www.w3.org/1999/xlink"
	 x="0px" y="0px" viewBox="0 0 128 128" overflow="visible" xml:space="preserve">
<path fill="#BEE7FA" d="M47.8,24.9c-0.1,0-0.3,0-0.4,0.1l-1.7,1c-0.2,0.1-0.4,0.3-0.4,0.5l-4.5,16.3c-0.1,0.2-0.1,0.4-0.3,0.6
	L39,45.8c-0.2,0.3-0.3,0.6-0.3,0.9l-1.8,13.4c0,0.3-0.2,0.6-0.4,0.9l-1.8,1.8c-0.2,0.2-0.4,0.5-0.4,0.9L33.5,67l0.4,1l-0.3,3.5
	l1.4,0.9l2.8-1.4c0.4-0.2,0.7-0.6,0.8-1l1.4-5.4c0-0.1,0-0.1,0-0.2l0.6-4.3c0-0.1,0.1-0.3,0.1-0.4l5.6-13c0.1-0.2,0.2-0.5,0.2-0.7
	l0.1-1.8c0-0.1,0-0.2,0.1-0.3l1.9-8.4l0.1-9.8C48.7,25.3,48.3,24.9,47.8,24.9L47.8,24.9z"/>
</svg>
