<?xml version="1.0" encoding="utf-8"?>
<!-- Generator: Adobe Illustrator 25.2.3, SVG Export Plug-In . SVG Version: 6.00 Build 0)  -->
<svg version="1.1" baseProfile="tiny" id="Layer_1" xmlns="http://www.w3.org/2000/svg" xmlns:xlink="http://www.w3.org/1999/xlink"
	 x="0px" y="0px" viewBox="0 0 128 128" overflow="visible" xml:space="preserve">
<path fill="none" stroke="#BEE7FA" stroke-miterlimit="10" d="M78.1,78.5c0,0.1,0,0.3,0,0.4c0,0.2,0,0.4,0,0.5v0.1v0.1l-0.9,9.1
	c-0.1,0.7,0,1.4,0.1,2.1v0.1V91v0.1l1.2,4.7c0.1,0.5,0.2,0.9,0.2,1.1l0.1,10.7c0,0.3,0,0.5-0.1,0.8l0,0l0,0l-1.1,6.3v0.1v0.1v0.3
	v0.1v0.1l1.1,6.7c0,0.5,0.3,1.1,0.7,1.7v0.1l0.1,0.1l5.4,2.4l-0.3,0.8h-9.4c-0.1,0-0.4-0.1-0.5-0.2l-0.7-0.7l0.6-3v-0.1v-0.1v-0.4
	v-0.1v-0.1l-1.1-10.3c0-0.3-0.1-0.5-0.1-0.7s0-0.4,0-0.5v-0.1v-0.1l-2.6-11.3c-0.1-0.3-0.1-0.6-0.1-1l-0.1-8.1c0-0.3,0-0.7-0.1-1.1
	l-3.2-22.4l0,0l2.3-2.4l6.6-4c0.1,0,0.1,0,0.2,0L78.1,78.5z"/>
</svg>
