<?xml version="1.0" encoding="utf-8"?>
<!-- Generator: Adobe Illustrator 25.2.3, SVG Export Plug-In . SVG Version: 6.00 Build 0)  -->
<svg version="1.1" baseProfile="tiny" id="Layer_1" xmlns="http://www.w3.org/2000/svg" xmlns:xlink="http://www.w3.org/1999/xlink"
	 x="0px" y="0px" viewBox="0 0 128 128" overflow="visible" xml:space="preserve">
<path fill="none" stroke="#BEE7FA" stroke-miterlimit="10" d="M80.3,26.2c0,0,0.1,0,0.2,0l1.6,0.8l0,0l4.5,16.2v0.1v0.1l0.3,0.6l0,0
	l0,0l1.4,2.3c0,0.1,0.1,0.2,0.1,0.3s0.1,0.2,0.1,0.2V47v0.1l1.8,13.3c0,0.6,0.3,1.1,0.7,1.5l1.7,1.7c0.1,0.1,0.2,0.2,0.2,0.3l0,0V64
	l0.5,3.1l-0.3,0.7L93,68v0.2l0.2,2.9l-0.4,0.3l-2.3-1.1c-0.1-0.1-0.2-0.2-0.3-0.4L89,64.8v-0.1v-0.1v-0.1l-0.6-4.2
	c0-0.2,0-0.5-0.2-0.8l-5.6-12.9l0,0l0,0c-0.1-0.2-0.1-0.2-0.1-0.3l0,0l0,0l-0.1-1.8v-0.4L82.3,44l-1.9-8.3L80.3,26.2z"/>
</svg>
