<?xml version="1.0" encoding="utf-8"?>
<!-- Generator: Adobe Illustrator 23.1.0, SVG Export Plug-In . SVG Version: 6.00 Build 0)  -->
<svg version="1.1" baseProfile="tiny" id="Layer_1" xmlns="http://www.w3.org/2000/svg" xmlns:xlink="http://www.w3.org/1999/xlink"
	 x="0px" y="0px" viewBox="0 0 128 128" xml:space="preserve">
<g>
	<path fill="#BEE7FA" d="M70.9,8.4l-0.3,3l-0.7,2l-0.7,0.2l-0.7,1.9l-1.9,2.1C66.4,17.9,66,18,65.7,18h-3.4c-0.3,0-0.7-0.1-0.9-0.4
		l-1.9-2.1l-0.7-1.9l-0.7-0.2l-0.7-2l-0.3-3l0.6-0.7L58,3.4c0-0.4,0.3-0.9,0.6-1.1l2.3-1.7C61.4,0.2,62,0,62.7,0h2.5
		c0.7,0,1.3,0.2,1.9,0.6l2.2,1.7c0.4,0.3,0.6,0.7,0.6,1.1l0.3,4.3L70.9,8.4z"/>
</g>
</svg>
