<?xml version="1.0" encoding="utf-8"?>
<!-- Generator: Adobe Illustrator 25.2.3, SVG Export Plug-In . SVG Version: 6.00 Build 0)  -->
<svg version="1.1" baseProfile="tiny" id="Layer_1" xmlns="http://www.w3.org/2000/svg" xmlns:xlink="http://www.w3.org/1999/xlink"
	 x="0px" y="0px" viewBox="0 0 128 128" overflow="visible" xml:space="preserve">
<path fill="#BFE7FA" d="M90.1,50.5l-0.4-2.6l-1.1-2.4L87.5,47L90.1,50.5z M81.2,44l0.9,3.9l0.3,0.5l1.1-1.5L81.2,44z M79.6,36.5
	l6,7.7l1.9-2.4L83,26.7c-0.1-0.2-0.2-0.4-0.4-0.5l-1.8-0.9c-0.5-0.1-0.6-0.1-0.7-0.1c-0.4,0-0.8,0.4-0.8,0.8l0.1,9.8L79.6,36.5z
	 M94.5,67.3L94,63.9c0-0.3-0.2-0.6-0.4-0.9l-1.8-1.8c-0.2-0.2-0.4-0.5-0.4-0.9l-0.5-3.6l-5.4-7.1l-1.7,2.3l3.5,8.2
	c0.1,0.1,0.1,0.3,0.1,0.4l0.6,4.3c0,0.1,0,0.1,0,0.2l1.4,5.4c0.1,0.4,0.4,0.8,0.8,1l2.8,1.4l1.4-0.9l-0.3-3.5L94.5,67.3z"/>
</svg>
