<?xml version="1.0" encoding="utf-8"?>
<!-- Generator: Adobe Illustrator 25.2.3, SVG Export Plug-In . SVG Version: 6.00 Build 0)  -->
<svg version="1.1" baseProfile="tiny" id="Layer_1" xmlns="http://www.w3.org/2000/svg" xmlns:xlink="http://www.w3.org/1999/xlink"
	 x="0px" y="0px" viewBox="0 0 128 128" overflow="visible" xml:space="preserve">
<path fill="#BFE7FA" d="M40.5,46.6l-1.1-1.5l-1.1,2.4l-0.4,2.6L40.5,46.6z M44.5,46.5l1.1,1.5l0.3-0.5l0.9-3.9L44.5,46.5z
	 M48.6,35.4l0.1-9.8c0-0.4-0.4-0.8-0.8-0.8c-0.1,0-0.2,0-0.7,0.1l-1.8,0.9c-0.2,0.1-0.3,0.3-0.4,0.5l-4.5,15.1l1.9,2.4l6-7.7
	L48.6,35.4z M33.9,68l-0.3,3.5l1.4,0.9l2.8-1.4c0.4-0.2,0.7-0.6,0.8-1l1.4-5.4c0-0.1,0-0.1,0-0.2l0.6-4.3c0-0.1,0-0.3,0.1-0.4
	l3.5-8.2l-1.7-2.3l-5.4,7.1l-0.5,3.6c0,0.4-0.2,0.7-0.4,0.9l-1.8,1.8c-0.2,0.3-0.4,0.6-0.4,0.9l-0.5,3.4L33.9,68z"/>
</svg>
