<?xml version="1.0" encoding="utf-8"?>
<!-- Generator: Adobe Illustrator 25.2.3, SVG Export Plug-In . SVG Version: 6.00 Build 0)  -->
<svg version="1.1" baseProfile="tiny" id="Layer_1" xmlns="http://www.w3.org/2000/svg" xmlns:xlink="http://www.w3.org/1999/xlink"
	 x="0px" y="0px" viewBox="0 0 128 128" overflow="visible" xml:space="preserve">
<path fill="#C0E7FB" d="M76.1,91.3l3,4.2l-0.6-2.8L78,90.9c-0.2-0.7-0.2-1.3-0.1-2L76.1,91.3z M69.1,87.3l0.3,2.3
	c0,0.3,0.1,0.6,0.1,0.9v2.2l0.1,2l2.4-3.4L69.1,87.3z M68.2,80.9l5.9,7.7l4.4-5.7l0.3-3.2c0-0.4,0-0.8,0-1.2l-1.7-18.2
	c0.1-0.5-0.3-0.9-0.8-0.9c-0.2,0-0.3,0-0.5,0.2l-6.9,4.2l-2.5,2.5c-0.2,0.2-0.3,0.4-0.2,0.7L68.2,80.9z M80.1,123.2
	c-0.3-0.3-0.5-0.7-0.5-1.2l-1.1-6.8c0-0.1,0-0.2,0-0.3l1.1-6.3c0.1-0.4,0.1-0.7,0.1-1.1l-0.1-6.4l-5.5-7.2l-4.4,5.8l0,0l2.6,11.3
	c0.1,0.4,0.1,0.8,0.1,1.2l1.1,10.3c0,0.1,0,0.2,0,0.4l-0.7,3.5l1.1,1.1c0.3,0.3,0.7,0.5,1.2,0.5h10.1l0.7-2.1L80.1,123.2z"/>
</svg>
