<?xml version="1.0" encoding="utf-8"?>
<!-- Generator: Adobe Illustrator 25.2.3, SVG Export Plug-In . SVG Version: 6.00 Build 0)  -->
<svg version="1.1" baseProfile="tiny" id="Layer_1" xmlns="http://www.w3.org/2000/svg" xmlns:xlink="http://www.w3.org/1999/xlink"
	 x="0px" y="0px" viewBox="0 0 128 128" overflow="visible" xml:space="preserve">
<path fill="#BEE7FA" d="M51.7,59.5c-0.4,0-0.8,0.3-0.9,0.8l-1.7,18.2c0,0.4-0.1,0.8,0,1.2l0.9,9.1c0.1,0.7,0,1.3-0.1,2l-1.2,4.7
	c-0.1,0.4-0.2,0.9-0.2,1.3l-0.1,10.7c0,0.4,0,0.7,0.1,1.1l1.1,6.3c0,0.1,0,0.2,0,0.3l-1.1,6.8c0,0.4-0.2,0.8-0.5,1.2l-5.8,2.8
	l0.7,2.1H53c0.4,0,0.9-0.2,1.2-0.5l1.1-1.1l-0.7-3.5c0-0.1,0-0.2,0-0.4l1.1-10.3c0-0.4,0.1-0.8,0.1-1.2l2.6-11.3
	c0.1-0.4,0.1-0.8,0.1-1.2l0.1-8.1c0-0.3,0-0.6,0.1-0.9l3.2-22.5c0-0.3,0-0.5-0.2-0.7l-2.5-2.6l-6.9-4.2
	C52.1,59.6,51.9,59.5,51.7,59.5L51.7,59.5z"/>
</svg>
