<?xml version="1.0" encoding="utf-8"?>
<!-- Generator: Adobe Illustrator 25.2.3, SVG Export Plug-In . SVG Version: 6.00 Build 0)  -->
<svg version="1.1" baseProfile="tiny" id="Layer_1" xmlns="http://www.w3.org/2000/svg" xmlns:xlink="http://www.w3.org/1999/xlink"
	 x="0px" y="0px" viewBox="0 0 128 128" overflow="visible" xml:space="preserve">
<g>
	<path fill="none" stroke="#BEE7FA" stroke-miterlimit="10" d="M65.2,1c0.5,0,0.9,0.1,1.3,0.4l2.2,1.7c0.1,0.1,0.2,0.2,0.2,0.3l0,0
		l0,0l0.3,4.3v0.4l0.3,0.3l0.4,0.4l-0.2,2.4l-0.5,1.4L69,12.7l-0.5,0.1l-0.2,0.5L67.6,15l-1.8,2v0.1l0,0h-0.1h-3.4h-0.1l0,0V17
		l-1.8-2l-0.6-1.7l-0.2-0.5l-0.5-0.1l-0.2-0.1l-0.5-1.4l-0.2-2.5l0.3-0.4L58.7,8V7.7L59,3.5l0,0l0,0c0-0.1,0.1-0.2,0.2-0.3l2.3-1.7
		C61.8,1.1,62.2,1,62.7,1H65.2"/>
</g>
</svg>
