<?xml version="1.0" encoding="utf-8"?>
<!-- Generator: Adobe Illustrator 25.2.3, SVG Export Plug-In . SVG Version: 6.00 Build 0)  -->
<svg version="1.1" baseProfile="tiny" id="Layer_1" xmlns="http://www.w3.org/2000/svg" xmlns:xlink="http://www.w3.org/1999/xlink"
	 x="0px" y="0px" viewBox="0 0 128 128" overflow="visible" xml:space="preserve">
<path fill="none" stroke="#BEE7FA" stroke-miterlimit="10" d="M47.7,26l-0.1,9.4l-1.8,8.1c-0.2,0.3-0.2,0.5-0.2,0.7L45.5,46
	c0,0,0,0.2-0.1,0.3l0,0l0,0l-5.6,13l-0.1,0.2v0.1c0,0.1-0.1,0.2-0.1,0.4L39,64.3v0.1v0.1v0.1l-1.4,5.3c0,0.1-0.1,0.3-0.3,0.3
	L35,71.3L34.6,71l0.2-2.9v-0.2l-0.1-0.2L34.4,67l0.7-3v-0.1v-0.1c0,0,0-0.1,0.1-0.2l1.8-1.8l0.1-0.1l0.1-0.1
	c0.2-0.4,0.5-0.8,0.6-1.4l1.8-13.3v-0.1v-0.1c0-0.1,0-0.2,0.1-0.4l1.5-2.3c0.2-0.3,0.3-0.5,0.4-0.7c0,0,0,0,0-0.1v-0.1V43l4.5-16.2
	L47.7,26L47.7,26z"/>
</svg>
