<?xml version="1.0" encoding="utf-8"?>
<!-- Generator: Adobe Illustrator 24.0.0, SVG Export Plug-In . SVG Version: 6.00 Build 0)  -->
<svg version="1.1" id="Layer_1" xmlns="http://www.w3.org/2000/svg" xmlns:xlink="http://www.w3.org/1999/xlink" x="0px" y="0px"
	 viewBox="0 0 128 128" style="enable-background:new 0 0 128 128;" xml:space="preserve">
<style type="text/css">
	.st0{fill:#BEE7FA;}
</style>
<path class="st0" d="M75.3,23.3l-6-2.3c-0.2-0.1-0.4-0.1-0.6-0.1h-8.8c-0.2,0-0.4,0-0.6,0.1l-6.6,2.4c-0.7,0.2-1.2,0.9-1.2,1.7v9.2
	l0.5,4.5l1,5.5c0,0.1,0,0.2,0,0.3l-0.5,9.8c0,0.5,0.3,1,0.7,1.4l9.2,5.9c0.2,0.1,0.4,0.2,0.6,0.3c0.1,0,0.3,0.1,0.4,0.1h1.1
	c0.1,0,0.3,0,0.4-0.1c0.2-0.1,0.4-0.2,0.6-0.3l9.2-5.9c0.4-0.3,0.7-0.8,0.7-1.4L75,44.6c0-0.1,0-0.2,0-0.3l1-5.5l0.6-4.5V25
	C76.5,24.3,76,23.6,75.3,23.3z M72.2,48.5L70,50.4l-6-7.9l-6,7.9l-2.4-1.8l6.3-8.7l-6.3-8.7l2.4-1.8l6,7.8l6-7.8l2.4,1.8L66,39.9
	L72.2,48.5z"/>
</svg>
