<?xml version="1.0" encoding="utf-8"?>
<!-- Generator: Adobe Illustrator 24.0.2, SVG Export Plug-In . SVG Version: 6.00 Build 0)  -->
<svg version="1.1" baseProfile="tiny" id="Layer_1" xmlns="http://www.w3.org/2000/svg" xmlns:xlink="http://www.w3.org/1999/xlink"
	 x="0px" y="0px" viewBox="0 0 128 128" xml:space="preserve">
<path fill="#BEE7FA" d="M48.9,43.6c-3.7,5.4-7.5,10.5-11,15.4c-0.8,0.1-1.5,0.2-2.3,0.2c-7.5,0-13.5-5.6-13.5-13.9
	c0-8.4,11-15.2,13.5-26.7C37.9,29.3,47.6,36,48.9,43.6z M67.9,17.2C61.1,48.5,31,67.3,31,90.1c0,22.8,16.5,38,36.9,38
	c20.4,0,36.9-15.2,36.9-38C104.8,67.3,74.7,48.5,67.9,17.2z M88.4,0c-1.6,7.5-8.9,12-8.9,17.5c0,5.5,4,9.1,8.9,9.1
	c4.9,0,8.9-3.7,8.9-9.1C97.3,12,90,7.5,88.4,0z"/>
</svg>
