<?xml version="1.0" encoding="utf-8"?>
<!-- Generator: Adobe Illustrator 25.4.1, SVG Export Plug-In . SVG Version: 6.00 Build 0)  -->
<svg version="1.1" baseProfile="tiny" id="animated"
	 xmlns="http://www.w3.org/2000/svg" xmlns:xlink="http://www.w3.org/1999/xlink" x="0px" y="0px" viewBox="0 0 128 128"
	 overflow="visible" xml:space="preserve">
<g>
	<circle fill="#FFFFFF" cx="0" cy="72.6" r="2"/>
</g>
<g>
	<circle fill="#FFFFFF" cx="2" cy="72.6" r="2"/>
</g>
<g>
	<circle fill="#FFFFFF" cx="4" cy="72.6" r="2"/>
</g>
<g>
	<circle fill="#FFFFFF" cx="6" cy="72.6" r="2"/>
</g>
<g>
	<circle fill="#FFFFFF" cx="7.9" cy="72.6" r="2"/>
</g>
<g>
	<circle fill="#FFFFFF" cx="9.9" cy="72.6" r="2"/>
</g>
<g>
	<circle fill="#FFFFFF" cx="11.9" cy="72.7" r="2"/>
</g>
<g>
	<circle fill="#FFFFFF" cx="13.9" cy="72.7" r="2"/>
</g>
<g>
	<circle fill="#FFFFFF" cx="15.9" cy="72.7" r="2"/>
</g>
<g>
	<circle fill="#FFFFFF" cx="17.9" cy="72.7" r="2"/>
</g>
<g>
	<circle fill="#FFFFFF" cx="19.9" cy="72.7" r="2"/>
</g>
<g>
	<circle fill="#FFFFFF" cx="21.8" cy="72.7" r="2"/>
</g>
<g>
	<circle fill="#FFFFFF" cx="23.8" cy="72.7" r="2"/>
</g>
<g>
	<circle fill="#FFFFFF" cx="25.8" cy="72.7" r="2"/>
</g>
<g>
	<circle fill="#FFFFFF" cx="27.8" cy="72.7" r="2"/>
</g>
<g>
	<circle fill="#FFFFFF" cx="29.9" cy="72.7" r="2"/>
</g>
<g>
	<circle fill="#FFFFFF" cx="31.8" cy="72.7" r="2"/>
</g>
<g>
	<circle fill="#FFFFFF" cx="33.8" cy="72.7" r="2"/>
</g>
<g>
	<circle fill="#FFFFFF" cx="35.7" cy="72.7" r="2"/>
</g>
<g>
	<circle fill="#FFFFFF" cx="37.7" cy="72.7" r="2"/>
</g>
<g>
	<circle fill="#FFFFFF" cx="39.7" cy="72.7" r="2"/>
</g>
<g>
	<circle fill="#FFFFFF" cx="41.7" cy="72.7" r="2"/>
</g>
<g>
	<circle fill="#FFFFFF" cx="43.7" cy="72.7" r="2"/>
</g>
<g>
	<circle fill="#FFFFFF" cx="45.7" cy="72.7" r="2"/>
</g>
<g>
	<circle fill="#FFFFFF" cx="47.7" cy="72.7" r="2"/>
</g>
<g>
	<circle fill="#FFFFFF" cx="49.6" cy="72.7" r="2"/>
</g>
<g>
	<circle fill="#FFFFFF" cx="51.6" cy="72.7" r="2"/>
</g>
<g>
	<circle fill="#FFFFFF" cx="53.6" cy="72.7" r="2"/>
</g>
<g>
	<circle fill="#FFFFFF" cx="55.6" cy="72.7" r="2"/>
</g>
<g>
	<circle fill="#FFFFFF" cx="57.6" cy="72.7" r="2"/>
</g>
<g>
	<circle fill="#FFFFFF" cx="59.6" cy="72.7" r="2"/>
</g>
<g>
	<circle fill="#FFFFFF" cx="61.6" cy="72.7" r="2"/>
</g>
<g>
	<circle fill="#FFFFFF" cx="63.5" cy="72.7" r="2"/>
</g>
<g>
	<circle fill="#FFFFFF" cx="65.5" cy="72.7" r="2"/>
</g>
<g>
	<circle fill="#FFFFFF" cx="67.5" cy="72.7" r="2"/>
</g>
<g>
	<circle fill="#FFFFFF" cx="69.5" cy="72.7" r="2"/>
</g>
<g>
	<circle fill="#FFFFFF" cx="71.5" cy="72.7" r="2"/>
</g>
<g>
	<circle fill="#FFFFFF" cx="73.5" cy="72.7" r="2"/>
</g>
<g>
	<circle fill="#FFFFFF" cx="75.5" cy="72.7" r="2"/>
</g>
<g>
	<circle fill="#FFFFFF" cx="77.4" cy="72.7" r="2"/>
</g>
<g>
	<circle fill="#FFFFFF" cx="79.4" cy="72.7" r="2"/>
</g>
<g>
	<circle fill="#FFFFFF" cx="81.4" cy="72.7" r="2"/>
</g>
<g>
	<circle fill="#FFFFFF" cx="83.4" cy="72.7" r="2"/>
</g>
<g>
	<circle fill="#FFFFFF" cx="85.4" cy="72.7" r="2"/>
</g>
<g>
	<circle fill="#FFFFFF" cx="87.4" cy="72.7" r="2"/>
</g>
<g>
	<circle fill="#FFFFFF" cx="89.4" cy="72.7" r="2"/>
</g>
<g>
	<circle fill="#FFFFFF" cx="91.3" cy="72.7" r="2"/>
</g>
<g>
	<circle fill="#FFFFFF" cx="93.3" cy="72.7" r="2"/>
</g>
<g>
	<circle fill="#FFFFFF" cx="95.3" cy="72.7" r="2"/>
</g>
<g>
	<circle fill="#FFFFFF" cx="97.3" cy="72.7" r="2"/>
</g>
<g>
	<circle fill="#FFFFFF" cx="99.3" cy="72.7" r="2"/>
</g>
<g>
	<circle fill="#FFFFFF" cx="101.3" cy="72.7" r="2"/>
</g>
<g>
	<circle fill="#FFFFFF" cx="103.3" cy="72.7" r="2"/>
</g>
<g>
	<circle fill="#FFFFFF" cx="105.2" cy="72.7" r="2"/>
</g>
<g>
	<circle fill="#FFFFFF" cx="107.2" cy="72.7" r="2"/>
</g>
<g>
	<circle fill="#FFFFFF" cx="109.2" cy="72.7" r="2"/>
</g>
<g>
	<circle fill="#FFFFFF" cx="111.2" cy="72.7" r="2"/>
</g>
<g>
	<circle fill="#FFFFFF" cx="113.2" cy="72.7" r="2"/>
</g>
<g>
	<circle fill="#FFFFFF" cx="115.2" cy="72.7" r="2"/>
</g>
<g>
	<circle fill="#FFFFFF" cx="117.2" cy="72.7" r="2"/>
</g>
<g>
	<circle fill="#FFFFFF" cx="119.1" cy="72.6" r="2"/>
</g>
<g>
	<circle fill="#FFFFFF" cx="121.1" cy="72.6" r="2"/>
</g>
<g>
	<circle fill="#FFFFFF" cx="123.1" cy="72.6" r="2"/>
</g>
<g>
	<circle fill="#FFFFFF" cx="125.1" cy="72.6" r="2"/>
</g>
<g>
	<circle fill="#FFFFFF" cx="127.1" cy="72.6" r="2"/>
</g>
</svg>
