<?xml version="1.0" encoding="utf-8"?>
<!-- Generator: Adobe Illustrator 24.0.0, SVG Export Plug-In . SVG Version: 6.00 Build 0)  -->
<svg version="1.1" id="Layer_1" xmlns="http://www.w3.org/2000/svg" xmlns:xlink="http://www.w3.org/1999/xlink" x="0px" y="0px"
	 viewBox="0 0 128 128" style="enable-background:new 0 0 128 128;" xml:space="preserve">
<style type="text/css">
	.st0{fill:#BEE7FA;}
</style>
<path class="st0" d="M82.6,23.8c-1-1.7-2.3-3.4-4-5.2c-2.5-2.6-6.5-4.7-9-5.6c-0.1-0.1-0.2-0.2-0.2-0.3V5.9h4.1c0.5,0,1-0.4,1-1V1
	c0-0.5-0.4-1-1-1H54.5c-0.5,0-1,0.4-1,1v4c0,0.5,0.4,1,1,1h4.1v6.7c0,0.2-0.1,0.3-0.2,0.3c-2.1,0.9-6.2,2.9-9,5.6
	c-1.5,1.5-2.8,3.3-4,5.2c-1.8,3-2.7,6.3-2.7,9.8v88c0,3.6,2.9,6.5,6.5,6.5h29.6c3.6,0,6.5-2.9,6.5-6.5v-88
	C85.3,30,84.3,26.6,82.6,23.8z M66.3,5.9v6.7c0,1.4,0.8,2.6,2.1,3.1c2,0.8,5.6,2.6,7.9,4.9c1.3,1.4,2.6,2.9,3.6,4.6
	c1.5,2.4,2.3,5.2,2.3,8.2v88h0.1c0,2-1.6,3.6-3.6,3.6H49.2c-2,0-3.6-1.6-3.6-3.6v-88c0-2.9,0.8-5.7,2.3-8.3c0.5-0.8,1-1.6,1.6-2.4
	c0.4-0.6,0.9-1.1,1.4-1.6c0.2-0.2,0.4-0.4,0.6-0.6c2.5-2.4,6.5-4.3,8.1-4.9c1.2-0.5,2-1.7,2-3V5.9H66.3z"/>
</svg>
