<?xml version="1.0" encoding="utf-8"?>
<!-- Generator: Adobe Illustrator 27.2.0, SVG Export Plug-In . SVG Version: 6.00 Build 0)  -->
<svg version="1.1" baseProfile="tiny" xmlns="http://www.w3.org/2000/svg" xmlns:xlink="http://www.w3.org/1999/xlink" x="0px"
	 y="0px" viewBox="0 0 80.74 75.85" overflow="visible" xml:space="preserve">
<g id="Layer_2">
</g>
<g id="Layer_1">
	<path fill="none" stroke="#6EC5DA" stroke-width="3.4855" stroke-linejoin="round" stroke-miterlimit="10" d="M78.17,75.85
		l0.53-7.82l0-0.06l0-0.06c0.09-2.11-0.31-4.21-1.16-6.14l-0.04-0.09l-0.03-0.07l-12.9-27.36c-0.75-1.55-3.21-3.35-4.88-3.78
		c-2.15-0.55-3.43-0.85-4.32-1.12c-0.66-0.2-0.9-0.62-0.9-1.55c0-1.24,0.26-11.24,0.26-11.24c0-7.15-5.72-13.43-14.36-13.43
		 M60.67,35.67"/>
	<path fill="none" stroke="#6EC5DA" stroke-width="3.4855" stroke-linejoin="round" stroke-miterlimit="10" d="M2.57,75.85
		l-0.53-7.82l0-0.06l0-0.06c-0.09-2.11,0.31-4.21,1.16-6.14l0.04-0.09l0.03-0.07l12.9-27.36c0.75-1.55,3.21-3.35,4.88-3.78
		c2.15-0.55,3.43-0.85,4.32-1.12c0.66-0.2,0.9-0.62,0.9-1.55c0-1.24-0.26-11.24-0.26-11.24c0-7.15,5.72-13.43,14.36-13.43
		 M20.07,35.67"/>
</g>
</svg>
