<?xml version="1.0" encoding="utf-8"?>
<!-- Generator: Adobe Illustrator 27.2.0, SVG Export Plug-In . SVG Version: 6.00 Build 0)  -->
<svg version="1.1" baseProfile="tiny" xmlns="http://www.w3.org/2000/svg" xmlns:xlink="http://www.w3.org/1999/xlink" x="0px"
	 y="0px" viewBox="0 0 63.37 59.13" overflow="visible" xml:space="preserve">
<g id="Layer_2">
</g>
<g id="Layer_1">
	<g>
		<g>
			<path fill="#BFE4F7" d="M31.69,20.3c2.07,0,4.01,0.56,5.68,1.52L47.51,4.24C42.85,1.55,37.45,0,31.69,0
				c-5.78,0-11.19,1.56-15.86,4.26l10.16,17.58C27.66,20.86,29.61,20.3,31.69,20.3z"/>
			<path fill="#BFE4F7" d="M63.37,31.67l-20.3,0.01c0,0,0,0,0,0.01c0,4.21-2.29,7.88-5.69,9.85l10.16,17.58
				C57,53.63,63.37,43.41,63.37,31.69C63.37,31.68,63.37,31.67,63.37,31.67z"/>
			<path fill="#BFE4F7" d="M20.3,31.69L0,31.71c0.01,11.73,6.39,21.95,15.86,27.43L26,41.54C22.6,39.58,20.31,35.9,20.3,31.69z"/>
		</g>
		<circle fill="#BFE4F7" cx="31.67" cy="31.19" r="7.62"/>
	</g>
</g>
</svg>
