<?xml version="1.0" encoding="utf-8"?>
<!-- Generator: Adobe Illustrator 27.2.0, SVG Export Plug-In . SVG Version: 6.00 Build 0)  -->
<svg version="1.1" baseProfile="tiny" xmlns="http://www.w3.org/2000/svg" xmlns:xlink="http://www.w3.org/1999/xlink" x="0px"
	 y="0px" viewBox="0 0 80.74 75.85" overflow="visible" xml:space="preserve">
<g id="Layer_2">
</g>
<g id="Layer_1">
	<g>
		<path fill="#6EC5DA" d="M71.65,69.06l-0.46,6.79h-7.82l-0.23-3.43c-0.05-0.85-0.28-1.69-0.67-2.45l-3.91-7.81l0.69-23.36
			l11.67,26.43C71.45,66.44,71.7,67.75,71.65,69.06z"/>
		<path fill="#6EC5DA" d="M22.3,61.91l-4.04,8.06c-0.39,0.76-0.61,1.6-0.67,2.45l-0.23,3.43H9.54l-0.46-6.79
			c-0.05-1.31,0.2-2.62,0.73-3.83L21.48,38.8L22.3,61.91z"/>
		<path fill="#6EC5DA" d="M41,31.34c4.39,0,6.77-2.28,7.36-7.59l0.28-5.37c0-4.87-3.25-8.82-7.64-8.82s-7.62,3.95-7.62,8.82
			l0.26,4.79C34.34,28.11,36.62,31.34,41,31.34z"/>
		<path fill="#6EC5DA" d="M45.13,34.21c-2.44-0.63-4.99-0.66-7.45-0.1l-14.14,3.25l1.19,38.49h31.42l1.2-38.49L45.13,34.21z
			 M40.45,39.07c2.52,0,4.89,0.68,6.92,1.86l-4.44,7.7c-0.73-0.42-1.58-0.67-2.48-0.67c-0.91,0-1.77,0.25-2.5,0.67l-4.45-7.69
			C35.54,39.75,37.91,39.07,40.45,39.07z M33.52,64.97c-4.15-2.4-6.95-6.88-6.95-12.01l8.89-0.01c0,1.84,1.01,3.45,2.5,4.31
			L33.52,64.97z M40.44,56.07c-1.85,0-3.34-1.5-3.34-3.34c0-1.84,1.49-3.34,3.34-3.34c1.84,0,3.34,1.5,3.34,3.34
			C43.78,54.57,42.28,56.07,40.44,56.07z M47.39,64.96l-4.45-7.7c1.49-0.86,2.49-2.47,2.49-4.31c0,0,8.89-0.01,8.89,0
			C54.32,58.08,51.53,62.56,47.39,64.96z"/>
	</g>
</g>
</svg>
