<?xml version="1.0" encoding="utf-8"?>
<!-- Generator: Adobe Illustrator 24.0.2, SVG Export Plug-In . SVG Version: 6.00 Build 0)  -->
<svg version="1.1" baseProfile="tiny" id="Layer_1" xmlns="http://www.w3.org/2000/svg" xmlns:xlink="http://www.w3.org/1999/xlink"
	 x="0px" y="0px" viewBox="0 0 128 128" xml:space="preserve">
<path fill="#BEE7FA" d="M42.5,76.2c-0.3-0.4-0.9-0.9-1.3-1.1c0,0-0.1,0-0.1,0H37c-0.3,0-1,0.6-1.4,1.1v1.7h6.9L42.5,76.2
	C42.5,76.2,42.5,76.2,42.5,76.2z M45.8,18.9h-5.7V23h5.7c0.1,0,0.7-0.5,0.9-0.9v-2.4C46.5,19.4,46,18.9,45.8,18.9z M45.9,26.9h-5.7
	v4.1h5.7c0.1,0,0.7-0.4,0.9-0.9c0,0,0,0,0-0.1v-2.3C46.5,27.4,46,27,45.9,26.9z M45.9,26.9h-5.7v4.1h5.7c0.1,0,0.7-0.4,0.9-0.9
	c0,0,0,0,0-0.1v-2.3C46.5,27.4,46,27,45.9,26.9z M45.8,18.9h-5.7V23h5.7c0.1,0,0.7-0.5,0.9-0.9v-2.4C46.5,19.4,46,18.9,45.8,18.9z
	 M42.5,76.2c-0.3-0.4-0.9-0.9-1.3-1.1c0,0-0.1,0-0.1,0H37c-0.3,0-1,0.6-1.4,1.1v1.7h6.9L42.5,76.2C42.5,76.2,42.5,76.2,42.5,76.2z
	 M42.5,76.2c-0.3-0.4-0.9-0.9-1.3-1.1c0,0-0.1,0-0.1,0H37c-0.3,0-1,0.6-1.4,1.1v1.7h6.9L42.5,76.2C42.5,76.2,42.5,76.2,42.5,76.2z
	 M45.8,18.9h-5.7V23h5.7c0.1,0,0.7-0.5,0.9-0.9v-2.4C46.5,19.4,46,18.9,45.8,18.9z M45.9,26.9h-5.7v4.1h5.7c0.1,0,0.7-0.4,0.9-0.9
	c0,0,0,0,0-0.1v-2.3C46.5,27.4,46,27,45.9,26.9z M45.9,26.9h-5.7v4.1h5.7c0.1,0,0.7-0.4,0.9-0.9c0,0,0,0,0-0.1v-2.3
	C46.5,27.4,46,27,45.9,26.9z M45.8,18.9h-5.7V23h5.7c0.1,0,0.7-0.5,0.9-0.9v-2.4C46.5,19.4,46,18.9,45.8,18.9z M42.5,76.2
	c-0.3-0.4-0.9-0.9-1.3-1.1c0,0-0.1,0-0.1,0H37c-0.3,0-1,0.6-1.4,1.1v1.7h6.9L42.5,76.2C42.5,76.2,42.5,76.2,42.5,76.2z M48.9,49.7
	l21.5-12.4V12.4L48.9,0L27.4,12.4v24.9l10.6,6.1l-3.6,7.3l-6-3.5L2.1,62.4v30.4L28.4,108l15.1-8.7l5.8,6.2l-3.1,1.8v13.8l12,6.9
	l12-6.9v-13.8l-12-6.9l-4.8,2.8L47.5,97l7.2-4.2V62.4L38.3,53l3.6-7.3L48.9,49.7z M53.4,14.9h8.5V35h-4.4V18.9h-4.1V14.9z
	 M28.4,68.6H16.4v5.6h11.3V79H16.4v10.3h-5.4V63.6h17.5V68.6z M41.1,70.4c1.2,0,2.5,0.4,3.5,1c0.7,0.5,1.9,1.6,2.3,2.1
	c0.6,0.7,0.9,1.7,0.9,2.8v6.1H35.6v1.3c0.4,0.6,1.2,1.2,1.4,1.2h4.3c0.2,0,1-0.6,1.4-1c0.1-0.1,0.1-0.1,0.1-0.1l0.1-0.2l0.3,0.1
	l4.6,1.3l-0.2,0.4c-0.5,1.1-2.2,2.8-3,3.3c-1,0.6-2.3,1-3.4,1H37c-1.3,0-2.6-0.3-3.5-0.9c-0.7-0.5-1.9-1.6-2.2-2.1
	c-0.6-0.8-0.9-1.8-0.9-2.8v-7.5c0-1,0.3-2,0.9-2.8c0.4-0.5,1.5-1.6,2.2-2.1c0.9-0.6,2.3-1,3.5-1H41.1z M35.8,35V14.9h10.1
	c0.9,0,1.9,0.3,2.7,0.8c0.5,0.4,1.6,1.4,1.9,1.8c0.6,0.7,0.7,1.6,0.7,2.2v2.4c0,1.4-0.6,2.2-1.2,2.8c0.7,0.7,1.2,1.4,1.2,2.8v2.5
	c0,0.8-0.2,1.6-0.7,2.2l0,0c-0.3,0.4-1.4,1.5-1.9,1.8c-0.7,0.5-1.8,0.8-2.7,0.8H35.8z M46.8,30.2C46.8,30.2,46.8,30.2,46.8,30.2
	l0-2.4c-0.3-0.4-0.8-0.9-1-0.9h-5.7v4.1h5.7C46,31,46.6,30.6,46.8,30.2z M46.8,22.2v-2.4c-0.3-0.5-0.8-0.9-1-0.9h-5.7V23h5.7
	C46,23,46.6,22.6,46.8,22.2z M35.6,76.2v1.7h6.9v-1.6c0,0,0-0.1,0-0.1c-0.3-0.4-0.9-0.9-1.3-1.1c0,0-0.1,0-0.1,0H37
	C36.7,75.1,36,75.6,35.6,76.2z M42.5,76.2c-0.3-0.4-0.9-0.9-1.3-1.1c0,0-0.1,0-0.1,0H37c-0.3,0-1,0.6-1.4,1.1v1.7h6.9L42.5,76.2
	C42.5,76.2,42.5,76.2,42.5,76.2z M45.8,18.9h-5.7V23h5.7c0.1,0,0.7-0.5,0.9-0.9v-2.4C46.5,19.4,46,18.9,45.8,18.9z M45.9,26.9h-5.7
	v4.1h5.7c0.1,0,0.7-0.4,0.9-0.9c0,0,0,0,0-0.1v-2.3C46.5,27.4,46,27,45.9,26.9z M45.9,26.9h-5.7v4.1h5.7c0.1,0,0.7-0.4,0.9-0.9
	c0,0,0,0,0-0.1v-2.3C46.5,27.4,46,27,45.9,26.9z M45.8,18.9h-5.7V23h5.7c0.1,0,0.7-0.5,0.9-0.9v-2.4C46.5,19.4,46,18.9,45.8,18.9z
	 M42.5,76.2c-0.3-0.4-0.9-0.9-1.3-1.1c0,0-0.1,0-0.1,0H37c-0.3,0-1,0.6-1.4,1.1v1.7h6.9L42.5,76.2C42.5,76.2,42.5,76.2,42.5,76.2z
	 M42.5,76.2c-0.3-0.4-0.9-0.9-1.3-1.1c0,0-0.1,0-0.1,0H37c-0.3,0-1,0.6-1.4,1.1v1.7h6.9L42.5,76.2C42.5,76.2,42.5,76.2,42.5,76.2z
	 M42.5,76.2c-0.3-0.4-0.9-0.9-1.3-1.1c0,0-0.1,0-0.1,0H37c-0.3,0-1,0.6-1.4,1.1v1.7h6.9L42.5,76.2C42.5,76.2,42.5,76.2,42.5,76.2z
	 M91.6,120.6C91.6,120.6,91.5,120.6,91.6,120.6c2.9-3.5,8-10,12.2-18.5c4.6-3.3,17.6-14.1,19.5-29.4C120.4,84.5,110.6,93.4,106,97
	c3.1-7.6,5.3-16.4,5-25.8c1.5-2.5,7.2-13,4-23.2c1.7,8.8-3,16.5-4.4,18.6c-1.4-11.4-6.8-23.7-18.8-35.8
	c9.4,12.6,13.6,24.5,14.6,35.4c-9-17.1-25.7-20.6-26.4-20.8c0.6,0.2,21.4,8.1,26.6,28.2c-0.4,8.5-2.6,16.3-5.7,23
	c-4.4-27.1-28-33.2-28-33.2s25,12,25,39c-3.4,6-7.2,10.9-10.5,14.6c-6.2-5.9-17.4-19-17.4-37.5c0-29.7,13.6-37.8,6.7-61.4
	c4.1,2.4,41.1,13.8,47.2,52.2S91.6,120.6,91.6,120.6z"/>
</svg>
