<?xml version="1.0" encoding="utf-8"?>
<!-- Generator: Adobe Illustrator 29.1.0, SVG Export Plug-In . SVG Version: 9.03 Build 55587)  -->
<svg version="1.1" baseProfile="tiny" id="Layer_1" xmlns="http://www.w3.org/2000/svg" xmlns:xlink="http://www.w3.org/1999/xlink"
	 x="0px" y="0px" viewBox="0 0 64 64" overflow="visible" xml:space="preserve">
<path fill="#BEE7FA" d="M24.4,36.4c-0.1-0.1-0.3-0.3-0.5-0.4h0h-1.5c-0.1,0-0.4,0.2-0.5,0.4V37h2.5V36.4L24.4,36.4z M25.6,15.6h-2.1
	v1.5h2.1c0,0,0.3-0.2,0.3-0.3v-0.9C25.9,15.8,25.7,15.6,25.6,15.6z M25.7,18.5h-2.1V20h2.1c0,0,0.3-0.1,0.3-0.3c0,0,0,0,0,0v-0.8
	C25.9,18.7,25.7,18.6,25.7,18.5z M25.7,18.5h-2.1V20h2.1c0,0,0.3-0.1,0.3-0.3c0,0,0,0,0,0v-0.8C25.9,18.7,25.7,18.6,25.7,18.5z
	 M25.6,15.6h-2.1v1.5h2.1c0,0,0.3-0.2,0.3-0.3v-0.9C25.9,15.8,25.7,15.6,25.6,15.6z M24.4,36.4c-0.1-0.1-0.3-0.3-0.5-0.4h0h-1.5
	c-0.1,0-0.4,0.2-0.5,0.4V37h2.5V36.4L24.4,36.4z M24.4,36.4c-0.1-0.1-0.3-0.3-0.5-0.4h0h-1.5c-0.1,0-0.4,0.2-0.5,0.4V37h2.5V36.4
	L24.4,36.4z M25.6,15.6h-2.1v1.5h2.1c0,0,0.3-0.2,0.3-0.3v-0.9C25.9,15.8,25.7,15.6,25.6,15.6z M25.7,18.5h-2.1V20h2.1
	c0,0,0.3-0.1,0.3-0.3c0,0,0,0,0,0v-0.8C25.9,18.7,25.7,18.6,25.7,18.5z M25.7,18.5h-2.1V20h2.1c0,0,0.3-0.1,0.3-0.3c0,0,0,0,0,0
	v-0.8C25.9,18.7,25.7,18.6,25.7,18.5z M25.6,15.6h-2.1v1.5h2.1c0,0,0.3-0.2,0.3-0.3v-0.9C25.9,15.8,25.7,15.6,25.6,15.6z M24.4,36.4
	c-0.1-0.1-0.3-0.3-0.5-0.4h0h-1.5c-0.1,0-0.4,0.2-0.5,0.4V37h2.5V36.4L24.4,36.4z M26.8,26.8l7.8-4.5v-9l-7.8-4.5L19,13.3v9l3.8,2.2
	l-1.3,2.6l-2.2-1.3l-9.5,5.5v11l9.5,5.5l5.5-3.2l2.1,2.3l-1.1,0.7v5l4.4,2.5l4.4-2.5v-5l-4.4-2.5l-1.7,1L26.3,44l2.6-1.5v-11l-6-3.4
	l1.3-2.6L26.8,26.8z M28.4,14.2h3.1v7.3h-1.6v-5.8h-1.5V14.2z M19.3,33.7H15v2h4.1v1.7H15v3.7h-2v-9.3h6.4L19.3,33.7L19.3,33.7z
	 M23.9,34.3c0.4,0,0.9,0.1,1.3,0.4c0.3,0.2,0.7,0.6,0.8,0.8c0.2,0.3,0.3,0.6,0.3,1v2.2h-4.4v0.5c0.1,0.2,0.4,0.4,0.5,0.4H24
	c0.1,0,0.4-0.2,0.5-0.4c0,0,0,0,0,0l0-0.1l0.1,0l1.7,0.5l-0.1,0.1c-0.2,0.4-0.8,1-1.1,1.2c-0.4,0.2-0.8,0.4-1.2,0.4h-1.5
	c-0.5,0-0.9-0.1-1.3-0.3c-0.3-0.2-0.7-0.6-0.8-0.8c-0.2-0.3-0.3-0.7-0.3-1v-2.7c0-0.4,0.1-0.7,0.3-1c0.1-0.2,0.5-0.6,0.8-0.8
	c0.3-0.2,0.8-0.4,1.3-0.4L23.9,34.3L23.9,34.3z M22,21.5v-7.3h3.7c0.3,0,0.7,0.1,1,0.3c0.2,0.1,0.6,0.5,0.7,0.7
	c0.2,0.3,0.3,0.6,0.3,0.8v0.9c0,0.5-0.2,0.8-0.4,1c0.3,0.3,0.4,0.5,0.4,1v0.9c0,0.3-0.1,0.6-0.3,0.8l0,0c-0.1,0.1-0.5,0.5-0.7,0.7
	c-0.3,0.2-0.7,0.3-1,0.3C25.7,21.5,22,21.5,22,21.5z M26,19.7L26,19.7v-0.9c-0.1-0.1-0.3-0.3-0.4-0.3h-2.1V20h2.1
	C25.7,20,25.9,19.9,26,19.7z M26,16.8V16c-0.1-0.2-0.3-0.3-0.4-0.3h-2.1v1.5h2.1C25.7,17.1,25.9,17,26,16.8z M21.9,36.4V37h2.5v-0.6
	v0c-0.1-0.1-0.3-0.3-0.5-0.4h0h-1.5C22.3,36,22.1,36.2,21.9,36.4z M24.4,36.4c-0.1-0.1-0.3-0.3-0.5-0.4h0h-1.5
	c-0.1,0-0.4,0.2-0.5,0.4V37h2.5V36.4L24.4,36.4z M25.6,15.6h-2.1v1.5h2.1c0,0,0.3-0.2,0.3-0.3v-0.9C25.9,15.8,25.7,15.6,25.6,15.6z
	 M25.7,18.5h-2.1V20h2.1c0,0,0.3-0.1,0.3-0.3c0,0,0,0,0,0v-0.8C25.9,18.7,25.7,18.6,25.7,18.5z M25.7,18.5h-2.1V20h2.1
	c0,0,0.3-0.1,0.3-0.3c0,0,0,0,0,0v-0.8C25.9,18.7,25.7,18.6,25.7,18.5z M25.6,15.6h-2.1v1.5h2.1c0,0,0.3-0.2,0.3-0.3v-0.9
	C25.9,15.8,25.7,15.6,25.6,15.6z M24.4,36.4c-0.1-0.1-0.3-0.3-0.5-0.4h0h-1.5c-0.1,0-0.4,0.2-0.5,0.4V37h2.5V36.4L24.4,36.4z
	 M24.4,36.4c-0.1-0.1-0.3-0.3-0.5-0.4h0h-1.5c-0.1,0-0.4,0.2-0.5,0.4V37h2.5V36.4L24.4,36.4z M24.4,36.4c-0.1-0.1-0.3-0.3-0.5-0.4h0
	h-1.5c-0.1,0-0.4,0.2-0.5,0.4V37h2.5V36.4L24.4,36.4z M42.3,52.5C42.3,52.5,42.2,52.5,42.3,52.5c1.1-1.3,2.9-3.6,4.4-6.7
	c1.7-1.2,6.4-5.1,7.1-10.7c-1.1,4.3-4.6,7.5-6.3,8.8c1.1-2.8,1.9-6,1.8-9.4c0.5-0.9,2.6-4.7,1.5-8.4c0.6,3.2-1.1,6-1.6,6.8
	c-0.5-4.1-2.5-8.6-6.8-13c3.4,4.6,4.9,8.9,5.3,12.8c-3.3-6.2-9.3-7.5-9.6-7.5c0.2,0.1,7.8,2.9,9.7,10.2c-0.1,3.1-0.9,5.9-2.1,8.3
	c-1.6-9.8-10.2-12-10.2-12s9.1,4.4,9.1,14.2c-1.2,2.2-2.6,4-3.8,5.3c-2.3-2.1-6.3-6.9-6.3-13.6c0-10.8,4.9-13.7,2.4-22.3
	c1.5,0.9,14.9,5,17.1,18.9C56.2,48.2,42.3,52.5,42.3,52.5z"/>
</svg>
