<?xml version="1.0" encoding="utf-8"?>
<!-- Generator: Adobe Illustrator 24.0.0, SVG Export Plug-In . SVG Version: 6.00 Build 0)  -->
<svg version="1.1" baseProfile="tiny" id="Layer_1" xmlns="http://www.w3.org/2000/svg" xmlns:xlink="http://www.w3.org/1999/xlink"
	 x="0px" y="0px" viewBox="0 0 128 128" xml:space="preserve">
<path fill="#BEE7FB" d="M91.1,69.5l0.3,3.7L90,74.2l-3-1.5c-0.4-0.2-0.7-0.6-0.8-1l-1.4-5.6c0-0.1,0-0.1,0-0.2l-0.6-4.5
	c0-0.1-0.1-0.3-0.1-0.4l-5.9-13.7c-0.1-0.2-0.2-0.5-0.2-0.8l-0.1-1.9c0-0.1,0-0.2-0.1-0.4l-1-4.5l-1.2,6.3c0,0.1,0,0.2,0,0.3
	l0.5,10.3c0,0.2-0.1,0.3-0.1,0.5L77.6,76c0.1,0.4,0.1,0.9,0,1.3l-1,9.6c-0.1,0.7,0,1.4,0.2,2.1l1.2,4.9c0.1,0.5,0.2,0.9,0.2,1.4
	l0.2,11.1c0,0.4,0,0.8-0.1,1.2l-1.2,6.6c0,0.1,0,0.2,0,0.3l1.1,7.1c0,0.5,0.2,0.9,0.5,1.2l3,2.9l-0.7,2.2h-7.5
	c-0.5,0-0.9-0.2-1.2-0.5l-1.1-1.1l0.8-3.7c0-0.1,0-0.3,0-0.4l-1.2-10.8c0-0.4-0.1-0.8-0.2-1.3l-2.7-11.9c-0.1-0.4-0.1-0.8-0.2-1.3
	l-0.1-8.6c0-0.3,0-0.6-0.1-0.9l-3.2-22.9h-1l-3.2,22.4C60,87.4,60,87.7,60,88l-0.1,8.6c0,0.4-0.1,0.8-0.2,1.3L57,109.7
	c-0.1,0.4-0.1,0.8-0.2,1.3l-1.2,11.4c0,0.1,0,0.3,0,0.4l0.8,3.7l-1.1,1.1c-0.3,0.3-0.8,0.5-1.2,0.5h-7.5l-0.7-2.2l3-2.9
	c0.3-0.3,0.5-0.8,0.5-1.2l1.1-7.7c0-0.1,0-0.2,0-0.3l-1.2-6.6c-0.1-0.4-0.1-0.8-0.1-1.2l0.2-11.1c0-0.5,0.1-0.9,0.2-1.4l1.2-4.9
	c0.2-0.7,0.2-1.4,0.2-2.1l-1-9.6c0-0.4,0-0.9,0-1.3L51.8,57c0-0.1-0.1-0.2-0.1-0.4l0.5-10.3c0-0.1,0-0.2,0-0.3l-1-5.3l-0.8,3.5
	c0,0.1,0,0.2-0.1,0.4l-0.1,1.9c0,0.3-0.1,0.5-0.2,0.8L44,61.1c-0.1,0.1-0.1,0.3-0.1,0.4L43.3,66c0,0.1,0,0.1,0,0.2l-1.4,5.6
	c-0.1,0.4-0.4,0.8-0.8,1l-3,1.5l-1.5-0.9l0.3-3.7l-0.4-1l0.5-3.6c0.1-0.3,0.2-0.7,0.5-0.9l1.9-1.9c0.3-0.2,0.4-0.6,0.5-0.9l1.9-14.1
	c0-0.3,0.2-0.7,0.3-0.9l1.6-2.5c0.1-0.2,0.2-0.4,0.3-0.6L48.8,26c0.1-0.2,0.2-0.4,0.4-0.5l1.6-0.9c0.2-0.2,0.4-0.4,0.7-0.6l7-2.5
	c0.2-0.1,0.4-0.1,0.6-0.1h9.2c0.2,0,0.4,0,0.6,0.1l7,2.5c0.1,0,0.2,0.2,0.3,0.3c0.2,0,0.4,0,0.6,0.1l1.9,1c0.2,0.1,0.4,0.3,0.4,0.5
	L84,43c0.1,0.2,0.2,0.4,0.3,0.6l1.6,2.5c0.2,0.3,0.3,0.6,0.3,0.9l1.9,14.1c0,0.4,0.2,0.7,0.5,0.9l1.9,1.9c0.2,0.2,0.4,0.6,0.5,0.9
	l0.5,3.6L91.1,69.5z M57.5,14.1l0.7,0.2l0.8,2l2,2.2c0.2,0.3,0.6,0.4,1,0.4h3.6c0.4,0,0.7-0.2,1-0.4l2-2.2l0.7-2l0.8-0.2l0.7-2.2
	l0.3-3.1l-0.7-0.7l-0.3-4.6c0-0.5-0.3-0.9-0.7-1.2l-2.4-1.7c-0.6-0.4-1.3-0.6-2-0.6h-2.6c-0.7,0-1.4,0.2-2,0.6l-2.4,1.7
	c-0.4,0.3-0.6,0.7-0.7,1.2l-0.3,4.5l-0.6,0.8l0.3,3.1L57.5,14.1z"/>
</svg>
