<?xml version="1.0" encoding="utf-8"?>
<!-- Generator: Adobe Illustrator 25.4.0, SVG Export Plug-In . SVG Version: 6.00 Build 0)  -->
<svg version="1.1" baseProfile="tiny" id="Layer_1" xmlns="http://www.w3.org/2000/svg" xmlns:xlink="http://www.w3.org/1999/xlink"
	 x="0px" y="0px" width="74.5px" height="75.1px" viewBox="0 0 74.5 75.1" overflow="visible" xml:space="preserve">
<path display="none" fill="#0071BC" d="M65.1,4.1v67c0,2.2-1.8,4-4,4H19.4v-75h41.6C63.3,0.1,65.1,1.9,65.1,4.1z"/>
<rect x="10.3" y="0.1" fill="#C5C8D8" width="5.1" height="24.5"/>
<rect x="10.3" y="57.1" fill="#C5C8D8" width="5.1" height="5"/>
<rect x="10.3" y="70.1" fill="#C5C8D8" width="5.1" height="5"/>
<g>
	
		<line fill="none" stroke="#FFFFFF" stroke-linecap="round" stroke-linejoin="round" stroke-miterlimit="10" x1="53.7" y1="40.1" x2="29.1" y2="64.8"/>
	
		<line fill="none" stroke="#FFFFFF" stroke-linecap="round" stroke-linejoin="round" stroke-miterlimit="10" x1="53.7" y1="57.1" x2="45.5" y2="65.3"/>
	
		<line fill="none" stroke="#FFFFFF" stroke-linecap="round" stroke-linejoin="round" stroke-miterlimit="10" x1="37.3" y1="40.1" x2="29.1" y2="48.3"/>
	
		<line fill="none" stroke="#FFFFFF" stroke-linecap="round" stroke-linejoin="round" stroke-miterlimit="10" x1="30.1" y1="40.1" x2="29.1" y2="41.2"/>
	
		<line fill="none" stroke="#FFFFFF" stroke-linecap="round" stroke-linejoin="round" stroke-miterlimit="10" x1="53.7" y1="64.2" x2="52.6" y2="65.3"/>
	
		<line fill="none" stroke="#FFFFFF" stroke-linecap="round" stroke-linejoin="round" stroke-miterlimit="10" x1="45.5" y1="40.1" x2="29.1" y2="56.5"/>
	
		<line fill="none" stroke="#FFFFFF" stroke-linecap="round" stroke-linejoin="round" stroke-miterlimit="10" x1="53.7" y1="48.9" x2="37.3" y2="65.3"/>
</g>
<rect x="48.4" y="8.1" fill="#C5C8D8" width="7" height="5"/>
<rect x="44.3" y="8.1" fill="#C5C8D8" width="1.5" height="5"/>
<rect x="41.5" y="8.1" fill="#C5C8D8" width="0.5" height="5"/>
<polygon fill="#A1A3B2" points="70.1,75.1 74.5,75.1 74.5,0.1 70.1,0.1 70.1,1.1 73.5,1.1 73.5,74.1 70.1,74.1 "/>
<polygon fill="#A1A3B2" points="4.4,0 0,0 0,75 4.4,75 4.4,74 1,74 1,1 4.4,1 "/>
</svg>
