<?xml version="1.0" encoding="utf-8"?>
<!-- Generator: Adobe Illustrator 26.0.1, SVG Export Plug-In . SVG Version: 6.00 Build 0)  -->
<svg version="1.1" baseProfile="tiny" id="Layer_1" xmlns="http://www.w3.org/2000/svg" xmlns:xlink="http://www.w3.org/1999/xlink"
	 x="0px" y="0px" viewBox="0 0 240 240" overflow="visible" xml:space="preserve">
<g>
	<path fill="#41A98D" d="M147.5,35.5c0,5.8,4.7,10.6,10.6,10.6s10.6-4.7,10.6-10.6c0-5.8-4.7-10.6-10.5-10.6l0,0
		C152.2,24.9,147.5,29.7,147.5,35.5L147.5,35.5z"/>
	<path fill="#41A98D" d="M143.2,77.8c0.3-5.8-4.2-10.6-10-10.6H36.4c-5.8,0-10.8,4.7-11.1,10.6c-0.3,5.8,4.2,10.6,10,10.6h96.8
		C137.9,88.3,142.9,83.6,143.2,77.8L143.2,77.8z"/>
	<path fill="#41A98D" d="M27.8,193.8c-5.8,0-10.8,4.7-11.1,10.6c-0.3,5.8,4.2,10.5,10,10.5h35.9c5.8,0,10.8-4.7,11.1-10.5
		s-4.2-10.6-10-10.6H27.8L27.8,193.8z"/>
	<path fill="#41A98D" d="M18.4,130.6h49.5c5.8,0,10.8-4.7,11.1-10.6c0.3-5.8-4.2-10.6-10-10.6H19.5c-5.8,0-10.8,4.7-11.1,10.6
		C8.1,125.8,12.6,130.6,18.4,130.6L18.4,130.6z"/>
	<path fill="#41A98D" d="M106,162.3c0.3-5.8-4.2-10.6-10-10.6H58.6c-5.8,0-10.8,4.7-11.1,10.6c-0.3,5.8,4.2,10.6,10,10.6h37.4
		C100.8,172.8,105.7,168.1,106,162.3L106,162.3z"/>
	<path fill="#41A98D" d="M221.2,25h-1h-9.6h-15.2c-5.8,0-10.6,4.7-10.6,10.6c0,5.8,4.7,10.5,10.6,10.5h15.2h4.9h5.6
		c5.8,0,10.6-4.7,10.6-10.6S227.1,25,221.2,25z"/>
	<path fill="#41A98D" d="M210.7,67.2h-1.9l0,0h-40.4c-5.8,0-10.6,4.7-10.6,10.6c0,5.8,4.7,10.6,10.6,10.6h31.7l0,0h10.6
		c5.8,0,10.6-4.7,10.6-10.6l0,0C221.2,72,216.5,67.2,210.7,67.2z"/>
	<path fill="#41A98D" d="M211,109.5h-9.4v-0.1h-92.3c-5.8,0-10.5,4.7-10.5,10.6c0,5.8,4.7,10.6,10.5,10.6h86.3l0,0H211
		c5.8,0,10.6-4.7,10.6-10.6S216.8,109.5,211,109.5z"/>
	<path fill="#41A98D" d="M183.3,151.8h-2v-0.1h-44.8c-5.8,0-10.6,4.7-10.6,10.6c0,5.8,4.7,10.6,10.6,10.6h36.2l0,0h10.6
		c5.8,0,10.6-4.7,10.6-10.6S189.1,151.8,183.3,151.8z"/>
	<path fill="#41A98D" d="M179.3,193.9h-6.7l0,0h-5h-60.1c-5.8,0-10.6,4.7-10.6,10.6c0,5.8,4.7,10.6,10.6,10.6h63l0,0h8.8
		c5.8,0,10.6-4.7,10.6-10.6S185.1,193.9,179.3,193.9z"/>
</g>
</svg>
