<?xml version="1.0" encoding="utf-8"?>
<!-- Generator: Adobe Illustrator 27.7.0, SVG Export Plug-In . SVG Version: 6.00 Build 0)  -->
<svg version="1.1" baseProfile="tiny" id="Layer_1" xmlns="http://www.w3.org/2000/svg" xmlns:xlink="http://www.w3.org/1999/xlink"
	 x="0px" y="0px" viewBox="0 0 680.4 656.6" overflow="visible" xml:space="preserve">
<g>
	<rect x="633.7" y="4.3" fill="#290805" width="33.6" height="9.1"/>
	<line fill="none" stroke="#160604" stroke-width="2" stroke-miterlimit="10" x1="675.3" y1="438.3" x2="675.3" y2="12.4"/>
	<line fill="none" stroke="#FF5748" stroke-width="2" stroke-miterlimit="10" x1="675.3" y1="472.5" x2="675.3" y2="442.5"/>
	<rect x="668.2" y="5.3" fill="none" stroke="#FF5748" stroke-width="2" stroke-miterlimit="10" width="7.1" height="7.1"/>
	<path fill="none" stroke="#160604" stroke-width="2" stroke-miterlimit="10" d="M658.3,651.6h7.3c3.8-3.8,5.9-5.9,9.7-9.7V477.7"/>
	<rect x="655.3" y="650.6" fill="#FF5748" width="2" height="2"/>
	<rect x="645.2" y="650.6" fill="#FF5748" width="2" height="2"/>
	<line fill="none" stroke="#250704" stroke-width="2" stroke-miterlimit="10" x1="654.2" y1="651.6" x2="648.3" y2="651.6"/>
	<line fill="none" stroke="#250704" stroke-width="2" stroke-miterlimit="10" x1="644.2" y1="651.6" x2="638.3" y2="651.6"/>
	<line fill="none" stroke="#250704" stroke-width="2" stroke-miterlimit="10" x1="633.2" y1="651.6" x2="24.1" y2="651.6"/>
	<line fill="none" stroke="#250704" stroke-width="2" stroke-miterlimit="10" x1="665" y1="631.6" x2="14.9" y2="631.6"/>
	<polygon fill="#FF5748" points="670.2,637.5 666.1,637.5 661.3,642.4 661.3,646.5 663.2,646.5 670.1,639.5 	"/>
	<rect x="13.1" y="4.3" fill="#290805" width="438.2" height="9.1"/>
	<rect x="451.3" y="4.3" fill="#140402" width="182.4" height="9.1"/>
	<path fill="none" stroke="#160604" stroke-width="2" stroke-miterlimit="10" d="M19,651.6h-4.4c-3.8-3.8-5.9-5.9-9.7-9.7V12.4"/>
	<polygon fill="#FF5748" points="10.1,637.5 14.2,637.5 19,642.4 19,646.5 17.1,646.5 10.1,639.5 	"/>
	<g>
		<path fill="#FF5748" d="M458.1,10.3c-0.1,0-0.1,0.1-0.2,0.1h-0.7l-0.2-0.1l-0.3-0.3l-0.1-0.2V8l0.1-0.2l0.3-0.3l0.2-0.2h0.7
			c0.1,0,0.2,0,0.2,0.1c0.1,0.1,0.3,0.3,0.4,0.4l-0.2,0.1c-0.1-0.1-0.2-0.3-0.3-0.4h-0.1h-0.7h-0.1c-0.1,0-0.2,0.2-0.3,0.3v0.1v1.8
			v0.1c0.1,0.1,0.2,0.3,0.3,0.3h0.1h0.7h0.1c0.1-0.1,0.3-0.2,0.3-0.4l0.2,0.1C458.4,10,458.3,10.2,458.1,10.3z"/>
		<path fill="#FF5748" d="M461.7,10l-0.3,0.3l-0.2,0.1h-0.8l-0.3-0.1l-0.3-0.3l-0.1-0.2V8l0.1-0.2l0.3-0.3l0.2-0.1h0.8l0.2,0.1
			l0.3,0.3l0.1,0.2v1.8V10z M461.6,8L461.6,8c-0.1-0.2-0.3-0.4-0.3-0.4h-0.1h-0.8h-0.1c-0.1,0-0.3,0.2-0.3,0.3V8v1.8v0.1
			c0.1,0.1,0.3,0.3,0.3,0.3h0.1h0.8h0.1c0.1-0.1,0.2-0.2,0.3-0.3V9.8L461.6,8L461.6,8z"/>
		<polygon fill="#FF5748" points="465.2,10.3 465.2,7.5 465.1,7.5 464.2,9.5 464.1,9.5 463.2,7.5 463.2,7.5 463.2,10.3 463,10.3 
			463,7.4 463.3,7.4 464.2,9.2 465,7.4 465.4,7.4 465.4,10.3 		"/>
		<polygon fill="#FF5748" points="468.9,10.3 468.9,7.5 468.8,7.5 467.9,9.5 467.8,9.5 466.9,7.5 466.9,7.5 466.9,10.3 466.7,10.3 
			466.7,7.4 467,7.4 467.9,9.2 468.7,7.4 469.1,7.4 469.1,10.3 		"/>
		<path fill="#FF5748" d="M472.3,10l-0.3,0.3l-0.2,0.1H471l-0.3-0.1l-0.3-0.3l-0.1-0.2V8l0.1-0.2l0.3-0.3l0.2-0.1h0.8l0.2,0.1
			l0.3,0.3l0.1,0.2v1.8V10z M472.2,8L472.2,8c-0.1-0.2-0.3-0.4-0.3-0.4h-0.1H471h-0.1c-0.1,0-0.3,0.2-0.3,0.3V8v1.8v0.1
			c0.1,0.1,0.3,0.3,0.3,0.3h0.1h0.8h0.1c0.1-0.1,0.2-0.2,0.3-0.3V9.8V8z"/>
		<path fill="#FF5748" d="M475.5,9.9c-0.1,0.1-0.2,0.3-0.3,0.3s-0.1,0.1-0.2,0.1h-1.3v-3h1.3c0.1,0,0.2,0,0.2,0.1l0.3,0.3l0.1,0.2
			v1.7L475.5,9.9z M475.4,8L475.4,8c-0.1-0.2-0.2-0.4-0.3-0.4H475h-1.1v2.6h1.1h0.1c0.1,0,0.3-0.2,0.3-0.3V9.8V8z"/>
		<rect x="476.8" y="7.4" fill="#FF5748" width="0.2" height="3"/>
		<polygon fill="#FF5748" points="479.1,7.5 479.1,10.3 478.9,10.3 478.9,7.5 478,7.5 478,7.4 480,7.4 480,7.5 		"/>
		<polygon fill="#FF5748" points="481.9,9 481.9,10.3 481.7,10.3 481.7,9 480.8,7.4 481,7.4 481.8,8.8 482.6,7.4 482.8,7.4 		"/>
		<polygon fill="#FF5748" points="486.2,7.5 486.2,10.3 486,10.3 486,7.5 485.2,7.5 485.2,7.4 487.1,7.4 487.1,7.5 		"/>
		<path fill="#FF5748" d="M489.7,10.3l-0.2-0.7h-1.4l-0.3,0.7h-0.2l1-3h0.4l1,3H489.7z M488.8,7.5h-0.1l-0.6,1.9h1.3L488.8,7.5z"/>
		<path fill="#FF5748" d="M492.9,10.3V10c-0.1,0.1-0.2,0.2-0.2,0.2l-0.2,0.1h-0.8h-0.4L491,10l-0.1-0.2V8l0.1-0.2l0.3-0.3l0.2-0.1
			h0.8l0.2,0.1c0.2,0.1,0.3,0.3,0.4,0.4L492.7,8c-0.1-0.1-0.2-0.3-0.3-0.4h-0.1h-0.8h-0.1c-0.1,0-0.3,0.2-0.3,0.3V8v1.7v0.1
			c0.1,0.1,0.3,0.3,0.3,0.3h0.1h0.8h0.1c0.1,0,0.3-0.2,0.3-0.3V9.7V8.9H492V8.7h0.9c0,0.8,0,1.1,0,1.1S492.9,10,492.9,10.3
			L492.9,10.3z"/>
		<path fill="#FF5748" d="M497.8,10l-0.3,0.3l-0.2,0.1h-0.9l-0.2-0.1c-0.1-0.1-0.3-0.3-0.4-0.4l0.2-0.1c0.1,0.1,0.2,0.3,0.3,0.4h0.1
			h0.8h0.1c0.1-0.1,0.3-0.2,0.3-0.3V9.8V9.4c0-0.1,0-0.2-0.2-0.3l-1.2-0.4c-0.2,0-0.3-0.2-0.3-0.4V8V7.8l0.3-0.3l0.2-0.1h0.8
			l0.2,0.1c0.2,0.1,0.3,0.3,0.4,0.4L497.6,8c-0.1-0.1-0.2-0.3-0.3-0.4h-0.1h-0.7h-0.1c-0.1,0-0.3,0.2-0.3,0.3V8v0.3
			c0,0.1,0,0.2,0.2,0.3l1.4,0.4c0.2,0,0.3,0.2,0.3,0.4v0.4L497.8,10z"/>
		<path fill="#FF5748" d="M500.6,10.3c-0.1,0-0.1,0.1-0.2,0.1h-0.7l-0.2-0.1l-0.3-0.3l-0.1-0.2V8l0.1-0.2l0.3-0.3l0.2-0.1h0.7
			c0.1,0,0.2,0,0.2,0.1c0.1,0.1,0.3,0.3,0.4,0.4L500.8,8c-0.1-0.1-0.2-0.3-0.3-0.4h-0.1h-0.7h-0.1c-0.1,0-0.2,0.2-0.3,0.3V8v1.8v0.1
			c0.1,0.1,0.2,0.3,0.3,0.3h0.1h0.7L500.6,10.3c0-0.2,0.2-0.3,0.2-0.5l0.2,0.1C500.9,10,500.8,10.2,500.6,10.3z"/>
		<path fill="#FF5748" d="M504,10.3l-0.2-0.7h-1.4l-0.3,0.7h-0.2l1-3h0.4l1,3H504z M503.2,7.5h-0.1l-0.6,1.9h1.3L503.2,7.5z"/>
		<polygon fill="#FF5748" points="506.8,10.3 505.5,7.5 505.4,7.5 505.4,10.3 505.3,10.3 505.3,7.4 505.6,7.4 506.9,10.2 507,10.2 
			507,7.4 507.2,7.4 507.2,10.3 		"/>
		<polygon fill="#FF5748" points="510.1,10.3 510.1,7.4 510.3,7.4 510.3,10.2 511.7,10.2 511.7,10.3 		"/>
		<rect x="512.8" y="7.4" fill="#FF5748" width="0.2" height="3"/>
		<path fill="#FF5748" d="M516.2,10l-0.3,0.3l-0.2,0.1h-0.9l-0.2-0.1c-0.1-0.1-0.3-0.3-0.4-0.4l0.2-0.1c0.1,0.1,0.2,0.3,0.3,0.4h0.1
			h0.8h0.1c0.1-0.1,0.3-0.2,0.3-0.3V9.8V9.4c0-0.1,0-0.2-0.2-0.3l-1.3-0.4c-0.2,0-0.3-0.2-0.3-0.4V8V7.8l0.3-0.3l0.2-0.1h0.8
			l0.2,0.1c0.2,0.1,0.3,0.3,0.4,0.4L515.9,8c-0.1-0.1-0.2-0.3-0.3-0.4h-0.1h-0.7h-0.1c-0.1,0-0.3,0.2-0.3,0.3V8v0.3
			c0,0.1,0,0.2,0.2,0.3L516,9c0.2,0,0.3,0.2,0.3,0.4v0.4L516.2,10z"/>
		<polygon fill="#FF5748" points="518.3,7.5 518.3,10.3 518.1,10.3 518.1,7.5 517.3,7.5 517.3,7.4 519.2,7.4 519.2,7.5 		"/>
		<path fill="#FF5748" d="M523.7,8.6l-0.2,0.3C523.4,9,523.3,9,523.2,9h-0.1l0.8,1.4h-0.2L522.9,9h-0.8v1.3h-0.2v-3h1.3
			c0.1,0,0.2,0,0.3,0.1l0.2,0.3l0.1,0.2v0.4L523.7,8.6z M523.6,8L523.6,8c0-0.2-0.2-0.3-0.3-0.4h-0.1h-1.1v1.2h1.1h0.1
			c0.1,0,0.2-0.2,0.3-0.3V8.4V8z"/>
		<polygon fill="#FF5748" points="525.1,10.3 525.1,7.4 526.8,7.4 526.8,7.5 525.3,7.5 525.3,8.7 526.7,8.7 526.7,8.9 525.3,8.9 
			525.3,10.2 526.8,10.2 526.8,10.3 		"/>
		<polygon fill="#FF5748" points="528.9,7.5 528.9,10.3 528.7,10.3 528.7,7.5 527.8,7.5 527.8,7.4 529.7,7.4 529.7,7.5 		"/>
		<path fill="#FF5748" d="M532.7,10l-0.4,0.3l-0.2,0.1h-0.7l-0.2-0.1l-0.3-0.3l-0.1-0.2V7.4h0.2v2.4v0.1c0.1,0.1,0.2,0.3,0.3,0.3
			h0.1h0.7h0.1c0.1-0.1,0.3-0.2,0.3-0.3V9.8V7.4h0.2v2.4L532.7,10z"/>
		<path fill="#FF5748" d="M535.8,8.6l-0.2,0.3C535.5,9,535.4,9,535.3,9h-0.1l0.8,1.4h-0.2L535,9h-0.8v1.3H534v-3h1.3
			c0.1,0,0.2,0,0.3,0.1l0.2,0.3l0.1,0.2v0.4L535.8,8.6z M535.7,8L535.7,8c0-0.2-0.2-0.3-0.3-0.4h-0.1h-1.1v1.2h1.1h0.1
			c0.1,0,0.2-0.2,0.3-0.3V8.4V8z"/>
		<polygon fill="#FF5748" points="538.7,10.3 537.4,7.5 537.4,7.5 537.4,10.3 537.2,10.3 537.2,7.4 537.5,7.4 538.9,10.2 
			538.9,10.2 538.9,7.4 539.1,7.4 539.1,10.3 		"/>
		<path fill="#FF5748" d="M542,7.7l0.2-0.3c0.1-0.1,0.2-0.1,0.3-0.1h0.7c0.1,0,0.2,0,0.3,0.1l0.2,0.3l0.1,0.2v1.9l-0.1,0.2l-0.3,0.3
			c-0.1,0.1-0.2,0.1-0.3,0.1h-0.6l-0.2-0.1c-0.1-0.1-0.3-0.3-0.4-0.4l0.2-0.1c0.1,0.1,0.2,0.3,0.3,0.4h0.1h0.6h0.1
			c0.1,0,0.2-0.2,0.3-0.3V9.8v-1c-0.1,0.1-0.2,0.2-0.3,0.3L543,9.2h-0.6c-0.1,0-0.2,0-0.3-0.1l-0.2-0.3l-0.1-0.2V7.9L542,7.7z
			 M542.1,8.6L542.1,8.6c0.1,0.2,0.2,0.3,0.3,0.4h0.1h0.6h0.1c0.1-0.1,0.2-0.2,0.3-0.3V8.6V7.9V7.8c-0.1-0.1-0.2-0.2-0.3-0.3h-0.1
			h-0.7h-0.1c-0.1,0.1-0.2,0.2-0.3,0.3v0.1v0.7C542,8.6,542.1,8.6,542.1,8.6z"/>
		<path fill="#FF5748" d="M546.7,10l-0.3,0.3c-0.1,0-0.2,0.1-0.2,0.1h-0.7c-0.1,0-0.2,0-0.3-0.1L545,10l-0.1-0.2V7.9l0.1-0.2
			l0.2-0.3c0.1-0.1,0.2-0.1,0.3-0.1h0.7c0.1,0,0.2,0,0.3,0.1l0.2,0.3l0.1,0.2v1.9L546.7,10z M546.5,7.9L546.5,7.9
			c0-0.2-0.2-0.3-0.3-0.4h-0.1h-0.7h-0.1c-0.1,0-0.2,0.2-0.3,0.3v0.1v1.9v0.1c0.1,0.1,0.2,0.2,0.3,0.3h0.1h0.7h0.1
			c0.1,0,0.2-0.2,0.3-0.3V9.8V7.9z"/>
		<path fill="#FF5748" d="M548,7.7l0.2-0.3c0.1-0.1,0.2-0.1,0.3-0.1h0.7c0.1,0,0.2,0,0.3,0.1l0.2,0.3l0.1,0.2v1.9l-0.1,0.2l-0.3,0.3
			c-0.1,0.1-0.2,0.1-0.3,0.1h-0.6l-0.2-0.1c-0.1-0.1-0.3-0.3-0.4-0.4l0.2-0.1c0.1,0.1,0.2,0.3,0.3,0.4h0.1h0.6h0.1
			c0.1,0,0.2-0.2,0.2-0.3V9.8v-1c-0.1,0.1-0.2,0.2-0.3,0.3l-0.2,0.1h-0.6c-0.1,0-0.2,0-0.3-0.1l-0.2-0.3l-0.1-0.2V7.9L548,7.7z
			 M548.1,8.6L548.1,8.6c0.1,0.2,0.2,0.3,0.3,0.4h0.1h0.6h0.1c0.1-0.1,0.2-0.2,0.3-0.3V8.6V7.9V7.8c0-0.1-0.2-0.2-0.3-0.3h-0.1h-0.7
			h-0.1c-0.1,0.1-0.2,0.2-0.3,0.3v0.1v0.7C548,8.6,548.1,8.6,548.1,8.6z"/>
		<polygon fill="#FF5748" points="551,10.3 551,10.2 551.7,10.2 551.7,7.5 551,7.5 551,7.4 551.9,7.4 551.9,10.2 552.6,10.2 
			552.6,10.3 		"/>
		<polygon fill="#FF5748" points="554.3,10.3 554.1,10.3 555.4,7.5 553.9,7.5 553.9,7.4 555.6,7.4 555.6,7.5 		"/>
		<path fill="#FF5748" d="M558.5,10l-0.2,0.3c-0.1,0.1-0.2,0.1-0.3,0.1h-0.7c-0.1,0-0.2,0-0.3-0.1l-0.2-0.3l-0.1-0.2V9.3l0.1-0.2
			c0,0,0.1-0.1,0.2-0.2c-0.1-0.1-0.2-0.2-0.2-0.3V8.3V7.9l0.1-0.2l0.2-0.3c0.1-0.1,0.2-0.1,0.3-0.1h0.7c0.1,0,0.2,0,0.3,0.1l0.2,0.3
			l0.1,0.2v0.4l-0.1,0.2c0,0-0.1,0.2-0.2,0.3c0.1,0.1,0.2,0.2,0.2,0.2l0.1,0.2v0.5L558.5,10z M558.4,7.9L558.4,7.9
			c-0.1-0.2-0.2-0.3-0.3-0.4H558h-0.7h-0.1c-0.1,0.1-0.2,0.2-0.3,0.3v0.1v0.4v0.1c0.1,0.1,0.2,0.2,0.3,0.3h0.1h0.7h0.1
			c0.1,0,0.2-0.2,0.3-0.3V8.3V7.9z M558.4,9.3L558.4,9.3c-0.1-0.2-0.2-0.3-0.3-0.4H558h-0.7h-0.1c-0.1,0-0.2,0.2-0.3,0.3v0.1v0.5
			v0.1c0.1,0.1,0.2,0.2,0.3,0.3h0.1h0.7h0.1c0.1,0,0.2-0.2,0.3-0.3V9.8V9.3z"/>
		<path fill="#FF5748" d="M561.3,8.7l-1.1,0.6c-0.1,0.1-0.2,0.2-0.2,0.3v0.6h1.5v0.1h-1.7V9.6c0-0.2,0.1-0.3,0.3-0.4l1.1-0.6
			c0.1-0.1,0.2-0.2,0.2-0.3V7.9V7.8c-0.1-0.1-0.2-0.2-0.3-0.3H561h-0.6h-0.1c-0.1,0.1-0.3,0.2-0.3,0.4l-0.2-0.1
			c0.1-0.2,0.2-0.3,0.4-0.4l0.2-0.1h0.6c0.1,0,0.2,0,0.3,0.1l0.2,0.3l0.1,0.2v0.4C561.6,8.5,561.5,8.6,561.3,8.7z"/>
	</g>
	<rect x="4" y="4.3" fill="#FF5748" width="9.1" height="9.1"/>
</g>
</svg>
