<?xml version="1.0" encoding="utf-8"?>
<!-- Generator: Adobe Illustrator 27.7.0, SVG Export Plug-In . SVG Version: 6.00 Build 0)  -->
<svg version="1.1" baseProfile="tiny" id="Layer_1" xmlns="http://www.w3.org/2000/svg" xmlns:xlink="http://www.w3.org/1999/xlink"
	 x="0px" y="0px" viewBox="0 0 113 84" overflow="visible" xml:space="preserve">
<g>
	<path fill="#FF5748" d="M80.7,26.2L66.7,12.3H46.3L32.3,26.2c-2.4,2.4-2.4,6.2,0,8.5l5.5,5.5C39,41.4,40.4,42,42,42h0.3
		c1.6,0,3.2-0.7,4.3-1.9l6.2-6.8c2.1-2.3,5.7-2.3,7.8,0l6.2,6.8c1.1,1.2,2.7,1.9,4.3,1.9h0c1.5,0,3-0.6,4.1-1.7l5.5-5.5
		C83,32.4,83,28.6,80.7,26.2z"/>
	<path fill="#FF5748" d="M58.5,1.9c-1-1.1-2.8-1.1-3.8,0L49.2,8h14.9L58.5,1.9z"/>
</g>
</svg>
