<?xml version="1.0" encoding="utf-8"?>
<!-- Generator: Adobe Illustrator 27.7.0, SVG Export Plug-In . SVG Version: 6.00 Build 0)  -->
<svg version="1.1" baseProfile="tiny" id="Layer_1" xmlns="http://www.w3.org/2000/svg" xmlns:xlink="http://www.w3.org/1999/xlink"
	 x="0px" y="0px" viewBox="0 0 8 147.7" overflow="visible" xml:space="preserve">
<path fill="none" stroke="#FF5748" stroke-width="2" stroke-miterlimit="10" d="M6.8,0v6.8H0V4.2C1.7,2.6,2.6,1.6,4.2,0H6.8z"/>
<path fill="none" stroke="#160604" stroke-width="2" stroke-miterlimit="10" d="M8,147.2H6c-2.3-2.3-3.7-3.7-6-6V29.3"/>
<line fill="none" stroke="#FF5748" stroke-width="2" stroke-miterlimit="10" x1="0" y1="27.9" x2="0" y2="10.5"/>
<line fill="none" stroke="#160604" stroke-width="2" stroke-miterlimit="10" x1="5" y1="10.5" x2="5" y2="109.1"/>
<path fill="none" stroke="#160604" stroke-width="2" stroke-miterlimit="10" d="M5,134.6v6"/>
<path fill="#FF5748" d="M6,132.7L6,132.7c0,0.5-0.4,1-1,1h0c-0.5,0-1-0.4-1-1l0,0c0-0.5,0.4-1,1-1h0C5.5,131.7,6,132.1,6,132.7z"/>
<path fill="#FF5748" d="M6,123L6,123c0,0.5-0.4,1-1,1h0c-0.5,0-1-0.4-1-1l0,0c0-0.5,0.4-1,1-1h0C5.5,122,6,122.4,6,123z"/>
<line fill="none" stroke="#160604" stroke-width="2" stroke-miterlimit="10" x1="5" y1="130.6" x2="5" y2="125"/>
<line fill="none" stroke="#160604" stroke-width="2" stroke-miterlimit="10" x1="5" y1="121.1" x2="5" y2="115.4"/>
</svg>
