<?xml version="1.0" encoding="utf-8"?>
<!-- Generator: Adobe Illustrator 27.8.0, SVG Export Plug-In . SVG Version: 6.00 Build 0)  -->
<svg version="1.1" baseProfile="tiny" id="Layer_1" xmlns="http://www.w3.org/2000/svg" xmlns:xlink="http://www.w3.org/1999/xlink"
	 x="0px" y="0px" viewBox="0 0 178.1 219.5" overflow="visible" xml:space="preserve">
<polygon fill="#FFFFFF" points="120.5,50.6 126.6,69.4 146.4,69.4 130.4,81.1 136.5,99.9 120.5,88.3 104.5,99.9 110.6,81.1 
	94.5,69.4 114.4,69.4 "/>
<polygon fill="#FFFFFF" points="57.6,50.6 63.7,69.4 83.6,69.4 67.5,81.1 73.6,99.9 57.6,88.3 41.6,99.9 47.7,81.1 31.7,69.4 
	51.5,69.4 "/>
<polygon fill="#FFFFFF" points="89.1,108.2 95.2,127.1 115,127.1 99,138.7 105.1,157.6 89.1,145.9 73,157.6 79.1,138.7 63.1,127.1 
	82.9,127.1 "/>
</svg>
