<?xml version="1.0" encoding="utf-8"?>
<!-- Generator: Adobe Illustrator 27.8.0, SVG Export Plug-In . SVG Version: 6.00 Build 0)  -->
<svg version="1.1" baseProfile="tiny" id="Layer_1" xmlns="http://www.w3.org/2000/svg" xmlns:xlink="http://www.w3.org/1999/xlink"
	 x="0px" y="0px" viewBox="0 0 178.1 219.5" overflow="visible" xml:space="preserve">
<path fill="#FFFFFF" d="M89.1,7.9c0.6,0,1.2,0.1,1.8,0.3l74.6,21.5c2.8,0.8,4.7,3.4,4.7,6.3v54.9c0,38.2-18.4,74.5-49.2,97.1
	l-32,23.5L57,188C26.3,165.3,7.9,129,7.9,90.8V36c0-2.9,1.9-5.5,4.7-6.3L87.3,8.1C87.8,8,88.5,7.9,89.1,7.9 M89.1,0
	c-1.3,0-2.7,0.2-4,0.6L10.4,22.1C4.2,23.9,0,29.5,0,36v54.9c0,40.9,19.5,79.3,52.4,103.4L85,218.2c1.2,0.9,2.6,1.3,4,1.3
	s2.8-0.4,4-1.3l32.6-23.9c32.9-24.2,52.4-62.6,52.4-103.4V36c0-6.4-4.2-12.1-10.4-13.8L93.1,0.6C91.8,0.2,90.4,0,89.1,0L89.1,0z"/>
</svg>
