<?xml version="1.0" encoding="utf-8"?>
<!-- Generator: Adobe Illustrator 27.8.0, SVG Export Plug-In . SVG Version: 6.00 Build 0)  -->
<svg version="1.1" baseProfile="tiny" id="Layer_1" xmlns="http://www.w3.org/2000/svg" xmlns:xlink="http://www.w3.org/1999/xlink"
	 x="0px" y="0px" viewBox="0 0 178.1 219.5" overflow="visible" xml:space="preserve">
<polygon fill="#FFFFFF" points="89.1,130.8 94.7,148.3 113.1,148.3 98.2,159.1 103.9,176.5 89.1,165.7 74.2,176.5 79.9,159.1 
	65,148.3 83.4,148.3 "/>
<polygon fill="#FFFFFF" points="118.2,38.8 123.9,56.2 142.2,56.2 127.4,67 133.1,84.5 118.2,73.7 103.3,84.5 109,67 94.2,56.2 
	112.5,56.2 "/>
<polygon fill="#FFFFFF" points="59.9,38.8 65.6,56.2 83.9,56.2 69.1,67 74.8,84.5 59.9,73.7 45,84.5 50.7,67 35.9,56.2 54.2,56.2 
	"/>
<polygon fill="#FFFFFF" points="118.2,86.1 123.9,103.6 142.2,103.6 127.4,114.4 133.1,131.8 118.2,121 103.3,131.8 109,114.4 
	94.2,103.6 112.5,103.6 "/>
<polygon fill="#FFFFFF" points="59.9,86.1 65.6,103.6 83.9,103.6 69.1,114.4 74.8,131.8 59.9,121 45,131.8 50.7,114.4 35.9,103.6 
	54.2,103.6 "/>
</svg>
