<?xml version="1.0" encoding="utf-8"?>
<!-- Generator: Adobe Illustrator 25.1.0, SVG Export Plug-In . SVG Version: 6.00 Build 0)  -->
<svg version="1.1" baseProfile="tiny" xmlns="http://www.w3.org/2000/svg" xmlns:xlink="http://www.w3.org/1999/xlink" x="0px"
	 y="0px" viewBox="0 0 16 16" overflow="visible" xml:space="preserve">
<g id="BG_x5F_MAKE_x5F_ICONS_x5F_VISIBLE" display="none">
	<rect display="inline" fill="#0071BC" width="16" height="16"/>
</g>
<g id="Will_Plate">
</g>
<g id="Shields">
</g>
<g id="Grids" display="none">
</g>
<g id="BuildingBlocks_x5F_Style">
	<g id="Detail">
	</g>
	<g>
		<g>
			<rect x="7.6" y="11.6" fill="#FFFFFF" width="1" height="1"/>
			<rect x="6.6" y="10.6" fill="#FFFFFF" width="1" height="1"/>
			<rect x="5.6" y="9.6" fill="#FFFFFF" width="1" height="1"/>
			<rect x="4.6" y="8.6" fill="#FFFFFF" width="1" height="1"/>
			<rect x="3.6" y="7.6" fill="#FFFFFF" width="1" height="1"/>
			<rect x="11.6" y="7.6" fill="#FFFFFF" width="1" height="1"/>
			<rect x="10.6" y="8.6" fill="#FFFFFF" width="1" height="1"/>
			<rect x="9.6" y="9.6" fill="#FFFFFF" width="1" height="1"/>
			<rect x="8.6" y="10.6" fill="#FFFFFF" width="1" height="1"/>
		</g>
		<rect x="7.6" y="7.6" fill="#FFFFFF" width="1" height="1"/>
		<rect x="7.6" y="10.6" fill="#FFFFFF" width="1" height="1"/>
		<rect x="7.6" y="8.6" fill="#FFFFFF" width="1" height="1"/>
		<rect x="7.6" y="9.6" fill="#FFFFFF" width="1" height="1"/>
		<rect x="7.6" y="6.6" fill="#FFFFFF" width="1" height="1"/>
		<rect x="7.6" y="5.6" fill="#FFFFFF" width="1" height="1"/>
		<rect x="7.6" y="4.6" fill="#FFFFFF" width="1" height="1"/>
		<rect x="7.6" y="3.6" fill="#FFFFFF" width="1" height="1"/>
	</g>
</g>
<g id="TEXT_x5F_INFO">
</g>
</svg>
