<?xml version="1.0" encoding="utf-8"?>
<!-- Generator: Adobe Illustrator 25.4.1, SVG Export Plug-In . SVG Version: 6.00 Build 0)  -->
<svg version="1.1" baseProfile="tiny" id="Layer_1" xmlns="http://www.w3.org/2000/svg" xmlns:xlink="http://www.w3.org/1999/xlink"
	 x="0px" y="0px" viewBox="0 0 40 40" overflow="visible" xml:space="preserve">
<g id="BG_x5F_MAKE_x5F_ICONS_x5F_VISIBLE" display="none">
	<rect display="inline" fill="#0071BC" width="40" height="40"/>
</g>
<g id="Will_Plate">
</g>
<g id="Shields">
</g>
<g id="Grids" display="none">
</g>
<g id="BuildingBlocks_x5F_Style">
	<g id="Detail">
	</g>
	<path fill="#FF0000" d="M35.7,30.6L22.1,7.2c-0.5-0.8-1.4-1.3-2.4-1.2c-0.9,0.1-1.6,0.7-2,1.4L4.3,30.6c-0.5,0.9-0.4,2,0.2,2.8
		c0.5,0.7,1.3,1,2.2,1h26.6c0.9,0,1.7-0.3,2.2-1C36.1,32.6,36.2,31.5,35.7,30.6z M20.1,9.7l12.4,21.5c0.1,0.1,0,0.2-0.1,0.2H7.6
		c-0.1,0-0.2-0.1-0.1-0.2L19.9,9.7C19.9,9.6,20.1,9.6,20.1,9.7z"/>
	<path fill="#FF0000" d="M21.5,18.9v9c0,0.8-0.7,1.5-1.5,1.5l0,0c-0.8,0-1.5-0.7-1.5-1.5v-9c0-0.8,0.7-1.5,1.5-1.5l0,0
		C20.8,17.4,21.5,18.1,21.5,18.9z"/>
</g>
<g id="TEXT_x5F_INFO">
</g>
</svg>
