<?xml version="1.0" encoding="utf-8"?>
<!-- Generator: Adobe Illustrator 27.0.0, SVG Export Plug-In . SVG Version: 6.00 Build 0)  -->
<svg version="1.1" baseProfile="tiny" id="Layer_1" xmlns="http://www.w3.org/2000/svg" xmlns:xlink="http://www.w3.org/1999/xlink"
	 x="0px" y="0px" viewBox="0 0 75.1 90.1" overflow="visible" xml:space="preserve">
<path id="biometric_thumb_00000070116690868961671860000007423092788077129358_" fill="none" stroke="#000000" stroke-width="2" stroke-miterlimit="10" d="
	M72.2,61.2c1.9-11.5,2-22.9,1.9-25.8C73.9,16.5,58.2,1,39.2,1h-0.2C19.8,1.2,4.3,16.9,4.5,36.1c0,6.9-0.8,13.2-1,14.4
	c-0.7,2.1-1.6,4.1-2.6,6.1 M69.1,73.4c1-2.9,1.8-6.1,2.5-9.3 M13.2,20c-2.9,4.7-4.5,10.2-4.4,16c0.1,7.5-0.9,14.5-1.2,15.7
	c-1.3,3.7-3,7.3-4.8,10.5 M68.2,26.2c-4.1-12.1-15.5-20.9-29-20.9H39c-9.7,0.1-18.3,4.7-23.8,11.9 M61.1,81.8
	c1.4-3.1,2.7-6.4,3.9-9.7c4.7-13.4,4.7-32.8,4.7-36.6c0-2.3-0.3-4.5-0.8-6.6 M11.5,53.8C9.7,58.6,7.4,63.2,5,67.2 M35.7,10
	C22.9,11.7,13.1,22.8,13.2,36c0,5.5-0.4,11.1-0.9,14.5 M64.9,49.2c0.5-6.5,0.5-11.9,0.5-13.7C65.3,21.3,53.6,9.7,39.3,9.7h-0.2
	c-0.2,0-0.4,0-0.7,0 M54.2,86.1c2.5-4.8,4.8-10,6.8-15.5c2-5.6,3.1-12.4,3.7-18.5 M19.2,27.4c-1.1,2.7-1.7,5.5-1.7,8.6
	c0.1,7.2-0.8,15.9-1.8,18.7c-2.2,6.2-5.2,11.9-8.3,16.7 M50,16.9c-3.2-1.8-6.8-2.8-10.7-2.8h-0.2c-7.7,0.1-14.5,4.2-18.3,10.3
	 M48,88.5c3.3-5.8,6.4-12.3,8.8-19.3c4.2-12,4.3-30,4.2-33.5c-0.1-7-3.5-13.2-8.6-17.1 M15.7,65.9c-1.7,3.4-3.6,6.5-5.4,9.3
	 M51.4,71.2c0.4-1.1,0.9-2.3,1.3-3.5c4-11.3,4-28.7,4-32.1c-0.1-9.5-7.9-17.2-17.4-17.2h-0.2c-9.6,0.1-17.3,8-17.2,17.5
	c0,6.8-0.7,16.4-2,20.1c-0.8,2.4-1.8,4.7-2.8,6.9 M42.4,89.5c2.8-4.7,5.5-9.9,7.9-15.5 M30.7,26.1c-2.7,2.4-4.4,6-4.4,9.9
	c0,5.8-0.5,16.8-2.3,21.6c-2.8,8-6.9,15.2-10.7,21 M52.4,35.7c-0.1-7.1-5.9-12.9-13.1-12.9h-0.1c-2.1,0-4,0.5-5.8,1.4 M37.2,89.6
	C41.4,83,45.5,75,48.6,66.3c3.1-8.7,3.7-21.6,3.7-27.7 M47.3,51.2c0.8-7.4,0.8-14.3,0.8-15.4c0-4.7-3.9-8.6-8.7-8.6h-0.1
	c-4.8,0-8.6,4-8.6,8.8c0,4.3-0.3,17-2.5,23.1c-3.1,8.6-7.4,16.3-11.6,22.4 M32.4,89c4.3-6.7,8.8-15,12.1-24.2
	c1.1-3.1,1.8-6.7,2.3-10.5 M31.7,61.8C28.6,70.3,24.2,78,20.1,84 M28,87.8c4.4-6.7,9-15,12.4-24.5c3.4-9.6,3.3-26.9,3.3-27.6
	c0-2.4-2-4.3-4.4-4.3h0c-2.4,0-4.3,2-4.3,4.4c0,0.2,0.1,14.4-2.2,22.8 M23.9,86.1c1.2-1.7,2.3-3.6,3.5-5.5 M29,77.8
	c2.7-4.8,5.2-10.1,7.3-15.9c3.2-9,3-26.1,3-26.1s0.2,17.1-3,26.1"/>
</svg>
