<?xml version="1.0" encoding="utf-8"?>
<!-- Generator: Adobe Illustrator 27.1.0, SVG Export Plug-In . SVG Version: 6.00 Build 0)  -->
<svg version="1.1" baseProfile="tiny" id="Layer_1" xmlns="http://www.w3.org/2000/svg" xmlns:xlink="http://www.w3.org/1999/xlink"
	 x="0px" y="0px" viewBox="0 0 260.4 39.9" overflow="visible" xml:space="preserve">
<g>
	<g>
		<path fill="#CD912A" d="M1.2,2.5h21.6c0.7,0,1.2-0.6,1.2-1.2S24.7,0,25.4,0h6.9c6.7,0,13,2,19.3,6l36.6,21.8
			c3.3,4.7,7.4,8.8,12.3,12.1c-1.6-0.7-3.1-1.6-4.8-2.7L48.4,9c-5-3.1-10.6-4.6-16.1-4.6H0V3.7C0,3,0.6,2.5,1.2,2.5z"/>
	</g>
	<g>
		<path fill="#CD912A" d="M259.2,2.5h-21.6c-0.7,0-1.2-0.6-1.2-1.2S235.8,0,235.1,0h-6.9c-6.7,0-13,2-19.3,6l-36.6,21.8
			c-3.3,4.7-7.4,8.8-12.3,12.1c1.6-0.7,3.1-1.6,4.8-2.7L212.1,9c5-3.1,10.6-4.6,16.1-4.6h32.3V3.7C260.4,3,259.9,2.5,259.2,2.5z"/>
	</g>
</g>
</svg>
