<?xml version="1.0" encoding="utf-8"?>
<!-- Generator: Adobe Illustrator 27.1.0, SVG Export Plug-In . SVG Version: 6.00 Build 0)  -->
<svg version="1.1" baseProfile="tiny" id="Layer_1" xmlns="http://www.w3.org/2000/svg" xmlns:xlink="http://www.w3.org/1999/xlink"
	 x="0px" y="0px" viewBox="0 0 640 640" overflow="visible" xml:space="preserve">
<g>
	<path fill="#5DC9E6" d="M571.9,259.2c4.2,0,8.2,2,10.7,5.4l30.1,40.9c6.4,8.8,6.3,20.8-0.4,29.4L580,376.5
		c-2.5,3.3-6.4,5.1-10.5,5.1H67.6c-4.2,0-8.2-2-10.7-5.4l-30.1-40.9c-6.4-8.8-6.3-20.8,0.4-29.4l32.4-41.6c2.5-3.3,6.4-5.1,10.5-5.1
		H571.9 M571.9,257.2H70.1c-4.7,0-9.2,2.2-12.1,5.9l-32.4,41.6c-7.3,9.3-7.4,22.3-0.4,31.8l30.1,40.9c2.9,3.9,7.5,6.2,12.3,6.2
		h501.9c4.7,0,9.2-2.2,12.1-5.9l32.4-41.6c7.3-9.3,7.4-22.3,0.4-31.8l-30.1-40.9C581.4,259.5,576.8,257.2,571.9,257.2L571.9,257.2z"
		/>
</g>
</svg>
