<?xml version="1.0" encoding="utf-8"?>
<!-- Generator: Adobe Illustrator 27.2.0, SVG Export Plug-In . SVG Version: 6.00 Build 0)  -->
<svg version="1.1" baseProfile="tiny" id="Layer_1" xmlns="http://www.w3.org/2000/svg" xmlns:xlink="http://www.w3.org/1999/xlink"
	 x="0px" y="0px" viewBox="0 0 616.7 140.6" overflow="visible" xml:space="preserve">
<path id="opacity:30" fill="#F79431" d="M546.3,1.5H19.5c-10,0-18,8.1-18,18v50.8v50.8c0,10,8.1,18,18,18h526.8
	c4.8,0,9.4-1.9,12.7-5.3l50.8-50.8c7-7,7-18.4,0-25.5L559.1,6.8C555.7,3.4,551.1,1.5,546.3,1.5z"/>
<path id="opacity:100_00000078727100951919116360000005133511675946765446_" fill="none" stroke="#F79431" stroke-width="3" stroke-miterlimit="10" d="
	M546.3,1.5H19.5c-10,0-18,8.1-18,18v50.8v50.8c0,10,8.1,18,18,18h526.8c4.8,0,9.4-1.9,12.7-5.3l50.8-50.8c7-7,7-18.4,0-25.5
	L559.1,6.8C555.7,3.4,551.1,1.5,546.3,1.5z"/>
</svg>
