<?xml version="1.0" encoding="utf-8"?>
<!-- Generator: Adobe Illustrator 27.0.0, SVG Export Plug-In . SVG Version: 6.00 Build 0)  -->
<svg version="1.1" baseProfile="tiny" id="Layer_1" xmlns="http://www.w3.org/2000/svg" xmlns:xlink="http://www.w3.org/1999/xlink"
	 x="0px" y="0px" viewBox="0 0 42.9 42.7" overflow="visible" xml:space="preserve">
<path fill="#2AA8E0" d="M2.6,39.9c-3.5-3.6-3.5-9.2,0.2-12.9c2.1-2.1,4.9-2.8,7.5-2.8C16,24,23.8,16.1,24.2,10.2
	c0.2-2.6,0.7-5.5,2.8-7.4c3.6-3.5,9.6-3.7,13.1,0.2c3.8,3.6,3.7,9.6-0.2,13.2c-2,1.9-4.6,2.5-7.3,2.6c-6.5,0.1-14.4,8.6-14.2,13.6
	c0.1,2.5-0.6,5.6-2.6,7.8C12.3,43.7,6,43.4,2.6,39.9z"/>
<path fill="#8FC84C" d="M33.3,23.2c5.2,0,9.6,4.4,9.6,9.6c0,5.5-4.4,9.9-9.6,9.9c-5.5,0-9.9-4.4-9.9-9.9
	C23.4,27.6,27.8,23.2,33.3,23.2z"/>
<path fill="#8FC84C" d="M10,0c5.2,0,9.6,4.4,9.6,9.6c0,5.5-4.4,9.9-9.6,9.9c-5.5,0-9.9-4.4-9.9-9.9C0.1,4.4,4.5,0,10,0z"/>
</svg>
