<?xml version="1.0" encoding="utf-8"?>
<!-- Generator: Adobe Illustrator 27.0.0, SVG Export Plug-In . SVG Version: 6.00 Build 0)  -->
<svg version="1.1" baseProfile="tiny" id="Layer_1" xmlns="http://www.w3.org/2000/svg" xmlns:xlink="http://www.w3.org/1999/xlink"
	 x="0px" y="0px" viewBox="0 0 20.3 19.6" overflow="visible" xml:space="preserve">
<path d="M9.8,19.6c-0.1,0-0.2,0-0.3-0.1l-9.3-6.5C0.1,13,0,12.8,0,12.7V0.5C0,0.2,0.2,0,0.5,0h14.8c0.3,0,0.5,0.2,0.5,0.5v10
	c0,0.2-0.1,0.3-0.2,0.4l-5.5,3.5c-0.2,0.1-0.4,0.1-0.6,0L4.6,11c-0.1-0.1-0.2-0.2-0.2-0.4L4.3,5.4c0-0.3,0.2-0.5,0.5-0.5
	c0,0,0,0,0,0c0.3,0,0.5,0.2,0.5,0.5l0.1,4.9l4.5,3.2l5-3.2V1H1v11.4l8.8,6.1l9.4-6.1V0.5c0-0.3,0.2-0.5,0.5-0.5s0.5,0.2,0.5,0.5
	v12.2c0,0.2-0.1,0.3-0.2,0.4l-9.9,6.5C10,19.6,9.9,19.6,9.8,19.6z"/>
</svg>
