<?xml version="1.0" encoding="utf-8"?>
<!-- Generator: Adobe Illustrator 27.0.0, SVG Export Plug-In . SVG Version: 6.00 Build 0)  -->
<svg version="1.1" baseProfile="tiny" id="Layer_1" xmlns="http://www.w3.org/2000/svg" xmlns:xlink="http://www.w3.org/1999/xlink"
	 x="0px" y="0px" viewBox="0 0 37.2 37" overflow="visible" xml:space="preserve">
<g>
	<path fill="#C4C6C8" d="M2.3,34.7c-3-3.1-3.1-8,0.1-11.2c1.8-1.8,4.3-2.4,6.5-2.5c4.9-0.1,11.7-7,12.1-12.1
		c0.2-2.3,0.6-4.8,2.4-6.5c3.1-3.1,8.3-3.2,11.4,0.1c3.3,3.1,3.2,8.4-0.1,11.4c-1.8,1.6-4,2.2-6.3,2.2c-5.7,0.1-12.5,7.5-12.3,11.8
		c0.1,2.1-0.5,4.9-2.2,6.8C10.7,37.9,5.2,37.7,2.3,34.7z"/>
	<path fill="#FFFFFF" d="M28.9,20.1c4.5,0,8.3,3.8,8.3,8.3c0,4.8-3.8,8.6-8.3,8.6c-4.8,0-8.6-3.8-8.6-8.6
		C20.3,23.9,24.1,20.1,28.9,20.1z"/>
	<path fill="#FFFFFF" d="M8.6,0C13.2,0,17,3.8,17,8.3c0,4.8-3.8,8.6-8.3,8.6c-4.8,0-8.6-3.8-8.6-8.6C0.1,3.8,3.9,0,8.6,0z"/>
</g>
</svg>
