<?xml version="1.0" encoding="utf-8"?>
<!-- Generator: Adobe Illustrator 27.0.0, SVG Export Plug-In . SVG Version: 6.00 Build 0)  -->
<svg version="1.1" baseProfile="tiny" id="Layer_1" xmlns="http://www.w3.org/2000/svg" xmlns:xlink="http://www.w3.org/1999/xlink"
	 x="0px" y="0px" viewBox="0 0 57.5 41.6" overflow="visible" xml:space="preserve">
<path d="M52.1,41.6H5.2c-2.9,0-5.2-2.3-5.2-5.2V5.2C0,2.3,2.3,0,5.2,0h46c1,0,1.8,0.8,1.8,1.8s-0.8,1.8-1.8,1.8h-46
	c-0.9,0-1.7,0.8-1.7,1.7v31.1c0,0.9,0.8,1.7,1.7,1.7h46.8c0.9,0,1.7-0.8,1.7-1.7V15.2c0-1,0.8-1.8,1.8-1.8s1.8,0.8,1.8,1.8v21.1
	C57.3,39.2,54.9,41.6,52.1,41.6z M10.6,12.9h4.2c0.8,0,1.5-0.7,1.5-1.5v0c0-0.8-0.7-1.5-1.5-1.5h-4.2C9.7,9.9,9,10.6,9,11.4v0
	C9,12.3,9.7,12.9,10.6,12.9z M10.6,17.8h10.6c0.8,0,1.5-0.7,1.5-1.5v0c0-0.8-0.7-1.5-1.5-1.5H10.6c-0.8,0-1.5,0.7-1.5,1.5v0
	C9,17.2,9.7,17.8,10.6,17.8z M30.5,12.9h10.6c0.8,0,1.5-0.7,1.5-1.5v0c0-0.8-0.7-1.5-1.5-1.5H30.5c-0.8,0-1.5,0.7-1.5,1.5v0
	C29,12.3,29.7,12.9,30.5,12.9z M30.5,17.9h3.4c0.8,0,1.5-0.7,1.5-1.5v0c0-0.8-0.7-1.5-1.5-1.5h-3.4c-0.8,0-1.5,0.7-1.5,1.5v0
	C29,17.2,29.7,17.9,30.5,17.9z M53.8,5L39.4,19.2c-0.4,0.4-0.6,0.8-0.7,1.3l0,0.1c-0.3,1.5,1,2.7,2.5,2.3h0c0.4-0.1,0.9-0.3,1.2-0.7
	L56.8,8.1c0.9-0.9,1-2.3,0.2-3.2l0,0C56.1,4.1,54.7,4.1,53.8,5z M21.4,11.4L21.4,11.4c0-0.8-0.7-1.5-1.5-1.5h0
	c-0.8,0-1.5,0.7-1.5,1.5v0c0,0.8,0.7,1.5,1.5,1.5h0C20.7,12.9,21.4,12.3,21.4,11.4z M27.6,16.5L27.6,16.5c0-0.8-0.7-1.5-1.5-1.5h0
	c-0.8,0-1.5,0.7-1.5,1.5v0c0,0.8,0.7,1.5,1.5,1.5h0C26.9,18,27.6,17.3,27.6,16.5z M33.9,20.1H23.3c-0.8,0-1.5,0.7-1.5,1.5v0
	c0,0.8,0.7,1.5,1.5,1.5h10.6c0.8,0,1.5-0.7,1.5-1.5v0C35.4,20.8,34.7,20.1,33.9,20.1z M14,20h-3.4C9.7,20,9,20.7,9,21.6v0
	c0,0.8,0.7,1.5,1.5,1.5H14c0.8,0,1.5-0.7,1.5-1.5v0C15.5,20.7,14.8,20,14,20z M16.8,21.5L16.8,21.5c0,0.8,0.7,1.5,1.5,1.5h0
	c0.8,0,1.5-0.7,1.5-1.5v0c0-0.8-0.7-1.5-1.5-1.5h0C17.5,20,16.8,20.6,16.8,21.5z M26.5,11.4L26.5,11.4c0-0.8-0.7-1.5-1.5-1.5h0
	c-0.8,0-1.5,0.7-1.5,1.5v0c0,0.8,0.7,1.5,1.5,1.5h0C25.8,12.9,26.5,12.3,26.5,11.4z"/>
</svg>
