<?xml version="1.0" encoding="utf-8"?>
<!-- Generator: Adobe Illustrator 27.0.0, SVG Export Plug-In . SVG Version: 6.00 Build 0)  -->
<svg version="1.1" baseProfile="tiny" id="Layer_1" xmlns="http://www.w3.org/2000/svg" xmlns:xlink="http://www.w3.org/1999/xlink"
	 x="0px" y="0px" viewBox="0 0 54.5 47.9" overflow="visible" xml:space="preserve">
<path d="M51.4,11.4L29.7,0.6c-1.5-0.8-3.4-0.8-4.9,0L3.1,11.4c-1.9,0.9-3.1,2.8-3.1,5v25.9c0,3.1,2.5,5.5,5.5,5.5h29.4V44h0V19.9
	H19.5V44h-14c-1,0-1.8-0.8-1.8-1.8V16.3c0-0.7,0.4-1.3,1-1.6L26.5,4C27,3.7,27.5,3.7,28,4l21.7,10.8c0.6,0.3,1,0.9,1,1.6v31.6h3.8
	V16.3C54.5,14.2,53.3,12.3,51.4,11.4z"/>
</svg>
