<?xml version="1.0" encoding="utf-8"?>
<!-- Generator: Adobe Illustrator 30.0.0, SVG Export Plug-In . SVG Version: 9.03 Build 0)  -->
<svg version="1.1" baseProfile="tiny" id="Layer_1" xmlns="http://www.w3.org/2000/svg" xmlns:xlink="http://www.w3.org/1999/xlink"
	 x="0px" y="0px" viewBox="0 0 20.26 256" overflow="visible" xml:space="preserve">
<line fill="none" stroke="#E8E766" stroke-width="3" stroke-miterlimit="10" x1="16.68" y1="169.83" x2="2.93" y2="169.83"/>
<line fill="none" stroke="#E8E766" stroke-width="3" stroke-miterlimit="10" x1="16.68" y1="211.54" x2="2.93" y2="211.54"/>
<line fill="none" stroke="#E8E766" stroke-width="3" stroke-miterlimit="10" x1="16.68" y1="253.26" x2="2.93" y2="253.26"/>
<line fill="none" stroke="#E8E766" stroke-width="3" stroke-miterlimit="10" x1="16.68" y1="232.4" x2="8.91" y2="232.4"/>
<line fill="none" stroke="#E8E766" stroke-width="3" stroke-miterlimit="10" x1="16.68" y1="190.69" x2="8.91" y2="190.69"/>
<line fill="none" stroke="#E8E766" stroke-width="3" stroke-miterlimit="10" x1="16.68" y1="148.97" x2="8.91" y2="148.97"/>
<line fill="none" stroke="#E8E766" stroke-width="3" stroke-miterlimit="10" x1="15.89" y1="253.26" x2="15.89" y2="128.11"/>
<line fill="none" stroke="#E8E766" stroke-width="3" stroke-miterlimit="10" x1="16.68" y1="2.97" x2="2.93" y2="2.97"/>
<line fill="none" stroke="#E8E766" stroke-width="3" stroke-miterlimit="10" x1="16.68" y1="44.69" x2="2.93" y2="44.69"/>
<line fill="none" stroke="#E8E766" stroke-width="3" stroke-miterlimit="10" x1="16.68" y1="86.4" x2="2.93" y2="86.4"/>
<line fill="none" stroke="#E8E766" stroke-width="3" stroke-miterlimit="10" x1="16.68" y1="128.11" x2="2.93" y2="128.11"/>
<line fill="none" stroke="#E8E766" stroke-width="3" stroke-miterlimit="10" x1="16.68" y1="107.26" x2="8.91" y2="107.26"/>
<line fill="none" stroke="#E8E766" stroke-width="3" stroke-miterlimit="10" x1="16.68" y1="65.54" x2="8.91" y2="65.54"/>
<line fill="none" stroke="#E8E766" stroke-width="3" stroke-miterlimit="10" x1="16.68" y1="23.83" x2="8.91" y2="23.83"/>
<line fill="none" stroke="#E8E766" stroke-width="3" stroke-miterlimit="10" x1="15.89" y1="128.11" x2="15.89" y2="2.97"/>
</svg>
