<?xml version="1.0" encoding="utf-8"?>
<!-- Generator: Adobe Illustrator 27.2.0, SVG Export Plug-In . SVG Version: 6.00 Build 0)  -->
<svg version="1.1" baseProfile="tiny" xmlns="http://www.w3.org/2000/svg" xmlns:xlink="http://www.w3.org/1999/xlink" x="0px"
	 y="0px" viewBox="0 0 291.56 211.56" overflow="visible" xml:space="preserve">
<g id="Layer_1">
</g>
<g id="Layer_2">
	<g>
		<g>
			<g>
				<rect x="288" y="208" fill="#C9E7D9" width="3.56" height="3.56"/>
			</g>
			<g>
				<rect x="264" y="208" fill="#C9E7D9" width="3.56" height="3.56"/>
			</g>
			<g>
				<rect x="240" y="208" fill="#C9E7D9" width="3.56" height="3.56"/>
			</g>
			<g>
				<rect x="216" y="208" fill="#C9E7D9" width="3.56" height="3.56"/>
			</g>
			<g>
				<rect x="192" y="208" fill="#C9E7D9" width="3.56" height="3.56"/>
			</g>
			<g>
				<rect x="168" y="208" fill="#C9E7D9" width="3.56" height="3.56"/>
			</g>
			<g>
				<rect x="144" y="208" fill="#C9E7D9" width="3.56" height="3.56"/>
			</g>
			<g>
				<rect x="120" y="208" fill="#C9E7D9" width="3.56" height="3.56"/>
			</g>
			<g>
				<rect x="96" y="208" fill="#C9E7D9" width="3.56" height="3.56"/>
			</g>
			<g>
				<rect x="72" y="208" fill="#C9E7D9" width="3.56" height="3.56"/>
			</g>
			<g>
				<rect x="48" y="208" fill="#C9E7D9" width="3.56" height="3.56"/>
			</g>
			<g>
				<rect x="24" y="208" fill="#C9E7D9" width="3.56" height="3.56"/>
			</g>
			<g>
				<rect y="208" fill="#C9E7D9" width="3.56" height="3.56"/>
			</g>
		</g>
		<g>
			<g>
				<rect x="288" y="182" fill="#C9E7D9" width="3.56" height="3.56"/>
			</g>
			<g>
				<rect x="264" y="182" fill="#C9E7D9" width="3.56" height="3.56"/>
			</g>
			<g>
				<rect x="240" y="182" fill="#C9E7D9" width="3.56" height="3.56"/>
			</g>
			<g>
				<rect x="216" y="182" fill="#C9E7D9" width="3.56" height="3.56"/>
			</g>
			<g>
				<rect x="192" y="182" fill="#C9E7D9" width="3.56" height="3.56"/>
			</g>
			<g>
				<rect x="168" y="182" fill="#C9E7D9" width="3.56" height="3.56"/>
			</g>
			<g>
				<rect x="144" y="182" fill="#C9E7D9" width="3.56" height="3.56"/>
			</g>
			<g>
				<rect x="120" y="182" fill="#C9E7D9" width="3.56" height="3.56"/>
			</g>
			<g>
				<rect x="96" y="182" fill="#C9E7D9" width="3.56" height="3.56"/>
			</g>
			<g>
				<rect x="72" y="182" fill="#C9E7D9" width="3.56" height="3.56"/>
			</g>
			<g>
				<rect x="48" y="182" fill="#C9E7D9" width="3.56" height="3.56"/>
			</g>
			<g>
				<rect x="24" y="182" fill="#C9E7D9" width="3.56" height="3.56"/>
			</g>
			<g>
				<rect y="182" fill="#C9E7D9" width="3.56" height="3.56"/>
			</g>
		</g>
		<g>
			<g>
				<rect x="288" y="156" fill="#C9E7D9" width="3.56" height="3.56"/>
			</g>
			<g>
				<rect x="264" y="156" fill="#C9E7D9" width="3.56" height="3.56"/>
			</g>
			<g>
				<rect x="240" y="156" fill="#C9E7D9" width="3.56" height="3.56"/>
			</g>
			<g>
				<rect x="216" y="156" fill="#C9E7D9" width="3.56" height="3.56"/>
			</g>
			<g>
				<rect x="192" y="156" fill="#C9E7D9" width="3.56" height="3.56"/>
			</g>
			<g>
				<rect x="168" y="156" fill="#C9E7D9" width="3.56" height="3.56"/>
			</g>
			<g>
				<rect x="144" y="156" fill="#C9E7D9" width="3.56" height="3.56"/>
			</g>
			<g>
				<rect x="120" y="156" fill="#C9E7D9" width="3.56" height="3.56"/>
			</g>
			<g>
				<rect x="96" y="156" fill="#C9E7D9" width="3.56" height="3.56"/>
			</g>
			<g>
				<rect x="72" y="156" fill="#C9E7D9" width="3.56" height="3.56"/>
			</g>
			<g>
				<rect x="48" y="156" fill="#C9E7D9" width="3.56" height="3.56"/>
			</g>
			<g>
				<rect x="24" y="156" fill="#C9E7D9" width="3.56" height="3.56"/>
			</g>
			<g>
				<rect y="156" fill="#C9E7D9" width="3.56" height="3.56"/>
			</g>
		</g>
		<g>
			<g>
				<rect x="288" y="130" fill="#C9E7D9" width="3.56" height="3.56"/>
			</g>
			<g>
				<rect x="264" y="130" fill="#C9E7D9" width="3.56" height="3.56"/>
			</g>
			<g>
				<rect x="240" y="130" fill="#C9E7D9" width="3.56" height="3.56"/>
			</g>
			<g>
				<rect x="216" y="130" fill="#C9E7D9" width="3.56" height="3.56"/>
			</g>
			<g>
				<rect x="192" y="130" fill="#C9E7D9" width="3.56" height="3.56"/>
			</g>
			<g>
				<rect x="168" y="130" fill="#C9E7D9" width="3.56" height="3.56"/>
			</g>
			<g>
				<rect x="144" y="130" fill="#C9E7D9" width="3.56" height="3.56"/>
			</g>
			<g>
				<rect x="120" y="130" fill="#C9E7D9" width="3.56" height="3.56"/>
			</g>
			<g>
				<rect x="96" y="130" fill="#C9E7D9" width="3.56" height="3.56"/>
			</g>
			<g>
				<rect x="72" y="130" fill="#C9E7D9" width="3.56" height="3.56"/>
			</g>
			<g>
				<rect x="48" y="130" fill="#C9E7D9" width="3.56" height="3.56"/>
			</g>
			<g>
				<rect x="24" y="130" fill="#C9E7D9" width="3.56" height="3.56"/>
			</g>
			<g>
				<rect y="130" fill="#C9E7D9" width="3.56" height="3.56"/>
			</g>
		</g>
		<g>
			<g>
				<rect x="288" y="104" fill="#C9E7D9" width="3.56" height="3.56"/>
			</g>
			<g>
				<rect x="264" y="104" fill="#C9E7D9" width="3.56" height="3.56"/>
			</g>
			<g>
				<rect x="240" y="104" fill="#C9E7D9" width="3.56" height="3.56"/>
			</g>
			<g>
				<rect x="216" y="104" fill="#C9E7D9" width="3.56" height="3.56"/>
			</g>
			<g>
				<rect x="192" y="104" fill="#C9E7D9" width="3.56" height="3.56"/>
			</g>
			<g>
				<rect x="168" y="104" fill="#C9E7D9" width="3.56" height="3.56"/>
			</g>
			<g>
				<rect x="144" y="104" fill="#C9E7D9" width="3.56" height="3.56"/>
			</g>
			<g>
				<rect x="120" y="104" fill="#C9E7D9" width="3.56" height="3.56"/>
			</g>
			<g>
				<rect x="96" y="104" fill="#C9E7D9" width="3.56" height="3.56"/>
			</g>
			<g>
				<rect x="72" y="104" fill="#C9E7D9" width="3.56" height="3.56"/>
			</g>
			<g>
				<rect x="48" y="104" fill="#C9E7D9" width="3.56" height="3.56"/>
			</g>
			<g>
				<rect x="24" y="104" fill="#C9E7D9" width="3.56" height="3.56"/>
			</g>
			<g>
				<rect y="104" fill="#C9E7D9" width="3.56" height="3.56"/>
			</g>
		</g>
		<g>
			<g>
				<rect x="288" y="78" fill="#C9E7D9" width="3.56" height="3.56"/>
			</g>
			<g>
				<rect x="264" y="78" fill="#C9E7D9" width="3.56" height="3.56"/>
			</g>
			<g>
				<rect x="240" y="78" fill="#C9E7D9" width="3.56" height="3.56"/>
			</g>
			<g>
				<rect x="216" y="78" fill="#C9E7D9" width="3.56" height="3.56"/>
			</g>
			<g>
				<rect x="192" y="78" fill="#C9E7D9" width="3.56" height="3.56"/>
			</g>
			<g>
				<rect x="168" y="78" fill="#C9E7D9" width="3.56" height="3.56"/>
			</g>
			<g>
				<rect x="144" y="78" fill="#C9E7D9" width="3.56" height="3.56"/>
			</g>
			<g>
				<rect x="120" y="78" fill="#C9E7D9" width="3.56" height="3.56"/>
			</g>
			<g>
				<rect x="96" y="78" fill="#C9E7D9" width="3.56" height="3.56"/>
			</g>
			<g>
				<rect x="72" y="78" fill="#C9E7D9" width="3.56" height="3.56"/>
			</g>
			<g>
				<rect x="48" y="78" fill="#C9E7D9" width="3.56" height="3.56"/>
			</g>
			<g>
				<rect x="24" y="78" fill="#C9E7D9" width="3.56" height="3.56"/>
			</g>
			<g>
				<rect y="78" fill="#C9E7D9" width="3.56" height="3.56"/>
			</g>
		</g>
		<g>
			<g>
				<rect x="288" y="52" fill="#C9E7D9" width="3.56" height="3.56"/>
			</g>
			<g>
				<rect x="264" y="52" fill="#C9E7D9" width="3.56" height="3.56"/>
			</g>
			<g>
				<rect x="240" y="52" fill="#C9E7D9" width="3.56" height="3.56"/>
			</g>
			<g>
				<rect x="216" y="52" fill="#C9E7D9" width="3.56" height="3.56"/>
			</g>
			<g>
				<rect x="192" y="52" fill="#C9E7D9" width="3.56" height="3.56"/>
			</g>
			<g>
				<rect x="168" y="52" fill="#C9E7D9" width="3.56" height="3.56"/>
			</g>
			<g>
				<rect x="144" y="52" fill="#C9E7D9" width="3.56" height="3.56"/>
			</g>
			<g>
				<rect x="120" y="52" fill="#C9E7D9" width="3.56" height="3.56"/>
			</g>
			<g>
				<rect x="96" y="52" fill="#C9E7D9" width="3.56" height="3.56"/>
			</g>
			<g>
				<rect x="72" y="52" fill="#C9E7D9" width="3.56" height="3.56"/>
			</g>
			<g>
				<rect x="48" y="52" fill="#C9E7D9" width="3.56" height="3.56"/>
			</g>
			<g>
				<rect x="24" y="52" fill="#C9E7D9" width="3.56" height="3.56"/>
			</g>
			<g>
				<rect y="52" fill="#C9E7D9" width="3.56" height="3.56"/>
			</g>
		</g>
		<g>
			<g>
				<rect x="288" y="26" fill="#C9E7D9" width="3.56" height="3.56"/>
			</g>
			<g>
				<rect x="264" y="26" fill="#C9E7D9" width="3.56" height="3.56"/>
			</g>
			<g>
				<rect x="240" y="26" fill="#C9E7D9" width="3.56" height="3.56"/>
			</g>
			<g>
				<rect x="216" y="26" fill="#C9E7D9" width="3.56" height="3.56"/>
			</g>
			<g>
				<rect x="192" y="26" fill="#C9E7D9" width="3.56" height="3.56"/>
			</g>
			<g>
				<rect x="168" y="26" fill="#C9E7D9" width="3.56" height="3.56"/>
			</g>
			<g>
				<rect x="144" y="26" fill="#C9E7D9" width="3.56" height="3.56"/>
			</g>
			<g>
				<rect x="120" y="26" fill="#C9E7D9" width="3.56" height="3.56"/>
			</g>
			<g>
				<rect x="96" y="26" fill="#C9E7D9" width="3.56" height="3.56"/>
			</g>
			<g>
				<rect x="72" y="26" fill="#C9E7D9" width="3.56" height="3.56"/>
			</g>
			<g>
				<rect x="48" y="26" fill="#C9E7D9" width="3.56" height="3.56"/>
			</g>
			<g>
				<rect x="24" y="26" fill="#C9E7D9" width="3.56" height="3.56"/>
			</g>
			<g>
				<rect y="26" fill="#C9E7D9" width="3.56" height="3.56"/>
			</g>
		</g>
		<g>
			<g>
				<rect x="288" fill="#C9E7D9" width="3.56" height="3.56"/>
			</g>
			<g>
				<rect x="264" fill="#C9E7D9" width="3.56" height="3.56"/>
			</g>
			<g>
				<rect x="240" fill="#C9E7D9" width="3.56" height="3.56"/>
			</g>
			<g>
				<rect x="216" fill="#C9E7D9" width="3.56" height="3.56"/>
			</g>
			<g>
				<rect x="192" fill="#C9E7D9" width="3.56" height="3.56"/>
			</g>
			<g>
				<rect x="168" fill="#C9E7D9" width="3.56" height="3.56"/>
			</g>
			<g>
				<rect x="144" fill="#C9E7D9" width="3.56" height="3.56"/>
			</g>
			<g>
				<rect x="120" fill="#C9E7D9" width="3.56" height="3.56"/>
			</g>
			<g>
				<rect x="96" fill="#C9E7D9" width="3.56" height="3.56"/>
			</g>
			<g>
				<rect x="72" fill="#C9E7D9" width="3.56" height="3.56"/>
			</g>
			<g>
				<rect x="48" fill="#C9E7D9" width="3.56" height="3.56"/>
			</g>
			<g>
				<rect x="24" fill="#C9E7D9" width="3.56" height="3.56"/>
			</g>
			<g>
				<rect fill="#C9E7D9" width="3.56" height="3.56"/>
			</g>
		</g>
	</g>
</g>
<g id="Layer_3">
</g>
<g id="Layer_4">
</g>
</svg>
