<?xml version="1.0" encoding="utf-8"?>
<!-- Generator: Adobe Illustrator 28.5.0, SVG Export Plug-In . SVG Version: 9.03 Build 54727)  -->
<svg version="1.1" baseProfile="tiny" id="Layer_1" xmlns="http://www.w3.org/2000/svg" xmlns:xlink="http://www.w3.org/1999/xlink"
	 x="0px" y="0px" width="1374.8px" height="171.4px" viewBox="0 0 1374.8 171.4" overflow="visible" xml:space="preserve">
<rect id="colorstyle:Selected_opacity:80" x="206.5" y="0.4" fill="#ED6B1E" width="222.4" height="90.2"/>
<rect id="colorstyle:Critical_opacity:20_00000178885382825226129420000004414787924463982007_" x="206.5" y="102.2" fill="#E63220" width="222.4" height="69.2"/>
<rect id="colorstyle:Critical_opacity:20_00000142856014658892220910000015482810476197883025_" x="439.7" y="102.1" fill="#E63220" width="700.1" height="69.2"/>
<rect id="colorstyle:Selected_opacity:80_00000033362844243708649470000013759634423626837413_" x="1152.3" y="0.4" fill="#ED6B1E" width="222.4" height="90.2"/>
<rect id="colorstyle:Critical_opacity:20_00000136385730482306961660000013893821399967023250_" x="1152.3" y="102.2" fill="#E63220" width="222.4" height="69.2"/>
<rect id="colorstyle:Critical_opacity:20" y="0.5" fill="#E63220" width="195.7" height="170.8"/>
<polygon id="colorstyle:Critical_opacity:20_00000000201381273770348090000006060615415173755047_" fill="#E63220" points="
	439.8,90.7 1140.4,90.7 1140.5,0.5 439.9,0.5 "/>
<g id="colorstyle:Selected_opacity:80_00000093162385415776669330000005471580150741610134_">
	<g>
		<rect x="789.3" y="0.5" fill="#F59C3F" width="1.1" height="90"/>
	</g>
	<g>
		<rect x="729.3" y="0.5" fill="#F59C3F" width="1.1" height="90"/>
	</g>
	<g>
		<rect x="677.6" y="0.5" fill="#F59C3F" width="1.1" height="90"/>
	</g>
	<g>
		<rect x="633" y="0.5" fill="#F59C3F" width="1.1" height="90"/>
	</g>
	<g>
		<rect x="594.6" y="0.5" fill="#F59C3F" width="1.1" height="90"/>
	</g>
	<g>
		<rect x="561.5" y="0.5" fill="#F59C3F" width="1.1" height="90"/>
	</g>
	<g>
		<rect x="532.9" y="0.5" fill="#F59C3F" width="1.1" height="90"/>
	</g>
	<g>
		<rect x="508.3" y="0.5" fill="#F59C3F" width="1.1" height="90"/>
	</g>
	<g>
		<rect x="487.1" y="0.5" fill="#F59C3F" width="1.1" height="90"/>
	</g>
	<g>
		<rect x="468.8" y="0.5" fill="#F59C3F" width="1.1" height="90"/>
	</g>
	<g>
		<rect x="453" y="0.5" fill="#F59C3F" width="1.1" height="90"/>
	</g>
	<g>
		<rect x="790.4" y="0.5" fill="#F59C3F" width="1.1" height="90"/>
	</g>
	<g>
		<rect x="850.3" y="0.5" fill="#F59C3F" width="1.1" height="90"/>
	</g>
	<g>
		<rect x="902.1" y="0.5" fill="#F59C3F" width="1.1" height="90"/>
	</g>
	<g>
		<rect x="946.6" y="0.5" fill="#F59C3F" width="1.1" height="90"/>
	</g>
	<g>
		<rect x="985.1" y="0.5" fill="#F59C3F" width="1.1" height="90"/>
	</g>
	<g>
		<rect x="1018.2" y="0.5" fill="#F59C3F" width="1.1" height="90"/>
	</g>
	<g>
		<rect x="1046.7" y="0.5" fill="#F59C3F" width="1.1" height="90"/>
	</g>
	<g>
		<rect x="1071.4" y="0.5" fill="#F59C3F" width="1.1" height="90"/>
	</g>
	<g>
		<rect x="1092.6" y="0.5" fill="#F59C3F" width="1.1" height="90"/>
	</g>
	<g>
		<rect x="1110.9" y="0.5" fill="#F59C3F" width="1.1" height="90"/>
	</g>
	<g>
		<rect x="1126.7" y="0.5" fill="#F59C3F" width="1.1" height="90"/>
	</g>
</g>
<rect id="colorstyle:Critical_00000003817177756221868540000006624356521230528403_" x="439.8" fill="#E63220" width="5.3" height="90.5"/>
<rect id="colorstyle:Critical" x="1134.7" fill="#E63220" width="5.4" height="90.5"/>
</svg>
