<?xml version="1.0" encoding="utf-8"?>
<!-- Generator: Adobe Illustrator 28.1.0, SVG Export Plug-In . SVG Version: 6.00 Build 0)  -->
<svg version="1.1" baseProfile="tiny" id="Layer_1" xmlns="http://www.w3.org/2000/svg" xmlns:xlink="http://www.w3.org/1999/xlink"
	 x="0px" y="0px" viewBox="0 0 25 25" overflow="visible" xml:space="preserve">
<path fill="none" stroke="#6DB6C5" stroke-miterlimit="10" d="M12.5,22.8c-2.6,0-4.7-4.6-4.7-10.3S9.9,2.2,12.5,2.2
	s4.7,4.6,4.7,10.3S15.1,22.8,12.5,22.8z M14.8,8.5C9.9,5.6,4.8,5.1,3.5,7.3s1.7,6.4,6.6,9.2s10,3.4,11.3,1.1
	C22.7,15.4,19.8,11.3,14.8,8.5z M10.2,8.5c-4.9,2.9-7.9,7-6.6,9.2s6.3,1.7,11.3-1.1s7.9-7,6.6-9.2S15.1,5.6,10.2,8.5z"/>
</svg>
