<?xml version="1.0" encoding="utf-8"?>
<!-- Generator: Adobe Illustrator 27.8.0, SVG Export Plug-In . SVG Version: 6.00 Build 0)  -->
<svg version="1.1" baseProfile="tiny" id="Layer_1" xmlns="http://www.w3.org/2000/svg" xmlns:xlink="http://www.w3.org/1999/xlink"
	 x="0px" y="0px" viewBox="0 0 64 64" overflow="visible" xml:space="preserve">
<circle id="opacity:40_colorstyle:Base" fill="#FFFFFF" cx="32" cy="5.8" r="1.5"/>
<path id="opacity:100_colorstyle:Base" fill="#FFFFFF" d="M44,42.2c0,2.7-5.2,3.5-11.7,3.5c-0.1,0-0.2,0-0.3,0c-0.1,0-0.2,0-0.3,0
	c-6.5,0-11.7-0.8-11.7-3.5c0-2.3,3.7-3.2,8.7-3.4l1.7,2.9c0.2,0.3,0.5,0.5,0.8,0.5h1.6c0.3,0,0.7-0.2,0.8-0.5l1.7-2.9
	C40.4,39,44,39.9,44,42.2z"/>
<path id="opacity:100_colorstyle:Base_00000083053705927724333600000000895384326318193069_" fill="#FFFFFF" d="M37.2,20.7
	c-1.4-1.6-3.3-2.3-5.2-2.3c-1.9,0-3.8,0.8-5.2,2.3c-2,2.2-2.3,5.5-0.9,8.1L32,39.5l6.1-10.7c0.6-1.1,0.9-2.3,0.9-3.4
	C39,23.6,38.4,22,37.2,20.7z M32,29.8c-2.4,0-4.4-2-4.4-4.4s2-4.4,4.4-4.4s4.4,2,4.4,4.4S34.4,29.8,32,29.8z"/>
</svg>
