<?xml version="1.0" encoding="utf-8"?>
<!-- Generator: Adobe Illustrator 28.2.0, SVG Export Plug-In . SVG Version: 6.00 Build 0)  -->
<svg version="1.1" baseProfile="tiny" id="Layer_1" xmlns="http://www.w3.org/2000/svg" xmlns:xlink="http://www.w3.org/1999/xlink"
	 x="0px" y="0px" viewBox="0 0 64 64" overflow="visible" xml:space="preserve">
<path id="colorstyle:Bright_opacity:100_00000011754300268962233230000018099859829612060086_" fill="#FFFFFF" d="M63,0.5
	c0.3,0,0.5,0.2,0.5,0.5S63.3,1.5,63,1.5S62.5,1.3,62.5,1S62.7,0.5,63,0.5z M63,62.5c0.3,0,0.5,0.2,0.5,0.5s-0.2,0.5-0.5,0.5
	s-0.5-0.2-0.5-0.5S62.7,62.5,63,62.5z M1,0.5c0.3,0,0.5,0.2,0.5,0.5S1.3,1.5,1,1.5S0.5,1.3,0.5,1S0.7,0.5,1,0.5z M1,62.5
	c0.3,0,0.5,0.2,0.5,0.5S1.3,63.5,1,63.5S0.5,63.3,0.5,63S0.7,62.5,1,62.5z"/>
</svg>
