<?xml version="1.0" encoding="utf-8"?>
<!-- Generator: Adobe Illustrator 28.2.0, SVG Export Plug-In . SVG Version: 6.00 Build 0)  -->
<svg version="1.1" baseProfile="tiny" id="Layer_1" xmlns="http://www.w3.org/2000/svg" xmlns:xlink="http://www.w3.org/1999/xlink"
	 x="0px" y="0px" viewBox="0 0 64 64" overflow="visible" xml:space="preserve">
<rect id="colorstyle:Background_opacity:2" fill="#18272A" width="64" height="64"/>
<path id="colorstyle:Bright_opacity:40" fill="#FFFFFF" d="M64-0.5c0.3,0,0.5,0.2,0.5,0.5S64.3,0.5,64,0.5c-0.3,0-0.5-0.2-0.5-0.5
	S63.7-0.5,64-0.5z M64,63.5c0.3,0,0.5,0.2,0.5,0.5c0,0.3-0.2,0.5-0.5,0.5c-0.3,0-0.5-0.2-0.5-0.5C63.5,63.7,63.7,63.5,64,63.5z
	 M0-0.5c0.3,0,0.5,0.2,0.5,0.5S0.3,0.5,0,0.5S-0.5,0.3-0.5,0S-0.3-0.5,0-0.5z M0,63.5c0.3,0,0.5,0.2,0.5,0.5c0,0.3-0.2,0.5-0.5,0.5
	s-0.5-0.2-0.5-0.5C-0.5,63.7-0.3,63.5,0,63.5z"/>
</svg>
