<?xml version="1.0" encoding="utf-8"?>
<!-- Generator: Adobe Illustrator 27.9.0, SVG Export Plug-In . SVG Version: 6.00 Build 0)  -->
<svg version="1.1" baseProfile="tiny" id="Engineering_Icon_MainBattery"
	 xmlns="http://www.w3.org/2000/svg" xmlns:xlink="http://www.w3.org/1999/xlink" x="0px" y="0px" viewBox="0 0 1204.7 1204.7"
	 overflow="visible" xml:space="preserve">
<path d="M149.4,430.1v528.1h896.3V430.1H149.4z M537.4,705.4h-92v92h-62.1v-92h-92v-62.1h92v-92h62.1v92h92V705.4z M940,705.4H693.8
	v-62.1H940V705.4z"/>
<polygon points="1045.6,377.6 1045.6,339.1 984.4,339.1 984.4,247.5 892,247.5 892,339.1 842.4,339.1 842.4,295.9 352.6,295.9 
	352.6,339.1 303,339.1 303,247.5 210.6,247.5 210.6,339.1 149.4,339.1 149.4,377.6 "/>
</svg>
