<?xml version="1.0" encoding="utf-8"?>
<!-- Generator: Adobe Illustrator 27.9.0, SVG Export Plug-In . SVG Version: 6.00 Build 0)  -->
<svg version="1.1" baseProfile="tiny" id="Icons" xmlns="http://www.w3.org/2000/svg" xmlns:xlink="http://www.w3.org/1999/xlink"
	 x="0px" y="0px" viewBox="0 0 600 600" overflow="visible" xml:space="preserve">
<g id="Heat">
	<path d="M337.2,90c-87.3,43.4-110.6,104.4-99,185c11,40,27,84,32,116s-5,119-5,119c73.4-36.4,121.3-118.2,89-224
		c-11-49-27.6-52.9-24-120C333.2,110,337.2,90,337.2,90z"/>
	<path d="M397,452.4c63.6-31.6,80.6-76,72.1-134.8c-8-29.1-19.7-61.2-23.3-84.5s3.6-86.7,3.6-86.7c-53.5,26.5-88.3,86.1-64.8,163.2
		c8,35.7,20.1,38.5,17.5,87.4C399.9,437.8,397,452.4,397,452.4L397,452.4z"/>
	<path d="M203,146.9c-63.6,31.6-80.6,76-72.1,134.8c8,29.1,19.7,61.2,23.3,84.5s-3.6,86.7-3.6,86.7c53.5-26.5,88.3-86.1,64.8-163.2
		c-8-35.7-20.1-38.5-17.5-87.4C200.1,161.4,203,146.9,203,146.9L203,146.9z"/>
</g>
</svg>
