<?xml version="1.0" encoding="utf-8"?>
<!-- Generator: Adobe Illustrator 27.9.0, SVG Export Plug-In . SVG Version: 6.00 Build 0)  -->
<svg version="1.1" baseProfile="tiny" id="Icons" xmlns="http://www.w3.org/2000/svg" xmlns:xlink="http://www.w3.org/1999/xlink"
	 x="0px" y="0px" viewBox="0 0 600 600" overflow="visible" xml:space="preserve">
<g id="Pressure">
	<path d="M342.6,198.7l18.5,10.7c5.2,3,7,9.7,4,14.9L315,311c-3,5.2-9.7,7-14.9,4l-18.5-10.7c-5.2-3-7-9.7-4-14.9l50.1-86.7
		C330.7,197.5,337.4,195.7,342.6,198.7z"/>
	<path d="M410.1,453.3c-6.1,0-12.2-2.7-16.3-7.8c-7.3-9-5.9-22.2,3.1-29.5c36.3-29.4,57.2-73.1,57.2-119.7
		c0-30.9-9.1-60.7-26.3-86.1c-6.5-9.6-4-22.7,5.6-29.2c9.6-6.5,22.7-4,29.2,5.6C484.4,219,496,256.9,496,296.2
		c0,59.4-26.5,114.9-72.7,152.4C419.4,451.8,414.7,453.3,410.1,453.3L410.1,453.3z"/>
	<path d="M190.5,453.8c-4.6,0-9.3-1.5-13.1-4.6C130.7,411.7,104,356,104,296.2c0-108.1,87.9-196,196-196
		c36.6,0,72.3,10.2,103.2,29.4c9.9,6.1,12.9,19.1,6.8,28.9s-19.1,12.9-28.9,6.8c-24.3-15.1-52.3-23.1-81.1-23.1
		c-84.9,0-154,69.1-154,154c0,46.9,21,90.7,57.6,120.1c9,7.3,10.5,20.5,3.2,29.5C202.7,451.1,196.6,453.8,190.5,453.8L190.5,453.8z"
		/>
</g>
</svg>
