<?xml version="1.0" encoding="utf-8"?>
<!-- Generator: Adobe Illustrator 27.9.0, SVG Export Plug-In . SVG Version: 6.00 Build 0)  -->
<svg version="1.1" baseProfile="tiny" id="Icons" xmlns="http://www.w3.org/2000/svg" xmlns:xlink="http://www.w3.org/1999/xlink"
	 x="0px" y="0px" viewBox="0 0 600 600" overflow="visible" xml:space="preserve">
<path id="Fuse_off" d="M393,161.6V84.3c0-9.6-7.8-17.3-17.4-17.3H224.3c-9.6,0-17.4,7.8-17.4,17.3v77.3c0,8.8,6.5,16,15,17.2v242.3
	c-8.5,1.1-15,8.4-15,17.2v77.3c0,9.6,7.8,17.3,17.4,17.3h151.3c9.6,0,17.4-7.8,17.4-17.3v-77.3c0-8.8-6.5-16-15-17.2V178.8
	C386.5,177.7,393,170.4,393,161.6L393,161.6z M369,509H231v-64h138V509z M309.9,357.6c-5.2-7.6-8.9-13-8.9-25.4s3.7-17.9,8.9-25.4
	c5.8-8.5,13.1-19.2,13.1-39s-7.3-30.4-13.1-39c-5.2-7.6-8.9-13-8.9-25.4s3.4-17.3,8.2-24.4H354v242h-35.7c2.7-6.3,4.7-14.1,4.7-24.4
	C323,376.8,315.7,366.2,309.9,357.6L309.9,357.6z M290.1,242.4c5.2,7.6,8.9,13,8.9,25.4c0,12.4-3.7,17.9-8.9,25.4
	c-5.8,8.5-13.1,19.2-13.1,39s7.3,30.4,13.1,39c5.2,7.6,8.9,13,8.9,25.4s-3.4,17.4-8.2,24.4H246V179h35.6c-2.7,6.3-4.6,14.1-4.6,24.4
	C277,223.2,284.3,233.8,290.1,242.4L290.1,242.4z M369,155H231V91h138V155z"/>
</svg>
