<?xml version="1.0" encoding="utf-8"?>
<!-- Generator: Adobe Illustrator 27.9.0, SVG Export Plug-In . SVG Version: 6.00 Build 0)  -->
<svg version="1.1" baseProfile="tiny" id="Icons" xmlns="http://www.w3.org/2000/svg" xmlns:xlink="http://www.w3.org/1999/xlink"
	 x="0px" y="0px" viewBox="0 0 600 600" overflow="visible" xml:space="preserve">
<g id="Fuse_on">
	<path d="M224.4,439h151.3c3,0,5.4,2.4,5.4,5.4v65.3c0,3-2.4,5.4-5.4,5.4H224.4c-3,0-5.4-2.4-5.4-5.4v-65.3
		C219,441.4,221.4,439,224.4,439z"/>
	<path d="M224.4,85h151.3c3,0,5.4,2.4,5.4,5.3v65.3c0,3-2.4,5.4-5.4,5.4H224.4c-3,0-5.4-2.4-5.4-5.4V90.3
		C219,87.4,221.4,85,224.4,85z"/>
	<path d="M299,396.6c0-12.4-3.7-17.9-8.9-25.4c-5.8-8.5-13.1-19.2-13.1-39s7.3-30.4,13.1-39c5.2-7.6,8.9-13,8.9-25.4
		s-3.7-17.9-8.9-25.4c-5.8-8.5-13.1-19.2-13.1-39c0-7.2,1-13.3,2.5-18.4H234v230h60.6C297.3,410.2,299,405,299,396.6L299,396.6z"/>
	<path d="M305.4,185c-2.7,4.8-4.4,10-4.4,18.4c0,12.4,3.7,17.9,8.9,25.4c5.8,8.5,13.1,19.2,13.1,39s-7.3,30.4-13.1,39
		c-5.2,7.6-8.9,13-8.9,25.4s3.7,17.9,8.9,25.4c5.8,8.5,13.1,19.2,13.1,39c0,7.2-1,13.3-2.5,18.4H366V185L305.4,185L305.4,185z"/>
</g>
</svg>
