<?xml version="1.0" encoding="utf-8"?>
<!-- Generator: Adobe Illustrator 28.5.0, SVG Export Plug-In . SVG Version: 9.03 Build 54727)  -->
<svg version="1.1" baseProfile="tiny" id="Engineering_Icon_MainDoorOpen"
	 xmlns="http://www.w3.org/2000/svg" xmlns:xlink="http://www.w3.org/1999/xlink" x="0px" y="0px" viewBox="0 0 1204.7 1204.7"
	 overflow="visible" xml:space="preserve">
<path d="M587.6,637.2l28.4,0.3l59-243.8h143.3v414.6h-84.1V487.6H725L643.9,790h-84.1l-81.1-302.4h-9.1v320.7h-84.1V393.7h143.3
	L587.6,637.2z M1027,231.7V970c0,11.5-9.3,20.9-20.8,20.9h-805c-11.5,0-20.8-9.3-20.8-20.8V231.7c0-11.5,9.3-20.8,20.8-20.8h805
	C1017.7,210.9,1027,220.2,1027,231.7z M985.4,252.5H222v696.7h763.4V252.5z M360,301.6v593.2h-76.3V301.6H360z M304.3,646.9h33.8
	v-114h-33.8V646.9z M926.1,301.6v593.2h-76.3V301.6H926.1z M905.5,532.9h-33.8v114h33.8V532.9z"/>
</svg>
