<?xml version="1.0" encoding="utf-8"?>
<!-- Generator: Adobe Illustrator 27.2.0, SVG Export Plug-In . SVG Version: 6.00 Build 0)  -->
<svg version="1.1" baseProfile="tiny" id="Layer_1" xmlns="http://www.w3.org/2000/svg" xmlns:xlink="http://www.w3.org/1999/xlink"
	 x="0px" y="0px" viewBox="0 0 800 800" overflow="visible" xml:space="preserve">
<path id="Thrusters_00000147914510849648216640000001747513283230514599_" display="none" d="M219.8,87.7l315.4,312.8L219.8,713.3
	l144.4-312.8L219.8,87.7z M297.5,400.5L74.1,237.4L164,400.5L74.1,563.6L297.5,400.5z M725.9,400.5l-186.1-191l70.5,191l-70.5,191
	L725.9,400.5z"/>
<g>
	<path fill="#010202" d="M235.6,568.6H102.8V226.2c0-40.4,12.4-80,35.9-113.4l24-34.6c3.3-4.6,9.9-4.6,13.2,0l24.4,34.6
		c23.1,33.4,35.9,73,35.9,113.4v342.4H235.6z"/>
	<path fill="#010202" d="M466.2,568.6H333V226.2c0-40.4,12.4-80,35.9-113.4l24.4-34.6c3.3-4.6,9.9-4.6,13.2,0l24.4,34.6
		c23.1,33.4,35.9,73,35.9,113.4v342.4H466.2z"/>
	<path fill="#010202" d="M696.8,568.6H563.6V226.2c0-40.4,12.4-80,35.9-113.4l24.4-34.6c3.3-4.6,9.9-4.6,13.2,0l24.4,34.6
		c23.1,33.4,35.9,73,35.9,113.4v342.4H696.8z"/>
	<rect x="102.8" y="648.6" fill="#010202" width="133.3" height="78"/>
	<rect x="333" y="648.6" fill="#010202" width="133.3" height="78"/>
	<rect x="563.6" y="648.6" fill="#010202" width="133.3" height="78"/>
</g>
<path display="none" fill="#010202" d="M629.3,169.2L423.6,84l-24-9.8L376.4,84l-205.6,85.2l-37.6,15.9v195.8
	c0,104.4,51.4,200.7,137.4,259l95.4,63.6l34,23.3l34.3-23.2l95-63.2c86-58.3,137.4-154.6,137.4-259V185.6L629.3,169.2z M605.5,380.9
	c0,83.6-41.2,161.5-110.6,208l-94.6,62.8V140.3l205.1,85.2V380.9z"/>
</svg>
