<?xml version="1.0" encoding="utf-8"?>
<!-- Generator: Adobe Illustrator 27.9.0, SVG Export Plug-In . SVG Version: 6.00 Build 0)  -->
<svg version="1.1" baseProfile="tiny" id="Engineering_Icon_MainGravityGenerator"
	 xmlns="http://www.w3.org/2000/svg" xmlns:xlink="http://www.w3.org/1999/xlink" x="0px" y="0px" viewBox="0 0 1204.7 1204.7"
	 overflow="visible" xml:space="preserve">
<path d="M601,143.9c-252.2,0-456.7,204.5-456.7,456.7s204.5,456.7,456.7,456.7s456.7-204.5,456.7-456.7S853.3,143.9,601,143.9
	L601,143.9z M601,1017.2c-229.6,0-416.5-186.8-416.5-416.5S371.4,184.2,601,184.2s416.5,186.8,416.5,416.5S830.7,1017.2,601,1017.2
	L601,1017.2z"/>
<g>
	<path d="M334.3,353.4C462.9,469.9,669,420.6,731,258.7C595.8,205.9,431.1,245.3,334.3,353.4L334.3,353.4z"/>
	<path d="M876.2,842.8c-129.1-128-350.3-75.1-407.6,97.3C607.2,997.3,778.5,956.4,876.2,842.8z"/>
	<path d="M357.9,871.2c116.5-129,65.6-336.7-97.4-397C208.3,610,248.7,775,357.9,871.2z"/>
	<path d="M849.9,334.9C733.8,462.7,783,669.1,944,731.1c53.9-135.1,15.4-300.4-92.5-398C851,333.7,850.5,334.3,849.9,334.9
		L849.9,334.9z"/>
</g>
<path d="M720,587.2c0,27.7-9.9,69.8-35.3,96.2c-25.3,26.4-54.4,31.1-81.5,31.1c-27.4,0-56.8-4.4-83.5-31.8
	c-13.3-13.7-33.5-41.4-33.5-86.9c0-37.3,13.7-67.1,32.9-86.6c28.1-29.1,62.6-33.2,89.7-33.2c18.8,0,42.8,3.1,64,17.1
	c15.4,10.3,28.7,26.4,37,40.7l-47.6,25.7c-4.4-8.9-11.3-18.1-20.2-24.6c-10.3-7.5-21.9-11-34.9-11c-20.9,0-36.3,6.8-47.2,18.5
	c-12.7,13.3-19.5,32.9-19.5,54.1c0,26,9.6,42.8,19.2,52.4c13.3,13.7,28.7,17.8,46.2,17.8c22.6,0,34.6-7.9,39.7-12.3
	c1.7-1.4,12-10.3,16.4-27h-55.1v-42.4H720V587.2L720,587.2z"/>
</svg>
