<?xml version="1.0" encoding="utf-8"?>
<!-- Generator: Adobe Illustrator 27.9.0, SVG Export Plug-In . SVG Version: 6.00 Build 0)  -->
<svg version="1.1" baseProfile="tiny" id="Icons" xmlns="http://www.w3.org/2000/svg" xmlns:xlink="http://www.w3.org/1999/xlink"
	 x="0px" y="0px" viewBox="0 0 600 600" overflow="visible" xml:space="preserve">
<path id="Wrench" d="M436.4,214.1L436.4,214.1c-13.8,13.4-35.7,13.3-49.4-0.3c-13.6-13.6-13.7-35.6-0.3-49.3l0,0l64.1-64.1
	c-35.2-15.2-77.7-8.4-106.5,20.4c-21.7,21.7-30.9,51.1-27.6,79.3L124.1,392.6l0,0l0,0c-23.6,23.6-23.6,61.9,0,85.5s61.9,23.6,85.5,0
	l0,0l0,0l193.2-193.2c27.9,2.9,56.8-6.4,78.1-27.8c29-29.1,35.7-72,20-107.4L436.4,214.1L436.4,214.1z M189.7,457.6
	c-12.3,12.3-32.2,12.3-44.5,0c-12.3-12.3-12.3-32.2,0-44.5c12.3-12.3,32.2-12.3,44.5,0C202,425.4,202,445.3,189.7,457.6z"/>
</svg>
