<?xml version="1.0" encoding="utf-8"?>
<!-- Generator: Adobe Illustrator 27.9.0, SVG Export Plug-In . SVG Version: 6.00 Build 0)  -->
<svg version="1.1" baseProfile="tiny" id="Engineering_Icon_MainPowerPlant"
	 xmlns="http://www.w3.org/2000/svg" xmlns:xlink="http://www.w3.org/1999/xlink" x="0px" y="0px" viewBox="0 0 1204.7 1204.7"
	 overflow="visible" xml:space="preserve">
<polygon points="1042.2,413.6 1042.2,300.1 1003.8,300.1 1003.8,902.9 1042.2,902.9 1042.2,781.4 1072.1,781.4 1072.1,413.6 "/>
<polygon points="162.9,300.1 162.9,413.6 133,413.6 133,781.4 162.9,781.4 162.9,902.9 201.3,902.9 201.3,300.1 "/>
<path d="M874.7,300.1h-44.1v-23.2c-7-7-10.9-10.9-17.9-17.9H391.9c-7,7-10.9,10.9-17.9,17.9v23.2h-43.1
	c-27.8,27.8-43.3,43.3-71.1,71.1v460.6c27.8,27.8,43.3,43.3,71.1,71.1H374v22.3l17.9,17.9h420.8c7-7,10.9-10.9,17.9-17.9v-22.3h44.1
	c27.8-27.8,43.3-43.3,71.1-71.1V371.2C918,343.4,902.5,327.9,874.7,300.1z M493,423.6h-45l-22.3,22.3v312.5l22.3,22.3h45v33.7h-59
	l-42.1-42.1V432l42.1-42.1h59L493,423.6L493,423.6z M526.4,766.7l43.8-145c0,0-69.8,0.2-68.9,0.4c0.6,0.1,61.5-184.4,61.5-184.4
	h105.4l-53,111.9l96.8-0.4L526.4,766.7L526.4,766.7z M813.6,772.4l-42.1,42.1h-59v-33.7h45l22.3-22.3V445.9l-22.3-22.3h-45v-33.7h59
	l42.1,42.1V772.4L813.6,772.4z"/>
</svg>
