<?xml version="1.0" encoding="utf-8"?>
<!-- Generator: Adobe Illustrator 28.5.0, SVG Export Plug-In . SVG Version: 9.03 Build 54727)  -->
<svg version="1.1" baseProfile="tiny" id="Engineering_x5F_Icon_x5F_MainPowerPlant"
	 xmlns="http://www.w3.org/2000/svg" xmlns:xlink="http://www.w3.org/1999/xlink" x="0px" y="0px" viewBox="0 0 800 800"
	 overflow="visible" xml:space="preserve">
<path id="LifeSupport_00000078758653497438174830000015758683934390755489_" fill="#010202" d="M412.5,595.6
	c-35,36.9-84.4,59.4-138.8,59.4c-106.2,0-191.9-85.6-191.9-191.9S273.8,145,273.8,145s60.6,66.9,113.8,144.4
	c-44.4,31.9-73.1,84.4-73.1,144.4C314.4,505.6,353.8,566.2,412.5,595.6z M698.8,655l3.8-28.1c0,0-35,0-56.9,0
	c0.6-18.8,58.1-41.9,71.2-80.6c13.1-38.7-58.8-81.9-95-17.5c27.5-9.4,62.5-7.5,63.7,10c1.9,32.5-85,43.1-85,117.5
	C610,655,698.8,655,698.8,655z M493.1,300.6c-75,0-133.8,58.8-133.8,133.8c0,76.2,58.8,135,134.4,135c74.4,0,133.8-58.8,133.8-133.8
	C627.5,359.4,568.8,300.6,493.1,300.6z M407.5,435c0-47.5,38.1-86.2,85.6-86.9c45.6-0.6,86.3,39.4,86.9,86.3
	c1.2,46.9-38.1,86.2-85.6,86.9C445,520.6,407.5,483.8,407.5,435z"/>
</svg>
