<?xml version="1.0" encoding="utf-8"?>
<!-- Generator: Adobe Illustrator 27.9.0, SVG Export Plug-In . SVG Version: 6.00 Build 0)  -->
<svg version="1.1" baseProfile="tiny" id="Engineering_Icon_MainElevator"
	 xmlns="http://www.w3.org/2000/svg" xmlns:xlink="http://www.w3.org/1999/xlink" x="0px" y="0px" viewBox="0 0 1204.7 1204.7"
	 overflow="visible" xml:space="preserve">
<path d="M820.6,461.1H379.1c-57.9,0-104.9,46.9-104.9,104.9v324.1c0,57.9,46.9,104.9,104.9,104.9h441.5
	c57.9,0,104.9-46.9,104.9-104.9V566C925.4,508.1,878.5,461.1,820.6,461.1L820.6,461.1z M312.7,888.8V567.8
	c0-37.6,30.5-68.1,68.1-68.1h206V957h-206C343.2,957,312.7,926.5,312.7,888.8L312.7,888.8z M886.9,888.8c0,37.6-30.5,68.1-68.1,68.1
	H635.2V499.6h183.5c37.6,0,68.1,30.5,68.1,68.1V888.8z"/>
<polygon points="589.5,411.3 449.8,255.5 310.1,411.3 "/>
<polygon points="900.8,255.5 621.3,255.5 761.1,411.3 "/>
<rect x="505.1" y="651.4" width="38.3" height="179.8"/>
<rect x="678.7" y="651.4" width="38.3" height="179.8"/>
</svg>
