<?xml version="1.0" encoding="utf-8"?>
<!-- Generator: Adobe Illustrator 27.9.0, SVG Export Plug-In . SVG Version: 6.00 Build 0)  -->
<svg version="1.1" baseProfile="tiny" id="Icons" xmlns="http://www.w3.org/2000/svg" xmlns:xlink="http://www.w3.org/1999/xlink"
	 x="0px" y="0px" viewBox="0 0 600 600" overflow="visible" xml:space="preserve">
<g id="Vent_off">
	<path fill="none" d="M280.2,339.2L280.2,339.2c6,2.9,12.5,4.4,19.2,4.4c13.4,0,26-6,34.4-16.5c6.4-7.9,9.7-17.4,9.7-27.6
		c0-1,0-2-0.1-3.3l0,0l0,0c-1.5-20.3-17.2-37.3-37.3-40.3l0,0c-2.2-0.3-4.4-0.5-6.6-0.5c-8.8,0-17.2,2.6-24.5,7.4
		c-12.3,8.2-19.6,21.9-19.6,36.6c0,5.4,1,10.7,2.9,15.8C262.3,325.8,270.1,334.2,280.2,339.2L280.2,339.2z"/>
	<path fill="none" d="M247.8,255.2c-18.4-12.3-32.7-30.5-40.4-51.7c-9.4-25.9-8.4-53.4,2.8-77.8c-1.1-4.7-7-9.6-13-12.3
		c-3.7-1.5-5.6-1.3-7.9-0.2c-1.6,0.9-3.1,1.9-4.7,2.8l0,0c-0.2,0.1-0.3,0.2-0.5,0.3l0,0c-34.8,22-62.6,53.3-80.2,90.4
		c-12.1,32.2-3.4,64.1,24,87.8c29.7,25.7,71.6,32.8,105,18.6c-0.9-4.5-1.4-9.1-1.4-13.7C231.4,283,237.3,267.4,247.8,255.2
		L247.8,255.2z"/>
	<path fill="none" d="M515.7,289.2L515.7,289.2C515.8,289.2,515.8,289.2,515.7,289.2c-1.9-41.3-15.5-80.9-39.3-114.5
		c-22-26.3-54.1-34.4-88.2-22.2c-36.9,13.2-63.7,46.2-67.8,82.2c11,3.6,21,9.9,28.9,18.4c6.3,6.7,11.1,14.6,14.2,23.2
		c19.8-9.9,42.6-13.5,64.9-9.7c27.1,4.6,50.6,19,66.4,40.8c4.6,1.4,11.8-1.4,17.2-5.3c3-2.5,3.8-4.1,4-6.5c0-2.2-0.1-4.2-0.2-6.1
		L515.7,289.2z"/>
	<path fill="none" d="M345,350.1c-12.4,11.2-28.5,17.4-45.5,17.4c-4.1,0-8.1-0.4-12.1-1.1c-1.4,22.1-9.8,43.6-24.2,61
		c-17.6,21.1-41.8,34.2-68.6,36.9c-3.5,3.3-4.7,10.9-4.1,17.5c0.6,4,1.7,5.5,3.8,7c1.5,0.9,3.1,1.7,4.6,2.5c0.2,0.1,0.5,0.2,0.7,0.3
		l0,0c30.6,15.9,65.1,24.3,99.8,24.3c6.2,0,12.6-0.3,19.1-0.8c33.8-5.9,56.9-29.6,63.4-65.1C389,411.5,374,371.8,345,350.1
		L345,350.1z"/>
	<path d="M540,295.8c0-2.8-0.1-5.4-0.2-7.8l0-0.4c-2.2-45.8-17.4-89.8-44-127.2l-0.5-0.7c-28.5-34.3-71.4-45.4-115-29.8
		c-22.9,8.2-43.9,23.5-59,42.9c-13.7,17.6-22,37.7-24.5,58.6c-10.1,0.4-20,3.1-28.9,7.8c-17.4-9.3-31-25-37.9-43.9
		c-7.5-20.7-6.4-42.7,3.1-62l1.1-2.2l0.1-2.5c0.9-18-13.7-31.1-27.6-37.3l-0.4-0.2c-10-4.1-18.9-3.9-28.1,0.6l-0.8,0.4
		c-2,1.2-4,2.4-6,3.7c0,0-0.1,0.1-0.1,0.1l-0.2,0.1c-38.8,24.6-69.7,59.4-89.2,100.9l-0.4,0.8c-15.9,41.7-4.5,84.6,30.5,114.9
		c18.5,16,42.1,26.7,66.5,30.3c6.2,0.9,12.3,1.4,18.4,1.4c15.6,0,30.7-3,44.7-8.9c5.5,8.8,12.9,16.3,21.8,21.8
		c0.7,19.7-5.9,39.4-18.8,54.9c-14.1,16.9-33.6,27.1-55.1,28.6l-2.5,0.2L185,442c-16,8.3-19.9,27.5-18.3,42.6l0.1,0.4
		c1.6,10.7,6.2,18.3,14.7,24l0.8,0.5c2,1.1,4,2.2,5.9,3.2c0,0,0.1,0,0.1,0l0.2,0.1c34.1,17.8,72.5,27.1,111.1,27.1
		c7.1,0,14.4-0.3,21.7-1l0.9-0.1c43.9-7.4,75.1-39,83.5-84.5c4.4-24,1.7-49.8-7.5-72.6c-8.4-20.7-21.5-37.9-38.4-50.6
		c4.8-9.1,7.5-19.3,7.8-29.6c16.7-10.5,37-14.7,56.8-11.3c21.7,3.6,40.3,15.5,52.4,33.2l1.4,2.1l2.1,1.3c5.4,3.4,11.2,4.8,17.1,4.8
		c10.5,0,21-4.6,28.9-10.5l0.3-0.3c8.3-6.6,12.5-14.3,13.3-24.1l0-0.5L540,295.8L540,295.8z M275,262.9c7.3-4.9,15.7-7.4,24.5-7.4
		c2.2,0,4.4,0.2,6.6,0.5l0,0c20.1,3,35.9,20,37.3,40.3l0,0l0,0c0.1,1.3,0.1,2.3,0.1,3.3c0,10.1-3.4,19.7-9.7,27.6
		c-8.4,10.5-21,16.5-34.4,16.5c-6.8,0-13.2-1.5-19.2-4.4l0,0c-10.1-4.9-17.9-13.4-21.9-23.9c-1.9-5-2.9-10.3-2.9-15.8
		C255.4,284.8,262.7,271.1,275,262.9L275,262.9z M127.8,294.6c-27.4-23.6-36.1-55.6-24-87.8c17.6-37.1,45.3-68.4,80.2-90.4l0,0
		c0.2-0.1,0.3-0.2,0.5-0.3l0,0c1.5-1,3.1-1.9,4.7-2.8c2.4-1.1,4.2-1.3,7.9,0.2c6,2.8,11.9,7.6,13,12.3c-11.1,24.5-12.2,52-2.8,77.8
		c7.7,21.2,22,39.3,40.4,51.7c-10.4,12.2-16.4,27.8-16.4,44.3c0,4.6,0.5,9.2,1.4,13.7C199.4,327.4,157.5,320.3,127.8,294.6
		L127.8,294.6z M382,450c-6.5,35.5-29.6,59.2-63.4,65.1c-6.4,0.6-12.9,0.8-19.1,0.8c-34.7,0-69.2-8.4-99.8-24.3l0,0
		c-0.3-0.1-0.5-0.2-0.7-0.3c-1.5-0.8-3.1-1.6-4.6-2.5c-2.1-1.5-3.2-3-3.8-7c-0.7-6.6,0.6-14.2,4.1-17.5c26.8-2.7,51-15.8,68.6-36.9
		c14.4-17.3,22.8-38.9,24.2-61c4,0.7,8,1.1,12.1,1.1c17,0,33.1-6.2,45.5-17.4C374,371.8,389.1,411.5,382,450L382,450z M511.9,302.1
		c-5.4,3.9-12.5,6.6-17.2,5.3c-15.8-21.8-39.3-36.2-66.4-40.8c-22.2-3.7-45.1-0.2-64.9,9.7c-3.1-8.5-7.9-16.5-14.2-23.2
		c-7.9-8.5-17.9-14.9-28.9-18.4c4.1-36,30.9-68.9,67.8-82.2c34-12.2,66.1-4.1,88.2,22.2c23.8,33.7,37.4,73.2,39.3,114.5
		c0,0,0,0.1,0,0.1h0l0,0.2c0.1,1.9,0.2,3.9,0.2,6.1C515.7,298,515,299.6,511.9,302.1L511.9,302.1z"/>
</g>
</svg>
