<?xml version="1.0" encoding="utf-8"?>
<!-- Generator: Adobe Illustrator 27.9.0, SVG Export Plug-In . SVG Version: 6.00 Build 0)  -->
<svg version="1.1" baseProfile="tiny" id="Engineering_Icon_MainQuantumDrive"
	 xmlns="http://www.w3.org/2000/svg" xmlns:xlink="http://www.w3.org/1999/xlink" x="0px" y="0px" viewBox="0 0 1204.7 1204.7"
	 overflow="visible" xml:space="preserve">
<path d="M184.4,869h9V334.5h-9c-44.8,0-81.1,36.3-81.1,81.1v22.2c0,3.3,1.9,6.4,4.8,8l32.4,17c3,1.6,4.8,4.6,4.8,8v255.5
	c0,3.5-2,6.7-5.2,8.2l-31.7,14.7c-3.2,1.5-5.2,4.7-5.2,8.2v30.6C103.3,832.7,139.6,869,184.4,869L184.4,869z"/>
<path d="M1020.3,869h-9V334.5h9c44.8,0,81.1,36.3,81.1,81.1v22.2c0,3.3-1.9,6.4-4.8,8l-32.4,17c-3,1.6-4.8,4.6-4.8,8v255.5
	c0,3.5,2,6.7,5.2,8.2l31.7,14.7c3.2,1.5,5.2,4.7,5.2,8.2v30.6C1101.4,832.7,1065.1,869,1020.3,869L1020.3,869z"/>
<path d="M529.7,604c9.8,12.7,21,25.4,33.2,37.6c12.2,12.2,24.9,23.4,37.6,33.2c12.8-9.9,26.1-21.5,39.6-35
	c12.9-12.9,24.7-26.3,35-39.7c-9.8-12.7-21-25.4-33.2-37.6c-12.2-12.2-24.9-23.3-37.6-33.2c-13.4,10.3-26.8,22-39.7,35
	C551.7,577.2,540,590.6,529.7,604L529.7,604z M602.4,578.9c12.8,0,23.2,10.4,23.2,23.2s-10.4,23.2-23.2,23.2s-23.2-10.4-23.2-23.2
	S589.5,578.9,602.4,578.9z"/>
<path d="M691.1,577.3c7.1-11.1,13.1-22.1,17.7-32.6c11-25.2,12.9-45.8,4.8-53.9c-3.3-3.3-8.8-5-15.9-5c-10,0-23.2,3.3-38,9.8
	c-10.5,4.6-21.5,10.6-32.6,17.7c11.4,9.2,22.8,19.4,33.7,30.3C671.7,554.6,681.9,565.9,691.1,577.3L691.1,577.3z"/>
<path d="M508.8,485.1c-7.8,0-13.9,1.9-17.7,5.7c-8.7,8.7-7.4,29.4,3.6,55.3c4.8,11.4,11.2,23.2,18.9,35.1
	c9.7-12.2,20.5-24.2,32.2-35.9c11.6-11.6,23.7-22.4,35.9-32.2c-12-7.7-23.8-14.1-35.2-18.9C531.8,488.2,518.9,485.1,508.8,485.1
	L508.8,485.1z"/>
<path d="M513.6,626.8c-7.1,11.1-13.1,22.1-17.7,32.6c-11,25.2-12.9,45.8-4.8,53.9c10.8,10.8,44.4,4.6,86.6-22.5
	c-11.5-9.2-22.8-19.4-33.8-30.4C533,649.6,522.8,638.3,513.6,626.8L513.6,626.8z"/>
<path d="M659,658.7c-11.4,11.4-23.5,22.2-36,32.1c12,7.7,23.9,14.1,35.3,18.9c25.9,11,46.6,12.3,55.3,3.6c8.7-8.7,7.4-29.4-3.6-55.3
	c-4.8-11.4-11.2-23.2-18.9-35.1C681.4,635,670.7,647.1,659,658.7z"/>
<path d="M879.3,252.7H325.4c-28.3,28.3-44.1,44.1-72.4,72.4V879c28.3,28.3,44.1,44.1,72.4,72.4h553.9l72.4-72.4V325.1
	C923.4,296.8,907.6,281,879.3,252.7L879.3,252.7z M912.4,613.4L615,910.7c-3.2,3.2-7.5,5-12,5s-8.8-1.8-12-5L293.7,613.4
	c-6.6-6.6-6.6-17.3,0-24L591,292.1c3.2-3.2,7.5-5,12-5s8.8,1.8,12,5l297.4,297.4C919,596,919,606.8,912.4,613.4z"/>
<path d="M329.6,601.4L603,874.8l273.4-273.4L603,328L329.6,601.4L329.6,601.4z M649,471.1c37.1-16.3,66.8-16,83.6,0.8
	c16.8,16.8,17.1,46.4,0.8,83.6c-6.3,14.4-14.9,29.5-25.3,44.7c11.1,16.1,20.1,32.1,26.6,47.5c15.8,37.4,15.1,67.5-2.1,84.7
	c-9,9-21.5,13.5-36.7,13.5c-13.9,0-30.1-3.8-48-11.3c-15.4-6.5-31.5-15.6-47.7-26.7c-33.1,22.6-66.8,37.5-93.4,37.5
	c-13.8,0-25.7-4-34.6-12.9c-16.8-16.8-17.1-46.4-0.8-83.6c6.3-14.4,14.9-29.5,25.3-44.7c-11.1-16.1-20.1-32.1-26.6-47.5
	c-15.8-37.4-15.1-67.5,2.1-84.7c17.2-17.2,47.3-18,84.7-2.1c15.4,6.5,31.4,15.5,47.5,26.6C619.5,485.9,634.6,477.4,649,471.1
	L649,471.1z"/>
</svg>
