<?xml version="1.0" encoding="utf-8"?>
<!-- Generator: Adobe Illustrator 27.9.0, SVG Export Plug-In . SVG Version: 6.00 Build 0)  -->
<svg version="1.1" baseProfile="tiny" id="Icons" xmlns="http://www.w3.org/2000/svg" xmlns:xlink="http://www.w3.org/1999/xlink"
	 x="0px" y="0px" viewBox="0 0 600 600" overflow="visible" xml:space="preserve">
<g id="Underclock">
	<path d="M300,285c-10.4,0-20.3,2.4-29.1,6.7L136.9,157.6l-29.7,29.7l21.1,21.1c-33.5,40.1-51.8,90.2-51.8,143c0,0.2,0,0.3,0,0.5h42
		c0-0.2,0-0.3,0-0.5c0-42.7,14.9-82.1,39.7-113.1l82.7,82.7c-4.7,9.1-7.4,19.5-7.4,30.4c0,36.7,29.8,66.5,66.5,66.5
		s66.5-29.8,66.5-66.5S336.7,285,300,285z M300,376c-13.5,0-24.5-11-24.5-24.5s11-24.5,24.5-24.5s24.5,11,24.5,24.5
		S313.5,376,300,376z"/>
	<path d="M458,193.5c-42.2-42.2-98.3-65.5-158-65.5c-38,0-74.6,9.5-107.1,27.2l31.4,31.4C247.3,176,273,170,300,170
		c100.1,0,181.5,81.4,181.5,181.5c0,0.2,0,0.3,0,0.5h42c0-0.2,0-0.3,0-0.5C523.5,291.8,500.2,235.7,458,193.5z"/>
</g>
</svg>
