<?xml version="1.0" encoding="utf-8"?>
<!-- Generator: Adobe Illustrator 27.9.0, SVG Export Plug-In . SVG Version: 6.00 Build 0)  -->
<svg version="1.1" baseProfile="tiny" id="Icons" xmlns="http://www.w3.org/2000/svg" xmlns:xlink="http://www.w3.org/1999/xlink"
	 x="0px" y="0px" viewBox="0 0 600 600" overflow="visible" xml:space="preserve">
<g id="Lights_on">
	<path d="M238.5,423h123c8.3,0,15,6.7,15,15v26c0,8.3-6.7,15-15,15h-123c-8.3,0-15-6.7-15-15v-26C223.5,429.7,230.2,423,238.5,423z"
		/>
	<path d="M469.5,229.5C469.5,135.9,393.6,60,300,60s-169.5,75.9-169.5,169.5c0,36.4,11.5,70.2,31.1,97.8l44.1,76.7h188.7l44.1-76.7
		C458,299.7,469.5,265.9,469.5,229.5L469.5,229.5z"/>
	<path d="M235.9,501.3c12.1,23,36.3,38.7,64.1,38.7s52-15.7,64.1-38.7c-0.8-1.5-1.7-3-2.8-4.3H238.7
		C237.6,498.3,236.7,499.8,235.9,501.3z"/>
</g>
</svg>
