<?xml version="1.0" encoding="utf-8"?>
<!-- Generator: Adobe Illustrator 28.5.0, SVG Export Plug-In . SVG Version: 9.03 Build 54727)  -->
<svg version="1.1" baseProfile="tiny" id="Engineering_Icon_MainDoorOpen"
	 xmlns="http://www.w3.org/2000/svg" xmlns:xlink="http://www.w3.org/1999/xlink" x="0px" y="0px" viewBox="0 0 1204.7 1204.7"
	 overflow="visible" xml:space="preserve">
<path d="M820.8,301.6v593.2h105.3V301.6H820.8z M876.5,646.9h-33.8v-114h33.8V646.9z M283.7,301.6v593.2H389V301.6H283.7z
	 M333.3,532.9h33.8v114h-33.8V532.9z M503.7,465.6c0,24.1,0,80.4,0,80.4h-40.2c-5.4,5.4-8,8-13.4,13.4v237.1
	c16.1,16.1,24.1,24.1,40.2,40.2h265.2c5.4-5.4,8-8.1,12.1-12.1V586.1c-16.1-16.1-24.1-24.1-40.2-40.2h-12.1c0-13.4,0-64.1,0-80.4
	c0-56.5-40.2-105.1-106.5-105.1S503.7,414.2,503.7,465.6z M668.5,460.2v85.7H550.6v-85.7c0-32.1,25.4-58.9,58.9-58.9
	C641.7,401.3,668.5,426.8,668.5,460.2z M1006.2,990.9h-805c-11.5,0-20.8-9.3-20.8-20.8V231.7c0-11.5,9.3-20.8,20.8-20.8h805
	c11.5,0,20.8,9.3,20.8,20.8V970C1027,981.5,1017.7,990.9,1006.2,990.9L1006.2,990.9z M222,949.2h763.4V252.5H222V949.2L222,949.2z"
	/>
</svg>
