<?xml version="1.0" encoding="utf-8"?>
<!-- Generator: Adobe Illustrator 27.9.0, SVG Export Plug-In . SVG Version: 6.00 Build 0)  -->
<svg version="1.1" baseProfile="tiny" id="Engineering_Icon_MainRack"
	 xmlns="http://www.w3.org/2000/svg" xmlns:xlink="http://www.w3.org/1999/xlink" x="0px" y="0px" viewBox="0 0 1204.7 1204.7"
	 overflow="visible" xml:space="preserve">
<rect x="396.9" y="388.6" width="76.1" height="58"/>
<rect x="908.8" y="388.6" width="76.1" height="58"/>
<rect x="396.9" y="618.3" width="76.1" height="58"/>
<rect x="908.8" y="618.3" width="76.1" height="58"/>
<path d="M1012.5,441.6v29.8H881.2v-29.8H500.6v29.8H369.3v-29.8H67.8v43.3c39.4,39.4,61.5,61.5,100.9,100.9h935.6l28.8-28.8V441.6
	L1012.5,441.6L1012.5,441.6z"/>
<path d="M1012.5,701.1H881.2v-29.8H500.6v29.8H369.3v-29.8H67.8v43.3c39.4,39.4,61.5,61.5,100.9,100.9h935.6l28.8-28.8V671.3h-120.6
	V701.1L1012.5,701.1z"/>
</svg>
