<?xml version="1.0" encoding="utf-8"?>
<!-- Generator: Adobe Illustrator 27.9.0, SVG Export Plug-In . SVG Version: 6.00 Build 0)  -->
<svg version="1.1" baseProfile="tiny" id="Engineering_Icon_MainAirlockClosed"
	 xmlns="http://www.w3.org/2000/svg" xmlns:xlink="http://www.w3.org/1999/xlink" x="0px" y="0px" viewBox="0 0 1204.7 1204.7"
	 overflow="visible" xml:space="preserve">
<path d="M687.7,244.7c-28-6.8-57.2-10.5-87.2-10.5c-202.6,0-366.8,164.2-366.8,366.8c0,143.3,82.2,267.3,202,327.7V723L687.7,471
	L687.7,244.7L687.7,244.7z M360.4,538.3l180.5-180.5l10.4,190.9L360.4,538.3L360.4,538.3z"/>
<path d="M741.2,262.1v231L489.2,745.1v205.3c35.1,11.2,72.5,17.2,111.2,17.2c202.6,0,366.8-164.2,366.8-366.8
	C967.2,448.2,873.9,317.3,741.2,262.1L741.2,262.1z M652.4,853L642,662l190.9,10.4L652.4,853L652.4,853z"/>
<path d="M600.5,1058c-252.1,0-457.2-205.1-457.2-457.2s205.1-457.2,457.2-457.2s457.2,205.1,457.2,457.2S852.6,1058,600.5,1058z
	 M600.5,182.3c-230.8,0-418.6,187.8-418.6,418.6s187.8,418.6,418.6,418.6s418.6-187.8,418.6-418.6S831.3,182.3,600.5,182.3
	L600.5,182.3z"/>
</svg>
