<?xml version="1.0" encoding="utf-8"?>
<!-- Generator: Adobe Illustrator 27.9.0, SVG Export Plug-In . SVG Version: 6.00 Build 0)  -->
<svg version="1.1" baseProfile="tiny" id="Engineering_Icon_MainRadar"
	 xmlns="http://www.w3.org/2000/svg" xmlns:xlink="http://www.w3.org/1999/xlink" x="0px" y="0px" viewBox="0 0 1204.7 1204.7"
	 overflow="visible" xml:space="preserve">
<polygon points="346.5,1061.7 277.4,1011.5 279.5,764.3 346.5,746.8 "/>
<path d="M331.3,701.2c-17.1-39.7-29.5-82.7-36.3-125.3c-15.4,4.5-54.1,16.5-70,21.1c-11.3,3.3-19.6,13.4-20.8,25
	c-2.7,6.7,20.3,72.3,21.8,80.1c4.4,15.3,21.6,24.4,36.8,19.9L331.3,701.2z"/>
<path d="M655.3,922.6c-47-153.8-163.8-540.5-214-698.1c-3.3-4.9-9.8-7.4-15.5-5.8c-11.2,3.3-18.4,23.8-25.3,33.3
	c-44.8,78.6-67.2,167.3-63.6,259.2c5.6,184.3,126.9,358.6,298.2,426.9c4,1.6,8.6,1.5,12.4-0.4l0,0
	C652.7,935,656.8,928.5,655.3,922.6L655.3,922.6z"/>
<path d="M945.2,809.1c-4.1,0-8.3-1-12.2-3.1c-12.6-6.7-17.4-22.4-10.6-35c54-101,65.4-216.9,32.1-326.4
	C921.3,335,847.4,245,746.4,191.1c-12.6-6.7-17.4-22.4-10.6-35c6.7-12.6,22.4-17.4,35-10.6c113.1,60.5,196,161.4,233.2,284.1
	c37.3,122.8,24.5,252.7-36,365.8C963.4,804.1,954.4,809.1,945.2,809.1L945.2,809.1z"/>
<path d="M823.1,765.6c-4.1,0-8.3-1-12.2-3.1c-12.6-6.7-17.4-22.4-10.6-35C883.4,572,824.5,378,669,294.9
	c-12.6-6.7-17.4-22.4-10.6-35c6.7-12.6,22.4-17.4,35-10.6c180.6,96.5,249,322,152.5,502.6C841.3,760.7,832.4,765.6,823.1,765.6
	L823.1,765.6z"/>
<path d="M700.8,719.9c-4.1,0-8.3-1-12.2-3.1c-12.6-6.7-17.4-22.4-10.6-35c26.1-48.9,31.6-105,15.6-158.1
	c-16.1-53-51.9-96.6-100.8-122.8c-12.6-6.7-17.4-22.4-10.6-35c6.7-12.6,22.4-17.4,35-10.6c61,32.7,105.7,87.2,125.8,153.5
	s13.2,136.4-19.4,197.5C718.9,714.9,710,719.9,700.8,719.9L700.8,719.9z"/>
</svg>
