<?xml version="1.0" encoding="utf-8"?>
<!-- Generator: Adobe Illustrator 27.9.0, SVG Export Plug-In . SVG Version: 6.00 Build 0)  -->
<svg version="1.1" baseProfile="tiny" id="Engineering_Icon_MainCPU"
	 xmlns="http://www.w3.org/2000/svg" xmlns:xlink="http://www.w3.org/1999/xlink" x="0px" y="0px" viewBox="0 0 1204.7 1204.7"
	 overflow="visible" xml:space="preserve">
<g>
	<path d="M602.3,163.2c-84.2,0-162.9,12-221.7,33.8c-57.7,21.4-78.2,45.9-78.2,60.5s20.5,39.1,78.2,60.5
		c58.8,21.8,137.5,33.8,221.7,33.8s162.9-12,221.7-33.8c57.7-21.4,78.2-45.9,78.2-60.5S881.8,218.4,824,197
		C765.2,175.2,686.5,163.2,602.3,163.2z"/>
	<path d="M842.6,368.1C778,392,692.7,405.2,602.3,405.2S426.7,392,362.1,368.1c-23.3-8.6-43.3-18.4-59.6-29.3v608.4
		c0,14.5,20.5,39.1,78.2,60.5c58.8,21.8,137.5,33.8,221.7,33.8s162.9-12,221.7-33.8c57.7-21.4,78.2-45.9,78.2-60.5V338.8
		C885.9,349.7,865.9,359.5,842.6,368.1z M434.2,909.9c0,17-13.8,30.8-30.8,30.8h0c-17,0-30.8-13.8-30.8-30.8V481.6
		c0-17,13.8-30.8,30.8-30.8h0c17,0,30.8,13.8,30.8,30.8V909.9z"/>
</g>
</svg>
