<?xml version="1.0" encoding="utf-8"?>
<!-- Generator: Adobe Illustrator 27.9.0, SVG Export Plug-In . SVG Version: 6.00 Build 0)  -->
<svg version="1.1" baseProfile="tiny" id="Engineering_Icon_MainTurretSeat"
	 xmlns="http://www.w3.org/2000/svg" xmlns:xlink="http://www.w3.org/1999/xlink" x="0px" y="0px" viewBox="0 0 1204.7 1204.7"
	 overflow="visible" xml:space="preserve">
<path d="M823.8,847.9c5,13.8,20.4,21,34.2,16c13.8-5,21-20.4,16-34.2l-71.4-189.9c-6-15.7-21.1-26.1-38-26.1l-363.1-0.5
	c-14.8,0-26.8,12-26.8,26.8s12,26.8,26.8,26.8l336.7,0.4c10.4,0,19.7,6.4,23.4,16L823.8,847.9L823.8,847.9z"/>
<path d="M230.5,256.9l32.3-12.3l8.8-3.3c17.1-6.5,36.3,2.1,42.9,19.2l10.1-3.8c16.5-6.3,35,2,41.3,18.5l44.6,110.6
	c6.3,16.5-2,35-18.5,41.3l-10.1,3.8L438.6,580h-37c-33.1,0-60.1,26.9-60.1,60.1c0,33.1,26.9,60.1,60.1,60.1h74.3
	c-3.3,12-12.1,22.3-24.6,27.1l-2,0.8l32.5,85.4l283.8-28.3l26.9,74.2c8.8,24.4,31.9,39.5,56.4,39.5c6.8,0,13.6-1.2,20.3-3.6
	c31.1-11.3,47.2-45.7,35.9-76.8l-16.5-45.6l72.6-7.2c19.2-1.9,35.9,13.2,35.9,32.5v92.1c0,40.9-33.1,74-74,74H433.3L209.4,301.7
	C203.2,283.5,212.6,263.8,230.5,256.9L230.5,256.9z"/>
</svg>
