<?xml version="1.0" encoding="utf-8"?>
<!-- Generator: Adobe Illustrator 22.1.0, SVG Export Plug-In . SVG Version: 6.00 Build 0)  -->
<svg version="1.2" baseProfile="tiny" id="Layer_1" xmlns="http://www.w3.org/2000/svg" xmlns:xlink="http://www.w3.org/1999/xlink"
	 x="0px" y="0px" width="595.3px" height="841.9px" viewBox="0 0 595.3 841.9" xml:space="preserve">
<g>
	<path fill="#7C7C7C" d="M446.2,286.8C446.2,286.7,446.2,286.7,446.2,286.8c-1-1.2-2-2.2-3.1-3.3c-0.1-0.1-0.2-0.3-0.4-0.4
		c-1.1-1.2-2.2-2.3-3.3-3.4c0,0,0,0-0.1-0.1l0,0c-0.1-0.1-0.1-0.1-0.2-0.2c-1.1-1.1-2.2-2.2-3.3-3.2c-0.1-0.1-0.3-0.2-0.4-0.4
		c-1.1-1-2.1-2-3.2-3c0,0,0,0-0.1-0.1c-2.4-2.2-4.9-4.3-7.4-6.4c0,0,0,0,0,0l0,0C390.3,238,346.2,221,298,221
		c-110.5,0-200,89.5-200,200c0,51.7,19.6,98.8,51.8,134.2c0,0,0,0,0.1,0.1c1,1.1,2,2.2,3,3.3c0.1,0.1,0.2,0.2,0.3,0.4
		c1.1,1.2,2.3,2.3,3.4,3.5l0,0c0,0,0,0,0.1,0.1c1.1,1.1,2.3,2.2,3.4,3.3c0.1,0.1,0.2,0.2,0.4,0.3c1.1,1,2.2,2,3.3,3c0,0,0,0,0.1,0.1
		c2.4,2.2,4.9,4.3,7.4,6.4c0,0,0,0,0,0l0,0C205.7,604,249.8,621,298,621c110.5,0,200-89.5,200-200
		C498,369.3,478.4,322.2,446.2,286.8z M171.4,294.4c18.6-18.6,40.5-32.5,64.4-41.4l26.8,35.8l5.3-44.3c9.9-1.7,19.9-2.5,30.1-2.5
		s20.3,0.9,30.1,2.5l5.3,44.3l26.8-35.8c19.3,7.1,37.3,17.6,53.3,31.2L161.3,536.5c-13.6-16-24.1-34-31.2-53.3l35.8-26.8l-44.3-5.3
		c-1.7-9.9-2.5-19.9-2.5-30.1s0.9-20.3,2.5-30.1l44.3-5.3l-35.8-26.8C138.9,334.9,152.9,313,171.4,294.4z M424.6,547.6
		c-18.6,18.6-40.5,32.5-64.4,41.4l-26.8-35.8l-5.3,44.3c-9.9,1.7-19.9,2.5-30.1,2.5s-20.3-0.9-30.1-2.5l-5.3-44.3l-26.8,35.8
		c-19.3-7.1-37.3-17.6-53.3-31.2l252.3-252.3c13.6,16,24.1,34,31.2,53.3l-35.8,26.8l44.3,5.3c1.7,9.9,2.5,19.9,2.5,30.1
		s-0.9,20.3-2.5,30.1l-44.3,5.3l35.8,26.8C457.1,507.1,443.1,529,424.6,547.6z"/>
</g>
</svg>
