<?xml version="1.0" encoding="utf-8"?>
<!-- Generator: Adobe Illustrator 22.1.0, SVG Export Plug-In . SVG Version: 6.00 Build 0)  -->
<svg version="1.2" baseProfile="tiny" id="Layer_1" xmlns="http://www.w3.org/2000/svg" xmlns:xlink="http://www.w3.org/1999/xlink"
	 x="0px" y="0px" width="595.3px" height="841.9px" viewBox="0 0 595.3 841.9" xml:space="preserve">
<path fill="#CECECE" d="M298,221c-110.5,0-200,89.5-200,200s89.5,200,200,200s200-89.5,200-200S408.5,221,298,221z M403.2,287.5
	l-32.1,32.1C350,304.3,324.6,296,298,296s-52,8.3-73.1,23.6l-32.1-32.1C222.6,263.8,259.3,251,298,251S373.4,263.8,403.2,287.5z
	 M298,541c-66.3,0-120-53.7-120-120s53.7-120,120-120s120,53.7,120,120S364.3,541,298,541z M128,421c0-38.7,12.8-75.4,36.5-105.2
	l32.1,32.1C181.3,369,173,394.4,173,421c0,26.6,8.3,52,23.6,73.1l-32.1,32.1C140.8,496.4,128,459.7,128,421z M192.8,554.5l32.1-32.1
	C246,537.7,271.4,546,298,546s52-8.3,73.1-23.6l32.1,32.1C373.4,578.2,336.7,591,298,591S222.6,578.2,192.8,554.5z M431.5,526.2
	l-32.1-32.1C414.7,473,423,447.6,423,421c0-26.6-8.3-52-23.6-73.1l32.1-32.1C455.2,345.6,468,382.3,468,421S455.2,496.4,431.5,526.2
	z"/>
</svg>
