<?xml version="1.0" encoding="utf-8"?>
<!-- Generator: Adobe Illustrator 22.1.0, SVG Export Plug-In . SVG Version: 6.00 Build 0)  -->
<svg version="1.2" baseProfile="tiny" id="Layer_1" xmlns="http://www.w3.org/2000/svg" xmlns:xlink="http://www.w3.org/1999/xlink"
	 x="0px" y="0px" width="595.3px" height="841.9px" viewBox="0 0 595.3 841.9" xml:space="preserve">
<path fill="#CECECE" d="M310,221c-99.4-1-182.3,70.7-198.9,165.1c-0.4,2.5,1.5,4.8,4.1,4.8h22.1c2,0,3.7-1.4,4-3.3
	c6.5-32.7,22.4-62.8,46.5-86.9C219.9,268.7,262.6,251,308,251s88.1,17.7,120.2,49.8C460.3,332.9,478,375.6,478,421
	s-17.7,88.1-49.8,120.2C396.1,573.3,353.4,591,308,591s-88.1-17.7-120.2-49.8c-24.1-24.1-40.1-54.2-46.5-86.9
	c-0.4-1.9-2.1-3.3-4-3.3h-22.1c-2.6,0-4.5,2.3-4.1,4.8C127.5,549.7,209.4,621,308,621c110.5,0,200-89.5,200-200
	C508,311,420,222.1,310,221z"/>
</svg>
