<?xml version="1.0" encoding="utf-8"?>
<!-- Generator: Adobe Illustrator 22.1.0, SVG Export Plug-In . SVG Version: 6.00 Build 0)  -->
<svg version="1.2" baseProfile="tiny" id="Layer_1" xmlns="http://www.w3.org/2000/svg" xmlns:xlink="http://www.w3.org/1999/xlink"
	 x="0px" y="0px" width="595.3px" height="841.9px" viewBox="0 0 595.3 841.9" xml:space="preserve">
<g>
	<path fill="#CECECE" d="M226.5,317.8L226.5,317.8l-0.6,0.5c-2.2,1.7-4.3,3.6-6.4,5.4l-1.1,1l8.8,9.6l1.1-1c4-3.7,8.4-7.1,12.9-10.2
		l1.2-0.8l-7.3-10.7l-1.2,0.8c-2,1.4-4.1,2.9-6,4.4l-0.6,0.4l0.9,1.2l-1-1.1l-0.3,0.2l0,0l-0.1,0.1l0.9,1.2L226.5,317.8L226.5,317.8
		z M228.1,318.4L228.1,318.4L228.1,318.4L228.1,318.4z"/>
	<path fill="#CECECE" d="M258.5,542.9L258.5,542.9l0.8,0.3c3.1,1.2,6.2,2.4,9.4,3.3l1.4,0.4l3.9-12.4l-1.4-0.4
		c-5.2-1.6-10.3-3.6-15.3-6l-1.4-0.6l-4.9,10.4l-0.6,1.4l1.4,0.6l0,0l0.9,0.4l0,0l1.4,0.6l0,0l0.4,0.2l0.4,0.1l0,0l0.1,0l0,0l0,0
		l0,0L258.5,542.9z M255.1,541.1l0.1-0.3l0.4-0.8l0,0l-0.4,1L255.1,541.1z M256.9,540.6L256.9,540.6L256.9,540.6L256.9,540.6z
		 M258.6,541.3L258.6,541.3L258.6,541.3L258.6,541.3z"/>
	<path fill="#CECECE" d="M219.3,518.1C219.4,518.1,219.4,518.1,219.3,518.1L219.3,518.1L219.3,518.1z"/>
	<path fill="#CECECE" d="M227.5,525L227.5,525l1,0.8h0.1c1.6,1.2,3.2,2.4,4.9,3.5l1.2,0.9l7.4-10.7l-1.2-0.9
		c-4.5-3.1-8.8-6.5-12.8-10.2l-1.1-1l-7.8,8.5l-1,1.1l1.1,1l0.2,0.2l0,0c0,0,0,0,0,0l0,0c0,0,0,0,0.1,0.1l1-1.1l-0.9,1.2l0.1,0.1
		c0,0,0,0,0.1,0.1l0.8,0.8h0.1l0,0l0.4,0.3l1.1-1.1c0,0,0,0,0,0l-1,1.2l0.1,0.1l0,0l2.2,1.9l0,0l0.1,0.1l1-1.1l0,0l0,0l0,0l-0.8,1.1
		l-0.1,0.1l0,0l0,0l0,0l0.4,0.3l0,0l0.1,0.1l0,0l0.1,0.1c0,0,0,0,0,0l0.6,0.5l1-1.1l-0.8,1.2l0,0l0,0l0,0l0,0l0,0l0.2,0.2l0.2,0.1
		l0,0l0.1,0.1l0,0l0,0l0,0l0.1,0.1l0,0l0,0l0.2,0.2l0,0l0,0l0,0l0,0l0,0l0.2,0.2l0,0l0.2,0.5h0.3l-0.5-0.5l0.6,0.5L227.5,525z
		 M223.9,520.2L223.9,520.2L223.9,520.2L223.9,520.2z M228,524.4l-0.2,0.1l0.6-0.7L228,524.4z M228.4,523.8L228.4,523.8L228.4,523.8
		L228.4,523.8z M220.9,517.9l-0.1,0.1l0.3-0.3L220.9,517.9z M221.2,518.4l0.3-0.3l0,0L221.2,518.4L221.2,518.4z M221.9,519.1
		l-0.2,0.2l0.6-0.6L221.9,519.1z M223.6,520.7L223.6,520.7l0.4-0.5c0,0,0,0,0,0l-0.3,0.4L223.6,520.7z M223.9,521.7l0.8-0.9l0,0
		l-0.4,0.5L223.9,521.7z M224.3,521.8l0.2-0.3l0.4-0.5L224.3,521.8z M225.5,521.4L225.5,521.4L225.5,521.4L225.5,521.4z
		 M225.6,521.5L225.6,521.5L225.6,521.5L225.6,521.5z M226.1,522.7l-0.5,0.5l0.8-0.9L226.1,522.7z"/>
	<path fill="#CECECE" d="M250.8,302.5l5.5,11.8l1.4-0.6c4.9-2.3,10.1-4.3,15.3-5.9l1.4-0.4l-3.8-12.4l-1.4,0.4
		c-4,1.2-8.1,2.7-11.9,4.3l-0.5,0.2l0,0l-1.4,0.6l0.6,1.4l-0.7-1.3l-0.6,0.3l0.6,1.4l-0.7-1.3l-0.1,0.1l0.6,1.4l-0.7-1.3l-0.9,0.4
		c0,0,0,0,0,0l-0.1,0c0,0,0,0,0,0L250.8,302.5z M255,302.2C255,302.2,255,302.2,255,302.2L255,302.2L255,302.2z M254.4,302.5
		C254.4,302.5,254.4,302.5,254.4,302.5L254.4,302.5L254.4,302.5z"/>
	<path fill="#CECECE" d="M192.6,447.9l-0.3-1.5l-12.7,2.9l0.3,1.5c1.2,5.2,2.8,10.4,4.6,15.4l0.6,1.5c0,0,0,0,0,0l0.7,1.8l12.1-4.7
		l-0.5-1.4C195.4,458.5,193.8,453.2,192.6,447.9z"/>
	<path fill="#CECECE" d="M194.7,354.2l-0.8,1.3l11.2,6.6l0.8-1.3c2.8-4.7,5.9-9.2,9.3-13.5l0.9-1.2l-9-7.2l-1.2-0.9l-0.9,1.1l0,0
		l1.2,0.9l-1.2-0.9l1.1,1l-1.2-0.9l-0.4,0.5l1,0.7l0.2,0.2l-1.2-0.8l-1.1,1.4c-2.5,3.2-4.8,6.6-6.9,10l-0.3,0.6l0,0l0,0.1l0.3,0.1
		l1,0.6l-1.3-0.7l1.3,0.8l-1.2-0.7l-0.1,0l0,0l0,0l-0.1,0.1l0,0l-0.3,0.4C195.3,353.1,195,353.7,194.7,354.2z M197.3,352.9
		L197.3,352.9L197.3,352.9L197.3,352.9z"/>
	<path fill="#CECECE" d="M289.7,538.1l-1.8,12.9l1.5,0.2c5.8,0.8,11.8,1.3,17.8,1.3l1.9,0l0-13l-1.5,0c-5.5,0-11-0.4-16.4-1.2
		L289.7,538.1z"/>
	<path fill="#CECECE" d="M185.4,373.3c-2.1,5.5-3.9,11.1-5.3,16.8l-0.5,2l12.7,3l0.3-1.5c1.3-5.3,2.9-10.6,4.9-15.6l0.5-1.4
		l-12.1-4.7L185.4,373.3z"/>
	<path fill="#CECECE" d="M204.6,502.2l1.1,1.3l10.1-8l-0.9-1.2c-3.4-4.3-6.5-8.8-9.2-13.5l-0.8-1.3l-11.2,6.6l0.8,1.3
		c0.3,0.5,0.6,1,0.9,1.5l0.2,0.3l0,0l0.3,0.4l1.3-0.7l-0.7,0.5l-0.6,0.3l0,0.1l0,0l0.4,0.7l1.3-0.8c0,0,0,0,0,0l-1.2,0.9
		c2.4,3.8,5,7.5,7.7,11.1L204.6,502.2l1.2-1l0,0L204.6,502.2z M195.7,489.4C195.7,489.4,195.7,489.4,195.7,489.4L195.7,489.4
		L195.7,489.4z"/>
	<path fill="#CECECE" d="M305.8,289.5l0,1.5l-0.1-1.5l-3.5,0.1c-4.1,0.2-8.3,0.6-12.3,1.1l-1.5,0.2l1.8,12.9l1.5-0.2
		c5.4-0.7,10.9-1.1,16.4-1.1h1.5V291l-0.1-1.5l-2.7,0l0,1.5l-0.1-1.5L305.8,289.5z M306.1,291C306.1,291,306.1,291,306.1,291
		L306.1,291L306.1,291z"/>
	<path fill="#CECECE" d="M326.7,538l-1.5,0.2l2,12.8l1.5-0.2c6-0.9,11.9-2.3,17.7-4.1l1.4-0.4l-3.8-12.4l-1.4,0.4
		C337.4,536,332.1,537.2,326.7,538z"/>
	<polygon fill="#CECECE" points="329.8,291.3 329.8,291.3 329.9,291.3 	"/>
	<path fill="#CECECE" d="M329.5,291.7l0.1-0.4l-0.3,0v0l-0.6-0.1c-0.6-0.1-1.1-0.2-1.7-0.3l-1.5-0.2l-1.9,12.9l1.5,0.2
		c5.4,0.8,10.8,2,16,3.5l1.4,0.4l3.6-12.5l-1.4-0.4c-1.8-0.5-3.7-1-5.5-1.5l-0.2-0.1l-0.4,1.4l0,0l0.3-1.5l-0.1,0l-0.3,1.5l0,0
		l0.2-1.5l-0.4-0.1l-0.3,1.5l0,0l0.2-1.5l-0.3-0.1l-0.4,1.5c0,0,0,0,0,0l0.3-1.5l-0.3-0.1l-0.3,1.5l0,0l0.2-1.5l-0.2,0l-0.4,1.5
		l0.2-1.5l-0.1,0l-0.4,1.5l0,0l0.2-1.5l-1.5-0.3l0,0l-0.8-0.2v0l-2.3-0.5l0,0l-0.3-0.1h-0.4v0.5l-0.2,1l0,0l0.2-1.5c0,0-0.1,0-0.1,0
		l-0.3-0.1l-0.2,1.5l0.1-1.5l-0.3-0.1l-0.3,1.5l0,0l0.2-1.5l-0.4-0.1l0,0l-0.2,0l-0.2,1.5l0,0l0.1-1.5l-0.2,0v0l0,0l-0.3,1.5l0,0
		L329.5,291.7z M338.3,294.6L338.3,294.6L338.3,294.6L338.3,294.6z M337.1,294.3L337.1,294.3L337.1,294.3L337.1,294.3z M335.2,292.8
		l-0.2,1l0,0l0.1-0.8L335.2,292.8z M334.9,293.8L334.9,293.8L334.9,293.8L334.9,293.8z M331.9,292.8l0.1-0.4l-0.2,0.8l0,0
		L331.9,292.8z"/>
	<path fill="#CECECE" d="M377.5,309.4L377.5,309.4l-0.8-0.5c-3.9-2.4-7.9-4.6-12-6.5l-1.4-0.6l-5.6,11.7l1.4,0.6
		c2.7,1.3,5.4,2.7,8.2,4.3c0.1,0,0.1,0.1,0.2,0.1v205.1c-0.1,0-0.1,0.1-0.2,0.1c-2.3,1.3-4.6,2.6-6.9,3.7l-1.3,0.7l5.8,11.6l1.6-0.8
		l1-0.5c0,0,0,0-0.1,0l0.1,0l2.2-1.1l0,0l0.5-0.3l0.9-0.5c2.4-1.3,4.8-2.7,7.2-4.3c0.9-0.6,1.8-1.2,2.7-1.8l0.7-0.4l-0.2-217.4
		l0-0.8l-1-0.7l-0.1-0.1L380,311l-0.1-0.1l-0.3-0.2l0,0l-0.4-0.3v0l-0.2-0.1l0,0l-0.7-0.5l0,0l0,0l-0.1-0.1l-0.1-0.1L377.5,309.4z"
		/>
	<path fill="#CECECE" d="M367.4,538.3L367.4,538.3L367.4,538.3L367.4,538.3C367.4,538.4,367.4,538.4,367.4,538.3z"/>
	<path fill="#CECECE" d="M270.9,500.9l14.1,17.1l72.9-72.9v-48.3l-72.9-72.9l-14.1,17.1l66.9,66.9H92.1c-2.3,0-4.1,1.8-4.1,4.1v17.8
		c0,2.3,1.8,4.1,4.1,4.1h245.7L270.9,500.9z"/>
</g>
</svg>
