<?xml version="1.0" encoding="utf-8"?>
<!-- Generator: Adobe Illustrator 22.1.0, SVG Export Plug-In . SVG Version: 6.00 Build 0)  -->
<svg version="1.2" baseProfile="tiny" id="Layer_1" xmlns="http://www.w3.org/2000/svg" xmlns:xlink="http://www.w3.org/1999/xlink"
	 x="0px" y="0px" width="595.3px" height="841.9px" viewBox="0 0 595.3 841.9" xml:space="preserve">
<path fill="#7C7C7C" d="M407.8,390.2l-26.3-18.8l-27.2,27.2l20.4-6.8L363,438.9l-28.5-20.4l-38.9,38.9l20.4,28.5l-47.1,11.8
	l6.8-20.4l-27.2,27.2l18.8,26.3c1,1.3,2.6,2,4.2,1.7l69.3-20c6.7-1.9,13.9-1.3,20.1,1.8l11,5.5c1.7,0.9,3.8,0.5,5.2-0.8l19-19
	c1.4-1.4,1.7-3.4,0.8-5.2l-5.5-11c-3.1-6.2-3.8-13.4-1.8-20.1l20-69.3C409.8,392.9,409.2,391.2,407.8,390.2z"/>
<path fill="#7C7C7C" d="M205.7,363.5c6.7,14.8,16.1,28.3,27.6,39.8l6.1,6.1v36.2l83.3-83.3h-36.2l-6.1-6.1
	c-11.5-11.5-25-20.9-39.8-27.6l-37.3-17c-3-1.4-6.5-0.7-8.9,1.6l-2,2l-2,2c-2.3,2.3-3,5.9-1.6,8.9L205.7,363.5z"/>
</svg>
