<?xml version="1.0" encoding="utf-8"?>
<!-- Generator: Adobe Illustrator 27.8.0, SVG Export Plug-In . SVG Version: 6.00 Build 0)  -->
<svg version="1.1" baseProfile="tiny" id="Layer_1" xmlns="http://www.w3.org/2000/svg" xmlns:xlink="http://www.w3.org/1999/xlink"
	 x="0px" y="0px" viewBox="0 0 64 64" overflow="visible" xml:space="preserve">
<g>
	<polygon fill="#FFFFFF" points="57.4,42.7 43.3,64 41.2,64 45,49.9 37.6,49.9 43.2,30.8 54.5,30.8 49.9,42.7 	"/>
	<path fill="#FFFFFF" d="M51.6,21.3l-1,1h-5.4l3.7-3.7c3.4-3.4,3.4-8.9,0-12.2c-1.7-1.7-3.9-2.5-6.1-2.5c-2.2,0-4.4,0.8-6.1,2.5
		L24.3,18.7h0L35.5,30l-3.1,10.5L27.9,45c-2.4,2.4-5.6,3.7-8.8,3.7c-3.2,0-6.4-1.2-8.8-3.7c-4.9-4.9-4.9-12.8,0-17.7L34,3.7
		c4.9-4.9,12.8-4.9,17.7,0S56.5,16.4,51.6,21.3z"/>
</g>
</svg>
