<?xml version="1.0" encoding="utf-8"?>
<!-- Generator: Adobe Illustrator 27.8.0, SVG Export Plug-In . SVG Version: 6.00 Build 0)  -->
<svg version="1.1" baseProfile="tiny" id="Layer_1" xmlns="http://www.w3.org/2000/svg" xmlns:xlink="http://www.w3.org/1999/xlink"
	 x="0px" y="0px" viewBox="0 0 64 64" overflow="visible" xml:space="preserve">
<polygon fill="#FFFFFF" points="58.5,42.3 58.5,45.1 43.9,37.6 29.3,45.1 29.3,42.3 43.9,29.4 "/>
<polygon fill="#FFFFFF" points="58.5,61.2 58.5,64 43.9,56.5 29.3,64 29.3,61.2 43.9,48.3 "/>
<path fill="#FFFFFF" d="M50.5,21.3l-0.8,0.8l-1.5-1.3l-1.4-1.2l1-1c3.4-3.4,3.4-8.8,0-12.2c-1.7-1.7-3.9-2.5-6.1-2.5
	c-2.2,0-4.4,0.8-6.1,2.5L23.2,18.7l8.8,8.8l-10.6,9.3v11.3c-1.1,0.3-2.3,0.5-3.4,0.5c-3.2,0-6.4-1.2-8.8-3.7
	c-4.9-4.9-4.9-12.8,0-17.7L32.8,3.7c4.9-4.9,12.8-4.9,17.7,0C55.3,8.5,55.3,16.4,50.5,21.3z"/>
</svg>
