<?xml version="1.0" encoding="utf-8"?>
<!-- Generator: Adobe Illustrator 27.8.0, SVG Export Plug-In . SVG Version: 6.00 Build 0)  -->
<svg version="1.1" baseProfile="tiny" id="Layer_1" xmlns="http://www.w3.org/2000/svg" xmlns:xlink="http://www.w3.org/1999/xlink"
	 x="0px" y="0px" viewBox="0 0 64 64" overflow="visible" xml:space="preserve">
<path fill="#FFFFFF" d="M32,1.9C15.4,1.9,1.9,15.4,1.9,32c0,16.6,13.5,30.1,30.1,30.1c16.6,0,30.1-13.5,30.1-30.1
	C62.1,15.4,48.6,1.9,32,1.9z M26.6,16.6c1.6-6.5,3.9-9.9,5.4-9.9c1.5,0,3.8,3.4,5.4,9.9c0.1,0.6-0.3,1.1-0.8,1.1
	c-1.4,0.1-3,0.1-4.6,0.1c-1.6,0-3.1,0-4.6-0.1C26.9,17.7,26.5,17.2,26.6,16.6z M6.7,32c0-4.5,1.2-8.7,3.2-12.3
	c0.2-0.4,0.8-0.6,1.2-0.3c2.4,1.2,5.7,1.9,9.1,2.4c0.5,0.1,0.8,0.5,0.8,1c-0.3,3-0.5,6.2-0.5,9.3c0,1.3,0,2.5,0.1,3.8
	c0,0.6-0.5,1-1.1,0.9C11.1,35.5,6.7,33.2,6.7,32z M23,55.7C15.9,53,10.3,47.2,7.9,39.9c-0.2-0.7,0.5-1.4,1.2-1.1
	c3.1,1.2,7,2,11.2,2.6c0.4,0.1,0.7,0.4,0.8,0.8c0.6,4.6,1.6,8.9,3,12.3C24.4,55.2,23.7,55.9,23,55.7z M24.1,9.5
	c-0.9,2-1.6,4.4-2.1,6.9c-0.1,0.5-0.6,0.8-1,0.7c-3-0.4-5.2-0.9-6.7-1.4c-0.6-0.2-0.8-1-0.3-1.5c2.5-2.6,5.6-4.6,9-5.9
	C23.7,8.1,24.4,8.8,24.1,9.5z M32,57.3c-1.8,0-4.8-5-6.2-14.3c-0.1-0.6,0.4-1.1,1-1.1c1.8,0.1,3.5,0.1,5.3,0.1c1.7,0,3.5,0,5.3-0.1
	c0.6,0,1,0.5,0.9,1.1C36.8,52.4,33.8,57.3,32,57.3z M38.9,36.6c0,0.5-0.4,0.8-0.8,0.8c-1.9,0.1-3.9,0.2-6.1,0.2
	c-2.1,0-4.2-0.1-6.1-0.2c-0.5,0-0.8-0.4-0.8-0.8C25,35.1,25,33.6,25,32c0-3.3,0.2-6.3,0.5-9c0.1-0.5,0.5-0.8,1-0.8
	c2.3,0.1,4.2,0.2,5.5,0.2c1.3,0,3.3,0,5.5-0.2c0.5,0,0.9,0.3,1,0.8c0.3,2.7,0.5,5.7,0.5,9C39,33.6,39,35.1,38.9,36.6z M41,8.3
	c3.4,1.3,6.5,3.3,9,5.9c0.5,0.5,0.3,1.3-0.4,1.5c-1.5,0.5-3.7,1-6.7,1.4c-0.5,0.1-0.9-0.3-1-0.7c-0.6-2.6-1.3-4.9-2.1-6.9
	C39.5,8.8,40.3,8.1,41,8.3z M56.1,39.9c-2.4,7.2-8,13-15.1,15.7c-0.7,0.3-1.4-0.5-1.1-1.2c1.4-3.4,2.5-7.7,3-12.3
	c0.1-0.4,0.4-0.7,0.8-0.8c4.2-0.5,8.1-1.4,11.2-2.6C55.6,38.6,56.3,39.2,56.1,39.9z M44.5,36.7c-0.6,0.1-1.1-0.4-1.1-0.9
	c0.1-1.3,0.1-2.5,0.1-3.8c0-3.1-0.2-6.3-0.5-9.3c-0.1-0.5,0.3-0.9,0.8-1c3.4-0.5,6.8-1.2,9.1-2.4c0.4-0.2,1-0.1,1.2,0.3
	c2,3.7,3.2,7.9,3.2,12.3C57.3,33.2,52.9,35.5,44.5,36.7z"/>
</svg>
