<?xml version="1.0" encoding="utf-8"?>
<!-- Generator: Adobe Illustrator 27.8.0, SVG Export Plug-In . SVG Version: 6.00 Build 0)  -->
<svg version="1.1" baseProfile="tiny" id="Layer_1" xmlns="http://www.w3.org/2000/svg" xmlns:xlink="http://www.w3.org/1999/xlink"
	 x="0px" y="0px" viewBox="0 0 64 64" overflow="visible" xml:space="preserve">
<circle fill="#FFFFFF" cx="53.6" cy="27.9" r="5"/>
<path fill="#FFFFFF" d="M64,41.2c0,1.2-1,2.3-2.2,2.3l-8.9,0.1h0c-0.5,0-0.9-0.1-1.3-0.4l-6.8-4.9H23.5l-3.1,6.3
	c-0.3,0.5-0.7,1-1.3,1.2c-0.2,0.1-0.5,0.1-0.7,0.1c-0.4,0-0.7-0.1-1-0.3L7,40.2c-1.1-0.6-1.5-1.9-1-3l0,0c0.6-1.1,1.9-1.5,3-1
	l8.4,4.4l5.7-11.8c0.6-1.3,1.9-2.1,3.3-2.1h11.8l-2.1-4h-7.3c-1.2,0-2.2-1-2.2-2.2c0-1.2,1-2.2,2.2-2.2h8.7c0.8,0,1.6,0.5,2,1.2
	l7.1,13.4c0.7,1.3,1.6,2.4,2.8,3.2l4.2,3l8.2-0.1C63,39,64,40,64,41.2z"/>
<path fill="#FFFFFF" d="M17.9,31.2H2.2C1,31.2,0,30.2,0,29v0c0-1.2,1-2.2,2.2-2.2h18L17.9,31.2z"/>
</svg>
