<?xml version="1.0" encoding="utf-8"?>
<!-- Generator: Adobe Illustrator 27.8.0, SVG Export Plug-In . SVG Version: 6.00 Build 0)  -->
<svg version="1.1" baseProfile="tiny" id="Layer_1" xmlns="http://www.w3.org/2000/svg" xmlns:xlink="http://www.w3.org/1999/xlink"
	 x="0px" y="0px" viewBox="0 0 64 64" overflow="visible" xml:space="preserve">
<path fill="#FFFFFF" d="M39,17.3c-1.4-2.3-3.2-4.2-5.7-5.4c-2.4-1.2-5.3-1.9-8.5-1.9s-6,0.7-8.4,1.9c-2.4,1.3-4.3,3.2-5.7,5.4
	c-1.4,2.3-2.1,5-2.1,8.1v13.2c0,3.1,0.7,5.8,2.1,8.1c1.4,2.3,3.2,4.2,5.7,5.5c2.4,1.3,5.3,2,8.4,2c3.2,0,6.1-0.7,8.5-2
	c0.4-0.2,0.7-0.4,1.1-0.7c0-0.1,0-0.3,0-0.4V35.6c0-4.4,2.7-8.2,6.7-9.7v-0.5C41,22.3,40.4,19.6,39,17.3z M32.4,38.8
	c0,2.3-0.7,4.3-2.1,5.7c-1.4,1.5-3.2,2.2-5.5,2.2s-4.1-0.7-5.4-2.2c-1.4-1.5-2.1-3.4-2.1-5.7V25.3c0-2.3,0.7-4.3,2.1-5.7
	c1.4-1.5,3.2-2.2,5.4-2.2c2.3,0,4.2,0.7,5.5,2.2c1.4,1.5,2.1,3.4,2.1,5.7L32.4,38.8L32.4,38.8z"/>
<path fill="#FFFFFF" d="M46.7,47.4c0,0.1,0.1,0.1,0.1,0.1h8.2c0.1,0,0.2,0.1,0.3,0.1c0.1,0.1,0.1,0.1,0.1,0.3v3.8
	c0,0.1-0.1,0.2-0.1,0.3s-0.1,0.1-0.3,0.1H39.9c-0.1,0-0.2-0.1-0.3-0.1c-0.1-0.1-0.1-0.1-0.1-0.3v-3.6c0-0.2,0.1-0.4,0.2-0.5
	c1.3-1.2,3-2.9,5.1-5.2l1.9-2.1c2-2.1,2.9-3.5,2.9-4.4c0-0.7-0.2-1.2-0.7-1.5c-0.4-0.4-1-0.6-1.8-0.6c-0.7,0-1.3,0.2-1.8,0.6
	c-0.4,0.4-0.7,1-0.7,1.6v0.8c0,0.1-0.1,0.2-0.1,0.3c-0.1,0-0.1,0-0.3,0h-4.6c-0.1,0-0.2-0.1-0.3-0.1c-0.1-0.1-0.1-0.1-0.1-0.3v-1.6
	c0.1-1.2,0.5-2.3,1.2-3.2c0.7-0.9,1.6-1.6,2.8-2.1c1.2-0.5,2.4-0.7,3.9-0.7c1.6,0,3,0.3,4.2,0.9c1.2,0.6,2.1,1.4,2.7,2.4
	c0.7,1,1,2.1,1,3.4c0,0.9-0.2,1.8-0.7,2.7c-0.4,0.9-1.1,1.8-1.9,2.9c-0.6,0.7-1.2,1.5-2.1,2.2c-0.7,0.7-1.8,1.8-3.2,3l-0.7,0.6
	C46.7,47.3,46.7,47.3,46.7,47.4z"/>
</svg>
