<?xml version="1.0" encoding="utf-8"?>
<!-- Generator: Adobe Illustrator 27.8.0, SVG Export Plug-In . SVG Version: 6.00 Build 0)  -->
<svg version="1.1" baseProfile="tiny" id="Layer_1" xmlns="http://www.w3.org/2000/svg" xmlns:xlink="http://www.w3.org/1999/xlink"
	 x="0px" y="0px" viewBox="0 0 64 64" overflow="visible" xml:space="preserve">
<path fill="#FFFFFF" d="M29.7,37.4L39.5,48c-2.7,2.5-6.2,3.9-9.9,3.9c-7.9,0-14.5-6.5-14.5-14.5c0-7.9,6.4-14.4,14.3-14.5L29.7,37.4
	z"/>
<path fill="#FFFFFF" d="M60.9,32.2l-7.7-14.8l-4,2.1c-4.4-4.8-10.5-7.9-17.4-8.5V4.4H42V0H17.3v4.4h10.2v6.5
	C13.8,12,3.1,23.5,3.1,37.4C3.1,52.1,15,64,29.7,64c14.7,0,26.6-11.9,26.6-26.6c0-0.9-0.1-1.9-0.1-2.8L60.9,32.2z M29.7,59.6
	c-12.2,0-22.2-10-22.2-22.2c0-12.2,10-22.2,22.2-22.2c12.2,0,22.2,10,22.2,22.2C51.9,49.6,41.9,59.6,29.7,59.6z"/>
</svg>
