<?xml version="1.0" encoding="utf-8"?>
<!-- Generator: Adobe Illustrator 28.7.1, SVG Export Plug-In . SVG Version: 9.03 Build 54978)  -->
<svg version="1.1" baseProfile="tiny" id="Layer_1" xmlns="http://www.w3.org/2000/svg" xmlns:xlink="http://www.w3.org/1999/xlink"
	 x="0px" y="0px" viewBox="0 0 50 92.8" overflow="visible" xml:space="preserve">
<g>
	<rect x="0.3" y="1.9" transform="matrix(4.542748e-11 1 -1 4.542748e-11 12.054 1.6622)" width="9.9" height="9.9"/>
	<rect x="10.1" y="11.8" transform="matrix(4.561133e-11 1 -1 4.561133e-11 31.8346 1.6622)" width="9.9" height="9.9"/>
	<rect x="20" y="21.7" transform="matrix(4.340421e-11 1 -1 4.340421e-11 51.6152 1.6622)" width="9.9" height="9.9"/>
	<rect x="29.9" y="31.6" transform="matrix(4.542748e-11 1 -1 4.542748e-11 71.3958 1.6622)" width="9.9" height="9.9"/>
	<rect x="0.3" y="81" transform="matrix(6.123234e-17 -1 1 6.123234e-17 -80.7846 91.1764)" width="9.9" height="9.9"/>
	<rect x="10.1" y="71.1" transform="matrix(1.103179e-12 -1 1 1.103179e-12 -61.004 91.1764)" width="9.9" height="9.9"/>
	<rect x="20" y="61.3" transform="matrix(1.103179e-12 -1 1 1.103179e-12 -41.2234 91.1764)" width="9.9" height="9.9"/>
	<rect x="29.9" y="51.4" transform="matrix(6.123234e-17 -1 1 6.123234e-17 -21.4428 91.1764)" width="9.9" height="9.9"/>
	<rect x="39.8" y="41.5" transform="matrix(4.561133e-11 1 -1 4.561133e-11 91.1764 1.6622)" width="9.9" height="9.9"/>
</g>
</svg>
