<?xml version="1.0" encoding="utf-8"?>
<!-- Generator: Adobe Illustrator 28.7.1, SVG Export Plug-In . SVG Version: 9.03 Build 54978)  -->
<svg version="1.1" baseProfile="tiny" id="Layer_1" xmlns="http://www.w3.org/2000/svg" xmlns:xlink="http://www.w3.org/1999/xlink"
	 x="0px" y="0px" viewBox="0 0 92.8 50" overflow="visible" xml:space="preserve">
<g>
	<rect x="1.9" y="0.3" width="9.9" height="9.9"/>
	<rect x="11.8" y="10.1" width="9.9" height="9.9"/>
	<rect x="21.7" y="20" width="9.9" height="9.9"/>
	<rect x="31.6" y="29.9" width="9.9" height="9.9"/>
	<rect x="81" y="0.3" transform="matrix(-1 -1.224647e-16 1.224647e-16 -1 171.97 10.3918)" width="9.9" height="9.9"/>
	<rect x="71.1" y="10.1" transform="matrix(-1 -1.224647e-16 1.224647e-16 -1 152.1894 30.1724)" width="9.9" height="9.9"/>
	<rect x="61.3" y="20" transform="matrix(-1 -1.224647e-16 1.224647e-16 -1 132.4088 49.953)" width="9.9" height="9.9"/>
	<rect x="51.4" y="29.9" transform="matrix(-1 -1.224647e-16 1.224647e-16 -1 112.6283 69.7336)" width="9.9" height="9.9"/>
	<rect x="41.5" y="39.8" width="9.9" height="9.9"/>
</g>
</svg>
