<?xml version="1.0" encoding="utf-8"?>
<!-- Generator: Adobe Illustrator 28.7.1, SVG Export Plug-In . SVG Version: 9.03 Build 54978)  -->
<svg version="1.1" baseProfile="tiny" id="Layer_1" xmlns="http://www.w3.org/2000/svg" xmlns:xlink="http://www.w3.org/1999/xlink"
	 x="0px" y="0px" viewBox="0 0 50 92.8" overflow="visible" xml:space="preserve">
<g>
	<rect x="39.8" y="1.9" transform="matrix(-9.011920e-11 1 -1 -9.011920e-11 51.6197 -37.8944)" width="9.9" height="9.9"/>
	<rect x="29.9" y="11.8" transform="matrix(-9.011920e-11 1 -1 -9.011920e-11 51.6197 -18.1139)" width="9.9" height="9.9"/>
	<rect x="20" y="21.7" transform="matrix(-8.827979e-11 1 -1 -8.827979e-11 51.6197 1.6667)" width="9.9" height="9.9"/>
	<rect x="10.1" y="31.6" transform="matrix(-9.011920e-11 1 -1 -9.011920e-11 51.6197 21.4473)" width="9.9" height="9.9"/>
	<rect x="39.8" y="81" transform="matrix(4.450846e-11 -1 1 4.450846e-11 -41.2279 130.7421)" width="9.9" height="9.9"/>
	<rect x="29.9" y="71.1" transform="matrix(4.450846e-11 -1 1 4.450846e-11 -41.2279 110.9615)" width="9.9" height="9.9"/>
	<rect x="20" y="61.3" transform="matrix(4.450846e-11 -1 1 4.450846e-11 -41.2279 91.1809)" width="9.9" height="9.9"/>
	<rect x="10.1" y="51.4" transform="matrix(4.450846e-11 -1 1 4.450846e-11 -41.2279 71.4003)" width="9.9" height="9.9"/>
	<rect x="0.3" y="41.5" transform="matrix(-8.993535e-11 1 -1 -8.993535e-11 51.6197 41.2279)" width="9.9" height="9.9"/>
</g>
</svg>
