<?xml version="1.0" encoding="utf-8"?>
<!-- Generator: Adobe Illustrator 28.7.1, SVG Export Plug-In . SVG Version: 9.03 Build 54978)  -->
<svg version="1.1" baseProfile="tiny" id="Layer_1" xmlns="http://www.w3.org/2000/svg" xmlns:xlink="http://www.w3.org/1999/xlink"
	 x="0px" y="0px" viewBox="0 0 69.1 69.1" overflow="visible" xml:space="preserve">
<g>
	<path d="M38.2,8.4c0-2.5,0-4.9,0-7.5c-7.4,0-14.8,0-22.5,0c0,2.5,0,5,0,7.5l0,0C23.2,8.3,30.7,8.3,38.2,8.4L38.2,8.4z"/>
	<path d="M8.3,15.7c-2.5,0-4.9,0-7.5,0c0,7.6,0,15,0,22.5c2.5,0,5,0,7.5,0l-0.1,0.1C8.3,30.7,8.3,23.2,8.3,15.7L8.3,15.7z"/>
	<path d="M45.8,38.2c2.5,0,4.9,0,7.5,0c0-7.5,0-14.9,0-22.5c-2.5,0-5,0-7.5,0l0,0C45.9,23.2,45.9,30.7,45.8,38.2L45.8,38.2z"/>
	<path d="M15.7,45.8c0,2.5,0,4.9,0,7.5c7.6,0,15.1,0,22.5,0c0-2.6,0-5,0-7.5l0,0C30.7,45.9,23.2,45.9,15.7,45.8L15.7,45.8z"/>
	<path d="M45.9,45.8c0,2.5,0,4.9,0,7.7c2.6,0,5.1,0,7.6,0l0,0c0-2.5,0-5,0-7.6C50.8,45.8,48.3,45.8,45.9,45.8
		C45.9,45.8,45.9,45.8,45.9,45.8z"/>
	<path d="M60.8,60.8c0,2.5,0,5,0,7.5c2.5,0,4.9,0,7.5,0c0-2.4,0-4.8,0-7.5C65.8,60.8,63.3,60.8,60.8,60.8
		C60.8,60.8,60.8,60.8,60.8,60.8z"/>
	<path d="M38.2,45.8c2.6,0,5.1,0,7.7,0c0,0,0,0,0,0c0-2.5,0-5.1,0-7.6l0,0c-2.1,0-4.3,0.1-6.4,0c-0.9,0-1.1,0.3-1.1,1.1
		C38.3,41.6,38.3,43.7,38.2,45.8L38.2,45.8z"/>
	<path d="M45.8,15.7c0-2.4,0-4.8,0-7.3c-2.6,0-5.1,0-7.6,0l0.1-0.1c0,2.4,0,4.8,0,7.3C40.9,15.6,43.4,15.6,45.8,15.7L45.8,15.7z"/>
	<path d="M8.4,38.2c0,2.5,0,5,0,7.6c2.5,0,4.9,0,7.3,0l0,0c0-2.5,0-4.9,0-7.6C13.2,38.2,10.7,38.2,8.4,38.2L8.4,38.2z"/>
	<path d="M15.7,8.3c-2.4,0-4.8,0-7.3,0c0,2.5,0,4.9,0,7.3c0,0,0,0,0,0c2.4,0,4.8,0,7.3,0C15.6,13.2,15.6,10.7,15.7,8.3L15.7,8.3z"/>
	<path d="M53.5,53.5c0,2.4,0,4.8,0,7.3c2.4,0,4.9,0,7.3,0c0,0,0,0,0,0c0-2.4,0-4.8,0-7.3C58.3,53.5,55.9,53.5,53.5,53.5
		C53.5,53.5,53.5,53.5,53.5,53.5z"/>
</g>
</svg>
