<?xml version="1.0" encoding="utf-8"?>
<!-- Generator: Adobe Illustrator 28.7.1, SVG Export Plug-In . SVG Version: 9.03 Build 54978)  -->
<svg version="1.1" baseProfile="tiny" id="Layer_1" xmlns="http://www.w3.org/2000/svg" xmlns:xlink="http://www.w3.org/1999/xlink"
	 x="0px" y="0px" viewBox="0 0 128 128" overflow="visible" xml:space="preserve">
<path d="M101.4,57.7v-2h8.1v-9.6h-4v-7.7h-2.6V30h-9.6v4.8H78.4V23.4h-4.8v-4.8H64h-9.6v4.8h-4.8v11.4H34.8V30h-9.6v8.4h-2.6v7.7h-4
	v9.6h8.1v2h4.3v12.4h-8.3v3.7h-4v9.6h3.8v6.5h4.3v3.7h11.7v-3.7h7.9v3.5h4.3v11.7h3.9v4.3H64h9.7v-4.3h3.9V93.5h4.3v-3.5h7.9v3.7
	h11.7v-3.7h4.3v-6.5h3.8v-9.6h-4v-3.7h-8.3V57.7H101.4z M82.3,70.1h-4v7.7h-8.2v6.1H64h-6.1v-6.1h-8.2v-7.7h-4V57.7h4.4V50h7.8v-3.7
	H64h6.1V50h7.8v7.7h4.4V70.1z"/>
</svg>
