<?xml version="1.0" encoding="utf-8"?>
<!-- Generator: Adobe Illustrator 28.7.1, SVG Export Plug-In . SVG Version: 9.03 Build 54978)  -->
<svg version="1.1" baseProfile="tiny" id="Layer_1" xmlns="http://www.w3.org/2000/svg" xmlns:xlink="http://www.w3.org/1999/xlink"
	 x="0px" y="0px" viewBox="0 0 69 69" overflow="visible" xml:space="preserve">
<g>
	<path d="M29.6,39.5c0-3.3,0-6.6,0-9.9l0,0c3.3,0,6.6,0,9.9,0l0,0c0,3.3,0,6.6,0,9.9l0,0C36.2,39.4,32.9,39.4,29.6,39.5
		C29.6,39.4,29.6,39.5,29.6,39.5z"/>
	<path d="M10.6,10.5c-3.2,0-6.3,0-9.8,0c0-3.1,0-6,0-9c0-0.2,0.6-0.7,1-0.7c2.8-0.1,5.6,0,8.7,0C10.6,4.1,10.6,7.3,10.6,10.5
		C10.6,10.5,10.6,10.5,10.6,10.5z"/>
	<path d="M58.5,10.6c0-3.2,0-6.3,0-9.8c3.1,0,6,0,9,0c0.2,0,0.7,0.6,0.7,1c0.1,2.8,0,5.6,0,8.7C64.9,10.5,61.7,10.5,58.5,10.6
		C58.5,10.5,58.5,10.6,58.5,10.6z"/>
	<path d="M10.5,58.4c0,3.2,0,6.3,0,9.8c-3.1,0-6,0-9,0c-0.2,0-0.7-0.6-0.7-1c-0.1-2.8,0-5.6,0-8.8C4.2,58.4,7.4,58.4,10.5,58.4
		C10.6,58.4,10.5,58.4,10.5,58.4z"/>
	<path d="M58.4,58.5c3.2,0,6.3,0,9.8,0c0,3.1,0,6,0,9c0,0.2-0.6,0.7-1,0.7c-2.8,0.1-5.6,0-8.7,0C58.5,64.9,58.5,61.7,58.4,58.5
		C58.5,58.5,58.4,58.5,58.4,58.5z"/>
	<path d="M20.1,20c-3.1,0-6.3,0-9.5,0c0-3.2,0-6.4,0-9.5c0,0,0,0,0,0c3.1,0,6.2,0,9.5,0C20.1,13.8,20.1,16.9,20.1,20
		C20.1,20,20.1,20,20.1,20z"/>
	<path d="M49,20.1c0-3.1,0-6.3,0-9.5c3.2,0,6.4,0,9.5,0c0,0,0,0,0,0c0,3.1,0,6.2,0,9.5C55.3,20,52.1,20,49,20.1
		C49,20,49,20.1,49,20.1z"/>
	<path d="M29.6,29.5c-3.1,0-6.2,0-9.5,0c0-3.2,0-6.4,0-9.5c0,0,0,0,0,0c3.1,0,6.2,0,9.5,0C29.6,23.3,29.6,26.4,29.6,29.5
		C29.6,29.6,29.6,29.5,29.6,29.5z"/>
	<path d="M39.5,29.6c0-3.1,0-6.2,0-9.5c3.2,0,6.4,0,9.5,0c0,0,0,0,0,0c0,3.1,0,6.3,0,9.5C45.7,29.5,42.6,29.5,39.5,29.6
		C39.4,29.5,39.5,29.6,39.5,29.6z"/>
	<path d="M20.1,49c0-3.1,0-6.3,0-9.5c3.3,0,6.4,0,9.5,0c0,0,0,0,0,0c0,3.1,0,6.1,0,9.5C26.4,48.9,23.2,48.9,20.1,49L20.1,49z"/>
	<path d="M39.4,39.5c3.1,0,6.1,0,9.5,0c0,3.2,0,6.3,0,9.5l0,0c-3.1,0-6.3,0-9.5,0C39.5,45.6,39.5,42.5,39.4,39.5
		C39.5,39.4,39.4,39.5,39.4,39.5z"/>
	<path d="M20,48.9c0,3.1,0,6.3,0,9.5c-3.3,0-6.4,0-9.5,0c0,0,0,0,0,0c0-3.1,0-6.2,0-9.5C13.8,49,17,49,20,48.9L20,48.9z"/>
	<path d="M48.9,49c3.1,0,6.3,0,9.5,0c0,3.3,0,6.4,0,9.5c0,0,0,0,0,0c-3.1,0-6.2,0-9.5,0C49,55.2,49,52.1,48.9,49
		C49,48.9,48.9,49,48.9,49z"/>
</g>
</svg>
