<?xml version="1.0" encoding="utf-8"?>
<!-- Generator: Adobe Illustrator 28.7.1, SVG Export Plug-In . SVG Version: 9.03 Build 54978)  -->
<svg version="1.1" baseProfile="tiny" id="Layer_1" xmlns="http://www.w3.org/2000/svg" xmlns:xlink="http://www.w3.org/1999/xlink"
	 x="0px" y="0px" viewBox="0 0 69 69" overflow="visible" xml:space="preserve">
<g>
	<polygon points="30.8,38.2 30.8,38.2 30.8,38.2 30.8,38.2 	"/>
	<path d="M58.5,18.5v-3.9h-4.3v-4.2h-4.3V6.1H34.5H19.1v4.3h-4.3v4.2h-4.3v3.9H6.2v32.3h4.3v4h4.3V59h4.3v3.9h15.4h15.4V59h4.3v-4.2
		h4.3v-4h4.3V18.5H58.5z M30.8,38.2C30.8,38.2,30.8,38.2,30.8,38.2C30.8,38.2,30.8,38.2,30.8,38.2c0,1.4,0,2.9,0,4.4
		c-1.4,0-2.8,0-4.1,0c0,1.4,0,2.7,0,4.1c-1.3,0-2.6,0-3.9,0c0,1.3,0,2.6,0,4c-1.4,0-2.8,0-4.2,0c-0.1,0-0.3-0.3-0.3-0.4
		c0-1.3,0-2.6,0-4.1c1.4,0,2.7,0,4,0c0-1.3,0-2.5,0-3.9c1.4,0,2.8,0,4.2,0c0-1.4,0-2.7,0-4.1C27.9,38.2,29.3,38.2,30.8,38.2
		C30.8,38.2,30.7,38.2,30.8,38.2C30.8,38.2,30.8,38.2,30.8,38.2c0-2.5,0-4.9,0-7.4c-1.4,0-2.9,0-4.4,0c0-1.4,0-2.8,0-4.2
		c-1.4,0-2.7,0-4.2,0c0-1.3,0-2.6,0-3.9c-1.3,0-2.6,0-4,0c0-1.4,0-2.8,0-4.2c0-0.1,0.3-0.3,0.4-0.3c1.3,0,2.6,0,4.1,0
		c0,1.4,0,2.7,0,4c1.3,0,2.5,0,3.9,0c0,1.4,0,2.8,0,4.2c1.4,0,2.7,0,4.1,0c0,1.5,0,3,0,4.4c2.5,0,5,0,7.4,0c0,0,0,0,0,0l0,0
		c0,0,0,0,0,0c0-1.4,0-2.9,0-4.4c1.4,0,2.8,0,4.2,0c0-1.4,0-2.8,0-4.2c1.3,0,2.6,0,3.9,0c0-1.3,0-2.6,0-4.1c1.4,0,2.8,0,4.2,0
		c0.1,0,0.3,0.3,0.3,0.4c0,1.3,0,2.6,0,4.1c-1.4,0-2.7,0-4.1,0c0,1.3,0,2.6,0,3.9c-1.4,0-2.8,0-4.2,0c0,1.4,0,2.7,0,4.2
		c-1.5,0-3,0-4.5,0c0,0,0,0,0,0l0,0c0,0,0,0,0,0c0,2.5,0,5,0,7.4c0,0,0,0,0,0l0,0c0,0,0,0,0,0C35.7,38.2,33.3,38.2,30.8,38.2z
		 M50.9,50.6c0,0.1-0.3,0.3-0.4,0.3c-1.3,0-2.6,0-4.1,0c0-1.4,0-2.7,0-4.1c-1.3,0-2.6,0-3.9,0c0-1.4,0-2.8,0-4.2c-1.4,0-2.7,0-4.2,0
		c0-1.5,0-3,0-4.4c0,0,0,0,0,0c0,0,0,0,0,0c0,0,0,0,0,0c1.4,0,2.9,0,4.4,0c0,1.4,0,2.8,0,4.2c1.4,0,2.7,0,4.2,0c0,1.4,0,2.7,0,4
		c1.3,0,2.6,0,4.1,0C50.9,47.8,50.9,49.2,50.9,50.6z"/>
</g>
</svg>
