<?xml version="1.0" encoding="utf-8"?>
<!-- Generator: Adobe Illustrator 28.7.1, SVG Export Plug-In . SVG Version: 9.03 Build 54978)  -->
<svg version="1.1" baseProfile="tiny" id="Layer_1" xmlns="http://www.w3.org/2000/svg" xmlns:xlink="http://www.w3.org/1999/xlink"
	 x="0px" y="0px" viewBox="0 0 128 128" overflow="visible" xml:space="preserve">
<g>
	<rect x="110.2" y="29.7" width="8.1" height="16.4"/>
	<polygon points="93.8,90 90.1,90 90.1,86.1 81.9,86.1 81.9,90 78.4,90 78.4,86.1 74.1,86.1 74.1,94.1 74.2,94.1 98.2,94.1 
		98.2,86.1 93.8,86.1 	"/>
	<path d="M102.3,17.6h-4.4v8H73.7h-0.2H30.1v4.1h-4.4v4.3H22v27.9h-4v16h-4v16.2H9.7v9.9h14.2l0,6.3h5.9v-2.5h4V98h-8.1v-8.3h4.1
		v-7.9h76.1V25.7h-3.6V17.6z M66.1,74H33.8v-4.4h3.8v-7.9h8.5v4.4h3.6v4.3h4.4v-8.7h12V74z M97.8,42.1H73.7v-8.1h24.2V42.1z"/>
</g>
</svg>
