<?xml version="1.0" encoding="utf-8"?>
<!-- Generator: Adobe Illustrator 25.0.0, SVG Export Plug-In . SVG Version: 6.00 Build 0)  -->
<svg version="1.1" baseProfile="tiny" id="Layer_8" xmlns="http://www.w3.org/2000/svg" xmlns:xlink="http://www.w3.org/1999/xlink"
	 x="0px" y="0px" width="170px" height="382px" viewBox="0 0 170 382" overflow="visible" xml:space="preserve">
<circle cx="122.6" cy="25.2" r="1"/>
<circle cx="122.6" cy="35.1" r="1"/>
<circle cx="122.6" cy="45" r="1"/>
<circle cx="122.6" cy="54.8" r="1"/>
<circle cx="122.6" cy="64.7" r="1"/>
<circle cx="122.6" cy="74.5" r="1"/>
<circle cx="122.6" cy="84.4" r="1"/>
<circle cx="122.6" cy="94.3" r="1"/>
<circle cx="122.6" cy="104.1" r="1"/>
<circle cx="122.6" cy="114" r="1"/>
<circle cx="122.6" cy="123.8" r="1"/>
<circle cx="122.6" cy="133.7" r="1"/>
<circle cx="122.6" cy="143.5" r="1"/>
<circle cx="122.6" cy="153.4" r="1"/>
<circle cx="122.6" cy="163.3" r="1"/>
<circle cx="122.6" cy="173.1" r="1"/>
<circle cx="122.6" cy="183" r="1"/>
<circle cx="122.6" cy="192.8" r="1"/>
<circle cx="122.6" cy="202.7" r="1"/>
<circle cx="122.6" cy="212.6" r="1"/>
<circle cx="122.6" cy="222.4" r="1"/>
<circle cx="122.6" cy="232.3" r="1"/>
<circle cx="122.6" cy="242.1" r="1"/>
<circle cx="122.6" cy="252" r="1"/>
<circle cx="122.6" cy="261.8" r="1"/>
<circle cx="122.6" cy="271.7" r="1"/>
<circle cx="122.6" cy="281.6" r="1"/>
<circle cx="122.6" cy="291.4" r="1"/>
<circle cx="122.6" cy="301.3" r="1"/>
<circle cx="138.3" cy="25.2" r="1"/>
<circle cx="138.3" cy="35.1" r="1"/>
<circle cx="138.3" cy="45" r="1"/>
<circle cx="138.3" cy="54.8" r="1"/>
<circle cx="138.3" cy="64.7" r="1"/>
<circle cx="138.3" cy="74.5" r="1"/>
<circle cx="138.3" cy="84.4" r="1"/>
<circle cx="138.3" cy="94.3" r="1"/>
<circle cx="138.3" cy="104.1" r="1"/>
<circle cx="138.3" cy="114" r="1"/>
<circle cx="138.3" cy="123.8" r="1"/>
<circle cx="138.3" cy="133.7" r="1"/>
<circle cx="138.3" cy="143.5" r="1"/>
<circle cx="138.3" cy="153.4" r="1"/>
<circle cx="138.3" cy="163.3" r="1"/>
<circle cx="138.3" cy="173.1" r="1"/>
<circle cx="138.3" cy="183" r="1"/>
<circle cx="138.3" cy="192.8" r="1"/>
<circle cx="138.3" cy="202.7" r="1"/>
<circle cx="138.3" cy="212.6" r="1"/>
<circle cx="138.3" cy="222.4" r="1"/>
<circle cx="138.3" cy="232.3" r="1"/>
<circle cx="138.3" cy="242.1" r="1"/>
<circle cx="138.3" cy="252" r="1"/>
<circle cx="138.3" cy="261.8" r="1"/>
<circle cx="138.3" cy="271.7" r="1"/>
<circle cx="138.3" cy="281.6" r="1"/>
<circle cx="138.3" cy="291.4" r="1"/>
<circle cx="138.3" cy="301.3" r="1"/>
</svg>
