<?xml version="1.0" encoding="utf-8"?>
<!-- Generator: Adobe Illustrator 25.2.1, SVG Export Plug-In . SVG Version: 6.00 Build 0)  -->
<svg version="1.1" baseProfile="tiny" id="Layer_1" xmlns="http://www.w3.org/2000/svg" xmlns:xlink="http://www.w3.org/1999/xlink"
	 x="0px" y="0px" viewBox="0 0 8 147.7" overflow="visible" xml:space="preserve">
<rect x="0.1" y="132" fill="#B8B848" width="1.8" height="15.7"/>
<polygon fill="#B8B848" points="7.9,147.7 6.1,147.7 6.1,132 7.9,132 "/>
<rect x="0.1" y="113.9" fill="#B8B848" width="1.8" height="15.7"/>
<polygon fill="#B8B848" points="7.9,129.6 6.1,129.6 6.1,113.9 7.9,113.9 "/>
<rect x="0.1" y="95.8" fill="#B8B848" width="1.8" height="15.7"/>
<polygon fill="#B8B848" points="7.9,111.5 6.1,111.5 6.1,95.8 7.9,95.8 "/>
<path fill="#B8B848" d="M1.8,93.4H0v-9.6h1.8V93.4z"/>
<path fill="#B8B848" d="M1.9,65H0.1V54.6h1.8V65z"/>
<rect x="0.1" y="36.6" fill="#B8B848" width="1.8" height="15.7"/>
<polygon fill="#B8B848" points="7.9,52.3 6.1,52.3 6.1,36.6 7.9,36.6 "/>
<rect x="0.1" y="18.5" fill="#B8B848" width="1.8" height="15.7"/>
<polygon fill="#B8B848" points="7.9,34.2 6.1,34.2 6.1,18.5 7.9,18.5 "/>
<rect x="0.1" y="0.4" fill="#B8B848" width="1.8" height="15.6"/>
<polygon fill="#B8B848" points="7.9,16 6.1,16 6.1,0.4 7.9,0.4 "/>
</svg>
