<?xml version="1.0" encoding="utf-8"?>
<!-- Generator: Adobe Illustrator 25.2.1, SVG Export Plug-In . SVG Version: 6.00 Build 0)  -->
<svg version="1.1" baseProfile="tiny" id="Layer_1" xmlns="http://www.w3.org/2000/svg" xmlns:xlink="http://www.w3.org/1999/xlink"
	 x="0px" y="0px" viewBox="0 0 168 102" overflow="visible" xml:space="preserve">
<g id="button_x5F_large">
	<g>
		<path fill="#565611" d="M133.1,101.9H9.7V0.5h147.6v75.8L133.1,101.9z M11.5,100.1h120.8l23.2-24.5V2.3h-144V100.1z"/>
	</g>
	<path fill="#7F7D36" d="M34.8,75.8V74h14.4v1.7H34.8z M34.8,81.5v-1.7h14.4v1.7H34.8z"/>
	<path fill="#7F7D36" d="M53.6,76v-1.7h62.1V76H53.6z"/>
	<path fill="#7F7D36" d="M112.1,27.3v-1.7h14.4v1.7H112.1z M112.1,33v-1.7h14.4V33H112.1z"/>
	<path fill="#7F7D36" d="M34.8,27.5v-1.7h72.9v1.7H34.8z"/>
	<path fill="#777530" d="M34.8,42.8V41h15v1.7H34.8z"/>
	<path fill="#777530" d="M52.1,42.8V41h15v1.7H52.1z M52.1,48.5v-1.7h15v1.7H52.1z"/>
	<path fill="#777530" d="M34.8,57.1v-1.7h15v1.7H34.8z"/>
	<rect x="0.4" y="0.5" fill="#A0B144" width="3.6" height="101.5"/>
	<polygon fill="#918F3A" points="167.6,65.3 164,69.6 164,0.5 167.6,0.5 	"/>
</g>
</svg>
