<?xml version="1.0" encoding="utf-8"?>
<!-- Generator: Adobe Illustrator 25.2.1, SVG Export Plug-In . SVG Version: 6.00 Build 0)  -->
<svg version="1.1" baseProfile="tiny" id="Layer_1" xmlns="http://www.w3.org/2000/svg" xmlns:xlink="http://www.w3.org/1999/xlink"
	 x="0px" y="0px" viewBox="0 0 147.2 8" overflow="visible" xml:space="preserve">
<rect y="0.1" fill="#B8B848" width="15.7" height="1.8"/>
<polygon fill="#B8B848" points="0,7.9 0,6.1 15.7,6.1 15.7,7.9 "/>
<rect x="18.1" y="0.1" fill="#B8B848" width="15.7" height="1.8"/>
<polygon fill="#B8B848" points="18.1,7.9 18.1,6.1 33.8,6.1 33.8,7.9 "/>
<rect x="36.2" y="0.1" fill="#B8B848" width="15.7" height="1.8"/>
<polygon fill="#B8B848" points="36.2,7.9 36.2,6.1 51.9,6.1 51.9,7.9 "/>
<path fill="#B8B848" d="M54.3,1.8V0h9.5v1.8H54.3z"/>
<path fill="#B8B848" d="M82.7,1.9V0.1h10.3v1.8H82.7z"/>
<rect x="95.4" y="0.1" fill="#B8B848" width="15.7" height="1.8"/>
<polygon fill="#B8B848" points="95.4,7.9 95.4,6.1 111.1,6.1 111.1,7.9 "/>
<rect x="113.6" y="0.1" fill="#B8B848" width="15.7" height="1.8"/>
<polygon fill="#B8B848" points="113.6,7.9 113.6,6.1 129.2,6.1 129.2,7.9 "/>
<rect x="131.7" y="0.1" fill="#B8B848" width="15.7" height="1.8"/>
<polygon fill="#B8B848" points="131.7,7.9 131.7,6.1 147.3,6.1 147.3,7.9 "/>
</svg>
