<svg xmlns="http://www.w3.org/2000/svg" width="32" height="32" viewBox="0 0 32 32"><polygon points="5 0 0 0 0 5 2 5 2 2 5 2 5 0" style="fill:#b8b848"/><polygon points="27 0 32 0 32 5 30 5 30 2 27 2 27 0" style="fill:#b8b848"/><polygon points="5 31.5 0 31.5 0 26.5 2 26.5 2 29.5 5 29.5 5 31.5" style="fill:#b8b848"/><polyline points="0 10 0 22 0 22 2 22 2 22 2 10" style="fill:#b8b848"/><polygon points="27 32.13 32 32.13 32 27.13 30 27.13 30 30.13 27 30.13 27 32.13" style="fill:#b8b848"/><polyline points="30 10 30 22 30 22 32 22 32 22 32 10" style="fill:#b8b848"/><polyline points="22 0 10 0 10 0 10 2 10 2 22 2" style="fill:#b8b848"/><polyline points="22 30 10 30 10 30 10 32 10 32 22 32" style="fill:#b8b848"/></svg>