<?xml version="1.0" encoding="utf-8"?>
<!-- Generator: Adobe Illustrator 26.0.1, SVG Export Plug-In . SVG Version: 6.00 Build 0)  -->
<svg version="1.1" baseProfile="tiny" id="Layer_1" xmlns="http://www.w3.org/2000/svg" xmlns:xlink="http://www.w3.org/1999/xlink"
	 x="0px" y="0px" viewBox="0 0 1920 1080" overflow="visible" xml:space="preserve">
<g>
	<path fill="none" stroke="#8C7567" stroke-width="2" stroke-miterlimit="10" d="M1374.8,408.3v220.5c0,10.8-8.7,19.5-19.5,19.5h0
		c-10.8,0-19.5-8.7-19.5-19.5V408.3H1314v220.5c0,22.8,18.5,41.3,41.3,41.3h0c22.8,0,41.3-18.5,41.3-41.3V408.3H1374.8z"/>
	<polygon fill="none" stroke="#8C7567" stroke-width="2" stroke-miterlimit="10" points="615.9,408.3 602.6,408.3 579.7,589.6 
		556.8,408.3 543.9,408.3 534.9,408.3 522,408.3 522,670.1 543.9,670.1 543.9,479.5 568,670.1 569.5,670.1 589.8,670.1 591.4,670.1 
		615.9,475.8 615.9,670.1 637.8,670.1 637.8,408.3 624.4,408.3 	"/>
	<path fill="none" stroke="#8C7567" stroke-width="2" stroke-miterlimit="10" d="M795.9,408.3h-6.7H774l-19.5,261.8h21.9l3.3-44.3
		h25.7l3.3,44.3h21.9l-19.5-261.8H795.9z M780.9,609.9l11.7-156.7l11.7,156.7H780.9z"/>
	<path fill="none" stroke="#8C7567" stroke-width="2" stroke-miterlimit="10" d="M1170.3,408.3h-6.7h-15.2l-19.5,261.8h21.9
		l3.3-44.3h25.7l3.3,44.3h21.9l-19.5-261.8H1170.3z M1155.3,609.9l11.7-156.7l11.7,156.7H1155.3z"/>
	<polygon fill="none" stroke="#8C7567" stroke-width="2" stroke-miterlimit="10" points="1023.7,408.3 1002,408.3 971.6,493.6 
		965.7,493.6 965.7,408.3 943.9,408.3 943.9,670.1 965.7,670.1 965.7,576.8 980.6,528.3 1007.8,670.1 1027,670.1 994,493.6 	"/>
</g>
<polyline fill="none" stroke="#D4CDC8" stroke-width="10" stroke-miterlimit="10" points="449.2,758.3 449.2,326.5 1470.6,326.5 "/>
<polyline fill="none" stroke="#D4CDC8" stroke-width="10" stroke-miterlimit="10" points="1467.8,322 1467.8,753.8 446.4,753.8 "/>
</svg>
