<?xml version="1.0" encoding="utf-8"?>
<!-- Generator: Adobe Illustrator 26.0.1, SVG Export Plug-In . SVG Version: 6.00 Build 0)  -->
<svg version="1.1" baseProfile="tiny" id="Layer_1" xmlns="http://www.w3.org/2000/svg" xmlns:xlink="http://www.w3.org/1999/xlink"
	 x="0px" y="0px" viewBox="0 0 1920 1080" overflow="visible" xml:space="preserve">
<g>
	<g>
		<path fill="none" stroke="#473026" stroke-miterlimit="10" d="M1057.9,824.2H950.8V717.1h107.1V824.2z M967.8,807.2h73.1v-73.1
			h-73.1V807.2z"/>
	</g>
	<g>
		<path fill="none" stroke="#473026" stroke-miterlimit="10" d="M1394.6,331.1h-107.1V224h107.1V331.1z M1304.5,314.1h73.1V241
			h-73.1V314.1z"/>
	</g>
	<g>
		<path fill="none" stroke="#473026" stroke-miterlimit="10" d="M1769.9,683.8l-63.3-63.3l63.3-63.3l63.3,63.3L1769.9,683.8z
			 M1730.7,620.5l39.3,39.3l39.3-39.3l-39.3-39.3L1730.7,620.5z"/>
	</g>
	<g>
		<path fill="none" stroke="#473026" stroke-miterlimit="10" d="M1699.5,436.2l-63.3-63.3l63.3-63.3l63.3,63.3L1699.5,436.2z
			 M1660.2,372.9l39.3,39.3l39.3-39.3l-39.3-39.3L1660.2,372.9z"/>
	</g>
	<g>
		<polygon fill="none" stroke="#473026" stroke-miterlimit="10" points="1030.2,865.3 909.7,865.3 909.7,766.7 926.7,766.7 
			926.7,848.3 1030.2,848.3 		"/>
	</g>
	<g>
		<polygon fill="none" stroke="#473026" stroke-miterlimit="10" points="996.4,966.3 984.3,954.2 1201.7,736.9 1201.7,884.1 
			1184.7,884.1 1184.7,778 		"/>
	</g>
	<g>
		<polygon fill="none" stroke="#473026" stroke-miterlimit="10" points="1334.1,673.8 1107.9,447.5 1119.9,435.5 1317.1,632.8 
			1317.1,526.6 1334.1,526.6 		"/>
	</g>
	<g>
		<polygon fill="none" stroke="#473026" stroke-miterlimit="10" points="1463.7,804.1 1451.7,792 1640,603.8 1519.2,603.8 
			1519.2,586.8 1681,586.8 		"/>
	</g>
	<g>
		<polygon fill="none" stroke="#473026" stroke-miterlimit="10" points="1724.1,494.9 1398,494.9 1398,477.9 1683,477.9 
			1596.8,391.6 1608.8,379.6 		"/>
	</g>
	<g>
		<polygon fill="none" stroke="#473026" stroke-miterlimit="10" points="1316.8,687.7 1111,687.7 1111,670.7 1275.7,670.7 
			1200.9,595.9 1212.9,583.9 		"/>
	</g>
	<g>
		<polygon fill="none" stroke="#473026" stroke-miterlimit="10" points="1119.6,659.4 1102.6,659.4 1102.6,474.2 1206.5,578.1 
			1194.5,590.1 1119.6,515.2 		"/>
	</g>
	<g>
		<polygon fill="none" stroke="#473026" stroke-miterlimit="10" points="1344.4,827 1241.3,723.8 1253.3,711.8 1344.4,802.9 
			1401.3,746 1413.3,758 		"/>
	</g>
	<g>
		<polygon fill="none" stroke="#473026" stroke-miterlimit="10" points="1399.8,825 1387.7,813 1444.7,756 1353.5,664.9 
			1365.6,652.9 1468.7,756 		"/>
	</g>
	<g>
		<polygon fill="none" stroke="#473026" stroke-miterlimit="10" points="1493.3,732.4 1415.1,654.3 1484.1,585.3 1496.1,597.3 
			1439.2,654.3 1505.3,720.4 		"/>
	</g>
	<g>
		<polygon fill="none" stroke="#473026" stroke-miterlimit="10" points="1364.1,627.5 1352.1,615.5 1413.7,553.9 1686,553.9 
			1686,570.9 1420.7,570.9 		"/>
	</g>
	<g>
		<polygon fill="none" stroke="#473026" stroke-miterlimit="10" points="1342.9,508.4 1330.9,496.3 1504,323.2 1643.3,462.6 
			1443.6,462.6 1443.6,445.6 1602.3,445.6 1504,347.3 		"/>
	</g>
	<g>
		<polygon fill="none" stroke="#473026" stroke-miterlimit="10" points="1253.3,533.8 1253.3,222.6 1270.3,222.6 1270.3,492.7 
			1365.1,397.9 1377.1,409.9 		"/>
	</g>
	<g>
		<polygon fill="none" stroke="#473026" stroke-miterlimit="10" points="1800.2,764.2 1697.9,662 1651.1,708.8 1639.1,696.8 
			1697.9,638 1812.2,752.2 		"/>
	</g>
	<g>
		<polygon fill="none" stroke="#473026" stroke-miterlimit="10" points="1551.2,861.5 1307.9,861.5 1307.9,844.5 1544.2,844.5 
			1700.7,688 1712.7,700 		"/>
	</g>
	<g>
		<polygon fill="none" stroke="#473026" stroke-miterlimit="10" points="1274.5,1009.8 1274.5,813.1 1291.5,813.1 1291.5,968.7 
			1372.8,887.4 1384.9,899.4 		"/>
	</g>
	<g>
		<polygon fill="none" stroke="#473026" stroke-miterlimit="10" points="1256.3,1028.6 1239.3,1028.6 1239.3,962.5 1177.4,962.5 
			1177.4,945.5 1256.3,945.5 		"/>
	</g>
	<g>
		<rect x="978.4" y="982.7" fill="none" stroke="#473026" stroke-miterlimit="10" width="245.5" height="17"/>
	</g>
	<g>
		<polygon fill="none" stroke="#473026" stroke-miterlimit="10" points="833.2,1059.5 833.2,908.5 850.2,908.5 850.2,1018.5 
			957.9,910.7 970,922.8 		"/>
	</g>
	<g>
		<polygon fill="none" stroke="#473026" stroke-miterlimit="10" points="847.7,794.3 835.7,782.3 985.6,632.4 914.4,561.2 
			926.4,549.2 1009.6,632.4 		"/>
	</g>
	<g>
		<polygon fill="none" stroke="#473026" stroke-miterlimit="10" points="851.9,725.9 839.8,713.9 906.3,647.4 866.8,607.8 
			878.8,595.8 930.4,647.4 		"/>
	</g>
	<g>
		<polygon fill="none" stroke="#473026" stroke-miterlimit="10" points="1565,357.1 1466.6,258.7 1795.8,258.7 1795.8,275.7 
			1507.6,275.7 1577,345.1 		"/>
	</g>
	<g>
		<rect x="1423.7" y="65.2" fill="none" stroke="#473026" stroke-miterlimit="10" width="17" height="265.2"/>
	</g>
	<g>
		<polygon fill="none" stroke="#473026" stroke-miterlimit="10" points="1480.1,180.2 1463.1,180.2 1463.1,-22.7 1615.9,130.1 
			1603.9,142.1 1480.1,18.4 		"/>
	</g>
	<g>
		<polygon fill="none" stroke="#473026" stroke-miterlimit="10" points="1576.2,237.4 1492.1,237.4 1492.1,78.6 1509.1,78.6 
			1509.1,220.4 1576.2,220.4 		"/>
	</g>
	<g>
		<polygon fill="none" stroke="#473026" stroke-miterlimit="10" points="1624.1,224.7 1607.1,224.7 1607.1,185.1 1743,185.1 
			1743,202.1 1624.1,202.1 		"/>
	</g>
	<g>
		<polygon fill="none" stroke="#473026" stroke-miterlimit="10" points="1736.6,165.9 1545.1,165.9 1545.1,148.9 1695.5,148.9 
			1634.4,87.8 1646.4,75.7 		"/>
	</g>
	<g>
		<polygon fill="none" stroke="#473026" stroke-miterlimit="10" points="1613.7,83.6 1491.5,-38.6 1819.7,-38.6 1819.7,-21.6 
			1532.5,-21.6 1625.7,71.6 		"/>
	</g>
	<g>
		<polygon fill="none" stroke="#473026" stroke-miterlimit="10" points="1863.9,120.4 1776.7,33.2 1725.2,84.7 1713.2,72.6 
			1776.7,9.1 1875.9,108.4 		"/>
	</g>
	<g>
		<polygon fill="none" stroke="#473026" stroke-miterlimit="10" points="1896.3,207.3 1818.4,207.3 1818.4,133.5 1835.4,133.5 
			1835.4,190.3 1896.3,190.3 		"/>
	</g>
	<g>
		<polygon fill="none" stroke="#473026" stroke-miterlimit="10" points="1937.4,407.4 1867.1,337 1867.1,225.5 1910.8,225.5 
			1910.8,242.5 1884.1,242.5 1884.1,330 1949.5,395.3 		"/>
	</g>
	<g>
		<polygon fill="none" stroke="#473026" stroke-miterlimit="10" points="1888.8,601.1 1722.7,435 1786.9,370.8 1730.8,314.6 
			1742.8,302.6 1811,370.8 1746.7,435 1900.8,589.1 		"/>
	</g>
	<g>
		<polygon fill="none" stroke="#473026" stroke-miterlimit="10" points="1942.1,600.6 1869.3,527.7 1931.4,465.6 1780.5,314.6 
			1792.5,302.6 1955.5,465.6 1893.3,527.7 1954.1,588.5 		"/>
	</g>
	<g>
		<polygon fill="none" stroke="#473026" stroke-miterlimit="10" points="1891.4,721.3 1879.4,709.2 1940.8,647.9 1905.8,613 
			1917.9,601 1964.8,647.9 		"/>
	</g>
	<g>
		<polygon fill="none" stroke="#473026" stroke-miterlimit="10" points="1849.9,887.9 1730.6,887.9 1730.6,870.9 1832.9,870.9 
			1832.9,683.6 1849.9,683.6 		"/>
	</g>
	<g>
		<polygon fill="none" stroke="#473026" stroke-miterlimit="10" points="1718.1,835.5 1661.4,778.8 1673.4,766.7 1718.1,811.5 
			1759.8,769.8 1771.8,781.9 		"/>
	</g>
	<g>
		<polygon fill="none" stroke="#473026" stroke-miterlimit="10" points="1325.8,1052.8 1313.8,1040.7 1400.7,953.8 1732.8,953.8 
			1621,841.9 1633,829.9 1773.9,970.8 1407.8,970.8 		"/>
	</g>
	<g>
		<polygon fill="none" stroke="#473026" stroke-miterlimit="10" points="1616.8,1095.8 1510.1,989 1851.8,989 1851.8,1006 
			1551.1,1006 1628.8,1083.7 		"/>
	</g>
	<g>
		<polygon fill="none" stroke="#473026" stroke-miterlimit="10" points="1545.3,1097.8 1491.5,1044 1491.5,1092.9 1474.5,1092.9 
			1474.5,1002.9 1557.3,1085.8 		"/>
	</g>
	<g>
		<polygon fill="none" stroke="#473026" stroke-miterlimit="10" points="1393.7,1104 1381.6,1092 1445.9,1027.8 1445.9,1093.9 
			1428.9,1093.9 1428.9,1068.8 		"/>
	</g>
	<g>
		<rect x="1264.2" y="1051.4" fill="none" stroke="#473026" stroke-miterlimit="10" width="17" height="50.8"/>
	</g>
	<g>
		<rect x="989.8" y="1075" fill="none" stroke="#473026" stroke-miterlimit="10" width="237.2" height="17"/>
	</g>
	<g>
		
			<rect x="864.3" y="1064.7" transform="matrix(0.7071 -0.7071 0.7071 0.7071 -486.8289 970.9713)" fill="none" stroke="#473026" stroke-miterlimit="10" width="128.9" height="17"/>
	</g>
	<g>
		
			<rect x="817.3" y="1049.7" transform="matrix(0.7071 -0.7071 0.7071 0.7071 -487.5849 939.1029)" fill="none" stroke="#473026" stroke-miterlimit="10" width="145" height="17"/>
	</g>
	<g>
		<polygon fill="none" stroke="#473026" stroke-miterlimit="10" points="692.8,1124.2 680.8,1112.2 749,1044.1 805.2,1100.3 
			793.2,1112.3 749,1068.1 		"/>
	</g>
	<g>
		<polygon fill="none" stroke="#473026" stroke-miterlimit="10" points="809.8,892.1 672.8,892.1 672.8,875.1 792.8,875.1 
			792.8,674.3 809.8,674.3 		"/>
	</g>
	<g>
		<polygon fill="none" stroke="#473026" stroke-miterlimit="10" points="724.4,978.1 505,978.1 505,961.1 683.4,961.1 599.5,877.2 
			611.5,865.1 		"/>
	</g>
	<g>
		<polygon fill="none" stroke="#473026" stroke-miterlimit="10" points="573.1,1124.2 444.1,995.3 796.1,995.3 796.1,1012.3 
			485.1,1012.3 585.1,1112.2 		"/>
	</g>
	<g>
		<polygon fill="none" stroke="#473026" stroke-miterlimit="10" points="353.5,1132 341.5,1120 431.5,1030.1 498.6,1097.2 
			486.6,1109.2 431.5,1054.1 		"/>
	</g>
	<g>
		<polygon fill="none" stroke="#473026" stroke-miterlimit="10" points="1056.4,688.8 1039.4,688.8 1039.4,408.7 1158.4,289.7 
			1170.4,301.7 1056.4,415.7 		"/>
	</g>
	<g>
		<polygon fill="none" stroke="#473026" stroke-miterlimit="10" points="1228.8,378 1211.8,378 1211.8,259.7 1183.8,287.7 
			1171.8,275.7 1228.8,218.7 		"/>
	</g>
	<g>
		<polygon fill="none" stroke="#473026" stroke-miterlimit="10" points="1014.9,578.8 954.8,518.7 966.8,506.7 997.9,537.8 
			997.9,464 1014.9,464 		"/>
	</g>
	<g>
		<polygon fill="none" stroke="#473026" stroke-miterlimit="10" points="1379.6,184.5 1305.8,184.5 1305.8,167.5 1362.6,167.5 
			1362.6,111.8 1379.6,111.8 		"/>
	</g>
	<g>
		<polygon fill="none" stroke="#473026" stroke-miterlimit="10" points="670.6,815 658.5,803 738.6,722.9 769,753.3 757,765.3 
			738.6,747 		"/>
	</g>
	<g>
		<polygon fill="none" stroke="#473026" stroke-miterlimit="10" points="1887.6,785.2 1875.5,773.2 2017.2,631.6 1921.4,535.8 
			1933.4,523.8 2041.2,631.6 		"/>
	</g>
	<g>
		<polygon fill="none" stroke="#473026" stroke-miterlimit="10" points="1883.2,1046 1883.2,907.4 1900.2,907.4 1900.2,1005 
			2001.4,903.7 2013.4,915.8 		"/>
	</g>
	<g>
		<polygon fill="none" stroke="#473026" stroke-miterlimit="10" points="1867,1107.7 1814.7,1055.4 1765.6,1104.6 1753.6,1092.5 
			1814.7,1031.4 1879,1095.7 		"/>
	</g>
	<g>
		
			<rect x="1887.4" y="-47.4" transform="matrix(0.7071 -0.7071 0.7071 0.7071 532.8384 1349.9113)" fill="none" stroke="#473026" stroke-miterlimit="10" width="17" height="158.2"/>
	</g>
</g>
</svg>
