<?xml version="1.0" encoding="utf-8"?>
<!-- Generator: Adobe Illustrator 28.1.0, SVG Export Plug-In . SVG Version: 6.00 Build 0)  -->
<svg version="1.1" baseProfile="tiny" id="Vantage" xmlns="http://www.w3.org/2000/svg" xmlns:xlink="http://www.w3.org/1999/xlink"
	 x="0px" y="0px" viewBox="0 0 1309 334.2" overflow="visible" xml:space="preserve">
<path id="colorstyle:Accent2" fill="#EDBF00" d="M131,334.2l30-73.6h1148v73.6H131z"/>
<path id="colorstyle:Base" fill="#2840EC" d="M760.5,9.5H607.3V42h57.9v169.4h37.4V42h57.9V9.5z M992.1,283
	c0-8.9-5.3-13.4-15.9-13.4h-23.8v55.9h7.2v-49.9h15.9c5.9,0,8.9,2.5,8.9,7.7c0,6.5-5.3,10.6-16,12.3v4.7l17.8,25.1h9.5l-19.2-26.3
	C986.9,295.6,992.1,290.3,992.1,283z M865.9,9.5h-40.2L740,211.4h38.4l22.4-55.1h89.4l23,55.1h40.2L865.9,9.5z M814,123.9l30.8-75.8
	l31.8,75.8H814z M108.1,170.1L39.4,9.5H0l81.7,201.9h46.4L216.7,9.5h-41.9L108.1,170.1z M552,156.6L445.4,9.5H408v201.9h36V61.2
	l106.6,150.2H588V9.5h-36V156.6z M1055,212.8c35.6,0,60.7-13.6,82.8-36.4V99.1h-88.9v32.5h51.8v29.5c-15.9,12.7-29.8,16.2-45.7,16.2
	c-50.3,0-69.7-34.4-69.7-67.7c0-41.6,26.3-74.6,69.7-74.6c17.6,0,37.9,7.2,51.5,20.2l23.7-24.3C1109.3,10.4,1082.1,0,1055,0
	c-71.4,0-107,52.6-107,109.6C948,162.8,978.9,212.8,1055,212.8z M1282,294.3h-7.2c-6.9,0-10.3-3-10.3-9c0-6.8,5-10.2,15.2-10.2
	c6.5,0,12.6,1,18.2,3.1v-6.6c-5.6-1.5-11.7-2.3-18.2-2.3c-15,0-22.5,5.3-22.5,16c0,10.1,5.8,15.2,17.5,15.2h7.2c7.1,0,10.6,3,10.6,9
	c0,7-4.8,10.5-14.4,10.5c-6.8,0-13.1-1-19-3.1v6.6c5.8,1.6,12.2,2.4,19.2,2.4c14.4,0,21.6-5.5,21.6-16.4
	C1299.9,299.4,1293.9,294.3,1282,294.3z M1220.9,269.6h-7.2v55.9h36.4v-5.9h-29.2V269.6z M1173,269.6l-23.7,55.9h7.5l7.2-17.6h25.6
	l7.2,17.6h8l-23.8-55.9H1173z M1166.4,302l10.4-25.3l10.4,25.3H1166.4z M1205.5,179v-53h96.7V92.5h-96.3V41.7H1307V9.5h-138.2v201.9
	H1309V179H1205.5z M1011.7,300.2h27.9v-5.9h-27.9v-18.8h29.3v-5.8h-36.5v55.9h37.1v-5.9h-29.9V300.2z M1152.3,269.6h-42.4v5.9h17.6
	v50h7.2v-50h17.6V269.6z M1093.8,314.6l-34.2-45h-7.2v55.9h6.8v-45.4l34.2,45.4h7.2v-55.9h-6.8V314.6z"/>
<path id="colorstyle:Selected" fill="#EA4E00" d="M176.5,211.4L262.2,9.5h40.2L390,211.4h-40.2L281.4,48.1l-66.5,163.4h-38.4V211.4z
	 M88.8,260.6H61.2l-30.7,73.6h27.6L88.8,260.6z"/>
<path id="colorstyle:Accent1" fill="#F79521" d="M307.9,156.4l-26.5,55.1l-26.6-55.1H307.9z M110.7,260.6l-30,73.6h26.9l30.7-73.6
	H110.7z"/>
</svg>
