<?xml version="1.0" encoding="utf-8"?>
<!-- Generator: Adobe Illustrator 27.8.0, SVG Export Plug-In . SVG Version: 6.00 Build 0)  -->
<svg version="1.1" baseProfile="tiny" id="Layer_1" xmlns="http://www.w3.org/2000/svg" xmlns:xlink="http://www.w3.org/1999/xlink"
	 x="0px" y="0px" viewBox="0 0 64 64" overflow="visible" xml:space="preserve">
<path id="opacity:65_00000107566672486479731630000016394359091512411327_" fill="#FFFFFF" d="M6.8,32.1c0-6.8,2.6-13.1,7.5-17.9
	c0.7-0.7,1-1.5,1-2.4c0-1.4-0.8-2.6-2.1-3.1s-2.7-0.3-3.6,0.7C3.4,15.4,0,23.5,0,32.1s3.4,16.7,9.5,22.7c0.6,0.6,1.5,0.9,2.3,0.9
	c0.4,0,0.9-0.1,1.3-0.3c1.3-0.5,2.1-1.8,2.1-3.2c0-0.9-0.4-1.8-1-2.4C9.4,45.1,6.8,38.8,6.8,32.1z M12.4,53.7
	c-0.2,0.1-0.9,0.3-1.5-0.3c-5.8-5.7-9-13.2-9-21.3s3.2-15.7,9-21.4c0.3-0.3,0.7-0.4,0.9-0.4c0.3,0,0.5,0.1,0.6,0.1
	c0.4,0.2,0.9,0.6,0.9,1.4c0,0.4-0.2,0.7-0.5,1c-5.2,5.1-8,12-8,19.2s2.8,14,8,19.2c0.3,0.3,0.5,0.7,0.5,1.1
	C13.3,53.1,12.8,53.5,12.4,53.7z"/>
<path id="opacity:65" fill="#FFFFFF" d="M54.5,9.4c-1-1-2.4-1.2-3.6-0.7c-1.3,0.5-2.1,1.8-2.1,3.1c0,0.9,0.4,1.8,1,2.4
	c4.8,4.7,7.4,11.1,7.4,17.9c0,6.7-2.6,13.1-7.4,17.8c-0.7,0.6-1,1.5-1,2.4c0,1.4,0.8,2.6,2.1,3.1c0.4,0.2,0.9,0.3,1.3,0.3
	c0.8,0,1.7-0.3,2.3-1c6.1-6,9.5-14.1,9.5-22.7C64,23.5,60.6,15.4,54.5,9.4z M53.2,53.4c-0.6,0.6-1.3,0.4-1.5,0.3
	c-0.4-0.2-0.9-0.6-0.9-1.4c0-0.4,0.2-0.7,0.5-1c5.2-5.1,8-11.9,8-19.2s-2.8-14.2-8-19.2c-0.3-0.3-0.5-0.6-0.5-1
	c0-0.7,0.5-1.2,0.9-1.3c0.1,0,0.3-0.1,0.6-0.1s0.6,0.1,0.9,0.4C58.9,16.5,62,24,62,32.1S58.9,47.7,53.2,53.4z"/>
<g>
	<path fill="#FFFFFF" d="M35.3,15.7l-1,21.4c-0.1,2.9-4.6,2.9-4.7,0l-1-21.4C28.5,11.2,35.5,11.2,35.3,15.7L35.3,15.7z"/>
	<circle fill="#FFFFFF" cx="32" cy="46.7" r="3.3"/>
</g>
</svg>
