<?xml version="1.0" encoding="utf-8"?>
<!-- Generator: Adobe Illustrator 24.2.3, SVG Export Plug-In . SVG Version: 6.00 Build 0)  -->
<svg version="1.1" baseProfile="tiny" id="Layer_1" xmlns="http://www.w3.org/2000/svg" xmlns:xlink="http://www.w3.org/1999/xlink"
	 x="0px" y="0px" viewBox="0 0 420.2 275.7" overflow="visible" xml:space="preserve">
<g id="Layer_2_1_">
	<g id="OneMeal">
		<path fill="#DB9435" d="M419,275.7l-2.9-0.7c1.1-4.7,2-15.2,0-23.6c-8.1-34.4-58.4-48.3-141.8-71.5c-28.4-7.9-60.5-16.8-96.4-28
			C62.2,116,20.3,91.5,5.6,51.1C-1.9,30.3,0.1,6.7,0.9,0l3,0.4C3.1,6.9,1.1,29.9,8.4,50.1c14.3,39.3,55.7,63.3,170.4,99.1
			c35.8,11.2,67.9,20.1,96.3,27.9c84.4,23.4,135.3,37.6,143.9,73.7C421.1,259.7,420.1,270.6,419,275.7z"/>
	</g>
</g>
</svg>
