<?xml version="1.0" encoding="utf-8"?>
<!-- Generator: Adobe Illustrator 24.2.3, SVG Export Plug-In . SVG Version: 6.00 Build 0)  -->
<svg version="1.1" baseProfile="tiny" id="Layer_1" xmlns="http://www.w3.org/2000/svg" xmlns:xlink="http://www.w3.org/1999/xlink"
	 x="0px" y="0px" viewBox="0 0 215.6 273.9" overflow="visible" xml:space="preserve">
<g id="Layer_2_1_">
	<g id="OneMeal">
		<path fill="#DDDFE0" d="M214.9,273.9l-3-0.3c0.9-10.4,0.9-21,0-31.4c-4.3-47.9-27.2-81.6-34.1-90.7c-25.9-34.4-63-44.6-95.7-53.6
			C50,89.2,19.7,80.8,6.3,51.3C-2.9,31.2,0.3,7,1.5,0l3,0.5C2.1,14.4,2,34.7,9,50.1c12.8,28.2,41.1,36,73.9,45
			c33.2,9.1,70.8,19.5,97.3,54.7c7,9.3,30.3,43.5,34.7,92.3C215.8,252.6,215.8,263.4,214.9,273.9z"/>
	</g>
</g>
</svg>
