<?xml version="1.0" encoding="utf-8"?>
<!-- Generator: Adobe Illustrator 24.2.3, SVG Export Plug-In . SVG Version: 6.00 Build 0)  -->
<svg version="1.1" baseProfile="tiny" id="Layer_1" xmlns="http://www.w3.org/2000/svg" xmlns:xlink="http://www.w3.org/1999/xlink"
	 x="0px" y="0px" viewBox="0 0 834.3 273.6" overflow="visible" xml:space="preserve">
<g id="Layer_2_1_">
	<g id="OneMeal">
		<path fill="#DDDFE0" d="M0.4,273.6c-1.3-15.1,0.9-28.9,6.5-41c12.2-26.4,39.1-42.2,87.1-51.1c44.3-8.2,102.7-10,176.6-12.4
			c47.8-1.5,102.1-3.2,161.7-7c146.3-9.4,253.3-27,318.1-52.3c55.4-21.6,69.6-45,75.5-60.7c7.3-19.5,5.6-40.6,4.6-48.7l3-0.4
			c1.1,8.4,2.8,30-4.7,50.2c-6.1,16.2-20.7,40.3-77.2,62.4c-65,25.4-172.3,43.1-319,52.5c-59.7,3.8-113.9,5.5-161.8,7
			c-73.8,2.3-132.1,4.2-176.1,12.3c-46.9,8.7-73.1,23.9-84.9,49.4c-5.4,11.6-7.5,24.9-6.2,39.5L0.4,273.6z"/>
	</g>
</g>
</svg>
