<?xml version="1.0" encoding="utf-8"?>
<!-- Generator: Adobe Illustrator 26.0.1, SVG Export Plug-In . SVG Version: 6.00 Build 0)  -->
<svg version="1.1" baseProfile="tiny" id="Layer_1" xmlns="http://www.w3.org/2000/svg" xmlns:xlink="http://www.w3.org/1999/xlink"
	 x="0px" y="0px" viewBox="0 0 1920 1080" overflow="visible" xml:space="preserve">
<g>
	<path fill="none" stroke="#FFDAA4" stroke-width="2" stroke-miterlimit="10" d="M582.9,706H474.1c-8.7,0-16.1-3.1-22.2-9.2
		c-6.1-6.1-9.2-13.6-9.2-22.2v-36.9c0-8.7,3.1-16.1,9.2-22.2c6.1-6.1,13.5-9.2,22.2-9.2h108.8v26H468.7v47.7h114.2V706z"/>
	<path fill="none" stroke="#FFDAA4" stroke-width="2" stroke-miterlimit="10" d="M734.7,674.5c0,8.7-3.1,16.1-9.2,22.2
		c-6.1,6.1-13.6,9.2-22.2,9.2h-77.3c-8.7,0-16.1-3.1-22.2-9.2c-6.1-6.1-9.2-13.6-9.2-22.2v-36.9c0-8.7,3.1-16.1,9.2-22.2
		c6.1-6.1,13.6-9.2,22.2-9.2h77.3c8.7,0,16.1,3.1,22.2,9.2c6.1,6.1,9.2,13.6,9.2,22.2V674.5z M708.7,679.9v-47.7h-88.2v47.7H708.7z"
		/>
	<path fill="none" stroke="#FFDAA4" stroke-width="2" stroke-miterlimit="10" d="M913,606.2l-66.5,89.1
		c-6.4,8.6-13.9,12.8-22.6,12.8c-8.8,0-16.4-4.3-22.8-12.8l-66.5-89.1h33.1l56.2,77l56-77H913z"/>
	<path fill="none" stroke="#FFDAA4" stroke-width="2" stroke-miterlimit="10" d="M1032.8,706h-33.1l-14.1-19.2h-73.2l19-26h35.2
		L943.6,629l-56,77h-33.1l66.5-89.1c6.4-8.5,14-12.8,22.8-12.8c8.7,0,16.2,4.3,22.6,12.8L1032.8,706z"/>
	<path fill="none" stroke="#FFDAA4" stroke-width="2" stroke-miterlimit="10" d="M1147,706h-82.8c-8.7,0-16.1-3.1-22.2-9.2
		c-6.1-6.1-9.2-13.6-9.2-22.2v-68.3h26v73.7h88.2V706z"/>
	<path fill="none" stroke="#FFDAA4" stroke-width="2" stroke-miterlimit="10" d="M1295.9,706h-108.8c-8.7,0-16.1-3.1-22.2-9.2
		c-6.2-6.1-9.2-13.6-9.2-22.2v-36.9c0-8.7,3.1-16.1,9.2-22.2c6.1-6.1,13.5-9.2,22.2-9.2h108.8v26h-114.2v47.7h114.2V706z
		 M1295.9,669.1h-105.5v-26h105.5V669.1z"/>
	<path fill="none" stroke="#FFDAA4" stroke-width="2" stroke-miterlimit="10" d="M1477.3,706h-42.8l-37.8-29.8
		c-4.3-3.4-7.4-7.5-9.2-12.3c-1.7,4.8-4.7,8.9-9,12.3l-37.8,29.8h-42.8l64.5-50.2l-63.6-49.5h42.8l37,29.1c4.2,3.4,7.2,7.4,8.9,12.1
		c1.8-4.7,4.8-8.7,9-12.1l37-29.1h42.8l-63.6,49.5L1477.3,706z"/>
</g>
<g>
	<path fill="none" stroke="#FFDAA4" stroke-width="2" stroke-miterlimit="10" d="M488.1,775.3h-43.5v-7.2h47.6v-9.9h-38.2
		c-6.2,0-11.3-5-11.3-11.3v-1.8c0-6.2,5-11.3,11.3-11.3h43.5v7.2h-47.6v9.9h38.2c6.2,0,11.3,5,11.3,11.3v1.8
		C499.4,770.2,494.4,775.3,488.1,775.3z"/>
	<path fill="none" stroke="#FFDAA4" stroke-width="2" stroke-miterlimit="10" d="M643.7,775.3v-17.1h-40.3v17.1h-7.2v-41.5h7.2v17.1
		h40.3v-17.1h7.2v41.5H643.7z"/>
	<path fill="none" stroke="#FFDAA4" stroke-width="2" stroke-miterlimit="10" d="M749.7,775.3v-41.5h7.2v41.5H749.7z"/>
	<path fill="none" stroke="#FFDAA4" stroke-width="2" stroke-miterlimit="10" d="M899.1,762.6h-36.3v12.6h-7.2v-41.5h43.5
		c6.2,0,11.3,5,11.3,11.3v6.3C910.4,757.6,905.4,762.6,899.1,762.6z M903.2,741h-40.3v14.4h40.3V741z"/>
	<path fill="none" stroke="#FFDAA4" stroke-width="2" stroke-miterlimit="10" d="M1052.6,762.6h-36.3v12.6h-7.2v-41.5h43.5
		c6.2,0,11.3,5,11.3,11.3v6.3C1063.9,757.6,1058.9,762.6,1052.6,762.6z M1056.7,741h-40.3v14.4h40.3V741z"/>
	<path fill="none" stroke="#FFDAA4" stroke-width="2" stroke-miterlimit="10" d="M1162.6,775.3v-41.5h7.2v41.5H1162.6z"/>
	<path fill="none" stroke="#FFDAA4" stroke-width="2" stroke-miterlimit="10" d="M1323.8,767.8c0,4.5-3.6,8.1-8.1,8.1
		c-2.3,0-4.3-0.9-5.8-2.4l-34.1-34.6v36.3h-7.2v-34c0-4.5,3.6-8.1,8.1-8.1c2.3,0,4.3,0.9,5.8,2.4l34.1,34.6v-36.3h7.2V767.8z"/>
	<path fill="none" stroke="#FFDAA4" stroke-width="2" stroke-miterlimit="10" d="M1466.1,775.3h-32.2c-6.2,0-11.3-5-11.3-11.3v-18.9
		c0-6.2,5-11.3,11.3-11.3h43.5v7.2h-47.6v27.1h40.3v-9.9H1449v-7.2h28.4V764C1477.3,770.2,1472.3,775.3,1466.1,775.3z"/>
</g>
</svg>
