<?xml version="1.0" encoding="utf-8"?>
<!-- Generator: Adobe Illustrator 26.2.1, SVG Export Plug-In . SVG Version: 6.00 Build 0)  -->
<svg version="1.1" baseProfile="tiny" id="Layer_1" xmlns="http://www.w3.org/2000/svg" xmlns:xlink="http://www.w3.org/1999/xlink"
	 x="0px" y="0px" viewBox="0 0 283.7 493.8" overflow="visible" xml:space="preserve">
<g>
	<path fill="#FFFFFF" d="M276.3,0.2H8.4C4,0.2,0.5,3.7,0.5,8.1v478c0,4.4,3.5,7.9,7.9,7.9h230.8c2.1,0,4.2-0.9,5.6-2.4l37.1-38
		c1.4-1.5,2.3-3.5,2.3-5.5V8.1C284.2,3.7,280.6,0.2,276.3,0.2z M9.2,17.5c0-3.7,3.1-7.6,7-7.6h250.9c3.9,0,8,4,8,7.6v27.6
		c0,3.7-4.1,7.6-8,7.6H16.2c-3.9,0-7-4-7-7.6V17.5z M275.2,443.2c0,2.9-1.1,5.7-3.2,7.8l-30.1,30.7c-2.1,2.1-4.9,3.3-7.9,3.3H13.5
		c-2.3,0-4.1-1.8-4.1-4.1V88.7c0-4.5,3.7-8.2,8.2-8.1l26.6,0.1c1.7,0,3.4,0.7,4.6,1.9l15.3,14.9c4,4,9.4,6.2,15.1,6.2H266
		c5.1,0,9.2,4.1,9.2,9.2V443.2z"/>
</g>
</svg>
