<?xml version="1.0" encoding="utf-8"?>
<!-- Generator: Adobe Illustrator 26.2.1, SVG Export Plug-In . SVG Version: 6.00 Build 0)  -->
<svg version="1.1" baseProfile="tiny" id="Layer_1" xmlns="http://www.w3.org/2000/svg" xmlns:xlink="http://www.w3.org/1999/xlink"
	 x="0px" y="0px" viewBox="0 0 283.7 493.8" overflow="visible" xml:space="preserve">
<g>
	<path fill="#FFFFFF" d="M246.2,453.8h-57.5c-1,0-1.9,0.3-2.6,1l-17.8,15c-2.9,2.4-1.1,7.1,2.6,7.1h57.8c0.9,0,1.8-0.3,2.6-0.9
		l17.7-14.9C251.8,458.5,250,453.8,246.2,453.8z"/>
	<path fill="#FFFFFF" d="M126.4,453.8H68.8c-1,0-1.9,0.3-2.6,1l-17.8,15c-2.8,2.4-1.1,7,2.6,7h57.8c0.9,0,1.8-0.3,2.6-0.9l17.7-14.9
		C131.9,458.5,130.2,453.8,126.4,453.8z"/>
	<path fill="#FFFFFF" d="M178.9,315.5v-47.3c0-3.9-4.5-6-7.5-3.5l-73.9,62.3c-2.9,2.5-1.2,7.2,2.6,7.2h57.5c1,0,1.9-0.3,2.6-1
		l16.9-14.3C178.3,318.2,178.9,316.9,178.9,315.5z"/>
	<path fill="#FFFFFF" d="M178.9,214.4v-47.3c0-3.9-4.5-6-7.5-3.5l-153,129.2c-0.9,0.8-1.4,1.9-1.4,3.1v34.4c0,2.3,1.8,4.1,4.1,4.1
		h16.8c1,0,1.9-0.3,2.6-1l136.8-115.5C178.3,217,178.9,215.7,178.9,214.4z"/>
	<path fill="#FFFFFF" d="M18.4,191.6c-0.9,0.8-1.4,1.9-1.4,3.1v39.8c0,2.2,1.8,4,4,4h10.6c0.9,0,1.8-0.3,2.6-0.9l137.9-116.8
		c2.5-2.1,1-6.2-2.3-6.2l-57.2,0c-2,0-3.9,0.7-5.5,2L18.4,191.6z"/>
	<path fill="#FFFFFF" d="M21,94.2c-2.2,0-4,1.8-4,4v35.1c0,2.2,1.8,4,4,4h10.6c0.9,0,1.8-0.3,2.6-0.9l24-20.2c2.1-1.8,2.2-5,0.2-6.9
		L44.3,95.8c-1-1-2.4-1.5-3.8-1.5H21z"/>
</g>
</svg>
