<?xml version="1.0" encoding="utf-8"?>
<!-- Generator: Adobe Illustrator 26.2.1, SVG Export Plug-In . SVG Version: 6.00 Build 0)  -->
<svg version="1.1" baseProfile="tiny" id="Layer_1" xmlns="http://www.w3.org/2000/svg" xmlns:xlink="http://www.w3.org/1999/xlink"
	 x="0px" y="0px" viewBox="0 0 283.8 493.6" overflow="visible" xml:space="preserve">
<rect x="44" y="470.1" fill="#AAD5DE" width="11.4" height="6"/>
<rect x="28" y="470.1" fill="#AAD5DE" width="11.4" height="6"/>
<g>
	<path d="M31.6,474.5H30v-0.3l0.8-0.8c0.1-0.1,0.2-0.2,0.3-0.3c0.1-0.1,0.1-0.2,0.2-0.3c0-0.1,0.1-0.2,0.1-0.3c0-0.2,0-0.3-0.1-0.4
		s-0.2-0.1-0.4-0.1c-0.2,0-0.4,0-0.6,0.1h-0.1v-0.3c0.3-0.1,0.5-0.1,0.8-0.1s0.5,0.1,0.6,0.2s0.2,0.3,0.2,0.5s0,0.3-0.1,0.5
		c-0.1,0.1-0.2,0.3-0.4,0.5l-0.7,0.7h1.3v0.4H31.6z"/>
	<path d="M34.2,471.9v0.3h-1.3l-0.1,0.9c0.2-0.1,0.4-0.2,0.6-0.2c0.6,0,0.8,0.3,0.8,0.8c0,0.3-0.1,0.5-0.2,0.7s-0.4,0.2-0.7,0.2
		c-0.2,0-0.5,0-0.7-0.1h-0.1v-0.2c0.3,0.1,0.6,0.1,0.8,0.1s0.4-0.1,0.5-0.2s0.2-0.3,0.2-0.5s0-0.3-0.1-0.4s-0.2-0.1-0.4-0.1
		c-0.1,0-0.2,0-0.3,0s-0.2,0.1-0.2,0.1h-0.1h-0.2l0.1-1.4L34.2,471.9L34.2,471.9z"/>
	<path d="M35.3,472.2v-0.3h1.6v0.4l-1,2.3l-0.3-0.1l1-2.2v-0.1L35.3,472.2L35.3,472.2z"/>
</g>
<rect x="11.8" y="470.1" fill="#AAD5DE" width="11.4" height="6"/>
<g>
	<path d="M19,474.3h1.3l-0.7-0.7c-0.2-0.2-0.3-0.4-0.4-0.5s-0.1-0.3-0.1-0.5s0.1-0.4,0.2-0.5s0.3-0.2,0.6-0.2c0.3,0,0.5,0,0.8,0.1
		v0.3h-0.1c-0.2,0-0.4-0.1-0.6-0.1s-0.3,0-0.4,0.1s-0.1,0.2-0.1,0.4c0,0.1,0,0.2,0.1,0.3c0,0.1,0.1,0.2,0.2,0.3
		c0.1,0.1,0.2,0.2,0.3,0.3l0.8,0.8v0.3H19V474.3z"/>
	<path d="M16.4,471.9h0.1c0.2,0,0.4,0,0.6,0c0.3,0,0.6,0.1,0.8,0.3c0.2,0.2,0.3,0.6,0.3,1c0,0.9-0.3,1.4-0.9,1.4
		c-0.3,0-0.5-0.1-0.7-0.2s-0.2-0.4-0.2-0.6c0-0.5,0.3-0.8,0.9-0.8c0.1,0,0.2,0,0.3,0c0.1,0,0.2,0.1,0.3,0.1H18
		c0-0.3-0.1-0.5-0.2-0.7s-0.3-0.2-0.5-0.2s-0.5,0-0.7,0L16.4,471.9z M16.8,473.3c-0.1,0.1-0.2,0.2-0.2,0.4c0,0.2,0.1,0.3,0.2,0.4
		s0.3,0.2,0.5,0.2s0.4-0.1,0.5-0.3s0.2-0.4,0.2-0.7h-0.1c-0.1,0-0.1,0-0.3-0.1c-0.1,0-0.2,0-0.3,0C17,473.2,16.9,473.2,16.8,473.3z"
		/>
	<path d="M15.4,472.2h-0.1c-0.2,0-0.4-0.1-0.6-0.1c-0.2,0-0.3,0-0.4,0.1c-0.1,0.1-0.1,0.2-0.1,0.3s0.1,0.3,0.2,0.4
		c0.1,0.1,0.2,0.1,0.3,0.1h0.5v0.3h-0.5c-0.4,0-0.5,0.2-0.5,0.5s0.2,0.5,0.6,0.5c0.3,0,0.5,0,0.8-0.1v0.3h-0.1
		c-0.3,0.1-0.5,0.1-0.7,0.1c-0.3,0-0.5-0.1-0.6-0.2s-0.2-0.3-0.2-0.6c0-0.2,0-0.3,0.1-0.4s0.2-0.2,0.3-0.2l0,0l-0.1-0.1l-0.1-0.1
		c0,0,0-0.1-0.1-0.1s0-0.1,0-0.3c0-0.2,0.1-0.4,0.2-0.5s0.3-0.2,0.6-0.2s0.6,0,0.8,0.1L15.4,472.2z"/>
</g>
<g>
	<path d="M51.5,472.2v0.1l1,2.2l-0.3,0.1l-1-2.3v-0.4h1.6v0.3L51.5,472.2L51.5,472.2z"/>
	<path d="M50.3,474.2v0.2h-0.1c-0.2,0-0.4,0.1-0.6,0.1c-0.3,0-0.6-0.1-0.8-0.3c-0.2-0.2-0.3-0.5-0.3-1s0.1-0.8,0.2-1.1
		s0.4-0.4,0.7-0.4s0.5,0.1,0.7,0.2c0.2,0.2,0.2,0.4,0.2,0.6c0,0.5-0.3,0.8-0.9,0.8c-0.2,0-0.4,0-0.7-0.2c0,0.6,0.2,0.9,0.7,0.9
		C49.8,474.3,50,474.3,50.3,474.2z M50.1,472.7c0-0.2-0.1-0.3-0.2-0.4c-0.1-0.1-0.3-0.2-0.4-0.2c-0.4,0-0.6,0.3-0.6,1H49
		c0.2,0.1,0.4,0.1,0.6,0.1C49.9,473.3,50.1,473.1,50.1,472.7z"/>
	<path d="M46.2,474.5V474h-0.3v-0.3h0.3v-0.8h0.3v0.8h1l-0.8-1.8H47l0.8,1.9v0.2h-1.3v0.5L46.2,474.5L46.2,474.5z"/>
</g>
<g>
	<rect x="68.4" y="470.1" fill="#C3E2E9" width="11.4" height="6"/>
	<path fill="#C3E2E9" d="M80.3,476.6H67.9v-7h12.4V476.6z M68.9,475.6h10.4v-5H68.9V475.6z"/>
</g>
<g>
	<path fill="#79C2D0" d="M70.4,472.2v-0.3H72v0.4l-1,2.3l-0.3-0.1l1-2.2v-0.1L70.4,472.2L70.4,472.2z"/>
	<path fill="#79C2D0" d="M73.7,474.3c0.5,0,0.7-0.3,0.7-0.9c-0.3,0.1-0.5,0.2-0.7,0.2c-0.6,0-0.9-0.3-0.9-0.8c0-0.3,0.1-0.5,0.2-0.6
		c0.2-0.2,0.4-0.2,0.7-0.2c0.3,0,0.6,0.1,0.7,0.4s0.2,0.6,0.2,1.1s-0.1,0.8-0.3,1c-0.2,0.2-0.4,0.3-0.8,0.3c-0.2,0-0.4,0-0.6-0.1
		h-0.1v-0.2C73.3,474.3,73.5,474.3,73.7,474.3z M73.8,473.3c0.2,0,0.4,0,0.6-0.1h0.1c0-0.7-0.2-1-0.6-1c-0.2,0-0.3,0.1-0.4,0.2
		s-0.2,0.3-0.2,0.4C73.2,473.1,73.4,473.3,73.8,473.3z"/>
	<path fill="#79C2D0" d="M76.8,474.5V474h-1.3v-0.2l0.8-1.9h0.3l-0.8,1.8h1v-0.8h0.3v0.8h0.3v0.3h-0.3v0.5L76.8,474.5L76.8,474.5z"
		/>
</g>
<circle fill="#AAD5DE" cx="25" cy="484.6" r="1.8"/>
<path fill="#C3E2E9" d="M235.8,493.5H28.6v-3.2h207.2c3.2,0,6.3-1.3,8.6-3.5l32.5-32.3c2.3-2.3,3.6-5.4,3.6-8.5v-6.1h3.2v6.1
	c0,4-1.7,7.9-4.6,10.8L246.6,489C243.8,491.9,239.9,493.5,235.8,493.5z"/>
<path fill="#AAD5DE" d="M22.8,493.5H8.3c-4.4,0-7.9-3.6-7.9-7.9v-8.3h3.2v8.3c0,2.6,2.1,4.7,4.7,4.7h14.5V493.5z"/>
<rect x="0.4" y="448.6" fill="#C3E2E9" width="3.2" height="23.3"/>
<rect x="280.5" y="408.4" fill="#C3E2E9" width="3.2" height="23.3"/>
<rect x="0.4" y="448.6" fill="#AAD5DE" width="3.2" height="2.4"/>
<rect x="280.5" y="408.4" fill="#AAD5DE" width="3.2" height="2.5"/>
<rect x="28.5" y="0" fill="#C3E2E9" width="226.6" height="3.2"/>
<path fill="#AAD5DE" d="M3.4,16.2H0.2V7.9C0.2,3.5,3.7,0,8.1,0h14.6v3.2H8.1c-2.6,0-4.7,2.1-4.7,4.7V16.2z"/>
<rect x="0.2" y="21.6" fill="#C3E2E9" width="3.2" height="23.4"/>
<path fill="#AAD5DE" d="M283.7,16.2h-3.2V7.9c0-2.6-2.1-4.7-4.7-4.7h-14.5V0h14.5c4.4,0,7.9,3.6,7.9,7.9V16.2z"/>
<rect x="280.6" y="21.6" fill="#C3E2E9" width="3.2" height="23.4"/>
<rect x="0.2" y="42.5" fill="#AAD5DE" width="3.2" height="2.5"/>
<rect x="280.6" y="42.5" fill="#AAD5DE" width="3.2" height="2.5"/>
<rect x="0" y="58.7" fill="#C3E2E9" width="3.2" height="377.1"/>
<rect x="280.6" y="58.7" fill="#C3E2E9" width="3.2" height="336.1"/>
</svg>
