<?xml version="1.0" encoding="utf-8"?>
<!-- Generator: Adobe Illustrator 28.2.0, SVG Export Plug-In . SVG Version: 6.00 Build 0)  -->
<svg version="1.1" baseProfile="tiny" id="Layer_1" xmlns="http://www.w3.org/2000/svg" xmlns:xlink="http://www.w3.org/1999/xlink"
	 x="0px" y="0px" width="275.6px" height="5.7px" viewBox="0 0 275.6 5.7" overflow="visible" xml:space="preserve">
<path id="colorstyle:Accent1_opacity:20" fill="#97D1D5" d="M267.4,5.7h-2.5v-1h2.5c1.8,0,3.5-0.7,4.8-2l2.7-2.7l0.7,0.7l-2.7,2.7
	C271.5,4.9,269.5,5.7,267.4,5.7z M10.7,4.7H8.2c-1.8,0-3.5-0.7-4.8-2L0.7,0L0,0.7l2.7,2.7c1.5,1.5,3.5,2.3,5.5,2.3h2.5V4.7z
	 M263.5,4.7H12.1v1h251.4V4.7z"/>
<path id="colorstyle:Accent1_opacity:40" fill="#97D1D5" d="M274.7,1.6L274,0.9l0.9-0.9l0.7,0.7L274.7,1.6z M1.6,0.9L0.7,0L0,0.7
	l0.9,0.9L1.6,0.9z M266.2,5.7h-1.3v-1h1.3V5.7z M10.7,4.7H9.4v1h1.3V4.7z M263.5,5.7h-1.3v-1h1.3V5.7z M13.3,4.7h-1.3v1h1.3V4.7z"/>
</svg>
