<?xml version="1.0" encoding="utf-8"?>
<!-- Generator: Adobe Illustrator 27.8.0, SVG Export Plug-In . SVG Version: 6.00 Build 0)  -->
<svg version="1.1" baseProfile="tiny" id="Layer_1" xmlns="http://www.w3.org/2000/svg" xmlns:xlink="http://www.w3.org/1999/xlink"
	 x="0px" y="0px" viewBox="0 0 712 165" overflow="visible" xml:space="preserve">
<path id="colorstyle:Base_opacity:50_00000060008424947945534160000016530636092945041059_" fill="#9ED1B5" d="M712.3,39.6h-2v103.6
	h2V39.6z M356.1,164.4h333.2v-2H356.1V164.4z M501.3,18h184.8v-2H501.3c-4,0-8-1.3-11.2-3.8l-10.7-8.1C475.9,1.4,471.6,0,467,0h-4v2
	h4c4.2,0,8.1,1.3,11.2,3.7l10.7,8.1C492.4,16.5,496.9,18,501.3,18z M0,39.6h2v103.6H0V39.6z M356.1,164.4H22.9v-2h333.2V164.4z
	 M211,18H26.2v-2H211c4,0,8-1.3,11.2-3.8l10.7-8.1c3.5-2.7,7.8-4.1,12.4-4.1h4v2h-4c-4.2,0-8.1,1.3-11.2,3.7l-10.7,8.1
	C219.9,16.5,215.4,18,211,18z"/>
<polygon id="colorstyle:Base_opacity:50_00000096038089485118218590000005145359021729494462_" fill="#9ED1B5" points="356.1,0.1 
	252,0.1 252,2.1 356.1,2.1 460.3,2.1 460.3,0.1 "/>
<path id="colorstyle:Base_opacity:50_00000041988042157360405660000005706167312574195105_" fill="#9ED1B5" d="M710.3,35.2h2
	c0-10.5-8.6-19.2-19.2-19.2v2C702.6,18,710.3,25.8,710.3,35.2z M693.1,162.4c9.5,0,17.2-7.7,17.2-17.2h2c0,10.6-8.6,19.2-19.2,19.2
	V162.4z M2,35.2H0C0,24.7,8.6,16,19.2,16v2C9.7,18,2,25.8,2,35.2z M19.2,162.4c-9.5,0-17.2-7.7-17.2-17.2H0
	c0,10.6,8.6,19.2,19.2,19.2V162.4z"/>
<path id="colorstyle:Base_opacity:50" fill="#9ED1B5" d="M687,164.4h2.4v-2H687V164.4z M710.3,143.3h2v-1.7h-2V143.3z M710.3,39.6h2
	v-2.2h-2V39.6z M684.9,18h2.6v-2h-2.6V18z M691.1,18h2.6v-2h-2.6V18z M457.3,2.1h3v-2h-3V2.1z M463.1,2.1h3v-2h-3V2.1z M25.3,164.4
	h-2.4v-2h2.4V164.4z M2,143.3H0v-1.7h2V143.3z M2,39.6H0v-2.2h2V39.6z M27.4,18h-2.6v-2h2.6V18z M21.2,18h-2.6v-2h2.6V18z M255,2.1
	h-3v-2h3V2.1z M249.2,2.1h-3v-2h3V2.1z"/>
<path id="colorstyle:Background_opacity:30" fill="#09131F" d="M298.2,4.8h-53.6c-3.2,0-6.3,1.1-8.9,3l-12.5,9.5
	c-2.6,1.9-7.3,3.5-10.5,3.5H30.8H19.3c-8.4,0-15.2,6.8-15.2,15.2v109c0,8.4,6.8,15.2,15.2,15.2h670.8c8.7,0,15.8-7.1,15.8-15.8V36.7
	c0-8.7-7.1-15.8-15.8-15.8H498.8c-3.7,0-7.4-1.2-10.3-3.5l-13.1-9.5c-2.6-1.9-5.7-3-8.9-3H331.2L298.2,4.8z"/>
</svg>
