<?xml version="1.0" encoding="utf-8"?>
<!-- Generator: Adobe Illustrator 27.8.0, SVG Export Plug-In . SVG Version: 6.00 Build 0)  -->
<svg version="1.1" baseProfile="tiny" id="Layer_1" xmlns="http://www.w3.org/2000/svg" xmlns:xlink="http://www.w3.org/1999/xlink"
	 x="0px" y="0px" viewBox="0 0 153.6 21.7" overflow="visible" xml:space="preserve">
<path id="opacity:55" fill="#8DCCFF" d="M147.7,19.9H8.5c-2.3,0-4.1-1.9-4.1-4.1V6c0-2.3,1.9-4.1,4.1-4.1h139.2
	c2.3,0,4.1,1.9,4.1,4.1v9.8C151.9,18.1,150,19.9,147.7,19.9z"/>
<path fill="#8DCCFF" d="M147.8,0H5.8C2.6,0,0,2.6,0,5.8v10.1c0,3.2,2.6,5.8,5.8,5.8h142c3.2,0,5.8-2.6,5.8-5.8V5.8
	C153.6,2.6,151,0,147.8,0z M153.1,15.9c0,2.9-2.4,5.3-5.3,5.3H5.8c-2.9,0-5.2-2.3-5.2-5.1L1,15.6c0.4-0.4,0.6-1,0.6-1.6V7.5
	c0-0.6-0.2-1.1-0.6-1.6L0.6,5.5C0.7,2.7,3,0.6,5.8,0.6h142c2.9,0,5.3,2.4,5.3,5.3V15.9z"/>
</svg>
