<?xml version="1.0" encoding="utf-8"?>
<!-- Generator: Adobe Illustrator 27.8.0, SVG Export Plug-In . SVG Version: 6.00 Build 0)  -->
<svg version="1.1" baseProfile="tiny" id="Layer_1" xmlns="http://www.w3.org/2000/svg" xmlns:xlink="http://www.w3.org/1999/xlink"
	 x="0px" y="0px" viewBox="0 0 125.2 3.3" overflow="visible" xml:space="preserve">
<g>
	<path fill="#8DCCFF" d="M2.7,2.6C2.6,2.6,2.6,2.6,2.7,2.6l0.7-2.1c0,0,0,0,0,0h0.3c0,0,0,0,0,0c0,0,0,0,0,0L3,2.6c0,0,0,0,0,0
		L2.7,2.6C2.7,2.6,2.7,2.6,2.7,2.6z"/>
	<path fill="#8DCCFF" d="M4.2,2.6C4.2,2.6,4.2,2.6,4.2,2.6l0.7-2.1c0,0,0,0,0,0h0.3c0,0,0,0,0,0c0,0,0,0,0,0L4.5,2.6c0,0,0,0,0,0
		L4.2,2.6C4.2,2.6,4.2,2.6,4.2,2.6z"/>
	<path fill="#8DCCFF" d="M7.1,0.5C7.1,0.5,7.1,0.5,7.1,0.5l0.3,0c0,0,0,0,0,0c0,0,0,0,0,0v2.1c0,0,0,0,0,0c0,0,0,0,0,0H7.1
		c0,0,0,0,0,0L6.2,1.2c0,0,0,0,0,0c0,0,0,0,0,0l0,1.4c0,0,0,0,0,0c0,0,0,0,0,0H5.9c0,0,0,0,0,0s0,0,0,0V0.5c0,0,0,0,0,0c0,0,0,0,0,0
		h0.3c0,0,0,0,0,0L7.1,2c0,0,0,0,0,0c0,0,0,0,0,0L7.1,0.5C7.1,0.5,7.1,0.5,7.1,0.5z"/>
	<path fill="#8DCCFF" d="M8.4,2.6C8.3,2.5,8.2,2.4,8.1,2.3C8,2.2,8,2.1,8,2V0.5c0,0,0,0,0,0c0,0,0,0,0,0h0.3c0,0,0,0,0,0
		c0,0,0,0,0,0V2c0,0.1,0,0.2,0.1,0.3c0.1,0.1,0.2,0.1,0.3,0.1c0.1,0,0.2,0,0.3-0.1C9.2,2.2,9.2,2.1,9.2,2V0.5c0,0,0,0,0,0
		c0,0,0,0,0,0h0.3c0,0,0,0,0,0c0,0,0,0,0,0V2c0,0.1,0,0.3-0.1,0.4C9.4,2.4,9.3,2.5,9.2,2.6S8.9,2.7,8.8,2.7C8.6,2.7,8.5,2.6,8.4,2.6
		z"/>
	<path fill="#8DCCFF" d="M10.1,2.6C10.1,2.6,10.1,2.6,10.1,2.6l0-2.1c0,0,0,0,0,0c0,0,0,0,0,0h0.3c0,0,0,0,0,0c0,0,0,0,0,0v1.8
		c0,0,0,0,0,0h1c0,0,0,0,0,0c0,0,0,0,0,0v0.2c0,0,0,0,0,0c0,0,0,0,0,0L10.1,2.6C10.2,2.6,10.2,2.6,10.1,2.6z"/>
	<path fill="#8DCCFF" d="M12,2.6C12,2.6,12,2.6,12,2.6l0-2.1c0,0,0,0,0,0c0,0,0,0,0,0h0.3c0,0,0,0,0,0c0,0,0,0,0,0v1.8c0,0,0,0,0,0
		h1c0,0,0,0,0,0c0,0,0,0,0,0v0.2c0,0,0,0,0,0c0,0,0,0,0,0L12,2.6C12.1,2.6,12.1,2.6,12,2.6z"/>
	<path fill="#8DCCFF" d="M13.8,2.6C13.8,2.6,13.8,2.6,13.8,2.6l0-0.2c0,0,0,0,0,0s0,0,0,0h1.3c0,0,0,0,0,0s0,0,0,0v0.2c0,0,0,0,0,0
		s0,0,0,0L13.8,2.6C13.8,2.6,13.8,2.6,13.8,2.6z"/>
	<path fill="#8DCCFF" d="M16.9,2.6l-0.1-0.3c0,0,0,0,0,0H16c0,0,0,0,0,0l-0.1,0.3c0,0,0,0,0,0h-0.3c0,0,0,0,0,0c0,0,0,0,0,0l0.7-2.1
		c0,0,0,0,0,0h0.4c0,0,0,0,0,0l0.7,2.1c0,0,0,0,0,0c0,0,0,0,0,0L16.9,2.6C17,2.6,16.9,2.6,16.9,2.6z M16.1,2h0.6c0,0,0,0,0,0l-0.3-1
		c0,0,0,0,0,0s0,0,0,0L16.1,2C16.1,2,16.1,2,16.1,2z"/>
	<path fill="#8DCCFF" d="M19,0.6c0.1,0.1,0.2,0.1,0.2,0.2c0.1,0.1,0.1,0.2,0.1,0.3c0,0.1,0,0.2-0.1,0.3S19.1,1.6,19,1.7
		c-0.1,0.1-0.2,0.1-0.4,0.1h-0.5c0,0,0,0,0,0v0.8c0,0,0,0,0,0c0,0,0,0,0,0h-0.3c0,0,0,0,0,0s0,0,0,0V0.5c0,0,0,0,0,0c0,0,0,0,0,0
		h0.8C18.8,0.5,18.9,0.5,19,0.6z M18.8,1.4c0.1-0.1,0.1-0.1,0.1-0.2c0-0.1,0-0.2-0.1-0.2s-0.1-0.1-0.3-0.1h-0.5c0,0,0,0,0,0v0.6
		c0,0,0,0,0,0h0.5C18.7,1.5,18.8,1.5,18.8,1.4z"/>
	<path fill="#8DCCFF" d="M19.9,1.5c0,0-0.1-0.1-0.1-0.2c0-0.1,0-0.1,0.1-0.2s0.1-0.1,0.2-0.1s0.1,0,0.2,0.1s0.1,0.1,0.1,0.2
		c0,0.1,0,0.1-0.1,0.2c0,0-0.1,0.1-0.2,0.1C20,1.6,20,1.6,19.9,1.5z M19.9,2.6c0,0-0.1-0.1-0.1-0.2s0-0.1,0.1-0.2s0.1-0.1,0.2-0.1
		s0.1,0,0.2,0.1s0.1,0.1,0.1,0.2s0,0.1-0.1,0.2c0,0-0.1,0.1-0.2,0.1C20,2.6,20,2.6,19.9,2.6z"/>
	<path fill="#32FFB6" d="M22,2.6c-0.1-0.1-0.2-0.1-0.3-0.2c-0.1-0.1-0.1-0.2-0.1-0.3V2c0,0,0,0,0,0c0,0,0,0,0,0H22c0,0,0,0,0,0
		s0,0,0,0V2c0,0.1,0,0.2,0.1,0.2c0.1,0.1,0.2,0.1,0.3,0.1c0.1,0,0.2,0,0.3-0.1c0.1-0.1,0.1-0.1,0.1-0.2c0-0.1,0-0.1-0.1-0.1
		c0,0-0.1-0.1-0.1-0.1s-0.2-0.1-0.3-0.1c-0.1-0.1-0.3-0.1-0.4-0.2c-0.1,0-0.2-0.1-0.2-0.2c-0.1-0.1-0.1-0.2-0.1-0.3
		c0-0.2,0.1-0.3,0.2-0.4s0.3-0.2,0.5-0.2c0.2,0,0.3,0,0.4,0.1c0.1,0.1,0.2,0.1,0.3,0.2s0.1,0.2,0.1,0.3v0.1c0,0,0,0,0,0c0,0,0,0,0,0
		h-0.3c0,0,0,0,0,0c0,0,0,0,0,0v0c0-0.1,0-0.2-0.1-0.2c-0.1-0.1-0.2-0.1-0.3-0.1c-0.1,0-0.2,0-0.3,0.1c-0.1,0-0.1,0.1-0.1,0.2
		c0,0.1,0,0.1,0,0.2c0,0,0.1,0.1,0.1,0.1c0.1,0,0.2,0.1,0.3,0.1c0.1,0.1,0.3,0.1,0.3,0.2c0.1,0,0.2,0.1,0.2,0.2
		c0.1,0.1,0.1,0.2,0.1,0.3c0,0.2-0.1,0.3-0.2,0.4s-0.3,0.2-0.6,0.2C22.3,2.7,22.2,2.6,22,2.6z"/>
	<path fill="#32FFB6" d="M25.1,0.5C25.1,0.5,25.1,0.5,25.1,0.5l0,0.3c0,0,0,0,0,0c0,0,0,0,0,0h-0.6c0,0,0,0,0,0v1.8c0,0,0,0,0,0
		c0,0,0,0,0,0h-0.3c0,0,0,0,0,0s0,0,0,0V0.8c0,0,0,0,0,0h-0.5c0,0,0,0,0,0c0,0,0,0,0,0V0.5c0,0,0,0,0,0c0,0,0,0,0,0L25.1,0.5
		C25.1,0.5,25.1,0.5,25.1,0.5z"/>
	<path fill="#32FFB6" d="M26.7,2.6l-0.1-0.3c0,0,0,0,0,0h-0.8c0,0,0,0,0,0l-0.1,0.3c0,0,0,0,0,0h-0.3c0,0,0,0,0,0c0,0,0,0,0,0
		L26,0.5c0,0,0,0,0,0h0.4c0,0,0,0,0,0l0.7,2.1c0,0,0,0,0,0c0,0,0,0,0,0L26.7,2.6C26.7,2.6,26.7,2.6,26.7,2.6z M25.9,2h0.6
		c0,0,0,0,0,0l-0.3-1c0,0,0,0,0,0s0,0,0,0L25.9,2C25.9,2,25.9,2,25.9,2z"/>
	<path fill="#32FFB6" d="M28.8,0.5C28.8,0.5,28.8,0.5,28.8,0.5l0,0.3c0,0,0,0,0,0c0,0,0,0,0,0h-0.6c0,0,0,0,0,0v1.8c0,0,0,0,0,0
		c0,0,0,0,0,0h-0.3c0,0,0,0,0,0s0,0,0,0V0.8c0,0,0,0,0,0h-0.5c0,0,0,0,0,0c0,0,0,0,0,0V0.5c0,0,0,0,0,0c0,0,0,0,0,0L28.8,0.5
		C28.7,0.5,28.8,0.5,28.8,0.5z"/>
	<path fill="#32FFB6" d="M30.7,0.8C30.7,0.8,30.7,0.8,30.7,0.8l-1.1,0c0,0,0,0,0,0v0.6c0,0,0,0,0,0h0.7c0,0,0,0,0,0c0,0,0,0,0,0v0.2
		c0,0,0,0,0,0c0,0,0,0,0,0h-0.7c0,0,0,0,0,0v0.6c0,0,0,0,0,0h1c0,0,0,0,0,0s0,0,0,0v0.2c0,0,0,0,0,0s0,0,0,0h-1.4c0,0,0,0,0,0
		s0,0,0,0V0.5c0,0,0,0,0,0c0,0,0,0,0,0h1.4c0,0,0,0,0,0c0,0,0,0,0,0L30.7,0.8C30.7,0.8,30.7,0.8,30.7,0.8z"/>
	<path fill="#32FFB6" d="M31.1,1.9C31.1,1.9,31.1,1.9,31.1,1.9l0-0.3c0,0,0,0,0,0c0,0,0,0,0,0h1c0,0,0,0,0,0c0,0,0,0,0,0v0.2
		c0,0,0,0,0,0c0,0,0,0,0,0L31.1,1.9C31.1,1.9,31.1,1.9,31.1,1.9z"/>
	<path fill="#32FFB6" d="M33,2.3C33,2.3,33,2.3,33,2.3l0.9,0c0,0,0,0,0,0c0,0,0,0,0,0v0.2c0,0,0,0,0,0c0,0,0,0,0,0h-1.3c0,0,0,0,0,0
		c0,0,0,0,0,0V2.4c0,0,0,0,0,0c0.2-0.2,0.3-0.4,0.5-0.6l0.1-0.2c0.2-0.2,0.3-0.4,0.3-0.5c0-0.1,0-0.2-0.1-0.2
		c-0.1-0.1-0.1-0.1-0.2-0.1S33,0.8,33,0.9c-0.1,0.1-0.1,0.1-0.1,0.2v0.1c0,0,0,0,0,0c0,0,0,0,0,0h-0.3c0,0,0,0,0,0c0,0,0,0,0,0V1
		c0-0.1,0-0.2,0.1-0.3c0.1-0.1,0.1-0.1,0.2-0.2c0.1,0,0.2-0.1,0.3-0.1c0.1,0,0.3,0,0.4,0.1c0.1,0.1,0.2,0.1,0.2,0.2
		c0.1,0.1,0.1,0.2,0.1,0.3c0,0.2-0.1,0.4-0.3,0.6c-0.1,0.1-0.3,0.3-0.5,0.6L33,2.3C33,2.3,33,2.3,33,2.3z"/>
	<path fill="#32FFB6" d="M35.7,2c0,0.1,0,0.2,0,0.3c0,0.1-0.1,0.2-0.2,0.3s-0.2,0.1-0.4,0.1c-0.2,0-0.3,0-0.4-0.1
		c-0.1-0.1-0.2-0.2-0.2-0.3c0,0,0-0.1,0-0.2v0c0,0,0,0,0,0h0.3c0,0,0,0,0,0c0,0,0,0,0,0.1c0,0.1,0.1,0.1,0.1,0.2
		c0,0,0.1,0.1,0.2,0.1c0.1,0,0.1,0,0.2-0.1c0.1,0,0.1-0.1,0.1-0.2c0,0,0-0.1,0-0.2c0-0.1,0-0.1,0-0.2c0-0.1,0-0.1-0.1-0.2
		s-0.1-0.1-0.2-0.1c-0.1,0-0.1,0-0.2,0c-0.1,0-0.1,0.1-0.1,0.1c0,0,0,0,0,0h-0.3c0,0,0,0,0,0s0,0,0,0V0.5c0,0,0,0,0,0c0,0,0,0,0,0
		h1.2c0,0,0,0,0,0c0,0,0,0,0,0v0.2c0,0,0,0,0,0c0,0,0,0,0,0h-0.9c0,0,0,0,0,0l0,0.6c0,0,0,0,0,0s0,0,0,0c0.1-0.1,0.2-0.1,0.3-0.1
		c0.1,0,0.3,0,0.4,0.1c0.1,0.1,0.2,0.2,0.2,0.3C35.7,1.8,35.7,1.9,35.7,2z"/>
	<path fill="#32FFB6" d="M37.5,2c0,0.1,0,0.2-0.1,0.3c0,0.1-0.1,0.2-0.2,0.3S37,2.7,36.8,2.7c-0.2,0-0.3,0-0.4-0.1
		c-0.1-0.1-0.2-0.2-0.2-0.3c0-0.1,0-0.2,0-0.3V1c0-0.1,0-0.2,0.1-0.3c0.1-0.1,0.1-0.1,0.2-0.2c0.1,0,0.2-0.1,0.3-0.1
		c0.1,0,0.2,0,0.3,0.1c0.1,0,0.2,0.1,0.2,0.2c0.1,0.1,0.1,0.2,0.1,0.3v0.1c0,0,0,0,0,0c0,0,0,0,0,0h-0.3c0,0,0,0,0,0c0,0,0,0,0,0v0
		c0-0.1,0-0.1-0.1-0.2c-0.1-0.1-0.1-0.1-0.2-0.1c-0.1,0-0.2,0-0.2,0.1c-0.1,0.1-0.1,0.1-0.1,0.2v0.3c0,0,0,0,0,0s0,0,0,0
		c0.1-0.1,0.2-0.1,0.4-0.1c0.1,0,0.2,0,0.3,0.1s0.2,0.1,0.2,0.2C37.5,1.7,37.5,1.8,37.5,2z M37.1,2c0-0.1,0-0.2-0.1-0.2
		C37,1.6,37,1.6,36.8,1.6c-0.1,0-0.2,0.1-0.3,0.2c0,0.1,0,0.1,0,0.2c0,0.1,0,0.2,0,0.2c0,0.1,0.1,0.2,0.3,0.2c0.1,0,0.2-0.1,0.3-0.2
		C37.1,2.1,37.1,2.1,37.1,2z"/>
	<path fill="#32FFB6" d="M40.2,0.5h0.3c0,0,0,0,0,0c0,0,0,0,0,0v2.1c0,0,0,0,0,0s0,0,0,0h-0.3c0,0,0,0,0,0c0,0,0,0,0,0V1.1
		c0,0,0,0,0,0c0,0,0,0,0,0l-0.4,0.6c0,0,0,0,0,0h-0.1c0,0,0,0,0,0l-0.4-0.6c0,0,0,0,0,0c0,0,0,0,0,0v1.5c0,0,0,0,0,0c0,0,0,0,0,0
		h-0.3c0,0,0,0,0,0s0,0,0,0V0.5c0,0,0,0,0,0c0,0,0,0,0,0h0.3c0,0,0,0,0,0l0.5,0.8c0,0,0,0,0,0c0,0,0,0,0,0L40.2,0.5
		C40.2,0.5,40.2,0.5,40.2,0.5z"/>
	<path fill="#32FFB6" d="M41.4,2.6c-0.1-0.1-0.2-0.2-0.3-0.3c-0.1-0.1-0.1-0.2-0.1-0.4V1.2c0-0.1,0-0.3,0.1-0.4s0.2-0.2,0.3-0.3
		c0.1-0.1,0.3-0.1,0.4-0.1c0.2,0,0.3,0,0.4,0.1c0.1,0.1,0.2,0.2,0.3,0.3s0.1,0.2,0.1,0.4v0.7c0,0.1,0,0.3-0.1,0.4s-0.2,0.2-0.3,0.3
		c-0.1,0.1-0.3,0.1-0.4,0.1C41.7,2.7,41.5,2.6,41.4,2.6z M42.1,2.3c0.1-0.1,0.1-0.2,0.1-0.3V1.2c0-0.1,0-0.2-0.1-0.3
		c-0.1-0.1-0.2-0.1-0.3-0.1c-0.1,0-0.2,0-0.3,0.1c-0.1,0.1-0.1,0.2-0.1,0.3v0.7c0,0.1,0,0.2,0.1,0.3c0.1,0.1,0.2,0.1,0.3,0.1
		C42,2.4,42.1,2.3,42.1,2.3z"/>
	<path fill="#32FFB6" d="M43.2,2.6C43.2,2.6,43.2,2.6,43.2,2.6l0-2.1c0,0,0,0,0,0c0,0,0,0,0,0h0.7c0.1,0,0.3,0,0.4,0.1
		c0.1,0.1,0.2,0.1,0.3,0.2c0.1,0.1,0.1,0.2,0.1,0.3V2c0,0.1,0,0.2-0.1,0.3c-0.1,0.1-0.1,0.2-0.3,0.2c-0.1,0.1-0.2,0.1-0.4,0.1
		L43.2,2.6C43.2,2.6,43.2,2.6,43.2,2.6z M43.5,2.3H44c0.1,0,0.2,0,0.3-0.1s0.1-0.2,0.1-0.3V1.2c0-0.1,0-0.2-0.1-0.3
		c-0.1-0.1-0.2-0.1-0.3-0.1h-0.4c0,0,0,0,0,0L43.5,2.3C43.5,2.3,43.5,2.3,43.5,2.3z"/>
	<path fill="#32FFB6" d="M46.6,0.8C46.6,0.8,46.6,0.8,46.6,0.8l-1.1,0c0,0,0,0,0,0v0.6c0,0,0,0,0,0h0.7c0,0,0,0,0,0c0,0,0,0,0,0v0.2
		c0,0,0,0,0,0c0,0,0,0,0,0h-0.7c0,0,0,0,0,0v0.6c0,0,0,0,0,0h1c0,0,0,0,0,0s0,0,0,0v0.2c0,0,0,0,0,0s0,0,0,0h-1.4c0,0,0,0,0,0
		s0,0,0,0V0.5c0,0,0,0,0,0c0,0,0,0,0,0h1.4c0,0,0,0,0,0c0,0,0,0,0,0L46.6,0.8C46.7,0.8,46.7,0.8,46.6,0.8z"/>
</g>
<circle id="opacity:35_00000060009459903210665050000004283749202931001534_" fill="#FFFFFF" cx="0.3" cy="3.1" r="0.3"/>
<circle id="opacity:70" fill="#FFFFFF" cx="0.3" cy="0.3" r="0.3"/>
<circle id="opacity:35_00000097460424886335677720000008412238233524181398_" fill="#8DCCFF" cx="124.9" cy="3.1" r="0.3"/>
<circle id="opacity:35" fill="#8DCCFF" cx="124.9" cy="0.3" r="0.3"/>
</svg>
