<?xml version="1.0" encoding="utf-8"?>
<!-- Generator: Adobe Illustrator 28.2.0, SVG Export Plug-In . SVG Version: 6.00 Build 0)  -->
<svg version="1.1" baseProfile="tiny" id="Layer_1" xmlns="http://www.w3.org/2000/svg" xmlns:xlink="http://www.w3.org/1999/xlink"
	 x="0px" y="0px" viewBox="0 0 448.7 112.6" overflow="visible" xml:space="preserve">
<path fill="#8DCCFF" d="M235,0H8.1C3.6,0,0,3.2,0,7.1v98.4c0,3.9,3.6,7.1,8.1,7.1h227.1c4.4,0,8.1-3.2,8.1-7.1V7.1
	C243.1,3.2,239.5,0,235,0z"/>
<path fill="#8DCCFF" d="M341.2,0.1h-84.3c-2.7,0-4.7,2-4.7,4.4v103.6c0,2.5,2.2,4.4,4.7,4.4h84.3c2.7,0,4.7-2,4.7-4.4V4.5
	C346,2.1,343.8,0.1,341.2,0.1z"/>
<path fill="#8DCCFF" d="M444,0.1h-84.3c-2.7,0-4.7,2-4.7,4.4v103.6c0,2.5,2.2,4.4,4.7,4.4H444c2.7,0,4.7-2,4.7-4.4V4.5
	C448.7,2.1,446.6,0.1,444,0.1z"/>
</svg>
