<?xml version="1.0" encoding="utf-8"?>
<!-- Generator: Adobe Illustrator 27.8.0, SVG Export Plug-In . SVG Version: 6.00 Build 0)  -->
<svg version="1.1" baseProfile="tiny" id="animated_00000038375236988738278820000014707993275092421541_"
	 xmlns="http://www.w3.org/2000/svg" xmlns:xlink="http://www.w3.org/1999/xlink" x="0px" y="0px" viewBox="0 0 248.8 283.4"
	 overflow="visible" xml:space="preserve">
<g id="_x36__00000030475005422572027330000013601530543555245239_">
	<path id="opacity:100_00000008122999543989915380000015967507286396951693_" fill="#32FFB6" d="M3.9,283.4c-0.5,0-0.9-0.1-1.4-0.3
		c-2-0.8-3-3-2.2-5c16.9-43.4,25.4-89.3,25.4-136.4S17.1,48.8,0.3,5.3c-0.8-2,0.2-4.2,2.2-5s4.2,0.2,5,2.2
		c17.2,44.3,26,91.1,26,139.2c0,48-8.7,94.8-26,139.2C6.9,282.5,5.5,283.4,3.9,283.4z"/>
	<path id="opacity:65_00000146457603467237226630000000899144514884080543_" fill="#32FFB6" d="M28.5,283.4c-0.4,0-0.9-0.1-1.3-0.2
		c-2-0.7-3-2.9-2.3-4.9c15.8-43.7,23.7-89.6,23.7-136.5S40.6,49,24.9,5.3c-0.7-2,0.3-4.2,2.3-4.9s4.2,0.3,4.9,2.3
		c16,44.5,24.2,91.3,24.2,139.1s-8.1,94.6-24.2,139.1C31.5,282.5,30,283.4,28.5,283.4z"/>
	<path id="opacity:45_00000066511561799333002560000008263736970685438350_" fill="#32FFB6" d="M61.1,283.4c-0.4,0-0.8-0.1-1.2-0.2
		c-2-0.7-3.1-2.8-2.4-4.9c14.6-43.9,22-89.9,22-136.6s-7.4-92.6-22-136.6c-0.7-2,0.4-4.2,2.4-4.9s4.2,0.4,4.9,2.4
		c14.8,44.9,22.3,91.7,22.3,139.2s-7.5,94.3-22.4,139C64.2,282.4,62.7,283.4,61.1,283.4z"/>
	<path id="opacity:20_00000021827334350294732290000009811362335570120853_" fill="#32FFB6" d="M101.9,283.4c-0.4,0-0.7-0.1-1.1-0.2
		c-2-0.6-3.2-2.8-2.6-4.8c13.3-44.1,20-90.1,20-136.7c0-46.5-6.7-92.5-20-136.7c-0.6-2,0.5-4.2,2.6-4.8c2-0.6,4.2,0.5,4.8,2.6
		c13.5,44.9,20.3,91.6,20.3,138.9s-6.8,94-20.3,138.9C105.1,282.4,103.6,283.4,101.9,283.4z"/>
	<path id="opacity:9_00000029746835214364225110000008875053992471340730_" fill="#32FFB6" d="M158,283.4c-0.3,0-0.7,0-1-0.1
		c-2.1-0.5-3.3-2.7-2.7-4.7c11.8-44.4,17.7-90.4,17.7-136.8S166,49.4,154.3,5c-0.5-2.1,0.7-4.2,2.7-4.7s4.2,0.7,4.7,2.7
		c11.9,45,18,91.7,18,138.8c0,47-6.1,93.7-18,138.8C161.2,282.3,159.7,283.4,158,283.4z"/>
	<path id="opacity:5_00000007407033269295616080000006278478939002327735_" fill="#32FFB6" d="M229.3,283.4c-0.3,0-0.6,0-0.9-0.1
		c-2.1-0.5-3.4-2.5-2.9-4.6c10.3-44.6,15.6-90.7,15.6-136.9s-5.2-92.3-15.6-136.9c-0.5-2.1,0.8-4.1,2.9-4.6c2.1-0.5,4.1,0.8,4.6,2.9
		c10.5,45.2,15.8,91.8,15.8,138.6s-5.3,93.4-15.8,138.6C232.6,282.2,231.1,283.4,229.3,283.4z"/>
</g>
<g id="_x35_" display="none">
	<path id="opacity:100_00000178204968712224306920000002953773303225534365_" display="inline" fill="#32FFB6" d="M3.9,283.4
		c-0.5,0-0.9-0.1-1.4-0.3c-2-0.8-3-3-2.2-5c16.9-43.4,25.4-89.3,25.4-136.4S17.1,48.8,0.3,5.3c-0.8-2,0.2-4.2,2.2-5s4.2,0.2,5,2.2
		c17.2,44.3,26,91.1,26,139.2c0,48-8.7,94.8-26,139.2C6.9,282.5,5.5,283.4,3.9,283.4z"/>
	<path id="opacity:45_00000029007093434544686460000009801413341868363966_" display="inline" fill="#32FFB6" d="M61.1,283.4
		c-0.4,0-0.8-0.1-1.2-0.2c-2-0.7-3.1-2.8-2.4-4.9c14.6-43.9,22-89.9,22-136.6s-7.4-92.6-22-136.6c-0.7-2,0.4-4.2,2.4-4.9
		s4.2,0.4,4.9,2.4c14.8,44.9,22.3,91.7,22.3,139.2s-7.5,94.3-22.4,139C64.2,282.4,62.7,283.4,61.1,283.4z"/>
	<path id="opacity:65_00000047753131532330070650000014869289063271465358_" display="inline" fill="#32FFB6" d="M28.5,283.4
		c-0.4,0-0.9-0.1-1.3-0.2c-2-0.7-3-2.9-2.3-4.9c15.8-43.7,23.7-89.6,23.7-136.5S40.6,49,24.9,5.3c-0.7-2,0.3-4.2,2.3-4.9
		s4.2,0.3,4.9,2.3c16,44.5,24.2,91.3,24.2,139.1s-8.1,94.6-24.2,139.1C31.5,282.5,30,283.4,28.5,283.4z"/>
	<path id="opacity:20" display="inline" fill="#32FFB6" d="M101.9,283.4c-0.4,0-0.7-0.1-1.1-0.2c-2-0.6-3.2-2.8-2.6-4.8
		c13.3-44.1,20-90.1,20-136.7c0-46.5-6.7-92.5-20-136.7c-0.6-2,0.5-4.2,2.6-4.8c2-0.6,4.2,0.5,4.8,2.6
		c13.5,44.9,20.3,91.6,20.3,138.9s-6.8,94-20.3,138.9C105.1,282.4,103.6,283.4,101.9,283.4z"/>
	<path id="opacity:9_00000045595210213606786340000011457419306139728537_" display="inline" fill="#32FFB6" d="M158,283.4
		c-0.3,0-0.7,0-1-0.1c-2.1-0.5-3.3-2.7-2.7-4.7c11.8-44.4,17.7-90.4,17.7-136.8S166,49.4,154.3,5c-0.5-2.1,0.7-4.2,2.7-4.7
		s4.2,0.7,4.7,2.7c11.9,45,18,91.7,18,138.8c0,47-6.1,93.7-18,138.8C161.2,282.3,159.7,283.4,158,283.4z"/>
</g>
<g id="_x34_" display="none">
	<path id="opacity:100_00000100381050721624819790000014189370286003515034_" display="inline" fill="#32FFB6" d="M3.9,283.4
		c-0.5,0-0.9-0.1-1.4-0.3c-2-0.8-3-3-2.2-5c16.9-43.4,25.4-89.3,25.4-136.4S17.1,48.8,0.3,5.3c-0.8-2,0.2-4.2,2.2-5s4.2,0.2,5,2.2
		c17.2,44.3,26,91.1,26,139.2c0,48-8.7,94.8-26,139.2C6.9,282.5,5.5,283.4,3.9,283.4z"/>
	<path id="opacity:45" display="inline" fill="#32FFB6" d="M61.1,283.4c-0.4,0-0.8-0.1-1.2-0.2c-2-0.7-3.1-2.8-2.4-4.9
		c14.6-43.9,22-89.9,22-136.6s-7.4-92.6-22-136.6c-0.7-2,0.4-4.2,2.4-4.9s4.2,0.4,4.9,2.4c14.8,44.9,22.3,91.7,22.3,139.2
		s-7.5,94.3-22.4,139C64.2,282.4,62.7,283.4,61.1,283.4z"/>
	<path id="opacity:65_00000120558326746592631660000005124572090433026436_" display="inline" fill="#32FFB6" d="M28.5,283.4
		c-0.4,0-0.9-0.1-1.3-0.2c-2-0.7-3-2.9-2.3-4.9c15.8-43.7,23.7-89.6,23.7-136.5S40.6,49,24.9,5.3c-0.7-2,0.3-4.2,2.3-4.9
		s4.2,0.3,4.9,2.3c16,44.5,24.2,91.3,24.2,139.1s-8.1,94.6-24.2,139.1C31.5,282.5,30,283.4,28.5,283.4z"/>
	<path id="opacity:20_00000075866525252916781880000014982964289368392376_" display="inline" fill="#32FFB6" d="M101.9,283.4
		c-0.4,0-0.7-0.1-1.1-0.2c-2-0.6-3.2-2.8-2.6-4.8c13.3-44.1,20-90.1,20-136.7c0-46.5-6.7-92.5-20-136.7c-0.6-2,0.5-4.2,2.6-4.8
		c2-0.6,4.2,0.5,4.8,2.6c13.5,44.9,20.3,91.6,20.3,138.9s-6.8,94-20.3,138.9C105.1,282.4,103.6,283.4,101.9,283.4z"/>
</g>
<g id="_x33_" display="none">
	<path id="opacity:100_00000160886918855999121990000011263045511904486018_" display="inline" fill="#32FFB6" d="M3.9,283.4
		c-0.5,0-0.9-0.1-1.4-0.3c-2-0.8-3-3-2.2-5c16.9-43.4,25.4-89.3,25.4-136.4S17.1,48.8,0.3,5.3c-0.8-2,0.2-4.2,2.2-5s4.2,0.2,5,2.2
		c17.2,44.3,26,91.1,26,139.2c0,48-8.7,94.8-26,139.2C6.9,282.5,5.5,283.4,3.9,283.4z"/>
	<path id="opacity:45_00000018923729284439477660000003293032209817371310_" display="inline" fill="#32FFB6" d="M61.1,283.4
		c-0.4,0-0.8-0.1-1.2-0.2c-2-0.7-3.1-2.8-2.4-4.9c14.6-43.9,22-89.9,22-136.6s-7.4-92.6-22-136.6c-0.7-2,0.4-4.2,2.4-4.9
		s4.2,0.4,4.9,2.4c14.8,44.9,22.3,91.7,22.3,139.2s-7.5,94.3-22.4,139C64.2,282.4,62.7,283.4,61.1,283.4z"/>
	<path id="opacity:65" display="inline" fill="#32FFB6" d="M28.5,283.4c-0.4,0-0.9-0.1-1.3-0.2c-2-0.7-3-2.9-2.3-4.9
		c15.8-43.7,23.7-89.6,23.7-136.5S40.6,49,24.9,5.3c-0.7-2,0.3-4.2,2.3-4.9s4.2,0.3,4.9,2.3c16,44.5,24.2,91.3,24.2,139.1
		s-8.1,94.6-24.2,139.1C31.5,282.5,30,283.4,28.5,283.4z"/>
</g>
<g id="_x32_" display="none">
	<path id="opacity:100" display="inline" fill="#32FFB6" d="M3.9,283.4c-0.5,0-0.9-0.1-1.4-0.3c-2-0.8-3-3-2.2-5
		c16.9-43.4,25.4-89.3,25.4-136.4S17.1,48.8,0.3,5.3c-0.8-2,0.2-4.2,2.2-5s4.2,0.2,5,2.2c17.2,44.3,26,91.1,26,139.2
		c0,48-8.7,94.8-26,139.2C6.9,282.5,5.5,283.4,3.9,283.4z"/>
	<path id="opacity:65_00000119827028646694943530000010437463459711866791_" display="inline" fill="#32FFB6" d="M28.5,283.4
		c-0.4,0-0.9-0.1-1.3-0.2c-2-0.7-3-2.9-2.3-4.9c15.8-43.7,23.7-89.6,23.7-136.5S40.6,49,24.9,5.3c-0.7-2,0.3-4.2,2.3-4.9
		s4.2,0.3,4.9,2.3c16,44.5,24.2,91.3,24.2,139.1s-8.1,94.6-24.2,139.1C31.5,282.5,30,283.4,28.5,283.4z"/>
</g>
<g id="_x31_" display="none">
	<path id="opacity:100_00000093865694584620509120000018238486061258935697_" fill="#32FFB6" d="M3.9,283.4c-0.5,0-0.9-0.1-1.4-0.3
		c-2-0.8-3-3-2.2-5c16.9-43.4,25.4-89.3,25.4-136.4S17.1,48.8,0.3,5.3c-0.8-2,0.2-4.2,2.2-5s4.2,0.2,5,2.2
		c17.2,44.3,26,91.1,26,139.2c0,48-8.7,94.8-26,139.2C6.9,282.5,5.5,283.4,3.9,283.4z"/>
</g>
</svg>
