<?xml version="1.0" encoding="utf-8"?>
<!-- Generator: Adobe Illustrator 27.8.0, SVG Export Plug-In . SVG Version: 6.00 Build 0)  -->
<svg version="1.1" baseProfile="tiny" id="Layer_1" xmlns="http://www.w3.org/2000/svg" xmlns:xlink="http://www.w3.org/1999/xlink"
	 x="0px" y="0px" viewBox="0 0 181 37.6" overflow="visible" xml:space="preserve">
<path fill="#9AD5FF" d="M171.8,0H9.1C4.1,0,0,4.1,0,9.1v19.3c0,5,4.1,9.1,9.1,9.1h162.7c5,0,9.2-4.1,9.2-9.1V9.1
	C181,4.1,176.8,0,171.8,0z M180,28.5c0,4.5-3.6,8.1-8.1,8.1H9.1c-3.9,0-7.2-2.8-8-6.5c-0.1-0.6,0.1-1.3,0.6-1.7L3,27.2
	c0.2-0.2,0.4-0.5,0.4-0.9V11.8c0-0.3-0.1-0.6-0.4-0.9L1.6,9.6C1.2,9.2,1,8.6,1.1,8.1C1.6,4.1,5,1,9.1,1h162.7c4.5,0,8.2,3.6,8.2,8.1
	V28.5z"/>
</svg>
