<?xml version="1.0" encoding="utf-8"?>
<!-- Generator: Adobe Illustrator 27.8.0, SVG Export Plug-In . SVG Version: 6.00 Build 0)  -->
<svg version="1.1" baseProfile="tiny" id="Layer_1" xmlns="http://www.w3.org/2000/svg" xmlns:xlink="http://www.w3.org/1999/xlink"
	 x="0px" y="0px" viewBox="0 0 1161.5 4.3" overflow="visible" xml:space="preserve">
<path fill="#8DCCFF" d="M214.8,4.3H2.2C1,4.3,0,3.4,0,2.2S1,0,2.2,0h212.6c1.2,0,2.2,1,2.2,2.2S216,4.3,214.8,4.3z"/>
<path fill="#8DCCFF" d="M450.9,4.3H238.3c-1.2,0-2.2-1-2.2-2.2s1-2.2,2.2-2.2h212.6c1.2,0,2.2,1,2.2,2.2S452.1,4.3,450.9,4.3z"/>
<path fill="#8DCCFF" d="M687.1,4.3H474.5c-1.2,0-2.2-1-2.2-2.2s1-2.2,2.2-2.2h212.6c1.2,0,2.2,1,2.2,2.2S688.3,4.3,687.1,4.3z"/>
<path fill="#8DCCFF" d="M923.2,4.3H710.6c-1.2,0-2.2-1-2.2-2.2s1-2.2,2.2-2.2h212.6c1.2,0,2.2,1,2.2,2.2S924.4,4.3,923.2,4.3z"/>
<path fill="#8DCCFF" d="M1159.4,4.3H946.7c-1.2,0-2.2-1-2.2-2.2s1-2.2,2.2-2.2h212.6c1.2,0,2.2,1,2.2,2.2S1160.6,4.3,1159.4,4.3z"/>
</svg>
