<?xml version="1.0" encoding="utf-8"?>
<!-- Generator: Adobe Illustrator 27.8.0, SVG Export Plug-In . SVG Version: 6.00 Build 0)  -->
<svg version="1.1" baseProfile="tiny" id="animated"
	 xmlns="http://www.w3.org/2000/svg" xmlns:xlink="http://www.w3.org/1999/xlink" x="0px" y="0px" viewBox="0 0 36.5 82.8"
	 overflow="visible" xml:space="preserve">
<g id="_x31_0">
</g>
<g id="_x39_">
	<circle fill="#FFF2EB" cx="2.9" cy="79.9" r="2.9"/>
	<circle fill="#FFF2EB" cx="10.6" cy="79.9" r="2.9"/>
	<circle fill="#FFF2EB" cx="18.3" cy="79.9" r="2.9"/>
	<circle fill="#FFF2EB" cx="25.9" cy="79.9" r="2.9"/>
	<circle fill="#FFF2EB" cx="33.6" cy="79.9" r="2.9"/>
</g>
<g id="_x38_">
	<circle fill="#FFF2EB" cx="2.9" cy="79.9" r="2.9"/>
	<circle fill="#FFF2EB" cx="10.6" cy="79.9" r="2.9"/>
	<circle fill="#FFF2EB" cx="18.3" cy="79.9" r="2.9"/>
	<circle fill="#FFF2EB" cx="25.9" cy="79.9" r="2.9"/>
	<circle fill="#FFF2EB" cx="33.6" cy="79.9" r="2.9"/>
	<circle fill="#FFF2EB" cx="2.9" cy="71.4" r="2.9"/>
	<circle fill="#FFF2EB" cx="10.6" cy="71.4" r="2.9"/>
	<circle fill="#FFF2EB" cx="18.3" cy="71.4" r="2.9"/>
	<circle fill="#FFF2EB" cx="25.9" cy="71.4" r="2.9"/>
	<circle fill="#FFF2EB" cx="33.6" cy="71.4" r="2.9"/>
</g>
<g id="_x37_">
	<circle fill="#FFF2EB" cx="2.9" cy="79.9" r="2.9"/>
	<circle fill="#FFF2EB" cx="10.6" cy="79.9" r="2.9"/>
	<circle fill="#FFF2EB" cx="18.3" cy="79.9" r="2.9"/>
	<circle fill="#FFF2EB" cx="25.9" cy="79.9" r="2.9"/>
	<circle fill="#FFF2EB" cx="33.6" cy="79.9" r="2.9"/>
	<circle fill="#FFF2EB" cx="2.9" cy="71.4" r="2.9"/>
	<circle fill="#FFF2EB" cx="10.6" cy="71.4" r="2.9"/>
	<circle fill="#FFF2EB" cx="18.3" cy="71.4" r="2.9"/>
	<circle fill="#FFF2EB" cx="25.9" cy="71.4" r="2.9"/>
	<circle fill="#FFF2EB" cx="33.6" cy="71.4" r="2.9"/>
	<circle fill="#FFF2EB" cx="2.9" cy="62.8" r="2.9"/>
	<circle fill="#FFF2EB" cx="10.6" cy="62.8" r="2.9"/>
	<circle fill="#FFF2EB" cx="18.3" cy="62.8" r="2.9"/>
	<circle fill="#FFF2EB" cx="25.9" cy="62.8" r="2.9"/>
	<circle fill="#FFF2EB" cx="33.6" cy="62.8" r="2.9"/>
</g>
<g id="_x36_">
	<circle fill="#FFF2EB" cx="2.9" cy="79.9" r="2.9"/>
	<circle fill="#FFF2EB" cx="10.6" cy="79.9" r="2.9"/>
	<circle fill="#FFF2EB" cx="18.3" cy="79.9" r="2.9"/>
	<circle fill="#FFF2EB" cx="25.9" cy="79.9" r="2.9"/>
	<circle fill="#FFF2EB" cx="33.6" cy="79.9" r="2.9"/>
	<circle fill="#FFF2EB" cx="2.9" cy="71.4" r="2.9"/>
	<circle fill="#FFF2EB" cx="10.6" cy="71.4" r="2.9"/>
	<circle fill="#FFF2EB" cx="18.3" cy="71.4" r="2.9"/>
	<circle fill="#FFF2EB" cx="25.9" cy="71.4" r="2.9"/>
	<circle fill="#FFF2EB" cx="33.6" cy="71.4" r="2.9"/>
	<circle fill="#FFF2EB" cx="2.9" cy="62.8" r="2.9"/>
	<circle fill="#FFF2EB" cx="10.6" cy="62.8" r="2.9"/>
	<circle fill="#FFF2EB" cx="18.3" cy="62.8" r="2.9"/>
	<circle fill="#FFF2EB" cx="25.9" cy="62.8" r="2.9"/>
	<circle fill="#FFF2EB" cx="33.6" cy="62.8" r="2.9"/>
	<circle fill="#FFF2EB" cx="2.9" cy="54.2" r="2.9"/>
	<circle fill="#FFF2EB" cx="10.6" cy="54.2" r="2.9"/>
	<circle fill="#FFF2EB" cx="18.3" cy="54.2" r="2.9"/>
	<circle fill="#FFF2EB" cx="25.9" cy="54.2" r="2.9"/>
	<circle fill="#FFF2EB" cx="33.6" cy="54.2" r="2.9"/>
</g>
<g id="_x35_">
	<circle fill="#FFF2EB" cx="2.9" cy="79.9" r="2.9"/>
	<circle fill="#FFF2EB" cx="10.6" cy="79.9" r="2.9"/>
	<circle fill="#FFF2EB" cx="18.3" cy="79.9" r="2.9"/>
	<circle fill="#FFF2EB" cx="25.9" cy="79.9" r="2.9"/>
	<circle fill="#FFF2EB" cx="33.6" cy="79.9" r="2.9"/>
	<circle fill="#FFF2EB" cx="2.9" cy="71.4" r="2.9"/>
	<circle fill="#FFF2EB" cx="10.6" cy="71.4" r="2.9"/>
	<circle fill="#FFF2EB" cx="18.3" cy="71.4" r="2.9"/>
	<circle fill="#FFF2EB" cx="25.9" cy="71.4" r="2.9"/>
	<circle fill="#FFF2EB" cx="33.6" cy="71.4" r="2.9"/>
	<circle fill="#FFF2EB" cx="2.9" cy="62.8" r="2.9"/>
	<circle fill="#FFF2EB" cx="10.6" cy="62.8" r="2.9"/>
	<circle fill="#FFF2EB" cx="18.3" cy="62.8" r="2.9"/>
	<circle fill="#FFF2EB" cx="25.9" cy="62.8" r="2.9"/>
	<circle fill="#FFF2EB" cx="33.6" cy="62.8" r="2.9"/>
	<circle fill="#FFF2EB" cx="2.9" cy="54.2" r="2.9"/>
	<circle fill="#FFF2EB" cx="10.6" cy="54.2" r="2.9"/>
	<circle fill="#FFF2EB" cx="18.3" cy="54.2" r="2.9"/>
	<circle fill="#FFF2EB" cx="25.9" cy="54.2" r="2.9"/>
	<circle fill="#FFF2EB" cx="33.6" cy="54.2" r="2.9"/>
	<circle fill="#FFF2EB" cx="2.9" cy="45.7" r="2.9"/>
	<circle fill="#FFF2EB" cx="10.6" cy="45.7" r="2.9"/>
	<circle fill="#FFF2EB" cx="18.3" cy="45.7" r="2.9"/>
	<circle fill="#FFF2EB" cx="25.9" cy="45.7" r="2.9"/>
	<circle fill="#FFF2EB" cx="33.6" cy="45.7" r="2.9"/>
</g>
<g id="_x34_">
	<circle fill="#FFF2EB" cx="2.9" cy="79.9" r="2.9"/>
	<circle fill="#FFF2EB" cx="10.6" cy="79.9" r="2.9"/>
	<circle fill="#FFF2EB" cx="18.3" cy="79.9" r="2.9"/>
	<circle fill="#FFF2EB" cx="25.9" cy="79.9" r="2.9"/>
	<circle fill="#FFF2EB" cx="33.6" cy="79.9" r="2.9"/>
	<circle fill="#FFF2EB" cx="2.9" cy="71.4" r="2.9"/>
	<circle fill="#FFF2EB" cx="10.6" cy="71.4" r="2.9"/>
	<circle fill="#FFF2EB" cx="18.3" cy="71.4" r="2.9"/>
	<circle fill="#FFF2EB" cx="25.9" cy="71.4" r="2.9"/>
	<circle fill="#FFF2EB" cx="33.6" cy="71.4" r="2.9"/>
	<circle fill="#FFF2EB" cx="2.9" cy="62.8" r="2.9"/>
	<circle fill="#FFF2EB" cx="10.6" cy="62.8" r="2.9"/>
	<circle fill="#FFF2EB" cx="18.3" cy="62.8" r="2.9"/>
	<circle fill="#FFF2EB" cx="25.9" cy="62.8" r="2.9"/>
	<circle fill="#FFF2EB" cx="33.6" cy="62.8" r="2.9"/>
	<circle fill="#FFF2EB" cx="2.9" cy="54.2" r="2.9"/>
	<circle fill="#FFF2EB" cx="10.6" cy="54.2" r="2.9"/>
	<circle fill="#FFF2EB" cx="18.3" cy="54.2" r="2.9"/>
	<circle fill="#FFF2EB" cx="25.9" cy="54.2" r="2.9"/>
	<circle fill="#FFF2EB" cx="33.6" cy="54.2" r="2.9"/>
	<circle fill="#FFF2EB" cx="2.9" cy="45.7" r="2.9"/>
	<circle fill="#FFF2EB" cx="10.6" cy="45.7" r="2.9"/>
	<circle fill="#FFF2EB" cx="18.3" cy="45.7" r="2.9"/>
	<circle fill="#FFF2EB" cx="25.9" cy="45.7" r="2.9"/>
	<circle fill="#FFF2EB" cx="33.6" cy="45.7" r="2.9"/>
	<circle fill="#FFF2EB" cx="2.9" cy="37.1" r="2.9"/>
	<circle fill="#FFF2EB" cx="10.6" cy="37.1" r="2.9"/>
	<circle fill="#FFF2EB" cx="18.3" cy="37.1" r="2.9"/>
	<circle fill="#FFF2EB" cx="25.9" cy="37.1" r="2.9"/>
	<circle fill="#FFF2EB" cx="33.6" cy="37.1" r="2.9"/>
</g>
<g id="_x33_">
	<circle fill="#FFF2EB" cx="2.9" cy="79.9" r="2.9"/>
	<circle fill="#FFF2EB" cx="10.6" cy="79.9" r="2.9"/>
	<circle fill="#FFF2EB" cx="18.3" cy="79.9" r="2.9"/>
	<circle fill="#FFF2EB" cx="25.9" cy="79.9" r="2.9"/>
	<circle fill="#FFF2EB" cx="33.6" cy="79.9" r="2.9"/>
	<circle fill="#FFF2EB" cx="2.9" cy="71.4" r="2.9"/>
	<circle fill="#FFF2EB" cx="10.6" cy="71.4" r="2.9"/>
	<circle fill="#FFF2EB" cx="18.3" cy="71.4" r="2.9"/>
	<circle fill="#FFF2EB" cx="25.9" cy="71.4" r="2.9"/>
	<circle fill="#FFF2EB" cx="33.6" cy="71.4" r="2.9"/>
	<circle fill="#FFF2EB" cx="2.9" cy="62.8" r="2.9"/>
	<circle fill="#FFF2EB" cx="10.6" cy="62.8" r="2.9"/>
	<circle fill="#FFF2EB" cx="18.3" cy="62.8" r="2.9"/>
	<circle fill="#FFF2EB" cx="25.9" cy="62.8" r="2.9"/>
	<circle fill="#FFF2EB" cx="33.6" cy="62.8" r="2.9"/>
	<circle fill="#FFF2EB" cx="2.9" cy="54.2" r="2.9"/>
	<circle fill="#FFF2EB" cx="10.6" cy="54.2" r="2.9"/>
	<circle fill="#FFF2EB" cx="18.3" cy="54.2" r="2.9"/>
	<circle fill="#FFF2EB" cx="25.9" cy="54.2" r="2.9"/>
	<circle fill="#FFF2EB" cx="33.6" cy="54.2" r="2.9"/>
	<circle fill="#FFF2EB" cx="2.9" cy="45.7" r="2.9"/>
	<circle fill="#FFF2EB" cx="10.6" cy="45.7" r="2.9"/>
	<circle fill="#FFF2EB" cx="18.3" cy="45.7" r="2.9"/>
	<circle fill="#FFF2EB" cx="25.9" cy="45.7" r="2.9"/>
	<circle fill="#FFF2EB" cx="33.6" cy="45.7" r="2.9"/>
	<circle fill="#FFF2EB" cx="2.9" cy="37.1" r="2.9"/>
	<circle fill="#FFF2EB" cx="10.6" cy="37.1" r="2.9"/>
	<circle fill="#FFF2EB" cx="18.3" cy="37.1" r="2.9"/>
	<circle fill="#FFF2EB" cx="25.9" cy="37.1" r="2.9"/>
	<circle fill="#FFF2EB" cx="33.6" cy="37.1" r="2.9"/>
	<circle fill="#FFF2EB" cx="2.9" cy="28.6" r="2.9"/>
	<circle fill="#FFF2EB" cx="10.6" cy="28.6" r="2.9"/>
	<circle fill="#FFF2EB" cx="18.3" cy="28.6" r="2.9"/>
	<circle fill="#FFF2EB" cx="25.9" cy="28.6" r="2.9"/>
	<circle fill="#FFF2EB" cx="33.6" cy="28.6" r="2.9"/>
</g>
<g id="_x32_">
	<circle fill="#FFF2EB" cx="2.9" cy="79.9" r="2.9"/>
	<circle fill="#FFF2EB" cx="10.6" cy="79.9" r="2.9"/>
	<circle fill="#FFF2EB" cx="18.3" cy="79.9" r="2.9"/>
	<circle fill="#FFF2EB" cx="25.9" cy="79.9" r="2.9"/>
	<circle fill="#FFF2EB" cx="33.6" cy="79.9" r="2.9"/>
	<circle fill="#FFF2EB" cx="2.9" cy="71.4" r="2.9"/>
	<circle fill="#FFF2EB" cx="10.6" cy="71.4" r="2.9"/>
	<circle fill="#FFF2EB" cx="18.3" cy="71.4" r="2.9"/>
	<circle fill="#FFF2EB" cx="25.9" cy="71.4" r="2.9"/>
	<circle fill="#FFF2EB" cx="33.6" cy="71.4" r="2.9"/>
	<circle fill="#FFF2EB" cx="2.9" cy="62.8" r="2.9"/>
	<circle fill="#FFF2EB" cx="10.6" cy="62.8" r="2.9"/>
	<circle fill="#FFF2EB" cx="18.3" cy="62.8" r="2.9"/>
	<circle fill="#FFF2EB" cx="25.9" cy="62.8" r="2.9"/>
	<circle fill="#FFF2EB" cx="33.6" cy="62.8" r="2.9"/>
	<circle fill="#FFF2EB" cx="2.9" cy="54.2" r="2.9"/>
	<circle fill="#FFF2EB" cx="10.6" cy="54.2" r="2.9"/>
	<circle fill="#FFF2EB" cx="18.3" cy="54.2" r="2.9"/>
	<circle fill="#FFF2EB" cx="25.9" cy="54.2" r="2.9"/>
	<circle fill="#FFF2EB" cx="33.6" cy="54.2" r="2.9"/>
	<circle fill="#FFF2EB" cx="2.9" cy="45.7" r="2.9"/>
	<circle fill="#FFF2EB" cx="10.6" cy="45.7" r="2.9"/>
	<circle fill="#FFF2EB" cx="18.3" cy="45.7" r="2.9"/>
	<circle fill="#FFF2EB" cx="25.9" cy="45.7" r="2.9"/>
	<circle fill="#FFF2EB" cx="33.6" cy="45.7" r="2.9"/>
	<circle fill="#FFF2EB" cx="2.9" cy="37.1" r="2.9"/>
	<circle fill="#FFF2EB" cx="10.6" cy="37.1" r="2.9"/>
	<circle fill="#FFF2EB" cx="18.3" cy="37.1" r="2.9"/>
	<circle fill="#FFF2EB" cx="25.9" cy="37.1" r="2.9"/>
	<circle fill="#FFF2EB" cx="33.6" cy="37.1" r="2.9"/>
	<circle fill="#FFF2EB" cx="2.9" cy="28.6" r="2.9"/>
	<circle fill="#FFF2EB" cx="10.6" cy="28.6" r="2.9"/>
	<circle fill="#FFF2EB" cx="18.3" cy="28.6" r="2.9"/>
	<circle fill="#FFF2EB" cx="25.9" cy="28.6" r="2.9"/>
	<circle fill="#FFF2EB" cx="33.6" cy="28.6" r="2.9"/>
	<circle fill="#FFF2EB" cx="2.9" cy="20" r="2.9"/>
	<circle fill="#FFF2EB" cx="10.6" cy="20" r="2.9"/>
	<circle fill="#FFF2EB" cx="18.3" cy="20" r="2.9"/>
	<circle fill="#FFF2EB" cx="25.9" cy="20" r="2.9"/>
	<circle fill="#FFF2EB" cx="33.6" cy="20" r="2.9"/>
</g>
<g id="_x31_">
	<circle fill="#FFF2EB" cx="2.9" cy="79.9" r="2.9"/>
	<circle fill="#FFF2EB" cx="10.6" cy="79.9" r="2.9"/>
	<circle fill="#FFF2EB" cx="18.3" cy="79.9" r="2.9"/>
	<circle fill="#FFF2EB" cx="25.9" cy="79.9" r="2.9"/>
	<circle fill="#FFF2EB" cx="33.6" cy="79.9" r="2.9"/>
	<circle fill="#FFF2EB" cx="2.9" cy="71.4" r="2.9"/>
	<circle fill="#FFF2EB" cx="10.6" cy="71.4" r="2.9"/>
	<circle fill="#FFF2EB" cx="18.3" cy="71.4" r="2.9"/>
	<circle fill="#FFF2EB" cx="25.9" cy="71.4" r="2.9"/>
	<circle fill="#FFF2EB" cx="33.6" cy="71.4" r="2.9"/>
	<circle fill="#FFF2EB" cx="2.9" cy="62.8" r="2.9"/>
	<circle fill="#FFF2EB" cx="10.6" cy="62.8" r="2.9"/>
	<circle fill="#FFF2EB" cx="18.3" cy="62.8" r="2.9"/>
	<circle fill="#FFF2EB" cx="25.9" cy="62.8" r="2.9"/>
	<circle fill="#FFF2EB" cx="33.6" cy="62.8" r="2.9"/>
	<circle fill="#FFF2EB" cx="2.9" cy="54.2" r="2.9"/>
	<circle fill="#FFF2EB" cx="10.6" cy="54.2" r="2.9"/>
	<circle fill="#FFF2EB" cx="18.3" cy="54.2" r="2.9"/>
	<circle fill="#FFF2EB" cx="25.9" cy="54.2" r="2.9"/>
	<circle fill="#FFF2EB" cx="33.6" cy="54.2" r="2.9"/>
	<circle fill="#FFF2EB" cx="2.9" cy="45.7" r="2.9"/>
	<circle fill="#FFF2EB" cx="10.6" cy="45.7" r="2.9"/>
	<circle fill="#FFF2EB" cx="18.3" cy="45.7" r="2.9"/>
	<circle fill="#FFF2EB" cx="25.9" cy="45.7" r="2.9"/>
	<circle fill="#FFF2EB" cx="33.6" cy="45.7" r="2.9"/>
	<circle fill="#FFF2EB" cx="2.9" cy="37.1" r="2.9"/>
	<circle fill="#FFF2EB" cx="10.6" cy="37.1" r="2.9"/>
	<circle fill="#FFF2EB" cx="18.3" cy="37.1" r="2.9"/>
	<circle fill="#FFF2EB" cx="25.9" cy="37.1" r="2.9"/>
	<circle fill="#FFF2EB" cx="33.6" cy="37.1" r="2.9"/>
	<circle fill="#FFF2EB" cx="2.9" cy="28.6" r="2.9"/>
	<circle fill="#FFF2EB" cx="10.6" cy="28.6" r="2.9"/>
	<circle fill="#FFF2EB" cx="18.3" cy="28.6" r="2.9"/>
	<circle fill="#FFF2EB" cx="25.9" cy="28.6" r="2.9"/>
	<circle fill="#FFF2EB" cx="33.6" cy="28.6" r="2.9"/>
	<circle fill="#FFF2EB" cx="2.9" cy="20" r="2.9"/>
	<circle fill="#FFF2EB" cx="10.6" cy="20" r="2.9"/>
	<circle fill="#FFF2EB" cx="18.3" cy="20" r="2.9"/>
	<circle fill="#FFF2EB" cx="25.9" cy="20" r="2.9"/>
	<circle fill="#FFF2EB" cx="33.6" cy="20" r="2.9"/>
	<circle fill="#FFF2EB" cx="2.9" cy="11.5" r="2.9"/>
	<circle fill="#FFF2EB" cx="10.6" cy="11.5" r="2.9"/>
	<circle fill="#FFF2EB" cx="18.3" cy="11.5" r="2.9"/>
	<circle fill="#FFF2EB" cx="25.9" cy="11.5" r="2.9"/>
	<circle fill="#FFF2EB" cx="33.6" cy="11.5" r="2.9"/>
</g>
<g id="_x30__00000147904067785520084630000018420951612745922715_">
	<circle fill="#FFF2EB" cx="2.9" cy="79.9" r="2.9"/>
	<circle fill="#FFF2EB" cx="10.6" cy="79.9" r="2.9"/>
	<circle fill="#FFF2EB" cx="18.3" cy="79.9" r="2.9"/>
	<circle fill="#FFF2EB" cx="25.9" cy="79.9" r="2.9"/>
	<circle fill="#FFF2EB" cx="33.6" cy="79.9" r="2.9"/>
	<circle fill="#FFF2EB" cx="2.9" cy="71.4" r="2.9"/>
	<circle fill="#FFF2EB" cx="10.6" cy="71.4" r="2.9"/>
	<circle fill="#FFF2EB" cx="18.3" cy="71.4" r="2.9"/>
	<circle fill="#FFF2EB" cx="25.9" cy="71.4" r="2.9"/>
	<circle fill="#FFF2EB" cx="33.6" cy="71.4" r="2.9"/>
	<circle fill="#FFF2EB" cx="2.9" cy="62.8" r="2.9"/>
	<circle fill="#FFF2EB" cx="10.6" cy="62.8" r="2.9"/>
	<circle fill="#FFF2EB" cx="18.3" cy="62.8" r="2.9"/>
	<circle fill="#FFF2EB" cx="25.9" cy="62.8" r="2.9"/>
	<circle fill="#FFF2EB" cx="33.6" cy="62.8" r="2.9"/>
	<circle fill="#FFF2EB" cx="2.9" cy="54.2" r="2.9"/>
	<circle fill="#FFF2EB" cx="10.6" cy="54.2" r="2.9"/>
	<circle fill="#FFF2EB" cx="18.3" cy="54.2" r="2.9"/>
	<circle fill="#FFF2EB" cx="25.9" cy="54.2" r="2.9"/>
	<circle fill="#FFF2EB" cx="33.6" cy="54.2" r="2.9"/>
	<circle fill="#FFF2EB" cx="2.9" cy="45.7" r="2.9"/>
	<circle fill="#FFF2EB" cx="10.6" cy="45.7" r="2.9"/>
	<circle fill="#FFF2EB" cx="18.3" cy="45.7" r="2.9"/>
	<circle fill="#FFF2EB" cx="25.9" cy="45.7" r="2.9"/>
	<circle fill="#FFF2EB" cx="33.6" cy="45.7" r="2.9"/>
	<circle fill="#FFF2EB" cx="2.9" cy="37.1" r="2.9"/>
	<circle fill="#FFF2EB" cx="10.6" cy="37.1" r="2.9"/>
	<circle fill="#FFF2EB" cx="18.3" cy="37.1" r="2.9"/>
	<circle fill="#FFF2EB" cx="25.9" cy="37.1" r="2.9"/>
	<circle fill="#FFF2EB" cx="33.6" cy="37.1" r="2.9"/>
	<circle fill="#FFF2EB" cx="2.9" cy="28.6" r="2.9"/>
	<circle fill="#FFF2EB" cx="10.6" cy="28.6" r="2.9"/>
	<circle fill="#FFF2EB" cx="18.3" cy="28.6" r="2.9"/>
	<circle fill="#FFF2EB" cx="25.9" cy="28.6" r="2.9"/>
	<circle fill="#FFF2EB" cx="33.6" cy="28.6" r="2.9"/>
	<circle fill="#FFF2EB" cx="2.9" cy="20" r="2.9"/>
	<circle fill="#FFF2EB" cx="10.6" cy="20" r="2.9"/>
	<circle fill="#FFF2EB" cx="18.3" cy="20" r="2.9"/>
	<circle fill="#FFF2EB" cx="25.9" cy="20" r="2.9"/>
	<circle fill="#FFF2EB" cx="33.6" cy="20" r="2.9"/>
	<circle fill="#FFF2EB" cx="2.9" cy="11.5" r="2.9"/>
	<circle fill="#FFF2EB" cx="10.6" cy="11.5" r="2.9"/>
	<circle fill="#FFF2EB" cx="18.3" cy="11.5" r="2.9"/>
	<circle fill="#FFF2EB" cx="25.9" cy="11.5" r="2.9"/>
	<circle fill="#FFF2EB" cx="33.6" cy="11.5" r="2.9"/>
	<circle fill="#FFF2EB" cx="2.9" cy="2.9" r="2.9"/>
	<circle fill="#FFF2EB" cx="10.6" cy="2.9" r="2.9"/>
	<circle fill="#FFF2EB" cx="18.3" cy="2.9" r="2.9"/>
	<circle fill="#FFF2EB" cx="25.9" cy="2.9" r="2.9"/>
	<circle fill="#FFF2EB" cx="33.6" cy="2.9" r="2.9"/>
</g>
</svg>
