<?xml version="1.0" encoding="utf-8"?>
<!-- Generator: Adobe Illustrator 27.8.0, SVG Export Plug-In . SVG Version: 6.00 Build 0)  -->
<svg version="1.1" baseProfile="tiny" id="Layer_1" xmlns="http://www.w3.org/2000/svg" xmlns:xlink="http://www.w3.org/1999/xlink"
	 x="0px" y="0px" viewBox="0 0 64 64" overflow="visible" xml:space="preserve">
<path fill="#E95813" d="M32,64.1c-1.8,0-3.6-0.7-4.9-2l0,0c0,0,0,0,0,0L2,37c-1.3-1.3-2-3-2-4.9c0-1.8,0.7-3.6,2-4.9L27.1,2.1
	c1.3-1.3,3-2,4.9-2s3.6,0.7,4.9,2L62,27.2c2.7,2.7,2.7,7,0,9.7L36.9,62.1C35.6,63.3,33.8,64.1,32,64.1z M32,4.5
	c-0.7,0-1.3,0.3-1.8,0.7L5.1,30.3c-0.5,0.5-0.7,1.1-0.7,1.8c0,0.7,0.3,1.3,0.7,1.8L30.2,59c1,1,2.6,1,3.6,0l25.1-25.1
	c1-1,1-2.6,0-3.6L33.8,5.2C33.3,4.7,32.7,4.5,32,4.5z"/>
<circle fill="#D6E9E7" cx="32" cy="32.1" r="8.1"/>
</svg>
