<?xml version="1.0" encoding="utf-8"?>
<!-- Generator: Adobe Illustrator 24.1.1, SVG Export Plug-In . SVG Version: 6.00 Build 0)  -->
<svg version="1.1" baseProfile="tiny" xmlns="http://www.w3.org/2000/svg" xmlns:xlink="http://www.w3.org/1999/xlink" x="0px"
	 y="0px" viewBox="0 0 252 200" xml:space="preserve">
<g id="BG">
</g>
<g id="REF">
</g>
<g id="DESIGN">
	<g>
		<path fill="#FFFFFF" d="M0,174.53v17.4c0,4.46,3.61,8.07,8.07,8.07h235.86c4.46,0,8.07-3.61,8.07-8.07v-17.4
			c-39.75,5.85-82.12,8.82-126,8.82C82.12,183.36,39.75,180.38,0,174.53z"/>
		<path fill="#FFFFFF" d="M0,25.47V8.07C0,3.61,3.61,0,8.07,0h235.86c4.46,0,8.07,3.61,8.07,8.07v17.4
			c-39.75-5.85-82.12-8.82-126-8.82C82.12,16.64,39.75,19.62,0,25.47z"/>
	</g>
</g>
<g id="Layer_2">
</g>
<g id="Layer_3">
</g>
</svg>
