<?xml version="1.0" encoding="utf-8"?>
<!-- Generator: Adobe Illustrator 25.4.1, SVG Export Plug-In . SVG Version: 6.00 Build 0)  -->
<svg version="1.1" id="GREEBLKES" xmlns="http://www.w3.org/2000/svg" xmlns:xlink="http://www.w3.org/1999/xlink" x="0px" y="0px"
	 viewBox="0 0 1920 1080" style="enable-background:new 0 0 1920 1080;" xml:space="preserve">
<style type="text/css">
	.st0{fill:#7F7F7F;}
</style>
<g>
	<g>
		<path class="st0" d="M1207.9,45l8.1,8.1c1.2,1.2,2.8,1.9,4.5,1.9H1854c6.1,0,11,4.9,11,11v864v24c0,6.1-4.9,11-11,11H960H66
			c-6.1,0-11-4.9-11-11V66c0-6.1,4.9-11,11-11h633.4c1.7,0,3.3-0.7,4.5-1.9L712,45h248H1207.9 M1209.4,40H960H710.6
			c-0.4,0-0.7,0.1-1,0.4l-9.2,9.2c-0.3,0.3-0.6,0.4-1,0.4H66c-8.8,0-16,7.2-16,16v888c0,8.8,7.2,16,16,16h894h894
			c8.8,0,16-7.2,16-16v-24V66c0-8.8-7.2-16-16-16h-633.4c-0.4,0-0.7-0.1-1-0.4l-9.2-9.2C1210.1,40.1,1209.8,40,1209.4,40L1209.4,40z
			"/>
	</g>
</g>
</svg>
