<?xml version="1.0" encoding="utf-8"?>
<!-- Generator: Adobe Illustrator 26.0.1, SVG Export Plug-In . SVG Version: 6.00 Build 0)  -->
<svg version="1.1" baseProfile="tiny" id="Layer_1" xmlns="http://www.w3.org/2000/svg" xmlns:xlink="http://www.w3.org/1999/xlink"
	 x="0px" y="0px" viewBox="0 0 1920 1080" overflow="visible" xml:space="preserve">
<g>
	<g>
		<g>
			<path fill="none" stroke="#C1B03D" stroke-width="2" stroke-linejoin="round" stroke-miterlimit="10" d="M483.8,364.5v47.6h881.8
				l8.8-23.8l-4.1-3.9v-7.8l-4.5-6.3c0,0,8.7-10.3,9.5-25.6l7.4-12.6"/>
			<path fill="none" stroke="#C1B03D" stroke-width="2" stroke-linejoin="round" stroke-miterlimit="10" d="M1362.2,412.1l3.3,41.5
				c0.2,19-15,20.1-15,20.1h-12.8l-8.4,8.2h-6l-6,6.6h-205.8l-40.8,12.8l-79.6,87.4H872.5c-38.6-29.2-76.3-1.4-76.3-1.4l-7.1,15.2
				c-17.6,36.6-11.2,64.3-11.2,64.3s12,12.4-7.3,20.7c-19.3,8.4-23.3,30.5-23.3,30.5s-15.3,50.9-25,87.1
				c-9.7,36.2,3.1,45.3,3.1,45.3l-9.6,40c-1.2,37-49.5,38.1-49.5,38.1s-114.2,1.2-140.2,0c-26-1.2-26.4-6.5-26.4-6.5l5.4-16.4
				c-8.3-4.7-6.1-14.4-6.1-14.4c-30.9-13.7-17.2-67.1-17.2-67.1c28.6-142.7,55.6-163.2,90.9-226.3c35.3-63.1,13.9-108.5,13.9-108.5
				l-89.3-41.7V427l-13.5-14.9l-22.9-16.4"/>
			<path fill="none" stroke="#C1B03D" stroke-width="2" stroke-linejoin="round" stroke-miterlimit="10" d="M888.4,303.3
				c18.3,22.3,39.7,21,39.7,21s88.7,0,102.1,0s14.3-11,14.3-11l-3.3-18.7h212.3l0,0c0,3.8,3.1,6.9,6.9,6.9h45.9
				c3.8,0,6.9-3.1,6.9-6.9l0,0h39l30.2,20.6v17.1h-38.2l-40,46.5h-211.2l-30.6-14.1H483.8l13.4-27.3c2.8-5.6,7.1-10.3,12.5-13.5
				l50-29.3h318.2L888.4,303.3h154.5l-22.8-16.5"/>
			<polyline fill="none" stroke="#C1B03D" stroke-width="2" stroke-linejoin="round" stroke-miterlimit="10" points="497.3,428.1 
				516.9,423.5 676,423.5 713.5,454.1 783.6,454.1 805.2,472.9 817.4,449.3 810.1,442.7 724.5,442.7 688.5,412.1 			"/>
			<path fill="none" stroke="#C1B03D" stroke-width="2" stroke-linejoin="round" stroke-miterlimit="10" d="M702.3,412.1
				c-7.1,0-12.9-5.8-12.9-12.9v0c0-7.1,5.8-12.9,12.9-12.9h98.5c7.1,0,12.9,5.8,12.9,12.9v0c0,7.1-5.8,12.9-12.9,12.9"/>
			<path fill="none" stroke="#C1B03D" stroke-width="2" stroke-linejoin="round" stroke-miterlimit="10" d="M702.2,412.1
				c-7.1,0-12.9-5.8-12.9-12.9v0c0-7.1,5.8-12.9,12.9-12.9h64.4c7.1,0,12.9,5.8,12.9,12.9v0c0,7.1-5.8,12.9-12.9,12.9"/>
			<g>
				
					<line fill="none" stroke="#C1B03D" stroke-width="2" stroke-linejoin="round" stroke-miterlimit="10" x1="717.3" y1="391.9" x2="717.3" y2="407.3"/>
				
					<line fill="none" stroke="#C1B03D" stroke-width="2" stroke-linejoin="round" stroke-miterlimit="10" x1="728.7" y1="391.9" x2="728.7" y2="407.3"/>
				
					<line fill="none" stroke="#C1B03D" stroke-width="2" stroke-linejoin="round" stroke-miterlimit="10" x1="740.2" y1="391.9" x2="740.2" y2="407.3"/>
				
					<line fill="none" stroke="#C1B03D" stroke-width="2" stroke-linejoin="round" stroke-miterlimit="10" x1="751.6" y1="391.9" x2="751.6" y2="407.3"/>
			</g>
			<polyline fill="none" stroke="#C1B03D" stroke-width="2" stroke-linejoin="round" stroke-miterlimit="10" points="509.5,412.1 
				509.5,385.8 525.5,385.8 552.1,412.4 			"/>
			
				<line fill="none" stroke="#C1B03D" stroke-width="1.957" stroke-linejoin="round" stroke-miterlimit="10" x1="514.9" y1="392.6" x2="532.3" y2="392.6"/>
			
				<line fill="none" stroke="#C1B03D" stroke-width="2.0616" stroke-linejoin="round" stroke-miterlimit="10" x1="514.9" y1="399.1" x2="538.9" y2="399.1"/>
			
				<line fill="none" stroke="#C1B03D" stroke-width="1.8146" stroke-linejoin="round" stroke-miterlimit="10" x1="514.9" y1="405.6" x2="544.7" y2="405.6"/>
			<polyline fill="none" stroke="#C1B03D" stroke-width="2.1069" stroke-linejoin="round" stroke-miterlimit="10" points="
				824,278.1 845.6,294.5 872.3,329.7 607.8,329.7 559.7,294.5 536.7,278.1 			"/>
			
				<line fill="none" stroke="#C1B03D" stroke-width="2.1069" stroke-linejoin="round" stroke-miterlimit="10" x1="654.6" y1="329.7" x2="639.6" y2="363.5"/>
			
				<line fill="none" stroke="#C1B03D" stroke-width="2.1069" stroke-linejoin="round" stroke-miterlimit="10" x1="670.6" y1="329.7" x2="655.6" y2="363.5"/>
			
				<line fill="none" stroke="#C1B03D" stroke-width="2.1069" stroke-linejoin="round" stroke-miterlimit="10" x1="686.6" y1="329.7" x2="671.6" y2="363.5"/>
			
				<line fill="none" stroke="#C1B03D" stroke-width="2.1069" stroke-linejoin="round" stroke-miterlimit="10" x1="702.5" y1="329.7" x2="687.5" y2="363.5"/>
			
				<line fill="none" stroke="#C1B03D" stroke-width="2.1069" stroke-linejoin="round" stroke-miterlimit="10" x1="718.5" y1="329.7" x2="703.5" y2="363.5"/>
			
				<line fill="none" stroke="#C1B03D" stroke-width="2.1069" stroke-linejoin="round" stroke-miterlimit="10" x1="734.5" y1="329.7" x2="719.5" y2="363.5"/>
			
				<line fill="none" stroke="#C1B03D" stroke-width="2.1069" stroke-linejoin="round" stroke-miterlimit="10" x1="750.5" y1="329.7" x2="735.5" y2="363.5"/>
			
				<line fill="none" stroke="#C1B03D" stroke-width="2.1069" stroke-linejoin="round" stroke-miterlimit="10" x1="766.5" y1="329.7" x2="751.5" y2="363.5"/>
			
				<line fill="none" stroke="#C1B03D" stroke-width="2.1069" stroke-linejoin="round" stroke-miterlimit="10" x1="782.5" y1="329.7" x2="767.5" y2="363.5"/>
			<polyline fill="none" stroke="#C1B03D" stroke-width="2.1069" stroke-linejoin="round" stroke-miterlimit="10" points="
				1106.7,378.6 1126.6,323.2 1131.1,317.7 1137.4,317.7 1138.9,323 1118.6,378.6 			"/>
			<polyline fill="none" stroke="#C1B03D" stroke-width="2.1069" stroke-linejoin="round" stroke-miterlimit="10" points="
				1125.7,378.6 1145.5,323.2 1150.1,317.7 1156.4,317.7 1157.9,323 1137.6,378.6 			"/>
			<polyline fill="none" stroke="#C1B03D" stroke-width="2.1069" stroke-linejoin="round" stroke-miterlimit="10" points="
				1144.6,378.6 1164.5,323.2 1169,317.7 1175.3,317.7 1176.8,323 1156.5,378.6 			"/>
			
				<line fill="none" stroke="#C1B03D" stroke-width="2.1069" stroke-linejoin="round" stroke-miterlimit="10" x1="1365.7" y1="370.3" x2="1311.5" y2="370.3"/>
			
				<line fill="none" stroke="#C1B03D" stroke-width="2.1069" stroke-linejoin="round" stroke-miterlimit="10" x1="1374.3" y1="388.3" x2="868.5" y2="388.3"/>
			
				<line fill="none" stroke="#C1B03D" stroke-width="2.1069" stroke-linejoin="round" stroke-miterlimit="10" x1="825.8" y1="329.7" x2="860.8" y2="412.1"/>
			
				<line fill="none" stroke="#C1B03D" stroke-width="2.1069" stroke-linejoin="round" stroke-miterlimit="10" x1="844.8" y1="329.7" x2="879.8" y2="412.1"/>
			
				<line fill="none" stroke="#C1B03D" stroke-width="2.1069" stroke-linejoin="round" stroke-miterlimit="10" x1="854.8" y1="329.7" x2="889.8" y2="412.1"/>
			
				<rect x="1009.7" y="394.1" fill="none" stroke="#C1B03D" stroke-width="2.1069" stroke-linejoin="round" stroke-miterlimit="10" width="28" height="18"/>
			<path fill="none" stroke="#C1B03D" stroke-width="2.1069" stroke-linejoin="round" stroke-miterlimit="10" d="M1039.5,412.1
				l44.3,40.4v25.6c0,0,1.5,7.2-13,23.2"/>
			<path fill="none" stroke="#C1B03D" stroke-width="2.1069" stroke-linejoin="round" stroke-miterlimit="10" d="M1364.3,438.9H1106
				c-6.6,0-12,5.4-12,12v0c0,6.6,5.4,12,12,12h258.3"/>
			<polygon fill="none" stroke="#C1B03D" stroke-width="2.1069" stroke-linejoin="round" stroke-miterlimit="10" points="
				1003.2,427.4 1039.5,427.4 1072,455.8 1072,478 1039.5,478 993.6,440.2 			"/>
			<polygon fill="none" stroke="#C1B03D" stroke-width="2.1069" stroke-linejoin="round" stroke-miterlimit="10" points="
				1039.5,485.2 1072,485.2 1036.1,525.7 			"/>
			<path fill="none" stroke="#C1B03D" stroke-width="2.1069" stroke-linejoin="round" stroke-miterlimit="10" d="M978.8,448l45,38.5
				l-4.1,42.9l-32.1,37.6h-65.4l2.2-6.8l-2.2-7.1c0,0-44.4-19.4-33.8-105.3H978.8z"/>
			<path fill="none" stroke="#C1B03D" stroke-width="2.1069" stroke-linejoin="round" stroke-miterlimit="10" d="M922.2,567.1h-37.5
				l-34.9-19.3c-11.6-6.4-18.9-18.7-18.9-32v-38c0-16.5,13.4-29.9,29.9-29.9h27.7"/>
			<path fill="none" stroke="#C1B03D" stroke-width="2.1069" stroke-linejoin="round" stroke-miterlimit="10" d="M874.4,448
				c0,0-18.5,77.6,38.5,119.1"/>
			<path fill="none" stroke="#C1B03D" stroke-width="2.1069" stroke-linejoin="round" stroke-miterlimit="10" d="M859.5,463
				c0,0-7.8,50.4,20,86.2c0,0-32-8.7-33.3-31.5c-0.7-12.7-1-27.7-1.1-38.6C845,470.7,851.2,463.8,859.5,463L859.5,463z"/>
			<polygon fill="none" stroke="#C1B03D" stroke-width="2.1069" stroke-linejoin="round" stroke-miterlimit="10" points="
				732.4,461.4 774.1,461.4 774.1,498 			"/>
			<path fill="none" stroke="#C1B03D" stroke-width="2.1069" stroke-linejoin="round" stroke-miterlimit="10" d="M689.4,474
				l12.1-12.6h17l53.5,48.5c5.7,5.2,6,14.1,0.7,19.7h0c-5.1,5.3-13.4,5.6-19,0.8L689.4,474z"/>
			<path fill="none" stroke="#C1B03D" stroke-width="2.1069" stroke-linejoin="round" stroke-miterlimit="10" d="M754.5,494.1
				c5.7,5.2,6,14.1,0.7,19.7l0,0c-5.1,5.3-13.4,5.6-19,0.8"/>
			
				<line fill="none" stroke="#C1B03D" stroke-width="2.1069" stroke-linejoin="round" stroke-miterlimit="10" x1="704.6" y1="467.3" x2="697.2" y2="475.4"/>
			
				<line fill="none" stroke="#C1B03D" stroke-width="2.1069" stroke-linejoin="round" stroke-miterlimit="10" x1="717.5" y1="468.3" x2="704.5" y2="481.7"/>
			
				<line fill="none" stroke="#C1B03D" stroke-width="2.1069" stroke-linejoin="round" stroke-miterlimit="10" x1="725.4" y1="475.1" x2="712.4" y2="488.4"/>
			
				<line fill="none" stroke="#C1B03D" stroke-width="2.1069" stroke-linejoin="round" stroke-miterlimit="10" x1="733.2" y1="481.8" x2="720.3" y2="495.2"/>
			
				<line fill="none" stroke="#C1B03D" stroke-width="2.1069" stroke-linejoin="round" stroke-miterlimit="10" x1="741.1" y1="488.6" x2="728.2" y2="502"/>
			<polyline fill="none" stroke="#C1B03D" stroke-width="2.1069" stroke-linejoin="round" stroke-miterlimit="10" points="
				586.6,489.2 604.5,475 691.4,475 			"/>
			<polyline fill="none" stroke="#C1B03D" stroke-width="2.1069" stroke-linejoin="round" stroke-miterlimit="10" points="
				741.1,519.4 741.1,546.3 796.2,587.3 			"/>
			<path fill="none" stroke="#C1B03D" stroke-width="2.1069" stroke-linejoin="round" stroke-miterlimit="10" d="M790.5,599.3
				l-81.7-8.1c-22.6-2.2-43.2,12.7-48.2,34.8l-0.7,3c-3.1,13.7,5.9,27.2,19.7,29.6c24.2,4.3,62.3,9.5,98.1,8.1"/>
			<path fill="none" stroke="#C1B03D" stroke-width="2.1069" stroke-linejoin="round" stroke-miterlimit="10" d="M767.5,689.1
				l-97.1-8.7c-14.9-1.3-28.8,8-33,22.4l-35.9,121c-3.9,13.1,3.5,26.8,16.5,30.8c24.7,7.5,66.1,14.4,107.4-4.2"/>
			<path fill="none" stroke="#C1B03D" stroke-width="2" stroke-linejoin="round" stroke-miterlimit="10" d="M460.2,801.1l22.9,16.4
				c0,0,35.3,7.8,15.9,73.6l-22.8-16.5"/>
			<path fill="none" stroke="#C1B03D" stroke-width="2" stroke-linejoin="round" stroke-miterlimit="10" d="M715.8,890.4
				c-23,20.7-71.7,16-90.5,13.3c-5.2-0.8-10.4,0.2-15,2.7l-2,1.1c-3.5,1.9-7.4,2.9-11.3,2.9c-13.5,0.1-46.5,0.3-64.8,0
				c-23.4-0.4-27-4.7-27-4.7l-22.8-16.5"/>
			
				<circle fill="none" stroke="#C1B03D" stroke-width="2" stroke-linejoin="round" stroke-miterlimit="10" cx="1216.1" cy="340.4" r="4.6"/>
			
				<circle fill="none" stroke="#C1B03D" stroke-width="2" stroke-linejoin="round" stroke-miterlimit="10" cx="1238.3" cy="340.4" r="4.6"/>
			
				<circle fill="none" stroke="#C1B03D" stroke-width="2" stroke-linejoin="round" stroke-miterlimit="10" cx="1260.5" cy="340.4" r="4.6"/>
			
				<circle fill="none" stroke="#C1B03D" stroke-width="2" stroke-linejoin="round" stroke-miterlimit="10" cx="1229.2" cy="357.9" r="4.6"/>
			
				<circle fill="none" stroke="#C1B03D" stroke-width="2" stroke-linejoin="round" stroke-miterlimit="10" cx="1251.4" cy="357.9" r="4.6"/>
			
				<circle fill="none" stroke="#C1B03D" stroke-width="2" stroke-linejoin="round" stroke-miterlimit="10" cx="1273.6" cy="357.9" r="4.6"/>
			
				<circle fill="none" stroke="#C1B03D" stroke-width="2" stroke-linejoin="round" stroke-miterlimit="10" cx="1282.7" cy="340.4" r="4.6"/>
			
				<circle fill="none" stroke="#C1B03D" stroke-width="2" stroke-linejoin="round" stroke-miterlimit="10" cx="1312.7" cy="322.7" r="11.3"/>
			
				<circle fill="none" stroke="#C1B03D" stroke-width="2" stroke-linejoin="round" stroke-miterlimit="10" cx="550.2" cy="322.7" r="11.3"/>
			<path fill="none" stroke="#C1B03D" stroke-width="2" stroke-linejoin="round" stroke-miterlimit="10" d="M1375.2,344.7h-26.1
				c-2.8,0-5.4,1.2-7.1,3.4l-18,22.2"/>
			
				<line fill="none" stroke="#C1B03D" stroke-width="2" stroke-linejoin="round" stroke-miterlimit="10" x1="1126" y1="324.8" x2="869.5" y2="324.8"/>
			
				<line fill="none" stroke="#C1B03D" stroke-width="2" stroke-linejoin="round" stroke-miterlimit="10" x1="1144.9" y1="324.8" x2="1138.3" y2="324.8"/>
			
				<line fill="none" stroke="#C1B03D" stroke-width="2" stroke-linejoin="round" stroke-miterlimit="10" x1="1163.9" y1="324.8" x2="1157.2" y2="324.8"/>
			
				<line fill="none" stroke="#C1B03D" stroke-width="2" stroke-linejoin="round" stroke-miterlimit="10" x1="1301.4" y1="324.8" x2="1176.2" y2="324.8"/>
			
				<line fill="none" stroke="#C1B03D" stroke-width="2" stroke-linejoin="round" stroke-miterlimit="10" x1="1382.6" y1="324.8" x2="1323.9" y2="324.8"/>
		</g>
		
			<line fill="none" stroke="#C1B03D" stroke-width="2.1069" stroke-linejoin="round" stroke-miterlimit="10" x1="483.8" y1="364.5" x2="460.8" y2="348.1"/>
		
			<line fill="none" stroke="#C1B03D" stroke-width="2" stroke-linejoin="round" stroke-miterlimit="10" x1="497.3" y1="427" x2="474.4" y2="412.4"/>
		
			<line fill="none" stroke="#C1B03D" stroke-width="2" stroke-linejoin="round" stroke-miterlimit="10" x1="497.3" y1="447.5" x2="474.4" y2="431.1"/>
		
			<line fill="none" stroke="#C1B03D" stroke-width="2" stroke-linejoin="round" stroke-miterlimit="10" x1="499.7" y1="922" x2="476.9" y2="905.5"/>
		
			<line fill="none" stroke="#C1B03D" stroke-width="2.1069" stroke-linejoin="round" stroke-miterlimit="10" x1="877.8" y1="294.5" x2="854.9" y2="278.1"/>
		
			<line fill="none" stroke="#C1B03D" stroke-width="2.1069" stroke-linejoin="round" stroke-miterlimit="10" x1="1041.3" y1="294.5" x2="1018.3" y2="278.1"/>
		
			<line fill="none" stroke="#C1B03D" stroke-width="2" stroke-linejoin="round" stroke-miterlimit="10" x1="1253.6" y1="294.5" x2="1230.7" y2="278.1"/>
		
			<line fill="none" stroke="#C1B03D" stroke-width="2" stroke-linejoin="round" stroke-miterlimit="10" x1="1313.3" y1="294.5" x2="1290.4" y2="278.1"/>
	</g>
	<path fill="none" stroke="#C1B03D" stroke-width="2.1069" stroke-linejoin="round" stroke-miterlimit="10" d="M476.9,905.5
		l5.4-16.4c-8.3-4.7-6.1-14.4-6.1-14.4C445.4,861,459,807.6,459,807.6c28.6-142.7,55.6-163.2,90.9-226.3
		c35.3-63.1,13.9-108.5,13.9-108.5l-89.3-41.7v-20.5l-13.5-14.9v-47.6l13.4-27.3c2.8-5.6,7.1-10.3,12.5-13.5l50-29.3H855l10.6,8.7
		h154.5l-1.6-8.7h212.3l0,0c0,3.8,3.1,6.9,6.9,6.9h45.9c3.8,0,6.9-3.1,6.9-6.9l0,0h38.7l22.8,16.5"/>
</g>
</svg>
