<?xml version="1.0" encoding="utf-8"?>
<!-- Generator: Adobe Illustrator 26.0.1, SVG Export Plug-In . SVG Version: 6.00 Build 0)  -->
<svg version="1.1" baseProfile="tiny" id="Layer_1" xmlns="http://www.w3.org/2000/svg" xmlns:xlink="http://www.w3.org/1999/xlink"
	 x="0px" y="0px" viewBox="0 0 1920 1080" overflow="visible" xml:space="preserve">
<g>
	<path fill="none" stroke="#756A28" stroke-width="2" stroke-linejoin="round" stroke-miterlimit="10" d="M460.8,348.1v47.6h881.8
		l8.8-23.8l-4.1-3.9v-7.8l-4.5-6.3c0,0,8.7-10.3,9.5-25.6l7.4-12.6"/>
	<path fill="none" stroke="#756A28" stroke-width="2" stroke-linejoin="round" stroke-miterlimit="10" d="M460.8,395.7l13.5,14.9
		v20.5l89.3,41.7c0,0,21.4,45.4-13.9,108.5c-35.3,63.1-62.2,83.6-90.9,226.3c0,0-13.7,53.4,17.2,67.1c0,0-2.2,9.7,6.1,14.4
		l-5.4,16.4c0,0,0.3,5.3,26.4,6.5c26,1.2,140.2,0,140.2,0s48.2-1.1,49.5-38.1l9.6-40c0,0-12.8-9.1-3.1-45.3
		c9.7-36.2,25-87.1,25-87.1s4-22.1,23.3-30.5c19.3-8.4,7.3-20.7,7.3-20.7s-6.4-27.6,11.2-64.3l7.1-15.2c0,0,37.7-27.8,76.3,1.4
		h118.7l79.6-87.4l40.8-12.8h205.8l6-6.6h6l8.4-8.2h12.8c0,0,15.2-1.1,15-20.1l-3.3-41.5"/>
	<path fill="none" stroke="#756A28" stroke-width="2" stroke-linejoin="round" stroke-miterlimit="10" d="M1020,286.8H865.5
		l-10.6-8.7H536.7l-50,29.3c-5.4,3.2-9.7,7.8-12.5,13.5l-13.4,27.3h578.8l30.6,14.1h211.2l40-46.5h38.2l-0.3-16.3l-30.2-21.3h-38.7
		l0,0c0,3.8-3.1,6.9-6.9,6.9h-45.9c-3.8,0-6.9-3.1-6.9-6.9l0,0h-212.3l3.3,18.7c0,0-0.9,11-14.3,11s-102.1,0-102.1,0
		s-21.4,1.3-39.7-21"/>
	<polyline fill="none" stroke="#756A28" stroke-width="2" stroke-linejoin="round" stroke-miterlimit="10" points="474.4,411.7 
		494,407.1 653,407.1 690.5,437.7 760.7,437.7 782.3,456.5 794.4,432.9 787.2,426.3 701.6,426.3 665.6,395.7 	"/>
	<path fill="none" stroke="#756A28" stroke-width="2" stroke-linejoin="round" stroke-miterlimit="10" d="M679.4,395.7
		c-7.1,0-12.9-5.8-12.9-12.9v0c0-7.1,5.8-12.9,12.9-12.9h98.5c7.1,0,12.9,5.8,12.9,12.9v0c0,7.1-5.8,12.9-12.9,12.9"/>
	<path fill="none" stroke="#756A28" stroke-width="2" stroke-linejoin="round" stroke-miterlimit="10" d="M679.3,395.7
		c-7.1,0-12.9-5.8-12.9-12.9v0c0-7.1,5.8-12.9,12.9-12.9h64.4c7.1,0,12.9,5.8,12.9,12.9v0c0,7.1-5.8,12.9-12.9,12.9"/>
	<g>
		
			<line fill="none" stroke="#756A28" stroke-width="2" stroke-linejoin="round" stroke-miterlimit="10" x1="694.3" y1="375.5" x2="694.3" y2="390.8"/>
		
			<line fill="none" stroke="#756A28" stroke-width="2" stroke-linejoin="round" stroke-miterlimit="10" x1="705.8" y1="375.5" x2="705.8" y2="390.8"/>
		
			<line fill="none" stroke="#756A28" stroke-width="2" stroke-linejoin="round" stroke-miterlimit="10" x1="717.2" y1="375.5" x2="717.2" y2="390.8"/>
		
			<line fill="none" stroke="#756A28" stroke-width="2" stroke-linejoin="round" stroke-miterlimit="10" x1="728.6" y1="375.5" x2="728.6" y2="390.8"/>
	</g>
	<polyline fill="none" stroke="#756A28" stroke-width="2" stroke-linejoin="round" stroke-miterlimit="10" points="486.6,395.7 
		486.6,369.4 502.6,369.4 529.1,396 	"/>
	
		<line fill="none" stroke="#756A28" stroke-width="1.957" stroke-linejoin="round" stroke-miterlimit="10" x1="492" y1="376.2" x2="509.3" y2="376.2"/>
	
		<line fill="none" stroke="#756A28" stroke-width="2.0616" stroke-linejoin="round" stroke-miterlimit="10" x1="492" y1="382.7" x2="516" y2="382.7"/>
	
		<line fill="none" stroke="#756A28" stroke-width="1.8146" stroke-linejoin="round" stroke-miterlimit="10" x1="492" y1="389.2" x2="521.8" y2="389.2"/>
	<polyline fill="none" stroke="#756A28" stroke-width="2.1069" stroke-linejoin="round" stroke-miterlimit="10" points="
		536.7,278.1 584.9,313.3 849.4,313.3 822.7,278.1 	"/>
	
		<line fill="none" stroke="#756A28" stroke-width="2.1069" stroke-linejoin="round" stroke-miterlimit="10" x1="631.6" y1="313.3" x2="616.6" y2="347.1"/>
	
		<line fill="none" stroke="#756A28" stroke-width="2.1069" stroke-linejoin="round" stroke-miterlimit="10" x1="647.6" y1="313.3" x2="632.6" y2="347.1"/>
	
		<line fill="none" stroke="#756A28" stroke-width="2.1069" stroke-linejoin="round" stroke-miterlimit="10" x1="663.6" y1="313.3" x2="648.6" y2="347.1"/>
	
		<line fill="none" stroke="#756A28" stroke-width="2.1069" stroke-linejoin="round" stroke-miterlimit="10" x1="679.6" y1="313.3" x2="664.6" y2="347.1"/>
	
		<line fill="none" stroke="#756A28" stroke-width="2.1069" stroke-linejoin="round" stroke-miterlimit="10" x1="695.6" y1="313.3" x2="680.6" y2="347.1"/>
	
		<line fill="none" stroke="#756A28" stroke-width="2.1069" stroke-linejoin="round" stroke-miterlimit="10" x1="711.6" y1="313.3" x2="696.6" y2="347.1"/>
	
		<line fill="none" stroke="#756A28" stroke-width="2.1069" stroke-linejoin="round" stroke-miterlimit="10" x1="727.6" y1="313.3" x2="712.6" y2="347.1"/>
	
		<line fill="none" stroke="#756A28" stroke-width="2.1069" stroke-linejoin="round" stroke-miterlimit="10" x1="743.6" y1="313.3" x2="728.6" y2="347.1"/>
	
		<line fill="none" stroke="#756A28" stroke-width="2.1069" stroke-linejoin="round" stroke-miterlimit="10" x1="759.6" y1="313.3" x2="744.6" y2="347.1"/>
	<polyline fill="none" stroke="#756A28" stroke-width="2.1069" stroke-linejoin="round" stroke-miterlimit="10" points="
		1083.8,362.2 1103.6,306.8 1108.2,301.3 1114.5,301.3 1116,306.6 1095.7,362.2 	"/>
	<polyline fill="none" stroke="#756A28" stroke-width="2.1069" stroke-linejoin="round" stroke-miterlimit="10" points="
		1102.7,362.2 1122.6,306.8 1127.1,301.3 1133.4,301.3 1134.9,306.6 1114.6,362.2 	"/>
	<polyline fill="none" stroke="#756A28" stroke-width="2.1069" stroke-linejoin="round" stroke-miterlimit="10" points="
		1121.7,362.2 1141.5,306.8 1146.1,301.3 1152.4,301.3 1153.9,306.6 1133.6,362.2 	"/>
	
		<line fill="none" stroke="#756A28" stroke-width="2.1069" stroke-linejoin="round" stroke-miterlimit="10" x1="1342.8" y1="353.9" x2="1288.6" y2="353.9"/>
	<polyline fill="none" stroke="#756A28" stroke-width="2.1069" stroke-linejoin="round" stroke-miterlimit="10" points="
		1370.3,384.4 1351.4,371.9 845.5,371.9 	"/>
	
		<line fill="none" stroke="#756A28" stroke-width="2.1069" stroke-linejoin="round" stroke-miterlimit="10" x1="802.9" y1="313.3" x2="837.9" y2="395.7"/>
	
		<line fill="none" stroke="#756A28" stroke-width="2.1069" stroke-linejoin="round" stroke-miterlimit="10" x1="821.8" y1="313.3" x2="856.8" y2="395.7"/>
	
		<line fill="none" stroke="#756A28" stroke-width="2.1069" stroke-linejoin="round" stroke-miterlimit="10" x1="831.9" y1="313.3" x2="866.9" y2="395.7"/>
	
		<rect x="986.8" y="377.7" fill="none" stroke="#756A28" stroke-width="2.1069" stroke-linejoin="round" stroke-miterlimit="10" width="28" height="18"/>
	<path fill="none" stroke="#756A28" stroke-width="2.1069" stroke-linejoin="round" stroke-miterlimit="10" d="M1016.6,395.7
		l44.3,40.4v25.6c0,0,1.5,7.2-13,23.2"/>
	<path fill="none" stroke="#756A28" stroke-width="2.1069" stroke-linejoin="round" stroke-miterlimit="10" d="M1341.4,422.5h-258.3
		c-6.6,0-12,5.4-12,12v0c0,6.6,5.4,12,12,12h258.3"/>
	<polygon fill="none" stroke="#756A28" stroke-width="2.1069" stroke-linejoin="round" stroke-miterlimit="10" points="980.2,411 
		1016.6,411 1049.1,439.4 1049.1,461.6 1016.6,461.6 970.7,423.8 	"/>
	<polygon fill="none" stroke="#756A28" stroke-width="2.1069" stroke-linejoin="round" stroke-miterlimit="10" points="
		1016.6,468.8 1049.1,468.8 1013.2,509.3 	"/>
	<path fill="none" stroke="#756A28" stroke-width="2.1069" stroke-linejoin="round" stroke-miterlimit="10" d="M955.8,431.6l45,38.5
		l-4.1,42.9l-32.1,37.6h-65.4l2.2-6.8l-2.2-7.1c0,0-44.4-19.4-33.8-105.3H955.8z"/>
	<path fill="none" stroke="#756A28" stroke-width="2.1069" stroke-linejoin="round" stroke-miterlimit="10" d="M899.2,550.7h-37.5
		l-34.9-19.3c-11.6-6.4-18.9-18.7-18.9-32v-38c0-16.5,13.4-29.9,29.9-29.9h27.7"/>
	<path fill="none" stroke="#756A28" stroke-width="2.1069" stroke-linejoin="round" stroke-miterlimit="10" d="M851.4,431.6
		c0,0-18.5,77.6,38.5,119.1"/>
	<path fill="none" stroke="#756A28" stroke-width="2.1069" stroke-linejoin="round" stroke-miterlimit="10" d="M836.5,446.5
		c0,0-7.8,50.4,20,86.2c0,0-32-8.7-33.3-31.5c-0.7-12.7-1-27.7-1.1-38.6C822,454.3,828.3,447.3,836.5,446.5L836.5,446.5z"/>
	<polygon fill="none" stroke="#756A28" stroke-width="2.1069" stroke-linejoin="round" stroke-miterlimit="10" points="709.5,445 
		751.2,445 751.2,481.6 	"/>
	<path fill="none" stroke="#756A28" stroke-width="2.1069" stroke-linejoin="round" stroke-miterlimit="10" d="M666.5,457.6
		l12.1-12.6h17l53.5,48.5c5.7,5.2,6,14.1,0.7,19.7l0,0c-5.1,5.3-13.4,5.6-19,0.8L666.5,457.6z"/>
	<path fill="none" stroke="#756A28" stroke-width="2.1069" stroke-linejoin="round" stroke-miterlimit="10" d="M731.6,477.7
		c5.7,5.2,6,14.1,0.7,19.7l0,0c-5.1,5.3-13.4,5.6-19,0.8"/>
	
		<line fill="none" stroke="#756A28" stroke-width="2.1069" stroke-linejoin="round" stroke-miterlimit="10" x1="681.7" y1="450.9" x2="674.2" y2="459"/>
	
		<line fill="none" stroke="#756A28" stroke-width="2.1069" stroke-linejoin="round" stroke-miterlimit="10" x1="694.5" y1="451.9" x2="681.6" y2="465.2"/>
	
		<line fill="none" stroke="#756A28" stroke-width="2.1069" stroke-linejoin="round" stroke-miterlimit="10" x1="702.4" y1="458.7" x2="689.5" y2="472"/>
	
		<line fill="none" stroke="#756A28" stroke-width="2.1069" stroke-linejoin="round" stroke-miterlimit="10" x1="710.3" y1="465.4" x2="697.3" y2="478.8"/>
	
		<line fill="none" stroke="#756A28" stroke-width="2.1069" stroke-linejoin="round" stroke-miterlimit="10" x1="718.2" y1="472.2" x2="705.2" y2="485.6"/>
	<polyline fill="none" stroke="#756A28" stroke-width="2.1069" stroke-linejoin="round" stroke-miterlimit="10" points="
		563.7,472.8 581.6,458.6 668.5,458.6 	"/>
	<polyline fill="none" stroke="#756A28" stroke-width="2.1069" stroke-linejoin="round" stroke-miterlimit="10" points="718.2,503 
		718.2,529.9 773.3,570.9 	"/>
	<path fill="none" stroke="#756A28" stroke-width="2.1069" stroke-linejoin="round" stroke-miterlimit="10" d="M777.9,666.8
		l-22.9-16.4c-35.8,1.4-73.9-3.8-98.1-8.1c-13.8-2.4-22.8-15.9-19.7-29.6l0.7-3c4.9-22.1,25.6-37.1,48.2-34.8l81.7,8.1l22.9,16.4"/>
	<path fill="none" stroke="#756A28" stroke-width="2.1069" stroke-linejoin="round" stroke-miterlimit="10" d="M725.4,850.4
		L702.4,834c-41.3,18.6-82.7,11.8-107.4,4.2c-13-4-20.4-17.7-16.5-30.8l35.9-121c4.3-14.4,18.1-23.8,33-22.4l97.1,8.7l22.9,16.4"/>
	<path fill="none" stroke="#756A28" stroke-width="2" stroke-linejoin="round" stroke-miterlimit="10" d="M460.2,801.1
		c0,0,35.3,7.8,15.9,73.6"/>
	<path fill="none" stroke="#756A28" stroke-width="2" stroke-linejoin="round" stroke-miterlimit="10" d="M482.2,889.2
		c0,0,3.6,4.3,27,4.7c18.3,0.3,51.2,0.2,64.8,0c4,0,7.9-1,11.3-2.9l2-1.1c4.6-2.5,9.8-3.4,15-2.7c18.9,2.8,67.6,7.4,90.5-13.3
		l22.9,16.4"/>
	
		<circle fill="none" stroke="#756A28" stroke-width="2" stroke-linejoin="round" stroke-miterlimit="10" cx="1193.2" cy="324" r="4.6"/>
	
		<circle fill="none" stroke="#756A28" stroke-width="2" stroke-linejoin="round" stroke-miterlimit="10" cx="1215.4" cy="324" r="4.6"/>
	
		<circle fill="none" stroke="#756A28" stroke-width="2" stroke-linejoin="round" stroke-miterlimit="10" cx="1237.6" cy="324" r="4.6"/>
	
		<circle fill="none" stroke="#756A28" stroke-width="2" stroke-linejoin="round" stroke-miterlimit="10" cx="1206.3" cy="341.4" r="4.6"/>
	
		<circle fill="none" stroke="#756A28" stroke-width="2" stroke-linejoin="round" stroke-miterlimit="10" cx="1228.5" cy="341.4" r="4.6"/>
	
		<circle fill="none" stroke="#756A28" stroke-width="2" stroke-linejoin="round" stroke-miterlimit="10" cx="1250.7" cy="341.4" r="4.6"/>
	
		<circle fill="none" stroke="#756A28" stroke-width="2" stroke-linejoin="round" stroke-miterlimit="10" cx="1259.8" cy="324" r="4.6"/>
	
		<circle fill="none" stroke="#756A28" stroke-width="2" stroke-linejoin="round" stroke-miterlimit="10" cx="1289.8" cy="306.3" r="11.3"/>
	
		<circle fill="none" stroke="#756A28" stroke-width="2" stroke-linejoin="round" stroke-miterlimit="10" cx="527.3" cy="306.3" r="11.3"/>
	<path fill="none" stroke="#756A28" stroke-width="2" stroke-linejoin="round" stroke-miterlimit="10" d="M1375.2,344.7l-22.9-16.4
		h-26.1c-2.8,0-5.4,1.2-7.1,3.4l-18,22.2"/>
	
		<line fill="none" stroke="#756A28" stroke-width="2" stroke-linejoin="round" stroke-miterlimit="10" x1="1103.1" y1="308.4" x2="846.6" y2="308.4"/>
	
		<line fill="none" stroke="#756A28" stroke-width="2" stroke-linejoin="round" stroke-miterlimit="10" x1="1122" y1="308.4" x2="1115.3" y2="308.4"/>
	
		<line fill="none" stroke="#756A28" stroke-width="2" stroke-linejoin="round" stroke-miterlimit="10" x1="1140.9" y1="308.4" x2="1134.3" y2="308.4"/>
	
		<line fill="none" stroke="#756A28" stroke-width="2" stroke-linejoin="round" stroke-miterlimit="10" x1="1278.5" y1="308.4" x2="1153.2" y2="308.4"/>
	<polyline fill="none" stroke="#756A28" stroke-width="2" stroke-linejoin="round" stroke-miterlimit="10" points="1300.9,308.4 
		1359.6,308.4 1382.6,324.8 	"/>
	
		<line fill="none" stroke="#756A28" stroke-width="2" stroke-linejoin="round" stroke-miterlimit="10" x1="1359.6" y1="315.7" x2="1382.6" y2="331.8"/>
	
		<line fill="none" stroke="#756A28" stroke-width="2" stroke-linejoin="round" stroke-miterlimit="10" x1="1347.3" y1="360.2" x2="1370.3" y2="376.6"/>
	
		<line fill="none" stroke="#756A28" stroke-width="2.1069" stroke-linejoin="round" stroke-miterlimit="10" x1="1365.1" y1="412.1" x2="1342.6" y2="395.7"/>
	
		<line fill="none" stroke="#756A28" stroke-width="2.1069" stroke-linejoin="round" stroke-miterlimit="10" x1="1337.7" y1="473.8" x2="1314.8" y2="457.4"/>
	
		<line fill="none" stroke="#756A28" stroke-width="2.1069" stroke-linejoin="round" stroke-miterlimit="10" x1="1323.4" y1="481.9" x2="1300.5" y2="465.5"/>
	
		<line fill="none" stroke="#756A28" stroke-width="2.1069" stroke-linejoin="round" stroke-miterlimit="10" x1="1317.4" y1="488.5" x2="1294.5" y2="472.1"/>
	
		<line fill="none" stroke="#756A28" stroke-width="2.1069" stroke-linejoin="round" stroke-miterlimit="10" x1="1111.6" y1="488.5" x2="1088.7" y2="472.1"/>
	
		<line fill="none" stroke="#756A28" stroke-width="2.1069" stroke-linejoin="round" stroke-miterlimit="10" x1="991.2" y1="588.7" x2="968.3" y2="572.3"/>
	
		<line fill="none" stroke="#756A28" stroke-width="2.1069" stroke-linejoin="round" stroke-miterlimit="10" x1="872.5" y1="588.7" x2="849.6" y2="572.3"/>
	<path fill="none" stroke="#756A28" stroke-width="2.1069" stroke-linejoin="round" stroke-miterlimit="10" d="M715.8,890.4"/>
</g>
</svg>
