<?xml version="1.0" encoding="utf-8"?>
<!-- Generator: Adobe Illustrator 26.0.1, SVG Export Plug-In . SVG Version: 6.00 Build 0)  -->
<svg version="1.1" baseProfile="tiny" id="Layer_1" xmlns="http://www.w3.org/2000/svg" xmlns:xlink="http://www.w3.org/1999/xlink"
	 x="0px" y="0px" viewBox="0 0 1920 1080" overflow="visible" xml:space="preserve">
<path id="Rectangle_95_00000085215770566438790310000016124645806811676819_" fill="#C1B03D" d="M610.8,88.7h-545
	c-5.5,0-10,4.5-10,10l0,0l0,0h555l0,0V88.7L610.8,88.7z"/>
<path id="Rectangle_95" fill="#C1B03D" d="M1296.8,88.7v10l0,0h555l0,0l0,0c0-5.5-4.5-10-10-10H1296.8L1296.8,88.7z"/>
<path fill="none" stroke="#C1B03D" stroke-width="6" stroke-miterlimit="10" d="M960,113.6H634.5l-9,11.4H56.1l0,0
	c-6.8,0-12.3,5.5-12.3,12.3v895.4c0,0,0,0,0,0c0,6.8,5.5,12.3,12.3,12.3h899.7h899.7l0,0c6.8,0,12.3-5.5,12.3-12.3V137.3
	c0-6.8-5.5-12.3-12.3-12.3h-568.6l-9-11.4H960"/>
<path fill="none" stroke="#C1B03D" stroke-width="2" stroke-miterlimit="10" d="M622.6,134H57.9c-2.6,0-4.6,2.1-4.6,4.6v893.9
	c0,2.6,2.1,4.6,4.6,4.6h1796.6c2.6,0,4.6-2.1,4.6-4.6V138.7c0-2.6-2.1-4.6-4.6-4.6h-565.7"/>
</svg>
