<?xml version="1.0" encoding="utf-8"?>
<!-- Generator: Adobe Illustrator 19.1.1, SVG Export Plug-In . SVG Version: 6.00 Build 0)  -->
<svg version="1.1" baseProfile="tiny" id="Layer_1" xmlns="http://www.w3.org/2000/svg" xmlns:xlink="http://www.w3.org/1999/xlink"
	 x="0px" y="0px" viewBox="0 0 192 121" xml:space="preserve">
<path fill="#CCFFFE" d="M1.6,65.4l22.8,25.8h17.8L15.7,61.1l26.5-29.6H24.4L1.6,56.9C-0.5,59.3-0.5,62.9,1.6,65.4z"/>
<path fill="#CCFFFE" d="M190.6,65.4l-22.8,25.8H150l26.5-30.1L150,31.5h17.8l22.8,25.4C192.7,59.3,192.7,62.9,190.6,65.4z"/>
<path fill="#CCFFFE" d="M87.9,120.7L87.9,120.7c1.9,0,3.4-1.5,3.4-3.4V3.4c0-1.9-1.5-3.4-3.4-3.4l0,0c-1.9,0-3.4,1.5-3.4,3.4v113.9
	C84.5,119.2,86,120.7,87.9,120.7z"/>
<path fill="#CCFFFE" d="M103.9,120.7L103.9,120.7c1.9,0,3.4-1.5,3.4-3.4V3.4c0-1.9-1.5-3.4-3.4-3.4l0,0c-1.9,0-3.4,1.5-3.4,3.4
	v113.9C100.5,119.2,102,120.7,103.9,120.7z"/>
</svg>
