<?xml version="1.0" encoding="utf-8"?>
<!-- Generator: Adobe Illustrator 24.1.3, SVG Export Plug-In . SVG Version: 6.00 Build 0)  -->
<svg version="1.1" baseProfile="tiny" id="Layer_1" xmlns="http://www.w3.org/2000/svg" xmlns:xlink="http://www.w3.org/1999/xlink"
	 x="0px" y="0px" viewBox="0 0 79.9 10.8" overflow="visible" xml:space="preserve">
<polygon fill="#CCFFFE" points="53.1,10.8 56.5,10.8 47.5,0.6 44.2,0.6 "/>
<polygon fill="#CCFFFE" points="43,10.8 46.7,10.8 37.7,0.6 34.1,0.6 "/>
<path fill="#CCFFFE" d="M64.6,0.6l8.9,10.2h1.7c0.5,0,1-0.1,1.5-0.2l-8.8-10H64.6z"/>
<polygon fill="#CCFFFE" points="62.9,10.8 67,10.8 58.1,0.6 54,0.6 "/>
<path fill="#CCFFFE" d="M79.8,6.9c0.1-0.4,0.1-0.7,0.1-1.1c0-2.8-2.2-5.1-4.7-5.1h-0.8L79.8,6.9z"/>
<path fill="#CCFFFE" d="M19.2,2.1C16.8,5.7,13.1,7.9,9,7.9H3.8C3,7.9,2.4,8.5,2.4,9.3s0.6,1.5,1.4,1.5h23L19.2,2.1z"/>
<polygon fill="#CCFFFE" points="33.2,10.8 36.6,10.8 27.7,0.6 24.3,0.6 "/>
</svg>
