<?xml version="1.0" encoding="utf-8"?>
<!-- Generator: Adobe Illustrator 24.0.2, SVG Export Plug-In . SVG Version: 6.00 Build 0)  -->
<svg version="1.1" baseProfile="tiny" id="Layer_1" xmlns="http://www.w3.org/2000/svg" xmlns:xlink="http://www.w3.org/1999/xlink"
	 x="0px" y="0px" viewBox="0 0 100 128" xml:space="preserve">
<g>
	<rect x="0.44" y="1.67" fill="#CFE187" width="11.22" height="2.08"/>
	<rect x="0.44" y="124.21" fill="#CFE187" width="11.22" height="2.08"/>
	<g>
		<path fill="#D3EDF3" d="M25.8,31.9h2.58v64.66H25.8v0.01c0,10.77,10.75,17.67,19.33,17.67H82.2v2.98H43.13
			c-9.07,0-20.22-9.26-20.22-20.65V31.9c0-11.39,11.15-20.66,20.22-20.66H82.2v3.03H43.13C34.55,14.27,25.8,21.12,25.8,31.9z"/>
	</g>
	<g>
		
			<rect x="96.75" y="11.3" transform="matrix(-1.836970e-16 1 -1 -1.836970e-16 111.272 -85.5162)" fill="#DAF1FA" width="3.28" height="3.15"/>
	</g>
	<g>
		
			<rect x="89.8" y="11.3" transform="matrix(-1.836970e-16 1 -1 -1.836970e-16 104.3126 -78.5568)" fill="#DAF1FA" width="3.28" height="3.15"/>
	</g>
	<rect x="96.72" y="113.33" fill="#DAF1FA" width="3.25" height="3.89"/>
</g>
</svg>
