<?xml version="1.0" encoding="utf-8"?>
<!-- Generator: Adobe Illustrator 28.7.2, SVG Export Plug-In . SVG Version: 9.03 Build 54978)  -->
<svg version="1.1" baseProfile="tiny" id="Layer_1" xmlns="http://www.w3.org/2000/svg" xmlns:xlink="http://www.w3.org/1999/xlink"
	 x="0px" y="0px" viewBox="0 0 236.4 119.1" overflow="visible" xml:space="preserve">
<path id="colorstyle:Base" fill="#396173" d="M230.4,85.7v-1.1c0,0,0-0.1,0.1-0.1l0.1-0.1c0,0,0.1-0.1,0.1-0.1h1.5
	c0.1,0,0.1,0,0.1,0.1l0.1,0.1c0,0,0.1,0.1,0.1,0.1v1.1c0,0,0,0.1-0.1,0.1l-0.1,0.1c0,0-0.1,0.1-0.1,0.1h-1.5c-0.1,0-0.1,0-0.1-0.1
	l-0.1-0.1C230.4,85.8,230.4,85.7,230.4,85.7z M232.1,84.5h-1.4c0,0,0,0-0.1,0c0,0,0,0,0,0c0,0,0,0,0,0c0,0,0,0,0,0.1v0.9
	c0,0,0,0.1,0,0.1s0,0,0,0c0,0,0,0,0,0c0,0,0,0,0.1,0h1.4c0,0,0,0,0.1,0c0,0,0,0,0,0c0,0,0,0,0,0s0,0,0-0.1v-0.9c0,0,0-0.1,0-0.1
	C232.2,84.6,232.2,84.6,232.1,84.5C232.2,84.5,232.2,84.5,232.1,84.5C232.1,84.5,232.1,84.5,232.1,84.5z M232.4,83.8h-0.3
	c0,0-0.1,0-0.1,0c0,0,0,0-0.1,0l-0.9-1c0,0,0,0-0.1,0c0,0,0,0-0.1,0h-0.3c0,0,0,0-0.1,0c0,0,0,0,0,0c0,0,0,0,0,0s0,0,0,0.1v0.5
	c0,0,0,0.1,0,0.1c0,0,0,0,0,0c0,0,0,0,0,0c0,0,0,0,0.1,0h0.1v0.2h-0.1c-0.1,0-0.1,0-0.1-0.1l-0.1-0.1c0,0-0.1-0.1-0.1-0.1v-0.7
	c0,0,0-0.1,0.1-0.1l0.1-0.1c0,0,0.1-0.1,0.1-0.1h0.4c0,0,0.1,0,0.1,0c0,0,0,0,0.1,0l0.9,1c0,0,0,0,0.1,0s0,0,0.1,0h0v-1.1h0.2V83.8z
	 M231.1,81.5v-0.7c0,0,0-0.1,0.1-0.1l0.1-0.1c0,0,0.1-0.1,0.1-0.1h0.8c0.1,0,0.1,0,0.1,0.1l0.1,0.1c0,0,0.1,0.1,0.1,0.1v0.9
	c0,0,0,0.1-0.1,0.1l-0.1,0.1c0,0-0.1,0.1-0.1,0.1H232v-0.2h0.1c0,0,0,0,0.1,0c0,0,0,0,0,0c0,0,0,0,0,0s0,0,0-0.1V81c0,0,0-0.1,0-0.1
	s0,0,0,0c0,0,0,0,0,0c0,0,0,0-0.1,0h-0.7c0,0,0,0-0.1,0c0,0,0,0,0,0s0,0,0,0c0,0,0,0,0,0.1v0.6c0,0,0,0.1,0.1,0.1
	c0,0,0.1,0.1,0.1,0.1V82h-1.1v-1.4h0.2v1.1h0.6v0c0,0,0,0-0.1-0.1C231.1,81.6,231.1,81.6,231.1,81.5z M231.5,79.4l-0.1-0.1
	c0,0,0-0.1,0-0.1h0c0,0,0,0.1,0,0.1l-0.1,0.1c0,0-0.1,0-0.1,0h-0.5c-0.1,0-0.1,0-0.1-0.1l-0.1-0.1c0,0-0.1-0.1-0.1-0.1v-0.9
	c0,0,0-0.1,0.1-0.1l0.1-0.1c0,0,0.1-0.1,0.1-0.1h0.5c0,0,0.1,0,0.1,0l0.1,0.1c0,0,0,0.1,0,0.1h0c0,0,0-0.1,0-0.1l0.1-0.1
	c0,0,0.1,0,0.1,0h0.5c0.1,0,0.1,0,0.1,0.1c0,0,0,0,0.1,0.1c0,0,0.1,0.1,0.1,0.1v1c0,0,0,0.1-0.1,0.1c0,0,0,0.1-0.1,0.1
	c0,0-0.1,0.1-0.1,0.1h-0.5C231.6,79.4,231.5,79.4,231.5,79.4z M230.6,78.3V79c0,0,0,0.1,0,0.1s0,0,0,0c0,0,0,0,0,0c0,0,0,0,0.1,0
	h0.4c0,0,0.1,0,0.1,0c0,0,0,0,0,0l0.1-0.1c0,0,0,0,0,0c0,0,0,0,0-0.1v-0.5c0,0,0-0.1,0-0.1c0,0,0,0,0,0l-0.1-0.1c0,0,0,0,0,0
	c0,0,0,0-0.1,0h-0.4c0,0,0,0-0.1,0c0,0,0,0,0,0C230.6,78.2,230.6,78.2,230.6,78.3C230.6,78.2,230.6,78.3,230.6,78.3z M231.5,78.3
	v0.6c0,0,0,0,0,0.1s0,0,0,0l0.1,0.1c0,0,0,0,0,0c0,0,0,0,0.1,0h0.4c0,0,0,0,0.1,0c0,0,0,0,0,0c0,0,0,0,0,0c0,0,0,0,0-0.1v-0.7
	c0,0,0-0.1,0-0.1s0,0,0,0c0,0,0,0,0,0c0,0,0,0-0.1,0h-0.4c0,0-0.1,0-0.1,0c0,0,0,0,0,0l-0.1,0.1C231.5,78.3,231.5,78.3,231.5,78.3
	C231.5,78.3,231.5,78.3,231.5,78.3z M231.5,77.4l-0.1-0.1c0,0,0-0.1,0-0.1h0c0,0,0,0.1,0,0.1l-0.1,0.1c0,0-0.1,0-0.1,0h-0.5
	c-0.1,0-0.1,0-0.1-0.1l-0.1-0.1c0,0-0.1-0.1-0.1-0.1v-0.9c0,0,0-0.1,0.1-0.1l0.1-0.1c0,0,0.1-0.1,0.1-0.1h0.5c0,0,0.1,0,0.1,0
	l0.1,0.1c0,0,0,0.1,0,0.1h0c0,0,0-0.1,0-0.1l0.1-0.1c0,0,0.1,0,0.1,0h0.5c0.1,0,0.1,0,0.1,0.1c0,0,0,0,0.1,0.1c0,0,0.1,0.1,0.1,0.1
	v1c0,0,0,0.1-0.1,0.1c0,0,0,0.1-0.1,0.1c0,0-0.1,0.1-0.1,0.1h-0.5C231.6,77.4,231.5,77.4,231.5,77.4z M230.6,76.3V77
	c0,0,0,0.1,0,0.1s0,0,0,0c0,0,0,0,0,0c0,0,0,0,0.1,0h0.4c0,0,0.1,0,0.1,0c0,0,0,0,0,0l0.1-0.1c0,0,0,0,0,0c0,0,0,0,0-0.1v-0.5
	c0,0,0-0.1,0-0.1c0,0,0,0,0,0l-0.1-0.1c0,0,0,0,0,0c0,0,0,0-0.1,0h-0.4c0,0,0,0-0.1,0c0,0,0,0,0,0C230.6,76.2,230.6,76.2,230.6,76.3
	C230.6,76.3,230.6,76.3,230.6,76.3z M231.5,76.4v0.6c0,0,0,0,0,0.1s0,0,0,0l0.1,0.1c0,0,0,0,0,0c0,0,0,0,0.1,0h0.4c0,0,0,0,0.1,0
	c0,0,0,0,0,0c0,0,0,0,0,0c0,0,0,0,0-0.1v-0.7c0,0,0-0.1,0-0.1s0,0,0,0c0,0,0,0,0,0c0,0,0,0-0.1,0h-0.4c0,0-0.1,0-0.1,0c0,0,0,0,0,0
	l-0.1,0.1C231.5,76.3,231.5,76.3,231.5,76.4C231.5,76.3,231.5,76.3,231.5,76.4z M232.4,75.3l-1.8-0.9c0,0-0.1,0-0.1,0v1.2h-0.2v-1.5
	h0.2l1.8,1V75.3z M230.4,71.8v-0.2l2.3,1.5v0.2L230.4,71.8z M230.4,70.3V70l2.3,1.5v0.2L230.4,70.3z M230.8,67.7V68h-0.1
	c0,0,0,0-0.1,0c0,0,0,0,0,0c0,0,0,0,0,0c0,0,0,0,0,0.1v0.7c0,0,0,0.1,0,0.1c0,0,0,0,0,0c0,0,0,0,0,0c0,0,0,0,0.1,0h0.6v0l0,0
	c-0.1-0.1-0.1-0.1-0.1-0.2V68c0,0,0-0.1,0.1-0.1l0.1-0.1c0,0,0.1-0.1,0.1-0.1h0.7c0.1,0,0.1,0,0.1,0.1l0.1,0.1c0,0,0.1,0.1,0.1,0.1
	v0.9c0,0,0,0.1-0.1,0.1l-0.1,0.1c0,0-0.1,0.1-0.1,0.1h-1.5c-0.1,0-0.1,0-0.1-0.1l-0.1-0.1c0,0-0.1-0.1-0.1-0.1V68c0,0,0-0.1,0.1-0.1
	l0.1-0.1c0,0,0.1-0.1,0.1-0.1H230.8z M232.1,67.9h-0.6c0,0,0,0-0.1,0c0,0,0,0,0,0s0,0,0,0c0,0,0,0,0,0.1v0.6c0,0,0,0.1,0,0.1
	s0,0,0,0.1c0,0,0.1,0.1,0.1,0.1h0.6c0,0,0,0,0.1,0c0,0,0,0,0,0c0,0,0,0,0,0c0,0,0,0,0-0.1v-0.7c0,0,0-0.1,0-0.1S232.2,68,232.1,67.9
	C232.2,68,232.2,67.9,232.1,67.9C232.1,67.9,232.1,67.9,232.1,67.9z M231.4,66.1l0.1-0.1c0,0,0,0,0.1-0.1c0,0,0,0,0.1,0h0.5
	c0,0,0.1,0,0.1,0c0,0,0,0,0.1,0l0.1,0.1c0,0,0.1,0.1,0.1,0.1V67c0,0,0,0.1-0.1,0.1l-0.1,0.1c0,0-0.1,0.1-0.1,0.1H232V67h0.1
	c0,0,0,0,0.1,0c0,0,0,0,0,0c0,0,0,0,0,0s0,0,0-0.1v-0.6c0,0,0-0.1,0-0.1s0,0,0,0c0,0,0,0,0,0c0,0,0,0-0.1,0h-0.4c0,0-0.1,0-0.1,0.1
	l0,0c0,0,0,0,0,0.1c0,0,0,0,0,0.1v0.5h-0.2v-0.4c0,0,0-0.1,0-0.1c0,0,0,0,0-0.1l0,0c0,0,0,0-0.1-0.1c0,0,0,0-0.1,0h-0.4
	c0,0,0,0-0.1,0c0,0,0,0,0,0c0,0,0,0,0,0s0,0,0,0.1v0.5c0,0,0,0.1,0,0.1s0,0,0,0c0,0,0,0,0,0c0,0,0,0,0.1,0h0.1v0.2h-0.1
	c-0.1,0-0.1,0-0.1-0.1l-0.1-0.1c0,0-0.1-0.1-0.1-0.1v-0.7c0,0,0-0.1,0.1-0.1l0.1-0.1c0,0,0.1-0.1,0.1-0.1h0.5c0,0,0.1,0,0.1,0
	c0,0,0,0,0,0L231.4,66.1C231.3,66.1,231.3,66.1,231.4,66.1L231.4,66.1C231.3,66.1,231.4,66.1,231.4,66.1z M232,65.4v-0.2h0.1
	c0,0,0,0,0.1,0s0,0,0,0c0,0,0,0,0,0c0,0,0,0,0-0.1v-0.7c0,0,0-0.1,0-0.1s0,0,0,0c0,0,0,0,0,0s0,0-0.1,0h-0.6v0l0,0
	c0.1,0.1,0.1,0.1,0.1,0.2v0.8c0,0,0,0.1-0.1,0.1l-0.1,0.1c0,0-0.1,0.1-0.1,0.1h-0.7c-0.1,0-0.1,0-0.1-0.1l-0.1-0.1
	c0,0-0.1-0.1-0.1-0.1v-0.9c0,0,0-0.1,0.1-0.1l0.1-0.1c0,0,0.1-0.1,0.1-0.1h1.5c0.1,0,0.1,0,0.1,0.1l0.1,0.1c0,0,0.1,0.1,0.1,0.1v0.9
	c0,0,0,0.1-0.1,0.1l-0.1,0.1c0,0-0.1,0.1-0.1,0.1H232z M230.7,65.2h0.6c0,0,0,0,0.1,0c0,0,0,0,0,0s0,0,0,0c0,0,0,0,0-0.1v-0.6
	c0,0,0-0.1,0-0.1c0,0,0,0,0-0.1c0,0-0.1-0.1-0.1-0.1h-0.6c0,0,0,0-0.1,0c0,0,0,0,0,0c0,0,0,0,0,0s0,0,0,0.1V65c0,0,0,0.1,0,0.1
	C230.6,65.1,230.6,65.1,230.7,65.2C230.6,65.1,230.6,65.2,230.7,65.2C230.7,65.2,230.7,65.2,230.7,65.2z"/>
<path id="colorstyle:Base_00000031190871026790756530000017460350628710482599_" fill="#396173" d="M25.5,1.3c0,0-14.7,0-14.7,0
	c-1.2,0-2.5-0.1-3.6,0.1C3.7,1.8,0.9,5.1,1,8.6C1,8.6,0.6,38,0.6,38S0.1,8.6,0.1,8.6C0,4.7,3.1,1,7,0.4c1.3-0.2,2.5-0.1,3.7-0.1
	l14.7,0C25.5,0.3,25.5,1.3,25.5,1.3L25.5,1.3z M210.9,0.3v1c0,0,14.7,0,14.7,0c1.2,0,2.5-0.1,3.6,0.1c3.5,0.5,6.2,3.8,6.2,7.3
	l0.4,29.4c0,0,0.4-29.4,0.4-29.4c-0.2-6-5.1-8.8-10.7-8.3L210.9,0.3L210.9,0.3z M201,0.3H35.3v1H201V0.3z M25.5,118.9c0,0,0-1,0-1
	s-16.5,0-16.5,0c-4,0.4-7.8-2.8-7.9-6.9C1,110,0.6,76.2,0.6,73.9c0,2.2-0.5,36.1-0.4,37.2c0.1,4.5,4.4,8.1,8.8,7.7L25.5,118.9
	L25.5,118.9z M210.9,117.9v1c0,0,16.5,0,16.5,0c4.4,0.3,8.6-3.3,8.8-7.7c0.1-1.1-0.4-34.8-0.4-37.1c0,0-0.4,33-0.4,33
	c-0.1,2.7,0.3,5.5-1.3,7.7c-1.5,2.2-4,3.4-6.7,3.3C227.3,117.9,210.9,117.9,210.9,117.9L210.9,117.9z M201,117.9H35.3v1H201V117.9z"
	/>
</svg>
