<?xml version="1.0" encoding="utf-8"?>
<!-- Generator: Adobe Illustrator 26.0.1, SVG Export Plug-In . SVG Version: 6.00 Build 0)  -->
<svg version="1.1" baseProfile="tiny" id="Layer_1" xmlns="http://www.w3.org/2000/svg" xmlns:xlink="http://www.w3.org/1999/xlink"
	 x="0px" y="0px" viewBox="0 0 1920 1080" overflow="visible" xml:space="preserve">
<g>
	<g>
		<path fill="none" stroke="#B2240D" stroke-width="2" stroke-miterlimit="10" d="M385.9,503.4h-27.3V351.1l-27.3-8.9h54.7v35.8
			l54.7-17.9v-26.9c0-4.9-2.7-9.1-8-12.6c-5.3-3.5-11.8-5.3-19.3-5.3h-82c-7.5,0-14,1.8-19.3,5.3c-5.4,3.5-8,7.7-8,12.6v179
			c1.5,4.4,4.5,8.5,9.1,12.3c4.6,3.8,10.7,5.6,18.2,5.6h82c7.5,0,14-1.8,19.3-5.3c5.3-3.5,8-7.7,8-12.6v-44.8l-54.7,17.9V503.4
			L385.9,503.4z M540.9,503.4h-27.3V351.1l-27.4-8.9h54.7V503.4L540.9,503.4z M587.6,320.6c-5.4-3.5-11.8-5.3-19.3-5.3h-82
			c-7.5,0-14,1.8-19.3,5.3c-5.3,3.5-8,7.7-8,12.6v179c1.5,4.4,4.5,8.5,9.1,12.3c4.6,3.8,10.7,5.6,18.2,5.6h82c7.5,0,14-1.8,19.3-5.3
			c5.3-3.5,8-7.7,8-12.6v-179C595.6,328.3,592.9,324.1,587.6,320.6L587.6,320.6z M695.9,503.4h-27.4V315.3h-63.8l9.1,9v188
			c1.5,4.4,4.5,8.5,9.1,12.3c4.6,3.8,10.7,5.6,18.2,5.6h82c7.5,0,14-1.8,19.3-5.3c5.3-3.5,8-7.7,8-12.6V315.3h-54.7V503.4
			L695.9,503.4z M897.6,524.8c5.3-3.5,8-7.7,8-12.6V386.9l-109.4,35.8l27.4-17.9v-62.7h27.3V369l54.7-17.9v-17.9
			c0-4.9-2.7-9.1-8-12.6c-5.3-3.5-11.8-5.3-19.3-5.3H759.7l9.1,9v134.3l109.4-35.8l-27.4,17.9v62.7h-27.3v-26.9l-54.7,17.9v17.9
			c0,4.9,2.7,9.1,8,12.6c5.3,3.5,11.8,5.3,19.3,5.3h82C885.8,530.1,892.2,528.3,897.6,524.8L897.6,524.8z M978.5,315.3h-63.8l9.1,9
			v205.9h54.7V315.3L978.5,315.3z M1051.4,351.1l-27.4-8.9h54.7v188h54.7V333.2c0-4.9-2.7-9.1-8-12.6c-5.3-3.5-11.8-5.3-19.3-5.3
			H987.6l9.1,9v205.9h54.7V351.1L1051.4,351.1z"/>
		<path fill="none" stroke="#B2240D" stroke-width="2" stroke-miterlimit="10" d="M378.6,741.8h-24.9V600.6l-24.9-8.3h49.8v33.2
			l49.8-16.6V584c0-4.5-2.4-8.4-7.3-11.7c-4.9-3.3-10.7-4.9-17.6-4.9h-74.7c-6.9,0-12.7,1.6-17.6,4.9c-4.9,3.3-7.3,7.2-7.3,11.7V750
			c1.3,4.1,4.1,7.9,8.3,11.4c4.2,3.5,9.7,5.2,16.6,5.2h74.7c6.9,0,12.7-1.6,17.6-4.9c4.9-3.3,7.3-7.2,7.3-11.7v-41.5l-49.8,16.6
			V741.8L378.6,741.8z M503,644.3l58.1-18.7V584c0-4.5-1.9-8.1-5.7-10.6c-3.8-2.5-7.4-4.3-10.9-5.1v-0.8H436.6l8.3,8.3v190.8h49.8
			v-84.5l24.9-8.3V768h49.8V633.8l-74.7,22.6v-64h16.6v37.2L503,644.3L503,644.3z M660.6,741.8h-24.9V600.6l-24.9-8.3h49.8V741.8
			L660.6,741.8z M703.1,572.3c-4.9-3.3-10.7-4.9-17.6-4.9h-74.7c-6.9,0-12.7,1.6-17.6,4.9c-4.9,3.3-7.3,7.2-7.3,11.7V750
			c1.3,4.1,4.1,7.9,8.3,11.4c4.2,3.5,9.7,5.2,16.6,5.2h74.7c6.9,0,12.7-1.6,17.6-4.9c4.9-3.3,7.3-7.2,7.3-11.7V584
			C710.4,579.5,708,575.6,703.1,572.3L703.1,572.3z M801.7,766.5l124.4-41.5V567.4h-49.8v149.3l-24.9,8.3V567.4h-49.8v149.3
			l-24.9,8.3V567.4h-58.1l8.3,8.3v190.8l74.7-24.9V766.5L801.7,766.5z M1126.2,761.6c4.9-3.3,7.3-7.2,7.3-11.7V633.8l-99.6,33.2
			l24.9-16.6v-58.1h24.9v24.9l49.8-16.6V584c0-4.5-2.4-8.4-7.3-11.7c-4.9-3.3-10.7-4.9-17.6-4.9h-107.8l8.3,8.3v124.4l99.6-33.2
			l-24.9,16.6v58.1h-24.9v-24.9l-49.8,16.6V750c0,4.5,2.4,8.4,7.3,11.7c4.9,3.3,10.7,4.9,17.6,4.9h74.7
			C1115.5,766.5,1121.3,764.9,1126.2,761.6L1126.2,761.6z"/>
	</g>
	<polygon fill="none" stroke="#B2240D" stroke-width="2" stroke-miterlimit="10" points="940.9,649.7 990.7,633.1 990.7,566.8 
		940.9,566.8 940.9,608.2 965.8,616.5 940.9,624.8 940.9,649.7 	"/>
</g>
</svg>
