<?xml version="1.0" encoding="utf-8"?>
<!-- Generator: Adobe Illustrator 26.0.1, SVG Export Plug-In . SVG Version: 6.00 Build 0)  -->
<svg version="1.1" baseProfile="tiny" id="Layer_1" xmlns="http://www.w3.org/2000/svg" xmlns:xlink="http://www.w3.org/1999/xlink"
	 x="0px" y="0px" viewBox="0 0 1920 1080" overflow="visible" xml:space="preserve">
<g>
	<g>
		<path fill="#FD4821" d="M968.7,284.9c9.5-2.2,18.3-6.3,25.9-12.1c17.1-13,36.7-29.1,36.7-29.1l67.7-68.6l-51.9,23.7l98.1-89.4
			l-72.4,30.1l11.7-27.1l-32.8,17.8l26.6-51.6l-41.7,52.6c0,0-43.5,52.7-64.4,65.6v-0.1c-11.1,6.5-23.4,6.5-27.7-0.7
			c-3.7-9.1-10.4-20.2-20.2-28.3c-6.8-6.5-15.8-10.4-25-10.6c-0.5,0-0.9-0.1-1.4-0.2l-0.1,0.2c-3.3,0.1-6.6,0.6-9.8,1.6
			c-11.8,3.9-19.8,13.6-22.2,25.2c-11.2-0.7-30.2,2.4-49.6,24.3c0,0-0.1,1.6,16.8-4.4c9.5-3.4,16.7-4.9,22.7-4.3
			c13.2,0.8,23.8,7.7,24.3,16.2c6.9,32.3,27.6,60.2,56.5,68.4l2.9,28.3h-21.6l9.1,9v205.9h54.7V312.5h-16.7L968.7,284.9z
			 M890.8,190.5c-3.9,1.3-8.3-1-9.8-5.1c-1.5-4.1,0.5-8.4,4.4-9.7c3.9-1.3,8.3,1,9.7,5.1C896.7,184.8,894.7,189.2,890.8,190.5z
			 M946.3,286.2c2.5,0.3,5,0.4,7.6,0.4c1.7,0,3.4-0.1,5.1-0.2l2.6,26.1h-19L946.3,286.2z"/>
		<path fill="#FD4821" d="M590.6,317.8c-5.4-3.5-11.8-5.3-19.3-5.3h-82c-7.5,0-14,1.8-19.3,5.3c-5.3,3.5-8,7.7-8,12.6v179
			c1.5,4.4,4.5,8.5,9.1,12.3c4.6,3.8,10.7,5.6,18.2,5.6h82c7.5,0,14-1.8,19.3-5.3c5.3-3.5,8-7.7,8-12.6v-179
			C598.6,325.5,595.9,321.3,590.6,317.8z M543.9,500.7h-27.3V348.3l-27.4-8.9h54.7V500.7z"/>
		<path fill="#FD4821" d="M435.6,317.8c-5.3-3.5-11.8-5.3-19.3-5.3h-82c-7.5,0-14,1.8-19.3,5.3c-5.4,3.5-8,7.7-8,12.6v179
			c1.5,4.4,4.5,8.5,9.1,12.3c4.6,3.8,10.7,5.6,18.2,5.6h82c7.5,0,14-1.8,19.3-5.3c5.3-3.5,8-7.7,8-12.6v-44.8l-54.7,17.9v18.1h-27.3
			V348.3l-27.3-8.9h54.7v35.8l54.7-17.9v-26.9C443.6,325.5,441,321.3,435.6,317.8z"/>
		<path fill="#FD4821" d="M698.9,500.7h-27.4V312.5h-63.8l9.1,9v188c1.5,4.4,4.5,8.5,9.1,12.3c4.6,3.8,10.7,5.6,18.2,5.6h82
			c7.5,0,14-1.8,19.3-5.3c5.3-3.5,8-7.7,8-12.6V312.5h-54.7V500.7z"/>
		<path fill="#FD4821" d="M900.6,317.8c-5.3-3.5-11.8-5.3-19.3-5.3H762.7l9.1,9v134.3l109.4-35.8l-27.4,17.9v62.7h-27.3v-26.9
			l-54.7,17.9v17.9c0,4.9,2.7,9.1,8,12.6c5.3,3.5,11.8,5.3,19.3,5.3h82c7.5,0,14-1.8,19.3-5.3c5.3-3.5,8-7.7,8-12.6V384.1
			l-109.4,35.8l27.4-17.9v-62.7h27.3v26.9l54.7-17.9v-17.9C908.6,325.5,905.9,321.3,900.6,317.8z"/>
		<path fill="#FD4821" d="M1128.5,317.8c-5.3-3.5-11.8-5.3-19.3-5.3H990.6l9.1,9v205.9h54.7v-179l-27.4-8.9h54.7v188h54.7V330.4
			C1136.5,325.5,1133.8,321.3,1128.5,317.8z"/>
	</g>
	<path fill="#FD4821" d="M381.6,739.1h-24.9V597.9l-24.9-8.3h49.8v33.2l49.8-16.6v-24.9c0-4.5-2.4-8.4-7.3-11.7
		c-4.9-3.3-10.7-4.9-17.6-4.9h-74.7c-6.9,0-12.7,1.6-17.6,4.9c-4.9,3.3-7.3,7.2-7.3,11.7v165.9c1.3,4.1,4.1,7.9,8.3,11.4
		c4.2,3.5,9.7,5.2,16.6,5.2h74.7c6.9,0,12.7-1.6,17.6-4.9c4.9-3.3,7.3-7.2,7.3-11.7v-41.5l-49.8,16.6V739.1L381.6,739.1z M506,641.5
		l58.1-18.7v-41.5c0-4.5-1.9-8.1-5.7-10.6c-3.8-2.5-7.4-4.3-10.9-5.1v-0.8H439.6l8.3,8.3v190.8h49.8v-84.5l24.9-8.3v94.2h49.8V631
		l-74.7,22.6v-64h16.6v37.2L506,641.5L506,641.5z M663.6,739.1h-24.9V597.9l-24.9-8.3h49.8V739.1L663.6,739.1z M706.1,569.6
		c-4.9-3.3-10.7-4.9-17.6-4.9h-74.7c-6.9,0-12.7,1.6-17.6,4.9c-4.9,3.3-7.3,7.2-7.3,11.7v165.9c1.3,4.1,4.1,7.9,8.3,11.4
		c4.2,3.5,9.7,5.2,16.6,5.2h74.7c6.9,0,12.7-1.6,17.6-4.9c4.9-3.3,7.3-7.2,7.3-11.7V581.3C713.4,576.7,711,572.8,706.1,569.6
		L706.1,569.6z M804.7,763.8l124.4-41.5V564.7h-49.8V714l-24.9,8.3V564.7h-49.8V714l-24.9,8.3V564.7h-58.1l8.3,8.3v190.8l74.7-24.9
		V763.8L804.7,763.8z M1129.2,758.9c4.9-3.3,7.3-7.2,7.3-11.7V631l-99.6,33.2l24.9-16.6v-58.1h24.9v24.9l49.8-16.6v-16.6
		c0-4.5-2.4-8.4-7.3-11.7c-4.9-3.3-10.7-4.9-17.6-4.9h-107.8l8.3,8.3v124.4l99.6-33.2l-24.9,16.6v58.1h-24.9V714l-49.8,16.6v16.6
		c0,4.5,2.4,8.4,7.3,11.7c4.9,3.3,10.7,4.9,17.6,4.9h74.7C1118.5,763.8,1124.3,762.1,1129.2,758.9L1129.2,758.9z"/>
	<polygon fill="#FD4821" points="943.9,646.9 993.7,630.4 993.7,564 943.9,564 943.9,605.5 968.8,613.8 943.9,622.1 943.9,646.9 	
		"/>
	<path fill="#757477" d="M344.2,888.8h-12.4v-70.3l-12.4-4.1h24.9v16.5l24.9-8.3v-12.4c0-2.3-1.2-4.2-3.6-5.8
		c-2.4-1.6-5.4-2.4-8.8-2.4h-37.3c-3.4,0-6.4,0.8-8.8,2.4c-2.4,1.6-3.6,3.6-3.6,5.8v82.7c0.7,2,2,3.9,4.1,5.7
		c2.1,1.7,4.9,2.6,8.3,2.6h37.3c3.4,0,6.4-0.8,8.8-2.4c2.4-1.6,3.6-3.6,3.6-5.8v-20.7l-24.9,8.3V888.8L344.2,888.8z M414.6,888.8
		h-12.4v-86.9h-29l4.1,4.1v86.8c0.7,2,2,3.9,4.1,5.7c2.1,1.7,4.9,2.6,8.3,2.6H427c3.4,0,6.4-0.8,8.8-2.4c2.4-1.6,3.6-3.6,3.6-5.8
		v-90.9h-24.9V888.8L414.6,888.8z M506.2,898.7c2.4-1.6,3.6-3.6,3.6-5.8V835l-49.7,16.5l12.4-8.3v-28.9H485v12.4l24.9-8.3v-8.3
		c0-2.3-1.2-4.2-3.6-5.8c-2.4-1.6-5.4-2.4-8.8-2.4h-53.9l4.1,4.1v62l49.7-16.5l-12.4,8.3v28.9h-12.4v-12.4l-24.9,8.3v8.3
		c0,2.3,1.2,4.2,3.6,5.8c2.4,1.6,5.4,2.4,8.8,2.4h37.3C500.9,901.1,503.8,900.3,506.2,898.7L506.2,898.7z M563.8,818.4l-12.4-4.1
		h33.1v-12.4h-66.3v12.4h20.7v86.8h24.9V818.4L563.8,818.4z M630,888.8h-12.4v-70.3l-12.4-4.1H630V888.8L630,888.8z M651.3,804.4
		c-2.4-1.6-5.4-2.4-8.8-2.4h-37.3c-3.4,0-6.4,0.8-8.8,2.4c-2.4,1.6-3.6,3.6-3.6,5.8v82.7c0.7,2,2,3.9,4.1,5.7
		c2.1,1.7,4.9,2.6,8.3,2.6h37.3c3.4,0,6.4-0.8,8.8-2.4c2.4-1.6,3.6-3.6,3.6-5.8v-82.7C654.9,807.9,653.7,806,651.3,804.4
		L651.3,804.4z M700.5,901.1h24.9v-82.7l-12.4-4.1h24.9v86.8h24.9v-90.9c0-2.3-1.2-4.2-3.6-5.8c-2.4-1.6-5.4-2.4-8.8-2.4H659
		l4.1,4.1v95.1H688v-82.7l-12.4-4.1h24.9V901.1L700.5,901.1z M829.9,888.8h-12.4v-70.3l-12.4-4.1h24.9v16.5l24.9-8.3v-12.4
		c0-2.3-1.2-4.2-3.6-5.8c-2.4-1.6-5.4-2.4-8.8-2.4h-37.3c-3.4,0-6.4,0.8-8.8,2.4c-2.4,1.6-3.6,3.6-3.6,5.8v82.7c0.7,2,2,3.9,4.1,5.7
		c2.1,1.7,4.9,2.6,8.3,2.6h37.3c3.4,0,6.4-0.8,8.8-2.4c2.4-1.6,3.6-3.6,3.6-5.8v-20.7l-24.9,8.3V888.8L829.9,888.8z M892.1,840.2
		l29-9.3v-20.7c0-2.3-1-4-2.9-5.3c-1.9-1.3-3.7-2.1-5.4-2.6v-0.4h-53.9l4.1,4.1v95.1h24.9V859l12.4-4.1v47h24.9V835l-37.3,11.2
		v-31.9h8.3v18.5L892.1,840.2L892.1,840.2z M970.8,851.5l-12.4,4.1v-41.3h12.4V851.5L970.8,851.5z M992,804.4
		c-2.4-1.6-5.4-2.4-8.8-2.4h-53.9l4.1,4.1v95.1h24.9v-28.9h-12.4l24.9-8.3v37.2h24.9v-90.9C995.6,807.9,994.4,806,992,804.4
		L992,804.4z M1028.8,814.3h33.1v-12.4h-62.1l4.1,4.1v95.1h24.9v-41.3h-12.4l37.3-12.4V835l-24.9,8.3V814.3L1028.8,814.3z
		 M1115.8,818.4l-12.4-4.1h33.1v-12.4h-66.3v12.4h20.7v86.8h24.9V818.4L1115.8,818.4z"/>
</g>
</svg>
