<?xml version="1.0" encoding="utf-8"?>
<!-- Generator: Adobe Illustrator 26.0.1, SVG Export Plug-In . SVG Version: 6.00 Build 0)  -->
<svg version="1.1" baseProfile="tiny" id="Layer_1" xmlns="http://www.w3.org/2000/svg" xmlns:xlink="http://www.w3.org/1999/xlink"
	 x="0px" y="0px" viewBox="0 0 1920 1080" overflow="visible" xml:space="preserve">
<path fill="#329DC7" d="M1120,487.7H800c-11.2,0-20.4,9.1-20.4,20.4v63.8c0,11.2,9.1,20.4,20.4,20.4h301.2l39.2-39.2v-45
	C1140.4,496.9,1131.2,487.7,1120,487.7z"/>
<path id="Path_464_00000140007328200135337890000007085851353527993240_" fill="#329DC7" d="M1120.9,592.1h14.1
	c2.6,0,4.8-2.1,4.8-4.8l0,0v-14.1c0-2-1.7-3.7-3.7-3.7c-1,0-1.9,0.4-2.6,1.1l-15.2,15.2c-1.4,1.4-1.4,3.8,0,5.2
	C1119,591.7,1120,592.1,1120.9,592.1"/>
</svg>
