<?xml version="1.0" encoding="utf-8"?>
<!-- Generator: Adobe Illustrator 26.0.1, SVG Export Plug-In . SVG Version: 6.00 Build 0)  -->
<svg version="1.1" baseProfile="tiny" id="Layer_1" xmlns="http://www.w3.org/2000/svg" xmlns:xlink="http://www.w3.org/1999/xlink"
	 x="0px" y="0px" viewBox="0 0 1920 1080" overflow="visible" xml:space="preserve">
<g>
	<g>
		<path fill="none" stroke="#FFFFFF" stroke-width="2" stroke-miterlimit="10" d="M392.9,496.7h-27.3V344.3l-27.3-8.9h54.7v35.8
			l54.7-17.9v-26.9c0-4.9-2.7-9.1-8-12.6c-5.3-3.5-11.8-5.3-19.3-5.3h-82c-7.5,0-14,1.8-19.3,5.3c-5.4,3.5-8,7.7-8,12.6v179
			c1.5,4.4,4.5,8.5,9.1,12.3c4.6,3.8,10.7,5.6,18.2,5.6h82c7.5,0,14-1.8,19.3-5.3c5.3-3.5,8-7.7,8-12.6v-44.8l-54.7,17.9V496.7
			L392.9,496.7z M547.9,496.7h-27.3V344.3l-27.4-8.9h54.7V496.7L547.9,496.7z M594.6,313.8c-5.4-3.5-11.8-5.3-19.3-5.3h-82
			c-7.5,0-14,1.8-19.3,5.3c-5.3,3.5-8,7.7-8,12.6v179c1.5,4.4,4.5,8.5,9.1,12.3c4.6,3.8,10.7,5.6,18.2,5.6h82c7.5,0,14-1.8,19.3-5.3
			c5.3-3.5,8-7.7,8-12.6v-179C602.6,321.5,599.9,317.3,594.6,313.8L594.6,313.8z M702.9,496.7h-27.4V308.5h-63.8l9.1,9v188
			c1.5,4.4,4.5,8.5,9.1,12.3c4.6,3.8,10.7,5.6,18.2,5.6h82c7.5,0,14-1.8,19.3-5.3c5.3-3.5,8-7.7,8-12.6V308.5h-54.7V496.7
			L702.9,496.7z M904.6,518.1c5.3-3.5,8-7.7,8-12.6V380.1l-109.4,35.8l27.4-17.9v-62.7h27.3v26.9l54.7-17.9v-17.9
			c0-4.9-2.7-9.1-8-12.6c-5.3-3.5-11.8-5.3-19.3-5.3H766.7l9.1,9v134.3l109.4-35.8l-27.4,17.9v62.7h-27.3v-26.9l-54.7,17.9v17.9
			c0,4.9,2.7,9.1,8,12.6c5.3,3.5,11.8,5.3,19.3,5.3h82C892.8,523.3,899.2,521.6,904.6,518.1L904.6,518.1z M985.5,308.5h-63.8l9.1,9
			v205.9h54.7V308.5L985.5,308.5z M1058.4,344.3l-27.4-8.9h54.7v188h54.7V326.4c0-4.9-2.7-9.1-8-12.6c-5.3-3.5-11.8-5.3-19.3-5.3
			H994.6l9.1,9v205.9h54.7V344.3L1058.4,344.3z"/>
		<path fill="none" stroke="#FFFFFF" stroke-width="2" stroke-miterlimit="10" d="M385.6,735.1h-24.9V593.9l-24.9-8.3h49.8v33.2
			l49.8-16.6v-24.9c0-4.5-2.4-8.4-7.3-11.7c-4.9-3.3-10.7-4.9-17.6-4.9h-74.7c-6.9,0-12.7,1.6-17.6,4.9c-4.9,3.3-7.3,7.2-7.3,11.7
			v165.9c1.3,4.1,4.1,7.9,8.3,11.4c4.2,3.5,9.7,5.2,16.6,5.2h74.7c6.9,0,12.7-1.6,17.6-4.9c4.9-3.3,7.3-7.2,7.3-11.7v-41.5
			l-49.8,16.6V735.1L385.6,735.1z M510,637.5l58.1-18.7v-41.5c0-4.5-1.9-8.1-5.7-10.6c-3.8-2.5-7.4-4.3-10.9-5.1v-0.8H443.6l8.3,8.3
			v190.8h49.8v-84.5l24.9-8.3v94.2h49.8V627l-74.7,22.6v-64h16.6v37.2L510,637.5L510,637.5z M667.6,735.1h-24.9V593.9l-24.9-8.3
			h49.8V735.1L667.6,735.1z M710.1,565.6c-4.9-3.3-10.7-4.9-17.6-4.9h-74.7c-6.9,0-12.7,1.6-17.6,4.9c-4.9,3.3-7.3,7.2-7.3,11.7
			v165.9c1.3,4.1,4.1,7.9,8.3,11.4c4.2,3.5,9.7,5.2,16.6,5.2h74.7c6.9,0,12.7-1.6,17.6-4.9c4.9-3.3,7.3-7.2,7.3-11.7V577.3
			C717.4,572.7,715,568.8,710.1,565.6L710.1,565.6z M808.7,759.8l124.4-41.5V560.7h-49.8V710l-24.9,8.3V560.7h-49.8V710l-24.9,8.3
			V560.7h-58.1l8.3,8.3v190.8l74.7-24.9V759.8L808.7,759.8z M1133.2,754.9c4.9-3.3,7.3-7.2,7.3-11.7V627l-99.6,33.2l24.9-16.6v-58.1
			h24.9v24.9l49.8-16.6v-16.6c0-4.5-2.4-8.4-7.3-11.7c-4.9-3.3-10.7-4.9-17.6-4.9h-107.8l8.3,8.3v124.4l99.6-33.2l-24.9,16.6v58.1
			h-24.9V710l-49.8,16.6v16.6c0,4.5,2.4,8.4,7.3,11.7c4.9,3.3,10.7,4.9,17.6,4.9h74.7C1122.5,759.8,1128.3,758.1,1133.2,754.9
			L1133.2,754.9z"/>
	</g>
	<polygon fill="none" stroke="#FFFFFF" stroke-width="2" stroke-miterlimit="10" points="947.9,642.9 997.7,626.4 997.7,560 
		947.9,560 947.9,601.5 972.8,609.8 947.9,618.1 947.9,642.9 	"/>
</g>
</svg>
