<?xml version="1.0" encoding="utf-8"?>
<!-- Generator: Adobe Illustrator 25.4.2, SVG Export Plug-In . SVG Version: 6.00 Build 0)  -->
<svg version="1.1" baseProfile="tiny" id="Layer_1" xmlns="http://www.w3.org/2000/svg" xmlns:xlink="http://www.w3.org/1999/xlink"
	 x="0px" y="0px" viewBox="0 0 425.7 21.1" overflow="visible" xml:space="preserve">
<path fill="#FFFFFF" d="M404.2,10.5C404.5,4.6,409.3,0,415.2,0l0,0c5.8,0,10.5,4.7,10.5,10.5l0,0c0,5.8-4.7,10.5-10.5,10.5l0,0
	C409.3,21.1,404.5,16.4,404.2,10.5z"/>
<path fill="#FFFFFF" d="M354.1,10.5c0-5.7,4.5-10.3,10.1-10.5l0,0c5.8,0,10.5,4.7,10.5,10.5l0,0c0,5.8-4.7,10.5-10.5,10.5l0,0
	c-5.8,0-10.5-4.7-10.5-10.5H354.1z"/>
<path fill="#FFFFFF" d="M303.6,10.5c0-5.8,4.7-10.5,10.5-10.5l0,0c5.6,0.2,10.1,4.9,10.1,10.5l0,0c0,5.7-4.5,10.3-10.1,10.5l0,0
	c-5.8,0.2-10.7-4.3-10.9-10.1c0-0.1,0-0.3,0-0.4H303.6z"/>
<path fill="#FFFFFF" d="M253.1,10.5c0-5.8,4.7-10.5,10.5-10.5l0,0c5.8,0,10.5,4.7,10.5,10.5l0,0c0,5.8-4.7,10.5-10.5,10.5l0,0
	c-5.8,0.2-10.7-4.3-10.9-10.1c0-0.1,0-0.3,0-0.4H253.1z"/>
<path fill="#FFFFFF" d="M202.1,10.5C202.3,4.6,207.2,0,213.1,0l0,0c5.8,0,10.5,4.7,10.5,10.5l0,0c0,5.8-4.7,10.5-10.5,10.5l0,0
	c-6,0.2-11.1-4.5-11.4-10.5c0,0,0,0,0,0H202.1z"/>
<path fill="#FFFFFF" d="M151.6,10.5c0-5.7,4.5-10.3,10.1-10.5l0,0c5.9,0,10.7,4.6,10.9,10.5l0,0c-0.2,5.9-5.1,10.5-10.9,10.5l0,0
	C156,20.8,151.6,16.2,151.6,10.5z"/>
<path fill="#FFFFFF" d="M101.1,10.5c0-5.7,4.5-10.3,10.1-10.5l0,0c5.8,0,10.5,4.7,10.5,10.5l0,0c0,5.8-4.7,10.5-10.5,10.5l0,0
	C105.5,20.8,101.1,16.2,101.1,10.5z"/>
<path fill="#FFFFFF" d="M50.5,10.5C50.5,4.7,55.2,0,61.1,0l0,0c5.6,0.2,10.1,4.9,10.1,10.5l0,0c0,5.7-4.5,10.3-10.1,10.5l0,0
	C55.2,21.1,50.5,16.3,50.5,10.5z"/>
<path fill="#FFFFFF" d="M0,10.5C0,4.7,4.7,0,10.5,0l0,0c5.8,0,10.5,4.7,10.5,10.5l0,0c0,5.8-4.7,10.5-10.5,10.5l0,0
	C4.7,21.1,0,16.3,0,10.5C0,10.5,0,10.5,0,10.5L0,10.5z"/>
</svg>
