<?xml version="1.0" encoding="utf-8"?>
<!-- Generator: Adobe Illustrator 25.4.2, SVG Export Plug-In . SVG Version: 6.00 Build 0)  -->
<svg version="1.1" baseProfile="tiny" id="Layer_1" xmlns="http://www.w3.org/2000/svg" xmlns:xlink="http://www.w3.org/1999/xlink"
	 x="0px" y="0px" viewBox="0 0 36.6 164" overflow="visible" xml:space="preserve">
<path fill="#FFFFFF" d="M36.6,146.4c0,9.7-7.8,17.5-17.5,17.6c-0.3,0-0.5,0-0.8,0c-9.8,0-17.9-7.7-18.3-17.5
	c0.1-6.4,3.6-12.2,9.2-15.3V32.8C4.2,29.5,0.9,24.2,0,18.3C0,8.5,7.7,0.4,17.5,0l0,0c9.2,0.4,16.8,7.6,17.5,16.8
	c0,6.2-3.2,11.9-8.4,15.3v99.9C32.6,134.4,36.5,140,36.6,146.4z"/>
</svg>
