<?xml version="1.0" encoding="utf-8"?>
<!-- Generator: Adobe Illustrator 25.4.2, SVG Export Plug-In . SVG Version: 6.00 Build 0)  -->
<svg version="1.1" baseProfile="tiny" id="Layer_1" xmlns="http://www.w3.org/2000/svg" xmlns:xlink="http://www.w3.org/1999/xlink"
	 x="0px" y="0px" viewBox="0 0 186.5 100" overflow="visible" xml:space="preserve">
<path fill="#FFFFFF" d="M5.4,100c-1.4,0-2.7-0.5-3.7-1.5c-1-1-1.6-2.3-1.7-3.8L0,0h1.2v94.6c0,1.2,0.5,2.2,1.3,3
	c0.8,0.7,1.8,1.1,2.8,1.1c0,0,0.1,0,0.1,0h175.7c2.3,0,4.1-1.9,4.1-4.1V0h1.2v94.6c0,3-2.4,5.4-5.4,5.4H5.5C5.5,100,5.4,100,5.4,100
	z"/>
</svg>
