<?xml version="1.0" encoding="utf-8"?>
<!-- Generator: Adobe Illustrator 25.4.2, SVG Export Plug-In . SVG Version: 6.00 Build 0)  -->
<svg version="1.1" baseProfile="tiny" id="Layer_1" xmlns="http://www.w3.org/2000/svg" xmlns:xlink="http://www.w3.org/1999/xlink"
	 x="0px" y="0px" viewBox="0 0 66.3 268.4" overflow="visible" xml:space="preserve">
<path fill="#FFFFFF" d="M66.3,8.2V62c0,4.3-3.5,7.7-7.7,7.8c-0.1,0-0.3,0-0.4,0H43v161.7h2.6c2.4,0,4.3,1.9,4.3,4.3v28.4
	c0,2.4-1.9,4.3-4.3,4.3H19.8c-2.4,0-4.3-1.9-4.3-4.3v-28.4c0-2.4,1.9-4.3,4.3-4.3h2.6V69.7H8.2c-4.3,0.2-7.9-3-8.2-7.3
	c0-0.1,0-0.3,0-0.4V8.2C-0.2,3.9,3,0.3,7.3,0c0.3,0,0.6,0,0.9,0h49.9c4.3-0.2,7.9,3,8.2,7.3C66.3,7.6,66.3,7.9,66.3,8.2z"/>
</svg>
