<?xml version="1.0" encoding="utf-8"?>
<!-- Generator: Adobe Illustrator 27.8.0, SVG Export Plug-In . SVG Version: 6.00 Build 0)  -->
<svg version="1.1" baseProfile="tiny" id="Layer_1" xmlns="http://www.w3.org/2000/svg" xmlns:xlink="http://www.w3.org/1999/xlink"
	 x="0px" y="0px" viewBox="0 0 1685.2 123.4" overflow="visible" xml:space="preserve">
<path fill="#6CB8C7" d="M751,32.9L751,32.9h20.8H751z"/>
<path fill="#6CB8C7" d="M1534.1,49.7c-6,0-12-0.6-17.9-1.7l-183.4-35.5c-4.7,8.5-13.9,14.3-24.3,14.3H473V33l523.6-0.1l11.8,19.3
	H1138c2.2,0,4.2-1.1,5.4-2.9l6.5-9.8c2-3,4.7-5.2,7.9-6.6h6.6l165.5-0.1l139.7,27.6c6.2,1.2,12.5,1.9,18.9,1.9h122.6l16.4-11.8
	L1534.1,49.7z"/>
<path fill="#6CB8C7" d="M1169,31.2h-4.8c0.3,0,0.6,0,0.9,0H1169z"/>
<polygon id="opacity:30_00000134946978927875220510000017211969846057055112_" fill="#FFFFFF" points="1655.2,50.5 1639.1,62.3 
	1621.7,62.3 1637.9,50.5 "/>
<polygon id="opacity:18" fill="#FFFFFF" points="1683.5,50.8 1664.7,62.3 1650,62.3 1666,50.7 "/>
<path fill="#6CB8C7" d="M1169,31.2h-4.8c0.3,0,0.6,0,0.9,0H1169z"/>
<path id="opacity:11" fill="#FFFFFF" d="M1683.5,35.5h-153.9c-5.5,0-11-0.5-16.4-1.6L1363.9,5.4c-0.9-0.2-1.5-1.1-1.4-2
	c0.2-0.9,1.1-1.5,2-1.4l149.3,28.5c5.2,1,10.5,1.5,15.8,1.5h153.9c1,0,1.7,0.8,1.7,1.7S1684.4,35.5,1683.5,35.5z"/>
<path fill="#6CB8C7" d="M473,26.8V33l-122-0.1L188.1,33c-11.7,0.9-33.7,4.3-56.1,18.9c-36,23.5-47.5,59.4-50.4,69.6
	c0-5.4,0-10.7,0-16.1c2.5-10.1,11.9-42.7,43.5-67.4c28.3-22.1,58-25.2,68.9-25.8c51.8-0.1,103.7-0.1,155.5-0.2h2.1
	c4.8,8.8,14.1,14.8,24.8,14.8H473z"/>
</svg>
