<?xml version="1.0" encoding="utf-8"?>
<!-- Generator: Adobe Illustrator 27.2.0, SVG Export Plug-In . SVG Version: 6.00 Build 0)  -->
<svg version="1.1" baseProfile="tiny" id="Layer_1" xmlns="http://www.w3.org/2000/svg" xmlns:xlink="http://www.w3.org/1999/xlink"
	 x="0px" y="0px" viewBox="0 0 23.9 166.6" overflow="visible" xml:space="preserve">
<g display="none">
	<line display="inline" fill="none" stroke="#FFFFFF" stroke-miterlimit="10" x1="23.4" y1="165.5" x2="23.4" y2="163.3"/>
	<g display="inline">
		<line fill="none" stroke="#FFFFFF" stroke-miterlimit="10" x1="23.4" y1="2.7" x2="23.4" y2="0.5"/>
	</g>
	<g display="inline">
		<line fill="none" stroke="#FFFFFF" stroke-miterlimit="10" x1="23.3" y1="163.8" x2="23.3" y2="166.1"/>
	</g>
	<path display="inline" fill="none" stroke="#FFFFFF" stroke-miterlimit="10" d="M7.1,0.5H6.3c-2,0-3.6,1.6-3.6,3.6v3.3"/>
	<polyline display="inline" fill="none" stroke="#FFFFFF" stroke-miterlimit="10" points="2.8,11.6 2.8,51.2 0.1,51.2 	"/>
	<line display="inline" fill="none" stroke="#FFFFFF" stroke-miterlimit="10" x1="23.3" y1="163.8" x2="23.3" y2="166.1"/>
	<path display="inline" fill="none" stroke="#FFFFFF" stroke-miterlimit="10" d="M6.9,166.1H6.2c-2,0-3.6-1.6-3.6-3.6v-3.3"/>
	<polyline display="inline" fill="none" stroke="#FFFFFF" stroke-miterlimit="10" points="2.7,154.9 2.7,108.4 0,108.4 	"/>
</g>
<g>
	<line fill="none" stroke="#FFFFFF" stroke-miterlimit="10" x1="20.1" y1="0.5" x2="10.5" y2="0.5"/>
	<line fill="none" stroke="#FFFFFF" stroke-miterlimit="10" x1="20" y1="166.1" x2="10.4" y2="166.1"/>
	<line fill="none" stroke="#FFFFFF" stroke-miterlimit="10" x1="2.8" y1="51.2" x2="2.8" y2="108.4"/>
</g>
</svg>
