<?xml version="1.0" encoding="utf-8"?>
<!-- Generator: Adobe Illustrator 19.1.1, SVG Export Plug-In . SVG Version: 6.00 Build 0)  -->
<svg version="1.1" baseProfile="tiny" xmlns="http://www.w3.org/2000/svg" xmlns:xlink="http://www.w3.org/1999/xlink" x="0px"
	 y="0px" viewBox="0 0 1853 897" xml:space="preserve">
<g id="Layer_3" display="none">
	<rect y="-21.6" display="inline" width="1853" height="1013.6"/>
</g>
<g id="Layer_1">
	<path id="Line-2-Copy_1_" fill="none" stroke="#FFFFFF" stroke-width="4" d="M936.5,871.6l12.5,12.5l197,1
		c4.5,0.1,8.9-1.6,12.3-4.6l105-105c3.4-3.1,8-4.8,12.6-4.6l225.3,0c8.2,0,15.1,6,16.3,14.1l14.1,100.9c2,5.3,6.9,8.9,12.6,9.2
		l148.2,0.1l-0.3,0c8.6,0.4,16.3-5.4,18.2-13.9l139.8-607.9c0.9-4,0.9-8.1,0-12.1l-55.3-238.9c-1.7-7.4-8.1-12.8-15.7-13.2
		c-104-5.9-826-36.3-1705-0.3C66.5,9.3,60,14.7,58.3,22.2L2.7,261.4c-0.9,4-0.9,8.1,0,12.1l139.8,607.8c2,8.5,9.7,14.3,18.4,13.8
		l148.2-0.1c5.7-0.3,10.6-3.9,12.6-9.2l14.1-100.9c1.1-8.1,8.1-14.1,16.3-14.1l225.3,0c4.6-0.2,9.2,1.5,12.6,4.6l105,105
		c3.4,3,7.8,4.7,12.3,4.6l197-1l12.5-12.5"/>
</g>
<g id="Layer_2" display="none">
	
		<text transform="matrix(1 0 0 1 346.1846 409.8271)" display="inline" fill="#CCF6FF" font-family="'BlenderPro-Medium'" font-size="28.611px">248</text>
	<g display="inline">
		<text transform="matrix(1 0 0 1 335.4546 440.2266)" fill="#CCF6FF" font-family="'BlenderPro-Medium'" font-size="17.8819px">VEL M/S</text>
	</g>
	
		<text transform="matrix(1 0 0 1 362.2773 661.9619)" display="inline" fill="#CCF6FF" font-family="'BlenderPro-Medium'" font-size="21.4583px">H</text>
	
		<text transform="matrix(1 0 0 1 374.1865 661.9619)" display="inline" fill="#CCF6FF" font-family="'BlenderPro-Medium'" font-size="21.4583px">O</text>
	
		<text transform="matrix(1 0 0 1 386.332 661.9619)" display="inline" fill="#CCF6FF" font-family="'BlenderPro-Medium'" font-size="21.4583px">V</text>
	
		<text transform="matrix(1 0 0 1 365.854 170.21)" display="inline" fill="#CCF6FF" font-family="'BlenderPro-Medium'" font-size="21.4583px">1248</text>
	<g display="inline">
		<text transform="matrix(1 0 0 1 369.4302 146.9629)" fill="#CCF6FF" font-family="'BlenderPro-Medium'" font-size="17.8819px">TERM</text>
	</g>
	
		<text transform="matrix(1 0 0 1 151.4897 413.4033)" display="inline" fill="#CCF6FF" font-family="'BlenderPro-Medium'" font-size="32.1874px">062</text>
	
		<text transform="matrix(1 0 0 1 201.5557 490.2949)" display="inline" fill="#D0001A" font-family="'BlenderPro-Medium'" font-size="28.611px">AFB</text>
	<g display="inline">
		<text transform="matrix(1 0 0 1 194.1885 460.6123)" fill="#CCF6FF" font-family="'BlenderPro-Medium'" font-size="17.8819px">T</text>
		<text transform="matrix(1 0 0 1 202.8252 460.6123)" fill="#CCF6FF" font-family="'BlenderPro-Medium'" font-size="17.8819px">H</text>
		<text transform="matrix(1 0 0 1 212.7495 460.6123)" fill="#CCF6FF" font-family="'BlenderPro-Medium'" font-size="17.8819px">R</text>
		<text transform="matrix(1 0 0 1 222.5127 460.6123)" fill="#CCF6FF" font-family="'BlenderPro-Medium'" font-size="17.8819px">U</text>
		<text transform="matrix(1 0 0 1 232.437 460.6123)" fill="#CCF6FF" font-family="'BlenderPro-Medium'" font-size="17.8819px">S</text>
		<text transform="matrix(1 0 0 1 242.1831 460.6123)" fill="#CCF6FF" font-family="'BlenderPro-Medium'" font-size="17.8819px">T</text>
	</g>
	
		<text transform="matrix(1 0 0 1 1434.9756 409.4697)" display="inline" fill="#CCF6FF" font-family="'BlenderPro-Medium'" font-size="28.611px">01200</text>
	
		<text transform="matrix(1 0 0 1 1527.418 408.0391)" display="inline" fill="#CCF6FF" font-family="'BlenderPro-Medium'" font-size="21.4583px">R</text>
	
		<text transform="matrix(1 0 0 1 1539.1338 408.0391)" display="inline" fill="#CCF6FF" font-family="'BlenderPro-Medium'" font-size="21.4583px">/</text>
	
		<text transform="matrix(1 0 0 1 1547.5244 408.0391)" display="inline" fill="#CCF6FF" font-family="'BlenderPro-Medium'" font-size="21.4583px">A</text>
	
		<text transform="matrix(1 0 0 1 1558.876 408.0391)" display="inline" fill="#CCF6FF" font-family="'BlenderPro-Medium'" font-size="21.4583px">L</text>
	
		<text transform="matrix(1 0 0 1 1567.2012 408.0391)" display="inline" fill="#CCF6FF" font-family="'BlenderPro-Medium'" font-size="21.4583px">T</text>
	
		<text transform="matrix(1 0 0 1 349.7603 833.6289)" display="inline" fill="#CCF6FF" font-family="'BlenderPro-Medium'" font-size="28.611px">1.2G</text>
	
		<text transform="matrix(1 0 0 1 349.7603 872.9678)" display="inline" fill="#D0021B" font-family="'BlenderPro-Medium'" font-size="21.4583px">GSAF</text>
	
		<text transform="matrix(1 0 0 1 144.1187 794.2871)" display="inline" fill="#CCF6FF" font-family="'BlenderPro-Medium'" font-size="28.611px">45%</text>
	
		<text transform="matrix(1 0 0 1 162.0005 865.8154)" display="inline" fill="#CCF6FF" font-family="'BlenderPro-Medium'" font-size="28.611px">92%</text>
	
		<text transform="matrix(1 0 0 1 126.2368 763.8896)" display="inline" fill="#CCF6FF" font-family="'BlenderPro-Medium'" font-size="21.4583px">Q</text>
	
		<text transform="matrix(1 0 0 1 138.4893 763.8896)" display="inline" fill="#CCF6FF" font-family="'BlenderPro-Medium'" font-size="21.4583px">U</text>
	
		<text transform="matrix(1 0 0 1 150.2915 763.8896)" display="inline" fill="#CCF6FF" font-family="'BlenderPro-Medium'" font-size="21.4583px">A</text>
	
		<text transform="matrix(1 0 0 1 144.1187 831.8389)" display="inline" fill="#CCF6FF" font-family="'BlenderPro-Medium'" font-size="21.4583px">HYD</text>
	
		<text transform="matrix(1 0 0 1 118.4619 733.4893)" display="inline" fill="#CCF6FF" font-family="'BlenderPro-Medium'" font-size="21.4583px">FUEL</text>
	
		<text transform="matrix(1 0 0 1 510.6973 842.5693)" display="inline" fill="#CCF6FF" font-family="'BlenderPro-Medium'" font-size="21.4583px">CPLD</text>
	
		<text transform="matrix(1 0 0 1 503.5449 810.3818)" display="inline" fill="#CCF6FF" font-family="'BlenderPro-Medium'" font-size="21.4583px">GEAR</text>
	
		<text transform="matrix(1 0 0 1 516.062 874.7568)" display="inline" fill="#CCF6FF" font-family="'BlenderPro-Medium'" font-size="21.4583px">ESP</text>
	
		<text transform="matrix(1 0 0 1 1305.6611 874.7568)" display="inline" fill="#CCF6FF" font-family="'BlenderPro-Medium'" font-size="21.4583px">A</text>
	
		<text transform="matrix(1 0 0 1 1316.9053 874.7568)" display="inline" fill="#CCF6FF" font-family="'BlenderPro-Medium'" font-size="21.4583px">U</text>
	
		<text transform="matrix(1 0 0 1 1328.8145 874.7568)" display="inline" fill="#CCF6FF" font-family="'BlenderPro-Medium'" font-size="21.4583px">T</text>
	
		<text transform="matrix(1 0 0 1 1339.1787 874.7568)" display="inline" fill="#CCF6FF" font-family="'BlenderPro-Medium'" font-size="21.4583px">O</text>
	
		<text transform="matrix(1 0 0 1 1311.584 842.5693)" display="inline" fill="#CCF6FF" font-family="'BlenderPro-Medium'" font-size="21.4583px">T</text>
	
		<text transform="matrix(1 0 0 1 1320.5537 842.5693)" display="inline" fill="#CCF6FF" font-family="'BlenderPro-Medium'" font-size="21.4583px">A</text>
	
		<text transform="matrix(1 0 0 1 1331.9043 842.5693)" display="inline" fill="#CCF6FF" font-family="'BlenderPro-Medium'" font-size="21.4583px">R</text>
	
		<text transform="matrix(1 0 0 1 1343.6211 842.5693)" display="inline" fill="#CCF6FF" font-family="'BlenderPro-Medium'" font-size="21.4583px">G</text>
	
		<text transform="matrix(1 0 0 1 1223.3262 874.7568)" display="inline" fill="#CCF6FF" font-family="'BlenderPro-Medium'" font-size="21.4583px">GIMB</text>
	
		<text transform="matrix(1 0 0 1 1320.0244 810.3818)" display="inline" fill="#CCF6FF" font-family="'BlenderPro-Medium'" font-size="21.4583px">LOCK</text>
	
		<text transform="matrix(1 0 0 1 1469.2881 812.1689)" display="inline" fill="#CCF6FF" font-family="'BlenderPro-Medium'" font-size="21.4583px">CHAF</text>
	
		<text transform="matrix(1 0 0 1 1454.374 874.7568)" display="inline" fill="#CCF6FF" font-family="'BlenderPro-Medium'" font-size="21.4583px">CMSR</text>
	
		<text transform="matrix(1 0 0 1 1463.3369 846.1455)" display="inline" fill="#CCF6FF" font-family="'BlenderPro-Medium'" font-size="21.4583px">FLAR</text>
</g>
</svg>
