<?xml version="1.0" encoding="utf-8"?>
<!-- Generator: Adobe Illustrator 28.5.0, SVG Export Plug-In . SVG Version: 9.03 Build 54727)  -->
<svg version="1.1" baseProfile="tiny" id="Layer_1" xmlns="http://www.w3.org/2000/svg" xmlns:xlink="http://www.w3.org/1999/xlink"
	 x="0px" y="0px" viewBox="0 0 10 147.7" overflow="visible" xml:space="preserve">
<g>
	<g>
		<path fill="#18392D" d="M4.2,145.8v-1.9c0-0.1,0.1-0.2,0.2-0.2s0.2,0.1,0.2,0.2v1.9c0,0.1,0.1,0.3,0.1,0.3l1,1
			c0.1,0.1,0.1,0.2,0,0.2c-0.1,0.1-0.2,0.1-0.2,0l-1-1C4.3,146.2,4.2,146,4.2,145.8z"/>
	</g>
	<g>
		<path fill="#18392D" d="M4.2,143v-7.7c0-0.1,0.1-0.2,0.2-0.2s0.2,0.1,0.2,0.2v7.7c0,0.1-0.1,0.2-0.2,0.2S4.2,143.1,4.2,143z
			 M4.2,134.3v-7.7c0-0.1,0.1-0.2,0.2-0.2s0.2,0.1,0.2,0.2v7.7c0,0.1-0.1,0.2-0.2,0.2S4.2,134.4,4.2,134.3z M4.2,125.6v-7.7
			c0-0.1,0.1-0.2,0.2-0.2s0.2,0.1,0.2,0.2v7.7c0,0.1-0.1,0.2-0.2,0.2S4.2,125.7,4.2,125.6z M4.2,116.9v-7.7c0-0.1,0.1-0.2,0.2-0.2
			s0.2,0.1,0.2,0.2v7.7c0,0.1-0.1,0.2-0.2,0.2S4.2,117,4.2,116.9z M4.2,108.2v-7.7c0-0.1,0.1-0.2,0.2-0.2s0.2,0.1,0.2,0.2v7.7
			c0,0.1-0.1,0.2-0.2,0.2S4.2,108.3,4.2,108.2z M4.2,47.3v-7.7c0-0.1,0.1-0.2,0.2-0.2s0.2,0.1,0.2,0.2v7.7c0,0.1-0.1,0.2-0.2,0.2
			S4.2,47.4,4.2,47.3z M4.2,99.5V48.1C4.2,48,4.3,48,4.4,48s0.2,0.1,0.2,0.2v51.4c0,0.1-0.1,0.2-0.2,0.2S4.2,99.6,4.2,99.5z
			 M4.2,38.6v-7.7c0-0.1,0.1-0.2,0.2-0.2s0.2,0.1,0.2,0.2v7.7c0,0.1-0.1,0.2-0.2,0.2S4.2,38.7,4.2,38.6z M4.2,29.9v-7.7
			C4.2,22,4.3,22,4.4,22s0.2,0.1,0.2,0.2v7.7C4.5,30,4.5,30,4.4,30S4.2,30,4.2,29.9z M4.2,21.2v-7.7c0-0.1,0.1-0.2,0.2-0.2
			s0.2,0.1,0.2,0.2v7.7c0,0.1-0.1,0.2-0.2,0.2S4.2,21.3,4.2,21.2z M4.2,12.5V4.7c0-0.1,0.1-0.2,0.2-0.2s0.2,0.1,0.2,0.2v7.7
			c0,0.1-0.1,0.2-0.2,0.2S4.2,12.6,4.2,12.5z"/>
	</g>
	<g>
		<path fill="#18392D" d="M4.2,3.8V1.9c0-0.2,0.1-0.4,0.2-0.6l1-1c0.1-0.1,0.2-0.1,0.2,0c0.1,0.1,0.1,0.2,0,0.2l-1,1
			C4.6,1.6,4.5,1.8,4.5,1.9v1.9c0,0.1-0.1,0.2-0.2,0.2S4.2,3.9,4.2,3.8z"/>
	</g>
</g>
</svg>
