<?xml version="1.0" encoding="utf-8"?>
<!-- Generator: Adobe Illustrator 28.5.0, SVG Export Plug-In . SVG Version: 9.03 Build 54727)  -->
<svg version="1.1" baseProfile="tiny" id="Layer_1" xmlns="http://www.w3.org/2000/svg" xmlns:xlink="http://www.w3.org/1999/xlink"
	 x="0px" y="0px" viewBox="0 0 112 112" overflow="visible" xml:space="preserve">
<path fill="#FFAE00" d="M111.3,110.9c-0.1,0-0.1,0-0.2-0.1l-1.7-1.7c-0.2-0.2-0.4-0.5-0.4-0.9l0-103.9c0-0.3,0.1-0.6,0.4-0.9l2-2
	c0.1-0.1,0.3-0.1,0.4,0c0.1,0.1,0.1,0.3,0,0.4l-2,2c-0.1,0.1-0.2,0.3-0.2,0.5l0,103.9c0,0.2,0.1,0.4,0.2,0.5l1.7,1.7
	c0.1,0.1,0.1,0.3,0,0.4C111.4,110.8,111.4,110.9,111.3,110.9z"/>
<path fill="#FFAE00" d="M0.7,110.9c-0.1,0-0.1,0-0.2-0.1c-0.1-0.1-0.1-0.3,0-0.4l1.7-1.7c0.1-0.1,0.2-0.3,0.2-0.5V4.3
	c0-0.2-0.1-0.4-0.2-0.5l-2-2c-0.1-0.1-0.1-0.3,0-0.4c0.1-0.1,0.3-0.1,0.4,0l2,2C2.9,3.7,3,4,3,4.3v103.9c0,0.3-0.1,0.6-0.4,0.9
	l-1.7,1.7C0.9,110.8,0.8,110.9,0.7,110.9z"/>
<path fill="#131817" d="M108.6,110.5l-0.8-0.8c-0.1-0.1-0.2-0.3-0.2-0.6V3.2c0-0.2,0.1-0.4,0.2-0.6l0.8-0.8c0.2-0.2,0.2-0.4,0.2-0.6
	c0-0.2-0.1-0.4-0.2-0.6c-0.3-0.3-0.8-0.3-1.1,0l-1,1c-0.1,0.1-0.3,0.2-0.6,0.2H6C5.8,2,5.6,1.9,5.5,1.8l-1-1
	C4.3,0.6,4.1,0.5,3.9,0.5c-0.2,0-0.4,0.1-0.6,0.2C3,1,3,1.5,3.3,1.8l0.8,0.8C4.3,2.8,4.4,3,4.4,3.2v105.9c0,0.2-0.1,0.4-0.2,0.6
	l-0.8,0.8c-0.2,0.2-0.2,0.4-0.2,0.6c0,0.2,0.1,0.4,0.2,0.6c0.3,0.3,0.8,0.3,1.1,0l1-1c0.1-0.1,0.3-0.2,0.6-0.2h99.9
	c0.2,0,0.4,0.1,0.6,0.2l1,1c0.2,0.2,0.4,0.2,0.6,0.2c0.2,0,0.4-0.1,0.6-0.2C108.9,111.3,108.9,110.8,108.6,110.5z M9.3,106.3
	c0,0.6-0.5,1.1-1.1,1.1c-0.6,0-1.1-0.5-1.1-1.1V6c0-0.3,0.1-0.6,0.3-0.8C7.7,5,7.9,4.9,8.2,4.9c0.6,0,1.1,0.5,1.1,1.1V106.3z
	 M105.2,106.3c0,0.6-0.5,1.1-1.1,1.1c-0.6,0-1.1-0.5-1.1-1.1V6c0-0.3,0.1-0.6,0.3-0.8c0.2-0.2,0.5-0.3,0.8-0.3
	c0.6,0,1.1,0.5,1.1,1.1V106.3z"/>
<circle fill="#2BFF95" cx="108.1" cy="1.3" r="0.4"/>
<circle fill="#2BFF95" cx="108.1" cy="111" r="0.4"/>
<circle fill="#2BFF95" cx="3.9" cy="1.3" r="0.4"/>
<circle fill="#2BFF95" cx="3.9" cy="111" r="0.4"/>
<path fill="#FF6600" d="M104.1,105.1L104.1,105.1c-0.2,0-0.3,0.1-0.3,0.3v0.7c0,0.2,0.1,0.3,0.3,0.3l0,0c0.2,0,0.3-0.1,0.3-0.3v-0.7
	C104.4,105.2,104.3,105.1,104.1,105.1z"/>
<path fill="#FF6600" d="M8.2,105.1L8.2,105.1c-0.2,0-0.3,0.1-0.3,0.3v0.7c0,0.2,0.1,0.3,0.3,0.3l0,0c0.2,0,0.3-0.1,0.3-0.3v-0.7
	C8.6,105.2,8.4,105.1,8.2,105.1z"/>
</svg>
