<?xml version="1.0" encoding="utf-8"?>
<!-- Generator: Adobe Illustrator 28.5.0, SVG Export Plug-In . SVG Version: 9.03 Build 54727)  -->
<svg version="1.1" baseProfile="tiny" id="Layer_1" xmlns="http://www.w3.org/2000/svg" xmlns:xlink="http://www.w3.org/1999/xlink"
	 x="0px" y="0px" viewBox="0 0 147.2 10" overflow="visible" xml:space="preserve">
<g>
	<g>
		<path fill="#FF6420" d="M136.2,5.2C136.2,5.2,136.2,5.2,136.2,5.2l0.2-0.4c0,0,0,0,0,0h0.1c0,0,0,0,0,0c0,0,0,0,0,0L136.2,5.2
			C136.2,5.2,136.2,5.2,136.2,5.2L136.2,5.2C136.2,5.2,136.2,5.2,136.2,5.2z"/>
		<path fill="#FF6420" d="M136.5,5.2C136.5,5.2,136.5,5.2,136.5,5.2l0.2-0.4c0,0,0,0,0,0h0.1c0,0,0,0,0,0c0,0,0,0,0,0L136.5,5.2
			C136.6,5.2,136.6,5.2,136.5,5.2L136.5,5.2C136.5,5.2,136.5,5.2,136.5,5.2z"/>
		<path fill="#FF6420" d="M136.8,5.2C136.8,5.2,136.8,5.2,136.8,5.2L136.8,5.2C136.8,5.1,136.8,5.1,136.8,5.2
			C136.8,5.1,136.8,5.1,136.8,5.2l0.3-0.1c0,0,0,0,0,0s0,0,0,0v0c0,0,0,0,0,0c0,0,0,0,0,0L136.8,5.2C136.8,5.2,136.8,5.2,136.8,5.2z
			"/>
		<path fill="#FF6420" d="M137.5,4.7C137.5,4.7,137.5,4.7,137.5,4.7L137.5,4.7C137.5,4.7,137.6,4.7,137.5,4.7
			C137.6,4.7,137.6,4.7,137.5,4.7l0.1,0.4c0,0,0,0,0,0c0,0,0,0,0,0h-0.1c0,0,0,0,0,0l-0.2-0.3c0,0,0,0,0,0c0,0,0,0,0,0l0,0.3
			c0,0,0,0,0,0c0,0,0,0,0,0h-0.1c0,0,0,0,0,0c0,0,0,0,0,0V4.7c0,0,0,0,0,0c0,0,0,0,0,0h0.1c0,0,0,0,0,0l0.2,0.3c0,0,0,0,0,0
			c0,0,0,0,0,0L137.5,4.7C137.5,4.7,137.5,4.7,137.5,4.7z"/>
		<path fill="#FF6420" d="M137.8,5.2C137.7,5.1,137.7,5.1,137.8,5.2c-0.1-0.1-0.1-0.1-0.1-0.1V4.7c0,0,0,0,0,0c0,0,0,0,0,0h0.1
			c0,0,0,0,0,0c0,0,0,0,0,0V5C137.8,5.1,137.8,5.1,137.8,5.2C137.8,5.1,137.8,5.1,137.8,5.2c0.1,0,0.1-0.1,0.1-0.1c0,0,0,0,0-0.1
			V4.7c0,0,0,0,0,0c0,0,0,0,0,0h0.1c0,0,0,0,0,0c0,0,0,0,0,0V5c0,0,0,0.1,0,0.1s0,0-0.1,0.1C137.9,5.2,137.9,5.2,137.8,5.2
			C137.8,5.2,137.8,5.2,137.8,5.2z"/>
		<path fill="#FF6420" d="M138.1,5.2C138.1,5.2,138.1,5.2,138.1,5.2l0-0.4c0,0,0,0,0,0c0,0,0,0,0,0h0.1c0,0,0,0,0,0c0,0,0,0,0,0
			L138.1,5.2C138.2,5.1,138.2,5.1,138.1,5.2l0.3-0.1c0,0,0,0,0,0c0,0,0,0,0,0v0c0,0,0,0,0,0c0,0,0,0,0,0L138.1,5.2
			C138.1,5.2,138.1,5.2,138.1,5.2z"/>
		<path fill="#FF6420" d="M138.5,5.2C138.5,5.2,138.5,5.2,138.5,5.2l0-0.4c0,0,0,0,0,0c0,0,0,0,0,0h0.1c0,0,0,0,0,0c0,0,0,0,0,0
			L138.5,5.2C138.6,5.1,138.6,5.1,138.5,5.2l0.3-0.1c0,0,0,0,0,0c0,0,0,0,0,0v0c0,0,0,0,0,0c0,0,0,0,0,0L138.5,5.2
			C138.6,5.2,138.6,5.2,138.5,5.2z"/>
		<path fill="#FF6420" d="M138.9,5.2C138.9,5.2,138.9,5.2,138.9,5.2L138.9,5.2C138.9,5.1,138.9,5.1,138.9,5.2
			C138.9,5.1,138.9,5.1,138.9,5.2l0.3-0.1c0,0,0,0,0,0s0,0,0,0v0c0,0,0,0,0,0c0,0,0,0,0,0L138.9,5.2C138.9,5.2,138.9,5.2,138.9,5.2z
			"/>
		<path fill="#FF6420" d="M139.3,5.2C139.3,5.2,139.3,5.2,139.3,5.2l0-0.4c0,0,0,0,0,0c0,0,0,0,0,0h0.2c0,0,0.1,0,0.1,0s0,0,0.1,0
			c0,0,0,0,0,0.1V5c0,0,0,0,0,0.1c0,0,0,0-0.1,0c0,0,0,0-0.1,0L139.3,5.2C139.3,5.2,139.3,5.2,139.3,5.2z M139.4,5.1L139.4,5.1
			c0.1,0,0.1,0,0.1,0c0,0,0,0,0-0.1V4.9c0,0,0,0,0-0.1c0,0,0,0-0.1,0h-0.1c0,0,0,0,0,0L139.4,5.1C139.4,5.1,139.4,5.1,139.4,5.1z"/>
		<path fill="#FF6420" d="M140,5.2L140,5.2C140,5.1,140,5.1,140,5.2l-0.2-0.1c0,0,0,0,0,0l0,0.1c0,0,0,0,0,0h-0.1c0,0,0,0,0,0
			c0,0,0,0,0,0l0.1-0.4c0,0,0,0,0,0h0.1c0,0,0,0,0,0L140,5.2C140.1,5.2,140.1,5.2,140,5.2C140.1,5.2,140.1,5.2,140,5.2L140,5.2
			C140,5.2,140,5.2,140,5.2z M139.8,5h0.1c0,0,0,0,0,0l-0.1-0.2c0,0,0,0,0,0c0,0,0,0,0,0L139.8,5C139.8,5,139.8,5,139.8,5z"/>
		<path fill="#FF6420" d="M140.4,4.7C140.4,4.7,140.4,4.7,140.4,4.7L140.4,4.7C140.4,4.8,140.4,4.8,140.4,4.7
			C140.4,4.8,140.4,4.8,140.4,4.7l-0.1,0.1c0,0,0,0,0,0v0.4c0,0,0,0,0,0c0,0,0,0,0,0h-0.1c0,0,0,0,0,0c0,0,0,0,0,0V4.8c0,0,0,0,0,0
			h-0.1c0,0,0,0,0,0c0,0,0,0,0,0v0c0,0,0,0,0,0c0,0,0,0,0,0L140.4,4.7C140.4,4.7,140.4,4.7,140.4,4.7z"/>
		<path fill="#FF6420" d="M140.5,5.2C140.5,5.2,140.5,5.1,140.5,5.2C140.5,5.1,140.5,5.1,140.5,5.2C140.5,5.1,140.5,5.1,140.5,5.2
			C140.6,5.1,140.6,5.1,140.5,5.2C140.6,5.1,140.6,5.1,140.5,5.2C140.6,5.1,140.6,5.2,140.5,5.2C140.6,5.2,140.6,5.2,140.5,5.2
			C140.5,5.2,140.5,5.2,140.5,5.2z"/>
		<path fill="#FF6420" d="M141,5.2C141,5.1,140.9,5.1,141,5.2c-0.1-0.1-0.1-0.1-0.1-0.1V4.7c0,0,0,0,0,0c0,0,0,0,0,0h0.1
			c0,0,0,0,0,0c0,0,0,0,0,0V5C141,5.1,141,5.1,141,5.2C141,5.1,141,5.1,141,5.2c0.1,0,0.1-0.1,0.1-0.1c0,0,0,0,0-0.1V4.7
			c0,0,0,0,0,0c0,0,0,0,0,0h0.1c0,0,0,0,0,0c0,0,0,0,0,0V5c0,0,0,0.1,0,0.1s0,0-0.1,0.1C141.1,5.2,141.1,5.2,141,5.2
			C141,5.2,141,5.2,141,5.2z"/>
		<path fill="#FF6420" d="M141.4,5.2l-0.1-0.4l0,0c0,0,0,0,0,0h0.1c0,0,0,0,0,0l0.1,0.3c0,0,0,0,0,0c0,0,0,0,0,0l0.1-0.3
			c0,0,0,0,0,0h0.1c0,0,0,0,0,0l0.1,0.3c0,0,0,0,0,0c0,0,0,0,0,0l0.1-0.3c0,0,0,0,0,0h0.1c0,0,0,0,0,0l-0.1,0.4c0,0,0,0,0,0h-0.1
			c0,0,0,0,0,0l-0.1-0.3c0,0,0,0,0,0c0,0,0,0,0,0L141.4,5.2C141.5,5.2,141.5,5.2,141.4,5.2L141.4,5.2C141.4,5.2,141.4,5.2,141.4,5.2
			z"/>
		<path fill="#FF6420" d="M142.1,5.2C142.1,5.2,142.1,5.2,142.1,5.2l0-0.2c0,0,0,0,0,0l-0.1-0.3c0,0,0,0,0,0c0,0,0,0,0,0h0.1
			c0,0,0,0,0,0l0.1,0.2c0,0,0,0,0,0l0.1-0.2c0,0,0,0,0,0h0.1c0,0,0,0,0,0c0,0,0,0,0,0L142.1,5c0,0,0,0,0,0L142.1,5.2
			C142.1,5.2,142.1,5.2,142.1,5.2C142.1,5.2,142.1,5.2,142.1,5.2L142.1,5.2C142.1,5.2,142.1,5.2,142.1,5.2z"/>
		<path fill="#FF6420" d="M142.3,5.2C142.3,5.2,142.3,5.1,142.3,5.2C142.3,5.1,142.3,5.1,142.3,5.2C142.3,5.1,142.3,5.1,142.3,5.2
			C142.4,5.1,142.4,5.1,142.3,5.2C142.4,5.1,142.4,5.1,142.3,5.2C142.4,5.1,142.4,5.2,142.3,5.2C142.4,5.2,142.4,5.2,142.3,5.2
			C142.3,5.2,142.3,5.2,142.3,5.2z"/>
		<path fill="#FF6420" d="M142.6,5.1c0,0,0-0.1,0-0.1V4.9c0,0,0-0.1,0-0.1c0,0,0.1,0,0.1,0c0,0,0.1,0,0.1,0c0,0,0,0.1,0,0.1V5
			c0,0,0,0.1,0,0.1s-0.1,0-0.1,0C142.6,5.2,142.6,5.2,142.6,5.1z M142.7,5.1C142.7,5.1,142.7,5.1,142.7,5.1l0-0.2c0,0,0,0,0-0.1
			c0,0,0,0-0.1,0c0,0,0,0-0.1,0c0,0,0,0,0,0.1V5c0,0,0,0,0,0.1C142.6,5.1,142.6,5.1,142.7,5.1C142.7,5.1,142.7,5.1,142.7,5.1z"/>
		<path fill="#FF6420" d="M143,5.1c0,0,0-0.1,0-0.1V4.9c0,0,0-0.1,0-0.1c0,0,0.1,0,0.1,0c0,0,0.1,0,0.1,0c0,0,0,0.1,0,0.1V5
			c0,0,0,0.1,0,0.1c0,0-0.1,0-0.1,0C143,5.2,143,5.2,143,5.1z M143.1,5.1C143.1,5.1,143.1,5.1,143.1,5.1l0-0.2c0,0,0,0,0-0.1
			c0,0,0,0-0.1,0c0,0,0,0-0.1,0c0,0,0,0,0,0.1V5c0,0,0,0,0,0.1C143,5.1,143,5.1,143.1,5.1C143.1,5.1,143.1,5.1,143.1,5.1z"/>
		<path fill="#FF6420" d="M143.6,5C143.6,5.1,143.6,5.1,143.6,5c0,0.1,0,0.1-0.1,0.1s-0.1,0-0.1,0c0,0-0.1,0-0.1,0c0,0,0,0,0-0.1
			c0,0,0,0,0,0v0c0,0,0,0,0,0h0.1c0,0,0,0,0,0c0,0,0,0,0,0c0,0,0,0,0,0c0,0,0,0,0,0c0,0,0,0,0,0S143.5,5.1,143.6,5
			C143.5,5.1,143.5,5,143.6,5C143.5,5,143.5,5,143.6,5C143.5,5,143.5,5,143.6,5C143.5,5,143.5,5,143.5,5c0,0,0,0,0,0c0,0,0,0,0,0
			c0,0,0,0,0,0h-0.1c0,0,0,0,0,0c0,0,0,0,0,0V4.7c0,0,0,0,0,0c0,0,0,0,0,0h0.2c0,0,0,0,0,0c0,0,0,0,0,0v0c0,0,0,0,0,0c0,0,0,0,0,0
			h-0.2c0,0,0,0,0,0l0,0.1c0,0,0,0,0,0c0,0,0,0,0,0c0,0,0,0,0.1,0c0,0,0.1,0,0.1,0C143.6,4.9,143.6,4.9,143.6,5
			C143.6,5,143.6,5,143.6,5z"/>
		<path fill="#FF6420" d="M144,5C144,5,144,5,144,5L144,5C144,5.1,144,5.1,144,5C144,5.1,144,5.1,144,5L144,5C144,5.1,144,5.1,144,5
			l0,0.2c0,0,0,0,0,0c0,0,0,0,0,0h-0.1c0,0,0,0,0,0c0,0,0,0,0,0V5.1c0,0,0,0,0,0h-0.2c0,0,0,0,0,0c0,0,0,0,0,0v0c0,0,0,0,0,0
			l0.1-0.3c0,0,0,0,0,0h0.1c0,0,0,0,0,0c0,0,0,0,0,0L143.8,5c0,0,0,0,0,0c0,0,0,0,0,0h0.1c0,0,0,0,0,0V4.9c0,0,0,0,0,0c0,0,0,0,0,0
			L144,5C144,4.9,144,4.9,144,5C144,4.9,144,4.9,144,5L144,5C144,5,144,5,144,5L144,5C144,5,144,5,144,5z"/>
	</g>
	<g>
		<g>
			<rect x="2.1" y="4.9" fill="#1C332B" width="4.4" height="0.4"/>
		</g>
		<g>
			<path fill="#1C332B" d="M7.7,5.2l0-0.4l9.1,0l0,0.4L7.7,5.2z M17.9,5.2l0-0.4l9.1,0l0,0.4L17.9,5.2z M28.2,5.2l0-0.4l9.1,0l0,0.4
				L28.2,5.2z M38.5,5.2l0-0.4l60.3,0l0,0.4L38.5,5.2z M100,5.1l0-0.4l9.1,0l0,0.4L100,5.1z M110.3,5.1l0-0.4l9.1,0l0,0.4L110.3,5.1
				z M120.5,5.1l0-0.4l9.1,0l0,0.4L120.5,5.1z"/>
		</g>
		<g>
			<rect x="130.8" y="4.7" fill="#1C332B" width="4.4" height="0.4"/>
		</g>
	</g>
	<g>
		<rect x="0" y="4.9" fill="#6CFFC7" width="1.2" height="0.4"/>
	</g>
	<g>
		<rect x="144.9" y="4.7" fill="#6CFFC7" width="2.3" height="0.4"/>
	</g>
</g>
</svg>
