<?xml version="1.0" encoding="utf-8"?>
<!-- Generator: Adobe Illustrator 21.0.2, SVG Export Plug-In . SVG Version: 6.00 Build 0)  -->
<svg version="1.1" baseProfile="tiny" id="Layer_1" xmlns="http://www.w3.org/2000/svg" xmlns:xlink="http://www.w3.org/1999/xlink"
	 x="0px" y="0px" width="50px" height="7px" viewBox="0 0 50 7" xml:space="preserve">
<g>
	<rect y="5.4" fill="#FFFFFF" width="4.1" height="1"/>
</g>
<g>
	<path fill="#FFFFFF" d="M11.1,6.4h-3v-1h3c1.7,0,3.4-0.5,4.9-1.4L22.7,0l0.5,0.9l-6.8,4.1C14.9,5.9,13,6.4,11.1,6.4z"/>
</g>
<g>
	
		<rect x="45.9" y="5.4" transform="matrix(-1 -4.476476e-11 4.476476e-11 -1 95.8959 11.8498)" fill="#FFFFFF" width="4.1" height="1"/>
</g>
<g>
	<path fill="#FFFFFF" d="M41.9,6.4h-3c-1.9,0-3.8-0.5-5.4-1.5l-6.8-4.1L27.3,0L34,4.1c1.5,0.9,3.2,1.4,4.9,1.4h3V6.4z"/>
</g>
</svg>
