<?xml version="1.0" encoding="utf-8"?>
<!-- Generator: Adobe Illustrator 28.5.0, SVG Export Plug-In . SVG Version: 9.03 Build 54727)  -->
<svg version="1.1" baseProfile="tiny" id="Layer_1" xmlns="http://www.w3.org/2000/svg" xmlns:xlink="http://www.w3.org/1999/xlink"
	 x="0px" y="0px" viewBox="0 0 128 128" overflow="visible" xml:space="preserve">
<g>
	<path fill="#ED1C24" d="M31.5,61.1c-0.6-2.6-0.5-5.3,0.4-7.8l2-5.6L0.4,44.4l32.3,21.8L31.5,61.1z"/>
	<path fill="#ED1C24" d="M59.5,11.4c-3.4,4.7-4.8,17.4-4.8,17.4h13C65.8,14.5,59.5,11.4,59.5,11.4z"/>
	<path fill="#ED1C24" d="M91.9,90.9c-0.6-1.2-1.9-1.9-3.2-1.6l-1.2,0.3c0,0,0.1-4.5-0.8-6.3c3.3-4.5,6.6-9.4,7.1-10.3
		c0-0.1,0.1-0.2,0.1-0.3c0.2-0.8,1-6,0.3-12.2l3.1,2.9c13-10.4,30.3-19.8,30.3-19.8c-16-0.5-32.8,3.2-37,4.2
		c-2.1-3.9-5.1-7.5-9.7-10.2c-0.4-0.2-1,0-1.1,0.4l-0.6,1.6c-0.2,0.6-0.9,0.7-1.3,0.2c0.4,0.1-4.1-6.7-8.5-8.3
		c-3-1.1-31.9-4.5-35.4,26.8c-0.1,0.9,0.5,1.7,1.4,1.7l5.3-0.4c0.6,0,1,0.8,0.6,1.3l-4.7,7.1c-0.5,0.8-1.1,4-0.8,4.9l5.2,17.5
		l-1.2,4.5l-3.8-4.3l-11.2,25.7l19.2-15.8l0.2,0.6c0.6,1.8,2.2,3,4.1,3l16.2-0.4c1,0,1.9-0.4,2.6-1.1l5.2-5c1-0.9,1.1-2.3,0.4-3.4
		c-1.8-2.5-4.8-8-4.5-12.5c0.3-3.9,2.4-8.3,3.8-11.2c0.9-1.8,0.2-3.9-1.5-4.9L61.5,60c-0.5-0.3-1.1-0.5-1.8-0.5l-0.1,0
		c-2.3-0.2-3-3.3-1-4.4c3.6-1.9,8.1-2.5,12.5,2.5c0.7,0.8,1.8,1,2.7,0.5c2.2-1.2,6.1-4.5,6.7-6.7l0.2,0.9c0.2,1,1.2,1.6,2.1,1.4
		c1.5-0.3,2.6,0.7,2.5,2.2l-0.1,1.1c0,0.6-0.2,1.1-0.5,1.6c-2.3,3.5-12,19.8-12.4,28.8c-0.1,2.2,1.5,4,3.7,4.2
		c1.3,0.1,2.7-0.1,4.1-1c0.8-0.5,1.8-1.7,3.1-3.1c0.1,0,0.3,0.1,0.4,0.1c1.4,0.8,1,4.3-0.1,5.5l-0.8,0.9c-0.7,0.7-2,0-3.1-0.8
		c-0.6-0.4-1.2-0.6-1.9-0.6l-1.3,0c-0.8,0-1.4,0.5-1.6,1.2l-0.3,1.3c-0.2,0.8,0.2,1.3,1,1.5l2.2,0.6c0.8,0.2,1.7-0.3,1.9-1.2
		l0.1-0.6l0.9,2.9c0.3,1,0.9,1.8,1.7,2.5l19.5,15.6c0,0-2.6-9.6-4.6-14C96.5,100.8,93.5,94.3,91.9,90.9z M99.7,52.1
		c-1.5,0.4-4.3,2.4-6.3,3.9c-0.4-1.7-0.9-3.4-1.5-5.1L99.7,52.1z"/>
</g>
</svg>
