<?xml version="1.0" encoding="utf-8"?>
<!-- Generator: Adobe Illustrator 28.5.0, SVG Export Plug-In . SVG Version: 9.03 Build 54727)  -->
<svg version="1.1" baseProfile="tiny" id="Layer_1" xmlns="http://www.w3.org/2000/svg" xmlns:xlink="http://www.w3.org/1999/xlink"
	 x="0px" y="0px" viewBox="0 0 128 128" overflow="visible" xml:space="preserve">
<path fill="#00FFFF" d="M64,127.2c34.8,0,63.2-28.3,63.2-63.2c0-34.8-28.3-63.2-63.2-63.2C29.2,0.8,0.8,29.2,0.8,64
	C0.8,98.8,29.2,127.2,64,127.2z M85.2,10.2c17.7,7,31,21.9,35.2,40.6h-10.2c-2.2-7.7-7.7-16.7-14.1-22v29.3h25.6
	c0.2,1.9,0.3,3.8,0.3,5.7c0,1.7-0.1,3.3-0.2,5H96.1v29.8c6.4-5.7,10.9-13.3,13.3-20.2h10.7c-4.7,17.7-17.3,32.3-34.9,39.2V10.2z
	 M49,8.3c4.8-1.3,9.8-1.9,14.9-1.9c5.4,0,10.6,0.7,15.7,2.1v42.4H68.7V17.1c-1.5-0.2-3.2-0.3-4.8-0.3c-1.4,0-2.7,0.1-4.1,0.2v41.1
	h19.7v10.7H59.9v42c1.4,0.1,2.7,0.1,4.1,0.1c1.7,0,3.3,0,4.8-0.1V78.5h10.9v41c-5.1,1.9-10.3,2.2-15.7,2.2c-5.2,0-10.2-0.8-14.9-2
	V8.3z M11.9,39.7c2.8-5.9,6.4-11.2,10.9-15.8v62.9c2.6,4.6,5.8,8.7,9.7,12.2V15.8c3.4-2.2,7.1-4.2,10.9-5.7v107.5
	c-13.9-5.4-25.2-16.1-31.5-29.6v0V39.7z"/>
</svg>
