<?xml version="1.0" encoding="utf-8"?>
<!-- Generator: Adobe Illustrator 27.8.0, SVG Export Plug-In . SVG Version: 6.00 Build 0)  -->
<svg version="1.1" baseProfile="tiny" id="Layer_1" xmlns="http://www.w3.org/2000/svg" xmlns:xlink="http://www.w3.org/1999/xlink"
	 x="0px" y="0px" viewBox="0 0 397.6 980" overflow="visible" xml:space="preserve">
<path fill="none" stroke="#6CB8C7" stroke-width="1.5" stroke-linecap="round" stroke-miterlimit="10" d="M26.1,300.8
	C56.4,188.5,113,87,188.9,3.4c1.3-1.5,3.3-2.3,5.3-2.3h15.5"/>
<line fill="none" stroke="#6CB8C7" stroke-linecap="round" stroke-miterlimit="10" x1="272.6" y1="1" x2="285.5" y2="1"/>
<line fill="none" stroke="#6CB8C7" stroke-linecap="round" stroke-miterlimit="10" x1="291" y1="1" x2="303.9" y2="1"/>
<line fill="none" stroke="#6CB8C7" stroke-linecap="round" stroke-miterlimit="10" x1="309.4" y1="1" x2="322.3" y2="1"/>
<line fill="none" stroke="#6CB8C7" stroke-linecap="round" stroke-miterlimit="10" x1="327.8" y1="1" x2="340.7" y2="1"/>
<line fill="none" stroke="#6CB8C7" stroke-linecap="round" stroke-miterlimit="10" x1="346.2" y1="1" x2="359.1" y2="1"/>
<line fill="none" stroke="#6CB8C7" stroke-linecap="round" stroke-miterlimit="10" x1="364.6" y1="1" x2="377.6" y2="1"/>
<line fill="none" stroke="#6CB8C7" stroke-linecap="round" stroke-miterlimit="10" x1="383.1" y1="1" x2="396" y2="1"/>
<circle id="opacity:50" fill="#FFFFFF" cx="214.8" cy="1" r="1"/>
<path fill="none" stroke="#6CB8C7" stroke-width="1.5" stroke-linecap="round" stroke-miterlimit="10" d="M26.1,679.2
	C56.4,791.5,113,893,188.9,976.6c1.3,1.5,3.3,2.3,5.3,2.3h15.5"/>
<line id="opacity:55_00000060003801067800038790000014819205870880442793_" fill="none" stroke="#6CB8C7" stroke-linecap="round" stroke-miterlimit="10" x1="272.6" y1="979" x2="285.5" y2="979"/>
<line fill="none" stroke="#6CB8C7" stroke-linecap="round" stroke-miterlimit="10" x1="254.1" y1="1" x2="267" y2="1"/>
<line id="opacity:55_00000057121191004613777880000004971674159794253998_" fill="none" stroke="#6CB8C7" stroke-linecap="round" stroke-miterlimit="10" x1="254.1" y1="979" x2="267" y2="979"/>
<line id="opacity:55_00000026845133955906613110000002112298876835091618_" fill="none" stroke="#6CB8C7" stroke-linecap="round" stroke-miterlimit="10" x1="291" y1="979" x2="303.9" y2="979"/>
<line id="opacity:55_00000000912884205485602760000007953184924132574602_" fill="none" stroke="#6CB8C7" stroke-linecap="round" stroke-miterlimit="10" x1="309.4" y1="979" x2="322.3" y2="979"/>
<line id="opacity:55_00000079453586771950767660000014584761266728724408_" fill="none" stroke="#6CB8C7" stroke-linecap="round" stroke-miterlimit="10" x1="327.8" y1="979" x2="340.7" y2="979"/>
<line id="opacity:55_00000106111005370246810430000015691427010995142029_" fill="none" stroke="#6CB8C7" stroke-linecap="round" stroke-miterlimit="10" x1="346.2" y1="979" x2="359.1" y2="979"/>
<line id="opacity:55_00000013885708424166652450000010411355953940493440_" fill="none" stroke="#6CB8C7" stroke-linecap="round" stroke-miterlimit="10" x1="364.6" y1="979" x2="377.6" y2="979"/>
<line id="opacity:55" fill="none" stroke="#6CB8C7" stroke-linecap="round" stroke-miterlimit="10" x1="383.1" y1="979" x2="396" y2="979"/>
<circle id="opacity:35" fill="#FFFFFF" cx="214.8" cy="979" r="1"/>
</svg>
