<?xml version="1.0" encoding="utf-8"?>
<!-- Generator: Adobe Illustrator 27.8.0, SVG Export Plug-In . SVG Version: 6.00 Build 0)  -->
<svg version="1.1" baseProfile="tiny" id="Layer_1" xmlns="http://www.w3.org/2000/svg" xmlns:xlink="http://www.w3.org/1999/xlink"
	 x="0px" y="0px" viewBox="0 0 458.2 1010.5" overflow="visible" xml:space="preserve">
<ellipse transform="matrix(1 -2.487528e-03 2.487528e-03 1 -1.3821 1.191783e-02)" fill="#FFFFFF" cx="4.1" cy="555.6" rx="1.3" ry="1.3"/>
<ellipse transform="matrix(1 -2.487528e-03 2.487528e-03 1 -1.1313 1.160597e-02)" fill="#FFFFFF" cx="4.1" cy="454.8" rx="1.3" ry="1.3"/>
<line fill="none" stroke="#6CB8C7" stroke-linecap="round" stroke-miterlimit="10" x1="340" y1="1009" x2="353.6" y2="1009"/>
<line fill="none" stroke="#6CB8C7" stroke-linecap="round" stroke-miterlimit="10" x1="360.5" y1="1009" x2="374.1" y2="1009"/>
<line fill="none" stroke="#6CB8C7" stroke-linecap="round" stroke-miterlimit="10" x1="299" y1="1009" x2="312.6" y2="1009"/>
<line fill="none" stroke="#6CB8C7" stroke-linecap="round" stroke-miterlimit="10" x1="278.4" y1="1009" x2="292" y2="1009"/>
<line fill="none" stroke="#6CB8C7" stroke-linecap="round" stroke-miterlimit="10" x1="319.5" y1="1009" x2="333.1" y2="1009"/>
<line fill="none" stroke="#6CB8C7" stroke-linecap="round" stroke-miterlimit="10" x1="381.1" y1="1009" x2="394.7" y2="1009"/>
<line fill="none" stroke="#6CB8C7" stroke-linecap="round" stroke-miterlimit="10" x1="401.6" y1="1009" x2="415.2" y2="1009"/>
<line fill="none" stroke="#6CB8C7" stroke-linecap="round" stroke-miterlimit="10" x1="422.1" y1="1009" x2="435.7" y2="1009"/>
<line fill="none" stroke="#6CB8C7" stroke-linecap="round" stroke-miterlimit="10" x1="442.6" y1="1009" x2="456.2" y2="1009"/>
<line fill="none" stroke="#6CB8C7" stroke-linecap="round" stroke-miterlimit="10" x1="340" y1="2.1" x2="353.6" y2="2.1"/>
<line fill="none" stroke="#6CB8C7" stroke-linecap="round" stroke-miterlimit="10" x1="360.5" y1="2.1" x2="374.1" y2="2.1"/>
<line fill="none" stroke="#6CB8C7" stroke-linecap="round" stroke-miterlimit="10" x1="299" y1="2.1" x2="312.6" y2="2.1"/>
<line fill="none" stroke="#6CB8C7" stroke-linecap="round" stroke-miterlimit="10" x1="278.4" y1="2.1" x2="292" y2="2.1"/>
<line fill="none" stroke="#6CB8C7" stroke-linecap="round" stroke-miterlimit="10" x1="319.5" y1="2.1" x2="333.1" y2="2.1"/>
<line fill="none" stroke="#6CB8C7" stroke-linecap="round" stroke-miterlimit="10" x1="381.1" y1="2.1" x2="394.7" y2="2.1"/>
<line fill="none" stroke="#6CB8C7" stroke-linecap="round" stroke-miterlimit="10" x1="401.6" y1="2.1" x2="415.2" y2="2.1"/>
<line fill="none" stroke="#6CB8C7" stroke-linecap="round" stroke-miterlimit="10" x1="422.1" y1="2.1" x2="435.7" y2="2.1"/>
<line fill="none" stroke="#6CB8C7" stroke-linecap="round" stroke-miterlimit="10" x1="442.6" y1="2.1" x2="456.2" y2="2.1"/>
<path fill="none" stroke="#6CB8C7" stroke-width="2" stroke-linecap="round" stroke-miterlimit="10" d="M10.5,555.6h8
	c1.5,0,2.8,0.9,3.3,2.3l167.6,447.9c0.7,1.7,2.3,2.9,4.2,2.9h9.1"/>
<path fill="none" stroke="#6CB8C7" stroke-width="2" stroke-linecap="round" stroke-miterlimit="10" d="M202.6,1.8h-9.1
	c-1.9,0-3.5,1.2-4.2,2.9L21.7,452.5c-0.5,1.4-1.8,2.3-3.3,2.3h-8"/>
<ellipse transform="matrix(1 -2.487528e-03 2.487528e-03 1 -1.3821 1.191783e-02)" fill="#FFFFFF" cx="4.1" cy="555.6" rx="1.3" ry="1.3"/>
<circle id="opacity:35" fill="#FFFFFF" cx="214" cy="1008.7" r="1.3"/>
<ellipse transform="matrix(1 -2.487528e-03 2.487528e-03 1 -1.1313 1.160597e-02)" fill="#FFFFFF" cx="4.1" cy="454.8" rx="1.3" ry="1.3"/>
<circle id="opacity:50" fill="#FFFFFF" cx="214" cy="1.8" r="1.3"/>
</svg>
