<?xml version="1.0" encoding="utf-8"?>
<!-- Generator: Adobe Illustrator 28.3.0, SVG Export Plug-In . SVG Version: 6.00 Build 0)  -->
<svg version="1.1" baseProfile="tiny" id="Layer_1" xmlns="http://www.w3.org/2000/svg" xmlns:xlink="http://www.w3.org/1999/xlink"
	 x="0px" y="0px" viewBox="0 0 500 500" overflow="visible" xml:space="preserve">
<g id="Layer_1_00000087381437115437544410000010622365000760034195_" display="none">
	<path display="inline" fill="#FFFFFF" d="M250,52c52.9,0,102.6,20.6,140,58s58,87.1,58,140s-20.6,102.6-58,140s-87.1,58-140,58
		s-102.6-20.6-140-58s-58-87.1-58-140s20.6-102.6,58-140S197.1,52,250,52 M250,2C113,2,2,113,2,250s111,248,248,248s248-111,248-248
		S387,2,250,2L250,2z"/>
</g>
<g id="Layer_2_00000124863780521665379160000013800514038525045667_" display="none">
	<path display="inline" fill="#FFFFFF" d="M290,5.2V56c37.6,7.7,72.2,26.2,100,54c37.4,37.4,58,87.1,58,140s-20.6,102.6-58,140
		c-27.8,27.8-62.4,46.3-100,54v50.8C408,475.7,498,373.3,498,250S408,24.3,290,5.2z M2,250c0,125.1,92.6,228.5,213,245.5v-50.6
		c-39.6-7-76-25.9-105-54.9c-37.4-37.4-58-87.1-58-140s20.6-102.6,58-140c29-29,65.4-47.9,105-54.9V4.5C94.6,21.5,2,124.9,2,250z"/>
</g>
<g id="Layer_3" display="none">
	<path display="inline" fill="#FFFFFF" d="M2,250c0,54.4,17.5,104.8,47.3,145.7l35.9-35.9C63.6,327.5,52,289.7,52,250
		c0-52.9,20.6-102.6,58-140c28.4-28.4,63.9-47.1,102.5-54.5V4.8C93.3,22.9,2,125.8,2,250z M287.5,4.8v50.7
		c38.6,7.4,74.1,26.1,102.5,54.5c37.4,37.4,58,87.1,58,140c0,40.1-11.8,78.4-33.9,110.9l35.9,35.8c30.2-41.1,48-91.8,48-146.7
		C498,125.8,406.7,22.9,287.5,4.8z M250,448c-40.7,0-79.4-12.2-112.2-34.8L102,449c41.3,30.8,92.5,49,148,49
		c55,0,105.8-17.9,147-48.2L361.2,414C328.6,436.1,290.2,448,250,448z"/>
</g>
<g id="Layer_4">
	<path fill="#FFFFFF" d="M515.8,480.1l-35.4,35.3L407,442c-35.5,29-79.1,48.5-127,54.3v-50.4c41.5-6.3,79.8-25.6,110-55.8
		c30.3-30.3,49.5-68.6,55.8-110.1h50.4c-5.7,47.7-25,91.2-53.9,126.6L515.8,480.1z"/>
	<path fill="#FFFFFF" d="M442.3,93.4c28.9,35.4,48.2,78.9,53.9,126.6h-50.4c-6.3-41.5-25.6-79.8-55.8-110
		c-30.2-30.3-68.5-49.5-110-55.8V3.8C327.8,9.6,371.5,29,407,58l73.4-73.4l35.4,35.3L442.3,93.4z"/>
	<path fill="#FFFFFF" d="M220,3.8v50.4c-41.5,6.3-79.8,25.6-110,55.8c-30.3,30.2-49.5,68.5-55.8,110H3.8
		c5.7-47.7,25-91.2,53.9-126.6L-15.7,20l35.4-35.3L93,58C128.5,29,172.2,9.6,220,3.8z"/>
	<path fill="#FFFFFF" d="M220,445.8v50.4c-47.8-5.8-91.5-25.2-127-54.2l-73.4,73.4l-35.4-35.3l73.4-73.4
		C28.8,371.2,9.5,327.7,3.8,280h50.4c6.3,41.5,25.6,79.8,55.8,110C140.2,420.3,178.5,439.5,220,445.8z"/>
</g>
</svg>
