<?xml version="1.0" encoding="utf-8"?>
<!-- Generator: Adobe Illustrator 27.1.1, SVG Export Plug-In . SVG Version: 6.00 Build 0)  -->
<svg version="1.1" baseProfile="tiny" id="Layer_1" xmlns="http://www.w3.org/2000/svg" xmlns:xlink="http://www.w3.org/1999/xlink"
	 x="0px" y="0px" viewBox="0 0 122.7 122.9" overflow="visible" xml:space="preserve">
<g id="Layer_1_00000116196063000618068600000017866921378567200685_" display="none">
	
		<line display="inline" fill="none" stroke="#FFFFFF" stroke-width="1.5" stroke-miterlimit="10" x1="81.5" y1="61.4" x2="108.5" y2="61.4"/>
	
		<line display="inline" fill="none" stroke="#FFFFFF" stroke-width="1.5" stroke-miterlimit="10" x1="41.2" y1="61.4" x2="14.3" y2="61.4"/>
	
		<line display="inline" fill="none" stroke="#FFFFFF" stroke-width="1.5" stroke-miterlimit="10" x1="61.4" y1="108.5" x2="61.4" y2="81.6"/>
	
		<line display="inline" fill="none" stroke="#FFFFFF" stroke-width="1.5" stroke-miterlimit="10" x1="61.4" y1="41.3" x2="61.4" y2="14.3"/>
</g>
<g id="Layer_2_00000129189382644577707400000010938642446034676659_" display="none">
	<path display="inline" fill="none" stroke="#FFFFFF" stroke-width="1.5" stroke-miterlimit="10" d="M120.4,69.9
		c-3.7,26.3-24.6,47-50.9,50.6"/>
	<path display="inline" fill="none" stroke="#FFFFFF" stroke-width="1.5" stroke-miterlimit="10" d="M2.4,69.5
		C6,95.8,26.7,116.7,53,120.4"/>
	<g display="inline">
		<path fill="none" stroke="#FFFFFF" stroke-width="1.5" stroke-miterlimit="10" d="M120.4,52.6C116.6,26.3,95.8,5.6,69.5,2"/>
		<path fill="none" stroke="#FFFFFF" stroke-width="1.5" stroke-miterlimit="10" d="M2.4,52.9C6,26.6,26.7,5.7,52.9,2"/>
	</g>
</g>
<g id="Layer_4" display="none">
	<circle display="inline" fill="none" stroke="#FFFFFF" stroke-miterlimit="10" cx="61.4" cy="61.4" r="9.5"/>
</g>
<g id="attitude_marker__x28_90_x25__opacity_x29_">
	<path fill="none" stroke="#305256" stroke-width="0.5" stroke-miterlimit="10" d="M36.6,60.7"/>
	<path fill="none" stroke="#305256" stroke-width="0.5" stroke-miterlimit="10" d="M85.8,60.7"/>
	<polyline fill="none" stroke="#6CB7C6" stroke-width="0.5" stroke-miterlimit="10" points="120,60.6 85.9,60.6 61.4,85.2 
		36.6,60.6 2.7,60.6 	"/>
</g>
</svg>
