<?xml version="1.0" encoding="utf-8"?>
<!-- Generator: Adobe Illustrator 27.1.1, SVG Export Plug-In . SVG Version: 6.00 Build 0)  -->
<svg version="1.1" baseProfile="tiny" id="Layer_1" xmlns="http://www.w3.org/2000/svg" xmlns:xlink="http://www.w3.org/1999/xlink"
	 x="0px" y="0px" viewBox="0 0 118.1 117.9" overflow="visible" xml:space="preserve">
<g id="Target_State_2" display="none">
	<g id="Corner_00000181779702548798322300000016911261128520875445_" display="inline">
		<polygon fill="#FFFFFF" points="102.2,103.2 102.2,117.9 103.2,117.9 103.2,104.2 		"/>
		<polygon fill="#FFFFFF" points="103.3,102.2 118,102.2 118,103.2 104.3,103.2 		"/>
	</g>
	<g id="Corner_00000147204100340739256420000010718447070656454542_" display="inline">
		<polygon fill="#FFFFFF" points="15.9,103.1 15.9,117.8 14.9,117.8 14.9,104.1 		"/>
		<polygon fill="#FFFFFF" points="14.8,102.1 0.1,102.1 0.1,103.1 13.8,103.1 		"/>
	</g>
	<g id="Corner_00000116950679508468549950000002860474801884294052_" display="inline">
		<polygon fill="#FFFFFF" points="102.2,14.7 102.2,0 103.2,0 103.2,13.7 		"/>
		<polygon fill="#FFFFFF" points="103.3,15.7 118.1,15.7 118.1,14.7 104.3,14.7 		"/>
	</g>
	<g id="Corner_00000008145968006658882180000011176352454379652494_" display="inline">
		<polygon fill="#FFFFFF" points="15.8,14.8 15.8,0 14.8,0 14.8,13.8 		"/>
		<polygon fill="#FFFFFF" points="14.7,15.8 0,15.8 0,14.8 13.7,14.8 		"/>
	</g>
</g>
<g>
	<g id="Corner">
		<polygon fill="#FFFFFF" stroke="#FFFFFF" stroke-miterlimit="10" points="10.9,11.8 10.9,26.5 11.9,26.5 11.9,12.8 		"/>
		<polygon fill="#FFFFFF" stroke="#FFFFFF" stroke-miterlimit="10" points="12,10.8 26.7,10.8 26.7,11.8 13,11.8 		"/>
	</g>
	<g id="Corner_00000019647889368453577410000018302667667796209026_">
		<polygon fill="#FFFFFF" stroke="#FFFFFF" stroke-miterlimit="10" points="107.2,11.8 107.2,26.5 106.2,26.5 106.2,12.8 		"/>
		<polygon fill="#FFFFFF" stroke="#FFFFFF" stroke-miterlimit="10" points="106.1,10.8 91.3,10.8 91.3,11.8 105.1,11.8 		"/>
	</g>
	<g id="Corner_00000151510914645080986160000014695696509730633091_">
		<polygon fill="#FFFFFF" stroke="#FFFFFF" stroke-miterlimit="10" points="10.9,106.1 10.9,91.3 11.9,91.3 11.9,105.1 		"/>
		<polygon fill="#FFFFFF" stroke="#FFFFFF" stroke-miterlimit="10" points="12,107.1 26.7,107.1 26.7,106.1 13,106.1 		"/>
	</g>
	<g id="Corner_00000146485451743461291910000010393250272815347363_">
		<polygon fill="#FFFFFF" stroke="#FFFFFF" stroke-miterlimit="10" points="107.2,106.1 107.2,91.3 106.2,91.3 106.2,105.1 		"/>
		<polygon fill="#FFFFFF" stroke="#FFFFFF" stroke-miterlimit="10" points="106.1,107.1 91.3,107.1 91.3,106.1 105.1,106.1 		"/>
	</g>
</g>
</svg>
