<?xml version="1.0" encoding="utf-8"?>
<!-- Generator: Adobe Illustrator 25.3.1, SVG Export Plug-In . SVG Version: 6.00 Build 0)  -->
<svg version="1.1" baseProfile="tiny" id="multitool"
	 xmlns="http://www.w3.org/2000/svg" xmlns:xlink="http://www.w3.org/1999/xlink" x="0px" y="0px" viewBox="0 0 64.3 171.1"
	 overflow="visible" xml:space="preserve">
<path d="M58.1,2H6.2L2,6.2v105.3l4.2,4.2h51.9l4.2-4.2V6.2L58.1,2z M7.6,112.3l-2.1-2.2v-4h53.3v3.9l-2.3,2.3H7.6z M5.5,89.9v-6.2
	h53.3v6.2H5.5z M58.9,94.8v6.2H5.5v-6.2H58.9z M58.9,72.5v6.2H5.5v-6.2H58.9z M58.9,61.4v6.1H5.5v-6.1H58.9z M58.9,50.2v6.2H5.5
	v-6.2H58.9z M58.9,39v6.2H5.5V39H58.9z M58.9,27.8V34H5.5v-6.2H58.9z M56.7,5.5l2.1,2.1v4.1H5.5V7.6l2.1-2.1H56.7z M58.9,16.7v6.2
	H5.5v-6.2H58.9z"/>
</svg>
