<?xml version="1.0" encoding="utf-8"?>
<!-- Generator: Adobe Illustrator 25.3.1, SVG Export Plug-In . SVG Version: 6.00 Build 0)  -->
<svg version="1.1" baseProfile="tiny" id="multitool"
	 xmlns="http://www.w3.org/2000/svg" xmlns:xlink="http://www.w3.org/1999/xlink" x="0px" y="0px" viewBox="0 0 64.3 171.1"
	 overflow="visible" xml:space="preserve">
<path d="M62.3,6.2L58.1,2H6.2L2,6.2v105.3l4.2,4.2h51.9l3.5-3.5h0.3v-0.3l0.4-0.4V6.2z M7.6,112.3l-2.1-2.2V94.8h53.3V110l-2.3,2.3
	H7.6z M58.8,89.9H5.5V72.5h53.4L58.8,89.9z M58.9,50.2v17.3H5.5V50.2H58.9z M58.9,27.8v17.4H5.5V27.8H58.9z M56.7,5.5l2.1,2.1
	l0.1,15.3H5.5V7.6l2.1-2.1H56.7z"/>
</svg>
