<?xml version="1.0" encoding="utf-8"?>
<!-- Generator: Adobe Illustrator 25.3.1, SVG Export Plug-In . SVG Version: 6.00 Build 0)  -->
<svg version="1.1" baseProfile="tiny" id="multitool"
	 xmlns="http://www.w3.org/2000/svg" xmlns:xlink="http://www.w3.org/1999/xlink" x="0px" y="0px" viewBox="0 0 64.3 171.1"
	 overflow="visible" xml:space="preserve">
<path d="M62.3,6.2L58.1,2H6.2L2,6.2v75.3l4.2,4.2h51.9l3.5-3.5h0.3v-0.3l0.4-0.4V6.2z M7.6,82.3l-2.1-2.2v-9.3h53.3V80l-2.3,2.3H7.6
	z M58.8,65.9H5.5V54.5h53.4L58.8,65.9z M58.9,38.2v11.3H5.5V38.2H58.9z M58.9,21.8v11.4H5.5V21.8H58.9z M56.7,5.5l2.1,2.1l0.1,9.3
	H5.5V7.6l2.1-2.1H56.7z"/>
</svg>
