<?xml version="1.0" encoding="UTF-8"?>
<svg id="multitool" xmlns="http://www.w3.org/2000/svg" baseProfile="tiny" version="1.2" viewBox="0 0 80 154">
  <path d="M104.4,49.8H-34.3c-6.9,0-11.2,4.1-11.2,11.3v101.8c0,7.4,4,11.3,11.3,11.3H104.4c11.8,0,21.3-9.5,21.3-21.3v-81.8c0-14.5-8.2-21.3-21.3-21.3h0ZM119.3,156.1c0,10.2-5.6,16-15.9,16H19.2c-6.1,0-6-3-6-8V60.9c0-4.3,0-8,6-8h92c4.5,0,8.2,3.7,8.2,8.2v95.1h-.1Z" display="none" fill="#252317" stroke-width="0"/>
  <path d="M80,141.9V11.9c0-6.6-5.4-11.9-12-11.9H12C5.4,0,0,5.4,0,12v130c0,6.6,5.4,12,12,12h56c6.6,0,12-5.4,12-12h0ZM15.1,148.9c-6.6,0-12-5.4-12-12v-65c0-6.6,5.4-12,12-12h49.9c6.6,0,12,5.4,12,12v65c0,6.6-5.4,12-12,12H15h.1Z" fill="#252317" stroke-width="0"/>
</svg>