<?xml version="1.0" encoding="UTF-8"?>
<svg id="multitool" xmlns="http://www.w3.org/2000/svg" baseProfile="tiny" version="1.2" viewBox="0 0 171 154">
  <path d="M149.9,49.8H11.2C4.3,49.8,0,53.9,0,61.1v101.8c0,7.4,4,11.3,11.3,11.3h138.6c11.8,0,21.3-9.5,21.3-21.3v-81.8c0-14.5-8.2-21.3-21.3-21.3ZM164.8,156.1c0,10.2-5.6,16-15.9,16h-84.2c-6.1,0-6-3-6-8V60.9c0-4.3,0-8,6-8h92c4.5,0,8.2,3.7,8.2,8.2v95.1h0Z" display="none" fill="#252317" stroke-width="0"/>
  <path d="M159.1,0H11.9C5.3,0,0,5.4,0,12v130.1c0,6.6,5.4,12,12,12h147.2c6.6,0,12-5.4,12-12V12c0-6.6-5.4-12-12-12ZM166.1,139c0,6.6-5.4,12-12,12h-82.2c-6.6,0-12-5.4-12-12V15c0-6.6,5.4-12,12-12h82.2c6.6,0,12,5.4,12,12v124.1Z" fill="#252317" stroke-width="0"/>
</svg>