<?xml version="1.0" encoding="utf-8"?>
<!-- Generator: Adobe Illustrator 27.8.0, SVG Export Plug-In . SVG Version: 6.00 Build 0)  -->
<svg version="1.1" baseProfile="tiny" id="Layer_1" xmlns="http://www.w3.org/2000/svg" xmlns:xlink="http://www.w3.org/1999/xlink"
	 x="0px" y="0px" viewBox="0 0 117.6 222.9" overflow="visible" xml:space="preserve">
<path fill="#FFFFFF" d="M111.9,0H5.7C2.6,0,0,2.6,0,5.7v18.9c0,3.2,2.6,5.7,5.7,5.7h68.5c3.1,0,5.6,2.5,5.7,5.5c0,0.1,0,0.1,0,0.2
	l0,18.1l0,36.3l-0.1,126.7c0,3.2,2.6,5.7,5.7,5.7h26.2c3.2,0,5.7-2.6,5.7-5.7l0.1-211.4C117.6,2.6,115.1,0,111.9,0z M111.4,214.4
	c0,0.9-0.8,1.7-1.7,1.7H87.5c-0.9,0-1.7-0.8-1.7-1.7L85.9,8.2c0-0.9,0.8-1.7,1.7-1.7h22.2c0.9,0,1.7,0.8,1.7,1.7L111.4,214.4z"/>
</svg>
