<?xml version="1.0" encoding="utf-8"?>
<!-- Generator: Adobe Illustrator 25.4.1, SVG Export Plug-In . SVG Version: 6.00 Build 0)  -->
<svg version="1.1" baseProfile="tiny" xmlns="http://www.w3.org/2000/svg" xmlns:xlink="http://www.w3.org/1999/xlink" x="0px"
	 y="0px" viewBox="0 0 430 90" overflow="visible" xml:space="preserve">
<g id="Art">
	<path fill="#BDB17A" d="M382.7,2.2h-34.3h-34.3h-34.3l-34.3,0h-34.3h-34.3l-34.3,0h-34.3H73.9l-34.3,0l0,85.8l34.3,0h34.3h34.3
		l34.3,0h34.3h34.3l34.3,0h34.3h34.3l34.3,0L382.7,2.2z M40.5,87.1l0-84.1l32.6,0l0,84.1L40.5,87.1z M74.8,87.1l0-84.1h32.6l0,84.1
		H74.8z M109.1,87.1l0-84.1h32.6l0,84.1H109.1z M143.4,87.1l0-84.1l32.6,0l0,84.1L143.4,87.1z M177.7,87.1l0-84.1h32.6l0,84.1H177.7
		z M212,87.1l0-84.1h32.6l0,84.1H212z M246.3,87.1l0-84.1l32.6,0l0,84.1L246.3,87.1z M280.6,87.1l0-84.1h32.6l0,84.1H280.6z
		 M314.9,87.1l0-84.1h32.6l0,84.1H314.9z M349.2,87.1l0-84.1h32.6l0,84.1L349.2,87.1z"/>
	<g>
		<path fill="#FFFFF0" d="M395.6,25.1h-10.9l0-23.1V0h-2L39.6,0h-2v2l0,86v2h2l343.1,0h2v-2l0-25.4h10.9V25.1z M39.6,88l0-86
			l343.1,0l0,86L39.6,88z"/>
	</g>
	<g>
		<rect x="419.2" y="35.1" fill="#FFFFF0" width="1" height="20.5"/>
	</g>
	<g>
		<rect x="409.5" y="44.8" fill="#FFFFF0" width="20.5" height="1"/>
	</g>
	<g>
		<rect y="44.8" fill="#FFFFF0" width="20" height="1"/>
	</g>
</g>
<g id="Borders">
</g>
</svg>
