<?xml version="1.0" encoding="utf-8"?>
<!-- Generator: Adobe Illustrator 25.4.1, SVG Export Plug-In . SVG Version: 6.00 Build 0)  -->
<svg version="1.1" baseProfile="tiny" xmlns="http://www.w3.org/2000/svg" xmlns:xlink="http://www.w3.org/1999/xlink" x="0px"
	 y="0px" viewBox="0 0 300 46" overflow="visible" xml:space="preserve">
<g id="Art">
	<polygon fill="#FFFFF0" points="299.8,22.2 299.8,8.4 298.3,8.4 298.3,22.2 262.6,22.2 262.6,12.9 261.1,12.9 261.1,22.2 
		225.4,22.2 225.4,12.9 223.9,12.9 223.9,22.2 188.3,22.2 188.3,12.9 186.7,12.9 186.7,22.2 151.1,22.2 151.1,8.4 149.6,8.4 
		149.6,22.2 149.5,22.2 113.9,22.2 113.9,12.9 112.4,12.9 112.4,22.2 76.7,22.2 76.7,12.9 75.2,12.9 75.2,22.2 39.5,22.2 39.5,12.9 
		38,12.9 38,22.2 2.3,22.2 2.3,8.4 0.8,8.4 0.8,22.8 0.8,22.8 0.8,24.2 149.5,24.2 151.1,24.2 299.8,24.2 299.8,22.2 	"/>
	<g>
		<path fill="#FFFFFF" d="M3.6,38.5L2.8,39H0.9L0,38.5v-4.3l0.9-0.5h1.9l0.9,0.5V38.5z M0.7,34.4v4h2.1v-4H0.7z"/>
	</g>
	<g>
		<path fill="#FFFFFF" d="M288.8,39h-1.8l-0.9-0.5v-0.8h0.7v0.7h2v-1.7h-1.5v-0.7h1.5v-1.6h-2V35h-0.7v-0.8l0.9-0.5h1.8l0.9,0.5v1.7
			l-0.7,0.4v0l0.7,0.4v1.9L288.8,39z"/>
		<path fill="#FFFFFF" d="M291.8,34.4v1.8l0.5-0.3h1.3l0.9,0.5v2.1l-0.9,0.5h-1.7l-0.9-0.5v-4.3l0.9-0.5h1.7l0.9,0.5V35h-0.7v-0.7
			H291.8z M291.8,36.6v1.8h1.9v-1.8H291.8z"/>
		<path fill="#FFFFFF" d="M299.4,38.5l-0.9,0.5h-1.9l-0.9-0.5v-4.3l0.9-0.5h1.9l0.9,0.5V38.5z M296.5,34.4v4h2.1v-4H296.5z"/>
	</g>
	<g>
		<path fill="#FFFFFF" d="M144.8,38.3v-1.8l-0.5,0.3H143l-0.9-0.5v-2.1l0.9-0.5h1.7l0.9,0.5v4.3l-0.9,0.5H143l-0.9-0.5v-0.8h0.7v0.7
			H144.8z M144.8,36.1v-1.8h-1.9v1.8H144.8z"/>
		<path fill="#FFFFFF" d="M150.5,38.5l-0.9,0.5h-1.9l-0.9-0.5v-4.3l0.9-0.5h1.9l0.9,0.5V38.5z M147.6,34.4v4h2.1v-4H147.6z"/>
	</g>
</g>
<g id="Borders">
</g>
</svg>
