<?xml version="1.0" encoding="utf-8"?>
<!-- Generator: Adobe Illustrator 25.4.1, SVG Export Plug-In . SVG Version: 6.00 Build 0)  -->
<svg version="1.1" baseProfile="tiny" xmlns="http://www.w3.org/2000/svg" xmlns:xlink="http://www.w3.org/1999/xlink" x="0px"
	 y="0px" viewBox="0 0 14 480" overflow="visible" xml:space="preserve">
<g id="Art">
	<path fill="#7B4F00" d="M14,0h-2.2H2.2H0v1.9l0,45.9v1.9h0l0,45.9v1.9h0l0,45.9v1.9h0l0,45.9v1.9h0l0,44.9v1.9h0l0,45.8v1.9h0
		l0,45.9v1.9h0l0,45.9v1.9h0l0,45.9v1.9h0l0,44.9v1.9h2.2h9.7H14v-1.9l0-44.9v-1.9h0l0-45.9v-1.9h0l0-45.9v-1.9h0l0-45.9v-1.9h0
		l0-45.9V238h0l0-44.8v-1.9h0l0-45.9v-1.9h0l0-45.9v-1.9h0l0-45.9v-1.9h0l0-45.9V0z M2.2,1.9h9.7l0,45.9H2.2h0L2.2,1.9z M2.2,49.7
		h9.7h0l0,45.9H2.2h0L2.2,49.7z M2.2,97.6h9.7h0l0,45.9H2.2h0L2.2,97.6z M2.2,145.4h9.7h0l0,45.9H2.2h0L2.2,145.4z M11.8,240
		L11.8,240v45.8H2.2h0l0-45.8H11.8z M2.2,238L2.2,238v-44.8h9.7h0l0,44.8H2.2z M11.8,476.1H2.2l0-44.9h9.7h0L11.8,476.1z
		 M11.8,429.3H2.2h0l0-45.9h9.7h0L11.8,429.3z M11.8,381.5H2.2h0l0-45.9h9.7h0L11.8,381.5z M11.8,333.6H2.2h0l0-45.9h9.7h0
		L11.8,333.6z"/>
</g>
<g id="Borders">
</g>
</svg>
