<?xml version="1.0" encoding="utf-8"?>
<!-- Generator: Adobe Illustrator 25.4.1, SVG Export Plug-In . SVG Version: 6.00 Build 0)  -->
<svg version="1.1" baseProfile="tiny" xmlns="http://www.w3.org/2000/svg" xmlns:xlink="http://www.w3.org/1999/xlink" x="0px"
	 y="0px" viewBox="0 0 14 240" overflow="visible" xml:space="preserve">
<g id="Art">
	<path fill="#7B4F00" d="M14,0h-2.2H2.2H0v1.9l0,45.9v1.9h0l0,45.9v1.9h0l0,45.9v1.9h0l0,45.9v1.9h0l0,44.9v1.9h2.2h9.7H14v-1.9
		l0-44.9v-1.9h0l0-45.9v-1.9h0l0-45.9v-1.9h0l0-45.9v-1.9h0l0-45.9V0z M2.2,1.9h9.7l0,45.9H2.2h0L2.2,1.9z M11.8,145.4l0,45.9H2.2h0
		l0-45.9H11.8L11.8,145.4z M2.2,143.5L2.2,143.5V97.6h9.7h0l0,45.9H2.2z M2.2,95.6L2.2,95.6V49.7h9.7h0l0,45.9H2.2z M11.8,238.1H2.2
		l0-44.9h9.7h0L11.8,238.1z"/>
</g>
<g id="Borders">
</g>
</svg>
