<?xml version="1.0" encoding="utf-8"?>
<!-- Generator: Adobe Illustrator 25.4.1, SVG Export Plug-In . SVG Version: 6.00 Build 0)  -->
<svg version="1.1" baseProfile="tiny" xmlns="http://www.w3.org/2000/svg" xmlns:xlink="http://www.w3.org/1999/xlink" x="0px"
	 y="0px" viewBox="0 0 380 160" overflow="visible" xml:space="preserve">
<g id="Art">
</g>
<g id="Borders">
	<g>
		<path fill="#110F05" d="M122,23.7l9.1,28.5c18.5-6.1,38.3-9.5,58.9-9.5V13.1C166.3,13.1,143.4,16.8,122,23.7z"/>
		<path fill="#232323" d="M60.2,54.9l17.9,24.9c16-11.8,33.8-21.2,53-27.6L122,23.7C99.7,30.9,78.9,41.5,60.2,54.9z"/>
		<path fill="#444444" d="M11,103.1l25.6,18.8c11.6-16.1,25.6-30.3,41.5-42.1L60.2,54.9C41.5,68.3,24.9,84.6,11,103.1z"/>
		<path fill="#FDAB00" d="M319.8,54.9l-17.9,24.9c15.9,11.8,29.9,26,41.5,42.1l25.6-18.8C355.1,84.6,338.5,68.3,319.8,54.9z"/>
		<path fill="#4F4307" d="M258,23.7l-9.1,28.5c19.2,6.4,37,15.7,53,27.6l17.9-24.9C301.1,41.5,280.3,30.9,258,23.7z"/>
		<path fill="#312A01" d="M190,13.1v29.7c0,0,0,0,0,0c20.6,0,40.3,3.3,58.9,9.5l9.1-28.5C236.6,16.8,213.7,13.1,190,13.1z"/>
		<g>
			<path fill="none" d="M190,100.5c-44,0-83.1,21.8-107.2,55.3l4.4,3.2C110.3,126.9,147.8,106,190,106c42.2,0,79.7,20.9,102.8,53.1
				l4.4-3.2C273.1,122.3,234,100.5,190,100.5z"/>
			<path fill="#FFFFFF" d="M190,98.9c-44.5,0-84,22.1-108.5,56l1.3,0.9c24.1-33.5,63.2-55.3,107.2-55.3c44,0,83.1,21.8,107.2,55.3
				l1.3-0.9C274,121,234.5,98.9,190,98.9z"/>
			<path fill="#FFFFFF" d="M190,106c-42.2,0-79.7,20.9-102.8,53.1l1.2,0.9c22.9-31.7,59.9-52.4,101.6-52.4
				c41.7,0,78.7,20.7,101.6,52.4l1.2-0.9C269.7,126.9,232.2,106,190,106z"/>
		</g>
		<g>
			<path fill="none" stroke="#FFFFFF" stroke-width="2" stroke-miterlimit="10" d="M375.9,98.9 M325.1,47.4 M261,14.4 M190,3
				 M119,14.4 M54.9,47.4 M4.1,98.9"/>
		</g>
		<path fill="#FFFFFF" d="M375.3,96.6l-32.4,23.8c-11.4-15.7-25.1-29.6-40.6-41.1l23.6-32.8l-1.6-1.2l-23.6,32.8
			C285.2,66.9,268,58,249.6,51.8l8.3-25.8l4.1-12.8l-1.9-0.6l-12.4,38.6c-17.9-5.8-36.9-9-56.7-9.1V1.5h-2v40.6
			c-19.8,0.1-38.8,3.3-56.7,9.1l-12.4-38.6l-1.9,0.6l12.4,38.6C112,58,94.8,66.9,79.3,78.2L55.7,45.3l-1.6,1.2l23.6,32.8
			c-15.5,11.5-29.2,25.4-40.6,41.1L4.7,96.6l-1.2,1.6l50.2,36.9l0.6-0.8c10.4-14.4,22.9-27.1,37.1-37.6l0,0
			c14.3-10.5,30-18.7,46.7-24.2l0,0c16.8-5.5,34.2-8.3,51.8-8.3h0c17.6,0,35.1,2.8,51.8,8.3l0,0c16.7,5.5,32.5,13.6,46.7,24.2
			c14.3,10.5,26.7,23.1,37.1,37.6l0.6,0.8l50.2-36.9L375.3,96.6z M53.3,132.4l-14-10.3C50.5,106.6,64,92.9,79.2,81.4l10.3,14.3
			C75.6,106,63.5,118.4,53.3,132.4z M91,94.6L80.8,80.3C96,69.1,113,60.2,131.2,54.1l5.4,17C120.3,76.5,105,84.4,91,94.6z
			 M138.5,70.4l-5.4-17c17.7-5.7,36.5-8.9,56-9v17.9C171.8,62.4,154.8,65.1,138.5,70.4z M241.5,70.4c-16.4-5.3-33.4-8-50.5-8.1V44.4
			c19.5,0.1,38.3,3.3,56,9L241.5,70.4z M243.4,71l5.4-17c18.2,6.1,35.2,15,50.4,26.2L289,94.6C275,84.4,259.7,76.5,243.4,71z
			 M290.5,95.7l10.3-14.3c15.2,11.4,28.7,25.1,39.9,40.6l-14,10.3C316.5,118.4,304.4,106,290.5,95.7z"/>
	</g>
</g>
</svg>
