<?xml version="1.0" encoding="utf-8"?>
<!-- Generator: Adobe Illustrator 28.2.0, SVG Export Plug-In . SVG Version: 6.00 Build 0)  -->
<svg version="1.1" baseProfile="tiny" id="Layer_1" xmlns="http://www.w3.org/2000/svg" xmlns:xlink="http://www.w3.org/1999/xlink"
	 x="0px" y="0px" viewBox="0 0 123.8 123.8" overflow="visible" xml:space="preserve">
<path id="colorstyle:Disabled" d="M116.3,69.9V55.1l4.5-4.5V11.9c-3.5-3.5-5.5-5.5-9-9H86.2l-5.7,5.7H45.6L39.8,3H11.9
	c-3.5,3.5-5.5,5.5-9,9v37.4l4.5,4.5v14.8L3,73.2v38.6c3.5,3.5,5.5,5.5,9,9h25.6l5.7-5.7h34.9l5.7,5.7h27.9c3.5-3.5,5.5-5.5,9-9V74.4
	L116.3,69.9z"/>
<path id="opacity:50_colorstyle:Base" d="M111.8,3c3.5,3.5,5.5,5.5,9,9v38.6l-4.5,4.5v14.8l4.5,4.5v37.4c-3.5,3.5-5.5,5.5-9,9H83.9
	l-5.7-5.7H43.3l-5.7,5.7H11.9c-3.5-3.5-5.5-5.5-9-9V73.2l4.5-4.5V53.9L3,49.4V11.9c3.5-3.5,5.5-5.5,9-9h27.9l5.7,5.7h34.9L86.2,3
	H111.8 M113.1,0h-1.2H86.2H85l-0.9,0.9l-4.9,4.9H46.8l-4.9-4.9L41.1,0h-1.2H11.9h-1.2L9.8,0.9L4.1,6.6L0.9,9.8L0,10.7v1.2v37.4v1.2
	l0.9,0.9l3.6,3.6v12.4l-3.6,3.6L0,72v1.2v38.6v1.2l0.9,0.9L6,119l3.9,3.9l0.9,0.9h1.2h25.6h1.2l0.9-0.9l4.9-4.9h32.4l4.9,4.9
	l0.9,0.9h1.2h27.9h1.2l0.9-0.9l3.3-3.3l5.7-5.7l0.9-0.9v-1.2V74.4v-1.2l-0.9-0.9l-3.6-3.6V56.3l3.6-3.6l0.9-0.9v-1.2V11.9v-1.2
	l-0.9-0.9l-7.2-7.2l-1.8-1.8L113.1,0L113.1,0z"/>
</svg>
