<?xml version="1.0" encoding="utf-8"?>
<!-- Generator: Adobe Illustrator 28.2.0, SVG Export Plug-In . SVG Version: 6.00 Build 0)  -->
<svg version="1.1" baseProfile="tiny" id="Layer_1" xmlns="http://www.w3.org/2000/svg" xmlns:xlink="http://www.w3.org/1999/xlink"
	 x="0px" y="0px" viewBox="0 0 806.8 235.6" overflow="visible" xml:space="preserve">
<g>
	<rect x="96.5" y="47.8" fill="#092C6D" width="41" height="41.3"/>
	<path fill="#092C6D" d="M96.9,143.5v50.9H41V47.8H0v142.1c0,25.1,20.4,45.5,45.5,45.5h92.4v-91.9H96.9z"/>
	<path fill="#092C6D" d="M282.8,48.1v92.6h-35.3V48.1h-25.9v89.8c0,15.9,12.9,28.7,28.7,28.7h58.4V48.1H282.8z"/>
	<path fill="#092C6D" d="M345,166.6V74h35.3v92.6h25.9V76.9c0-15.9-12.9-28.7-28.7-28.7h-58.4v118.5H345z"/>
	<path fill="#092C6D" d="M530,140.8l-51.5,0l0-66.7l51.5,0V48.1l-48.6,0c-15.9,0-28.7,12.9-28.7,28.7V138
		c0,15.8,12.8,28.7,28.7,28.7l48.7,0V140.8z"/>
	<rect x="416.6" y="48.1" fill="#092C6D" width="25.6" height="118.5"/>
	<path fill="#092C6D" d="M569.1,48.1c-15.9,0-28.7,12.9-28.7,28.7v89.8H599c15.9,0,28.7-12.9,28.7-28.7V48.1H569.1z M601.9,140.8
		h-35.6V74h35.6V140.8z"/>
	<path fill="#092C6D" d="M709.2,74V48.1h-42.4c-15.9,0-28.7,12.9-28.7,28.7v89.8H664V74H709.2z"/>
	<path fill="#092C6D" d="M806.8,123.7V76.9c0-15.9-12.9-28.7-28.7-28.7l-30.1,0c-15.6,0-28.3,12.6-28.3,28.2v61.5
		c0,15.9,12.9,28.7,28.7,28.7h58.4v-25.9h-61.2V74h35.3v23.7h-25.3v25.9L806.8,123.7z"/>
</g>
<g>
	<path fill="#999999" d="M48.6,0v187.6h41V137h55.5v50.7h41V45.9c0-25.4-20.6-45.9-45.9-45.9H48.6z M145.1,96H89.6V41h55.5V96z"/>
	<g>
		<path fill="#999999" d="M250.8,175.7h-14.4c-8.2,0-14.8,6.6-14.8,14.8v45.1h13.1v-16.2h17.7v16.2h13.1v-45.3
			C265.5,182.3,259,175.7,250.8,175.7z M252.4,206.4h-17.7v-17.6h17.7V206.4z"/>
		<path fill="#999999" d="M378.7,175.7h-14.5c-8.1,0-14.7,6.6-14.7,14.7v45.2h13.1v-16.2h17.7v16.2h13.1v-45.3
			C393.4,182.3,386.9,175.7,378.7,175.7z M380.3,206.4h-17.7v-17.6h17.7V206.4z"/>
		<path fill="#999999" d="M521.4,175.7H507c-8.2,0-14.9,6.7-14.9,14.9v45.1h13.1v-16.2H523v16.2h13.1v-45.3
			C536.1,182.3,529.5,175.7,521.4,175.7z M523,206.4h-17.7v-17.6H523V206.4z"/>
		<path fill="#999999" d="M649.3,175.7h-14.5c-8.2,0-14.8,6.6-14.8,14.8v45.2h13.1v-16.2h17.7v16.2H664v-45.3
			C664,182.3,657.4,175.7,649.3,175.7z M650.9,206.4h-17.7v-17.6h17.7V206.4z"/>
		<path fill="#999999" d="M441.6,190.2v30.6c0,8.2,6.6,14.8,14.8,14.8h14.8c8,0,14.5-6.5,14.5-14.5v-23.5l-22,0.1v13.1h8.9v11.8
			h-17.9v-33.8h31v-13.1h-29.5C448.1,175.7,441.6,182.2,441.6,190.2z"/>
		<path fill="#999999" d="M328.3,175.7h-41.6c-8.2,0-14.8,6.6-14.8,14.8v45.2h13.1v-46.9h15.8v46.9h0H314h0v-46.9h16v46.9H343v-45.3
			C343,182.3,336.5,175.7,328.3,175.7z"/>
		<path fill="#999999" d="M413,175.7h-13.1V221c0,8.1,6.6,14.7,14.7,14.7h21.6v-13.1H413V175.7z"/>
		<path fill="#999999" d="M668.7,175.7v13.1h12v32.1c0,8,6.5,14.5,14.5,14.5l14.4,0v-13l-15.8,0v-33.5h15.8v-13.1H668.7z"/>
		<path fill="#999999" d="M792.1,175.4h-16.2v0h-13.1v0v59.9v0l29.3,0c8.1,0,14.7-6.6,14.7-14.7v-30.6
			C806.8,182,800.2,175.4,792.1,175.4z M793.7,222.2h-17.7v-33.7h17.7V222.2z"/>
		<path fill="#999999" d="M598.9,175.7h-41.6c-8.2,0-14.8,6.6-14.8,14.8v45.2h13.1v-46.9h15.8v46.9h0h13.1h0v-46.9h16v46.9h13.1
			v-45.3C613.6,182.3,607,175.7,598.9,175.7z"/>
		<path fill="#999999" d="M727.8,222.3v-10.4h22.8v-13h-22.8v-10.1h28.4v-13h-26.6c-8.2,0-14.8,6.6-14.8,14.8v30.3
			c0,8,6.5,14.5,14.5,14.5l27.1,0v-13H727.8z"/>
	</g>
</g>
</svg>
