<?xml version="1.0" encoding="utf-8"?>
<!-- Generator: Adobe Illustrator 26.0.2, SVG Export Plug-In . SVG Version: 6.00 Build 0)  -->
<svg version="1.1" xmlns="http://www.w3.org/2000/svg" xmlns:xlink="http://www.w3.org/1999/xlink" x="0px" y="0px"
	 viewBox="0 0 100 117" style="enable-background:new 0 0 100 117;" xml:space="preserve">
<style type="text/css">
	.st0{fill:#EAE386;}
</style>
<g id="salvage">
	<path id="Borders" class="st0" d="M89.9,117.2H100V0.1L89.9,0v4L96,4.1v8.5h-6.1v4H96v8.6h-6.1v4H96v84h-6.1V117.2z M0,0v117.2h9.9
		v-4H4v-84h5.9v-4H4v-8.6h5.9v-4H4V4h5.9V0H0z"/>
	<path id="Bars_00000008867810027309511980000003667871424335499698_" class="st0" d="M23,3.1l0-2L77,1l0,2L23,3.1z M77,13.6H23v2
		h54V13.6z M77,26.2H23v2h54V26.2z M77,38.8H23v2h54V38.8z M77,51.3H23v2h54V51.3z M77,63.9H23v2h54V63.9z M77,76.5H23v2h54V76.5z
		 M77,89H23v2h54V89z M77,101.6H23v2h54V101.6z M77,114.2H23v2h54V114.2z"/>
</g>
<g id="salvage_copy">
	<path id="Borders_00000045617912687694375950000000095058444669504188_" class="st0" d="M89.9,117.2H100V0.1L89.9,0v4L96,4.1v8.5
		h-6.1v4H96v8.6h-6.1v4H96v84h-6.1V117.2z M0,0v117.2h9.9v-4H4v-84h5.9v-4H4v-8.6h5.9v-4H4V4h5.9V0H0z"/>
</g>
</svg>
