<?xml version="1.0" encoding="utf-8"?>
<!-- Generator: Adobe Illustrator 26.0.2, SVG Export Plug-In . SVG Version: 6.00 Build 0)  -->
<svg version="1.1" xmlns="http://www.w3.org/2000/svg" xmlns:xlink="http://www.w3.org/1999/xlink" x="0px" y="0px"
	 viewBox="0 0 100 117" style="enable-background:new 0 0 100 117;" xml:space="preserve">
<style type="text/css">
	.st0{fill:#EAE386;}
</style>
<g id="salvage">
	<path id="Borders" class="st0" d="M89.9,4H96v83.9h-6.1v4H96v8.6h-6.1v4H96v8.5l-6.1,0.1v4L100,117V0H89.9V4z M9.9,117.1v-4H4v-8.6
		h5.9v-4H4v-8.6h5.9v-4H4V4h5.9V0H0v117.1H9.9z"/>
	<path id="Bars_00000008867810027309511980000003667871424335499698_" class="st0" d="M77,116.1L23,116l0-2l54,0.1L77,116.1z
		 M77,101.5H23v2h54V101.5z M77,88.9H23v2h54V88.9z M77,76.3H23v2h54V76.3z M77,63.9H23v2h54V63.9z M77,51.2H23v2h54V51.2z M77,38.7
		H23v2h54V38.7z M77,26.2H23v2h54V26.2z M77,13.5H23v2h54V13.5z M77,1H23v2h54V1z"/>
</g>
<g id="salvage_copy">
	<path id="Borders_00000147909985664939989080000000154906723332863653_" class="st0" d="M89.9,4H96v83.9h-6.1v4H96v8.6h-6.1v4H96
		v8.5l-6.1,0.1v4L100,117V0H89.9V4z M9.9,117.1v-4H4v-8.6h5.9v-4H4v-8.6h5.9v-4H4V4h5.9V0H0v117.1H9.9z"/>
</g>
</svg>
