<?xml version="1.0" encoding="utf-8"?>
<!-- Generator: Adobe Illustrator 26.3.1, SVG Export Plug-In . SVG Version: 6.00 Build 0)  -->
<svg version="1.1" baseProfile="tiny" id="Layer_2_00000109710672556821065370000006173369108229199534_"
	 xmlns="http://www.w3.org/2000/svg" xmlns:xlink="http://www.w3.org/1999/xlink" x="0px" y="0px" viewBox="0 0 386.3 672"
	 overflow="visible" xml:space="preserve">
<polygon fill="#FFFFFF" points="142.6,598.9 64.8,599.3 35.8,557 35.8,469.3 23.2,469.3 23.1,561 52.3,604.3 146.9,604.3 "/>
<polyline fill="none" stroke="#4D4D4E" stroke-miterlimit="10" points="183.1,603.8 361.5,603.8 361.4,511.4 333.1,469.5 
	54.3,469.6 "/>
<polygon fill="#FFFFFF" points="148.6,598.7 151.5,598.7 155.9,604.3 153,604.3 "/>
<polygon fill="#FFFFFF" points="156.7,598.7 159.6,598.7 164,604.3 161.1,604.3 "/>
<line fill="none" stroke="#F19220" stroke-miterlimit="10" x1="49.6" y1="469.5" x2="45.7" y2="469.5"/>
<line fill="none" stroke="#F19220" stroke-miterlimit="10" x1="50.9" y1="469.5" x2="51.8" y2="469.5"/>
<polygon fill="#A56C39" points="361.5,74 361.5,56.3 358.6,52.1 358.6,74 "/>
<polygon fill="#A56C39" points="32.9,86.4 24.3,93.1 24.3,141 36.1,141.1 36.1,86.4 "/>
<polygon fill="#A56C39" points="361.5,616 361.5,636.1 358,642.3 358,616 "/>
<polygon fill="#A56C39" points="36,592.9 36,586 48.4,604.2 43.8,604.2 "/>
<polygon fill="#A56C39" points="164,598.7 173,598.7 177.4,604.3 168.3,604.3 "/>
<path fill="#F19122" d="M36.5,587.7l10.9,16.1h-3.3l-7.6-11L36.5,587.7 M36,586.1v6.9l7.8,11.3h4.5L36,586.1L36,586.1L36,586.1z"/>
<path fill="#F19122" d="M172.8,599.2l3.6,4.5h-7.8l-3.6-4.5H172.8 M173,598.7H164l4.4,5.5h9.1L173,598.7L173,598.7z"/>
<polygon fill="#272426" points="181.1,597.1 176.5,591.6 69.8,591.6 46.8,558.5 46.8,477.3 329.3,477.3 353.3,513.2 353.3,597.1 "/>
<path fill="#A9A6D2" d="M329.9,476.3h-284l0,82.5l23.4,33.8H176l4.7,5.5h173.6v-85.2L329.9,476.3z M352.3,596.1H181.6l-4.1-4.8
	l-0.6-0.7H70.3l-22.5-32.4l0-79.9h281v0l23.5,35.2V596.1z"/>
<path fill="#464051" d="M23.2,154.7l-0.2,301.1h12.9l0.2-301.1H23.2z M33.9,453.8h-8.9l0.2-297.1h8.8L33.9,453.8z"/>
<path fill="#464051" d="M60.4,616.5l29.5,42.8h256.6l8.3-12.2v-30.5l0,0L60.4,616.5z M352.8,646.4l-7.4,10.8H90.9l-26.7-38.8
	l288.7,0l0,0h0h0V646.4z"/>
<path fill="#464051" d="M241.1,156.6l-0.2,297.3H66.7l-10.4-14V156.7L241.1,156.6 M243.1,154.6l-188.8,0.1v285.9l11.4,15.4h177.2
	L243.1,154.6L243.1,154.6L243.1,154.6z"/>
<path fill="#464051" d="M349.1,261.4v87.9h-87.9v-87.9H349.1 M351.1,259.4h-91.9v91.9h91.9V259.4L351.1,259.4z"/>
<path fill="#464051" d="M349.1,156.8v86.4h-87.9v-86.4H349.1 M351.1,154.8h-91.9v90.4h91.9V154.8L351.1,154.8L351.1,154.8z"/>
<path fill="#464051" d="M349.1,365.9v87.9h-87.9v-87.9H349.1 M351.1,363.9h-91.9v91.9h91.9V363.9L351.1,363.9z"/>
<path fill="#464051" d="M331,14l22.2,33.7L353.1,72l-328,0V14H331 M332.1,12h-309v62l332,0l0.2-26.9L332.1,12L332.1,12L332.1,12z"/>
<g>
	<polyline fill="none" stroke="#676767" stroke-miterlimit="10" points="53.6,141.6 346.6,141.6 348.1,140.4 	"/>
	<circle fill="#F19220" cx="350.7" cy="138.3" r="1.5"/>
</g>
<path fill="#F19122" d="M361,616.5V636l-2.5,4.4v-23.9H361 M361.5,616H358v26.3l3.5-6.2V616L361.5,616L361.5,616z"/>
<path fill="#F19220" d="M36.1,141H24.3V93.1l8.5-6.7h3.3v-1h-3.6l-9.2,7.2V142h12.8V141z"/>
<polygon fill="#A8A5D2" points="352.6,672 295.9,672 295.9,670 351.5,670 384.3,621.5 384.3,72.7 337.1,2 76.9,2 73.9,5.2 71.1,5.3 
	76,0 338.2,0 386.3,72.1 386.3,622.1 "/>
<polygon fill="#A8A5D2" points="71.2,668.6 8.7,574 7.7,82.5 11.5,78 11.6,10.9 17.4,4.7 62.6,4.7 67.3,0 7.5,0 0.1,7.8 0,580.7 
	61.6,672 287.1,672 283.2,668.6 "/>
</svg>
