<?xml version="1.0" encoding="utf-8"?>
<!-- Generator: Adobe Illustrator 26.3.1, SVG Export Plug-In . SVG Version: 6.00 Build 0)  -->
<svg version="1.1" baseProfile="tiny" id="Layer_2_00000000928470470531697120000001942185049530255279_"
	 xmlns="http://www.w3.org/2000/svg" xmlns:xlink="http://www.w3.org/1999/xlink" x="0px" y="0px" viewBox="0 0 432.4 74.9"
	 overflow="visible" xml:space="preserve">
<g>
	<rect x="311.3" y="62.6" fill="#A56C39" width="7.6" height="1"/>
	<rect x="324.3" y="62.6" fill="#A56C39" width="1.3" height="1"/>
	<rect x="304.4" y="62.6" fill="#A56C39" width="1.3" height="1"/>
	<path fill="#414658" d="M46.8,63.6H15.9l6.9-8.1h73.9l8.7,6.7h194.6v1H105l-8.7-6.7H53.2C53.2,56.5,46.8,63.6,46.8,63.6z
		 M18.1,62.6h28.3l5.5-6.1H23.3C23.3,56.5,18.1,62.6,18.1,62.6z"/>
</g>
<path fill="#50516B" d="M147.6,56h-3.4v-5h3.4C147.6,51,147.6,56,147.6,56z M150,51h-1.7v5h1.7V51z M152.9,51h-1.7v5h1.7V51z
	 M158.8,51h-4.6v5h4.6V51z M164.3,51H162v5h2.3V51z M174.4,51h-7.4v5h7.4V51z M206.9,56h3.4v-5h-3.4V56z M204.5,56h1.7v-5h-1.7V56z
	 M201.6,56h1.7v-5h-1.7V56z M195.7,56h4.6v-5h-4.6V56z M190.2,56h2.3v-5h-2.3V56z M180.1,56h7.4v-5h-7.4V56z M237.1,56h3.4v-5h-3.4
	V56z M234.8,56h1.7v-5h-1.7V56z M231.8,56h1.7v-5h-1.7V56z M225.9,56h4.6v-5h-4.6V56z M220.5,56h2.3v-5h-2.3V56z M210.3,56h7.4v-5
	h-7.4V56z M112.5,51h-3.4v5h3.4V51z M114.9,51h-1.7v5h1.7V51z M117.8,51h-1.7v5h1.7V51z M123.8,51h-4.6v5h4.6V51z M129.2,51h-2.3v5
	h2.3V51z M139.3,51H132v5h7.4V51z"/>
</svg>
