<?xml version="1.0" encoding="utf-8"?>
<!-- Generator: Adobe Illustrator 27.8.1, SVG Export Plug-In . SVG Version: 6.00 Build 0)  -->
<svg version="1.1" baseProfile="tiny" id="Layer_1" xmlns="http://www.w3.org/2000/svg" xmlns:xlink="http://www.w3.org/1999/xlink"
	 x="0px" y="0px" viewBox="0 0 256 128" overflow="visible" xml:space="preserve">
<path fill-rule="evenodd" fill="#FFFFFF" d="M4,0.2C4,0.2,88.2,0,103.5,0c3.7,0,5,0,7,2c5.9,6,28.7,28.7,30,30c2.1,2.1,4.8,3,8,3
	c23.3,0,103.5,0.2,103.5,0.2c2.2,0,4,1.8,4,4V124c0,2.2-1.8,4-4,4H4c-2.2,0-4-1.8-4-4V4.2C0,2,1.8,0.2,4,0.2z"/>
</svg>
