<?xml version="1.0" encoding="utf-8"?>
<!-- Generator: Adobe Illustrator 27.8.1, SVG Export Plug-In . SVG Version: 6.00 Build 0)  -->
<svg version="1.1" baseProfile="tiny" id="Layer_1" xmlns="http://www.w3.org/2000/svg" xmlns:xlink="http://www.w3.org/1999/xlink"
	 x="0px" y="0px" viewBox="0 0 100 100" overflow="visible" xml:space="preserve">
<path fill="#FFFFFF" d="M65.6,44.4c0,8.5-6.9,15.3-15.3,15.3c-8.5,0-15.3-6.9-15.3-15.3c0-8.5,6.9-15.3,15.3-15.3
	C58.7,29.1,65.6,36,65.6,44.4 M56.4,65H43.9c-9.2,0-22.7,3-22.7,11.1v10.7l28.9,9.1l28.9-9.1V76.1C79.1,68,65.7,65,56.4,65
	 M69.8,20.1c-4.2,0-8.1,1.7-10.8,4.5c7.6,3.4,12.9,11,12.9,19.8c0,2.2-0.3,4.3-0.9,6.2c7.9-0.6,14.1-7.2,14.1-15.3
	C85.1,27,78.2,20.1,69.8,20.1 M75.9,56h-7.4c-0.8,1.3-1.7,2.4-2.7,3.5c2.8,0.5,5.5,1.2,7.8,2.1c10.4,4.1,11.9,10.8,11.9,14.5v5.8
	l13.1-4.1V67.1C98.6,59,85.1,56,75.9,56 M30.2,20.1c-8.5,0-15.3,6.9-15.3,15.3c0,8.1,6.2,14.7,14.1,15.3c-0.6-2-0.9-4.1-0.9-6.2
	c0-8.8,5.3-16.5,12.9-19.8C38.3,21.8,34.5,20.1,30.2,20.1 M24.1,56c-9.2,0-22.7,3-22.7,11.1v10.7l13.1,4.1v-5.8
	c0-3.7,1.5-10.4,11.9-14.5c2.3-0.9,5-1.6,7.8-2.1c-1-1.1-2-2.2-2.7-3.5H24.1"/>
</svg>
