<?xml version="1.0" encoding="utf-8"?>
<!-- Generator: Adobe Illustrator 22.1.0, SVG Export Plug-In . SVG Version: 6.00 Build 0)  -->
<svg version="1.1" baseProfile="tiny" id="Layer_1" xmlns="http://www.w3.org/2000/svg" xmlns:xlink="http://www.w3.org/1999/xlink"
	 x="0px" y="0px" viewBox="0 0 100 100" xml:space="preserve">
<g>
	<path fill="#FFFFFF" d="M56.6,61.8H43.4c-2.6,0-4.6-2.1-4.6-4.6V6.3c0-2.6,2.1-4.6,4.6-4.6h13.3c2.6,0,4.6,2.1,4.6,4.6v50.8
		C61.3,59.7,59.2,61.8,56.6,61.8z"/>
</g>
<g>
	<path fill="#FFFFFF" d="M56.6,99.3H43.4c-2.6,0-4.6-2.1-4.6-4.6V81.4c0-2.6,2.1-4.6,4.6-4.6h13.3c2.6,0,4.6,2.1,4.6,4.6v13.3
		C61.3,97.2,59.2,99.3,56.6,99.3z"/>
</g>
</svg>
