<?xml version="1.0" encoding="utf-8"?>
<!-- Generator: Adobe Illustrator 22.1.0, SVG Export Plug-In . SVG Version: 6.00 Build 0)  -->
<svg version="1.1" baseProfile="tiny" id="Layer_1" xmlns="http://www.w3.org/2000/svg" xmlns:xlink="http://www.w3.org/1999/xlink"
	 x="0px" y="0px" viewBox="0 0 792 612" xml:space="preserve">
<g>
	<path fill="none" d="M417.9,254.4c0-19.4-7.5-37.6-21.2-51.3c-13.7-13.7-31.9-21.2-51.3-21.2s-37.6,7.5-51.3,21.2
		s-21.2,31.9-21.2,51.3s7.5,37.6,21.2,51.3c13.7,13.7,31.9,21.2,51.3,21.2s37.6-7.5,51.3-21.2C410.3,291.9,417.9,273.7,417.9,254.4z
		"/>
	<path d="M531.7,421.6L416,306c10.9-14.9,16.8-32.8,16.8-51.6c0-23.4-9.1-45.3-25.6-61.9c-16.5-16.5-38.5-25.6-61.9-25.6
		s-45.3,9.1-61.9,25.6C267,209,257.9,231,257.9,254.4s9.1,45.3,25.6,61.9c16.5,16.5,38.5,25.6,61.9,25.6c18.8,0,36.7-5.9,51.6-16.8
		l115.6,115.6c2.6,2.6,6.1,3.9,9.5,3.9c3.5,0,6.9-1.3,9.5-3.9C536.9,435.4,536.9,426.9,531.7,421.6z M294.1,305.6
		c-13.7-13.7-21.2-31.9-21.2-51.3s7.5-37.6,21.2-51.3s31.9-21.2,51.3-21.2s37.6,7.5,51.3,21.2c13.7,13.7,21.2,31.9,21.2,51.3
		s-7.5,37.6-21.2,51.3c-13.7,13.7-31.9,21.2-51.3,21.2S307.8,319.3,294.1,305.6z"/>
</g>
</svg>
