<?xml version="1.0" encoding="utf-8"?>
<!-- Generator: Adobe Illustrator 22.1.0, SVG Export Plug-In . SVG Version: 6.00 Build 0)  -->
<svg version="1.1" baseProfile="tiny" id="Layer_1" xmlns="http://www.w3.org/2000/svg" xmlns:xlink="http://www.w3.org/1999/xlink"
	 x="0px" y="0px" viewBox="0 0 100 100" xml:space="preserve">
<path fill="#FFFFFF" d="M64.9,61.1c-2.2-0.8-3.7-3-3.7-5.3v-7.3c3-2,5-5.3,5-9.2l2.2-18.5l0-0.2C68.5,10.3,60.2,2,50,2
	s-18.5,8.3-18.5,18.5l2.2,18.7c0,3.8,2,7.2,5,9.2v7.3c0,2.4-1.5,4.5-3.7,5.3C26.4,64.4,5.2,73.3,5.2,82.2c0,11.2,0,16.8,0,16.8h89.7
	c0,0,0-5.6,0-16.8C94.8,73.3,73.6,64.4,64.9,61.1z"/>
</svg>
