<?xml version="1.0" encoding="utf-8"?>
<!-- Generator: Adobe Illustrator 25.0.0, SVG Export Plug-In . SVG Version: 6.00 Build 0)  -->
<svg version="1.1" baseProfile="tiny" id="Layer_2_1_"
	 xmlns="http://www.w3.org/2000/svg" xmlns:xlink="http://www.w3.org/1999/xlink" x="0px" y="0px" width="636px" height="482px"
	 viewBox="0 0 636 482" overflow="visible" xml:space="preserve">
<rect x="218.3" y="202.2" width="2.7" height="4.6"/>
<rect x="226.5" y="202.2" width="2.7" height="4.6"/>
<rect x="234.6" y="202.2" width="2.7" height="4.6"/>
<rect x="242.6" y="202.2" width="2.7" height="4.6"/>
<rect x="250.7" y="202.2" width="2.7" height="4.6"/>
<rect x="258.9" y="202.2" width="2.7" height="4.6"/>
<rect x="266.8" y="202.2" width="2.7" height="4.6"/>
<rect x="218.3" y="255.2" width="2.7" height="4.6"/>
<rect x="226.5" y="255.2" width="2.7" height="4.6"/>
<rect x="234.6" y="255.2" width="2.7" height="4.6"/>
<rect x="242.6" y="255.2" width="2.7" height="4.6"/>
<rect x="250.7" y="255.2" width="2.7" height="4.6"/>
<rect x="258.9" y="255.2" width="2.7" height="4.6"/>
<rect x="266.8" y="255.2" width="2.7" height="4.6"/>
</svg>
