<?xml version="1.0" encoding="utf-8"?>
<!-- Generator: Adobe Illustrator 25.0.0, SVG Export Plug-In . SVG Version: 6.00 Build 0)  -->
<svg version="1.1" baseProfile="tiny" id="Layer_1" xmlns="http://www.w3.org/2000/svg" xmlns:xlink="http://www.w3.org/1999/xlink"
	 x="0px" y="0px" width="636px" height="482px" viewBox="0 0 636 482" overflow="visible" xml:space="preserve">
<g id="Layer_5">
</g>
<g id="Layer_2_1_">
	<g>
		<rect x="217.7" y="199.2" width="3.8" height="7.6"/>
		<rect x="225.9" y="199.2" width="3.8" height="7.6"/>
		<rect x="234" y="199.2" width="3.8" height="7.6"/>
		<rect x="242" y="199.2" width="3.8" height="7.6"/>
		<rect x="250.1" y="199.2" width="3.8" height="7.6"/>
		<rect x="258.3" y="199.2" width="3.8" height="7.6"/>
		<rect x="266.2" y="199.2" width="3.8" height="7.6"/>
	</g>
	<g>
		<rect x="274.4" y="199.2" width="3.8" height="7.6"/>
		<rect x="282.6" y="199.2" width="3.8" height="7.6"/>
		<rect x="290.5" y="199.2" width="3.8" height="7.6"/>
		<rect x="298.7" y="199.2" width="3.8" height="7.6"/>
		<rect x="306.6" y="199.2" width="3.8" height="7.6"/>
		<rect x="314.7" y="199.2" width="3.8" height="7.6"/>
		<rect x="322.9" y="199.2" width="3.8" height="7.6"/>
		<rect x="330.8" y="199.2" width="3.8" height="7.6"/>
	</g>
	<g>
		<rect x="339" y="199.2" width="3.8" height="7.6"/>
		<rect x="347.2" y="199.2" width="3.8" height="7.6"/>
		<rect x="355.1" y="199.2" width="3.8" height="7.6"/>
	</g>
	<g>
		<rect x="370.4" y="199.2" width="3.8" height="7.6"/>
		<rect x="378.4" y="199.2" width="3.8" height="7.6"/>
		<rect x="386.5" y="199.2" width="3.8" height="7.6"/>
		<rect x="362.5" y="199.2" width="3.8" height="7.6"/>
	</g>
	<g>
		<rect x="217.7" y="255.2" width="3.8" height="7.6"/>
		<rect x="225.9" y="255.2" width="3.8" height="7.6"/>
		<rect x="234" y="255.2" width="3.8" height="7.6"/>
		<rect x="242" y="255.2" width="3.8" height="7.6"/>
		<rect x="250.1" y="255.2" width="3.8" height="7.6"/>
		<rect x="258.3" y="255.2" width="3.8" height="7.6"/>
		<rect x="266.2" y="255.2" width="3.8" height="7.6"/>
	</g>
	<g>
		<rect x="274.4" y="255.2" width="3.8" height="7.6"/>
		<rect x="282.6" y="255.2" width="3.8" height="7.6"/>
		<rect x="290.5" y="255.2" width="3.8" height="7.6"/>
		<rect x="298.7" y="255.2" width="3.8" height="7.6"/>
		<rect x="306.6" y="255.2" width="3.8" height="7.6"/>
		<rect x="314.7" y="255.2" width="3.8" height="7.6"/>
		<rect x="322.9" y="255.2" width="3.8" height="7.6"/>
		<rect x="330.8" y="255.2" width="3.8" height="7.6"/>
	</g>
	<g>
		<rect x="339" y="255.2" width="3.8" height="7.6"/>
		<rect x="347.2" y="255.2" width="3.8" height="7.6"/>
		<rect x="355.1" y="255.2" width="3.8" height="7.6"/>
	</g>
	<g>
		<rect x="370.4" y="255.2" width="3.8" height="7.6"/>
		<rect x="378.4" y="255.2" width="3.8" height="7.6"/>
		<rect x="386.5" y="255.2" width="3.8" height="7.6"/>
		<rect x="362.5" y="255.2" width="3.8" height="7.6"/>
	</g>
</g>
</svg>
