<?xml version="1.0" encoding="utf-8"?>
<!-- Generator: Adobe Illustrator 25.0.0, SVG Export Plug-In . SVG Version: 6.00 Build 0)  -->
<svg version="1.1" baseProfile="tiny" id="Layer_5" xmlns="http://www.w3.org/2000/svg" xmlns:xlink="http://www.w3.org/1999/xlink"
	 x="0px" y="0px" width="636px" height="482px" viewBox="0 0 636 482" overflow="visible" xml:space="preserve">
<rect x="215.1" y="229.5" width="2" height="2"/>
<rect x="211.6" y="229.5" width="2" height="2"/>
<rect x="208.1" y="229.5" width="2" height="2"/>
<rect x="204.6" y="229.5" width="2" height="2"/>
<rect x="201.1" y="229.5" width="2" height="2"/>
<rect x="197.5" y="229.5" width="2" height="2"/>
<rect x="194" y="229.5" width="2" height="2"/>
<rect x="190.5" y="229.5" width="2" height="2"/>
<rect x="187" y="229.5" width="2" height="2"/>
<rect x="183.5" y="229.5" width="2" height="2"/>
<rect x="180" y="229.5" width="2" height="2"/>
<rect x="176.4" y="229.5" width="2" height="2"/>
<rect x="172.9" y="229.5" width="2" height="2"/>
<rect x="169.4" y="229.5" width="2" height="2"/>
<rect x="165.9" y="229.5" width="2" height="2"/>
<rect x="162.4" y="229.5" width="2" height="2"/>
<rect x="158.9" y="229.5" width="2" height="2"/>
<rect x="155.3" y="229.5" width="2" height="2"/>
<rect x="151.8" y="229.5" width="2" height="2"/>
<rect x="148.3" y="229.5" width="2" height="2"/>
<rect x="144.8" y="229.5" width="2" height="2"/>
<rect x="141.3" y="229.5" width="2" height="2"/>
<rect x="137.8" y="229.5" width="2" height="2"/>
<rect x="134.3" y="229.5" width="2" height="2"/>
<rect x="474.5" y="229.5" width="2" height="2"/>
<rect x="471" y="229.5" width="2" height="2"/>
<rect x="467.5" y="229.5" width="2" height="2"/>
<rect x="464" y="229.5" width="2" height="2"/>
<rect x="460.5" y="229.5" width="2" height="2"/>
<rect x="456.9" y="229.5" width="2" height="2"/>
<rect x="453.4" y="229.5" width="2" height="2"/>
<rect x="449.9" y="229.5" width="2" height="2"/>
<rect x="446.4" y="229.5" width="2" height="2"/>
<rect x="442.9" y="229.5" width="2" height="2"/>
<rect x="439.4" y="229.5" width="2" height="2"/>
<rect x="435.8" y="229.5" width="2" height="2"/>
<rect x="432.3" y="229.5" width="2" height="2"/>
<rect x="428.8" y="229.5" width="2" height="2"/>
<rect x="425.3" y="229.5" width="2" height="2"/>
<rect x="421.8" y="229.5" width="2" height="2"/>
<rect x="418.3" y="229.5" width="2" height="2"/>
<rect x="414.7" y="229.5" width="2" height="2"/>
<rect x="411.2" y="229.5" width="2" height="2"/>
<rect x="407.7" y="229.5" width="2" height="2"/>
<rect x="404.2" y="229.5" width="2" height="2"/>
<rect x="400.7" y="229.5" width="2" height="2"/>
<rect x="397.2" y="229.5" width="2" height="2"/>
<rect x="393.7" y="229.5" width="2" height="2"/>
<rect x="299.4" y="229.5" width="2" height="2"/>
<rect x="295.9" y="229.5" width="2" height="2"/>
<rect x="292.4" y="229.5" width="2" height="2"/>
<rect x="288.9" y="229.5" width="2" height="2"/>
<rect x="285.4" y="229.5" width="2" height="2"/>
<rect x="281.8" y="229.5" width="2" height="2"/>
<rect x="278.3" y="229.5" width="2" height="2"/>
<rect x="274.8" y="229.5" width="2" height="2"/>
<rect x="271.3" y="229.5" width="2" height="2"/>
<rect x="267.8" y="229.5" width="2" height="2"/>
<rect x="264.3" y="229.5" width="2" height="2"/>
<rect x="260.7" y="229.5" width="2" height="2"/>
<rect x="257.2" y="229.5" width="2" height="2"/>
<rect x="253.7" y="229.5" width="2" height="2"/>
<rect x="250.2" y="229.5" width="2" height="2"/>
<rect x="246.7" y="229.5" width="2" height="2"/>
<rect x="243.2" y="229.5" width="2" height="2"/>
<rect x="239.6" y="229.5" width="2" height="2"/>
<rect x="236.1" y="229.5" width="2" height="2"/>
<rect x="232.6" y="229.5" width="2" height="2"/>
<rect x="229.1" y="229.5" width="2" height="2"/>
<rect x="225.6" y="229.5" width="2" height="2"/>
<rect x="222.1" y="229.5" width="2" height="2"/>
<rect x="218.6" y="229.5" width="2" height="2"/>
<rect x="383.7" y="229.5" width="2" height="2"/>
<rect x="380.2" y="229.5" width="2" height="2"/>
<rect x="376.7" y="229.5" width="2" height="2"/>
<rect x="373.2" y="229.5" width="2" height="2"/>
<rect x="369.7" y="229.5" width="2" height="2"/>
<rect x="366.1" y="229.5" width="2" height="2"/>
<rect x="362.6" y="229.5" width="2" height="2"/>
<rect x="359.1" y="229.5" width="2" height="2"/>
<rect x="355.6" y="229.5" width="2" height="2"/>
<rect x="352.1" y="229.5" width="2" height="2"/>
<rect x="348.6" y="229.5" width="2" height="2"/>
<rect x="345" y="229.5" width="2" height="2"/>
<rect x="341.5" y="229.5" width="2" height="2"/>
<rect x="338" y="229.5" width="2" height="2"/>
<rect x="334.5" y="229.5" width="2" height="2"/>
<rect x="331" y="229.5" width="2" height="2"/>
<rect x="327.5" y="229.5" width="2" height="2"/>
<rect x="323.9" y="229.5" width="2" height="2"/>
<rect x="320.4" y="229.5" width="2" height="2"/>
<rect x="316.9" y="229.5" width="2" height="2"/>
<rect x="313.4" y="229.5" width="2" height="2"/>
<rect x="309.9" y="229.5" width="2" height="2"/>
<rect x="306.4" y="229.5" width="2" height="2"/>
<rect x="302.9" y="229.5" width="2" height="2"/>
<rect x="390.5" y="229.5" width="2" height="2"/>
<rect x="387" y="229.5" width="2" height="2"/>
</svg>
