<?xml version="1.0" encoding="utf-8"?>
<!-- Generator: Adobe Illustrator 27.8.0, SVG Export Plug-In . SVG Version: 6.00 Build 0)  -->
<svg version="1.1" baseProfile="tiny" id="Layer_1" xmlns="http://www.w3.org/2000/svg" xmlns:xlink="http://www.w3.org/1999/xlink"
	 x="0px" y="0px" viewBox="0 0 68.7 11.5" overflow="visible" xml:space="preserve">
<path fill="none" stroke="#6CB8C7" stroke-width="0.25" stroke-miterlimit="10" d="M68.5,2V0.9c0-0.5-0.4-0.8-0.8-0.8h-0.3"/>
<path fill="none" stroke="#6CB8C7" stroke-width="0.25" stroke-miterlimit="10" d="M68.5,9.3v1.2c0,0.5-0.4,0.8-0.8,0.8h-0.3"/>
<line id="opacity:50" fill="none" stroke="#6CB8C7" stroke-width="0.25" stroke-miterlimit="10" x1="68.5" y1="2.7" x2="68.5" y2="8.8"/>
<rect x="68.4" y="2.6" fill="#FFFFFF" width="0.3" height="0.2"/>
<rect x="68.4" y="8.7" fill="#FFFFFF" width="0.3" height="0.2"/>
<path fill="none" stroke="#6CB8C7" stroke-width="0.25" stroke-miterlimit="10" d="M0.2,2V0.9c0-0.5,0.4-0.8,0.8-0.8h0.3"/>
<path fill="none" stroke="#6CB8C7" stroke-width="0.25" stroke-miterlimit="10" d="M0.2,9.3v1.2c0,0.5,0.4,0.8,0.8,0.8h0.3"/>
<line id="opacity:50_00000114790768603826960010000011215563376427101368_" fill="none" stroke="#6CB8C7" stroke-width="0.25" stroke-miterlimit="10" x1="0.2" y1="2.7" x2="0.2" y2="8.8"/>
<rect y="2.5" fill="#FFFFFF" width="0.3" height="0.2"/>
<rect y="8.8" fill="#FFFFFF" width="0.3" height="0.2"/>
<line id="opacity:15_00000143576253429434972690000015261392542129414582_" fill="none" stroke="#6CB8C7" stroke-width="0.25" stroke-miterlimit="10" x1="42.5" y1="11.3" x2="67.4" y2="11.3"/>
<line id="opacity:15" fill="none" stroke="#6CB8C7" stroke-width="0.25" stroke-miterlimit="10" x1="1.3" y1="11.3" x2="26.2" y2="11.3"/>
<path id="opacity:2" fill="#6CB8C7" d="M67.4,1.7v8c0,0.2-0.2,0.4-0.4,0.4H42.5V9.1c0-0.3-0.3-0.6-0.6-0.6H26.8
	c-0.3,0-0.6,0.3-0.6,0.6v0.9H2.3c-0.2,0-0.4-0.2-0.4-0.4v-8c0-0.2,0.2-0.4,0.4-0.4h64.6C67.2,1.3,67.4,1.5,67.4,1.7z"/>
</svg>
