<?xml version="1.0" encoding="utf-8"?>
<!-- Generator: Adobe Illustrator 27.8.0, SVG Export Plug-In . SVG Version: 6.00 Build 0)  -->
<svg version="1.1" baseProfile="tiny" id="opacity:100"
	 xmlns="http://www.w3.org/2000/svg" xmlns:xlink="http://www.w3.org/1999/xlink" x="0px" y="0px" viewBox="0 0 1127.3 73.3"
	 overflow="visible" xml:space="preserve">
<g id="dot">
	<circle fill="#75F44C" cx="3.6" cy="20.9" r="3.6"/>
	<circle fill="#75F44C" cx="32.3" cy="20.9" r="3.6"/>
	<circle fill="#75F44C" cx="61.1" cy="20.9" r="3.6"/>
	<circle fill="#75F44C" cx="89.9" cy="20.9" r="3.6"/>
	<circle fill="#75F44C" cx="118.7" cy="20.9" r="3.6"/>
	<circle fill="#6CB8C7" cx="147.5" cy="20.9" r="3.6"/>
	<circle fill="#6CB8C7" cx="176.3" cy="20.9" r="3.6"/>
	<circle fill="#6CB8C7" cx="205.1" cy="20.9" r="3.6"/>
	<circle fill="#6CB8C7" cx="233.9" cy="20.9" r="3.6"/>
	<circle fill="#6CB8C7" cx="406.6" cy="20.9" r="3.6"/>
	<circle fill="#6CB8C7" cx="464.2" cy="20.9" r="3.6"/>
	<circle fill="#6CB8C7" cx="493" cy="20.9" r="3.6"/>
	<circle fill="#6CB8C7" cx="521.8" cy="20.9" r="3.6"/>
	<circle fill="#6CB8C7" cx="550.6" cy="20.9" r="3.6"/>
	<circle fill="#6CB8C7" cx="579.4" cy="20.9" r="3.6"/>
	<circle fill="#6CB8C7" cx="262.7" cy="20.9" r="3.6"/>
	<circle fill="#6CB8C7" cx="291.5" cy="20.9" r="3.6"/>
	<circle fill="#6CB8C7" cx="320.3" cy="20.9" r="3.6"/>
	<circle fill="#6CB8C7" cx="349.1" cy="20.9" r="3.6"/>
	<circle fill="#6CB8C7" cx="377.8" cy="20.9" r="3.6"/>
	<circle fill="#6CB8C7" cx="435.4" cy="20.9" r="3.6"/>
	<circle fill="#6CB8C7" cx="608.2" cy="20.9" r="3.6"/>
	<circle fill="#6CB8C7" cx="637" cy="20.9" r="3.6"/>
	<circle fill="#6CB8C7" cx="665.8" cy="20.9" r="3.6"/>
	<circle fill="#6CB8C7" cx="694.6" cy="20.9" r="3.6"/>
	<circle fill="#6CB8C7" cx="723.3" cy="20.9" r="3.6"/>
	<circle fill="#6CB8C7" cx="752.1" cy="20.9" r="3.6"/>
	<circle fill="#6CB8C7" cx="780.9" cy="20.9" r="3.6"/>
	<circle fill="#6CB8C7" cx="809.7" cy="20.9" r="3.6"/>
	<circle fill="#6CB8C7" cx="838.5" cy="20.9" r="3.6"/>
	<circle fill="#DB193B" cx="867.3" cy="20.9" r="3.6"/>
	<circle fill="#DB193B" cx="896.1" cy="20.9" r="3.6"/>
	<circle fill="#DB193B" cx="924.9" cy="20.9" r="3.6"/>
	<circle fill="#DB193B" cx="953.7" cy="20.9" r="3.6"/>
	<circle fill="#DB193B" cx="982.5" cy="20.9" r="3.6"/>
	<circle fill="#DB193B" cx="1011.3" cy="20.9" r="3.6"/>
	<circle fill="#75F44C" cx="3.6" cy="50.2" r="3.6"/>
	<circle fill="#75F44C" cx="32.3" cy="50.2" r="3.6"/>
	<circle fill="#75F44C" cx="61.1" cy="50.2" r="3.6"/>
	<circle fill="#75F44C" cx="89.9" cy="50.2" r="3.6"/>
	<circle fill="#75F44C" cx="118.7" cy="50.2" r="3.6"/>
	<circle fill="#6CB8C7" cx="147.5" cy="50.2" r="3.6"/>
	<circle fill="#6CB8C7" cx="176.3" cy="50.2" r="3.6"/>
	<circle fill="#6CB8C7" cx="205.1" cy="50.2" r="3.6"/>
	<circle fill="#6CB8C7" cx="233.9" cy="50.2" r="3.6"/>
	<circle fill="#6CB8C7" cx="406.6" cy="50.2" r="3.6"/>
	<circle fill="#6CB8C7" cx="464.2" cy="50.2" r="3.6"/>
	<circle fill="#6CB8C7" cx="493" cy="50.2" r="3.6"/>
	<circle fill="#6CB8C7" cx="521.8" cy="50.2" r="3.6"/>
	<circle fill="#6CB8C7" cx="550.6" cy="50.2" r="3.6"/>
	<circle fill="#6CB8C7" cx="579.4" cy="50.2" r="3.6"/>
	<circle fill="#6CB8C7" cx="262.7" cy="50.2" r="3.6"/>
	<circle fill="#6CB8C7" cx="291.5" cy="50.2" r="3.6"/>
	<circle fill="#6CB8C7" cx="320.3" cy="50.2" r="3.6"/>
	<circle fill="#6CB8C7" cx="349.1" cy="50.2" r="3.6"/>
	<circle fill="#6CB8C7" cx="377.8" cy="50.2" r="3.6"/>
	<circle fill="#6CB8C7" cx="435.4" cy="50.2" r="3.6"/>
	<circle fill="#6CB8C7" cx="608.2" cy="50.2" r="3.6"/>
	<circle fill="#6CB8C7" cx="637" cy="50.2" r="3.6"/>
	<circle fill="#6CB8C7" cx="665.8" cy="50.2" r="3.6"/>
	<circle fill="#6CB8C7" cx="694.6" cy="50.2" r="3.6"/>
	<circle fill="#6CB8C7" cx="723.3" cy="50.2" r="3.6"/>
	<circle fill="#6CB8C7" cx="752.1" cy="50.2" r="3.6"/>
	<circle fill="#6CB8C7" cx="780.9" cy="50.2" r="3.6"/>
	<circle fill="#6CB8C7" cx="809.7" cy="50.2" r="3.6"/>
	<circle fill="#6CB8C7" cx="838.5" cy="50.2" r="3.6"/>
	<circle fill="#DB193B" cx="867.3" cy="50.2" r="3.6"/>
	<circle fill="#DB193B" cx="896.1" cy="50.2" r="3.6"/>
	<circle fill="#DB193B" cx="924.9" cy="50.2" r="3.6"/>
	<circle fill="#DB193B" cx="953.7" cy="50.2" r="3.6"/>
	<circle fill="#DB193B" cx="982.5" cy="50.2" r="3.6"/>
	<circle fill="#DB193B" cx="1011.3" cy="50.2" r="3.6"/>
	<circle fill="#75F44C" cx="18.6" cy="35.2" r="3.6"/>
	<circle fill="#75F44C" cx="47.4" cy="35.2" r="3.6"/>
	<circle fill="#75F44C" cx="76.2" cy="35.2" r="3.6"/>
	<circle fill="#75F44C" cx="105" cy="35.2" r="3.6"/>
	<circle fill="#75F44C" cx="133.8" cy="35.2" r="3.6"/>
	<circle fill="#6CB8C7" cx="162.6" cy="35.2" r="3.6"/>
	<circle fill="#6CB8C7" cx="191.4" cy="35.2" r="3.6"/>
	<circle fill="#6CB8C7" cx="220.1" cy="35.2" r="3.6"/>
	<circle fill="#6CB8C7" cx="248.9" cy="35.2" r="3.6"/>
	<circle fill="#6CB8C7" cx="421.7" cy="35.2" r="3.6"/>
	<circle fill="#6CB8C7" cx="479.3" cy="35.2" r="3.6"/>
	<circle fill="#6CB8C7" cx="508.1" cy="35.2" r="3.6"/>
	<circle fill="#6CB8C7" cx="536.9" cy="35.2" r="3.6"/>
	<circle fill="#6CB8C7" cx="565.6" cy="35.2" r="3.6"/>
	<circle fill="#6CB8C7" cx="594.4" cy="35.2" r="3.6"/>
	<circle fill="#6CB8C7" cx="277.7" cy="35.2" r="3.6"/>
	<circle fill="#6CB8C7" cx="306.5" cy="35.2" r="3.6"/>
	<circle fill="#6CB8C7" cx="335.3" cy="35.2" r="3.6"/>
	<circle fill="#6CB8C7" cx="364.1" cy="35.2" r="3.6"/>
	<circle fill="#6CB8C7" cx="392.9" cy="35.2" r="3.6"/>
	<circle fill="#6CB8C7" cx="450.5" cy="35.2" r="3.6"/>
	<circle fill="#6CB8C7" cx="623.2" cy="35.2" r="3.6"/>
	<circle fill="#6CB8C7" cx="652" cy="35.2" r="3.6"/>
	<circle fill="#6CB8C7" cx="680.8" cy="35.2" r="3.6"/>
	<circle fill="#6CB8C7" cx="709.6" cy="35.2" r="3.6"/>
	<circle fill="#6CB8C7" cx="738.4" cy="35.2" r="3.6"/>
	<circle fill="#6CB8C7" cx="767.2" cy="35.2" r="3.6"/>
	<circle fill="#6CB8C7" cx="796" cy="35.2" r="3.6"/>
	<circle fill="#6CB8C7" cx="824.8" cy="35.2" r="3.6"/>
	<circle fill="#6CB8C7" cx="853.6" cy="35.2" r="3.6"/>
	<circle fill="#DB193B" cx="882.4" cy="35.2" r="3.6"/>
	<circle fill="#DB193B" cx="911.1" cy="35.2" r="3.6"/>
	<circle fill="#DB193B" cx="939.9" cy="35.2" r="3.6"/>
	<circle fill="#DB193B" cx="968.7" cy="35.2" r="3.6"/>
	<circle fill="#DB193B" cx="997.5" cy="35.2" r="3.6"/>
	<circle fill="#DB193B" cx="1037.3" cy="20.9" r="3.6"/>
	<circle fill="#DB193B" cx="1066.1" cy="20.9" r="3.6"/>
	<circle fill="#DB193B" cx="1094.9" cy="20.9" r="3.6"/>
	<circle fill="#DB193B" cx="1123.7" cy="20.9" r="3.6"/>
	<circle fill="#DB193B" cx="1037.3" cy="50.2" r="3.6"/>
	<circle fill="#DB193B" cx="1066.1" cy="50.2" r="3.6"/>
	<circle fill="#DB193B" cx="1094.9" cy="50.2" r="3.6"/>
	<circle fill="#DB193B" cx="1123.7" cy="50.2" r="3.6"/>
	<circle fill="#DB193B" cx="1023.5" cy="35.2" r="3.6"/>
	<circle fill="#DB193B" cx="1052.3" cy="35.2" r="3.6"/>
	<circle fill="#DB193B" cx="1081.1" cy="35.2" r="3.6"/>
	<circle fill="#DB193B" cx="1109.9" cy="35.2" r="3.6"/>
</g>
</svg>
