<?xml version="1.0" encoding="utf-8"?>
<!-- Generator: Adobe Illustrator 25.0.0, SVG Export Plug-In . SVG Version: 6.00 Build 0)  -->
<svg version="1.1" baseProfile="tiny" id="Layer_1" xmlns="http://www.w3.org/2000/svg" xmlns:xlink="http://www.w3.org/1999/xlink"
	 x="0px" y="0px" width="88px" height="382px" viewBox="0 0 88 382" overflow="visible" xml:space="preserve">
<rect x="74.5" y="48.7" width="6" height="2.5"/>
<rect x="74.5" y="58.6" width="6" height="2.5"/>
<rect x="74.5" y="68.5" width="6" height="2.5"/>
<rect x="74.5" y="78.3" width="6" height="2.5"/>
<rect x="74.5" y="88.2" width="6" height="2.5"/>
<rect x="74.5" y="98.1" width="6" height="2.5"/>
<rect x="74.5" y="108" width="6" height="2.5"/>
<rect x="74.5" y="117.8" width="6" height="2.5"/>
<rect x="74.5" y="127.7" width="6" height="2.5"/>
<rect x="74.5" y="137.6" width="6" height="2.5"/>
<rect x="74.5" y="147.5" width="6" height="2.5"/>
<rect x="74.5" y="157.4" width="6" height="2.5"/>
<rect x="74.5" y="167.2" width="6" height="2.5"/>
<rect x="74.5" y="177.1" width="6" height="2.5"/>
<rect x="74.5" y="187" width="6" height="2.5"/>
<rect x="74.5" y="196.9" width="6" height="2.5"/>
<rect x="74.5" y="206.8" width="6" height="2.5"/>
<rect x="74.5" y="216.6" width="6" height="2.5"/>
<rect x="74.5" y="226.5" width="6" height="2.5"/>
<rect x="74.5" y="236.4" width="6" height="2.5"/>
<rect x="74.5" y="246.3" width="6" height="2.5"/>
<rect x="74.5" y="256.1" width="6" height="2.5"/>
<rect x="74.5" y="266" width="6" height="2.5"/>
<rect x="74.5" y="275.9" width="6" height="2.5"/>
<rect x="74.5" y="285.8" width="6" height="2.5"/>
<rect x="74.5" y="295.7" width="6" height="2.5"/>
<rect x="74.5" y="305.5" width="6" height="2.5"/>
<rect x="74.5" y="315.4" width="6" height="2.5"/>
<rect x="74.5" y="325.3" width="6" height="2.5"/>
</svg>
