<?xml version="1.0" encoding="utf-8"?>
<!-- Generator: Adobe Illustrator 23.0.3, SVG Export Plug-In . SVG Version: 6.00 Build 0)  -->
<svg version="1.1" baseProfile="tiny" id="Screen" xmlns="http://www.w3.org/2000/svg" xmlns:xlink="http://www.w3.org/1999/xlink"
	 x="0px" y="0px" viewBox="0 0 368 368" xml:space="preserve">
<path fill="#FFFFFF" d="M185.6,5C87.1,5,6.9,85.1,6.9,183.6s80.2,178.7,178.7,178.7s178.7-80.2,178.7-178.7S284.1,5,185.6,5z
	 M36.9,183.6c0-82,66.7-148.7,148.7-148.7c32.8,0,63.1,10.7,87.7,28.7L71.6,279.1C50,253.2,36.9,219.9,36.9,183.6z M185.6,332.4
	c-34.9,0-67.1-12.1-92.5-32.3L295.6,83.7c24,26.4,38.7,61.5,38.7,99.9C334.3,265.6,267.6,332.4,185.6,332.4z"/>
</svg>
