<?xml version="1.0" encoding="utf-8"?>
<!-- Generator: Adobe Illustrator 23.0.3, SVG Export Plug-In . SVG Version: 6.00 Build 0)  -->
<svg version="1.1" id="Layer_1" xmlns="http://www.w3.org/2000/svg" xmlns:xlink="http://www.w3.org/1999/xlink" x="0px" y="0px"
	 viewBox="0 0 575 1080" style="enable-background:new 0 0 575 1080;" xml:space="preserve">
<style type="text/css">
	.st0{fill:#9DF763;}
</style>
<path class="st0" d="M422.1,1026.5h-29.6l-14.2-9H196.5l-0.1,0.1l-14.1,8.9h-29.6c-4.7,0-9.1-2.1-12.1-5.8L38.7,918.3
	c-2.5-3-3.9-6.8-3.9-10.8V896L35,58.3c0-4.4,3.3-7.8,7.4-7.8h79.1l23.7,19.1h284.5l0.1-0.1l23.5-19h79.2c4.1,0,7.4,3.5,7.4,7.8
	l0.1,837.7v11.4c0,4-1.4,7.8-3.9,10.8l-0.1,0.1l-101.9,102.4C431.1,1024.5,426.8,1026.5,422.1,1026.5z M393.7,1022.5h28.4
	c3.5,0,6.7-1.6,9.1-4.4l0.1-0.1l101.9-102.4c1.9-2.2,2.9-5.1,2.9-8.1V896L536,58.3c0-2.1-1.5-3.8-3.4-3.8h-77.8l-23.6,19.1H143.8
	l-1.3-1.1l-22.4-18H42.4c-1.9,0-3.4,1.6-3.4,3.8L38.8,896v11.5c0,3,1,5.9,2.9,8.1l101.9,102.4l0.1,0.1c2.3,2.8,5.6,4.4,9.1,4.4h28.4
	l14.2-9h184.2l1.1,0.7L393.7,1022.5z"/>
</svg>
