<?xml version="1.0" encoding="utf-8"?>
<!-- Generator: Adobe Illustrator 23.0.3, SVG Export Plug-In . SVG Version: 6.00 Build 0)  -->
<svg version="1.1" id="Layer_1" xmlns="http://www.w3.org/2000/svg" xmlns:xlink="http://www.w3.org/1999/xlink" x="0px" y="0px"
	 viewBox="0 0 575 113" style="enable-background:new 0 0 575 113;" xml:space="preserve">
<style type="text/css">
	.st0{fill:#C60000;}
</style>
<g>
	<polygon class="st0" points="118.9,10 93.7,56.5 116.2,79.2 153.8,10 	"/>
	<polygon class="st0" points="47.4,10 69.6,32.3 81.7,10 	"/>
	<path class="st0" d="M479.2,10l-55.6,102.6c1.7-0.3,3.2-1.3,4.4-2.7l0.4-0.4l69.9-70.3L514.1,10H479.2z"/>
	<path class="st0" d="M190.8,10l-50.6,93.4l6.3,6.3l0.2,0.2c1.5,1.8,3.7,2.9,6,2.9h17.4L225.8,10H190.8z"/>
	<polygon class="st0" points="263,10 212.2,103.8 247.2,103.8 298,10 	"/>
	<polygon class="st0" points="407.2,10 356.3,103.8 380.7,103.8 382.2,104.8 382.8,105.2 388.6,108.9 442.1,10 	"/>
	<polygon class="st0" points="335,10 284.2,103.8 319.1,103.8 370,10 	"/>
</g>
</svg>
