<?xml version="1.0" encoding="utf-8"?>
<!-- Generator: Adobe Illustrator 25.3.1, SVG Export Plug-In . SVG Version: 6.00 Build 0)  -->
<svg version="1.1" baseProfile="tiny" id="Layer_1" xmlns="http://www.w3.org/2000/svg" xmlns:xlink="http://www.w3.org/1999/xlink"
	 x="0px" y="0px" viewBox="0 0 24 24" overflow="visible" xml:space="preserve">
<path fill="none" stroke="#000000" stroke-width="1.5" stroke-miterlimit="10" d="M13.9,8.5c0.4-0.5,1-0.8,1.6-1.1
	c0.6-0.2,1.2-0.4,1.9-0.4s1.3,0.1,1.9,0.4c0.6,0.2,1.1,0.6,1.6,1.1c0.5,0.5,0.8,1,1.1,1.6c0.2,0.6,0.4,1.2,0.4,1.9s-0.1,1.3-0.4,1.9
	c-0.2,0.6-0.6,1.1-1.1,1.6c-0.5,0.5-1,0.8-1.6,1.1c-0.6,0.2-1.2,0.4-1.9,0.4s-1.3-0.1-1.9-0.4c-0.6-0.2-1.1-0.6-1.6-1.1
	c-1-1-1.9-3.5-1.9-3.5s-0.7-2.3-1.9-3.5c-0.4-0.5-1-0.8-1.6-1.1S7.3,7.1,6.6,7.1S5.3,7.2,4.7,7.5S3.6,8.1,3.1,8.5
	c-0.5,0.5-0.8,1-1.1,1.6S1.7,11.3,1.7,12s0.1,1.3,0.4,1.9s0.6,1.1,1.1,1.6c0.5,0.5,1,0.8,1.6,1.1c0.6,0.2,1.2,0.4,1.9,0.4
	s1.3-0.1,1.9-0.4c0.6-0.2,1.1-0.6,1.6-1.1C11.3,14.4,12,12,12,12S12.6,9.8,13.9,8.5z"/>
</svg>
