<?xml version="1.0" encoding="utf-8"?>
<!-- Generator: Adobe Illustrator 25.2.1, SVG Export Plug-In . SVG Version: 6.00 Build 0)  -->
<svg version="1.1" baseProfile="tiny" xmlns="http://www.w3.org/2000/svg" xmlns:xlink="http://www.w3.org/1999/xlink" x="0px"
	 y="0px" width="128px" height="128px" viewBox="0 0 128 128" overflow="visible" xml:space="preserve">
<g id="Background">
</g>
<g id="Update_Layer">
</g>
<g id="Delete_Location">
</g>
<g id="Center_on_Entity">
</g>
<g id="Export">
</g>
<g id="Active">
</g>
<g id="Inactive">
	<g display="none">
		<rect x="11.5" y="11.5" display="inline" fill="#666666" width="105" height="105"/>
		<path display="inline" fill="#FFFFFF" d="M116,12v104H12V12H116 M117,11H11v106h106V11L117,11z"/>
	</g>
	<g display="none">
		<g display="inline">
			<path fill="#FF931E" d="M25.67,101.28c-1.48,0-2.8-0.76-3.54-2.04c-0.74-1.28-0.74-2.81,0-4.08l38.33-66.38
				c0.74-1.28,2.06-2.04,3.54-2.04s2.8,0.76,3.54,2.04l38.33,66.38c0.74,1.28,0.74,2.81,0,4.08c-0.74,1.28-2.06,2.04-3.54,2.04
				H25.67z"/>
			<path fill="#FFFFFF" d="M64,27.22c1.3,0,2.46,0.67,3.1,1.79l38.33,66.38c0.65,1.12,0.65,2.46,0,3.58
				c-0.65,1.12-1.81,1.79-3.1,1.79H25.67c-1.3,0-2.46-0.67-3.1-1.79c-0.65-1.12-0.65-2.46,0-3.58L60.9,29.02
				C61.54,27.89,62.7,27.22,64,27.22 M64,26.22c-1.54,0-3.09,0.76-3.97,2.29L21.7,94.9c-1.76,3.06,0.44,6.88,3.97,6.88h76.65
				c3.53,0,5.73-3.82,3.97-6.88L67.97,28.52C67.09,26.99,65.54,26.22,64,26.22L64,26.22z"/>
		</g>
		<rect x="52.46" y="36.75" display="inline" fill="none" width="23.09" height="58.25"/>
		
			<text transform="matrix(1 0 0 1 55.26 92.8554)" display="inline" fill="#FFFFFF" font-family="'MyriadPro-Regular'" font-size="76px">!</text>
	</g>
	<g>
		<path fill="#666666" stroke="#FFFFFF" stroke-miterlimit="10" d="M102.03,88.22H29.97c-11.39,0-20.72-9.32-20.72-20.72V60.5
			c0-11.39,9.32-20.72,20.72-20.72h72.07c11.39,0,20.72,9.32,20.72,20.72v7.01C122.75,78.9,113.43,88.22,102.03,88.22z"/>
		<circle fill="#FF931E" stroke="#FFFFFF" stroke-miterlimit="10" cx="29.09" cy="64.06" r="23.84"/>
	</g>
</g>
</svg>
