<?xml version="1.0" encoding="utf-8"?>
<!-- Generator: Adobe Illustrator 25.2.1, SVG Export Plug-In . SVG Version: 6.00 Build 0)  -->
<svg version="1.1" baseProfile="tiny" xmlns="http://www.w3.org/2000/svg" xmlns:xlink="http://www.w3.org/1999/xlink" x="0px"
	 y="0px" width="128px" height="128px" viewBox="0 0 128 128" overflow="visible" xml:space="preserve">
<g id="Background">
</g>
<g id="Update_Layer">
</g>
<g id="Delete_Location">
</g>
<g id="Center_on_Entity">
</g>
<g id="Export">
</g>
<g id="Active">
	<g display="none">
		<rect x="11.5" y="11.5" display="inline" fill="#666666" width="105" height="105"/>
		<path display="inline" fill="#FFFFFF" d="M116,12v104H12V12H116 M117,11H11v106h106V11L117,11z"/>
	</g>
	<g display="none">
		<polygon display="inline" fill="#7AC943" points="22.91,62.98 33.73,49.87 62.37,73.48 94.7,34.27 107.82,45.07 64.67,97.41 		"/>
		<path display="inline" fill="#FFFFFF" d="M94.77,34.97l12.35,10.17l-31.7,38.45L64.6,96.71L51.48,85.89L23.62,62.92L33.8,50.57
			l27.87,22.98l0.77,0.64l0.64-0.77L94.77,34.97 M94.63,33.56L62.3,72.77L33.66,49.16L22.21,63.05l28.64,23.61l13.89,11.45
			l11.45-13.89l32.34-39.22L94.63,33.56L94.63,33.56z"/>
	</g>
	<g>
		<path fill="#666666" stroke="#FFFFFF" stroke-miterlimit="10" d="M25.97,39.78h72.07c11.39,0,20.72,9.32,20.72,20.72v7.01
			c0,11.39-9.32,20.72-20.72,20.72H25.97c-11.39,0-20.72-9.32-20.72-20.72V60.5C5.25,49.1,14.57,39.78,25.97,39.78z"/>
		<circle fill="#7AC943" stroke="#FFFFFF" stroke-miterlimit="10" cx="98.91" cy="63.94" r="23.84"/>
	</g>
</g>
<g id="Inactive">
</g>
</svg>
