<?xml version="1.0" encoding="utf-8"?>
<!-- Generator: Adobe Illustrator 29.2.1, SVG Export Plug-In . SVG Version: 9.03 Build 55982)  -->
<svg version="1.1" baseProfile="tiny" id="Layer_1" xmlns="http://www.w3.org/2000/svg" xmlns:xlink="http://www.w3.org/1999/xlink"
	 x="0px" y="0px" viewBox="0 0 379 155.5" overflow="visible" xml:space="preserve">
<rect id="_x3C_Path_x3E__opacity:100_00000081618444125741933710000006849261402225131410_" y="0" fill="#FFCC00" width="2" height="155.5"/>
<path id="_x3C_Compound_Path_x3E__opacity:100_00000016077546626216557680000015123398824518298036_" fill="#0099FF" d="M378,1v23.3
	l-2.9,1.2l-0.6,0.3v0.7v100v0.7l0.6,0.3l2.9,1.2v25.8H4.5V1H378 M379,0H3.5v155.5H379V128l-3.5-1.5v-100L379,25V0L379,0z"/>
<g>
	<g>
		<polygon fill="#0099FF" points="362.8,115.8 363.6,115.8 363.6,114.9 363.6,114.1 362.8,114.1 362.8,114.9 		"/>
		<polygon fill="#0099FF" points="362.8,115.8 361.9,115.8 361,115.8 361,114.9 361,114.1 361.9,114.1 362.8,114.1 362.8,113.2 
			361.9,113.2 361,113.2 361,114.1 360.2,114.1 360.2,114.9 360.2,115.8 361,115.8 361,116.7 361.9,116.7 362.8,116.7 		"/>
	</g>
	<g>
		<rect x="364.5" y="119.4" fill="#0099FF" width="0.9" height="0.9"/>
		<rect x="358.5" y="119.4" fill="#0099FF" width="0.9" height="0.9"/>
		<rect x="364.5" y="125.5" fill="#0099FF" width="0.9" height="0.9"/>
		<rect x="358.5" y="125.5" fill="#0099FF" width="0.9" height="0.9"/>
		<rect x="363.6" y="120.3" fill="#0099FF" width="0.9" height="0.9"/>
		<rect x="359.3" y="120.3" fill="#0099FF" width="0.9" height="0.9"/>
		<rect x="363.6" y="124.6" fill="#0099FF" width="0.9" height="0.9"/>
		<rect x="359.3" y="124.6" fill="#0099FF" width="0.9" height="0.9"/>
		<rect x="362.8" y="121.2" fill="#0099FF" width="0.9" height="0.9"/>
		<rect x="360.2" y="121.2" fill="#0099FF" width="0.9" height="0.9"/>
		<rect x="362.8" y="123.7" fill="#0099FF" width="0.9" height="0.9"/>
		<rect x="360.2" y="123.7" fill="#0099FF" width="0.9" height="0.9"/>
		<polygon fill="#0099FF" points="362.8,123.7 362.8,122.9 362.8,122 361.9,122 361.1,122 361.1,122.9 361.1,123.7 361.9,123.7 		
			"/>
	</g>
	<g>
		<polygon fill="#0099FF" points="362.8,100.8 363.6,100.8 363.6,99.9 363.6,99 362.8,99 362.8,99.9 		"/>
		<polygon fill="#0099FF" points="362.8,100.8 361.9,100.8 361,100.8 361,99.9 361,99 361.9,99 362.8,99 362.8,98.2 361.9,98.2 
			361,98.2 361,99 360.2,99 360.2,99.9 360.2,100.8 361,100.8 361,101.6 361.9,101.6 362.8,101.6 		"/>
	</g>
	<g>
		<rect x="364.5" y="104.4" fill="#0099FF" width="0.9" height="0.9"/>
		<rect x="358.5" y="104.4" fill="#0099FF" width="0.9" height="0.9"/>
		<rect x="364.5" y="110.4" fill="#0099FF" width="0.9" height="0.9"/>
		<rect x="358.5" y="110.4" fill="#0099FF" width="0.9" height="0.9"/>
		<rect x="363.6" y="105.2" fill="#0099FF" width="0.9" height="0.9"/>
		<rect x="359.3" y="105.2" fill="#0099FF" width="0.9" height="0.9"/>
		<rect x="363.6" y="109.6" fill="#0099FF" width="0.9" height="0.9"/>
		<rect x="359.3" y="109.6" fill="#0099FF" width="0.9" height="0.9"/>
		<rect x="362.8" y="106.1" fill="#0099FF" width="0.9" height="0.9"/>
		<rect x="360.2" y="106.1" fill="#0099FF" width="0.9" height="0.9"/>
		<rect x="362.8" y="108.7" fill="#0099FF" width="0.9" height="0.9"/>
		<rect x="360.2" y="108.7" fill="#0099FF" width="0.9" height="0.9"/>
		<polygon fill="#0099FF" points="362.8,108.7 362.8,107.8 362.8,107 361.9,107 361.1,107 361.1,107.8 361.1,108.7 361.9,108.7 		
			"/>
	</g>
	<g>
		<polygon fill="#0099FF" points="362.8,85.7 363.6,85.7 363.6,84.8 363.6,84 362.8,84 362.8,84.8 		"/>
		<polygon fill="#0099FF" points="362.8,85.7 361.9,85.7 361,85.7 361,84.8 361,84 361.9,84 362.8,84 362.8,83.1 361.9,83.1 
			361,83.1 361,84 360.2,84 360.2,84.8 360.2,85.7 361,85.7 361,86.6 361.9,86.6 362.8,86.6 		"/>
	</g>
	<g>
		<rect x="364.5" y="89.3" fill="#0099FF" width="0.9" height="0.9"/>
		<rect x="358.5" y="89.3" fill="#0099FF" width="0.9" height="0.9"/>
		<rect x="364.5" y="95.4" fill="#0099FF" width="0.9" height="0.9"/>
		<rect x="358.5" y="95.4" fill="#0099FF" width="0.9" height="0.9"/>
		<rect x="363.6" y="90.2" fill="#0099FF" width="0.9" height="0.9"/>
		<rect x="359.3" y="90.2" fill="#0099FF" width="0.9" height="0.9"/>
		<rect x="363.6" y="94.5" fill="#0099FF" width="0.9" height="0.9"/>
		<rect x="359.3" y="94.5" fill="#0099FF" width="0.9" height="0.9"/>
		<rect x="362.8" y="91.1" fill="#0099FF" width="0.9" height="0.9"/>
		<rect x="360.2" y="91.1" fill="#0099FF" width="0.9" height="0.9"/>
		<rect x="362.8" y="93.7" fill="#0099FF" width="0.9" height="0.9"/>
		<rect x="360.2" y="93.7" fill="#0099FF" width="0.9" height="0.9"/>
		<polygon fill="#0099FF" points="362.8,93.7 362.8,92.8 362.8,91.9 361.9,91.9 361.1,91.9 361.1,92.8 361.1,93.7 361.9,93.7 		"/>
	</g>
	<g>
		<polygon fill="#0099FF" points="362.8,70.7 363.6,70.7 363.6,69.8 363.6,68.9 362.8,68.9 362.8,69.8 		"/>
		<polygon fill="#0099FF" points="362.8,70.7 361.9,70.7 361,70.7 361,69.8 361,68.9 361.9,68.9 362.8,68.9 362.8,68.1 361.9,68.1 
			361,68.1 361,68.9 360.2,68.9 360.2,69.8 360.2,70.7 361,70.7 361,71.5 361.9,71.5 362.8,71.5 		"/>
	</g>
	<g>
		<rect x="364.5" y="74.3" fill="#0099FF" width="0.9" height="0.9"/>
		<rect x="358.5" y="74.3" fill="#0099FF" width="0.9" height="0.9"/>
		<rect x="364.5" y="80.3" fill="#0099FF" width="0.9" height="0.9"/>
		<rect x="358.5" y="80.3" fill="#0099FF" width="0.9" height="0.9"/>
		<rect x="363.6" y="75.2" fill="#0099FF" width="0.9" height="0.9"/>
		<rect x="359.3" y="75.2" fill="#0099FF" width="0.9" height="0.9"/>
		<rect x="363.6" y="79.5" fill="#0099FF" width="0.9" height="0.9"/>
		<rect x="359.3" y="79.5" fill="#0099FF" width="0.9" height="0.9"/>
		<rect x="362.8" y="76" fill="#0099FF" width="0.9" height="0.9"/>
		<rect x="360.2" y="76" fill="#0099FF" width="0.9" height="0.9"/>
		<rect x="362.8" y="78.6" fill="#0099FF" width="0.9" height="0.9"/>
		<rect x="360.2" y="78.6" fill="#0099FF" width="0.9" height="0.9"/>
		<polygon fill="#0099FF" points="362.8,78.6 362.8,77.7 362.8,76.9 361.9,76.9 361.1,76.9 361.1,77.7 361.1,78.6 361.9,78.6 		"/>
	</g>
	<g>
		<polygon fill="#0099FF" points="362.8,55.6 363.6,55.6 363.6,54.8 363.6,53.9 362.8,53.9 362.8,54.8 		"/>
		<polygon fill="#0099FF" points="362.8,55.6 361.9,55.6 361,55.6 361,54.8 361,53.9 361.9,53.9 362.8,53.9 362.8,53 361.9,53 
			361,53 361,53.9 360.2,53.9 360.2,54.8 360.2,55.6 361,55.6 361,56.5 361.9,56.5 362.8,56.5 		"/>
	</g>
	<g>
		<rect x="364.5" y="59.3" fill="#0099FF" width="0.9" height="0.9"/>
		<rect x="358.5" y="59.3" fill="#0099FF" width="0.9" height="0.9"/>
		<rect x="364.5" y="65.3" fill="#0099FF" width="0.9" height="0.9"/>
		<rect x="358.5" y="65.3" fill="#0099FF" width="0.9" height="0.9"/>
		<rect x="363.6" y="60.1" fill="#0099FF" width="0.9" height="0.9"/>
		<rect x="359.3" y="60.1" fill="#0099FF" width="0.9" height="0.9"/>
		<rect x="363.6" y="64.4" fill="#0099FF" width="0.9" height="0.9"/>
		<rect x="359.3" y="64.4" fill="#0099FF" width="0.9" height="0.9"/>
		<rect x="362.8" y="61" fill="#0099FF" width="0.9" height="0.9"/>
		<rect x="360.2" y="61" fill="#0099FF" width="0.9" height="0.9"/>
		<rect x="362.8" y="63.6" fill="#0099FF" width="0.9" height="0.9"/>
		<rect x="360.2" y="63.6" fill="#0099FF" width="0.9" height="0.9"/>
		<polygon fill="#0099FF" points="362.8,63.6 362.8,62.7 362.8,61.8 361.9,61.8 361.1,61.8 361.1,62.7 361.1,63.6 361.9,63.6 		"/>
	</g>
	<g>
		<polygon fill="#0099FF" points="362.8,40.6 363.6,40.6 363.6,39.7 363.6,38.9 362.8,38.9 362.8,39.7 		"/>
		<polygon fill="#0099FF" points="362.8,40.6 361.9,40.6 361,40.6 361,39.7 361,38.9 361.9,38.9 362.8,38.9 362.8,38 361.9,38 
			361,38 361,38.9 360.2,38.9 360.2,39.7 360.2,40.6 361,40.6 361,41.4 361.9,41.4 362.8,41.4 		"/>
	</g>
	<g>
		<rect x="364.5" y="44.2" fill="#0099FF" width="0.9" height="0.9"/>
		<rect x="358.5" y="44.2" fill="#0099FF" width="0.9" height="0.9"/>
		<rect x="364.5" y="50.3" fill="#0099FF" width="0.9" height="0.9"/>
		<rect x="358.5" y="50.3" fill="#0099FF" width="0.9" height="0.9"/>
		<rect x="363.6" y="45.1" fill="#0099FF" width="0.9" height="0.9"/>
		<rect x="359.3" y="45.1" fill="#0099FF" width="0.9" height="0.9"/>
		<rect x="363.6" y="49.4" fill="#0099FF" width="0.9" height="0.9"/>
		<rect x="359.3" y="49.4" fill="#0099FF" width="0.9" height="0.9"/>
		<rect x="362.8" y="45.9" fill="#0099FF" width="0.9" height="0.9"/>
		<rect x="360.2" y="45.9" fill="#0099FF" width="0.9" height="0.9"/>
		<rect x="362.8" y="48.5" fill="#0099FF" width="0.9" height="0.9"/>
		<rect x="360.2" y="48.5" fill="#0099FF" width="0.9" height="0.9"/>
		<polygon fill="#0099FF" points="362.8,48.5 362.8,47.7 362.8,46.8 361.9,46.8 361.1,46.8 361.1,47.7 361.1,48.5 361.9,48.5 		"/>
	</g>
	<g>
		<rect x="364.5" y="29.2" fill="#0099FF" width="0.9" height="0.9"/>
		<rect x="358.5" y="29.2" fill="#0099FF" width="0.9" height="0.9"/>
		<rect x="364.5" y="35.2" fill="#0099FF" width="0.9" height="0.9"/>
		<rect x="358.5" y="35.2" fill="#0099FF" width="0.9" height="0.9"/>
		<rect x="363.6" y="30" fill="#0099FF" width="0.9" height="0.9"/>
		<rect x="359.3" y="30" fill="#0099FF" width="0.9" height="0.9"/>
		<rect x="363.6" y="34.3" fill="#0099FF" width="0.9" height="0.9"/>
		<rect x="359.3" y="34.3" fill="#0099FF" width="0.9" height="0.9"/>
		<rect x="362.8" y="30.9" fill="#0099FF" width="0.9" height="0.9"/>
		<rect x="360.2" y="30.9" fill="#0099FF" width="0.9" height="0.9"/>
		<rect x="362.8" y="33.5" fill="#0099FF" width="0.9" height="0.9"/>
		<rect x="360.2" y="33.5" fill="#0099FF" width="0.9" height="0.9"/>
		<polygon fill="#0099FF" points="362.8,33.5 362.8,32.6 362.8,31.8 361.9,31.8 361.1,31.8 361.1,32.6 361.1,33.5 361.9,33.5 		"/>
	</g>
</g>
</svg>
