<?xml version="1.0" encoding="utf-8"?>
<!-- Generator: Adobe Illustrator 29.2.1, SVG Export Plug-In . SVG Version: 9.03 Build 55982)  -->
<svg version="1.1" baseProfile="tiny" id="Layer_1" xmlns="http://www.w3.org/2000/svg" xmlns:xlink="http://www.w3.org/1999/xlink"
	 x="0px" y="0px" viewBox="0 0 323.5 292.5" overflow="visible" xml:space="preserve">
<path id="_x3C_Path_x3E__opacity:20" fill="#0099FF" d="M0,284.5V0h315.5c3.1,3.1,4.9,4.9,8,8v21l-3.5,2.5v231l3.5,2.5v27.5H8
	C4.9,289.4,3.1,287.6,0,284.5z"/>
<path id="_x3C_Compound_Path_x3E__opacity:30" fill="#0099FF" d="M315.1,1l7.1,7.1l0.3,0.3v20.1l-3.1,2.2L319,31v0.5v231v0.5
	l0.4,0.3l3.1,2.2v26H8.4l-0.3-0.3L1,284.1V1H315.1 M315.5,0H0v284.5c3.1,3.1,4.9,4.9,8,8h315.5V265l-3.5-2.5v-231l3.5-2.5V8
	C320.4,4.9,318.6,3.1,315.5,0L315.5,0z"/>
</svg>
