<?xml version="1.0" encoding="utf-8"?>
<!-- Generator: Adobe Illustrator 29.2.1, SVG Export Plug-In . SVG Version: 9.03 Build 55982)  -->
<svg version="1.1" baseProfile="tiny" id="Layer_1" xmlns="http://www.w3.org/2000/svg" xmlns:xlink="http://www.w3.org/1999/xlink"
	 x="0px" y="0px" viewBox="0 0 379 155.5" overflow="visible" xml:space="preserve">
<rect id="_x3C_Path_x3E__opacity:70_00000139275361675325964380000011852315350965698971_" y="0" fill="#FFCC00" width="2" height="155.5"/>
<path id="_x3C_Compound_Path_x3E__opacity:30_00000021821024751702887500000006655914144619592328_" fill="#0099FF" d="M378,1v23.3
	l-2.9,1.2l-0.6,0.3v0.7v100v0.7l0.6,0.3l2.9,1.2v25.8H4.5V1H378 M379,0H3.5v155.5H379V128l-3.5-1.5v-100L379,25V0L379,0z"/>
<g>
	<g>
		<polygon fill="#0099FF" points="362.8,115.3 363.6,115.3 363.6,114.4 363.6,113.6 362.8,113.6 362.8,114.4 		"/>
		<polygon fill="#0099FF" points="362.8,115.3 361.9,115.3 361,115.3 361,114.4 361,113.6 361.9,113.6 362.8,113.6 362.8,112.7 
			361.9,112.7 361,112.7 361,113.6 360.2,113.6 360.2,114.4 360.2,115.3 361,115.3 361,116.1 361.9,116.1 362.8,116.1 		"/>
	</g>
	<g>
		<rect x="364.5" y="118.9" fill="#0099FF" width="0.9" height="0.9"/>
		<rect x="358.5" y="118.9" fill="#0099FF" width="0.9" height="0.9"/>
		<rect x="364.5" y="125" fill="#0099FF" width="0.9" height="0.9"/>
		<rect x="358.5" y="125" fill="#0099FF" width="0.9" height="0.9"/>
		<rect x="363.6" y="119.8" fill="#0099FF" width="0.9" height="0.9"/>
		<rect x="359.3" y="119.8" fill="#0099FF" width="0.9" height="0.9"/>
		<rect x="363.6" y="124.1" fill="#0099FF" width="0.9" height="0.9"/>
		<rect x="359.3" y="124.1" fill="#0099FF" width="0.9" height="0.9"/>
		<rect x="362.8" y="120.6" fill="#0099FF" width="0.9" height="0.9"/>
		<rect x="360.2" y="120.6" fill="#0099FF" width="0.9" height="0.9"/>
		<rect x="362.8" y="123.2" fill="#0099FF" width="0.9" height="0.9"/>
		<rect x="360.2" y="123.2" fill="#0099FF" width="0.9" height="0.9"/>
		<polygon fill="#0099FF" points="362.8,123.2 362.8,122.4 362.8,121.5 361.9,121.5 361.1,121.5 361.1,122.4 361.1,123.2 
			361.9,123.2 		"/>
	</g>
	<g>
		<polygon fill="#0099FF" points="362.8,100.2 363.6,100.2 363.6,99.4 363.6,98.5 362.8,98.5 362.8,99.4 		"/>
		<polygon fill="#0099FF" points="362.8,100.2 361.9,100.2 361,100.2 361,99.4 361,98.5 361.9,98.5 362.8,98.5 362.8,97.6 
			361.9,97.6 361,97.6 361,98.5 360.2,98.5 360.2,99.4 360.2,100.2 361,100.2 361,101.1 361.9,101.1 362.8,101.1 		"/>
	</g>
	<g>
		<rect x="364.5" y="103.9" fill="#0099FF" width="0.9" height="0.9"/>
		<rect x="358.5" y="103.9" fill="#0099FF" width="0.9" height="0.9"/>
		<rect x="364.5" y="109.9" fill="#0099FF" width="0.9" height="0.9"/>
		<rect x="358.5" y="109.9" fill="#0099FF" width="0.9" height="0.9"/>
		<rect x="363.6" y="104.7" fill="#0099FF" width="0.9" height="0.9"/>
		<rect x="359.3" y="104.7" fill="#0099FF" width="0.9" height="0.9"/>
		<rect x="363.6" y="109" fill="#0099FF" width="0.9" height="0.9"/>
		<rect x="359.3" y="109" fill="#0099FF" width="0.9" height="0.9"/>
		<rect x="362.8" y="105.6" fill="#0099FF" width="0.9" height="0.9"/>
		<rect x="360.2" y="105.6" fill="#0099FF" width="0.9" height="0.9"/>
		<rect x="362.8" y="108.2" fill="#0099FF" width="0.9" height="0.9"/>
		<rect x="360.2" y="108.2" fill="#0099FF" width="0.9" height="0.9"/>
		<polygon fill="#0099FF" points="362.8,108.2 362.8,107.3 362.8,106.5 361.9,106.5 361.1,106.5 361.1,107.3 361.1,108.2 
			361.9,108.2 		"/>
	</g>
	<g>
		<polygon fill="#0099FF" points="362.8,85.2 363.6,85.2 363.6,84.3 363.6,83.5 362.8,83.5 362.8,84.3 		"/>
		<polygon fill="#0099FF" points="362.8,85.2 361.9,85.2 361,85.2 361,84.3 361,83.5 361.9,83.5 362.8,83.5 362.8,82.6 361.9,82.6 
			361,82.6 361,83.5 360.2,83.5 360.2,84.3 360.2,85.2 361,85.2 361,86.1 361.9,86.1 362.8,86.1 		"/>
	</g>
	<g>
		<rect x="364.5" y="88.8" fill="#0099FF" width="0.9" height="0.9"/>
		<rect x="358.5" y="88.8" fill="#0099FF" width="0.9" height="0.9"/>
		<rect x="364.5" y="94.9" fill="#0099FF" width="0.9" height="0.9"/>
		<rect x="358.5" y="94.9" fill="#0099FF" width="0.9" height="0.9"/>
		<rect x="363.6" y="89.7" fill="#0099FF" width="0.9" height="0.9"/>
		<rect x="359.3" y="89.7" fill="#0099FF" width="0.9" height="0.9"/>
		<rect x="363.6" y="94" fill="#0099FF" width="0.9" height="0.9"/>
		<rect x="359.3" y="94" fill="#0099FF" width="0.9" height="0.9"/>
		<rect x="362.8" y="90.5" fill="#0099FF" width="0.9" height="0.9"/>
		<rect x="360.2" y="90.5" fill="#0099FF" width="0.9" height="0.9"/>
		<rect x="362.8" y="93.1" fill="#0099FF" width="0.9" height="0.9"/>
		<rect x="360.2" y="93.1" fill="#0099FF" width="0.9" height="0.9"/>
		<polygon fill="#0099FF" points="362.8,93.1 362.8,92.3 362.8,91.4 361.9,91.4 361.1,91.4 361.1,92.3 361.1,93.1 361.9,93.1 		"/>
	</g>
	<g>
		<polygon fill="#0099FF" points="362.8,70.1 363.6,70.1 363.6,69.3 363.6,68.4 362.8,68.4 362.8,69.3 		"/>
		<polygon fill="#0099FF" points="362.8,70.1 361.9,70.1 361,70.1 361,69.3 361,68.4 361.9,68.4 362.8,68.4 362.8,67.6 361.9,67.6 
			361,67.6 361,68.4 360.2,68.4 360.2,69.3 360.2,70.1 361,70.1 361,71 361.9,71 362.8,71 		"/>
	</g>
	<g>
		<rect x="364.5" y="73.8" fill="#0099FF" width="0.9" height="0.9"/>
		<rect x="358.5" y="73.8" fill="#0099FF" width="0.9" height="0.9"/>
		<rect x="364.5" y="79.8" fill="#0099FF" width="0.9" height="0.9"/>
		<rect x="358.5" y="79.8" fill="#0099FF" width="0.9" height="0.9"/>
		<rect x="363.6" y="74.6" fill="#0099FF" width="0.9" height="0.9"/>
		<rect x="359.3" y="74.6" fill="#0099FF" width="0.9" height="0.9"/>
		<rect x="363.6" y="79" fill="#0099FF" width="0.9" height="0.9"/>
		<rect x="359.3" y="79" fill="#0099FF" width="0.9" height="0.9"/>
		<rect x="362.8" y="75.5" fill="#0099FF" width="0.9" height="0.9"/>
		<rect x="360.2" y="75.5" fill="#0099FF" width="0.9" height="0.9"/>
		<rect x="362.8" y="78.1" fill="#0099FF" width="0.9" height="0.9"/>
		<rect x="360.2" y="78.1" fill="#0099FF" width="0.9" height="0.9"/>
		<polygon fill="#0099FF" points="362.8,78.1 362.8,77.2 362.8,76.4 361.9,76.4 361.1,76.4 361.1,77.2 361.1,78.1 361.9,78.1 		"/>
	</g>
	<g>
		<polygon fill="#0099FF" points="362.8,55.1 363.6,55.1 363.6,54.2 363.6,53.4 362.8,53.4 362.8,54.2 		"/>
		<polygon fill="#0099FF" points="362.8,55.1 361.9,55.1 361,55.1 361,54.2 361,53.4 361.9,53.4 362.8,53.4 362.8,52.5 361.9,52.5 
			361,52.5 361,53.4 360.2,53.4 360.2,54.2 360.2,55.1 361,55.1 361,56 361.9,56 362.8,56 		"/>
	</g>
	<g>
		<rect x="364.5" y="58.7" fill="#0099FF" width="0.9" height="0.9"/>
		<rect x="358.5" y="58.7" fill="#0099FF" width="0.9" height="0.9"/>
		<rect x="364.5" y="64.8" fill="#0099FF" width="0.9" height="0.9"/>
		<rect x="358.5" y="64.8" fill="#0099FF" width="0.9" height="0.9"/>
		<rect x="363.6" y="59.6" fill="#0099FF" width="0.9" height="0.9"/>
		<rect x="359.3" y="59.6" fill="#0099FF" width="0.9" height="0.9"/>
		<rect x="363.6" y="63.9" fill="#0099FF" width="0.9" height="0.9"/>
		<rect x="359.3" y="63.9" fill="#0099FF" width="0.9" height="0.9"/>
		<rect x="362.8" y="60.5" fill="#0099FF" width="0.9" height="0.9"/>
		<rect x="360.2" y="60.5" fill="#0099FF" width="0.9" height="0.9"/>
		<rect x="362.8" y="63" fill="#0099FF" width="0.9" height="0.9"/>
		<rect x="360.2" y="63" fill="#0099FF" width="0.9" height="0.9"/>
		<polygon fill="#0099FF" points="362.8,63 362.8,62.2 362.8,61.3 361.9,61.3 361.1,61.3 361.1,62.2 361.1,63 361.9,63 		"/>
	</g>
	<g>
		<polygon fill="#0099FF" points="362.8,40.1 363.6,40.1 363.6,39.2 363.6,38.3 362.8,38.3 362.8,39.2 		"/>
		<polygon fill="#0099FF" points="362.8,40.1 361.9,40.1 361,40.1 361,39.2 361,38.3 361.9,38.3 362.8,38.3 362.8,37.5 361.9,37.5 
			361,37.5 361,38.3 360.2,38.3 360.2,39.2 360.2,40.1 361,40.1 361,40.9 361.9,40.9 362.8,40.9 		"/>
	</g>
	<g>
		<rect x="364.5" y="43.7" fill="#0099FF" width="0.9" height="0.9"/>
		<rect x="358.5" y="43.7" fill="#0099FF" width="0.9" height="0.9"/>
		<rect x="364.5" y="49.7" fill="#0099FF" width="0.9" height="0.9"/>
		<rect x="358.5" y="49.7" fill="#0099FF" width="0.9" height="0.9"/>
		<rect x="363.6" y="44.6" fill="#0099FF" width="0.9" height="0.9"/>
		<rect x="359.3" y="44.6" fill="#0099FF" width="0.9" height="0.9"/>
		<rect x="363.6" y="48.9" fill="#0099FF" width="0.9" height="0.9"/>
		<rect x="359.3" y="48.9" fill="#0099FF" width="0.9" height="0.9"/>
		<rect x="362.8" y="45.4" fill="#0099FF" width="0.9" height="0.9"/>
		<rect x="360.2" y="45.4" fill="#0099FF" width="0.9" height="0.9"/>
		<rect x="362.8" y="48" fill="#0099FF" width="0.9" height="0.9"/>
		<rect x="360.2" y="48" fill="#0099FF" width="0.9" height="0.9"/>
		<polygon fill="#0099FF" points="362.8,48 362.8,47.1 362.8,46.3 361.9,46.3 361.1,46.3 361.1,47.1 361.1,48 361.9,48 		"/>
	</g>
	<g>
		<rect x="364.5" y="28.6" fill="#0099FF" width="0.9" height="0.9"/>
		<rect x="358.5" y="28.6" fill="#0099FF" width="0.9" height="0.9"/>
		<rect x="364.5" y="34.7" fill="#0099FF" width="0.9" height="0.9"/>
		<rect x="358.5" y="34.7" fill="#0099FF" width="0.9" height="0.9"/>
		<rect x="363.6" y="29.5" fill="#0099FF" width="0.9" height="0.9"/>
		<rect x="359.3" y="29.5" fill="#0099FF" width="0.9" height="0.9"/>
		<rect x="363.6" y="33.8" fill="#0099FF" width="0.9" height="0.9"/>
		<rect x="359.3" y="33.8" fill="#0099FF" width="0.9" height="0.9"/>
		<rect x="362.8" y="30.4" fill="#0099FF" width="0.9" height="0.9"/>
		<rect x="360.2" y="30.4" fill="#0099FF" width="0.9" height="0.9"/>
		<rect x="362.8" y="33" fill="#0099FF" width="0.9" height="0.9"/>
		<rect x="360.2" y="33" fill="#0099FF" width="0.9" height="0.9"/>
		<polygon fill="#0099FF" points="362.8,33 362.8,32.1 362.8,31.2 361.9,31.2 361.1,31.2 361.1,32.1 361.1,33 361.9,33 		"/>
	</g>
</g>
</svg>
