<?xml version="1.0" encoding="utf-8"?>
<!-- Generator: Adobe Illustrator 29.2.1, SVG Export Plug-In . SVG Version: 9.03 Build 55982)  -->
<svg version="1.1" baseProfile="tiny" id="Layer_1" xmlns="http://www.w3.org/2000/svg" xmlns:xlink="http://www.w3.org/1999/xlink"
	 x="0px" y="0px" viewBox="0 0 589.2 6.2" overflow="visible" xml:space="preserve">
<g>
	<g>
		<polygon fill="#0099FF" points="346.9,2.4 346.9,1.7 346.1,1.7 345.4,1.7 345.4,2.4 346.1,2.4 		"/>
		<polygon fill="#0099FF" points="346.9,2.4 346.9,3.1 346.9,3.9 346.1,3.9 345.4,3.9 345.4,3.1 345.4,2.4 344.7,2.4 344.7,3.1 
			344.7,3.9 345.4,3.9 345.4,4.6 346.1,4.6 346.9,4.6 346.9,3.9 347.6,3.9 347.6,3.1 347.6,2.4 		"/>
	</g>
	<g>
		<rect x="349.7" y="0.2" fill="#0099FF" width="0.7" height="0.7"/>
		<rect x="349.7" y="5.3" fill="#0099FF" width="0.7" height="0.7"/>
		<rect x="354.8" y="0.2" fill="#0099FF" width="0.7" height="0.7"/>
		<rect x="354.8" y="5.3" fill="#0099FF" width="0.7" height="0.7"/>
		<rect x="350.4" y="0.9" fill="#0099FF" width="0.7" height="0.7"/>
		<rect x="350.4" y="4.6" fill="#0099FF" width="0.7" height="0.7"/>
		<rect x="354.1" y="0.9" fill="#0099FF" width="0.7" height="0.7"/>
		<rect x="354.1" y="4.6" fill="#0099FF" width="0.7" height="0.7"/>
		<rect x="351.1" y="1.7" fill="#0099FF" width="0.7" height="0.7"/>
		<rect x="351.1" y="3.9" fill="#0099FF" width="0.7" height="0.7"/>
		<rect x="353.3" y="1.7" fill="#0099FF" width="0.7" height="0.7"/>
		<rect x="353.3" y="3.9" fill="#0099FF" width="0.7" height="0.7"/>
		<polygon fill="#0099FF" points="353.3,2.4 352.6,2.4 351.9,2.4 351.9,3.1 351.9,3.9 352.6,3.9 353.3,3.9 353.3,3.1 		"/>
	</g>
	<g>
		<polygon fill="#0099FF" points="333.9,2.4 333.9,1.7 333.2,1.7 332.5,1.7 332.5,2.4 333.2,2.4 		"/>
		<polygon fill="#0099FF" points="333.9,2.4 333.9,3.1 333.9,3.9 333.2,3.9 332.5,3.9 332.5,3.1 332.5,2.4 331.7,2.4 331.7,3.1 
			331.7,3.9 332.5,3.9 332.5,4.6 333.2,4.6 333.9,4.6 333.9,3.9 334.7,3.9 334.7,3.1 334.7,2.4 		"/>
	</g>
	<g>
		<rect x="336.7" y="0.2" fill="#0099FF" width="0.7" height="0.7"/>
		<rect x="336.7" y="5.3" fill="#0099FF" width="0.7" height="0.7"/>
		<rect x="341.9" y="0.2" fill="#0099FF" width="0.7" height="0.7"/>
		<rect x="341.9" y="5.3" fill="#0099FF" width="0.7" height="0.7"/>
		<rect x="337.5" y="0.9" fill="#0099FF" width="0.7" height="0.7"/>
		<rect x="337.5" y="4.6" fill="#0099FF" width="0.7" height="0.7"/>
		<rect x="341.1" y="0.9" fill="#0099FF" width="0.7" height="0.7"/>
		<rect x="341.1" y="4.6" fill="#0099FF" width="0.7" height="0.7"/>
		<rect x="338.2" y="1.7" fill="#0099FF" width="0.7" height="0.7"/>
		<rect x="338.2" y="3.9" fill="#0099FF" width="0.7" height="0.7"/>
		<rect x="340.4" y="1.7" fill="#0099FF" width="0.7" height="0.7"/>
		<rect x="340.4" y="3.9" fill="#0099FF" width="0.7" height="0.7"/>
		<polygon fill="#0099FF" points="340.4,2.4 339.7,2.4 338.9,2.4 338.9,3.1 338.9,3.9 339.7,3.9 340.4,3.9 340.4,3.1 		"/>
	</g>
	<g>
		<polygon fill="#0099FF" points="321,2.4 321,1.7 320.2,1.7 319.5,1.7 319.5,2.4 320.2,2.4 		"/>
		<polygon fill="#0099FF" points="321,2.4 321,3.1 321,3.9 320.2,3.9 319.5,3.9 319.5,3.1 319.5,2.4 318.8,2.4 318.8,3.1 318.8,3.9 
			319.5,3.9 319.5,4.6 320.2,4.6 321,4.6 321,3.9 321.7,3.9 321.7,3.1 321.7,2.4 		"/>
	</g>
	<g>
		<rect x="323.8" y="0.2" fill="#0099FF" width="0.7" height="0.7"/>
		<rect x="323.8" y="5.3" fill="#0099FF" width="0.7" height="0.7"/>
		<rect x="328.9" y="0.2" fill="#0099FF" width="0.7" height="0.7"/>
		<rect x="328.9" y="5.3" fill="#0099FF" width="0.7" height="0.7"/>
		<rect x="324.5" y="0.9" fill="#0099FF" width="0.7" height="0.7"/>
		<rect x="324.5" y="4.6" fill="#0099FF" width="0.7" height="0.7"/>
		<rect x="328.2" y="0.9" fill="#0099FF" width="0.7" height="0.7"/>
		<rect x="328.2" y="4.6" fill="#0099FF" width="0.7" height="0.7"/>
		<rect x="325.2" y="1.7" fill="#0099FF" width="0.7" height="0.7"/>
		<rect x="325.2" y="3.9" fill="#0099FF" width="0.7" height="0.7"/>
		<rect x="327.4" y="1.7" fill="#0099FF" width="0.7" height="0.7"/>
		<rect x="327.4" y="3.9" fill="#0099FF" width="0.7" height="0.7"/>
		<polygon fill="#0099FF" points="327.4,2.4 326.7,2.4 326,2.4 326,3.1 326,3.9 326.7,3.9 327.4,3.9 327.4,3.1 		"/>
	</g>
	<g>
		<polygon fill="#0099FF" points="308,2.4 308,1.7 307.3,1.7 306.6,1.7 306.6,2.4 307.3,2.4 		"/>
		<polygon fill="#0099FF" points="308,2.4 308,3.1 308,3.9 307.3,3.9 306.6,3.9 306.6,3.1 306.6,2.4 305.8,2.4 305.8,3.1 305.8,3.9 
			306.6,3.9 306.6,4.6 307.3,4.6 308,4.6 308,3.9 308.8,3.9 308.8,3.1 308.8,2.4 		"/>
	</g>
	<g>
		<rect x="310.8" y="0.2" fill="#0099FF" width="0.7" height="0.7"/>
		<rect x="310.8" y="5.3" fill="#0099FF" width="0.7" height="0.7"/>
		<rect x="316" y="0.2" fill="#0099FF" width="0.7" height="0.7"/>
		<rect x="316" y="5.3" fill="#0099FF" width="0.7" height="0.7"/>
		<rect x="311.6" y="0.9" fill="#0099FF" width="0.7" height="0.7"/>
		<rect x="311.6" y="4.6" fill="#0099FF" width="0.7" height="0.7"/>
		<rect x="315.2" y="0.9" fill="#0099FF" width="0.7" height="0.7"/>
		<rect x="315.2" y="4.6" fill="#0099FF" width="0.7" height="0.7"/>
		<rect x="312.3" y="1.7" fill="#0099FF" width="0.7" height="0.7"/>
		<rect x="312.3" y="3.9" fill="#0099FF" width="0.7" height="0.7"/>
		<rect x="314.5" y="1.7" fill="#0099FF" width="0.7" height="0.7"/>
		<rect x="314.5" y="3.9" fill="#0099FF" width="0.7" height="0.7"/>
		<polygon fill="#0099FF" points="314.5,2.4 313.8,2.4 313,2.4 313,3.1 313,3.9 313.8,3.9 314.5,3.9 314.5,3.1 		"/>
	</g>
	<g>
		<polygon fill="#0099FF" points="295.1,2.4 295.1,1.7 294.3,1.7 293.6,1.7 293.6,2.4 294.3,2.4 		"/>
		<polygon fill="#0099FF" points="295.1,2.4 295.1,3.1 295.1,3.9 294.3,3.9 293.6,3.9 293.6,3.1 293.6,2.4 292.9,2.4 292.9,3.1 
			292.9,3.9 293.6,3.9 293.6,4.6 294.3,4.6 295.1,4.6 295.1,3.9 295.8,3.9 295.8,3.1 295.8,2.4 		"/>
	</g>
	<g>
		<rect x="297.9" y="0.2" fill="#0099FF" width="0.7" height="0.7"/>
		<rect x="297.9" y="5.3" fill="#0099FF" width="0.7" height="0.7"/>
		<rect x="303" y="0.2" fill="#0099FF" width="0.7" height="0.7"/>
		<rect x="303" y="5.3" fill="#0099FF" width="0.7" height="0.7"/>
		<rect x="298.6" y="0.9" fill="#0099FF" width="0.7" height="0.7"/>
		<rect x="298.6" y="4.6" fill="#0099FF" width="0.7" height="0.7"/>
		<rect x="302.3" y="0.9" fill="#0099FF" width="0.7" height="0.7"/>
		<rect x="302.3" y="4.6" fill="#0099FF" width="0.7" height="0.7"/>
		<rect x="299.3" y="1.7" fill="#0099FF" width="0.7" height="0.7"/>
		<rect x="299.3" y="3.9" fill="#0099FF" width="0.7" height="0.7"/>
		<rect x="301.5" y="1.7" fill="#0099FF" width="0.7" height="0.7"/>
		<rect x="301.5" y="3.9" fill="#0099FF" width="0.7" height="0.7"/>
		<polygon fill="#0099FF" points="301.5,2.4 300.8,2.4 300.1,2.4 300.1,3.1 300.1,3.9 300.8,3.9 301.5,3.9 301.5,3.1 		"/>
	</g>
	<g>
		<polygon fill="#0099FF" points="282.1,2.4 282.1,1.7 281.4,1.7 280.6,1.7 280.6,2.4 281.4,2.4 		"/>
		<polygon fill="#0099FF" points="282.1,2.4 282.1,3.1 282.1,3.9 281.4,3.9 280.6,3.9 280.6,3.1 280.6,2.4 279.9,2.4 279.9,3.1 
			279.9,3.9 280.6,3.9 280.6,4.6 281.4,4.6 282.1,4.6 282.1,3.9 282.9,3.9 282.9,3.1 282.9,2.4 		"/>
	</g>
	<g>
		<rect x="284.9" y="0.2" fill="#0099FF" width="0.7" height="0.7"/>
		<rect x="284.9" y="5.3" fill="#0099FF" width="0.7" height="0.7"/>
		<rect x="290.1" y="0.2" fill="#0099FF" width="0.7" height="0.7"/>
		<rect x="290.1" y="5.3" fill="#0099FF" width="0.7" height="0.7"/>
		<rect x="285.7" y="0.9" fill="#0099FF" width="0.7" height="0.7"/>
		<rect x="285.7" y="4.6" fill="#0099FF" width="0.7" height="0.7"/>
		<rect x="289.3" y="0.9" fill="#0099FF" width="0.7" height="0.7"/>
		<rect x="289.3" y="4.6" fill="#0099FF" width="0.7" height="0.7"/>
		<rect x="286.4" y="1.7" fill="#0099FF" width="0.7" height="0.7"/>
		<rect x="286.4" y="3.9" fill="#0099FF" width="0.7" height="0.7"/>
		<rect x="288.6" y="1.7" fill="#0099FF" width="0.7" height="0.7"/>
		<rect x="288.6" y="3.9" fill="#0099FF" width="0.7" height="0.7"/>
		<polygon fill="#0099FF" points="288.6,2.4 287.9,2.4 287.1,2.4 287.1,3.1 287.1,3.9 287.9,3.9 288.6,3.9 288.6,3.1 		"/>
	</g>
	<g>
		<polygon fill="#0099FF" points="269.2,2.4 269.2,1.7 268.4,1.7 267.7,1.7 267.7,2.4 268.4,2.4 		"/>
		<polygon fill="#0099FF" points="269.2,2.4 269.2,3.1 269.2,3.9 268.4,3.9 267.7,3.9 267.7,3.1 267.7,2.4 267,2.4 267,3.1 267,3.9 
			267.7,3.9 267.7,4.6 268.4,4.6 269.2,4.6 269.2,3.9 269.9,3.9 269.9,3.1 269.9,2.4 		"/>
	</g>
	<g>
		<rect x="272" y="0.2" fill="#0099FF" width="0.7" height="0.7"/>
		<rect x="272" y="5.3" fill="#0099FF" width="0.7" height="0.7"/>
		<rect x="277.1" y="0.2" fill="#0099FF" width="0.7" height="0.7"/>
		<rect x="277.1" y="5.3" fill="#0099FF" width="0.7" height="0.7"/>
		<rect x="272.7" y="0.9" fill="#0099FF" width="0.7" height="0.7"/>
		<rect x="272.7" y="4.6" fill="#0099FF" width="0.7" height="0.7"/>
		<rect x="276.4" y="0.9" fill="#0099FF" width="0.7" height="0.7"/>
		<rect x="276.4" y="4.6" fill="#0099FF" width="0.7" height="0.7"/>
		<rect x="273.4" y="1.7" fill="#0099FF" width="0.7" height="0.7"/>
		<rect x="273.4" y="3.9" fill="#0099FF" width="0.7" height="0.7"/>
		<rect x="275.6" y="1.7" fill="#0099FF" width="0.7" height="0.7"/>
		<rect x="275.6" y="3.9" fill="#0099FF" width="0.7" height="0.7"/>
		<polygon fill="#0099FF" points="275.6,2.4 274.9,2.4 274.2,2.4 274.2,3.1 274.2,3.9 274.9,3.9 275.6,3.9 275.6,3.1 		"/>
	</g>
	<g>
		<polygon fill="#0099FF" points="256.2,2.4 256.2,1.7 255.5,1.7 254.7,1.7 254.7,2.4 255.5,2.4 		"/>
		<polygon fill="#0099FF" points="256.2,2.4 256.2,3.1 256.2,3.9 255.5,3.9 254.7,3.9 254.7,3.1 254.7,2.4 254,2.4 254,3.1 254,3.9 
			254.7,3.9 254.7,4.6 255.5,4.6 256.2,4.6 256.2,3.9 257,3.9 257,3.1 257,2.4 		"/>
	</g>
	<g>
		<rect x="259" y="0.2" fill="#0099FF" width="0.7" height="0.7"/>
		<rect x="259" y="5.3" fill="#0099FF" width="0.7" height="0.7"/>
		<rect x="264.2" y="0.2" fill="#0099FF" width="0.7" height="0.7"/>
		<rect x="264.2" y="5.3" fill="#0099FF" width="0.7" height="0.7"/>
		<rect x="259.8" y="0.9" fill="#0099FF" width="0.7" height="0.7"/>
		<rect x="259.8" y="4.6" fill="#0099FF" width="0.7" height="0.7"/>
		<rect x="263.4" y="0.9" fill="#0099FF" width="0.7" height="0.7"/>
		<rect x="263.4" y="4.6" fill="#0099FF" width="0.7" height="0.7"/>
		<rect x="260.5" y="1.7" fill="#0099FF" width="0.7" height="0.7"/>
		<rect x="260.5" y="3.9" fill="#0099FF" width="0.7" height="0.7"/>
		<rect x="262.7" y="1.7" fill="#0099FF" width="0.7" height="0.7"/>
		<rect x="262.7" y="3.9" fill="#0099FF" width="0.7" height="0.7"/>
		<polygon fill="#0099FF" points="262.7,2.4 262,2.4 261.2,2.4 261.2,3.1 261.2,3.9 262,3.9 262.7,3.9 262.7,3.1 		"/>
	</g>
	<g>
		<polygon fill="#0099FF" points="243.3,2.4 243.3,1.7 242.5,1.7 241.8,1.7 241.8,2.4 242.5,2.4 		"/>
		<polygon fill="#0099FF" points="243.3,2.4 243.3,3.1 243.3,3.9 242.5,3.9 241.8,3.9 241.8,3.1 241.8,2.4 241.1,2.4 241.1,3.1 
			241.1,3.9 241.8,3.9 241.8,4.6 242.5,4.6 243.3,4.6 243.3,3.9 244,3.9 244,3.1 244,2.4 		"/>
	</g>
	<g>
		<rect x="246.1" y="0.2" fill="#0099FF" width="0.7" height="0.7"/>
		<rect x="246.1" y="5.3" fill="#0099FF" width="0.7" height="0.7"/>
		<rect x="251.2" y="0.2" fill="#0099FF" width="0.7" height="0.7"/>
		<rect x="251.2" y="5.3" fill="#0099FF" width="0.7" height="0.7"/>
		<rect x="246.8" y="0.9" fill="#0099FF" width="0.7" height="0.7"/>
		<rect x="246.8" y="4.6" fill="#0099FF" width="0.7" height="0.7"/>
		<rect x="250.5" y="0.9" fill="#0099FF" width="0.7" height="0.7"/>
		<rect x="250.5" y="4.6" fill="#0099FF" width="0.7" height="0.7"/>
		<rect x="247.5" y="1.7" fill="#0099FF" width="0.7" height="0.7"/>
		<rect x="247.5" y="3.9" fill="#0099FF" width="0.7" height="0.7"/>
		<rect x="249.7" y="1.7" fill="#0099FF" width="0.7" height="0.7"/>
		<rect x="249.7" y="3.9" fill="#0099FF" width="0.7" height="0.7"/>
		<polygon fill="#0099FF" points="249.7,2.4 249,2.4 248.3,2.4 248.3,3.1 248.3,3.9 249,3.9 249.7,3.9 249.7,3.1 		"/>
	</g>
	<g>
		<polygon fill="#0099FF" points="230.3,2.4 230.3,1.7 229.6,1.7 228.8,1.7 228.8,2.4 229.6,2.4 		"/>
		<polygon fill="#0099FF" points="230.3,2.4 230.3,3.1 230.3,3.9 229.6,3.9 228.8,3.9 228.8,3.1 228.8,2.4 228.1,2.4 228.1,3.1 
			228.1,3.9 228.8,3.9 228.8,4.6 229.6,4.6 230.3,4.6 230.3,3.9 231.1,3.9 231.1,3.1 231.1,2.4 		"/>
	</g>
	<g>
		<rect x="233.1" y="0.2" fill="#0099FF" width="0.7" height="0.7"/>
		<rect x="233.1" y="5.3" fill="#0099FF" width="0.7" height="0.7"/>
		<rect x="238.3" y="0.2" fill="#0099FF" width="0.7" height="0.7"/>
		<rect x="238.3" y="5.3" fill="#0099FF" width="0.7" height="0.7"/>
		<rect x="233.8" y="0.9" fill="#0099FF" width="0.7" height="0.7"/>
		<rect x="233.8" y="4.6" fill="#0099FF" width="0.7" height="0.7"/>
		<rect x="237.5" y="0.9" fill="#0099FF" width="0.7" height="0.7"/>
		<rect x="237.5" y="4.6" fill="#0099FF" width="0.7" height="0.7"/>
		<rect x="234.6" y="1.7" fill="#0099FF" width="0.7" height="0.7"/>
		<rect x="234.6" y="3.9" fill="#0099FF" width="0.7" height="0.7"/>
		<rect x="236.8" y="1.7" fill="#0099FF" width="0.7" height="0.7"/>
		<rect x="236.8" y="3.9" fill="#0099FF" width="0.7" height="0.7"/>
		<polygon fill="#0099FF" points="236.8,2.4 236.1,2.4 235.3,2.4 235.3,3.1 235.3,3.9 236.1,3.9 236.8,3.9 236.8,3.1 		"/>
	</g>
	<g>
		<polygon fill="#0099FF" points="217.4,2.4 217.4,1.7 216.6,1.7 215.9,1.7 215.9,2.4 216.6,2.4 		"/>
		<polygon fill="#0099FF" points="217.4,2.4 217.4,3.1 217.4,3.9 216.6,3.9 215.9,3.9 215.9,3.1 215.9,2.4 215.2,2.4 215.2,3.1 
			215.2,3.9 215.9,3.9 215.9,4.6 216.6,4.6 217.4,4.6 217.4,3.9 218.1,3.9 218.1,3.1 218.1,2.4 		"/>
	</g>
	<g>
		<rect x="220.2" y="0.2" fill="#0099FF" width="0.7" height="0.7"/>
		<rect x="220.2" y="5.3" fill="#0099FF" width="0.7" height="0.7"/>
		<rect x="225.3" y="0.2" fill="#0099FF" width="0.7" height="0.7"/>
		<rect x="225.3" y="5.3" fill="#0099FF" width="0.7" height="0.7"/>
		<rect x="220.9" y="0.9" fill="#0099FF" width="0.7" height="0.7"/>
		<rect x="220.9" y="4.6" fill="#0099FF" width="0.7" height="0.7"/>
		<rect x="224.6" y="0.9" fill="#0099FF" width="0.7" height="0.7"/>
		<rect x="224.6" y="4.6" fill="#0099FF" width="0.7" height="0.7"/>
		<rect x="221.6" y="1.7" fill="#0099FF" width="0.7" height="0.7"/>
		<rect x="221.6" y="3.9" fill="#0099FF" width="0.7" height="0.7"/>
		<rect x="223.8" y="1.7" fill="#0099FF" width="0.7" height="0.7"/>
		<rect x="223.8" y="3.9" fill="#0099FF" width="0.7" height="0.7"/>
		<polygon fill="#0099FF" points="223.8,2.4 223.1,2.4 222.4,2.4 222.4,3.1 222.4,3.9 223.1,3.9 223.8,3.9 223.8,3.1 		"/>
	</g>
	<g>
		<polygon fill="#0099FF" points="204.4,2.4 204.4,1.7 203.7,1.7 202.9,1.7 202.9,2.4 203.7,2.4 		"/>
		<polygon fill="#0099FF" points="204.4,2.4 204.4,3.1 204.4,3.9 203.7,3.9 202.9,3.9 202.9,3.1 202.9,2.4 202.2,2.4 202.2,3.1 
			202.2,3.9 202.9,3.9 202.9,4.6 203.7,4.6 204.4,4.6 204.4,3.9 205.2,3.9 205.2,3.1 205.2,2.4 		"/>
	</g>
	<g>
		<rect x="207.2" y="0.2" fill="#0099FF" width="0.7" height="0.7"/>
		<rect x="207.2" y="5.3" fill="#0099FF" width="0.7" height="0.7"/>
		<rect x="212.4" y="0.2" fill="#0099FF" width="0.7" height="0.7"/>
		<rect x="212.4" y="5.3" fill="#0099FF" width="0.7" height="0.7"/>
		<rect x="207.9" y="0.9" fill="#0099FF" width="0.7" height="0.7"/>
		<rect x="207.9" y="4.6" fill="#0099FF" width="0.7" height="0.7"/>
		<rect x="211.6" y="0.9" fill="#0099FF" width="0.7" height="0.7"/>
		<rect x="211.6" y="4.6" fill="#0099FF" width="0.7" height="0.7"/>
		<rect x="208.7" y="1.7" fill="#0099FF" width="0.7" height="0.7"/>
		<rect x="208.7" y="3.9" fill="#0099FF" width="0.7" height="0.7"/>
		<rect x="210.9" y="1.7" fill="#0099FF" width="0.7" height="0.7"/>
		<rect x="210.9" y="3.9" fill="#0099FF" width="0.7" height="0.7"/>
		<polygon fill="#0099FF" points="210.9,2.4 210.2,2.4 209.4,2.4 209.4,3.1 209.4,3.9 210.2,3.9 210.9,3.9 210.9,3.1 		"/>
	</g>
	<g>
		<polygon fill="#0099FF" points="191.5,2.4 191.5,1.7 190.7,1.7 190,1.7 190,2.4 190.7,2.4 		"/>
		<polygon fill="#0099FF" points="191.5,2.4 191.5,3.1 191.5,3.9 190.7,3.9 190,3.9 190,3.1 190,2.4 189.3,2.4 189.3,3.1 189.3,3.9 
			190,3.9 190,4.6 190.7,4.6 191.5,4.6 191.5,3.9 192.2,3.9 192.2,3.1 192.2,2.4 		"/>
	</g>
	<g>
		<rect x="194.3" y="0.2" fill="#0099FF" width="0.7" height="0.7"/>
		<rect x="194.3" y="5.3" fill="#0099FF" width="0.7" height="0.7"/>
		<rect x="199.4" y="0.2" fill="#0099FF" width="0.7" height="0.7"/>
		<rect x="199.4" y="5.3" fill="#0099FF" width="0.7" height="0.7"/>
		<rect x="195" y="0.9" fill="#0099FF" width="0.7" height="0.7"/>
		<rect x="195" y="4.6" fill="#0099FF" width="0.7" height="0.7"/>
		<rect x="198.7" y="0.9" fill="#0099FF" width="0.7" height="0.7"/>
		<rect x="198.7" y="4.6" fill="#0099FF" width="0.7" height="0.7"/>
		<rect x="195.7" y="1.7" fill="#0099FF" width="0.7" height="0.7"/>
		<rect x="195.7" y="3.9" fill="#0099FF" width="0.7" height="0.7"/>
		<rect x="197.9" y="1.7" fill="#0099FF" width="0.7" height="0.7"/>
		<rect x="197.9" y="3.9" fill="#0099FF" width="0.7" height="0.7"/>
		<polygon fill="#0099FF" points="197.9,2.4 197.2,2.4 196.5,2.4 196.5,3.1 196.5,3.9 197.2,3.9 197.9,3.9 197.9,3.1 		"/>
	</g>
	<g>
		<polygon fill="#0099FF" points="178.5,2.4 178.5,1.7 177.8,1.7 177,1.7 177,2.4 177.8,2.4 		"/>
		<polygon fill="#0099FF" points="178.5,2.4 178.5,3.1 178.5,3.9 177.8,3.9 177,3.9 177,3.1 177,2.4 176.3,2.4 176.3,3.1 176.3,3.9 
			177,3.9 177,4.6 177.8,4.6 178.5,4.6 178.5,3.9 179.3,3.9 179.3,3.1 179.3,2.4 		"/>
	</g>
	<g>
		<rect x="181.3" y="0.2" fill="#0099FF" width="0.7" height="0.7"/>
		<rect x="181.3" y="5.3" fill="#0099FF" width="0.7" height="0.7"/>
		<rect x="186.5" y="0.2" fill="#0099FF" width="0.7" height="0.7"/>
		<rect x="186.5" y="5.3" fill="#0099FF" width="0.7" height="0.7"/>
		<rect x="182" y="0.9" fill="#0099FF" width="0.7" height="0.7"/>
		<rect x="182" y="4.6" fill="#0099FF" width="0.7" height="0.7"/>
		<rect x="185.7" y="0.9" fill="#0099FF" width="0.7" height="0.7"/>
		<rect x="185.7" y="4.6" fill="#0099FF" width="0.7" height="0.7"/>
		<rect x="182.8" y="1.7" fill="#0099FF" width="0.7" height="0.7"/>
		<rect x="182.8" y="3.9" fill="#0099FF" width="0.7" height="0.7"/>
		<rect x="185" y="1.7" fill="#0099FF" width="0.7" height="0.7"/>
		<rect x="185" y="3.9" fill="#0099FF" width="0.7" height="0.7"/>
		<polygon fill="#0099FF" points="185,2.4 184.3,2.4 183.5,2.4 183.5,3.1 183.5,3.9 184.3,3.9 185,3.9 185,3.1 		"/>
	</g>
	<g>
		<polygon fill="#0099FF" points="165.6,2.4 165.6,1.7 164.8,1.7 164.1,1.7 164.1,2.4 164.8,2.4 		"/>
		<polygon fill="#0099FF" points="165.6,2.4 165.6,3.1 165.6,3.9 164.8,3.9 164.1,3.9 164.1,3.1 164.1,2.4 163.4,2.4 163.4,3.1 
			163.4,3.9 164.1,3.9 164.1,4.6 164.8,4.6 165.6,4.6 165.6,3.9 166.3,3.9 166.3,3.1 166.3,2.4 		"/>
	</g>
	<g>
		<rect x="168.4" y="0.2" fill="#0099FF" width="0.7" height="0.7"/>
		<rect x="168.4" y="5.3" fill="#0099FF" width="0.7" height="0.7"/>
		<rect x="173.5" y="0.2" fill="#0099FF" width="0.7" height="0.7"/>
		<rect x="173.5" y="5.3" fill="#0099FF" width="0.7" height="0.7"/>
		<rect x="169.1" y="0.9" fill="#0099FF" width="0.7" height="0.7"/>
		<rect x="169.1" y="4.6" fill="#0099FF" width="0.7" height="0.7"/>
		<rect x="172.8" y="0.9" fill="#0099FF" width="0.7" height="0.7"/>
		<rect x="172.8" y="4.6" fill="#0099FF" width="0.7" height="0.7"/>
		<rect x="169.8" y="1.7" fill="#0099FF" width="0.7" height="0.7"/>
		<rect x="169.8" y="3.9" fill="#0099FF" width="0.7" height="0.7"/>
		<rect x="172" y="1.7" fill="#0099FF" width="0.7" height="0.7"/>
		<rect x="172" y="3.9" fill="#0099FF" width="0.7" height="0.7"/>
		<polygon fill="#0099FF" points="172,2.4 171.3,2.4 170.6,2.4 170.6,3.1 170.6,3.9 171.3,3.9 172,3.9 172,3.1 		"/>
	</g>
	<g>
		<polygon fill="#0099FF" points="152.6,2.4 152.6,1.7 151.9,1.7 151.1,1.7 151.1,2.4 151.9,2.4 		"/>
		<polygon fill="#0099FF" points="152.6,2.4 152.6,3.1 152.6,3.9 151.9,3.9 151.1,3.9 151.1,3.1 151.1,2.4 150.4,2.4 150.4,3.1 
			150.4,3.9 151.1,3.9 151.1,4.6 151.9,4.6 152.6,4.6 152.6,3.9 153.4,3.9 153.4,3.1 153.4,2.4 		"/>
	</g>
	<g>
		<rect x="155.4" y="0.2" fill="#0099FF" width="0.7" height="0.7"/>
		<rect x="155.4" y="5.3" fill="#0099FF" width="0.7" height="0.7"/>
		<rect x="160.6" y="0.2" fill="#0099FF" width="0.7" height="0.7"/>
		<rect x="160.6" y="5.3" fill="#0099FF" width="0.7" height="0.7"/>
		<rect x="156.1" y="0.9" fill="#0099FF" width="0.7" height="0.7"/>
		<rect x="156.1" y="4.6" fill="#0099FF" width="0.7" height="0.7"/>
		<rect x="159.8" y="0.9" fill="#0099FF" width="0.7" height="0.7"/>
		<rect x="159.8" y="4.6" fill="#0099FF" width="0.7" height="0.7"/>
		<rect x="156.9" y="1.7" fill="#0099FF" width="0.7" height="0.7"/>
		<rect x="156.9" y="3.9" fill="#0099FF" width="0.7" height="0.7"/>
		<rect x="159.1" y="1.7" fill="#0099FF" width="0.7" height="0.7"/>
		<rect x="159.1" y="3.9" fill="#0099FF" width="0.7" height="0.7"/>
		<polygon fill="#0099FF" points="159.1,2.4 158.4,2.4 157.6,2.4 157.6,3.1 157.6,3.9 158.4,3.9 159.1,3.9 159.1,3.1 		"/>
	</g>
	<g>
		<polygon fill="#0099FF" points="139.7,2.4 139.7,1.7 138.9,1.7 138.2,1.7 138.2,2.4 138.9,2.4 		"/>
		<polygon fill="#0099FF" points="139.7,2.4 139.7,3.1 139.7,3.9 138.9,3.9 138.2,3.9 138.2,3.1 138.2,2.4 137.5,2.4 137.5,3.1 
			137.5,3.9 138.2,3.9 138.2,4.6 138.9,4.6 139.7,4.6 139.7,3.9 140.4,3.9 140.4,3.1 140.4,2.4 		"/>
	</g>
	<g>
		<rect x="142.5" y="0.2" fill="#0099FF" width="0.7" height="0.7"/>
		<rect x="142.5" y="5.3" fill="#0099FF" width="0.7" height="0.7"/>
		<rect x="147.6" y="0.2" fill="#0099FF" width="0.7" height="0.7"/>
		<rect x="147.6" y="5.3" fill="#0099FF" width="0.7" height="0.7"/>
		<rect x="143.2" y="0.9" fill="#0099FF" width="0.7" height="0.7"/>
		<rect x="143.2" y="4.6" fill="#0099FF" width="0.7" height="0.7"/>
		<rect x="146.9" y="0.9" fill="#0099FF" width="0.7" height="0.7"/>
		<rect x="146.9" y="4.6" fill="#0099FF" width="0.7" height="0.7"/>
		<rect x="143.9" y="1.7" fill="#0099FF" width="0.7" height="0.7"/>
		<rect x="143.9" y="3.9" fill="#0099FF" width="0.7" height="0.7"/>
		<rect x="146.1" y="1.7" fill="#0099FF" width="0.7" height="0.7"/>
		<rect x="146.1" y="3.9" fill="#0099FF" width="0.7" height="0.7"/>
		<polygon fill="#0099FF" points="146.1,2.4 145.4,2.4 144.7,2.4 144.7,3.1 144.7,3.9 145.4,3.9 146.1,3.9 146.1,3.1 		"/>
	</g>
	<g>
		<polygon fill="#0099FF" points="126.7,2.4 126.7,1.7 126,1.7 125.2,1.7 125.2,2.4 126,2.4 		"/>
		<polygon fill="#0099FF" points="126.7,2.4 126.7,3.1 126.7,3.9 126,3.9 125.2,3.9 125.2,3.1 125.2,2.4 124.5,2.4 124.5,3.1 
			124.5,3.9 125.2,3.9 125.2,4.6 126,4.6 126.7,4.6 126.7,3.9 127.4,3.9 127.4,3.1 127.4,2.4 		"/>
	</g>
	<g>
		<rect x="129.5" y="0.2" fill="#0099FF" width="0.7" height="0.7"/>
		<rect x="129.5" y="5.3" fill="#0099FF" width="0.7" height="0.7"/>
		<rect x="134.7" y="0.2" fill="#0099FF" width="0.7" height="0.7"/>
		<rect x="134.7" y="5.3" fill="#0099FF" width="0.7" height="0.7"/>
		<rect x="130.2" y="0.9" fill="#0099FF" width="0.7" height="0.7"/>
		<rect x="130.2" y="4.6" fill="#0099FF" width="0.7" height="0.7"/>
		<rect x="133.9" y="0.9" fill="#0099FF" width="0.7" height="0.7"/>
		<rect x="133.9" y="4.6" fill="#0099FF" width="0.7" height="0.7"/>
		<rect x="131" y="1.7" fill="#0099FF" width="0.7" height="0.7"/>
		<rect x="131" y="3.9" fill="#0099FF" width="0.7" height="0.7"/>
		<rect x="133.2" y="1.7" fill="#0099FF" width="0.7" height="0.7"/>
		<rect x="133.2" y="3.9" fill="#0099FF" width="0.7" height="0.7"/>
		<polygon fill="#0099FF" points="133.2,2.4 132.5,2.4 131.7,2.4 131.7,3.1 131.7,3.9 132.5,3.9 133.2,3.9 133.2,3.1 		"/>
	</g>
	<g>
		<polygon fill="#0099FF" points="113.8,2.4 113.8,1.7 113,1.7 112.3,1.7 112.3,2.4 113,2.4 		"/>
		<polygon fill="#0099FF" points="113.8,2.4 113.8,3.1 113.8,3.9 113,3.9 112.3,3.9 112.3,3.1 112.3,2.4 111.6,2.4 111.6,3.1 
			111.6,3.9 112.3,3.9 112.3,4.6 113,4.6 113.8,4.6 113.8,3.9 114.5,3.9 114.5,3.1 114.5,2.4 		"/>
	</g>
	<g>
		<rect x="116.6" y="0.2" fill="#0099FF" width="0.7" height="0.7"/>
		<rect x="116.6" y="5.3" fill="#0099FF" width="0.7" height="0.7"/>
		<rect x="121.7" y="0.2" fill="#0099FF" width="0.7" height="0.7"/>
		<rect x="121.7" y="5.3" fill="#0099FF" width="0.7" height="0.7"/>
		<rect x="117.3" y="0.9" fill="#0099FF" width="0.7" height="0.7"/>
		<rect x="117.3" y="4.6" fill="#0099FF" width="0.7" height="0.7"/>
		<rect x="121" y="0.9" fill="#0099FF" width="0.7" height="0.7"/>
		<rect x="121" y="4.6" fill="#0099FF" width="0.7" height="0.7"/>
		<rect x="118" y="1.7" fill="#0099FF" width="0.7" height="0.7"/>
		<rect x="118" y="3.9" fill="#0099FF" width="0.7" height="0.7"/>
		<rect x="120.2" y="1.7" fill="#0099FF" width="0.7" height="0.7"/>
		<rect x="120.2" y="3.9" fill="#0099FF" width="0.7" height="0.7"/>
		<polygon fill="#0099FF" points="120.2,2.4 119.5,2.4 118.8,2.4 118.8,3.1 118.8,3.9 119.5,3.9 120.2,3.9 120.2,3.1 		"/>
	</g>
	<g>
		<polygon fill="#0099FF" points="100.8,2.4 100.8,1.7 100.1,1.7 99.3,1.7 99.3,2.4 100.1,2.4 		"/>
		<polygon fill="#0099FF" points="100.8,2.4 100.8,3.1 100.8,3.9 100.1,3.9 99.3,3.9 99.3,3.1 99.3,2.4 98.6,2.4 98.6,3.1 98.6,3.9 
			99.3,3.9 99.3,4.6 100.1,4.6 100.8,4.6 100.8,3.9 101.5,3.9 101.5,3.1 101.5,2.4 		"/>
	</g>
	<g>
		<rect x="103.6" y="0.2" fill="#0099FF" width="0.7" height="0.7"/>
		<rect x="103.6" y="5.3" fill="#0099FF" width="0.7" height="0.7"/>
		<rect x="108.8" y="0.2" fill="#0099FF" width="0.7" height="0.7"/>
		<rect x="108.8" y="5.3" fill="#0099FF" width="0.7" height="0.7"/>
		<rect x="104.3" y="0.9" fill="#0099FF" width="0.7" height="0.7"/>
		<rect x="104.3" y="4.6" fill="#0099FF" width="0.7" height="0.7"/>
		<rect x="108" y="0.9" fill="#0099FF" width="0.7" height="0.7"/>
		<rect x="108" y="4.6" fill="#0099FF" width="0.7" height="0.7"/>
		<rect x="105.1" y="1.7" fill="#0099FF" width="0.7" height="0.7"/>
		<rect x="105.1" y="3.9" fill="#0099FF" width="0.7" height="0.7"/>
		<rect x="107.3" y="1.7" fill="#0099FF" width="0.7" height="0.7"/>
		<rect x="107.3" y="3.9" fill="#0099FF" width="0.7" height="0.7"/>
		<polygon fill="#0099FF" points="107.3,2.4 106.6,2.4 105.8,2.4 105.8,3.1 105.8,3.9 106.6,3.9 107.3,3.9 107.3,3.1 		"/>
	</g>
	<g>
		<polygon fill="#0099FF" points="87.9,2.4 87.9,1.7 87.1,1.7 86.4,1.7 86.4,2.4 87.1,2.4 		"/>
		<polygon fill="#0099FF" points="87.9,2.4 87.9,3.1 87.9,3.9 87.1,3.9 86.4,3.9 86.4,3.1 86.4,2.4 85.7,2.4 85.7,3.1 85.7,3.9 
			86.4,3.9 86.4,4.6 87.1,4.6 87.9,4.6 87.9,3.9 88.6,3.9 88.6,3.1 88.6,2.4 		"/>
	</g>
	<g>
		<rect x="90.7" y="0.2" fill="#0099FF" width="0.7" height="0.7"/>
		<rect x="90.7" y="5.3" fill="#0099FF" width="0.7" height="0.7"/>
		<rect x="95.8" y="0.2" fill="#0099FF" width="0.7" height="0.7"/>
		<rect x="95.8" y="5.3" fill="#0099FF" width="0.7" height="0.7"/>
		<rect x="91.4" y="0.9" fill="#0099FF" width="0.7" height="0.7"/>
		<rect x="91.4" y="4.6" fill="#0099FF" width="0.7" height="0.7"/>
		<rect x="95.1" y="0.9" fill="#0099FF" width="0.7" height="0.7"/>
		<rect x="95.1" y="4.6" fill="#0099FF" width="0.7" height="0.7"/>
		<rect x="92.1" y="1.7" fill="#0099FF" width="0.7" height="0.7"/>
		<rect x="92.1" y="3.9" fill="#0099FF" width="0.7" height="0.7"/>
		<rect x="94.3" y="1.7" fill="#0099FF" width="0.7" height="0.7"/>
		<rect x="94.3" y="3.9" fill="#0099FF" width="0.7" height="0.7"/>
		<polygon fill="#0099FF" points="94.3,2.4 93.6,2.4 92.9,2.4 92.9,3.1 92.9,3.9 93.6,3.9 94.3,3.9 94.3,3.1 		"/>
	</g>
	<g>
		<polygon fill="#0099FF" points="74.9,2.4 74.9,1.7 74.2,1.7 73.4,1.7 73.4,2.4 74.2,2.4 		"/>
		<polygon fill="#0099FF" points="74.9,2.4 74.9,3.1 74.9,3.9 74.2,3.9 73.4,3.9 73.4,3.1 73.4,2.4 72.7,2.4 72.7,3.1 72.7,3.9 
			73.4,3.9 73.4,4.6 74.2,4.6 74.9,4.6 74.9,3.9 75.6,3.9 75.6,3.1 75.6,2.4 		"/>
	</g>
	<g>
		<rect x="77.7" y="0.2" fill="#0099FF" width="0.7" height="0.7"/>
		<rect x="77.7" y="5.3" fill="#0099FF" width="0.7" height="0.7"/>
		<rect x="82.9" y="0.2" fill="#0099FF" width="0.7" height="0.7"/>
		<rect x="82.9" y="5.3" fill="#0099FF" width="0.7" height="0.7"/>
		<rect x="78.4" y="0.9" fill="#0099FF" width="0.7" height="0.7"/>
		<rect x="78.4" y="4.6" fill="#0099FF" width="0.7" height="0.7"/>
		<rect x="82.1" y="0.9" fill="#0099FF" width="0.7" height="0.7"/>
		<rect x="82.1" y="4.6" fill="#0099FF" width="0.7" height="0.7"/>
		<rect x="79.2" y="1.7" fill="#0099FF" width="0.7" height="0.7"/>
		<rect x="79.2" y="3.9" fill="#0099FF" width="0.7" height="0.7"/>
		<rect x="81.4" y="1.7" fill="#0099FF" width="0.7" height="0.7"/>
		<rect x="81.4" y="3.9" fill="#0099FF" width="0.7" height="0.7"/>
		<polygon fill="#0099FF" points="81.4,2.4 80.6,2.4 79.9,2.4 79.9,3.1 79.9,3.9 80.6,3.9 81.4,3.9 81.4,3.1 		"/>
	</g>
	<g>
		<polygon fill="#0099FF" points="62,2.4 62,1.7 61.2,1.7 60.5,1.7 60.5,2.4 61.2,2.4 		"/>
		<polygon fill="#0099FF" points="62,2.4 62,3.1 62,3.9 61.2,3.9 60.5,3.9 60.5,3.1 60.5,2.4 59.8,2.4 59.8,3.1 59.8,3.9 60.5,3.9 
			60.5,4.6 61.2,4.6 62,4.6 62,3.9 62.7,3.9 62.7,3.1 62.7,2.4 		"/>
	</g>
	<g>
		<rect x="64.8" y="0.2" fill="#0099FF" width="0.7" height="0.7"/>
		<rect x="64.8" y="5.3" fill="#0099FF" width="0.7" height="0.7"/>
		<rect x="69.9" y="0.2" fill="#0099FF" width="0.7" height="0.7"/>
		<rect x="69.9" y="5.3" fill="#0099FF" width="0.7" height="0.7"/>
		<rect x="65.5" y="0.9" fill="#0099FF" width="0.7" height="0.7"/>
		<rect x="65.5" y="4.6" fill="#0099FF" width="0.7" height="0.7"/>
		<rect x="69.2" y="0.9" fill="#0099FF" width="0.7" height="0.7"/>
		<rect x="69.2" y="4.6" fill="#0099FF" width="0.7" height="0.7"/>
		<rect x="66.2" y="1.7" fill="#0099FF" width="0.7" height="0.7"/>
		<rect x="66.2" y="3.9" fill="#0099FF" width="0.7" height="0.7"/>
		<rect x="68.4" y="1.7" fill="#0099FF" width="0.7" height="0.7"/>
		<rect x="68.4" y="3.9" fill="#0099FF" width="0.7" height="0.7"/>
		<polygon fill="#0099FF" points="68.4,2.4 67.7,2.4 67,2.4 67,3.1 67,3.9 67.7,3.9 68.4,3.9 68.4,3.1 		"/>
	</g>
	<g>
		<polygon fill="#0099FF" points="49,2.4 49,1.7 48.3,1.7 47.5,1.7 47.5,2.4 48.3,2.4 		"/>
		<polygon fill="#0099FF" points="49,2.4 49,3.1 49,3.9 48.3,3.9 47.5,3.9 47.5,3.1 47.5,2.4 46.8,2.4 46.8,3.1 46.8,3.9 47.5,3.9 
			47.5,4.6 48.3,4.6 49,4.6 49,3.9 49.7,3.9 49.7,3.1 49.7,2.4 		"/>
	</g>
	<g>
		<rect x="51.8" y="0.2" fill="#0099FF" width="0.7" height="0.7"/>
		<rect x="51.8" y="5.3" fill="#0099FF" width="0.7" height="0.7"/>
		<rect x="57" y="0.2" fill="#0099FF" width="0.7" height="0.7"/>
		<rect x="57" y="5.3" fill="#0099FF" width="0.7" height="0.7"/>
		<rect x="52.5" y="0.9" fill="#0099FF" width="0.7" height="0.7"/>
		<rect x="52.5" y="4.6" fill="#0099FF" width="0.7" height="0.7"/>
		<rect x="56.2" y="0.9" fill="#0099FF" width="0.7" height="0.7"/>
		<rect x="56.2" y="4.6" fill="#0099FF" width="0.7" height="0.7"/>
		<rect x="53.3" y="1.7" fill="#0099FF" width="0.7" height="0.7"/>
		<rect x="53.3" y="3.9" fill="#0099FF" width="0.7" height="0.7"/>
		<rect x="55.5" y="1.7" fill="#0099FF" width="0.7" height="0.7"/>
		<rect x="55.5" y="3.9" fill="#0099FF" width="0.7" height="0.7"/>
		<polygon fill="#0099FF" points="55.5,2.4 54.7,2.4 54,2.4 54,3.1 54,3.9 54.7,3.9 55.5,3.9 55.5,3.1 		"/>
	</g>
	<g>
		<polygon fill="#0099FF" points="36.1,2.4 36.1,1.7 35.3,1.7 34.6,1.7 34.6,2.4 35.3,2.4 		"/>
		<polygon fill="#0099FF" points="36.1,2.4 36.1,3.1 36.1,3.9 35.3,3.9 34.6,3.9 34.6,3.1 34.6,2.4 33.8,2.4 33.8,3.1 33.8,3.9 
			34.6,3.9 34.6,4.6 35.3,4.6 36.1,4.6 36.1,3.9 36.8,3.9 36.8,3.1 36.8,2.4 		"/>
	</g>
	<g>
		<rect x="38.9" y="0.2" fill="#0099FF" width="0.7" height="0.7"/>
		<rect x="38.9" y="5.3" fill="#0099FF" width="0.7" height="0.7"/>
		<rect x="44" y="0.2" fill="#0099FF" width="0.7" height="0.7"/>
		<rect x="44" y="5.3" fill="#0099FF" width="0.7" height="0.7"/>
		<rect x="39.6" y="0.9" fill="#0099FF" width="0.7" height="0.7"/>
		<rect x="39.6" y="4.6" fill="#0099FF" width="0.7" height="0.7"/>
		<rect x="43.3" y="0.9" fill="#0099FF" width="0.7" height="0.7"/>
		<rect x="43.3" y="4.6" fill="#0099FF" width="0.7" height="0.7"/>
		<rect x="40.3" y="1.7" fill="#0099FF" width="0.7" height="0.7"/>
		<rect x="40.3" y="3.9" fill="#0099FF" width="0.7" height="0.7"/>
		<rect x="42.5" y="1.7" fill="#0099FF" width="0.7" height="0.7"/>
		<rect x="42.5" y="3.9" fill="#0099FF" width="0.7" height="0.7"/>
		<polygon fill="#0099FF" points="42.5,2.4 41.8,2.4 41.1,2.4 41.1,3.1 41.1,3.9 41.8,3.9 42.5,3.9 42.5,3.1 		"/>
	</g>
	<g>
		<polygon fill="#0099FF" points="23.1,2.4 23.1,1.7 22.4,1.7 21.6,1.7 21.6,2.4 22.4,2.4 		"/>
		<polygon fill="#0099FF" points="23.1,2.4 23.1,3.1 23.1,3.9 22.4,3.9 21.6,3.9 21.6,3.1 21.6,2.4 20.9,2.4 20.9,3.1 20.9,3.9 
			21.6,3.9 21.6,4.6 22.4,4.6 23.1,4.6 23.1,3.9 23.8,3.9 23.8,3.1 23.8,2.4 		"/>
	</g>
	<g>
		<rect x="25.9" y="0.2" fill="#0099FF" width="0.7" height="0.7"/>
		<rect x="25.9" y="5.3" fill="#0099FF" width="0.7" height="0.7"/>
		<rect x="31.1" y="0.2" fill="#0099FF" width="0.7" height="0.7"/>
		<rect x="31.1" y="5.3" fill="#0099FF" width="0.7" height="0.7"/>
		<rect x="26.6" y="0.9" fill="#0099FF" width="0.7" height="0.7"/>
		<rect x="26.6" y="4.6" fill="#0099FF" width="0.7" height="0.7"/>
		<rect x="30.3" y="0.9" fill="#0099FF" width="0.7" height="0.7"/>
		<rect x="30.3" y="4.6" fill="#0099FF" width="0.7" height="0.7"/>
		<rect x="27.4" y="1.7" fill="#0099FF" width="0.7" height="0.7"/>
		<rect x="27.4" y="3.9" fill="#0099FF" width="0.7" height="0.7"/>
		<rect x="29.6" y="1.7" fill="#0099FF" width="0.7" height="0.7"/>
		<rect x="29.6" y="3.9" fill="#0099FF" width="0.7" height="0.7"/>
		<polygon fill="#0099FF" points="29.6,2.4 28.8,2.4 28.1,2.4 28.1,3.1 28.1,3.9 28.8,3.9 29.6,3.9 29.6,3.1 		"/>
	</g>
	<g>
		<polygon fill="#0099FF" points="10.2,2.4 10.2,1.7 9.4,1.7 8.7,1.7 8.7,2.4 9.4,2.4 		"/>
		<polygon fill="#0099FF" points="10.2,2.4 10.2,3.1 10.2,3.9 9.4,3.9 8.7,3.9 8.7,3.1 8.7,2.4 7.9,2.4 7.9,3.1 7.9,3.9 8.7,3.9 
			8.7,4.6 9.4,4.6 10.2,4.6 10.2,3.9 10.9,3.9 10.9,3.1 10.9,2.4 		"/>
	</g>
	<g>
		<rect x="13" y="0.2" fill="#0099FF" width="0.7" height="0.7"/>
		<rect x="13" y="5.3" fill="#0099FF" width="0.7" height="0.7"/>
		<rect x="18.1" y="0.2" fill="#0099FF" width="0.7" height="0.7"/>
		<rect x="18.1" y="5.3" fill="#0099FF" width="0.7" height="0.7"/>
		<rect x="13.7" y="0.9" fill="#0099FF" width="0.7" height="0.7"/>
		<rect x="13.7" y="4.6" fill="#0099FF" width="0.7" height="0.7"/>
		<rect x="17.4" y="0.9" fill="#0099FF" width="0.7" height="0.7"/>
		<rect x="17.4" y="4.6" fill="#0099FF" width="0.7" height="0.7"/>
		<rect x="14.4" y="1.7" fill="#0099FF" width="0.7" height="0.7"/>
		<rect x="14.4" y="3.9" fill="#0099FF" width="0.7" height="0.7"/>
		<rect x="16.6" y="1.7" fill="#0099FF" width="0.7" height="0.7"/>
		<rect x="16.6" y="3.9" fill="#0099FF" width="0.7" height="0.7"/>
		<polygon fill="#0099FF" points="16.6,2.4 15.9,2.4 15.2,2.4 15.2,3.1 15.2,3.9 15.9,3.9 16.6,3.9 16.6,3.1 		"/>
	</g>
	<g>
		<rect y="0.2" fill="#0099FF" width="0.7" height="0.7"/>
		<rect y="5.3" fill="#0099FF" width="0.7" height="0.7"/>
		<rect x="5.2" y="0.2" fill="#0099FF" width="0.7" height="0.7"/>
		<rect x="5.2" y="5.3" fill="#0099FF" width="0.7" height="0.7"/>
		<rect x="0.7" y="0.9" fill="#0099FF" width="0.7" height="0.7"/>
		<rect x="0.7" y="4.6" fill="#0099FF" width="0.7" height="0.7"/>
		<rect x="4.4" y="0.9" fill="#0099FF" width="0.7" height="0.7"/>
		<rect x="4.4" y="4.6" fill="#0099FF" width="0.7" height="0.7"/>
		<rect x="1.5" y="1.7" fill="#0099FF" width="0.7" height="0.7"/>
		<rect x="1.5" y="3.9" fill="#0099FF" width="0.7" height="0.7"/>
		<rect x="3.7" y="1.7" fill="#0099FF" width="0.7" height="0.7"/>
		<rect x="3.7" y="3.9" fill="#0099FF" width="0.7" height="0.7"/>
		<polygon fill="#0099FF" points="3.7,2.4 2.9,2.4 2.2,2.4 2.2,3.1 2.2,3.9 2.9,3.9 3.7,3.9 3.7,3.1 		"/>
	</g>
</g>
<g>
	<polygon fill="#0099FF" points="580,2.4 580,1.7 579.3,1.7 578.5,1.7 578.5,2.4 579.3,2.4 	"/>
	<polygon fill="#0099FF" points="580,2.4 580,3.1 580,3.9 579.3,3.9 578.5,3.9 578.5,3.1 578.5,2.4 577.8,2.4 577.8,3.1 577.8,3.9 
		578.5,3.9 578.5,4.6 579.3,4.6 580,4.6 580,3.9 580.7,3.9 580.7,3.1 580.7,2.4 	"/>
</g>
<g>
	<rect x="582.8" y="0.2" fill="#0099FF" width="0.7" height="0.7"/>
	<rect x="582.8" y="5.3" fill="#0099FF" width="0.7" height="0.7"/>
	<rect x="587.9" y="0.2" fill="#0099FF" width="0.7" height="0.7"/>
	<rect x="587.9" y="5.3" fill="#0099FF" width="0.7" height="0.7"/>
	<rect x="583.5" y="0.9" fill="#0099FF" width="0.7" height="0.7"/>
	<rect x="583.5" y="4.6" fill="#0099FF" width="0.7" height="0.7"/>
	<rect x="587.2" y="0.9" fill="#0099FF" width="0.7" height="0.7"/>
	<rect x="587.2" y="4.6" fill="#0099FF" width="0.7" height="0.7"/>
	<rect x="584.3" y="1.7" fill="#0099FF" width="0.7" height="0.7"/>
	<rect x="584.3" y="3.9" fill="#0099FF" width="0.7" height="0.7"/>
	<rect x="586.5" y="1.7" fill="#0099FF" width="0.7" height="0.7"/>
	<rect x="586.5" y="3.9" fill="#0099FF" width="0.7" height="0.7"/>
	<polygon fill="#0099FF" points="586.5,2.4 585.7,2.4 585,2.4 585,3.1 585,3.9 585.7,3.9 586.5,3.9 586.5,3.1 	"/>
</g>
<g>
	<polygon fill="#0099FF" points="567,2.4 567,1.7 566.3,1.7 565.6,1.7 565.6,2.4 566.3,2.4 	"/>
	<polygon fill="#0099FF" points="567,2.4 567,3.1 567,3.9 566.3,3.9 565.6,3.9 565.6,3.1 565.6,2.4 564.8,2.4 564.8,3.1 564.8,3.9 
		565.6,3.9 565.6,4.6 566.3,4.6 567,4.6 567,3.9 567.8,3.9 567.8,3.1 567.8,2.4 	"/>
</g>
<g>
	<rect x="569.8" y="0.2" fill="#0099FF" width="0.7" height="0.7"/>
	<rect x="569.8" y="5.3" fill="#0099FF" width="0.7" height="0.7"/>
	<rect x="575" y="0.2" fill="#0099FF" width="0.7" height="0.7"/>
	<rect x="575" y="5.3" fill="#0099FF" width="0.7" height="0.7"/>
	<rect x="570.6" y="0.9" fill="#0099FF" width="0.7" height="0.7"/>
	<rect x="570.6" y="4.6" fill="#0099FF" width="0.7" height="0.7"/>
	<rect x="574.2" y="0.9" fill="#0099FF" width="0.7" height="0.7"/>
	<rect x="574.2" y="4.6" fill="#0099FF" width="0.7" height="0.7"/>
	<rect x="571.3" y="1.7" fill="#0099FF" width="0.7" height="0.7"/>
	<rect x="571.3" y="3.9" fill="#0099FF" width="0.7" height="0.7"/>
	<rect x="573.5" y="1.7" fill="#0099FF" width="0.7" height="0.7"/>
	<rect x="573.5" y="3.9" fill="#0099FF" width="0.7" height="0.7"/>
	<polygon fill="#0099FF" points="573.5,2.4 572.8,2.4 572,2.4 572,3.1 572,3.9 572.8,3.9 573.5,3.9 573.5,3.1 	"/>
</g>
<g>
	<polygon fill="#0099FF" points="554.1,2.4 554.1,1.7 553.3,1.7 552.6,1.7 552.6,2.4 553.3,2.4 	"/>
	<polygon fill="#0099FF" points="554.1,2.4 554.1,3.1 554.1,3.9 553.3,3.9 552.6,3.9 552.6,3.1 552.6,2.4 551.9,2.4 551.9,3.1 
		551.9,3.9 552.6,3.9 552.6,4.6 553.3,4.6 554.1,4.6 554.1,3.9 554.8,3.9 554.8,3.1 554.8,2.4 	"/>
</g>
<g>
	<rect x="556.9" y="0.2" fill="#0099FF" width="0.7" height="0.7"/>
	<rect x="556.9" y="5.3" fill="#0099FF" width="0.7" height="0.7"/>
	<rect x="562" y="0.2" fill="#0099FF" width="0.7" height="0.7"/>
	<rect x="562" y="5.3" fill="#0099FF" width="0.7" height="0.7"/>
	<rect x="557.6" y="0.9" fill="#0099FF" width="0.7" height="0.7"/>
	<rect x="557.6" y="4.6" fill="#0099FF" width="0.7" height="0.7"/>
	<rect x="561.3" y="0.9" fill="#0099FF" width="0.7" height="0.7"/>
	<rect x="561.3" y="4.6" fill="#0099FF" width="0.7" height="0.7"/>
	<rect x="558.4" y="1.7" fill="#0099FF" width="0.7" height="0.7"/>
	<rect x="558.4" y="3.9" fill="#0099FF" width="0.7" height="0.7"/>
	<rect x="560.6" y="1.7" fill="#0099FF" width="0.7" height="0.7"/>
	<rect x="560.6" y="3.9" fill="#0099FF" width="0.7" height="0.7"/>
	<polygon fill="#0099FF" points="560.6,2.4 559.8,2.4 559.1,2.4 559.1,3.1 559.1,3.9 559.8,3.9 560.6,3.9 560.6,3.1 	"/>
</g>
<g>
	<polygon fill="#0099FF" points="541.1,2.4 541.1,1.7 540.4,1.7 539.7,1.7 539.7,2.4 540.4,2.4 	"/>
	<polygon fill="#0099FF" points="541.1,2.4 541.1,3.1 541.1,3.9 540.4,3.9 539.7,3.9 539.7,3.1 539.7,2.4 538.9,2.4 538.9,3.1 
		538.9,3.9 539.7,3.9 539.7,4.6 540.4,4.6 541.1,4.6 541.1,3.9 541.9,3.9 541.9,3.1 541.9,2.4 	"/>
</g>
<g>
	<rect x="543.9" y="0.2" fill="#0099FF" width="0.7" height="0.7"/>
	<rect x="543.9" y="5.3" fill="#0099FF" width="0.7" height="0.7"/>
	<rect x="549.1" y="0.2" fill="#0099FF" width="0.7" height="0.7"/>
	<rect x="549.1" y="5.3" fill="#0099FF" width="0.7" height="0.7"/>
	<rect x="544.7" y="0.9" fill="#0099FF" width="0.7" height="0.7"/>
	<rect x="544.7" y="4.6" fill="#0099FF" width="0.7" height="0.7"/>
	<rect x="548.3" y="0.9" fill="#0099FF" width="0.7" height="0.7"/>
	<rect x="548.3" y="4.6" fill="#0099FF" width="0.7" height="0.7"/>
	<rect x="545.4" y="1.7" fill="#0099FF" width="0.7" height="0.7"/>
	<rect x="545.4" y="3.9" fill="#0099FF" width="0.7" height="0.7"/>
	<rect x="547.6" y="1.7" fill="#0099FF" width="0.7" height="0.7"/>
	<rect x="547.6" y="3.9" fill="#0099FF" width="0.7" height="0.7"/>
	<polygon fill="#0099FF" points="547.6,2.4 546.9,2.4 546.1,2.4 546.1,3.1 546.1,3.9 546.9,3.9 547.6,3.9 547.6,3.1 	"/>
</g>
<g>
	<polygon fill="#0099FF" points="528.2,2.4 528.2,1.7 527.4,1.7 526.7,1.7 526.7,2.4 527.4,2.4 	"/>
	<polygon fill="#0099FF" points="528.2,2.4 528.2,3.1 528.2,3.9 527.4,3.9 526.7,3.9 526.7,3.1 526.7,2.4 526,2.4 526,3.1 526,3.9 
		526.7,3.9 526.7,4.6 527.4,4.6 528.2,4.6 528.2,3.9 528.9,3.9 528.9,3.1 528.9,2.4 	"/>
</g>
<g>
	<rect x="531" y="0.2" fill="#0099FF" width="0.7" height="0.7"/>
	<rect x="531" y="5.3" fill="#0099FF" width="0.7" height="0.7"/>
	<rect x="536.1" y="0.2" fill="#0099FF" width="0.7" height="0.7"/>
	<rect x="536.1" y="5.3" fill="#0099FF" width="0.7" height="0.7"/>
	<rect x="531.7" y="0.9" fill="#0099FF" width="0.7" height="0.7"/>
	<rect x="531.7" y="4.6" fill="#0099FF" width="0.7" height="0.7"/>
	<rect x="535.4" y="0.9" fill="#0099FF" width="0.7" height="0.7"/>
	<rect x="535.4" y="4.6" fill="#0099FF" width="0.7" height="0.7"/>
	<rect x="532.5" y="1.7" fill="#0099FF" width="0.7" height="0.7"/>
	<rect x="532.5" y="3.9" fill="#0099FF" width="0.7" height="0.7"/>
	<rect x="534.7" y="1.7" fill="#0099FF" width="0.7" height="0.7"/>
	<rect x="534.7" y="3.9" fill="#0099FF" width="0.7" height="0.7"/>
	<polygon fill="#0099FF" points="534.7,2.4 533.9,2.4 533.2,2.4 533.2,3.1 533.2,3.9 533.9,3.9 534.7,3.9 534.7,3.1 	"/>
</g>
<g>
	<polygon fill="#0099FF" points="515.2,2.4 515.2,1.7 514.5,1.7 513.8,1.7 513.8,2.4 514.5,2.4 	"/>
	<polygon fill="#0099FF" points="515.2,2.4 515.2,3.1 515.2,3.9 514.5,3.9 513.8,3.9 513.8,3.1 513.8,2.4 513,2.4 513,3.1 513,3.9 
		513.8,3.9 513.8,4.6 514.5,4.6 515.2,4.6 515.2,3.9 516,3.9 516,3.1 516,2.4 	"/>
</g>
<g>
	<rect x="518" y="0.2" fill="#0099FF" width="0.7" height="0.7"/>
	<rect x="518" y="5.3" fill="#0099FF" width="0.7" height="0.7"/>
	<rect x="523.2" y="0.2" fill="#0099FF" width="0.7" height="0.7"/>
	<rect x="523.2" y="5.3" fill="#0099FF" width="0.7" height="0.7"/>
	<rect x="518.8" y="0.9" fill="#0099FF" width="0.7" height="0.7"/>
	<rect x="518.8" y="4.6" fill="#0099FF" width="0.7" height="0.7"/>
	<rect x="522.4" y="0.9" fill="#0099FF" width="0.7" height="0.7"/>
	<rect x="522.4" y="4.6" fill="#0099FF" width="0.7" height="0.7"/>
	<rect x="519.5" y="1.7" fill="#0099FF" width="0.7" height="0.7"/>
	<rect x="519.5" y="3.9" fill="#0099FF" width="0.7" height="0.7"/>
	<rect x="521.7" y="1.7" fill="#0099FF" width="0.7" height="0.7"/>
	<rect x="521.7" y="3.9" fill="#0099FF" width="0.7" height="0.7"/>
	<polygon fill="#0099FF" points="521.7,2.4 521,2.4 520.2,2.4 520.2,3.1 520.2,3.9 521,3.9 521.7,3.9 521.7,3.1 	"/>
</g>
<g>
	<polygon fill="#0099FF" points="502.3,2.4 502.3,1.7 501.5,1.7 500.8,1.7 500.8,2.4 501.5,2.4 	"/>
	<polygon fill="#0099FF" points="502.3,2.4 502.3,3.1 502.3,3.9 501.5,3.9 500.8,3.9 500.8,3.1 500.8,2.4 500.1,2.4 500.1,3.1 
		500.1,3.9 500.8,3.9 500.8,4.6 501.5,4.6 502.3,4.6 502.3,3.9 503,3.9 503,3.1 503,2.4 	"/>
</g>
<g>
	<rect x="505.1" y="0.2" fill="#0099FF" width="0.7" height="0.7"/>
	<rect x="505.1" y="5.3" fill="#0099FF" width="0.7" height="0.7"/>
	<rect x="510.2" y="0.2" fill="#0099FF" width="0.7" height="0.7"/>
	<rect x="510.2" y="5.3" fill="#0099FF" width="0.7" height="0.7"/>
	<rect x="505.8" y="0.9" fill="#0099FF" width="0.7" height="0.7"/>
	<rect x="505.8" y="4.6" fill="#0099FF" width="0.7" height="0.7"/>
	<rect x="509.5" y="0.9" fill="#0099FF" width="0.7" height="0.7"/>
	<rect x="509.5" y="4.6" fill="#0099FF" width="0.7" height="0.7"/>
	<rect x="506.6" y="1.7" fill="#0099FF" width="0.7" height="0.7"/>
	<rect x="506.6" y="3.9" fill="#0099FF" width="0.7" height="0.7"/>
	<rect x="508.8" y="1.7" fill="#0099FF" width="0.7" height="0.7"/>
	<rect x="508.8" y="3.9" fill="#0099FF" width="0.7" height="0.7"/>
	<polygon fill="#0099FF" points="508.8,2.4 508,2.4 507.3,2.4 507.3,3.1 507.3,3.9 508,3.9 508.8,3.9 508.8,3.1 	"/>
</g>
<g>
	<polygon fill="#0099FF" points="489.3,2.4 489.3,1.7 488.6,1.7 487.9,1.7 487.9,2.4 488.6,2.4 	"/>
	<polygon fill="#0099FF" points="489.3,2.4 489.3,3.1 489.3,3.9 488.6,3.9 487.9,3.9 487.9,3.1 487.9,2.4 487.1,2.4 487.1,3.1 
		487.1,3.9 487.9,3.9 487.9,4.6 488.6,4.6 489.3,4.6 489.3,3.9 490.1,3.9 490.1,3.1 490.1,2.4 	"/>
</g>
<g>
	<rect x="492.1" y="0.2" fill="#0099FF" width="0.7" height="0.7"/>
	<rect x="492.1" y="5.3" fill="#0099FF" width="0.7" height="0.7"/>
	<rect x="497.3" y="0.2" fill="#0099FF" width="0.7" height="0.7"/>
	<rect x="497.3" y="5.3" fill="#0099FF" width="0.7" height="0.7"/>
	<rect x="492.9" y="0.9" fill="#0099FF" width="0.7" height="0.7"/>
	<rect x="492.9" y="4.6" fill="#0099FF" width="0.7" height="0.7"/>
	<rect x="496.5" y="0.9" fill="#0099FF" width="0.7" height="0.7"/>
	<rect x="496.5" y="4.6" fill="#0099FF" width="0.7" height="0.7"/>
	<rect x="493.6" y="1.7" fill="#0099FF" width="0.7" height="0.7"/>
	<rect x="493.6" y="3.9" fill="#0099FF" width="0.7" height="0.7"/>
	<rect x="495.8" y="1.7" fill="#0099FF" width="0.7" height="0.7"/>
	<rect x="495.8" y="3.9" fill="#0099FF" width="0.7" height="0.7"/>
	<polygon fill="#0099FF" points="495.8,2.4 495.1,2.4 494.3,2.4 494.3,3.1 494.3,3.9 495.1,3.9 495.8,3.9 495.8,3.1 	"/>
</g>
<g>
	<polygon fill="#0099FF" points="476.4,2.4 476.4,1.7 475.6,1.7 474.9,1.7 474.9,2.4 475.6,2.4 	"/>
	<polygon fill="#0099FF" points="476.4,2.4 476.4,3.1 476.4,3.9 475.6,3.9 474.9,3.9 474.9,3.1 474.9,2.4 474.2,2.4 474.2,3.1 
		474.2,3.9 474.9,3.9 474.9,4.6 475.6,4.6 476.4,4.6 476.4,3.9 477.1,3.9 477.1,3.1 477.1,2.4 	"/>
</g>
<g>
	<rect x="479.2" y="0.2" fill="#0099FF" width="0.7" height="0.7"/>
	<rect x="479.2" y="5.3" fill="#0099FF" width="0.7" height="0.7"/>
	<rect x="484.3" y="0.2" fill="#0099FF" width="0.7" height="0.7"/>
	<rect x="484.3" y="5.3" fill="#0099FF" width="0.7" height="0.7"/>
	<rect x="479.9" y="0.9" fill="#0099FF" width="0.7" height="0.7"/>
	<rect x="479.9" y="4.6" fill="#0099FF" width="0.7" height="0.7"/>
	<rect x="483.6" y="0.9" fill="#0099FF" width="0.7" height="0.7"/>
	<rect x="483.6" y="4.6" fill="#0099FF" width="0.7" height="0.7"/>
	<rect x="480.6" y="1.7" fill="#0099FF" width="0.7" height="0.7"/>
	<rect x="480.6" y="3.9" fill="#0099FF" width="0.7" height="0.7"/>
	<rect x="482.9" y="1.7" fill="#0099FF" width="0.7" height="0.7"/>
	<rect x="482.9" y="3.9" fill="#0099FF" width="0.7" height="0.7"/>
	<polygon fill="#0099FF" points="482.9,2.4 482.1,2.4 481.4,2.4 481.4,3.1 481.4,3.9 482.1,3.9 482.9,3.9 482.9,3.1 	"/>
</g>
<g>
	<polygon fill="#0099FF" points="463.4,2.4 463.4,1.7 462.7,1.7 462,1.7 462,2.4 462.7,2.4 	"/>
	<polygon fill="#0099FF" points="463.4,2.4 463.4,3.1 463.4,3.9 462.7,3.9 462,3.9 462,3.1 462,2.4 461.2,2.4 461.2,3.1 461.2,3.9 
		462,3.9 462,4.6 462.7,4.6 463.4,4.6 463.4,3.9 464.2,3.9 464.2,3.1 464.2,2.4 	"/>
</g>
<g>
	<rect x="466.2" y="0.2" fill="#0099FF" width="0.7" height="0.7"/>
	<rect x="466.2" y="5.3" fill="#0099FF" width="0.7" height="0.7"/>
	<rect x="471.4" y="0.2" fill="#0099FF" width="0.7" height="0.7"/>
	<rect x="471.4" y="5.3" fill="#0099FF" width="0.7" height="0.7"/>
	<rect x="467" y="0.9" fill="#0099FF" width="0.7" height="0.7"/>
	<rect x="467" y="4.6" fill="#0099FF" width="0.7" height="0.7"/>
	<rect x="470.6" y="0.9" fill="#0099FF" width="0.7" height="0.7"/>
	<rect x="470.6" y="4.6" fill="#0099FF" width="0.7" height="0.7"/>
	<rect x="467.7" y="1.7" fill="#0099FF" width="0.7" height="0.7"/>
	<rect x="467.7" y="3.9" fill="#0099FF" width="0.7" height="0.7"/>
	<rect x="469.9" y="1.7" fill="#0099FF" width="0.7" height="0.7"/>
	<rect x="469.9" y="3.9" fill="#0099FF" width="0.7" height="0.7"/>
	<polygon fill="#0099FF" points="469.9,2.4 469.2,2.4 468.4,2.4 468.4,3.1 468.4,3.9 469.2,3.9 469.9,3.9 469.9,3.1 	"/>
</g>
<g>
	<polygon fill="#0099FF" points="450.5,2.4 450.5,1.7 449.7,1.7 449,1.7 449,2.4 449.7,2.4 	"/>
	<polygon fill="#0099FF" points="450.5,2.4 450.5,3.1 450.5,3.9 449.7,3.9 449,3.9 449,3.1 449,2.4 448.3,2.4 448.3,3.1 448.3,3.9 
		449,3.9 449,4.6 449.7,4.6 450.5,4.6 450.5,3.9 451.2,3.9 451.2,3.1 451.2,2.4 	"/>
</g>
<g>
	<rect x="453.3" y="0.2" fill="#0099FF" width="0.7" height="0.7"/>
	<rect x="453.3" y="5.3" fill="#0099FF" width="0.7" height="0.7"/>
	<rect x="458.4" y="0.2" fill="#0099FF" width="0.7" height="0.7"/>
	<rect x="458.4" y="5.3" fill="#0099FF" width="0.7" height="0.7"/>
	<rect x="454" y="0.9" fill="#0099FF" width="0.7" height="0.7"/>
	<rect x="454" y="4.6" fill="#0099FF" width="0.7" height="0.7"/>
	<rect x="457.7" y="0.9" fill="#0099FF" width="0.7" height="0.7"/>
	<rect x="457.7" y="4.6" fill="#0099FF" width="0.7" height="0.7"/>
	<rect x="454.7" y="1.7" fill="#0099FF" width="0.7" height="0.7"/>
	<rect x="454.7" y="3.9" fill="#0099FF" width="0.7" height="0.7"/>
	<rect x="457" y="1.7" fill="#0099FF" width="0.7" height="0.7"/>
	<rect x="457" y="3.9" fill="#0099FF" width="0.7" height="0.7"/>
	<polygon fill="#0099FF" points="457,2.4 456.2,2.4 455.5,2.4 455.5,3.1 455.5,3.9 456.2,3.9 457,3.9 457,3.1 	"/>
</g>
<g>
	<polygon fill="#0099FF" points="437.5,2.4 437.5,1.7 436.8,1.7 436.1,1.7 436.1,2.4 436.8,2.4 	"/>
	<polygon fill="#0099FF" points="437.5,2.4 437.5,3.1 437.5,3.9 436.8,3.9 436.1,3.9 436.1,3.1 436.1,2.4 435.3,2.4 435.3,3.1 
		435.3,3.9 436.1,3.9 436.1,4.6 436.8,4.6 437.5,4.6 437.5,3.9 438.3,3.9 438.3,3.1 438.3,2.4 	"/>
</g>
<g>
	<rect x="440.3" y="0.2" fill="#0099FF" width="0.7" height="0.7"/>
	<rect x="440.3" y="5.3" fill="#0099FF" width="0.7" height="0.7"/>
	<rect x="445.5" y="0.2" fill="#0099FF" width="0.7" height="0.7"/>
	<rect x="445.5" y="5.3" fill="#0099FF" width="0.7" height="0.7"/>
	<rect x="441.1" y="0.9" fill="#0099FF" width="0.7" height="0.7"/>
	<rect x="441.1" y="4.6" fill="#0099FF" width="0.7" height="0.7"/>
	<rect x="444.7" y="0.9" fill="#0099FF" width="0.7" height="0.7"/>
	<rect x="444.7" y="4.6" fill="#0099FF" width="0.7" height="0.7"/>
	<rect x="441.8" y="1.7" fill="#0099FF" width="0.7" height="0.7"/>
	<rect x="441.8" y="3.9" fill="#0099FF" width="0.7" height="0.7"/>
	<rect x="444" y="1.7" fill="#0099FF" width="0.7" height="0.7"/>
	<rect x="444" y="3.9" fill="#0099FF" width="0.7" height="0.7"/>
	<polygon fill="#0099FF" points="444,2.4 443.3,2.4 442.5,2.4 442.5,3.1 442.5,3.9 443.3,3.9 444,3.9 444,3.1 	"/>
</g>
<g>
	<polygon fill="#0099FF" points="424.6,2.4 424.6,1.7 423.8,1.7 423.1,1.7 423.1,2.4 423.8,2.4 	"/>
	<polygon fill="#0099FF" points="424.6,2.4 424.6,3.1 424.6,3.9 423.8,3.9 423.1,3.9 423.1,3.1 423.1,2.4 422.4,2.4 422.4,3.1 
		422.4,3.9 423.1,3.9 423.1,4.6 423.8,4.6 424.6,4.6 424.6,3.9 425.3,3.9 425.3,3.1 425.3,2.4 	"/>
</g>
<g>
	<rect x="427.4" y="0.2" fill="#0099FF" width="0.7" height="0.7"/>
	<rect x="427.4" y="5.3" fill="#0099FF" width="0.7" height="0.7"/>
	<rect x="432.5" y="0.2" fill="#0099FF" width="0.7" height="0.7"/>
	<rect x="432.5" y="5.3" fill="#0099FF" width="0.7" height="0.7"/>
	<rect x="428.1" y="0.9" fill="#0099FF" width="0.7" height="0.7"/>
	<rect x="428.1" y="4.6" fill="#0099FF" width="0.7" height="0.7"/>
	<rect x="431.8" y="0.9" fill="#0099FF" width="0.7" height="0.7"/>
	<rect x="431.8" y="4.6" fill="#0099FF" width="0.7" height="0.7"/>
	<rect x="428.8" y="1.7" fill="#0099FF" width="0.7" height="0.7"/>
	<rect x="428.8" y="3.9" fill="#0099FF" width="0.7" height="0.7"/>
	<rect x="431.1" y="1.7" fill="#0099FF" width="0.7" height="0.7"/>
	<rect x="431.1" y="3.9" fill="#0099FF" width="0.7" height="0.7"/>
	<polygon fill="#0099FF" points="431.1,2.4 430.3,2.4 429.6,2.4 429.6,3.1 429.6,3.9 430.3,3.9 431.1,3.9 431.1,3.1 	"/>
</g>
<g>
	<polygon fill="#0099FF" points="411.6,2.4 411.6,1.7 410.9,1.7 410.2,1.7 410.2,2.4 410.9,2.4 	"/>
	<polygon fill="#0099FF" points="411.6,2.4 411.6,3.1 411.6,3.9 410.9,3.9 410.2,3.9 410.2,3.1 410.2,2.4 409.4,2.4 409.4,3.1 
		409.4,3.9 410.2,3.9 410.2,4.6 410.9,4.6 411.6,4.6 411.6,3.9 412.4,3.9 412.4,3.1 412.4,2.4 	"/>
</g>
<g>
	<rect x="414.4" y="0.2" fill="#0099FF" width="0.7" height="0.7"/>
	<rect x="414.4" y="5.3" fill="#0099FF" width="0.7" height="0.7"/>
	<rect x="419.6" y="0.2" fill="#0099FF" width="0.7" height="0.7"/>
	<rect x="419.6" y="5.3" fill="#0099FF" width="0.7" height="0.7"/>
	<rect x="415.2" y="0.9" fill="#0099FF" width="0.7" height="0.7"/>
	<rect x="415.2" y="4.6" fill="#0099FF" width="0.7" height="0.7"/>
	<rect x="418.8" y="0.9" fill="#0099FF" width="0.7" height="0.7"/>
	<rect x="418.8" y="4.6" fill="#0099FF" width="0.7" height="0.7"/>
	<rect x="415.9" y="1.7" fill="#0099FF" width="0.7" height="0.7"/>
	<rect x="415.9" y="3.9" fill="#0099FF" width="0.7" height="0.7"/>
	<rect x="418.1" y="1.7" fill="#0099FF" width="0.7" height="0.7"/>
	<rect x="418.1" y="3.9" fill="#0099FF" width="0.7" height="0.7"/>
	<polygon fill="#0099FF" points="418.1,2.4 417.4,2.4 416.6,2.4 416.6,3.1 416.6,3.9 417.4,3.9 418.1,3.9 418.1,3.1 	"/>
</g>
<g>
	<polygon fill="#0099FF" points="398.7,2.4 398.7,1.7 397.9,1.7 397.2,1.7 397.2,2.4 397.9,2.4 	"/>
	<polygon fill="#0099FF" points="398.7,2.4 398.7,3.1 398.7,3.9 397.9,3.9 397.2,3.9 397.2,3.1 397.2,2.4 396.5,2.4 396.5,3.1 
		396.5,3.9 397.2,3.9 397.2,4.6 397.9,4.6 398.7,4.6 398.7,3.9 399.4,3.9 399.4,3.1 399.4,2.4 	"/>
</g>
<g>
	<rect x="401.5" y="0.2" fill="#0099FF" width="0.7" height="0.7"/>
	<rect x="401.5" y="5.3" fill="#0099FF" width="0.7" height="0.7"/>
	<rect x="406.6" y="0.2" fill="#0099FF" width="0.7" height="0.7"/>
	<rect x="406.6" y="5.3" fill="#0099FF" width="0.7" height="0.7"/>
	<rect x="402.2" y="0.9" fill="#0099FF" width="0.7" height="0.7"/>
	<rect x="402.2" y="4.6" fill="#0099FF" width="0.7" height="0.7"/>
	<rect x="405.9" y="0.9" fill="#0099FF" width="0.7" height="0.7"/>
	<rect x="405.9" y="4.6" fill="#0099FF" width="0.7" height="0.7"/>
	<rect x="402.9" y="1.7" fill="#0099FF" width="0.7" height="0.7"/>
	<rect x="402.9" y="3.9" fill="#0099FF" width="0.7" height="0.7"/>
	<rect x="405.2" y="1.7" fill="#0099FF" width="0.7" height="0.7"/>
	<rect x="405.2" y="3.9" fill="#0099FF" width="0.7" height="0.7"/>
	<polygon fill="#0099FF" points="405.2,2.4 404.4,2.4 403.7,2.4 403.7,3.1 403.7,3.9 404.4,3.9 405.2,3.9 405.2,3.1 	"/>
</g>
<g>
	<polygon fill="#0099FF" points="385.7,2.4 385.7,1.7 385,1.7 384.3,1.7 384.3,2.4 385,2.4 	"/>
	<polygon fill="#0099FF" points="385.7,2.4 385.7,3.1 385.7,3.9 385,3.9 384.3,3.9 384.3,3.1 384.3,2.4 383.5,2.4 383.5,3.1 
		383.5,3.9 384.3,3.9 384.3,4.6 385,4.6 385.7,4.6 385.7,3.9 386.5,3.9 386.5,3.1 386.5,2.4 	"/>
</g>
<g>
	<rect x="388.5" y="0.2" fill="#0099FF" width="0.7" height="0.7"/>
	<rect x="388.5" y="5.3" fill="#0099FF" width="0.7" height="0.7"/>
	<rect x="393.7" y="0.2" fill="#0099FF" width="0.7" height="0.7"/>
	<rect x="393.7" y="5.3" fill="#0099FF" width="0.7" height="0.7"/>
	<rect x="389.3" y="0.9" fill="#0099FF" width="0.7" height="0.7"/>
	<rect x="389.3" y="4.6" fill="#0099FF" width="0.7" height="0.7"/>
	<rect x="392.9" y="0.9" fill="#0099FF" width="0.7" height="0.7"/>
	<rect x="392.9" y="4.6" fill="#0099FF" width="0.7" height="0.7"/>
	<rect x="390" y="1.7" fill="#0099FF" width="0.7" height="0.7"/>
	<rect x="390" y="3.9" fill="#0099FF" width="0.7" height="0.7"/>
	<rect x="392.2" y="1.7" fill="#0099FF" width="0.7" height="0.7"/>
	<rect x="392.2" y="3.9" fill="#0099FF" width="0.7" height="0.7"/>
	<polygon fill="#0099FF" points="392.2,2.4 391.5,2.4 390.7,2.4 390.7,3.1 390.7,3.9 391.5,3.9 392.2,3.9 392.2,3.1 	"/>
</g>
<g>
	<polygon fill="#0099FF" points="372.8,2.4 372.8,1.7 372,1.7 371.3,1.7 371.3,2.4 372,2.4 	"/>
	<polygon fill="#0099FF" points="372.8,2.4 372.8,3.1 372.8,3.9 372,3.9 371.3,3.9 371.3,3.1 371.3,2.4 370.6,2.4 370.6,3.1 
		370.6,3.9 371.3,3.9 371.3,4.6 372,4.6 372.8,4.6 372.8,3.9 373.5,3.9 373.5,3.1 373.5,2.4 	"/>
</g>
<g>
	<rect x="375.6" y="0.2" fill="#0099FF" width="0.7" height="0.7"/>
	<rect x="375.6" y="5.3" fill="#0099FF" width="0.7" height="0.7"/>
	<rect x="380.7" y="0.2" fill="#0099FF" width="0.7" height="0.7"/>
	<rect x="380.7" y="5.3" fill="#0099FF" width="0.7" height="0.7"/>
	<rect x="376.3" y="0.9" fill="#0099FF" width="0.7" height="0.7"/>
	<rect x="376.3" y="4.6" fill="#0099FF" width="0.7" height="0.7"/>
	<rect x="380" y="0.9" fill="#0099FF" width="0.7" height="0.7"/>
	<rect x="380" y="4.6" fill="#0099FF" width="0.7" height="0.7"/>
	<rect x="377" y="1.7" fill="#0099FF" width="0.7" height="0.7"/>
	<rect x="377" y="3.9" fill="#0099FF" width="0.7" height="0.7"/>
	<rect x="379.3" y="1.7" fill="#0099FF" width="0.7" height="0.7"/>
	<rect x="379.3" y="3.9" fill="#0099FF" width="0.7" height="0.7"/>
	<polygon fill="#0099FF" points="379.3,2.4 378.5,2.4 377.8,2.4 377.8,3.1 377.8,3.9 378.5,3.9 379.3,3.9 379.3,3.1 	"/>
</g>
<g>
	<polygon fill="#0099FF" points="359.8,2.4 359.8,1.7 359.1,1.7 358.4,1.7 358.4,2.4 359.1,2.4 	"/>
	<polygon fill="#0099FF" points="359.8,2.4 359.8,3.1 359.8,3.9 359.1,3.9 358.4,3.9 358.4,3.1 358.4,2.4 357.6,2.4 357.6,3.1 
		357.6,3.9 358.4,3.9 358.4,4.6 359.1,4.6 359.8,4.6 359.8,3.9 360.6,3.9 360.6,3.1 360.6,2.4 	"/>
</g>
<g>
	<rect x="362.6" y="0.2" fill="#0099FF" width="0.7" height="0.7"/>
	<rect x="362.6" y="5.3" fill="#0099FF" width="0.7" height="0.7"/>
	<rect x="367.8" y="0.2" fill="#0099FF" width="0.7" height="0.7"/>
	<rect x="367.8" y="5.3" fill="#0099FF" width="0.7" height="0.7"/>
	<rect x="363.4" y="0.9" fill="#0099FF" width="0.7" height="0.7"/>
	<rect x="363.4" y="4.6" fill="#0099FF" width="0.7" height="0.7"/>
	<rect x="367" y="0.9" fill="#0099FF" width="0.7" height="0.7"/>
	<rect x="367" y="4.6" fill="#0099FF" width="0.7" height="0.7"/>
	<rect x="364.1" y="1.7" fill="#0099FF" width="0.7" height="0.7"/>
	<rect x="364.1" y="3.9" fill="#0099FF" width="0.7" height="0.7"/>
	<rect x="366.3" y="1.7" fill="#0099FF" width="0.7" height="0.7"/>
	<rect x="366.3" y="3.9" fill="#0099FF" width="0.7" height="0.7"/>
	<polygon fill="#0099FF" points="366.3,2.4 365.6,2.4 364.8,2.4 364.8,3.1 364.8,3.9 365.6,3.9 366.3,3.9 366.3,3.1 	"/>
</g>
</svg>
