<?xml version="1.0" encoding="utf-8"?>
<!-- Generator: Adobe Illustrator 23.0.3, SVG Export Plug-In . SVG Version: 6.00 Build 0)  -->
<svg version="1.1" baseProfile="tiny" id="multitool"
	 xmlns="http://www.w3.org/2000/svg" xmlns:xlink="http://www.w3.org/1999/xlink" x="0px" y="0px" viewBox="0 0 26.33 22.47"
	 xml:space="preserve">
<path fill="#DBD32C" d="M23.81,22.47l-2.28-3.29c1.87-1.29-0.02-5.84-0.63-6.99C20.72,11.84,16.79,4.1,21.33,0l2.68,2.97
	c-1.86,1.68-0.27,5.99,0.44,7.36C26.14,13.49,27.92,19.63,23.81,22.47z M13.96,22.47l-2.28-3.29c1.87-1.29-0.02-5.84-0.63-6.99
	C10.87,11.84,6.94,4.1,11.48,0l2.68,2.97c-1.86,1.68-0.27,5.99,0.44,7.36C16.29,13.49,18.07,19.63,13.96,22.47z M4.66,22.47
	l-2.28-3.29c1.87-1.29-0.02-5.84-0.63-6.99C1.57,11.84-2.36,4.1,2.18,0l2.68,2.97C3,4.65,4.59,8.96,5.3,10.33
	C6.98,13.49,8.76,19.63,4.66,22.47z"/>
</svg>
