<?xml version="1.0" encoding="utf-8"?>
<!-- Generator: Adobe Illustrator 23.0.6, SVG Export Plug-In . SVG Version: 6.00 Build 0)  -->
<svg version="1.1" baseProfile="tiny" id="Layer_1" xmlns="http://www.w3.org/2000/svg" xmlns:xlink="http://www.w3.org/1999/xlink"
	 x="0px" y="0px" viewBox="0 0 128 128" xml:space="preserve">
<path id="Icon_Laser_12_" fill="#DBD32C" d="M126.7,111.6L85,85.8c0.5-0.5,1-1,1.5-1.6c0.4-0.5,0.9-1.1,1.2-1.7
	c0.4-0.6,0.8-1.2,1.1-1.9c0.3-0.6,0.7-1.3,0.9-1.9c0.3-0.7,0.5-1.4,0.8-2.1c0.2-0.7,0.4-1.4,0.5-2.1c0.2-0.7,0.3-1.5,0.3-2.2
	c0.1-0.8,0.1-1.5,0.1-2.3s0-1.5-0.1-2.3c-0.1-0.8-0.2-1.5-0.3-2.3c-0.1-0.7-0.3-1.4-0.5-2.1c-0.2-0.7-0.5-1.4-0.7-2
	c-0.3-0.7-0.6-1.3-0.9-1.9c-0.3-0.6-0.7-1.2-1.1-1.8c-0.4-0.6-0.9-1.2-1.3-1.7c-0.4-0.5-0.9-1.1-1.4-1.6l24.9-12.2L90.5,63.4
	l37.5,6.6l-37.5,6.6L126.7,111.6z M65.4,48.1L53.6,35.2L56.1,52C56.1,52,59.8,49,65.4,48.1c5.6-1,10.4,0.7,10.4,0.7L82,10.1
	L65.4,48.1z M75.8,91.3L65.3,92l-10-4.6l-8.5,26L65.3,92l9.8,19.6L75.8,91.3z M69.1,64.1c-2.1,0-4,1.1-5,2.9H23.6v6.1H64
	c1,1.7,2.9,2.9,5.1,2.9c3.3,0,5.9-2.7,5.9-5.9C75,66.7,72.4,64.1,69.1,64.1z M7,66.9H1.2v6.1H7L7,66.9z M19.8,66.9h-9v6.1h9
	L19.8,66.9z"/>
</svg>
