<?xml version="1.0" encoding="utf-8"?>
<!-- Generator: Adobe Illustrator 25.0.1, SVG Export Plug-In . SVG Version: 6.00 Build 0)  -->
<svg version="1.1" id="Layer_1" xmlns="http://www.w3.org/2000/svg" xmlns:xlink="http://www.w3.org/1999/xlink" x="0px" y="0px"
	 viewBox="0 0 128 128" style="enable-background:new 0 0 128 128;" xml:space="preserve">
<style type="text/css">
	.st0{fill:#FFFFFF;}
</style>
<path id="Weight" class="st0" d="M90.2,49.1c0-1.6-1.3-2.9-2.9-2.9h-9.3v-4c0-6.9-5.7-12.6-12.6-12.6h-2.7
	c-6.9,0-12.6,5.7-12.6,12.6v4h-9.3c-1.6,0-2.9,1.3-2.9,2.9L26.4,95.6c0,1.6,1.3,2.9,2.9,2.9h69.6c1.6,0,2.9-1.3,2.9-2.9L90.2,49.1z
	 M55.8,42.2c0-3.7,3.1-6.8,6.8-6.8h2.7c3.7,0,6.8,3.1,6.8,6.8v4H55.8V42.2z"/>
</svg>
