<?xml version="1.0" encoding="utf-8"?>
<!-- Generator: Adobe Illustrator 26.0.1, SVG Export Plug-In . SVG Version: 6.00 Build 0)  -->
<svg version="1.1" baseProfile="tiny" id="Layer_1" xmlns="http://www.w3.org/2000/svg" xmlns:xlink="http://www.w3.org/1999/xlink"
	 x="0px" y="0px" viewBox="0 0 128 128" overflow="visible" xml:space="preserve">
<path id="Shields" fill="#ED1C24" d="M93.7,72.4l4.8-8.4l-4.8-8.4h-6.5l-4.3-7.5l3.3-5.6l-4.8-8.4h-9.7l-3.3,5.6h-8.7l-3.3-5.6h-9.7
	l-4.8,8.4l3.3,5.6l-4.3,7.5h-6.5L29.4,64l4.8,8.4h6.5l4.3,7.5l-3.3,5.6l4.8,8.4h9.7l3.3-5.6h8.7l3.3,5.6h9.7l4.8-8.4l-3.3-5.6
	l4.3-7.5H93.7z M71.6,77.2l-3.3,5.7h-8.7l-3.3-5.7h-6.5l-4.3-7.5l3.3-5.6l-3.3-5.6l4.3-7.5h6.5l3.3-5.6h8.7l3.3,5.6h6.5l4.3,7.5
	L79.2,64l3.3,5.6l-4.3,7.5H71.6z"/>
</svg>
