<?xml version="1.0" encoding="utf-8"?>
<!-- Generator: Adobe Illustrator 23.0.6, SVG Export Plug-In . SVG Version: 6.00 Build 0)  -->
<svg version="1.1" baseProfile="tiny" id="Layer_1" xmlns="http://www.w3.org/2000/svg" xmlns:xlink="http://www.w3.org/1999/xlink"
	 x="0px" y="0px" viewBox="0 0 128 128" xml:space="preserve">
<path id="Resistance_Icon" fill="#DBD32C" d="M101.5,78.2L88.1,97.3L51.3,105L26.6,73.1L24.1,52l16.2-13.4l5.9-12.8l3.9-3.3
	l27.4,2.6L104.1,43L101.5,78.2z M44.6,5.6l-7.9,6.6l-7.4,16l-21.9,18l3.7,31.5L45.6,122l0.6-0.1l51.7-10.8l19.3-27.4l3.6-49.5
	l-37.7-25h-0.2L44.6,5.6 M43,0.6l2,0.2l38.6,3.6l1.2,0.1l1,0.7l37.6,25.3l2.3,1.6l-0.2,2.8L122,84.3l-0.1,1.3l-0.8,1.1l-19.3,27.4
	l-1.1,1.6l-1.9,0.4l-51.9,10.8l-0.6,0.1l-2.8,0.5l-1.8-2.3L7.2,80.8l-0.8-1.1l-0.2-1.3L2.5,46.9l-0.3-2.6l2-1.7l21-17.3l7-15l0.5-1
	l0.8-0.7L41.4,2L43,0.6L43,0.6z"/>
</svg>
