<?xml version="1.0" encoding="utf-8"?>
<!-- Generator: Adobe Illustrator 28.7.1, SVG Export Plug-In . SVG Version: 9.03 Build 54978)  -->
<svg version="1.1" baseProfile="tiny" id="Layer_1" xmlns="http://www.w3.org/2000/svg" xmlns:xlink="http://www.w3.org/1999/xlink"
	 x="0px" y="0px" viewBox="0 0 128 128" overflow="visible" xml:space="preserve">
<path fill="#BEE7FA" d="M82.7,38.1l7.2,7.2c0.6,0.6,0.6,1.5,0,2.1L74.3,63c-0.6,0.6-0.6,1.5,0,2.1l15.6,15.6c0.6,0.6,0.6,1.5,0,2.1
	l-7.2,7.2c-0.6,0.6-1.5,0.6-2.1,0L65,74.3c-0.6-0.6-1.5-0.6-2.1,0L47.4,89.9c-0.6,0.6-1.5,0.6-2.1,0l-7.2-7.2
	c-0.6-0.6-0.6-1.5,0-2.1L53.7,65c0.6-0.6,0.6-1.5,0-2.1L38.1,47.4c-0.6-0.6-0.6-1.5,0-2.1l7.2-7.2c0.6-0.6,1.5-0.6,2.1,0L63,53.7
	c0.6,0.6,1.5,0.6,2.1,0l15.6-15.6C81.2,37.5,82.1,37.5,82.7,38.1z"/>
</svg>
