<?xml version="1.0" encoding="utf-8"?>
<!-- Generator: Adobe Illustrator 23.0.6, SVG Export Plug-In . SVG Version: 6.00 Build 0)  -->
<svg version="1.1" baseProfile="tiny" id="Layer_1" xmlns="http://www.w3.org/2000/svg" xmlns:xlink="http://www.w3.org/1999/xlink"
	 x="0px" y="0px" viewBox="0 0 128 128" xml:space="preserve">
<path id="Instability_Icon" fill="#DBD32C" d="M119.9,65.9l-1.4,19.5l-19.8,28l-53,11l-0.6,0.1L9.7,79.2L8.1,65.9H9l9,11.5
	l10.9-16.1L43,95.4l10.4-44L65,115.2l16.4-56.5l12.5,27.2l9.3-23.9l6.2,9.2L116,66L119.9,65.9L119.9,65.9z M13.1,57.3l4.3,5.5
	l13.2-19.6l10,24.2l13.7-58l12.5,68.2l12.7-43.7l13.6,29.7l7.9-20.3l10.2,15.1l1.7-1.3h7.5l1.6-22.6L83.6,8.8h-0.2L44.1,5.1L35.9,12
	l-7.6,16.4L5.9,46.9l1.2,10.5h6V57.3z"/>
</svg>
