<?xml version="1.0" encoding="utf-8"?>
<!-- Generator: Adobe Illustrator 27.0.0, SVG Export Plug-In . SVG Version: 6.00 Build 0)  -->
<svg version="1.1" baseProfile="tiny" id="Layer_1" xmlns="http://www.w3.org/2000/svg" xmlns:xlink="http://www.w3.org/1999/xlink"
	 x="0px" y="0px" viewBox="0 0 128 128" overflow="visible" xml:space="preserve">
<path fill="#EAE386" d="M110.6,96.2L66.9,52.5c1.5-3.4,2.3-7.1,2.3-10.9c0-4.3-1-8.4-2.7-12c-1.3-2.6-3-5.1-5.2-7.2l-1-1
	c-0.4-0.4-0.8-0.7-1.2-1.1c-4.6-3.8-10.5-6.1-16.9-6.2c-2.6,0-5.2,0.5-7.8,1.4c-0.4,0.1-0.5,0.6-0.2,0.9L55.9,38
	c0.2,0.2,0.2,0.6,0,0.9L39,55.8c-0.2,0.2-0.6,0.2-0.9,0L16.4,34.1c-0.3-0.3-0.7-0.2-0.9,0.2c-0.9,2.6-1.3,5.2-1.4,7.8
	c0.1,6.4,2.4,12.3,6.2,16.9c0.3,0.4,0.7,0.8,1.1,1.2l1,1c2.1,2.1,4.6,3.9,7.2,5.2c3.6,1.8,7.7,2.7,12,2.7c3.9,0,7.6-0.8,10.9-2.3
	l43.5,43.5c2,2,4.7,3.3,7.6,3.2c4.6-0.1,8.4-3.2,9.5-7.5h0C114.3,101.7,113.4,99,110.6,96.2z"/>
</svg>
