<?xml version="1.0" encoding="utf-8"?>
<!-- Generator: Adobe Illustrator 23.0.3, SVG Export Plug-In . SVG Version: 6.00 Build 0)  -->
<svg version="1.1" baseProfile="tiny" id="multitool"
	 xmlns="http://www.w3.org/2000/svg" xmlns:xlink="http://www.w3.org/1999/xlink" x="0px" y="0px" viewBox="0 0 40.33 19.63"
	 xml:space="preserve">
<path id="ICON_-_Battery" fill="#DBD32C" d="M33.03,0H2.02C1.23,0.79,0.79,1.23,0,2.02v15.59c0.79,0.79,1.23,1.23,2.02,2.02h31.01
	c0.79-0.79,1.23-1.23,2.02-2.02V2.02C34.26,1.23,33.82,0.79,33.03,0z M14.9,16.77h-0.52l0.99-6.18h-4.11l8.68-8.19h0.52l-0.99,6.18
	h4.11L14.9,16.77z M40.33,6.68v6.27c-0.63,0.63-0.99,0.99-1.62,1.62h-0.92c-0.65,0-1.19-0.53-1.19-1.19V6.24
	c0-0.65,0.53-1.19,1.19-1.19h0.92C39.34,5.69,39.69,6.05,40.33,6.68z"/>
</svg>
