<?xml version="1.0" encoding="utf-8"?>
<!-- Generator: Adobe Illustrator 29.1.0, SVG Export Plug-In . SVG Version: 9.03 Build 55587)  -->
<svg version="1.1" baseProfile="tiny" id="Layer_1" xmlns="http://www.w3.org/2000/svg" xmlns:xlink="http://www.w3.org/1999/xlink"
	 x="0px" y="0px" viewBox="0 0 47.6 568.2" overflow="visible" xml:space="preserve">
<path id="opacity:100" fill="#FFFFFF" d="M28.3,566.7c-0.2,0.2-0.8,0.9-1.1,1.1c-0.4,0.3-0.9,0.4-1.3,0.4h-2.7c-0.5,0-1-0.2-1.3-0.4
	s-0.9-0.8-1.1-1.1s-0.3-0.7-0.3-1.1v-7c0-0.4,0.1-0.8,0.3-1.1c0.2-0.2,0.8-0.9,1.1-1.1c0.4-0.3,0.9-0.4,1.3-0.4h2.7
	c0.5,0,1,0.2,1.3,0.4s0.9,0.8,1.1,1.1s0.3,0.7,0.3,1.1v7C28.6,566,28.5,566.4,28.3,566.7z M27,558.7c0-0.1,0-0.2,0-0.2
	c-0.1-0.3-0.7-0.9-1.1-0.9h-2.7c-0.4,0-0.9,0.6-1.1,0.9v0.2v6.9v0.2c0.1,0.3,0.7,0.9,1.1,0.9h2.7c0.4,0,0.9-0.6,1.1-0.9
	c0,0,0-0.1,0-0.2V558.7z M0.9,12.1v-1.5h2.7v-9H1.3V0.1h4v10.5h2.6v1.5H0.9z M18.1,10.7c-0.2,0.2-0.8,0.9-1.1,1.1
	c-0.4,0.3-0.9,0.4-1.3,0.4H13c-0.5,0-1-0.2-1.3-0.4s-0.9-0.8-1.1-1.1s-0.3-0.7-0.3-1.1v-7c0-0.4,0.1-0.8,0.3-1.1
	c0.2-0.2,0.8-0.9,1.1-1.1C12.1,0.2,12.6,0,13,0h2.7c0.5,0,1,0.2,1.3,0.4s0.9,0.8,1.1,1.1c0.2,0.3,0.3,0.7,0.3,1.1v7
	C18.5,10,18.4,10.4,18.1,10.7z M16.8,2.7c0-0.1,0-0.2,0-0.2c-0.1-0.3-0.7-0.9-1.1-0.9H13c-0.4,0-0.9,0.6-1.1,0.9v0.2v6.9v0.2
	c0.1,0.3,0.7,0.9,1.1,0.9h2.7c0.4,0,0.9-0.6,1.1-0.9c0,0,0-0.1,0-0.2V2.7z M28.4,10.7c-0.2,0.2-0.8,0.9-1.1,1.1
	c-0.4,0.3-0.9,0.4-1.3,0.4h-2.7c-0.5,0-1-0.2-1.3-0.4s-0.9-0.8-1.1-1.1c-0.2-0.3-0.3-0.7-0.3-1.1v-7c0-0.4,0.1-0.8,0.3-1.1
	c0.2-0.2,0.8-0.9,1.1-1.1C22.4,0.2,22.9,0,23.3,0H26c0.5,0,1,0.2,1.3,0.4s0.9,0.8,1.1,1.1c0.2,0.3,0.3,0.7,0.3,1.1v7
	C28.8,10,28.6,10.4,28.4,10.7z M27.1,2.7c0-0.1,0-0.2,0-0.2C27,2.2,26.4,1.6,26,1.6h-2.7c-0.4,0-0.9,0.6-1.1,0.9v0.2v6.9v0.2
	c0.1,0.3,0.7,0.9,1.1,0.9H26c0.4,0,0.9-0.6,1.1-0.9c0,0,0-0.1,0-0.2V2.7z M18.1,288.7c-0.2,0.2-0.8,0.9-1.1,1.1
	c-0.4,0.3-0.9,0.4-1.3,0.4h-2.3c-1,0-1.9-0.9-2.5-1.6c-0.2-0.2-0.3-0.5-0.6-1.1l1.6-0.4c0.1,0.3,0.2,0.4,0.2,0.4
	c0.2,0.4,0.7,0.9,1,1.1c0.1,0.1,0.2,0.1,0.3,0.1h2.2c0.1,0,0.2,0,0.2,0c0.3-0.1,0.7-0.6,0.8-0.8c0,0,0-0.1,0-0.2v-2.2
	c0-0.1,0-0.2,0-0.2c-0.2-0.3-0.5-0.6-0.8-0.8c-0.1,0-0.1,0-0.2,0h-4.7v-6.2h6.8v1.6h-5.2v3.1h3.1c0.5,0,1,0.2,1.3,0.4
	c0.3,0.2,0.9,0.8,1.1,1c0.2,0.3,0.3,0.7,0.3,1.1v2.2C18.4,288,18.3,288.4,18.1,288.7z M28.4,288.7c-0.2,0.2-0.8,0.9-1.1,1.1
	c-0.4,0.3-0.9,0.4-1.3,0.4h-2.7c-0.5,0-1-0.2-1.3-0.4c-0.3-0.2-0.9-0.8-1.1-1.1c-0.2-0.3-0.3-0.7-0.3-1.1v-7c0-0.4,0.1-0.8,0.3-1.1
	c0.2-0.2,0.8-0.9,1.1-1.1c0.4-0.3,0.9-0.4,1.3-0.4H26c0.5,0,1,0.2,1.3,0.4c0.3,0.2,0.9,0.8,1.1,1.1c0.2,0.3,0.3,0.7,0.3,1.1v7
	C28.8,288,28.7,288.4,28.4,288.7z M27.1,280.7c0-0.1,0-0.2,0-0.2c-0.1-0.3-0.7-0.9-1.1-0.9h-2.7c-0.4,0-0.9,0.6-1.1,0.9v0.2v6.9v0.2
	c0.1,0.3,0.7,0.9,1.1,0.9H26c0.4,0,0.9-0.6,1.1-0.9c0,0,0-0.1,0-0.2V280.7z M37.5,285.1h10v-2h-10V285.1z"/>
<path id="opacity:35" fill="#FFFFFF" d="M21.4,510.7v-1h-1.8v-7.4h-2.8v1.1h1.6v6.3h-1.9v1H21.4z M28.8,509v-4.9
	c0-0.3-0.1-0.6-0.2-0.8c-0.1-0.2-0.5-0.6-0.7-0.7c-0.3-0.2-0.6-0.3-0.9-0.3h-1.9c-0.3,0-0.7,0.1-0.9,0.3c-0.2,0.1-0.6,0.6-0.7,0.7
	c-0.2,0.2-0.2,0.5-0.2,0.8v4.9c0,0.3,0.1,0.6,0.2,0.8c0.1,0.2,0.5,0.6,0.7,0.7c0.3,0.2,0.6,0.3,0.9,0.3H27c0.3,0,0.7-0.1,0.9-0.3
	c0.2-0.1,0.6-0.6,0.7-0.7C28.7,509.6,28.8,509.3,28.8,509z M27.7,509c0,0.1,0,0.1,0,0.1c-0.1,0.2-0.5,0.6-0.8,0.6H25
	c-0.3,0-0.7-0.4-0.8-0.6V509v-4.8c0,0,0-0.1,0-0.2c0.1-0.2,0.5-0.6,0.8-0.6h1.9c0.3,0,0.7,0.4,0.8,0.6c0,0,0,0.1,0,0.2V509z
	 M21.5,449.5v-1c0-0.3-0.1-0.6-0.2-0.8c-0.1-0.2-0.5-0.6-0.7-0.7c-0.3-0.2-0.6-0.3-0.9-0.3h-1.6c-0.7,0-1.3,0.6-1.7,1.1
	c-0.1,0.2-0.2,0.4-0.4,0.7l1.1,0.3c0.1-0.2,0.1-0.3,0.1-0.3c0.2-0.3,0.5-0.6,0.7-0.8c0.1,0,0.1,0,0.2,0h1.5c0.3,0,0.7,0.4,0.8,0.6
	c0,0,0,0.1,0,0.2v0.9c0,0.2-0.1,0.4-0.3,0.5l-3,1.5c-0.6,0.3-1,0.8-1,1.4v2.3h5.3V454h-4.2v-1.2c0-0.2,0.1-0.4,0.3-0.5l2.9-1.5
	C21,450.7,21.5,450.1,21.5,449.5z M28.8,453.4v-4.9c0-0.3-0.1-0.6-0.2-0.8c-0.1-0.2-0.5-0.6-0.7-0.7c-0.3-0.2-0.6-0.3-0.9-0.3h-1.9
	c-0.3,0-0.7,0.1-0.9,0.3c-0.2,0.1-0.6,0.6-0.7,0.7c-0.2,0.2-0.2,0.5-0.2,0.8v4.9c0,0.3,0.1,0.6,0.2,0.8c0.1,0.2,0.5,0.6,0.7,0.7
	c0.3,0.2,0.6,0.3,0.9,0.3H27c0.3,0,0.7-0.1,0.9-0.3c0.2-0.1,0.6-0.6,0.7-0.7C28.7,454,28.8,453.7,28.8,453.4z M27.7,453.4
	c0,0.1,0,0.1,0,0.1c-0.1,0.2-0.5,0.6-0.8,0.6H25c-0.3,0-0.7-0.4-0.8-0.6v-0.1v-4.8c0,0,0-0.1,0-0.2c0.1-0.2,0.5-0.6,0.8-0.6h1.9
	c0.3,0,0.7,0.4,0.8,0.6c0,0,0,0.1,0,0.2V453.4z M21.4,397.9v-1.2c0-0.6-0.3-0.9-0.7-1.3c0.4-0.4,0.7-0.7,0.7-1.3V393
	c0-0.3-0.1-0.5-0.2-0.8c-0.1-0.2-0.5-0.6-0.7-0.8c-0.3-0.2-0.6-0.3-0.9-0.3H18c-0.3,0-0.6,0.1-0.8,0.2c-0.3,0.2-0.7,0.6-0.9,0.9
	c-0.1,0.1-0.2,0.4-0.4,0.7l1.1,0.3c0.1-0.2,0.1-0.3,0.1-0.3c0.2-0.3,0.6-0.7,0.8-0.8H18h1.5c0.1,0,0.1,0,0.2,0
	c0.2,0.1,0.5,0.4,0.6,0.6c0,0,0,0.1,0,0.2v1.1c0,0.1,0,0.1,0,0.2c-0.1,0.2-0.4,0.4-0.6,0.5c0,0-0.1,0-0.2,0H18v1.1h1.5
	c0.3,0,0.6,0.4,0.7,0.6v0.1v1.2c0,0.1,0,0.1,0,0.2c-0.1,0.2-0.5,0.6-0.7,0.6H18c-0.1,0-0.1,0-0.1,0c-0.2-0.1-0.6-0.5-0.7-0.7
	s-0.1-0.2-0.2-0.3l-1.1,0.3c0.2,0.4,0.3,0.6,0.4,0.7c0.4,0.5,1,1.1,1.7,1.1h1.6c0.3,0,0.7-0.1,0.9-0.3c0.2-0.1,0.6-0.6,0.7-0.7
	C21.4,398.5,21.4,398.2,21.4,397.9z M28.8,397.8v-4.9c0-0.3-0.1-0.6-0.2-0.8c-0.1-0.2-0.5-0.6-0.7-0.7c-0.3-0.2-0.6-0.3-0.9-0.3
	h-1.9c-0.3,0-0.7,0.1-0.9,0.3c-0.2,0.1-0.6,0.6-0.7,0.7c-0.2,0.2-0.2,0.5-0.2,0.8v4.9c0,0.3,0.1,0.6,0.2,0.8
	c0.1,0.2,0.5,0.6,0.7,0.7c0.3,0.2,0.6,0.3,0.9,0.3H27c0.3,0,0.7-0.1,0.9-0.3c0.2-0.1,0.6-0.6,0.7-0.7
	C28.7,398.4,28.8,398.1,28.8,397.8z M27.7,397.8c0,0.1,0,0.1,0,0.1c-0.1,0.2-0.5,0.6-0.8,0.6H25c-0.3,0-0.7-0.4-0.8-0.6v-0.1V393
	c0,0,0-0.1,0-0.2c0.1-0.2,0.5-0.6,0.8-0.6h1.9c0.3,0,0.7,0.4,0.8,0.6c0,0,0,0.1,0,0.2V397.8z M21.9,342.2v-1.1H21v-5.5h-1.5
	l-3.6,5.6v1h3.9v1.8h1.1v-1.8H21.9z M19.8,341.1h-2.6l2.5-4v4H19.8z M28.8,342.2v-4.9c0-0.3-0.1-0.6-0.2-0.8
	c-0.1-0.2-0.5-0.6-0.7-0.7c-0.3-0.2-0.6-0.3-0.9-0.3h-1.9c-0.3,0-0.7,0.1-0.9,0.3c-0.2,0.1-0.6,0.6-0.7,0.7
	c-0.2,0.2-0.2,0.5-0.2,0.8v4.9c0,0.3,0.1,0.6,0.2,0.8c0.1,0.2,0.5,0.6,0.7,0.7c0.3,0.2,0.6,0.3,0.9,0.3H27c0.3,0,0.7-0.1,0.9-0.3
	c0.2-0.1,0.6-0.6,0.7-0.7C28.7,342.8,28.8,342.5,28.8,342.2z M27.7,342.2c0,0.1,0,0.1,0,0.1c-0.1,0.2-0.5,0.6-0.8,0.6H25
	c-0.3,0-0.7-0.4-0.8-0.6v-0.1v-4.8c0,0,0-0.1,0-0.2c0.1-0.2,0.5-0.6,0.8-0.6h1.9c0.3,0,0.7,0.4,0.8,0.6c0,0,0,0.1,0,0.2V342.2z
	 M21.6,226.1c-0.1-0.3-0.3-0.6-0.4-0.7c-0.2-0.3-0.6-0.7-0.9-0.9c-0.2-0.1-0.5-0.2-0.8-0.2h-1.6c-0.3,0-0.7,0.1-0.9,0.3
	c-0.2,0.1-0.6,0.6-0.7,0.7c-0.2,0.2-0.2,0.5-0.2,0.8v4.9c0,0.3,0.1,0.6,0.2,0.8s0.5,0.6,0.7,0.7c0.3,0.2,0.6,0.3,0.9,0.3h1.8
	c0.3,0,0.7-0.1,0.9-0.3c0.2-0.1,0.6-0.6,0.7-0.7c0.2-0.2,0.2-0.5,0.2-0.8v-1.7c0-0.3-0.1-0.6-0.2-0.8s-0.5-0.6-0.7-0.7
	c-0.3-0.2-0.6-0.3-0.9-0.3h-1.5c-0.4,0-0.8,0.2-1.1,0.4v-1.8c0-0.1,0-0.1,0-0.2c0.1-0.2,0.4-0.5,0.6-0.6c0,0,0.1,0,0.2,0h1.5
	c0,0,0.1,0,0.2,0c0.2,0.1,0.6,0.4,0.8,0.8c0,0,0.1,0.2,0.1,0.3L21.6,226.1z M20.4,230.9c0,0.1,0,0.1,0,0.1c-0.1,0.2-0.5,0.6-0.7,0.6
	H18c-0.2,0-0.6-0.4-0.7-0.6v-0.1v-1.6c0.1-0.3,0.6-0.6,1-0.8h0.1h1.4c0.3,0,0.6,0.4,0.7,0.6v0.1L20.4,230.9L20.4,230.9z M28.8,230.9
	V226c0-0.3-0.1-0.6-0.2-0.8s-0.5-0.6-0.7-0.7c-0.3-0.2-0.6-0.3-0.9-0.3h-1.9c-0.3,0-0.7,0.1-0.9,0.3c-0.2,0.1-0.6,0.6-0.7,0.7
	c-0.2,0.2-0.2,0.5-0.2,0.8v4.9c0,0.3,0.1,0.6,0.2,0.8s0.5,0.6,0.7,0.7c0.3,0.2,0.6,0.3,0.9,0.3H27c0.3,0,0.7-0.1,0.9-0.3
	c0.2-0.1,0.6-0.6,0.7-0.7C28.7,231.5,28.8,231.2,28.8,230.9z M27.7,230.9c0,0.1,0,0.1,0,0.1c-0.1,0.2-0.5,0.6-0.8,0.6H25
	c-0.3,0-0.7-0.4-0.8-0.6v-0.1v-4.8c0,0,0-0.1,0-0.2c0.1-0.2,0.5-0.6,0.8-0.6h1.9c0.3,0,0.7,0.4,0.8,0.6c0,0,0,0.1,0,0.2V230.9z
	 M21.4,169.7v-0.9h-5.6v1.1h4.3l-3.6,7.3h1.3L21.4,169.7z M28.8,175.4v-4.9c0-0.3-0.1-0.6-0.2-0.8s-0.5-0.6-0.7-0.7
	c-0.3-0.2-0.6-0.3-0.9-0.3h-1.9c-0.3,0-0.7,0.1-0.9,0.3c-0.2,0.1-0.6,0.6-0.7,0.7c-0.2,0.2-0.2,0.5-0.2,0.8v4.9
	c0,0.3,0.1,0.6,0.2,0.8s0.5,0.6,0.7,0.7c0.3,0.2,0.6,0.3,0.9,0.3H27c0.3,0,0.7-0.1,0.9-0.3c0.2-0.1,0.6-0.6,0.7-0.7
	C28.7,176,28.8,175.7,28.8,175.4z M27.7,175.4c0,0.1,0,0.1,0,0.1c-0.1,0.2-0.5,0.6-0.8,0.6H25c-0.3,0-0.7-0.4-0.8-0.6v-0.1v-4.8
	c0,0,0-0.1,0-0.2c0.1-0.2,0.5-0.6,0.8-0.6h1.9c0.3,0,0.7,0.4,0.8,0.6c0,0,0,0.1,0,0.2V175.4z M21.5,119.8v-1.2
	c0-0.6-0.3-0.9-0.7-1.3c0.4-0.4,0.7-0.7,0.7-1.3v-1.1c0-0.3-0.1-0.6-0.2-0.8c-0.1-0.2-0.5-0.6-0.7-0.7c-0.3-0.2-0.6-0.3-0.9-0.3
	h-1.8c-0.3,0-0.7,0.1-0.9,0.3c-0.2,0.1-0.6,0.6-0.7,0.7c-0.2,0.2-0.2,0.5-0.2,0.8v1.1c0,0.6,0.3,0.9,0.7,1.3
	c-0.4,0.4-0.7,0.7-0.7,1.3v1.2c0,0.3,0.1,0.6,0.2,0.8c0.1,0.2,0.5,0.6,0.7,0.7c0.3,0.2,0.6,0.3,0.9,0.3h1.8c0.3,0,0.7-0.1,0.9-0.3
	c0.2-0.1,0.6-0.6,0.7-0.7C21.4,120.4,21.5,120.1,21.5,119.8z M20.3,116c0,0.1,0,0.1,0,0.2c-0.1,0.2-0.5,0.6-0.7,0.6
	c-1.8,0-1.8,0-1.8,0c-0.2,0-0.6-0.5-0.7-0.6c0,0,0-0.1,0-0.2v-1.1c0-0.1,0-0.1,0-0.2c0.1-0.2,0.5-0.6,0.7-0.6h1.7
	c0.3,0,0.6,0.4,0.7,0.6c0,0,0,0.1,0,0.2L20.3,116L20.3,116z M20.3,119.8C20.3,119.9,20.3,119.9,20.3,119.8c-0.1,0.3-0.5,0.7-0.7,0.7
	h-1.7c-0.3,0-0.6-0.4-0.7-0.6v-0.1v-1.2c0-0.1,0-0.1,0-0.1c0.1-0.2,0.5-0.6,0.7-0.6h1.7c0.2,0,0.6,0.4,0.7,0.6v0.1V119.8z
	 M28.8,119.8v-4.9c0-0.3-0.1-0.6-0.2-0.8c-0.1-0.2-0.5-0.6-0.7-0.7c-0.3-0.2-0.6-0.3-0.9-0.3h-1.9c-0.3,0-0.7,0.1-0.9,0.3
	c-0.2,0.1-0.6,0.6-0.7,0.7c-0.2,0.2-0.2,0.5-0.2,0.8v4.9c0,0.3,0.1,0.6,0.2,0.8c0.1,0.2,0.5,0.6,0.7,0.7c0.3,0.2,0.6,0.3,0.9,0.3H27
	c0.3,0,0.7-0.1,0.9-0.3c0.2-0.1,0.6-0.6,0.7-0.7C28.7,120.4,28.8,120.1,28.8,119.8z M27.7,119.8C27.7,119.9,27.7,119.9,27.7,119.8
	c-0.1,0.3-0.5,0.7-0.8,0.7H25c-0.3,0-0.7-0.4-0.8-0.6v-0.1V115c0,0,0-0.1,0-0.2c0.1-0.2,0.5-0.6,0.8-0.6h1.9c0.3,0,0.7,0.4,0.8,0.6
	c0,0,0,0.1,0,0.2V119.8z M15.9,64.2c0.1,0.3,0.3,0.6,0.4,0.7c0.2,0.3,0.6,0.7,0.9,0.9c0.2,0.1,0.5,0.2,0.8,0.2h1.6
	c0.3,0,0.7-0.1,0.9-0.3c0.2-0.1,0.6-0.6,0.7-0.7c0.2-0.2,0.2-0.5,0.2-0.8v-4.9c0-0.3-0.1-0.6-0.2-0.8s-0.5-0.6-0.7-0.7
	c-0.3-0.2-0.6-0.3-0.9-0.3h-1.8c-0.3,0-0.7,0.1-0.9,0.3c-0.2,0.1-0.6,0.6-0.7,0.7C16,58.7,16,59,16,59.3V61c0,0.3,0.1,0.6,0.2,0.8
	s0.5,0.6,0.7,0.7c0.3,0.2,0.6,0.3,0.9,0.3h1.5c0.4,0,0.8-0.2,1.1-0.4v1.8c0,0.1,0,0.1,0,0.2c-0.1,0.2-0.4,0.5-0.6,0.6
	c0,0-0.1,0-0.2,0h-1.5c0,0-0.1,0-0.2,0c-0.2-0.1-0.6-0.4-0.8-0.8c0,0-0.1-0.2-0.1-0.3L15.9,64.2z M17.1,59.4
	C17.1,59.3,17.1,59.3,17.1,59.4c0.1-0.3,0.5-0.7,0.7-0.7h1.7c0.2,0,0.6,0.4,0.7,0.6v0.1v1.7c-0.1,0.3-0.6,0.6-1,0.8h-0.1h-1.4
	c-0.3,0-0.6-0.4-0.7-0.6v-0.1L17.1,59.4L17.1,59.4z M28.8,64.2v-4.9c0-0.3-0.1-0.6-0.2-0.8s-0.5-0.6-0.7-0.7
	c-0.3-0.2-0.6-0.3-0.9-0.3h-1.9c-0.3,0-0.7,0.1-0.9,0.3c-0.2,0.1-0.6,0.6-0.7,0.7c-0.2,0.2-0.2,0.5-0.2,0.8v4.9
	c0,0.3,0.1,0.6,0.2,0.8c0.1,0.2,0.5,0.6,0.7,0.7c0.3,0.2,0.6,0.3,0.9,0.3H27c0.3,0,0.7-0.1,0.9-0.3c0.2-0.1,0.6-0.6,0.7-0.7
	C28.7,64.8,28.8,64.5,28.8,64.2z M27.7,64.2C27.7,64.3,27.7,64.3,27.7,64.2c-0.1,0.3-0.5,0.7-0.8,0.7H25c-0.3,0-0.7-0.4-0.8-0.6
	v-0.1v-4.8c0,0,0-0.1,0-0.2c0.1-0.2,0.5-0.6,0.8-0.6h1.9c0.3,0,0.7,0.4,0.8,0.6c0,0,0,0.1,0,0.2V64.2z M37.5,62.2h10v-1h-10V62.2z
	 M37.5,117.8h10v-1h-10V117.8z M37.5,173.4h10v-1h-10V173.4z M37.5,229h10v-1h-10V229z M37.5,340.2h10v-1h-10V340.2z M37.5,395.8h10
	v-1h-10V395.8z M37.5,451.4h10v-1h-10V451.4z M37.5,507h10v-1h-10V507z"/>
</svg>
