<?xml version="1.0" encoding="utf-8"?>
<!-- Generator: Adobe Illustrator 29.1.0, SVG Export Plug-In . SVG Version: 9.03 Build 55587)  -->
<svg version="1.1" baseProfile="tiny" id="Layer_1" xmlns="http://www.w3.org/2000/svg" xmlns:xlink="http://www.w3.org/1999/xlink"
	 x="0px" y="0px" viewBox="0 0 43 558.1" overflow="visible" xml:space="preserve">
<path id="Stroke" fill="#FFFFFF" d="M7.5,5.6C10.4,2.8,14.3,1,18.7,1H43V0H18.7c-1.7,0-3.3,0.3-4.8,0.7C6,1.9,0,8.7,0,16.9v524.3
	c0,8.2,6,14.9,13.8,16.1c1.5,0.5,3.2,0.7,4.8,0.7H43v-1H18.7c-4.3,0-8.3-1.8-11.1-4.6c-2.8-2.9-4.5-6.9-4.5-11.3V16.9
	C3,12.5,4.7,8.5,7.5,5.6z"/>
</svg>
