<?xml version="1.0" encoding="utf-8"?>
<!-- Generator: Adobe Illustrator 29.1.0, SVG Export Plug-In . SVG Version: 9.03 Build 55587)  -->
<svg version="1.1" baseProfile="tiny" id="Layer_1" xmlns="http://www.w3.org/2000/svg" xmlns:xlink="http://www.w3.org/1999/xlink"
	 x="0px" y="0px" viewBox="0 0 47.6 568.2" overflow="visible" xml:space="preserve">
<path id="opacity:100" fill="#FFFFFF" d="M26.7,566.7c-0.2,0.2-0.8,0.9-1.1,1.1c-0.4,0.3-0.9,0.4-1.3,0.4h-2.7c-0.5,0-1-0.2-1.3-0.4
	s-0.9-0.8-1.1-1.1s-0.3-0.7-0.3-1.1v-7c0-0.4,0.1-0.8,0.3-1.1c0.2-0.2,0.8-0.9,1.1-1.1c0.4-0.3,0.9-0.4,1.3-0.4h2.7
	c0.5,0,1,0.2,1.3,0.4s0.9,0.8,1.1,1.1s0.3,0.7,0.3,1.1v7C27,566,26.9,566.4,26.7,566.7z M25.4,558.7c0-0.1,0-0.2,0-0.2
	c-0.1-0.3-0.7-0.9-1.1-0.9h-2.7c-0.4,0-0.9,0.6-1.1,0.9v0.2v6.9v0.2c0.1,0.3,0.7,0.9,1.1,0.9h2.7c0.4,0,0.9-0.6,1.1-0.9
	c0,0,0-0.1,0-0.2V558.7z M26.6,288.7c-0.2,0.2-0.8,0.9-1.1,1.1c-0.4,0.3-0.9,0.4-1.3,0.4h-2.3c-1,0-1.9-0.9-2.5-1.6
	c-0.2-0.2-0.3-0.5-0.6-1.1l1.6-0.4c0.1,0.3,0.2,0.4,0.2,0.4c0.2,0.4,0.7,0.9,1,1.1c0.1,0.1,0.2,0.1,0.3,0.1h2.2c0.1,0,0.2,0,0.2,0
	c0.3-0.1,0.7-0.6,0.8-0.8c0,0,0-0.1,0-0.2v-2.2c0-0.1,0-0.2,0-0.2c-0.2-0.3-0.5-0.6-0.8-0.8c-0.1,0-0.1,0-0.2,0h-4.7v-6.2h6.8v1.6
	H21v3.1h3.1c0.5,0,1,0.2,1.3,0.4c0.3,0.2,0.9,0.8,1.1,1c0.2,0.3,0.3,0.7,0.3,1.1v2.2C26.9,288,26.8,288.4,26.6,288.7z M36.9,288.7
	c-0.2,0.2-0.8,0.9-1.1,1.1c-0.4,0.3-0.9,0.4-1.3,0.4h-2.7c-0.5,0-1-0.2-1.3-0.4c-0.3-0.2-0.9-0.8-1.1-1.1c-0.2-0.3-0.3-0.7-0.3-1.1
	v-7c0-0.4,0.1-0.8,0.3-1.1c0.2-0.2,0.8-0.9,1.1-1.1c0.4-0.3,0.9-0.4,1.3-0.4h2.7c0.5,0,1,0.2,1.3,0.4c0.3,0.2,0.9,0.8,1.1,1.1
	c0.2,0.3,0.3,0.7,0.3,1.1v7C37.3,288,37.2,288.4,36.9,288.7z M35.6,280.7c0-0.1,0-0.2,0-0.2c-0.1-0.3-0.7-0.9-1.1-0.9h-2.7
	c-0.4,0-0.9,0.6-1.1,0.9v0.2v6.9v0.2c0.1,0.3,0.7,0.9,1.1,0.9h2.7c0.4,0,0.9-0.6,1.1-0.9c0,0,0-0.1,0-0.2V280.7z M19.7,12.1v-1.5
	h2.7v-9h-2.3V0.1h4v10.5h2.6v1.5H19.7z M36.9,10.7c-0.2,0.2-0.8,0.9-1.1,1.1c-0.4,0.3-0.9,0.4-1.3,0.4h-2.7c-0.5,0-1-0.2-1.3-0.4
	s-0.9-0.8-1.1-1.1s-0.3-0.7-0.3-1.1v-7c0-0.4,0.1-0.8,0.3-1.1c0.2-0.2,0.8-0.9,1.1-1.1C30.9,0.2,31.4,0,31.8,0h2.7
	c0.5,0,1,0.2,1.3,0.4s0.9,0.8,1.1,1.1c0.2,0.3,0.3,0.7,0.3,1.1v7C37.3,10,37.2,10.4,36.9,10.7z M35.6,2.7c0-0.1,0-0.2,0-0.2
	c-0.1-0.3-0.7-0.9-1.1-0.9h-2.7c-0.4,0-0.9,0.6-1.1,0.9v0.2v6.9v0.2c0.1,0.3,0.7,0.9,1.1,0.9h2.7c0.4,0,0.9-0.6,1.1-0.9
	c0,0,0-0.1,0-0.2V2.7z M47.2,10.7c-0.2,0.2-0.8,0.9-1.1,1.1c-0.4,0.3-0.9,0.4-1.3,0.4h-2.7c-0.5,0-1-0.2-1.3-0.4s-0.9-0.8-1.1-1.1
	c-0.2-0.3-0.3-0.7-0.3-1.1v-7c0-0.4,0.1-0.8,0.3-1.1c0.2-0.2,0.8-0.9,1.1-1.1C41.2,0.2,41.7,0,42.1,0h2.7c0.5,0,1,0.2,1.3,0.4
	s0.9,0.8,1.1,1.1c0.2,0.3,0.3,0.7,0.3,1.1v7C47.6,10,47.4,10.4,47.2,10.7z M45.9,2.7c0-0.1,0-0.2,0-0.2c-0.1-0.3-0.7-0.9-1.1-0.9
	h-2.7c-0.4,0-0.9,0.6-1.1,0.9v0.2v6.9v0.2c0.1,0.3,0.7,0.9,1.1,0.9h2.7c0.4,0,0.9-0.6,1.1-0.9c0,0,0-0.1,0-0.2V2.7z M10,283.1H0v2
	h10V283.1z"/>
<path id="opacity:35" fill="#FFFFFF" d="M24.2,510.7v-1h-1.8v-7.4h-2.8v1.1h1.6v6.3h-1.9v1H24.2z M31.6,509v-4.9
	c0-0.3-0.1-0.6-0.2-0.8c-0.1-0.2-0.5-0.6-0.7-0.7c-0.3-0.2-0.6-0.3-0.9-0.3h-1.9c-0.3,0-0.7,0.1-0.9,0.3c-0.2,0.1-0.6,0.6-0.7,0.7
	c-0.2,0.2-0.2,0.5-0.2,0.8v4.9c0,0.3,0.1,0.6,0.2,0.8c0.1,0.2,0.5,0.6,0.7,0.7c0.3,0.2,0.6,0.3,0.9,0.3h1.9c0.3,0,0.7-0.1,0.9-0.3
	c0.2-0.1,0.6-0.6,0.7-0.7C31.5,509.6,31.6,509.3,31.6,509z M30.5,509c0,0.1,0,0.1,0,0.1c-0.1,0.2-0.5,0.6-0.8,0.6h-1.9
	c-0.3,0-0.7-0.4-0.8-0.6V509v-4.8c0,0,0-0.1,0-0.2c0.1-0.2,0.5-0.6,0.8-0.6h1.9c0.3,0,0.7,0.4,0.8,0.6c0,0,0,0.1,0,0.2V509z
	 M24.3,449.5v-1c0-0.3-0.1-0.6-0.2-0.8c-0.1-0.2-0.5-0.6-0.7-0.7c-0.3-0.2-0.6-0.3-0.9-0.3h-1.6c-0.7,0-1.3,0.6-1.7,1.1
	c-0.1,0.2-0.2,0.4-0.4,0.7l1.1,0.3c0.1-0.2,0.1-0.3,0.1-0.3c0.2-0.3,0.5-0.6,0.7-0.8c0.1,0,0.1,0,0.2,0h1.5c0.3,0,0.7,0.4,0.8,0.6
	c0,0,0,0.1,0,0.2v0.9c0,0.2-0.1,0.4-0.3,0.5l-3,1.5c-0.6,0.3-1,0.8-1,1.4v2.3h5.3V454H20v-1.2c0-0.2,0.1-0.4,0.3-0.5l2.9-1.5
	C23.8,450.7,24.3,450.1,24.3,449.5z M31.6,453.4v-4.9c0-0.3-0.1-0.6-0.2-0.8c-0.1-0.2-0.5-0.6-0.7-0.7c-0.3-0.2-0.6-0.3-0.9-0.3
	h-1.9c-0.3,0-0.7,0.1-0.9,0.3c-0.2,0.1-0.6,0.6-0.7,0.7c-0.2,0.2-0.2,0.5-0.2,0.8v4.9c0,0.3,0.1,0.6,0.2,0.8
	c0.1,0.2,0.5,0.6,0.7,0.7c0.3,0.2,0.6,0.3,0.9,0.3h1.9c0.3,0,0.7-0.1,0.9-0.3c0.2-0.1,0.6-0.6,0.7-0.7
	C31.5,454,31.6,453.7,31.6,453.4z M30.5,453.4c0,0.1,0,0.1,0,0.1c-0.1,0.2-0.5,0.6-0.8,0.6h-1.9c-0.3,0-0.7-0.4-0.8-0.6v-0.1v-4.8
	c0,0,0-0.1,0-0.2c0.1-0.2,0.5-0.6,0.8-0.6h1.9c0.3,0,0.7,0.4,0.8,0.6c0,0,0,0.1,0,0.2V453.4z M24.2,397.9v-1.2
	c0-0.6-0.3-0.9-0.7-1.3c0.4-0.4,0.7-0.7,0.7-1.3V393c0-0.3-0.1-0.5-0.2-0.8c-0.1-0.2-0.5-0.6-0.7-0.8c-0.3-0.2-0.6-0.3-0.9-0.3h-1.6
	c-0.3,0-0.6,0.1-0.8,0.2c-0.3,0.2-0.7,0.6-0.9,0.9c-0.1,0.1-0.2,0.4-0.4,0.7l1.1,0.3c0.1-0.2,0.1-0.3,0.1-0.3
	c0.2-0.3,0.6-0.7,0.8-0.8h0.1h1.5c0.1,0,0.1,0,0.2,0c0.2,0.1,0.5,0.4,0.6,0.6c0,0,0,0.1,0,0.2v1.1c0,0.1,0,0.1,0,0.2
	c-0.1,0.2-0.4,0.4-0.6,0.5c0,0-0.1,0-0.2,0h-1.5v1.1h1.5c0.3,0,0.6,0.4,0.7,0.6v0.1v1.2c0,0.1,0,0.1,0,0.2c-0.1,0.2-0.5,0.6-0.7,0.6
	h-1.5c-0.1,0-0.1,0-0.1,0c-0.2-0.1-0.6-0.5-0.7-0.7s-0.1-0.2-0.2-0.3l-1.1,0.3c0.2,0.4,0.3,0.6,0.4,0.7c0.4,0.5,1,1.1,1.7,1.1h1.6
	c0.3,0,0.7-0.1,0.9-0.3c0.2-0.1,0.6-0.6,0.7-0.7C24.2,398.5,24.2,398.2,24.2,397.9z M31.6,397.8v-4.9c0-0.3-0.1-0.6-0.2-0.8
	c-0.1-0.2-0.5-0.6-0.7-0.7c-0.3-0.2-0.6-0.3-0.9-0.3h-1.9c-0.3,0-0.7,0.1-0.9,0.3c-0.2,0.1-0.6,0.6-0.7,0.7
	c-0.2,0.2-0.2,0.5-0.2,0.8v4.9c0,0.3,0.1,0.6,0.2,0.8c0.1,0.2,0.5,0.6,0.7,0.7c0.3,0.2,0.6,0.3,0.9,0.3h1.9c0.3,0,0.7-0.1,0.9-0.3
	c0.2-0.1,0.6-0.6,0.7-0.7C31.5,398.4,31.6,398.1,31.6,397.8z M30.5,397.8c0,0.1,0,0.1,0,0.1c-0.1,0.2-0.5,0.6-0.8,0.6h-1.9
	c-0.3,0-0.7-0.4-0.8-0.6v-0.1V393c0,0,0-0.1,0-0.2c0.1-0.2,0.5-0.6,0.8-0.6h1.9c0.3,0,0.7,0.4,0.8,0.6c0,0,0,0.1,0,0.2V397.8z
	 M24.7,342.2v-1.1h-0.9v-5.5h-1.5l-3.6,5.6v1h3.9v1.8h1.1v-1.8H24.7z M22.6,341.1H20l2.5-4v4H22.6z M31.6,342.2v-4.9
	c0-0.3-0.1-0.6-0.2-0.8c-0.1-0.2-0.5-0.6-0.7-0.7c-0.3-0.2-0.6-0.3-0.9-0.3h-1.9c-0.3,0-0.7,0.1-0.9,0.3c-0.2,0.1-0.6,0.6-0.7,0.7
	c-0.2,0.2-0.2,0.5-0.2,0.8v4.9c0,0.3,0.1,0.6,0.2,0.8c0.1,0.2,0.5,0.6,0.7,0.7c0.3,0.2,0.6,0.3,0.9,0.3h1.9c0.3,0,0.7-0.1,0.9-0.3
	c0.2-0.1,0.6-0.6,0.7-0.7C31.5,342.8,31.6,342.5,31.6,342.2z M30.5,342.2c0,0.1,0,0.1,0,0.1c-0.1,0.2-0.5,0.6-0.8,0.6h-1.9
	c-0.3,0-0.7-0.4-0.8-0.6v-0.1v-4.8c0,0,0-0.1,0-0.2c0.1-0.2,0.5-0.6,0.8-0.6h1.9c0.3,0,0.7,0.4,0.8,0.6c0,0,0,0.1,0,0.2V342.2z
	 M24.4,226.1c-0.1-0.3-0.3-0.6-0.4-0.7c-0.2-0.3-0.6-0.7-0.9-0.9c-0.2-0.1-0.5-0.2-0.8-0.2h-1.6c-0.3,0-0.7,0.1-0.9,0.3
	c-0.2,0.1-0.6,0.6-0.7,0.7c-0.2,0.2-0.2,0.5-0.2,0.8v4.9c0,0.3,0.1,0.6,0.2,0.8s0.5,0.6,0.7,0.7c0.3,0.2,0.6,0.3,0.9,0.3h1.8
	c0.3,0,0.7-0.1,0.9-0.3c0.2-0.1,0.6-0.6,0.7-0.7c0.2-0.2,0.2-0.5,0.2-0.8v-1.7c0-0.3-0.1-0.6-0.2-0.8s-0.5-0.6-0.7-0.7
	c-0.3-0.2-0.6-0.3-0.9-0.3H21c-0.4,0-0.8,0.2-1.1,0.4v-1.8c0-0.1,0-0.1,0-0.2c0.1-0.2,0.4-0.5,0.6-0.6c0,0,0.1,0,0.2,0h1.5
	c0,0,0.1,0,0.2,0c0.2,0.1,0.6,0.4,0.8,0.8c0,0,0.1,0.2,0.1,0.3L24.4,226.1z M23.2,230.9c0,0.1,0,0.1,0,0.1c-0.1,0.2-0.5,0.6-0.7,0.6
	h-1.7c-0.2,0-0.6-0.4-0.7-0.6v-0.1v-1.6c0.1-0.3,0.6-0.6,1-0.8h0.1h1.4c0.3,0,0.6,0.4,0.7,0.6v0.1L23.2,230.9L23.2,230.9z
	 M31.6,230.9V226c0-0.3-0.1-0.6-0.2-0.8s-0.5-0.6-0.7-0.7c-0.3-0.2-0.6-0.3-0.9-0.3h-1.9c-0.3,0-0.7,0.1-0.9,0.3
	c-0.2,0.1-0.6,0.6-0.7,0.7c-0.2,0.2-0.2,0.5-0.2,0.8v4.9c0,0.3,0.1,0.6,0.2,0.8s0.5,0.6,0.7,0.7c0.3,0.2,0.6,0.3,0.9,0.3h1.9
	c0.3,0,0.7-0.1,0.9-0.3c0.2-0.1,0.6-0.6,0.7-0.7C31.5,231.5,31.6,231.2,31.6,230.9z M30.5,230.9c0,0.1,0,0.1,0,0.1
	c-0.1,0.2-0.5,0.6-0.8,0.6h-1.9c-0.3,0-0.7-0.4-0.8-0.6v-0.1v-4.8c0,0,0-0.1,0-0.2c0.1-0.2,0.5-0.6,0.8-0.6h1.9
	c0.3,0,0.7,0.4,0.8,0.6c0,0,0,0.1,0,0.2V230.9z M24.2,169.7v-0.9h-5.6v1.1h4.3l-3.6,7.3h1.3L24.2,169.7z M31.6,175.4v-4.9
	c0-0.3-0.1-0.6-0.2-0.8s-0.5-0.6-0.7-0.7c-0.3-0.2-0.6-0.3-0.9-0.3h-1.9c-0.3,0-0.7,0.1-0.9,0.3c-0.2,0.1-0.6,0.6-0.7,0.7
	c-0.2,0.2-0.2,0.5-0.2,0.8v4.9c0,0.3,0.1,0.6,0.2,0.8s0.5,0.6,0.7,0.7c0.3,0.2,0.6,0.3,0.9,0.3h1.9c0.3,0,0.7-0.1,0.9-0.3
	c0.2-0.1,0.6-0.6,0.7-0.7C31.5,176,31.6,175.7,31.6,175.4z M30.5,175.4c0,0.1,0,0.1,0,0.1c-0.1,0.2-0.5,0.6-0.8,0.6h-1.9
	c-0.3,0-0.7-0.4-0.8-0.6v-0.1v-4.8c0,0,0-0.1,0-0.2c0.1-0.2,0.5-0.6,0.8-0.6h1.9c0.3,0,0.7,0.4,0.8,0.6c0,0,0,0.1,0,0.2V175.4z
	 M24.3,119.8v-1.2c0-0.6-0.3-0.9-0.7-1.3c0.4-0.4,0.7-0.7,0.7-1.3v-1.1c0-0.3-0.1-0.6-0.2-0.8c-0.1-0.2-0.5-0.6-0.7-0.7
	c-0.3-0.2-0.6-0.3-0.9-0.3h-1.8c-0.3,0-0.7,0.1-0.9,0.3c-0.2,0.1-0.6,0.6-0.7,0.7c-0.2,0.2-0.2,0.5-0.2,0.8v1.1
	c0,0.6,0.3,0.9,0.7,1.3c-0.4,0.4-0.7,0.7-0.7,1.3v1.2c0,0.3,0.1,0.6,0.2,0.8c0.1,0.2,0.5,0.6,0.7,0.7c0.3,0.2,0.6,0.3,0.9,0.3h1.8
	c0.3,0,0.7-0.1,0.9-0.3c0.2-0.1,0.6-0.6,0.7-0.7C24.2,120.4,24.3,120.1,24.3,119.8z M23.1,116c0,0.1,0,0.1,0,0.2
	c-0.1,0.2-0.5,0.6-0.7,0.6c-1.8,0-1.8,0-1.8,0c-0.2,0-0.6-0.5-0.7-0.6c0,0,0-0.1,0-0.2v-1.1c0-0.1,0-0.1,0-0.2
	c0.1-0.2,0.5-0.6,0.7-0.6h1.7c0.3,0,0.6,0.4,0.7,0.6c0,0,0,0.1,0,0.2L23.1,116L23.1,116z M23.1,119.8
	C23.1,119.9,23.1,119.9,23.1,119.8c-0.1,0.3-0.5,0.7-0.7,0.7h-1.7c-0.3,0-0.6-0.4-0.7-0.6v-0.1v-1.2c0-0.1,0-0.1,0-0.1
	c0.1-0.2,0.5-0.6,0.7-0.6h1.7c0.2,0,0.6,0.4,0.7,0.6v0.1V119.8z M31.6,119.8v-4.9c0-0.3-0.1-0.6-0.2-0.8c-0.1-0.2-0.5-0.6-0.7-0.7
	c-0.3-0.2-0.6-0.3-0.9-0.3h-1.9c-0.3,0-0.7,0.1-0.9,0.3c-0.2,0.1-0.6,0.6-0.7,0.7c-0.2,0.2-0.2,0.5-0.2,0.8v4.9
	c0,0.3,0.1,0.6,0.2,0.8c0.1,0.2,0.5,0.6,0.7,0.7c0.3,0.2,0.6,0.3,0.9,0.3h1.9c0.3,0,0.7-0.1,0.9-0.3c0.2-0.1,0.6-0.6,0.7-0.7
	C31.5,120.4,31.6,120.1,31.6,119.8z M30.5,119.8C30.5,119.9,30.5,119.9,30.5,119.8c-0.1,0.3-0.5,0.7-0.8,0.7h-1.9
	c-0.3,0-0.7-0.4-0.8-0.6v-0.1V115c0,0,0-0.1,0-0.2c0.1-0.2,0.5-0.6,0.8-0.6h1.9c0.3,0,0.7,0.4,0.8,0.6c0,0,0,0.1,0,0.2V119.8z
	 M18.7,64.2c0.1,0.3,0.3,0.6,0.4,0.7c0.2,0.3,0.6,0.7,0.9,0.9c0.2,0.1,0.5,0.2,0.8,0.2h1.6c0.3,0,0.7-0.1,0.9-0.3
	c0.2-0.1,0.6-0.6,0.7-0.7c0.2-0.2,0.2-0.5,0.2-0.8v-4.9c0-0.3-0.1-0.6-0.2-0.8s-0.5-0.6-0.7-0.7c-0.3-0.2-0.6-0.3-0.9-0.3h-1.8
	c-0.3,0-0.7,0.1-0.9,0.3c-0.2,0.1-0.6,0.6-0.7,0.7c-0.2,0.2-0.2,0.5-0.2,0.8V61c0,0.3,0.1,0.6,0.2,0.8s0.5,0.6,0.7,0.7
	c0.3,0.2,0.6,0.3,0.9,0.3h1.5c0.4,0,0.8-0.2,1.1-0.4v1.8c0,0.1,0,0.1,0,0.2c-0.1,0.2-0.4,0.5-0.6,0.6c0,0-0.1,0-0.2,0h-1.5
	c0,0-0.1,0-0.2,0c-0.2-0.1-0.6-0.4-0.8-0.8c0,0-0.1-0.2-0.1-0.3L18.7,64.2z M19.9,59.4C19.9,59.3,19.9,59.3,19.9,59.4
	c0.1-0.3,0.5-0.7,0.7-0.7h1.7c0.2,0,0.6,0.4,0.7,0.6v0.1v1.7c-0.1,0.3-0.6,0.6-1,0.8h-0.1h-1.4c-0.3,0-0.6-0.4-0.7-0.6v-0.1
	L19.9,59.4L19.9,59.4z M31.6,64.2v-4.9c0-0.3-0.1-0.6-0.2-0.8s-0.5-0.6-0.7-0.7c-0.3-0.2-0.6-0.3-0.9-0.3h-1.9
	c-0.3,0-0.7,0.1-0.9,0.3c-0.2,0.1-0.6,0.6-0.7,0.7c-0.2,0.2-0.2,0.5-0.2,0.8v4.9c0,0.3,0.1,0.6,0.2,0.8c0.1,0.2,0.5,0.6,0.7,0.7
	c0.3,0.2,0.6,0.3,0.9,0.3h1.9c0.3,0,0.7-0.1,0.9-0.3c0.2-0.1,0.6-0.6,0.7-0.7C31.5,64.8,31.6,64.5,31.6,64.2z M30.5,64.2
	C30.5,64.3,30.5,64.3,30.5,64.2c-0.1,0.3-0.5,0.7-0.8,0.7h-1.9c-0.3,0-0.7-0.4-0.8-0.6v-0.1v-4.8c0,0,0-0.1,0-0.2
	c0.1-0.2,0.5-0.6,0.8-0.6h1.9c0.3,0,0.7,0.4,0.8,0.6c0,0,0,0.1,0,0.2V64.2z M10,61.2H0v1h10V61.2z M10,116.8H0v1h10V116.8z
	 M10,172.4H0v1h10V172.4z M10,228H0v1h10V228z M10,339.2H0v1h10V339.2z M10,394.8H0v1h10V394.8z M10,450.4H0v1h10V450.4z M10,506H0
	v1h10V506z"/>
</svg>
