<?xml version="1.0" encoding="utf-8"?>
<!-- Generator: Adobe Illustrator 29.1.0, SVG Export Plug-In . SVG Version: 9.03 Build 55587)  -->
<svg version="1.1" baseProfile="tiny" id="Layer_1" xmlns="http://www.w3.org/2000/svg" xmlns:xlink="http://www.w3.org/1999/xlink"
	 x="0px" y="0px" viewBox="0 0 1080 706.7" overflow="visible" xml:space="preserve">
<path id="opacity:15_colorstyle:Base_00000043414943332334012180000006471835799392093859_" fill="#0088ED" d="M1074.8,134.5
	l-32.3-48.8c-2.8-3.1-6.5-5.4-10.5-6.6L893.7,39.4c-4.2-1.2-7.9-3.9-10.4-7.6l-7.9-12c-1.7-2.5-4.5-4.1-7.5-4.3l-72.1-7.9l0.3-3
	l72,7.9c3.9,0.2,7.5,2.3,9.7,5.6l7.9,12c2.1,3.1,5.1,5.4,8.7,6.4l138.2,39.7c4.6,1.3,8.8,3.9,12,7.6l0.1,0.2l32.4,48.9L1074.8,134.5
	z M868.2,694.1c3.9-0.2,7.6-2.3,9.8-5.6l7.9-12c2.1-3.1,5.1-5.4,8.7-6.4l138.2-39.7c4.6-1.3,8.8-3.9,12-7.6l32.5-49.1l-2.5-1.7
	l-32.3,48.8c-2.8,3.1-6.5,5.4-10.5,6.6l-138.2,39.7c-4.2,1.2-7.9,3.9-10.4,7.6l-7.9,12c-1.7,2.5-4.5,4.1-7.5,4.3l-72,7.9l0.3,3
	L868.2,694.1z M37.5,85.7c2.8-3.1,6.5-5.4,10.5-6.6l138.2-39.7c4.3-1.2,7.9-3.9,10.4-7.6l7.9-12c1.7-2.5,4.5-4.1,7.5-4.3l72-7.9
	l-0.3-3l-71.9,7.9c-3.9,0.2-7.6,2.3-9.8,5.6l-7.9,12c-2,3.1-5.1,5.4-8.7,6.4L47.2,76.2c-4.6,1.3-8.8,3.9-12,7.6L2.7,132.9l2.5,1.7
	L37.5,85.7z M284.1,699l-72.1-7.9c-3-0.2-5.8-1.8-7.5-4.3l-7.9-12c-2.4-3.7-6.1-6.4-10.4-7.6L48,627.5c-4.1-1.2-7.7-3.4-10.5-6.6
	L5.2,572.1l-2.5,1.7l32.4,48.9l0.1,0.2c3.2,3.6,7.4,6.2,12,7.6l138.2,39.7c3.6,1,6.7,3.3,8.7,6.4l7.9,12c2.2,3.3,5.8,5.4,9.7,5.6
	l72,7.9L284.1,699z"/>
<path id="opacity:15_colorstyle:Base" fill="#0088ED" d="M799.7,8.1l-3.8-0.4l0.3-3l3.8,0.4L799.7,8.1z M1077.3,132.9l-1.6-2.4
	l-2.5,1.7l1.6,2.4L1077.3,132.9z M800,701.6l-0.3-3l-3.8,0.4l0.3,3L800,701.6z M1077.3,573.8l-2.5-1.7l-1.6,2.4l2.5,1.7
	L1077.3,573.8z M284.1,7.6l-0.3-3L280,5.1l0.3,3L284.1,7.6z M6.8,132.1l-2.5-1.7l-1.6,2.4l2.5,1.7L6.8,132.1z M284.1,699l-3.8-0.4
	l-0.3,3l3.8,0.4L284.1,699z M6.8,574.6l-1.6-2.4l-2.5,1.7l1.6,2.4L6.8,574.6z"/>
<path id="opacity:30_colorstyle:Base_00000150079655763073538250000013170746847807104647_" fill="#0088ED" d="M318.5,253.7
	l-32-13.4c-3.1-1.3-6.5-1.6-9.8-0.8l-9.9,2.3c-3.5,0.8-7,0.5-10.4-0.8L53.7,161.8l1.1-2.8l202.8,79.2c2.7,1.1,5.7,1.3,8.6,0.6
	l9.9-2.3c3.9-0.9,7.9-0.6,11.6,1l32,13.4L318.5,253.7z M257.5,468.5c2.8-1.1,5.7-1.3,8.6-0.6l9.9,2.3c3.9,0.9,7.9,0.6,11.6-1
	l32-13.4l-1.2-2.8l-32,13.4c-3.1,1.3-6.5,1.6-9.8,0.8l-9.9-2.3c-3.5-0.8-7-0.5-10.4,0.8L53.7,544.9l1.1,2.8L257.5,468.5z
	 M793.6,240.3c3.1-1.3,6.5-1.6,9.8-0.8l9.9,2.3c3.5,0.8,7,0.5,10.4-0.8l202.8-79.2l-1.1-2.8l-202.8,79.2c-2.8,1.1-5.7,1.3-8.6,0.6
	l-9.9-2.3c-3.9-0.9-7.9-0.6-11.6,1l-32,13.4l1.2,2.8L793.6,240.3z M1026.3,544.9l-202.8-79.2c-3.3-1.3-6.9-1.6-10.4-0.8l-9.9,2.3
	c-3.3,0.8-6.7,0.5-9.8-0.8l-32-13.4l-1.2,2.8l32,13.4c3.7,1.5,7.7,1.9,11.6,1l9.9-2.3c2.9-0.7,5.9-0.4,8.6,0.6l202.8,79.2
	L1026.3,544.9z"/>
<path id="opacity:30_colorstyle:Base_00000046316983522195102330000013610031184629016456_" fill="#0088ED" d="M67.7,167.3l-14-5.5
	l1.1-2.8l14,5.5L67.7,167.3z M319.6,251l-10.5-4.4l-1.2,2.8l10.5,4.4L319.6,251z M68.8,542.2l-1.1-2.8l-14,5.5l1.1,2.8L68.8,542.2z
	 M319.6,455.7l-1.2-2.8l-10.5,4.4l1.2,2.8L319.6,455.7z M1026.3,161.8l-1.1-2.8l-14,5.5l1.1,2.8L1026.3,161.8z M772.1,249.3
	l-1.2-2.8l-10.5,4.4l1.2,2.8L772.1,249.3z M1026.3,544.9l-14-5.5l-1.1,2.8l14,5.5L1026.3,544.9z M772.1,457.3l-10.5-4.4l-1.2,2.8
	l10.5,4.4L772.1,457.3z"/>
<path id="opacity:15_colorstyle:Base_00000082369333079857823180000003565321887198013834_" fill="#0088ED" d="M388.7,23.3l-4.2-7.5
	h-4.1v7.5h-2.5v-18h8.5c0.7,0,1.5,0.2,2,0.6c0.4,0.3,1.3,1.2,1.6,1.6c0.3,0.5,0.5,1.1,0.5,1.7V12c0,0.6-0.2,1.2-0.5,1.7
	c-0.2,0.4-1.2,1.3-1.6,1.6c-0.4,0.3-0.9,0.5-1.3,0.5l4.4,7.6H388.7z M387.9,9.3c0-0.1,0-0.3,0-0.3c-0.2-0.3-1-1.3-1.5-1.3
	c-0.1,0-0.1,0-0.2,0h-6v5.8h6c0.5,0,1.4-0.8,1.6-1.3c0-0.1,0-0.3,0-0.3V9.3z M406.7,23.3l-1.3-4h-7.8l-1.4,4h-2.6l6.3-18h3.2l6.3,18
	H406.7z M401.5,7.9l-3.1,9.1h6.2L401.5,7.9z M424.2,20.7c-0.4,0.5-1.6,1.7-2.2,2.1c-0.5,0.3-1.1,0.5-1.7,0.5h-8.3v-18h8.3
	c0.5,0,1.2,0.2,1.7,0.5c0.6,0.4,1.8,1.7,2.2,2.2c0.3,0.5,0.4,1,0.4,1.6v9.6C424.6,19.7,424.5,20.2,424.2,20.7z M422.2,9.6
	c0-0.1,0-0.2,0-0.2c-0.3-0.6-1.3-1.4-1.7-1.6c-0.1,0-0.1,0-0.2,0h-5.7V21h5.7c0.1,0,0.2,0,0.2,0c0.5-0.2,1.8-1.4,1.8-1.9V9.6z
	 M440.6,23.3l-1.3-4h-7.8l-1.4,4h-2.6l6.3-18h3.2l6.3,18H440.6z M435.3,7.9l-3.1,9.1h6.2L435.3,7.9z M456.8,23.3l-4.2-7.5h-4.1v7.5
	h-2.5v-18h8.5c0.7,0,1.5,0.2,2,0.6c0.4,0.3,1.3,1.2,1.6,1.6c0.3,0.5,0.5,1.1,0.5,1.7V12c0,0.6-0.2,1.2-0.5,1.7
	c-0.2,0.4-1.2,1.3-1.6,1.6c-0.4,0.3-0.9,0.5-1.4,0.5l4.4,7.6H456.8z M456,9.3c0-0.1,0-0.3,0-0.3c-0.2-0.3-1-1.3-1.5-1.3
	c-0.1,0-0.1,0-0.2,0h-6v5.8h6c0.5,0,1.4-0.8,1.7-1.3c0-0.1,0-0.3,0-0.3V9.3z M482,21.1c-0.9,1.1-2.1,2.4-3.7,2.4h-4
	c-0.6,0-1.3-0.2-1.7-0.5c-0.6-0.4-1.8-1.6-2.2-2.1c-0.3-0.5-0.5-1-0.5-1.6V9.4c0-0.5,0.1-1.1,0.5-1.6c0.4-0.5,1.6-1.8,2.2-2.1
	c0.5-0.3,1.1-0.5,1.7-0.5h4c1.6,0,2.8,1.3,3.7,2.4c0.2,0.3,0.5,0.8,0.8,1.5l-2.4,0.7c-0.3-1-1.3-1.9-2-2.3c0,0-0.1,0-0.2,0h-3.8
	c-0.1,0-0.2,0-0.3,0.1c-0.4,0.2-1.3,1-1.7,1.6c-0.1,0.1-0.1,0.2-0.1,0.4v9.7c0,0.5,1.2,1.6,1.7,1.8c0.1,0,0.2,0.1,0.3,0.1h3.8
	c0.1,0,0.2,0,0.3-0.1c0.7-0.4,1.6-1.3,1.9-2.2l2.4,0.6C482.6,20,482.3,20.6,482,21.1z M498,23.3l-1.4-4h-7.8l-1.4,4h-2.6l6.3-18h3.2
	l6.3,18H498z M492.8,7.9l-3.1,9.1h6.2L492.8,7.9z M515.4,13.6c-0.2,0.4-1.2,1.3-1.6,1.6c-0.5,0.4-1.3,0.6-2,0.6h-6v7.5h-2.5v-18h8.5
	c0.7,0,1.5,0.2,2,0.6c0.4,0.3,1.3,1.2,1.6,1.6c0.3,0.5,0.5,1.1,0.5,1.7V12C515.9,12.6,515.7,13.1,515.4,13.6z M513.5,9.3
	c0-0.2,0-0.2-0.1-0.3c-0.1-0.4-1-1.3-1.5-1.3c-0.1,0-0.1,0-0.2,0h-5.9v5.8h6c0.5,0,1.3-0.8,1.6-1.2c0.1-0.1,0.1-0.2,0.1-0.4V9.3z
	 M529.6,23.3l-1.3-4h-7.8l-1.4,4h-2.6l6.3-18h3.2l6.3,18H529.6z M524.4,7.9l-3.1,9.1h6.2L524.4,7.9z M546.8,21.1
	c-0.9,1.1-2.1,2.4-3.7,2.4h-4c-0.6,0-1.3-0.2-1.7-0.5c-0.6-0.4-1.8-1.6-2.2-2.1c-0.3-0.5-0.5-1-0.5-1.6V9.4c0-0.5,0.1-1.1,0.5-1.6
	c0.4-0.5,1.6-1.8,2.2-2.1c0.5-0.3,1.1-0.5,1.7-0.5h4c1.6,0,2.9,1.3,3.7,2.4c0.2,0.3,0.5,0.8,0.8,1.5l-2.4,0.7c-0.3-1-1.3-1.9-2-2.3
	c0,0-0.1,0-0.2,0h-3.8c-0.1,0-0.2,0-0.3,0.1c-0.4,0.2-1.3,1-1.7,1.6c-0.1,0.1-0.1,0.2-0.1,0.4v9.7c0,0.5,1.2,1.6,1.7,1.8
	c0.1,0,0.1,0.1,0.3,0.1h3.8c0.1,0,0.2,0,0.3-0.1c0.7-0.4,1.6-1.3,1.9-2.2l2.4,0.6C547.4,20,547.1,20.6,546.8,21.1z M551.2,23.3v-18
	h2.5v18H551.2z M564.5,7.7v15.7H562V7.7h-5.1V5.3h12.7v2.3H564.5z M579.6,15.7v7.6h-2.5v-7.6l-6-10.3h2.7l4.6,7.9
	c-0.1,0,4.6-7.9,4.6-7.9h2.7L579.6,15.7z M605,23.3l-7.6-13.7v13.7H595v-18h2.9l7.5,13.9V5.3h2.4v18H605z M624.9,20.9
	c-0.4,0.5-1.6,1.7-2.2,2.1c-0.5,0.3-1.2,0.5-1.7,0.5h-4.7c-0.6,0-1.2-0.2-1.7-0.5c-0.6-0.4-1.8-1.6-2.2-2.1
	c-0.3-0.5-0.4-1.1-0.4-1.6V9.4c0-0.5,0.1-1.1,0.4-1.6c0.4-0.5,1.6-1.8,2.2-2.1c0.5-0.3,1.1-0.5,1.7-0.5h4.7c0.6,0,1.3,0.2,1.7,0.5
	c0.6,0.4,1.8,1.6,2.2,2.1c0.3,0.5,0.4,1,0.4,1.6v9.9C625.4,19.8,625.2,20.4,624.9,20.9z M622.9,9.5c0-0.1,0-0.2-0.1-0.3
	c-0.3-0.6-1.2-1.4-1.6-1.6c-0.1,0-0.2-0.1-0.3-0.1h-4.5c-0.1,0-0.2,0-0.3,0.1c-0.5,0.2-1.7,1.4-1.7,1.9v9.8c0,0.5,1.3,1.6,1.7,1.8
	c0.1,0,0.2,0.1,0.3,0.1h4.5c0.1,0,0.2,0,0.3-0.1c0.5-0.2,1.7-1.3,1.7-1.8V9.5z M642.9,23.3V9l-4.7,9.7h-1.6L631.9,9v14.3h-2.4v-18
	h3.1l4.8,9.8l4.8-9.8h3.1v18H642.9z M649.5,23.3v-18h2.5v18H649.5z M666.3,23.3l-7.6-13.7v13.7h-2.4v-18h2.9l7.5,13.9V5.3h2.4v18
	H666.3z M685,23.3l-1.3-4h-7.8l-1.4,4h-2.6l6.3-18h3.2l6.3,18H685z M679.8,7.9l-3.1,9.1h6.2L679.8,7.9z M690.4,23.3v-18h2.5V21h8.4
	v2.3H690.4z"/>
<path id="opacity:15_colorstyle:Base_00000060003619072466602510000001616259568581691285_" fill="#0088ED" d="M443.5,698
	c-0.4,0.5-1.6,1.7-2.2,2.1c-0.5,0.3-1.1,0.5-1.7,0.5h-5c-1.6,0-2.9-1.3-3.7-2.4c-0.2-0.3-0.4-0.8-0.8-1.6l2.4-0.6
	c0.1,0.2,0.3,0.5,0.3,0.5c0.4,0.7,1.3,1.4,1.7,1.7c0.1,0.1,0.2,0.1,0.3,0.1h4.8c0.1,0,0.2,0,0.2-0.1c0.5-0.2,1.7-1.3,1.7-1.8v-1.8
	c0-0.5-0.3-0.9-0.7-1l-8.2-2.1c-1.4-0.4-2.1-1.7-2.1-3.1v-1.8c0-0.5,0.1-1.1,0.4-1.6c0.4-0.5,1.6-1.8,2.2-2.1
	c0.5-0.3,1.1-0.5,1.7-0.5h4.4c1.6,0,2.8,1.3,3.7,2.4c0.2,0.3,0.5,0.8,0.8,1.5l-2.4,0.7c-0.2-0.5-0.3-0.6-0.3-0.6
	c-0.3-0.7-1.3-1.4-1.7-1.7c0,0-0.1,0-0.2,0H435c-0.1,0-0.2,0-0.3,0.1c-0.5,0.2-1.7,1.4-1.7,1.8v1.7c0,0.5,0.3,0.9,0.7,1l8.1,2.2
	c1.4,0.4,2.2,1.7,2.2,3v2C444,697,443.9,697.6,443.5,698z M459.6,698.2c-0.9,1.1-2.1,2.4-3.7,2.4h-4c-0.6,0-1.3-0.2-1.7-0.5
	c-0.6-0.4-1.8-1.6-2.2-2.1c-0.3-0.5-0.5-1-0.5-1.6v-9.9c0-0.5,0.1-1.1,0.5-1.6c0.4-0.5,1.6-1.8,2.2-2.1c0.5-0.3,1.1-0.5,1.7-0.5h4
	c1.6,0,2.8,1.3,3.7,2.4c0.2,0.3,0.5,0.8,0.8,1.5l-2.4,0.7c-0.3-1-1.3-1.9-2-2.3c0,0-0.1,0-0.2,0h-3.8c-0.1,0-0.2,0-0.3,0.1
	c-0.4,0.2-1.3,1-1.7,1.6c-0.1,0.1-0.1,0.2-0.1,0.4v9.7c0,0.5,1.2,1.6,1.7,1.8c0.1,0,0.2,0.1,0.3,0.1h3.8c0.1,0,0.2,0,0.3-0.1
	c0.7-0.4,1.6-1.3,1.9-2.2l2.4,0.6C460.2,697.2,459.9,697.8,459.6,698.2z M475.7,700.5l-1.4-4h-7.8l-1.4,4h-2.6l6.3-18h3.2l6.3,18
	H475.7z M470.4,685l-3.1,9.1h6.2L470.4,685z M491,700.5l-7.6-13.7v13.7H481v-18h2.9l7.5,13.9v-13.9h2.4v18H491z M517.2,697.9
	c-0.4,0.5-1.6,1.7-2.2,2.1c-0.5,0.3-1.1,0.5-1.7,0.5h-8.3v-18h8.3c0.5,0,1.2,0.2,1.7,0.5c0.6,0.4,1.8,1.6,2.2,2.2
	c0.3,0.5,0.4,1,0.4,1.6v9.6C517.7,696.9,517.6,697.4,517.2,697.9z M515.2,686.8c0-0.1,0-0.2,0-0.2c-0.3-0.6-1.3-1.4-1.7-1.7
	c-0.1,0-0.1,0-0.2,0h-5.7v13.3h5.7c0.1,0,0.2,0,0.2,0c0.5-0.2,1.8-1.3,1.8-1.9V686.8z M533.6,700.5l-1.3-4h-7.8l-1.4,4h-2.6l6.3-18
	h3.2l6.3,18H533.6z M528.4,685l-3.1,9.1h6.2L528.4,685z M543.8,684.8v15.7h-2.5v-15.7h-5.1v-2.3h12.7v2.3H543.8z M562.1,700.5
	l-1.3-4H553l-1.4,4H549l6.3-18h3.2l6.3,18H562.1z M556.9,685l-3.1,9.1h6.2L556.9,685z M574.8,692.5v-3.2h3.1v3.2H574.8z
	 M574.8,700.5v-3.2h3.1v3.2H574.8z M599.5,700.5l-7.6-13.7v13.7h-2.4v-18h2.9l7.5,13.9v-13.9h2.4v18H599.5z M618.7,698
	c-0.4,0.5-1.6,1.7-2.2,2.1c-0.5,0.3-1.1,0.5-1.7,0.5h-4c-0.6,0-1.3-0.2-1.7-0.5c-0.6-0.4-1.8-1.6-2.2-2.1c-0.3-0.5-0.5-1-0.5-1.6
	v-14h2.5v13.9c0,0.5,1.3,1.6,1.8,1.8c0.1,0,0.1,0.1,0.2,0.1h3.7c0.1,0,0.2,0,0.3-0.1c0.4-0.2,1.7-1.4,1.7-1.8v-13.9h2.5v14
	C619.2,697,619.1,697.6,618.7,698z M623.3,700.5v-18h2.5v15.7h8.4v2.3H623.3z M637.5,700.5v-18h2.5v15.7h8.4v2.3H637.5z"/>
</svg>
