<?xml version="1.0" encoding="utf-8"?>
<!-- Generator: Adobe Illustrator 25.0.0, SVG Export Plug-In . SVG Version: 6.00 Build 0)  -->
<svg version="1.1" id="Layer_1" xmlns="http://www.w3.org/2000/svg" xmlns:xlink="http://www.w3.org/1999/xlink" x="0px" y="0px"
	 viewBox="0 0 331 97" style="enable-background:new 0 0 331 97;" xml:space="preserve">
<style type="text/css">
	.st0{fill:#FFFFFF;}
</style>
<path class="st0" d="M321.8,97.1H51.4c-3.5,0-6.9-1.4-9.4-3.9L5.8,64c-2.5-2.5-3.9-5.9-3.9-9.4V26h0.8v28.6c0,3.3,1.3,6.5,3.7,8.8
	l36.2,29.2c2.4,2.4,5.5,3.7,8.9,3.7h270.3V97.1z"/>
<path class="st0" d="M330.1,72.7h-0.8v-30c0-3.1-1.2-5.9-3.4-8.1L289.2,5.8c-2.2-2.2-5.1-3.4-8.1-3.4H10.3V1.6h270.8
	c3.3,0,6.3,1.3,8.6,3.6L326.5,34c2.3,2.3,3.6,5.4,3.6,8.7V72.7z"/>
</svg>
