<?xml version="1.0" encoding="utf-8"?>
<!-- Generator: Adobe Illustrator 24.3.0, SVG Export Plug-In . SVG Version: 6.00 Build 0)  -->
<svg version="1.1" baseProfile="tiny" id="Layer_1" xmlns="http://www.w3.org/2000/svg" xmlns:xlink="http://www.w3.org/1999/xlink"
	 x="0px" y="0px" viewBox="0 0 325 58" overflow="visible" xml:space="preserve">
<path fill="#DDF0F4" d="M322.4,32.1v13.8c0,0.1,0,0.2,0,0.3c-0.2,3.9-3.4,7.1-7.4,7.1H10.1c-4.1,0-7.5-3.3-7.5-7.4V11.9
	c0-4.1,3.3-7.4,7.5-7.4h41.3v0.8H10.1c-3.7,0-6.7,3-6.7,6.7v33.9c0,3.7,3,6.7,6.7,6.7h304.9c3.7,0,6.7-3,6.7-6.7V32.1
	c0-1.8-0.7-3.5-2-4.7L299.5,7.2c-1.3-1.3-2.9-2-4.7-2H56.9V4.5h237.8c2,0,3.9,0.8,5.3,2.2l20.2,20.2c1.4,1.4,2.1,3.2,2.2,5.1
	C322.4,32,322.4,32,322.4,32.1z"/>
<path fill="#DDF0F4" d="M55.8,8.7c0,0.8-0.6,1.4-1.4,1.4C53.6,10,53,9.4,53,8.7s0.6-1.4,1.4-1.4C55.2,7.3,55.8,7.9,55.8,8.7z"/>
</svg>
