<?xml version="1.0" encoding="utf-8"?>
<!-- Generator: Adobe Illustrator 26.0.1, SVG Export Plug-In . SVG Version: 6.00 Build 0)  -->
<svg version="1.1" baseProfile="tiny" id="Layer_1" xmlns="http://www.w3.org/2000/svg" xmlns:xlink="http://www.w3.org/1999/xlink"
	 x="0px" y="0px" viewBox="0 0 110 110" overflow="visible" xml:space="preserve">
<g>
	<path fill="#E73128" d="M55,0C24.6,0,0,24.6,0,55s24.6,55,55,55s55-24.6,55-55S85.4,0,55,0z M63.5,90c0,1.9-1.6,3.5-3.5,3.5H50
		c-1.9,0-3.5-1.6-3.5-3.5V80c0-1.9,1.6-3.5,3.5-3.5h10c1.9,0,3.5,1.6,3.5,3.5V90z M63.5,60c0,1.9-1.6,3.5-3.5,3.5H50
		c-1.9,0-3.5-1.6-3.5-3.5V20c0-1.9,1.6-3.5,3.5-3.5h10c1.9,0,3.5,1.6,3.5,3.5V60z"/>
</g>
</svg>
