<?xml version="1.0" encoding="utf-8"?>
<!-- Generator: Adobe Illustrator 26.0.1, SVG Export Plug-In . SVG Version: 6.00 Build 0)  -->
<svg version="1.1" baseProfile="tiny" id="Layer_1" xmlns="http://www.w3.org/2000/svg" xmlns:xlink="http://www.w3.org/1999/xlink"
	 x="0px" y="0px" viewBox="0 0 49.6 61.1" overflow="visible" xml:space="preserve">
<line fill="none" stroke="#FFD28B" stroke-width="1.8638" stroke-miterlimit="10" x1="23.7" y1="0" x2="23.7" y2="32.4"/>
<line fill="none" stroke="#FFD28B" stroke-width="1.8638" stroke-miterlimit="10" x1="16.7" y1="7.2" x2="16.7" y2="27.6"/>
<line fill="none" stroke="#FFD28B" stroke-width="1.8638" stroke-miterlimit="10" x1="20.2" y1="3.4" x2="20.2" y2="15.9"/>
<line fill="none" stroke="#FFD28B" stroke-width="1.8638" stroke-miterlimit="10" x1="16.7" y1="12.2" x2="23.5" y2="19"/>
<line fill="none" stroke="#FFD28B" stroke-width="1.8638" stroke-miterlimit="10" x1="16.7" y1="18.9" x2="23.5" y2="25.7"/>
<line fill="none" stroke="#FFD28B" stroke-width="1.8638" stroke-miterlimit="10" x1="16.7" y1="25.7" x2="23.5" y2="32.5"/>
<line fill="none" stroke="#FFD28B" stroke-width="1.8638" stroke-miterlimit="10" x1="30.7" y1="7.2" x2="30.7" y2="27.6"/>
<line fill="none" stroke="#FFD28B" stroke-width="1.8638" stroke-miterlimit="10" x1="27.2" y1="3.4" x2="27.2" y2="15.9"/>
<line fill="none" stroke="#FFD28B" stroke-width="1.8638" stroke-miterlimit="10" x1="30.7" y1="12.2" x2="24" y2="19"/>
<line fill="none" stroke="#FFD28B" stroke-width="1.8638" stroke-miterlimit="10" x1="30.7" y1="18.9" x2="24" y2="25.7"/>
<line fill="none" stroke="#FFD28B" stroke-width="1.8638" stroke-miterlimit="10" x1="30.7" y1="25.7" x2="24" y2="32.5"/>
<line fill="none" stroke="#FFD28B" stroke-width="1.8638" stroke-miterlimit="10" x1="30.7" y1="32.7" x2="28.6" y2="34.8"/>
<path fill="none" stroke="#FFD28B" stroke-width="1.8638" stroke-miterlimit="10" d="M19.4,34.6C17,26.8,10.6,17,10.6,17
	S0.9,31.5,0.9,39.2c0,9,7.8,10,9.7,10"/>
<path fill="none" stroke="#FFD28B" stroke-width="1.8638" stroke-miterlimit="10" d="M10.6,49.2c0.3,0,0.7,0,1.2-0.2"/>
<path fill="none" stroke="#FFD28B" stroke-width="1.8638" stroke-miterlimit="10" d="M11.6,42.7c-0.8-0.3-1.6-0.3-2.4,0l-1.9,0.8
	c-0.8,0.3-1.6,0.3-2.4,0L3,42.7c-0.4-0.2-0.8-0.2-1.3-0.2"/>
<ellipse fill="none" stroke="#FFD28B" stroke-width="1.8638" stroke-miterlimit="10" cx="39.7" cy="21.1" rx="9" ry="4.5"/>
<line fill="none" stroke="#FFD28B" stroke-width="1.8638" stroke-miterlimit="10" x1="30.7" y1="36.1" x2="30.7" y2="21.1"/>
<path fill="none" stroke="#FFD28B" stroke-width="1.8638" stroke-miterlimit="10" d="M48.6,21.1v25c0,2.5-4,4.5-9,4.5
	c-1.4,0-2.7-0.2-3.9-0.4"/>
<path fill="none" stroke="#FFD28B" stroke-width="1.8638" stroke-miterlimit="10" d="M48.6,29.7c0,2.5-4,4.5-9,4.5s-9-2-9-4.5"/>
<path fill="none" stroke="#FFD28B" stroke-width="1.8638" stroke-miterlimit="10" d="M48.6,37.7c0,2.5-4,4.5-9,4.5
	c-1.4,0-2.7-0.2-3.9-0.5"/>
<path fill="none" stroke="#FFD28B" stroke-width="1.8638" stroke-miterlimit="10" d="M14.5,37.1c-0.3,0-0.7-0.1-1-0.2l-1.9-0.7
	c-0.8-0.3-1.6-0.3-2.4,0l-1.9,0.8c-0.8,0.3-1.6,0.3-2.4,0L3,36.1c-0.4-0.2-0.8-0.2-1.3-0.2"/>
<polygon fill="none" stroke="#FFD28B" stroke-width="1.8638" stroke-miterlimit="10" points="11.6,38.9 11.6,53 23.7,60 35.9,53 
	35.9,38.9 23.7,31.9 "/>
<polygon fill="none" stroke="#FFD28B" stroke-width="1.8638" stroke-miterlimit="10" points="11.6,38.9 11.6,53 23.7,60 35.9,53 
	35.9,38.9 23.7,31.9 "/>
<path fill="none" stroke="#FFD28B" stroke-width="1.8638" stroke-miterlimit="10" d="M31.4,45.8c-5.6-5.6-19.3-10.6-16.6-1.8"/>
<path fill="none" stroke="#FFD28B" stroke-width="1.8638" stroke-miterlimit="10" d="M27.7,52.6c2.1-7.7-0.5-22-6.7-15.2"/>
<path fill="none" stroke="#FFD28B" stroke-width="1.8638" stroke-miterlimit="10" d="M27.3,39.2c-7.7,2.1-18.7,11.6-9.7,13.5"/>
<path fill="none" stroke="#FFD28B" stroke-width="1.8638" stroke-miterlimit="10" d="M20,52.8c7.7-2.1,18.8-11.5,9.8-13.5"/>
<path fill="none" stroke="#FFD28B" stroke-width="1.8638" stroke-miterlimit="10" d="M16,46.3c5.6,5.6,19.4,10.5,16.6,1.7"/>
<path fill="none" stroke="#FFD28B" stroke-width="1.8638" stroke-miterlimit="10" d="M19.6,39.5c-2,7.7,0.6,22,6.8,15.2"/>
<circle fill="none" stroke="#FFD28B" stroke-width="1.8638" stroke-miterlimit="10" cx="23.7" cy="46" r="2.1"/>
</svg>
