<?xml version="1.0" encoding="utf-8"?>
<!-- Generator: Adobe Illustrator 26.0.1, SVG Export Plug-In . SVG Version: 6.00 Build 0)  -->
<svg version="1.1" baseProfile="tiny" id="Layer_1" xmlns="http://www.w3.org/2000/svg" xmlns:xlink="http://www.w3.org/1999/xlink"
	 x="0px" y="0px" viewBox="0 0 80 80" overflow="visible" xml:space="preserve">
<path fill="#E73128" d="M40,0C17.9,0,0,17.9,0,40c0,22.1,17.9,40,40,40c22.1,0,40-17.9,40-40C80,17.9,62.1,0,40,0z M10,40
	c0-6.5,2.1-12.5,5.6-17.4l41.8,41.8C52.5,67.9,46.5,70,40,70C23.5,70,10,56.5,10,40z M64.4,57.4L22.6,15.6C27.5,12.1,33.5,10,40,10
	c16.5,0,30,13.5,30,30C70,46.5,67.9,52.5,64.4,57.4z"/>
</svg>
