<?xml version="1.0" encoding="utf-8"?>
<!-- Generator: Adobe Illustrator 26.0.1, SVG Export Plug-In . SVG Version: 6.00 Build 0)  -->
<svg version="1.1" baseProfile="tiny" id="Layer_1" xmlns="http://www.w3.org/2000/svg" xmlns:xlink="http://www.w3.org/1999/xlink"
	 x="0px" y="0px" viewBox="0 0 1920 1080" overflow="visible" xml:space="preserve">
<path fill="#131210" d="M1382.5,26.1H26V700c0,193.3,156.7,350,350,350h1506.5V526.1C1882.5,250,1658.6,26.1,1382.5,26.1z
	 M1045.4,917.6h-620c-97,0-175.7-78.6-175.7-175.7V122h620c97,0,175.7,78.6,175.7,175.7V917.6z"/>
<path fill="#423518" d="M869.7,122h-620v620c0,97,78.6,175.7,175.7,175.7h620v-620C1045.4,200.7,966.7,122,869.7,122z M905.4,777.7
	H503.6c-62.9,0-113.9-51-113.9-113.9V261.9h401.9c62.9,0,113.9,51,113.9,113.9L905.4,777.7L905.4,777.7z"/>
<path fill="#2E2511" d="M905.4,777.7H503.6c-62.9,0-113.9-51-113.9-113.9V261.9h401.9c62.9,0,113.9,51,113.9,113.9L905.4,777.7
	L905.4,777.7z"/>
</svg>
