<?xml version="1.0" encoding="utf-8"?>
<!-- Generator: Adobe Illustrator 26.0.1, SVG Export Plug-In . SVG Version: 6.00 Build 0)  -->
<svg version="1.1" baseProfile="tiny" id="Layer_1" xmlns="http://www.w3.org/2000/svg" xmlns:xlink="http://www.w3.org/1999/xlink"
	 x="0px" y="0px" viewBox="0 0 1920 1080" overflow="visible" xml:space="preserve">
<path fill="none" stroke="#6D490F" stroke-width="1.095" stroke-miterlimit="10" d="M905.4,777.7H503.6
	c-62.9,0-113.9-51-113.9-113.9V261.9h401.9c62.9,0,113.9,51,113.9,113.9V777.7z"/>
<path fill="none" stroke="#6D490F" stroke-width="1.2121" stroke-miterlimit="10" d="M933,805.3H488.2c-69.6,0-126-56.4-126-126
	V234.4H807c69.6,0,126,56.4,126,126V805.3z"/>
<path fill="none" stroke="#6D490F" stroke-width="1.3592" stroke-miterlimit="10" d="M967.7,839.9H468.8
	c-78.1,0-141.3-63.3-141.3-141.3V199.7h498.9c78.1,0,141.3,63.3,141.3,141.3V839.9z"/>
<path fill="none" stroke="#6D490F" stroke-width="1.511" stroke-miterlimit="10" d="M1003.4,875.7H448.8
	c-86.8,0-157.1-70.4-157.1-157.1V164h554.6c86.8,0,157.1,70.4,157.1,157.1V875.7z"/>
<line fill="none" stroke="#6D490F" stroke-width="1.095" stroke-miterlimit="10" x1="389.7" y1="261.9" x2="249.7" y2="122"/>
<line fill="none" stroke="#6D490F" stroke-width="1.095" stroke-miterlimit="10" x1="905.4" y1="777.7" x2="1045.4" y2="917.6"/>
<line fill="none" stroke="#6D490F" stroke-width="1.095" stroke-miterlimit="10" x1="869.7" y1="122" x2="791.6" y2="261.9"/>
<line fill="none" stroke="#6D490F" stroke-width="1.095" stroke-miterlimit="10" x1="905.4" y1="375.8" x2="1045.4" y2="297.7"/>
<line fill="none" stroke="#6D490F" stroke-width="1.095" stroke-miterlimit="10" x1="389.7" y1="663.8" x2="249.7" y2="742"/>
<line fill="none" stroke="#6D490F" stroke-width="1.095" stroke-miterlimit="10" x1="425.4" y1="917.6" x2="503.6" y2="777.7"/>
<path fill="none" stroke="#B1852C" stroke-width="3" stroke-linecap="round" stroke-linejoin="round" stroke-miterlimit="10" d="
	M1045.4,917.6h-620c-97,0-175.7-78.6-175.7-175.7V122h620c97,0,175.7,78.6,175.7,175.7V917.6z"/>
</svg>
