<?xml version="1.0" encoding="utf-8"?>
<!-- Generator: Adobe Illustrator 26.0.1, SVG Export Plug-In . SVG Version: 6.00 Build 0)  -->
<svg version="1.1" baseProfile="tiny" id="Layer_1" xmlns="http://www.w3.org/2000/svg" xmlns:xlink="http://www.w3.org/1999/xlink"
	 x="0px" y="0px" viewBox="0 0 1920 1080" overflow="visible" xml:space="preserve">
<g>
	<path fill="none" stroke="#FFD28B" stroke-width="4" stroke-linecap="round" stroke-linejoin="round" stroke-miterlimit="10" d="
		M612.6,397.6c0,0-195-44.6-133.3,98.8"/>
	<path fill="none" stroke="#FFD28B" stroke-width="4" stroke-linecap="round" stroke-linejoin="round" stroke-miterlimit="10" d="
		M554.3,577.1c0,0-11-94,18.7-185.2"/>
	<path fill="none" stroke="#FFD28B" stroke-width="4" stroke-linecap="round" stroke-linejoin="round" stroke-miterlimit="10" d="
		M741.2,427c0,0-60.5-190.7-152.7-64.7"/>
	<path fill="none" stroke="#FFD28B" stroke-width="4" stroke-linecap="round" stroke-linejoin="round" stroke-miterlimit="10" d="
		M557,467.9c0,0,75.4-57.2,169-77.9"/>
	<path fill="none" stroke="#FFD28B" stroke-width="4" stroke-linecap="round" stroke-linejoin="round" stroke-miterlimit="10" d="
		M781.2,552.8c0,0,133.6-148.9-21.8-164.4"/>
	<path fill="none" stroke="#FFD28B" stroke-width="4" stroke-linecap="round" stroke-linejoin="round" stroke-miterlimit="10" d="
		M652.5,414.8c0,0,87.6,35.9,152.9,106.1"/>
	<path fill="none" stroke="#FFD28B" stroke-width="4" stroke-linecap="round" stroke-linejoin="round" stroke-miterlimit="10" d="
		M693.2,651.1c0,0,196.1,39.5,130.6-102.2"/>
	<path fill="none" stroke="#FFD28B" stroke-width="4" stroke-linecap="round" stroke-linejoin="round" stroke-miterlimit="10" d="
		M746.7,470.1c0,0,13.5,93.7-13.8,185.6"/>
	<path fill="none" stroke="#FFD28B" stroke-width="4" stroke-linecap="round" stroke-linejoin="round" stroke-miterlimit="10" d="
		M563.8,625.1c0,0,65.5,189,154.4,60.6"/>
	<path fill="none" stroke="#FFD28B" stroke-width="4" stroke-linecap="round" stroke-linejoin="round" stroke-miterlimit="10" d="
		M746.8,579.3c0,0-73.9,59.2-166.9,82.3"/>
	<path fill="none" stroke="#FFD28B" stroke-width="4" stroke-linecap="round" stroke-linejoin="round" stroke-miterlimit="10" d="
		M520.5,500.4c0,0-129.6,152.4,26.1,163.8"/>
	<path fill="none" stroke="#FFD28B" stroke-width="4" stroke-linecap="round" stroke-linejoin="round" stroke-miterlimit="10" d="
		M652.8,634.9c0,0-88.5-33.6-155.7-102"/>
	
		<circle fill="none" stroke="#FFD28B" stroke-width="4" stroke-linecap="round" stroke-linejoin="round" stroke-miterlimit="10" cx="651.2" cy="524.9" r="42.7"/>
</g>
</svg>
