<?xml version="1.0" encoding="utf-8"?>
<!-- Generator: Adobe Illustrator 26.0.1, SVG Export Plug-In . SVG Version: 6.00 Build 0)  -->
<svg version="1.1" baseProfile="tiny" id="Layer_1" xmlns="http://www.w3.org/2000/svg" xmlns:xlink="http://www.w3.org/1999/xlink"
	 x="0px" y="0px" viewBox="0 0 120 150" overflow="visible" xml:space="preserve">
<path fill="#F8B781" d="M113.8,60H110V50c0-27.6-22.4-50-50-50S10,22.4,10,50v10H6.2C2.8,60,0,62.8,0,66.2v77.5
	c0,3.5,2.8,6.2,6.2,6.2h107.5c3.5,0,6.2-2.8,6.2-6.2V66.2C120,62.8,117.2,60,113.8,60z M30,50c0-16.5,13.5-30,30-30s30,13.5,30,30
	v10H30V50z"/>
</svg>
