<?xml version="1.0" encoding="utf-8"?>
<!-- Generator: Adobe Illustrator 26.0.1, SVG Export Plug-In . SVG Version: 6.00 Build 0)  -->
<svg version="1.1" baseProfile="tiny" id="Layer_1" xmlns="http://www.w3.org/2000/svg" xmlns:xlink="http://www.w3.org/1999/xlink"
	 x="0px" y="0px" viewBox="0 0 1920 1080" overflow="visible" xml:space="preserve">
<path fill="none" stroke="#FFD28B" stroke-width="4" stroke-linecap="round" stroke-linejoin="round" stroke-miterlimit="10" d="
	M652.2,323.8c0,0-120.9,123.9-140.1,229.2c-7,38.3-0.8,63.1,7.1,82.2c18.4,44.7,66.9,90.6,133,90.6c66,0,114.6-45.9,133-90.6
	c13.4-32.5,10.8-61.8,7.1-82.2c-14.2-77.9-84.2-166.1-119.5-206.6"/>
<path fill="none" stroke="#FFD28B" stroke-width="4" stroke-linecap="round" stroke-linejoin="round" stroke-miterlimit="10" d="
	M794,564.5c-6.3,0-12.6,1.2-18.6,3.6l-29.2,11.6c-11.9,4.8-25.3,4.8-37.2,0l-29.2-11.6c-12-4.8-25.3-4.8-37.3,0l-29.1,11.7
	c-12,4.8-25.4,4.8-37.3,0l-29.8-11.9c-6.3-2.5-13-3.7-19.7-3.6"/>
<path fill="none" stroke="#FFD28B" stroke-width="4" stroke-linecap="round" stroke-linejoin="round" stroke-miterlimit="10" d="
	M516.6,628.1c5.8,0,11.5,1.1,17,3.3l26.6,10.6c10.9,4.3,23,4.3,33.9,0l26.6-10.6c10.9-4.4,23.1-4.3,34,0l26.5,10.6
	c10.9,4.4,23.1,4.4,34,0l27.1-10.9c5.8-2.3,11.9-3.4,17.9-3.3"/>
</svg>
