<?xml version="1.0" encoding="utf-8"?>
<!-- Generator: Adobe Illustrator 23.0.6, SVG Export Plug-In . SVG Version: 6.00 Build 0)  -->
<svg version="1.1" baseProfile="tiny" id="Layer_1" xmlns="http://www.w3.org/2000/svg" xmlns:xlink="http://www.w3.org/1999/xlink"
	 x="0px" y="0px" viewBox="0 0 2048 2048" xml:space="preserve">
<g>
	<path fill="#FFFFFF" d="M1679.8,1534.3c71.6-38.5,96.1-101.6,97-176.7c0.4-33-20.4-60.5-52.3-69.8
		c-119.6-35.1-239.5-69.4-359.4-103.7c-55.7-15.9-111.6-31-167.4-46.5c-13.4-3.7-27-6.9-33.9,10.1c-4.8,11.9,2.6,23,22.3,29.4
		c59.2,19.4,118.7,38.2,178.3,56.4c108.6,33.2,217.5,65.7,326.2,98.5c32.2,9.7,44.2,26.9,34.7,58.7c-8.1,26.9-19.9,53.3-34,77.6
		c-8.1,14.1-25.2,23-43.1,20.2c-36.7-5.8-73.2-13.3-109.8-20.2c-5.4-1-11.1-4.5-16.1-3.7c-6.4,1.1-15.1,4-17.4,8.8
		c-2.3,4.6,0.3,14.2,4.2,18.7c5.7,6.4,14,10.9,21.8,15c32.7,16.8,65.3,33.7,98.5,49.5c13.2,6.3,15.9,14.3,6.3,24.1
		c-25,25.2-50.2,50.3-76.8,73.8c-15.3,13.5-32.7,31.3-50.6,33.2c-17.9,2-38-12.7-56.6-21.2c-186.8-85.7-373.5-171.6-560.1-257.5
		c-9-4.2-18.1-8.9-26-14.9c-160.3-122.7-329.2-232.8-501.3-338c-8.4-5.1-16.5-10.7-27.7-18c42.6-9.1,79.2-3.5,115.7,11.4
		c125.7,51.4,251.2,103.7,381.5,142.8c36.8,11.1,73.7,21.7,110.7,32.1c6.9,2,14.6,4.4,21.2,3c6.6-1.4,15.2-6.2,17.3-11.6
		c2.2-5.7-0.3-15.4-4.2-20.8c-3.8-5.3-11.6-8.5-18.3-10.9c-142.3-51.9-284.4-104.2-427.1-154.8c-41.8-14.8-84.8-30.6-128.3-35.1
		c-41.2-4.2-83.9,4.6-125.7,10.1c-17.8,2.3-21.9,17.2-9.7,30.9c9.5,10.7,20.7,20.4,32.6,28.4c65.1,43.8,131.5,85.9,195.9,130.6
		c53.9,37.5,105.8,77.9,158.7,116.9c1.8,1.3,4.1,2,6.1,3c-0.9,1.4-1.8,2.7-2.8,4.1c-22.7-8.1-45.4-16.3-68.1-24.3
		c-43.1-15-86.4-29.4-129.4-45c-10.7-3.9-22-9.4-29.8-17.3c-73.4-74.6-146.9-149.1-218.5-225.5c-19.5-20.8-33-47.4-48.8-71.7
		c-2.8-4.3-3.7-9.8-6.6-18.1c41.5,3.1,79.7,5.2,117.8,8.9c28.2,2.8,56.3,7.6,84.4,11.5c2.2,0.3,4.4,0.6,6.7,0.7
		c16,0.8,27.2-6.5,28.4-19.4c1.4-15-7.1-23.1-20.8-25.5c-32.3-5.7-64.6-11-97-16c-36.9-5.6-73.8-11-110.8-15.8
		c-10.7-1.4-15.1-5.4-11.4-18.1c22.4-1.8,45.5-3.7,68.7-5.4c254.9-18.3,506.3-59.9,756.1-112.9c215.3-45.7,428.6-98.5,637.5-168.3
		c15.8-5.3,31.9-10.2,47.1-17.1c12.7-5.7,20.9-1.9,25.6,9.3c12.7,29.6,27.4,58.8,35.9,89.6c13.1,47.1,21.6,95.4,32.7,145.8
		c-6.4,0-12.1,0.1-17.8,0c-245.6-7-491.1-14.1-736.7-20.9c-18.9-0.5-37.9,0.7-56.7,2.1c-12.2,0.9-21.9,6.6-21.6,20.6
		c0.3,14.1,10.6,19.1,22.5,19.8c28.4,1.7,56.7,2.7,85.1,3.6c158.1,5,316.3,9.3,474.4,14.9c99.6,3.5,199.2,8.4,298.7,14
		c18.6,1,37.3,6.5,55.2,12.4c31.2,10.3,41.4,25.8,41.5,58.6c0,9.4-0.8,18.7-1.3,28.9c-4.3,0.6-7.4,1.5-10.5,1.5
		c-289.7-3.5-579.3-7.4-869-10.3c-98.6-1-197.2,0.7-295.8,1.7c-20,0.2-40,2.4-60,4c-13.1,1.1-24.5,5.4-25.8,20.9
		c-1.1,12.3,9,22.1,24.9,24.2c7.7,1,15.6,0.7,23.4,0.8c225.6,4.2,451.2,7.5,676.7,12.9c186.5,4.5,373,11.5,559.5,17.5
		c20,0.6,40.1,1.1,60.1,3.1c5,0.5,12.6,5.7,13.7,10c9.2,36.7,18.4,73.5,25.3,110.6c5.4,29,0.9,37-28,42c-34.4,6-69.5,7.6-104.3,10.5
		c-12.2,1-24.5,0.5-36.7,0.5c-14.3-0.1-24.4,5.9-25.3,20.7c-0.9,14.6,9.6,21,22.3,22c46.1,3.7,92.2,6.7,138.3,9.6
		c9.9,0.6,19.9,0.1,30.6,0.1c1,5.6,2.2,9.3,2.1,12.9c-0.5,135.4-22.8,266.1-82.1,389.1c-5.1,10.6-10.9,16.6-23.1,18
		c-40.9,4.8-81.7,10.5-122.5,15.8c-5.5,0.7-12,0-16.3,2.8c-8.2,5.3-18.7,11.3-21.6,19.4c-4.2,11.8,2.9,23.8,15.4,27.9
		c29,9.6,58.5,17.8,87.8,26.4c7.3,2.1,14.9,3.6,21.9,5.2c0.2,2.5,0.7,3.7,0.3,4.5c-18,40.7-17.7,39.8-60.2,27.9
		c-63.3-17.7-127-33.6-190.4-51c-18.6-5.1-36.5-12.5-57.8-19.9c8.3-7.3,14-12.3,19.7-17.3c31.6-27.7,60.8-57.3,80.9-94.8
		C1691.5,1579.1,1692.4,1562.7,1679.8,1534.3z"/>
	<path fill="#FFFFFF" d="M414.3,773.7c3.1-3.2,3.9-4.9,5.2-5.4C516.4,728,596.8,662,680.8,601.5c20.8-15,42.4-29.3,61.1-46.6
		c53.1-49.2,121.1-58,187.2-72.4c77.2-16.9,154.7-32.5,231.5-50.8c24-5.7,47.3-16.7,69.2-28.5c27.3-14.6,33.8-32.4,27.8-62.9
		c-2.3-11.5-5-22.9-8-34.1c-3-11.2-6.6-22.2-10.4-34.9c15.4-7.1,29.9-15.9,45.6-20.2c7-1.9,20.1,2.7,24.1,8.6
		c34.3,50.7,67.7,102.1,99.9,154.2c3.1,5-0.6,18-5.5,23.4c-16.6,18.6-35.2,35.5-53.1,53c-4.8,4.7-10.6,8.6-14.1,14.1
		c-2.9,4.4-3.1,10.5-4.5,15.9c5.2,0.4,10.8,2.3,15.4,0.9c18.1-5.3,36.3-10.9,53.9-17.9c16.5-6.6,29.8-4.4,41.2,9.5
		c5.6,6.9,12,13.1,20.5,22.3C1119.2,639.5,772.1,724.3,414.3,773.7z"/>
	<path fill="#FFFFFF" d="M323.7,1215.8c-15.9-1.6-28.9-2.7-41.9-4.2c-38.1-4.5-76.4-7.6-114.1-14.4c-14.3-2.6-29.1-11.5-40.1-21.4
		c-27.5-25-53.6-51.8-79-78.9c-10-10.7-19-23.5-24.8-37c-8.5-19.8-0.2-35.7,19.4-44.2c11.7-5.1,24-9.3,35-15.6
		c10.9-6.3,18-5.3,27.3,3.7C176.9,1073.7,248.8,1143.1,323.7,1215.8z"/>
	<path fill="#FFFFFF" d="M1198.3,291.3c3.4,20.4,7.6,38.3,8.7,56.4c0.4,5.6-6.1,14.6-11.7,17.2c-21.1,9.7-42.6,19.8-65,25.5
		c-69.9,18.1-140.2,34.3-210.4,51.1c-3.1,0.7-6.5,0.5-10.4-0.9C1000.2,382.6,1098.7,339.8,1198.3,291.3z"/>
</g>
</svg>
