<?xml version="1.0" encoding="utf-8"?>
<!-- Generator: Adobe Illustrator 23.0.6, SVG Export Plug-In . SVG Version: 6.00 Build 0)  -->
<svg version="1.1" baseProfile="tiny" id="Layer_1" xmlns="http://www.w3.org/2000/svg" xmlns:xlink="http://www.w3.org/1999/xlink"
	 x="0px" y="0px" viewBox="0 0 2048 2048" xml:space="preserve">
<g>
	<path fill="#FFFFFF" d="M1244.5,532.6h-135.2v-432H938.7v432H803.5c-7.8,0-12.4,8.7-8,15.2l109,158.6L1016,868.5
		c3.8,5.6,12.1,5.6,15.9,0l111.5-162.2l109-158.6C1256.9,541.3,1252.3,532.6,1244.5,532.6z"/>
	<g>
		<g>
			<polygon fill="#FFFFFF" points="1049.3,1146.4 1049.3,1947.4 1795.5,1621.9 1795.5,1171.3 1251.8,1403.3 			"/>
			<polygon fill="#FFFFFF" points="1269.3,1341.3 2021.3,1020.4 1795.5,779.3 1049.3,1059.8 			"/>
			<polygon fill="#FFFFFF" points="1310.4,556.5 1257.5,633.5 1617.4,769.6 1737.5,723.2 			"/>
		</g>
		<g>
			<polygon fill="#FFFFFF" points="998.7,1146.4 998.7,1947.4 252.5,1621.9 252.5,1171.3 796.2,1403.3 			"/>
			<polygon fill="#FFFFFF" points="778.7,1341.3 26.7,1020.4 252.5,779.3 998.7,1059.8 			"/>
			<polygon fill="#FFFFFF" points="737.6,556.5 790.5,633.5 430.6,769.6 310.5,723.2 			"/>
		</g>
	</g>
</g>
</svg>
