<?xml version="1.0" encoding="utf-8"?>
<!-- Generator: Adobe Illustrator 29.8.3, SVG Export Plug-In . SVG Version: 9.03 Build 0)  -->
<svg version="1.1" baseProfile="tiny" id="Layer_1" xmlns="http://www.w3.org/2000/svg" xmlns:xlink="http://www.w3.org/1999/xlink"
	 x="0px" y="0px" viewBox="0 0 15.13 14.27" overflow="visible" xml:space="preserve">
<path fill="#FFFFFF" d="M4.91,0.92l3.55-0.91L3.57,6.47C3.53,6.52,3.48,6.57,3.42,6.6L0.3,8.63L4.91,0.92z M9.19,14.27L3,13.8
	c-0.11-0.01-0.21-0.07-0.27-0.16c-0.42-0.57-2.2-2.81-2.68-3.46C-0.03,10.08,0,9.94,0.1,9.88c0.66-0.39,2.82-1.65,3.54-2.07
	C3.72,7.77,3.82,7.76,3.9,7.8c1.33,0.65,4.85,2.44,5.22,2.62c0.11,0.06,0.18,0.1,0.2,0.31l0.13,3.3
	C9.46,14.17,9.33,14.29,9.19,14.27z M9.58,9.38L5.02,7.07C4.84,6.99,4.79,6.77,4.9,6.61l4.61-6.45C9.6,0.03,9.76-0.03,9.92,0.01
	l2.41,0.61c0.12,0.03,0.21,0.11,0.26,0.22l0.9,1.98c0.05,0.13,0.03,0.35,0.01,0.54l-0.57,3.82c-0.02,0.11-0.08,0.2-0.16,0.26
	l-2.8,1.91C9.86,9.44,9.71,9.45,9.58,9.38z M12.48,13.14l-1.79,0.93c-0.08,0.04-0.17-0.01-0.17-0.1l-0.12-3.38
	c-0.01-0.13,0.07-0.29,0.15-0.35l2.57-1.8c0.14-0.1,0.17-0.1,0.31,0l1.06,0.7c0.09,0.06,0.12,0.18,0.07,0.28L12.48,13.14z
	 M14.89,8.19C14.6,8,14.32,7.8,14.04,7.61c-0.08-0.06-0.13-0.16-0.11-0.26c0.09-0.63,0.41-2.88,0.41-2.88
	c0.25,0.82,0.75,3.21,0.8,3.61C15.15,8.2,14.99,8.26,14.89,8.19z"/>
</svg>
