<?xml version="1.0" encoding="utf-8"?>
<!-- Generator: Adobe Illustrator 23.0.6, SVG Export Plug-In . SVG Version: 6.00 Build 0)  -->
<svg version="1.1" baseProfile="tiny" id="Layer_1" xmlns="http://www.w3.org/2000/svg" xmlns:xlink="http://www.w3.org/1999/xlink"
	 x="0px" y="0px" viewBox="0 0 2048 2048" xml:space="preserve">
<g>
	
		<rect x="451" y="1170.9" transform="matrix(0.8445 0.5356 -0.5356 0.8445 839.4459 -339.0165)" fill="#FFFFFF" width="1104.8" height="209.9"/>
	
		<rect x="43.3" y="707.5" transform="matrix(0.8445 0.5356 -0.5356 0.8445 477.625 -19.805)" fill="#FFFFFF" width="459.3" height="209.9"/>
	<path fill="#FFFFFF" d="M1594.6,494.3c-22.5,47.6-62.9,89.6-60.5,141.6c1.5,32.2,19.8,61,38.8,87.1
		c58.7,80.7,129.5,150.4,199.8,220.8c57.8,57.9,111.4,125.1,131.6,206c21.4,85.8-1.4,163.3-44.2,237.4
		c-26.6,46.1-54,101.6-88.5,142.1c-2.9,3.4-6.7,6.9-11,6c-4.8-1-6.7-6.7-7.5-11.5c-7.5-46.5,12.8-92.5,22.6-137.1
		c6.6-30,19.3-58.6,28.2-88.2c23.1-76.9,1.8-145.5-49.4-202.3c-43.7-48.5-93.8-91.5-143.2-134.4c-58.3-50.6-122.1-96-166.3-160.3
		c-24.1-35.1-44.8-74.4-58-114.8c-21.8-66.7-2-124.8,53.1-169.6c12-9.7,24.5-18.9,36.4-28.7c85.9-71.1,40-154.6,1.2-237.3
		c-4-8.5-8-18.4-4.2-27c4.4-9.9,17.8-12.9,27.9-9.4c10.2,3.6,17.8,12,24.9,20.2c28.8,33.7,55,70.5,70.5,112.1s19.7,88.5,4.8,130.3
		C1599.6,483.1,1597.2,488.7,1594.6,494.3z"/>
	<path fill="#FFFFFF" d="M1845.1,414.2c78.5,33.6,131.3,130.6,164.4,202.8c16.1,35,24.2,88.5,2.5,120.3
		c-17.6,25.7-51.1,33.8-79.5,46.8c-28.4,13-56.7,41.7-46.7,71.2c3.4,9.8,10.6,17.9,14.9,27.4c4.3,9.5,4.6,22.4-3.8,28.5
		c-40.7-40-87.9-98.3-101.1-155.5c-4.2-18-2.3-38.4,9.4-52.8c20.2-25,58-25.8,77.4-52.6c39.1-54.4-41.1-155.2-66.1-201.1
		c-6.1-11.2-11.6-26.6-2.2-35.3c7.1-6.6,18.6-4.5,27.6-0.9C1842.9,413.2,1844,413.7,1845.1,414.2z"/>
	
		<rect x="1525" y="1534" transform="matrix(0.8445 0.5356 -0.5356 0.8445 1122.9811 -589.1614)" fill="#FFFFFF" width="101.8" height="209.9"/>
	
		<rect x="1650.9" y="1613.8" transform="matrix(0.8445 0.5356 -0.5356 0.8445 1185.3435 -644.1798)" fill="#FFFFFF" width="101.8" height="209.9"/>
</g>
</svg>
