<?xml version="1.0" encoding="utf-8"?>
<!-- Generator: Adobe Illustrator 22.0.1, SVG Export Plug-In . SVG Version: 6.00 Build 0)  -->
<svg version="1.1" baseProfile="tiny" id="Layer_2" xmlns="http://www.w3.org/2000/svg" xmlns:xlink="http://www.w3.org/1999/xlink"
	 x="0px" y="0px" viewBox="0 0 2048 2048" xml:space="preserve">
<g>
	<polygon fill="#FFFFFF" points="1369.8,227.2 1498.6,227.2 1498.6,353.9 1568.9,353.9 1568.9,42.8 1498.6,42.8 1498.6,166.9 
		1369.8,166.9 1369.8,42.8 1299.7,42.8 1299.7,353.9 1369.8,353.9 	"/>
	<path fill="#FFFFFF" d="M1621.5,308.4c0,32.7,15.7,49,47.2,49c13.3,0,23.2-1.7,29.8-5.2v-33.1c-5,2.7-9.8,4.1-14.6,4.1
		c-12,0-17.9-7.5-17.9-22.6v-58.5h32.5v-32.9H1666v-43.9l-44.5,12.7v31.2h-23.5v32.9h23.5V308.4z"/>
	<path fill="#FFFFFF" d="M1787.7,357.4c21.4,0,38.8-3.6,52.1-10.7v-32.2c-12.1,7.5-26,11.3-42,11.3c-25,0-38.2-10.5-39.7-31.5h94.4
		v-18.8c0-21.5-5.8-38.5-17.3-51c-11.5-12.5-27.9-18.8-49-18.8c-20.3,0-37.5,7-51.4,21.1c-13.9,14-20.9,33.1-20.9,57.1
		c0,23.2,6.5,41.2,19.4,54.2C1746.2,350.9,1764.3,357.4,1787.7,357.4z M1767.4,244.7c5.2-5.9,11.4-8.9,18.6-8.9
		c16.8,0,25.2,10.4,25.2,31.1h-53.3C1759,258,1762.2,250.6,1767.4,244.7z"/>
	<polygon fill="#FFFFFF" points="37.7,595.7 7.3,999 204.9,852.9 	"/>
	<polygon fill="#FFFFFF" points="768.5,731.8 386.4,92.5 268.6,827.9 	"/>
	<polygon fill="#FFFFFF" points="860.3,359.2 437,80.4 796.3,681.4 	"/>
	<polygon fill="#FFFFFF" points="334.8,100 45.1,516 224.1,791.4 	"/>
	<polygon fill="#FFFFFF" points="1074.6,793.7 896.8,430.5 837,731.4 	"/>
	<polygon fill="#FFFFFF" points="337.3,1184.7 227,898.4 8.4,1059.9 182.7,1401.1 	"/>
	<polygon fill="#FFFFFF" points="272.3,877.8 371.9,1136.3 391.6,1108.8 785.2,916.1 783.6,779.5 	"/>
	<polygon fill="#FFFFFF" points="834.6,891.9 870.5,874.3 1092.1,894.9 1096.2,850.7 833.3,781.8 	"/>
	<polygon fill="#FFFFFF" points="640.7,2011.7 1044,2042.1 898,1844.5 	"/>
	<polygon fill="#FFFFFF" points="943.4,1822.4 1104.9,2041 1757.2,1707.7 1595.7,1571.1 	"/>
	<polygon fill="#FFFFFF" points="776.8,1280.9 137.5,1663 872.9,1780.8 	"/>
	<polygon fill="#FFFFFF" points="1572.2,1526.9 1520.4,1257.3 824.5,1265.8 922.8,1777.1 	"/>
	<polygon fill="#FFFFFF" points="404.2,1189.1 125.4,1612.4 726.4,1253.1 	"/>
	<polygon fill="#FFFFFF" points="1793.8,1673.7 1946.7,1374.7 1643.7,1546.6 	"/>
	<polygon fill="#FFFFFF" points="145.1,1714.6 561,2004.3 836.4,1825.3 	"/>
	<polygon fill="#FFFFFF" points="1618.4,1503.9 1953.3,1313.8 1571.8,1261.6 1585.9,1335 	"/>
	<polygon fill="#FFFFFF" points="838.7,974.8 475.5,1152.6 776.4,1212.4 	"/>
	<polygon fill="#FFFFFF" points="826.8,1216.1 1525.8,1207.6 1625.1,1020.8 895.7,953.2 	"/>
	<polygon fill="#FFFFFF" points="1579.5,1212.5 1924.5,1259.8 1671.8,1038.8 	"/>
	<polygon fill="#FFFFFF" points="1429.1,512 1271.9,646 1400,668.6 	"/>
	<polygon fill="#FFFFFF" points="1458.7,695.4 1707,867.1 1800.8,452.2 	"/>
	<polygon fill="#FFFFFF" points="1757.5,854.1 1903.8,758.6 1840.8,486.3 	"/>
	<polygon fill="#FFFFFF" points="1452,642.7 1755.6,426.8 1484.5,468.2 	"/>
	<polygon fill="#FFFFFF" points="1884.7,827 1753.3,912.8 1821.3,1025.9 	"/>
	<polygon fill="#FFFFFF" points="1385.9,712.6 1234.5,685.9 1169.5,903.1 1300.3,915.7 	"/>
	<polygon fill="#FFFFFF" points="1349,920.4 1646.6,949 1686.6,908.1 1429.2,730 	"/>
	<polygon fill="#FFFFFF" points="1691.7,970 1797.4,1074.1 1718.3,942.7 	"/>
</g>
</svg>
