<?xml version="1.0" encoding="utf-8"?>
<!-- Generator: Adobe Illustrator 28.2.0, SVG Export Plug-In . SVG Version: 6.00 Build 0)  -->
<svg version="1.1" baseProfile="tiny" id="Layer_1" xmlns="http://www.w3.org/2000/svg" xmlns:xlink="http://www.w3.org/1999/xlink"
	 x="0px" y="0px" viewBox="0 0 90 90" overflow="visible" xml:space="preserve">
<path id="colorstyle:Bright_00000106836477264158284470000005011072273646282409_" d="M68,9.9h-6.6l-0.7,3H29.3l-0.7-3H22L3.1,25.7
	v38.7L22,80.1h6.6l0.7-3h31.4l0.7,3H68l18.9-15.7V25.7L68,9.9z M17,69l-9.8-7.9V28.9L17,21V69z M32.1,70.8c0.3-0.3,9.5-23,9.5-23
	H27.2l13.6-25.5h19.6L48.7,40.4h14.3C62.9,40.4,31.8,71.1,32.1,70.8z M82.8,61.1L73,69V21l9.8,7.9V61.1z"/>
</svg>
