<?xml version="1.0" encoding="utf-8"?>
<!-- Generator: Adobe Illustrator 23.0.6, SVG Export Plug-In . SVG Version: 6.00 Build 0)  -->
<svg version="1.1" baseProfile="tiny" id="Layer_1" xmlns="http://www.w3.org/2000/svg" xmlns:xlink="http://www.w3.org/1999/xlink"
	 x="0px" y="0px" viewBox="0 0 2048 2048" xml:space="preserve">
<g>
	<g>
		<path fill="#FFFFFF" d="M1686.71,198.44h-110.76v77.05h101.79v57.35h-101.79v121.92h-70.69V140.88h181.45V198.44z"/>
		<path fill="#FFFFFF" d="M1765.06,405.28c0,6.18,1.47,10.86,4.42,14.05c2.95,3.18,6.89,4.78,11.84,4.78c2.47,0,4.94-0.24,7.41-0.71
			c2.47-0.48,4.94-0.95,7.42-1.43v31.66c-5.42,1.43-11.15,2.59-17.18,3.49c-6.04,0.9-12.33,1.35-18.89,1.35
			c-5.99,0-11.43-1-16.33-2.99s-9.08-4.87-12.55-8.63s-6.16-8.29-8.06-13.62c-1.9-5.32-2.85-11.31-2.85-17.97V238.58h44.78V405.28z"
			/>
		<path fill="#FFFFFF" d="M1953.86,454.76h-44.92v-22.24h-0.71c-11.12,17.21-26,25.81-44.63,25.81c-33.84,0-50.76-20.49-50.76-61.46
			v-88.12h44.92v84.13c0,20.63,8.18,30.94,24.53,30.94c8.08,0,14.54-2.83,19.39-8.48s7.27-13.33,7.27-23.03v-83.56h44.92V454.76z"/>
	</g>
	<path fill="#FFFFFF" d="M1770.45,904.34c-125.75,0-230.26,90.62-251.99,210.1h-273.49c-11.08-75.84-45.79-148.89-104.15-207.26
		c-58.36-58.36-131.42-93.07-207.26-104.15V529.54c119.48-21.73,210.09-126.24,210.09-251.99c0-141.5-114.71-256.21-256.21-256.21
		c-141.5,0-256.21,114.71-256.21,256.21c0,125.75,90.62,230.26,210.09,251.99V801.2c-81.17,8.49-160.07,43.78-222.28,105.98
		c-133.03,133.03-143.13,342.32-30.51,487.06l-165.42,165.42c-99.85-69.12-237.83-59.29-326.75,29.63
		c-100.06,100.06-100.06,262.28,0,362.34s262.28,100.06,362.34,0c88.92-88.92,98.74-226.9,29.63-326.75l165.42-165.42
		c144.74,112.62,354.03,102.52,487.06-30.51c62.21-62.21,97.49-141.1,105.98-222.28h271.66
		c21.73,119.48,126.24,210.09,251.99,210.09c141.5,0,256.21-114.71,256.21-256.21C2026.67,1019.05,1911.96,904.34,1770.45,904.34z"
		/>
</g>
</svg>
