<?xml version="1.0" encoding="utf-8"?>
<!-- Generator: Adobe Illustrator 23.0.6, SVG Export Plug-In . SVG Version: 6.00 Build 0)  -->
<svg version="1.1" baseProfile="tiny" id="Layer_1" xmlns="http://www.w3.org/2000/svg" xmlns:xlink="http://www.w3.org/1999/xlink"
	 x="0px" y="0px" viewBox="0 0 2048 2048" xml:space="preserve">
<g>
	<path fill="#FFFFFF" d="M1451.3,720l454.3,119.4c125.1,41.5,173-104.5,47.7-146c-262.1-87-513-206.3-775.2-293.3
		c-17.4,2.4-34.8,4.7-52.2,7c-7.5,11.6-15,22.2-23.2,33c-11.3,15.1-23.2,29.8-36,43.7c-25.3,28-53.1,53.9-83.8,76.3
		c-31.2,21.7-64.6,40.6-100.5,52.9c-36.2,11.7-74.4,16-110.7,11.9c36-8.1,68.7-21,98.9-38.1c29.5-18.5,56.9-39.5,81.6-63.6
		c24.8-24,47.2-50.4,68.3-77.8c20.6-27.3,40.7-57.1,56.5-85.4l7.9-14.1l16.5-2.7c27.4-4.5,54.8-8.7,82.3-12.7
		c59-8.5,116.7-26.1,168.5-55.6c157.4-89.6,99.1-179.9,99.1-179.9c-107.9,0.1-825.8,49.6-825.8,49.6L21.3,380.8v575.2l281.2,52.6
		l272.6,113.5l251.3,150.4l1.8-1.1c0,0,161.4,190,220.4,295.5c64.2,114.9,198.5,60.7,134-54.7c-57.3-102.5-109-221.2-166.3-323.6
		c-9-16.2-4.1-36.6,11.2-47c3-2,6-4.1,9-6.1c13.1-9,30.6-8.2,43,1.6c155.8,123.6,317.2,231,473,354.6
		c103.4,82,205.3-56.7,102.7-138.1c-131.4-104.2-289.5-235.8-420.9-340.1c-18.3-14.5-18.1-42.3,0.3-56.6l0.6-0.5
		c11.4-8.9,27.1-10.1,39.8-3l574,295c114.5,64,201.6-79.3,86.5-143.7c-128-71.6-420.4-247.5-517.6-306.2
		c-18.4-11.1-25.8-34.1-17.3-53.9C1409.2,725.1,1430.7,714.6,1451.3,720z"/>
	<path fill="#FFFFFF" d="M649.6,1656.7H531.9v-376.2H383.3v376.2H265.5c-6.8,0-10.8,7.6-6.9,13.2l94.9,138.1l97.1,141.2
		c3.3,4.9,10.5,4.9,13.9,0l97.1-141.2l94.9-138.1C660.4,1664.3,656.4,1656.7,649.6,1656.7z"/>
</g>
</svg>
