<?xml version="1.0" encoding="utf-8"?>
<!-- Generator: Adobe Illustrator 23.0.6, SVG Export Plug-In . SVG Version: 6.00 Build 0)  -->
<svg version="1.1" baseProfile="tiny" id="Layer_1" xmlns="http://www.w3.org/2000/svg" xmlns:xlink="http://www.w3.org/1999/xlink"
	 x="0px" y="0px" viewBox="0 0 2048 2048" xml:space="preserve">
<g>
	<path fill="#FFFFFF" stroke="#FFFFFF" stroke-width="2" stroke-miterlimit="10" d="M787.2,610.4c-369.4,0-668.9,299.5-668.9,668.9
		c0,369.4,299.5,668.9,668.9,668.9s668.9-299.5,668.9-668.9C1456.1,909.9,1156.7,610.4,787.2,610.4z M1071.3,1032.8
		c60.5,0,109.6,49.1,109.6,109.6c0,60.5-49.1,109.6-109.6,109.6c-60.5,0-109.6-49.1-109.6-109.6
		C961.7,1081.9,1010.8,1032.8,1071.3,1032.8z M503.2,1032.8c60.5,0,109.6,49.1,109.6,109.6c0,60.5-49.1,109.6-109.6,109.6
		c-60.5,0-109.6-49.1-109.6-109.6C393.6,1081.9,442.6,1032.8,503.2,1032.8z M1187.7,1404.2c-34.6,194-203,334.9-400.5,334.9
		c-197.4,0-365.8-140.8-400.5-334.9l-1.9-10.5h71.1l1.5,7.1c32.6,151.8,171.3,262.1,329.8,262.1s297.2-110.2,329.8-262.1l1.5-7.1
		h71.1L1187.7,1404.2z"/>
	<path fill="#FFFFFF" d="M787.2,2034.6c-416.4,0-755.2-338.8-755.2-755.2s338.8-755.2,755.2-755.2s755.2,338.8,755.2,755.2
		S1203.7,2034.6,787.2,2034.6z M787.2,560c-396.7,0-719.4,322.7-719.4,719.4s322.7,719.4,719.4,719.4s719.4-322.7,719.4-719.4
		S1183.9,560,787.2,560z"/>
	<g>
		<path fill="#FFFFFF" d="M2016,759.6c0-412.1-334.1-746.2-746.2-746.2c-322.5,0-597.2,204.6-701.4,491
			c75.5-24.2,155.9-37.3,239.3-37.3c432.9,0,785.1,352.2,785.1,785.1c0,65.8-8.2,129.8-23.5,190.9
			C1832.3,1327.8,2016,1065.2,2016,759.6z"/>
	</g>
</g>
</svg>
