<?xml version="1.0" encoding="utf-8"?>
<!-- Generator: Adobe Illustrator 28.2.0, SVG Export Plug-In . SVG Version: 6.00 Build 0)  -->
<svg version="1.1" baseProfile="tiny" id="Layer_1" xmlns="http://www.w3.org/2000/svg" xmlns:xlink="http://www.w3.org/1999/xlink"
	 x="0px" y="0px" viewBox="0 0 90 90" overflow="visible" xml:space="preserve">
<g>
	<path d="M32.4,69.3l8.6-8.1c0.8-0.7,0.3-2-0.8-2H23c-1,0-1.5,1.3-0.8,2l8.6,8.1C31.3,69.7,32,69.7,32.4,69.3z"/>
	<path d="M32.9,22.4h-2.6c-0.3,0-0.6,0.3-0.6,0.6v31.2c0,0.3,0.3,0.6,0.6,0.6h2.6c0.3,0,0.6-0.3,0.6-0.6V23
		C33.5,22.7,33.3,22.4,32.9,22.4z"/>
	<path d="M57.6,20.7L49,28.8c-0.8,0.7-0.3,2,0.8,2H67c1,0,1.5-1.3,0.8-2l-8.6-8.1C58.7,20.3,58,20.3,57.6,20.7z"/>
	<path d="M57.1,67.6h2.6c0.3,0,0.6-0.3,0.6-0.6V35.8c0-0.3-0.3-0.6-0.6-0.6h-2.6c-0.3,0-0.6,0.3-0.6,0.6V67
		C56.5,67.3,56.7,67.6,57.1,67.6z"/>
</g>
</svg>
