<?xml version="1.0" encoding="utf-8"?>
<!-- Generator: Adobe Illustrator 26.0.1, SVG Export Plug-In . SVG Version: 6.00 Build 0)  -->
<svg version="1.1" baseProfile="tiny" id="Layer_1" xmlns="http://www.w3.org/2000/svg" xmlns:xlink="http://www.w3.org/1999/xlink"
	 x="0px" y="0px" viewBox="0 0 2048 2048" overflow="visible" xml:space="preserve">
<g>
	<path fill="#FFFFFF" d="M498.7,1814.3l174.6,154.9h714.6l174.6-154.9l151.7-1265.2H346.9L498.7,1814.3z M1454.5,1757.8l-109.9,97.5
		h-628l-109.9-97.5L475.4,663.1h1110.3L1454.5,1757.8z"/>
	<polygon fill="#FFFFFF" points="850.5,222.8 1155.5,196.4 1200.9,234.6 1274.2,147.3 1192.7,78.8 793.6,113.3 725,194.8 
		812.3,268.2 	"/>
	<polygon fill="#FFFFFF" points="1723.5,227.9 296.3,351.5 147.7,528.3 235,601.6 353.2,461 1686.3,345.6 1826.9,463.8 
		1900.3,376.5 	"/>
	<rect x="822.2" y="905.9" fill="#FFFFFF" width="114" height="706.5"/>
	<rect x="1139.1" y="905.9" fill="#FFFFFF" width="114" height="706.5"/>
</g>
</svg>
