<?xml version="1.0" encoding="utf-8"?>
<!-- Generator: Adobe Illustrator 28.2.0, SVG Export Plug-In . SVG Version: 6.00 Build 0)  -->
<svg version="1.1" baseProfile="tiny" id="Layer_1" xmlns="http://www.w3.org/2000/svg" xmlns:xlink="http://www.w3.org/1999/xlink"
	 x="0px" y="0px" viewBox="0 0 90 90" overflow="visible" xml:space="preserve">
<path id="colorstyle:Bright_00000012456937143886357330000017953603009550148500_" d="M74.8,35.4c-1.2,0.5-2.2,0.9-3.3,1.4
	c-0.2-0.3-0.4-0.6-0.6-0.9c-1.3-1.7-2.5-3.5-3.9-5.1c-1.6-1.8-2.7-3.6-3.6-6c-1.3-3.1-5.8-9.9-6.2-10.5c-2.5,3.1-3,11.2-1.6,16.4
	c1.6,6.1,2.9,12.1,3,18.4c0.1,5-0.3,10.1,0.8,15c0.4,1.6,0.6,3.3,1.1,4.9c2.3,7,1,12.9,2.4,20.5c-1.9,0.2-3.7,0.4-5.5,0.5
	c-0.1-0.8-0.5-5.7-2.1-8.8c-2.8-5.3-3.2-7.5-3.2-11.6c0.2-3.9-0.5-7.5-2.3-11c-2-4-4.3-11.2-4.8-13.5c-0.6,2.4-2.8,9.6-4.8,13.5
	c-1.8,3.5-2.5,7.1-2.3,11c0,4-0.3,6.3-3.2,11.6c-1.5,3-2,8-2.1,8.8c-1.9-0.2-3.7-0.4-5.5-0.5c1.4-7.6,0-13.5,2.4-20.5
	c0.5-1.6,0.7-3.3,1.1-4.9c1.2-5,0.8-10,0.8-15c0.1-6.2,1.4-12.3,3-18.4c1.4-5.2,0.9-13.3-1.6-16.4c-0.3,0.6-4.9,7.5-6.2,10.5
	c-1,2.4-2.1,4.1-3.6,6c-1.4,1.6-2.6,3.4-3.9,5.1c-0.2,0.3-0.4,0.6-0.6,0.9c-1.1-0.5-2.1-0.9-3.3-1.4c2.2-5.6,3.5-11,5.6-13.5
	c1.1-1.5,5.1-9.1,5.8-13.6c0.2-1.1,1.7-4.3,5.8-5.3c2.2-0.5,4.4-1.7,6.4-2.7c0.5-0.3,1-0.3,1.5,0c1.4,1,3.1,1.5,4.8,1.5
	c1.7,0,3.4-0.5,4.8-1.5c0.5-0.4,0.9-0.3,1.5,0c1.9,1.1,4.1,2.2,6.4,2.7c4,1,5.6,4.1,5.8,5.3c0.7,4.6,4.8,12.2,5.8,13.6
	C71.3,24.3,72.6,29.8,74.8,35.4z"/>
</svg>
