<?xml version="1.0" encoding="utf-8"?>
<!-- Generator: Adobe Illustrator 22.0.1, SVG Export Plug-In . SVG Version: 6.00 Build 0)  -->
<svg version="1.1" baseProfile="tiny" id="Layer_2_1_"
	 xmlns="http://www.w3.org/2000/svg" xmlns:xlink="http://www.w3.org/1999/xlink" x="0px" y="0px" viewBox="0 0 2048 2048"
	 xml:space="preserve">
<path fill="#FFFFFF" d="M1763.4,37H288.4C153.5,37,43.7,146.8,43.7,281.7v1457.9c0,134.9,109.8,244.7,244.7,244.7h1474.9
	c134.9,0,244.7-109.8,244.7-244.7V281.7C2008.1,146.8,1898.3,37,1763.4,37z M1929,281.7v506.8h-670.4V116.1h504.8
	C1854.7,116.1,1929,190.4,1929,281.7z M288.4,116.1h510.2v672.4H122.8V281.7C122.8,190.4,197.1,116.1,288.4,116.1z M122.8,1739.6
	v-491.1h675.8v656.8H288.4C197.1,1905.2,122.8,1830.9,122.8,1739.6z M1763.4,1905.2h-504.8v-656.8H1929v491.1
	C1929,1830.9,1854.7,1905.2,1763.4,1905.2z"/>
</svg>
