<?xml version="1.0" encoding="utf-8"?>
<!-- Generator: Adobe Illustrator 23.0.6, SVG Export Plug-In . SVG Version: 6.00 Build 0)  -->
<svg version="1.1" baseProfile="tiny" id="Layer_1" xmlns="http://www.w3.org/2000/svg" xmlns:xlink="http://www.w3.org/1999/xlink"
	 x="0px" y="0px" viewBox="0 0 2048 2048" xml:space="preserve">
<g>
	<g>
		<path fill="#FFFFFF" d="M1575.94,454.76h-70.69V140.88h70.69V454.76z"/>
		<path fill="#FFFFFF" d="M1699.96,458.32c-24.34,0-43.47-6.82-57.39-20.46c-13.93-13.64-20.89-32.16-20.89-55.54
			c0-24.15,7.22-43.04,21.67-56.68c14.45-13.64,33.99-20.46,58.61-20.46c24.24,0,43.25,6.82,57.04,20.46
			c13.78,13.64,20.68,31.68,20.68,54.11c0,24.24-7.11,43.4-21.32,57.47C1744.14,451.29,1724.67,458.32,1699.96,458.32z
			 M1701.1,339.68c-10.65,0-18.92,3.66-24.81,10.98c-5.89,7.32-8.84,17.68-8.84,31.09c0,28.04,11.31,42.07,33.94,42.07
			c21.58,0,32.37-14.4,32.37-43.21C1733.75,353.32,1722.87,339.68,1701.1,339.68z"/>
		<path fill="#FFFFFF" d="M1951.78,454.76h-45.06v-20.11h-0.57c-10.27,15.78-25.33,23.67-45.2,23.67
			c-18.25,0-32.94-6.44-44.06-19.32s-16.68-30.87-16.68-53.97c0-24.15,6.13-43.49,18.39-58.04c12.26-14.54,28.33-21.82,48.2-21.82
			c18.82,0,31.94,6.75,39.36,20.25h0.57v-86.84h45.06V454.76z M1907.57,383.74v-10.98c0-9.51-2.76-17.4-8.27-23.67
			c-5.51-6.27-12.69-9.41-21.53-9.41c-9.98,0-17.78,3.92-23.39,11.76s-8.41,18.61-8.41,32.3c0,12.83,2.71,22.72,8.13,29.66
			c5.42,6.94,12.93,10.41,22.53,10.41c9.13,0,16.56-3.66,22.32-10.98C1904.7,405.51,1907.57,395.82,1907.57,383.74z"/>
	</g>
	<path fill="#FFFFFF" d="M1770.45,904.34c-125.75,0-230.26,90.62-251.99,210.1h-273.49c-11.08-75.84-45.79-148.89-104.15-207.26
		c-58.36-58.36-131.42-93.07-207.26-104.15V529.54c119.48-21.73,210.09-126.24,210.09-251.99c0-141.5-114.71-256.21-256.21-256.21
		c-141.5,0-256.21,114.71-256.21,256.21c0,125.75,90.62,230.26,210.09,251.99V801.2c-81.17,8.49-160.07,43.78-222.28,105.98
		c-133.03,133.03-143.13,342.32-30.51,487.06l-165.42,165.42c-99.85-69.12-237.83-59.29-326.75,29.63
		c-100.06,100.06-100.06,262.28,0,362.34s262.28,100.06,362.34,0c88.92-88.92,98.74-226.9,29.63-326.75l165.42-165.42
		c144.74,112.62,354.03,102.52,487.06-30.51c62.21-62.21,97.49-141.1,105.98-222.28h271.66
		c21.73,119.48,126.24,210.09,251.99,210.09c141.5,0,256.21-114.71,256.21-256.21C2026.67,1019.05,1911.96,904.34,1770.45,904.34z"
		/>
</g>
</svg>
