<?xml version="1.0" encoding="utf-8"?>
<!-- Generator: Adobe Illustrator 23.0.6, SVG Export Plug-In . SVG Version: 6.00 Build 0)  -->
<svg version="1.1" baseProfile="tiny" id="Layer_1" xmlns="http://www.w3.org/2000/svg" xmlns:xlink="http://www.w3.org/1999/xlink"
	 x="0px" y="0px" viewBox="0 0 2048 2048" xml:space="preserve">
<g>
	<g>
		<rect x="268.06" y="1221.59" fill="#FFFFFF" width="1024.08" height="91.27"/>
		<g>
			<path fill="#FFFFFF" d="M1061.31,478.72V190.39h-99.94v63.96H598.82v-63.96h-99.94v288.32
				C370.01,490.11,268.06,599.1,268.06,730.8v449.34h1024.08V730.8C1292.13,599.1,1190.18,490.11,1061.31,478.72z M780.1,463.18
				c-15.12,0-27.42-12.31-27.42-27.43s12.3-27.42,27.42-27.42s27.42,12.3,27.42,27.42S795.22,463.18,780.1,463.18z M926.54,477.67
				H813.41c12.34-9.83,20.29-24.95,20.29-41.92c0-16.06-7.14-30.46-18.36-40.29h49.11v-34.9H695.75v34.9h49.11
				c-11.23,9.83-18.36,24.23-18.36,40.29c0,16.97,7.95,32.1,20.29,41.92H633.65V306.7h292.88V477.67z"/>
			<path fill="#FFFFFF" d="M268.06,1691.9c0,133.27,104.39,243.26,235.43,252.44v34.33h-82.47v42.66h718.16v-42.66h-82.47v-34.33
				c131.04-9.17,235.43-119.17,235.43-252.44v-337.59H268.06V1691.9z"/>
		</g>
	</g>
	<g>
		<path fill="#FFFFFF" d="M1490.1,285.09h-58.39V179.85h-107.05v105.24h-58.21V26.67h58.21v103.08h107.05V26.67h58.39V285.09z"/>
		<path fill="#FFFFFF" d="M1649.74,164.87l-48.84,129.85c-11.74,31.23-29.43,46.84-53.07,46.84c-9,0-16.4-1.02-22.19-3.05v-29.59
			c4.93,2.9,10.29,4.34,16.08,4.34c9.55,0,16.2-4.5,19.96-13.5l6.34-14.91l-48.84-119.99h41.09l22.42,73.14
			c1.41,4.54,2.5,9.9,3.29,16.08h0.47c0.7-4.54,2-9.82,3.87-15.85l22.66-73.38H1649.74z"/>
		<path fill="#FFFFFF" d="M1779.94,285.09h-37.1v-16.55h-0.47c-8.45,12.99-20.86,19.49-37.22,19.49c-15.03,0-27.12-5.3-36.28-15.91
			c-9.16-10.61-13.74-25.42-13.74-44.44c0-19.88,5.05-35.81,15.15-47.78c10.1-11.98,23.32-17.96,39.68-17.96
			c15.5,0,26.3,5.56,32.4,16.67h0.47v-71.5h37.1V285.09z M1743.55,226.62v-9.04c0-7.83-2.27-14.32-6.81-19.49
			c-4.54-5.17-10.45-7.75-17.73-7.75c-8.22,0-14.64,3.23-19.25,9.69c-4.62,6.46-6.93,15.32-6.93,26.59
			c0,10.57,2.23,18.71,6.69,24.42c4.46,5.71,10.64,8.57,18.55,8.57c7.51,0,13.64-3.01,18.37-9.04
			C1741.18,244.55,1743.55,236.56,1743.55,226.62z"/>
	</g>
</g>
</svg>
