<?xml version="1.0" encoding="utf-8"?>
<!-- Generator: Adobe Illustrator 25.4.1, SVG Export Plug-In . SVG Version: 6.00 Build 0)  -->
<svg version="1.1" id="Layer_1" xmlns="http://www.w3.org/2000/svg" xmlns:xlink="http://www.w3.org/1999/xlink" x="0px" y="0px"
	 viewBox="0 0 2048 2048" style="enable-background:new 0 0 2048 2048;" xml:space="preserve">
<g>
	<path d="M1301.9,1453.7c-1-21.5,14.6-50.1,41.7-51.9c116.4-10.6,475.2-47.7,622.2-64.6c103.1-11.5,98.8-155.1-23.7-145.8
		l-636.3,63.4c-34.2,3.7-46.8-23.4-51.7-45.8l-0.3-0.7c-6.2-27.3,0.2-60.8,41.5-67.3c166-24.5,371.5-55.9,537.4-80.3
		c129.6-19.1,114.2-161.7-16.3-142.5c-196.8,29-390.5,51.2-587.2,80.2c-15.6,2.3-34.1-8.4-40-23.4c-1.4-3.3-5.2-14.1-6.5-17.8
		c-6.3-20.9,4.1-51.4,32.6-58.3c113.3-24.5,343.9-80.1,343.9-80.1c110.8-33.4,82.3-136.1-44.2-111c0,0-234.1,30.2-402.5,61.5
		c-76.7,14.3-196.1,43-249.2,52.5c-127.4,22.8-232.7-14.2-329.2-30.2c-95.1-15.7-152-40.8-257.4-40.8c-113.2,0-197.2,0-197.2,0
		l3.9,559.1l302.7,281.7c0,0,546.6,402.3,640,456.4c0,0,95.7-49,4.3-205.3c-30.1-51.5-71.2-95.6-118-132.5
		c-21.8-17.2-43.4-34.6-64.9-52.2l-12.9-10.6l0.2-16.2c0.5-32.4-2-68.3-6.1-102.2c-4.5-34.3-10.7-68.4-20.2-101.5
		c-9.3-33.2-22.5-65.1-38.8-95.9c-17.6-29.9-39.4-57.5-66.5-82.5c33.5,14.6,64.4,37.5,89.9,65.7c24.9,28.6,44.4,61.7,60.5,96.1
		c15.4,34.8,26.5,71.1,34.3,108c4.1,18.4,7.1,37.1,9.3,55.9c1.7,13.5,2.9,26.4,3.6,40.2c13.9,10.7,27.8,21.4,41.7,32.2
		c270.5,56,561,31.7,836.1,35.4c142.6-8.1,136.6-130.5,7.3-141.6L1339,1507C1310.4,1504.4,1303,1470.8,1301.9,1453.7z"/>
	<path d="M586,389.4l94.9,138.1L778,668.7c3.4,4.9,10.6,4.9,13.9,0L889,527.5l94.9-138.1c3.9-5.6-0.1-13.2-6.9-13.2H859.2V0L710.6,0
		v376.2H592.9C586.1,376.2,582.1,383.8,586,389.4z"/>
</g>
</svg>
