<?xml version="1.0" encoding="utf-8"?>
<!-- Generator: Adobe Illustrator 23.0.6, SVG Export Plug-In . SVG Version: 6.00 Build 0)  -->
<svg version="1.1" baseProfile="tiny" id="Layer_1" xmlns="http://www.w3.org/2000/svg" xmlns:xlink="http://www.w3.org/1999/xlink"
	 x="0px" y="0px" viewBox="0 0 2048 2048" xml:space="preserve">
<g>
	<g>
		<path fill="#FFFFFF" d="M1781.26,454.76h-77.05l-22.32-69.82h-111.63l-22.11,69.82h-76.61l114.26-313.88h83.83L1781.26,454.76z
			 M1665.69,330.65l-33.71-105.51c-2.48-7.88-4.24-17.29-5.25-28.23h-1.75c-0.73,9.2-2.55,18.31-5.47,27.37l-34.15,106.38H1665.69z"
			/>
		<path fill="#FFFFFF" d="M1793.96,450.91v-36.5c7.41,4.47,14.81,7.8,22.17,9.98s14.33,3.28,20.89,3.28
			c7.99,0,14.28-1.09,18.89-3.28s6.92-5.51,6.92-9.98c0-2.85-1.05-5.23-3.14-7.13c-2.09-1.9-4.78-3.56-8.06-4.99
			c-3.28-1.43-6.87-2.71-10.77-3.85c-3.9-1.14-7.65-2.42-11.27-3.85c-5.8-2.19-10.91-4.54-15.33-7.06
			c-4.42-2.52-8.13-5.44-11.12-8.77c-2.99-3.33-5.28-7.18-6.84-11.55c-1.57-4.37-2.35-9.55-2.35-15.54c0-8.18,1.78-15.21,5.35-21.1
			c3.56-5.89,8.32-10.72,14.26-14.47c5.94-3.76,12.74-6.51,20.39-8.27c7.65-1.76,15.61-2.64,23.88-2.64c6.46,0,13.02,0.5,19.68,1.5
			c6.65,1,13.21,2.45,19.68,4.35v34.79c-5.7-3.33-11.81-5.82-18.32-7.49c-6.51-1.66-12.9-2.5-19.18-2.5c-2.95,0-5.73,0.26-8.34,0.78
			c-2.61,0.52-4.92,1.28-6.92,2.28s-3.56,2.28-4.71,3.85s-1.71,3.35-1.71,5.35c0,2.66,0.86,4.94,2.57,6.84
			c1.71,1.9,3.95,3.54,6.7,4.92s5.82,2.61,9.2,3.71s6.73,2.21,10.05,3.35c5.99,2.09,11.41,4.37,16.26,6.84
			c4.85,2.47,9.01,5.37,12.48,8.7c3.47,3.33,6.13,7.22,7.99,11.69s2.78,9.79,2.78,15.97c0,8.65-1.88,16.04-5.63,22.17
			c-3.76,6.13-8.75,11.12-14.97,14.97s-13.4,6.65-21.53,8.41s-16.56,2.64-25.31,2.64C1822.52,458.32,1807.65,455.85,1793.96,450.91z
			"/>
		<path fill="#FFFFFF" d="M2020.26,453.05c-6.65,3.52-16.68,5.28-30.09,5.28c-31.75,0-47.63-16.49-47.63-49.48v-66.88h-23.67v-33.22
			h23.67v-31.51l44.92-12.83v44.35h32.8v33.22h-32.8V401c0,15.21,6.04,22.82,18.11,22.82c4.75,0,9.65-1.38,14.69-4.14V453.05z"/>
	</g>
	<path fill="#FFFFFF" d="M1770.45,904.34c-125.75,0-230.26,90.62-251.99,210.1h-273.49c-11.08-75.84-45.79-148.89-104.15-207.26
		c-58.36-58.36-131.42-93.07-207.26-104.15V529.54c119.48-21.73,210.09-126.24,210.09-251.99c0-141.5-114.71-256.21-256.21-256.21
		c-141.5,0-256.21,114.71-256.21,256.21c0,125.75,90.62,230.26,210.09,251.99V801.2c-81.17,8.49-160.07,43.78-222.28,105.98
		c-133.03,133.03-143.13,342.32-30.51,487.06l-165.42,165.42c-99.85-69.12-237.83-59.29-326.75,29.63
		c-100.06,100.06-100.06,262.28,0,362.34s262.28,100.06,362.34,0c88.92-88.92,98.74-226.9,29.63-326.75l165.42-165.42
		c144.74,112.62,354.03,102.52,487.06-30.51c62.21-62.21,97.49-141.1,105.98-222.28h271.66
		c21.73,119.48,126.24,210.09,251.99,210.09c141.5,0,256.21-114.71,256.21-256.21C2026.67,1019.05,1911.96,904.34,1770.45,904.34z"
		/>
</g>
</svg>
