<?xml version="1.0" encoding="utf-8"?>
<!-- Generator: Adobe Illustrator 29.8.3, SVG Export Plug-In . SVG Version: 9.03 Build 0)  -->
<svg version="1.1" baseProfile="tiny" id="Layer_1" xmlns="http://www.w3.org/2000/svg" xmlns:xlink="http://www.w3.org/1999/xlink"
	 x="0px" y="0px" viewBox="0 0 18 16.38" overflow="visible" xml:space="preserve">
<path fill="#FFFFFF" d="M12.78,9.38c0.08,0.02,0.16,0.03,0.24,0.03c0.53,0,0.99-0.35,1.14-0.84h2.02c0.14,0.34,0.47,0.57,0.86,0.57
	c0.53,0,0.95-0.43,0.95-0.95c0-0.53-0.42-0.95-0.95-0.95c-0.39,0-0.72,0.23-0.86,0.57h-2.02c-0.15-0.49-0.61-0.84-1.14-0.84
	c-0.08,0-0.17,0.01-0.25,0.03l-0.86-1.49c0.2-0.22,0.32-0.5,0.32-0.81c0-0.31-0.12-0.59-0.32-0.81l0.86-1.49
	c0.08,0.02,0.17,0.03,0.25,0.03c0.53,0,0.99-0.36,1.14-0.84h2.02c0.14,0.34,0.47,0.57,0.86,0.57c0.53,0,0.95-0.42,0.95-0.95
	c0-0.52-0.42-0.94-0.95-0.94c-0.39,0-0.72,0.23-0.86,0.56h-2.02C14.02,0.35,13.56,0,13.03,0c-0.67,0-1.21,0.54-1.21,1.21
	c0,0.31,0.11,0.59,0.31,0.81l-0.86,1.5c-0.07-0.02-0.16-0.03-0.24-0.03c-0.54,0-0.99,0.35-1.15,0.84H8.14
	C7.98,3.84,7.53,3.49,6.98,3.49c-0.08,0-0.17,0.01-0.24,0.03l-0.86-1.5c0.2-0.22,0.31-0.5,0.31-0.81C6.18,0.54,5.64,0,4.97,0
	C4.44,0,3.98,0.35,3.83,0.84H1.81C1.67,0.51,1.34,0.27,0.95,0.27C0.42,0.27,0,0.69,0,1.21c0,0.53,0.42,0.95,0.95,0.95
	c0.39,0,0.72-0.23,0.87-0.57h2.01c0.15,0.49,0.61,0.84,1.14,0.84c0.08,0,0.17-0.01,0.25-0.03l0.86,1.49
	c-0.2,0.22-0.32,0.5-0.32,0.81c0,0.31,0.12,0.59,0.32,0.81L5.23,7C5.14,6.98,5.06,6.97,4.97,6.97c-0.53,0-0.99,0.36-1.14,0.84H1.82
	C1.67,7.48,1.34,7.25,0.95,7.25C0.42,7.25,0,7.67,0,8.19c0,0.52,0.42,0.95,0.95,0.95c0.39,0,0.72-0.23,0.86-0.57h2.02
	C3.98,9.06,4.44,9.4,4.97,9.4c0.08,0,0.17-0.01,0.24-0.03h0.01l0.86,1.49c-0.2,0.22-0.32,0.5-0.32,0.81c0,0.31,0.12,0.59,0.32,0.81
	l-0.87,1.5c-0.08-0.02-0.16-0.03-0.24-0.03c-0.53,0-0.99,0.35-1.14,0.84H1.82c-0.15-0.34-0.48-0.57-0.87-0.57
	C0.42,14.22,0,14.64,0,15.17c0,0.52,0.42,0.95,0.95,0.95c0.39,0,0.72-0.23,0.86-0.57h2.02c0.15,0.49,0.61,0.84,1.14,0.84
	c0.67,0,1.21-0.54,1.21-1.21c0-0.31-0.11-0.59-0.31-0.81l0.86-1.5c0.07,0.02,0.16,0.03,0.24,0.03c0.54,0,0.99-0.35,1.15-0.84h1.73
	c0.16,0.49,0.61,0.84,1.15,0.84c0.08,0,0.17-0.01,0.24-0.03l0.86,1.5c-0.2,0.22-0.31,0.5-0.31,0.81c0,0.67,0.54,1.21,1.21,1.21
	c0.53,0,0.99-0.35,1.14-0.84h2.02c0.14,0.34,0.47,0.57,0.86,0.57c0.53,0,0.95-0.43,0.95-0.95c0-0.53-0.42-0.95-0.95-0.95
	c-0.39,0-0.72,0.23-0.86,0.57h-2.02c-0.15-0.49-0.61-0.84-1.14-0.84c-0.08,0-0.17,0.01-0.24,0.03l-0.87-1.5
	c0.2-0.22,0.32-0.5,0.32-0.81c0-0.31-0.12-0.59-0.32-0.81L12.78,9.38L12.78,9.38z M16.76,7.82c0.07-0.07,0.18-0.1,0.29-0.1
	c0.26,0,0.48,0.21,0.48,0.48c0,0.26-0.22,0.48-0.48,0.48c-0.11,0-0.22-0.04-0.29-0.1c-0.11-0.08-0.19-0.23-0.19-0.38
	C16.57,8.03,16.65,7.9,16.76,7.82z M16.77,0.84c0.08-0.06,0.18-0.09,0.28-0.09c0.26,0,0.48,0.21,0.48,0.47
	c0,0.27-0.22,0.48-0.48,0.48c-0.11,0-0.22-0.04-0.29-0.1c-0.11-0.08-0.19-0.22-0.19-0.38C16.57,1.05,16.65,0.92,16.77,0.84z
	 M13.03,0.47c0.27,0,0.51,0.15,0.64,0.37c0.07,0.11,0.1,0.23,0.1,0.38c0,0.14-0.04,0.26-0.09,0.38c-0.13,0.23-0.38,0.38-0.65,0.38
	c-0.28,0-0.53-0.16-0.65-0.38c-0.06-0.11-0.09-0.23-0.09-0.37C12.28,0.81,12.61,0.47,13.03,0.47z M1.24,1.59
	c-0.08,0.07-0.18,0.1-0.29,0.1c-0.26,0-0.48-0.21-0.48-0.48c0-0.26,0.22-0.47,0.48-0.47c0.1,0,0.21,0.04,0.28,0.09
	c0.12,0.08,0.2,0.22,0.2,0.38C1.43,1.37,1.35,1.5,1.24,1.59z M5.62,1.58C5.5,1.8,5.26,1.96,4.97,1.96c-0.27,0-0.52-0.15-0.64-0.38
	c-0.07-0.11-0.1-0.23-0.1-0.38c0-0.14,0.04-0.26,0.1-0.38C4.47,0.62,4.7,0.47,4.97,0.47c0.41,0,0.74,0.34,0.74,0.74
	C5.72,1.34,5.68,1.46,5.62,1.58z M1.24,8.57c-0.08,0.07-0.18,0.1-0.29,0.1c-0.26,0-0.48-0.22-0.48-0.48c0-0.27,0.22-0.48,0.48-0.48
	c0.11,0,0.22,0.04,0.29,0.1C1.35,7.9,1.43,8.03,1.43,8.19C1.43,8.34,1.35,8.48,1.24,8.57z M1.24,15.54c-0.08,0.07-0.18,0.1-0.29,0.1
	c-0.26,0-0.48-0.22-0.48-0.48c0-0.26,0.22-0.48,0.48-0.48c0.11,0,0.22,0.04,0.29,0.1c0.11,0.08,0.19,0.23,0.19,0.38
	C1.43,15.32,1.35,15.46,1.24,15.54z M4.97,15.91c-0.27,0-0.51-0.15-0.64-0.37c-0.07-0.11-0.1-0.23-0.1-0.38
	c0-0.14,0.04-0.27,0.1-0.38c0.12-0.22,0.36-0.37,0.63-0.37h0.01c0.28,0,0.52,0.15,0.65,0.38c0.06,0.1,0.09,0.23,0.09,0.37
	C5.72,15.57,5.39,15.91,4.97,15.91z M16.76,14.79c0.07-0.07,0.18-0.1,0.29-0.1c0.26,0,0.48,0.22,0.48,0.48
	c0,0.26-0.22,0.48-0.48,0.48c-0.11,0-0.22-0.04-0.29-0.1c-0.11-0.08-0.19-0.23-0.19-0.38C16.57,15.02,16.65,14.87,16.76,14.79z
	 M12.38,14.8c0.13-0.23,0.37-0.38,0.65-0.38h0.01c0.27,0,0.51,0.15,0.63,0.37c0.07,0.1,0.1,0.23,0.1,0.38c0,0.14-0.04,0.26-0.1,0.38
	c-0.13,0.22-0.37,0.37-0.64,0.37c-0.41,0-0.74-0.34-0.74-0.74C12.28,15.03,12.32,14.9,12.38,14.8z M12.13,8.99
	C12.13,9,12.13,9,12.13,8.99l-0.86,1.5c-0.07-0.02-0.16-0.03-0.24-0.03c-0.54,0-0.99,0.35-1.15,0.84H8.14
	c-0.16-0.49-0.61-0.84-1.15-0.84c-0.08,0-0.17,0.01-0.24,0.03L5.87,9c0,0,0,0,0-0.01c0.2-0.21,0.31-0.49,0.31-0.8
	S6.07,7.6,5.87,7.39l0.86-1.5C6.81,5.9,6.9,5.91,6.98,5.91c0.54,0,0.99-0.35,1.15-0.84h1.73c0.16,0.49,0.61,0.84,1.15,0.84
	c0.08,0,0.17-0.01,0.24-0.03l0.86,1.5c-0.2,0.22-0.31,0.5-0.31,0.81S11.93,8.78,12.13,8.99z"/>
</svg>
