<?xml version="1.0" encoding="utf-8"?>
<!-- Generator: Adobe Illustrator 29.2.0, SVG Export Plug-In . SVG Version: 9.03 Build 55982)  -->
<svg version="1.1" baseProfile="tiny" id="Layer_1" xmlns="http://www.w3.org/2000/svg" xmlns:xlink="http://www.w3.org/1999/xlink"
	 x="0px" y="0px" viewBox="0 0 504.4 99.1" overflow="visible" xml:space="preserve">
<g>
	<path fill="#F3C43E" d="M479.8,31.6L479.8,31.6c-4.5,0.1-8.9,0.2-13.3,0.2c-0.5,0-1,0-1.4,0c4.9,0.1,9.8,0.3,14.8,0.5l0,0h0
		c0.1,0,0.2-0.2,0.3-0.3C480.1,31.7,479.9,31.6,479.8,31.6z"/>
	<path fill="#F3C43E" d="M479.6,35c-4.9-0.5-9.8-1.1-14.7-1.8c4.9,0.7,9.7,1.6,14.6,2.4l0,0l0,0c0.1,0,0.2-0.1,0.3-0.3
		C479.8,35.2,479.7,35,479.6,35z"/>
	<path fill="#F3C43E" d="M478.9,38.4c-4.8-1.2-9.6-2.4-14.3-3.7c4.7,1.4,9.4,2.8,14.1,4.3l0,0l0,0c0.1,0,0.2-0.1,0.3-0.3
		C479.1,38.6,479.1,38.4,478.9,38.4z"/>
	<path fill="#F3C43E" d="M477.8,41.7c-4.6-1.8-9.2-3.6-13.7-5.5c4.5,2,9,4,13.4,6.1l0,0c0,0,0,0,0.1,0c0.1,0,0.2-0.1,0.3-0.2
		C478,41.9,477.9,41.7,477.8,41.7z"/>
	<path fill="#F3C43E" d="M476.3,44.7c-4.3-2.4-8.6-4.8-12.9-7.2c4.2,2.6,8.4,5.2,12.5,7.8l0,0c0,0,0.1,0,0.1,0
		c0.1,0,0.2-0.1,0.3-0.2C476.4,45,476.4,44.8,476.3,44.7z"/>
	<path fill="#F3C43E" d="M462.6,38.7c3.8,3.1,7.7,6.2,11.4,9.4l0,0c0,0,0.1,0,0.1,0c0.1,0,0.2-0.1,0.3-0.2c0.1-0.2,0.1-0.3,0-0.4
		C470.4,44.7,466.5,41.7,462.6,38.7z"/>
	<path fill="#F3C43E" d="M461.5,39.9c3.4,3.6,6.8,7.1,10.1,10.8l0,0c0,0,0.1,0.1,0.1,0.1c0.1,0,0.2,0,0.3-0.1
		c0.1-0.1,0.2-0.3,0.1-0.4C468.6,46.8,465,43.4,461.5,39.9z"/>
	<path fill="#F3C43E" d="M460.4,40.9c2.9,4,5.8,8,8.6,12l0,0c0,0.1,0.1,0.1,0.2,0.1c0.1,0,0.2,0,0.2-0.1c0.1-0.1,0.2-0.3,0.1-0.4
		C466.5,48.6,463.4,44.8,460.4,40.9z"/>
	<path fill="#F3C43E" d="M459.1,41.7c2.4,4.3,4.7,8.7,7,13l0,0c0,0.1,0.1,0.1,0.2,0.1c0.1,0,0.1,0,0.2-0.1c0.2-0.1,0.2-0.3,0.2-0.4
		C464.1,50.2,461.6,46,459.1,41.7z"/>
	<path fill="#F3C43E" d="M457.8,42.4c1.8,4.6,3.5,9.2,5.2,13.8l0,0c0,0.1,0.1,0.1,0.2,0.1c0.1,0,0.1,0,0.2,0
		c0.2-0.1,0.3-0.2,0.2-0.4C461.6,51.4,459.7,46.9,457.8,42.4z"/>
	<path fill="#F3C43E" d="M456.4,42.8c1.2,4.8,2.3,9.6,3.4,14.4l0,0c0,0.1,0.1,0.2,0.3,0.2c0,0,0.1,0,0.1,0c0.2-0.1,0.3-0.2,0.3-0.3
		C459,52.3,457.6,47.6,456.4,42.8z"/>
	<path fill="#F3C43E" d="M454.9,43.1c0.6,4.9,1,9.8,1.5,14.7l0,0c0,0.1,0.1,0.2,0.3,0.2c0,0,0,0,0.1,0c0.2,0,0.3-0.2,0.3-0.3
		C456.2,52.9,455.5,48,454.9,43.1z"/>
	<path fill="#F3C43E" d="M452.9,58L452.9,58c0,0.1,0.2,0.3,0.3,0.3l0,0c0.2,0,0.3-0.1,0.3-0.3c-0.1-4.9-0.2-9.8-0.2-14.8
		C453.3,48.1,453.1,53,452.9,58z"/>
	<path fill="#F3C43E" d="M449.5,57.7c0,0.1,0.1,0.3,0.3,0.3l0.1,0c0.2,0,0.3-0.1,0.3-0.2c0.5-4.9,1-9.8,1.7-14.7
		C451.1,48,450.3,52.8,449.5,57.7L449.5,57.7z"/>
	<path fill="#F3C43E" d="M446.1,57L446.1,57c0,0.1,0.1,0.3,0.3,0.3c0,0,0.1,0,0.1,0c0.1,0,0.2-0.1,0.3-0.2c1.1-4.8,2.3-9.6,3.6-14.3
		C449,47.5,447.6,52.2,446.1,57z"/>
	<path fill="#F3C43E" d="M442.9,55.8L442.9,55.8c-0.1,0.1,0,0.3,0.2,0.4c0.1,0,0.1,0,0.2,0c0.1,0,0.2-0.1,0.2-0.1
		c1.7-4.6,3.5-9.2,5.4-13.8C447,46.8,445,51.3,442.9,55.8z"/>
	<path fill="#F3C43E" d="M439.8,54.2L439.8,54.2c-0.1,0.1,0,0.3,0.2,0.4c0.1,0,0.1,0.1,0.2,0.1c0.1,0,0.2,0,0.2-0.1
		c2.3-4.3,4.7-8.7,7.2-12.9C445.1,45.9,442.5,50,439.8,54.2z"/>
	<path fill="#F3C43E" d="M437,52.3L437,52.3c-0.1,0.1,0,0.3,0.1,0.4c0.1,0.1,0.2,0.1,0.2,0.1c0.1,0,0.1,0,0.2-0.1
		c2.9-4,5.8-8,8.8-11.9C443.3,44.6,440.2,48.5,437,52.3z"/>
	<path fill="#F3C43E" d="M434.5,49.9L434.5,49.9c-0.1,0.1-0.1,0.3,0.1,0.4c0.1,0.1,0.2,0.1,0.3,0.1c0.1,0,0.1,0,0.2-0.1
		c3.4-3.6,6.8-7.1,10.2-10.7C441.7,43.2,438.1,46.6,434.5,49.9z"/>
	<path fill="#F3C43E" d="M432.3,47.3L432.3,47.3c-0.1,0.1-0.1,0.3,0,0.4c0.1,0.1,0.2,0.2,0.3,0.2c0,0,0.1,0,0.1,0
		c3.8-3.1,7.7-6.2,11.5-9.2C440.3,41.6,436.3,44.5,432.3,47.3z"/>
	<path fill="#F3C43E" d="M430.4,44.4L430.4,44.4c-0.1,0.1-0.1,0.3,0,0.4c0.1,0.1,0.2,0.2,0.3,0.2c0,0,0.1,0,0.1,0
		c4.2-2.6,8.4-5.2,12.6-7.7C439.1,39.8,434.7,42.1,430.4,44.4z"/>
	<path fill="#F3C43E" d="M428.9,41.3L428.9,41.3c-0.1,0.1-0.2,0.2-0.1,0.4c0.1,0.1,0.2,0.2,0.3,0.2c0,0,0.1,0,0.1,0
		c4.5-2,9-4,13.5-6C438.1,37.9,433.5,39.6,428.9,41.3z"/>
	<path fill="#F3C43E" d="M427.8,38.1L427.8,38.1c-0.1,0-0.2,0.2-0.2,0.4c0,0.2,0.2,0.3,0.3,0.3l0.1,0c4.7-1.4,9.4-2.8,14.2-4.1
		C437.4,35.8,432.6,37,427.8,38.1z"/>
	<path fill="#F3C43E" d="M427.2,34.7L427.2,34.7c-0.1,0-0.2,0.2-0.2,0.4c0,0.2,0.1,0.3,0.3,0.3l0,0c4.9-0.8,9.7-1.6,14.6-2.2
		C437,33.7,432.1,34.2,427.2,34.7z"/>
	<path fill="#F3C43E" d="M427,31.6c4.4-0.1,8.9-0.2,13.3-0.2c0.5,0,1,0,1.4,0c-4.9-0.1-9.8-0.3-14.8-0.5l0,0h0
		c-0.1,0-0.2,0.2-0.3,0.3C426.8,31.4,426.9,31.6,427,31.6L427,31.6z"/>
	<path fill="#F3C43E" d="M427.3,28.2c4.9,0.5,9.8,1.1,14.7,1.8c-4.9-0.7-9.7-1.6-14.6-2.4l0,0l0,0c-0.1,0-0.2,0.1-0.3,0.3
		C427,28,427.1,28.2,427.3,28.2z"/>
	<path fill="#F3C43E" d="M427.9,24.8c4.8,1.2,9.6,2.4,14.3,3.7c-4.7-1.4-9.4-2.8-14.1-4.3l0,0l0,0c-0.1,0-0.2,0.1-0.3,0.3
		C427.7,24.6,427.8,24.8,427.9,24.8z"/>
	<path fill="#F3C43E" d="M429,21.5c4.6,1.8,9.2,3.6,13.7,5.5c-4.5-2-9-4-13.4-6.1l0,0c0,0,0,0-0.1,0c-0.1,0-0.2,0.1-0.3,0.2
		C428.9,21.3,428.9,21.5,429,21.5z"/>
	<path fill="#F3C43E" d="M430.6,18.5c4.3,2.4,8.6,4.8,12.9,7.2c-4.2-2.6-8.4-5.2-12.5-7.8l0,0c0,0-0.1,0-0.1,0
		c-0.1,0-0.2,0.1-0.3,0.2C430.4,18.2,430.4,18.4,430.6,18.5z"/>
	<path fill="#F3C43E" d="M444.3,24.4c-3.8-3.1-7.7-6.2-11.4-9.4l0,0c0,0-0.1,0-0.1,0c-0.1,0-0.2,0.1-0.3,0.2c-0.1,0.2-0.1,0.3,0,0.4
		C436.4,18.5,440.4,21.4,444.3,24.4z"/>
	<path fill="#F3C43E" d="M445.3,23.3c-3.4-3.6-6.8-7.1-10.1-10.8l0,0c0,0-0.1-0.1-0.1-0.1c-0.1,0-0.2,0-0.3,0.1
		c-0.1,0.1-0.2,0.3-0.1,0.4C438.3,16.4,441.8,19.8,445.3,23.3z"/>
	<path fill="#F3C43E" d="M446.5,22.3c-2.9-4-5.8-8-8.6-12l0,0c0-0.1-0.1-0.1-0.2-0.1c-0.1,0-0.2,0-0.2,0.1c-0.1,0.1-0.2,0.3-0.1,0.4
		C440.4,14.6,443.4,18.4,446.5,22.3z"/>
	<path fill="#F3C43E" d="M447.7,21.5c-2.4-4.3-4.7-8.7-7-13l0,0c0-0.1-0.1-0.1-0.2-0.1c-0.1,0-0.1,0-0.2,0.1
		c-0.2,0.1-0.2,0.3-0.2,0.4C442.7,13,445.2,17.2,447.7,21.5z"/>
	<path fill="#F3C43E" d="M449.1,20.8c-1.8-4.6-3.5-9.2-5.2-13.8l0,0c0-0.1-0.1-0.1-0.2-0.1c-0.1,0-0.1,0-0.2,0
		c-0.2,0.1-0.3,0.2-0.2,0.4C445.2,11.8,447.2,16.3,449.1,20.8z"/>
	<path fill="#F3C43E" d="M450.5,20.4c-1.2-4.8-2.3-9.6-3.4-14.4l0,0c0-0.1-0.1-0.2-0.3-0.2c0,0-0.1,0-0.1,0
		c-0.2,0.1-0.3,0.2-0.3,0.3C447.9,10.9,449.2,15.6,450.5,20.4z"/>
	<path fill="#F3C43E" d="M450.5,5.4c0-0.1-0.1-0.2-0.3-0.2c0,0,0,0-0.1,0c-0.2,0-0.3,0.2-0.3,0.3c0.8,4.9,1.5,9.7,2.1,14.6
		C451.4,15.2,450.9,10.3,450.5,5.4L450.5,5.4z"/>
	<path fill="#F3C43E" d="M453.6,5L453.6,5c-0.2,0-0.3,0.1-0.3,0.3c0.1,4.9,0.2,9.8,0.2,14.8c0.1-4.9,0.2-9.8,0.4-14.8l0,0
		C453.9,5.1,453.8,5,453.6,5z"/>
	<path fill="#F3C43E" d="M457.4,5.5c0-0.1-0.1-0.3-0.3-0.3l-0.1,0c-0.2,0-0.3,0.1-0.3,0.2c-0.5,4.9-1,9.8-1.7,14.7
		C455.7,15.2,456.5,10.4,457.4,5.5L457.4,5.5z"/>
	<path fill="#F3C43E" d="M460.7,6.2L460.7,6.2c0-0.1-0.1-0.3-0.3-0.3c0,0-0.1,0-0.1,0c-0.1,0-0.2,0.1-0.3,0.2
		c-1.1,4.8-2.3,9.6-3.6,14.3C457.8,15.7,459.2,10.9,460.7,6.2z"/>
	<path fill="#F3C43E" d="M464,7.4L464,7.4c0.1-0.1,0-0.3-0.2-0.4c-0.1,0-0.1,0-0.2,0c-0.1,0-0.2,0.1-0.2,0.1
		c-1.7,4.6-3.5,9.2-5.4,13.8C459.9,16.4,461.9,11.9,464,7.4z"/>
	<path fill="#F3C43E" d="M467,9L467,9c0.1-0.1,0-0.3-0.2-0.4c-0.1,0-0.1-0.1-0.2-0.1c-0.1,0-0.2,0-0.2,0.1
		c-2.3,4.3-4.7,8.7-7.2,12.9C461.8,17.3,464.4,13.1,467,9z"/>
	<path fill="#F3C43E" d="M469.8,10.9L469.8,10.9c0.1-0.1,0-0.3-0.1-0.4c-0.1-0.1-0.2-0.1-0.2-0.1c-0.1,0-0.1,0-0.2,0.1
		c-2.9,4-5.8,8-8.8,11.9C463.6,18.6,466.7,14.7,469.8,10.9z"/>
	<path fill="#F3C43E" d="M472.4,13.2L472.4,13.2c0.1-0.1,0.1-0.3-0.1-0.4c-0.1-0.1-0.2-0.1-0.3-0.1c-0.1,0-0.1,0-0.2,0.1
		c-3.4,3.6-6.8,7.1-10.2,10.7C465.2,20,468.8,16.6,472.4,13.2z"/>
	<path fill="#F3C43E" d="M474.6,15.9L474.6,15.9c0.1-0.1,0.1-0.3,0-0.4c-0.1-0.1-0.2-0.2-0.3-0.2c0,0-0.1,0-0.1,0
		c-3.8,3.1-7.7,6.2-11.5,9.2C466.6,21.6,470.6,18.7,474.6,15.9z"/>
	<path fill="#F3C43E" d="M476.5,18.7L476.5,18.7c0.1-0.1,0.1-0.3,0-0.4c-0.1-0.1-0.2-0.2-0.3-0.2c0,0-0.1,0-0.1,0
		c-4.2,2.6-8.4,5.2-12.6,7.7C467.8,23.4,472.1,21.1,476.5,18.7z"/>
	<path fill="#F3C43E" d="M477.9,21.9L477.9,21.9c0.1-0.1,0.2-0.2,0.1-0.4c-0.1-0.1-0.2-0.2-0.3-0.2c0,0-0.1,0-0.1,0
		c-4.5,2-9,4-13.5,6C468.7,25.3,473.3,23.6,477.9,21.9z"/>
	<path fill="#F3C43E" d="M479,25.1L479,25.1c0.1,0,0.2-0.2,0.2-0.4c0-0.2-0.2-0.3-0.3-0.3l-0.1,0c-4.7,1.4-9.4,2.8-14.2,4.1
		C469.4,27.4,474.2,26.2,479,25.1z"/>
	<path fill="#F3C43E" d="M479.6,28.5L479.6,28.5c0.1,0,0.2-0.2,0.2-0.4c0-0.2-0.1-0.3-0.3-0.3l0,0c-4.9,0.8-9.7,1.6-14.6,2.2
		C469.8,29.5,474.7,29,479.6,28.5z"/>
</g>
<path fill="#F3C43E" d="M438,41l-2.8,2.1l2.9,6.3v6.5c0.2-0.2,0.5-0.5,0.6-0.5c0.5-0.4,1.4-0.9,2.2-0.9c0.8,0,1.3,0.2,1.8,0.3
	c0.3,0.1,0.6,0.2,0.9,0.2c0.1,0,0.2,0,0.3,0c0.6-0.1,1.1-0.4,1.6-0.8c0.6-0.4,1.2-0.8,2-1.1l0.1-5.2l1.9-0.8c0.9,1.9,2,3.9,3.4,5.6
	c0.3-0.1,0.7-0.1,1.2-0.1c0,0,0.1,0,0.1,0c1.1,0,1.9,0.4,2.5,0.8c1-0.9,2.8-2.2,5-2.7c-0.2-0.9-0.3-2,0-3.1
	c-1.9-0.8-3.2-2.6-4.5-4.6c0.3-0.2,0.7-0.4,1.1-0.6c1.7-0.9,3.6-1.9,4.6-3.8c1.1-2.1,1.2-11.9,0.7-14c-0.4-2-2.5-3.3-4.2-3.5
	c-1.7-0.2-5.2-0.4-9.5-0.4c-3.4,0-7.8,0.1-9.9,0.4c-0.1,0-0.1,0-0.2,0c-0.5,0-1.4,0.1-2,1l-0.1,0.2l-1.9,8.1l2.9,0.4l-0.4,0.3
	L438,41z M447.6,31.1h6.7c0.4,3.5-2,4.5-6.3,5.9c-0.1,0-0.3,0.1-0.4,0.1V31.1z"/>
<g>
	<path fill="#F3C43E" d="M39.6,25.3c-2,2-4.7,3.1-7.7,3.1l-0.3,4.4h6l-8.5,22.6l8.6,1.8l2.8-6.9l7.3,7l4.1-5.1L54,58l1.3-0.5
		c0.2-0.1,0.7-0.2,1.3-0.4c3.4-1,5.6-1.8,5.6-3.6l0-0.2l-7.3-20.4l4.5,0l0.7-5.6c0,0,0,0,0,0c-2.1,0-3.5-0.6-4.3-1
		c-0.7,0.8-2,1.8-4,1.8c0,0-0.1,0-0.1,0c-2,0-3.2-0.8-3.8-1.5c-0.9,0.7-1.9,1-3.1,1c-0.1,0-0.1,0-0.2,0c-1.7-0.1-2.8-0.8-3.8-1.5
		C40.4,25.7,40,25.5,39.6,25.3L39.6,25.3z M45.3,43.8l-0.6,0h-0.1c-0.3,0-0.8,0-1.9,0.9l3.5-8.6l4.9,13.8L45.3,43.8z"/>
</g>
<path fill="#F3C43E" d="M89,48c-3-0.1-4.8-2.4-6.5-5c0.3-0.2,0.7-0.4,1.1-0.6c1.7-0.9,3.6-1.9,4.5-3.8c1.1-2.1,1.2-11.9,0.7-14
	c-0.4-2-2.5-3.3-4.2-3.5c-1.7-0.2-5.2-0.4-9.5-0.4c-1.8,0-3.9,0-5.7,0.1c0.4,0.4,1,0.7,2.1,0.8c0.5,0,1.5-0.3,1.8,0.4
	c0.1,0.3-0.3,1.1-0.5,1.5c-0.4,0.7-1.6,2.4-3.8,2.4c-1,0-2.2-0.4-3.4-1.1c-0.7,0.7-2.1,1.7-3.8,2.1L61,30.4l2.9,0.4l-0.4,0.3
	L63.3,41l-2.8,2.1l2.9,6.3v7.8l9.3-0.6l0.2-8.7l1.9-0.8C77.4,52.4,81.3,58,88.3,58c0.1,0,0.2,0,0.2,0l1.2,0l0.6-9.9L89,48z M73.3,37
	c-0.1,0-0.3,0.1-0.4,0.1v-6h6.7C80.1,34.6,77.7,35.6,73.3,37z"/>
<g>
	<path fill="#AB3B39" d="M442,58.9c-0.1,0-0.1,0.1-0.1,0.1v2.8c0,0.1,0.1,0.1,0.1,0.1c0.1,0,0.1-0.1,0.1-0.1V59
		C442.1,59,442.1,58.9,442,58.9z"/>
</g>
<path fill="#F3C43E" d="M442.3,80.3c0-0.1-0.1-0.3-0.3-0.3s-0.3,0.1-0.3,0.3c0,0.1,0.1,0.3,0.3,0.3S442.3,80.5,442.3,80.3z"/>
<path fill="#F3C43E" d="M441.8,80.9c0,0.1,0.1,0.2,0.2,0.2s0.2-0.1,0.2-0.2s-0.1-0.2-0.2-0.2S441.8,80.8,441.8,80.9z"/>
<path fill="#F3C43E" d="M442.1,81.3v0.4c0,0,0,0,0,0c0.1,0,0.1,0.1,0.1,0.1c0,0.1-0.1,0.1-0.1,0.1c-0.1,0-0.1-0.1-0.1-0.1
	c0-0.1,0-0.1,0.1-0.1c0,0,0,0,0,0L442.1,81.3c-0.3,0-0.4,0.2-0.4,0.4v0.4c0,0.1,0.1,0.2,0.2,0.2c0,0.1,0.1,0.2,0.2,0.2
	c0.1,0,0.3-0.1,0.3-0.2c0.1,0,0.2-0.1,0.2-0.2v-0.4C442.4,81.5,442.3,81.3,442.1,81.3z"/>
<polygon fill="#F3C43E" points="442,78.2 442,78.2 442,78.2 "/>
<path fill="#F3C43E" d="M442,77.3c-0.2,0.2-0.2,0.6,0,0.9C442.3,78,442.3,77.6,442,77.3z"/>
<path fill="#F3C43E" d="M441.1,78.2c0.2,0.2,0.6,0.2,0.9,0C441.8,78,441.4,78,441.1,78.2z"/>
<path fill="#F3C43E" d="M442,78.2c0.2,0.2,0.6,0.2,0.9,0c0,0,0,0-0.1-0.1C442.6,77.9,442.3,78,442,78.2z"/>
<path fill="#F3C43E" d="M442,79.1c0.2-0.2,0.2-0.6,0-0.9c0,0,0,0-0.1,0.1C441.8,78.5,441.8,78.9,442,79.1z"/>
<path fill="#F3C43E" d="M442.5,76.8c-0.1,0-0.1,0-0.2-0.1c-0.1,0-0.2-0.1-0.2-0.2c0,0-0.1,0-0.1,0c-0.1,0.1-0.1,0.2-0.2,0.2
	c-0.1,0-0.1,0.1-0.2,0.1c-0.8,0.2-1.4,0.7-1.4,1.4c0,0.7,0.6,1.2,1.4,1.4c0.1,0,0.1,0,0.2,0.1c0.1,0,0.2,0.1,0.2,0.2
	c0,0,0.1,0,0.1,0c0.1-0.1,0.1-0.2,0.2-0.2c0.1,0,0.1-0.1,0.2-0.1c0.8-0.2,1.4-0.7,1.4-1.4C443.9,77.5,443.3,77,442.5,76.8z
	 M442.9,77.2c0.1,0,0.1,0.1,0.1,0.1c0,0.1-0.1,0.1-0.1,0.1s-0.1-0.1-0.1-0.1C442.8,77.2,442.8,77.2,442.9,77.2z M441.2,77.2
	c0.1,0,0.1,0.1,0.1,0.1c0,0.1-0.1,0.1-0.1,0.1c-0.1,0-0.1-0.1-0.1-0.1C441.1,77.2,441.1,77.2,441.2,77.2z M440.8,78.7
	c0,0,0,0.1,0,0.1c0,0,0,0-0.1,0c0,0-0.1,0-0.1,0c-0.2-0.2-0.2-0.4-0.2-0.6c0-0.2,0.1-0.4,0.2-0.6c0,0,0.1,0,0.1,0c0,0,0,0.1,0,0.1
	c-0.1,0.2-0.2,0.3-0.2,0.5C440.6,78.4,440.7,78.5,440.8,78.7z M441.2,79.2c-0.1,0-0.1-0.1-0.1-0.1c0-0.1,0.1-0.1,0.1-0.1
	c0.1,0,0.1,0.1,0.1,0.1C441.3,79.1,441.3,79.2,441.2,79.2z M442.9,79.2c-0.1,0-0.1-0.1-0.1-0.1c0-0.1,0.1-0.1,0.1-0.1S443,79,443,79
	C443,79.1,443,79.2,442.9,79.2z M443.1,78.3l-1,1c0,0,0,0-0.1,0c0,0,0,0-0.1,0l-1-1c0,0,0-0.1,0-0.1l1-1c0,0,0.1,0,0.1,0l1,1
	C443.2,78.2,443.2,78.2,443.1,78.3z M443.4,78.8C443.4,78.8,443.3,78.9,443.4,78.8c-0.1,0-0.1,0-0.1,0c0,0,0-0.1,0-0.1
	c0.1-0.2,0.2-0.3,0.2-0.5c0-0.2-0.1-0.4-0.2-0.5c0,0,0-0.1,0-0.1c0,0,0.1,0,0.1,0c0.2,0.2,0.2,0.4,0.2,0.6
	C443.6,78.4,443.5,78.6,443.4,78.8z"/>
<g>
	<path fill="#AB3B39" d="M456.5,66.7c-0.1,0-0.2,0.1-0.2,0.2v0.8c0,0.1,0.1,0.2,0.2,0.2c0.1,0,0.2-0.1,0.2-0.2v-0.8
		C456.7,66.8,456.6,66.7,456.5,66.7z"/>
</g>
<path fill="#F3C43E" d="M459.6,92.2l-3-3l-3,3l3,3L459.6,92.2z M458.7,92.1c0.1,0,0.2,0.1,0.2,0.2c0,0.1-0.1,0.2-0.2,0.2
	s-0.2-0.1-0.2-0.2C458.5,92.1,458.6,92.1,458.7,92.1z M456.6,89.9c0.1,0,0.2,0.1,0.2,0.2c0,0.1-0.1,0.2-0.2,0.2
	c-0.1,0-0.2-0.1-0.2-0.2C456.4,90,456.4,89.9,456.6,89.9z M454.3,92.4c-0.1,0-0.2-0.1-0.2-0.2c0-0.1,0.1-0.2,0.2-0.2
	c0.1,0,0.2,0.1,0.2,0.2C454.5,92.4,454.4,92.4,454.3,92.4z M454.9,92.2c0-0.9,0.7-1.7,1.7-1.7s1.7,0.7,1.7,1.7s-0.7,1.7-1.7,1.7
	S454.9,93.2,454.9,92.2z M456.4,94.4c0-0.1,0.1-0.2,0.2-0.2c0.1,0,0.2,0.1,0.2,0.2s-0.1,0.2-0.2,0.2
	C456.4,94.6,456.4,94.5,456.4,94.4z"/>
<path fill="#F3C43E" d="M457.9,92.2c0-0.7-0.6-1.3-1.3-1.3c-0.7,0-1.3,0.6-1.3,1.3c0,0.7,0.6,1.3,1.3,1.3
	C457.3,93.6,457.9,93,457.9,92.2z M455.2,92.2c0.3-0.3,0.8-0.4,1.2-0.1c-0.2-0.4-0.2-0.9,0.2-1.2c0.3,0.3,0.4,0.8,0.2,1.2
	c0.3-0.2,0.8-0.2,1.1,0c0,0,0.1,0.1,0.1,0.1c-0.3,0.3-0.8,0.4-1.2,0.1c0.2,0.4,0.2,0.9-0.2,1.2c-0.3-0.3-0.4-0.8-0.2-1.2
	C456,92.6,455.5,92.6,455.2,92.2z"/>
<path fill="#F3C43E" d="M457,95.9c0-0.2-0.2-0.4-0.4-0.4s-0.4,0.2-0.4,0.4s0.2,0.4,0.4,0.4S457,96.1,457,95.9z"/>
<path fill="#F3C43E" d="M456.3,96.7c0,0.2,0.1,0.3,0.3,0.3c0.2,0,0.3-0.1,0.3-0.3c0-0.2-0.1-0.3-0.3-0.3
	C456.4,96.5,456.3,96.6,456.3,96.7z"/>
<path fill="#F3C43E" d="M456.6,97.3V98c0,0,0,0,0,0c0.1,0,0.1,0.1,0.1,0.2c0,0.1-0.1,0.2-0.2,0.2c-0.1,0-0.2-0.1-0.2-0.2
	c0-0.1,0.1-0.2,0.1-0.2c0,0,0,0,0,0L456.6,97.3c-0.4,0-0.7,0.3-0.7,0.6v0.6c0,0.1,0.1,0.2,0.2,0.3c0,0.2,0.2,0.3,0.3,0.3
	c0.2,0,0.4-0.1,0.4-0.3c0.1,0,0.2-0.1,0.2-0.3v-0.6C457.2,97.6,456.9,97.3,456.6,97.3z"/>
<path fill="#F3C43E" d="M252,31.3c0-0.4,0.1-0.6,0.3-0.9l-1.6-0.1l3.3-9.2h8.9v-2.2h10.4v2.2h7.2c1.1,0,2.9,2.1,3.1,2.4
	c0.5,0.7,0.7,1.3,0.6,1.9c-0.2,3.3,0,6.8,0.1,10.2c0.1,3.9,0.3,8,0,11.8c-0.5,6.4-3.8,10.1-9.2,10.1c-0.1,0-0.3,0-0.4,0l-1.4,0
	l0.1-1.4c0.1-0.8,0-1.7,0-2.6v1.4l-1.5,1.2l-8.9,1.2V31.1H262V56l-10,1.8V31.3z M273.3,49.7c0-0.1,0-0.2,0-0.3
	c0.1-0.8,0.4-1.5,0.6-2.2c0.3-0.8,0.6-1.6,0.7-2.5c0.2-2.4,0.1-5,0-7.6c-0.1-2-0.2-4-0.1-6l-1.2,0V49.7z"/>
<path fill="#F3C43E" d="M285.9,31.3c0-0.4,0.1-0.6,0.3-0.9l-1.6-0.1l3.3-9.2h8.9v-2.2h10.4v2.2h7.2c1.1,0,2.9,2.1,3.1,2.4
	c0.5,0.7,0.7,1.3,0.6,1.9c-0.2,3.3,0,6.8,0.1,10.2c0.1,3.9,0.3,8,0,11.8c-0.5,6.4-3.8,10.1-9.2,10.1c-0.1,0-0.3,0-0.4,0l-1.4,0
	l0.1-1.4c0.1-0.8,0-1.7,0-2.6v1.4l-1.5,1.2l-8.9,1.2V31.1h-0.9V56l-10,1.8V31.3z M307.1,49.7c0-0.1,0-0.2,0-0.3
	c0.1-0.8,0.4-1.5,0.6-2.2c0.3-0.8,0.6-1.6,0.7-2.5c0.2-2.4,0.1-5,0-7.6c-0.1-2-0.2-4-0.1-6l-1.2,0V49.7z"/>
<path fill="#F3C43E" d="M237,57.4c-2.8,0-9.5-0.1-11.6-0.6c-3.3-0.9-3.9-3.5-4.1-5.4c-0.4-4.6-0.2-9.6,0-14.5
	c0.2-4.1,0.3-8.4,0.1-12.4l-0.1-1l9.5-2.8l0,1c0.3-0.3,0.7-0.5,1.3-0.6c1.3-0.2,4.7-0.3,6.6-0.3c2.9,0,6.7,0.1,8.1,0.3
	c2.9,0.3,3.6,1.9,4.2,3.9c1.2,3.8,1.1,23.9,0.6,27.7c-0.5,3.8-3.7,4.2-5.3,4.4C244.7,57.3,241,57.4,237,57.4z M242.1,47.1v-16h-11.3
	v16H242.1z"/>
<path fill="#F3C43E" d="M380,48.6l0.3-0.4c0.6-0.7,1.3-1,2-1.1c0-0.1-0.1-0.3-0.1-0.4c-0.5-2.6-0.3-5.8-0.1-9
	c0.1-2.3,0.3-4.7,0.2-6.6l-1.1-0.3l-0.2-0.1c-1.6-1.1-1-3.8-0.5-6.5c0.2-0.7,0.3-1.5,0.3-1.8l0-1.3H409v21.5c0,0.9-1.8,4.9-1.8,5
	c-4.6,9.5-13.1,9.5-21.3,9.5c-1.5,0-3.1,0-4.6,0.1l-1.4,0.1V48.6z M391.7,47.6c2.1-0.1,5.5-0.7,7-4.3c0.2-0.4,0.7-2.1,0.8-2.6v-9.7
	h-7.8V47.6z"/>
<path fill="#F3C43E" d="M116.7,57.1v-36h7.8l0.2,0.1c1.5,0.5,1.6,2.2,1.6,3.7c0.1,0,0.2,0,0.3,0c1.7,0,3.5,0.8,4.9,1.6
	c1.6,0.8,3.4,2.3,4.7,4v-9.3h8l0.3,0.2c1.1,0.7,1.2,1.6,1.3,2.3l0,0.2c0.5,4.6,0.3,9.7,0,14.7c-0.2,4.1-0.4,8.4-0.2,12.2l0,0.3
	l-0.1,0.2c-0.7,2-2.1,3.8-3.7,4.6c-0.6,0.3-3.6,1.3-5.4,1.3c0,0,0,0,0,0c-0.6,0-1-0.1-1.4-0.3c-0.7-0.3-1.1-0.9-1.1-1.6v-6.3
	c0-0.5,0.2-1.1,1.2-1.4c0.5-0.1,1.3-0.4,0.9-2.9c-0.5-3-3.3-5.7-5.5-7.5c-1.7-1.3-3.2-2.2-4.4-2.7v21.2l-1.4,1.4H116.7z"/>
<path fill="#F3C43E" d="M350.9,57.1v-36h7.8l0.2,0.1c1.5,0.5,1.6,2.2,1.6,3.7c0.1,0,0.2,0,0.3,0c1.7,0,3.5,0.8,4.9,1.6
	c1.6,0.8,3.4,2.3,4.7,4v-9.3h8l0.3,0.2c1.1,0.7,1.2,1.6,1.3,2.3l0,0.2c0.5,4.6,0.3,9.7,0,14.7c-0.2,4.1-0.4,8.4-0.2,12.2l0,0.3
	l-0.1,0.2c-0.7,2-2.1,3.8-3.7,4.6c-0.6,0.3-3.6,1.3-5.4,1.3c0,0,0,0,0,0c-0.6,0-1-0.1-1.4-0.3c-0.7-0.3-1.1-0.9-1.1-1.6v-6.3
	c0-0.5,0.2-1.1,1.2-1.4c0.5-0.1,1.3-0.4,0.9-2.9c-0.5-3-3.3-5.7-5.5-7.5c-1.7-1.3-3.2-2.2-4.4-2.7v21.2l-1.4,1.4H350.9z"/>
<path fill="#F3C43E" d="M112.5,57c-0.6,0-1.1,0-1.7,0c0,0-1.2,0-1.2,0c-4.7,0-11.2,0-14.3-6.2c-1.6-3.1-1.7-6.1-1.6-9.2
	c-0.1,0-0.2,0-0.3,0c0,0,0,0,0,0c-0.9,0-2.2-0.1-2.9-1.1c-0.8-1.1-0.5-2.4-0.2-3.7c0.2-0.9,0.5-2,0.4-3l-0.1-1.4l3.2,0l0-1.2
	c-0.1,0-0.2,0-0.3,0c-1.3,0-2.3-0.4-2.9-1.2c-1-1.3-0.5-3,0-4.9c0.3-1,0.6-2,0.6-2.9l0.1-1.2h24.3l0.4,0.4c0.5,0.5,0.4,1.1,0.4,1.3
	c-0.1,0.9-1.5,7.1-2.9,8.1l-0.3,0.3h-10.2v1.3h13.5l-2.7,9.1h-10.9c0,1.6,0.4,4.2,1.3,5.3c0.1,0.1,0.2,0.3,0.4,0.3h9.8l0.4,0.6
	c0.9,1.4,0.5,3.1,0.2,4.6c-0.2,0.9-0.4,1.9-0.3,2.5l0.1,0.7l-1.5,1.5L112.5,57z"/>
<path fill="#F3C43E" d="M432.3,57.1c-0.8,0-1.7,0-2.7-0.1c-3.7,0-8.3-0.1-10.9-1.7c-1.8-1.1-5.4-5.5-5.4-8v-5.9l-4,0l0.9-8.5
	l2.9-0.6l0.1-1.3l-3,0l-0.4-0.4c-0.4-0.4-0.6-0.8-0.3-3.1c0.6-5.3,1.7-6,2-6.2l0.3-0.2h22.8l1.1,2.1l-2.7,7.9H422c0,0,0,0,0,0
	c0,0.6-0.1,1,0,1.3h13.3l-1.8,9.1h-11.5c0.1,1.9,0.9,5.1,1.7,5.6h9c0.6,0,1,0.2,1.4,0.7c0.8,1,0.6,2.8,0,5.6
	c-0.1,0.7-0.3,1.7-0.3,2.1l0.5,1.7L432.3,57.1z"/>
<path fill="#F3C43E" d="M207.4,57.1c-7,0-13.4-4.9-15.7-11.9c-0.7-2.2-2.1-12.3,1-14.5c0,0,0,0,0,0l-0.7-0.1l-0.3-0.4
	c-0.3-0.5-0.6-1.3,0-3.7c0.4-1.6,1.2-4.4,2.4-5c0.3-0.1,0.9-0.5,10.3-0.5c1.7,0,7.3,0,8.4,0.2c4.7,0.9,8.1,5.9,7.4,10.9l-0.2,1.1
	H213c-0.5,0-1.1-0.2-1.3-1.1c-0.1-0.2-0.2-0.6-0.4-0.7c-0.2-0.1-0.7-0.5-2.7-0.5c-1,0-2.2,0.1-3.3,0.2c-1.1,0.1-2.1,0.2-3,0.2
	c-0.1,0-0.3,0-0.4,0c-0.2,0.4-0.3,0.9-0.5,1.3c-1.5,3.7-2.5,6.1-0.6,10.1c1.5,3.1,4.1,5,6.9,5c1,0,2-0.2,3-0.7
	c0.6-0.3,1.1-0.8,1.7-1.4c0.7-0.8,1.5-1.6,2.7-2.1l0.9-0.4l4.4,5.6l0.1,0.3c0.7,2.6-5.5,6.4-5.6,6.4C212.4,56.5,210,57.1,207.4,57.1
	z"/>
<path fill="#F3C43E" d="M44.7,45.1c-0.9-0.1-3.8,3.4-3.7,4l6.6,6.3l3.1-3.9L44.7,45.1z"/>
<path fill="#F3C43E" d="M343.6,32.8l4.5,0l1.2-9.5h-9.5l0.4-2.1l-7.4-3.1l-2.8,5.1h-8.9l-0.6,9.5h6l-8.5,22.6l8.6,1.8l2.8-6.9l7.3,7
	l4.1-5.1l2.1,5.8l1.3-0.5c0.2-0.1,0.7-0.2,1.3-0.4c3.4-1,5.6-1.8,5.6-3.6l0-0.2L343.6,32.8z M334.1,43.8l-0.6,0h-0.1
	c-0.3,0-0.8,0-1.9,0.9l3.5-8.6l4.9,13.8L334.1,43.8z"/>
<path fill="#F3C43E" d="M333.5,45.1c-0.9-0.1-3.8,3.4-3.7,4l6.6,6.3l3.1-3.9L333.5,45.1z"/>
<path fill="#F3C43E" d="M177.4,53.2l-7.4-20.5c0.3,0,0.6,0,0.9,0c0.4,0,0.8,0,1.2,0c0.5,0,1,0,1.4-0.1l0.8-0.2l1.8-9.3h-9.6l0.3-2.1
	l-7.5-2.9l-2.8,5h-9.4v9.5h5.9L144.2,55l8.8,2.4l0.4-1.1c0.8-1.9,1.5-3.9,2.2-5.8c1.7,2,5.5,5.6,5.6,5.6c0,0,0.1,0.1,0.1,0.1
	c0.2,0.2,0.7,0.6,1.4,0.6c0,0,0,0,0,0c0.2,0,0.4,0,0.6-0.1l0.9-0.3l0-1c0-0.2,0.6-0.8,0.9-1c0.8-0.7,1.8-1.7,1.6-3l2.1,5.3l0.6,1.4
	l1.3-0.8c0.2-0.1,1.2-0.4,1.8-0.6c2.5-0.8,4.7-1.4,4.6-3.2L177.4,53.2z M161.3,44.6c-0.4-0.4-1-0.6-1.6-0.8l-0.7-0.1l-0.5,0.5
	c-0.1,0.1-0.4,0.3-0.6,0.6c1-2.7,2.1-5.4,3.3-8l5.4,13.8C165.5,48.8,161.3,44.6,161.3,44.6z"/>
<path fill="#F3C43E" d="M163.1,55.4c0-1.6,2.9-2.6,2.6-4c-0.1-0.4-4.7-5.3-5.3-5.8c-0.3-0.2-0.6-0.4-1-0.4c-0.9,0.9-3.5,2.7-3.2,3.9
	c0.1,0.4,5.2,5.5,5.8,6C162.4,55.2,162.5,55.5,163.1,55.4z"/>
<path fill="#ED1F25" d="M271.8,20.1v2.2h8.5c0.3,0,2.7,2,2.4,2.8c-0.4,7.2,0.6,15,0,22.1c-0.4,5-2.7,9.1-8.3,8.9
	c0.2-2.1-0.3-4.6,0-6.7c0.2-1.5,1.1-2.8,1.3-4.8c0.4-4.8-0.3-10.1,0-15l-3.9,0v24.5l-0.7,0.6l-7.1,0.9v-26h-3.5v25.2l-7.4,1.3V31.2
	c0-0.7,2.6-1,1.5-2l-2.4-0.2l2.4-6.7h9.3v-2.2H271.8z"/>
<path fill="#ED1F25" d="M305.6,20.1v2.2h8.5c0.3,0,2.7,2,2.4,2.8c-0.4,7.2,0.6,15,0,22.1c-0.4,5-2.7,9.1-8.3,8.9
	c0.2-2.1-0.3-4.6,0-6.7c0.2-1.5,1.1-2.8,1.3-4.8c0.4-4.8-0.3-10.1,0-15l-3.9,0v24.5l-0.7,0.6l-7.1,0.9v-26h-3.5v25.2l-7.4,1.3V31.2
	c0-0.7,2.6-1,1.5-2l-2.4-0.2l2.4-6.7h9.3v-2.2H305.6z"/>
<path fill="#ED1F25" d="M229.3,22.3l0,2.6c1.6,0.1,1.1-2.3,2.8-2.6c2.1-0.4,11.9-0.3,14.3,0c2,0.2,2.5,1.1,3.1,3
	c1.1,3.4,1.1,23,0.6,27.2c-0.3,2.4-1.9,3-4.1,3.2c-3.4,0.4-17.6,0.5-20.5-0.3c-2.2-0.6-2.9-2.1-3.1-4.2c-0.8-8.5,0.6-18.2,0.1-26.9
	L229.3,22.3z M243.2,29.7h-13.9v18.6h13.9V29.7z"/>
<path fill="#ED1F25" d="M407.5,22.3v20.2c0,0.4-1.3,3.8-1.7,4.4c-5.1,10.4-14.9,8.4-24.8,8.8V49c1-1.2,2.9-0.5,4.3-0.7
	c-0.7-1-1.8-0.2-2.2-2c-0.9-4.5,0.6-11.6,0-16.4l-1.8-0.4c-1.3-0.9,0.4-5.7,0.5-7.2H407.5z M400.6,29.7h-10.4v19.1
	c4,0.3,7.9-1.1,9.5-5c0.2-0.5,0.9-2.7,0.9-3V29.7z"/>
<path fill="#ED1F25" d="M124.1,22.3c1.1,0.3,0.5,3.3,0.7,4.3c1.3-1.4,4.3,0,5.9,0.8c2.3,1.2,4.9,3.7,5.8,6.1
	c0.2,0.1,0.9-0.6,0.9-0.7V22.3h6.3c0.6,0.4,0.6,0.9,0.7,1.5c1,8.2-0.7,18.4-0.1,26.8c-0.5,1.5-1.6,3.1-3.1,3.9
	c-0.8,0.4-5.9,2.1-5.9,0.6v-6.3c0-0.3,2.8,0.1,2.1-4.5c-0.5-3.4-3.4-6.3-6-8.3c-1.7-1.3-4.4-3.2-6.5-3.3V55l-0.7,0.7h-6.3V22.3
	H124.1z"/>
<path fill="#ED1F25" d="M358.3,22.3c1.1,0.3,0.5,3.3,0.7,4.3c1.3-1.4,4.3,0,5.9,0.8c2.3,1.2,4.9,3.7,5.8,6.1
	c0.2,0.1,0.9-0.6,0.9-0.7V22.3h6.3c0.6,0.4,0.6,0.9,0.7,1.5c1,8.2-0.7,18.4-0.1,26.8c-0.5,1.5-1.6,3.1-3.1,3.9
	c-0.8,0.4-5.9,2.1-5.9,0.6v-6.3c0-0.3,2.8,0.1,2.1-4.5c-0.5-3.4-3.4-6.3-6-8.3c-1.7-1.3-4.4-3.2-6.5-3.3V55l-0.7,0.7H352V22.3H358.3
	z"/>
<path fill="#ED1F25" d="M157.1,24.5l2.6-4.7l5.4,2.1l-0.4,2.6h9.5l-1.4,6.9c-1.3,0.3-2.8-0.1-4.1,0.1c-0.6,0.1-0.7-0.3-0.7,0.7
	l7.8,21.3c0.1,1.2-4.8,2-5.8,2.6l-8.7-22c-0.7-0.2-0.9,0.6-1.1,1.1c-3.2,6.6-5.5,13.8-8.2,20.6l-6.3-1.7l8.9-22.6h-6.5v-6.9H157.1z"
	/>
<path fill="#ED1F25" d="M330.5,24.5l2.6-4.8l5.4,2.2l-0.4,1.9l0.6,0.7h8.9l-0.9,6.9l-5.2,0l7.8,21.9c0,1.2-4.8,2.3-6.1,2.8L335.5,34
	l-1.3,0l-8.7,21.6l-6-1.2l8.7-23h-6.5l0.4-6.9H330.5z"/>
<path fill="#ED1F25" d="M114.8,22.3c0.3,0.3-1.5,6.7-2.4,7.4h-11.1v3.9h13l-2,6.5h-11.1c-0.4,1.9,0.3,8.2,2.8,8.2h9.1
	c1.1,1.7-0.7,4.5-0.3,6.7l-0.7,0.6c-6-0.1-12.9,0.8-16.1-5.5c-1.7-3.3-1.5-6.5-1.4-10.1c-6.4,0.8-2.7-2.6-3-6.5l3,0l0-3.9
	c-6.4,1.1-2.8-3.5-2.6-7.4H114.8z"/>
<path fill="#ED1F25" d="M420.5,29.7c0.1,1.3-0.5,3,0.7,3.9h12.4l-1.3,6.5h-11.7c-0.4,1.7,0.8,8.2,2.8,8.2h9.1c1.6,0-0.5,6.3-0.2,7.4
	c-3.5-0.2-10,0.3-13-1.5c-1.6-1-4.8-5-4.8-6.9v-7.2l-3.9,0l0.6-6.1l2.9-0.6l0.4-3.7l-3.9,0c-0.3-0.3,0.5-6.7,1.5-7.4h21.7l0.5,0.9
	l-2.2,6.5H420.5z"/>
<path fill="#ED1F25" d="M218.9,31.8h-6.1c-0.1,0-0.2-1-0.8-1.5c-1.9-1.7-8.5-0.1-11.3-0.6c-1.8,4.9-3.9,8-1.4,13.2
	c2.1,4.5,6.7,7.1,11.6,4.9c1.8-0.8,2.5-2.8,4.3-3.5l3.6,4.6c0.3,1.2-3.9,4.3-4.9,4.9c-8.4,4.6-18.3-0.5-21.1-9.2
	c-0.8-2.6-1.7-11.5,0.5-13.1c0.8-0.6,3.2-1.3,4.3-1.5l-5-0.8c-0.5-0.7,1.1-6.3,2-6.8c0.8-0.4,16.2-0.4,17.9-0.1
	C216.7,23.2,219.4,27.7,218.9,31.8z"/>
<path fill="#ED1F25" d="M44.5,44.9c-0.9-0.1-3.8,3.4-3.7,4l6.6,6.3l3.1-3.9L44.5,44.9z"/>
<path fill="#ED1F25" d="M333.3,44.9c-0.9-0.1-3.8,3.4-3.7,4l6.6,6.3l3.1-3.9L333.3,44.9z"/>
<path fill="#ED1F25" d="M162.9,55.2c0-1.6,2.9-2.6,2.6-4c-0.1-0.4-4.7-5.3-5.3-5.8c-0.3-0.2-0.6-0.4-1-0.4c-0.9,0.9-3.5,2.7-3.2,3.9
	c0.1,0.4,5.2,5.5,5.8,6C162.2,55.1,162.3,55.4,162.9,55.2z"/>
<path fill="#F3C43E" d="M504.2,57.2c-0.8-0.9-2,0-2.7,0c-1.9-0.1-2.6-0.7-4.4-2.2c-2-1.7-2.8-2.4-5.1-2.6c-0.2,0-1.1,0-1.3,0
	c0-1.5-0.4-3.8-2.1-5.6c-1.3-1.4-3.2-2.2-5.5-2.2c-0.3,0-1.6,0.2-1.8,0.3c-1.6-1.7-3.9-2.6-6.4-2.6c-2.1,0-4.1,0.6-5.7,2
	c-0.7-0.3-1.7-0.5-2.7-0.5c-1.4,0-2.7,0.5-3.7,1.6c-1.6,1.7-1.7,3.9-1.3,5.5c-3.4,0.8-5.8,3.5-5.9,3.7c-0.9,1-1.3,2.2-3.8,2.3
	c-0.6,0-2-0.4-2.3,0.5c-0.2,0.4,0.3,1.5,0.6,2c0.5,0.9,2.1,3.1,4.9,3.1c1.3,0,2.8-0.5,4.4-1.4c1.3,1.1,3.8,3,7.1,3
	c2.7,0,4.5-0.8,5.6-1.3c1,1.1,2.6,2.3,5.2,2.3c0,0,0.1,0,0.1,0c2.6,0,4.1-1.1,4.9-1.9c1.1,0.9,2.5,1.3,4,1.3c0.1,0,0.2,0,0.2,0
	c2.2-0.1,3.6-1.1,4.8-1.9c0.9-0.6,1.6-1.1,2.6-1.3c0.2,0,0.4-0.1,0.5-0.1c0.5,0,0.9,0.1,1.4,0.3c0.7,0.2,1.6,0.6,2.9,0.6
	c1.3,0,2.6-0.8,3.5-1.4C502.9,60,505,58.2,504.2,57.2z M502,59.9c-0.8,0.6-2,1.3-3.1,1.3c-1.1,0-1.9-0.3-2.7-0.5
	c-0.6-0.2-1.1-0.4-1.7-0.4c-0.2,0-0.4,0-0.6,0.1c-1.1,0.2-1.9,0.8-2.8,1.4c-1.2,0.9-2.5,1.7-4.5,1.8c-0.1,0-0.1,0-0.2,0
	c-1.3,0-2.6-0.4-3.6-1.2l-0.5-0.4l-0.4,0.5c-0.7,0.8-2,1.7-4.4,1.7c0,0-0.1,0-0.1,0c-2.3,0-3.8-1.2-4.7-2.1l-0.3-0.4l-0.4,0.2
	c-1.6,0.8-3.3,1.2-5.3,1.2c-3,0-5.5-1.8-6.7-2.8l-0.4-0.3l-0.4,0.2c-1.5,0.9-2.8,1.3-4.1,1.3c-2.7,0-4.1-2.3-4.3-2.7
	c-0.4-0.7-0.6-1.3-0.6-1.5c0-0.1,0.1-0.1,0.5-0.1c0.2,0,0.4,0,0.6,0c0.2,0,0.4,0,0.5,0c0,0,0.1,0,0.1,0c2.3-0.1,3.1-1.1,3.8-2
	c0.1-0.2,0.3-0.4,0.4-0.5l0,0c0.6-0.6,2.7-2.8,5.6-3.4l0.7-0.1l-0.2-0.6c-0.2-0.7-0.6-3,1.2-4.9c0.9-0.9,2-1.4,3.2-1.4
	c0.9,0,1.8,0.2,2.5,0.4l0.4,0.2l0.3-0.3c1.4-1.2,3.1-1.9,5.2-1.9c2.3,0,4.4,0.9,5.9,2.4l0.4,0.4l0.4-0.2c0.2-0.1,1.2-0.2,1.5-0.2
	c2,0,3.8,0.7,5.1,2c1.7,1.7,1.9,4,1.9,5.2l0,0.7l0.7-0.1c0,0,0.1,0,0.3,0c0.4,0,0.8,0,0.9,0c2.1,0.2,2.7,0.8,4.6,2.3l0.4,0.4
	c1.6,1.4,2.5,2.1,4.5,2.2c0,0,0,0,0,0c0.3,0,0.6-0.1,0.9-0.2c0.3-0.1,0.6-0.2,0.8-0.2c0,0,0,0,0,0c0.2,0,0.3,0,0.4,0.1
	C503.9,58,502.9,59.2,502,59.9z"/>
<path fill="#ED1F25" d="M503.7,57.6c-0.1-0.1-0.2-0.1-0.4-0.1c0,0,0,0,0,0c-0.2,0-0.5,0.1-0.8,0.2c-0.3,0.1-0.6,0.2-0.9,0.2
	c0,0,0,0,0,0c-2.1-0.1-2.9-0.8-4.5-2.2l-0.4-0.4c-1.9-1.6-2.5-2.1-4.6-2.3c-0.1,0-0.5,0-0.9,0c-0.2,0-0.3,0-0.3,0l-0.7,0.1l0-0.7
	c0-1.2-0.2-3.4-1.9-5.2c-1.3-1.3-3-2-5.1-2c-0.3,0-1.2,0.1-1.5,0.2l-0.4,0.2l-0.4-0.4c-1.5-1.6-3.6-2.4-5.9-2.4
	c-2.1,0-3.9,0.6-5.2,1.9l-0.3,0.3l-0.4-0.2c-0.7-0.3-1.6-0.4-2.5-0.4c-1.2,0-2.3,0.5-3.2,1.4c-1.8,1.8-1.3,4.2-1.2,4.9l0.2,0.6
	l-0.7,0.1c-2.9,0.7-5,2.8-5.6,3.4l0,0c-0.2,0.2-0.3,0.4-0.4,0.5c-0.7,0.9-1.4,1.8-3.8,2c0,0-0.1,0-0.1,0c-0.2,0-0.4,0-0.5,0
	c-0.2,0-0.4,0-0.6,0c-0.4,0-0.4,0.1-0.5,0.1c0,0.2,0.2,0.8,0.6,1.5c0.3,0.5,1.6,2.7,4.3,2.7c1.2,0,2.6-0.4,4.1-1.3l0.4-0.2l0.4,0.3
	c1.2,1.1,3.6,2.8,6.7,2.8c1.9,0,3.7-0.4,5.3-1.2l0.4-0.2l0.3,0.4c0.9,0.9,2.4,2.1,4.7,2.1c0,0,0.1,0,0.1,0c2.4,0,3.7-0.9,4.4-1.7
	l0.4-0.5l0.5,0.4c1,0.8,2.2,1.2,3.6,1.2c0.1,0,0.1,0,0.2,0c2-0.1,3.3-0.9,4.5-1.8c0.9-0.6,1.7-1.2,2.8-1.4c0.2,0,0.4-0.1,0.6-0.1
	c0.6,0,1.1,0.2,1.7,0.4c0.7,0.2,1.5,0.5,2.7,0.5c1.1,0,2.3-0.7,3.1-1.3C502.9,59.2,503.9,58,503.7,57.6z M481.5,61.6
	c-0.5,0.7-1.6,1.8-4.2,1.8c-2.8,0-4.2-1.8-4.8-2.7c-0.1-0.2-0.2-0.5,0-0.8c0.3-0.6,0.8-1.9,0.3-3.7c-0.8-2.5-3.5-3.8-5.7-3
	c-2.2,0.8-2.7,3.1-2.2,4.4c0.6,1.4,2,2.3,3.2,1.9c0.6-0.2,1-0.5,1.2-0.8c0.1-0.1-0.1-0.3-0.2-0.2c-1.1,0.8-2.9,0.8-3.7-0.9
	c-1-2,1.1-4.1,2.6-4.1c1.5,0,3.6,0.8,4.1,3.3s-1.7,5.7-5.7,5.7c-3.1,0-5.5-2-6.5-2.9c-0.3-0.3-0.7-0.3-1-0.1
	c-5.2,3.3-7.2-0.1-7.6-0.9c0-0.1,0-0.2,0.1-0.2c3.2-0.4,2.9-0.3,5.7-3.3c2.8-3.1,6.5-3.1,6.5-3.1s-2-3.2,0.3-5.5s5.5-0.2,5.5-0.2
	c3.5-4.1,9.1-2.6,11.3,0.3s1.1,6.5-1.2,8.2c-2.3,1.8-4.8,0.7-6.2-0.8c-1.4-1.5-0.9-3.6,0-4.7c0.8-1.1,2.7-1.8,4.4-0.4
	c1.1,0.9,0.6,2.4,0.2,3.3c-0.1,0.1,0.1,0.3,0.2,0.2c2-2.4-0.4-5.3-3.2-4.6c-3.1,0.7-3.4,4.3-2.4,6.2s5.2,4,8.5,0.6
	c2.7-2.9,1.4-6.6,0.9-7.8c-0.1-0.2,0-0.4,0.2-0.4c6.7-0.6,6.9,4.8,6.8,6.6c0,0.3-0.2,0.6-0.5,0.8l-0.8,0.4c-0.2,0.1-0.5,0.1-0.7,0
	c-2.1-1.2-4.3-0.2-5.7,1.9c-1.1,1.7-0.3,3.9,0.2,4.8C481.8,60.9,481.7,61.3,481.5,61.6z M501.8,59c-0.4,0.3-1.8,1.3-2.9,1.3
	c-2.2,0-3.1-1.2-5.1-0.8c-2.8,0.5-4,3.1-7.2,3.2s-5.1-2.3-5.1-4.8c0-2.5,1.8-3.8,3.9-4s3.1,1.9,3.1,2.8c0,0.9-0.3,2.6-2,2.7
	c-1.7,0.1-2.6-1.7-2.6-1.7s0.2,2.2,2.6,2.1c2.4-0.2,3-2.9,2-4.7c-0.1-0.1,0-0.3,0.1-0.3c0.5-0.3,1.8-1.1,3.1-0.9
	c1.9,0.2,2.6,0.6,4.6,2.3c1.9,1.6,3,2.4,5.5,2.7C501.8,58.9,501.8,58.9,501.8,59z"/>
<path fill="#F3C43E" d="M451.6,58.4c0.4,0.8,2.4,4.2,7.6,0.9c0.3-0.2,0.7-0.2,1,0.1c0.9,0.9,3.4,2.9,6.5,2.9c4,0,6.2-3.2,5.7-5.7
	c-0.5-2.5-2.6-3.3-4.1-3.3s-3.6,2.1-2.6,4.1c0.9,1.8,2.6,1.7,3.7,0.9c0.1-0.1,0.3,0.1,0.2,0.2c-0.2,0.3-0.6,0.7-1.2,0.8
	c-1.2,0.3-2.6-0.6-3.2-1.9s0-3.6,2.2-4.4s4.9,0.5,5.7,3c0.6,1.8,0.1,3.1-0.3,3.7c-0.1,0.2-0.1,0.5,0,0.8c0.5,0.8,2,2.7,4.8,2.7
	c2.5,0,3.7-1.1,4.2-1.8c0.2-0.3,0.2-0.6,0.1-0.9c-0.4-0.9-1.3-3-0.2-4.8c1.4-2.1,3.6-3.1,5.7-1.9c0.2,0.1,0.5,0.1,0.7,0l0.8-0.4
	c0.3-0.2,0.5-0.5,0.5-0.8c0.1-1.8-0.2-7.2-6.8-6.6c-0.2,0-0.3,0.2-0.2,0.4c0.5,1.2,1.9,4.9-0.9,7.8c-3.3,3.4-7.4,1.4-8.5-0.6
	s-0.8-5.5,2.4-6.2c2.8-0.7,5.2,2.3,3.2,4.6c-0.1,0.1-0.3,0-0.2-0.2c0.5-0.9,0.9-2.4-0.2-3.3c-1.7-1.5-3.5-0.8-4.4,0.4
	c-0.8,1.1-1.3,3.2,0,4.7c1.4,1.5,3.9,2.5,6.2,0.8c2.3-1.8,3.4-5.3,1.2-8.2c-2.2-2.9-7.8-4.4-11.3-0.3c0,0-3.3-2.1-5.5,0.2
	c-2.3,2.3-0.3,5.5-0.3,5.5s-3.6,0-6.5,3.1c-2.8,3-2.5,3-5.7,3.3C451.6,58.2,451.6,58.3,451.6,58.4z"/>
<path fill="#F3C43E" d="M501.7,58.9c0.1,0,0.1,0.1,0,0.1c-0.4,0.3-1.8,1.3-2.9,1.3c-2.2,0-3.1-1.2-5.1-0.8c-2.8,0.5-4,3.1-7.2,3.2
	c-3.2,0.1-5.1-2.3-5.1-4.8c0-2.5,1.8-3.8,3.9-4c2.1-0.2,3.1,1.9,3.1,2.8c0,0.9-0.3,2.6-2,2.7s-2.6-1.7-2.6-1.7s0.2,2.2,2.6,2.1
	c2.4-0.2,3-2.9,2-4.7c-0.1-0.1,0-0.3,0.1-0.3c0.5-0.3,1.8-1.1,3.1-0.9c1.9,0.2,2.6,0.6,4.6,2.3C498.1,57.8,499.2,58.6,501.7,58.9z"
	/>
<path fill="#F3C43E" d="M72.4,22.1c-0.2,0-0.3,0-0.5,0c-0.2,0-0.3,0-0.4,0c0,0-0.1,0-0.1,0c-1.8-0.1-2.4-0.9-2.9-1.5
	c-0.1-0.1-0.2-0.3-0.3-0.4l0,0c-0.4-0.5-2.1-2.2-4.3-2.7l-0.5-0.1l0.1-0.5c0.1-0.5,0.5-2.4-0.9-3.8c-0.7-0.7-1.5-1-2.5-1
	c-0.7,0-1.4,0.1-1.9,0.3l-0.3,0.1l-0.2-0.2c-1.1-1-2.4-1.4-4.1-1.4c-1.8,0-3.4,0.7-4.6,1.9L48.7,13l-0.3-0.2
	c-0.2-0.1-0.9-0.2-1.1-0.2c-1.6,0-2.9,0.6-3.9,1.6c-1.3,1.3-1.5,3.1-1.5,4l0,0.6l-0.6-0.1c0,0-0.1,0-0.2,0c-0.3,0-0.6,0-0.7,0
	c-1.6,0.2-2.1,0.6-3.6,1.8l-0.3,0.3c-1.2,1.1-1.9,1.6-3.5,1.7c0,0,0,0,0,0c-0.2,0-0.5-0.1-0.7-0.2c-0.2-0.1-0.5-0.1-0.6-0.1h0
	c-0.1,0-0.2,0-0.3,0.1c-0.1,0.3,0.6,1.2,1.4,1.8c0.6,0.4,1.5,1,2.4,1c0.9,0,1.5-0.2,2.1-0.4c0.4-0.2,0.8-0.3,1.3-0.3
	c0.2,0,0.3,0,0.5,0c0.9,0.2,1.5,0.6,2.2,1.1c1,0.7,1.9,1.4,3.5,1.4c0.1,0,0.1,0,0.2,0c1,0,2-0.3,2.8-0.9l0.4-0.3l0.3,0.4
	c0.5,0.6,1.6,1.3,3.4,1.3c0,0,0.1,0,0.1,0c1.8,0,3-0.9,3.6-1.6l0.3-0.3l0.3,0.2c1.2,0.6,2.6,1,4.1,1c2.4,0,4.3-1.4,5.2-2.2l0.3-0.2
	l0.3,0.2c1.1,0.7,2.2,1,3.1,1c2.1,0,3.2-1.8,3.4-2.1c0.3-0.5,0.4-1,0.4-1.1C72.7,22.1,72.7,22.1,72.4,22.1z M44.6,26.3
	c-2.5-0.1-3.4-2.1-5.6-2.5c-1.6-0.3-2.3,0.6-4,0.6c-0.9,0-1.9-0.8-2.3-1c0,0,0-0.1,0-0.1c2-0.2,2.8-0.8,4.3-2.1
	c1.5-1.3,2.1-1.6,3.6-1.8c1-0.1,2,0.5,2.4,0.7c0.1,0.1,0.1,0.2,0.1,0.3c-0.8,1.4-0.3,3.5,1.6,3.6c1.9,0.1,2-1.6,2-1.6
	s-0.6,1.4-2,1.3c-1.3-0.1-1.6-1.4-1.6-2.1c0-0.7,0.8-2.3,2.4-2.2c1.6,0.1,3,1.2,3,3.1C48.6,24.5,47,26.4,44.6,26.3z M65.8,23.7
	c-0.2-0.2-0.5-0.1-0.8,0.1c-0.7,0.7-2.6,2.3-5,2.3c-3.1,0-4.8-2.5-4.4-4.4c0.4-1.9,2.1-2.5,3.2-2.5c1.2,0,2.8,1.6,2,3.2
	c-0.7,1.4-2,1.3-2.9,0.7c-0.1-0.1-0.2,0.1-0.1,0.1c0.2,0.2,0.5,0.5,0.9,0.6c0.9,0.2,2.1-0.5,2.5-1.5c0.5-1.1,0-2.8-1.7-3.4
	c-1.7-0.6-3.8,0.4-4.4,2.3c-0.4,1.4-0.1,2.4,0.2,2.9c0.1,0.2,0.1,0.4,0,0.6c-0.4,0.7-1.5,2.1-3.7,2.1c-2,0-2.9-0.8-3.2-1.4
	c-0.1-0.2-0.2-0.5,0-0.7c0.3-0.7,1-2.4,0.1-3.7c-1.1-1.7-2.8-2.4-4.4-1.5c-0.2,0.1-0.4,0.1-0.5,0l-0.6-0.3c-0.2-0.1-0.4-0.4-0.4-0.6
	c-0.1-1.4,0.1-5.6,5.3-5.2c0.2,0,0.2,0.2,0.2,0.3c-0.4,0.9-1.4,3.8,0.7,6.1c2.5,2.7,5.7,1,6.6-0.4c0.8-1.5,0.6-4.2-1.8-4.8
	c-2.2-0.5-4,1.8-2.5,3.6c0.1,0.1,0.2,0,0.2-0.1c-0.4-0.7-0.7-1.8,0.1-2.6c1.3-1.1,2.7-0.6,3.4,0.3c0.7,0.9,1,2.5,0,3.7
	c-1.1,1.2-3,2-4.8,0.6c-1.8-1.4-2.6-4.1-0.9-6.4c1.7-2.3,6-3.4,8.8-0.2c0,0,2.5-1.7,4.3,0.2c1.8,1.8,0.2,4.3,0.2,4.3s2.8,0,5,2.4
	c2.1,2.3,1.9,2.3,4.4,2.6c0.1,0,0.1,0.1,0.1,0.1C71.4,23.6,69.9,26.3,65.8,23.7z"/>
<path fill="#FFFFFF" d="M71.7,23c-0.3,0.6-1.8,3.3-5.9,0.7c-0.2-0.2-0.5-0.1-0.8,0.1c-0.7,0.7-2.6,2.3-5,2.3c-3.1,0-4.8-2.5-4.4-4.4
	c0.4-1.9,2.1-2.5,3.2-2.5c1.2,0,2.8,1.6,2,3.2c-0.7,1.4-2,1.3-2.9,0.7c-0.1-0.1-0.2,0.1-0.1,0.1c0.2,0.2,0.5,0.5,0.9,0.6
	c0.9,0.2,2.1-0.5,2.5-1.5c0.5-1.1,0-2.8-1.7-3.4c-1.7-0.6-3.8,0.4-4.4,2.3c-0.4,1.4-0.1,2.4,0.2,2.9c0.1,0.2,0.1,0.4,0,0.6
	c-0.4,0.7-1.5,2.1-3.7,2.1c-2,0-2.9-0.8-3.2-1.4c-0.1-0.2-0.2-0.5,0-0.7c0.3-0.7,1-2.4,0.1-3.7c-1.1-1.7-2.8-2.4-4.4-1.5
	c-0.2,0.1-0.4,0.1-0.5,0l-0.6-0.3c-0.2-0.1-0.4-0.4-0.4-0.6c-0.1-1.4,0.1-5.6,5.3-5.2c0.2,0,0.2,0.2,0.2,0.3
	c-0.4,0.9-1.4,3.8,0.7,6.1c2.5,2.7,5.7,1,6.6-0.4s0.6-4.2-1.8-4.8c-2.2-0.5-4,1.8-2.5,3.6c0.1,0.1,0.2,0,0.2-0.1
	c-0.4-0.7-0.7-1.8,0.1-2.6c1.3-1.1,2.7-0.6,3.4,0.3c0.7,0.9,1,2.5,0,3.7s-3,2-4.8,0.6c-1.8-1.4-2.6-4.1-0.9-6.4
	c1.7-2.3,6-3.4,8.8-0.2c0,0,2.5-1.7,4.3,0.2c1.8,1.8,0.2,4.3,0.2,4.3s2.8,0,5,2.4c2.1,2.3,1.9,2.3,4.4,2.6
	C71.7,22.9,71.7,22.9,71.7,23z"/>
<path fill="#FFFFFF" d="M32.8,23.4C32.7,23.4,32.7,23.4,32.8,23.4c0.3,0.3,1.3,1.1,2.2,1.1c1.7,0,2.4-0.9,4-0.6
	c2.2,0.4,3.1,2.4,5.6,2.5s4-1.8,4-3.7c0-1.9-1.4-3-3-3.1c-1.6-0.1-2.4,1.5-2.4,2.2c0,0.7,0.2,2,1.6,2.1c1.3,0.1,2-1.3,2-1.3
	s-0.1,1.7-2,1.6c-1.8-0.1-2.3-2.3-1.6-3.6c0.1-0.1,0-0.2-0.1-0.3c-0.4-0.3-1.4-0.8-2.4-0.7c-1.5,0.2-2,0.5-3.6,1.8
	C35.6,22.5,34.8,23.1,32.8,23.4z"/>
<g>
	<g>
		<path fill="#F3C43E" d="M422.6,67c-0.8,0-1.6-0.4-2.1-1.2c-0.1-0.2-0.2-0.5-0.3-0.7c0-0.1-0.1-0.3-0.2-0.4c-0.2-0.4-0.4-0.7-0.8-1
			c-0.4-0.3-0.9-0.5-1.4-0.5c0,0,0,0,0,0c0,0,0,0,0,0c0.8,0,1.6-0.4,2-1.1c0.1-0.2,0.2-0.4,0.3-0.7c0.1-0.1,0.1-0.3,0.2-0.4
			c0.2-0.4,0.5-0.7,0.8-1c0.4-0.3,0.9-0.5,1.5-0.5c0.5,0,1,0.2,1.5,0.5c0.3,0.3,0.6,0.6,0.8,1c0.1,0.1,0.1,0.3,0.2,0.4
			c0.1,0.2,0.2,0.5,0.3,0.7c0.4,0.7,1.2,1.1,2,1.1c0,0,0,0,0,0c0,0,0,0,0,0c-0.5,0-1,0.2-1.4,0.5c-0.3,0.2-0.6,0.6-0.8,1
			c-0.1,0.1-0.1,0.3-0.2,0.4c-0.1,0.2-0.2,0.5-0.3,0.7C424.2,66.5,423.4,67,422.6,67z M418.3,63.2c0.4,0.1,0.7,0.2,1,0.4
			c0.3,0.3,0.6,0.6,0.8,1c0.1,0.1,0.1,0.3,0.2,0.4c0.1,0.2,0.2,0.5,0.3,0.7c0.4,0.7,1.2,1.1,2,1.1s1.6-0.4,2-1.1
			c0.1-0.2,0.2-0.4,0.3-0.7c0.1-0.1,0.1-0.3,0.2-0.4c0.2-0.4,0.5-0.7,0.8-1c0.3-0.2,0.6-0.4,1-0.4c-0.7-0.1-1.2-0.5-1.6-1.1
			c-0.1-0.2-0.2-0.5-0.3-0.7c0-0.1-0.1-0.3-0.2-0.4c-0.2-0.4-0.4-0.7-0.8-1c-0.4-0.3-0.9-0.5-1.4-0.5c-0.5,0-1,0.2-1.4,0.5
			c-0.3,0.2-0.6,0.6-0.8,1c-0.1,0.1-0.1,0.3-0.2,0.4c-0.1,0.2-0.2,0.5-0.3,0.7C419.6,62.7,419,63.1,418.3,63.2z"/>
		<path fill="#F3C43E" d="M419.8,64.3C419.8,64.3,419.8,64.2,419.8,64.3C419.8,64.2,419.8,64.2,419.8,64.3c0.5-0.4,0.9-1,1.2-1.4
			c0.1-0.2,0.2-0.5,0.3-0.7c0.1-0.4,0.2-0.6,0.5-0.8c0.2-0.2,0.5-0.3,0.7-0.3c0.3,0,0.5,0.1,0.7,0.3c0.3,0.2,0.3,0.5,0.5,0.8
			c0.1,0.2,0.2,0.5,0.3,0.7c0.2,0.4,0.7,1,1.3,1.3c0,0,0,0,0,0.1c0,0,0,0-0.1,0c-0.6-0.3-1.1-1-1.3-1.4c-0.1-0.2-0.2-0.5-0.3-0.7
			c-0.1-0.3-0.2-0.6-0.4-0.8c-0.2-0.2-0.4-0.2-0.7-0.2c-0.2,0-0.5,0.1-0.7,0.2c-0.2,0.2-0.3,0.5-0.5,0.8c-0.1,0.2-0.2,0.5-0.3,0.7
			C420.9,63.4,420.4,63.9,419.8,64.3C419.9,64.2,419.8,64.3,419.8,64.3z"/>
		<path fill="#F3C43E" d="M422.6,64.7c-0.1,0-0.2-0.1-0.2-0.2v-0.8c0-0.1,0.1-0.2,0.2-0.2c0.1,0,0.2,0.1,0.2,0.2v0.8
			C422.8,64.7,422.7,64.7,422.6,64.7z"/>
		<path fill="#F3C43E" d="M422.6,65.1c-0.1,0-0.2,0.1-0.2,0.2v1.6c0.1,0,0.1,0,0.2,0c0.1,0,0.1,0,0.2,0v-1.6
			C422.8,65.2,422.7,65.1,422.6,65.1z"/>
		<path fill="#F3C43E" d="M421.4,65.1c-0.1,0-0.2,0.1-0.2,0.2v1.2c0.1,0.1,0.2,0.1,0.4,0.2v-1.4C421.6,65.2,421.5,65.1,421.4,65.1z"
			/>
		<path fill="#F3C43E" d="M423.7,65.1c-0.1,0-0.2,0.1-0.2,0.2v1.4c0.1-0.1,0.2-0.1,0.4-0.2v-1.2C423.9,65.2,423.8,65.1,423.7,65.1z"
			/>
		<path fill="#F3C43E" d="M422.8,62.9c0,0.1-0.1,0.2-0.2,0.2c-0.1,0-0.2-0.1-0.2-0.2c0-0.1,0.1-0.2,0.2-0.2
			C422.7,62.7,422.8,62.8,422.8,62.9z"/>
		<path fill="#F3C43E" d="M421.6,64.5c0,0.1-0.1,0.2-0.2,0.2s-0.2-0.1-0.2-0.2s0.1-0.2,0.2-0.2S421.6,64.4,421.6,64.5z"/>
		<path fill="#F3C43E" d="M423.6,64.5c0,0.1,0.1,0.2,0.2,0.2s0.2-0.1,0.2-0.2s-0.1-0.2-0.2-0.2S423.6,64.4,423.6,64.5z"/>
		<path fill="#F3C43E" d="M426.1,63.5c-0.6,0-1.1-0.8-1.3-1.2c-0.1-0.2-0.2-0.4-0.3-0.6c-0.1-0.4-0.3-0.8-0.7-1.1
			c-0.3-0.3-0.8-0.4-1.2-0.4c-0.4,0-0.8,0.2-1.2,0.4c-0.4,0.3-0.6,0.7-0.7,1.1c-0.1,0.2-0.2,0.4-0.3,0.6c-0.2,0.3-0.7,1.1-1.2,1.2
			c0,0,0.1,0.1,0.1,0.1c0.1,0.1,0.2,0.1,0.2,0.2c0.5-0.2,1-0.9,1.2-1.3c0.1-0.2,0.2-0.4,0.3-0.7c0.1-0.4,0.3-0.7,0.6-1
			c0.3-0.2,0.6-0.3,1-0.3c0.3,0,0.7,0.1,1,0.3c0.3,0.3,0.5,0.6,0.6,1c0.1,0.2,0.2,0.4,0.3,0.7c0.2,0.4,0.7,1,1.3,1.3
			c0.1-0.1,0.1-0.1,0.2-0.2C425.9,63.6,426,63.6,426.1,63.5z"/>
	</g>
	<g>
		<path fill="#F3C43E" d="M432,67c-0.8,0-1.6-0.4-2.1-1.2c-0.1-0.2-0.2-0.5-0.3-0.7c0-0.1-0.1-0.3-0.2-0.4c-0.2-0.4-0.4-0.7-0.8-1
			c-0.4-0.3-0.9-0.5-1.4-0.5c0,0,0,0,0,0c0,0,0,0,0,0c0.8,0,1.6-0.4,2-1.1c0.1-0.2,0.2-0.4,0.3-0.7c0.1-0.1,0.1-0.3,0.2-0.4
			c0.2-0.4,0.5-0.7,0.8-1c0.4-0.3,0.9-0.5,1.5-0.5c0.5,0,1,0.2,1.5,0.5c0.3,0.3,0.6,0.6,0.8,1c0.1,0.1,0.1,0.3,0.2,0.4
			c0.1,0.2,0.2,0.5,0.3,0.7c0.4,0.7,1.2,1.1,2,1.1c0,0,0,0,0,0c0,0,0,0,0,0c-0.5,0-1,0.2-1.4,0.5c-0.3,0.2-0.6,0.6-0.8,1
			c-0.1,0.1-0.1,0.3-0.2,0.4c-0.1,0.2-0.2,0.5-0.3,0.7C433.6,66.5,432.9,67,432,67z M427.8,63.2c0.4,0.1,0.7,0.2,1,0.4
			c0.3,0.3,0.6,0.6,0.8,1c0.1,0.1,0.1,0.3,0.2,0.4c0.1,0.2,0.2,0.5,0.3,0.7c0.4,0.7,1.2,1.1,2,1.1c0.8,0,1.6-0.4,2-1.1
			c0.1-0.2,0.2-0.4,0.3-0.7c0.1-0.1,0.1-0.3,0.2-0.4c0.2-0.4,0.5-0.7,0.8-1c0.3-0.2,0.6-0.4,1-0.4c-0.7-0.1-1.2-0.5-1.6-1.1
			c-0.1-0.2-0.2-0.5-0.3-0.7c0-0.1-0.1-0.3-0.2-0.4c-0.2-0.4-0.4-0.7-0.8-1c-0.4-0.3-0.9-0.5-1.4-0.5c-0.5,0-1,0.2-1.4,0.5
			c-0.3,0.2-0.6,0.6-0.8,1c-0.1,0.1-0.1,0.3-0.2,0.4c-0.1,0.2-0.2,0.5-0.3,0.7C429,62.7,428.4,63.1,427.8,63.2z"/>
		<path fill="#F3C43E" d="M429.3,64.3C429.3,64.3,429.2,64.2,429.3,64.3C429.2,64.2,429.2,64.2,429.3,64.3c0.5-0.4,0.9-1,1.2-1.4
			c0.1-0.2,0.2-0.5,0.3-0.7c0.1-0.4,0.2-0.6,0.5-0.8c0.2-0.2,0.5-0.3,0.7-0.3c0.3,0,0.5,0.1,0.7,0.3c0.3,0.2,0.3,0.5,0.5,0.8
			c0.1,0.2,0.2,0.5,0.3,0.7c0.2,0.4,0.7,1,1.3,1.3c0,0,0,0,0,0.1c0,0,0,0-0.1,0c-0.6-0.3-1.1-1-1.3-1.4c-0.1-0.2-0.2-0.5-0.3-0.7
			c-0.1-0.3-0.2-0.6-0.4-0.8c-0.2-0.2-0.4-0.2-0.7-0.2c-0.2,0-0.5,0.1-0.7,0.2c-0.2,0.2-0.3,0.5-0.5,0.8c-0.1,0.2-0.2,0.5-0.3,0.7
			C430.3,63.4,429.9,63.9,429.3,64.3C429.3,64.2,429.3,64.3,429.3,64.3z"/>
		<path fill="#F3C43E" d="M432,64.7c-0.1,0-0.2-0.1-0.2-0.2v-0.8c0-0.1,0.1-0.2,0.2-0.2s0.2,0.1,0.2,0.2v0.8
			C432.2,64.7,432.1,64.7,432,64.7z"/>
		<path fill="#F3C43E" d="M432,65.1c-0.1,0-0.2,0.1-0.2,0.2v1.6c0.1,0,0.1,0,0.2,0c0.1,0,0.1,0,0.2,0v-1.6
			C432.2,65.2,432.1,65.1,432,65.1z"/>
		<path fill="#F3C43E" d="M430.9,65.1c-0.1,0-0.2,0.1-0.2,0.2v1.2c0.1,0.1,0.2,0.1,0.4,0.2v-1.4C431.1,65.2,431,65.1,430.9,65.1z"/>
		<path fill="#F3C43E" d="M433.2,65.1c-0.1,0-0.2,0.1-0.2,0.2v1.4c0.1-0.1,0.2-0.1,0.4-0.2v-1.2C433.3,65.2,433.3,65.1,433.2,65.1z"
			/>
		<path fill="#F3C43E" d="M432.2,62.9c0,0.1-0.1,0.2-0.2,0.2s-0.2-0.1-0.2-0.2c0-0.1,0.1-0.2,0.2-0.2S432.2,62.8,432.2,62.9z"/>
		<path fill="#F3C43E" d="M431.1,64.5c0,0.1-0.1,0.2-0.2,0.2s-0.2-0.1-0.2-0.2s0.1-0.2,0.2-0.2S431.1,64.4,431.1,64.5z"/>
		<path fill="#F3C43E" d="M433,64.5c0,0.1,0.1,0.2,0.2,0.2s0.2-0.1,0.2-0.2s-0.1-0.2-0.2-0.2S433,64.4,433,64.5z"/>
		<path fill="#F3C43E" d="M435.5,63.5c-0.6,0-1.1-0.8-1.3-1.2c-0.1-0.2-0.2-0.4-0.3-0.6c-0.1-0.4-0.3-0.8-0.7-1.1
			c-0.3-0.3-0.8-0.4-1.2-0.4c-0.4,0-0.8,0.2-1.2,0.4c-0.4,0.3-0.6,0.7-0.7,1.1c-0.1,0.2-0.2,0.4-0.3,0.6c-0.2,0.3-0.7,1.1-1.2,1.2
			c0,0,0.1,0.1,0.1,0.1c0.1,0.1,0.2,0.1,0.2,0.2c0.5-0.2,1-0.9,1.2-1.3c0.1-0.2,0.2-0.4,0.3-0.7c0.1-0.4,0.3-0.7,0.6-1
			c0.3-0.2,0.6-0.3,1-0.3c0.3,0,0.7,0.1,1,0.3c0.3,0.3,0.5,0.6,0.6,1c0.1,0.2,0.2,0.4,0.3,0.7c0.2,0.4,0.7,1,1.3,1.3
			c0.1-0.1,0.1-0.1,0.2-0.2C435.4,63.6,435.5,63.6,435.5,63.5z"/>
	</g>
	<g>
		<path fill="#F3C43E" d="M427.3,70.7c-0.8,0-1.6-0.4-2.1-1.2c-0.1-0.2-0.2-0.5-0.3-0.7c0-0.1-0.1-0.3-0.2-0.4
			c-0.2-0.4-0.4-0.7-0.8-1c-0.4-0.3-0.9-0.5-1.4-0.5c0,0,0,0,0,0c0,0,0,0,0,0c0.8,0,1.6-0.4,2-1.1c0.1-0.2,0.2-0.4,0.3-0.7
			c0.1-0.1,0.1-0.3,0.2-0.4c0.2-0.4,0.5-0.7,0.8-1c0.4-0.3,0.9-0.5,1.5-0.5c0.5,0,1,0.2,1.5,0.5c0.3,0.3,0.6,0.6,0.8,1
			c0.1,0.1,0.1,0.3,0.2,0.4c0.1,0.2,0.2,0.5,0.3,0.7c0.4,0.7,1.2,1.1,2,1.1c0,0,0,0,0,0c0,0,0,0,0,0c-0.5,0-1,0.2-1.4,0.5
			c-0.3,0.2-0.6,0.6-0.8,1c-0.1,0.1-0.1,0.3-0.2,0.4c-0.1,0.2-0.2,0.5-0.3,0.7C428.9,70.3,428.1,70.7,427.3,70.7z M423,66.9
			c0.4,0.1,0.7,0.2,1,0.4c0.3,0.3,0.6,0.6,0.8,1c0.1,0.1,0.1,0.3,0.2,0.4c0.1,0.2,0.2,0.5,0.3,0.7c0.4,0.7,1.2,1.1,2,1.1
			c0.8,0,1.6-0.4,2-1.1c0.1-0.2,0.2-0.4,0.3-0.7c0.1-0.1,0.1-0.3,0.2-0.4c0.2-0.4,0.5-0.7,0.8-1c0.3-0.2,0.6-0.4,1-0.4
			c-0.7-0.1-1.2-0.5-1.6-1.1c-0.1-0.2-0.2-0.5-0.3-0.7c0-0.1-0.1-0.3-0.2-0.4c-0.2-0.4-0.4-0.7-0.8-1c-0.4-0.3-0.9-0.5-1.4-0.5
			c-0.5,0-1,0.2-1.4,0.5c-0.3,0.2-0.6,0.6-0.8,1c-0.1,0.1-0.1,0.3-0.2,0.4c-0.1,0.2-0.2,0.5-0.3,0.7C424.3,66.4,423.7,66.8,423,66.9
			z"/>
		<path fill="#F3C43E" d="M424.6,68C424.5,68,424.5,68,424.6,68C424.5,67.9,424.5,67.9,424.6,68c0.5-0.4,0.9-1,1.2-1.4
			c0.1-0.2,0.2-0.5,0.3-0.7c0.1-0.4,0.2-0.6,0.5-0.8c0.2-0.2,0.5-0.3,0.7-0.3c0.3,0,0.5,0.1,0.7,0.3c0.3,0.2,0.3,0.5,0.5,0.8
			c0.1,0.2,0.2,0.5,0.3,0.7c0.2,0.4,0.7,1,1.3,1.3c0,0,0,0,0,0.1s0,0-0.1,0c-0.6-0.3-1.1-1-1.3-1.4c-0.1-0.2-0.2-0.5-0.3-0.7
			c-0.1-0.3-0.2-0.6-0.4-0.8c-0.2-0.2-0.4-0.2-0.7-0.2c-0.2,0-0.5,0.1-0.7,0.2c-0.2,0.2-0.3,0.5-0.5,0.8c-0.1,0.2-0.2,0.5-0.3,0.7
			C425.6,67.1,425.1,67.7,424.6,68C424.6,68,424.6,68,424.6,68z"/>
		<path fill="#F3C43E" d="M427.3,68.5c-0.1,0-0.2-0.1-0.2-0.2v-0.8c0-0.1,0.1-0.2,0.2-0.2s0.2,0.1,0.2,0.2v0.8
			C427.5,68.4,427.4,68.5,427.3,68.5z"/>
		<path fill="#F3C43E" d="M427.3,68.9c-0.1,0-0.2,0.1-0.2,0.2v1.6c0.1,0,0.1,0,0.2,0s0.1,0,0.2,0v-1.6
			C427.5,69,427.4,68.9,427.3,68.9z"/>
		<path fill="#F3C43E" d="M426.2,68.9c-0.1,0-0.2,0.1-0.2,0.2v1.2c0.1,0.1,0.2,0.1,0.4,0.2v-1.4C426.3,69,426.3,68.9,426.2,68.9z"/>
		<path fill="#F3C43E" d="M428.5,68.9c-0.1,0-0.2,0.1-0.2,0.2v1.4c0.1-0.1,0.2-0.1,0.4-0.2v-1.2C428.6,69,428.5,68.9,428.5,68.9z"/>
		<path fill="#F3C43E" d="M427.5,66.6c0,0.1-0.1,0.2-0.2,0.2s-0.2-0.1-0.2-0.2s0.1-0.2,0.2-0.2S427.5,66.5,427.5,66.6z"/>
		<circle fill="#F3C43E" cx="426.1" cy="68.3" r="0.2"/>
		<circle fill="#F3C43E" cx="428.5" cy="68.3" r="0.2"/>
		<path fill="#F3C43E" d="M430.8,67.3c-0.6,0-1.1-0.8-1.3-1.2c-0.1-0.2-0.2-0.4-0.3-0.6c-0.1-0.4-0.3-0.8-0.7-1.1
			c-0.3-0.3-0.8-0.4-1.2-0.4c-0.4,0-0.8,0.2-1.2,0.4c-0.4,0.3-0.6,0.7-0.7,1.1c-0.1,0.2-0.2,0.4-0.3,0.6c-0.2,0.3-0.7,1.1-1.2,1.2
			c0,0,0.1,0.1,0.1,0.1c0.1,0.1,0.2,0.1,0.2,0.2c0.5-0.2,1-0.9,1.2-1.3c0.1-0.2,0.2-0.4,0.3-0.7c0.1-0.4,0.3-0.7,0.6-1
			c0.3-0.2,0.6-0.3,1-0.3c0.3,0,0.7,0.1,1,0.3c0.3,0.3,0.5,0.6,0.6,1c0.1,0.2,0.2,0.4,0.3,0.7c0.2,0.4,0.7,1,1.3,1.3
			c0.1-0.1,0.1-0.1,0.2-0.2C430.7,67.4,430.7,67.3,430.8,67.3z"/>
	</g>
</g>
<path fill="#ED1F25" d="M41.5,16.7c-0.3-1.2-0.8-2.5-1.9-3.6c-4.1-4.3-9.3-1.7-10.6,0.7c-1.4,2.4-0.9,6.8,3,7.8
	c3.5,0.8,6.5-2.9,4-5.8c-0.1-0.2-0.4,0-0.3,0.2c0.6,1.1,1.1,2.9-0.2,4.1C33.3,21.9,31,21,30,19.6c-1.1-1.4-1.7-4.1,0-5.9
	c1.7-1.9,4.9-3.2,7.7-0.9c1.7,1.3,2.8,3.3,3,5.5c0.2,0,0.5,0,0.6,0C41.3,17.8,41.4,17.2,41.5,16.7C41.5,16.7,41.5,16.7,41.5,16.7z"
	/>
<path fill="#ED1F25" d="M40.5,18.3C40.4,18.3,40.4,18.3,40.5,18.3C40.4,18.3,40.4,18.3,40.5,18.3z"/>
<path fill="#ED1F25" d="M35.7,25.6C35.7,25.6,35.8,25.6,35.7,25.6C35.8,25.6,35.7,25.6,35.7,25.6z"/>
<g>
	<path fill="#ED1F25" d="M48.6,12.4c0-0.1,0-0.2,0-0.3c1.2-2.2,0.4-5.7-2.5-5.8c-3.1-0.2-3.3,2.6-3.3,2.6s1-2.3,3.2-2.1
		c2.2,0.2,2.6,2.3,2.6,3.4c0,0.5-0.3,1.4-0.8,2.1c0,0,0,0,0,0C48.1,12.3,48.5,12.3,48.6,12.4C48.6,12.4,48.6,12.4,48.6,12.4
		C48.6,12.4,48.6,12.4,48.6,12.4z"/>
	<path fill="#ED1F25" d="M65.5,6.2c-1-0.7-2.5-1.6-3.9-1.6c-1.4,0-2.4,0.3-3.3,0.7c-0.7,0.2-1.3,0.5-2.1,0.5c-0.3,0-0.5,0-0.8-0.1
		c-1.4-0.3-2.4-1-3.6-1.8c-1.5-1.1-3.1-2.2-5.6-2.3c-0.1,0-0.2,0-0.3,0c-1.7,0-3.2,0.5-4.5,1.5l-0.6,0.5L40.4,3
		c-0.9-1-2.5-2.1-5.5-2.1c-0.1,0-0.1,0-0.2,0c-2.9,0-4.8,1.4-5.9,2.6l-0.4,0.5l-0.6-0.3c-2-1-4.2-1.6-6.6-1.6
		c-3.8,0-6.9,2.2-8.3,3.6L12.5,6L12,5.7C10.2,4.6,8.5,4.1,7,4.1c-3.4,0-5.1,2.8-5.4,3.4C1,8.4,0.8,9.1,0.8,9.3
		c0,0.1,0.1,0.2,0.6,0.2c0.2,0,0.5,0,0.8-0.1c0.2,0,0.5-0.1,0.7-0.1c0,0,0.1,0,0.1,0c2.9,0.2,3.9,1.4,4.7,2.5
		c0.2,0.2,0.4,0.5,0.6,0.7l0,0c0.7,0.8,3.4,3.5,7,4.3l0.8,0.2l-0.2,0.8c-0.2,0.9-0.7,3.8,1.5,6.1c1.1,1.1,2.4,1.7,4,1.7
		c1.1,0,2.3-0.2,3.1-0.5l0.5-0.2l0.4,0.3c1.7,1.5,3.9,2.3,6.5,2.3c2.7,0,5.1-0.9,6.9-2.6c0,0,0,0,0,0c-0.1,0-0.3,0-0.4,0
		c-0.4,0-0.7,0.1-1.1,0.3c-0.3,0.1-0.6,0.2-0.9,0.3c-3.3,1.7-8,1.7-11.2-2.1c0,0-4.1,2.7-6.9-0.3c-2.8-2.9-0.3-6.9-0.3-6.9
		s-4.6,0-8.1-3.8C6.3,8.6,6.6,8.7,2.6,8.2C2.5,8.2,2.5,8.1,2.5,8C3,7,5.5,2.8,12,6.9c0.4,0.2,0.9,0.2,1.2-0.1
		c1.2-1.2,4.2-3.7,8.1-3.7c5,0,7.7,4,7.1,7.1c-0.6,3.1-3.3,4.1-5.2,4.1s-4.5-2.6-3.3-5.2c1.1-2.2,3.2-2.1,4.7-1.2
		c0.1,0.1,0.3-0.1,0.2-0.2c-0.3-0.4-0.7-0.8-1.5-1c-1.5-0.4-3.3,0.7-4,2.4c-0.7,1.7,0,4.6,2.7,5.6c2.7,1,6.1-0.7,7.1-3.8
		c0.7-2.3,0.1-3.9-0.3-4.7c-0.2-0.3-0.2-0.7,0-1c0.7-1.1,2.5-3.3,5.9-3.4c3.2,0,4.6,1.4,5.2,2.2c0.2,0.4,0.3,0.8,0.1,1.2
		c-0.5,1.1-1.6,3.8-0.2,6c0.8,1.3,1.9,2.2,3.1,2.7c0.2-0.2,0.4-0.4,0.6-0.5c0,0,0,0,0,0c-2-0.6-3.6-2.2-3.7-4.8c0-3.1,2.4-6.1,6.4-6
		c4,0.1,5.5,3.3,9,4c2.6,0.5,3.7-1,6.4-1c1.4,0,3.1,1.2,3.6,1.7c0.1,0,0,0.1,0,0.1c-3.2,0.3-4.5,1.3-6.9,3.4
		c-0.3,0.3-0.6,0.5-0.9,0.7l0,0c0.2,0.1,0.3,0.2,0.5,0.4c0.3-0.1,0.8-0.2,1.2-0.3l0.2-0.2c2-1.7,3.1-2.6,5.7-2.7c0,0,0,0,0.1,0
		c0.4,0,0.8,0.1,1.1,0.2c0.4,0.1,0.7,0.2,1,0.2c0,0,0,0,0,0c0.2,0,0.3-0.1,0.5-0.2C68,8.6,66.7,7,65.5,6.2z"/>
</g>
<path fill="#F3C43E" d="M35,25.6c-1,0-2-0.6-2.7-1.1c-0.4-0.3-2-1.7-1.5-2.5c0.6-0.7,1.6,0,2.1,0c1.5,0,2-0.6,3.4-1.7
	c1.6-1.3,2.2-1.9,4-2.1c0.1,0,0.2,0,0.4,0c-0.2-2.2-1.3-4.2-3-5.5c-2.9-2.2-6-0.9-7.7,0.9c-1.7,1.9-1.1,4.5,0,5.9
	c1.1,1.4,3.4,2.3,5.5,0.5c1.3-1.2,0.8-3,0.2-4.1c-0.1-0.2,0.2-0.4,0.3-0.2c2.5,3-0.5,6.7-4,5.8c-3.9-0.9-4.3-5.4-3-7.8
	c1.4-2.4,6.5-5,10.6-0.7c1.1,1.1,1.6,2.4,1.9,3.6c0.2-0.9,0.6-1.9,1.4-2.8c0,0,0,0,0,0c-1.2-0.5-2.2-1.4-3.1-2.7
	c-1.4-2.2-0.3-4.8,0.2-6c0.2-0.4,0.2-0.8-0.1-1.2c-0.6-0.9-2-2.3-5.2-2.2c-3.5,0-5.3,2.3-5.9,3.4c-0.2,0.3-0.2,0.7,0,1
	c0.4,0.7,1,2.4,0.3,4.7c-1,3.1-4.4,4.8-7.1,3.8c-2.7-1-3.4-3.9-2.7-5.6c0.7-1.7,2.5-2.8,4-2.4c0.8,0.2,1.2,0.7,1.5,1
	c0.1,0.1-0.1,0.3-0.2,0.2c-1.4-1-3.6-1.1-4.7,1.2c-1.2,2.5,1.4,5.2,3.3,5.2s4.6-1,5.2-4.1c0.6-3.1-2.1-7.1-7.1-7.1
	c-3.9,0-6.9,2.5-8.1,3.7c-0.3,0.3-0.8,0.4-1.2,0.1C5.5,2.8,3,7,2.5,8c0,0.1,0,0.2,0.1,0.2c4,0.5,3.6,0.4,7.1,4.2
	c3.5,3.8,8.1,3.8,8.1,3.8s-2.5,3.9,0.3,6.9c2.8,2.9,6.9,0.3,6.9,0.3c3.3,3.8,7.9,3.8,11.2,2.1C35.9,25.5,35.5,25.6,35,25.6z"/>
<path fill="#F3C43E" d="M43.5,13.4c1-0.7,2.2-1.2,3.7-1.2c0.1,0,0.3,0,0.6,0.1c0.6-0.7,0.8-1.6,0.8-2.1c0-1.1-0.4-3.2-2.6-3.4
	c-2.2-0.2-3.2,2.1-3.2,2.1s0.2-2.8,3.3-2.6c2.9,0.2,3.7,3.7,2.5,5.8c0,0.1,0,0.2,0,0.3c1.2-1.3,3-2,4.9-2c1.5,0,2.8,0.4,3.9,1.2
	c0.3-0.2,0.6-0.5,0.9-0.7c2.4-2,3.7-3,6.9-3.4c0.1,0,0.1-0.1,0-0.1c-0.5-0.4-2.2-1.7-3.6-1.7c-2.7,0-3.8,1.5-6.4,1
	c-3.5-0.7-5-3.9-9-4c-4-0.1-6.4,2.9-6.4,6C39.9,11.2,41.5,12.8,43.5,13.4z"/>
<path fill="#ED1F25" d="M80.6,42.4c1.9-1.4,5.1-2.3,6.2-4.6c0.9-1.7,1-11.1,0.6-13.1c-0.3-1.3-1.8-2.3-3.1-2.5
	c-2-0.3-6.7-0.4-11.1-0.3c0,0,0,0.1,0.1,0.1c0.1,0.3-0.3,1.1-0.5,1.5c-0.4,0.7-1.6,2.4-3.8,2.4c-1,0-2.2-0.4-3.4-1.1
	C65,25.4,64.1,26,63,26.5l-0.6,2.7l4.8,0.7l-2.5,1.8l-0.1,9.8L62,43.4l2.5,5.6v6.7l6.7-0.4l0.2-8.4l3.9-1.6
	c2.5,5.5,6.2,11.4,13,11.2l0.4-7.4C84.6,49.1,82.6,45.6,80.6,42.4z M71.5,38.8v-9.1h9.1C82.1,36.3,76.3,37,71.5,38.8z"/>
<g>
	<path fill="#ED1F25" d="M39.6,25.3c-1.7,1.8-4,2.8-6.6,3.1l-0.2,3h6.5l-8.7,23l6,1.2L45.4,34l1.3,0l7.8,22.1c1.2-0.5,6-1.6,6.1-2.8
		l-7.8-21.9l5.2,0l0.5-4.3c-1.3-0.2-2.2-0.6-2.8-0.9c-0.7,0.8-2,1.8-4,1.8c0,0-0.1,0-0.1,0c-2,0-3.2-0.8-3.8-1.5
		c-0.9,0.7-1.9,1-3.1,1c-0.1,0-0.1,0-0.2,0c-1.7-0.1-2.8-0.8-3.8-1.5C40.4,25.7,40,25.5,39.6,25.3L39.6,25.3z"/>
</g>
<g>
	<path fill="#F3C43E" d="M58.5,11.7C58.5,11.7,58.5,11.7,58.5,11.7C58.5,11.7,58.5,11.7,58.5,11.7z"/>
	<path fill="#F3C43E" d="M66,5.5c-1.1-0.8-2.7-1.7-4.4-1.7c-1.5,0-2.7,0.4-3.6,0.7c-0.7,0.2-1.2,0.4-1.8,0.4c-0.2,0-0.4,0-0.6-0.1
		c-1.2-0.2-2.1-0.9-3.2-1.7c-1.6-1.1-3.3-2.3-6-2.4c-0.1,0-0.2,0-0.3,0c-1.9,0-3.6,0.6-5,1.6c-1-1.1-2.8-2.4-6.1-2.4
		c-0.1,0-0.1,0-0.2,0c-3.2,0-5.3,1.6-6.5,2.9c-1.3-0.7-3.6-1.6-7-1.6c-4.1,0-7.3,2.4-8.9,3.8c-2-1.1-3.8-1.7-5.5-1.7
		C3.4,3.3,1.4,6,0.8,7.1c-0.4,0.6-1,2-0.8,2.5c0.4,1.2,2.2,0.6,2.9,0.6c3.1,0.2,3.5,1.6,4.7,2.9c0.2,0.2,3.2,3.6,7.4,4.6
		c-0.5,2-0.4,4.8,1.7,6.9c1.2,1.3,2.8,1.9,4.6,1.9c1.3,0,2.6-0.3,3.4-0.6c2,1.8,4.4,2.5,7.1,2.5c3,0,5.8-1.1,7.8-3.1
		c-0.3-0.1-0.6-0.3-0.9-0.3c0,0,0,0,0,0c-1.8,1.7-4.3,2.6-6.9,2.6c-2.6,0-4.8-0.8-6.5-2.3l-0.4-0.3l-0.5,0.2c-0.8,0.3-2,0.5-3.1,0.5
		c-1.5,0-2.9-0.6-4-1.7c-2.2-2.3-1.7-5.2-1.5-6.1l0.2-0.8l-0.8-0.2c-3.6-0.8-6.3-3.5-7-4.3l0,0c-0.2-0.2-0.4-0.4-0.6-0.7
		C6.9,10.8,5.9,9.6,3,9.4c0,0-0.1,0-0.1,0c-0.2,0-0.4,0-0.7,0.1c-0.3,0-0.5,0.1-0.8,0.1C1,9.5,0.9,9.4,0.8,9.3c0-0.2,0.2-1,0.7-1.8
		C1.8,6.9,3.6,4.1,7,4.1c1.5,0,3.2,0.5,5.1,1.6L12.5,6L13,5.6c1.5-1.3,4.5-3.6,8.3-3.6c2.4,0,4.6,0.5,6.6,1.6l0.6,0.3l0.4-0.5
		c1.1-1.2,3-2.6,5.9-2.6c0.1,0,0.1,0,0.2,0c3,0,4.6,1.2,5.5,2.1l0.5,0.6l0.6-0.5c1.3-1,2.8-1.5,4.5-1.5c0.1,0,0.2,0,0.3,0
		c2.5,0.1,4.1,1.2,5.6,2.3c1.1,0.8,2.2,1.5,3.6,1.8c0.3,0.1,0.5,0.1,0.8,0.1c0.7,0,1.4-0.2,2.1-0.5c0.9-0.3,1.9-0.7,3.3-0.7
		c1.4,0,2.9,0.9,3.9,1.6C66.7,7,68,8.6,67.7,9c-0.1,0.1-0.3,0.2-0.5,0.2c0,0,0,0,0,0c-0.3,0-0.7-0.1-1-0.2c-0.4-0.1-0.8-0.2-1.1-0.2
		c0,0,0,0-0.1,0c-2.6,0.1-3.7,1-5.7,2.7l-0.2,0.2c0.3,0,0.6-0.1,0.9-0.1c0.1,0,0.3,0,0.4,0c1.6-1.3,2.6-2,4.6-2c0.8,0,2.3,1.1,3.3,0
		C69.3,8.3,66.7,6,66,5.5z"/>
</g>
<path fill="#FFFFFF" d="M73.2,22c-0.3-0.7-1.4-0.4-1.8-0.4c-1.9-0.1-2.2-1-2.9-1.8c-0.1-0.1-2-2.2-4.6-2.8c0.3-1.2,0.2-3-1-4.3
	c-0.8-0.8-1.7-1.2-2.8-1.2c-0.8,0-1.6,0.2-2.1,0.4c-1.2-1.1-2.7-1.6-4.4-1.6c-1.9,0-3.7,0.7-4.9,2c-0.1-0.1-1.1-0.2-1.4-0.2
	c-1.8,0-3.3,0.7-4.3,1.7c-1.3,1.4-1.6,3.2-1.6,4.4c-0.2,0-0.9,0-1,0c-1.8,0.2-2.4,0.7-4,2.1C35,21.5,34.4,22,32.9,22
	c-0.5,0-1.4-0.7-2.1,0c-0.6,0.8,1,2.2,1.5,2.5C33,25,34,25.6,35,25.6c1,0,1.7-0.2,2.2-0.4c0.4-0.1,0.8-0.3,1.1-0.3
	c0.1,0,0.3,0,0.4,0c0.7,0.1,1.3,0.6,2,1c1,0.7,2.1,1.4,3.8,1.5c0.1,0,0.1,0,0.2,0c1.2,0,2.2-0.4,3.1-1c0.6,0.7,1.8,1.5,3.8,1.5
	c0,0,0.1,0,0.1,0c2,0,3.3-1,4-1.8c0.8,0.4,2.3,1,4.3,1c2.5,0,4.5-1.5,5.5-2.3c1.2,0.7,2.4,1.1,3.4,1.1c2.2,0,3.4-1.7,3.8-2.4
	C73,23.2,73.3,22.3,73.2,22z M72.3,23.3c-0.2,0.4-1.3,2.1-3.4,2.1c-1,0-2-0.3-3.1-1l-0.3-0.2l-0.3,0.2c-0.9,0.8-2.8,2.2-5.2,2.2
	c-1.5,0-2.9-0.3-4.1-1l-0.3-0.2l-0.3,0.3c-0.7,0.7-1.8,1.6-3.6,1.6c0,0-0.1,0-0.1,0c-1.8,0-2.9-0.7-3.4-1.3l-0.3-0.4l-0.4,0.3
	c-0.8,0.6-1.7,0.9-2.8,0.9c-0.1,0-0.1,0-0.2,0c-1.5,0-2.5-0.7-3.5-1.4c-0.7-0.5-1.4-0.9-2.2-1.1c-0.2,0-0.3,0-0.5,0
	c-0.5,0-0.8,0.1-1.3,0.3c-0.6,0.2-1.2,0.4-2.1,0.4c-0.9,0-1.8-0.5-2.4-1c-0.7-0.5-1.5-1.5-1.4-1.8c0.1-0.1,0.2-0.1,0.3-0.1h0
	c0.2,0,0.4,0.1,0.6,0.1c0.2,0.1,0.5,0.2,0.7,0.2c0,0,0,0,0,0c1.6,0,2.3-0.6,3.5-1.7l0.3-0.3c1.5-1.2,1.9-1.6,3.6-1.8
	c0.1,0,0.4,0,0.7,0c0.2,0,0.2,0,0.2,0l0.6,0.1l0-0.6c0-0.9,0.2-2.7,1.5-4c1-1,2.4-1.6,3.9-1.6c0.2,0,1,0.1,1.1,0.2l0.3,0.2l0.3-0.3
	c1.1-1.2,2.8-1.9,4.6-1.9c1.6,0,3,0.5,4.1,1.4l0.2,0.2l0.3-0.1c0.5-0.2,1.2-0.3,1.9-0.3c1,0,1.8,0.4,2.5,1c1.4,1.4,1,3.3,0.9,3.8
	l-0.1,0.5l0.5,0.1c2.3,0.5,3.9,2.2,4.3,2.7l0,0c0.1,0.1,0.2,0.3,0.3,0.4c0.5,0.7,1.1,1.4,2.9,1.5c0,0,0.1,0,0.1,0c0.1,0,0.3,0,0.4,0
	c0.2,0,0.3,0,0.5,0c0.3,0,0.3,0.1,0.4,0.1C72.7,22.3,72.6,22.8,72.3,23.3z"/>
<path fill="#ED1F25" d="M439.1,41.5l-2.5,1.8l2.5,5.6v6c0.5-0.3,1.1-0.5,1.7-0.5c0.8,0,1.3,0.2,1.8,0.3c0.3,0.1,0.6,0.2,0.9,0.2
	c0.1,0,0.2,0,0.3,0c0.6-0.1,1.1-0.4,1.6-0.8c0.2-0.1,0.3-0.2,0.5-0.4l0.2-6.9l3.9-1.6c1.2,2.6,2.6,5.2,4.5,7.3
	c0.9,0.1,1.7,0.4,2.2,0.8c1-0.9,2.8-2.2,5-2.7c-0.1-0.6-0.2-1.2-0.2-1.8c-2.9-0.9-4.6-3.8-6.3-6.4c1.9-1.4,5.1-2.3,6.2-4.6
	c0.9-1.7,1-11.1,0.6-13.1c-0.3-1.3-1.8-2.3-3.1-2.5c-3.5-0.5-15.5-0.4-19.1,0c-0.5,0.1-1,0-1.3,0.4l-1.5,6.5l4.8,0.7l-2.5,1.8
	L439.1,41.5z M446.1,29.7h9.1c1.5,6.7-4.3,7.4-9.1,9.1V29.7z"/>
<path fill="#F3C43E" d="M463,63c-0.1,0.3-0.3,0.7-0.6,1c-1.4,1.5-3.4,0.1-3.4,0.1c-2.2,2.5-5.7,1.6-7-0.2c-0.8-1.1-0.9-2.3-0.5-3.4
	c0,0,0,0,0,0c-0.2-0.1-0.3-0.3-0.4-0.4c-0.6,1.5-0.1,3.1,0.2,3.7c0,0.1,0,0.2-0.1,0.2c-4.1,0.3-4.3-3-4.2-4.1c0-0.2,0.1-0.4,0.3-0.5
	l0.5-0.2c0.1-0.1,0.3-0.1,0.4,0c0.8,0.4,1.6,0.4,2.3,0c0,0,0,0,0,0c0-0.1-0.2-0.3-0.2-0.3c-0.3,0.1-0.7,0.2-1,0.3
	c-1.3,0.1-1.9-1.2-1.9-1.7c0-0.5,0.2-1.6,1.3-1.7c0.8-0.1,1.2,0.5,1.5,0.8l0,0c0,0,0.1,0,0.1,0c-0.1-0.4-0.5-1.1-1.6-1
	c-1.5,0.1-1.9,1.8-1.2,2.9c0,0.1,0,0.2,0,0.2c-0.3,0.2-1.1,0.7-1.9,0.6c-1.2-0.1-1.6-0.4-2.8-1.4c-1.2-1-1.8-1.5-3.4-1.7
	c0,0-0.1-0.1,0-0.1c0.3-0.2,1.1-0.8,1.8-0.8c1.4,0,1.9,0.7,3.2,0.5c1.8-0.3,2.5-1.9,4.5-2c1.9-0.1,3.1,1.3,3.2,2.8
	c0.1,0,0.2,0,0.3,0c-0.1-0.6-0.3-1.2-0.4-1.5c-0.1-0.2-0.1-0.4,0-0.6c0.3-0.4,1-1.1,2.6-1.1c0.8,0,1.4,0.3,1.9,0.6l0.4-0.4
	c-0.5-0.4-1.3-0.7-2.2-0.7c0,0-0.1,0-0.1,0c-1.5,0-2.3,0.6-2.7,1.1l-0.3,0.3l-0.3-0.2c-0.6-0.5-1.4-0.7-2.2-0.7c0,0-0.1,0-0.1,0
	c-1.2,0-2,0.6-2.8,1.1c-0.6,0.4-1.1,0.8-1.8,0.9c-0.1,0-0.3,0-0.4,0c-0.4,0-0.7-0.1-1-0.2c-0.4-0.2-1-0.3-1.7-0.3
	c-0.7,0-1.4,0.4-1.9,0.8c-0.6,0.4-1.2,1.2-1.1,1.4c0.1,0.1,0.1,0.1,0.2,0.1h0c0.2,0,0.3-0.1,0.5-0.1c0.2-0.1,0.4-0.1,0.6-0.1
	c0,0,0,0,0,0c1.3,0,1.8,0.5,2.8,1.3l0.3,0.2c1.2,1,1.6,1.3,2.8,1.5c0,0,0.3,0,0.5,0c0.1,0,0.2,0,0.2,0l0.5-0.1l0,0.5
	c0,0.7,0.1,2.1,1.2,3.2c0.8,0.8,1.9,1.3,3.1,1.3c0.2,0,0.8-0.1,0.9-0.1l0.3-0.1l0.2,0.2c0.9,1,2.2,1.5,3.7,1.5
	c1.3,0,2.4-0.4,3.2-1.2l0.2-0.2l0.2,0.1c0.4,0.2,1,0.3,1.5,0.3c0.8,0,1.4-0.3,2-0.8c0.4-0.4,0.6-0.8,0.7-1.2L463,63z"/>
<path fill="#FFFFFF" d="M459.5,60.8c-0.8,0.5-1.6,0.8-2.4,1.1c-0.3,0.6-0.8,1.2-1.6,1.4c-1.2,0.3-2.3-0.5-2.4-1.5
	c-0.7-0.3-1.3-0.7-1.7-1.1c-0.4,1-0.3,2.3,0.5,3.4c1.4,1.8,4.8,2.7,7,0.2c0,0,2,1.3,3.4-0.1c0.3-0.3,0.5-0.7,0.6-1
	C461.5,62.4,460.3,61.5,459.5,60.8z"/>
<path fill="#FFFFFF" d="M456.5,62.3c0.1-0.1,0.1-0.2,0.2-0.3c-0.5,0.1-1.1,0.2-1.6,0.2c-0.6,0-1.2-0.1-1.7-0.3
	c0.1,0.2,0.2,0.4,0.4,0.6C454.9,63.4,456,63,456.5,62.3z"/>
<path fill="#FFFFFF" d="M452,56.6C452,56.6,452,56.6,452,56.6c2.5-0.2,2.8-1.3,3.8-2.3c0,0,0.1-0.1,0.3-0.3
	c-0.5-0.3-1.1-0.5-1.9-0.6c-1.6,0-2.3,0.7-2.6,1.1c-0.1,0.2-0.1,0.4,0,0.6C451.7,55.5,451.9,56,452,56.6z"/>
<path fill="#FFFFFF" d="M451,60.2c-0.3-0.3-0.5-0.6-0.6-0.9c-0.7,0.4-1.5,0.4-2.3,0c-0.1-0.1-0.3-0.1-0.4,0l-0.5,0.2
	c-0.2,0.1-0.3,0.3-0.3,0.5c-0.1,1.1,0.1,4.5,4.2,4.1c0.1,0,0.2-0.1,0.1-0.2C451,63.3,450.4,61.7,451,60.2z"/>
<g>
	<path fill="#FFFFFF" d="M448.5,55.7c1.1-0.1,1.4,0.6,1.6,1c0.4-0.2,1.1-0.1,1.5,0c-0.1-1.5-1.3-2.8-3.2-2.8c-2,0.1-2.7,1.7-4.5,2
		c-1.3,0.2-1.8-0.5-3.2-0.5c-0.7,0-1.5,0.6-1.8,0.8c0,0,0,0.1,0,0.1c1.6,0.2,2.2,0.7,3.4,1.7c1.2,1,1.7,1.3,2.8,1.4
		c0.8,0.1,1.6-0.4,1.9-0.6c0.1,0,0.1-0.1,0-0.2C446.7,57.5,447.1,55.8,448.5,55.7z"/>
	<path fill="#FFFFFF" d="M449.6,57.1c0.1-0.2,0.2-0.3,0.4-0.4c-0.2-0.3-0.7-0.9-1.5-0.8c-1.1,0.1-1.3,1.1-1.3,1.7
		c0,0.5,0.6,1.8,1.9,1.7c0.4,0,0.7-0.1,1-0.3C449.9,58.5,449.5,57.5,449.6,57.1z"/>
</g>
<g>
	<path fill="#FFFFFF" d="M463.5,63.2c-0.1,0.4-0.3,0.8-0.7,1.2c-0.5,0.5-1.2,0.8-2,0.8c-0.5,0-1.1-0.1-1.5-0.3l-0.2-0.1l-0.2,0.2
		c-0.8,0.8-1.9,1.2-3.2,1.2c-1.4,0-2.7-0.5-3.7-1.5l-0.2-0.2l-0.3,0.1c-0.1,0-0.7,0.1-0.9,0.1c-1.2,0-2.4-0.5-3.1-1.3
		c-1-1.1-1.2-2.5-1.2-3.2l0-0.5l-0.5,0.1c0,0,0,0-0.2,0c-0.2,0-0.5,0-0.5,0c-1.3-0.1-1.7-0.5-2.8-1.5l-0.3-0.2
		c-1-0.8-1.5-1.3-2.8-1.3c0,0,0,0,0,0c-0.2,0-0.4,0.1-0.6,0.1c-0.2,0.1-0.4,0.1-0.5,0.1h0c-0.1,0-0.2,0-0.2-0.1
		c-0.1-0.2,0.5-1,1.1-1.4c0.5-0.4,1.2-0.8,1.9-0.8c0.7,0,1.2,0.2,1.7,0.3c0.4,0.1,0.7,0.2,1,0.2c0.1,0,0.3,0,0.4,0
		c0.7-0.1,1.2-0.5,1.8-0.9c0.8-0.5,1.5-1.1,2.8-1.1c0,0,0.1,0,0.1,0c0.8,0,1.6,0.3,2.2,0.7l0.3,0.2l0.3-0.3c0.4-0.5,1.3-1.1,2.7-1.1
		c0,0,0.1,0,0.1,0c1,0,1.7,0.3,2.2,0.7l0,0c0.1-0.1,0.2-0.2,0.3-0.3c-0.6-0.4-1.4-0.8-2.5-0.8c0,0-0.1,0-0.1,0c-1.6,0-2.5,0.7-3,1.2
		c-0.7-0.5-1.5-0.8-2.5-0.8c0,0-0.1,0-0.1,0c-1.4,0-2.2,0.7-3,1.2c-0.5,0.4-1,0.7-1.6,0.8c-0.1,0-0.2,0-0.3,0
		c-0.3,0-0.6-0.1-0.9-0.2c-0.5-0.2-1-0.3-1.8-0.3c-0.8,0-1.6,0.5-2.2,0.9c-0.3,0.3-1.6,1.4-1.2,2c0.5,0.5,1.2,0,1.7,0
		c1.2,0,1.6,0.5,2.7,1.4c1.3,1.1,1.7,1.5,3.2,1.6c0.1,0,0.7,0,0.8,0c0,0.9,0.2,2.4,1.3,3.5c0.8,0.8,2,1.4,3.4,1.4
		c0.2,0,1-0.1,1.1-0.2c1,1.1,2.4,1.6,3.9,1.6c1.3,0,2.5-0.4,3.5-1.3c0.4,0.2,1.1,0.3,1.7,0.3c0.9,0,1.7-0.3,2.3-1
		c0.4-0.4,0.7-0.9,0.8-1.4C463.7,63.3,463.6,63.3,463.5,63.2L463.5,63.2z"/>
</g>
<g>
	<path fill="#F3C43E" d="M456.6,62C456.7,62,456.7,62,456.6,62c0,0.1,0,0.2-0.1,0.3c-0.5,0.7-1.7,1.1-2.7,0.2
		c-0.2-0.2-0.3-0.4-0.4-0.6c-0.1,0-0.2-0.1-0.3-0.1c0.1,1,1.2,1.8,2.4,1.5c0.8-0.2,1.3-0.7,1.6-1.4C457,61.9,456.8,61.9,456.6,62z"
		/>
</g>
<path fill="#F3C43E" d="M449,68c0-2.6-2.3-4.7-5.4-5.3c-0.2-0.4-0.8-0.8-1.6-0.8s-1.3,0.3-1.6,0.8c-3.1,0.6-5.4,2.7-5.4,5.3
	c0,2.2,1.8,4.2,4.3,5c-0.1,0.1-0.1,0.2-0.1,0.3c0,0.2,0.2,0.4,0.4,0.4h2.4v0.9c0,0,0,0,0,0c-0.4,0-0.7,0.4-0.7,0.8
	c0,0.4,0.4,0.8,0.8,0.8s0.8-0.4,0.8-0.8c0-0.4-0.3-0.8-0.7-0.8c0,0,0,0,0,0v-0.9h2.4c0.2,0,0.4-0.2,0.4-0.4c0-0.1-0.1-0.2-0.2-0.3
	C447.3,72.1,449,70.2,449,68z M439.6,72.9C439.6,72.9,439.6,72.9,439.6,72.9c-2.6-0.8-4.4-2.7-4.4-4.9c0-2.6,2.5-4.8,5.8-5.2
	c-1.8,0.6-3.2,2.7-3.2,5.1c0,2.2,1.1,4.1,2.7,4.9H439.6z M440.9,72.9c-1.7-0.7-2.9-2.6-2.9-4.9c0-2.7,1.6-4.9,3.8-5.1
	c-0.3,0.2-0.6,0.7-0.8,1.5c-0.3,1-0.5,2.4-0.5,3.8s0.2,2.8,0.5,3.8c0.1,0.4,0.3,0.7,0.4,1H440.9z M441.4,72.9
	c-0.5-0.8-0.9-2.5-0.9-4.8c0-3.1,0.8-5.3,1.5-5.3c0.7,0,1.5,2.1,1.5,5.3c0,2.3-0.4,4-0.9,4.8H441.4z M442.8,72.9
	c0.1-0.3,0.3-0.6,0.4-1c0.3-1,0.5-2.4,0.5-3.8s-0.2-2.8-0.5-3.8c-0.3-0.9-0.6-1.4-1-1.6c2.3,0.1,4.1,2.4,4.1,5.2
	c0,2.3-1.2,4.3-2.9,4.9H442.8z M444.6,72.9h-0.7c1.6-0.8,2.7-2.7,2.7-4.9c0-2.4-1.3-4.4-3.1-5.1c3.1,0.5,5.5,2.6,5.5,5.2
	C448.9,70.2,447.1,72.1,444.6,72.9z"/>
<path fill="#F3C43E" d="M467.5,77.4c0-4-3.6-7.3-8.4-8.2c-0.4-0.7-1.3-1.2-2.5-1.2s-2.1,0.5-2.5,1.2c-4.8,0.9-8.4,4.2-8.4,8.2
	c0,3.5,2.8,6.5,6.7,7.8c-0.1,0.1-0.2,0.3-0.2,0.4c0,0.3,0.3,0.6,0.6,0.6h3.7v1.5c-0.3,0.1-0.5,0.3-0.5,0.6c0,0.3,0.3,0.6,0.6,0.6
	c0.3,0,0.6-0.3,0.6-0.6c0-0.3-0.2-0.5-0.5-0.6v-1.5h3.8c0.3,0,0.6-0.3,0.6-0.6c0-0.2-0.1-0.4-0.2-0.5
	C464.7,83.8,467.5,80.8,467.5,77.4z M452.8,85c0,0-0.1,0-0.1,0c-4-1.2-6.8-4.2-6.8-7.6c0-4,3.9-7.4,8.9-8.1c-2.8,1-4.8,4.2-4.8,8
	c0,3.5,1.7,6.4,4.2,7.7H452.8z M454.7,85c-2.6-1.1-4.5-4.1-4.5-7.7c0-4.2,2.6-7.7,5.9-8.1c-0.5,0.3-1,1.1-1.4,2.4
	c-0.5,1.6-0.7,3.7-0.7,5.9c0,2.2,0.3,4.3,0.7,5.9c0.2,0.6,0.4,1.1,0.6,1.5H454.7z M455.6,85c-0.8-1.2-1.4-3.9-1.4-7.4
	c0-4.9,1.2-8.2,2.3-8.2c1.1,0,2.3,3.3,2.3,8.2c0,3.5-0.6,6.2-1.4,7.4H455.6z M457.8,85c0.2-0.4,0.4-0.9,0.6-1.5
	c0.5-1.6,0.7-3.7,0.7-5.9c0-2.2-0.3-4.3-0.7-5.9c-0.4-1.3-0.9-2.2-1.5-2.4c3.5,0.1,6.3,3.7,6.3,8.1c0,3.6-1.9,6.6-4.5,7.7H457.8z
	 M460.5,85h-1.1c2.4-1.3,4.1-4.2,4.1-7.7c0-3.7-2-6.8-4.6-7.9c4.8,0.8,8.3,4.1,8.3,8C467.2,80.8,464.4,83.8,460.5,85z"/>
<path fill="#ED1F25" d="M437.8,68c0-2.5,1.4-4.5,3.2-5.1c-3.3,0.4-5.8,2.6-5.8,5.2c0,2.2,1.8,4.1,4.4,4.9c0,0,0,0,0.1,0h0.9
	C438.9,72.1,437.8,70.2,437.8,68z"/>
<path fill="#ED1F25" d="M442.6,72.9c0.5-0.8,0.9-2.5,0.9-4.8c0-3.1-0.8-5.3-1.5-5.3c-0.7,0-1.5,2.1-1.5,5.3c0,2.3,0.4,4,0.9,4.8
	H442.6z"/>
<path fill="#ED1F25" d="M441.3,72.9c-0.1-0.3-0.3-0.6-0.4-1c-0.3-1-0.5-2.4-0.5-3.8s0.2-2.8,0.5-3.8c0.2-0.8,0.5-1.3,0.8-1.5
	c-2.1,0.3-3.8,2.5-3.8,5.1c0,2.3,1.2,4.3,2.9,4.9H441.3z"/>
<path fill="#ED1F25" d="M446.3,68c0-2.8-1.8-5.1-4.1-5.2c0.4,0.1,0.7,0.7,1,1.6c0.3,1,0.5,2.4,0.5,3.8s-0.2,2.8-0.5,3.8
	c-0.1,0.4-0.3,0.7-0.4,1h0.6C445.1,72.2,446.3,70.3,446.3,68z"/>
<path fill="#ED1F25" d="M448.9,68c0-2.5-2.4-4.7-5.5-5.2c1.8,0.7,3.1,2.7,3.1,5.1c0,2.2-1.1,4.1-2.7,4.9h0.7
	C447.1,72.1,448.9,70.2,448.9,68z"/>
<path fill="#ED1F25" d="M455.3,85c-0.2-0.4-0.4-0.9-0.6-1.5c-0.5-1.6-0.7-3.7-0.7-5.9c0-2.2,0.3-4.3,0.7-5.9
	c0.4-1.3,0.9-2.1,1.4-2.4c-3.3,0.4-5.9,3.8-5.9,8.1c0,3.6,1.9,6.6,4.5,7.7H455.3z"/>
<path fill="#ED1F25" d="M449.9,77.3c0-3.8,2-7,4.8-8c-5,0.7-8.9,4-8.9,8.1c0,3.5,2.8,6.4,6.8,7.6c0,0,0.1,0,0.1,0h1.3
	C451.6,83.7,449.9,80.7,449.9,77.3z"/>
<path fill="#ED1F25" d="M463.3,77.3c0-4.4-2.8-7.9-6.3-8.1c0.6,0.3,1.1,1.1,1.5,2.4c0.5,1.6,0.7,3.7,0.7,5.9c0,2.2-0.3,4.3-0.7,5.9
	c-0.2,0.6-0.4,1.1-0.6,1.5h1C461.4,83.9,463.3,80.9,463.3,77.3z"/>
<path fill="#ED1F25" d="M467.2,77.4c0-3.9-3.6-7.2-8.3-8c2.7,1.1,4.6,4.2,4.6,7.9c0,3.4-1.7,6.4-4.1,7.7h1.1
	C464.4,83.8,467.2,80.8,467.2,77.4z"/>
<path fill="#ED1F25" d="M457.5,85c0.8-1.2,1.4-3.9,1.4-7.4c0-4.9-1.2-8.2-2.3-8.2c-1.1,0-2.3,3.3-2.3,8.2c0,3.5,0.6,6.2,1.4,7.4
	H457.5z"/>
</svg>
