<?xml version="1.0" encoding="utf-8"?>
<!-- Generator: Adobe Illustrator 26.0.1, SVG Export Plug-In . SVG Version: 6.00 Build 0)  -->
<svg version="1.1" baseProfile="tiny" id="Layer_1" xmlns="http://www.w3.org/2000/svg" xmlns:xlink="http://www.w3.org/1999/xlink"
	 x="0px" y="0px" viewBox="0 0 232 232" overflow="visible" xml:space="preserve">
<g id="Layer_1_1_">
	
		<path id="_x30_1_x5F_Outer" fill="none" stroke="#E41916" stroke-width="6" stroke-linecap="round" stroke-linejoin="round" stroke-miterlimit="10" d="
		M202.8,156.1c4.8-28.5,4.9-57,4.8-64.1c-0.5-47.2-39.4-85.7-86.8-85.7h-0.6C72.5,6.8,34.1,45.9,34.6,93.6
		c0.1,17.2-1.9,32.7-2.6,35.7c-1.8,5.2-4,10.2-6.4,15.1"/>
</g>
<g id="Layer_2_2_">
	<g id="Layer_2_1_">
		<g>
			
				<path id="_x30_2_x5F_Outer_00000171686828961563881790000007041414839485191349_" fill="none" stroke="#E41916" stroke-width="6" stroke-linecap="round" stroke-linejoin="round" stroke-miterlimit="10" d="
				M195.3,186.4c2.5-7,4.5-14.6,6-22.3"/>
		</g>
	</g>
</g>
<g id="Layer_3">
	
		<path id="_x30_3_x5F_Outer" fill="none" stroke="#E41916" stroke-width="6" stroke-linecap="round" stroke-linejoin="round" stroke-miterlimit="10" d="
		M56.3,53.6c-7.1,11.6-11.1,25.3-11,39.9c0.2,18.6-2.2,36.1-3.1,39.1c-3.3,9.2-7.5,18.1-12,26.2"/>
</g>
<g id="Layer_4">
	
		<path id="_x30_4_x5F_Outer_2_" fill="none" stroke="#E41916" stroke-width="6" stroke-linecap="round" stroke-linejoin="round" stroke-miterlimit="10" d="
		M193,69c-10.1-30.1-38.6-51.9-72-51.9h-0.6c-24.2,0.2-45.6,11.8-59.3,29.6"/>
</g>
<g id="Layer_5">
	
		<path id="_x30_5_x5F_Outer_00000129166269341974107310000001306551075876641452_" fill="none" stroke="#E41916" stroke-width="6" stroke-linecap="round" stroke-linejoin="round" stroke-miterlimit="10" d="
		M175.3,207.2c3.5-7.8,6.8-15.8,9.8-24.2c11.7-33.2,11.8-81.5,11.8-90.9c-0.1-5.2-0.6-10.4-1.8-15.4"/>
</g>
<g id="Layer_6">
	
		<path id="_x30_6_x5F_Outer_2_" fill="none" stroke="#E41916" stroke-width="6" stroke-linecap="round" stroke-linejoin="round" stroke-miterlimit="10" d="
		M52,137.6c-4.4,12-10.2,23.3-16.2,33.3"/>
</g>
<g id="Layer_7">
	
		<path id="_x30_7_x5F_Outer_1_" fill="none" stroke="#E41916" stroke-width="6" stroke-linecap="round" stroke-linejoin="round" stroke-miterlimit="10" d="
		M112.1,28.6C80.3,33,55.9,60.5,56.2,93.4c0.1,13.7-1.1,27.7-2.3,36"/>
</g>
<g id="Layer_8">
	
		<path id="_x30_8_x5F_Outer_00000065770844116625000230000005532935971136745908_" fill="none" stroke="#E41916" stroke-width="6" stroke-linecap="round" stroke-linejoin="round" stroke-miterlimit="10" d="
		M184.8,126.2c1.3-16.2,1.3-29.6,1.3-34c-0.4-35.4-29.5-64.3-65-64.3h-0.5"/>
</g>
<g id="Layer_9">
	
		<path id="_x30_9_x5F_Outer_00000142887829859507489900000005900886723761167031_" fill="none" stroke="#E41916" stroke-width="6" stroke-linecap="round" stroke-linejoin="round" stroke-miterlimit="10" d="
		M158.1,218c6.2-12,12-24.9,16.8-38.6c4.8-13.6,7.6-30.1,9.1-45.2"/>
</g>
<g id="Layer_10">
	
		<path id="_x31_0_x5F_Outer_2_" fill="none" stroke="#E41916" stroke-width="6" stroke-linecap="round" stroke-linejoin="round" stroke-miterlimit="10" d="
		M71.2,71.9C68.5,78.5,67,85.7,67,93.3c0.2,17.8-1.9,39.5-4.4,46.4c-5.4,15.3-13,29.5-20.7,41.6"/>
</g>
<g id="Layer_11">
	
		<path id="_x31_1_x5F_Outer" fill="none" stroke="#E41916" stroke-width="6" stroke-linecap="round" stroke-linejoin="round" stroke-miterlimit="10" d="
		M147.6,45.8c-7.9-4.5-16.9-7-26.6-7h-0.5c-19.2,0.2-36,10.4-45.4,25.6"/>
</g>
<g id="Layer_12">
	
		<path id="_x31_2_x5F_Outer_00000045621136912475314130000011091049518261802888_" fill="none" stroke="#E41916" stroke-width="6" stroke-linecap="round" stroke-linejoin="round" stroke-miterlimit="10" d="
		M142.7,223.8c8.1-14.4,15.8-30.6,22-48c10.5-29.8,10.6-74.7,10.5-83.4c-0.2-17.1-8.4-32.4-21-42.2"/>
</g>
<g id="Layer_13">
	
		<path id="_x31_3_x5F_Outer" fill="none" stroke="#E41916" stroke-width="6" stroke-linecap="round" stroke-linejoin="round" stroke-miterlimit="10" d="
		M62.3,167.6c-4.3,8.4-8.9,16.1-13.5,23.1"/>
</g>
<g id="Layer_14">
	
		<path id="_x31_4_x5F_Outer_2_" fill="none" stroke="#E41916" stroke-width="6" stroke-linecap="round" stroke-linejoin="round" stroke-miterlimit="10" d="
		M151.3,180.8c1.1-2.8,2.2-5.7,3.2-8.6c9.9-28.1,10-71.3,9.9-79.7c-0.2-23.6-19.7-42.8-43.3-42.8h-0.4
		c-23.8,0.2-43.1,19.8-42.8,43.6c0.1,16.9-1.7,40.9-5,50.1c-2.1,5.9-4.4,11.6-7,17.1"/>
</g>
<g id="Layer_15">
	
		<path id="_x31_5_x5F_Outer_00000160901348886765336300000009550863907550371239_" fill="none" stroke="#E41916" stroke-width="6" stroke-linecap="round" stroke-linejoin="round" stroke-miterlimit="10" d="
		M128.7,226.3c6.8-11.4,13.6-24.2,19.4-37.9"/>
</g>
<g id="Layer_16">
	
		<path id="_x31_6_x5F_Outer_2_" fill="none" stroke="#E41916" stroke-width="6" stroke-linecap="round" stroke-linejoin="round" stroke-miterlimit="10" d="
		M99.6,68.6c-6.8,6-11,14.8-10.9,24.6c0.1,14.3-1.3,41.7-5.6,53.8c-7,19.8-17.1,37.7-26.7,52.1"/>
</g>
<g id="Layer_17">
	
		<path id="_x31_7_x5F_Outer" fill="none" stroke="#E41916" stroke-width="6" stroke-linecap="round" stroke-linejoin="round" stroke-miterlimit="10" d="
		M153.6,92.5c-0.2-17.7-14.7-32.1-32.5-32.1h-0.2c-5.1,0-10,1.3-14.3,3.5"/>
</g>
<g id="Layer_18">
	
		<path id="_x31_8_x5F_Outer_00000008846985188712104620000009457914324259456685_" fill="none" stroke="#E41916" stroke-width="6" stroke-linecap="round" stroke-linejoin="round" stroke-miterlimit="10" d="
		M115.9,226.6c10.3-16.5,20.7-36.2,28.4-58c7.5-21.3,9.1-52.7,9.3-68.1"/>
</g>
<g id="Layer_19">
	
		<path id="_x31_9_x5F_Outer" fill="none" stroke="#E41916" stroke-width="6" stroke-linecap="round" stroke-linejoin="round" stroke-miterlimit="10" d="
		M140.9,131.1c2-18.5,1.9-35.5,1.9-38.4c-0.1-11.8-9.8-21.4-21.6-21.4H121c-11.9,0.1-21.5,9.9-21.4,21.8c0.1,10.8-0.8,42.3-6.2,57.5
		c-7.6,21.4-18.5,40.6-28.8,55.8"/>
</g>
<g id="Layer_20">
	
		<path id="_x32_0_x5F_Outer_00000169522644259910429970000000085469771212652161_" fill="none" stroke="#E41916" stroke-width="6" stroke-linecap="round" stroke-linejoin="round" stroke-miterlimit="10" d="
		M104,225.1c10.8-16.7,21.9-37.2,30-60.2c2.6-7.4,4.4-16.3,5.7-25.3"/>
</g>
<g id="Layer_21">
	
		<path id="_x32_1_x5F_Outer" fill="none" stroke="#E41916" stroke-width="6" stroke-linecap="round" stroke-linejoin="round" stroke-miterlimit="10" d="
		M102.3,157.5c-7.9,21.2-18.8,40.2-29,55.2"/>
</g>
<g id="Layer_22">
	
		<path id="_x32_2_x5F_Outer_2_" fill="none" stroke="#E41916" stroke-width="6" stroke-linecap="round" stroke-linejoin="round" stroke-miterlimit="10" d="
		M93.1,222.2c11-16.6,22.5-37.4,30.8-60.8c8.4-23.8,8.1-66.8,8.1-68.6c-0.1-6-5-10.8-10.9-10.8H121c-6,0.1-10.8,4.9-10.7,10.9
		c0,0.4,0.3,35.7-5.5,56.8"/>
</g>
<g id="Layer_23">
	
		<path id="_x32_3_x5F_Outer" fill="none" stroke="#E41916" stroke-width="6" stroke-linecap="round" stroke-linejoin="round" stroke-miterlimit="10" d="
		M82.8,218c2.9-4.3,5.8-8.9,8.8-13.8"/>
</g>
<path fill="none" stroke="#E41916" stroke-width="6" stroke-linecap="round" stroke-linejoin="round" stroke-miterlimit="10" d="
	M95.6,197.2c6.7-11.9,13-25.2,18.1-39.5c7.9-22.3,7.4-64.9,7.4-64.9"/>
</svg>
