<?xml version="1.0" encoding="utf-8"?>
<!-- Generator: Adobe Illustrator 25.3.1, SVG Export Plug-In . SVG Version: 6.00 Build 0)  -->
<svg version="1.1" id="Layer_1" xmlns="http://www.w3.org/2000/svg" xmlns:xlink="http://www.w3.org/1999/xlink" x="0px" y="0px"
	 viewBox="0 0 1117.3 97.1" style="enable-background:new 0 0 1117.3 97.1;" xml:space="preserve">
<style type="text/css">
	.st0{fill:#FFFFFF;}
	.st1{opacity:0.42;fill:#FFFFFF;}
	.st2{opacity:0.33;fill:#FFFFFF;}
</style>
<path class="st0" d="M2,1.3v3.1H1.6V1.8L0.8,2.3L0.7,2l1-0.7H2z"/>
<path class="st0" d="M3.2,1.7V1.3h2v0.5L3.9,4.5L3.6,4.4l1.2-2.6V1.7H3.2z"/>
<path class="st0" d="M2,7.1v3.1H1.6V7.5L0.8,8L0.7,7.7l1-0.7H2z"/>
<path class="st0" d="M5.1,7.4c-0.3,0-0.6-0.1-0.8-0.1S3.8,7.4,3.7,7.6C3.5,7.8,3.4,8.1,3.4,8.4l0.1,0c0.1,0,0.2-0.1,0.3-0.1
	c0.1,0,0.2,0,0.3,0c0.7,0,1.1,0.3,1.1,1C5.3,9.5,5.2,9.8,5,10c-0.2,0.2-0.5,0.3-0.8,0.3c-0.7,0-1.1-0.5-1.1-1.6c0-0.5,0.1-1,0.3-1.2
	C3.6,7.1,3.9,7,4.3,7C4.5,7,4.8,7,5,7.1l0.1,0L5.1,7.4z M4.2,8.6c-0.1,0-0.2,0-0.4,0c-0.1,0-0.2,0.1-0.3,0.1l-0.1,0
	c0,0.4,0.1,0.6,0.2,0.9c0.1,0.2,0.3,0.3,0.5,0.3c0.2,0,0.4-0.1,0.6-0.2s0.2-0.3,0.2-0.5S4.8,8.8,4.7,8.7C4.6,8.6,4.4,8.6,4.2,8.6z"
	/>
<path class="st0" d="M2,12.8v3.1H1.6v-2.7l-0.8,0.5l-0.2-0.3l1-0.7H2z"/>
<path class="st0" d="M5.1,12.8v0.3H3.6l-0.1,1C3.7,14,4,13.9,4.2,13.9c0.7,0,1,0.3,1,0.9c0,0.4-0.1,0.6-0.3,0.8
	C4.8,15.9,4.5,16,4.2,16c-0.3,0-0.6,0-0.9-0.1l-0.2,0l0-0.3c0.4,0.1,0.7,0.1,0.9,0.1s0.4-0.1,0.6-0.2s0.2-0.3,0.2-0.5
	s-0.1-0.4-0.2-0.5c-0.1-0.1-0.3-0.1-0.5-0.1c-0.1,0-0.2,0-0.4,0c-0.1,0-0.2,0.1-0.3,0.1l-0.1,0l-0.3,0l0.1-1.6H5.1z"/>
<path class="st0" d="M2,18.5v3.1H1.6v-2.7l-0.8,0.5l-0.2-0.3l1-0.7H2z"/>
<path class="st0" d="M4.5,21.6V21H3v-0.3l0.9-2.2h0.4l-0.9,2.2h1.1v-1h0.4v1h0.4V21H4.9v0.6H4.5z"/>
<path class="st0" d="M2,24.2v3.1H1.6v-2.7l-0.8,0.5l-0.2-0.3l1-0.7H2z"/>
<path class="st0" d="M3.2,24.3c0.3-0.1,0.6-0.1,1-0.1s0.6,0.1,0.7,0.2C5,24.5,5.1,24.7,5.1,25c0,0.1,0,0.3-0.1,0.3S5,25.4,4.9,25.4
	c0,0-0.1,0.1-0.1,0.1c-0.1,0.1-0.1,0.1-0.2,0.1l-0.1,0C4.8,25.7,5,25.8,5,25.9c0.1,0.1,0.1,0.3,0.1,0.5c0,0.3-0.1,0.6-0.2,0.7
	c-0.2,0.2-0.4,0.2-0.8,0.2c-0.3,0-0.6,0-0.9-0.1l-0.1,0l0-0.3c0.3,0.1,0.7,0.1,1,0.1c0.5,0,0.7-0.2,0.7-0.6c0-0.4-0.2-0.6-0.6-0.6
	H3.5v-0.3h0.6c0.1,0,0.3-0.1,0.4-0.2c0.1-0.1,0.2-0.2,0.2-0.4c0-0.2,0-0.3-0.1-0.4c-0.1-0.1-0.3-0.1-0.5-0.1c-0.3,0-0.5,0-0.8,0.1
	l-0.1,0L3.2,24.3z"/>
<path class="st0" d="M2,29.9V33H1.6v-2.7l-0.8,0.5l-0.2-0.3l1-0.7H2z"/>
<path class="st0" d="M5.2,33h-2v-0.3l0.9-1c0.2-0.2,0.3-0.3,0.3-0.4c0.1-0.1,0.1-0.2,0.2-0.3s0.1-0.2,0.1-0.4c0-0.2-0.1-0.3-0.2-0.4
	c-0.1-0.1-0.3-0.1-0.5-0.1c-0.2,0-0.4,0-0.7,0.1l-0.1,0l0-0.3c0.3-0.1,0.6-0.1,0.9-0.1s0.6,0.1,0.7,0.2c0.2,0.1,0.2,0.3,0.2,0.6
	c0,0.2,0,0.4-0.1,0.6s-0.3,0.4-0.5,0.6l-0.8,0.9h1.6V33z"/>
<path class="st0" d="M2,35.6v3.1H1.6V36l-0.8,0.5l-0.2-0.3l1-0.7H2z"/>
<path class="st0" d="M4.7,35.6v3.1H4.3V36l-0.8,0.5l-0.2-0.3l1-0.7H4.7z"/>
<path class="st0" d="M2,41.3v3.1H1.6v-2.7l-0.8,0.5L0.7,42l1-0.7H2z"/>
<path class="st0" d="M4.2,41.3c0.3,0,0.5,0,0.6,0.1c0.3,0.2,0.5,0.7,0.5,1.5c0,0.6-0.1,1-0.3,1.2s-0.5,0.4-0.9,0.4s-0.7-0.1-0.9-0.3
	C3.1,43.9,3,43.5,3,42.9c0-0.6,0.1-1,0.3-1.3S3.8,41.3,4.2,41.3z M4.2,41.6c-0.2,0-0.3,0-0.4,0.1c-0.2,0.2-0.3,0.6-0.3,1.2
	c0,0.5,0.1,0.8,0.2,1s0.3,0.3,0.6,0.3c0.3,0,0.5-0.1,0.6-0.3c0.1-0.2,0.2-0.5,0.2-1s-0.1-0.8-0.2-1C4.6,41.7,4.4,41.6,4.2,41.6z"/>
<path class="st0" d="M4,49.9c0.6,0,0.9-0.4,0.9-1.1C4.6,48.9,4.3,49,4.1,49c-0.7,0-1-0.3-1-1c0-0.3,0.1-0.6,0.3-0.8S3.8,47,4.1,47
	c0.4,0,0.7,0.1,0.9,0.4c0.2,0.3,0.3,0.7,0.3,1.3c0,0.5-0.1,0.9-0.3,1.2c-0.2,0.2-0.5,0.4-0.9,0.4c-0.2,0-0.5,0-0.7-0.1l-0.1,0l0-0.3
	C3.5,49.9,3.7,49.9,4,49.9z M4.1,48.7c0.2,0,0.4,0,0.7-0.1l0.1,0c0-0.8-0.3-1.2-0.8-1.2c-0.2,0-0.4,0.1-0.5,0.2
	c-0.1,0.1-0.2,0.3-0.2,0.5C3.4,48.5,3.6,48.7,4.1,48.7z"/>
<path class="st0" d="M3.3,52.9c0.2-0.1,0.5-0.2,0.8-0.2c0.3,0,0.6,0.1,0.8,0.2c0.2,0.1,0.3,0.3,0.3,0.6c0,0.2,0,0.3-0.1,0.4
	c-0.1,0.1-0.2,0.2-0.4,0.3c0.2,0.1,0.3,0.2,0.4,0.3c0.1,0.1,0.1,0.3,0.1,0.5c0,0.6-0.4,0.9-1.2,0.9S3,55.7,3,55.1
	c0-0.2,0-0.4,0.1-0.5s0.2-0.2,0.4-0.3c-0.2-0.1-0.3-0.2-0.4-0.3S3,53.7,3,53.5C3,53.2,3.1,53,3.3,52.9z M3.4,55
	c0,0.4,0.3,0.6,0.8,0.6s0.8-0.2,0.8-0.6c0-0.2,0-0.3-0.1-0.4s-0.2-0.1-0.4-0.2H3.9c-0.2,0-0.3,0.1-0.4,0.2S3.4,54.9,3.4,55z
	 M4.9,53.6c0-0.4-0.2-0.5-0.7-0.5c-0.5,0-0.7,0.2-0.7,0.5c0,0.1,0,0.3,0.1,0.3s0.2,0.2,0.4,0.2h0.5c0.2-0.1,0.3-0.1,0.4-0.2
	S4.9,53.7,4.9,53.6z"/>
<path class="st0" d="M3.2,58.8v-0.3h2v0.5l-1.2,2.7l-0.3-0.1l1.2-2.6v-0.1H3.2z"/>
<path class="st0" d="M5.1,64.5c-0.3,0-0.6-0.1-0.8-0.1s-0.5,0.1-0.6,0.3c-0.1,0.2-0.2,0.5-0.2,0.8l0.1,0c0.1,0,0.2-0.1,0.3-0.1
	c0.1,0,0.2,0,0.3,0c0.7,0,1.1,0.3,1.1,1c0,0.3-0.1,0.6-0.3,0.8c-0.2,0.2-0.5,0.3-0.8,0.3c-0.7,0-1.1-0.5-1.1-1.6
	c0-0.5,0.1-1,0.3-1.2c0.2-0.3,0.5-0.4,0.9-0.4c0.3,0,0.5,0,0.7,0.1l0.1,0L5.1,64.5z M4.2,65.7c-0.1,0-0.2,0-0.4,0
	c-0.1,0-0.2,0.1-0.3,0.1l-0.1,0c0,0.4,0.1,0.6,0.2,0.9C3.7,66.9,3.9,67,4.2,67c0.2,0,0.4-0.1,0.6-0.2s0.2-0.3,0.2-0.5
	s-0.1-0.4-0.2-0.5C4.6,65.7,4.4,65.7,4.2,65.7z"/>
<path class="st0" d="M5.1,69.9v0.3H3.6l-0.1,1C3.7,71.1,4,71,4.2,71c0.7,0,1,0.3,1,0.9c0,0.4-0.1,0.6-0.3,0.8
	c-0.2,0.2-0.4,0.3-0.8,0.3c-0.3,0-0.6,0-0.9-0.1l-0.2,0l0-0.3c0.4,0.1,0.7,0.1,0.9,0.1s0.4-0.1,0.6-0.2s0.2-0.3,0.2-0.5
	s-0.1-0.4-0.2-0.5c-0.1-0.1-0.3-0.1-0.5-0.1c-0.1,0-0.2,0-0.4,0c-0.1,0-0.2,0.1-0.3,0.1l-0.1,0l-0.3,0l0.1-1.6H5.1z"/>
<path class="st0" d="M4.5,78.7v-0.6H3v-0.3l0.9-2.2h0.4l-0.9,2.2h1.1v-1h0.4v1h0.4v0.3H4.9v0.6H4.5z"/>
<path class="st0" d="M3.2,81.4c0.3-0.1,0.6-0.1,1-0.1s0.6,0.1,0.7,0.2c0.2,0.1,0.2,0.3,0.2,0.6c0,0.1,0,0.3-0.1,0.3S5,82.5,4.9,82.5
	c0,0-0.1,0.1-0.1,0.1c-0.1,0.1-0.1,0.1-0.2,0.1l-0.1,0C4.8,82.9,5,82.9,5,83c0.1,0.1,0.1,0.3,0.1,0.5c0,0.3-0.1,0.6-0.2,0.7
	c-0.2,0.2-0.4,0.2-0.8,0.2c-0.3,0-0.6,0-0.9-0.1l-0.1,0l0-0.3c0.3,0.1,0.7,0.1,1,0.1c0.5,0,0.7-0.2,0.7-0.6c0-0.4-0.2-0.6-0.6-0.6
	H3.5v-0.3h0.6c0.1,0,0.3-0.1,0.4-0.2c0.1-0.1,0.2-0.2,0.2-0.4c0-0.2,0-0.3-0.1-0.4c-0.1-0.1-0.3-0.1-0.5-0.1c-0.3,0-0.5,0-0.8,0.1
	l-0.1,0L3.2,81.4z"/>
<path class="st0" d="M5.2,90.2h-2v-0.3l0.9-1c0.2-0.2,0.3-0.3,0.3-0.4c0.1-0.1,0.1-0.2,0.2-0.3s0.1-0.2,0.1-0.4
	c0-0.2-0.1-0.3-0.2-0.4c-0.1-0.1-0.3-0.1-0.5-0.1c-0.2,0-0.4,0-0.7,0.1l-0.1,0l0-0.3C3.5,87,3.8,87,4.1,87s0.6,0.1,0.7,0.2
	c0.2,0.1,0.2,0.3,0.2,0.6c0,0.2,0,0.4-0.1,0.6S4.7,88.8,4.4,89l-0.8,0.9h1.6V90.2z"/>
<path class="st0" d="M4.7,92.7v3.1H4.3v-2.7l-0.8,0.5l-0.2-0.3l1-0.7H4.7z"/>
<path class="st0" d="M427,97.2H101.4V0.1H427V97.2z M101.5,97.1h325.4V0.2H101.5V97.1z"/>
<path class="st0" d="M356.9,9.3h1.3c0.3,0,0.6,0.1,0.8,0.2c0.2,0.1,0.3,0.4,0.3,0.7c0,0.2,0,0.4-0.1,0.5c-0.1,0.1-0.2,0.2-0.3,0.3
	c0.4,0.1,0.6,0.4,0.6,0.8c0,0.3-0.1,0.6-0.3,0.7c-0.2,0.1-0.4,0.2-0.8,0.2h-1.3V9.3z M358.1,9.6h-0.9v1.2h0.9c0.2,0,0.4-0.1,0.5-0.2
	c0.1-0.1,0.1-0.3,0.1-0.5s-0.1-0.4-0.2-0.4C358.5,9.6,358.4,9.6,358.1,9.6z M358.2,11.1h-0.9v1.2h0.9c0.2,0,0.4,0,0.5-0.1
	c0.1-0.1,0.2-0.3,0.2-0.5c0-0.1,0-0.2-0.1-0.3c0-0.1-0.1-0.1-0.2-0.2C358.5,11.2,358.3,11.1,358.2,11.1z"/>
<path class="st0" d="M359.6,12.7l1-3.5h0.8l1,3.5H362l-0.2-0.9h-1.5l-0.2,0.9H359.6z M360.9,9.6l-0.5,1.9h1.3l-0.5-1.9H360.9z"/>
<path class="st0" d="M364.9,12.7c-0.3,0.1-0.7,0.1-0.9,0.1s-0.5,0-0.7-0.1c-0.2-0.1-0.3-0.2-0.4-0.3s-0.2-0.3-0.2-0.5
	c0-0.2-0.1-0.5-0.1-0.8s0-0.6,0.1-0.8c0-0.2,0.1-0.4,0.2-0.6s0.2-0.3,0.4-0.4c0.2-0.1,0.4-0.1,0.7-0.1s0.6,0,0.9,0.1l0,0.3
	c-0.3-0.1-0.6-0.1-0.9-0.1c-0.4,0-0.6,0.1-0.7,0.3c-0.1,0.2-0.2,0.6-0.2,1.1c0,0.3,0,0.5,0,0.6s0.1,0.3,0.1,0.4
	c0.1,0.1,0.2,0.2,0.3,0.3c0.1,0.1,0.3,0.1,0.5,0.1c0.2,0,0.5,0,0.8-0.1L364.9,12.7z"/>
<path class="st0" d="M366,12.7h-0.4V9.3h0.4v1.6l0.6,0l0.9-1.6h0.4l-1,1.7l1,1.7h-0.5l-0.9-1.5l-0.6,0V12.7z"/>
<path class="st0" d="M368.8,11.7c0,0.5,0.3,0.8,0.8,0.8c0.3,0,0.5-0.1,0.6-0.2s0.2-0.3,0.2-0.6V9.3h0.4v2.4c0,0.4-0.1,0.7-0.3,0.8
	s-0.5,0.3-0.9,0.3c-0.4,0-0.7-0.1-0.9-0.3c-0.2-0.2-0.3-0.5-0.3-0.8V9.3h0.4V11.7z"/>
<path class="st0" d="M372.9,11.5H372v1.2h-0.4V9.3h1.3c0.4,0,0.7,0.1,0.8,0.3c0.2,0.2,0.3,0.5,0.3,0.8
	C374,11.2,373.6,11.5,372.9,11.5z M372,11.2h0.9c0.5,0,0.7-0.3,0.7-0.8c0-0.3-0.1-0.5-0.2-0.6c-0.1-0.1-0.3-0.2-0.5-0.2H372V11.2z"
	/>
<path class="st0" d="M377,11.5h-0.9v1.2h-0.4V9.3h1.3c0.4,0,0.7,0.1,0.8,0.3c0.2,0.2,0.3,0.5,0.3,0.8
	C378.1,11.2,377.7,11.5,377,11.5z M376.1,11.2h0.9c0.5,0,0.7-0.3,0.7-0.8c0-0.3-0.1-0.5-0.2-0.6c-0.1-0.1-0.3-0.2-0.5-0.2h-0.9V11.2
	z"/>
<path class="st0" d="M381.3,11c0,0.6-0.1,1.1-0.3,1.3c-0.2,0.3-0.6,0.4-1.1,0.4s-0.9-0.1-1.1-0.4c-0.2-0.3-0.3-0.7-0.3-1.3
	c0-0.6,0.1-1.1,0.3-1.4s0.6-0.4,1.1-0.4c0.5,0,0.9,0.1,1.1,0.4C381.2,9.9,381.3,10.4,381.3,11z M378.9,11c0,0.5,0.1,0.9,0.2,1.1
	c0.1,0.2,0.4,0.3,0.8,0.3s0.6-0.1,0.8-0.3c0.1-0.2,0.2-0.6,0.2-1.1s-0.1-0.9-0.2-1.1s-0.4-0.3-0.8-0.3s-0.6,0.1-0.8,0.3
	C379,10.1,378.9,10.5,378.9,11z"/>
<path class="st0" d="M381.7,9.3h0.4l0.6,3.1h0.1l0.7-3.1h0.5l0.7,3.1h0.1l0.6-3.1h0.4l-0.7,3.5h-0.7l-0.7-3l-0.7,3h-0.7L381.7,9.3z"
	/>
<path class="st0" d="M386.4,12.7V9.3h2.1v0.3h-1.7v1.2h1.4v0.3h-1.4v1.2h1.7v0.3H386.4z"/>
<path class="st0" d="M389.5,11.4v1.3h-0.4V9.3h1.3c0.4,0,0.6,0.1,0.8,0.3c0.2,0.2,0.3,0.4,0.3,0.8c0,0.5-0.2,0.9-0.6,1l0.7,1.4h-0.4
	l-0.6-1.3H389.5z M390.4,11c0.5,0,0.7-0.2,0.7-0.7s-0.2-0.7-0.7-0.7h-0.9V11H390.4z"/>
<path class="st0" d="M393.7,11.7c0,0.5,0.3,0.8,0.8,0.8c0.3,0,0.5-0.1,0.6-0.2s0.2-0.3,0.2-0.6V9.3h0.4v2.4c0,0.4-0.1,0.7-0.3,0.8
	s-0.5,0.3-0.9,0.3c-0.4,0-0.7-0.1-0.9-0.3c-0.2-0.2-0.3-0.5-0.3-0.8V9.3h0.4V11.7z"/>
<path class="st0" d="M397.5,9.5c-0.5,0-0.8,0.2-0.8,0.6c0,0.2,0.1,0.4,0.2,0.4s0.3,0.2,0.7,0.2c0.4,0.1,0.6,0.2,0.7,0.3
	s0.2,0.3,0.2,0.6c0,0.7-0.4,1.1-1.1,1.1c-0.2,0-0.5,0-0.9-0.1l-0.2,0l0-0.3c0.5,0.1,0.8,0.1,1,0.1c0.5,0,0.7-0.2,0.7-0.7
	c0-0.2-0.1-0.3-0.2-0.4s-0.3-0.2-0.6-0.2c-0.4-0.1-0.7-0.2-0.8-0.3c-0.2-0.1-0.2-0.4-0.2-0.7c0-0.6,0.4-0.9,1.1-0.9
	c0.2,0,0.5,0,0.9,0.1l0.2,0l0,0.3C398,9.6,397.7,9.5,397.5,9.5z"/>
<path class="st0" d="M398.9,12.7l1-3.5h0.8l1,3.5h-0.4l-0.2-0.9h-1.5l-0.2,0.9H398.9z M400.1,9.6l-0.5,1.9h1.3l-0.5-1.9H400.1z"/>
<path class="st0" d="M403.5,11.3v-0.3h1v1.7c-0.4,0.1-0.8,0.1-1.1,0.1c-0.5,0-0.9-0.1-1-0.4c-0.2-0.3-0.3-0.7-0.3-1.3
	c0-0.6,0.1-1.1,0.3-1.3c0.2-0.3,0.5-0.4,1-0.4c0.3,0,0.6,0,1,0.1l0.2,0l0,0.3c-0.4-0.1-0.8-0.1-1.1-0.1c-0.4,0-0.6,0.1-0.8,0.3
	c-0.1,0.2-0.2,0.6-0.2,1.1s0.1,0.9,0.2,1.1c0.1,0.2,0.4,0.3,0.8,0.3c0.2,0,0.5,0,0.7-0.1v-1.1H403.5z"/>
<path class="st0" d="M405.2,12.7V9.3h2.1v0.3h-1.7v1.2h1.4v0.3h-1.4v1.2h1.7v0.3H405.2z"/>
<path class="st0" d="M385.7,22.4c0.6,0,0.9-0.4,0.9-1.2c-0.3,0.1-0.6,0.2-0.9,0.2c-0.7,0-1.1-0.3-1.1-1c0-0.3,0.1-0.6,0.3-0.8
	c0.2-0.2,0.5-0.3,0.8-0.3c0.4,0,0.7,0.1,0.9,0.4c0.2,0.3,0.3,0.7,0.3,1.3c0,0.6-0.1,1-0.3,1.3s-0.5,0.4-1,0.4c-0.2,0-0.5,0-0.8-0.1
	l-0.1,0l0-0.3C385.1,22.4,385.4,22.4,385.7,22.4z M385.8,21.1c0.2,0,0.4,0,0.7-0.1l0.1,0c0-0.8-0.3-1.2-0.8-1.2
	c-0.2,0-0.4,0.1-0.5,0.2s-0.2,0.3-0.2,0.6C385.1,20.9,385.3,21.1,385.8,21.1z"/>
<path class="st0" d="M387.6,19.5c0.3-0.1,0.6-0.1,1-0.1s0.6,0.1,0.8,0.2c0.2,0.1,0.2,0.4,0.2,0.7c0,0.2,0,0.3-0.1,0.3
	c0,0.1-0.1,0.1-0.1,0.2c0,0-0.1,0.1-0.1,0.1c-0.1,0.1-0.1,0.1-0.2,0.1l-0.1,0c0.2,0.1,0.3,0.2,0.4,0.3c0.1,0.1,0.1,0.3,0.1,0.5
	c0,0.3-0.1,0.6-0.3,0.8c-0.2,0.2-0.4,0.2-0.8,0.2c-0.3,0-0.6,0-0.9-0.1l-0.2,0l0-0.3c0.4,0.1,0.7,0.1,1,0.1c0.5,0,0.7-0.2,0.7-0.6
	c0-0.4-0.2-0.6-0.7-0.6H388v-0.3h0.7c0.1,0,0.3-0.1,0.4-0.2c0.1-0.1,0.2-0.3,0.2-0.4c0-0.2-0.1-0.3-0.2-0.4
	c-0.1-0.1-0.3-0.1-0.5-0.1c-0.3,0-0.5,0-0.8,0.1l-0.1,0L387.6,19.5z"/>
<path class="st0" d="M390.6,19.6c0.2-0.1,0.5-0.2,0.9-0.2c0.4,0,0.7,0.1,0.9,0.2c0.2,0.1,0.3,0.4,0.3,0.6c0,0.2,0,0.4-0.1,0.5
	s-0.2,0.2-0.4,0.3c0.2,0.1,0.3,0.2,0.5,0.3c0.1,0.1,0.1,0.3,0.1,0.5c0,0.6-0.4,0.9-1.2,0.9s-1.2-0.3-1.2-0.9c0-0.2,0-0.4,0.1-0.5
	c0.1-0.1,0.2-0.2,0.4-0.3c-0.2-0.1-0.3-0.2-0.4-0.3c-0.1-0.1-0.1-0.3-0.1-0.5C390.3,19.9,390.4,19.7,390.6,19.6z M390.7,21.8
	c0,0.4,0.3,0.6,0.8,0.6s0.8-0.2,0.8-0.6c0-0.2,0-0.3-0.1-0.4c-0.1-0.1-0.2-0.2-0.4-0.2h-0.5c-0.2,0-0.3,0.1-0.4,0.2
	S390.7,21.6,390.7,21.8z M392.3,20.3c0-0.4-0.3-0.6-0.8-0.6c-0.5,0-0.8,0.2-0.8,0.5c0,0.1,0,0.3,0.1,0.4c0.1,0.1,0.2,0.2,0.4,0.2
	h0.5c0.2-0.1,0.3-0.1,0.4-0.2C392.2,20.5,392.3,20.4,392.3,20.3z"/>
<path class="st0" d="M394.7,22.7v-0.6h-1.6v-0.3l0.9-2.4h0.4l-1,2.3h1.2v-1h0.4v1h0.4v0.3h-0.4v0.6H394.7z"/>
<path class="st0" d="M397.6,19.4v3.3h-0.4v-2.9l-0.8,0.6l-0.2-0.3l1-0.7H397.6z"/>
<path class="st0" d="M399.9,19.4c0.3,0,0.5,0.1,0.7,0.2c0.4,0.2,0.5,0.7,0.5,1.6c0,0.6-0.1,1-0.3,1.3s-0.5,0.4-0.9,0.4
	c-0.4,0-0.7-0.1-0.9-0.4c-0.2-0.2-0.3-0.7-0.3-1.3c0-0.6,0.1-1.1,0.3-1.3S399.5,19.4,399.9,19.4z M399.9,19.7c-0.2,0-0.3,0-0.5,0.1
	c-0.2,0.2-0.4,0.6-0.4,1.3c0,0.5,0.1,0.8,0.2,1s0.3,0.3,0.6,0.3c0.3,0,0.5-0.1,0.6-0.3c0.1-0.2,0.2-0.5,0.2-1.1
	c0-0.5-0.1-0.9-0.2-1.1C400.4,19.8,400.2,19.7,399.9,19.7z"/>
<path class="st0" d="M403.7,22.7h-2.1v-0.3l1-1c0.2-0.2,0.3-0.3,0.4-0.4c0.1-0.1,0.1-0.2,0.2-0.3c0.1-0.1,0.1-0.2,0.1-0.4
	c0-0.2-0.1-0.4-0.2-0.5c-0.1-0.1-0.3-0.1-0.5-0.1c-0.2,0-0.5,0-0.7,0.1l-0.1,0l0-0.3c0.3-0.1,0.6-0.1,1-0.1c0.3,0,0.6,0.1,0.8,0.2
	s0.3,0.4,0.3,0.7c0,0.2-0.1,0.4-0.2,0.6c-0.1,0.2-0.3,0.4-0.5,0.6l-0.9,0.9h1.7V22.7z"/>
<path class="st0" d="M359.7,22.4c0.6,0,0.9-0.4,0.9-1.2c-0.3,0.1-0.6,0.2-0.9,0.2c-0.7,0-1.1-0.3-1.1-1c0-0.3,0.1-0.6,0.3-0.8
	c0.2-0.2,0.5-0.3,0.8-0.3c0.4,0,0.7,0.1,0.9,0.4c0.2,0.3,0.3,0.7,0.3,1.3c0,0.6-0.1,1-0.3,1.3s-0.5,0.4-1,0.4c-0.2,0-0.5,0-0.8-0.1
	l-0.1,0l0-0.3C359.1,22.4,359.4,22.4,359.7,22.4z M359.8,21.1c0.2,0,0.4,0,0.7-0.1l0.1,0c0-0.8-0.3-1.2-0.8-1.2
	c-0.2,0-0.4,0.1-0.5,0.2s-0.2,0.3-0.2,0.6C359.1,20.9,359.3,21.1,359.8,21.1z"/>
<path class="st0" d="M361.6,19.5c0.3-0.1,0.6-0.1,1-0.1s0.6,0.1,0.8,0.2c0.2,0.1,0.2,0.4,0.2,0.7c0,0.2,0,0.3-0.1,0.3
	c0,0.1-0.1,0.1-0.1,0.2c0,0-0.1,0.1-0.1,0.1c-0.1,0.1-0.1,0.1-0.2,0.1l-0.1,0c0.2,0.1,0.3,0.2,0.4,0.3c0.1,0.1,0.1,0.3,0.1,0.5
	c0,0.3-0.1,0.6-0.3,0.8c-0.2,0.2-0.4,0.2-0.8,0.2c-0.3,0-0.6,0-0.9-0.1l-0.2,0l0-0.3c0.4,0.1,0.7,0.1,1,0.1c0.5,0,0.7-0.2,0.7-0.6
	c0-0.4-0.2-0.6-0.7-0.6H362v-0.3h0.7c0.1,0,0.3-0.1,0.4-0.2c0.1-0.1,0.2-0.3,0.2-0.4c0-0.2-0.1-0.3-0.2-0.4
	c-0.1-0.1-0.3-0.1-0.5-0.1c-0.3,0-0.5,0-0.8,0.1l-0.1,0L361.6,19.5z"/>
<path class="st0" d="M364.6,19.6c0.2-0.1,0.5-0.2,0.9-0.2c0.4,0,0.7,0.1,0.9,0.2c0.2,0.1,0.3,0.4,0.3,0.6c0,0.2,0,0.4-0.1,0.5
	s-0.2,0.2-0.4,0.3c0.2,0.1,0.3,0.2,0.5,0.3c0.1,0.1,0.1,0.3,0.1,0.5c0,0.6-0.4,0.9-1.2,0.9s-1.2-0.3-1.2-0.9c0-0.2,0-0.4,0.1-0.5
	c0.1-0.1,0.2-0.2,0.4-0.3c-0.2-0.1-0.3-0.2-0.4-0.3c-0.1-0.1-0.1-0.3-0.1-0.5C364.3,19.9,364.4,19.7,364.6,19.6z M364.7,21.8
	c0,0.4,0.3,0.6,0.8,0.6s0.8-0.2,0.8-0.6c0-0.2,0-0.3-0.1-0.4c-0.1-0.1-0.2-0.2-0.4-0.2h-0.5c-0.2,0-0.3,0.1-0.4,0.2
	S364.7,21.6,364.7,21.8z M366.3,20.3c0-0.4-0.3-0.6-0.8-0.6c-0.5,0-0.8,0.2-0.8,0.5c0,0.1,0,0.3,0.1,0.4c0.1,0.1,0.2,0.2,0.4,0.2
	h0.5c0.2-0.1,0.3-0.1,0.4-0.2C366.2,20.5,366.3,20.4,366.3,20.3z"/>
<path class="st0" d="M368.7,22.7v-0.6h-1.6v-0.3l0.9-2.4h0.4l-1,2.3h1.2v-1h0.4v1h0.4v0.3h-0.4v0.6H368.7z"/>
<path class="st0" d="M371.6,19.4v3.3h-0.4v-2.9l-0.8,0.6l-0.2-0.3l1-0.7H371.6z"/>
<path class="st0" d="M373.9,19.4c0.3,0,0.5,0.1,0.7,0.2c0.4,0.2,0.5,0.7,0.5,1.6c0,0.6-0.1,1-0.3,1.3s-0.5,0.4-0.9,0.4
	c-0.4,0-0.7-0.1-0.9-0.4c-0.2-0.2-0.3-0.7-0.3-1.3c0-0.6,0.1-1.1,0.3-1.3S373.5,19.4,373.9,19.4z M373.9,19.7c-0.2,0-0.3,0-0.5,0.1
	c-0.2,0.2-0.4,0.6-0.4,1.3c0,0.5,0.1,0.8,0.2,1s0.3,0.3,0.6,0.3c0.3,0,0.5-0.1,0.6-0.3c0.1-0.2,0.2-0.5,0.2-1.1
	c0-0.5-0.1-0.9-0.2-1.1C374.4,19.8,374.2,19.7,373.9,19.7z"/>
<path class="st0" d="M377.7,22.7h-2.1v-0.3l1-1c0.2-0.2,0.3-0.3,0.4-0.4c0.1-0.1,0.1-0.2,0.2-0.3c0.1-0.1,0.1-0.2,0.1-0.4
	c0-0.2-0.1-0.4-0.2-0.5c-0.1-0.1-0.3-0.1-0.5-0.1c-0.2,0-0.5,0-0.7,0.1l-0.1,0l0-0.3c0.3-0.1,0.6-0.1,1-0.1c0.3,0,0.6,0.1,0.8,0.2
	s0.3,0.4,0.3,0.7c0,0.2-0.1,0.4-0.2,0.6c-0.1,0.2-0.3,0.4-0.5,0.6l-0.9,0.9h1.7V22.7z"/>
<path class="st0" d="M403.7,46.4c0.6,0,0.9-0.4,0.9-1.2c-0.3,0.1-0.6,0.2-0.9,0.2c-0.7,0-1.1-0.3-1.1-1c0-0.3,0.1-0.6,0.3-0.8
	c0.2-0.2,0.5-0.3,0.8-0.3c0.4,0,0.7,0.1,0.9,0.4c0.2,0.3,0.3,0.7,0.3,1.3c0,0.6-0.1,1-0.3,1.3s-0.5,0.4-1,0.4c-0.2,0-0.5,0-0.8-0.1
	l-0.1,0l0-0.3C403.1,46.4,403.4,46.4,403.7,46.4z M403.8,45.1c0.2,0,0.4,0,0.7-0.1l0.1,0c0-0.8-0.3-1.2-0.8-1.2
	c-0.2,0-0.4,0.1-0.5,0.2s-0.2,0.3-0.2,0.6C403.1,44.9,403.3,45.1,403.8,45.1z"/>
<path class="st0" d="M405.6,43.5c0.3-0.1,0.6-0.1,1-0.1s0.6,0.1,0.8,0.2c0.2,0.1,0.2,0.4,0.2,0.7c0,0.2,0,0.3-0.1,0.3
	c0,0.1-0.1,0.1-0.1,0.2c0,0-0.1,0.1-0.1,0.1c-0.1,0.1-0.1,0.1-0.2,0.1l-0.1,0c0.2,0.1,0.3,0.2,0.4,0.3c0.1,0.1,0.1,0.3,0.1,0.5
	c0,0.3-0.1,0.6-0.3,0.8c-0.2,0.2-0.4,0.2-0.8,0.2c-0.3,0-0.6,0-0.9-0.1l-0.2,0l0-0.3c0.4,0.1,0.7,0.1,1,0.1c0.5,0,0.7-0.2,0.7-0.6
	c0-0.4-0.2-0.6-0.7-0.6H406v-0.3h0.7c0.1,0,0.3-0.1,0.4-0.2c0.1-0.1,0.2-0.3,0.2-0.4c0-0.2-0.1-0.3-0.2-0.4
	c-0.1-0.1-0.3-0.1-0.5-0.1c-0.3,0-0.5,0-0.8,0.1l-0.1,0L405.6,43.5z"/>
<path class="st0" d="M408.6,43.6c0.2-0.1,0.5-0.2,0.9-0.2c0.4,0,0.7,0.1,0.9,0.2c0.2,0.1,0.3,0.4,0.3,0.6c0,0.2,0,0.4-0.1,0.5
	s-0.2,0.2-0.4,0.3c0.2,0.1,0.3,0.2,0.5,0.3c0.1,0.1,0.1,0.3,0.1,0.5c0,0.6-0.4,0.9-1.2,0.9s-1.2-0.3-1.2-0.9c0-0.2,0-0.4,0.1-0.5
	c0.1-0.1,0.2-0.2,0.4-0.3c-0.2-0.1-0.3-0.2-0.4-0.3c-0.1-0.1-0.1-0.3-0.1-0.5C408.3,43.9,408.4,43.7,408.6,43.6z M408.7,45.8
	c0,0.4,0.3,0.6,0.8,0.6s0.8-0.2,0.8-0.6c0-0.2,0-0.3-0.1-0.4c-0.1-0.1-0.2-0.2-0.4-0.2h-0.5c-0.2,0-0.3,0.1-0.4,0.2
	S408.7,45.6,408.7,45.8z M410.3,44.3c0-0.4-0.3-0.6-0.8-0.6c-0.5,0-0.8,0.2-0.8,0.5c0,0.1,0,0.3,0.1,0.4c0.1,0.1,0.2,0.2,0.4,0.2
	h0.5c0.2-0.1,0.3-0.1,0.4-0.2C410.2,44.5,410.3,44.4,410.3,44.3z"/>
<path class="st0" d="M412.7,46.7v-0.6h-1.6v-0.3l0.9-2.4h0.4l-1,2.3h1.2v-1h0.4v1h0.4v0.3h-0.4v0.6H412.7z"/>
<path class="st0" d="M415.6,43.4v3.3h-0.4v-2.9l-0.8,0.6l-0.2-0.3l1-0.7H415.6z"/>
<path class="st0" d="M417.9,43.4c0.3,0,0.5,0.1,0.7,0.2c0.4,0.2,0.5,0.7,0.5,1.6c0,0.6-0.1,1-0.3,1.3s-0.5,0.4-0.9,0.4
	c-0.4,0-0.7-0.1-0.9-0.4c-0.2-0.2-0.3-0.7-0.3-1.3c0-0.6,0.1-1.1,0.3-1.3S417.5,43.4,417.9,43.4z M417.9,43.7c-0.2,0-0.3,0-0.5,0.1
	c-0.2,0.2-0.4,0.6-0.4,1.3c0,0.5,0.1,0.8,0.2,1s0.3,0.3,0.6,0.3c0.3,0,0.5-0.1,0.6-0.3c0.1-0.2,0.2-0.5,0.2-1.1
	c0-0.5-0.1-0.9-0.2-1.1C418.4,43.8,418.2,43.7,417.9,43.7z"/>
<path class="st0" d="M421.7,46.7h-2.1v-0.3l1-1c0.2-0.2,0.3-0.3,0.4-0.4c0.1-0.1,0.1-0.2,0.2-0.3c0.1-0.1,0.1-0.2,0.1-0.4
	c0-0.2-0.1-0.4-0.2-0.5c-0.1-0.1-0.3-0.1-0.5-0.1c-0.2,0-0.5,0-0.7,0.1l-0.1,0l0-0.3c0.3-0.1,0.6-0.1,1-0.1c0.3,0,0.6,0.1,0.8,0.2
	s0.3,0.4,0.3,0.7c0,0.2-0.1,0.4-0.2,0.6c-0.1,0.2-0.3,0.4-0.5,0.6l-0.9,0.9h1.7V46.7z"/>
<rect x="374.7" y="49.7" class="st1" width="48" height="3"/>
<rect x="389.7" y="55.7" class="st1" width="33" height="3"/>
<rect x="359.7" y="61.7" class="st1" width="63" height="3"/>
<rect x="365.7" y="67.7" class="st1" width="57" height="3"/>
<rect x="374.7" y="73.7" class="st1" width="48" height="3"/>
<rect x="352.7" y="79.7" class="st1" width="70" height="3"/>
<rect x="379.7" y="85.7" class="st1" width="43" height="3"/>
<path class="st0" d="M106.5,9.1V8.7h2.5v0.3h-1.1v3.1h-0.4V9.1H106.5z"/>
<path class="st0" d="M109.8,12.2h-0.4V8.6h0.4v1.2c0.3-0.1,0.5-0.2,0.8-0.2c0.3,0,0.6,0.1,0.7,0.3c0.1,0.2,0.2,0.5,0.2,1v1.3H111
	v-1.3c0-0.3,0-0.6-0.1-0.7s-0.2-0.2-0.4-0.2c-0.2,0-0.4,0-0.6,0.1l-0.1,0V12.2z"/>
<path class="st0" d="M112.1,9.1V8.7h0.4v0.4H112.1z M112.1,12.2V9.7h0.4v2.5H112.1z"/>
<path class="st0" d="M114,10c-0.4,0-0.5,0.1-0.5,0.4c0,0.1,0,0.2,0.1,0.2c0.1,0,0.3,0.1,0.6,0.2s0.5,0.1,0.6,0.2
	c0.1,0.1,0.2,0.3,0.2,0.5c0,0.3-0.1,0.4-0.2,0.6s-0.4,0.2-0.7,0.2c-0.2,0-0.4,0-0.7-0.1l-0.2,0l0-0.3c0.4,0.1,0.7,0.1,0.9,0.1
	s0.3,0,0.4-0.1c0.1-0.1,0.2-0.2,0.2-0.3s0-0.2-0.1-0.3c-0.1-0.1-0.3-0.1-0.6-0.1c-0.3,0-0.5-0.1-0.6-0.2s-0.2-0.3-0.2-0.5
	s0.1-0.4,0.3-0.5c0.2-0.1,0.4-0.2,0.6-0.2c0.2,0,0.5,0,0.8,0.1l0.1,0l0,0.3C114.5,10,114.2,10,114,10z"/>
<path class="st0" d="M115.5,11v-0.3h1.5V11H115.5z"/>
<path class="st0" d="M119,11h-0.9v1.2h-0.4V8.7h1.3c0.4,0,0.7,0.1,0.8,0.3c0.2,0.2,0.3,0.5,0.3,0.8C120.1,10.6,119.7,11,119,11z
	 M118.1,10.7h0.9c0.5,0,0.7-0.3,0.7-0.8c0-0.3-0.1-0.5-0.2-0.6c-0.1-0.1-0.3-0.2-0.5-0.2h-0.9V10.7z"/>
<path class="st0" d="M122.8,12.1c-0.3,0.1-0.7,0.1-0.9,0.1s-0.5,0-0.7-0.1c-0.2-0.1-0.3-0.2-0.4-0.3s-0.2-0.3-0.2-0.5
	c0-0.2-0.1-0.5-0.1-0.8s0-0.6,0.1-0.8c0-0.2,0.1-0.4,0.2-0.6s0.2-0.3,0.4-0.4c0.2-0.1,0.4-0.1,0.7-0.1s0.6,0,0.9,0.1l0,0.3
	C122.4,9,122.1,9,121.9,9c-0.4,0-0.6,0.1-0.7,0.3c-0.1,0.2-0.2,0.6-0.2,1.1c0,0.3,0,0.5,0,0.6s0.1,0.3,0.1,0.4
	c0.1,0.1,0.2,0.2,0.3,0.3c0.1,0.1,0.3,0.1,0.5,0.1c0.2,0,0.5,0,0.8-0.1L122.8,12.1z"/>
<path class="st0" d="M126.2,10.9l-1.7-0.8V9.7l2.1,1v0.3l-2.1,1v-0.4L126.2,10.9z"/>
<path class="st0" d="M129.7,12.2h-1.2V8.7h1.2c0.6,0,0.9,0.2,1.1,0.7c0.1,0.3,0.2,0.6,0.2,1c0,0.9-0.2,1.4-0.7,1.6
	C130.1,12.1,129.9,12.2,129.7,12.2z M130.5,10.4c0-0.7-0.1-1.1-0.4-1.2c-0.1-0.1-0.3-0.1-0.4-0.1h-0.9v2.8h0.9
	C130.2,11.8,130.5,11.4,130.5,10.4z"/>
<path class="st0" d="M133.3,11.9l0.1,0l0,0.3c-0.4,0.1-0.7,0.1-1,0.1c-0.4,0-0.6-0.1-0.8-0.3c-0.1-0.2-0.2-0.5-0.2-1
	c0-0.9,0.3-1.3,1-1.3c0.3,0,0.6,0.1,0.8,0.3s0.2,0.5,0.2,0.9l0,0.3h-1.7c0,0.3,0,0.5,0.2,0.6c0.1,0.1,0.3,0.2,0.5,0.2
	C132.8,11.9,133,11.9,133.3,11.9z M133.1,10.8c0-0.3,0-0.5-0.1-0.7s-0.3-0.2-0.5-0.2s-0.4,0.1-0.5,0.2c-0.1,0.1-0.2,0.3-0.2,0.6
	H133.1z"/>
<path class="st0" d="M134.9,10c-0.4,0-0.5,0.1-0.5,0.4c0,0.1,0,0.2,0.1,0.2c0.1,0,0.3,0.1,0.6,0.2s0.5,0.1,0.6,0.2
	c0.1,0.1,0.2,0.3,0.2,0.5c0,0.3-0.1,0.4-0.2,0.6s-0.4,0.2-0.7,0.2c-0.2,0-0.4,0-0.7-0.1l-0.2,0l0-0.3c0.4,0.1,0.7,0.1,0.9,0.1
	s0.3,0,0.4-0.1c0.1-0.1,0.2-0.2,0.2-0.3s0-0.2-0.1-0.3c-0.1-0.1-0.3-0.1-0.6-0.1c-0.3,0-0.5-0.1-0.6-0.2s-0.2-0.3-0.2-0.5
	s0.1-0.4,0.3-0.5c0.2-0.1,0.4-0.2,0.6-0.2c0.2,0,0.5,0,0.8,0.1l0.1,0l0,0.3C135.4,10,135.1,10,134.9,10z"/>
<path class="st0" d="M136.8,12.2h-0.4V8.6h0.4v2.1l0.4,0l0.7-1h0.4l-0.8,1.2l0.8,1.3h-0.4l-0.7-1.2l-0.4,0V12.2z"/>
<path class="st0" d="M140.1,10h-0.8v1.2c0,0.3,0,0.5,0.1,0.6c0,0.1,0.1,0.1,0.3,0.1l0.4,0l0,0.3c-0.2,0-0.4,0.1-0.5,0.1
	c-0.3,0-0.4-0.1-0.5-0.2c-0.1-0.1-0.1-0.4-0.1-0.7V10h-0.4V9.7h0.4V8.9h0.4v0.8h0.8V10z"/>
<path class="st0" d="M140.5,10.9c0-0.5,0.1-0.8,0.2-1s0.4-0.3,0.8-0.3c0.4,0,0.7,0.1,0.8,0.3s0.2,0.5,0.2,1s-0.1,0.8-0.2,1
	c-0.2,0.2-0.4,0.3-0.8,0.3c-0.4,0-0.7-0.1-0.8-0.3C140.5,11.7,140.5,11.4,140.5,10.9z M140.9,10.9c0,0.4,0,0.6,0.1,0.8
	c0.1,0.1,0.3,0.2,0.6,0.2c0.3,0,0.5-0.1,0.6-0.2c0.1-0.1,0.1-0.4,0.1-0.8c0-0.4,0-0.6-0.1-0.8s-0.3-0.2-0.5-0.2s-0.4,0.1-0.5,0.2
	C140.9,10.3,140.9,10.5,140.9,10.9z"/>
<path class="st0" d="M143.2,13.3V9.7h0.4v0.2c0.3-0.2,0.5-0.2,0.8-0.2c0.3,0,0.5,0.1,0.7,0.3c0.1,0.2,0.2,0.5,0.2,1s-0.1,0.8-0.3,1
	c-0.2,0.2-0.4,0.3-0.8,0.3c-0.2,0-0.4,0-0.6-0.1v1.1H143.2z M144.3,10c-0.1,0-0.2,0-0.3,0s-0.2,0.1-0.3,0.1l-0.1,0.1v1.7
	c0.2,0,0.4,0.1,0.5,0.1c0.3,0,0.5-0.1,0.6-0.2s0.2-0.4,0.2-0.8s0-0.6-0.1-0.7S144.5,10,144.3,10z"/>
<path class="st0" d="M148.7,10.9l-1.7-0.8V9.7l2.1,1v0.3l-2.1,1v-0.4L148.7,10.9z"/>
<path class="st0" d="M150.6,12.2l1-3.5h0.8l1,3.5H153l-0.2-0.9h-1.5l-0.2,0.9H150.6z M151.9,9l-0.5,1.9h1.3L152.1,9H151.9z"/>
<path class="st0" d="M153.9,12.2V8.6h0.4v3.6H153.9z"/>
<path class="st0" d="M155,13.3V9.7h0.4v0.2c0.3-0.2,0.5-0.2,0.8-0.2c0.3,0,0.5,0.1,0.7,0.3c0.1,0.2,0.2,0.5,0.2,1s-0.1,0.8-0.3,1
	c-0.2,0.2-0.4,0.3-0.8,0.3c-0.2,0-0.4,0-0.6-0.1v1.1H155z M156.1,10c-0.1,0-0.2,0-0.3,0s-0.2,0.1-0.3,0.1l-0.1,0.1v1.7
	c0.2,0,0.4,0.1,0.5,0.1c0.3,0,0.5-0.1,0.6-0.2s0.2-0.4,0.2-0.8s0-0.6-0.1-0.7S156.2,10,156.1,10z"/>
<path class="st0" d="M158,12.2h-0.4V8.6h0.4v1.2c0.3-0.1,0.5-0.2,0.8-0.2c0.3,0,0.6,0.1,0.7,0.3c0.1,0.2,0.2,0.5,0.2,1v1.3h-0.4
	v-1.3c0-0.3,0-0.6-0.1-0.7s-0.2-0.2-0.4-0.2c-0.2,0-0.4,0-0.6,0.1l-0.1,0V12.2z"/>
<path class="st0" d="M162.1,10.4v1.3c0,0.1,0.1,0.2,0.3,0.2l0,0.3c-0.3,0-0.5-0.1-0.6-0.2c-0.3,0.1-0.6,0.2-0.9,0.2
	c-0.2,0-0.4-0.1-0.5-0.2c-0.1-0.1-0.2-0.3-0.2-0.6s0.1-0.4,0.2-0.5c0.1-0.1,0.3-0.2,0.6-0.2l0.8-0.1v-0.2c0-0.2,0-0.3-0.1-0.4
	s-0.2-0.1-0.3-0.1c-0.3,0-0.5,0-0.8,0l-0.2,0l0-0.3c0.4-0.1,0.7-0.1,1-0.1c0.3,0,0.5,0.1,0.6,0.2C162,10,162.1,10.2,162.1,10.4z
	 M160.5,11.5c0,0.3,0.1,0.5,0.4,0.5c0.2,0,0.5,0,0.7-0.1l0.1,0v-0.8L161,11c-0.1,0-0.3,0.1-0.3,0.1
	C160.6,11.2,160.5,11.3,160.5,11.5z"/>
<path class="st0" d="M163.9,9c0.3-0.1,0.6-0.1,1-0.1s0.6,0.1,0.8,0.2c0.2,0.1,0.2,0.4,0.2,0.7c0,0.2,0,0.3-0.1,0.3
	c0,0.1-0.1,0.1-0.1,0.2c0,0-0.1,0.1-0.1,0.1c-0.1,0.1-0.1,0.1-0.2,0.1l-0.1,0c0.2,0.1,0.3,0.2,0.4,0.3c0.1,0.1,0.1,0.3,0.1,0.5
	c0,0.3-0.1,0.6-0.3,0.8c-0.2,0.2-0.4,0.2-0.8,0.2c-0.3,0-0.6,0-0.9-0.1l-0.2,0l0-0.3c0.4,0.1,0.7,0.1,1,0.1c0.5,0,0.7-0.2,0.7-0.6
	c0-0.4-0.2-0.6-0.7-0.6h-0.7v-0.3h0.7c0.1,0,0.3-0.1,0.4-0.2c0.1-0.1,0.2-0.3,0.2-0.4c0-0.2-0.1-0.3-0.2-0.4
	c-0.1-0.1-0.3-0.1-0.5-0.1c-0.3,0-0.5,0-0.8,0.1l-0.1,0L163.9,9z"/>
<path class="st0" d="M166.7,12.2v-0.6h0.4v0.6H166.7z"/>
<path class="st0" d="M169.4,8.9v3.3H169V9.3l-0.8,0.6L168,9.6l1-0.7H169.4z"/>
<path class="st0" d="M172.2,8.9v3.3h-0.4V9.3l-0.8,0.6l-0.2-0.3l1-0.7H172.2z"/>
<path class="st0" d="M176.2,10.9l-1.7-0.8V9.7l2.1,1v0.3l-2.1,1v-0.4L176.2,10.9z"/>
<path class="st0" d="M181.1,10.5c0,0.6-0.1,1.1-0.3,1.3c-0.2,0.3-0.6,0.4-1.1,0.4s-0.9-0.1-1.1-0.4c-0.2-0.3-0.3-0.7-0.3-1.3
	c0-0.6,0.1-1.1,0.3-1.4s0.6-0.4,1.1-0.4c0.5,0,0.9,0.1,1.1,0.4C181,9.4,181.1,9.9,181.1,10.5z M178.7,10.5c0,0.5,0.1,0.9,0.2,1.1
	c0.1,0.2,0.4,0.3,0.8,0.3s0.6-0.1,0.8-0.3c0.1-0.2,0.2-0.6,0.2-1.1s-0.1-0.9-0.2-1.1S180.1,9,179.7,9s-0.6,0.1-0.8,0.3
	C178.8,9.6,178.7,10,178.7,10.5z"/>
<path class="st0" d="M182.8,9.6c0.3,0,0.6,0.1,0.7,0.3c0.1,0.2,0.2,0.5,0.2,1c0,0.5-0.1,0.8-0.3,1c-0.2,0.2-0.5,0.3-0.9,0.3
	c-0.1,0-0.4,0-0.7,0l-0.1,0V8.6h0.4v1.2C182.3,9.7,182.6,9.6,182.8,9.6z M182.5,11.9c0.3,0,0.5-0.1,0.6-0.2c0.1-0.1,0.2-0.4,0.2-0.8
	s0-0.6-0.1-0.7c-0.1-0.1-0.2-0.2-0.4-0.2c-0.2,0-0.4,0-0.6,0.1l-0.1,0v1.8C182.3,11.9,182.4,11.9,182.5,11.9z"/>
<path class="st0" d="M184.3,12.1V9.7h0.4v2.4c0,0.3-0.1,0.5-0.2,0.7c-0.1,0.2-0.3,0.3-0.7,0.5l-0.2-0.3c0.3-0.2,0.4-0.3,0.5-0.4
	C184.3,12.5,184.3,12.3,184.3,12.1z M184.3,9.1V8.7h0.4v0.4H184.3z"/>
<path class="st0" d="M187.1,11.9l0.1,0l0,0.3c-0.4,0.1-0.7,0.1-1,0.1c-0.4,0-0.6-0.1-0.8-0.3c-0.1-0.2-0.2-0.5-0.2-1
	c0-0.9,0.3-1.3,1-1.3c0.3,0,0.6,0.1,0.8,0.3s0.2,0.5,0.2,0.9l0,0.3h-1.7c0,0.3,0,0.5,0.2,0.6c0.1,0.1,0.3,0.2,0.5,0.2
	C186.6,11.9,186.9,11.9,187.1,11.9z M187,10.8c0-0.3,0-0.5-0.1-0.7s-0.3-0.2-0.5-0.2s-0.4,0.1-0.5,0.2c-0.1,0.1-0.2,0.3-0.2,0.6H187
	z"/>
<path class="st0" d="M188.9,9.6c0.1,0,0.3,0,0.6,0.1l0.1,0l0,0.3c-0.3,0-0.5,0-0.6,0c-0.3,0-0.5,0.1-0.6,0.2
	c-0.1,0.1-0.2,0.4-0.2,0.8s0,0.6,0.1,0.8c0.1,0.1,0.3,0.2,0.6,0.2l0.6,0l0,0.3c-0.3,0-0.5,0.1-0.7,0.1c-0.4,0-0.7-0.1-0.8-0.3
	s-0.2-0.5-0.2-1c0-0.5,0.1-0.8,0.2-1C188.2,9.7,188.5,9.6,188.9,9.6z"/>
<path class="st0" d="M191.4,10h-0.8v1.2c0,0.3,0,0.5,0.1,0.6c0,0.1,0.1,0.1,0.3,0.1l0.4,0l0,0.3c-0.2,0-0.4,0.1-0.5,0.1
	c-0.3,0-0.4-0.1-0.5-0.2c-0.1-0.1-0.1-0.4-0.1-0.7V10h-0.4V9.7h0.4V8.9h0.4v0.8h0.8V10z"/>
<path class="st0" d="M191.9,9.1V8.7h0.4v0.4H191.9z M191.9,12.2V9.7h0.4v2.5H191.9z"/>
<path class="st0" d="M192.7,9.7h0.4l0.6,2.2h0.2l0.6-2.2h0.4l-0.7,2.5h-0.8L192.7,9.7z"/>
<path class="st0" d="M197,11.9l0.1,0l0,0.3c-0.4,0.1-0.7,0.1-1,0.1c-0.4,0-0.6-0.1-0.8-0.3c-0.1-0.2-0.2-0.5-0.2-1
	c0-0.9,0.3-1.3,1-1.3c0.3,0,0.6,0.1,0.8,0.3s0.2,0.5,0.2,0.9l0,0.3h-1.7c0,0.3,0,0.5,0.2,0.6c0.1,0.1,0.3,0.2,0.5,0.2
	C196.5,11.9,196.8,11.9,197,11.9z M196.9,10.8c0-0.3,0-0.5-0.1-0.7s-0.3-0.2-0.5-0.2s-0.4,0.1-0.5,0.2c-0.1,0.1-0.2,0.3-0.2,0.6
	H196.9z"/>
<path class="st0" d="M198.6,10c-0.4,0-0.5,0.1-0.5,0.4c0,0.1,0,0.2,0.1,0.2c0.1,0,0.3,0.1,0.6,0.2s0.5,0.1,0.6,0.2
	c0.1,0.1,0.2,0.3,0.2,0.5c0,0.3-0.1,0.4-0.2,0.6s-0.4,0.2-0.7,0.2c-0.2,0-0.4,0-0.7-0.1l-0.2,0l0-0.3c0.4,0.1,0.7,0.1,0.9,0.1
	s0.3,0,0.4-0.1c0.1-0.1,0.2-0.2,0.2-0.3s0-0.2-0.1-0.3c-0.1-0.1-0.3-0.1-0.6-0.1c-0.3,0-0.5-0.1-0.6-0.2s-0.2-0.3-0.2-0.5
	s0.1-0.4,0.3-0.5c0.2-0.1,0.4-0.2,0.6-0.2c0.2,0,0.5,0,0.8,0.1l0.1,0l0,0.3C199.1,10,198.9,10,198.6,10z"/>
<path class="st0" d="M200.2,12.2v-0.6h0.4v0.6H200.2z"/>
<path class="st0" d="M201.2,12.2v-0.6h0.4v0.6H201.2z"/>
<path class="st0" d="M202.3,12.2v-0.6h0.4v0.6H202.3z"/>
<path class="st0" d="M130.8,19c-0.5,0-0.8,0.2-0.8,0.6c0,0.2,0.1,0.4,0.2,0.4s0.3,0.2,0.7,0.2c0.4,0.1,0.6,0.2,0.7,0.3
	s0.2,0.3,0.2,0.6c0,0.7-0.4,1.1-1.1,1.1c-0.2,0-0.5,0-0.9-0.1l-0.2,0l0-0.3c0.5,0.1,0.8,0.1,1,0.1c0.5,0,0.7-0.2,0.7-0.7
	c0-0.2-0.1-0.3-0.2-0.4s-0.3-0.2-0.6-0.2c-0.4-0.1-0.7-0.2-0.8-0.3c-0.2-0.1-0.2-0.4-0.2-0.7c0-0.6,0.4-0.9,1.1-0.9
	c0.2,0,0.5,0,0.9,0.1l0.2,0l0,0.3C131.3,19,131,19,130.8,19z"/>
<path class="st0" d="M134.2,21.9l0.1,0l0,0.3c-0.4,0.1-0.7,0.1-1,0.1c-0.4,0-0.6-0.1-0.8-0.3c-0.1-0.2-0.2-0.5-0.2-1
	c0-0.9,0.3-1.3,1-1.3c0.3,0,0.6,0.1,0.8,0.3s0.2,0.5,0.2,0.9l0,0.3h-1.7c0,0.3,0,0.5,0.2,0.6c0.1,0.1,0.3,0.2,0.5,0.2
	C133.7,21.9,133.9,21.9,134.2,21.9z M134.1,20.8c0-0.3,0-0.5-0.1-0.7s-0.3-0.2-0.5-0.2s-0.4,0.1-0.5,0.2c-0.1,0.1-0.2,0.3-0.2,0.6
	H134.1z"/>
<path class="st0" d="M136.8,20.4v1.3c0,0.1,0.1,0.2,0.3,0.2l0,0.3c-0.3,0-0.5-0.1-0.6-0.2c-0.3,0.1-0.6,0.2-0.9,0.2
	c-0.2,0-0.4-0.1-0.5-0.2c-0.1-0.1-0.2-0.3-0.2-0.6s0.1-0.4,0.2-0.5c0.1-0.1,0.3-0.2,0.6-0.2l0.8-0.1v-0.2c0-0.2,0-0.3-0.1-0.4
	S136.1,20,136,20c-0.3,0-0.5,0-0.8,0l-0.2,0l0-0.3c0.4-0.1,0.7-0.1,1-0.1c0.3,0,0.5,0.1,0.6,0.2C136.7,20,136.8,20.2,136.8,20.4z
	 M135.3,21.5c0,0.3,0.1,0.5,0.4,0.5c0.2,0,0.5,0,0.7-0.1l0.1,0v-0.8l-0.7,0.1c-0.1,0-0.3,0.1-0.3,0.1
	C135.3,21.2,135.3,21.3,135.3,21.5z"/>
<path class="st0" d="M137.5,22.2v-2.5h0.4V20c0.3-0.2,0.6-0.3,0.9-0.4V20c-0.1,0-0.3,0.1-0.4,0.1c-0.2,0.1-0.3,0.1-0.3,0.1l-0.1,0.1
	v1.8H137.5z"/>
<path class="st0" d="M140.2,19.6c0.1,0,0.3,0,0.6,0.1l0.1,0l0,0.3c-0.3,0-0.5,0-0.6,0c-0.3,0-0.5,0.1-0.6,0.2
	c-0.1,0.1-0.2,0.4-0.2,0.8s0,0.6,0.1,0.8c0.1,0.1,0.3,0.2,0.6,0.2l0.6,0l0,0.3c-0.3,0-0.5,0.1-0.7,0.1c-0.4,0-0.7-0.1-0.8-0.3
	s-0.2-0.5-0.2-1c0-0.5,0.1-0.8,0.2-1C139.5,19.7,139.8,19.6,140.2,19.6z"/>
<path class="st0" d="M141.8,22.2h-0.4v-3.6h0.4v1.2c0.3-0.1,0.5-0.2,0.8-0.2c0.3,0,0.6,0.1,0.7,0.3c0.1,0.2,0.2,0.5,0.2,1v1.3H143
	v-1.3c0-0.3,0-0.6-0.1-0.7s-0.2-0.2-0.4-0.2c-0.2,0-0.4,0-0.6,0.1l-0.1,0V22.2z"/>
<path class="st0" d="M144.1,19.1v-0.4h0.4v0.4H144.1z M144.1,22.2v-2.5h0.4v2.5H144.1z"/>
<path class="st0" d="M145.6,22.2h-0.4v-2.5h0.4v0.2c0.3-0.1,0.5-0.2,0.8-0.2c0.3,0,0.6,0.1,0.7,0.3c0.1,0.2,0.2,0.5,0.2,1v1.3h-0.4
	v-1.3c0-0.3,0-0.6-0.1-0.7c-0.1-0.1-0.2-0.2-0.4-0.2c-0.1,0-0.2,0-0.3,0c-0.1,0-0.2,0.1-0.3,0.1l-0.1,0V22.2z"/>
<path class="st0" d="M148.8,23.4c-0.4,0-0.7-0.1-0.8-0.2s-0.2-0.3-0.2-0.6c0-0.1,0-0.2,0.1-0.3c0.1-0.1,0.2-0.2,0.3-0.3
	c-0.1-0.1-0.1-0.2-0.1-0.3c0-0.1,0-0.2,0.1-0.3l0-0.1c-0.3-0.1-0.4-0.4-0.4-0.8c0-0.6,0.3-0.9,0.9-0.9c0.2,0,0.3,0,0.4,0l0.1,0
	l0.7,0V20l-0.5,0c0.1,0.1,0.2,0.3,0.2,0.5c0,0.3-0.1,0.5-0.2,0.7s-0.4,0.2-0.7,0.2c-0.1,0-0.2,0-0.2,0c-0.1,0.1-0.1,0.2-0.1,0.3
	c0,0.1,0,0.2,0.1,0.2s0.3,0,0.6,0s0.5,0.1,0.7,0.2c0.1,0.1,0.2,0.3,0.2,0.6C149.9,23.1,149.6,23.4,148.8,23.4z M148.1,22.6
	c0,0.2,0,0.3,0.1,0.4s0.3,0.1,0.5,0.1s0.5,0,0.6-0.1c0.1-0.1,0.2-0.2,0.2-0.4c0-0.2,0-0.3-0.1-0.3c-0.1,0-0.2-0.1-0.5-0.1l-0.5,0
	c-0.1,0.1-0.2,0.1-0.2,0.2C148.1,22.4,148.1,22.5,148.1,22.6z M148.2,20.5c0,0.2,0,0.3,0.1,0.4c0.1,0.1,0.2,0.1,0.4,0.1
	c0.2,0,0.3,0,0.4-0.1c0.1-0.1,0.1-0.2,0.1-0.4s0-0.3-0.1-0.4s-0.2-0.1-0.4-0.1c-0.2,0-0.3,0-0.4,0.1
	C148.2,20.1,148.2,20.3,148.2,20.5z"/>
<path class="st0" d="M152,20v2.2h-0.4V20h-0.3v-0.3h0.3v-0.2c0-0.4,0-0.6,0.2-0.7c0.1-0.1,0.3-0.2,0.5-0.2l0.5,0l0,0.3
	c-0.2,0-0.3,0-0.5,0c-0.1,0-0.2,0-0.3,0.1c-0.1,0.1-0.1,0.2-0.1,0.5v0.2h0.7V20H152z"/>
<path class="st0" d="M153,20.9c0-0.5,0.1-0.8,0.2-1s0.4-0.3,0.8-0.3c0.4,0,0.7,0.1,0.8,0.3s0.2,0.5,0.2,1s-0.1,0.8-0.2,1
	c-0.2,0.2-0.4,0.3-0.8,0.3c-0.4,0-0.7-0.1-0.8-0.3C153.1,21.7,153,21.4,153,20.9z M153.4,20.9c0,0.4,0,0.6,0.1,0.8
	c0.1,0.1,0.3,0.2,0.6,0.2c0.3,0,0.5-0.1,0.6-0.2c0.1-0.1,0.1-0.4,0.1-0.8c0-0.4,0-0.6-0.1-0.8s-0.3-0.2-0.5-0.2s-0.4,0.1-0.5,0.2
	C153.5,20.3,153.4,20.5,153.4,20.9z"/>
<path class="st0" d="M155.8,22.2v-2.5h0.4V20c0.3-0.2,0.6-0.3,0.9-0.4V20c-0.1,0-0.3,0.1-0.4,0.1c-0.2,0.1-0.3,0.1-0.3,0.1l-0.1,0.1
	v1.8H155.8z"/>
<path class="st0" d="M159.1,20v2.2h-0.4V20h-0.3v-0.3h0.3v-0.2c0-0.4,0-0.6,0.2-0.7c0.1-0.1,0.3-0.2,0.5-0.2l0.5,0l0,0.3
	c-0.2,0-0.3,0-0.5,0c-0.1,0-0.2,0-0.3,0.1c-0.1,0.1-0.1,0.2-0.1,0.5v0.2h0.7V20H159.1z"/>
<path class="st0" d="M160.3,19.1v-0.4h0.4v0.4H160.3z M160.3,22.2v-2.5h0.4v2.5H160.3z"/>
<path class="st0" d="M161.4,22.2v-3.6h0.4v3.6H161.4z"/>
<path class="st0" d="M164.2,21.9l0.1,0l0,0.3c-0.4,0.1-0.7,0.1-1,0.1c-0.4,0-0.6-0.1-0.8-0.3c-0.1-0.2-0.2-0.5-0.2-1
	c0-0.9,0.3-1.3,1-1.3c0.3,0,0.6,0.1,0.8,0.3s0.2,0.5,0.2,0.9l0,0.3h-1.7c0,0.3,0,0.5,0.2,0.6c0.1,0.1,0.3,0.2,0.5,0.2
	C163.7,21.9,164,21.9,164.2,21.9z M164.1,20.8c0-0.3,0-0.5-0.1-0.7s-0.3-0.2-0.5-0.2s-0.4,0.1-0.5,0.2c-0.1,0.1-0.2,0.3-0.2,0.6
	H164.1z"/>
<path class="st0" d="M165.8,20c-0.4,0-0.5,0.1-0.5,0.4c0,0.1,0,0.2,0.1,0.2c0.1,0,0.3,0.1,0.6,0.2s0.5,0.1,0.6,0.2
	c0.1,0.1,0.2,0.3,0.2,0.5c0,0.3-0.1,0.4-0.2,0.6s-0.4,0.2-0.7,0.2c-0.2,0-0.4,0-0.7-0.1l-0.2,0l0-0.3c0.4,0.1,0.7,0.1,0.9,0.1
	s0.3,0,0.4-0.1c0.1-0.1,0.2-0.2,0.2-0.3s0-0.2-0.1-0.3c-0.1-0.1-0.3-0.1-0.6-0.1c-0.3,0-0.5-0.1-0.6-0.2s-0.2-0.3-0.2-0.5
	s0.1-0.4,0.3-0.5c0.2-0.1,0.4-0.2,0.6-0.2c0.2,0,0.5,0,0.8,0.1l0.1,0l0,0.3C166.3,20,166,20,165.8,20z"/>
<path class="st0" d="M167.3,22.2v-0.6h0.4v0.6H167.3z"/>
<path class="st0" d="M168.4,22.2v-0.6h0.4v0.6H168.4z"/>
<path class="st0" d="M169.5,22.2v-0.6h0.4v0.6H169.5z"/>
<path class="st0" d="M130.8,28c-0.5,0-0.8,0.2-0.8,0.6c0,0.2,0.1,0.4,0.2,0.4s0.3,0.2,0.7,0.2c0.4,0.1,0.6,0.2,0.7,0.3
	s0.2,0.3,0.2,0.6c0,0.7-0.4,1.1-1.1,1.1c-0.2,0-0.5,0-0.9-0.1l-0.2,0l0-0.3c0.5,0.1,0.8,0.1,1,0.1c0.5,0,0.7-0.2,0.7-0.7
	c0-0.2-0.1-0.3-0.2-0.4s-0.3-0.2-0.6-0.2c-0.4-0.1-0.7-0.2-0.8-0.3c-0.2-0.1-0.2-0.4-0.2-0.7c0-0.6,0.4-0.9,1.1-0.9
	c0.2,0,0.5,0,0.9,0.1l0.2,0l0,0.3C131.3,28,131,28,130.8,28z"/>
<path class="st0" d="M134.2,30.9l0.1,0l0,0.3c-0.4,0.1-0.7,0.1-1,0.1c-0.4,0-0.6-0.1-0.8-0.3c-0.1-0.2-0.2-0.5-0.2-1
	c0-0.9,0.3-1.3,1-1.3c0.3,0,0.6,0.1,0.8,0.3s0.2,0.5,0.2,0.9l0,0.3h-1.7c0,0.3,0,0.5,0.2,0.6c0.1,0.1,0.3,0.2,0.5,0.2
	C133.7,30.9,133.9,30.9,134.2,30.9z M134.1,29.8c0-0.3,0-0.5-0.1-0.7s-0.3-0.2-0.5-0.2s-0.4,0.1-0.5,0.2c-0.1,0.1-0.2,0.3-0.2,0.6
	H134.1z"/>
<path class="st0" d="M136.8,29.4v1.3c0,0.1,0.1,0.2,0.3,0.2l0,0.3c-0.3,0-0.5-0.1-0.6-0.2c-0.3,0.1-0.6,0.2-0.9,0.2
	c-0.2,0-0.4-0.1-0.5-0.2c-0.1-0.1-0.2-0.3-0.2-0.6s0.1-0.4,0.2-0.5c0.1-0.1,0.3-0.2,0.6-0.2l0.8-0.1v-0.2c0-0.2,0-0.3-0.1-0.4
	S136.1,29,136,29c-0.3,0-0.5,0-0.8,0l-0.2,0l0-0.3c0.4-0.1,0.7-0.1,1-0.1c0.3,0,0.5,0.1,0.6,0.2C136.7,29,136.8,29.2,136.8,29.4z
	 M135.3,30.5c0,0.3,0.1,0.5,0.4,0.5c0.2,0,0.5,0,0.7-0.1l0.1,0v-0.8l-0.7,0.1c-0.1,0-0.3,0.1-0.3,0.1
	C135.3,30.2,135.3,30.3,135.3,30.5z"/>
<path class="st0" d="M137.5,31.2v-2.5h0.4V29c0.3-0.2,0.6-0.3,0.9-0.4V29c-0.1,0-0.3,0.1-0.4,0.1c-0.2,0.1-0.3,0.1-0.3,0.1l-0.1,0.1
	v1.8H137.5z"/>
<path class="st0" d="M140.2,28.6c0.1,0,0.3,0,0.6,0.1l0.1,0l0,0.3c-0.3,0-0.5,0-0.6,0c-0.3,0-0.5,0.1-0.6,0.2
	c-0.1,0.1-0.2,0.4-0.2,0.8s0,0.6,0.1,0.8c0.1,0.1,0.3,0.2,0.6,0.2l0.6,0l0,0.3c-0.3,0-0.5,0.1-0.7,0.1c-0.4,0-0.7-0.1-0.8-0.3
	s-0.2-0.5-0.2-1c0-0.5,0.1-0.8,0.2-1C139.5,28.7,139.8,28.6,140.2,28.6z"/>
<path class="st0" d="M141.8,31.2h-0.4v-3.6h0.4v1.2c0.3-0.1,0.5-0.2,0.8-0.2c0.3,0,0.6,0.1,0.7,0.3c0.1,0.2,0.2,0.5,0.2,1v1.3H143
	v-1.3c0-0.3,0-0.6-0.1-0.7s-0.2-0.2-0.4-0.2c-0.2,0-0.4,0-0.6,0.1l-0.1,0V31.2z"/>
<path class="st0" d="M144.1,28.1v-0.4h0.4v0.4H144.1z M144.1,31.2v-2.5h0.4v2.5H144.1z"/>
<path class="st0" d="M145.6,31.2h-0.4v-2.5h0.4v0.2c0.3-0.1,0.5-0.2,0.8-0.2c0.3,0,0.6,0.1,0.7,0.3c0.1,0.2,0.2,0.5,0.2,1v1.3h-0.4
	v-1.3c0-0.3,0-0.6-0.1-0.7c-0.1-0.1-0.2-0.2-0.4-0.2c-0.1,0-0.2,0-0.3,0c-0.1,0-0.2,0.1-0.3,0.1l-0.1,0V31.2z"/>
<path class="st0" d="M148.8,32.4c-0.4,0-0.7-0.1-0.8-0.2s-0.2-0.3-0.2-0.6c0-0.1,0-0.2,0.1-0.3c0.1-0.1,0.2-0.2,0.3-0.3
	c-0.1-0.1-0.1-0.2-0.1-0.3c0-0.1,0-0.2,0.1-0.3l0-0.1c-0.3-0.1-0.4-0.4-0.4-0.8c0-0.6,0.3-0.9,0.9-0.9c0.2,0,0.3,0,0.4,0l0.1,0
	l0.7,0V29l-0.5,0c0.1,0.1,0.2,0.3,0.2,0.5c0,0.3-0.1,0.5-0.2,0.7s-0.4,0.2-0.7,0.2c-0.1,0-0.2,0-0.2,0c-0.1,0.1-0.1,0.2-0.1,0.3
	c0,0.1,0,0.2,0.1,0.2s0.3,0,0.6,0s0.5,0.1,0.7,0.2c0.1,0.1,0.2,0.3,0.2,0.6C149.9,32.1,149.6,32.4,148.8,32.4z M148.1,31.6
	c0,0.2,0,0.3,0.1,0.4c0.1,0.1,0.3,0.1,0.5,0.1s0.5,0,0.6-0.1c0.1-0.1,0.2-0.2,0.2-0.4c0-0.2,0-0.3-0.1-0.3c-0.1,0-0.2-0.1-0.5-0.1
	l-0.5,0c-0.1,0.1-0.2,0.1-0.2,0.2C148.1,31.4,148.1,31.5,148.1,31.6z M148.2,29.5c0,0.2,0,0.3,0.1,0.4c0.1,0.1,0.2,0.1,0.4,0.1
	c0.2,0,0.3,0,0.4-0.1c0.1-0.1,0.1-0.2,0.1-0.4s0-0.3-0.1-0.4s-0.2-0.1-0.4-0.1c-0.2,0-0.3,0-0.4,0.1
	C148.2,29.1,148.2,29.3,148.2,29.5z"/>
<path class="st0" d="M152,29v2.2h-0.4V29h-0.3v-0.3h0.3v-0.2c0-0.4,0-0.6,0.2-0.7c0.1-0.1,0.3-0.2,0.5-0.2l0.5,0l0,0.3
	c-0.2,0-0.3,0-0.5,0c-0.1,0-0.2,0-0.3,0.1c-0.1,0.1-0.1,0.2-0.1,0.5v0.2h0.7V29H152z"/>
<path class="st0" d="M153,29.9c0-0.5,0.1-0.8,0.2-1s0.4-0.3,0.8-0.3c0.4,0,0.7,0.1,0.8,0.3s0.2,0.5,0.2,1s-0.1,0.8-0.2,1
	c-0.2,0.2-0.4,0.3-0.8,0.3c-0.4,0-0.7-0.1-0.8-0.3C153.1,30.7,153,30.4,153,29.9z M153.4,29.9c0,0.4,0,0.6,0.1,0.8
	c0.1,0.1,0.3,0.2,0.6,0.2c0.3,0,0.5-0.1,0.6-0.2c0.1-0.1,0.1-0.4,0.1-0.8c0-0.4,0-0.6-0.1-0.8s-0.3-0.2-0.5-0.2s-0.4,0.1-0.5,0.2
	C153.5,29.3,153.4,29.5,153.4,29.9z"/>
<path class="st0" d="M155.8,31.2v-2.5h0.4V29c0.3-0.2,0.6-0.3,0.9-0.4V29c-0.1,0-0.3,0.1-0.4,0.1c-0.2,0.1-0.3,0.1-0.3,0.1l-0.1,0.1
	v1.8H155.8z"/>
<path class="st0" d="M159.1,29v2.2h-0.4V29h-0.3v-0.3h0.3v-0.2c0-0.4,0-0.6,0.2-0.7c0.1-0.1,0.3-0.2,0.5-0.2l0.5,0l0,0.3
	c-0.2,0-0.3,0-0.5,0c-0.1,0-0.2,0-0.3,0.1c-0.1,0.1-0.1,0.2-0.1,0.5v0.2h0.7V29H159.1z"/>
<path class="st0" d="M160.3,28.1v-0.4h0.4v0.4H160.3z M160.3,31.2v-2.5h0.4v2.5H160.3z"/>
<path class="st0" d="M161.4,31.2v-3.6h0.4v3.6H161.4z"/>
<path class="st0" d="M164.2,30.9l0.1,0l0,0.3c-0.4,0.1-0.7,0.1-1,0.1c-0.4,0-0.6-0.1-0.8-0.3c-0.1-0.2-0.2-0.5-0.2-1
	c0-0.9,0.3-1.3,1-1.3c0.3,0,0.6,0.1,0.8,0.3s0.2,0.5,0.2,0.9l0,0.3h-1.7c0,0.3,0,0.5,0.2,0.6c0.1,0.1,0.3,0.2,0.5,0.2
	C163.7,30.9,164,30.9,164.2,30.9z M164.1,29.8c0-0.3,0-0.5-0.1-0.7s-0.3-0.2-0.5-0.2s-0.4,0.1-0.5,0.2c-0.1,0.1-0.2,0.3-0.2,0.6
	H164.1z"/>
<path class="st0" d="M165.8,29c-0.4,0-0.5,0.1-0.5,0.4c0,0.1,0,0.2,0.1,0.2c0.1,0,0.3,0.1,0.6,0.2s0.5,0.1,0.6,0.2
	c0.1,0.1,0.2,0.3,0.2,0.5c0,0.3-0.1,0.4-0.2,0.6s-0.4,0.2-0.7,0.2c-0.2,0-0.4,0-0.7-0.1l-0.2,0l0-0.3c0.4,0.1,0.7,0.1,0.9,0.1
	s0.3,0,0.4-0.1c0.1-0.1,0.2-0.2,0.2-0.3s0-0.2-0.1-0.3c-0.1-0.1-0.3-0.1-0.6-0.1c-0.3,0-0.5-0.1-0.6-0.2s-0.2-0.3-0.2-0.5
	s0.1-0.4,0.3-0.5c0.2-0.1,0.4-0.2,0.6-0.2c0.2,0,0.5,0,0.8,0.1l0.1,0l0,0.3C166.3,29,166,29,165.8,29z"/>
<path class="st0" d="M167.3,31.2v-0.6h0.4v0.6H167.3z"/>
<path class="st0" d="M168.4,31.2v-0.6h0.4v0.6H168.4z"/>
<path class="st0" d="M169.5,31.2v-0.6h0.4v0.6H169.5z"/>
<path class="st0" d="M130.8,37c-0.5,0-0.8,0.2-0.8,0.6c0,0.2,0.1,0.4,0.2,0.4s0.3,0.2,0.7,0.2c0.4,0.1,0.6,0.2,0.7,0.3
	s0.2,0.3,0.2,0.6c0,0.7-0.4,1.1-1.1,1.1c-0.2,0-0.5,0-0.9-0.1l-0.2,0l0-0.3c0.5,0.1,0.8,0.1,1,0.1c0.5,0,0.7-0.2,0.7-0.7
	c0-0.2-0.1-0.3-0.2-0.4s-0.3-0.2-0.6-0.2c-0.4-0.1-0.7-0.2-0.8-0.3c-0.2-0.1-0.2-0.4-0.2-0.7c0-0.6,0.4-0.9,1.1-0.9
	c0.2,0,0.5,0,0.9,0.1l0.2,0l0,0.3C131.3,37,131,37,130.8,37z"/>
<path class="st0" d="M134.2,39.9l0.1,0l0,0.3c-0.4,0.1-0.7,0.1-1,0.1c-0.4,0-0.6-0.1-0.8-0.3c-0.1-0.2-0.2-0.5-0.2-1
	c0-0.9,0.3-1.3,1-1.3c0.3,0,0.6,0.1,0.8,0.3s0.2,0.5,0.2,0.9l0,0.3h-1.7c0,0.3,0,0.5,0.2,0.6c0.1,0.1,0.3,0.2,0.5,0.2
	C133.7,39.9,133.9,39.9,134.2,39.9z M134.1,38.8c0-0.3,0-0.5-0.1-0.7s-0.3-0.2-0.5-0.2s-0.4,0.1-0.5,0.2c-0.1,0.1-0.2,0.3-0.2,0.6
	H134.1z"/>
<path class="st0" d="M136.8,38.4v1.3c0,0.1,0.1,0.2,0.3,0.2l0,0.3c-0.3,0-0.5-0.1-0.6-0.2c-0.3,0.1-0.6,0.2-0.9,0.2
	c-0.2,0-0.4-0.1-0.5-0.2c-0.1-0.1-0.2-0.3-0.2-0.6s0.1-0.4,0.2-0.5c0.1-0.1,0.3-0.2,0.6-0.2l0.8-0.1v-0.2c0-0.2,0-0.3-0.1-0.4
	S136.1,38,136,38c-0.3,0-0.5,0-0.8,0l-0.2,0l0-0.3c0.4-0.1,0.7-0.1,1-0.1c0.3,0,0.5,0.1,0.6,0.2C136.7,38,136.8,38.2,136.8,38.4z
	 M135.3,39.5c0,0.3,0.1,0.5,0.4,0.5c0.2,0,0.5,0,0.7-0.1l0.1,0v-0.8l-0.7,0.1c-0.1,0-0.3,0.1-0.3,0.1
	C135.3,39.2,135.3,39.3,135.3,39.5z"/>
<path class="st0" d="M137.5,40.2v-2.5h0.4V38c0.3-0.2,0.6-0.3,0.9-0.4V38c-0.1,0-0.3,0.1-0.4,0.1c-0.2,0.1-0.3,0.1-0.3,0.1l-0.1,0.1
	v1.8H137.5z"/>
<path class="st0" d="M140.2,37.6c0.1,0,0.3,0,0.6,0.1l0.1,0l0,0.3c-0.3,0-0.5,0-0.6,0c-0.3,0-0.5,0.1-0.6,0.2
	c-0.1,0.1-0.2,0.4-0.2,0.8s0,0.6,0.1,0.8c0.1,0.1,0.3,0.2,0.6,0.2l0.6,0l0,0.3c-0.3,0-0.5,0.1-0.7,0.1c-0.4,0-0.7-0.1-0.8-0.3
	s-0.2-0.5-0.2-1c0-0.5,0.1-0.8,0.2-1C139.5,37.7,139.8,37.6,140.2,37.6z"/>
<path class="st0" d="M141.8,40.2h-0.4v-3.6h0.4v1.2c0.3-0.1,0.5-0.2,0.8-0.2c0.3,0,0.6,0.1,0.7,0.3c0.1,0.2,0.2,0.5,0.2,1v1.3H143
	v-1.3c0-0.3,0-0.6-0.1-0.7s-0.2-0.2-0.4-0.2c-0.2,0-0.4,0-0.6,0.1l-0.1,0V40.2z"/>
<path class="st0" d="M144.1,37.1v-0.4h0.4v0.4H144.1z M144.1,40.2v-2.5h0.4v2.5H144.1z"/>
<path class="st0" d="M145.6,40.2h-0.4v-2.5h0.4v0.2c0.3-0.1,0.5-0.2,0.8-0.2c0.3,0,0.6,0.1,0.7,0.3c0.1,0.2,0.2,0.5,0.2,1v1.3h-0.4
	v-1.3c0-0.3,0-0.6-0.1-0.7c-0.1-0.1-0.2-0.2-0.4-0.2c-0.1,0-0.2,0-0.3,0c-0.1,0-0.2,0.1-0.3,0.1l-0.1,0V40.2z"/>
<path class="st0" d="M148.8,41.4c-0.4,0-0.7-0.1-0.8-0.2s-0.2-0.3-0.2-0.6c0-0.1,0-0.2,0.1-0.3c0.1-0.1,0.2-0.2,0.3-0.3
	c-0.1-0.1-0.1-0.2-0.1-0.3c0-0.1,0-0.2,0.1-0.3l0-0.1c-0.3-0.1-0.4-0.4-0.4-0.8c0-0.6,0.3-0.9,0.9-0.9c0.2,0,0.3,0,0.4,0l0.1,0
	l0.7,0V38l-0.5,0c0.1,0.1,0.2,0.3,0.2,0.5c0,0.3-0.1,0.5-0.2,0.7s-0.4,0.2-0.7,0.2c-0.1,0-0.2,0-0.2,0c-0.1,0.1-0.1,0.2-0.1,0.3
	c0,0.1,0,0.2,0.1,0.2s0.3,0,0.6,0s0.5,0.1,0.7,0.2c0.1,0.1,0.2,0.3,0.2,0.6C149.9,41.1,149.6,41.4,148.8,41.4z M148.1,40.6
	c0,0.2,0,0.3,0.1,0.4s0.3,0.1,0.5,0.1s0.5,0,0.6-0.1c0.1-0.1,0.2-0.2,0.2-0.4c0-0.2,0-0.3-0.1-0.3c-0.1,0-0.2-0.1-0.5-0.1l-0.5,0
	c-0.1,0.1-0.2,0.1-0.2,0.2C148.1,40.4,148.1,40.5,148.1,40.6z M148.2,38.5c0,0.2,0,0.3,0.1,0.4c0.1,0.1,0.2,0.1,0.4,0.1
	c0.2,0,0.3,0,0.4-0.1c0.1-0.1,0.1-0.2,0.1-0.4s0-0.3-0.1-0.4s-0.2-0.1-0.4-0.1c-0.2,0-0.3,0-0.4,0.1
	C148.2,38.1,148.2,38.3,148.2,38.5z"/>
<path class="st0" d="M152,38v2.2h-0.4V38h-0.3v-0.3h0.3v-0.2c0-0.4,0-0.6,0.2-0.7c0.1-0.1,0.3-0.2,0.5-0.2l0.5,0l0,0.3
	c-0.2,0-0.3,0-0.5,0c-0.1,0-0.2,0-0.3,0.1c-0.1,0.1-0.1,0.2-0.1,0.5v0.2h0.7V38H152z"/>
<path class="st0" d="M153,38.9c0-0.5,0.1-0.8,0.2-1s0.4-0.3,0.8-0.3c0.4,0,0.7,0.1,0.8,0.3s0.2,0.5,0.2,1s-0.1,0.8-0.2,1
	c-0.2,0.2-0.4,0.3-0.8,0.3c-0.4,0-0.7-0.1-0.8-0.3C153.1,39.7,153,39.4,153,38.9z M153.4,38.9c0,0.4,0,0.6,0.1,0.8
	c0.1,0.1,0.3,0.2,0.6,0.2c0.3,0,0.5-0.1,0.6-0.2c0.1-0.1,0.1-0.4,0.1-0.8c0-0.4,0-0.6-0.1-0.8s-0.3-0.2-0.5-0.2s-0.4,0.1-0.5,0.2
	C153.5,38.3,153.4,38.5,153.4,38.9z"/>
<path class="st0" d="M155.8,40.2v-2.5h0.4V38c0.3-0.2,0.6-0.3,0.9-0.4V38c-0.1,0-0.3,0.1-0.4,0.1c-0.2,0.1-0.3,0.1-0.3,0.1l-0.1,0.1
	v1.8H155.8z"/>
<path class="st0" d="M159.1,38v2.2h-0.4V38h-0.3v-0.3h0.3v-0.2c0-0.4,0-0.6,0.2-0.7c0.1-0.1,0.3-0.2,0.5-0.2l0.5,0l0,0.3
	c-0.2,0-0.3,0-0.5,0c-0.1,0-0.2,0-0.3,0.1c-0.1,0.1-0.1,0.2-0.1,0.5v0.2h0.7V38H159.1z"/>
<path class="st0" d="M160.3,37.1v-0.4h0.4v0.4H160.3z M160.3,40.2v-2.5h0.4v2.5H160.3z"/>
<path class="st0" d="M161.4,40.2v-3.6h0.4v3.6H161.4z"/>
<path class="st0" d="M164.2,39.9l0.1,0l0,0.3c-0.4,0.1-0.7,0.1-1,0.1c-0.4,0-0.6-0.1-0.8-0.3c-0.1-0.2-0.2-0.5-0.2-1
	c0-0.9,0.3-1.3,1-1.3c0.3,0,0.6,0.1,0.8,0.3s0.2,0.5,0.2,0.9l0,0.3h-1.7c0,0.3,0,0.5,0.2,0.6c0.1,0.1,0.3,0.2,0.5,0.2
	C163.7,39.9,164,39.9,164.2,39.9z M164.1,38.8c0-0.3,0-0.5-0.1-0.7s-0.3-0.2-0.5-0.2s-0.4,0.1-0.5,0.2c-0.1,0.1-0.2,0.3-0.2,0.6
	H164.1z"/>
<path class="st0" d="M165.8,38c-0.4,0-0.5,0.1-0.5,0.4c0,0.1,0,0.2,0.1,0.2c0.1,0,0.3,0.1,0.6,0.2s0.5,0.1,0.6,0.2
	c0.1,0.1,0.2,0.3,0.2,0.5c0,0.3-0.1,0.4-0.2,0.6s-0.4,0.2-0.7,0.2c-0.2,0-0.4,0-0.7-0.1l-0.2,0l0-0.3c0.4,0.1,0.7,0.1,0.9,0.1
	s0.3,0,0.4-0.1c0.1-0.1,0.2-0.2,0.2-0.3s0-0.2-0.1-0.3c-0.1-0.1-0.3-0.1-0.6-0.1c-0.3,0-0.5-0.1-0.6-0.2s-0.2-0.3-0.2-0.5
	s0.1-0.4,0.3-0.5c0.2-0.1,0.4-0.2,0.6-0.2c0.2,0,0.5,0,0.8,0.1l0.1,0l0,0.3C166.3,38,166,38,165.8,38z"/>
<path class="st0" d="M167.3,40.2v-0.6h0.4v0.6H167.3z"/>
<path class="st0" d="M168.4,40.2v-0.6h0.4v0.6H168.4z"/>
<path class="st0" d="M169.5,40.2v-0.6h0.4v0.6H169.5z"/>
<path class="st0" d="M282.9,50.2v-3.5h2.1v0.3h-1.7v1.4h1.4v0.3h-1.4v1.4H282.9z"/>
<path class="st0" d="M285.5,50.2v-3.5h0.4v3.5H285.5z"/>
<path class="st0" d="M288.6,50.2h-1.9v-3.5h0.4v3.1h1.5V50.2z"/>
<path class="st0" d="M289.1,50.2v-3.5h2.1v0.3h-1.7v1.2h1.4v0.3h-1.4v1.2h1.7v0.3H289.1z"/>
<path class="st0" d="M292.8,47c-0.5,0-0.8,0.2-0.8,0.6c0,0.2,0.1,0.4,0.2,0.4s0.3,0.2,0.7,0.2c0.4,0.1,0.6,0.2,0.7,0.3
	s0.2,0.3,0.2,0.6c0,0.7-0.4,1.1-1.1,1.1c-0.2,0-0.5,0-0.9-0.1l-0.2,0l0-0.3c0.5,0.1,0.8,0.1,1,0.1c0.5,0,0.7-0.2,0.7-0.7
	c0-0.2-0.1-0.3-0.2-0.4s-0.3-0.2-0.6-0.2c-0.4-0.1-0.7-0.2-0.8-0.3c-0.2-0.1-0.2-0.4-0.2-0.7c0-0.6,0.4-0.9,1.1-0.9
	c0.2,0,0.5,0,0.9,0.1l0.2,0l0,0.3C293.3,47,293,47,292.8,47z"/>
<path class="st0" d="M295.7,50.2v-3.5h2.1v0.3h-1.7v1.4h1.4v0.3h-1.4v1.4H295.7z"/>
<path class="st0" d="M300.8,48.5c0,0.6-0.1,1.1-0.3,1.3c-0.2,0.3-0.6,0.4-1.1,0.4s-0.9-0.1-1.1-0.4c-0.2-0.3-0.3-0.7-0.3-1.3
	c0-0.6,0.1-1.1,0.3-1.4s0.6-0.4,1.1-0.4c0.5,0,0.9,0.1,1.1,0.4C300.7,47.4,300.8,47.9,300.8,48.5z M298.5,48.5
	c0,0.5,0.1,0.9,0.2,1.1c0.1,0.2,0.4,0.3,0.8,0.3s0.6-0.1,0.8-0.3c0.1-0.2,0.2-0.6,0.2-1.1s-0.1-0.9-0.2-1.1s-0.4-0.3-0.8-0.3
	s-0.6,0.1-0.8,0.3C298.6,47.6,298.5,48,298.5,48.5z"/>
<path class="st0" d="M301.9,49.1c0,0.5,0.3,0.8,0.8,0.8c0.3,0,0.5-0.1,0.6-0.2s0.2-0.3,0.2-0.6v-2.4h0.4v2.4c0,0.4-0.1,0.7-0.3,0.8
	s-0.5,0.3-0.9,0.3c-0.4,0-0.7-0.1-0.9-0.3c-0.2-0.2-0.3-0.5-0.3-0.8v-2.4h0.4V49.1z"/>
<path class="st0" d="M304.8,50.2v-3.5h0.7l1.3,3.1h0.1v-3.1h0.4v3.5h-0.7l-1.3-3.1h-0.1v3.1H304.8z"/>
<path class="st0" d="M309.4,50.2h-1.2v-3.5h1.2c0.6,0,0.9,0.2,1.1,0.7c0.1,0.3,0.2,0.6,0.2,1c0,0.9-0.2,1.4-0.7,1.6
	C309.8,50.1,309.6,50.2,309.4,50.2z M310.3,48.4c0-0.7-0.1-1.1-0.4-1.2c-0.1-0.1-0.3-0.1-0.4-0.1h-0.9v2.8h0.9
	C310,49.8,310.3,49.4,310.3,48.4z"/>
<path class="st0" d="M311.4,50.2v-0.6h0.4v0.6H311.4z M311.4,49l0-2.3h0.4l0,2.3H311.4z"/>
<path class="st0" d="M277.1,59.2h-1.2v-3.5h1.2c0.6,0,0.9,0.2,1.1,0.7c0.1,0.3,0.2,0.6,0.2,1c0,0.9-0.2,1.4-0.7,1.6
	C277.6,59.1,277.3,59.2,277.1,59.2z M278,57.4c0-0.7-0.1-1.1-0.4-1.2c-0.1-0.1-0.3-0.1-0.4-0.1h-0.9v2.8h0.9
	C277.7,58.8,278,58.4,278,57.4z"/>
<path class="st0" d="M281.7,57.5c0,0.6-0.1,1.1-0.3,1.3c-0.2,0.3-0.6,0.4-1.1,0.4s-0.9-0.1-1.1-0.4c-0.2-0.3-0.3-0.7-0.3-1.3
	c0-0.6,0.1-1.1,0.3-1.4s0.6-0.4,1.1-0.4c0.5,0,0.9,0.1,1.1,0.4C281.6,56.4,281.7,56.9,281.7,57.5z M279.3,57.5
	c0,0.5,0.1,0.9,0.2,1.1c0.1,0.2,0.4,0.3,0.8,0.3s0.6-0.1,0.8-0.3c0.1-0.2,0.2-0.6,0.2-1.1s-0.1-0.9-0.2-1.1s-0.4-0.3-0.8-0.3
	s-0.6,0.1-0.8,0.3C279.4,56.6,279.3,57,279.3,57.5z"/>
<path class="st0" d="M282.1,55.7h0.4l0.6,3.1h0.1l0.7-3.1h0.5l0.7,3.1h0.1l0.6-3.1h0.4l-0.7,3.5h-0.7l-0.7-3l-0.7,3h-0.7L282.1,55.7
	z"/>
<path class="st0" d="M286.8,59.2v-3.5h0.7l1.3,3.1h0.1v-3.1h0.4v3.5h-0.7l-1.3-3.1h-0.1v3.1H286.8z"/>
<path class="st0" d="M292.1,59.2h-1.9v-3.5h0.4v3.1h1.5V59.2z"/>
<path class="st0" d="M295.1,57.5c0,0.6-0.1,1.1-0.3,1.3c-0.2,0.3-0.6,0.4-1.1,0.4s-0.9-0.1-1.1-0.4c-0.2-0.3-0.3-0.7-0.3-1.3
	c0-0.6,0.1-1.1,0.3-1.4s0.6-0.4,1.1-0.4c0.5,0,0.9,0.1,1.1,0.4C295,56.4,295.1,56.9,295.1,57.5z M292.7,57.5c0,0.5,0.1,0.9,0.2,1.1
	c0.1,0.2,0.4,0.3,0.8,0.3s0.6-0.1,0.8-0.3c0.1-0.2,0.2-0.6,0.2-1.1s-0.1-0.9-0.2-1.1s-0.4-0.3-0.8-0.3s-0.6,0.1-0.8,0.3
	C292.8,56.6,292.7,57,292.7,57.5z"/>
<path class="st0" d="M295.4,59.2l1-3.5h0.8l1,3.5h-0.4l-0.2-0.9H296l-0.2,0.9H295.4z M296.7,56l-0.5,1.9h1.3l-0.5-1.9H296.7z"/>
<path class="st0" d="M299.9,59.2h-1.2v-3.5h1.2c0.6,0,0.9,0.2,1.1,0.7c0.1,0.3,0.2,0.6,0.2,1c0,0.9-0.2,1.4-0.7,1.6
	C300.4,59.1,300.2,59.2,299.9,59.2z M300.8,57.4c0-0.7-0.1-1.1-0.4-1.2c-0.1-0.1-0.3-0.1-0.4-0.1h-0.9v2.8h0.9
	C300.5,58.8,300.8,58.4,300.8,57.4z"/>
<path class="st0" d="M301.9,59.2v-3.5h0.4v3.5H301.9z"/>
<path class="st0" d="M303.2,59.2v-3.5h0.7l1.3,3.1h0.1v-3.1h0.4v3.5H305l-1.3-3.1h-0.1v3.1H303.2z"/>
<path class="st0" d="M307.9,57.8v-0.3h1v1.7c-0.4,0.1-0.8,0.1-1.1,0.1c-0.5,0-0.9-0.1-1-0.4c-0.2-0.3-0.3-0.7-0.3-1.3
	c0-0.6,0.1-1.1,0.3-1.3c0.2-0.3,0.5-0.4,1-0.4c0.3,0,0.6,0,1,0.1l0.2,0l0,0.3c-0.4-0.1-0.8-0.1-1.1-0.1c-0.4,0-0.6,0.1-0.8,0.3
	c-0.1,0.2-0.2,0.6-0.2,1.1s0.1,0.9,0.2,1.1c0.1,0.2,0.4,0.3,0.8,0.3c0.2,0,0.5,0,0.7-0.1v-1.1H307.9z"/>
<path class="st0" d="M309.5,59.2v-0.6h0.4v0.6H309.5z"/>
<path class="st0" d="M310.6,59.2v-0.6h0.4v0.6H310.6z"/>
<path class="st0" d="M311.7,59.2v-0.6h0.4v0.6H311.7z"/>
<path class="st0" d="M1117.3,97.2H446.5V0.1h670.8V97.2z M446.6,97.1h670.6V0.2H446.6V97.1z"/>
<polygon class="st0" points="1117.2,24 446.5,22 446.5,21.9 1117.2,23.9 "/>
<rect x="446.5" y="72.7" class="st0" width="670.7" height="0.1"/>
<line class="st0" x1="785" y1="38.5" x2="1109.6" y2="38.5"/>
<rect x="785" y="38.2" class="st0" width="324.6" height="0.5"/>
<line class="st0" x1="785" y1="46.5" x2="1109.6" y2="46.5"/>
<rect x="785" y="46.2" class="st0" width="324.6" height="0.5"/>
<line class="st0" x1="785" y1="55.5" x2="1109.6" y2="55.5"/>
<rect x="785" y="55.2" class="st0" width="324.6" height="0.5"/>
<path class="st0" d="M459.7,9.2v4h-0.5V9.7l-1,0.7l-0.2-0.3l1.3-0.8H459.7z"/>
<path class="st0" d="M463.7,13.2h-2.5v-0.4l1.2-1.2c0.2-0.2,0.3-0.4,0.4-0.5s0.2-0.2,0.2-0.4c0.1-0.1,0.1-0.3,0.1-0.4
	c0-0.3-0.1-0.4-0.2-0.5c-0.1-0.1-0.4-0.2-0.7-0.2c-0.3,0-0.5,0-0.9,0.1l-0.2,0l0-0.4c0.4-0.1,0.8-0.2,1.2-0.2s0.7,0.1,0.9,0.3
	s0.3,0.4,0.3,0.8c0,0.3-0.1,0.5-0.2,0.7s-0.3,0.5-0.6,0.8l-1.1,1.1h2V13.2z"/>
<path class="st0" d="M604.9,13.2V9h0.8l1.2,3.5l1.2-3.5h0.8v4.2h-0.5V9.5h-0.1l-1.2,3.5h-0.5l-1.2-3.5h-0.1v3.7H604.9z"/>
<path class="st0" d="M609.9,13.2V9h2.5v0.4h-2.1v1.4h1.7v0.4h-1.7v1.5h2.1v0.4H609.9z"/>
<path class="st2" d="M943.7,13.7h-73c-1.1,0-2-0.9-2-2v0c0-1.1,0.9-2,2-2h73c1.1,0,2,0.9,2,2v0C945.7,12.8,944.8,13.7,943.7,13.7z"
	/>
</svg>
