<?xml version="1.0" encoding="utf-8"?>
<!-- Generator: Adobe Illustrator 25.3.1, SVG Export Plug-In . SVG Version: 6.00 Build 0)  -->
<svg version="1.1" id="Layer_1" xmlns="http://www.w3.org/2000/svg" xmlns:xlink="http://www.w3.org/1999/xlink" x="0px" y="0px"
	 viewBox="0 0 318 28.1" style="enable-background:new 0 0 318 28.1;" xml:space="preserve">
<style type="text/css">
	.st0{opacity:0.81;fill:#FFFFFF;}
</style>
<path class="st0" d="M18.4,0H5.8C2.6,0,0,2.6,0,5.8s2.6,5.8,5.8,5.8h12.6c3.2,0,5.8-2.6,5.8-5.8S21.6,0,18.4,0z M10.2,8.4H9.5V3.2
	L8,4.2L7.6,3.7l1.9-1.3h0.7V8.4z M15.8,8.1c-0.3,0.3-0.8,0.4-1.5,0.4c-0.5,0-1.1-0.1-1.7-0.2l-0.3-0.1l0.1-0.6
	c0.7,0.1,1.3,0.2,1.8,0.2c0.9,0,1.3-0.4,1.3-1.2c0-0.7-0.4-1.1-1.2-1.1h-1.2V5h1.2c0.3,0,0.5-0.1,0.7-0.3c0.2-0.2,0.4-0.5,0.4-0.8
	c0-0.3-0.1-0.6-0.3-0.7C14.9,3,14.6,3,14.1,3c-0.5,0-1,0-1.4,0.1l-0.2,0l-0.1-0.6c0.6-0.2,1.2-0.3,1.8-0.3s1.1,0.1,1.4,0.4
	s0.4,0.6,0.4,1.2c0,0.3,0,0.5-0.1,0.6c-0.1,0.1-0.1,0.2-0.2,0.3c0,0.1-0.1,0.1-0.2,0.2c-0.1,0.1-0.2,0.2-0.3,0.2l-0.1,0.1
	c0.4,0.1,0.6,0.3,0.8,0.5c0.2,0.2,0.3,0.5,0.3,1C16.2,7.3,16.1,7.8,15.8,8.1z"/>
<path class="st0" d="M41,5h1c0.3-0.1,0.6-0.2,0.7-0.4s0.2-0.4,0.2-0.6c0-0.7-0.5-1-1.4-1c-0.9,0-1.4,0.3-1.4,1
	c0,0.3,0.1,0.5,0.2,0.6C40.5,4.8,40.7,4.9,41,5z"/>
<path class="st0" d="M36.4,3c-0.3,0-0.6,0.1-0.8,0.2C35.2,3.5,35,4.3,35,5.5c0,0.9,0.1,1.5,0.4,1.9c0.2,0.3,0.6,0.5,1.1,0.5
	s0.9-0.2,1.1-0.5c0.2-0.3,0.4-1,0.4-1.9c0-0.9-0.1-1.6-0.3-2C37.3,3.1,36.9,3,36.4,3z"/>
<path class="st0" d="M41.9,5.6h-1c-0.3,0.1-0.6,0.2-0.7,0.4C40.1,6.2,40,6.5,40,6.8c0,0.7,0.5,1.1,1.5,1.1c1,0,1.5-0.4,1.5-1.2
	c0-0.3-0.1-0.6-0.3-0.7C42.6,5.9,42.3,5.7,41.9,5.6z"/>
<path class="st0" d="M45.1,0H32.5c-3.2,0-5.8,2.6-5.8,5.8s2.6,5.8,5.8,5.8h12.6c3.2,0,5.8-2.6,5.8-5.8S48.3,0,45.1,0z M38.1,7.8
	c-0.4,0.5-0.9,0.7-1.6,0.7s-1.3-0.2-1.6-0.7s-0.5-1.2-0.5-2.4s0.2-1.9,0.5-2.4c0.4-0.5,0.9-0.7,1.6-0.7c0.5,0,0.9,0.1,1.2,0.3
	c0.7,0.4,1,1.4,1,2.9C38.6,6.6,38.4,7.4,38.1,7.8z M41.5,8.5c-1.5,0-2.2-0.5-2.2-1.6c0-0.4,0.1-0.8,0.2-1c0.2-0.2,0.4-0.4,0.8-0.6
	c-0.3-0.2-0.6-0.3-0.7-0.6c-0.1-0.2-0.2-0.5-0.2-0.8c0-0.5,0.2-0.9,0.6-1.2c0.4-0.3,0.9-0.4,1.6-0.4s1.2,0.1,1.6,0.4
	c0.4,0.3,0.6,0.7,0.6,1.2c0,0.4-0.1,0.7-0.2,0.9c-0.2,0.2-0.4,0.4-0.8,0.5c0.4,0.2,0.6,0.4,0.8,0.6c0.2,0.2,0.3,0.5,0.3,0.9
	C43.7,7.9,43,8.5,41.5,8.5z"/>
<path class="st0" d="M125.2,0h-12.6c-3.2,0-5.8,2.6-5.8,5.8s2.6,5.8,5.8,5.8h12.6c3.2,0,5.8-2.6,5.8-5.8S128.4,0,125.2,0z
	 M114.5,8.4h-0.7V3.2l-1.5,1l-0.3-0.5l1.9-1.3h0.7V8.4z M120.5,8.4h-3.8V7.8l1.8-1.8c0.3-0.3,0.5-0.6,0.7-0.7
	c0.1-0.2,0.3-0.4,0.4-0.6c0.1-0.2,0.2-0.4,0.2-0.7c0-0.4-0.1-0.7-0.3-0.8c-0.2-0.2-0.5-0.2-1-0.2c-0.4,0-0.8,0.1-1.3,0.2l-0.2,0
	l-0.1-0.6c0.6-0.2,1.2-0.2,1.8-0.2c0.6,0,1.1,0.1,1.4,0.4c0.3,0.3,0.5,0.7,0.5,1.2c0,0.4-0.1,0.8-0.3,1.1c-0.2,0.3-0.5,0.7-1,1.1
	l-1.6,1.6h3V8.4z M125.1,7.8c-0.4,0.5-1,0.7-1.8,0.7c-0.5,0-0.9,0-1.4-0.1l-0.2,0l0.1-0.6c0.5,0.1,1.1,0.1,1.6,0.1
	c1.1,0,1.6-0.7,1.7-2.1c-0.6,0.2-1.1,0.3-1.6,0.3c-1.3,0-2-0.6-2-1.8c0-0.6,0.2-1.1,0.6-1.5c0.4-0.4,0.9-0.5,1.5-0.5
	c0.7,0,1.3,0.3,1.6,0.8s0.5,1.3,0.5,2.4C125.7,6.6,125.5,7.3,125.1,7.8z"/>
<path class="st0" d="M123.6,3c-0.4,0-0.8,0.1-1,0.4c-0.2,0.2-0.4,0.6-0.4,1c0,0.8,0.4,1.2,1.3,1.2c0.4,0,0.8-0.1,1.3-0.2l0.2-0.1
	C125,3.7,124.5,3,123.6,3z"/>
<path class="st0" d="M36.3,19.5c-0.4,0-0.8,0.1-1,0.4c-0.2,0.2-0.4,0.6-0.4,1c0,0.8,0.4,1.2,1.3,1.2c0.4,0,0.8-0.1,1.3-0.2l0.2-0.1
	C37.8,20.3,37.3,19.5,36.3,19.5z"/>
<path class="st0" d="M41.4,19.5c-0.4,0-0.8,0.1-1,0.4c-0.2,0.2-0.4,0.6-0.4,1c0,0.8,0.4,1.2,1.3,1.2c0.4,0,0.8-0.1,1.3-0.2l0.2-0.1
	C42.8,20.3,42.4,19.5,41.4,19.5z"/>
<path class="st0" d="M45.1,16.6H32.5c-3.2,0-5.8,2.6-5.8,5.8c0,3.2,2.6,5.8,5.8,5.8h12.6c3.2,0,5.8-2.6,5.8-5.8
	C50.9,19.1,48.3,16.6,45.1,16.6z M37.9,24.4c-0.4,0.5-1,0.7-1.8,0.7c-0.5,0-0.9,0-1.4-0.1l-0.2,0l0.1-0.6c0.5,0.1,1.1,0.1,1.6,0.1
	c1.1,0,1.6-0.7,1.7-2.1c-0.6,0.2-1.1,0.3-1.6,0.3c-1.3,0-2-0.6-2-1.8c0-0.6,0.2-1.1,0.6-1.5c0.4-0.4,0.9-0.5,1.5-0.5
	c0.7,0,1.3,0.3,1.6,0.8s0.5,1.3,0.5,2.4C38.5,23.1,38.3,23.9,37.9,24.4z M43,24.4c-0.4,0.5-1,0.7-1.8,0.7c-0.5,0-0.9,0-1.4-0.1
	l-0.2,0l0.1-0.6c0.5,0.1,1.1,0.1,1.6,0.1c1.1,0,1.6-0.7,1.7-2.1c-0.6,0.2-1.1,0.3-1.6,0.3c-1.3,0-2-0.6-2-1.8c0-0.6,0.2-1.1,0.6-1.5
	c0.4-0.4,0.9-0.5,1.5-0.5c0.7,0,1.3,0.3,1.6,0.8s0.5,1.3,0.5,2.4C43.6,23.1,43.4,23.9,43,24.4z"/>
<path class="st0" d="M231.4,0h-12.6c-3.2,0-5.8,2.6-5.8,5.8s2.6,5.8,5.8,5.8h12.6c3.2,0,5.8-2.6,5.8-5.8S234.6,0,231.4,0z
	 M223.2,8.4h-0.7V3.2l-1.5,1l-0.3-0.5l1.9-1.3h0.7V8.4z M228.8,8.1c-0.3,0.3-0.8,0.4-1.5,0.4c-0.5,0-1.1-0.1-1.7-0.2l-0.3-0.1
	l0.1-0.6c0.7,0.1,1.3,0.2,1.8,0.2c0.9,0,1.3-0.4,1.3-1.2c0-0.7-0.4-1.1-1.2-1.1h-1.2V5h1.2c0.3,0,0.5-0.1,0.7-0.3
	c0.2-0.2,0.4-0.5,0.4-0.8c0-0.3-0.1-0.6-0.3-0.7C227.9,3,227.6,3,227.1,3c-0.5,0-1,0-1.4,0.1l-0.2,0l-0.1-0.6
	c0.6-0.2,1.2-0.3,1.8-0.3s1.1,0.1,1.4,0.4s0.4,0.6,0.4,1.2c0,0.3,0,0.5-0.1,0.6c-0.1,0.1-0.1,0.2-0.2,0.3c0,0.1-0.1,0.1-0.2,0.2
	c-0.1,0.1-0.2,0.2-0.3,0.2l-0.1,0.1c0.4,0.1,0.6,0.3,0.8,0.5c0.2,0.2,0.3,0.5,0.3,1C229.2,7.3,229.1,7.8,228.8,8.1z"/>
<path class="st0" d="M249.3,19.5c-0.4,0-0.8,0.1-1,0.4c-0.2,0.2-0.4,0.6-0.4,1c0,0.8,0.4,1.2,1.3,1.2c0.4,0,0.8-0.1,1.3-0.2l0.2-0.1
	C250.8,20.3,250.3,19.5,249.3,19.5z"/>
<path class="st0" d="M254.4,19.5c-0.4,0-0.8,0.1-1,0.4c-0.2,0.2-0.4,0.6-0.4,1c0,0.8,0.4,1.2,1.3,1.2c0.4,0,0.8-0.1,1.3-0.2l0.2-0.1
	C255.8,20.3,255.4,19.5,254.4,19.5z"/>
<path class="st0" d="M258.1,16.6h-12.6c-3.2,0-5.8,2.6-5.8,5.8c0,3.2,2.6,5.8,5.8,5.8h12.6c3.2,0,5.8-2.6,5.8-5.8
	C263.9,19.1,261.3,16.6,258.1,16.6z M250.9,24.4c-0.4,0.5-1,0.7-1.8,0.7c-0.5,0-0.9,0-1.4-0.1l-0.2,0l0.1-0.6
	c0.5,0.1,1.1,0.1,1.6,0.1c1.1,0,1.6-0.7,1.7-2.1c-0.6,0.2-1.1,0.3-1.6,0.3c-1.3,0-2-0.6-2-1.8c0-0.6,0.2-1.1,0.6-1.5
	c0.4-0.4,0.9-0.5,1.5-0.5c0.7,0,1.3,0.3,1.6,0.8s0.5,1.3,0.5,2.4C251.5,23.1,251.3,23.9,250.9,24.4z M256,24.4
	c-0.4,0.5-1,0.7-1.8,0.7c-0.5,0-0.9,0-1.4-0.1l-0.2,0l0.1-0.6c0.5,0.1,1.1,0.1,1.6,0.1c1.1,0,1.6-0.7,1.7-2.1
	c-0.6,0.2-1.1,0.3-1.6,0.3c-1.3,0-2-0.6-2-1.8c0-0.6,0.2-1.1,0.6-1.5c0.4-0.4,0.9-0.5,1.5-0.5c0.7,0,1.3,0.3,1.6,0.8
	s0.5,1.3,0.5,2.4C256.6,23.1,256.4,23.9,256,24.4z"/>
<path class="st0" d="M94.7,21.6h1c0.3-0.1,0.6-0.2,0.7-0.4s0.2-0.4,0.2-0.6c0-0.7-0.5-1-1.4-1c-0.9,0-1.4,0.3-1.4,1
	c0,0.3,0.1,0.5,0.2,0.6C94.2,21.3,94.4,21.5,94.7,21.6z"/>
<path class="st0" d="M95.6,22.2h-1c-0.3,0.1-0.6,0.2-0.7,0.4c-0.2,0.2-0.2,0.4-0.2,0.7c0,0.7,0.5,1.1,1.5,1.1c1,0,1.5-0.4,1.5-1.2
	c0-0.3-0.1-0.6-0.3-0.7C96.2,22.4,96,22.3,95.6,22.2z"/>
<path class="st0" d="M98.5,16.6H85.9c-3.2,0-5.8,2.6-5.8,5.8c0,3.2,2.6,5.8,5.8,5.8h12.6c3.2,0,5.8-2.6,5.8-5.8
	C104.3,19.1,101.7,16.6,98.5,16.6z M92,19.9l-2.3,5.2L89,24.9l2.3-5v-0.2h-3V19H92V19.9z M95.2,25.1c-1.5,0-2.2-0.5-2.2-1.6
	c0-0.4,0.1-0.8,0.2-1c0.2-0.2,0.4-0.4,0.8-0.6c-0.3-0.2-0.6-0.3-0.7-0.6c-0.1-0.2-0.2-0.5-0.2-0.8c0-0.5,0.2-0.9,0.6-1.2
	c0.4-0.3,0.9-0.4,1.6-0.4s1.2,0.1,1.6,0.4c0.4,0.3,0.6,0.7,0.6,1.2c0,0.4-0.1,0.7-0.2,0.9c-0.2,0.2-0.4,0.4-0.8,0.5
	c0.4,0.2,0.6,0.4,0.8,0.6c0.2,0.2,0.3,0.5,0.3,0.9C97.4,24.5,96.7,25.1,95.2,25.1z"/>
<path class="st0" d="M116,19.5c-0.3,0-0.6,0.1-0.8,0.2c-0.4,0.3-0.6,1.1-0.6,2.3c0,0.9,0.1,1.5,0.4,1.9c0.2,0.3,0.6,0.5,1.1,0.5
	s0.9-0.2,1.1-0.5c0.2-0.3,0.4-1,0.4-1.9c0-0.9-0.1-1.6-0.3-2C116.9,19.7,116.5,19.5,116,19.5z"/>
<path class="st0" d="M125.2,16.6h-12.6c-3.2,0-5.8,2.6-5.8,5.8c0,3.2,2.6,5.8,5.8,5.8h12.6c3.2,0,5.8-2.6,5.8-5.8
	C131,19.1,128.4,16.6,125.2,16.6z M117.6,24.4c-0.4,0.5-0.9,0.7-1.6,0.7s-1.3-0.2-1.6-0.7s-0.5-1.2-0.5-2.4s0.2-1.9,0.5-2.4
	c0.4-0.5,0.9-0.7,1.6-0.7c0.5,0,0.9,0.1,1.2,0.3c0.7,0.4,1,1.4,1,2.9C118.2,23.2,118,23.9,117.6,24.4z M122.1,25h-0.7v-5.2l-1.5,1
	l-0.3-0.5l1.9-1.3h0.7V25z"/>
<path class="st0" d="M282.6,22.2h-1c-0.3,0.1-0.6,0.2-0.7,0.4c-0.2,0.2-0.2,0.4-0.2,0.7c0,0.7,0.5,1.1,1.5,1.1c1,0,1.5-0.4,1.5-1.2
	c0-0.3-0.1-0.6-0.3-0.7C283.2,22.4,283,22.3,282.6,22.2z"/>
<path class="st0" d="M281.7,21.6h1c0.3-0.1,0.6-0.2,0.7-0.4s0.2-0.4,0.2-0.6c0-0.7-0.5-1-1.4-1c-0.9,0-1.4,0.3-1.4,1
	c0,0.3,0.1,0.5,0.2,0.6C281.2,21.3,281.4,21.5,281.7,21.6z"/>
<path class="st0" d="M285.5,16.6h-12.6c-3.2,0-5.8,2.6-5.8,5.8c0,3.2,2.6,5.8,5.8,5.8h12.6c3.2,0,5.8-2.6,5.8-5.8
	C291.3,19.1,288.7,16.6,285.5,16.6z M279,19.9l-2.3,5.2l-0.7-0.2l2.3-5v-0.2h-3V19h3.7V19.9z M282.2,25.1c-1.5,0-2.2-0.5-2.2-1.6
	c0-0.4,0.1-0.8,0.2-1c0.2-0.2,0.4-0.4,0.8-0.6c-0.3-0.2-0.6-0.3-0.7-0.6c-0.1-0.2-0.2-0.5-0.2-0.8c0-0.5,0.2-0.9,0.6-1.2
	c0.4-0.3,0.9-0.4,1.6-0.4s1.2,0.1,1.6,0.4c0.4,0.3,0.6,0.7,0.6,1.2c0,0.4-0.1,0.7-0.2,0.9c-0.2,0.2-0.4,0.4-0.8,0.5
	c0.4,0.2,0.6,0.4,0.8,0.6c0.2,0.2,0.3,0.5,0.3,0.9C284.4,24.5,283.7,25.1,282.2,25.1z"/>
<path class="st0" d="M303,19.5c-0.3,0-0.6,0.1-0.8,0.2c-0.4,0.3-0.6,1.1-0.6,2.3c0,0.9,0.1,1.5,0.4,1.9c0.2,0.3,0.6,0.5,1.1,0.5
	s0.9-0.2,1.1-0.5c0.2-0.3,0.4-1,0.4-1.9c0-0.9-0.1-1.6-0.3-2C303.9,19.7,303.5,19.5,303,19.5z"/>
<path class="st0" d="M312.2,16.6h-12.6c-3.2,0-5.8,2.6-5.8,5.8c0,3.2,2.6,5.8,5.8,5.8h12.6c3.2,0,5.8-2.6,5.8-5.8
	C318,19.1,315.4,16.6,312.2,16.6z M304.6,24.4c-0.4,0.5-0.9,0.7-1.6,0.7s-1.3-0.2-1.6-0.7s-0.5-1.2-0.5-2.4s0.2-1.9,0.5-2.4
	c0.4-0.5,0.9-0.7,1.6-0.7c0.5,0,0.9,0.1,1.2,0.3c0.7,0.4,1,1.4,1,2.9C305.2,23.2,305,23.9,304.6,24.4z M309.1,25h-0.7v-5.2l-1.5,1
	l-0.3-0.5l1.9-1.3h0.7V25z"/>
<path class="st0" d="M178.2,0h-12.6c-3.2,0-5.8,2.6-5.8,5.8s2.6,5.8,5.8,5.8h12.6c3.2,0,5.8-2.6,5.8-5.8S181.4,0,178.2,0z
	 M167.5,8.4h-0.7V3.2l-1.5,1l-0.3-0.5l1.9-1.3h0.7V8.4z M173.5,8.4h-3.8V7.8l1.8-1.8c0.3-0.3,0.5-0.6,0.7-0.7
	c0.1-0.2,0.3-0.4,0.4-0.6c0.1-0.2,0.2-0.4,0.2-0.7c0-0.4-0.1-0.7-0.3-0.8c-0.2-0.2-0.5-0.2-1-0.2c-0.4,0-0.8,0.1-1.3,0.2l-0.2,0
	l-0.1-0.6c0.6-0.2,1.2-0.2,1.8-0.2c0.6,0,1.1,0.1,1.4,0.4c0.3,0.3,0.5,0.7,0.5,1.2c0,0.4-0.1,0.8-0.3,1.1c-0.2,0.3-0.5,0.7-1,1.1
	l-1.6,1.6h3V8.4z M178.1,7.8c-0.4,0.5-1,0.7-1.8,0.7c-0.5,0-0.9,0-1.4-0.1l-0.2,0l0.1-0.6c0.5,0.1,1.1,0.1,1.6,0.1
	c1.1,0,1.6-0.7,1.7-2.1c-0.6,0.2-1.1,0.3-1.6,0.3c-1.3,0-2-0.6-2-1.8c0-0.6,0.2-1.1,0.6-1.5c0.4-0.4,0.9-0.5,1.5-0.5
	c0.7,0,1.3,0.3,1.6,0.8s0.5,1.3,0.5,2.4C178.7,6.6,178.5,7.3,178.1,7.8z"/>
<path class="st0" d="M176.6,3c-0.4,0-0.8,0.1-1,0.4c-0.2,0.2-0.4,0.6-0.4,1c0,0.8,0.4,1.2,1.3,1.2c0.4,0,0.8-0.1,1.3-0.2l0.2-0.1
	C178,3.7,177.5,3,176.6,3z"/>
</svg>
