<?xml version="1.0" encoding="utf-8"?>
<!-- Generator: Adobe Illustrator 25.3.1, SVG Export Plug-In . SVG Version: 6.00 Build 0)  -->
<svg version="1.1" id="Layer_1" xmlns="http://www.w3.org/2000/svg" xmlns:xlink="http://www.w3.org/1999/xlink" x="0px" y="0px"
	 viewBox="0 0 79.8 30.7" style="enable-background:new 0 0 79.8 30.7;" xml:space="preserve">
<style type="text/css">
	.st0{fill:#FFFFFF;}
</style>
<path class="st0" d="M1.8,13.5c-0.8,0-1.2,0.3-1.2,0.9c0,0.3,0.1,0.6,0.3,0.7c0.2,0.1,0.6,0.3,1.1,0.4c0.6,0.1,1,0.3,1.2,0.5
	c0.2,0.2,0.4,0.5,0.4,1c0,1.1-0.6,1.7-1.8,1.7c-0.4,0-0.9,0-1.5-0.1l-0.3,0L0.1,18c0.7,0.1,1.3,0.1,1.7,0.1C2.6,18.1,3,17.8,3,17
	c0-0.3-0.1-0.5-0.3-0.6c-0.2-0.1-0.5-0.2-1-0.3c-0.6-0.1-1.1-0.3-1.3-0.5C0.1,15.3,0,15,0,14.5c0-1,0.6-1.5,1.8-1.5
	c0.4,0,0.9,0,1.4,0.1l0.3,0l-0.1,0.5C2.7,13.6,2.1,13.5,1.8,13.5z"/>
<path class="st0" d="M4.6,18.6v-5.5H8v0.5H5.2v1.9h2.3v0.5H5.2v2H8v0.5H4.6z"/>
<path class="st0" d="M8.6,18.6l1.5-5.5h1.3l1.5,5.5h-0.6l-0.4-1.4H9.6l-0.4,1.4H8.6z M10.6,13.6l-0.8,3h2.1l-0.8-3H10.6z"/>
<path class="st0" d="M14.4,16.5v2.1h-0.6v-5.5h2c0.6,0,1,0.1,1.3,0.4s0.4,0.7,0.4,1.3c0,0.9-0.3,1.4-1,1.6l1.1,2.2H17l-1-2.1H14.4z
	 M15.9,16c0.8,0,1.1-0.4,1.1-1.2c0-0.8-0.4-1.2-1.1-1.2h-1.4V16H15.9z"/>
<path class="st0" d="M22.1,18.5c-0.5,0.1-1,0.2-1.5,0.2s-0.8-0.1-1.1-0.2c-0.3-0.1-0.5-0.3-0.6-0.6c-0.1-0.3-0.2-0.5-0.3-0.9
	c-0.1-0.3-0.1-0.7-0.1-1.2s0-0.9,0.1-1.2c0.1-0.3,0.2-0.6,0.3-0.9c0.1-0.3,0.4-0.4,0.6-0.6c0.3-0.1,0.6-0.2,1-0.2s0.9,0.1,1.5,0.2
	l0,0.5c-0.5-0.1-1-0.1-1.4-0.1c-0.6,0-1,0.2-1.2,0.5c-0.2,0.3-0.3,0.9-0.3,1.8c0,0.4,0,0.8,0.1,1c0,0.3,0.1,0.5,0.2,0.7
	s0.2,0.4,0.4,0.4c0.2,0.1,0.5,0.1,0.9,0.1s0.8,0,1.3-0.1L22.1,18.5z"/>
<path class="st0" d="M26.5,18.6v-2.5h-2.8v2.5h-0.6v-5.5h0.6v2.5h2.8v-2.5h0.6v5.5H26.5z"/>
<path class="st0" d="M28.5,18.6v-5.5h0.6v5.5H28.5z"/>
<path class="st0" d="M30.5,18.6v-5.5h1.2l2.1,5h0.2v-5h0.6v5.5h-1.1l-2.2-5h-0.2v5H30.5z"/>
<path class="st0" d="M38.1,16.3v-0.6h1.5v2.7c-0.7,0.1-1.3,0.2-1.8,0.2c-0.8,0-1.4-0.2-1.7-0.7c-0.3-0.5-0.5-1.2-0.5-2.1
	c0-1,0.2-1.7,0.5-2.2c0.3-0.5,0.9-0.7,1.7-0.7c0.5,0,1,0.1,1.5,0.2l0.3,0l0,0.5c-0.7-0.1-1.2-0.2-1.7-0.2c-0.6,0-1,0.2-1.2,0.5
	c-0.2,0.4-0.3,0.9-0.3,1.8c0,0.8,0.1,1.4,0.3,1.8c0.2,0.4,0.6,0.5,1.2,0.5c0.4,0,0.8,0,1.1-0.1v-1.7H38.1z"/>
<path class="st0" d="M40.7,18.6v-0.9h0.7v0.9H40.7z"/>
<path class="st0" d="M42.4,18.6v-0.9H43v0.9H42.4z"/>
<path class="st0" d="M44.1,18.6v-0.9h0.7v0.9H44.1z"/>
<path class="st0" d="M47.3,18.5l2.3-5.6l0.5,0.2l-2.3,5.6L47.3,18.5z"/>
<path class="st0" d="M48.4,18.5l2.3-5.6l0.5,0.2l-2.3,5.6L48.4,18.5z"/>
<path class="st0" d="M54.4,17c0,0.8,0.4,1.2,1.3,1.2c0.4,0,0.8-0.1,1-0.3c0.2-0.2,0.3-0.5,0.3-0.9v-3.9h0.6v3.9
	c0,0.6-0.2,1.1-0.5,1.3c-0.3,0.3-0.8,0.4-1.5,0.4c-0.6,0-1.1-0.1-1.4-0.4c-0.3-0.3-0.5-0.7-0.5-1.3v-3.9h0.6V17z"/>
<path class="st0" d="M59,18.6v-5.5h0.6v5.5H59z"/>
<path class="st0" d="M60.8,18.6v-0.9h0.7v0.9H60.8z"/>
<path class="st0" d="M66,18.6h-3.4v-0.5l1.5-1.6c0.3-0.3,0.5-0.5,0.6-0.6c0.1-0.1,0.2-0.3,0.3-0.5s0.1-0.4,0.1-0.6
	c0-0.3-0.1-0.6-0.3-0.7s-0.5-0.2-0.9-0.2c-0.3,0-0.7,0-1.2,0.1l-0.2,0l0-0.5c0.5-0.1,1-0.2,1.6-0.2c0.5,0,0.9,0.1,1.2,0.3
	s0.4,0.6,0.4,1.1c0,0.4-0.1,0.7-0.2,1s-0.5,0.6-0.9,1l-1.4,1.4H66V18.6z"/>
<path class="st0" d="M67.1,13.5c0.5-0.1,1-0.2,1.6-0.2c0.6,0,1,0.1,1.2,0.3c0.3,0.2,0.4,0.6,0.4,1c0,0.2,0,0.4-0.1,0.5
	s-0.1,0.2-0.2,0.3s-0.1,0.1-0.2,0.2c-0.1,0.1-0.2,0.2-0.3,0.2l-0.1,0.1c0.3,0.1,0.5,0.3,0.7,0.4s0.2,0.5,0.2,0.9
	c0,0.5-0.1,0.9-0.4,1.2c-0.3,0.3-0.7,0.4-1.3,0.4c-0.5,0-1-0.1-1.5-0.2L67,18.5l0.1-0.5c0.6,0.1,1.1,0.2,1.6,0.2
	c0.8,0,1.1-0.3,1.1-1c0-0.6-0.4-1-1.1-1h-1.1v-0.5h1.1c0.2,0,0.4-0.1,0.6-0.3s0.3-0.4,0.3-0.7s-0.1-0.5-0.2-0.6
	c-0.2-0.1-0.4-0.2-0.8-0.2c-0.4,0-0.8,0-1.3,0.1l-0.2,0L67.1,13.5z"/>
<path class="st0" d="M74.1,13.3v5.3h-0.6V14l-1.4,0.9l-0.3-0.5l1.7-1.1H74.1z"/>
<path class="st0" d="M76,13.5c0.5-0.1,1-0.2,1.6-0.2c0.6,0,1,0.1,1.2,0.3c0.3,0.2,0.4,0.6,0.4,1c0,0.2,0,0.4-0.1,0.5
	s-0.1,0.2-0.2,0.3s-0.1,0.1-0.2,0.2c-0.1,0.1-0.2,0.2-0.3,0.2l-0.1,0.1c0.3,0.1,0.5,0.3,0.7,0.4s0.2,0.5,0.2,0.9
	c0,0.5-0.1,0.9-0.4,1.2c-0.3,0.3-0.7,0.4-1.3,0.4c-0.5,0-1-0.1-1.5-0.2L76,18.5L76,18c0.6,0.1,1.1,0.2,1.6,0.2c0.8,0,1.1-0.3,1.1-1
	c0-0.6-0.4-1-1.1-1h-1.1v-0.5h1.1c0.2,0,0.4-0.1,0.6-0.3s0.3-0.4,0.3-0.7s-0.1-0.5-0.2-0.6c-0.2-0.1-0.4-0.2-0.8-0.2
	c-0.4,0-0.8,0-1.3,0.1l-0.2,0L76,13.5z"/>
<path class="st0" d="M0.3,30.6v-5.5h3.3v0.5H0.9v2.2h2.3v0.5H0.9v2.3H0.3z"/>
<path class="st0" d="M8.6,27.9c0,1-0.2,1.7-0.5,2.1c-0.3,0.4-0.9,0.7-1.7,0.7c-0.8,0-1.4-0.2-1.7-0.7c-0.3-0.5-0.5-1.2-0.5-2.1
	c0-1,0.2-1.7,0.5-2.2C5,25.2,5.6,25,6.4,25c0.8,0,1.4,0.2,1.7,0.7C8.4,26.2,8.6,26.9,8.6,27.9z M4.8,27.9c0,0.8,0.1,1.4,0.3,1.7
	c0.2,0.4,0.6,0.5,1.2,0.5c0.6,0,1-0.2,1.2-0.5s0.3-0.9,0.3-1.7s-0.1-1.4-0.3-1.8c-0.2-0.4-0.6-0.6-1.2-0.6c-0.6,0-1,0.2-1.2,0.6
	C4.9,26.5,4.8,27.1,4.8,27.9z"/>
<path class="st0" d="M10.3,29c0,0.8,0.4,1.2,1.3,1.2c0.4,0,0.8-0.1,1-0.3c0.2-0.2,0.3-0.5,0.3-0.9v-3.9h0.6v3.9
	c0,0.6-0.2,1.1-0.5,1.3c-0.3,0.3-0.8,0.4-1.5,0.4c-0.6,0-1.1-0.1-1.4-0.4c-0.3-0.3-0.5-0.7-0.5-1.3v-3.9h0.6V29z"/>
<path class="st0" d="M14.9,30.6v-5.5H16l2.1,5h0.2v-5h0.6v5.5h-1.1l-2.2-5h-0.2v5H14.9z"/>
<path class="st0" d="M22.2,30.6h-2v-5.5h2c0.9,0,1.5,0.4,1.8,1.1c0.2,0.4,0.3,0.9,0.3,1.6c0,1.4-0.3,2.3-1,2.6
	C23,30.5,22.6,30.6,22.2,30.6z M23.7,27.8c0-1.1-0.2-1.7-0.7-2c-0.2-0.1-0.4-0.2-0.7-0.2h-1.4v4.4h1.4
	C23.2,30.1,23.7,29.3,23.7,27.8z"/>
<path class="st0" d="M25.3,28v-0.9h0.7V28H25.3z M25.3,30.6v-0.9h0.7v0.9H25.3z"/>
<path class="st0" d="M32.1,25.1h0.6l-1.4,5.5h-1.4l-1.4-5.5h0.6l1.3,5h0.4L32.1,25.1z"/>
<path class="st0" d="M33.6,30.6v-5.5h0.6v5.5H33.6z"/>
<path class="st0" d="M36.2,28.5v2.1h-0.6v-5.5h2c0.6,0,1,0.1,1.3,0.4s0.4,0.7,0.4,1.3c0,0.9-0.3,1.4-1,1.6l1.1,2.2h-0.7l-1-2.1H36.2
	z M37.6,28c0.8,0,1.1-0.4,1.1-1.2c0-0.8-0.4-1.2-1.1-1.2h-1.4V28H37.6z"/>
<path class="st0" d="M41,29c0,0.8,0.4,1.2,1.3,1.2c0.4,0,0.8-0.1,1-0.3c0.2-0.2,0.3-0.5,0.3-0.9v-3.9h0.6v3.9c0,0.6-0.2,1.1-0.5,1.3
	c-0.3,0.3-0.8,0.4-1.5,0.4c-0.6,0-1.1-0.1-1.4-0.4c-0.3-0.3-0.5-0.7-0.5-1.3v-3.9H41V29z"/>
<path class="st0" d="M47.2,25.5c-0.8,0-1.2,0.3-1.2,0.9c0,0.3,0.1,0.6,0.3,0.7c0.2,0.1,0.6,0.3,1.1,0.4c0.6,0.1,1,0.3,1.2,0.5
	c0.2,0.2,0.4,0.5,0.4,1c0,1.1-0.6,1.7-1.8,1.7c-0.4,0-0.9,0-1.5-0.1l-0.3,0l0.1-0.5c0.7,0.1,1.3,0.1,1.7,0.1c0.8,0,1.2-0.4,1.2-1.1
	c0-0.3-0.1-0.5-0.3-0.6c-0.2-0.1-0.5-0.2-1-0.3c-0.6-0.1-1.1-0.3-1.3-0.5c-0.3-0.2-0.4-0.6-0.4-1.1c0-1,0.6-1.5,1.8-1.5
	c0.4,0,0.9,0,1.4,0.1l0.3,0l-0.1,0.5C48,25.6,47.5,25.5,47.2,25.5z"/>
<path class="st0" d="M49.8,30.6v-0.9h0.7v0.9H49.8z"/>
<path class="st0" d="M53.2,25.2c0.4,0,0.8,0.1,1.1,0.2c0.6,0.3,0.9,1.2,0.9,2.6c0,1-0.2,1.6-0.5,2c-0.3,0.4-0.8,0.6-1.4,0.6
	c-0.6,0-1.1-0.2-1.4-0.6c-0.3-0.4-0.5-1.1-0.5-2.1s0.2-1.7,0.5-2.1C52.1,25.5,52.6,25.2,53.2,25.2z M53.2,25.8
	c-0.3,0-0.5,0.1-0.7,0.2c-0.4,0.3-0.6,1-0.6,2.1c0,0.8,0.1,1.3,0.3,1.6s0.5,0.5,1,0.5c0.4,0,0.8-0.2,1-0.5c0.2-0.3,0.3-0.9,0.3-1.7
	c0-0.8-0.1-1.4-0.3-1.7C54,26,53.7,25.8,53.2,25.8z"/>
<path class="st0" d="M57.7,25.2c0.4,0,0.8,0.1,1.1,0.2c0.6,0.3,0.9,1.2,0.9,2.6c0,1-0.2,1.6-0.5,2c-0.3,0.4-0.8,0.6-1.4,0.6
	c-0.6,0-1.1-0.2-1.4-0.6C56,29.7,55.8,29,55.8,28s0.2-1.7,0.5-2.1C56.6,25.5,57.1,25.2,57.7,25.2z M57.7,25.8
	c-0.3,0-0.5,0.1-0.7,0.2c-0.4,0.3-0.6,1-0.6,2.1c0,0.8,0.1,1.3,0.3,1.6s0.5,0.5,1,0.5c0.4,0,0.8-0.2,1-0.5c0.2-0.3,0.3-0.9,0.3-1.7
	c0-0.8-0.1-1.4-0.3-1.7C58.5,26,58.2,25.8,57.7,25.8z"/>
<path class="st0" d="M62.2,25.2c0.4,0,0.8,0.1,1.1,0.2c0.6,0.3,0.9,1.2,0.9,2.6c0,1-0.2,1.6-0.5,2c-0.3,0.4-0.8,0.6-1.4,0.6
	c-0.6,0-1.1-0.2-1.4-0.6c-0.3-0.4-0.5-1.1-0.5-2.1s0.2-1.7,0.5-2.1C61.1,25.5,61.6,25.2,62.2,25.2z M62.2,25.8
	c-0.3,0-0.5,0.1-0.7,0.2c-0.4,0.3-0.6,1-0.6,2.1c0,0.8,0.1,1.3,0.3,1.6s0.5,0.5,1,0.5c0.4,0,0.8-0.2,1-0.5c0.2-0.3,0.3-0.9,0.3-1.7
	c0-0.8-0.1-1.4-0.3-1.7C63,26,62.7,25.8,62.2,25.8z"/>
<path class="st0" d="M66.4,30.2c1,0,1.5-0.6,1.5-1.8c-0.5,0.2-1,0.3-1.4,0.3c-1.2,0-1.7-0.5-1.7-1.6c0-0.5,0.2-1,0.5-1.3
	c0.3-0.3,0.8-0.5,1.3-0.5c0.6,0,1.1,0.2,1.4,0.7c0.3,0.5,0.5,1.2,0.5,2.1s-0.2,1.6-0.5,2s-0.9,0.6-1.6,0.6c-0.4,0-0.8,0-1.2-0.1
	l-0.2,0l0.1-0.5C65.5,30.1,66,30.2,66.4,30.2z M66.6,28.1c0.3,0,0.7-0.1,1.1-0.2l0.2-0.1c0-1.3-0.4-2-1.3-2c-0.4,0-0.7,0.1-0.9,0.3
	c-0.2,0.2-0.3,0.5-0.3,0.9C65.4,27.7,65.8,28.1,66.6,28.1z"/>
<path class="st0" d="M23.7,1.8c0-0.6-0.2-1-0.5-1.3c-0.3-0.3-0.7-0.4-1.3-0.4h-2v5.5h0.6V3.5H22l1,2.1h0.7l-1.1-2.2
	C23.3,3.1,23.7,2.6,23.7,1.8z M21.9,2.9h-1.4V0.6h1.4C22.7,0.6,23,1,23,1.8C23,2.6,22.7,2.9,21.9,2.9z"/>
<rect x="24.6" y="4.7" class="st0" width="0.7" height="0.9"/>
<path class="st0" d="M28.5,0c-0.8,0-1.4,0.2-1.7,0.7c-0.3,0.5-0.5,1.2-0.5,2.2c0,1,0.2,1.7,0.5,2.1c0.3,0.5,0.9,0.7,1.7,0.7
	s1.4-0.2,1.7-0.7c0.3-0.4,0.5-1.1,0.5-2.1c0-1-0.2-1.7-0.5-2.2C29.9,0.2,29.3,0,28.5,0z M29.7,4.6c-0.2,0.3-0.6,0.5-1.2,0.5
	s-1-0.2-1.2-0.5c-0.2-0.4-0.3-0.9-0.3-1.8s0.1-1.4,0.3-1.8c0.2-0.4,0.6-0.5,1.2-0.5c0.6,0,1,0.2,1.2,0.6c0.2,0.4,0.3,1,0.3,1.8
	C30,3.7,29.9,4.3,29.7,4.6z"/>
<path class="st0" d="M13.5,1.8c0-0.6-0.1-1-0.4-1.3c-0.3-0.3-0.7-0.4-1.3-0.4h-2v5.5h0.6V3.5h1.6l1,2.1h0.7l-1.1-2.2
	C13.1,3.1,13.5,2.6,13.5,1.8z M11.7,2.9h-1.4V0.6h1.4c0.8,0,1.1,0.4,1.1,1.2C12.8,2.6,12.5,2.9,11.7,2.9z"/>
<rect x="24.6" y="2.1" class="st0" width="0.7" height="0.9"/>
<polygon class="st0" points="44.6,0.3 44.6,5.6 44,5.6 44,1 42.6,1.9 42.3,1.5 44,0.3 "/>
<polygon class="st0" points="34.8,0.1 35.5,0.1 34,5.6 32.7,5.6 31.2,0.1 31.9,0.1 33.1,5.1 33.6,5.1 "/>
<path class="st0" d="M16.5,0c-0.8,0-1.4,0.2-1.7,0.7c-0.3,0.5-0.5,1.2-0.5,2.2c0,1,0.2,1.7,0.5,2.1c0.3,0.5,0.9,0.7,1.7,0.7
	c0.8,0,1.4-0.2,1.7-0.7c0.3-0.4,0.5-1.1,0.5-2.1c0-1-0.2-1.7-0.5-2.2C17.9,0.2,17.4,0,16.5,0z M17.8,4.6c-0.2,0.3-0.6,0.5-1.2,0.5
	c-0.6,0-1-0.2-1.2-0.5C15.1,4.3,15,3.7,15,2.9s0.1-1.4,0.3-1.8c0.2-0.4,0.6-0.5,1.2-0.5c0.6,0,1,0.2,1.2,0.6c0.2,0.4,0.3,1,0.3,1.8
	C18.1,3.7,18,4.3,17.8,4.6z"/>
<path class="st0" d="M8.5,1.8c0-0.6-0.1-1-0.4-1.3C7.8,0.2,7.4,0.1,6.8,0.1H4.7v5.5h0.6V3.5h1.6l1,2.1h0.7L7.5,3.4
	C8.2,3.1,8.5,2.6,8.5,1.8z M6.8,2.9H5.3V0.6h1.4c0.8,0,1.1,0.4,1.1,1.2C7.9,2.6,7.5,2.9,6.8,2.9z"/>
<rect x="35.8" y="4.7" class="st0" width="0.7" height="0.9"/>
<path class="st0" d="M40.7,3.2c0.1,0.2,0.2,0.5,0.2,0.9c0,0.5-0.1,0.9-0.4,1.2c-0.3,0.3-0.7,0.4-1.3,0.4c-0.5,0-1-0.1-1.5-0.2
	l-0.2-0.1L37.5,5c0.6,0.1,1.1,0.2,1.6,0.2c0.8,0,1.1-0.3,1.1-1c0-0.6-0.4-1-1.1-1h-1.1V2.6h1.1c0.2,0,0.4-0.1,0.6-0.3
	c0.2-0.2,0.3-0.4,0.3-0.7c0-0.3-0.1-0.5-0.2-0.6c-0.2-0.1-0.4-0.2-0.8-0.2c-0.4,0-0.8,0-1.3,0.1l-0.2,0l-0.1-0.5
	c0.5-0.1,1-0.2,1.6-0.2c0.6,0,1,0.1,1.2,0.3c0.3,0.2,0.4,0.6,0.4,1.1c0,0.2,0,0.4-0.1,0.5c-0.1,0.1-0.1,0.2-0.2,0.2
	c0,0.1-0.1,0.1-0.1,0.2c-0.1,0.1-0.2,0.2-0.3,0.2L40,2.8C40.3,2.9,40.6,3.1,40.7,3.2z"/>
<polygon class="st0" points="0.3,0.1 3.7,0.1 3.7,0.6 0.9,0.6 0.9,2.5 3.2,2.5 3.2,3.1 0.9,3.1 0.9,5.1 3.7,5.1 3.7,5.6 0.3,5.6 "/>
</svg>
