<?xml version="1.0" encoding="utf-8"?>
<!-- Generator: Adobe Illustrator 25.3.1, SVG Export Plug-In . SVG Version: 6.00 Build 0)  -->
<svg version="1.1" id="Layer_1" xmlns="http://www.w3.org/2000/svg" xmlns:xlink="http://www.w3.org/1999/xlink" x="0px" y="0px"
	 viewBox="0 0 1102.2 98.1" style="enable-background:new 0 0 1102.2 98.1;" xml:space="preserve">
<style type="text/css">
	.st0{opacity:0.45;fill:#FFFFFF;}
	.st1{opacity:0.18;fill:#FFFFFF;}
	.st2{fill:#FFFFFF;}
	.st3{opacity:0.33;fill:#FFFFFF;}
</style>
<rect x="6.1" y="74.5" class="st0" width="5.2" height="18.2"/>
<rect x="16.6" y="62" class="st0" width="5.2" height="30.7"/>
<rect x="26.7" y="40.9" class="st0" width="5.2" height="51.9"/>
<rect x="37.2" y="6.3" class="st0" width="5.2" height="86.4"/>
<rect x="47.4" y="15" class="st0" width="5.2" height="77.8"/>
<rect x="57.9" y="6.3" class="st0" width="5.2" height="86.4"/>
<rect x="68.1" y="58.3" class="st0" width="5.2" height="34.6"/>
<path class="st1" d="M80.7,98.1H0V0h80.7V98.1z M1,97.1h78.7V1H1V97.1z"/>
<path class="st2" d="M539,13.1l1.1-4.2h1l1.1,4.2h-0.5l-0.3-1.1h-1.8l-0.3,1.1H539z M540.4,9.4l-0.6,2.3h1.6l-0.6-2.3H540.4z"/>
<path class="st2" d="M542.5,13.1l1.1-4.2h1l1.1,4.2h-0.5l-0.3-1.1h-1.8l-0.3,1.1H542.5z M544,9.4l-0.6,2.3h1.6l-0.6-2.3H544z"/>
<path class="st2" d="M743.8,11.7h-1.1v1.4h-0.5V9h1.5c0.5,0,0.8,0.1,1,0.3c0.2,0.2,0.3,0.6,0.3,1C745.2,11.3,744.7,11.7,743.8,11.7z
	 M742.8,11.3h1.1c0.6,0,0.9-0.3,0.9-1c0-0.3-0.1-0.6-0.2-0.7c-0.1-0.2-0.4-0.2-0.7-0.2h-1.1V11.3z"/>
<path class="st2" d="M745.5,9h0.5l0.7,3.7h0.2l0.8-3.7h0.5l0.8,3.7h0.2L750,9h0.5l-0.8,4.2h-0.8L748,9.6l-0.8,3.5h-0.8L745.5,9z"/>
<path class="st2" d="M770.3,13.1V9h0.8l1.2,3.5l1.2-3.5h0.8v4.2h-0.5V9.5h-0.1l-1.2,3.5h-0.5l-1.2-3.5h-0.1v3.7H770.3z"/>
<path class="st2" d="M775.4,13.1V9h2.5v0.4h-2V11h1.7v0.4h-1.7v1.7H775.4z"/>
<path class="st3" d="M1018.2,13.6h-73c-1.1,0-2-0.9-2-2v0c0-1.1,0.9-2,2-2h73c1.1,0,2,0.9,2,2v0
	C1020.2,12.7,1019.3,13.6,1018.2,13.6z"/>
<path class="st3" d="M1100.2,13.6h-73c-1.1,0-2-0.9-2-2v0c0-1.1,0.9-2,2-2h73c1.1,0,2,0.9,2,2v0
	C1102.2,12.7,1101.3,13.6,1100.2,13.6z"/>
</svg>
