<?xml version="1.0" encoding="utf-8"?>
<!-- Generator: Adobe Illustrator 25.3.1, SVG Export Plug-In . SVG Version: 6.00 Build 0)  -->
<svg version="1.1" id="Layer_1" xmlns="http://www.w3.org/2000/svg" xmlns:xlink="http://www.w3.org/1999/xlink" x="0px" y="0px"
	 viewBox="0 0 291.3 28.1" style="enable-background:new 0 0 291.3 28.1;" xml:space="preserve">
<style type="text/css">
	.st0{opacity:0.43;fill:#FFFFFF;}
</style>
<polygon class="st0" points="70,2.7 69.1,6.2 71.4,6.2 70.5,2.7 "/>
<path class="st0" d="M71.8,0H59.2c-3.2,0-5.8,2.6-5.8,5.8s2.6,5.8,5.8,5.8h12.6c3.2,0,5.8-2.6,5.8-5.8S75,0,71.8,0z M63.4,8.4h-1.3
	l-2.4-5.7h-0.2v5.7h-0.7V2.1h1.3l2.4,5.7h0.2V2.1h0.7V8.4z M65.1,8.5l-0.6-0.2L67,2l0.6,0.2L65.1,8.5z M72,8.4l-0.5-1.6h-2.7
	l-0.5,1.6h-0.7l1.7-6.3H71l1.7,6.3H72z"/>
<polygon class="st0" points="96.2,2.7 95.3,6.2 97.6,6.2 96.7,2.7 "/>
<path class="st0" d="M98.5,0H85.9c-3.2,0-5.8,2.6-5.8,5.8s2.6,5.8,5.8,5.8h12.6c3.2,0,5.8-2.6,5.8-5.8S101.7,0,98.5,0z M89.6,8.4
	h-1.3l-2.4-5.7h-0.2v5.7H85V2.1h1.3l2.4,5.7h0.2V2.1h0.7V8.4z M91.3,8.5l-0.6-0.2L93.2,2l0.6,0.2L91.3,8.5z M98.2,8.4l-0.5-1.6h-2.7
	l-0.5,1.6H94l1.7-6.3h1.5l1.7,6.3H98.2z"/>
<polygon class="st0" points="17,19.3 16,22.7 18.4,22.7 17.4,19.3 "/>
<path class="st0" d="M18.4,16.6H5.8c-3.2,0-5.8,2.6-5.8,5.8c0,3.2,2.6,5.8,5.8,5.8h12.6c3.2,0,5.8-2.6,5.8-5.8
	C24.2,19.1,21.6,16.6,18.4,16.6z M10.4,25H9.1l-2.4-5.7H6.5V25H5.8v-6.3h1.3l2.4,5.7h0.2v-5.7h0.7V25z M12,25.1l-0.6-0.2l2.6-6.3
	l0.6,0.2L12,25.1z M19,25l-0.5-1.6h-2.7L15.4,25h-0.7l1.7-6.3H18l1.7,6.3H19z"/>
<polygon class="st0" points="230,19.3 229,22.7 231.4,22.7 230.4,19.3 "/>
<path class="st0" d="M231.4,16.6h-12.6c-3.2,0-5.8,2.6-5.8,5.8c0,3.2,2.6,5.8,5.8,5.8h12.6c3.2,0,5.8-2.6,5.8-5.8
	C237.2,19.1,234.6,16.6,231.4,16.6z M223.4,25h-1.3l-2.4-5.7h-0.2V25h-0.7v-6.3h1.3l2.4,5.7h0.2v-5.7h0.7V25z M225,25.1l-0.6-0.2
	l2.6-6.3l0.6,0.2L225,25.1z M232,25l-0.5-1.6h-2.7l-0.5,1.6h-0.7l1.7-6.3h1.5l1.7,6.3H232z"/>
<path class="st0" d="M71.8,16.6H59.2c-3.2,0-5.8,2.6-5.8,5.8c0,3.2,2.6,5.8,5.8,5.8h12.6c3.2,0,5.8-2.6,5.8-5.8
	C77.6,19.1,75,16.6,71.8,16.6z M63.4,25h-1.3l-2.4-5.7h-0.2V25h-0.7v-6.3h1.3l2.4,5.7h0.2v-5.7h0.7V25z M65.1,25.1l-0.6-0.2l2.6-6.3
	l0.6,0.2L65.1,25.1z M72,25l-0.5-1.6h-2.7L68.5,25h-0.7l1.7-6.3H71l1.7,6.3H72z"/>
<polygon class="st0" points="70,19.3 69.1,22.7 71.4,22.7 70.5,19.3 "/>
<path class="st0" d="M285.5,0h-12.6c-3.2,0-5.8,2.6-5.8,5.8s2.6,5.8,5.8,5.8h12.6c3.2,0,5.8-2.6,5.8-5.8S288.7,0,285.5,0z
	 M276.6,8.4h-1.3l-2.4-5.7h-0.2v5.7H272V2.1h1.3l2.4,5.7h0.2V2.1h0.7V8.4z M278.3,8.5l-0.6-0.2l2.6-6.3l0.6,0.2L278.3,8.5z
	 M285.2,8.4l-0.5-1.6h-2.7l-0.5,1.6H281l1.7-6.3h1.5l1.7,6.3H285.2z"/>
<polygon class="st0" points="283.2,2.7 282.3,6.2 284.6,6.2 283.7,2.7 "/>
<polygon class="st0" points="149.2,2.7 148.3,6.2 150.6,6.2 149.7,2.7 "/>
<path class="st0" d="M151.5,0h-12.6c-3.2,0-5.8,2.6-5.8,5.8s2.6,5.8,5.8,5.8h12.6c3.2,0,5.8-2.6,5.8-5.8S154.7,0,151.5,0z
	 M142.6,8.4h-1.3l-2.4-5.7h-0.2v5.7H138V2.1h1.3l2.4,5.7h0.2V2.1h0.7V8.4z M144.3,8.5l-0.6-0.2l2.6-6.3l0.6,0.2L144.3,8.5z
	 M151.2,8.4l-0.5-1.6h-2.7l-0.5,1.6H147l1.7-6.3h1.5l1.7,6.3H151.2z"/>
<polygon class="st0" points="203.2,3.1 202.3,6.5 204.6,6.5 203.7,3.1 "/>
<path class="st0" d="M205,0.4h-12.6c-3.2,0-5.8,2.6-5.8,5.8c0,3.2,2.6,5.8,5.8,5.8H205c3.2,0,5.8-2.6,5.8-5.8
	C210.8,3,208.2,0.4,205,0.4z M196.6,8.8h-1.3l-2.4-5.7h-0.2v5.7H192V2.5h1.3l2.4,5.7h0.2V2.5h0.7V8.8z M198.3,8.9l-0.6-0.2l2.6-6.3
	l0.6,0.2L198.3,8.9z M205.2,8.8l-0.5-1.6h-2.7l-0.5,1.6H201l1.7-6.3h1.5l1.7,6.3H205.2z"/>
<polygon class="st0" points="203.2,19.7 202.3,23.1 204.6,23.1 203.7,19.7 "/>
<path class="st0" d="M205,16.9h-12.6c-3.2,0-5.8,2.6-5.8,5.8v0c0,3.2,2.6,5.8,5.8,5.8H205c3.2,0,5.8-2.6,5.8-5.8v0
	C210.8,19.5,208.2,16.9,205,16.9z M196.6,25.3h-1.3l-2.4-5.7h-0.2v5.7H192v-6.3h1.3l2.4,5.7h0.2v-5.7h0.7V25.3z M198.3,25.5
	l-0.6-0.2l2.6-6.3l0.6,0.2L198.3,25.5z M205.2,25.3l-0.5-1.6h-2.7l-0.5,1.6H201l1.7-6.3h1.5l1.7,6.3H205.2z"/>
</svg>
