<?xml version="1.0" encoding="utf-8"?>
<!-- Generator: Adobe Illustrator 25.3.1, SVG Export Plug-In . SVG Version: 6.00 Build 0)  -->
<svg version="1.1" id="Layer_1" xmlns="http://www.w3.org/2000/svg" xmlns:xlink="http://www.w3.org/1999/xlink" x="0px" y="0px"
	 viewBox="0 0 1063 21" style="enable-background:new 0 0 1063 21;" xml:space="preserve">
<style type="text/css">
	.st0{fill:#FFFFFF;}
</style>
<path class="st0" d="M1063,14.6h-0.5v-10h0.5V14.6z M1050.5,14.6h-0.5v-10h0.5V14.6z M1038,14.6h-0.5v-10h0.5V14.6z M1025.5,14.6
	h-0.5v-10h0.5V14.6z M1013,14.6h-0.5v-10h0.5V14.6z M1000.5,14.6h-0.5v-10h0.5V14.6z M988,14.6h-0.5v-10h0.5V14.6z M975.5,14.6H975
	v-10h0.5V14.6z M963,14.6h-0.5v-10h0.5V14.6z M950.5,14.6H950v-10h0.5V14.6z M938,14.6h-0.5v-10h0.5V14.6z M925.5,14.6H925v-10h0.5
	V14.6z M913,14.6h-0.5v-10h0.5V14.6z M900.5,14.6H900v-10h0.5V14.6z M888,14.6h-0.5v-10h0.5V14.6z M875.5,14.6H875v-10h0.5V14.6z
	 M863,14.6h-0.5v-10h0.5V14.6z M850.5,14.6H850v-10h0.5V14.6z M838,14.6h-0.5v-10h0.5V14.6z M825.5,14.6H825v-10h0.5V14.6z
	 M813,14.6h-0.5v-10h0.5V14.6z M800.5,14.6H800v-10h0.5V14.6z M788,14.6h-0.5v-10h0.5V14.6z M775.5,14.6H775v-10h0.5V14.6z
	 M763,14.6h-0.5v-10h0.5V14.6z M750.5,14.6H750v-10h0.5V14.6z M738,14.6h-0.5v-10h0.5V14.6z M725.5,14.6H725v-10h0.5V14.6z
	 M713,14.6h-0.5v-10h0.5V14.6z M700.5,14.6H700v-10h0.5V14.6z M688,14.6h-0.5v-10h0.5V14.6z M675.5,14.6H675v-10h0.5V14.6z
	 M663,14.6h-0.5v-10h0.5V14.6z M650.5,14.6H650v-10h0.5V14.6z M638,14.6h-0.5v-10h0.5V14.6z M625.5,14.6H625v-10h0.5V14.6z
	 M613,14.6h-0.5v-10h0.5V14.6z M600.5,14.6H600v-10h0.5V14.6z M588,14.6h-0.5v-10h0.5V14.6z M575.5,14.6H575v-10h0.5V14.6z
	 M563,14.6h-0.5v-10h0.5V14.6z M550.5,14.6H550v-10h0.5V14.6z M538,14.6h-0.5v-10h0.5V14.6z M525.5,14.6H525v-10h0.5V14.6z
	 M513,14.6h-0.5v-10h0.5V14.6z M500.5,14.6H500v-10h0.5V14.6z M488,14.6h-0.5v-10h0.5V14.6z M475.5,14.6H475v-10h0.5V14.6z
	 M463,14.6h-0.5v-10h0.5V14.6z M450.5,14.6H450v-10h0.5V14.6z M438,14.6h-0.5v-10h0.5V14.6z M425.5,14.6H425v-10h0.5V14.6z
	 M413,14.6h-0.5v-10h0.5V14.6z M400.5,14.6H400v-10h0.5V14.6z M388,14.6h-0.5v-10h0.5V14.6z M375.5,14.6H375v-10h0.5V14.6z
	 M363,14.6h-0.5v-10h0.5V14.6z M350.5,14.6H350v-10h0.5V14.6z M338,14.6h-0.5v-10h0.5V14.6z M325.5,14.6H325v-10h0.5V14.6z
	 M313,14.6h-0.5v-10h0.5V14.6z M300.5,14.6H300v-10h0.5V14.6z M288,14.6h-0.5v-10h0.5V14.6z M275.5,14.6H275v-10h0.5V14.6z
	 M263,14.6h-0.5v-10h0.5V14.6z M250.5,14.6H250v-10h0.5V14.6z M238,14.6h-0.5v-10h0.5V14.6z M225.5,14.6H225v-10h0.5V14.6z
	 M213,14.6h-0.5v-10h0.5V14.6z M200.5,14.6H200v-10h0.5V14.6z M188,14.6h-0.5v-10h0.5V14.6z M175.5,14.6H175v-10h0.5V14.6z
	 M163,14.6h-0.5v-10h0.5V14.6z M150.5,14.6H150v-10h0.5V14.6z M138,14.6h-0.5v-10h0.5V14.6z M125.5,14.6H125v-10h0.5V14.6z
	 M113,14.6h-0.5v-10h0.5V14.6z M100.5,14.6H100v-10h0.5V14.6z M88,14.6h-0.5v-10H88V14.6z M75.5,14.6H75v-10h0.5V14.6z M63,14.6
	h-0.5v-10H63V14.6z M50.5,14.6H50v-10h0.5V14.6z M38,14.6h-0.5v-10H38V14.6z M25.5,14.6H25v-10h0.5V14.6z M13,14.6h-0.5v-10H13V14.6
	z M0.5,14.6H0v-10h0.5V14.6z"/>
<path class="st0" d="M965.2,21h-5V0h5V21z M855.2,21h-5V0h5V21z M745.2,21h-5V0h5V21z M635.2,21h-5V0h5V21z M525.2,21h-5V0h5V21z
	 M415.2,21h-5V0h5V21z M305.2,21h-5V0h5V21z M195.2,21h-5V0h5V21z M85.2,21h-5V0h5V21z"/>
</svg>
