<?xml version="1.0" encoding="utf-8"?>
<!-- Generator: Adobe Illustrator 30.0.0, SVG Export Plug-In . SVG Version: 9.03 Build 0)  -->
<svg version="1.1" baseProfile="tiny" id="animated"
	 xmlns="http://www.w3.org/2000/svg" xmlns:xlink="http://www.w3.org/1999/xlink" x="0px" y="0px" viewBox="0 0 256 64"
	 overflow="visible" xml:space="preserve">
<g id="_x30_">
</g>
<g id="_x31__00000153691988165331084530000012755700483631918241_">
	<polygon fill="#DB0000" points="66.97,51.04 41.57,51.04 1.37,12.24 26.77,12.24 	"/>
	<polygon fill="#FF0000" points="34.57,19.84 26.77,12.24 1.37,12.24 9.37,19.84 	"/>
	<polygon fill="#AA0000" points="33.77,43.44 41.57,51.04 66.97,51.04 58.97,43.44 	"/>
</g>
<g id="_x32_">
	<polygon fill="#DB0000" points="66.97,51.04 41.57,51.04 1.37,12.24 26.77,12.24 	"/>
	<polygon fill="#DB0000" points="105.97,51.04 78.17,51.04 37.97,12.24 65.77,12.24 	"/>
	<polygon fill="#AA0000" points="70.17,43.44 78.17,51.04 105.97,51.04 97.97,43.44 	"/>
	<polygon fill="#FF0000" points="73.77,19.84 65.77,12.24 37.97,12.24 45.97,19.84 	"/>
	<polygon fill="#FF0000" points="34.57,19.84 26.77,12.24 1.37,12.24 9.37,19.84 	"/>
	<polygon fill="#AA0000" points="33.77,43.44 41.57,51.04 66.97,51.04 58.97,43.44 	"/>
</g>
<g id="_x33_">
	<polygon fill="#DB0000" points="66.97,51.04 41.57,51.04 1.37,12.24 26.77,12.24 	"/>
	<polygon fill="#DB0000" points="105.97,51.04 78.17,51.04 37.97,12.24 65.77,12.24 	"/>
	<polygon fill="#DB0000" points="149.37,51.04 118.97,51.04 78.77,12.24 108.97,12.24 	"/>
	<polygon fill="#AA0000" points="110.97,43.44 118.97,51.04 149.37,51.04 141.37,43.44 	"/>
	<polygon fill="#FF0000" points="116.97,19.84 108.97,12.24 78.77,12.24 86.77,19.84 	"/>
	<polygon fill="#AA0000" points="70.17,43.44 78.17,51.04 105.97,51.04 97.97,43.44 	"/>
	<polygon fill="#FF0000" points="73.77,19.84 65.77,12.24 37.97,12.24 45.97,19.84 	"/>
	<polygon fill="#FF0000" points="34.57,19.84 26.77,12.24 1.37,12.24 9.37,19.84 	"/>
	<polygon fill="#AA0000" points="33.77,43.44 41.57,51.04 66.97,51.04 58.97,43.44 	"/>
</g>
<g id="_x34_">
	<polygon fill="#DB0000" points="66.97,51.04 41.57,51.04 1.37,12.24 26.77,12.24 	"/>
	<polygon fill="#DB0000" points="105.97,51.04 78.17,51.04 37.97,12.24 65.77,12.24 	"/>
	<polygon fill="#DB0000" points="149.37,51.04 118.97,51.04 78.77,12.24 108.97,12.24 	"/>
	<polygon fill="#DB0000" points="197.97,51.04 165.17,51.04 124.77,12.24 157.57,12.24 	"/>
	<polygon fill="#AA0000" points="157.17,43.44 165.17,51.04 197.97,51.04 189.97,43.44 	"/>
	<polygon fill="#FF0000" points="165.57,19.84 157.57,12.24 124.77,12.24 132.77,19.84 	"/>
	<polygon fill="#AA0000" points="110.97,43.44 118.97,51.04 149.37,51.04 141.37,43.44 	"/>
	<polygon fill="#FF0000" points="116.97,19.84 108.97,12.24 78.77,12.24 86.77,19.84 	"/>
	<polygon fill="#AA0000" points="70.17,43.44 78.17,51.04 105.97,51.04 97.97,43.44 	"/>
	<polygon fill="#FF0000" points="73.77,19.84 65.77,12.24 37.97,12.24 45.97,19.84 	"/>
	<polygon fill="#FF0000" points="34.57,19.84 26.77,12.24 1.37,12.24 9.37,19.84 	"/>
	<polygon fill="#AA0000" points="33.77,43.44 41.57,51.04 66.97,51.04 58.97,43.44 	"/>
</g>
<g id="_x35_">
	<polygon fill="#DB0000" points="66.97,51.04 41.57,51.04 1.37,12.24 26.77,12.24 	"/>
	<polygon fill="#DB0000" points="105.97,51.04 78.17,51.04 37.97,12.24 65.77,12.24 	"/>
	<polygon fill="#DB0000" points="149.37,51.04 118.97,51.04 78.77,12.24 108.97,12.24 	"/>
	<polygon fill="#DB0000" points="197.97,51.04 165.17,51.04 124.77,12.24 157.57,12.24 	"/>
	<polygon fill="#DB0000" points="250.97,51.04 215.77,51.04 175.37,12.24 210.77,12.24 	"/>
	<polygon fill="#AA0000" points="207.77,43.44 215.77,51.04 250.97,51.04 242.97,43.44 	"/>
	<polygon fill="#FF0000" points="218.77,19.84 210.77,12.24 175.37,12.24 183.37,19.84 	"/>
	<polygon fill="#AA0000" points="157.17,43.44 165.17,51.04 197.97,51.04 189.97,43.44 	"/>
	<polygon fill="#FF0000" points="165.57,19.84 157.57,12.24 124.77,12.24 132.77,19.84 	"/>
	<polygon fill="#AA0000" points="110.97,43.44 118.97,51.04 149.37,51.04 141.37,43.44 	"/>
	<polygon fill="#FF0000" points="116.97,19.84 108.97,12.24 78.77,12.24 86.77,19.84 	"/>
	<polygon fill="#AA0000" points="70.17,43.44 78.17,51.04 105.97,51.04 97.97,43.44 	"/>
	<polygon fill="#FF0000" points="73.77,19.84 65.77,12.24 37.97,12.24 45.97,19.84 	"/>
	<polygon fill="#FF0000" points="34.57,19.84 26.77,12.24 1.37,12.24 9.37,19.84 	"/>
	<polygon fill="#AA0000" points="33.77,43.44 41.57,51.04 66.97,51.04 58.97,43.44 	"/>
</g>
</svg>
