<?xml version="1.0" encoding="utf-8"?>
<!-- Generator: Adobe Illustrator 26.5.0, SVG Export Plug-In . SVG Version: 6.00 Build 0)  -->
<svg version="1.1" baseProfile="tiny" id="Layer_1" xmlns="http://www.w3.org/2000/svg" xmlns:xlink="http://www.w3.org/1999/xlink"
	 x="0px" y="0px" viewBox="0 0 1920 1080" overflow="visible" xml:space="preserve">
<path display="none" fill="#005FC5" d="M1516.3,841.6l100.9,100.9c20.5,20.5,55.8,18.6,78.7-4.4l107.6-107.6
	c20.2-19.7,21.2-25.4,20-72V541.2c0,0,1.1-22.6,22.1-42.3l523.1-523.1l-30.5-30.5l-817.5,817.5
	C1497.7,785.8,1495.8,821.1,1516.3,841.6z M1791.6,582.4l2.1,149.5c0.3,23.5-0.6,49.9-2.2,58.6c-1.5,8.7-16.3,29.5-32.8,46.3
	l-15.3,15.6c-16.5,16.8-30.4,11.2-30.8-12.3l-2.8-151.7c-0.4-23.5,1.3-50,3.9-58.9c2.6-8.8,18.2-29.8,34.7-46.6l12.6-12.8
	C1777.5,553.3,1791.3,558.8,1791.6,582.4z"/>
<path fill="none" stroke="#10529C" stroke-width="6.4659" stroke-miterlimit="10" d="M1930.1,195.4l-89.1,0
	c-16.9,0-33.1-6.5-45.4-18.1L1675.8,63.8c-12.3-11.6-28.5-18.1-45.4-18.1l-1641.2,0"/>
<path fill="none" stroke="#10529C" stroke-width="6.4659" stroke-miterlimit="10" d="M1930.1,216.6l-202.2,0
	c-16.9,0-33.1-6.5-45.4-18.1L1562.7,85.1c-12.3-11.6-28.5-18.1-45.4-18.1L-10.8,67"/>
<path fill="none" stroke="#10529C" stroke-width="6.4659" stroke-miterlimit="10" d="M-10.8,840.7h66.8c11.3,0,22.1,4.3,30.3,12.1
	l80.1,75.8c8.2,7.8,19,12.1,30.3,12.1l1733.3,0"/>
<path fill="none" stroke="#10529C" stroke-width="6.4659" stroke-miterlimit="10" d="M-10.8,817.4H149c11.3,0,22.1,4.3,30.3,12.1
	l80.1,75.8c8.2,7.8,19,12.1,30.3,12.1l1640.4,0"/>
</svg>
