<?xml version="1.0" encoding="utf-8"?>
<!-- Generator: Adobe Illustrator 26.5.0, SVG Export Plug-In . SVG Version: 6.00 Build 0)  -->
<svg version="1.1" baseProfile="tiny" id="Layer_1" xmlns="http://www.w3.org/2000/svg" xmlns:xlink="http://www.w3.org/1999/xlink"
	 x="0px" y="0px" viewBox="0 0 1920 1080" overflow="visible" xml:space="preserve">
<g>
	<g>
		<path fill="#005FC5" d="M431.8,479.8H511c-13.7-57.3-55.9-103.5-110.8-122.8v84.2C413.8,451.1,424.8,464.3,431.8,479.8z"/>
		<path fill="#005FC5" d="M400.3,598.9v1.2l-9.1,4.8l-3.2,1.7c-0.4,0.2-0.8,0.4-1.2,0.6c-2,1-4.1,2-6.2,2.9
			c-0.6,0.2-1.1,0.4-1.7,0.7c-2.2,0.9-4.3,1.7-6.6,2.4c-0.7,0.2-1.3,0.4-2,0.6c-2.1,0.6-4.3,1.2-6.4,1.7c-2.9,0.6-5.7,1.1-8.6,1.5
			c-0.4,0.1-0.9,0.1-1.3,0.1c-3.6,0.4-7.2,0.7-10.8,0.7c-2.9,0-5.8-0.2-8.7-0.4c-1-0.1-1.9-0.2-2.8-0.3c-2-0.2-3.9-0.5-5.8-0.9
			c-1.7-0.3-3.4-0.7-5.1-1.1c-1.6-0.4-3.2-0.8-4.7-1.2c-1.7-0.5-3.3-1-5-1.6c-0.7-0.2-1.4-0.5-2.1-0.8c-3.2-1.2-6.3-2.6-9.4-4.2
			c-1.7-0.9-3.4-1.9-5.1-2.8c-0.9-0.5-1.8-1-2.7-1.5l-3.5-2.2l-7.3-4.6v-0.9c-21.5-17.9-35.3-44.9-35.3-75.1
			c0-30.2,13.7-57.2,35.3-75.1V359c-64.6,25-110.5,87.7-110.5,161.2c0,95.4,77.3,172.8,172.7,172.8c81.5,0,149.8-56.5,167.9-132.5
			h-79.2C424.8,575.8,413.8,589.1,400.3,598.9z"/>
	</g>
	<path fill="#005FC5" d="M308.9,611.3c-3.2-1.2-6.4-2.6-9.4-4.2C302.5,608.7,305.7,610.1,308.9,611.3z"/>
	<path fill="#005FC5" d="M291.6,602.8c0.9,0.5,1.8,1,2.7,1.5c-2.1-1.2-4.2-2.3-6.1-3.7L291.6,602.8z"/>
	<path fill="#005FC5" d="M353.9,616.9c-3.6,0.4-7.2,0.7-10.8,0.7C346.7,617.6,350.3,617.3,353.9,616.9z"/>
	<path fill="#005FC5" d="M387.9,606.5l3.2-1.7c-1.4,0.8-2.9,1.5-4.4,2.2C387.2,606.9,387.6,606.7,387.9,606.5z"/>
	<path fill="#005FC5" d="M380.6,610c-0.6,0.2-1.1,0.4-1.7,0.7C379.4,610.4,380,610.2,380.6,610z"/>
	<path fill="#005FC5" d="M372.3,613c-0.7,0.2-1.3,0.4-2,0.6C371,613.4,371.6,613.2,372.3,613z"/>
	<path fill="#005FC5" d="M363.9,615.3c-2.8,0.6-5.7,1.1-8.6,1.5C358.1,616.4,361,615.9,363.9,615.3z"/>
	<path fill="#005FC5" d="M400.3,600.1v-1.2c-2.9,2.1-6,4.1-9.1,5.9L400.3,600.1z"/>
	<path fill="#005FC5" d="M280.9,596.1l7.3,4.6c-2.5-1.7-5-3.6-7.3-5.5V596.1z"/>
</g>
<g>
	<path fill="#FFFFFF" d="M343.2,347.2c-13.5,0-26.7,1.6-39.3,4.5v79.1v25.9v126.6c11.4,7.1,24.9,11.3,39.4,11.3
		c12.2,0,23.9-3,34.3-8.5V453.9v-25v-78C366.4,348.6,355,347.2,343.2,347.2z"/>
	<path fill="#B3B3B3" d="M467.9,282.3h-107V166.4c6.2-5.5,10.1-13.5,10.1-22.5c0-16.7-13.5-30.2-30.2-30.2s-30.2,13.5-30.2,30.2
		c0,8.9,3.9,16.9,10.1,22.5v115.9h-107l50.9,31.8H304v14.2c12.7-2.6,25.9-4,39.3-4c11.7,0,23.1,1,34.3,3v-13.2H417L467.9,282.3z"/>
</g>
<g>
	<path fill="#FFFFFF" d="M688.1,638.1c0-2.6-0.7-4.6-2-6c-1.3-1.3-3.8-2.7-7.4-4.2c-6.5-2.5-11.2-5.3-14-8.6
		c-2.8-3.3-4.3-7.2-4.3-11.7c0-5.4,1.9-9.8,5.8-13.1c3.9-3.3,8.8-5,14.7-5c4,0,7.5,0.8,10.6,2.5c3.1,1.7,5.5,4,7.2,7.1
		c1.7,3.1,2.5,6.5,2.5,10.4h-13c0-3-0.6-5.3-1.9-6.9c-1.3-1.6-3.1-2.4-5.6-2.4c-2.3,0-4.1,0.7-5.3,2c-1.3,1.3-1.9,3.2-1.9,5.4
		c0,1.8,0.7,3.4,2.1,4.8c1.4,1.4,3.9,2.9,7.6,4.5c6.3,2.3,10.9,5.1,13.7,8.4c2.9,3.3,4.3,7.5,4.3,12.7c0,5.6-1.8,10-5.4,13.2
		c-3.6,3.2-8.5,4.8-14.6,4.8c-4.2,0-8-0.9-11.4-2.6c-3.4-1.7-6.1-4.2-8.1-7.4c-1.9-3.2-2.9-7-2.9-11.3H672c0,3.7,0.7,6.4,2.2,8.1
		c1.5,1.7,3.8,2.5,7.1,2.5C685.8,645.4,688.1,643,688.1,638.1z"/>
	<path fill="#FFFFFF" d="M784.2,627.1h-20.3v17.1H788v10.8h-37.1v-64.7h37.1v10.9h-24v15.3h20.3V627.1z"/>
	<path fill="#FFFFFF" d="M880.3,633.6c-0.3,7.4-2.4,13-6.2,16.7c-3.8,3.8-9.2,5.7-16.2,5.7c-7.3,0-12.9-2.4-16.8-7.2
		c-3.9-4.8-5.8-11.7-5.8-20.6v-10.9c0-8.9,2-15.7,6-20.5c4-4.8,9.6-7.2,16.8-7.2c7,0,12.4,2,16.1,5.9c3.7,3.9,5.7,9.6,6.2,17h-13.1
		c-0.1-4.6-0.8-7.7-2.1-9.4c-1.3-1.7-3.7-2.6-7.1-2.6c-3.5,0-6,1.2-7.4,3.7c-1.5,2.4-2.2,6.5-2.3,12.1v12.2c0,6.4,0.7,10.8,2.2,13.2
		c1.4,2.4,3.9,3.6,7.4,3.6c3.4,0,5.8-0.8,7.1-2.5c1.3-1.7,2-4.7,2.2-9.1H880.3z"/>
	<path fill="#FFFFFF" d="M971.3,590.4v44.8c-0.1,6.7-1.9,11.9-5.6,15.4c-3.6,3.6-8.9,5.4-15.7,5.4c-6.9,0-12.2-1.8-15.9-5.4
		c-3.7-3.6-5.5-8.8-5.5-15.7v-44.5h13.2v44.5c0,3.7,0.6,6.3,1.8,7.9c1.2,1.6,3.3,2.4,6.4,2.4c3.1,0,5.2-0.8,6.4-2.3
		c1.2-1.6,1.7-4.1,1.8-7.7v-44.7H971.3z"/>
	<path fill="#FFFFFF" d="M1041.8,631.5h-6.5v23.6h-13.1v-64.7h20.8c6.5,0,11.6,1.7,15.2,5.1c3.6,3.4,5.4,8.2,5.4,14.5
		c0,8.6-3.1,14.6-9.4,18l11.3,26.5v0.6h-14L1041.8,631.5z M1035.3,620.6h7.4c2.6,0,4.6-0.9,5.9-2.6c1.3-1.7,2-4,2-7
		c0-6.5-2.5-9.7-7.6-9.7h-7.6V620.6z"/>
	<path fill="#FFFFFF" d="M1127.2,655.1h-13.1v-64.7h13.1V655.1z"/>
	<path fill="#FFFFFF" d="M1221,601.3h-16v53.8h-13.1v-53.8h-15.7v-10.9h44.8V601.3z"/>
	<path fill="#FFFFFF" d="M1289.6,619.5l9.7-29.1h14.2l-17.3,41.2v23.5H1283v-23.5l-17.4-41.2h14.2L1289.6,619.5z"/>
</g>
<g>
	<path fill="#FFFFFF" d="M638.8,501.1c-0.8,17.3-5.6,30.3-14.6,39.2c-8.9,8.9-21.6,13.3-37.9,13.3c-17.1,0-30.3-5.6-39.4-16.9
		c-9.1-11.3-13.7-27.3-13.7-48.2V463c0-20.8,4.7-36.8,14.1-48.1c9.4-11.3,22.5-16.9,39.3-16.9c16.5,0,29,4.6,37.6,13.8
		c8.6,9.2,13.4,22.5,14.6,39.7h-30.7c-0.3-10.7-1.9-18-4.9-22.1c-3-4.1-8.5-6.1-16.6-6.1c-8.2,0-14,2.9-17.4,8.6
		c-3.4,5.7-5.2,15.1-5.4,28.2v28.6c0,15.1,1.7,25.4,5,31c3.4,5.6,9.1,8.4,17.3,8.4c8,0,13.6-2,16.6-5.9c3.1-3.9,4.8-11,5.2-21.3
		H638.8z"/>
	<path fill="#FFFFFF" d="M703.5,496.2h-15.2v55.3h-30.6V400.1h48.8c15.3,0,27.2,4,35.5,11.9c8.4,7.9,12.5,19.2,12.5,33.9
		c0,20.1-7.3,34.2-22,42.2l26.5,62v1.5h-32.9L703.5,496.2z M688.3,470.7h17.4c6.1,0,10.7-2,13.7-6.1c3-4.1,4.6-9.5,4.6-16.3
		c0-15.2-5.9-22.8-17.8-22.8h-17.9V470.7z"/>
	<path fill="#FFFFFF" d="M874.1,400.1v104.9c-0.1,15.7-4.5,27.8-13,36.2c-8.5,8.4-20.8,12.5-36.7,12.5c-16.2,0-28.6-4.2-37.2-12.7
		c-8.6-8.5-12.8-20.7-12.8-36.7V400.1h30.8v104.2c0,8.6,1.4,14.7,4.2,18.4c2.8,3.7,7.8,5.5,15.1,5.5s12.3-1.8,15-5.5
		c2.7-3.6,4.1-9.6,4.2-17.9V400.1H874.1z"/>
	<path fill="#FFFFFF" d="M961.3,511.8c0-6.2-1.6-10.8-4.7-14c-3.2-3.2-8.9-6.4-17.2-9.8c-15.2-5.8-26.1-12.5-32.8-20.2
		c-6.7-7.7-10-16.9-10-27.4c0-12.8,4.5-23,13.6-30.7c9.1-7.7,20.5-11.6,34.5-11.6c9.3,0,17.6,2,24.9,5.9c7.3,3.9,12.9,9.4,16.8,16.6
		c3.9,7.1,5.9,15.3,5.9,24.3h-30.5c0-7.1-1.5-12.5-4.5-16.2c-3-3.7-7.4-5.6-13.1-5.6c-5.3,0-9.5,1.6-12.5,4.7
		c-3,3.2-4.5,7.4-4.5,12.7c0,4.2,1.7,7.9,5,11.3c3.3,3.4,9.2,6.9,17.7,10.5c14.8,5.3,25.5,11.9,32.2,19.7c6.7,7.8,10,17.7,10,29.6
		c0,13.2-4.2,23.5-12.6,30.9c-8.4,7.4-19.8,11.1-34.2,11.1c-9.8,0-18.7-2-26.7-6c-8-4-14.3-9.8-18.9-17.3
		c-4.5-7.5-6.8-16.3-6.8-26.5h30.7c0,8.7,1.7,15.1,5.1,19c3.4,4,8.9,5.9,16.6,5.9C955.9,528.7,961.3,523.1,961.3,511.8z"/>
	<path fill="#FFFFFF" d="M1084.6,520.5h-41.7l-8.1,31h-32.4l47.3-151.5h28l47.6,151.5h-32.7L1084.6,520.5z M1049.6,495h28.3
		l-14.1-54L1049.6,495z"/>
	<path fill="#FFFFFF" d="M1139.6,551.5V400.1h40.1c17.7,0,31.8,5.6,42.3,16.9c10.5,11.2,15.9,26.6,16.1,46.2v24.6
		c0,19.9-5.3,35.5-15.8,46.9c-10.5,11.3-25,17-43.4,17H1139.6z M1170.2,425.5v100.6h9.2c10.2,0,17.4-2.7,21.5-8.1
		c4.2-5.4,6.3-14.7,6.6-27.8v-26.3c0-14.1-2-24-5.9-29.6c-4-5.6-10.7-8.5-20.2-8.8H1170.2z"/>
	<path fill="#FFFFFF" d="M1338.2,486h-47.6v40.2h56.4v25.4h-87V400.1h86.8v25.5h-56.2v35.8h47.6V486z"/>
	<path fill="#FFFFFF" d="M1410.4,496.2h-15.2v55.3h-30.6V400.1h48.8c15.3,0,27.2,4,35.5,11.9c8.4,7.9,12.5,19.2,12.5,33.9
		c0,20.1-7.3,34.2-22,42.2l26.5,62v1.5h-32.9L1410.4,496.2z M1395.2,470.7h17.4c6.1,0,10.7-2,13.7-6.1c3.1-4.1,4.6-9.5,4.6-16.3
		c0-15.2-5.9-22.8-17.8-22.8h-17.9V470.7z"/>
</g>
</svg>
