<?xml version="1.0" encoding="utf-8"?>
<!-- Generator: Adobe Illustrator 26.5.0, SVG Export Plug-In . SVG Version: 6.00 Build 0)  -->
<svg version="1.1" baseProfile="tiny" id="animated"
	 xmlns="http://www.w3.org/2000/svg" xmlns:xlink="http://www.w3.org/1999/xlink" x="0px" y="0px" viewBox="0 0 436.8 411.4"
	 overflow="visible" xml:space="preserve">
<g>
	<polygon fill="#132C3D" points="431.8,320.5 5,320.5 56.9,247.7 379.9,247.7 	"/>
	<polygon fill="#132C3D" stroke="#435D76" stroke-width="10" stroke-linejoin="round" points="431.8,320.5 5,320.5 56.9,247.7 
		379.9,247.7 	"/>
	<polygon fill="none" stroke="#1772D5" stroke-width="10" stroke-linejoin="round" points="336.6,279 214.9,254.8 93.2,279 
		214.9,303.2 	"/>
	<polygon fill="#235F87" points="183.4,40.4 183.4,53.7 214.9,39.8 246.4,53.7 246.4,40.4 214.9,26.5 	"/>
	<polygon fill="#235F87" points="214.9,15.5 175.7,32.7 175.7,47.9 180.7,45.8 180.7,38.6 214.9,23.5 249.1,38.6 249.1,45.8 
		254.1,47.9 254.1,32.7 	"/>
	<polygon fill="#235F87" points="246.4,374.3 246.4,361 214.9,374.9 183.4,361 183.4,374.3 214.9,388.2 	"/>
	<polygon fill="#235F87" points="249.1,368.9 249.1,376.1 214.9,391.2 180.7,376.1 180.7,368.9 175.7,366.8 175.7,382 214.9,399.2 
		254.1,381.9 254.1,366.8 	"/>
</g>
<g>
	<polygon fill="#132C3D" points="431.8,320.5 5,320.5 56.9,247.7 379.9,247.7 	"/>
	<polygon fill="#132C3D" stroke="#435D76" stroke-width="10" stroke-linejoin="round" points="431.8,320.5 5,320.5 56.9,247.7 
		379.9,247.7 	"/>
	<polygon fill="none" stroke="#1772D5" stroke-width="10" stroke-linejoin="round" points="336.6,279 214.9,254.8 93.2,279 
		214.9,303.2 	"/>
	<polygon fill="#42C3FF" points="183.4,45.9 183.4,59.2 214.9,45.3 246.4,59.2 246.4,45.9 214.9,32 	"/>
	<polygon fill="#42C3FF" points="214.9,21 175.7,38.2 175.7,53.4 180.7,51.3 180.7,44.1 214.9,29 249.1,44.1 249.1,51.3 254.1,53.4 
		254.1,38.2 	"/>
	<polygon fill="#42C3FF" points="246.4,369.2 246.4,355.9 214.9,369.8 183.4,355.9 183.4,369.2 214.9,383.1 	"/>
	<polygon fill="#42C3FF" points="249.1,363.8 249.1,371 214.9,386.1 180.7,371 180.7,363.8 175.7,361.7 175.7,376.9 214.9,394.1 
		254.1,376.8 254.1,361.7 	"/>
</g>
<g>
	<polygon fill="#132C3D" points="431.8,320.5 5,320.5 56.9,247.7 379.9,247.7 	"/>
	<polygon fill="#132C3D" stroke="#435D76" stroke-width="10" stroke-linejoin="round" points="431.8,320.5 5,320.5 56.9,247.7 
		379.9,247.7 	"/>
	<polygon fill="none" stroke="#1772D5" stroke-width="10" stroke-linejoin="round" points="336.6,279 214.9,254.8 93.2,279 
		214.9,303.2 	"/>
	<polygon fill="#2AA7D3" points="183.4,52.9 183.4,66.2 214.9,52.3 246.4,66.2 246.4,52.9 214.9,39 	"/>
	<polygon fill="#2AA7D3" points="214.9,28 175.7,45.2 175.7,60.4 180.7,58.3 180.7,51.1 214.9,36 249.1,51.1 249.1,58.3 254.1,60.4 
		254.1,45.2 	"/>
	<polygon fill="#2AA7D3" points="246.4,361.8 246.4,348.5 214.9,362.4 183.4,348.5 183.4,361.8 214.9,375.7 	"/>
	<polygon fill="#2AA7D3" points="249.1,356.4 249.1,363.6 214.9,378.7 180.7,363.6 180.7,356.4 175.7,354.3 175.7,369.5 
		214.9,386.7 254.1,369.4 254.1,354.3 	"/>
</g>
<g>
	<polygon fill="#132C3D" points="431.8,320.5 5,320.5 56.9,247.7 379.9,247.7 	"/>
	<polygon fill="#132C3D" stroke="#435D76" stroke-width="10" stroke-linejoin="round" points="431.8,320.5 5,320.5 56.9,247.7 
		379.9,247.7 	"/>
	<polygon fill="none" stroke="#1772D5" stroke-width="10" stroke-linejoin="round" points="336.6,279 214.9,254.8 93.2,279 
		214.9,303.2 	"/>
	<polygon fill="#235F87" points="183.4,57.4 183.4,70.7 214.9,56.8 246.4,70.7 246.4,57.4 214.9,43.5 	"/>
	<polygon fill="#235F87" points="214.9,32.5 175.7,49.7 175.7,64.9 180.7,62.8 180.7,55.6 214.9,40.5 249.1,55.6 249.1,62.8 
		254.1,64.9 254.1,49.7 	"/>
	<polygon fill="#235F87" points="246.4,357.3 246.4,344 214.9,357.9 183.4,344 183.4,357.3 214.9,371.2 	"/>
	<polygon fill="#235F87" points="249.1,351.9 249.1,359.1 214.9,374.2 180.7,359.1 180.7,351.9 175.7,349.8 175.7,365 214.9,382.2 
		254.1,364.9 254.1,349.8 	"/>
</g>
<g>
	<polygon fill="#132C3D" points="431.8,320.5 5,320.5 56.9,247.7 379.9,247.7 	"/>
	<polygon fill="none" stroke="#435D76" stroke-width="10" stroke-linejoin="round" points="431.8,320.5 5,320.5 56.9,247.7 
		379.9,247.7 	"/>
	<polygon fill="none" stroke="#1772D5" stroke-width="10" stroke-linejoin="round" points="336.6,279 214.9,254.8 93.2,279 
		214.9,303.2 	"/>
</g>
<g>
	<polygon fill="#132C3D" points="431.8,320.5 5,320.5 56.9,247.7 379.9,247.7 	"/>
	<polygon fill="none" stroke="#435D76" stroke-width="10" stroke-linejoin="round" points="431.8,320.5 5,320.5 56.9,247.7 
		379.9,247.7 	"/>
	<polygon fill="none" stroke="#1772D5" stroke-width="10" stroke-linejoin="round" points="336.6,279 214.9,254.8 93.2,279 
		214.9,303.2 	"/>
</g>
</svg>
