<?xml version="1.0" encoding="utf-8"?>
<!-- Generator: Adobe Illustrator 26.0.1, SVG Export Plug-In . SVG Version: 6.00 Build 0)  -->
<svg version="1.1" baseProfile="tiny" id="Layer_1" xmlns="http://www.w3.org/2000/svg" xmlns:xlink="http://www.w3.org/1999/xlink"
	 x="0px" y="0px" viewBox="0 0 1920 1080" overflow="visible" xml:space="preserve">
<g>
	<path fill-rule="evenodd" fill="#F1B30A" d="M1164.3,363.5c5.5,3.1,14.4,4.4,26.7,4c11.9-0.5,21.3-2.5,28-6.1
		c7.3-4,11.6-10.5,12.9-19.4l6.5-47.2c0.1-0.7-0.1-1.4-0.6-1.9c-0.5-0.5-1.1-0.8-1.8-0.8l-19,0.7c-0.8,0-1.5,0.3-2.1,0.9
		c-0.6,0.6-1,1.2-1.1,2l-5.2,38c-0.6,4.3-2,7.4-4.2,9.4c-2.2,2-5.6,3-10,3.2c-4.7,0.2-7.9-0.6-9.6-2.3c-1.8-1.7-2.3-4.7-1.7-9
		l5.3-38.3c0.1-0.7-0.1-1.4-0.6-1.9c-0.5-0.5-1.1-0.8-1.9-0.8l-18.9,0.7c-0.8,0-1.5,0.3-2.1,0.9c-0.6,0.6-1,1.2-1.1,2l-6.4,46.3
		C1155.9,353.5,1158.3,360,1164.3,363.5z M1233.8,363.9c0.5,0.5,1.1,0.8,1.9,0.8l18.5-0.7c0.8,0,1.5-0.3,2.1-0.9
		c0.6-0.6,1-1.2,1.1-2l5-36.2l14.8,36.7c0.2,0.4,0.5,0.8,1,1.1c0.5,0.3,0.9,0.4,1.3,0.4l8.7-0.3c0.4,0,0.9-0.2,1.4-0.5
		c0.5-0.3,1-0.7,1.3-1.2l25.2-38.3l-5,36.3c-0.1,0.7,0.1,1.4,0.6,1.9c0.5,0.5,1.1,0.8,1.9,0.8l18.5-0.7c0.8,0,1.5-0.3,2.1-0.9
		c0.6-0.6,1-1.2,1.1-2l9.2-67.3c0.1-0.7-0.1-1.4-0.6-1.9c-0.5-0.5-1.1-0.8-1.9-0.8l-21.7,0.8c-0.4,0-0.9,0.2-1.4,0.5
		c-0.5,0.3-0.9,0.6-1.2,1l-29.3,40.4l-18.8-38.6c-0.1-0.4-0.4-0.7-0.9-0.9c-0.5-0.3-0.9-0.4-1.3-0.4l-21.6,0.8
		c-0.8,0-1.5,0.3-2.1,0.9c-0.6,0.6-1,1.2-1.1,2l-9.2,67.3C1233.1,362.7,1233.3,363.3,1233.8,363.9z M1626,303.5
		c-2.7-0.4-5-0.8-7-1.4c-2-0.5-3.6-1-4.9-1.4c-1.5-0.5-2.1-1.2-2-2.2c0.1-1.1,1-1.8,2.6-2.3c1.6-0.5,3.7-0.8,6.5-0.9
		c3.6-0.1,7.6,0.4,12,1.5c2.2,0.6,4.3,1.3,6.2,2c2,0.7,3.9,1.5,5.6,2.4c1,0.5,1.9,0.4,2.9-0.2c1-0.7,1.4-1.6,1.5-2.8l0.4-16.2
		c0-0.5-0.2-1-0.5-1.5c-0.3-0.5-0.7-0.8-1.2-0.9c-1.1-0.3-2.5-0.6-4.2-0.9c-1.7-0.3-3.7-0.6-6-1c-4.7-0.7-9.3-0.9-13.6-0.8
		c-9.8,0.4-17.8,2.7-23.9,6.9c-6.1,4.2-9.6,10.3-10.7,18.1c-0.9,6.7,0.6,11.8,4.6,15.4c3.6,3.3,10.6,5.9,21,7.6
		c5.5,0.9,9,1.8,10.5,2.7c0.9,0.6,1.3,1.3,1.2,2c-0.2,1.3-1.2,2.3-2.9,3.1c-1.8,0.7-4.1,1.2-6.8,1.3c-4.5,0.2-9.4-0.6-14.7-2.2
		c-5.1-1.7-9-3.3-11.8-4.6c-1-0.5-1.9-0.4-2.9,0.2c-0.9,0.6-1.4,1.5-1.5,2.7l-0.9,17.6c0,0.6,0.2,1.1,0.5,1.6
		c0.4,0.5,0.8,0.8,1.3,0.9c0.7,0.1,1.6,0.3,2.8,0.5c1.2,0.2,2.7,0.5,4.4,0.7l0-0.1c0.5,0.1,0.9,0.2,1.4,0.2c0.5,0,1,0.1,1.6,0.2
		c2.6,0.3,5.2,0.6,7.8,0.7c2.6,0.1,5.3,0.1,8,0c5-0.2,9.7-0.9,13.8-2.1c4.2-1.2,7.8-2.9,10.9-5.1c3.1-2.2,5.6-4.8,7.5-8
		c1.9-3.1,3.2-6.7,3.7-10.7c0.9-6.2-0.5-11.2-4.1-15C1642.1,307.6,1635.7,305.1,1626,303.5z M1339.9,359.8c0.5,0.5,1.1,0.8,1.9,0.8
		l19.6-0.7c0.8,0,1.5-0.3,2.1-0.9c0.6-0.6,1-1.2,1.1-2l3.2-23.2l9.5-0.3c10.1-0.3,18-2.4,23.7-6.5c5.7-4.1,9.1-10.2,10.2-18.5
		c0.6-4.1,0.3-7.7-0.8-10.6c-1.1-2.9-3-5.2-5.7-6.9c-2.7-1.7-6.2-3-10.5-3.6c-4.3-0.7-9.4-0.9-15.2-0.7l-27.2,1
		c-0.7,0-1.4,0.3-2.1,0.9c-0.6,0.6-1,1.2-1.1,2l-9.2,67.3C1339.2,358.7,1339.4,359.3,1339.9,359.8z M1371.7,303.9l5.4-0.6
		c3.4-0.4,5.9,0,7.5,1.2c1.7,1.2,2.3,3,2,5.3c-0.7,4.8-4.7,7.2-12.1,7.2l-4.7,0L1371.7,303.9z M1409.3,357.2
		c0.5,0.5,1.1,0.8,1.8,0.8l56.3-2.1c0.8,0,1.5-0.3,2.1-0.9c0.6-0.6,1-1.2,1.1-2l1.9-13.6c0.1-0.8-0.1-1.5-0.5-2
		c-0.4-0.5-1.1-0.8-1.9-0.8l-33.5,1.3l1.1-7.8l26.5-1.1c0.7,0,1.4-0.3,2.1-0.9c0.6-0.6,1-1.3,1.1-2.1l1.8-13.4
		c0.1-0.7-0.1-1.4-0.6-1.9c-0.5-0.5-1.1-0.8-1.8-0.8l-26.5,1l1-7.4l31-1.2c0.7,0,1.4-0.3,2.1-0.9c0.6-0.6,1-1.3,1.1-2.1l1.9-13.6
		c0.1-0.7-0.1-1.4-0.6-1.9c-0.5-0.5-1.1-0.8-1.8-0.8l-53.8,2c-0.7,0-1.4,0.3-2.1,0.9c-0.6,0.6-1,1.2-1.1,2l-9.2,67.3
		C1408.6,356,1408.8,356.6,1409.3,357.2z M1471.6,364.6c-21.8,0.7-38.9,6-51.4,15.8c-12.5,9.8-20.1,24.4-22.9,43.8
		c-2.8,19.3,0.8,33.5,10.6,42.6c9.8,9.1,25.6,13.2,47.4,12.5c21.8-0.7,38.9-6,51.4-15.8c12.5-9.8,20.1-24.4,22.9-43.7
		c2.8-19.3-0.8-33.6-10.6-42.7C1509.1,368.1,1493.4,363.9,1471.6,364.6z M1490.6,421.1c-1.2,8.1-4.3,14.3-9.6,18.6
		c-5.2,4.3-12.3,6.5-21.1,6.8c-8.8,0.3-15.2-1.5-19.2-5.5c-4-4-5.4-10-4.3-18.1c1.2-8.1,4.3-14.3,9.5-18.6c5.2-4.3,12.2-6.5,21-6.8
		c8.8-0.3,15.3,1.5,19.3,5.5C1490.3,407,1491.7,413,1490.6,421.1z M1567.4,298.4l2.4-0.1l-3.9,8.2c-0.4,0.9-0.5,1.7-0.1,2.4
		c0.3,0.7,0.9,1,1.8,1l5.6-0.2c0.4,0,0.8-0.2,1.3-0.5c0.5-0.3,0.8-0.7,1-1.1l5.7-12.1l1.9-13.6c0.1-0.7,0-1.3-0.4-1.8
		c-0.4-0.5-0.8-0.8-1.5-0.7l-11.3,0.4c-0.6,0-1.2,0.3-1.7,0.9c-0.5,0.5-0.8,1.2-0.9,1.8l-1.8,13.1c-0.1,0.7,0,1.3,0.4,1.7
		C1566.3,298.2,1566.8,298.4,1567.4,298.4z M1288.7,376.9c0.2-1.1-0.1-2.1-0.8-2.9c-0.7-0.8-1.6-1.2-2.8-1.2l-82,2.7
		c-1.1,0-2.2,0.5-3.1,1.4c-1,0.9-1.5,1.9-1.7,3l-14.6,102.4c-0.2,1.1,0.1,2.1,0.8,2.9c0.7,0.8,1.6,1.2,2.8,1.2l85.8-2.8
		c1.2,0,2.3-0.5,3.2-1.4c0.9-0.9,1.5-1.9,1.6-3l2.9-20.7c0.2-1.2-0.1-2.2-0.8-3.1c-0.7-0.8-1.6-1.2-2.8-1.2l-51.1,1.7l1.7-11.9
		l40.4-1.5c1.1,0,2.2-0.5,3.1-1.4c1-0.9,1.5-1.9,1.7-3.2l2.9-20.4c0.2-1.1-0.1-2.1-0.8-2.9c-0.7-0.8-1.6-1.2-2.8-1.2L1232,415
		l1.6-11.3l47.3-1.6c1.1,0,2.2-0.5,3.1-1.4c1-0.9,1.5-1.9,1.7-3.2L1288.7,376.9z M1174.8,391.8c-9-9.9-21.9-14.6-38.7-14.1l-61.3,2
		c-1.2,0-2.3,0.5-3.3,1.4c-1,0.9-1.5,1.9-1.7,3l-14.6,102.4c-0.2,1.1,0.1,2.1,0.8,2.9c0.7,0.8,1.7,1.2,2.9,1.2l61.9-2
		c16.4-0.5,30.6-6.2,42.5-16.9c12-10.8,19.1-24.3,21.4-40.4C1187.1,414.8,1183.8,401.6,1174.8,391.8z M1146.4,432.7
		c-1,7.2-3.5,12.6-7.5,16.4c-4,3.7-9.4,5.7-16.1,6l-23.6,0.8l6.2-43.6l24.8-0.8c6.4-0.2,10.9,1.5,13.7,5
		C1146.6,420.1,1147.5,425.5,1146.4,432.7z M1384.2,377.6c-4.1-2.7-9.4-4.6-16-5.6c-6.6-1.1-14.3-1.4-23.2-1.1l-41.5,1.4
		c-1.1,0-2.2,0.5-3.1,1.4c-1,0.9-1.5,1.9-1.7,3L1284,479c-0.2,1.1,0.1,2.1,0.9,2.9c0.8,0.8,1.7,1.2,2.8,1.2l29.8-1
		c1.2,0,2.3-0.5,3.3-1.4c1-0.9,1.5-1.9,1.7-3l5-35.4l14.5-0.3c15.4-0.3,27.4-3.6,36.1-9.7c8.7-6.2,14-15.5,15.8-28.1
		c0.9-6.3,0.5-11.7-1.1-16.1C1391.2,383.8,1388.3,380.3,1384.2,377.6z M1356.7,406.2c-1,7.4-7.2,11-18.5,10.9l-7.1,0l2.9-20.1
		l8.2-0.8c5.1-0.5,8.9,0.1,11.5,1.9C1356.2,399.9,1357.2,402.7,1356.7,406.2z M1641.2,361.3l-97.7,3.2c-1.2,0-2.3,0.5-3.3,1.4
		c-1,0.9-1.6,1.9-1.8,3l-3.9,19.2c-0.3,1.2-0.1,2.2,0.6,3.1c0.6,0.8,1.5,1.2,2.8,1.2l29.2-1l-16.1,78.7c-0.2,1.1,0,2.1,0.7,2.9
		c0.7,0.8,1.6,1.2,2.7,1.2l30.9-1c1.2,0,2.3-0.5,3.3-1.4c1-0.9,1.6-1.9,1.8-3l16.1-78.7l29.1-1c1.2,0,2.3-0.5,3.4-1.4
		c1-0.9,1.7-1.9,1.9-3.2l3.9-19.2c0.2-1.1,0-2.1-0.7-2.9C1643.3,361.6,1642.4,361.2,1641.2,361.3z M1072.5,370.8l40.6-1.5
		c10.8-0.4,20-4.1,27.8-11.2c7.8-7.1,12.5-16,13.9-26.6c1.5-10.8-0.7-19.5-6.6-25.9c-6-6.5-14.5-9.5-25.5-9.1l-40.2,1.5
		c-0.8,0-1.5,0.3-2.1,0.9c-0.6,0.6-1,1.2-1.1,2l-9.2,67.3c-0.1,0.7,0.1,1.4,0.6,1.9C1071.1,370.6,1071.7,370.9,1072.5,370.8z
		 M1102.7,319.2l16.2-0.6c4.2-0.2,7.2,0.9,9,3.3c1.8,2.3,2.4,5.9,1.8,10.7c-0.6,4.7-2.3,8.3-4.9,10.8c-2.6,2.5-6.1,3.8-10.6,4
		l-15.5,0.6L1102.7,319.2z M1557.1,351.1c0.6-0.9,0.7-1.9,0.3-2.9l-9.7-21c-0.8-1.2-1.7-2.4-3-3.6c-1.2-1.2-2.7-2.3-4.6-3.2
		c1.7-0.6,3.3-1.3,4.8-2.1c1.5-0.8,2.8-1.6,4-2.4c4.7-3.3,7.5-8.5,8.5-15.6c0.9-6.3-1-11.2-5.7-14.8c-4.3-3.3-10.4-4.9-18.4-4.6
		l-46.3,1.8c-0.7,0-1.4,0.3-2.1,0.9c-0.6,0.6-1,1.2-1.1,2l-9.2,67.3c-0.1,0.7,0.1,1.4,0.6,1.9c0.5,0.5,1.1,0.8,1.8,0.8l20.5-0.8
		c0.8,0,1.5-0.3,2.1-0.9c0.6-0.6,1-1.2,1.1-2l3.2-23l9-0.3c3.3-0.1,5.2,0,5.6,0.3c0.3,0.2,0.5,0.4,0.8,0.7c0.2,0.3,0.5,0.6,0.7,0.9
		l-0.1-0.2l8.8,21.7c0.2,0.4,0.5,0.8,0.9,1.1c0.4,0.3,0.9,0.4,1.4,0.4l23.4-0.9C1555.5,352.5,1556.5,352,1557.1,351.1z M1531.5,304
		c-0.4,2.7-1.8,4.7-4.3,5.8c-2.5,1.1-6,1.8-10.5,2l-11.1,0.4l1.9-13.8l14.4-0.5c3.4-0.1,5.9,0.3,7.5,1.3
		C1531.1,300.1,1531.8,301.7,1531.5,304z"/>
</g>
<path fill="none" stroke="#F1B30A" stroke-width="8.9208" stroke-miterlimit="10" d="M1052.7,269.1l681.3-27.5
	c20.5-0.8,33.6,21.4,23.1,39L1612.5,501l-580.7,23.9l3.6-24.9c-55-9.2-97-57.1-97-114.7C938.4,321,989.9,271.7,1052.7,269.1z"/>
</svg>
