<?xml version="1.0" encoding="utf-8"?>
<!-- Generator: Adobe Illustrator 26.0.1, SVG Export Plug-In . SVG Version: 6.00 Build 0)  -->
<svg version="1.1" baseProfile="tiny" id="Layer_1" xmlns="http://www.w3.org/2000/svg" xmlns:xlink="http://www.w3.org/1999/xlink"
	 x="0px" y="0px" viewBox="0 0 1920 1080" overflow="visible" xml:space="preserve">
<g>
	<polyline fill="none" stroke="#84600F" stroke-width="6.097" stroke-linejoin="round" stroke-miterlimit="10" points="621,872.4 
		700.9,826.2 700.9,826.2 637.5,821.4 508.1,896.1 	"/>
	<polyline fill="none" stroke="#84600F" stroke-width="6.097" stroke-linejoin="round" stroke-miterlimit="10" points="484,826.2 
		613.3,751.6 613.3,751.6 637.5,821.4 508.1,896.1 	"/>
	<polyline fill="none" stroke="#84600F" stroke-width="6.097" stroke-linejoin="round" stroke-miterlimit="10" points="376.5,754.3 
		505.8,679.7 505.8,679.7 504.3,678.1 497.2,670.6 490.2,662.8 483.4,654.9 476.7,646.7 475.3,644.9 346,719.6 	"/>
	<polyline fill="none" stroke="#84600F" stroke-width="6.097" stroke-linejoin="round" stroke-miterlimit="10" points="370.6,813.1 
		499.9,738.4 499.9,738.4 505.8,679.7 376.5,754.3 	"/>
	<polyline fill="none" stroke="#84600F" stroke-width="6.097" stroke-linejoin="round" stroke-miterlimit="10" points="393.5,219 
		425.8,287.2 424.7,288.1 420,292.4 415.6,297.1 411.4,302.1 407.5,307.5 406.7,308.6 354.3,262.8 333.5,327 383.8,377.7 
		383.6,379.5 383.2,385.1 382.9,390.7 382.7,396.3 382.6,402 382.6,405 382.7,408 382.8,411.2 382.9,414.5 383,416.4 331.6,406.4 
		349.8,494 402.3,511.1 403.1,513.2 406.6,523.1 410.5,533 414.6,542.9 419,552.6 420,554.7 385.9,583.7 437.3,666.8 475.3,644.9 
		476.7,646.7 483.4,654.9 490.2,662.8 497.2,670.6 504.3,678.1 505.8,679.7 499.9,738.4 568.2,790.7 579.6,736.6 581.3,737.5 
		589,741.5 596.7,745.1 604.3,748.2 611.7,751 613.3,751.6 637.5,821.4 700.9,826.2 682.1,757.3 683.5,757 689.7,755.3 695.7,753.3 
		701.5,750.9 707.1,748.1 708.3,747.4 754.8,806.4 	"/>
	<polyline fill="none" stroke="#84600F" stroke-width="6.097" stroke-linejoin="round" stroke-miterlimit="10" points="648.2,287.2 
		622.5,326.7 620.9,325.3 613.5,319.1 606,313.2 	"/>
	<polyline fill="none" stroke="#84600F" stroke-width="6.097" stroke-linejoin="round" stroke-miterlimit="10" points="762.5,583.5 
		762.2,581.5 760.7,571.8 758.9,562.2 756.7,552.4 754.4,542.7 753.8,540.6 798.3,530.8 762,441.8 714.8,444.3 713.7,442.3 
		708.4,432.9 702.8,423.6 697,414.4 691.1,405.4 689.8,403.5 	"/>
	<polyline fill="none" stroke="#84600F" stroke-width="6.097" stroke-linejoin="round" stroke-miterlimit="10" points="767.7,725.2 
		750.4,700.2 751,698.8 753.7,692.2 756.2,685.3 758.4,678 760.3,670.5 760.7,668.9 814.8,698 	"/>
	<polyline fill="none" stroke="#84600F" stroke-width="6.097" stroke-linejoin="round" stroke-miterlimit="10" points="654,755.9 
		750.4,700.2 750.4,700.2 751,698.8 753.7,692.2 756.2,685.3 758.4,678 760.3,670.5 760.7,668.9 631.3,743.5 	"/>
	<polyline fill="none" stroke="#84600F" stroke-width="6.097" stroke-linejoin="round" stroke-miterlimit="10" points="579,822.1 
		708.3,747.4 708.3,747.4 754.8,806.3 	"/>
	<polyline fill="none" stroke="#84600F" stroke-width="6.097" stroke-linejoin="round" stroke-miterlimit="10" points="256.6,658.4 
		385.9,583.7 385.9,583.7 437.3,666.8 308,741.5 	"/>
	<polyline fill="none" stroke="#84600F" stroke-width="6.097" stroke-linejoin="round" stroke-miterlimit="10" points="290.6,629.4 
		420,554.7 420,554.7 385.9,583.7 256.6,658.4 	"/>
	<polyline fill="none" stroke="#84600F" stroke-width="6.097" stroke-linejoin="round" stroke-miterlimit="10" points="273,585.8 
		402.3,511.1 402.3,511.1 403.1,513.2 406.6,523.1 410.5,533 414.6,542.9 419,552.6 420,554.7 290.6,629.4 	"/>
	<polyline fill="none" stroke="#84600F" stroke-width="6.097" stroke-linejoin="round" stroke-miterlimit="10" points="220.5,568.6 
		349.8,494 349.8,494 402.3,511.1 273,585.8 	"/>
	<polyline fill="none" stroke="#84600F" stroke-width="6.097" stroke-linejoin="round" stroke-miterlimit="10" points="253.6,451.4 
		331.6,406.4 331.6,406.4 349.8,494 220.5,568.6 	"/>
	<polyline fill="none" stroke="#84600F" stroke-width="6.097" stroke-linejoin="round" stroke-miterlimit="10" points="254.5,452.4 
		383.8,377.7 383.8,377.7 383.6,379.5 383.2,385.1 382.9,390.7 382.7,396.3 382.6,402 382.6,405 382.7,408 382.8,411.2 382.9,414.5 
		383,416.4 253.7,491.1 	"/>
	<polyline fill="none" stroke="#84600F" stroke-width="6.097" stroke-linejoin="round" stroke-miterlimit="10" points="204.2,401.7 
		333.5,327 333.5,327 383.8,377.7 254.5,452.4 	"/>
	<polyline fill="none" stroke="#84600F" stroke-width="6.097" stroke-linejoin="round" stroke-miterlimit="10" points="296.4,361.9 
		425.7,287.2 425.7,287.2 424.7,288.1 420,292.4 415.6,297.1 411.4,302.1 407.5,307.5 406.7,308.6 277.4,383.3 	"/>
	<path fill="none" stroke="#84600F" stroke-width="6.097" stroke-linejoin="round" stroke-miterlimit="10" d="M384.3,322.8"/>
	<path fill="none" stroke="#84600F" stroke-width="6.097" stroke-linejoin="round" stroke-miterlimit="10" d="M589,301"/>
	<polyline fill="none" stroke="#84600F" stroke-width="6.097" stroke-linejoin="round" stroke-miterlimit="10" points="385.4,342.9 
		514.7,268.2 514.7,268.2 514.7,268.2 510.9,204.1 	"/>
	<polyline fill="none" stroke="#84600F" stroke-width="6.097" stroke-linejoin="round" stroke-miterlimit="10" points="493.2,401.4 
		622.5,326.7 622.5,326.7 620.9,325.3 613.5,319.1 606,313.2 	"/>
	<polyline fill="none" stroke="#84600F" stroke-width="6.097" stroke-linejoin="round" stroke-miterlimit="10" points="648.2,287.2 
		648.2,287.2 622.5,326.7 493.2,401.4 	"/>
	<polyline fill="none" stroke="#84600F" stroke-width="6.097" stroke-linejoin="round" stroke-miterlimit="10" points="624.5,615.3 
		753.8,540.6 753.8,540.6 798.3,530.8 	"/>
	<polygon fill="none" stroke="#84600F" stroke-width="6.097" stroke-linejoin="round" stroke-miterlimit="10" points="642.5,548.7 
		642.5,550.6 642.4,552.4 642.3,554.2 642.2,556 642,557.7 641.8,559.4 641.5,561 641.2,562.6 640.9,564.2 640.5,565.7 640.1,567.2 
		639.7,568.7 639.2,570.1 638.7,571.5 638.1,572.8 637.5,574.1 636.9,575.4 636.3,576.6 635.6,577.8 634.9,579 634.1,580.1 
		633.4,581.1 632.6,582.2 631.7,583.1 630.9,584.1 630,585 629,585.8 628.1,586.6 627.1,587.4 626.1,588.1 625.1,588.8 624,589.5 
		622.9,590.1 621.8,590.6 620.7,591.1 619.5,591.6 618.4,592 617.2,592.4 615.9,592.7 614.7,593 613.4,593.2 612.1,593.4 
		610.8,593.5 609.5,593.6 608.2,593.7 606.8,593.6 605.4,593.6 604,593.5 602.6,593.3 601.1,593.2 599.7,592.9 598.2,592.6 
		596.7,592.3 595.2,591.9 593.7,591.4 592.2,590.9 590.6,590.4 589.1,589.8 587.5,589.1 585.9,588.4 584.4,587.7 582.7,586.9 
		581.1,586 579.5,585.1 577.9,584.1 576.3,583.1 574.7,582.1 573.1,581 571.5,579.9 569.9,578.7 568.4,577.5 566.8,576.3 565.3,575 
		563.8,573.7 562.3,572.4 560.8,571 559.3,569.6 557.9,568.2 556.4,566.7 555,565.2 553.6,563.7 552.2,562.2 550.9,560.6 549.5,559 
		548.2,557.3 546.9,555.7 545.6,554 544.3,552.3 543.1,550.6 541.9,548.9 540.7,547.1 539.5,545.3 538.3,543.5 537.2,541.7 
		536.1,539.9 535,538.1 533.9,536.2 532.9,534.3 531.9,532.4 530.9,530.5 530,528.6 529.1,526.7 528.2,524.8 527.3,522.9 
		526.5,520.9 525.7,519 524.9,517 524.1,515 523.4,513.1 522.8,511.1 522.1,509.1 521.5,507.1 520.9,505.2 520.4,503.2 519.8,501.2 
		519.4,499.2 518.9,497.3 518.5,495.3 518.1,493.3 517.8,491.4 517.5,489.4 517.3,487.5 517,485.5 516.9,483.6 516.7,481.7 
		516.6,479.8 516.6,477.9 516.5,476 516.6,474.1 516.6,472.3 516.7,470.5 516.9,468.8 517,467 517.3,465.4 517.5,463.7 517.8,462.1 
		518.1,460.5 518.5,459 518.9,457.5 519.4,456 519.8,454.6 520.4,453.2 520.9,451.9 521.5,450.6 522.1,449.3 522.8,448.1 
		523.4,446.9 524.1,445.8 524.9,444.7 525.7,443.6 526.5,442.6 527.3,441.6 528.2,440.7 529.1,439.8 530,438.9 530.9,438.1 
		531.9,437.3 532.9,436.6 533.9,435.9 535,435.3 536.1,434.7 537.2,434.1 538.3,433.6 539.5,433.2 540.7,432.7 541.9,432.4 
		543.1,432 544.3,431.8 545.6,431.5 546.9,431.3 548.2,431.2 549.5,431.1 550.9,431.1 552.2,431.1 553.6,431.1 555,431.2 
		556.4,431.4 557.9,431.6 559.3,431.8 560.8,432.1 562.3,432.5 563.8,432.9 565.3,433.3 566.8,433.8 568.4,434.4 569.9,434.9 
		571.5,435.6 573.1,436.3 574.7,437.1 576.3,437.9 577.9,438.7 579.5,439.6 581.1,440.6 582.7,441.6 584.4,442.6 585.9,443.7 
		587.5,444.9 589.1,446 590.6,447.2 592.2,448.4 593.7,449.7 595.2,451 596.7,452.3 598.2,453.7 599.7,455.1 601.1,456.5 602.6,458 
		604,459.5 605.4,461 606.8,462.6 608.2,464.1 609.5,465.7 610.8,467.4 612.1,469 613.4,470.7 614.7,472.4 615.9,474.1 617.2,475.8 
		618.4,477.6 619.5,479.4 620.7,481.2 621.8,483 622.9,484.8 624,486.7 625.1,488.5 626.1,490.4 627.1,492.3 628.1,494.2 629,496.1 
		630,498 630.9,499.9 631.7,501.9 632.6,503.8 633.4,505.8 634.1,507.7 634.9,509.7 635.6,511.7 636.3,513.6 636.9,515.6 
		637.5,517.6 638.1,519.6 638.7,521.5 639.2,523.5 639.7,525.5 640.1,527.5 640.5,529.4 640.9,531.4 641.2,533.3 641.5,535.3 
		641.8,537.2 642,539.2 642.2,541.1 642.3,543 642.4,544.9 642.5,546.8 642.5,548.7 	"/>
	<polyline fill="none" stroke="#84600F" stroke-width="6.097" stroke-linejoin="round" stroke-miterlimit="10" points="271.8,309.8 
		354.3,262.8 354.3,262.8 333.5,327 204.2,401.7 	"/>
	
		<line fill="none" stroke="#84600F" stroke-width="6.097" stroke-linejoin="round" stroke-miterlimit="10" x1="533.9" y1="435.9" x2="402.5" y2="509"/>
	
		<line fill="none" stroke="#84600F" stroke-width="6.097" stroke-linejoin="round" stroke-miterlimit="10" x1="623.6" y1="589.5" x2="492.1" y2="662.6"/>
</g>
<line fill="none" stroke="#84600F" stroke-width="6.097" stroke-linejoin="round" stroke-miterlimit="10" x1="450.5" y1="811.5" x2="579.6" y2="736.6"/>
<polyline fill="none" stroke="#84600F" stroke-width="6.097" stroke-linejoin="round" stroke-miterlimit="10" points="406.7,308.6 
	483.5,265.6 483.5,265.6 464.5,230.9 "/>
</svg>
