<?xml version="1.0" encoding="utf-8"?>
<!-- Generator: Adobe Illustrator 26.0.1, SVG Export Plug-In . SVG Version: 6.00 Build 0)  -->
<svg version="1.1" baseProfile="tiny" id="Layer_1" xmlns="http://www.w3.org/2000/svg" xmlns:xlink="http://www.w3.org/1999/xlink"
	 x="0px" y="0px" viewBox="0 0 1920 1080" overflow="visible" xml:space="preserve">
<polyline fill="none" stroke="#F1B30A" stroke-width="6.097" stroke-linejoin="round" stroke-miterlimit="10" points="450.3,308.6 
	579.6,233.9 579.6,233.9 511,204.1 381.7,278.8 "/>
<polyline fill="none" stroke="#F1B30A" stroke-width="6.097" stroke-linejoin="round" stroke-miterlimit="10" points="459.8,375.6 
	589.2,301 589.2,301 579.6,233.9 450.3,308.6 "/>
<line fill="none" stroke="#F1B30A" stroke-width="6.097" stroke-linejoin="round" stroke-miterlimit="10" x1="618.7" y1="873.8" x2="571.7" y2="900.9"/>
<path fill="none" stroke="#F1B30A" stroke-width="6.097" stroke-linejoin="round" stroke-miterlimit="10" d="M500,738.4"/>
<polyline fill="none" stroke="#F1B30A" stroke-width="6.097" stroke-linejoin="round" stroke-miterlimit="10" points="488.9,836.5 
	439,865.4 370.7,813.1 "/>
<path fill="none" stroke="#F1B30A" stroke-width="6.097" stroke-linejoin="round" stroke-miterlimit="10" d="M383.1,416.4"/>
<line fill="none" stroke="#F1B30A" stroke-width="6.097" stroke-linejoin="round" stroke-miterlimit="10" x1="254.3" y1="451.1" x2="202.4" y2="481.1"/>
<line fill="none" stroke="#F1B30A" stroke-width="6.097" stroke-linejoin="round" stroke-miterlimit="10" x1="273" y1="309.8" x2="225" y2="337.5"/>
<polyline fill="none" stroke="#F1B30A" stroke-width="6.097" stroke-linejoin="round" stroke-miterlimit="10" points="317.5,273.1 
	446.8,198.5 446.8,198.5 393.7,219 264.3,293.6 "/>
<line fill="none" stroke="#F1B30A" stroke-width="6.097" stroke-linejoin="round" stroke-miterlimit="10" x1="354.3" y1="340.2" x2="383.5" y2="323.4"/>
<line fill="none" stroke="#F1B30A" stroke-width="6.097" stroke-linejoin="round" stroke-miterlimit="10" x1="465.2" y1="232" x2="446.8" y2="198.5"/>
<polyline fill="none" stroke="#F1B30A" stroke-width="6.097" stroke-linejoin="round" stroke-miterlimit="10" points="381.7,278.8 
	511,204.1 511,204.1 "/>
<polyline fill="none" stroke="#F1B30A" stroke-width="6.097" stroke-linejoin="round" stroke-miterlimit="10" points="606.1,313.2 
	598.4,307.5 590.7,302.1 589.1,301 459.8,375.6 "/>
<line fill="none" stroke="#F1B30A" stroke-width="6.097" stroke-linejoin="round" stroke-miterlimit="10" x1="621.3" y1="775.1" x2="653.5" y2="756.4"/>
<polyline fill="none" stroke="#F1B30A" stroke-width="6.097" stroke-linejoin="round" stroke-miterlimit="10" points="767.3,724.4 
	793.5,762.2 664.3,837.1 "/>
<polyline fill="none" stroke="#F1B30A" stroke-width="6.097" stroke-linejoin="round" stroke-miterlimit="10" points="581.4,432.4 
	710.7,357.8 710.7,357.8 648.4,287.2 519,361.9 "/>
<polyline fill="none" stroke="#F1B30A" stroke-width="6.097" stroke-linejoin="round" stroke-miterlimit="10" points="560.6,478.1 
	689.9,403.5 689.9,403.5 710.7,357.8 "/>
<polyline fill="none" stroke="#F1B30A" stroke-width="6.097" stroke-linejoin="round" stroke-miterlimit="10" points="585.6,519 
	715,444.3 715,444.3 713.8,442.3 708.5,432.8 702.9,423.5 697.2,414.4 691.2,405.4 689.9,403.5 560.6,478.1 "/>
<polyline fill="none" stroke="#F1B30A" stroke-width="6.097" stroke-linejoin="round" stroke-miterlimit="10" points="632.9,516.5 
	762.2,441.8 762.2,441.8 715,444.3 585.7,519 "/>
<polyline fill="none" stroke="#F1B30A" stroke-width="6.097" stroke-linejoin="round" stroke-miterlimit="10" points="634.5,658.2 
	763.8,583.5 763.8,583.5 763.5,581.5 762,571.8 760.2,562.2 758.1,552.4 "/>
<polyline fill="none" stroke="#F1B30A" stroke-width="6.097" stroke-linejoin="round" stroke-miterlimit="10" points="686.9,693.6 
	816.2,618.9 816.2,618.9 762.6,583.5 "/>
<polyline fill="none" stroke="#F1B30A" stroke-width="6.097" stroke-linejoin="round" stroke-miterlimit="10" points="685.6,772.7 
	814.9,698 814.9,698 816.2,618.9 686.9,693.6 "/>
<polyline fill="none" stroke="#F1B30A" stroke-width="6.097" stroke-linejoin="round" stroke-miterlimit="10" points="669.1,605.4 
	798.4,530.8 798.4,530.8 762.2,441.8 632.8,516.5 "/>
<polygon fill="none" stroke="#F1B30A" stroke-width="6.097" stroke-linejoin="round" stroke-miterlimit="10" points="687,693.8 
	633.4,658.4 633.1,656.3 631.6,646.7 629.8,637 627.7,627.3 625.3,617.6 624.7,615.5 669.2,605.6 632.9,516.7 585.8,519.2 
	584.6,517.1 579.3,507.7 573.7,498.4 568,489.2 562,480.2 560.7,478.3 581.5,432.6 519.2,362.1 493.4,401.6 491.8,400.2 484.4,394 
	476.9,388 469.3,382.3 461.6,376.9 460,375.8 450.4,308.7 381.8,279 385.6,343 384,342.7 376.8,341.5 369.7,340.8 362.7,340.4 
	355.9,340.4 354.4,340.4 317.6,273.3 264.5,293.8 296.7,362.1 295.6,363 291,367.3 286.5,371.9 282.4,377 278.4,382.3 277.6,383.5 
	225.2,337.6 204.4,401.9 254.7,452.6 254.6,454.4 254.1,459.9 253.8,465.5 253.6,471.2 253.5,476.9 253.5,479.8 253.6,482.9 
	253.7,486 253.8,489.3 253.9,491.3 202.5,481.2 220.8,568.8 273.2,585.9 274,588.1 277.6,598 281.4,607.9 285.6,617.7 289.9,627.5 
	290.9,629.6 256.8,658.5 308.2,741.7 346.2,719.7 347.7,721.6 354.3,729.7 361.1,737.7 368.1,745.4 375.2,752.9 376.7,754.5 
	370.8,813.3 439.1,865.5 450.5,811.5 452.2,812.4 459.9,816.3 467.6,819.9 475.2,823.1 482.6,825.8 484.3,826.4 508.4,896.3 
	571.8,901.1 553.1,832.1 554.4,831.8 560.6,830.2 566.6,828.1 572.4,825.7 578,822.9 579.2,822.3 625.8,881.2 664.3,837.1 
	621.3,775.1 621.9,773.7 624.7,767.1 627.1,760.1 629.3,752.9 631.2,745.4 631.6,743.7 685.7,772.9 687,693.8 "/>
<polygon fill="none" stroke="#F1B30A" stroke-width="6.097" stroke-linejoin="round" stroke-miterlimit="10" points="507.8,623.6 
	507.7,625.4 507.7,627.3 507.6,629.1 507.4,630.8 507.3,632.5 507,634.2 506.8,635.9 506.5,637.5 506.1,639 505.8,640.6 
	505.4,642.1 504.9,643.5 504.4,645 503.9,646.3 503.4,647.7 502.8,649 502.2,650.3 501.5,651.5 500.9,652.7 500.1,653.8 
	499.4,654.9 498.6,656 497.8,657 497,658 496.1,658.9 495.2,659.8 494.3,660.7 493.4,661.5 492.4,662.3 491.4,663 490.3,663.7 
	489.3,664.3 488.2,664.9 487.1,665.5 486,666 484.8,666.4 483.6,666.8 482.4,667.2 481.2,667.5 480,667.8 478.7,668 477.4,668.2 
	476.1,668.4 474.8,668.5 473.4,668.5 472.1,668.5 470.7,668.4 469.3,668.3 467.8,668.2 466.4,668 465,667.8 463.5,667.5 462,667.1 
	460.5,666.7 459,666.3 457.5,665.8 455.9,665.2 454.4,664.6 452.8,664 451.2,663.3 449.6,662.5 448,661.7 446.4,660.8 444.8,659.9 
	443.2,659 441.5,658 439.9,656.9 438.3,655.8 436.8,654.7 435.2,653.6 433.6,652.4 432.1,651.1 430.6,649.9 429.1,648.6 
	427.6,647.2 426.1,645.9 424.6,644.5 423.1,643 421.7,641.6 420.3,640.1 418.9,638.5 417.5,637 416.1,635.4 414.8,633.8 
	413.5,632.2 412.1,630.6 410.9,628.9 409.6,627.2 408.3,625.5 407.1,623.7 405.9,622 404.7,620.2 403.6,618.4 402.5,616.6 
	401.4,614.8 400.3,612.9 399.2,611.1 398.2,609.2 397.2,607.3 396.2,605.4 395.3,603.5 394.3,601.6 393.4,599.6 392.6,597.7 
	391.7,595.8 390.9,593.8 390.2,591.8 389.4,589.9 388.7,587.9 388,585.9 387.4,584 386.8,582 386.2,580 385.6,578 385.1,576.1 
	384.6,574.1 384.2,572.1 383.8,570.2 383.4,568.2 383.1,566.2 382.8,564.3 382.5,562.3 382.3,560.4 382.1,558.5 382,556.5 
	381.9,554.6 381.8,552.7 381.8,550.9 381.8,549 381.9,547.2 382,545.4 382.1,543.6 382.3,541.9 382.5,540.2 382.8,538.6 383.1,537 
	383.4,535.4 383.8,533.8 384.2,532.3 384.6,530.9 385.1,529.5 385.6,528.1 386.2,526.7 386.8,525.4 387.4,524.2 388,522.9 
	388.7,521.8 389.4,520.6 390.2,519.5 390.9,518.4 391.7,517.4 392.6,516.4 393.4,515.5 394.3,514.6 395.3,513.7 396.2,512.9 
	397.2,512.2 398.2,511.4 399.2,510.8 400.3,510.1 401.4,509.5 402.5,509 403.6,508.5 404.7,508 405.9,507.6 407.1,507.2 
	408.3,506.9 409.6,506.6 410.9,506.4 412.1,506.2 413.5,506.1 414.8,506 416.1,505.9 417.5,505.9 418.9,506 420.3,506.1 
	421.7,506.2 423.1,506.4 424.6,506.7 426.1,507 427.6,507.3 429.1,507.7 430.6,508.2 432.1,508.7 433.6,509.2 435.2,509.8 
	436.8,510.5 438.3,511.2 439.9,511.9 441.5,512.7 443.2,513.6 444.8,514.5 446.4,515.5 448,516.5 449.6,517.5 451.2,518.6 
	452.8,519.7 454.4,520.9 455.9,522.1 457.5,523.3 459,524.6 460.5,525.9 462,527.2 463.5,528.6 465,530 466.4,531.4 467.8,532.9 
	469.3,534.4 470.7,535.9 472.1,537.4 473.4,539 474.8,540.6 476.1,542.2 477.4,543.9 478.7,545.5 480,547.2 481.2,549 482.4,550.7 
	483.6,552.5 484.8,554.2 486,556 487.1,557.8 488.2,559.7 489.3,561.5 490.3,563.4 491.4,565.2 492.4,567.1 493.4,569 494.3,570.9 
	495.2,572.9 496.1,574.8 497,576.7 497.8,578.7 498.6,580.6 499.4,582.6 500.1,584.5 500.9,586.5 501.5,588.5 502.2,590.5 
	502.8,592.4 503.4,594.4 503.9,596.4 504.4,598.4 504.9,600.3 505.4,602.3 505.8,604.3 506.1,606.2 506.5,608.2 506.8,610.1 
	507,612.1 507.3,614 507.4,616 507.6,617.9 507.7,619.8 507.7,621.7 507.8,623.6 "/>
<polyline fill="none" stroke="#F1B30A" stroke-width="6.097" stroke-linejoin="round" stroke-miterlimit="10" points="664.3,837.1 
	793.5,762.2 755,806.3 625.8,881.2 "/>
<path fill="none" stroke="#F1B30A" stroke-width="6.097" stroke-linejoin="round" stroke-miterlimit="10" d="M384.4,323.1"/>
</svg>
