<?xml version="1.0" encoding="utf-8"?>
<!-- Generator: Adobe Illustrator 27.3.1, SVG Export Plug-In . SVG Version: 6.00 Build 0)  -->
<svg version="1.1" baseProfile="tiny" id="GREEBLKES"
	 xmlns="http://www.w3.org/2000/svg" xmlns:xlink="http://www.w3.org/1999/xlink" x="0px" y="0px" viewBox="0 0 1920 1080"
	 overflow="visible" xml:space="preserve">
<g>
	<path id="Path_123" fill="none" stroke="#463814" stroke-width="3" stroke-linecap="round" stroke-miterlimit="10" d="
		M1875.5,957.4c0,17.9-14.5,32.4-32.4,32.4L50,989.6"/>
	<path id="Path_124" fill="none" stroke="#463814" stroke-width="3" stroke-linecap="round" stroke-miterlimit="10" d="M75.7,45
		h651.9c18.5,0,36.4,6.3,50.8,17.9c11.9,9.5,26.6,14.8,41.9,14.8h278.3c15.2,0,30-5.2,41.9-14.8c14.4-11.6,32.3-17.9,50.8-17.9
		h670.1c7.8,0,14.2,6.4,14.2,14.2"/>
	<path id="Path_127" fill="#241E19" d="M1144.9,68.4L1144.9,68.4c-13.1,10.6-29.5,16.3-46.3,16.3H820.2c-16.8,0-33.2-5.8-46.3-16.3
		c-13.1-10.6-29.5-16.3-46.3-16.3H75.7c-14,0-25.3,11.3-25.3,25.3L51,982.7H1843c14,0,25.3-11.3,25.3-25.3V59.2
		c0-3.9-3.2-7.1-7.1-7.1h-670.1C1174.3,52.1,1158,57.9,1144.9,68.4"/>
</g>
</svg>
