<?xml version="1.0" encoding="utf-8"?>
<!-- Generator: Adobe Illustrator 25.4.1, SVG Export Plug-In . SVG Version: 6.00 Build 0)  -->
<svg version="1.1" id="GREEBLKES" xmlns="http://www.w3.org/2000/svg" xmlns:xlink="http://www.w3.org/1999/xlink" x="0px" y="0px"
	 viewBox="0 0 1920 1080" style="enable-background:new 0 0 1920 1080;" xml:space="preserve">
<style type="text/css">
	.st0{fill:#CE3838;}
</style>
<g>
	<g>
		<path class="st0" d="M1135.2,110.9H784.8c-11.9,0-23.3-5.1-31.3-13.9l-5.1-5.6c-7.8-8.6-19-13.5-30.6-13.5H55.4
			c-9.1,0-16.6,7.4-16.6,16.6h-1c0-9.7,7.9-17.6,17.6-17.6h662.4c11.9,0,23.3,5.1,31.3,13.9l5.1,5.6c7.8,8.6,19,13.5,30.6,13.5
			h350.4c11.6,0,22.8-4.9,30.6-13.5l5.1-5.6c8-8.8,19.4-13.9,31.3-13.9h662.4c9.7,0,17.6,7.9,17.6,17.6h-1c0-9.1-7.4-16.6-16.6-16.6
			h-662.4c-11.6,0-22.8,4.9-30.6,13.5l-5.1,5.6C1158.5,105.8,1147.1,110.9,1135.2,110.9z"/>
	</g>
	<g>
		<path class="st0" d="M1849.8,986H70.2c-17.8,0-32.3-14.5-32.3-32.3h1c0,17.3,14.1,31.3,31.3,31.3h1779.7
			c17.3,0,31.3-14.1,31.3-31.3h1C1882.2,971.5,1867.7,986,1849.8,986z"/>
	</g>
</g>
</svg>
