<?xml version="1.0" encoding="utf-8"?>
<!-- Generator: Adobe Illustrator 29.2.0, SVG Export Plug-In . SVG Version: 9.03 Build 55982)  -->
<svg version="1.1" baseProfile="tiny" id="Layer_1" xmlns="http://www.w3.org/2000/svg" xmlns:xlink="http://www.w3.org/1999/xlink"
	 x="0px" y="0px" viewBox="0 0 379 38" overflow="visible" xml:space="preserve">
<rect id="_x3C_Rectangle_x3E__opacity:20_00000065774275734768581800000014968643961674019231_" x="4" fill="#F3C43E" width="375" height="38"/>
<rect id="_x3C_Path_x3E__opacity:70" fill="#ED1F25" width="2" height="38"/>
<g id="_x3C_Group_x3E__opacity:30_00000106843069629951125160000010137469465713062825_">
	<polygon fill="#F3C43E" points="15.9,1.3 14.9,1.3 14.9,1.7 15.5,1.7 15.5,2.5 14.1,2.5 14.1,0.5 16.7,0.5 16.7,1.7 18.6,1.7 
		18.6,1 378,1 378,23.4 377.3,23.4 377.3,25.3 378.5,25.3 378.5,27.9 376.5,27.9 376.5,26.5 377.3,26.5 377.3,27.1 377.7,27.1 
		377.7,26.1 376,26.1 376,28.3 379,28.3 379,24.8 377.8,24.8 377.8,23.9 379,23.9 379,0 379,0 18.1,0 18.1,1.2 17.2,1.2 17.2,0 
		13.7,0 13.7,3 15.9,3 	"/>
	<path fill="#F3C43E" d="M8.4,4.8H5.3v2.6H7V6H6.6v1H5.8V5.2h2.2v3H4.5V1.7h0.8v2h2.5l0-2.5h-2V0.5h6.5v3.5h-3V1.8H11v0.8h-1V3h1.4
		V1.3H8.8v3.1h3.9V0H5.3l0,1.3H4v7.4h4.4V4.8z M5.7,1.7h1.6l0,1.6H5.7V1.7z"/>
	<polygon fill="#F3C43E" points="367.1,36.7 368.1,36.7 368.1,36.3 367.5,36.3 367.5,35.5 368.9,35.5 368.9,37.5 366.3,37.5 
		366.3,36.3 364.4,36.3 364.4,37 5,37 5,14.6 5.7,14.6 5.7,12.7 4.5,12.7 4.5,10.1 6.5,10.1 6.5,11.5 5.7,11.5 5.7,10.9 5.3,10.9 
		5.3,11.9 7,11.9 7,9.7 4,9.7 4,13.2 5.2,13.2 5.2,14.1 4,14.1 4,38 364.9,38 364.9,36.8 365.8,36.8 365.8,38 369.3,38 369.3,35 
		367.1,35 	"/>
	<path fill="#F3C43E" d="M374.6,33.2h3.1v-2.6H376V32h0.5v-1h0.8v1.7h-2.2v-3h3.5v6.5h-0.8v-2h-2.5l0,2.5h2v0.8h-6.5v-3.5h3v2.2H372
		v-0.8h1V35h-1.4v1.7h2.6v-3.1h-3.9V38h7.4l0-1.3h1.3v-7.4h-4.4V33.2z M377.3,36.3h-1.6l0-1.6h1.6V36.3z"/>
</g>
</svg>
