<?xml version="1.0" encoding="utf-8"?>
<!-- Generator: Adobe Illustrator 29.2.0, SVG Export Plug-In . SVG Version: 9.03 Build 55982)  -->
<svg version="1.1" baseProfile="tiny" id="Layer_1" xmlns="http://www.w3.org/2000/svg" xmlns:xlink="http://www.w3.org/1999/xlink"
	 x="0px" y="0px" viewBox="0 0 379 155.5" overflow="visible" xml:space="preserve">
<rect id="_x3C_Path_x3E__opacity:70_00000139275361675325964380000011852315350965698971_" y="0" fill="#ED1F25" width="2" height="155.5"/>
<g id="_x3C_Group_x3E__opacity:30_00000044861710539745611780000015156830015953490101_">
	<polygon fill="#F3C43E" points="378,0 378,0 17.6,0 17.6,1.2 16.7,1.2 16.7,0 13.2,0 13.2,3 15.4,3 15.4,1.3 14.4,1.3 14.4,1.7 
		15,1.7 15,2.5 13.6,2.5 13.6,0.5 16.2,0.5 16.2,1.7 18.1,1.7 18.1,1 378,1 378,24.7 374.5,26.2 374.5,126.8 378,128.3 378,129.1 
		378,129.1 378,140.9 377.3,140.9 377.3,142.8 378.5,142.8 378.5,145.4 376.5,145.4 376.5,144 377.3,144 377.3,144.6 377.7,144.6 
		377.7,143.6 376,143.6 376,145.8 379,145.8 379,142.3 377.8,142.3 377.8,141.4 379,141.4 379,135.8 379,135.8 379,127.7 
		375.5,126.2 375.5,26.8 379,25.3 379,1 379,0 379,0 	"/>
	<path fill="#F3C43E" d="M7.9,4.8H4.8v2.6h1.7V6H6.1v1H5.3V5.2h2.2v3H4V1.7h0.8v2h2.5l0-2.5h-2V0.5h6.5v3.5h-3V1.8h1.7v0.8h-1V3h1.4
		V1.3H8.3v3.1h3.9V0H4.8l0,1.3H3.5v7.4h4.4V4.8z M5.2,1.7h1.6l0,1.6H5.2L5.2,1.7z"/>
	<polygon fill="#F3C43E" points="367.1,154.2 368.1,154.2 368.1,153.8 367.5,153.8 367.5,153 368.9,153 368.9,155 366.3,155 
		366.3,153.8 364.4,153.8 364.4,154.5 4.5,154.5 4.5,14.6 5.2,14.6 5.2,12.7 4,12.7 4,10.1 6,10.1 6,11.5 5.2,11.5 5.2,10.9 
		4.8,10.9 4.8,11.9 6.5,11.9 6.5,9.7 3.5,9.7 3.5,13.2 4.7,13.2 4.7,14.1 3.5,14.1 3.5,154.5 3.5,154.5 3.5,155.5 3.5,155.5 
		3.5,155.5 4.5,155.5 4.5,155.5 364.9,155.5 364.9,154.3 365.8,154.3 365.8,155.5 369.3,155.5 369.3,152.5 367.1,152.5 	"/>
	<path fill="#F3C43E" d="M374.6,150.7h3.1v-2.6H376v1.4h0.5v-1h0.8v1.7h-2.2v-3h3.5v6.5h-0.8v-2h-2.5l0,2.5h2v0.8h-6.5v-3.5h3v2.2
		H372v-0.8h1v-0.5h-1.4v1.7h2.6v-3.1h-3.9v4.4h7.4l0-1.3h1.3v-7.4h-4.4V150.7z M377.3,153.8h-1.6l0-1.6h1.6L377.3,153.8z"/>
</g>
<g id="_x3C_Group_x3E__opacity:50_00000136385431036208519980000014394852804620981144_">
	<polygon fill="#F3C43E" points="364.8,34.8 364.8,29.3 360.2,29.3 360.2,32.7 362.9,32.7 362.9,31.2 362.2,31.2 362.2,32 360.9,32 
		360.9,30 364.1,30 364.1,34 362.2,34 362.2,36.9 364.1,36.9 364.1,44 362.2,44 362.2,46.8 364.1,46.8 364.1,50.8 360.9,50.8 
		360.9,48.8 362.2,48.8 362.2,49.6 362.9,49.6 362.9,48.1 360.2,48.1 360.2,51.5 364.8,51.5 364.8,46.1 362.9,46.1 362.9,44.7 
		364.8,44.7 364.8,36.1 362.9,36.1 362.9,34.8 	"/>
	<polygon fill="#F3C43E" points="360.2,59 362.1,59 362.1,60.4 360.2,60.4 360.2,68.9 362.1,68.9 362.1,70.3 360.2,70.3 360.2,75.8 
		364.8,75.8 364.8,72.3 362.1,72.3 362.1,73.9 362.8,73.9 362.8,73.1 364.1,73.1 364.1,75.1 360.9,75.1 360.9,71 362.8,71 
		362.8,68.2 360.9,68.2 360.9,61.1 362.8,61.1 362.8,58.3 360.9,58.3 360.9,54.3 364.1,54.3 364.1,56.3 362.8,56.3 362.8,55.4 
		362.1,55.4 362.1,57 364.8,57 364.8,53.5 360.2,53.5 	"/>
	<polygon fill="#F3C43E" points="360.2,81.3 362.9,81.3 362.9,79.7 362.2,79.7 362.2,80.6 360.9,80.6 360.9,78.5 364.1,78.5 
		364.1,82.6 362.2,82.6 362.2,85.4 364.1,85.4 364.1,92.5 362.2,92.5 362.2,95.3 364.1,95.3 364.1,99.4 360.9,99.4 360.9,97.3 
		362.2,97.3 362.2,98.2 362.9,98.2 362.9,96.6 360.2,96.6 360.2,100.1 364.8,100.1 364.8,94.6 362.9,94.6 362.9,93.2 364.8,93.2 
		364.8,84.7 362.9,84.7 362.9,83.3 364.8,83.3 364.8,77.8 360.2,77.8 	"/>
	<polygon fill="#F3C43E" points="360.2,107.6 362.1,107.6 362.1,109 360.2,109 360.2,117.5 362.1,117.5 362.1,118.9 360.2,118.9 
		360.2,124.4 364.8,124.4 364.8,120.9 362.1,120.9 362.1,122.4 362.8,122.4 362.8,121.6 364.1,121.6 364.1,123.6 360.9,123.6 
		360.9,119.6 362.8,119.6 362.8,116.8 360.9,116.8 360.9,109.7 362.8,109.7 362.8,106.8 360.9,106.8 360.9,102.8 364.1,102.8 
		364.1,104.8 362.8,104.8 362.8,104 362.1,104 362.1,105.5 364.8,105.5 364.8,102.1 360.2,102.1 	"/>
</g>
</svg>
