<?xml version="1.0" encoding="utf-8"?>
<!-- Generator: Adobe Illustrator 29.2.0, SVG Export Plug-In . SVG Version: 9.03 Build 55982)  -->
<svg version="1.1" baseProfile="tiny" id="Layer_1" xmlns="http://www.w3.org/2000/svg" xmlns:xlink="http://www.w3.org/1999/xlink"
	 x="0px" y="0px" viewBox="0 0 580.5 6.3" overflow="visible" xml:space="preserve">
<g>
	<polygon fill="#F3C43E" points="22.3,5.4 18.8,5.4 18.8,2.8 20.4,2.8 20.4,3.5 19.5,3.5 19.5,4.7 21.6,4.7 21.6,1.5 17.5,1.5 
		17.5,3.5 14.7,3.5 14.7,1.5 7.6,1.5 7.6,3.5 4.8,3.5 4.8,1.5 0.7,1.5 0.7,4.7 2.8,4.7 2.8,3.5 1.9,3.5 1.9,2.8 3.5,2.8 3.5,5.4 
		0,5.4 0,0.8 5.5,0.8 5.5,2.8 6.9,2.8 6.9,0.8 15.4,0.8 15.4,2.8 16.8,2.8 16.8,0.8 22.3,0.8 	"/>
	<polygon fill="#F3C43E" points="46.5,0.8 43.1,0.8 43.1,3.5 44.6,3.5 44.6,2.8 43.8,2.8 43.8,1.5 45.8,1.5 45.8,4.7 41.8,4.7 
		41.8,2.8 39,2.8 39,4.7 31.8,4.7 31.8,2.8 29,2.8 29,4.7 25,4.7 25,1.5 27,1.5 27,2.8 26.2,2.8 26.2,3.5 27.7,3.5 27.7,0.8 
		24.3,0.8 24.3,5.4 29.7,5.4 29.7,3.5 31.1,3.5 31.1,5.4 39.7,5.4 39.7,3.5 41.1,3.5 41.1,5.4 46.5,5.4 	"/>
	<polygon fill="#F3C43E" points="70.8,5.4 67.3,5.4 67.3,2.8 68.9,2.8 68.9,3.5 68.1,3.5 68.1,4.7 70.1,4.7 70.1,1.5 66,1.5 66,3.5 
		63.2,3.5 63.2,1.5 56.1,1.5 56.1,3.5 53.3,3.5 53.3,1.5 49.2,1.5 49.2,4.7 51.3,4.7 51.3,3.5 50.4,3.5 50.4,2.8 52,2.8 52,5.4 
		48.5,5.4 48.5,0.8 54,0.8 54,2.8 55.4,2.8 55.4,0.8 63.9,0.8 63.9,2.8 65.3,2.8 65.3,0.8 70.8,0.8 	"/>
	<polygon fill="#F3C43E" points="95.1,0.8 91.6,0.8 91.6,3.5 93.2,3.5 93.2,2.8 92.3,2.8 92.3,1.5 94.4,1.5 94.4,4.7 90.3,4.7 
		90.3,2.8 87.5,2.8 87.5,4.7 80.4,4.7 80.4,2.8 77.6,2.8 77.6,4.7 73.5,4.7 73.5,1.5 75.6,1.5 75.6,2.8 74.7,2.8 74.7,3.5 76.3,3.5 
		76.3,0.8 72.8,0.8 72.8,5.4 78.3,5.4 78.3,3.5 79.7,3.5 79.7,5.4 88.2,5.4 88.2,3.5 89.6,3.5 89.6,5.4 95.1,5.4 	"/>
	<polygon fill="#F3C43E" points="119.3,5.4 115.9,5.4 115.9,2.8 117.4,2.8 117.4,3.5 116.6,3.5 116.6,4.7 118.6,4.7 118.6,1.5 
		114.6,1.5 114.6,3.5 111.8,3.5 111.8,1.5 104.7,1.5 104.7,3.5 101.8,3.5 101.8,1.5 97.8,1.5 97.8,4.7 99.8,4.7 99.8,3.5 99,3.5 
		99,2.8 100.5,2.8 100.5,5.4 97.1,5.4 97.1,0.8 102.6,0.8 102.6,2.8 103.9,2.8 103.9,0.8 112.5,0.8 112.5,2.8 113.9,2.8 113.9,0.8 
		119.3,0.8 	"/>
	<polygon fill="#F3C43E" points="143.6,0.8 140.2,0.8 140.2,3.5 141.7,3.5 141.7,2.8 140.9,2.8 140.9,1.5 142.9,1.5 142.9,4.7 
		138.8,4.7 138.8,2.8 136,2.8 136,4.7 128.9,4.7 128.9,2.8 126.1,2.8 126.1,4.7 122.1,4.7 122.1,1.5 124.1,1.5 124.1,2.8 123.2,2.8 
		123.2,3.5 124.8,3.5 124.8,0.8 121.3,0.8 121.3,5.4 126.8,5.4 126.8,3.5 128.2,3.5 128.2,5.4 136.7,5.4 136.7,3.5 138.1,3.5 
		138.1,5.4 143.6,5.4 	"/>
	<polygon fill="#F3C43E" points="167.9,5.4 164.4,5.4 164.4,2.8 166,2.8 166,3.5 165.1,3.5 165.1,4.7 167.2,4.7 167.2,1.5 
		163.1,1.5 163.1,3.5 160.3,3.5 160.3,1.5 153.2,1.5 153.2,3.5 150.4,3.5 150.4,1.5 146.3,1.5 146.3,4.7 148.4,4.7 148.4,3.5 
		147.5,3.5 147.5,2.8 149.1,2.8 149.1,5.4 145.6,5.4 145.6,0.8 151.1,0.8 151.1,2.8 152.5,2.8 152.5,0.8 161,0.8 161,2.8 162.4,2.8 
		162.4,0.8 167.9,0.8 	"/>
	<polygon fill="#F3C43E" points="192.2,0.8 188.7,0.8 188.7,3.5 190.2,3.5 190.2,2.8 189.4,2.8 189.4,1.5 191.4,1.5 191.4,4.7 
		187.4,4.7 187.4,2.8 184.6,2.8 184.6,4.7 177.5,4.7 177.5,2.8 174.6,2.8 174.6,4.7 170.6,4.7 170.6,1.5 172.6,1.5 172.6,2.8 
		171.8,2.8 171.8,3.5 173.3,3.5 173.3,0.8 169.9,0.8 169.9,5.4 175.4,5.4 175.4,3.5 176.8,3.5 176.8,5.4 185.3,5.4 185.3,3.5 
		186.7,3.5 186.7,5.4 192.2,5.4 	"/>
	<polygon fill="#F3C43E" points="216.4,5.4 213,5.4 213,2.8 214.5,2.8 214.5,3.5 213.7,3.5 213.7,4.7 215.7,4.7 215.7,1.5 
		211.7,1.5 211.7,3.5 208.8,3.5 208.8,1.5 201.7,1.5 201.7,3.5 198.9,3.5 198.9,1.5 194.9,1.5 194.9,4.7 196.9,4.7 196.9,3.5 
		196.1,3.5 196.1,2.8 197.6,2.8 197.6,5.4 194.2,5.4 194.2,0.8 199.6,0.8 199.6,2.8 201,2.8 201,0.8 209.6,0.8 209.6,2.8 210.9,2.8 
		210.9,0.8 216.4,0.8 	"/>
	<polygon fill="#F3C43E" points="240.7,0.8 237.2,0.8 237.2,3.5 238.8,3.5 238.8,2.8 237.9,2.8 237.9,1.5 240,1.5 240,4.7 
		235.9,4.7 235.9,2.8 233.1,2.8 233.1,4.7 226,4.7 226,2.8 223.2,2.8 223.2,4.7 219.1,4.7 219.1,1.5 221.2,1.5 221.2,2.8 220.3,2.8 
		220.3,3.5 221.9,3.5 221.9,0.8 218.4,0.8 218.4,5.4 223.9,5.4 223.9,3.5 225.3,3.5 225.3,5.4 233.8,5.4 233.8,3.5 235.2,3.5 
		235.2,5.4 240.7,5.4 	"/>
	<polygon fill="#F3C43E" points="265,5.4 261.5,5.4 261.5,2.8 263.1,2.8 263.1,3.5 262.2,3.5 262.2,4.7 264.2,4.7 264.2,1.5 
		260.2,1.5 260.2,3.5 257.4,3.5 257.4,1.5 250.3,1.5 250.3,3.5 247.5,3.5 247.5,1.5 243.4,1.5 243.4,4.7 245.4,4.7 245.4,3.5 
		244.6,3.5 244.6,2.8 246.2,2.8 246.2,5.4 242.7,5.4 242.7,0.8 248.2,0.8 248.2,2.8 249.6,2.8 249.6,0.8 258.1,0.8 258.1,2.8 
		259.5,2.8 259.5,0.8 265,0.8 	"/>
	<polygon fill="#F3C43E" points="289.2,0.8 285.8,0.8 285.8,3.5 287.3,3.5 287.3,2.8 286.5,2.8 286.5,1.5 288.5,1.5 288.5,4.7 
		284.5,4.7 284.5,2.8 281.6,2.8 281.6,4.7 274.5,4.7 274.5,2.8 271.7,2.8 271.7,4.7 267.7,4.7 267.7,1.5 269.7,1.5 269.7,2.8 
		268.9,2.8 268.9,3.5 270.4,3.5 270.4,0.8 267,0.8 267,5.4 272.4,5.4 272.4,3.5 273.8,3.5 273.8,5.4 282.4,5.4 282.4,3.5 283.8,3.5 
		283.8,5.4 289.2,5.4 	"/>
	<polygon fill="#F3C43E" points="313.5,5.4 310,5.4 310,2.8 311.6,2.8 311.6,3.5 310.7,3.5 310.7,4.7 312.8,4.7 312.8,1.5 
		308.7,1.5 308.7,3.5 305.9,3.5 305.9,1.5 298.8,1.5 298.8,3.5 296,3.5 296,1.5 291.9,1.5 291.9,4.7 294,4.7 294,3.5 293.1,3.5 
		293.1,2.8 294.7,2.8 294.7,5.4 291.2,5.4 291.2,0.8 296.7,0.8 296.7,2.8 298.1,2.8 298.1,0.8 306.6,0.8 306.6,2.8 308,2.8 308,0.8 
		313.5,0.8 	"/>
	<polygon fill="#F3C43E" points="337.8,0.8 334.3,0.8 334.3,3.5 335.9,3.5 335.9,2.8 335,2.8 335,1.5 337.1,1.5 337.1,4.7 333,4.7 
		333,2.8 330.2,2.8 330.2,4.7 323.1,4.7 323.1,2.8 320.3,2.8 320.3,4.7 316.2,4.7 316.2,1.5 318.3,1.5 318.3,2.8 317.4,2.8 
		317.4,3.5 319,3.5 319,0.8 315.5,0.8 315.5,5.4 321,5.4 321,3.5 322.4,3.5 322.4,5.4 330.9,5.4 330.9,3.5 332.3,3.5 332.3,5.4 
		337.8,5.4 	"/>
	<polygon fill="#F3C43E" points="362,5.4 358.6,5.4 358.6,2.8 360.1,2.8 360.1,3.5 359.3,3.5 359.3,4.7 361.3,4.7 361.3,1.5 
		357.3,1.5 357.3,3.5 354.5,3.5 354.5,1.5 347.3,1.5 347.3,3.5 344.5,3.5 344.5,1.5 340.5,1.5 340.5,4.7 342.5,4.7 342.5,3.5 
		341.7,3.5 341.7,2.8 343.2,2.8 343.2,5.4 339.8,5.4 339.8,0.8 345.2,0.8 345.2,2.8 346.6,2.8 346.6,0.8 355.2,0.8 355.2,2.8 
		356.6,2.8 356.6,0.8 362,0.8 	"/>
	<polygon fill="#F3C43E" points="386.3,0.8 382.8,0.8 382.8,3.5 384.4,3.5 384.4,2.8 383.6,2.8 383.6,1.5 385.6,1.5 385.6,4.7 
		381.5,4.7 381.5,2.8 378.7,2.8 378.7,4.7 371.6,4.7 371.6,2.8 368.8,2.8 368.8,4.7 364.7,4.7 364.7,1.5 366.8,1.5 366.8,2.8 
		365.9,2.8 365.9,3.5 367.5,3.5 367.5,0.8 364,0.8 364,5.4 369.5,5.4 369.5,3.5 370.9,3.5 370.9,5.4 379.4,5.4 379.4,3.5 380.8,3.5 
		380.8,5.4 386.3,5.4 	"/>
	<polygon fill="#F3C43E" points="410.6,5.4 407.1,5.4 407.1,2.8 408.7,2.8 408.7,3.5 407.8,3.5 407.8,4.7 409.9,4.7 409.9,1.5 
		405.8,1.5 405.8,3.5 403,3.5 403,1.5 395.9,1.5 395.9,3.5 393.1,3.5 393.1,1.5 389,1.5 389,4.7 391.1,4.7 391.1,3.5 390.2,3.5 
		390.2,2.8 391.8,2.8 391.8,5.4 388.3,5.4 388.3,0.8 393.8,0.8 393.8,2.8 395.2,2.8 395.2,0.8 403.7,0.8 403.7,2.8 405.1,2.8 
		405.1,0.8 410.6,0.8 	"/>
	<polygon fill="#F3C43E" points="434.8,0.8 431.4,0.8 431.4,3.5 432.9,3.5 432.9,2.8 432.1,2.8 432.1,1.5 434.1,1.5 434.1,4.7 
		430.1,4.7 430.1,2.8 427.3,2.8 427.3,4.7 420.2,4.7 420.2,2.8 417.3,2.8 417.3,4.7 413.3,4.7 413.3,1.5 415.3,1.5 415.3,2.8 
		414.5,2.8 414.5,3.5 416,3.5 416,0.8 412.6,0.8 412.6,5.4 418,5.4 418,3.5 419.4,3.5 419.4,5.4 428,5.4 428,3.5 429.4,3.5 
		429.4,5.4 434.8,5.4 	"/>
	<polygon fill="#F3C43E" points="459.1,5.4 455.6,5.4 455.6,2.8 457.2,2.8 457.2,3.5 456.4,3.5 456.4,4.7 458.4,4.7 458.4,1.5 
		454.3,1.5 454.3,3.5 451.5,3.5 451.5,1.5 444.4,1.5 444.4,3.5 441.6,3.5 441.6,1.5 437.6,1.5 437.6,4.7 439.6,4.7 439.6,3.5 
		438.7,3.5 438.7,2.8 440.3,2.8 440.3,5.4 436.8,5.4 436.8,0.8 442.3,0.8 442.3,2.8 443.7,2.8 443.7,0.8 452.2,0.8 452.2,2.8 
		453.6,2.8 453.6,0.8 459.1,0.8 	"/>
	<polygon fill="#F3C43E" points="483.4,0.8 479.9,0.8 479.9,3.5 481.5,3.5 481.5,2.8 480.6,2.8 480.6,1.5 482.7,1.5 482.7,4.7 
		478.6,4.7 478.6,2.8 475.8,2.8 475.8,4.7 468.7,4.7 468.7,2.8 465.9,2.8 465.9,4.7 461.8,4.7 461.8,1.5 463.9,1.5 463.9,2.8 
		463,2.8 463,3.5 464.6,3.5 464.6,0.8 461.1,0.8 461.1,5.4 466.6,5.4 466.6,3.5 468,3.5 468,5.4 476.5,5.4 476.5,3.5 477.9,3.5 
		477.9,5.4 483.4,5.4 	"/>
	<polygon fill="#F3C43E" points="507.6,5.4 504.2,5.4 504.2,2.8 505.7,2.8 505.7,3.5 504.9,3.5 504.9,4.7 506.9,4.7 506.9,1.5 
		502.9,1.5 502.9,3.5 500.1,3.5 500.1,1.5 493,1.5 493,3.5 490.1,3.5 490.1,1.5 486.1,1.5 486.1,4.7 488.1,4.7 488.1,3.5 487.3,3.5 
		487.3,2.8 488.8,2.8 488.8,5.4 485.4,5.4 485.4,0.8 490.9,0.8 490.9,2.8 492.3,2.8 492.3,0.8 500.8,0.8 500.8,2.8 502.2,2.8 
		502.2,0.8 507.6,0.8 	"/>
	<polygon fill="#F3C43E" points="531.9,0.8 528.5,0.8 528.5,3.5 530,3.5 530,2.8 529.2,2.8 529.2,1.5 531.2,1.5 531.2,4.7 
		527.2,4.7 527.2,2.8 524.3,2.8 524.3,4.7 517.2,4.7 517.2,2.8 514.4,2.8 514.4,4.7 510.4,4.7 510.4,1.5 512.4,1.5 512.4,2.8 
		511.6,2.8 511.6,3.5 513.1,3.5 513.1,0.8 509.6,0.8 509.6,5.4 515.1,5.4 515.1,3.5 516.5,3.5 516.5,5.4 525,5.4 525,3.5 526.4,3.5 
		526.4,5.4 531.9,5.4 	"/>
	<polygon fill="#F3C43E" points="556.2,5.4 552.7,5.4 552.7,2.8 554.3,2.8 554.3,3.5 553.4,3.5 553.4,4.7 555.5,4.7 555.5,1.5 
		551.4,1.5 551.4,3.5 548.6,3.5 548.6,1.5 541.5,1.5 541.5,3.5 538.7,3.5 538.7,1.5 534.6,1.5 534.6,4.7 536.7,4.7 536.7,3.5 
		535.8,3.5 535.8,2.8 537.4,2.8 537.4,5.4 533.9,5.4 533.9,0.8 539.4,0.8 539.4,2.8 540.8,2.8 540.8,0.8 549.3,0.8 549.3,2.8 
		550.7,2.8 550.7,0.8 556.2,0.8 	"/>
	<polygon fill="#F3C43E" points="580.5,0.8 577,0.8 577,3.5 578.6,3.5 578.6,2.8 577.7,2.8 577.7,1.5 579.7,1.5 579.7,4.7 
		575.7,4.7 575.7,2.8 572.9,2.8 572.9,4.7 565.8,4.7 565.8,2.8 563,2.8 563,4.7 558.9,4.7 558.9,1.5 560.9,1.5 560.9,2.8 560.1,2.8 
		560.1,3.5 561.7,3.5 561.7,0.8 558.2,0.8 558.2,5.4 563.7,5.4 563.7,3.5 565.1,3.5 565.1,5.4 573.6,5.4 573.6,3.5 575,3.5 575,5.4 
		580.5,5.4 	"/>
</g>
</svg>
