<?xml version="1.0" encoding="utf-8"?>
<!-- Generator: Adobe Illustrator 29.2.0, SVG Export Plug-In . SVG Version: 9.03 Build 55982)  -->
<svg version="1.1" baseProfile="tiny" id="Layer_1" xmlns="http://www.w3.org/2000/svg" xmlns:xlink="http://www.w3.org/1999/xlink"
	 x="0px" y="0px" viewBox="0 0 379 38" overflow="visible" xml:space="preserve">
<rect id="_x3C_Rectangle_x3E__opacity:10_00000158711560868188429870000006870747517473390485_" x="4" y="0" fill="#F3C43E" width="375" height="38"/>
<rect id="_x3C_Path_x3E__opacity:100_00000160191974806313453800000004476347021448495789_" y="0" fill="#ED1F25" width="2" height="38"/>
<g id="_x3C_Group_x3E__opacity:100_00000160883607510001703900000009834869167729783730_">
	<polygon fill="#ED1F25" points="16,1.3 15,1.3 15,1.7 15.6,1.7 15.6,2.5 14.2,2.5 14.2,0.5 16.9,0.5 16.9,1.7 18.7,1.7 18.7,1 
		378.1,1 378.1,23.4 377.4,23.4 377.4,25.3 378.7,25.3 378.7,27.9 376.6,27.9 376.6,26.5 377.4,26.5 377.4,27.1 377.9,27.1 
		377.9,26.1 376.1,26.1 376.1,28.3 379.1,28.3 379.1,24.8 377.9,24.8 377.9,23.9 379.1,23.9 379.1,0 379.1,0 18.2,0 18.2,1.2 
		17.3,1.2 17.3,0 13.8,0 13.8,3 16,3 	"/>
	<path fill="#ED1F25" d="M8.5,4.8H5.4v2.6h1.7V6H6.7v1H5.9V5.2H8v3H4.6V1.7h0.8v2h2.5l0-2.5h-2V0.5h6.5v3.5h-3V1.8h1.7v0.8h-1V3h1.4
		V1.3H8.9v3.1h3.9V0H5.4l0,1.3H4.1v7.4h4.4V4.8z M5.9,1.7h1.6l0,1.6H5.9V1.7z"/>
	<polygon fill="#ED1F25" points="367.2,36.7 368.2,36.7 368.2,36.3 367.7,36.3 367.7,35.5 369,35.5 369,37.5 366.4,37.5 366.4,36.3 
		364.5,36.3 364.5,37 5.1,37 5.1,14.6 5.8,14.6 5.8,12.7 4.6,12.7 4.6,10.1 6.6,10.1 6.6,11.5 5.8,11.5 5.8,10.9 5.4,10.9 5.4,11.9 
		7.1,11.9 7.1,9.7 4.1,9.7 4.1,13.2 5.4,13.2 5.4,14.1 4.1,14.1 4.1,38 365,38 365,36.8 365.9,36.8 365.9,38 369.4,38 369.4,35 
		367.2,35 	"/>
	<path fill="#ED1F25" d="M374.7,33.2h3.1v-2.6h-1.7V32h0.5v-1h0.8v1.7h-2.2v-3h3.5v6.5h-0.8v-2h-2.5l0,2.5h2v0.8h-6.5v-3.5h3v2.2
		h-1.7v-0.8h1V35h-1.4v1.7h2.6v-3.1h-3.9V38h7.4l0-1.3h1.3v-7.4h-4.4V33.2z M377.4,36.3h-1.6l0-1.6h1.6V36.3z"/>
</g>
</svg>
