<?xml version="1.0" encoding="utf-8"?>
<!-- Generator: Adobe Illustrator 29.2.0, SVG Export Plug-In . SVG Version: 9.03 Build 55982)  -->
<svg version="1.1" baseProfile="tiny" id="Layer_1" xmlns="http://www.w3.org/2000/svg" xmlns:xlink="http://www.w3.org/1999/xlink"
	 x="0px" y="0px" viewBox="0 0 379 217.6" overflow="visible" xml:space="preserve">
<g id="_x3C_Group_x3E__opacity:100_00000117639802837407217070000000571594703644022454_">
	<path fill="#F3C43E" d="M4.4,4.8H1.3v2.6H3V6H2.6v1H1.8V5.2h2.2v3H0.5V1.7h0.8v2h2.5l0-2.5h-2V0.5h6.5v3.5h-3V1.8H7v0.8H6V3h1.4
		V1.3H4.8v3.1h3.9V0H1.3l0,1.3H0v7.4h4.4V4.8z M1.7,1.7h1.6l0,1.6H1.7L1.7,1.7z"/>
	<g>
		<polygon fill="#F3C43E" points="14.6,0 14.1,0 14.1,1.2 13.2,1.2 13.2,0 9.7,0 9.7,3 11.9,3 11.9,1.3 10.9,1.3 10.9,1.7 11.5,1.7 
			11.5,2.5 10.1,2.5 10.1,0.5 12.7,0.5 12.7,1.7 14.6,1.7 		"/>
	</g>
	<g>
		<polygon fill="#F3C43E" points="0,14.1 0,14.6 1.7,14.6 1.7,12.7 0.5,12.7 0.5,10.1 2.5,10.1 2.5,11.5 1.7,11.5 1.7,10.9 
			1.3,10.9 1.3,11.9 3,11.9 3,9.7 0,9.7 0,13.2 1.2,13.2 1.2,14.1 		"/>
	</g>
	<g>
		<path fill="#F3C43E" d="M374.6,208.9v3.9h3.1v-2.6H376v1.4h0.5v-1h0.8v1.7h-2.2v-3h3.5v6.5h-0.8v-2h-2.5l0,2.5h2v0.8h-6.5v-3.5h3
			v2.2H372V215h1v-0.5h-1.4v1.7h2.6v-3.1h-3.9v4.4h7.4l0-1.3h1.3v-7.4H374.6z M377.3,215.8h-1.6v-1.6h1.6L377.3,215.8z"/>
		<polygon fill="#F3C43E" points="367.1,216.3 368.1,216.3 368.1,215.8 367.5,215.8 367.5,215 368.9,215 368.9,217.1 366.2,217.1 
			366.2,215.9 364.4,215.9 364.4,217.6 364.9,217.6 364.9,216.3 365.8,216.3 365.8,217.6 369.3,217.6 369.3,214.6 367.1,214.6 		"/>
		<polygon fill="#F3C43E" points="379,204.4 377.8,204.4 377.8,203.5 379,203.5 379,203 377.3,203 377.3,204.8 378.5,204.8 
			378.5,207.4 376.5,207.4 376.5,206.1 377.3,206.1 377.3,206.7 377.7,206.7 377.7,205.6 376,205.6 376,207.9 379,207.9 		"/>
	</g>
	<g>
		<polygon fill="#F3C43E" points="14.6,0 14.6,1 378,1 378,16.8 373.7,21.1 373.7,108.8 374.7,108.8 374.7,21.8 379,17.5 379,0 		
			"/>
	</g>
	<g>
		<polygon fill="#F3C43E" points="364.4,216.6 1,216.6 1,14.6 0,14.6 0,217.6 364.4,217.6 		"/>
		<polygon fill="#F3C43E" points="374.7,195.8 374.7,108.8 373.7,108.8 373.7,196.4 378,200.7 378,203 379,203 379,200.1 		"/>
	</g>
</g>
</svg>
