<?xml version="1.0" encoding="utf-8"?>
<!-- Generator: Adobe Illustrator 29.5.1, SVG Export Plug-In . SVG Version: 9.03 Build 0)  -->
<svg version="1.1" baseProfile="tiny" id="Lines" xmlns="http://www.w3.org/2000/svg" xmlns:xlink="http://www.w3.org/1999/xlink"
	 x="0px" y="0px" viewBox="0 0 339.4 180.7" overflow="visible" xml:space="preserve">
<path fill="#445D5E" d="M225.6,26.1c-5.8,0-11.2,3.1-14.2,8l-24.9,41.6H0v3h184.7l-36.9,61.5c-2.4,4.1-6.9,6.6-11.6,6.6H0v3h136.2
	c5.8,0,11.2-3.1,14.2-8l37.8-63.1h0v0l25.8-43c2.4-4.1,6.9-6.6,11.6-6.6h113.8v-3H225.6z"/>
<path fill="#445D5E" d="M328.7,46.4c-5.3,0-10.1,2.8-12.7,7.4l-72.2,126.9h3.5l71.4-125.4c2.1-3.6,5.9-5.9,10.1-5.9h10.7v-3
	C339.5,46.4,328.7,46.4,328.7,46.4z"/>
</svg>
