<?xml version="1.0" encoding="utf-8"?>
<!-- Generator: Adobe Illustrator 27.9.0, SVG Export Plug-In . SVG Version: 6.00 Build 0)  -->
<svg version="1.1" baseProfile="tiny" id="Layer_1" xmlns="http://www.w3.org/2000/svg" xmlns:xlink="http://www.w3.org/1999/xlink"
	 x="0px" y="0px" viewBox="0 0 1836 958" overflow="visible" xml:space="preserve">
<path fill="#FFFFFF" d="M1786,958H50c-27.6,0-50-22.4-50-50V33C0,14.8,14.8,0,33,0h1770c18.2,0,33,14.8,33,33v875
	C1836,935.6,1813.6,958,1786,958z M33,3C16.5,3,3,16.5,3,33v875c0,25.9,21.1,47,47,47h1736c25.9,0,47-21.1,47-47V33
	c0-16.5-13.5-30-30-30H33z"/>
</svg>
