<?xml version="1.0" encoding="utf-8"?>
<!-- Generator: Adobe Illustrator 26.0.1, SVG Export Plug-In . SVG Version: 6.00 Build 0)  -->
<svg version="1.1" baseProfile="tiny" id="Layer_1" xmlns="http://www.w3.org/2000/svg" xmlns:xlink="http://www.w3.org/1999/xlink"
	 x="0px" y="0px" viewBox="0 0 1920 1080" overflow="visible" xml:space="preserve">
<g>
	<g>
		<path fill="none" stroke="#9E2100" stroke-width="1.0853" stroke-miterlimit="10" d="M775.4,594.3h-40v21.1h-15.5v-61.8h55.5
			c6.6,0,20.2,3.9,20.2,20.3C795.6,590.2,781.4,594.3,775.4,594.3z M773.1,566.9h-37.7v14h37.7c1.3,0,7-1.3,7-7.1
			C780,568.1,775,566.9,773.1,566.9z"/>
		<path fill="none" stroke="#9E2100" stroke-width="1.0853" stroke-miterlimit="10" d="M981.3,592.5l10.8,22.9h-16.6l-9.9-21.1
			h-32.4v21.1h-15.5v-61.8h55.5c6.6,0,20.2,3.9,20.2,20.3C993.4,584.7,987.2,590.1,981.3,592.5z M970.9,566.9h-37.7v14h37.7
			c1.3,0,7-1.3,7-7.1C977.9,568.1,972.8,566.9,970.9,566.9z"/>
		<path fill="none" stroke="#9E2100" stroke-width="1.0853" stroke-miterlimit="10" d="M1154.3,617.4c-25.9,0-41.4-15.1-41.4-32.9
			c0-17.8,15.4-32.9,41.4-32.9c25.9,0,41.4,15.1,41.4,32.9C1195.7,602.3,1180.3,617.4,1154.3,617.4z M1154.3,564.7
			c-16.8,0-25.1,9.2-25.1,19.8c0,10.6,8.3,19.8,25.1,19.8c16.8,0,25.1-9.2,25.1-19.8C1179.4,573.9,1171.1,564.7,1154.3,564.7z"/>
	</g>
	<g>
		<path fill="none" stroke="#9E2100" stroke-width="1.0853" stroke-miterlimit="10" d="M666.5,526.8c-37.8,0-60.3-22-60.3-48
			c0-26,22.5-48,60.3-48c37.8,0,60.3,22,60.3,48C726.8,504.8,704.3,526.8,666.5,526.8z M666.5,450.1c-24.4,0-36.5,13.4-36.5,28.8
			c0,15.4,12.1,28.8,36.5,28.8c24.4,0,36.5-13.4,36.5-28.8C703,463.4,690.9,450.1,666.5,450.1z"/>
		<path fill="none" stroke="#9E2100" stroke-width="1.0853" stroke-miterlimit="10" d="M863,523.9v-72.1L829,523.9h-22l-33.8-72.3
			v72.3h-22.6v-90h37.5l30,66.2l30-66.2h37.4v90H863z"/>
		<path fill="none" stroke="#9E2100" stroke-width="1.0853" stroke-miterlimit="10" d="M913.7,523.9v-90h108.4v19.4h-85.8v16.2h75.5
			V487h-75.5v17.5h89.1v19.4H913.7z"/>
		<path fill="none" stroke="#9E2100" stroke-width="1.0853" stroke-miterlimit="10" d="M1104.8,526.8c-39.3,0-62.6-22-62.6-48
			c0-26,23.3-48,62.6-48c26.2,0,45,10.4,54.5,24.3l-19.9,10.2c-5.5-8.5-17-15-34.6-15c-26,0-39.6,13.2-39.6,28.5
			c0,15.3,13.6,28.5,39.6,28.5c19.3,0,31.9-7.5,37-17.5H1096v-17.5h71c0.4,2.1,0.5,4.2,0.5,6.4
			C1167.5,504.8,1144.2,526.8,1104.8,526.8z"/>
		<path fill="none" stroke="#9E2100" stroke-width="1.0853" stroke-miterlimit="10" d="M1285.4,523.9l-10.4-18h-63.4l-10.4,18h-24
			l51.7-90h28.9l51.7,90H1285.4z M1243.3,450.7l-20.6,35.7h41.1L1243.3,450.7z"/>
	</g>
	<g>
		<path fill="none" stroke="#9E2100" stroke-width="1.0853" stroke-miterlimit="10" d="M842.2,368.3h62.6v-12.2
			c-10.5-2.8-19.6-7.2-27.5-13.3c-7.8-6.1-14.3-13.1-19.6-21.2c-5.2-8-9.1-17-11.7-26.8c-2.6-9.8-3.8-19.8-3.8-30.1
			c0-16.6,3-31.5,9.1-44.9c6.1-13.4,14.3-24.9,24.8-34.4c10.5-9.6,22.7-17,36.7-22.2c14-5.2,29-7.9,45.1-7.9
			c16.1,0,31.1,2.6,45.1,7.7c14,5.1,26.2,12.4,36.5,21.9c10.4,9.4,18.6,20.9,24.7,34.3c6.1,13.4,9.1,28.4,9.1,44.9
			c0,10.3-1.3,20.3-3.8,30.2c-2.6,9.9-6.4,19-11.5,27.3c-5.1,8.3-11.7,15.4-19.6,21.5c-7.9,6.1-17.1,10.4-27.6,12.9v12.2h62.6v39.2
			H974v-72.4c8.6-1.6,16.1-4.6,22.6-8.9c6.4-4.3,11.7-9.6,15.9-15.7c4.2-6.2,7.3-13.1,9.4-20.6c2.1-7.6,3.2-15.6,3.2-24
			c0-9.8-1.6-19-4.7-27.6c-3.2-8.6-7.7-16.1-13.5-22.6c-5.9-6.4-12.9-11.5-21.2-15.4c-8.3-3.8-17.5-5.8-27.5-5.8
			c-10.3,0-19.6,1.9-28,5.8c-8.4,3.8-15.5,9-21.4,15.6c-5.8,6.5-10.3,14.2-13.5,23.1c-3.2,8.9-4.7,18.2-4.7,28
			c0,16.8,4.1,31.4,12.4,43.7c8.3,12.4,20.9,20.5,37.9,24.5v72.4h-98.6V368.3z"/>
	</g>
</g>
</svg>
