<?xml version="1.0" encoding="utf-8"?>
<!-- Generator: Adobe Illustrator 30.2.1, SVG Export Plug-In . SVG Version: 9.03 Build 0)  -->
<svg version="1.1" baseProfile="tiny" id="Layer_1" xmlns="http://www.w3.org/2000/svg" xmlns:xlink="http://www.w3.org/1999/xlink"
	 x="0px" y="0px" viewBox="0 0 50 36" overflow="visible" xml:space="preserve">
<g>
	<polygon id="half_opacity:40" fill="#FFFFFF" points="36,23.1 33.7,20.8 38.1,19.9 38.1,18 0,18 0,20.4 17,24 33.5,35.9 40.6,35.9 
		34.8,30 37,27.1 39.4,27.1 44.5,31.8 50,31.8 45.3,23.1 	"/>
	<polygon fill="#FFFFFF" points="36,12.9 33.7,15.2 38.1,16.1 38.1,18 0,18 0,15.6 17,12 33.5,0.1 40.6,0.1 34.8,6 37,8.9 39.4,8.9 
		44.5,4.2 50,4.2 45.3,12.9 	"/>
</g>
</svg>
