<?xml version="1.0" encoding="utf-8"?>
<!-- Generator: Adobe Illustrator 30.2.1, SVG Export Plug-In . SVG Version: 9.03 Build 0)  -->
<svg version="1.1" baseProfile="tiny" id="Layer_1" xmlns="http://www.w3.org/2000/svg" xmlns:xlink="http://www.w3.org/1999/xlink"
	 x="0px" y="0px" viewBox="0 0 57.4 110.3" overflow="visible" xml:space="preserve">
<path fill="#FFFFFF" d="M57.4,0.1C56.7,0,55.9,0,55.1,0C24.7,0,0,24.7,0,55.1c0,30.4,24.7,55.1,55.1,55.1c0.8,0,1.5,0,2.3-0.1V0.1z
	 M42.6,2.8l1.2,4.9c-0.9,0.2-1.8,0.5-2.7,0.7l-1.4-4.8C40.6,3.3,41.6,3.1,42.6,2.8z M38.1,4.1l1.6,4.7c-0.9,0.3-1.8,0.6-2.7,1
	l-1.9-4.6C36.2,4.8,37.1,4.4,38.1,4.1z M33.8,5.8l2,4.6c-0.9,0.4-1.7,0.8-2.6,1.2l-2.3-4.5C31.8,6.6,32.8,6.2,33.8,5.8z M29.5,7.8
	l2.4,4.4c-0.8,0.4-1.6,0.9-2.4,1.4l-2.6-4.2C27.7,8.8,28.6,8.3,29.5,7.8z M25.5,10.2l2.8,4.2c-0.8,0.5-1.6,1.1-2.3,1.6l-3-4
	C23.8,11.4,24.7,10.8,25.5,10.2z M21.7,13l3.1,3.9c-0.7,0.6-1.5,1.2-2.2,1.8L19.3,15C20.1,14.3,20.9,13.6,21.7,13z M18.2,16l3.4,3.6
	c-0.7,0.6-1.4,1.3-2,2L16,18.3C16.7,17.5,17.4,16.8,18.2,16z M14.9,19.4l3.7,3.3c-0.6,0.7-1.2,1.4-1.8,2.2l-3.9-3.1
	C13.6,21,14.2,20.2,14.9,19.4z M12,23.1l4,3c-0.6,0.8-1.1,1.5-1.6,2.3l-4.2-2.7C10.7,24.7,11.3,23.9,12,23.1z M9.3,26.9l4.3,2.6
	c-0.5,0.8-1,1.6-1.4,2.5l-4.4-2.4C8.3,28.7,8.8,27.8,9.3,26.9z M7,31l4.5,2.2c-0.4,0.8-0.8,1.7-1.2,2.6l-4.6-2C6.1,32.9,6.6,32,7,31
	z M5.1,35.3l4.6,1.8c-0.3,0.9-0.7,1.8-1,2.7l-4.7-1.6C4.4,37.3,4.7,36.3,5.1,35.3z M3.6,39.8l4.8,1.4c-0.3,0.9-0.5,1.8-0.7,2.7
	l-4.9-1.1C3,41.8,3.3,40.8,3.6,39.8z M2.4,44.3l4.9,1c-0.2,0.9-0.4,1.9-0.5,2.8l-4.9-0.7C2.1,46.4,2.2,45.3,2.4,44.3z M1.7,48.9
	l5,0.6c-0.1,0.9-0.2,1.9-0.2,2.8l-5-0.3C1.5,51,1.6,50,1.7,48.9z M1.4,55.1c0-0.5,0-1,0-1.5l5,0.1c0,0.5,0,0.9,0,1.4
	c0,0.5,0,1,0,1.5l-5,0.1C1.4,56.2,1.4,55.7,1.4,55.1z M1.4,58.3l5-0.3c0.1,0.9,0.1,1.9,0.2,2.8l-5,0.6C1.6,60.4,1.5,59.3,1.4,58.3z
	 M1.9,63l4.9-0.7C7,63.2,7.2,64.1,7.4,65l-4.9,1C2.3,65,2.1,64,1.9,63z M2.8,67.6l4.9-1.2c0.2,0.9,0.5,1.8,0.7,2.7l-4.8,1.4
	C3.3,69.6,3,68.6,2.8,67.6z M4.1,72.1l4.7-1.6c0.3,0.9,0.6,1.8,1,2.7L5.2,75C4.8,74.1,4.4,73.1,4.1,72.1z M5.8,76.5l4.6-2
	c0.4,0.9,0.8,1.7,1.2,2.6l-4.5,2.2C6.6,78.4,6.2,77.4,5.8,76.5z M7.8,80.7l4.4-2.4c0.4,0.8,0.9,1.7,1.4,2.5l-4.3,2.6
	C8.8,82.5,8.3,81.6,7.8,80.7z M10.2,84.7l4.2-2.8c0.5,0.8,1.1,1.6,1.6,2.3l-4,3C11.4,86.4,10.8,85.6,10.2,84.7z M12.9,88.5l3.9-3.1
	c0.6,0.7,1.2,1.5,1.8,2.2L15,90.9C14.3,90.1,13.6,89.3,12.9,88.5z M16,92l3.6-3.4c0.6,0.7,1.3,1.4,2,2l-3.4,3.6
	C17.5,93.5,16.7,92.8,16,92z M19.4,95.3l3.3-3.7c0.7,0.6,1.4,1.2,2.2,1.8l-3.1,3.9C21,96.7,20.1,96,19.4,95.3z M23,98.3l3-4
	c0.8,0.6,1.5,1.1,2.3,1.6l-2.8,4.2C24.7,99.5,23.8,98.9,23,98.3z M26.9,100.9l2.6-4.3c0.8,0.5,1.6,1,2.5,1.4l-2.4,4.4
	C28.7,102,27.8,101.5,26.9,100.9z M31,103.2l2.2-4.5c0.8,0.4,1.7,0.8,2.6,1.2l-2,4.6C32.9,104.1,31.9,103.7,31,103.2z M35.3,105.1
	l1.8-4.6c0.9,0.3,1.8,0.7,2.7,1l-1.6,4.7C37.2,105.9,36.2,105.5,35.3,105.1z M42.7,107.5c-1-0.2-2-0.5-3-0.8l1.4-4.8
	c0.9,0.3,1.8,0.5,2.7,0.7L42.7,107.5z M47.2,1.9L48,6.9C47,7,46.1,7.2,45.2,7.4l-1-4.9C45.2,2.3,46.2,2.1,47.2,1.9z M47.3,108.3
	c-1-0.1-2.1-0.3-3.1-0.5l1-4.9c0.9,0.2,1.9,0.4,2.8,0.5L47.3,108.3z M51.9,1.5l0.3,5c-0.9,0.1-1.9,0.1-2.8,0.2l-0.6-5
	C49.8,1.6,50.9,1.5,51.9,1.5z M52,108.8c-1-0.1-2.1-0.2-3.1-0.3l0.6-5c0.9,0.1,1.9,0.2,2.8,0.2L52,108.8z M55.1,108.9
	c-0.5,0-1.1,0-1.6,0l0.1-5c0.5,0,0.9,0,1.4,0V108.9z M53.7,6.4l-0.1-5c0.5,0,1,0,1.6,0v5C54.7,6.4,54.2,6.4,53.7,6.4z"/>
</svg>
