<?xml version="1.0" encoding="utf-8"?>
<!-- Generator: Adobe Illustrator 30.2.1, SVG Export Plug-In . SVG Version: 9.03 Build 0)  -->
<svg version="1.1" baseProfile="tiny" id="Layer_1" xmlns="http://www.w3.org/2000/svg" xmlns:xlink="http://www.w3.org/1999/xlink"
	 x="0px" y="0px" viewBox="0 0 60 60" overflow="visible" xml:space="preserve">
<path fill="#FFFFFF" d="M33.8,28.2v16.1c0,2-1.6,3.8-3.8,3.8l0,0c-2,0-3.8-1.6-3.8-3.8V28.2c0-2,1.6-3.8,3.8-3.8l0,0
	C32,24.4,33.8,26,33.8,28.2z M34.1,16L34.1,16c0,2.2-1.8,4.1-4.1,4.1l0,0c-2.2,0-4.1-1.8-4.1-4.1l0,0c0-2.2,1.8-4.1,4.1-4.1l0,0
	C32.2,12,34.1,13.8,34.1,16z M30,55.4C16,55.4,4.6,44,4.6,30S16,4.6,30,4.6S55.4,16,55.4,30S44,55.4,30,55.4 M30,60
	c16.5,0,30-13.5,30-30S46.6,0,30,0S0,13.5,0,30S13.5,60,30,60L30,60z"/>
</svg>
