<?xml version="1.0" encoding="utf-8"?>
<!-- Generator: Adobe Illustrator 30.2.1, SVG Export Plug-In . SVG Version: 9.03 Build 0)  -->
<svg version="1.1" baseProfile="tiny" id="Layer_1" xmlns="http://www.w3.org/2000/svg" xmlns:xlink="http://www.w3.org/1999/xlink"
	 x="0px" y="0px" viewBox="0 0 166.7 157.8" overflow="visible" xml:space="preserve">
<g>
	<path fill="#FFFFFF" d="M54.4,50.7l-42-42C7.4,3.7,5.5,1.8,4.8,1H0V0h5.2l0.1,0.1C5.4,0.3,55.1,50,55.1,50L54.4,50.7z"/>
</g>
<g>
	<path fill="#FFFFFF" d="M4.9,157.8H0v-1h4.8c0.7-0.8,2.6-2.7,7.5-7.6l42-42l0.7,0.7c0,0-49.7,49.7-49.8,49.8l-0.1,0.1H4.9z"/>
</g>
<g>
	<polygon fill="#FFFFFF" points="112.3,50.7 111.6,50 161.5,0 166.7,0 166.7,1 162,1 	"/>
</g>
<g>
	<polygon fill="#FFFFFF" points="166.7,157.8 161.5,157.8 111.6,107.8 112.3,107.1 162,156.8 166.7,156.8 	"/>
</g>
</svg>
