<?xml version="1.0" encoding="utf-8"?>
<!-- Generator: Adobe Illustrator 30.2.1, SVG Export Plug-In . SVG Version: 9.03 Build 0)  -->
<svg version="1.1" baseProfile="tiny" id="Layer_1" xmlns="http://www.w3.org/2000/svg" xmlns:xlink="http://www.w3.org/1999/xlink"
	 x="0px" y="0px" viewBox="0 0 8 920" overflow="visible" xml:space="preserve">
<g>
	<line fill="none" stroke="#FFFFFF" stroke-miterlimit="10" x1="0" y1="919.5" x2="8" y2="919.5"/>
	<line fill="none" stroke="#FFFFFF" stroke-miterlimit="10" x1="0" y1="0.5" x2="8" y2="0.5"/>
	<g>
		<line fill="none" stroke="#FFFFFF" stroke-miterlimit="10" x1="0" y1="919.5" x2="4" y2="919.5"/>
		<line fill="none" stroke="#FFFFFF" stroke-miterlimit="10" x1="0" y1="903.4" x2="4" y2="903.4"/>
		<line fill="none" stroke="#FFFFFF" stroke-miterlimit="10" x1="0" y1="887.3" x2="4" y2="887.3"/>
		<line fill="none" stroke="#FFFFFF" stroke-miterlimit="10" x1="0" y1="871.1" x2="4" y2="871.1"/>
		<line fill="none" stroke="#FFFFFF" stroke-miterlimit="10" x1="0" y1="855" x2="4" y2="855"/>
		<line fill="none" stroke="#FFFFFF" stroke-miterlimit="10" x1="0" y1="838.9" x2="4" y2="838.9"/>
		<line fill="none" stroke="#FFFFFF" stroke-miterlimit="10" x1="0" y1="822.8" x2="4" y2="822.8"/>
		<line fill="none" stroke="#FFFFFF" stroke-miterlimit="10" x1="0" y1="806.6" x2="4" y2="806.6"/>
		<line fill="none" stroke="#FFFFFF" stroke-miterlimit="10" x1="0" y1="790.5" x2="4" y2="790.5"/>
		<line fill="none" stroke="#FFFFFF" stroke-miterlimit="10" x1="0" y1="774.4" x2="4" y2="774.4"/>
		<line fill="none" stroke="#FFFFFF" stroke-miterlimit="10" x1="0" y1="758.3" x2="4" y2="758.3"/>
		<line fill="none" stroke="#FFFFFF" stroke-miterlimit="10" x1="0" y1="742.2" x2="4" y2="742.2"/>
		<line fill="none" stroke="#FFFFFF" stroke-miterlimit="10" x1="0" y1="726" x2="4" y2="726"/>
		<line fill="none" stroke="#FFFFFF" stroke-miterlimit="10" x1="0" y1="709.9" x2="4" y2="709.9"/>
		<line fill="none" stroke="#FFFFFF" stroke-miterlimit="10" x1="0" y1="693.8" x2="4" y2="693.8"/>
		<line fill="none" stroke="#FFFFFF" stroke-miterlimit="10" x1="0" y1="677.7" x2="4" y2="677.7"/>
		<line fill="none" stroke="#FFFFFF" stroke-miterlimit="10" x1="0" y1="661.5" x2="4" y2="661.5"/>
		<line fill="none" stroke="#FFFFFF" stroke-miterlimit="10" x1="0" y1="645.4" x2="4" y2="645.4"/>
		<line fill="none" stroke="#FFFFFF" stroke-miterlimit="10" x1="0" y1="629.3" x2="4" y2="629.3"/>
		<line fill="none" stroke="#FFFFFF" stroke-miterlimit="10" x1="0" y1="613.2" x2="4" y2="613.2"/>
		<line fill="none" stroke="#FFFFFF" stroke-miterlimit="10" x1="0" y1="597.1" x2="4" y2="597.1"/>
		<line fill="none" stroke="#FFFFFF" stroke-miterlimit="10" x1="0" y1="580.9" x2="4" y2="580.9"/>
		<line fill="none" stroke="#FFFFFF" stroke-miterlimit="10" x1="0" y1="564.8" x2="4" y2="564.8"/>
		<line fill="none" stroke="#FFFFFF" stroke-miterlimit="10" x1="0" y1="548.7" x2="4" y2="548.7"/>
		<line fill="none" stroke="#FFFFFF" stroke-miterlimit="10" x1="0" y1="532.6" x2="4" y2="532.6"/>
		<line fill="none" stroke="#FFFFFF" stroke-miterlimit="10" x1="0" y1="516.4" x2="4" y2="516.4"/>
		<line fill="none" stroke="#FFFFFF" stroke-miterlimit="10" x1="0" y1="500.3" x2="4" y2="500.3"/>
		<line fill="none" stroke="#FFFFFF" stroke-miterlimit="10" x1="0" y1="484.2" x2="4" y2="484.2"/>
		<line fill="none" stroke="#FFFFFF" stroke-miterlimit="10" x1="0" y1="468.1" x2="4" y2="468.1"/>
		<line fill="none" stroke="#FFFFFF" stroke-miterlimit="10" x1="0" y1="451.9" x2="4" y2="451.9"/>
		<line fill="none" stroke="#FFFFFF" stroke-miterlimit="10" x1="0" y1="435.8" x2="4" y2="435.8"/>
		<line fill="none" stroke="#FFFFFF" stroke-miterlimit="10" x1="0" y1="419.7" x2="4" y2="419.7"/>
		<line fill="none" stroke="#FFFFFF" stroke-miterlimit="10" x1="0" y1="403.6" x2="4" y2="403.6"/>
		<line fill="none" stroke="#FFFFFF" stroke-miterlimit="10" x1="0" y1="387.5" x2="4" y2="387.5"/>
		<line fill="none" stroke="#FFFFFF" stroke-miterlimit="10" x1="0" y1="371.3" x2="4" y2="371.3"/>
		<line fill="none" stroke="#FFFFFF" stroke-miterlimit="10" x1="0" y1="355.2" x2="4" y2="355.2"/>
		<line fill="none" stroke="#FFFFFF" stroke-miterlimit="10" x1="0" y1="339.1" x2="4" y2="339.1"/>
		<line fill="none" stroke="#FFFFFF" stroke-miterlimit="10" x1="0" y1="323" x2="4" y2="323"/>
		<line fill="none" stroke="#FFFFFF" stroke-miterlimit="10" x1="0" y1="306.8" x2="4" y2="306.8"/>
		<line fill="none" stroke="#FFFFFF" stroke-miterlimit="10" x1="0" y1="290.7" x2="4" y2="290.7"/>
		<line fill="none" stroke="#FFFFFF" stroke-miterlimit="10" x1="0" y1="274.6" x2="4" y2="274.6"/>
		<line fill="none" stroke="#FFFFFF" stroke-miterlimit="10" x1="0" y1="258.5" x2="4" y2="258.5"/>
		<line fill="none" stroke="#FFFFFF" stroke-miterlimit="10" x1="0" y1="242.3" x2="4" y2="242.3"/>
		<line fill="none" stroke="#FFFFFF" stroke-miterlimit="10" x1="0" y1="226.2" x2="4" y2="226.2"/>
		<line fill="none" stroke="#FFFFFF" stroke-miterlimit="10" x1="0" y1="210.1" x2="4" y2="210.1"/>
		<line fill="none" stroke="#FFFFFF" stroke-miterlimit="10" x1="0" y1="194" x2="4" y2="194"/>
		<line fill="none" stroke="#FFFFFF" stroke-miterlimit="10" x1="0" y1="177.9" x2="4" y2="177.9"/>
		<line fill="none" stroke="#FFFFFF" stroke-miterlimit="10" x1="0" y1="161.7" x2="4" y2="161.7"/>
		<line fill="none" stroke="#FFFFFF" stroke-miterlimit="10" x1="0" y1="145.6" x2="4" y2="145.6"/>
		<line fill="none" stroke="#FFFFFF" stroke-miterlimit="10" x1="0" y1="129.5" x2="4" y2="129.5"/>
		<line fill="none" stroke="#FFFFFF" stroke-miterlimit="10" x1="0" y1="113.4" x2="4" y2="113.4"/>
		<line fill="none" stroke="#FFFFFF" stroke-miterlimit="10" x1="0" y1="97.2" x2="4" y2="97.2"/>
		<line fill="none" stroke="#FFFFFF" stroke-miterlimit="10" x1="0" y1="81.1" x2="4" y2="81.1"/>
		<line fill="none" stroke="#FFFFFF" stroke-miterlimit="10" x1="0" y1="65" x2="4" y2="65"/>
		<line fill="none" stroke="#FFFFFF" stroke-miterlimit="10" x1="0" y1="48.9" x2="4" y2="48.9"/>
		<line fill="none" stroke="#FFFFFF" stroke-miterlimit="10" x1="0" y1="32.7" x2="4" y2="32.7"/>
		<line fill="none" stroke="#FFFFFF" stroke-miterlimit="10" x1="0" y1="16.6" x2="4" y2="16.6"/>
		<line fill="none" stroke="#FFFFFF" stroke-miterlimit="10" x1="0" y1="0.5" x2="4" y2="0.5"/>
	</g>
</g>
</svg>
