<?xml version="1.0" encoding="utf-8"?>
<!-- Generator: Adobe Illustrator 30.2.1, SVG Export Plug-In . SVG Version: 9.03 Build 0)  -->
<svg version="1.1" baseProfile="tiny" id="Layer_1" xmlns="http://www.w3.org/2000/svg" xmlns:xlink="http://www.w3.org/1999/xlink"
	 x="0px" y="0px" viewBox="0 0 63 64" overflow="visible" xml:space="preserve">
<g id="XMLID_00000006673893722067932870000002850520378574943920_">
	<g>
		<path fill="#FFFFFF" d="M31.3,16.3l11,23.8l0,0.1l0,0.1c2.2,4.4,1.1,9.9-2.6,13.2l-0.1,0.1l-0.1,0.1c-2.2,2.2-5.3,3.5-8.2,3.5
			s-6.1-1.3-8.2-3.5c-3.4-3.4-4.4-8.7-2.6-13.9L31.3,16.3 M31.3,0L14.1,37.2c-2.8,7.6-1.4,15.8,4.1,21.3c3.4,3.4,8.3,5.5,13.1,5.5
			c4.8,0,9.6-2.1,13.1-5.5c6.2-5.5,7.6-14.5,4.1-21.3L31.3,0L31.3,0z"/>
		<g>
			
				<rect x="-3.4" y="35.4" transform="matrix(0.8519 -0.5236 0.5236 0.8519 -15.6732 22.2427)" fill="#FFFFFF" width="69.7" height="6.8"/>
		</g>
	</g>
</g>
</svg>
