<?xml version="1.0" encoding="utf-8"?>
<!-- Generator: Adobe Illustrator 30.2.1, SVG Export Plug-In . SVG Version: 9.03 Build 0)  -->
<svg version="1.1" baseProfile="tiny" id="animated"
	 xmlns="http://www.w3.org/2000/svg" xmlns:xlink="http://www.w3.org/1999/xlink" x="0px" y="0px" viewBox="0 0 440 30"
	 overflow="visible" xml:space="preserve">
<g id="Frame_1">
	<rect id="Bckgd_00000174562099174592108660000011739602621647188137_" fill="#FFFFFF" width="440" height="30"/>
	<path d="M130,0h-10l14.7,15L120,30h10l14.7-15L130,0z M110,0h-10l14.7,15L100,30h10l14.7-15L110,0z M170,0h-10l14.7,15L160,30h10
		l14.7-15L170,0z M190,0h-10l14.7,15L180,30h10l14.7-15L190,0z M150,0h-10l14.7,15L140,30h10l14.7-15L150,0z M30,0H20l14.7,15L20,30
		h10l14.7-15L30,0z M0,10.2v9.6L4.7,15L0,10.2z M10,0H0l14.7,15L0,30h10l14.7-15L10,0z M70,0H60l14.7,15L60,30h10l14.7-15L70,0z
		 M90,0H80l14.7,15L80,30h10l14.7-15L90,0z M50,0H40l14.7,15L40,30h10l14.7-15L50,0z M310,0h-10l14.7,15L300,30h10l14.7-15L310,0z
		 M390,0h-10l14.7,15L380,30h10l14.7-15L390,0z M370,0h-10l14.7,15L360,30h10l14.7-15L370,0z M350,0h-10l14.7,15L340,30h10l14.7-15
		L350,0z M410,0h-10l14.7,15L400,30h10l14.7-15L410,0z M210,0h-10l14.7,15L200,30h10l14.7-15L210,0z M430,0h-10l14.7,15L420,30h10
		l10-10.2v-9.6L430,0z M330,0h-10l14.7,15L320,30h10l14.7-15L330,0z M230,0h-10l14.7,15L220,30h10l14.7-15L230,0z M250,0h-10
		l14.7,15L240,30h10l14.7-15L250,0z M270,0h-10l14.7,15L260,30h10l14.7-15L270,0z M290,0h-10l14.7,15L280,30h10l14.7-15L290,0z"/>
</g>
<g id="Frame_2">
	<rect id="Bckgd" fill="#FFFFFF" width="440" height="30"/>
	<g>
		<polygon fill="none" points="22.9,0 12.9,0 27.6,15 12.9,30 22.9,30 37.6,15 		"/>
		<polygon fill="none" points="262.9,0 252.9,0 267.6,15 252.9,30 262.9,30 277.6,15 		"/>
		<polygon fill="none" points="82.9,0 72.9,0 87.6,15 72.9,30 82.9,30 97.6,15 		"/>
		<polygon fill="none" points="242.9,0 232.9,0 247.6,15 232.9,30 242.9,30 257.6,15 		"/>
		<polygon fill="none" points="62.9,0 52.9,0 67.6,15 52.9,30 62.9,30 77.6,15 		"/>
		<polygon fill="none" points="102.9,0 92.9,0 107.6,15 92.9,30 102.9,30 117.6,15 		"/>
		<polygon fill="none" points="42.9,0 32.9,0 47.6,15 32.9,30 42.9,30 57.6,15 		"/>
		<polygon fill="none" points="282.9,0 272.9,0 287.6,15 272.9,30 282.9,30 297.6,15 		"/>
		<polygon fill="none" points="142.9,0 132.9,0 147.6,15 132.9,30 142.9,30 157.6,15 		"/>
		<polygon fill="none" points="182.9,0 172.9,0 187.6,15 172.9,30 182.9,30 197.6,15 		"/>
		<polygon fill="none" points="222.9,0 212.9,0 227.6,15 212.9,30 222.9,30 237.6,15 		"/>
		<polygon fill="none" points="162.9,0 152.9,0 167.6,15 152.9,30 162.9,30 177.6,15 		"/>
		<polygon fill="none" points="122.9,0 112.9,0 127.6,15 112.9,30 122.9,30 137.6,15 		"/>
		<polygon fill="none" points="202.9,0 192.9,0 207.6,15 192.9,30 202.9,30 217.6,15 		"/>
		<polygon fill="none" points="302.9,0 292.9,0 307.6,15 292.9,30 302.9,30 317.6,15 		"/>
		<polygon fill="none" points="362.9,0 352.9,0 367.6,15 352.9,30 362.9,30 377.6,15 		"/>
		<polygon fill="none" points="402.9,0 392.9,0 407.6,15 392.9,30 402.9,30 417.6,15 		"/>
		<polygon fill="none" points="322.9,0 312.9,0 327.6,15 312.9,30 322.9,30 337.6,15 		"/>
		<polygon fill="none" points="422.9,0 412.9,0 427.6,15 412.9,30 422.9,30 437.6,15 		"/>
		<polygon fill="none" points="382.9,0 372.9,0 387.6,15 372.9,30 382.9,30 397.6,15 		"/>
		<polygon fill="none" points="2.9,0 0,0 0,7.3 7.6,15 0,22.7 0,30 2.9,30 17.6,15 		"/>
		<polygon fill="none" points="432.9,30 440,30 440,22.7 		"/>
		<polygon fill="none" points="440,0 432.9,0 440,7.3 		"/>
		<polygon fill="none" points="342.9,0 332.9,0 347.6,15 332.9,30 342.9,30 357.6,15 		"/>
		<polygon points="272.9,0 262.9,0 277.6,15 262.9,30 272.9,30 287.6,15 		"/>
		<polygon points="312.9,0 302.9,0 317.6,15 302.9,30 312.9,30 327.6,15 		"/>
		<polygon points="292.9,0 282.9,0 297.6,15 282.9,30 292.9,30 307.6,15 		"/>
		<polygon points="232.9,0 222.9,0 237.6,15 222.9,30 232.9,30 247.6,15 		"/>
		<polygon points="252.9,0 242.9,0 257.6,15 242.9,30 252.9,30 267.6,15 		"/>
		<polygon points="332.9,0 322.9,0 337.6,15 322.9,30 332.9,30 347.6,15 		"/>
		<polygon points="352.9,0 342.9,0 357.6,15 342.9,30 352.9,30 367.6,15 		"/>
		<polygon points="412.9,0 402.9,0 417.6,15 402.9,30 412.9,30 427.6,15 		"/>
		<polygon points="440,7.3 432.9,0 422.9,0 437.6,15 422.9,30 432.9,30 440,22.7 		"/>
		<polygon points="392.9,0 382.9,0 397.6,15 382.9,30 392.9,30 407.6,15 		"/>
		<polygon points="372.9,0 362.9,0 377.6,15 362.9,30 372.9,30 387.6,15 		"/>
		<polygon points="212.9,0 202.9,0 217.6,15 202.9,30 212.9,30 227.6,15 		"/>
		<polygon points="32.9,0 22.9,0 37.6,15 22.9,30 32.9,30 47.6,15 		"/>
		<polygon points="72.9,0 62.9,0 77.6,15 62.9,30 72.9,30 87.6,15 		"/>
		<polygon points="52.9,0 42.9,0 57.6,15 42.9,30 52.9,30 67.6,15 		"/>
		<polygon points="0,7.3 0,22.7 7.6,15 		"/>
		<polygon points="12.9,0 2.9,0 17.6,15 2.9,30 12.9,30 27.6,15 		"/>
		<polygon points="132.9,0 122.9,0 137.6,15 122.9,30 132.9,30 147.6,15 		"/>
		<polygon points="172.9,0 162.9,0 177.6,15 162.9,30 172.9,30 187.6,15 		"/>
		<polygon points="152.9,0 142.9,0 157.6,15 142.9,30 152.9,30 167.6,15 		"/>
		<polygon points="112.9,0 102.9,0 117.6,15 102.9,30 112.9,30 127.6,15 		"/>
		<polygon points="192.9,0 182.9,0 197.6,15 182.9,30 192.9,30 207.6,15 		"/>
		<polygon points="92.9,0 82.9,0 97.6,15 82.9,30 92.9,30 107.6,15 		"/>
	</g>
</g>
<g id="Frame_3">
	<rect id="Bckgd_00000023995413463808285090000010416292492119006884_" fill="#FFFFFF" width="440" height="30"/>
	<path d="M75.7,0h-10l14.7,15L65.7,30h10l14.7-15L75.7,0z M195.7,0h-10l14.7,15l-14.7,15h10l14.7-15L195.7,0z M95.7,0h-10l14.7,15
		L85.7,30h10l14.7-15L95.7,0z M115.7,0h-10l14.7,15l-14.7,15h10l14.7-15L115.7,0z M175.7,0h-10l14.7,15l-14.7,15h10l14.7-15L175.7,0
		z M155.7,0h-10l14.7,15l-14.7,15h10l14.7-15L155.7,0z M135.7,0h-10l14.7,15l-14.7,15h10l14.7-15L135.7,0z M0,4.4v10.2L0.4,15
		L0,15.4v10.2L10.4,15L0,4.4z M435.7,0h-10L440,14.6V4.4L435.7,0z M55.7,0h-10l14.7,15L45.7,30h10l14.7-15L55.7,0z M15.7,0h-10
		l14.7,15L5.7,30h10l14.7-15L15.7,0z M35.7,0h-10l14.7,15L25.7,30h10l14.7-15L35.7,0z M435.7,30l4.3-4.4V15.4L425.7,30H435.7z
		 M375.7,0h-10l14.7,15l-14.7,15h10l14.7-15L375.7,0z M335.7,0h-10l14.7,15l-14.7,15h10l14.7-15L335.7,0z M355.7,0h-10l14.7,15
		l-14.7,15h10l14.7-15L355.7,0z M395.7,0h-10l14.7,15l-14.7,15h10l14.7-15L395.7,0z M415.7,0h-10l14.7,15l-14.7,15h10l14.7-15
		L415.7,0z M215.7,0h-10l14.7,15l-14.7,15h10l14.7-15L215.7,0z M255.7,0h-10l14.7,15l-14.7,15h10l14.7-15L255.7,0z M235.7,0h-10
		l14.7,15l-14.7,15h10l14.7-15L235.7,0z M295.7,0h-10l14.7,15l-14.7,15h10l14.7-15L295.7,0z M275.7,0h-10l14.7,15l-14.7,15h10
		l14.7-15L275.7,0z M315.7,0h-10l14.7,15l-14.7,15h10l14.7-15L315.7,0z"/>
</g>
<g id="Frame_4">
	<rect id="Bckgd_00000062898725244768798640000015804109454902957952_" fill="#FFFFFF" width="440" height="30"/>
	<path d="M198.6,0h-10l14.7,15l-14.7,15h10l14.7-15L198.6,0z M118.6,0h-10l14.7,15l-14.7,15h10l14.7-15L118.6,0z M138.6,0h-10
		l14.7,15l-14.7,15h10l14.7-15L138.6,0z M178.6,0h-10l14.7,15l-14.7,15h10l14.7-15L178.6,0z M78.6,0h-10l14.7,15L68.6,30h10l14.7-15
		L78.6,0z M98.6,0h-10l14.7,15L88.6,30h10l14.7-15L98.6,0z M0,1.5v10.2L3.3,15L0,18.4v10.2L13.3,15L0,1.5z M438.6,0h-10L440,11.6
		V1.5L438.6,0z M58.6,0h-10l14.7,15L48.6,30h10l14.7-15L58.6,0z M18.6,0h-10l14.7,15L8.6,30h10l14.7-15L18.6,0z M38.6,0h-10l14.7,15
		L28.6,30h10l14.7-15L38.6,0z M158.6,0h-10l14.7,15l-14.7,15h10l14.7-15L158.6,0z M378.6,0h-10l14.7,15l-14.7,15h10l14.7-15L378.6,0
		z M398.6,0h-10l14.7,15l-14.7,15h10l14.7-15L398.6,0z M338.6,0h-10l14.7,15l-14.7,15h10l14.7-15L338.6,0z M358.6,0h-10l14.7,15
		l-14.7,15h10l14.7-15L358.6,0z M418.6,0h-10l14.7,15l-14.7,15h10l14.7-15L418.6,0z M438.6,30l1.4-1.5V18.4L428.6,30H438.6z
		 M258.6,0h-10l14.7,15l-14.7,15h10l14.7-15L258.6,0z M218.6,0h-10l14.7,15l-14.7,15h10l14.7-15L218.6,0z M238.6,0h-10l14.7,15
		l-14.7,15h10l14.7-15L238.6,0z M318.6,0h-10l14.7,15l-14.7,15h10l14.7-15L318.6,0z M278.6,0h-10l14.7,15l-14.7,15h10l14.7-15
		L278.6,0z M298.6,0h-10l14.7,15l-14.7,15h10l14.7-15L298.6,0z"/>
</g>
<g id="Frame_5">
	<rect id="Bckgd_00000173138843185669234760000012957841075634657709_" fill="#FFFFFF" width="440" height="30"/>
	<path d="M141.4,0h-10l14.7,15l-14.7,15h10l14.7-15L141.4,0z M121.4,0h-10l14.7,15l-14.7,15h10l14.7-15L121.4,0z M101.4,0h-10
		l14.7,15L91.4,30h10l14.7-15L101.4,0z M81.4,0h-10l14.7,15L71.4,30h10l14.7-15L81.4,0z M181.4,0h-10l14.7,15l-14.7,15h10l14.7-15
		L181.4,0z M161.4,0h-10l14.7,15l-14.7,15h10l14.7-15L161.4,0z M1.4,0H0v8.7L6.2,15L0,21.3V30h1.4l14.7-15L1.4,0z M201.4,0h-10
		l14.7,15l-14.7,15h10l14.7-15L201.4,0z M431.4,0l8.6,8.7V0H431.4z M21.4,0h-10l14.7,15L11.4,30h10l14.7-15L21.4,0z M61.4,0h-10
		l14.7,15L51.4,30h10l14.7-15L61.4,0z M41.4,0h-10l14.7,15L31.4,30h10l14.7-15L41.4,0z M341.4,0h-10l14.7,15l-14.7,15h10l14.7-15
		L341.4,0z M381.4,0h-10l14.7,15l-14.7,15h10l14.7-15L381.4,0z M361.4,0h-10l14.7,15l-14.7,15h10l14.7-15L361.4,0z M221.4,0h-10
		l14.7,15l-14.7,15h10l14.7-15L221.4,0z M401.4,0h-10l14.7,15l-14.7,15h10l14.7-15L401.4,0z M440,30v-8.7l-8.6,8.7H440z M421.4,0
		h-10l14.7,15l-14.7,15h10l14.7-15L421.4,0z M241.4,0h-10l14.7,15l-14.7,15h10l14.7-15L241.4,0z M261.4,0h-10l14.7,15l-14.7,15h10
		l14.7-15L261.4,0z M321.4,0h-10l14.7,15l-14.7,15h10l14.7-15L321.4,0z M281.4,0h-10l14.7,15l-14.7,15h10l14.7-15L281.4,0z M301.4,0
		h-10l14.7,15l-14.7,15h10l14.7-15L301.4,0z"/>
</g>
<g id="Frame_6">
	<rect id="Bckgd_00000086681203842934366830000013654355796825139349_" fill="#FFFFFF" width="440" height="30"/>
	<path d="M124.3,0h-10L129,15l-14.7,15h10L139,15L124.3,0z M144.3,0h-10L149,15l-14.7,15h10L159,15L144.3,0z M104.3,0h-10L109,15
		L94.3,30h10L119,15L104.3,0z M204.3,0h-10L209,15l-14.7,15h10L219,15L204.3,0z M184.3,0h-10L189,15l-14.7,15h10L199,15L184.3,0z
		 M64.3,0h-10L69,15L54.3,30h10L79,15L64.3,0z M24.3,0h-10L29,15L14.3,30h10L39,15L24.3,0z M4.3,0H0v5.8L9,15l-9,9.2V30h4.3L19,15
		L4.3,0z M44.3,0h-10L49,15L34.3,30h10L59,15L44.3,0z M84.3,0h-10L89,15L74.3,30h10L99,15L84.3,0z M434.3,0l5.7,5.8V0H434.3z
		 M164.3,0h-10L169,15l-14.7,15h10L179,15L164.3,0z M384.3,0h-10L389,15l-14.7,15h10L399,15L384.3,0z M404.3,0h-10L409,15l-14.7,15
		h10L419,15L404.3,0z M364.3,0h-10L369,15l-14.7,15h10L379,15L364.3,0z M224.3,0h-10L229,15l-14.7,15h10L239,15L224.3,0z M344.3,0
		h-10L349,15l-14.7,15h10L359,15L344.3,0z M440,30v-5.8l-5.7,5.8H440z M424.3,0h-10L429,15l-14.7,15h10L439,15L424.3,0z M244.3,0
		h-10L249,15l-14.7,15h10L259,15L244.3,0z M264.3,0h-10L269,15l-14.7,15h10L279,15L264.3,0z M304.3,0h-10L309,15l-14.7,15h10L319,15
		L304.3,0z M284.3,0h-10L289,15l-14.7,15h10L299,15L284.3,0z M324.3,0h-10L329,15l-14.7,15h10L339,15L324.3,0z"/>
</g>
<g id="Frame_7">
	<rect id="Bckgd_00000136410089545584826290000015241628459157058953_" fill="#FFFFFF" width="440" height="30"/>
	<path d="M107.1,0h-10l14.7,15L97.1,30h10l14.7-15L107.1,0z M127.1,0h-10l14.7,15l-14.7,15h10l14.7-15L127.1,0z M87.1,0h-10l14.7,15
		L77.1,30h10l14.7-15L87.1,0z M147.1,0h-10l14.7,15l-14.7,15h10l14.7-15L147.1,0z M67.1,0h-10l14.7,15L57.1,30h10l14.7-15L67.1,0z
		 M167.1,0h-10l14.7,15l-14.7,15h10l14.7-15L167.1,0z M0,13.1v3.8L1.9,15L0,13.1z M437.1,0l2.9,2.9V0H437.1z M187.1,0h-10l14.7,15
		l-14.7,15h10l14.7-15L187.1,0z M27.1,0h-10l14.7,15L17.1,30h10l14.7-15L27.1,0z M7.1,0H0v2.9L11.9,15L0,27.1V30h7.1l14.7-15L7.1,0z
		 M47.1,0h-10l14.7,15L37.1,30h10l14.7-15L47.1,0z M407.1,0h-10l14.7,15l-14.7,15h10l14.7-15L407.1,0z M207.1,0h-10l14.7,15
		l-14.7,15h10l14.7-15L207.1,0z M367.1,0h-10l14.7,15l-14.7,15h10l14.7-15L367.1,0z M347.1,0h-10l14.7,15l-14.7,15h10l14.7-15
		L347.1,0z M387.1,0h-10l14.7,15l-14.7,15h10l14.7-15L387.1,0z M417.1,0l14.7,15l-14.7,15h10L440,16.9v-3.8L427.1,0H417.1z M440,30
		v-2.9l-2.9,2.9H440z M327.1,0h-10l14.7,15l-14.7,15h10l14.7-15L327.1,0z M247.1,0h-10l14.7,15l-14.7,15h10l14.7-15L247.1,0z
		 M227.1,0h-10l14.7,15l-14.7,15h10l14.7-15L227.1,0z M287.1,0h-10l14.7,15l-14.7,15h10l14.7-15L287.1,0z M307.1,0h-10l14.7,15
		l-14.7,15h10l14.7-15L307.1,0z M267.1,0h-10l14.7,15l-14.7,15h10l14.7-15L267.1,0z"/>
</g>
<g id="Frame_8">
	<rect id="Bckgd_00000114766485301522353240000004692361317748412331_" fill="#FFFFFF" width="440" height="30"/>
	<path d="M130,0h-10l14.7,15L120,30h10l14.7-15L130,0z M110,0h-10l14.7,15L100,30h10l14.7-15L110,0z M90,0H80l14.7,15L80,30h10
		l14.7-15L90,0z M170,0h-10l14.7,15L160,30h10l14.7-15L170,0z M150,0h-10l14.7,15L140,30h10l14.7-15L150,0z M30,0H20l14.7,15L20,30
		h10l14.7-15L30,0z M0,10.2v9.6L4.7,15L0,10.2z M10,0H0l14.7,15L0,30h10l14.7-15L10,0z M190,0h-10l14.7,15L180,30h10l14.7-15L190,0z
		 M50,0H40l14.7,15L40,30h10l14.7-15L50,0z M70,0H60l14.7,15L60,30h10l14.7-15L70,0z M390,0h-10l14.7,15L380,30h10l14.7-15L390,0z
		 M370,0h-10l14.7,15L360,30h10l14.7-15L370,0z M350,0h-10l14.7,15L340,30h10l14.7-15L350,0z M330,0h-10l14.7,15L320,30h10l14.7-15
		L330,0z M410,0h-10l14.7,15L400,30h10l14.7-15L410,0z M430,0h-10l14.7,15L420,30h10l10-10.2v-9.6L430,0z M310,0h-10l14.7,15L300,30
		h10l14.7-15L310,0z M250,0h-10l14.7,15L240,30h10l14.7-15L250,0z M230,0h-10l14.7,15L220,30h10l14.7-15L230,0z M290,0h-10l14.7,15
		L280,30h10l14.7-15L290,0z M210,0h-10l14.7,15L200,30h10l14.7-15L210,0z M270,0h-10l14.7,15L260,30h10l14.7-15L270,0z"/>
</g>
</svg>
