<?xml version="1.0" encoding="utf-8"?>
<!-- Generator: Adobe Illustrator 30.2.1, SVG Export Plug-In . SVG Version: 9.03 Build 0)  -->
<svg version="1.1" baseProfile="tiny" id="Layer_1" xmlns="http://www.w3.org/2000/svg" xmlns:xlink="http://www.w3.org/1999/xlink"
	 x="0px" y="0px" viewBox="0 0 192.3 192.3" overflow="visible" xml:space="preserve">
<path fill="#FFFFFF" d="M97.3,184.4c-23,0.3-46.1-8.3-63.6-25.8c-34.5-34.5-34.5-90.3,0-124.8C51.3,16.2,74.4,7.6,97.3,7.9V0
	c-25-0.3-50.1,9.1-69.2,28.1c-37.6,37.6-37.6,98.4,0,136c19.1,19.1,44.2,28.4,69.2,28.1V184.4z M96.2,1.4v5c-0.5,0-1,0-1.5,0l-0.1-5
	C95.1,1.4,95.6,1.4,96.2,1.4z M93,1.5l0.2,5c-1,0-2,0.1-2.9,0.1l-0.3-5C90.9,1.6,92,1.5,93,1.5z M88.4,1.7l0.4,5
	c-1,0.1-2,0.2-2.9,0.3l-0.6-5C86.3,1.9,87.3,1.8,88.4,1.7z M83.7,2.2l0.6,5c-1,0.1-1.9,0.3-2.9,0.4l-0.8-4.9
	C81.7,2.5,82.7,2.4,83.7,2.2z M79.1,2.9L80,7.9c-1,0.2-1.9,0.4-2.9,0.6l-1.1-4.9C77.1,3.3,78.1,3.1,79.1,2.9z M74.6,3.9l1.1,4.9
	c-1,0.2-1.9,0.5-2.8,0.7l-1.3-4.8C72.6,4.4,73.6,4.1,74.6,3.9z M70.1,5.1l1.4,4.8c-0.9,0.3-1.9,0.6-2.8,0.9L67.1,6
	C68.1,5.6,69.1,5.3,70.1,5.1z M65.6,6.4l1.6,4.7c-0.9,0.3-1.8,0.6-2.8,1l-1.8-4.7C63.7,7.1,64.7,6.8,65.6,6.4z M61.3,8l1.8,4.6
	c-0.9,0.4-1.8,0.7-2.7,1.1l-2-4.6C59.4,8.8,60.3,8.4,61.3,8z M57,9.9l2.1,4.6c-0.9,0.4-1.8,0.8-2.6,1.3l-2.2-4.5
	C55.1,10.7,56.1,10.3,57,9.9z M52.8,11.9l2.3,4.4c-0.9,0.4-1.7,0.9-2.6,1.4l-2.4-4.4C51,12.8,51.9,12.4,52.8,11.9z M48.8,14.1
	l2.5,4.3c-0.8,0.5-1.7,1-2.5,1.5l-2.6-4.2C47,15.2,47.9,14.6,48.8,14.1z M44.8,16.5l2.7,4.2c-0.8,0.5-1.6,1.1-2.4,1.6l-2.8-4.1
	C43.1,17.7,43.9,17.1,44.8,16.5z M41,19.1l2.9,4.1c-0.8,0.6-1.6,1.2-2.4,1.7l-3-4C39.3,20.4,40.1,19.7,41,19.1z M37.3,21.9l3.1,3.9
	c-0.8,0.6-1.5,1.2-2.3,1.9l-3.2-3.8C35.7,23.2,36.5,22.6,37.3,21.9z M33.7,24.9l3.3,3.8c-0.7,0.6-1.5,1.3-2.2,2L31.4,27
	C32.2,26.3,32.9,25.6,33.7,24.9z M30.3,28.1l3.5,3.6c-0.7,0.7-1.4,1.4-2.1,2.1l-3.6-3.5C28.8,29.5,29.5,28.8,30.3,28.1z M27,31.4
	l3.6,3.4c-0.7,0.7-1.3,1.4-2,2.2l-3.8-3.3C25.6,32.9,26.3,32.1,27,31.4z M23.9,34.9l3.8,3.2c-0.6,0.7-1.3,1.5-1.9,2.3L22,37.3
	C22.6,36.4,23.3,35.6,23.9,34.9z M21,38.5l4,3c-0.6,0.8-1.2,1.6-1.8,2.4L19.1,41C19.7,40.1,20.4,39.3,21,38.5z M18.3,42.2l4.1,2.9
	c-0.6,0.8-1.1,1.6-1.6,2.4l-4.2-2.7C17.1,43.9,17.7,43.1,18.3,42.2z M15.7,46.1l4.2,2.6c-0.5,0.8-1,1.7-1.5,2.5l-4.3-2.5
	C14.6,47.9,15.1,47,15.7,46.1z M13.3,50.1l4.4,2.4c-0.5,0.9-0.9,1.7-1.4,2.6l-4.4-2.3C12.3,51.9,12.8,51,13.3,50.1z M11.2,54.3
	l4.5,2.2c-0.4,0.9-0.9,1.8-1.3,2.7l-4.6-2.1C10.3,56.1,10.7,55.2,11.2,54.3z M9.2,58.5l4.6,2c-0.4,0.9-0.8,1.8-1.1,2.7L8,61.4
	C8.4,60.4,8.8,59.4,9.2,58.5z M7.5,62.8l4.7,1.8c-0.3,0.9-0.7,1.8-1,2.8l-4.7-1.6C6.7,64.8,7.1,63.8,7.5,62.8z M5.9,67.2l4.8,1.5
	c-0.3,0.9-0.6,1.9-0.8,2.8L5,70.2C5.3,69.2,5.6,68.2,5.9,67.2z M4.6,71.7L9.4,73c-0.3,0.9-0.5,1.9-0.7,2.8l-4.9-1.1
	C4.1,73.7,4.3,72.7,4.6,71.7z M3.5,76.2l4.9,1c-0.2,1-0.4,1.9-0.6,2.9l-4.9-0.9C3.1,78.2,3.3,77.2,3.5,76.2z M2.7,80.8l4.9,0.8
	c-0.2,1-0.3,1.9-0.4,2.9l-5-0.6C2.3,82.8,2.5,81.8,2.7,80.8z M2,85.4l5,0.6c-0.1,1-0.2,1.9-0.3,2.9l-5-0.4C1.8,87.4,1.9,86.4,2,85.4
	z M1.6,90l5,0.3c-0.1,1-0.1,2-0.1,2.9l-5-0.2C1.5,92.1,1.5,91,1.6,90z M1.4,96.2c0-0.5,0-1,0-1.5l5,0.1c0,0.5,0,1,0,1.4
	c0,0.5,0,1,0,1.5l-5,0.1C1.4,97.2,1.4,96.7,1.4,96.2z M1.5,99.3l5-0.2c0,1,0.1,2,0.1,2.9l-5,0.3C1.5,101.4,1.5,100.3,1.5,99.3z
	 M1.7,103.9l5-0.4c0.1,1,0.2,2,0.3,2.9L2,107C1.9,106,1.8,105,1.7,103.9z M2.2,108.6l5-0.6c0.1,1,0.3,1.9,0.4,2.9l-4.9,0.8
	C2.5,110.6,2.4,109.6,2.2,108.6z M2.9,113.2l4.9-0.9c0.2,1,0.4,1.9,0.6,2.9l-4.9,1.1C3.3,115.2,3.1,114.2,2.9,113.2z M3.9,117.7
	l4.9-1.1c0.2,1,0.5,1.9,0.7,2.8l-4.8,1.3C4.4,119.7,4.1,118.7,3.9,117.7z M5,122.2l4.8-1.4c0.3,0.9,0.6,1.9,0.9,2.8l-4.8,1.5
	C5.6,124.2,5.3,123.2,5,122.2z M6.4,126.7l4.7-1.6c0.3,0.9,0.6,1.8,1,2.8l-4.7,1.8C7.1,128.6,6.8,127.6,6.4,126.7z M8,131l4.6-1.8
	c0.4,0.9,0.7,1.8,1.1,2.7l-4.6,2C8.8,132.9,8.4,132,8,131z M9.8,135.3l4.6-2.1c0.4,0.9,0.8,1.8,1.3,2.6l-4.5,2.2
	C10.7,137.2,10.3,136.2,9.8,135.3z M11.9,139.5l4.4-2.3c0.4,0.9,0.9,1.7,1.4,2.6l-4.4,2.4C12.8,141.3,12.3,140.4,11.9,139.5z
	 M14.1,143.5l4.3-2.5c0.5,0.8,1,1.7,1.5,2.5l-4.2,2.6C15.1,145.3,14.6,144.4,14.1,143.5z M16.5,147.5l4.2-2.7
	c0.5,0.8,1.1,1.6,1.6,2.4l-4.1,2.8C17.6,149.2,17.1,148.4,16.5,147.5z M19.1,151.3l4.1-2.9c0.6,0.8,1.2,1.6,1.7,2.4l-4,3
	C20.3,153,19.7,152.2,19.1,151.3z M21.9,155l3.9-3.1c0.6,0.8,1.2,1.5,1.9,2.3l-3.8,3.2C23.2,156.6,22.6,155.8,21.9,155z M24.9,158.6
	l3.8-3.3c0.6,0.7,1.3,1.5,2,2.2l-3.7,3.4C26.3,160.1,25.6,159.4,24.9,158.6z M28,162l3.6-3.5c0.7,0.7,1.4,1.4,2.1,2.1l-3.5,3.6
	C29.5,163.5,28.8,162.8,28,162z M31.4,165.3l3.4-3.6c0.7,0.7,1.4,1.3,2.2,2l-3.3,3.8C32.9,166.7,32.1,166,31.4,165.3z M34.8,168.4
	l3.2-3.8c0.7,0.6,1.5,1.3,2.3,1.9l-3.1,3.9C36.4,169.7,35.6,169.1,34.8,168.4z M38.4,171.3l3.1-4c0.8,0.6,1.6,1.2,2.4,1.8l-2.9,4.1
	C40.1,172.6,39.3,171.9,38.4,171.3z M42.2,174.1l2.9-4.1c0.8,0.6,1.6,1.1,2.4,1.6l-2.7,4.2C43.9,175.2,43.1,174.6,42.2,174.1z
	 M46.1,176.6l2.6-4.2c0.8,0.5,1.7,1,2.5,1.5l-2.5,4.3C47.9,177.7,47,177.2,46.1,176.6z M50.1,179l2.4-4.4c0.9,0.5,1.7,0.9,2.6,1.4
	l-2.3,4.4C51.9,180,51,179.5,50.1,179z M54.2,181.2l2.2-4.5c0.9,0.4,1.8,0.9,2.7,1.3l-2.1,4.6C56.1,182.1,55.2,181.6,54.2,181.2z
	 M58.5,183.1l2-4.6c0.9,0.4,1.8,0.8,2.7,1.1l-1.8,4.7C60.4,183.9,59.4,183.5,58.5,183.1z M62.8,184.9l1.8-4.7c0.9,0.3,1.8,0.7,2.8,1
	l-1.6,4.7C64.7,185.6,63.7,185.2,62.8,184.9z M70.2,187.3c-1-0.3-2-0.6-3-0.9l1.5-4.8c0.9,0.3,1.9,0.6,2.8,0.9L70.2,187.3z
	 M74.7,188.5c-1-0.2-2-0.5-3-0.8l1.3-4.8c0.9,0.3,1.9,0.5,2.8,0.7L74.7,188.5z M79.2,189.4c-1-0.2-2-0.4-3-0.6l1.1-4.9
	c1,0.2,1.9,0.4,2.9,0.6L79.2,189.4z M83.8,190.1c-1-0.1-2.1-0.3-3.1-0.5l0.8-4.9c1,0.2,1.9,0.3,2.9,0.4L83.8,190.1z M88.4,190.6
	c-1-0.1-2.1-0.2-3.1-0.3l0.6-5c1,0.1,1.9,0.2,2.9,0.3L88.4,190.6z M93.1,190.9c-1,0-2.1-0.1-3.1-0.1l0.3-5c1,0.1,2,0.1,2.9,0.1
	L93.1,190.9z M96.2,190.9c-0.5,0-1,0-1.5,0l0.1-5c0.5,0,1,0,1.5,0V190.9z"/>
</svg>
