<?xml version="1.0" encoding="utf-8"?>
<!-- Generator: Adobe Illustrator 30.2.1, SVG Export Plug-In . SVG Version: 9.03 Build 0)  -->
<svg version="1.1" baseProfile="tiny" id="Layer_1" xmlns="http://www.w3.org/2000/svg" xmlns:xlink="http://www.w3.org/1999/xlink"
	 x="0px" y="0px" viewBox="0 0 76.6 78.4" overflow="visible" xml:space="preserve">
<g>
	<g>
		<g>
			<path fill="#FFFFFF" d="M48.1,78.4H28.5c-4.3,0-9.9-2.3-13-5.4L5.4,62.8C2.3,59.7,0,54.2,0,49.8V28.5c0-4.3,2.3-9.9,5.4-13
				L15.6,5.4c3.1-3.1,8.6-5.4,13-5.4h19.6c4.3,0,9.9,2.3,13,5.4l10.2,10.2c3.1,3.1,5.4,8.6,5.4,13v21.3c0,4.3-2.3,9.9-5.4,13
				L61.1,73C58,76,52.4,78.4,48.1,78.4z M28.5,1c-4.1,0-9.4,2.2-12.3,5.1L6.1,16.3C3.2,19.2,1,24.4,1,28.5v21.3
				c0,4.1,2.2,9.4,5.1,12.3l10.2,10.2c2.9,2.9,8.2,5.1,12.3,5.1h19.6c4.1,0,9.4-2.2,12.3-5.1l10.2-10.2c2.9-2.9,5.1-8.2,5.1-12.3
				V28.5c0-4.1-2.2-9.4-5.1-12.3L60.4,6.1C57.5,3.2,52.2,1,48.1,1H28.5z"/>
		</g>
	</g>
</g>
</svg>
