<?xml version="1.0" encoding="utf-8"?>
<!-- Generator: Adobe Illustrator 30.2.1, SVG Export Plug-In . SVG Version: 9.03 Build 0)  -->
<svg version="1.1" baseProfile="tiny" id="Layer_1" xmlns="http://www.w3.org/2000/svg" xmlns:xlink="http://www.w3.org/1999/xlink"
	 x="0px" y="0px" viewBox="0 0 175.2 175.2" overflow="visible" xml:space="preserve">
<path fill="#FFFFFF" d="M149.6,25.7c-34.2-34.2-89.7-34.2-123.9,0s-34.2,89.7,0,123.9s89.7,34.2,123.9,0S183.8,59.9,149.6,25.7z
	 M173.6,84.2l-12,0.5c-0.1-1.8-0.2-3.7-0.4-5.5l11.9-1.3C173.4,79.9,173.6,82.1,173.6,84.2z M172.7,74.6l-11.9,1.8
	c-0.3-1.8-0.6-3.7-1-5.4l11.7-2.7C172,70.4,172.4,72.5,172.7,74.6z M170.8,65.2l-11.6,3.1c-0.5-1.8-1-3.6-1.6-5.3l11.3-4
	C169.6,61,170.2,63.1,170.8,65.2z M138.7,138.7c-28.2,28.2-73.9,28.2-102.2,0s-28.2-73.9,0-102.2s73.9-28.2,102.2,0
	C166.9,64.7,166.9,110.5,138.7,138.7z M167.7,56l-11.2,4.4c-0.7-1.7-1.4-3.4-2.2-5.1l10.8-5.2C166.1,52,166.9,54,167.7,56z
	 M163.7,47.2l-10.6,5.6c-0.9-1.6-1.8-3.2-2.8-4.8l10.1-6.4C161.6,43.5,162.7,45.4,163.7,47.2z M158.7,39l-9.9,6.8
	c-1-1.5-2.2-3-3.3-4.5l9.4-7.5C156.2,35.5,157.5,37.2,158.7,39z M152.8,31.4l-9.1,7.8c-1.2-1.4-2.5-2.8-3.8-4.1l8.5-8.5
	C149.9,28.2,151.4,29.7,152.8,31.4z M146.1,24.4l-8.2,8.8c-1.3-1.2-2.8-2.5-4.2-3.6l7.5-9.4C142.9,21.5,144.5,23,146.1,24.4z
	 M138.7,18.3l-7.1,9.7c-1.5-1.1-3-2.1-4.6-3.1l6.4-10.2C135.1,15.8,136.9,17,138.7,18.3z M130.6,13l-6,10.4
	c-1.6-0.9-3.2-1.8-4.9-2.6l5.2-10.8C126.8,10.9,128.7,11.9,130.6,13z M121.9,8.6l-4.8,11c-1.7-0.7-3.4-1.4-5.2-2l3.9-11.3
	C118,7,120,7.8,121.9,8.6z M106.6,3.6c2.1,0.5,4.2,1,6.2,1.7l-3.5,11.5c-1.8-0.5-3.6-1-5.4-1.4L106.6,3.6z M97.1,2
	c2.1,0.2,4.3,0.6,6.4,0.9l-2.2,11.8c-1.8-0.3-3.6-0.6-5.5-0.8L97.1,2z M87.7,1.5c2,0,4.1,0.1,6.2,0.2l-0.9,12
	c-1.8-0.1-3.6-0.2-5.4-0.2l-0.1-12L87.7,1.5z M84.3,1.6l0.5,12c-1.8,0.1-3.7,0.2-5.5,0.4L77.9,2C80,1.8,82.1,1.6,84.3,1.6z
	 M74.7,2.5l1.8,11.9c-1.8,0.3-3.6,0.6-5.4,1L68.3,3.7C70.4,3.2,72.6,2.8,74.7,2.5z M65.2,4.4L68.3,16c-1.8,0.5-3.6,1-5.3,1.6
	l-4-11.3C61.1,5.6,63.1,5,65.2,4.4z M56,7.5l4.4,11.2c-1.7,0.7-3.4,1.4-5.1,2.2l-5.2-10.8C52.1,9.1,54.1,8.3,56,7.5z M47.3,11.5
	l5.6,10.6c-1.6,0.9-3.2,1.8-4.8,2.8l-6.4-10.1C43.5,13.6,45.4,12.5,47.3,11.5z M39,16.5l6.8,9.9c-1.5,1-3,2.1-4.5,3.3l-7.5-9.4
	C35.5,19,37.3,17.7,39,16.5z M31.4,22.4l7.8,9.1c-1.4,1.2-2.8,2.5-4.1,3.8l-8.5-8.5C28.2,25.3,29.8,23.8,31.4,22.4z M24.4,29.1
	l8.8,8.2c-1.3,1.3-2.5,2.8-3.6,4.2L20.2,34C21.6,32.3,23,30.7,24.4,29.1z M18.3,36.5l9.7,7.1c-1.1,1.5-2.1,3-3.1,4.6l-10.2-6.4
	C15.8,40,17,38.2,18.3,36.5z M13,44.6l10.4,6c-0.9,1.6-1.8,3.2-2.6,4.9L10,50.3C10.9,48.4,11.9,46.5,13,44.6z M8.6,53.2l11,4.8
	c-0.7,1.7-1.4,3.4-2,5.2l-11.3-4C7,57.2,7.8,55.2,8.6,53.2z M5.3,62.3l11.5,3.5c-0.5,1.8-1,3.6-1.4,5.4L3.6,68.5
	C4.1,66.5,4.6,64.4,5.3,62.3z M3,71.7l11.8,2.2c-0.3,1.8-0.6,3.6-0.8,5.5L2,78.1C2.3,75.9,2.6,73.8,3,71.7z M1.5,87.6
	c0-2.1,0.1-4.3,0.2-6.3l12,0.9c-0.1,1.8-0.2,3.6-0.2,5.5l0,0.1L1.5,87.6L1.5,87.6z M1.6,90.9l12-0.5c0.1,1.8,0.2,3.7,0.4,5.5L2,97.3
	C1.8,95.2,1.6,93,1.6,90.9z M2.5,100.5l11.9-1.8c0.3,1.8,0.6,3.6,1,5.4l-11.7,2.7C3.2,104.8,2.8,102.6,2.5,100.5z M4.4,110l11.6-3.1
	c0.5,1.8,1,3.6,1.6,5.3l-11.3,4C5.6,114.1,5,112,4.4,110z M7.5,119.1l11.2-4.4c0.7,1.7,1.4,3.4,2.2,5.1L10,125
	C9.1,123.1,8.2,121.1,7.5,119.1z M11.5,127.9l10.6-5.6c0.9,1.6,1.8,3.2,2.8,4.8l-10.2,6.4C13.6,131.7,12.5,129.8,11.5,127.9z
	 M16.5,136.2l9.9-6.8c1,1.5,2.1,3,3.3,4.5l-9.4,7.5C19,139.7,17.7,137.9,16.5,136.2z M22.4,143.8l9.1-7.8c1.2,1.4,2.5,2.8,3.8,4.1
	l-8.5,8.5C25.2,147,23.8,145.4,22.4,143.8z M29.1,150.7l8.2-8.8c1.3,1.2,2.8,2.5,4.2,3.6l-7.5,9.4C32.3,153.6,30.6,152.2,29.1,150.7
	z M36.5,156.9l7.1-9.7c1.5,1.1,3,2.1,4.6,3.1l-6.4,10.2C40,159.4,38.2,158.2,36.5,156.9z M44.6,162.2l6-10.4
	c1.6,0.9,3.2,1.8,4.9,2.6l-5.2,10.8C48.3,164.3,46.4,163.3,44.6,162.2z M53.2,166.6l4.8-11c1.7,0.7,3.4,1.4,5.2,2l-4,11.3
	C57.2,168.2,55.2,167.4,53.2,166.6z M68.5,171.6c-2.1-0.5-4.2-1-6.2-1.7l3.5-11.5c1.8,0.5,3.6,1,5.3,1.4L68.5,171.6z M78,173.2
	c-2.1-0.2-4.3-0.6-6.4-1l2.2-11.8c1.8,0.3,3.6,0.6,5.5,0.8L78,173.2z M87.6,173.7c-2.1,0-4.3-0.1-6.4-0.2l0.9-12
	c1.8,0.1,3.7,0.2,5.5,0.2V173.7L87.6,173.7z M90.9,173.7l-0.4-12c1.9-0.1,3.7-0.2,5.5-0.4l1.3,11.9C95.2,173.4,93,173.6,90.9,173.7z
	 M100.5,172.8l-1.8-11.9c1.8-0.3,3.6-0.6,5.4-1l2.7,11.7C104.7,172,102.6,172.4,100.5,172.8z M109.9,170.8l-3.1-11.6
	c1.8-0.5,3.5-1,5.3-1.6l4,11.3C114.1,169.6,112,170.2,109.9,170.8z M119.1,167.8l-4.4-11.2c1.7-0.7,3.4-1.4,5.1-2.2l5.2,10.8
	C123.1,166.1,121.1,167,119.1,167.8z M127.9,163.7l-5.6-10.6c1.6-0.9,3.2-1.8,4.8-2.8l6.4,10.2C131.6,161.7,129.8,162.7,127.9,163.7
	z M136.1,158.8l-6.8-9.9c1.5-1,3-2.1,4.5-3.3l7.5,9.4C139.6,156.3,137.9,157.5,136.1,158.8z M143.8,152.9l-7.8-9.1
	c1.4-1.2,2.8-2.5,4.1-3.8l8.5,8.5C147,150,145.4,151.5,143.8,152.9z M150.7,146.2l-8.8-8.2c1.3-1.4,2.5-2.8,3.6-4.2l9.4,7.5
	C153.6,143,152.2,144.6,150.7,146.2z M156.9,138.8l-9.7-7.1c1.1-1.5,2.1-3,3.1-4.6l10.2,6.4C159.4,135.2,158.2,137,156.9,138.8z
	 M162.2,130.7l-10.4-6c0.9-1.6,1.8-3.2,2.6-4.9l10.8,5.2C164.3,126.9,163.3,128.8,162.2,130.7z M166.5,122.1l-11-4.8
	c0.7-1.7,1.4-3.4,2-5.2l11.3,4C168.2,118.1,167.4,120.1,166.5,122.1z M169.9,113l-11.5-3.5c0.5-1.8,1-3.6,1.4-5.3l11.7,2.7
	C171.1,108.8,170.5,110.9,169.9,113z M172.2,103.6l-11.8-2.2c0.3-1.8,0.6-3.7,0.8-5.5l11.9,1.3C172.9,99.4,172.6,101.5,172.2,103.6z
	 M173.5,94l-12-0.9c0.1-1.8,0.2-3.7,0.2-5.5v-0.1h12v0.1C173.7,89.7,173.6,91.9,173.5,94z"/>
</svg>
