<?xml version="1.0" encoding="utf-8"?>
<!-- Generator: Adobe Illustrator 30.2.1, SVG Export Plug-In . SVG Version: 9.03 Build 0)  -->
<svg version="1.1" baseProfile="tiny" id="Layer_1" xmlns="http://www.w3.org/2000/svg" xmlns:xlink="http://www.w3.org/1999/xlink"
	 x="0px" y="0px" viewBox="0 0 60 60" overflow="visible" xml:space="preserve">
<path fill="#FFFFFF" d="M26.2,31.8V15.7c0-2,1.6-3.8,3.8-3.8l0,0c2,0,3.8,1.6,3.8,3.8v16.1c0,2-1.6,3.8-3.8,3.8l0,0
	C28,35.6,26.2,34,26.2,31.8z M25.9,44L25.9,44c0-2.2,1.8-4.1,4.1-4.1l0,0c2.2,0,4.1,1.8,4.1,4.1l0,0c0,2.2-1.8,4.1-4.1,4.1l0,0
	C27.8,48,25.9,46.2,25.9,44z M30,4.6C44,4.6,55.4,16,55.4,30S44,55.4,30,55.4S4.6,44,4.6,30S16,4.6,30,4.6 M30,0C13.5,0,0,13.5,0,30
	s13.4,30,30,30s30-13.5,30-30S46.5,0,30,0L30,0z"/>
</svg>
