<?xml version="1.0" encoding="utf-8"?>
<!-- Generator: Adobe Illustrator 30.2.1, SVG Export Plug-In . SVG Version: 9.03 Build 0)  -->
<svg version="1.1" baseProfile="tiny" id="Layer_1" xmlns="http://www.w3.org/2000/svg" xmlns:xlink="http://www.w3.org/1999/xlink"
	 x="0px" y="0px" viewBox="0 0 120.7 131" overflow="visible" xml:space="preserve">
<path fill="none" stroke="#FFFFFF" stroke-width="1.9999" stroke-miterlimit="10" d="M3.2,33.3c5-8.5,16-11.1,33.6-7.7
	c2.4-7.4,5.6-13.4,9.5-17.6c4.1-4.7,8.7-7,13.9-7c10.2,0,18,8.3,23.6,24.7c17.3-3.4,28.6-0.9,33.6,7.7s1.5,19.3-10.2,32.3
	c5.4,6,9.1,11.7,10.8,17c2,5.7,1.7,10.8-0.7,15.1c-3.7,6-10.4,9.1-20.6,9.1c-3.7,0-8-0.4-12.8-1.5C78.5,121.7,70.7,130,60.5,130
	c-5,0-9.8-2.3-13.9-7c-3.9-4.3-7.2-10.2-9.5-17.9c-4.8,0.9-9.1,1.5-13,1.5c-10.2,0-17.1-3-20.4-9.1c-2.6-4.3-3-9.4-0.9-15.1
	c1.7-5.3,5.4-11.1,10.8-17C1.5,52.4-1.7,41.8,3.2,33.3z M100.8,96c3.7-0.6,6.1-1.7,7.2-3.6c1.1-1.7,0.9-4.3-0.7-7.7
	c-1.5-3.6-4.1-7.4-7.8-11.7c-2.6,2.6-6.3,5.3-10.6,8.7c-0.4,4.7-1.3,9.1-2.2,13.4C92.1,96.2,96.9,96.4,100.8,96z M47.2,102.8
	c1.7,5.3,3.9,9.4,6.3,12.5c2.4,2.8,4.6,4.3,6.5,4.3c2.2,0,4.3-1.5,6.7-4.3c2.4-3,4.6-7.2,6.3-12.5l-13-4.9L47.2,102.8z M43.6,89.6
	l0.7,2.8l2.8-0.9L43.6,89.6z M76.1,92.4l0.7-2.8L75,90.7l-1.7,0.9L76.1,92.4z M45.5,40.5l1.7-1.1l-2.8-0.9l-0.7,2.8L45.5,40.5z
	 M73.3,39.5l3.5,1.9l-0.7-2.8L73.3,39.5z M78.5,76V55.2l-8.9-5.3c-0.7-0.4-3.9-1.9-9.3-4.9c-5,2.8-8.2,4.5-9.3,4.9L42,55.2
	c-0.4,3.4-0.7,7-0.7,10.4c0,3.6,0.2,7,0.7,10.2c4.1,2.8,7.2,4.5,8.9,5.5l9.3,4.9L78.5,76z M89.7,63.7v3.8l2.4-1.9L89.7,63.7z
	 M107.3,46.5c1.5-3.4,1.7-6,0.7-7.9c-0.9-1.7-3.3-3-7.2-3.4c-3.9-0.6-8.7-0.4-14.1,0.6c0.9,4.3,1.5,8.7,2.2,13.6
	c4.1,2.8,7.6,5.7,10.6,8.5C103.2,53.9,105.8,50.1,107.3,46.5z M66.8,16.1c-2.4-3-4.6-4.5-6.7-4.5c-2,0-4.3,1.5-6.5,4.5
	c-2.4,3-4.6,7-6.3,12.3L60,33.3l13-4.9C71.3,23.1,69.1,19.1,66.8,16.1z M19.7,96c3.9,0.4,8.7,0.2,14.1-0.9c-1.3-5.5-2-10-2.2-13.4
	c-4.3-3.2-7.8-6.2-10.8-8.7c-3.7,4.3-6.1,8.1-7.6,11.7c-1.5,3.4-1.7,6-0.7,7.7C13.6,94.3,16,95.4,19.7,96z M28.4,65.6l2.4,1.9
	l-0.2-1.9l0.2-1.9L28.4,65.6z M33.8,36.1c-3.7-0.6-7.2-1.1-10-1.1c-6.1,0-10,1.3-11.3,3.8c-1.1,1.7-0.9,4.5,0.7,7.9
	c1.5,3.6,3.9,7.4,7.6,11.5c3.5-3,7.2-5.7,10.8-8.5C31.9,46.1,32.7,41.6,33.8,36.1z"/>
</svg>
