<?xml version="1.0" encoding="utf-8"?>
<!-- Generator: Adobe Illustrator 25.0.0, SVG Export Plug-In . SVG Version: 6.00 Build 0)  -->
<svg version="1.1" id="Layer_1" xmlns="http://www.w3.org/2000/svg" xmlns:xlink="http://www.w3.org/1999/xlink" x="0px" y="0px"
	 width="1175px" height="107px" viewBox="0 0 1175 107" style="enable-background:new 0 0 1175 107;" xml:space="preserve">
<polygon points="1090.7,86.9 1063,86.9 1040.3,78.9 1040.8,77.5 1063.3,85.4 1090.7,85.4 "/>
<rect x="1035.5" y="74.8" transform="matrix(0.3048 -0.9524 0.9524 0.3048 647.3051 1040.2505)" width="1.5" height="3.8"/>
<polygon points="112.5,86.9 84.8,86.9 84.8,85.4 112.2,85.4 134.7,77.5 135.2,78.9 "/>
<rect x="137.3" y="75.9" transform="matrix(0.9524 -0.3049 0.3049 0.9524 -16.7456 46.0908)" width="3.8" height="1.5"/>
<path d="M615.1,74.5h-1.5v-1.1c0-1.4-1.2-2.6-2.6-2.6h-41.6c-1.4,0-2.6,1.2-2.6,2.6v1.1h-1.5v-1.1c0-2.3,1.8-4.1,4.1-4.1H611
	c2.3,0,4.1,1.8,4.1,4.1V74.5z"/>
</svg>
