<?xml version="1.0" encoding="utf-8"?>
<!-- Generator: Adobe Illustrator 22.1.0, SVG Export Plug-In . SVG Version: 6.00 Build 0)  -->
<svg version="1.1" id="Layer_1" xmlns="http://www.w3.org/2000/svg" xmlns:xlink="http://www.w3.org/1999/xlink" x="0px" y="0px"
	 width="595.3px" height="841.9px" viewBox="0 0 595.3 841.9" style="enable-background:new 0 0 595.3 841.9;" xml:space="preserve"
	>
<style type="text/css">
	.st0{fill:#943735;}
</style>
<g>
	<polygon class="st0" points="-68.5,365 -178.5,475 -165.5,475 -55.5,365 	"/>
	<polygon class="st0" points="-88.5,365 -198.5,475 -185.5,475 -75.5,365 	"/>
	<polygon class="st0" points="491.5,365 381.5,475 394.5,475 504.5,365 	"/>
	<polygon class="st0" points="511.5,365 401.5,475 414.5,475 524.5,365 	"/>
	<polygon class="st0" points="451.5,365 341.5,475 354.5,475 464.5,365 	"/>
	<polygon class="st0" points="411.5,365 301.5,475 314.5,475 424.5,365 	"/>
	<polygon class="st0" points="-28.5,365 -138.5,475 -125.5,475 -15.5,365 	"/>
	<polygon class="st0" points="431.5,365 321.5,475 334.5,475 444.5,365 	"/>
	<polygon class="st0" points="531.5,365 421.5,475 434.5,475 544.5,365 	"/>
	<polygon class="st0" points="-48.5,365 -158.5,475 -145.5,475 -35.5,365 	"/>
	<polygon class="st0" points="471.5,365 361.5,475 374.5,475 484.5,365 	"/>
	<polygon class="st0" points="611.5,365 501.5,475 514.5,475 624.5,365 	"/>
	<polygon class="st0" points="-168.5,365 -242,438.5 -242,451.5 -155.5,365 	"/>
	<polygon class="st0" points="551.5,365 441.5,475 454.5,475 564.5,365 	"/>
	<polygon class="st0" points="651.5,365 541.5,475 554.5,475 664.5,365 	"/>
	<polygon class="st0" points="-148.5,365 -242,458.5 -242,471.5 -135.5,365 	"/>
	<polygon class="st0" points="-108.5,365 -218.5,475 -205.5,475 -95.5,365 	"/>
	<polygon class="st0" points="591.5,365 481.5,475 494.5,475 604.5,365 	"/>
	<polygon class="st0" points="571.5,365 461.5,475 474.5,475 584.5,365 	"/>
	<polygon class="st0" points="-128.5,365 -238.5,475 -225.5,475 -115.5,365 	"/>
	<polygon class="st0" points="631.5,365 521.5,475 534.5,475 644.5,365 	"/>
	<polygon class="st0" points="251.5,365 141.5,475 154.5,475 264.5,365 	"/>
	<polygon class="st0" points="211.5,365 101.5,475 114.5,475 224.5,365 	"/>
	<polygon class="st0" points="111.5,365 1.5,475 14.5,475 124.5,365 	"/>
	<polygon class="st0" points="71.5,365 -38.5,475 -25.5,475 84.5,365 	"/>
	<polygon class="st0" points="91.5,365 -18.5,475 -5.5,475 104.5,365 	"/>
	<polygon class="st0" points="271.5,365 161.5,475 174.5,475 284.5,365 	"/>
	<polygon class="st0" points="231.5,365 121.5,475 134.5,475 244.5,365 	"/>
	<polygon class="st0" points="191.5,365 81.5,475 94.5,475 204.5,365 	"/>
	<polygon class="st0" points="171.5,365 61.5,475 74.5,475 184.5,365 	"/>
	<polygon class="st0" points="151.5,365 41.5,475 54.5,475 164.5,365 	"/>
	<polygon class="st0" points="291.5,365 181.5,475 194.5,475 304.5,365 	"/>
	<polygon class="st0" points="-8.5,365 -118.5,475 -105.5,475 4.5,365 	"/>
	<polygon class="st0" points="11.5,365 -98.5,475 -85.5,475 24.5,365 	"/>
	<polygon class="st0" points="391.5,365 281.5,475 294.5,475 404.5,365 	"/>
	<polygon class="st0" points="351.5,365 241.5,475 254.5,475 364.5,365 	"/>
	<polygon class="st0" points="371.5,365 261.5,475 274.5,475 384.5,365 	"/>
	<polygon class="st0" points="311.5,365 201.5,475 214.5,475 324.5,365 	"/>
	<polygon class="st0" points="31.5,365 -78.5,475 -65.5,475 44.5,365 	"/>
	<polygon class="st0" points="51.5,365 -58.5,475 -45.5,475 64.5,365 	"/>
	<polygon class="st0" points="331.5,365 221.5,475 234.5,475 344.5,365 	"/>
	<polygon class="st0" points="131.5,365 21.5,475 34.5,475 144.5,365 	"/>
	<polygon class="st0" points="838,418.5 781.5,475 794.5,475 838,431.5 	"/>
	<polygon class="st0" points="711.5,365 601.5,475 614.5,475 724.5,365 	"/>
	<polygon class="st0" points="-208.5,365 -242,398.5 -242,411.5 -195.5,365 	"/>
	<polygon class="st0" points="771.5,365 661.5,475 674.5,475 784.5,365 	"/>
	<polygon class="st0" points="838,438.5 801.5,475 814.5,475 838,451.5 	"/>
	<polygon class="st0" points="751.5,365 641.5,475 654.5,475 764.5,365 	"/>
	<polygon class="st0" points="731.5,365 621.5,475 634.5,475 744.5,365 	"/>
	<polygon class="st0" points="838,458.5 821.5,475 834.5,475 838,471.5 	"/>
	<polygon class="st0" points="-242,365 -242,371.5 -235.5,365 	"/>
	<polygon class="st0" points="811.5,365 701.5,475 714.5,475 824.5,365 	"/>
	<polygon class="st0" points="838,398.5 761.5,475 774.5,475 838,411.5 	"/>
	<polygon class="st0" points="838,365 831.5,365 721.5,475 734.5,475 838,371.5 	"/>
	<polygon class="st0" points="838,378.5 741.5,475 754.5,475 838,391.5 	"/>
	<polygon class="st0" points="671.5,365 561.5,475 574.5,475 684.5,365 	"/>
	<polygon class="st0" points="-228.5,365 -242,378.5 -242,391.5 -215.5,365 	"/>
	<polygon class="st0" points="-188.5,365 -242,418.5 -242,431.5 -175.5,365 	"/>
	<polygon class="st0" points="791.5,365 681.5,475 694.5,475 804.5,365 	"/>
	<polygon class="st0" points="691.5,365 581.5,475 594.5,475 704.5,365 	"/>
</g>
</svg>
