<?xml version="1.0" encoding="utf-8"?>
<!-- Generator: Adobe Illustrator 25.0.0, SVG Export Plug-In . SVG Version: 6.00 Build 0)  -->
<svg version="1.1" baseProfile="tiny" id="Layer_4" xmlns="http://www.w3.org/2000/svg" xmlns:xlink="http://www.w3.org/1999/xlink"
	 x="0px" y="0px" width="1175px" height="168px" viewBox="0 0 1175 168" overflow="visible" xml:space="preserve">
<rect x="149.2" y="103.3" width="5.8" height="1.5"/>
<rect x="149.2" y="107.8" width="5.8" height="1.5"/>
<rect x="149.2" y="112.4" width="5.8" height="1.5"/>
<rect x="149.2" y="117" width="5.8" height="1.5"/>
<rect x="149.2" y="121.5" width="5.8" height="1.5"/>
<rect x="149.2" y="126.1" width="5.8" height="1.5"/>
<rect x="149.2" y="130.7" width="5.8" height="1.5"/>
<rect x="109.3" y="130.7" width="5.8" height="1.5"/>
<rect x="109.3" y="126.1" width="5.8" height="1.5"/>
<rect x="109.3" y="121.5" width="5.8" height="1.5"/>
<rect x="109.3" y="117" width="5.8" height="1.5"/>
<rect x="109.3" y="112.4" width="5.8" height="1.5"/>
<rect x="109.3" y="107.8" width="5.8" height="1.5"/>
<rect x="109.3" y="103.3" width="5.8" height="1.5"/>
<rect x="1065.2" y="62.2" width="5.8" height="1.5"/>
<rect x="1065.2" y="57.7" width="5.8" height="1.5"/>
<rect x="1065.2" y="53.1" width="5.8" height="1.5"/>
<rect x="1065.2" y="48.5" width="5.8" height="1.5"/>
<rect x="1065.2" y="44" width="5.8" height="1.5"/>
<rect x="1065.2" y="39.4" width="5.8" height="1.5"/>
<rect x="1065.2" y="34.8" width="5.8" height="1.5"/>
<rect x="1025.3" y="34.8" width="5.8" height="1.5"/>
<rect x="1025.3" y="39.4" width="5.8" height="1.5"/>
<rect x="1025.3" y="44" width="5.8" height="1.5"/>
<rect x="1025.3" y="48.5" width="5.8" height="1.5"/>
<rect x="1025.3" y="53.1" width="5.8" height="1.5"/>
<rect x="1025.3" y="57.7" width="5.8" height="1.5"/>
<rect x="1025.3" y="62.2" width="5.8" height="1.5"/>
</svg>
