<?xml version="1.0" encoding="utf-8"?>
<!-- Generator: Adobe Illustrator 25.0.0, SVG Export Plug-In . SVG Version: 6.00 Build 0)  -->
<svg version="1.1" baseProfile="tiny" id="Layer_1" xmlns="http://www.w3.org/2000/svg" xmlns:xlink="http://www.w3.org/1999/xlink"
	 x="0px" y="0px" width="1175px" height="168px" viewBox="0 0 1175 168" overflow="visible" xml:space="preserve">
<path d="M140.9,137.5h-1.3c-2.6,0-4.8-2.1-4.8-4.8v-27.9h1.5v27.9c0,1.8,1.5,3.3,3.3,3.3h1.3V137.5z"/>
<path d="M136.3,62.2h-1.5V32.8c0-1.8,1.5-3.3,3.3-3.3h2.8V31h-2.8c-1,0-1.8,0.8-1.8,1.8V62.2z"/>
<path d="M1056.9,137.5h-1.3c-2.6,0-4.8-2.1-4.8-4.8v-27.9h1.5v27.9c0,1.8,1.5,3.3,3.3,3.3h1.3V137.5z"/>
<path d="M1052.3,62.2h-1.5V32.8c0-1.8,1.5-3.3,3.3-3.3h2.8V31h-2.8c-1,0-1.8,0.8-1.8,1.8V62.2z"/>
</svg>
