<?xml version="1.0" encoding="utf-8"?>
<!-- Generator: Adobe Illustrator 25.0.0, SVG Export Plug-In . SVG Version: 6.00 Build 0)  -->
<svg version="1.1" baseProfile="tiny" id="Layer_3" xmlns="http://www.w3.org/2000/svg" xmlns:xlink="http://www.w3.org/1999/xlink"
	 x="0px" y="0px" width="1175px" height="168px" viewBox="0 0 1175 168" overflow="visible" xml:space="preserve">
<rect x="149.2" y="66.8" width="5.8" height="1.5"/>
<rect x="149.2" y="71.3" width="5.8" height="1.5"/>
<rect x="149.2" y="75.9" width="5.8" height="1.5"/>
<rect x="149.2" y="80.5" width="5.8" height="1.5"/>
<rect x="149.2" y="85" width="5.8" height="1.5"/>
<rect x="149.2" y="89.6" width="5.8" height="1.5"/>
<rect x="149.2" y="94.1" width="5.8" height="1.5"/>
<rect x="149.2" y="98.7" width="5.8" height="1.5"/>
<rect x="109.3" y="98.7" width="5.8" height="1.5"/>
<rect x="109.3" y="94.1" width="5.8" height="1.5"/>
<rect x="109.3" y="89.6" width="5.8" height="1.5"/>
<rect x="109.3" y="85" width="5.8" height="1.5"/>
<rect x="109.3" y="80.5" width="5.8" height="1.5"/>
<rect x="109.3" y="75.9" width="5.8" height="1.5"/>
<rect x="109.3" y="71.3" width="5.8" height="1.5"/>
<rect x="109.3" y="66.8" width="5.8" height="1.5"/>
<rect x="1065.2" y="98.7" width="5.8" height="1.5"/>
<rect x="1065.2" y="94.2" width="5.8" height="1.5"/>
<rect x="1065.2" y="89.6" width="5.8" height="1.5"/>
<rect x="1065.2" y="85" width="5.8" height="1.5"/>
<rect x="1065.2" y="80.5" width="5.8" height="1.5"/>
<rect x="1065.2" y="75.9" width="5.8" height="1.5"/>
<rect x="1065.2" y="71.4" width="5.8" height="1.5"/>
<rect x="1065.2" y="66.8" width="5.8" height="1.5"/>
<rect x="1025.3" y="66.8" width="5.8" height="1.5"/>
<rect x="1025.3" y="71.4" width="5.8" height="1.5"/>
<rect x="1025.3" y="75.9" width="5.8" height="1.5"/>
<rect x="1025.3" y="80.5" width="5.8" height="1.5"/>
<rect x="1025.3" y="85" width="5.8" height="1.5"/>
<rect x="1025.3" y="89.6" width="5.8" height="1.5"/>
<rect x="1025.3" y="94.2" width="5.8" height="1.5"/>
<rect x="1025.3" y="98.7" width="5.8" height="1.5"/>
</svg>
