<?xml version="1.0" encoding="utf-8"?>
<!-- Generator: Adobe Illustrator 26.0.3, SVG Export Plug-In . SVG Version: 6.00 Build 0)  -->
<svg version="1.1" baseProfile="tiny" id="Layer_1" xmlns="http://www.w3.org/2000/svg" xmlns:xlink="http://www.w3.org/1999/xlink"
	 x="0px" y="0px" viewBox="0 0 64 64" overflow="visible" xml:space="preserve">
<g>
	<path d="M54.6,57.4H9.9c-2.5-3.8-1.5-11.4,1-13.9c1.2-1.2,10-3.5,14.3-4.5c-4.5-3.5-7.2-9.9-7.2-16.1c0-8.9,2.6-16.2,14.3-16.2
		c11.7,0,14.3,7.2,14.3,16.2c0,6.1-2.7,12.6-7.2,16c4.1,1,13.1,3.4,14.3,4.6C56,46,57,53.6,54.6,57.4z M51.5,46.2
		c-1.6-0.9-8.6-2.8-14.6-4.3v-5c4-2.7,6.3-8.6,6.3-13.9c0-7.2-1.8-13.1-11.1-13.1S21.1,15.7,21.1,23c0,5.3,2.4,11.2,6.3,13.9V42
		c-6,1.4-13,3.3-14.6,4.2c-1,1.3-1.9,5.5-1.3,8.1h41.2C53.5,51.7,52.6,47.5,51.5,46.2z"/>
</g>
</svg>
