<?xml version="1.0" encoding="utf-8"?>
<!-- Generator: Adobe Illustrator 27.8.1, SVG Export Plug-In . SVG Version: 6.00 Build 0)  -->
<svg version="1.1" id="Layer_1" xmlns="http://www.w3.org/2000/svg" xmlns:xlink="http://www.w3.org/1999/xlink" x="0px" y="0px"
	 viewBox="0 0 1826 951" style="enable-background:new 0 0 1826 951;" xml:space="preserve">
<style type="text/css">
	.st0{fill:#FFFFFF;}
</style>
<path class="st0" d="M1810.5,951H15.5C7,951,0,944,0,935.5v-920C0,7,7,0,15.5,0H727v1H15.5C7.5,1,1,7.5,1,15.5v920
	c0,8,6.5,14.5,14.5,14.5h1795c8,0,14.5-6.5,14.5-14.5v-920c0-8-6.5-14.5-14.5-14.5h-709.6V0h709.6c8.5,0,15.5,7,15.5,15.5v920
	C1826,944,1819,951,1810.5,951z"/>
</svg>
