<?xml version="1.0" encoding="utf-8"?>
<!-- Generator: Adobe Illustrator 27.5.0, SVG Export Plug-In . SVG Version: 6.00 Build 0)  -->
<svg version="1.1" baseProfile="tiny" id="Border" xmlns="http://www.w3.org/2000/svg" xmlns:xlink="http://www.w3.org/1999/xlink"
	 x="0px" y="0px" viewBox="0 0 64 64" overflow="visible" xml:space="preserve">
<path fill="none" stroke="#92E7E5" stroke-width="1.5" stroke-miterlimit="10" d="M48.5,3h1.8c1.2,0,2.1,0.9,2.1,2.1v55.4
	c0,1.4-1.1,2.6-2.6,2.6H14.2c-1.4,0-2.6-1.1-2.6-2.6V5.1c0-1.1,1-2.1,2.1-2.1h1.8 M45.9,1H18.1c-1.4,0-2.6,0.5-2.6,2l12.9,11.8v3.1
	h7.2v-3.1L48.5,3C48.5,1.5,47.3,1,45.9,1z M11.6,32.4H8.1c-1.7,0-3.1,1.4-3.1,3.1v18.4C5,55.6,6.4,57,8.1,57h3.5 M52.4,56.9h3.5
	c1.7,0,3.1-1.4,3.1-3.1V35.5c0-1.7-1.4-3.1-3.1-3.1h-3.5 M20.8,43.6v12.6h22.8V43.6 M45.3,36.8H19v6.8h26.3V36.8z M35.6,22.8h-7.2
	v4.4h7.2V22.8z"/>
</svg>
