<?xml version="1.0" encoding="utf-8"?>
<!-- Generator: Adobe Illustrator 29.3.1, SVG Export Plug-In . SVG Version: 9.03 Build 55982)  -->
<svg version="1.1" baseProfile="tiny" id="Layer_1" xmlns="http://www.w3.org/2000/svg" xmlns:xlink="http://www.w3.org/1999/xlink"
	 x="0px" y="0px" viewBox="0 0 100.2 75" overflow="visible" xml:space="preserve">
<g>
	<path fill="#231F20" d="M21.3,56.1c0.1,0,0.3,0.1,0.4,0.2s0.2,0.2,0.2,0.4c0,0.1-0.1,0.3-0.2,0.4c-0.1,0.1-0.2,0.2-0.4,0.2h-4.9V61
		l3.8,0c0.1,0,0.3,0.1,0.4,0.2c0.1,0.1,0.2,0.2,0.2,0.4c0,0.1-0.1,0.3-0.2,0.4C20.5,62,20.3,62,20.2,62l-3.8,0v4.3
		c0,0.1-0.1,0.3-0.2,0.4c-0.1,0.1-0.2,0.2-0.4,0.2s-0.3-0.1-0.4-0.2c-0.1-0.1-0.2-0.2-0.2-0.4v-9.7c0-0.2,0.1-0.3,0.2-0.4
		c0.1-0.1,0.2-0.2,0.4-0.2H21.3z"/>
	<path fill="#231F20" d="M28,56.1c0.4,0,0.8,0.2,1.1,0.5c0.3,0.3,0.5,0.7,0.5,1.1v6.6c0,0.4-0.2,0.8-0.5,1.1l-1,1
		c-0.3,0.3-0.7,0.5-1.1,0.5h-2.2c-0.4,0-0.8-0.2-1.1-0.5c-0.3-0.3-0.5-0.7-0.5-1.1v-6.6c0-0.5,0.2-0.8,0.5-1.1l1-1
		c0.3-0.3,0.7-0.5,1.1-0.5H28z M28.6,57.7c0-0.1-0.1-0.3-0.2-0.4c-0.1-0.1-0.2-0.2-0.4-0.2h-2.3c-0.1,0-0.3,0.1-0.4,0.2l-1,1
		c-0.1,0.1-0.2,0.2-0.2,0.4v6.6c0,0.1,0.1,0.3,0.2,0.4c0.1,0.1,0.2,0.2,0.4,0.2h2.2c0.1,0,0.3-0.1,0.4-0.2l1-1
		c0.1-0.1,0.2-0.2,0.2-0.4V57.7z"/>
	<path fill="#231F20" d="M36.6,59.2c-0.1-0.1-0.2-0.2-0.2-0.4v-1.1c0-0.1-0.1-0.3-0.2-0.4c-0.1-0.1-0.2-0.2-0.4-0.2h-2.3
		c-0.1,0-0.3,0.1-0.4,0.2l-1,1c-0.1,0.1-0.2,0.2-0.2,0.4v6.6c0,0.1,0.1,0.3,0.2,0.4c0.1,0.1,0.2,0.2,0.4,0.2h3.8v-3.2h-1.6
		c-0.1,0-0.3-0.1-0.4-0.2c-0.1-0.1-0.2-0.2-0.2-0.4s0.1-0.3,0.2-0.4s0.2-0.2,0.4-0.2H37c0.1,0,0.3,0.1,0.4,0.2s0.2,0.2,0.2,0.4v4.3
		c0,0.1-0.1,0.3-0.2,0.4c-0.1,0.1-0.2,0.2-0.4,0.2h-4.3c-0.4,0-0.8-0.2-1.1-0.5c-0.3-0.3-0.5-0.7-0.5-1.1v-6.6
		c0-0.5,0.2-0.8,0.5-1.1l1-1c0.3-0.3,0.7-0.5,1.1-0.5h2.3c0.4,0,0.8,0.2,1.1,0.5c0.3,0.3,0.5,0.7,0.5,1.1v1.1c0,0.1-0.1,0.3-0.2,0.4
		s-0.2,0.2-0.4,0.2S36.7,59.3,36.6,59.2z"/>
	<path fill="#231F20" d="M50.1,65.8c0.1,0,0.3,0.1,0.4,0.2s0.2,0.2,0.2,0.4s-0.1,0.3-0.2,0.4c-0.1,0.1-0.2,0.2-0.4,0.2h-5.4
		c-0.1,0-0.3-0.1-0.4-0.2c-0.1-0.1-0.2-0.2-0.2-0.4v-9.7c0-0.2,0.1-0.3,0.2-0.4c0.1-0.1,0.2-0.2,0.4-0.2s0.3,0.1,0.4,0.2
		s0.2,0.2,0.2,0.4v9.2H50.1z"/>
	<path fill="#231F20" d="M55.8,65.8c0.1,0,0.3,0.1,0.4,0.2s0.2,0.2,0.2,0.4s-0.1,0.3-0.2,0.4c-0.1,0.1-0.2,0.2-0.4,0.2h-3.2
		c-0.1,0-0.3-0.1-0.4-0.2c-0.1-0.1-0.2-0.2-0.2-0.4s0.1-0.3,0.2-0.4s0.2-0.2,0.4-0.2h1.1v-8.6h-1.1c-0.1,0-0.3-0.1-0.4-0.2
		c-0.1-0.1-0.2-0.2-0.2-0.4c0-0.2,0.1-0.3,0.2-0.4c0.1-0.1,0.2-0.2,0.4-0.2h3.2c0.2,0,0.3,0.1,0.4,0.2c0.1,0.1,0.2,0.2,0.2,0.4
		c0,0.1-0.1,0.3-0.2,0.4c-0.1,0.1-0.2,0.2-0.4,0.2h-1.1v8.6H55.8z"/>
	<path fill="#231F20" d="M63.3,59.2c-0.1-0.1-0.2-0.2-0.2-0.4v-1.1c0-0.1-0.1-0.3-0.2-0.4c-0.1-0.1-0.2-0.2-0.4-0.2h-2.3
		c-0.1,0-0.3,0.1-0.4,0.2l-1,1c-0.1,0.1-0.2,0.2-0.2,0.4v6.6c0,0.1,0.1,0.3,0.2,0.4c0.1,0.1,0.2,0.2,0.4,0.2h3.8v-3.2h-1.6
		c-0.1,0-0.3-0.1-0.4-0.2C61.1,62.3,61,62.2,61,62s0.1-0.3,0.2-0.4s0.2-0.2,0.4-0.2h2.2c0.1,0,0.3,0.1,0.4,0.2
		c0.1,0.1,0.2,0.2,0.2,0.4v4.3c0,0.1-0.1,0.3-0.2,0.4c-0.1,0.1-0.2,0.2-0.4,0.2h-4.3c-0.4,0-0.8-0.2-1.1-0.5
		c-0.3-0.3-0.5-0.7-0.5-1.1v-6.6c0-0.5,0.2-0.8,0.5-1.1l1-1c0.3-0.3,0.7-0.5,1.1-0.5h2.3c0.4,0,0.8,0.2,1.1,0.5
		c0.3,0.3,0.5,0.7,0.5,1.1v1.1c0,0.1-0.1,0.3-0.2,0.4c-0.1,0.1-0.2,0.2-0.4,0.2S63.4,59.3,63.3,59.2z"/>
	<path fill="#231F20" d="M72,56.3c0.1,0.1,0.2,0.2,0.2,0.4v9.7c0,0.1-0.1,0.3-0.2,0.4c-0.1,0.1-0.2,0.2-0.4,0.2s-0.3-0.1-0.4-0.2
		c-0.1-0.1-0.2-0.2-0.2-0.4V62l-4.3,0v4.3c0,0.1-0.1,0.3-0.2,0.4c-0.1,0.1-0.2,0.2-0.4,0.2s-0.3-0.1-0.4-0.2
		c-0.1-0.1-0.2-0.2-0.2-0.4v-9.7c0-0.2,0.1-0.3,0.2-0.4c0.1-0.1,0.2-0.2,0.4-0.2s0.3,0.1,0.4,0.2s0.2,0.2,0.2,0.4v4.3l4.3,0v-4.3
		c0-0.1,0.1-0.3,0.2-0.4s0.2-0.2,0.4-0.2S71.8,56.1,72,56.3z"/>
	<path fill="#231F20" d="M79.4,56.1c0.1,0,0.3,0.1,0.4,0.2s0.2,0.2,0.2,0.4c0,0.1-0.1,0.3-0.2,0.4c-0.1,0.1-0.2,0.2-0.4,0.2h-2.2
		v9.2c0,0.1-0.1,0.3-0.2,0.4c-0.1,0.1-0.2,0.2-0.4,0.2c-0.1,0-0.3-0.1-0.4-0.2c-0.1-0.1-0.2-0.2-0.2-0.4v-9.2h-2.2
		c-0.1,0-0.3-0.1-0.4-0.2c-0.1-0.1-0.2-0.2-0.2-0.4c0-0.2,0.1-0.3,0.2-0.4c0.1-0.1,0.2-0.2,0.4-0.2H79.4z"/>
	<path fill="#231F20" d="M87.5,64.1c0.2,0.3,0.4,0.6,0.4,1v0.1c0,0.4-0.2,0.8-0.5,1.1c-0.3,0.3-0.7,0.5-1.1,0.5H83
		c-0.4,0-0.8-0.2-1.1-0.5c-0.3-0.3-0.5-0.7-0.5-1.1c0-0.1,0.1-0.3,0.2-0.4c0.1-0.1,0.2-0.2,0.4-0.2s0.3,0.1,0.4,0.2s0.2,0.2,0.2,0.4
		c0,0.1,0.1,0.3,0.2,0.4c0.1,0.1,0.2,0.2,0.4,0.2h3.2c0.1,0,0.3-0.1,0.4-0.2c0.1-0.1,0.2-0.2,0.2-0.4v-0.1c0-0.1,0-0.2-0.1-0.3
		l-4.9-5.9c-0.3-0.3-0.4-0.6-0.4-1v-0.1c0-0.4,0.2-0.8,0.5-1.1s0.7-0.5,1.1-0.5h3.2c0.4,0,0.8,0.2,1.1,0.5c0.3,0.3,0.5,0.7,0.5,1.1
		c0,0.1-0.1,0.3-0.2,0.4c-0.1,0.1-0.2,0.2-0.4,0.2s-0.3-0.1-0.4-0.2c-0.1-0.1-0.2-0.2-0.2-0.4s-0.1-0.3-0.2-0.4
		c-0.1-0.1-0.2-0.2-0.4-0.2H83c-0.1,0-0.3,0.1-0.4,0.2c-0.1,0.1-0.2,0.2-0.2,0.4v0.1c0,0.1,0,0.2,0.1,0.3L87.5,64.1z"/>
</g>
<path fill="#110E1B" d="M54.1,46.9h-1.5c-0.7,0-1.3-0.5-1.5-1.2c-0.8-4.3-1.2-9-1.2-13.9c0-4.8,0.4-9.5,1.2-13.9
	c0.1-0.7,0.8-1.2,1.5-1.2h1.5c10.6,0,21.3,4.8,21.3,15.5C75.3,43,63.9,46.9,54.1,46.9z M53.9,43.9h0.2c1.9,0,18.3-0.3,18.3-11.7
	c0-9.8-11.5-12.5-18.3-12.5h-0.2c-0.6,3.8-0.9,7.9-0.9,12.1C52.9,36,53.2,40.1,53.9,43.9z"/>
<path fill="#110E1B" d="M45.1,28.1v-3H34c0.1-1.5,0.6-2.2,0.6-2.2l-1.1-1l-1.1-1c-0.2,0.2-1.3,1.5-1.4,4.2h-2.6v3h2.8
	c0.1,0.7,0.3,1.5,0.5,2.4h-3.3v3h4.2c0.2,0.9,0.3,1.6,0.4,2.4h-4.6v3h4.5c-0.2,1.4-0.6,2.1-0.7,2.1l2.5,1.6c0.1-0.1,0.8-1.4,1.1-3.7
	h9.2v-3H36c-0.1-0.7-0.2-1.5-0.3-2.4h9.4v-3H34.8c-0.3-0.9-0.5-1.7-0.6-2.4H45.1z"/>
</svg>
