<?xml version="1.0" encoding="utf-8"?>
<!-- Generator: Adobe Illustrator 29.3.1, SVG Export Plug-In . SVG Version: 9.03 Build 55982)  -->
<svg version="1.1" baseProfile="tiny" id="Layer_1" xmlns="http://www.w3.org/2000/svg" xmlns:xlink="http://www.w3.org/1999/xlink"
	 x="0px" y="0px" viewBox="0 0 100.2 75" overflow="visible" xml:space="preserve">
<g>
	<path fill="#231F20" d="M33.5,56.3c0.1,0.1,0.2,0.2,0.2,0.4v9.7c0,0.1-0.1,0.3-0.2,0.4s-0.2,0.2-0.4,0.2s-0.3-0.1-0.4-0.2
		s-0.2-0.2-0.2-0.4V62l-4.3,0v4.3c0,0.1-0.1,0.3-0.2,0.4s-0.2,0.2-0.4,0.2s-0.3-0.1-0.4-0.2c-0.1-0.1-0.2-0.2-0.2-0.4v-9.7
		c0-0.2,0.1-0.3,0.2-0.4c0.1-0.1,0.2-0.2,0.4-0.2s0.3,0.1,0.4,0.2s0.2,0.2,0.2,0.4v4.3l4.3,0v-4.3c0-0.1,0.1-0.3,0.2-0.4
		s0.2-0.2,0.4-0.2S33.4,56.1,33.5,56.3z"/>
	<path fill="#231F20" d="M42.6,66.2c0,0.1,0,0.1,0,0.2c0,0.1,0,0.2-0.1,0.3c-0.1,0.1-0.2,0.2-0.3,0.2c0,0-0.1,0-0.2,0
		c-0.1,0-0.2,0-0.3-0.1c-0.1-0.1-0.2-0.2-0.2-0.3L41,64.7l-4.4,0l-0.5,1.8c0,0.1-0.1,0.2-0.2,0.3c-0.1,0.1-0.2,0.1-0.3,0.1
		c-0.2,0-0.3-0.1-0.4-0.2c-0.1-0.1-0.2-0.2-0.2-0.4c0,0,0-0.1,0-0.2l2.9-9.7c0-0.1,0.1-0.2,0.2-0.3c0.1-0.1,0.2-0.1,0.3-0.1h0.7
		c0.1,0,0.2,0,0.3,0.1c0.1,0.1,0.2,0.2,0.2,0.3L42.6,66.2z M37,63.7l3.8,0l-1.9-6.3L37,63.7z"/>
	<path fill="#231F20" d="M45.1,64.9v0.9H50c0.1,0,0.3,0.1,0.4,0.2s0.2,0.2,0.2,0.4s-0.1,0.3-0.2,0.4s-0.2,0.2-0.4,0.2h-5.4
		c-0.1,0-0.3-0.1-0.4-0.2c-0.1-0.1-0.2-0.2-0.2-0.4v-1.6c0-0.1,0-0.3,0.1-0.3l5.3-6.3v-0.9h-4.8c-0.1,0-0.3-0.1-0.4-0.2
		c-0.1-0.1-0.2-0.2-0.2-0.4c0-0.2,0.1-0.3,0.2-0.4c0.1-0.1,0.2-0.2,0.4-0.2H50c0.1,0,0.3,0.1,0.4,0.2s0.2,0.2,0.2,0.4v1.6
		c0,0.1,0,0.2-0.1,0.4L45.1,64.9z"/>
	<path fill="#231F20" d="M59.4,66.2c0,0.1,0,0.1,0,0.2c0,0.1,0,0.2-0.1,0.3c-0.1,0.1-0.2,0.2-0.3,0.2c0,0-0.1,0-0.2,0
		c-0.1,0-0.2,0-0.3-0.1c-0.1-0.1-0.2-0.2-0.2-0.3l-0.5-1.8l-4.4,0L53,66.5c0,0.1-0.1,0.2-0.2,0.3c-0.1,0.1-0.2,0.1-0.3,0.1
		c-0.2,0-0.3-0.1-0.4-0.2c-0.1-0.1-0.2-0.2-0.2-0.4c0,0,0-0.1,0-0.2l2.9-9.7c0-0.1,0.1-0.2,0.2-0.3c0.1-0.1,0.2-0.1,0.3-0.1H56
		c0.1,0,0.2,0,0.3,0.1c0.1,0.1,0.2,0.2,0.2,0.3L59.4,66.2z M53.8,63.7l3.8,0l-1.9-6.3L53.8,63.7z"/>
	<path fill="#231F20" d="M67.3,66.1c0,0.1,0.1,0.2,0.1,0.2c0,0.1,0,0.2-0.1,0.3c-0.1,0.1-0.1,0.2-0.2,0.2c-0.1,0-0.1,0.1-0.2,0.1
		c-0.1,0-0.2,0-0.3-0.1s-0.2-0.1-0.2-0.2L64,62l-2.1,0v4.3c0,0.1-0.1,0.3-0.2,0.4s-0.2,0.2-0.4,0.2s-0.3-0.1-0.4-0.2
		c-0.1-0.1-0.2-0.2-0.2-0.4v-9.7c0-0.2,0.1-0.3,0.2-0.4c0.1-0.1,0.2-0.2,0.4-0.2h3.1c0,0,0.1,0,0.1,0c0.5,0,1,0.2,1.4,0.4
		c0.4,0.3,0.8,0.6,1,1.1c0.2,0.4,0.4,0.9,0.4,1.4c0,0.7-0.2,1.3-0.6,1.8c-0.4,0.5-0.9,0.9-1.5,1.1L67.3,66.1z M64.4,61
		c0.3,0,0.7-0.1,1-0.3c0.3-0.2,0.5-0.4,0.7-0.7s0.3-0.6,0.3-0.9c0-0.3-0.1-0.7-0.3-1c-0.2-0.3-0.4-0.5-0.7-0.7
		c-0.3-0.2-0.6-0.3-1-0.3h-2.4v3.8L64.4,61z"/>
	<path fill="#231F20" d="M74.8,57.6c0.3,0.3,0.5,0.7,0.5,1.1v5.6c0,0.4-0.2,0.8-0.5,1.1l-1,1c-0.3,0.3-0.7,0.5-1.1,0.5h-3.3h0h0h0
		c-0.1,0-0.3-0.1-0.4-0.2c-0.1-0.1-0.2-0.2-0.2-0.4l0-9.7v0v0v0v0l0,0v0c0,0,0,0,0,0l0,0c0,0,0,0,0,0v0l0,0l0,0l0,0l0,0l0,0l0,0l0,0
		l0,0c0,0,0,0,0,0c0,0,0,0,0,0c0,0,0,0,0,0c0,0,0,0,0,0l0,0l0,0l0,0h0l0,0c0,0,0.1,0,0.1,0h3.3c0.4,0,0.8,0.2,1.1,0.5L74.8,57.6z
		 M74.2,58.7c0-0.1-0.1-0.3-0.2-0.4l-1-1c-0.1-0.1-0.2-0.2-0.4-0.2h-2.8l0,8.6h2.8c0.1,0,0.3-0.1,0.4-0.2l1-1
		c0.1-0.1,0.2-0.2,0.2-0.4V58.7z"/>
</g>
<path fill="#110E1B" d="M70.8,47.4H29.5c-0.5,0-1-0.3-1.3-0.8s-0.3-1.1,0-1.5L49,11.8c0.3-0.4,0.8-0.7,1.3-0.7c0,0,0,0,0,0
	c0.5,0,1,0.3,1.3,0.7l20.5,33.3c0.3,0.5,0.3,1,0,1.5S71.3,47.4,70.8,47.4z M32.2,44.4h35.9l-17.9-29L32.2,44.4z"/>
<g>
	<path fill="#110E1B" d="M49.1,41.1v-3.2h3.2v3.2H49.1z M49.1,35.8V21.9h3.1v13.8H49.1z"/>
</g>
</svg>
