<?xml version="1.0" encoding="utf-8"?>
<!-- Generator: Adobe Illustrator 29.3.1, SVG Export Plug-In . SVG Version: 9.03 Build 55982)  -->
<svg version="1.1" baseProfile="tiny" id="Layer_1" xmlns="http://www.w3.org/2000/svg" xmlns:xlink="http://www.w3.org/1999/xlink"
	 x="0px" y="0px" viewBox="0 0 100.2 75" overflow="visible" xml:space="preserve">
<g>
	<path fill="#231F20" d="M26,64.9c0.1-0.1,0.2-0.2,0.4-0.2c0.2,0,0.3,0.1,0.4,0.2c0.1,0.1,0.2,0.2,0.2,0.4s-0.1,0.3-0.2,0.4L26,66.4
		c-0.3,0.3-0.7,0.5-1.1,0.5H22c-0.4,0-0.8-0.2-1.1-0.5c-0.3-0.3-0.5-0.7-0.5-1.1v-7.5c0-0.4,0.2-0.8,0.5-1.1s0.7-0.5,1.1-0.5h2.8
		c0.4,0,0.8,0.2,1.1,0.5l0.8,0.8c0.1,0.1,0.2,0.2,0.2,0.4c0,0.1-0.1,0.3-0.2,0.4c-0.1,0.1-0.2,0.2-0.4,0.2c-0.1,0-0.3-0.1-0.4-0.2
		l-0.8-0.8c-0.1-0.1-0.2-0.2-0.4-0.2H22c-0.1,0-0.3,0.1-0.4,0.2c-0.1,0.1-0.2,0.2-0.2,0.4v7.5c0,0.1,0.1,0.3,0.2,0.4
		c0.1,0.1,0.2,0.2,0.4,0.2h2.8c0.1,0,0.3-0.1,0.4-0.2L26,64.9z"/>
	<path fill="#231F20" d="M34.6,56.3c0.1,0.1,0.2,0.2,0.2,0.4v9.7c0,0.1-0.1,0.3-0.2,0.4c-0.1,0.1-0.2,0.2-0.4,0.2s-0.3-0.1-0.4-0.2
		c-0.1-0.1-0.2-0.2-0.2-0.4V62l-4.3,0v4.3c0,0.1-0.1,0.3-0.2,0.4c-0.1,0.1-0.2,0.2-0.4,0.2s-0.3-0.1-0.4-0.2
		c-0.1-0.1-0.2-0.2-0.2-0.4v-9.7c0-0.2,0.1-0.3,0.2-0.4c0.1-0.1,0.2-0.2,0.4-0.2s0.3,0.1,0.4,0.2s0.2,0.2,0.2,0.4v4.3l4.3,0v-4.3
		c0-0.1,0.1-0.3,0.2-0.4s0.2-0.2,0.4-0.2S34.5,56.1,34.6,56.3z"/>
	<path fill="#231F20" d="M43.7,66.2c0,0.1,0,0.1,0,0.2c0,0.1,0,0.2-0.1,0.3c-0.1,0.1-0.2,0.2-0.3,0.2c0,0-0.1,0-0.2,0
		c-0.1,0-0.2,0-0.3-0.1c-0.1-0.1-0.2-0.2-0.2-0.3l-0.5-1.8l-4.4,0l-0.5,1.8c0,0.1-0.1,0.2-0.2,0.3c-0.1,0.1-0.2,0.1-0.3,0.1
		c-0.2,0-0.3-0.1-0.4-0.2c-0.1-0.1-0.2-0.2-0.2-0.4c0,0,0-0.1,0-0.2l2.9-9.7c0-0.1,0.1-0.2,0.2-0.3c0.1-0.1,0.2-0.1,0.3-0.1h0.7
		c0.1,0,0.2,0,0.3,0.1c0.1,0.1,0.2,0.2,0.2,0.3L43.7,66.2z M38.1,63.7l3.8,0l-1.9-6.3L38.1,63.7z"/>
	<path fill="#231F20" d="M51.5,66.1c0,0.1,0.1,0.2,0.1,0.2c0,0.1,0,0.2-0.1,0.3c-0.1,0.1-0.1,0.2-0.2,0.2c-0.1,0-0.1,0.1-0.2,0.1
		c-0.1,0-0.2,0-0.3-0.1c-0.1-0.1-0.2-0.1-0.2-0.2L48.3,62l-2.1,0v4.3c0,0.1-0.1,0.3-0.2,0.4c-0.1,0.1-0.2,0.2-0.4,0.2
		s-0.3-0.1-0.4-0.2c-0.1-0.1-0.2-0.2-0.2-0.4v-9.7c0-0.2,0.1-0.3,0.2-0.4c0.1-0.1,0.2-0.2,0.4-0.2h3.1c0,0,0.1,0,0.1,0
		c0.5,0,1,0.2,1.4,0.4c0.4,0.3,0.8,0.6,1,1.1c0.2,0.4,0.4,0.9,0.4,1.4c0,0.7-0.2,1.3-0.6,1.8c-0.4,0.5-0.9,0.9-1.5,1.1L51.5,66.1z
		 M48.6,61c0.3,0,0.7-0.1,1-0.3c0.3-0.2,0.5-0.4,0.7-0.7c0.2-0.3,0.3-0.6,0.3-0.9c0-0.3-0.1-0.7-0.3-1c-0.2-0.3-0.4-0.5-0.7-0.7
		c-0.3-0.2-0.6-0.3-1-0.3h-2.4v3.8L48.6,61z"/>
	<path fill="#231F20" d="M58.5,59.2c-0.1-0.1-0.2-0.2-0.2-0.4v-1.1c0-0.1-0.1-0.3-0.2-0.4c-0.1-0.1-0.2-0.2-0.4-0.2h-2.3
		c-0.1,0-0.3,0.1-0.4,0.2l-1,1c-0.1,0.1-0.2,0.2-0.2,0.4v6.6c0,0.1,0.1,0.3,0.2,0.4c0.1,0.1,0.2,0.2,0.4,0.2h3.8v-3.2h-1.6
		c-0.1,0-0.3-0.1-0.4-0.2c-0.1-0.1-0.2-0.2-0.2-0.4s0.1-0.3,0.2-0.4s0.2-0.2,0.4-0.2h2.2c0.1,0,0.3,0.1,0.4,0.2s0.2,0.2,0.2,0.4v4.3
		c0,0.1-0.1,0.3-0.2,0.4c-0.1,0.1-0.2,0.2-0.4,0.2h-4.3c-0.4,0-0.8-0.2-1.1-0.5c-0.3-0.3-0.5-0.7-0.5-1.1v-6.6
		c0-0.5,0.2-0.8,0.5-1.1l1-1c0.3-0.3,0.7-0.5,1.1-0.5h2.3c0.4,0,0.8,0.2,1.1,0.5c0.3,0.3,0.5,0.7,0.5,1.1v1.1c0,0.1-0.1,0.3-0.2,0.4
		s-0.2,0.2-0.4,0.2S58.6,59.3,58.5,59.2z"/>
	<path fill="#231F20" d="M64.6,65.8c0.1,0,0.3,0.1,0.4,0.2s0.2,0.2,0.2,0.4s-0.1,0.3-0.2,0.4c-0.1,0.1-0.2,0.2-0.4,0.2h-3.2
		c-0.1,0-0.3-0.1-0.4-0.2c-0.1-0.1-0.2-0.2-0.2-0.4s0.1-0.3,0.2-0.4s0.2-0.2,0.4-0.2h1.1v-8.6h-1.1c-0.1,0-0.3-0.1-0.4-0.2
		c-0.1-0.1-0.2-0.2-0.2-0.4c0-0.2,0.1-0.3,0.2-0.4c0.1-0.1,0.2-0.2,0.4-0.2h3.2c0.2,0,0.3,0.1,0.4,0.2c0.1,0.1,0.2,0.2,0.2,0.4
		c0,0.1-0.1,0.3-0.2,0.4c-0.1,0.1-0.2,0.2-0.4,0.2h-1.1v8.6H64.6z"/>
	<path fill="#231F20" d="M72.9,56.3c0.1,0.1,0.2,0.2,0.2,0.4v9.7c0,0.1,0,0.2-0.1,0.3c-0.1,0.1-0.2,0.2-0.3,0.2c0,0-0.1,0-0.1,0
		c-0.2,0-0.4-0.1-0.5-0.3l-4.4-7.9v7.6c0,0.1-0.1,0.3-0.2,0.4c-0.1,0.1-0.2,0.2-0.4,0.2s-0.3-0.1-0.4-0.2c-0.1-0.1-0.2-0.2-0.2-0.4
		v-9.7c0-0.1,0.1-0.3,0.2-0.4c0.1-0.1,0.2-0.2,0.4-0.2c0.1,0,0.2,0,0.3,0.1s0.2,0.1,0.2,0.2l4.4,7.9v-7.6c0-0.1,0.1-0.3,0.2-0.4
		s0.2-0.2,0.4-0.2S72.8,56.1,72.9,56.3z"/>
	<path fill="#231F20" d="M80,59.2c-0.1-0.1-0.2-0.2-0.2-0.4v-1.1c0-0.1-0.1-0.3-0.2-0.4c-0.1-0.1-0.2-0.2-0.4-0.2h-2.3
		c-0.1,0-0.3,0.1-0.4,0.2l-1,1c-0.1,0.1-0.2,0.2-0.2,0.4v6.6c0,0.1,0.1,0.3,0.2,0.4c0.1,0.1,0.2,0.2,0.4,0.2h3.8v-3.2h-1.6
		c-0.1,0-0.3-0.1-0.4-0.2c-0.1-0.1-0.2-0.2-0.2-0.4s0.1-0.3,0.2-0.4s0.2-0.2,0.4-0.2h2.2c0.1,0,0.3,0.1,0.4,0.2s0.2,0.2,0.2,0.4v4.3
		c0,0.1-0.1,0.3-0.2,0.4c-0.1,0.1-0.2,0.2-0.4,0.2h-4.3c-0.4,0-0.8-0.2-1.1-0.5c-0.3-0.3-0.5-0.7-0.5-1.1v-6.6
		c0-0.5,0.2-0.8,0.5-1.1l1-1c0.3-0.3,0.7-0.5,1.1-0.5h2.3c0.4,0,0.8,0.2,1.1,0.5c0.3,0.3,0.5,0.7,0.5,1.1v1.1c0,0.1-0.1,0.3-0.2,0.4
		s-0.2,0.2-0.4,0.2S80.1,59.3,80,59.2z"/>
</g>
<g>
	<g>
		<path fill="#110E1B" d="M44.4,36.1c-2.3,0-4.3-1.9-4.3-4.3s1.9-4.3,4.3-4.3s4.3,1.9,4.3,4.3S46.7,36.1,44.4,36.1z M44.4,30.5
			c-0.7,0-1.3,0.6-1.3,1.3s0.6,1.3,1.3,1.3s1.3-0.6,1.3-1.3S45.1,30.5,44.4,30.5z"/>
		<path fill="#110E1B" d="M55.8,36.1c-2.3,0-4.3-1.9-4.3-4.3s1.9-4.3,4.3-4.3s4.3,1.9,4.3,4.3S58.1,36.1,55.8,36.1z M55.8,30.5
			c-0.7,0-1.3,0.6-1.3,1.3s0.6,1.3,1.3,1.3s1.3-0.6,1.3-1.3S56.5,30.5,55.8,30.5z"/>
	</g>
	<path fill="#110E1B" d="M50.1,27.2c-2.3,0-4.3-1.9-4.3-4.3s1.9-4.3,4.3-4.3s4.3,1.9,4.3,4.3S52.4,27.2,50.1,27.2z M50.1,21.6
		c-0.7,0-1.3,0.6-1.3,1.3s0.6,1.3,1.3,1.3s1.3-0.6,1.3-1.3S50.8,21.6,50.1,21.6z"/>
	<path fill="#110E1B" d="M63.6,42.9H36.7c-0.5,0-0.9-0.2-1.2-0.6c-2.7-3.3-4.2-7.5-4.2-11.8c0-10.4,8.4-18.8,18.8-18.8
		s18.8,8.4,18.8,18.8c0,4.3-1.5,8.5-4.2,11.8C64.5,42.7,64.1,42.9,63.6,42.9z M37.5,39.9h25.4c2-2.7,3.1-5.9,3.1-9.3
		c0-8.7-7.1-15.8-15.8-15.8s-15.8,7.1-15.8,15.8C34.4,34,35.4,37.2,37.5,39.9z"/>
</g>
</svg>
