<?xml version="1.0" encoding="utf-8"?>
<!-- Generator: Adobe Illustrator 29.3.1, SVG Export Plug-In . SVG Version: 9.03 Build 55982)  -->
<svg version="1.1" baseProfile="tiny" id="Layer_1" xmlns="http://www.w3.org/2000/svg" xmlns:xlink="http://www.w3.org/1999/xlink"
	 x="0px" y="0px" viewBox="0 0 100.2 75" overflow="visible" xml:space="preserve">
<g>
	<path fill="#231F20" d="M35.3,65.7c0.1,0,0.3,0.1,0.4,0.2s0.2,0.2,0.2,0.4c0,0.1-0.1,0.3-0.2,0.4s-0.2,0.2-0.4,0.2h-5.4
		c-0.1,0-0.3-0.1-0.4-0.2c-0.1-0.1-0.2-0.2-0.2-0.4v-9.7c0-0.2,0.1-0.3,0.2-0.4c0.1-0.1,0.2-0.2,0.4-0.2c0.1,0,0.3,0.1,0.4,0.2
		c0.1,0.1,0.2,0.2,0.2,0.4v9.2H35.3z"/>
	<path fill="#231F20" d="M41,65.7c0.1,0,0.3,0.1,0.4,0.2c0.1,0.1,0.2,0.2,0.2,0.4c0,0.1-0.1,0.3-0.2,0.4c-0.1,0.1-0.2,0.2-0.4,0.2
		h-3.2c-0.1,0-0.3-0.1-0.4-0.2s-0.2-0.2-0.2-0.4c0-0.1,0.1-0.3,0.2-0.4s0.2-0.2,0.4-0.2h1.1v-8.6h-1.1c-0.1,0-0.3-0.1-0.4-0.2
		c-0.1-0.1-0.2-0.2-0.2-0.4c0-0.2,0.1-0.3,0.2-0.4c0.1-0.1,0.2-0.2,0.4-0.2H41c0.2,0,0.3,0.1,0.4,0.2c0.1,0.1,0.2,0.2,0.2,0.4
		c0,0.1-0.1,0.3-0.2,0.4c-0.1,0.1-0.2,0.2-0.4,0.2H40v8.6H41z"/>
	<path fill="#231F20" d="M48.5,59.1c-0.1-0.1-0.2-0.2-0.2-0.4v-1.1c0-0.1-0.1-0.3-0.2-0.4c-0.1-0.1-0.2-0.2-0.4-0.2h-2.3
		c-0.1,0-0.3,0.1-0.4,0.2l-1,1c-0.1,0.1-0.2,0.2-0.2,0.4v6.6c0,0.1,0.1,0.3,0.2,0.4c0.1,0.1,0.2,0.2,0.4,0.2h3.8v-3.2h-1.6
		c-0.1,0-0.3-0.1-0.4-0.2c-0.1-0.1-0.2-0.2-0.2-0.4c0-0.1,0.1-0.3,0.2-0.4c0.1-0.1,0.2-0.2,0.4-0.2h2.2c0.1,0,0.3,0.1,0.4,0.2
		c0.1,0.1,0.2,0.2,0.2,0.4v4.3c0,0.1-0.1,0.3-0.2,0.4s-0.2,0.2-0.4,0.2h-4.3c-0.4,0-0.8-0.2-1.1-0.5S43,65.6,43,65.2v-6.6
		c0-0.5,0.2-0.8,0.5-1.1l1-1c0.3-0.3,0.7-0.5,1.1-0.5h2.3c0.4,0,0.8,0.2,1.1,0.5c0.3,0.3,0.5,0.7,0.5,1.1v1.1c0,0.1-0.1,0.3-0.2,0.4
		s-0.2,0.2-0.4,0.2C48.8,59.2,48.6,59.2,48.5,59.1z"/>
	<path fill="#231F20" d="M57.1,56.2c0.1,0.1,0.2,0.2,0.2,0.4v9.7c0,0.1-0.1,0.3-0.2,0.4s-0.2,0.2-0.4,0.2c-0.1,0-0.3-0.1-0.4-0.2
		c-0.1-0.1-0.2-0.2-0.2-0.4v-4.3l-4.3,0v4.3c0,0.1-0.1,0.3-0.2,0.4s-0.2,0.2-0.4,0.2c-0.1,0-0.3-0.1-0.4-0.2
		c-0.1-0.1-0.2-0.2-0.2-0.4v-9.7c0-0.2,0.1-0.3,0.2-0.4c0.1-0.1,0.2-0.2,0.4-0.2c0.1,0,0.3,0.1,0.4,0.2c0.1,0.1,0.2,0.2,0.2,0.4v4.3
		l4.3,0v-4.3c0-0.1,0.1-0.3,0.2-0.4c0.1-0.1,0.2-0.2,0.4-0.2C56.9,56,57,56.1,57.1,56.2z"/>
	<path fill="#231F20" d="M64.6,56c0.1,0,0.3,0.1,0.4,0.2c0.1,0.1,0.2,0.2,0.2,0.4c0,0.1-0.1,0.3-0.2,0.4s-0.2,0.2-0.4,0.2h-2.2v9.2
		c0,0.1-0.1,0.3-0.2,0.4c-0.1,0.1-0.2,0.2-0.4,0.2c-0.1,0-0.3-0.1-0.4-0.2s-0.2-0.2-0.2-0.4v-9.2h-2.2c-0.1,0-0.3-0.1-0.4-0.2
		c-0.1-0.1-0.2-0.2-0.2-0.4c0-0.2,0.1-0.3,0.2-0.4C59,56,59.1,56,59.2,56H64.6z"/>
	<path fill="#231F20" d="M72.6,64c0.2,0.3,0.4,0.6,0.4,1v0.1c0,0.4-0.2,0.8-0.5,1.1c-0.3,0.3-0.7,0.5-1.1,0.5h-3.2
		c-0.4,0-0.8-0.2-1.1-0.5s-0.5-0.7-0.5-1.1c0-0.1,0.1-0.3,0.2-0.4c0.1-0.1,0.2-0.2,0.4-0.2c0.1,0,0.3,0.1,0.4,0.2s0.2,0.2,0.2,0.4
		c0,0.1,0.1,0.3,0.2,0.4c0.1,0.1,0.2,0.2,0.4,0.2h3.2c0.1,0,0.3-0.1,0.4-0.2s0.2-0.2,0.2-0.4V65c0-0.1,0-0.2-0.1-0.3l-4.9-5.9
		c-0.3-0.3-0.4-0.6-0.4-1v-0.1c0-0.4,0.2-0.8,0.5-1.1c0.3-0.3,0.7-0.5,1.1-0.5h3.2c0.4,0,0.8,0.2,1.1,0.5c0.3,0.3,0.5,0.7,0.5,1.1
		c0,0.1-0.1,0.3-0.2,0.4s-0.2,0.2-0.4,0.2c-0.1,0-0.3-0.1-0.4-0.2c-0.1-0.1-0.2-0.2-0.2-0.4c0-0.1-0.1-0.3-0.2-0.4
		c-0.1-0.1-0.2-0.2-0.4-0.2h-3.2c-0.1,0-0.3,0.1-0.4,0.2c-0.1,0.1-0.2,0.2-0.2,0.4v0.1c0,0.1,0,0.2,0.1,0.3L72.6,64z"/>
</g>
<path fill="#110E1B" d="M54,43.7h-1.5c-0.7,0-1.3-0.5-1.5-1.2c-0.8-4.3-1.2-9-1.2-13.8c0-4.8,0.4-9.5,1.2-13.8
	c0.1-0.7,0.8-1.2,1.5-1.2H54c10.6,0,21.2,4.8,21.2,15.4C75.2,39.8,63.8,43.7,54,43.7z M53.8,40.7H54c1.9,0,18.2-0.3,18.2-11.7
	c0-9.8-11.5-12.4-18.2-12.4h-0.2c-0.6,3.8-0.9,7.9-0.9,12.1C52.9,32.8,53.2,36.9,53.8,40.7z"/>
<rect x="28.3" y="19.9" fill="#110E1B" width="16.7" height="3"/>
<rect x="28.3" y="25.1" fill="#110E1B" width="16.7" height="3"/>
<rect x="28.3" y="30.2" fill="#110E1B" width="16.7" height="3"/>
<rect x="28.3" y="35.4" fill="#110E1B" width="16.7" height="3"/>
</svg>
