<?xml version="1.0" encoding="utf-8"?>
<!-- Generator: Adobe Illustrator 29.3.1, SVG Export Plug-In . SVG Version: 9.03 Build 55982)  -->
<svg version="1.1" baseProfile="tiny" id="BG" xmlns="http://www.w3.org/2000/svg" xmlns:xlink="http://www.w3.org/1999/xlink"
	 x="0px" y="0px" viewBox="0 0 1236.4 425.4" overflow="visible" xml:space="preserve">
<path id="colorstyle:Accent1_00000026853235953534548330000006954648877033648061_" fill="#FCB632" d="M826,245.1l43.3-25.8V1.5
	C854.5,3.1,840,6,826,10.2V245.1z"/>
<path id="colorstyle:Accent1_00000129188848189946273260000001273903493652135075_" fill="#FCB632" d="M878.1,214l43.3-25.8V0h-25.2
	c-6.1,0-12.1,0.2-18.1,0.7V214z"/>
<path id="colorstyle:Accent1_00000067209466012384288610000007020156155222310045_" fill="#FCB632" d="M773.9,276.2l43.3-25.8V13
	c-11.5,4-22.6,8.8-33.2,14.5l-10.1,6.1V276.2z"/>
<polygon id="colorstyle:Accent1_00000023276911719202131970000002967528777536575361_" fill="#FCB632" points="1190.6,0 
	1190.6,27.4 1236.4,0 "/>
<polygon id="colorstyle:Accent1_00000013172671252476142280000001424416215196372610_" fill="#FCB632" points="617.7,369.5 
	660.9,343.7 660.9,102.4 617.7,128.7 "/>
<polygon id="colorstyle:Accent1_00000057828839475619228190000008090136401535822726_" fill="#FCB632" points="713,70.7 669.8,97 
	669.8,338.4 713,312.6 "/>
<polygon id="colorstyle:Accent1_00000108994292458705535320000004088663342039680171_" fill="#FCB632" points="1077.6,0 1034.3,0 
	1034.3,120.7 1077.6,94.8 "/>
<polygon id="colorstyle:Accent1_00000136386987904527584010000016407538399966321828_" fill="#FCB632" points="1181.7,0 1138.5,0 
	1138.5,58.5 1181.7,32.6 "/>
<polygon id="colorstyle:Accent1_00000171685195719453832930000004880405839558540946_" fill="#FCB632" points="930.2,182.9 
	973.4,157 973.4,0 930.2,0 "/>
<polygon id="colorstyle:Accent1_00000038393059039191949740000007798162621693648542_" fill="#FCB632" points="765.1,39.1 
	721.8,65.4 721.8,307.3 765.1,281.5 "/>
<polygon id="colorstyle:Accent1_00000004532465534474262750000010447655733693186226_" fill="#FCB632" points="1025.5,0 982.2,0 
	982.2,151.8 1025.5,125.9 "/>
<polygon id="colorstyle:Accent1_00000151538374878470307960000013639581873855119288_" fill="#FCB632" points="1129.7,0 1086.4,0 
	1086.4,89.6 1129.7,63.7 "/>
<rect id="colorstyle:Accent1_00000033334295217588060050000015714608128762514054_" x="44.8" y="382.9" fill="#FCB632" width="43.3" height="42.6"/>
<path id="colorstyle:Accent1_00000150806304347565140600000013477793105567496084_" fill="#FCB632" d="M504.7,197.4l-43.3,26.3
	v201.7c14.6-0.2,29.1-1.7,43.3-4.4V197.4z"/>
<path id="colorstyle:Accent1_00000094611054129330073080000006528115489677710264_" fill="#FCB632" d="M96.9,425.4h43.3v-42.7
	c-2.4,0.1-4.8,0.1-7.2,0.1h-36V425.4z"/>
<path id="colorstyle:Accent1_00000075155322683576537130000005202312269361278358_" fill="#FCB632" d="M556.8,165.8l-43.3,26.3
	v227.1c15-3.5,29.5-8.4,43.3-14.6V165.8z"/>
<path id="colorstyle:Accent1_00000044895387544955689860000016901436373099515804_" fill="#FCB632" d="M608.9,134.1l-43.3,26.3
	v239.9c1.5-0.8,3-1.6,4.6-2.4l38.7-23.1V134.1z"/>
<rect id="colorstyle:Accent1_00000181070611740356882320000010429939276432301247_" y="382.9" fill="#FCB632" width="36" height="42.6"/>
<path id="colorstyle:Accent1_00000088115540272272736730000015935096614740170921_" fill="#FCB632" d="M149,425.4h43.3v-49.8
	c-14,3.5-28.5,5.7-43.3,6.7V425.4z"/>
<polygon id="colorstyle:Accent1_00000005253585929876048320000007061403653512283295_" fill="#FCB632" points="452.6,229.1 
	409.4,255.4 409.4,425.4 452.6,425.4 "/>
<polygon id="colorstyle:Accent1_00000084511081784715209150000011245398183219131271_" fill="#FCB632" points="296.4,324.1 
	253.1,350.4 253.1,425.4 296.4,425.4 "/>
<path id="colorstyle:Accent1_00000063627937876698073020000005724186780752135049_" fill="#FCB632" d="M244.3,355.7
	c-13.6,7.3-28.1,13.1-43.3,17.5v52.2h43.3V355.7z"/>
<polygon id="colorstyle:Accent1_00000003826564307737176230000009409156384395188130_" fill="#FCB632" points="348.5,292.4 
	305.2,318.8 305.2,425.4 348.5,425.4 "/>
<polygon id="colorstyle:Accent1" fill="#FCB632" points="400.5,260.8 357.3,287.1 357.3,425.4 400.5,425.4 "/>
</svg>
