<?xml version="1.0" encoding="utf-8"?>
<!-- Generator: Adobe Illustrator 26.0.2, SVG Export Plug-In . SVG Version: 6.00 Build 0)  -->
<svg version="1.1" id="Layer_1" xmlns="http://www.w3.org/2000/svg" xmlns:xlink="http://www.w3.org/1999/xlink" x="0px" y="0px"
	 viewBox="0 0 512 309" style="enable-background:new 0 0 512 309;" xml:space="preserve">
<style type="text/css">
	.st0{fill:#999999;}
</style>
<g>
	<g>
		<path class="st0" d="M447.7,49.2h3.1c1.9,0,3.5-1.6,3.5-3.5v-3.9l-10.1,0v3.9C444.2,47.7,445.7,49.2,447.7,49.2z"/>
	</g>
	<g>
		<path d="M460.3,49.2l3.1,0c1.9,0,3.5-1.6,3.5-3.5v-3.9l-10.1,0v3.9C456.8,47.7,458.4,49.2,460.3,49.2z"/>
	</g>
	<g>
		<path d="M73.1,238.6c-14.2,0-25.8-11.6-25.8-25.8V85.1c0-14.2,11.6-25.8,25.8-25.8c1.1,0,2,0.9,2,2s-0.9,2-2,2
			c-12,0-21.8,9.8-21.8,21.8v127.7c0,12,9.8,21.8,21.8,21.8c1.1,0,2,0.9,2,2S74.2,238.6,73.1,238.6z"/>
	</g>
	<g>
		<path d="M441.1,238.6c14.2,0,25.8-11.6,25.8-25.8V85.1c0-14.2-11.6-25.8-25.8-25.8c-1.1,0-2,0.9-2,2s0.9,2,2,2
			c12,0,21.8,9.8,21.8,21.8v127.7c0,12-9.8,21.8-21.8,21.8c-1.1,0-2,0.9-2,2S440.1,238.6,441.1,238.6z"/>
	</g>
	<g>
		<path d="M475.8,3.4c18.3,0,33.1,14.9,33.1,33.1v235.6c0,18.3-14.9,33.1-33.1,33.1H36.2C17.9,305.3,3,290.4,3,272.2V36.5
			C3,18.3,17.9,3.4,36.2,3.4H475.8 M475.8,0.4H36.2C16.3,0.4,0,16.7,0,36.5v235.6c0,19.9,16.3,36.2,36.2,36.2h439.7
			c19.9,0,36.2-16.3,36.2-36.2V36.5C512,16.7,495.7,0.4,475.8,0.4L475.8,0.4z"/>
	</g>
</g>
</svg>
