<?xml version="1.0" encoding="utf-8"?>
<!-- Generator: Adobe Illustrator 26.0.3, SVG Export Plug-In . SVG Version: 6.00 Build 0)  -->
<svg version="1.1" baseProfile="tiny" id="Layer_1" xmlns="http://www.w3.org/2000/svg" xmlns:xlink="http://www.w3.org/1999/xlink"
	 x="0px" y="0px" viewBox="0 0 64 64" overflow="visible" xml:space="preserve">
<path fill-rule="evenodd" d="M63.5,31.2c0.2,0.2,0.3,0.5,0.3,0.8c0,0,0,0,0,0.1c0,0,0,0,0,0c0,0,0,0,0,0c0,0,0,0,0,0.1
	c0,0.3-0.2,0.7-0.4,0.9c0,0-11.7,11.7-11.7,11.7c-0.6,0.6-1.4,0.6-2,0c-0.6-0.6-0.6-1.5,0-2l9.2-9.2H24.7c-0.8,0-1.4-0.6-1.4-1.5
	c0-0.8,0.6-1.5,1.4-1.5h34.2l-9.2-9.2c-0.6-0.6-0.6-1.5,0-2c0.6-0.6,1.4-0.6,2,0L63.3,31C63.3,31,63.4,31.2,63.5,31.2z M40.6,14.7
	c0-0.8-0.7-1.5-1.5-1.5H4.6c-0.8,0-1.4,0.6-1.4,1.5v34.8c0,0.8,0.6,1.5,1.4,1.5h34.6c0.8,0,1.4-0.7,1.4-1.5v-4.4h2.9V51
	c0,1.6-1.3,2.9-2.9,2.9H3.1c-1.6,0-2.9-1.3-2.9-2.9V13.2c0-1.6,1.3-2.9,2.9-2.9h37.5c1.6,0,2.9,1.3,2.9,2.9V19h-2.9V14.7z"/>
</svg>
