<?xml version="1.0" encoding="utf-8"?>
<!-- Generator: Adobe Illustrator 26.0.3, SVG Export Plug-In . SVG Version: 6.00 Build 0)  -->
<svg version="1.1" baseProfile="tiny" id="Layer_1" xmlns="http://www.w3.org/2000/svg" xmlns:xlink="http://www.w3.org/1999/xlink"
	 x="0px" y="0px" viewBox="0 0 64 64" overflow="visible" xml:space="preserve">
<path fill-rule="evenodd" d="M32.2,63.3C15,63.3,1,49.3,1,32.1C1,14.8,15,0.8,32.2,0.8c17.3,0,31.2,14,31.2,31.2
	C63.5,49.3,49.5,63.3,32.2,63.3z M25.9,43.8c-2.4,2-3.7,3-5.3,4.6c-2.2,2.2-3.6,4.3-4.4,5.7c4.5,3.3,10,5.3,16.1,5.3
	c6,0,11.5-2,16.1-5.3c-0.8-1.3-2.2-3.5-4.4-5.7c-1.6-1.6-2.6-2.5-5.3-4.6c-2.7-2.1-0.4-4.5-0.4-4.5c2.4-2.3,3.9-6,3.9-10.1
	c0-7-4.4-12.7-9.8-12.7c-5.4,0-9.8,5.7-9.8,12.7c0,4.1,1.5,7.8,3.8,10.1C26.3,39.3,28.3,41.8,25.9,43.8z M32.2,4.7
	C17.1,4.7,4.9,17,4.9,32.1c0,7.7,3.2,14.7,8.4,19.6c0.7-1.3,2.1-3.5,4.5-5.8c1.6-1.6,3.5-3.2,5.3-4.6c-2.7-3-4.4-7.3-4.4-12.2
	c0-9.2,6.1-16.6,13.7-16.6c7.5,0,13.7,7.4,13.7,16.6c0,4.8-1.7,9.1-4.4,12.2c1.7,1.4,3.7,3,5.3,4.6c2.3,2.3,3.7,4.6,4.5,5.8
	c5.1-5,8.4-11.9,8.4-19.6C59.5,17,47.3,4.7,32.2,4.7z"/>
</svg>
