<?xml version="1.0" encoding="utf-8"?>
<!-- Generator: Adobe Illustrator 28.5.0, SVG Export Plug-In . SVG Version: 9.03 Build 54727)  -->
<svg version="1.1" baseProfile="tiny" id="Layer_1" xmlns="http://www.w3.org/2000/svg" xmlns:xlink="http://www.w3.org/1999/xlink"
	 x="0px" y="0px" width="145.4px" height="160.3px" viewBox="0 0 145.4 160.3" overflow="visible" xml:space="preserve">
<g>
	<g>
		<g>
			<polygon fill="#0A0D0F" points="4.7,32.6 4.7,44.7 1.1,44.7 1.1,112.7 4.7,112.7 4.7,125 11.4,125 11.4,32.6 			"/>
		</g>
		<g>
			<polygon fill="#0A0D0F" points="140.7,125 140.7,112.8 144.2,112.8 144.2,44.8 140.7,44.8 140.7,32.6 134,32.6 134,125 			"/>
		</g>
	</g>
	<path fill="#0A0D0F" d="M110.6,32.8h-6.9v-4.1H41.5v4.1h-7.5L17.7,44.5v68l16.2,12.7h7.5v4.1h62.3v-4.1h6.9l16.9-12.7v-65
		L110.6,32.8z M49.7,50.9h-3.4L44,52.7V106l2.3,1.8h3.4v6h-5.5l-6.2-4.9V49.7l6.2-4.9h5.5V50.9z M62.6,106.4l6-24.5h-9.8l23.5-31.4
		l-6,24.5h9.8L62.6,106.4z M108.4,108.9l-6.2,4.9h-5.5v-6h3.4l2.3-1.8V52.7l-2.3-1.8h-3.4v-6h5.5l6.2,4.9V108.9z"/>
</g>
</svg>
