<?xml version="1.0" encoding="utf-8"?>
<!-- Generator: Adobe Illustrator 28.5.0, SVG Export Plug-In . SVG Version: 9.03 Build 54727)  -->
<svg version="1.1" baseProfile="tiny" id="Layer_1" xmlns="http://www.w3.org/2000/svg" xmlns:xlink="http://www.w3.org/1999/xlink"
	 x="0px" y="0px" width="145.4px" height="160.3px" viewBox="0 0 145.4 160.3" overflow="visible" xml:space="preserve">
<g>
	<path fill="#010202" d="M32.9,120.9H0.7v-83c0-9.8,3-19.4,8.7-27.5L15.2,2c0.8-1.1,2.4-1.1,3.2,0l5.9,8.4
		c5.6,8.1,8.7,17.7,8.7,27.5V120.9z"/>
	<path fill="#010202" d="M88.8,120.9H56.5v-83c0-9.8,3-19.4,8.7-27.5L71.1,2c0.8-1.1,2.4-1.1,3.2,0l5.9,8.4
		c5.6,8.1,8.7,17.7,8.7,27.5V120.9z"/>
	<path fill="#010202" d="M144.7,120.9h-32.3v-83c0-9.8,3-19.4,8.7-27.5l5.9-8.4c0.8-1.1,2.4-1.1,3.2,0l5.9,8.4
		c5.6,8.1,8.7,17.7,8.7,27.5V120.9z"/>
	<rect x="0.7" y="140.3" fill="#010202" width="32.3" height="18.9"/>
	<rect x="56.5" y="140.3" fill="#010202" width="32.3" height="18.9"/>
	<rect x="112.4" y="140.3" fill="#010202" width="32.3" height="18.9"/>
</g>
</svg>
