<?xml version="1.0" encoding="utf-8"?>
<!-- Generator: Adobe Illustrator 27.6.1, SVG Export Plug-In . SVG Version: 6.00 Build 0)  -->
<svg version="1.1" id="Layer_1" xmlns="http://www.w3.org/2000/svg" xmlns:xlink="http://www.w3.org/1999/xlink" x="0px" y="0px"
	 viewBox="0 0 500 500" style="enable-background:new 0 0 500 500;" xml:space="preserve">
<style type="text/css">
	.st0{fill:#FFFFFF;}
</style>
<path class="st0" d="M493.3,461.2H6.7L250,39.8L493.3,461.2 M495,462.2L250,37.8L5,462.2H495L495,462.2z"/>
<g>
	<polygon class="st0" points="250,63.1 473.1,449.6 26.9,449.6 	"/>
	<path class="st0" d="M472.3,449.1H27.7L250,64.1L472.3,449.1 M474,450.1l-224-388l-224,388H474L474,450.1z"/>
</g>
<g>
	<polygon class="st0" points="250,63.1 473.1,449.6 26.9,449.6 	"/>
	<path class="st0" d="M472.3,449.1H27.7L250,64.1L472.3,449.1 M474,450.1l-224-388l-224,388H474L474,450.1z"/>
</g>
</svg>
