<?xml version="1.0" encoding="utf-8"?>
<!-- Generator: Adobe Illustrator 27.8.0, SVG Export Plug-In . SVG Version: 6.00 Build 0)  -->
<svg version="1.1" baseProfile="tiny" id="Layer_1" xmlns="http://www.w3.org/2000/svg" xmlns:xlink="http://www.w3.org/1999/xlink"
	 x="0px" y="0px" viewBox="0 0 62.8 20.2" overflow="visible" xml:space="preserve">
<path fill="#FFFFFF" d="M0,2.8l0,14.6c0,1.6,1.3,2.8,2.8,2.8H60c1.6,0,2.8-1.3,2.8-2.8V2.8C62.8,1.3,61.5,0,60,0L2.8,0
	C1.3,0,0,1.3,0,2.8z M1.9,4.1c0-1,0.8-1.8,1.8-1.8h3.7c1,0,1.8,0.8,1.8,1.8v12.1c0,1-0.8,1.8-1.8,1.8H3.7c-1,0-1.8-0.8-1.8-1.8V4.1z
	"/>
</svg>
