<?xml version="1.0" encoding="utf-8"?>
<!-- Generator: Adobe Illustrator 24.2.1, SVG Export Plug-In . SVG Version: 6.00 Build 0)  -->
<svg version="1.1" id="Layer_1" xmlns="http://www.w3.org/2000/svg" xmlns:xlink="http://www.w3.org/1999/xlink" x="0px" y="0px"
	 viewBox="0 0 646.7 102.8" style="enable-background:new 0 0 646.7 102.8;" xml:space="preserve">
<style type="text/css">
	.st0{fill:#C60000;}
</style>
<g>
	<polygon class="st0" points="71.5,0 46.3,46.5 68.8,69.2 106.4,0 	"/>
	<polygon class="st0" points="0,0 22.2,22.3 34.3,0 	"/>
	<path class="st0" d="M611.8,0l-55.6,102.6c1.7-0.3,3.2-1.3,4.4-2.7l0.4-0.4l69.9-70.3L646.7,0H611.8z"/>
	<path class="st0" d="M143.4,0L92.8,93.4l6.3,6.3l0.2,0.2c1.5,1.8,3.7,2.9,6,2.9h17.4L178.4,0H143.4z"/>
	<polygon class="st0" points="215.6,0 164.8,93.8 199.8,93.8 250.6,0 	"/>
	<polygon class="st0" points="539.8,0 488.9,93.8 513.3,93.8 514.8,94.8 515.4,95.2 521.2,98.9 574.7,0 	"/>
	<polygon class="st0" points="458.8,0 408,93.8 442.9,93.8 493.8,0 	"/>
	<polygon class="st0" points="377.9,0 327.1,93.8 362,93.8 412.9,0 	"/>
	<polygon class="st0" points="296.1,0 245.3,93.8 280.2,93.8 331.1,0 	"/>
</g>
</svg>
