<?xml version="1.0" encoding="utf-8"?>
<!-- Generator: Adobe Illustrator 24.1.2, SVG Export Plug-In . SVG Version: 6.00 Build 0)  -->
<svg version="1.1" baseProfile="tiny" id="Layer_1" xmlns="http://www.w3.org/2000/svg" xmlns:xlink="http://www.w3.org/1999/xlink"
	 x="0px" y="0px" viewBox="0 0 1747.7 5.5" overflow="visible" xml:space="preserve">
<g id="Layer_2_1_">
	<g id="Layer_1-2">
		<rect fill="#B8B848" width="12.2" height="5.5"/>
		<rect x="25.1" fill="#B8B848" width="12.2" height="5.5"/>
		<rect x="50.3" fill="#B8B848" width="12.2" height="5.5"/>
		<rect x="75.5" fill="#B8B848" width="12.2" height="5.5"/>
		<rect x="100.6" fill="#B8B848" width="12.2" height="5.5"/>
		<rect x="125.8" fill="#B8B848" width="12.2" height="5.5"/>
		<rect x="150.9" fill="#B8B848" width="12.2" height="5.5"/>
		<rect x="176.1" fill="#B8B848" width="12.2" height="5.5"/>
		<rect x="201.2" fill="#B8B848" width="12.2" height="5.5"/>
		<rect x="226.4" fill="#B8B848" width="12.2" height="5.5"/>
		<rect x="251.5" fill="#B8B848" width="12.2" height="5.5"/>
		<rect x="276.7" fill="#B8B848" width="12.2" height="5.5"/>
		<rect x="301.8" fill="#B8B848" width="12.2" height="5.5"/>
		<rect x="327" fill="#B8B848" width="12.2" height="5.5"/>
		<rect x="352.1" fill="#B8B848" width="12.2" height="5.5"/>
		<rect x="377.3" fill="#B8B848" width="12.2" height="5.5"/>
		<rect x="402.4" fill="#B8B848" width="12.2" height="5.5"/>
		<rect x="427.6" fill="#B8B848" width="12.2" height="5.5"/>
		<rect x="452.7" fill="#B8B848" width="12.2" height="5.5"/>
		<rect x="477.9" fill="#B8B848" width="12.2" height="5.5"/>
		<rect x="503" fill="#B8B848" width="12.2" height="5.5"/>
		<rect x="528.2" fill="#B8B848" width="12.2" height="5.5"/>
		<rect x="553.3" fill="#B8B848" width="12.2" height="5.5"/>
		<rect x="578.5" fill="#B8B848" width="12.2" height="5.5"/>
		<rect x="603.7" fill="#B8B848" width="12.2" height="5.5"/>
		<rect x="628.8" fill="#B8B848" width="12.2" height="5.5"/>
		<rect x="654" fill="#B8B848" width="12.2" height="5.5"/>
		<rect x="679.1" fill="#B8B848" width="12.2" height="5.5"/>
		<rect x="704.3" fill="#B8B848" width="12.2" height="5.5"/>
		<rect x="729.4" fill="#B8B848" width="12.2" height="5.5"/>
		<rect x="754.6" fill="#B8B848" width="12.2" height="5.5"/>
		<rect x="779.7" fill="#B8B848" width="12.2" height="5.5"/>
		<rect x="804.9" fill="#B8B848" width="12.2" height="5.5"/>
		<rect x="830" fill="#B8B848" width="12.2" height="5.5"/>
		<rect x="855.2" fill="#B8B848" width="12.2" height="5.5"/>
		<rect x="880.3" fill="#B8B848" width="12.2" height="5.5"/>
		<rect x="905.5" fill="#B8B848" width="12.2" height="5.5"/>
		<rect x="930.6" fill="#B8B848" width="12.2" height="5.5"/>
		<rect x="955.8" fill="#B8B848" width="12.2" height="5.5"/>
		<rect x="980.9" fill="#B8B848" width="12.2" height="5.5"/>
		<rect x="1006.1" fill="#B8B848" width="12.2" height="5.5"/>
		<rect x="1031.2" fill="#B8B848" width="12.2" height="5.5"/>
		<rect x="1056.4" fill="#B8B848" width="12.2" height="5.5"/>
		<rect x="1081.5" fill="#B8B848" width="12.2" height="5.5"/>
		<rect x="1106.7" fill="#B8B848" width="12.2" height="5.5"/>
		<rect x="1131.8" fill="#B8B848" width="12.2" height="5.5"/>
		<rect x="1157" fill="#B8B848" width="12.2" height="5.5"/>
		<rect x="1182.1" fill="#B8B848" width="12.2" height="5.5"/>
		<rect x="1207.3" fill="#B8B848" width="12.2" height="5.5"/>
		<rect x="1232.4" fill="#B8B848" width="12.2" height="5.5"/>
		<rect x="1257.6" fill="#B8B848" width="12.2" height="5.5"/>
		<rect x="1282.8" fill="#B8B848" width="12.2" height="5.5"/>
		<rect x="1307.9" fill="#B8B848" width="12.2" height="5.5"/>
		<rect x="1333.1" fill="#B8B848" width="12.2" height="5.5"/>
		<rect x="1358.2" fill="#B8B848" width="12.2" height="5.5"/>
		<rect x="1383.4" fill="#B8B848" width="12.2" height="5.5"/>
		<rect x="1408.5" fill="#B8B848" width="12.2" height="5.5"/>
		<rect x="1433.7" fill="#B8B848" width="12.2" height="5.5"/>
		<rect x="1458.8" fill="#B8B848" width="12.2" height="5.5"/>
		<rect x="1484" fill="#B8B848" width="12.2" height="5.5"/>
		<rect x="1509.1" fill="#B8B848" width="12.2" height="5.5"/>
		<rect x="1534.3" fill="#B8B848" width="12.2" height="5.5"/>
		<rect x="1559.4" fill="#B8B848" width="12.2" height="5.5"/>
		<rect x="1584.6" fill="#B8B848" width="12.2" height="5.5"/>
		<rect x="1609.7" fill="#B8B848" width="12.2" height="5.5"/>
		<rect x="1634.9" fill="#B8B848" width="12.2" height="5.5"/>
		<rect x="1660" fill="#B8B848" width="12.2" height="5.5"/>
		<rect x="1685.2" fill="#B8B848" width="12.2" height="5.5"/>
		<rect x="1710.3" fill="#B8B848" width="12.2" height="5.5"/>
		<rect x="1735.5" fill="#B8B848" width="12.2" height="5.5"/>
	</g>
</g>
</svg>
