<?xml version="1.0" encoding="utf-8"?>
<!-- Generator: Adobe Illustrator 28.1.0, SVG Export Plug-In . SVG Version: 6.00 Build 0)  -->
<svg version="1.1" id="Layer_1" xmlns="http://www.w3.org/2000/svg" xmlns:xlink="http://www.w3.org/1999/xlink" x="0px" y="0px"
	 viewBox="0 0 170.1 895.7" style="enable-background:new 0 0 170.1 895.7;" xml:space="preserve">
<style type="text/css">
	.st0{fill-rule:evenodd;clip-rule:evenodd;fill:#C85420;}
</style>
<polygon id="opactty:30_00000050662227558740595160000016432508779162152077_" class="st0" points="157.3,675.5 0,675.5 0,776.2 
	12.8,789 170.1,789 170.1,688.3 "/>
<polygon id="opactty:30_00000111884752078354983060000003560609105865874318_" class="st0" points="157.3,533.3 0,533.3 0,634 
	12.8,646.8 170.1,646.8 170.1,546.1 "/>
<polygon id="opactty:30_00000017475926604345776930000005883584988876680379_" class="st0" points="157.3,391.8 0,391.8 0,492.5 
	12.8,505.4 170.1,505.4 170.1,404.7 "/>
<polygon id="opactty:30_00000064316619020719700990000000996784096241535903_" class="st0" points="157.3,249.6 0,249.6 0,350.3 
	12.8,363.1 170.1,363.1 170.1,262.4 "/>
<polygon id="opactty:30" class="st0" points="157.3,108 0,108 0,208.7 12.8,221.5 170.1,221.5 170.1,120.8 "/>
</svg>
