<?xml version="1.0" encoding="utf-8"?>
<!-- Generator: Adobe Illustrator 28.1.0, SVG Export Plug-In . SVG Version: 6.00 Build 0)  -->
<svg version="1.1" id="Layer_1" xmlns="http://www.w3.org/2000/svg" xmlns:xlink="http://www.w3.org/1999/xlink" x="0px" y="0px"
	 viewBox="0 0 21.9 667.7" style="enable-background:new 0 0 21.9 667.7;" xml:space="preserve">
<style type="text/css">
	.st0{fill:#FFFFFF;}
</style>
<g>
	<g>
		<path class="st0" d="M1.2,666.7c-0.6-0.7-1-1.6-1-2.7v-6.3c0-1.1,0.3-2,1-2.7c0.6-0.7,1.5-1,2.6-1s1.9,0.3,2.6,1s1,1.6,1,2.7v6.3
			c0,1.1-0.3,2-1,2.7s-1.5,1-2.6,1S2,667.4,1.2,666.7z M4.8,665.3c0.2-0.3,0.4-0.7,0.4-1.2v-6.6c0-0.5-0.1-0.9-0.4-1.2
			s-0.6-0.4-1-0.4s-0.7,0.1-1,0.4c-0.2,0.3-0.4,0.7-0.4,1.2v6.6c0,0.5,0.1,0.9,0.4,1.2c0.2,0.3,0.6,0.4,1,0.4
			C4.2,665.8,4.5,665.6,4.8,665.3z"/>
	</g>
</g>
<g>
	<g>
		<path class="st0" d="M2.3,588.8h1.8c0.1,0,0.1,0,0.2,0.1c0,0,0.1,0.1,0.1,0.2v12.8c0,0.1,0,0.1-0.1,0.2c0,0-0.1,0.1-0.2,0.1H2.4
			c-0.1,0-0.1,0-0.2-0.1c0,0-0.1-0.1-0.1-0.2v-10.7c0,0,0,0,0-0.1c0,0,0,0-0.1,0l-1.6,0.3h0.1c-0.1,0-0.2-0.1-0.2-0.2l-0.1-1.3
			c0-0.1,0-0.2,0.2-0.3l1.7-0.8C2.1,588.8,2.2,588.8,2.3,588.8z"/>
		<path class="st0" d="M6.9,601.3c-0.6-0.7-1-1.6-1-2.7v-6.3c0-1.1,0.3-2,1-2.7c0.6-0.7,1.5-1,2.6-1s1.9,0.3,2.6,1s1,1.6,1,2.7v6.3
			c0,1.1-0.3,2-1,2.7s-1.5,1-2.6,1S7.7,602,6.9,601.3z M10.5,599.9c0.2-0.3,0.4-0.7,0.4-1.2v-6.6c0-0.5-0.1-0.9-0.4-1.2
			s-0.6-0.4-1-0.4s-0.7,0.1-1,0.4c-0.2,0.3-0.4,0.7-0.4,1.2v6.6c0,0.5,0.1,0.9,0.4,1.2c0.2,0.3,0.6,0.4,1,0.4
			C9.9,600.4,10.2,600.2,10.5,599.9z"/>
	</g>
</g>
<g>
	<g>
		<path class="st0" d="M3,534.8C3,534.9,3,534.9,3,534.8h4.2c0.1,0,0.1,0,0.2,0.1c0,0,0.1,0.1,0.1,0.2v1.4c0,0.1,0,0.1-0.1,0.2
			c0,0-0.1,0.1-0.2,0.1H0.6c-0.1,0-0.1,0-0.2-0.1c0,0-0.1-0.1-0.1-0.2V535c0-0.1,0-0.2,0.1-0.3l0.7-1c0.5-0.7,1-1.3,1.5-2
			s0.9-1.3,1.2-1.8c0.7-1.2,1.1-2.2,1.1-3c0-0.5-0.1-0.9-0.3-1.2s-0.5-0.4-0.9-0.4s-0.7,0.1-0.9,0.4c-0.2,0.3-0.3,0.7-0.3,1.1v0.7
			c0,0.1,0,0.1-0.1,0.2c0,0-0.1,0.1-0.2,0.1H0.5c-0.1,0-0.1,0-0.2-0.1c0,0-0.1-0.1-0.1-0.2v-0.8c0.1-1,0.4-1.8,1-2.5
			c0.6-0.6,1.5-0.9,2.5-0.9s1.8,0.3,2.4,1s0.9,1.5,0.9,2.6c0,0.6-0.1,1.3-0.3,1.9c-0.2,0.6-0.6,1.3-1,2c-0.3,0.5-0.7,1.1-1.1,1.7
			c-0.4,0.6-0.7,1-0.9,1.2C3.4,534.1,3.2,534.5,3,534.8C2.9,534.8,2.9,534.8,3,534.8z"/>
		<path class="st0" d="M9.5,536c-0.6-0.7-1-1.6-1-2.7v-6.4c0-1.1,0.3-2,1-2.7c0.6-0.7,1.5-1,2.6-1s1.9,0.3,2.6,1s1,1.6,1,2.7v6.3
			c0,1.1-0.3,2-1,2.7s-1.5,1-2.6,1C11,537,10.2,536.6,9.5,536z M13.1,534.6c0.2-0.3,0.4-0.7,0.4-1.2v-6.6c0-0.5-0.1-0.9-0.4-1.2
			s-0.6-0.4-1-0.4s-0.7,0.1-1,0.4c-0.2,0.3-0.4,0.7-0.4,1.2v6.6c0,0.5,0.1,0.9,0.4,1.2c0.2,0.3,0.6,0.4,1,0.4
			C12.5,535.1,12.8,534.9,13.1,534.6z"/>
	</g>
</g>
<g>
	<g>
		<path class="st0" d="M7,467.2c0,0.6,0,1.2-0.1,1.6c-0.2,0.9-0.5,1.5-1,2s-1.3,0.7-2.2,0.7c-1,0-1.7-0.3-2.4-0.8
			c-0.6-0.5-1-1.2-1-2.1c0-0.3-0.1-0.7-0.1-1.2c0-0.2,0.1-0.2,0.2-0.2h1.7c0.2,0,0.2,0.1,0.2,0.2c0,0.4,0,0.8,0.1,1
			c0.1,0.4,0.2,0.7,0.4,0.9c0.2,0.2,0.5,0.3,0.8,0.3s0.6-0.1,0.8-0.3c0.2-0.2,0.3-0.5,0.4-0.8c0.1-0.4,0.1-0.9,0.1-1.5
			s0-1.2-0.1-1.6c-0.1-0.3-0.2-0.6-0.4-0.8c-0.2-0.2-0.4-0.3-0.7-0.3c-0.2,0-0.4,0.1-0.5,0.2s-0.1,0.1-0.2,0.1c0,0-0.1,0-0.2-0.1
			l-0.9-0.9c-0.1-0.1-0.1-0.1-0.1-0.2s0-0.1,0.1-0.2l2.4-3.2v-0.1c0,0,0,0-0.1,0H0.6c-0.1,0-0.1,0-0.2-0.1c0,0-0.1-0.1-0.1-0.2v-1.4
			c0-0.1,0-0.1,0.1-0.2c0,0,0.1-0.1,0.2-0.1h6.2c0.1,0,0.1,0,0.2,0.1c0,0,0.1,0.1,0.1,0.2v1.5c0,0.1,0,0.2-0.1,0.3l-2.2,3
			c-0.1,0.1,0,0.1,0,0.1c0.5,0.1,1,0.3,1.3,0.7c0.4,0.4,0.6,1,0.8,1.6C6.9,466,7,466.6,7,467.2z"/>
		<path class="st0" d="M9.4,470.5c-0.6-0.7-1-1.6-1-2.7v-6.3c0-1.1,0.3-2,1-2.7c0.6-0.7,1.5-1,2.6-1s1.9,0.3,2.6,1s1,1.6,1,2.7v6.3
			c0,1.1-0.3,2-1,2.7s-1.5,1-2.6,1C10.9,471.6,10.1,471.2,9.4,470.5z M13,469.2c0.2-0.3,0.4-0.7,0.4-1.2v-6.6c0-0.5-0.1-0.9-0.4-1.2
			s-0.6-0.4-1-0.4s-0.7,0.1-1,0.4c-0.2,0.3-0.4,0.7-0.4,1.2v6.6c0,0.5,0.1,0.9,0.4,1.2c0.2,0.3,0.6,0.4,1,0.4
			C12.4,469.6,12.7,469.5,13,469.2z"/>
	</g>
</g>
<g>
	<g>
		<path class="st0" d="M8.3,400.6c0,0,0.1,0.1,0.1,0.2v1.5c0,0.1,0,0.1-0.1,0.2c0,0-0.1,0.1-0.2,0.1H7.5c-0.1,0-0.1,0-0.1,0.1v3.1
			c0,0.1,0,0.1-0.1,0.2c0,0-0.1,0.1-0.2,0.1H5.4c-0.1,0-0.1,0-0.2-0.1c0,0-0.1-0.1-0.1-0.2v-3.1c0-0.1,0-0.1-0.1-0.1H0.5
			c-0.1,0-0.1,0-0.2-0.1c0,0-0.1-0.1-0.1-0.2v-1.2c0-0.1,0-0.2,0-0.3l2.6-7.9c0-0.1,0.1-0.2,0.2-0.2h1.9c0.1,0,0.1,0,0.2,0.1
			s0,0.1,0,0.2l-2.2,7.4c0,0.1,0,0.1,0.1,0.1h2.2c0.1,0,0.1,0,0.1-0.1v-2.3c0-0.1,0-0.1,0.1-0.2c0,0,0.1-0.1,0.2-0.1h1.7
			c0.1,0,0.1,0,0.2,0.1c0,0,0.1,0.1,0.1,0.2v2.3c0,0.1,0,0.1,0.1,0.1h0.6C8.2,400.5,8.3,400.5,8.3,400.6z"/>
		<path class="st0" d="M10.4,405.1c-0.6-0.7-1-1.6-1-2.7v-6.3c0-1.1,0.3-2,1-2.7c0.6-0.7,1.5-1,2.6-1s1.9,0.3,2.6,1s1,1.6,1,2.7v6.3
			c0,1.1-0.3,2-1,2.7s-1.5,1-2.6,1S11.1,405.8,10.4,405.1z M14,403.8c0.2-0.3,0.4-0.7,0.4-1.2V396c0-0.5-0.1-0.9-0.4-1.2
			s-0.6-0.4-1-0.4s-0.7,0.1-1,0.4c-0.2,0.3-0.4,0.7-0.4,1.2v6.6c0,0.5,0.1,0.9,0.4,1.2c0.2,0.3,0.6,0.4,1,0.4S13.7,404.1,14,403.8z"
			/>
	</g>
</g>
<g>
	<g>
		<path class="st0" d="M7.3,336.4c0,0.5,0,1-0.1,1.3c-0.1,0.9-0.4,1.7-1,2.2s-1.4,0.8-2.4,0.8c-0.9,0-1.7-0.2-2.3-0.7
			s-0.9-1.2-1.1-2.2l-0.1-0.5c0-0.2,0.1-0.2,0.2-0.2h1.7c0.2,0,0.2,0.1,0.2,0.2s0,0.2,0,0.3c0.2,0.8,0.5,1.2,1.1,1.2
			c0.3,0,0.6-0.1,0.8-0.3c0.2-0.2,0.3-0.5,0.4-0.9c0-0.3,0.1-0.7,0.1-1.2s0-0.9-0.1-1.2c-0.1-0.3-0.2-0.6-0.4-0.8s-0.4-0.3-0.7-0.3
			c-0.6,0-1,0.3-1.2,0.9c0,0.1-0.1,0.2-0.2,0.2H0.6c-0.1,0-0.1,0-0.2-0.1c0,0-0.1-0.1-0.1-0.2v-7.5c0-0.1,0-0.1,0.1-0.2
			c0,0,0.1-0.1,0.2-0.1h6.2c0.1,0,0.1,0,0.2,0.1c0,0,0.1,0.1,0.1,0.2v1.4c0,0.1,0,0.1-0.1,0.2c0,0-0.1,0.1-0.2,0.1H2.7
			c-0.1,0-0.1,0-0.1,0.1v3.7v0.1c0,0,0,0,0.1,0c0.2-0.2,0.5-0.4,0.8-0.5s0.6-0.2,1-0.2c0.8,0,1.4,0.2,1.8,0.7
			c0.5,0.5,0.7,1.2,0.8,2.1C7.2,335.4,7.3,335.9,7.3,336.4z"/>
		<path class="st0" d="M9.4,339.7c-0.6-0.7-1-1.6-1-2.7v-6.3c0-1.1,0.3-2,1-2.7c0.6-0.7,1.5-1,2.6-1s1.9,0.3,2.6,1s1,1.6,1,2.7v6.3
			c0,1.1-0.3,2-1,2.7s-1.5,1-2.6,1S10.2,340.4,9.4,339.7z M13.1,338.4c0.2-0.3,0.4-0.7,0.4-1.2v-6.6c0-0.5-0.1-0.9-0.4-1.2
			c-0.2-0.3-0.6-0.4-1-0.4s-0.7,0.1-1,0.4c-0.2,0.3-0.4,0.7-0.4,1.2v6.6c0,0.5,0.1,0.9,0.4,1.2c0.2,0.3,0.6,0.4,1,0.4
			S12.7,338.7,13.1,338.4z"/>
	</g>
</g>
<g>
	<g>
		<path class="st0" d="M7.1,271c0,0.3,0,0.7,0,1.2c-0.1,1-0.4,1.7-1,2.2s-1.4,0.8-2.4,0.8c-0.9,0-1.7-0.2-2.3-0.7s-0.9-1.2-1-2.2
			c-0.1-0.3-0.1-0.7-0.1-1.2v-6.2c0-1,0.3-1.8,0.9-2.4s1.5-0.9,2.5-0.9s1.7,0.3,2.4,0.9c0.6,0.6,0.9,1.4,0.9,2.4v0.5
			c0,0.1,0,0.1-0.1,0.2c0,0-0.1,0.1-0.2,0.1H4.9c-0.1,0-0.1,0-0.2-0.1c0,0-0.1-0.1-0.1-0.2V265c0-0.4-0.1-0.8-0.3-1.1
			c-0.2-0.3-0.5-0.4-0.8-0.4c-0.4,0-0.6,0.1-0.9,0.4c-0.2,0.3-0.3,0.6-0.3,1.1v2v0.1h0.1c0.4-0.3,0.8-0.5,1.4-0.5
			c0.9,0,1.6,0.3,2.1,0.8c0.5,0.6,0.9,1.3,1,2.2C7.1,270.1,7.1,270.5,7.1,271z M4.9,270.9c0-0.3,0-0.8-0.1-1.3
			c-0.2-0.7-0.5-1.1-1.1-1.1c-0.3,0-0.6,0.1-0.8,0.3c-0.2,0.2-0.3,0.5-0.4,0.9c-0.1,0.4-0.1,0.9-0.1,1.3s0,0.8,0.1,1.3
			c0.1,0.4,0.2,0.7,0.4,0.9s0.5,0.3,0.8,0.3s0.6-0.1,0.8-0.3s0.3-0.6,0.4-1C4.8,271.6,4.9,271.2,4.9,270.9z"/>
		<path class="st0" d="M9.2,274.3c-0.6-0.7-1-1.6-1-2.7v-6.3c0-1.1,0.3-2,1-2.7c0.6-0.7,1.5-1,2.6-1s1.9,0.3,2.6,1s1,1.6,1,2.7v6.3
			c0,1.1-0.3,2-1,2.7s-1.5,1-2.6,1S10,275,9.2,274.3z M12.9,273c0.2-0.3,0.4-0.7,0.4-1.2v-6.6c0-0.5-0.1-0.9-0.4-1.2
			c-0.2-0.3-0.6-0.4-1-0.4s-0.7,0.1-1,0.4c-0.2,0.3-0.4,0.7-0.4,1.2v6.6c0,0.5,0.1,0.9,0.4,1.2c0.2,0.3,0.6,0.4,1,0.4
			S12.5,273.2,12.9,273z"/>
	</g>
</g>
<g>
	<g>
		<path class="st0" d="M1.7,209.4l3.1-11c0-0.1,0-0.1-0.1-0.1H2.2c-0.1,0-0.1,0-0.1,0.1v0.7c0,0.1,0,0.1-0.1,0.2
			c0,0-0.1,0.1-0.2,0.1H0.5c-0.1,0-0.1,0-0.2-0.1c0,0-0.1-0.1-0.1-0.2v-2.5c0-0.1,0-0.1,0.1-0.2c0,0,0.1-0.1,0.2-0.1h6.4
			c0.1,0,0.1,0,0.2,0.1s0.1,0.1,0.1,0.2v1.5c0,0.1,0,0.1,0,0.3L4,209.5c0,0.1-0.1,0.2-0.3,0.2H1.9C1.7,209.7,1.6,209.6,1.7,209.4z"
			/>
		<path class="st0" d="M9.1,208.9c-0.6-0.7-1-1.6-1-2.7v-6.3c0-1.1,0.3-2,1-2.7c0.6-0.7,1.5-1,2.6-1s1.9,0.3,2.6,1s1,1.6,1,2.7v6.3
			c0,1.1-0.3,2-1,2.7s-1.5,1-2.6,1S9.8,209.6,9.1,208.9z M12.7,207.5c0.2-0.3,0.4-0.7,0.4-1.2v-6.6c0-0.5-0.1-0.9-0.4-1.2
			c-0.2-0.3-0.6-0.4-1-0.4s-0.7,0.1-1,0.4c-0.2,0.3-0.4,0.7-0.4,1.2v6.6c0,0.5,0.1,0.9,0.4,1.2c0.2,0.3,0.6,0.4,1,0.4
			C12.1,208,12.4,207.8,12.7,207.5z"/>
	</g>
</g>
<g>
	<g>
		<path class="st0" d="M5.8,137.4c0.4,0.2,0.7,0.6,1,1.1c0.3,0.6,0.4,1.3,0.4,2s-0.1,1.3-0.3,1.8c-0.3,0.7-0.6,1.2-1.2,1.6
			c-0.5,0.4-1.2,0.6-1.9,0.6s-1.4-0.2-1.9-0.6s-0.9-0.9-1.2-1.6c-0.2-0.5-0.3-1.1-0.3-1.8s0.1-1.4,0.3-1.9c0.2-0.5,0.5-0.9,1-1.2
			v-0.1c-0.4-0.3-0.7-0.6-1-1.1s-0.4-1.2-0.4-1.8c0-0.7,0.1-1.3,0.4-1.8c0.3-0.6,0.6-1,1.2-1.3c0.5-0.3,1.1-0.5,1.8-0.5
			s1.3,0.1,1.8,0.4c0.5,0.3,0.9,0.7,1.2,1.3c0.3,0.5,0.4,1.2,0.4,1.9s-0.1,1.3-0.4,1.8c-0.2,0.5-0.6,0.8-1,1.1
			C5.8,137.3,5.8,137.3,5.8,137.4z M2.7,133.7c-0.1,0.2-0.1,0.5-0.1,0.9s0.1,0.7,0.2,1.1c0.1,0.3,0.2,0.5,0.4,0.6
			c0.2,0.2,0.4,0.2,0.6,0.2c0.3,0,0.5-0.1,0.7-0.2s0.3-0.4,0.4-0.7c0.1-0.3,0.2-0.6,0.2-1s-0.1-0.8-0.2-1c-0.1-0.3-0.2-0.5-0.4-0.6
			s-0.4-0.2-0.6-0.2c-0.2,0-0.4,0.1-0.6,0.2c-0.2,0.1-0.3,0.3-0.4,0.5L2.7,133.7z M4.9,140.4c0-0.5-0.1-0.9-0.2-1.2
			c-0.1-0.3-0.2-0.5-0.4-0.7s-0.4-0.3-0.7-0.3s-0.5,0.1-0.7,0.3s-0.3,0.4-0.4,0.8c-0.1,0.3-0.2,0.7-0.2,1.1c0,0.4,0,0.8,0.1,1.1
			c0.1,0.4,0.2,0.6,0.4,0.8s0.4,0.3,0.7,0.3s0.5-0.1,0.7-0.3s0.3-0.5,0.4-0.9C4.9,141,4.9,140.7,4.9,140.4z"/>
		<path class="st0" d="M9.6,143.5c-0.6-0.7-1-1.6-1-2.7v-6.3c0-1.1,0.3-2,1-2.7c0.6-0.7,1.5-1,2.6-1s1.9,0.3,2.6,1s1,1.6,1,2.7v6.3
			c0,1.1-0.3,2-1,2.7s-1.5,1-2.6,1S10.3,144.1,9.6,143.5z M13.2,142.1c0.2-0.3,0.4-0.7,0.4-1.2v-6.6c0-0.5-0.1-0.9-0.4-1.2
			c-0.2-0.3-0.6-0.4-1-0.4s-0.7,0.1-1,0.4c-0.2,0.3-0.4,0.7-0.4,1.2v6.6c0,0.5,0.1,0.9,0.4,1.2c0.2,0.3,0.6,0.4,1,0.4
			C12.6,142.6,12.8,142.4,13.2,142.1z"/>
	</g>
</g>
<g>
	<g>
		<path class="st0" d="M7,75.7c0,1-0.3,1.8-0.9,2.4S4.6,79,3.6,79s-1.7-0.3-2.4-0.9c-0.6-0.6-0.9-1.4-0.9-2.4v-0.5
			c0-0.1,0-0.1,0.1-0.2c0,0,0.1-0.1,0.2-0.1h1.7c0.1,0,0.1,0,0.2,0.1c0,0,0.1,0.1,0.1,0.2v0.4c0,0.4,0.1,0.8,0.3,1.1
			c0.2,0.3,0.5,0.4,0.8,0.4c0.4,0,0.6-0.1,0.9-0.4c0.2-0.3,0.3-0.6,0.3-1.1v-1.9v-0.1H4.8c-0.4,0.3-0.8,0.5-1.4,0.5
			c-0.9,0-1.6-0.3-2.1-0.8c-0.5-0.6-0.9-1.3-1-2.2c-0.1-0.4-0.1-0.9-0.1-1.3s0-0.8,0.1-1.2c0.1-1,0.4-1.7,1-2.2s1.4-0.8,2.4-0.8
			c0.9,0,1.7,0.2,2.3,0.7s0.9,1.2,1.1,2.2c0.1,0.4,0.1,0.8,0.1,1.2L7,75.7z M4.8,69.8c0-0.4,0-0.8-0.1-1.3c-0.1-0.8-0.5-1.3-1.1-1.3
			c-0.3,0-0.6,0.1-0.8,0.3c-0.2,0.2-0.3,0.6-0.4,1c0,0.3,0,0.7,0,1.2s0,0.9,0.1,1.3s0.2,0.6,0.4,0.8s0.4,0.3,0.7,0.3
			s0.6-0.1,0.8-0.3c0.2-0.2,0.3-0.5,0.4-0.9C4.7,70.7,4.8,70.2,4.8,69.8z"/>
		<path class="st0" d="M9.4,78.1c-0.6-0.7-1-1.6-1-2.7v-6.3c0-1.1,0.3-2,1-2.7c0.6-0.7,1.5-1,2.6-1s1.9,0.3,2.6,1s1,1.6,1,2.7v6.3
			c0,1.1-0.3,2-1,2.7s-1.5,1-2.6,1S10.1,78.7,9.4,78.1z M13,76.7c0.2-0.3,0.4-0.7,0.4-1.2v-6.6c0-0.5-0.1-0.9-0.4-1.2
			c-0.2-0.3-0.6-0.4-1-0.4s-0.7,0.1-1,0.4c-0.2,0.3-0.4,0.7-0.4,1.2v6.6c0,0.5,0.1,0.9,0.4,1.2c0.2,0.3,0.6,0.4,1,0.4
			C12.4,77.2,12.7,77,13,76.7z"/>
	</g>
</g>
<g>
	<g>
		<path class="st0" d="M2.3,0.2h1.8c0.1,0,0.1,0,0.2,0.1c0,0,0.1,0.1,0.1,0.2v12.8c0,0.1,0,0.1-0.1,0.2c0,0-0.1,0.1-0.2,0.1H2.4
			c-0.1,0-0.1,0-0.2-0.1c0,0-0.1-0.1-0.1-0.2V2.6V2.5c0,0,0,0-0.1,0L0.5,2.8H0.4c-0.1,0-0.2-0.1-0.2-0.2V1.3c0-0.1,0-0.2,0.2-0.3
			l1.7-0.8C2.1,0.3,2.2,0.2,2.3,0.2z"/>
		<path class="st0" d="M6.9,12.7c-0.6-0.7-1-1.6-1-2.7V3.7c0-1.1,0.3-2,1-2.7c0.6-0.7,1.5-1,2.6-1s1.9,0.3,2.6,1
			c0.7,0.7,1,1.6,1,2.7V10c0,1.1-0.3,2-1,2.7s-1.5,1-2.6,1C8.4,13.8,7.5,13.4,6.9,12.7z M10.4,11.4c0.2-0.3,0.4-0.7,0.4-1.2V3.6
			c0-0.5-0.1-0.9-0.4-1.2C10.2,2.1,9.8,2,9.4,2s-0.7,0.1-1,0.4C8.2,2.7,8.1,3.1,8.1,3.6v6.6c0,0.5,0.1,0.9,0.4,1.2
			c0.2,0.3,0.6,0.4,1,0.4C9.8,11.8,10.2,11.7,10.4,11.4z"/>
		<path class="st0" d="M15.4,12.7c-0.6-0.7-1-1.6-1-2.7V3.7c0-1.1,0.3-2,1-2.7C16,0.3,16.9,0,18,0s1.9,0.3,2.6,1s1,1.6,1,2.7V10
			c0,1.1-0.3,2-1,2.7s-1.5,1-2.6,1C16.9,13.8,16.1,13.4,15.4,12.7z M19,11.4c0.2-0.3,0.4-0.7,0.4-1.2V3.6c0-0.5-0.1-0.9-0.4-1.2
			C18.8,2.1,18.4,2,18,2s-0.7,0.1-1,0.4c-0.2,0.3-0.4,0.7-0.4,1.2v6.6c0,0.5,0.1,0.9,0.4,1.2c0.2,0.3,0.6,0.4,1,0.4
			C18.4,11.8,18.7,11.7,19,11.4z"/>
	</g>
</g>
</svg>
