<?xml version="1.0" encoding="utf-8"?>
<!-- Generator: Adobe Illustrator 28.1.0, SVG Export Plug-In . SVG Version: 6.00 Build 0)  -->
<svg version="1.1" id="Layer_1" xmlns="http://www.w3.org/2000/svg" xmlns:xlink="http://www.w3.org/1999/xlink" x="0px" y="0px"
	 viewBox="0 0 23.5 747.8" style="enable-background:new 0 0 23.5 747.8;" xml:space="preserve">
<style type="text/css">
	.st0{fill:#FFFFFF;}
</style>
<g>
	<g>
		<path class="st0" d="M16.2,746.8c-0.6-0.7-1-1.6-1-2.7v-6.3c0-1.1,0.3-2,1-2.7c0.6-0.7,1.5-1,2.6-1s1.9,0.3,2.6,1s1,1.6,1,2.7v6.3
			c0,1.1-0.3,2-1,2.7s-1.5,1-2.6,1S17,747.5,16.2,746.8z M19.9,745.4c0.2-0.3,0.4-0.7,0.4-1.2v-6.6c0-0.5-0.1-0.9-0.4-1.2
			s-0.6-0.4-1-0.4s-0.7,0.1-1,0.4c-0.2,0.3-0.4,0.7-0.4,1.2v6.6c0,0.5,0.1,0.9,0.4,1.2c0.2,0.3,0.6,0.4,1,0.4
			C19.2,745.9,19.5,745.7,19.9,745.4z"/>
	</g>
</g>
<g>
	<g>
		<path class="st0" d="M11.6,661h1.8c0.1,0,0.1,0,0.2,0.1c0,0,0.1,0.1,0.1,0.2v12.8c0,0.1,0,0.1-0.1,0.2c0,0-0.1,0.1-0.2,0.1h-1.7
			c-0.1,0-0.1,0-0.2-0.1c0,0-0.1-0.1-0.1-0.2v-10.7c0,0,0,0,0-0.1c0,0,0,0-0.1,0l-1.6,0.3h0.1c-0.1,0-0.2-0.1-0.2-0.2l-0.1-1.3
			c0-0.1,0-0.2,0.2-0.3l1.7-0.8C11.4,661,11.6,661,11.6,661z"/>
		<path class="st0" d="M16.2,673.5c-0.6-0.7-1-1.6-1-2.7v-6.3c0-1.1,0.3-2,1-2.7c0.6-0.7,1.5-1,2.6-1s1.9,0.3,2.6,1s1,1.6,1,2.7v6.3
			c0,1.1-0.3,2-1,2.7s-1.5,1-2.6,1S17,674.2,16.2,673.5z M19.9,672.1c0.2-0.3,0.4-0.7,0.4-1.2v-6.6c0-0.5-0.1-0.9-0.4-1.2
			s-0.6-0.4-1-0.4s-0.7,0.1-1,0.4c-0.2,0.3-0.4,0.7-0.4,1.2v6.6c0,0.5,0.1,0.9,0.4,1.2c0.2,0.3,0.6,0.4,1,0.4
			C19.2,672.6,19.5,672.4,19.9,672.1z"/>
	</g>
</g>
<g>
	<g>
		<path class="st0" d="M9.8,599C9.8,599.1,9.8,599.1,9.8,599h4.2c0.1,0,0.1,0,0.2,0.1c0,0,0.1,0.1,0.1,0.2v1.4c0,0.1,0,0.1-0.1,0.2
			c0,0-0.1,0.1-0.2,0.1H7.3c-0.1,0-0.1,0-0.2-0.1c0,0-0.1-0.1-0.1-0.2v-1.5c0-0.1,0-0.2,0.1-0.3l0.7-1c0.5-0.7,1-1.3,1.5-2
			s0.9-1.3,1.2-1.8c0.7-1.2,1.1-2.2,1.1-3c0-0.5-0.1-0.9-0.3-1.2s-0.5-0.4-0.9-0.4s-0.7,0.1-0.9,0.4c-0.2,0.3-0.3,0.7-0.3,1.1v0.7
			c0,0.1,0,0.1-0.1,0.2c0,0-0.1,0.1-0.2,0.1H7.2c-0.1,0-0.1,0-0.2-0.1c0,0-0.1-0.1-0.1-0.2v-0.8c0.1-1,0.4-1.8,1-2.5
			c0.6-0.6,1.5-0.9,2.5-0.9s1.8,0.3,2.4,1s0.9,1.5,0.9,2.6c0,0.6-0.1,1.3-0.3,1.9c-0.2,0.6-0.6,1.3-1,2c-0.3,0.5-0.7,1.1-1.1,1.7
			c-0.4,0.6-0.7,1-0.9,1.2C10.1,598.3,9.9,598.7,9.8,599C9.6,599,9.6,599,9.8,599z"/>
		<path class="st0" d="M16.2,600.2c-0.6-0.7-1-1.6-1-2.7v-6.4c0-1.1,0.3-2,1-2.7c0.6-0.7,1.5-1,2.6-1s1.9,0.3,2.6,1s1,1.6,1,2.7v6.3
			c0,1.1-0.3,2-1,2.7s-1.5,1-2.6,1C17.8,601.2,17,600.8,16.2,600.2z M19.9,598.8c0.2-0.3,0.4-0.7,0.4-1.2V591c0-0.5-0.1-0.9-0.4-1.2
			s-0.6-0.4-1-0.4s-0.7,0.1-1,0.4c-0.2,0.3-0.4,0.7-0.4,1.2v6.6c0,0.5,0.1,0.9,0.4,1.2c0.2,0.3,0.6,0.4,1,0.4
			C19.2,599.3,19.5,599.1,19.9,598.8z"/>
	</g>
</g>
<g>
	<g>
		<path class="st0" d="M13.9,523.5c0,0.6,0,1.2-0.1,1.6c-0.2,0.9-0.5,1.5-1,2s-1.3,0.7-2.2,0.7c-1,0-1.7-0.3-2.4-0.8
			c-0.6-0.5-1-1.2-1-2.1c0-0.3-0.1-0.7-0.1-1.2c0-0.2,0.1-0.2,0.2-0.2h1.7c0.2,0,0.2,0.1,0.2,0.2c0,0.4,0,0.8,0.1,1
			c0.1,0.4,0.2,0.7,0.4,0.9c0.2,0.2,0.5,0.3,0.8,0.3s0.6-0.1,0.8-0.3s0.3-0.5,0.4-0.8c0.1-0.4,0.1-0.9,0.1-1.5c0-0.6,0-1.2-0.1-1.6
			c-0.1-0.3-0.2-0.6-0.4-0.8c-0.2-0.2-0.4-0.3-0.7-0.3c-0.2,0-0.4,0.1-0.5,0.2c-0.1,0.1-0.1,0.1-0.2,0.1c0,0-0.1,0-0.2-0.1l-0.9-0.9
			c-0.1-0.1-0.1-0.1-0.1-0.2c0-0.1,0-0.1,0.1-0.2l2.4-3.2v-0.1c0,0,0,0-0.1,0H7.4c-0.1,0-0.1,0-0.2-0.1c0,0-0.1-0.1-0.1-0.2v-1.4
			c0-0.1,0-0.1,0.1-0.2c0,0,0.1-0.1,0.2-0.1h6.2c0.1,0,0.1,0,0.2,0.1c0,0,0.1,0.1,0.1,0.2v1.5c0,0.1,0,0.2-0.1,0.3l-2.2,3
			c-0.1,0.1,0,0.1,0,0.1c0.5,0.1,1,0.3,1.3,0.7c0.4,0.4,0.6,1,0.8,1.6C13.8,522.3,13.9,522.9,13.9,523.5z"/>
		<path class="st0" d="M16.2,526.8c-0.6-0.7-1-1.6-1-2.7v-6.3c0-1.1,0.3-2,1-2.7c0.6-0.7,1.5-1,2.6-1s1.9,0.3,2.6,1s1,1.6,1,2.7v6.3
			c0,1.1-0.3,2-1,2.7s-1.5,1-2.6,1C17.8,527.9,17,527.5,16.2,526.8z M19.9,525.5c0.2-0.3,0.4-0.7,0.4-1.2v-6.6
			c0-0.5-0.1-0.9-0.4-1.2c-0.3-0.3-0.6-0.4-1-0.4s-0.7,0.1-1,0.4c-0.2,0.3-0.4,0.7-0.4,1.2v6.6c0,0.5,0.1,0.9,0.4,1.2
			c0.2,0.3,0.6,0.4,1,0.4C19.2,525.9,19.5,525.8,19.9,525.5z"/>
	</g>
</g>
<g>
	<g>
		<path class="st0" d="M14.1,449c0,0,0.1,0.1,0.1,0.2v1.5c0,0.1,0,0.1-0.1,0.2c0,0-0.1,0.1-0.2,0.1h-0.6c-0.1,0-0.1,0-0.1,0.1v3.1
			c0,0.1,0,0.1-0.1,0.2c0,0-0.1,0.1-0.2,0.1h-1.7c-0.1,0-0.1,0-0.2-0.1c0,0-0.1-0.1-0.1-0.2v-3.1c0-0.1,0-0.1-0.1-0.1H6.3
			c-0.1,0-0.1,0-0.2-0.1c0,0-0.1-0.1-0.1-0.2v-1.2c0-0.1,0-0.2,0-0.3l2.6-7.9c0-0.1,0.1-0.2,0.2-0.2h1.9c0.1,0,0.1,0,0.2,0.1
			s0,0.1,0,0.2l-2.2,7.4c0,0.1,0,0.1,0.1,0.1h2.2c0.1,0,0.1,0,0.1-0.1v-2.3c0-0.1,0-0.1,0.1-0.2c0,0,0.1-0.1,0.2-0.1h1.7
			c0.1,0,0.1,0,0.2,0.1c0,0,0.1,0.1,0.1,0.2v2.3c0,0.1,0,0.1,0.1,0.1h0.6C14.1,448.9,14.1,448.9,14.1,449z"/>
		<path class="st0" d="M16.2,453.5c-0.6-0.7-1-1.6-1-2.7v-6.3c0-1.1,0.3-2,1-2.7c0.6-0.7,1.5-1,2.6-1s1.9,0.3,2.6,1s1,1.6,1,2.7v6.3
			c0,1.1-0.3,2-1,2.7s-1.5,1-2.6,1S17,454.2,16.2,453.5z M19.9,452.2c0.2-0.3,0.4-0.7,0.4-1.2v-6.6c0-0.5-0.1-0.9-0.4-1.2
			s-0.6-0.4-1-0.4s-0.7,0.1-1,0.4c-0.2,0.3-0.4,0.7-0.4,1.2v6.6c0,0.5,0.1,0.9,0.4,1.2c0.2,0.3,0.6,0.4,1,0.4S19.5,452.5,19.9,452.2
			z"/>
	</g>
</g>
<g>
	<g>
		<path class="st0" d="M14.1,376.9c0,0.5,0,1-0.1,1.3c-0.1,0.9-0.4,1.7-1,2.2s-1.4,0.8-2.4,0.8c-0.9,0-1.7-0.2-2.3-0.7
			s-0.9-1.2-1.1-2.2L7,377.8c0-0.2,0.1-0.2,0.2-0.2h1.7c0.2,0,0.2,0.1,0.2,0.2s0,0.2,0,0.3c0.2,0.8,0.5,1.2,1.1,1.2
			c0.3,0,0.6-0.1,0.8-0.3c0.2-0.2,0.3-0.5,0.4-0.9c0-0.3,0.1-0.7,0.1-1.2s0-0.9-0.1-1.2c-0.1-0.3-0.2-0.6-0.4-0.8s-0.4-0.3-0.7-0.3
			c-0.6,0-1,0.3-1.2,0.9c0,0.1-0.1,0.2-0.2,0.2H7.4c-0.1,0-0.1,0-0.2-0.1c0,0-0.1-0.1-0.1-0.2v-7.5c0-0.1,0-0.1,0.1-0.2
			c0,0,0.1-0.1,0.2-0.1h6.2c0.1,0,0.1,0,0.2,0.1c0,0,0.1,0.1,0.1,0.2v1.4c0,0.1,0,0.1-0.1,0.2c0,0-0.1,0.1-0.2,0.1H9.4
			c-0.1,0-0.1,0-0.1,0.1v3.7v0.1c0,0,0,0,0.1,0c0.2-0.2,0.5-0.4,0.8-0.5s0.6-0.2,1-0.2c0.8,0,1.4,0.2,1.8,0.7
			c0.5,0.5,0.7,1.2,0.8,2.1C13.9,375.9,14.1,376.4,14.1,376.9z"/>
		<path class="st0" d="M16.2,380.2c-0.6-0.7-1-1.6-1-2.7v-6.3c0-1.1,0.3-2,1-2.7c0.6-0.7,1.5-1,2.6-1s1.9,0.3,2.6,1s1,1.6,1,2.7v6.3
			c0,1.1-0.3,2-1,2.7s-1.5,1-2.6,1S17,380.9,16.2,380.2z M19.9,378.9c0.2-0.3,0.4-0.7,0.4-1.2v-6.6c0-0.5-0.1-0.9-0.4-1.2
			c-0.2-0.3-0.6-0.4-1-0.4s-0.7,0.1-1,0.4c-0.2,0.3-0.4,0.7-0.4,1.2v6.6c0,0.5,0.1,0.9,0.4,1.2c0.2,0.3,0.6,0.4,1,0.4
			S19.5,379.2,19.9,378.9z"/>
	</g>
</g>
<g>
	<g>
		<path class="st0" d="M14.1,303.5c0,0.3,0,0.7,0,1.2c-0.1,1-0.4,1.7-1,2.2s-1.4,0.8-2.4,0.8c-0.9,0-1.7-0.2-2.3-0.7s-0.9-1.2-1-2.2
			c-0.1-0.3-0.1-0.7-0.1-1.2v-6.2c0-1,0.3-1.8,0.9-2.4c0.6-0.6,1.5-0.9,2.5-0.9s1.7,0.3,2.4,0.9c0.6,0.6,0.9,1.4,0.9,2.4v0.5
			c0,0.1,0,0.1-0.1,0.2c0,0-0.1,0.1-0.2,0.1h-1.7c-0.1,0-0.1,0-0.2-0.1c0,0-0.1-0.1-0.1-0.2v-0.4c0-0.4-0.1-0.8-0.3-1.1
			c-0.2-0.3-0.5-0.4-0.8-0.4c-0.4,0-0.6,0.1-0.9,0.4c-0.2,0.3-0.3,0.6-0.3,1.1v2v0.1h0.1c0.4-0.3,0.8-0.5,1.4-0.5
			c0.9,0,1.6,0.3,2.1,0.8c0.5,0.6,0.9,1.3,1,2.2C14.1,302.6,14.1,303,14.1,303.5z M11.9,303.4c0-0.3,0-0.8-0.1-1.3
			c-0.2-0.7-0.5-1.1-1.1-1.1c-0.3,0-0.6,0.1-0.8,0.3c-0.2,0.2-0.3,0.5-0.4,0.9c-0.1,0.4-0.1,0.9-0.1,1.3s0,0.8,0.1,1.3
			c0.1,0.4,0.2,0.7,0.4,0.9s0.5,0.3,0.8,0.3s0.6-0.1,0.8-0.3s0.3-0.6,0.4-1C11.8,304.1,11.9,303.7,11.9,303.4z"/>
		<path class="st0" d="M16.2,306.8c-0.6-0.7-1-1.6-1-2.7v-6.3c0-1.1,0.3-2,1-2.7c0.6-0.7,1.5-1,2.6-1s1.9,0.3,2.6,1s1,1.6,1,2.7v6.3
			c0,1.1-0.3,2-1,2.7s-1.5,1-2.6,1S17,307.5,16.2,306.8z M19.9,305.5c0.2-0.3,0.4-0.7,0.4-1.2v-6.6c0-0.5-0.1-0.9-0.4-1.2
			c-0.2-0.3-0.6-0.4-1-0.4s-0.7,0.1-1,0.4c-0.2,0.3-0.4,0.7-0.4,1.2v6.6c0,0.5,0.1,0.9,0.4,1.2c0.2,0.3,0.6,0.4,1,0.4
			S19.5,305.7,19.9,305.5z"/>
	</g>
</g>
<g>
	<g>
		<path class="st0" d="M8.9,234l3.1-11c0-0.1,0-0.1-0.1-0.1H9.4c-0.1,0-0.1,0-0.1,0.1v0.7c0,0.1,0,0.1-0.1,0.2c0,0-0.1,0.1-0.2,0.1
			H7.6c-0.1,0-0.1,0-0.2-0.1c0,0-0.1-0.1-0.1-0.2v-2.5c0-0.1,0-0.1,0.1-0.2c0,0,0.1-0.1,0.2-0.1h6.4c0.1,0,0.1,0,0.2,0.1
			s0.1,0.1,0.1,0.2v1.5c0,0.1,0,0.1,0,0.3l-3.2,11.1c0,0.1-0.1,0.2-0.3,0.2H9.1C8.9,234.3,8.8,234.2,8.9,234z"/>
		<path class="st0" d="M16.2,233.5c-0.6-0.7-1-1.6-1-2.7v-6.3c0-1.1,0.3-2,1-2.7c0.6-0.7,1.5-1,2.6-1s1.9,0.3,2.6,1s1,1.6,1,2.7v6.3
			c0,1.1-0.3,2-1,2.7s-1.5,1-2.6,1S17,234.2,16.2,233.5z M19.9,232.1c0.2-0.3,0.4-0.7,0.4-1.2v-6.6c0-0.5-0.1-0.9-0.4-1.2
			c-0.2-0.3-0.6-0.4-1-0.4s-0.7,0.1-1,0.4c-0.2,0.3-0.4,0.7-0.4,1.2v6.6c0,0.5,0.1,0.9,0.4,1.2c0.2,0.3,0.6,0.4,1,0.4
			C19.2,232.6,19.5,232.4,19.9,232.1z"/>
	</g>
</g>
<g>
	<g>
		<path class="st0" d="M12.4,154.1c0.4,0.2,0.7,0.6,1,1.1c0.3,0.6,0.4,1.3,0.4,2s-0.1,1.3-0.3,1.8c-0.3,0.7-0.6,1.2-1.2,1.6
			c-0.5,0.4-1.2,0.6-1.9,0.6s-1.4-0.2-1.9-0.6c-0.5-0.4-0.9-0.9-1.2-1.6c-0.2-0.5-0.3-1.1-0.3-1.8s0.1-1.4,0.3-1.9
			c0.2-0.5,0.5-0.9,1-1.2V154c-0.4-0.3-0.7-0.6-1-1.1s-0.4-1.2-0.4-1.8c0-0.7,0.1-1.3,0.4-1.8c0.3-0.6,0.6-1,1.2-1.3
			c0.5-0.3,1.1-0.5,1.8-0.5s1.3,0.1,1.8,0.4c0.5,0.3,0.9,0.7,1.2,1.3c0.3,0.5,0.4,1.2,0.4,1.9s-0.1,1.3-0.4,1.8
			c-0.2,0.5-0.6,0.8-1,1.1C12.4,154,12.4,154,12.4,154.1z M9.4,150.4c-0.1,0.2-0.1,0.5-0.1,0.9s0.1,0.7,0.2,1.1
			c0.1,0.3,0.2,0.5,0.4,0.6c0.2,0.2,0.4,0.2,0.6,0.2c0.3,0,0.5-0.1,0.7-0.2s0.3-0.4,0.4-0.7c0.1-0.3,0.2-0.6,0.2-1s-0.1-0.8-0.2-1
			c-0.1-0.3-0.2-0.5-0.4-0.6s-0.4-0.2-0.6-0.2c-0.2,0-0.4,0.1-0.6,0.2c-0.2,0.1-0.3,0.3-0.4,0.5L9.4,150.4z M11.6,157.1
			c0-0.5-0.1-0.9-0.2-1.2c-0.1-0.3-0.2-0.5-0.4-0.7s-0.4-0.3-0.7-0.3s-0.5,0.1-0.7,0.3s-0.3,0.4-0.4,0.8c-0.1,0.3-0.2,0.7-0.2,1.1
			c0,0.4,0,0.8,0.1,1.1c0.1,0.4,0.2,0.6,0.4,0.8s0.4,0.3,0.7,0.3s0.5-0.1,0.7-0.3s0.3-0.5,0.4-0.9C11.6,157.7,11.6,157.4,11.6,157.1
			z"/>
		<path class="st0" d="M16.2,160.2c-0.6-0.7-1-1.6-1-2.7v-6.3c0-1.1,0.3-2,1-2.7c0.6-0.7,1.5-1,2.6-1s1.9,0.3,2.6,1s1,1.6,1,2.7v6.3
			c0,1.1-0.3,2-1,2.7s-1.5,1-2.6,1S17,160.8,16.2,160.2z M19.9,158.8c0.2-0.3,0.4-0.7,0.4-1.2V151c0-0.5-0.1-0.9-0.4-1.2
			c-0.2-0.3-0.6-0.4-1-0.4s-0.7,0.1-1,0.4c-0.2,0.3-0.4,0.7-0.4,1.2v6.6c0,0.5,0.1,0.9,0.4,1.2c0.2,0.3,0.6,0.4,1,0.4
			C19.2,159.3,19.5,159.1,19.9,158.8z"/>
	</g>
</g>
<g>
	<g>
		<path class="st0" d="M13.9,84.5c0,1-0.3,1.8-0.9,2.4s-1.5,0.9-2.5,0.9s-1.7-0.3-2.4-0.9c-0.6-0.6-0.9-1.4-0.9-2.4V84
			c0-0.1,0-0.1,0.1-0.2c0,0,0.1-0.1,0.2-0.1h1.7c0.1,0,0.1,0,0.2,0.1c0,0,0.1,0.1,0.1,0.2v0.4c0,0.4,0.1,0.8,0.3,1.1
			c0.2,0.3,0.5,0.4,0.8,0.4c0.4,0,0.6-0.1,0.9-0.4c0.2-0.3,0.3-0.6,0.3-1.1v-1.9v-0.1h-0.1c-0.4,0.3-0.8,0.5-1.4,0.5
			c-0.9,0-1.6-0.3-2.1-0.8c-0.5-0.6-0.9-1.3-1-2.2c-0.1-0.4-0.1-0.9-0.1-1.3s0-0.8,0.1-1.2c0.1-1,0.4-1.7,1-2.2s1.4-0.8,2.4-0.8
			c0.9,0,1.7,0.2,2.3,0.7s0.9,1.2,1.1,2.2c0.1,0.4,0.1,0.8,0.1,1.2L13.9,84.5z M11.6,78.6c0-0.4,0-0.8-0.1-1.3
			C11.4,76.5,11,76,10.4,76c-0.3,0-0.6,0.1-0.8,0.3c-0.2,0.2-0.3,0.6-0.4,1c0,0.3,0,0.7,0,1.2s0,0.9,0.1,1.3s0.2,0.6,0.4,0.8
			s0.4,0.3,0.7,0.3s0.6-0.1,0.8-0.3c0.2-0.2,0.3-0.5,0.4-0.9C11.6,79.5,11.6,79,11.6,78.6z"/>
		<path class="st0" d="M16.2,86.9c-0.6-0.7-1-1.6-1-2.7v-6.3c0-1.1,0.3-2,1-2.7c0.6-0.7,1.5-1,2.6-1s1.9,0.3,2.6,1s1,1.6,1,2.7v6.3
			c0,1.1-0.3,2-1,2.7s-1.5,1-2.6,1S17,87.5,16.2,86.9z M19.9,85.5c0.2-0.3,0.4-0.7,0.4-1.2v-6.6c0-0.5-0.1-0.9-0.4-1.2
			c-0.2-0.3-0.6-0.4-1-0.4s-0.7,0.1-1,0.4c-0.2,0.3-0.4,0.7-0.4,1.2v6.6c0,0.5,0.1,0.9,0.4,1.2c0.2,0.3,0.6,0.4,1,0.4
			C19.2,86,19.5,85.8,19.9,85.5z"/>
	</g>
</g>
<g>
	<g>
		<path class="st0" d="M3.1,1h1.8C5,1,5,1,5.1,1.1c0,0,0.1,0.1,0.1,0.2v12.8c0,0.1,0,0.1-0.1,0.2c0,0-0.1,0.1-0.2,0.1H3.2
			c-0.1,0-0.1,0-0.2-0.1c0,0-0.1-0.1-0.1-0.2V3.4V3.3c0,0,0,0-0.1,0L1.3,3.6H1.2C1.1,3.6,1,3.5,1,3.4V2.1C1,2,1,1.9,1.2,1.8L2.9,1
			C2.9,1.1,3,1,3.1,1z"/>
		<path class="st0" d="M7.7,13.5c-0.6-0.7-1-1.6-1-2.7V4.5c0-1.1,0.3-2,1-2.7c0.6-0.7,1.5-1,2.6-1s1.9,0.3,2.6,1
			c0.7,0.7,1,1.6,1,2.7v6.3c0,1.1-0.3,2-1,2.7s-1.5,1-2.6,1C9.2,14.6,8.3,14.2,7.7,13.5z M11.2,12.2c0.2-0.3,0.4-0.7,0.4-1.2V4.4
			c0-0.5-0.1-0.9-0.4-1.2c-0.2-0.3-0.6-0.4-1-0.4s-0.7,0.1-1,0.4C9.1,3.5,8.9,3.9,8.9,4.4V11c0,0.5,0.1,0.9,0.4,1.2
			c0.2,0.3,0.6,0.4,1,0.4C10.6,12.6,11.1,12.5,11.2,12.2z"/>
		<path class="st0" d="M16.2,13.5c-0.6-0.7-1-1.6-1-2.7V4.5c0-1.1,0.3-2,1-2.7c0.6-0.7,1.5-1,2.6-1s1.9,0.3,2.6,1s1,1.6,1,2.7v6.3
			c0,1.1-0.3,2-1,2.7s-1.5,1-2.6,1C17.8,14.6,17,14.2,16.2,13.5z M19.9,12.2c0.2-0.3,0.4-0.7,0.4-1.2V4.4c0-0.5-0.1-0.9-0.4-1.2
			c-0.2-0.3-0.6-0.4-1-0.4s-0.7,0.1-1,0.4c-0.2,0.3-0.4,0.7-0.4,1.2V11c0,0.5,0.1,0.9,0.4,1.2c0.2,0.3,0.6,0.4,1,0.4
			C19.2,12.6,19.5,12.5,19.9,12.2z"/>
	</g>
</g>
</svg>
