<?xml version="1.0" encoding="utf-8"?>
<!-- Generator: Adobe Illustrator 28.1.0, SVG Export Plug-In . SVG Version: 6.00 Build 0)  -->
<svg version="1.1" baseProfile="tiny" id="Layer_1" xmlns="http://www.w3.org/2000/svg" xmlns:xlink="http://www.w3.org/1999/xlink"
	 x="0px" y="0px" width="244.7px" height="222.1px" viewBox="0 0 244.7 222.1" overflow="visible" xml:space="preserve">
<path id="colorstyle:Disabled_opacity:0.7" fill="#3E4745" d="M244.7,133.1l0-24.5c0-0.3,0-0.7,0-1l0-55.2c0-5.6-1.7-11-4.9-15.6
	l-19-27.1c-4-6.1-10.7-9.7-18-9.7H21.9C9.8,0,0,9.8,0,21.9v81.5v59.5v37.3c0,12.1,9.8,21.9,21.9,21.9h180.9c7.3,0,14-3.7,18-9.7
	l19-27.1c3.2-4.6,4.9-10,4.9-15.6l0-11c0-0.3,0-0.7,0-1L244.7,133.1z"/>
<path id="colorstyle:Accent1_Opacity:0.4" fill="#C2DFC3" d="M202.8,4.7c5.7,0,11,2.8,14.1,7.6l0,0.1l0,0.1l19,27.1
	c2.7,3.8,4.1,8.2,4.1,12.9l0,55.2l0,0.1l0,0.1c0,0.3,0,0.6,0,0.9l0,24.5l0,24.5c0,0.3,0,0.6,0,0.9l0,0.1l0,0.1l0,11
	c0,4.6-1.4,9.1-4.1,12.9l-19,27.1l0,0.1l0,0.1c-3.1,4.8-8.4,7.6-14.1,7.6H21.9c-9.5,0-17.2-7.7-17.2-17.2v-37.3v-59.5V21.9
	c0-9.5,7.7-17.2,17.2-17.2H202.8 M202.8,0H21.9C9.8,0,0,9.8,0,21.9v81.5v59.5v37.3c0,12.1,9.8,21.9,21.9,21.9h180.9
	c7.3,0,14-3.7,18-9.7l19-27.1c3.2-4.6,4.9-10,4.9-15.6l0-11c0-0.3,0-0.7,0-1l0-24.5l0-24.5c0-0.3,0-0.7,0-1l0-55.2
	c0-5.6-1.7-11-4.9-15.6l-19-27.1C216.8,3.7,210,0,202.8,0L202.8,0z"/>
<path id="colorstyle:Accent1" fill="#6EC9EA" d="M26.6,31.7l11.7,9.6c0.2,0.1,0.2,0.3,0,0.5l-11.7,9.9c-0.2,0.2-0.7,0.1-0.7-0.2
	c0-3.3,0-16.2,0-19.6C25.9,31.7,26.3,31.5,26.6,31.7z"/>
</svg>
