<?xml version="1.0" encoding="utf-8"?>
<!-- Generator: Adobe Illustrator 28.5.0, SVG Export Plug-In . SVG Version: 9.03 Build 54727)  -->
<svg version="1.1" baseProfile="tiny" id="Layer_2_00000070839769717564253120000013933448134242744233_"
	 xmlns="http://www.w3.org/2000/svg" xmlns:xlink="http://www.w3.org/1999/xlink" x="0px" y="0px" width="488.1px" height="867px"
	 viewBox="0 0 488.1 867" overflow="visible" xml:space="preserve">
<path id="colorstyle:Bright_opacity:50_00000039105840586699219100000011212843859839294112_" fill="#C2DFC3" d="M0.6,497v-4
	l2.1,1.6v4.1L0.6,497z M483.9,498.7v-4l2.1-1.6v4L483.9,498.7z"/>
<path id="colorstyle:Base_opacity:70_00000137110822493746498030000004493495067107104418_" fill="#F28E47" d="M486,858.1l-3.7,4.3
	l-7.1,1.1v-2.2l6.2-0.9l2.5-2.8v-5.4h2.2v5.9H486z M2.8,857.5l2.5,2.8l6.2,0.9v2.2l-7.1-1L0.7,858v-5.9h2.2L2.8,857.5L2.8,857.5z"/>
<path id="colorstyle:Base_opacity:90_00000170241746346406285860000007774970927772531610_" fill="#F28E47" d="M483.8,503.5h2.2
	v-3.2l-2.2,1.7V503.5z M0.6,500.2l2.2,1.7v1.6H0.6V500.2z"/>
<path id="colorstyle:Base_opacity:10_00000080175084592267746850000000656780615804422831_" fill="#F28E47" d="M486,852.3V505.4
	h-2.2v346.9H486z M0.6,852.3V505.4h2.2v346.9H0.6z"/>
<path id="colorstyle:Bright_opacity:50_00000165203445102235466220000006684262594145751729_" fill="#C2DFC3" d="M0.6,366.8v4.1
	l2.1-1.6v-4.1L0.6,366.8z M483.9,365.1v4l2.1,1.6v-4L483.9,365.1z"/>
<path id="colorstyle:Base_opacity:70_00000031208246851368223930000015906426654715962500_" fill="#F28E47" d="M486,5.7l-3.7-4.3
	l-7.1-1.1v2.2l6.2,0.9l2.5,2.8v5.4h2.2V5.7H486z M2.8,6.3l2.5-2.8l6.2-0.9V0.4l-7.1,1L0.7,5.8v5.9h2.2L2.8,6.3L2.8,6.3z"/>
<path id="colorstyle:Base_opacity:90_00000016060637829204544750000003159781808644411781_" fill="#F28E47" d="M483.8,360.3h2.2v3.2
	l-2.2-1.7V360.3z M0.6,363.6l2.2-1.7v-1.6H0.6V363.6z"/>
<path id="colorstyle:Base_opacity:10_00000008865274662665094920000013144749335920872116_" fill="#F28E47" d="M486,11.6v346.9h-2.2
	V11.6H486z M0.6,11.6v346.9h2.2V11.6H0.6z"/>
</svg>
