<?xml version="1.0" encoding="utf-8"?>
<!-- Generator: Adobe Illustrator 28.1.0, SVG Export Plug-In . SVG Version: 6.00 Build 0)  -->
<svg version="1.1" id="Layer_1" xmlns="http://www.w3.org/2000/svg" xmlns:xlink="http://www.w3.org/1999/xlink" x="0px" y="0px"
	 viewBox="0 0 28.9 30.8" style="enable-background:new 0 0 28.9 30.8;" xml:space="preserve">
<style type="text/css">
	.st0{fill:#FFFFFF;}
</style>
<path class="st0" d="M6.7,27.8l-3.9-1.3c1.4-4.3,0.3-7.2-0.6-9.4c-0.1-0.4-0.3-0.9-0.4-1.1c-0.3-0.3-0.4-0.6-0.4-1
	c-1-2.5-2.3-6-0.6-12.4l4,1.1c-1.4,5-0.4,7.6,0.4,9.7c0.1,0.4,0.3,0.7,0.4,1.1c0.1,0.3,0.3,0.7,0.4,1C7,18.2,8.4,22,6.7,27.8z"/>
<path class="st0" d="M28,27.8l-3.9-1.3c1.4-4.3,0.3-7.2-0.6-9.4c-0.1-0.4-0.3-0.9-0.4-1.1c-0.1-0.3-0.3-0.6-0.4-1
	c-1-2.6-2.3-6-0.6-12.3l4,1.1c-1.4,5-0.4,7.6,0.4,9.7c0.1,0.4,0.3,0.7,0.4,1.1c0.1,0.3,0.3,0.7,0.4,1C28.3,18.2,29.9,22,28,27.8z"/>
<path class="st0" d="M16.2,30.8l-3.7-1.7c2.7-5.7,1.4-9.2,0.3-11.9c-0.1-0.4-0.3-0.9-0.4-1.1c-0.1-0.3-0.3-0.6-0.4-1
	c-1-2.7-2.6-6.9,0.4-15l3.9,1.4c-2.4,6.7-1.3,9.7-0.4,12.2c0.1,0.4,0.3,0.7,0.4,1.1c0.1,0.3,0.3,0.7,0.4,1
	C17.7,18.5,19.6,23.5,16.2,30.8z"/>
</svg>
