<?xml version="1.0" encoding="utf-8"?>
<!-- Generator: Adobe Illustrator 28.0.0, SVG Export Plug-In . SVG Version: 6.00 Build 0)  -->
<svg version="1.1" baseProfile="tiny" id="Layer_1" xmlns="http://www.w3.org/2000/svg" xmlns:xlink="http://www.w3.org/1999/xlink"
	 x="0px" y="0px" width="23.5px" height="747.8px" viewBox="0 0 23.5 747.8" overflow="visible" xml:space="preserve">
<path fill="#C1DEC2" d="M0.4,3V1.9h2.9V3H0.4z M2.2,10.9v-9h1.2v9H2.2z"/>
<path fill="#C1DEC2" d="M9.5,11c-0.7,0-1.3-0.2-1.9-0.6c-0.6-0.4-1-0.9-1.3-1.6C5.9,8.1,5.8,7.3,5.8,6.4c0-0.9,0.2-1.8,0.5-2.5
	C6.6,3.2,7,2.7,7.6,2.3s1.2-0.6,1.8-0.6c0.7,0,1.3,0.2,1.9,0.6c0.6,0.4,1,0.9,1.3,1.6c0.3,0.7,0.5,1.5,0.5,2.5
	c0,0.9-0.2,1.8-0.5,2.5c-0.3,0.7-0.8,1.2-1.3,1.6C10.7,10.8,10.1,11,9.5,11z M9.4,9.9c0.5,0,0.9-0.1,1.3-0.4
	c0.4-0.3,0.6-0.7,0.9-1.2c0.2-0.5,0.3-1.2,0.3-1.9c0-0.8-0.1-1.4-0.3-1.9S11,3.5,10.7,3.3C10.3,3,9.9,2.9,9.4,2.9
	C8.9,2.9,8.5,3,8.2,3.3S7.5,3.9,7.3,4.5C7.1,5,7,5.6,7,6.4c0,0.8,0.1,1.4,0.3,1.9c0.2,0.5,0.5,0.9,0.9,1.2C8.5,9.7,8.9,9.9,9.4,9.9z
	"/>
<path fill="#C1DEC2" d="M18.6,11c-0.7,0-1.3-0.2-1.9-0.6c-0.6-0.4-1-0.9-1.3-1.6C15.1,8.1,15,7.3,15,6.4c0-0.9,0.2-1.8,0.5-2.5
	c0.3-0.7,0.8-1.2,1.3-1.6s1.2-0.6,1.8-0.6c0.7,0,1.3,0.2,1.9,0.6c0.6,0.4,1,0.9,1.3,1.6c0.3,0.7,0.5,1.5,0.5,2.5
	c0,0.9-0.2,1.8-0.5,2.5c-0.3,0.7-0.8,1.2-1.3,1.6C19.9,10.8,19.3,11,18.6,11z M18.6,9.9c0.5,0,0.9-0.1,1.3-0.4
	c0.4-0.3,0.6-0.7,0.9-1.2C20.9,7.8,21,7.1,21,6.4c0-0.8-0.1-1.4-0.3-1.9s-0.5-0.9-0.9-1.2c-0.4-0.3-0.8-0.4-1.3-0.4
	c-0.5,0-0.9,0.1-1.2,0.4s-0.6,0.7-0.9,1.2c-0.2,0.5-0.3,1.2-0.3,1.9c0,0.8,0.1,1.4,0.3,1.9c0.2,0.5,0.5,0.9,0.9,1.2
	C17.7,9.7,18.1,9.9,18.6,9.9z"/>
<path fill="#C1DEC2" d="M1.9,84.3l2.7-3.7l0.4-0.2c-0.1,0.2-0.2,0.3-0.4,0.5c-0.1,0.1-0.3,0.2-0.5,0.3c-0.2,0.1-0.5,0.1-0.8,0.1
	c-0.5,0-1-0.1-1.4-0.4c-0.4-0.3-0.8-0.6-1-1c-0.3-0.4-0.4-1-0.4-1.5c0-0.6,0.1-1.1,0.4-1.6c0.3-0.5,0.7-0.8,1.1-1.1s1-0.4,1.6-0.4
	c0.6,0,1.1,0.1,1.6,0.4s0.9,0.6,1.1,1.1c0.3,0.5,0.4,1,0.4,1.6c0,0.8-0.3,1.6-0.8,2.4l-2.7,3.7H1.9z M3.7,80.3c0.4,0,0.7-0.1,1-0.3
	s0.5-0.4,0.7-0.7s0.3-0.6,0.3-1c0-0.4-0.1-0.7-0.3-1c-0.2-0.3-0.4-0.5-0.7-0.7c-0.3-0.2-0.6-0.3-1-0.3s-0.7,0.1-1,0.3
	C2.4,76.7,2.2,77,2,77.3c-0.2,0.3-0.3,0.6-0.3,1c0,0.4,0.1,0.7,0.3,1c0.2,0.3,0.4,0.5,0.7,0.7C3,80.2,3.3,80.3,3.7,80.3z"/>
<path fill="#C1DEC2" d="M12.3,84.4c-0.7,0-1.3-0.2-1.9-0.6c-0.6-0.4-1-0.9-1.3-1.6c-0.3-0.7-0.5-1.5-0.5-2.5c0-0.9,0.2-1.8,0.5-2.5
	c0.3-0.7,0.8-1.2,1.3-1.6s1.2-0.6,1.8-0.6c0.7,0,1.3,0.2,1.9,0.6c0.6,0.4,1,0.9,1.3,1.6c0.3,0.7,0.5,1.5,0.5,2.5
	c0,0.9-0.2,1.8-0.5,2.5c-0.3,0.7-0.8,1.2-1.3,1.6C13.5,84.3,12.9,84.4,12.3,84.4z M12.2,83.3c0.5,0,0.9-0.1,1.3-0.4
	c0.4-0.3,0.6-0.7,0.9-1.2c0.2-0.5,0.3-1.2,0.3-1.9c0-0.8-0.1-1.4-0.3-1.9s-0.5-0.9-0.9-1.2c-0.4-0.3-0.8-0.4-1.3-0.4
	c-0.5,0-0.9,0.1-1.2,0.4s-0.6,0.7-0.9,1.2c-0.2,0.5-0.3,1.2-0.3,1.9c0,0.8,0.1,1.4,0.3,1.9c0.2,0.5,0.5,0.9,0.9,1.2
	C11.3,83.2,11.8,83.3,12.2,83.3z"/>
<path fill="#C1DEC2" d="M3.6,157.9c-0.6,0-1.1-0.1-1.6-0.3s-0.8-0.5-1.1-0.9c-0.3-0.4-0.4-0.8-0.4-1.4c0-0.4,0.1-0.8,0.2-1.1
	s0.4-0.6,0.7-0.9c0.3-0.2,0.7-0.4,1.1-0.5l0,0.4c-0.3-0.1-0.6-0.2-0.9-0.5c-0.2-0.2-0.4-0.5-0.6-0.8S1,151.3,1,150.9
	c0-0.5,0.1-0.9,0.3-1.2c0.2-0.4,0.5-0.6,0.9-0.8c0.4-0.2,0.8-0.3,1.3-0.3c0.5,0,1,0.1,1.4,0.3c0.4,0.2,0.7,0.5,0.9,0.8
	c0.2,0.4,0.3,0.8,0.3,1.2c0,0.3-0.1,0.6-0.2,0.9c-0.1,0.3-0.3,0.5-0.5,0.8c-0.2,0.2-0.5,0.4-0.9,0.5l0-0.4c0.4,0.1,0.8,0.3,1.1,0.5
	s0.5,0.5,0.7,0.9s0.2,0.7,0.2,1.1c0,0.5-0.1,1-0.4,1.4c-0.3,0.4-0.6,0.7-1.1,0.9C4.7,157.7,4.2,157.9,3.6,157.9z M3.6,156.8
	c0.4,0,0.7-0.1,1-0.2c0.3-0.1,0.5-0.3,0.7-0.6c0.2-0.3,0.2-0.5,0.2-0.9c0-0.3-0.1-0.6-0.2-0.9c-0.2-0.3-0.4-0.4-0.7-0.6
	c-0.3-0.1-0.6-0.2-1-0.2c-0.4,0-0.7,0.1-0.9,0.2S2.1,154,2,154.2c-0.2,0.3-0.2,0.5-0.2,0.9c0,0.3,0.1,0.6,0.2,0.9
	c0.2,0.3,0.4,0.4,0.7,0.6S3.2,156.8,3.6,156.8z M3.6,152.5c0.4,0,0.8-0.1,1.1-0.4s0.4-0.6,0.4-1c0-0.4-0.1-0.8-0.4-1
	s-0.6-0.4-1.1-0.4c-0.4,0-0.8,0.1-1.1,0.4c-0.3,0.3-0.4,0.6-0.4,1c0,0.4,0.1,0.8,0.4,1C2.8,152.3,3.2,152.5,3.6,152.5z"/>
<path fill="#C1DEC2" d="M12.1,157.9c-0.7,0-1.3-0.2-1.9-0.6c-0.6-0.4-1-0.9-1.3-1.6c-0.3-0.7-0.5-1.5-0.5-2.5c0-0.9,0.2-1.8,0.5-2.5
	c0.3-0.7,0.8-1.2,1.3-1.6s1.2-0.6,1.8-0.6c0.7,0,1.3,0.2,1.9,0.6c0.6,0.4,1,0.9,1.3,1.6c0.3,0.7,0.5,1.5,0.5,2.5
	c0,0.9-0.2,1.8-0.5,2.5c-0.3,0.7-0.8,1.2-1.3,1.6C13.4,157.7,12.8,157.9,12.1,157.9z M12.1,156.7c0.5,0,0.9-0.1,1.3-0.4
	c0.4-0.3,0.6-0.7,0.9-1.2c0.2-0.5,0.3-1.2,0.3-1.9c0-0.8-0.1-1.4-0.3-1.9s-0.5-0.9-0.9-1.2c-0.4-0.3-0.8-0.4-1.3-0.4
	c-0.5,0-0.9,0.1-1.2,0.4s-0.6,0.7-0.9,1.2c-0.2,0.5-0.3,1.2-0.3,1.9c0,0.8,0.1,1.4,0.3,1.9c0.2,0.5,0.5,0.9,0.9,1.2
	C11.2,156.6,11.6,156.7,12.1,156.7z"/>
<path fill="#C1DEC2" d="M0.4,223.2v-1.1h6v0.8l-0.5,0.3H0.4z M1.8,231.2l3.4-8.3l1.2,0l-3.3,8.3H1.8z"/>
<path fill="#C1DEC2" d="M11.5,231.3c-0.7,0-1.3-0.2-1.9-0.6c-0.6-0.4-1-0.9-1.3-1.6c-0.3-0.7-0.5-1.5-0.5-2.5c0-0.9,0.2-1.8,0.5-2.5
	c0.3-0.7,0.8-1.2,1.3-1.6s1.2-0.6,1.8-0.6c0.7,0,1.3,0.2,1.9,0.6c0.6,0.4,1,0.9,1.3,1.6c0.3,0.7,0.5,1.5,0.5,2.5
	c0,0.9-0.2,1.8-0.5,2.5c-0.3,0.7-0.8,1.2-1.3,1.6C12.8,231.1,12.2,231.3,11.5,231.3z M11.5,230.1c0.5,0,0.9-0.1,1.3-0.4
	c0.4-0.3,0.6-0.7,0.9-1.2c0.2-0.5,0.3-1.2,0.3-1.9c0-0.8-0.1-1.4-0.3-1.9s-0.5-0.9-0.9-1.2c-0.4-0.3-0.8-0.4-1.3-0.4
	c-0.5,0-0.9,0.1-1.2,0.4s-0.6,0.7-0.9,1.2c-0.2,0.5-0.3,1.2-0.3,1.9c0,0.8,0.1,1.4,0.3,1.9c0.2,0.5,0.5,0.9,0.9,1.2
	C10.6,230,11,230.1,11.5,230.1z"/>
<path fill="#C1DEC2" d="M3.7,304.7c-0.6,0-1.1-0.1-1.6-0.4s-0.8-0.6-1.1-1.1c-0.3-0.5-0.4-1-0.4-1.6c0-0.8,0.3-1.6,0.8-2.4l2.7-3.7
	h1.4l-2.7,3.7l-0.4,0.2c0.1-0.2,0.2-0.3,0.4-0.5c0.1-0.1,0.3-0.2,0.5-0.3c0.2-0.1,0.5-0.1,0.8-0.1c0.5,0,1,0.1,1.4,0.4
	c0.4,0.3,0.8,0.6,1,1c0.3,0.4,0.4,0.9,0.4,1.5c0,0.6-0.1,1.1-0.4,1.6s-0.7,0.9-1.1,1.1C4.8,304.6,4.2,304.7,3.7,304.7z M3.7,303.6
	c0.4,0,0.7-0.1,1-0.3s0.5-0.4,0.7-0.7c0.2-0.3,0.3-0.6,0.3-1s-0.1-0.7-0.3-1s-0.4-0.5-0.7-0.7c-0.3-0.2-0.6-0.3-1-0.3
	s-0.7,0.1-1,0.3c-0.3,0.2-0.5,0.4-0.7,0.7s-0.3,0.6-0.3,1s0.1,0.7,0.3,1c0.2,0.3,0.4,0.5,0.7,0.7C3,303.5,3.3,303.6,3.7,303.6z"/>
<path fill="#C1DEC2" d="M12.3,304.7c-0.7,0-1.3-0.2-1.9-0.6c-0.6-0.4-1-0.9-1.3-1.6c-0.3-0.7-0.5-1.5-0.5-2.5c0-0.9,0.2-1.8,0.5-2.5
	c0.3-0.7,0.8-1.2,1.3-1.6s1.2-0.6,1.8-0.6c0.7,0,1.3,0.2,1.9,0.6c0.6,0.4,1,0.9,1.3,1.6c0.3,0.7,0.5,1.5,0.5,2.5
	c0,0.9-0.2,1.8-0.5,2.5c-0.3,0.7-0.8,1.2-1.3,1.6C13.5,304.5,12.9,304.7,12.3,304.7z M12.2,303.5c0.5,0,0.9-0.1,1.3-0.4
	c0.4-0.3,0.6-0.7,0.9-1.2c0.2-0.5,0.3-1.2,0.3-1.9c0-0.8-0.1-1.4-0.3-1.9s-0.5-0.9-0.9-1.2c-0.4-0.3-0.8-0.4-1.3-0.4
	c-0.5,0-0.9,0.1-1.2,0.4s-0.6,0.7-0.9,1.2c-0.2,0.5-0.3,1.2-0.3,1.9c0,0.8,0.1,1.4,0.3,1.9c0.2,0.5,0.5,0.9,0.9,1.2
	C11.3,303.4,11.8,303.5,12.2,303.5z"/>
<path fill="#C1DEC2" d="M3.2,378.1c-0.6,0-1.2-0.1-1.6-0.3c-0.5-0.2-0.9-0.5-1.2-1l0.8-0.8c0.2,0.3,0.5,0.5,0.8,0.7s0.7,0.3,1.2,0.3
	c0.4,0,0.8-0.1,1.1-0.2s0.5-0.4,0.7-0.7s0.3-0.6,0.3-1c0-0.4-0.1-0.7-0.3-1s-0.4-0.5-0.7-0.6c-0.3-0.1-0.6-0.2-1-0.2
	c-0.4,0-0.7,0-1,0.1c-0.3,0.1-0.6,0.2-0.8,0.4l0-0.8c0.1-0.2,0.3-0.3,0.5-0.4s0.4-0.2,0.7-0.3c0.2-0.1,0.5-0.1,0.8-0.1
	c0.6,0,1.2,0.1,1.6,0.4s0.8,0.6,1,1.1s0.3,0.9,0.3,1.5c0,0.6-0.1,1.1-0.4,1.5c-0.3,0.5-0.7,0.8-1.2,1.1C4.4,378,3.9,378.1,3.2,378.1
	z M1.6,373.8l-0.7-0.7l0.4-4.2h1.1L2,373.2L1.6,373.8z M1.5,370.1L1.3,369H6v1.1H1.5z"/>
<path fill="#C1DEC2" d="M12,378.1c-0.7,0-1.3-0.2-1.9-0.6c-0.6-0.4-1-0.9-1.3-1.6c-0.3-0.7-0.5-1.5-0.5-2.5c0-0.9,0.2-1.8,0.5-2.5
	c0.3-0.7,0.8-1.2,1.3-1.6s1.2-0.6,1.8-0.6c0.7,0,1.3,0.2,1.9,0.6c0.6,0.4,1,0.9,1.3,1.6c0.3,0.7,0.5,1.5,0.5,2.5
	c0,0.9-0.2,1.8-0.5,2.5c-0.3,0.7-0.8,1.2-1.3,1.6C13.2,377.9,12.6,378.1,12,378.1z M11.9,377c0.5,0,0.9-0.1,1.3-0.4
	c0.4-0.3,0.6-0.7,0.9-1.2c0.2-0.5,0.3-1.2,0.3-1.9c0-0.8-0.1-1.4-0.3-1.9s-0.5-0.9-0.9-1.2c-0.4-0.3-0.8-0.4-1.3-0.4
	c-0.5,0-0.9,0.1-1.2,0.4s-0.6,0.7-0.9,1.2c-0.2,0.5-0.3,1.2-0.3,1.9c0,0.8,0.1,1.4,0.3,1.9c0.2,0.5,0.5,0.9,0.9,1.2
	C11,376.8,11.5,377,11.9,377z"/>
<path fill="#C1DEC2" d="M0.4,448.3l3.3-5.9h1.4l-3.4,5.9H0.4z M0.4,449.1v-0.8l0.5-0.3h6.4v1.1H0.4z M4.8,451.4v-6H6v6H4.8z"/>
<path fill="#C1DEC2" d="M12.7,451.5c-0.7,0-1.3-0.2-1.9-0.6c-0.6-0.4-1-0.9-1.3-1.6c-0.3-0.7-0.5-1.5-0.5-2.5c0-0.9,0.2-1.8,0.5-2.5
	c0.3-0.7,0.8-1.2,1.3-1.6s1.2-0.6,1.8-0.6c0.7,0,1.3,0.2,1.9,0.6c0.6,0.4,1,0.9,1.3,1.6c0.3,0.7,0.5,1.5,0.5,2.5
	c0,0.9-0.2,1.8-0.5,2.5c-0.3,0.7-0.8,1.2-1.3,1.6C14,451.3,13.4,451.5,12.7,451.5z M12.7,450.4c0.5,0,0.9-0.1,1.3-0.4
	c0.4-0.3,0.6-0.7,0.9-1.2c0.2-0.5,0.3-1.2,0.3-1.9c0-0.8-0.1-1.4-0.3-1.9s-0.5-0.9-0.9-1.2c-0.4-0.3-0.8-0.4-1.3-0.4
	c-0.5,0-0.9,0.1-1.2,0.4s-0.6,0.7-0.9,1.2c-0.2,0.5-0.3,1.2-0.3,1.9c0,0.8,0.1,1.4,0.3,1.9c0.2,0.5,0.5,0.9,0.9,1.2
	C11.8,450.2,12.2,450.4,12.7,450.4z"/>
<path fill="#C1DEC2" d="M3.2,525c-0.6,0-1.1-0.1-1.6-0.3c-0.5-0.2-0.9-0.5-1.2-1l0.8-0.8c0.2,0.3,0.5,0.5,0.8,0.7s0.7,0.3,1.2,0.3
	c0.4,0,0.7-0.1,1-0.2s0.5-0.4,0.7-0.6s0.3-0.6,0.3-1c0-0.4-0.1-0.7-0.3-1c-0.2-0.3-0.4-0.5-0.7-0.6s-0.7-0.2-1.1-0.2
	c-0.2,0-0.3,0-0.5,0c-0.2,0-0.3,0.1-0.5,0.1l0.5-0.7c0.2-0.1,0.3-0.1,0.5-0.2s0.4-0.1,0.6-0.1c0.5,0,0.9,0.1,1.3,0.3
	c0.4,0.2,0.7,0.5,0.9,0.9s0.3,0.9,0.3,1.4c0,0.6-0.1,1.1-0.4,1.5c-0.3,0.4-0.6,0.8-1.1,1S3.8,525,3.2,525z M0.8,516.9v-1.1h5.5v0.7
	l-1.1,0.4H0.8z M2.2,520.3v-0.7l2.6-3l1.5,0l-2.7,3.1L2.2,520.3z"/>
<path fill="#C1DEC2" d="M11.9,525c-0.7,0-1.3-0.2-1.9-0.6c-0.6-0.4-1-0.9-1.3-1.6c-0.3-0.7-0.5-1.5-0.5-2.5c0-0.9,0.2-1.8,0.5-2.5
	c0.3-0.7,0.8-1.2,1.3-1.6s1.2-0.6,1.8-0.6c0.7,0,1.3,0.2,1.9,0.6c0.6,0.4,1,0.9,1.3,1.6c0.3,0.7,0.5,1.5,0.5,2.5
	c0,0.9-0.2,1.8-0.5,2.5c-0.3,0.7-0.8,1.2-1.3,1.6C13.2,524.8,12.6,525,11.9,525z M11.9,523.8c0.5,0,0.9-0.1,1.3-0.4
	c0.4-0.3,0.6-0.7,0.9-1.2c0.2-0.5,0.3-1.2,0.3-1.9c0-0.8-0.1-1.4-0.3-1.9s-0.5-0.9-0.9-1.2c-0.4-0.3-0.8-0.4-1.3-0.4
	c-0.5,0-0.9,0.1-1.2,0.4s-0.6,0.7-0.9,1.2c-0.2,0.5-0.3,1.2-0.3,1.9c0,0.8,0.1,1.4,0.3,1.9c0.2,0.5,0.5,0.9,0.9,1.2
	C11,523.7,11.4,523.8,11.9,523.8z"/>
<path fill="#C1DEC2" d="M0.4,597.5l3.3-3.5c0.3-0.3,0.6-0.6,0.8-0.9s0.3-0.5,0.4-0.7c0.1-0.2,0.1-0.4,0.1-0.7c0-0.5-0.1-0.8-0.4-1.1
	c-0.3-0.3-0.7-0.4-1.1-0.4c-0.5,0-0.9,0.1-1.2,0.3c-0.3,0.2-0.7,0.6-0.9,1l-0.9-0.7c0.4-0.6,0.8-1,1.3-1.3c0.5-0.3,1.1-0.4,1.7-0.4
	c0.6,0,1,0.1,1.4,0.3c0.4,0.2,0.7,0.5,1,0.9c0.2,0.4,0.3,0.8,0.3,1.4c0,0.4,0,0.7-0.1,1s-0.3,0.6-0.5,0.9s-0.5,0.7-1,1.1L2,597.5
	L0.4,597.5z M0.4,598.2v-0.7l1-0.4h5v1.1H0.4z"/>
<path fill="#C1DEC2" d="M12,598.4c-0.7,0-1.3-0.2-1.9-0.6c-0.6-0.4-1-0.9-1.3-1.6c-0.3-0.7-0.5-1.5-0.5-2.5c0-0.9,0.2-1.8,0.5-2.5
	c0.3-0.7,0.8-1.2,1.3-1.6s1.2-0.6,1.8-0.6c0.7,0,1.3,0.2,1.9,0.6c0.6,0.4,1,0.9,1.3,1.6c0.3,0.7,0.5,1.5,0.5,2.5
	c0,0.9-0.2,1.8-0.5,2.5c-0.3,0.7-0.8,1.2-1.3,1.6C13.2,598.2,12.6,598.4,12,598.4z M11.9,597.2c0.5,0,0.9-0.1,1.3-0.4
	c0.4-0.3,0.6-0.7,0.9-1.2c0.2-0.5,0.3-1.2,0.3-1.9c0-0.8-0.1-1.4-0.3-1.9s-0.5-0.9-0.9-1.2c-0.4-0.3-0.8-0.4-1.3-0.4
	c-0.5,0-0.9,0.1-1.2,0.4s-0.6,0.7-0.9,1.2c-0.2,0.5-0.3,1.2-0.3,1.9c0,0.8,0.1,1.4,0.3,1.9c0.2,0.5,0.5,0.9,0.9,1.2
	C11,597.1,11.5,597.2,11.9,597.2z"/>
<path fill="#C1DEC2" d="M0.4,663.7v-1.1h2.9v1.1H0.4z M2.2,671.7v-9h1.2v9H2.2z"/>
<path fill="#C1DEC2" d="M9.5,671.8c-0.7,0-1.3-0.2-1.9-0.6c-0.6-0.4-1-0.9-1.3-1.6c-0.3-0.7-0.5-1.5-0.5-2.5c0-0.9,0.2-1.8,0.5-2.5
	c0.3-0.7,0.8-1.2,1.3-1.6s1.2-0.6,1.8-0.6c0.7,0,1.3,0.2,1.9,0.6c0.6,0.4,1,0.9,1.3,1.6c0.3,0.7,0.5,1.5,0.5,2.5
	c0,0.9-0.2,1.8-0.5,2.5c-0.3,0.7-0.8,1.2-1.3,1.6C10.7,671.6,10.1,671.8,9.5,671.8z M9.4,670.6c0.5,0,0.9-0.1,1.3-0.4
	c0.4-0.3,0.6-0.7,0.9-1.2c0.2-0.5,0.3-1.2,0.3-1.9c0-0.8-0.1-1.4-0.3-1.9s-0.5-0.9-0.9-1.2c-0.4-0.3-0.8-0.4-1.3-0.4
	c-0.5,0-0.9,0.1-1.2,0.4s-0.6,0.7-0.9,1.2c-0.2,0.5-0.3,1.2-0.3,1.9c0,0.8,0.1,1.4,0.3,1.9c0.2,0.5,0.5,0.9,0.9,1.2
	C8.5,670.5,8.9,670.6,9.4,670.6z"/>
<path fill="#C1DEC2" d="M4.3,745.2c-0.7,0-1.3-0.2-1.9-0.6c-0.6-0.4-1-0.9-1.3-1.6c-0.3-0.7-0.5-1.5-0.5-2.5c0-0.9,0.2-1.8,0.5-2.5
	c0.3-0.7,0.8-1.2,1.3-1.6s1.2-0.6,1.8-0.6c0.7,0,1.3,0.2,1.9,0.6c0.6,0.4,1,0.9,1.3,1.6c0.3,0.7,0.5,1.5,0.5,2.5
	c0,0.9-0.2,1.8-0.5,2.5c-0.3,0.7-0.8,1.2-1.3,1.6C5.6,745,5,745.2,4.3,745.2z M4.3,744.1c0.5,0,0.9-0.1,1.3-0.4
	c0.4-0.3,0.6-0.7,0.9-1.2c0.2-0.5,0.3-1.2,0.3-1.9c0-0.8-0.1-1.4-0.3-1.9s-0.5-0.9-0.9-1.2c-0.4-0.3-0.8-0.4-1.3-0.4
	c-0.5,0-0.9,0.1-1.2,0.4s-0.6,0.7-0.9,1.2c-0.2,0.5-0.3,1.2-0.3,1.9c0,0.8,0.1,1.4,0.3,1.9c0.2,0.5,0.5,0.9,0.9,1.2
	C3.4,743.9,3.8,744.1,4.3,744.1z"/>
</svg>
