<?xml version="1.0" encoding="utf-8"?>
<!-- Generator: Adobe Illustrator 28.1.0, SVG Export Plug-In . SVG Version: 6.00 Build 0)  -->
<svg version="1.1" baseProfile="tiny" id="group" xmlns="http://www.w3.org/2000/svg" xmlns:xlink="http://www.w3.org/1999/xlink"
	 x="0px" y="0px" width="85.5px" height="965.9px" viewBox="0 0 85.5 965.9" overflow="visible" xml:space="preserve">
<polygon id="colorstyle:Selected_00000111899011086737117700000000583589198960716733_" fill="#BBD9A4" points="2,513.4 2,874 
	0,877.2 0,906.4 7.2,906.4 7.2,513.4 "/>
<path fill="#F28D46" d="M49.3,965.9H33.7c-5.6,0-24.4-1.7-29.7-23.3l-4-29.3l7.4,0l3.8,27.9c3.7,15.2,15.7,17.4,22.6,17.4H45
	L49.3,965.9z"/>
<polygon id="colorstyle:Selected_00000097474812283375487130000013222765212193048980_" fill="#BBD9A4" points="55.3,965.1 
	51.2,958.2 80.9,958.2 85.5,965.1 "/>
<path id="colorStyle:bright_Opacity:0.25_00000068648251734958671370000018193380227290903434_" fill="#C2DFC3" d="M36.3,952.5
	c-6.5,0-17.4-1.7-19.2-14.3c-1.2-8.4-3.5-23.9-3.6-24.9h2.4c0.2,1.2,2.5,16.8,3.6,24.6c1.5,10.3,10,12.4,16.8,12.3
	c1.8,0,32.8,0,34.5,0l1.6,2.4C72,952.5,38.1,952.5,36.3,952.5z"/>
<polygon id="colorstyle:Selected" fill="#BBD9A4" points="2,481.3 2,91.9 0,88.7 0,59.5 7.2,59.5 7.2,481.3 "/>
<path id="colorStyle:Base" fill="#F28D46" d="M49.3,0H33.7C28,0,9.2,1.7,4,23.3L0,52.6l7.4,0l3.8-27.9C14.8,9.5,26.8,7.3,33.7,7.3
	H45L49.3,0z"/>
<polygon id="colorstyle:Selected_00000149371902064492460240000005057164527668455858_" fill="#BBD9A4" points="55.3,0.8 51.2,7.7 
	80.9,7.7 85.5,0.8 "/>
<path id="colorstyle:Bright_opacity:0.25" fill="#C2DFC3" d="M36.3,13.3c-6.5,0-17.4,1.7-19.2,14.3c-1.2,8.4-3.5,23.9-3.6,24.9h2.4
	c0.2-1.2,2.5-16.8,3.6-24.6c1.5-10.3,10-12.4,16.8-12.3c1.8,0,32.8,0,34.5,0l1.6-2.4C72,13.3,38.1,13.4,36.3,13.3z"/>
</svg>
