<?xml version="1.0" encoding="utf-8"?>
<!-- Generator: Adobe Illustrator 28.1.0, SVG Export Plug-In . SVG Version: 6.00 Build 0)  -->
<svg version="1.1" id="Layer_1" xmlns="http://www.w3.org/2000/svg" xmlns:xlink="http://www.w3.org/1999/xlink" x="0px" y="0px"
	 viewBox="0 0 92.2 83.6" style="enable-background:new 0 0 92.2 83.6;" xml:space="preserve">
<style type="text/css">
	.st0{fill:#6FC7E9;}
</style>
<path class="st0" d="M46.1,83.6c-5.1,0-9.6-2.6-12.2-7l-32-55.5c-2.5-4.4-2.5-9.7,0-14.1S9,0,14.1,0h64c5.1,0,9.7,2.6,12.2,7
	s2.5,9.7,0,14.1l-32,55.4C55.8,81,51.2,83.6,46.1,83.6L46.1,83.6z M14.1,4.2c-3.6,0-6.8,1.8-8.5,4.9c-1.8,3.1-1.8,6.8,0,9.9l32,55.5
	c1.8,3.1,5,4.9,8.5,4.9l0,0c3.6,0,6.8-1.8,8.5-4.9l32-55.4c1.8-3.1,1.8-6.8,0-9.9s-5-4.9-8.5-4.9L14.1,4.2L14.1,4.2z"/>
</svg>
