<?xml version="1.0" encoding="utf-8"?>
<!-- Generator: Adobe Illustrator 28.1.0, SVG Export Plug-In . SVG Version: 6.00 Build 0)  -->
<svg version="1.1" id="Layer_1" xmlns="http://www.w3.org/2000/svg" xmlns:xlink="http://www.w3.org/1999/xlink" x="0px" y="0px"
	 viewBox="0 0 170.1 895.7" style="enable-background:new 0 0 170.1 895.7;" xml:space="preserve">
<style type="text/css">
	.st0{fill-rule:evenodd;clip-rule:evenodd;fill:#C85420;}
</style>
<polygon id="opactty:30_00000003794036969135146370000012621684703578676620_" class="st0" points="157.3,675.5 -0.1,675.5 
	-0.1,776.2 12.7,789 170.1,789 170.1,688.3 "/>
<polygon id="opactty:30_00000059298417169971493740000018346587717540538811_" class="st0" points="157.3,533.3 -0.1,533.3 
	-0.1,634 12.7,646.8 170.1,646.8 170.1,546.1 "/>
<polygon id="opactty:30_00000061447226756353246880000003142718219836605844_" class="st0" points="157.3,391.8 -0.1,391.8 
	-0.1,492.5 12.7,505.4 170.1,505.4 170.1,404.7 "/>
<polygon id="opactty:30_00000148643822426731139910000016543728929621020288_" class="st0" points="157.3,249.6 -0.1,249.6 
	-0.1,350.3 12.7,363.1 170.1,363.1 170.1,262.4 "/>
<polygon id="opactty:30" class="st0" points="157.3,108 -0.1,108 -0.1,208.7 12.7,221.5 170.1,221.5 170.1,120.8 "/>
</svg>
