<?xml version="1.0" encoding="utf-8"?>
<!-- Generator: Adobe Illustrator 28.1.0, SVG Export Plug-In . SVG Version: 6.00 Build 0)  -->
<svg version="1.1" id="Layer_1" xmlns="http://www.w3.org/2000/svg" xmlns:xlink="http://www.w3.org/1999/xlink" x="0px" y="0px"
	 viewBox="0 0 5.1 423.1" style="enable-background:new 0 0 5.1 423.1;" xml:space="preserve">
<style type="text/css">
	.st0{fill:#353838;}
	.st1{fill:#4A4E4F;}
</style>
<g>
	<path class="st0" d="M2.5,409.6c-0.8,0-1.4-0.6-1.4-1.4V14.8c0-0.8,0.6-1.4,1.4-1.4s1.4,0.6,1.4,1.4v393.4
		C3.9,409,3.3,409.6,2.5,409.6z"/>
</g>
<path class="st1" d="M2.5,409.6c-0.8,0-1.4-0.6-1.4-1.4V396c0-0.8,0.6-1.4,1.4-1.4s1.4,0.6,1.4,1.4v12.3
	C3.9,409,3.3,409.6,2.5,409.6z M2.5,384.6c-0.8,0-1.4-0.6-1.4-1.4v-21.9c0-0.8,0.6-1.4,1.4-1.4s1.4,0.6,1.4,1.4v21.9
	C3.9,384,3.3,384.6,2.5,384.6z M2.5,349.9c-0.8,0-1.4-0.6-1.4-1.4v-21.9c0-0.8,0.6-1.4,1.4-1.4s1.4,0.6,1.4,1.4v21.9
	C3.9,349.3,3.3,349.9,2.5,349.9z M2.5,315.3c-0.8,0-1.4-0.6-1.4-1.4V292c0-0.8,0.6-1.4,1.4-1.4s1.4,0.6,1.4,1.4v21.9
	C3.9,314.7,3.3,315.3,2.5,315.3z M2.5,280.6c-0.8,0-1.4-0.6-1.4-1.4v-21.9c0-0.8,0.6-1.4,1.4-1.4s1.4,0.6,1.4,1.4v21.9
	C3.9,280,3.3,280.6,2.5,280.6z M2.5,246c-0.8,0-1.4-0.6-1.4-1.4v-21.9c0-0.8,0.6-1.4,1.4-1.4s1.4,0.6,1.4,1.4v21.9
	C3.9,245.4,3.3,246,2.5,246z M2.5,211.3c-0.8,0-1.4-0.6-1.4-1.4V188c0-0.8,0.6-1.4,1.4-1.4s1.4,0.6,1.4,1.4v22
	C3.9,210.7,3.3,211.3,2.5,211.3z M2.5,176.7c-0.8,0-1.4-0.6-1.4-1.4v-21.9c0-0.8,0.6-1.4,1.4-1.4s1.4,0.6,1.4,1.4v21.9
	C3.9,176.1,3.3,176.7,2.5,176.7z M2.5,142c-0.8,0-1.4-0.6-1.4-1.4v-21.9c0-0.8,0.6-1.4,1.4-1.4s1.4,0.6,1.4,1.4v21.9
	C3.9,141.4,3.3,142,2.5,142z M2.5,107.4c-0.8,0-1.4-0.6-1.4-1.4V84.1c0-0.8,0.6-1.4,1.4-1.4s1.4,0.6,1.4,1.4V106
	C3.9,106.8,3.3,107.4,2.5,107.4z M2.5,72.7c-0.8,0-1.4-0.6-1.4-1.4V49.5c0-0.8,0.6-1.4,1.4-1.4s1.4,0.6,1.4,1.4v21.9
	C3.9,72.1,3.3,72.7,2.5,72.7z M2.5,38.1c-0.8,0-1.4-0.6-1.4-1.4V14.8c0-0.8,0.6-1.4,1.4-1.4s1.4,0.6,1.4,1.4v21.9
	C3.9,37.5,3.3,38.1,2.5,38.1z"/>
<circle class="st1" cx="2.5" cy="2.5" r="2.5"/>
<circle class="st1" cx="2.5" cy="420.6" r="2.5"/>
</svg>
