<?xml version="1.0" encoding="utf-8"?>
<!-- Generator: Adobe Illustrator 28.1.0, SVG Export Plug-In . SVG Version: 6.00 Build 0)  -->
<svg version="1.1" id="Layer_1" xmlns="http://www.w3.org/2000/svg" xmlns:xlink="http://www.w3.org/1999/xlink" x="0px" y="0px"
	 viewBox="0 0 907.4 839.3" style="enable-background:new 0 0 907.4 839.3;" xml:space="preserve">
<style type="text/css">
	.st0{fill:#353838;}
</style>
<g>
	<path id="opacity:70" class="st0" d="M2.5,678.2c-0.8,0-1.4-0.6-1.4-1.4v-12.3c0-0.8,0.6-1.4,1.4-1.4s1.4,0.6,1.4,1.4v12.3
		C3.9,677.6,3.3,678.2,2.5,678.2z M2.5,653.2c-0.8,0-1.4-0.6-1.4-1.4v-21.9c0-0.8,0.6-1.4,1.4-1.4s1.4,0.6,1.4,1.4v21.9
		C3.9,652.6,3.3,653.2,2.5,653.2z M2.5,618.5c-0.8,0-1.4-0.6-1.4-1.4v-21.9c0-0.8,0.6-1.4,1.4-1.4s1.4,0.6,1.4,1.4v21.9
		C3.9,617.9,3.3,618.5,2.5,618.5z M2.5,583.9c-0.8,0-1.4-0.6-1.4-1.4v-21.9c0-0.8,0.6-1.4,1.4-1.4s1.4,0.6,1.4,1.4v21.9
		C3.9,583.3,3.3,583.9,2.5,583.9z M2.5,549.3c-0.8,0-1.4-0.6-1.4-1.4V526c0-0.8,0.6-1.4,1.4-1.4s1.4,0.6,1.4,1.4v21.9
		C3.9,548.6,3.3,549.3,2.5,549.3z M2.5,514.6c-0.8,0-1.4-0.6-1.4-1.4v-21.9c0-0.8,0.6-1.4,1.4-1.4s1.4,0.6,1.4,1.4v21.9
		C3.9,514,3.3,514.6,2.5,514.6z M2.5,480c-0.8,0-1.4-0.6-1.4-1.4v-21.9c0-0.8,0.6-1.4,1.4-1.4s1.4,0.6,1.4,1.4v21.9
		C3.9,479.3,3.3,480,2.5,480z M2.5,445.3c-0.8,0-1.4-0.6-1.4-1.4V422c0-0.8,0.6-1.4,1.4-1.4s1.4,0.6,1.4,1.4v21.9
		C3.9,444.7,3.3,445.3,2.5,445.3z M2.5,410.7c-0.8,0-1.4-0.6-1.4-1.4v-21.9c0-0.8,0.6-1.4,1.4-1.4s1.4,0.6,1.4,1.4v21.9
		C3.9,410,3.3,410.7,2.5,410.7z M2.5,376c-0.8,0-1.4-0.6-1.4-1.4v-21.9c0-0.8,0.6-1.4,1.4-1.4s1.4,0.6,1.4,1.4v21.9
		C3.9,375.4,3.3,376,2.5,376z M2.5,341.4c-0.8,0-1.4-0.6-1.4-1.4v-21.9c0-0.8,0.6-1.4,1.4-1.4s1.4,0.6,1.4,1.4V340
		C3.9,340.8,3.3,341.4,2.5,341.4z M2.5,306.7c-0.8,0-1.4-0.6-1.4-1.4v-21.9c0-0.8,0.6-1.4,1.4-1.4s1.4,0.6,1.4,1.4v21.9
		C3.9,306.1,3.3,306.7,2.5,306.7z"/>
	<g>
		<circle class="st0" cx="2.6" cy="271.2" r="2.5"/>
	</g>
	<g>
		<circle class="st0" cx="2.6" cy="689.2" r="2.5"/>
	</g>
</g>
<g>
	<path id="opacity:_70" class="st0" d="M904.8,678.2c-0.8,0-1.4-0.6-1.4-1.4v-12.3c0-0.8,0.6-1.4,1.4-1.4s1.4,0.6,1.4,1.4v12.3
		C906.2,677.6,905.6,678.2,904.8,678.2z M904.8,653.2c-0.8,0-1.4-0.6-1.4-1.4v-21.9c0-0.8,0.6-1.4,1.4-1.4s1.4,0.6,1.4,1.4v21.9
		C906.2,652.6,905.6,653.2,904.8,653.2z M904.8,618.5c-0.8,0-1.4-0.6-1.4-1.4v-21.9c0-0.8,0.6-1.4,1.4-1.4s1.4,0.6,1.4,1.4v21.9
		C906.2,617.9,905.6,618.5,904.8,618.5z M904.8,583.9c-0.8,0-1.4-0.6-1.4-1.4v-21.9c0-0.8,0.6-1.4,1.4-1.4s1.4,0.6,1.4,1.4v21.9
		C906.2,583.3,905.6,583.9,904.8,583.9z M904.8,549.3c-0.8,0-1.4-0.6-1.4-1.4V526c0-0.8,0.6-1.4,1.4-1.4s1.4,0.6,1.4,1.4v21.9
		C906.2,548.6,905.6,549.3,904.8,549.3z M904.8,514.6c-0.8,0-1.4-0.6-1.4-1.4v-21.9c0-0.8,0.6-1.4,1.4-1.4s1.4,0.6,1.4,1.4v21.9
		C906.2,514,905.6,514.6,904.8,514.6z M904.8,480c-0.8,0-1.4-0.6-1.4-1.4v-21.9c0-0.8,0.6-1.4,1.4-1.4s1.4,0.6,1.4,1.4v21.9
		C906.2,479.3,905.6,480,904.8,480z M904.8,445.3c-0.8,0-1.4-0.6-1.4-1.4V422c0-0.8,0.6-1.4,1.4-1.4s1.4,0.6,1.4,1.4v21.9
		C906.2,444.7,905.6,445.3,904.8,445.3z M904.8,410.7c-0.8,0-1.4-0.6-1.4-1.4v-21.9c0-0.8,0.6-1.4,1.4-1.4s1.4,0.6,1.4,1.4v21.9
		C906.2,410,905.6,410.7,904.8,410.7z M904.8,376c-0.8,0-1.4-0.6-1.4-1.4v-21.9c0-0.8,0.6-1.4,1.4-1.4s1.4,0.6,1.4,1.4v21.9
		C906.2,375.4,905.6,376,904.8,376z M904.8,341.4c-0.8,0-1.4-0.6-1.4-1.4v-21.9c0-0.8,0.6-1.4,1.4-1.4s1.4,0.6,1.4,1.4V340
		C906.2,340.8,905.6,341.4,904.8,341.4z M904.8,306.7c-0.8,0-1.4-0.6-1.4-1.4v-21.9c0-0.8,0.6-1.4,1.4-1.4s1.4,0.6,1.4,1.4v21.9
		C906.2,306.1,905.6,306.7,904.8,306.7z"/>
	<circle class="st0" cx="904.8" cy="689.2" r="2.5"/>
	<circle class="st0" cx="904.8" cy="271.2" r="2.5"/>
</g>
<polygon class="st0" points="295.8,6.5 291.6,-0.1 242.9,-0.1 242.9,28.2 281.7,28.2 "/>
<polygon class="st0" points="618.7,6.5 622.9,-0.1 671.6,-0.1 671.6,28.2 632.8,28.2 "/>
</svg>
