<?xml version="1.0" encoding="utf-8"?>
<!-- Generator: Adobe Illustrator 28.1.0, SVG Export Plug-In . SVG Version: 6.00 Build 0)  -->
<svg version="1.1" id="Layer_1" xmlns="http://www.w3.org/2000/svg" xmlns:xlink="http://www.w3.org/1999/xlink" x="0px" y="0px"
	 viewBox="0 0 86.8 38.5" style="enable-background:new 0 0 86.8 38.5;" xml:space="preserve">
<style type="text/css">
	.st0{fill:#6FC9EA;}
	.st1{fill:#61ABC8;stroke:#6FC7E9;stroke-miterlimit:10;}
</style>
<path class="st0" d="M79.4,3.6c2.1,0,3.8,1.7,3.8,3.8V31c0,2.1-1.7,3.8-3.8,3.8H7.5c-2.1,0-3.8-1.7-3.8-3.8V7.5
	c0-2.1,1.7-3.8,3.8-3.8h71.9 M79.4,0H7.5C3.4,0,0,3.4,0,7.5V31c0,4.1,3.4,7.5,7.5,7.5h71.9c4.1,0,7.5-3.4,7.5-7.5V7.5
	C86.8,3.4,83.5,0,79.4,0L79.4,0z"/>
<path id="opacity:100" class="st1" d="M79.4,3.6H7.5c-2.1,0-3.8,1.7-3.8,3.8V31c0,2.1,1.7,3.8,3.8,3.8h71.9c2.1,0,3.8-1.7,3.8-3.8
	V7.5C83.2,5.4,81.5,3.6,79.4,3.6z"/>
</svg>
