<?xml version="1.0" encoding="utf-8"?>
<!-- Generator: Adobe Illustrator 27.2.0, SVG Export Plug-In . SVG Version: 6.00 Build 0)  -->
<svg version="1.1" baseProfile="tiny" id="Layer_1" xmlns="http://www.w3.org/2000/svg" xmlns:xlink="http://www.w3.org/1999/xlink"
	 x="0px" y="0px" viewBox="0 0 478.8 19" overflow="visible" xml:space="preserve">
<g>
	<g>
		<g>
			<path fill="#2D464B" d="M228.9,19h-66.1c-1.1,0-2-0.9-2-2V2c0-1.1,0.9-2,2-2h66.1c1.1,0,2,0.9,2,2v15C230.9,18.1,230,19,228.9,19
				z M162.8,2v15h66.1V2H162.8z"/>
		</g>
		<g>
			<g>
				<path fill="#7AC3D0" d="M197.4,7.2l1.2,2.1l1.3-2.1h0.6L199,9.7l1.5,2.4h-0.6l-1.2-2l-1.3,2h-0.6l1.5-2.4l-1.5-2.5H197.4z"/>
			</g>
			<g>
				<path fill="#7AC3D0" d="M204.2,7.4c0.4,0,0.7,0.1,0.9,0.2c0.5,0.3,0.8,1.1,0.8,2.3c0,0.9-0.1,1.5-0.4,1.8
					c-0.3,0.4-0.7,0.5-1.3,0.5s-1-0.2-1.3-0.5s-0.4-1-0.4-1.9s0.1-1.5,0.4-1.9C203.2,7.6,203.6,7.4,204.2,7.4z M204.2,7.9
					c-0.3,0-0.5,0.1-0.6,0.2c-0.3,0.2-0.5,0.8-0.5,1.8c0,0.7,0.1,1.2,0.3,1.5s0.5,0.4,0.9,0.4s0.7-0.1,0.9-0.4
					c0.2-0.3,0.3-0.8,0.3-1.5s-0.1-1.2-0.3-1.5C204.9,8,204.6,7.9,204.2,7.9z"/>
			</g>
			<g>
				<path fill="#7AC3D0" d="M211.3,12.2h-3v-0.5l1.4-1.4c0.2-0.2,0.4-0.4,0.5-0.6c0.1-0.1,0.2-0.3,0.3-0.5s0.1-0.4,0.1-0.5
					c0-0.3-0.1-0.5-0.2-0.6c-0.2-0.1-0.4-0.2-0.8-0.2c-0.3,0-0.7,0-1,0.1h-0.2V7.5c0.5-0.1,0.9-0.2,1.4-0.2s0.8,0.1,1.1,0.3
					c0.2,0.2,0.4,0.5,0.4,1c0,0.3-0.1,0.6-0.2,0.9c-0.1,0.2-0.4,0.5-0.8,0.9l-1.3,1.3h2.4L211.3,12.2L211.3,12.2z"/>
			</g>
			<g>
				<path fill="#7AC3D0" d="M217.7,9.7c0,0.9-0.1,1.5-0.4,1.9c-0.3,0.4-0.8,0.6-1.5,0.6s-1.2-0.2-1.5-0.6c-0.3-0.4-0.4-1-0.4-1.9
					s0.1-1.5,0.4-1.9c0.3-0.4,0.8-0.6,1.5-0.6s1.2,0.2,1.5,0.6C217.5,8.2,217.7,8.9,217.7,9.7z M214.3,9.7c0,0.7,0.1,1.2,0.3,1.6
					c0.2,0.3,0.6,0.5,1.1,0.5s0.9-0.2,1.1-0.5c0.2-0.3,0.3-0.8,0.3-1.6c0-0.7-0.1-1.3-0.3-1.6s-0.6-0.5-1.1-0.5s-0.9,0.2-1.1,0.5
					C214.4,8.5,214.3,9,214.3,9.7z"/>
			</g>
			<g>
				<path fill="#7AC3D0" d="M220.2,8V7.5h2.9v0.7l-1.8,4.1l-0.5-0.2l1.8-3.9V8H220.2z"/>
			</g>
		</g>
	</g>
	<g>
		<g>
			<path fill="#2D464B" d="M311.8,19h-66.1c-1.1,0-2-0.9-2-2V2c0-1.1,0.9-2,2-2h66.1c1.1,0,2,0.9,2,2v15
				C313.8,18.1,312.9,19,311.8,19z M245.7,2v15h66.1V2H245.7z"/>
		</g>
		<g>
			<g>
				<path fill="#7AC3D0" d="M281,7.2l1.2,2.1l1.3-2.1h0.6l-1.5,2.5l1.5,2.4h-0.6l-1.2-2l-1.3,2h-0.6l1.5-2.4l-1.5-2.5
					C280.4,7.2,281,7.2,281,7.2z"/>
			</g>
			<g>
				<path fill="#7AC3D0" d="M287.7,7.4c0.4,0,0.7,0.1,0.9,0.2c0.5,0.3,0.8,1.1,0.8,2.3c0,0.9-0.1,1.5-0.4,1.8
					c-0.3,0.4-0.7,0.5-1.3,0.5c-0.6,0-1-0.2-1.3-0.5s-0.4-1-0.4-1.9s0.1-1.5,0.4-1.9C286.7,7.6,287.2,7.4,287.7,7.4z M287.7,7.9
					c-0.3,0-0.5,0.1-0.6,0.2c-0.3,0.2-0.5,0.8-0.5,1.8c0,0.7,0.1,1.2,0.3,1.5c0.2,0.3,0.5,0.4,0.9,0.4s0.7-0.1,0.9-0.4
					c0.2-0.3,0.3-0.8,0.3-1.5s-0.1-1.2-0.3-1.5C288.4,8,288.2,7.9,287.7,7.9z"/>
			</g>
			<g>
				<path fill="#7AC3D0" d="M294.8,12.2h-3v-0.5l1.4-1.4c0.2-0.2,0.4-0.4,0.5-0.6c0.1-0.1,0.2-0.3,0.3-0.5c0.1-0.2,0.1-0.4,0.1-0.5
					c0-0.3-0.1-0.5-0.2-0.6c-0.2-0.1-0.4-0.2-0.8-0.2c-0.3,0-0.7,0-1,0.1h-0.2V7.5c0.5-0.1,0.9-0.2,1.4-0.2s0.8,0.1,1.1,0.3
					c0.2,0.2,0.4,0.5,0.4,1c0,0.3-0.1,0.6-0.2,0.9c-0.1,0.2-0.4,0.5-0.8,0.9l-1.3,1.3h2.4L294.8,12.2L294.8,12.2z"/>
			</g>
			<g>
				<path fill="#7AC3D0" d="M301.2,9.7c0,0.9-0.1,1.5-0.4,1.9s-0.8,0.6-1.5,0.6s-1.2-0.2-1.5-0.6c-0.3-0.4-0.4-1-0.4-1.9
					s0.1-1.5,0.4-1.9s0.8-0.6,1.5-0.6s1.2,0.2,1.5,0.6C301,8.2,301.2,8.9,301.2,9.7z M297.8,9.7c0,0.7,0.1,1.2,0.3,1.6
					s0.6,0.5,1.1,0.5s0.9-0.2,1.1-0.5s0.3-0.8,0.3-1.6c0-0.7-0.1-1.3-0.3-1.6c-0.2-0.3-0.6-0.5-1.1-0.5s-0.9,0.2-1.1,0.5
					C297.9,8.5,297.8,9,297.8,9.7z"/>
			</g>
			<g>
				<path fill="#7AC3D0" d="M303.9,7.7c0.3-0.2,0.7-0.3,1.2-0.3s0.9,0.1,1.2,0.3c0.3,0.2,0.5,0.5,0.5,0.9c0,0.3-0.1,0.5-0.2,0.7
					s-0.3,0.3-0.6,0.4c0.3,0.1,0.5,0.3,0.6,0.5s0.2,0.4,0.2,0.7c0,0.9-0.6,1.3-1.8,1.3c-1.2,0-1.8-0.4-1.8-1.3
					c0-0.3,0.1-0.6,0.2-0.8s0.3-0.3,0.6-0.5c-0.3-0.1-0.4-0.3-0.6-0.4c-0.1-0.2-0.2-0.4-0.2-0.7C303.5,8.2,303.6,7.9,303.9,7.7z
					 M304,10.9c0,0.6,0.4,0.9,1.2,0.9c0.8,0,1.2-0.3,1.2-0.9c0-0.3-0.1-0.4-0.2-0.6s-0.3-0.2-0.6-0.3h-0.7c-0.3,0.1-0.5,0.2-0.6,0.3
					C304,10.4,304,10.6,304,10.9z M306.3,8.7c0-0.5-0.4-0.8-1.1-0.8s-1.1,0.3-1.1,0.8c0,0.2,0.1,0.4,0.2,0.5s0.3,0.2,0.5,0.3h0.7
					c0.3-0.1,0.4-0.2,0.6-0.3C306.2,9.1,306.3,8.9,306.3,8.7z"/>
			</g>
		</g>
	</g>
	<g>
		<g>
			<path fill="#2D464B" d="M394.3,19h-66.1c-1.1,0-2-0.9-2-2V2c0-1.1,0.9-2,2-2h66.1c1.1,0,2,0.9,2,2v15
				C396.3,18.1,395.4,19,394.3,19z M328.2,2v15h66.1V2H328.2z"/>
		</g>
		<g>
			<g>
				<path fill="#7AC3D0" d="M364.2,7.2l1.2,2.1l1.3-2.1h0.6l-1.5,2.5l1.5,2.4h-0.6l-1.2-2l-1.3,2h-0.6l1.5-2.4l-1.5-2.5
					C363.6,7.2,364.2,7.2,364.2,7.2z"/>
			</g>
			<g>
				<path fill="#7AC3D0" d="M371,7.4c0.4,0,0.7,0.1,0.9,0.2c0.5,0.3,0.8,1.1,0.8,2.3c0,0.9-0.1,1.5-0.4,1.8
					c-0.3,0.4-0.7,0.5-1.3,0.5c-0.6,0-1-0.2-1.3-0.5s-0.4-1-0.4-1.9s0.1-1.5,0.4-1.9C370,7.6,370.4,7.4,371,7.4z M371,7.9
					c-0.3,0-0.5,0.1-0.6,0.2c-0.3,0.2-0.5,0.8-0.5,1.8c0,0.7,0.1,1.2,0.3,1.5c0.2,0.3,0.5,0.4,0.9,0.4s0.7-0.1,0.9-0.4
					c0.2-0.3,0.3-0.8,0.3-1.5s-0.1-1.2-0.3-1.5C371.7,8,371.4,7.9,371,7.9z"/>
			</g>
			<g>
				<path fill="#7AC3D0" d="M378.1,12.2h-3v-0.5l1.4-1.4c0.2-0.2,0.4-0.4,0.5-0.6c0.1-0.1,0.2-0.3,0.3-0.5c0.1-0.2,0.1-0.4,0.1-0.5
					c0-0.3-0.1-0.5-0.2-0.6c-0.2-0.1-0.4-0.2-0.8-0.2c-0.3,0-0.7,0-1,0.1h-0.2V7.5c0.5-0.1,0.9-0.2,1.4-0.2s0.8,0.1,1.1,0.3
					c0.2,0.2,0.4,0.5,0.4,1c0,0.3-0.1,0.6-0.2,0.9c-0.1,0.2-0.4,0.5-0.8,0.9l-1.3,1.3h2.4L378.1,12.2L378.1,12.2z"/>
			</g>
			<g>
				<path fill="#7AC3D0" d="M384.4,9.7c0,0.9-0.1,1.5-0.4,1.9s-0.8,0.6-1.5,0.6s-1.2-0.2-1.5-0.6c-0.3-0.4-0.4-1-0.4-1.9
					s0.1-1.5,0.4-1.9s0.8-0.6,1.5-0.6s1.2,0.2,1.5,0.6S384.4,8.9,384.4,9.7z M381.1,9.7c0,0.7,0.1,1.2,0.3,1.6s0.6,0.5,1.1,0.5
					s0.9-0.2,1.1-0.5s0.3-0.8,0.3-1.6c0-0.7-0.1-1.3-0.3-1.6c-0.2-0.3-0.6-0.5-1.1-0.5s-0.9,0.2-1.1,0.5
					C381.2,8.5,381.1,9,381.1,9.7z"/>
			</g>
			<g>
				<path fill="#7AC3D0" d="M388.2,11.8c0.9,0,1.3-0.5,1.3-1.6c-0.5,0.2-0.9,0.3-1.2,0.3c-1,0-1.5-0.5-1.5-1.4
					c0-0.5,0.1-0.9,0.4-1.1c0.3-0.3,0.7-0.4,1.2-0.4c0.6,0,1,0.2,1.3,0.6c0.3,0.4,0.4,1.1,0.4,1.9s-0.2,1.4-0.5,1.8
					c-0.3,0.4-0.8,0.6-1.4,0.6c-0.4,0-0.7,0-1.1-0.1h-0.2L387,12C387.3,11.7,387.8,11.8,388.2,11.8z M388.3,9.9c0.3,0,0.6-0.1,1-0.2
					l0.2-0.1c0-1.2-0.4-1.8-1.1-1.8c-0.3,0-0.6,0.1-0.8,0.3c-0.2,0.2-0.3,0.5-0.3,0.8C387.3,9.6,387.6,9.9,388.3,9.9z"/>
			</g>
		</g>
	</g>
	<g>
		<g>
			<path fill="#2D464B" d="M476.8,19h-66.1c-1.1,0-2-0.9-2-2V2c0-1.1,0.9-2,2-2h66.1c1.1,0,2,0.9,2,2v15
				C478.8,18.1,477.9,19,476.8,19z M410.7,2v15h66.1V2H410.7z"/>
		</g>
		<g>
			<g>
				<path fill="#7AC3D0" d="M446.6,7.2l1.2,2.1l1.3-2.1h0.6l-1.5,2.5l1.5,2.4h-0.6l-1.2-2l-1.3,2H446l1.5-2.4L446,7.2
					C446,7.2,446.6,7.2,446.6,7.2z"/>
			</g>
			<g>
				<path fill="#7AC3D0" d="M453.4,7.4c0.4,0,0.7,0.1,0.9,0.2c0.5,0.3,0.8,1.1,0.8,2.3c0,0.9-0.1,1.5-0.4,1.8
					c-0.3,0.4-0.7,0.5-1.3,0.5s-1-0.2-1.3-0.5s-0.4-1-0.4-1.9s0.1-1.5,0.4-1.9C452.4,7.6,452.9,7.4,453.4,7.4z M453.4,7.9
					c-0.3,0-0.5,0.1-0.6,0.2c-0.3,0.2-0.5,0.8-0.5,1.8c0,0.7,0.1,1.2,0.3,1.5c0.2,0.3,0.5,0.4,0.9,0.4s0.7-0.1,0.9-0.4
					c0.2-0.3,0.3-0.8,0.3-1.5s-0.1-1.2-0.3-1.5C454.1,8,453.8,7.9,453.4,7.9z"/>
			</g>
			<g>
				<path fill="#7AC3D0" d="M460.5,12.2h-3v-0.5l1.4-1.4c0.2-0.2,0.4-0.4,0.5-0.6c0.1-0.1,0.2-0.3,0.3-0.5c0.1-0.2,0.1-0.4,0.1-0.5
					c0-0.3-0.1-0.5-0.2-0.6c-0.2-0.1-0.4-0.2-0.8-0.2c-0.3,0-0.7,0-1,0.1h-0.2V7.5c0.5-0.1,0.9-0.2,1.4-0.2s0.8,0.1,1.1,0.3
					c0.2,0.2,0.4,0.5,0.4,1c0,0.3-0.1,0.6-0.2,0.9c-0.1,0.2-0.4,0.5-0.8,0.9l-1.3,1.3h2.4L460.5,12.2L460.5,12.2z"/>
			</g>
			<g>
				<path fill="#7AC3D0" d="M465.3,7.5v4.7h-0.5V8.1l-1.2,0.8l-0.2-0.4l1.5-1C464.9,7.5,465.3,7.5,465.3,7.5z"/>
			</g>
			<g>
				<path fill="#7AC3D0" d="M468.5,7.4c0.4,0,0.7,0.1,0.9,0.2c0.5,0.3,0.8,1.1,0.8,2.3c0,0.9-0.1,1.5-0.4,1.8
					c-0.3,0.4-0.7,0.5-1.3,0.5c-0.6,0-1-0.2-1.3-0.5s-0.4-1-0.4-1.9s0.1-1.5,0.4-1.9C467.5,7.6,467.9,7.4,468.5,7.4z M468.5,7.9
					c-0.3,0-0.5,0.1-0.6,0.2c-0.3,0.2-0.5,0.8-0.5,1.8c0,0.7,0.1,1.2,0.3,1.5c0.2,0.3,0.5,0.4,0.9,0.4s0.7-0.1,0.9-0.4
					c0.2-0.3,0.3-0.8,0.3-1.5s-0.1-1.2-0.3-1.5C469.2,8,468.9,7.9,468.5,7.9z"/>
			</g>
		</g>
	</g>
	<g>
		<g>
			<path fill="#2D464B" d="M147.7,19H81.5c-1.1,0-2-0.9-2-2V2c0-1.1,0.9-2,2-2h66.1c1.1,0,2,0.9,2,2v15
				C149.7,18.1,148.8,19,147.7,19z M81.5,2v15h66.1V2H81.5z"/>
		</g>
		<g>
			<g>
				<path fill="#7AC3D0" d="M116.8,7.2l1.2,2.1l1.3-2.1h0.6l-1.5,2.5l1.5,2.4h-0.6l-1.2-2l-1.3,2h-0.6l1.5-2.4l-1.5-2.5
					C116.2,7.2,116.8,7.2,116.8,7.2z"/>
			</g>
			<g>
				<path fill="#7AC3D0" d="M123.6,7.4c0.4,0,0.7,0.1,0.9,0.2c0.5,0.3,0.8,1.1,0.8,2.3c0,0.9-0.1,1.5-0.4,1.8
					c-0.3,0.4-0.7,0.5-1.3,0.5c-0.6,0-1-0.2-1.3-0.5s-0.4-1-0.4-1.9s0.1-1.5,0.4-1.9C122.6,7.6,123,7.4,123.6,7.4z M123.6,7.9
					c-0.3,0-0.5,0.1-0.6,0.2c-0.3,0.2-0.5,0.8-0.5,1.8c0,0.7,0.1,1.2,0.3,1.5c0.2,0.3,0.5,0.4,0.9,0.4s0.7-0.1,0.9-0.4
					c0.2-0.3,0.3-0.8,0.3-1.5s-0.1-1.2-0.3-1.5C124.3,8,124,7.9,123.6,7.9z"/>
			</g>
			<g>
				<path fill="#7AC3D0" d="M130.7,12.2h-3v-0.5l1.4-1.4c0.2-0.2,0.4-0.4,0.5-0.6c0.1-0.1,0.2-0.3,0.3-0.5C130,9,130,8.8,130,8.7
					c0-0.3-0.1-0.5-0.2-0.6c-0.2-0.1-0.4-0.2-0.8-0.2c-0.3,0-0.7,0-1,0.1l-0.2,0V7.5c0.5-0.1,0.9-0.2,1.4-0.2s0.8,0.1,1.1,0.3
					c0.2,0.2,0.4,0.5,0.4,1c0,0.3-0.1,0.6-0.2,0.9c-0.1,0.2-0.4,0.5-0.8,0.9l-1.3,1.3h2.4v0.5H130.7z"/>
			</g>
			<g>
				<path fill="#7AC3D0" d="M137.1,9.7c0,0.9-0.1,1.5-0.4,1.9s-0.8,0.6-1.5,0.6s-1.2-0.2-1.5-0.6c-0.3-0.4-0.4-1-0.4-1.9
					s0.1-1.5,0.4-1.9s0.8-0.6,1.5-0.6s1.2,0.2,1.5,0.6C136.9,8.2,137.1,8.9,137.1,9.7z M133.7,9.7c0,0.7,0.1,1.2,0.3,1.6
					c0.2,0.4,0.6,0.5,1.1,0.5s0.9-0.2,1.1-0.5s0.3-0.8,0.3-1.6c0-0.7-0.1-1.3-0.3-1.6c-0.2-0.3-0.6-0.5-1.1-0.5s-0.9,0.2-1.1,0.5
					C133.8,8.5,133.7,9,133.7,9.7z"/>
			</g>
			<g>
				<path fill="#7AC3D0" d="M139.8,7.7c0.3-0.2,0.7-0.3,1.2-0.3s0.9,0.1,1.2,0.3c0.3,0.2,0.5,0.5,0.5,0.9c0,0.3-0.1,0.5-0.2,0.7
					c-0.1,0.2-0.3,0.3-0.6,0.4c0.3,0.1,0.5,0.3,0.6,0.5c0.1,0.2,0.2,0.4,0.2,0.7c0,0.9-0.6,1.3-1.8,1.3s-1.8-0.4-1.8-1.3
					c0-0.3,0.1-0.6,0.2-0.8c0.1-0.2,0.3-0.3,0.6-0.5c-0.3-0.1-0.4-0.3-0.6-0.4c-0.1-0.2-0.2-0.4-0.2-0.7
					C139.3,8.2,139.5,7.9,139.8,7.7z M139.9,10.9c0,0.6,0.4,0.9,1.2,0.9c0.8,0,1.2-0.3,1.2-0.9c0-0.3-0.1-0.4-0.2-0.6
					c-0.1-0.2-0.3-0.2-0.6-0.3h-0.7c-0.3,0.1-0.5,0.2-0.6,0.3C139.9,10.4,139.9,10.6,139.9,10.9z M142.1,8.7c0-0.5-0.4-0.8-1.1-0.8
					s-1.1,0.3-1.1,0.8c0,0.2,0.1,0.4,0.2,0.5c0.1,0.1,0.3,0.2,0.5,0.3h0.7c0.3-0.1,0.4-0.2,0.6-0.3C142.1,9.1,142.1,8.9,142.1,8.7z"
					/>
			</g>
		</g>
	</g>
</g>
<g>
	<path fill="#2D464B" d="M68.2,19H2c-1.1,0-2-0.9-2-2V2c0-1.1,0.9-2,2-2h66.1c1.1,0,2,0.9,2,2v15C70.2,18.1,69.3,19,68.2,19z M2,2
		v15h66.1V2H2z"/>
	<path fill="#7AC3D0" d="M37.3,6.9L38.5,9l1.3-2.1h0.6l-1.5,2.5l1.5,2.4h-0.6l-1.2-2l-1.3,2h-0.6l1.5-2.4l-1.5-2.5H37.3z"/>
	<path fill="#7AC3D0" d="M44.1,7.1c0.4,0,0.7,0.1,0.9,0.2c0.5,0.3,0.8,1.1,0.8,2.3c0,0.9-0.1,1.5-0.4,1.8c-0.3,0.4-0.7,0.5-1.3,0.5
		c-0.6,0-1-0.2-1.3-0.5s-0.4-1-0.4-1.9s0.1-1.5,0.4-1.9C43.1,7.2,43.5,7.1,44.1,7.1z M44.1,7.6c-0.3,0-0.5,0.1-0.6,0.2
		C43.2,8,43,8.6,43,9.6c0,0.7,0.1,1.2,0.3,1.5c0.2,0.3,0.5,0.4,0.9,0.4s0.7-0.1,0.9-0.4c0.2-0.3,0.3-0.8,0.3-1.5s-0.1-1.2-0.3-1.5
		C44.8,7.7,44.5,7.6,44.1,7.6z"/>
	<path fill="#7AC3D0" d="M48.2,7.3c0.4-0.1,0.9-0.2,1.4-0.2s0.9,0.1,1.1,0.3S51,7.9,51,8.3c0,0.2,0,0.4-0.1,0.5S50.8,9,50.8,9
		c0,0.1-0.1,0.1-0.1,0.1c-0.1,0.1-0.2,0.1-0.2,0.2l-0.1,0.1c0.3,0.1,0.5,0.2,0.6,0.4s0.2,0.4,0.2,0.8c0,0.5-0.1,0.8-0.4,1.1
		c-0.2,0.2-0.6,0.3-1.2,0.3c-0.4,0-0.9,0-1.3-0.1h-0.2l0.1-0.4c0.5,0.1,1,0.2,1.4,0.2c0.7,0,1-0.3,1-0.9c0-0.6-0.3-0.9-1-0.9h-0.9
		V9.4h0.9c0.2,0,0.4-0.1,0.6-0.2c0.2-0.2,0.3-0.4,0.3-0.6c0-0.3-0.1-0.5-0.2-0.6c-0.1-0.1-0.4-0.2-0.7-0.2c-0.4,0-0.8,0-1.1,0.1
		h-0.2L48.2,7.3z"/>
	<path fill="#7AC3D0" d="M57.6,9.4c0,0.9-0.1,1.5-0.4,1.9s-0.8,0.6-1.5,0.6s-1.2-0.2-1.5-0.6c-0.3-0.4-0.4-1-0.4-1.9
		s0.1-1.5,0.4-1.9s0.8-0.6,1.5-0.6s1.2,0.2,1.5,0.6C57.4,7.9,57.6,8.5,57.6,9.4z M54.2,9.4c0,0.7,0.1,1.2,0.3,1.6s0.6,0.5,1.1,0.5
		s0.9-0.2,1.1-0.5S57,10.2,57,9.4c0-0.7-0.1-1.3-0.3-1.6c-0.2-0.3-0.6-0.5-1.1-0.5s-0.9,0.2-1.1,0.5C54.3,8.2,54.2,8.7,54.2,9.4z"/>
	<path fill="#7AC3D0" d="M62.9,7.1v0.5h-2.3l-0.1,1.5c0.4-0.2,0.7-0.3,1.1-0.3c1,0,1.5,0.5,1.5,1.4c0,0.5-0.1,0.9-0.4,1.2
		s-0.7,0.4-1.2,0.4c-0.4,0-0.8-0.1-1.3-0.2L60,11.5l0.1-0.4c0.5,0.1,1,0.2,1.4,0.2s0.7-0.1,0.8-0.3c0.2-0.2,0.3-0.5,0.3-0.8
		s-0.1-0.6-0.3-0.7c-0.2-0.1-0.4-0.2-0.7-0.2c-0.2,0-0.4,0-0.5,0.1c-0.2,0-0.3,0.1-0.4,0.1l-0.2,0.1l-0.4-0.1l0.1-2.4H62.9z"/>
</g>
</svg>
