<?xml version="1.0" encoding="utf-8"?>
<!-- Generator: Adobe Illustrator 27.2.0, SVG Export Plug-In . SVG Version: 6.00 Build 0)  -->
<svg version="1.1" baseProfile="tiny" id="Layer_1" xmlns="http://www.w3.org/2000/svg" xmlns:xlink="http://www.w3.org/1999/xlink"
	 x="0px" y="0px" viewBox="0 0 530 60" overflow="visible" xml:space="preserve">
<g>
	<rect x="37.7" y="57" fill="#17272A" width="454.6" height="3"/>
</g>
<g>
	<path fill="#6DB6C5" d="M527,38h3v11.7c0,5.7-4.6,10.3-10.2,10.3h-20.2v-3h20.2c4,0,7.2-3.3,7.2-7.3V38z"/>
</g>
<g>
	<rect x="527" y="0" fill="#17272A" width="3" height="30"/>
</g>
<g>
	<g>
		<rect x="527" y="0" fill="#6DB6C5" width="3" height="3.5"/>
	</g>
</g>
<g>
	<path fill="#6DB6C5" d="M3,49.7c0,4,3.2,7.3,7.2,7.3h20.2v3H10.2C4.6,60,0,55.4,0,49.7V38h3V49.7z"/>
</g>
<g>
	<rect y="0" fill="#17272A" width="3" height="30"/>
</g>
<g>
	<g>
		<rect y="0" fill="#6DB6C5" width="3" height="3.5"/>
	</g>
</g>
</svg>
