<?xml version="1.0" encoding="utf-8"?>
<!-- Generator: Adobe Illustrator 27.2.0, SVG Export Plug-In . SVG Version: 6.00 Build 0)  -->
<svg version="1.1" baseProfile="tiny" id="Layer_1" xmlns="http://www.w3.org/2000/svg" xmlns:xlink="http://www.w3.org/1999/xlink"
	 x="0px" y="0px" viewBox="0 0 530 38.1" overflow="visible" xml:space="preserve">
<path fill="#7AC3D0" d="M208.6,21.1H4.2c-2.3,0-4.2-1.9-4.2-4.2V4.2C0,1.9,1.9,0,4.2,0h204.3c2.3,0,4.2,1.9,4.2,4.2v12.6
	C212.8,19.2,210.9,21.1,208.6,21.1z"/>
<rect x="212.8" y="8.6" fill="#2B454A" width="317.2" height="3"/>
<rect x="522.2" y="8.6" fill="#79C2D0" width="7.8" height="3"/>
<g>
	<path fill="#79C2D0" d="M459.7,34.9h-0.9v-8.3h0.9v3.9l1.4,0l2.1-3.8h1.1l-2.4,4.2l2.5,4.1h-1.1l-2.2-3.7l-1.4,0V34.9z"/>
	<path fill="#79C2D0" d="M468.7,32.1h-2.1v2.8h-0.9v-8.3h3c0.9,0,1.6,0.2,2,0.7c0.4,0.4,0.6,1.1,0.6,2
		C471.3,31.2,470.5,32.1,468.7,32.1z M466.6,31.3h2.1c1.1,0,1.7-0.7,1.7-2c0-0.6-0.1-1.1-0.4-1.4c-0.3-0.3-0.7-0.5-1.3-0.5h-2.1
		V31.3z"/>
	<path fill="#79C2D0" d="M475.2,34.9h-0.9v-3.5l-2.7-4.8h1l2.1,3.9l2.1-3.9h1l-2.6,4.8V34.9z"/>
	<path fill="#79C2D0" d="M477.9,32v-0.8h3.6V32H477.9z"/>
	<path fill="#79C2D0" d="M482.2,35.8v-0.8c0.6,0,0.9-0.1,1.1-0.2s0.2-0.5,0.2-1.1v-7h0.9l0,7.2c0,0.7-0.1,1.2-0.3,1.5
		c-0.2,0.3-0.5,0.4-1.1,0.5C482.9,35.8,482.6,35.8,482.2,35.8z"/>
	<path fill="#79C2D0" d="M491.2,26.6h1l-2.2,8.3h-2.1l-2.2-8.3h1l1.9,7.5h0.7L491.2,26.6z"/>
	<path fill="#79C2D0" d="M493.5,34.9v-8.3h5v0.8h-4v3.2h3.4v0.8h-3.4v3.4H493.5z"/>
	<path fill="#79C2D0" d="M499.5,32v-0.8h3.6V32H499.5z"/>
	<path fill="#79C2D0" d="M504.2,34.9l2.3-8.3h2l2.3,8.3h-0.9l-0.6-2.1h-3.6l-0.6,2.1H504.2z M507.1,27.4l-1.3,4.5h3.1l-1.3-4.5
		H507.1z"/>
</g>
</svg>
