<?xml version="1.0" encoding="utf-8"?>
<!-- Generator: Adobe Illustrator 27.2.0, SVG Export Plug-In . SVG Version: 6.00 Build 0)  -->
<svg version="1.1" baseProfile="tiny" id="Layer_1" xmlns="http://www.w3.org/2000/svg" xmlns:xlink="http://www.w3.org/1999/xlink"
	 x="0px" y="0px" viewBox="0 0 132.5 68.4" overflow="visible" xml:space="preserve">
<g>
	<g>
		<path fill="#79C2D0" d="M7.3,14.6c-4,0-7.3-3.3-7.3-7.3S3.3,0,7.3,0s7.3,3.3,7.3,7.3S11.3,14.6,7.3,14.6z M7.3,1.3
			c-3.3,0-6,2.7-6,6s2.7,6,6,6s6-2.7,6-6S10.6,1.3,7.3,1.3z"/>
	</g>
	<g>
		<path fill="#79C2D0" d="M6.6,5.2V3.9h1.3v1.4H6.6V5.2z M6.6,10.9v-5h1.3v5H6.6z"/>
	</g>
</g>
<g>
	<path fill="#B72157" d="M20.3,8.2L23,1.5l0.6,0.2l-2.7,6.7L20.3,8.2z"/>
	<path fill="#B72157" d="M27.3,8.2L30,1.5l0.6,0.2l-2.7,6.7L27.3,8.2z"/>
	<path fill="#B72157" d="M39.4,2.2c-1,0-1.4,0.4-1.4,1.1c0,0.4,0.1,0.7,0.3,0.8c0.2,0.2,0.7,0.3,1.4,0.5s1.2,0.3,1.4,0.6
		c0.3,0.2,0.4,0.6,0.4,1.2c0,1.4-0.7,2.1-2.1,2.1c-0.5,0-1.1-0.1-1.8-0.2h-0.3l0-0.7c0.9,0.1,1.5,0.2,2,0.2c1,0,1.4-0.4,1.4-1.3
		c0-0.4-0.1-0.6-0.3-0.8c-0.2-0.2-0.6-0.3-1.2-0.4c-0.8-0.2-1.3-0.4-1.6-0.6S37.1,4,37.1,3.4c0-1.2,0.7-1.8,2.2-1.8
		c0.5,0,1,0,1.7,0.1h0.3l0,0.6C40.4,2.2,39.7,2.2,39.4,2.2z"/>
	<path fill="#B72157" d="M42.5,2.3V1.6h4.8v0.7h-2v6h-0.7v-6C44.6,2.3,42.5,2.3,42.5,2.3z"/>
	<path fill="#B72157" d="M47.8,8.3l1.8-6.7h1.6L53,8.3h-0.7l-0.5-1.7h-2.9l-0.5,1.7H47.8z M50.2,2.3l-1,3.7h2.5l-1-3.7H50.2z"/>
	<path fill="#B72157" d="M53.4,2.3V1.6h4.9v0.7h-2v6h-0.7v-6C55.6,2.3,53.4,2.3,53.4,2.3z"/>
	<path fill="#B72157" d="M59.7,8.3V1.6h0.7v6.7H59.7z"/>
	<path fill="#B72157" d="M66.6,8.2c-0.7,0.1-1.3,0.2-1.8,0.2s-1-0.1-1.3-0.2c-0.3-0.1-0.6-0.4-0.8-0.7c-0.2-0.3-0.3-0.7-0.4-1.1
		c0-0.3,0-0.8,0-1.4s0-1.1,0.1-1.5s0.2-0.8,0.4-1.1c0.2-0.3,0.4-0.5,0.7-0.7c0.3-0.1,0.7-0.2,1.3-0.2s1.1,0.1,1.8,0.2v0.6
		c-0.7-0.1-1.2-0.2-1.7-0.2c-0.7,0-1.2,0.2-1.4,0.6S63.1,4,63.1,5c0,0.5,0,0.9,0.1,1.2c0,0.3,0.1,0.6,0.2,0.8
		c0.1,0.2,0.3,0.4,0.5,0.5c0.2,0.1,0.6,0.2,1,0.2c0.5,0,1-0.1,1.6-0.2L66.6,8.2z"/>
	<path fill="#B72157" d="M68.3,8.3V1.6h1.3l1.9,5.7l1.9-5.7h1.3v6.7H74V2.4h-0.1L72,8.1h-0.8l-1.9-5.7h-0.1v5.9
		C69.2,8.3,68.3,8.3,68.3,8.3z"/>
	<path fill="#B72157" d="M76.9,8.3V1.6H81v0.7h-3.3v2.3h2.7v0.6h-2.7v2.4H81v0.7H76.9z"/>
	<path fill="#B72157" d="M82,2.3V1.6h4.8v0.7h-2v6h-0.7v-6C84.1,2.3,82,2.3,82,2.3z"/>
	<path fill="#B72157" d="M92.4,8.3v-3H89v3h-0.7V1.6H89v3h3.4v-3h0.7v6.7C93.1,8.3,92.4,8.3,92.4,8.3z"/>
	<path fill="#B72157" d="M100.3,5c0,1.2-0.2,2.1-0.6,2.6s-1.1,0.8-2.1,0.8s-1.7-0.3-2.1-0.8C95.2,7,95,6.2,95,5s0.2-2,0.6-2.6
		s1.1-0.9,2.1-0.9s1.7,0.3,2.1,0.8S100.3,3.8,100.3,5z M95.8,5c0,1,0.1,1.7,0.4,2.1s0.8,0.6,1.5,0.6s1.2-0.2,1.5-0.6S99.6,6,99.6,5
		s-0.1-1.7-0.4-2.2s-0.8-0.7-1.5-0.7s-1.2,0.2-1.5,0.7S95.8,4,95.8,5z"/>
	<path fill="#B72157" d="M104.5,8.3h-2.4V1.6h2.4c1.1,0,1.8,0.4,2.2,1.3c0.2,0.5,0.3,1.1,0.3,2c0,1.7-0.4,2.7-1.3,3.2
		C105.4,8.2,105,8.3,104.5,8.3z M106.2,4.9c0-1.3-0.3-2.1-0.9-2.4c-0.2-0.1-0.5-0.2-0.8-0.2h-1.6v5.4h1.6
		C105.7,7.6,106.2,6.7,106.2,4.9z"/>
	<path fill="#79C2D0" d="M23.2,23.3h-2.4v-6.7h2.4c1.1,0,1.8,0.4,2.2,1.3c0.2,0.5,0.3,1.1,0.3,2c0,1.7-0.4,2.7-1.3,3.2
		C24,23.2,23.6,23.3,23.2,23.3z M24.9,19.9c0-1.3-0.3-2.1-0.9-2.4c-0.2-0.1-0.5-0.2-0.8-0.2h-1.6v5.4h1.6
		C24.3,22.6,24.9,21.7,24.9,19.9z"/>
	<path fill="#79C2D0" d="M27.5,23.3v-6.7h4.1v0.7h-3.3v2.3H31v0.6h-2.7v2.4h3.3v0.7H27.5z"/>
	<path fill="#79C2D0" d="M33.3,23.3v-6.7h4v0.7H34v2.6h2.8v0.7H34v2.8h-0.7V23.3z"/>
	<path fill="#79C2D0" d="M41.5,23.3v-6.7h1.3l1.9,5.7l1.9-5.7h1.3v6.7h-0.7v-5.9h-0.1l-1.9,5.7h-0.9l-1.9-5.7h-0.1v5.9
		C42.3,23.3,41.5,23.3,41.5,23.3z"/>
	<path fill="#79C2D0" d="M52.2,23.3h-0.7v-2.8l-2.1-3.9h0.8l1.7,3.1l1.7-3.1h0.8l-2.1,3.9v2.8H52.2z"/>
	<path fill="#B72157" d="M55.9,24.2H60v0.6h-4.1V24.2z"/>
	<path fill="#79C2D0" d="M66.1,16.6h0.8l-1.7,6.7h-1.7l-1.7-6.7h0.8l1.5,6h0.5L66.1,16.6z"/>
	<path fill="#79C2D0" d="M68.4,23.3v-6.7h0.7v6.7H68.4z"/>
	<path fill="#79C2D0" d="M71.3,23.3v-6.7h4.1v0.7h-3.3v2.3h2.7v0.6h-2.7v2.4h3.3v0.7H71.3z"/>
	<path fill="#79C2D0" d="M76.6,16.6h0.8l1.1,6h0.3l1.4-6h0.9l1.4,6h0.3l1.1-6h0.8l-1.4,6.7h-1.4l-1.3-5.7l-1.3,5.7h-1.4L76.6,16.6z"
		/>
	<path fill="#79C2D0" d="M21.5,35.7v2.6h-0.7v-6.7h2.5c0.7,0,1.2,0.2,1.6,0.5s0.5,0.8,0.5,1.5c0,1-0.4,1.7-1.2,1.9l1.3,2.7h-0.8
		l-1.2-2.6L21.5,35.7L21.5,35.7z M23.3,35.1c0.9,0,1.4-0.5,1.4-1.4s-0.5-1.4-1.4-1.4h-1.7v2.8C21.6,35.1,23.3,35.1,23.3,35.1z"/>
	<path fill="#79C2D0" d="M30.9,31.6h0.8L30,38.3h-1.7l-1.7-6.7h0.7l1.5,6h0.5L30.9,31.6z"/>
	<path fill="#79C2D0" d="M33.2,38.3v-6.7h4.1v0.7H34v2.3h2.7v0.6H34v2.4h3.3v0.7H33.2z"/>
	<path fill="#79C2D0" d="M39,38.3v-6.7h1.4l2.6,6h0.2v-6h0.7v6.7h-1.4l-2.6-6h-0.2v6H39z"/>
	<path fill="#79C2D0" d="M46,38.3v-6.7h4v0.7h-3.3v2.6h2.8v0.7h-2.8v2.8L46,38.3L46,38.3z"/>
	<path fill="#79C2D0" d="M51.6,38.3v-6.7h0.7v6.7H51.6z"/>
	<path fill="#79C2D0" d="M54.5,38.3v-6.7h1.4l2.6,6h0.2v-6h0.7v6.7H58l-2.6-6h-0.2v6H54.5z"/>
	<path fill="#79C2D0" d="M61.5,38.3v-6.7h4.1v0.7h-3.3v2.3H65v0.6h-2.7v2.4h3.3v0.7H61.5z"/>
	<path fill="#B72157" d="M69.7,35.3v-0.7h4.2v0.7H69.7z M69.7,37.1v-0.7h4.2v0.7H69.7z"/>
	<path fill="#79C2D0" d="M82.5,38.2c-0.7,0.1-1.3,0.2-1.8,0.2s-1-0.1-1.3-0.2c-0.3-0.1-0.6-0.4-0.8-0.7c-0.2-0.3-0.3-0.7-0.4-1.1
		c-0.1-0.4-0.1-0.9-0.1-1.5s0-1.1,0.1-1.5s0.2-0.8,0.4-1.1c0.2-0.3,0.4-0.5,0.7-0.7c0.3-0.1,0.7-0.2,1.3-0.2c0.5,0,1.1,0.1,1.8,0.2
		v0.6c-0.7-0.1-1.2-0.2-1.7-0.2c-0.7,0-1.2,0.2-1.4,0.6S78.9,34,78.9,35c0,0.5,0,0.9,0.1,1.2s0.1,0.6,0.2,0.8s0.3,0.4,0.5,0.5
		s0.6,0.2,1,0.2s1-0.1,1.6-0.2L82.5,38.2z"/>
	<path fill="#79C2D0" d="M89.1,35c0,1.2-0.2,2.1-0.6,2.6s-1.1,0.8-2.1,0.8s-1.7-0.3-2.1-0.8s-0.6-1.4-0.6-2.6c0-1.2,0.2-2,0.6-2.6
		s1.1-0.9,2.1-0.9s1.7,0.3,2.1,0.8C88.9,32.8,89.1,33.8,89.1,35z M84.5,35c0,1,0.1,1.7,0.4,2.1c0.3,0.4,0.8,0.6,1.5,0.6
		s1.2-0.2,1.5-0.6s0.4-1.1,0.4-2.1s-0.1-1.7-0.4-2.2s-0.8-0.7-1.5-0.7s-1.2,0.2-1.5,0.7C84.7,33.3,84.5,34,84.5,35z"/>
	<path fill="#79C2D0" d="M90.9,38.3v-6.7h1.4l2.6,6h0.2v-6h0.7v6.7h-1.4l-2.6-6h-0.2v6H90.9z"/>
	<path fill="#79C2D0" d="M97.2,32.3v-0.7h4.8v0.7h-2v6h-0.7v-6H97.2z"/>
	<path fill="#79C2D0" d="M103.5,38.3v-6.7h4.1v0.7h-3.3v2.3h2.7v0.6h-2.7v2.4h3.3v0.7H103.5z"/>
	<path fill="#79C2D0" d="M109.5,31.6l1.7,2.9l1.7-2.9h0.8l-2.1,3.4l2.1,3.3h-0.8l-1.7-2.8l-1.7,2.8h-0.8l2.1-3.3l-2.1-3.4H109.5z"/>
	<path fill="#79C2D0" d="M114.5,32.3v-0.7h4.8v0.7h-2v6h-0.7v-6H114.5z"/>
	<path fill="#79C2D0" d="M33.2,46.6h0.7l-1.7,6.7h-1.7l-1.7-6.7h0.8l1.5,6h0.5L33.2,46.6z"/>
	<path fill="#79C2D0" d="M35.5,53.3v-6.7h0.7v6.7H35.5z"/>
	<path fill="#79C2D0" d="M38.3,53.3v-6.7h4.1v0.7h-3.3v2.3h2.7v0.6h-2.7v2.4h3.3v0.7H38.3z"/>
	<path fill="#79C2D0" d="M43.6,46.6h0.8l1.1,6h0.3l1.4-6h0.9l1.4,6h0.3l1.1-6h0.8l-1.4,6.7h-1.4l-1.3-5.7l-1.3,5.7h-1.4L43.6,46.6z"
		/>
	<path fill="#79C2D0" d="M59.8,53.3v-6.7h0.7v6.7H59.8z"/>
	<path fill="#79C2D0" d="M62.6,53.3v-6.7H64l2.6,6h0.2v-6h0.7v6.7h-1.4l-2.6-6h-0.2v6H62.6z"/>
	<path fill="#79C2D0" d="M73.5,46.6h0.8l-1.7,6.7h-1.7l-1.7-6.7H70l1.5,6h0.4L73.5,46.6z"/>
	<path fill="#B72157" d="M78.2,50.3v-0.7h4.2v0.7H78.2z M78.2,52.1v-0.7h4.2v0.7H78.2z"/>
	<path fill="#79C2D0" d="M87.6,50.7v2.6h-0.7v-6.7h2.5c0.7,0,1.2,0.2,1.6,0.5s0.5,0.8,0.5,1.5c0,1-0.4,1.7-1.2,1.9l1.3,2.7h-0.8
		l-1.2-2.6L87.6,50.7L87.6,50.7z M89.4,50.1c0.9,0,1.4-0.5,1.4-1.4s-0.5-1.4-1.4-1.4h-1.7v2.8C87.7,50.1,89.4,50.1,89.4,50.1z"/>
	<path fill="#79C2D0" d="M97,46.6h0.8l-1.7,6.7h-1.7l-1.7-6.7h0.8l1.5,6h0.5L97,46.6z"/>
	<path fill="#79C2D0" d="M99.3,53.3v-6.7h4.1v0.7h-3.3v2.3h2.7v0.6h-2.7v2.4h3.3v0.7H99.3z"/>
	<path fill="#79C2D0" d="M105.1,53.3v-6.7h1.4l2.6,6h0.2v-6h0.7v6.7h-1.4l-2.6-6h-0.1v6H105.1z"/>
	<path fill="#79C2D0" d="M114.8,50.6v-0.7h1.8v3.3c-0.8,0.2-1.5,0.2-2.2,0.2c-1,0-1.6-0.3-2-0.8c-0.4-0.6-0.6-1.4-0.6-2.6
		c0-1.2,0.2-2,0.6-2.6s1-0.8,2-0.8c0.6,0,1.2,0.1,1.9,0.2l0.3,0.1v0.6c-0.8-0.1-1.5-0.2-2.1-0.2c-0.7,0-1.2,0.2-1.5,0.6
		c-0.3,0.4-0.4,1.1-0.4,2.1s0.1,1.7,0.4,2.1c0.3,0.4,0.8,0.6,1.5,0.6c0.5,0,0.9,0,1.4-0.1v-2.1h-1.1V50.6z"/>
	<path fill="#79C2D0" d="M118.6,53.3v-6.7h0.7v6.7H118.6z"/>
	<path fill="#79C2D0" d="M121.4,53.3v-6.7h1.4l2.6,6h0.2v-6h0.7v6.7h-1.4l-2.6-6h-0.2v6H121.4z"/>
	<path fill="#79C2D0" d="M128.5,53.3v-6.7h4.1v0.7h-3.3v2.3h2.7v0.6h-2.7v2.4h3.3v0.7H128.5z"/>
	<path fill="#B72157" d="M20.3,68.2l2.7-6.7l0.6,0.2l-2.7,6.7L20.3,68.2z"/>
	<path fill="#B72157" d="M27.3,68.2l2.7-6.7l0.6,0.2l-2.7,6.7L27.3,68.2z"/>
	<path fill="#B72157" d="M48.7,65.7v2.6H48v-6.7h2.5c0.7,0,1.2,0.2,1.6,0.5c0.4,0.3,0.5,0.8,0.5,1.5c0,1-0.4,1.7-1.2,1.9l1.3,2.7
		h-0.8l-1.2-2.6h-2V65.7z M50.4,65.1c0.9,0,1.4-0.5,1.4-1.4s-0.5-1.4-1.4-1.4h-1.7v2.8H50.4z"/>
	<path fill="#B72157" d="M54.4,68.3v-6.7h4.1v0.7h-3.3v2.3h2.7v0.6h-2.7v2.4h3.3v0.7H54.4z"/>
	<path fill="#B72157" d="M59.5,62.3v-0.7h4.8v0.7h-2v6h-0.7v-6C61.6,62.3,59.5,62.3,59.5,62.3z"/>
	<path fill="#B72157" d="M66.5,66.3c0,1,0.5,1.4,1.6,1.4c0.5,0,0.9-0.1,1.2-0.3c0.3-0.2,0.4-0.6,0.4-1.1v-4.7h0.7v4.7
		c0,0.7-0.2,1.3-0.6,1.6c-0.4,0.3-1,0.5-1.8,0.5s-1.4-0.2-1.7-0.5c-0.4-0.3-0.6-0.9-0.6-1.6v-4.7h0.7v4.7H66.5z"/>
	<path fill="#B72157" d="M73.2,65.7v2.6h-0.7v-6.7H75c0.7,0,1.2,0.2,1.6,0.5s0.5,0.8,0.5,1.5c0,1-0.4,1.7-1.2,1.9l1.3,2.7h-0.9
		l-1.2-2.6h-1.9V65.7z M75,65.1c0.9,0,1.4-0.5,1.4-1.4s-0.5-1.4-1.4-1.4h-1.7v2.8H75z"/>
	<path fill="#B72157" d="M78.9,68.3v-6.7h1.4l2.6,6h0.2v-6h0.7v6.7h-1.4l-2.6-6h-0.2v6H78.9z"/>
	<path fill="#B72157" d="M92.3,61.6h0.8l-1.8,6.7h-1.7l-1.7-6.7h0.8l1.5,6h0.5L92.3,61.6z"/>
	<path fill="#B72157" d="M94.6,68.3v-6.7h0.7v6.7H94.6z"/>
	<path fill="#B72157" d="M97.5,68.3v-6.7h4.1v0.7h-3.3v2.3h2.7v0.6h-2.7v2.4h3.3v0.7H97.5z"/>
	<path fill="#B72157" d="M102.8,61.6h0.8l1.1,6h0.3l1.4-6h0.9l1.4,6h0.3l1.1-6h0.8l-1.4,6.7h-1.4l-1.3-5.7l-1.3,5.7h-1.4L102.8,61.6
		z"/>
</g>
</svg>
