<?xml version="1.0" encoding="utf-8"?>
<!-- Generator: Adobe Illustrator 27.2.0, SVG Export Plug-In . SVG Version: 6.00 Build 0)  -->
<svg version="1.1" baseProfile="tiny" id="Layer_1" xmlns="http://www.w3.org/2000/svg" xmlns:xlink="http://www.w3.org/1999/xlink"
	 x="0px" y="0px" viewBox="0 0 144.8 19.3" overflow="visible" xml:space="preserve">
<rect y="16.3" fill="#2B454A" width="144.8" height="3"/>
<rect x="141.5" y="16.3" fill="#79C2D0" width="3.3" height="3"/>
<rect y="16.3" fill="#79C2D0" width="3.3" height="3"/>
<g>
	<path fill="#E3F3F6" d="M1.3,0l2.2,3.8L5.8,0h1.1L4.1,4.5l2.7,4.3H5.7L3.5,5.1L1.3,8.8H0.2l2.7-4.3L0.2,0H1.3z"/>
	<path fill="#E3F3F6" d="M10.7,5.7V4.9h3.8v0.9H10.7z"/>
	<path fill="#E3F3F6" d="M21.8,0.3c0.7,0,1.3,0.1,1.7,0.4c0.9,0.5,1.4,1.9,1.4,4.1c0,1.5-0.3,2.6-0.8,3.2s-1.3,0.9-2.3,0.9
		c-1,0-1.8-0.3-2.3-0.9s-0.8-1.7-0.8-3.3c0-1.6,0.3-2.7,0.8-3.4S20.7,0.3,21.8,0.3z M21.8,1.1c-0.5,0-0.9,0.1-1.1,0.3
		C20,1.9,19.7,3,19.7,4.7c0,1.3,0.2,2.1,0.5,2.6s0.8,0.7,1.5,0.7c0.7,0,1.2-0.2,1.5-0.7c0.3-0.5,0.5-1.4,0.5-2.7
		c0-1.3-0.2-2.2-0.5-2.7C23,1.4,22.5,1.1,21.8,1.1z"/>
	<path fill="#E3F3F6" d="M29.9,0.4v8.4h-1V1.5l-2.2,1.4l-0.4-0.7L29,0.4H29.9z"/>
</g>
</svg>
