<?xml version="1.0" encoding="utf-8"?>
<!-- Generator: Adobe Illustrator 27.2.0, SVG Export Plug-In . SVG Version: 6.00 Build 0)  -->
<svg version="1.1" baseProfile="tiny" id="Layer_1" xmlns="http://www.w3.org/2000/svg" xmlns:xlink="http://www.w3.org/1999/xlink"
	 x="0px" y="0px" viewBox="0 0 530 60" overflow="visible" xml:space="preserve">
<g>
	<rect x="37.7" y="0" fill="#17272A" width="454.6" height="3"/>
</g>
<g>
	<path fill="#6DB6C5" d="M3,22H0V10.3C0,4.6,4.6,0,10.2,0h20.2v3H10.2C6.2,3,3,6.3,3,10.3V22z"/>
</g>
<g>
	<rect y="30" fill="#17272A" width="3" height="30"/>
</g>
<g>
	<g>
		<rect y="56.5" fill="#6DB6C5" width="3" height="3.5"/>
	</g>
</g>
<g>
	<path fill="#6DB6C5" d="M527,10.3c0-4-3.2-7.3-7.2-7.3h-20.2V0h20.2c5.6,0,10.2,4.6,10.2,10.3V22h-3V10.3z"/>
</g>
<g>
	<rect x="527" y="30" fill="#17272A" width="3" height="30"/>
</g>
<g>
	<g>
		<rect x="527" y="56.5" fill="#6DB6C5" width="3" height="3.5"/>
	</g>
</g>
</svg>
