<?xml version="1.0" encoding="utf-8"?>
<!-- Generator: Adobe Illustrator 27.2.0, SVG Export Plug-In . SVG Version: 6.00 Build 0)  -->
<svg version="1.1" baseProfile="tiny" id="Layer_1" xmlns="http://www.w3.org/2000/svg" xmlns:xlink="http://www.w3.org/1999/xlink"
	 x="0px" y="0px" viewBox="0 0 164 120" overflow="visible" xml:space="preserve">
<path fill="#79C2D0" d="M1.2,8.1v5.1H0v-13h4.8c1.4,0,2.4,0.3,3,0.9c0.7,0.6,1,1.6,1,2.9c0,2.1-0.8,3.3-2.5,3.8L9,13.2H7.7L5.1,8.1
	H1.2z M7.6,4.1c0-1-0.2-1.7-0.7-2.1C6.5,1.5,5.7,1.2,4.8,1.2H1.2V7h3.6C6.7,7,7.6,6.1,7.6,4.1z"/>
<path fill="#79C2D0" d="M11.5,13.2v-13h7.8v1h-6.6v4.8h5.5v1h-5.5v5.1h6.6v1H11.5z"/>
<path fill="#79C2D0" d="M29.4,13c-1.3,0.3-2.4,0.4-3.3,0.4c-0.9,0-1.6-0.1-2.2-0.3c-0.6-0.2-1-0.5-1.4-0.8s-0.6-0.8-0.8-1.4
	c-0.4-1-0.6-2.4-0.6-4.2c0-2.8,0.4-4.7,1.3-5.6C23.2,0.4,24.4,0,25.9,0c1,0,2.2,0.1,3.5,0.4l-0.1,1C28,1.2,27,1.1,26.2,1.1
	c-0.8,0-1.4,0.1-1.8,0.3c-0.4,0.2-0.8,0.4-1,0.7s-0.5,0.7-0.6,1.2c-0.2,0.8-0.4,1.9-0.4,3.2c0,1.3,0,2.2,0.1,2.8
	c0.1,0.6,0.3,1.2,0.5,1.7s0.6,0.9,1.1,1.1c0.5,0.2,1.2,0.3,2,0.3c0.9,0,1.9-0.1,3.2-0.4L29.4,13z"/>
<path fill="#79C2D0" d="M31.8,13.2v-13h7.8v1H33v4.8h5.5v1H33v5.1h6.6v1H31.8z"/>
<path fill="#79C2D0" d="M42.1,13.2v-13h1.2v13H42.1z"/>
<path fill="#79C2D0" d="M54,0.2h1.2l-3.5,13h-2.8l-3.5-13h1.2l3.2,12h1.1L54,0.2z"/>
<path fill="#79C2D0" d="M57.3,13.2v-13h7.8v1h-6.6v4.8H64v1h-5.5v5.1h6.6v1H57.3z"/>
<path fill="#79C2D0" d="M68.8,8.1v5.1h-1.2v-13h4.8c1.4,0,2.4,0.3,3,0.9c0.7,0.6,1,1.6,1,2.9c0,2.1-0.8,3.3-2.5,3.8l2.7,5.3h-1.3
	l-2.6-5.1H68.8z M75.2,4.1c0-1-0.2-1.7-0.7-2.1c-0.5-0.5-1.2-0.7-2.1-0.7h-3.6V7h3.6C74.3,7,75.2,6.1,75.2,4.1z"/>
<path fill="#79C2D0" d="M82.9,8.5v-1h5.7v1H82.9z"/>
<path fill="#79C2D0" d="M99.1,1c-2,0-3,0.8-3,2.3c0,0.9,0.2,1.5,0.7,1.8c0.5,0.3,1.3,0.6,2.7,0.9c1.3,0.3,2.3,0.6,2.8,1.1
	c0.6,0.5,0.9,1.2,0.9,2.3c0,1.4-0.3,2.4-1,3c-0.7,0.6-1.7,0.9-3,0.9c-1,0-2.1-0.1-3.4-0.3L95,13l0.1-1c1.7,0.2,3,0.3,4,0.3
	c0.9,0,1.6-0.2,2.1-0.7c0.5-0.5,0.7-1.1,0.7-2c0-0.9-0.2-1.5-0.6-1.8c-0.4-0.3-1.1-0.6-2.1-0.7c-0.9-0.2-1.6-0.3-2.1-0.5
	C96.8,6.5,96.4,6.3,96,6c-0.4-0.3-0.7-0.6-0.8-1C95,4.6,95,4,95,3.4C95,1.1,96.3,0,99.1,0c0.8,0,1.9,0.1,3.2,0.3l0.6,0.1l-0.1,1
	C101.1,1.1,99.9,1,99.1,1z"/>
<path fill="#79C2D0" d="M113.5,13c-1.3,0.3-2.4,0.4-3.3,0.4c-0.9,0-1.6-0.1-2.2-0.3c-0.6-0.2-1-0.5-1.4-0.8s-0.6-0.8-0.8-1.4
	c-0.4-1-0.6-2.4-0.6-4.2c0-2.8,0.4-4.7,1.3-5.6c0.7-0.8,1.9-1.1,3.4-1.1c1,0,2.2,0.1,3.5,0.4l-0.1,1c-1.3-0.2-2.3-0.4-3.1-0.4
	c-0.8,0-1.4,0.1-1.8,0.3c-0.4,0.2-0.8,0.4-1,0.7s-0.5,0.7-0.6,1.2c-0.2,0.8-0.4,1.9-0.4,3.2c0,1.3,0,2.2,0.1,2.8
	c0.1,0.6,0.3,1.2,0.5,1.7c0.2,0.5,0.6,0.9,1.1,1.1c0.5,0.2,1.2,0.3,2,0.3c0.9,0,1.9-0.1,3.2-0.4L113.5,13z"/>
<path fill="#79C2D0" d="M121.4,0.9v12.3h-1.1V2.1L117,4.3l-0.5-0.9l3.9-2.6H121.4z"/>
<path fill="#79C2D0" d="M126.1,3.3c0.4-1,0.9-1.7,1.5-2c0.6-0.4,1.4-0.6,2.2-0.6c0.9,0,1.6,0.1,2.1,0.3c0.5,0.2,1,0.6,1.4,1
	c0.8,0.9,1.2,2.6,1.2,5c0,2.4-0.4,4.1-1.1,5c-0.7,0.9-1.8,1.4-3.3,1.4c-1.5,0-2.6-0.5-3.3-1.4s-1.1-2.5-1.1-4.8
	C125.5,5.6,125.7,4.2,126.1,3.3z M131.8,2.2c-0.4-0.3-1.1-0.5-1.8-0.5c-0.8,0-1.4,0.2-1.8,0.4c-0.9,0.6-1.4,2.3-1.4,5.1
	c0,1.9,0.3,3.3,0.8,4c0.5,0.7,1.3,1.1,2.4,1.1c0.7,0,1.3-0.1,1.8-0.4c1-0.6,1.5-2.2,1.5-4.7C133.2,4.5,132.7,2.8,131.8,2.2z"/>
<path fill="#79C2D0" d="M136.5,3.3c0.4-1,0.9-1.7,1.5-2c0.6-0.4,1.4-0.6,2.2-0.6c0.9,0,1.6,0.1,2.1,0.3c0.5,0.2,1,0.6,1.4,1
	c0.8,0.9,1.2,2.6,1.2,5c0,2.4-0.4,4.1-1.1,5c-0.7,0.9-1.8,1.4-3.3,1.4c-1.5,0-2.6-0.5-3.3-1.4S136,9.5,136,7.2
	C136,5.6,136.2,4.2,136.5,3.3z M142.2,2.2c-0.4-0.3-1.1-0.5-1.8-0.5c-0.8,0-1.4,0.2-1.8,0.4c-0.9,0.6-1.4,2.3-1.4,5.1
	c0,1.9,0.3,3.3,0.8,4c0.5,0.7,1.3,1.1,2.4,1.1c0.7,0,1.3-0.1,1.8-0.4c1-0.6,1.5-2.2,1.5-4.7C143.6,4.5,143.2,2.8,142.2,2.2z"/>
<g>
	<path fill="#79C2D0" d="M0.3,58.6L2.2,52h1.4l1.9,6.6H4.9l-0.5-1.8h-3l-0.5,1.8H0.3z M2.6,52.5l-1.1,3.8h2.7l-1.1-3.8H2.6z"/>
	<path fill="#79C2D0" d="M6.4,56.7c0,1,0.5,1.5,1.6,1.5c0.6,0,1-0.1,1.3-0.4c0.3-0.2,0.4-0.6,0.4-1.2V52h0.6v4.7
		c0,0.7-0.2,1.2-0.6,1.6c-0.4,0.3-1,0.5-1.7,0.5c-0.7,0-1.3-0.2-1.7-0.5c-0.4-0.3-0.6-0.8-0.6-1.6V52h0.6V56.7z"/>
	<path fill="#79C2D0" d="M10.7,52.5V52h4.8v0.5h-2.1v6.1h-0.6v-6.1H10.7z"/>
	<path fill="#79C2D0" d="M20.5,55.4c0,1.2-0.2,2-0.6,2.6c-0.4,0.5-1,0.8-2,0.8s-1.7-0.3-2-0.8c-0.4-0.5-0.6-1.4-0.6-2.6
		c0-1.2,0.2-2,0.6-2.6c0.4-0.6,1-0.8,2-0.8c1,0,1.6,0.3,2,0.8C20.4,53.3,20.5,54.2,20.5,55.4z M16.4,57.5c0.3,0.4,0.8,0.7,1.6,0.7
		s1.3-0.2,1.6-0.6c0.3-0.4,0.4-1.2,0.4-2.2s-0.1-1.8-0.4-2.2c-0.3-0.5-0.8-0.7-1.6-0.7c-0.8,0-1.3,0.3-1.6,0.8
		c-0.1,0.3-0.2,0.6-0.3,0.9C16,54.4,16,54.8,16,55.3C16,56.3,16.1,57.1,16.4,57.5z"/>
	<path fill="#79C2D0" d="M24.7,52.4c-1,0-1.5,0.4-1.5,1.2c0,0.5,0.1,0.8,0.3,0.9c0.2,0.2,0.7,0.3,1.4,0.4c0.7,0.1,1.2,0.3,1.4,0.6
		c0.3,0.2,0.4,0.6,0.4,1.2c0,0.7-0.2,1.2-0.5,1.5c-0.4,0.3-0.9,0.5-1.5,0.5c-0.5,0-1.1,0-1.7-0.1l-0.3,0l0.1-0.5
		c0.9,0.1,1.5,0.2,2,0.2s0.8-0.1,1.1-0.3c0.2-0.2,0.4-0.6,0.4-1c0-0.4-0.1-0.8-0.3-0.9c-0.2-0.2-0.6-0.3-1-0.4
		c-0.5-0.1-0.8-0.2-1.1-0.2c-0.2-0.1-0.4-0.2-0.6-0.3c-0.2-0.1-0.3-0.3-0.4-0.5c-0.1-0.2-0.1-0.5-0.1-0.8c0-1.2,0.7-1.7,2.1-1.7
		c0.4,0,1,0,1.6,0.1l0.3,0l0,0.5C25.7,52.5,25.1,52.4,24.7,52.4z"/>
	<path fill="#79C2D0" d="M31.4,58.5c-0.7,0.1-1.2,0.2-1.7,0.2c-0.5,0-0.8,0-1.1-0.1c-0.3-0.1-0.5-0.2-0.7-0.4
		c-0.2-0.2-0.3-0.4-0.4-0.7c-0.2-0.5-0.3-1.2-0.3-2.1c0-1.4,0.2-2.4,0.7-2.8c0.4-0.4,0.9-0.6,1.7-0.6c0.5,0,1.1,0.1,1.8,0.2l0,0.5
		c-0.7-0.1-1.2-0.2-1.6-0.2s-0.7,0-0.9,0.1c-0.2,0.1-0.4,0.2-0.5,0.3c-0.1,0.1-0.2,0.3-0.3,0.6c-0.1,0.4-0.2,1-0.2,1.6
		c0,0.6,0,1.1,0.1,1.5c0,0.3,0.1,0.6,0.3,0.9c0.1,0.3,0.3,0.4,0.6,0.6c0.2,0.1,0.6,0.2,1,0.2s1-0.1,1.6-0.2L31.4,58.5z"/>
	<path fill="#79C2D0" d="M31.5,58.6l1.9-6.6h1.4l1.9,6.6h-0.6l-0.5-1.8h-3l-0.5,1.8H31.5z M33.8,52.5l-1.1,3.8h2.7l-1.1-3.8H33.8z"
		/>
	<path fill="#79C2D0" d="M40.8,58.6h-3.6V52h0.6v6.1h3V58.6z"/>
	<path fill="#79C2D0" d="M41.2,58.6V52h4v0.5h-3.4V55h2.8v0.5h-2.8v2.6h3.4v0.5H41.2z"/>
	<path fill="#79C2D0" d="M1,38.2v2.6H0.4v-6.6h2.4c0.7,0,1.2,0.2,1.5,0.5s0.5,0.8,0.5,1.5c0,1.1-0.4,1.7-1.3,1.9L5,40.9H4.3L3,38.2
		H1z M4.3,36.2c0-0.5-0.1-0.9-0.4-1.1c-0.2-0.2-0.6-0.4-1.1-0.4H1v3h1.8C3.8,37.7,4.3,37.2,4.3,36.2z"/>
	<path fill="#79C2D0" d="M5.7,40.9v-6.6h4v0.5H6.3v2.5h2.8v0.5H6.3v2.6h3.4v0.5H5.7z"/>
	<path fill="#79C2D0" d="M10,38.5v-0.5h2.9v0.5H10z"/>
	<path fill="#79C2D0" d="M13.8,40.9v-6.6h1.1l2,5.8l2-5.8h1.1v6.6h-0.6v-6h-0.1l-2.1,5.8h-0.7l-2.1-5.8h-0.1v6H13.8z"/>
	<path fill="#79C2D0" d="M20.6,40.9l1.9-6.6h1.4l1.9,6.6h-0.6L24.7,39h-3l-0.5,1.8H20.6z M23,34.7l-1.1,3.8h2.7l-1.1-3.8H23z"/>
	<path fill="#79C2D0" d="M28.7,38.5h-1.8v2.3h-0.6v-6.6h2.4c0.7,0,1.2,0.2,1.6,0.5c0.3,0.3,0.5,0.9,0.5,1.6
		C30.8,37.8,30.1,38.5,28.7,38.5z M26.9,38h1.8c1,0,1.4-0.6,1.4-1.7c0-0.5-0.1-0.9-0.3-1.2c-0.2-0.3-0.6-0.4-1.1-0.4h-1.8V38z"/>
	<path fill="#79C2D0" d="M0,64.8v-0.5h4.8v0.5H2.7v6.1H2.1v-6.1H0z"/>
	<path fill="#79C2D0" d="M5.1,70.8v-6.6h4v0.5H5.7v2.5h2.8v0.5H5.7v2.6h3.4v0.5H5.1z"/>
	<path fill="#79C2D0" d="M9.8,70.8v-6.6h1.1l2,5.8l2-5.8h1.1v6.6h-0.6v-6h-0.1l-2.1,5.8h-0.7l-2.1-5.8h-0.1v6H9.8z"/>
	<path fill="#79C2D0" d="M19.6,68.5h-1.8v2.3h-0.6v-6.6h2.4c0.7,0,1.2,0.2,1.6,0.5c0.3,0.3,0.5,0.9,0.5,1.6
		C21.7,67.8,21,68.5,19.6,68.5z M17.8,68h1.8c1,0,1.4-0.6,1.4-1.7c0-0.5-0.1-0.9-0.3-1.2c-0.2-0.3-0.6-0.4-1.1-0.4h-1.8V68z"/>
	<path fill="#79C2D0" d="M27.4,70.8h-3.6v-6.6h0.6v6.1h3V70.8z"/>
	<path fill="#79C2D0" d="M32.5,67.6c0,1.2-0.2,2-0.6,2.6c-0.4,0.5-1,0.8-2,0.8c-1,0-1.7-0.3-2-0.8c-0.4-0.5-0.6-1.4-0.6-2.6
		c0-1.2,0.2-2,0.6-2.6c0.4-0.6,1-0.8,2-0.8c1,0,1.6,0.3,2,0.8C32.3,65.5,32.5,66.4,32.5,67.6z M28.3,69.7c0.3,0.4,0.8,0.7,1.6,0.7
		c0.8,0,1.3-0.2,1.6-0.6c0.3-0.4,0.4-1.2,0.4-2.2s-0.1-1.8-0.4-2.2c-0.3-0.5-0.8-0.7-1.6-0.7c-0.8,0-1.3,0.3-1.6,0.8
		c-0.1,0.3-0.2,0.6-0.3,0.9c-0.1,0.3-0.1,0.8-0.1,1.2C27.9,68.6,28.1,69.3,28.3,69.7z"/>
	<path fill="#79C2D0" d="M35.9,68v-0.5h1.8v3.2c-0.2,0-0.5,0.1-1,0.1c-0.5,0.1-0.8,0.1-1.2,0.1c-1,0-1.6-0.3-2-0.8
		c-0.4-0.6-0.6-1.4-0.6-2.5c0-0.6,0-1,0.1-1.4c0.1-0.4,0.2-0.8,0.4-1.1c0.4-0.6,1-0.9,2-0.9c0.6,0,1.2,0.1,1.8,0.2l0.3,0.1l0,0.5
		c-0.8-0.1-1.5-0.2-2.1-0.2c-0.8,0-1.3,0.2-1.6,0.7c-0.3,0.5-0.4,1.2-0.4,2.2c0,1,0.1,1.7,0.4,2.2c0.3,0.5,0.8,0.7,1.5,0.7
		c0.5,0,1-0.1,1.5-0.2V68H35.9z"/>
	<path fill="#79C2D0" d="M40.4,64.6c-1,0-1.5,0.4-1.5,1.2c0,0.5,0.1,0.8,0.3,0.9c0.2,0.2,0.7,0.3,1.4,0.4c0.7,0.1,1.2,0.3,1.4,0.6
		c0.3,0.2,0.4,0.6,0.4,1.2c0,0.7-0.2,1.2-0.5,1.5c-0.4,0.3-0.9,0.5-1.5,0.5c-0.5,0-1.1,0-1.7-0.1l-0.3,0l0.1-0.5
		c0.9,0.1,1.5,0.2,2,0.2s0.8-0.1,1.1-0.3c0.2-0.2,0.4-0.6,0.4-1c0-0.4-0.1-0.8-0.3-0.9c-0.2-0.2-0.6-0.3-1-0.4
		c-0.5-0.1-0.8-0.2-1.1-0.2c-0.2-0.1-0.4-0.2-0.6-0.3c-0.2-0.1-0.3-0.3-0.4-0.5c-0.1-0.2-0.1-0.5-0.1-0.8c0-1.2,0.7-1.7,2.1-1.7
		c0.4,0,1,0,1.6,0.1l0.3,0l0,0.5C41.4,64.7,40.8,64.6,40.4,64.6z"/>
	<path fill="#79C2D0" d="M72.8,70.7l2.7-6.6l0.5,0.2l-2.7,6.6L72.8,70.7z"/>
	<path fill="#79C2D0" d="M81,70.7c-0.7,0.1-1.2,0.2-1.7,0.2c-0.5,0-0.8,0-1.1-0.1c-0.3-0.1-0.5-0.2-0.7-0.4
		c-0.2-0.2-0.3-0.4-0.4-0.7c-0.2-0.5-0.3-1.2-0.3-2.1c0-1.4,0.2-2.4,0.7-2.8c0.4-0.4,0.9-0.6,1.7-0.6c0.5,0,1.1,0.1,1.8,0.2l0,0.5
		c-0.7-0.1-1.2-0.2-1.6-0.2s-0.7,0-0.9,0.1c-0.2,0.1-0.4,0.2-0.5,0.3c-0.1,0.1-0.2,0.3-0.3,0.6c-0.1,0.4-0.2,1-0.2,1.6
		s0,1.1,0.1,1.5c0,0.3,0.1,0.6,0.3,0.9c0.1,0.3,0.3,0.4,0.6,0.6c0.2,0.1,0.6,0.2,1,0.2s1-0.1,1.6-0.2L81,70.7z"/>
	<path fill="#79C2D0" d="M85.6,70.7c-0.7,0.1-1.2,0.2-1.7,0.2c-0.5,0-0.8,0-1.1-0.1c-0.3-0.1-0.5-0.2-0.7-0.4
		c-0.2-0.2-0.3-0.4-0.4-0.7c-0.2-0.5-0.3-1.2-0.3-2.1c0-1.4,0.2-2.4,0.7-2.8c0.4-0.4,0.9-0.6,1.7-0.6c0.5,0,1.1,0.1,1.8,0.2l0,0.5
		c-0.7-0.1-1.2-0.2-1.6-0.2c-0.4,0-0.7,0-0.9,0.1c-0.2,0.1-0.4,0.2-0.5,0.3c-0.1,0.1-0.2,0.3-0.3,0.6c-0.1,0.4-0.2,1-0.2,1.6
		s0,1.1,0.1,1.5c0,0.3,0.1,0.6,0.3,0.9c0.1,0.3,0.3,0.4,0.6,0.6c0.2,0.1,0.6,0.2,1,0.2c0.4,0,1-0.1,1.6-0.2L85.6,70.7z"/>
	<path fill="#79C2D0" d="M85.7,70.7l2.7-6.6l0.5,0.2l-2.7,6.6L85.7,70.7z"/>
	<path fill="#79C2D0" d="M89.4,70.8v-6.6h1.1l2,5.8l2-5.8h1.1v6.6h-0.6v-6H95l-2.1,5.8h-0.7l-2.1-5.8H90v6H89.4z"/>
	<path fill="#79C2D0" d="M96.8,70.8v-6.6h0.6v6.6H96.8z"/>
	<path fill="#79C2D0" d="M100.3,64.6c-1,0-1.5,0.4-1.5,1.2c0,0.5,0.1,0.8,0.3,0.9c0.2,0.2,0.7,0.3,1.4,0.4s1.2,0.3,1.4,0.6
		c0.3,0.2,0.4,0.6,0.4,1.2c0,0.7-0.2,1.2-0.5,1.5c-0.4,0.3-0.9,0.5-1.5,0.5c-0.5,0-1.1,0-1.7-0.1l-0.3,0l0.1-0.5
		c0.9,0.1,1.5,0.2,2,0.2s0.8-0.1,1.1-0.3c0.2-0.2,0.4-0.6,0.4-1c0-0.4-0.1-0.8-0.3-0.9c-0.2-0.2-0.6-0.3-1-0.4
		c-0.5-0.1-0.8-0.2-1.1-0.2c-0.2-0.1-0.4-0.2-0.6-0.3c-0.2-0.1-0.3-0.3-0.4-0.5c-0.1-0.2-0.1-0.5-0.1-0.8c0-1.2,0.7-1.7,2.1-1.7
		c0.4,0,1,0,1.6,0.1l0.3,0l0,0.5C101.3,64.7,100.6,64.6,100.3,64.6z"/>
	<path fill="#79C2D0" d="M107,70.7c-0.7,0.1-1.2,0.2-1.7,0.2c-0.5,0-0.8,0-1.1-0.1c-0.3-0.1-0.5-0.2-0.7-0.4
		c-0.2-0.2-0.3-0.4-0.4-0.7c-0.2-0.5-0.3-1.2-0.3-2.1c0-1.4,0.2-2.4,0.7-2.8c0.4-0.4,0.9-0.6,1.7-0.6c0.5,0,1.1,0.1,1.8,0.2l0,0.5
		c-0.7-0.1-1.2-0.2-1.6-0.2c-0.4,0-0.7,0-0.9,0.1c-0.2,0.1-0.4,0.2-0.5,0.3c-0.1,0.1-0.2,0.3-0.3,0.6c-0.1,0.4-0.2,1-0.2,1.6
		s0,1.1,0.1,1.5c0,0.3,0.1,0.6,0.3,0.9c0.1,0.3,0.3,0.4,0.6,0.6c0.2,0.1,0.6,0.2,1,0.2s1-0.1,1.6-0.2L107,70.7z"/>
	<path fill="#79C2D0" d="M107.8,71.8h4.1v0.5h-4.1V71.8z"/>
	<path fill="#79C2D0" d="M118.1,67.6c0,1.2-0.2,2-0.6,2.6c-0.4,0.5-1,0.8-2,0.8c-1,0-1.7-0.3-2-0.8c-0.4-0.5-0.6-1.4-0.6-2.6
		c0-1.2,0.2-2,0.6-2.6c0.4-0.6,1-0.8,2-0.8c1,0,1.6,0.3,2,0.8C117.9,65.5,118.1,66.4,118.1,67.6z M113.9,69.7
		c0.3,0.4,0.8,0.7,1.6,0.7c0.8,0,1.3-0.2,1.6-0.6c0.3-0.4,0.4-1.2,0.4-2.2s-0.1-1.8-0.4-2.2c-0.3-0.5-0.8-0.7-1.6-0.7
		c-0.8,0-1.3,0.3-1.6,0.8c-0.1,0.3-0.2,0.6-0.3,0.9s-0.1,0.8-0.1,1.2C113.5,68.6,113.6,69.3,113.9,69.7z"/>
	<path fill="#79C2D0" d="M120.7,64.6c-1,0-1.5,0.4-1.5,1.2c0,0.5,0.1,0.8,0.3,0.9c0.2,0.2,0.7,0.3,1.4,0.4c0.7,0.1,1.2,0.3,1.4,0.6
		c0.3,0.2,0.4,0.6,0.4,1.2c0,0.7-0.2,1.2-0.5,1.5c-0.4,0.3-0.9,0.5-1.5,0.5c-0.5,0-1.1,0-1.7-0.1l-0.3,0l0.1-0.5
		c0.9,0.1,1.5,0.2,2,0.2s0.8-0.1,1.1-0.3c0.2-0.2,0.4-0.6,0.4-1c0-0.4-0.1-0.8-0.3-0.9c-0.2-0.2-0.6-0.3-1-0.4
		c-0.5-0.1-0.8-0.2-1.1-0.2c-0.2-0.1-0.4-0.2-0.6-0.3c-0.2-0.1-0.3-0.3-0.4-0.5c-0.1-0.2-0.1-0.5-0.1-0.8c0-1.2,0.7-1.7,2.1-1.7
		c0.4,0,1,0,1.6,0.1l0.3,0l0,0.5C121.7,64.7,121,64.6,120.7,64.6z"/>
	<path fill="#79C2D0" d="M123.6,71.8h4.1v0.5h-4.1V71.8z"/>
	<path fill="#79C2D0" d="M132.8,64.2h0.6l-1.8,6.6h-1.4l-1.8-6.6h0.6l1.6,6.1h0.6L132.8,64.2z"/>
	<path fill="#79C2D0" d="M133.2,70.8v-1h0.6v1H133.2z"/>
	<path fill="#79C2D0" d="M138.6,70.8h-4v-0.5l2-2.1c0.3-0.3,0.5-0.6,0.7-0.8c0.1-0.2,0.3-0.4,0.4-0.6c0.1-0.2,0.2-0.5,0.2-0.7
		c0-0.4-0.1-0.7-0.4-0.9c-0.2-0.2-0.6-0.3-1.1-0.3c-0.4,0-0.9,0.1-1.4,0.2l-0.3,0.1l0-0.5c0.6-0.2,1.2-0.3,1.8-0.3
		c0.6,0,1.1,0.1,1.4,0.4c0.3,0.3,0.5,0.7,0.5,1.3c0,0.4-0.1,0.8-0.3,1.1c-0.2,0.3-0.5,0.7-1,1.2l-1.8,1.9h3.3V70.8z"/>
	<path fill="#79C2D0" d="M139.4,64.7c0.6-0.2,1.2-0.2,1.9-0.2s1.2,0.1,1.5,0.4c0.3,0.3,0.5,0.7,0.5,1.2c0,0.6-0.3,1.1-0.9,1.4
		l-0.1,0.1c0.4,0.1,0.7,0.3,0.9,0.5c0.2,0.2,0.3,0.6,0.3,1.1c0,0.6-0.2,1.1-0.5,1.4c-0.3,0.3-0.8,0.5-1.5,0.5
		c-0.6,0-1.2-0.1-1.8-0.2l-0.3-0.1l0.1-0.5c0.7,0.1,1.3,0.2,2,0.2c1,0,1.5-0.4,1.5-1.3c0-0.8-0.5-1.2-1.4-1.3h-1.3v-0.5h1.3
		c0.3,0,0.6-0.1,0.8-0.3c0.3-0.2,0.4-0.5,0.4-0.9c0-0.4-0.1-0.7-0.3-0.8c-0.2-0.2-0.6-0.3-1.1-0.3s-1,0.1-1.5,0.2l-0.2,0L139.4,64.7
		z"/>
	<path fill="#79C2D0" d="M144.1,65.8c0.2-0.5,0.4-0.8,0.7-1s0.7-0.3,1.1-0.3c0.4,0,0.8,0.1,1.1,0.2c0.3,0.1,0.5,0.3,0.7,0.5
		c0.4,0.5,0.6,1.3,0.6,2.6s-0.2,2.1-0.6,2.5c-0.4,0.5-0.9,0.7-1.7,0.7s-1.3-0.2-1.7-0.7c-0.4-0.5-0.6-1.3-0.6-2.4
		C143.8,67,143.9,66.3,144.1,65.8z M147,65.2c-0.2-0.2-0.5-0.2-0.9-0.2c-0.4,0-0.7,0.1-0.9,0.2c-0.5,0.3-0.7,1.2-0.7,2.6
		c0,1,0.1,1.7,0.4,2c0.3,0.4,0.7,0.6,1.2,0.6c0.4,0,0.7-0.1,0.9-0.2c0.5-0.3,0.7-1.1,0.7-2.4C147.7,66.4,147.5,65.5,147,65.2z"/>
	<path fill="#79C2D0" d="M148.9,70.8v-1h0.6v1H148.9z"/>
	<path fill="#79C2D0" d="M150.6,64.9c0.4-0.3,0.9-0.4,1.6-0.4c0.7,0,1.3,0.1,1.7,0.4c0.4,0.3,0.6,0.7,0.6,1.2c0,0.4-0.1,0.7-0.3,0.9
		c-0.2,0.2-0.5,0.4-0.9,0.6c0.4,0.2,0.7,0.3,0.9,0.6s0.3,0.6,0.3,1c0,1.2-0.8,1.8-2.4,1.8c-0.7,0-1.3-0.1-1.7-0.4
		c-0.4-0.3-0.6-0.7-0.6-1.3c0-0.5,0.1-0.8,0.3-1c0.2-0.2,0.5-0.5,0.9-0.6c-0.4-0.2-0.6-0.4-0.8-0.6c-0.2-0.2-0.3-0.5-0.3-0.9
		C150,65.5,150.2,65.1,150.6,64.9z M152.2,70.4c0.5,0,1-0.1,1.3-0.3c0.3-0.2,0.5-0.5,0.5-0.9s-0.1-0.7-0.3-0.9
		c-0.2-0.2-0.5-0.3-0.9-0.4h-1c-0.4,0.1-0.7,0.3-0.9,0.5c-0.2,0.2-0.3,0.5-0.3,0.9C150.5,70,151.1,70.4,152.2,70.4z M153.9,66.1
		c0-0.8-0.5-1.1-1.6-1.1c-1.1,0-1.6,0.4-1.6,1.1c0,0.3,0.1,0.6,0.3,0.7c0.2,0.2,0.4,0.3,0.8,0.5h1c0.4-0.1,0.7-0.3,0.9-0.4
		C153.8,66.7,153.9,66.4,153.9,66.1z"/>
	<path fill="#79C2D0" d="M155.1,70.3c0.6,0.1,1.1,0.1,1.7,0.1c1.2,0,1.8-0.8,1.8-2.3l-0.3,0.1c-0.6,0.2-1.1,0.3-1.5,0.3
		c-1.4,0-2-0.6-2-1.9c0-0.6,0.2-1.1,0.6-1.5c0.4-0.4,0.9-0.6,1.6-0.6c0.8,0,1.3,0.3,1.7,0.9c0.4,0.6,0.6,1.4,0.6,2.5
		c0,1.1-0.2,1.9-0.6,2.4c-0.4,0.5-1,0.7-1.8,0.7c-0.5,0-1,0-1.4-0.1l-0.2,0L155.1,70.3z M156.8,67.9c0.2,0,0.4,0,0.7-0.1
		s0.5-0.1,0.7-0.2l0.3-0.1c0-1.7-0.6-2.5-1.6-2.5c-0.5,0-0.9,0.1-1.1,0.4c-0.3,0.3-0.4,0.7-0.4,1.1
		C155.4,67.5,155.9,67.9,156.8,67.9z"/>
	<path fill="#79C2D0" d="M159.8,65.8c0.2-0.5,0.4-0.8,0.7-1c0.3-0.2,0.7-0.3,1.1-0.3c0.4,0,0.8,0.1,1.1,0.2c0.3,0.1,0.5,0.3,0.7,0.5
		c0.4,0.5,0.6,1.3,0.6,2.6s-0.2,2.1-0.6,2.5c-0.4,0.5-0.9,0.7-1.7,0.7s-1.3-0.2-1.7-0.7c-0.4-0.5-0.6-1.3-0.6-2.4
		C159.5,67,159.6,66.3,159.8,65.8z M162.7,65.2c-0.2-0.2-0.5-0.2-0.9-0.2c-0.4,0-0.7,0.1-0.9,0.2c-0.5,0.3-0.7,1.2-0.7,2.6
		c0,1,0.1,1.7,0.4,2c0.3,0.4,0.7,0.6,1.2,0.6c0.4,0,0.7-0.1,0.9-0.2c0.5-0.3,0.7-1.1,0.7-2.4C163.4,66.4,163.2,65.5,162.7,65.2z"/>
	<path fill="#79C2D0" d="M73.3,58.6V52h4v0.5h-3.4V55h2.8v0.5h-2.8v2.6h3.4v0.5H73.3z"/>
	<path fill="#79C2D0" d="M78,58.6V52h1.2l2.8,6.1h0.2V52h0.6v6.6h-1.1l-2.8-6.1h-0.2v6.1H78z"/>
	<path fill="#79C2D0" d="M83.2,58.6l1.9-6.6h1.4l1.9,6.6h-0.6l-0.5-1.8h-3l-0.5,1.8H83.2z M85.6,52.5l-1.1,3.8h2.7l-1.1-3.8H85.6z"
		/>
	<path fill="#79C2D0" d="M88.9,52h2.4c1.3,0,2,0.6,2,1.7c0,0.8-0.3,1.3-0.9,1.5c0.7,0.2,1.1,0.8,1.1,1.6c0,0.7-0.2,1.1-0.5,1.4
		c-0.3,0.3-0.8,0.4-1.5,0.4h-2.5V52z M91.2,52.5h-1.7V55h1.8c0.4,0,0.8-0.1,1-0.3c0.2-0.2,0.3-0.5,0.3-0.9c0-0.4-0.1-0.7-0.3-0.9
		C92.1,52.6,91.7,52.5,91.2,52.5z M91.3,55.5h-1.8v2.6h1.9c0.5,0,0.8-0.1,1.1-0.3c0.2-0.2,0.4-0.5,0.4-1
		C92.8,55.9,92.3,55.5,91.3,55.5z"/>
	<path fill="#79C2D0" d="M97.8,58.6h-3.6V52h0.6v6.1h3V58.6z"/>
	<path fill="#79C2D0" d="M98.2,58.6V52h4v0.5h-3.4V55h2.8v0.5h-2.8v2.6h3.4v0.5H98.2z"/>
	<path fill="#79C2D0" d="M72.6,34.7v-0.5h4.8v0.5h-2.1v6.1h-0.6v-6.1H72.6z"/>
	<path fill="#79C2D0" d="M78.3,38.2v2.6h-0.6v-6.6h2.4c0.7,0,1.2,0.2,1.5,0.5c0.3,0.3,0.5,0.8,0.5,1.5c0,1.1-0.4,1.7-1.3,1.9
		l1.4,2.7h-0.7l-1.3-2.6H78.3z M81.6,36.1c0-0.5-0.1-0.9-0.4-1.1c-0.2-0.2-0.6-0.4-1.1-0.4h-1.8v3h1.8
		C81.1,37.7,81.6,37.2,81.6,36.1z"/>
	<path fill="#79C2D0" d="M83.6,38.9c0,1,0.5,1.5,1.6,1.5c0.6,0,1-0.1,1.3-0.4s0.4-0.6,0.4-1.2v-4.7h0.6v4.7c0,0.7-0.2,1.2-0.6,1.6
		c-0.4,0.3-1,0.5-1.7,0.5c-0.7,0-1.3-0.2-1.7-0.5c-0.4-0.3-0.6-0.8-0.6-1.6v-4.7h0.6V38.9z"/>
	<path fill="#79C2D0" d="M88.6,40.8v-6.6h4v0.5h-3.4v2.5H92v0.5h-2.8v2.6h3.4v0.5H88.6z"/>
</g>
<g>
	<rect x="58" y="34.4" fill="#2A4449" width="1" height="6"/>
	<rect x="58" y="52.1" fill="#2A4449" width="1" height="6"/>
	<rect x="58" y="64.4" fill="#2A4449" width="1" height="6"/>
</g>
<path fill="#2A4449" d="M78.3,91.1v1c7.2,0,13.1,5.9,13.1,13.1c0,4.2-2,8-5.1,10.4l0.6,0.8c3.3-2.6,5.5-6.6,5.5-11.2
	C92.4,97.5,86.1,91.1,78.3,91.1z"/>
<path fill="#E2F2F5" d="M87.3,116.9c-2.6,2-5.7,3.1-9,3.1c-8.1,0-14.7-6.6-14.7-14.7c0-8.1,6.6-14.7,14.7-14.7v2.1
	c-7,0-12.6,5.7-12.6,12.6c0,7,5.7,12.6,12.6,12.6c2.8,0,5.5-0.9,7.8-2.7l0.3,0.4l0.6,0.8L87.3,116.9z"/>
<path fill="#79C2D0" d="M77,104.2v-2.3h0.4v2.3H77z"/>
<path fill="#79C2D0" d="M78.4,103.4v0.8H78v-2.3h0.9c0.5,0,0.8,0.2,0.8,0.7c0,0.3-0.1,0.5-0.4,0.7l0.4,0.9h-0.4l-0.3-0.8H78.4z
	 M79.3,102.7c0-0.3-0.1-0.4-0.4-0.4h-0.5v0.8h0.5c0.1,0,0.2,0,0.3-0.1C79.3,102.9,79.3,102.8,79.3,102.7z"/>
<path fill="#2A4449" d="M47.1,91.1c-3.2,0-6.2,1.1-8.5,2.9l0.6,0.8c2.2-1.7,4.9-2.7,7.9-2.7c7.2,0,13.1,5.9,13.1,13.1
	c0,7.3-5.9,13.1-13.1,13.1v1c7.8,0,14.2-6.4,14.2-14.2C61.3,97.5,54.9,91.1,47.1,91.1z"/>
<path fill="#E2F2F5" d="M47.1,117.9v2.1c-8.1,0-14.7-6.6-14.7-14.7c0-4.6,2.1-8.9,5.8-11.7l0.3,0.4l0.6,0.8l0.3,0.4
	c-3.2,2.4-5,6.1-5,10.1C34.5,112.3,40.2,117.9,47.1,117.9z"/>
<path fill="#79C2D0" d="M44,104.2v-2.3h1.5v0.3h-1.1v0.7h0.9v0.3h-0.9v0.7h1.1v0.3H44z"/>
<path fill="#79C2D0" d="M46,104.2v-2.3h0.6l0.5,1.8l0.5-1.8h0.7v2.3H48v-1.9h-0.1l-0.5,1.8H47l-0.5-1.8h-0.1v1.9H46z"/>
<path fill="#79C2D0" d="M49.1,104.2v-2.3h1.4v0.3h-1.1v0.8h0.9v0.3h-0.9v0.9H49.1z"/>
<path fill="#79C2D0" d="M74.4,106.7c0.2,0,0.3,0,0.4,0.1c0.2,0.1,0.4,0.5,0.4,1.1c0,0.4-0.1,0.7-0.2,0.9c-0.1,0.2-0.3,0.3-0.6,0.3
	s-0.5-0.1-0.6-0.2c-0.1-0.2-0.2-0.5-0.2-0.9c0-0.4,0.1-0.7,0.2-0.9C73.9,106.8,74.1,106.7,74.4,106.7z M74.4,107
	c-0.1,0-0.2,0-0.3,0.1c-0.2,0.1-0.2,0.4-0.2,0.9c0,0.3,0,0.6,0.1,0.7s0.2,0.2,0.4,0.2c0.2,0,0.3-0.1,0.4-0.2
	c0.1-0.1,0.1-0.4,0.1-0.7c0-0.3,0-0.6-0.1-0.7C74.7,107,74.6,107,74.4,107z"/>
<path fill="#79C2D0" d="M75.8,107v-0.2h1.4v0.3l-0.9,1.9l-0.2-0.1l0.8-1.9V107H75.8z"/>
<path fill="#79C2D0" d="M79.2,107c-0.2,0-0.4,0-0.6,0c-0.2,0-0.3,0.1-0.4,0.2c-0.1,0.1-0.2,0.3-0.2,0.6l0.1,0c0.1,0,0.1,0,0.2-0.1
	c0.1,0,0.2,0,0.2,0c0.5,0,0.7,0.2,0.7,0.7c0,0.2-0.1,0.4-0.2,0.5c-0.1,0.1-0.3,0.2-0.6,0.2c-0.5,0-0.8-0.4-0.8-1.2
	c0-0.4,0.1-0.7,0.2-0.9c0.2-0.2,0.4-0.3,0.6-0.3c0.2,0,0.4,0,0.5,0l0.1,0L79.2,107z M78.5,107.8c-0.1,0-0.2,0-0.3,0
	c-0.1,0-0.2,0-0.2,0.1l-0.1,0c0,0.3,0,0.5,0.1,0.6c0.1,0.2,0.2,0.2,0.4,0.2s0.3,0,0.4-0.1c0.1-0.1,0.1-0.2,0.1-0.4
	c0-0.2,0-0.3-0.1-0.4C78.8,107.9,78.7,107.8,78.5,107.8z"/>
<path fill="#79C2D0" d="M79.8,108.2v-0.2h1v0.2H79.8z"/>
<path fill="#79C2D0" d="M82.8,106.8v0.2h-1.1l-0.1,0.7c0.2-0.1,0.3-0.1,0.5-0.1c0.5,0,0.7,0.2,0.7,0.7c0,0.3-0.1,0.4-0.2,0.6
	c-0.1,0.1-0.3,0.2-0.5,0.2c-0.2,0-0.4,0-0.6-0.1l-0.1,0l0-0.2c0.3,0,0.5,0.1,0.7,0.1c0.2,0,0.3,0,0.4-0.1c0.1-0.1,0.1-0.2,0.1-0.4
	c0-0.2,0-0.3-0.1-0.3c-0.1-0.1-0.2-0.1-0.3-0.1c-0.1,0-0.2,0-0.3,0c-0.1,0-0.2,0-0.2,0.1l-0.1,0l-0.2,0l0.1-1.2H82.8z"/>
<path fill="#79C2D0" d="M43.9,107c-0.2,0-0.4,0-0.6,0c-0.2,0-0.3,0.1-0.4,0.2c-0.1,0.1-0.2,0.3-0.2,0.6l0.1,0c0.1,0,0.1,0,0.2-0.1
	c0.1,0,0.2,0,0.2,0c0.5,0,0.7,0.2,0.7,0.7c0,0.2-0.1,0.4-0.2,0.5c-0.1,0.1-0.3,0.2-0.6,0.2c-0.5,0-0.8-0.4-0.8-1.2
	c0-0.4,0.1-0.7,0.2-0.9s0.4-0.3,0.6-0.3c0.2,0,0.4,0,0.5,0l0.1,0L43.9,107z M43.3,107.8c-0.1,0-0.2,0-0.3,0c-0.1,0-0.2,0-0.2,0.1
	l-0.1,0c0,0.3,0,0.5,0.1,0.6c0.1,0.2,0.2,0.2,0.4,0.2s0.3,0,0.4-0.1c0.1-0.1,0.1-0.2,0.1-0.4c0-0.2,0-0.3-0.1-0.4
	C43.6,107.9,43.4,107.8,43.3,107.8z"/>
<path fill="#79C2D0" d="M46,109h-1.4v-0.2l0.6-0.7c0.1-0.1,0.2-0.2,0.2-0.3c0.1-0.1,0.1-0.1,0.1-0.2c0-0.1,0.1-0.2,0.1-0.2
	c0-0.1,0-0.2-0.1-0.3c-0.1-0.1-0.2-0.1-0.4-0.1c-0.1,0-0.3,0-0.5,0.1l-0.1,0l0-0.2c0.2-0.1,0.4-0.1,0.7-0.1c0.2,0,0.4,0,0.5,0.1
	c0.1,0.1,0.2,0.2,0.2,0.5c0,0.2,0,0.3-0.1,0.4c-0.1,0.1-0.2,0.3-0.4,0.4l-0.6,0.6H46V109z"/>
<path fill="#79C2D0" d="M47.7,106.8v2.2h-0.3v-1.9l-0.6,0.4l-0.1-0.2l0.7-0.5H47.7z"/>
<path fill="#79C2D0" d="M48.7,108.2v-0.2h1v0.2H48.7z"/>
<path fill="#79C2D0" d="M51.3,109v-0.4h-1.1v-0.2l0.6-1.6h0.3l-0.6,1.6h0.8v-0.7h0.3v0.7h0.3v0.2h-0.3v0.4H51.3z"/>
<rect x="105.5" y="95.5" fill="#E2F2F5" width="1" height="19.6"/>
<path fill="#2A4449" d="M14.7,90.5c-7.8,0-14.2,6.4-14.2,14.2h1c0-7.3,5.9-13.1,13.1-13.1c7.2,0,13.1,5.9,13.1,13.1
	c0,7.2-5.9,13.1-13.1,13.1v1c7.8,0,14.2-6.4,14.2-14.2C28.9,96.8,22.5,90.5,14.7,90.5z"/>
<path fill="#E2F2F5" d="M14.7,117.3v2.1c-8.1,0-14.7-6.6-14.7-14.7h2.1C2.1,111.6,7.7,117.3,14.7,117.3z"/>
<path fill="#79C2D0" d="M11.6,103.6v-2.3h0.7l0.7,2H13v-2h0.4v2.3h-0.6l-0.7-2h0v2H11.6z"/>
<path fill="#79C2D0" d="M14.5,102.7v0.8h-0.4v-2.3H15c0.5,0,0.8,0.2,0.8,0.7c0,0.3-0.1,0.5-0.4,0.7l0.4,0.9h-0.4l-0.3-0.8H14.5z
	 M15.4,102c0-0.3-0.1-0.4-0.4-0.4h-0.5v0.8H15c0.1,0,0.2,0,0.3-0.1C15.3,102.2,15.4,102.1,15.4,102z"/>
<path fill="#79C2D0" d="M17.3,102.7v-0.3h0.7v1.2c-0.1,0-0.2,0-0.4,0.1c-0.2,0-0.3,0-0.4,0c-0.3,0-0.6-0.1-0.7-0.3
	c-0.1-0.2-0.2-0.5-0.2-0.9c0-0.4,0.1-0.7,0.2-0.9c0.1-0.2,0.4-0.3,0.7-0.3c0.2,0,0.4,0,0.7,0.1l0.1,0l0,0.3c-0.3,0-0.5-0.1-0.7-0.1
	s-0.4,0.1-0.4,0.2c-0.1,0.1-0.1,0.3-0.1,0.7c0,0.3,0,0.6,0.1,0.7c0.1,0.1,0.2,0.2,0.5,0.2c0.2,0,0.3,0,0.4,0v-0.6H17.3z"/>
<path fill="#79C2D0" d="M9.1,106.2c0.2-0.1,0.4-0.1,0.7-0.1c0.2,0,0.4,0,0.5,0.1c0.1,0.1,0.2,0.2,0.2,0.4c0,0.1,0,0.2,0,0.2
	c0,0-0.1,0.1-0.1,0.1c0,0,0,0-0.1,0.1c0,0-0.1,0.1-0.1,0.1l0,0c0.1,0,0.2,0.1,0.3,0.2s0.1,0.2,0.1,0.4c0,0.2-0.1,0.4-0.2,0.5
	c-0.1,0.1-0.3,0.2-0.5,0.2c-0.2,0-0.4,0-0.6-0.1l-0.1,0l0-0.2c0.2,0,0.5,0.1,0.7,0.1c0.3,0,0.5-0.1,0.5-0.4c0-0.3-0.2-0.4-0.5-0.4
	H9.4v-0.2h0.4c0.1,0,0.2,0,0.3-0.1c0.1-0.1,0.1-0.2,0.1-0.3s0-0.2-0.1-0.3c-0.1-0.1-0.2-0.1-0.4-0.1c-0.2,0-0.4,0-0.5,0l-0.1,0
	L9.1,106.2z"/>
<path fill="#79C2D0" d="M11.9,106.1c0.2,0,0.3,0,0.4,0.1c0.2,0.1,0.4,0.5,0.4,1.1c0,0.4-0.1,0.7-0.2,0.9c-0.1,0.2-0.3,0.3-0.6,0.3
	s-0.5-0.1-0.6-0.2c-0.1-0.2-0.2-0.5-0.2-0.9c0-0.4,0.1-0.7,0.2-0.9C11.4,106.2,11.6,106.1,11.9,106.1z M11.9,106.3
	c-0.1,0-0.2,0-0.3,0.1c-0.2,0.1-0.2,0.4-0.2,0.9c0,0.3,0,0.6,0.1,0.7c0.1,0.1,0.2,0.2,0.4,0.2s0.3-0.1,0.4-0.2
	c0.1-0.1,0.1-0.4,0.1-0.7c0-0.3,0-0.6-0.1-0.7C12.2,106.4,12.1,106.3,11.9,106.3z"/>
<path fill="#79C2D0" d="M13.2,106.2c0.2-0.1,0.4-0.1,0.7-0.1s0.4,0,0.5,0.1c0.1,0.1,0.2,0.2,0.2,0.4c0,0.1,0,0.2,0,0.2
	c0,0-0.1,0.1-0.1,0.1c0,0,0,0-0.1,0.1c0,0-0.1,0.1-0.1,0.1l0,0c0.1,0,0.2,0.1,0.3,0.2s0.1,0.2,0.1,0.4c0,0.2-0.1,0.4-0.2,0.5
	c-0.1,0.1-0.3,0.2-0.5,0.2c-0.2,0-0.4,0-0.6-0.1l-0.1,0l0-0.2c0.2,0,0.5,0.1,0.7,0.1c0.3,0,0.5-0.1,0.5-0.4c0-0.3-0.2-0.4-0.5-0.4
	h-0.4v-0.2h0.4c0.1,0,0.2,0,0.3-0.1c0.1-0.1,0.1-0.2,0.1-0.3s0-0.2-0.1-0.3c-0.1-0.1-0.2-0.1-0.4-0.1c-0.2,0-0.4,0-0.5,0l-0.1,0
	L13.2,106.2z"/>
<path fill="#79C2D0" d="M15.3,107.5v-0.2h1v0.2H15.3z"/>
<path fill="#79C2D0" d="M17,106.2c0.1-0.1,0.3-0.1,0.6-0.1c0.2,0,0.4,0,0.6,0.1c0.1,0.1,0.2,0.2,0.2,0.4c0,0.1,0,0.2-0.1,0.3
	c-0.1,0.1-0.2,0.1-0.3,0.2c0.1,0.1,0.2,0.1,0.3,0.2c0.1,0.1,0.1,0.2,0.1,0.3c0,0.4-0.3,0.6-0.8,0.6c-0.6,0-0.8-0.2-0.8-0.6
	c0-0.2,0-0.3,0.1-0.4c0.1-0.1,0.2-0.2,0.3-0.2c-0.1-0.1-0.2-0.1-0.3-0.2c-0.1-0.1-0.1-0.2-0.1-0.3C16.8,106.5,16.9,106.3,17,106.2z
	 M17,107.7c0,0.3,0.2,0.4,0.6,0.4c0.4,0,0.6-0.1,0.6-0.4c0-0.1,0-0.2-0.1-0.3c-0.1-0.1-0.2-0.1-0.3-0.1h-0.4c-0.1,0-0.2,0.1-0.3,0.1
	C17.1,107.5,17,107.6,17,107.7z M18.1,106.7c0-0.2-0.2-0.4-0.5-0.4c-0.3,0-0.5,0.1-0.5,0.4c0,0.1,0,0.2,0.1,0.2
	c0.1,0.1,0.1,0.1,0.2,0.2h0.4c0.1,0,0.2-0.1,0.3-0.1S18.1,106.8,18.1,106.7z"/>
<path fill="#79C2D0" d="M19.5,108.1c0.4,0,0.6-0.3,0.6-0.8c-0.2,0.1-0.4,0.1-0.6,0.1c-0.5,0-0.7-0.2-0.7-0.7c0-0.2,0.1-0.4,0.2-0.5
	c0.1-0.1,0.3-0.2,0.6-0.2c0.3,0,0.5,0.1,0.6,0.3c0.1,0.2,0.2,0.5,0.2,0.9s-0.1,0.7-0.2,0.8c-0.1,0.2-0.4,0.3-0.7,0.3
	c-0.2,0-0.3,0-0.5,0l-0.1,0l0-0.2C19.2,108.1,19.4,108.1,19.5,108.1z M19.6,107.3c0.1,0,0.3,0,0.5-0.1l0.1,0c0-0.6-0.2-0.8-0.5-0.8
	c-0.2,0-0.3,0-0.4,0.1c-0.1,0.1-0.1,0.2-0.1,0.4C19.1,107.1,19.3,107.3,19.6,107.3z"/>
<path fill="#79C2D0" d="M124.1,98.6c0.3,0,0.5,0.1,0.7,0.2c0.4,0.2,0.6,0.8,0.6,1.7c0,0.6-0.1,1.1-0.3,1.4c-0.2,0.3-0.5,0.4-1,0.4
	c-0.4,0-0.7-0.1-1-0.4c-0.2-0.3-0.3-0.7-0.3-1.4c0-0.7,0.1-1.1,0.3-1.4C123.3,98.7,123.7,98.6,124.1,98.6z M124.1,99
	c-0.2,0-0.4,0-0.5,0.1c-0.3,0.2-0.4,0.6-0.4,1.4c0,0.5,0.1,0.9,0.2,1.1c0.1,0.2,0.4,0.3,0.7,0.3c0.3,0,0.5-0.1,0.7-0.3
	c0.1-0.2,0.2-0.6,0.2-1.1s-0.1-0.9-0.2-1.1C124.6,99.1,124.4,99,124.1,99z"/>
<path fill="#79C2D0" d="M124.1,108.7c0.3,0,0.5,0.1,0.7,0.2c0.4,0.2,0.6,0.8,0.6,1.7c0,0.6-0.1,1.1-0.3,1.4c-0.2,0.3-0.5,0.4-1,0.4
	c-0.4,0-0.7-0.1-1-0.4c-0.2-0.3-0.3-0.7-0.3-1.4c0-0.7,0.1-1.1,0.3-1.4C123.3,108.8,123.7,108.7,124.1,108.7z M124.1,109
	c-0.2,0-0.4,0-0.5,0.1c-0.3,0.2-0.4,0.6-0.4,1.4c0,0.5,0.1,0.9,0.2,1.1c0.1,0.2,0.4,0.3,0.7,0.3c0.3,0,0.5-0.1,0.7-0.3
	c0.1-0.2,0.2-0.6,0.2-1.1s-0.1-0.9-0.2-1.1C124.6,109.2,124.4,109,124.1,109z"/>
<path fill="#79C2D0" d="M145.3,112.3H144v-3.7h1.3c0.6,0,1,0.2,1.2,0.7c0.1,0.3,0.2,0.6,0.2,1.1c0,0.9-0.2,1.5-0.7,1.8
	C145.8,112.2,145.6,112.3,145.3,112.3z M146.3,110.4c0-0.7-0.2-1.2-0.5-1.3c-0.1-0.1-0.3-0.1-0.5-0.1h-0.9v3h0.9
	C145.9,111.9,146.3,111.4,146.3,110.4z"/>
<circle fill="#79C2D0" cx="134.4" cy="100.7" r="0.5"/>
<path fill="#79C2D0" d="M143.8,102.2l1-3.7h0.9l1,3.7h-0.4l-0.3-1h-1.6l-0.3,1H143.8z M145.2,98.8l-0.6,2h1.4l-0.6-2H145.2z"/>
<circle fill="#79C2D0" cx="134.4" cy="110.4" r="0.5"/>
</svg>
