<?xml version="1.0" encoding="utf-8"?>
<!-- Generator: Adobe Illustrator 27.2.0, SVG Export Plug-In . SVG Version: 6.00 Build 0)  -->
<svg version="1.1" baseProfile="tiny" id="Layer_1" xmlns="http://www.w3.org/2000/svg" xmlns:xlink="http://www.w3.org/1999/xlink"
	 x="0px" y="0px" viewBox="0 0 483.6 6" overflow="visible" xml:space="preserve">
<g>
	<path fill="#E2F3F6" d="M2.1,0C2.6,0,3,0.1,3.3,0.3c0.6,0.4,0.9,1.3,0.9,2.8c0,1.1-0.2,1.8-0.5,2.2C3.3,5.8,2.8,6,2.1,6
		C1.4,6,0.9,5.8,0.5,5.3C0.2,4.9,0,4.1,0,3c0-1.1,0.2-1.9,0.5-2.3C0.9,0.2,1.4,0,2.1,0z M2.1,0.6c-0.3,0-0.6,0.1-0.8,0.2
		c-0.4,0.3-0.6,1-0.6,2.3C0.7,4,0.8,4.5,1,4.9c0.2,0.3,0.6,0.5,1.1,0.5c0.5,0,0.8-0.2,1.1-0.5C3.4,4.5,3.5,3.9,3.5,3
		c0-0.9-0.1-1.5-0.3-1.9S2.6,0.6,2.1,0.6z"/>
	<path fill="#E2F3F6" d="M8.5,0.1v5.8H7.8v-5l-1.5,1L6,1.3l1.8-1.2H8.5z"/>
</g>
<g>
	<path fill="#E2F3F6" d="M54.4,0c0.5,0,0.9,0.1,1.2,0.3c0.6,0.4,0.9,1.3,0.9,2.8c0,1.1-0.2,1.8-0.5,2.2C55.6,5.8,55.1,6,54.4,6
		c-0.7,0-1.2-0.2-1.6-0.6c-0.4-0.4-0.5-1.2-0.5-2.3c0-1.1,0.2-1.9,0.5-2.3C53.2,0.2,53.7,0,54.4,0z M54.4,0.6
		c-0.3,0-0.6,0.1-0.8,0.2c-0.4,0.3-0.6,1-0.6,2.3c0,0.9,0.1,1.5,0.3,1.8c0.2,0.3,0.6,0.5,1.1,0.5c0.5,0,0.8-0.2,1.1-0.5
		c0.2-0.3,0.3-0.9,0.3-1.9c0-0.9-0.1-1.5-0.3-1.9S54.9,0.6,54.4,0.6z"/>
	<path fill="#E2F3F6" d="M61.7,5.9H58V5.3l1.7-1.8C60,3.2,60.2,3,60.3,2.8c0.1-0.2,0.3-0.3,0.4-0.6c0.1-0.2,0.2-0.4,0.2-0.6
		c0-0.4-0.1-0.6-0.3-0.8c-0.2-0.2-0.5-0.2-1-0.2c-0.4,0-0.8,0-1.3,0.1l-0.2,0L58,0.2C58.6,0.1,59.2,0,59.8,0c0.6,0,1,0.1,1.3,0.4
		c0.3,0.2,0.5,0.6,0.5,1.2c0,0.4-0.1,0.8-0.3,1.1c-0.2,0.3-0.5,0.7-0.9,1.1l-1.5,1.6h2.9V5.9z"/>
</g>
<g>
	<path fill="#E2F3F6" d="M107.1,0c0.5,0,0.9,0.1,1.2,0.3c0.6,0.4,0.9,1.3,0.9,2.8c0,1.1-0.2,1.8-0.5,2.2c-0.4,0.4-0.9,0.7-1.6,0.7
		c-0.7,0-1.2-0.2-1.6-0.6C105.2,4.9,105,4.1,105,3c0-1.1,0.2-1.9,0.5-2.3C105.9,0.2,106.4,0,107.1,0z M107.1,0.6
		c-0.3,0-0.6,0.1-0.8,0.2c-0.4,0.3-0.6,1-0.6,2.3c0,0.9,0.1,1.5,0.3,1.8c0.2,0.3,0.6,0.5,1.1,0.5c0.5,0,0.8-0.2,1.1-0.5
		c0.2-0.3,0.3-0.9,0.3-1.9c0-0.9-0.1-1.5-0.3-1.9S107.7,0.6,107.1,0.6z"/>
	<path fill="#E2F3F6" d="M110.8,0.2c0.6-0.2,1.1-0.2,1.8-0.2c0.6,0,1.1,0.1,1.4,0.4c0.3,0.2,0.4,0.6,0.4,1.1c0,0.3,0,0.5-0.1,0.6
		c-0.1,0.1-0.1,0.2-0.2,0.3c0,0.1-0.1,0.1-0.2,0.2c-0.1,0.1-0.2,0.2-0.3,0.2l-0.1,0.1c0.3,0.1,0.6,0.3,0.8,0.5
		c0.2,0.2,0.2,0.5,0.2,0.9c0,0.6-0.2,1-0.5,1.3c-0.3,0.3-0.8,0.4-1.4,0.4c-0.5,0-1.1-0.1-1.6-0.2l-0.3-0.1l0.1-0.6
		c0.6,0.1,1.2,0.2,1.8,0.2c0.8,0,1.3-0.4,1.3-1.1c0-0.7-0.4-1.1-1.2-1.1h-1.2V2.6h1.2c0.2,0,0.5-0.1,0.7-0.3
		c0.2-0.2,0.3-0.5,0.3-0.8s-0.1-0.6-0.3-0.7c-0.2-0.1-0.5-0.2-0.9-0.2c-0.5,0-0.9,0-1.4,0.1l-0.2,0L110.8,0.2z"/>
</g>
<g>
	<path fill="#E2F3F6" d="M159.7,0c0.5,0,0.9,0.1,1.2,0.3c0.6,0.4,0.9,1.3,0.9,2.8c0,1.1-0.2,1.8-0.5,2.2c-0.4,0.4-0.9,0.7-1.6,0.7
		c-0.7,0-1.2-0.2-1.6-0.6c-0.4-0.4-0.5-1.2-0.5-2.3c0-1.1,0.2-1.9,0.5-2.3C158.4,0.2,159,0,159.7,0z M159.7,0.6
		c-0.3,0-0.6,0.1-0.8,0.2c-0.4,0.3-0.6,1-0.6,2.3c0,0.9,0.1,1.5,0.3,1.8c0.2,0.3,0.6,0.5,1.1,0.5c0.5,0,0.8-0.2,1.1-0.5
		c0.2-0.3,0.3-0.9,0.3-1.9c0-0.9-0.1-1.5-0.3-1.9C160.5,0.8,160.2,0.6,159.7,0.6z"/>
	<path fill="#E2F3F6" d="M166.1,5.9V4.8h-2.8V4.2l1.6-4.1h0.7L164,4.2h2.1V2.4h0.7v1.8h0.7v0.6h-0.7v1.1H166.1z"/>
</g>
<g>
	<path fill="#E2F3F6" d="M212.6,0c0.5,0,0.9,0.1,1.2,0.3c0.6,0.4,0.9,1.3,0.9,2.8c0,1.1-0.2,1.8-0.5,2.2c-0.4,0.4-0.9,0.7-1.6,0.7
		c-0.7,0-1.2-0.2-1.6-0.6c-0.4-0.4-0.5-1.2-0.5-2.3c0-1.1,0.2-1.9,0.5-2.3C211.3,0.2,211.9,0,212.6,0z M212.6,0.6
		c-0.3,0-0.6,0.1-0.8,0.2c-0.4,0.3-0.6,1-0.6,2.3c0,0.9,0.1,1.5,0.3,1.8c0.2,0.3,0.6,0.5,1.1,0.5c0.5,0,0.8-0.2,1.1-0.5
		c0.2-0.3,0.3-0.9,0.3-1.9c0-0.9-0.1-1.5-0.3-1.9C213.4,0.8,213.1,0.6,212.6,0.6z"/>
	<path fill="#E2F3F6" d="M219.9,0.1v0.6h-2.8l-0.2,1.9c0.5-0.2,0.9-0.4,1.4-0.4c1.2,0,1.8,0.6,1.8,1.7c0,0.7-0.2,1.2-0.5,1.5
		c-0.3,0.3-0.8,0.5-1.4,0.5c-0.5,0-1-0.1-1.6-0.2l-0.3-0.1l0.1-0.5c0.7,0.1,1.2,0.2,1.7,0.2c0.5,0,0.8-0.1,1-0.4
		c0.2-0.2,0.4-0.6,0.4-1c0-0.4-0.1-0.7-0.3-0.9c-0.2-0.2-0.5-0.3-0.9-0.3c-0.2,0-0.4,0-0.7,0.1C217.3,3,217.1,3,217,3.1l-0.2,0.1
		l-0.5-0.1l0.2-3H219.9z"/>
</g>
<g>
	<path fill="#E2F3F6" d="M265.2,0c0.5,0,0.9,0.1,1.2,0.3c0.6,0.4,0.9,1.3,0.9,2.8c0,1.1-0.2,1.8-0.5,2.2c-0.4,0.4-0.9,0.7-1.6,0.7
		c-0.7,0-1.2-0.2-1.6-0.6c-0.4-0.4-0.5-1.2-0.5-2.3c0-1.1,0.2-1.9,0.5-2.3C264,0.2,264.5,0,265.2,0z M265.2,0.6
		c-0.3,0-0.6,0.1-0.8,0.2c-0.4,0.3-0.6,1-0.6,2.3c0,0.9,0.1,1.5,0.3,1.8c0.2,0.3,0.6,0.5,1.1,0.5c0.5,0,0.8-0.2,1.1-0.5
		c0.2-0.3,0.3-0.9,0.3-1.9c0-0.9-0.1-1.5-0.3-1.9C266.1,0.8,265.7,0.6,265.2,0.6z"/>
	<path fill="#E2F3F6" d="M272.7,0.7c-0.5-0.1-1-0.1-1.5-0.1c-0.5,0-0.9,0.2-1.1,0.5c-0.3,0.3-0.4,0.8-0.4,1.5l0.2-0.1
		c0.1-0.1,0.3-0.1,0.6-0.2c0.2-0.1,0.5-0.1,0.6-0.1c1.3,0,1.9,0.6,1.9,1.8c0,0.6-0.2,1.1-0.5,1.4C272.1,5.8,271.6,6,271,6
		c-1.4,0-2.1-1-2.1-3c0-1,0.2-1.8,0.6-2.2s1-0.7,1.7-0.7c0.5,0,0.9,0,1.3,0.1l0.2,0L272.7,0.7z M271,2.9c-0.2,0-0.4,0-0.7,0.1
		c-0.2,0.1-0.4,0.1-0.6,0.2l-0.2,0.1c0,0.7,0.1,1.2,0.3,1.6c0.2,0.4,0.6,0.6,1,0.6c0.5,0,0.8-0.1,1-0.3c0.2-0.2,0.3-0.5,0.3-1
		s-0.1-0.7-0.3-0.9C271.7,3,271.4,2.9,271,2.9z"/>
</g>
<g>
	<path fill="#E2F3F6" d="M318.3,0c0.5,0,0.9,0.1,1.2,0.3c0.6,0.4,0.9,1.3,0.9,2.8c0,1.1-0.2,1.8-0.5,2.2C319.5,5.8,319,6,318.3,6
		c-0.7,0-1.2-0.2-1.6-0.6c-0.4-0.4-0.5-1.2-0.5-2.3c0-1.1,0.2-1.9,0.5-2.3C317,0.2,317.6,0,318.3,0z M318.3,0.6
		c-0.3,0-0.6,0.1-0.8,0.2c-0.4,0.3-0.6,1-0.6,2.3c0,0.9,0.1,1.5,0.3,1.8c0.2,0.3,0.6,0.5,1.1,0.5c0.5,0,0.8-0.2,1.1-0.5
		c0.2-0.3,0.3-0.9,0.3-1.9c0-0.9-0.1-1.5-0.3-1.9C319.1,0.8,318.8,0.6,318.3,0.6z"/>
	<path fill="#E2F3F6" d="M321.9,0.7V0.1h3.6V1l-2.2,5l-0.6-0.2l2.2-4.8V0.7H321.9z"/>
</g>
<g>
	<path fill="#E2F3F6" d="M370.7,0c0.5,0,0.9,0.1,1.2,0.3c0.6,0.4,0.9,1.3,0.9,2.8c0,1.1-0.2,1.8-0.5,2.2c-0.4,0.4-0.9,0.7-1.6,0.7
		c-0.7,0-1.2-0.2-1.6-0.6c-0.4-0.4-0.5-1.2-0.5-2.3c0-1.1,0.2-1.9,0.5-2.3C369.5,0.2,370,0,370.7,0z M370.7,0.6
		c-0.3,0-0.6,0.1-0.8,0.2c-0.4,0.3-0.6,1-0.6,2.3c0,0.9,0.1,1.5,0.3,1.8c0.2,0.3,0.6,0.5,1.1,0.5c0.5,0,0.8-0.2,1.1-0.5
		c0.2-0.3,0.3-0.9,0.3-1.9c0-0.9-0.1-1.5-0.3-1.9S371.2,0.6,370.7,0.6z"/>
	<path fill="#E2F3F6" d="M374.9,0.4c0.4-0.3,0.9-0.4,1.5-0.4c0.6,0,1.2,0.1,1.5,0.4c0.4,0.3,0.6,0.6,0.6,1.1c0,0.4-0.1,0.6-0.2,0.8
		c-0.1,0.2-0.4,0.4-0.7,0.5c0.4,0.2,0.6,0.3,0.8,0.6c0.2,0.2,0.3,0.5,0.3,0.9c0,1.1-0.7,1.7-2.2,1.7c-1.4,0-2.2-0.5-2.2-1.6
		c0-0.4,0.1-0.7,0.2-0.9c0.2-0.2,0.4-0.4,0.8-0.6c-0.3-0.2-0.5-0.3-0.7-0.5s-0.2-0.5-0.2-0.8C374.4,1,374.5,0.6,374.9,0.4z M375,4.3
		c0,0.7,0.5,1.1,1.5,1.1c1,0,1.5-0.4,1.5-1.1c0-0.3-0.1-0.5-0.3-0.7c-0.2-0.1-0.4-0.3-0.8-0.4h-0.9c-0.3,0.1-0.6,0.2-0.7,0.4
		C375.1,3.7,375,4,375,4.3z M377.8,1.6c0-0.7-0.5-1-1.4-1c-0.9,0-1.4,0.3-1.4,1c0,0.3,0.1,0.5,0.2,0.6c0.1,0.2,0.4,0.3,0.6,0.4h0.9
		c0.3-0.1,0.6-0.2,0.7-0.4C377.7,2.1,377.8,1.8,377.8,1.6z"/>
</g>
<g>
	<path fill="#E2F3F6" d="M423.5,0c0.5,0,0.9,0.1,1.2,0.3c0.6,0.4,0.9,1.3,0.9,2.8c0,1.1-0.2,1.8-0.5,2.2c-0.4,0.4-0.9,0.7-1.6,0.7
		c-0.7,0-1.2-0.2-1.6-0.6c-0.4-0.4-0.5-1.2-0.5-2.3c0-1.1,0.2-1.9,0.5-2.3C422.3,0.2,422.8,0,423.5,0z M423.6,0.6
		c-0.3,0-0.6,0.1-0.8,0.2c-0.4,0.3-0.6,1-0.6,2.3c0,0.9,0.1,1.5,0.3,1.8c0.2,0.3,0.6,0.5,1.1,0.5c0.5,0,0.8-0.2,1.1-0.5
		c0.2-0.3,0.3-0.9,0.3-1.9c0-0.9-0.1-1.5-0.3-1.9S424.1,0.6,423.6,0.6z"/>
	<path fill="#E2F3F6" d="M429,5.4c1.1,0,1.6-0.7,1.6-2c-0.6,0.2-1.1,0.3-1.5,0.3c-1.3,0-1.9-0.6-1.9-1.8c0-0.6,0.2-1.1,0.5-1.4
		c0.4-0.3,0.9-0.5,1.5-0.5c0.7,0,1.2,0.3,1.6,0.8c0.3,0.5,0.5,1.3,0.5,2.3s-0.2,1.7-0.6,2.2c-0.4,0.5-1,0.7-1.7,0.7
		c-0.4,0-0.9,0-1.4-0.1l-0.2,0l0.1-0.5C428,5.3,428.5,5.4,429,5.4z M429.1,3.1c0.4,0,0.8-0.1,1.2-0.2l0.2-0.1c0-1.4-0.5-2.2-1.4-2.2
		c-0.4,0-0.7,0.1-1,0.4c-0.2,0.2-0.3,0.6-0.3,1C427.9,2.7,428.3,3.1,429.1,3.1z"/>
</g>
<g>
	<path fill="#E2F3F6" d="M477.1,0.1v5.8h-0.7v-5l-1.5,1l-0.3-0.5l1.8-1.2H477.1z"/>
	<path fill="#E2F3F6" d="M481.5,0c0.5,0,0.9,0.1,1.2,0.3c0.6,0.4,0.9,1.3,0.9,2.8c0,1.1-0.2,1.8-0.5,2.2c-0.4,0.4-0.9,0.7-1.6,0.7
		c-0.7,0-1.2-0.2-1.6-0.6c-0.4-0.4-0.5-1.2-0.5-2.3c0-1.1,0.2-1.9,0.5-2.3C480.3,0.2,480.8,0,481.5,0z M481.5,0.6
		c-0.3,0-0.6,0.1-0.8,0.2c-0.4,0.3-0.6,1-0.6,2.3c0,0.9,0.1,1.5,0.3,1.8c0.2,0.3,0.6,0.5,1.1,0.5c0.5,0,0.8-0.2,1.1-0.5
		c0.2-0.3,0.3-0.9,0.3-1.9c0-0.9-0.1-1.5-0.3-1.9C482.4,0.8,482,0.6,481.5,0.6z"/>
</g>
</svg>
