<?xml version="1.0" encoding="utf-8"?>
<!-- Generator: Adobe Illustrator 27.2.0, SVG Export Plug-In . SVG Version: 6.00 Build 0)  -->
<svg version="1.1" baseProfile="tiny" id="Layer_1" xmlns="http://www.w3.org/2000/svg" xmlns:xlink="http://www.w3.org/1999/xlink"
	 x="0px" y="0px" viewBox="0 0 68 104" overflow="visible" xml:space="preserve">
<g>
	<g>
		
			<rect id="Bar_BG_00000059275991624299709110000003613374975664863158_" x="7.7" y="21.1" fill="#17272A" width="52.6" height="82.9"/>
		
			<rect id="Bar_BG_Over_00000030476976077494119310000001877429884261126530_" x="7.7" y="0" fill="#30121A" width="52.6" height="21.1"/>
		<polygon fill="#8BD5F2" points="42,96.1 41.9,104 26.6,104 26.6,96.1 		"/>
		<polygon fill="#8BD5F2" points="42,85.4 41.9,93.3 26.6,93.3 26.6,85.4 		"/>
		<polygon fill="#8BD5F2" points="42,74.7 41.9,82.6 26.6,82.6 26.6,74.7 		"/>
		<polygon fill="#8BD5F2" points="42,64 41.9,71.9 26.6,71.9 26.6,64 		"/>
		<polygon fill="#8BD5F2" points="42,53.3 41.9,61.1 26.6,61.1 26.6,53.3 		"/>
		<polygon fill="#2B454A" points="42,42.3 41.9,50 26.6,50 26.6,42.3 		"/>
		<polygon fill="#2B454A" points="42,31.7 41.9,39.5 26.6,39.5 26.6,31.7 		"/>
		<polygon fill="#2B454A" points="42,21.1 41.9,28.9 26.6,28.9 26.6,21.1 		"/>
		<polygon fill="#5C162B" points="42,10.6 41.9,18.3 26.6,18.3 26.6,10.6 		"/>
		<polygon fill="#5C162B" points="42,0 41.9,7.8 26.6,7.8 26.6,0 		"/>
		<path fill="#2B454A" d="M60.3,96.1l0,3.2l-7.7,0l0-3.2L60.3,96.1z M60.3,100.8l0,3.2l-7.7,0l0-3.2L60.3,100.8z"/>
		<path fill="#2B454A" d="M60.3,85.4l0,3.2l-7.7,0l0-3.2L60.3,85.4z M60.3,90.1l0,3.2l-7.7,0l0-3.2L60.3,90.1z"/>
		<path fill="#2B454A" d="M60.3,74.7l0,3.2l-7.7,0l0-3.2L60.3,74.7z M60.3,79.4l0,3.2l-7.7,0l0-3.2L60.3,79.4z"/>
		<path fill="#2B454A" d="M60.3,64l0,3.2l-7.7,0l0-3.2L60.3,64z M60.3,68.6l0,3.2l-7.7,0l0-3.2L60.3,68.6z"/>
		<path fill="#2B454A" d="M60.3,53.3l0,3.2l-7.7,0l0-3.2L60.3,53.3z M60.3,57.9l0,3.2l-7.7,0l0-3.2L60.3,57.9z"/>
		<path fill="#2B454A" d="M60.3,42.3l0,3.2l-7.7,0l0-3.2L60.3,42.3z M60.3,46.8l0,3.2l-7.7,0l0-3.2L60.3,46.8z"/>
		<path fill="#2B454A" d="M60.3,31.7l0,3.2l-7.7,0l0-3.2L60.3,31.7z M60.3,36.3l0,3.2l-7.7,0l0-3.2L60.3,36.3z"/>
		<path fill="#2B454A" d="M60.3,21.1l0,3.2l-7.7,0l0-3.2L60.3,21.1z M60.3,25.7l0,3.2l-7.7,0l0-3.2L60.3,25.7z"/>
		<path fill="#541E32" d="M60.3,10.6l0,3.2l-7.7,0l0-3.2L60.3,10.6z M60.3,15.2l0,3.2l-7.7,0l0-3.2L60.3,15.2z"/>
		<path fill="#541E32" d="M60.3,0l0,3.2l-7.7,0l0-3.2L60.3,0z M60.3,4.6l0,3.2l-7.7,0l0-3.2L60.3,4.6z"/>
		<path fill="#2B454A" d="M16,96.1l0,3.2l-7.7,0l0-3.2L16,96.1z M16,100.8l0,3.2l-7.7,0l0-3.2L16,100.8z"/>
		<path fill="#2B454A" d="M16,85.4l0,3.2l-7.7,0l0-3.2L16,85.4z M16,90.1l0,3.2l-7.7,0l0-3.2L16,90.1z"/>
		<path fill="#2B454A" d="M16,74.7l0,3.2l-7.7,0l0-3.2L16,74.7z M16,79.4l0,3.2l-7.7,0l0-3.2L16,79.4z"/>
		<path fill="#2B454A" d="M16,64l0,3.2l-7.7,0l0-3.2L16,64z M16,68.6l0,3.2l-7.7,0l0-3.2L16,68.6z"/>
		<path fill="#2B454A" d="M16,53.3l0,3.2l-7.7,0l0-3.2L16,53.3z M16,57.9l0,3.2l-7.7,0l0-3.2L16,57.9z"/>
		<path fill="#2B454A" d="M16,42.3l0,3.2l-7.7,0l0-3.2L16,42.3z M16,46.8l0,3.2l-7.7,0l0-3.2L16,46.8z"/>
		<path fill="#2B454A" d="M16,31.7l0,3.2l-7.7,0l0-3.2L16,31.7z M16,36.3l0,3.2l-7.7,0l0-3.2L16,36.3z"/>
		<path fill="#2B454A" d="M16,21.1l0,3.2l-7.7,0l0-3.2L16,21.1z M16,25.7l0,3.2l-7.7,0l0-3.2L16,25.7z"/>
		<path fill="#541E32" d="M16,10.6l0,3.2l-7.7,0l0-3.2L16,10.6z M16,15.2l0,3.2l-7.7,0l0-3.2L16,15.2z"/>
		<path fill="#541E32" d="M16,0l0,3.2l-7.7,0l0-3.2L16,0z M16,4.6l0,3.2l-7.7,0l0-3.2L16,4.6z"/>
		<rect x="19.1" y="85.5" fill="#79C2D0" width="30.7" height="18.5"/>
		<rect x="19" y="64" fill="#79C2D0" width="30.7" height="18.6"/>
		<polygon fill="#79C2D0" points="49.7,61.2 19,61.2 19,53.3 49.6,53.3 		"/>
	</g>
	<g id="Marker_00000110445329158893007580000018039264497931414176_">
		<rect x="4" y="51.8" fill="#E3F3F6" width="59.9" height="2.1"/>
	</g>
	<g>
		<path fill="#79C2D0" d="M4,56.6H1.7c-1,0-1.7-1-1.7-2.3v-3c0-1.3,0.7-2.3,1.7-2.3H4v2.1H2.2c0,0,0,0.1,0,0.1v3c0,0,0,0.1,0,0.1H4
			V56.6z"/>
	</g>
	<g>
		<path fill="#79C2D0" d="M66.3,56.6H64v-2.1h1.9c0,0,0-0.1,0-0.1v-3c0,0,0-0.1,0-0.1H64v-2.1h2.3c1,0,1.7,1,1.7,2.3v3
			C68,55.6,67.3,56.6,66.3,56.6z"/>
	</g>
</g>
</svg>
