<?xml version="1.0" encoding="utf-8"?>
<!-- Generator: Adobe Illustrator 27.4.0, SVG Export Plug-In . SVG Version: 6.00 Build 0)  -->
<svg version="1.1" baseProfile="tiny" id="Layer_1" xmlns="http://www.w3.org/2000/svg" xmlns:xlink="http://www.w3.org/1999/xlink"
	 x="0px" y="0px" viewBox="0 0 537.5 401.2" overflow="visible" xml:space="preserve">
<g>
	<rect x="501.7" y="35.3" fill="#F29100" width="8.3" height="1"/>
	<rect x="515.9" y="35.3" fill="#F29100" width="1.5" height="1"/>
	<rect x="494.2" y="35.3" fill="#F29100" width="1.5" height="1"/>
</g>
<g>
	<polygon fill="#CFF1F9" points="468.8,39.7 426.5,39.7 426.5,38.7 468.5,38.7 472.7,35.3 487.2,35.3 487.2,36.3 473,36.3 	"/>
	<polygon fill="#CFF1F9" points="405,39.7 398.7,39.7 393.6,36.3 14.9,36.3 14.9,35.3 398.4,35.3 	"/>
	<path fill="#CFF1F9" d="M427.8,39.7h-6.3l-6.6-4.4h6.3L427.8,39.7z M421.8,38.7h2.7l-3.6-2.4h-2.7L421.8,38.7z"/>
	<path fill="#CFF1F9" d="M419,39.7h-6.3l-6.6-4.4h6.3L419,39.7z M413,38.7h2.7l-3.6-2.4h-2.7L413,38.7z"/>
	<path fill="#CFF1F9" d="M522.2,401.2H50.5l-4.1-4.1H61l2.5,3.1h458.3l14.8-16.1V43.5l-6.3-6.3l0.7-0.7l6.6,6.6v341.4L522.2,401.2z
		 M50.9,400.2h11.2l-1.7-2.1H48.8L50.9,400.2z"/>
	<path fill="#CFF1F9" d="M38,401.2H15.3L0,385.1v-342L7.1,36l0.7,0.7L1,43.5v341.2l14.7,15.5h8.5l-3-3H34L38,401.2z M25.6,400.2h10
		l-2-2h-9.9L25.6,400.2L25.6,400.2z"/>
	<g>
		<path fill="#CFF1F9" d="M476.7,22.6H0l0-6.4l8.7-8.4h12.9L29.3,0h177.1l9.1,9.1H469L476.7,22.6z M1,21.6h474l-6.6-11.5H215
			L205.9,1H29.7L22,8.7H9.1L1,16.6L1,21.6z"/>
	</g>
	<g>
		<path fill="#CFF1F9" d="M42.1,13.4c-0.1,0.2-0.6,0.7-0.8,0.8c-0.2,0.1-0.5,0.2-0.7,0.2h-1.9c-0.6,0-1.1-0.5-1.4-0.9
			c-0.1-0.1-0.1-0.2-0.2-0.3l1.1-0.4c0,0,0.2,0.3,0.5,0.5c0,0,0,0,0.1,0h1.8c0,0,0.1,0,0.1,0c0.2-0.1,0.5-0.4,0.5-0.5v-0.6
			c0-0.1-0.1-0.2-0.1-0.2l-2.9-0.8c-0.6-0.2-0.9-0.7-0.9-1.2V9.3c0-0.2,0-0.4,0.2-0.6s0.6-0.7,0.8-0.8c0.2-0.1,0.4-0.2,0.7-0.2h1.6
			c0.7,0,1.1,0.5,1.4,0.9c0.1,0.1,0.1,0.2,0.2,0.4l-1.1,0.3c0,0-0.3-0.4-0.5-0.5c0,0,0,0-0.1,0H39c0,0-0.1,0-0.1,0
			c-0.2,0.1-0.5,0.4-0.5,0.5v0.6c0,0.1,0.1,0.2,0.1,0.2l2.9,0.8c0.6,0.2,0.9,0.7,0.9,1.2v0.7C42.3,13,42.3,13.2,42.1,13.4z"/>
		<path fill="#CFF1F9" d="M43.7,14.3V7.8h4.1v1.1h-3v1.7h2.8v1.1h-2.8v1.6h3v1.1H43.7z"/>
		<path fill="#CFF1F9" d="M53.8,13.5c-0.3,0.4-0.8,0.9-1.4,0.9h-1.4c-0.2,0-0.5-0.1-0.7-0.2c-0.2-0.1-0.7-0.6-0.8-0.8
			c-0.1-0.2-0.2-0.4-0.2-0.6V9.3c0-0.2,0-0.4,0.2-0.6c0.1-0.2,0.6-0.7,0.8-0.8c0.2-0.1,0.4-0.2,0.7-0.2h1.4c0.6,0,1.1,0.5,1.4,0.9
			C53.9,8.8,54,8.8,54.1,9L53,9.3c0,0-0.3-0.4-0.5-0.5c0,0,0,0,0,0h-1.3c0,0,0,0,0,0c-0.1,0.1-0.4,0.3-0.5,0.5c0,0,0,0.1,0,0.1
			c0,0,0,3.3,0,3.3c0,0.1,0.3,0.4,0.5,0.5c0,0,0.1,0,0.1,0h1.3c0,0,0,0,0.1,0c0.2-0.1,0.5-0.5,0.5-0.5l1.1,0.3
			C54,13.3,53.9,13.4,53.8,13.5z"/>
		<path fill="#CFF1F9" d="M58.9,7.8h1.2v5c0,0.2,0,0.4-0.2,0.6c-0.1,0.2-0.6,0.7-0.8,0.8c-0.2,0.1-0.4,0.2-0.7,0.2h-1.4
			c-0.2,0-0.5-0.1-0.7-0.2c-0.2-0.1-0.7-0.6-0.8-0.8c-0.1-0.2-0.2-0.4-0.2-0.6v-5h1.2v5c0,0,0,0,0,0.1c0.1,0.2,0.4,0.4,0.5,0.5
			c0,0,0.1,0,0.1,0h1.3c0,0,0,0,0.1,0c0.1-0.1,0.3-0.3,0.5-0.5c0,0,0,0,0,0V7.8z"/>
		<path fill="#CFF1F9" d="M66.1,10.9c-0.1,0.1-0.4,0.5-0.6,0.6c-0.1,0.1-0.2,0.1-0.3,0.2l1.3,2.7h-1.3L64,11.7h-1.3v2.6h-1.2V7.8
			h3.1c0.3,0,0.6,0.1,0.8,0.2c0.2,0.1,0.5,0.5,0.6,0.6c0.1,0.2,0.2,0.4,0.2,0.7v1C66.3,10.5,66.2,10.7,66.1,10.9z M65.1,9.3
			C65.1,9.3,65.1,9.2,65.1,9.3c-0.1-0.2-0.3-0.4-0.4-0.4h-2v1.8h1.9c0.1,0,0.3-0.2,0.4-0.4c0,0,0,0,0,0V9.3z"/>
		<path fill="#CFF1F9" d="M68,14.3V7.8h1.2v6.6H68z"/>
		<path fill="#CFF1F9" d="M73.3,8.9v5.5h-1.2V8.9h-1.8V7.8h4.7v1.1H73.3z"/>
		<path fill="#CFF1F9" d="M78.9,11.5v2.9h-1.2v-2.9l-2.2-3.7h1.3l1.5,2.5l1.5-2.5h1.3L78.9,11.5z"/>
		<path fill="#CFF1F9" d="M89.4,13.4c-0.1,0.2-0.6,0.7-0.8,0.8c-0.2,0.1-0.5,0.2-0.7,0.2h-1.7c-0.2,0-0.5-0.1-0.7-0.2
			c-0.2-0.1-0.7-0.6-0.8-0.8c-0.1-0.2-0.2-0.4-0.2-0.6V9.3c0-0.2,0-0.4,0.2-0.6c0.1-0.2,0.6-0.7,0.8-0.8c0.2-0.1,0.4-0.2,0.7-0.2
			h1.7c0.2,0,0.5,0.1,0.7,0.2c0.2,0.1,0.7,0.6,0.8,0.8c0.1,0.2,0.2,0.4,0.2,0.6v3.4C89.6,13,89.5,13.2,89.4,13.4z M85.7,12.8
			C85.7,12.8,85.7,12.8,85.7,12.8c0.1,0.2,0.4,0.5,0.5,0.5c0,0,0,0,0.1,0h1.6c0,0,0,0,0.1,0c0.1-0.1,0.4-0.3,0.5-0.5c0,0,0,0,0,0
			V9.4c0,0,0,0,0-0.1c-0.1-0.2-0.4-0.4-0.5-0.5c0,0,0,0-0.1,0h-1.6c0,0,0,0-0.1,0c-0.1,0.1-0.4,0.3-0.5,0.5c0,0,0,0.1,0,0.1V12.8z"
			/>
		<path fill="#CFF1F9" d="M93.8,14.3h-1.4l-2.2-6.6h1.2l1.6,5.1l1.6-5.1H96L93.8,14.3z"/>
		<path fill="#CFF1F9" d="M96.8,14.3V7.8h4.1v1.1h-3v1.7h2.8v1.1h-2.8v1.6h3v1.1H96.8z"/>
		<path fill="#CFF1F9" d="M106.9,10.9c-0.1,0.1-0.4,0.5-0.6,0.6c-0.1,0.1-0.2,0.1-0.3,0.2l1.3,2.7h-1.3l-1.2-2.6h-1.3v2.6h-1.2V7.8
			h3.1c0.3,0,0.6,0.1,0.8,0.2c0.2,0.1,0.5,0.5,0.6,0.6c0.1,0.2,0.2,0.4,0.2,0.7v1C107.1,10.5,107.1,10.7,106.9,10.9z M106,9.3
			C106,9.3,106,9.2,106,9.3c-0.1-0.2-0.3-0.4-0.4-0.4h-2v1.8h1.9c0.1,0,0.3-0.2,0.4-0.4c0,0,0,0,0,0V9.3z"/>
		<path fill="#CFF1F9" d="M111.6,14.3h-1.4l-2.2-6.6h1.2l1.6,5.1l1.6-5.1h1.2L111.6,14.3z"/>
		<path fill="#CFF1F9" d="M114.6,14.3V7.8h1.2v6.6H114.6z"/>
		<path fill="#CFF1F9" d="M117.3,14.3V7.8h4.1v1.1h-3v1.7h2.8v1.1h-2.8v1.6h3v1.1H117.3z"/>
		<path fill="#CFF1F9" d="M128.7,14.3h-1.3l-1.1-4.4l-1.1,4.4H124l-1.5-6.6h1.2l1,4.6l1.1-4.6h1.2l1.1,4.6l1-4.6h1.2L128.7,14.3z"/>
		<path fill="#CFF1F9" d="M135.6,14.3V8.9h-1.3V7.8h2.5v6.6H135.6z"/>
		<path fill="#CFF1F9" d="M141.2,14.3h-1.3l2.7-5.5h-3.2V7.8h4.6v0.9L141.2,14.3z"/>
		<path fill="#CFF1F9" d="M148.3,12.9v-1.2c0,0-0.4,0.3-0.6,0.3h-1.1c-0.3,0-0.6-0.1-0.8-0.2c-0.2-0.1-0.5-0.5-0.6-0.6
			c-0.1-0.2-0.2-0.4-0.2-0.7V9.2c0-0.2,0.1-0.5,0.2-0.7c0.1-0.1,0.5-0.5,0.6-0.6c0.2-0.2,0.5-0.2,0.8-0.2h1.3c0.3,0,0.6,0.1,0.8,0.2
			c0.2,0.1,0.5,0.5,0.6,0.6c0.1,0.2,0.2,0.4,0.2,0.7v3.6c0,0.2-0.1,0.5-0.2,0.7c-0.1,0.1-0.4,0.5-0.6,0.6c-0.2,0.2-0.5,0.2-0.8,0.2
			h-1.2c-0.6,0-1.1-0.5-1.4-0.9c-0.1-0.1-0.2-0.4-0.3-0.5l1.1-0.3l0,0.1c0.1,0.2,0.4,0.5,0.5,0.5c0,0,0.1,0,0.1,0h1.1
			C148,13.3,148.2,13.1,148.3,12.9C148.3,12.9,148.3,12.9,148.3,12.9z M148.3,9.2C148.3,9.2,148.3,9.2,148.3,9.2
			c-0.1-0.2-0.3-0.4-0.4-0.4h-1.3c-0.1,0-0.3,0.2-0.4,0.3c0,0,0,0.1,0,0.1l0,1.3c0,0,0,0.1,0,0.1c0.1,0.2,0.3,0.4,0.4,0.4h1
			c0,0,0.1,0,0.2,0c0,0,0.4-0.3,0.5-0.5V9.2z"/>
		<path fill="#CFF1F9" d="M150.6,12.2v-1h2.4v1H150.6z"/>
		<path fill="#CFF1F9" d="M156.1,8.8C156.1,8.8,156,8.8,156.1,8.8c-0.2,0.1-0.5,0.3-0.6,0.6l-1.1-0.3c0.1-0.2,0.2-0.4,0.2-0.4
			c0.3-0.4,0.8-0.9,1.4-0.9h1.2c0.3,0,0.6,0.1,0.8,0.3c0.2,0.1,0.5,0.5,0.6,0.6c0.1,0.2,0.2,0.4,0.2,0.7V10c0,0.6-0.4,1-0.8,1.2
			l-2.2,1.1c-0.1,0.1-0.2,0.2-0.2,0.2v0.7h3.1v1.1h-4.2v-1.9c0-0.6,0.4-0.9,0.8-1.2l2.2-1.1c0.1,0,0.1-0.1,0.1-0.2V9.2
			c0,0,0-0.1,0-0.1c-0.1-0.2-0.3-0.4-0.4-0.4H156.1z"/>
		<path fill="#CFF1F9" d="M163.3,12.9v-1.2c0,0-0.4,0.3-0.6,0.3h-1.1c-0.3,0-0.6-0.1-0.8-0.2c-0.2-0.1-0.5-0.5-0.6-0.6
			c-0.1-0.2-0.2-0.4-0.2-0.7V9.2c0-0.2,0.1-0.5,0.2-0.7c0.1-0.1,0.5-0.5,0.6-0.6c0.2-0.2,0.5-0.2,0.8-0.2h1.3c0.3,0,0.6,0.1,0.8,0.2
			c0.2,0.1,0.5,0.5,0.6,0.6c0.1,0.2,0.2,0.4,0.2,0.7v3.6c0,0.2-0.1,0.5-0.2,0.7c-0.1,0.1-0.4,0.5-0.6,0.6c-0.2,0.2-0.5,0.2-0.8,0.2
			h-1.2c-0.6,0-1.1-0.5-1.4-0.9c-0.1-0.1-0.2-0.4-0.3-0.5l1.1-0.3l0,0.1c0.1,0.2,0.4,0.5,0.5,0.5c0,0,0.1,0,0.1,0h1.1
			C162.9,13.3,163.2,13.1,163.3,12.9C163.3,12.9,163.3,12.9,163.3,12.9z M163.3,9.2C163.3,9.2,163.2,9.2,163.3,9.2
			c-0.1-0.2-0.3-0.4-0.4-0.4h-1.3c-0.1,0-0.3,0.2-0.4,0.3c0,0,0,0.1,0,0.1l0,1.3c0,0,0,0.1,0,0.1c0.1,0.2,0.3,0.4,0.4,0.4h1
			c0,0,0.1,0,0.2,0c0,0,0.4-0.3,0.5-0.5V9.2z"/>
		<path fill="#CFF1F9" d="M165.5,12.2v-1h2.4v1H165.5z"/>
		<path fill="#CFF1F9" d="M172.5,12.9v-1.2c0,0-0.4,0.3-0.6,0.3h-1.1c-0.3,0-0.6-0.1-0.8-0.2c-0.2-0.1-0.5-0.5-0.6-0.6
			c-0.1-0.2-0.2-0.4-0.2-0.7V9.2c0-0.2,0.1-0.5,0.2-0.7c0.1-0.1,0.5-0.5,0.6-0.6c0.2-0.2,0.5-0.2,0.8-0.2h1.3c0.3,0,0.6,0.1,0.8,0.2
			c0.2,0.1,0.5,0.5,0.6,0.6c0.1,0.2,0.2,0.4,0.2,0.7v3.6c0,0.2-0.1,0.5-0.2,0.7c-0.1,0.1-0.4,0.5-0.6,0.6c-0.2,0.2-0.5,0.2-0.8,0.2
			h-1.2c-0.6,0-1.1-0.5-1.4-0.9c-0.1-0.1-0.2-0.4-0.3-0.5l1.1-0.3l0,0.1c0.1,0.2,0.4,0.5,0.5,0.5c0,0,0.1,0,0.1,0h1.1
			C172.2,13.3,172.4,13.1,172.5,12.9C172.5,12.9,172.5,12.9,172.5,12.9z M172.5,9.2C172.5,9.2,172.5,9.2,172.5,9.2
			c-0.1-0.2-0.3-0.4-0.4-0.4h-1.3c-0.1,0-0.3,0.2-0.4,0.3c0,0,0,0.1,0,0.1l0,1.3c0,0,0,0.1,0,0.1c0.1,0.2,0.3,0.4,0.4,0.4h1
			c0,0,0.1,0,0.2,0c0,0,0.4-0.3,0.5-0.5V9.2z"/>
		<path fill="#CFF1F9" d="M178.1,12C178.1,12,178.1,11.9,178.1,12c-0.1-0.2-0.3-0.4-0.4-0.4c0,0,0,0,0,0h-1.4v-1.1h1.4c0,0,0,0,0,0
			c0.1,0,0.3-0.2,0.4-0.4c0,0,0-0.1,0-0.1V9.3c0,0,0-0.1,0-0.1c-0.1-0.2-0.3-0.4-0.4-0.4h-1.3c0,0,0,0,0,0c-0.1,0.1-0.5,0.3-0.5,0.6
			l-1.1-0.3c0.1-0.1,0.2-0.4,0.3-0.5c0.3-0.4,0.8-0.9,1.4-0.9h1.3c0.3,0,0.6,0.1,0.8,0.2c0.2,0.1,0.5,0.5,0.6,0.6
			c0.1,0.2,0.2,0.4,0.2,0.7v0.8c0,0.5-0.2,0.7-0.4,0.9c0.2,0.2,0.4,0.5,0.4,0.9v0.9c0,0.2-0.1,0.5-0.2,0.7c-0.1,0.1-0.4,0.5-0.6,0.6
			c-0.2,0.2-0.5,0.2-0.8,0.2h-1.3c-0.6,0-1.1-0.5-1.4-0.9c-0.1-0.1-0.2-0.4-0.3-0.5l1.1-0.3c0.2,0.2,0.4,0.5,0.5,0.6c0,0,0,0,0.1,0
			h1.3c0.1,0,0.3-0.2,0.4-0.4c0,0,0,0,0-0.1V12z"/>
	</g>
	<g>
		<path fill="#CFF1F9" d="M497,22.6h-13.7l-7.7-13.5h13.7L497,22.6z M483.9,21.6h11.4l-6.6-11.5h-11.4L483.9,21.6z"/>
	</g>
	<g>
		<path fill="#CFF1F9" d="M516.7,22.6H503l-7.7-13.5H509L516.7,22.6z M503.6,21.6H515l-6.6-11.5H497L503.6,21.6z"/>
	</g>
	<g>
		<path fill="#CFF1F9" d="M536.4,22.6h-13.7L515,9.1h13.7L536.4,22.6z M523.3,21.6h11.4l-6.6-11.5h-11.4L523.3,21.6z"/>
	</g>
</g>
</svg>
