<?xml version="1.0" encoding="utf-8"?>
<!-- Generator: Adobe Illustrator 27.3.1, SVG Export Plug-In . SVG Version: 6.00 Build 0)  -->
<svg version="1.1" baseProfile="tiny" id="Layer_1" xmlns="http://www.w3.org/2000/svg" xmlns:xlink="http://www.w3.org/1999/xlink"
	 x="0px" y="0px" viewBox="0 0 530 21.7" overflow="visible" xml:space="preserve">
<g>
	<g>
		<path fill="#CFF1F9" d="M529.3,0l-21.4,20.7H171.6l-7.4-5.9h-46.6l-8.6,6.9h10.6l7.4-5.9h36.9l7.4,5.9h337.1l21.6-21L529.3,0z
			 M119.3,20.7h-7.4l6.1-4.9h7.4L119.3,20.7z"/>
	</g>
	<g>
		<path fill="#CFF1F9" d="M104,21.7H93.4l8.6-6.9h10.6L104,21.7z M96.3,20.7h7.4l6.1-4.9h-7.4L96.3,20.7z"/>
	</g>
	<g>
		<polygon fill="#CFF1F9" points="88.3,14.8 79.7,21.7 21.6,21.7 0,0.7 0.7,0 22.1,20.7 70.3,20.7 77.7,14.8 		"/>
	</g>
</g>
</svg>
