<?xml version="1.0" encoding="utf-8"?>
<!-- Generator: Adobe Illustrator 28.7.8, SVG Export Plug-In . SVG Version: 9.03 Build 56881)  -->
<svg version="1.1" baseProfile="tiny" id="Layer_1" xmlns="http://www.w3.org/2000/svg" xmlns:xlink="http://www.w3.org/1999/xlink"
	 x="0px" y="0px" viewBox="0 0 247.4 91.7" overflow="visible" xml:space="preserve">
<polygon id="opacity:60_00000026850423662587909430000018160497603824015020_" fill="#7C1E1E" points="23.4,89.7 1.7,68.1 1.7,10.7 
	11.4,1 236,1 245.7,10.7 245.7,68.1 224,89.7 "/>
<path id="opacity:100" fill="#F89522" d="M235.6,2l9.1,9.1v56.6l-21.1,21.1H23.8L2.7,67.7V11.1L11.8,2H235.6 M236.5,0H10.9L0.7,10.2
	v58.2l22.2,22.2h201.5l22.2-22.2V10.2L236.5,0L236.5,0z"/>
<polygon id="opacity:100_00000072267182581826161410000011662050008474943373_" fill="#F89521" points="224.9,91.7 22.5,91.7 
	0,69.2 1.4,67.8 23.4,89.7 224,89.7 246,67.8 247.4,69.2 "/>
<polygon id="opacity:100_00000120538334566234580090000012601308339833040058_" fill="#FCE756" points="28.6,91.7 22.5,91.7 
	18.3,87.4 19.7,86 23.4,89.7 28.6,89.7 "/>
<rect id="opacity:100_00000143585335635271190190000016766116277621098679_" x="1.7" y="67.7" transform="matrix(0.7071 -0.7071 0.7071 0.7071 -49.04 22.5475)" fill="#FCE756" width="2" height="5.6"/>
<polygon id="opacity:100_00000096023517498541937040000008746431585794022836_" fill="#FCE756" points="224.9,91.7 218.8,91.7 
	218.8,89.7 224,89.7 227.7,86 229.1,87.4 "/>
<rect id="opacity:100_00000155845765065163178730000002284573794789440410_" x="241.9" y="69.5" transform="matrix(0.7071 -0.7071 0.7071 0.7071 21.8457 193.6808)" fill="#FCE756" width="5.6" height="2"/>
</svg>
