<?xml version="1.0" encoding="utf-8"?>
<!-- Generator: Adobe Illustrator 28.7.8, SVG Export Plug-In . SVG Version: 9.03 Build 56881)  -->
<svg version="1.1" baseProfile="tiny" id="Layer_1" xmlns="http://www.w3.org/2000/svg" xmlns:xlink="http://www.w3.org/1999/xlink"
	 x="0px" y="0px" viewBox="0 0 1070.8 67.9" overflow="visible" xml:space="preserve">
<path fill="#3E3C4F" d="M1001.9,49c-1.3-0.3-2.5-0.7-3.6-1.1c-0.2-0.1-0.4-0.1-0.6-0.1c-2.2-0.1-4.2-1.7-4.2-4.8c0-3,1.8-5,4.4-5
	c2.6,0,4.2,2,4.2,4.8c0,2.4-1.1,4-2.7,4.5v0.1c0.9,0.2,2,0.5,2.8,0.6L1001.9,49z M1000.9,42.8c0-1.9-1-3.8-3-3.8
	c-2.1,0-3.1,1.9-3.1,3.9c0,2,1.1,3.8,3,3.8C999.8,46.7,1000.9,45,1000.9,42.8z"/>
<path fill="#3E3C4F" d="M1005.3,38.1v5.6c0,2.1,0.9,3,2.2,3c1.4,0,2.3-0.9,2.3-3v-5.6h1.2v5.5c0,2.9-1.5,4.1-3.6,4.1
	c-1.9,0-3.4-1.1-3.4-4v-5.6H1005.3z"/>
<path fill="#3E3C4F" d="M1014.5,44.6l-1,3h-1.3l3.2-9.4h1.5l3.2,9.4h-1.3l-1-3H1014.5z M1017.6,43.6l-0.9-2.7
	c-0.2-0.6-0.4-1.2-0.5-1.7h0c-0.1,0.6-0.3,1.1-0.5,1.7l-0.9,2.7H1017.6z"/>
<path fill="#3E3C4F" d="M1021.8,47.6v-9.4h1.3l3,4.8c0.7,1.1,1.2,2.1,1.7,3.1l0,0c-0.1-1.3-0.1-2.4-0.1-3.9v-4h1.1v9.4h-1.2l-3-4.8
	c-0.7-1.1-1.3-2.1-1.8-3.2l0,0c0.1,1.2,0.1,2.3,0.1,3.9v4H1021.8z"/>
<path fill="#3E3C4F" d="M1033.1,39.2h-2.9v-1h7v1h-2.9v8.4h-1.2V39.2z"/>
<path fill="#3E3C4F" d="M1039.7,38.1v5.6c0,2.1,0.9,3,2.2,3c1.4,0,2.3-0.9,2.3-3v-5.6h1.2v5.5c0,2.9-1.5,4.1-3.6,4.1
	c-1.9,0-3.4-1.1-3.4-4v-5.6H1039.7z"/>
<path fill="#3E3C4F" d="M1055.8,43.4c-0.1-1.3-0.2-2.9-0.1-4.1h0c-0.3,1.1-0.7,2.3-1.2,3.6l-1.7,4.6h-0.9l-1.5-4.5
	c-0.4-1.3-0.8-2.5-1.1-3.7h0c0,1.2-0.1,2.8-0.2,4.2l-0.3,4h-1.2l0.7-9.4h1.6l1.6,4.6c0.4,1.2,0.7,2.2,1,3.2h0c0.2-1,0.6-2,1-3.2
	l1.7-4.6h1.6l0.6,9.4h-1.2L1055.8,43.4z"/>
<path fill="#3E3C4F" d="M997.8,54.9h5.1v1H999v3.1h3.6v1H999v4.3h-1.2V54.9z"/>
<path fill="#3E3C4F" d="M1006.1,54.9v5.6c0,2.1,0.9,3,2.2,3c1.4,0,2.3-0.9,2.3-3v-5.6h1.2v5.5c0,2.9-1.5,4.1-3.6,4.1
	c-1.9,0-3.4-1.1-3.4-4v-5.6H1006.1z"/>
<path fill="#3E3C4F" d="M1019.1,59.9h-3.7v3.4h4.1v1h-5.3v-9.4h5.1v1h-3.9v3h3.7V59.9z"/>
<path fill="#3E3C4F" d="M1021.4,54.9h1.2v8.4h4v1h-5.3V54.9z"/>
<path fill="#3E3C4F" d="M1039.5,60.2c-0.1-1.3-0.2-2.9-0.1-4.1h0c-0.3,1.1-0.7,2.3-1.2,3.6l-1.7,4.6h-0.9l-1.5-4.5
	c-0.4-1.3-0.8-2.5-1.1-3.7h0c0,1.2-0.1,2.8-0.2,4.2l-0.3,4h-1.2l0.7-9.4h1.6l1.6,4.6c0.4,1.2,0.7,2.2,1,3.2h0c0.2-1,0.6-2,1-3.2
	l1.7-4.6h1.6l0.6,9.4h-1.2L1039.5,60.2z"/>
<path fill="#3E3C4F" d="M1044.3,54.9v9.4h-1.2v-9.4H1044.3z"/>
<path fill="#3E3C4F" d="M1046.7,64.4v-9.4h1.3l3,4.8c0.7,1.1,1.2,2.1,1.7,3.1l0,0c-0.1-1.3-0.1-2.4-0.1-3.9v-4h1.1v9.4h-1.2l-3-4.8
	c-0.7-1.1-1.3-2.1-1.8-3.2l0,0c0.1,1.2,0.1,2.3,0.1,3.9v4H1046.7z"/>
<path fill="#3E3C4F" d="M1055.9,63.6c0-0.5,0.4-0.9,0.8-0.9s0.8,0.4,0.8,0.9c0,0.5-0.3,0.9-0.8,0.9
	C1056.2,64.5,1055.9,64.1,1055.9,63.6z"/>
<polygon fill="#3E3C4F" points="1051.1,22.5 1049.7,24 1036.2,10.5 1039,10.5 "/>
<polygon fill="#55536B" points="1057.6,29.1 1054.8,29.1 1049.7,24 1051.1,22.5 "/>
<polygon fill="#3E3C4F" points="1058.1,17.5 1058.1,20.3 1048.3,10.5 1051.1,10.5 "/>
<polygon fill="#3E3C4F" points="1039.6,22.5 1038.2,24 1024.7,10.5 1027.5,10.5 "/>
<polygon fill="#55536B" points="1046.1,29.1 1043.3,29.1 1038.2,24 1039.6,22.5 "/>
<polygon fill="#3E3C4F" points="1028.1,22.5 1026.6,24 1013.2,10.5 1016,10.5 "/>
<polygon fill="#55536B" points="1034.6,29.1 1031.8,29.1 1026.6,24 1028.1,22.5 "/>
<polygon fill="#3E3C4F" points="1016.5,22.5 1015.1,24 1001.7,10.5 1004.5,10.5 "/>
<polygon fill="#55536B" points="1023.1,29.1 1020.2,29.1 1015.1,24 1016.5,22.5 "/>
<polygon fill="#3E3C4F" points="1005,22.5 1003.6,24 990.2,10.5 993,10.5 "/>
<polygon fill="#55536B" points="1011.6,29.1 1008.7,29.1 1003.6,24 1005,22.5 "/>
<polygon fill="#3E3C4F" points="993.5,22.5 992.1,24 982.4,14.3 982.4,11.4 "/>
<polygon fill="#55536B" points="1000,29.1 997.2,29.1 992.1,24 993.5,22.5 "/>
<polygon fill="#55536B" points="988.5,29.1 985.7,29.1 982.4,25.8 982.4,23 "/>
<rect x="982.4" y="10.5" fill="none" width="75.6" height="18.6"/>
<polygon fill="#3E3C4F" points="34.6,10.5 21.2,24 19.7,22.5 31.8,10.5 "/>
<polygon fill="#55536B" points="21.2,24 16,29.1 13.2,29.1 19.7,22.5 "/>
<polygon fill="#3E3C4F" points="22.6,10.5 12.8,20.3 12.8,17.5 19.7,10.5 "/>
<polygon fill="#3E3C4F" points="46.1,10.5 32.7,24 31.2,22.5 43.3,10.5 "/>
<polygon fill="#55536B" points="32.7,24 27.6,29.1 24.7,29.1 31.2,22.5 "/>
<polygon fill="#3E3C4F" points="57.6,10.5 44.2,24 42.8,22.5 54.8,10.5 "/>
<polygon fill="#55536B" points="44.2,24 39.1,29.1 36.2,29.1 42.8,22.5 "/>
<polygon fill="#3E3C4F" points="69.1,10.5 55.7,24 54.3,22.5 66.3,10.5 "/>
<polygon fill="#55536B" points="55.7,24 50.6,29.1 47.7,29.1 54.3,22.5 "/>
<polygon fill="#3E3C4F" points="80.6,10.5 67.2,24 65.8,22.5 77.8,10.5 "/>
<polygon fill="#55536B" points="67.2,24 62.1,29.1 59.3,29.1 65.8,22.5 "/>
<polygon fill="#3E3C4F" points="88.4,11.5 88.4,14.3 78.7,24 77.3,22.5 "/>
<polygon fill="#55536B" points="78.7,24 73.6,29.1 70.8,29.1 77.3,22.5 "/>
<polygon fill="#55536B" points="88.4,23 88.4,25.8 85.1,29.1 82.3,29.1 "/>
<rect x="12.8" y="10.5" fill="none" width="75.6" height="18.6"/>
<path fill="#3E3C4F" d="M465.2,50.1c0.6-0.1,1.5-0.2,2.3-0.2c1.3,0,2.1,0.2,2.7,0.8c0.5,0.4,0.7,1.1,0.7,1.8c0,1.2-0.8,2.1-1.8,2.4
	v0c0.7,0.3,1.2,0.9,1.4,1.9c0.3,1.3,0.5,2.2,0.7,2.6h-1.3c-0.2-0.3-0.4-1.1-0.6-2.3c-0.3-1.3-0.8-1.8-1.9-1.8h-1.1v4.1h-1.2V50.1z
	 M466.5,54.4h1.2c1.3,0,2.1-0.7,2.1-1.8c0-1.2-0.9-1.8-2.2-1.8c-0.6,0-1,0.1-1.2,0.1V54.4z"/>
<path fill="#3E3C4F" d="M472.9,58c0.5,0.3,1.3,0.6,2.2,0.6c1.2,0,2-0.7,2-1.6c0-0.9-0.5-1.4-1.8-1.9c-1.5-0.5-2.5-1.3-2.5-2.7
	c0-1.5,1.2-2.6,3.1-2.6c1,0,1.7,0.2,2.1,0.5l-0.3,1c-0.3-0.2-0.9-0.4-1.8-0.4c-1.3,0-1.8,0.8-1.8,1.4c0,0.9,0.6,1.3,1.9,1.8
	c1.6,0.6,2.4,1.4,2.4,2.8c0,1.5-1.1,2.7-3.3,2.7c-0.9,0-1.9-0.3-2.4-0.6L472.9,58z"/>
<path fill="#3E3C4F" d="M481.5,50v9.4h-1.2V50H481.5z"/>
<path fill="#3E3C4F" d="M486.9,58c0.5,0.3,1.3,0.6,2.2,0.6c1.2,0,2-0.7,2-1.6c0-0.9-0.5-1.4-1.8-1.9c-1.5-0.5-2.5-1.3-2.5-2.7
	c0-1.5,1.2-2.6,3.1-2.6c1,0,1.7,0.2,2.1,0.5l-0.3,1c-0.3-0.2-0.9-0.4-1.8-0.4c-1.3,0-1.8,0.8-1.8,1.4c0,0.9,0.6,1.3,1.9,1.8
	c1.6,0.6,2.4,1.4,2.4,2.8c0,1.5-1.1,2.7-3.3,2.7c-0.9,0-1.9-0.3-2.4-0.6L486.9,58z"/>
<path fill="#3E3C4F" d="M494.3,50h1.2v8.4h4v1h-5.3V50z"/>
<path fill="#3E3C4F" d="M501.2,50h5.1v1h-3.9v3.1h3.6v1h-3.6v4.3h-1.2V50z"/>
<path fill="#3E3C4F" d="M508.1,58c0.5,0.3,1.3,0.6,2.2,0.6c1.2,0,2-0.7,2-1.6c0-0.9-0.5-1.4-1.8-1.9c-1.5-0.5-2.5-1.3-2.5-2.7
	c0-1.5,1.2-2.6,3.1-2.6c1,0,1.7,0.2,2.1,0.5l-0.3,1c-0.3-0.2-0.9-0.4-1.8-0.4c-1.3,0-1.8,0.8-1.8,1.4c0,0.9,0.6,1.3,1.9,1.8
	c1.6,0.6,2.4,1.4,2.4,2.8c0,1.5-1.1,2.7-3.3,2.7c-0.9,0-1.9-0.3-2.4-0.6L508.1,58z"/>
<path fill="#3E3C4F" d="M517.3,51h-2.9v-1h7v1h-2.9v8.4h-1.2V51z"/>
<path fill="#3E3C4F" d="M525.8,58c0.5,0.3,1.3,0.6,2.2,0.6c1.2,0,2-0.7,2-1.6c0-0.9-0.5-1.4-1.8-1.9c-1.5-0.5-2.5-1.3-2.5-2.7
	c0-1.5,1.2-2.6,3.1-2.6c1,0,1.7,0.2,2.1,0.5l-0.3,1c-0.3-0.2-0.9-0.4-1.8-0.4c-1.3,0-1.8,0.8-1.8,1.4c0,0.9,0.6,1.3,1.9,1.8
	c1.6,0.6,2.4,1.4,2.4,2.8c0,1.5-1.1,2.7-3.3,2.7c-0.9,0-1.9-0.3-2.4-0.6L525.8,58z"/>
<path fill="#3E3C4F" d="M535.2,59.4v-4l-3-5.4h1.4l1.3,2.6c0.4,0.7,0.6,1.3,0.9,1.9h0c0.3-0.6,0.6-1.2,1-1.9l1.4-2.6h1.4l-3.2,5.4v4
	H535.2z"/>
<path fill="#3E3C4F" d="M540.6,58c0.5,0.3,1.3,0.6,2.2,0.6c1.2,0,2-0.7,2-1.6c0-0.9-0.5-1.4-1.8-1.9c-1.5-0.5-2.5-1.3-2.5-2.7
	c0-1.5,1.2-2.6,3.1-2.6c1,0,1.7,0.2,2.1,0.5l-0.3,1c-0.3-0.2-0.9-0.4-1.8-0.4c-1.3,0-1.8,0.8-1.8,1.4c0,0.9,0.6,1.3,1.9,1.8
	c1.6,0.6,2.4,1.4,2.4,2.8c0,1.5-1.1,2.7-3.3,2.7c-0.9,0-1.9-0.3-2.4-0.6L540.6,58z"/>
<path fill="#3E3C4F" d="M547.6,58.7c0-0.5,0.4-0.9,0.8-0.9s0.8,0.4,0.8,0.9c0,0.5-0.3,0.9-0.8,0.9C548,59.6,547.6,59.2,547.6,58.7z"
	/>
<path fill="#3E3C4F" d="M556,59.4l-3.1-9.4h1.3l1.5,4.7c0.4,1.3,0.8,2.4,1,3.5h0c0.3-1.1,0.7-2.3,1.1-3.5l1.6-4.7h1.3l-3.4,9.4H556z
	"/>
<path fill="#3E3C4F" d="M567,51.4h-3.5l-0.3,2.3c0.2,0,0.4-0.1,0.7-0.1c0.7,0,1.4,0.2,2,0.5c0.7,0.4,1.3,1.2,1.3,2.3
	c0,1.8-1.4,3.1-3.4,3.1c-1,0-1.8-0.3-2.3-0.6l0.3-0.9c0.4,0.2,1.1,0.5,1.9,0.5c1.2,0,2.2-0.8,2.2-2c0-1.2-0.8-2-2.6-2
	c-0.5,0-0.9,0.1-1.3,0.1l0.6-4.4h4.4V51.4z"/>
<path fill="#3E3C4F" d="M568.9,57.1c0-1.1,0.7-2,1.8-2.4l0,0c-1-0.5-1.4-1.3-1.4-2c0-1.4,1.2-2.4,2.8-2.4c1.8,0,2.6,1.1,2.6,2.2
	c0,0.8-0.4,1.6-1.5,2.1v0c1.1,0.4,1.8,1.2,1.8,2.4c0,1.6-1.4,2.6-3.1,2.6C570.1,59.6,568.9,58.5,568.9,57.1z M573.8,57.1
	c0-1.1-0.8-1.6-2-2c-1.1,0.3-1.6,1-1.6,1.9c0,0.9,0.7,1.7,1.8,1.7C573.1,58.7,573.8,58,573.8,57.1z M570.4,52.5
	c0,0.9,0.7,1.4,1.7,1.7c0.8-0.3,1.4-0.8,1.4-1.7c0-0.7-0.4-1.5-1.5-1.5C571,51.1,570.4,51.7,570.4,52.5z"/>
<path fill="#3E3C4F" d="M576.6,58.7c0-0.5,0.4-0.9,0.8-0.9s0.8,0.4,0.8,0.9c0,0.5-0.3,0.9-0.8,0.9C576.9,59.6,576.6,59.2,576.6,58.7
	z"/>
<path fill="#3E3C4F" d="M580.4,58.6c0.3,0,0.6,0,1,0c0.7-0.1,1.4-0.4,1.9-0.9c0.6-0.5,1-1.3,1.2-2.4h0c-0.5,0.6-1.2,1-2.1,1
	c-1.6,0-2.7-1.2-2.7-2.8c0-1.7,1.2-3.2,3.1-3.2c1.9,0,3,1.5,3,3.8c0,2-0.7,3.4-1.6,4.3c-0.7,0.7-1.7,1.1-2.6,1.2
	c-0.4,0.1-0.8,0.1-1.1,0.1V58.6z M580.8,53.3c0,1.1,0.7,1.9,1.8,1.9c0.8,0,1.5-0.4,1.8-1c0.1-0.1,0.1-0.3,0.1-0.4
	c0-1.6-0.6-2.7-1.9-2.7C581.6,51.1,580.8,52,580.8,53.3z"/>
<path fill="#3E3C4F" d="M586.5,60l3.9-10.2h1L587.4,60H586.5z"/>
<path fill="#3E3C4F" d="M591.6,60l3.9-10.2h1L592.5,60H591.6z"/>
<path fill="#3E3C4F" d="M603.3,54.8c0,3.1-1.1,4.8-3.2,4.8c-1.8,0-3-1.7-3-4.7c0-3.1,1.3-4.7,3.2-4.7
	C602.2,50.2,603.3,51.9,603.3,54.8z M598.4,54.9c0,2.4,0.7,3.7,1.8,3.7c1.3,0,1.9-1.5,1.9-3.8c0-2.2-0.6-3.7-1.8-3.7
	C599.2,51.1,598.4,52.5,598.4,54.9z"/>
<path fill="#3E3C4F" d="M610.8,54.8c0,3.1-1.1,4.8-3.2,4.8c-1.8,0-3-1.7-3-4.7c0-3.1,1.3-4.7,3.2-4.7
	C609.7,50.2,610.8,51.9,610.8,54.8z M605.9,54.9c0,2.4,0.7,3.7,1.8,3.7c1.3,0,1.9-1.5,1.9-3.8c0-2.2-0.6-3.7-1.8-3.7
	C606.6,51.1,605.9,52.5,605.9,54.9z"/>
<path fill="#3E3C4F" d="M649.2,65.4H421.6V44h227.6V65.4z M422.6,64.4h225.6V45H422.6V64.4z"/>
<path fill="#3E3C4F" d="M13.7,38.1v4h4.6v-4h1.2v9.4h-1.2v-4.4h-4.6v4.4h-1.2v-9.4H13.7z"/>
<path fill="#3E3C4F" d="M23.9,47.6v-4l-3-5.4h1.4l1.3,2.6c0.4,0.7,0.6,1.3,0.9,1.9h0c0.3-0.6,0.6-1.2,1-1.9l1.4-2.6h1.4l-3.2,5.4v4
	H23.9z"/>
<path fill="#3E3C4F" d="M29.6,38.3c0.7-0.1,1.6-0.2,2.6-0.2c1.8,0,3,0.4,3.8,1.2c0.8,0.8,1.3,1.9,1.3,3.4c0,1.5-0.5,2.8-1.4,3.7
	c-0.9,0.9-2.3,1.4-4.2,1.4c-0.9,0-1.6,0-2.2-0.1V38.3z M30.8,46.6c0.3,0.1,0.8,0.1,1.2,0.1c2.6,0,4-1.5,4-4c0-2.2-1.2-3.6-3.8-3.6
	c-0.6,0-1.1,0.1-1.4,0.1V46.6z"/>
<path fill="#3E3C4F" d="M39.2,38.3c0.6-0.1,1.5-0.2,2.3-0.2c1.3,0,2.1,0.2,2.7,0.8c0.5,0.4,0.7,1.1,0.7,1.8c0,1.2-0.8,2.1-1.8,2.4v0
	c0.7,0.3,1.2,0.9,1.4,1.9c0.3,1.3,0.5,2.2,0.7,2.6H44c-0.2-0.3-0.4-1.1-0.6-2.3c-0.3-1.3-0.8-1.8-1.9-1.8h-1.1v4.1h-1.2V38.3z
	 M40.4,42.6h1.2c1.3,0,2.1-0.7,2.1-1.8c0-1.2-0.9-1.8-2.2-1.8c-0.6,0-1,0.1-1.2,0.1V42.6z"/>
<path fill="#3E3C4F" d="M55.1,42.8c0,3.2-2,5-4.4,5c-2.5,0-4.2-1.9-4.2-4.8c0-3,1.9-5,4.4-5C53.4,38,55.1,39.9,55.1,42.8z
	 M47.8,42.9c0,2,1.1,3.8,3,3.8c1.9,0,3-1.8,3-3.9c0-1.9-1-3.8-3-3.8C48.8,39,47.8,40.8,47.8,42.9z"/>
<path fill="#3E3C4F" d="M64.1,47.1c-0.5,0.2-1.6,0.5-2.9,0.5c-1.4,0-2.6-0.4-3.5-1.2c-0.8-0.8-1.3-2-1.3-3.5c0-2.8,1.9-4.9,5.1-4.9
	c1.1,0,1.9,0.2,2.4,0.4l-0.3,1c-0.5-0.2-1.1-0.4-2.1-0.4c-2.3,0-3.8,1.4-3.8,3.8c0,2.4,1.4,3.8,3.6,3.8c0.8,0,1.3-0.1,1.6-0.3v-2.8
	H61v-1h3.1V47.1z"/>
<path fill="#3E3C4F" d="M71.2,43.1h-3.7v3.4h4.1v1h-5.3v-9.4h5.1v1h-3.9v3h3.7V43.1z"/>
<path fill="#3E3C4F" d="M73.4,47.6v-9.4h1.3l3,4.8C78.5,44,79,45,79.5,46l0,0c-0.1-1.3-0.1-2.4-0.1-3.9v-4h1.1v9.4h-1.2l-3-4.8
	c-0.7-1.1-1.3-2.1-1.8-3.2l0,0c0.1,1.2,0.1,2.3,0.1,3.9v4H73.4z"/>
<path fill="#3E3C4F" d="M12.5,54.9h5.1v1h-3.9v3.1h3.6v1h-3.6v4.3h-1.2V54.9z"/>
<path fill="#3E3C4F" d="M20.8,54.9v5.6c0,2.1,0.9,3,2.2,3c1.4,0,2.3-0.9,2.3-3v-5.6h1.2v5.5c0,2.9-1.5,4.1-3.6,4.1
	c-1.9,0-3.4-1.1-3.4-4v-5.6H20.8z"/>
<path fill="#3E3C4F" d="M33.8,59.9h-3.7v3.4h4.1v1h-5.3v-9.4H34v1h-3.9v3h3.7V59.9z"/>
<path fill="#3E3C4F" d="M36.1,54.9h1.2v8.4h4v1h-5.3V54.9z"/>
<path fill="#3E3C4F" d="M54.2,60.2c-0.1-1.3-0.2-2.9-0.1-4.1h0c-0.3,1.1-0.7,2.3-1.2,3.6l-1.7,4.6h-0.9l-1.5-4.5
	c-0.4-1.3-0.8-2.5-1.1-3.7h0c0,1.2-0.1,2.8-0.2,4.2l-0.3,4H46l0.7-9.4h1.6l1.6,4.6c0.4,1.2,0.7,2.2,1,3.2h0c0.2-1,0.6-2,1-3.2
	l1.7-4.6H55l0.6,9.4h-1.2L54.2,60.2z"/>
<path fill="#3E3C4F" d="M59,54.9v9.4h-1.2v-9.4H59z"/>
<path fill="#3E3C4F" d="M61.4,64.4v-9.4h1.3l3,4.8c0.7,1.1,1.2,2.1,1.7,3.1l0,0c-0.1-1.3-0.1-2.4-0.1-3.9v-4h1.1v9.4h-1.2l-3-4.8
	c-0.7-1.1-1.3-2.1-1.8-3.2l0,0c0.1,1.2,0.1,2.3,0.1,3.9v4H61.4z"/>
<path fill="#3E3C4F" d="M70.5,63.6c0-0.5,0.4-0.9,0.8-0.9s0.8,0.4,0.8,0.9c0,0.5-0.3,0.9-0.8,0.9C70.9,64.5,70.5,64.1,70.5,63.6z"/>
</svg>
