<?xml version="1.0" encoding="utf-8"?>
<!-- Generator: Adobe Illustrator 28.7.8, SVG Export Plug-In . SVG Version: 9.03 Build 56881)  -->
<svg version="1.1" baseProfile="tiny" id="Layer_1" xmlns="http://www.w3.org/2000/svg" xmlns:xlink="http://www.w3.org/1999/xlink"
	 x="0px" y="0px" viewBox="0 0 586.5 93" overflow="visible" xml:space="preserve">
<polygon id="opacity:30_00000169557082229158797980000010195246914695698077_" fill="#00AE62" points="477.6,93 475.5,90.9 
	503,63.4 503,29.6 475.5,2.1 477.6,0 506,28.4 506,64.6 "/>
<polygon id="opacity:15_00000101788110537495878480000018305831993568261291_" fill="#00AE62" points="497.7,93 495.6,90.9 
	523.1,63.4 523.1,29.6 495.6,2.1 497.7,0 526.1,28.4 526.1,64.6 "/>
<polygon id="opacity:5" fill="#00AE62" points="517.9,93 515.7,90.9 543.3,63.4 543.3,29.6 515.7,2.1 517.9,0 546.3,28.4 
	546.3,64.6 "/>
<polygon id="opacity:1_00000157305178298044425340000001654254524714359724_" fill="#00AE62" points="538,93 535.9,90.9 563.4,63.4 
	563.4,29.6 535.9,2.1 538,0 566.4,28.4 566.4,64.6 "/>
<polygon id="opacity:0_00000015314778071438318140000006476709188035139716_" fill="#00AE62" points="558.1,93 556,90.9 583.5,63.4 
	583.5,29.6 556,2.1 558.1,0 586.5,28.4 586.5,64.6 "/>
<polygon id="opacity:80_00000068654018984444902650000003102397847977817764_" fill="#00AE62" points="457.6,93 455.5,90.9 
	483,63.4 483,29.6 455.5,2.1 457.6,0 486,28.4 486,64.6 "/>
<polygon id="opacity:100_00000067942146041765916720000014296021738131549575_" fill="#00AE62" points="486,37.6 483,37.6 483,29.6 
	479.5,26.1 481.6,24 486,28.4 "/>
<rect id="opacity:100_00000090287439002928345640000013339147655210390668_" x="457" y="0.2" transform="matrix(0.7071 -0.7071 0.7071 0.7071 132.1467 325.1323)" fill="#00AE62" width="3" height="5.6"/>
<polygon id="opacity:100_00000150809015073389195950000013771928881095827352_" fill="#00AE62" points="481.6,69.1 479.5,66.9 
	483,63.4 483,58.4 486,58.4 486,64.6 "/>
<rect id="opacity:100_00000084524735416255718410000002901021576911124146_" x="455.7" y="88.5" transform="matrix(0.7071 -0.7071 0.7071 0.7071 70.6769 350.5939)" fill="#00AE62" width="5.6" height="3"/>
<polygon id="opacity:30" fill="#00AE62" points="108.9,93 80.5,64.6 80.5,28.4 108.9,0 111,2.1 83.5,29.6 83.5,63.4 111,90.9 "/>
<polygon id="opacity:15_00000075868184963845788100000002660387297323927967_" fill="#00AE62" points="88.8,93 60.4,64.6 60.4,28.4 
	88.8,0 90.9,2.1 63.4,29.6 63.4,63.4 90.9,90.9 "/>
<polygon id="opacity:5_00000149365857674609180180000012815048391821215422_" fill="#00AE62" points="68.6,93 40.3,64.6 40.3,28.4 
	68.6,0 70.8,2.1 43.3,29.6 43.3,63.4 70.8,90.9 "/>
<polygon id="opacity:1" fill="#00AE62" points="48.5,93 20.1,64.6 20.1,28.4 48.5,0 50.6,2.1 23.1,29.6 23.1,63.4 50.6,90.9 "/>
<polygon id="opacity:0_00000067953101822707250440000000039170965047293853_" fill="#00AE62" points="28.4,93 0,64.6 0,28.4 28.4,0 
	30.5,2.1 3,29.6 3,63.4 30.5,90.9 "/>
<polygon id="opacity:80_00000054243420413533619020000007033328601921062281_" fill="#00AE62" points="128.9,93 100.5,64.6 
	100.5,28.4 128.9,0 131,2.1 103.5,29.6 103.5,63.4 131,90.9 "/>
<polygon id="opacity:100_00000031176014773466220320000003207480547958561201_" fill="#00AE62" points="103.5,34.6 100.5,34.6 
	100.5,28.4 104.9,24 107.1,26.1 103.5,29.6 "/>
<rect id="opacity:100_00000059299357618970005990000013523386260595413674_" x="125.2" y="1.6" transform="matrix(0.7071 -0.7071 0.7071 0.7071 35.3234 91.3803)" fill="#00AE62" width="5.6" height="3"/>
<polygon id="opacity:100_00000042717823229151202770000003280955053056476066_" fill="#00AE62" points="104.9,69.1 100.5,64.6 
	100.5,58.4 103.5,58.4 103.5,63.4 107.1,66.9 "/>
<rect id="opacity:100" x="126.5" y="87.2" transform="matrix(0.7071 -0.7072 0.7072 0.7071 -26.1447 116.8514)" fill="#00AE62" width="3" height="5.6"/>
</svg>
