<?xml version="1.0" encoding="utf-8"?>
<!-- Generator: Adobe Illustrator 28.7.8, SVG Export Plug-In . SVG Version: 9.03 Build 56881)  -->
<svg version="1.1" baseProfile="tiny" id="Layer_1" xmlns="http://www.w3.org/2000/svg" xmlns:xlink="http://www.w3.org/1999/xlink"
	 x="0px" y="0px" viewBox="0 0 207.1 173.1" overflow="visible" xml:space="preserve">
<polygon id="opacity:20" fill="#3F3E4F" points="193.1,172.6 205.6,138.3 205.6,34.9 193.1,0.5 14,0.5 1.5,34.9 1.5,138.3 14,172.6 
	"/>
<polygon id="opacity:15" fill="#BFD2ED" points="1.5,138.3 14,172.6 25,172.6 12.5,138.3 12.5,34.9 25,0.5 14,0.5 1.5,34.9 "/>
<polygon id="opacity:18" fill="#3F3E4F" points="12.6,173.1 0,138.5 0,34.6 12.6,0 15.4,1 3,35.2 3,138 15.4,172.1 "/>
<polygon id="opacity:60_00000173162870228670302450000018266644098423247539_" fill="#A8A5D2" points="3,40.5 0,40.5 0,34.6 2,29.1 
	4.9,30.1 3,35.2 "/>
<rect id="opacity:60_00000142144256408121295020000015590415539490735007_" x="10.3" y="1.7" transform="matrix(0.3421 -0.9397 0.9397 0.3421 5.5758 14.4004)" fill="#A8A5D2" width="5.6" height="3"/>
<polygon id="opacity:60_00000002381129302073214530000010709829888618977721_" fill="#A8A5D2" points="2,144.1 0,138.5 0,132.6 
	3,132.6 3,138 4.9,143 "/>
<rect id="opacity:60" x="11.5" y="167.2" transform="matrix(0.9397 -0.3419 0.3419 0.9397 -57.3459 14.6915)" fill="#A8A5D2" width="3" height="5.6"/>
<polygon id="opacity:15_00000139980090257929158620000017990726608600976259_" fill="#BFD2ED" points="205.6,138.3 193.1,172.6 
	182.1,172.6 194.6,138.3 194.6,34.9 182.1,0.5 193.1,0.5 205.6,34.9 "/>
<polygon id="opacity:18_00000092423399163773236750000009359549876322401434_" fill="#3F3E4F" points="194.5,173.1 207.1,138.5 
	207.1,34.6 194.5,0 191.7,1 204.1,35.2 204.1,138 191.7,172.1 "/>
<polygon id="opacity:60_00000101085781715259131050000007939684319208401552_" fill="#A8A5D2" points="204.1,40.5 207.1,40.5 
	207.1,34.6 205.1,29.1 202.3,30.1 204.1,35.2 "/>
<rect id="opacity:60_00000110443393403362911880000011812490649587685526_" x="192.6" y="0.3" transform="matrix(0.9397 -0.3421 0.3421 0.9397 10.6526 66.5803)" fill="#A8A5D2" width="3" height="5.6"/>
<polygon id="opacity:60_00000147220754820895098430000002689047176127638171_" fill="#A8A5D2" points="205.1,144.1 207.1,138.5 
	207.1,132.6 204.1,132.6 204.1,138 202.3,143 "/>
<rect id="opacity:60_00000085247939642800739620000004861792337707729593_" x="191.3" y="168.5" transform="matrix(0.3419 -0.9397 0.9397 0.3419 -31.988 294.2321)" fill="#A8A5D2" width="5.6" height="3"/>
</svg>
