<?xml version="1.0" encoding="utf-8"?>
<!-- Generator: Adobe Illustrator 28.7.8, SVG Export Plug-In . SVG Version: 9.03 Build 56881)  -->
<svg version="1.1" baseProfile="tiny" id="Layer_1" xmlns="http://www.w3.org/2000/svg" xmlns:xlink="http://www.w3.org/1999/xlink"
	 x="0px" y="0px" viewBox="0 0 134.7 29.9" overflow="visible" xml:space="preserve">
<rect fill="#FFFFFF" width="134.7" height="29.9"/>
<path fill="#0C0E15" d="M17.5,23.4L12.7,6.6h2.4L18.8,20l3.7-13.4H25L28.7,20l3.7-13.4h2.4L30,23.4h-2.6l-3.6-12.6l-3.6,12.6H17.5z"
	/>
<path fill="#0C0E15" d="M37.7,6.6h12.2V9h-9.8v4.8h8.4v2.4h-8.4V21h9.8v2.4H37.7V6.6z"/>
<path fill="#0C0E15" d="M61,6.6l6.5,16.8H65l-1.5-3.9H56l-1.5,3.9h-2.4l6.5-16.8H61z M56.9,17.1h5.7l-2.9-7.4L56.9,17.1z"/>
<path fill="#0C0E15" d="M70.3,23.4V6.6h9.2c2.7,0,4.1,1.4,4.1,4.1v2.4c0,2.7-1.4,4.1-4.1,4.1h-6.8v6.2H70.3z M72.7,14.8h6.7
	c0.6,0,1.1-0.1,1.4-0.4s0.4-0.7,0.4-1.4v-2.2c0-0.6-0.1-1.1-0.4-1.4S80,9,79.4,9h-6.7V14.8z"/>
<path fill="#0C0E15" d="M101.4,21c0,0.3-0.1,0.6-0.2,0.9s-0.3,0.5-0.5,0.8s-0.5,0.4-0.8,0.5s-0.6,0.2-0.9,0.2h-9.6
	c-0.3,0-0.6-0.1-0.9-0.2s-0.5-0.3-0.8-0.5s-0.4-0.5-0.5-0.8S87,21.3,87,21V9c0-0.3,0.1-0.6,0.2-0.9s0.3-0.5,0.5-0.8s0.5-0.4,0.8-0.5
	s0.6-0.2,0.9-0.2H99c0.3,0,0.6,0.1,0.9,0.2s0.5,0.3,0.8,0.5s0.4,0.5,0.5,0.8s0.2,0.6,0.2,0.9V21z M89.4,9v12H99V9H89.4z"/>
<path fill="#0C0E15" d="M108.1,23.4h-2.4V6.6h2.4l10.1,13v-13h2.4v16.8h-2.4l-10.1-13V23.4z"/>
</svg>
