<?xml version="1.0" encoding="utf-8"?>
<!-- Generator: Adobe Illustrator 28.7.10, SVG Export Plug-In . SVG Version: 9.03 Build 57640)  -->
<svg version="1.1" baseProfile="tiny" id="Layer_1" xmlns="http://www.w3.org/2000/svg" xmlns:xlink="http://www.w3.org/1999/xlink"
	 x="0px" y="0px" viewBox="0 0 1139.8 730.7" overflow="visible" xml:space="preserve">
<rect y="342" fill="#ACA7D3" width="10.5" height="4"/>
<rect x="275" y="342" fill="#ACA7D3" width="10.5" height="4"/>
<rect x="10.5" y="343" fill="#807DA1" width="264.5" height="2"/>
<rect x="1129.3" y="342" fill="#ACA7D3" width="10.5" height="4"/>
<rect x="854.3" y="342" fill="#ACA7D3" width="10.5" height="4"/>
<rect x="864.8" y="343" fill="#807DA1" width="264.5" height="2"/>
<rect x="965.2" y="3" transform="matrix(0.7637 -0.6455 0.6455 0.7637 226.0563 627.6177)" fill="#ACA7D3" width="10.5" height="4"/>
<rect x="755.2" y="180.5" transform="matrix(0.7637 -0.6455 0.6455 0.7637 61.8473 534.0192)" fill="#ACA7D3" width="10.5" height="4"/>
<rect x="733.2" y="92.8" transform="matrix(0.7637 -0.6455 0.6455 0.7637 143.9518 580.8184)" fill="#807DA1" width="264.5" height="2"/>
<rect x="968.5" y="677.7" transform="matrix(0.6455 -0.7638 0.7638 0.6455 -177.5359 983.3483)" fill="#ACA7D3" width="4" height="10.5"/>
<rect x="758.4" y="500.2" transform="matrix(0.6455 -0.7638 0.7638 0.6455 -116.4655 759.9833)" fill="#ACA7D3" width="4" height="10.5"/>
<rect x="864.5" y="462" transform="matrix(0.6455 -0.7638 0.7638 0.6455 -147.0006 871.7423)" fill="#807DA1" width="2" height="264.5"/>
<rect x="167.3" y="-0.3" transform="matrix(0.6455 -0.7638 0.7638 0.6455 56.2361 131.0958)" fill="#ACA7D3" width="4" height="10.5"/>
<rect x="377.4" y="177.2" transform="matrix(0.6455 -0.7638 0.7638 0.6455 -4.8408 354.4649)" fill="#ACA7D3" width="4" height="10.5"/>
<rect x="273.4" y="-38.6" transform="matrix(0.6455 -0.7638 0.7638 0.6455 25.7487 242.7517)" fill="#807DA1" width="2" height="264.5"/>
<rect x="164.1" y="681" transform="matrix(0.7637 -0.6455 0.6455 0.7637 -400.8849 270.6657)" fill="#ACA7D3" width="10.5" height="4"/>
<rect x="374.1" y="503.5" transform="matrix(0.7637 -0.6455 0.6455 0.7637 -236.7095 364.3237)" fill="#ACA7D3" width="10.5" height="4"/>
<rect x="142.1" y="593.2" transform="matrix(0.7637 -0.6455 0.6455 0.7637 -318.7802 317.4649)" fill="#807DA1" width="264.5" height="2"/>
<path fill="#3E3C4F" d="M499.8,715.5c0.6-0.1,1.5-0.2,2.3-0.2c1.3,0,2.1,0.2,2.7,0.8c0.5,0.4,0.7,1.1,0.7,1.8c0,1.2-0.8,2.1-1.8,2.4
	l0,0c0.7,0.3,1.2,0.9,1.4,1.9c0.3,1.3,0.5,2.2,0.7,2.6h-1.3c-0.2-0.3-0.4-1.1-0.6-2.3c-0.3-1.3-0.8-1.8-1.9-1.8h-1v4.1h-1.2V715.5z
	 M501,719.8h1.2c1.3,0,2.1-0.7,2.1-1.8c0-1.2-0.9-1.8-2.2-1.8c-0.6,0-1,0.1-1.2,0.1v3.5H501z"/>
<path fill="#3E3C4F" d="M507.4,723.3c0.5,0.3,1.3,0.6,2.2,0.6c1.2,0,2-0.7,2-1.6c0-0.9-0.5-1.4-1.8-1.9c-1.5-0.5-2.5-1.3-2.5-2.7
	c0-1.5,1.2-2.6,3.1-2.6c1,0,1.7,0.2,2.1,0.5l-0.3,1c-0.3-0.2-0.9-0.4-1.8-0.4c-1.3,0-1.8,0.8-1.8,1.4c0,0.9,0.6,1.3,1.9,1.8
	c1.6,0.6,2.4,1.4,2.4,2.8c0,1.5-1.1,2.7-3.3,2.7c-0.9,0-1.9-0.3-2.4-0.6L507.4,723.3z"/>
<path fill="#3E3C4F" d="M516,715.4v9.4h-1.2v-9.4H516z"/>
<path fill="#3E3C4F" d="M521.5,723.3c0.5,0.3,1.3,0.6,2.2,0.6c1.2,0,2-0.7,2-1.6c0-0.9-0.5-1.4-1.8-1.9c-1.5-0.5-2.5-1.3-2.5-2.7
	c0-1.5,1.2-2.6,3.1-2.6c1,0,1.7,0.2,2.1,0.5l-0.3,1c-0.3-0.2-0.9-0.4-1.8-0.4c-1.3,0-1.8,0.8-1.8,1.4c0,0.9,0.6,1.3,1.9,1.8
	c1.6,0.6,2.4,1.4,2.4,2.8c0,1.5-1.1,2.7-3.3,2.7c-0.9,0-1.9-0.3-2.4-0.6L521.5,723.3z"/>
<path fill="#3E3C4F" d="M528.8,715.4h1.2v8.4h4v1h-5.3L528.8,715.4L528.8,715.4z"/>
<path fill="#3E3C4F" d="M535.7,715.4h5.1v1h-3.9v3.1h3.6v1h-3.6v4.3h-1.2L535.7,715.4L535.7,715.4z"/>
<path fill="#3E3C4F" d="M542.6,723.3c0.5,0.3,1.3,0.6,2.2,0.6c1.2,0,2-0.7,2-1.6c0-0.9-0.5-1.4-1.8-1.9c-1.5-0.5-2.5-1.3-2.5-2.7
	c0-1.5,1.2-2.6,3.1-2.6c1,0,1.7,0.2,2.1,0.5l-0.3,1c-0.3-0.2-0.9-0.4-1.8-0.4c-1.3,0-1.8,0.8-1.8,1.4c0,0.9,0.6,1.3,1.9,1.8
	c1.6,0.6,2.4,1.4,2.4,2.8c0,1.5-1.1,2.7-3.3,2.7c-0.9,0-1.9-0.3-2.4-0.6L542.6,723.3z"/>
<path fill="#3E3C4F" d="M551.8,716.4h-2.9v-1h7v1H553v8.4h-1.2V716.4z"/>
<path fill="#3E3C4F" d="M560.3,723.3c0.5,0.3,1.3,0.6,2.2,0.6c1.2,0,2-0.7,2-1.6c0-0.9-0.5-1.4-1.8-1.9c-1.5-0.5-2.5-1.3-2.5-2.7
	c0-1.5,1.2-2.6,3.1-2.6c1,0,1.7,0.2,2.1,0.5l-0.3,1c-0.3-0.2-0.9-0.4-1.8-0.4c-1.3,0-1.8,0.8-1.8,1.4c0,0.9,0.6,1.3,1.9,1.8
	c1.6,0.6,2.4,1.4,2.4,2.8c0,1.5-1.1,2.7-3.3,2.7c-0.9,0-1.9-0.3-2.4-0.6L560.3,723.3z"/>
<path fill="#3E3C4F" d="M569.7,724.8v-4l-3-5.4h1.4l1.3,2.6c0.4,0.7,0.6,1.3,0.9,1.9l0,0c0.3-0.6,0.6-1.2,1-1.9l1.4-2.6h1.4
	l-3.2,5.4v4H569.7z"/>
<path fill="#3E3C4F" d="M575.2,723.3c0.5,0.3,1.3,0.6,2.2,0.6c1.2,0,2-0.7,2-1.6c0-0.9-0.5-1.4-1.8-1.9c-1.5-0.5-2.5-1.3-2.5-2.7
	c0-1.5,1.2-2.6,3.1-2.6c1,0,1.7,0.2,2.1,0.5l-0.3,1c-0.3-0.2-0.9-0.4-1.8-0.4c-1.3,0-1.8,0.8-1.8,1.4c0,0.9,0.6,1.3,1.9,1.8
	c1.6,0.6,2.4,1.4,2.4,2.8c0,1.5-1.1,2.7-3.3,2.7c-0.9,0-1.9-0.3-2.4-0.6L575.2,723.3z"/>
<path fill="#3E3C4F" d="M582.2,724.1c0-0.5,0.4-0.9,0.8-0.9s0.8,0.4,0.8,0.9s-0.3,0.9-0.8,0.9C582.5,724.9,582.2,724.6,582.2,724.1z
	"/>
<path fill="#3E3C4F" d="M590.5,724.8l-3.1-9.4h1.3l1.5,4.7c0.4,1.3,0.8,2.4,1,3.5l0,0c0.3-1.1,0.7-2.3,1.1-3.5l1.6-4.7h1.3l-3.4,9.4
	H590.5z"/>
<path fill="#3E3C4F" d="M601.5,716.7H598l-0.4,2.3c0.2,0,0.4-0.1,0.7-0.1c0.7,0,1.4,0.2,2,0.5c0.7,0.4,1.3,1.2,1.3,2.3
	c0,1.8-1.4,3.1-3.4,3.1c-1,0-1.8-0.3-2.3-0.6l0.3-0.9c0.4,0.2,1.1,0.5,1.9,0.5c1.2,0,2.2-0.8,2.2-2s-0.8-2-2.6-2
	c-0.5,0-0.9,0.1-1.3,0.1l0.6-4.4h4.4L601.5,716.7L601.5,716.7z"/>
<path fill="#3E3C4F" d="M603.4,722.5c0-1.1,0.7-2,1.8-2.4l0,0c-1-0.5-1.4-1.3-1.4-2c0-1.4,1.2-2.4,2.8-2.4c1.8,0,2.6,1.1,2.6,2.2
	c0,0.8-0.4,1.6-1.5,2.1l0,0c1.1,0.4,1.8,1.2,1.8,2.4c0,1.6-1.4,2.6-3.1,2.6C604.6,724.9,603.4,723.8,603.4,722.5z M608.3,722.4
	c0-1.1-0.8-1.6-2-2c-1.1,0.3-1.6,1-1.6,1.9s0.7,1.7,1.8,1.7C607.6,724.1,608.3,723.4,608.3,722.4z M604.9,717.9
	c0,0.9,0.7,1.4,1.7,1.7c0.8-0.3,1.4-0.8,1.4-1.7c0-0.7-0.4-1.5-1.5-1.5C605.5,716.4,604.9,717.1,604.9,717.9z"/>
<path fill="#3E3C4F" d="M611.1,724.1c0-0.5,0.4-0.9,0.8-0.9s0.8,0.4,0.8,0.9s-0.3,0.9-0.8,0.9C611.4,724.9,611.1,724.6,611.1,724.1z
	"/>
<path fill="#3E3C4F" d="M614.9,723.9c0.3,0,0.6,0,1,0c0.7-0.1,1.4-0.4,1.9-0.9c0.6-0.5,1-1.3,1.2-2.4l0,0c-0.5,0.6-1.2,1-2.1,1
	c-1.6,0-2.7-1.2-2.7-2.8c0-1.7,1.2-3.2,3.1-3.2s3,1.5,3,3.8c0,2-0.7,3.4-1.6,4.3c-0.7,0.7-1.7,1.1-2.6,1.2c-0.4,0.1-0.8,0.1-1.1,0.1
	v-1.1H614.9z M615.3,718.7c0,1.1,0.7,1.9,1.8,1.9c0.8,0,1.5-0.4,1.8-1c0.1-0.1,0.1-0.3,0.1-0.4c0-1.6-0.6-2.7-1.9-2.7
	C616.1,716.5,615.3,717.4,615.3,718.7z"/>
<path fill="#3E3C4F" d="M621,725.4l3.9-10.2h1l-3.9,10.2H621z"/>
<path fill="#3E3C4F" d="M626.1,725.4l3.9-10.2h1l-3.9,10.2H626.1z"/>
<path fill="#3E3C4F" d="M637.9,720.1c0,3.1-1.1,4.8-3.2,4.8c-1.8,0-3-1.7-3-4.7c0-3.1,1.3-4.7,3.2-4.7
	C636.8,715.5,637.9,717.2,637.9,720.1z M632.9,720.3c0,2.4,0.7,3.7,1.8,3.7c1.3,0,1.9-1.5,1.9-3.8c0-2.2-0.6-3.7-1.8-3.7
	C633.7,716.5,632.9,717.8,632.9,720.3z"/>
<path fill="#3E3C4F" d="M645.3,720.1c0,3.1-1.1,4.8-3.2,4.8c-1.8,0-3-1.7-3-4.7c0-3.1,1.3-4.7,3.2-4.7
	C644.2,715.5,645.3,717.2,645.3,720.1z M640.4,720.3c0,2.4,0.7,3.7,1.8,3.7c1.3,0,1.9-1.5,1.9-3.8c0-2.2-0.6-3.7-1.8-3.7
	C641.2,716.5,640.4,717.8,640.4,720.3z"/>
<path fill="#3E3C4F" d="M683.7,730.7H456.1v-21.3h227.6V730.7z M457.1,729.7h225.6v-19.3H457.1V729.7z"/>
</svg>
