<?xml version="1.0" encoding="utf-8"?>
<!-- Generator: Adobe Illustrator 28.7.8, SVG Export Plug-In . SVG Version: 9.03 Build 56881)  -->
<svg version="1.1" baseProfile="tiny" id="Layer_1" xmlns="http://www.w3.org/2000/svg" xmlns:xlink="http://www.w3.org/1999/xlink"
	 x="0px" y="0px" viewBox="0 0 396.9 113.6" overflow="visible" xml:space="preserve">
<polygon id="opacity:60_00000052069930599860361980000010444135329053735578_" fill="#3E3C4F" points="2.9,111.3 22.5,34.7 
	64.2,2.3 394,2.3 377.8,65.5 318.9,111.3 "/>
<path id="opacity:100_00000099643327821341316250000017466653196883447170_" fill="#F79421" d="M392.1,3.8l-15.6,60.9l-58.2,45.1
	H4.8l19-74.2L64.8,3.8H392.1 M396,0.8H63.7C47.9,13.1,37,21.5,21.2,33.8L1,112.8h318.4c22.3-17.3,37.5-29.1,59.8-46.4L396,0.8
	L396,0.8z"/>
<polygon id="opacity:60_00000010289089484313416290000010351719139264175002_" fill="#B9D4EF" points="216.3,53.1 198.6,35.4 
	188,35.4 205.7,53.1 180.6,78.2 191.3,78.2 "/>
<polygon id="opacity:100_00000144304093883641652650000002365354055561565314_" fill="#B9D4EF" points="232.1,53.1 207,78.2 
	217.7,78.2 242.7,53.1 225,35.4 214.4,35.4 "/>
<polygon id="opacity:30_00000003086979271542931840000016399874642168846771_" fill="#B9D4EF" points="164.8,78.2 189.9,53.1 
	172.2,35.4 161.5,35.4 179.2,53.1 154.2,78.2 "/>
<polygon id="opacity:100_00000151546083102166005680000005121775493091843462_" fill="#F79421" points="1.9,113 0,112.5 20.3,33.2 
	63.1,0 64.3,1.6 22.1,34.4 "/>
<rect id="opacity:100_00000055678622402459872080000002637163052925393036_" x="-3.2" y="106.3" transform="matrix(0.253 -0.9675 0.9675 0.253 -102.0641 82.5022)" fill="#FDE757" width="11.3" height="2"/>
<rect id="opacity:100_00000109745539144088919430000017488947090053363098_" x="53.6" y="3.2" transform="matrix(0.7899 -0.6132 0.6132 0.7899 9.8507 37.2386)" fill="#FDE757" width="11.3" height="2"/>
<polygon id="opacity:100_00000099663307063086211760000001172772021391228071_" fill="#FDE757" points="20.8,39.5 18.8,39 
	20.3,33.2 25,29.6 26.2,31.1 22.1,34.4 "/>
<polygon id="opacity:100_00000149340228605198086020000013575777572762075579_" fill="#F79421" points="320,113.6 318.8,112 
	378.3,65.8 395,0.5 396.9,1 380.1,67 "/>
<rect id="opacity:100_00000127733413518001027290000011357315642523406266_" x="388.9" y="5.2" transform="matrix(0.2529 -0.9675 0.9675 0.2529 288.743 386.3787)" fill="#FDE757" width="11.3" height="2"/>
<rect id="opacity:100_00000183226402354322390500000005457206645604116155_" x="318.2" y="108.3" transform="matrix(0.7899 -0.6132 0.6132 0.7899 0.9815 221.5402)" fill="#FDE757" width="11.3" height="2"/>
<polygon id="opacity:100_00000148644485343773359620000008327895059738479773_" fill="#FDE757" points="375.3,70.6 374.1,69 
	378.3,65.8 379.6,60.7 381.5,61.2 380.1,67 "/>
</svg>
