<?xml version="1.0" encoding="utf-8"?>
<!-- Generator: Adobe Illustrator 28.7.10, SVG Export Plug-In . SVG Version: 9.03 Build 57640)  -->
<svg version="1.1" baseProfile="tiny" id="Layer_1" xmlns="http://www.w3.org/2000/svg" xmlns:xlink="http://www.w3.org/1999/xlink"
	 x="0px" y="0px" viewBox="0 0 1360.5 789.4" overflow="visible" xml:space="preserve">
<g>
	<g>
		<rect x="1350" y="394.7" fill="#AAA6D2" width="10.5" height="4"/>
	</g>
	<g>
		<rect x="1274.9" y="394.7" fill="#AAA6D2" width="10.5" height="4"/>
	</g>
	<g>
		<rect x="1285.5" y="395.7" fill="#7F7DA0" width="64.5" height="2"/>
	</g>
</g>
<g>
	<g>
		
			<rect x="1117.5" y="775.9" transform="matrix(0.7899 -0.6132 0.6132 0.7899 -237.2155 861.3609)" fill="#7F7DA0" width="42.1" height="2"/>
	</g>
	<g>
		<polygon fill="#AAA6D2" points="1156.4,765.6 1154,762.4 1162.7,755.6 1166.4,741 1170.3,742 1166.2,757.9 		"/>
	</g>
	<g>
		
			<rect x="1055.2" y="595.1" transform="matrix(0.2461 -0.9692 0.9692 0.2461 330.937 1617.5974)" fill="#7F7DA0" width="300.2" height="2"/>
	</g>
	<g>
		<polygon fill="#AAA6D2" points="1244.2,451.1 1240.3,450.1 1244.6,433.2 1256.7,433.2 1256.7,437.2 1247.7,437.2 		"/>
	</g>
	<g>
		
			<rect x="1121" y="785" transform="matrix(0.7899 -0.6132 0.6132 0.7899 -246.1157 855.5217)" fill="#AAA6D2" width="9.3" height="4"/>
	</g>
</g>
<g>
	<g>
		
			<rect x="1137.6" y="-4.6" transform="matrix(0.6132 -0.7899 0.7899 0.6132 427.3634 905.7628)" fill="#7F7DA0" width="2" height="42.1"/>
	</g>
	<g>
		<polygon fill="#AAA6D2" points="1166.4,52.4 1162.7,37.8 1154,31 1156.4,27.8 1166.2,35.5 1170.3,51.4 		"/>
	</g>
	<g>
		
			<rect x="1204.3" y="47.2" transform="matrix(0.9693 -0.2461 0.2461 0.9693 -11.4981 302.6463)" fill="#7F7DA0" width="2" height="300.2"/>
	</g>
	<g>
		<polygon fill="#AAA6D2" points="1256.7,360.2 1244.6,360.2 1240.3,343.3 1244.2,342.3 1247.7,356.2 1256.7,356.2 		"/>
	</g>
	<g>
		
			<rect x="1123.6" y="1.8" transform="matrix(0.6132 -0.7899 0.7899 0.6132 430.3081 891.6265)" fill="#AAA6D2" width="4" height="9.3"/>
	</g>
</g>
<g>
	<g>
		<path fill="#3D3C4F" d="M1306.7,352.9c-0.5,0-0.9-0.3-1-0.8l-1.2-4.9l5.3-2.6c1.3-0.6,2.4-1.9,2.8-3.5l1.8-7
			c0.5-1.7-0.7-3.2-2.5-3.2h-19.7l-7.3,28.7h6.9l1.8-7l4.7-2.3l1.7,6.9c0.3,1.3,1.6,2.4,3,2.4h5.5l1.7-6.7H1306.7z M1295.8,344.2
			l0.1-0.2l1.7-6.5h7.6h0.4c0.6,0,1,0.2,0.9,0.7c-0.1,0.4-0.4,0.9-1.2,1.2L1295.8,344.2z M1335.3,350.9l-1.6,6.3
			c-0.3,1.3-1.7,2.4-3.1,2.4h-14l1.7-6.7h8.4c0.6,0,1.1-0.4,1.2-0.8c0.2-0.5,0-0.9-0.6-1.3l-11.2-7.5c-1.1-0.7-1.7-2.4-1.4-3.7
			l1.6-6.3c0.3-1.3,1.7-2.4,3-2.4l16,0h0l0,0l-1.7,6.6l0,0h0l-10.4,0c-0.6,0-1.1,0.2-1.2,0.9c-0.2,0.6,0.1,1.1,0.7,1.5l11.1,7.3
			C1335,347.9,1335.6,349.6,1335.3,350.9z M1350.5,330.9l-7.3,28.7h-7l7.4-28.7h0l0,0L1350.5,330.9z M1314.8,352.9l-1.7,6.7h0h-1.1
			h0l1.7-6.7h0H1314.8L1314.8,352.9z M1312.5,352.9l-1.7,6.7h0h-1.1h0l1.7-6.7l0,0H1312.5L1312.5,352.9z M1317.1,352.9l-1.7,6.7
			h-1.1h-0.1l1.7-6.7h0.1H1317.1z M1339.5,337.5l1.7-6.6h1.1l-1.7,6.6H1339.5z M1337.2,337.5l1.7-6.6h1.1l-1.7,6.6H1337.2z
			 M1336,337.5L1336,337.5L1336,337.5l-1.1,0h-0.1l0,0l1.7-6.6l0,0h0.1h1.1l0,0h0L1336,337.5z"/>
	</g>
</g>
<g>
	<g>
		<path fill="#3D3C4F" d="M1284.9,431.9c0.6-0.1,1.5-0.2,2.3-0.2c1.3,0,2.1,0.2,2.7,0.8c0.5,0.4,0.7,1.1,0.7,1.8
			c0,1.2-0.8,2.1-1.8,2.4v0c0.7,0.3,1.2,0.9,1.4,1.9c0.3,1.3,0.5,2.2,0.7,2.6h-1.3c-0.2-0.3-0.4-1.1-0.6-2.3
			c-0.3-1.3-0.8-1.8-1.9-1.8h-1.1v4.1h-1.2V431.9z M1286.1,436.2h1.2c1.3,0,2.1-0.7,2.1-1.8c0-1.2-0.9-1.8-2.2-1.8
			c-0.6,0-1,0.1-1.2,0.1V436.2z"/>
		<path fill="#3D3C4F" d="M1292.5,439.8c0.5,0.3,1.3,0.6,2.2,0.6c1.2,0,2-0.7,2-1.6c0-0.9-0.5-1.4-1.8-1.9c-1.5-0.5-2.5-1.3-2.5-2.7
			c0-1.5,1.2-2.6,3.1-2.6c1,0,1.7,0.2,2.1,0.5l-0.3,1c-0.3-0.2-0.9-0.4-1.8-0.4c-1.3,0-1.8,0.8-1.8,1.4c0,0.9,0.6,1.3,1.9,1.8
			c1.6,0.6,2.4,1.4,2.4,2.8c0,1.5-1.1,2.7-3.3,2.7c-0.9,0-1.9-0.3-2.4-0.6L1292.5,439.8z"/>
		<path fill="#3D3C4F" d="M1301.1,431.8v9.4h-1.2v-9.4H1301.1z"/>
		<path fill="#3D3C4F" d="M1307.9,432.9h-2.9v-1h7v1h-2.9v8.4h-1.2V432.9z"/>
		<path fill="#3D3C4F" d="M1313.9,438.3l-1,3h-1.3l3.2-9.4h1.5l3.2,9.4h-1.3l-1-3H1313.9z M1317,437.3l-0.9-2.7
			c-0.2-0.6-0.4-1.2-0.5-1.7h0c-0.1,0.6-0.3,1.1-0.5,1.7l-0.9,2.7H1317z"/>
		<path fill="#3D3C4F" d="M1321.2,431.9c0.6-0.1,1.5-0.2,2.3-0.2c1.3,0,2.1,0.2,2.7,0.8c0.5,0.4,0.7,1.1,0.7,1.8
			c0,1.2-0.8,2.1-1.8,2.4v0c0.7,0.3,1.2,0.9,1.4,1.9c0.3,1.3,0.5,2.2,0.7,2.6h-1.3c-0.2-0.3-0.4-1.1-0.6-2.3
			c-0.3-1.3-0.8-1.8-1.9-1.8h-1.1v4.1h-1.2V431.9z M1322.4,436.2h1.2c1.3,0,2.1-0.7,2.1-1.8c0-1.2-0.9-1.8-2.2-1.8
			c-0.6,0-1,0.1-1.2,0.1V436.2z"/>
		<path fill="#3D3C4F" d="M1336.2,440.8c-0.5,0.2-1.6,0.5-2.9,0.5c-1.4,0-2.6-0.4-3.5-1.2c-0.8-0.8-1.3-2-1.3-3.5
			c0-2.8,1.9-4.9,5.1-4.9c1.1,0,1.9,0.2,2.4,0.4l-0.3,1c-0.5-0.2-1.1-0.4-2.1-0.4c-2.3,0-3.8,1.4-3.8,3.8c0,2.4,1.4,3.8,3.6,3.8
			c0.8,0,1.3-0.1,1.6-0.3v-2.8h-1.9v-1h3.1V440.8z"/>
		<path fill="#3D3C4F" d="M1343.2,436.8h-3.7v3.4h4.1v1h-5.3v-9.4h5.1v1h-3.9v3h3.7V436.8z"/>
		<path fill="#3D3C4F" d="M1347.5,432.9h-2.9v-1h7v1h-2.9v8.4h-1.2V432.9z"/>
		<path fill="#3D3C4F" d="M1285.8,456.6c0.5,0.3,1.3,0.6,2.2,0.6c1.2,0,2-0.7,2-1.6c0-0.9-0.5-1.4-1.8-1.9c-1.5-0.5-2.5-1.3-2.5-2.7
			c0-1.5,1.2-2.6,3.1-2.6c1,0,1.7,0.2,2.1,0.5l-0.3,1c-0.3-0.2-0.9-0.4-1.8-0.4c-1.3,0-1.8,0.8-1.8,1.4c0,0.9,0.6,1.3,1.9,1.8
			c1.6,0.6,2.4,1.4,2.4,2.8c0,1.5-1.1,2.7-3.3,2.7c-0.9,0-1.9-0.3-2.4-0.6L1285.8,456.6z"/>
		<path fill="#3D3C4F" d="M1295.3,458.1v-4l-3-5.4h1.4l1.3,2.6c0.4,0.7,0.6,1.3,0.9,1.9h0c0.3-0.6,0.6-1.2,1-1.9l1.4-2.6h1.4
			l-3.2,5.4v4H1295.3z"/>
		<path fill="#3D3C4F" d="M1300.7,456.6c0.5,0.3,1.3,0.6,2.2,0.6c1.2,0,2-0.7,2-1.6c0-0.9-0.5-1.4-1.8-1.9c-1.5-0.5-2.5-1.3-2.5-2.7
			c0-1.5,1.2-2.6,3.1-2.6c1,0,1.7,0.2,2.1,0.5l-0.3,1c-0.3-0.2-0.9-0.4-1.8-0.4c-1.3,0-1.8,0.8-1.8,1.4c0,0.9,0.6,1.3,1.9,1.8
			c1.6,0.6,2.4,1.4,2.4,2.8c0,1.5-1.1,2.7-3.3,2.7c-0.9,0-1.9-0.3-2.4-0.6L1300.7,456.6z"/>
		<path fill="#3D3C4F" d="M1312.9,458.1l-3.1-9.4h1.3l1.5,4.7c0.4,1.3,0.8,2.4,1,3.5h0c0.3-1.1,0.7-2.3,1.1-3.5l1.6-4.7h1.3
			l-3.4,9.4H1312.9z"/>
		<path fill="#3D3C4F" d="M1324.4,449v0.8l-4,8.3h-1.3l4-8.1v0h-4.5v-1H1324.4z"/>
		<path fill="#3D3C4F" d="M1326.6,457.2c0.3,0,0.6,0,1,0c0.7-0.1,1.4-0.4,1.9-0.9c0.6-0.5,1-1.3,1.2-2.4h0c-0.5,0.6-1.2,1-2.1,1
			c-1.6,0-2.7-1.2-2.7-2.8c0-1.7,1.2-3.2,3.1-3.2s3,1.5,3,3.8c0,2-0.7,3.4-1.6,4.3c-0.7,0.7-1.7,1.1-2.6,1.2
			c-0.4,0.1-0.8,0.1-1.1,0.1V457.2z M1327.1,451.9c0,1.1,0.7,1.9,1.8,1.9c0.8,0,1.5-0.4,1.8-1c0.1-0.1,0.1-0.3,0.1-0.4
			c0-1.6-0.6-2.7-1.9-2.7C1327.8,449.7,1327.1,450.7,1327.1,451.9z"/>
		<path fill="#3D3C4F" d="M1332.7,458.6l3.9-10.2h1l-3.9,10.2H1332.7z"/>
		<path fill="#3D3C4F" d="M1337.8,458.6l3.9-10.2h1l-3.9,10.2H1337.8z"/>
		<path fill="#3D3C4F" d="M1344,448.7c0.5-0.1,1.4-0.2,2.2-0.2c1.2,0,2,0.2,2.6,0.7c0.5,0.4,0.8,0.9,0.8,1.7c0,0.9-0.6,1.7-1.6,2.1
			v0c0.9,0.2,1.9,1,1.9,2.4c0,0.8-0.3,1.4-0.8,1.9c-0.7,0.6-1.7,0.9-3.3,0.9c-0.8,0-1.5-0.1-1.9-0.1V448.7z M1345.2,452.6h1.1
			c1.3,0,2-0.7,2-1.6c0-1.1-0.8-1.5-2.1-1.5c-0.6,0-0.9,0-1.1,0.1V452.6z M1345.2,457.1c0.2,0,0.6,0.1,1,0.1c1.3,0,2.4-0.5,2.4-1.8
			c0-1.3-1.1-1.8-2.4-1.8h-1V457.1z"/>
	</g>
</g>
<g>
	<g>
		
			<rect x="220.9" y="755.8" transform="matrix(0.6132 -0.7899 0.7899 0.6132 -527.837 475.8051)" fill="#7F7DA0" width="2" height="42.1"/>
	</g>
	<g>
		<polygon fill="#AAA6D2" points="204.1,765.6 194.3,757.9 190.2,742 194.1,741 197.8,755.6 206.5,762.4 		"/>
	</g>
	<g>
		
			<rect x="154.2" y="446" transform="matrix(0.9693 -0.2461 0.2461 0.9693 -141.8986 56.5192)" fill="#7F7DA0" width="2" height="300.2"/>
	</g>
	<g>
		<polygon fill="#AAA6D2" points="116.3,451.1 112.8,437.2 103.8,437.2 103.8,433.2 115.9,433.2 120.2,450.1 		"/>
	</g>
	<g>
		
			<rect x="232.9" y="782.3" transform="matrix(0.6132 -0.7899 0.7899 0.6132 -530.7646 489.9219)" fill="#AAA6D2" width="4" height="9.3"/>
	</g>
</g>
<g>
	<g>
		
			<rect x="200.9" y="15.5" transform="matrix(0.7899 -0.6132 0.6132 0.7899 36.5055 139.5626)" fill="#7F7DA0" width="42.1" height="2"/>
	</g>
	<g>
		<polygon fill="#AAA6D2" points="194.1,52.4 190.2,51.4 194.3,35.5 204.1,27.8 206.5,31 197.8,37.8 		"/>
	</g>
	<g>
		
			<rect x="5.1" y="196.3" transform="matrix(0.2461 -0.9692 0.9692 0.2461 -74.2484 299.2088)" fill="#7F7DA0" width="300.2" height="2"/>
	</g>
	<g>
		<polygon fill="#AAA6D2" points="115.9,360.2 103.8,360.2 103.8,356.2 112.8,356.2 116.3,342.3 120.2,343.3 		"/>
	</g>
	<g>
		
			<rect x="230.3" y="4.4" transform="matrix(0.7899 -0.6132 0.6132 0.7899 45.4054 145.4017)" fill="#AAA6D2" width="9.3" height="4"/>
	</g>
</g>
<g>
	<g>
		<rect y="394.7" fill="#AAA6D2" width="10.5" height="4"/>
	</g>
	<g>
		<rect x="75" y="394.7" fill="#AAA6D2" width="10.5" height="4"/>
	</g>
	<g>
		<rect x="10.5" y="395.7" fill="#7F7DA0" width="64.5" height="2"/>
	</g>
</g>
<g>
	<g>
		<path fill="#3D3C4F" d="M9.9,431.9c0.6-0.1,1.5-0.2,2.3-0.2c1.3,0,2.1,0.2,2.7,0.8c0.5,0.4,0.7,1.1,0.7,1.8c0,1.2-0.8,2.1-1.8,2.4
			v0c0.7,0.3,1.2,0.9,1.4,1.9c0.3,1.3,0.5,2.2,0.7,2.6h-1.3c-0.2-0.3-0.4-1.1-0.6-2.3c-0.3-1.3-0.8-1.8-1.9-1.8h-1.1v4.1H9.9V431.9z
			 M11.1,436.2h1.2c1.3,0,2.1-0.7,2.1-1.8c0-1.2-0.9-1.8-2.2-1.8c-0.6,0-1,0.1-1.2,0.1V436.2z"/>
		<path fill="#3D3C4F" d="M17.6,439.8c0.5,0.3,1.3,0.6,2.2,0.6c1.2,0,2-0.7,2-1.6c0-0.9-0.5-1.4-1.8-1.9c-1.5-0.5-2.5-1.3-2.5-2.7
			c0-1.5,1.2-2.6,3.1-2.6c1,0,1.7,0.2,2.1,0.5l-0.3,1c-0.3-0.2-0.9-0.4-1.8-0.4c-1.3,0-1.8,0.8-1.8,1.4c0,0.9,0.6,1.3,1.9,1.8
			c1.6,0.6,2.4,1.4,2.4,2.8c0,1.5-1.1,2.7-3.3,2.7c-0.9,0-1.9-0.3-2.4-0.6L17.6,439.8z"/>
		<path fill="#3D3C4F" d="M26.1,431.8v9.4h-1.2v-9.4H26.1z"/>
		<path fill="#3D3C4F" d="M33,432.9h-2.9v-1h7v1h-2.9v8.4H33V432.9z"/>
		<path fill="#3D3C4F" d="M38.9,438.3l-1,3h-1.3l3.2-9.4h1.5l3.2,9.4h-1.3l-1-3H38.9z M42,437.3l-0.9-2.7c-0.2-0.6-0.4-1.2-0.5-1.7
			h0c-0.1,0.6-0.3,1.1-0.5,1.7l-0.9,2.7H42z"/>
		<path fill="#3D3C4F" d="M46.3,431.9c0.6-0.1,1.5-0.2,2.3-0.2c1.3,0,2.1,0.2,2.7,0.8c0.5,0.4,0.7,1.1,0.7,1.8
			c0,1.2-0.8,2.1-1.8,2.4v0c0.7,0.3,1.2,0.9,1.4,1.9c0.3,1.3,0.5,2.2,0.7,2.6h-1.3c-0.2-0.3-0.4-1.1-0.6-2.3
			c-0.3-1.3-0.8-1.8-1.9-1.8h-1.1v4.1h-1.2V431.9z M47.5,436.2h1.2c1.3,0,2.1-0.7,2.1-1.8c0-1.2-0.9-1.8-2.2-1.8
			c-0.6,0-1,0.1-1.2,0.1V436.2z"/>
		<path fill="#3D3C4F" d="M61.3,440.8c-0.5,0.2-1.6,0.5-2.9,0.5c-1.4,0-2.6-0.4-3.5-1.2c-0.8-0.8-1.3-2-1.3-3.5
			c0-2.8,1.9-4.9,5.1-4.9c1.1,0,1.9,0.2,2.4,0.4l-0.3,1c-0.5-0.2-1.1-0.4-2.1-0.4c-2.3,0-3.8,1.4-3.8,3.8c0,2.4,1.4,3.8,3.6,3.8
			c0.8,0,1.3-0.1,1.6-0.3v-2.8h-1.9v-1h3.1V440.8z"/>
		<path fill="#3D3C4F" d="M68.3,436.8h-3.7v3.4h4.1v1h-5.3v-9.4h5.1v1h-3.9v3h3.7V436.8z"/>
		<path fill="#3D3C4F" d="M72.6,432.9h-2.9v-1h7v1h-2.9v8.4h-1.2V432.9z"/>
		<path fill="#3D3C4F" d="M10.9,456.6c0.5,0.3,1.3,0.6,2.2,0.6c1.2,0,2-0.7,2-1.6c0-0.9-0.5-1.4-1.8-1.9c-1.5-0.5-2.5-1.3-2.5-2.7
			c0-1.5,1.2-2.6,3.1-2.6c1,0,1.7,0.2,2.1,0.5l-0.3,1c-0.3-0.2-0.9-0.4-1.8-0.4c-1.3,0-1.8,0.8-1.8,1.4c0,0.9,0.6,1.3,1.9,1.8
			c1.6,0.6,2.4,1.4,2.4,2.8c0,1.5-1.1,2.7-3.3,2.7c-0.9,0-1.9-0.3-2.4-0.6L10.9,456.6z"/>
		<path fill="#3D3C4F" d="M20.4,458.1v-4l-3-5.4h1.4l1.3,2.6c0.4,0.7,0.6,1.3,0.9,1.9h0c0.3-0.6,0.6-1.2,1-1.9l1.4-2.6h1.4l-3.2,5.4
			v4H20.4z"/>
		<path fill="#3D3C4F" d="M25.8,456.6c0.5,0.3,1.3,0.6,2.2,0.6c1.2,0,2-0.7,2-1.6c0-0.9-0.5-1.4-1.8-1.9c-1.5-0.5-2.5-1.3-2.5-2.7
			c0-1.5,1.2-2.6,3.1-2.6c1,0,1.7,0.2,2.1,0.5l-0.3,1c-0.3-0.2-0.9-0.4-1.8-0.4c-1.3,0-1.8,0.8-1.8,1.4c0,0.9,0.6,1.3,1.9,1.8
			c1.6,0.6,2.4,1.4,2.4,2.8c0,1.5-1.1,2.7-3.3,2.7c-0.9,0-1.9-0.3-2.4-0.6L25.8,456.6z"/>
		<path fill="#3D3C4F" d="M37.9,458.1l-3.1-9.4h1.3l1.5,4.7c0.4,1.3,0.8,2.4,1,3.5h0c0.3-1.1,0.7-2.3,1.1-3.5l1.6-4.7h1.3l-3.4,9.4
			H37.9z"/>
		<path fill="#3D3C4F" d="M49.4,449v0.8l-4,8.3h-1.3l4-8.1v0h-4.5v-1H49.4z"/>
		<path fill="#3D3C4F" d="M51.7,457.2c0.3,0,0.6,0,1,0c0.7-0.1,1.4-0.4,1.9-0.9c0.6-0.5,1-1.3,1.2-2.4h0c-0.5,0.6-1.2,1-2.1,1
			c-1.6,0-2.7-1.2-2.7-2.8c0-1.7,1.2-3.2,3.1-3.2s3,1.5,3,3.8c0,2-0.7,3.4-1.6,4.3c-0.7,0.7-1.7,1.1-2.6,1.2
			c-0.4,0.1-0.8,0.1-1.1,0.1V457.2z M52.1,451.9c0,1.1,0.7,1.9,1.8,1.9c0.8,0,1.5-0.4,1.8-1c0.1-0.1,0.1-0.3,0.1-0.4
			c0-1.6-0.6-2.7-1.9-2.7C52.9,449.7,52.1,450.7,52.1,451.9z"/>
		<path fill="#3D3C4F" d="M57.8,458.6l3.9-10.2h1l-3.9,10.2H57.8z"/>
		<path fill="#3D3C4F" d="M62.9,458.6l3.9-10.2h1l-3.9,10.2H62.9z"/>
		<path fill="#3D3C4F" d="M69,448.7c0.5-0.1,1.4-0.2,2.2-0.2c1.2,0,2,0.2,2.6,0.7c0.5,0.4,0.8,0.9,0.8,1.7c0,0.9-0.6,1.7-1.6,2.1v0
			c0.9,0.2,1.9,1,1.9,2.4c0,0.8-0.3,1.4-0.8,1.9c-0.7,0.6-1.7,0.9-3.3,0.9c-0.8,0-1.5-0.1-1.9-0.1V448.7z M70.3,452.6h1.1
			c1.3,0,2-0.7,2-1.6c0-1.1-0.8-1.5-2.1-1.5c-0.6,0-0.9,0-1.1,0.1V452.6z M70.3,457.1c0.2,0,0.6,0.1,1,0.1c1.3,0,2.4-0.5,2.4-1.8
			c0-1.3-1.1-1.8-2.4-1.8h-1V457.1z"/>
	</g>
</g>
<g>
	<g>
		<path fill="#3D3C4F" d="M14,349.8h-2.9v-1h7v1h-2.9v8.4H14V349.8z"/>
		<path fill="#3D3C4F" d="M19.4,348.9c0.6-0.1,1.5-0.2,2.3-0.2c1.3,0,2.1,0.2,2.7,0.8c0.5,0.4,0.7,1.1,0.7,1.8
			c0,1.2-0.8,2.1-1.8,2.4v0c0.7,0.3,1.2,0.9,1.4,1.9c0.3,1.3,0.5,2.2,0.7,2.6h-1.3c-0.2-0.3-0.4-1.1-0.6-2.3
			c-0.3-1.3-0.8-1.8-1.9-1.8h-1.1v4.1h-1.2V348.9z M20.6,353.2h1.2c1.3,0,2.1-0.7,2.1-1.8c0-1.2-0.9-1.8-2.2-1.8
			c-0.6,0-1,0.1-1.2,0.1V353.2z"/>
		<path fill="#3D3C4F" d="M34.4,357.8c-0.5,0.2-1.6,0.5-2.9,0.5c-1.4,0-2.6-0.4-3.5-1.2c-0.8-0.8-1.3-2-1.3-3.5
			c0-2.8,1.9-4.9,5.1-4.9c1.1,0,1.9,0.2,2.4,0.4l-0.3,1c-0.5-0.2-1.1-0.4-2.1-0.4c-2.3,0-3.8,1.4-3.8,3.8c0,2.4,1.4,3.8,3.6,3.8
			c0.8,0,1.3-0.1,1.6-0.3v-2.8h-1.9v-1h3.1V357.8z"/>
		<path fill="#3D3C4F" d="M38.4,349.8h-2.9v-1h7v1h-2.9v8.4h-1.2V349.8z"/>
		<path fill="#3D3C4F" d="M46.5,355.9c0-1.1,0.7-2,1.8-2.4l0,0c-1-0.5-1.4-1.3-1.4-2c0-1.4,1.2-2.4,2.8-2.4c1.8,0,2.6,1.1,2.6,2.2
			c0,0.8-0.4,1.6-1.5,2.1v0c1.1,0.4,1.8,1.2,1.8,2.4c0,1.6-1.4,2.6-3.1,2.6C47.7,358.4,46.5,357.3,46.5,355.9z M51.4,355.9
			c0-1.1-0.8-1.6-2-2c-1.1,0.3-1.6,1-1.6,1.9c0,0.9,0.7,1.7,1.8,1.7C50.7,357.5,51.4,356.8,51.4,355.9z M48,351.3
			c0,0.9,0.7,1.4,1.7,1.7c0.8-0.3,1.4-0.8,1.4-1.7c0-0.7-0.4-1.5-1.5-1.5C48.6,349.9,48,350.5,48,351.3z"/>
		<path fill="#3D3C4F" d="M60,349.1v0.8l-4,8.3h-1.3l4-8.1v0h-4.5v-1H60z"/>
		<path fill="#3D3C4F" d="M62.3,357.4c0.3,0,0.6,0,1,0c0.7-0.1,1.4-0.4,1.9-0.9c0.6-0.5,1-1.3,1.2-2.4h0c-0.5,0.6-1.2,1-2.1,1
			c-1.6,0-2.7-1.2-2.7-2.8c0-1.7,1.2-3.2,3.1-3.2c1.9,0,3,1.5,3,3.8c0,2-0.7,3.4-1.6,4.3c-0.7,0.7-1.7,1.1-2.6,1.2
			c-0.4,0.1-0.8,0.1-1.1,0.1V357.4z M62.7,352.1c0,1.1,0.7,1.9,1.8,1.9c0.8,0,1.5-0.4,1.8-1c0.1-0.1,0.1-0.3,0.1-0.4
			c0-1.6-0.6-2.7-1.9-2.7C63.5,349.9,62.7,350.8,62.7,352.1z"/>
		<path fill="#3D3C4F" d="M69.1,352.6c0-0.5,0.4-0.9,0.8-0.9s0.8,0.4,0.8,0.9c0,0.5-0.3,0.9-0.8,0.9
			C69.5,353.5,69.1,353.1,69.1,352.6z M69.1,357.5c0-0.5,0.4-0.9,0.8-0.9s0.8,0.4,0.8,0.9c0,0.5-0.3,0.9-0.8,0.9
			C69.5,358.4,69.1,358,69.1,357.5z"/>
		<path fill="#3D3C4F" d="M72.3,352.6c0-0.5,0.4-0.9,0.8-0.9s0.8,0.4,0.8,0.9c0,0.5-0.3,0.9-0.8,0.9
			C72.6,353.5,72.3,353.1,72.3,352.6z M72.3,357.5c0-0.5,0.4-0.9,0.8-0.9s0.8,0.4,0.8,0.9c0,0.5-0.3,0.9-0.8,0.9
			C72.6,358.4,72.3,358,72.3,357.5z"/>
	</g>
</g>
</svg>
