<?xml version="1.0" encoding="utf-8"?>
<!-- Generator: Adobe Illustrator 28.7.8, SVG Export Plug-In . SVG Version: 9.03 Build 56881)  -->
<svg version="1.1" baseProfile="tiny" id="Layer_1" xmlns="http://www.w3.org/2000/svg" xmlns:xlink="http://www.w3.org/1999/xlink"
	 x="0px" y="0px" viewBox="0 0 86.3 32.9" overflow="visible" xml:space="preserve">
<g>
	<rect fill="#A9A6D2" width="86.3" height="29.9"/>
</g>
<g>
	<path fill="#0C0E15" d="M12,6.6h13.4V9h-5.5v14.4h-2.4V9H12V6.6z"/>
	<path fill="#0C0E15" d="M29.4,6.6l4.9,7.9l4.9-7.9H42l-6.5,10.1v6.7h-2.4v-6.7L26.7,6.6H29.4z"/>
	<path fill="#0C0E15" d="M44.7,23.4V6.6h9.2c2.7,0,4.1,1.4,4.1,4.1v2.4c0,2.7-1.4,4.1-4.1,4.1h-6.8v6.2H44.7z M47.1,14.8h6.7
		c0.6,0,1.1-0.1,1.4-0.4s0.4-0.7,0.4-1.4v-2.2c0-0.6-0.1-1.1-0.4-1.4S54.4,9,53.7,9h-6.7V14.8z"/>
	<path fill="#0C0E15" d="M61.3,6.6h12.2V9h-9.8v4.8h8.4v2.4h-8.4V21h9.8v2.4H61.3V6.6z"/>
</g>
</svg>
