<?xml version="1.0" encoding="utf-8"?>
<!-- Generator: Adobe Illustrator 28.7.8, SVG Export Plug-In . SVG Version: 9.03 Build 56881)  -->
<svg version="1.1" baseProfile="tiny" id="Layer_1" xmlns="http://www.w3.org/2000/svg" xmlns:xlink="http://www.w3.org/1999/xlink"
	 x="0px" y="0px" viewBox="0 0 593.5 101.1" overflow="visible" xml:space="preserve">
<polygon id="opacity:60" fill="#3E3C4F" points="12.4,99 1,87.6 1,1 591,1 591,75.6 567.6,99 "/>
<path id="opacity:100_00000005979285887721445620000010054701808490116513_" fill="#F89521" d="M590,2v73.2L567.2,98H12.8L2,87.2V2
	H590 M592,0H0v88c4.7,4.7,7.3,7.3,12,12h556c9.3-9.3,14.7-14.7,24-24V0L592,0z"/>
<polygon id="opacity:100" fill="#F89521" points="569.1,101.1 567,99 590.5,75.4 590.5,0 593.5,0 593.5,76.7 "/>
<polygon id="opacity:100_00000173132080161966188550000000058377725087745962_" fill="#FCE756" points="589.1,81.1 587,79 
	590.5,75.4 590.5,70.4 593.5,70.4 593.5,76.7 "/>
<rect id="opacity:100_00000069366448044388028610000000124138385721726086_" x="567.2" y="96.5" transform="matrix(0.7071 -0.7071 0.7071 0.7071 97.6257 431.7532)" fill="#FCE756" width="5.6" height="3"/>
<rect id="opacity:100_00000136407811771022413520000015222857329199709357_" x="590.5" fill="#FCE756" width="3" height="10.4"/>
</svg>
