<?xml version="1.0" encoding="utf-8"?>
<!-- Generator: Adobe Illustrator 28.7.8, SVG Export Plug-In . SVG Version: 9.03 Build 56881)  -->
<svg version="1.1" baseProfile="tiny" id="Layer_1" xmlns="http://www.w3.org/2000/svg" xmlns:xlink="http://www.w3.org/1999/xlink"
	 x="0px" y="0px" viewBox="0 0 804.8 38.7" overflow="visible" xml:space="preserve">
<g>
	<path fill="#EF4145" d="M2.1,4.8l4.2-4.3C6.7,0.2,7.2,0,7.8,0h3.3c0.6,0,0.9,0.8,0.5,1.2l-5,5.6c-1,1-1.5,2.3-1.5,3.7v17.5
		c0,1.4,0.6,2.7,1.5,3.7l5,5.6c0.4,0.4,0.1,1.2-0.5,1.2H7.8c-0.5,0-1.1-0.2-1.5-0.6l-4.2-4.3c-1.3-1.3-2.1-3.1-2.1-5v-9.5V9.8
		C0,7.9,0.8,6.2,2.1,4.8z"/>
	<path fill="#EF4145" d="M18,4.8l4.2-4.3C22.6,0.2,23.1,0,23.6,0H27c0.6,0,0.9,0.8,0.5,1.2l-5,5.6c-1,1-1.5,2.3-1.5,3.7v17.5
		c0,1.4,0.6,2.7,1.5,3.7l5,5.6c0.4,0.4,0.1,1.2-0.5,1.2h-3.3c-0.5,0-1.1-0.2-1.5-0.6L18,33.8c-1.3-1.3-2.1-3.1-2.1-5v-9.5V9.8
		C15.9,7.9,16.6,6.2,18,4.8z"/>
	<path fill="#EF4145" d="M33.8,4.8L38,0.6C38.4,0.2,38.9,0,39.5,0h3.3c0.6,0,0.9,0.8,0.5,1.2l-5,5.6c-1,1-1.5,2.3-1.5,3.7v17.5
		c0,1.4,0.6,2.7,1.5,3.7l5,5.6c0.4,0.4,0.1,1.2-0.5,1.2h-3.3c-0.5,0-1.1-0.2-1.5-0.6l-4.2-4.3c-1.3-1.3-2.1-3.1-2.1-5v-9.5V9.8
		C31.7,7.9,32.5,6.2,33.8,4.8z"/>
	<path fill="#EF4145" d="M49.7,4.8l4.2-4.3C54.3,0.2,54.8,0,55.4,0h3.3c0.6,0,0.9,0.8,0.5,1.2l-5,5.6c-1,1-1.5,2.3-1.5,3.7v17.5
		c0,1.4,0.6,2.7,1.5,3.7l5,5.6c0.4,0.4,0.1,1.2-0.5,1.2h-3.3c-0.5,0-1.1-0.2-1.5-0.6l-4.2-4.3c-1.3-1.3-2.1-3.1-2.1-5v-9.5V9.8
		C47.6,7.9,48.3,6.2,49.7,4.8z"/>
	<path fill="#EF4145" d="M65.5,4.8l4.2-4.3C70.1,0.2,70.7,0,71.2,0h3.3c0.6,0,0.9,0.8,0.5,1.2l-5,5.6c-1,1-1.5,2.3-1.5,3.7v17.5
		c0,1.4,0.6,2.7,1.5,3.7l5,5.6c0.4,0.4,0.1,1.2-0.5,1.2h-3.3c-0.5,0-1.1-0.2-1.5-0.6l-4.2-4.3c-1.3-1.3-2.1-3.1-2.1-5v-9.5V9.8
		C63.4,7.9,64.2,6.2,65.5,4.8z"/>
	<path fill="#ACA7D3" d="M81.4,4.8l4.2-4.3C86,0.2,86.5,0,87.1,0h3.3c0.6,0,0.9,0.8,0.5,1.2l-5,5.6c-1,1-1.5,2.3-1.5,3.7v17.5
		c0,1.4,0.6,2.7,1.5,3.7l5,5.6c0.4,0.4,0.1,1.2-0.5,1.2h-3.3c-0.5,0-1.1-0.2-1.5-0.6l-4.2-4.3c-1.3-1.3-2.1-3.1-2.1-5v-9.5V9.8
		C79.3,7.9,80.1,6.2,81.4,4.8z"/>
	<path fill="#ACA7D3" d="M97.3,4.8l4.2-4.3c0.4-0.4,0.9-0.6,1.5-0.6h3.3c0.6,0,0.9,0.8,0.5,1.2l-5,5.6c-1,1-1.5,2.3-1.5,3.7v17.5
		c0,1.4,0.6,2.7,1.5,3.7l5,5.6c0.4,0.4,0.1,1.2-0.5,1.2h-3.3c-0.5,0-1.1-0.2-1.5-0.6l-4.2-4.3c-1.3-1.3-2.1-3.1-2.1-5v-9.5V9.8
		C95.2,7.9,95.9,6.2,97.3,4.8z"/>
	<path fill="#ACA7D3" d="M113.1,4.8l4.2-4.3c0.4-0.4,0.9-0.6,1.5-0.6h3.3c0.6,0,0.9,0.8,0.5,1.2l-5,5.6c-1,1-1.5,2.3-1.5,3.7v17.5
		c0,1.4,0.6,2.7,1.5,3.7l5,5.6c0.4,0.4,0.1,1.2-0.5,1.2h-3.3c-0.5,0-1.1-0.2-1.5-0.6l-4.2-4.3c-1.3-1.3-2.1-3.1-2.1-5v-9.5V9.8
		C111,7.9,111.8,6.2,113.1,4.8z"/>
	<path fill="#ACA7D3" d="M129,4.8l4.2-4.3c0.4-0.4,0.9-0.6,1.5-0.6h3.3c0.6,0,0.9,0.8,0.5,1.2l-5,5.6c-1,1-1.5,2.3-1.5,3.7v17.5
		c0,1.4,0.6,2.7,1.5,3.7l5,5.6c0.4,0.4,0.1,1.2-0.5,1.2h-3.3c-0.5,0-1.1-0.2-1.5-0.6l-4.2-4.3c-1.3-1.3-2.1-3.1-2.1-5v-9.5V9.8
		C126.9,7.9,127.6,6.2,129,4.8z"/>
	<path fill="#ACA7D3" d="M144.8,4.8l4.2-4.3c0.4-0.4,0.9-0.6,1.5-0.6h3.3c0.6,0,0.9,0.8,0.5,1.2l-5,5.6c-1,1-1.5,2.3-1.5,3.7v17.5
		c0,1.4,0.6,2.7,1.5,3.7l5,5.6c0.4,0.4,0.1,1.2-0.5,1.2h-3.3c-0.5,0-1.1-0.2-1.5-0.6l-4.2-4.3c-1.3-1.3-2.1-3.1-2.1-5v-9.5V9.8
		C142.7,7.9,143.5,6.2,144.8,4.8z"/>
	<path fill="#ACA7D3" d="M160.7,4.8l4.2-4.3c0.4-0.4,0.9-0.6,1.5-0.6h3.3c0.6,0,0.9,0.8,0.5,1.2l-5,5.6c-1,1-1.5,2.3-1.5,3.7v17.5
		c0,1.4,0.6,2.7,1.5,3.7l5,5.6c0.4,0.4,0.1,1.2-0.5,1.2h-3.3c-0.5,0-1.1-0.2-1.5-0.6l-4.2-4.3c-1.3-1.3-2.1-3.1-2.1-5v-9.5V9.8
		C158.6,7.9,159.4,6.2,160.7,4.8z"/>
	<path fill="#ACA7D3" d="M176.6,4.8l4.2-4.3c0.4-0.4,0.9-0.6,1.5-0.6h3.3c0.6,0,0.9,0.8,0.5,1.2l-5,5.6c-1,1-1.5,2.3-1.5,3.7v17.5
		c0,1.4,0.6,2.7,1.5,3.7l5,5.6c0.4,0.4,0.1,1.2-0.5,1.2h-3.3c-0.5,0-1.1-0.2-1.5-0.6l-4.2-4.3c-1.3-1.3-2.1-3.1-2.1-5v-9.5V9.8
		C174.5,7.9,175.2,6.2,176.6,4.8z"/>
	<path fill="#ACA7D3" d="M192.4,4.8l4.2-4.3c0.4-0.4,0.9-0.6,1.5-0.6h3.3c0.6,0,0.9,0.8,0.5,1.2l-5,5.6c-1,1-1.5,2.3-1.5,3.7v17.5
		c0,1.4,0.6,2.7,1.5,3.7l5,5.6c0.4,0.4,0.1,1.2-0.5,1.2h-3.3c-0.5,0-1.1-0.2-1.5-0.6l-4.2-4.3c-1.3-1.3-2.1-3.1-2.1-5v-9.5V9.8
		C190.3,7.9,191.1,6.2,192.4,4.8z"/>
	<path fill="#ACA7D3" d="M208.3,4.8l4.2-4.3c0.4-0.4,0.9-0.6,1.5-0.6h3.3c0.6,0,0.9,0.8,0.5,1.2l-5,5.6c-1,1-1.5,2.3-1.5,3.7v17.5
		c0,1.4,0.6,2.7,1.5,3.7l5,5.6c0.4,0.4,0.1,1.2-0.5,1.2H214c-0.5,0-1.1-0.2-1.5-0.6l-4.2-4.3c-1.3-1.3-2.1-3.1-2.1-5v-9.5V9.8
		C206.2,7.9,206.9,6.2,208.3,4.8z"/>
	<path fill="#ACA7D3" d="M224.1,4.8l4.2-4.3c0.4-0.4,0.9-0.6,1.5-0.6h3.3c0.6,0,0.9,0.8,0.5,1.2l-5,5.6c-1,1-1.5,2.3-1.5,3.7v17.5
		c0,1.4,0.6,2.7,1.5,3.7l5,5.6c0.4,0.4,0.1,1.2-0.5,1.2h-3.3c-0.5,0-1.1-0.2-1.5-0.6l-4.2-4.3c-1.3-1.3-2.1-3.1-2.1-5v-9.5V9.8
		C222,7.9,222.8,6.2,224.1,4.8z"/>
	<path fill="#ACA7D3" d="M240,4.8l4.2-4.3c0.4-0.4,0.9-0.6,1.5-0.6h3.3c0.6,0,0.9,0.8,0.5,1.2l-5,5.6c-1,1-1.5,2.3-1.5,3.7v17.5
		c0,1.4,0.6,2.7,1.5,3.7l5,5.6c0.4,0.4,0.1,1.2-0.5,1.2h-3.3c-0.5,0-1.1-0.2-1.5-0.6l-4.2-4.3c-1.3-1.3-2.1-3.1-2.1-5v-9.5V9.8
		C237.9,7.9,238.7,6.2,240,4.8z"/>
	<path fill="#ACA7D3" d="M255.9,4.8l4.2-4.3c0.4-0.4,0.9-0.6,1.5-0.6h3.3c0.6,0,0.9,0.8,0.5,1.2l-5,5.6c-1,1-1.5,2.3-1.5,3.7v17.5
		c0,1.4,0.6,2.7,1.5,3.7l5,5.6c0.4,0.4,0.1,1.2-0.5,1.2h-3.3c-0.5,0-1.1-0.2-1.5-0.6l-4.2-4.3c-1.3-1.3-2.1-3.1-2.1-5v-9.5V9.8
		C253.8,7.9,254.5,6.2,255.9,4.8z"/>
	<path fill="#ACA7D3" d="M271.7,4.8l4.2-4.3c0.4-0.4,0.9-0.6,1.5-0.6h3.3c0.6,0,0.9,0.8,0.5,1.2l-5,5.6c-1,1-1.5,2.3-1.5,3.7v17.5
		c0,1.4,0.6,2.7,1.5,3.7l5,5.6c0.4,0.4,0.1,1.2-0.5,1.2h-3.3c-0.5,0-1.1-0.2-1.5-0.6l-4.2-4.3c-1.3-1.3-2.1-3.1-2.1-5v-9.5V9.8
		C269.6,7.9,270.4,6.2,271.7,4.8z"/>
	<path fill="#ACA7D3" d="M287.6,4.8l4.2-4.3c0.4-0.4,0.9-0.6,1.5-0.6h3.3c0.6,0,0.9,0.8,0.5,1.2l-5,5.6c-1,1-1.5,2.3-1.5,3.7v17.5
		c0,1.4,0.6,2.7,1.5,3.7l5,5.6c0.4,0.4,0.1,1.2-0.5,1.2h-3.3c-0.5,0-1.1-0.2-1.5-0.6l-4.2-4.3c-1.3-1.3-2.1-3.1-2.1-5v-9.5V9.8
		C285.5,7.9,286.2,6.2,287.6,4.8z"/>
	<path fill="#ACA7D3" d="M303.4,4.8l4.2-4.3c0.4-0.4,0.9-0.6,1.5-0.6h3.3c0.6,0,0.9,0.8,0.5,1.2l-5,5.6c-1,1-1.5,2.3-1.5,3.7v17.5
		c0,1.4,0.6,2.7,1.5,3.7l5,5.6c0.4,0.4,0.1,1.2-0.5,1.2h-3.3c-0.5,0-1.1-0.2-1.5-0.6l-4.2-4.3c-1.3-1.3-2.1-3.1-2.1-5v-9.5V9.8
		C301.3,7.9,302.1,6.2,303.4,4.8z"/>
	<path fill="#ACA7D3" d="M319.3,4.8l4.2-4.3c0.4-0.4,0.9-0.6,1.5-0.6h3.3c0.6,0,0.9,0.8,0.5,1.2l-5,5.6c-1,1-1.5,2.3-1.5,3.7v17.5
		c0,1.4,0.6,2.7,1.5,3.7l5,5.6c0.4,0.4,0.1,1.2-0.5,1.2H325c-0.5,0-1.1-0.2-1.5-0.6l-4.2-4.3c-1.3-1.3-2.1-3.1-2.1-5v-9.5V9.8
		C317.2,7.9,317.9,6.2,319.3,4.8z"/>
	<path fill="#ACA7D3" d="M335.2,4.8l4.2-4.3c0.4-0.4,0.9-0.6,1.5-0.6h3.3c0.6,0,0.9,0.8,0.5,1.2l-5,5.6c-1,1-1.5,2.3-1.5,3.7v17.5
		c0,1.4,0.6,2.7,1.5,3.7l5,5.6c0.4,0.4,0.1,1.2-0.5,1.2h-3.3c-0.5,0-1.1-0.2-1.5-0.6l-4.2-4.3c-1.3-1.3-2.1-3.1-2.1-5v-9.5V9.8
		C333.1,7.9,333.8,6.2,335.2,4.8z"/>
	<path fill="#ACA7D3" d="M351,4.8l4.2-4.3c0.4-0.4,0.9-0.6,1.5-0.6h3.3c0.6,0,0.9,0.8,0.5,1.2l-5,5.6c-1,1-1.5,2.3-1.5,3.7v17.5
		c0,1.4,0.6,2.7,1.5,3.7l5,5.6c0.4,0.4,0.1,1.2-0.5,1.2h-3.3c-0.5,0-1.1-0.2-1.5-0.6l-4.2-4.3c-1.3-1.3-2.1-3.1-2.1-5v-9.5V9.8
		C348.9,7.9,349.7,6.2,351,4.8z"/>
	<path fill="#ACA7D3" d="M366.9,4.8l4.2-4.3c0.4-0.4,0.9-0.6,1.5-0.6h3.3c0.6,0,0.9,0.8,0.5,1.2l-5,5.6c-1,1-1.5,2.3-1.5,3.7v17.5
		c0,1.4,0.6,2.7,1.5,3.7l5,5.6c0.4,0.4,0.1,1.2-0.5,1.2h-3.3c-0.5,0-1.1-0.2-1.5-0.6l-4.2-4.3c-1.3-1.3-2.1-3.1-2.1-5v-9.5V9.8
		C364.8,7.9,365.5,6.2,366.9,4.8z"/>
	<path fill="#ACA7D3" d="M382.7,4.8l4.2-4.3c0.4-0.4,0.9-0.6,1.5-0.6h3.3c0.6,0,0.9,0.8,0.5,1.2l-5,5.6c-1,1-1.5,2.3-1.5,3.7v17.5
		c0,1.4,0.6,2.7,1.5,3.7l5,5.6c0.4,0.4,0.1,1.2-0.5,1.2h-3.3c-0.5,0-1.1-0.2-1.5-0.6l-4.2-4.3c-1.3-1.3-2.1-3.1-2.1-5v-9.5V9.8
		C380.6,7.9,381.4,6.2,382.7,4.8z"/>
	<path fill="#ACA7D3" d="M398.6,4.8l4.2-4.3c0.4-0.4,0.9-0.6,1.5-0.6h3.3c0.6,0,0.9,0.8,0.5,1.2l-5,5.6c-1,1-1.5,2.3-1.5,3.7v17.5
		c0,1.4,0.6,2.7,1.5,3.7l5,5.6c0.4,0.4,0.1,1.2-0.5,1.2h-3.3c-0.5,0-1.1-0.2-1.5-0.6l-4.2-4.3c-1.3-1.3-2.1-3.1-2.1-5v-9.5V9.8
		C396.5,7.9,397.2,6.2,398.6,4.8z"/>
	<path fill="#ACA7D3" d="M414.5,4.8l4.2-4.3c0.4-0.4,0.9-0.6,1.5-0.6h3.3c0.6,0,0.9,0.8,0.5,1.2l-5,5.6c-1,1-1.5,2.3-1.5,3.7v17.5
		c0,1.4,0.6,2.7,1.5,3.7l5,5.6c0.4,0.4,0.1,1.2-0.5,1.2h-3.3c-0.5,0-1.1-0.2-1.5-0.6l-4.2-4.3c-1.3-1.3-2.1-3.1-2.1-5v-9.5V9.8
		C412.3,7.9,413.1,6.2,414.5,4.8z"/>
	<path fill="#ACA7D3" d="M430.3,4.8l4.2-4.3c0.4-0.4,0.9-0.6,1.5-0.6h3.3c0.6,0,0.9,0.8,0.5,1.2l-5,5.6c-1,1-1.5,2.3-1.5,3.7v17.5
		c0,1.4,0.6,2.7,1.5,3.7l5,5.6c0.4,0.4,0.1,1.2-0.5,1.2H436c-0.5,0-1.1-0.2-1.5-0.6l-4.2-4.3c-1.3-1.3-2.1-3.1-2.1-5v-9.5V9.8
		C428.2,7.9,429,6.2,430.3,4.8z"/>
	<path fill="#ACA7D3" d="M446.2,4.8l4.2-4.3c0.4-0.4,0.9-0.6,1.5-0.6h3.3c0.6,0,0.9,0.8,0.5,1.2l-5,5.6c-1,1-1.5,2.3-1.5,3.7v17.5
		c0,1.4,0.6,2.7,1.5,3.7l5,5.6c0.4,0.4,0.1,1.2-0.5,1.2h-3.3c-0.5,0-1.1-0.2-1.5-0.6l-4.2-4.3c-1.3-1.3-2.1-3.1-2.1-5v-9.5V9.8
		C444.1,7.9,444.8,6.2,446.2,4.8z"/>
	<path fill="#ACA7D3" d="M462,4.8l4.2-4.3c0.4-0.4,0.9-0.6,1.5-0.6h3.3c0.6,0,0.9,0.8,0.5,1.2l-5,5.6c-1,1-1.5,2.3-1.5,3.7v17.5
		c0,1.4,0.6,2.7,1.5,3.7l5,5.6c0.4,0.4,0.1,1.2-0.5,1.2h-3.3c-0.5,0-1.1-0.2-1.5-0.6l-4.2-4.3c-1.3-1.3-2.1-3.1-2.1-5v-9.5V9.8
		C459.9,7.9,460.7,6.2,462,4.8z"/>
	<path fill="#ACA7D3" d="M477.9,4.8l4.2-4.3c0.4-0.4,0.9-0.6,1.5-0.6h3.3c0.6,0,0.9,0.8,0.5,1.2l-5,5.6c-1,1-1.5,2.3-1.5,3.7v17.5
		c0,1.4,0.6,2.7,1.5,3.7l5,5.6c0.4,0.4,0.1,1.2-0.5,1.2h-3.3c-0.5,0-1.1-0.2-1.5-0.6l-4.2-4.3c-1.3-1.3-2.1-3.1-2.1-5v-9.5V9.8
		C475.8,7.9,476.5,6.2,477.9,4.8z"/>
	<path fill="#ACA7D3" d="M493.8,4.8l4.2-4.3c0.4-0.4,0.9-0.6,1.5-0.6h3.3c0.6,0,0.9,0.8,0.5,1.2l-5,5.6c-1,1-1.5,2.3-1.5,3.7v17.5
		c0,1.4,0.6,2.7,1.5,3.7l5,5.6c0.4,0.4,0.1,1.2-0.5,1.2h-3.3c-0.5,0-1.1-0.2-1.5-0.6l-4.2-4.3c-1.3-1.3-2.1-3.1-2.1-5v-9.5V9.8
		C491.6,7.9,492.4,6.2,493.8,4.8z"/>
	<path fill="#ACA7D3" d="M509.6,4.8l4.2-4.3c0.4-0.4,0.9-0.6,1.5-0.6h3.3c0.6,0,0.9,0.8,0.5,1.2l-5,5.6c-1,1-1.5,2.3-1.5,3.7v17.5
		c0,1.4,0.6,2.7,1.5,3.7l5,5.6c0.4,0.4,0.1,1.2-0.5,1.2h-3.3c-0.5,0-1.1-0.2-1.5-0.6l-4.2-4.3c-1.3-1.3-2.1-3.1-2.1-5v-9.5V9.8
		C507.5,7.9,508.3,6.2,509.6,4.8z"/>
	<path fill="#ACA7D3" d="M525.5,4.8l4.2-4.3c0.4-0.4,0.9-0.6,1.5-0.6h3.3c0.6,0,0.9,0.8,0.5,1.2l-5,5.6c-1,1-1.5,2.3-1.5,3.7v17.5
		c0,1.4,0.6,2.7,1.5,3.7l5,5.6c0.4,0.4,0.1,1.2-0.5,1.2h-3.3c-0.5,0-1.1-0.2-1.5-0.6l-4.2-4.3c-1.3-1.3-2.1-3.1-2.1-5v-9.5V9.8
		C523.4,7.9,524.1,6.2,525.5,4.8z"/>
	<path fill="#ACA7D3" d="M541.3,4.8l4.2-4.3c0.4-0.4,0.9-0.6,1.5-0.6h3.3c0.6,0,0.9,0.8,0.5,1.2l-5,5.6c-1,1-1.5,2.3-1.5,3.7v17.5
		c0,1.4,0.6,2.7,1.5,3.7l5,5.6c0.4,0.4,0.1,1.2-0.5,1.2H547c-0.5,0-1.1-0.2-1.5-0.6l-4.2-4.3c-1.3-1.3-2.1-3.1-2.1-5v-9.5V9.8
		C539.2,7.9,540,6.2,541.3,4.8z"/>
	<path fill="#ACA7D3" d="M557.2,4.8l4.2-4.3c0.4-0.4,0.9-0.6,1.5-0.6h3.3c0.6,0,0.9,0.8,0.5,1.2l-5,5.6c-1,1-1.5,2.3-1.5,3.7v17.5
		c0,1.4,0.6,2.7,1.5,3.7l5,5.6c0.4,0.4,0.1,1.2-0.5,1.2h-3.3c-0.5,0-1.1-0.2-1.5-0.6l-4.2-4.3c-1.3-1.3-2.1-3.1-2.1-5v-9.5V9.8
		C555.1,7.9,555.8,6.2,557.2,4.8z"/>
	<path fill="#ACA7D3" d="M573.1,4.8l4.2-4.3c0.4-0.4,0.9-0.6,1.5-0.6h3.3c0.6,0,0.9,0.8,0.5,1.2l-5,5.6c-1,1-1.5,2.3-1.5,3.7v17.5
		c0,1.4,0.6,2.7,1.5,3.7l5,5.6c0.4,0.4,0.1,1.2-0.5,1.2h-3.3c-0.5,0-1.1-0.2-1.5-0.6l-4.2-4.3c-1.3-1.3-2.1-3.1-2.1-5v-9.5V9.8
		C570.9,7.9,571.7,6.2,573.1,4.8z"/>
	<path fill="#ACA7D3" d="M588.9,4.8l4.2-4.3c0.4-0.4,0.9-0.6,1.5-0.6h3.3c0.6,0,0.9,0.8,0.5,1.2l-5,5.6c-1,1-1.5,2.3-1.5,3.7v17.5
		c0,1.4,0.6,2.7,1.5,3.7l5,5.6c0.4,0.4,0.1,1.2-0.5,1.2h-3.3c-0.5,0-1.1-0.2-1.5-0.6l-4.2-4.3c-1.3-1.3-2.1-3.1-2.1-5v-9.5V9.8
		C586.8,7.9,587.6,6.2,588.9,4.8z"/>
	<path fill="#ACA7D3" d="M604.8,4.8l4.2-4.3c0.4-0.4,0.9-0.6,1.5-0.6h3.3c0.6,0,0.9,0.8,0.5,1.2l-5,5.6c-1,1-1.5,2.3-1.5,3.7v17.5
		c0,1.4,0.6,2.7,1.5,3.7l5,5.6c0.4,0.4,0.1,1.2-0.5,1.2h-3.3c-0.5,0-1.1-0.2-1.5-0.6l-4.2-4.3c-1.3-1.3-2.1-3.1-2.1-5v-9.5V9.8
		C602.7,7.9,603.4,6.2,604.8,4.8z"/>
	<path fill="#ACA7D3" d="M620.6,4.8l4.2-4.3c0.4-0.4,0.9-0.6,1.5-0.6h3.3c0.6,0,0.9,0.8,0.5,1.2l-5,5.6c-1,1-1.5,2.3-1.5,3.7v17.5
		c0,1.4,0.6,2.7,1.5,3.7l5,5.6c0.4,0.4,0.1,1.2-0.5,1.2h-3.3c-0.5,0-1.1-0.2-1.5-0.6l-4.2-4.3c-1.3-1.3-2.1-3.1-2.1-5v-9.5V9.8
		C618.5,7.9,619.3,6.2,620.6,4.8z"/>
	<path fill="#ACA7D3" d="M636.5,4.8l4.2-4.3c0.4-0.4,0.9-0.6,1.5-0.6h3.3c0.6,0,0.9,0.8,0.5,1.2l-5,5.6c-1,1-1.5,2.3-1.5,3.7v17.5
		c0,1.4,0.6,2.7,1.5,3.7l5,5.6c0.4,0.4,0.1,1.2-0.5,1.2h-3.3c-0.5,0-1.1-0.2-1.5-0.6l-4.2-4.3c-1.3-1.3-2.1-3.1-2.1-5v-9.5V9.8
		C634.4,7.9,635.1,6.2,636.5,4.8z"/>
	<path fill="#ACA7D3" d="M652.3,4.8l4.2-4.3c0.4-0.4,0.9-0.6,1.5-0.6h3.3c0.6,0,0.9,0.8,0.5,1.2l-5,5.6c-1,1-1.5,2.3-1.5,3.7v17.5
		c0,1.4,0.6,2.7,1.5,3.7l5,5.6c0.4,0.4,0.1,1.2-0.5,1.2H658c-0.5,0-1.1-0.2-1.5-0.6l-4.2-4.3c-1.3-1.3-2.1-3.1-2.1-5v-9.5V9.8
		C650.2,7.9,651,6.2,652.3,4.8z"/>
	<path fill="#ACA7D3" d="M668.2,4.8l4.2-4.3c0.4-0.4,0.9-0.6,1.5-0.6h3.3c0.6,0,0.9,0.8,0.5,1.2l-5,5.6c-1,1-1.5,2.3-1.5,3.7v17.5
		c0,1.4,0.6,2.7,1.5,3.7l5,5.6c0.4,0.4,0.1,1.2-0.5,1.2h-3.3c-0.5,0-1.1-0.2-1.5-0.6l-4.2-4.3c-1.3-1.3-2.1-3.1-2.1-5v-9.5V9.8
		C666.1,7.9,666.9,6.2,668.2,4.8z"/>
	<path fill="#ACA7D3" d="M684.1,4.8l4.2-4.3c0.4-0.4,0.9-0.6,1.5-0.6h3.3c0.6,0,0.9,0.8,0.5,1.2l-5,5.6c-1,1-1.5,2.3-1.5,3.7v17.5
		c0,1.4,0.6,2.7,1.5,3.7l5,5.6c0.4,0.4,0.1,1.2-0.5,1.2h-3.3c-0.5,0-1.1-0.2-1.5-0.6l-4.2-4.3c-1.3-1.3-2.1-3.1-2.1-5v-9.5V9.8
		C682,7.9,682.7,6.2,684.1,4.8z"/>
	<path fill="#ACA7D3" d="M699.9,4.8l4.2-4.3c0.4-0.4,0.9-0.6,1.5-0.6h3.3c0.6,0,0.9,0.8,0.5,1.2l-5,5.6c-1,1-1.5,2.3-1.5,3.7v17.5
		c0,1.4,0.6,2.7,1.5,3.7l5,5.6c0.4,0.4,0.1,1.2-0.5,1.2h-3.3c-0.5,0-1.1-0.2-1.5-0.6l-4.2-4.3c-1.3-1.3-2.1-3.1-2.1-5v-9.5V9.8
		C697.8,7.9,698.6,6.2,699.9,4.8z"/>
	<path fill="#ACA7D3" d="M715.8,4.8l4.2-4.3c0.4-0.4,0.9-0.6,1.5-0.6h3.3c0.6,0,0.9,0.8,0.5,1.2l-5,5.6c-1,1-1.5,2.3-1.5,3.7v17.5
		c0,1.4,0.6,2.7,1.5,3.7l5,5.6c0.4,0.4,0.1,1.2-0.5,1.2h-3.3c-0.5,0-1.1-0.2-1.5-0.6l-4.2-4.3c-1.3-1.3-2.1-3.1-2.1-5v-9.5V9.8
		C713.7,7.9,714.4,6.2,715.8,4.8z"/>
	<path fill="#00AE62" d="M731.6,4.8l4.2-4.3c0.4-0.4,0.9-0.6,1.5-0.6h3.3c0.6,0,0.9,0.8,0.5,1.2l-5,5.6c-1,1-1.5,2.3-1.5,3.7v17.5
		c0,1.4,0.6,2.7,1.5,3.7l5,5.6c0.4,0.4,0.1,1.2-0.5,1.2h-3.3c-0.5,0-1.1-0.2-1.5-0.6l-4.2-4.3c-1.3-1.3-2.1-3.1-2.1-5v-9.5V9.8
		C729.5,7.9,730.3,6.2,731.6,4.8z"/>
	<path fill="#00AE62" d="M747.5,4.8l4.2-4.3c0.4-0.4,0.9-0.6,1.5-0.6h3.3c0.6,0,0.9,0.8,0.5,1.2l-5,5.6c-1,1-1.5,2.3-1.5,3.7v17.5
		c0,1.4,0.6,2.7,1.5,3.7l5,5.6c0.4,0.4,0.1,1.2-0.5,1.2h-3.3c-0.5,0-1.1-0.2-1.5-0.6l-4.2-4.3c-1.3-1.3-2.1-3.1-2.1-5v-9.5V9.8
		C745.4,7.9,746.2,6.2,747.5,4.8z"/>
	<path fill="#00AE62" d="M763.4,4.8l4.2-4.3C768,0.2,768.5,0,769,0h3.3c0.6,0,0.9,0.8,0.5,1.2l-5,5.6c-1,1-1.5,2.3-1.5,3.7v17.5
		c0,1.4,0.6,2.7,1.5,3.7l5,5.6c0.4,0.4,0.1,1.2-0.5,1.2H769c-0.5,0-1.1-0.2-1.5-0.6l-4.2-4.3c-1.3-1.3-2.1-3.1-2.1-5v-9.5V9.8
		C761.3,7.9,762,6.2,763.4,4.8z"/>
	<path fill="#00AE62" d="M779.2,4.8l4.2-4.3c0.4-0.4,0.9-0.6,1.5-0.6h3.3c0.6,0,0.9,0.8,0.5,1.2l-5,5.6c-1,1-1.5,2.3-1.5,3.7v17.5
		c0,1.4,0.6,2.7,1.5,3.7l5,5.6c0.4,0.4,0.1,1.2-0.5,1.2h-3.3c-0.5,0-1.1-0.2-1.5-0.6l-4.2-4.3c-1.3-1.3-2.1-3.1-2.1-5v-9.5V9.8
		C777.1,7.9,777.9,6.2,779.2,4.8z"/>
	<path fill="#00AE62" d="M795.1,4.8l4.2-4.3c0.4-0.4,0.9-0.6,1.5-0.6h3.3c0.6,0,0.9,0.8,0.5,1.2l-5,5.6c-1,1-1.5,2.3-1.5,3.7v17.5
		c0,1.4,0.6,2.7,1.5,3.7l5,5.6c0.4,0.4,0.1,1.2-0.5,1.2h-3.3c-0.5,0-1.1-0.2-1.5-0.6l-4.2-4.3c-1.3-1.3-2.1-3.1-2.1-5v-9.5V9.8
		C793,7.9,793.7,6.2,795.1,4.8z"/>
</g>
</svg>
