<?xml version="1.0" encoding="utf-8"?>
<!-- Generator: Adobe Illustrator 28.7.8, SVG Export Plug-In . SVG Version: 9.03 Build 56881)  -->
<svg version="1.1" baseProfile="tiny" id="Layer_1" xmlns="http://www.w3.org/2000/svg" xmlns:xlink="http://www.w3.org/1999/xlink"
	 x="0px" y="0px" viewBox="0 0 96.3 32.9" overflow="visible" xml:space="preserve">
<g>
	<rect fill="#F19221" width="96.3" height="29.9"/>
</g>
<g>
	<path fill="#0C0E15" d="M13.3,9c0-0.3,0.1-0.6,0.2-0.9s0.3-0.5,0.5-0.8s0.5-0.4,0.8-0.5s0.6-0.2,0.9-0.2h9.1c0.3,0,0.6,0.1,0.9,0.2
		s0.5,0.3,0.8,0.5s0.4,0.5,0.5,0.8s0.2,0.6,0.2,0.9v2.2h-2.4V9h-9.1v12h9.1v-4.1h-4.6v-2.4h7V21c0,0.3-0.1,0.6-0.2,0.9
		s-0.3,0.5-0.5,0.8s-0.5,0.4-0.8,0.5s-0.6,0.2-0.9,0.2h-9.1c-0.3,0-0.6-0.1-0.9-0.2s-0.5-0.3-0.8-0.5s-0.4-0.5-0.5-0.8
		s-0.2-0.6-0.2-0.9V9z"/>
	<path fill="#0C0E15" d="M44.9,12.6c0,2.3-1,3.7-3,4l3.2,6.8h-2.7l-3.1-6.7H34v6.7h-2.4V6.6h9.2c2.7,0,4.1,1.4,4.1,4.1V12.6z
		 M34,14.3h6.7c0.6,0,1.1-0.1,1.4-0.4s0.4-0.7,0.4-1.4v-1.7c0-0.6-0.1-1.1-0.4-1.4S41.3,9,40.7,9H34V14.3z"/>
	<path fill="#0C0E15" d="M48.9,23.4V6.6h9.2c2.7,0,4.1,1.4,4.1,4.1v2.4c0,2.7-1.4,4.1-4.1,4.1h-6.8v6.2H48.9z M51.3,14.8h6.7
		c0.6,0,1.1-0.1,1.4-0.4s0.4-0.7,0.4-1.4v-2.2c0-0.6-0.1-1.1-0.4-1.4S58.6,9,57.9,9h-6.7V14.8z"/>
	<path fill="#0C0E15" d="M71,17.6l8.3-11h2.8v11h2.3v2.3h-2.3v3.5h-2.4v-3.5H71V17.6z M79.7,17.6V9.5l-6.1,8.1H79.7z"/>
</g>
</svg>
