<?xml version="1.0" encoding="utf-8"?>
<!-- Generator: Adobe Illustrator 28.7.8, SVG Export Plug-In . SVG Version: 9.03 Build 56881)  -->
<svg version="1.1" baseProfile="tiny" id="Layer_1" xmlns="http://www.w3.org/2000/svg" xmlns:xlink="http://www.w3.org/1999/xlink"
	 x="0px" y="0px" viewBox="0 0 386.9 97.9" overflow="visible" xml:space="preserve">
<polygon id="opacity:20_00000068661480980228489310000003159675646055938490_" fill="#233362" points="385.4,97.9 385.4,34.9 
	372.9,0.5 14,0.5 1.5,34.9 1.5,97.9 "/>
<polygon id="opacity:15_00000166650898135686751250000001398932115771159229_" fill="#B9D4EF" points="374.4,97.9 385.4,97.9 
	385.4,34.9 372.9,0.5 361.9,0.5 374.4,34.9 "/>
<polygon id="opacity:15_00000030455266224658458380000005388076876649521815_" fill="#B9D4EF" points="12.5,97.9 12.5,34.9 25,0.5 
	14,0.5 1.5,34.9 1.5,97.9 "/>
<path id="opacity:100" fill="#B9D4EF" d="M323.1,75.7h-21.7l-9.2-9.2V31.9l9.2-9.2h21.7l9.2,9.2v34.6L323.1,75.7z M303.1,71.7h18.3
	l6.8-6.8V33.6l-6.8-6.8h-18.3l-6.8,6.8v31.3L303.1,71.7z"/>
<polygon id="opacity:30_00000173883411013082285140000018172499678857226633_" fill="#ACA7D3" points="3,97.9 0,97.9 0,34.6 12.6,0 
	15.4,1 3,35.2 "/>
<polygon id="opacity:100_00000169554447780672252520000012508953347206137742_" fill="#ACA7D3" points="3,40.5 0,40.5 0,34.6 
	2,29.1 4.9,30.1 3,35.2 "/>
<rect id="opacity:100_00000134955812686987241500000014424688029198878910_" x="10.2" y="1.7" transform="matrix(0.3421 -0.9397 0.9397 0.3421 5.6177 14.3395)" fill="#ACA7D3" width="5.6" height="3"/>
<rect id="opacity:100_00000111874292144388784910000011272975074008593295_" x="0" y="92.3" fill="#ACA7D3" width="3" height="5.6"/>
<polygon id="opacity:30" fill="#ACA7D3" points="386.9,97.9 383.9,97.9 383.9,35.2 371.5,1 374.3,0 386.9,34.6 "/>
<polygon id="opacity:100_00000029729262257530216530000013751672585606701969_" fill="#ACA7D3" points="386.9,40.5 383.9,40.5 
	383.9,35.2 382.1,30.1 384.9,29.1 386.9,34.6 "/>
<rect id="opacity:100_00000153701229909835429720000012783413514399191966_" x="372.4" y="0.3" transform="matrix(0.9397 -0.342 0.342 0.9397 21.4725 128.0818)" fill="#ACA7D3" width="3" height="5.6"/>
<rect id="opacity:100_00000029047983166980225790000007404743590171918735_" x="383.9" y="92.3" fill="#ACA7D3" width="3" height="5.6"/>
</svg>
