<?xml version="1.0" encoding="utf-8"?>
<!-- Generator: Adobe Illustrator 28.7.8, SVG Export Plug-In . SVG Version: 9.03 Build 56881)  -->
<svg version="1.1" baseProfile="tiny" id="Layer_1" xmlns="http://www.w3.org/2000/svg" xmlns:xlink="http://www.w3.org/1999/xlink"
	 x="0px" y="0px" viewBox="0 0 226.7 32.9" overflow="visible" xml:space="preserve">
<rect fill="#F7921F" width="76.1" height="29.9"/>
<rect x="92" fill="#FFFFFF" width="134.7" height="29.9"/>
<path fill="#0C0E15" d="M109.5,23.4l-4.8-16.8h2.4l3.7,13.4l3.7-13.4h2.4l3.7,13.4l3.7-13.4h2.4L122,23.4h-2.6l-3.6-12.6l-3.6,12.6
	H109.5z"/>
<path fill="#0C0E15" d="M129.7,6.6h12.2V9h-9.8v4.8h8.4v2.4h-8.4V21h9.8v2.4h-12.2V6.6z"/>
<path fill="#0C0E15" d="M152.9,6.6l6.5,16.8H157l-1.5-3.9H148l-1.5,3.9h-2.4l6.5-16.8C150.6,6.6,152.9,6.6,152.9,6.6z M148.9,17.1
	h5.7l-2.9-7.4L148.9,17.1z"/>
<path fill="#0C0E15" d="M162.3,23.4V6.6h9.2c2.7,0,4.1,1.4,4.1,4.1v2.4c0,2.7-1.4,4.1-4.1,4.1h-6.8v6.2
	C164.7,23.4,162.3,23.4,162.3,23.4z M164.7,14.8h6.7c0.6,0,1.1-0.1,1.4-0.4s0.4-0.7,0.4-1.4v-2.2c0-0.6-0.1-1.1-0.4-1.4
	S172,9,171.4,9h-6.7V14.8z"/>
<path fill="#0C0E15" d="M193.3,21c0,0.3-0.1,0.6-0.2,0.9s-0.3,0.5-0.5,0.8s-0.5,0.4-0.8,0.5s-0.6,0.2-0.9,0.2h-9.6
	c-0.3,0-0.6-0.1-0.9-0.2s-0.5-0.3-0.8-0.5s-0.4-0.5-0.5-0.8s-0.2-0.6-0.2-0.9V9c0-0.3,0.1-0.6,0.2-0.9s0.3-0.5,0.5-0.8
	s0.5-0.4,0.8-0.5s0.6-0.2,0.9-0.2h9.6c0.3,0,0.6,0.1,0.9,0.2s0.5,0.3,0.8,0.5s0.4,0.5,0.5,0.8s0.2,0.6,0.2,0.9V21z M181.3,9v12h9.6
	V9H181.3z"/>
<path fill="#0C0E15" d="M200.1,23.4h-2.4V6.6h2.4l10.1,13v-13h2.4v16.8h-2.4l-10.1-13V23.4z"/>
<path fill="#0C0E15" d="M14.2,9c0-0.3,0.1-0.6,0.2-0.9c0.1-0.3,0.3-0.5,0.5-0.8c0.2-0.2,0.5-0.4,0.8-0.5s0.6-0.2,0.9-0.2h9.1
	c0.3,0,0.6,0.1,0.9,0.2s0.5,0.3,0.8,0.5c0.2,0.2,0.4,0.5,0.5,0.8C28,8.4,28.1,8.7,28.1,9v2.2h-2.4V9h-9.1v12h9.1v-4.1h-4.6v-2.4h7
	V21c0,0.3-0.1,0.6-0.2,0.9s-0.3,0.5-0.5,0.8c-0.2,0.2-0.5,0.4-0.8,0.5s-0.6,0.2-0.9,0.2h-9.1c-0.3,0-0.6-0.1-0.9-0.2
	s-0.5-0.3-0.8-0.5c-0.2-0.2-0.4-0.5-0.5-0.8s-0.2-0.6-0.2-0.9C14.2,21,14.2,9,14.2,9z"/>
<path fill="#0C0E15" d="M45.7,12.6c0,2.3-1,3.7-3,4l3.2,6.8h-2.7l-3.1-6.7h-5.3v6.7h-2.4V6.6h9.2c2.7,0,4.1,1.4,4.1,4.1V12.6z
	 M34.8,14.3h6.7c0.6,0,1.1-0.1,1.4-0.4s0.4-0.7,0.4-1.4v-1.7c0-0.6-0.1-1.1-0.4-1.4S42.1,9,41.5,9h-6.7V14.3z"/>
<path fill="#0C0E15" d="M49.7,23.4V6.6h9.2c2.7,0,4.1,1.4,4.1,4.1v2.4c0,2.7-1.4,4.1-4.1,4.1h-6.8v6.2
	C52.1,23.4,49.7,23.4,49.7,23.4z M52.1,14.8h6.7c0.6,0,1.1-0.1,1.4-0.4s0.4-0.7,0.4-1.4v-2.2c0-0.6-0.1-1.1-0.4-1.4S59.4,9,58.7,9
	H52L52.1,14.8L52.1,14.8z"/>
</svg>
