<?xml version="1.0" encoding="utf-8"?>
<!-- Generator: Adobe Illustrator 28.7.8, SVG Export Plug-In . SVG Version: 9.03 Build 56881)  -->
<svg version="1.1" baseProfile="tiny" id="Layer_1" xmlns="http://www.w3.org/2000/svg" xmlns:xlink="http://www.w3.org/1999/xlink"
	 x="0px" y="0px" viewBox="0 0 96.3 32.9" overflow="visible" xml:space="preserve">
<g>
	<rect fill="#F19221" width="96.3" height="29.9"/>
</g>
<g>
	<path fill="#0C0E15" d="M12.7,9c0-0.3,0.1-0.6,0.2-0.9s0.3-0.5,0.5-0.8s0.5-0.4,0.8-0.5s0.6-0.2,0.9-0.2h9.1c0.3,0,0.6,0.1,0.9,0.2
		s0.5,0.3,0.8,0.5s0.4,0.5,0.5,0.8s0.2,0.6,0.2,0.9v2.2h-2.4V9h-9.1v12h9.1v-4.1h-4.6v-2.4h7V21c0,0.3-0.1,0.6-0.2,0.9
		s-0.3,0.5-0.5,0.8s-0.5,0.4-0.8,0.5s-0.6,0.2-0.9,0.2h-9.1c-0.3,0-0.6-0.1-0.9-0.2s-0.5-0.3-0.8-0.5s-0.4-0.5-0.5-0.8
		s-0.2-0.6-0.2-0.9V9z"/>
	<path fill="#0C0E15" d="M44.2,12.6c0,2.3-1,3.7-3,4l3.2,6.8h-2.7l-3.1-6.7h-5.3v6.7H31V6.6h9.2c2.7,0,4.1,1.4,4.1,4.1V12.6z
		 M33.4,14.3H40c0.6,0,1.1-0.1,1.4-0.4s0.4-0.7,0.4-1.4v-1.7c0-0.6-0.1-1.1-0.4-1.4S40.7,9,40,9h-6.7V14.3z"/>
	<path fill="#0C0E15" d="M48.3,23.4V6.6h9.2c2.7,0,4.1,1.4,4.1,4.1v2.4c0,2.7-1.4,4.1-4.1,4.1h-6.8v6.2H48.3z M50.7,14.8h6.7
		c0.6,0,1.1-0.1,1.4-0.4s0.4-0.7,0.4-1.4v-2.2c0-0.6-0.1-1.1-0.4-1.4S58,9,57.3,9h-6.7V14.8z"/>
	<path fill="#0C0E15" d="M71.1,18.3h2.4v0.9c0,0.6,0.1,1.1,0.4,1.4s0.7,0.4,1.4,0.4h4.8c0.6,0,1.1-0.1,1.4-0.4s0.4-0.8,0.4-1.4v-1.3
		c0-0.6-0.1-1.1-0.4-1.4s-0.7-0.4-1.4-0.4h-5v-2.3H80c0.6,0,1-0.2,1.3-0.5s0.4-0.7,0.4-1.4v-1.1c0-0.6-0.1-1.1-0.4-1.4
		S80.5,9,79.9,9h-4.4c-0.6,0-1.1,0.1-1.4,0.4s-0.4,0.8-0.4,1.4v0.9h-2.4v-1c0-2.7,1.4-4.1,4.1-4.1h4.5c1.4,0,2.4,0.3,3.1,1
		s1,1.7,1,3.1V11c0,0.9-0.2,1.7-0.5,2.3s-0.8,1.1-1.4,1.4c0.7,0.2,1.3,0.6,1.6,1.3s0.6,1.5,0.6,2.5v0.8c0,2.7-1.4,4.1-4.1,4.1h-5
		c-2.7,0-4.1-1.4-4.1-4.1V18.3z"/>
</g>
</svg>
