<?xml version="1.0" encoding="utf-8"?>
<!-- Generator: Adobe Illustrator 28.7.8, SVG Export Plug-In . SVG Version: 9.03 Build 56881)  -->
<svg version="1.1" baseProfile="tiny" id="Layer_1" xmlns="http://www.w3.org/2000/svg" xmlns:xlink="http://www.w3.org/1999/xlink"
	 x="0px" y="0px" viewBox="0 0 386.9 97.9" overflow="visible" xml:space="preserve">
<polygon id="opacity:5" fill="#F79320" points="386.9,100.6 386.9,37.5 374.4,3.2 15.5,3.2 3,37.5 3,100.6 "/>
<polygon id="opacity:30" fill="#F79421" points="374.4,97.9 385.4,97.9 385.4,34.9 372.9,0.5 361.9,0.5 374.4,34.9 "/>
<polygon id="opacity:30_00000016791934421153042810000017003426007736893585_" fill="#F79320" points="12.5,97.9 12.5,34.9 25,0.5 
	14,0.5 1.5,34.9 1.5,97.9 "/>
<path id="opacity:100" fill="#FFFFFF" d="M323.1,75.7h-21.7l-9.2-9.2V31.9l9.2-9.2h21.7l9.2,9.2v34.6L323.1,75.7z M303.1,71.7h18.3
	l6.8-6.8V33.6l-6.8-6.8h-18.3l-6.8,6.8v31.3L303.1,71.7z"/>
<polygon id="opacity:30_00000129188268428878030620000015509837555797359235_" fill="#F89521" points="3,97.9 0,97.9 0,34.6 12.6,0 
	15.4,1 3,35.2 "/>
<polygon id="opacity:60_00000093167522895645469600000012946034561993837963_" fill="#FEE758" points="3,40.5 0,40.5 0,34.6 2,29.1 
	4.9,30.1 3,35.2 "/>
<rect id="opacity:60_00000023243576819322520860000016099390158487328185_" x="10.2" y="1.7" transform="matrix(0.3421 -0.9397 0.9397 0.3421 5.6177 14.3395)" fill="#FEE758" width="5.6" height="3"/>
<rect id="opacity:60_00000035509016846934044580000008741676004289036459_" x="0" y="92.3" fill="#FEE758" width="3" height="5.6"/>
<polygon id="opacity:30_00000016074151619725485320000006616671973994768293_" fill="#F89521" points="386.9,97.9 383.9,97.9 
	383.9,35.2 371.5,1 374.3,0 386.9,34.6 "/>
<polygon id="opacity:60_00000155141264028530604010000003532527748536984751_" fill="#FEE758" points="386.9,40.5 383.9,40.5 
	383.9,35.2 382.1,30.1 384.9,29.1 386.9,34.6 "/>
<rect id="opacity:60_00000094599580316262395150000001510822395891319434_" x="372.4" y="0.3" transform="matrix(0.9397 -0.342 0.342 0.9397 21.4725 128.0818)" fill="#FEE758" width="3" height="5.6"/>
<rect id="opacity:60_00000165202338033355907610000001200263625154628500_" x="383.9" y="92.3" fill="#FEE758" width="3" height="5.6"/>
<path id="opacity:100_00000117640648468702512710000005459821396987896212_" fill="#F7921F" d="M307.5,64.4c-1.6-1.6-2.4-2.4-4-4V38
	c1.6-1.6,2.4-2.4,4-4h9.5c1.6,1.6,2.4,2.4,4,4v22.4c-1.6,1.6-2.4,2.4-4,4H307.5z"/>
</svg>
