<?xml version="1.0" encoding="utf-8"?>
<!-- Generator: Adobe Illustrator 28.7.8, SVG Export Plug-In . SVG Version: 9.03 Build 56881)  -->
<svg version="1.1" baseProfile="tiny" id="Layer_1" xmlns="http://www.w3.org/2000/svg" xmlns:xlink="http://www.w3.org/1999/xlink"
	 x="0px" y="0px" viewBox="0 0 115.4 75.8" overflow="visible" xml:space="preserve">
<path id="opacity:100_00000072251180505110546840000001605586998094301321_" fill="#282833" d="M0,75.1h102.3c4.7-4.7,7.3-7.3,12-12
	V12.7c-4.7-4.7-7.3-7.3-12-12H0V75.1z"/>
<polygon id="opacity:100" fill="#3E3C4F" points="103.1,75.8 101.7,74.4 113.4,62.7 113.4,13.1 101.7,1.4 103.1,0 115.4,12.3 
	115.4,63.5 "/>
<polygon id="opacity:100_00000072282168715715392800000001482979994592812947_" fill="#ACA7D3" points="115.4,15.7 113.4,15.7 
	113.4,13.1 111.4,11.2 112.8,9.7 115.4,12.3 "/>
<rect id="opacity:100_00000106866774471156517710000013082546763979781287_" x="102.4" y="0.2" transform="matrix(0.7072 -0.707 0.707 0.7072 29.0484 73.6501)" fill="#ACA7D3" width="2" height="3.1"/>
<polygon id="opacity:100_00000110433769071573052270000002409316239332806587_" fill="#ACA7D3" points="112.8,66.1 111.4,64.7 
	113.4,62.7 113.4,60.1 115.4,60.1 115.4,63.5 "/>
<rect id="opacity:100_00000141421705517173180490000005747875283152216475_" x="101.9" y="73" transform="matrix(0.7071 -0.7071 0.7071 0.7071 -22.0377 94.8311)" fill="#ACA7D3" width="3.1" height="2"/>
</svg>
