<?xml version="1.0" encoding="utf-8"?>
<!-- Generator: Adobe Illustrator 28.7.8, SVG Export Plug-In . SVG Version: 9.03 Build 56881)  -->
<svg version="1.1" baseProfile="tiny" id="Layer_1" xmlns="http://www.w3.org/2000/svg" xmlns:xlink="http://www.w3.org/1999/xlink"
	 x="0px" y="0px" viewBox="0 0 79.5 47.3" overflow="visible" xml:space="preserve">
<rect fill="#B9D4EF" width="79.5" height="47.3"/>
<path fill="#0C0E15" d="M15.4,13.5c0-0.5,0.1-1,0.3-1.5c0.2-0.5,0.5-0.9,0.8-1.2c0.3-0.3,0.8-0.6,1.2-0.8s1-0.3,1.5-0.3h14.4
	c0.5,0,1,0.1,1.5,0.3s0.9,0.5,1.2,0.8c0.3,0.3,0.6,0.7,0.8,1.2c0.2,0.5,0.3,1,0.3,1.5v3.4h-3.8v-3.4H19.2v19h14.4v-3.4h3.8v3.4
	c0,0.5-0.1,1-0.3,1.5c-0.2,0.5-0.5,0.9-0.8,1.2c-0.3,0.3-0.8,0.6-1.2,0.8s-1,0.3-1.5,0.3H19.2c-0.5,0-1-0.1-1.5-0.3
	s-0.9-0.5-1.2-0.8c-0.3-0.3-0.6-0.8-0.8-1.2c-0.2-0.5-0.3-1-0.3-1.5V13.5z"/>
<path fill="#0C0E15" d="M47.3,24.9c-0.5,0-1-0.1-1.5-0.3s-0.9-0.5-1.2-0.8c-0.3-0.3-0.6-0.7-0.8-1.2c-0.2-0.5-0.3-1-0.3-1.5v-7.6
	c0-0.5,0.1-1,0.3-1.5c0.2-0.5,0.5-0.9,0.8-1.2c0.3-0.3,0.8-0.6,1.2-0.8s1-0.3,1.5-0.3h12.9c0.5,0,1,0.1,1.5,0.3s0.9,0.5,1.2,0.8
	c0.3,0.3,0.6,0.7,0.8,1.2s0.3,1,0.3,1.5v3.4h-3.8v-3.4H47.3v7.6h12.9c0.5,0,1,0.1,1.5,0.3c0.5,0.2,0.9,0.5,1.2,0.8
	c0.3,0.3,0.6,0.8,0.8,1.2s0.3,1,0.3,1.5v7.6c0,0.5-0.1,1-0.3,1.5c-0.2,0.5-0.5,0.9-0.8,1.2s-0.8,0.6-1.2,0.8s-1,0.3-1.5,0.3H47
	c-0.5,0-1-0.1-1.5-0.3s-0.9-0.5-1.2-0.8c-0.3-0.3-0.6-0.8-0.8-1.2c-0.2-0.5-0.3-1-0.3-1.5v-3.4H47v3.4h13.3v-7.6H47.3z"/>
</svg>
