<?xml version="1.0" encoding="utf-8"?>
<!-- Generator: Adobe Illustrator 28.7.10, SVG Export Plug-In . SVG Version: 9.03 Build 57640)  -->
<svg version="1.1" baseProfile="tiny" id="Layer_1" xmlns="http://www.w3.org/2000/svg" xmlns:xlink="http://www.w3.org/1999/xlink"
	 x="0px" y="0px" viewBox="0 0 519.9 339.3" overflow="visible" xml:space="preserve">
<rect id="opacity:70_00000068674338379025653130000009795514190881295753_" x="325" y="52.4" transform="matrix(0.9924 -0.123 0.123 0.9924 -3.3577 52.4201)" fill="#807DA1" width="195.4" height="2"/>
<polygon id="opacity:70_00000043419223597230712990000005010152832142415529_" fill="#ACA7D3" points="304.4,79.4 301.6,76.5 
	313.2,64.9 325.5,63.4 326,67.4 315.1,68.7 "/>
<rect id="opacity:70_00000120540939242423191870000011245627736624445834_" x="18.7" y="194.7" transform="matrix(0.7071 -0.7071 0.7071 0.7071 -84.1302 188.2874)" fill="#807DA1" width="333.1" height="2"/>
<polygon id="opacity:70_00000156546101133873942310000002133397826133778839_" fill="#ACA7D3" points="58.2,339.3 54.2,339.3 
	54.2,323.9 66,312 68.9,314.9 58.2,325.5 "/>
<rect id="opacity:70" x="503.7" y="40.4" transform="matrix(0.9924 -0.123 0.123 0.9924 -1.3264 63.2837)" fill="#ACA7D3" width="16.1" height="4"/>
<rect id="opacity:40_00000118361877373386658410000013900800145774869911_" x="311.5" y="33.5" transform="matrix(0.9924 -0.1231 0.1231 0.9924 -1.1145 50.9783)" fill="#807DA1" width="201.1" height="2"/>
<polygon id="opacity:40_00000119093941198746637050000015094213929566877620_" fill="#ACA7D3" points="289.8,61.4 287,58.6 
	299.2,46.5 312,44.9 312.5,48.9 301,50.3 "/>
<rect id="opacity:40_00000027598470714446422530000000564965233589685383_" x="-9.6" y="182.4" transform="matrix(0.7071 -0.7071 0.7071 0.7071 -81.3874 170.3788)" fill="#807DA1" width="349.1" height="2"/>
<polygon id="opacity:40_00000151545569358980593570000009930641135647513269_" fill="#ACA7D3" points="31.7,339.3 27.7,339.3 
	27.7,317.8 40.1,305.4 43,308.2 31.7,319.5 "/>
<rect id="opacity:40" x="495.1" y="21.2" transform="matrix(0.9924 -0.123 0.123 0.9924 0.9729 62.129)" fill="#ACA7D3" width="16.8" height="4"/>
<rect id="opacity:10_00000075857207937328796740000018182963336954519481_" x="297.4" y="13.7" transform="matrix(0.9924 -0.1231 0.1231 0.9924 1.2365 49.4539)" fill="#807DA1" width="207.1" height="2"/>
<polygon id="opacity:10_00000127036630749406071390000018420670944426819223_" fill="#ACA7D3" points="274.5,42.7 271.7,39.8 
	284.4,27.1 297.9,25.5 298.4,29.4 286.3,30.9 "/>
<rect id="opacity:10_00000112590967269799133630000005124871135831949470_" x="-39.2" y="169.6" transform="matrix(0.7071 -0.7071 0.7071 0.7071 -78.5123 151.6095)" fill="#807DA1" width="365.8" height="2"/>
<polygon id="opacity:10_00000060014270453445374810000015557113684165265826_" fill="#ACA7D3" points="4,339.3 0,339.3 0,311.4 
	13,298.5 15.8,301.3 4,313.1 "/>
<rect id="opacity:10" x="486.1" y="1.1" transform="matrix(0.9924 -0.123 0.123 0.9924 3.3827 60.9189)" fill="#ACA7D3" width="17.7" height="4"/>
</svg>
