<?xml version="1.0" encoding="utf-8"?>
<!-- Generator: Adobe Illustrator 29.8.4, SVG Export Plug-In . SVG Version: 9.03 Build 0)  -->
<svg version="1.1" baseProfile="tiny" id="Layer_1" xmlns="http://www.w3.org/2000/svg" xmlns:xlink="http://www.w3.org/1999/xlink"
	 x="0px" y="0px" viewBox="0 0 44.75 1.5" overflow="visible" xml:space="preserve">
<g>
	<path id="opacity:05" fill="#A8FFE7" d="M1.25,1.25H43.5l1-1H0.25L1.25,1.25z"/>
	<path fill="#A8FFE7" d="M0.75,1.5c0.2,0,0.39-0.08,0.53-0.22S1.5,0.95,1.5,0.75S1.42,0.36,1.28,0.22S0.95,0,0.75,0
		S0.36,0.08,0.22,0.22S0,0.55,0,0.75s0.08,0.39,0.22,0.53S0.55,1.5,0.75,1.5"/>
	<path fill="#A8FFE7" d="M44,1.5c0.2,0,0.39-0.08,0.53-0.22s0.22-0.33,0.22-0.53s-0.08-0.39-0.22-0.53S44.2,0,44,0
		s-0.39,0.08-0.53,0.22s-0.22,0.33-0.22,0.53s0.08,0.39,0.22,0.53S43.8,1.5,44,1.5"/>
</g>
</svg>
