<?xml version="1.0" encoding="utf-8"?>
<!-- Generator: Adobe Illustrator 29.8.4, SVG Export Plug-In . SVG Version: 9.03 Build 0)  -->
<svg version="1.1" baseProfile="tiny" id="Layer_1" xmlns="http://www.w3.org/2000/svg" xmlns:xlink="http://www.w3.org/1999/xlink"
	 x="0px" y="0px" viewBox="0 0 44.75 49.22" overflow="visible" xml:space="preserve">
<g>
	<path id="opacity:03" fill="#A8FFE7" d="M43.5,42H1.25V1.25H43.5V42 M44.5,0.25H0.25V43H44.5v-0.5V0.25"/>
	<path fill="#A8FFE7" d="M0.75,1.5c0.2,0,0.39-0.08,0.53-0.22S1.5,0.95,1.5,0.75S1.42,0.36,1.28,0.22S0.95,0,0.75,0
		S0.36,0.08,0.22,0.22S0,0.55,0,0.75s0.08,0.39,0.22,0.53S0.55,1.5,0.75,1.5"/>
	<path fill="#A8FFE7" d="M0.75,43.25c0.2,0,0.39-0.08,0.53-0.22S1.5,42.7,1.5,42.5s-0.08-0.39-0.22-0.53s-0.33-0.22-0.53-0.22
		s-0.39,0.08-0.53,0.22S0,42.3,0,42.5s0.08,0.39,0.22,0.53S0.55,43.25,0.75,43.25"/>
	<path fill="#A8FFE7" d="M44,1.5c0.2,0,0.39-0.08,0.53-0.22s0.22-0.33,0.22-0.53s-0.08-0.39-0.22-0.53S44.2,0,44,0
		s-0.39,0.08-0.53,0.22s-0.22,0.33-0.22,0.53s0.08,0.39,0.22,0.53S43.8,1.5,44,1.5"/>
	<path fill="#A8FFE7" d="M44,43.25c0.2,0,0.39-0.08,0.53-0.22s0.22-0.33,0.22-0.53c0-0.2-0.08-0.39-0.22-0.53S44.2,41.75,44,41.75
		c-0.2,0-0.39,0.08-0.53,0.22s-0.22,0.33-0.22,0.53c0,0.2,0.08,0.39,0.22,0.53S43.8,43.25,44,43.25"/>
	<rect x="0.15" y="47.83" fill="#A8FFE7" width="11.29" height="1.38"/>
	<rect x="39.21" y="47.83" fill="#FD7343" width="5.29" height="1.38"/>
</g>
</svg>
