<?xml version="1.0" encoding="utf-8"?>
<!-- Generator: Adobe Illustrator 29.8.4, SVG Export Plug-In . SVG Version: 9.03 Build 0)  -->
<svg version="1.1" baseProfile="tiny" id="Layer_1" xmlns="http://www.w3.org/2000/svg" xmlns:xlink="http://www.w3.org/1999/xlink"
	 x="0px" y="0px" viewBox="0 0 1.9 28" overflow="visible" xml:space="preserve">
<path id="colorstyle:Accent1" fill="#FFFFFF" d="M1.9,0.95c0,0.53-0.43,0.95-0.95,0.95S0,1.48,0,0.95S0.43,0,0.95,0
	S1.9,0.43,1.9,0.95z M0.95,8.7C0.43,8.7,0,9.13,0,9.65c0,0.53,0.43,0.95,0.95,0.95S1.9,10.18,1.9,9.65C1.9,9.13,1.48,8.7,0.95,8.7z
	 M0.95,17.4C0.43,17.4,0,17.82,0,18.35s0.43,0.95,0.95,0.95s0.95-0.43,0.95-0.95S1.48,17.4,0.95,17.4z M0.95,26.1
	C0.43,26.1,0,26.52,0,27.05C0,27.57,0.43,28,0.95,28s0.95-0.43,0.95-0.95C1.9,26.52,1.48,26.1,0.95,26.1z"/>
</svg>
