<?xml version="1.0" encoding="utf-8"?>
<!-- Generator: Adobe Illustrator 25.0.0, SVG Export Plug-In . SVG Version: 6.00 Build 0)  -->
<svg version="1.1" baseProfile="tiny" id="animated"
	 xmlns="http://www.w3.org/2000/svg" xmlns:xlink="http://www.w3.org/1999/xlink" x="0px" y="0px" width="278px" height="96px"
	 viewBox="0 0 278 96" overflow="visible" xml:space="preserve">
<g id="_x3C_Group_x3E_">
</g>
<g>
	<rect x="242.4" y="56.8" transform="matrix(0.7071 -0.7071 0.7071 0.7071 31.7334 193.5869)" width="14.3" height="3.4"/>
</g>
<g>
	<rect x="231" y="56.8" transform="matrix(0.7071 -0.7071 0.7071 0.7071 28.4102 185.5641)" width="14.3" height="3.4"/>
	<rect x="242.4" y="56.8" transform="matrix(0.7071 -0.7071 0.7071 0.7071 31.7334 193.5869)" width="14.3" height="3.4"/>
</g>
<g>
	<rect x="219.7" y="56.8" transform="matrix(0.7071 -0.7071 0.7071 0.7071 25.0871 177.5414)" width="14.3" height="3.4"/>
	<rect x="231" y="56.8" transform="matrix(0.7071 -0.7071 0.7071 0.7071 28.4102 185.5641)" width="14.3" height="3.4"/>
	<rect x="242.4" y="56.8" transform="matrix(0.7071 -0.7071 0.7071 0.7071 31.7334 193.5869)" width="14.3" height="3.4"/>
</g>
<g>
	<rect x="208.3" y="56.8" transform="matrix(0.7071 -0.7071 0.7071 0.7071 21.764 169.5186)" width="14.3" height="3.4"/>
	<rect x="219.7" y="56.8" transform="matrix(0.7071 -0.7071 0.7071 0.7071 25.0871 177.5414)" width="14.3" height="3.4"/>
	<rect x="231" y="56.8" transform="matrix(0.7071 -0.7071 0.7071 0.7071 28.4102 185.5641)" width="14.3" height="3.4"/>
	<rect x="242.4" y="56.8" transform="matrix(0.7071 -0.7071 0.7071 0.7071 31.7334 193.5869)" width="14.3" height="3.4"/>
</g>
<g>
	<rect x="197" y="56.8" transform="matrix(0.7071 -0.7071 0.7071 0.7071 18.4409 161.4959)" width="14.3" height="3.4"/>
	<rect x="208.3" y="56.8" transform="matrix(0.7071 -0.7071 0.7071 0.7071 21.764 169.5186)" width="14.3" height="3.4"/>
	<rect x="219.7" y="56.8" transform="matrix(0.7071 -0.7071 0.7071 0.7071 25.0871 177.5414)" width="14.3" height="3.4"/>
	<rect x="231" y="56.8" transform="matrix(0.7071 -0.7071 0.7071 0.7071 28.4102 185.5641)" width="14.3" height="3.4"/>
	<rect x="242.4" y="56.8" transform="matrix(0.7071 -0.7071 0.7071 0.7071 31.7334 193.5869)" width="14.3" height="3.4"/>
</g>
<g>
	<rect x="185.6" y="56.8" transform="matrix(0.7071 -0.7071 0.7071 0.7071 15.1177 153.4732)" width="14.3" height="3.4"/>
	<rect x="197" y="56.8" transform="matrix(0.7071 -0.7071 0.7071 0.7071 18.4409 161.4959)" width="14.3" height="3.4"/>
	<rect x="208.3" y="56.8" transform="matrix(0.7071 -0.7071 0.7071 0.7071 21.764 169.5186)" width="14.3" height="3.4"/>
	<rect x="219.7" y="56.8" transform="matrix(0.7071 -0.7071 0.7071 0.7071 25.0871 177.5414)" width="14.3" height="3.4"/>
	<rect x="231" y="56.8" transform="matrix(0.7071 -0.7071 0.7071 0.7071 28.4102 185.5641)" width="14.3" height="3.4"/>
	<rect x="242.4" y="56.8" transform="matrix(0.7071 -0.7071 0.7071 0.7071 31.7334 193.5869)" width="14.3" height="3.4"/>
</g>
<g>
	<rect x="174.3" y="56.8" transform="matrix(0.7071 -0.7071 0.7071 0.7071 11.7946 145.4504)" width="14.3" height="3.4"/>
	<rect x="185.6" y="56.8" transform="matrix(0.7071 -0.7071 0.7071 0.7071 15.1177 153.4732)" width="14.3" height="3.4"/>
	<rect x="197" y="56.8" transform="matrix(0.7071 -0.7071 0.7071 0.7071 18.4409 161.4959)" width="14.3" height="3.4"/>
	<rect x="208.3" y="56.8" transform="matrix(0.7071 -0.7071 0.7071 0.7071 21.764 169.5186)" width="14.3" height="3.4"/>
	<rect x="219.7" y="56.8" transform="matrix(0.7071 -0.7071 0.7071 0.7071 25.0871 177.5414)" width="14.3" height="3.4"/>
	<rect x="231" y="56.8" transform="matrix(0.7071 -0.7071 0.7071 0.7071 28.4102 185.5641)" width="14.3" height="3.4"/>
	<rect x="242.4" y="56.8" transform="matrix(0.7071 -0.7071 0.7071 0.7071 31.7334 193.5869)" width="14.3" height="3.4"/>
</g>
<g>
	<rect x="163" y="56.8" transform="matrix(0.7071 -0.7071 0.7071 0.7071 8.4715 137.4277)" width="14.3" height="3.4"/>
	<rect x="174.3" y="56.8" transform="matrix(0.7071 -0.7071 0.7071 0.7071 11.7946 145.4504)" width="14.3" height="3.4"/>
	<rect x="185.6" y="56.8" transform="matrix(0.7071 -0.7071 0.7071 0.7071 15.1177 153.4732)" width="14.3" height="3.4"/>
	<rect x="197" y="56.8" transform="matrix(0.7071 -0.7071 0.7071 0.7071 18.4409 161.4959)" width="14.3" height="3.4"/>
	<rect x="208.3" y="56.8" transform="matrix(0.7071 -0.7071 0.7071 0.7071 21.764 169.5186)" width="14.3" height="3.4"/>
	<rect x="219.7" y="56.8" transform="matrix(0.7071 -0.7071 0.7071 0.7071 25.0871 177.5414)" width="14.3" height="3.4"/>
	<rect x="231" y="56.8" transform="matrix(0.7071 -0.7071 0.7071 0.7071 28.4102 185.5641)" width="14.3" height="3.4"/>
	<rect x="242.4" y="56.8" transform="matrix(0.7071 -0.7071 0.7071 0.7071 31.7334 193.5869)" width="14.3" height="3.4"/>
</g>
<g>
	<rect x="151.6" y="56.8" transform="matrix(0.7071 -0.7071 0.7071 0.7071 5.1484 129.405)" width="14.3" height="3.4"/>
	<rect x="163" y="56.8" transform="matrix(0.7071 -0.7071 0.7071 0.7071 8.4715 137.4277)" width="14.3" height="3.4"/>
	<rect x="174.3" y="56.8" transform="matrix(0.7071 -0.7071 0.7071 0.7071 11.7946 145.4504)" width="14.3" height="3.4"/>
	<rect x="185.6" y="56.8" transform="matrix(0.7071 -0.7071 0.7071 0.7071 15.1177 153.4732)" width="14.3" height="3.4"/>
	<rect x="197" y="56.8" transform="matrix(0.7071 -0.7071 0.7071 0.7071 18.4409 161.4959)" width="14.3" height="3.4"/>
	<rect x="208.3" y="56.8" transform="matrix(0.7071 -0.7071 0.7071 0.7071 21.764 169.5186)" width="14.3" height="3.4"/>
	<rect x="219.7" y="56.8" transform="matrix(0.7071 -0.7071 0.7071 0.7071 25.0871 177.5414)" width="14.3" height="3.4"/>
	<rect x="231" y="56.8" transform="matrix(0.7071 -0.7071 0.7071 0.7071 28.4102 185.5641)" width="14.3" height="3.4"/>
	<rect x="242.4" y="56.8" transform="matrix(0.7071 -0.7071 0.7071 0.7071 31.7334 193.5869)" width="14.3" height="3.4"/>
</g>
<g>
	<rect x="140.3" y="56.8" transform="matrix(0.7071 -0.7071 0.7071 0.7071 1.8252 121.3822)" width="14.3" height="3.4"/>
	<rect x="151.6" y="56.8" transform="matrix(0.7071 -0.7071 0.7071 0.7071 5.1484 129.405)" width="14.3" height="3.4"/>
	<rect x="163" y="56.8" transform="matrix(0.7071 -0.7071 0.7071 0.7071 8.4715 137.4277)" width="14.3" height="3.4"/>
	<rect x="174.3" y="56.8" transform="matrix(0.7071 -0.7071 0.7071 0.7071 11.7946 145.4504)" width="14.3" height="3.4"/>
	<rect x="185.6" y="56.8" transform="matrix(0.7071 -0.7071 0.7071 0.7071 15.1177 153.4732)" width="14.3" height="3.4"/>
	<rect x="197" y="56.8" transform="matrix(0.7071 -0.7071 0.7071 0.7071 18.4409 161.4959)" width="14.3" height="3.4"/>
	<rect x="208.3" y="56.8" transform="matrix(0.7071 -0.7071 0.7071 0.7071 21.764 169.5186)" width="14.3" height="3.4"/>
	<rect x="219.7" y="56.8" transform="matrix(0.7071 -0.7071 0.7071 0.7071 25.0871 177.5414)" width="14.3" height="3.4"/>
	<rect x="231" y="56.8" transform="matrix(0.7071 -0.7071 0.7071 0.7071 28.4102 185.5641)" width="14.3" height="3.4"/>
	<rect x="242.4" y="56.8" transform="matrix(0.7071 -0.7071 0.7071 0.7071 31.7334 193.5869)" width="14.3" height="3.4"/>
</g>
<g>
	<rect x="128.9" y="56.8" transform="matrix(0.7071 -0.7071 0.7071 0.7071 -1.4979 113.3595)" width="14.3" height="3.4"/>
	<rect x="140.3" y="56.8" transform="matrix(0.7071 -0.7071 0.7071 0.7071 1.8252 121.3822)" width="14.3" height="3.4"/>
	<rect x="151.6" y="56.8" transform="matrix(0.7071 -0.7071 0.7071 0.7071 5.1484 129.405)" width="14.3" height="3.4"/>
	<rect x="163" y="56.8" transform="matrix(0.7071 -0.7071 0.7071 0.7071 8.4715 137.4277)" width="14.3" height="3.4"/>
	<rect x="174.3" y="56.8" transform="matrix(0.7071 -0.7071 0.7071 0.7071 11.7946 145.4504)" width="14.3" height="3.4"/>
	<rect x="185.6" y="56.8" transform="matrix(0.7071 -0.7071 0.7071 0.7071 15.1177 153.4732)" width="14.3" height="3.4"/>
	<rect x="197" y="56.8" transform="matrix(0.7071 -0.7071 0.7071 0.7071 18.4409 161.4959)" width="14.3" height="3.4"/>
	<rect x="208.3" y="56.8" transform="matrix(0.7071 -0.7071 0.7071 0.7071 21.764 169.5186)" width="14.3" height="3.4"/>
	<rect x="219.7" y="56.8" transform="matrix(0.7071 -0.7071 0.7071 0.7071 25.0871 177.5414)" width="14.3" height="3.4"/>
	<rect x="231" y="56.8" transform="matrix(0.7071 -0.7071 0.7071 0.7071 28.4102 185.5641)" width="14.3" height="3.4"/>
	<rect x="242.4" y="56.8" transform="matrix(0.7071 -0.7071 0.7071 0.7071 31.7334 193.5869)" width="14.3" height="3.4"/>
</g>
<g>
	<rect x="117.6" y="56.8" transform="matrix(0.7071 -0.7071 0.7071 0.7071 -4.821 105.3367)" width="14.3" height="3.4"/>
	<rect x="128.9" y="56.8" transform="matrix(0.7071 -0.7071 0.7071 0.7071 -1.4979 113.3595)" width="14.3" height="3.4"/>
	<rect x="140.3" y="56.8" transform="matrix(0.7071 -0.7071 0.7071 0.7071 1.8252 121.3822)" width="14.3" height="3.4"/>
	<rect x="151.6" y="56.8" transform="matrix(0.7071 -0.7071 0.7071 0.7071 5.1484 129.405)" width="14.3" height="3.4"/>
	<rect x="163" y="56.8" transform="matrix(0.7071 -0.7071 0.7071 0.7071 8.4715 137.4277)" width="14.3" height="3.4"/>
	<rect x="174.3" y="56.8" transform="matrix(0.7071 -0.7071 0.7071 0.7071 11.7946 145.4504)" width="14.3" height="3.4"/>
	<rect x="185.6" y="56.8" transform="matrix(0.7071 -0.7071 0.7071 0.7071 15.1177 153.4732)" width="14.3" height="3.4"/>
	<rect x="197" y="56.8" transform="matrix(0.7071 -0.7071 0.7071 0.7071 18.4409 161.4959)" width="14.3" height="3.4"/>
	<rect x="208.3" y="56.8" transform="matrix(0.7071 -0.7071 0.7071 0.7071 21.764 169.5186)" width="14.3" height="3.4"/>
	<rect x="219.7" y="56.8" transform="matrix(0.7071 -0.7071 0.7071 0.7071 25.0871 177.5414)" width="14.3" height="3.4"/>
	<rect x="231" y="56.8" transform="matrix(0.7071 -0.7071 0.7071 0.7071 28.4102 185.5641)" width="14.3" height="3.4"/>
	<rect x="242.4" y="56.8" transform="matrix(0.7071 -0.7071 0.7071 0.7071 31.7334 193.5869)" width="14.3" height="3.4"/>
</g>
<g>
	<rect x="106.2" y="56.8" transform="matrix(0.7071 -0.7071 0.7071 0.7071 -8.1441 97.314)" width="14.3" height="3.4"/>
	<rect x="117.6" y="56.8" transform="matrix(0.7071 -0.7071 0.7071 0.7071 -4.821 105.3367)" width="14.3" height="3.4"/>
	<rect x="128.9" y="56.8" transform="matrix(0.7071 -0.7071 0.7071 0.7071 -1.4979 113.3595)" width="14.3" height="3.4"/>
	<rect x="140.3" y="56.8" transform="matrix(0.7071 -0.7071 0.7071 0.7071 1.8252 121.3822)" width="14.3" height="3.4"/>
	<rect x="151.6" y="56.8" transform="matrix(0.7071 -0.7071 0.7071 0.7071 5.1484 129.405)" width="14.3" height="3.4"/>
	<rect x="163" y="56.8" transform="matrix(0.7071 -0.7071 0.7071 0.7071 8.4715 137.4277)" width="14.3" height="3.4"/>
	<rect x="174.3" y="56.8" transform="matrix(0.7071 -0.7071 0.7071 0.7071 11.7946 145.4504)" width="14.3" height="3.4"/>
	<rect x="185.6" y="56.8" transform="matrix(0.7071 -0.7071 0.7071 0.7071 15.1177 153.4732)" width="14.3" height="3.4"/>
	<rect x="197" y="56.8" transform="matrix(0.7071 -0.7071 0.7071 0.7071 18.4409 161.4959)" width="14.3" height="3.4"/>
	<rect x="208.3" y="56.8" transform="matrix(0.7071 -0.7071 0.7071 0.7071 21.764 169.5186)" width="14.3" height="3.4"/>
	<rect x="219.7" y="56.8" transform="matrix(0.7071 -0.7071 0.7071 0.7071 25.0871 177.5414)" width="14.3" height="3.4"/>
	<rect x="231" y="56.8" transform="matrix(0.7071 -0.7071 0.7071 0.7071 28.4102 185.5641)" width="14.3" height="3.4"/>
	<rect x="242.4" y="56.8" transform="matrix(0.7071 -0.7071 0.7071 0.7071 31.7334 193.5869)" width="14.3" height="3.4"/>
</g>
<g>
	<rect x="94.9" y="56.8" transform="matrix(0.7071 -0.7071 0.7071 0.7071 -11.4673 89.2913)" width="14.3" height="3.4"/>
	<rect x="106.2" y="56.8" transform="matrix(0.7071 -0.7071 0.7071 0.7071 -8.1441 97.314)" width="14.3" height="3.4"/>
	<rect x="117.6" y="56.8" transform="matrix(0.7071 -0.7071 0.7071 0.7071 -4.821 105.3367)" width="14.3" height="3.4"/>
	<rect x="128.9" y="56.8" transform="matrix(0.7071 -0.7071 0.7071 0.7071 -1.4979 113.3595)" width="14.3" height="3.4"/>
	<rect x="140.3" y="56.8" transform="matrix(0.7071 -0.7071 0.7071 0.7071 1.8252 121.3822)" width="14.3" height="3.4"/>
	<rect x="151.6" y="56.8" transform="matrix(0.7071 -0.7071 0.7071 0.7071 5.1484 129.405)" width="14.3" height="3.4"/>
	<rect x="163" y="56.8" transform="matrix(0.7071 -0.7071 0.7071 0.7071 8.4715 137.4277)" width="14.3" height="3.4"/>
	<rect x="174.3" y="56.8" transform="matrix(0.7071 -0.7071 0.7071 0.7071 11.7946 145.4504)" width="14.3" height="3.4"/>
	<rect x="185.6" y="56.8" transform="matrix(0.7071 -0.7071 0.7071 0.7071 15.1177 153.4732)" width="14.3" height="3.4"/>
	<rect x="197" y="56.8" transform="matrix(0.7071 -0.7071 0.7071 0.7071 18.4409 161.4959)" width="14.3" height="3.4"/>
	<rect x="208.3" y="56.8" transform="matrix(0.7071 -0.7071 0.7071 0.7071 21.764 169.5186)" width="14.3" height="3.4"/>
	<rect x="219.7" y="56.8" transform="matrix(0.7071 -0.7071 0.7071 0.7071 25.0871 177.5414)" width="14.3" height="3.4"/>
	<rect x="231" y="56.8" transform="matrix(0.7071 -0.7071 0.7071 0.7071 28.4102 185.5641)" width="14.3" height="3.4"/>
	<rect x="242.4" y="56.8" transform="matrix(0.7071 -0.7071 0.7071 0.7071 31.7334 193.5869)" width="14.3" height="3.4"/>
</g>
<g>
	<rect x="83.5" y="56.8" transform="matrix(0.7071 -0.7071 0.7071 0.7071 -14.7904 81.2685)" width="14.3" height="3.4"/>
	<rect x="94.9" y="56.8" transform="matrix(0.7071 -0.7071 0.7071 0.7071 -11.4673 89.2913)" width="14.3" height="3.4"/>
	<rect x="106.2" y="56.8" transform="matrix(0.7071 -0.7071 0.7071 0.7071 -8.1441 97.314)" width="14.3" height="3.4"/>
	<rect x="117.6" y="56.8" transform="matrix(0.7071 -0.7071 0.7071 0.7071 -4.821 105.3367)" width="14.3" height="3.4"/>
	<rect x="128.9" y="56.8" transform="matrix(0.7071 -0.7071 0.7071 0.7071 -1.4979 113.3595)" width="14.3" height="3.4"/>
	<rect x="140.3" y="56.8" transform="matrix(0.7071 -0.7071 0.7071 0.7071 1.8252 121.3822)" width="14.3" height="3.4"/>
	<rect x="151.6" y="56.8" transform="matrix(0.7071 -0.7071 0.7071 0.7071 5.1484 129.405)" width="14.3" height="3.4"/>
	<rect x="163" y="56.8" transform="matrix(0.7071 -0.7071 0.7071 0.7071 8.4715 137.4277)" width="14.3" height="3.4"/>
	<rect x="174.3" y="56.8" transform="matrix(0.7071 -0.7071 0.7071 0.7071 11.7946 145.4504)" width="14.3" height="3.4"/>
	<rect x="185.6" y="56.8" transform="matrix(0.7071 -0.7071 0.7071 0.7071 15.1177 153.4732)" width="14.3" height="3.4"/>
	<rect x="197" y="56.8" transform="matrix(0.7071 -0.7071 0.7071 0.7071 18.4409 161.4959)" width="14.3" height="3.4"/>
	<rect x="208.3" y="56.8" transform="matrix(0.7071 -0.7071 0.7071 0.7071 21.764 169.5186)" width="14.3" height="3.4"/>
	<rect x="219.7" y="56.8" transform="matrix(0.7071 -0.7071 0.7071 0.7071 25.0871 177.5414)" width="14.3" height="3.4"/>
	<rect x="231" y="56.8" transform="matrix(0.7071 -0.7071 0.7071 0.7071 28.4102 185.5641)" width="14.3" height="3.4"/>
	<rect x="242.4" y="56.8" transform="matrix(0.7071 -0.7071 0.7071 0.7071 31.7334 193.5869)" width="14.3" height="3.4"/>
</g>
<g>
	<rect x="83.5" y="56.8" transform="matrix(0.7071 -0.7071 0.7071 0.7071 -14.7904 81.2685)" width="14.3" height="3.4"/>
	<rect x="94.9" y="56.8" transform="matrix(0.7071 -0.7071 0.7071 0.7071 -11.4673 89.2913)" width="14.3" height="3.4"/>
	<rect x="106.2" y="56.8" transform="matrix(0.7071 -0.7071 0.7071 0.7071 -8.1441 97.314)" width="14.3" height="3.4"/>
	<rect x="117.6" y="56.8" transform="matrix(0.7071 -0.7071 0.7071 0.7071 -4.821 105.3367)" width="14.3" height="3.4"/>
	<rect x="128.9" y="56.8" transform="matrix(0.7071 -0.7071 0.7071 0.7071 -1.4979 113.3595)" width="14.3" height="3.4"/>
	<rect x="140.3" y="56.8" transform="matrix(0.7071 -0.7071 0.7071 0.7071 1.8252 121.3822)" width="14.3" height="3.4"/>
	<rect x="151.6" y="56.8" transform="matrix(0.7071 -0.7071 0.7071 0.7071 5.1484 129.405)" width="14.3" height="3.4"/>
	<rect x="163" y="56.8" transform="matrix(0.7071 -0.7071 0.7071 0.7071 8.4715 137.4277)" width="14.3" height="3.4"/>
	<rect x="174.3" y="56.8" transform="matrix(0.7071 -0.7071 0.7071 0.7071 11.7946 145.4504)" width="14.3" height="3.4"/>
	<rect x="185.6" y="56.8" transform="matrix(0.7071 -0.7071 0.7071 0.7071 15.1177 153.4732)" width="14.3" height="3.4"/>
	<rect x="197" y="56.8" transform="matrix(0.7071 -0.7071 0.7071 0.7071 18.4409 161.4959)" width="14.3" height="3.4"/>
	<rect x="208.3" y="56.8" transform="matrix(0.7071 -0.7071 0.7071 0.7071 21.764 169.5186)" width="14.3" height="3.4"/>
	<rect x="219.7" y="56.8" transform="matrix(0.7071 -0.7071 0.7071 0.7071 25.0871 177.5414)" width="14.3" height="3.4"/>
	<rect x="231" y="56.8" transform="matrix(0.7071 -0.7071 0.7071 0.7071 28.4102 185.5641)" width="14.3" height="3.4"/>
	<rect x="242.4" y="56.8" transform="matrix(0.7071 -0.7071 0.7071 0.7071 31.7334 193.5869)" width="14.3" height="3.4"/>
	<rect x="72.2" y="56.8" transform="matrix(0.7071 -0.7071 0.7071 0.7071 -18.1135 73.2458)" width="14.3" height="3.4"/>
</g>
<g>
	<rect x="83.5" y="56.8" transform="matrix(0.7071 -0.7071 0.7071 0.7071 -14.7904 81.2685)" width="14.3" height="3.4"/>
	<rect x="94.9" y="56.8" transform="matrix(0.7071 -0.7071 0.7071 0.7071 -11.4673 89.2913)" width="14.3" height="3.4"/>
	<rect x="106.2" y="56.8" transform="matrix(0.7071 -0.7071 0.7071 0.7071 -8.1441 97.314)" width="14.3" height="3.4"/>
	<rect x="117.6" y="56.8" transform="matrix(0.7071 -0.7071 0.7071 0.7071 -4.821 105.3367)" width="14.3" height="3.4"/>
	<rect x="128.9" y="56.8" transform="matrix(0.7071 -0.7071 0.7071 0.7071 -1.4979 113.3595)" width="14.3" height="3.4"/>
	<rect x="140.3" y="56.8" transform="matrix(0.7071 -0.7071 0.7071 0.7071 1.8252 121.3822)" width="14.3" height="3.4"/>
	<rect x="151.6" y="56.8" transform="matrix(0.7071 -0.7071 0.7071 0.7071 5.1484 129.405)" width="14.3" height="3.4"/>
	<rect x="163" y="56.8" transform="matrix(0.7071 -0.7071 0.7071 0.7071 8.4715 137.4277)" width="14.3" height="3.4"/>
	<rect x="174.3" y="56.8" transform="matrix(0.7071 -0.7071 0.7071 0.7071 11.7946 145.4504)" width="14.3" height="3.4"/>
	<rect x="185.6" y="56.8" transform="matrix(0.7071 -0.7071 0.7071 0.7071 15.1177 153.4732)" width="14.3" height="3.4"/>
	<rect x="197" y="56.8" transform="matrix(0.7071 -0.7071 0.7071 0.7071 18.4409 161.4959)" width="14.3" height="3.4"/>
	<rect x="208.3" y="56.8" transform="matrix(0.7071 -0.7071 0.7071 0.7071 21.764 169.5186)" width="14.3" height="3.4"/>
	<rect x="219.7" y="56.8" transform="matrix(0.7071 -0.7071 0.7071 0.7071 25.0871 177.5414)" width="14.3" height="3.4"/>
	<rect x="231" y="56.8" transform="matrix(0.7071 -0.7071 0.7071 0.7071 28.4102 185.5641)" width="14.3" height="3.4"/>
	<rect x="242.4" y="56.8" transform="matrix(0.7071 -0.7071 0.7071 0.7071 31.7334 193.5869)" width="14.3" height="3.4"/>
	<rect x="60.8" y="56.8" transform="matrix(0.7071 -0.7071 0.7071 0.7071 -21.4367 65.2231)" width="14.3" height="3.4"/>
	<rect x="72.2" y="56.8" transform="matrix(0.7071 -0.7071 0.7071 0.7071 -18.1135 73.2458)" width="14.3" height="3.4"/>
</g>
<g>
	<rect x="83.5" y="56.8" transform="matrix(0.7071 -0.7071 0.7071 0.7071 -14.7904 81.2685)" width="14.3" height="3.4"/>
	<rect x="94.9" y="56.8" transform="matrix(0.7071 -0.7071 0.7071 0.7071 -11.4673 89.2913)" width="14.3" height="3.4"/>
	<rect x="106.2" y="56.8" transform="matrix(0.7071 -0.7071 0.7071 0.7071 -8.1441 97.314)" width="14.3" height="3.4"/>
	<rect x="117.6" y="56.8" transform="matrix(0.7071 -0.7071 0.7071 0.7071 -4.821 105.3367)" width="14.3" height="3.4"/>
	<rect x="128.9" y="56.8" transform="matrix(0.7071 -0.7071 0.7071 0.7071 -1.4979 113.3595)" width="14.3" height="3.4"/>
	<rect x="140.3" y="56.8" transform="matrix(0.7071 -0.7071 0.7071 0.7071 1.8252 121.3822)" width="14.3" height="3.4"/>
	<rect x="151.6" y="56.8" transform="matrix(0.7071 -0.7071 0.7071 0.7071 5.1484 129.405)" width="14.3" height="3.4"/>
	<rect x="163" y="56.8" transform="matrix(0.7071 -0.7071 0.7071 0.7071 8.4715 137.4277)" width="14.3" height="3.4"/>
	<rect x="174.3" y="56.8" transform="matrix(0.7071 -0.7071 0.7071 0.7071 11.7946 145.4504)" width="14.3" height="3.4"/>
	<rect x="185.6" y="56.8" transform="matrix(0.7071 -0.7071 0.7071 0.7071 15.1177 153.4732)" width="14.3" height="3.4"/>
	<rect x="197" y="56.8" transform="matrix(0.7071 -0.7071 0.7071 0.7071 18.4409 161.4959)" width="14.3" height="3.4"/>
	<rect x="208.3" y="56.8" transform="matrix(0.7071 -0.7071 0.7071 0.7071 21.764 169.5186)" width="14.3" height="3.4"/>
	<rect x="219.7" y="56.8" transform="matrix(0.7071 -0.7071 0.7071 0.7071 25.0871 177.5414)" width="14.3" height="3.4"/>
	<rect x="231" y="56.8" transform="matrix(0.7071 -0.7071 0.7071 0.7071 28.4102 185.5641)" width="14.3" height="3.4"/>
	<rect x="242.4" y="56.8" transform="matrix(0.7071 -0.7071 0.7071 0.7071 31.7334 193.5869)" width="14.3" height="3.4"/>
	<rect x="49.5" y="56.8" transform="matrix(0.7071 -0.7071 0.7071 0.7071 -24.7598 57.2003)" width="14.3" height="3.4"/>
	<rect x="60.8" y="56.8" transform="matrix(0.7071 -0.7071 0.7071 0.7071 -21.4367 65.2231)" width="14.3" height="3.4"/>
	<rect x="72.2" y="56.8" transform="matrix(0.7071 -0.7071 0.7071 0.7071 -18.1135 73.2458)" width="14.3" height="3.4"/>
</g>
<g>
	<rect x="83.5" y="56.8" transform="matrix(0.7071 -0.7071 0.7071 0.7071 -14.7904 81.2685)" width="14.3" height="3.4"/>
	<rect x="94.9" y="56.8" transform="matrix(0.7071 -0.7071 0.7071 0.7071 -11.4673 89.2913)" width="14.3" height="3.4"/>
	<rect x="106.2" y="56.8" transform="matrix(0.7071 -0.7071 0.7071 0.7071 -8.1441 97.314)" width="14.3" height="3.4"/>
	<rect x="117.6" y="56.8" transform="matrix(0.7071 -0.7071 0.7071 0.7071 -4.821 105.3367)" width="14.3" height="3.4"/>
	<rect x="128.9" y="56.8" transform="matrix(0.7071 -0.7071 0.7071 0.7071 -1.4979 113.3595)" width="14.3" height="3.4"/>
	<rect x="140.3" y="56.8" transform="matrix(0.7071 -0.7071 0.7071 0.7071 1.8252 121.3822)" width="14.3" height="3.4"/>
	<rect x="151.6" y="56.8" transform="matrix(0.7071 -0.7071 0.7071 0.7071 5.1484 129.405)" width="14.3" height="3.4"/>
	<rect x="163" y="56.8" transform="matrix(0.7071 -0.7071 0.7071 0.7071 8.4715 137.4277)" width="14.3" height="3.4"/>
	<rect x="174.3" y="56.8" transform="matrix(0.7071 -0.7071 0.7071 0.7071 11.7946 145.4504)" width="14.3" height="3.4"/>
	<rect x="185.6" y="56.8" transform="matrix(0.7071 -0.7071 0.7071 0.7071 15.1177 153.4732)" width="14.3" height="3.4"/>
	<rect x="197" y="56.8" transform="matrix(0.7071 -0.7071 0.7071 0.7071 18.4409 161.4959)" width="14.3" height="3.4"/>
	<rect x="208.3" y="56.8" transform="matrix(0.7071 -0.7071 0.7071 0.7071 21.764 169.5186)" width="14.3" height="3.4"/>
	<rect x="219.7" y="56.8" transform="matrix(0.7071 -0.7071 0.7071 0.7071 25.0871 177.5414)" width="14.3" height="3.4"/>
	<rect x="231" y="56.8" transform="matrix(0.7071 -0.7071 0.7071 0.7071 28.4102 185.5641)" width="14.3" height="3.4"/>
	<rect x="242.4" y="56.8" transform="matrix(0.7071 -0.7071 0.7071 0.7071 31.7334 193.5869)" width="14.3" height="3.4"/>
	<rect x="38.1" y="56.8" transform="matrix(0.7071 -0.7071 0.7071 0.7071 -28.0829 49.1776)" width="14.3" height="3.4"/>
	<rect x="49.5" y="56.8" transform="matrix(0.7071 -0.7071 0.7071 0.7071 -24.7598 57.2003)" width="14.3" height="3.4"/>
	<rect x="60.8" y="56.8" transform="matrix(0.7071 -0.7071 0.7071 0.7071 -21.4367 65.2231)" width="14.3" height="3.4"/>
	<rect x="72.2" y="56.8" transform="matrix(0.7071 -0.7071 0.7071 0.7071 -18.1135 73.2458)" width="14.3" height="3.4"/>
</g>
<g>
	<rect x="83.5" y="56.8" transform="matrix(0.7071 -0.7071 0.7071 0.7071 -14.7904 81.2685)" width="14.3" height="3.4"/>
	<rect x="94.9" y="56.8" transform="matrix(0.7071 -0.7071 0.7071 0.7071 -11.4673 89.2913)" width="14.3" height="3.4"/>
	<rect x="106.2" y="56.8" transform="matrix(0.7071 -0.7071 0.7071 0.7071 -8.1441 97.314)" width="14.3" height="3.4"/>
	<rect x="117.6" y="56.8" transform="matrix(0.7071 -0.7071 0.7071 0.7071 -4.821 105.3367)" width="14.3" height="3.4"/>
	<rect x="128.9" y="56.8" transform="matrix(0.7071 -0.7071 0.7071 0.7071 -1.4979 113.3595)" width="14.3" height="3.4"/>
	<rect x="140.3" y="56.8" transform="matrix(0.7071 -0.7071 0.7071 0.7071 1.8252 121.3822)" width="14.3" height="3.4"/>
	<rect x="151.6" y="56.8" transform="matrix(0.7071 -0.7071 0.7071 0.7071 5.1484 129.405)" width="14.3" height="3.4"/>
	<rect x="163" y="56.8" transform="matrix(0.7071 -0.7071 0.7071 0.7071 8.4715 137.4277)" width="14.3" height="3.4"/>
	<rect x="174.3" y="56.8" transform="matrix(0.7071 -0.7071 0.7071 0.7071 11.7946 145.4504)" width="14.3" height="3.4"/>
	<rect x="185.6" y="56.8" transform="matrix(0.7071 -0.7071 0.7071 0.7071 15.1177 153.4732)" width="14.3" height="3.4"/>
	<rect x="197" y="56.8" transform="matrix(0.7071 -0.7071 0.7071 0.7071 18.4409 161.4959)" width="14.3" height="3.4"/>
	<rect x="208.3" y="56.8" transform="matrix(0.7071 -0.7071 0.7071 0.7071 21.764 169.5186)" width="14.3" height="3.4"/>
	<rect x="219.7" y="56.8" transform="matrix(0.7071 -0.7071 0.7071 0.7071 25.0871 177.5414)" width="14.3" height="3.4"/>
	<rect x="231" y="56.8" transform="matrix(0.7071 -0.7071 0.7071 0.7071 28.4102 185.5641)" width="14.3" height="3.4"/>
	<rect x="242.4" y="56.8" transform="matrix(0.7071 -0.7071 0.7071 0.7071 31.7334 193.5869)" width="14.3" height="3.4"/>
	<rect x="26.8" y="56.8" transform="matrix(0.7071 -0.7071 0.7071 0.7071 -31.406 41.1548)" width="14.3" height="3.4"/>
	<rect x="38.1" y="56.8" transform="matrix(0.7071 -0.7071 0.7071 0.7071 -28.0829 49.1776)" width="14.3" height="3.4"/>
	<rect x="49.5" y="56.8" transform="matrix(0.7071 -0.7071 0.7071 0.7071 -24.7598 57.2003)" width="14.3" height="3.4"/>
	<rect x="60.8" y="56.8" transform="matrix(0.7071 -0.7071 0.7071 0.7071 -21.4367 65.2231)" width="14.3" height="3.4"/>
	<rect x="72.2" y="56.8" transform="matrix(0.7071 -0.7071 0.7071 0.7071 -18.1135 73.2458)" width="14.3" height="3.4"/>
</g>
</svg>
