<?xml version="1.0" encoding="utf-8"?>
<!-- Generator: Adobe Illustrator 25.0.0, SVG Export Plug-In . SVG Version: 6.00 Build 0)  -->
<svg version="1.1" baseProfile="tiny" id="animated"
	 xmlns="http://www.w3.org/2000/svg" xmlns:xlink="http://www.w3.org/1999/xlink" x="0px" y="0px" width="590px" height="83px"
	 viewBox="0 0 590 83" overflow="visible" xml:space="preserve">
<g id="_x3C_Group_x3E_">
</g>
<g>
	<rect x="178.2" y="57.1" transform="matrix(0.9981 -6.152705e-02 6.152705e-02 0.9981 -3.3268 11.1681)" width="3" height="5"/>
</g>
<g>
	<rect x="178.2" y="57.1" transform="matrix(0.9981 -6.152705e-02 6.152705e-02 0.9981 -3.3268 11.1681)" width="3" height="5"/>
	<rect x="185.2" y="56.7" transform="matrix(0.9983 -5.761151e-02 5.761151e-02 0.9983 -3.1 10.8524)" width="3" height="5"/>
</g>
<g>
	<rect x="178.2" y="57.1" transform="matrix(0.9981 -6.152705e-02 6.152705e-02 0.9981 -3.3268 11.1681)" width="3" height="5"/>
	<rect x="185.2" y="56.7" transform="matrix(0.9983 -5.761151e-02 5.761151e-02 0.9983 -3.1 10.8524)" width="3" height="5"/>
	<rect x="192.2" y="56.3" transform="matrix(0.9986 -5.371732e-02 5.371732e-02 0.9986 -2.8792 10.4875)" width="3" height="5"/>
</g>
<g>
	<rect x="178.2" y="57.1" transform="matrix(0.9981 -6.152705e-02 6.152705e-02 0.9981 -3.3268 11.1681)" width="3" height="5"/>
	<rect x="185.2" y="56.7" transform="matrix(0.9983 -5.761151e-02 5.761151e-02 0.9983 -3.1 10.8524)" width="3" height="5"/>
	<rect x="192.2" y="56.3" transform="matrix(0.9986 -5.371732e-02 5.371732e-02 0.9986 -2.8792 10.4875)" width="3" height="5"/>
	<polygon points="199.3,61 199,56 202,55.9 202.3,60.9 	"/>
</g>
<g>
	<rect x="178.2" y="57.1" transform="matrix(0.9981 -6.152705e-02 6.152705e-02 0.9981 -3.3268 11.1681)" width="3" height="5"/>
	<rect x="185.2" y="56.7" transform="matrix(0.9983 -5.761151e-02 5.761151e-02 0.9983 -3.1 10.8524)" width="3" height="5"/>
	<rect x="192.2" y="56.3" transform="matrix(0.9986 -5.371732e-02 5.371732e-02 0.9986 -2.8792 10.4875)" width="3" height="5"/>
	<polygon points="199.3,61 199,56 202,55.9 202.3,60.9 	"/>
	<rect x="206.1" y="55.6" transform="matrix(0.9989 -4.687840e-02 4.687840e-02 0.9989 -2.4958 9.7974)" width="3" height="5"/>
</g>
<g>
	<rect x="178.2" y="57.1" transform="matrix(0.9981 -6.152705e-02 6.152705e-02 0.9981 -3.3268 11.1681)" width="3" height="5"/>
	<rect x="185.2" y="56.7" transform="matrix(0.9983 -5.761151e-02 5.761151e-02 0.9983 -3.1 10.8524)" width="3" height="5"/>
	<rect x="192.2" y="56.3" transform="matrix(0.9986 -5.371732e-02 5.371732e-02 0.9986 -2.8792 10.4875)" width="3" height="5"/>
	<polygon points="199.3,61 199,56 202,55.9 202.3,60.9 	"/>
	<rect x="206.1" y="55.6" transform="matrix(0.9989 -4.687840e-02 4.687840e-02 0.9989 -2.4958 9.7974)" width="3" height="5"/>
	<rect x="213.1" y="55.3" transform="matrix(0.9991 -4.296264e-02 4.296264e-02 0.9991 -2.2851 9.2742)" width="3" height="5"/>
</g>
<g>
	<rect x="178.2" y="57.1" transform="matrix(0.9981 -6.152705e-02 6.152705e-02 0.9981 -3.3268 11.1681)" width="3" height="5"/>
	<rect x="185.2" y="56.7" transform="matrix(0.9983 -5.761151e-02 5.761151e-02 0.9983 -3.1 10.8524)" width="3" height="5"/>
	<rect x="192.2" y="56.3" transform="matrix(0.9986 -5.371732e-02 5.371732e-02 0.9986 -2.8792 10.4875)" width="3" height="5"/>
	<polygon points="199.3,61 199,56 202,55.9 202.3,60.9 	"/>
	<rect x="206.1" y="55.6" transform="matrix(0.9989 -4.687840e-02 4.687840e-02 0.9989 -2.4958 9.7974)" width="3" height="5"/>
	<rect x="213.1" y="55.3" transform="matrix(0.9991 -4.296264e-02 4.296264e-02 0.9991 -2.2851 9.2742)" width="3" height="5"/>
	<rect x="220.1" y="55" transform="matrix(0.9992 -3.906320e-02 3.906320e-02 0.9992 -2.0777 8.701)" width="3" height="5"/>
</g>
<g>
	<rect x="178.2" y="57.1" transform="matrix(0.9981 -6.152705e-02 6.152705e-02 0.9981 -3.3268 11.1681)" width="3" height="5"/>
	<rect x="185.2" y="56.7" transform="matrix(0.9983 -5.761151e-02 5.761151e-02 0.9983 -3.1 10.8524)" width="3" height="5"/>
	<rect x="192.2" y="56.3" transform="matrix(0.9986 -5.371732e-02 5.371732e-02 0.9986 -2.8792 10.4875)" width="3" height="5"/>
	<polygon points="199.3,61 199,56 202,55.9 202.3,60.9 	"/>
	<rect x="206.1" y="55.6" transform="matrix(0.9989 -4.687840e-02 4.687840e-02 0.9989 -2.4958 9.7974)" width="3" height="5"/>
	<rect x="213.1" y="55.3" transform="matrix(0.9991 -4.296264e-02 4.296264e-02 0.9991 -2.2851 9.2742)" width="3" height="5"/>
	<rect x="220.1" y="55" transform="matrix(0.9992 -3.906320e-02 3.906320e-02 0.9992 -2.0777 8.701)" width="3" height="5"/>
	<polygon points="227.2,59.8 227,54.8 230,54.7 230.2,59.7 	"/>
</g>
<g>
	<rect x="178.2" y="57.1" transform="matrix(0.9981 -6.152705e-02 6.152705e-02 0.9981 -3.3268 11.1681)" width="3" height="5"/>
	<rect x="185.2" y="56.7" transform="matrix(0.9983 -5.761151e-02 5.761151e-02 0.9983 -3.1 10.8524)" width="3" height="5"/>
	<rect x="192.2" y="56.3" transform="matrix(0.9986 -5.371732e-02 5.371732e-02 0.9986 -2.8792 10.4875)" width="3" height="5"/>
	<polygon points="199.3,61 199,56 202,55.9 202.3,60.9 	"/>
	<rect x="206.1" y="55.6" transform="matrix(0.9989 -4.687840e-02 4.687840e-02 0.9989 -2.4958 9.7974)" width="3" height="5"/>
	<rect x="213.1" y="55.3" transform="matrix(0.9991 -4.296264e-02 4.296264e-02 0.9991 -2.2851 9.2742)" width="3" height="5"/>
	<rect x="220.1" y="55" transform="matrix(0.9992 -3.906320e-02 3.906320e-02 0.9992 -2.0777 8.701)" width="3" height="5"/>
	<polygon points="227.2,59.8 227,54.8 230,54.7 230.2,59.7 	"/>
	<polygon points="234.2,59.6 234,54.6 237,54.5 237.2,59.5 	"/>
</g>
<g>
	<rect x="178.2" y="57.1" transform="matrix(0.9981 -6.152705e-02 6.152705e-02 0.9981 -3.3268 11.1681)" width="3" height="5"/>
	<rect x="185.2" y="56.7" transform="matrix(0.9983 -5.761151e-02 5.761151e-02 0.9983 -3.1 10.8524)" width="3" height="5"/>
	<rect x="192.2" y="56.3" transform="matrix(0.9986 -5.371732e-02 5.371732e-02 0.9986 -2.8792 10.4875)" width="3" height="5"/>
	<polygon points="199.3,61 199,56 202,55.9 202.3,60.9 	"/>
	<rect x="206.1" y="55.6" transform="matrix(0.9989 -4.687840e-02 4.687840e-02 0.9989 -2.4958 9.7974)" width="3" height="5"/>
	<rect x="213.1" y="55.3" transform="matrix(0.9991 -4.296264e-02 4.296264e-02 0.9991 -2.2851 9.2742)" width="3" height="5"/>
	<rect x="220.1" y="55" transform="matrix(0.9992 -3.906320e-02 3.906320e-02 0.9992 -2.0777 8.701)" width="3" height="5"/>
	<polygon points="227.2,59.8 227,54.8 230,54.7 230.2,59.7 	"/>
	<polygon points="234.2,59.6 234,54.6 237,54.5 237.2,59.5 	"/>
	<rect x="241.1" y="54.3" transform="matrix(0.9996 -2.832002e-02 2.832002e-02 0.9996 -1.512 6.8933)" width="3" height="5"/>
</g>
<g>
	<rect x="178.2" y="57.1" transform="matrix(0.9981 -6.152705e-02 6.152705e-02 0.9981 -3.3268 11.1681)" width="3" height="5"/>
	<rect x="185.2" y="56.7" transform="matrix(0.9983 -5.761151e-02 5.761151e-02 0.9983 -3.1 10.8524)" width="3" height="5"/>
	<rect x="192.2" y="56.3" transform="matrix(0.9986 -5.371732e-02 5.371732e-02 0.9986 -2.8792 10.4875)" width="3" height="5"/>
	<polygon points="199.3,61 199,56 202,55.9 202.3,60.9 	"/>
	<rect x="206.1" y="55.6" transform="matrix(0.9989 -4.687840e-02 4.687840e-02 0.9989 -2.4958 9.7974)" width="3" height="5"/>
	<rect x="213.1" y="55.3" transform="matrix(0.9991 -4.296264e-02 4.296264e-02 0.9991 -2.2851 9.2742)" width="3" height="5"/>
	<rect x="220.1" y="55" transform="matrix(0.9992 -3.906320e-02 3.906320e-02 0.9992 -2.0777 8.701)" width="3" height="5"/>
	<polygon points="227.2,59.8 227,54.8 230,54.7 230.2,59.7 	"/>
	<polygon points="234.2,59.6 234,54.6 237,54.5 237.2,59.5 	"/>
	<rect x="241.1" y="54.3" transform="matrix(0.9996 -2.832002e-02 2.832002e-02 0.9996 -1.512 6.8933)" width="3" height="5"/>
	<rect x="248.1" y="54.1" transform="matrix(0.9997 -2.441632e-02 2.441632e-02 0.9997 -1.3087 6.1112)" width="3" height="5"/>
</g>
<g>
	<rect x="178.2" y="57.1" transform="matrix(0.9981 -6.152705e-02 6.152705e-02 0.9981 -3.3268 11.1681)" width="3" height="5"/>
	<rect x="185.2" y="56.7" transform="matrix(0.9983 -5.761151e-02 5.761151e-02 0.9983 -3.1 10.8524)" width="3" height="5"/>
	<rect x="192.2" y="56.3" transform="matrix(0.9986 -5.371732e-02 5.371732e-02 0.9986 -2.8792 10.4875)" width="3" height="5"/>
	<polygon points="199.3,61 199,56 202,55.9 202.3,60.9 	"/>
	<rect x="206.1" y="55.6" transform="matrix(0.9989 -4.687840e-02 4.687840e-02 0.9989 -2.4958 9.7974)" width="3" height="5"/>
	<rect x="213.1" y="55.3" transform="matrix(0.9991 -4.296264e-02 4.296264e-02 0.9991 -2.2851 9.2742)" width="3" height="5"/>
	<rect x="220.1" y="55" transform="matrix(0.9992 -3.906320e-02 3.906320e-02 0.9992 -2.0777 8.701)" width="3" height="5"/>
	<polygon points="227.2,59.8 227,54.8 230,54.7 230.2,59.7 	"/>
	<polygon points="234.2,59.6 234,54.6 237,54.5 237.2,59.5 	"/>
	<rect x="241.1" y="54.3" transform="matrix(0.9996 -2.832002e-02 2.832002e-02 0.9996 -1.512 6.8933)" width="3" height="5"/>
	<rect x="248.1" y="54.1" transform="matrix(0.9997 -2.441632e-02 2.441632e-02 0.9997 -1.3087 6.1112)" width="3" height="5"/>
	<rect x="255.1" y="54" transform="matrix(0.9998 -2.051151e-02 2.051151e-02 0.9998 -1.1047 5.275)" width="3" height="5"/>
</g>
<g>
	<rect x="178.2" y="57.1" transform="matrix(0.9981 -6.152705e-02 6.152705e-02 0.9981 -3.3268 11.1681)" width="3" height="5"/>
	<rect x="185.2" y="56.7" transform="matrix(0.9983 -5.761151e-02 5.761151e-02 0.9983 -3.1 10.8524)" width="3" height="5"/>
	<rect x="192.2" y="56.3" transform="matrix(0.9986 -5.371732e-02 5.371732e-02 0.9986 -2.8792 10.4875)" width="3" height="5"/>
	<polygon points="199.3,61 199,56 202,55.9 202.3,60.9 	"/>
	<rect x="206.1" y="55.6" transform="matrix(0.9989 -4.687840e-02 4.687840e-02 0.9989 -2.4958 9.7974)" width="3" height="5"/>
	<rect x="213.1" y="55.3" transform="matrix(0.9991 -4.296264e-02 4.296264e-02 0.9991 -2.2851 9.2742)" width="3" height="5"/>
	<rect x="220.1" y="55" transform="matrix(0.9992 -3.906320e-02 3.906320e-02 0.9992 -2.0777 8.701)" width="3" height="5"/>
	<polygon points="227.2,59.8 227,54.8 230,54.7 230.2,59.7 	"/>
	<polygon points="234.2,59.6 234,54.6 237,54.5 237.2,59.5 	"/>
	<rect x="241.1" y="54.3" transform="matrix(0.9996 -2.832002e-02 2.832002e-02 0.9996 -1.512 6.8933)" width="3" height="5"/>
	<rect x="248.1" y="54.1" transform="matrix(0.9997 -2.441632e-02 2.441632e-02 0.9997 -1.3087 6.1112)" width="3" height="5"/>
	<rect x="255.1" y="54" transform="matrix(0.9998 -2.051151e-02 2.051151e-02 0.9998 -1.1047 5.275)" width="3" height="5"/>
	<polygon points="262.1,58.9 262,53.9 265.1,53.8 265.1,58.8 	"/>
</g>
<g>
	<rect x="178.2" y="57.1" transform="matrix(0.9981 -6.152705e-02 6.152705e-02 0.9981 -3.3268 11.1681)" width="3" height="5"/>
	<rect x="185.2" y="56.7" transform="matrix(0.9983 -5.761151e-02 5.761151e-02 0.9983 -3.1 10.8524)" width="3" height="5"/>
	<rect x="192.2" y="56.3" transform="matrix(0.9986 -5.371732e-02 5.371732e-02 0.9986 -2.8792 10.4875)" width="3" height="5"/>
	<polygon points="199.3,61 199,56 202,55.9 202.3,60.9 	"/>
	<rect x="206.1" y="55.6" transform="matrix(0.9989 -4.687840e-02 4.687840e-02 0.9989 -2.4958 9.7974)" width="3" height="5"/>
	<rect x="213.1" y="55.3" transform="matrix(0.9991 -4.296264e-02 4.296264e-02 0.9991 -2.2851 9.2742)" width="3" height="5"/>
	<rect x="220.1" y="55" transform="matrix(0.9992 -3.906320e-02 3.906320e-02 0.9992 -2.0777 8.701)" width="3" height="5"/>
	<polygon points="227.2,59.8 227,54.8 230,54.7 230.2,59.7 	"/>
	<polygon points="234.2,59.6 234,54.6 237,54.5 237.2,59.5 	"/>
	<rect x="241.1" y="54.3" transform="matrix(0.9996 -2.832002e-02 2.832002e-02 0.9996 -1.512 6.8933)" width="3" height="5"/>
	<rect x="248.1" y="54.1" transform="matrix(0.9997 -2.441632e-02 2.441632e-02 0.9997 -1.3087 6.1112)" width="3" height="5"/>
	<rect x="255.1" y="54" transform="matrix(0.9998 -2.051151e-02 2.051151e-02 0.9998 -1.1047 5.275)" width="3" height="5"/>
	<polygon points="262.1,58.9 262,53.9 265.1,53.8 265.1,58.8 	"/>
	<rect x="269.1" y="53.8" transform="matrix(0.9999 -1.367060e-02 1.367060e-02 0.9999 -0.7438 3.7044)" width="3" height="5"/>
</g>
<g>
	<rect x="178.2" y="57.1" transform="matrix(0.9981 -6.152705e-02 6.152705e-02 0.9981 -3.3268 11.1681)" width="3" height="5"/>
	<rect x="185.2" y="56.7" transform="matrix(0.9983 -5.761151e-02 5.761151e-02 0.9983 -3.1 10.8524)" width="3" height="5"/>
	<rect x="192.2" y="56.3" transform="matrix(0.9986 -5.371732e-02 5.371732e-02 0.9986 -2.8792 10.4875)" width="3" height="5"/>
	<polygon points="199.3,61 199,56 202,55.9 202.3,60.9 	"/>
	<rect x="206.1" y="55.6" transform="matrix(0.9989 -4.687840e-02 4.687840e-02 0.9989 -2.4958 9.7974)" width="3" height="5"/>
	<rect x="213.1" y="55.3" transform="matrix(0.9991 -4.296264e-02 4.296264e-02 0.9991 -2.2851 9.2742)" width="3" height="5"/>
	<rect x="220.1" y="55" transform="matrix(0.9992 -3.906320e-02 3.906320e-02 0.9992 -2.0777 8.701)" width="3" height="5"/>
	<polygon points="227.2,59.8 227,54.8 230,54.7 230.2,59.7 	"/>
	<polygon points="234.2,59.6 234,54.6 237,54.5 237.2,59.5 	"/>
	<rect x="241.1" y="54.3" transform="matrix(0.9996 -2.832002e-02 2.832002e-02 0.9996 -1.512 6.8933)" width="3" height="5"/>
	<rect x="248.1" y="54.1" transform="matrix(0.9997 -2.441632e-02 2.441632e-02 0.9997 -1.3087 6.1112)" width="3" height="5"/>
	<rect x="255.1" y="54" transform="matrix(0.9998 -2.051151e-02 2.051151e-02 0.9998 -1.1047 5.275)" width="3" height="5"/>
	<polygon points="262.1,58.9 262,53.9 265.1,53.8 265.1,58.8 	"/>
	<rect x="269.1" y="53.8" transform="matrix(0.9999 -1.367060e-02 1.367060e-02 0.9999 -0.7438 3.7044)" width="3" height="5"/>
	<rect x="276.1" y="53.7" transform="matrix(1 -9.765159e-03 9.765159e-03 1 -0.5354 2.7134)" width="3" height="5"/>
</g>
<g>
	<rect x="178.2" y="57.1" transform="matrix(0.9981 -6.152705e-02 6.152705e-02 0.9981 -3.3268 11.1681)" width="3" height="5"/>
	<rect x="185.2" y="56.7" transform="matrix(0.9983 -5.761151e-02 5.761151e-02 0.9983 -3.1 10.8524)" width="3" height="5"/>
	<rect x="192.2" y="56.3" transform="matrix(0.9986 -5.371732e-02 5.371732e-02 0.9986 -2.8792 10.4875)" width="3" height="5"/>
	<polygon points="199.3,61 199,56 202,55.9 202.3,60.9 	"/>
	<rect x="206.1" y="55.6" transform="matrix(0.9989 -4.687840e-02 4.687840e-02 0.9989 -2.4958 9.7974)" width="3" height="5"/>
	<rect x="213.1" y="55.3" transform="matrix(0.9991 -4.296264e-02 4.296264e-02 0.9991 -2.2851 9.2742)" width="3" height="5"/>
	<rect x="220.1" y="55" transform="matrix(0.9992 -3.906320e-02 3.906320e-02 0.9992 -2.0777 8.701)" width="3" height="5"/>
	<polygon points="227.2,59.8 227,54.8 230,54.7 230.2,59.7 	"/>
	<polygon points="234.2,59.6 234,54.6 237,54.5 237.2,59.5 	"/>
	<rect x="241.1" y="54.3" transform="matrix(0.9996 -2.832002e-02 2.832002e-02 0.9996 -1.512 6.8933)" width="3" height="5"/>
	<rect x="248.1" y="54.1" transform="matrix(0.9997 -2.441632e-02 2.441632e-02 0.9997 -1.3087 6.1112)" width="3" height="5"/>
	<rect x="255.1" y="54" transform="matrix(0.9998 -2.051151e-02 2.051151e-02 0.9998 -1.1047 5.275)" width="3" height="5"/>
	<polygon points="262.1,58.9 262,53.9 265.1,53.8 265.1,58.8 	"/>
	<rect x="269.1" y="53.8" transform="matrix(0.9999 -1.367060e-02 1.367060e-02 0.9999 -0.7438 3.7044)" width="3" height="5"/>
	<rect x="276.1" y="53.7" transform="matrix(1 -9.765159e-03 9.765159e-03 1 -0.5354 2.7134)" width="3" height="5"/>
	<rect x="283.1" y="53.6" transform="matrix(1 -5.859274e-03 5.859274e-03 1 -0.324 1.6684)" width="3" height="5"/>
</g>
<g>
	<rect x="178.2" y="57.1" transform="matrix(0.9981 -6.152705e-02 6.152705e-02 0.9981 -3.3268 11.1681)" width="3" height="5"/>
	<rect x="185.2" y="56.7" transform="matrix(0.9983 -5.761151e-02 5.761151e-02 0.9983 -3.1 10.8524)" width="3" height="5"/>
	<rect x="192.2" y="56.3" transform="matrix(0.9986 -5.371732e-02 5.371732e-02 0.9986 -2.8792 10.4875)" width="3" height="5"/>
	<polygon points="199.3,61 199,56 202,55.9 202.3,60.9 	"/>
	<rect x="206.1" y="55.6" transform="matrix(0.9989 -4.687840e-02 4.687840e-02 0.9989 -2.4958 9.7974)" width="3" height="5"/>
	<rect x="213.1" y="55.3" transform="matrix(0.9991 -4.296264e-02 4.296264e-02 0.9991 -2.2851 9.2742)" width="3" height="5"/>
	<rect x="220.1" y="55" transform="matrix(0.9992 -3.906320e-02 3.906320e-02 0.9992 -2.0777 8.701)" width="3" height="5"/>
	<polygon points="227.2,59.8 227,54.8 230,54.7 230.2,59.7 	"/>
	<polygon points="234.2,59.6 234,54.6 237,54.5 237.2,59.5 	"/>
	<rect x="241.1" y="54.3" transform="matrix(0.9996 -2.832002e-02 2.832002e-02 0.9996 -1.512 6.8933)" width="3" height="5"/>
	<rect x="248.1" y="54.1" transform="matrix(0.9997 -2.441632e-02 2.441632e-02 0.9997 -1.3087 6.1112)" width="3" height="5"/>
	<rect x="255.1" y="54" transform="matrix(0.9998 -2.051151e-02 2.051151e-02 0.9998 -1.1047 5.275)" width="3" height="5"/>
	<polygon points="262.1,58.9 262,53.9 265.1,53.8 265.1,58.8 	"/>
	<rect x="269.1" y="53.8" transform="matrix(0.9999 -1.367060e-02 1.367060e-02 0.9999 -0.7438 3.7044)" width="3" height="5"/>
	<rect x="276.1" y="53.7" transform="matrix(1 -9.765159e-03 9.765159e-03 1 -0.5354 2.7134)" width="3" height="5"/>
	<rect x="283.1" y="53.6" transform="matrix(1 -5.859274e-03 5.859274e-03 1 -0.324 1.6684)" width="3" height="5"/>
	<polygon points="290.1,58.6 290.1,53.6 293.1,53.6 293.1,58.6 	"/>
</g>
<g>
	<rect x="178.2" y="57.1" transform="matrix(0.9981 -6.152705e-02 6.152705e-02 0.9981 -3.3268 11.1681)" width="3" height="5"/>
	<rect x="185.2" y="56.7" transform="matrix(0.9983 -5.761151e-02 5.761151e-02 0.9983 -3.1 10.8524)" width="3" height="5"/>
	<rect x="192.2" y="56.3" transform="matrix(0.9986 -5.371732e-02 5.371732e-02 0.9986 -2.8792 10.4875)" width="3" height="5"/>
	<polygon points="199.3,61 199,56 202,55.9 202.3,60.9 	"/>
	<rect x="206.1" y="55.6" transform="matrix(0.9989 -4.687840e-02 4.687840e-02 0.9989 -2.4958 9.7974)" width="3" height="5"/>
	<rect x="213.1" y="55.3" transform="matrix(0.9991 -4.296264e-02 4.296264e-02 0.9991 -2.2851 9.2742)" width="3" height="5"/>
	<rect x="220.1" y="55" transform="matrix(0.9992 -3.906320e-02 3.906320e-02 0.9992 -2.0777 8.701)" width="3" height="5"/>
	<polygon points="227.2,59.8 227,54.8 230,54.7 230.2,59.7 	"/>
	<polygon points="234.2,59.6 234,54.6 237,54.5 237.2,59.5 	"/>
	<rect x="241.1" y="54.3" transform="matrix(0.9996 -2.832002e-02 2.832002e-02 0.9996 -1.512 6.8933)" width="3" height="5"/>
	<rect x="248.1" y="54.1" transform="matrix(0.9997 -2.441632e-02 2.441632e-02 0.9997 -1.3087 6.1112)" width="3" height="5"/>
	<rect x="255.1" y="54" transform="matrix(0.9998 -2.051151e-02 2.051151e-02 0.9998 -1.1047 5.275)" width="3" height="5"/>
	<polygon points="262.1,58.9 262,53.9 265.1,53.8 265.1,58.8 	"/>
	<rect x="269.1" y="53.8" transform="matrix(0.9999 -1.367060e-02 1.367060e-02 0.9999 -0.7438 3.7044)" width="3" height="5"/>
	<rect x="276.1" y="53.7" transform="matrix(1 -9.765159e-03 9.765159e-03 1 -0.5354 2.7134)" width="3" height="5"/>
	<rect x="283.1" y="53.6" transform="matrix(1 -5.859274e-03 5.859274e-03 1 -0.324 1.6684)" width="3" height="5"/>
	<polygon points="290.1,58.6 290.1,53.6 293.1,53.6 293.1,58.6 	"/>
	<rect x="296.1" y="54.6" transform="matrix(1.629193e-03 -1 1 1.629193e-03 241.9907 354.6011)" width="5" height="3"/>
</g>
<g>
	<rect x="178.2" y="57.1" transform="matrix(0.9981 -6.152705e-02 6.152705e-02 0.9981 -3.3268 11.1681)" width="3" height="5"/>
	<rect x="185.2" y="56.7" transform="matrix(0.9983 -5.761151e-02 5.761151e-02 0.9983 -3.1 10.8524)" width="3" height="5"/>
	<rect x="192.2" y="56.3" transform="matrix(0.9986 -5.371732e-02 5.371732e-02 0.9986 -2.8792 10.4875)" width="3" height="5"/>
	<polygon points="199.3,61 199,56 202,55.9 202.3,60.9 	"/>
	<rect x="206.1" y="55.6" transform="matrix(0.9989 -4.687840e-02 4.687840e-02 0.9989 -2.4958 9.7974)" width="3" height="5"/>
	<rect x="213.1" y="55.3" transform="matrix(0.9991 -4.296264e-02 4.296264e-02 0.9991 -2.2851 9.2742)" width="3" height="5"/>
	<rect x="220.1" y="55" transform="matrix(0.9992 -3.906320e-02 3.906320e-02 0.9992 -2.0777 8.701)" width="3" height="5"/>
	<polygon points="227.2,59.8 227,54.8 230,54.7 230.2,59.7 	"/>
	<polygon points="234.2,59.6 234,54.6 237,54.5 237.2,59.5 	"/>
	<rect x="241.1" y="54.3" transform="matrix(0.9996 -2.832002e-02 2.832002e-02 0.9996 -1.512 6.8933)" width="3" height="5"/>
	<rect x="248.1" y="54.1" transform="matrix(0.9997 -2.441632e-02 2.441632e-02 0.9997 -1.3087 6.1112)" width="3" height="5"/>
	<rect x="255.1" y="54" transform="matrix(0.9998 -2.051151e-02 2.051151e-02 0.9998 -1.1047 5.275)" width="3" height="5"/>
	<polygon points="262.1,58.9 262,53.9 265.1,53.8 265.1,58.8 	"/>
	<rect x="269.1" y="53.8" transform="matrix(0.9999 -1.367060e-02 1.367060e-02 0.9999 -0.7438 3.7044)" width="3" height="5"/>
	<rect x="276.1" y="53.7" transform="matrix(1 -9.765159e-03 9.765159e-03 1 -0.5354 2.7134)" width="3" height="5"/>
	<rect x="303.1" y="54.6" transform="matrix(5.539179e-03 -1 1 5.539179e-03 247.7608 361.4056)" width="5" height="3"/>
	<rect x="283.1" y="53.6" transform="matrix(1 -5.859274e-03 5.859274e-03 1 -0.324 1.6684)" width="3" height="5"/>
	<polygon points="290.1,58.6 290.1,53.6 293.1,53.6 293.1,58.6 	"/>
	<rect x="296.1" y="54.6" transform="matrix(1.629193e-03 -1 1 1.629193e-03 241.9907 354.6011)" width="5" height="3"/>
</g>
<g>
	<rect x="178.2" y="57.1" transform="matrix(0.9981 -6.152705e-02 6.152705e-02 0.9981 -3.3268 11.1681)" width="3" height="5"/>
	<rect x="185.2" y="56.7" transform="matrix(0.9983 -5.761151e-02 5.761151e-02 0.9983 -3.1 10.8524)" width="3" height="5"/>
	<rect x="192.2" y="56.3" transform="matrix(0.9986 -5.371732e-02 5.371732e-02 0.9986 -2.8792 10.4875)" width="3" height="5"/>
	<polygon points="199.3,61 199,56 202,55.9 202.3,60.9 	"/>
	<rect x="206.1" y="55.6" transform="matrix(0.9989 -4.687840e-02 4.687840e-02 0.9989 -2.4958 9.7974)" width="3" height="5"/>
	<rect x="213.1" y="55.3" transform="matrix(0.9991 -4.296264e-02 4.296264e-02 0.9991 -2.2851 9.2742)" width="3" height="5"/>
	<rect x="220.1" y="55" transform="matrix(0.9992 -3.906320e-02 3.906320e-02 0.9992 -2.0777 8.701)" width="3" height="5"/>
	<polygon points="227.2,59.8 227,54.8 230,54.7 230.2,59.7 	"/>
	<polygon points="234.2,59.6 234,54.6 237,54.5 237.2,59.5 	"/>
	<rect x="241.1" y="54.3" transform="matrix(0.9996 -2.832002e-02 2.832002e-02 0.9996 -1.512 6.8933)" width="3" height="5"/>
	<rect x="248.1" y="54.1" transform="matrix(0.9997 -2.441632e-02 2.441632e-02 0.9997 -1.3087 6.1112)" width="3" height="5"/>
	<rect x="255.1" y="54" transform="matrix(0.9998 -2.051151e-02 2.051151e-02 0.9998 -1.1047 5.275)" width="3" height="5"/>
	<polygon points="262.1,58.9 262,53.9 265.1,53.8 265.1,58.8 	"/>
	<rect x="269.1" y="53.8" transform="matrix(0.9999 -1.367060e-02 1.367060e-02 0.9999 -0.7438 3.7044)" width="3" height="5"/>
	<rect x="310.1" y="54.7" transform="matrix(9.120142e-03 -1 1 9.120142e-03 253.5546 368.2487)" width="5" height="3"/>
	<rect x="276.1" y="53.7" transform="matrix(1 -9.765159e-03 9.765159e-03 1 -0.5354 2.7134)" width="3" height="5"/>
	<rect x="303.1" y="54.6" transform="matrix(5.539179e-03 -1 1 5.539179e-03 247.7608 361.4056)" width="5" height="3"/>
	<rect x="283.1" y="53.6" transform="matrix(1 -5.859274e-03 5.859274e-03 1 -0.324 1.6684)" width="3" height="5"/>
	<polygon points="290.1,58.6 290.1,53.6 293.1,53.6 293.1,58.6 	"/>
	<rect x="296.1" y="54.6" transform="matrix(1.629193e-03 -1 1 1.629193e-03 241.9907 354.6011)" width="5" height="3"/>
</g>
<g>
	<rect x="178.2" y="57.1" transform="matrix(0.9981 -6.152705e-02 6.152705e-02 0.9981 -3.3268 11.1681)" width="3" height="5"/>
	<rect x="185.2" y="56.7" transform="matrix(0.9983 -5.761151e-02 5.761151e-02 0.9983 -3.1 10.8524)" width="3" height="5"/>
	<rect x="192.2" y="56.3" transform="matrix(0.9986 -5.371732e-02 5.371732e-02 0.9986 -2.8792 10.4875)" width="3" height="5"/>
	<polygon points="199.3,61 199,56 202,55.9 202.3,60.9 	"/>
	<rect x="206.1" y="55.6" transform="matrix(0.9989 -4.687840e-02 4.687840e-02 0.9989 -2.4958 9.7974)" width="3" height="5"/>
	<rect x="213.1" y="55.3" transform="matrix(0.9991 -4.296264e-02 4.296264e-02 0.9991 -2.2851 9.2742)" width="3" height="5"/>
	<rect x="220.1" y="55" transform="matrix(0.9992 -3.906320e-02 3.906320e-02 0.9992 -2.0777 8.701)" width="3" height="5"/>
	<polygon points="227.2,59.8 227,54.8 230,54.7 230.2,59.7 	"/>
	<polygon points="234.2,59.6 234,54.6 237,54.5 237.2,59.5 	"/>
	<rect x="241.1" y="54.3" transform="matrix(0.9996 -2.832002e-02 2.832002e-02 0.9996 -1.512 6.8933)" width="3" height="5"/>
	<rect x="248.1" y="54.1" transform="matrix(0.9997 -2.441632e-02 2.441632e-02 0.9997 -1.3087 6.1112)" width="3" height="5"/>
	<rect x="255.1" y="54" transform="matrix(0.9998 -2.051151e-02 2.051151e-02 0.9998 -1.1047 5.275)" width="3" height="5"/>
	<polygon points="262.1,58.9 262,53.9 265.1,53.8 265.1,58.8 	"/>
	<polygon points="321.1,58.8 318.1,58.7 318.1,53.7 321.1,53.8 	"/>
	<rect x="269.1" y="53.8" transform="matrix(0.9999 -1.367060e-02 1.367060e-02 0.9999 -0.7438 3.7044)" width="3" height="5"/>
	<rect x="310.1" y="54.7" transform="matrix(9.120142e-03 -1 1 9.120142e-03 253.5546 368.2487)" width="5" height="3"/>
	<rect x="276.1" y="53.7" transform="matrix(1 -9.765159e-03 9.765159e-03 1 -0.5354 2.7134)" width="3" height="5"/>
	<rect x="303.1" y="54.6" transform="matrix(5.539179e-03 -1 1 5.539179e-03 247.7608 361.4056)" width="5" height="3"/>
	<rect x="283.1" y="53.6" transform="matrix(1 -5.859274e-03 5.859274e-03 1 -0.324 1.6684)" width="3" height="5"/>
	<polygon points="290.1,58.6 290.1,53.6 293.1,53.6 293.1,58.6 	"/>
	<rect x="296.1" y="54.6" transform="matrix(1.629193e-03 -1 1 1.629193e-03 241.9907 354.6011)" width="5" height="3"/>
</g>
<g>
	<rect x="178.2" y="57.1" transform="matrix(0.9981 -6.152705e-02 6.152705e-02 0.9981 -3.3268 11.1681)" width="3" height="5"/>
	<rect x="185.2" y="56.7" transform="matrix(0.9983 -5.761151e-02 5.761151e-02 0.9983 -3.1 10.8524)" width="3" height="5"/>
	<rect x="192.2" y="56.3" transform="matrix(0.9986 -5.371732e-02 5.371732e-02 0.9986 -2.8792 10.4875)" width="3" height="5"/>
	<polygon points="199.3,61 199,56 202,55.9 202.3,60.9 	"/>
	<rect x="206.1" y="55.6" transform="matrix(0.9989 -4.687840e-02 4.687840e-02 0.9989 -2.4958 9.7974)" width="3" height="5"/>
	<rect x="213.1" y="55.3" transform="matrix(0.9991 -4.296264e-02 4.296264e-02 0.9991 -2.2851 9.2742)" width="3" height="5"/>
	<rect x="220.1" y="55" transform="matrix(0.9992 -3.906320e-02 3.906320e-02 0.9992 -2.0777 8.701)" width="3" height="5"/>
	<polygon points="227.2,59.8 227,54.8 230,54.7 230.2,59.7 	"/>
	<polygon points="234.2,59.6 234,54.6 237,54.5 237.2,59.5 	"/>
	<rect x="241.1" y="54.3" transform="matrix(0.9996 -2.832002e-02 2.832002e-02 0.9996 -1.512 6.8933)" width="3" height="5"/>
	<rect x="248.1" y="54.1" transform="matrix(0.9997 -2.441632e-02 2.441632e-02 0.9997 -1.3087 6.1112)" width="3" height="5"/>
	<rect x="255.1" y="54" transform="matrix(0.9998 -2.051151e-02 2.051151e-02 0.9998 -1.1047 5.275)" width="3" height="5"/>
	<rect x="324.1" y="54.9" transform="matrix(1.628448e-02 -0.9999 0.9999 1.628448e-02 264.914 381.9941)" width="5" height="3"/>
	<polygon points="262.1,58.9 262,53.9 265.1,53.8 265.1,58.8 	"/>
	<polygon points="321.1,58.8 318.1,58.7 318.1,53.7 321.1,53.8 	"/>
	<rect x="269.1" y="53.8" transform="matrix(0.9999 -1.367060e-02 1.367060e-02 0.9999 -0.7438 3.7044)" width="3" height="5"/>
	<rect x="310.1" y="54.7" transform="matrix(9.120142e-03 -1 1 9.120142e-03 253.5546 368.2487)" width="5" height="3"/>
	<rect x="276.1" y="53.7" transform="matrix(1 -9.765159e-03 9.765159e-03 1 -0.5354 2.7134)" width="3" height="5"/>
	<rect x="303.1" y="54.6" transform="matrix(5.539179e-03 -1 1 5.539179e-03 247.7608 361.4056)" width="5" height="3"/>
	<rect x="283.1" y="53.6" transform="matrix(1 -5.859274e-03 5.859274e-03 1 -0.324 1.6684)" width="3" height="5"/>
	<polygon points="290.1,58.6 290.1,53.6 293.1,53.6 293.1,58.6 	"/>
	<rect x="296.1" y="54.6" transform="matrix(1.629193e-03 -1 1 1.629193e-03 241.9907 354.6011)" width="5" height="3"/>
</g>
<g>
	<rect x="178.2" y="57.1" transform="matrix(0.9981 -6.152705e-02 6.152705e-02 0.9981 -3.3268 11.1681)" width="3" height="5"/>
	<rect x="185.2" y="56.7" transform="matrix(0.9983 -5.761151e-02 5.761151e-02 0.9983 -3.1 10.8524)" width="3" height="5"/>
	<rect x="192.2" y="56.3" transform="matrix(0.9986 -5.371732e-02 5.371732e-02 0.9986 -2.8792 10.4875)" width="3" height="5"/>
	<polygon points="199.3,61 199,56 202,55.9 202.3,60.9 	"/>
	<rect x="206.1" y="55.6" transform="matrix(0.9989 -4.687840e-02 4.687840e-02 0.9989 -2.4958 9.7974)" width="3" height="5"/>
	<rect x="213.1" y="55.3" transform="matrix(0.9991 -4.296264e-02 4.296264e-02 0.9991 -2.2851 9.2742)" width="3" height="5"/>
	<rect x="220.1" y="55" transform="matrix(0.9992 -3.906320e-02 3.906320e-02 0.9992 -2.0777 8.701)" width="3" height="5"/>
	<polygon points="227.2,59.8 227,54.8 230,54.7 230.2,59.7 	"/>
	<polygon points="234.2,59.6 234,54.6 237,54.5 237.2,59.5 	"/>
	<rect x="241.1" y="54.3" transform="matrix(0.9996 -2.832002e-02 2.832002e-02 0.9996 -1.512 6.8933)" width="3" height="5"/>
	<rect x="248.1" y="54.1" transform="matrix(0.9997 -2.441632e-02 2.441632e-02 0.9997 -1.3087 6.1112)" width="3" height="5"/>
	<rect x="331.1" y="55" transform="matrix(2.019132e-02 -0.9998 0.9998 2.019132e-02 270.3718 388.877)" width="5" height="3"/>
	<rect x="255.1" y="54" transform="matrix(0.9998 -2.051151e-02 2.051151e-02 0.9998 -1.1047 5.275)" width="3" height="5"/>
	<rect x="324.1" y="54.9" transform="matrix(1.628448e-02 -0.9999 0.9999 1.628448e-02 264.914 381.9941)" width="5" height="3"/>
	<polygon points="262.1,58.9 262,53.9 265.1,53.8 265.1,58.8 	"/>
	<polygon points="321.1,58.8 318.1,58.7 318.1,53.7 321.1,53.8 	"/>
	<rect x="269.1" y="53.8" transform="matrix(0.9999 -1.367060e-02 1.367060e-02 0.9999 -0.7438 3.7044)" width="3" height="5"/>
	<rect x="310.1" y="54.7" transform="matrix(9.120142e-03 -1 1 9.120142e-03 253.5546 368.2487)" width="5" height="3"/>
	<rect x="276.1" y="53.7" transform="matrix(1 -9.765159e-03 9.765159e-03 1 -0.5354 2.7134)" width="3" height="5"/>
	<rect x="303.1" y="54.6" transform="matrix(5.539179e-03 -1 1 5.539179e-03 247.7608 361.4056)" width="5" height="3"/>
	<rect x="283.1" y="53.6" transform="matrix(1 -5.859274e-03 5.859274e-03 1 -0.324 1.6684)" width="3" height="5"/>
	<polygon points="290.1,58.6 290.1,53.6 293.1,53.6 293.1,58.6 	"/>
	<rect x="296.1" y="54.6" transform="matrix(1.629193e-03 -1 1 1.629193e-03 241.9907 354.6011)" width="5" height="3"/>
</g>
<g>
	<rect x="178.2" y="57.1" transform="matrix(0.9981 -6.152705e-02 6.152705e-02 0.9981 -3.3268 11.1681)" width="3" height="5"/>
	<rect x="185.2" y="56.7" transform="matrix(0.9983 -5.761151e-02 5.761151e-02 0.9983 -3.1 10.8524)" width="3" height="5"/>
	<rect x="192.2" y="56.3" transform="matrix(0.9986 -5.371732e-02 5.371732e-02 0.9986 -2.8792 10.4875)" width="3" height="5"/>
	<polygon points="199.3,61 199,56 202,55.9 202.3,60.9 	"/>
	<rect x="206.1" y="55.6" transform="matrix(0.9989 -4.687840e-02 4.687840e-02 0.9989 -2.4958 9.7974)" width="3" height="5"/>
	<rect x="213.1" y="55.3" transform="matrix(0.9991 -4.296264e-02 4.296264e-02 0.9991 -2.2851 9.2742)" width="3" height="5"/>
	<rect x="220.1" y="55" transform="matrix(0.9992 -3.906320e-02 3.906320e-02 0.9992 -2.0777 8.701)" width="3" height="5"/>
	<polygon points="227.2,59.8 227,54.8 230,54.7 230.2,59.7 	"/>
	<polygon points="234.2,59.6 234,54.6 237,54.5 237.2,59.5 	"/>
	<rect x="241.1" y="54.3" transform="matrix(0.9996 -2.832002e-02 2.832002e-02 0.9996 -1.512 6.8933)" width="3" height="5"/>
	<rect x="338.1" y="55.1" transform="matrix(2.376405e-02 -0.9997 0.9997 2.376405e-02 275.8617 395.7968)" width="5" height="3"/>
	<rect x="248.1" y="54.1" transform="matrix(0.9997 -2.441632e-02 2.441632e-02 0.9997 -1.3087 6.1112)" width="3" height="5"/>
	<rect x="331.1" y="55" transform="matrix(2.019132e-02 -0.9998 0.9998 2.019132e-02 270.3718 388.877)" width="5" height="3"/>
	<rect x="255.1" y="54" transform="matrix(0.9998 -2.051151e-02 2.051151e-02 0.9998 -1.1047 5.275)" width="3" height="5"/>
	<rect x="324.1" y="54.9" transform="matrix(1.628448e-02 -0.9999 0.9999 1.628448e-02 264.914 381.9941)" width="5" height="3"/>
	<polygon points="262.1,58.9 262,53.9 265.1,53.8 265.1,58.8 	"/>
	<polygon points="321.1,58.8 318.1,58.7 318.1,53.7 321.1,53.8 	"/>
	<rect x="269.1" y="53.8" transform="matrix(0.9999 -1.367060e-02 1.367060e-02 0.9999 -0.7438 3.7044)" width="3" height="5"/>
	<rect x="310.1" y="54.7" transform="matrix(9.120142e-03 -1 1 9.120142e-03 253.5546 368.2487)" width="5" height="3"/>
	<rect x="276.1" y="53.7" transform="matrix(1 -9.765159e-03 9.765159e-03 1 -0.5354 2.7134)" width="3" height="5"/>
	<rect x="303.1" y="54.6" transform="matrix(5.539179e-03 -1 1 5.539179e-03 247.7608 361.4056)" width="5" height="3"/>
	<rect x="283.1" y="53.6" transform="matrix(1 -5.859274e-03 5.859274e-03 1 -0.324 1.6684)" width="3" height="5"/>
	<polygon points="290.1,58.6 290.1,53.6 293.1,53.6 293.1,58.6 	"/>
	<rect x="296.1" y="54.6" transform="matrix(1.629193e-03 -1 1 1.629193e-03 241.9907 354.6011)" width="5" height="3"/>
</g>
<g>
	<rect x="178.2" y="57.1" transform="matrix(0.9981 -6.152705e-02 6.152705e-02 0.9981 -3.3268 11.1681)" width="3" height="5"/>
	<rect x="185.2" y="56.7" transform="matrix(0.9983 -5.761151e-02 5.761151e-02 0.9983 -3.1 10.8524)" width="3" height="5"/>
	<rect x="192.2" y="56.3" transform="matrix(0.9986 -5.371732e-02 5.371732e-02 0.9986 -2.8792 10.4875)" width="3" height="5"/>
	<polygon points="199.3,61 199,56 202,55.9 202.3,60.9 	"/>
	<rect x="206.1" y="55.6" transform="matrix(0.9989 -4.687840e-02 4.687840e-02 0.9989 -2.4958 9.7974)" width="3" height="5"/>
	<rect x="213.1" y="55.3" transform="matrix(0.9991 -4.296264e-02 4.296264e-02 0.9991 -2.2851 9.2742)" width="3" height="5"/>
	<rect x="220.1" y="55" transform="matrix(0.9992 -3.906320e-02 3.906320e-02 0.9992 -2.0777 8.701)" width="3" height="5"/>
	<polygon points="227.2,59.8 227,54.8 230,54.7 230.2,59.7 	"/>
	<polygon points="234.2,59.6 234,54.6 237,54.5 237.2,59.5 	"/>
	<polygon points="349,59.4 346,59.3 346.2,54.3 349.2,54.4 	"/>
	<rect x="241.1" y="54.3" transform="matrix(0.9996 -2.832002e-02 2.832002e-02 0.9996 -1.512 6.8933)" width="3" height="5"/>
	<rect x="338.1" y="55.1" transform="matrix(2.376405e-02 -0.9997 0.9997 2.376405e-02 275.8617 395.7968)" width="5" height="3"/>
	<rect x="248.1" y="54.1" transform="matrix(0.9997 -2.441632e-02 2.441632e-02 0.9997 -1.3087 6.1112)" width="3" height="5"/>
	<rect x="331.1" y="55" transform="matrix(2.019132e-02 -0.9998 0.9998 2.019132e-02 270.3718 388.877)" width="5" height="3"/>
	<rect x="255.1" y="54" transform="matrix(0.9998 -2.051151e-02 2.051151e-02 0.9998 -1.1047 5.275)" width="3" height="5"/>
	<rect x="324.1" y="54.9" transform="matrix(1.628448e-02 -0.9999 0.9999 1.628448e-02 264.914 381.9941)" width="5" height="3"/>
	<polygon points="262.1,58.9 262,53.9 265.1,53.8 265.1,58.8 	"/>
	<polygon points="321.1,58.8 318.1,58.7 318.1,53.7 321.1,53.8 	"/>
	<rect x="269.1" y="53.8" transform="matrix(0.9999 -1.367060e-02 1.367060e-02 0.9999 -0.7438 3.7044)" width="3" height="5"/>
	<rect x="310.1" y="54.7" transform="matrix(9.120142e-03 -1 1 9.120142e-03 253.5546 368.2487)" width="5" height="3"/>
	<rect x="276.1" y="53.7" transform="matrix(1 -9.765159e-03 9.765159e-03 1 -0.5354 2.7134)" width="3" height="5"/>
	<rect x="303.1" y="54.6" transform="matrix(5.539179e-03 -1 1 5.539179e-03 247.7608 361.4056)" width="5" height="3"/>
	<rect x="283.1" y="53.6" transform="matrix(1 -5.859274e-03 5.859274e-03 1 -0.324 1.6684)" width="3" height="5"/>
	<polygon points="290.1,58.6 290.1,53.6 293.1,53.6 293.1,58.6 	"/>
	<rect x="296.1" y="54.6" transform="matrix(1.629193e-03 -1 1 1.629193e-03 241.9907 354.6011)" width="5" height="3"/>
</g>
<g>
	<rect x="178.2" y="57.1" transform="matrix(0.9981 -6.152705e-02 6.152705e-02 0.9981 -3.3268 11.1681)" width="3" height="5"/>
	<rect x="185.2" y="56.7" transform="matrix(0.9983 -5.761151e-02 5.761151e-02 0.9983 -3.1 10.8524)" width="3" height="5"/>
	<rect x="192.2" y="56.3" transform="matrix(0.9986 -5.371732e-02 5.371732e-02 0.9986 -2.8792 10.4875)" width="3" height="5"/>
	<polygon points="199.3,61 199,56 202,55.9 202.3,60.9 	"/>
	<rect x="206.1" y="55.6" transform="matrix(0.9989 -4.687840e-02 4.687840e-02 0.9989 -2.4958 9.7974)" width="3" height="5"/>
	<rect x="213.1" y="55.3" transform="matrix(0.9991 -4.296264e-02 4.296264e-02 0.9991 -2.2851 9.2742)" width="3" height="5"/>
	<rect x="220.1" y="55" transform="matrix(0.9992 -3.906320e-02 3.906320e-02 0.9992 -2.0777 8.701)" width="3" height="5"/>
	<polygon points="227.2,59.8 227,54.8 230,54.7 230.2,59.7 	"/>
	<polygon points="356,59.6 353,59.5 353.2,54.5 356.2,54.6 	"/>
	<polygon points="234.2,59.6 234,54.6 237,54.5 237.2,59.5 	"/>
	<polygon points="349,59.4 346,59.3 346.2,54.3 349.2,54.4 	"/>
	<rect x="241.1" y="54.3" transform="matrix(0.9996 -2.832002e-02 2.832002e-02 0.9996 -1.512 6.8933)" width="3" height="5"/>
	<rect x="338.1" y="55.1" transform="matrix(2.376405e-02 -0.9997 0.9997 2.376405e-02 275.8617 395.7968)" width="5" height="3"/>
	<rect x="248.1" y="54.1" transform="matrix(0.9997 -2.441632e-02 2.441632e-02 0.9997 -1.3087 6.1112)" width="3" height="5"/>
	<rect x="331.1" y="55" transform="matrix(2.019132e-02 -0.9998 0.9998 2.019132e-02 270.3718 388.877)" width="5" height="3"/>
	<rect x="255.1" y="54" transform="matrix(0.9998 -2.051151e-02 2.051151e-02 0.9998 -1.1047 5.275)" width="3" height="5"/>
	<rect x="324.1" y="54.9" transform="matrix(1.628448e-02 -0.9999 0.9999 1.628448e-02 264.914 381.9941)" width="5" height="3"/>
	<polygon points="262.1,58.9 262,53.9 265.1,53.8 265.1,58.8 	"/>
	<polygon points="321.1,58.8 318.1,58.7 318.1,53.7 321.1,53.8 	"/>
	<rect x="269.1" y="53.8" transform="matrix(0.9999 -1.367060e-02 1.367060e-02 0.9999 -0.7438 3.7044)" width="3" height="5"/>
	<rect x="310.1" y="54.7" transform="matrix(9.120142e-03 -1 1 9.120142e-03 253.5546 368.2487)" width="5" height="3"/>
	<rect x="276.1" y="53.7" transform="matrix(1 -9.765159e-03 9.765159e-03 1 -0.5354 2.7134)" width="3" height="5"/>
	<rect x="303.1" y="54.6" transform="matrix(5.539179e-03 -1 1 5.539179e-03 247.7608 361.4056)" width="5" height="3"/>
	<rect x="283.1" y="53.6" transform="matrix(1 -5.859274e-03 5.859274e-03 1 -0.324 1.6684)" width="3" height="5"/>
	<polygon points="290.1,58.6 290.1,53.6 293.1,53.6 293.1,58.6 	"/>
	<rect x="296.1" y="54.6" transform="matrix(1.629193e-03 -1 1 1.629193e-03 241.9907 354.6011)" width="5" height="3"/>
</g>
<g>
	<rect x="178.2" y="57.1" transform="matrix(0.9981 -6.152705e-02 6.152705e-02 0.9981 -3.3268 11.1681)" width="3" height="5"/>
	<rect x="185.2" y="56.7" transform="matrix(0.9983 -5.761151e-02 5.761151e-02 0.9983 -3.1 10.8524)" width="3" height="5"/>
	<rect x="192.2" y="56.3" transform="matrix(0.9986 -5.371732e-02 5.371732e-02 0.9986 -2.8792 10.4875)" width="3" height="5"/>
	<polygon points="199.3,61 199,56 202,55.9 202.3,60.9 	"/>
	<rect x="206.1" y="55.6" transform="matrix(0.9989 -4.687840e-02 4.687840e-02 0.9989 -2.4958 9.7974)" width="3" height="5"/>
	<rect x="213.1" y="55.3" transform="matrix(0.9991 -4.296264e-02 4.296264e-02 0.9991 -2.2851 9.2742)" width="3" height="5"/>
	<rect x="220.1" y="55" transform="matrix(0.9992 -3.906320e-02 3.906320e-02 0.9992 -2.0777 8.701)" width="3" height="5"/>
	<rect x="359.1" y="55.8" transform="matrix(3.486630e-02 -0.9994 0.9994 3.486630e-02 291.7448 416.6362)" width="5" height="3"/>
	<polygon points="227.2,59.8 227,54.8 230,54.7 230.2,59.7 	"/>
	<polygon points="356,59.6 353,59.5 353.2,54.5 356.2,54.6 	"/>
	<polygon points="234.2,59.6 234,54.6 237,54.5 237.2,59.5 	"/>
	<polygon points="349,59.4 346,59.3 346.2,54.3 349.2,54.4 	"/>
	<rect x="241.1" y="54.3" transform="matrix(0.9996 -2.832002e-02 2.832002e-02 0.9996 -1.512 6.8933)" width="3" height="5"/>
	<rect x="338.1" y="55.1" transform="matrix(2.376405e-02 -0.9997 0.9997 2.376405e-02 275.8617 395.7968)" width="5" height="3"/>
	<rect x="248.1" y="54.1" transform="matrix(0.9997 -2.441632e-02 2.441632e-02 0.9997 -1.3087 6.1112)" width="3" height="5"/>
	<rect x="331.1" y="55" transform="matrix(2.019132e-02 -0.9998 0.9998 2.019132e-02 270.3718 388.877)" width="5" height="3"/>
	<rect x="255.1" y="54" transform="matrix(0.9998 -2.051151e-02 2.051151e-02 0.9998 -1.1047 5.275)" width="3" height="5"/>
	<rect x="324.1" y="54.9" transform="matrix(1.628448e-02 -0.9999 0.9999 1.628448e-02 264.914 381.9941)" width="5" height="3"/>
	<polygon points="262.1,58.9 262,53.9 265.1,53.8 265.1,58.8 	"/>
	<polygon points="321.1,58.8 318.1,58.7 318.1,53.7 321.1,53.8 	"/>
	<rect x="269.1" y="53.8" transform="matrix(0.9999 -1.367060e-02 1.367060e-02 0.9999 -0.7438 3.7044)" width="3" height="5"/>
	<rect x="310.1" y="54.7" transform="matrix(9.120142e-03 -1 1 9.120142e-03 253.5546 368.2487)" width="5" height="3"/>
	<rect x="276.1" y="53.7" transform="matrix(1 -9.765159e-03 9.765159e-03 1 -0.5354 2.7134)" width="3" height="5"/>
	<rect x="303.1" y="54.6" transform="matrix(5.539179e-03 -1 1 5.539179e-03 247.7608 361.4056)" width="5" height="3"/>
	<rect x="283.1" y="53.6" transform="matrix(1 -5.859274e-03 5.859274e-03 1 -0.324 1.6684)" width="3" height="5"/>
	<polygon points="290.1,58.6 290.1,53.6 293.1,53.6 293.1,58.6 	"/>
	<rect x="296.1" y="54.6" transform="matrix(1.629193e-03 -1 1 1.629193e-03 241.9907 354.6011)" width="5" height="3"/>
</g>
<g>
	<rect x="178.2" y="57.1" transform="matrix(0.9981 -6.152705e-02 6.152705e-02 0.9981 -3.3268 11.1681)" width="3" height="5"/>
	<rect x="185.2" y="56.7" transform="matrix(0.9983 -5.761151e-02 5.761151e-02 0.9983 -3.1 10.8524)" width="3" height="5"/>
	<rect x="192.2" y="56.3" transform="matrix(0.9986 -5.371732e-02 5.371732e-02 0.9986 -2.8792 10.4875)" width="3" height="5"/>
	<polygon points="199.3,61 199,56 202,55.9 202.3,60.9 	"/>
	<rect x="206.1" y="55.6" transform="matrix(0.9989 -4.687840e-02 4.687840e-02 0.9989 -2.4958 9.7974)" width="3" height="5"/>
	<rect x="213.1" y="55.3" transform="matrix(0.9991 -4.296264e-02 4.296264e-02 0.9991 -2.2851 9.2742)" width="3" height="5"/>
	<rect x="366.1" y="56" transform="matrix(3.842062e-02 -0.9993 0.9993 3.842062e-02 296.9379 423.627)" width="5" height="3"/>
	<rect x="220.1" y="55" transform="matrix(0.9992 -3.906320e-02 3.906320e-02 0.9992 -2.0777 8.701)" width="3" height="5"/>
	<rect x="359.1" y="55.8" transform="matrix(3.486630e-02 -0.9994 0.9994 3.486630e-02 291.7448 416.6362)" width="5" height="3"/>
	<polygon points="227.2,59.8 227,54.8 230,54.7 230.2,59.7 	"/>
	<polygon points="356,59.6 353,59.5 353.2,54.5 356.2,54.6 	"/>
	<polygon points="234.2,59.6 234,54.6 237,54.5 237.2,59.5 	"/>
	<polygon points="349,59.4 346,59.3 346.2,54.3 349.2,54.4 	"/>
	<rect x="241.1" y="54.3" transform="matrix(0.9996 -2.832002e-02 2.832002e-02 0.9996 -1.512 6.8933)" width="3" height="5"/>
	<rect x="338.1" y="55.1" transform="matrix(2.376405e-02 -0.9997 0.9997 2.376405e-02 275.8617 395.7968)" width="5" height="3"/>
	<rect x="248.1" y="54.1" transform="matrix(0.9997 -2.441632e-02 2.441632e-02 0.9997 -1.3087 6.1112)" width="3" height="5"/>
	<rect x="331.1" y="55" transform="matrix(2.019132e-02 -0.9998 0.9998 2.019132e-02 270.3718 388.877)" width="5" height="3"/>
	<rect x="255.1" y="54" transform="matrix(0.9998 -2.051151e-02 2.051151e-02 0.9998 -1.1047 5.275)" width="3" height="5"/>
	<rect x="324.1" y="54.9" transform="matrix(1.628448e-02 -0.9999 0.9999 1.628448e-02 264.914 381.9941)" width="5" height="3"/>
	<polygon points="262.1,58.9 262,53.9 265.1,53.8 265.1,58.8 	"/>
	<polygon points="321.1,58.8 318.1,58.7 318.1,53.7 321.1,53.8 	"/>
	<rect x="269.1" y="53.8" transform="matrix(0.9999 -1.367060e-02 1.367060e-02 0.9999 -0.7438 3.7044)" width="3" height="5"/>
	<rect x="310.1" y="54.7" transform="matrix(9.120142e-03 -1 1 9.120142e-03 253.5546 368.2487)" width="5" height="3"/>
	<rect x="276.1" y="53.7" transform="matrix(1 -9.765159e-03 9.765159e-03 1 -0.5354 2.7134)" width="3" height="5"/>
	<rect x="303.1" y="54.6" transform="matrix(5.539179e-03 -1 1 5.539179e-03 247.7608 361.4056)" width="5" height="3"/>
	<rect x="283.1" y="53.6" transform="matrix(1 -5.859274e-03 5.859274e-03 1 -0.324 1.6684)" width="3" height="5"/>
	<polygon points="290.1,58.6 290.1,53.6 293.1,53.6 293.1,58.6 	"/>
	<rect x="296.1" y="54.6" transform="matrix(1.629193e-03 -1 1 1.629193e-03 241.9907 354.6011)" width="5" height="3"/>
</g>
<g>
	<rect x="178.2" y="57.1" transform="matrix(0.9981 -6.152705e-02 6.152705e-02 0.9981 -3.3268 11.1681)" width="3" height="5"/>
	<rect x="185.2" y="56.7" transform="matrix(0.9983 -5.761151e-02 5.761151e-02 0.9983 -3.1 10.8524)" width="3" height="5"/>
	<rect x="192.2" y="56.3" transform="matrix(0.9986 -5.371732e-02 5.371732e-02 0.9986 -2.8792 10.4875)" width="3" height="5"/>
	<polygon points="199.3,61 199,56 202,55.9 202.3,60.9 	"/>
	<rect x="206.1" y="55.6" transform="matrix(0.9989 -4.687840e-02 4.687840e-02 0.9989 -2.4958 9.7974)" width="3" height="5"/>
	<rect x="373.1" y="56.3" transform="matrix(4.234867e-02 -0.9991 0.9991 4.234867e-02 301.9152 430.6026)" width="5" height="3"/>
	<rect x="213.1" y="55.3" transform="matrix(0.9991 -4.296264e-02 4.296264e-02 0.9991 -2.2851 9.2742)" width="3" height="5"/>
	<rect x="366.1" y="56" transform="matrix(3.842062e-02 -0.9993 0.9993 3.842062e-02 296.9379 423.627)" width="5" height="3"/>
	<rect x="220.1" y="55" transform="matrix(0.9992 -3.906320e-02 3.906320e-02 0.9992 -2.0777 8.701)" width="3" height="5"/>
	<rect x="359.1" y="55.8" transform="matrix(3.486630e-02 -0.9994 0.9994 3.486630e-02 291.7448 416.6362)" width="5" height="3"/>
	<polygon points="227.2,59.8 227,54.8 230,54.7 230.2,59.7 	"/>
	<polygon points="356,59.6 353,59.5 353.2,54.5 356.2,54.6 	"/>
	<polygon points="234.2,59.6 234,54.6 237,54.5 237.2,59.5 	"/>
	<polygon points="349,59.4 346,59.3 346.2,54.3 349.2,54.4 	"/>
	<rect x="241.1" y="54.3" transform="matrix(0.9996 -2.832002e-02 2.832002e-02 0.9996 -1.512 6.8933)" width="3" height="5"/>
	<rect x="338.1" y="55.1" transform="matrix(2.376405e-02 -0.9997 0.9997 2.376405e-02 275.8617 395.7968)" width="5" height="3"/>
	<rect x="248.1" y="54.1" transform="matrix(0.9997 -2.441632e-02 2.441632e-02 0.9997 -1.3087 6.1112)" width="3" height="5"/>
	<rect x="331.1" y="55" transform="matrix(2.019132e-02 -0.9998 0.9998 2.019132e-02 270.3718 388.877)" width="5" height="3"/>
	<rect x="255.1" y="54" transform="matrix(0.9998 -2.051151e-02 2.051151e-02 0.9998 -1.1047 5.275)" width="3" height="5"/>
	<rect x="324.1" y="54.9" transform="matrix(1.628448e-02 -0.9999 0.9999 1.628448e-02 264.914 381.9941)" width="5" height="3"/>
	<polygon points="262.1,58.9 262,53.9 265.1,53.8 265.1,58.8 	"/>
	<polygon points="321.1,58.8 318.1,58.7 318.1,53.7 321.1,53.8 	"/>
	<rect x="269.1" y="53.8" transform="matrix(0.9999 -1.367060e-02 1.367060e-02 0.9999 -0.7438 3.7044)" width="3" height="5"/>
	<rect x="310.1" y="54.7" transform="matrix(9.120142e-03 -1 1 9.120142e-03 253.5546 368.2487)" width="5" height="3"/>
	<rect x="276.1" y="53.7" transform="matrix(1 -9.765159e-03 9.765159e-03 1 -0.5354 2.7134)" width="3" height="5"/>
	<rect x="303.1" y="54.6" transform="matrix(5.539179e-03 -1 1 5.539179e-03 247.7608 361.4056)" width="5" height="3"/>
	<rect x="283.1" y="53.6" transform="matrix(1 -5.859274e-03 5.859274e-03 1 -0.324 1.6684)" width="3" height="5"/>
	<polygon points="290.1,58.6 290.1,53.6 293.1,53.6 293.1,58.6 	"/>
	<rect x="296.1" y="54.6" transform="matrix(1.629193e-03 -1 1 1.629193e-03 241.9907 354.6011)" width="5" height="3"/>
</g>
<g>
	<rect x="178.2" y="57.1" transform="matrix(0.9981 -6.152705e-02 6.152705e-02 0.9981 -3.3268 11.1681)" width="3" height="5"/>
	<rect x="185.2" y="56.7" transform="matrix(0.9983 -5.761151e-02 5.761151e-02 0.9983 -3.1 10.8524)" width="3" height="5"/>
	<rect x="192.2" y="56.3" transform="matrix(0.9986 -5.371732e-02 5.371732e-02 0.9986 -2.8792 10.4875)" width="3" height="5"/>
	<polygon points="199.3,61 199,56 202,55.9 202.3,60.9 	"/>
	<polygon points="384,60.7 381,60.5 381.2,55.6 384.2,55.7 	"/>
	<rect x="206.1" y="55.6" transform="matrix(0.9989 -4.687840e-02 4.687840e-02 0.9989 -2.4958 9.7974)" width="3" height="5"/>
	<rect x="373.1" y="56.3" transform="matrix(4.234867e-02 -0.9991 0.9991 4.234867e-02 301.9152 430.6026)" width="5" height="3"/>
	<rect x="213.1" y="55.3" transform="matrix(0.9991 -4.296264e-02 4.296264e-02 0.9991 -2.2851 9.2742)" width="3" height="5"/>
	<rect x="366.1" y="56" transform="matrix(3.842062e-02 -0.9993 0.9993 3.842062e-02 296.9379 423.627)" width="5" height="3"/>
	<rect x="220.1" y="55" transform="matrix(0.9992 -3.906320e-02 3.906320e-02 0.9992 -2.0777 8.701)" width="3" height="5"/>
	<rect x="359.1" y="55.8" transform="matrix(3.486630e-02 -0.9994 0.9994 3.486630e-02 291.7448 416.6362)" width="5" height="3"/>
	<polygon points="227.2,59.8 227,54.8 230,54.7 230.2,59.7 	"/>
	<polygon points="356,59.6 353,59.5 353.2,54.5 356.2,54.6 	"/>
	<polygon points="234.2,59.6 234,54.6 237,54.5 237.2,59.5 	"/>
	<polygon points="349,59.4 346,59.3 346.2,54.3 349.2,54.4 	"/>
	<rect x="241.1" y="54.3" transform="matrix(0.9996 -2.832002e-02 2.832002e-02 0.9996 -1.512 6.8933)" width="3" height="5"/>
	<rect x="338.1" y="55.1" transform="matrix(2.376405e-02 -0.9997 0.9997 2.376405e-02 275.8617 395.7968)" width="5" height="3"/>
	<rect x="248.1" y="54.1" transform="matrix(0.9997 -2.441632e-02 2.441632e-02 0.9997 -1.3087 6.1112)" width="3" height="5"/>
	<rect x="331.1" y="55" transform="matrix(2.019132e-02 -0.9998 0.9998 2.019132e-02 270.3718 388.877)" width="5" height="3"/>
	<rect x="255.1" y="54" transform="matrix(0.9998 -2.051151e-02 2.051151e-02 0.9998 -1.1047 5.275)" width="3" height="5"/>
	<rect x="324.1" y="54.9" transform="matrix(1.628448e-02 -0.9999 0.9999 1.628448e-02 264.914 381.9941)" width="5" height="3"/>
	<polygon points="262.1,58.9 262,53.9 265.1,53.8 265.1,58.8 	"/>
	<polygon points="321.1,58.8 318.1,58.7 318.1,53.7 321.1,53.8 	"/>
	<rect x="269.1" y="53.8" transform="matrix(0.9999 -1.367060e-02 1.367060e-02 0.9999 -0.7438 3.7044)" width="3" height="5"/>
	<rect x="310.1" y="54.7" transform="matrix(9.120142e-03 -1 1 9.120142e-03 253.5546 368.2487)" width="5" height="3"/>
	<rect x="276.1" y="53.7" transform="matrix(1 -9.765159e-03 9.765159e-03 1 -0.5354 2.7134)" width="3" height="5"/>
	<rect x="303.1" y="54.6" transform="matrix(5.539179e-03 -1 1 5.539179e-03 247.7608 361.4056)" width="5" height="3"/>
	<rect x="283.1" y="53.6" transform="matrix(1 -5.859274e-03 5.859274e-03 1 -0.324 1.6684)" width="3" height="5"/>
	<polygon points="290.1,58.6 290.1,53.6 293.1,53.6 293.1,58.6 	"/>
	<rect x="296.1" y="54.6" transform="matrix(1.629193e-03 -1 1 1.629193e-03 241.9907 354.6011)" width="5" height="3"/>
</g>
<g>
	<rect x="178.2" y="57.1" transform="matrix(0.9981 -6.152705e-02 6.152705e-02 0.9981 -3.3268 11.1681)" width="3" height="5"/>
	<rect x="185.2" y="56.7" transform="matrix(0.9983 -5.761151e-02 5.761151e-02 0.9983 -3.1 10.8524)" width="3" height="5"/>
	<rect x="192.2" y="56.3" transform="matrix(0.9986 -5.371732e-02 5.371732e-02 0.9986 -2.8792 10.4875)" width="3" height="5"/>
	<rect x="387.1" y="57" transform="matrix(4.949908e-02 -0.9988 0.9988 4.949908e-02 311.9012 444.65)" width="5" height="3"/>
	<polygon points="199.3,61 199,56 202,55.9 202.3,60.9 	"/>
	<polygon points="384,60.7 381,60.5 381.2,55.6 384.2,55.7 	"/>
	<rect x="206.1" y="55.6" transform="matrix(0.9989 -4.687840e-02 4.687840e-02 0.9989 -2.4958 9.7974)" width="3" height="5"/>
	<rect x="373.1" y="56.3" transform="matrix(4.234867e-02 -0.9991 0.9991 4.234867e-02 301.9152 430.6026)" width="5" height="3"/>
	<rect x="213.1" y="55.3" transform="matrix(0.9991 -4.296264e-02 4.296264e-02 0.9991 -2.2851 9.2742)" width="3" height="5"/>
	<rect x="366.1" y="56" transform="matrix(3.842062e-02 -0.9993 0.9993 3.842062e-02 296.9379 423.627)" width="5" height="3"/>
	<rect x="220.1" y="55" transform="matrix(0.9992 -3.906320e-02 3.906320e-02 0.9992 -2.0777 8.701)" width="3" height="5"/>
	<rect x="359.1" y="55.8" transform="matrix(3.486630e-02 -0.9994 0.9994 3.486630e-02 291.7448 416.6362)" width="5" height="3"/>
	<polygon points="227.2,59.8 227,54.8 230,54.7 230.2,59.7 	"/>
	<polygon points="356,59.6 353,59.5 353.2,54.5 356.2,54.6 	"/>
	<polygon points="234.2,59.6 234,54.6 237,54.5 237.2,59.5 	"/>
	<polygon points="349,59.4 346,59.3 346.2,54.3 349.2,54.4 	"/>
	<rect x="241.1" y="54.3" transform="matrix(0.9996 -2.832002e-02 2.832002e-02 0.9996 -1.512 6.8933)" width="3" height="5"/>
	<rect x="338.1" y="55.1" transform="matrix(2.376405e-02 -0.9997 0.9997 2.376405e-02 275.8617 395.7968)" width="5" height="3"/>
	<rect x="248.1" y="54.1" transform="matrix(0.9997 -2.441632e-02 2.441632e-02 0.9997 -1.3087 6.1112)" width="3" height="5"/>
	<rect x="331.1" y="55" transform="matrix(2.019132e-02 -0.9998 0.9998 2.019132e-02 270.3718 388.877)" width="5" height="3"/>
	<rect x="255.1" y="54" transform="matrix(0.9998 -2.051151e-02 2.051151e-02 0.9998 -1.1047 5.275)" width="3" height="5"/>
	<rect x="324.1" y="54.9" transform="matrix(1.628448e-02 -0.9999 0.9999 1.628448e-02 264.914 381.9941)" width="5" height="3"/>
	<polygon points="262.1,58.9 262,53.9 265.1,53.8 265.1,58.8 	"/>
	<polygon points="321.1,58.8 318.1,58.7 318.1,53.7 321.1,53.8 	"/>
	<rect x="269.1" y="53.8" transform="matrix(0.9999 -1.367060e-02 1.367060e-02 0.9999 -0.7438 3.7044)" width="3" height="5"/>
	<rect x="310.1" y="54.7" transform="matrix(9.120142e-03 -1 1 9.120142e-03 253.5546 368.2487)" width="5" height="3"/>
	<rect x="276.1" y="53.7" transform="matrix(1 -9.765159e-03 9.765159e-03 1 -0.5354 2.7134)" width="3" height="5"/>
	<rect x="303.1" y="54.6" transform="matrix(5.539179e-03 -1 1 5.539179e-03 247.7608 361.4056)" width="5" height="3"/>
	<rect x="283.1" y="53.6" transform="matrix(1 -5.859274e-03 5.859274e-03 1 -0.324 1.6684)" width="3" height="5"/>
	<polygon points="290.1,58.6 290.1,53.6 293.1,53.6 293.1,58.6 	"/>
	<rect x="296.1" y="54.6" transform="matrix(1.629193e-03 -1 1 1.629193e-03 241.9907 354.6011)" width="5" height="3"/>
</g>
<g>
	<rect x="178.2" y="57.1" transform="matrix(0.9981 -6.152705e-02 6.152705e-02 0.9981 -3.3268 11.1681)" width="3" height="5"/>
	<rect x="185.2" y="56.7" transform="matrix(0.9983 -5.761151e-02 5.761151e-02 0.9983 -3.1 10.8524)" width="3" height="5"/>
	<rect x="394.1" y="57.3" transform="matrix(5.343091e-02 -0.9986 0.9986 5.343091e-02 316.6377 451.6659)" width="5" height="3"/>
	<rect x="192.2" y="56.3" transform="matrix(0.9986 -5.371732e-02 5.371732e-02 0.9986 -2.8792 10.4875)" width="3" height="5"/>
	<rect x="387.1" y="57" transform="matrix(4.949908e-02 -0.9988 0.9988 4.949908e-02 311.9012 444.65)" width="5" height="3"/>
	<polygon points="199.3,61 199,56 202,55.9 202.3,60.9 	"/>
	<polygon points="384,60.7 381,60.5 381.2,55.6 384.2,55.7 	"/>
	<rect x="206.1" y="55.6" transform="matrix(0.9989 -4.687840e-02 4.687840e-02 0.9989 -2.4958 9.7974)" width="3" height="5"/>
	<rect x="373.1" y="56.3" transform="matrix(4.234867e-02 -0.9991 0.9991 4.234867e-02 301.9152 430.6026)" width="5" height="3"/>
	<rect x="213.1" y="55.3" transform="matrix(0.9991 -4.296264e-02 4.296264e-02 0.9991 -2.2851 9.2742)" width="3" height="5"/>
	<rect x="366.1" y="56" transform="matrix(3.842062e-02 -0.9993 0.9993 3.842062e-02 296.9379 423.627)" width="5" height="3"/>
	<rect x="220.1" y="55" transform="matrix(0.9992 -3.906320e-02 3.906320e-02 0.9992 -2.0777 8.701)" width="3" height="5"/>
	<rect x="359.1" y="55.8" transform="matrix(3.486630e-02 -0.9994 0.9994 3.486630e-02 291.7448 416.6362)" width="5" height="3"/>
	<polygon points="227.2,59.8 227,54.8 230,54.7 230.2,59.7 	"/>
	<polygon points="356,59.6 353,59.5 353.2,54.5 356.2,54.6 	"/>
	<polygon points="234.2,59.6 234,54.6 237,54.5 237.2,59.5 	"/>
	<polygon points="349,59.4 346,59.3 346.2,54.3 349.2,54.4 	"/>
	<rect x="241.1" y="54.3" transform="matrix(0.9996 -2.832002e-02 2.832002e-02 0.9996 -1.512 6.8933)" width="3" height="5"/>
	<rect x="338.1" y="55.1" transform="matrix(2.376405e-02 -0.9997 0.9997 2.376405e-02 275.8617 395.7968)" width="5" height="3"/>
	<rect x="248.1" y="54.1" transform="matrix(0.9997 -2.441632e-02 2.441632e-02 0.9997 -1.3087 6.1112)" width="3" height="5"/>
	<rect x="331.1" y="55" transform="matrix(2.019132e-02 -0.9998 0.9998 2.019132e-02 270.3718 388.877)" width="5" height="3"/>
	<rect x="255.1" y="54" transform="matrix(0.9998 -2.051151e-02 2.051151e-02 0.9998 -1.1047 5.275)" width="3" height="5"/>
	<rect x="324.1" y="54.9" transform="matrix(1.628448e-02 -0.9999 0.9999 1.628448e-02 264.914 381.9941)" width="5" height="3"/>
	<polygon points="262.1,58.9 262,53.9 265.1,53.8 265.1,58.8 	"/>
	<polygon points="321.1,58.8 318.1,58.7 318.1,53.7 321.1,53.8 	"/>
	<rect x="269.1" y="53.8" transform="matrix(0.9999 -1.367060e-02 1.367060e-02 0.9999 -0.7438 3.7044)" width="3" height="5"/>
	<rect x="310.1" y="54.7" transform="matrix(9.120142e-03 -1 1 9.120142e-03 253.5546 368.2487)" width="5" height="3"/>
	<rect x="276.1" y="53.7" transform="matrix(1 -9.765159e-03 9.765159e-03 1 -0.5354 2.7134)" width="3" height="5"/>
	<rect x="303.1" y="54.6" transform="matrix(5.539179e-03 -1 1 5.539179e-03 247.7608 361.4056)" width="5" height="3"/>
	<rect x="283.1" y="53.6" transform="matrix(1 -5.859274e-03 5.859274e-03 1 -0.324 1.6684)" width="3" height="5"/>
	<polygon points="290.1,58.6 290.1,53.6 293.1,53.6 293.1,58.6 	"/>
	<rect x="296.1" y="54.6" transform="matrix(1.629193e-03 -1 1 1.629193e-03 241.9907 354.6011)" width="5" height="3"/>
</g>
<g>
	<rect x="178.2" y="57.1" transform="matrix(0.9981 -6.152705e-02 6.152705e-02 0.9981 -3.3268 11.1681)" width="3" height="5"/>
	<rect x="401" y="57.7" transform="matrix(5.696636e-02 -0.9984 0.9984 5.696636e-02 321.4532 458.7231)" width="5" height="3"/>
	<rect x="185.2" y="56.7" transform="matrix(0.9983 -5.761151e-02 5.761151e-02 0.9983 -3.1 10.8524)" width="3" height="5"/>
	<rect x="394.1" y="57.3" transform="matrix(5.343091e-02 -0.9986 0.9986 5.343091e-02 316.6377 451.6659)" width="5" height="3"/>
	<rect x="192.2" y="56.3" transform="matrix(0.9986 -5.371732e-02 5.371732e-02 0.9986 -2.8792 10.4875)" width="3" height="5"/>
	<rect x="387.1" y="57" transform="matrix(4.949908e-02 -0.9988 0.9988 4.949908e-02 311.9012 444.65)" width="5" height="3"/>
	<polygon points="199.3,61 199,56 202,55.9 202.3,60.9 	"/>
	<polygon points="384,60.7 381,60.5 381.2,55.6 384.2,55.7 	"/>
	<rect x="206.1" y="55.6" transform="matrix(0.9989 -4.687840e-02 4.687840e-02 0.9989 -2.4958 9.7974)" width="3" height="5"/>
	<rect x="373.1" y="56.3" transform="matrix(4.234867e-02 -0.9991 0.9991 4.234867e-02 301.9152 430.6026)" width="5" height="3"/>
	<rect x="213.1" y="55.3" transform="matrix(0.9991 -4.296264e-02 4.296264e-02 0.9991 -2.2851 9.2742)" width="3" height="5"/>
	<rect x="366.1" y="56" transform="matrix(3.842062e-02 -0.9993 0.9993 3.842062e-02 296.9379 423.627)" width="5" height="3"/>
	<rect x="220.1" y="55" transform="matrix(0.9992 -3.906320e-02 3.906320e-02 0.9992 -2.0777 8.701)" width="3" height="5"/>
	<rect x="359.1" y="55.8" transform="matrix(3.486630e-02 -0.9994 0.9994 3.486630e-02 291.7448 416.6362)" width="5" height="3"/>
	<polygon points="227.2,59.8 227,54.8 230,54.7 230.2,59.7 	"/>
	<polygon points="356,59.6 353,59.5 353.2,54.5 356.2,54.6 	"/>
	<polygon points="234.2,59.6 234,54.6 237,54.5 237.2,59.5 	"/>
	<polygon points="349,59.4 346,59.3 346.2,54.3 349.2,54.4 	"/>
	<rect x="241.1" y="54.3" transform="matrix(0.9996 -2.832002e-02 2.832002e-02 0.9996 -1.512 6.8933)" width="3" height="5"/>
	<rect x="338.1" y="55.1" transform="matrix(2.376405e-02 -0.9997 0.9997 2.376405e-02 275.8617 395.7968)" width="5" height="3"/>
	<rect x="248.1" y="54.1" transform="matrix(0.9997 -2.441632e-02 2.441632e-02 0.9997 -1.3087 6.1112)" width="3" height="5"/>
	<rect x="331.1" y="55" transform="matrix(2.019132e-02 -0.9998 0.9998 2.019132e-02 270.3718 388.877)" width="5" height="3"/>
	<rect x="255.1" y="54" transform="matrix(0.9998 -2.051151e-02 2.051151e-02 0.9998 -1.1047 5.275)" width="3" height="5"/>
	<rect x="324.1" y="54.9" transform="matrix(1.628448e-02 -0.9999 0.9999 1.628448e-02 264.914 381.9941)" width="5" height="3"/>
	<polygon points="262.1,58.9 262,53.9 265.1,53.8 265.1,58.8 	"/>
	<polygon points="321.1,58.8 318.1,58.7 318.1,53.7 321.1,53.8 	"/>
	<rect x="269.1" y="53.8" transform="matrix(0.9999 -1.367060e-02 1.367060e-02 0.9999 -0.7438 3.7044)" width="3" height="5"/>
	<rect x="310.1" y="54.7" transform="matrix(9.120142e-03 -1 1 9.120142e-03 253.5546 368.2487)" width="5" height="3"/>
	<rect x="276.1" y="53.7" transform="matrix(1 -9.765159e-03 9.765159e-03 1 -0.5354 2.7134)" width="3" height="5"/>
	<rect x="303.1" y="54.6" transform="matrix(5.539179e-03 -1 1 5.539179e-03 247.7608 361.4056)" width="5" height="3"/>
	<rect x="283.1" y="53.6" transform="matrix(1 -5.859274e-03 5.859274e-03 1 -0.324 1.6684)" width="3" height="5"/>
	<polygon points="290.1,58.6 290.1,53.6 293.1,53.6 293.1,58.6 	"/>
	<rect x="296.1" y="54.6" transform="matrix(1.629193e-03 -1 1 1.629193e-03 241.9907 354.6011)" width="5" height="3"/>
</g>
<g>
	<rect x="178.2" y="57.1" transform="matrix(0.9981 -6.152705e-02 6.152705e-02 0.9981 -3.3268 11.1681)" width="3" height="5"/>
	<polygon points="411.7,62.2 408.9,62 409.2,57 412,57.2 	"/>
	<rect x="401" y="57.7" transform="matrix(5.696636e-02 -0.9984 0.9984 5.696636e-02 321.4532 458.7231)" width="5" height="3"/>
	<rect x="185.2" y="56.7" transform="matrix(0.9983 -5.761151e-02 5.761151e-02 0.9983 -3.1 10.8524)" width="3" height="5"/>
	<rect x="394.1" y="57.3" transform="matrix(5.343091e-02 -0.9986 0.9986 5.343091e-02 316.6377 451.6659)" width="5" height="3"/>
	<rect x="192.2" y="56.3" transform="matrix(0.9986 -5.371732e-02 5.371732e-02 0.9986 -2.8792 10.4875)" width="3" height="5"/>
	<rect x="387.1" y="57" transform="matrix(4.949908e-02 -0.9988 0.9988 4.949908e-02 311.9012 444.65)" width="5" height="3"/>
	<polygon points="199.3,61 199,56 202,55.9 202.3,60.9 	"/>
	<polygon points="384,60.7 381,60.5 381.2,55.6 384.2,55.7 	"/>
	<rect x="206.1" y="55.6" transform="matrix(0.9989 -4.687840e-02 4.687840e-02 0.9989 -2.4958 9.7974)" width="3" height="5"/>
	<rect x="373.1" y="56.3" transform="matrix(4.234867e-02 -0.9991 0.9991 4.234867e-02 301.9152 430.6026)" width="5" height="3"/>
	<rect x="213.1" y="55.3" transform="matrix(0.9991 -4.296264e-02 4.296264e-02 0.9991 -2.2851 9.2742)" width="3" height="5"/>
	<rect x="366.1" y="56" transform="matrix(3.842062e-02 -0.9993 0.9993 3.842062e-02 296.9379 423.627)" width="5" height="3"/>
	<rect x="220.1" y="55" transform="matrix(0.9992 -3.906320e-02 3.906320e-02 0.9992 -2.0777 8.701)" width="3" height="5"/>
	<rect x="359.1" y="55.8" transform="matrix(3.486630e-02 -0.9994 0.9994 3.486630e-02 291.7448 416.6362)" width="5" height="3"/>
	<polygon points="227.2,59.8 227,54.8 230,54.7 230.2,59.7 	"/>
	<polygon points="356,59.6 353,59.5 353.2,54.5 356.2,54.6 	"/>
	<polygon points="234.2,59.6 234,54.6 237,54.5 237.2,59.5 	"/>
	<polygon points="349,59.4 346,59.3 346.2,54.3 349.2,54.4 	"/>
	<rect x="241.1" y="54.3" transform="matrix(0.9996 -2.832002e-02 2.832002e-02 0.9996 -1.512 6.8933)" width="3" height="5"/>
	<rect x="338.1" y="55.1" transform="matrix(2.376405e-02 -0.9997 0.9997 2.376405e-02 275.8617 395.7968)" width="5" height="3"/>
	<rect x="248.1" y="54.1" transform="matrix(0.9997 -2.441632e-02 2.441632e-02 0.9997 -1.3087 6.1112)" width="3" height="5"/>
	<rect x="331.1" y="55" transform="matrix(2.019132e-02 -0.9998 0.9998 2.019132e-02 270.3718 388.877)" width="5" height="3"/>
	<rect x="255.1" y="54" transform="matrix(0.9998 -2.051151e-02 2.051151e-02 0.9998 -1.1047 5.275)" width="3" height="5"/>
	<rect x="324.1" y="54.9" transform="matrix(1.628448e-02 -0.9999 0.9999 1.628448e-02 264.914 381.9941)" width="5" height="3"/>
	<polygon points="262.1,58.9 262,53.9 265.1,53.8 265.1,58.8 	"/>
	<polygon points="321.1,58.8 318.1,58.7 318.1,53.7 321.1,53.8 	"/>
	<rect x="269.1" y="53.8" transform="matrix(0.9999 -1.367060e-02 1.367060e-02 0.9999 -0.7438 3.7044)" width="3" height="5"/>
	<rect x="310.1" y="54.7" transform="matrix(9.120142e-03 -1 1 9.120142e-03 253.5546 368.2487)" width="5" height="3"/>
	<rect x="276.1" y="53.7" transform="matrix(1 -9.765159e-03 9.765159e-03 1 -0.5354 2.7134)" width="3" height="5"/>
	<rect x="303.1" y="54.6" transform="matrix(5.539179e-03 -1 1 5.539179e-03 247.7608 361.4056)" width="5" height="3"/>
	<rect x="283.1" y="53.6" transform="matrix(1 -5.859274e-03 5.859274e-03 1 -0.324 1.6684)" width="3" height="5"/>
	<polygon points="290.1,58.6 290.1,53.6 293.1,53.6 293.1,58.6 	"/>
	<rect x="296.1" y="54.6" transform="matrix(1.629193e-03 -1 1 1.629193e-03 241.9907 354.6011)" width="5" height="3"/>
</g>
</svg>
