<?xml version="1.0" encoding="utf-8"?>
<!-- Generator: Adobe Illustrator 25.4.1, SVG Export Plug-In . SVG Version: 6.00 Build 0)  -->
<svg version="1.1" baseProfile="tiny" id="Layer_1" xmlns="http://www.w3.org/2000/svg" xmlns:xlink="http://www.w3.org/1999/xlink"
	 x="0px" y="0px" viewBox="0 0 2000 400" overflow="visible" xml:space="preserve">
<path d="M407,175.2c16.5,0,30,11.3,29.9,25.1s-13.6,25-30.1,24.9L290,224.9c-16.5,0-39.5,9.5-51.2,21.2L164,320.9
	c-11.7,11.7-29.2,13.3-38.9,3.5s-8.1-27.2,3.5-38.9l65.1-65.1c11.7-11.7,11.7-30.8,0-42.4l-63.6-63.6c-11.7-11.7-13.3-29.2-3.5-38.9
	s27.2-8.1,38.9,3.5l74.6,74.6c11.7,11.7,34.7,21.2,51.2,21.3L407,175.2z"/>
<rect x="496" y="185" width="1456" height="30"/>
<rect x="496" y="128" width="579" height="30"/>
<rect x="1917" y="128" width="35" height="30"/>
<rect x="1849" y="128" width="37.5" height="30"/>
<rect x="1611" y="128" width="184.8" height="30"/>
<rect x="1425" y="128" width="160.8" height="30"/>
</svg>
