<?xml version="1.0" encoding="utf-8"?>
<!-- Generator: Adobe Illustrator 28.7.1, SVG Export Plug-In . SVG Version: 9.03 Build 54978)  -->
<svg version="1.1" baseProfile="tiny" id="Layer_1" xmlns="http://www.w3.org/2000/svg" xmlns:xlink="http://www.w3.org/1999/xlink"
	 x="0px" y="0px" viewBox="0 0 90.8 21.2" overflow="visible" xml:space="preserve">
<g>
	<g>
		<path fill="#AA7BFF" d="M80,3.6c0,0.1,0,0.1,0,0.2c0,1.2,0,2.3,0,3.5c0,0,0,0.1,0,0.2c-0.1,0-0.3,0-0.4,0c0,0.1,0,0.3,0,0.4
			c-0.6,0-1.1,0-1.7,0c0-0.3,0-0.5,0-0.9c-0.4,0-0.9,0-1.3,0c0-0.2,0-0.3,0-0.4c-0.1,0-0.3,0-0.4,0c0-0.3,0-0.6,0-0.8
			c0.1,0,0.2,0,0.3,0c0.1,0,0.1-0.1,0.1-0.1c0-0.2,0-0.5,0-0.7c-0.1,0-0.1,0-0.1,0c-0.2,0-0.5,0-0.7,0c-0.5,0-0.5,0-0.5,0.5
			c0,0.4,0,0.4-0.4,0.4c0,0,0,0-0.1,0c0,0.9,0,1.9,0,2.8c0,0,0.1,0.1,0.2,0.1c0.2,0,0.5,0,0.7,0c0.4,0,0.4,0,0.4-0.4c0,0,0,0,0-0.1
			c0.1,0,0.2,0,0.4,0c0-0.1,0-0.3,0-0.4c0.1,0,0.3,0,0.4,0c0.1-0.5,0.1-0.5,0.4-0.4c0,0.1,0,0.2,0,0.4c0.1,0,0.3,0,0.4,0
			c0,0.9,0,1.7,0,2.5c0,0-0.1,0-0.1,0c-0.4,0-0.4,0-0.4,0.4c0,0.7,0,1.4,0,2.2c-0.4,0-0.8,0-1.3,0c0,0.1,0,0.3,0,0.4
			c-0.3,0-0.5,0-0.8,0c0,0.9,0,1.7,0,2.6c0.3,0,0.5,0,0.8,0c0-0.1,0-0.3,0-0.4c0.3,0,0.5,0,0.8,0c0-0.1,0-0.3,0-0.4
			c0.1,0,0.3,0,0.4,0c0-0.1,0-0.3,0-0.4c0,0,0,0,0.1,0c0.4,0,0.4,0,0.4-0.4c0-0.1,0-0.3,0-0.5c0.1,0,0.3,0,0.4,0c0-0.3,0-0.5,0-0.8
			c0.3,0,0.6,0,0.9,0c0,0.1,0,0.2,0,0.4c0.1,0,0.3,0,0.4,0c0,1.7,0,3.4,0,5.1c-0.3,0-0.5,0-0.8,0c0,0.1,0,0.3,0,0.4
			c-0.1,0-0.3,0-0.4,0c0-0.1,0-0.3,0-0.4c-0.6,0-1.1,0-1.7,0c0,0.6,0,1.1,0,1.7c-0.2,0-0.3,0-0.4,0c0-0.7,0-1.4,0-2.1
			c-0.2,0-0.3,0-0.4,0c0,0.3,0,0.5,0,0.8c-0.3,0-0.6,0-0.9,0c0-0.2,0-0.4,0-0.6c0-0.2,0-0.3-0.2-0.3c-0.3,0-0.7,0-1,0
			c0-0.1,0-0.3,0-0.4c-0.4,0-0.8,0-1.3,0c0.1-0.3-0.1-0.5-0.4-0.4c0-0.2,0-0.3,0-0.4c-0.1,0-0.3,0-0.4,0c0-0.4,0-0.8,0-1.3
			c0.1,0,0.3,0,0.4,0c0-0.6,0-1.1,0-1.7c-0.1,0-0.3,0-0.4,0c0-1.4,0-2.8,0-4.3c0.1,0,0.3,0,0.4,0c0-1.7,0-3.4,0-5.1
			c-0.1,0-0.3,0-0.4,0c0-0.3,0-0.5,0-0.8c0.1,0,0.3,0,0.4,0c0-0.1,0-0.3,0-0.4c0.1,0,0.2,0,0.3,0c1.2,0,2.4,0,3.6,0
			c0.4,0,0.4,0,0.5-0.4c1,0,2,0,3,0c0,0.1,0,0.2,0,0.4c0.1,0,0.3,0,0.4,0c0-0.3,0-0.5,0-0.8c0.2,0,0.3,0,0.4,0c0-0.1,0-0.3,0-0.4
			c0.3,0,0.5,0,0.8,0c0,0,0,0,0,0.1c0,0.4,0,0.4,0.4,0.4c0.1,0,0.3,0,0.4,0c0,0.1,0,0.3,0,0.4c0.3,0,0.5,0,0.8,0c0,0.2,0,0.3,0,0.4
			c0.6,0,1.1,0,1.7,0c0,0.1,0,0.3,0,0.4c0.1,0,0.3,0,0.4,0c0,0.1,0,0.3,0,0.4c0.1,0,0.3,0,0.4,0c0,0.1,0,0.3,0,0.4
			c0.1,0,0.3,0,0.4,0c0,0.3,0,0.5,0,0.8c0.1,0,0.3,0,0.4,0c0,0.3,0,0.5,0,0.8c0.2,0,0.3,0,0.4,0c0,0.4,0,0.8,0,1.3
			c0.2,0,0.3,0,0.4,0c0-0.3,0-0.5,0-0.8c0.2,0,0.3,0,0.4,0c0-0.4,0-0.8,0-1.3c-0.1,0-0.3,0-0.4,0c0-0.7,0-1.4,0-2.1
			c0.1,0,0.3,0,0.4,0c0-0.1,0-0.3,0-0.4c0.2,0,0.4,0,0.5,0c0.2,0,0.4,0,0.3-0.3c0,0,0-0.1,0-0.1c0.1,0,0.2,0,0.4,0
			c0-0.3,0-0.5,0.4-0.4c0-0.3,0-0.6,0-0.9c0.2,0,0.3,0,0.4,0c0-0.1,0-0.3,0-0.4c0.3,0,0.5,0,0.8,0c0,0.1,0,0.3,0,0.4
			c0.1,0,0.3,0,0.4,0c0,0.3,0,0.5,0,0.8c0,0,0,0,0,0c-0.4,0-0.4,0-0.4,0.4c0,0.3,0,0.6,0,0.9c-0.1,0-0.3,0-0.4,0c0,0.6,0,1.1,0,1.6
			c0,0-0.1,0-0.1,0c-0.4,0-0.4,0-0.4,0.4c0,0.2,0,0.4,0,0.6c0,0.2,0,0.3,0.3,0.3c0,0,0.1,0,0.2,0c0,0.2,0,0.4,0,0.6
			c0,0.5,0,1.1,0,1.6c0,0.2,0,0.4-0.3,0.3c0,0-0.1,0-0.1,0c0,2.4,0,4.8,0,7.3c0.1,0,0.2,0,0.4,0c0,0.7,0,1.4,0,2.1
			c0.2,0,0.3,0,0.4,0c0,0.4,0,0.8,0,1.2c0.2,0,0.3,0,0.4,0c0,0.4,0,0.8,0,1.2c-0.1,0-0.1,0-0.1,0c-0.2,0-0.3,0-0.3,0.3
			c0,0.1-0.1,0.2-0.1,0.2c-0.2,0-0.4,0-0.7,0c0-0.1,0-0.3,0-0.4c-0.1,0-0.3,0-0.4,0c0-0.4,0-0.8,0-1.3c-0.2,0-0.3,0-0.4,0
			c0-0.1,0-0.3,0-0.4c-0.1,0-0.3,0-0.4,0c0-0.3,0-0.5,0-0.8c-0.4-0.1-0.4-0.1-0.4-0.5c0,0,0-0.1,0-0.1c0-0.2-0.1-0.3-0.3-0.3
			c0,0-0.1,0-0.2,0c0-0.6,0-1.1,0-1.7c-0.2,0-0.3,0-0.4,0c0,0.1,0,0.3,0,0.4c-0.1,0-0.3,0-0.4,0c0-0.7,0-1.4,0-2.1
			c-0.2,0-0.3,0-0.4,0c0-0.4,0-0.8,0-1.3c-0.1,0-0.3,0-0.4,0c0-0.3,0-0.5,0-0.8c-0.2,0-0.3,0-0.4,0c0-0.2,0-0.4,0-0.6
			c0-0.2-0.1-0.3-0.3-0.3c0,0-0.1,0-0.1,0c0-0.2,0-0.3,0-0.5c0-0.4,0-0.4-0.4-0.3c0,0.3,0,0.5,0,0.8c0,0-0.1,0-0.1,0
			c-0.4,0-0.4,0-0.4,0.4c0,0.6,0,1.2,0,1.9c0,0.1,0,0.2,0,0.3c0.2,0,0.3,0,0.4,0c0,0.7,0,1.4,0,2.1c0.1,0,0.3,0,0.4,0
			c0,0.3,0,0.5,0,0.8c0.1,0,0.3,0,0.4,0c0,0.3,0,0.5,0,0.8c-0.1,0-0.3,0-0.4,0c0,0.7,0,1.4,0,2.1c-0.3,0-0.6,0-0.9,0
			c0,0.4,0,0.9,0,1.3c-0.2,0-0.3,0-0.4,0c0-0.8,0-1.7,0-2.5c-0.2,0-0.3,0-0.4,0c0,0.1,0,0.2,0,0.4c-0.1,0-0.3,0-0.4,0
			c0,0.1,0,0.3,0,0.4c-0.1,0-0.3,0-0.4,0c0,0.1,0,0.3,0,0.4c-0.1,0-0.3,0-0.4,0c0-0.1,0-0.3,0-0.4c-0.1,0-0.3,0-0.4,0
			c0-2.7,0-5.4,0-8.1c0.1,0,0.3,0,0.4,0c0-1.3,0-2.5,0-3.8c-0.1,0-0.2,0-0.4,0c0-0.6,0-1.1,0-1.7c-0.2,0-0.3,0-0.4,0
			c0-0.4,0-0.8,0-1.3c-0.2,0-0.3,0-0.4,0c0-0.1,0-0.3,0-0.4C80.3,3.6,80.1,3.6,80,3.6c0-0.1,0-0.3,0-0.5c-0.2,0-0.3,0-0.4,0
			c0,0.1,0,0.3,0,0.4C79.7,3.6,79.9,3.6,80,3.6z M74.9,13.5c0-0.6,0-1.2,0-1.8c0-0.4,0-0.4-0.4-0.3c0,0.6,0,1.2,0,1.8
			C74.4,13.5,74.5,13.5,74.9,13.5z M75.7,13c0-0.3,0-0.6,0-0.8c-0.1,0-0.3,0-0.4,0c0,0.3,0,0.6,0,0.8C75.5,13,75.6,13,75.7,13z"/>
		<path fill="#AA7BFF" d="M6.6,11.8c0,0.1,0,0.3,0,0.4c-0.3,0-0.5,0-0.8,0c0,0.3,0,0.6,0,0.9c-0.2,0-0.3,0-0.4,0c0-0.1,0-0.3,0-0.4
			c-0.1,0-0.3,0-0.4,0c0-0.1,0-0.2,0-0.4c-0.4-0.1-0.4-0.1-0.4,0.3c0,0.3,0,0.6,0,0.9c0.2,0,0.3,0,0.4,0c0,0.4,0,0.7,0,1
			c0,0.2,0,0.2,0.2,0.2c0.2,0,0.2,0.1,0.2,0.2c0,0.4,0,0.8,0,1.2c0,0.1,0,0.2,0,0.3c0.1,0,0.3,0,0.4,0c0,0.1,0,0.3,0,0.4
			c0.1,0,0.3,0,0.4,0c0,0.4,0,0.8,0,1.3c-0.1,0-0.2,0-0.4,0c0,0.1,0,0.3-0.1,0.4c0,0.1-0.2,0-0.3,0c0-0.1,0-0.3,0-0.4
			c-0.8,0-1.7,0-2.5,0c0,0,0,0,0,0c0,0.4,0,0.4-0.4,0.4c-0.1,0-0.3,0-0.4,0c0,0.1,0,0.3,0,0.4c-0.3,0-0.5,0-0.8,0c0-0.1,0-0.2,0-0.4
			c-0.1,0-0.3,0-0.4,0c0-0.1,0-0.3,0-0.4c0.1,0,0.2,0,0.4,0c0-0.1,0-0.3,0-0.4c0.1,0,0.3,0,0.4,0c0-1.4,0-2.8,0-4.3
			c0.2,0,0.3,0,0.4,0c0-0.1,0-0.3,0-0.4c0-0.5,0-1,0-1.4c0-0.2,0-0.3-0.3-0.3c0,0-0.1,0-0.1,0C1.4,11,1.4,11,1.7,10.9
			c0.1,0,0.1-0.1,0.1-0.2c0-0.5,0-1.1,0-1.6c0-0.1,0-0.2,0-0.3c0.2,0,0.4,0,0.4-0.1c0.1-0.2,0-0.4,0-0.6C2.3,7.8,2,8,1.8,7.8
			c0,0,0-0.1,0-0.2c0-0.7,0-1.3,0-2c0-0.2,0-0.4-0.3-0.3c0,0-0.1,0-0.1,0c0-0.1,0-0.2,0-0.4c-0.1,0-0.3,0-0.4,0C1,4.6,1,4.3,1,4
			c0.3,0,0.5,0,0.8,0c0-0.2,0-0.3,0-0.4c0.4,0,0.8,0,1.3,0c0-0.2,0-0.3,0-0.4c0.4,0,0.8,0,1.2,0c0.1-0.4,0.1-0.4,0.5-0.4
			c0.4,0,0.8,0,1.2,0c0,0.3,0,0.6,0,0.8c-0.1,0-0.3,0-0.4,0c0,0.3,0,0.5,0,0.8c-0.1,0-0.3,0-0.4,0c0,0.7,0,1.4,0,2.1
			c-0.2,0-0.3,0-0.4,0c0,0.8,0,1.7,0,2.5c0.4,0,0.8,0,1.3,0c0-0.1,0-0.2,0-0.4c0.1,0,0.3,0,0.4,0c0-0.1,0-0.3,0-0.4
			c0.1,0,0.3,0,0.4,0c0-1.1,0-2.3,0-3.4c-0.1,0-0.3,0-0.4,0c0-0.4,0-0.8,0-1.3c0.1,0,0.3,0,0.4,0c0-0.1,0-0.3,0-0.4
			c0.1,0,0.3,0,0.4,0c0-0.1,0-0.3,0-0.4c0.6,0,1.1,0,1.7,0c0-0.2,0-0.3,0-0.4c0.3,0,0.5,0,0.8,0c-0.1,0.3,0,0.5,0.4,0.4
			c0,0.3,0,0.6,0,0.8c-0.1,0-0.3,0-0.4,0c0,0.3,0,0.5,0,0.8c-0.1,0-0.3,0-0.4,0c0,0.4,0,0.8,0,1.3c0.1,0,0.3,0,0.4,0
			c0,0.7,0,1.4,0,2.1c-0.1,0-0.3,0-0.4,0c0,0.1,0,0.3,0,0.4c0.1,0,0.3,0,0.4,0c0,0.3,0,0.5,0,0.8c-0.1,0-0.3,0-0.4,0
			c0,1.4,0,2.8,0,4.3c0.1,0,0.3,0,0.4,0c0,1.1,0,2.3,0,3.4c0.2,0,0.3,0,0.4,0c0-0.1,0-0.3,0-0.4c0.2,0,0.4,0,0.6,0
			c0.2,0,0.3-0.1,0.3-0.3c0,0,0-0.1,0-0.1c0.1,0,0.3,0,0.4,0c0-1.1,0-2.3,0-3.4c0.2,0,0.3,0,0.4,0c0-1.1,0-2.3,0-3.4
			c0.2,0,0.3,0,0.4,0c0-0.4,0-0.8,0-1.3c0.1,0,0.3,0,0.4,0c0-0.8,0-1.7,0-2.5c-0.1,0-0.2,0-0.4,0c0-0.1,0-0.3,0-0.4
			c0.1,0,0.3,0,0.4,0c-0.1-0.3,0-0.5,0.4-0.4c0-0.2,0-0.3,0-0.4c0.1,0,0.3,0,0.4,0c0,0,0,0,0,0c0-0.4,0-0.4,0.4-0.4
			c0.1,0,0.3,0,0.4,0c0-0.2,0-0.3,0-0.4c0.1,0,0.3,0,0.4,0c0-0.1,0-0.3,0-0.4c0.2,0,0.5,0,0.7,0c0.4,0,0.7,0,1.1,0
			c0.2,0,0.3-0.1,0.3-0.3c0,0,0-0.1,0-0.1c0.1,0,0.2,0,0.4,0c0-0.1,0-0.3,0-0.4c0.1,0,0.3,0,0.4,0c0-0.1,0-0.3,0-0.4
			c0.1,0,0.3,0,0.4,0c0,0.1,0,0.3,0,0.4c0.1,0,0.2,0,0.4,0c0,0.4,0,0.8,0,1.3c-0.1,0-0.3,0-0.4,0c0,0.1,0,0.3,0,0.4
			c-0.1,0-0.3,0-0.4,0c0,0.6,0,1.1,0,1.7c0.1,0,0.2,0,0.4,0c0,0.7,0,1.4,0,2.1c0.2,0,0.3,0,0.4,0c0,0.6,0,1.1,0,1.7
			c0.2,0,0.3,0,0.4,0c0,0.1,0,0.2,0,0.3c0,0.8,0,1.6,0,2.4c0,0.2,0.1,0.3,0.3,0.3c0,0,0.1,0,0.1,0c0,0.4,0,0.8,0,1.2
			c-0.1,0-0.3,0-0.4,0c0,0.4,0,0.8,0,1.2c0,0,0,0,0,0c0.4,0,0.4,0,0.4,0.4c0,0.4,0,0.9,0,1.3c0.2,0,0.3,0,0.4,0c0,0.1,0,0.2,0,0.4
			c0,0,0,0,0,0c0.4,0.1,0.4,0.1,0.4,0.5c0,0.1,0,0.3,0,0.4c0.2,0,0.3,0,0.4,0c0,0.7,0,1.4,0,2.1c-0.3,0-0.5,0-0.8,0
			c0-0.1,0-0.3,0-0.4c-0.1,0-0.3,0-0.4,0c0-0.1,0-0.3,0-0.4c-0.1,0-0.3,0-0.4,0c0-0.1,0-0.3,0-0.4c-0.3,0-0.5,0-0.8,0
			c0-0.2,0-0.3,0-0.4c-0.3,0-0.7,0-1,0c-0.2,0-0.3,0-0.2-0.2c0-0.1,0-0.2-0.1-0.2c-0.3,0-0.3,0-0.3-0.4c0.1,0,0.2,0,0.4,0
			c0-0.2,0-0.4,0-0.6c0-0.4,0-0.8,0-1.2c0-0.2-0.1-0.3-0.3-0.3c0,0-0.1,0-0.1,0c0-0.1,0-0.3-0.1-0.4c0-0.1-0.2,0-0.3,0
			c0,0.1,0,0.3,0,0.4c-0.1,0-0.3,0-0.4,0c0-0.6,0-1.1,0-1.7c-0.2,0-0.3,0-0.4,0c0,0.7,0,1.4,0,2.1c-0.2,0-0.3,0-0.4,0
			c0-0.7,0-1.4,0-2.1c-0.2,0-0.3,0-0.4,0c0,0.3,0,0.6,0,0.8c0,0.3,0,0.7,0,1c0,0.2-0.1,0.3-0.3,0.3c0,0-0.1,0-0.1,0c0,1,0,2,0,3
			c0.1,0,0.3,0,0.4,0c0,0.1,0,0.3,0,0.4c-0.4,0-0.8,0-1.3,0c0-0.1,0-0.2,0-0.4c-0.3,0-0.5,0-0.4-0.4c-0.3,0-0.6,0-0.9,0
			c0-0.2,0-0.3,0-0.4c-0.4,0-0.8,0-1.1,0c0,0-0.1,0.1-0.1,0.2c0,0.4,0,0.8,0,1.2c0,0.1,0,0.2,0,0.3c-0.2,0-0.3,0-0.4,0
			c0,0.1,0,0.3,0,0.4c-0.1,0-0.3,0-0.4,0c0-0.1,0-0.2,0-0.4c-0.1,0-0.3,0-0.4,0c0-0.1,0-0.3,0-0.4c-0.1,0-0.3,0-0.4,0
			c0-0.1,0-0.3,0-0.4c-0.1,0-0.2,0-0.4,0c0,0.4,0,0.8,0,1.3c-0.2,0-0.3,0-0.4,0c0,0.1,0,0.3,0,0.4c-0.1,0-0.3,0-0.4,0
			c0-0.1,0-0.2,0-0.3c0-0.5,0-1.1,0-1.6c0-0.2-0.1-0.2-0.2-0.2c-0.2,0-0.4,0-0.6,0c0-0.1,0-0.3,0-0.4c-0.1,0-0.3,0-0.4,0
			c0-0.7,0-1.4,0-2.1c0.1,0,0.3,0,0.4,0c0-1.3,0-2.5,0-3.8C6.9,11.8,6.7,11.8,6.6,11.8z M15.5,7.4c0.1,0,0.3,0,0.5,0
			c0-0.2,0-0.3,0-0.4c-0.1,0-0.3,0-0.4,0C15.6,7.2,15.6,7.3,15.5,7.4c-0.1,0-0.2,0-0.4,0.1c0,0.1,0,0.3,0,0.4c0.1,0,0.3,0,0.4,0
			C15.6,7.7,15.6,7.6,15.5,7.4z M14.7,8.8c0,0.6,0,1.1,0,1.7c0.6,0,1.1,0,1.7,0c0-0.1,0-0.3,0-0.4c0.1,0,0.3,0,0.4,0
			c0-0.3,0-0.6,0-0.8c-0.4-0.1-0.4-0.1-0.4-0.5c0-0.1,0-0.2,0-0.3c0-0.1-0.1-0.1-0.1-0.1c-0.4,0-0.8,0-1.1,0c0,0.2,0,0.3,0,0.4
			C15,8.8,14.9,8.8,14.7,8.8z"/>
		<path fill="#AA7BFF" d="M30.7,17.8c0-0.1,0-0.2,0-0.2c0-1.6,0-3.2,0-4.8c0-0.1,0-0.1,0-0.2c0.1,0,0.3,0,0.4,0c0-1.3,0-2.6,0-3.8
			c0.2,0,0.3,0,0.4,0c0-0.6,0-1.1,0-1.7c0,0,0,0,0,0c-0.4,0-0.4,0-0.4-0.4c0-0.5,0-1,0-1.5c0-0.1,0-0.2,0-0.3c-0.2,0-0.3,0-0.4,0
			c0-0.1,0-0.2,0-0.4c-0.3,0-0.5,0-0.8,0c0-0.3,0-0.6,0-0.9c0.1,0,0.2,0,0.4,0c0-0.1,0-0.3,0-0.4c0.4,0,0.8,0,1.3,0
			c0-0.2,0-0.3,0-0.4c0.3,0,0.6,0,0.8,0c0.4,0,0.4,0,0.5-0.4c0,0,0.1,0,0.2,0c0.6,0,1.2,0,1.8,0c0.2,0,0.2,0.1,0.2,0.2
			c0,0.2,0,0.4,0,0.6c-0.1,0-0.3,0-0.4,0c0,0.3,0,0.5,0,0.8c-0.2,0-0.3,0-0.4,0c0,1.9,0,3.7,0,5.6c-0.2,0-0.3,0-0.4,0c0,1,0,2,0,3
			c0.1,0,0.2,0,0.4,0c0,1,0,2,0,3c0.6,0,1.1,0,1.6,0c0,0,0.1-0.1,0.1-0.1c0-0.1,0-0.2,0-0.3c0.1,0,0.3,0,0.4,0c0-0.1,0-0.3,0-0.4
			c0.1,0,0.3,0,0.4,0c0-0.1,0-0.3,0-0.4c0.1,0,0.2,0,0.4,0c0-0.4,0-0.8,0-1.3c0.2,0,0.3,0,0.4,0c0-0.1,0-0.3,0-0.4
			c0.4,0,0.8,0,1.3,0c0,0.4,0,0.8,0,1.3c0.2,0,0.3,0,0.4,0c0-0.8,0-1.7,0-2.5c0.1,0,0.3,0,0.4,0c0-0.1,0-0.2,0-0.3
			c0-0.8,0-1.6,0-2.4c0-0.2,0-0.4,0.3-0.3c0,0,0.1,0,0.1,0c0-1.3,0-2.5,0-3.8c0.2,0,0.3,0,0.4,0c0-0.1,0-0.3,0-0.4
			c0.1,0,0.3,0,0.4,0c0-0.1,0-0.3,0-0.4c0.1,0,0.3,0,0.4,0c0-0.1,0-0.3,0-0.4c0.4,0,0.8,0,1.3,0c0-0.2,0-0.3,0-0.4
			c0.6,0,1.1,0,1.7,0c0,0.1,0,0.3,0,0.4c0.3,0,0.5,0,0.8,0c0,0.1,0,0.3,0,0.4c0.3,0,0.5,0,0.8,0c0,0.2,0,0.3,0,0.4
			c0.1,0,0.3,0,0.4,0c0,0.1,0,0.3,0,0.4c0.1,0,0.3,0,0.4,0c0,0.2,0,0.4,0,0.6c0,0.2,0,0.2,0.2,0.2c0.2,0,0.2,0.1,0.2,0.2
			c0,1.2,0,2.5,0,3.7c0,0.1,0,0.2,0,0.3c0.2,0,0.3,0,0.4,0c0,0.5,0,1.1,0,1.6c0,0-0.1,0.1-0.2,0.1c-0.2,0-0.2,0.1-0.2,0.3
			c0,1.2,0,2.5,0,3.7c0,0.1,0,0.2,0,0.3c-0.2,0-0.3,0-0.4,0c0,0.4,0,0.8,0,1.2c0,0-0.1,0-0.1,0c-0.4,0-0.4,0-0.4,0.4
			c0,0.6,0,1.1,0,1.7c-0.1,0-0.3,0-0.4,0c0-0.2,0-0.3,0-0.5c0-0.2,0-0.4,0-0.6c0-0.2,0-0.5,0-0.5c-0.2-0.1-0.5,0-0.7,0
			c0,0-0.1,0.1-0.1,0.2c0,0.4,0,0.8,0,1.2c0,0.1,0,0.2,0,0.3c-0.3,0-0.6,0-0.8,0c0-0.1,0-0.3,0-0.4c0.1,0,0.3,0,0.4,0
			c0-0.1,0-0.3,0-0.4c-0.3,0-0.5,0-0.4-0.4c-0.1,0-0.2,0-0.3,0c-0.8,0-1.6,0-2.4,0c-0.2,0-0.4,0-0.3-0.3c0,0,0-0.1,0-0.1
			c-0.1,0-0.3,0-0.4,0c0-0.1,0-0.3,0-0.4c-0.1,0-0.3,0-0.4,0c0-0.1,0-0.3,0-0.4c-0.1,0-0.3,0-0.4,0c0-0.1,0-0.3,0-0.4
			c-0.1,0-0.3,0-0.4,0c0-0.3,0-0.5,0-0.8c-0.2,0-0.3,0-0.4,0c0,0.3,0,0.5,0,0.8c-0.2,0-0.3,0-0.4,0c0,0.3,0,0.5,0,0.8
			c0.4,0.1,0.4,0.1,0.4,0.5c0,0.1,0,0.2,0,0.3c0.1,0,0.3,0,0.4,0c0,0.6,0,1.1,0,1.7c-0.3,0-0.5,0-0.8,0c0-0.1,0-0.3,0-0.4
			c-0.1,0-0.3,0-0.4,0c0-0.1,0-0.3,0-0.4c-0.2,0-0.4,0-0.6,0c-0.2,0-0.3-0.1-0.3-0.3c0,0,0-0.1,0-0.1c-0.1,0-0.3,0-0.4,0
			c0-0.1,0-0.3,0-0.4c-0.5,0-1.1,0-1.6,0c0,0-0.1,0.1-0.1,0.2c0,0.8,0,1.7,0,2.5c0,0.2,0,0.3-0.2,0.2c-0.1,0-0.2,0-0.2,0.2
			c0,0.1,0,0.1,0,0.2c-0.1,0-0.3,0-0.4,0c0-1.1,0-2.3,0-3.4c-0.3,0-0.6,0-0.9,0c0,0.8,0,1.7,0,2.5c-0.2,0-0.3,0-0.4,0
			c0-0.8,0-1.7,0-2.5c-0.2,0-0.3,0-0.4,0c0-0.1,0-0.3-0.1-0.4c0-0.1-0.2,0-0.3,0c0,0,0,0,0,0.1c0,0.4,0,0.4-0.4,0.4
			C31.5,17.8,31.1,17.8,30.7,17.8L30.7,17.8z M44.4,10.5c0-0.4,0-0.8,0-1.3c-0.1,0-0.1,0-0.1,0c-0.3,0.1-0.3-0.1-0.3-0.3
			c0-0.9,0-1.9,0-2.8c0-0.1,0-0.2,0-0.3c-0.2,0-0.3,0-0.4,0c0-0.1,0-0.3,0-0.4c-0.3,0-0.6,0-0.8,0c0,0.1,0,0.3,0,0.4
			c-0.1,0-0.3,0-0.4,0c0,2,0,4,0,6c0.1,0,0.3,0,0.4,0c0,0.1,0,0.3,0,0.4c0,0,0,0,0.1,0c0.4,0,0.9,0,1.3,0c0.2,0,0.6,0.1,0.7,0
			c0.1-0.1,0.1-0.5,0.1-0.7c0-0.3,0-0.6,0-0.9C44.6,10.5,44.5,10.5,44.4,10.5z M43.9,15.2c0.1,0.5,0.1,0.5,0.5,0.4
			c0-0.1,0-0.2,0-0.4c0.1,0,0.1,0,0.2,0c0.2,0,0.3-0.1,0.2-0.3c0-0.3,0-0.5,0-0.8c0-0.4,0-0.7,0-1.1c-0.7,0-1.4,0-2.1,0
			c0,0.3,0,0.6,0,0.8c0,0,0.1,0,0.1,0c0.3-0.1,0.3,0.1,0.3,0.3c0,0.2,0,0.3,0,0.5c0.2,0,0.3,0,0.4,0C43.4,15.1,43.6,15.3,43.9,15.2z
			"/>
		<path fill="#AA7BFF" d="M52.9,6.2c0.3,0,0.6,0,0.9,0c0-0.2,0-0.3,0-0.4c0.4,0,0.8,0,1.3,0c0,0.3,0,0.5,0,0.8c0.2,0,0.3,0,0.4,0
			c0,1.8,0,3.7,0,5.6c0.2,0,0.3,0,0.4,0c0,0.6,0,1.1,0,1.7c0.3,0,0.5,0,0.7,0c0,0,0.1-0.1,0.1-0.1c0-0.1,0-0.1,0-0.2
			c0-1.5,0-3,0-4.5c0-0.1,0-0.2,0-0.3c0.1,0,0.3,0,0.4,0c0-0.7,0-1.4,0-2.1c0.2,0,0.3,0,0.4,0c0-0.8,0-1.7,0-2.5c0.1,0,0.3,0,0.4,0
			c0-0.1,0-0.3,0-0.4c0.1,0,0.3,0,0.4,0c0-0.1,0-0.3,0-0.4c0.3,0,0.5,0,0.8,0c0-0.2,0-0.3,0-0.4c0.1,0,0.3,0,0.4,0
			c0-0.1,0-0.3,0-0.4c0.2,0,0.4,0,0.6,0c0.2,0,0.3,0,0.3-0.3c0,0,0-0.1,0-0.2c0.3,0,0.5,0,0.8,0c0-0.2,0-0.3,0-0.4
			c0.3,0,0.5,0,0.8,0c0,0.1,0,0.3,0,0.4c0,0,0,0,0,0c0.4,0,0.4,0,0.4,0.4c0,0.3,0,0.6,0,0.9l0,0c-0.1,0-0.3,0-0.4,0
			c0,0.1,0,0.3,0,0.4c-0.1,0-0.3,0-0.4,0c0,0.1,0,0.3,0,0.4c-0.1,0-0.3,0-0.4,0c0,0.1,0,0.3,0,0.4c-0.1,0-0.3,0-0.4,0
			c0,0.3,0,0.5,0,0.8c-0.1,0-0.3,0-0.4,0c0,0.7,0,1.4,0,2.1c-0.2,0-0.3,0-0.4,0c0,0.7,0,1.4,0,2.1c-0.1,0-0.3,0-0.4,0
			c0,0.1,0,0.3,0,0.4c-0.1,0-0.3,0-0.4,0c0,0.1,0,0.3,0,0.4c-0.1,0-0.3,0-0.4,0c0,0.1,0,0.2,0,0.4c0.3,0,0.5,0,0.8,0
			c0,0.2,0,0.3,0,0.4c0.1,0,0.2,0,0.4,0c0.1,0.3,0.1,0.4-0.4,0.4c0,0.1,0,0.2,0,0.3c0,0.8,0,1.6,0,2.4c0,0.2,0,0.4-0.3,0.3
			c0,0-0.1,0-0.1,0c0,0.4,0,0.8,0,1.2c-0.2,0-0.3,0-0.4,0c0,0.3,0,0.5,0,0.8c-0.2,0-0.3,0-0.4,0c0,0.3,0,0.5,0,0.8
			c-0.3-0.1-0.5,0-0.4,0.4c-0.4,0-0.7,0-1.1,0c-0.2,0-0.2,0.1-0.2,0.2c0,0.2,0,0.4,0,0.6c-0.2,0-0.3,0-0.4,0c0,0.1,0,0.2,0,0.4
			c-0.3,0-0.5,0-0.8,0c0-0.6,0-1.1,0-1.7c0.1,0,0.2,0,0.4,0c0-0.1,0-0.3,0-0.4c-0.1,0-0.2,0-0.4,0c0-0.3,0-0.5,0-0.8
			c-0.2,0-0.3,0-0.4,0c0-0.1,0-0.3,0-0.4c-0.3,0-0.5,0-0.8,0c0,0.4,0,0.8,0,1.2c-0.4,0.1-0.4,0.1-0.4,0.5c0,0.4,0,0.4-0.4,0.4
			c-0.8,0-1.6,0-2.4,0c-0.1,0-0.2,0-0.3,0c0-0.6,0-1.1,0-1.7c-0.2,0-0.3,0-0.4,0c0-0.4,0-0.8,0-1.2c0,0-0.1,0-0.1,0
			c-0.4,0-0.4,0-0.4-0.4c0-1.2,0-2.4,0-3.6c0-0.1,0-0.2,0-0.3c-0.3,0-0.6,0-0.9,0c0-1.3,0-2.6,0-3.9c-0.2,0-0.3,0-0.4,0
			c0-0.4,0-0.8,0-1.3c0.1,0,0.3,0,0.4,0c0.1-0.4,0.1-0.4-0.4-0.4c0-0.1,0-0.2,0-0.4c-0.1,0-0.3,0-0.4,0c0-0.3,0-0.5-0.4-0.4
			c0-0.2,0-0.3,0-0.4c-0.1,0-0.3,0-0.4,0c0-0.3,0-0.5,0-0.8c0.1,0,0.3,0,0.4,0c0-0.1,0-0.2,0-0.4c1.3,0,2.5,0,3.8,0
			c0,0.7,0,1.4,0,2.1c0.1,0,0.3,0,0.4,0c0,0.1,0,0.3,0,0.4c0.1,0,0.2,0,0.4,0c0,0.1,0,0.3,0,0.4l0,0c-0.3,0-0.5,0-0.8,0
			c0,0.7,0,1.4,0,2.1c0.1,0,0.3,0,0.4,0c0,1,0,2,0,3c0.2,0,0.3,0,0.4,0c0,0.9,0,1.7,0,2.5c0.2,0,0.3,0,0.4,0c0-1.3,0-2.6,0-3.8
			c0.2,0,0.3,0,0.4,0c0-0.3,0-0.6,0-0.8c-0.1,0-0.1,0-0.1,0c-0.2,0-0.3-0.1-0.3-0.3c0-0.2,0-0.4,0-0.6c0-0.4,0-0.4,0.4-0.5
			c0-0.3,0-0.5,0-0.8c-0.1,0-0.3,0-0.4,0C53,6.4,53,6.3,52.9,6.2L52.9,6.2z"/>
		<path fill="#AA7BFF" d="M62.8,3.2c0.1,0,0.2,0,0.3,0c1.2,0,2.5,0,3.7,0c0.1,0,0.2,0,0.3,0c0-0.2,0-0.3,0-0.4c1.1,0,2.3,0,3.4,0
			c0,0.1,0,0.3,0,0.4c0.1,0,0.3,0,0.4,0c0,1.4,0,2.8,0,4.3c-0.1,0-0.3,0-0.4,0c0,0.1,0,0.3,0,0.4c-0.4,0-0.8,0-1.3,0
			c0-0.1,0-0.3,0-0.4c-0.1,0-0.3,0-0.4,0c0-0.1,0-0.2,0-0.4c-0.3,0-0.5,0-0.8,0c0-0.2,0-0.3,0-0.4c-0.1,0-0.3,0-0.4,0
			c0-0.6,0-1.1,0-1.7c-0.3,0-0.6,0-0.8,0c0,0.1,0,0.3,0,0.4c0,0,0,0,0,0c-0.4,0-0.4,0-0.4,0.4c0,0.5,0,1,0,1.5c0,0.1,0,0.2,0,0.3
			c-0.2,0-0.3,0-0.4,0c0,0.3,0,0.5,0,0.8c0.1,0,0.3,0,0.4,0c0,0.1,0,0.3,0,0.4c0.3,0,0.5,0,0.8,0c0-0.1,0-0.3,0-0.4
			c0.1,0,0.3,0,0.4,0c0-0.1,0-0.3,0-0.4c0.4,0,0.8,0,1.1,0c0,0,0.1,0.1,0.1,0.2c0,0.2,0.1,0.2,0.2,0.2c0.2,0,0.2,0.1,0.2,0.2
			c0,0,0,0.1,0,0.1c0,0.4,0,0.4-0.4,0.5c0,0.1,0,0.2,0,0.3c0,0.9,0,1.9,0,2.8c0,0.2,0,0.4-0.3,0.3c0,0-0.1,0-0.1,0
			c0,0.1,0,0.2,0,0.4c-0.4,0-0.8,0-1.3,0c0,0.2,0,0.3,0,0.4c-0.1,0-0.3,0-0.4,0c0,0.1,0,0.3,0,0.4c-0.1,0-0.3,0-0.4,0
			c0,0.7,0,1.4,0,2.1c0.3,0,0.5,0,0.8,0c0-0.1,0-0.2,0-0.4c0.3,0,0.5,0,0.8,0c0-0.2,0-0.3,0-0.4c0.2,0,0.4,0,0.7,0
			c0.1,0,0.2,0,0.2-0.2c0-0.1,0-0.3,0-0.4c0-0.2,0-0.3,0.2-0.2c0.1,0,0.1,0,0.2,0c0-0.3,0-0.5,0-0.8c0.1,0,0.3,0,0.4,0
			c0-0.1,0-0.3,0-0.4c0.3,0,0.5,0,0.8,0c0,1.8,0,3.7,0,5.6c-0.3,0-0.5,0-0.8,0c0,0.2,0,0.3,0,0.4c-0.1,0-0.3,0-0.4,0
			c0-0.1,0-0.2,0-0.4c-0.4,0-0.8,0-1.3,0c0,0.6,0,1.1,0,1.7c-0.2,0-0.3,0-0.4,0c0-0.1,0-0.2,0-0.4c-0.1,0-0.3,0-0.4,0
			c0-0.6,0-1.1,0-1.7c-0.2,0-0.3,0-0.4,0c0,0.3,0,0.6,0,0.9c0,0.4,0,0.4-0.4,0.3c0-0.4,0-0.8,0-1.2c-0.6,0-1.1,0-1.7,0
			c0-0.2,0-0.3,0-0.4c-0.4,0-0.8,0-1.3,0c0.1-0.3-0.1-0.5-0.4-0.4c0-1.4,0-2.9,0-4.3c-0.2,0-0.3,0-0.4,0c0-0.8,0-1.7,0-2.5
			c0.1,0,0.2,0,0.4,0c0-0.1,0-0.1,0-0.2C62.8,7.9,62.8,5.6,62.8,3.2C62.8,3.2,62.8,3.2,62.8,3.2C62.8,3.2,62.8,3.2,62.8,3.2z
			 M65.9,12.2c-0.1,0-0.3,0-0.4,0c0,0.2,0,0.4,0,0.6c0,0.2,0,0.4,0,0.6c0.2,0,0.3,0,0.4,0C65.9,13,65.9,12.6,65.9,12.2
			c0.4-0.1,0.4-0.1,0.4-0.5c0-0.1,0-0.1,0-0.2c0-0.2-0.1-0.2-0.2-0.2c-0.1,0-0.2,0-0.2,0.2C65.9,11.8,65.9,12,65.9,12.2z"/>
		<path fill="#AA7BFF" d="M30.7,17.8c0,0.2,0,0.4,0,0.6c0,0.2,0,0.4,0,0.6c0,0,0,0,0,0.1c-0.1,0-0.2,0-0.4,0c0,0.1,0,0.3,0,0.4
			c-0.3,0-0.5,0-0.8,0c0-0.1,0-0.3,0-0.4c-0.1,0-0.3,0-0.4,0c0-0.1,0-0.3,0-0.4c-0.3,0.1-0.5,0-0.4-0.4c-0.2,0-0.3,0-0.4,0
			c0-0.1,0-0.3,0-0.4c-0.6,0-1.1,0-1.7,0c0.1,0.3-0.1,0.5-0.4,0.4c0,0.9,0,1.7,0,2.6c-0.2,0-0.3,0-0.4,0c0-1,0-2,0-3
			c-0.3,0-0.6,0-0.9,0c0,0.7,0,1.4,0,2.1c-0.3,0-0.6,0-0.9,0c0-0.2,0-0.4,0-0.6c0-0.5,0-1.1,0-1.6c0-0.4,0-0.4-0.4-0.3c0,0,0,0,0,0
			c0,0.4,0,0.4-0.4,0.4c-0.4,0-0.9,0-1.3,0c0-0.1,0-0.3,0-0.4c-0.1,0-0.2,0-0.4,0c0-0.4,0-0.8,0-1.3c0.1,0,0.3,0,0.4,0
			c0-0.3,0-0.5,0-0.8c-0.1,0-0.3,0-0.4,0c0-0.7,0-1.4,0-2.1c0.1,0,0.3,0,0.4,0c0-0.3,0-0.5,0-0.8c0.2,0,0.3,0,0.4,0
			c0-0.4,0-0.8,0-1.3c-0.1,0-0.2,0-0.4,0c0-0.4,0-0.8,0-1.3c0.1,0,0.3,0,0.4,0c0-1.3,0-2.5,0-3.8c-0.1,0-0.3,0-0.4,0
			c0-0.4,0-0.8,0-1.3c-0.3,0-0.6,0-0.8,0c0-0.3,0-0.6,0-0.8c0.1,0,0.2,0,0.4,0c0-0.1,0-0.3,0-0.4c0.3,0,0.5,0,0.8,0
			c0-0.2,0-0.3,0-0.4c0.4,0,0.8,0,1.2,0c0.4,0,0.4,0,0.5-0.4c0.7,0,1.4,0,2.1,0c0,0.1,0,0.3,0,0.4c-0.1,0-0.2,0-0.4,0
			c0,0.1,0,0.3,0,0.4c-0.1,0-0.3,0-0.4,0c0,0.8,0,1.7,0,2.5c-0.1,0-0.3,0-0.4,0c0,1.7,0,3.4,0,5.1c-0.2,0-0.3,0-0.4,0
			c0,0.3,0,0.5,0,0.8c0.1,0,0.3,0,0.4,0c0,1.1,0,2.3,0,3.4c0.2,0,0.3,0,0.4,0c0.1,0.4,0.1,0.4,0.5,0.4c0.2,0,0.5,0,0.7,0
			c0,0,0,0,0.1,0c0-0.1,0-0.2,0-0.4c0.3,0,0.5,0,0.8,0c0-0.1,0-0.3,0-0.4c0.1,0,0.3,0,0.4,0c0-0.3,0-0.6,0-1c0-0.2,0.1-0.3,0.3-0.3
			c0,0,0.1,0,0.1,0c0-0.3,0-0.5,0-0.8c0.4,0,0.8,0,1.3,0c0,0.1,0,0.3,0,0.4c0.1,0,0.3,0,0.4,0c0,1.4,0,2.8,0,4.3c0.1,0,0.3,0,0.4,0
			c0,0.1,0,0.3,0,0.4C30.4,17.8,30.5,17.8,30.7,17.8C30.7,17.8,30.7,17.8,30.7,17.8z"/>
	</g>
	<g>
		<path fill="#AAFF47" d="M79.4,3c0,0.1,0,0.1,0,0.2c0,1.2,0,2.3,0,3.5c0,0,0,0.1,0,0.2c-0.1,0-0.3,0-0.4,0c0,0.1,0,0.3,0,0.4
			c-0.6,0-1.1,0-1.7,0c0-0.3,0-0.5,0-0.9c-0.4,0-0.9,0-1.3,0c0-0.2,0-0.3,0-0.4c-0.1,0-0.3,0-0.4,0c0-0.3,0-0.6,0-0.8
			c0.1,0,0.2,0,0.3,0C75.9,5.1,76,5,76,5c0-0.2,0-0.5,0-0.7c-0.1,0-0.1,0-0.1,0c-0.2,0-0.5,0-0.7,0c-0.5,0-0.5,0-0.5,0.5
			c0,0.4,0,0.4-0.4,0.4c0,0,0,0-0.1,0c0,0.9,0,1.9,0,2.8c0,0,0.1,0.1,0.2,0.1c0.2,0,0.5,0,0.7,0c0.4,0,0.4,0,0.4-0.4c0,0,0,0,0-0.1
			c0.1,0,0.2,0,0.4,0c0-0.1,0-0.3,0-0.4c0.1,0,0.3,0,0.4,0c0.1-0.5,0.1-0.5,0.4-0.4c0,0.1,0,0.2,0,0.4c0.1,0,0.3,0,0.4,0
			c0,0.9,0,1.7,0,2.5c0,0-0.1,0-0.1,0c-0.4,0-0.4,0-0.4,0.4c0,0.7,0,1.4,0,2.2c-0.4,0-0.8,0-1.3,0c0,0.1,0,0.3,0,0.4
			c-0.3,0-0.5,0-0.8,0c0,0.9,0,1.7,0,2.6c0.3,0,0.5,0,0.8,0c0-0.1,0-0.3,0-0.4c0.3,0,0.5,0,0.8,0c0-0.1,0-0.3,0-0.4
			c0.1,0,0.3,0,0.4,0c0-0.1,0-0.3,0-0.4c0,0,0,0,0.1,0c0.4,0,0.4,0,0.4-0.4c0-0.1,0-0.3,0-0.5c0.1,0,0.3,0,0.4,0c0-0.3,0-0.5,0-0.8
			c0.3,0,0.6,0,0.9,0c0,0.1,0,0.2,0,0.4c0.1,0,0.3,0,0.4,0c0,1.7,0,3.4,0,5.1c-0.3,0-0.5,0-0.8,0c0,0.1,0,0.3,0,0.4
			c-0.1,0-0.3,0-0.4,0c0-0.1,0-0.3,0-0.4c-0.6,0-1.1,0-1.7,0c0,0.6,0,1.1,0,1.7c-0.2,0-0.3,0-0.4,0c0-0.7,0-1.4,0-2.1
			c-0.2,0-0.3,0-0.4,0c0,0.3,0,0.5,0,0.8c-0.3,0-0.6,0-0.9,0c0-0.2,0-0.4,0-0.6c0-0.2,0-0.3-0.2-0.3c-0.3,0-0.7,0-1,0
			c0-0.1,0-0.3,0-0.4c-0.4,0-0.8,0-1.3,0c0.1-0.3-0.1-0.5-0.4-0.4c0-0.2,0-0.3,0-0.4c-0.1,0-0.3,0-0.4,0c0-0.4,0-0.8,0-1.3
			c0.1,0,0.3,0,0.4,0c0-0.6,0-1.1,0-1.7c-0.1,0-0.3,0-0.4,0c0-1.4,0-2.8,0-4.3c0.1,0,0.3,0,0.4,0c0-1.7,0-3.4,0-5.1
			c-0.1,0-0.3,0-0.4,0c0-0.3,0-0.5,0-0.8c0.1,0,0.3,0,0.4,0c0-0.1,0-0.3,0-0.4c0.1,0,0.2,0,0.3,0c1.2,0,2.4,0,3.6,0
			c0.4,0,0.4,0,0.5-0.4c1,0,2,0,3,0c0,0.1,0,0.2,0,0.4c0.1,0,0.3,0,0.4,0c0-0.3,0-0.5,0-0.8c0.2,0,0.3,0,0.4,0c0-0.1,0-0.3,0-0.4
			c0.3,0,0.5,0,0.8,0c0,0,0,0,0,0.1c0,0.4,0,0.4,0.4,0.4c0.1,0,0.3,0,0.4,0c0,0.1,0,0.3,0,0.4c0.3,0,0.5,0,0.8,0c0,0.2,0,0.3,0,0.4
			c0.6,0,1.1,0,1.7,0c0,0.1,0,0.3,0,0.4c0.1,0,0.3,0,0.4,0c0,0.1,0,0.3,0,0.4c0.1,0,0.3,0,0.4,0c0,0.1,0,0.3,0,0.4
			c0.1,0,0.3,0,0.4,0c0,0.3,0,0.5,0,0.8c0.1,0,0.3,0,0.4,0c0,0.3,0,0.5,0,0.8c0.2,0,0.3,0,0.4,0c0,0.4,0,0.8,0,1.3
			c0.2,0,0.3,0,0.4,0c0-0.3,0-0.5,0-0.8c0.2,0,0.3,0,0.4,0c0-0.4,0-0.8,0-1.3c-0.1,0-0.3,0-0.4,0c0-0.7,0-1.4,0-2.1
			c0.1,0,0.3,0,0.4,0c0-0.1,0-0.3,0-0.4c0.2,0,0.4,0,0.5,0c0.2,0,0.4,0,0.3-0.3c0,0,0-0.1,0-0.1c0.1,0,0.2,0,0.4,0
			c0-0.3,0-0.5,0.4-0.4c0-0.3,0-0.6,0-0.9c0.2,0,0.3,0,0.4,0c0-0.1,0-0.3,0-0.4c0.3,0,0.5,0,0.8,0c0,0.1,0,0.3,0,0.4
			c0.1,0,0.3,0,0.4,0c0,0.3,0,0.5,0,0.8c0,0,0,0,0,0c-0.4,0-0.4,0-0.4,0.4c0,0.3,0,0.6,0,0.9c-0.1,0-0.3,0-0.4,0c0,0.6,0,1.1,0,1.6
			c0,0-0.1,0-0.1,0c-0.4,0-0.4,0-0.4,0.4c0,0.2,0,0.4,0,0.6c0,0.2,0,0.3,0.3,0.3c0,0,0.1,0,0.2,0c0,0.2,0,0.4,0,0.6
			c0,0.5,0,1.1,0,1.6c0,0.2,0,0.4-0.3,0.3c0,0-0.1,0-0.1,0c0,2.4,0,4.8,0,7.3c0.1,0,0.2,0,0.4,0c0,0.7,0,1.4,0,2.1
			c0.2,0,0.3,0,0.4,0c0,0.4,0,0.8,0,1.2c0.2,0,0.3,0,0.4,0c0,0.4,0,0.8,0,1.2c-0.1,0-0.1,0-0.1,0c-0.2,0-0.3,0-0.3,0.3
			c0,0.1-0.1,0.2-0.1,0.2c-0.2,0-0.4,0-0.7,0c0-0.1,0-0.3,0-0.4c-0.1,0-0.3,0-0.4,0c0-0.4,0-0.8,0-1.3c-0.2,0-0.3,0-0.4,0
			c0-0.1,0-0.3,0-0.4c-0.1,0-0.3,0-0.4,0c0-0.3,0-0.5,0-0.8c-0.4-0.1-0.4-0.1-0.4-0.5c0,0,0-0.1,0-0.1c0-0.2-0.1-0.3-0.3-0.3
			c0,0-0.1,0-0.2,0c0-0.6,0-1.1,0-1.7c-0.2,0-0.3,0-0.4,0c0,0.1,0,0.3,0,0.4c-0.1,0-0.3,0-0.4,0c0-0.7,0-1.4,0-2.1
			c-0.2,0-0.3,0-0.4,0c0-0.4,0-0.8,0-1.3c-0.1,0-0.3,0-0.4,0c0-0.3,0-0.5,0-0.8c-0.2,0-0.3,0-0.4,0c0-0.2,0-0.4,0-0.6
			c0-0.2-0.1-0.3-0.3-0.3c0,0-0.1,0-0.1,0c0-0.2,0-0.3,0-0.5c0-0.4,0-0.4-0.4-0.3c0,0.3,0,0.5,0,0.8c0,0-0.1,0-0.1,0
			c-0.4,0-0.4,0-0.4,0.4c0,0.6,0,1.2,0,1.9c0,0.1,0,0.2,0,0.3c0.2,0,0.3,0,0.4,0c0,0.7,0,1.4,0,2.1c0.1,0,0.3,0,0.4,0
			c0,0.3,0,0.5,0,0.8c0.1,0,0.3,0,0.4,0c0,0.3,0,0.5,0,0.8c-0.1,0-0.3,0-0.4,0c0,0.7,0,1.4,0,2.1c-0.3,0-0.6,0-0.9,0
			c0,0.4,0,0.9,0,1.3c-0.2,0-0.3,0-0.4,0c0-0.8,0-1.7,0-2.5c-0.2,0-0.3,0-0.4,0c0,0.1,0,0.2,0,0.4c-0.1,0-0.3,0-0.4,0
			c0,0.1,0,0.3,0,0.4c-0.1,0-0.3,0-0.4,0c0,0.1,0,0.3,0,0.4c-0.1,0-0.3,0-0.4,0c0-0.1,0-0.3,0-0.4c-0.1,0-0.3,0-0.4,0
			c0-2.7,0-5.4,0-8.1c0.1,0,0.3,0,0.4,0c0-1.3,0-2.5,0-3.8c-0.1,0-0.2,0-0.4,0c0-0.6,0-1.1,0-1.7c-0.2,0-0.3,0-0.4,0
			c0-0.4,0-0.8,0-1.3c-0.2,0-0.3,0-0.4,0c0-0.1,0-0.3,0-0.4C79.7,3,79.6,3,79.4,3c0-0.1,0-0.3,0-0.5c-0.2,0-0.3,0-0.4,0
			c0,0.1,0,0.3,0,0.4C79.2,3,79.3,3,79.4,3z M74.3,12.8c0-0.6,0-1.2,0-1.8c0-0.4,0-0.4-0.4-0.3c0,0.6,0,1.2,0,1.8
			C73.9,12.9,73.9,12.9,74.3,12.8z M75.1,12.4c0-0.3,0-0.6,0-0.8c-0.1,0-0.3,0-0.4,0c0,0.3,0,0.6,0,0.8C74.9,12.4,75,12.4,75.1,12.4
			z"/>
		<path fill="#AAFF47" d="M6,11.2c0,0.1,0,0.3,0,0.4c-0.3,0-0.5,0-0.8,0c0,0.3,0,0.6,0,0.9c-0.2,0-0.3,0-0.4,0c0-0.1,0-0.3,0-0.4
			c-0.1,0-0.3,0-0.4,0c0-0.1,0-0.2,0-0.4c-0.4-0.1-0.4-0.1-0.4,0.3c0,0.3,0,0.6,0,0.9c0.2,0,0.3,0,0.4,0c0,0.4,0,0.7,0,1
			c0,0.2,0,0.2,0.2,0.2c0.2,0,0.2,0.1,0.2,0.2c0,0.4,0,0.8,0,1.2c0,0.1,0,0.2,0,0.3c0.1,0,0.3,0,0.4,0c0,0.1,0,0.3,0,0.4
			c0.1,0,0.3,0,0.4,0c0,0.4,0,0.8,0,1.3c-0.1,0-0.2,0-0.4,0c0,0.1,0,0.3-0.1,0.4c0,0.1-0.2,0-0.3,0c0-0.1,0-0.3,0-0.4
			c-0.8,0-1.7,0-2.5,0c0,0,0,0,0,0c0,0.4,0,0.4-0.4,0.4c-0.1,0-0.3,0-0.4,0c0,0.1,0,0.3,0,0.4c-0.3,0-0.5,0-0.8,0c0-0.1,0-0.2,0-0.4
			c-0.1,0-0.3,0-0.4,0c0-0.1,0-0.3,0-0.4c0.1,0,0.2,0,0.4,0c0-0.1,0-0.3,0-0.4c0.1,0,0.3,0,0.4,0c0-1.4,0-2.8,0-4.3
			c0.2,0,0.3,0,0.4,0c0-0.1,0-0.3,0-0.4c0-0.5,0-1,0-1.4c0-0.2,0-0.3-0.3-0.3c0,0-0.1,0-0.1,0c-0.1-0.4-0.1-0.4,0.3-0.4
			c0.1,0,0.1-0.1,0.1-0.2c0-0.5,0-1.1,0-1.6c0-0.1,0-0.2,0-0.3c0.2,0,0.4,0,0.4-0.1c0.1-0.2,0-0.4,0-0.6c0-0.3-0.3-0.1-0.4-0.2
			c0,0,0-0.1,0-0.2c0-0.7,0-1.3,0-2c0-0.2,0-0.4-0.3-0.3c0,0-0.1,0-0.1,0c0-0.1,0-0.2,0-0.4c-0.1,0-0.3,0-0.4,0c0-0.3,0-0.5,0-0.8
			c0.3,0,0.5,0,0.8,0c0-0.2,0-0.3,0-0.4c0.4,0,0.8,0,1.3,0c0-0.2,0-0.3,0-0.4c0.4,0,0.8,0,1.2,0c0.1-0.4,0.1-0.4,0.5-0.4
			c0.4,0,0.8,0,1.2,0c0,0.3,0,0.6,0,0.8C5.4,3,5.3,3,5.1,3c0,0.3,0,0.5,0,0.8c-0.1,0-0.3,0-0.4,0c0,0.7,0,1.4,0,2.1
			C4.6,6,4.4,6,4.3,6c0,0.8,0,1.7,0,2.5c0.4,0,0.8,0,1.3,0c0-0.1,0-0.2,0-0.4c0.1,0,0.3,0,0.4,0C6,8,6,7.9,6,7.7c0.1,0,0.3,0,0.4,0
			c0-1.1,0-2.3,0-3.4c-0.1,0-0.3,0-0.4,0C6,3.8,6,3.4,6,3c0.1,0,0.3,0,0.4,0c0-0.1,0-0.3,0-0.4c0.1,0,0.3,0,0.4,0c0-0.1,0-0.3,0-0.4
			c0.6,0,1.1,0,1.7,0c0-0.2,0-0.3,0-0.4c0.3,0,0.5,0,0.8,0c-0.1,0.3,0,0.5,0.4,0.4c0,0.3,0,0.6,0,0.8C9.7,3,9.6,3,9.4,3
			c0,0.3,0,0.5,0,0.8c-0.1,0-0.3,0-0.4,0c0,0.4,0,0.8,0,1.3c0.1,0,0.3,0,0.4,0c0,0.7,0,1.4,0,2.1c-0.1,0-0.3,0-0.4,0
			c0,0.1,0,0.3,0,0.4c0.1,0,0.3,0,0.4,0c0,0.3,0,0.5,0,0.8c-0.1,0-0.3,0-0.4,0c0,1.4,0,2.8,0,4.3c0.1,0,0.3,0,0.4,0
			c0,1.1,0,2.3,0,3.4c0.2,0,0.3,0,0.4,0c0-0.1,0-0.3,0-0.4c0.2,0,0.4,0,0.6,0c0.2,0,0.3-0.1,0.3-0.3c0,0,0-0.1,0-0.1
			c0.1,0,0.3,0,0.4,0c0-1.1,0-2.3,0-3.4c0.2,0,0.3,0,0.4,0c0-1.1,0-2.3,0-3.4c0.2,0,0.3,0,0.4,0c0-0.4,0-0.8,0-1.3
			c0.1,0,0.3,0,0.4,0c0-0.8,0-1.7,0-2.5c-0.1,0-0.2,0-0.4,0c0-0.1,0-0.3,0-0.4c0.1,0,0.3,0,0.4,0c-0.1-0.3,0-0.5,0.4-0.4
			c0-0.2,0-0.3,0-0.4c0.1,0,0.3,0,0.4,0c0,0,0,0,0,0c0-0.4,0-0.4,0.4-0.4c0.1,0,0.3,0,0.4,0c0-0.2,0-0.3,0-0.4c0.1,0,0.3,0,0.4,0
			c0-0.1,0-0.3,0-0.4c0.2,0,0.5,0,0.7,0c0.4,0,0.7,0,1.1,0c0.2,0,0.3-0.1,0.3-0.3c0,0,0-0.1,0-0.1c0.1,0,0.2,0,0.4,0
			c0-0.1,0-0.3,0-0.4c0.1,0,0.3,0,0.4,0c0-0.1,0-0.3,0-0.4c0.1,0,0.3,0,0.4,0c0,0.1,0,0.3,0,0.4c0.1,0,0.2,0,0.4,0
			c0,0.4,0,0.8,0,1.3c-0.1,0-0.3,0-0.4,0c0,0.1,0,0.3,0,0.4c-0.1,0-0.3,0-0.4,0c0,0.6,0,1.1,0,1.7c0.1,0,0.2,0,0.4,0
			c0,0.7,0,1.4,0,2.1c0.2,0,0.3,0,0.4,0c0,0.6,0,1.1,0,1.7c0.2,0,0.3,0,0.4,0c0,0.1,0,0.2,0,0.3c0,0.8,0,1.6,0,2.4
			c0,0.2,0.1,0.3,0.3,0.3c0,0,0.1,0,0.1,0c0,0.4,0,0.8,0,1.2c-0.1,0-0.3,0-0.4,0c0,0.4,0,0.8,0,1.2c0,0,0,0,0,0c0.4,0,0.4,0,0.4,0.4
			c0,0.4,0,0.9,0,1.3c0.2,0,0.3,0,0.4,0c0,0.1,0,0.2,0,0.4c0,0,0,0,0,0c0.4,0.1,0.4,0.1,0.4,0.5c0,0.1,0,0.3,0,0.4
			c0.2,0,0.3,0,0.4,0c0,0.7,0,1.4,0,2.1c-0.3,0-0.5,0-0.8,0c0-0.1,0-0.3,0-0.4c-0.1,0-0.3,0-0.4,0c0-0.1,0-0.3,0-0.4
			c-0.1,0-0.3,0-0.4,0c0-0.1,0-0.3,0-0.4c-0.3,0-0.5,0-0.8,0c0-0.2,0-0.3,0-0.4c-0.3,0-0.7,0-1,0c-0.2,0-0.3,0-0.2-0.2
			c0-0.1,0-0.2-0.1-0.2c-0.3,0-0.3,0-0.3-0.4c0.1,0,0.2,0,0.4,0c0-0.2,0-0.4,0-0.6c0-0.4,0-0.8,0-1.2c0-0.2-0.1-0.3-0.3-0.3
			c0,0-0.1,0-0.1,0c0-0.1,0-0.3-0.1-0.4c0-0.1-0.2,0-0.3,0c0,0.1,0,0.3,0,0.4c-0.1,0-0.3,0-0.4,0c0-0.6,0-1.1,0-1.7
			c-0.2,0-0.3,0-0.4,0c0,0.7,0,1.4,0,2.1c-0.2,0-0.3,0-0.4,0c0-0.7,0-1.4,0-2.1c-0.2,0-0.3,0-0.4,0c0,0.3,0,0.6,0,0.8
			c0,0.3,0,0.7,0,1c0,0.2-0.1,0.3-0.3,0.3c0,0-0.1,0-0.1,0c0,1,0,2,0,3c0.1,0,0.3,0,0.4,0c0,0.1,0,0.3,0,0.4c-0.4,0-0.8,0-1.3,0
			c0-0.1,0-0.2,0-0.4c-0.3,0-0.5,0-0.4-0.4c-0.3,0-0.6,0-0.9,0c0-0.2,0-0.3,0-0.4c-0.4,0-0.8,0-1.1,0c0,0-0.1,0.1-0.1,0.2
			c0,0.4,0,0.8,0,1.2c0,0.1,0,0.2,0,0.3c-0.2,0-0.3,0-0.4,0c0,0.1,0,0.3,0,0.4c-0.1,0-0.3,0-0.4,0c0-0.1,0-0.2,0-0.4
			c-0.1,0-0.3,0-0.4,0c0-0.1,0-0.3,0-0.4c-0.1,0-0.3,0-0.4,0c0-0.1,0-0.3,0-0.4c-0.1,0-0.2,0-0.4,0c0,0.4,0,0.8,0,1.3
			c-0.2,0-0.3,0-0.4,0c0,0.1,0,0.3,0,0.4c-0.1,0-0.3,0-0.4,0c0-0.1,0-0.2,0-0.3c0-0.5,0-1.1,0-1.6c0-0.2-0.1-0.2-0.2-0.2
			c-0.2,0-0.4,0-0.6,0c0-0.1,0-0.3,0-0.4c-0.1,0-0.3,0-0.4,0c0-0.7,0-1.4,0-2.1c0.1,0,0.3,0,0.4,0c0-1.3,0-2.5,0-3.8
			C6.3,11.2,6.2,11.2,6,11.2z M15,6.8c0.1,0,0.3,0,0.5,0c0-0.2,0-0.3,0-0.4c-0.1,0-0.3,0-0.4,0C15,6.6,15,6.7,15,6.8
			c-0.1,0-0.2,0-0.4,0.1c0,0.1,0,0.3,0,0.4c0.1,0,0.3,0,0.4,0C15,7.1,15,7,15,6.8z M14.2,8.2c0,0.6,0,1.1,0,1.7c0.6,0,1.1,0,1.7,0
			c0-0.1,0-0.3,0-0.4c0.1,0,0.3,0,0.4,0c0-0.3,0-0.6,0-0.8c-0.4-0.1-0.4-0.1-0.4-0.5c0-0.1,0-0.2,0-0.3c0-0.1-0.1-0.1-0.1-0.1
			c-0.4,0-0.8,0-1.1,0c0,0.2,0,0.3,0,0.4C14.4,8.1,14.3,8.1,14.2,8.2z"/>
		<path fill="#AAFF47" d="M30.1,17.2c0-0.1,0-0.2,0-0.2c0-1.6,0-3.2,0-4.8c0-0.1,0-0.1,0-0.2c0.1,0,0.3,0,0.4,0c0-1.3,0-2.6,0-3.8
			c0.2,0,0.3,0,0.4,0c0-0.6,0-1.1,0-1.7c0,0,0,0,0,0c-0.4,0-0.4,0-0.4-0.4c0-0.5,0-1,0-1.5c0-0.1,0-0.2,0-0.3c-0.2,0-0.3,0-0.4,0
			c0-0.1,0-0.2,0-0.4c-0.3,0-0.5,0-0.8,0c0-0.3,0-0.6,0-0.9c0.1,0,0.2,0,0.4,0c0-0.1,0-0.3,0-0.4c0.4,0,0.8,0,1.3,0
			c0-0.2,0-0.3,0-0.4c0.3,0,0.6,0,0.8,0c0.4,0,0.4,0,0.5-0.4c0,0,0.1,0,0.2,0c0.6,0,1.2,0,1.8,0c0.2,0,0.2,0.1,0.2,0.2
			c0,0.2,0,0.4,0,0.6c-0.1,0-0.3,0-0.4,0c0,0.3,0,0.5,0,0.8c-0.2,0-0.3,0-0.4,0c0,1.9,0,3.7,0,5.6c-0.2,0-0.3,0-0.4,0c0,1,0,2,0,3
			c0.1,0,0.2,0,0.4,0c0,1,0,2,0,3c0.6,0,1.1,0,1.6,0c0,0,0.1-0.1,0.1-0.1c0-0.1,0-0.2,0-0.3c0.1,0,0.3,0,0.4,0c0-0.1,0-0.3,0-0.4
			c0.1,0,0.3,0,0.4,0c0-0.1,0-0.3,0-0.4c0.1,0,0.2,0,0.4,0c0-0.4,0-0.8,0-1.3c0.2,0,0.3,0,0.4,0c0-0.1,0-0.3,0-0.4
			c0.4,0,0.8,0,1.3,0c0,0.4,0,0.8,0,1.3c0.2,0,0.3,0,0.4,0c0-0.8,0-1.7,0-2.5c0.1,0,0.3,0,0.4,0c0-0.1,0-0.2,0-0.3
			c0-0.8,0-1.6,0-2.4c0-0.2,0-0.4,0.3-0.3c0,0,0.1,0,0.1,0c0-1.3,0-2.5,0-3.8c0.2,0,0.3,0,0.4,0c0-0.1,0-0.3,0-0.4
			c0.1,0,0.3,0,0.4,0c0-0.1,0-0.3,0-0.4c0.1,0,0.3,0,0.4,0c0-0.1,0-0.3,0-0.4c0.4,0,0.8,0,1.3,0c0-0.2,0-0.3,0-0.4
			c0.6,0,1.1,0,1.7,0c0,0.1,0,0.3,0,0.4c0.3,0,0.5,0,0.8,0c0,0.1,0,0.3,0,0.4c0.3,0,0.5,0,0.8,0c0,0.2,0,0.3,0,0.4
			c0.1,0,0.3,0,0.4,0c0,0.1,0,0.3,0,0.4c0.1,0,0.3,0,0.4,0c0,0.2,0,0.4,0,0.6c0,0.2,0,0.2,0.2,0.2c0.2,0,0.2,0.1,0.2,0.2
			c0,1.2,0,2.5,0,3.7c0,0.1,0,0.2,0,0.3c0.2,0,0.3,0,0.4,0c0,0.5,0,1.1,0,1.6c0,0-0.1,0.1-0.2,0.1c-0.2,0-0.2,0.1-0.2,0.3
			c0,1.2,0,2.5,0,3.7c0,0.1,0,0.2,0,0.3c-0.2,0-0.3,0-0.4,0c0,0.4,0,0.8,0,1.2c0,0-0.1,0-0.1,0c-0.4,0-0.4,0-0.4,0.4
			c0,0.6,0,1.1,0,1.7c-0.1,0-0.3,0-0.4,0c0-0.2,0-0.3,0-0.5c0-0.2,0-0.4,0-0.6c0-0.2,0-0.5,0-0.5c-0.2-0.1-0.5,0-0.7,0
			c0,0-0.1,0.1-0.1,0.2c0,0.4,0,0.8,0,1.2c0,0.1,0,0.2,0,0.3c-0.3,0-0.6,0-0.8,0c0-0.1,0-0.3,0-0.4c0.1,0,0.3,0,0.4,0
			c0-0.1,0-0.3,0-0.4c-0.3,0-0.5,0-0.4-0.4c-0.1,0-0.2,0-0.3,0c-0.8,0-1.6,0-2.4,0c-0.2,0-0.4,0-0.3-0.3c0,0,0-0.1,0-0.1
			c-0.1,0-0.3,0-0.4,0c0-0.1,0-0.3,0-0.4c-0.1,0-0.3,0-0.4,0c0-0.1,0-0.3,0-0.4c-0.1,0-0.3,0-0.4,0c0-0.1,0-0.3,0-0.4
			c-0.1,0-0.3,0-0.4,0c0-0.3,0-0.5,0-0.8c-0.2,0-0.3,0-0.4,0c0,0.3,0,0.5,0,0.8c-0.2,0-0.3,0-0.4,0c0,0.3,0,0.5,0,0.8
			c0.4,0.1,0.4,0.1,0.4,0.5c0,0.1,0,0.2,0,0.3c0.1,0,0.3,0,0.4,0c0,0.6,0,1.1,0,1.7c-0.3,0-0.5,0-0.8,0c0-0.1,0-0.3,0-0.4
			c-0.1,0-0.3,0-0.4,0c0-0.1,0-0.3,0-0.4c-0.2,0-0.4,0-0.6,0c-0.2,0-0.3-0.1-0.3-0.3c0,0,0-0.1,0-0.1c-0.1,0-0.3,0-0.4,0
			c0-0.1,0-0.3,0-0.4c-0.5,0-1.1,0-1.6,0c0,0-0.1,0.1-0.1,0.2c0,0.8,0,1.7,0,2.5c0,0.2,0,0.3-0.2,0.2c-0.1,0-0.2,0-0.2,0.2
			c0,0.1,0,0.1,0,0.2c-0.1,0-0.3,0-0.4,0c0-1.1,0-2.3,0-3.4c-0.3,0-0.6,0-0.9,0c0,0.8,0,1.7,0,2.5c-0.2,0-0.3,0-0.4,0
			c0-0.8,0-1.7,0-2.5c-0.2,0-0.3,0-0.4,0c0-0.1,0-0.3-0.1-0.4c0-0.1-0.2,0-0.3,0c0,0,0,0,0,0.1c0,0.4,0,0.4-0.4,0.4
			C31,17.2,30.5,17.2,30.1,17.2L30.1,17.2z M43.8,9.8c0-0.4,0-0.8,0-1.3c-0.1,0-0.1,0-0.1,0c-0.3,0.1-0.3-0.1-0.3-0.3
			c0-0.9,0-1.9,0-2.8c0-0.1,0-0.2,0-0.3c-0.2,0-0.3,0-0.4,0c0-0.1,0-0.3,0-0.4c-0.3,0-0.6,0-0.8,0c0,0.1,0,0.3,0,0.4
			c-0.1,0-0.3,0-0.4,0c0,2,0,4,0,6c0.1,0,0.3,0,0.4,0c0,0.1,0,0.3,0,0.4c0,0,0,0,0.1,0c0.4,0,0.9,0,1.3,0c0.2,0,0.6,0.1,0.7,0
			c0.1-0.1,0.1-0.5,0.1-0.7c0-0.3,0-0.6,0-0.9C44.1,9.9,44,9.9,43.8,9.8z M43.3,14.6c0.1,0.5,0.1,0.5,0.5,0.4c0-0.1,0-0.2,0-0.4
			c0.1,0,0.1,0,0.2,0c0.2,0,0.3-0.1,0.2-0.3c0-0.3,0-0.5,0-0.8c0-0.4,0-0.7,0-1.1c-0.7,0-1.4,0-2.1,0c0,0.3,0,0.6,0,0.8
			c0,0,0.1,0,0.1,0c0.3-0.1,0.3,0.1,0.3,0.3c0,0.2,0,0.3,0,0.5c0.2,0,0.3,0,0.4,0C42.9,14.5,43,14.7,43.3,14.6z"/>
		<path fill="#AAFF47" d="M52.4,5.6c0.3,0,0.6,0,0.9,0c0-0.2,0-0.3,0-0.4c0.4,0,0.8,0,1.3,0c0,0.3,0,0.5,0,0.8c0.2,0,0.3,0,0.4,0
			c0,1.8,0,3.7,0,5.6c0.2,0,0.3,0,0.4,0c0,0.6,0,1.1,0,1.7c0.3,0,0.5,0,0.7,0c0,0,0.1-0.1,0.1-0.1c0-0.1,0-0.1,0-0.2
			c0-1.5,0-3,0-4.5c0-0.1,0-0.2,0-0.3c0.1,0,0.3,0,0.4,0c0-0.7,0-1.4,0-2.1c0.2,0,0.3,0,0.4,0c0-0.8,0-1.7,0-2.5c0.1,0,0.3,0,0.4,0
			c0-0.1,0-0.3,0-0.4c0.1,0,0.3,0,0.4,0c0-0.1,0-0.3,0-0.4c0.3,0,0.5,0,0.8,0c0-0.2,0-0.3,0-0.4c0.1,0,0.3,0,0.4,0
			c0-0.1,0-0.3,0-0.4c0.2,0,0.4,0,0.6,0c0.2,0,0.3,0,0.3-0.3c0,0,0-0.1,0-0.2c0.3,0,0.5,0,0.8,0c0-0.2,0-0.3,0-0.4
			c0.3,0,0.5,0,0.8,0c0,0.1,0,0.3,0,0.4c0,0,0,0,0,0c0.4,0,0.4,0,0.4,0.4c0,0.3,0,0.6,0,0.9l0,0c-0.1,0-0.3,0-0.4,0
			c0,0.1,0,0.3,0,0.4c-0.1,0-0.3,0-0.4,0c0,0.1,0,0.3,0,0.4c-0.1,0-0.3,0-0.4,0c0,0.1,0,0.3,0,0.4c-0.1,0-0.3,0-0.4,0
			c0,0.3,0,0.5,0,0.8c-0.1,0-0.3,0-0.4,0c0,0.7,0,1.4,0,2.1c-0.2,0-0.3,0-0.4,0c0,0.7,0,1.4,0,2.1c-0.1,0-0.3,0-0.4,0
			c0,0.1,0,0.3,0,0.4c-0.1,0-0.3,0-0.4,0c0,0.1,0,0.3,0,0.4c-0.1,0-0.3,0-0.4,0c0,0.1,0,0.2,0,0.4c0.3,0,0.5,0,0.8,0
			c0,0.2,0,0.3,0,0.4c0.1,0,0.2,0,0.4,0c0.1,0.3,0.1,0.4-0.4,0.4c0,0.1,0,0.2,0,0.3c0,0.8,0,1.6,0,2.4c0,0.2,0,0.4-0.3,0.3
			c0,0-0.1,0-0.1,0c0,0.4,0,0.8,0,1.2c-0.2,0-0.3,0-0.4,0c0,0.3,0,0.5,0,0.8c-0.2,0-0.3,0-0.4,0c0,0.3,0,0.5,0,0.8
			c-0.3-0.1-0.5,0-0.4,0.4c-0.4,0-0.7,0-1.1,0c-0.2,0-0.2,0.1-0.2,0.2c0,0.2,0,0.4,0,0.6c-0.2,0-0.3,0-0.4,0c0,0.1,0,0.2,0,0.4
			c-0.3,0-0.5,0-0.8,0c0-0.6,0-1.1,0-1.7c0.1,0,0.2,0,0.4,0c0-0.1,0-0.3,0-0.4c-0.1,0-0.2,0-0.4,0c0-0.3,0-0.5,0-0.8
			c-0.2,0-0.3,0-0.4,0c0-0.1,0-0.3,0-0.4c-0.3,0-0.5,0-0.8,0c0,0.4,0,0.8,0,1.2c-0.4,0.1-0.4,0.1-0.4,0.5c0,0.4,0,0.4-0.4,0.4
			c-0.8,0-1.6,0-2.4,0c-0.1,0-0.2,0-0.3,0c0-0.6,0-1.1,0-1.7c-0.2,0-0.3,0-0.4,0c0-0.4,0-0.8,0-1.2c0,0-0.1,0-0.1,0
			c-0.4,0-0.4,0-0.4-0.4c0-1.2,0-2.4,0-3.6c0-0.1,0-0.2,0-0.3c-0.3,0-0.6,0-0.9,0c0-1.3,0-2.6,0-3.9c-0.2,0-0.3,0-0.4,0
			c0-0.4,0-0.8,0-1.3c0.1,0,0.3,0,0.4,0c0.1-0.4,0.1-0.4-0.4-0.4c0-0.1,0-0.2,0-0.4c-0.1,0-0.3,0-0.4,0c0-0.3,0-0.5-0.4-0.4
			c0-0.2,0-0.3,0-0.4c-0.1,0-0.3,0-0.4,0c0-0.3,0-0.5,0-0.8c0.1,0,0.3,0,0.4,0c0-0.1,0-0.2,0-0.4c1.3,0,2.5,0,3.8,0
			c0,0.7,0,1.4,0,2.1c0.1,0,0.3,0,0.4,0c0,0.1,0,0.3,0,0.4c0.1,0,0.2,0,0.4,0c0,0.1,0,0.3,0,0.4l0,0c-0.3,0-0.5,0-0.8,0
			c0,0.7,0,1.4,0,2.1c0.1,0,0.3,0,0.4,0c0,1,0,2,0,3c0.2,0,0.3,0,0.4,0c0,0.9,0,1.7,0,2.5c0.2,0,0.3,0,0.4,0c0-1.3,0-2.6,0-3.8
			c0.2,0,0.3,0,0.4,0c0-0.3,0-0.6,0-0.8c-0.1,0-0.1,0-0.1,0c-0.2,0-0.3-0.1-0.3-0.3c0-0.2,0-0.4,0-0.6c0-0.4,0-0.4,0.4-0.5
			c0-0.3,0-0.5,0-0.8c-0.1,0-0.3,0-0.4,0C52.4,5.8,52.4,5.7,52.4,5.6L52.4,5.6z"/>
		<path fill="#AAFF47" d="M62.3,2.6c0.1,0,0.2,0,0.3,0c1.2,0,2.5,0,3.7,0c0.1,0,0.2,0,0.3,0c0-0.2,0-0.3,0-0.4c1.1,0,2.3,0,3.4,0
			c0,0.1,0,0.3,0,0.4c0.1,0,0.3,0,0.4,0c0,1.4,0,2.8,0,4.3c-0.1,0-0.3,0-0.4,0c0,0.1,0,0.3,0,0.4c-0.4,0-0.8,0-1.3,0
			c0-0.1,0-0.3,0-0.4c-0.1,0-0.3,0-0.4,0c0-0.1,0-0.2,0-0.4c-0.3,0-0.5,0-0.8,0c0-0.2,0-0.3,0-0.4c-0.1,0-0.3,0-0.4,0
			c0-0.6,0-1.1,0-1.7c-0.3,0-0.6,0-0.8,0c0,0.1,0,0.3,0,0.4c0,0,0,0,0,0c-0.4,0-0.4,0-0.4,0.4c0,0.5,0,1,0,1.5c0,0.1,0,0.2,0,0.3
			c-0.2,0-0.3,0-0.4,0c0,0.3,0,0.5,0,0.8c0.1,0,0.3,0,0.4,0c0,0.1,0,0.3,0,0.4c0.3,0,0.5,0,0.8,0c0-0.1,0-0.3,0-0.4
			c0.1,0,0.3,0,0.4,0c0-0.1,0-0.3,0-0.4c0.4,0,0.8,0,1.1,0c0,0,0.1,0.1,0.1,0.2c0,0.2,0.1,0.2,0.2,0.2c0.2,0,0.2,0.1,0.2,0.2
			c0,0,0,0.1,0,0.1c0,0.4,0,0.4-0.4,0.5c0,0.1,0,0.2,0,0.3c0,0.9,0,1.9,0,2.8c0,0.2,0,0.4-0.3,0.3c0,0-0.1,0-0.1,0
			c0,0.1,0,0.2,0,0.4c-0.4,0-0.8,0-1.3,0c0,0.2,0,0.3,0,0.4c-0.1,0-0.3,0-0.4,0c0,0.1,0,0.3,0,0.4c-0.1,0-0.3,0-0.4,0
			c0,0.7,0,1.4,0,2.1c0.3,0,0.5,0,0.8,0c0-0.1,0-0.2,0-0.4c0.3,0,0.5,0,0.8,0c0-0.2,0-0.3,0-0.4c0.2,0,0.4,0,0.7,0
			c0.1,0,0.2,0,0.2-0.2c0-0.1,0-0.3,0-0.4c0-0.2,0-0.3,0.2-0.2c0.1,0,0.1,0,0.2,0c0-0.3,0-0.5,0-0.8c0.1,0,0.3,0,0.4,0
			c0-0.1,0-0.3,0-0.4c0.3,0,0.5,0,0.8,0c0,1.8,0,3.7,0,5.6c-0.3,0-0.5,0-0.8,0c0,0.2,0,0.3,0,0.4c-0.1,0-0.3,0-0.4,0
			c0-0.1,0-0.2,0-0.4c-0.4,0-0.8,0-1.3,0c0,0.6,0,1.1,0,1.7c-0.2,0-0.3,0-0.4,0c0-0.1,0-0.2,0-0.4c-0.1,0-0.3,0-0.4,0
			c0-0.6,0-1.1,0-1.7c-0.2,0-0.3,0-0.4,0c0,0.3,0,0.6,0,0.9c0,0.4,0,0.4-0.4,0.3c0-0.4,0-0.8,0-1.2c-0.6,0-1.1,0-1.7,0
			c0-0.2,0-0.3,0-0.4c-0.4,0-0.8,0-1.3,0c0.1-0.3-0.1-0.5-0.4-0.4c0-1.4,0-2.9,0-4.3c-0.2,0-0.3,0-0.4,0c0-0.8,0-1.7,0-2.5
			c0.1,0,0.2,0,0.4,0c0-0.1,0-0.1,0-0.2C62.3,7.3,62.3,5,62.3,2.6C62.3,2.6,62.3,2.6,62.3,2.6C62.3,2.6,62.3,2.6,62.3,2.6z
			 M65.3,11.6c-0.1,0-0.3,0-0.4,0c0,0.2,0,0.4,0,0.6c0,0.2,0,0.4,0,0.6c0.2,0,0.3,0,0.4,0C65.3,12.4,65.3,12,65.3,11.6
			c0.4-0.1,0.4-0.1,0.4-0.5c0-0.1,0-0.1,0-0.2c0-0.2-0.1-0.2-0.2-0.2c-0.1,0-0.2,0-0.2,0.2C65.3,11.1,65.3,11.4,65.3,11.6z"/>
		<path fill="#AAFF47" d="M30.1,17.2c0,0.2,0,0.4,0,0.6c0,0.2,0,0.4,0,0.6c0,0,0,0,0,0.1c-0.1,0-0.2,0-0.4,0c0,0.1,0,0.3,0,0.4
			c-0.3,0-0.5,0-0.8,0c0-0.1,0-0.3,0-0.4c-0.1,0-0.3,0-0.4,0c0-0.1,0-0.3,0-0.4c-0.3,0.1-0.5,0-0.4-0.4c-0.2,0-0.3,0-0.4,0
			c0-0.1,0-0.3,0-0.4c-0.6,0-1.1,0-1.7,0c0.1,0.3-0.1,0.5-0.4,0.4c0,0.9,0,1.7,0,2.6c-0.2,0-0.3,0-0.4,0c0-1,0-2,0-3
			c-0.3,0-0.6,0-0.9,0c0,0.7,0,1.4,0,2.1c-0.3,0-0.6,0-0.9,0c0-0.2,0-0.4,0-0.6c0-0.5,0-1.1,0-1.6c0-0.4,0-0.4-0.4-0.3c0,0,0,0,0,0
			c0,0.4,0,0.4-0.4,0.4c-0.4,0-0.9,0-1.3,0c0-0.1,0-0.3,0-0.4c-0.1,0-0.2,0-0.4,0c0-0.4,0-0.8,0-1.3c0.1,0,0.3,0,0.4,0
			c0-0.3,0-0.5,0-0.8c-0.1,0-0.3,0-0.4,0c0-0.7,0-1.4,0-2.1c0.1,0,0.3,0,0.4,0c0-0.3,0-0.5,0-0.8c0.2,0,0.3,0,0.4,0
			c0-0.4,0-0.8,0-1.3c-0.1,0-0.2,0-0.4,0c0-0.4,0-0.8,0-1.3c0.1,0,0.3,0,0.4,0c0-1.3,0-2.5,0-3.8c-0.1,0-0.3,0-0.4,0
			c0-0.4,0-0.8,0-1.3c-0.3,0-0.6,0-0.8,0c0-0.3,0-0.6,0-0.8c0.1,0,0.2,0,0.4,0c0-0.1,0-0.3,0-0.4c0.3,0,0.5,0,0.8,0
			c0-0.2,0-0.3,0-0.4c0.4,0,0.8,0,1.2,0c0.4,0,0.4,0,0.5-0.4c0.7,0,1.4,0,2.1,0c0,0.1,0,0.3,0,0.4c-0.1,0-0.2,0-0.4,0
			c0,0.1,0,0.3,0,0.4c-0.1,0-0.3,0-0.4,0c0,0.8,0,1.7,0,2.5c-0.1,0-0.3,0-0.4,0c0,1.7,0,3.4,0,5.1c-0.2,0-0.3,0-0.4,0
			c0,0.3,0,0.5,0,0.8c0.1,0,0.3,0,0.4,0c0,1.1,0,2.3,0,3.4c0.2,0,0.3,0,0.4,0C24.5,15,24.5,15,25,15c0.2,0,0.5,0,0.7,0
			c0,0,0,0,0.1,0c0-0.1,0-0.2,0-0.4c0.3,0,0.5,0,0.8,0c0-0.1,0-0.3,0-0.4c0.1,0,0.3,0,0.4,0c0-0.3,0-0.6,0-1c0-0.2,0.1-0.3,0.3-0.3
			c0,0,0.1,0,0.1,0c0-0.3,0-0.5,0-0.8c0.4,0,0.8,0,1.3,0c0,0.1,0,0.3,0,0.4c0.1,0,0.3,0,0.4,0c0,1.4,0,2.8,0,4.3c0.1,0,0.3,0,0.4,0
			c0,0.1,0,0.3,0,0.4C29.8,17.2,30,17.2,30.1,17.2C30.1,17.2,30.1,17.2,30.1,17.2z"/>
	</g>
</g>
</svg>
