<?xml version="1.0" encoding="utf-8"?>
<!-- Generator: Adobe Illustrator 28.7.1, SVG Export Plug-In . SVG Version: 9.03 Build 54978)  -->
<svg version="1.1" baseProfile="tiny" id="Layer_1" xmlns="http://www.w3.org/2000/svg" xmlns:xlink="http://www.w3.org/1999/xlink"
	 x="0px" y="0px" viewBox="0 0 413.1 117.9" overflow="visible" xml:space="preserve">
<g>
	<path fill="#AA7BFF" d="M183.9,69.8c0.2,0.1,0.4,0.1,0.7,0.2c0,0.8,0,1.5,0,2.3c-0.2,0.1-0.5,0.1-0.8,0.2c0,0.5,0,1,0,1.5
		c-0.3,0.1-0.5,0.1-0.9,0.2c0,0.7,0,1.5,0,2.4c-0.8-0.1-0.9,0.4-0.9,0.9c0,3.3,0,6.6,0,10c0.3,0.1,0.5,0.1,0.8,0.2
		c0,1.1,0,2.1,0,3.3c-0.5,0-1,0-1.3,0c-0.4-0.4-0.6-0.7-0.9-1c-0.1,0-0.1,0.1-0.2,0.1c0-0.8,0-1.5,0-2.4c0.2-0.1,0.5-0.1,0.7-0.2
		c0-4.1,0-8.3,0-12.5c-0.5,0-1,0-1.5,0c-0.1,0.2-0.1,0.4-0.2,0.8c-1.4-0.3-1.9,0.7-2.7,1.7c0,0-0.3,0-0.5,0.1c0,0,0.1,0.1,0.1,0.1
		c-0.5,0.5-1.1,1.1-1.7,1.8c-0.1-0.5-0.2-0.8-0.2-1c0,0-0.1,0.1-0.1,0.1c-0.2-0.2-0.4-0.5-0.6-0.7c-0.2-0.2-0.5-0.4-0.8-0.6
		c0-0.6,0-1.3,0-2.1c0.2-0.1,0.5-0.1,0.8-0.2c0-0.5,0-0.9,0-1.5c0.3-0.1,0.5-0.1,0.8-0.2c0-0.5,0-0.9,0-1.5c0.3-0.1,0.5-0.1,0.9-0.2
		c0-0.5,0-0.9,0-1.5c0.8,0,0.9-0.4,0.9-1.1c-0.1-0.8,0-1.5,0-2.3c0-0.6,0-1.1,0.8-1.1c0-1.3,0-2.5,0-3.6c0-0.2-0.4-0.5-0.6-0.7
		c-0.1,0-0.1,0.1-0.2,0.1c0-3.6,0-7.2,0-10.8c-0.6,0-1.1,0-1.6,0c0-2.3,0-4.4,0-6.6c-0.3-0.1-0.6-0.2-0.9-0.2c0-0.7,0-1.5,0-2.1
		c-0.6-0.5-1.1-0.9-1.7-1.5c0-0.3,0-0.8-0.1-1.1c-0.3-0.3-0.6-0.6-0.8-0.8c0.2-0.2,0.5-0.4,0.8-0.7c0-0.3,0-0.8,0.1-1.4
		c0.8,0,1.6,0,2.4,0c0,0.2,0.1,0.5,0.2,0.8c0.5,0,1,0,1.5,0.1c0.1,0.3,0.1,0.5,0.2,0.8c0.8,0,1.5,0,2.1,0c0.5,0.6,0.9,1,1.4,1.7
		c0.3,0,0.7,0,1,0c0.4,0.4,0.7,0.8,0.9,1.1c0.3,0.3,0.3,0.9,1.1,0.6c0,0.6,0,1.1,0,1.6c0.1,0,0.2-0.1,0.2-0.1
		c0.2,0.3,0.4,0.7,0.7,0.9c0.5,0.4,1,0.8,1.6,1.3c0,0.3,0,0.8,0.1,1.4c1.4,0,0.6,1.1,0.9,1.7c0.2,0.1,0.4,0.1,0.7,0.2
		c0,2.5,0,4.9,0,7.4c0.3,0.1,0.5,0.1,0.8,0.2c0,1.2,0,2.3,0,3.4c0,0.6,0.2,0.8,0.8,0.6c0-1.6,0-3.2,0-4.8c0.3-0.1,0.6-0.2,0.8-0.2
		c0-0.7,0-1.5,0-2.3c0.3-0.1,0.5-0.1,0.8-0.2c0-0.5,0-1,0.1-1.5c0.3-0.1,0.5-0.1,0.8-0.2c0-1.9,0-3.8,0-5.7c0.3-0.1,0.5-0.1,0.8-0.2
		c0-1.3,0-2.7,0-4.1c0.6,0,1,0,1.6,0c0.1-0.3,0.1-0.5,0.2-0.9c0.8,0,1.5,0,2.3,0c0.1-0.3,0.1-0.6,0.2-0.9c0.8,0,1.5,0,2.3,0
		c0-0.8,0.4-0.9,1.1-0.8c0.2,0,0.5,0,0.7,0c0.6,0.1,1-0.1,0.9-0.8c0.8,0,1.6,0,2.4,0c0.1-0.3,0.1-0.6,0.2-0.8c0.8,0,1.5,0,2.4,0
		c0.1,0.2,0.1,0.5,0.2,0.8c0.5,0,0.9,0,1.5,0c0,1.4,1,0.7,1.7,0.9c0.1,0.2,0.1,0.5,0.2,0.7c0.5,0,1,0.1,1.5,0.1
		c0,0.1-0.1,0.1-0.1,0.2c0.3,0.2,0.6,0.4,0.8,0.6c0.2,0.2,0.2,0.5,0.5,0.6c0.3,0.3,0.5,0.6,0.8,0.8c0,0-0.1,0.1-0.1,0.1
		c0.2,0,0.4,0.1,0.7,0.1c0,0-0.1,0.1-0.1,0.1c0.6,0.6,1.1,1.1,1.7,1.7c0,0,0,0,0,0c0.3,0.3,0.6,0.5,1,1c0,0.2,0,0.7,0,1.2
		c1.4,0,0.7,1,1,1.7c0.2,0,0.4,0.1,0.6,0.1c0.6,0.8-0.6,2.1,1,2.6c0,2.4,0,4.9,0,7.3c0.1,0,0.2-0.1,0.3-0.1c0.2,0.3,0.4,0.6,0.6,0.8
		c0.2,0.2,0.5,0.2,0.8,0.3c0-1.5,0-2.8,0-4.2c0.3-0.1,0.5-0.1,0.9-0.2c0-0.8,0-1.5,0-2.4c0.3-0.1,0.6-0.1,0.9-0.1c0-0.5,0-1,0-1.5
		c0.3-0.1,0.5-0.1,0.9-0.2c0-1.9,0-3.8,0-5.7c0.8,0,0.9-0.4,0.8-1c0-0.8,0-1.6,0-2.4c0.6,0,1.1,0,1.6,0c0.1-0.3,0.1-0.5,0.2-0.8
		c0.5-0.4,1.7,0.5,1.7-0.9c0.8,0,1.5,0,2.3,0c0.4-1.7,1.8-0.4,2.7-1.1c0-0.1,0.1-0.4,0.1-0.6c1.1,0,2.1,0,3.2,0c0,0.8,0,1.6,0,2.4
		c-0.5,0-1,0.1-1.5,0.1c0,0.5-0.1,1-0.1,1.6c-0.2,0-0.5,0.1-0.8,0.1c0,1.6,0,3.2,0,4.9c-0.3,0.1-0.5,0.1-0.9,0.2c0,0.8,0,1.5,0,2.3
		c-0.3,0.1-0.6,0.1-0.8,0.2c0,0.8,0,1.5,0,2.3c0.2,0.1,0.5,0.1,0.8,0.2c0,2.7,0,5.5,0,8.3c-0.3,0.1-0.5,0.1-0.8,0.2
		c0,0.8,0,1.5,0,2.3c0.2,0.1,0.5,0.1,0.8,0.2c0,0.8,0,1.5,0,2.3c0.3,0.1,0.6,0.1,0.9,0.2c0,1.6,0,3.2,0,4.9c0.9,0,1.6,0,2.5,0
		c0-0.5,0-1,0-1.5c0.3-0.1,0.5-0.1,0.8-0.2c0-2.7,0-5.4,0-8.2c0.3-0.1,0.6-0.2,0.9-0.3c0-2.4,0-4.9,0-7.4c0.3-0.1,0.5-0.1,0.7-0.2
		c0.4-0.5-0.5-1.7,1-1.7c0-1.8,0-3.6,0-5.4c0-0.2-0.4-0.4-0.8-0.7c0-0.3,0-0.7,0-1.3c1.3,0,0.6-1.1,1-1.6c0.3-0.3,0.6-0.6,1-1
		c0.5,0,1.3,0,1.8,0c0.9-0.9,1.6-1.6,2.4-2.5c0.2,0,0.7,0,1.2-0.1c0.1-1.3,1-0.7,1.7-0.8c0.1,0.3,0.1,0.5,0.2,0.8
		c0.2,0,0.4,0,0.6,0.1c0.4,0,0.9-0.2,1.1,0.6c0.1,0.4,0.8,0.7,1.3,1.1c0.1,0.1,0.2,0.2,0.3,0.3c0.2,0.2,0.4,0.5,0.6,0.8
		c0.1,0,0.1-0.1,0.2-0.1c0,1,0,2.1,0,3.1c0.3,0.1,0.5,0.1,0.8,0.2c0,1.6,0,3.2,0,4.8c0.3,0.1,0.6,0.1,0.8,0.2c0,0.5,0,0.9,0,1.5
		c0.3,0.1,0.5,0.1,0.9,0.2c0,1.6,0,3.2,0,4.9c0.9,0,0.9,0.5,0.9,1.1c0,1,0,2,0,3.1c0.3,0.1,0.5,0.1,0.8,0.2c0,0.5,0,1,0,1.5
		c-0.8,0-0.8,0.5-0.8,1.1c0,1.6,0,3.2,0,4.8c0,0.6,0,1.1,0.8,1c0.2,1.6,0.2,1.6,0.9,1.7c0,0.5,0,0.9,0,1.2c0.6,0.5,1.1,1,1.7,1.5
		c0,0.3,0,0.8,0,1.3c0.3,0.1,0.5,0.1,0.8,0.2c0,0.8,0,1.5,0,2.1c0.4,0.3,0.7,0.6,0.9,0.8c-0.7,0.6-1.1,1-1.8,1.5c0,1.5,0,3.2,0,4.9
		c0,0.6-0.1,0.8-0.8,0.6c0-1.9,0-3.8,0-5.8c-0.6,0-1.1-0.1-1.3-0.1c-0.4-0.4-0.7-0.7-1.2-1.2c0-0.3,0-0.7-0.1-1.3
		c-0.5,0-1,0-1.6-0.1c0-0.7-0.4-0.9-1.1-0.8c-0.7,0.1-1.5,0-2.1,0c-0.5-0.6-0.9-1.1-1.3-1.5c0,0,0,0,0,0c-0.2-0.3-0.5-0.5-0.9-0.9
		c0.6-0.1,0.8-0.1,1.1-0.2c0-0.5,0-1,0-1.3c0.3-0.3,0.6-0.5,0.8-0.7c-0.2-0.2-0.4-0.4-0.8-0.8c0-2.2,0-4.7,0-7.2c-0.3,0-0.5,0-0.5,0
		c-0.4,0.4-0.7,0.7-1.2,1.2c0,0.7,0,1.8,0,2.9c-0.3,0.1-0.5,0.1-0.8,0.2c0,1,0,2.1,0,3.2c-0.7,0.3-0.9,0-0.9-0.6c0-1.7,0-3.4,0-4.8
		c-0.5-0.5-0.8-0.8-1.2-1.2c-0.3,0-0.8,0-1.3,0c0,1.9,0,3.8,0,5.7c-0.3,0.1-0.6,0.2-0.9,0.3c0,1.6,0,3.2,0,4.8
		c0.2,0.1,0.5,0.1,0.8,0.2c0,1.1,0,2.1,0,3.2c-0.8,0-1.6,0-2.2,0c-0.8-0.8-1.5-1.6-2.4-2.4c-0.3,0-0.7,0-1.3,0c0,1.9,0,3.8,0,5.8
		c-0.6,0-1.1,0.1-1.7,0.1c0,1.4,0,2.7,0,4.1c-0.6,0-1.1,0-1.7,0c0-3.1,0-6.1,0-9.2c-0.6,0-1.1,0-1.4-0.1c-0.5-0.6-0.9-1-1.4-1.6
		c-0.3,0-0.8,0-1.3,0c-0.1,0.2-0.1,0.5-0.2,0.8c-0.5,0-0.9,0-1.4,0c-0.1,1.3-1,0.8-1.5,0.8c-0.4-0.4-0.7-0.7-0.9-1
		c-0.1,0-0.1,0.1-0.2,0.1c0-2.2,0-4.3,0-6.6c-0.8,0.1-0.9-0.4-0.9-1c0.1-1,0-2.1,0-3.2c0.3-0.1,0.5-0.1,0.8-0.2c0-1.1,0-2.1,0-3.2
		c-0.7-0.1-0.7-0.1-0.8,1.5c-0.2,0.1-0.5,0.1-0.8,0.2c0,0.7,0,1.5,0,2.3c-0.9,0-0.9,0.6-0.9,1.3c0,0.5,0,1,0,1.5
		c0.1,0.6-0.2,0.9-0.8,0.8c0,1.4,0,2.7,0,3.9c-0.6,0.5-1.1,0.9-1.7,1.5c-0.1,0.1-0.2,0.3-0.4,0.6c-0.2-0.2-0.4-0.4-0.5-0.6
		c-0.1-0.1-0.2-0.2-0.3-0.3c-0.3-0.2-0.5-0.4-0.8-0.6c0-0.1,0.1-0.1,0.1-0.2c-0.2,0-0.4-0.1-0.6-0.1c-0.6-0.8,0.6-2.1-1-2.6
		c0-0.7,0-1.5,0-2.3c-0.3-0.1-0.6-0.1-0.9-0.1c0-0.5,0-1,0-1.5c-0.3-0.1-0.5-0.1-0.9-0.2c0-1.6,0-3.2,0-4.9
		c-0.6-0.2-0.9-0.1-0.8,0.6c0,1.7,0,3.4,0,5.2c-0.3,0-0.5,0.1-0.8,0.1c0,0.8,0,1.5,0,2.2c0.4,0.3,0.7,0.6,1,0.9c0,0,0,0,0,0.1
		c0.5,0.4,0.9,0.8,1.5,1.4c0,0.3,0,0.8,0,1.1c-0.4,0.4-0.7,0.7-1,1c0,0.1,0.1,0.1,0.1,0.2c-0.5,0-1,0-1.5,0
		c-0.1,0.3-0.1,0.5-0.2,0.8c-0.5,0-0.9,0-1.4,0.1c0,1.2-1,0.7-1.7,0.9c-0.1,0.2-0.1,0.4-0.2,0.7c0,0-0.1-0.1-0.1-0.1
		c-0.6,0.6-1.1,1.1-1.7,1.7c0,0,0,0,0,0c-0.4,0.4-0.9,0.8-1.5,1.3c0,3.3,0,6.9,0,10.6c-0.6,0-1.1,0-1.6,0c0-0.8,0-1.6,0-2.4
		c0.2-0.1,0.5-0.1,0.8-0.2c0-1.6,0-3.2,0-4.8c-0.2-0.1-0.5-0.1-0.8-0.2c0-1.1,0-2.1,0-3.2c-0.3,0-0.5-0.1-0.8-0.1c0-1.4,0-2.7,0-4.1
		c0.3-0.1,0.5-0.1,0.8-0.2c0-0.5,0-1,0-1.5c0.3-0.1,0.5-0.1,0.8-0.1c0-0.5,0-1,0.1-1.5c0.3-0.1,0.5-0.1,0.8-0.2c0-0.8,0-1.5,0-2.3
		c0.8,0,0.9-0.4,0.9-1.1c0-3,0-6,0-9c-0.8,0-0.9-0.5-0.8-1.2c0-2.7,0-5.3,0-8c0-0.3,0-0.6,0-1c-0.3-0.1-0.6-0.1-0.8-0.2
		c0-0.5,0-1,0-1.5c-0.3-0.1-0.5-0.2-0.9-0.2c0-1.3,0-2.7,0-4c-0.6,0-1.1-0.1-0.8-0.8c-0.3,0-0.5-0.1-0.8-0.1c0-0.5-0.1-1-0.1-1.5
		c-0.1-0.1-0.1-0.1-0.2-0.2c-0.3,0.2-0.5,0.5-0.9,0.9c-0.4,0-0.5,0.3-0.5,0.9c0,0.5,0,1.1,0,1.7c0,0.5,0,1.1-0.8,0.9
		c0,0.9,0,1.8,0,2.6c0,0.7,0,0.7-0.8,0.8c0,4.7,0,9.4,0,14.2c0.2,0,0.5,0.1,0.8,0.1c0,2.2,0,4.4,0,6.6c0.3,0.1,0.5,0.1,0.8,0.2
		c0,0.8,0,1.5,0,2.1c0.6,0.5,1,0.9,1.6,1.5c0,0.8,0,1.9,0,2.8c-0.4,0.3-0.7,0.6-1,0.9c0,0.1,0.1,0.1,0.1,0.2c-0.5,0-0.9,0-1.3,0
		c-0.5-0.5-0.9-1-1.4-1.6c-0.6,0.3-1.8-0.8-2.4,0.8c-0.4,0-0.9,0-1.4,0c-0.1,1.2-1,0.8-1.5,0.8c-0.4-0.4-0.6-0.7-0.9-1
		c-0.1,0-0.1,0.1-0.2,0.1c0-2.5,0-4.9,0-7.4c-0.3-0.1-0.5-0.1-0.9-0.2c0-0.5,0-1.1,0-1.6c0-0.6,0.1-1,0.8-0.9c0-1.1,0-2.2,0-3.6
		c-0.4,0.3-0.7,0.5-0.8,0.7c-0.1,0.3,0,0.7,0,1.1c-0.3,0.1-0.5,0.1-0.8,0.2c0,0.8,0,1.5,0,2.3c-0.3,0.1-0.5,0.1-0.8,0.2
		c0,1.1,0,2.1,0,3.2c-0.3,0.1-0.6,0.1-0.9,0.2c0,1.3,0,2.6,0,3.7c-0.4,0.4-0.8,0.7-1.3,1.2c-0.1-0.1-0.4-0.4-0.6-0.6
		c0-0.1,0.1-0.1,0.1-0.2c-0.5,0-1-0.1-1.5-0.1c-0.4-0.6,0.4-1.7-1-1.7c0-1.1,0-2.1,0-3c-0.6-0.5-1-0.9-1.5-1.3
		c-0.1,0-0.1,0.1-0.2,0.1c0-0.4,0.1-0.8,0-1.1c-0.1-0.3-0.4-0.5-0.6-0.7c-0.1,0-0.2,0.1-0.2,0.1c0-2.5,0-4.9,0-7.4
		c-0.5-0.2-0.9-0.2-0.9,0.5c0,3.4,0,6.8,0,10c0.4,0.4,0.7,0.6,1,0.9C183.9,69.7,183.9,69.8,183.9,69.8z M248.6,56.4
		c0-1.4,0-2.7,0-4.1c-0.3,0-0.5-0.1-0.8-0.1c0-0.6-0.1-1.1-0.1-1.5c-0.3-0.1-0.6-0.1-0.8-0.2c0-0.5,0-1,0-1.3
		c-0.3-0.3-0.6-0.5-0.8-0.6c-0.2-0.2-0.4-0.4-0.6-0.5c-0.1,0.1-0.2,0.1-0.2,0.2c0,0.8,0,1.5,0,2.3c-0.4,0.1-0.8,0.3-0.8,0.5
		c0,1.8,0,3.6,0,5.4C245.9,56.4,247.2,56.4,248.6,56.4z M236,75.9c-0.6-0.2-0.8-0.1-0.8,0.5c0,1,0,2,0,3c0,0.6,0.2,0.8,0.8,0.6
		C236,78.6,236,77.3,236,75.9z M214.9,56.3c-0.3,0.1-0.7,0.2-0.7,0.3c0,0.7,0,1.5,0,2.2c0,0.1,0.4,0.1,0.7,0.1
		C214.9,58.1,214.9,57.3,214.9,56.3z"/>
	<path fill="#AA7BFF" d="M74.1,47.2c-0.3,0-0.5-0.1-0.8-0.1c0-0.5,0-1,0-1.5c-0.3-0.1-0.5-0.1-0.8-0.2c0-1.3,0-2.6,0-4
		c-0.1,0-0.2,0.1-0.2,0.1c-0.2-0.3-0.4-0.7-0.7-0.9c-0.5-0.2-0.8-0.5-1-1c-0.2,0.1-0.6,0.2-0.6,0.4c-0.1,0.4,0,0.9,0,1.3
		c0,2.5,0,4.9,0,7.2c-0.4,0.4-0.7,0.6-1,0.9c0,0.1,0.1,0.1,0.1,0.2c-1,0-2.1,0-3,0c-0.4-0.5-0.9-1-1.4-1.6c-0.6,0-1.4,0-2.1,0
		c0-0.1,0.1-0.1,0.1-0.2c-0.3-0.3-0.6-0.6-1-1c0-0.8,0-1.8,0-2.9c0.3-0.2,1.1-0.1,0.7-0.9c-0.7,0-1.5,0-1.9,0
		c-0.5,0.4-0.8,0.6-1.1,0.8C59,43.9,59,44.2,59,44.4c0,0.7,0,1.3,0,2c0,0.6-0.1,1-0.8,0.7c0,1.4,0,2.7,0,4.1
		c0.4,0.1,1.1,0.1,0.7,1.1c0.1,0,0.2,0,0.4,0c0.3-0.3,0.5-0.5,0.8-0.8c0-0.1-0.1-0.1-0.1-0.2c0.5,0,1,0,1.5,0
		c0.1-0.5,0.1-1.1,0.6-0.9c0.5-0.6,0.9-1,1.5-1.6c0.1,0,0.3,0.1,0.5,0.3c0.2,0.2,0.4,0.5,0.6,0.8c0.1,0,0.1-0.1,0.2-0.1
		c0,3.6,0,7.1,0,10.7c-1.3,0-0.6,1.1-0.9,1.7c-1,0-2.1,0-3.3,0c0-0.5-0.1-1-0.1-1.5c-0.3-0.1-0.5-0.1-0.8-0.2c0-0.8,0-1.5,0-2.3
		c-0.9,0-1.6,0-2.5,0c0,3.6,0,7.2,0,10.8c1.4,0,2.7,0,4.1,0c0.1-0.2,0.1-0.5,0.2-0.8c0.5,0,1,0,1.5,0c0.1-0.3,0.1-0.5,0.2-0.8
		c0.1,0,0.1,0.1,0.2,0.1c0.2-0.3,0.4-0.6,0.6-0.8c0.2-0.2,0.5-0.2,0.8-0.4c0-0.4,0.1-0.9,0.1-1.4c0.2-0.1,0.5-0.1,0.8-0.2
		c0-0.5,0-0.9,0-1.2c0.5-0.4,0.8-0.7,1.1-1c0-0.1-0.1-0.1-0.1-0.2c0.8,0,1.5,0,2.4,0c0,4.4,0,8.9,0,13.4c-0.5,0-1,0.1-1.6,0.1
		c0,1.1,0,2.1,0,3.3c0.2,0,0.5,0.1,0.7,0.2c0,0.5,0,1,0,1.5c-0.5,0-1,0-1.6,0c0-1.4,0-2.7,0-4c-0.5-0.2-0.9-0.2-0.9,0.4
		c0,2,0,4.1,0,6.1c0.3,0.1,0.5,0.1,0.8,0.1c0,0.5,0,1,0,1.5c-0.1,0-0.1-0.1-0.2-0.1c-0.2,0.3-0.4,0.6-0.7,0.8
		c-0.2,0.1-0.6,0.1-0.7,0c-0.3-0.2-0.4-0.5-0.6-0.8c-0.1,0-0.1,0.1-0.2,0.1c0-1.3,0-2.7,0-4c0.2-0.1,0.5-0.1,0.8-0.2
		c0-1.1,0-2.1,0-3c-0.6-0.5-1-0.9-1.5-1.3c0,0-0.1,0.1-0.1,0.1c0-0.2-0.1-0.4-0.1-0.4c-0.5-0.4-0.8-0.7-1.2-1.2c-1.7,0-3.6,0-5.6,0
		c-0.6,0-0.9-0.1-0.8-0.8c-0.5,0-1,0-1.5,0c-0.1-0.3-0.1-0.5-0.2-0.9c-0.8,0-1.5,0-2.1,0c-0.4-0.5-0.7-0.8-1-1.1
		c-0.1,0-0.1,0.1-0.2,0.1c0-3,0-6,0-9.1c-0.8,0.1-0.9-0.4-0.9-1c0-2.1,0-4.3,0-6.5c0.3-0.1,0.5-0.2,0.8-0.3c0-5.5,0-11,0-16.4
		c0.4-0.4,0.7-0.6,1.1-0.9c1.2-0.5,1.4-0.4,1.6,0.5c1.7,0,3.5,0,5.3,0c0.2,0,0.5-0.4,0.7-0.6c0-0.1-0.1-0.1-0.1-0.2
		c3.6,0,7.1,0,10.8,0c0-0.6,0.1-1.1,0.1-1.6c0.5-0.1,1-0.2,0.8-0.9c0.6,0,1.1,0,1.6,0c0,0.2,0.1,0.5,0.1,0.5c0.4,0.4,0.7,0.6,1,0.9
		c0.4,0.6,1.6-0.4,1.5,1.1c0.5,0,1,0.1,1.6,0.1c-0.1,0.8,0.4,0.8,1,0.8c0.5,0,1,0,1.5,0c0.6,0,1.2-0.1,1,0.8c0.6,0,1,0,1.3,0
		c0.4,0.4,0.6,0.7,0.9,1c0.1-0.1,0.1-0.1,0.2-0.2c0,0.6,0.1,1,0.9,0.8c0,0.6,0,1.1,0,1.6c0.3,0.1,0.5,0.1,0.8,0.2c0,0.5,0,1,0,1.5
		c0.3,0.1,0.5,0.1,0.8,0.2c0,0.8,0,1.5,0,2.3c0.3,0.1,0.5,0.1,0.9,0.2c0,0.7,0,1.5,0,2.3c0.8,0.3,0.8-0.1,0.8-0.6c0-3,0-6,0-9.1
		c0-0.3,0-0.6,0-1c0.9-0.2,1.2-1.7,2.4-0.9c0.2-0.6,0.1-1.3,0.7-1c0.5-0.6,0.9-1,1.5-1.6c0,0,0.2,0,0.5-0.1c0-0.2,0-0.4,0-0.6
		c0-0.5-0.2-1,0.6-1.1c0.1,0,0.2-0.5,0.4-0.7c0.8,0,1.5,0,2.3,0c0,1.6,0,3.2,0,4.9c-0.2,0.1-0.5,0.1-0.8,0.2c0,0.8,0,1.5,0,2.4
		c-0.8-0.1-0.9,0.3-0.9,0.9c0.1,0.5,0,1,0,1.6C93.2,42.9,93,43,92.7,43c0,0.5,0,1,0,1.5c0.2,0.1,0.5,0.1,0.8,0.2c0,3.3,0,6.6,0,10
		c-0.2,0.1-0.5,0.1-0.8,0.2c0,3.9,0,7.7,0,11.6c0.3,0.1,0.5,0.1,0.8,0.2c0,1.6,0,3.3,0,4.9c0.1,0.1,0.2,0.1,0.2,0.2
		c0.2-0.2,0.4-0.4,0.6-0.5c0.1-0.1,0.2-0.3,0.3-0.4c0.2-0.2,0.5-0.4,0.8-0.6c0-0.1-0.1-0.1-0.1-0.2c0.5,0,1-0.1,1.5-0.1
		c0-0.5,0.1-1,0.1-1.5c0.8,0,0.8-0.5,0.8-1.1c0-2.7,0-5.4,0-8.1c0.3-0.1,0.5-0.1,0.8-0.2c0-2.2,0-4.4,0-6.6c0.3-0.1,0.5-0.1,0.8-0.2
		c0-0.8,0-1.5,0-2.3c0.3-0.1,0.6-0.2,0.9-0.3c0-0.8,0-1.5,0-2.3c0.8,0.1,0.9-0.4,0.9-1c-0.1-1,0-2.1,0-3.2c1.3,0,0.6-1.1,1-1.6
		c0.4-0.4,0.9-0.8,1.3-1.2c0.3-0.3,0.2-1,1-0.7c0-0.3,0.1-0.5,0.1-0.8c0,0,0.1,0.1,0.1,0.1c0.3-0.3,0.6-0.6,0.9-0.9
		c0.4-0.4,1.5,0.4,1.5-0.9c0.5,0,1,0,1.5,0c0,1.3,1.1,0.6,1.6,1c0.6,0.6,1.1,1.2,1.7,1.7c0.1,0,0.1-0.1,0.2-0.1c0,0.5,0.1,1,0.1,1.5
		c0.2,0.1,0.5,0.1,0.7,0.2c0.3,2.3,0.3,2.4,0.9,2.6c0,1.3,0,2.7,0,4.1c0,0.6,0.1,1,0.8,0.9c0,0.8,0,1.6,0,2.4
		c0.3,0.1,0.6,0.1,0.9,0.1c0,1.7,0,3.3,0,4.9c0.3,0,0.5,0.1,0.8,0.1c0,3.9,0,7.8,0,11.6c0.3,0.1,0.5,0.1,0.8,0.2
		c0,0.5,0.1,1,0.1,1.5c0.3,0.1,0.5,0.1,0.8,0.2c0,0.5,0,1,0.1,1.5c0.2,0.1,0.5,0.1,0.8,0.2c0,0.5,0,1,0.1,1.5c0.3,0,0.5,0.1,0.8,0.1
		c0,0.1-0.1,0.1-0.1,0.2c0.3,0.3,0.5,0.5,1,1c0,1,0,2.3,0,3.7c-0.2,0.1-0.5,0.1-0.8,0.2c0,1.9,0,3.8,0,5.7c-0.8,0.2-0.8,0.2-0.9-0.4
		c-0.4-0.3-0.6-0.5-0.8-0.7c0.2-0.2,0.4-0.4,0.8-0.7c0-1.1,0-2.5,0-3.9c-0.5,0-1-0.1-1.3-0.1c-0.4-0.4-0.7-0.7-0.9-1
		c0,0,0,0-0.1,0.1c-0.3-0.3-0.5-0.6-0.8-0.9c-0.1,0-0.1,0.1-0.2,0.1c0-0.2-0.1-0.4-0.1-0.7c0,0-0.1,0.1-0.1,0.1
		c-0.3-0.3-0.6-0.6-1.1-1.1c-1.1,0-2.4,0-3.8,0c0-0.6,0-1,0-1.6c-0.4-0.2-1.1-0.1-0.8-0.9c0.2,0,0.5-0.1,0.7-0.1c0-1.6,0-3.2,0-4.9
		c-0.2-0.1-0.5-0.1-0.8-0.2c0-0.8,0-1.5,0-2.3c0.2-0.1,0.5-0.1,0.7-0.2c0-0.8,0-1.5,0-2.3c-0.7-0.2-0.9,0-0.8,0.7
		c-0.6,0-1.1,0.1-1.7,0.1c0,1.7,0,3.3,0,5c-0.6,0-1.1,0-1.6,0c-0.4-1.6-0.2-2.4,0.7-2.6c0-0.5,0-1,0-1.5c-0.5,0-1-0.1-1.5-0.1
		c-0.2-0.3-0.1-1.1-0.9-0.7c0,1.8,0,3.8,0,5.7c-0.3,0.1-0.6,0.1-0.8,0.2c0,1.6,0,3.2,0,4.8c0.2,0.1,0.5,0.1,0.8,0.2
		c0,1.1,0,2.1,0,3.2c-0.8,0-1.6,0-2.5,0c0,0.7,0,1.3,0,1.9c0,0.6-0.2,0.7-0.8,0.5c0-1.1,0-2.3,0-3.4c0-0.6-0.2-0.8-0.9-0.6
		c0,3,0,6,0,9.1c-0.6,0-1.1,0-1.7,0c0-3.1,0-6.1,0-8.8c-0.8-0.8-1.3-1.3-2.1-2.1c-0.2,0-0.7,0-1.2,0c-0.2-0.4-0.1-1.1-0.9-0.8
		c0,0.5,0,1,0,1.5c0.2,0.1,0.5,0.1,0.8,0.2c0,1.3,0,2.7,0,4c0.3,0.1,0.5,0.1,0.8,0.2c0,0.5,0,1,0,1.3c-0.4,0.3-0.7,0.6-1,0.9
		c0,0.1,0.1,0.1,0.1,0.2c-1.1,0-2.1,0-3.3,0c0-0.8,0-1.6,0-2.4c-0.3-0.1-0.5-0.1-0.7-0.2c-0.5-0.5,0.4-1.7-1-1.7c0-0.5,0-1,0-1.5
		c-0.4-0.3-1.2-0.1-0.9-0.9c-0.3-0.1-0.6-0.2-0.9-0.2c0-0.8,0-1.5,0-2.3c-0.3-0.1-0.5-0.1-0.8-0.2c0-0.8,0-1.5,0-2.3
		c-0.3-0.1-0.6-0.2-0.8-0.2c0-0.5,0-0.9,0-1.5c-0.8,0-0.9-0.5-0.8-1.1c0-0.2,0-0.3,0-0.5c0.1-0.6,0-1.1-0.8-1c0-0.8,0-1.6,0-2.1
		c-0.6-0.5-1-0.9-1.7-1.5c0-0.5,0-1.3,0-2.1c-0.3-0.1-0.5-0.2-0.9-0.2c0-0.5,0-1,0-1.5c-0.3-0.1-0.5-0.1-0.9-0.2c0-0.8,0-1.6,0-2.4
		c-0.6,0-1.1,0-1.6,0c0,1.1,0,2.1,0,3.2c-0.3,0.1-0.6,0.2-0.8,0.2c0,0.8,0,1.5,0,2.3c0.2,0.1,0.5,0.1,0.8,0.2c0,1,0,2.1,0,3.2
		c0.3,0.1,0.6,0.2,0.9,0.2c0,1.1,0,2.2,0,3.2c0,0.6,0.1,1,0.7,0.9c0.5,0.5-0.5,1.7,1,1.7c0,0.8,0,1.6,0,2.2c-0.4,0.3-0.7,0.6-1,0.9
		c0,0,0,0,0,0.1c-0.4,0.4-0.9,0.8-1.5,1.3c0,5.3,0,10.8,0,16.4c-0.6,0-1.1,0-1.7,0c0-5.8,0-11.7,0-17.5c-0.1-0.1-0.2-0.1-0.3-0.2
		c-0.2,0.2-0.4,0.4-0.6,0.6c-0.2,0.2-0.4,0.3-0.8,0.6c0,0.3,0,0.8,0,1.3c-0.5,0.1-1.1,0.1-0.9,0.9c-0.9,0-1.7,0-2.2,0
		c-0.4-0.4-0.7-0.7-1.1-1.2c0-0.4,0-1.2,0-2c0.2-0.1,0.5-0.1,0.8-0.2c0-2.2,0-4.4,0-6.6c0.3-0.1,0.6-0.1,1.1-0.2
		c-0.4-0.4-0.7-0.7-1.1-1.1c0-2.5,0-5.2,0-8c0.3-0.1,0.5-0.1,0.8-0.2C74.1,54.4,74.1,50.8,74.1,47.2z M104.5,54.6
		c0.3,0.1,0.5,0.1,0.8,0.2c0,0.5,0,1,0,1.5c1.1,0,2.2,0,3.3,0c0-0.5,0.1-1.1,0.1-1.5c0.3-0.1,0.5-0.1,0.8-0.2c0-0.5,0-1,0-1.5
		c-0.3-0.1-0.5-0.2-0.8-0.2c0-0.8,0-1.5,0-2.3c-0.3-0.1-0.5-0.1-0.8-0.2c-0.2-0.7,0.4-1.7-0.8-1.7c-0.1-1.6-0.1-1.6-0.9-1.4
		c0,0.8,0,1.5,0,2.3c-0.3,0.1-0.6,0.2-0.8,0.2c0,0.8,0,1.6,0,2.3c0,0.6,0,1.1-0.8,1C104.5,53.6,104.5,54.1,104.5,54.6z"/>
	<path fill="#AA7BFF" d="M134,45.5c0.3,0,0.5-0.1,0.7-0.1c0-0.5,0-1,0.1-1.5c0.3-0.1,0.5-0.1,0.8-0.2c0-0.5,0-1,0-1.5
		c0.6,0,1.1-0.1,1.6-0.1c0-0.3,0.1-0.5,0.1-0.8c0.5,0,1,0,1.5,0c0-0.1-0.1-0.1-0.1-0.2c0.6-0.6,1.1-1.2,1.7-1.7c0,0,0,0,0,0
		c0.3-0.3,0.6-0.5,1-1c-0.1-0.4,0.3-0.5,0.9-0.5c1.6,0,3.3,0,5,0c0-0.6,0.2-1,0.9-0.9c0-0.6,0.1-1.1,0.1-1.6c0.8,0,1.6,0,2.2,0
		c0.3,0.4,0.6,0.7,0.9,1c0.1,0,0.1-0.1,0.2-0.1c0,0.5,0,1,0,1.5c0.3,0.1,0.5,0.2,0.8,0.2c0,2.4,0,4.9,0,7.2
		c-0.3,0.3-0.6,0.5-0.8,0.7c0.2,0.2,0.4,0.4,0.8,0.7c0,0.2,0,0.7,0,1.3c-0.2,0.1-0.5,0.1-0.8,0.2c0,0.5,0,0.9,0,1.4
		c-0.3,0.1-0.5,0.1-0.8,0.2c0,1.6,0,3.2,0,4.9c-0.6,0-1.1,0-1.6,0c0-0.5,0-1,0-1.5c1.5-0.5,0.5-1.7,0.7-2.4
		c-0.8-0.8-1.6-1.5-2.3-2.2c-0.1,0-0.1,0.1-0.2,0.1c0-0.5,0-1,0-1.5c-0.9,0.1-0.9-0.4-0.9-1c0-0.8,0-1.5,0-2.1
		c-0.4-0.4-0.7-0.6-1.1-0.9c0-0.1,0.1-0.1,0.1-0.2c-1.3,0-2.7,0-4.1,0c0,1.9,0,3.8,0,5.7c-0.3,0.1-0.6,0.2-0.9,0.2
		c0,0.8,0,1.5,0,2.3c0.2,0.1,0.5,0.1,0.8,0.2c0,1.9,0,3.8,0,5.7c-0.2,0-0.5,0.1-0.8,0.1c0,1.1,0,2.1,0,3.2c0.2,0.1,0.5,0.1,0.8,0.2
		c0,1.6,0,3.2,0,4.9c0.3,0.1,0.6,0.1,0.9,0.2c0,0.5,0,1,0,1.3c0.4,0.4,0.8,0.7,1.1,0.9c0,0.1-0.1,0.1-0.1,0.2c0.8,0,1.5,0,2.4,0
		c0-1.1,0-2.1,0-3.2c0.1,0,0.2,0.1,0.3,0.1c0.2-0.3,0.4-0.6,0.7-0.8c0.2-0.2,0.5-0.2,0.8-0.4c0-0.4,0-0.9,0-1.4
		c1.7-0.4,0.4-1.8,1.1-2.6c0.1,0,0.3-0.1,0.6-0.2c0-0.5,0-1,0.1-1.5c0.8,0,1.5,0,2.3,0c0.4,0.5,0.9,1,1.4,1.6c1.1,0,0.2-1.1,0.8-1.6
		c0.7,0.1,0.6-0.6,0.6-1.2c0-2.1,0-4.2,0-6.4c0.3-0.1,0.5-0.1,0.8-0.2c0-2.7,0-5.4,0-8.2c0.5-0.2,1.1-0.1,0.9-0.7
		c0.6-0.5,1-0.9,1.4-1.3c0.1,0,0.1,0.1,0.2,0.1c0-0.2,0.1-0.5,0.1-0.7c0,0,0.1,0.1,0.1,0.1c0.3-0.3,0.6-0.5,0.8-0.8
		c1.4-0.4,1.4-0.5,1.6-1c1.9,0,3.7,0,5.7,0c0,1.3,1,0.6,1.7,0.9c0,0.2,0.1,0.4,0.2,0.7c0.5,0,1,0,1.5,0c0.1,0.3,0.1,0.5,0.2,0.8
		c0,0,0.1-0.1,0.1-0.1c0.2,0.3,0.4,0.5,0.7,0.8c0.1,0.1,0.2,0.2,0.3,0.3c0.2,0.2,0.4,0.4,0.6,0.5c0.2,0.2,0.5,0.3,0.8,0.5
		c0,3.4,0,7,0,10.4c0.4,0.4,0.8,0.7,1.1,0.9c0,0.1-0.1,0.1-0.1,0.2c0.2,0.1,0.5,0.1,0.8,0.2c0,1.6,0,3.2,0,4.8
		c-0.2,0.1-0.5,0.1-0.8,0.2c0,3,0,6,0,9.1c-0.3,0.1-0.5,0.1-0.8,0.2c0,0.5,0,1-0.1,1.5c-0.1,0-0.1-0.1-0.2-0.1
		c-0.2,0.3-0.4,0.6-0.7,0.9c-0.4,0.4-0.9,0.7-1.3,1.1c-0.1,0.1-0.2,0.2-0.3,0.3c-0.2,0.2-0.4,0.5-0.7,0.8c-0.3,0.3-0.6,0.6-1,1
		c0,1.1,0,2.4,0,3.8c-0.3,0-0.5,0.1-0.9,0.1c0,0.8,0,1.6,0,2.4c-0.6,0-1,0-1.6,0c0-1.9,0-3.8,0-5.8c-1.5,0-2.9,0-4.2,0
		c-0.6,0-1-0.1-0.9-0.8c-0.8,0-1.6,0-2.4,0c0-0.3-0.1-0.5-0.1-0.8c-0.2,0-0.5-0.1-0.7-0.2c0,0,0.1-0.1,0.1-0.1
		c-0.8-0.8-1.7-1.7-2.5-2.5c-0.1,0-0.1,0.1-0.2,0.1c0-0.4,0-0.8,0-1.2c0-0.4,0-0.7,0-1.2c-0.3-0.1-0.5-0.1-0.8-0.1
		c0-0.1-0.1-0.2-0.1-0.3c0-1.3,0-2.7,0-4c0-0.6-0.1-0.9-0.8-0.6c0,1,0,2.1,0,3.2c-0.8-0.1-0.9,0.4-0.9,1c0,1,0,2.1,0,2.9
		c-1,1-1.9,1.9-2.7,2.7c-0.4,0.2-0.9,0.2-0.6,1c-0.9,0-1.7,0-2.6,0c0,2,0,3.9,0,5.8c-0.1,0.1-0.2,0.1-0.2,0.2
		c-0.2-0.2-0.4-0.3-0.6-0.5c-0.2-0.2-0.4-0.3-0.6-0.5c-0.1,0.1-0.2,0.1-0.2,0.2c0,1.6,0,3.3,0,4.9c-0.6,0-1.1,0-1.7,0
		c0-2.8,0-5.5,0-8.3c-1.1,0-2.2,0-3.3,0c-0.1-0.3-0.2-0.6-0.2-0.8c-0.5,0-1,0-1.3-0.1c-0.4-0.4-0.6-0.7-0.9-1c0,0,0,0-0.1,0.1
		c-0.3-0.3-0.5-0.6-0.8-0.9c-0.1,0-0.2,0.1-0.2,0.1c0-0.5,0-1,0-1.5c-1.3,0-0.7-1-0.9-1.7c-0.2,0-0.5-0.1-0.8-0.2c0-2.5,0-5,0-7.4
		c0-0.5,0.1-1.1-0.8-0.9c0-1.4,0-2.8,0-3.9c0.6-0.5,1-1,1.6-1.5c0-2,0-4.1,0-6.3c-0.2-0.1-0.5-0.1-0.7-0.2
		C134,47.7,134,46.7,134,45.5z M162,43.8c-0.1,0.3-0.2,0.7-0.4,0.7c-0.8,0-0.6,0.6-0.6,1.1c0,1,0,2,0,3c0,1.7,0,3.4,0,5.1
		c-0.1,0-0.2-0.1-0.3-0.1c-0.2,0.3-0.6,0.7-0.5,0.9c0.2,1-0.8,2.3,0.8,2.9c0,1.3,0,2.6,0,3.9c0.3,0.1,0.5,0.1,0.8,0.2
		c0,1.4,0,2.7,0,4c0.3,0.1,0.5,0.1,0.8,0.2c0,0.2,0.1,0.5,0.1,0.7c0.1,0,0.1-0.1,0.2-0.1c0.6,0.6,1.2,1.2,1.9,1.9c0.3,0,0.7,0,0.9,0
		c0.4-0.4,0.8-0.8,1.2-1.2c0-0.6,0-1.3,0-1.8c-0.4-0.4-0.8-0.6-0.8-0.9c-0.1-1.5,0-2.9,0-4.4c0.3-0.1,0.5-0.1,0.8-0.2
		c0-0.8,0-1.6,0-2.3c-1.5-0.5-0.3-1.8-1-2.6c-0.1,0-0.4-0.1-0.6-0.2c0-0.8,0-1.5,0-2.3c-0.3-0.1-0.5-0.1-0.8-0.2c0-1.4,0-2.7,0-4
		c0.7-0.2,1.1-1.1,0.7-1.8c-0.2,0-0.5-0.1-0.7-0.1c0-0.5,0-1-0.1-1.5c-0.1,0-0.1,0.1-0.2,0.1c-0.3-0.3-0.6-0.6-1-1
		C162.9,43.8,162.5,43.8,162,43.8z M144.9,75c-0.6,0-1.1,0-1.6,0c0,0.6,0,1.1,0,1.5c0.6,0,1.1,0,1.6,0C144.9,76,144.9,75.6,144.9,75
		z"/>
	<path fill="#AA7BFF" d="M261.3,58.2c0.3-0.1,0.5-0.1,0.8-0.2c0-0.5,0-1,0.1-1.5c0.3,0,0.5-0.1,0.8-0.1c0-1.4,0-2.7,0-4.1
		c-0.8,0.1-0.8-0.4-0.8-1c0-1.6,0-3.2,0-4.8c-0.3-0.1-0.5-0.1-0.8-0.2c0-0.4,0-0.8,0-1.2c0-0.2-0.3-0.3-0.4-0.4
		c-0.1,0.1-0.4,0.3-0.4,0.4c-0.1,0.4,0,0.7,0,1.2c-0.6,0-1.1,0-1.6,0c0-0.8,0-1.5,0-2.4c0.7,0,0.9-0.5,0.8-1.1c-0.1-0.7,0-1.4,0-2.2
		c-0.3-0.1-0.5-0.1-0.8-0.2c0,0,0.1-0.1,0.1-0.1c-0.3-0.3-0.6-0.6-1-1.1c0-0.8,0-1.8,0-2.7c0.4-0.3,0.7-0.6,1-0.9
		c0-0.1-0.1-0.2-0.1-0.3c0.6,0.2,1.5-0.6,1.7,0.8c0.5,0,1,0,1.3,0c0.5,0.6,1,1.1,1.5,1.7c0.3,0,0.8,0,1.3,0.1
		c0.1,0.2,0.1,0.5,0.2,0.8c1,0,2.1,0,3.1,0c0.1,0.3,0.1,0.5,0.2,0.8c0.5,0,0.9,0,1.4,0c0,0.1-0.1,0.1-0.1,0.2
		c0.6,0.6,1.2,1.2,1.8,1.8c0.4,0.4-0.3,1.5,1,1.6c0,0.5,0,1,0,1.5c1.3,0,0.7,1,0.9,1.7c0.2,0,0.4,0.1,0.8,0.2c0,0.6,0,1.1,0,1.7
		c0,0.2,0.2,0.5,0.4,0.7c0.2-0.2,0.4-0.5,0.4-0.7c0-3.1,0-6.2,0-9.2c0.4-0.2,1.1-0.1,0.8-0.9c0.6,0,1.1-0.1,1.6-0.1
		c0.1-0.3,0.1-0.5,0.2-0.8c0.5,0,0.9,0,1.2,0c0.4-0.4,0.7-0.8,1.1-1.1c0.1,0,0.1,0.1,0.2,0.1c0-0.5,0-1,0.1-1.5
		c0.3-0.1,0.5-0.1,0.8-0.2c0-0.5,0-1,0.1-1.5c0.8,0,1.6,0,2.2,0c0.4,0.4,0.7,0.7,1.1,1.1c0,0.5,0,1.3,0,2.1
		c-0.2,0.1-0.5,0.1-0.8,0.2c0,0.7,0,1.5,0,2.3c-0.3,0.1-0.5,0.1-0.8,0.2c0,0.5-0.1,1-0.1,1.5c-0.2,0-0.5,0.1-0.7,0.1
		c0,0.2-0.1,0.4-0.1,0.7c0,5.1,0,10.2,0,15.2c0,0.5,0,1-0.8,0.9c0,1.9,0,3.9,0,5.8c0.2,0.1,0.5,0.1,0.7,0.2c0,0.2,0.1,0.3,0.1,0.4
		c0,2.1,0,4.1,0,6.2c0,0.5-0.1,1.1,0.8,0.9c0,0.9,0,1.7,0,2.5c0,0.6,0.1,1,0.8,0.9c0,1.1,0,2.1,0,3.2c0.3,0.1,0.5,0.1,0.8,0.2
		c0,1.1,0,2.1,0,2.9c-0.4,0.4-0.7,0.7-1.1,1.1c-0.8,0-1.9,0-3,0c0-1.1,0-2.1,0-3.3c-0.3-0.1-0.6-0.1-0.8-0.1c0-0.5,0-1-0.1-1.3
		c-0.4-0.4-0.7-0.6-1-0.9c-1.2-0.2-0.4-1.3-0.7-1.8c-0.2,0-0.4-0.1-0.6-0.2c-0.3-2.4-0.3-2.4-0.9-2.6c0-1,0-2.1,0-3.1
		c-0.3-0.1-0.5-0.1-0.8-0.2c0-0.5,0-1,0-1.5c-0.3-0.1-0.5-0.1-0.8-0.2c0-0.5,0-1,0-1.5c-0.3-0.1-0.5-0.2-0.8-0.2c0-0.5,0-0.9,0-1.5
		c-1.4,0-0.7-1.1-1-1.7c-0.2-0.1-0.4-0.1-0.6-0.2c-0.4-0.6,0.4-1.6-0.9-1.7c0-0.8,0-1.6,0-2.4c-0.3-0.1-0.6-0.1-0.8-0.2
		c0-0.5,0-1-0.1-1.5c-0.7-0.3-0.9,0.1-0.8,0.7c-0.3,0-0.5,0.1-0.8,0.1c0,2.2,0,4.3,0,6.6c0.2,0.1,0.5,0.1,0.8,0.2c0,1.9,0,3.8,0,5.5
		c0.6,0.5,1.1,0.9,1.6,1.5c0,0.8,0,1.9,0,2.8c-0.4,0.3-0.7,0.6-1,0.9c0,0.1,0.1,0.2,0.1,0.2c-0.5,0-1,0.1-1.6,0.1c0,1.9,0,3.8,0,5.7
		c-0.6,0.2-0.9,0.1-0.9-0.6c0-0.9,0-1.7,0-2.7c-0.6,0-1,0-1.3,0c-0.4-0.4-0.7-0.6-0.9-0.9c-0.2,0.2-0.3,0.5-0.5,0.8
		c-0.4,0-0.9,0.1-0.6,0.9c-0.9,0-1.7,0-2.4,0c-0.4-0.6,0.4-1.7-0.9-1.7c0-0.5,0-1,0-1.5c0.7,0,0.8-0.5,0.8-1.2c-0.1-1,0-2,0-3.1
		c0.3-0.1,0.5-0.2,0.8-0.2c0-1.6,0-3.2,0-4.9c-0.8,0-0.8-0.5-0.8-1.1C261.3,61.9,261.3,60.1,261.3,58.2z"/>
	<path fill="#AA7BFF" d="M26,38c0-0.3,0-0.6,0-0.7c-0.4-0.4-0.7-0.6-1-0.9c0,0,0,0,0,0c-0.3-0.3-0.6-0.6-0.9-0.9c0,0,0,0,0,0
		c-0.3-0.3-0.5-0.6-0.8-0.8c0,0,0.1,0,0.1-0.1c-0.2-0.2-0.5-0.3-0.7-0.5c0.2-0.2,0.4-0.3,0.6-0.5c0.2-0.2,0.3-0.5,0.4-0.8
		c0.4,0,0.9,0,1.2,0c0.4,0.4,0.7,0.7,1.2,1.2c0,0.2,0,0.7,0,1.2c0.1,0,0.1-0.1,0.2-0.1c0.2,0.3,0.4,0.6,0.7,0.8
		c0.2,0.2,0.5,0.2,0.8,0.4c0,0.2,0.1,0.4,0.1,0.7c0.5,0,0.9,0,1.4,0c0.1,0,0.2-0.4,0.3-0.7c-0.4-0.2-1.2-0.1-0.8-0.9
		c0.5,0,0.9,0,1.5,0c0.1,0.5,0.2,1.1,0.3,1.6c0,0,0.4,0,0.6,0c0-1.1,0-2.1,0-3.2c0.3-0.1,0.5-0.2,0.8-0.2c0-0.5,0.1-1,0.1-1.8
		c0.6,0.5,1,0.9,1.6,1.3c0,0.3,0,0.8,0,1.3c-0.7,0.1-0.8,0.5-0.8,1.1c0,0.3-0.3,0.6-0.5,0.9c-0.1,0-0.2-0.1-0.2-0.1c0,0.5,0,1,0,1.5
		c0.7,0.3,0.9-0.1,0.8-0.7c0.5,0,1,0,1.5,0c0.2,1.4,1.3,0.7,2,0.8c0.3,0,0.6-0.3,0.9-0.5c0-0.1-0.1-0.2-0.1-0.3c0.8,0,1.5,0,2.3,0
		c0.4,1.6,1.8,0.4,2.4,0.8c0.5,0.6,0.9,1,1.2,1.4c0.5,0.5,0.9,0.9,1.4,1.3c0.5,0.4-0.4,1.6,1,1.6c0,1.1,0,2.1,0,3.2
		c0.3,0.1,0.5,0.1,0.8,0.2c0,1.9,0,3.8,0,5.7c-1.3,0-0.6,1.1-1,1.5c-0.6,0.6-1.2,1.2-1.9,1.9c-0.2,0-0.7,0-1.3,0.1c0,1.4,0,2.7,0,4
		c0.7,0.3,0.7,0.3,0.9,1.8c1.3,0,0.6,1.1,1,1.6c0.2,0.3,0.4,0.6,0.7,0.8c0.2,0.2,0.5,0.2,0.8,0.4c0,0.4,0,0.9,0,1.4
		c0.3,0.1,0.6,0.1,0.8,0.2c0,0.5,0,0.9,0,1.5c0.3,0.1,0.5,0.1,0.8,0.2c0,1,0,2.1,0,3.2c0.3,0.1,0.6,0.1,0.9,0.2c0,0.5,0,0.9,0,1.2
		c0.9,0.8,1.6,1.6,2.4,2.3c0.1,0,0.1-0.1,0.2-0.1c0,0.5,0,1,0,1.5c0.3,0.1,0.5,0.1,0.9,0.2c0,0.5,0,1,0,1.5c0.6,0.1,1.1,0.1,0.9,0.6
		c0.4,0.4,0.7,0.7,1,0.9c0,0.1-0.1,0.1-0.1,0.2c0.2,0,0.5,0.1,0.7,0.1c0,0.8,0,1.6,0,2.4c-1.4,0-2.7,0-4.1,0
		c-0.1-0.2-0.1-0.5-0.2-0.8c-0.7,0-1.5,0-2.3,0c-0.1-0.3-0.1-0.5-0.1-0.5c-0.4-0.4-0.7-0.7-1-0.9c0,0,0,0,0,0
		c-0.3-0.3-0.6-0.6-0.9-0.9c0-0.1,0.1-0.1,0.1-0.2c-0.5,0-1,0-1.5,0c0-0.1,0.1-0.1,0.1-0.2c-0.6-0.6-1.1-1.2-1.7-1.7
		c-0.1,0-0.1,0.1-0.2,0.1c0-0.5,0-1,0-1.5c-0.3-0.1-0.5-0.1-0.5-0.1c-0.4-0.4-0.7-0.7-0.9-1c-0.1,0-0.1,0.1-0.2,0.1
		c0-1.3,0-2.7,0-4.1c-0.9,0-1.7,0-2.5,0c0-1.7,0-3.4,0-5C37.6,64,37.3,64,37,63.9c0-0.8,0-1.5,0-2.3c-0.3-0.1-0.5-0.1-0.8-0.2
		c0-0.5,0-1,0-1.5c-0.3-0.1-0.5-0.2-0.8-0.2c0-0.5,0-0.9,0-1.5c-0.5-0.1-0.9-0.3-0.9,0.4c0,2,0,4.1,0,6.1c0.3,0.1,0.5,0.1,0.8,0.2
		c0,0.5,0,1,0,1.5c0.3,0.1,0.5,0.1,0.8,0.1c0,1.6,0,3.2,0,4.7c0.6,0.5,1.1,0.9,1.7,1.5c0,0.6,0,1.3,0,2.2c-1.1,0-2.2,0-3.3,0
		c0,0.6,0,1.1,0,1.5c-0.1,0-0.2-0.1-0.3-0.1c-0.2,0.3-0.6,0.6-0.6,1c0,5,0,9.9,0,14.9c0,0.1,0,0.2,0,0.3c1.2,0.1,0.7,1,0.8,1.5
		c-0.4,0.3-0.7,0.6-1,0.9c0,0.1,0.1,0.1,0.1,0.2c-0.5,0-1,0-1.5,0c0-3.3,0-6.6,0-10c0.9,0,0.8-0.6,0.8-1.2c0-1.5,0-3.1,0-4.7
		c-0.3-0.1-0.5-0.1-0.8-0.2c0-1.3,0-2.6,0-3.7c-0.8-0.8-1.3-1.4-1.9-2c0-0.1,0.1-0.1,0.1-0.2c-0.5,0-1,0-1.5,0
		c-0.1-0.3-0.1-0.5-0.2-0.8c-0.5,0-1,0-1.5,0c-0.1-0.3-0.1-0.5-0.1-0.8c-0.3-0.1-0.5-0.1-0.8-0.1l0,0c0-0.5,0-1,0-1.5
		c0.1,0,0.1,0.1,0.2,0.1c0.2-0.3,0.4-0.7,0.7-0.9c0.4-0.4,0.9-0.7,1.4-1c0.1-0.1,0.3-0.4,0.3-0.6c0-2.7,0-5.4,0-8.1
		c0-0.3-0.4-0.5-0.6-0.8c-0.1,0-0.2,0.1-0.2,0.1c0-1.7,0-3.4,0-5.1c0-1.3,0-2.7,0-4c0-0.6-0.1-1-0.8-0.9c0-1.1,0-2.1,0-3.2
		c0.2-0.1,0.5-0.1,0.7-0.2c0-1,0-2.1,0-3.4c-0.6,0.4-1.2,0.7-1.6,1.1c-0.4,0.4-0.7,0.9-1.1,1.5c-0.4,0-0.8,0-1.4,0.1
		c-0.1,0.3-0.1,0.5-0.2,0.7c-0.8,0.1-0.9,0-0.7-1.2c0.4-0.5,0.6-0.7,0.8-1c0.1-0.1,0.3-0.2,0.5-0.3c0.3,0,0.7,0,0.9,0
		c0.4-0.4,0.6-0.7,0.9-1c0.1,0,0.1,0.1,0.2,0.1c0-0.5,0-1,0-1.6c-1.1,0-2.2,0-3.3,0c0-0.6,0-1.1,0-1.7c0.8,0,1.6,0,2.3,0
		C25.3,38.3,25.2,37.5,26,38c0,0.5,0,0.9,0,1.4c1,0.1,1.1-0.1,0.8-1.6C26.5,37.9,26.3,38,26,38z M34.5,48.1c0,1.4,0,2.7,0,4.1
		c0.8,0,1.6,0,2.5,0c0-0.5,0-1,0.1-1.6c0.3-0.1,0.5-0.1,0.8-0.2c0-2.2,0-4.4,0-6.6c-0.3-0.1-0.5-0.1-0.8-0.2c0-0.5,0-1,0-1.6
		c-0.3,0.1-0.6,0.1-0.8,0.3c-0.3,0.2-0.4,0.6-0.7,0.8c-0.1,0-0.2-0.1-0.2-0.1c0,1.6,0,3.2,0,4.9C35,48,34.8,48,34.5,48.1z"/>
	<path fill="#AA7BFF" d="M339.8,69.8c0-0.5,0-1,0-1.3c-0.6-0.5-1.1-0.9-1.7-1.5c0-0.3,0-0.8,0-1.3c-0.3-0.1-0.5-0.1-0.8-0.2
		c0-0.8,0-1.5,0-2.3c-0.3-0.1-0.5-0.1-0.8-0.2c0-0.5,0-0.9,0-1.5c-0.3-0.1-0.5-0.1-0.9-0.2c0-0.7,0-1.5,0-2.1
		c-0.6-0.5-1-0.9-1.4-1.3c-0.1,0.1-0.1,0.1-0.2,0.2c0,1.6,0,3.2,0,4.9c0.2,0.1,0.5,0.1,0.8,0.2c0,0.7,0,1.5,0,2.3
		c0.8,0,0.9,0.5,0.9,1.2c0,1.3,0,2.6,0,3.9c0.3,0.1,0.5,0.1,0.8,0.2c0,0.5,0,1,0,1.3c0.6,0.5,1.1,1,1.7,1.5c0,0.3,0,0.8,0,1.4
		c-0.8,0-1.6,0-2.5,0c0,2.6,0,5,0,7.5c-0.6,0-1.1,0-1.6,0c0-2.5,0-4.9,0-7.4c-0.6-0.1-1.1-0.2-0.9-0.9c-0.6,0-1.1-0.1-1.6-0.1
		c0-0.3-0.1-0.5-0.1-0.8c-0.8,0-1.5,0-2.4,0c-0.1-0.3-0.1-0.5-0.2-0.8c-0.5,0-1,0-1.5,0c0-0.1,0.1-0.2,0.1-0.2
		c-0.3-0.2-0.7-0.4-0.9-0.7c-0.3-0.5-0.5-0.9-1-1c0.2-0.3,0.4-0.6,0.6-0.9c0.1,0,0.1,0.1,0.2,0.1c0-0.2,0.1-0.4,0.1-0.7
		c0.5,0,1-0.1,1.6-0.1c0-3.9,0-7.8,0-11.7c-0.2,0-0.5-0.1-0.7-0.1c0-1.4,0-2.7,0-4.1c0.3,0,0.5-0.1,0.8-0.2c0-0.8,0-1.5,0-2.3
		c-0.2-0.1-0.5-0.1-0.8-0.2c0-3.9,0-7.7,0-11.4c0.4-0.4,0.7-0.7,1.1-1.2c0.5,0,1.3,0,2.1,0c-0.1,0.9,0.5,0.8,1.1,0.8
		c0.8,0,1.5,0,2.3,0c0.1-0.3,0.2-0.5,0.2-0.8c0.8,0,1.5,0,2.3,0c0.1-0.3,0.1-0.5,0.2-0.8c1.1,0,2.1,0,3.2,0c0.1,0.3,0.1,0.5,0.2,0.8
		c0.5,0,0.9,0,1.5,0c0,1.3,1.1,0.7,1.4,0.8c0.4,0.5,0.7,0.8,1,1.1c0.1,0,0.1-0.1,0.2-0.1c0,0.5,0,1,0,1.5c0.3,0.1,0.5,0.1,0.8,0.2
		c0,0.7,0,1.5,0,2.2c1.6,0.5,0.5,1.8,1,2.7c0.1,0,0.4,0.1,0.6,0.1c0,1.4,0,2.7,0,4c-0.2,0.1-0.4,0.1-0.8,0.2c0,0.5,0,0.9-0.1,1.5
		c-0.2,0.1-0.5,0.1-0.7,0.2c0,0.1,0.1,0.1,0.1,0.2c-0.3,0.2-0.5,0.4-0.8,0.6c-0.1,0.1-0.2,0.2-0.3,0.4c-0.1,0.2-0.3,0.3-0.5,0.5
		c-0.1,0.1-0.3,0.2-0.4,0.3c-0.2,0.2-0.4,0.4-0.5,0.6c-0.2,0.2-0.3,0.5-0.5,0.8c-0.8,0.2-0.9,0.4-0.6,2.5c0.2,0.1,0.5,0.1,0.7,0.2
		c0,0.5,0,1,0.1,1.5c0.3,0.1,0.5,0.1,0.8,0.2c0,0.5,0,1,0,1.5c0.3,0,0.5,0.1,0.8,0.1c0,0.5,0,1,0.1,1.5c0.3,0.1,0.5,0.1,0.8,0.2
		c0,0.5,0,0.9,0,1.5c1.3,0.1,0.7,1.1,0.9,1.7c0.2,0,0.5,0.1,0.7,0.2c0,0.5,0.1,1,0.1,1.5c0.3,0.1,0.5,0.1,0.8,0.2c0,0.8,0,1.5,0,2.1
		c0.6,0.5,1.1,0.9,1.7,1.5c0,0.3,0,0.8,0.1,1.3c0.1,0,0.1-0.1,0.2-0.1c0.2,0.3,0.4,0.6,0.7,0.8c0.2,0.2,0.5,0.3,0.8,0.4
		c0,0.7,0,1.4,0,2c0.4,0.4,0.7,0.7,1.1,1c0,0.1-0.1,0.1-0.1,0.2c0.5,0,1,0,1.2,0c0.5,0.5,0.8,0.8,1.2,1.2c0,0.2,0,0.7,0,1.1
		c-0.5,0.5-1,0.9-1.6,1.4c0,0.6,0,1.3,0,2.1c0.3,0.2,1.1,0,0.7,0.9c-0.5,0-1,0.1-1.6,0.1c0,0.8,0,1.6,0,2.3
		c-0.6,0.3-0.9,0.1-0.9-0.5c0-1.2,0-2.4,0-3.7c0-0.4,0.1-0.8-0.5-0.8c-0.1,0-0.2-0.2-0.3-0.2c-0.2-0.2-0.4-0.4-0.5-0.6
		c-0.2-0.2-0.3-0.5-0.5-0.8c-0.4,0-0.9-0.1-1.4-0.1c-0.1-0.3-0.1-0.5-0.2-0.8c-0.5,0-1,0-1.5,0c0-0.1,0.1-0.1,0.1-0.2
		c-0.6-0.6-1.1-1.1-1.7-1.7c0,0,0,0,0,0c-0.3-0.2-0.5-0.4-0.8-0.6c-0.1-0.1-0.2-0.2-0.3-0.4c-0.1-0.1-0.2-0.3-0.3-0.5
		c-0.2-0.2-0.5-0.4-0.9-0.7c-0.2-0.2-0.4-0.5-0.5-0.7c0-0.1-0.1-0.2-0.1-0.2c-1,0-0.7-0.8-0.7-1.2c0-0.7,0-1.4,0-2.1
		C340.6,70.2,340.5,69.8,339.8,69.8z M338,48.7c0-1.1,0-2.1,0-3.2c-0.3-0.1-0.5-0.1-0.8-0.2c0-1.1,0-2.2,0-3.2c-0.6,0-1.1,0-1.6,0
		c0,0.5,0,1-0.1,1.5c-0.8,0.3-0.8,0.3-0.8,1.1c0,1.3,0,2.7,0,4c-0.3,0.1-0.5,0.1-0.8,0.2c0,0.8,0,1.6,0,2.4c0.1,0,0.1-0.1,0.2-0.1
		c0.3,0.3,0.6,0.6,0.9,1c0.6,0,1.4,0,2.2,0c0-1.1,0-2.1,0-3.2C337.5,48.9,337.7,48.8,338,48.7z"/>
	<path fill="#AA7BFF" d="M304.3,41.5c0,1.7,0,3.6,0,5.5c-0.3,0.1-0.5,0.1-0.8,0.2c0,0.3,0,0.6,0,0.9c0,1.1,0,2.1,0,3.2
		c0,0.6,0.1,0.9,0.8,0.8c0,2.2,0,4.4,0,6.6c-0.8,0-0.8,0.6-0.8,1.2c0,3.2,0,6.4,0,9.5c-0.6,0.5-1,0.9-1.7,1.4c0,0.3,0,0.8,0,1.3
		c-0.5,0.1-1.2,0-0.8,0.9c-0.3,0.1-0.6,0.1-1.2,0.2c0.4,0.4,0.7,0.7,1.1,1.1c0,1,0,2.4,0,3.8c-0.5,0-1,0-1.6,0c0-1.6,0-3.3,0-4.9
		c-0.3,0-0.5,0-0.8,0c0,1.9,0,3.8,0,5.7c0.2,0.1,0.5,0.2,0.8,0.2c0,1.1,0,2.1,0,2.9c-0.4,0.4-0.7,0.7-1,1c-0.5,0.4-0.6,0-0.6-0.5
		c0-2.5,0-5,0-7.5c0-0.3,0-0.6,0-1c-4,0-7.8,0-11.7,0c0-0.1,0.1-0.1,0.1-0.2c-0.3-0.3-0.6-0.6-0.9-0.9c-0.1,0-0.1,0.1-0.2,0.1
		c0-0.5,0-1,0-1.3c-0.4-0.3-0.6-0.5-0.9-0.7c0.2-0.2,0.4-0.4,0.8-0.7c0-1.4,0-3,0-4.7c-0.2-0.1-0.5-0.1-0.8-0.2c0-5.2,0-10.5,0-15.8
		c-0.3-0.1-0.6-0.2-0.8-0.3c0-1.1,0-2.1,0-3.2c0.3,0,0.5-0.1,0.8-0.1c0-2.8,0-5.5,0-8c0.4-0.4,0.7-0.7,1.1-0.9
		c0-0.1-0.1-0.1-0.1-0.2c0.5,0,1,0,1.5-0.1c0.1-0.2,0.1-0.5,0.2-0.8c1.3,0,2.6,0,4,0c0.1,0.2,0.1,0.5,0.2,0.8c0.8,0,1.5,0,2.3,0
		c0.1,1.3,1,0.8,1.7,0.9c0.1-0.3,0.1-0.5,0.2-0.8c1.3,0,2.6,0,4,0c0,0.6,0.4,0.8,1,0.8c0.3,0,0.6,0.3,1,0.5c0,0.1-0.1,0.2-0.1,0.3
		c0.5,0,1,0.1,1.5,0.1c0,0.5,0.1,1,0.1,1.4C303.2,40.6,303.7,41,304.3,41.5z M290.9,47.2c0,5.9,0,11.8,0,17.6
		c0.3,0.1,0.5,0.2,0.8,0.2c0,0.8,0,1.6,0,2.3c0.1,0,0.2-0.1,0.2-0.1c0.3,0.3,0.5,0.6,0.9,1c0.3,0,0.8,0,1.3,0
		c0.1-0.3,0.1-0.5,0.1-0.8c0.5,0,1.1,0,1.6-0.1c0-2.3,0-4.4,0-6.6c0.3-0.1,0.5-0.1,0.8-0.2c0-5.2,0-10.3,0-15.4
		c0-0.2-0.1-0.4-0.3-0.5c-0.3-0.2-0.5-0.5-0.8-0.7c-0.5-0.3-1.5,0.2-1.6-1c-0.5,0-1,0-1.2,0c-0.5,0.4-0.8,0.7-1.2,1.1
		c0,0.6,0,1.4,0,2.2C291.7,46.9,291.5,47.2,290.9,47.2z"/>
	<path fill="#AA7BFF" d="M312.8,58.2c0,3.6,0,7.2,0,10.9c1.4,0,2.7,0,4.1,0c0-0.3,0.1-0.5,0.1-0.8c0.5,0,1,0,1.5,0
		c0-0.1-0.1-0.1-0.1-0.2c0.6-0.6,1.1-1.2,1.7-1.7c0.1,0,0.1,0.1,0.2,0.1c0-0.5,0-1,0.1-1.5c0.3-0.1,0.5-0.1,0.8-0.2c0-0.5,0-1,0-1.5
		c0.5-0.1,1.1-0.1,0.8-0.9c0.9,0,1.7,0,2.5,0c0,4.5,0,8.9,0,13.4c-0.5,0-1,0.1-1.6,0.1c0,1.1,0,2.2,0,3.3c0.3,0.1,0.5,0.1,0.7,0.2
		c0,0.5,0,1,0,1.5c-0.5,0-1,0-1.6,0c0-1.2,0-2.4,0-3.5c0-0.6-0.2-0.7-0.8-0.5c0,1.9,0,3.8,0,5.8c0.2,0,0.5,0.1,0.7,0.1
		c0,0.8,0,1.6,0,2.1c-0.4,0.4-0.7,0.7-1.2,1.2c-0.1-0.1-0.3-0.2-0.5-0.4c-0.1-0.1-0.1-0.3-0.1-0.3c-1.5-0.4-0.4-1.5-0.7-2.3
		c0-0.1,0.4-0.3,0.8-0.5c0-1.5,0-3.1,0-4.6c-0.4-0.4-0.7-0.6-0.8-0.8c-0.7-0.7-1.3-1.3-2-2c-1.9,0-4.1,0-6.3,0
		c-0.1-0.3-0.1-0.5-0.2-0.8c-0.5,0-1,0-1.5-0.1c-0.1-0.3-0.1-0.5-0.2-0.8c-0.8,0-1.5,0-2,0c-0.5-0.5-0.8-0.8-1.3-1.2
		c0-2.7,0-5.8,0-8.8c-0.3-0.1-0.5-0.1-0.8-0.1c0-2.5,0-5,0-7.5c0.3,0,0.5-0.1,0.8-0.1c0-5.6,0-11.1,0-16.4c0.5-0.4,0.8-0.7,1.2-1.2
		c0.2,0,0.7,0,1.2,0c0,0.7,0.5,0.8,1.2,0.8c1.6,0,3.1,0,4.7,0c0.1-0.3,0.2-0.5,0.2-0.8c3.3,0,6.6,0,9.7,0c0.4,0.4,0.7,0.7,1,1
		c0.1,0,0.1-0.1,0.2-0.1c0,2.2,0,4.3,0,6.5c0.3,0.1,0.5,0.1,1.1,0.2c-0.4,0.4-0.6,0.7-0.8,0.9c-0.1,0-0.2-0.1-0.2-0.1
		c0,0.8,0,1.5,0,2.1c-0.6,0.5-1,0.9-1.7,1.5c0,2,0,4.1,0,6.4c-0.3,0-0.5,0-0.5,0c-0.4-0.4-0.7-0.7-1-1c-0.1,0-0.1,0.1-0.2,0.1
		c0-0.5,0-1,0-1.5c0.3-0.1,0.5-0.1,0.8-0.2c0-1.3,0-2.7,0-4.1c-0.5,0-1-0.1-1.3-0.1c-0.5-0.6-1-1-1.5-1.6c-0.5,0-1.3,0-1.8,0
		c-0.4-0.4-0.7-0.7-1.2-1.2c0-0.7,0-1.8,0-2.9c0.1,0,0.3,0,0.4-0.1c0.2-0.1,0.2-0.3,0.4-0.5c-0.2-0.1-0.3-0.3-0.5-0.3
		c-0.6,0-1.3,0-1.7,0c-0.4,0.4-0.7,0.8-1.2,1.2c0,0.8,0,1.8,0,2.9c-0.3,0.1-0.5,0.1-0.8,0.2c0,1.3,0,2.6,0,4
		c0.2,0.1,0.5,0.1,0.7,0.2c0,0-0.1,0.1-0.1,0.1c0.3,0.3,0.5,0.5,0.9,0.9c0.1-0.6,0.1-0.8,0.2-1.1c0.5,0,1,0,1.3,0
		c0.4-0.4,0.7-0.8,1-1.1c0.2-0.2,0.5-0.4,0.8-0.6c0.1-0.1,0.2-0.3,0.3-0.5c0.1-0.1,0.3-0.3,0.4-0.3c0.1,0,0.3,0.2,0.4,0.3
		c0.2,0.2,0.4,0.5,0.8,0.6c0,3.6,0,7.1,0,10.8c-1.3,0-0.6,1.1-0.9,1.8c-1,0-2.1,0-3.2,0c0-0.5,0-1,0-1.5c-0.3-0.1-0.5-0.1-0.9-0.2
		c0-0.8,0-1.5,0-2.4C314.4,58.2,313.7,58.2,312.8,58.2z"/>
	<path fill="#AA7BFF" d="M26,71.5c0,0.5,0,1,0,1.6c0,0,0,0.1-0.1-0.1c0.6,0.6,1.1,1,1.7,1.5c0,1.1,0,2.5,0,3.8
		c-0.2,0.1-0.5,0.1-0.8,0.2c0,1.9,0,3.8,0,5.8c-0.6,0-1,0-1.6,0c0-0.5,0-1,0-1.6c0.2,0,0.4-0.1,0.7-0.2c0-1.3,0-2.7,0-4.1
		c-0.5,0-1,0-1.3-0.1c-0.4-0.4-0.7-0.7-1-1.1c-0.2-0.1-0.5-0.3-0.7-0.6c-0.4-0.4-0.7-0.8-1.1-1.1c-0.2-0.2-0.5-0.5-0.7-0.5
		c-1.1-0.1-2.3,0-3.2,0c-0.4-0.4-0.7-0.8-1.2-1.2c0-0.3,0-0.7,0-1.3c0.2-0.1,0.5-0.1,0.7-0.2c0-1.6,0-3.2,0-4.9
		c-0.2-0.1-0.5-0.1-0.7-0.2c0-1.1,0-2.1,0-3.2c1.1,0,0.8-0.8,0.8-1.3c0-0.2-0.3-0.4-0.4-0.4c-0.5,0.5-0.8,0.8-1.2,1.2
		c0,0.8,0,1.8,0,2.9c-0.3,0.1-0.5,0.1-0.8,0.2c0,1.1,0,2.1,0,3.2c-0.7,0.4-0.9,0-0.9-0.6c-0.9-0.2-1-0.4-0.8-2.6
		c0.2,0,0.5-0.1,0.7-0.2c0-0.5,0-1,0-1.3c-0.8-0.8-1.5-1.5-2.2-2.1c-0.1,0.1-0.2,0.1-0.3,0.2c0,1.2,0,2.5,0,3.7c0,0.4,0,0.9,0,1.3
		c0,0.7,0,0.7-0.8,1c0,1.6,0,3.2,0,4.9c0.3,0.1,0.5,0.1,0.8,0.2c0,1.1,0,2.1,0,3.2c-0.8,0-1.6,0-2.2,0c-1.1-1.1-2.1-2.1-3.2-3.3
		c-1.1,0-2.4,0-3.7,0c-0.1-0.3-0.1-0.6-0.2-0.8c-0.9-0.2-1-0.6-0.6-2.4c0.2-0.3,0.4-0.6,0.7-0.8C2.6,70,2.8,69.9,3,69.9
		c0.3,0,0.7,0,1.1,0c0-0.5,0-0.8,0-1.2c0-0.4,0-0.8,0-1.2c0.3-0.1,0.5-0.1,0.8-0.2c0-2.7,0-5.5,0-8.3c0.8,0,0.9-0.4,0.9-1
		c0-1.9,0-3.8,0-5.7c0.7,0.1,0.9-0.3,0.9-0.9c0-0.5,0-1,0-1.5c0.8,0,0.9-0.5,0.8-1.2c0-1.3,0-2.5,0-3.9c-0.3-0.1-0.5-0.2-0.8-0.3
		c0-0.5,0-0.9,0-1.4c0.7-0.2,0.7-0.2,0.8-1.5c0.4-0.3,0.7-0.6,1-0.9c0-0.1-0.1-0.2-0.1-0.2c0.5,0,1,0,1.5-0.1
		c0.1-0.2,0.1-0.5,0.2-0.8c0.5,0,1,0,1.2,0c0.5-0.6,0.9-1,1.5-1.7c0.3,0,0.8,0,1,0c0.4-0.4,0.6-0.6,0.8-0.9c0.2,0.2,0.4,0.4,0.7,0.8
		c0.5,0,1.3,0,1.8,0c0.7,0.7,1.3,1.3,1.8,1.9c0.1,0,0.1-0.1,0.2-0.1c0,0.5,0,1,0,1.5c0.3,0.1,0.5,0.1,0.9,0.2c0,0.7,0,1.5,0,2.3
		c0.3,0.1,0.5,0.1,0.9,0.2c0,1.6,0,3.2,0,4.8c0.3,0.1,0.6,0.1,0.9,0.2c0,0.8,0,1.5,0,2.3c0.3,0.1,0.5,0.1,0.8,0.2c0,1.6,0,3.2,0,4.9
		c0.3,0.1,0.5,0.1,0.8,0.2c0,0.2,0.1,0.4,0.1,0.6c0,3.5,0,6.9,0,10.4c0,0.6,0.1,0.9,0.8,0.8c0,0.5,0,1,0,1.5
		c0.3,0.1,0.5,0.2,0.8,0.2c0,0.5,0.1,1,0.1,1.6C25.6,71.6,25.8,71.5,26,71.5C26.1,71.5,26,71.5,26,71.5z M15.9,53c0-0.8,0-1.6,0-2.4
		c-0.3-0.1-0.6-0.2-0.8-0.2c0-0.5,0-1,0-1.5c-0.3-0.1-0.5-0.1-0.8-0.2c0-0.5-0.1-1-0.1-1.7c-1.4,0.6-0.4,1.9-1,2.6
		c-0.5,0-0.7,0.3-0.7,0.8c0,0.5,0,1,0,1.5c0.1,0.7,0,1.2-0.8,1.2c0,0.8,0,1.6,0,2.3c0.1,0,0.1-0.1,0.2-0.1c0.3,0.3,0.6,0.6,0.9,1
		c1,0,2,0,3.1,0c0-0.6,0-1,0-1.5c0.8-0.2,1.1-1.2,0.7-1.7C16.5,53.1,16.2,53,15.9,53z"/>
	<path fill="#AA7BFF" d="M35.4,35.4c0.3,0,0.5-0.1,0.7-0.1c0-0.2,0.1-0.5,0.1-0.8c0.5,0,1,0,1.6,0c0,0.5,0,1,0,1.6c-0.5,0-1,0-1.6,0
		c0,0.3-0.1,0.6-0.1,0.8C35.3,37,35.3,37,35.4,35.4z"/>
	<path fill="#AA7BFF" d="M30.2,33.6c-0.5,0-1,0-1.6,0c0-0.8,0-1.6,0-2.4c0.5,0,1,0,1.6,0C30.2,31.9,30.2,32.7,30.2,33.6z"/>
</g>
<g>
	<g>
		<path fill="#AA7BFF" d="M265.6,67.1c0.7,0,1.2,0,1.7,0c0.5-1.9,1.9-0.6,3-1.1c0.1,0.4,0.1,0.7,0.2,1.1c1.2,0,2.4,0,3.7,0
			c-0.1,0.9,0.4,1,1.1,1c0.4,0,0.7,0.3,1.1,0.5c0,0.1-0.1,0.2-0.1,0.4c0.6,0,1.1,0,1.4,0c1.5,1.5,2.8,2.8,4,4.1
			c0.1-0.1,0.2-0.1,0.2-0.2c0,0.6,0.1,1.1,0.1,1.7c0.3,0.1,0.5,0.1,0.9,0.2c0,0.6,0,1.1,0,1.7c0.4,0.1,0.6,0.2,0.9,0.2
			c0.3,0.7-0.4,1.9,1,1.9c0,0.9,0,1.7,0,2.6c0.3,0.1,0.6,0.1,1,0.2c0,0.9,0,1.8,0,2.4c0.4,0.4,0.7,0.6,0.9,0.9
			c0.2,0.2,0.5,0.4,1,0.7c0-0.9,0-1.5,0-1.8c0.7-0.6,1.2-1,1.9-1.6c0-0.3,0-0.8,0.1-1.4c0.9-0.2,0.9-0.2,0.9,0.8c0,0.6,0,1.1,0,1.4
			c0.5,0.5,0.8,0.8,1.2,1.1c-0.1,0.1-0.1,0.2-0.2,0.3c1.2,0,2.4,0,3.6,0c0.1,0.7-1,1.9-1.8,2.1c0,0.5,0,1,0,1.6
			c-0.1,0.1-0.2,0.1-0.3,0.2c-0.2,0.2-0.4,0.4-0.7,0.5c0.3,0.1,0.5,0.4,0.8,0.4c1.5,0,3,0,4.5,0c1.1,0,2.2,0,3.3,0
			c0.4,0,0.8,0.3,1.2,0.5c0,0.1-0.1,0.2-0.1,0.4c1.2,0,2.4,0,3.5,0c0.5,1.9,2,0.5,2.8,1c0.6,0.7,1,1.2,1.6,1.9c0.3,0,0.8,0,1.1,0
			c1.1,1.1,2.1,2.1,3,3.1c0.1,0,0.1-0.1,0.2-0.1c0,0.6,0,1.1,0,1.7c0.4,0.1,0.6,0.2,0.9,0.2c0.2,1.7,0.2,1.7,1,2c0,1,0,1.9,0,2.9
			c0,0.2,0,0.4-0.1,0.9c-0.7-0.5-1.3-0.8-1.7-1.2c-0.5-0.5-0.8-1.1-1.3-1.8c-0.7,0-1.6,0-2.5,0c-0.1-0.3-0.1-0.6-0.2-0.8
			c-0.1,0-0.2-0.1-0.3-0.1c-1.2,0-2.3-0.1-3.5,0c-0.4,0-0.8,0.4-1.2,0.6c0,0.1,0.1,0.2,0.1,0.3c-0.8,0-1.7,0-2.6,0
			c-0.1,1.5-1.1,0.9-2,1c0-0.4-0.1-0.7-0.1-1c0-0.5,0.1-0.9-0.6-1c-0.2,0-0.3-0.5-0.5-0.9c-0.5,0-1-0.1-0.8-0.8
			c-0.7-0.5-2,0.5-1.9-1.1c-2.5,0-5,0-7.5,0c0.1,0.9-0.4,1-1.1,0.9c-0.3,0-0.6,0-0.8,0c-0.7-0.1-1.2,0.1-1.1,1c-0.6,0-1.2,0-1.8,0
			c-0.1,0.3-0.1,0.6-0.2,0.9c-0.6,0-1.1,0.1-1.5,0.1c-0.3,0.4-0.6,0.6-0.8,0.9c-0.2,0.3-0.5,0.5-0.8,0.9c-1.3-0.2-2,0.8-2.7,1.9
			c-0.9,0-1-0.2-0.7-2.7c0.3,0,0.6-0.1,0.9-0.2c0-0.9,0-1.8,0-2.7c0.9,0,1-0.5,1-1.2c0-2.8,0-5.6,0-8.3c0-0.6,0.2-1.4-0.9-1.2
			c0-1,0-1.8,0-2.4c-1.2-1.2-2.2-2.1-3.1-3.1c0.1-0.1,0.1-0.2,0.2-0.2c-0.6,0-1.1,0-1.7,0c-0.1-0.3-0.2-0.6-0.3-0.9
			c-0.6,0-1.2-0.1-1.8-0.1c0-1.6,0-3.1,0-4.7c-1.4,0-0.9-1.1-0.9-1.7c-0.1-0.6,0.2-1.5-1-1.3c0-0.6,0-1.2,0-1.4
			c-0.8-0.8-1.5-1.5-2.2-2.1c-0.5-0.2-1-0.3-0.8-1C266.8,67.7,265.6,68.7,265.6,67.1z"/>
		<path fill="#AA7BFF" d="M276.9,22.8c0.4-0.5,0.9-1,1.4-1.7c0.4,0,0.9-0.1,1.5-0.1c0.1-0.3,0.2-0.6,0.3-1c0.6,0,1.1,0,1.7,0
			c0-1,0.6-0.9,1.3-0.9c1.2,0,2.3,0,3.5,0c0.1-0.4,0.1-0.6,0.2-1c1.6,0,3.1,0,4.6,0c0,0.3,0.1,0.6,0.2,0.9c1.8,0,3.6,0,5.5,0
			c0.2,1.4,1.2,0.9,1.9,0.9c0.1-0.1,0.2-0.2,0.2-0.2c-0.3-0.3-0.5-0.6-0.8-0.9c-0.1,0-0.1,0.1-0.2,0.1c0-0.6,0-1.1-0.1-1.7
			c-0.3-0.1-0.6-0.2-1-0.3c0-0.4,0.1-0.7,0-1.1c-0.1-0.3-0.3-0.5-0.5-0.7c-0.2-0.2-0.3-0.5-0.6-0.9c0.8,0,1.4,0,2,0
			c0.1,1.4,1.2,0.7,1.6,0.8c0.5-0.5,0.9-0.8,1.3-1.3c0-0.3,0.1-0.9,0.1-1.5c0.6,0,1.2,0,1.8,0c0,0.5,0.1,1.1,0.1,1.7
			c0.3,0.1,0.5,0.2,0.9,0.3c0,0.5,0,1.1,0,1.7c0.7,0,1.2,0,1.9,0c0-0.9,0-1.8,0-2.6c0.4-0.1,0.7-0.2,1-0.3c0-0.5,0.1-1.1,0.1-1.5
			c0.6-0.5,1.2-1,1.8-1.6c0-0.3,0-0.9,0.1-1.2c2.4-2.4,4.7-4.7,7.1-7.1c0.5,0,1.4,0,2.3,0c-0.1-1,0.5-1,1.2-1c2.8,0,5.5,0,8.4,0
			c0,0.7,0,1.2,0,1.9c-0.6,0-1.1,0.1-1.7,0.1c-0.1,0.3-0.1,0.6-0.2,0.9c-0.6,0-1.1,0-1.4,0c-0.8,0.8-1.5,1.5-2.1,2.2
			c-0.1,0-0.1-0.1-0.2-0.1c0,0.6-0.1,1.1-0.1,1.7c-0.3,0.1-0.6,0.1-0.9,0.2c0,0.9,0,1.8,0,2.7c-0.3,0.1-0.6,0.2-1,0.3
			c0,1.2,0,2.4,0,3.6c-1.3,0-2.5,0-3.7,0c-0.1,0.4-0.1,0.6-0.2,0.9c-0.6,0-1.1,0.1-1.4,0.1c-1.2,1.2-2.1,2.1-3.3,3.3
			c-0.2,1.4-0.2,1.4-1,1.6c0,1.8,0,3.6,0,5.5c-0.3,0.1-0.6,0.2-1,0.3c0,1-0.1,2.1,0,3.1c0,0.3,0.4,0.6,0.7,0.9
			c0.1,0,0.2-0.1,0.2-0.1c0,1.9,0,3.7,0,5.9c-0.7-0.5-1.3-0.9-1.8-1.4c-0.5-0.5-0.8-1.1-1.3-1.7c-0.4,0-0.9,0-1.2,0
			c-0.9-1-1.7-1.8-2.7-2.8c-0.3,0-0.8,0-1.2-0.1c-0.6-0.7-1-1.2-1.6-1.9c-0.7,0-1.5,0-2.4,0c-0.1-0.3-0.2-0.6-0.2-1
			c-2.2,0-4.3,0-6.6,0c0,0.3-0.1,0.6-0.1,0.9c-0.6,0-1.1,0-1.6,0c0,0.1,0.1,0.2,0.1,0.2c-0.3,0.3-0.7,0.5-1,0.8
			c-0.4,0.4-0.8,0.8-1.2,1.3c-0.2,0.2-0.3,0.4-0.5,0.6c-0.2-0.2-0.5-0.5-0.9-0.9c-0.3,0-0.8,0-1.4-0.1c-0.1-0.3-0.1-0.6-0.2-1
			c-0.6,0-1.1,0-1.8,0c0.1-0.9-0.4-1-1.1-0.9c-1.5,0-3,0-4.5,0c-1,0-1,0-1.3,0.9c-0.3,0-0.5,0-0.8,0c-0.2,0-0.5,0-0.7,0
			c-0.4,0.9-1.1,1.5-2.1,2.1c0-0.8,0-1.4,0-2c0.2-0.1,0.5-0.1,0.9-0.2c0-0.5,0-1.1,0-1.7c0.3-0.1,0.6-0.1,0.9-0.2c0-0.6,0-1.1,0-1.3
			C275.2,24.4,276,23.6,276.9,22.8C276.9,22.8,276.9,22.8,276.9,22.8z"/>
		<path fill="#AA7BFF" d="M394,48.4c0,0.2,0,0.7,0,1.3c-0.3,0.1-0.6,0.1-0.9,0.2c0,1.5,0,3,0,4.6c-0.3,0.1-0.6,0.2-1,0.3
			c0,3.1,0,6.2,0,9.3c-0.1,0.1-0.2,0.1-0.3,0.2c-0.5-0.4-1-0.8-1.6-1.3c0-0.3,0-0.8,0-1.1c-1.1-1.1-2.1-2.1-3.1-3.1
			c0-0.1,0.1-0.1,0.1-0.2c-0.6,0-1.1,0-1.7,0c0-0.1,0.1-0.2,0.1-0.2c-0.3-0.3-0.7-0.5-1-0.8c-0.5-0.5-1-1.1-1.4-1.7
			c-0.5-0.5-1.8,0.5-1.9-1.1c-0.9,0-1.7,0-2.6,0c-0.1-0.3-0.2-0.6-0.2-0.9c-0.1,0-0.1-0.1-0.2-0.1c-1.4,0-2.9,0-4.4,0
			c-0.1,0.3-0.1,0.6-0.2,0.9c-0.5,0-1.1,0-1.4,0c-0.6,0.7-1.1,1.2-1.7,1.9c-0.6,0-1.5,0-2.4,0c-0.2-0.9-0.2-0.9-1.9-1
			c-0.1-0.3-0.2-0.5-0.3-0.9c-0.6,0-1.1,0-1.7,0c0-0.9-0.5-1-1.3-1c-1.8,0.1-3.6,0-5.4,0c-0.1,0.4-0.1,0.6-0.2,1c-0.6,0-1.1,0-1.4,0
			c-0.5,0.4-0.8,0.7-1.1,1.1c-0.1-0.1-0.2-0.1-0.2-0.2c0-0.6,0-1.1,0-1.7c0.3-0.1,0.6-0.1,0.9-0.2c0-0.5,0-1,0-1.3
			c1.5-1.5,2.8-2.8,4.1-4.1c-0.1-0.1-0.1-0.1-0.2-0.2c0.6,0,1.1,0,1.5,0c0.6-0.7,1-1.2,1.6-1.9c1,0,2.2,0,3.4,0
			c0.1-0.3,0.1-0.6,0.2-0.9c2.5,0,4.9,0,7.4,0c0.1,0.2,0.1,0.5,0.2,0.9c1.5,0,3,0,4.4,0c0.5,1.1,1,1.2,3,0.8c0-0.5,0-1.1,0-1.7
			c-0.3-0.1-0.5-0.2-0.8-0.2c0-0.6-0.1-1.1-0.1-1.7c-0.3-0.1-0.6-0.1-0.9-0.2c0-0.6,0-1.1,0-1.7c0.5-0.1,0.9-0.4,1,0.5
			c0,0.1,0.2,0.3,0.3,0.4c0.3,0.2,0.6,0.5,1.1,0.8c0.4-0.1,1.3,0.6,1.6-0.7c0-0.1,0.5-0.1,0.8-0.2c0-0.5,0-1.1,0-1.7
			c0.6,0,1.2,0,1.9,0c0,0.6,0,1.1,0,1.7c0.4,0.1,0.6,0.2,1,0.3c0,0.8,0,1.7,0,2.6c0.1,0.1,0.2,0.1,0.3,0.2c0.5-0.4,1-0.8,1.6-1.3
			c0-0.3,0-0.8,0-1.4c1.4-0.1,0.8-1.1,1-1.7c0.4-0.3,0.7-0.5,1-0.8c0.3-0.2,0.5-0.5,0.9-0.9c0-0.3,0-0.8,0-1
			c1.5-1.5,2.8-2.8,4.3-4.3c0.3,0,0.8,0,1.2,0c0.6-0.7,1-1.2,1.6-1.9c0.4,0,0.9,0,1.5,0c0.1-0.3,0.2-0.6,0.2-1c1.5,0,3,0,4.5,0
			c0.1-0.3,0.2-0.6,0.3-0.9c0.5,0,1.1,0,1.7,0c0.1,0.3,0.2,0.5,0.3,0.9c1.2,0,2.3,0,3.6,0c0.1,0.3,0.2,0.6,0.2,0.8
			c0.5,0.7,1.8-0.4,1.8,1.1c-0.9,0-1.8,0-2.6,0c-0.1,0.3-0.2,0.6-0.3,1c-0.5,0-1.1,0-1.3,0c-1.2,1.2-2.2,2.2-3.4,3.3
			c0,0.2,0,0.7,0,1.3c-1.4,0.1-1,1.1-1,1.8c0,0.6,0.2,1.4-0.9,1.2c0,0.6-0.1,1.2-0.1,1.8c-0.9,0.1-1.8,0.1-2.7,0.2
			c-0.1,0-0.2,0.5-0.3,0.8c-0.8,0-1.7,0-2.3,0C396.8,45.6,395.5,46.9,394,48.4z"/>
		<path fill="#AA7BFF" d="M383.7,69c-0.5,0.8-0.8,1.4-1.3,1.8c-0.5,0.5-1.1,0.8-1.8,1.3c0,1.4,0,2.9,0,4.5c-0.6,0-1.2,0.1-1.5,0.1
			c-0.8,0.8-1.5,1.5-2.3,2.4c0,2.3,0,5,0,7.6c0,0.3,0.5,0.5,0.8,0.9c0,0.3,0,0.9,0,1.8c-0.7-0.6-1.2-1-1.8-1.5c0,0,0-0.3-0.1-0.5
			c-0.9-0.6-2.4,0.6-3-1c-1.7,0-3.6,0-5.1,0c-0.8,0.7-1.5,1.3-2.1,1.9c-0.1,0.1-0.2,0.1-0.3,0.2c-0.2,0.2-0.3,0.5-0.5,0.7
			c-0.2-0.3-0.4-0.5-0.7-0.9c-1,0-2.2,0-3.5,0c-0.1,0.3-0.2,0.6-0.2,0.9c-0.3,0-0.6,0-0.9,0c-0.4,0-0.9-0.1-1,0.6
			c0,0.1-0.4,0.3-0.8,0.5c0-1.1,0-1.9,0-2.8c0.5-0.5,1.1-0.9,1.6-1.4c0,0,0,0,0-0.1c0.3-0.2,0.6-0.5,0.8-0.7c0.5-0.6,1-1.2,1.7-1.9
			c0.3,0,0.8,0,1.4,0c0.1-0.3,0.2-0.6,0.3-0.9c2.2,0,4.3,0,6.4,0c0.1-0.1,0.2-0.2,0.3-0.2c-0.2-0.3-0.4-0.5-0.6-0.8
			c-0.5-0.5-1-1.1-1.5-1.6c0.1-0.1,0.1-0.2,0.2-0.3c0.6,0,1.1,0,1.8,0c0-0.6,0-1.2,0-1.8c0.1-0.1,0.2-0.1,0.3-0.2
			c0.2,0.2,0.5,0.4,0.7,0.6c0.5,0.5,1.1,1,1.6,1.5c0.9-1-0.6-2.7,1.3-3.1c0-0.5,0-1,0-1.6c0.3-0.1,0.6-0.2,0.9-0.3
			c0-0.5,0.1-1.1,0.1-1.3c1.1-1.1,2.1-2.1,3.3-3.3c0.2,0,0.7,0,1.3,0c0.1-0.3,0.2-0.6,0.3-1c0.6,0,1.2,0,1.8,0
			C382.2,69,382.8,69,383.7,69z"/>
		<path fill="#AA7BFF" d="M365.8,113.1c-0.3,0-0.8,0-1,0c-1.1,1.2-2.1,2.1-3.1,3.1c-0.1,0-0.1-0.1-0.2-0.1c0,0.6,0,1.1,0,1.7
			c-0.7,0.3-1,0.2-1-0.6c0-1,0-2,0-3.1c0-0.7,0-1.2-0.9-1.1c0-0.9,0-1.8,0-2.3c-1.2-1.1-2.2-2.1-3.4-3.3c-0.5,0-1.4,0-2.3,0
			c-0.2-0.5-0.1-1.3-1.1-1c0-0.7,0-1.2,0-1.5c-0.8-0.8-1.5-1.4-2.2-2.1c0.1-0.1,0.1-0.2,0.2-0.2c-0.6,0-1.1,0-1.7,0
			c0-0.6,0-1.2,0-1.9c2.1,0,4.3,0,6.5,0c0,0.8,0.4,1,1.2,0.9c0.4-0.1,0.7,0,0.9,0.6c0.3,0.6,1,0.9,1.5,1.4c0.1,0.1,0.2,0.2,0.3,0.3
			c0.2,0.3,0.4,0.5,0.9,0.7c0,0.5,0.1,1.1,0.1,1.5c0.6,0.6,1.1,1,1.6,1.4c0.8-1-0.4-2.4,0.8-3c0.9,0.8,1.6,1.5,2.4,2.4
			c0,0.2,0,0.8,0,1.4c0.6,0,1.2,0,1.8,0c0.1-0.3,0.1-0.5,0.2-0.9c1.5,0,3.1,0,4.4,0c0.4-0.4,0.6-0.7,0.8-1c0.2,0.3,0.5,0.5,0.9,1
			c1,0,2.1,0,3.1,0c0.6,0.7,1,1.2,1.4,1.7c0,0,0,0,0.1-0.1c0.6,0.6,1.2,1.2,1.8,1.8c-0.1,0.1-0.1,0.2-0.2,0.3c-1.8,0-3.7,0-5.5,0
			c0,0.1,0.1,0.2,0.1,0.3c-0.3,0.3-0.6,0.5-0.9,0.8c-0.1,0.1-0.2,0.2-0.3,0.3c-0.2,0.2-0.4,0.4-0.6,0.6c-0.2-0.2-0.4-0.5-0.7-0.9
			c-1.5,0-3.2,0-4.9,0C366.5,112.2,366.2,112.7,365.8,113.1z"/>
		<path fill="#AA7BFF" d="M281.4,45c-0.8,0.9-1.5,1.5-2.1,2.2c-0.1,0-0.1-0.1-0.2-0.1c0,0.6,0,1.1,0,1.5c-0.5,0.4-0.9,0.7-1.3,1
			c0,0.1,0.1,0.2,0.1,0.3c-0.9,0-1.7,0-2.6,0c-0.1,0.3-0.1,0.6-0.2,1c-0.6,0-1.1,0.1-1.8,0.1c0,0.6-0.1,1.2-0.1,1.8
			c-0.3,0.1-0.6,0.1-0.9,0.2c0,0.6,0,1.1,0,1.7c-0.9,0-1,0.6-1,1.3c0.1,1.1,0,2.3,0,3.5c-0.7,0-1.2,0-1.9,0c0-0.6-0.1-1.1-0.1-1.4
			c-1.1-1.1-2.1-2.1-3.1-3.1c0-0.1,0.1-0.1,0.1-0.2c-0.6,0-1.1,0-1.7-0.1c-0.1-0.3-0.1-0.6-0.2-0.9c-1.6,0-3.1,0-4.4,0
			c-0.3,0.4-0.6,0.7-1.1,1.3c-0.2-0.7-0.3-1-0.3-1.2c-0.7-0.3-1.9,0.5-1.9-1c-1.5,0-3,0-4.6,0c0-0.6,0-1.1,0-1.6
			c0.4-0.4,0.7-0.8,1.2-1.3c0.3,0,0.8,0,1.4,0c0.1-0.3,0.2-0.6,0.3-0.9c2.8,0,5.6,0,8.4,0c0.1,0.3,0.1,0.5,0.2,0.8
			c0.6,0,1.1,0,1.5,0.1c0.4,0.4,0.7,0.8,1,1.1c0.1-0.1,0.2-0.1,0.3-0.2c0-0.6,0-1.2,0-1.5c-0.4-0.4-0.7-0.8-1-1.1
			c0.1-0.1,0.1-0.2,0.2-0.3c0.9,0,1.8,0,2.4,0c0.4-0.4,0.6-0.7,0.9-1c0.1,0.3,0.4,0.6,0.4,1c0.1,0.5,0,1.1,0.3,1.9
			c0.2-0.2,0.5-0.4,0.7-0.6c0.3-0.2,0.8-0.4,0.9-0.7c0.2-0.4,0-0.9,0-1.1c0.8-0.8,1.5-1.5,2.2-2.1c0-0.1-0.1-0.1-0.1-0.2
			c0.6,0,1.1-0.1,1.7-0.1c0.1-0.3,0.1-0.5,0.2-0.9c0.6,0,1.1,0,1.7,0c0.1-0.4,0.1-0.6,0.2-1c1.9,0,3.7,0,5.5,0
			c0,0.1-0.1,0.1-0.1,0.2c0.3,0.3,0.6,0.5,0.9,0.8c0.1,0.1,0.3,0.4,0.3,0.5c0,0.2-0.3,0.3-0.5,0.3C282.5,45,281.8,45,281.4,45z"/>
		<path fill="#AA7BFF" d="M369.1,20.9c0-0.5,0-1,0-1.7c-0.6,0-1.2-0.1-1.8-0.1c-0.1-0.1-0.2-0.2-0.2-0.2c0.3-0.3,0.5-0.6,0.8-1
			c0.1,0.1,0.2,0.1,0.3,0.2c0-0.5,0-1.1,0-1.8c-2.1,0-4.3,0-6.5,0c-0.1-0.4-0.2-0.6-0.3-1c-0.5,0-1.1-0.1-1.7-0.1
			c-0.1-0.3-0.1-0.5-0.2-0.9c-0.6,0-1.1,0-1.4,0c-0.5-0.5-0.9-0.9-1.2-1.3c-0.4-0.5,0.4-1.7-1.1-1.8c0-0.9,0-1.7,0-2.5
			c0.6-0.1,1.8,0.8,2,1.7c1.8,0,3.6,0,5.4,0c0.5,0,1.2-0.2,1.2,0.7c0,0.1,0.6,0.2,0.8,0.4c0.2,0.2,0.1,0.5,0.2,0.8
			c2.2,0,4.3,0,6.5,0c0.1-0.3,0.1-0.5,0.2-0.9c0.5,0,1.1,0,1.3,0c0.8-0.8,1.4-1.5,2-2.1c0.1,0.1,0.2,0.1,0.3,0.2c0,0.9,0,1.8,0,2.8
			c-0.8-0.1-0.9,0.4-0.9,1.1c0,1.6,0,3.2,0,4.7c0,0.5,0,0.7,0.6,1c0.6,0.3,1.1,1.1,1.7,1.8c0.4,0,0.9,0,1.6,0.1c0,1,0,1.9,0,2.9
			c0,0.4,0.3,0.7,0.5,1.1c0.1,0,0.2-0.1,0.4-0.1c0,0.5,0,1.1,0.1,1.6c0.1,0,0.1-0.1,0.2-0.1c0.6,0.6,1.2,1.3,1.8,1.9
			c-0.1,0.1-0.1,0.2-0.2,0.3c-1.5,0-3,0-4.3,0c-1.4-1.4-2.7-2.7-4-4c-0.1,0-0.1,0.1-0.2,0.1c0-0.6-0.1-1.1-0.1-1.7
			c-0.3-0.1-0.5-0.1-0.9-0.2c0-1.2,0-2.4,0-3.6c-0.1-0.1-0.2-0.2-0.2-0.2c-0.3,0.2-0.5,0.4-0.8,0.6c-0.5,0.5-1.1,1-1.6,1.5
			C369.3,21.1,369.2,21,369.1,20.9z"/>
	</g>
	<g>
		<path d="M264.8,66.2c0.7,0,1.2,0,1.7,0c0.5-1.9,1.9-0.6,3-1.1c0.1,0.4,0.1,0.7,0.2,1.1c1.2,0,2.4,0,3.7,0c-0.1,0.9,0.4,1,1.1,1
			c0.4,0,0.7,0.3,1.1,0.5c0,0.1-0.1,0.2-0.1,0.4c0.6,0,1.1,0,1.4,0c1.5,1.5,2.8,2.8,4,4.1c0.1-0.1,0.2-0.1,0.2-0.2
			c0,0.6,0.1,1.1,0.1,1.7c0.3,0.1,0.5,0.1,0.9,0.2c0,0.6,0,1.1,0,1.7c0.4,0.1,0.6,0.2,0.9,0.2c0.3,0.7-0.4,1.9,1,1.9
			c0,0.9,0,1.7,0,2.6c0.3,0.1,0.6,0.1,1,0.2c0,0.9,0,1.8,0,2.4c0.4,0.4,0.7,0.6,0.9,0.9c0.2,0.2,0.5,0.4,1,0.7c0-0.9,0-1.5,0-1.8
			c0.7-0.6,1.2-1,1.9-1.6c0-0.3,0-0.8,0.1-1.4c0.9-0.2,0.9-0.2,0.9,0.8c0,0.6,0,1.1,0,1.4c0.5,0.5,0.8,0.8,1.2,1.1
			c-0.1,0.1-0.1,0.2-0.2,0.3c1.2,0,2.4,0,3.6,0c0.1,0.7-1,1.9-1.8,2.1c0,0.5,0,1,0,1.6c-0.1,0.1-0.2,0.1-0.3,0.2
			c-0.2,0.2-0.4,0.4-0.7,0.5c0.3,0.1,0.5,0.4,0.8,0.4c1.5,0,3,0,4.5,0c1.1,0,2.2,0,3.3,0c0.4,0,0.8,0.3,1.2,0.5
			c0,0.1-0.1,0.2-0.1,0.4c1.2,0,2.4,0,3.5,0c0.5,1.9,2,0.5,2.8,1c0.6,0.7,1,1.2,1.6,1.9c0.3,0,0.8,0,1.1,0c1.1,1.1,2.1,2.1,3,3.1
			c0.1,0,0.1-0.1,0.2-0.1c0,0.6,0,1.1,0,1.7c0.4,0.1,0.6,0.2,0.9,0.2c0.2,1.7,0.2,1.7,1,2c0,1,0,1.9,0,2.9c0,0.2,0,0.4-0.1,0.9
			c-0.7-0.5-1.3-0.8-1.7-1.2c-0.5-0.5-0.8-1.1-1.3-1.8c-0.7,0-1.6,0-2.5,0c-0.1-0.3-0.1-0.6-0.2-0.8c-0.1,0-0.2-0.1-0.3-0.1
			c-1.2,0-2.3-0.1-3.5,0c-0.4,0-0.8,0.4-1.2,0.6c0,0.1,0.1,0.2,0.1,0.3c-0.8,0-1.7,0-2.6,0c-0.1,1.5-1.1,0.9-2,1
			c0-0.4-0.1-0.7-0.1-1c0-0.5,0.1-0.9-0.6-1c-0.2,0-0.3-0.5-0.5-0.9c-0.5,0-1-0.1-0.8-0.8c-0.7-0.5-2,0.5-1.9-1.1c-2.5,0-5,0-7.5,0
			c0.1,0.9-0.4,1-1.1,0.9c-0.3,0-0.6,0-0.8,0c-0.7-0.1-1.2,0.1-1.1,1c-0.6,0-1.2,0-1.8,0c-0.1,0.3-0.1,0.6-0.2,0.9
			c-0.6,0-1.1,0.1-1.5,0.1c-0.3,0.4-0.6,0.6-0.8,0.9c-0.2,0.3-0.5,0.5-0.8,0.9c-1.3-0.2-2,0.8-2.7,1.9c-0.9,0-1-0.2-0.7-2.7
			c0.3,0,0.6-0.1,0.9-0.2c0-0.9,0-1.8,0-2.7c0.9,0,1-0.5,1-1.2c0-2.8,0-5.6,0-8.3c0-0.6,0.2-1.4-0.9-1.2c0-1,0-1.8,0-2.4
			c-1.2-1.2-2.2-2.1-3.1-3.1c0.1-0.1,0.1-0.2,0.2-0.2c-0.6,0-1.1,0-1.7,0c-0.1-0.3-0.2-0.6-0.3-0.9c-0.6,0-1.2-0.1-1.8-0.1
			c0-1.6,0-3.1,0-4.7c-1.4,0-0.9-1.1-0.9-1.7c-0.1-0.6,0.2-1.5-1-1.3c0-0.6,0-1.2,0-1.4c-0.8-0.8-1.5-1.5-2.2-2.1
			c-0.5-0.2-1-0.3-0.8-1C266,66.8,264.8,67.8,264.8,66.2z"/>
		<path d="M276.1,21.9c0.4-0.5,0.9-1,1.4-1.7c0.4,0,0.9-0.1,1.5-0.1c0.1-0.3,0.2-0.6,0.3-1c0.6,0,1.1,0,1.7,0c0-1,0.6-0.9,1.3-0.9
			c1.2,0,2.3,0,3.5,0c0.1-0.4,0.1-0.6,0.2-1c1.6,0,3.1,0,4.6,0c0,0.3,0.1,0.6,0.2,0.9c1.8,0,3.6,0,5.5,0c0.2,1.4,1.2,0.9,1.9,0.9
			c0.1-0.1,0.2-0.2,0.2-0.2c-0.3-0.3-0.5-0.6-0.8-0.9c-0.1,0-0.1,0.1-0.2,0.1c0-0.6,0-1.1-0.1-1.7c-0.3-0.1-0.6-0.2-1-0.3
			c0-0.4,0.1-0.7,0-1.1c-0.1-0.3-0.3-0.5-0.5-0.7c-0.2-0.2-0.3-0.5-0.6-0.9c0.8,0,1.4,0,2,0c0.1,1.4,1.2,0.7,1.6,0.8
			c0.5-0.5,0.9-0.8,1.3-1.3c0-0.3,0.1-0.9,0.1-1.5c0.6,0,1.2,0,1.8,0c0,0.5,0.1,1.1,0.1,1.7c0.3,0.1,0.5,0.2,0.9,0.3
			c0,0.5,0,1.1,0,1.7c0.7,0,1.2,0,1.9,0c0-0.9,0-1.8,0-2.6c0.4-0.1,0.7-0.2,1-0.3c0-0.5,0.1-1.1,0.1-1.5c0.6-0.5,1.2-1,1.8-1.6
			c0-0.3,0-0.9,0.1-1.2c2.4-2.4,4.7-4.7,7.1-7.1c0.5,0,1.4,0,2.3,0c-0.1-1,0.5-1,1.2-1c2.8,0,5.5,0,8.4,0c0,0.7,0,1.2,0,1.9
			c-0.6,0-1.1,0.1-1.7,0.1c-0.1,0.3-0.1,0.6-0.2,0.9c-0.6,0-1.1,0-1.4,0c-0.8,0.8-1.5,1.5-2.1,2.2c-0.1,0-0.1-0.1-0.2-0.1
			c0,0.6-0.1,1.1-0.1,1.7c-0.3,0.1-0.6,0.1-0.9,0.2c0,0.9,0,1.8,0,2.7c-0.3,0.1-0.6,0.2-1,0.3c0,1.2,0,2.4,0,3.6c-1.3,0-2.5,0-3.7,0
			c-0.1,0.4-0.1,0.6-0.2,0.9c-0.6,0-1.1,0.1-1.4,0.1c-1.2,1.2-2.1,2.1-3.3,3.3c-0.2,1.4-0.2,1.4-1,1.6c0,1.8,0,3.6,0,5.5
			c-0.3,0.1-0.6,0.2-1,0.3c0,1-0.1,2.1,0,3.1c0,0.3,0.4,0.6,0.7,0.9c0.1,0,0.2-0.1,0.2-0.1c0,1.9,0,3.7,0,5.9
			c-0.7-0.5-1.3-0.9-1.8-1.4c-0.5-0.5-0.8-1.1-1.3-1.7c-0.4,0-0.9,0-1.2,0c-0.9-1-1.7-1.8-2.7-2.8c-0.3,0-0.8,0-1.2-0.1
			c-0.6-0.7-1-1.2-1.6-1.9c-0.7,0-1.5,0-2.4,0c-0.1-0.3-0.2-0.6-0.2-1c-2.2,0-4.3,0-6.6,0c0,0.3-0.1,0.6-0.1,0.9c-0.6,0-1.1,0-1.6,0
			c0,0.1,0.1,0.2,0.1,0.2c-0.3,0.3-0.7,0.5-1,0.8c-0.4,0.4-0.8,0.8-1.2,1.3c-0.2,0.2-0.3,0.4-0.5,0.6c-0.2-0.2-0.5-0.5-0.9-0.9
			c-0.3,0-0.8,0-1.4-0.1c-0.1-0.3-0.1-0.6-0.2-1c-0.6,0-1.1,0-1.8,0c0.1-0.9-0.4-1-1.1-0.9c-1.5,0-3,0-4.5,0c-1,0-1,0-1.3,0.9
			c-0.3,0-0.5,0-0.8,0c-0.2,0-0.5,0-0.7,0c-0.4,0.9-1.1,1.5-2.1,2.1c0-0.8,0-1.4,0-2c0.2-0.1,0.5-0.1,0.9-0.2c0-0.5,0-1.1,0-1.7
			c0.3-0.1,0.6-0.1,0.9-0.2c0-0.6,0-1.1,0-1.3C274.4,23.5,275.2,22.7,276.1,21.9C276.1,21.9,276.1,21.9,276.1,21.9z"/>
		<path d="M393.2,47.5c0,0.2,0,0.7,0,1.3c-0.3,0.1-0.6,0.1-0.9,0.2c0,1.5,0,3,0,4.6c-0.3,0.1-0.6,0.2-1,0.3c0,3.1,0,6.2,0,9.3
			c-0.1,0.1-0.2,0.1-0.3,0.2c-0.5-0.4-1-0.8-1.6-1.3c0-0.3,0-0.8,0-1.1c-1.1-1.1-2.1-2.1-3.1-3.1c0-0.1,0.1-0.1,0.1-0.2
			c-0.6,0-1.1,0-1.7,0c0-0.1,0.1-0.2,0.1-0.2c-0.3-0.3-0.7-0.5-1-0.8c-0.5-0.5-1-1.1-1.4-1.7c-0.5-0.5-1.8,0.5-1.9-1.1
			c-0.9,0-1.7,0-2.6,0c-0.1-0.3-0.2-0.6-0.2-0.9c-0.1,0-0.1-0.1-0.2-0.1c-1.4,0-2.9,0-4.4,0c-0.1,0.3-0.1,0.6-0.2,0.9
			c-0.5,0-1.1,0-1.4,0c-0.6,0.7-1.1,1.2-1.7,1.9c-0.6,0-1.5,0-2.4,0c-0.2-0.9-0.2-0.9-1.9-1c-0.1-0.3-0.2-0.5-0.3-0.9
			c-0.6,0-1.1,0-1.7,0c0-0.9-0.5-1-1.3-1c-1.8,0.1-3.6,0-5.4,0c-0.1,0.4-0.1,0.6-0.2,1c-0.6,0-1.1,0-1.4,0c-0.5,0.4-0.8,0.7-1.1,1.1
			c-0.1-0.1-0.2-0.1-0.2-0.2c0-0.6,0-1.1,0-1.7c0.3-0.1,0.6-0.1,0.9-0.2c0-0.5,0-1,0-1.3c1.5-1.5,2.8-2.8,4.1-4.1
			c-0.1-0.1-0.1-0.1-0.2-0.2c0.6,0,1.1,0,1.5,0c0.6-0.7,1-1.2,1.6-1.9c1,0,2.2,0,3.4,0c0.1-0.3,0.1-0.6,0.2-0.9c2.5,0,4.9,0,7.4,0
			c0.1,0.2,0.1,0.5,0.2,0.9c1.5,0,3,0,4.4,0c0.5,1.1,1,1.2,3,0.8c0-0.5,0-1.1,0-1.7c-0.3-0.1-0.5-0.2-0.8-0.2c0-0.6-0.1-1.1-0.1-1.7
			c-0.3-0.1-0.6-0.1-0.9-0.2c0-0.6,0-1.1,0-1.7c0.5-0.1,0.9-0.4,1,0.5c0,0.1,0.2,0.3,0.3,0.4c0.3,0.2,0.6,0.5,1.1,0.8
			c0.4-0.1,1.3,0.6,1.6-0.7c0-0.1,0.5-0.1,0.8-0.2c0-0.5,0-1.1,0-1.7c0.6,0,1.2,0,1.9,0c0,0.6,0,1.1,0,1.7c0.4,0.1,0.6,0.2,1,0.3
			c0,0.8,0,1.7,0,2.6c0.1,0.1,0.2,0.1,0.3,0.2c0.5-0.4,1-0.8,1.6-1.3c0-0.3,0-0.8,0-1.4c1.4-0.1,0.8-1.1,1-1.7
			c0.4-0.3,0.7-0.5,1-0.8c0.3-0.2,0.5-0.5,0.9-0.9c0-0.3,0-0.8,0-1c1.5-1.5,2.8-2.8,4.3-4.3c0.3,0,0.8,0,1.2,0
			c0.6-0.7,1-1.2,1.6-1.9c0.4,0,0.9,0,1.5,0c0.1-0.3,0.2-0.6,0.2-1c1.5,0,3,0,4.5,0c0.1-0.3,0.2-0.6,0.3-0.9c0.5,0,1.1,0,1.7,0
			c0.1,0.3,0.2,0.5,0.3,0.9c1.2,0,2.3,0,3.6,0c0.1,0.3,0.2,0.6,0.2,0.8c0.5,0.7,1.8-0.4,1.8,1.1c-0.9,0-1.8,0-2.6,0
			c-0.1,0.3-0.2,0.6-0.3,1c-0.5,0-1.1,0-1.3,0c-1.2,1.2-2.2,2.2-3.4,3.3c0,0.2,0,0.7,0,1.3c-1.4,0.1-1,1.1-1,1.8
			c0,0.6,0.2,1.4-0.9,1.2c0,0.6-0.1,1.2-0.1,1.8c-0.9,0.1-1.8,0.1-2.7,0.2c-0.1,0-0.2,0.5-0.3,0.8c-0.8,0-1.7,0-2.3,0
			C396,44.6,394.7,45.9,393.2,47.5z"/>
		<path d="M382.9,68.1c-0.5,0.8-0.8,1.4-1.3,1.8c-0.5,0.5-1.1,0.8-1.8,1.3c0,1.4,0,2.9,0,4.5c-0.6,0-1.2,0.1-1.5,0.1
			c-0.8,0.8-1.5,1.5-2.3,2.4c0,2.3,0,5,0,7.6c0,0.3,0.5,0.5,0.8,0.9c0,0.3,0,0.9,0,1.8c-0.7-0.6-1.2-1-1.8-1.5c0,0,0-0.3-0.1-0.5
			c-0.9-0.6-2.4,0.6-3-1c-1.7,0-3.6,0-5.1,0c-0.8,0.7-1.5,1.3-2.1,1.9c-0.1,0.1-0.2,0.1-0.3,0.2c-0.2,0.2-0.3,0.5-0.5,0.7
			c-0.2-0.3-0.4-0.5-0.7-0.9c-1,0-2.2,0-3.5,0c-0.1,0.3-0.2,0.6-0.2,0.9c-0.3,0-0.6,0-0.9,0c-0.4,0-0.9-0.1-1,0.6
			c0,0.1-0.4,0.3-0.8,0.5c0-1.1,0-1.9,0-2.8c0.5-0.5,1.1-0.9,1.6-1.4c0,0,0,0,0-0.1c0.3-0.2,0.6-0.5,0.8-0.7c0.5-0.6,1-1.2,1.7-1.9
			c0.3,0,0.8,0,1.4,0c0.1-0.3,0.2-0.6,0.3-0.9c2.2,0,4.3,0,6.4,0c0.1-0.1,0.2-0.2,0.3-0.2c-0.2-0.3-0.4-0.5-0.6-0.8
			c-0.5-0.5-1-1.1-1.5-1.6c0.1-0.1,0.1-0.2,0.2-0.3c0.6,0,1.1,0,1.8,0c0-0.6,0-1.2,0-1.8c0.1-0.1,0.2-0.1,0.3-0.2
			c0.2,0.2,0.5,0.4,0.7,0.6c0.5,0.5,1.1,1,1.6,1.5c0.9-1-0.6-2.7,1.3-3.1c0-0.5,0-1,0-1.6c0.3-0.1,0.6-0.2,0.9-0.3
			c0-0.5,0.1-1.1,0.1-1.3c1.1-1.1,2.1-2.1,3.3-3.3c0.2,0,0.7,0,1.3,0c0.1-0.3,0.2-0.6,0.3-1c0.6,0,1.2,0,1.8,0
			C381.4,68.1,382,68.1,382.9,68.1z"/>
		<path d="M365,112.1c-0.3,0-0.8,0-1,0c-1.1,1.2-2.1,2.1-3.1,3.1c-0.1,0-0.1-0.1-0.2-0.1c0,0.6,0,1.1,0,1.7c-0.7,0.3-1,0.2-1-0.6
			c0-1,0-2,0-3.1c0-0.7,0-1.2-0.9-1.1c0-0.9,0-1.8,0-2.3c-1.2-1.1-2.2-2.1-3.4-3.3c-0.5,0-1.4,0-2.3,0c-0.2-0.5-0.1-1.3-1.1-1
			c0-0.7,0-1.2,0-1.5c-0.8-0.8-1.5-1.4-2.2-2.1c0.1-0.1,0.1-0.2,0.2-0.2c-0.6,0-1.1,0-1.7,0c0-0.6,0-1.2,0-1.9c2.1,0,4.3,0,6.5,0
			c0,0.8,0.4,1,1.2,0.9c0.4-0.1,0.7,0,0.9,0.6c0.3,0.6,1,0.9,1.5,1.4c0.1,0.1,0.2,0.2,0.3,0.3c0.2,0.3,0.4,0.5,0.9,0.7
			c0,0.5,0.1,1.1,0.1,1.5c0.6,0.6,1.1,1,1.6,1.4c0.8-1-0.4-2.4,0.8-3c0.9,0.8,1.6,1.5,2.4,2.4c0,0.2,0,0.8,0,1.4c0.6,0,1.2,0,1.8,0
			c0.1-0.3,0.1-0.5,0.2-0.9c1.5,0,3.1,0,4.4,0c0.4-0.4,0.6-0.7,0.8-1c0.2,0.3,0.5,0.5,0.9,1c1,0,2.1,0,3.1,0c0.6,0.7,1,1.2,1.4,1.7
			c0,0,0,0,0.1-0.1c0.6,0.6,1.2,1.2,1.8,1.8c-0.1,0.1-0.1,0.2-0.2,0.3c-1.8,0-3.7,0-5.5,0c0,0.1,0.1,0.2,0.1,0.3
			c-0.3,0.3-0.6,0.5-0.9,0.8c-0.1,0.1-0.2,0.2-0.3,0.3c-0.2,0.2-0.4,0.4-0.6,0.6c-0.2-0.2-0.4-0.5-0.7-0.9c-1.5,0-3.2,0-4.9,0
			C365.7,111.3,365.4,111.7,365,112.1z"/>
		<path d="M280.6,44.1c-0.8,0.9-1.5,1.5-2.1,2.2c-0.1,0-0.1-0.1-0.2-0.1c0,0.6,0,1.1,0,1.5c-0.5,0.4-0.9,0.7-1.3,1
			c0,0.1,0.1,0.2,0.1,0.3c-0.9,0-1.7,0-2.6,0c-0.1,0.3-0.1,0.6-0.2,1c-0.6,0-1.1,0.1-1.8,0.1c0,0.6-0.1,1.2-0.1,1.8
			c-0.3,0.1-0.6,0.1-0.9,0.2c0,0.6,0,1.1,0,1.7c-0.9,0-1,0.6-1,1.3c0.1,1.1,0,2.3,0,3.5c-0.7,0-1.2,0-1.9,0c0-0.6-0.1-1.1-0.1-1.4
			c-1.1-1.1-2.1-2.1-3.1-3.1c0-0.1,0.1-0.1,0.1-0.2c-0.6,0-1.1,0-1.7-0.1c-0.1-0.3-0.1-0.6-0.2-0.9c-1.6,0-3.1,0-4.4,0
			c-0.3,0.4-0.6,0.7-1.1,1.3c-0.2-0.7-0.3-1-0.3-1.2c-0.7-0.3-1.9,0.5-1.9-1c-1.5,0-3,0-4.6,0c0-0.6,0-1.1,0-1.6
			c0.4-0.4,0.7-0.8,1.2-1.3c0.3,0,0.8,0,1.4,0c0.1-0.3,0.2-0.6,0.3-0.9c2.8,0,5.6,0,8.4,0c0.1,0.3,0.1,0.5,0.2,0.8
			c0.6,0,1.1,0,1.5,0.1c0.4,0.4,0.7,0.8,1,1.1c0.1-0.1,0.2-0.1,0.3-0.2c0-0.6,0-1.2,0-1.5c-0.4-0.4-0.7-0.8-1-1.1
			c0.1-0.1,0.1-0.2,0.2-0.3c0.9,0,1.8,0,2.4,0c0.4-0.4,0.6-0.7,0.9-1c0.1,0.3,0.4,0.6,0.4,1c0.1,0.5,0,1.1,0.3,1.9
			c0.2-0.2,0.5-0.4,0.7-0.6c0.3-0.2,0.8-0.4,0.9-0.7c0.2-0.4,0-0.9,0-1.1c0.8-0.8,1.5-1.5,2.2-2.1c0-0.1-0.1-0.1-0.1-0.2
			c0.6,0,1.1-0.1,1.7-0.1c0.1-0.3,0.1-0.5,0.2-0.9c0.6,0,1.1,0,1.7,0c0.1-0.4,0.1-0.6,0.2-1c1.9,0,3.7,0,5.5,0
			c0,0.1-0.1,0.1-0.1,0.2c0.3,0.3,0.6,0.5,0.9,0.8c0.1,0.1,0.3,0.4,0.3,0.5c0,0.2-0.3,0.3-0.5,0.3C281.7,44.1,281,44.1,280.6,44.1z"
			/>
		<path d="M368.3,20c0-0.5,0-1,0-1.7c-0.6,0-1.2-0.1-1.8-0.1c-0.1-0.1-0.2-0.2-0.2-0.2c0.3-0.3,0.5-0.6,0.8-1
			c0.1,0.1,0.2,0.1,0.3,0.2c0-0.5,0-1.1,0-1.8c-2.1,0-4.3,0-6.5,0c-0.1-0.4-0.2-0.6-0.3-1c-0.5,0-1.1-0.1-1.7-0.1
			c-0.1-0.3-0.1-0.5-0.2-0.9c-0.6,0-1.1,0-1.4,0c-0.5-0.5-0.9-0.9-1.2-1.3c-0.4-0.5,0.4-1.7-1.1-1.8c0-0.9,0-1.7,0-2.5
			c0.6-0.1,1.8,0.8,2,1.7c1.8,0,3.6,0,5.4,0c0.5,0,1.2-0.2,1.2,0.7c0,0.1,0.6,0.2,0.8,0.4c0.2,0.2,0.1,0.5,0.2,0.8
			c2.2,0,4.3,0,6.5,0c0.1-0.3,0.1-0.5,0.2-0.9c0.5,0,1.1,0,1.3,0c0.8-0.8,1.4-1.5,2-2.1c0.1,0.1,0.2,0.1,0.3,0.2c0,0.9,0,1.8,0,2.8
			c-0.8-0.1-0.9,0.4-0.9,1.1c0,1.6,0,3.2,0,4.7c0,0.5,0,0.7,0.6,1c0.6,0.3,1.1,1.1,1.7,1.8c0.4,0,0.9,0,1.6,0.1c0,1,0,1.9,0,2.9
			c0,0.4,0.3,0.7,0.5,1.1c0.1,0,0.2-0.1,0.4-0.1c0,0.5,0,1.1,0.1,1.6c0.1,0,0.1-0.1,0.2-0.1c0.6,0.6,1.2,1.3,1.8,1.9
			c-0.1,0.1-0.1,0.2-0.2,0.3c-1.5,0-3,0-4.3,0c-1.4-1.4-2.7-2.7-4-4c-0.1,0-0.1,0.1-0.2,0.1c0-0.6-0.1-1.1-0.1-1.7
			c-0.3-0.1-0.5-0.1-0.9-0.2c0-1.2,0-2.4,0-3.6c-0.1-0.1-0.2-0.2-0.2-0.2c-0.3,0.2-0.5,0.4-0.8,0.6c-0.5,0.5-1.1,1-1.6,1.5
			C368.5,20.2,368.4,20.1,368.3,20z"/>
	</g>
</g>
<g>
	<path fill="#AAFF47" d="M182.3,68.1c0.2,0.1,0.4,0.1,0.7,0.2c0,0.8,0,1.5,0,2.3c-0.2,0.1-0.5,0.1-0.8,0.2c0,0.5,0,1,0,1.5
		c-0.3,0.1-0.5,0.1-0.9,0.2c0,0.7,0,1.5,0,2.4c-0.8-0.1-0.9,0.4-0.9,0.9c0,3.3,0,6.6,0,10c0.3,0.1,0.5,0.1,0.8,0.2
		c0,1.1,0,2.1,0,3.3c-0.5,0-1,0-1.3,0c-0.4-0.4-0.6-0.7-0.9-1c-0.1,0-0.1,0.1-0.2,0.1c0-0.8,0-1.5,0-2.4c0.2-0.1,0.5-0.1,0.7-0.2
		c0-4.1,0-8.3,0-12.5c-0.5,0-1,0-1.5,0c-0.1,0.2-0.1,0.4-0.2,0.8c-1.4-0.3-1.9,0.7-2.7,1.7c0,0-0.3,0-0.5,0.1c0,0,0.1,0.1,0.1,0.1
		c-0.5,0.5-1.1,1.1-1.7,1.8c-0.1-0.5-0.2-0.8-0.2-1c0,0-0.1,0.1-0.1,0.1c-0.2-0.2-0.4-0.5-0.6-0.7c-0.2-0.2-0.5-0.4-0.8-0.6
		c0-0.6,0-1.3,0-2.1c0.2-0.1,0.5-0.1,0.8-0.2c0-0.5,0-0.9,0-1.5c0.3-0.1,0.5-0.1,0.8-0.2c0-0.5,0-0.9,0-1.5c0.3-0.1,0.5-0.1,0.9-0.2
		c0-0.5,0-0.9,0-1.5c0.8,0,0.9-0.4,0.9-1.1c-0.1-0.8,0-1.5,0-2.3c0-0.6,0-1.1,0.8-1.1c0-1.3,0-2.5,0-3.6c0-0.2-0.4-0.5-0.6-0.7
		c-0.1,0-0.1,0.1-0.2,0.1c0-3.6,0-7.2,0-10.8c-0.6,0-1.1,0-1.6,0c0-2.3,0-4.4,0-6.6c-0.3-0.1-0.6-0.2-0.9-0.2c0-0.7,0-1.5,0-2.1
		c-0.6-0.5-1.1-0.9-1.7-1.5c0-0.3,0-0.8-0.1-1.1c-0.3-0.3-0.6-0.6-0.8-0.8c0.2-0.2,0.5-0.4,0.8-0.7c0-0.3,0-0.8,0.1-1.4
		c0.8,0,1.6,0,2.4,0c0,0.2,0.1,0.5,0.2,0.8c0.5,0,1,0,1.5,0.1c0.1,0.3,0.1,0.5,0.2,0.8c0.8,0,1.5,0,2.1,0c0.5,0.6,0.9,1,1.4,1.7
		c0.3,0,0.7,0,1,0c0.4,0.4,0.7,0.8,0.9,1.1c0.3,0.3,0.3,0.9,1.1,0.6c0,0.6,0,1.1,0,1.6c0.1,0,0.2-0.1,0.2-0.1
		c0.2,0.3,0.4,0.7,0.7,0.9c0.5,0.4,1,0.8,1.6,1.3c0,0.3,0,0.8,0.1,1.4c1.4,0,0.6,1.1,0.9,1.7c0.2,0.1,0.4,0.1,0.7,0.2
		c0,2.5,0,4.9,0,7.4c0.3,0.1,0.5,0.1,0.8,0.2c0,1.2,0,2.3,0,3.4c0,0.6,0.2,0.8,0.8,0.6c0-1.6,0-3.2,0-4.8c0.3-0.1,0.6-0.2,0.8-0.2
		c0-0.7,0-1.5,0-2.3c0.3-0.1,0.6-0.1,0.8-0.2c0-0.5,0-1,0.1-1.5c0.3-0.1,0.5-0.1,0.8-0.2c0-1.9,0-3.8,0-5.7c0.3-0.1,0.5-0.1,0.8-0.2
		c0-1.3,0-2.7,0-4.1c0.6,0,1,0,1.6,0c0.1-0.3,0.1-0.5,0.2-0.9c0.8,0,1.5,0,2.3,0c0.1-0.3,0.1-0.6,0.2-0.9c0.8,0,1.5,0,2.3,0
		c0-0.8,0.4-0.9,1.1-0.8c0.2,0,0.5,0,0.7,0c0.6,0.1,1-0.1,0.9-0.8c0.8,0,1.6,0,2.4,0c0.1-0.3,0.1-0.6,0.2-0.8c0.8,0,1.5,0,2.4,0
		c0.1,0.2,0.1,0.5,0.2,0.8c0.5,0,0.9,0,1.5,0c0,1.4,1,0.7,1.7,0.9c0.1,0.2,0.1,0.5,0.2,0.7c0.5,0,1,0.1,1.5,0.1
		c0,0.1-0.1,0.1-0.1,0.2c0.3,0.2,0.6,0.4,0.8,0.6c0.2,0.2,0.2,0.5,0.5,0.6c0.3,0.3,0.5,0.6,0.8,0.8c0,0-0.1,0.1-0.1,0.1
		c0.2,0,0.4,0.1,0.7,0.1c0,0-0.1,0.1-0.1,0.1c0.6,0.6,1.1,1.1,1.7,1.7c0,0,0,0,0,0c0.3,0.3,0.6,0.5,1,1c0,0.2,0,0.7,0,1.2
		c1.4,0,0.7,1,1,1.7c0.2,0,0.4,0.1,0.6,0.1c0.6,0.8-0.6,2.1,1,2.6c0,2.4,0,4.9,0,7.3c0.1,0,0.2-0.1,0.3-0.1c0.2,0.3,0.4,0.6,0.6,0.8
		c0.2,0.2,0.5,0.2,0.8,0.3c0-1.5,0-2.8,0-4.2c0.3-0.1,0.5-0.1,0.9-0.2c0-0.8,0-1.5,0-2.4c0.3-0.1,0.6-0.1,0.9-0.1c0-0.5,0-1,0-1.5
		c0.3-0.1,0.5-0.1,0.9-0.2c0-1.9,0-3.8,0-5.7c0.8,0,0.9-0.4,0.8-1c0-0.8,0-1.6,0-2.4c0.6,0,1.1,0,1.6,0c0.1-0.3,0.1-0.5,0.2-0.8
		c0.5-0.4,1.7,0.5,1.7-0.9c0.8,0,1.5,0,2.3,0c0.4-1.7,1.8-0.4,2.7-1.1c0-0.1,0.1-0.4,0.1-0.6c1.1,0,2.1,0,3.2,0c0,0.8,0,1.6,0,2.4
		c-0.5,0-1,0.1-1.5,0.1c0,0.5-0.1,1-0.1,1.6c-0.2,0-0.5,0.1-0.8,0.1c0,1.6,0,3.2,0,4.9c-0.3,0.1-0.5,0.1-0.9,0.2c0,0.8,0,1.5,0,2.3
		c-0.3,0.1-0.6,0.1-0.8,0.2c0,0.8,0,1.5,0,2.3c0.2,0.1,0.5,0.1,0.8,0.2c0,2.7,0,5.5,0,8.3c-0.3,0.1-0.5,0.1-0.8,0.2
		c0,0.8,0,1.5,0,2.3c0.2,0.1,0.5,0.1,0.8,0.2c0,0.8,0,1.5,0,2.3c0.3,0.1,0.6,0.1,0.9,0.2c0,1.6,0,3.2,0,4.9c0.9,0,1.6,0,2.5,0
		c0-0.5,0-1,0-1.5c0.3-0.1,0.5-0.1,0.8-0.2c0-2.7,0-5.4,0-8.2c0.3-0.1,0.6-0.2,0.9-0.3c0-2.4,0-4.9,0-7.4c0.3-0.1,0.5-0.1,0.7-0.2
		c0.4-0.5-0.5-1.7,1-1.7c0-1.8,0-3.6,0-5.4c0-0.2-0.4-0.4-0.8-0.7c0-0.3,0-0.7,0-1.3c1.3,0,0.6-1.1,1-1.6c0.3-0.3,0.6-0.6,1-1
		c0.5,0,1.3,0,1.8,0c0.9-0.9,1.6-1.6,2.4-2.5c0.2,0,0.7,0,1.2-0.1c0.1-1.3,1-0.7,1.7-0.8c0.1,0.3,0.1,0.5,0.2,0.8
		c0.2,0,0.4,0,0.6,0.1c0.4,0,0.9-0.2,1.1,0.6c0.1,0.4,0.8,0.7,1.3,1.1c0.1,0.1,0.2,0.2,0.3,0.3c0.2,0.2,0.4,0.5,0.6,0.8
		c0.1,0,0.1-0.1,0.2-0.1c0,1,0,2.1,0,3.1c0.3,0.1,0.5,0.1,0.8,0.2c0,1.6,0,3.2,0,4.8c0.3,0.1,0.6,0.1,0.8,0.2c0,0.5,0,0.9,0,1.5
		c0.3,0.1,0.5,0.1,0.9,0.2c0,1.6,0,3.2,0,4.9c0.9,0,0.9,0.5,0.9,1.1c0,1,0,2,0,3.1c0.3,0.1,0.5,0.1,0.8,0.2c0,0.5,0,1,0,1.5
		c-0.8,0-0.8,0.5-0.8,1.1c0,1.6,0,3.2,0,4.8c0,0.6,0,1.1,0.8,1c0.2,1.6,0.2,1.6,0.9,1.7c0,0.5,0,0.9,0,1.2c0.6,0.5,1.1,1,1.7,1.5
		c0,0.3,0,0.8,0,1.3c0.3,0.1,0.5,0.1,0.8,0.2c0,0.8,0,1.5,0,2.1c0.4,0.3,0.7,0.6,0.9,0.8c-0.7,0.6-1.1,1-1.8,1.5c0,1.5,0,3.2,0,4.9
		c0,0.6-0.1,0.8-0.8,0.6c0-1.9,0-3.8,0-5.8c-0.6,0-1.1-0.1-1.3-0.1c-0.4-0.4-0.7-0.7-1.2-1.2c0-0.3,0-0.7-0.1-1.3
		c-0.5,0-1,0-1.6-0.1c0-0.7-0.4-0.9-1.1-0.8c-0.7,0.1-1.5,0-2.1,0c-0.5-0.6-0.9-1.1-1.3-1.5c0,0,0,0,0,0c-0.2-0.3-0.5-0.5-0.9-0.9
		c0.6-0.1,0.8-0.1,1.1-0.2c0-0.5,0-1,0-1.3c0.3-0.3,0.6-0.5,0.8-0.7c-0.2-0.2-0.4-0.4-0.8-0.8c0-2.2,0-4.7,0-7.2c-0.3,0-0.5,0-0.5,0
		c-0.4,0.4-0.7,0.7-1.2,1.2c0,0.7,0,1.8,0,2.9c-0.3,0.1-0.5,0.1-0.8,0.2c0,1,0,2.1,0,3.2c-0.7,0.3-0.9,0-0.9-0.6c0-1.7,0-3.4,0-4.8
		c-0.5-0.5-0.8-0.8-1.2-1.2c-0.3,0-0.8,0-1.3,0c0,1.9,0,3.8,0,5.7c-0.3,0.1-0.6,0.2-0.9,0.3c0,1.6,0,3.2,0,4.8
		c0.2,0.1,0.5,0.1,0.8,0.2c0,1.1,0,2.1,0,3.2c-0.8,0-1.6,0-2.2,0c-0.8-0.8-1.5-1.6-2.4-2.4c-0.3,0-0.7,0-1.3,0c0,1.9,0,3.8,0,5.8
		c-0.6,0-1.1,0.1-1.7,0.1c0,1.4,0,2.7,0,4.1c-0.6,0-1.1,0-1.7,0c0-3.1,0-6.1,0-9.2c-0.6,0-1.1,0-1.4-0.1c-0.5-0.6-0.9-1-1.4-1.6
		c-0.3,0-0.8,0-1.3,0c-0.1,0.2-0.1,0.5-0.2,0.8c-0.5,0-0.9,0-1.4,0c-0.1,1.3-1,0.8-1.5,0.8c-0.4-0.4-0.7-0.7-0.9-1
		c-0.1,0-0.1,0.1-0.2,0.1c0-2.2,0-4.3,0-6.6c-0.8,0.1-0.9-0.4-0.9-1c0.1-1,0-2.1,0-3.2c0.3-0.1,0.5-0.1,0.8-0.2c0-1.1,0-2.1,0-3.2
		c-0.7-0.1-0.7-0.1-0.8,1.5c-0.2,0.1-0.5,0.1-0.8,0.2c0,0.7,0,1.5,0,2.3c-0.9,0-0.9,0.6-0.9,1.3c0,0.5,0,1,0,1.5
		c0.1,0.6-0.2,0.9-0.8,0.8c0,1.4,0,2.7,0,3.9c-0.6,0.5-1.1,0.9-1.7,1.5c-0.1,0.1-0.2,0.3-0.4,0.6c-0.2-0.2-0.4-0.4-0.5-0.6
		c-0.1-0.1-0.2-0.2-0.3-0.3c-0.3-0.2-0.5-0.4-0.8-0.6c0-0.1,0.1-0.1,0.1-0.2c-0.2,0-0.4-0.1-0.6-0.1c-0.6-0.8,0.6-2.1-1-2.6
		c0-0.7,0-1.5,0-2.3c-0.3-0.1-0.6-0.1-0.9-0.1c0-0.5,0-1,0-1.5c-0.3-0.1-0.5-0.1-0.9-0.2c0-1.6,0-3.2,0-4.9
		c-0.6-0.2-0.9-0.1-0.8,0.6c0,1.7,0,3.4,0,5.2c-0.3,0-0.5,0.1-0.8,0.1c0,0.8,0,1.5,0,2.2c0.4,0.3,0.7,0.6,1,0.9c0,0,0,0,0,0.1
		c0.5,0.4,0.9,0.8,1.5,1.4c0,0.3,0,0.8,0,1.1c-0.4,0.4-0.7,0.7-1,1c0,0.1,0.1,0.1,0.1,0.2c-0.5,0-1,0-1.5,0
		c-0.1,0.3-0.1,0.5-0.2,0.8c-0.5,0-0.9,0-1.4,0.1c0,1.2-1,0.7-1.7,0.9c-0.1,0.2-0.1,0.4-0.2,0.7c0,0-0.1-0.1-0.1-0.1
		c-0.6,0.6-1.1,1.1-1.7,1.7c0,0,0,0,0,0c-0.4,0.4-0.9,0.8-1.5,1.3c0,3.3,0,6.9,0,10.6c-0.6,0-1.1,0-1.6,0c0-0.8,0-1.6,0-2.4
		c0.2-0.1,0.5-0.1,0.8-0.2c0-1.6,0-3.2,0-4.8c-0.2-0.1-0.5-0.1-0.8-0.2c0-1.1,0-2.1,0-3.2c-0.3,0-0.5-0.1-0.8-0.1c0-1.4,0-2.7,0-4.1
		c0.3-0.1,0.5-0.1,0.8-0.2c0-0.5,0-1,0-1.5c0.3-0.1,0.5-0.1,0.8-0.1c0-0.5,0-1,0.1-1.5c0.3-0.1,0.5-0.1,0.8-0.2c0-0.8,0-1.5,0-2.3
		c0.8,0,0.9-0.4,0.9-1.1c0-3,0-6,0-9c-0.8,0-0.9-0.5-0.8-1.2c0-2.7,0-5.3,0-8c0-0.3,0-0.6,0-1c-0.3-0.1-0.6-0.1-0.8-0.2
		c0-0.5,0-1,0-1.5c-0.3-0.1-0.5-0.2-0.9-0.2c0-1.3,0-2.7,0-4c-0.6,0-1.1-0.1-0.8-0.8c-0.3,0-0.5-0.1-0.8-0.1c0-0.5-0.1-1-0.1-1.5
		c-0.1-0.1-0.1-0.1-0.2-0.2c-0.3,0.2-0.5,0.5-0.9,0.9c-0.4,0-0.5,0.3-0.5,0.9c0,0.5,0,1.1,0,1.7c0,0.5,0,1.1-0.8,0.9
		c0,0.9,0,1.8,0,2.6c0,0.7,0,0.7-0.8,0.8c0,4.7,0,9.4,0,14.2c0.2,0,0.5,0.1,0.8,0.1c0,2.2,0,4.4,0,6.6c0.3,0.1,0.5,0.1,0.8,0.2
		c0,0.8,0,1.5,0,2.1c0.6,0.5,1,0.9,1.6,1.5c0,0.8,0,1.9,0,2.8c-0.4,0.3-0.7,0.6-1,0.9c0,0.1,0.1,0.1,0.1,0.2c-0.5,0-0.9,0-1.3,0
		c-0.5-0.5-0.9-1-1.4-1.6c-0.6,0.3-1.8-0.8-2.4,0.8c-0.4,0-0.9,0-1.4,0c-0.1,1.2-1,0.8-1.5,0.8c-0.4-0.4-0.6-0.7-0.9-1
		c-0.1,0-0.1,0.1-0.2,0.1c0-2.5,0-4.9,0-7.4c-0.3-0.1-0.5-0.1-0.9-0.2c0-0.5,0-1.1,0-1.6c0-0.6,0.1-1,0.8-0.9c0-1.1,0-2.2,0-3.6
		c-0.4,0.3-0.7,0.5-0.8,0.7c-0.1,0.3,0,0.7,0,1.1c-0.3,0.1-0.5,0.1-0.8,0.2c0,0.8,0,1.5,0,2.3c-0.3,0.1-0.5,0.1-0.8,0.2
		c0,1.1,0,2.1,0,3.2c-0.3,0.1-0.6,0.1-0.9,0.2c0,1.3,0,2.6,0,3.7c-0.4,0.4-0.8,0.7-1.3,1.2c-0.1-0.1-0.4-0.4-0.6-0.6
		c0-0.1,0.1-0.1,0.1-0.2c-0.5,0-1-0.1-1.5-0.1c-0.4-0.6,0.4-1.7-1-1.7c0-1.1,0-2.1,0-3c-0.6-0.5-1-0.9-1.5-1.3
		c-0.1,0-0.1,0.1-0.2,0.1c0-0.4,0.1-0.8,0-1.1c-0.1-0.3-0.4-0.5-0.6-0.7c-0.1,0-0.2,0.1-0.2,0.1c0-2.5,0-4.9,0-7.4
		c-0.5-0.2-0.9-0.2-0.9,0.5c0,3.4,0,6.8,0,10c0.4,0.4,0.7,0.6,1,0.9C182.3,68,182.3,68.1,182.3,68.1z M247,54.7c0-1.4,0-2.7,0-4.1
		c-0.3,0-0.5-0.1-0.8-0.1c0-0.6-0.1-1.1-0.1-1.5c-0.3-0.1-0.6-0.1-0.8-0.2c0-0.5,0-1,0-1.3c-0.3-0.3-0.6-0.5-0.8-0.6
		c-0.2-0.2-0.4-0.4-0.6-0.5c-0.1,0.1-0.2,0.1-0.2,0.2c0,0.8,0,1.5,0,2.3c-0.4,0.1-0.8,0.3-0.8,0.5c0,1.8,0,3.6,0,5.4
		C244.3,54.7,245.6,54.7,247,54.7z M234.4,74.2c-0.6-0.2-0.8-0.1-0.8,0.5c0,1,0,2,0,3c0,0.6,0.2,0.8,0.8,0.6
		C234.4,76.9,234.4,75.6,234.4,74.2z M213.3,54.6c-0.3,0.1-0.7,0.2-0.7,0.3c0,0.7,0,1.5,0,2.2c0,0.1,0.4,0.1,0.7,0.1
		C213.3,56.3,213.3,55.6,213.3,54.6z"/>
	<path fill="#AAFF47" d="M72.5,45.5c-0.3,0-0.5-0.1-0.8-0.1c0-0.5,0-1,0-1.5c-0.3-0.1-0.5-0.1-0.8-0.2c0-1.3,0-2.6,0-4
		c-0.1,0-0.2,0.1-0.2,0.1c-0.2-0.3-0.4-0.7-0.7-0.9c-0.5-0.2-0.8-0.5-1-1c-0.2,0.1-0.6,0.2-0.6,0.4c-0.1,0.4,0,0.9,0,1.3
		c0,2.5,0,4.9,0,7.2c-0.4,0.4-0.7,0.6-1,0.9c0,0.1,0.1,0.1,0.1,0.2c-1,0-2.1,0-3,0c-0.4-0.5-0.9-1-1.4-1.6c-0.6,0-1.4,0-2.1,0
		c0-0.1,0.1-0.1,0.1-0.2c-0.3-0.3-0.6-0.6-1-1c0-0.8,0-1.8,0-2.9c0.3-0.2,1.1-0.1,0.7-0.9c-0.7,0-1.5,0-1.9,0
		c-0.5,0.4-0.8,0.6-1.1,0.8c-0.1,0.1-0.2,0.4-0.2,0.5c0,0.7,0,1.3,0,2c0,0.6-0.1,1-0.8,0.7c0,1.4,0,2.7,0,4.1
		c0.4,0.1,1.1,0.1,0.7,1.1c0.1,0,0.2,0,0.4,0c0.3-0.3,0.5-0.5,0.8-0.8c0-0.1-0.1-0.1-0.1-0.2c0.5,0,1,0,1.5,0
		c0.1-0.5,0.1-1.1,0.6-0.9c0.5-0.6,0.9-1,1.5-1.6c0.1,0,0.3,0.1,0.5,0.3c0.2,0.2,0.4,0.5,0.6,0.8c0.1,0,0.1-0.1,0.2-0.1
		c0,3.6,0,7.1,0,10.7c-1.3,0-0.6,1.1-0.9,1.7c-1,0-2.1,0-3.3,0c0-0.5-0.1-1-0.1-1.5c-0.3-0.1-0.5-0.1-0.8-0.2c0-0.8,0-1.5,0-2.3
		c-0.9,0-1.6,0-2.5,0c0,3.6,0,7.2,0,10.8c1.4,0,2.7,0,4.1,0c0.1-0.2,0.1-0.5,0.2-0.8c0.5,0,1,0,1.5,0c0.1-0.3,0.1-0.5,0.2-0.8
		c0.1,0,0.1,0.1,0.2,0.1c0.2-0.3,0.4-0.6,0.6-0.8c0.2-0.2,0.5-0.2,0.8-0.4c0-0.4,0.1-0.9,0.1-1.4c0.2-0.1,0.5-0.1,0.8-0.2
		c0-0.5,0-0.9,0-1.2c0.5-0.4,0.8-0.7,1.1-1c0-0.1-0.1-0.1-0.1-0.2c0.8,0,1.5,0,2.4,0c0,4.4,0,8.9,0,13.4c-0.5,0-1,0.1-1.6,0.1
		c0,1.1,0,2.1,0,3.3c0.2,0,0.5,0.1,0.7,0.2c0,0.5,0,1,0,1.5c-0.5,0-1,0-1.6,0c0-1.4,0-2.7,0-4c-0.5-0.2-0.9-0.2-0.9,0.4
		c0,2,0,4.1,0,6.1c0.3,0.1,0.5,0.1,0.8,0.1c0,0.5,0,1,0,1.5c-0.1,0-0.1-0.1-0.2-0.1c-0.2,0.3-0.4,0.6-0.7,0.8
		c-0.2,0.1-0.6,0.1-0.7,0c-0.3-0.2-0.4-0.5-0.6-0.8c-0.1,0-0.1,0.1-0.2,0.1c0-1.3,0-2.7,0-4c0.2-0.1,0.5-0.1,0.8-0.2
		c0-1.1,0-2.1,0-3c-0.6-0.5-1-0.9-1.5-1.3c0,0-0.1,0.1-0.1,0.1c0-0.2-0.1-0.4-0.1-0.4c-0.5-0.4-0.8-0.7-1.2-1.2c-1.7,0-3.6,0-5.6,0
		c-0.6,0-0.9-0.1-0.8-0.8c-0.5,0-1,0-1.5,0c-0.1-0.3-0.1-0.5-0.2-0.9c-0.8,0-1.5,0-2.1,0c-0.4-0.5-0.7-0.8-1-1.1
		c-0.1,0-0.1,0.1-0.2,0.1c0-3,0-6,0-9.1c-0.8,0.1-0.9-0.4-0.9-1c0-2.1,0-4.3,0-6.5c0.3-0.1,0.5-0.2,0.8-0.3c0-5.5,0-11,0-16.4
		c0.4-0.4,0.7-0.6,1.1-0.9c1.2-0.5,1.4-0.4,1.6,0.5c1.7,0,3.5,0,5.3,0c0.2,0,0.5-0.4,0.7-0.6c0-0.1-0.1-0.1-0.1-0.2
		c3.6,0,7.1,0,10.8,0c0-0.6,0.1-1.1,0.1-1.6c0.5-0.1,1-0.2,0.8-0.9c0.6,0,1.1,0,1.6,0c0,0.2,0.1,0.5,0.1,0.5c0.4,0.4,0.7,0.6,1,0.9
		c0.4,0.6,1.6-0.4,1.5,1.1c0.5,0,1,0.1,1.6,0.1C74.9,37,75.4,37,76,37c0.5,0,1,0,1.5,0c0.6,0,1.2-0.1,1,0.8c0.6,0,1,0,1.3,0
		c0.4,0.4,0.6,0.7,0.9,1c0.1-0.1,0.1-0.1,0.2-0.2c0,0.6,0.1,1,0.9,0.8c0,0.6,0,1.1,0,1.6c0.3,0.1,0.5,0.1,0.8,0.2c0,0.5,0,1,0,1.5
		c0.3,0.1,0.5,0.1,0.8,0.2c0,0.8,0,1.5,0,2.3c0.3,0.1,0.5,0.1,0.9,0.2c0,0.7,0,1.5,0,2.3c0.8,0.3,0.8-0.1,0.8-0.6c0-3,0-6,0-9.1
		c0-0.3,0-0.6,0-1c0.9-0.2,1.2-1.7,2.4-0.9c0.2-0.6,0.1-1.3,0.7-1c0.5-0.6,0.9-1,1.5-1.6c0,0,0.2,0,0.5-0.1c0-0.2,0-0.4,0-0.6
		c0-0.5-0.2-1,0.6-1.1c0.1,0,0.2-0.5,0.4-0.7c0.8,0,1.5,0,2.3,0c0,1.6,0,3.2,0,4.9c-0.2,0.1-0.5,0.1-0.8,0.2c0,0.8,0,1.5,0,2.4
		c-0.8-0.1-0.9,0.3-0.9,0.9c0.1,0.5,0,1,0,1.6c-0.3,0.1-0.5,0.1-0.8,0.2c0,0.5,0,1,0,1.5c0.2,0.1,0.5,0.1,0.8,0.2c0,3.3,0,6.6,0,10
		c-0.2,0.1-0.5,0.1-0.8,0.2c0,3.9,0,7.7,0,11.6c0.3,0.1,0.5,0.1,0.8,0.2c0,1.6,0,3.3,0,4.9c0.1,0.1,0.2,0.1,0.2,0.2
		c0.2-0.2,0.4-0.4,0.6-0.5c0.1-0.1,0.2-0.3,0.3-0.4c0.2-0.2,0.5-0.4,0.8-0.6c0-0.1-0.1-0.1-0.1-0.2c0.5,0,1-0.1,1.5-0.1
		c0-0.5,0.1-1,0.1-1.5c0.8,0,0.8-0.5,0.8-1.1c0-2.7,0-5.4,0-8.1c0.3-0.1,0.5-0.1,0.8-0.2c0-2.2,0-4.4,0-6.6c0.3-0.1,0.5-0.1,0.8-0.2
		c0-0.8,0-1.5,0-2.3c0.3-0.1,0.6-0.2,0.9-0.3c0-0.8,0-1.5,0-2.3c0.8,0.1,0.9-0.4,0.9-1c-0.1-1,0-2.1,0-3.2c1.3,0,0.6-1.1,1-1.6
		c0.4-0.4,0.9-0.8,1.3-1.2c0.3-0.3,0.2-1,1-0.7c0-0.3,0.1-0.5,0.1-0.8c0,0,0.1,0.1,0.1,0.1c0.3-0.3,0.6-0.6,0.9-0.9
		c0.4-0.4,1.5,0.4,1.5-0.9c0.5,0,1,0,1.5,0c0,1.3,1.1,0.6,1.6,1c0.6,0.6,1.1,1.2,1.7,1.7c0.1,0,0.1-0.1,0.2-0.1c0,0.5,0.1,1,0.1,1.5
		c0.2,0.1,0.5,0.1,0.7,0.2c0.3,2.3,0.3,2.4,0.9,2.6c0,1.3,0,2.7,0,4.1c0,0.6,0.1,1,0.8,0.9c0,0.8,0,1.6,0,2.4
		c0.3,0.1,0.6,0.1,0.9,0.1c0,1.7,0,3.3,0,4.9c0.3,0,0.5,0.1,0.8,0.1c0,3.9,0,7.8,0,11.6c0.3,0.1,0.5,0.1,0.8,0.2
		c0,0.5,0.1,1,0.1,1.5c0.3,0.1,0.5,0.1,0.8,0.2c0,0.5,0,1,0.1,1.5c0.2,0.1,0.5,0.1,0.8,0.2c0,0.5,0,1,0.1,1.5c0.3,0,0.5,0.1,0.8,0.1
		c0,0.1-0.1,0.1-0.1,0.2c0.3,0.3,0.5,0.5,1,1c0,1,0,2.3,0,3.7c-0.2,0.1-0.5,0.1-0.8,0.2c0,1.9,0,3.8,0,5.7c-0.8,0.2-0.8,0.2-0.9-0.4
		c-0.4-0.3-0.6-0.5-0.8-0.7c0.2-0.2,0.4-0.4,0.8-0.7c0-1.1,0-2.5,0-3.9c-0.5,0-1-0.1-1.3-0.1c-0.4-0.4-0.7-0.7-0.9-1
		c0,0,0,0-0.1,0.1c-0.3-0.3-0.5-0.6-0.8-0.9c-0.1,0-0.1,0.1-0.2,0.1c0-0.2-0.1-0.4-0.1-0.7c0,0-0.1,0.1-0.1,0.1
		c-0.3-0.3-0.6-0.6-1.1-1.1c-1.1,0-2.4,0-3.8,0c0-0.6,0-1,0-1.6c-0.4-0.2-1.1-0.1-0.8-0.9c0.2,0,0.5-0.1,0.7-0.1c0-1.6,0-3.2,0-4.9
		c-0.2-0.1-0.5-0.1-0.8-0.2c0-0.8,0-1.5,0-2.3c0.2-0.1,0.5-0.1,0.7-0.2c0-0.8,0-1.5,0-2.3c-0.7-0.2-0.9,0-0.8,0.7
		c-0.6,0-1.1,0.1-1.7,0.1c0,1.7,0,3.3,0,5c-0.6,0-1.1,0-1.6,0c-0.4-1.6-0.2-2.4,0.7-2.6c0-0.5,0-1,0-1.5c-0.5,0-1-0.1-1.5-0.1
		c-0.2-0.3-0.1-1.1-0.9-0.7c0,1.8,0,3.8,0,5.7c-0.3,0.1-0.6,0.1-0.8,0.2c0,1.6,0,3.2,0,4.8c0.2,0.1,0.5,0.1,0.8,0.2
		c0,1.1,0,2.1,0,3.2c-0.8,0-1.6,0-2.5,0c0,0.7,0,1.3,0,1.9c0,0.6-0.2,0.7-0.8,0.5c0-1.1,0-2.3,0-3.4c0-0.6-0.2-0.8-0.9-0.6
		c0,3,0,6,0,9.1c-0.6,0-1.1,0-1.7,0c0-3.1,0-6.1,0-8.8c-0.8-0.8-1.3-1.3-2.1-2.1c-0.2,0-0.7,0-1.2,0c-0.2-0.4-0.1-1.1-0.9-0.8
		c0,0.5,0,1,0,1.5c0.2,0.1,0.5,0.1,0.8,0.2c0,1.3,0,2.7,0,4c0.3,0.1,0.5,0.1,0.8,0.2c0,0.5,0,1,0,1.3c-0.4,0.3-0.7,0.6-1,0.9
		c0,0.1,0.1,0.1,0.1,0.2c-1.1,0-2.1,0-3.3,0c0-0.8,0-1.6,0-2.4c-0.3-0.1-0.5-0.1-0.7-0.2c-0.5-0.5,0.4-1.7-1-1.7c0-0.5,0-1,0-1.5
		c-0.4-0.3-1.2-0.1-0.9-0.9c-0.3-0.1-0.6-0.2-0.9-0.2c0-0.8,0-1.5,0-2.3c-0.3-0.1-0.5-0.1-0.8-0.2c0-0.8,0-1.5,0-2.3
		c-0.3-0.1-0.6-0.2-0.8-0.2c0-0.5,0-0.9,0-1.5c-0.8,0-0.9-0.5-0.8-1.1c0-0.2,0-0.3,0-0.5c0.1-0.6,0-1.1-0.8-1c0-0.8,0-1.6,0-2.1
		c-0.6-0.5-1-0.9-1.7-1.5c0-0.5,0-1.3,0-2.1C81.5,58.1,81.3,58,81,58c0-0.5,0-1,0-1.5c-0.3-0.1-0.5-0.1-0.9-0.2c0-0.8,0-1.6,0-2.4
		c-0.6,0-1.1,0-1.6,0c0,1.1,0,2.1,0,3.2c-0.3,0.1-0.6,0.2-0.8,0.2c0,0.8,0,1.5,0,2.3c0.2,0.1,0.5,0.1,0.8,0.2c0,1,0,2.1,0,3.2
		c0.3,0.1,0.6,0.2,0.9,0.2c0,1.1,0,2.2,0,3.2c0,0.6,0.1,1,0.7,0.9c0.5,0.5-0.5,1.7,1,1.7c0,0.8,0,1.6,0,2.2c-0.4,0.3-0.7,0.6-1,0.9
		c0,0,0,0,0,0.1c-0.4,0.4-0.9,0.8-1.5,1.3c0,5.3,0,10.8,0,16.4c-0.6,0-1.1,0-1.7,0c0-5.8,0-11.7,0-17.5c-0.1-0.1-0.2-0.1-0.3-0.2
		c-0.2,0.2-0.4,0.4-0.6,0.6c-0.2,0.2-0.4,0.3-0.8,0.6c0,0.3,0,0.8,0,1.3C74.6,75,74,75,74.2,75.7c-0.9,0-1.7,0-2.2,0
		c-0.4-0.4-0.7-0.7-1.1-1.2c0-0.4,0-1.2,0-2c0.2-0.1,0.5-0.1,0.8-0.2c0-2.2,0-4.4,0-6.6c0.3-0.1,0.6-0.1,1.1-0.2
		c-0.4-0.4-0.7-0.7-1.1-1.1c0-2.5,0-5.2,0-8c0.3-0.1,0.5-0.1,0.8-0.2C72.5,52.7,72.5,49.1,72.5,45.5z M102.9,52.9
		c0.3,0.1,0.5,0.1,0.8,0.2c0,0.5,0,1,0,1.5c1.1,0,2.2,0,3.3,0c0-0.5,0.1-1.1,0.1-1.5c0.3-0.1,0.5-0.1,0.8-0.2c0-0.5,0-1,0-1.5
		c-0.3-0.1-0.5-0.2-0.8-0.2c0-0.8,0-1.5,0-2.3c-0.3-0.1-0.5-0.1-0.8-0.2c-0.2-0.7,0.4-1.7-0.8-1.7c-0.1-1.6-0.1-1.6-0.9-1.4
		c0,0.8,0,1.5,0,2.3c-0.3,0.1-0.6,0.2-0.8,0.2c0,0.8,0,1.6,0,2.3c0,0.6,0,1.1-0.8,1C102.9,51.9,102.9,52.4,102.9,52.9z"/>
	<path fill="#AAFF47" d="M132.5,43.8c0.3,0,0.5-0.1,0.7-0.1c0-0.5,0-1,0.1-1.5c0.3-0.1,0.5-0.1,0.8-0.2c0-0.5,0-1,0-1.5
		c0.6,0,1.1-0.1,1.6-0.1c0-0.3,0.1-0.5,0.1-0.8c0.5,0,1,0,1.5,0c0-0.1-0.1-0.1-0.1-0.2c0.6-0.6,1.1-1.2,1.7-1.7c0,0,0,0,0,0
		c0.3-0.3,0.6-0.5,1-1c-0.1-0.4,0.3-0.5,0.9-0.5c1.6,0,3.3,0,5,0c0-0.6,0.2-1,0.9-0.9c0-0.6,0.1-1.1,0.1-1.6c0.8,0,1.6,0,2.2,0
		c0.3,0.4,0.6,0.7,0.9,1c0.1,0,0.1-0.1,0.2-0.1c0,0.5,0,1,0,1.5c0.3,0.1,0.5,0.2,0.8,0.2c0,2.4,0,4.9,0,7.2
		c-0.3,0.3-0.6,0.5-0.8,0.7c0.2,0.2,0.4,0.4,0.8,0.7c0,0.2,0,0.7,0,1.3c-0.2,0.1-0.5,0.1-0.8,0.2c0,0.5,0,0.9,0,1.4
		c-0.3,0.1-0.5,0.1-0.8,0.2c0,1.6,0,3.2,0,4.9c-0.6,0-1.1,0-1.6,0c0-0.5,0-1,0-1.5c1.5-0.5,0.5-1.7,0.7-2.4
		c-0.8-0.8-1.6-1.5-2.3-2.2c-0.1,0-0.1,0.1-0.2,0.1c0-0.5,0-1,0-1.5c-0.9,0.1-0.9-0.4-0.9-1c0-0.8,0-1.5,0-2.1
		c-0.4-0.4-0.7-0.6-1.1-0.9c0-0.1,0.1-0.1,0.1-0.2c-1.3,0-2.7,0-4.1,0c0,1.9,0,3.8,0,5.7c-0.3,0.1-0.6,0.2-0.9,0.2
		c0,0.8,0,1.5,0,2.3c0.2,0.1,0.5,0.1,0.8,0.2c0,1.9,0,3.8,0,5.7c-0.2,0-0.5,0.1-0.8,0.1c0,1.1,0,2.1,0,3.2c0.2,0.1,0.5,0.1,0.8,0.2
		c0,1.6,0,3.2,0,4.9c0.3,0.1,0.6,0.1,0.9,0.2c0,0.5,0,1,0,1.3c0.4,0.4,0.8,0.7,1.1,0.9c0,0.1-0.1,0.1-0.1,0.2c0.8,0,1.5,0,2.4,0
		c0-1.1,0-2.1,0-3.2c0.1,0,0.2,0.1,0.3,0.1c0.2-0.3,0.4-0.6,0.7-0.8c0.2-0.2,0.5-0.2,0.8-0.4c0-0.4,0-0.9,0-1.4
		c1.7-0.4,0.4-1.8,1.1-2.6c0.1,0,0.3-0.1,0.6-0.2c0-0.5,0-1,0.1-1.5c0.8,0,1.5,0,2.3,0c0.4,0.5,0.9,1,1.4,1.6c1.1,0,0.2-1.1,0.8-1.6
		c0.7,0.1,0.6-0.6,0.6-1.2c0-2.1,0-4.2,0-6.4c0.3-0.1,0.5-0.1,0.8-0.2c0-2.7,0-5.4,0-8.2c0.5-0.2,1.1-0.1,0.9-0.7
		c0.6-0.5,1-0.9,1.4-1.3c0.1,0,0.1,0.1,0.2,0.1c0-0.2,0.1-0.5,0.1-0.7c0,0,0.1,0.1,0.1,0.1c0.3-0.3,0.6-0.5,0.8-0.8
		c1.4-0.4,1.4-0.5,1.6-1c1.9,0,3.7,0,5.7,0c0,1.3,1,0.6,1.7,0.9c0,0.2,0.1,0.4,0.2,0.7c0.5,0,1,0,1.5,0c0.1,0.3,0.1,0.5,0.2,0.8
		c0,0,0.1-0.1,0.1-0.1c0.2,0.3,0.4,0.5,0.7,0.8c0.1,0.1,0.2,0.2,0.3,0.3c0.2,0.2,0.4,0.4,0.6,0.5c0.2,0.2,0.5,0.3,0.8,0.5
		c0,3.4,0,7,0,10.4c0.4,0.4,0.8,0.7,1.1,0.9c0,0.1-0.1,0.1-0.1,0.2c0.2,0.1,0.5,0.1,0.8,0.2c0,1.6,0,3.2,0,4.8
		c-0.2,0.1-0.5,0.1-0.8,0.2c0,3,0,6,0,9.1c-0.3,0.1-0.5,0.1-0.8,0.2c0,0.5,0,1-0.1,1.5c-0.1,0-0.1-0.1-0.2-0.1
		c-0.2,0.3-0.4,0.6-0.7,0.9c-0.4,0.4-0.9,0.7-1.3,1.1c-0.1,0.1-0.2,0.2-0.3,0.3c-0.2,0.2-0.4,0.5-0.7,0.8c-0.3,0.3-0.6,0.6-1,1
		c0,1.1,0,2.4,0,3.8c-0.3,0-0.5,0.1-0.9,0.1c0,0.8,0,1.6,0,2.4c-0.6,0-1,0-1.6,0c0-1.9,0-3.8,0-5.8c-1.5,0-2.9,0-4.2,0
		c-0.6,0-1-0.1-0.9-0.8c-0.8,0-1.6,0-2.4,0c0-0.3-0.1-0.5-0.1-0.8c-0.2,0-0.5-0.1-0.7-0.2c0,0,0.1-0.1,0.1-0.1
		c-0.8-0.8-1.7-1.7-2.5-2.5c-0.1,0-0.1,0.1-0.2,0.1c0-0.4,0-0.8,0-1.2c0-0.4,0-0.7,0-1.2c-0.3-0.1-0.5-0.1-0.8-0.1
		c0-0.1-0.1-0.2-0.1-0.3c0-1.3,0-2.7,0-4c0-0.6-0.1-0.9-0.8-0.6c0,1,0,2.1,0,3.2c-0.8-0.1-0.9,0.4-0.9,1c0,1,0,2.1,0,2.9
		c-1,1-1.9,1.9-2.7,2.7c-0.4,0.2-0.9,0.2-0.6,1c-0.9,0-1.7,0-2.6,0c0,2,0,3.9,0,5.8c-0.1,0.1-0.2,0.1-0.2,0.2
		c-0.2-0.2-0.4-0.3-0.6-0.5c-0.2-0.2-0.4-0.3-0.6-0.5c-0.1,0.1-0.2,0.1-0.2,0.2c0,1.6,0,3.3,0,4.9c-0.6,0-1.1,0-1.7,0
		c0-2.8,0-5.5,0-8.3c-1.1,0-2.2,0-3.3,0c-0.1-0.3-0.2-0.6-0.2-0.8c-0.5,0-1,0-1.3-0.1c-0.4-0.4-0.6-0.7-0.9-1c0,0,0,0-0.1,0.1
		c-0.3-0.3-0.5-0.6-0.8-0.9c-0.1,0-0.2,0.1-0.2,0.1c0-0.5,0-1,0-1.5c-1.3,0-0.7-1-0.9-1.7c-0.2,0-0.5-0.1-0.8-0.2c0-2.5,0-5,0-7.4
		c0-0.5,0.1-1.1-0.8-0.9c0-1.4,0-2.8,0-3.9c0.6-0.5,1-1,1.6-1.5c0-2,0-4.1,0-6.3c-0.2-0.1-0.5-0.1-0.7-0.2
		C132.5,46,132.5,44.9,132.5,43.8z M160.4,42.1c-0.1,0.3-0.2,0.7-0.4,0.7c-0.8,0-0.6,0.6-0.6,1.1c0,1,0,2,0,3c0,1.7,0,3.4,0,5.1
		c-0.1,0-0.2-0.1-0.3-0.1c-0.2,0.3-0.6,0.7-0.5,0.9c0.2,1-0.8,2.3,0.8,2.9c0,1.3,0,2.6,0,3.9c0.3,0.1,0.5,0.1,0.8,0.2
		c0,1.4,0,2.7,0,4c0.3,0.1,0.5,0.1,0.8,0.2c0,0.2,0.1,0.5,0.1,0.7c0.1,0,0.1-0.1,0.2-0.1c0.6,0.6,1.2,1.2,1.9,1.9c0.3,0,0.7,0,0.9,0
		c0.4-0.4,0.8-0.8,1.2-1.2c0-0.6,0-1.3,0-1.8c-0.4-0.4-0.8-0.6-0.8-0.9c-0.1-1.5,0-2.9,0-4.4c0.3-0.1,0.5-0.1,0.8-0.2
		c0-0.8,0-1.6,0-2.3c-1.5-0.5-0.3-1.8-1-2.6c-0.1,0-0.4-0.1-0.6-0.2c0-0.8,0-1.5,0-2.3c-0.3-0.1-0.5-0.1-0.8-0.2c0-1.4,0-2.7,0-4
		c0.7-0.2,1.1-1.1,0.7-1.8c-0.2,0-0.5-0.1-0.7-0.1c0-0.5,0-1-0.1-1.5c-0.1,0-0.1,0.1-0.2,0.1c-0.3-0.3-0.6-0.6-1-1
		C161.3,42.1,160.9,42.1,160.4,42.1z M143.3,73.3c-0.6,0-1.1,0-1.6,0c0,0.6,0,1.1,0,1.5c0.6,0,1.1,0,1.6,0
		C143.3,74.3,143.3,73.8,143.3,73.3z"/>
	<path fill="#AAFF47" d="M259.7,56.5c0.3-0.1,0.5-0.1,0.8-0.2c0-0.5,0-1,0.1-1.5c0.3,0,0.5-0.1,0.8-0.1c0-1.4,0-2.7,0-4.1
		c-0.8,0.1-0.8-0.4-0.8-1c0-1.6,0-3.2,0-4.8c-0.3-0.1-0.5-0.1-0.8-0.2c0-0.4,0-0.8,0-1.2c0-0.2-0.3-0.3-0.4-0.4
		c-0.1,0.1-0.4,0.3-0.4,0.4c-0.1,0.4,0,0.7,0,1.2c-0.6,0-1.1,0-1.6,0c0-0.8,0-1.5,0-2.4c0.7,0,0.9-0.5,0.8-1.1c-0.1-0.7,0-1.4,0-2.2
		c-0.3-0.1-0.5-0.1-0.8-0.2c0,0,0.1-0.1,0.1-0.1c-0.3-0.3-0.6-0.6-1-1.1c0-0.8,0-1.8,0-2.7c0.4-0.3,0.7-0.6,1-0.9
		c0-0.1-0.1-0.2-0.1-0.3c0.6,0.2,1.5-0.6,1.7,0.8c0.5,0,1,0,1.3,0c0.5,0.6,1,1.1,1.5,1.7c0.3,0,0.8,0,1.3,0.1
		c0.1,0.2,0.1,0.5,0.2,0.8c1,0,2.1,0,3.1,0c0.1,0.3,0.1,0.5,0.2,0.8c0.5,0,0.9,0,1.4,0c0,0.1-0.1,0.1-0.1,0.2
		c0.6,0.6,1.2,1.2,1.8,1.8c0.4,0.4-0.3,1.5,1,1.6c0,0.5,0,1,0,1.5c1.3,0,0.7,1,0.9,1.7c0.2,0,0.4,0.1,0.8,0.2c0,0.6,0,1.1,0,1.7
		c0,0.2,0.2,0.5,0.4,0.7c0.2-0.2,0.4-0.5,0.4-0.7c0-3.1,0-6.2,0-9.2c0.4-0.2,1.1-0.1,0.8-0.9c0.6,0,1.1-0.1,1.6-0.1
		c0.1-0.3,0.1-0.5,0.2-0.8c0.5,0,0.9,0,1.2,0c0.4-0.4,0.7-0.8,1.1-1.1c0.1,0,0.1,0.1,0.2,0.1c0-0.5,0-1,0.1-1.5
		c0.3-0.1,0.5-0.1,0.8-0.2c0-0.5,0-1,0.1-1.5c0.8,0,1.6,0,2.2,0c0.4,0.4,0.7,0.7,1.1,1.1c0,0.5,0,1.3,0,2.1
		c-0.2,0.1-0.5,0.1-0.8,0.2c0,0.7,0,1.5,0,2.3c-0.3,0.1-0.5,0.1-0.8,0.2c0,0.5-0.1,1-0.1,1.5c-0.2,0-0.5,0.1-0.7,0.1
		c0,0.2-0.1,0.4-0.1,0.7c0,5.1,0,10.2,0,15.2c0,0.5,0,1-0.8,0.9c0,1.9,0,3.9,0,5.8c0.2,0.1,0.5,0.1,0.7,0.2c0,0.2,0.1,0.3,0.1,0.4
		c0,2.1,0,4.1,0,6.2c0,0.5-0.1,1.1,0.8,0.9c0,0.9,0,1.7,0,2.5c0,0.6,0.1,1,0.8,0.9c0,1.1,0,2.1,0,3.2c0.3,0.1,0.5,0.1,0.8,0.2
		c0,1.1,0,2.1,0,2.9c-0.4,0.4-0.7,0.7-1.1,1.1c-0.8,0-1.9,0-3,0c0-1.1,0-2.1,0-3.3c-0.3-0.1-0.6-0.1-0.8-0.1c0-0.5,0-1-0.1-1.3
		c-0.4-0.4-0.7-0.6-1-0.9c-1.2-0.2-0.4-1.3-0.7-1.8c-0.2,0-0.4-0.1-0.6-0.2c-0.3-2.4-0.3-2.4-0.9-2.6c0-1,0-2.1,0-3.1
		c-0.3-0.1-0.5-0.1-0.8-0.2c0-0.5,0-1,0-1.5c-0.3-0.1-0.5-0.1-0.8-0.2c0-0.5,0-1,0-1.5c-0.3-0.1-0.5-0.2-0.8-0.2c0-0.5,0-0.9,0-1.5
		c-1.4,0-0.7-1.1-1-1.7c-0.2-0.1-0.4-0.1-0.6-0.2c-0.4-0.6,0.4-1.6-0.9-1.7c0-0.8,0-1.6,0-2.4c-0.3-0.1-0.6-0.1-0.8-0.2
		c0-0.5,0-1-0.1-1.5c-0.7-0.3-0.9,0.1-0.8,0.7c-0.3,0-0.5,0.1-0.8,0.1c0,2.2,0,4.3,0,6.6c0.2,0.1,0.5,0.1,0.8,0.2c0,1.9,0,3.8,0,5.5
		c0.6,0.5,1.1,0.9,1.6,1.5c0,0.8,0,1.9,0,2.8c-0.4,0.3-0.7,0.6-1,0.9c0,0.1,0.1,0.2,0.1,0.2c-0.5,0-1,0.1-1.6,0.1c0,1.9,0,3.8,0,5.7
		c-0.6,0.2-0.9,0.1-0.9-0.6c0-0.9,0-1.7,0-2.7c-0.6,0-1,0-1.3,0c-0.4-0.4-0.7-0.6-0.9-0.9c-0.2,0.2-0.3,0.5-0.5,0.8
		c-0.4,0-0.9,0.1-0.6,0.9c-0.9,0-1.7,0-2.4,0c-0.4-0.6,0.4-1.7-0.9-1.7c0-0.5,0-1,0-1.5c0.7,0,0.8-0.5,0.8-1.2c-0.1-1,0-2,0-3.1
		c0.3-0.1,0.5-0.2,0.8-0.2c0-1.6,0-3.2,0-4.9c-0.8,0-0.8-0.5-0.8-1.1C259.7,60.2,259.7,58.4,259.7,56.5z"/>
	<path fill="#AAFF47" d="M24.4,36.3c0-0.3,0-0.6,0-0.7c-0.4-0.4-0.7-0.6-1-0.9c0,0,0,0,0,0c-0.3-0.3-0.6-0.6-0.9-0.9c0,0,0,0,0,0
		c-0.3-0.3-0.5-0.6-0.8-0.8c0,0,0.1,0,0.1-0.1c-0.2-0.2-0.5-0.3-0.7-0.5c0.2-0.2,0.4-0.3,0.6-0.5c0.2-0.2,0.3-0.5,0.4-0.8
		c0.4,0,0.9,0,1.2,0c0.4,0.4,0.7,0.7,1.2,1.2c0,0.2,0,0.7,0,1.2c0.1,0,0.1-0.1,0.2-0.1c0.2,0.3,0.4,0.6,0.7,0.8
		c0.2,0.2,0.5,0.2,0.8,0.4c0,0.2,0.1,0.4,0.1,0.7c0.5,0,0.9,0,1.4,0c0.1,0,0.2-0.4,0.3-0.7c-0.4-0.2-1.2-0.1-0.8-0.9
		c0.5,0,0.9,0,1.5,0c0.1,0.5,0.2,1.1,0.3,1.6c0,0,0.4,0,0.6,0c0-1.1,0-2.1,0-3.2c0.3-0.1,0.5-0.2,0.8-0.2c0-0.5,0.1-1,0.1-1.8
		c0.6,0.5,1,0.9,1.6,1.3c0,0.3,0,0.8,0,1.3c-0.7,0.1-0.8,0.5-0.8,1.1c0,0.3-0.3,0.6-0.5,0.9c-0.1,0-0.2-0.1-0.2-0.1c0,0.5,0,1,0,1.5
		c0.7,0.3,0.9-0.1,0.8-0.7c0.5,0,1,0,1.5,0c0.2,1.4,1.3,0.7,2,0.8c0.3,0,0.6-0.3,0.9-0.5c0-0.1-0.1-0.2-0.1-0.3c0.8,0,1.5,0,2.3,0
		c0.4,1.6,1.8,0.4,2.4,0.8c0.5,0.6,0.9,1,1.2,1.4c0.5,0.5,0.9,0.9,1.4,1.3c0.5,0.4-0.4,1.6,1,1.6c0,1.1,0,2.1,0,3.2
		c0.3,0.1,0.5,0.1,0.8,0.2c0,1.9,0,3.8,0,5.7c-1.3,0-0.6,1.1-1,1.5c-0.6,0.6-1.2,1.2-1.9,1.9c-0.2,0-0.7,0-1.3,0.1c0,1.4,0,2.7,0,4
		c0.7,0.3,0.7,0.3,0.9,1.8c1.3,0,0.6,1.1,1,1.6c0.2,0.3,0.4,0.6,0.7,0.8c0.2,0.2,0.5,0.2,0.8,0.4c0,0.4,0,0.9,0,1.4
		c0.3,0.1,0.6,0.1,0.8,0.2c0,0.5,0,0.9,0,1.5c0.3,0.1,0.5,0.1,0.8,0.2c0,1,0,2.1,0,3.2c0.3,0.1,0.6,0.1,0.9,0.2c0,0.5,0,0.9,0,1.2
		c0.9,0.8,1.6,1.6,2.4,2.3c0.1,0,0.1-0.1,0.2-0.1c0,0.5,0,1,0,1.5c0.3,0.1,0.5,0.1,0.9,0.2c0,0.5,0,1,0,1.5c0.6,0.1,1.1,0.1,0.9,0.6
		c0.4,0.4,0.7,0.7,1,0.9c0,0.1-0.1,0.1-0.1,0.2c0.2,0,0.5,0.1,0.7,0.1c0,0.8,0,1.6,0,2.4c-1.4,0-2.7,0-4.1,0
		c-0.1-0.2-0.1-0.5-0.2-0.8c-0.7,0-1.5,0-2.3,0c-0.1-0.3-0.1-0.5-0.1-0.5c-0.4-0.4-0.7-0.7-1-0.9c0,0,0,0,0,0
		c-0.3-0.3-0.6-0.6-0.9-0.9c0-0.1,0.1-0.1,0.1-0.2c-0.5,0-1,0-1.5,0c0-0.1,0.1-0.1,0.1-0.2c-0.6-0.6-1.1-1.2-1.7-1.7
		c-0.1,0-0.1,0.1-0.2,0.1c0-0.5,0-1,0-1.5c-0.3-0.1-0.5-0.1-0.5-0.1c-0.4-0.4-0.7-0.7-0.9-1c-0.1,0-0.1,0.1-0.2,0.1
		c0-1.3,0-2.7,0-4.1c-0.9,0-1.7,0-2.5,0c0-1.7,0-3.4,0-5c-0.3-0.1-0.6-0.1-0.9-0.2c0-0.8,0-1.5,0-2.3c-0.3-0.1-0.5-0.1-0.8-0.2
		c0-0.5,0-1,0-1.5c-0.3-0.1-0.5-0.2-0.8-0.2c0-0.5,0-0.9,0-1.5c-0.5-0.1-0.9-0.3-0.9,0.4c0,2,0,4.1,0,6.1c0.3,0.1,0.5,0.1,0.8,0.2
		c0,0.5,0,1,0,1.5c0.3,0.1,0.5,0.1,0.8,0.1c0,1.6,0,3.2,0,4.7c0.6,0.5,1.1,0.9,1.7,1.5c0,0.6,0,1.3,0,2.2c-1.1,0-2.2,0-3.3,0
		c0,0.6,0,1.1,0,1.5c-0.1,0-0.2-0.1-0.3-0.1c-0.2,0.3-0.6,0.6-0.6,1c0,5,0,9.9,0,14.9c0,0.1,0,0.2,0,0.3c1.2,0.1,0.7,1,0.8,1.5
		c-0.4,0.3-0.7,0.6-1,0.9c0,0.1,0.1,0.1,0.1,0.2c-0.5,0-1,0-1.5,0c0-3.3,0-6.6,0-10c0.9,0,0.8-0.6,0.8-1.2c0-1.5,0-3.1,0-4.7
		c-0.3-0.1-0.5-0.1-0.8-0.2c0-1.3,0-2.6,0-3.7c-0.8-0.8-1.3-1.4-1.9-2c0-0.1,0.1-0.1,0.1-0.2c-0.5,0-1,0-1.5,0
		C27,71.3,27,71,26.9,70.7c-0.5,0-1,0-1.5,0c-0.1-0.3-0.1-0.5-0.1-0.8c-0.3-0.1-0.5-0.1-0.8-0.1l0,0c0-0.5,0-1,0-1.5
		c0.1,0,0.1,0.1,0.2,0.1c0.2-0.3,0.4-0.7,0.7-0.9c0.4-0.4,0.9-0.7,1.4-1c0.1-0.1,0.3-0.4,0.3-0.6c0-2.7,0-5.4,0-8.1
		c0-0.3-0.4-0.5-0.6-0.8c-0.1,0-0.2,0.1-0.2,0.1c0-1.7,0-3.4,0-5.1c0-1.3,0-2.7,0-4c0-0.6-0.1-1-0.8-0.9c0-1.1,0-2.1,0-3.2
		c0.2-0.1,0.5-0.1,0.7-0.2c0-1,0-2.1,0-3.4c-0.6,0.4-1.2,0.7-1.6,1.1c-0.4,0.4-0.7,0.9-1.1,1.5c-0.4,0-0.8,0-1.4,0.1
		c-0.1,0.3-0.1,0.5-0.2,0.7c-0.8,0.1-0.9,0-0.7-1.2c0.4-0.5,0.6-0.7,0.8-1c0.1-0.1,0.3-0.2,0.5-0.3c0.3,0,0.7,0,0.9,0
		c0.4-0.4,0.6-0.7,0.9-1c0.1,0,0.1,0.1,0.2,0.1c0-0.5,0-1,0-1.6c-1.1,0-2.2,0-3.3,0c0-0.6,0-1.1,0-1.7c0.8,0,1.6,0,2.3,0
		C23.7,36.6,23.6,35.8,24.4,36.3c0,0.5,0,0.9,0,1.4c1,0.1,1.1-0.1,0.8-1.6C24.9,36.2,24.7,36.3,24.4,36.3z M33,46.4
		c0,1.4,0,2.7,0,4.1c0.8,0,1.6,0,2.5,0c0-0.5,0-1,0.1-1.6c0.3-0.1,0.5-0.1,0.8-0.2c0-2.2,0-4.4,0-6.6C36,42.1,35.7,42,35.4,42
		c0-0.5,0-1,0-1.6c-0.3,0.1-0.6,0.1-0.8,0.3c-0.3,0.2-0.4,0.6-0.7,0.8c-0.1,0-0.2-0.1-0.2-0.1c0,1.6,0,3.2,0,4.9
		C33.4,46.3,33.2,46.3,33,46.4z"/>
	<path fill="#AAFF47" d="M338.2,68.1c0-0.5,0-1,0-1.3c-0.6-0.5-1.1-0.9-1.7-1.5c0-0.3,0-0.8,0-1.3c-0.3-0.1-0.5-0.1-0.8-0.2
		c0-0.8,0-1.5,0-2.3c-0.3-0.1-0.5-0.1-0.8-0.2c0-0.5,0-0.9,0-1.5c-0.3-0.1-0.5-0.1-0.9-0.2c0-0.7,0-1.5,0-2.1
		c-0.6-0.5-1-0.9-1.4-1.3c-0.1,0.1-0.1,0.1-0.2,0.2c0,1.6,0,3.2,0,4.9c0.2,0.1,0.5,0.1,0.8,0.2c0,0.7,0,1.5,0,2.3
		c0.8,0,0.9,0.5,0.9,1.2c0,1.3,0,2.6,0,3.9c0.3,0.1,0.5,0.1,0.8,0.2c0,0.5,0,1,0,1.3c0.6,0.5,1.1,1,1.7,1.5c0,0.3,0,0.8,0,1.4
		c-0.8,0-1.6,0-2.5,0c0,2.6,0,5,0,7.5c-0.6,0-1.1,0-1.6,0c0-2.5,0-4.9,0-7.4c-0.6-0.1-1.1-0.2-0.9-0.9c-0.6,0-1.1-0.1-1.6-0.1
		c0-0.3-0.1-0.5-0.1-0.8c-0.8,0-1.5,0-2.4,0c-0.1-0.3-0.1-0.5-0.2-0.8c-0.5,0-1,0-1.5,0c0-0.1,0.1-0.2,0.1-0.2
		c-0.3-0.2-0.7-0.4-0.9-0.7c-0.3-0.5-0.5-0.9-1-1c0.2-0.3,0.4-0.6,0.6-0.9c0.1,0,0.1,0.1,0.2,0.1c0-0.2,0.1-0.4,0.1-0.7
		c0.5,0,1-0.1,1.6-0.1c0-3.9,0-7.8,0-11.7c-0.2,0-0.5-0.1-0.7-0.1c0-1.4,0-2.7,0-4.1c0.3,0,0.5-0.1,0.8-0.2c0-0.8,0-1.5,0-2.3
		c-0.2-0.1-0.5-0.1-0.8-0.2c0-3.9,0-7.7,0-11.4c0.4-0.4,0.7-0.7,1.1-1.2c0.5,0,1.3,0,2.1,0c-0.1,0.9,0.5,0.8,1.1,0.8
		c0.8,0,1.5,0,2.3,0c0.1-0.3,0.2-0.5,0.2-0.8c0.8,0,1.5,0,2.3,0c0.1-0.3,0.1-0.5,0.2-0.8c1.1,0,2.1,0,3.2,0c0.1,0.3,0.1,0.5,0.2,0.8
		c0.5,0,0.9,0,1.5,0c0,1.3,1.1,0.7,1.4,0.8c0.4,0.5,0.7,0.8,1,1.1c0.1,0,0.1-0.1,0.2-0.1c0,0.5,0,1,0,1.5c0.3,0.1,0.5,0.1,0.8,0.2
		c0,0.7,0,1.5,0,2.2c1.6,0.5,0.5,1.8,1,2.7c0.1,0,0.4,0.1,0.6,0.1c0,1.4,0,2.7,0,4c-0.2,0.1-0.4,0.1-0.8,0.2c0,0.5,0,0.9-0.1,1.5
		c-0.2,0.1-0.5,0.1-0.7,0.2c0,0.1,0.1,0.1,0.1,0.2c-0.3,0.2-0.5,0.4-0.8,0.6c-0.1,0.1-0.2,0.2-0.3,0.4c-0.1,0.2-0.3,0.3-0.5,0.5
		c-0.1,0.1-0.3,0.2-0.4,0.3c-0.2,0.2-0.4,0.4-0.5,0.6c-0.2,0.2-0.3,0.5-0.5,0.8c-0.8,0.2-0.9,0.4-0.6,2.5c0.2,0.1,0.5,0.1,0.7,0.2
		c0,0.5,0,1,0.1,1.5c0.3,0.1,0.5,0.1,0.8,0.2c0,0.5,0,1,0,1.5c0.3,0,0.5,0.1,0.8,0.1c0,0.5,0,1,0.1,1.5c0.3,0.1,0.5,0.1,0.8,0.2
		c0,0.5,0,0.9,0,1.5c1.3,0.1,0.7,1.1,0.9,1.7c0.2,0,0.5,0.1,0.7,0.2c0,0.5,0.1,1,0.1,1.5c0.3,0.1,0.5,0.1,0.8,0.2c0,0.8,0,1.5,0,2.1
		c0.6,0.5,1.1,0.9,1.7,1.5c0,0.3,0,0.8,0.1,1.3c0.1,0,0.1-0.1,0.2-0.1c0.2,0.3,0.4,0.6,0.7,0.8c0.2,0.2,0.5,0.3,0.8,0.4
		c0,0.7,0,1.4,0,2c0.4,0.4,0.7,0.7,1.1,1c0,0.1-0.1,0.1-0.1,0.2c0.5,0,1,0,1.2,0c0.5,0.5,0.8,0.8,1.2,1.2c0,0.2,0,0.7,0,1.1
		c-0.5,0.5-1,0.9-1.6,1.4c0,0.6,0,1.3,0,2.1c0.3,0.2,1.1,0,0.7,0.9c-0.5,0-1,0.1-1.6,0.1c0,0.8,0,1.6,0,2.3
		c-0.6,0.3-0.9,0.1-0.9-0.5c0-1.2,0-2.4,0-3.7c0-0.4,0.1-0.8-0.5-0.8c-0.1,0-0.2-0.2-0.3-0.2c-0.2-0.2-0.4-0.4-0.5-0.6
		c-0.2-0.2-0.3-0.5-0.5-0.8c-0.4,0-0.9-0.1-1.4-0.1c-0.1-0.3-0.1-0.5-0.2-0.8c-0.5,0-1,0-1.5,0c0-0.1,0.1-0.1,0.1-0.2
		c-0.6-0.6-1.1-1.1-1.7-1.7c0,0,0,0,0,0c-0.3-0.2-0.5-0.4-0.8-0.6c-0.1-0.1-0.2-0.2-0.3-0.4c-0.1-0.1-0.2-0.3-0.3-0.5
		c-0.2-0.2-0.5-0.4-0.9-0.7c-0.2-0.2-0.4-0.5-0.5-0.7c0-0.1-0.1-0.2-0.1-0.2c-1,0-0.7-0.8-0.7-1.2c0-0.7,0-1.4,0-2.1
		C339,68.5,339,68.1,338.2,68.1z M336.4,47c0-1.1,0-2.1,0-3.2c-0.3-0.1-0.5-0.1-0.8-0.2c0-1.1,0-2.2,0-3.2c-0.6,0-1.1,0-1.6,0
		c0,0.5,0,1-0.1,1.5c-0.8,0.3-0.8,0.3-0.8,1.1c0,1.3,0,2.7,0,4c-0.3,0.1-0.5,0.1-0.8,0.2c0,0.8,0,1.6,0,2.4c0.1,0,0.1-0.1,0.2-0.1
		c0.3,0.3,0.6,0.6,0.9,1c0.6,0,1.4,0,2.2,0c0-1.1,0-2.1,0-3.2C335.9,47.2,336.2,47.1,336.4,47z"/>
	<path fill="#AAFF47" d="M302.7,39.8c0,1.7,0,3.6,0,5.5c-0.3,0.1-0.5,0.1-0.8,0.2c0,0.3,0,0.6,0,0.9c0,1.1,0,2.1,0,3.2
		c0,0.6,0.1,0.9,0.8,0.8c0,2.2,0,4.4,0,6.6c-0.8,0-0.8,0.6-0.8,1.2c0,3.2,0,6.4,0,9.5c-0.6,0.5-1,0.9-1.7,1.4c0,0.3,0,0.8,0,1.3
		c-0.5,0.1-1.2,0-0.8,0.9c-0.3,0.1-0.6,0.1-1.2,0.2c0.4,0.4,0.7,0.7,1.1,1.1c0,1,0,2.4,0,3.8c-0.5,0-1,0-1.6,0c0-1.6,0-3.3,0-4.9
		c-0.3,0-0.5,0-0.8,0c0,1.9,0,3.8,0,5.7c0.2,0.1,0.5,0.2,0.8,0.2c0,1.1,0,2.1,0,2.9c-0.4,0.4-0.7,0.7-1,1c-0.5,0.4-0.6,0-0.6-0.5
		c0-2.5,0-5,0-7.5c0-0.3,0-0.6,0-1c-4,0-7.8,0-11.7,0c0-0.1,0.1-0.1,0.1-0.2c-0.3-0.3-0.6-0.6-0.9-0.9c-0.1,0-0.1,0.1-0.2,0.1
		c0-0.5,0-1,0-1.3c-0.4-0.3-0.6-0.5-0.9-0.7c0.2-0.2,0.4-0.4,0.8-0.7c0-1.4,0-3,0-4.7c-0.2-0.1-0.5-0.1-0.8-0.2c0-5.2,0-10.5,0-15.8
		c-0.3-0.1-0.6-0.2-0.8-0.3c0-1.1,0-2.1,0-3.2c0.3,0,0.5-0.1,0.8-0.1c0-2.8,0-5.5,0-8c0.4-0.4,0.7-0.7,1.1-0.9
		c0-0.1-0.1-0.1-0.1-0.2c0.5,0,1,0,1.5-0.1c0.1-0.2,0.1-0.5,0.2-0.8c1.3,0,2.6,0,4,0c0.1,0.2,0.1,0.5,0.2,0.8c0.8,0,1.5,0,2.3,0
		c0.1,1.3,1,0.8,1.7,0.9c0.1-0.3,0.1-0.5,0.2-0.8c1.3,0,2.6,0,4,0c0,0.6,0.4,0.8,1,0.8c0.3,0,0.6,0.3,1,0.5c0,0.1-0.1,0.2-0.1,0.3
		c0.5,0,1,0.1,1.5,0.1c0,0.5,0.1,1,0.1,1.4C301.6,38.9,302.1,39.3,302.7,39.8z M289.3,45.4c0,5.9,0,11.8,0,17.6
		c0.3,0.1,0.5,0.2,0.8,0.2c0,0.8,0,1.6,0,2.3c0.1,0,0.2-0.1,0.2-0.1c0.3,0.3,0.5,0.6,0.9,1c0.3,0,0.8,0,1.3,0
		c0.1-0.3,0.1-0.5,0.1-0.8c0.5,0,1.1,0,1.6-0.1c0-2.3,0-4.4,0-6.6c0.3-0.1,0.5-0.1,0.8-0.2c0-5.2,0-10.3,0-15.4
		c0-0.2-0.1-0.4-0.3-0.5c-0.3-0.2-0.5-0.5-0.8-0.7c-0.5-0.3-1.5,0.2-1.6-1c-0.5,0-1,0-1.2,0c-0.5,0.4-0.8,0.7-1.2,1.1
		c0,0.6,0,1.4,0,2.2C290.1,45.2,290,45.5,289.3,45.4z"/>
	<path fill="#AAFF47" d="M311.2,56.5c0,3.6,0,7.2,0,10.9c1.4,0,2.7,0,4.1,0c0-0.3,0.1-0.5,0.1-0.8c0.5,0,1,0,1.5,0
		c0-0.1-0.1-0.1-0.1-0.2c0.6-0.6,1.1-1.2,1.7-1.7c0.1,0,0.1,0.1,0.2,0.1c0-0.5,0-1,0.1-1.5c0.3-0.1,0.5-0.1,0.8-0.2c0-0.5,0-1,0-1.5
		c0.5-0.1,1.1-0.1,0.8-0.9c0.9,0,1.7,0,2.5,0c0,4.5,0,8.9,0,13.4c-0.5,0-1,0.1-1.6,0.1c0,1.1,0,2.2,0,3.3c0.3,0.1,0.5,0.1,0.7,0.2
		c0,0.5,0,1,0,1.5c-0.5,0-1,0-1.6,0c0-1.2,0-2.4,0-3.5c0-0.6-0.2-0.7-0.8-0.5c0,1.9,0,3.8,0,5.8c0.2,0,0.5,0.1,0.7,0.1
		c0,0.8,0,1.6,0,2.1c-0.4,0.4-0.7,0.7-1.2,1.2c-0.1-0.1-0.3-0.2-0.5-0.4c-0.1-0.1-0.1-0.3-0.1-0.3c-1.5-0.4-0.4-1.5-0.7-2.3
		c0-0.1,0.4-0.3,0.8-0.5c0-1.5,0-3.1,0-4.6c-0.4-0.4-0.7-0.6-0.8-0.8c-0.7-0.7-1.3-1.3-2-2c-1.9,0-4.1,0-6.3,0
		c-0.1-0.3-0.1-0.5-0.2-0.8c-0.5,0-1,0-1.5-0.1c-0.1-0.3-0.1-0.5-0.2-0.8c-0.8,0-1.5,0-2,0c-0.5-0.5-0.8-0.8-1.3-1.2
		c0-2.7,0-5.8,0-8.8c-0.3-0.1-0.5-0.1-0.8-0.1c0-2.5,0-5,0-7.5c0.3,0,0.5-0.1,0.8-0.1c0-5.6,0-11.1,0-16.4c0.5-0.4,0.8-0.7,1.2-1.2
		c0.2,0,0.7,0,1.2,0c0,0.7,0.5,0.8,1.2,0.8c1.6,0,3.1,0,4.7,0c0.1-0.3,0.2-0.5,0.2-0.8c3.3,0,6.6,0,9.7,0c0.4,0.4,0.7,0.7,1,1
		c0.1,0,0.1-0.1,0.2-0.1c0,2.2,0,4.3,0,6.5c0.3,0.1,0.5,0.1,1.1,0.2c-0.4,0.4-0.6,0.7-0.8,0.9c-0.1,0-0.2-0.1-0.2-0.1
		c0,0.8,0,1.5,0,2.1c-0.6,0.5-1,0.9-1.7,1.5c0,2,0,4.1,0,6.4c-0.3,0-0.5,0-0.5,0c-0.4-0.4-0.7-0.7-1-1c-0.1,0-0.1,0.1-0.2,0.1
		c0-0.5,0-1,0-1.5c0.3-0.1,0.5-0.1,0.8-0.2c0-1.3,0-2.7,0-4.1c-0.5,0-1-0.1-1.3-0.1c-0.5-0.6-1-1-1.5-1.6c-0.5,0-1.3,0-1.8,0
		c-0.4-0.4-0.7-0.7-1.2-1.2c0-0.7,0-1.8,0-2.9c0.1,0,0.3,0,0.4-0.1c0.2-0.1,0.2-0.3,0.4-0.5c-0.2-0.1-0.3-0.3-0.5-0.3
		c-0.6,0-1.3,0-1.7,0c-0.4,0.4-0.7,0.8-1.2,1.2c0,0.8,0,1.8,0,2.9c-0.3,0.1-0.5,0.1-0.8,0.2c0,1.3,0,2.6,0,4
		c0.2,0.1,0.5,0.1,0.7,0.2c0,0-0.1,0.1-0.1,0.1c0.3,0.3,0.5,0.5,0.9,0.9c0.1-0.6,0.1-0.8,0.2-1.1c0.5,0,1,0,1.3,0
		c0.4-0.4,0.7-0.8,1-1.1c0.2-0.2,0.5-0.4,0.8-0.6c0.1-0.1,0.2-0.3,0.3-0.5c0.1-0.1,0.3-0.3,0.4-0.3c0.1,0,0.3,0.2,0.4,0.3
		c0.2,0.2,0.4,0.5,0.8,0.6c0,3.6,0,7.1,0,10.8c-1.3,0-0.6,1.1-0.9,1.8c-1,0-2.1,0-3.2,0c0-0.5,0-1,0-1.5c-0.3-0.1-0.5-0.1-0.9-0.2
		c0-0.8,0-1.5,0-2.4C312.8,56.5,312.1,56.5,311.2,56.5z"/>
	<path fill="#AAFF47" d="M24.5,69.8c0,0.5,0,1,0,1.6c0,0,0,0.1-0.1-0.1c0.6,0.6,1.1,1,1.7,1.5c0,1.1,0,2.5,0,3.8
		c-0.2,0.1-0.5,0.1-0.8,0.2c0,1.9,0,3.8,0,5.8c-0.6,0-1,0-1.6,0c0-0.5,0-1,0-1.6c0.2,0,0.4-0.1,0.7-0.2c0-1.3,0-2.7,0-4.1
		c-0.5,0-1,0-1.3-0.1c-0.4-0.4-0.7-0.7-1-1.1c-0.2-0.1-0.5-0.3-0.7-0.6c-0.4-0.4-0.7-0.8-1.1-1.1c-0.2-0.2-0.5-0.5-0.7-0.5
		c-1.1-0.1-2.3,0-3.2,0c-0.4-0.4-0.7-0.8-1.2-1.2c0-0.3,0-0.7,0-1.3c0.2-0.1,0.5-0.1,0.7-0.2c0-1.6,0-3.2,0-4.9
		c-0.2-0.1-0.5-0.1-0.7-0.2c0-1.1,0-2.1,0-3.2c1.1,0,0.8-0.8,0.8-1.3c0-0.2-0.3-0.4-0.4-0.4c-0.5,0.5-0.8,0.8-1.2,1.2
		c0,0.8,0,1.8,0,2.9c-0.3,0.1-0.5,0.1-0.8,0.2c0,1.1,0,2.1,0,3.2c-0.7,0.4-0.9,0-0.9-0.6c-0.9-0.2-1-0.4-0.8-2.6
		c0.2,0,0.5-0.1,0.7-0.2c0-0.5,0-1,0-1.3c-0.8-0.8-1.5-1.5-2.2-2.1c-0.1,0.1-0.2,0.1-0.3,0.2c0,1.2,0,2.5,0,3.7c0,0.4,0,0.9,0,1.3
		c0,0.7,0,0.7-0.8,1c0,1.6,0,3.2,0,4.9c0.3,0.1,0.5,0.1,0.8,0.2c0,1.1,0,2.1,0,3.2c-0.8,0-1.6,0-2.2,0c-1.1-1.1-2.1-2.1-3.2-3.3
		c-1.1,0-2.4,0-3.7,0c-0.1-0.3-0.1-0.6-0.2-0.8c-0.9-0.2-1-0.6-0.6-2.4c0.2-0.3,0.4-0.6,0.7-0.8c0.1-0.1,0.4-0.2,0.6-0.3
		c0.3,0,0.7,0,1.1,0c0-0.5,0-0.8,0-1.2c0-0.4,0-0.8,0-1.2c0.3-0.1,0.5-0.1,0.8-0.2c0-2.7,0-5.5,0-8.3c0.8,0,0.9-0.4,0.9-1
		c0-1.9,0-3.8,0-5.7c0.7,0.1,0.9-0.3,0.9-0.9c0-0.5,0-1,0-1.5c0.8,0,0.9-0.5,0.8-1.2c0-1.3,0-2.5,0-3.9c-0.3-0.1-0.5-0.2-0.8-0.3
		c0-0.5,0-0.9,0-1.4c0.7-0.2,0.7-0.2,0.8-1.5c0.4-0.3,0.7-0.6,1-0.9c0-0.1-0.1-0.2-0.1-0.2c0.5,0,1,0,1.5-0.1
		c0.1-0.2,0.1-0.5,0.2-0.8c0.5,0,1,0,1.2,0c0.5-0.6,0.9-1,1.5-1.7c0.3,0,0.8,0,1,0c0.4-0.4,0.6-0.6,0.8-0.9c0.2,0.2,0.4,0.4,0.7,0.8
		c0.5,0,1.3,0,1.8,0c0.7,0.7,1.3,1.3,1.8,1.9c0.1,0,0.1-0.1,0.2-0.1c0,0.5,0,1,0,1.5c0.3,0.1,0.5,0.1,0.9,0.2c0,0.7,0,1.5,0,2.3
		c0.3,0.1,0.5,0.1,0.9,0.2c0,1.6,0,3.2,0,4.8c0.3,0.1,0.6,0.1,0.9,0.2c0,0.8,0,1.5,0,2.3c0.3,0.1,0.5,0.1,0.8,0.2c0,1.6,0,3.2,0,4.9
		c0.3,0.1,0.5,0.1,0.8,0.2c0,0.2,0.1,0.4,0.1,0.6c0,3.5,0,6.9,0,10.4c0,0.6,0.1,0.9,0.8,0.8c0,0.5,0,1,0,1.5
		c0.3,0.1,0.5,0.2,0.8,0.2c0,0.5,0.1,1,0.1,1.6C24,69.9,24.2,69.8,24.5,69.8C24.5,69.8,24.5,69.8,24.5,69.8z M14.3,51.3
		c0-0.8,0-1.6,0-2.4c-0.3-0.1-0.6-0.2-0.8-0.2c0-0.5,0-1,0-1.5c-0.3-0.1-0.5-0.1-0.8-0.2c0-0.5-0.1-1-0.1-1.7
		c-1.4,0.6-0.4,1.9-1,2.6c-0.5,0-0.7,0.3-0.7,0.8c0,0.5,0,1,0,1.5c0.1,0.7,0,1.2-0.8,1.2c0,0.8,0,1.6,0,2.3c0.1,0,0.1-0.1,0.2-0.1
		c0.3,0.3,0.6,0.6,0.9,1c1,0,2,0,3.1,0c0-0.6,0-1,0-1.5c0.8-0.2,1.1-1.2,0.7-1.7C14.9,51.4,14.7,51.3,14.3,51.3z"/>
	<path fill="#AAFF47" d="M33.8,33.7c0.3,0,0.5-0.1,0.7-0.1c0-0.2,0.1-0.5,0.1-0.8c0.5,0,1,0,1.6,0c0,0.5,0,1,0,1.6c-0.5,0-1,0-1.6,0
		c0,0.3-0.1,0.6-0.1,0.8C33.7,35.3,33.7,35.3,33.8,33.7z"/>
	<path fill="#AAFF47" d="M28.6,31.9c-0.5,0-1,0-1.6,0c0-0.8,0-1.6,0-2.4c0.5,0,1,0,1.6,0C28.6,30.2,28.6,31,28.6,31.9z"/>
</g>
</svg>
