<?xml version="1.0" encoding="utf-8"?>
<!-- Generator: Adobe Illustrator 29.0.1, SVG Export Plug-In . SVG Version: 9.03 Build 54978)  -->
<svg version="1.1" baseProfile="tiny" id="Layer_1" xmlns="http://www.w3.org/2000/svg" xmlns:xlink="http://www.w3.org/1999/xlink"
	 x="0px" y="0px" viewBox="0 0 349.5 62" overflow="visible" xml:space="preserve">
<g>
	<circle cx="25" cy="1" r="0.5"/>
	<circle cx="37" cy="1" r="0.5"/>
	<circle cx="49" cy="1" r="0.5"/>
	<circle cx="61" cy="1" r="0.5"/>
	<circle cx="73" cy="1" r="0.5"/>
	<circle cx="85" cy="1" r="0.5"/>
	<circle cx="97" cy="1" r="0.5"/>
	<circle cx="109" cy="1" r="0.5"/>
	<circle cx="121" cy="1" r="0.5"/>
	<circle cx="133" cy="1" r="0.5"/>
	<circle cx="145" cy="1" r="0.5"/>
	<circle cx="157" cy="1" r="0.5"/>
	<circle cx="169" cy="1" r="0.5"/>
	<circle cx="181" cy="1" r="0.5"/>
	<circle cx="193" cy="1" r="0.5"/>
	<circle cx="205" cy="1" r="0.5"/>
	<circle cx="217" cy="1" r="0.5"/>
	<circle cx="229" cy="1" r="0.5"/>
	<circle cx="241" cy="1" r="0.5"/>
	<circle cx="253" cy="1" r="0.5"/>
	<circle cx="265" cy="1" r="0.5"/>
	<circle cx="277" cy="1" r="0.5"/>
	<circle cx="289" cy="1" r="0.5"/>
	<circle cx="301" cy="1" r="0.5"/>
	<circle cx="313" cy="1" r="0.5"/>
	<circle cx="325" cy="1" r="0.5"/>
	<circle cx="337" cy="1" r="0.5"/>
	<circle cx="349" cy="1" r="0.5"/>
	<circle cx="25" cy="13" r="0.5"/>
	<circle cx="37" cy="13" r="0.5"/>
	<circle cx="49" cy="13" r="0.5"/>
	<circle cx="61" cy="13" r="0.5"/>
	<circle cx="73" cy="13" r="0.5"/>
	<circle cx="85" cy="13" r="0.5"/>
	<circle cx="97" cy="13" r="0.5"/>
	<circle cx="109" cy="13" r="0.5"/>
	<circle cx="121" cy="13" r="0.5"/>
	<circle cx="133" cy="13" r="0.5"/>
	<circle cx="145" cy="13" r="0.5"/>
	<circle cx="157" cy="13" r="0.5"/>
	<circle cx="169" cy="13" r="0.5"/>
	<circle cx="181" cy="13" r="0.5"/>
	<circle cx="193" cy="13" r="0.5"/>
	<circle cx="205" cy="13" r="0.5"/>
	<circle cx="217" cy="13" r="0.5"/>
	<circle cx="229" cy="13" r="0.5"/>
	<circle cx="241" cy="13" r="0.5"/>
	<circle cx="253" cy="13" r="0.5"/>
	<circle cx="265" cy="13" r="0.5"/>
	<circle cx="277" cy="13" r="0.5"/>
	<circle cx="289" cy="13" r="0.5"/>
	<circle cx="301" cy="13" r="0.5"/>
	<circle cx="313" cy="13" r="0.5"/>
	<circle cx="325" cy="13" r="0.5"/>
	<circle cx="337" cy="13" r="0.5"/>
	<circle cx="349" cy="13" r="0.5"/>
	<circle cx="25" cy="25" r="0.5"/>
	<circle cx="37" cy="25" r="0.5"/>
	<circle cx="49" cy="25" r="0.5"/>
	<circle cx="61" cy="25" r="0.5"/>
	<circle cx="73" cy="25" r="0.5"/>
	<circle cx="85" cy="25" r="0.5"/>
	<circle cx="97" cy="25" r="0.5"/>
	<circle cx="109" cy="25" r="0.5"/>
	<circle cx="121" cy="25" r="0.5"/>
	<circle cx="133" cy="25" r="0.5"/>
	<circle cx="145" cy="25" r="0.5"/>
	<circle cx="157" cy="25" r="0.5"/>
	<circle cx="169" cy="25" r="0.5"/>
	<circle cx="181" cy="25" r="0.5"/>
	<circle cx="193" cy="25" r="0.5"/>
	<circle cx="205" cy="25" r="0.5"/>
	<circle cx="217" cy="25" r="0.5"/>
	<circle cx="229" cy="25" r="0.5"/>
	<circle cx="241" cy="25" r="0.5"/>
	<circle cx="253" cy="25" r="0.5"/>
	<circle cx="265" cy="25" r="0.5"/>
	<circle cx="277" cy="25" r="0.5"/>
	<circle cx="289" cy="25" r="0.5"/>
	<circle cx="301" cy="25" r="0.5"/>
	<circle cx="313" cy="25" r="0.5"/>
	<circle cx="325" cy="25" r="0.5"/>
	<circle cx="337" cy="25" r="0.5"/>
	<circle cx="349" cy="25" r="0.5"/>
	<circle cx="25" cy="37" r="0.5"/>
	<circle cx="37" cy="37" r="0.5"/>
	<circle cx="49" cy="37" r="0.5"/>
	<circle cx="61" cy="37" r="0.5"/>
	<circle cx="73" cy="37" r="0.5"/>
	<circle cx="85" cy="37" r="0.5"/>
	<circle cx="97" cy="37" r="0.5"/>
	<circle cx="109" cy="37" r="0.5"/>
	<circle cx="121" cy="37" r="0.5"/>
	<circle cx="133" cy="37" r="0.5"/>
	<circle cx="145" cy="37" r="0.5"/>
	<circle cx="157" cy="37" r="0.5"/>
	<circle cx="169" cy="37" r="0.5"/>
	<circle cx="181" cy="37" r="0.5"/>
	<circle cx="193" cy="37" r="0.5"/>
	<circle cx="205" cy="37" r="0.5"/>
	<circle cx="217" cy="37" r="0.5"/>
	<circle cx="229" cy="37" r="0.5"/>
	<circle cx="241" cy="37" r="0.5"/>
	<circle cx="253" cy="37" r="0.5"/>
	<circle cx="265" cy="37" r="0.5"/>
	<circle cx="277" cy="37" r="0.5"/>
	<circle cx="289" cy="37" r="0.5"/>
	<circle cx="301" cy="37" r="0.5"/>
	<circle cx="313" cy="37" r="0.5"/>
	<circle cx="325" cy="37" r="0.5"/>
	<circle cx="337" cy="37" r="0.5"/>
	<circle cx="349" cy="37" r="0.5"/>
	<circle cx="25" cy="49" r="0.5"/>
	<circle cx="37" cy="49" r="0.5"/>
	<circle cx="49" cy="49" r="0.5"/>
	<circle cx="61" cy="49" r="0.5"/>
	<circle cx="73" cy="49" r="0.5"/>
	<circle cx="85" cy="49" r="0.5"/>
	<circle cx="97" cy="49" r="0.5"/>
	<circle cx="109" cy="49" r="0.5"/>
	<circle cx="121" cy="49" r="0.5"/>
	<circle cx="133" cy="49" r="0.5"/>
	<circle cx="145" cy="49" r="0.5"/>
	<circle cx="157" cy="49" r="0.5"/>
	<circle cx="169" cy="49" r="0.5"/>
	<circle cx="181" cy="49" r="0.5"/>
	<circle cx="193" cy="49" r="0.5"/>
	<circle cx="205" cy="49" r="0.5"/>
	<circle cx="217" cy="49" r="0.5"/>
	<circle cx="229" cy="49" r="0.5"/>
	<circle cx="241" cy="49" r="0.5"/>
	<circle cx="253" cy="49" r="0.5"/>
	<circle cx="265" cy="49" r="0.5"/>
	<circle cx="277" cy="49" r="0.5"/>
	<circle cx="289" cy="49" r="0.5"/>
	<circle cx="301" cy="49" r="0.5"/>
	<circle cx="313" cy="49" r="0.5"/>
	<circle cx="325" cy="49" r="0.5"/>
	<circle cx="337" cy="49" r="0.5"/>
	<circle cx="349" cy="49" r="0.5"/>
	<circle cx="25" cy="61" r="0.5"/>
	<circle cx="31" cy="1" r="0.5"/>
	<circle cx="31" cy="13" r="0.5"/>
	<circle cx="31" cy="25" r="0.5"/>
	<circle cx="31" cy="37" r="0.5"/>
	<circle cx="31" cy="49" r="0.5"/>
	<circle cx="31" cy="61" r="0.5"/>
	<circle cx="37" cy="61" r="0.5"/>
	<circle cx="49" cy="61" r="0.5"/>
	<circle cx="61" cy="61" r="0.5"/>
	<circle cx="73" cy="61" r="0.5"/>
	<circle cx="85" cy="61" r="0.5"/>
	<circle cx="97" cy="61" r="0.5"/>
	<circle cx="109" cy="61" r="0.5"/>
	<circle cx="121" cy="61" r="0.5"/>
	<circle cx="133" cy="61" r="0.5"/>
	<circle cx="145" cy="61" r="0.5"/>
	<circle cx="157" cy="61" r="0.5"/>
	<circle cx="169" cy="61" r="0.5"/>
	<circle cx="181" cy="61" r="0.5"/>
	<circle cx="193" cy="61" r="0.5"/>
	<circle cx="205" cy="61" r="0.5"/>
	<circle cx="217" cy="61" r="0.5"/>
	<circle cx="229" cy="61" r="0.5"/>
	<circle cx="241" cy="61" r="0.5"/>
	<circle cx="253" cy="61" r="0.5"/>
	<circle cx="265" cy="61" r="0.5"/>
	<circle cx="277" cy="61" r="0.5"/>
	<circle cx="289" cy="61" r="0.5"/>
	<circle cx="301" cy="61" r="0.5"/>
	<circle cx="313" cy="61" r="0.5"/>
	<circle cx="325" cy="61" r="0.5"/>
	<circle cx="337" cy="61" r="0.5"/>
	<circle cx="349" cy="61" r="0.5"/>
	<circle cx="43" cy="1" r="0.5"/>
	<circle cx="43" cy="13" r="0.5"/>
	<circle cx="43" cy="25" r="0.5"/>
	<circle cx="43" cy="37" r="0.5"/>
	<circle cx="43" cy="49" r="0.5"/>
	<circle cx="43" cy="61" r="0.5"/>
	<circle cx="55" cy="1" r="0.5"/>
	<circle cx="55" cy="13" r="0.5"/>
	<circle cx="55" cy="25" r="0.5"/>
	<circle cx="55" cy="37" r="0.5"/>
	<circle cx="55" cy="49" r="0.5"/>
	<circle cx="55" cy="61" r="0.5"/>
	<circle cx="67" cy="1" r="0.5"/>
	<circle cx="67" cy="13" r="0.5"/>
	<circle cx="67" cy="25" r="0.5"/>
	<circle cx="67" cy="37" r="0.5"/>
	<circle cx="67" cy="49" r="0.5"/>
	<circle cx="67" cy="61" r="0.5"/>
	<circle cx="79" cy="1" r="0.5"/>
	<circle cx="79" cy="13" r="0.5"/>
	<circle cx="79" cy="25" r="0.5"/>
	<circle cx="79" cy="37" r="0.5"/>
	<circle cx="79" cy="49" r="0.5"/>
	<circle cx="79" cy="61" r="0.5"/>
	<circle cx="91" cy="1" r="0.5"/>
	<circle cx="91" cy="13" r="0.5"/>
	<circle cx="91" cy="25" r="0.5"/>
	<circle cx="91" cy="37" r="0.5"/>
	<circle cx="91" cy="49" r="0.5"/>
	<circle cx="91" cy="61" r="0.5"/>
	<circle cx="103" cy="1" r="0.5"/>
	<circle cx="103" cy="13" r="0.5"/>
	<circle cx="103" cy="25" r="0.5"/>
	<circle cx="103" cy="37" r="0.5"/>
	<circle cx="103" cy="49" r="0.5"/>
	<circle cx="103" cy="61" r="0.5"/>
	<circle cx="115" cy="1" r="0.5"/>
	<circle cx="115" cy="13" r="0.5"/>
	<circle cx="115" cy="25" r="0.5"/>
	<circle cx="115" cy="37" r="0.5"/>
	<circle cx="115" cy="49" r="0.5"/>
	<circle cx="115" cy="61" r="0.5"/>
	<circle cx="127" cy="1" r="0.5"/>
	<circle cx="127" cy="13" r="0.5"/>
	<circle cx="127" cy="25" r="0.5"/>
	<circle cx="127" cy="37" r="0.5"/>
	<circle cx="127" cy="49" r="0.5"/>
	<circle cx="127" cy="61" r="0.5"/>
	<circle cx="139" cy="1" r="0.5"/>
	<circle cx="139" cy="13" r="0.5"/>
	<circle cx="139" cy="25" r="0.5"/>
	<circle cx="139" cy="37" r="0.5"/>
	<circle cx="139" cy="49" r="0.5"/>
	<circle cx="139" cy="61" r="0.5"/>
	<circle cx="151" cy="1" r="0.5"/>
	<circle cx="151" cy="13" r="0.5"/>
	<circle cx="151" cy="25" r="0.5"/>
	<circle cx="151" cy="37" r="0.5"/>
	<circle cx="151" cy="49" r="0.5"/>
	<circle cx="151" cy="61" r="0.5"/>
	<circle cx="163" cy="1" r="0.5"/>
	<circle cx="163" cy="13" r="0.5"/>
	<circle cx="163" cy="25" r="0.5"/>
	<circle cx="163" cy="37" r="0.5"/>
	<circle cx="163" cy="49" r="0.5"/>
	<circle cx="163" cy="61" r="0.5"/>
	<circle cx="175" cy="1" r="0.5"/>
	<circle cx="175" cy="13" r="0.5"/>
	<circle cx="175" cy="25" r="0.5"/>
	<circle cx="175" cy="37" r="0.5"/>
	<circle cx="175" cy="49" r="0.5"/>
	<circle cx="175" cy="61" r="0.5"/>
	<circle cx="187" cy="1" r="0.5"/>
	<circle cx="187" cy="13" r="0.5"/>
	<circle cx="187" cy="25" r="0.5"/>
	<circle cx="187" cy="37" r="0.5"/>
	<circle cx="187" cy="49" r="0.5"/>
	<circle cx="187" cy="61" r="0.5"/>
	<circle cx="199" cy="1" r="0.5"/>
	<circle cx="199" cy="13" r="0.5"/>
	<circle cx="199" cy="25" r="0.5"/>
	<circle cx="199" cy="37" r="0.5"/>
	<circle cx="199" cy="49" r="0.5"/>
	<circle cx="199" cy="61" r="0.5"/>
	<circle cx="211" cy="1" r="0.5"/>
	<circle cx="211" cy="13" r="0.5"/>
	<circle cx="211" cy="25" r="0.5"/>
	<circle cx="211" cy="37" r="0.5"/>
	<circle cx="211" cy="49" r="0.5"/>
	<circle cx="211" cy="61" r="0.5"/>
	<circle cx="223" cy="1" r="0.5"/>
	<circle cx="223" cy="13" r="0.5"/>
	<circle cx="223" cy="25" r="0.5"/>
	<circle cx="223" cy="37" r="0.5"/>
	<circle cx="223" cy="49" r="0.5"/>
	<circle cx="223" cy="61" r="0.5"/>
	<circle cx="235" cy="1" r="0.5"/>
	<circle cx="235" cy="13" r="0.5"/>
	<circle cx="235" cy="25" r="0.5"/>
	<circle cx="235" cy="37" r="0.5"/>
	<circle cx="235" cy="49" r="0.5"/>
	<circle cx="235" cy="61" r="0.5"/>
	<circle cx="247" cy="1" r="0.5"/>
	<circle cx="247" cy="13" r="0.5"/>
	<circle cx="247" cy="25" r="0.5"/>
	<circle cx="247" cy="37" r="0.5"/>
	<circle cx="247" cy="49" r="0.5"/>
	<circle cx="247" cy="61" r="0.5"/>
	<circle cx="259" cy="1" r="0.5"/>
	<circle cx="259" cy="13" r="0.5"/>
	<circle cx="259" cy="25" r="0.5"/>
	<circle cx="259" cy="37" r="0.5"/>
	<circle cx="259" cy="49" r="0.5"/>
	<circle cx="259" cy="61" r="0.5"/>
	<circle cx="271" cy="1" r="0.5"/>
	<circle cx="271" cy="13" r="0.5"/>
	<circle cx="271" cy="25" r="0.5"/>
	<circle cx="271" cy="37" r="0.5"/>
	<circle cx="271" cy="49" r="0.5"/>
	<circle cx="271" cy="61" r="0.5"/>
	<circle cx="283" cy="1" r="0.5"/>
	<circle cx="283" cy="13" r="0.5"/>
	<circle cx="283" cy="25" r="0.5"/>
	<circle cx="283" cy="37" r="0.5"/>
	<circle cx="283" cy="49" r="0.5"/>
	<circle cx="283" cy="61" r="0.5"/>
	<circle cx="295" cy="1" r="0.5"/>
	<circle cx="295" cy="13" r="0.5"/>
	<circle cx="295" cy="25" r="0.5"/>
	<circle cx="295" cy="37" r="0.5"/>
	<circle cx="295" cy="49" r="0.5"/>
	<circle cx="295" cy="61" r="0.5"/>
	<circle cx="307" cy="1" r="0.5"/>
	<circle cx="307" cy="13" r="0.5"/>
	<circle cx="307" cy="25" r="0.5"/>
	<circle cx="307" cy="37" r="0.5"/>
	<circle cx="307" cy="49" r="0.5"/>
	<circle cx="307" cy="61" r="0.5"/>
	<circle cx="319" cy="1" r="0.5"/>
	<circle cx="319" cy="13" r="0.5"/>
	<circle cx="319" cy="25" r="0.5"/>
	<circle cx="319" cy="37" r="0.5"/>
	<circle cx="319" cy="49" r="0.5"/>
	<circle cx="319" cy="61" r="0.5"/>
	<circle cx="331" cy="1" r="0.5"/>
	<circle cx="331" cy="13" r="0.5"/>
	<circle cx="331" cy="25" r="0.5"/>
	<circle cx="331" cy="37" r="0.5"/>
	<circle cx="331" cy="49" r="0.5"/>
	<circle cx="331" cy="61" r="0.5"/>
	<circle cx="343" cy="1" r="0.5"/>
	<circle cx="25" cy="7" r="0.5"/>
	<circle cx="37" cy="7" r="0.5"/>
	<circle cx="49" cy="7" r="0.5"/>
	<circle cx="61" cy="7" r="0.5"/>
	<circle cx="73" cy="7" r="0.5"/>
	<circle cx="85" cy="7" r="0.5"/>
	<circle cx="97" cy="7" r="0.5"/>
	<circle cx="109" cy="7" r="0.5"/>
	<circle cx="121" cy="7" r="0.5"/>
	<circle cx="133" cy="7" r="0.5"/>
	<circle cx="145" cy="7" r="0.5"/>
	<circle cx="157" cy="7" r="0.5"/>
	<circle cx="169" cy="7" r="0.5"/>
	<circle cx="181" cy="7" r="0.5"/>
	<circle cx="193" cy="7" r="0.5"/>
	<circle cx="205" cy="7" r="0.5"/>
	<circle cx="217" cy="7" r="0.5"/>
	<circle cx="229" cy="7" r="0.5"/>
	<circle cx="241" cy="7" r="0.5"/>
	<circle cx="253" cy="7" r="0.5"/>
	<circle cx="265" cy="7" r="0.5"/>
	<circle cx="277" cy="7" r="0.5"/>
	<circle cx="289" cy="7" r="0.5"/>
	<circle cx="301" cy="7" r="0.5"/>
	<circle cx="313" cy="7" r="0.5"/>
	<circle cx="325" cy="7" r="0.5"/>
	<circle cx="337" cy="7" r="0.5"/>
	<circle cx="349" cy="7" r="0.5"/>
	<circle cx="31" cy="7" r="0.5"/>
	<circle cx="43" cy="7" r="0.5"/>
	<circle cx="55" cy="7" r="0.5"/>
	<circle cx="67" cy="7" r="0.5"/>
	<circle cx="79" cy="7" r="0.5"/>
	<circle cx="91" cy="7" r="0.5"/>
	<circle cx="103" cy="7" r="0.5"/>
	<circle cx="115" cy="7" r="0.5"/>
	<circle cx="127" cy="7" r="0.5"/>
	<circle cx="139" cy="7" r="0.5"/>
	<circle cx="151" cy="7" r="0.5"/>
	<circle cx="163" cy="7" r="0.5"/>
	<circle cx="175" cy="7" r="0.5"/>
	<circle cx="187" cy="7" r="0.5"/>
	<circle cx="199" cy="7" r="0.5"/>
	<circle cx="211" cy="7" r="0.5"/>
	<circle cx="223" cy="7" r="0.5"/>
	<circle cx="235" cy="7" r="0.5"/>
	<circle cx="247" cy="7" r="0.5"/>
	<circle cx="259" cy="7" r="0.5"/>
	<circle cx="271" cy="7" r="0.5"/>
	<circle cx="283" cy="7" r="0.5"/>
	<circle cx="295" cy="7" r="0.5"/>
	<circle cx="307" cy="7" r="0.5"/>
	<circle cx="319" cy="7" r="0.5"/>
	<circle cx="331" cy="7" r="0.5"/>
	<circle cx="343" cy="7" r="0.5"/>
	<circle cx="25" cy="19" r="0.5"/>
	<circle cx="37" cy="19" r="0.5"/>
	<circle cx="49" cy="19" r="0.5"/>
	<circle cx="61" cy="19" r="0.5"/>
	<circle cx="73" cy="19" r="0.5"/>
	<circle cx="85" cy="19" r="0.5"/>
	<circle cx="97" cy="19" r="0.5"/>
	<circle cx="109" cy="19" r="0.5"/>
	<circle cx="121" cy="19" r="0.5"/>
	<circle cx="133" cy="19" r="0.5"/>
	<circle cx="145" cy="19" r="0.5"/>
	<circle cx="157" cy="19" r="0.5"/>
	<circle cx="169" cy="19" r="0.5"/>
	<circle cx="181" cy="19" r="0.5"/>
	<circle cx="193" cy="19" r="0.5"/>
	<circle cx="205" cy="19" r="0.5"/>
	<circle cx="217" cy="19" r="0.5"/>
	<circle cx="229" cy="19" r="0.5"/>
	<circle cx="241" cy="19" r="0.5"/>
	<circle cx="253" cy="19" r="0.5"/>
	<circle cx="265" cy="19" r="0.5"/>
	<circle cx="277" cy="19" r="0.5"/>
	<circle cx="289" cy="19" r="0.5"/>
	<circle cx="301" cy="19" r="0.5"/>
	<circle cx="313" cy="19" r="0.5"/>
	<circle cx="325" cy="19" r="0.5"/>
	<circle cx="337" cy="19" r="0.5"/>
	<circle cx="349" cy="19" r="0.5"/>
	<circle cx="31" cy="19" r="0.5"/>
	<circle cx="43" cy="19" r="0.5"/>
	<circle cx="55" cy="19" r="0.5"/>
	<circle cx="67" cy="19" r="0.5"/>
	<circle cx="79" cy="19" r="0.5"/>
	<circle cx="91" cy="19" r="0.5"/>
	<circle cx="103" cy="19" r="0.5"/>
	<circle cx="115" cy="19" r="0.5"/>
	<circle cx="127" cy="19" r="0.5"/>
	<circle cx="139" cy="19" r="0.5"/>
	<circle cx="151" cy="19" r="0.5"/>
	<circle cx="163" cy="19" r="0.5"/>
	<circle cx="175" cy="19" r="0.5"/>
	<circle cx="187" cy="19" r="0.5"/>
	<circle cx="199" cy="19" r="0.5"/>
	<circle cx="211" cy="19" r="0.5"/>
	<circle cx="223" cy="19" r="0.5"/>
	<circle cx="235" cy="19" r="0.5"/>
	<circle cx="247" cy="19" r="0.5"/>
	<circle cx="259" cy="19" r="0.5"/>
	<circle cx="271" cy="19" r="0.5"/>
	<circle cx="283" cy="19" r="0.5"/>
	<circle cx="295" cy="19" r="0.5"/>
	<circle cx="307" cy="19" r="0.5"/>
	<circle cx="319" cy="19" r="0.5"/>
	<circle cx="331" cy="19" r="0.5"/>
	<circle cx="343" cy="19" r="0.5"/>
	<circle cx="25" cy="31" r="0.5"/>
	<circle cx="37" cy="31" r="0.5"/>
	<circle cx="49" cy="31" r="0.5"/>
	<circle cx="61" cy="31" r="0.5"/>
	<circle cx="73" cy="31" r="0.5"/>
	<circle cx="85" cy="31" r="0.5"/>
	<circle cx="97" cy="31" r="0.5"/>
	<circle cx="109" cy="31" r="0.5"/>
	<circle cx="121" cy="31" r="0.5"/>
	<circle cx="133" cy="31" r="0.5"/>
	<circle cx="145" cy="31" r="0.5"/>
	<circle cx="157" cy="31" r="0.5"/>
	<circle cx="169" cy="31" r="0.5"/>
	<circle cx="181" cy="31" r="0.5"/>
	<circle cx="193" cy="31" r="0.5"/>
	<circle cx="205" cy="31" r="0.5"/>
	<circle cx="217" cy="31" r="0.5"/>
	<circle cx="229" cy="31" r="0.5"/>
	<circle cx="241" cy="31" r="0.5"/>
	<circle cx="253" cy="31" r="0.5"/>
	<circle cx="265" cy="31" r="0.5"/>
	<circle cx="277" cy="31" r="0.5"/>
	<circle cx="289" cy="31" r="0.5"/>
	<circle cx="301" cy="31" r="0.5"/>
	<circle cx="313" cy="31" r="0.5"/>
	<circle cx="325" cy="31" r="0.5"/>
	<circle cx="337" cy="31" r="0.5"/>
	<circle cx="349" cy="31" r="0.5"/>
	<circle cx="31" cy="31" r="0.5"/>
	<circle cx="43" cy="31" r="0.5"/>
	<circle cx="55" cy="31" r="0.5"/>
	<circle cx="67" cy="31" r="0.5"/>
	<circle cx="79" cy="31" r="0.5"/>
	<circle cx="91" cy="31" r="0.5"/>
	<circle cx="103" cy="31" r="0.5"/>
	<circle cx="115" cy="31" r="0.5"/>
	<circle cx="127" cy="31" r="0.5"/>
	<circle cx="139" cy="31" r="0.5"/>
	<circle cx="151" cy="31" r="0.5"/>
	<circle cx="163" cy="31" r="0.5"/>
	<circle cx="175" cy="31" r="0.5"/>
	<circle cx="187" cy="31" r="0.5"/>
	<circle cx="199" cy="31" r="0.5"/>
	<circle cx="211" cy="31" r="0.5"/>
	<circle cx="223" cy="31" r="0.5"/>
	<circle cx="235" cy="31" r="0.5"/>
	<circle cx="247" cy="31" r="0.5"/>
	<circle cx="259" cy="31" r="0.5"/>
	<circle cx="271" cy="31" r="0.5"/>
	<circle cx="283" cy="31" r="0.5"/>
	<circle cx="295" cy="31" r="0.5"/>
	<circle cx="307" cy="31" r="0.5"/>
	<circle cx="319" cy="31" r="0.5"/>
	<circle cx="331" cy="31" r="0.5"/>
	<circle cx="343" cy="31" r="0.5"/>
	<circle cx="25" cy="43" r="0.5"/>
	<circle cx="37" cy="43" r="0.5"/>
	<circle cx="49" cy="43" r="0.5"/>
	<circle cx="61" cy="43" r="0.5"/>
	<circle cx="73" cy="43" r="0.5"/>
	<circle cx="85" cy="43" r="0.5"/>
	<circle cx="97" cy="43" r="0.5"/>
	<circle cx="109" cy="43" r="0.5"/>
	<circle cx="121" cy="43" r="0.5"/>
	<circle cx="133" cy="43" r="0.5"/>
	<circle cx="145" cy="43" r="0.5"/>
	<circle cx="157" cy="43" r="0.5"/>
	<circle cx="169" cy="43" r="0.5"/>
	<circle cx="181" cy="43" r="0.5"/>
	<circle cx="193" cy="43" r="0.5"/>
	<circle cx="205" cy="43" r="0.5"/>
	<circle cx="217" cy="43" r="0.5"/>
	<circle cx="229" cy="43" r="0.5"/>
	<circle cx="241" cy="43" r="0.5"/>
	<circle cx="253" cy="43" r="0.5"/>
	<circle cx="265" cy="43" r="0.5"/>
	<circle cx="277" cy="43" r="0.5"/>
	<circle cx="289" cy="43" r="0.5"/>
	<circle cx="301" cy="43" r="0.5"/>
	<circle cx="313" cy="43" r="0.5"/>
	<circle cx="325" cy="43" r="0.5"/>
	<circle cx="337" cy="43" r="0.5"/>
	<circle cx="349" cy="43" r="0.5"/>
	<circle cx="31" cy="43" r="0.5"/>
	<circle cx="43" cy="43" r="0.5"/>
	<circle cx="55" cy="43" r="0.5"/>
	<circle cx="67" cy="43" r="0.5"/>
	<circle cx="79" cy="43" r="0.5"/>
	<circle cx="91" cy="43" r="0.5"/>
	<circle cx="103" cy="43" r="0.5"/>
	<circle cx="115" cy="43" r="0.5"/>
	<circle cx="127" cy="43" r="0.5"/>
	<circle cx="139" cy="43" r="0.5"/>
	<circle cx="151" cy="43" r="0.5"/>
	<circle cx="163" cy="43" r="0.5"/>
	<circle cx="175" cy="43" r="0.5"/>
	<circle cx="187" cy="43" r="0.5"/>
	<circle cx="199" cy="43" r="0.5"/>
	<circle cx="211" cy="43" r="0.5"/>
	<circle cx="223" cy="43" r="0.5"/>
	<circle cx="235" cy="43" r="0.5"/>
	<circle cx="247" cy="43" r="0.5"/>
	<circle cx="259" cy="43" r="0.5"/>
	<circle cx="271" cy="43" r="0.5"/>
	<circle cx="283" cy="43" r="0.5"/>
	<circle cx="295" cy="43" r="0.5"/>
	<circle cx="307" cy="43" r="0.5"/>
	<circle cx="319" cy="43" r="0.5"/>
	<circle cx="331" cy="43" r="0.5"/>
	<circle cx="343" cy="43" r="0.5"/>
	<circle cx="25" cy="55" r="0.5"/>
	<circle cx="37" cy="55" r="0.5"/>
	<circle cx="49" cy="55" r="0.5"/>
	<circle cx="61" cy="55" r="0.5"/>
	<circle cx="73" cy="55" r="0.5"/>
	<circle cx="85" cy="55" r="0.5"/>
	<circle cx="97" cy="55" r="0.5"/>
	<circle cx="109" cy="55" r="0.5"/>
	<circle cx="121" cy="55" r="0.5"/>
	<circle cx="133" cy="55" r="0.5"/>
	<circle cx="145" cy="55" r="0.5"/>
	<circle cx="157" cy="55" r="0.5"/>
	<circle cx="169" cy="55" r="0.5"/>
	<circle cx="181" cy="55" r="0.5"/>
	<circle cx="193" cy="55" r="0.5"/>
	<circle cx="205" cy="55" r="0.5"/>
	<circle cx="217" cy="55" r="0.5"/>
	<circle cx="229" cy="55" r="0.5"/>
	<circle cx="241" cy="55" r="0.5"/>
	<circle cx="253" cy="55" r="0.5"/>
	<circle cx="265" cy="55" r="0.5"/>
	<circle cx="277" cy="55" r="0.5"/>
	<circle cx="289" cy="55" r="0.5"/>
	<circle cx="301" cy="55" r="0.5"/>
	<circle cx="313" cy="55" r="0.5"/>
	<circle cx="325" cy="55" r="0.5"/>
	<circle cx="337" cy="55" r="0.5"/>
	<circle cx="349" cy="55" r="0.5"/>
	<circle cx="31" cy="55" r="0.5"/>
	<circle cx="19" cy="1" r="0.5"/>
	<circle cx="19" cy="13" r="0.5"/>
	<circle cx="19" cy="25" r="0.5"/>
	<circle cx="19" cy="37" r="0.5"/>
	<circle cx="19" cy="49" r="0.5"/>
	<circle cx="19" cy="61" r="0.5"/>
	<circle cx="19" cy="7" r="0.5"/>
	<circle cx="19" cy="19" r="0.5"/>
	<circle cx="19" cy="31" r="0.5"/>
	<circle cx="19" cy="43" r="0.5"/>
	<circle cx="19" cy="55" r="0.5"/>
	<circle cx="43" cy="55" r="0.5"/>
	<circle cx="55" cy="55" r="0.5"/>
	<circle cx="67" cy="55" r="0.5"/>
	<circle cx="79" cy="55" r="0.5"/>
	<circle cx="91" cy="55" r="0.5"/>
	<circle cx="103" cy="55" r="0.5"/>
	<circle cx="115" cy="55" r="0.5"/>
	<circle cx="127" cy="55" r="0.5"/>
	<circle cx="139" cy="55" r="0.5"/>
	<circle cx="151" cy="55" r="0.5"/>
	<circle cx="163" cy="55" r="0.5"/>
	<circle cx="175" cy="55" r="0.5"/>
	<circle cx="187" cy="55" r="0.5"/>
	<circle cx="199" cy="55" r="0.5"/>
	<circle cx="211" cy="55" r="0.5"/>
	<circle cx="223" cy="55" r="0.5"/>
	<circle cx="235" cy="55" r="0.5"/>
	<circle cx="247" cy="55" r="0.5"/>
	<circle cx="259" cy="55" r="0.5"/>
	<circle cx="271" cy="55" r="0.5"/>
	<circle cx="283" cy="55" r="0.5"/>
	<circle cx="295" cy="55" r="0.5"/>
	<circle cx="307" cy="55" r="0.5"/>
	<circle cx="319" cy="55" r="0.5"/>
	<circle cx="331" cy="55" r="0.5"/>
	<circle cx="343" cy="55" r="0.5"/>
	<circle cx="343" cy="13" r="0.5"/>
	<circle cx="343" cy="25" r="0.5"/>
	<circle cx="343" cy="37" r="0.5"/>
	<circle cx="343" cy="49" r="0.5"/>
	<circle cx="343" cy="61" r="0.5"/>
</g>
<rect width="1" height="62"/>
<path d="M10,6.2H9.2V7H8.8V6.2H8V5.8h0.8V5h0.4v0.8H10V6.2z"/>
<path d="M10,53.2H9.2V54H8.8v-0.8H8v-0.4h0.8V52h0.4v0.8H10V53.2z"/>
</svg>
