<?xml version="1.0" encoding="utf-8"?>
<!-- Generator: Adobe Illustrator 28.6.0, SVG Export Plug-In . SVG Version: 9.03 Build 54939)  -->
<svg version="1.1" baseProfile="tiny" id="Layer_1" xmlns="http://www.w3.org/2000/svg" xmlns:xlink="http://www.w3.org/1999/xlink"
	 x="0px" y="0px" viewBox="0 0 570.8 61.6" overflow="visible" xml:space="preserve">
<g>
	<g>
		<circle cx="0.5" cy="0.5" r="0.5"/>
		<circle cx="12.6" cy="0.5" r="0.5"/>
		<circle cx="24.8" cy="0.5" r="0.5"/>
		<circle cx="36.9" cy="0.5" r="0.5"/>
		<circle cx="49" cy="0.5" r="0.5"/>
		<circle cx="61.1" cy="0.5" r="0.5"/>
		<circle cx="73.2" cy="0.5" r="0.5"/>
		<circle cx="85.4" cy="0.5" r="0.5"/>
		<circle cx="97.5" cy="0.5" r="0.5"/>
		<circle cx="109.6" cy="0.5" r="0.5"/>
		<circle cx="121.7" cy="0.5" r="0.5"/>
		<circle cx="133.9" cy="0.5" r="0.5"/>
		<circle cx="146" cy="0.5" r="0.5"/>
		<circle cx="158.1" cy="0.5" r="0.5"/>
		<circle cx="170.2" cy="0.5" r="0.5"/>
		<circle cx="182.4" cy="0.5" r="0.5"/>
		<circle cx="194.5" cy="0.5" r="0.5"/>
		<circle cx="206.6" cy="0.5" r="0.5"/>
		<circle cx="218.7" cy="0.5" r="0.5"/>
		<circle cx="230.8" cy="0.5" r="0.5"/>
		<circle cx="243" cy="0.5" r="0.5"/>
		<circle cx="255.1" cy="0.5" r="0.5"/>
		<circle cx="267.2" cy="0.5" r="0.5"/>
		<circle cx="279.3" cy="0.5" r="0.5"/>
		<circle cx="0.5" cy="12.6" r="0.5"/>
		<circle cx="12.6" cy="12.6" r="0.5"/>
		<circle cx="24.8" cy="12.6" r="0.5"/>
		<circle cx="36.9" cy="12.6" r="0.5"/>
		<circle cx="49" cy="12.6" r="0.5"/>
		<circle cx="61.1" cy="12.6" r="0.5"/>
		<circle cx="73.2" cy="12.6" r="0.5"/>
		<circle cx="85.4" cy="12.6" r="0.5"/>
		<circle cx="97.5" cy="12.6" r="0.5"/>
		<circle cx="109.6" cy="12.6" r="0.5"/>
		<circle cx="121.7" cy="12.6" r="0.5"/>
		<circle cx="133.9" cy="12.6" r="0.5"/>
		<circle cx="146" cy="12.6" r="0.5"/>
		<circle cx="158.1" cy="12.6" r="0.5"/>
		<circle cx="170.2" cy="12.6" r="0.5"/>
		<circle cx="182.4" cy="12.6" r="0.5"/>
		<circle cx="194.5" cy="12.6" r="0.5"/>
		<circle cx="206.6" cy="12.6" r="0.5"/>
		<circle cx="218.7" cy="12.6" r="0.5"/>
		<circle cx="230.8" cy="12.6" r="0.5"/>
		<circle cx="243" cy="12.6" r="0.5"/>
		<circle cx="255.1" cy="12.6" r="0.5"/>
		<circle cx="267.2" cy="12.6" r="0.5"/>
		<circle cx="279.3" cy="12.6" r="0.5"/>
		<circle cx="0.5" cy="24.8" r="0.5"/>
		<circle cx="12.6" cy="24.8" r="0.5"/>
		<circle cx="24.8" cy="24.8" r="0.5"/>
		<circle cx="36.9" cy="24.8" r="0.5"/>
		<circle cx="49" cy="24.8" r="0.5"/>
		<circle cx="61.1" cy="24.8" r="0.5"/>
		<circle cx="73.2" cy="24.8" r="0.5"/>
		<circle cx="85.4" cy="24.8" r="0.5"/>
		<circle cx="97.5" cy="24.8" r="0.5"/>
		<circle cx="109.6" cy="24.8" r="0.5"/>
		<circle cx="121.7" cy="24.8" r="0.5"/>
		<circle cx="133.9" cy="24.8" r="0.5"/>
		<circle cx="146" cy="24.8" r="0.5"/>
		<circle cx="158.1" cy="24.8" r="0.5"/>
		<circle cx="170.2" cy="24.8" r="0.5"/>
		<circle cx="182.4" cy="24.8" r="0.5"/>
		<circle cx="194.5" cy="24.8" r="0.5"/>
		<circle cx="206.6" cy="24.8" r="0.5"/>
		<circle cx="218.7" cy="24.8" r="0.5"/>
		<circle cx="230.8" cy="24.8" r="0.5"/>
		<circle cx="243" cy="24.8" r="0.5"/>
		<circle cx="255.1" cy="24.8" r="0.5"/>
		<circle cx="267.2" cy="24.8" r="0.5"/>
		<circle cx="279.3" cy="24.8" r="0.5"/>
		<circle cx="0.5" cy="36.9" r="0.5"/>
		<circle cx="12.6" cy="36.9" r="0.5"/>
		<circle cx="24.8" cy="36.9" r="0.5"/>
		<circle cx="36.9" cy="36.9" r="0.5"/>
		<circle cx="49" cy="36.9" r="0.5"/>
		<circle cx="61.1" cy="36.9" r="0.5"/>
		<circle cx="73.2" cy="36.9" r="0.5"/>
		<circle cx="85.4" cy="36.9" r="0.5"/>
		<circle cx="97.5" cy="36.9" r="0.5"/>
		<circle cx="109.6" cy="36.9" r="0.5"/>
		<circle cx="121.7" cy="36.9" r="0.5"/>
		<circle cx="133.9" cy="36.9" r="0.5"/>
		<circle cx="146" cy="36.9" r="0.5"/>
		<circle cx="158.1" cy="36.9" r="0.5"/>
		<circle cx="170.2" cy="36.9" r="0.5"/>
		<circle cx="182.4" cy="36.9" r="0.5"/>
		<circle cx="194.5" cy="36.9" r="0.5"/>
		<circle cx="206.6" cy="36.9" r="0.5"/>
		<circle cx="218.7" cy="36.9" r="0.5"/>
		<circle cx="230.8" cy="36.9" r="0.5"/>
		<circle cx="243" cy="36.9" r="0.5"/>
		<circle cx="255.1" cy="36.9" r="0.5"/>
		<circle cx="267.2" cy="36.9" r="0.5"/>
		<circle cx="279.3" cy="36.9" r="0.5"/>
		<circle cx="0.5" cy="49" r="0.5"/>
		<circle cx="12.6" cy="49" r="0.5"/>
		<circle cx="24.8" cy="49" r="0.5"/>
		<circle cx="36.9" cy="49" r="0.5"/>
		<circle cx="49" cy="49" r="0.5"/>
		<circle cx="61.1" cy="49" r="0.5"/>
		<circle cx="73.2" cy="49" r="0.5"/>
		<circle cx="85.4" cy="49" r="0.5"/>
		<circle cx="97.5" cy="49" r="0.5"/>
		<circle cx="109.6" cy="49" r="0.5"/>
		<circle cx="121.7" cy="49" r="0.5"/>
		<circle cx="133.9" cy="49" r="0.5"/>
		<circle cx="146" cy="49" r="0.5"/>
		<circle cx="158.1" cy="49" r="0.5"/>
		<circle cx="170.2" cy="49" r="0.5"/>
		<circle cx="182.4" cy="49" r="0.5"/>
		<circle cx="194.5" cy="49" r="0.5"/>
		<circle cx="206.6" cy="49" r="0.5"/>
		<circle cx="218.7" cy="49" r="0.5"/>
		<circle cx="230.8" cy="49" r="0.5"/>
		<circle cx="243" cy="49" r="0.5"/>
		<circle cx="255.1" cy="49" r="0.5"/>
		<circle cx="267.2" cy="49" r="0.5"/>
		<circle cx="279.3" cy="49" r="0.5"/>
		<circle cx="0.5" cy="61.1" r="0.5"/>
		<circle cx="12.6" cy="61.1" r="0.5"/>
		<circle cx="24.8" cy="61.1" r="0.5"/>
		<circle cx="36.9" cy="61.1" r="0.5"/>
		<circle cx="49" cy="61.1" r="0.5"/>
		<circle cx="61.1" cy="61.1" r="0.5"/>
		<circle cx="73.2" cy="61.1" r="0.5"/>
		<circle cx="85.4" cy="61.1" r="0.5"/>
		<circle cx="97.5" cy="61.1" r="0.5"/>
		<circle cx="109.6" cy="61.1" r="0.5"/>
		<circle cx="121.7" cy="61.1" r="0.5"/>
		<circle cx="133.9" cy="61.1" r="0.5"/>
		<circle cx="146" cy="61.1" r="0.5"/>
		<circle cx="158.1" cy="61.1" r="0.5"/>
		<circle cx="170.2" cy="61.1" r="0.5"/>
		<circle cx="182.4" cy="61.1" r="0.5"/>
		<circle cx="194.5" cy="61.1" r="0.5"/>
		<circle cx="206.6" cy="61.1" r="0.5"/>
		<circle cx="218.7" cy="61.1" r="0.5"/>
		<circle cx="230.8" cy="61.1" r="0.5"/>
		<circle cx="243" cy="61.1" r="0.5"/>
		<circle cx="255.1" cy="61.1" r="0.5"/>
		<circle cx="267.2" cy="61.1" r="0.5"/>
		<circle cx="279.3" cy="61.1" r="0.5"/>
	</g>
	<g>
		<circle cx="291.4" cy="0.5" r="0.5"/>
		<circle cx="303.5" cy="0.5" r="0.5"/>
		<circle cx="315.7" cy="0.5" r="0.5"/>
		<circle cx="327.8" cy="0.5" r="0.5"/>
		<circle cx="339.9" cy="0.5" r="0.5"/>
		<circle cx="352" cy="0.5" r="0.5"/>
		<circle cx="364.2" cy="0.5" r="0.5"/>
		<circle cx="376.3" cy="0.5" r="0.5"/>
		<circle cx="388.4" cy="0.5" r="0.5"/>
		<circle cx="400.5" cy="0.5" r="0.5"/>
		<circle cx="412.6" cy="0.5" r="0.5"/>
		<circle cx="424.8" cy="0.5" r="0.5"/>
		<circle cx="436.9" cy="0.5" r="0.5"/>
		<circle cx="449" cy="0.5" r="0.5"/>
		<circle cx="461.1" cy="0.5" r="0.5"/>
		<circle cx="473.3" cy="0.5" r="0.5"/>
		<circle cx="485.4" cy="0.5" r="0.5"/>
		<circle cx="497.5" cy="0.5" r="0.5"/>
		<circle cx="509.6" cy="0.5" r="0.5"/>
		<circle cx="521.8" cy="0.5" r="0.5"/>
		<circle cx="533.9" cy="0.5" r="0.5"/>
		<circle cx="546" cy="0.5" r="0.5"/>
		<circle cx="558.1" cy="0.5" r="0.5"/>
		<circle cx="570.2" cy="0.5" r="0.5"/>
		<circle cx="291.4" cy="12.6" r="0.5"/>
		<circle cx="303.5" cy="12.6" r="0.5"/>
		<circle cx="315.7" cy="12.6" r="0.5"/>
		<circle cx="327.8" cy="12.6" r="0.5"/>
		<circle cx="339.9" cy="12.6" r="0.5"/>
		<circle cx="352" cy="12.6" r="0.5"/>
		<circle cx="364.2" cy="12.6" r="0.5"/>
		<circle cx="376.3" cy="12.6" r="0.5"/>
		<circle cx="388.4" cy="12.6" r="0.5"/>
		<circle cx="400.5" cy="12.6" r="0.5"/>
		<circle cx="412.6" cy="12.6" r="0.5"/>
		<circle cx="424.8" cy="12.6" r="0.5"/>
		<circle cx="436.9" cy="12.6" r="0.5"/>
		<circle cx="449" cy="12.6" r="0.5"/>
		<circle cx="461.1" cy="12.6" r="0.5"/>
		<circle cx="473.3" cy="12.6" r="0.5"/>
		<circle cx="485.4" cy="12.6" r="0.5"/>
		<circle cx="497.5" cy="12.6" r="0.5"/>
		<circle cx="509.6" cy="12.6" r="0.5"/>
		<circle cx="521.8" cy="12.6" r="0.5"/>
		<circle cx="533.9" cy="12.6" r="0.5"/>
		<circle cx="546" cy="12.6" r="0.5"/>
		<circle cx="558.1" cy="12.6" r="0.5"/>
		<circle cx="570.2" cy="12.6" r="0.5"/>
		<circle cx="291.4" cy="24.8" r="0.5"/>
		<circle cx="303.5" cy="24.8" r="0.5"/>
		<circle cx="315.7" cy="24.8" r="0.5"/>
		<circle cx="327.8" cy="24.8" r="0.5"/>
		<circle cx="339.9" cy="24.8" r="0.5"/>
		<circle cx="352" cy="24.8" r="0.5"/>
		<circle cx="364.2" cy="24.8" r="0.5"/>
		<circle cx="376.3" cy="24.8" r="0.5"/>
		<circle cx="388.4" cy="24.8" r="0.5"/>
		<circle cx="400.5" cy="24.8" r="0.5"/>
		<circle cx="412.6" cy="24.8" r="0.5"/>
		<circle cx="424.8" cy="24.8" r="0.5"/>
		<circle cx="436.9" cy="24.8" r="0.5"/>
		<circle cx="449" cy="24.8" r="0.5"/>
		<circle cx="461.1" cy="24.8" r="0.5"/>
		<circle cx="473.3" cy="24.8" r="0.5"/>
		<circle cx="485.4" cy="24.8" r="0.5"/>
		<circle cx="497.5" cy="24.8" r="0.5"/>
		<circle cx="509.6" cy="24.8" r="0.5"/>
		<circle cx="521.8" cy="24.8" r="0.5"/>
		<circle cx="533.9" cy="24.8" r="0.5"/>
		<circle cx="546" cy="24.8" r="0.5"/>
		<circle cx="558.1" cy="24.8" r="0.5"/>
		<circle cx="570.2" cy="24.8" r="0.5"/>
		<circle cx="291.4" cy="36.9" r="0.5"/>
		<circle cx="303.5" cy="36.9" r="0.5"/>
		<circle cx="315.7" cy="36.9" r="0.5"/>
		<circle cx="327.8" cy="36.9" r="0.5"/>
		<circle cx="339.9" cy="36.9" r="0.5"/>
		<circle cx="352" cy="36.9" r="0.5"/>
		<circle cx="364.2" cy="36.9" r="0.5"/>
		<circle cx="376.3" cy="36.9" r="0.5"/>
		<circle cx="388.4" cy="36.9" r="0.5"/>
		<circle cx="400.5" cy="36.9" r="0.5"/>
		<circle cx="412.6" cy="36.9" r="0.5"/>
		<circle cx="424.8" cy="36.9" r="0.5"/>
		<circle cx="436.9" cy="36.9" r="0.5"/>
		<circle cx="449" cy="36.9" r="0.5"/>
		<circle cx="461.1" cy="36.9" r="0.5"/>
		<circle cx="473.3" cy="36.9" r="0.5"/>
		<circle cx="485.4" cy="36.9" r="0.5"/>
		<circle cx="497.5" cy="36.9" r="0.5"/>
		<circle cx="509.6" cy="36.9" r="0.5"/>
		<circle cx="521.8" cy="36.9" r="0.5"/>
		<circle cx="533.9" cy="36.9" r="0.5"/>
		<circle cx="546" cy="36.9" r="0.5"/>
		<circle cx="558.1" cy="36.9" r="0.5"/>
		<circle cx="570.2" cy="36.9" r="0.5"/>
		<circle cx="291.4" cy="49" r="0.5"/>
		<circle cx="303.5" cy="49" r="0.5"/>
		<circle cx="315.7" cy="49" r="0.5"/>
		<circle cx="327.8" cy="49" r="0.5"/>
		<circle cx="339.9" cy="49" r="0.5"/>
		<circle cx="352" cy="49" r="0.5"/>
		<circle cx="364.2" cy="49" r="0.5"/>
		<circle cx="376.3" cy="49" r="0.5"/>
		<circle cx="388.4" cy="49" r="0.5"/>
		<circle cx="400.5" cy="49" r="0.5"/>
		<circle cx="412.6" cy="49" r="0.5"/>
		<circle cx="424.8" cy="49" r="0.5"/>
		<circle cx="436.9" cy="49" r="0.5"/>
		<circle cx="449" cy="49" r="0.5"/>
		<circle cx="461.1" cy="49" r="0.5"/>
		<circle cx="473.3" cy="49" r="0.5"/>
		<circle cx="485.4" cy="49" r="0.5"/>
		<circle cx="497.5" cy="49" r="0.5"/>
		<circle cx="509.6" cy="49" r="0.5"/>
		<circle cx="521.8" cy="49" r="0.5"/>
		<circle cx="533.9" cy="49" r="0.5"/>
		<circle cx="546" cy="49" r="0.5"/>
		<circle cx="558.1" cy="49" r="0.5"/>
		<circle cx="570.2" cy="49" r="0.5"/>
		<circle cx="291.4" cy="61.1" r="0.5"/>
		<circle cx="303.5" cy="61.1" r="0.5"/>
		<circle cx="315.7" cy="61.1" r="0.5"/>
		<circle cx="327.8" cy="61.1" r="0.5"/>
		<circle cx="339.9" cy="61.1" r="0.5"/>
		<circle cx="352" cy="61.1" r="0.5"/>
		<circle cx="364.2" cy="61.1" r="0.5"/>
		<circle cx="376.3" cy="61.1" r="0.5"/>
		<circle cx="388.4" cy="61.1" r="0.5"/>
		<circle cx="400.5" cy="61.1" r="0.5"/>
		<circle cx="412.6" cy="61.1" r="0.5"/>
		<circle cx="424.8" cy="61.1" r="0.5"/>
		<circle cx="436.9" cy="61.1" r="0.5"/>
		<circle cx="449" cy="61.1" r="0.5"/>
		<circle cx="461.1" cy="61.1" r="0.5"/>
		<circle cx="473.3" cy="61.1" r="0.5"/>
		<circle cx="485.4" cy="61.1" r="0.5"/>
		<circle cx="497.5" cy="61.1" r="0.5"/>
		<circle cx="509.6" cy="61.1" r="0.5"/>
		<circle cx="521.8" cy="61.1" r="0.5"/>
		<circle cx="533.9" cy="61.1" r="0.5"/>
		<circle cx="546" cy="61.1" r="0.5"/>
		<circle cx="558.1" cy="61.1" r="0.5"/>
		<circle cx="570.2" cy="61.1" r="0.5"/>
	</g>
</g>
</svg>
