<?xml version="1.0" encoding="utf-8"?>
<!-- Generator: Adobe Illustrator 28.5.0, SVG Export Plug-In . SVG Version: 9.03 Build 54727)  -->
<svg version="1.1" baseProfile="tiny" id="Layer_1" xmlns="http://www.w3.org/2000/svg" xmlns:xlink="http://www.w3.org/1999/xlink"
	 x="0px" y="0px" viewBox="0 0 1667.5 58.4" overflow="visible" xml:space="preserve">
<g id="_x3C_Group_x3E__opacity:30_00000144330859832940323520000018087495104701837463_">
	<path fill="#A2E1F3" d="M1459.5,8h-125V5h125V8z M1335,7.5h124v-2h-124V7.5z"/>
	<path fill="#A2E1F3" d="M1515.5,8h-22V5h22V8z M1494,7.5h21v-2h-21V7.5z"/>
	<path fill="#A2E1F3" d="M1522.5,8h-3V5h3V8z M1520,7.5h2v-2h-2V7.5z"/>
</g>
<path id="_x3C_Compound_Path_x3E__opacity:30_00000133495579182046846050000009569222477778403235_" fill="#A2E1F3" d="M1522,11.8
	V17l-2.5,1v22.9l2.5,1V48H0.5V11.8L1522,11.8 M1522.5,11.3h-0.5L0.5,11.3H0v0.5V48v0.5h0.5H1522h0.5V48v-6.2v-0.3l-0.3-0.1l-2.2-0.9
	V18.3l2.2-0.9l0.3-0.1V17v-5.2V11.3L1522.5,11.3z"/>
<g>
	<path fill="#A2E1F3" d="M1651.6,8.2c0,0-0.1,0.2-0.2,0.2c-0.1,0-0.1,0.1-0.2,0.1h-0.4c-0.1,0-0.1,0-0.2-0.1c-0.1,0-0.2-0.2-0.2-0.2
		c0,0-0.1-0.1-0.1-0.1l0.2-0.1c0,0.1,0.2,0.2,0.2,0.3c0,0,0,0,0,0h0.4c0,0,0,0,0.1,0c0.1,0,0.1-0.1,0.2-0.2c0,0,0,0,0-0.1V7.7
		c0,0,0,0,0-0.1c0-0.1-0.1-0.1-0.2-0.2c0,0,0,0-0.1,0h-0.4V7.3h0.4c0,0,0,0,0.1,0c0.1,0,0.1-0.1,0.2-0.2c0,0,0,0,0-0.1V6.8
		c0,0,0,0,0-0.1c0-0.1-0.1-0.1-0.2-0.2c0,0,0,0-0.1,0h-0.4c0,0,0,0,0,0c-0.1,0-0.2,0.2-0.2,0.3l-0.2-0.1c0,0,0.1-0.1,0.1-0.1
		c0-0.1,0.1-0.2,0.2-0.2c0,0,0.1-0.1,0.2-0.1h0.4c0.1,0,0.2,0,0.2,0.1c0,0,0.2,0.1,0.2,0.2c0,0.1,0.1,0.1,0.1,0.2v0.3
		c0,0.1,0,0.1-0.1,0.2c0,0-0.1,0.1-0.1,0.1c0,0,0.1,0.1,0.1,0.1c0,0.1,0.1,0.1,0.1,0.2V8C1651.7,8.1,1651.7,8.2,1651.6,8.2z"/>
	<path fill="#A2E1F3" d="M1652.2,8.5V8.2h0.3v0.3H1652.2z"/>
	<path fill="#A2E1F3" d="M1654.2,8.2c0,0-0.1,0.2-0.2,0.2c-0.1,0-0.1,0.1-0.2,0.1h-0.4c-0.1,0-0.2,0-0.2-0.1c0,0-0.2-0.1-0.2-0.2
		c0-0.1-0.1-0.1-0.1-0.2V6.8c0-0.1,0-0.1,0.1-0.2c0,0,0.1-0.2,0.2-0.2c0.1,0,0.1-0.1,0.2-0.1h0.4c0.1,0,0.2,0,0.2,0.1
		c0,0,0.2,0.1,0.2,0.2c0,0.1,0.1,0.1,0.1,0.2V8C1654.2,8.1,1654.2,8.2,1654.2,8.2z M1654,6.8C1654,6.8,1654,6.7,1654,6.8
		c0-0.1-0.1-0.2-0.2-0.2c0,0,0,0-0.1,0h-0.4c0,0,0,0-0.1,0c-0.1,0-0.1,0.1-0.2,0.2c0,0,0,0,0,0.1V8c0,0,0,0,0,0.1
		c0,0.1,0.1,0.1,0.2,0.2c0,0,0,0,0.1,0h0.4c0,0,0,0,0.1,0c0.1,0,0.1-0.1,0.2-0.2c0,0,0,0,0-0.1V6.8z"/>
	<path fill="#A2E1F3" d="M1656.3,8.5h-0.3l-0.7-2.1h0.2l0.6,1.9h0l0.6-1.9h0.2L1656.3,8.5z"/>
	<path fill="#A2E1F3" d="M1657.4,8.5V6.4h1.2v0.2h-1v0.8h1v0.2h-1v0.8h1v0.2H1657.4z"/>
	<path fill="#A2E1F3" d="M1660.4,7.3c0,0-0.1,0.1-0.2,0.2c-0.1,0-0.1,0.1-0.2,0.1l0.5,0.9h-0.2l-0.5-0.9h-0.5v0.9h-0.2V6.4h0.9
		c0.1,0,0.2,0,0.2,0.1c0,0,0.2,0.1,0.2,0.2c0,0.1,0.1,0.1,0.1,0.2v0.3C1660.5,7.2,1660.5,7.2,1660.4,7.3z M1660.3,6.8
		C1660.3,6.8,1660.3,6.8,1660.3,6.8c0-0.1-0.1-0.2-0.2-0.2c0,0,0,0-0.1,0h-0.7v0.8h0.7c0,0,0,0,0.1,0c0.1,0,0.1-0.1,0.2-0.2
		c0,0,0,0,0-0.1V6.8z"/>
	<path fill="#A2E1F3" d="M1662.5,8.2c0,0.1-0.2,0.2-0.2,0.2c0,0-0.1,0.1-0.2,0.1h-0.6c-0.1,0-0.1,0-0.2-0.1c-0.1,0-0.2-0.2-0.2-0.2
		c0,0-0.1-0.1-0.1-0.1l0.2-0.1c0,0,0,0,0,0c0,0.1,0.2,0.2,0.2,0.2c0,0,0,0,0,0h0.6c0,0,0,0,0,0c0.1,0,0.2-0.1,0.2-0.2c0,0,0,0,0,0
		V7.8c0-0.1,0-0.1-0.1-0.2l-1-0.3c-0.1,0-0.2-0.2-0.2-0.3V6.8c0-0.1,0-0.1,0-0.2c0-0.1,0.2-0.2,0.2-0.2c0,0,0.1-0.1,0.2-0.1h0.5
		c0.1,0,0.1,0,0.2,0.1c0.1,0,0.2,0.2,0.2,0.2c0,0,0.1,0.1,0.1,0.1l-0.2,0.1c0,0,0,0,0,0c0-0.1-0.2-0.2-0.2-0.2c0,0,0,0,0,0h-0.5
		c0,0,0,0,0,0c-0.1,0-0.2,0.1-0.2,0.2c0,0,0,0,0,0V7c0,0.1,0,0.1,0.1,0.2l1,0.3c0.1,0,0.2,0.2,0.2,0.3V8
		C1662.5,8.1,1662.5,8.1,1662.5,8.2z"/>
	<path fill="#A2E1F3" d="M1663,8.5V6.4h0.2v2.1H1663z"/>
	<path fill="#A2E1F3" d="M1665.1,8.2c0,0.1-0.2,0.2-0.2,0.2c0,0-0.1,0.1-0.2,0.1h-0.6c-0.1,0-0.1,0-0.2-0.1c-0.1,0-0.2-0.2-0.2-0.2
		c0,0,0-0.1,0-0.2V6.8c0-0.1,0-0.1,0-0.2c0-0.1,0.2-0.2,0.2-0.2c0,0,0.1-0.1,0.2-0.1h0.6c0.1,0,0.1,0,0.2,0.1c0.1,0,0.2,0.2,0.2,0.2
		c0,0,0,0.1,0,0.2V8C1665.2,8.1,1665.2,8.1,1665.1,8.2z M1665,6.8C1665,6.8,1665,6.8,1665,6.8c-0.1-0.1-0.2-0.2-0.2-0.3c0,0,0,0,0,0
		h-0.5c0,0,0,0,0,0c-0.1,0-0.2,0.1-0.2,0.2c0,0,0,0,0,0.1V8c0,0,0,0,0,0c0,0.1,0.2,0.2,0.2,0.2c0,0,0,0,0,0h0.5c0,0,0,0,0,0
		c0.1,0,0.2-0.1,0.2-0.2c0,0,0,0,0,0V6.8z"/>
	<path fill="#A2E1F3" d="M1666.8,8.5l-0.9-1.8v1.8h-0.2V6.4h0.3l0.9,1.8V6.4h0.2v2.1H1666.8z"/>
</g>
<polygon id="_x3C_Path_x3E__opacity:30_00000047039868262900799790000005769742385910367923_" fill="#A2E1F3" points="18.1,48 
	14.6,48 27.4,11.8 30.9,11.8 "/>
<polygon id="_x3C_Path_x3E__opacity:30_00000134235681178650933040000000716772194969181584_" fill="#A2E1F3" points="9.3,48 
	5.8,48 18.6,11.8 22.1,11.8 "/>
</svg>
