<?xml version="1.0" encoding="utf-8"?>
<!-- Generator: Adobe Illustrator 29.6.0, SVG Export Plug-In . SVG Version: 9.03 Build 0)  -->
<svg version="1.1" baseProfile="tiny" xmlns="http://www.w3.org/2000/svg" xmlns:xlink="http://www.w3.org/1999/xlink" x="0px"
	 y="0px" viewBox="0 0 1024 1024" overflow="visible" xml:space="preserve">
<g id="Venetian_x5F_Blinds_x5F_Effect">
</g>
<g id="Vignette">
</g>
<g id="Inner_x5F_Frame">
</g>
<g id="Heat_x5F_Charge_x5F_Bar">
</g>
<g id="Center_x5F_Target_x5F_Greeble">
	<g>
		<path fill="#FA1105" d="M302,508.4c0,0-192.1,0-192.1,0c0,0.9,0,3.5,0,3.5h199.9C309.8,512,302,508.4,302,508.4z"/>
		<path fill="#FA1105" d="M109.9,515.5c0,0,192.1,0,192.1,0c0,0,7.8-3.6,7.8-3.5H109.9C109.9,512,109.9,514.7,109.9,515.5z"/>
	</g>
	<g>
		<path fill="#FA1105" d="M724.7,508.4c0,0,192.1,0,192.1,0c0,0.9,0,3.5,0,3.5H717C716.9,512,724.7,508.4,724.7,508.4z"/>
		<path fill="#FA1105" d="M916.9,515.5c0,0-192.1,0-192.1,0c0,0-7.8-3.6-7.8-3.5h199.9C916.9,512,916.9,514.7,916.9,515.5z"/>
	</g>
	<polygon fill="#FA1105" points="512,625.1 508.5,632.8 508.5,857.3 512,857.3 515.5,857.3 515.5,632.8 	"/>
	<g>
		<rect x="522.8" y="512" width="1.1" height="4.7"/>
		<rect x="534.2" y="512" width="1.1" height="4.7"/>
		<rect x="545.5" y="512" width="1.1" height="4.7"/>
		<rect x="556.9" y="512" width="1.1" height="4.7"/>
		<rect x="568.2" y="512" width="1.1" height="9.5"/>
		<rect x="579.6" y="512" width="1.1" height="4.7"/>
		<rect x="590.9" y="512" width="1.1" height="4.7"/>
		<rect x="602.3" y="512" width="1.1" height="4.7"/>
		<rect x="613.7" y="512" width="1.1" height="4.7"/>
		<rect x="625" y="512" width="1.1" height="9.5"/>
		<rect x="500.1" y="512" width="1.1" height="4.7"/>
		<rect x="488.7" y="512" width="1.1" height="4.7"/>
		<rect x="477.4" y="512" width="1.1" height="4.7"/>
		<rect x="466" y="512" width="1.1" height="4.7"/>
		<rect x="454.7" y="512" width="1.1" height="9.5"/>
		<rect x="443.3" y="512" width="1.1" height="4.7"/>
		<rect x="431.9" y="512" width="1.1" height="4.7"/>
		<rect x="420.6" y="512" width="1.1" height="4.7"/>
		<rect x="409.2" y="512" width="1.1" height="4.7"/>
		<rect x="397.9" y="512" width="1.1" height="9.5"/>
	</g>
	<polygon points="515.1,595.6 512,590.7 508.9,595.6 508,595 512,588.6 516,595 	"/>
	<g>
		<polygon points="515.1,571.7 512,566.8 508.9,571.7 508,571.1 512,564.7 516,571.1 		"/>
	</g>
	<g>
		<polygon points="515.1,547.8 512,542.9 508.9,547.8 508,547.2 512,540.8 516,547.2 		"/>
	</g>
	<g>
		<polygon fill="#FA1105" points="515.8,521.6 512,515.6 508.2,521.6 506.5,520.5 512,511.9 517.5,520.5 		"/>
	</g>
</g>
<g id="Top_x5F_Header_x5F_Greeble">
</g>
<g id="Outer_x5F_Frame_x5F_Greeble">
</g>
</svg>
