<?xml version="1.0" encoding="utf-8"?>
<!-- Generator: Adobe Illustrator 30.0.0, SVG Export Plug-In . SVG Version: 9.03 Build 0)  -->
<svg version="1.1" baseProfile="tiny" id="Layer_1" xmlns="http://www.w3.org/2000/svg" xmlns:xlink="http://www.w3.org/1999/xlink"
	 x="0px" y="0px" viewBox="0 0 1024 1024" overflow="visible" xml:space="preserve">
<g id="Venetian_x5F_Blinds_x5F_Effect">
</g>
<g id="Vignette">
</g>
<g id="Inner_x5F_Frame">
</g>
<g id="Heat_x5F_Charge_x5F_Bar">
	<polygon fill="#DB0000" points="177.6,993.2 164.9,993.2 144.8,973.8 157.5,973.8 	"/>
	<polygon fill="#DB0000" points="197.1,993.2 183.2,993.2 163.1,973.8 177,973.8 	"/>
	<polygon fill="#DB0000" points="218.8,993.2 203.6,993.2 183.5,973.8 198.6,973.8 	"/>
	<polygon fill="#DB0000" points="243.1,993.2 226.7,993.2 206.5,973.8 222.9,973.8 	"/>
	<polygon fill="#DB0000" points="269.6,993.2 252,993.2 231.8,973.8 249.5,973.8 	"/>
	<polygon fill="#DB0000" points="297.2,993.2 278.2,993.2 258.1,973.8 277,973.8 	"/>
	<polygon fill="#DB0000" points="325.5,993.2 305.3,993.2 285.2,973.8 305.4,973.8 	"/>
	<polygon fill="#DB0000" points="355.7,993.2 334.3,993.2 314.1,973.8 335.6,973.8 	"/>
	<polygon fill="#DB0000" points="388.2,993.2 365.5,993.2 345.3,973.8 368,973.8 	"/>
	<polygon fill="#DB0000" points="423,993.2 399.1,993.2 378.9,973.8 402.9,973.8 	"/>
	<polygon fill="#AA0000" points="395.1,989.4 399.1,993.2 423,993.2 419,989.4 	"/>
	<polygon fill="#FF0000" points="406.9,977.6 402.9,973.8 378.9,973.8 382.9,977.6 	"/>
	<polygon fill="#AA0000" points="361.5,989.4 365.5,993.2 388.2,993.2 384.2,989.4 	"/>
	<polygon fill="#FF0000" points="372,977.6 368,973.8 345.3,973.8 349.3,977.6 	"/>
	<polygon fill="#AA0000" points="330.3,989.4 334.3,993.2 355.7,993.2 351.7,989.4 	"/>
	<polygon fill="#FF0000" points="339.6,977.6 335.6,973.8 314.1,973.8 318.1,977.6 	"/>
	<polygon fill="#FF0000" points="309.4,977.6 305.4,973.8 285.2,973.8 289.2,977.6 	"/>
	<polygon fill="#AA0000" points="301.3,989.4 305.3,993.2 325.5,993.2 321.5,989.4 	"/>
	<polygon fill="#AA0000" points="274.3,989.4 278.2,993.2 297.2,993.2 293.2,989.4 	"/>
	<polygon fill="#FF0000" points="281,977.6 277,973.8 258.1,973.8 262.1,977.6 	"/>
	<polygon fill="#AA0000" points="248,989.4 252,993.2 269.6,993.2 265.6,989.4 	"/>
	<polygon fill="#FF0000" points="253.5,977.6 249.5,973.8 231.8,973.8 235.8,977.6 	"/>
	<polygon fill="#AA0000" points="222.7,989.4 226.7,993.2 243.1,993.2 239.1,989.4 	"/>
	<polygon fill="#FF0000" points="226.9,977.6 222.9,973.8 206.5,973.8 210.5,977.6 	"/>
	<polygon fill="#AA0000" points="199.6,989.4 203.6,993.2 218.8,993.2 214.8,989.4 	"/>
	<polygon fill="#FF0000" points="202.6,977.6 198.6,973.8 183.5,973.8 187.5,977.6 	"/>
	<polygon fill="#AA0000" points="179.2,989.4 183.2,993.2 197.1,993.2 193.1,989.4 	"/>
	<polygon fill="#FF0000" points="181,977.6 177,973.8 163.1,973.8 167.1,977.6 	"/>
	<polygon fill="#FF0000" points="161.4,977.6 157.5,973.8 144.8,973.8 148.8,977.6 	"/>
	<polygon fill="#AA0000" points="161,989.4 164.9,993.2 177.6,993.2 173.6,989.4 	"/>
	<polygon fill="#07BDDB" points="633.8,973.8 621.1,973.8 601,993.2 613.7,993.2 	"/>
	<polygon fill="#07BDDB" points="653.3,973.8 639.4,973.8 619.3,993.2 633.2,993.2 	"/>
	<polygon fill="#07BDDB" points="675,973.8 659.8,973.8 639.7,993.2 654.8,993.2 	"/>
	<polygon fill="#07BDDB" points="699.3,973.8 682.9,973.8 662.7,993.2 679.1,993.2 	"/>
	<polygon fill="#07BDDB" points="725.8,973.8 708.2,973.8 688,993.2 705.7,993.2 	"/>
	<polygon fill="#07BDDB" points="753.4,973.8 734.4,973.8 714.3,993.2 733.2,993.2 	"/>
	<polygon fill="#07BDDB" points="781.7,973.8 761.5,973.8 741.4,993.2 761.6,993.2 	"/>
	<polygon fill="#07BDDB" points="811.9,973.8 790.5,973.8 770.3,993.2 791.8,993.2 	"/>
	<polygon fill="#07BDDB" points="844.4,973.8 821.7,973.8 801.5,993.2 824.2,993.2 	"/>
	<polygon fill="#07BDDB" points="879.2,973.8 855.3,973.8 835.1,993.2 859.1,993.2 	"/>
	<polygon fill="#0292AA" points="851.3,977.6 855.3,973.8 879.2,973.8 875.2,977.6 	"/>
	<polygon fill="#09CFFE" points="863.1,989.4 859.1,993.2 835.1,993.2 839.1,989.4 	"/>
	<polygon fill="#0292AA" points="817.7,977.6 821.7,973.8 844.4,973.8 840.4,977.6 	"/>
	<polygon fill="#09CFFE" points="828.2,989.4 824.2,993.2 801.5,993.2 805.5,989.4 	"/>
	<polygon fill="#0292AA" points="786.5,977.6 790.5,973.8 811.9,973.8 807.9,977.6 	"/>
	<polygon fill="#09CFFE" points="795.8,989.4 791.8,993.2 770.3,993.2 774.3,989.4 	"/>
	<polygon fill="#09CFFE" points="765.6,989.4 761.6,993.2 741.4,993.2 745.4,989.4 	"/>
	<polygon fill="#0292AA" points="757.5,977.6 761.5,973.8 781.7,973.8 777.7,977.6 	"/>
	<polygon fill="#0292AA" points="730.5,977.6 734.4,973.8 753.4,973.8 749.4,977.6 	"/>
	<polygon fill="#09CFFE" points="737.2,989.4 733.2,993.2 714.3,993.2 718.3,989.4 	"/>
	<polygon fill="#0292AA" points="704.2,977.6 708.2,973.8 725.8,973.8 721.8,977.6 	"/>
	<polygon fill="#09CFFE" points="709.7,989.4 705.7,993.2 688,993.2 692,989.4 	"/>
	<polygon fill="#0292AA" points="678.9,977.6 682.9,973.8 699.3,973.8 695.3,977.6 	"/>
	<polygon fill="#09CFFE" points="683.1,989.4 679.1,993.2 662.7,993.2 666.7,989.4 	"/>
	<polygon fill="#0292AA" points="655.8,977.6 659.8,973.8 675,973.8 671,977.6 	"/>
	<polygon fill="#09CFFE" points="658.8,989.4 654.8,993.2 639.7,993.2 643.7,989.4 	"/>
	<polygon fill="#0292AA" points="635.4,977.6 639.4,973.8 653.3,973.8 649.3,977.6 	"/>
	<polygon fill="#09CFFE" points="637.2,989.4 633.2,993.2 619.3,993.2 623.3,989.4 	"/>
	<polygon fill="#09CFFE" points="617.6,989.4 613.7,993.2 601,993.2 605,989.4 	"/>
	<polygon fill="#0292AA" points="617.2,977.6 621.1,973.8 633.8,973.8 629.8,977.6 	"/>
</g>
<g id="Center_x5F_Target_x5F_Greeble">
</g>
<g id="Top_x5F_Header_x5F_Greeble">
</g>
<g id="Outer_x5F_Frame_x5F_Greeble">
</g>
</svg>
