<?xml version="1.0" encoding="utf-8"?>
<!-- Generator: Adobe Illustrator 29.6.1, SVG Export Plug-In . SVG Version: 9.03 Build 0)  -->
<svg version="1.1" baseProfile="tiny" id="Layer_1" xmlns="http://www.w3.org/2000/svg" xmlns:xlink="http://www.w3.org/1999/xlink"
	 x="0px" y="0px" viewBox="0 0 1024 1024" overflow="visible" xml:space="preserve">
<g id="Venetian_x5F_Blinds_x5F_Effect">
</g>
<g id="Vignette">
</g>
<g id="Inner_x5F_Frame">
</g>
<g id="Heat_x5F_Charge_x5F_Bar">
</g>
<g id="Center_x5F_Target_x5F_Greeble">
</g>
<rect x="421.9" y="15.9" width="69.3" height="20.4"/>
<g>
	<path fill="#FFFFFF" d="M425.7,26.4c-0.1,0-0.2,0-0.2,0c-0.1,0-0.1-0.1-0.2-0.1c-0.1-0.1-0.1-0.1-0.1-0.2c0-0.1,0-0.1,0-0.2v-1.1
		c0-0.1,0-0.2,0-0.2c0-0.1,0.1-0.1,0.1-0.2c0.1-0.1,0.1-0.1,0.2-0.1c0.1,0,0.1,0,0.2,0h1.9c0.1,0,0.2,0,0.2,0c0.1,0,0.1,0.1,0.2,0.1
		c0.1,0.1,0.1,0.1,0.1,0.2c0,0.1,0,0.1,0,0.2v0.5h-0.6v-0.5h-1.9v1.1h1.9c0.1,0,0.2,0,0.2,0c0.1,0,0.1,0.1,0.2,0.1
		c0.1,0.1,0.1,0.1,0.1,0.2c0,0.1,0,0.1,0,0.2v1.1c0,0.1,0,0.2,0,0.2c0,0.1-0.1,0.1-0.1,0.2c-0.1,0.1-0.1,0.1-0.2,0.1
		c-0.1,0-0.1,0-0.2,0h-2c-0.1,0-0.2,0-0.2,0c-0.1,0-0.1-0.1-0.2-0.1c-0.1-0.1-0.1-0.1-0.1-0.2c0-0.1,0-0.1,0-0.2V27h0.6v0.5h2v-1.1
		H425.7z"/>
</g>
<g>
	<path fill="#FFFFFF" d="M429.5,24.7c0-0.1,0-0.2,0-0.2c0-0.1,0.1-0.1,0.1-0.2c0.1-0.1,0.1-0.1,0.2-0.1c0.1,0,0.1,0,0.2,0h2.2
		c0.1,0,0.2,0,0.2,0c0.1,0,0.1,0.1,0.2,0.1c0.1,0.1,0.1,0.1,0.1,0.2c0,0.1,0,0.1,0,0.2v0.5h-0.6v-0.5h-2.2v2.9h2.2V27h0.6v0.5
		c0,0.1,0,0.2,0,0.2c0,0.1-0.1,0.1-0.1,0.2c-0.1,0.1-0.1,0.1-0.2,0.1c-0.1,0-0.1,0-0.2,0h-2.2c-0.1,0-0.2,0-0.2,0
		c-0.1,0-0.1-0.1-0.2-0.1c-0.1-0.1-0.1-0.1-0.1-0.2c0-0.1,0-0.1,0-0.2V24.7z"/>
</g>
<g>
	<path fill="#FFFFFF" d="M437.5,27.5c0,0.1,0,0.2,0,0.2c0,0.1-0.1,0.1-0.1,0.2c-0.1,0.1-0.1,0.1-0.2,0.1c-0.1,0-0.1,0-0.2,0h-2.3
		c-0.1,0-0.2,0-0.2,0c-0.1,0-0.1-0.1-0.2-0.1c-0.1-0.1-0.1-0.1-0.1-0.2c0-0.1,0-0.1,0-0.2v-2.9c0-0.1,0-0.2,0-0.2
		c0-0.1,0.1-0.1,0.1-0.2c0.1-0.1,0.1-0.1,0.2-0.1c0.1,0,0.1,0,0.2,0h2.3c0.1,0,0.2,0,0.2,0c0.1,0,0.1,0.1,0.2,0.1
		c0.1,0.1,0.1,0.1,0.1,0.2c0,0.1,0,0.1,0,0.2V27.5z M434.6,24.7v2.9h2.3v-2.9H434.6z"/>
</g>
<g>
	<path fill="#FFFFFF" d="M438.8,28.1v-4h2.2c0.6,0,1,0.3,1,1v0.6c0,0.7-0.3,1-1,1h-1.6v1.5H438.8z M439.4,26.1h1.6
		c0.2,0,0.3,0,0.3-0.1c0.1-0.1,0.1-0.2,0.1-0.3v-0.5c0-0.2,0-0.3-0.1-0.3c-0.1-0.1-0.2-0.1-0.3-0.1h-1.6V26.1z"/>
</g>
<g>
	<path fill="#FFFFFF" d="M443.1,24.1h2.9v0.6h-2.3v1.1h2v0.6h-2v1.1h2.3v0.6h-2.9V24.1z"/>
</g>
<g>
	<path fill="#FFFFFF" d="M446.6,29.3h3.6v0.4h-3.6V29.3z"/>
</g>
<g>
	<path fill="#FFFFFF" d="M453.1,28.1l-1.5-2.9v2.9H451v-4h0.6l1.5,3l1.5-3h0.6v4h-0.6v-2.9l-1.5,2.9H453.1z"/>
</g>
<g>
	<path fill="#FFFFFF" d="M460.1,27.5c0,0.1,0,0.2,0,0.2c0,0.1-0.1,0.1-0.1,0.2c-0.1,0.1-0.1,0.1-0.2,0.1c-0.1,0-0.1,0-0.2,0h-2.3
		c-0.1,0-0.2,0-0.2,0c-0.1,0-0.1-0.1-0.2-0.1c-0.1-0.1-0.1-0.1-0.1-0.2c0-0.1,0-0.1,0-0.2v-2.9c0-0.1,0-0.2,0-0.2
		c0-0.1,0.1-0.1,0.1-0.2c0.1-0.1,0.1-0.1,0.2-0.1c0.1,0,0.1,0,0.2,0h2.3c0.1,0,0.2,0,0.2,0c0.1,0,0.1,0.1,0.2,0.1
		c0.1,0.1,0.1,0.1,0.1,0.2c0,0.1,0,0.1,0,0.2V27.5z M457.2,24.7v2.9h2.3v-2.9H457.2z"/>
</g>
<g>
	<path fill="#FFFFFF" d="M461.4,28.1v-4h2c0.2,0,0.4,0,0.6,0.1c0.2,0.1,0.3,0.2,0.4,0.3c0.1,0.1,0.2,0.3,0.3,0.4
		c0.1,0.2,0.1,0.4,0.1,0.6v1.2c0,0.2,0,0.4-0.1,0.6c-0.1,0.2-0.2,0.3-0.3,0.4c-0.1,0.1-0.3,0.2-0.4,0.3c-0.2,0.1-0.4,0.1-0.6,0.1
		H461.4z M463.4,27.5c0.3,0,0.5-0.1,0.6-0.2s0.2-0.3,0.2-0.6v-1.2c0-0.1,0-0.2-0.1-0.3c0-0.1-0.1-0.2-0.2-0.3
		c-0.1-0.1-0.2-0.1-0.3-0.2s-0.2-0.1-0.3-0.1h-1.5v2.9H463.4z"/>
</g>
<g>
	<path fill="#FFFFFF" d="M466,24.1h2.9v0.6h-2.3v1.1h2v0.6h-2v1.1h2.3v0.6H466V24.1z"/>
</g>
<g>
	<path fill="#FFFFFF" d="M470,25.1h0.8V26H470V25.1z M470,27.3h0.8v0.8H470V27.3z"/>
</g>
<g>
	<path fill="#FFFFFF" d="M471.8,24.1h3.2v0.6h-1.3v3.4h-0.6v-3.4h-1.3V24.1z"/>
</g>
<g>
	<path fill="#FFFFFF" d="M479.1,25.5c0,0.6-0.2,0.9-0.7,1l0.8,1.6h-0.6l-0.7-1.6h-1.3v1.6H476v-4h2.2c0.6,0,1,0.3,1,1V25.5z
		 M476.5,25.9h1.6c0.2,0,0.3,0,0.3-0.1c0.1-0.1,0.1-0.2,0.1-0.3v-0.4c0-0.2,0-0.3-0.1-0.3c-0.1-0.1-0.2-0.1-0.3-0.1h-1.6V25.9z"/>
</g>
<g>
	<path fill="#FFFFFF" d="M480.4,24.1h0.6v3.4h2.3v-3.4h0.6v3.4c0,0.1,0,0.2,0,0.2c0,0.1-0.1,0.1-0.1,0.2c-0.1,0.1-0.1,0.1-0.2,0.1
		c-0.1,0-0.1,0-0.2,0H481c-0.1,0-0.2,0-0.2,0c-0.1,0-0.1-0.1-0.2-0.1c-0.1-0.1-0.1-0.1-0.1-0.2c0-0.1,0-0.1,0-0.2V24.1z"/>
</g>
<g>
	<path fill="#FFFFFF" d="M485.1,24.1h2.9v0.6h-2.3v1.1h2v0.6h-2v1.1h2.3v0.6h-2.9V24.1z"/>
</g>
<polygon points="404.5,36.3 323.4,36.3 302,15.9 404.5,15.9 "/>
<g>
	<path fill="#FFFFFF" d="M329,24.8c0-0.1,0-0.2,0-0.2c0-0.1,0.1-0.1,0.1-0.2c0.1-0.1,0.1-0.1,0.2-0.1c0.1,0,0.1,0,0.2,0h2.2
		c0.1,0,0.2,0,0.2,0c0.1,0,0.1,0.1,0.2,0.1c0.1,0.1,0.1,0.1,0.1,0.2c0,0.1,0,0.1,0,0.2v0.5h-0.6v-0.5h-2.2v2.9h2.2v-1h-1.1v-0.6h1.7
		v1.5c0,0.1,0,0.2,0,0.2c0,0.1-0.1,0.1-0.1,0.2c-0.1,0.1-0.1,0.1-0.2,0.1c-0.1,0-0.1,0-0.2,0h-2.2c-0.1,0-0.2,0-0.2,0
		c-0.1,0-0.1-0.1-0.2-0.1c-0.1-0.1-0.1-0.1-0.1-0.2c0-0.1,0-0.1,0-0.2V24.8z"/>
</g>
<g>
	<path fill="#FFFFFF" d="M333.9,24.2l1.2,1.9l1.2-1.9h0.7l-1.5,2.4v1.6h-0.6v-1.6l-1.5-2.4H333.9z"/>
</g>
<g>
	<path fill="#FFFFFF" d="M341,25.7c0,0.6-0.2,0.9-0.7,1l0.8,1.6h-0.6l-0.7-1.6h-1.3v1.6h-0.6v-4h2.2c0.6,0,1,0.3,1,1V25.7z
		 M338.4,26.1h1.6c0.2,0,0.3,0,0.3-0.1c0.1-0.1,0.1-0.2,0.1-0.3v-0.4c0-0.2,0-0.3-0.1-0.3c-0.1-0.1-0.2-0.1-0.3-0.1h-1.6V26.1z"/>
</g>
<g>
	<path fill="#FFFFFF" d="M345.7,27.7c0,0.1,0,0.2,0,0.2c0,0.1-0.1,0.1-0.1,0.2c-0.1,0.1-0.1,0.1-0.2,0.1c-0.1,0-0.1,0-0.2,0h-2.3
		c-0.1,0-0.2,0-0.2,0c-0.1,0-0.1-0.1-0.2-0.1c-0.1-0.1-0.1-0.1-0.1-0.2c0-0.1,0-0.1,0-0.2v-2.9c0-0.1,0-0.2,0-0.2
		c0-0.1,0.1-0.1,0.1-0.2c0.1-0.1,0.1-0.1,0.2-0.1c0.1,0,0.1,0,0.2,0h2.3c0.1,0,0.2,0,0.2,0c0.1,0,0.1,0.1,0.2,0.1
		c0.1,0.1,0.1,0.1,0.1,0.2c0,0.1,0,0.1,0,0.2V27.7z M342.8,24.8v2.9h2.3v-2.9H342.8z"/>
</g>
<g>
	<path fill="#FFFFFF" d="M349.6,26.5c-0.1,0-0.2,0-0.2,0c-0.1,0-0.1-0.1-0.2-0.1c-0.1-0.1-0.1-0.1-0.1-0.2c0-0.1,0-0.1,0-0.2v-1.1
		c0-0.1,0-0.2,0-0.2c0-0.1,0.1-0.1,0.1-0.2c0.1-0.1,0.1-0.1,0.2-0.1c0.1,0,0.1,0,0.2,0h1.9c0.1,0,0.2,0,0.2,0c0.1,0,0.1,0.1,0.2,0.1
		c0.1,0.1,0.1,0.1,0.1,0.2c0,0.1,0,0.1,0,0.2v0.5h-0.6v-0.5h-1.9v1.1h1.9c0.1,0,0.2,0,0.2,0c0.1,0,0.1,0.1,0.2,0.1
		c0.1,0.1,0.1,0.1,0.1,0.2c0,0.1,0,0.1,0,0.2v1.1c0,0.1,0,0.2,0,0.2c0,0.1-0.1,0.1-0.1,0.2c-0.1,0.1-0.1,0.1-0.2,0.1
		c-0.1,0-0.1,0-0.2,0h-2c-0.1,0-0.2,0-0.2,0c-0.1,0-0.1-0.1-0.2-0.1C349,28,349,28,349,27.9c0-0.1,0-0.1,0-0.2v-0.5h0.6v0.5h2v-1.1
		H349.6z"/>
</g>
<g>
	<path fill="#FFFFFF" d="M353.7,24.2l1.2,1.9l1.2-1.9h0.7l-1.5,2.4v1.6h-0.6v-1.6l-1.5-2.4H353.7z"/>
</g>
<g>
	<path fill="#FFFFFF" d="M358.1,28.2h-0.6v-4h0.6l2.4,3.1v-3.1h0.6v4h-0.6l-2.4-3.1V28.2z"/>
</g>
<g>
	<path fill="#FFFFFF" d="M362.4,24.8c0-0.1,0-0.2,0-0.2c0-0.1,0.1-0.1,0.1-0.2c0.1-0.1,0.1-0.1,0.2-0.1c0.1,0,0.1,0,0.2,0h2.2
		c0.1,0,0.2,0,0.2,0c0.1,0,0.1,0.1,0.2,0.1c0.1,0.1,0.1,0.1,0.1,0.2c0,0.1,0,0.1,0,0.2v0.5h-0.6v-0.5H363v2.9h2.2v-0.5h0.6v0.5
		c0,0.1,0,0.2,0,0.2c0,0.1-0.1,0.1-0.1,0.2c-0.1,0.1-0.1,0.1-0.2,0.1c-0.1,0-0.1,0-0.2,0H363c-0.1,0-0.2,0-0.2,0
		c-0.1,0-0.1-0.1-0.2-0.1c-0.1-0.1-0.1-0.1-0.1-0.2c0-0.1,0-0.1,0-0.2V24.8z"/>
</g>
<g>
	<path fill="#FFFFFF" d="M369,24.2h2.9v0.6h-2.3v1.1h2v0.6h-2v1.1h2.3v0.6H369V24.2z"/>
</g>
<g>
	<path fill="#FFFFFF" d="M373.6,28.2H373v-4h0.6l2.4,3.1v-3.1h0.6v4H376l-2.4-3.1V28.2z"/>
</g>
<g>
	<path fill="#FFFFFF" d="M377.9,24.8c0-0.1,0-0.2,0-0.2c0-0.1,0.1-0.1,0.1-0.2c0.1-0.1,0.1-0.1,0.2-0.1c0.1,0,0.1,0,0.2,0h2.2
		c0.1,0,0.2,0,0.2,0c0.1,0,0.1,0.1,0.2,0.1c0.1,0.1,0.1,0.1,0.1,0.2c0,0.1,0,0.1,0,0.2v0.5h-0.6v-0.5h-2.2v2.9h2.2v-1h-1.1v-0.6h1.7
		v1.5c0,0.1,0,0.2,0,0.2c0,0.1-0.1,0.1-0.1,0.2c-0.1,0.1-0.1,0.1-0.2,0.1c-0.1,0-0.1,0-0.2,0h-2.2c-0.1,0-0.2,0-0.2,0
		c-0.1,0-0.1-0.1-0.2-0.1C378,28,378,28,378,27.9c0-0.1,0-0.1,0-0.2V24.8z"/>
</g>
<g>
	<path fill="#FFFFFF" d="M384.3,24.2l1.5,4h-0.6l-0.4-0.9h-1.8l-0.4,0.9h-0.6l1.5-4H384.3z M383.4,26.7h1.4l-0.7-1.8L383.4,26.7z"/>
</g>
<g>
	<path fill="#FFFFFF" d="M386.9,24.8c0-0.1,0-0.2,0-0.2c0-0.1,0.1-0.1,0.1-0.2c0.1-0.1,0.1-0.1,0.2-0.1c0.1,0,0.1,0,0.2,0h2.2
		c0.1,0,0.2,0,0.2,0c0.1,0,0.1,0.1,0.2,0.1c0.1,0.1,0.1,0.1,0.1,0.2c0,0.1,0,0.1,0,0.2v0.5h-0.6v-0.5h-2.2v2.9h2.2v-1h-1.1v-0.6h1.7
		v1.5c0,0.1,0,0.2,0,0.2c0,0.1-0.1,0.1-0.1,0.2c-0.1,0.1-0.1,0.1-0.2,0.1c-0.1,0-0.1,0-0.2,0h-2.2c-0.1,0-0.2,0-0.2,0
		c-0.1,0-0.1-0.1-0.2-0.1c-0.1-0.1-0.1-0.1-0.1-0.2c0-0.1,0-0.1,0-0.2V24.8z"/>
</g>
<g>
	<path fill="#FFFFFF" d="M391.5,24.2h2.9v0.6h-2.3v1.1h2v0.6h-2v1.1h2.3v0.6h-2.9V24.2z"/>
</g>
<g>
	<path fill="#FFFFFF" d="M395.6,28.2v-4h2c0.2,0,0.4,0,0.6,0.1c0.2,0.1,0.3,0.2,0.4,0.3c0.1,0.1,0.2,0.3,0.3,0.4
		c0.1,0.2,0.1,0.4,0.1,0.6v1.2c0,0.2,0,0.4-0.1,0.6c-0.1,0.2-0.2,0.3-0.3,0.4c-0.1,0.1-0.3,0.2-0.4,0.3c-0.2,0.1-0.4,0.1-0.6,0.1
		H395.6z M397.6,27.7c0.3,0,0.5-0.1,0.6-0.2s0.2-0.3,0.2-0.6v-1.2c0-0.1,0-0.2-0.1-0.3c0-0.1-0.1-0.2-0.2-0.3
		c-0.1-0.1-0.2-0.1-0.3-0.2s-0.2-0.1-0.3-0.1h-1.5v2.9H397.6z"/>
</g>
<polygon points="701.2,36.3 593.3,36.3 593.3,15.9 720.4,15.9 "/>
<g>
	<path fill="#FFFFFF" d="M598.4,24.1v3.4h2.1v0.6h-2.6v-4H598.4z"/>
</g>
<g>
	<path fill="#FFFFFF" d="M601.4,24.1h2.9v0.6H602v1.1h2v0.6h-2v1.1h2.3v0.6h-2.9V24.1z"/>
</g>
<g>
	<path fill="#FFFFFF" d="M606.1,28.1h-0.6v-4h0.6l2.4,3.1v-3.1h0.6v4h-0.6l-2.4-3.1V28.1z"/>
</g>
<g>
	<path fill="#FFFFFF" d="M610.9,26.4c-0.1,0-0.2,0-0.2,0c-0.1,0-0.1-0.1-0.2-0.1c-0.1-0.1-0.1-0.1-0.1-0.2c0-0.1,0-0.1,0-0.2v-1.1
		c0-0.1,0-0.2,0-0.2c0-0.1,0.1-0.1,0.1-0.2c0.1-0.1,0.1-0.1,0.2-0.1c0.1,0,0.1,0,0.2,0h1.9c0.1,0,0.2,0,0.2,0c0.1,0,0.1,0.1,0.2,0.1
		c0.1,0.1,0.1,0.1,0.1,0.2c0,0.1,0,0.1,0,0.2v0.5h-0.6v-0.5h-1.9v1.1h1.9c0.1,0,0.2,0,0.2,0c0.1,0,0.1,0.1,0.2,0.1
		c0.1,0.1,0.1,0.1,0.1,0.2c0,0.1,0,0.1,0,0.2v1.1c0,0.1,0,0.2,0,0.2c0,0.1-0.1,0.1-0.1,0.2c-0.1,0.1-0.1,0.1-0.2,0.1
		c-0.1,0-0.1,0-0.2,0h-2c-0.1,0-0.2,0-0.2,0c-0.1,0-0.1-0.1-0.2-0.1c-0.1-0.1-0.1-0.1-0.1-0.2c0-0.1,0-0.1,0-0.2V27h0.6v0.5h2v-1.1
		H610.9z"/>
</g>
<g>
	<path fill="#FFFFFF" d="M618.6,24.1l1.5,4h-0.6l-0.4-0.9h-1.8l-0.4,0.9h-0.6l1.5-4H618.6z M617.6,26.6h1.4l-0.7-1.8L617.6,26.6z"/>
</g>
<g>
	<path fill="#FFFFFF" d="M621.7,24.1v3.4h2.1v0.6h-2.6v-4H621.7z"/>
</g>
<g>
	<path fill="#FFFFFF" d="M625.3,24.1v4h-0.6v-4H625.3z"/>
</g>
<g>
	<path fill="#FFFFFF" d="M626.6,24.7c0-0.1,0-0.2,0-0.2c0-0.1,0.1-0.1,0.1-0.2c0.1-0.1,0.1-0.1,0.2-0.1c0.1,0,0.1,0,0.2,0h2.2
		c0.1,0,0.2,0,0.2,0c0.1,0,0.1,0.1,0.2,0.1c0.1,0.1,0.1,0.1,0.1,0.2c0,0.1,0,0.1,0,0.2v0.5h-0.6v-0.5h-2.2v2.9h2.2v-1h-1.1V26h1.7
		v1.5c0,0.1,0,0.2,0,0.2c0,0.1-0.1,0.1-0.1,0.2c-0.1,0.1-0.1,0.1-0.2,0.1c-0.1,0-0.1,0-0.2,0h-2.2c-0.1,0-0.2,0-0.2,0
		c-0.1,0-0.1-0.1-0.2-0.1c-0.1-0.1-0.1-0.1-0.1-0.2c0-0.1,0-0.1,0-0.2V24.7z"/>
</g>
<g>
	<path fill="#FFFFFF" d="M631.8,28.1h-0.6v-4h0.6l2.4,3.1v-3.1h0.6v4h-0.6l-2.4-3.1V28.1z"/>
</g>
<g>
	<path fill="#FFFFFF" d="M638.2,28.1l-1.5-2.9v2.9h-0.6v-4h0.6l1.5,3l1.5-3h0.6v4h-0.6v-2.9l-1.5,2.9H638.2z"/>
</g>
<g>
	<path fill="#FFFFFF" d="M641.7,24.1h2.9v0.6h-2.3v1.1h2v0.6h-2v1.1h2.3v0.6h-2.9V24.1z"/>
</g>
<g>
	<path fill="#FFFFFF" d="M646.4,28.1h-0.6v-4h0.6l2.4,3.1v-3.1h0.6v4h-0.6l-2.4-3.1V28.1z"/>
</g>
<g>
	<path fill="#FFFFFF" d="M650.3,24.1h3.2v0.6h-1.3v3.4h-0.6v-3.4h-1.3V24.1z"/>
</g>
<g>
	<path fill="#FFFFFF" d="M654.5,25.1h0.8V26h-0.8V25.1z M654.5,27.3h0.8v0.8h-0.8V27.3z"/>
</g>
<g>
	<path fill="#FFFFFF" d="M658.6,24.7c0-0.1,0-0.2,0-0.2c0-0.1,0.1-0.1,0.1-0.2c0.1-0.1,0.1-0.1,0.2-0.1c0.1,0,0.1,0,0.2,0h2.2
		c0.1,0,0.2,0,0.2,0c0.1,0,0.1,0.1,0.2,0.1c0.1,0.1,0.1,0.1,0.1,0.2c0,0.1,0,0.1,0,0.2v0.5h-0.6v-0.5h-2.2v2.9h2.2V27h0.6v0.5
		c0,0.1,0,0.2,0,0.2c0,0.1-0.1,0.1-0.1,0.2c-0.1,0.1-0.1,0.1-0.2,0.1c-0.1,0-0.1,0-0.2,0h-2.2c-0.1,0-0.2,0-0.2,0
		c-0.1,0-0.1-0.1-0.2-0.1c-0.1-0.1-0.1-0.1-0.1-0.2c0-0.1,0-0.1,0-0.2V24.7z"/>
</g>
<g>
	<path fill="#FFFFFF" d="M664.9,24.1l1.5,4h-0.6l-0.4-0.9h-1.8l-0.4,0.9h-0.6l1.5-4H664.9z M663.9,26.6h1.4l-0.7-1.8L663.9,26.6z"/>
</g>
<g>
	<path fill="#FFFFFF" d="M668,24.1v3.4h2.1v0.6h-2.6v-4H668z"/>
</g>
<g>
	<path fill="#FFFFFF" d="M671.6,24.1v4H671v-4H671.6z"/>
</g>
<g>
	<path fill="#FFFFFF" d="M675.5,26c0.1,0,0.2,0.1,0.2,0.1s0.1,0.1,0.2,0.2c0,0.1,0.1,0.2,0.1,0.3c0,0.1,0,0.2,0,0.4v0.2
		c0,0.6-0.3,1-1,1h-2.2v-4h2.1c0.6,0,1,0.3,1,1v0.1c0,0.2,0,0.4-0.1,0.6C675.8,25.9,675.6,26,675.5,26z M673.4,24.7v1.1h1.5
		c0.1,0,0.2,0,0.3-0.1c0.1-0.1,0.1-0.2,0.1-0.3v-0.3c0-0.2,0-0.3-0.1-0.3c-0.1-0.1-0.2-0.1-0.3-0.1H673.4z M673.4,26.4v1.2h1.6
		c0.2,0,0.3,0,0.3-0.1c0.1-0.1,0.1-0.2,0.1-0.3v-0.3c0-0.2,0-0.3-0.1-0.3c-0.1-0.1-0.2-0.1-0.3-0.1H673.4z"/>
</g>
<g>
	<path fill="#FFFFFF" d="M680.4,25.5c0,0.6-0.2,0.9-0.7,1l0.8,1.6h-0.6l-0.7-1.6h-1.3v1.6h-0.6v-4h2.2c0.6,0,1,0.3,1,1V25.5z
		 M677.8,25.9h1.6c0.2,0,0.3,0,0.3-0.1c0.1-0.1,0.1-0.2,0.1-0.3v-0.4c0-0.2,0-0.3-0.1-0.3c-0.1-0.1-0.2-0.1-0.3-0.1h-1.6V25.9z"/>
</g>
<g>
	<path fill="#FFFFFF" d="M683.4,24.1l1.5,4h-0.6l-0.4-0.9h-1.8l-0.4,0.9h-0.6l1.5-4H683.4z M682.4,26.6h1.4l-0.7-1.8L682.4,26.6z"/>
</g>
<g>
	<path fill="#FFFFFF" d="M685.1,24.1h3.2v0.6H687v3.4h-0.6v-3.4h-1.3V24.1z"/>
</g>
<g>
	<path fill="#FFFFFF" d="M689.3,24.1h2.9v0.6h-2.3v1.1h2v0.6h-2v1.1h2.3v0.6h-2.9V24.1z"/>
</g>
<g>
	<path fill="#FFFFFF" d="M693.4,28.1v-4h2c0.2,0,0.4,0,0.6,0.1s0.3,0.2,0.4,0.3c0.1,0.1,0.2,0.3,0.3,0.4c0.1,0.2,0.1,0.4,0.1,0.6
		v1.2c0,0.2,0,0.4-0.1,0.6c-0.1,0.2-0.2,0.3-0.3,0.4c-0.1,0.1-0.3,0.2-0.4,0.3c-0.2,0.1-0.4,0.1-0.6,0.1H693.4z M695.4,27.5
		c0.3,0,0.5-0.1,0.6-0.2s0.2-0.3,0.2-0.6v-1.2c0-0.1,0-0.2-0.1-0.3s-0.1-0.2-0.2-0.3c-0.1-0.1-0.2-0.1-0.3-0.2s-0.2-0.1-0.3-0.1
		h-1.5v2.9H695.4z"/>
</g>
<rect x="506.1" y="15.9" width="69.3" height="20.4"/>
<g>
	<path fill="#FFFFFF" d="M512.4,28.1l-1.1-4h0.6l0.9,3.2l0.9-3.2h0.6l0.9,3.2l0.9-3.2h0.6l-1.1,4h-0.6l-0.9-3l-0.9,3H512.4z"/>
</g>
<g>
	<path fill="#FFFFFF" d="M518.1,24.1v4h-0.6v-4H518.1z"/>
</g>
<g>
	<path fill="#FFFFFF" d="M520,28.1h-0.6v-4h0.6l2.4,3.1v-3.1h0.6v4h-0.6L520,25V28.1z"/>
</g>
<g>
	<path fill="#FFFFFF" d="M524.3,28.1v-4h2c0.2,0,0.4,0,0.6,0.1s0.3,0.2,0.4,0.3c0.1,0.1,0.2,0.3,0.3,0.4c0.1,0.2,0.1,0.4,0.1,0.6
		v1.2c0,0.2,0,0.4-0.1,0.6c-0.1,0.2-0.2,0.3-0.3,0.4c-0.1,0.1-0.3,0.2-0.4,0.3c-0.2,0.1-0.4,0.1-0.6,0.1H524.3z M526.3,27.6
		c0.3,0,0.5-0.1,0.6-0.2s0.2-0.3,0.2-0.6v-1.2c0-0.1,0-0.2-0.1-0.3s-0.1-0.2-0.2-0.3c-0.1-0.1-0.2-0.1-0.3-0.2s-0.2-0.1-0.3-0.1
		h-1.5v2.9H526.3z"/>
</g>
<g>
	<path fill="#FFFFFF" d="M530.9,24.7c0-0.1,0-0.2,0-0.2c0-0.1,0.1-0.1,0.1-0.2c0.1-0.1,0.1-0.1,0.2-0.1c0.1,0,0.1,0,0.2,0h2.2
		c0.1,0,0.2,0,0.2,0c0.1,0,0.1,0.1,0.2,0.1c0.1,0.1,0.1,0.1,0.1,0.2c0,0.1,0,0.1,0,0.2v0.5h-0.6v-0.5h-2.2v2.9h2.2V27h0.6v0.5
		c0,0.1,0,0.2,0,0.2c0,0.1-0.1,0.1-0.1,0.2c-0.1,0.1-0.1,0.1-0.2,0.1c-0.1,0-0.1,0-0.2,0h-2.2c-0.1,0-0.2,0-0.2,0
		c-0.1,0-0.1-0.1-0.2-0.1c-0.1-0.1-0.1-0.1-0.1-0.2c0-0.1,0-0.1,0-0.2V24.7z"/>
</g>
<g>
	<path fill="#FFFFFF" d="M537.2,24.1l1.5,4h-0.6l-0.4-0.9H536l-0.4,0.9h-0.6l1.5-4H537.2z M536.3,26.6h1.4l-0.7-1.8L536.3,26.6z"/>
</g>
<g>
	<path fill="#FFFFFF" d="M540.3,24.1v3.4h2.1v0.6h-2.6v-4H540.3z"/>
</g>
<g>
	<path fill="#FFFFFF" d="M543.9,24.1v4h-0.6v-4H543.9z"/>
</g>
<g>
	<path fill="#FFFFFF" d="M547.9,26c0.1,0,0.2,0.1,0.2,0.1c0.1,0,0.1,0.1,0.2,0.2c0,0.1,0.1,0.2,0.1,0.3c0,0.1,0,0.2,0,0.4v0.2
		c0,0.6-0.3,1-1,1h-2.2v-4h2.1c0.6,0,1,0.3,1,1v0.1c0,0.2,0,0.4-0.1,0.6C548.1,25.9,548,26,547.9,26z M545.8,24.7v1.1h1.5
		c0.1,0,0.2,0,0.3-0.1c0.1-0.1,0.1-0.2,0.1-0.3v-0.3c0-0.2,0-0.3-0.1-0.3c-0.1-0.1-0.2-0.1-0.3-0.1H545.8z M545.8,26.4v1.2h1.6
		c0.2,0,0.3,0,0.3-0.1c0.1-0.1,0.1-0.2,0.1-0.3v-0.3c0-0.2,0-0.3-0.1-0.3c-0.1-0.1-0.2-0.1-0.3-0.1H545.8z"/>
</g>
<g>
	<path fill="#FFFFFF" d="M549.5,25.2h0.8V26h-0.8V25.2z M549.5,27.3h0.8v0.8h-0.8V27.3z"/>
</g>
<g>
	<path fill="#FFFFFF" d="M555.4,24.1l1.5,4h-0.6l-0.4-0.9h-1.8l-0.4,0.9h-0.6l1.5-4H555.4z M554.4,26.6h1.4l-0.7-1.8L554.4,26.6z"/>
</g>
<g>
	<path fill="#FFFFFF" d="M557.9,24.1h0.6v3.4h2.3v-3.4h0.6v3.4c0,0.1,0,0.2,0,0.2c0,0.1-0.1,0.1-0.1,0.2c-0.1,0.1-0.1,0.1-0.2,0.1
		c-0.1,0-0.1,0-0.2,0h-2.3c-0.1,0-0.2,0-0.2,0c-0.1,0-0.1-0.1-0.2-0.1c-0.1-0.1-0.1-0.1-0.1-0.2c0-0.1,0-0.1,0-0.2V24.1z"/>
</g>
<g>
	<path fill="#FFFFFF" d="M562.3,24.1h3.2v0.6h-1.3v3.4h-0.6v-3.4h-1.3V24.1z"/>
</g>
<g>
	<path fill="#FFFFFF" d="M569.9,27.6c0,0.1,0,0.2,0,0.2c0,0.1-0.1,0.1-0.1,0.2c-0.1,0.1-0.1,0.1-0.2,0.1c-0.1,0-0.1,0-0.2,0h-2.3
		c-0.1,0-0.2,0-0.2,0c-0.1,0-0.1-0.1-0.2-0.1c-0.1-0.1-0.1-0.1-0.1-0.2c0-0.1,0-0.1,0-0.2v-2.9c0-0.1,0-0.2,0-0.2
		c0-0.1,0.1-0.1,0.1-0.2c0.1-0.1,0.1-0.1,0.2-0.1c0.1,0,0.1,0,0.2,0h2.3c0.1,0,0.2,0,0.2,0c0.1,0,0.1,0.1,0.2,0.1
		c0.1,0.1,0.1,0.1,0.1,0.2c0,0.1,0,0.1,0,0.2V27.6z M567.1,24.7v2.9h2.3v-2.9H567.1z"/>
</g>
<path id="_x3C_Path_x3E_opacity:20_00000112603154144220585230000000296731777120881810_" fill="#FA1105" d="M737.1,12.3L704.4,45
	c-1.1,1.1-2.5,1.7-4,1.7H646V46h51.6c1.4,0,2.8-0.6,3.8-1.6l33.8-33.8c2.2-2.6,1.9-4.8,1.6-5.7L732,0h1l4.2,4.2
	C739.3,6.4,739.3,10,737.1,12.3z"/>
<path id="_x3C_Path_x3E_opacity:20_00000079481562961691454330000016109709363087450753_" fill="#FA1105" d="M285.3,12.3L318,45
	c1.1,1.1,2.5,1.7,4,1.7h54.4V46h-51.6c-1.4,0-2.8-0.6-3.8-1.6l-33.8-33.8c-2.2-2.6-1.9-4.8-1.6-5.7l4.9-4.9h-1l-4.2,4.2
	C283.1,6.4,283.1,10,285.3,12.3z"/>
<g id="Outer_x5F_Frame_x5F_Greeble">
</g>
</svg>
