<?xml version="1.0" encoding="utf-8"?>
<!-- Generator: Adobe Illustrator 29.6.1, SVG Export Plug-In . SVG Version: 9.03 Build 0)  -->
<svg version="1.1" baseProfile="tiny" id="Layer_1" xmlns="http://www.w3.org/2000/svg" xmlns:xlink="http://www.w3.org/1999/xlink"
	 x="0px" y="0px" viewBox="0 0 1024 1024" overflow="visible" xml:space="preserve">
<g id="Venetian_x5F_Blinds_x5F_Effect">
</g>
<g id="Vignette">
</g>
<path id="_x3C_Compound_Path_x3E_opacity:50_00000137853279689174054100000018203243685564310933_" fill="#FA1105" d="M858.2,962.8
	h-84.1c-12.1,0-23.4-4.7-31.9-13.2l-23.7-23.7c-8.1-8.1-18.9-12.6-30.4-12.6H335.6c-11.4,0-22.5,4.6-30.5,12.7l-23.4,23.5
	c-8.4,8.5-20.1,13.3-32,13.3h-83.9c-12.1,0-23.4-4.7-31.9-13.2L80,895.7c-8.5-8.5-13.2-19.9-13.2-31.9V160.2
	c0-12.1,4.7-23.4,13.2-31.9l53.9-53.9c8.5-8.5,19.9-13.2,31.9-13.2H293c6.7,0,13.1,2.9,17.4,8c4,4.6,9.7,7.2,15.8,7.2h357.4
	c6.1,0,11.8-2.6,15.8-7.2c4.4-5.1,10.7-8,17.4-8h141.4c12.1,0,23.4,4.7,31.9,13.2l53.9,53.9c8.5,8.5,13.2,19.9,13.2,31.9v703.6
	c0,12.1-4.7,23.4-13.2,31.9l-53.9,53.9C881.6,958.1,870.3,962.8,858.2,962.8z M335.6,911.1h352.5c12.1,0,23.4,4.7,31.9,13.2
	l23.7,23.7c8.1,8.1,18.9,12.6,30.4,12.6h84.1c11.5,0,22.3-4.5,30.4-12.6l53.9-53.9c8.1-8.1,12.6-18.9,12.6-30.4V160.2
	c0-11.5-4.5-22.3-12.6-30.4L888.6,76c-8.1-8.1-18.9-12.6-30.4-12.6H716.8c-6.1,0-11.8,2.6-15.8,7.2c-4.4,5.1-10.8,8-17.4,8H326.2
	c-6.7,0-13.1-2.9-17.4-8c-4-4.6-9.7-7.2-15.8-7.2H165.8c-11.5,0-22.3,4.5-30.4,12.6l-53.9,53.9c-8.1,8.1-12.6,18.9-12.6,30.4v703.6
	c0,11.5,4.5,22.3,12.6,30.4l53.9,53.9c8.1,8.1,18.9,12.6,30.4,12.6h83.9c11.4,0,22.5-4.6,30.5-12.7l23.4-23.5
	C312,916,323.6,911.1,335.6,911.1z"/>
<g id="Center_x5F_Target_x5F_Greeble">
</g>
<g id="Top_x5F_Header_x5F_Greeble">
</g>
<g id="Outer_x5F_Frame_x5F_Greeble">
</g>
</svg>
