<?xml version="1.0" encoding="utf-8"?>
<!-- Generator: Adobe Illustrator 25.0.0, SVG Export Plug-In . SVG Version: 6.00 Build 0)  -->
<svg version="1.1" baseProfile="tiny" id="Layer_1" xmlns="http://www.w3.org/2000/svg" xmlns:xlink="http://www.w3.org/1999/xlink"
	 x="0px" y="0px" width="76px" height="7px" viewBox="0 0 76 7" overflow="visible" xml:space="preserve">
<path d="M2.9,2H21l1,2.7H3.9L2.9,2 M0,0l2.4,6.7h22.4L22.4,0L0,0L0,0z"/>
<path d="M28.4,2h18.1l1,2.7H29.4L28.4,2 M25.5,0l2.4,6.7h22.4L47.9,0L25.5,0L25.5,0z"/>
<path d="M53.9,2H72l1,2.7H54.9L53.9,2 M51,0l2.4,6.7h22.4L73.4,0L51,0L51,0z"/>
</svg>
