<?xml version="1.0" encoding="utf-8"?>
<!-- Generator: Adobe Illustrator 25.0.0, SVG Export Plug-In . SVG Version: 6.00 Build 0)  -->
<svg version="1.1" baseProfile="tiny" id="Layer_6" xmlns="http://www.w3.org/2000/svg" xmlns:xlink="http://www.w3.org/1999/xlink"
	 x="0px" y="0px" width="220px" height="270px" viewBox="0 0 220 270" overflow="visible" xml:space="preserve">
<path d="M92.736,63.792c0-0.6,0.5-1,1-1l0,0c0.5,0,1,0.5,1,1l0,0c0,0.6-0.5,1-1,1l0,0C93.236,64.792,92.736,64.392,92.736,63.792z"
	/>
<path d="M88.736,63.792c0-0.6,0.5-1,1-1l0,0c0.6,0,1,0.5,1,1l0,0c0,0.6-0.5,1-1,1l0,0C89.236,64.792,88.736,64.392,88.736,63.792z"
	/>
<path d="M84.736,63.792c0-0.6,0.5-1,1-1l0,0c0.5,0,1,0.5,1,1l0,0c0,0.6-0.5,1-1,1l0,0C85.236,64.792,84.736,64.392,84.736,63.792z"
	/>
<path d="M80.736,63.792c0-0.6,0.5-1,1-1l0,0c0.5,0,1,0.5,1,1l0,0c0,0.6-0.5,1-1,1l0,0C81.236,64.792,80.736,64.392,80.736,63.792z"
	/>
<path d="M76.736,63.792c0-0.6,0.5-1,1-1l0,0c0.6,0,1,0.5,1,1l0,0c0,0.6-0.5,1-1,1l0,0C77.236,64.792,76.736,64.392,76.736,63.792z"
	/>
<path d="M72.736,63.792c0-0.6,0.5-1,1-1l0,0c0.5,0,1,0.5,1,1l0,0c0,0.6-0.5,1-1,1l0,0C73.236,64.792,72.736,64.392,72.736,63.792z"
	/>
<path d="M72.536,121.092c0-0.6,0.5-1,1-1l0,0c0.5,0,1,0.5,1,1l0,0c0,0.6-0.5,1-1,1l0,0
	C73.036,122.092,72.536,121.692,72.536,121.092z"/>
<path d="M68.536,121.092c0-0.6,0.5-1,1-1l0,0c0.6,0,1,0.5,1,1l0,0c0,0.6-0.5,1-1,1l0,0
	C69.036,122.092,68.536,121.692,68.536,121.092z"/>
<path d="M64.536,121.092c0-0.6,0.5-1,1-1l0,0c0.5,0,1,0.5,1,1l0,0c0,0.6-0.5,1-1,1l0,0
	C65.036,122.092,64.536,121.692,64.536,121.092z"/>
<path d="M60.536,121.092c0-0.6,0.5-1,1-1l0,0c0.5,0,1,0.5,1,1l0,0c0,0.6-0.5,1-1,1l0,0
	C61.036,122.092,60.536,121.692,60.536,121.092z"/>
<path d="M56.536,121.092c0-0.6,0.5-1,1-1l0,0c0.6,0,1,0.5,1,1l0,0c0,0.6-0.5,1-1,1l0,0
	C57.036,122.092,56.536,121.692,56.536,121.092z"/>
<path d="M52.536,121.092c0-0.6,0.5-1,1-1l0,0c0.5,0,1,0.5,1,1l0,0c0,0.6-0.5,1-1,1l0,0
	C53.036,122.092,52.536,121.692,52.536,121.092z"/>
<path d="M52.336,178.391c0-0.6,0.5-1,1-1l0,0c0.5,0,1,0.5,1,1l0,0c0,0.6-0.5,1-1,1l0,0
	C52.836,179.391,52.336,178.992,52.336,178.391z"/>
<path d="M48.336,178.391c0-0.6,0.5-1,1-1l0,0c0.6,0,1,0.5,1,1l0,0c0,0.6-0.5,1-1,1l0,0
	C48.836,179.391,48.336,178.992,48.336,178.391z"/>
<path d="M44.336,178.391c0-0.6,0.5-1,1-1l0,0c0.5,0,1,0.5,1,1l0,0c0,0.6-0.5,1-1,1l0,0
	C44.836,179.391,44.336,178.992,44.336,178.391z"/>
<path d="M40.336,178.391c0-0.6,0.5-1,1-1l0,0c0.5,0,1,0.5,1,1l0,0c0,0.6-0.5,1-1,1l0,0
	C40.836,179.391,40.336,178.992,40.336,178.391z"/>
<path d="M36.336,178.391c0-0.6,0.5-1,1-1l0,0c0.6,0,1,0.5,1,1l0,0c0,0.6-0.5,1-1,1l0,0
	C36.836,179.391,36.336,178.992,36.336,178.391z"/>
<path d="M32.336,178.391c0-0.6,0.5-1,1-1l0,0c0.5,0,1,0.5,1,1l0,0c0,0.6-0.5,1-1,1l0,0
	C32.836,179.391,32.336,178.992,32.336,178.391z"/>
</svg>
