<?xml version="1.0" encoding="utf-8"?>
<!-- Generator: Adobe Illustrator 26.0.1, SVG Export Plug-In . SVG Version: 6.00 Build 0)  -->
<svg version="1.1" baseProfile="tiny" id="Layer_1" xmlns="http://www.w3.org/2000/svg" xmlns:xlink="http://www.w3.org/1999/xlink"
	 x="0px" y="0px" viewBox="0 0 1920 1080" overflow="visible" xml:space="preserve">
<g>
	<g>
		<path fill="#FFF1C9" d="M1141.5,546.3c-3.5,0-6.3-2.8-6.3-6.3c0-3.5,2.8-6.3,6.3-6.3h3.9c0.6,0,1.6-0.3,2.7-1.4
			c-0.8-20.2-4.8-39.6-11.5-57.6c0,0,0,0,0,0c-1.5-0.7-2.6-0.5-3.1-0.3l-3.6,1.5c-3.2,1.3-6.9-0.2-8.3-3.4c-1.3-3.2,0.2-6.9,3.4-8.3
			l3.6-1.5c0.5-0.3,1.4-0.9,2-2.4l0,0c-8.2-17.5-19-33.6-32-47.6c-1.6,0-2.5,0.5-3,0.9l-2.8,2.8c-2.5,2.5-6.5,2.5-8.9,0
			c-2.5-2.5-2.5-6.5,0-9l2.8-2.8c0.4-0.5,0.9-1.3,0.9-3c-14.4-13.3-30.9-24.3-49-32.6c-1.5,0.6-2.2,1.5-2.4,2l-1.5,3.6
			c-1.3,3.2-5,4.8-8.3,3.5c-3.2-1.3-4.8-5-3.5-8.3l1.5-3.6c0.2-0.6,0.4-1.6-0.3-3.1c0,0,0,0,0,0c-17.7-6.4-36.6-10.2-56.3-11
			c-1.2,1.1-1.4,2.1-1.4,2.7v3.9c0,3.5-2.8,6.3-6.3,6.3c-3.5,0-6.3-2.8-6.3-6.3v-3.9c0-0.6-0.3-1.6-1.4-2.7
			c-20.2,0.8-39.6,4.8-57.6,11.5c0,0,0,0,0,0c-0.7,1.5-0.5,2.6-0.3,3.1l1.5,3.6c1.3,3.2-0.2,6.9-3.4,8.3c-3.2,1.4-6.9-0.2-8.3-3.4
			l-1.5-3.6c-0.3-0.5-0.9-1.4-2.4-2l0,0c-17.5,8.2-33.6,19-47.6,32c0,1.6,0.5,2.5,0.9,3l2.8,2.8c2.5,2.5,2.5,6.5,0,9
			c-2.5,2.5-6.5,2.5-9,0l-2.8-2.8c-0.5-0.4-1.3-0.9-3-0.9c-13.3,14.4-24.3,30.9-32.6,48.9c0.6,1.5,1.4,2.2,2,2.4l3.6,1.5
			c3.2,1.3,4.8,5,3.5,8.3c-1.3,3.2-5,4.8-8.3,3.5l-3.6-1.5c-0.6-0.2-1.6-0.4-3.1,0.3c0,0,0,0-0.1,0c-6.4,17.7-10.2,36.6-11,56.3
			c1.1,1.2,2.1,1.4,2.7,1.4h3.9c3.5,0,6.3,2.8,6.3,6.3c0,3.5-2.8,6.3-6.3,6.3h-3.9c-0.6,0-1.6,0.3-2.7,1.4
			c0.8,20.2,4.8,39.6,11.5,57.6c0,0,0,0,0,0c1.5,0.7,2.5,0.5,3.1,0.3l3.6-1.5c3.2-1.4,6.9,0.2,8.3,3.4c1.4,3.2-0.2,6.9-3.4,8.3
			l-3.6,1.5c-0.5,0.3-1.4,0.9-2,2.4c8.2,17.5,19,33.6,32,47.7c1.6,0,2.5-0.5,3-0.9l2.8-2.8c2.5-2.5,6.5-2.5,9,0c2.5,2.5,2.5,6.5,0,9
			l-2.8,2.8c-0.4,0.4-0.9,1.3-0.9,3c14.4,13.3,30.9,24.3,49,32.6c1.5-0.6,2.1-1.4,2.4-2l1.5-3.6c1.3-3.2,5-4.8,8.3-3.5
			c3.2,1.3,4.8,5,3.4,8.3l-1.5,3.6c-0.2,0.6-0.4,1.6,0.3,3.1c0,0,0,0,0,0c17.7,6.4,36.6,10.2,56.3,11c1.2-1.1,1.4-2.1,1.4-2.7v-3.9
			c0-3.5,2.8-6.3,6.3-6.3c3.5,0,6.3,2.8,6.3,6.3v3.9c0,0.6,0.3,1.6,1.4,2.7c20.2-0.8,39.6-4.8,57.6-11.5c0,0,0,0,0,0
			c0.7-1.5,0.5-2.6,0.3-3.1l-1.5-3.6c-1.3-3.2,0.2-6.9,3.4-8.3c3.2-1.4,6.9,0.2,8.3,3.4l1.5,3.6c0.3,0.5,0.9,1.4,2.4,2
			c17.5-8.2,33.6-19,47.6-32c0-1.6-0.5-2.5-0.9-3l-2.8-2.8c-2.5-2.5-2.5-6.5,0-9c2.5-2.5,6.5-2.5,8.9,0l2.8,2.8
			c0.4,0.4,1.3,0.9,2.9,0.9c13.3-14.4,24.3-30.9,32.6-49c-0.6-1.5-1.5-2.1-2-2.4l-3.6-1.5c-3.2-1.3-4.8-5-3.5-8.3
			c1.3-3.2,5-4.8,8.3-3.5l3.6,1.5c0.6,0.2,1.6,0.4,3.1-0.3c0,0,0,0,0.1,0c6.4-17.7,10.2-36.6,11-56.3c-1.1-1.2-2.1-1.4-2.7-1.4
			H1141.5z M960,710.9c-94.4,0-170.9-76.5-170.9-170.9c0-94.4,76.5-170.9,170.9-170.9c94.4,0,170.9,76.5,170.9,170.9
			C1130.9,634.4,1054.4,710.9,960,710.9z"/>
	</g>
</g>
<path fill="#B79023" d="M960,378.5c-89.2,0-161.5,72.3-161.5,161.5c0,89.2,72.3,161.5,161.5,161.5c89.2,0,161.5-72.3,161.5-161.5
	C1121.5,450.8,1049.2,378.5,960,378.5z M821.4,541.8c40.1-30.6,87.9-46.7,138.6-46.7c50.7,0,98.5,16.1,138.6,46.7
	c-1,75.7-62.6,136.8-138.6,136.8C884,678.6,822.4,617.5,821.4,541.8z M960,401.4c74.9,0,135.9,59.4,138.5,133.7
	c-40.3-29.7-88-45.3-138.5-45.3c-50.5,0-98.2,15.7-138.5,45.3C824.1,460.8,885.1,401.4,960,401.4z"/>
</svg>
