<?xml version="1.0" encoding="utf-8"?>
<!-- Generator: Adobe Illustrator 25.2.1, SVG Export Plug-In . SVG Version: 6.00 Build 0)  -->
<svg version="1.1" baseProfile="tiny" id="Layer_1" xmlns="http://www.w3.org/2000/svg" xmlns:xlink="http://www.w3.org/1999/xlink"
	 x="0px" y="0px" viewBox="0 0 595.5 296" overflow="visible" xml:space="preserve">
<path fill="none" stroke="#6DB8C7" stroke-miterlimit="10" d="M38.7,143.8C38.2,97.5,26.8,53.2,6.1,12.6c-0.2-0.4-0.6-0.7-1.1-0.7
	h-5.2"/>
<path fill="none" stroke="#6DB8C7" stroke-miterlimit="10" d="M38.7,151.8c-1.3,47.7-9.8,86.8-32.4,131.3c-0.2,0.4-0.6,0.7-1.1,0.7
	H0"/>
<path fill="none" stroke="#6DB8C7" stroke-miterlimit="10" d="M586.8,67.8c2.4,23.7,3.7,47.7,3.9,72c0,2.2,1.8,4,4.1,4"/>
<circle fill="#6DB8C7" cx="43.8" cy="283.9" r="0.8"/>
<circle fill="#6DB8C7" cx="43.8" cy="291.9" r="0.8"/>
<circle fill="#6DB8C7" cx="59.8" cy="139.9" r="0.8"/>
<circle fill="#6DB8C7" cx="59.8" cy="155.9" r="0.8"/>
<circle fill="#6DB8C7" cx="43.8" cy="3.9" r="0.8"/>
<circle fill="#6DB8C7" cx="43.8" cy="11.9" r="0.8"/>
<circle fill="#6DB8C7" cx="470.8" cy="7.8" r="0.8"/>
<circle fill="#6DB8C7" cx="498.8" cy="7.8" r="0.8"/>
<circle fill="#6DB8C7" cx="542.8" cy="19.8" r="0.8"/>
<circle fill="#6DB8C7" cx="550.8" cy="19.8" r="0.8"/>
<circle fill="#6DB8C7" cx="572.8" cy="123.8" r="0.8"/>
<circle fill="#6DB8C7" cx="526.8" cy="147.8" r="0.8"/>
<circle fill="#6DB8C7" cx="470.8" cy="147.8" r="0.8"/>
<circle fill="#6DB8C7" cx="572.8" cy="171.8" r="0.8"/>
<circle fill="#6DB8C7" cx="542.8" cy="275.8" r="0.8"/>
<circle fill="#6DB8C7" cx="550.8" cy="275.8" r="0.8"/>
<circle fill="#6DB8C7" cx="498.8" cy="287.8" r="0.8"/>
<circle fill="#6DB8C7" cx="470.8" cy="287.8" r="0.8"/>
</svg>
