<?xml version="1.0" encoding="utf-8"?>
<!-- Generator: Adobe Illustrator 28.7.5, SVG Export Plug-In . SVG Version: 9.03 Build 55973)  -->
<svg version="1.1" baseProfile="tiny" id="Layer_2" xmlns="http://www.w3.org/2000/svg" xmlns:xlink="http://www.w3.org/1999/xlink"
	 x="0px" y="0px" viewBox="0 0 296 695.8" overflow="visible" xml:space="preserve">
<path fill="#EE408C" d="M155.9,119.2c1.7-2.6,4.6-4.1,7.7-4.1h1.6c-3.1,0-6,1.6-7.7,4.1L69.4,340.5c-2.9,4.4-3.7,9.8-2.1,14.8
	l91.3,209.3c2,6.6,8,11,14.8,11h-1.6c-6.9,0-12.8-4.4-14.8-11L65.7,355.2c-0.3-0.9-0.5-1.8-0.6-2.7c-0.3-1.9-0.2-3.7,0.1-5.6
	c0.4-2.3,1.3-4.5,2.6-6.5L155.9,119.2z"/>
</svg>
