<?xml version="1.0" encoding="utf-8"?>
<!-- Generator: Adobe Illustrator 28.7.5, SVG Export Plug-In . SVG Version: 9.03 Build 55973)  -->
<svg version="1.1" baseProfile="tiny" id="Layer_1" xmlns="http://www.w3.org/2000/svg" xmlns:xlink="http://www.w3.org/1999/xlink"
	 x="0px" y="0px" viewBox="0 0 21.7 205.4" overflow="visible" xml:space="preserve">
<line display="none" fill="none" stroke="#90D6E6" stroke-linecap="round" stroke-miterlimit="10" x1="21.2" y1="0.5" x2="9.6" y2="0.5"/>
<line display="none" fill="none" stroke="#91D6E6" stroke-linecap="round" stroke-miterlimit="10" x1="21.2" y1="204.9" x2="9.6" y2="204.9"/>
<polyline display="none" fill="none" stroke="#90D6E6" stroke-miterlimit="10" points="2.9,106.1 6.3,102.7 2.9,99.3 "/>
<path display="none" fill="none" stroke="#00A1DD" stroke-miterlimit="10" d="M2.9,99.3c-1.5-1.5-2.4-3.6-2.4-5.8V6.3
	c0-3.2,2.6-5.8,5.8-5.8"/>
<path display="none" fill="none" stroke="#00A1DD" stroke-miterlimit="10" d="M6.3,204.9c-3.2,0-5.8-2.6-5.8-5.8v-87.2
	c0-2.2,0.9-4.2,2.4-5.8"/>
<line fill="none" stroke="#90D6E6" stroke-linecap="round" stroke-miterlimit="10" x1="0.5" y1="0.5" x2="12.2" y2="0.5"/>
<path fill="none" stroke="#00A1DD" stroke-miterlimit="10" d="M15.4,0.5c3.2,0,5.8,2.6,5.8,5.8v192.8c0,3.2-2.6,5.8-5.8,5.8"/>
<line fill="none" stroke="#EF4145" stroke-linecap="round" stroke-miterlimit="10" x1="0.5" y1="204.9" x2="12.2" y2="204.9"/>
</svg>
