<?xml version="1.0" encoding="utf-8"?>
<!-- Generator: Adobe Illustrator 26.5.2, SVG Export Plug-In . SVG Version: 6.00 Build 0)  -->
<svg version="1.1" baseProfile="tiny" id="Layer_1" xmlns="http://www.w3.org/2000/svg" xmlns:xlink="http://www.w3.org/1999/xlink"
	 x="0px" y="0px" viewBox="0 0 297.7 105.3" overflow="visible" xml:space="preserve">
<path fill="#26409A" d="M91.9,24.8v55.8c0,1.7,1.1,3.3,2.6,4l45.6,20.2c0.5,0.2,1.9,0.8,3.6,0l46.1-20.4c1.5-0.7,2.6-2.3,2.6-4.1
	V24.6c0-2.7-2-3.8-2.6-4.1L144.1,0.4c-1.1-0.5-2.4-0.5-3.6,0l-46,20.4C92.6,21.8,91.9,23.6,91.9,24.8L91.9,24.8z M140.8,97.7
	l-39.1-17.3c-1.3-0.6-2.3-2-2.3-3.4V29.1c0-1.3,0.6-2.6,2.3-3.5l39.4-17.5c1-0.4,2.1-0.4,3.1,0l39.2,17.3c0.4,0.2,2.2,1.2,2.2,3.5
	v47.8c0,1.5-0.9,2.9-2.2,3.5l-39.5,17.5C142.2,98.5,141.1,97.9,140.8,97.7L140.8,97.7z"/>
<path fill="#26409A" d="M172.4,29c-9.5-4.2-27.8-12.2-30-13.2c-1,0.4-4.7,2.2-9.8,4.4c-1.4,0.6-3,1.3-4.5,2
	c-1.9,0.9-3.9,1.7-5.9,2.6c-3.5,1.6-6.9,3.1-9.6,4.2c3.1,1.4,7,3.1,11,4.9c6.7,3,13.5,6,16.9,7.5l1.9,0.8l4.7-2.1
	C153.7,37.2,165.4,32.1,172.4,29L172.4,29z"/>
<path fill="#26409A" d="M169.8,38.4v25.4l-2.8-3l-14-15l0,0c-2.7,1.2-5,2.2-6.2,2.8c-0.2,0.1-0.5,0.2-0.6,0.3v39.5c0,0,0,0,0,0
	c1.9-0.8,4.6-2.1,7.7-3.4V58.3l16.9,19.2h0c3.4-1.5,6.1-2.7,7.1-3.2V34.8L169.8,38.4L169.8,38.4L169.8,38.4z"/>
<path fill="#4FA0CA" d="M137.5,48.4c-1.5-0.6-3.8-1.7-6.6-2.9v22.8L120.6,49l-5.6-10.6c-3.1-1.4-6-2.6-7.9-3.5v39.5
	c1.1,0.5,4,1.8,7.7,3.4V54.7l0,0L130.9,85c3.1,1.4,5.8,2.6,7.7,3.4V48.9L137.5,48.4L137.5,48.4z"/>
<path fill="#FFFFFF" d="M19.6,46.3l1.1,9.2L20,55.6l-3.6-8.9l-5.5-11.1c-0.4-0.9-1.2-1.5-3-1.5H3c-1.9,0-3,0.8-3,2.1v32.9
	c0,1.3,1.1,2.1,3,2.1h4.1c1.9,0,3-0.8,3-2.1V58.9L9,49.8l0.7-0.1l3.6,8.9l5.5,11.1c0.4,0.9,1.2,1.5,3,1.5h4.9c1.9,0,3-0.8,3-2.1
	V36.2c0-1.3-1.1-2.1-3-2.1h-4.1c-1.9,0-3,0.8-3,2.1V46.3L19.6,46.3z M46.4,36.2c0-1.3-1.1-2.1-3-2.1h-4.8c-1.9,0-3,0.8-3,2.1v32.9
	c0,1.3,1.1,2.1,3,2.1h4.8c1.9,0,3-0.8,3-2.1V36.2L46.4,36.2z M63.1,36.2c0-1.3-1.1-2.1-3-2.1h-4.8c-1.9,0-3,0.8-3,2.1v32.9
	c0,1.3,1.1,2.1,3,2.1h4.8c1.9,0,3-0.8,3-2.1V55.6h0.7L72.3,70c0.4,0.8,1.5,1.2,2.8,1.2h5c3.1,0,3.3-2.1,2.8-3l-9.4-15.6L82.8,37
	c0.5-0.9,0.4-3-2.8-3h-5c-1.3,0-2.3,0.4-2.8,1.2l-8.4,14.4h-0.7V36.2L63.1,36.2z"/>
<path fill="#FFFFFF" d="M221,46.3l1.1,9.2l-0.7,0.1l-3.6-8.9l-5.5-11.1c-0.4-0.9-1.2-1.5-3-1.5h-4.9c-1.9,0-3,0.8-3,2.1v32.9
	c0,1.3,1.1,2.1,3,2.1h4.1c1.9,0,3-0.8,3-2.1V58.9l-1.1-9.2l0.7-0.1l3.6,8.9l5.5,11.1c0.4,0.9,1.2,1.5,3,1.5h4.9c1.9,0,3-0.8,3-2.1
	V36.2c0-1.3-1.1-2.1-3-2.1H224c-1.9,0-3,0.8-3,2.1V46.3L221,46.3z M258.7,71.2h4.4c2.2,0,3.3-1.1,2.9-2.6l-7-32.5
	c-0.3-1.5-1.4-2-3.1-2h-11c-1.7,0-2.8,0.5-3.1,2l-7,32.5c-0.4,1.5,0.7,2.6,2.9,2.6h4.4c1.4,0,2.8-0.4,3-1.8l0.9-5.1h8.8l0.9,5.1
	C255.9,70.8,257.3,71.2,258.7,71.2L258.7,71.2z M248,52.6l2.1-13.7h0.7l2.1,13.7l1,5.8H247L248,52.6L248,52.6z M297.4,37.1
	c0.6-1.1,0.2-3-2.8-3h-4.3c-1.5,0-2.5,0.5-2.9,1.4l-2.3,5l-2.1,7h-0.7l-2.1-7l-2.3-5c-0.4-0.9-1.4-1.4-2.9-1.4h-4.3
	c-3,0-3.4,1.9-2.8,3l7.7,15.5l-7.7,15.5c-0.6,1.1-0.2,3,2.8,3h4.3c1.5,0,2.5-0.5,2.9-1.4l2.3-5l2.1-7h0.7l2.1,7l2.3,5
	c0.4,0.9,1.4,1.4,2.9,1.4h4.3c3,0,3.4-1.9,2.8-3l-7.7-15.5L297.4,37.1L297.4,37.1z"/>
<path fill="none" stroke="#000000" stroke-width="0.4608" d="M183.2,26.3"/>
</svg>
