<?xml version="1.0" encoding="utf-8"?>
<!-- Generator: Adobe Illustrator 29.2.0, SVG Export Plug-In . SVG Version: 9.03 Build 55982)  -->
<svg version="1.1" baseProfile="tiny" id="Layer_1" xmlns="http://www.w3.org/2000/svg" xmlns:xlink="http://www.w3.org/1999/xlink"
	 x="0px" y="0px" viewBox="0 0 396 51.8" overflow="visible" xml:space="preserve">
<g>
	<g>
		<path fill="#FF3366" d="M108.2,31l3.1-2.2c2.1-1.4,5.2-1.6,6.3,1.2c1.6,4-2.4,8.2-3.9,11.6c-2.4,5.4,1.8,3.1,3.9,0.8
			c3.9-4.2,5.9-9.9,10.9-12.9c3-1.8,8.7-3.4,10.5,0.6c0.1,0.2-0.1,0.3,0.3,0.2c1-0.6,1.4-2.4,2.6-2c0,0.2-0.1,0.4-0.1,0.7
			c-1.1,3.1-3.7,6.3-4.8,9.7c-0.6,1.6-1.9,5,1.1,4.3c2.4-0.5,5.2-5.3,6.6-7.3l0.9,0.3c0.2,0.3-0.8,1.8-1,2.2c-1.7,2.7-5.4,7.2-9.1,6
			c-1.6-0.5-1.6-2.2-1.8-3.6c-3.2,4.7-11.9,8.1-12.8-0.2c-1.7,2.4-5.7,7.2-9,5.4c-0.6-0.3-1.2-1.2-1.3-1.9
			c-0.5-3.1,3.5-7.9,4.9-10.7c0.7-1.4,1.7-4.2-0.9-4.1c-2.7,0.1-7.7,6.7-9.3,8.8c-1.9,2.4-3.6,5-5.6,7.4l-0.3,0.1l-1.8-0.9
			c2.6-3.9,5.6-7.6,7.6-11.8c0.5-1.1,2.4-5.8-0.5-4.6c-2.2,0.9-6.2,8.5-7.9,10.8c-1.6,2.2-4,4.6-6.4,5.8c-5,2.5-11.5,1.1-11.5-5.4
			c-1.5,2.9-5.5,7.8-9.3,6.1c-3-1.4-1.4-5.7-0.3-8c0.7-1.4,2.9-4.1,2.5-5.5c-0.1-0.3-1.8-1.7-1.9-1.6l-3.7,5.7l-0.6-0.6l4.9-7.9
			c1.3-0.5,0.6,0.9,0.7,1.5c0.1,1.3,3.2,2.6,3.2,3.8c0.1,1.7-2.5,5.3-3.3,7c-0.9,2-1.9,5.3,1.7,4.4c0.9-0.2,2.6-2,3.2-2.7
			c3.9-4.7,7-13.3,13.8-14.6c5-0.9,6.2,3.7,3.5,7.1c-2.3,2.9-6.8,4.4-10.3,5c-0.4,0.1-1.1-0.1-1.3,0.3c-0.3,0.8,0,2.3,0.4,3.1
			c2,4.1,7.9,1.4,10.4-0.7c4.4-3.7,6-9,9.6-13C105.1,25.5,108.5,26.3,108.2,31z M82,38c3.5-0.4,7.3-2.4,9.3-5.3
			c0.7-1.1,2.4-4.5-0.1-4.6C87.8,28,82.6,34.8,82,38z M127.9,32.7c-2.1,2.1-5.4,7.5-3.9,10.5c1.1,2.2,4.7,0.6,6.2-0.6
			c3.5-2.8,5.6-7.1,7.9-10.8c0-2.5-1.7-3-3.9-2.8C132.2,29.2,129.3,31.2,127.9,32.7z"/>
		<path fill="#FF3366" d="M68.8,10.8c-3-2.2-7.7,1-10.2,2.9c-4.2,3.1-7.8,7.3-11.5,11c-0.3,0-2.4-2.6-2.8-3
			c-7.8-7.2-18.2-1.1-13.3,8.2c1.4,2.7,3.7,4.1,6,5.8c0.2,0.1,0.4,0.2,0.3,0.4c-5.1,6-21.2,16.6-29.4,13.4c-3.7-1.4-6.4-4.5-5.3-8.7
			c2.5-9.2,15.8-2.7,15.8-2.7s-2.1-1.8-3.3-3.3c-3-3.6-5.5-9.8-0.9-12.6c3.2-2,6.5-0.5,8.6,2.3c2.9,3.8,1.9,10.3,0.6,14.8
			c-0.1,0.3,0.4,0.5,0.5,0.2c1.5-3.7,2.8-8.9,1.6-12.5c-1.3-4.1-6-8.2-10.5-7.3c-7.3,1.3-6.9,9.4-3.1,14.4c-6.1-1.1-12.8,1.5-12,8.8
			c0.6,5.2,6.6,8.7,11.4,9.1c7.4,0.6,21.3-9,26.1-13.9c0.3-0.4,0.7-1.1,1.2-1.2c0.3,0,4.6,2,5.4,2.3c2.8,1.1,5.8,1.8,8.7,2.5
			l-1.1,3.3c0.1,0.2,2.2,1,2.4,1c0.2,0,0.3-0.1,0.4-0.3c0.4-0.5,1.1-3.2,1.5-3.4c0.7-0.1,3.8,0.6,4.2,0.2l0-1.1l-3.6-0.4
			c2.4-5.6,5.3-11.1,8.2-16.5c1.1-2,2.4-3.9,3.5-5.9C69.5,16.3,71.6,12.8,68.8,10.8z M38.5,34.8c-3.7-1.8-7.9-6.2-6-10.6
			c0.8-1.8,2.7-3.1,4.6-3.3c3.8-0.4,7,2.2,8.8,5.3L38.5,34.8z M39.7,35.7l6.9-8.4c0.3-0.1,0.7,0.6,0.8,0.8c2.4,3.5,4,8.2,5.4,12.1
			C48.3,39.4,43.9,37.6,39.7,35.7z M68.3,13.9c-2.4,4-5.1,7.9-7.4,12c-2.5,4.4-4.6,9-6.9,13.4l-6-13.5c3.2-3.4,6.5-7.1,10.1-10
			c1.7-1.3,5-3.9,7.1-4.3C67,11.1,69.4,11.6,68.3,13.9z"/>
		<path fill="#FF3366" d="M387.1,27.1c2-3.8,1.8-8.8-3.2-9.8c-3.6-0.8-7.2,2.4-8.5,5.5c-1.1,2.7-0.6,7.4,0.5,11.8
			c1.4,5.6-2,9.2-6.6,9.7c-0.5,0.1-0.9,0.1-1.2,0c-1.9-0.3-0.5-3.6,0-4.7c0.8-1.6,3.1-4.8,3.1-6.6c0-1.5-3.2-2.6-3.2-4.1
			c0-0.6,0.5-2-0.7-1.2c-3.8,5.4-7.5,14.5-14.4,16.5c-4.3,1.3-7-0.5-6.5-5.1c3.6-0.1,8.4-1.7,10.9-4.3c4.2-4.3,1.6-9.9-4.5-7.2
			c-7.2,3.1-7.5,9.3-12.1,13.6c-1,0.9-3.5,2.4-4.2,0.5c-1-2.8,1.8-9.7,3-12.5c2.6-5.7,6.2-11.2,9.7-16.4l-1-0.6
			c-2.1,1.8-4,4.4-5.6,6.8c-1.9,2.7-3.5,5.6-5.1,8.4c-0.6-0.1-1.2-0.6-1.9-0.8c-4.7-1.2-10.2,2.7-12.5,6.7
			c-2.1,3.7-4.4,8.1-7.8,10.7c-1.7,1.3-3.5,1.6-2.7-1.2c1.1-3.8,6.8-9.2,4.1-13.3c-1.5-2.4-4.2-1.6-6.2-0.5
			c-0.9,0.5-1.6,1.3-2.4,1.9c-0.2,0.1-0.2,0.3-0.5,0.2c0.2-4.8-3.3-5.5-6.2-2.2c-2.7,3.1-7.3,13.2-11.1,14.1c-0.9,0.2-1.8,0.3-2-0.7
			c-0.3-1.7,1.8-6,2.6-7.6c0.8-1.7,2.4-3.9,3.1-5.6c0.2-0.5,0-1.1-0.6-0.8c-0.3,0.1-1.8,2.4-2.2,2.1c-1.2-4.3-7.3-2.7-10.2-1
			c-4.9,2.9-6.5,7.8-10.1,11.8c-0.7,0.8-4.1,4-4,1.1c0.1-2.3,3.2-6.3,4-9c1.3-4.9-1.5-7.3-5.8-4.4c-0.4,0.3-2.4,2.4-2.6,2.1
			c0.1-5.6-3.8-5.9-7.5-2.7c-0.4,0.4-1,1.4-1.4,1.4c-0.4,0-0.3-0.6-0.5-1.1c-0.9-1.5-3-1.7-4.5-1.1c-2.9,1.4-7.3,9.7-9.7,12.6
			c-0.6,0.7-4.2,5-4.6,2.3c-0.3-1.6,2.8-6.1,3.5-8c0.8-1.9,1.7-5.3-0.6-6.6c-2.6-1.5-5.6,1.6-7.3,3.2c-0.1-5.6-4-6.3-7.7-2.8
			c-0.5,0.4-1.1,1.9-1.6,1c-0.4-0.7-0.6-1.4-1.4-1.8c-4.3-2.4-7.8,5.5-9.7,8.1c-1.1,1.5-2.2,2.5-4.2,2.4c1-2.7,2.1-5.7,1.4-8.6
			c-0.5-1.9-1.9-3.3-3.8-2.4c-3.6,1.6-2.9,9.8,0.5,11.6c-1.6,2.5-4.9,6-8.2,5.7c-3.4-0.3-2.3-5.3-1.4-7.5c1.3-3.1,3.6-5.9,6.2-8
			c0-1.8-1.1-1-2.1-0.4c-5.5,3.3-7.7,10.1-12.5,14.5C174,53.2,158.4,48.2,164.3,31c2.6-7.7,9.8-17.3,17.5-20.4c2.5-1,7-1.9,9.3,0.1
			c4.4,3.8-0.3,12.7-3.8,15.7c-3.6,3.2-8.3,4.7-12.4,1.6l-0.6,0.7c8.5,7.5,19.8-2.6,20.3-11.8c0.7-11.8-11.8-9.8-18.8-5.5
			c-9.4,5.9-22.4,25.5-11.4,35c8.3,7.1,20.2,0.8,25.5-6.8c0.6,10,11.3,5.7,14.5-0.3c2.6,0,4-0.7,5.7-2.6c1.5-1.8,4.5-7.7,6.7-8.1
			c3.3-0.6,1.9,2.9,1.2,4.6c-1.6,3.8-4.4,7.3-6.5,10.8l0.1,0.4l1.4,0.9c3.8-3.9,6.2-8.8,9.2-13.3c0.8-1.1,2.7-4.2,4.1-4.3
			c2.5-0.3,1.7,2.3,1.3,3.8c-1.2,4-4.3,7.8-5.7,11.7c0.1,0.2,1.7,1.2,2,0.9c2.7-4,4.9-9,8.1-12.6c2.4-2.7,6.4-4.6,4.3,1
			c-1.2,3.1-5,6.5-4.4,10.1c0.4,2.8,3.2,2.5,5.2,1.3c4.1-2.7,9.2-14.3,12.1-15.2c3.8-1.3,2.2,3,1.4,4.8c-1.6,3.7-4.3,7.2-6.5,10.6
			l1.4,1.1l0.3,0c1.4-1.6,2.7-3.3,3.9-5c1.9-2.7,6.2-10.8,8.6-12.3c0.5-0.3,1.5-0.4,2-0.2c1.4,0.7-0.5,5-0.9,6.1
			c-1.4,3.2-3.4,6.2-4.8,9.4c0.6,0.2,1.7,1.3,2.2,0.8c2.3-3.8,4.4-8,7.2-11.5c1.2-1.5,3.3-4.3,5.4-3.4c0.9,4.9-5.6,8.8-4.8,13.7
			c0.1,0.6,0.6,1.4,1.2,1.7c2.9,1.4,6-2.2,7.5-4.3c0.2,8.4,9.6,5.2,12.6,0.4c0.3,2.1,0.7,3.9,3.2,3.8c5.5-0.2,9.6-10.1,12.6-14
			c0.8-1,4-4.6,3.9-1.2c-0.1,2.5-3.2,7.5-4.7,9.7c-0.5,0.8-3.9,5.1-3.9,5.4c-0.1,0.5,1.5,0.9,1.9,1.1c3.5-4,6.3-8.7,10-12.6
			c1.1-1.1,4.7-5.1,6.4-3.3c1.1,1.2-0.2,3.2-0.8,4.4c-1.4,2.7-5.1,7.1-4.4,10.1c0.3,1.3,1.5,2.1,2.7,2.1c3.4,0.2,7.1-5.1,8.8-7.6
			c0.1,4.4,4,7.1,8.1,5.2c1.6-0.7,2.7-2.1,4.1-3.1c0.8,1.3,0.9,2.3,2.4,2.8c3.4,1.1,5.9-1.8,7.7-4.2c-0.4,6.1,5.8,7.7,10.6,5.7
			c4.3-1.8,6.8-5.7,9.3-9.4c1.1-1.7,2.1-3.5,3.3-5.2c1.5,1.1,2.4,1.4,1.6,3.4c-1.2,2.9-4.1,5.6-3.6,9.3c0.2,1.7,2,2.9,3.6,2.8
			c1.4-0.1,2.9-0.7,4.9-2.2c2.4-1.7,4.4-5.5,4-8.5c-0.7-4.8-1.5-12.1,0.4-14.3c1.7-2.1,4.3-3.2,6.9-1.6c5.5,3.6-1.7,11-1.7,11
			s1.6-1,2.9-1.5c3-1.2,7.6-1.5,8.5,2.1c0.6,2.6-1.1,4.4-3.4,5.2c-3.1,1.1-7.2-1-9.9-2.8c-0.2-0.1-0.4,0.1-0.2,0.3
			c2.1,1.8,5.3,3.8,7.9,3.8c3,0,6.7-2.1,7.1-5.3C396.7,27.2,391.2,25.7,387.1,27.1z M351.9,30.2c1.7-1.4,6.6-4.1,5.3,0.6
			c-1.1,3.6-6.6,7.1-10.3,7.2C347.5,35.3,349.8,32,351.9,30.2z M204,37.5c-0.8,0.2-1.9-2.9-2-3.6c-0.3-1.4-0.2-5.4,1.5-5.8
			c1.1-0.2,1.4,0.1,1.8,1C206.2,31.6,205.2,35.3,204,37.5z M283.3,41.9c-0.4,0.3-0.8,0.8-1.2,1.1c-2.2,1.5-5.9,2.4-6.1-1.2
			c-0.3-4.9,5.9-12.4,10.9-12.7c2.2-0.1,3.8,0.5,3.4,3.1C288.1,35.5,286.3,39.1,283.3,41.9z M334.8,33.9c-0.5,1.6-0.9,3.2-1.1,4.9
			c-0.3,0.4-0.6,0.8-0.9,1.1c-1.6,1.8-6.2,5.3-8,2c-2.7-5,4.7-15.1,10.3-14.1c0.4,0.1,1.7,0.6,1.7,1.1
			C336.8,29.3,335.1,33,334.8,33.9z"/>
	</g>
	<path fill="#FF66CC" d="M365.1,21.8c-0.2,0-0.3-0.1-0.5-0.2l-1.5-1.4c-6.1-5.5-10.1-9.2-10-13.8c0.1-2.1,1.1-4.1,2.9-5.3
		c3.1-2.1,6.9-0.9,9,1.3c2.2-2.2,6-3.4,9-1.3c1.7,1.2,2.8,3.2,2.9,5.3c0.2,4.6-3.9,8.3-10,13.8l-1.5,1.4
		C365.4,21.7,365.3,21.8,365.1,21.8z M359.6,0.9c-1,0-2.1,0.3-3.1,1c-1.5,1-2.4,2.7-2.5,4.6c-0.1,4.2,3.8,7.8,9.7,13.1l1.4,1.2
		l1.4-1.2c5.9-5.4,9.8-8.9,9.7-13.1c-0.1-1.8-1-3.6-2.5-4.6c-2.8-1.9-6.3-0.7-8.1,1.4l-0.1,0.1l-0.3,0c0,0,0,0,0,0
		c-0.2,0-0.3-0.1-0.4-0.2C363.5,1.9,361.6,0.9,359.6,0.9z M364.9,2.6C364.9,2.6,364.8,2.6,364.9,2.6C364.8,2.6,364.9,2.6,364.9,2.6z
		"/>
	<path fill="#FF66CC" d="M365.1,19.4c-0.2,0-0.5-0.1-0.6-0.2l-1-0.9c-5.4-4.9-8.7-8.2-8.7-11.7c0-2.8,2.1-4.8,4.8-4.8
		c1.5,0,3.1,0.7,4.1,1.9c0.7,0.8,2.1,0.8,2.8,0c1-1.2,2.6-1.9,4.1-1.9c2.8,0,4.8,2.1,4.8,4.8c0,3.5-3.3,6.7-8.7,11.7l-1,0.9
		C365.5,19.3,365.3,19.4,365.1,19.4z M365.3,18.3L365.3,18.3C365.3,18.3,365.3,18.3,365.3,18.3z M359.6,2.9c-2.1,0-3.7,1.6-3.7,3.7
		c0,3,3.2,6.1,8.3,10.8l0,0l0.8,0.7l0.8-0.8c5.2-4.7,8.3-7.8,8.3-10.8c0-2.1-1.6-3.7-3.7-3.7c-1.2,0-2.4,0.6-3.2,1.5
		c-1.1,1.3-3.4,1.3-4.6,0C362,3.5,360.8,2.9,359.6,2.9z"/>
	<path fill="#FF66CC" d="M365.5,16.7c-0.2,0.2-0.6,0.2-0.8,0c-4.6-4.2-7.8-7.3-7.8-9.9c0-1.7,1.2-2.9,2.9-2.9c1,0,2,0.5,2.6,1.2
		c0.7,0.8,1.6,1.2,2.7,1.2c1,0,2-0.4,2.7-1.2c0.6-0.7,1.7-1.2,2.6-1.2c1.7,0,2.9,1.2,2.9,2.9C373.3,9.4,370.1,12.5,365.5,16.7z"/>
</g>
</svg>
