<?xml version="1.0" encoding="utf-8"?>
<!-- Generator: Adobe Illustrator 25.0.1, SVG Export Plug-In . SVG Version: 6.00 Build 0)  -->
<svg version="1.1" baseProfile="tiny" id="Layer_1" xmlns="http://www.w3.org/2000/svg" xmlns:xlink="http://www.w3.org/1999/xlink"
	 x="0px" y="0px" width="32px" height="64px" viewBox="0 0 32 64" overflow="visible" xml:space="preserve">
<path d="M8.1,3.5l0,3l-2.7,0c-2,0-3.7,1.6-3.7,3.7l0,50.1c0,2,1.6,3.7,3.7,3.7l21.1,0c2,0,3.7-1.6,3.7-3.7l0-50.1
	c0-2-1.6-3.7-3.7-3.7l-2.7,0l0-3c0-1.9-1.6-3.5-3.5-3.5l-8.7,0C9.7,0,8.1,1.6,8.1,3.5z M26.2,9.5c0.8,0,1.4,0.6,1.4,1.4l0,48.5
	c0,0.8-0.6,1.4-1.4,1.4l-20.3,0c-0.8,0-1.4-0.6-1.4-1.4l0-48.5c0-0.8,0.6-1.4,1.4-1.4L26.2,9.5z M20.4,2.6c0.5,0,1,0.4,1,1l0,3
	l-10.6,0l0-3c0-0.5,0.4-1,1-1L20.4,2.6z"/>
</svg>
