<?xml version="1.0" encoding="utf-8"?>
<!-- Generator: Adobe Illustrator 24.3.0, SVG Export Plug-In . SVG Version: 6.00 Build 0)  -->
<svg version="1.1" baseProfile="tiny" xmlns="http://www.w3.org/2000/svg" xmlns:xlink="http://www.w3.org/1999/xlink" x="0px"
	 y="0px" viewBox="0 0 785.9 759.3" overflow="visible" xml:space="preserve">
<g id="Layer_4">
</g>
<g id="Layer_3">
	<g>
		<polygon fill="#FFFFFF" points="214.1,668.7 70.3,463.3 184.1,541.9 105.9,330.7 226.1,439.9 180.1,90.5 353.8,396.8 367.6,274.6 
			409,394.2 475.7,105.6 485.5,416 536.1,346.9 526.4,449.8 715.6,265.2 591.9,589.9 689.3,547.9 593.8,633.9 659.8,668.7 
			533.3,668.7 563.2,605.1 508,636 559.1,498.2 455.6,580.3 444.1,447.2 415.4,548.6 392.9,491.9 386.6,560.1 304.9,443.1 
			308.4,592.3 235.9,546 263.5,668.7 		"/>
	</g>
</g>
</svg>
