<?xml version="1.0" encoding="utf-8"?>
<!-- Generator: Adobe Illustrator 26.0.1, SVG Export Plug-In . SVG Version: 6.00 Build 0)  -->
<svg version="1.1" baseProfile="tiny" id="Layer_1" xmlns="http://www.w3.org/2000/svg" xmlns:xlink="http://www.w3.org/1999/xlink"
	 x="0px" y="0px" viewBox="0 0 1920 1080" overflow="visible" xml:space="preserve">
<g id="Layer_28">
	<g id="Path_269">
		<rect x="93.9" y="72.5" fill="#0C3E85" width="24.9" height="2"/>
	</g>
</g>
<g id="Layer_27">
	<g id="Path_280">
		<rect x="1806.3" y="72.5" fill="#0C3E85" width="24.9" height="2"/>
	</g>
</g>
<g id="Layer_26">
	<g id="Path_273">
		<rect x="1806.3" y="1005.5" fill="#0C3E85" width="24.9" height="2"/>
	</g>
</g>
<g id="Layer_25">
	<g id="Path_291">
		<rect x="93.4" y="1005.5" fill="#0C3E85" width="25.1" height="2"/>
	</g>
</g>
<g id="Layer_24">
	<g id="Path_268">
		<rect x="81.9" y="72.5" fill="#145FBB" width="7" height="2"/>
	</g>
</g>
<g id="Layer_23">
	<g id="Path_279">
		<rect x="1794.3" y="72.5" fill="#145FBB" width="7" height="2"/>
	</g>
</g>
<g id="Layer_22">
	<g id="Path_276">
		<rect x="81.9" y="80.5" fill="#145FBB" width="36.9" height="2"/>
	</g>
</g>
<g id="Layer_21">
	<g id="Path_282">
		<rect x="1806.3" y="80.5" fill="#145FBB" width="36.9" height="2"/>
	</g>
</g>
<g id="Layer_20">
	<g id="Path_272">
		<rect x="1836.3" y="1005.5" fill="#145FBB" width="7" height="2"/>
	</g>
</g>
<g id="Layer_19">
	<g id="Path_290">
		<rect x="123.3" y="1005.5" fill="#145FBB" width="7" height="2"/>
	</g>
</g>
<g id="Layer_18">
	<g id="Path_270">
		<rect x="123.9" y="72.5" fill="#145FBB" width="7" height="2"/>
	</g>
</g>
<g id="Layer_16">
	<g id="Path_281">
		<rect x="1836.3" y="72.5" fill="#145FBB" width="7" height="2"/>
	</g>
</g>
<g id="Layer_15">
	<g id="Path_274">
		<rect x="1794.3" y="1005.5" fill="#145FBB" width="7" height="2"/>
	</g>
</g>
<g id="Layer_14">
	<g id="Path_289">
		<rect x="81.3" y="1005.5" fill="#145FBB" width="7" height="2"/>
	</g>
</g>
<g id="Layer_12">
	<g id="Path_293">
		<path fill="#145FBB" d="M1889.1,46.9h-2V29.8h-8.2l0-2h10.2L1889.1,46.9z"/>
	</g>
</g>
<g id="Layer_10">
	<g id="Line_32">
		<rect x="1887.1" y="50.6" fill="#145FBB" width="2" height="11.2"/>
	</g>
</g>
<g id="Layer_9">
	<g id="Path_283">
		<path fill="#145FBB" d="M1889.1,1052.2h-10.2v-2h8.2v-17.1h2L1889.1,1052.2z"/>
	</g>
</g>
<g id="Layer_8">
	<g id="Line_30">
		<rect x="1887.1" y="1018.1" fill="#145FBB" width="2" height="11.2"/>
	</g>
</g>
<g id="Layer_7">
	<g id="Path_283-2">
		<path fill="#145FBB" d="M32.2,46.9h-2V27.8h10.1v2h-8.2L32.2,46.9z"/>
	</g>
</g>
<g id="Layer_6">
	<g id="Line_30-2">
		<rect x="30.2" y="50.6" fill="#145FBB" width="2" height="11.2"/>
	</g>
</g>
<g id="Layer_5">
	<g id="Path_292">
		<path fill="#145FBB" d="M30.2,1051.9v-19.1h2v17.1h8.2v2L30.2,1051.9z"/>
	</g>
</g>
<g id="Layer_4">
	<g id="Line_31">
		<rect x="30.2" y="1017.8" fill="#145FBB" width="2" height="11.2"/>
	</g>
</g>
</svg>
