<?xml version="1.0" encoding="utf-8"?>
<!-- Generator: Adobe Illustrator 26.0.1, SVG Export Plug-In . SVG Version: 6.00 Build 0)  -->
<svg version="1.1" baseProfile="tiny" xmlns="http://www.w3.org/2000/svg" xmlns:xlink="http://www.w3.org/1999/xlink" x="0px"
	 y="0px" viewBox="0 0 1920 1080" overflow="visible" xml:space="preserve">
<g id="Layer_5">
	<g id="Layer_3">
		<path fill="#B7DAFF" d="M669.1,396.3c-15.9,8.9-28.9,32-28.9,51.5s13,28.2,28.9,19.3c15.9-8.9,28.9-32,28.9-51.5
			S685,387.4,669.1,396.3z M669.1,462.4c-13.8,7.7-25.1,0.2-25.1-16.7c0-17,11.3-37,25.1-44.7c13.8-7.7,25.1-0.2,25.1,16.7
			S682.9,454.7,669.1,462.4z"/>
	</g>
</g>
<g id="Layer_4">
	<polygon fill="#B7DAFF" points="681.2,422.2 671,427.9 671,415.4 667.2,417.6 667.2,430 657,435.7 657,440.4 667.2,434.7 
		667.2,447.2 671,445.1 671,432.6 681.2,426.9 	"/>
</g>
</svg>
