<?xml version="1.0" encoding="utf-8"?>
<!-- Generator: Adobe Illustrator 28.0.0, SVG Export Plug-In . SVG Version: 6.00 Build 0)  -->
<svg version="1.1" baseProfile="tiny" id="Layer_1" xmlns="http://www.w3.org/2000/svg" xmlns:xlink="http://www.w3.org/1999/xlink"
	 x="0px" y="0px" viewBox="0 0 576 356" overflow="visible" xml:space="preserve">
<path id="opacity:100_colorstyle:Selected_00000005952697326599182130000013194256872906427060_" fill="#A68859" d="M76.5,352.1v3.5
	H58.7v-32.2h3.7v28.7H76.5z M113.4,342.3v-18.9h-3.7v18.9c0,6.3-3.7,9.9-9.8,9.9s-9.9-3.6-9.9-9.9v-18.9h-3.7v18.9
	c0,8.3,5.1,13.4,13.6,13.4C108.3,355.7,113.4,350.7,113.4,342.3L113.4,342.3z M139.5,338.8l10.9-15.4h-4.3l-9,12.4l-8.9-12.4H124
	l11,15.6l-11.8,16.6h4.4l9.7-13.5l9.8,13.5h4.4L139.5,338.8z M188.5,342.3v-18.9h-3.7v18.9c0,6.3-3.7,9.9-9.8,9.9
	c-6.1,0-9.9-3.6-9.9-9.9v-18.9h-3.7v18.9c0,8.3,5.1,13.4,13.6,13.4C183.4,355.7,188.5,350.7,188.5,342.3L188.5,342.3z M223.1,355.6
	h4.2l-7.5-10.9c4.6-1.5,7.2-5.1,7.2-10.4c0-6.8-4.7-10.8-12.7-10.8h-12.2v32.2h3.7v-10.2h8.5c0.8,0,1.5-0.1,2.2-0.1L223.1,355.6z
	 M214.3,341.7h-8.5v-14.9h8.5c5.8,0,9.1,2.5,9.1,7.4c0,5-3.3,7.6-9.1,7.6V341.7z M250.9,355.6v-11.1l12.3-21.2h-3.8L249,340.1
	l-10.4-16.8h-3.8l12.5,21.3v10.9H250.9L250.9,355.6z M311,355.6h4.2l-7.5-10.9c4.6-1.5,7.2-5.1,7.2-10.4c0-6.8-4.7-10.8-12.7-10.8
	H290v32.2h3.6v-10.2h8.6c0.8,0,1.5-0.1,2.2-0.1L311,355.6z M302.2,341.8v-0.1h-8.6v-14.9h8.5c5.8,0,9.1,2.5,9.1,7.4
	C311.3,339.2,308,341.8,302.2,341.8L302.2,341.8z M331.5,326.8h18.2v-3.5h-21.8v32.2h22.4V352h-18.8v-11h16.2v-3.5h-16.2v-10.6
	V326.8z M389,355.6v-32.2h-3.6v25.9l-19.3-25.9h-3.8v32.2h3.7v-25.8l19.3,25.8H389z M423.8,326.9v-3.5h-24.7v3.5h10.5v28.6h3.7
	v-28.6H423.8z M451.1,347.5l3.6,8.1h4l-14.4-32.2h-3.8l-14.4,32.2h3.9l3.6-8.1H451.1z M449.5,343.9h-14.4l7.2-16.3L449.5,343.9z
	 M472.1,352.1v-28.7h-3.7v32.2h17.8v-3.5H472.1z M506.1,323.1c-6.6,0-11.1,3.2-11.1,8.3c0,5.9,4.8,7.6,9.5,9
	c4.4,1.3,8.6,2.4,8.6,6.5c0,3.1-2.9,5-7.5,5c-3.6,0-7.7-1.7-10.7-4.6l-1.7,3.3c3,2.9,7.6,4.9,12.3,4.9c6.9,0,11.6-3.4,11.6-8.8
	c0-5.9-4.8-7.7-9.4-9.1c-4.4-1.4-8.7-2.4-8.7-6.5c0-2.7,2.8-4.3,6.9-4.3c2.6,0,6,0.8,8.9,2.7l1.6-3.4
	C513.8,324.5,510,323.3,506.1,323.1z M279.3,97.1L235.2,53l-90.7,91h87.8L279.3,97.1z M343.7,144h87.8L288,0L244,44.2L343.7,144z"/>
<path id="opacity:100_colorstyle:Bright_00000121979708371249979390000004619793549856890544_" fill="#2E2F66" d="M123,194.2h50.5
	v8.6h-41.7v27.6h41.3v8.6h-41.3v34.6h41.3v8.6H123L123,194.2L123,194.2z M303.2,196c-6.6-2.7-13.6-4-21.1-4
	c-9.2,0-17.5,2.1-24.8,6.1c-7.3,4.1-13,9.7-17.2,16.9c-4.2,7.2-6.3,15-6.3,23.3c0,11.2,3.7,21.1,11,29.6
	c9.5,11.1,22.4,16.6,38.7,16.6c13.4,0,24.1-4,32.1-12c8-8,12-18.8,12.1-32.4h-37.9v8.5h28.1c-1.1,8.2-4.8,14.8-11.1,19.9
	c-6.3,5.1-13.9,7.7-23,7.7c-7.5,0-14.3-1.7-20.6-5.1c-6.2-3.4-11.1-8.1-14.7-14.1c-3.5-6-5.3-12.3-5.3-18.9c0-6.5,1.7-12.6,5.1-18.4
	c3.4-5.8,8.3-10.4,14.5-13.8c6.2-3.4,12.8-5.1,19.7-5.1c5.6,0,11.3,1.2,17.1,3.7s11.2,6.2,16.1,11l6.8-6.5
	C316.4,203.1,309.9,198.7,303.2,196z M429.6,194.3h-2.1l-41.6,88.1h9.8l13.7-29h37.9l13.9,29h9.5L429.6,194.3L429.6,194.3z
	 M443.5,244.7h-30.1l15.1-31.8L443.5,244.7z M533.3,194.2v88H576v-8.5h-33.9v-79.5H533.3L533.3,194.2z M0,282.4h8.8v-80.1h15.3
	c7.4,0,12,0.6,17.2,3.3c5.7,2.9,9.6,10,9.6,16.9c0,7.9-4.9,16-14.5,18.7c-3.9,1.2-7.7,1.3-18.9,1.3l29.9,39.9h11.1l-24.9-33
	c17-1.1,26.2-14.1,26.2-26.8c0-10.8-5.8-20.5-15.7-25.1c-4.1-1.9-9.9-3.3-21.7-3.3H0V282.4z M326.2,144L288,105.8L249.8,144H326.2z"
	/>
</svg>
