<?xml version="1.0" encoding="utf-8"?>
<!-- Generator: Adobe Illustrator 28.0.0, SVG Export Plug-In . SVG Version: 6.00 Build 0)  -->
<svg version="1.1" baseProfile="tiny" id="Layer_1" xmlns="http://www.w3.org/2000/svg" xmlns:xlink="http://www.w3.org/1999/xlink"
	 x="0px" y="0px" viewBox="0 0 936 163.7" overflow="visible" xml:space="preserve">
<path id="colorstyle:Selected" fill="#A68859" d="M377.8,160.1v3.5H360v-32.2h3.7v28.7H377.8z M414.7,150.3
	c0,8.4-5.1,13.4-13.5,13.4c-8.5,0-13.6-5.1-13.6-13.4v-18.9h3.7v18.9c0,6.3,3.8,9.9,9.9,9.9s9.8-3.6,9.8-9.9v-18.9h3.7V150.3z
	 M452.6,163.6h-4.4l-9.8-13.5l-9.7,13.5h-4.3l11.8-16.6l-11-15.6h4.3l8.9,12.4l9-12.4h4.3l-10.9,15.4L452.6,163.6z M489.7,150.3
	c0,8.4-5.1,13.4-13.5,13.4c-8.5,0-13.6-5.1-13.6-13.4v-18.9h3.7v18.9c0,6.3,3.8,9.9,9.9,9.9s9.8-3.6,9.8-9.9v-18.9h3.7V150.3z
	 M517.7,153.3c-0.7,0-1.4,0.1-2.2,0.1H507v10.2h-3.7v-32.2h12.2c8,0,12.7,4,12.7,10.8c0,5.3-2.6,8.9-7.2,10.4l7.5,10.9h-4.2
	L517.7,153.3z M515.5,149.9c5.8,0,9.1-2.6,9.1-7.6c0-4.9-3.3-7.4-9.1-7.4H507v14.9h8.5V149.9z M552.1,163.6h-3.6v-10.9L536,131.4
	h3.8l10.4,16.8l10.3-16.8h3.8l-12.2,21.1V163.6z M605.6,153.3c-0.7,0-1.4,0.1-2.2,0.1h-8.6v10.2h-3.7v-32.2h12.2
	c8,0,12.7,4,12.7,10.8c0,5.3-2.6,8.9-7.2,10.4l7.5,10.9h-4.2L605.6,153.3z M603.5,149.9c5.8,0,9.1-2.6,9.1-7.6
	c0-4.9-3.3-7.4-9.1-7.4h-8.6v14.9h8.6V149.9z M632.8,134.9v10.6H649v3.5h-16.2v11h18.8v3.5h-22.4v-32.2H651v3.5L632.8,134.9
	L632.8,134.9z M686.6,163.6l-19.3-25.8v25.8h-3.7v-32.2h3.8l19.3,25.9v-25.9h3.6v32.2H686.6z M714.5,134.9v28.6h-3.7v-28.6h-10.5
	v-3.5H725v3.5H714.5z M734.8,155.5l-3.6,8.1h-3.9l14.4-32.2h3.8l14.4,32.2h-4l-3.6-8.1H734.8z M743.5,135.6l-7.2,16.3h14.4
	L743.5,135.6z M787.4,160.1v3.5h-17.8v-32.2h3.7v28.7H787.4z M817.7,134.3l-1.6,3.4c-2.9-1.9-6.3-2.7-8.9-2.7
	c-4.1,0-6.9,1.6-6.9,4.3c0,3.9,4,5,8.3,6.3c4.8,1.5,9.8,3.1,9.8,9.3c0,5.4-4.7,8.8-11.6,8.8c-4.7,0-9.3-2-12.3-4.9l1.7-3.3
	c3,2.9,7.1,4.6,10.7,4.6c4.6,0,7.5-1.9,7.5-5c0-4.1-4.2-5.2-8.5-6.5c-4.7-1.4-9.6-3.1-9.6-9c0-5.1,4.5-8.3,11.1-8.3
	C811.2,131.3,815.1,132.5,817.7,134.3z M150.5,111.2L101.3,62L0,163.6h98.1L150.5,111.2z M222.5,163.6h98.1L160.3,2.8l-49.2,49.4
	L222.5,163.6z"/>
<path id="colorstyle:Bright" fill="#2E2F66" d="M483,2.2h50.5v8.6h-41.7v27.6h41.3V47h-41.3v34.6h41.3v8.6H483V2.2z M682.6,17
	l-6.8,6.5c-4.9-4.8-10.3-8.5-16.1-11s-11.5-3.7-17.1-3.7c-6.9,0-13.5,1.7-19.7,5.1s-11.1,8-14.5,13.8s-5.1,11.9-5.1,18.4
	c0,6.6,1.8,12.9,5.3,18.9c3.6,6,8.5,10.7,14.7,14.1c6.3,3.4,13.1,5.1,20.6,5.1c9.1,0,16.7-2.6,23-7.7s10-11.7,11.1-19.9h-28.1v-8.5
	h37.9c-0.1,13.6-4.1,24.4-12.1,32.4s-18.7,12-32.1,12c-16.3,0-29.2-5.5-38.7-16.6c-7.3-8.5-11-18.4-11-29.6c0-8.3,2.1-16.1,6.3-23.3
	s9.9-12.8,17.2-16.9c7.3-4,15.6-6.1,24.8-6.1c7.5,0,14.5,1.3,21.1,4C669.9,6.7,676.4,11.1,682.6,17z M789.6,2.2l41.1,88.1h-9.5
	l-13.9-29h-37.9l-13.7,29h-9.8l41.6-88.1C787.5,2.2,789.6,2.2,789.6,2.2z M788.5,20.9l-15.1,31.9h30.1L788.5,20.9z M893.3,2.2h8.8
	v79.6H936v8.5h-42.7V2.2z M360,2.2h22.4c11.8,0,17.6,1.4,21.7,3.3c9.9,4.6,15.7,14.3,15.7,25.1c0,12.7-9.2,25.7-26.2,26.8l24.9,32.9
	h-11.1l-29.9-39.9c11.2,0,15-0.1,18.9-1.3c9.6-2.7,14.5-10.8,14.5-18.7c0-6.9-3.9-14-9.6-16.9c-5.2-2.7-9.8-3.3-17.2-3.3h-15.4v80.1
	H360V2.2z M203,163.6l-42.7-42.7l-42.7,42.7H203z"/>
</svg>
