<?xml version="1.0" encoding="utf-8"?>
<!-- Generator: Adobe Illustrator 28.5.0, SVG Export Plug-In . SVG Version: 9.03 Build 54727)  -->
<svg version="1.1" baseProfile="tiny" id="Layer_1" xmlns="http://www.w3.org/2000/svg" xmlns:xlink="http://www.w3.org/1999/xlink"
	 x="0px" y="0px" viewBox="0 0 64 64" overflow="visible" xml:space="preserve">
<path id="Fire" fill-rule="evenodd" d="M27.3,53.5c-2.4-1.5-4.1-4-4.2-6.9c-0.1-5.4,3.6-8.2,5.8-11.9c3.2-5.3,2.4-8.6,2.4-8.6
	s2.6,1.5,4.2,7.1c0.5,1.7,0.5,3.3,0.4,4.9c-0.3,4-2,7.5-2,7.5s2.9-0.7,3.8-6.1c1.3,1.5,2.6,3.4,2.8,5.7c0.3,3.7-2,7.1-5.3,8.6
	c5.7-1.3,9.8-6.2,11.2-9.8c1.8-4.5,1.3-8.4,1.1-12c-0.4-4.8,1.3-8.3,1.3-8.3s-3.2,0.9-5.4,4.8c-1.1,2-1.6,4.6-1.6,4.6
	s0.3-2.2-1.3-6.5c-1.5-4.1-2.9-5.5-3.7-8.6c-1.1-4.1,1.3-8.1,1.3-8.1s-9.2,1.7-13.5,10c-3.8,7.4-2.2,11.7-2.2,11.7s-1.6-1.5-2.4-3.6
	s-0.7-4-0.7-4s-6.7,7.4-3.4,16.8C18,47.4,22.2,51.8,27.3,53.5z"/>
</svg>
