<?xml version="1.0" encoding="utf-8"?>
<!-- Generator: Adobe Illustrator 28.5.0, SVG Export Plug-In . SVG Version: 9.03 Build 54727)  -->
<svg version="1.1" baseProfile="tiny" id="Layer_1" xmlns="http://www.w3.org/2000/svg" xmlns:xlink="http://www.w3.org/1999/xlink"
	 x="0px" y="0px" viewBox="0 0 64 64" overflow="visible" xml:space="preserve">
<path id="Distortion" d="M55.5,25.7c0.1,0.4-0.1,0.7-0.6,0.9l-6,1.7h-0.1c-0.3,0-0.6-0.1-0.7-0.6c-0.1-0.4,0.1-0.7,0.6-0.9l6-1.6
	C55,25.1,55.4,25.4,55.5,25.7z M48.9,35.8l3.3,0.9c0.4,0.1,0.6,0.4,0.6,0.9c-0.1,0.3-0.4,0.6-0.7,0.6H52l-3.3-0.9
	c-0.4-0.1-0.6-0.4-0.6-0.9S48.5,35.6,48.9,35.8z M53.1,20c0.1,0.3,0.1,0.7-0.3,1l-5.5,3c-0.1,0-0.3,0.1-0.3,0.1
	c-0.3,0-0.4-0.1-0.6-0.4c-0.1-0.3-0.1-0.7,0.3-1l5.5-3.2C52.4,19.4,52.8,19.5,53.1,20z M47.2,16.9c0.3,0.3,0.3,0.7,0,1l-2.4,2.4
	c-0.1,0.1-0.3,0.1-0.6,0.1c-0.3,0-0.4,0-0.6-0.1c-0.3-0.3-0.3-0.7,0-1l2.4-2.4C46.5,16.6,46.9,16.6,47.2,16.9z M40,16.8l3.2-5.5
	c0.1-0.3,0.6-0.4,1-0.3c0.3,0.1,0.4,0.6,0.3,1l-3.2,5.5c-0.1,0.3-0.4,0.3-0.6,0.3c-0.1,0-0.3,0-0.3-0.1C40,17.5,39.9,17.1,40,16.8z
	 M35.9,15.2l1.6-6c0.1-0.4,0.4-0.6,0.9-0.6c0.4,0.1,0.6,0.4,0.6,0.9l-1.6,6c-0.1,0.3-0.4,0.6-0.7,0.6h-0.1
	C36,15.9,35.7,15.6,35.9,15.2z M31.4,11.3c0-0.4,0.3-0.7,0.7-0.7c0.4,0,0.7,0.3,0.7,0.7v3.4c0,0.4-0.3,0.7-0.7,0.7
	c-0.4,0-0.7-0.3-0.7-0.7V11.3z M25.8,8.6c0.4-0.1,0.7,0.1,0.9,0.6l1.6,6c0.1,0.4-0.1,0.7-0.6,0.9h-0.1c-0.3,0-0.6-0.1-0.7-0.6
	l-1.6-6C25.2,9,25.4,8.7,25.8,8.6z M32,19.7c6.8,0,12.4,5.6,12.4,12.4S38.7,44.4,32,44.4S19.6,38.8,19.6,32S25.2,19.7,32,19.7z
	 M21.4,13.5c0.3-0.1,0.7-0.1,1,0.3l1.7,3c0.1,0.3,0.1,0.7-0.3,1c-0.1,0-0.3,0.1-0.3,0.1c-0.3,0-0.4-0.1-0.6-0.3l-1.7-3
	C20.9,14.2,21.1,13.8,21.4,13.5z M15,14.9c0.3-0.3,0.7-0.3,1,0l4.5,4.5c0.3,0.3,0.3,0.7,0,1c-0.1,0.1-0.3,0.1-0.6,0.1
	c-0.3,0-0.4,0-0.6-0.1l-4.5-4.5C14.7,15.6,14.7,15.2,15,14.9z M11.2,20c0.1-0.3,0.6-0.4,1-0.3l5.5,3.2c0.3,0.1,0.4,0.6,0.3,1
	c-0.1,0.3-0.4,0.4-0.6,0.4s-0.3,0-0.3-0.1L11.6,21C11,20.7,10.9,20.2,11.2,20z M16.2,27.7c-0.1,0.3-0.4,0.6-0.7,0.6h-0.1L12,27.4
	c-0.4-0.1-0.6-0.4-0.6-0.9c0-0.4,0.4-0.6,0.9-0.6l3.3,0.9C16,27,16.3,27.3,16.2,27.7z M7.8,32c0-0.4,0.3-0.7,0.7-0.7h6.3
	c0.4,0,0.7,0.3,0.7,0.7c0,0.4-0.3,0.7-0.7,0.7H8.6C8.1,32.7,7.8,32.4,7.8,32z M9.4,38.8c-0.3,0-0.6-0.1-0.7-0.6
	c-0.1-0.4,0.1-0.7,0.6-0.9l6-1.6c0.4-0.1,0.7,0.1,0.9,0.6c0.1,0.4-0.1,0.7-0.6,0.9l-6,1.6H9.4z M14.2,43.1c-0.3,0-0.4-0.1-0.6-0.3
	c-0.1-0.3-0.1-0.7,0.3-1l3-1.7c0.3-0.1,0.7-0.1,1,0.3c0.1,0.3,0.1,0.7-0.3,1l-3,1.7C14.5,42.9,14.3,43.1,14.2,43.1z M15.5,49.3
	c-0.1,0-0.4,0-0.6-0.1c-0.3-0.3-0.3-0.7,0-1l4.5-4.5c0.3-0.3,0.7-0.3,1,0c0.3,0.3,0.3,0.7,0,1l-4.5,4.5
	C15.9,49.3,15.6,49.3,15.5,49.3z M24.1,47.2l-3.2,5.5C20.8,53,20.5,53,20.3,53c-0.1,0-0.3,0-0.3-0.1c-0.3-0.1-0.4-0.6-0.3-1l3.2-5.5
	c0.1-0.3,0.6-0.4,1-0.3C24.2,46.5,24.4,47,24.1,47.2z M28.4,48.8l-1.6,6c-0.1,0.3-0.4,0.6-0.7,0.6H26c-0.4-0.1-0.6-0.4-0.6-0.9
	l1.6-6c0.1-0.4,0.4-0.6,0.9-0.6S28.4,48.4,28.4,48.8z M32.8,52.6c0,0.4-0.3,0.7-0.7,0.7c-0.4,0-0.7-0.3-0.7-0.7v-3.4
	c0-0.4,0.3-0.7,0.7-0.7c0.4,0,0.7,0.3,0.7,0.7V52.6z M38.3,55.4h-0.1c-0.3,0-0.6-0.1-0.7-0.6l-1.6-6c-0.1-0.4,0.1-0.7,0.6-0.9
	c0.4-0.1,0.7,0.1,0.9,0.6l1.6,6C39,54.9,38.7,55.3,38.3,55.4z M44.2,53c-0.1,0-0.3,0.1-0.3,0.1c-0.3,0-0.4-0.1-0.6-0.3l-3.2-5.5
	c-0.1-0.3-0.1-0.7,0.3-1c0.3-0.1,0.7-0.1,1,0.3l3.2,5.5C44.6,52.3,44.5,52.7,44.2,53z M49.2,49.1c-0.1,0.1-0.3,0.1-0.6,0.1
	c-0.3,0-0.4,0-0.6-0.1l-4.5-4.5c-0.3-0.3-0.3-0.7,0-1c0.3-0.3,0.7-0.3,1,0l4.5,4.5C49.5,48.4,49.5,48.8,49.2,49.1z M53.1,44.1
	c-0.1,0.3-0.4,0.3-0.6,0.3c-0.1,0-0.3,0-0.3-0.1l-5.6-3c-0.3-0.1-0.4-0.6-0.3-1c0.1-0.3,0.6-0.4,1-0.3l5.5,3.2
	C53.1,43.4,53.2,43.8,53.1,44.1z M55.5,32.7h-6.3c-0.4,0-0.7-0.3-0.7-0.7c0-0.4,0.3-0.7,0.7-0.7h6.3c0.4,0,0.7,0.3,0.7,0.7
	C56.3,32.4,56,32.7,55.5,32.7z"/>
</svg>
