<?xml version="1.0" encoding="utf-8"?>
<!-- Generator: Adobe Illustrator 28.5.0, SVG Export Plug-In . SVG Version: 9.03 Build 54727)  -->
<svg version="1.1" baseProfile="tiny" id="Layer_1" xmlns="http://www.w3.org/2000/svg" xmlns:xlink="http://www.w3.org/1999/xlink"
	 x="0px" y="0px" viewBox="0 0 91.4 64.1" overflow="visible" xml:space="preserve">
<path id="colorstyle:Disabled_opacity:20" d="M4.8,1C2.7,1,1,2.7,1,4.8v18.6c0,1,0.4,1.9,1,2.6l26.8,29.7c4.2,4.7,10.2,7.3,16.5,7.3
	h41.3c2.1,0,3.8-1.7,3.8-3.8V4.8c0-2.1-1.7-3.8-3.8-3.8H4.8z"/>
<path id="colorstyle:Base" fill="#6FB8C7" d="M86.5,64.1H45.2c-6.6,0-12.8-2.8-17.2-7.7L1.2,26.7c-0.8-0.9-1.2-2-1.2-3.2V4.8
	C0,2.2,2.2,0,4.8,0h81.7c2.7,0,4.8,2.2,4.8,4.8v54.4C91.4,61.9,89.2,64.1,86.5,64.1z M4.8,1C2.7,1,1,2.7,1,4.8v18.6
	c0,1,0.4,1.9,1,2.6l26.8,29.7c4.2,4.7,10.2,7.3,16.5,7.3h41.3c2.1,0,3.8-1.7,3.8-3.8V4.8c0-2.1-1.7-3.8-3.8-3.8H4.8z"/>
</svg>
