<?xml version="1.0" encoding="utf-8"?>
<!-- Generator: Adobe Illustrator 28.5.0, SVG Export Plug-In . SVG Version: 9.03 Build 54727)  -->
<svg version="1.1" baseProfile="tiny" id="Layer_1" xmlns="http://www.w3.org/2000/svg" xmlns:xlink="http://www.w3.org/1999/xlink"
	 x="0px" y="0px" viewBox="0 0 112 112" overflow="visible" xml:space="preserve">
<path id="opacity:85_colorstyle:Background" fill="#1A1A1A" d="M106.9,112H5.1c-2.8,0-5.1-2.3-5.1-5.1V5.1C0,2.3,2.3,0,5.1,0h101.8
	c2.8,0,5.1,2.3,5.1,5.1v101.8C112,109.7,109.7,112,106.9,112z"/>
<path id="colorstyle:Base_00000064329565234154642380000010966517361760599985_" fill="none" stroke="#6CB8C7" stroke-width="1.5" stroke-miterlimit="10" d="
	M13.4,2H6.3C3.9,2,2,3.9,2,6.3v9.1"/>
<path id="colorstyle:Base_00000124144543638286285260000013534999427036849822_" fill="none" stroke="#6CB8C7" stroke-width="1.5" stroke-miterlimit="10" d="
	M13.4,109.9H6.3C4,109.9,2,108,2,105.6v-9.1"/>
<path id="colorstyle:Base_00000030458796876492469660000013837540900758121639_" fill="none" stroke="#6CB8C7" stroke-width="1.5" stroke-miterlimit="10" d="
	M98.7,109.9h7.1c2.3,0,4.3-1.9,4.3-4.3v-9.1"/>
<path id="colorstyle:Base_00000011003055612367615880000005096556357593312434_" fill="none" stroke="#6CB8C7" stroke-width="1.5" stroke-miterlimit="10" d="
	M98.7,2h7.1c2.3,0,4.3,1.9,4.3,4.3v9.1"/>
<line id="colorstyle:Base_opacity:33_00000036969788488730096060000015924009931434598304_" fill="none" stroke="#6CB8C7" stroke-width="0.75" stroke-miterlimit="10" x1="16.5" y1="2" x2="96.1" y2="2"/>
<line id="colorstyle:Base_opacity:33_00000037653668170385205680000001128346019238426557_" fill="none" stroke="#6CB8C7" stroke-width="0.75" stroke-miterlimit="10" x1="2" y1="94" x2="2" y2="18"/>
<line id="colorstyle:Base_opacity:33_00000014623578024312037390000014179563568911009930_" fill="none" stroke="#6CB8C7" stroke-width="0.75" stroke-miterlimit="10" x1="110.1" y1="94" x2="110.1" y2="18"/>
<line id="colorstyle:Base_opacity:33" fill="none" stroke="#6CB8C7" stroke-width="0.75" stroke-miterlimit="10" x1="16.5" y1="109.9" x2="96.1" y2="109.9"/>
</svg>
