<?xml version="1.0" encoding="utf-8"?>
<!-- Generator: Adobe Illustrator 28.6.0, SVG Export Plug-In . SVG Version: 9.03 Build 54939)  -->
<svg version="1.1" baseProfile="tiny" id="Layer_1" xmlns="http://www.w3.org/2000/svg" xmlns:xlink="http://www.w3.org/1999/xlink"
	 x="0px" y="0px" viewBox="0 0 210.6 52.9" overflow="visible" xml:space="preserve">
<path id="opacity:65" fill="#6FB8C7" d="M182.7,52.9H4.2C1.9,52.9,0,51,0,48.7V4.2C0,1.9,1.9,0,4.2,0h202.2c2.3,0,4.2,1.9,4.2,4.2
	v24.7c0,1.2-0.6,2.4-1.5,3.2L185.3,52C184.6,52.6,183.6,52.9,182.7,52.9z"/>
<path id="opacity:100" fill="none" stroke="#6FB8C7" stroke-miterlimit="10" d="M182.7,52.9H4.2C1.9,52.9,0,51,0,48.7V4.2
	C0,1.9,1.9,0,4.2,0h202.2c2.3,0,4.2,1.9,4.2,4.2v24.7c0,1.2-0.6,2.4-1.5,3.2L185.3,52C184.6,52.6,183.6,52.9,182.7,52.9z"/>
</svg>
