<?xml version="1.0" encoding="utf-8"?>
<!-- Generator: Adobe Illustrator 28.5.0, SVG Export Plug-In . SVG Version: 9.03 Build 54727)  -->
<svg version="1.1" baseProfile="tiny" id="Layer_1" xmlns="http://www.w3.org/2000/svg" xmlns:xlink="http://www.w3.org/1999/xlink"
	 x="0px" y="0px" viewBox="0 0 36 32" overflow="visible" xml:space="preserve">
<path id="Overheat" fill="#FFFFFF" d="M14.9,23.3c-0.4,1.4-1.2,2.5-2.2,3.3c0.2-1.3,0.5-2.5,0.6-3.6c0.1-1.8-1-3.3-1.2-5.2
	c-0.4-2.1,0.6-4.3,2.1-5.7c-0.2,1.3-0.4,2.6-0.4,3.7C13.7,18.3,15.7,20.7,14.9,23.3z M19.6,24c-0.5,1.6-1.5,3-2.7,4
	c0.3-1.6,0.6-3,0.6-4.3c0.1-2.1-1.2-4-1.5-6.2c-0.4-2.4,0.9-5.1,2.6-6.7c-0.2,1.6-0.5,3-0.4,4.4c0,2.1,1.3,4,1.6,6.2
	C19.9,22.2,19.8,23.2,19.6,24z M23.9,23.3c-0.4,1.4-1.2,2.5-2.2,3.3c0.2-1.3,0.5-2.5,0.6-3.6c0.1-1.8-1-3.3-1.2-5.2
	c-0.4-2.1,0.6-4.3,2.1-5.7c-0.2,1.3-0.4,2.6-0.4,3.7C22.8,18.3,24.7,20.7,23.9,23.3z"/>
</svg>
