<?xml version="1.0" encoding="utf-8"?>
<!-- Generator: Adobe Illustrator 28.5.0, SVG Export Plug-In . SVG Version: 9.03 Build 54727)  -->
<svg version="1.1" baseProfile="tiny" id="Layer_1" xmlns="http://www.w3.org/2000/svg" xmlns:xlink="http://www.w3.org/1999/xlink"
	 x="0px" y="0px" viewBox="0 0 1170.9 38.3" overflow="visible" xml:space="preserve">
<path id="opacity:90_colorstyle:Base" fill="#6FB8C7" d="M1154.5,0.1v1h-476c-4.6,0-9,1.6-12.5,4.5L632.9,33
	c-3.3,2.8-7.6,4.3-11.9,4.3H301.9c-4.3,0-8.6-1.5-11.9-4.3L256.9,5.5C253.4,2.6,249,1,244.4,1h-228V0H0v3h16.4V2h228
	c4.3,0,8.6,1.5,11.9,4.3l33.1,27.5c3.5,2.9,7.9,4.5,12.5,4.5H621c4.6,0,9-1.6,12.5-4.5l33.1-27.5c3.3-2.8,7.6-4.3,11.9-4.3h476v1
	h16.4V0.1C1170.9,0.1,1154.5,0.1,1154.5,0.1z"/>
</svg>
