<?xml version="1.0" encoding="utf-8"?>
<!-- Generator: Adobe Illustrator 28.5.0, SVG Export Plug-In . SVG Version: 9.03 Build 54727)  -->
<svg version="1.1" baseProfile="tiny" id="Layer_1" xmlns="http://www.w3.org/2000/svg" xmlns:xlink="http://www.w3.org/1999/xlink"
	 x="0px" y="0px" viewBox="0 0 2048 2048" overflow="visible" xml:space="preserve">
<path fill="#FFFFFF" d="M1728.6,85.8c-108.8,0-199.4,90.6-199.4,196.4c0,42.3,12.1,78.6,33.2,105.7l-287,284
	c-48.3-36.3-105.7-60.4-172.2-60.4c-54.4,0-102.7,15.1-148,42.3L743.7,439.3c12.1-24.2,21.1-54.4,21.1-84.6
	c0-105.7-90.6-196.4-196.4-196.4s-196.4,84.6-196.4,196.4c0,105.7,90.6,196.4,196.4,196.4c42.3,0,78.6-12.1,105.7-33.2l208.5,208.5
	c-21.1,27.2-36.3,66.5-45.3,102.7H432.5c-21.1-81.6-99.7-142-187.3-142c-105.7,0-196.4,84.6-196.4,196.4
	c0,105.7,90.6,196.4,196.4,196.4c90.6,0,163.2-60.4,187.3-142h404.9c21.1,105.7,105.7,193.4,214.5,214.5v483.4
	c-81.6,21.1-142,99.7-142,187.3c0,105.7,90.6,196.4,196.4,196.4s196.4-84.6,196.4-196.4c0-90.6-60.4-163.2-142-187.3v-480.4
	c123.9-24.2,220.6-136,220.6-265.9c0-48.3-12.1-93.7-33.2-129.9l299.1-299.1c24.2,12.1,54.4,21.1,81.6,21.1
	c105.7,0,196.4-84.6,196.4-196.4C1919,176.5,1834.4,85.8,1728.6,85.8z M1103.2,1043.6c-84.6,0-157.1-69.5-157.1-157.1
	s69.5-157.1,157.1-157.1c84.6,0,157.1,69.5,157.1,157.1S1193.9,1043.6,1103.2,1043.6z"/>
</svg>
