<?xml version="1.0" encoding="utf-8"?>
<!-- Generator: Adobe Illustrator 28.5.0, SVG Export Plug-In . SVG Version: 9.03 Build 54727)  -->
<svg version="1.1" baseProfile="tiny" id="Layer_2_00000121992443151637664270000006192331732265423034_"
	 xmlns="http://www.w3.org/2000/svg" xmlns:xlink="http://www.w3.org/1999/xlink" x="0px" y="0px" viewBox="0 0 2048 2048"
	 overflow="visible" xml:space="preserve">
<path fill="#FFFFFF" d="M1097.7,690.2V262h355.1v428.3L1097.7,690.2L1097.7,690.2z M950.3,690.2V262H595.2v428.3L950.3,690.2
	L950.3,690.2z M1870.7,605.6V346.7h-185.8v258.9H1870.7 M1955.4,690.2h-355.1V262h355.1V690.2L1955.4,690.2z M447.8,690.2V262H92.7
	v428.3L447.8,690.2L447.8,690.2z M865.6,1153.5v-259H679.8v258.9L865.6,1153.5 M950.3,1238.1H595.2V809.9h355.1V1238.1L950.3,1238.1
	z M447.8,1238.1V809.9H92.7v428.3L447.8,1238.1L447.8,1238.1z M1368.2,1701.3v-258.9h-185.8v258.9H1368.2 M1452.8,1786h-355.1
	v-428.3h355.1V1786L1452.8,1786z M865.6,1701.3v-258.9H679.8v258.9H865.6 M950.3,1786H595.2v-428.3h355.1V1786L950.3,1786z
	 M447.8,1786v-428.3H92.7V1786H447.8z"/>
</svg>
