<?xml version="1.0" encoding="utf-8"?>
<!-- Generator: Adobe Illustrator 28.5.0, SVG Export Plug-In . SVG Version: 9.03 Build 54727)  -->
<svg version="1.1" baseProfile="tiny" id="Layer_1" xmlns="http://www.w3.org/2000/svg" xmlns:xlink="http://www.w3.org/1999/xlink"
	 x="0px" y="0px" viewBox="0 0 1782.5 728.4" overflow="visible" xml:space="preserve">
<path id="opacity:90_colorstyle:Base_00000175289143710273511330000007788509922643336119_" fill="#6FB8C7" d="M1699.3,31v1H1116
	c-4.6,0-9,1.6-12.5,4.5L1070.4,64c-3.3,2.8-7.5,4.3-11.9,4.3h-319c-4.3,0-8.5-1.5-11.9-4.3l-33.1-27.5C691,33.6,686.6,32,682,32H42
	v-1H25.6v2.9H42v-1h640.1c4.3,0,8.5,1.5,11.9,4.3l33,27.5c3.5,2.9,7.9,4.5,12.5,4.5h319c4.6,0,9-1.6,12.5-4.5l33.1-27.5
	c3.3-2.8,7.5-4.3,11.9-4.3h583.3v1h16.4V31H1699.3z"/>
</svg>
