<?xml version="1.0" encoding="utf-8"?>
<!-- Generator: Adobe Illustrator 28.5.0, SVG Export Plug-In . SVG Version: 9.03 Build 54727)  -->
<svg version="1.1" baseProfile="tiny" id="Layer_1" xmlns="http://www.w3.org/2000/svg" xmlns:xlink="http://www.w3.org/1999/xlink"
	 x="0px" y="0px" viewBox="0 0 64 64" overflow="visible" xml:space="preserve">
<path id="Overheat" d="M23.5,42.6c-1.1,3.7-3.3,6.8-6,9.1c0.6-3.6,1.4-6.8,1.6-9.8c0.3-4.7-2.7-9.1-3.3-13.9
	c-1.1-5.7,1.7-11.6,5.6-15.4c-0.4,3.6-1.1,6.9-1,9.9C20.4,29.1,25.8,35.7,23.5,42.6z M36.3,44.4c-1.3,4.5-4,8-7.3,10.8
	c0.7-4.3,1.7-8.2,1.7-11.6c0.3-5.6-3.2-10.8-4-16.7c-1.1-6.6,2.3-13.8,7-18.1c-0.4,4.3-1.3,8.2-1.1,11.8c0,5.7,3.6,10.8,4.3,16.8
	C37.1,39.7,36.8,42.3,36.3,44.4z M47.9,42.6c-1.1,3.7-3.3,6.8-6,9.1c0.6-3.6,1.4-6.8,1.6-9.8c0.3-4.7-2.7-9.1-3.3-13.9
	c-1.1-5.7,1.7-11.6,5.6-15.4c-0.4,3.6-1.1,6.9-1,9.9C44.9,29.1,50.2,35.7,47.9,42.6z"/>
</svg>
