<?xml version="1.0" encoding="utf-8"?>
<!-- Generator: Adobe Illustrator 28.5.0, SVG Export Plug-In . SVG Version: 9.03 Build 54727)  -->
<svg version="1.1" baseProfile="tiny" id="Layer_1" xmlns="http://www.w3.org/2000/svg" xmlns:xlink="http://www.w3.org/1999/xlink"
	 x="0px" y="0px" viewBox="0 0 1782.5 728.4" overflow="visible" xml:space="preserve">
<path id="colorstyle:Background" d="M1760.9,686.8c11.7,0,21.2-9.5,21.2-21.2V21.7c0-11.7-9.6-21.2-21.2-21.2H22.9
	c-12.4,0-22.4,10-22.4,22.4v515.8v126.8c0,11.7,9.4,21.1,21.1,21.1L1760.9,686.8z"/>
<path id="colorstyle:Base" fill="#6FB8C7" d="M1779.8,11.5c-1.4-2.7-3.4-5-5.8-6.8c-0.3-0.2-0.6-0.4-0.9-0.7c0,0-0.1,0-0.1-0.1
	c-3.6-2.5-8-4-12.7-4H22.1C9.9-0.1,0,9.8,0,22v58.2V667c0,11.2,9.1,20.3,20.3,20.3h1740.5c3.9,0,7.5-1,10.7-2.8c0,0,0,0,0.1,0
	c0.3-0.2,0.6-0.4,0.9-0.6c3.7-2.3,6.7-5.7,8.3-9.8c1.1-2.6,1.7-5.4,1.7-8.4v-57.9V79.7V22.1C1782.5,18.3,1781.5,14.7,1779.8,11.5z
	 M1781.5,607.9l-1.2,2.4c-1.2,2.2-1.8,4.7-1.8,7.2v48.9c0,9.3-7.5,16.9-16.9,16.9h-129.9c-2.4,0-4.8,0.7-6.8,2.1l-1.6,1.1H164.7
	h-5.5l-1.6-1.1c-2-1.4-4.4-2.1-6.8-2.1H20.9c-9.4,0-16.9-7.6-16.9-16.9v-48.9c0-2.5-0.6-5-1.8-7.2L1,607.9V80.3L2.5,78
	c1.3-2,2.1-4.4,2.1-6.8V21.1c0-9.3,7.5-16.9,16.9-16.9h126.9c2.5,0,5-0.6,7.2-1.8l2.9-1.5h1466l2.9,1.5c2.2,1.2,4.7,1.8,7.2,1.8
	h126.9c9.3,0,16.9,7.5,16.9,16.9v50.1c0,2.4,0.7,4.8,2.1,6.8l1,1.6V607.9z"/>
</svg>
