<?xml version="1.0" encoding="utf-8"?>
<!-- Generator: Adobe Illustrator 27.5.0, SVG Export Plug-In . SVG Version: 6.00 Build 0)  -->
<svg version="1.1" baseProfile="tiny" id="Layer_1" xmlns="http://www.w3.org/2000/svg" xmlns:xlink="http://www.w3.org/1999/xlink"
	 x="0px" y="0px" viewBox="0 0 236 40" overflow="visible" xml:space="preserve">
<path fill="#6CB8C7" d="M27.6,6.1h0.6c0.3,0,0.6,0.3,0.6,0.6v0.5c0,0.3-0.3,0.6-0.6,0.6h-0.6c-0.3,0-0.6-0.3-0.6-0.6V6.7
	C27,6.4,27.2,6.1,27.6,6.1z"/>
<path fill="none" stroke="#6CB8C7" stroke-width="1.5" stroke-miterlimit="10" d="M25.5,0.8H11.2C9.8,0.8,8.6,1.5,8,2.7l-7,12.8
	c-0.3,0.5-0.4,1.1-0.4,1.8v17.3c0,3.2,1.6,4.7,4.7,4.7h225.6c3.2,0,4.7-1.6,4.7-4.7v-29c0-3.1-1.5-4.7-4.7-4.7H30.1"/>
</svg>
