<?xml version="1.0" encoding="utf-8"?>
<!-- Generator: Adobe Illustrator 27.6.1, SVG Export Plug-In . SVG Version: 6.00 Build 0)  -->
<svg version="1.1" baseProfile="tiny" id="Layer_1" xmlns="http://www.w3.org/2000/svg" xmlns:xlink="http://www.w3.org/1999/xlink"
	 x="0px" y="0px" viewBox="0 0 1920 1080" overflow="visible" xml:space="preserve">
<g>
	<g>
		<g>
			<path fill="#F17F21" d="M162.3,183.5v-2.9h25.2v2.9H162.3z M162.3,193.1v-2.9h25.2v2.9H162.3z"/>
		</g>
		<g>
			<path fill="#F17F21" d="M197.5,183.5v-2.9h25.2v2.9H197.5z M197.5,193.1v-2.9h25.2v2.9H197.5z"/>
		</g>
		<g>
			<path fill="#F17F21" d="M232.7,183.5v-2.9h25.2v2.9H232.7z M232.7,193.1v-2.9h25.2v2.9H232.7z"/>
		</g>
		<g>
			<path fill="#F17F21" d="M267.9,183.5v-2.9H293v2.9H267.9z M267.9,193.1v-2.9H293v2.9H267.9z"/>
		</g>
		<g>
			<path fill="#F17F21" d="M303,183.5v-2.9h25.2v2.9H303z M303,193.1v-2.9h25.2v2.9H303z"/>
		</g>
		<g>
			<path fill="#F17F21" d="M338.2,183.5v-2.9h25.2v2.9H338.2z M338.2,193.1v-2.9h25.2v2.9H338.2z"/>
		</g>
		<g>
			<path fill="#F17F21" d="M373.4,183.5v-2.9h25.2v2.9H373.4z M373.4,193.1v-2.9h25.2v2.9H373.4z"/>
		</g>
		<g>
			<path fill="#F17F21" d="M408.6,183.5v-2.9h25.2v2.9H408.6z M408.6,193.1v-2.9h25.2v2.9H408.6z"/>
		</g>
		<g>
			<path fill="#F17F21" d="M443.8,183.5v-2.9h25.2v2.9H443.8z M443.8,193.1v-2.9h25.2v2.9H443.8z"/>
		</g>
		<g>
			<path fill="#F17F21" d="M478.9,183.5v-2.9h25.2v2.9H478.9z M478.9,193.1v-2.9h25.2v2.9H478.9z"/>
		</g>
		<g>
			<path fill="#F17F21" d="M514.1,183.5v-2.9h25.2v2.9H514.1z M514.1,193.1v-2.9h25.2v2.9H514.1z"/>
		</g>
		<g>
			<path fill="#F17F21" d="M549.3,183.5v-2.9h25.2v2.9H549.3z M549.3,193.1v-2.9h25.2v2.9H549.3z"/>
		</g>
		<g>
			<path fill="#F17F21" d="M584.5,183.5v-2.9h25.2v2.9H584.5z M584.5,193.1v-2.9h25.2v2.9H584.5z"/>
		</g>
		<g>
			<path fill="#F17F21" d="M619.7,183.5v-2.9h25.2v2.9H619.7z M619.7,193.1v-2.9h25.2v2.9H619.7z"/>
		</g>
		<g>
			<path fill="#F17F21" d="M654.8,183.5v-2.9H680v2.9H654.8z M654.8,193.1v-2.9H680v2.9H654.8z"/>
		</g>
		<g>
			<path fill="#F17F21" d="M690,183.5v-2.9h25.2v2.9H690z M690,193.1v-2.9h25.2v2.9H690z"/>
		</g>
		<g>
			<path fill="#F17F21" d="M725.2,183.5v-2.9h25.2v2.9H725.2z M725.2,193.1v-2.9h25.2v2.9H725.2z"/>
		</g>
		<g>
			<path fill="#F17F21" d="M760.4,183.5v-2.9h25.2v2.9H760.4z M760.4,193.1v-2.9h25.2v2.9H760.4z"/>
		</g>
		<g>
			<path fill="#F17F21" d="M795.6,183.5v-2.9h25.2v2.9H795.6z M795.6,193.1v-2.9h25.2v2.9H795.6z"/>
		</g>
		<g>
			<path fill="#F17F21" d="M830.7,183.5v-2.9h25.2v2.9H830.7z M830.7,193.1v-2.9h25.2v2.9H830.7z"/>
		</g>
		<g>
			<path fill="#F17F21" d="M865.9,183.5v-2.9h25.2v2.9H865.9z M865.9,193.1v-2.9h25.2v2.9H865.9z"/>
		</g>
		<g>
			<path fill="#F17F21" d="M901.1,183.5v-2.9h25.2v2.9H901.1z M901.1,193.1v-2.9h25.2v2.9H901.1z"/>
		</g>
		<g>
			<path fill="#F17F21" d="M936.3,183.5v-2.9h25.2v2.9H936.3z M936.3,193.1v-2.9h25.2v2.9H936.3z"/>
		</g>
		<g>
			<path fill="#F17F21" d="M971.5,183.5v-2.9h25.2v2.9H971.5z M971.5,193.1v-2.9h25.2v2.9H971.5z"/>
		</g>
		<g>
			<path fill="#F17F21" d="M1006.6,183.5v-2.9h25.2v2.9H1006.6z M1006.6,193.1v-2.9h25.2v2.9H1006.6z"/>
		</g>
		<g>
			<path fill="#F17F21" d="M1041.8,183.5v-2.9h25.2v2.9H1041.8z M1041.8,193.1v-2.9h25.2v2.9H1041.8z"/>
		</g>
		<g>
			<path fill="#F17F21" d="M1077,183.5v-2.9h25.2v2.9H1077z M1077,193.1v-2.9h25.2v2.9H1077z"/>
		</g>
		<g>
			<path fill="#F17F21" d="M1112.2,183.5v-2.9h25.2v2.9H1112.2z M1112.2,193.1v-2.9h25.2v2.9H1112.2z"/>
		</g>
		<g>
			<path fill="#F17F21" d="M1147.4,183.5v-2.9h25.2v2.9H1147.4z M1147.4,193.1v-2.9h25.2v2.9H1147.4z"/>
		</g>
		<g>
			<path fill="#F17F21" d="M1182.5,183.5v-2.9h25.2v2.9H1182.5z M1182.5,193.1v-2.9h25.2v2.9H1182.5z"/>
		</g>
		<g>
			<path fill="#F17F21" d="M1217.7,183.5v-2.9h25.2v2.9H1217.7z M1217.7,193.1v-2.9h25.2v2.9H1217.7z"/>
		</g>
		<g>
			<path fill="#F17F21" d="M1252.9,183.5v-2.9h25.2v2.9H1252.9z M1252.9,193.1v-2.9h25.2v2.9H1252.9z"/>
		</g>
		<g>
			<path fill="#F17F21" d="M1288.1,183.5v-2.9h25.2v2.9H1288.1z M1288.1,193.1v-2.9h25.2v2.9H1288.1z"/>
		</g>
		<g>
			<path fill="#F17F21" d="M1323.3,183.5v-2.9h25.2v2.9H1323.3z M1323.3,193.1v-2.9h25.2v2.9H1323.3z"/>
		</g>
		<g>
			<path fill="#F17F21" d="M1358.4,183.5v-2.9h25.2v2.9H1358.4z M1358.4,193.1v-2.9h25.2v2.9H1358.4z"/>
		</g>
		<g>
			<path fill="#F17F21" d="M1393.6,183.5v-2.9h25.2v2.9H1393.6z M1393.6,193.1v-2.9h25.2v2.9H1393.6z"/>
		</g>
		<g>
			<path fill="#F17F21" d="M1428.8,183.5v-2.9h25.2v2.9H1428.8z M1428.8,193.1v-2.9h25.2v2.9H1428.8z"/>
		</g>
		<g>
			<path fill="#F17F21" d="M1464,183.5v-2.9h25.2v2.9H1464z M1464,193.1v-2.9h25.2v2.9H1464z"/>
		</g>
		<g>
			<path fill="#F17F21" d="M1499.2,183.5v-2.9h25.2v2.9H1499.2z M1499.2,193.1v-2.9h25.2v2.9H1499.2z"/>
		</g>
		<g>
			<path fill="#F17F21" d="M1534.3,183.5v-2.9h25.2v2.9H1534.3z M1534.3,193.1v-2.9h25.2v2.9H1534.3z"/>
		</g>
		<g>
			<path fill="#F17F21" d="M1569.5,183.5v-2.9h25.2v2.9H1569.5z M1569.5,193.1v-2.9h25.2v2.9H1569.5z"/>
		</g>
		<g>
			<path fill="#F17F21" d="M1604.7,183.5v-2.9h25.2v2.9H1604.7z M1604.7,193.1v-2.9h25.2v2.9H1604.7z"/>
		</g>
		<g>
			<path fill="#F17F21" d="M1639.9,183.5v-2.9h25.2v2.9H1639.9z M1639.9,193.1v-2.9h25.2v2.9H1639.9z"/>
		</g>
		<g>
			<path fill="#F17F21" d="M1675.1,183.5v-2.9h25.2v2.9H1675.1z M1675.1,193.1v-2.9h25.2v2.9H1675.1z"/>
		</g>
		<g>
			<path fill="#F17F21" d="M1710.2,183.5v-2.9h25.2v2.9H1710.2z M1710.2,193.1v-2.9h25.2v2.9H1710.2z"/>
		</g>
	</g>
</g>
<g>
	<g>
		<g>
			<path fill="#F17F21" d="M162.3,966.6v-2.9h25.2v2.9H162.3z M162.3,976.1v-2.9h25.2v2.9H162.3z"/>
		</g>
		<g>
			<path fill="#F17F21" d="M197.5,966.6v-2.9h25.2v2.9H197.5z M197.5,976.1v-2.9h25.2v2.9H197.5z"/>
		</g>
		<g>
			<path fill="#F17F21" d="M232.7,966.6v-2.9h25.2v2.9H232.7z M232.7,976.1v-2.9h25.2v2.9H232.7z"/>
		</g>
		<g>
			<path fill="#F17F21" d="M267.9,966.6v-2.9H293v2.9H267.9z M267.9,976.1v-2.9H293v2.9H267.9z"/>
		</g>
		<g>
			<path fill="#F17F21" d="M303,966.6v-2.9h25.2v2.9H303z M303,976.1v-2.9h25.2v2.9H303z"/>
		</g>
		<g>
			<path fill="#F17F21" d="M338.2,966.6v-2.9h25.2v2.9H338.2z M338.2,976.1v-2.9h25.2v2.9H338.2z"/>
		</g>
		<g>
			<path fill="#F17F21" d="M373.4,966.6v-2.9h25.2v2.9H373.4z M373.4,976.1v-2.9h25.2v2.9H373.4z"/>
		</g>
		<g>
			<path fill="#F17F21" d="M408.6,966.6v-2.9h25.2v2.9H408.6z M408.6,976.1v-2.9h25.2v2.9H408.6z"/>
		</g>
		<g>
			<path fill="#F17F21" d="M443.8,966.6v-2.9h25.2v2.9H443.8z M443.8,976.1v-2.9h25.2v2.9H443.8z"/>
		</g>
		<g>
			<path fill="#F17F21" d="M478.9,966.6v-2.9h25.2v2.9H478.9z M478.9,976.1v-2.9h25.2v2.9H478.9z"/>
		</g>
		<g>
			<path fill="#F17F21" d="M514.1,966.6v-2.9h25.2v2.9H514.1z M514.1,976.1v-2.9h25.2v2.9H514.1z"/>
		</g>
		<g>
			<path fill="#F17F21" d="M549.3,966.6v-2.9h25.2v2.9H549.3z M549.3,976.1v-2.9h25.2v2.9H549.3z"/>
		</g>
		<g>
			<path fill="#F17F21" d="M584.5,966.6v-2.9h25.2v2.9H584.5z M584.5,976.1v-2.9h25.2v2.9H584.5z"/>
		</g>
		<g>
			<path fill="#F17F21" d="M619.7,966.6v-2.9h25.2v2.9H619.7z M619.7,976.1v-2.9h25.2v2.9H619.7z"/>
		</g>
		<g>
			<path fill="#F17F21" d="M654.8,966.6v-2.9H680v2.9H654.8z M654.8,976.1v-2.9H680v2.9H654.8z"/>
		</g>
		<g>
			<path fill="#F17F21" d="M690,966.6v-2.9h25.2v2.9H690z M690,976.1v-2.9h25.2v2.9H690z"/>
		</g>
		<g>
			<path fill="#F17F21" d="M725.2,966.6v-2.9h25.2v2.9H725.2z M725.2,976.1v-2.9h25.2v2.9H725.2z"/>
		</g>
		<g>
			<path fill="#F17F21" d="M760.4,966.6v-2.9h25.2v2.9H760.4z M760.4,976.1v-2.9h25.2v2.9H760.4z"/>
		</g>
		<g>
			<path fill="#F17F21" d="M795.6,966.6v-2.9h25.2v2.9H795.6z M795.6,976.1v-2.9h25.2v2.9H795.6z"/>
		</g>
		<g>
			<path fill="#F17F21" d="M830.7,966.6v-2.9h25.2v2.9H830.7z M830.7,976.1v-2.9h25.2v2.9H830.7z"/>
		</g>
		<g>
			<path fill="#F17F21" d="M865.9,966.6v-2.9h25.2v2.9H865.9z M865.9,976.1v-2.9h25.2v2.9H865.9z"/>
		</g>
		<g>
			<path fill="#F17F21" d="M901.1,966.6v-2.9h25.2v2.9H901.1z M901.1,976.1v-2.9h25.2v2.9H901.1z"/>
		</g>
		<g>
			<path fill="#F17F21" d="M936.3,966.6v-2.9h25.2v2.9H936.3z M936.3,976.1v-2.9h25.2v2.9H936.3z"/>
		</g>
		<g>
			<path fill="#F17F21" d="M971.5,966.6v-2.9h25.2v2.9H971.5z M971.5,976.1v-2.9h25.2v2.9H971.5z"/>
		</g>
		<g>
			<path fill="#F17F21" d="M1006.6,966.6v-2.9h25.2v2.9H1006.6z M1006.6,976.1v-2.9h25.2v2.9H1006.6z"/>
		</g>
		<g>
			<path fill="#F17F21" d="M1041.8,966.6v-2.9h25.2v2.9H1041.8z M1041.8,976.1v-2.9h25.2v2.9H1041.8z"/>
		</g>
		<g>
			<path fill="#F17F21" d="M1077,966.6v-2.9h25.2v2.9H1077z M1077,976.1v-2.9h25.2v2.9H1077z"/>
		</g>
		<g>
			<path fill="#F17F21" d="M1112.2,966.6v-2.9h25.2v2.9H1112.2z M1112.2,976.1v-2.9h25.2v2.9H1112.2z"/>
		</g>
		<g>
			<path fill="#F17F21" d="M1147.4,966.6v-2.9h25.2v2.9H1147.4z M1147.4,976.1v-2.9h25.2v2.9H1147.4z"/>
		</g>
		<g>
			<path fill="#F17F21" d="M1182.5,966.6v-2.9h25.2v2.9H1182.5z M1182.5,976.1v-2.9h25.2v2.9H1182.5z"/>
		</g>
		<g>
			<path fill="#F17F21" d="M1217.7,966.6v-2.9h25.2v2.9H1217.7z M1217.7,976.1v-2.9h25.2v2.9H1217.7z"/>
		</g>
		<g>
			<path fill="#F17F21" d="M1252.9,966.6v-2.9h25.2v2.9H1252.9z M1252.9,976.1v-2.9h25.2v2.9H1252.9z"/>
		</g>
		<g>
			<path fill="#F17F21" d="M1288.1,966.6v-2.9h25.2v2.9H1288.1z M1288.1,976.1v-2.9h25.2v2.9H1288.1z"/>
		</g>
		<g>
			<path fill="#F17F21" d="M1323.3,966.6v-2.9h25.2v2.9H1323.3z M1323.3,976.1v-2.9h25.2v2.9H1323.3z"/>
		</g>
		<g>
			<path fill="#F17F21" d="M1358.4,966.6v-2.9h25.2v2.9H1358.4z M1358.4,976.1v-2.9h25.2v2.9H1358.4z"/>
		</g>
		<g>
			<path fill="#F17F21" d="M1393.6,966.6v-2.9h25.2v2.9H1393.6z M1393.6,976.1v-2.9h25.2v2.9H1393.6z"/>
		</g>
		<g>
			<path fill="#F17F21" d="M1428.8,966.6v-2.9h25.2v2.9H1428.8z M1428.8,976.1v-2.9h25.2v2.9H1428.8z"/>
		</g>
		<g>
			<path fill="#F17F21" d="M1464,966.6v-2.9h25.2v2.9H1464z M1464,976.1v-2.9h25.2v2.9H1464z"/>
		</g>
		<g>
			<path fill="#F17F21" d="M1499.2,966.6v-2.9h25.2v2.9H1499.2z M1499.2,976.1v-2.9h25.2v2.9H1499.2z"/>
		</g>
		<g>
			<path fill="#F17F21" d="M1534.3,966.6v-2.9h25.2v2.9H1534.3z M1534.3,976.1v-2.9h25.2v2.9H1534.3z"/>
		</g>
		<g>
			<path fill="#F17F21" d="M1569.5,966.6v-2.9h25.2v2.9H1569.5z M1569.5,976.1v-2.9h25.2v2.9H1569.5z"/>
		</g>
		<g>
			<path fill="#F17F21" d="M1604.7,966.6v-2.9h25.2v2.9H1604.7z M1604.7,976.1v-2.9h25.2v2.9H1604.7z"/>
		</g>
		<g>
			<path fill="#F17F21" d="M1639.9,966.6v-2.9h25.2v2.9H1639.9z M1639.9,976.1v-2.9h25.2v2.9H1639.9z"/>
		</g>
		<g>
			<path fill="#F17F21" d="M1675.1,966.6v-2.9h25.2v2.9H1675.1z M1675.1,976.1v-2.9h25.2v2.9H1675.1z"/>
		</g>
		<g>
			<path fill="#F17F21" d="M1710.2,966.6v-2.9h25.2v2.9H1710.2z M1710.2,976.1v-2.9h25.2v2.9H1710.2z"/>
		</g>
	</g>
</g>
</svg>
