<?xml version="1.0" encoding="utf-8"?>
<!-- Generator: Adobe Illustrator 27.6.1, SVG Export Plug-In . SVG Version: 6.00 Build 0)  -->
<svg version="1.1" baseProfile="tiny" id="Layer_1" xmlns="http://www.w3.org/2000/svg" xmlns:xlink="http://www.w3.org/1999/xlink"
	 x="0px" y="0px" viewBox="0 0 1920 1080" overflow="visible" xml:space="preserve">
<g>
	<path fill="#F17F21" d="M164.3,219.9v0.4c0,0.2-0.1,0.4-0.3,0.5l-4,2.4c-0.1,0.1-0.2,0.1-0.3,0.1c-0.1,0-0.2,0-0.3-0.1
		s-0.2-0.2-0.2-0.4c0-0.2,0.1-0.3,0.2-0.4l3.8-2.2l-3.8-2.2c-0.2-0.1-0.2-0.2-0.2-0.4c0-0.2,0.1-0.3,0.2-0.4s0.2-0.1,0.3-0.1
		c0.1,0,0.2,0,0.3,0.1l4,2.4C164.2,219.6,164.3,219.7,164.3,219.9z"/>
	<path fill="#F17F21" d="M171.9,219.9v0.4c0,0.2-0.1,0.4-0.3,0.5l-4,2.4c-0.1,0.1-0.2,0.1-0.3,0.1c-0.1,0-0.2,0-0.4-0.1
		s-0.2-0.2-0.2-0.4c0-0.2,0.1-0.3,0.2-0.4l3.8-2.2l-3.8-2.2c-0.2-0.1-0.2-0.2-0.2-0.4c0-0.2,0.1-0.3,0.2-0.4s0.2-0.1,0.4-0.1
		c0.1,0,0.2,0,0.3,0.1l4,2.4C171.8,219.6,171.9,219.7,171.9,219.9z"/>
	<path fill="#F17F21" d="M179.4,219.9v0.4c0,0.2-0.1,0.4-0.3,0.5l-4,2.4c-0.1,0.1-0.2,0.1-0.3,0.1c-0.1,0-0.2,0-0.4-0.1
		s-0.2-0.2-0.2-0.4c0-0.2,0.1-0.3,0.2-0.4l3.8-2.2l-3.8-2.2c-0.2-0.1-0.2-0.2-0.2-0.4c0-0.2,0.1-0.3,0.2-0.4s0.2-0.1,0.4-0.1
		c0.1,0,0.2,0,0.3,0.1l4,2.4C179.3,219.6,179.4,219.7,179.4,219.9z"/>
	<path fill="#F17F21" d="M190.6,218.3h2.3c0.4,0,0.7,0.1,1,0.3c0.3,0.2,0.4,0.4,0.4,0.6c0,0.1-0.1,0.3-0.2,0.4
		c-0.1,0.1-0.2,0.1-0.3,0.1c-0.2,0-0.3-0.1-0.4-0.2c-0.1-0.1-0.3-0.2-0.4-0.2h-2.3c-0.2,0-0.3,0.1-0.3,0.3c0,0.1,0.1,0.2,0.2,0.3
		l2.7,1.2c0.3,0.1,0.5,0.3,0.7,0.6c0.2,0.3,0.3,0.6,0.3,0.9c0,0.4-0.2,0.8-0.5,1.1c-0.3,0.3-0.7,0.5-1.1,0.5h-2.1
		c-0.4,0-0.7-0.1-1-0.3c-0.3-0.2-0.5-0.4-0.5-0.6c0-0.1,0-0.3,0.1-0.4s0.2-0.2,0.4-0.2c0.1,0,0.3,0.1,0.4,0.2s0.4,0.2,0.6,0.2h1.9
		c0.2,0,0.3-0.1,0.4-0.2c0.1-0.1,0.2-0.2,0.2-0.4c0-0.2-0.1-0.4-0.3-0.5l-2.7-1.2c-0.3-0.1-0.5-0.3-0.6-0.5
		c-0.1-0.2-0.2-0.5-0.2-0.7c0-0.4,0.1-0.7,0.4-1C189.9,218.4,190.2,218.3,190.6,218.3z"/>
	<path fill="#F17F21" d="M196.7,223.7v-7.1c0-0.1,0-0.3,0.1-0.4c0.1-0.1,0.2-0.1,0.4-0.1c0.1,0,0.3,0,0.4,0.1
		c0.1,0.1,0.1,0.2,0.1,0.4v2.6l0.8-0.5c0.4-0.2,0.7-0.4,1-0.4h0.6c0.4,0,0.8,0.1,1.1,0.4c0.3,0.3,0.5,0.7,0.5,1.1l0.1,3.8
		c0,0.1,0,0.3-0.1,0.4s-0.2,0.1-0.4,0.1c-0.1,0-0.3-0.1-0.4-0.2s-0.1-0.2-0.2-0.4l-0.1-3.8c0-0.1-0.1-0.3-0.2-0.4s-0.2-0.2-0.4-0.2
		h-0.6c-0.1,0-0.3,0.1-0.4,0.2l-1.5,1v3.3c0,0.1,0,0.3-0.1,0.4c-0.1,0.1-0.2,0.1-0.4,0.1c-0.1,0-0.3,0-0.4-0.1
		C196.7,223.9,196.7,223.8,196.7,223.7z"/>
	<path fill="#F17F21" d="M209.4,220.1v2.2c0,0.5-0.2,0.9-0.6,1.3c-0.4,0.4-0.9,0.6-1.3,0.6h-1.2c-0.5,0-0.9-0.2-1.3-0.6
		c-0.4-0.4-0.6-0.8-0.6-1.3v-2.2c0-0.4,0.2-0.9,0.6-1.3s0.9-0.6,1.4-0.6h1.2c0.5,0,0.9,0.2,1.3,0.6
		C209.1,219.2,209.4,219.7,209.4,220.1z M205.2,220.2v2.1c0,0.2,0.1,0.3,0.2,0.4l0.4,0.3c0.1,0.1,0.2,0.1,0.4,0.1h1.2
		c0.2,0,0.3-0.1,0.5-0.2l0.3-0.3c0.1-0.1,0.2-0.2,0.2-0.4v-2.1c0-0.2-0.1-0.4-0.2-0.5l-0.4-0.3c-0.1-0.1-0.3-0.2-0.4-0.2h-1.1
		c-0.2,0-0.4,0.1-0.5,0.2l-0.3,0.3C205.3,219.9,205.2,220,205.2,220.2z"/>
	<path fill="#F17F21" d="M212.8,223.6v2.3c0,0.1,0,0.3-0.1,0.4s-0.2,0.2-0.4,0.2c-0.1,0-0.3-0.1-0.4-0.2s-0.2-0.2-0.2-0.4v-7.3
		c0-0.1,0.1-0.3,0.2-0.4s0.2-0.2,0.4-0.2c0.1,0,0.3,0.1,0.4,0.2s0.2,0.2,0.2,0.4v0.3c0.5-0.6,1-0.8,1.5-0.8h0.2c0.4,0,0.7,0.1,1,0.4
		l0.9,0.7c0.4,0.3,0.6,0.7,0.6,1.2v1.6c0,0.5-0.2,0.9-0.6,1.3l-0.8,0.7c-0.3,0.3-0.6,0.4-1,0.4h-0.2c-0.4,0-0.7-0.1-1-0.4
		L212.8,223.6z M214.2,223.4h0.3c0.1,0,0.3-0.1,0.4-0.2l0.8-0.7c0.1-0.1,0.2-0.2,0.2-0.4v-1.7c0-0.2-0.1-0.3-0.2-0.4l-0.9-0.7
		c-0.1-0.1-0.2-0.1-0.3-0.1h-0.3c-0.1,0-0.3,0.1-0.4,0.3l-0.8,0.8c-0.1,0.1-0.2,0.3-0.2,0.5v1.3c0,0.2,0.1,0.3,0.2,0.5l0.7,0.7
		C213.9,223.3,214.1,223.4,214.2,223.4z"/>
	<path fill="#F17F21" d="M225.6,225.7h-7.7v-1h7.7V225.7z"/>
	<path fill="#F17F21" d="M230.4,224.2h-1c-0.4,0-0.8-0.2-1.1-0.5c-0.3-0.3-0.5-0.7-0.5-1.1v-3.3h-0.5c-0.1,0-0.3,0-0.4-0.1
		c-0.1-0.1-0.1-0.2-0.1-0.4c0-0.1,0-0.3,0.1-0.4s0.2-0.1,0.4-0.1h0.5V217c0-0.1,0-0.3,0.1-0.4c0.1-0.1,0.2-0.1,0.4-0.1
		c0.1,0,0.3,0.1,0.4,0.2s0.2,0.2,0.2,0.4v1.3h2.1c0.1,0,0.3,0.1,0.4,0.2c0.1,0.1,0.2,0.2,0.2,0.4c0,0.1-0.1,0.3-0.2,0.4
		s-0.2,0.1-0.4,0.1h-2.1v3.3c0,0.1,0.1,0.3,0.2,0.4s0.2,0.2,0.4,0.2h1c0.3,0,0.5-0.1,0.5-0.4c0.1-0.3,0.3-0.4,0.5-0.4
		c0.2,0,0.3,0,0.4,0.1c0.1,0.1,0.1,0.2,0.1,0.4c0,0.3-0.1,0.6-0.4,0.9C231.2,224,230.8,224.2,230.4,224.2z"/>
	<path fill="#F17F21" d="M239.5,220.2v1.2c0,0.1-0.1,0.3-0.2,0.4c-0.1,0.1-0.2,0.2-0.4,0.2h-3.6v0.3c0,0.2,0.1,0.3,0.2,0.4l0.3,0.2
		c0.2,0.1,0.3,0.2,0.5,0.2h2.6c0.1,0,0.3,0,0.4,0.1c0.1,0.1,0.2,0.2,0.2,0.4c0,0.1-0.1,0.3-0.2,0.4s-0.2,0.2-0.4,0.2h-2.7
		c-0.2,0-0.4,0-0.6-0.1s-0.3-0.2-0.4-0.2l-0.5-0.4c-0.1-0.1-0.3-0.3-0.4-0.5c-0.1-0.2-0.1-0.4-0.1-0.6V220c0-0.1,0.1-0.3,0.2-0.5
		s0.2-0.4,0.4-0.5l0.4-0.3c0.3-0.2,0.6-0.3,0.9-0.3h1.4c0.4,0,0.7,0.1,1,0.5l0.4,0.4C239.3,219.4,239.5,219.7,239.5,220.2z
		 M235.4,220.1v0.8h3.1v-0.7c0-0.2-0.1-0.3-0.2-0.4l-0.3-0.3c-0.2-0.1-0.3-0.2-0.4-0.2h-1.3c-0.2,0-0.3,0.1-0.4,0.2l-0.3,0.2
		C235.4,219.9,235.4,220,235.4,220.1z"/>
	<path fill="#F17F21" d="M241.9,223.7v-4.9c0-0.1,0-0.3,0.1-0.4s0.2-0.2,0.4-0.2s0.3,0.1,0.4,0.2s0.1,0.2,0.1,0.4v0.6l0.8-0.7
		c0.3-0.3,0.7-0.4,1-0.4h0.7c0.4,0,0.8,0.1,1.1,0.5c0.3,0.3,0.5,0.7,0.5,1.1v0.3c0,0.1,0,0.3-0.1,0.4c-0.1,0.1-0.2,0.2-0.4,0.2
		c-0.1,0-0.3,0-0.4-0.1s-0.1-0.2-0.1-0.4v-0.3c0-0.1,0-0.3-0.1-0.4s-0.2-0.1-0.4-0.1h-0.7c-0.1,0-0.3,0.1-0.5,0.2l-1.5,1.3v2.9
		c0,0.1-0.1,0.3-0.2,0.4s-0.2,0.1-0.4,0.1c-0.1,0-0.3,0-0.4-0.1S241.9,223.8,241.9,223.7z"/>
	<path fill="#F17F21" d="M249.3,223.7v-4.9c0-0.1,0-0.3,0.1-0.4c0.1-0.1,0.2-0.1,0.4-0.1c0.3,0,0.4,0.1,0.5,0.4
		c0.3-0.3,0.6-0.4,0.9-0.4c0.4,0,0.7,0.2,1,0.5c0.3-0.3,0.7-0.5,1.1-0.5c0.3,0,0.6,0.1,0.8,0.3c0.2,0.2,0.4,0.5,0.4,0.9l0.1,4.2
		c0,0.1-0.1,0.3-0.2,0.4c-0.1,0.1-0.2,0.2-0.4,0.2c-0.1,0-0.3-0.1-0.4-0.2c-0.1-0.1-0.2-0.2-0.2-0.4l-0.1-4c0-0.2-0.1-0.3-0.2-0.3
		c-0.1,0-0.1,0-0.2,0.1l-0.6,0.5v3.7c0,0.1,0,0.3-0.1,0.4c-0.1,0.1-0.2,0.1-0.4,0.1c-0.1,0-0.3,0-0.4-0.1s-0.2-0.2-0.2-0.4v-4.1
		c0-0.2-0.1-0.3-0.2-0.3c-0.1,0-0.1,0-0.2,0.1l-0.7,0.6v3.6c0,0.1,0,0.3-0.1,0.4c-0.1,0.1-0.2,0.2-0.4,0.2c-0.1,0-0.3-0.1-0.4-0.2
		S249.3,223.8,249.3,223.7z"/>
	<path fill="#F17F21" d="M261.1,224.2h-3.1c-0.1,0-0.3,0-0.4-0.1s-0.1-0.2-0.1-0.4c0-0.1,0-0.3,0.1-0.4s0.2-0.2,0.4-0.2h1v-3.8h-1
		c-0.1,0-0.3-0.1-0.4-0.2s-0.1-0.2-0.1-0.4c0-0.1,0-0.3,0.1-0.4s0.2-0.2,0.4-0.2h1.6c0.1,0,0.3,0.1,0.4,0.2s0.1,0.2,0.1,0.4v4.3h1
		c0.1,0,0.3,0,0.4,0.1s0.2,0.2,0.2,0.4c0,0.1-0.1,0.3-0.2,0.4S261.2,224.2,261.1,224.2z M259,215.6h0.5c0.1,0,0.3,0,0.4,0.1
		c0.1,0.1,0.1,0.2,0.1,0.4v0.4c0,0.1,0,0.3-0.1,0.4s-0.2,0.2-0.4,0.2H259c-0.1,0-0.3-0.1-0.4-0.2c-0.1-0.1-0.1-0.2-0.1-0.4l0-0.5
		c0-0.1,0-0.3,0.1-0.4C258.7,215.7,258.8,215.6,259,215.6z"/>
	<path fill="#F17F21" d="M266.9,219.5l-1.4,0.9v3.3c0,0.1-0.1,0.3-0.2,0.4s-0.2,0.2-0.4,0.2s-0.3-0.1-0.4-0.2s-0.2-0.2-0.2-0.4v-4.9
		c0-0.1,0-0.3,0.1-0.4s0.2-0.2,0.4-0.2c0.1,0,0.3,0.1,0.4,0.2s0.2,0.2,0.2,0.4v0.3l0.9-0.6c0.3-0.2,0.7-0.3,1.1-0.3h0.5
		c0.4,0,0.8,0.1,1.1,0.4s0.5,0.6,0.5,1.1l0.1,3.9c0,0.1,0,0.3-0.1,0.4c-0.1,0.1-0.2,0.2-0.4,0.2c-0.1,0-0.3,0-0.4-0.1
		c-0.1-0.1-0.2-0.2-0.2-0.4l-0.2-3.8c0-0.4-0.2-0.5-0.6-0.5h-0.5C267.2,219.3,267.1,219.4,266.9,219.5z"/>
	<path fill="#F17F21" d="M273.5,220.5h2c0.1,0,0.3,0,0.5,0.1l0-0.7c0-0.1,0-0.3-0.1-0.4s-0.2-0.1-0.4-0.1h-1.9
		c-0.1,0-0.3-0.1-0.4-0.2s-0.2-0.2-0.2-0.4c0-0.1,0-0.3,0.1-0.4s0.2-0.1,0.4-0.1h1.9c0.4,0,0.8,0.1,1.1,0.4c0.3,0.3,0.5,0.7,0.5,1.1
		l0.1,3.8c0,0.1-0.1,0.3-0.2,0.4s-0.2,0.1-0.4,0.1c-0.1,0-0.3,0-0.4-0.1s-0.2-0.2-0.2-0.4l-0.9,0.5h-1.7c-0.4,0-0.8-0.2-1.1-0.5
		c-0.3-0.3-0.5-0.7-0.5-1.1V222c0-0.4,0.2-0.8,0.5-1.1C272.7,220.6,273.1,220.5,273.5,220.5z M276.1,222.5l0-0.4
		c0-0.1-0.1-0.3-0.2-0.4c-0.1-0.1-0.2-0.1-0.4-0.1h-2c-0.1,0-0.3,0-0.4,0.1s-0.1,0.2-0.1,0.4v0.6c0,0.1,0.1,0.3,0.2,0.4
		s0.2,0.2,0.4,0.2h1.4L276.1,222.5z"/>
	<path fill="#F17F21" d="M283.6,224.2h-3.1c-0.1,0-0.3-0.1-0.4-0.2s-0.1-0.2-0.1-0.4c0-0.1,0-0.3,0.1-0.4s0.2-0.2,0.4-0.2h1v-6h-1
		c-0.1,0-0.3,0-0.4-0.1s-0.1-0.2-0.1-0.4c0-0.1,0-0.3,0.1-0.4s0.2-0.1,0.4-0.1h1.6c0.1,0,0.3,0.1,0.4,0.2s0.2,0.2,0.2,0.4v6.5h1
		c0.1,0,0.3,0.1,0.4,0.2s0.2,0.2,0.2,0.4c0,0.1,0,0.3-0.1,0.4S283.8,224.2,283.6,224.2z"/>
	<path fill="#F17F21" d="M294.6,223.2v-6.1c0-0.3,0.1-0.5,0.3-0.7c0.2-0.2,0.4-0.3,0.7-0.3h3.2c0.3,0,0.5,0.1,0.7,0.3
		c0.2,0.2,0.3,0.4,0.3,0.7v6.1c0,0.3-0.1,0.5-0.3,0.7c-0.2,0.2-0.4,0.3-0.7,0.3h-3.2c-0.3,0-0.5-0.1-0.7-0.3
		C294.7,223.7,294.6,223.4,294.6,223.2z M298.7,223.1v-6h-3.1v6H298.7z"/>
	<path fill="#F17F21" d="M302.1,223.2v-6.1c0-0.3,0.1-0.5,0.3-0.7c0.2-0.2,0.4-0.3,0.7-0.3h3.2c0.3,0,0.5,0.1,0.7,0.3
		c0.2,0.2,0.3,0.4,0.3,0.7v6.1c0,0.3-0.1,0.5-0.3,0.7c-0.2,0.2-0.4,0.3-0.7,0.3h-3.2c-0.3,0-0.5-0.1-0.7-0.3
		C302.2,223.7,302.1,223.4,302.1,223.2z M306.2,223.1v-6h-3.1v6H306.2z"/>
	<path fill="#F17F21" d="M310.1,223.1h1.6v-6h-1.5c-0.1,0-0.3,0-0.4-0.1s-0.1-0.2-0.1-0.4c0-0.1,0-0.3,0.1-0.4s0.2-0.1,0.4-0.1h2.6
		v7.1h1V221c0-0.1,0-0.3,0.1-0.4s0.2-0.2,0.4-0.2c0.1,0,0.3,0,0.4,0.1s0.1,0.2,0.1,0.4v2.6c0,0.1,0,0.3-0.1,0.4s-0.2,0.1-0.4,0.1
		h-4.1c-0.1,0-0.3-0.1-0.4-0.2s-0.1-0.2-0.1-0.4c0-0.1,0-0.3,0.1-0.4C309.9,223.2,310,223.1,310.1,223.1z"/>
	<path fill="#F17F21" d="M321.8,224.2h-0.5c-0.1,0-0.3,0-0.4-0.1c-0.1-0.1-0.2-0.2-0.2-0.4c0-0.1,0-0.3,0.1-0.4
		c0.1-0.1,0.2-0.1,0.4-0.1v-3.4h-3.6c-0.1,0-0.3-0.1-0.4-0.2c-0.1-0.1-0.2-0.2-0.2-0.4v-2.7c0-0.1,0.1-0.3,0.2-0.4
		c0.1-0.1,0.2-0.2,0.4-0.2h4.1c0.1,0,0.3,0.1,0.4,0.2c0.1,0.1,0.2,0.2,0.2,0.4v7.1c0,0.1,0,0.3-0.1,0.4
		C322.1,224.1,322,224.2,321.8,224.2z M321.3,218.7v-1.6h-3.1v1.6H321.3z"/>
	<path fill="#F17F21" d="M164.3,234.9v0.4c0,0.2-0.1,0.4-0.3,0.5l-4,2.4c-0.1,0.1-0.2,0.1-0.3,0.1c-0.1,0-0.2,0-0.3-0.1
		s-0.2-0.2-0.2-0.4c0-0.2,0.1-0.3,0.2-0.4l3.8-2.2l-3.8-2.2c-0.2-0.1-0.2-0.2-0.2-0.4c0-0.2,0.1-0.3,0.2-0.4s0.2-0.1,0.3-0.1
		c0.1,0,0.2,0,0.3,0.1l4,2.4C164.2,234.5,164.3,234.7,164.3,234.9z"/>
	<path fill="#F17F21" d="M171.9,234.9v0.4c0,0.2-0.1,0.4-0.3,0.5l-4,2.4c-0.1,0.1-0.2,0.1-0.3,0.1c-0.1,0-0.2,0-0.4-0.1
		s-0.2-0.2-0.2-0.4c0-0.2,0.1-0.3,0.2-0.4l3.8-2.2l-3.8-2.2c-0.2-0.1-0.2-0.2-0.2-0.4c0-0.2,0.1-0.3,0.2-0.4s0.2-0.1,0.4-0.1
		c0.1,0,0.2,0,0.3,0.1l4,2.4C171.8,234.5,171.9,234.7,171.9,234.9z"/>
	<path fill="#F17F21" d="M179.4,234.9v0.4c0,0.2-0.1,0.4-0.3,0.5l-4,2.4c-0.1,0.1-0.2,0.1-0.3,0.1c-0.1,0-0.2,0-0.4-0.1
		s-0.2-0.2-0.2-0.4c0-0.2,0.1-0.3,0.2-0.4l3.8-2.2l-3.8-2.2c-0.2-0.1-0.2-0.2-0.2-0.4c0-0.2,0.1-0.3,0.2-0.4s0.2-0.1,0.4-0.1
		c0.1,0,0.2,0,0.3,0.1l4,2.4C179.3,234.5,179.4,234.7,179.4,234.9z"/>
	<path fill="#F17F21" d="M189.1,238.6v-4.9c0-0.1,0-0.3,0.1-0.4c0.1-0.1,0.2-0.2,0.4-0.2c0.1,0,0.3,0.1,0.4,0.2
		c0.1,0.1,0.1,0.2,0.1,0.4v0.6l0.8-0.7c0.3-0.3,0.7-0.4,1-0.4h0.7c0.4,0,0.8,0.1,1.1,0.5s0.5,0.7,0.5,1.1v0.3c0,0.1,0,0.3-0.1,0.4
		c-0.1,0.1-0.2,0.2-0.4,0.2c-0.1,0-0.3,0-0.4-0.1s-0.1-0.2-0.1-0.4v-0.3c0-0.1,0-0.3-0.1-0.4s-0.2-0.1-0.4-0.1h-0.7
		c-0.1,0-0.3,0.1-0.5,0.2l-1.5,1.3v2.9c0,0.1-0.1,0.3-0.2,0.4s-0.2,0.1-0.4,0.1c-0.1,0-0.3,0-0.4-0.1
		C189.2,238.9,189.1,238.8,189.1,238.6z"/>
	<path fill="#F17F21" d="M198.2,235.4h2c0.1,0,0.3,0,0.5,0.1l0-0.7c0-0.1,0-0.3-0.1-0.4s-0.2-0.1-0.4-0.1h-1.9
		c-0.1,0-0.3-0.1-0.4-0.2s-0.2-0.2-0.2-0.4c0-0.1,0-0.3,0.1-0.4s0.2-0.1,0.4-0.1h1.9c0.4,0,0.8,0.1,1.1,0.4c0.3,0.3,0.5,0.7,0.5,1.1
		l0.1,3.8c0,0.1-0.1,0.3-0.2,0.4s-0.2,0.1-0.4,0.1c-0.1,0-0.3,0-0.4-0.1s-0.2-0.2-0.2-0.4l-0.9,0.5h-1.7c-0.4,0-0.8-0.2-1.1-0.5
		c-0.3-0.3-0.5-0.7-0.5-1.1V237c0-0.4,0.2-0.8,0.5-1.1C197.4,235.6,197.8,235.4,198.2,235.4z M200.8,237.4l0-0.4
		c0-0.1-0.1-0.3-0.2-0.4c-0.1-0.1-0.2-0.1-0.4-0.1h-2c-0.1,0-0.3,0-0.4,0.1s-0.1,0.2-0.1,0.4v0.6c0,0.1,0.1,0.3,0.2,0.4
		s0.2,0.2,0.4,0.2h1.4L200.8,237.4z"/>
	<path fill="#F17F21" d="M207.3,235.5v1.2l0.7,1.2l0.4-1.2l0.1-3c0-0.1,0.1-0.3,0.2-0.4c0.1-0.1,0.2-0.2,0.4-0.2
		c0.1,0,0.3,0,0.4,0.1s0.1,0.2,0.1,0.4l-0.1,3.2l-0.5,1.8c-0.1,0.2-0.2,0.4-0.5,0.4h-0.5c-0.2,0-0.3-0.1-0.5-0.3l-0.6-1l-0.6,1
		c-0.1,0.2-0.3,0.3-0.5,0.3h-0.5c-0.1,0-0.2,0-0.3-0.1s-0.2-0.2-0.2-0.2l-0.5-1.9l-0.1-3.1c0-0.1,0-0.3,0.2-0.4
		c0.1-0.1,0.2-0.2,0.4-0.2c0.1,0,0.2,0,0.3,0.1s0.2,0.2,0.2,0.4l0.1,3l0.3,1.1l0.7-1.2v-1.2c0-0.1,0.1-0.3,0.2-0.4
		c0.1-0.1,0.2-0.1,0.4-0.1c0.1,0,0.3,0,0.4,0.1S207.3,235.4,207.3,235.5z"/>
	<path fill="#F17F21" d="M218.1,240.7h-7.7v-1h7.7V240.7z"/>
	<path fill="#F17F21" d="M223.4,234v-2.4c0-0.1,0-0.3,0.1-0.4c0.1-0.1,0.2-0.1,0.4-0.1c0.1,0,0.3,0,0.4,0.1s0.2,0.2,0.2,0.4v7.1
		c0,0.1-0.1,0.3-0.2,0.4c-0.1,0.1-0.2,0.1-0.4,0.1c-0.1,0-0.3,0-0.4-0.1c-0.1-0.1-0.1-0.2-0.1-0.4v-0.2c-0.5,0.5-1,0.7-1.4,0.7h-0.9
		c-0.3,0-0.7-0.2-1-0.5l-0.4-0.4c-0.1-0.1-0.2-0.2-0.3-0.5c-0.1-0.2-0.1-0.4-0.1-0.6v-2.1c0-0.2,0-0.5,0.1-0.7
		c0.1-0.2,0.2-0.4,0.3-0.5l0.4-0.4c0.3-0.3,0.7-0.4,1.1-0.4h0.7c0.4,0,0.8,0.1,1.1,0.4L223.4,234z M221.9,234.3h-0.7
		c-0.2,0-0.3,0.1-0.4,0.2l-0.3,0.3c-0.1,0.1-0.2,0.2-0.2,0.4v2.2c0,0.1,0.1,0.3,0.2,0.4l0.3,0.3c0.1,0.1,0.2,0.1,0.3,0.1h0.8
		c0.1,0,0.2-0.1,0.4-0.2l0.8-0.7c0.1-0.1,0.2-0.3,0.2-0.4v-1.1c0-0.2-0.1-0.4-0.2-0.5l-0.8-0.7C222.2,234.3,222.1,234.3,221.9,234.3
		z"/>
	<path fill="#F17F21" d="M228.3,235.4h2c0.1,0,0.3,0,0.5,0.1l0-0.7c0-0.1,0-0.3-0.1-0.4s-0.2-0.1-0.4-0.1h-1.9
		c-0.1,0-0.3-0.1-0.4-0.2c-0.1-0.1-0.2-0.2-0.2-0.4c0-0.1,0-0.3,0.1-0.4s0.2-0.1,0.4-0.1h1.9c0.4,0,0.8,0.1,1.1,0.4
		c0.3,0.3,0.5,0.7,0.5,1.1l0.1,3.8c0,0.1-0.1,0.3-0.2,0.4s-0.2,0.1-0.4,0.1c-0.1,0-0.3,0-0.4-0.1c-0.1-0.1-0.2-0.2-0.2-0.4l-0.9,0.5
		h-1.7c-0.4,0-0.8-0.2-1.1-0.5c-0.3-0.3-0.5-0.7-0.5-1.1V237c0-0.4,0.2-0.8,0.5-1.1C227.5,235.6,227.9,235.4,228.3,235.4z
		 M230.9,237.4l0-0.4c0-0.1-0.1-0.3-0.2-0.4s-0.2-0.1-0.4-0.1h-2c-0.1,0-0.3,0-0.4,0.1s-0.1,0.2-0.1,0.4v0.6c0,0.1,0.1,0.3,0.2,0.4
		s0.2,0.2,0.4,0.2h1.4L230.9,237.4z"/>
	<path fill="#F17F21" d="M237.9,239.1h-1c-0.4,0-0.8-0.2-1.1-0.5c-0.3-0.3-0.5-0.7-0.5-1.1v-3.3h-0.5c-0.1,0-0.3,0-0.4-0.1
		c-0.1-0.1-0.1-0.2-0.1-0.4c0-0.1,0-0.3,0.1-0.4s0.2-0.1,0.4-0.1h0.5V232c0-0.1,0-0.3,0.1-0.4c0.1-0.1,0.2-0.1,0.4-0.1
		c0.1,0,0.3,0.1,0.4,0.2s0.2,0.2,0.2,0.4v1.3h2.1c0.1,0,0.3,0.1,0.4,0.2c0.1,0.1,0.2,0.2,0.2,0.4c0,0.1-0.1,0.3-0.2,0.4
		s-0.2,0.1-0.4,0.1h-2.1v3.3c0,0.1,0.1,0.3,0.2,0.4s0.2,0.2,0.4,0.2h1c0.3,0,0.5-0.1,0.5-0.4c0.1-0.3,0.3-0.4,0.5-0.4
		c0.2,0,0.3,0,0.4,0.1c0.1,0.1,0.1,0.2,0.1,0.4c0,0.3-0.1,0.6-0.4,0.9C238.7,239,238.4,239.1,237.9,239.1z"/>
	<path fill="#F17F21" d="M243.4,235.4h2c0.1,0,0.3,0,0.5,0.1l0-0.7c0-0.1,0-0.3-0.1-0.4s-0.2-0.1-0.4-0.1h-1.9
		c-0.1,0-0.3-0.1-0.4-0.2s-0.2-0.2-0.2-0.4c0-0.1,0-0.3,0.1-0.4s0.2-0.1,0.4-0.1h1.9c0.4,0,0.8,0.1,1.1,0.4c0.3,0.3,0.5,0.7,0.5,1.1
		l0.1,3.8c0,0.1-0.1,0.3-0.2,0.4s-0.2,0.1-0.4,0.1c-0.1,0-0.3,0-0.4-0.1s-0.2-0.2-0.2-0.4l-0.9,0.5h-1.7c-0.4,0-0.8-0.2-1.1-0.5
		c-0.3-0.3-0.5-0.7-0.5-1.1V237c0-0.4,0.2-0.8,0.5-1.1C242.6,235.6,243,235.4,243.4,235.4z M245.9,237.4l0-0.4
		c0-0.1-0.1-0.3-0.2-0.4c-0.1-0.1-0.2-0.1-0.4-0.1h-2c-0.1,0-0.3,0-0.4,0.1s-0.1,0.2-0.1,0.4v0.6c0,0.1,0.1,0.3,0.2,0.4
		s0.2,0.2,0.4,0.2h1.4L245.9,237.4z"/>
	<path fill="#F17F21" d="M261.6,234.3h-4.1c-0.1,0-0.3,0-0.4-0.2s-0.2-0.2-0.2-0.4s0.1-0.3,0.2-0.4s0.2-0.2,0.4-0.2h4.1
		c0.1,0,0.3,0,0.4,0.1s0.1,0.2,0.1,0.4c0,0.1,0,0.3-0.1,0.4S261.7,234.3,261.6,234.3z M261.6,236.5h-4.1c-0.1,0-0.3-0.1-0.4-0.2
		s-0.2-0.2-0.2-0.4c0-0.1,0.1-0.3,0.2-0.4c0.1-0.1,0.2-0.1,0.4-0.1h4.1c0.1,0,0.3,0.1,0.4,0.2s0.2,0.2,0.2,0.4c0,0.1,0,0.3-0.1,0.4
		S261.7,236.5,261.6,236.5z"/>
	<path fill="#F17F21" d="M274.6,238.1h2.1c0.1,0,0.3,0,0.4,0.1s0.1,0.2,0.1,0.4c0,0.1,0,0.3-0.1,0.4s-0.2,0.1-0.4,0.1h-4.1
		c-0.1,0-0.3-0.1-0.4-0.2s-0.2-0.2-0.2-0.4v-7.1c0-0.1,0-0.3,0.1-0.4c0.1-0.1,0.2-0.2,0.4-0.2h4.1c0.1,0,0.3,0.1,0.4,0.2
		c0.1,0.1,0.2,0.2,0.2,0.4c0,0.1,0,0.3-0.1,0.4s-0.2,0.2-0.4,0.2h-2.1V238.1z M273.5,238.1v-6H273v6H273.5z"/>
	<path fill="#F17F21" d="M281.4,238.1h2.4v-2.5h-3.1V231h3.6c0.1,0,0.3,0.1,0.4,0.2s0.2,0.2,0.2,0.4c0,0.1,0,0.3-0.1,0.4
		s-0.2,0.1-0.4,0.1h-2.6v2.5h2.1c0.3,0,0.5,0.1,0.7,0.3s0.3,0.4,0.3,0.7v2.5c0,0.3-0.1,0.5-0.3,0.7s-0.4,0.3-0.7,0.3h-2.4
		c-0.2,0-0.4-0.1-0.7-0.2l-0.8-0.3c-0.2-0.1-0.3-0.2-0.3-0.5c0-0.1,0-0.3,0.1-0.4c0.1-0.1,0.2-0.1,0.3-0.1c0.1,0,0.2,0,0.4,0.1
		l0.7,0.3C281.2,238.1,281.3,238.1,281.4,238.1z"/>
	<path fill="#F17F21" d="M287.6,231h0.5c0.1,0,0.3,0.1,0.4,0.2s0.1,0.2,0.1,0.4c0,0.1,0,0.3-0.1,0.4s-0.2,0.1-0.4,0.1v3.4h3.6
		c0.1,0,0.3,0.1,0.4,0.2s0.2,0.2,0.2,0.4v2.6c0,0.1-0.1,0.3-0.2,0.4s-0.2,0.1-0.4,0.1h-4.1c-0.1,0-0.3-0.1-0.4-0.2s-0.2-0.2-0.2-0.4
		v-7.1c0-0.1,0.1-0.3,0.2-0.4S287.4,231,287.6,231z M288.1,236.5v1.6h3.1v-1.6H288.1z"/>
	<path fill="#F17F21" d="M296.6,235.9h1c0.1,0,0.3,0,0.4,0.1c0.1,0.1,0.2,0.2,0.2,0.4v0.9c0,0.1,0,0.3-0.1,0.4s-0.2,0.2-0.4,0.2h-1
		c-0.1,0-0.3-0.1-0.4-0.2s-0.1-0.2-0.1-0.4v-0.9c0-0.1,0.1-0.3,0.2-0.4C296.4,236,296.5,235.9,296.6,235.9z"/>
	<path fill="#F17F21" d="M306.8,239.1h-4.7v-3.5c0-0.3,0.1-0.5,0.3-0.7s0.4-0.3,0.7-0.3h3.1v-2.5h-3.7c-0.1,0-0.3,0-0.4-0.1
		c-0.1-0.1-0.1-0.2-0.1-0.4c0-0.1,0-0.3,0.1-0.4c0.1-0.1,0.2-0.1,0.4-0.1h3.7c0.3,0,0.5,0.1,0.7,0.3c0.2,0.2,0.3,0.4,0.3,0.7v2.5
		c0,0.3-0.1,0.5-0.3,0.7c-0.2,0.2-0.4,0.3-0.7,0.3h-3.1v2.5h3.6c0.1,0,0.3,0,0.4,0.1c0.1,0.1,0.2,0.2,0.2,0.4c0,0.1-0.1,0.3-0.2,0.4
		C307,239.1,306.9,239.1,306.8,239.1z"/>
	<path fill="#F17F21" d="M313.8,236v2.7c0,0.1,0,0.3-0.1,0.4s-0.2,0.1-0.4,0.1c-0.1,0-0.3,0-0.4-0.1s-0.1-0.2-0.1-0.4v-2.1h-1.6
		c-0.1,0-0.3-0.1-0.4-0.2s-0.1-0.2-0.1-0.4c0-0.1,0.1-0.3,0.2-0.4s0.2-0.2,0.4-0.2h2.1c0.1,0,0.3,0.1,0.4,0.2S313.8,235.8,313.8,236
		z"/>
	<path fill="#F17F21" d="M327,234.3v4.3c0,0.1-0.1,0.3-0.2,0.4s-0.2,0.1-0.4,0.1c-0.1,0-0.3,0-0.4-0.1s-0.2-0.2-0.2-0.4v-4.3h-0.5
		c-0.1,0-0.3-0.1-0.4-0.2c-0.1-0.1-0.1-0.2-0.1-0.4c0-0.1,0-0.3,0.1-0.4c0.1-0.1,0.2-0.2,0.4-0.2h0.5v-0.4c0-0.5,0.2-1,0.5-1.3
		s0.8-0.5,1.3-0.5h1.2c0.1,0,0.3,0.1,0.4,0.2s0.1,0.2,0.1,0.4c0,0.1-0.1,0.3-0.2,0.4s-0.2,0.2-0.4,0.2h-1.2c-0.2,0-0.4,0.1-0.6,0.2
		c-0.2,0.1-0.2,0.3-0.2,0.6v0.4h1c0.1,0,0.3,0,0.4,0.1c0.1,0.1,0.2,0.2,0.2,0.4c0,0.1-0.1,0.3-0.2,0.4c-0.1,0.1-0.2,0.2-0.4,0.2H327
		z"/>
	<path fill="#F17F21" d="M336.4,239.1h-3.1c-0.1,0-0.3-0.1-0.4-0.2s-0.1-0.2-0.1-0.4c0-0.1,0-0.3,0.1-0.4s0.2-0.2,0.4-0.2h1v-6h-1
		c-0.1,0-0.3,0-0.4-0.1s-0.1-0.2-0.1-0.4c0-0.1,0-0.3,0.1-0.4s0.2-0.1,0.4-0.1h1.6c0.1,0,0.3,0.1,0.4,0.2s0.2,0.2,0.2,0.4v6.5h1
		c0.1,0,0.3,0.1,0.4,0.2s0.2,0.2,0.2,0.4c0,0.1,0,0.3-0.1,0.4S336.5,239.1,336.4,239.1z"/>
	<path fill="#F17F21" d="M344.9,235.1v2.2c0,0.5-0.2,0.9-0.6,1.3s-0.9,0.6-1.3,0.6h-1.2c-0.5,0-0.9-0.2-1.3-0.6
		c-0.4-0.4-0.6-0.8-0.6-1.3v-2.2c0-0.4,0.2-0.9,0.6-1.3s0.9-0.6,1.4-0.6h1.2c0.5,0,0.9,0.2,1.3,0.6S344.9,234.6,344.9,235.1z
		 M340.8,235.1v2.1c0,0.2,0.1,0.3,0.2,0.4l0.4,0.3c0.1,0.1,0.2,0.1,0.4,0.1h1.2c0.2,0,0.3-0.1,0.5-0.2l0.3-0.3
		c0.1-0.1,0.2-0.2,0.2-0.4v-2.1c0-0.2-0.1-0.4-0.2-0.5l-0.4-0.3c-0.1-0.1-0.3-0.2-0.4-0.2h-1.1c-0.2,0-0.4,0.1-0.5,0.2l-0.3,0.3
		C340.9,234.8,340.8,235,340.8,235.1z"/>
	<path fill="#F17F21" d="M348.8,235.4h2c0.1,0,0.3,0,0.5,0.1l0-0.7c0-0.1,0-0.3-0.1-0.4s-0.2-0.1-0.4-0.1h-1.9
		c-0.1,0-0.3-0.1-0.4-0.2c-0.1-0.1-0.2-0.2-0.2-0.4c0-0.1,0-0.3,0.1-0.4s0.2-0.1,0.4-0.1h1.9c0.4,0,0.8,0.1,1.1,0.4
		c0.3,0.3,0.5,0.7,0.5,1.1l0.1,3.8c0,0.1-0.1,0.3-0.2,0.4s-0.2,0.1-0.4,0.1c-0.1,0-0.3,0-0.4-0.1c-0.1-0.1-0.2-0.2-0.2-0.4l-0.9,0.5
		h-1.7c-0.4,0-0.8-0.2-1.1-0.5c-0.3-0.3-0.5-0.7-0.5-1.1V237c0-0.4,0.2-0.8,0.5-1.1C348,235.6,348.4,235.4,348.8,235.4z
		 M351.4,237.4l0-0.4c0-0.1-0.1-0.3-0.2-0.4s-0.2-0.1-0.4-0.1h-2c-0.1,0-0.3,0-0.4,0.1s-0.1,0.2-0.1,0.4v0.6c0,0.1,0.1,0.3,0.2,0.4
		s0.2,0.2,0.4,0.2h1.4L351.4,237.4z"/>
	<path fill="#F17F21" d="M358.4,239.1h-1c-0.4,0-0.8-0.2-1.1-0.5c-0.3-0.3-0.5-0.7-0.5-1.1v-3.3h-0.5c-0.1,0-0.3,0-0.4-0.1
		c-0.1-0.1-0.1-0.2-0.1-0.4c0-0.1,0-0.3,0.1-0.4s0.2-0.1,0.4-0.1h0.5V232c0-0.1,0-0.3,0.1-0.4c0.1-0.1,0.2-0.1,0.4-0.1
		c0.1,0,0.3,0.1,0.4,0.2s0.2,0.2,0.2,0.4v1.3h2.1c0.1,0,0.3,0.1,0.4,0.2c0.1,0.1,0.2,0.2,0.2,0.4c0,0.1-0.1,0.3-0.2,0.4
		s-0.2,0.1-0.4,0.1h-2.1v3.3c0,0.1,0.1,0.3,0.2,0.4s0.2,0.2,0.4,0.2h1c0.3,0,0.5-0.1,0.5-0.4c0.1-0.3,0.3-0.4,0.5-0.4
		c0.2,0,0.3,0,0.4,0.1c0.1,0.1,0.1,0.2,0.1,0.4c0,0.3-0.1,0.6-0.4,0.9C359.2,239,358.9,239.1,358.4,239.1z"/>
	<path fill="#F17F21" d="M364.9,234.1v2c0,0.3,0.1,0.5,0.2,0.7l1.2,1.6c0.1,0.1,0.1,0.2,0.1,0.3c0,0.2-0.1,0.3-0.2,0.4
		s-0.2,0.1-0.4,0.1c-0.2,0-0.3-0.1-0.3-0.2l-1.2-1.6c-0.3-0.4-0.5-0.8-0.5-1.2V234c0-0.4,0.2-0.8,0.5-1.2l1.2-1.6
		c0.1-0.1,0.2-0.2,0.3-0.2c0.1,0,0.3,0,0.4,0.1c0.1,0.1,0.2,0.2,0.2,0.4c0,0.1,0,0.2-0.1,0.3l-1.2,1.5
		C365,233.6,364.9,233.8,364.9,234.1z"/>
	<path fill="#F17F21" d="M372,231h1c0.1,0,0.3,0.1,0.4,0.2c0.1,0.1,0.2,0.2,0.2,0.4c0,0,0,0.1,0,0.1l-1,3.5
		c-0.1,0.3-0.2,0.4-0.5,0.4c-0.2,0-0.3-0.1-0.4-0.2c-0.1-0.1-0.1-0.2-0.1-0.4v-3.4c0-0.2,0-0.3,0.1-0.4
		C371.7,231.1,371.8,231,372,231z"/>
	<path fill="#F17F21" d="M382.6,231.6v7.6h-1.4l-2.8-6.3v5.8c0,0.1,0,0.3-0.1,0.4c-0.1,0.1-0.2,0.1-0.4,0.1c-0.1,0-0.3,0-0.4-0.1
		c-0.1-0.1-0.1-0.2-0.1-0.4V231h1.4l2.8,6.3v-5.7c0-0.1,0.1-0.3,0.2-0.4s0.2-0.2,0.4-0.2c0.1,0,0.3,0.1,0.4,0.2
		C382.5,231.3,382.6,231.4,382.6,231.6z"/>
	<path fill="#F17F21" d="M386.5,235.4h2c0.1,0,0.3,0,0.5,0.1l0-0.7c0-0.1,0-0.3-0.1-0.4s-0.2-0.1-0.4-0.1h-1.9
		c-0.1,0-0.3-0.1-0.4-0.2s-0.2-0.2-0.2-0.4c0-0.1,0-0.3,0.1-0.4s0.2-0.1,0.4-0.1h1.9c0.4,0,0.8,0.1,1.1,0.4c0.3,0.3,0.5,0.7,0.5,1.1
		l0.1,3.8c0,0.1-0.1,0.3-0.2,0.4s-0.2,0.1-0.4,0.1c-0.1,0-0.3,0-0.4-0.1s-0.2-0.2-0.2-0.4l-0.9,0.5h-1.7c-0.4,0-0.8-0.2-1.1-0.5
		c-0.3-0.3-0.5-0.7-0.5-1.1V237c0-0.4,0.2-0.8,0.5-1.1C385.7,235.6,386.1,235.4,386.5,235.4z M389,237.4l0-0.4
		c0-0.1-0.1-0.3-0.2-0.4c-0.1-0.1-0.2-0.1-0.4-0.1h-2c-0.1,0-0.3,0-0.4,0.1s-0.1,0.2-0.1,0.4v0.6c0,0.1,0.1,0.3,0.2,0.4
		s0.2,0.2,0.4,0.2h1.4L389,237.4z"/>
	<path fill="#F17F21" d="M397.6,231.6v7.6h-1.4l-2.8-6.3v5.8c0,0.1,0,0.3-0.1,0.4s-0.2,0.1-0.4,0.1s-0.3,0-0.4-0.1s-0.1-0.2-0.1-0.4
		V231h1.4l2.8,6.3v-5.7c0-0.1,0.1-0.3,0.2-0.4s0.2-0.2,0.4-0.2c0.1,0,0.3,0.1,0.4,0.2S397.6,231.4,397.6,231.6z"/>
	<path fill="#F17F21" d="M402.1,231h1c0.1,0,0.3,0.1,0.4,0.2c0.1,0.1,0.2,0.2,0.2,0.4c0,0,0,0.1,0,0.1l-1,3.5
		c-0.1,0.3-0.2,0.4-0.5,0.4c-0.2,0-0.3-0.1-0.4-0.2c-0.1-0.1-0.1-0.2-0.1-0.4v-3.4c0-0.2,0-0.3,0.1-0.4
		C401.8,231.1,402,231,402.1,231z"/>
	<path fill="#F17F21" d="M410.2,236.1v-2c0-0.3-0.1-0.5-0.2-0.7l-1.2-1.5c-0.1-0.1-0.1-0.2-0.1-0.3c0-0.2,0.1-0.3,0.2-0.4
		c0.1-0.1,0.2-0.1,0.4-0.1c0.1,0,0.3,0.1,0.3,0.2l1.2,1.6c0.3,0.4,0.5,0.8,0.5,1.2v2.2c0,0.5-0.2,0.9-0.5,1.2l-1.2,1.6
		c-0.1,0.1-0.2,0.2-0.3,0.2c-0.1,0-0.3,0-0.4-0.1c-0.1-0.1-0.2-0.2-0.2-0.4c0-0.1,0-0.2,0.1-0.3l1.2-1.5
		C410.1,236.6,410.2,236.3,410.2,236.1z"/>
	<path fill="#F17F21" d="M419.2,236v2.7c0,0.1,0,0.3-0.1,0.4s-0.2,0.1-0.4,0.1c-0.1,0-0.3,0-0.4-0.1s-0.1-0.2-0.1-0.4v-2.1h-1.6
		c-0.1,0-0.3-0.1-0.4-0.2c-0.1-0.1-0.1-0.2-0.1-0.4c0-0.1,0.1-0.3,0.2-0.4c0.1-0.1,0.2-0.2,0.4-0.2h2.1c0.1,0,0.3,0.1,0.4,0.2
		S419.2,235.8,419.2,236z"/>
	<path fill="#F17F21" d="M432,238.1h2.4v-2.5h-3.1V231h3.6c0.1,0,0.3,0.1,0.4,0.2s0.2,0.2,0.2,0.4c0,0.1,0,0.3-0.1,0.4
		s-0.2,0.1-0.4,0.1h-2.6v2.5h2.1c0.3,0,0.5,0.1,0.7,0.3s0.3,0.4,0.3,0.7v2.5c0,0.3-0.1,0.5-0.3,0.7s-0.4,0.3-0.7,0.3H432
		c-0.2,0-0.4-0.1-0.7-0.2l-0.8-0.3c-0.2-0.1-0.3-0.2-0.3-0.5c0-0.1,0-0.3,0.1-0.4c0.1-0.1,0.2-0.1,0.3-0.1c0.1,0,0.2,0,0.4,0.1
		l0.7,0.3C431.9,238.1,431.9,238.1,432,238.1z"/>
	<path fill="#F17F21" d="M438.2,238.1h1.6v-6h-1.5c-0.1,0-0.3,0-0.4-0.1c-0.1-0.1-0.1-0.2-0.1-0.4c0-0.1,0-0.3,0.1-0.4
		c0.1-0.1,0.2-0.1,0.4-0.1h2.6v7.1h1V236c0-0.1,0-0.3,0.1-0.4s0.2-0.2,0.4-0.2c0.1,0,0.3,0,0.4,0.1s0.1,0.2,0.1,0.4v2.6
		c0,0.1,0,0.3-0.1,0.4s-0.2,0.1-0.4,0.1h-4.1c-0.1,0-0.3-0.1-0.4-0.2c-0.1-0.1-0.1-0.2-0.1-0.4c0-0.1,0-0.3,0.1-0.4
		C437.9,238.2,438,238.1,438.2,238.1z"/>
	<path fill="#F17F21" d="M447.3,235.9h1c0.1,0,0.3,0,0.4,0.1c0.1,0.1,0.2,0.2,0.2,0.4v0.9c0,0.1,0,0.3-0.1,0.4
		c-0.1,0.1-0.2,0.2-0.4,0.2h-1c-0.1,0-0.3-0.1-0.4-0.2s-0.1-0.2-0.1-0.4v-0.9c0-0.1,0-0.3,0.2-0.4C447,236,447.1,235.9,447.3,235.9z
		"/>
	<path fill="#F17F21" d="M452.7,232v-0.4c0-0.1,0-0.3,0.1-0.4c0.1-0.1,0.2-0.1,0.4-0.1h4.6v3.1c0,0.2-0.1,0.3-0.2,0.4l-1.9,1.6v2.4
		c0,0.1,0,0.3-0.1,0.4s-0.2,0.2-0.4,0.2c-0.1,0-0.3-0.1-0.4-0.2s-0.2-0.2-0.2-0.4V236c0-0.2,0.1-0.3,0.2-0.5l1.9-1.6v-1.9h-3.1
		c-0.1,0.3-0.2,0.4-0.5,0.4c-0.1,0-0.3,0-0.4-0.1C452.8,232.3,452.7,232.2,452.7,232z"/>
	<path fill="#F17F21" d="M464.4,236v2.7c0,0.1,0,0.3-0.1,0.4s-0.2,0.1-0.4,0.1c-0.1,0-0.3,0-0.4-0.1s-0.1-0.2-0.1-0.4v-2.1h-1.6
		c-0.1,0-0.3-0.1-0.4-0.2c-0.1-0.1-0.1-0.2-0.1-0.4c0-0.1,0.1-0.3,0.2-0.4c0.1-0.1,0.2-0.2,0.4-0.2h2.1c0.1,0,0.3,0.1,0.4,0.2
		S464.4,235.8,464.4,236z"/>
	<path fill="#F17F21" d="M477.2,238.1h2.4v-2.5h-3.1V231h3.6c0.1,0,0.3,0.1,0.4,0.2s0.2,0.2,0.2,0.4c0,0.1,0,0.3-0.1,0.4
		s-0.2,0.1-0.4,0.1h-2.6v2.5h2.1c0.3,0,0.5,0.1,0.7,0.3s0.3,0.4,0.3,0.7v2.5c0,0.3-0.1,0.5-0.3,0.7s-0.4,0.3-0.7,0.3h-2.4
		c-0.2,0-0.4-0.1-0.7-0.2l-0.8-0.3c-0.2-0.1-0.3-0.2-0.3-0.5c0-0.1,0-0.3,0.1-0.4c0.1-0.1,0.2-0.1,0.3-0.1c0.1,0,0.2,0,0.4,0.1
		l0.7,0.3C477,238.1,477.1,238.1,477.2,238.1z"/>
	<path fill="#F17F21" d="M484.7,238.1h2.4v-2.5H484V231h3.6c0.1,0,0.3,0.1,0.4,0.2s0.2,0.2,0.2,0.4c0,0.1,0,0.3-0.1,0.4
		s-0.2,0.1-0.4,0.1h-2.6v2.5h2.1c0.3,0,0.5,0.1,0.7,0.3s0.3,0.4,0.3,0.7v2.5c0,0.3-0.1,0.5-0.3,0.7c-0.2,0.2-0.4,0.3-0.7,0.3h-2.4
		c-0.2,0-0.4-0.1-0.7-0.2l-0.8-0.3c-0.2-0.1-0.3-0.2-0.3-0.5c0-0.1,0-0.3,0.1-0.4c0.1-0.1,0.2-0.1,0.3-0.1c0.1,0,0.2,0,0.4,0.1
		l0.7,0.3C484.6,238.1,484.7,238.1,484.7,238.1z"/>
	<path fill="#F17F21" d="M492.5,235.9h1c0.1,0,0.3,0,0.4,0.1c0.1,0.1,0.2,0.2,0.2,0.4v0.9c0,0.1,0,0.3-0.1,0.4
		c-0.1,0.1-0.2,0.2-0.4,0.2h-1c-0.1,0-0.3-0.1-0.4-0.2s-0.1-0.2-0.1-0.4v-0.9c0-0.1,0-0.3,0.2-0.4
		C492.2,236,492.3,235.9,492.5,235.9z"/>
	<path fill="#F17F21" d="M503.1,232.1v1.9c0,0.4-0.1,0.8-0.4,1.1c0.3,0.3,0.4,0.7,0.4,1v2c0,0.3-0.1,0.5-0.3,0.7s-0.4,0.3-0.7,0.3
		h-3.6c-0.1,0-0.3,0-0.4-0.1c-0.1-0.1-0.1-0.2-0.1-0.4c0-0.1,0-0.3,0.1-0.4c0.1-0.1,0.2-0.1,0.4-0.1h3.6v-2c0-0.1,0-0.3-0.1-0.4
		s-0.2-0.2-0.4-0.2h-2.1c-0.1,0-0.3,0-0.4-0.1c-0.1-0.1-0.1-0.2-0.1-0.4c0-0.1,0-0.3,0.1-0.4c0.1-0.1,0.2-0.1,0.4-0.1h2.1
		c0.1,0,0.3,0,0.4-0.1s0.2-0.2,0.2-0.4v-2h-3.7c-0.1,0-0.3,0-0.4-0.1s-0.1-0.2-0.1-0.4c0-0.1,0-0.3,0.1-0.4s0.2-0.1,0.4-0.1h3.7
		c0.3,0,0.5,0.1,0.7,0.3C503,231.5,503.1,231.8,503.1,232.1z"/>
	<path fill="#F17F21" d="M509.6,236v2.7c0,0.1,0,0.3-0.1,0.4s-0.2,0.1-0.4,0.1c-0.1,0-0.3,0-0.4-0.1s-0.1-0.2-0.1-0.4v-2.1H507
		c-0.1,0-0.3-0.1-0.4-0.2c-0.1-0.1-0.1-0.2-0.1-0.4c0-0.1,0.1-0.3,0.2-0.4c0.1-0.1,0.2-0.2,0.4-0.2h2.1c0.1,0,0.3,0.1,0.4,0.2
		S509.6,235.8,509.6,236z"/>
	<path fill="#F17F21" d="M522.4,238.1h2.4v-2.5h-3.1V231h3.6c0.1,0,0.3,0.1,0.4,0.2s0.2,0.2,0.2,0.4c0,0.1,0,0.3-0.1,0.4
		s-0.2,0.1-0.4,0.1h-2.6v2.5h2.1c0.3,0,0.5,0.1,0.7,0.3s0.3,0.4,0.3,0.7v2.5c0,0.3-0.1,0.5-0.3,0.7s-0.4,0.3-0.7,0.3h-2.4
		c-0.2,0-0.4-0.1-0.7-0.2l-0.8-0.3c-0.2-0.1-0.3-0.2-0.3-0.5c0-0.1,0-0.3,0.1-0.4c0.1-0.1,0.2-0.1,0.3-0.1c0.1,0,0.2,0,0.4,0.1
		l0.7,0.3C522.2,238.1,522.3,238.1,522.4,238.1z"/>
	<path fill="#F17F21" d="M532.7,239.1H528v-3.5c0-0.3,0.1-0.5,0.3-0.7c0.2-0.2,0.4-0.3,0.7-0.3h3.1v-2.5h-3.7c-0.1,0-0.3,0-0.4-0.1
		s-0.1-0.2-0.1-0.4c0-0.1,0-0.3,0.1-0.4s0.2-0.1,0.4-0.1h3.7c0.3,0,0.5,0.1,0.7,0.3c0.2,0.2,0.3,0.4,0.3,0.7v2.5
		c0,0.3-0.1,0.5-0.3,0.7s-0.4,0.3-0.7,0.3h-3.1v2.5h3.6c0.1,0,0.3,0,0.4,0.1s0.2,0.2,0.2,0.4c0,0.1-0.1,0.3-0.2,0.4
		S532.8,239.1,532.7,239.1z"/>
	<path fill="#F17F21" d="M537.6,235.9h1c0.1,0,0.3,0,0.4,0.1c0.1,0.1,0.2,0.2,0.2,0.4v0.9c0,0.1,0,0.3-0.1,0.4s-0.2,0.2-0.4,0.2h-1
		c-0.1,0-0.3-0.1-0.4-0.2s-0.1-0.2-0.1-0.4v-0.9c0-0.1,0.1-0.3,0.2-0.4C537.4,236,537.5,235.9,537.6,235.9z"/>
	<path fill="#F17F21" d="M545,238.1h2.4v-2.5h-3.1V231h3.6c0.1,0,0.3,0.1,0.4,0.2s0.2,0.2,0.2,0.4c0,0.1,0,0.3-0.1,0.4
		s-0.2,0.1-0.4,0.1h-2.6v2.5h2.1c0.3,0,0.5,0.1,0.7,0.3s0.3,0.4,0.3,0.7v2.5c0,0.3-0.1,0.5-0.3,0.7s-0.4,0.3-0.7,0.3H545
		c-0.2,0-0.4-0.1-0.7-0.2l-0.8-0.3c-0.2-0.1-0.3-0.2-0.3-0.5c0-0.1,0-0.3,0.1-0.4c0.1-0.1,0.2-0.1,0.3-0.1c0.1,0,0.2,0,0.4,0.1
		l0.7,0.3C544.8,238.1,544.9,238.1,545,238.1z"/>
	<path fill="#F17F21" d="M554.8,236v2.7c0,0.1,0,0.3-0.1,0.4s-0.2,0.1-0.4,0.1c-0.1,0-0.3,0-0.4-0.1s-0.1-0.2-0.1-0.4v-2.1h-1.6
		c-0.1,0-0.3-0.1-0.4-0.2s-0.1-0.2-0.1-0.4c0-0.1,0.1-0.3,0.2-0.4s0.2-0.2,0.4-0.2h2.1c0.1,0,0.3,0.1,0.4,0.2S554.8,235.8,554.8,236
		z"/>
	<path fill="#F17F21" d="M568.1,234.3v4.3c0,0.1-0.1,0.3-0.2,0.4s-0.2,0.1-0.4,0.1c-0.1,0-0.3,0-0.4-0.1s-0.2-0.2-0.2-0.4v-4.3h-0.5
		c-0.1,0-0.3-0.1-0.4-0.2c-0.1-0.1-0.1-0.2-0.1-0.4c0-0.1,0-0.3,0.1-0.4c0.1-0.1,0.2-0.2,0.4-0.2h0.5v-0.4c0-0.5,0.2-1,0.5-1.3
		s0.8-0.5,1.3-0.5h1.2c0.1,0,0.3,0.1,0.4,0.2s0.1,0.2,0.1,0.4c0,0.1-0.1,0.3-0.2,0.4s-0.2,0.2-0.4,0.2h-1.2c-0.2,0-0.4,0.1-0.6,0.2
		c-0.2,0.1-0.2,0.3-0.2,0.6v0.4h1c0.1,0,0.3,0,0.4,0.1c0.1,0.1,0.2,0.2,0.2,0.4c0,0.1-0.1,0.3-0.2,0.4c-0.1,0.1-0.2,0.2-0.4,0.2
		H568.1z"/>
	<path fill="#F17F21" d="M577.4,239.1h-3.1c-0.1,0-0.3-0.1-0.4-0.2s-0.1-0.2-0.1-0.4c0-0.1,0-0.3,0.1-0.4s0.2-0.2,0.4-0.2h1v-6h-1
		c-0.1,0-0.3,0-0.4-0.1s-0.1-0.2-0.1-0.4c0-0.1,0-0.3,0.1-0.4s0.2-0.1,0.4-0.1h1.6c0.1,0,0.3,0.1,0.4,0.2s0.2,0.2,0.2,0.4v6.5h1
		c0.1,0,0.3,0.1,0.4,0.2s0.2,0.2,0.2,0.4c0,0.1,0,0.3-0.1,0.4S577.5,239.1,577.4,239.1z"/>
	<path fill="#F17F21" d="M585.9,235.1v2.2c0,0.5-0.2,0.9-0.6,1.3s-0.9,0.6-1.3,0.6h-1.2c-0.5,0-0.9-0.2-1.3-0.6
		c-0.4-0.4-0.6-0.8-0.6-1.3v-2.2c0-0.4,0.2-0.9,0.6-1.3s0.9-0.6,1.4-0.6h1.2c0.5,0,0.9,0.2,1.3,0.6S585.9,234.6,585.9,235.1z
		 M581.8,235.1v2.1c0,0.2,0.1,0.3,0.2,0.4l0.4,0.3c0.1,0.1,0.2,0.1,0.4,0.1h1.2c0.2,0,0.3-0.1,0.5-0.2l0.3-0.3
		c0.1-0.1,0.2-0.2,0.2-0.4v-2.1c0-0.2-0.1-0.4-0.2-0.5l-0.4-0.3c-0.1-0.1-0.3-0.2-0.4-0.2h-1.1c-0.2,0-0.4,0.1-0.5,0.2l-0.3,0.3
		C581.9,234.8,581.8,235,581.8,235.1z"/>
	<path fill="#F17F21" d="M589.8,235.4h2c0.1,0,0.3,0,0.5,0.1l0-0.7c0-0.1,0-0.3-0.1-0.4s-0.2-0.1-0.4-0.1h-1.9
		c-0.1,0-0.3-0.1-0.4-0.2c-0.1-0.1-0.2-0.2-0.2-0.4c0-0.1,0-0.3,0.1-0.4s0.2-0.1,0.4-0.1h1.9c0.4,0,0.8,0.1,1.1,0.4
		c0.3,0.3,0.5,0.7,0.5,1.1l0.1,3.8c0,0.1-0.1,0.3-0.2,0.4s-0.2,0.1-0.4,0.1c-0.1,0-0.3,0-0.4-0.1c-0.1-0.1-0.2-0.2-0.2-0.4l-0.9,0.5
		h-1.7c-0.4,0-0.8-0.2-1.1-0.5c-0.3-0.3-0.5-0.7-0.5-1.1V237c0-0.4,0.2-0.8,0.5-1.1C589,235.6,589.4,235.4,589.8,235.4z
		 M592.4,237.4l0-0.4c0-0.1-0.1-0.3-0.2-0.4s-0.2-0.1-0.4-0.1h-2c-0.1,0-0.3,0-0.4,0.1s-0.1,0.2-0.1,0.4v0.6c0,0.1,0.1,0.3,0.2,0.4
		s0.2,0.2,0.4,0.2h1.4L592.4,237.4z"/>
	<path fill="#F17F21" d="M599.4,239.1h-1c-0.4,0-0.8-0.2-1.1-0.5c-0.3-0.3-0.5-0.7-0.5-1.1v-3.3h-0.5c-0.1,0-0.3,0-0.4-0.1
		c-0.1-0.1-0.1-0.2-0.1-0.4c0-0.1,0-0.3,0.1-0.4s0.2-0.1,0.4-0.1h0.5V232c0-0.1,0-0.3,0.1-0.4c0.1-0.1,0.2-0.1,0.4-0.1
		c0.1,0,0.3,0.1,0.4,0.2s0.2,0.2,0.2,0.4v1.3h2.1c0.1,0,0.3,0.1,0.4,0.2c0.1,0.1,0.2,0.2,0.2,0.4c0,0.1-0.1,0.3-0.2,0.4
		s-0.2,0.1-0.4,0.1h-2.1v3.3c0,0.1,0.1,0.3,0.2,0.4s0.2,0.2,0.4,0.2h1c0.3,0,0.5-0.1,0.5-0.4c0.1-0.3,0.3-0.4,0.5-0.4
		c0.2,0,0.3,0,0.4,0.1c0.1,0.1,0.1,0.2,0.1,0.4c0,0.3-0.1,0.6-0.4,0.9C600.3,239,599.9,239.1,599.4,239.1z"/>
	<path fill="#F17F21" d="M605.9,234.1v2c0,0.3,0.1,0.5,0.2,0.7l1.2,1.6c0.1,0.1,0.1,0.2,0.1,0.3c0,0.2-0.1,0.3-0.2,0.4
		s-0.2,0.1-0.4,0.1c-0.2,0-0.3-0.1-0.3-0.2l-1.2-1.6c-0.3-0.4-0.5-0.8-0.5-1.2V234c0-0.4,0.2-0.8,0.5-1.2l1.2-1.6
		c0.1-0.1,0.2-0.2,0.3-0.2c0.1,0,0.3,0,0.4,0.1c0.1,0.1,0.2,0.2,0.2,0.4c0,0.1,0,0.2-0.1,0.3l-1.2,1.5
		C606,233.6,605.9,233.8,605.9,234.1z"/>
	<path fill="#F17F21" d="M613,231h1c0.1,0,0.3,0.1,0.4,0.2c0.1,0.1,0.2,0.2,0.2,0.4c0,0,0,0.1,0,0.1l-1,3.5
		c-0.1,0.3-0.2,0.4-0.5,0.4c-0.2,0-0.3-0.1-0.4-0.2c-0.1-0.1-0.1-0.2-0.1-0.4v-3.4c0-0.2,0-0.3,0.1-0.4
		C612.7,231.1,612.8,231,613,231z"/>
	<path fill="#F17F21" d="M623.6,231.6v7.6h-1.4l-2.8-6.3v5.8c0,0.1,0,0.3-0.1,0.4c-0.1,0.1-0.2,0.1-0.4,0.1c-0.1,0-0.3,0-0.4-0.1
		c-0.1-0.1-0.1-0.2-0.1-0.4V231h1.4l2.8,6.3v-5.7c0-0.1,0.1-0.3,0.2-0.4s0.2-0.2,0.4-0.2c0.1,0,0.3,0.1,0.4,0.2
		C623.5,231.3,623.6,231.4,623.6,231.6z"/>
	<path fill="#F17F21" d="M627.5,235.4h2c0.1,0,0.3,0,0.5,0.1l0-0.7c0-0.1,0-0.3-0.1-0.4s-0.2-0.1-0.4-0.1h-1.9
		c-0.1,0-0.3-0.1-0.4-0.2s-0.2-0.2-0.2-0.4c0-0.1,0-0.3,0.1-0.4s0.2-0.1,0.4-0.1h1.9c0.4,0,0.8,0.1,1.1,0.4c0.3,0.3,0.5,0.7,0.5,1.1
		l0.1,3.8c0,0.1-0.1,0.3-0.2,0.4s-0.2,0.1-0.4,0.1c-0.1,0-0.3,0-0.4-0.1s-0.2-0.2-0.2-0.4l-0.9,0.5h-1.7c-0.4,0-0.8-0.2-1.1-0.5
		c-0.3-0.3-0.5-0.7-0.5-1.1V237c0-0.4,0.2-0.8,0.5-1.1C626.7,235.6,627.1,235.4,627.5,235.4z M630.1,237.4l0-0.4
		c0-0.1-0.1-0.3-0.2-0.4c-0.1-0.1-0.2-0.1-0.4-0.1h-2c-0.1,0-0.3,0-0.4,0.1s-0.1,0.2-0.1,0.4v0.6c0,0.1,0.1,0.3,0.2,0.4
		s0.2,0.2,0.4,0.2h1.4L630.1,237.4z"/>
	<path fill="#F17F21" d="M638.7,231.6v7.6h-1.4l-2.8-6.3v5.8c0,0.1,0,0.3-0.1,0.4s-0.2,0.1-0.4,0.1s-0.3,0-0.4-0.1s-0.1-0.2-0.1-0.4
		V231h1.4l2.8,6.3v-5.7c0-0.1,0.1-0.3,0.2-0.4s0.2-0.2,0.4-0.2c0.1,0,0.3,0.1,0.4,0.2S638.7,231.4,638.7,231.6z"/>
	<path fill="#F17F21" d="M643.1,231h1c0.1,0,0.3,0.1,0.4,0.2c0.1,0.1,0.2,0.2,0.2,0.4c0,0,0,0.1,0,0.1l-1,3.5
		c-0.1,0.3-0.2,0.4-0.5,0.4c-0.2,0-0.3-0.1-0.4-0.2c-0.1-0.1-0.1-0.2-0.1-0.4v-3.4c0-0.2,0-0.3,0.1-0.4
		C642.8,231.1,643,231,643.1,231z"/>
	<path fill="#F17F21" d="M651.2,236.1v-2c0-0.3-0.1-0.5-0.2-0.7l-1.2-1.5c-0.1-0.1-0.1-0.2-0.1-0.3c0-0.2,0.1-0.3,0.2-0.4
		c0.1-0.1,0.2-0.1,0.4-0.1c0.1,0,0.3,0.1,0.3,0.2l1.2,1.6c0.3,0.4,0.5,0.8,0.5,1.2v2.2c0,0.5-0.2,0.9-0.5,1.2l-1.2,1.6
		c-0.1,0.1-0.2,0.2-0.3,0.2c-0.1,0-0.3,0-0.4-0.1c-0.1-0.1-0.2-0.2-0.2-0.4c0-0.1,0-0.2,0.1-0.3l1.2-1.5
		C651.1,236.6,651.2,236.3,651.2,236.1z"/>
	<path fill="#F17F21" d="M660.2,236v2.7c0,0.1,0,0.3-0.1,0.4s-0.2,0.1-0.4,0.1c-0.1,0-0.3,0-0.4-0.1s-0.1-0.2-0.1-0.4v-2.1h-1.6
		c-0.1,0-0.3-0.1-0.4-0.2c-0.1-0.1-0.1-0.2-0.1-0.4c0-0.1,0.1-0.3,0.2-0.4c0.1-0.1,0.2-0.2,0.4-0.2h2.1c0.1,0,0.3,0.1,0.4,0.2
		S660.2,235.8,660.2,236z"/>
	<path fill="#F17F21" d="M674.5,238.6v-2.1h-3.1v-4.9c0-0.1,0.1-0.3,0.2-0.4s0.2-0.2,0.4-0.2c0.1,0,0.3,0.1,0.4,0.2s0.2,0.2,0.2,0.4
		v3.9h2v-3c0-0.1,0-0.3,0.1-0.4c0.1-0.1,0.2-0.2,0.4-0.2c0.1,0,0.3,0.1,0.4,0.2s0.1,0.2,0.1,0.4v3c0.1,0,0.3,0,0.4,0.1
		c0.1,0.1,0.1,0.2,0.1,0.4c0,0.1,0,0.3-0.1,0.4c-0.1,0.1-0.2,0.1-0.4,0.1v2.1c0,0.1-0.1,0.3-0.2,0.4s-0.2,0.1-0.4,0.1
		c-0.1,0-0.3,0-0.4-0.1C674.6,238.9,674.5,238.8,674.5,238.6z"/>
	<path fill="#F17F21" d="M678.7,232v-0.4c0-0.1,0-0.3,0.1-0.4c0.1-0.1,0.2-0.1,0.4-0.1h4.6v3.1c0,0.2-0.1,0.3-0.2,0.4l-1.9,1.6v2.4
		c0,0.1,0,0.3-0.1,0.4c-0.1,0.1-0.2,0.2-0.4,0.2c-0.1,0-0.3-0.1-0.4-0.2s-0.2-0.2-0.2-0.4V236c0-0.2,0.1-0.3,0.2-0.5l1.9-1.6v-1.9
		h-3.1c-0.1,0.3-0.2,0.4-0.5,0.4c-0.1,0-0.3,0-0.4-0.1S678.7,232.2,678.7,232z"/>
	<path fill="#F17F21" d="M688.3,235.9h1c0.1,0,0.3,0,0.4,0.1c0.1,0.1,0.2,0.2,0.2,0.4v0.9c0,0.1,0,0.3-0.1,0.4
		c-0.1,0.1-0.2,0.2-0.4,0.2h-1c-0.1,0-0.3-0.1-0.4-0.2s-0.1-0.2-0.1-0.4v-0.9c0-0.1,0-0.3,0.2-0.4C688,236,688.1,235.9,688.3,235.9z
		"/>
	<path fill="#F17F21" d="M693.7,238.1v-2.5c0-0.3,0.1-0.5,0.3-0.7c0.2-0.2,0.4-0.3,0.7-0.3v-3c0-0.1,0-0.3,0.1-0.4s0.2-0.1,0.4-0.1
		h2.1c0.1,0,0.3,0,0.4,0.1s0.1,0.2,0.1,0.4v3c0.3,0,0.5,0.1,0.7,0.3c0.2,0.2,0.3,0.4,0.3,0.7v2.5c0,0.3-0.1,0.5-0.3,0.7
		s-0.4,0.3-0.7,0.3h-3.1c-0.3,0-0.5-0.1-0.7-0.3S693.7,238.4,693.7,238.1z M694.8,235.6v2.5h3.1v-2.5H694.8z M695.8,232.1v2.5h1.1
		v-2.5H695.8z"/>
	<path fill="#F17F21" d="M703.8,232.1h-2c-0.1,0-0.3,0-0.4-0.1s-0.2-0.2-0.2-0.4c0-0.1,0.1-0.3,0.2-0.4s0.2-0.2,0.4-0.2h4.1
		c0.1,0,0.3,0,0.4,0.1s0.2,0.2,0.2,0.4v7.1c0,0.1-0.1,0.3-0.2,0.4s-0.2,0.1-0.4,0.1h-4.1c-0.1,0-0.3-0.1-0.4-0.2s-0.1-0.2-0.1-0.4
		c0-0.1,0-0.3,0.1-0.4c0.1-0.1,0.2-0.1,0.4-0.1h2V232.1z M704.9,232.1v6h0.5v-6H704.9z"/>
	<path fill="#F17F21" d="M164.3,249.8v0.4c0,0.2-0.1,0.4-0.3,0.5l-4,2.4c-0.1,0.1-0.2,0.1-0.3,0.1c-0.1,0-0.2,0-0.3-0.1
		s-0.2-0.2-0.2-0.4c0-0.2,0.1-0.3,0.2-0.4l3.8-2.2l-3.8-2.2c-0.2-0.1-0.2-0.2-0.2-0.4c0-0.2,0.1-0.3,0.2-0.4s0.2-0.1,0.3-0.1
		c0.1,0,0.2,0,0.3,0.1l4,2.4C164.2,249.5,164.3,249.6,164.3,249.8z"/>
	<path fill="#F17F21" d="M171.9,249.8v0.4c0,0.2-0.1,0.4-0.3,0.5l-4,2.4c-0.1,0.1-0.2,0.1-0.3,0.1c-0.1,0-0.2,0-0.4-0.1
		s-0.2-0.2-0.2-0.4c0-0.2,0.1-0.3,0.2-0.4l3.8-2.2l-3.8-2.2c-0.2-0.1-0.2-0.2-0.2-0.4c0-0.2,0.1-0.3,0.2-0.4s0.2-0.1,0.4-0.1
		c0.1,0,0.2,0,0.3,0.1l4,2.4C171.8,249.5,171.9,249.6,171.9,249.8z"/>
	<path fill="#F17F21" d="M179.4,249.8v0.4c0,0.2-0.1,0.4-0.3,0.5l-4,2.4c-0.1,0.1-0.2,0.1-0.3,0.1c-0.1,0-0.2,0-0.4-0.1
		s-0.2-0.2-0.2-0.4c0-0.2,0.1-0.3,0.2-0.4l3.8-2.2l-3.8-2.2c-0.2-0.1-0.2-0.2-0.2-0.4c0-0.2,0.1-0.3,0.2-0.4s0.2-0.1,0.4-0.1
		c0.1,0,0.2,0,0.3,0.1l4,2.4C179.3,249.5,179.4,249.6,179.4,249.8z"/>
	<path fill="#F17F21" d="M191.5,249.2v4.3c0,0.1-0.1,0.3-0.2,0.4s-0.2,0.1-0.4,0.1c-0.1,0-0.3,0-0.4-0.1s-0.2-0.2-0.2-0.4v-4.3h-0.5
		c-0.1,0-0.3-0.1-0.4-0.2c-0.1-0.1-0.1-0.2-0.1-0.4c0-0.1,0-0.3,0.1-0.4c0.1-0.1,0.2-0.2,0.4-0.2h0.5v-0.4c0-0.5,0.2-1,0.5-1.3
		s0.8-0.5,1.3-0.5h1.2c0.1,0,0.3,0.1,0.4,0.2s0.1,0.2,0.1,0.4c0,0.1-0.1,0.3-0.2,0.4s-0.2,0.2-0.4,0.2h-1.2c-0.2,0-0.4,0.1-0.6,0.2
		c-0.2,0.1-0.2,0.3-0.2,0.6v0.4h1c0.1,0,0.3,0,0.4,0.1c0.1,0.1,0.2,0.2,0.2,0.4c0,0.1-0.1,0.3-0.2,0.4c-0.1,0.1-0.2,0.2-0.4,0.2
		H191.5z"/>
	<path fill="#F17F21" d="M200.8,254.1h-3.1c-0.1,0-0.3,0-0.4-0.1s-0.1-0.2-0.1-0.4c0-0.1,0-0.3,0.1-0.4s0.2-0.2,0.4-0.2h1v-3.8h-1
		c-0.1,0-0.3-0.1-0.4-0.2s-0.1-0.2-0.1-0.4c0-0.1,0-0.3,0.1-0.4s0.2-0.2,0.4-0.2h1.6c0.1,0,0.3,0.1,0.4,0.2s0.1,0.2,0.1,0.4v4.3h1
		c0.1,0,0.3,0,0.4,0.1s0.2,0.2,0.2,0.4c0,0.1-0.1,0.3-0.2,0.4S200.9,254.1,200.8,254.1z M198.7,245.6h0.5c0.1,0,0.3,0,0.4,0.1
		c0.1,0.1,0.1,0.2,0.1,0.4v0.4c0,0.1,0,0.3-0.1,0.4s-0.2,0.2-0.4,0.2h-0.5c-0.1,0-0.3-0.1-0.4-0.2c-0.1-0.1-0.1-0.2-0.1-0.4l0-0.5
		c0-0.1,0-0.3,0.1-0.4C198.5,245.6,198.6,245.6,198.7,245.6z"/>
	<path fill="#F17F21" d="M208.3,254.1h-3.1c-0.1,0-0.3-0.1-0.4-0.2s-0.1-0.2-0.1-0.4c0-0.1,0-0.3,0.1-0.4s0.2-0.2,0.4-0.2h1v-6h-1
		c-0.1,0-0.3,0-0.4-0.1s-0.1-0.2-0.1-0.4c0-0.1,0-0.3,0.1-0.4s0.2-0.1,0.4-0.1h1.6c0.1,0,0.3,0.1,0.4,0.2s0.2,0.2,0.2,0.4v6.5h1
		c0.1,0,0.3,0.1,0.4,0.2s0.2,0.2,0.2,0.4c0,0.1,0,0.3-0.1,0.4S208.5,254.1,208.3,254.1z"/>
	<path fill="#F17F21" d="M215.3,254.1h-1c-0.4,0-0.8-0.2-1.1-0.5c-0.3-0.3-0.5-0.7-0.5-1.1v-3.3h-0.5c-0.1,0-0.3,0-0.4-0.1
		c-0.1-0.1-0.1-0.2-0.1-0.4c0-0.1,0-0.3,0.1-0.4s0.2-0.1,0.4-0.1h0.5V247c0-0.1,0-0.3,0.1-0.4c0.1-0.1,0.2-0.1,0.4-0.1
		c0.1,0,0.3,0.1,0.4,0.2s0.2,0.2,0.2,0.4v1.3h2.1c0.1,0,0.3,0.1,0.4,0.2c0.1,0.1,0.2,0.2,0.2,0.4c0,0.1-0.1,0.3-0.2,0.4
		s-0.2,0.1-0.4,0.1h-2.1v3.3c0,0.1,0.1,0.3,0.2,0.4s0.2,0.2,0.4,0.2h1c0.3,0,0.5-0.1,0.5-0.4c0.1-0.3,0.3-0.4,0.5-0.4
		c0.2,0,0.3,0,0.4,0.1c0.1,0.1,0.1,0.2,0.1,0.4c0,0.3-0.1,0.6-0.4,0.9C216.1,253.9,215.8,254.1,215.3,254.1z"/>
	<path fill="#F17F21" d="M224.4,250.2v1.2c0,0.1-0.1,0.3-0.2,0.4s-0.2,0.2-0.4,0.2h-3.6v0.3c0,0.2,0.1,0.3,0.2,0.4l0.3,0.2
		c0.2,0.1,0.3,0.2,0.5,0.2h2.6c0.1,0,0.3,0,0.4,0.1c0.1,0.1,0.2,0.2,0.2,0.4c0,0.1-0.1,0.3-0.2,0.4s-0.2,0.2-0.4,0.2h-2.7
		c-0.2,0-0.4,0-0.6-0.1c-0.2-0.1-0.3-0.2-0.4-0.2l-0.5-0.4c-0.1-0.1-0.3-0.3-0.4-0.5c-0.1-0.2-0.1-0.4-0.1-0.6V250
		c0-0.1,0.1-0.3,0.2-0.5s0.2-0.4,0.4-0.5l0.4-0.3c0.3-0.2,0.6-0.3,0.9-0.3h1.4c0.4,0,0.7,0.1,1,0.5l0.4,0.4
		C224.3,249.3,224.4,249.7,224.4,250.2z M220.3,250.1v0.8h3.1v-0.7c0-0.2-0.1-0.3-0.2-0.4l-0.3-0.3c-0.2-0.1-0.3-0.2-0.4-0.2h-1.3
		c-0.2,0-0.3,0.1-0.4,0.2l-0.3,0.2C220.4,249.8,220.3,249.9,220.3,250.1z"/>
	<path fill="#F17F21" d="M226.8,253.6v-4.9c0-0.1,0-0.3,0.1-0.4c0.1-0.1,0.2-0.2,0.4-0.2c0.1,0,0.3,0.1,0.4,0.2
		c0.1,0.1,0.1,0.2,0.1,0.4v0.6l0.8-0.7c0.3-0.3,0.7-0.4,1-0.4h0.7c0.4,0,0.8,0.1,1.1,0.5s0.5,0.7,0.5,1.1v0.3c0,0.1,0,0.3-0.1,0.4
		c-0.1,0.1-0.2,0.2-0.4,0.2c-0.1,0-0.3,0-0.4-0.1s-0.1-0.2-0.1-0.4v-0.3c0-0.1,0-0.3-0.1-0.4s-0.2-0.1-0.4-0.1h-0.7
		c-0.1,0-0.3,0.1-0.5,0.2l-1.5,1.3v2.9c0,0.1-0.1,0.3-0.2,0.4s-0.2,0.1-0.4,0.1c-0.1,0-0.3,0-0.4-0.1
		C226.8,253.9,226.8,253.7,226.8,253.6z"/>
	<path fill="#F17F21" d="M239.5,250.2v1.2c0,0.1-0.1,0.3-0.2,0.4c-0.1,0.1-0.2,0.2-0.4,0.2h-3.6v0.3c0,0.2,0.1,0.3,0.2,0.4l0.3,0.2
		c0.2,0.1,0.3,0.2,0.5,0.2h2.6c0.1,0,0.3,0,0.4,0.1c0.1,0.1,0.2,0.2,0.2,0.4c0,0.1-0.1,0.3-0.2,0.4s-0.2,0.2-0.4,0.2h-2.7
		c-0.2,0-0.4,0-0.6-0.1s-0.3-0.2-0.4-0.2l-0.5-0.4c-0.1-0.1-0.3-0.3-0.4-0.5c-0.1-0.2-0.1-0.4-0.1-0.6V250c0-0.1,0.1-0.3,0.2-0.5
		s0.2-0.4,0.4-0.5l0.4-0.3c0.3-0.2,0.6-0.3,0.9-0.3h1.4c0.4,0,0.7,0.1,1,0.5l0.4,0.4C239.3,249.3,239.5,249.7,239.5,250.2z
		 M235.4,250.1v0.8h3.1v-0.7c0-0.2-0.1-0.3-0.2-0.4l-0.3-0.3c-0.2-0.1-0.3-0.2-0.4-0.2h-1.3c-0.2,0-0.3,0.1-0.4,0.2l-0.3,0.2
		C235.4,249.8,235.4,249.9,235.4,250.1z"/>
	<path fill="#F17F21" d="M246,248.9v-2.4c0-0.1,0-0.3,0.1-0.4c0.1-0.1,0.2-0.1,0.4-0.1c0.1,0,0.3,0,0.4,0.1s0.2,0.2,0.2,0.4v7.1
		c0,0.1-0.1,0.3-0.2,0.4c-0.1,0.1-0.2,0.1-0.4,0.1c-0.1,0-0.3,0-0.4-0.1c-0.1-0.1-0.1-0.2-0.1-0.4v-0.2c-0.5,0.5-1,0.7-1.4,0.7h-0.9
		c-0.3,0-0.7-0.2-1-0.5l-0.4-0.4c-0.1-0.1-0.2-0.2-0.3-0.5c-0.1-0.2-0.1-0.4-0.1-0.6v-2.1c0-0.2,0-0.5,0.1-0.7
		c0.1-0.2,0.2-0.4,0.3-0.5l0.4-0.4c0.3-0.3,0.7-0.4,1.1-0.4h0.7c0.4,0,0.8,0.1,1.1,0.4L246,248.9z M244.5,249.2h-0.7
		c-0.2,0-0.3,0.1-0.4,0.2l-0.3,0.3c-0.1,0.1-0.2,0.2-0.2,0.4v2.2c0,0.1,0.1,0.3,0.2,0.4l0.3,0.3c0.1,0.1,0.2,0.1,0.3,0.1h0.8
		c0.1,0,0.2-0.1,0.4-0.2l0.8-0.7c0.1-0.1,0.2-0.3,0.2-0.4v-1.1c0-0.2-0.1-0.4-0.2-0.5l-0.8-0.7C244.8,249.3,244.7,249.2,244.5,249.2
		z"/>
	<path fill="#F17F21" d="M255.7,255.7h-7.7v-1h7.7V255.7z"/>
	<path fill="#F17F21" d="M261,248.9v-2.4c0-0.1,0-0.3,0.1-0.4s0.2-0.1,0.4-0.1c0.1,0,0.3,0,0.4,0.1s0.2,0.2,0.2,0.4v7.1
		c0,0.1-0.1,0.3-0.2,0.4s-0.2,0.1-0.4,0.1c-0.1,0-0.3,0-0.4-0.1s-0.1-0.2-0.1-0.4v-0.2c-0.5,0.5-1,0.7-1.4,0.7h-0.9
		c-0.3,0-0.7-0.2-1-0.5l-0.4-0.4c-0.1-0.1-0.2-0.2-0.3-0.5c-0.1-0.2-0.1-0.4-0.1-0.6v-2.1c0-0.2,0-0.5,0.1-0.7s0.2-0.4,0.3-0.5
		l0.4-0.4c0.3-0.3,0.7-0.4,1.1-0.4h0.7c0.4,0,0.8,0.1,1.1,0.4L261,248.9z M259.6,249.2h-0.7c-0.2,0-0.3,0.1-0.4,0.2l-0.3,0.3
		c-0.1,0.1-0.2,0.2-0.2,0.4v2.2c0,0.1,0.1,0.3,0.2,0.4l0.3,0.3c0.1,0.1,0.2,0.1,0.3,0.1h0.8c0.1,0,0.2-0.1,0.4-0.2l0.8-0.7
		c0.1-0.1,0.2-0.3,0.2-0.4v-1.1c0-0.2-0.1-0.4-0.2-0.5l-0.8-0.7C259.9,249.3,259.7,249.2,259.6,249.2z"/>
	<path fill="#F17F21" d="M266,250.4h2c0.1,0,0.3,0,0.5,0.1l0-0.7c0-0.1,0-0.3-0.1-0.4s-0.2-0.1-0.4-0.1H266c-0.1,0-0.3-0.1-0.4-0.2
		s-0.2-0.2-0.2-0.4c0-0.1,0-0.3,0.1-0.4s0.2-0.1,0.4-0.1h1.9c0.4,0,0.8,0.1,1.1,0.4c0.3,0.3,0.5,0.7,0.5,1.1l0.1,3.8
		c0,0.1-0.1,0.3-0.2,0.4s-0.2,0.1-0.4,0.1c-0.1,0-0.3,0-0.4-0.1s-0.2-0.2-0.2-0.4l-0.9,0.5H266c-0.4,0-0.8-0.2-1.1-0.5
		c-0.3-0.3-0.5-0.7-0.5-1.1V252c0-0.4,0.2-0.8,0.5-1.1C265.2,250.6,265.6,250.4,266,250.4z M268.5,252.4l0-0.4
		c0-0.1-0.1-0.3-0.2-0.4c-0.1-0.1-0.2-0.1-0.4-0.1h-2c-0.1,0-0.3,0-0.4,0.1s-0.1,0.2-0.1,0.4v0.6c0,0.1,0.1,0.3,0.2,0.4
		s0.2,0.2,0.4,0.2h1.4L268.5,252.4z"/>
	<path fill="#F17F21" d="M275.6,254.1h-1c-0.4,0-0.8-0.2-1.1-0.5c-0.3-0.3-0.5-0.7-0.5-1.1v-3.3h-0.5c-0.1,0-0.3,0-0.4-0.1
		c-0.1-0.1-0.1-0.2-0.1-0.4c0-0.1,0-0.3,0.1-0.4c0.1-0.1,0.2-0.1,0.4-0.1h0.5V247c0-0.1,0-0.3,0.1-0.4s0.2-0.1,0.4-0.1
		c0.1,0,0.3,0.1,0.4,0.2s0.2,0.2,0.2,0.4v1.3h2.1c0.1,0,0.3,0.1,0.4,0.2c0.1,0.1,0.2,0.2,0.2,0.4c0,0.1-0.1,0.3-0.2,0.4
		s-0.2,0.1-0.4,0.1H274v3.3c0,0.1,0.1,0.3,0.2,0.4s0.2,0.2,0.4,0.2h1c0.3,0,0.5-0.1,0.5-0.4c0.1-0.3,0.3-0.4,0.5-0.4
		c0.1,0,0.3,0,0.4,0.1s0.1,0.2,0.1,0.4c0,0.3-0.1,0.6-0.4,0.9C276.4,253.9,276,254.1,275.6,254.1z"/>
	<path fill="#F17F21" d="M281,250.4h2c0.1,0,0.3,0,0.5,0.1l0-0.7c0-0.1,0-0.3-0.1-0.4s-0.2-0.1-0.4-0.1h-1.9c-0.1,0-0.3-0.1-0.4-0.2
		c-0.1-0.1-0.2-0.2-0.2-0.4c0-0.1,0-0.3,0.1-0.4s0.2-0.1,0.4-0.1h1.9c0.4,0,0.8,0.1,1.1,0.4c0.3,0.3,0.5,0.7,0.5,1.1l0.1,3.8
		c0,0.1-0.1,0.3-0.2,0.4s-0.2,0.1-0.4,0.1c-0.1,0-0.3,0-0.4-0.1c-0.1-0.1-0.2-0.2-0.2-0.4l-0.9,0.5H281c-0.4,0-0.8-0.2-1.1-0.5
		c-0.3-0.3-0.5-0.7-0.5-1.1V252c0-0.4,0.2-0.8,0.5-1.1C280.3,250.6,280.6,250.4,281,250.4z M283.6,252.4l0-0.4
		c0-0.1-0.1-0.3-0.2-0.4s-0.2-0.1-0.4-0.1h-2c-0.1,0-0.3,0-0.4,0.1s-0.1,0.2-0.1,0.4v0.6c0,0.1,0.1,0.3,0.2,0.4s0.2,0.2,0.4,0.2h1.4
		L283.6,252.4z"/>
	<path fill="#F17F21" d="M299.2,249.2h-4.1c-0.1,0-0.3,0-0.4-0.2s-0.2-0.2-0.2-0.4s0.1-0.3,0.2-0.4s0.2-0.2,0.4-0.2h4.1
		c0.1,0,0.3,0,0.4,0.1c0.1,0.1,0.1,0.2,0.1,0.4c0,0.1,0,0.3-0.1,0.4C299.5,249.2,299.4,249.2,299.2,249.2z M299.2,251.4h-4.1
		c-0.1,0-0.3-0.1-0.4-0.2s-0.2-0.2-0.2-0.4c0-0.1,0.1-0.3,0.2-0.4c0.1-0.1,0.2-0.1,0.4-0.1h4.1c0.1,0,0.3,0.1,0.4,0.2
		c0.1,0.1,0.2,0.2,0.2,0.4c0,0.1,0,0.3-0.1,0.4C299.5,251.4,299.4,251.4,299.2,251.4z"/>
	<path fill="#F17F21" d="M312.2,253.1h2.1c0.1,0,0.3,0,0.4,0.1c0.1,0.1,0.1,0.2,0.1,0.4c0,0.1,0,0.3-0.1,0.4
		c-0.1,0.1-0.2,0.1-0.4,0.1h-4.1c-0.1,0-0.3-0.1-0.4-0.2s-0.2-0.2-0.2-0.4v-7.1c0-0.1,0-0.3,0.1-0.4c0.1-0.1,0.2-0.2,0.4-0.2h4.1
		c0.1,0,0.3,0.1,0.4,0.2c0.1,0.1,0.2,0.2,0.2,0.4c0,0.1,0,0.3-0.1,0.4c-0.1,0.1-0.2,0.2-0.4,0.2h-2.1V253.1z M311.2,253.1v-6h-0.5v6
		H311.2z"/>
	<path fill="#F17F21" d="M319.7,247h-2c-0.1,0-0.3,0-0.4-0.1s-0.2-0.2-0.2-0.4c0-0.1,0.1-0.3,0.2-0.4s0.2-0.2,0.4-0.2h4.1
		c0.1,0,0.3,0,0.4,0.1s0.2,0.2,0.2,0.4v7.1c0,0.1-0.1,0.3-0.2,0.4s-0.2,0.1-0.4,0.1h-4.1c-0.1,0-0.3-0.1-0.4-0.2s-0.1-0.2-0.1-0.4
		c0-0.1,0-0.3,0.1-0.4c0.1-0.1,0.2-0.1,0.4-0.1h2V247z M320.8,247v6h0.5v-6H320.8z"/>
</g>
<g>
	<path fill="#F17F21" d="M165.6,891h1c0.1,0,0.3,0,0.4,0.1c0.1,0.1,0.2,0.2,0.2,0.4v0.9c0,0.1,0,0.3-0.1,0.4
		c-0.1,0.1-0.2,0.2-0.4,0.2h-1c-0.1,0-0.3-0.1-0.4-0.2s-0.1-0.2-0.1-0.4v-0.9c0-0.1,0.1-0.3,0.2-0.4C165.4,891,165.5,891,165.6,891z
		"/>
	<path fill="#F17F21" d="M173.2,891h1c0.1,0,0.3,0,0.4,0.1c0.1,0.1,0.2,0.2,0.2,0.4v0.9c0,0.1,0,0.3-0.1,0.4
		c-0.1,0.1-0.2,0.2-0.4,0.2h-1c-0.1,0-0.3-0.1-0.4-0.2s-0.1-0.2-0.1-0.4v-0.9c0-0.1,0.1-0.3,0.2-0.4C172.9,891,173,891,173.2,891z"
		/>
	<path fill="#F17F21" d="M180.7,891h1c0.1,0,0.3,0,0.4,0.1c0.1,0.1,0.2,0.2,0.2,0.4v0.9c0,0.1,0,0.3-0.1,0.4
		c-0.1,0.1-0.2,0.2-0.4,0.2h-1c-0.1,0-0.3-0.1-0.4-0.2s-0.1-0.2-0.1-0.4v-0.9c0-0.1,0.1-0.3,0.2-0.4C180.4,891,180.5,891,180.7,891z
		"/>
	<path fill="#F17F21" d="M223.8,893.7v-4.9c0-0.1,0-0.3,0.1-0.4c0.1-0.1,0.2-0.2,0.4-0.2c0.1,0,0.3,0.1,0.4,0.2
		c0.1,0.1,0.1,0.2,0.1,0.4v0.6l0.8-0.7c0.3-0.3,0.7-0.4,1-0.4h0.7c0.4,0,0.8,0.1,1.1,0.5c0.3,0.3,0.5,0.7,0.5,1.1v0.3
		c0,0.1,0,0.3-0.1,0.4c-0.1,0.1-0.2,0.2-0.4,0.2s-0.3,0-0.4-0.1s-0.1-0.2-0.1-0.4v-0.3c0-0.1,0-0.3-0.1-0.4s-0.2-0.1-0.4-0.1h-0.7
		c-0.1,0-0.3,0.1-0.5,0.2l-1.5,1.3v2.9c0,0.1-0.1,0.3-0.2,0.4s-0.2,0.1-0.4,0.1c-0.1,0-0.3,0-0.4-0.1
		C223.9,894,223.8,893.9,223.8,893.7z"/>
	<path fill="#F17F21" d="M236.5,890.3v1.2c0,0.1-0.1,0.3-0.2,0.4c-0.1,0.1-0.2,0.2-0.4,0.2h-3.6v0.3c0,0.2,0.1,0.3,0.2,0.4l0.3,0.2
		c0.2,0.1,0.3,0.2,0.5,0.2h2.6c0.1,0,0.3,0,0.4,0.1c0.1,0.1,0.2,0.2,0.2,0.4c0,0.1-0.1,0.3-0.2,0.4s-0.2,0.2-0.4,0.2h-2.7
		c-0.2,0-0.4,0-0.6-0.1c-0.2-0.1-0.3-0.2-0.4-0.2l-0.5-0.4c-0.1-0.1-0.3-0.3-0.4-0.5s-0.1-0.4-0.1-0.6v-2.3c0-0.1,0.1-0.3,0.2-0.5
		s0.2-0.4,0.4-0.5l0.4-0.3c0.3-0.2,0.6-0.3,0.9-0.3h1.4c0.4,0,0.7,0.1,1,0.5l0.4,0.4C236.4,889.4,236.5,889.8,236.5,890.3z
		 M232.4,890.2v0.8h3.1v-0.7c0-0.2-0.1-0.3-0.2-0.4l-0.3-0.3c-0.2-0.1-0.3-0.2-0.4-0.2h-1.3c-0.2,0-0.3,0.1-0.4,0.2l-0.3,0.2
		C232.5,889.9,232.4,890,232.4,890.2z"/>
	<path fill="#F17F21" d="M241.2,889.4v4.3c0,0.1-0.1,0.3-0.2,0.4s-0.2,0.1-0.4,0.1c-0.1,0-0.3,0-0.4-0.1s-0.2-0.2-0.2-0.4v-4.3h-0.5
		c-0.1,0-0.3-0.1-0.4-0.2c-0.1-0.1-0.1-0.2-0.1-0.4c0-0.1,0-0.3,0.1-0.4c0.1-0.1,0.2-0.2,0.4-0.2h0.5V888c0-0.5,0.2-1,0.5-1.3
		c0.4-0.3,0.8-0.5,1.3-0.5h1.2c0.1,0,0.3,0.1,0.4,0.2c0.1,0.1,0.1,0.2,0.1,0.4c0,0.1-0.1,0.3-0.2,0.4s-0.2,0.2-0.4,0.2h-1.2
		c-0.2,0-0.4,0.1-0.6,0.2c-0.2,0.1-0.2,0.3-0.2,0.6v0.4h1c0.1,0,0.3,0,0.4,0.1c0.1,0.1,0.2,0.2,0.2,0.4c0,0.1-0.1,0.3-0.2,0.4
		c-0.1,0.1-0.2,0.2-0.4,0.2H241.2z"/>
	<path fill="#F17F21" d="M252.8,895.8h-7.7v-1h7.7V895.8z"/>
	<path fill="#F17F21" d="M257.6,894.2h-1c-0.4,0-0.8-0.2-1.1-0.5c-0.3-0.3-0.5-0.7-0.5-1.1v-3.3h-0.5c-0.1,0-0.3,0-0.4-0.1
		c-0.1-0.1-0.1-0.2-0.1-0.4c0-0.1,0-0.3,0.1-0.4c0.1-0.1,0.2-0.1,0.4-0.1h0.5v-1.3c0-0.1,0-0.3,0.1-0.4c0.1-0.1,0.2-0.1,0.4-0.1
		c0.1,0,0.3,0.1,0.4,0.2s0.2,0.2,0.2,0.4v1.3h2.1c0.1,0,0.3,0.1,0.4,0.2c0.1,0.1,0.2,0.2,0.2,0.4c0,0.1-0.1,0.3-0.2,0.4
		s-0.2,0.1-0.4,0.1H256v3.3c0,0.1,0.1,0.3,0.2,0.4s0.2,0.2,0.4,0.2h1c0.3,0,0.5-0.1,0.5-0.4c0.1-0.3,0.3-0.4,0.5-0.4
		c0.1,0,0.3,0,0.4,0.1c0.1,0.1,0.1,0.2,0.1,0.4c0,0.3-0.1,0.6-0.4,0.9C258.4,894.1,258,894.2,257.6,894.2z"/>
	<path fill="#F17F21" d="M261.5,893.7v-4.9c0-0.1,0-0.3,0.1-0.4c0.1-0.1,0.2-0.2,0.4-0.2c0.1,0,0.3,0.1,0.4,0.2
		c0.1,0.1,0.1,0.2,0.1,0.4v0.6l0.8-0.7c0.3-0.3,0.7-0.4,1-0.4h0.7c0.4,0,0.8,0.1,1.1,0.5c0.3,0.3,0.5,0.7,0.5,1.1v0.3
		c0,0.1,0,0.3-0.1,0.4c-0.1,0.1-0.2,0.2-0.4,0.2s-0.3,0-0.4-0.1s-0.1-0.2-0.1-0.4v-0.3c0-0.1,0-0.3-0.1-0.4s-0.2-0.1-0.4-0.1h-0.7
		c-0.1,0-0.3,0.1-0.5,0.2l-1.5,1.3v2.9c0,0.1-0.1,0.3-0.2,0.4s-0.2,0.1-0.4,0.1c-0.1,0-0.3,0-0.4-0.1
		C261.5,894,261.5,893.9,261.5,893.7z"/>
	<path fill="#F17F21" d="M270.6,890.5h2c0.1,0,0.3,0,0.5,0.1l0-0.7c0-0.1,0-0.3-0.1-0.4s-0.2-0.1-0.4-0.1h-1.9
		c-0.1,0-0.3-0.1-0.4-0.2c-0.1-0.1-0.2-0.2-0.2-0.4c0-0.1,0-0.3,0.1-0.4s0.2-0.1,0.4-0.1h1.9c0.4,0,0.8,0.1,1.1,0.4
		c0.3,0.3,0.5,0.7,0.5,1.1l0.1,3.8c0,0.1-0.1,0.3-0.2,0.4s-0.2,0.1-0.4,0.1c-0.1,0-0.3,0-0.4-0.1c-0.1-0.1-0.2-0.2-0.2-0.4l-0.9,0.5
		h-1.7c-0.4,0-0.8-0.2-1.1-0.5c-0.3-0.3-0.5-0.7-0.5-1.1v-0.6c0-0.4,0.2-0.8,0.5-1.1C269.8,890.7,270.1,890.5,270.6,890.5z
		 M273.1,892.5l0-0.4c0-0.1-0.1-0.3-0.2-0.4c-0.1-0.1-0.2-0.1-0.4-0.1h-2c-0.1,0-0.3,0-0.4,0.1s-0.1,0.2-0.1,0.4v0.6
		c0,0.1,0.1,0.3,0.2,0.4s0.2,0.2,0.4,0.2h1.4L273.1,892.5z"/>
	<path fill="#F17F21" d="M279,889.5l-1.4,0.9v3.3c0,0.1-0.1,0.3-0.2,0.4s-0.2,0.2-0.4,0.2c-0.1,0-0.3-0.1-0.4-0.2s-0.2-0.2-0.2-0.4
		v-4.9c0-0.1,0-0.3,0.1-0.4c0.1-0.1,0.2-0.2,0.4-0.2c0.1,0,0.3,0.1,0.4,0.2s0.2,0.2,0.2,0.4v0.3l0.9-0.6c0.3-0.2,0.7-0.3,1.1-0.3
		h0.5c0.4,0,0.8,0.1,1.1,0.4c0.3,0.3,0.5,0.6,0.5,1.1l0.1,3.9c0,0.1,0,0.3-0.1,0.4c-0.1,0.1-0.2,0.2-0.4,0.2c-0.1,0-0.3,0-0.4-0.1
		c-0.1-0.1-0.2-0.2-0.2-0.4l-0.2-3.8c0-0.4-0.2-0.5-0.6-0.5h-0.5C279.3,889.4,279.2,889.4,279,889.5z"/>
	<path fill="#F17F21" d="M285.5,888.4h2.3c0.4,0,0.7,0.1,1,0.3c0.3,0.2,0.4,0.4,0.4,0.6c0,0.1-0.1,0.3-0.2,0.4
		c-0.1,0.1-0.2,0.1-0.3,0.1c-0.2,0-0.3-0.1-0.4-0.2c-0.1-0.1-0.3-0.2-0.4-0.2h-2.3c-0.2,0-0.3,0.1-0.3,0.3c0,0.1,0.1,0.2,0.2,0.3
		l2.7,1.2c0.3,0.1,0.5,0.3,0.7,0.6c0.2,0.3,0.3,0.6,0.3,0.9c0,0.4-0.2,0.8-0.5,1.1c-0.3,0.3-0.7,0.5-1.1,0.5h-2.1
		c-0.4,0-0.7-0.1-1-0.3c-0.3-0.2-0.5-0.4-0.5-0.6c0-0.1,0-0.3,0.1-0.4c0.1-0.1,0.2-0.2,0.4-0.2c0.1,0,0.3,0.1,0.4,0.2
		c0.1,0.1,0.4,0.2,0.6,0.2h1.9c0.2,0,0.3-0.1,0.4-0.2c0.1-0.1,0.2-0.2,0.2-0.4c0-0.2-0.1-0.4-0.3-0.5l-2.7-1.2
		c-0.3-0.1-0.5-0.3-0.6-0.5s-0.2-0.5-0.2-0.7c0-0.4,0.1-0.7,0.4-1C284.8,888.5,285.1,888.4,285.5,888.4z"/>
	<path fill="#F17F21" d="M293.1,890.5h2c0.1,0,0.3,0,0.5,0.1l0-0.7c0-0.1,0-0.3-0.1-0.4s-0.2-0.1-0.4-0.1h-1.9
		c-0.1,0-0.3-0.1-0.4-0.2c-0.1-0.1-0.2-0.2-0.2-0.4c0-0.1,0-0.3,0.1-0.4s0.2-0.1,0.4-0.1h1.9c0.4,0,0.8,0.1,1.1,0.4
		c0.3,0.3,0.5,0.7,0.5,1.1l0.1,3.8c0,0.1-0.1,0.3-0.2,0.4s-0.2,0.1-0.4,0.1c-0.1,0-0.3,0-0.4-0.1c-0.1-0.1-0.2-0.2-0.2-0.4l-0.9,0.5
		h-1.7c-0.4,0-0.8-0.2-1.1-0.5c-0.3-0.3-0.5-0.7-0.5-1.1v-0.6c0-0.4,0.2-0.8,0.5-1.1C292.4,890.7,292.7,890.5,293.1,890.5z
		 M295.7,892.5l0-0.4c0-0.1-0.1-0.3-0.2-0.4c-0.1-0.1-0.2-0.1-0.4-0.1h-2c-0.1,0-0.3,0-0.4,0.1s-0.1,0.2-0.1,0.4v0.6
		c0,0.1,0.1,0.3,0.2,0.4s0.2,0.2,0.4,0.2h1.4L295.7,892.5z"/>
	<path fill="#F17F21" d="M303.8,894.2h-2.2c-0.4,0-0.7-0.1-1-0.3l-1-0.9c-0.3-0.3-0.5-0.6-0.5-1.1v-1.3c0-0.4,0.2-0.8,0.5-1.1
		l0.9-0.8c0.3-0.2,0.6-0.4,0.9-0.4h2.3c0.1,0,0.3,0,0.4,0.1c0.1,0.1,0.1,0.2,0.1,0.4c0,0.1,0,0.3-0.1,0.4c-0.1,0.1-0.2,0.1-0.4,0.1
		h-2.2c-0.1,0-0.3,0.1-0.4,0.2l-0.8,0.7c-0.1,0.1-0.2,0.3-0.2,0.5v1.2c0,0.1,0.1,0.2,0.2,0.3l0.9,0.8c0.1,0.1,0.3,0.2,0.5,0.2h2.1
		c0.1,0,0.3,0,0.4,0.1c0.1,0.1,0.2,0.2,0.2,0.4c0,0.1,0,0.3-0.1,0.4C304.1,894.2,303.9,894.2,303.8,894.2z"/>
	<path fill="#F17F21" d="M310.3,894.2h-1c-0.4,0-0.8-0.2-1.1-0.5c-0.3-0.3-0.5-0.7-0.5-1.1v-3.3h-0.5c-0.1,0-0.3,0-0.4-0.1
		c-0.1-0.1-0.1-0.2-0.1-0.4c0-0.1,0-0.3,0.1-0.4c0.1-0.1,0.2-0.1,0.4-0.1h0.5v-1.3c0-0.1,0-0.3,0.1-0.4c0.1-0.1,0.2-0.1,0.4-0.1
		c0.1,0,0.3,0.1,0.4,0.2s0.2,0.2,0.2,0.4v1.3h2.1c0.1,0,0.3,0.1,0.4,0.2c0.1,0.1,0.2,0.2,0.2,0.4c0,0.1-0.1,0.3-0.2,0.4
		s-0.2,0.1-0.4,0.1h-2.1v3.3c0,0.1,0.1,0.3,0.2,0.4s0.2,0.2,0.4,0.2h1c0.3,0,0.5-0.1,0.5-0.4c0.1-0.3,0.3-0.4,0.5-0.4
		c0.1,0,0.3,0,0.4,0.1c0.1,0.1,0.1,0.2,0.1,0.4c0,0.3-0.1,0.6-0.4,0.9C311.1,894.1,310.7,894.2,310.3,894.2z"/>
	<path fill="#F17F21" d="M318.3,894.2h-3.1c-0.1,0-0.3,0-0.4-0.1s-0.1-0.2-0.1-0.4c0-0.1,0-0.3,0.1-0.4s0.2-0.2,0.4-0.2h1v-3.8h-1
		c-0.1,0-0.3-0.1-0.4-0.2s-0.1-0.2-0.1-0.4c0-0.1,0-0.3,0.1-0.4s0.2-0.2,0.4-0.2h1.6c0.1,0,0.3,0.1,0.4,0.2s0.1,0.2,0.1,0.4v4.3h1
		c0.1,0,0.3,0,0.4,0.1s0.2,0.2,0.2,0.4c0,0.1-0.1,0.3-0.2,0.4S318.5,894.2,318.3,894.2z M316.3,885.7h0.5c0.1,0,0.3,0,0.4,0.1
		c0.1,0.1,0.1,0.2,0.1,0.4v0.4c0,0.1,0,0.3-0.1,0.4s-0.2,0.2-0.4,0.2h-0.5c-0.1,0-0.3-0.1-0.4-0.2c-0.1-0.1-0.1-0.2-0.1-0.4l0-0.5
		c0-0.1,0-0.3,0.1-0.4C316,885.7,316.1,885.7,316.3,885.7z"/>
	<path fill="#F17F21" d="M326.9,890.2v2.2c0,0.5-0.2,0.9-0.6,1.3c-0.4,0.4-0.9,0.6-1.3,0.6h-1.2c-0.5,0-0.9-0.2-1.3-0.6
		c-0.4-0.4-0.6-0.8-0.6-1.3v-2.2c0-0.4,0.2-0.9,0.6-1.3s0.9-0.6,1.4-0.6h1.2c0.5,0,0.9,0.2,1.3,0.6
		C326.7,889.3,326.9,889.7,326.9,890.2z M322.8,890.2v2.1c0,0.2,0.1,0.3,0.2,0.4l0.4,0.3c0.1,0.1,0.2,0.1,0.4,0.1h1.2
		c0.2,0,0.3-0.1,0.5-0.2l0.3-0.3c0.1-0.1,0.2-0.2,0.2-0.4v-2.1c0-0.2-0.1-0.4-0.2-0.5l-0.4-0.3c-0.1-0.1-0.3-0.2-0.4-0.2h-1.1
		c-0.2,0-0.4,0.1-0.5,0.2l-0.3,0.3C322.8,889.9,322.8,890.1,322.8,890.2z"/>
	<path fill="#F17F21" d="M331.7,889.5l-1.4,0.9v3.3c0,0.1-0.1,0.3-0.2,0.4s-0.2,0.2-0.4,0.2c-0.1,0-0.3-0.1-0.4-0.2
		s-0.2-0.2-0.2-0.4v-4.9c0-0.1,0-0.3,0.1-0.4c0.1-0.1,0.2-0.2,0.4-0.2c0.1,0,0.3,0.1,0.4,0.2s0.2,0.2,0.2,0.4v0.3l0.9-0.6
		c0.3-0.2,0.7-0.3,1.1-0.3h0.5c0.4,0,0.8,0.1,1.1,0.4c0.3,0.3,0.5,0.6,0.5,1.1l0.1,3.9c0,0.1,0,0.3-0.1,0.4
		c-0.1,0.1-0.2,0.2-0.4,0.2c-0.1,0-0.3,0-0.4-0.1c-0.1-0.1-0.2-0.2-0.2-0.4l-0.2-3.8c0-0.4-0.2-0.5-0.6-0.5h-0.5
		C332,889.4,331.9,889.4,331.7,889.5z"/>
	<path fill="#F17F21" d="M339.4,889.2v2c0,0.3,0.1,0.5,0.2,0.7l1.2,1.6c0.1,0.1,0.1,0.2,0.1,0.3c0,0.2-0.1,0.3-0.2,0.4
		s-0.2,0.1-0.4,0.1c-0.2,0-0.3-0.1-0.3-0.2l-1.2-1.6c-0.3-0.4-0.5-0.8-0.5-1.2v-2.2c0-0.4,0.2-0.8,0.5-1.2l1.2-1.6
		c0.1-0.1,0.2-0.2,0.3-0.2s0.3,0,0.4,0.1c0.1,0.1,0.2,0.2,0.2,0.4c0,0.1,0,0.2-0.1,0.3l-1.2,1.5
		C339.5,888.7,339.4,888.9,339.4,889.2z"/>
	<path fill="#F17F21" d="M349.5,887.2v1.9c0,0.4-0.1,0.8-0.4,1.1c0.3,0.3,0.4,0.7,0.4,1v2c0,0.3-0.1,0.5-0.3,0.7
		c-0.2,0.2-0.4,0.3-0.7,0.3h-3.6c-0.1,0-0.3,0-0.4-0.1c-0.1-0.1-0.1-0.2-0.1-0.4c0-0.1,0-0.3,0.1-0.4c0.1-0.1,0.2-0.1,0.4-0.1h3.6
		v-2c0-0.1,0-0.3-0.1-0.4s-0.2-0.2-0.4-0.2h-2.1c-0.1,0-0.3,0-0.4-0.1c-0.1-0.1-0.1-0.2-0.1-0.4c0-0.1,0-0.3,0.1-0.4
		c0.1-0.1,0.2-0.1,0.4-0.1h2.1c0.1,0,0.3,0,0.4-0.1c0.1-0.1,0.2-0.2,0.2-0.4v-2h-3.7c-0.1,0-0.3,0-0.4-0.1c-0.1-0.1-0.1-0.2-0.1-0.4
		c0-0.1,0-0.3,0.1-0.4c0.1-0.1,0.2-0.1,0.4-0.1h3.7c0.3,0,0.5,0.1,0.7,0.3C349.4,886.6,349.5,886.9,349.5,887.2z"/>
	<path fill="#F17F21" d="M356.5,894.2h-4.7v-3.5c0-0.3,0.1-0.5,0.3-0.7c0.2-0.2,0.4-0.3,0.7-0.3h3.1v-2.5h-3.7c-0.1,0-0.3,0-0.4-0.1
		c-0.1-0.1-0.1-0.2-0.1-0.4c0-0.1,0-0.3,0.1-0.4c0.1-0.1,0.2-0.1,0.4-0.1h3.7c0.3,0,0.5,0.1,0.7,0.3c0.2,0.2,0.3,0.4,0.3,0.7v2.5
		c0,0.3-0.1,0.5-0.3,0.7c-0.2,0.2-0.4,0.3-0.7,0.3h-3.1v2.5h3.6c0.1,0,0.3,0,0.4,0.1c0.1,0.1,0.2,0.2,0.2,0.4c0,0.1-0.1,0.3-0.2,0.4
		C356.8,894.2,356.7,894.2,356.5,894.2z"/>
	<path fill="#F17F21" d="M359.4,893.2v-6.1c0-0.3,0.1-0.5,0.3-0.7c0.2-0.2,0.4-0.3,0.7-0.3h3.2c0.3,0,0.5,0.1,0.7,0.3
		c0.2,0.2,0.3,0.4,0.3,0.7v6.1c0,0.3-0.1,0.5-0.3,0.7c-0.2,0.2-0.4,0.3-0.7,0.3h-3.2c-0.3,0-0.5-0.1-0.7-0.3
		C359.5,893.7,359.4,893.5,359.4,893.2z M363.5,893.2v-6h-3.1v6H363.5z"/>
	<path fill="#F17F21" d="M366.9,893.2v-6.1c0-0.3,0.1-0.5,0.3-0.7c0.2-0.2,0.4-0.3,0.7-0.3h3.2c0.3,0,0.5,0.1,0.7,0.3
		c0.2,0.2,0.3,0.4,0.3,0.7v6.1c0,0.3-0.1,0.5-0.3,0.7c-0.2,0.2-0.4,0.3-0.7,0.3h-3.2c-0.3,0-0.5-0.1-0.7-0.3
		C367,893.7,366.9,893.5,366.9,893.2z M371.1,893.2v-6h-3.1v6H371.1z"/>
	<path fill="#F17F21" d="M374.9,893.2h1.6v-6H375c-0.1,0-0.3,0-0.4-0.1c-0.1-0.1-0.1-0.2-0.1-0.4c0-0.1,0-0.3,0.1-0.4
		c0.1-0.1,0.2-0.1,0.4-0.1h2.6v7.1h1v-2.1c0-0.1,0-0.3,0.1-0.4s0.2-0.2,0.4-0.2s0.3,0,0.4,0.1s0.1,0.2,0.1,0.4v2.6
		c0,0.1,0,0.3-0.1,0.4s-0.2,0.1-0.4,0.1h-4.1c-0.1,0-0.3-0.1-0.4-0.2c-0.1-0.1-0.1-0.2-0.1-0.4c0-0.1,0-0.3,0.1-0.4
		C374.7,893.2,374.8,893.2,374.9,893.2z"/>
	<path fill="#F17F21" d="M384.7,891.2v-2c0-0.3-0.1-0.5-0.2-0.7l-1.2-1.5c-0.1-0.1-0.1-0.2-0.1-0.3c0-0.2,0.1-0.3,0.2-0.4
		c0.1-0.1,0.2-0.1,0.4-0.1c0.1,0,0.3,0.1,0.3,0.2l1.2,1.6c0.3,0.4,0.5,0.8,0.5,1.2v2.2c0,0.5-0.2,0.9-0.5,1.2l-1.2,1.6
		c-0.1,0.1-0.2,0.2-0.3,0.2c-0.1,0-0.3,0-0.4-0.1c-0.1-0.1-0.2-0.2-0.2-0.4c0-0.1,0-0.2,0.1-0.3l1.2-1.5
		C384.6,891.7,384.7,891.4,384.7,891.2z"/>
	<path fill="#F17F21" d="M391.6,887.5h1c0.1,0,0.3,0.1,0.4,0.2s0.2,0.2,0.2,0.3v0.9c0,0.1-0.1,0.3-0.2,0.4s-0.2,0.2-0.4,0.2h-1
		c-0.1,0-0.3,0-0.4-0.1c-0.1-0.1-0.1-0.2-0.1-0.4V888c0-0.1,0-0.3,0.1-0.4C391.3,887.5,391.4,887.5,391.6,887.5z M391.6,891h1
		c0.1,0,0.3,0,0.4,0.1c0.1,0.1,0.2,0.2,0.2,0.4v0.9c0,0.1-0.1,0.3-0.2,0.4s-0.2,0.2-0.4,0.2h-1c-0.1,0-0.3-0.1-0.4-0.2
		c-0.1-0.1-0.1-0.2-0.1-0.4v-0.9c0-0.1,0-0.3,0.1-0.4C391.3,891,391.4,891,391.6,891z"/>
	<path fill="#F17F21" d="M165.6,906h1c0.1,0,0.3,0,0.4,0.1c0.1,0.1,0.2,0.2,0.2,0.4v0.9c0,0.1,0,0.3-0.1,0.4
		c-0.1,0.1-0.2,0.2-0.4,0.2h-1c-0.1,0-0.3-0.1-0.4-0.2s-0.1-0.2-0.1-0.4v-0.9c0-0.1,0.1-0.3,0.2-0.4C165.4,906,165.5,906,165.6,906z
		"/>
	<path fill="#F17F21" d="M173.2,906h1c0.1,0,0.3,0,0.4,0.1c0.1,0.1,0.2,0.2,0.2,0.4v0.9c0,0.1,0,0.3-0.1,0.4
		c-0.1,0.1-0.2,0.2-0.4,0.2h-1c-0.1,0-0.3-0.1-0.4-0.2s-0.1-0.2-0.1-0.4v-0.9c0-0.1,0.1-0.3,0.2-0.4C172.9,906,173,906,173.2,906z"
		/>
	<path fill="#F17F21" d="M180.7,906h1c0.1,0,0.3,0,0.4,0.1c0.1,0.1,0.2,0.2,0.2,0.4v0.9c0,0.1,0,0.3-0.1,0.4
		c-0.1,0.1-0.2,0.2-0.4,0.2h-1c-0.1,0-0.3-0.1-0.4-0.2s-0.1-0.2-0.1-0.4v-0.9c0-0.1,0.1-0.3,0.2-0.4C180.4,906,180.5,906,180.7,906z
		"/>
	<path fill="#F17F21" d="M165.6,920.9h1c0.1,0,0.3,0,0.4,0.1c0.1,0.1,0.2,0.2,0.2,0.4v0.9c0,0.1,0,0.3-0.1,0.4
		c-0.1,0.1-0.2,0.2-0.4,0.2h-1c-0.1,0-0.3-0.1-0.4-0.2s-0.1-0.2-0.1-0.4v-0.9c0-0.1,0.1-0.3,0.2-0.4
		C165.4,921,165.5,920.9,165.6,920.9z"/>
	<path fill="#F17F21" d="M173.2,920.9h1c0.1,0,0.3,0,0.4,0.1c0.1,0.1,0.2,0.2,0.2,0.4v0.9c0,0.1,0,0.3-0.1,0.4
		c-0.1,0.1-0.2,0.2-0.4,0.2h-1c-0.1,0-0.3-0.1-0.4-0.2s-0.1-0.2-0.1-0.4v-0.9c0-0.1,0.1-0.3,0.2-0.4
		C172.9,921,173,920.9,173.2,920.9z"/>
	<path fill="#F17F21" d="M180.7,920.9h1c0.1,0,0.3,0,0.4,0.1c0.1,0.1,0.2,0.2,0.2,0.4v0.9c0,0.1,0,0.3-0.1,0.4
		c-0.1,0.1-0.2,0.2-0.4,0.2h-1c-0.1,0-0.3-0.1-0.4-0.2s-0.1-0.2-0.1-0.4v-0.9c0-0.1,0.1-0.3,0.2-0.4
		C180.4,921,180.5,920.9,180.7,920.9z"/>
	<path fill="#F17F21" d="M256.3,919.3v4.3c0,0.1-0.1,0.3-0.2,0.4s-0.2,0.1-0.4,0.1c-0.1,0-0.3,0-0.4-0.1s-0.2-0.2-0.2-0.4v-4.3h-0.5
		c-0.1,0-0.3-0.1-0.4-0.2c-0.1-0.1-0.1-0.2-0.1-0.4c0-0.1,0-0.3,0.1-0.4c0.1-0.1,0.2-0.2,0.4-0.2h0.5v-0.4c0-0.5,0.2-1,0.5-1.3
		c0.4-0.3,0.8-0.5,1.3-0.5h1.2c0.1,0,0.3,0.1,0.4,0.2c0.1,0.1,0.1,0.2,0.1,0.4c0,0.1-0.1,0.3-0.2,0.4s-0.2,0.2-0.4,0.2h-1.2
		c-0.2,0-0.4,0.1-0.6,0.2c-0.2,0.1-0.2,0.3-0.2,0.6v0.4h1c0.1,0,0.3,0,0.4,0.1c0.1,0.1,0.2,0.2,0.2,0.4c0,0.1-0.1,0.3-0.2,0.4
		c-0.1,0.1-0.2,0.2-0.4,0.2H256.3z"/>
	<path fill="#F17F21" d="M265.6,924.1h-3.1c-0.1,0-0.3,0-0.4-0.1s-0.1-0.2-0.1-0.4c0-0.1,0-0.3,0.1-0.4s0.2-0.2,0.4-0.2h1v-3.8h-1
		c-0.1,0-0.3-0.1-0.4-0.2s-0.1-0.2-0.1-0.4c0-0.1,0-0.3,0.1-0.4s0.2-0.2,0.4-0.2h1.6c0.1,0,0.3,0.1,0.4,0.2s0.1,0.2,0.1,0.4v4.3h1
		c0.1,0,0.3,0,0.4,0.1s0.2,0.2,0.2,0.4c0,0.1-0.1,0.3-0.2,0.4S265.8,924.1,265.6,924.1z M263.5,915.6h0.5c0.1,0,0.3,0,0.4,0.1
		c0.1,0.1,0.1,0.2,0.1,0.4v0.4c0,0.1,0,0.3-0.1,0.4s-0.2,0.2-0.4,0.2h-0.5c-0.1,0-0.3-0.1-0.4-0.2c-0.1-0.1-0.1-0.2-0.1-0.4l0-0.5
		c0-0.1,0-0.3,0.1-0.4C263.3,915.7,263.4,915.6,263.5,915.6z"/>
	<path fill="#F17F21" d="M273.2,924.2h-3.1c-0.1,0-0.3-0.1-0.4-0.2s-0.1-0.2-0.1-0.4c0-0.1,0-0.3,0.1-0.4s0.2-0.2,0.4-0.2h1v-6h-1
		c-0.1,0-0.3,0-0.4-0.1s-0.1-0.2-0.1-0.4c0-0.1,0-0.3,0.1-0.4s0.2-0.1,0.4-0.1h1.6c0.1,0,0.3,0.1,0.4,0.2s0.2,0.2,0.2,0.4v6.5h1
		c0.1,0,0.3,0.1,0.4,0.2s0.2,0.2,0.2,0.4c0,0.1,0,0.3-0.1,0.4C273.4,924.1,273.3,924.2,273.2,924.2z"/>
	<path fill="#F17F21" d="M280.2,924.2h-1c-0.4,0-0.8-0.2-1.1-0.5c-0.3-0.3-0.5-0.7-0.5-1.1v-3.3h-0.5c-0.1,0-0.3,0-0.4-0.1
		c-0.1-0.1-0.1-0.2-0.1-0.4c0-0.1,0-0.3,0.1-0.4c0.1-0.1,0.2-0.1,0.4-0.1h0.5V917c0-0.1,0-0.3,0.1-0.4c0.1-0.1,0.2-0.1,0.4-0.1
		c0.1,0,0.3,0.1,0.4,0.2s0.2,0.2,0.2,0.4v1.3h2.1c0.1,0,0.3,0.1,0.4,0.2c0.1,0.1,0.2,0.2,0.2,0.4c0,0.1-0.1,0.3-0.2,0.4
		s-0.2,0.1-0.4,0.1h-2.1v3.3c0,0.1,0.1,0.3,0.2,0.4s0.2,0.2,0.4,0.2h1c0.3,0,0.5-0.1,0.5-0.4c0.1-0.3,0.3-0.4,0.5-0.4
		c0.1,0,0.3,0,0.4,0.1c0.1,0.1,0.1,0.2,0.1,0.4c0,0.3-0.1,0.6-0.4,0.9C281,924,280.6,924.2,280.2,924.2z"/>
	<path fill="#F17F21" d="M289.2,920.2v1.2c0,0.1-0.1,0.3-0.2,0.4c-0.1,0.1-0.2,0.2-0.4,0.2h-3.6v0.3c0,0.2,0.1,0.3,0.2,0.4l0.3,0.2
		c0.2,0.1,0.3,0.2,0.5,0.2h2.6c0.1,0,0.3,0,0.4,0.1c0.1,0.1,0.2,0.2,0.2,0.4c0,0.1-0.1,0.3-0.2,0.4s-0.2,0.2-0.4,0.2H286
		c-0.2,0-0.4,0-0.6-0.1c-0.2-0.1-0.3-0.2-0.4-0.2l-0.5-0.4c-0.1-0.1-0.3-0.3-0.4-0.5s-0.1-0.4-0.1-0.6V920c0-0.1,0.1-0.3,0.2-0.5
		s0.2-0.4,0.4-0.5l0.4-0.3c0.3-0.2,0.6-0.3,0.9-0.3h1.4c0.4,0,0.7,0.1,1,0.5l0.4,0.4C289.1,919.3,289.2,919.7,289.2,920.2z
		 M285.1,920.1v0.8h3.1v-0.7c0-0.2-0.1-0.3-0.2-0.4l-0.3-0.3c-0.2-0.1-0.3-0.2-0.4-0.2h-1.3c-0.2,0-0.3,0.1-0.4,0.2l-0.3,0.2
		C285.2,919.8,285.1,920,285.1,920.1z"/>
	<path fill="#F17F21" d="M291.6,923.6v-4.9c0-0.1,0-0.3,0.1-0.4c0.1-0.1,0.2-0.2,0.4-0.2c0.1,0,0.3,0.1,0.4,0.2
		c0.1,0.1,0.1,0.2,0.1,0.4v0.6l0.8-0.7c0.3-0.3,0.7-0.4,1-0.4h0.7c0.4,0,0.8,0.1,1.1,0.5c0.3,0.3,0.5,0.7,0.5,1.1v0.3
		c0,0.1,0,0.3-0.1,0.4c-0.1,0.1-0.2,0.2-0.4,0.2s-0.3,0-0.4-0.1s-0.1-0.2-0.1-0.4v-0.3c0-0.1,0-0.3-0.1-0.4s-0.2-0.1-0.4-0.1h-0.7
		c-0.1,0-0.3,0.1-0.5,0.2l-1.5,1.3v2.9c0,0.1-0.1,0.3-0.2,0.4s-0.2,0.1-0.4,0.1c-0.1,0-0.3,0-0.4-0.1
		C291.7,923.9,291.6,923.8,291.6,923.6z"/>
	<path fill="#F17F21" d="M304.3,920.2v1.2c0,0.1-0.1,0.3-0.2,0.4c-0.1,0.1-0.2,0.2-0.4,0.2h-3.6v0.3c0,0.2,0.1,0.3,0.2,0.4l0.3,0.2
		c0.2,0.1,0.3,0.2,0.5,0.2h2.6c0.1,0,0.3,0,0.4,0.1c0.1,0.1,0.2,0.2,0.2,0.4c0,0.1-0.1,0.3-0.2,0.4s-0.2,0.2-0.4,0.2h-2.7
		c-0.2,0-0.4,0-0.6-0.1c-0.2-0.1-0.3-0.2-0.4-0.2l-0.5-0.4c-0.1-0.1-0.3-0.3-0.4-0.5s-0.1-0.4-0.1-0.6V920c0-0.1,0.1-0.3,0.2-0.5
		s0.2-0.4,0.4-0.5l0.4-0.3c0.3-0.2,0.6-0.3,0.9-0.3h1.4c0.4,0,0.7,0.1,1,0.5l0.4,0.4C304.2,919.3,304.3,919.7,304.3,920.2z
		 M300.2,920.1v0.8h3.1v-0.7c0-0.2-0.1-0.3-0.2-0.4l-0.3-0.3c-0.2-0.1-0.3-0.2-0.4-0.2h-1.3c-0.2,0-0.3,0.1-0.4,0.2l-0.3,0.2
		C300.3,919.8,300.2,920,300.2,920.1z"/>
	<path fill="#F17F21" d="M310.8,919v-2.4c0-0.1,0-0.3,0.1-0.4c0.1-0.1,0.2-0.1,0.4-0.1c0.1,0,0.3,0,0.4,0.1s0.2,0.2,0.2,0.4v7.1
		c0,0.1-0.1,0.3-0.2,0.4c-0.1,0.1-0.2,0.1-0.4,0.1c-0.1,0-0.3,0-0.4-0.1c-0.1-0.1-0.1-0.2-0.1-0.4v-0.2c-0.5,0.5-1,0.7-1.4,0.7h-0.9
		c-0.3,0-0.7-0.2-1-0.5l-0.4-0.4c-0.1-0.1-0.2-0.2-0.3-0.5c-0.1-0.2-0.1-0.4-0.1-0.6v-2.1c0-0.2,0-0.5,0.1-0.7
		c0.1-0.2,0.2-0.4,0.3-0.5l0.4-0.4c0.3-0.3,0.7-0.4,1.1-0.4h0.7c0.4,0,0.8,0.1,1.1,0.4L310.8,919z M309.3,919.3h-0.7
		c-0.2,0-0.3,0.1-0.4,0.2l-0.3,0.3c-0.1,0.1-0.2,0.2-0.2,0.4v2.2c0,0.1,0.1,0.3,0.2,0.4l0.3,0.3c0.1,0.1,0.2,0.1,0.3,0.1h0.8
		c0.1,0,0.2-0.1,0.4-0.2l0.8-0.7c0.1-0.1,0.2-0.3,0.2-0.4v-1.1c0-0.2-0.1-0.4-0.2-0.5l-0.8-0.7C309.6,919.4,309.5,919.3,309.3,919.3
		z"/>
	<path fill="#F17F21" d="M320.5,925.7h-7.7v-1h7.7V925.7z"/>
	<path fill="#F17F21" d="M325.9,919v-2.4c0-0.1,0-0.3,0.1-0.4c0.1-0.1,0.2-0.1,0.4-0.1c0.1,0,0.3,0,0.4,0.1s0.2,0.2,0.2,0.4v7.1
		c0,0.1-0.1,0.3-0.2,0.4c-0.1,0.1-0.2,0.1-0.4,0.1c-0.1,0-0.3,0-0.4-0.1c-0.1-0.1-0.1-0.2-0.1-0.4v-0.2c-0.5,0.5-1,0.7-1.4,0.7h-0.9
		c-0.3,0-0.7-0.2-1-0.5l-0.4-0.4c-0.1-0.1-0.2-0.2-0.3-0.5c-0.1-0.2-0.1-0.4-0.1-0.6v-2.1c0-0.2,0-0.5,0.1-0.7
		c0.1-0.2,0.2-0.4,0.3-0.5l0.4-0.4c0.3-0.3,0.7-0.4,1.1-0.4h0.7c0.4,0,0.8,0.1,1.1,0.4L325.9,919z M324.4,919.3h-0.7
		c-0.2,0-0.3,0.1-0.4,0.2l-0.3,0.3c-0.1,0.1-0.2,0.2-0.2,0.4v2.2c0,0.1,0.1,0.3,0.2,0.4l0.3,0.3c0.1,0.1,0.2,0.1,0.3,0.1h0.8
		c0.1,0,0.2-0.1,0.4-0.2l0.8-0.7c0.1-0.1,0.2-0.3,0.2-0.4v-1.1c0-0.2-0.1-0.4-0.2-0.5l-0.8-0.7C324.7,919.4,324.6,919.3,324.4,919.3
		z"/>
	<path fill="#F17F21" d="M330.8,920.5h2c0.1,0,0.3,0,0.5,0.1l0-0.7c0-0.1,0-0.3-0.1-0.4s-0.2-0.1-0.4-0.1h-1.9
		c-0.1,0-0.3-0.1-0.4-0.2c-0.1-0.1-0.2-0.2-0.2-0.4c0-0.1,0-0.3,0.1-0.4s0.2-0.1,0.4-0.1h1.9c0.4,0,0.8,0.1,1.1,0.4
		c0.3,0.3,0.5,0.7,0.5,1.1l0.1,3.8c0,0.1-0.1,0.3-0.2,0.4s-0.2,0.1-0.4,0.1c-0.1,0-0.3,0-0.4-0.1c-0.1-0.1-0.2-0.2-0.2-0.4l-0.9,0.5
		h-1.7c-0.4,0-0.8-0.2-1.1-0.5c-0.3-0.3-0.5-0.7-0.5-1.1V922c0-0.4,0.2-0.8,0.5-1.1C330,920.6,330.4,920.5,330.8,920.5z
		 M333.4,922.5l0-0.4c0-0.1-0.1-0.3-0.2-0.4c-0.1-0.1-0.2-0.1-0.4-0.1h-2c-0.1,0-0.3,0-0.4,0.1s-0.1,0.2-0.1,0.4v0.6
		c0,0.1,0.1,0.3,0.2,0.4s0.2,0.2,0.4,0.2h1.4L333.4,922.5z"/>
	<path fill="#F17F21" d="M340.4,924.2h-1c-0.4,0-0.8-0.2-1.1-0.5c-0.3-0.3-0.5-0.7-0.5-1.1v-3.3h-0.5c-0.1,0-0.3,0-0.4-0.1
		c-0.1-0.1-0.1-0.2-0.1-0.4c0-0.1,0-0.3,0.1-0.4c0.1-0.1,0.2-0.1,0.4-0.1h0.5V917c0-0.1,0-0.3,0.1-0.4c0.1-0.1,0.2-0.1,0.4-0.1
		c0.1,0,0.3,0.1,0.4,0.2s0.2,0.2,0.2,0.4v1.3h2.1c0.1,0,0.3,0.1,0.4,0.2c0.1,0.1,0.2,0.2,0.2,0.4c0,0.1-0.1,0.3-0.2,0.4
		s-0.2,0.1-0.4,0.1h-2.1v3.3c0,0.1,0.1,0.3,0.2,0.4s0.2,0.2,0.4,0.2h1c0.3,0,0.5-0.1,0.5-0.4c0.1-0.3,0.3-0.4,0.5-0.4
		c0.1,0,0.3,0,0.4,0.1c0.1,0.1,0.1,0.2,0.1,0.4c0,0.3-0.1,0.6-0.4,0.9C341.2,924,340.9,924.2,340.4,924.2z"/>
	<path fill="#F17F21" d="M345.9,920.5h2c0.1,0,0.3,0,0.5,0.1l0-0.7c0-0.1,0-0.3-0.1-0.4s-0.2-0.1-0.4-0.1h-1.9
		c-0.1,0-0.3-0.1-0.4-0.2c-0.1-0.1-0.2-0.2-0.2-0.4c0-0.1,0-0.3,0.1-0.4s0.2-0.1,0.4-0.1h1.9c0.4,0,0.8,0.1,1.1,0.4
		c0.3,0.3,0.5,0.7,0.5,1.1l0.1,3.8c0,0.1-0.1,0.3-0.2,0.4s-0.2,0.1-0.4,0.1c-0.1,0-0.3,0-0.4-0.1c-0.1-0.1-0.2-0.2-0.2-0.4l-0.9,0.5
		h-1.7c-0.4,0-0.8-0.2-1.1-0.5c-0.3-0.3-0.5-0.7-0.5-1.1V922c0-0.4,0.2-0.8,0.5-1.1C345.1,920.6,345.4,920.5,345.9,920.5z
		 M348.4,922.5l0-0.4c0-0.1-0.1-0.3-0.2-0.4c-0.1-0.1-0.2-0.1-0.4-0.1h-2c-0.1,0-0.3,0-0.4,0.1s-0.1,0.2-0.1,0.4v0.6
		c0,0.1,0.1,0.3,0.2,0.4s0.2,0.2,0.4,0.2h1.4L348.4,922.5z"/>
	<path fill="#F17F21" d="M353.9,920.9h1c0.1,0,0.3,0,0.4,0.1c0.1,0.1,0.2,0.2,0.2,0.4v0.9c0,0.1,0,0.3-0.1,0.4
		c-0.1,0.1-0.2,0.2-0.4,0.2h-1c-0.1,0-0.3-0.1-0.4-0.2s-0.1-0.2-0.1-0.4v-0.9c0-0.1,0.1-0.3,0.2-0.4
		C353.7,921,353.8,920.9,353.9,920.9z"/>
	<path fill="#F17F21" d="M360.9,920.5h2c0.1,0,0.3,0,0.5,0.1l0-0.7c0-0.1,0-0.3-0.1-0.4s-0.2-0.1-0.4-0.1h-1.9
		c-0.1,0-0.3-0.1-0.4-0.2c-0.1-0.1-0.2-0.2-0.2-0.4c0-0.1,0-0.3,0.1-0.4s0.2-0.1,0.4-0.1h1.9c0.4,0,0.8,0.1,1.1,0.4
		c0.3,0.3,0.5,0.7,0.5,1.1l0.1,3.8c0,0.1-0.1,0.3-0.2,0.4s-0.2,0.1-0.4,0.1c-0.1,0-0.3,0-0.4-0.1c-0.1-0.1-0.2-0.2-0.2-0.4l-0.9,0.5
		h-1.7c-0.4,0-0.8-0.2-1.1-0.5c-0.3-0.3-0.5-0.7-0.5-1.1V922c0-0.4,0.2-0.8,0.5-1.1C360.1,920.6,360.5,920.5,360.9,920.5z
		 M363.5,922.5l0-0.4c0-0.1-0.1-0.3-0.2-0.4c-0.1-0.1-0.2-0.1-0.4-0.1h-2c-0.1,0-0.3,0-0.4,0.1s-0.1,0.2-0.1,0.4v0.6
		c0,0.1,0.1,0.3,0.2,0.4s0.2,0.2,0.4,0.2h1.4L363.5,922.5z"/>
	<path fill="#F17F21" d="M368,923.6v2.3c0,0.1,0,0.3-0.1,0.4c-0.1,0.1-0.2,0.2-0.4,0.2c-0.1,0-0.3-0.1-0.4-0.2s-0.2-0.2-0.2-0.4
		v-7.3c0-0.1,0.1-0.3,0.2-0.4s0.2-0.2,0.4-0.2c0.1,0,0.3,0.1,0.4,0.2s0.2,0.2,0.2,0.4v0.3c0.5-0.6,1-0.8,1.5-0.8h0.2
		c0.4,0,0.7,0.1,1,0.4l0.9,0.7c0.4,0.3,0.6,0.7,0.6,1.2v1.6c0,0.5-0.2,0.9-0.6,1.3l-0.8,0.7c-0.3,0.3-0.6,0.4-1,0.4h-0.2
		c-0.4,0-0.7-0.1-1-0.4L368,923.6z M369.4,923.3h0.3c0.1,0,0.3-0.1,0.4-0.2l0.8-0.7c0.1-0.1,0.2-0.2,0.2-0.4v-1.7
		c0-0.2-0.1-0.3-0.2-0.4l-0.9-0.7c-0.1-0.1-0.2-0.1-0.3-0.1h-0.3c-0.1,0-0.3,0.1-0.4,0.3l-0.8,0.8c-0.1,0.1-0.2,0.3-0.2,0.5v1.3
		c0,0.2,0.1,0.3,0.2,0.5l0.7,0.7C369.1,923.3,369.3,923.3,369.4,923.3z"/>
	<path fill="#F17F21" d="M375.5,923.6v2.3c0,0.1,0,0.3-0.1,0.4c-0.1,0.1-0.2,0.2-0.4,0.2c-0.1,0-0.3-0.1-0.4-0.2s-0.2-0.2-0.2-0.4
		v-7.3c0-0.1,0.1-0.3,0.2-0.4s0.2-0.2,0.4-0.2c0.1,0,0.3,0.1,0.4,0.2s0.2,0.2,0.2,0.4v0.3c0.5-0.6,1-0.8,1.5-0.8h0.2
		c0.4,0,0.7,0.1,1,0.4l0.9,0.7c0.4,0.3,0.6,0.7,0.6,1.2v1.6c0,0.5-0.2,0.9-0.6,1.3l-0.8,0.7c-0.3,0.3-0.6,0.4-1,0.4h-0.2
		c-0.4,0-0.7-0.1-1-0.4L375.5,923.6z M376.9,923.3h0.3c0.1,0,0.3-0.1,0.4-0.2l0.8-0.7c0.1-0.1,0.2-0.2,0.2-0.4v-1.7
		c0-0.2-0.1-0.3-0.2-0.4l-0.9-0.7c-0.1-0.1-0.2-0.1-0.3-0.1h-0.3c-0.1,0-0.3,0.1-0.4,0.3l-0.8,0.8c-0.1,0.1-0.2,0.3-0.2,0.5v1.3
		c0,0.2,0.1,0.3,0.2,0.5l0.7,0.7C376.7,923.3,376.8,923.3,376.9,923.3z"/>
	<path fill="#F17F21" d="M387.2,920.2v1.2c0,0.1-0.1,0.3-0.2,0.4c-0.1,0.1-0.2,0.2-0.4,0.2H383v0.3c0,0.2,0.1,0.3,0.2,0.4l0.3,0.2
		c0.2,0.1,0.3,0.2,0.5,0.2h2.6c0.1,0,0.3,0,0.4,0.1c0.1,0.1,0.2,0.2,0.2,0.4c0,0.1-0.1,0.3-0.2,0.4s-0.2,0.2-0.4,0.2h-2.7
		c-0.2,0-0.4,0-0.6-0.1c-0.2-0.1-0.3-0.2-0.4-0.2l-0.5-0.4c-0.1-0.1-0.3-0.3-0.4-0.5s-0.1-0.4-0.1-0.6V920c0-0.1,0.1-0.3,0.2-0.5
		s0.2-0.4,0.4-0.5l0.4-0.3c0.3-0.2,0.6-0.3,0.9-0.3h1.4c0.4,0,0.7,0.1,1,0.5l0.4,0.4C387,919.3,387.2,919.7,387.2,920.2z M383,920.1
		v0.8h3.1v-0.7c0-0.2-0.1-0.3-0.2-0.4l-0.3-0.3c-0.2-0.1-0.3-0.2-0.4-0.2H384c-0.2,0-0.3,0.1-0.4,0.2l-0.3,0.2
		C383.1,919.8,383,920,383,920.1z"/>
	<path fill="#F17F21" d="M392,919.5l-1.4,0.9v3.3c0,0.1-0.1,0.3-0.2,0.4s-0.2,0.2-0.4,0.2c-0.1,0-0.3-0.1-0.4-0.2s-0.2-0.2-0.2-0.4
		v-4.9c0-0.1,0-0.3,0.1-0.4c0.1-0.1,0.2-0.2,0.4-0.2c0.1,0,0.3,0.1,0.4,0.2s0.2,0.2,0.2,0.4v0.3l0.9-0.6c0.3-0.2,0.7-0.3,1.1-0.3
		h0.5c0.4,0,0.8,0.1,1.1,0.4c0.3,0.3,0.5,0.6,0.5,1.1l0.1,3.9c0,0.1,0,0.3-0.1,0.4c-0.1,0.1-0.2,0.2-0.4,0.2c-0.1,0-0.3,0-0.4-0.1
		c-0.1-0.1-0.2-0.2-0.2-0.4l-0.2-3.8c0-0.4-0.2-0.5-0.6-0.5h-0.5C392.3,919.3,392.1,919.3,392,919.5z"/>
	<path fill="#F17F21" d="M401.2,919v-2.4c0-0.1,0-0.3,0.1-0.4c0.1-0.1,0.2-0.1,0.4-0.1c0.1,0,0.3,0,0.4,0.1s0.2,0.2,0.2,0.4v7.1
		c0,0.1-0.1,0.3-0.2,0.4c-0.1,0.1-0.2,0.1-0.4,0.1c-0.1,0-0.3,0-0.4-0.1c-0.1-0.1-0.1-0.2-0.1-0.4v-0.2c-0.5,0.5-1,0.7-1.4,0.7h-0.9
		c-0.3,0-0.7-0.2-1-0.5l-0.4-0.4c-0.1-0.1-0.2-0.2-0.3-0.5c-0.1-0.2-0.1-0.4-0.1-0.6v-2.1c0-0.2,0-0.5,0.1-0.7
		c0.1-0.2,0.2-0.4,0.3-0.5l0.4-0.4c0.3-0.3,0.7-0.4,1.1-0.4h0.7c0.4,0,0.8,0.1,1.1,0.4L401.2,919z M399.7,919.3H399
		c-0.2,0-0.3,0.1-0.4,0.2l-0.3,0.3c-0.1,0.1-0.2,0.2-0.2,0.4v2.2c0,0.1,0.1,0.3,0.2,0.4l0.3,0.3c0.1,0.1,0.2,0.1,0.3,0.1h0.8
		c0.1,0,0.2-0.1,0.4-0.2l0.8-0.7c0.1-0.1,0.2-0.3,0.2-0.4v-1.1c0-0.2-0.1-0.4-0.2-0.5l-0.8-0.7C400,919.4,399.9,919.3,399.7,919.3z"
		/>
	<path fill="#F17F21" d="M407.2,919.1v2c0,0.3,0.1,0.5,0.2,0.7l1.2,1.6c0.1,0.1,0.1,0.2,0.1,0.3c0,0.2-0.1,0.3-0.2,0.4
		s-0.2,0.1-0.4,0.1c-0.2,0-0.3-0.1-0.3-0.2l-1.2-1.6c-0.3-0.4-0.5-0.8-0.5-1.2V919c0-0.4,0.2-0.8,0.5-1.2l1.2-1.6
		c0.1-0.1,0.2-0.2,0.3-0.2s0.3,0,0.4,0.1c0.1,0.1,0.2,0.2,0.2,0.4c0,0.1,0,0.2-0.1,0.3l-1.2,1.5
		C407.2,918.6,407.2,918.9,407.2,919.1z"/>
	<path fill="#F17F21" d="M416.8,924.1h-4.7v-3.5c0-0.3,0.1-0.5,0.3-0.7c0.2-0.2,0.4-0.3,0.7-0.3h3.1v-2.5h-3.7c-0.1,0-0.3,0-0.4-0.1
		c-0.1-0.1-0.1-0.2-0.1-0.4c0-0.1,0-0.3,0.1-0.4c0.1-0.1,0.2-0.1,0.4-0.1h3.7c0.3,0,0.5,0.1,0.7,0.3c0.2,0.2,0.3,0.4,0.3,0.7v2.5
		c0,0.3-0.1,0.5-0.3,0.7c-0.2,0.2-0.4,0.3-0.7,0.3h-3.1v2.5h3.6c0.1,0,0.3,0,0.4,0.1c0.1,0.1,0.2,0.2,0.2,0.4c0,0.1-0.1,0.3-0.2,0.4
		C417,924.1,416.9,924.1,416.8,924.1z"/>
	<path fill="#F17F21" d="M424.3,924.1h-4.7v-3.5c0-0.3,0.1-0.5,0.3-0.7c0.2-0.2,0.4-0.3,0.7-0.3h3.1v-2.5h-3.7c-0.1,0-0.3,0-0.4-0.1
		c-0.1-0.1-0.1-0.2-0.1-0.4c0-0.1,0-0.3,0.1-0.4c0.1-0.1,0.2-0.1,0.4-0.1h3.7c0.3,0,0.5,0.1,0.7,0.3c0.2,0.2,0.3,0.4,0.3,0.7v2.5
		c0,0.3-0.1,0.5-0.3,0.7c-0.2,0.2-0.4,0.3-0.7,0.3h-3.1v2.5h3.6c0.1,0,0.3,0,0.4,0.1c0.1,0.1,0.2,0.2,0.2,0.4c0,0.1-0.1,0.3-0.2,0.4
		C424.6,924.1,424.4,924.1,424.3,924.1z"/>
	<path fill="#F17F21" d="M432.3,917.1v1.9c0,0.4-0.1,0.8-0.4,1.1c0.3,0.3,0.4,0.7,0.4,1v2c0,0.3-0.1,0.5-0.3,0.7
		c-0.2,0.2-0.4,0.3-0.7,0.3h-3.6c-0.1,0-0.3,0-0.4-0.1c-0.1-0.1-0.1-0.2-0.1-0.4c0-0.1,0-0.3,0.1-0.4c0.1-0.1,0.2-0.1,0.4-0.1h3.6
		v-2c0-0.1,0-0.3-0.1-0.4s-0.2-0.2-0.4-0.2h-2.1c-0.1,0-0.3,0-0.4-0.1c-0.1-0.1-0.1-0.2-0.1-0.4c0-0.1,0-0.3,0.1-0.4
		c0.1-0.1,0.2-0.1,0.4-0.1h2.1c0.1,0,0.3,0,0.4-0.1c0.1-0.1,0.2-0.2,0.2-0.4v-2h-3.7c-0.1,0-0.3,0-0.4-0.1c-0.1-0.1-0.1-0.2-0.1-0.4
		c0-0.1,0-0.3,0.1-0.4c0.1-0.1,0.2-0.1,0.4-0.1h3.7c0.3,0,0.5,0.1,0.7,0.3C432.2,916.6,432.3,916.8,432.3,917.1z"/>
	<path fill="#F17F21" d="M436.6,923.1h2.4v-2.5h-3.1v-4.5h3.6c0.1,0,0.3,0.1,0.4,0.2s0.2,0.2,0.2,0.4c0,0.1,0,0.3-0.1,0.4
		s-0.2,0.1-0.4,0.1h-2.6v2.5h2.1c0.3,0,0.5,0.1,0.7,0.3s0.3,0.4,0.3,0.7v2.5c0,0.3-0.1,0.5-0.3,0.7c-0.2,0.2-0.4,0.3-0.7,0.3h-2.4
		c-0.2,0-0.4-0.1-0.7-0.2l-0.8-0.3c-0.2-0.1-0.3-0.2-0.3-0.5c0-0.1,0-0.3,0.1-0.4c0.1-0.1,0.2-0.1,0.3-0.1c0.1,0,0.2,0,0.4,0.1
		l0.7,0.3C436.4,923.1,436.5,923.1,436.6,923.1z"/>
	<path fill="#F17F21" d="M442.7,923.1h1.6v-6h-1.5c-0.1,0-0.3,0-0.4-0.1c-0.1-0.1-0.1-0.2-0.1-0.4c0-0.1,0-0.3,0.1-0.4
		c0.1-0.1,0.2-0.1,0.4-0.1h2.6v7.1h1V921c0-0.1,0-0.3,0.1-0.4s0.2-0.2,0.4-0.2s0.3,0,0.4,0.1s0.1,0.2,0.1,0.4v2.6
		c0,0.1,0,0.3-0.1,0.4s-0.2,0.1-0.4,0.1h-4.1c-0.1,0-0.3-0.1-0.4-0.2c-0.1-0.1-0.1-0.2-0.1-0.4c0-0.1,0-0.3,0.1-0.4
		C442.5,923.2,442.6,923.1,442.7,923.1z"/>
	<path fill="#F17F21" d="M450.3,923.1h1.6v-6h-1.5c-0.1,0-0.3,0-0.4-0.1c-0.1-0.1-0.1-0.2-0.1-0.4c0-0.1,0-0.3,0.1-0.4
		c0.1-0.1,0.2-0.1,0.4-0.1h2.6v7.1h1V921c0-0.1,0-0.3,0.1-0.4s0.2-0.2,0.4-0.2s0.3,0,0.4,0.1s0.1,0.2,0.1,0.4v2.6
		c0,0.1,0,0.3-0.1,0.4s-0.2,0.1-0.4,0.1h-4.1c-0.1,0-0.3-0.1-0.4-0.2c-0.1-0.1-0.1-0.2-0.1-0.4c0-0.1,0-0.3,0.1-0.4
		C450,923.2,450.1,923.1,450.3,923.1z"/>
	<path fill="#F17F21" d="M460,921.1v-2c0-0.3-0.1-0.5-0.2-0.7l-1.2-1.5c-0.1-0.1-0.1-0.2-0.1-0.3c0-0.2,0.1-0.3,0.2-0.4
		c0.1-0.1,0.2-0.1,0.4-0.1c0.1,0,0.3,0.1,0.3,0.2l1.2,1.6c0.3,0.4,0.5,0.8,0.5,1.2v2.2c0,0.5-0.2,0.9-0.5,1.2l-1.2,1.6
		c-0.1,0.1-0.2,0.2-0.3,0.2c-0.1,0-0.3,0-0.4-0.1c-0.1-0.1-0.2-0.2-0.2-0.4c0-0.1,0-0.2,0.1-0.3l1.2-1.5
		C459.9,921.6,460,921.4,460,921.1z"/>
	<path fill="#F17F21" d="M168.9,934.9v0.4c0,0.2-0.1,0.4-0.3,0.5l-4,2.4c-0.1,0.1-0.2,0.1-0.3,0.1c-0.1,0-0.2,0-0.4-0.1
		s-0.2-0.2-0.2-0.4c0-0.2,0.1-0.3,0.2-0.4l3.8-2.2l-3.8-2.2c-0.2-0.1-0.2-0.2-0.2-0.4c0-0.2,0.1-0.3,0.2-0.4s0.2-0.1,0.4-0.1
		c0.1,0,0.2,0,0.3,0.1l4,2.4C168.8,934.5,168.9,934.7,168.9,934.9z"/>
	<path fill="#F17F21" d="M176.4,934.9v0.4c0,0.2-0.1,0.4-0.3,0.5l-4,2.4c-0.1,0.1-0.2,0.1-0.3,0.1c-0.1,0-0.2,0-0.4-0.1
		s-0.2-0.2-0.2-0.4c0-0.2,0.1-0.3,0.2-0.4l3.8-2.2l-3.8-2.2c-0.2-0.1-0.2-0.2-0.2-0.4c0-0.2,0.1-0.3,0.2-0.4s0.2-0.1,0.4-0.1
		c0.1,0,0.2,0,0.3,0.1l4,2.4C176.3,934.5,176.4,934.7,176.4,934.9z"/>
	<path fill="#F17F21" d="M184,934.9v0.4c0,0.2-0.1,0.4-0.3,0.5l-4,2.4c-0.1,0.1-0.2,0.1-0.3,0.1c-0.1,0-0.2,0-0.4-0.1
		s-0.2-0.2-0.2-0.4c0-0.2,0.1-0.3,0.2-0.4l3.8-2.2l-3.8-2.2c-0.2-0.1-0.2-0.2-0.2-0.4c0-0.2,0.1-0.3,0.2-0.4s0.2-0.1,0.4-0.1
		c0.1,0,0.2,0,0.3,0.1l4,2.4C183.9,934.5,184,934.7,184,934.9z"/>
	<path fill="#F17F21" d="M196,934.3v4.3c0,0.1-0.1,0.3-0.2,0.4s-0.2,0.1-0.4,0.1c-0.1,0-0.3,0-0.4-0.1s-0.2-0.2-0.2-0.4v-4.3h-0.5
		c-0.1,0-0.3-0.1-0.4-0.2c-0.1-0.1-0.1-0.2-0.1-0.4c0-0.1,0-0.3,0.1-0.4c0.1-0.1,0.2-0.2,0.4-0.2h0.5v-0.4c0-0.5,0.2-1,0.5-1.3
		c0.4-0.3,0.8-0.5,1.3-0.5h1.2c0.1,0,0.3,0.1,0.4,0.2c0.1,0.1,0.1,0.2,0.1,0.4c0,0.1-0.1,0.3-0.2,0.4s-0.2,0.2-0.4,0.2h-1.2
		c-0.2,0-0.4,0.1-0.6,0.2c-0.2,0.1-0.2,0.3-0.2,0.6v0.4h1c0.1,0,0.3,0,0.4,0.1c0.1,0.1,0.2,0.2,0.2,0.4c0,0.1-0.1,0.3-0.2,0.4
		c-0.1,0.1-0.2,0.2-0.4,0.2H196z"/>
	<path fill="#F17F21" d="M205.4,939.1h-3.1c-0.1,0-0.3,0-0.4-0.1s-0.1-0.2-0.1-0.4c0-0.1,0-0.3,0.1-0.4s0.2-0.2,0.4-0.2h1v-3.8h-1
		c-0.1,0-0.3-0.1-0.4-0.2s-0.1-0.2-0.1-0.4c0-0.1,0-0.3,0.1-0.4s0.2-0.2,0.4-0.2h1.6c0.1,0,0.3,0.1,0.4,0.2s0.1,0.2,0.1,0.4v4.3h1
		c0.1,0,0.3,0,0.4,0.1s0.2,0.2,0.2,0.4c0,0.1-0.1,0.3-0.2,0.4S205.5,939.1,205.4,939.1z M203.3,930.6h0.5c0.1,0,0.3,0,0.4,0.1
		c0.1,0.1,0.1,0.2,0.1,0.4v0.4c0,0.1,0,0.3-0.1,0.4s-0.2,0.2-0.4,0.2h-0.5c-0.1,0-0.3-0.1-0.4-0.2c-0.1-0.1-0.1-0.2-0.1-0.4l0-0.5
		c0-0.1,0-0.3,0.1-0.4C203,930.6,203.1,930.6,203.3,930.6z"/>
	<path fill="#F17F21" d="M212.9,939.1h-3.1c-0.1,0-0.3-0.1-0.4-0.2s-0.1-0.2-0.1-0.4c0-0.1,0-0.3,0.1-0.4s0.2-0.2,0.4-0.2h1v-6h-1
		c-0.1,0-0.3,0-0.4-0.1s-0.1-0.2-0.1-0.4c0-0.1,0-0.3,0.1-0.4s0.2-0.1,0.4-0.1h1.6c0.1,0,0.3,0.1,0.4,0.2s0.2,0.2,0.2,0.4v6.5h1
		c0.1,0,0.3,0.1,0.4,0.2s0.2,0.2,0.2,0.4c0,0.1,0,0.3-0.1,0.4C213.2,939.1,213,939.1,212.9,939.1z"/>
	<path fill="#F17F21" d="M219.9,939.1h-1c-0.4,0-0.8-0.2-1.1-0.5c-0.3-0.3-0.5-0.7-0.5-1.1v-3.3h-0.5c-0.1,0-0.3,0-0.4-0.1
		c-0.1-0.1-0.1-0.2-0.1-0.4c0-0.1,0-0.3,0.1-0.4c0.1-0.1,0.2-0.1,0.4-0.1h0.5V932c0-0.1,0-0.3,0.1-0.4c0.1-0.1,0.2-0.1,0.4-0.1
		c0.1,0,0.3,0.1,0.4,0.2s0.2,0.2,0.2,0.4v1.3h2.1c0.1,0,0.3,0.1,0.4,0.2c0.1,0.1,0.2,0.2,0.2,0.4c0,0.1-0.1,0.3-0.2,0.4
		s-0.2,0.1-0.4,0.1h-2.1v3.3c0,0.1,0.1,0.3,0.2,0.4s0.2,0.2,0.4,0.2h1c0.3,0,0.5-0.1,0.5-0.4c0.1-0.3,0.3-0.4,0.5-0.4
		c0.1,0,0.3,0,0.4,0.1c0.1,0.1,0.1,0.2,0.1,0.4c0,0.3-0.1,0.6-0.4,0.9C220.7,939,220.4,939.1,219.9,939.1z"/>
	<path fill="#F17F21" d="M229,935.2v1.2c0,0.1-0.1,0.3-0.2,0.4c-0.1,0.1-0.2,0.2-0.4,0.2h-3.6v0.3c0,0.2,0.1,0.3,0.2,0.4l0.3,0.2
		c0.2,0.1,0.3,0.2,0.5,0.2h2.6c0.1,0,0.3,0,0.4,0.1c0.1,0.1,0.2,0.2,0.2,0.4c0,0.1-0.1,0.3-0.2,0.4s-0.2,0.2-0.4,0.2h-2.7
		c-0.2,0-0.4,0-0.6-0.1c-0.2-0.1-0.3-0.2-0.4-0.2l-0.5-0.4c-0.1-0.1-0.3-0.3-0.4-0.5s-0.1-0.4-0.1-0.6V935c0-0.1,0.1-0.3,0.2-0.5
		s0.2-0.4,0.4-0.5l0.4-0.3c0.3-0.2,0.6-0.3,0.9-0.3h1.4c0.4,0,0.7,0.1,1,0.5l0.4,0.4C228.9,934.3,229,934.7,229,935.2z M224.9,935.1
		v0.8h3.1v-0.7c0-0.2-0.1-0.3-0.2-0.4l-0.3-0.3c-0.2-0.1-0.3-0.2-0.4-0.2h-1.3c-0.2,0-0.3,0.1-0.4,0.2l-0.3,0.2
		C224.9,934.8,224.9,934.9,224.9,935.1z"/>
	<path fill="#F17F21" d="M231.4,938.6v-4.9c0-0.1,0-0.3,0.1-0.4c0.1-0.1,0.2-0.2,0.4-0.2c0.1,0,0.3,0.1,0.4,0.2
		c0.1,0.1,0.1,0.2,0.1,0.4v0.6l0.8-0.7c0.3-0.3,0.7-0.4,1-0.4h0.7c0.4,0,0.8,0.1,1.1,0.5c0.3,0.3,0.5,0.7,0.5,1.1v0.3
		c0,0.1,0,0.3-0.1,0.4c-0.1,0.1-0.2,0.2-0.4,0.2s-0.3,0-0.4-0.1s-0.1-0.2-0.1-0.4v-0.3c0-0.1,0-0.3-0.1-0.4s-0.2-0.1-0.4-0.1h-0.7
		c-0.1,0-0.3,0.1-0.5,0.2l-1.5,1.3v2.9c0,0.1-0.1,0.3-0.2,0.4s-0.2,0.1-0.4,0.1c-0.1,0-0.3,0-0.4-0.1
		C231.4,938.9,231.4,938.7,231.4,938.6z"/>
	<path fill="#F17F21" d="M244.1,935.2v1.2c0,0.1-0.1,0.3-0.2,0.4c-0.1,0.1-0.2,0.2-0.4,0.2h-3.6v0.3c0,0.2,0.1,0.3,0.2,0.4l0.3,0.2
		c0.2,0.1,0.3,0.2,0.5,0.2h2.6c0.1,0,0.3,0,0.4,0.1c0.1,0.1,0.2,0.2,0.2,0.4c0,0.1-0.1,0.3-0.2,0.4s-0.2,0.2-0.4,0.2h-2.7
		c-0.2,0-0.4,0-0.6-0.1c-0.2-0.1-0.3-0.2-0.4-0.2l-0.5-0.4c-0.1-0.1-0.3-0.3-0.4-0.5s-0.1-0.4-0.1-0.6V935c0-0.1,0.1-0.3,0.2-0.5
		s0.2-0.4,0.4-0.5l0.4-0.3c0.3-0.2,0.6-0.3,0.9-0.3h1.4c0.4,0,0.7,0.1,1,0.5l0.4,0.4C243.9,934.3,244.1,934.7,244.1,935.2z
		 M239.9,935.1v0.8h3.1v-0.7c0-0.2-0.1-0.3-0.2-0.4l-0.3-0.3c-0.2-0.1-0.3-0.2-0.4-0.2h-1.3c-0.2,0-0.3,0.1-0.4,0.2l-0.3,0.2
		C240,934.8,239.9,934.9,239.9,935.1z"/>
	<path fill="#F17F21" d="M250.5,934v-2.4c0-0.1,0-0.3,0.1-0.4c0.1-0.1,0.2-0.1,0.4-0.1c0.1,0,0.3,0,0.4,0.1s0.2,0.2,0.2,0.4v7.1
		c0,0.1-0.1,0.3-0.2,0.4c-0.1,0.1-0.2,0.1-0.4,0.1c-0.1,0-0.3,0-0.4-0.1c-0.1-0.1-0.1-0.2-0.1-0.4v-0.2c-0.5,0.5-1,0.7-1.4,0.7h-0.9
		c-0.3,0-0.7-0.2-1-0.5l-0.4-0.4c-0.1-0.1-0.2-0.2-0.3-0.5c-0.1-0.2-0.1-0.4-0.1-0.6v-2.1c0-0.2,0-0.5,0.1-0.7
		c0.1-0.2,0.2-0.4,0.3-0.5l0.4-0.4c0.3-0.3,0.7-0.4,1.1-0.4h0.7c0.4,0,0.8,0.1,1.1,0.4L250.5,934z M249.1,934.3h-0.7
		c-0.2,0-0.3,0.1-0.4,0.2l-0.3,0.3c-0.1,0.1-0.2,0.2-0.2,0.4v2.2c0,0.1,0.1,0.3,0.2,0.4l0.3,0.3c0.1,0.1,0.2,0.1,0.3,0.1h0.8
		c0.1,0,0.2-0.1,0.4-0.2l0.8-0.7c0.1-0.1,0.2-0.3,0.2-0.4v-1.1c0-0.2-0.1-0.4-0.2-0.5l-0.8-0.7C249.4,934.3,249.2,934.3,249.1,934.3
		z"/>
	<path fill="#F17F21" d="M260.3,940.7h-7.7v-1h7.7V940.7z"/>
	<path fill="#F17F21" d="M265.6,934v-2.4c0-0.1,0-0.3,0.1-0.4c0.1-0.1,0.2-0.1,0.4-0.1c0.1,0,0.3,0,0.4,0.1s0.2,0.2,0.2,0.4v7.1
		c0,0.1-0.1,0.3-0.2,0.4c-0.1,0.1-0.2,0.1-0.4,0.1c-0.1,0-0.3,0-0.4-0.1c-0.1-0.1-0.1-0.2-0.1-0.4v-0.2c-0.5,0.5-1,0.7-1.4,0.7h-0.9
		c-0.3,0-0.7-0.2-1-0.5l-0.4-0.4c-0.1-0.1-0.2-0.2-0.3-0.5c-0.1-0.2-0.1-0.4-0.1-0.6v-2.1c0-0.2,0-0.5,0.1-0.7
		c0.1-0.2,0.2-0.4,0.3-0.5l0.4-0.4c0.3-0.3,0.7-0.4,1.1-0.4h0.7c0.4,0,0.8,0.1,1.1,0.4L265.6,934z M264.1,934.3h-0.7
		c-0.2,0-0.3,0.1-0.4,0.2l-0.3,0.3c-0.1,0.1-0.2,0.2-0.2,0.4v2.2c0,0.1,0.1,0.3,0.2,0.4l0.3,0.3c0.1,0.1,0.2,0.1,0.3,0.1h0.8
		c0.1,0,0.2-0.1,0.4-0.2l0.8-0.7c0.1-0.1,0.2-0.3,0.2-0.4v-1.1c0-0.2-0.1-0.4-0.2-0.5l-0.8-0.7C264.5,934.3,264.3,934.3,264.1,934.3
		z"/>
	<path fill="#F17F21" d="M270.6,935.4h2c0.1,0,0.3,0,0.5,0.1l0-0.7c0-0.1,0-0.3-0.1-0.4s-0.2-0.1-0.4-0.1h-1.9
		c-0.1,0-0.3-0.1-0.4-0.2c-0.1-0.1-0.2-0.2-0.2-0.4c0-0.1,0-0.3,0.1-0.4s0.2-0.1,0.4-0.1h1.9c0.4,0,0.8,0.1,1.1,0.4
		c0.3,0.3,0.5,0.7,0.5,1.1l0.1,3.8c0,0.1-0.1,0.3-0.2,0.4s-0.2,0.1-0.4,0.1c-0.1,0-0.3,0-0.4-0.1c-0.1-0.1-0.2-0.2-0.2-0.4l-0.9,0.5
		h-1.7c-0.4,0-0.8-0.2-1.1-0.5c-0.3-0.3-0.5-0.7-0.5-1.1V937c0-0.4,0.2-0.8,0.5-1.1C269.8,935.6,270.1,935.4,270.6,935.4z
		 M273.1,937.4l0-0.4c0-0.1-0.1-0.3-0.2-0.4c-0.1-0.1-0.2-0.1-0.4-0.1h-2c-0.1,0-0.3,0-0.4,0.1s-0.1,0.2-0.1,0.4v0.6
		c0,0.1,0.1,0.3,0.2,0.4s0.2,0.2,0.4,0.2h1.4L273.1,937.4z"/>
	<path fill="#F17F21" d="M280.2,939.1h-1c-0.4,0-0.8-0.2-1.1-0.5c-0.3-0.3-0.5-0.7-0.5-1.1v-3.3h-0.5c-0.1,0-0.3,0-0.4-0.1
		c-0.1-0.1-0.1-0.2-0.1-0.4c0-0.1,0-0.3,0.1-0.4c0.1-0.1,0.2-0.1,0.4-0.1h0.5V932c0-0.1,0-0.3,0.1-0.4c0.1-0.1,0.2-0.1,0.4-0.1
		c0.1,0,0.3,0.1,0.4,0.2s0.2,0.2,0.2,0.4v1.3h2.1c0.1,0,0.3,0.1,0.4,0.2c0.1,0.1,0.2,0.2,0.2,0.4c0,0.1-0.1,0.3-0.2,0.4
		s-0.2,0.1-0.4,0.1h-2.1v3.3c0,0.1,0.1,0.3,0.2,0.4s0.2,0.2,0.4,0.2h1c0.3,0,0.5-0.1,0.5-0.4c0.1-0.3,0.3-0.4,0.5-0.4
		c0.1,0,0.3,0,0.4,0.1c0.1,0.1,0.1,0.2,0.1,0.4c0,0.3-0.1,0.6-0.4,0.9C281,939,280.6,939.1,280.2,939.1z"/>
	<path fill="#F17F21" d="M285.6,935.4h2c0.1,0,0.3,0,0.5,0.1l0-0.7c0-0.1,0-0.3-0.1-0.4s-0.2-0.1-0.4-0.1h-1.9
		c-0.1,0-0.3-0.1-0.4-0.2c-0.1-0.1-0.2-0.2-0.2-0.4c0-0.1,0-0.3,0.1-0.4s0.2-0.1,0.4-0.1h1.9c0.4,0,0.8,0.1,1.1,0.4
		c0.3,0.3,0.5,0.7,0.5,1.1l0.1,3.8c0,0.1-0.1,0.3-0.2,0.4s-0.2,0.1-0.4,0.1c-0.1,0-0.3,0-0.4-0.1c-0.1-0.1-0.2-0.2-0.2-0.4l-0.9,0.5
		h-1.7c-0.4,0-0.8-0.2-1.1-0.5c-0.3-0.3-0.5-0.7-0.5-1.1V937c0-0.4,0.2-0.8,0.5-1.1C284.8,935.6,285.2,935.4,285.6,935.4z
		 M288.2,937.4l0-0.4c0-0.1-0.1-0.3-0.2-0.4c-0.1-0.1-0.2-0.1-0.4-0.1h-2c-0.1,0-0.3,0-0.4,0.1s-0.1,0.2-0.1,0.4v0.6
		c0,0.1,0.1,0.3,0.2,0.4s0.2,0.2,0.4,0.2h1.4L288.2,937.4z"/>
</g>
</svg>
