<?xml version="1.0" encoding="utf-8"?>
<!-- Generator: Adobe Illustrator 27.2.0, SVG Export Plug-In . SVG Version: 6.00 Build 0)  -->
<svg version="1.1" baseProfile="tiny" xmlns="http://www.w3.org/2000/svg" xmlns:xlink="http://www.w3.org/1999/xlink" x="0px"
	 y="0px" viewBox="0 0 237.67 348.77" overflow="visible" xml:space="preserve">
<g id="Layer_1">
	<g>
		<g>
			<g>
				<g>
					<g>
						<path fill="#520000" d="M237.67,328.98v18.87c0,0.51-0.42,0.93-0.93,0.93h-13.32c-0.75,0-1.19-0.85-0.76-1.46l13.32-18.87
							C236.51,327.7,237.67,328.07,237.67,328.98z"/>
					</g>
					<g>
						<path fill="#520000" d="M219.75,345.09v-18.87c0-0.51,0.42-0.93,0.93-0.93H234c0.75,0,1.19,0.85,0.76,1.46l-13.32,18.87
							C220.91,346.37,219.75,346,219.75,345.09z"/>
					</g>
				</g>
				<g>
					<g>
						<path fill="#520000" d="M217.7,345.09v-18.87c0-0.51-0.42-0.93-0.93-0.93h-13.32c-0.75,0-1.19,0.85-0.76,1.46l13.32,18.87
							C216.53,346.37,217.7,346,217.7,345.09z"/>
					</g>
					<g>
						<path fill="#520000" d="M199.77,328.98v18.87c0,0.51,0.42,0.93,0.93,0.93h13.32c0.75,0,1.19-0.85,0.76-1.46l-13.32-18.87
							C200.94,327.7,199.77,328.07,199.77,328.98z"/>
					</g>
				</g>
				<g>
					<g>
						<path fill="#520000" d="M197.72,328.98v18.87c0,0.51-0.42,0.93-0.93,0.93h-13.32c-0.75,0-1.19-0.85-0.76-1.46l13.32-18.87
							C196.56,327.7,197.72,328.07,197.72,328.98z"/>
					</g>
					<g>
						<path fill="#520000" d="M179.8,345.09v-18.87c0-0.51,0.42-0.93,0.93-0.93h13.32c0.75,0,1.19,0.85,0.76,1.46l-13.32,18.87
							C180.96,346.37,179.8,346,179.8,345.09z"/>
					</g>
				</g>
				<g>
					<g>
						<path fill="#520000" d="M177.74,345.09v-18.87c0-0.51-0.42-0.93-0.93-0.93H163.5c-0.75,0-1.19,0.85-0.76,1.46l13.32,18.87
							C176.58,346.37,177.74,346,177.74,345.09z"/>
					</g>
					<g>
						<path fill="#520000" d="M159.82,328.98v18.87c0,0.51,0.42,0.93,0.93,0.93h13.32c0.75,0,1.19-0.85,0.76-1.46l-13.32-18.87
							C160.98,327.7,159.82,328.07,159.82,328.98z"/>
					</g>
				</g>
				<g>
					<g>
						<path fill="#520000" d="M157.76,328.98v18.87c0,0.51-0.42,0.93-0.93,0.93h-13.32c-0.75,0-1.19-0.85-0.76-1.46l13.32-18.87
							C156.6,327.7,157.76,328.07,157.76,328.98z"/>
					</g>
					<g>
						<path fill="#520000" d="M139.84,345.09v-18.87c0-0.51,0.42-0.93,0.93-0.93h13.32c0.75,0,1.19,0.85,0.76,1.46l-13.32,18.87
							C141,346.37,139.84,346,139.84,345.09z"/>
					</g>
				</g>
				<g>
					<g>
						<path fill="#520000" d="M137.79,345.09v-18.87c0-0.51-0.42-0.93-0.93-0.93h-13.32c-0.75,0-1.19,0.85-0.76,1.46l13.32,18.87
							C136.62,346.37,137.79,346,137.79,345.09z"/>
					</g>
					<g>
						<path fill="#520000" d="M119.86,328.98v18.87c0,0.51,0.42,0.93,0.93,0.93h13.32c0.75,0,1.19-0.85,0.76-1.46l-13.32-18.87
							C121.03,327.7,119.86,328.07,119.86,328.98z"/>
					</g>
				</g>
				<g>
					<g>
						<path fill="#520000" d="M117.81,328.98v18.87c0,0.51-0.42,0.93-0.93,0.93h-13.32c-0.75,0-1.19-0.85-0.76-1.46l13.32-18.87
							C116.65,327.7,117.81,328.07,117.81,328.98z"/>
					</g>
					<g>
						<path fill="#520000" d="M99.89,345.09v-18.87c0-0.51,0.42-0.93,0.93-0.93h13.32c0.75,0,1.19,0.85,0.76,1.46l-13.32,18.87
							C101.05,346.37,99.89,346,99.89,345.09z"/>
					</g>
				</g>
				<g>
					<g>
						<path fill="#520000" d="M97.83,345.09v-18.87c0-0.51-0.42-0.93-0.93-0.93H83.59c-0.75,0-1.19,0.85-0.76,1.46l13.32,18.87
							C96.67,346.37,97.83,346,97.83,345.09z"/>
					</g>
					<g>
						<path fill="#520000" d="M79.91,328.98v18.87c0,0.51,0.42,0.93,0.93,0.93h13.32c0.75,0,1.19-0.85,0.76-1.46l-13.32-18.87
							C81.07,327.7,79.91,328.07,79.91,328.98z"/>
					</g>
				</g>
				<g>
					<g>
						<path fill="#520000" d="M77.85,328.98v18.87c0,0.51-0.42,0.93-0.93,0.93H63.61c-0.75,0-1.19-0.85-0.76-1.46l13.32-18.87
							C76.69,327.7,77.85,328.07,77.85,328.98z"/>
					</g>
					<g>
						<path fill="#520000" d="M59.93,345.09v-18.87c0-0.51,0.42-0.93,0.93-0.93h13.32c0.75,0,1.19,0.85,0.76,1.46l-13.32,18.87
							C61.1,346.37,59.93,346,59.93,345.09z"/>
					</g>
				</g>
				<g>
					<g>
						<path fill="#520000" d="M57.88,345.09v-18.87c0-0.51-0.42-0.93-0.93-0.93H43.63c-0.75,0-1.19,0.85-0.76,1.46l13.32,18.87
							C56.71,346.37,57.88,346,57.88,345.09z"/>
					</g>
					<g>
						<path fill="#520000" d="M39.95,328.98v18.87c0,0.51,0.42,0.93,0.93,0.93H54.2c0.75,0,1.19-0.85,0.76-1.46l-13.32-18.87
							C41.12,327.7,39.95,328.07,39.95,328.98z"/>
					</g>
				</g>
				<g>
					<g>
						<path fill="#520000" d="M37.9,328.98v18.87c0,0.51-0.42,0.93-0.93,0.93H23.65c-0.75,0-1.19-0.85-0.76-1.46l13.32-18.87
							C36.74,327.7,37.9,328.07,37.9,328.98z"/>
					</g>
					<g>
						<path fill="#520000" d="M19.98,345.09v-18.87c0-0.51,0.42-0.93,0.93-0.93h13.32c0.75,0,1.19,0.85,0.76,1.46l-13.32,18.87
							C21.14,346.37,19.98,346,19.98,345.09z"/>
					</g>
				</g>
				<g>
					<g>
						<path fill="#520000" d="M17.92,345.09v-18.87c0-0.51-0.42-0.93-0.93-0.93H3.68c-0.75,0-1.19,0.85-0.76,1.46l13.32,18.87
							C16.76,346.37,17.92,346,17.92,345.09z"/>
					</g>
					<g>
						<path fill="#520000" d="M0,328.98v18.87c0,0.51,0.42,0.93,0.93,0.93h13.32c0.75,0,1.19-0.85,0.76-1.46L1.68,328.44
							C1.16,327.7,0,328.07,0,328.98z"/>
					</g>
				</g>
			</g>
			<g>
				<g>
					<g>
						<path fill="#520000" d="M237.67,319.67V300.8c0-0.51-0.42-0.93-0.93-0.93h-13.32c-0.75,0-1.19,0.85-0.76,1.46l13.32,18.87
							C236.51,320.94,237.67,320.57,237.67,319.67z"/>
					</g>
					<g>
						<path fill="#520000" d="M219.75,303.55v18.87c0,0.51,0.42,0.93,0.93,0.93H234c0.75,0,1.19-0.85,0.76-1.46l-13.32-18.87
							C220.91,302.28,219.75,302.65,219.75,303.55z"/>
					</g>
				</g>
				<g>
					<g>
						<path fill="#520000" d="M217.7,303.55v18.87c0,0.51-0.42,0.93-0.93,0.93h-13.32c-0.75,0-1.19-0.85-0.76-1.46l13.32-18.87
							C216.53,302.28,217.7,302.65,217.7,303.55z"/>
					</g>
					<g>
						<path fill="#520000" d="M199.77,319.67V300.8c0-0.51,0.42-0.93,0.93-0.93h13.32c0.75,0,1.19,0.85,0.76,1.46l-13.32,18.87
							C200.94,320.94,199.77,320.57,199.77,319.67z"/>
					</g>
				</g>
				<g>
					<g>
						<path fill="#520000" d="M197.72,319.67V300.8c0-0.51-0.42-0.93-0.93-0.93h-13.32c-0.75,0-1.19,0.85-0.76,1.46l13.32,18.87
							C196.56,320.94,197.72,320.57,197.72,319.67z"/>
					</g>
					<g>
						<path fill="#520000" d="M179.8,303.55v18.87c0,0.51,0.42,0.93,0.93,0.93h13.32c0.75,0,1.19-0.85,0.76-1.46l-13.32-18.87
							C180.96,302.28,179.8,302.65,179.8,303.55z"/>
					</g>
				</g>
				<g>
					<g>
						<path fill="#520000" d="M177.74,303.55v18.87c0,0.51-0.42,0.93-0.93,0.93H163.5c-0.75,0-1.19-0.85-0.76-1.46l13.32-18.87
							C176.58,302.28,177.74,302.65,177.74,303.55z"/>
					</g>
					<g>
						<path fill="#520000" d="M159.82,319.67V300.8c0-0.51,0.42-0.93,0.93-0.93h13.32c0.75,0,1.19,0.85,0.76,1.46L161.5,320.2
							C160.98,320.94,159.82,320.57,159.82,319.67z"/>
					</g>
				</g>
				<g>
					<g>
						<path fill="#520000" d="M157.76,319.67V300.8c0-0.51-0.42-0.93-0.93-0.93h-13.32c-0.75,0-1.19,0.85-0.76,1.46l13.32,18.87
							C156.6,320.94,157.76,320.57,157.76,319.67z"/>
					</g>
					<g>
						<path fill="#520000" d="M139.84,303.55v18.87c0,0.51,0.42,0.93,0.93,0.93h13.32c0.75,0,1.19-0.85,0.76-1.46l-13.32-18.87
							C141,302.28,139.84,302.65,139.84,303.55z"/>
					</g>
				</g>
				<g>
					<g>
						<path fill="#520000" d="M137.79,303.55v18.87c0,0.51-0.42,0.93-0.93,0.93h-13.32c-0.75,0-1.19-0.85-0.76-1.46l13.32-18.87
							C136.62,302.28,137.79,302.65,137.79,303.55z"/>
					</g>
					<g>
						<path fill="#520000" d="M119.86,319.67V300.8c0-0.51,0.42-0.93,0.93-0.93h13.32c0.75,0,1.19,0.85,0.76,1.46l-13.32,18.87
							C121.03,320.94,119.86,320.57,119.86,319.67z"/>
					</g>
				</g>
				<g>
					<g>
						<path fill="#520000" d="M117.81,319.67V300.8c0-0.51-0.42-0.93-0.93-0.93h-13.32c-0.75,0-1.19,0.85-0.76,1.46l13.32,18.87
							C116.65,320.94,117.81,320.57,117.81,319.67z"/>
					</g>
					<g>
						<path fill="#520000" d="M99.89,303.55v18.87c0,0.51,0.42,0.93,0.93,0.93h13.32c0.75,0,1.19-0.85,0.76-1.46l-13.32-18.87
							C101.05,302.28,99.89,302.65,99.89,303.55z"/>
					</g>
				</g>
				<g>
					<g>
						<path fill="#520000" d="M97.83,303.55v18.87c0,0.51-0.42,0.93-0.93,0.93H83.59c-0.75,0-1.19-0.85-0.76-1.46l13.32-18.87
							C96.67,302.28,97.83,302.65,97.83,303.55z"/>
					</g>
					<g>
						<path fill="#520000" d="M79.91,319.67V300.8c0-0.51,0.42-0.93,0.93-0.93h13.32c0.75,0,1.19,0.85,0.76,1.46L81.59,320.2
							C81.07,320.94,79.91,320.57,79.91,319.67z"/>
					</g>
				</g>
				<g>
					<g>
						<path fill="#520000" d="M77.85,319.67V300.8c0-0.51-0.42-0.93-0.93-0.93H63.61c-0.75,0-1.19,0.85-0.76,1.46l13.32,18.87
							C76.69,320.94,77.85,320.57,77.85,319.67z"/>
					</g>
					<g>
						<path fill="#520000" d="M59.93,303.55v18.87c0,0.51,0.42,0.93,0.93,0.93h13.32c0.75,0,1.19-0.85,0.76-1.46l-13.32-18.87
							C61.1,302.28,59.93,302.65,59.93,303.55z"/>
					</g>
				</g>
				<g>
					<g>
						<path fill="#520000" d="M57.88,303.55v18.87c0,0.51-0.42,0.93-0.93,0.93H43.63c-0.75,0-1.19-0.85-0.76-1.46l13.32-18.87
							C56.71,302.28,57.88,302.65,57.88,303.55z"/>
					</g>
					<g>
						<path fill="#520000" d="M39.95,319.67V300.8c0-0.51,0.42-0.93,0.93-0.93H54.2c0.75,0,1.19,0.85,0.76,1.46L41.64,320.2
							C41.12,320.94,39.95,320.57,39.95,319.67z"/>
					</g>
				</g>
				<g>
					<g>
						<path fill="#520000" d="M37.9,319.67V300.8c0-0.51-0.42-0.93-0.93-0.93H23.65c-0.75,0-1.19,0.85-0.76,1.46l13.32,18.87
							C36.74,320.94,37.9,320.57,37.9,319.67z"/>
					</g>
					<g>
						<path fill="#520000" d="M19.98,303.55v18.87c0,0.51,0.42,0.93,0.93,0.93h13.32c0.75,0,1.19-0.85,0.76-1.46l-13.32-18.87
							C21.14,302.28,19.98,302.65,19.98,303.55z"/>
					</g>
				</g>
				<g>
					<g>
						<path fill="#520000" d="M17.92,303.55v18.87c0,0.51-0.42,0.93-0.93,0.93H3.68c-0.75,0-1.19-0.85-0.76-1.46l13.32-18.87
							C16.76,302.28,17.92,302.65,17.92,303.55z"/>
					</g>
					<g>
						<path fill="#520000" d="M0,319.67V300.8c0-0.51,0.42-0.93,0.93-0.93h13.32c0.75,0,1.19,0.85,0.76,1.46L1.68,320.2
							C1.16,320.94,0,320.57,0,319.67z"/>
					</g>
				</g>
			</g>
		</g>
		<g>
			<g>
				<g>
					<g>
						<path fill="#520000" d="M237.67,279v18.87c0,0.51-0.42,0.93-0.93,0.93h-13.32c-0.75,0-1.19-0.85-0.76-1.46l13.32-18.87
							C236.51,277.73,237.67,278.09,237.67,279z"/>
					</g>
					<g>
						<path fill="#520000" d="M219.75,295.11v-18.87c0-0.51,0.42-0.93,0.93-0.93H234c0.75,0,1.19,0.85,0.76,1.46l-13.32,18.87
							C220.91,296.39,219.75,296.02,219.75,295.11z"/>
					</g>
				</g>
				<g>
					<g>
						<path fill="#520000" d="M217.7,295.11v-18.87c0-0.51-0.42-0.93-0.93-0.93h-13.32c-0.75,0-1.19,0.85-0.76,1.46l13.32,18.87
							C216.53,296.39,217.7,296.02,217.7,295.11z"/>
					</g>
					<g>
						<path fill="#520000" d="M199.77,279v18.87c0,0.51,0.42,0.93,0.93,0.93h13.32c0.75,0,1.19-0.85,0.76-1.46l-13.32-18.87
							C200.94,277.73,199.77,278.09,199.77,279z"/>
					</g>
				</g>
				<g>
					<g>
						<path fill="#520000" d="M197.72,279v18.87c0,0.51-0.42,0.93-0.93,0.93h-13.32c-0.75,0-1.19-0.85-0.76-1.46l13.32-18.87
							C196.56,277.73,197.72,278.09,197.72,279z"/>
					</g>
					<g>
						<path fill="#520000" d="M179.8,295.11v-18.87c0-0.51,0.42-0.93,0.93-0.93h13.32c0.75,0,1.19,0.85,0.76,1.46l-13.32,18.87
							C180.96,296.39,179.8,296.02,179.8,295.11z"/>
					</g>
				</g>
				<g>
					<g>
						<path fill="#520000" d="M177.74,295.11v-18.87c0-0.51-0.42-0.93-0.93-0.93H163.5c-0.75,0-1.19,0.85-0.76,1.46l13.32,18.87
							C176.58,296.39,177.74,296.02,177.74,295.11z"/>
					</g>
					<g>
						<path fill="#520000" d="M159.82,279v18.87c0,0.51,0.42,0.93,0.93,0.93h13.32c0.75,0,1.19-0.85,0.76-1.46l-13.32-18.87
							C160.98,277.73,159.82,278.09,159.82,279z"/>
					</g>
				</g>
				<g>
					<g>
						<path fill="#520000" d="M157.76,279v18.87c0,0.51-0.42,0.93-0.93,0.93h-13.32c-0.75,0-1.19-0.85-0.76-1.46l13.32-18.87
							C156.6,277.73,157.76,278.09,157.76,279z"/>
					</g>
					<g>
						<path fill="#520000" d="M139.84,295.11v-18.87c0-0.51,0.42-0.93,0.93-0.93h13.32c0.75,0,1.19,0.85,0.76,1.46l-13.32,18.87
							C141,296.39,139.84,296.02,139.84,295.11z"/>
					</g>
				</g>
				<g>
					<g>
						<path fill="#520000" d="M137.79,295.11v-18.87c0-0.51-0.42-0.93-0.93-0.93h-13.32c-0.75,0-1.19,0.85-0.76,1.46l13.32,18.87
							C136.62,296.39,137.79,296.02,137.79,295.11z"/>
					</g>
					<g>
						<path fill="#520000" d="M119.86,279v18.87c0,0.51,0.42,0.93,0.93,0.93h13.32c0.75,0,1.19-0.85,0.76-1.46l-13.32-18.87
							C121.03,277.73,119.86,278.09,119.86,279z"/>
					</g>
				</g>
				<g>
					<g>
						<path fill="#520000" d="M117.81,279v18.87c0,0.51-0.42,0.93-0.93,0.93h-13.32c-0.75,0-1.19-0.85-0.76-1.46l13.32-18.87
							C116.65,277.73,117.81,278.09,117.81,279z"/>
					</g>
					<g>
						<path fill="#520000" d="M99.89,295.11v-18.87c0-0.51,0.42-0.93,0.93-0.93h13.32c0.75,0,1.19,0.85,0.76,1.46l-13.32,18.87
							C101.05,296.39,99.89,296.02,99.89,295.11z"/>
					</g>
				</g>
				<g>
					<g>
						<path fill="#520000" d="M97.83,295.11v-18.87c0-0.51-0.42-0.93-0.93-0.93H83.59c-0.75,0-1.19,0.85-0.76,1.46l13.32,18.87
							C96.67,296.39,97.83,296.02,97.83,295.11z"/>
					</g>
					<g>
						<path fill="#520000" d="M79.91,279v18.87c0,0.51,0.42,0.93,0.93,0.93h13.32c0.75,0,1.19-0.85,0.76-1.46l-13.32-18.87
							C81.07,277.73,79.91,278.09,79.91,279z"/>
					</g>
				</g>
				<g>
					<g>
						<path fill="#520000" d="M77.85,279v18.87c0,0.51-0.42,0.93-0.93,0.93H63.61c-0.75,0-1.19-0.85-0.76-1.46l13.32-18.87
							C76.69,277.73,77.85,278.09,77.85,279z"/>
					</g>
					<g>
						<path fill="#520000" d="M59.93,295.11v-18.87c0-0.51,0.42-0.93,0.93-0.93h13.32c0.75,0,1.19,0.85,0.76,1.46l-13.32,18.87
							C61.1,296.39,59.93,296.02,59.93,295.11z"/>
					</g>
				</g>
				<g>
					<g>
						<path fill="#520000" d="M57.88,295.11v-18.87c0-0.51-0.42-0.93-0.93-0.93H43.63c-0.75,0-1.19,0.85-0.76,1.46l13.32,18.87
							C56.71,296.39,57.88,296.02,57.88,295.11z"/>
					</g>
					<g>
						<path fill="#520000" d="M39.95,279v18.87c0,0.51,0.42,0.93,0.93,0.93H54.2c0.75,0,1.19-0.85,0.76-1.46l-13.32-18.87
							C41.12,277.73,39.95,278.09,39.95,279z"/>
					</g>
				</g>
				<g>
					<g>
						<path fill="#520000" d="M37.9,279v18.87c0,0.51-0.42,0.93-0.93,0.93H23.65c-0.75,0-1.19-0.85-0.76-1.46l13.32-18.87
							C36.74,277.73,37.9,278.09,37.9,279z"/>
					</g>
					<g>
						<path fill="#520000" d="M19.98,295.11v-18.87c0-0.51,0.42-0.93,0.93-0.93h13.32c0.75,0,1.19,0.85,0.76,1.46l-13.32,18.87
							C21.14,296.39,19.98,296.02,19.98,295.11z"/>
					</g>
				</g>
				<g>
					<g>
						<path fill="#520000" d="M17.92,295.11v-18.87c0-0.51-0.42-0.93-0.93-0.93H3.68c-0.75,0-1.19,0.85-0.76,1.46l13.32,18.87
							C16.76,296.39,17.92,296.02,17.92,295.11z"/>
					</g>
					<g>
						<path fill="#520000" d="M0,279v18.87c0,0.51,0.42,0.93,0.93,0.93h13.32c0.75,0,1.19-0.85,0.76-1.46L1.68,278.46
							C1.16,277.73,0,278.09,0,279z"/>
					</g>
				</g>
			</g>
			<g>
				<g>
					<g>
						<path fill="#520000" d="M237.67,269.69v-18.87c0-0.51-0.42-0.93-0.93-0.93h-13.32c-0.75,0-1.19,0.85-0.76,1.46l13.32,18.87
							C236.51,270.96,237.67,270.59,237.67,269.69z"/>
					</g>
					<g>
						<path fill="#520000" d="M219.75,253.57v18.87c0,0.51,0.42,0.93,0.93,0.93H234c0.75,0,1.19-0.85,0.76-1.46l-13.32-18.87
							C220.91,252.3,219.75,252.67,219.75,253.57z"/>
					</g>
				</g>
				<g>
					<g>
						<path fill="#520000" d="M217.7,253.57v18.87c0,0.51-0.42,0.93-0.93,0.93h-13.32c-0.75,0-1.19-0.85-0.76-1.46l13.32-18.87
							C216.53,252.3,217.7,252.67,217.7,253.57z"/>
					</g>
					<g>
						<path fill="#520000" d="M199.77,269.69v-18.87c0-0.51,0.42-0.93,0.93-0.93h13.32c0.75,0,1.19,0.85,0.76,1.46l-13.32,18.87
							C200.94,270.96,199.77,270.59,199.77,269.69z"/>
					</g>
				</g>
				<g>
					<g>
						<path fill="#520000" d="M197.72,269.69v-18.87c0-0.51-0.42-0.93-0.93-0.93h-13.32c-0.75,0-1.19,0.85-0.76,1.46l13.32,18.87
							C196.56,270.96,197.72,270.59,197.72,269.69z"/>
					</g>
					<g>
						<path fill="#520000" d="M179.8,253.57v18.87c0,0.51,0.42,0.93,0.93,0.93h13.32c0.75,0,1.19-0.85,0.76-1.46l-13.32-18.87
							C180.96,252.3,179.8,252.67,179.8,253.57z"/>
					</g>
				</g>
				<g>
					<g>
						<path fill="#520000" d="M177.74,253.57v18.87c0,0.51-0.42,0.93-0.93,0.93H163.5c-0.75,0-1.19-0.85-0.76-1.46l13.32-18.87
							C176.58,252.3,177.74,252.67,177.74,253.57z"/>
					</g>
					<g>
						<path fill="#520000" d="M159.82,269.69v-18.87c0-0.51,0.42-0.93,0.93-0.93h13.32c0.75,0,1.19,0.85,0.76,1.46l-13.32,18.87
							C160.98,270.96,159.82,270.59,159.82,269.69z"/>
					</g>
				</g>
				<g>
					<g>
						<path fill="#520000" d="M157.76,269.69v-18.87c0-0.51-0.42-0.93-0.93-0.93h-13.32c-0.75,0-1.19,0.85-0.76,1.46l13.32,18.87
							C156.6,270.96,157.76,270.59,157.76,269.69z"/>
					</g>
					<g>
						<path fill="#520000" d="M139.84,253.57v18.87c0,0.51,0.42,0.93,0.93,0.93h13.32c0.75,0,1.19-0.85,0.76-1.46l-13.32-18.87
							C141,252.3,139.84,252.67,139.84,253.57z"/>
					</g>
				</g>
				<g>
					<g>
						<path fill="#520000" d="M137.79,253.57v18.87c0,0.51-0.42,0.93-0.93,0.93h-13.32c-0.75,0-1.19-0.85-0.76-1.46l13.32-18.87
							C136.62,252.3,137.79,252.67,137.79,253.57z"/>
					</g>
					<g>
						<path fill="#520000" d="M119.86,269.69v-18.87c0-0.51,0.42-0.93,0.93-0.93h13.32c0.75,0,1.19,0.85,0.76,1.46l-13.32,18.87
							C121.03,270.96,119.86,270.59,119.86,269.69z"/>
					</g>
				</g>
				<g>
					<g>
						<path fill="#520000" d="M117.81,269.69v-18.87c0-0.51-0.42-0.93-0.93-0.93h-13.32c-0.75,0-1.19,0.85-0.76,1.46l13.32,18.87
							C116.65,270.96,117.81,270.59,117.81,269.69z"/>
					</g>
					<g>
						<path fill="#520000" d="M99.89,253.57v18.87c0,0.51,0.42,0.93,0.93,0.93h13.32c0.75,0,1.19-0.85,0.76-1.46l-13.32-18.87
							C101.05,252.3,99.89,252.67,99.89,253.57z"/>
					</g>
				</g>
				<g>
					<g>
						<path fill="#520000" d="M97.83,253.57v18.87c0,0.51-0.42,0.93-0.93,0.93H83.59c-0.75,0-1.19-0.85-0.76-1.46l13.32-18.87
							C96.67,252.3,97.83,252.67,97.83,253.57z"/>
					</g>
					<g>
						<path fill="#520000" d="M79.91,269.69v-18.87c0-0.51,0.42-0.93,0.93-0.93h13.32c0.75,0,1.19,0.85,0.76,1.46l-13.32,18.87
							C81.07,270.96,79.91,270.59,79.91,269.69z"/>
					</g>
				</g>
				<g>
					<g>
						<path fill="#520000" d="M77.85,269.69v-18.87c0-0.51-0.42-0.93-0.93-0.93H63.61c-0.75,0-1.19,0.85-0.76,1.46l13.32,18.87
							C76.69,270.96,77.85,270.59,77.85,269.69z"/>
					</g>
					<g>
						<path fill="#520000" d="M59.93,253.57v18.87c0,0.51,0.42,0.93,0.93,0.93h13.32c0.75,0,1.19-0.85,0.76-1.46l-13.32-18.87
							C61.1,252.3,59.93,252.67,59.93,253.57z"/>
					</g>
				</g>
				<g>
					<g>
						<path fill="#520000" d="M57.88,253.57v18.87c0,0.51-0.42,0.93-0.93,0.93H43.63c-0.75,0-1.19-0.85-0.76-1.46l13.32-18.87
							C56.71,252.3,57.88,252.67,57.88,253.57z"/>
					</g>
					<g>
						<path fill="#520000" d="M39.95,269.69v-18.87c0-0.51,0.42-0.93,0.93-0.93H54.2c0.75,0,1.19,0.85,0.76,1.46l-13.32,18.87
							C41.12,270.96,39.95,270.59,39.95,269.69z"/>
					</g>
				</g>
				<g>
					<g>
						<path fill="#520000" d="M37.9,269.69v-18.87c0-0.51-0.42-0.93-0.93-0.93H23.65c-0.75,0-1.19,0.85-0.76,1.46l13.32,18.87
							C36.74,270.96,37.9,270.59,37.9,269.69z"/>
					</g>
					<g>
						<path fill="#520000" d="M19.98,253.57v18.87c0,0.51,0.42,0.93,0.93,0.93h13.32c0.75,0,1.19-0.85,0.76-1.46l-13.32-18.87
							C21.14,252.3,19.98,252.67,19.98,253.57z"/>
					</g>
				</g>
				<g>
					<g>
						<path fill="#520000" d="M17.92,253.57v18.87c0,0.51-0.42,0.93-0.93,0.93H3.68c-0.75,0-1.19-0.85-0.76-1.46l13.32-18.87
							C16.76,252.3,17.92,252.67,17.92,253.57z"/>
					</g>
					<g>
						<path fill="#520000" d="M0,269.69v-18.87c0-0.51,0.42-0.93,0.93-0.93h13.32c0.75,0,1.19,0.85,0.76,1.46L1.68,270.22
							C1.16,270.96,0,270.59,0,269.69z"/>
					</g>
				</g>
			</g>
		</g>
		<g>
			<g>
				<g>
					<g>
						<path fill="#520000" d="M237.67,229.02v18.87c0,0.51-0.42,0.93-0.93,0.93h-13.32c-0.75,0-1.19-0.85-0.76-1.46l13.32-18.87
							C236.51,227.75,237.67,228.12,237.67,229.02z"/>
					</g>
					<g>
						<path fill="#520000" d="M219.75,245.14v-18.87c0-0.51,0.42-0.93,0.93-0.93H234c0.75,0,1.19,0.85,0.76,1.46l-13.32,18.87
							C220.91,246.41,219.75,246.04,219.75,245.14z"/>
					</g>
				</g>
				<g>
					<g>
						<path fill="#520000" d="M217.7,245.14v-18.87c0-0.51-0.42-0.93-0.93-0.93h-13.32c-0.75,0-1.19,0.85-0.76,1.46l13.32,18.87
							C216.53,246.41,217.7,246.04,217.7,245.14z"/>
					</g>
					<g>
						<path fill="#520000" d="M199.77,229.02v18.87c0,0.51,0.42,0.93,0.93,0.93h13.32c0.75,0,1.19-0.85,0.76-1.46l-13.32-18.87
							C200.94,227.75,199.77,228.12,199.77,229.02z"/>
					</g>
				</g>
				<g>
					<g>
						<path fill="#520000" d="M197.72,229.02v18.87c0,0.51-0.42,0.93-0.93,0.93h-13.32c-0.75,0-1.19-0.85-0.76-1.46l13.32-18.87
							C196.56,227.75,197.72,228.12,197.72,229.02z"/>
					</g>
					<g>
						<path fill="#520000" d="M179.8,245.14v-18.87c0-0.51,0.42-0.93,0.93-0.93h13.32c0.75,0,1.19,0.85,0.76,1.46l-13.32,18.87
							C180.96,246.41,179.8,246.04,179.8,245.14z"/>
					</g>
				</g>
				<g>
					<g>
						<path fill="#520000" d="M177.74,245.14v-18.87c0-0.51-0.42-0.93-0.93-0.93H163.5c-0.75,0-1.19,0.85-0.76,1.46l13.32,18.87
							C176.58,246.41,177.74,246.04,177.74,245.14z"/>
					</g>
					<g>
						<path fill="#520000" d="M159.82,229.02v18.87c0,0.51,0.42,0.93,0.93,0.93h13.32c0.75,0,1.19-0.85,0.76-1.46l-13.32-18.87
							C160.98,227.75,159.82,228.12,159.82,229.02z"/>
					</g>
				</g>
				<g>
					<g>
						<path fill="#520000" d="M157.76,229.02v18.87c0,0.51-0.42,0.93-0.93,0.93h-13.32c-0.75,0-1.19-0.85-0.76-1.46l13.32-18.87
							C156.6,227.75,157.76,228.12,157.76,229.02z"/>
					</g>
					<g>
						<path fill="#520000" d="M139.84,245.14v-18.87c0-0.51,0.42-0.93,0.93-0.93h13.32c0.75,0,1.19,0.85,0.76,1.46l-13.32,18.87
							C141,246.41,139.84,246.04,139.84,245.14z"/>
					</g>
				</g>
				<g>
					<g>
						<path fill="#520000" d="M137.79,245.14v-18.87c0-0.51-0.42-0.93-0.93-0.93h-13.32c-0.75,0-1.19,0.85-0.76,1.46l13.32,18.87
							C136.62,246.41,137.79,246.04,137.79,245.14z"/>
					</g>
					<g>
						<path fill="#520000" d="M119.86,229.02v18.87c0,0.51,0.42,0.93,0.93,0.93h13.32c0.75,0,1.19-0.85,0.76-1.46l-13.32-18.87
							C121.03,227.75,119.86,228.12,119.86,229.02z"/>
					</g>
				</g>
				<g>
					<g>
						<path fill="#520000" d="M117.81,229.02v18.87c0,0.51-0.42,0.93-0.93,0.93h-13.32c-0.75,0-1.19-0.85-0.76-1.46l13.32-18.87
							C116.65,227.75,117.81,228.12,117.81,229.02z"/>
					</g>
					<g>
						<path fill="#520000" d="M99.89,245.14v-18.87c0-0.51,0.42-0.93,0.93-0.93h13.32c0.75,0,1.19,0.85,0.76,1.46l-13.32,18.87
							C101.05,246.41,99.89,246.04,99.89,245.14z"/>
					</g>
				</g>
				<g>
					<g>
						<path fill="#520000" d="M97.83,245.14v-18.87c0-0.51-0.42-0.93-0.93-0.93H83.59c-0.75,0-1.19,0.85-0.76,1.46l13.32,18.87
							C96.67,246.41,97.83,246.04,97.83,245.14z"/>
					</g>
					<g>
						<path fill="#520000" d="M79.91,229.02v18.87c0,0.51,0.42,0.93,0.93,0.93h13.32c0.75,0,1.19-0.85,0.76-1.46l-13.32-18.87
							C81.07,227.75,79.91,228.12,79.91,229.02z"/>
					</g>
				</g>
				<g>
					<g>
						<path fill="#520000" d="M77.85,229.02v18.87c0,0.51-0.42,0.93-0.93,0.93H63.61c-0.75,0-1.19-0.85-0.76-1.46l13.32-18.87
							C76.69,227.75,77.85,228.12,77.85,229.02z"/>
					</g>
					<g>
						<path fill="#520000" d="M59.93,245.14v-18.87c0-0.51,0.42-0.93,0.93-0.93h13.32c0.75,0,1.19,0.85,0.76,1.46l-13.32,18.87
							C61.1,246.41,59.93,246.04,59.93,245.14z"/>
					</g>
				</g>
				<g>
					<g>
						<path fill="#520000" d="M57.88,245.14v-18.87c0-0.51-0.42-0.93-0.93-0.93H43.63c-0.75,0-1.19,0.85-0.76,1.46l13.32,18.87
							C56.71,246.41,57.88,246.04,57.88,245.14z"/>
					</g>
					<g>
						<path fill="#520000" d="M39.95,229.02v18.87c0,0.51,0.42,0.93,0.93,0.93H54.2c0.75,0,1.19-0.85,0.76-1.46l-13.32-18.87
							C41.12,227.75,39.95,228.12,39.95,229.02z"/>
					</g>
				</g>
				<g>
					<g>
						<path fill="#520000" d="M37.9,229.02v18.87c0,0.51-0.42,0.93-0.93,0.93H23.65c-0.75,0-1.19-0.85-0.76-1.46l13.32-18.87
							C36.74,227.75,37.9,228.12,37.9,229.02z"/>
					</g>
					<g>
						<path fill="#520000" d="M19.98,245.14v-18.87c0-0.51,0.42-0.93,0.93-0.93h13.32c0.75,0,1.19,0.85,0.76,1.46l-13.32,18.87
							C21.14,246.41,19.98,246.04,19.98,245.14z"/>
					</g>
				</g>
				<g>
					<g>
						<path fill="#520000" d="M17.92,245.14v-18.87c0-0.51-0.42-0.93-0.93-0.93H3.68c-0.75,0-1.19,0.85-0.76,1.46l13.32,18.87
							C16.76,246.41,17.92,246.04,17.92,245.14z"/>
					</g>
					<g>
						<path fill="#520000" d="M0,229.02v18.87c0,0.51,0.42,0.93,0.93,0.93h13.32c0.75,0,1.19-0.85,0.76-1.46L1.68,228.49
							C1.16,227.75,0,228.12,0,229.02z"/>
					</g>
				</g>
			</g>
			<g>
				<g>
					<g>
						<path fill="#520000" d="M237.67,219.71v-18.87c0-0.51-0.42-0.93-0.93-0.93h-13.32c-0.75,0-1.19,0.85-0.76,1.46l13.32,18.87
							C236.51,220.98,237.67,220.61,237.67,219.71z"/>
					</g>
					<g>
						<path fill="#520000" d="M219.75,203.59v18.87c0,0.51,0.42,0.93,0.93,0.93H234c0.75,0,1.19-0.85,0.76-1.46l-13.32-18.87
							C220.91,202.32,219.75,202.69,219.75,203.59z"/>
					</g>
				</g>
				<g>
					<g>
						<path fill="#520000" d="M217.7,203.59v18.87c0,0.51-0.42,0.93-0.93,0.93h-13.32c-0.75,0-1.19-0.85-0.76-1.46l13.32-18.87
							C216.53,202.32,217.7,202.69,217.7,203.59z"/>
					</g>
					<g>
						<path fill="#520000" d="M199.77,219.71v-18.87c0-0.51,0.42-0.93,0.93-0.93h13.32c0.75,0,1.19,0.85,0.76,1.46l-13.32,18.87
							C200.94,220.98,199.77,220.61,199.77,219.71z"/>
					</g>
				</g>
				<g>
					<g>
						<path fill="#520000" d="M197.72,219.71v-18.87c0-0.51-0.42-0.93-0.93-0.93h-13.32c-0.75,0-1.19,0.85-0.76,1.46l13.32,18.87
							C196.56,220.98,197.72,220.61,197.72,219.71z"/>
					</g>
					<g>
						<path fill="#520000" d="M179.8,203.59v18.87c0,0.51,0.42,0.93,0.93,0.93h13.32c0.75,0,1.19-0.85,0.76-1.46l-13.32-18.87
							C180.96,202.32,179.8,202.69,179.8,203.59z"/>
					</g>
				</g>
				<g>
					<g>
						<path fill="#520000" d="M177.74,203.59v18.87c0,0.51-0.42,0.93-0.93,0.93H163.5c-0.75,0-1.19-0.85-0.76-1.46l13.32-18.87
							C176.58,202.32,177.74,202.69,177.74,203.59z"/>
					</g>
					<g>
						<path fill="#520000" d="M159.82,219.71v-18.87c0-0.51,0.42-0.93,0.93-0.93h13.32c0.75,0,1.19,0.85,0.76,1.46l-13.32,18.87
							C160.98,220.98,159.82,220.61,159.82,219.71z"/>
					</g>
				</g>
				<g>
					<g>
						<path fill="#520000" d="M157.76,219.71v-18.87c0-0.51-0.42-0.93-0.93-0.93h-13.32c-0.75,0-1.19,0.85-0.76,1.46l13.32,18.87
							C156.6,220.98,157.76,220.61,157.76,219.71z"/>
					</g>
					<g>
						<path fill="#520000" d="M139.84,203.59v18.87c0,0.51,0.42,0.93,0.93,0.93h13.32c0.75,0,1.19-0.85,0.76-1.46l-13.32-18.87
							C141,202.32,139.84,202.69,139.84,203.59z"/>
					</g>
				</g>
				<g>
					<g>
						<path fill="#520000" d="M137.79,203.59v18.87c0,0.51-0.42,0.93-0.93,0.93h-13.32c-0.75,0-1.19-0.85-0.76-1.46l13.32-18.87
							C136.62,202.32,137.79,202.69,137.79,203.59z"/>
					</g>
					<g>
						<path fill="#520000" d="M119.86,219.71v-18.87c0-0.51,0.42-0.93,0.93-0.93h13.32c0.75,0,1.19,0.85,0.76,1.46l-13.32,18.87
							C121.03,220.98,119.86,220.61,119.86,219.71z"/>
					</g>
				</g>
				<g>
					<g>
						<path fill="#520000" d="M117.81,219.71v-18.87c0-0.51-0.42-0.93-0.93-0.93h-13.32c-0.75,0-1.19,0.85-0.76,1.46l13.32,18.87
							C116.65,220.98,117.81,220.61,117.81,219.71z"/>
					</g>
					<g>
						<path fill="#520000" d="M99.89,203.59v18.87c0,0.51,0.42,0.93,0.93,0.93h13.32c0.75,0,1.19-0.85,0.76-1.46l-13.32-18.87
							C101.05,202.32,99.89,202.69,99.89,203.59z"/>
					</g>
				</g>
				<g>
					<g>
						<path fill="#520000" d="M97.83,203.59v18.87c0,0.51-0.42,0.93-0.93,0.93H83.59c-0.75,0-1.19-0.85-0.76-1.46l13.32-18.87
							C96.67,202.32,97.83,202.69,97.83,203.59z"/>
					</g>
					<g>
						<path fill="#520000" d="M79.91,219.71v-18.87c0-0.51,0.42-0.93,0.93-0.93h13.32c0.75,0,1.19,0.85,0.76,1.46l-13.32,18.87
							C81.07,220.98,79.91,220.61,79.91,219.71z"/>
					</g>
				</g>
				<g>
					<g>
						<path fill="#520000" d="M77.85,219.71v-18.87c0-0.51-0.42-0.93-0.93-0.93H63.61c-0.75,0-1.19,0.85-0.76,1.46l13.32,18.87
							C76.69,220.98,77.85,220.61,77.85,219.71z"/>
					</g>
					<g>
						<path fill="#520000" d="M59.93,203.59v18.87c0,0.51,0.42,0.93,0.93,0.93h13.32c0.75,0,1.19-0.85,0.76-1.46l-13.32-18.87
							C61.1,202.32,59.93,202.69,59.93,203.59z"/>
					</g>
				</g>
				<g>
					<g>
						<path fill="#520000" d="M57.88,203.59v18.87c0,0.51-0.42,0.93-0.93,0.93H43.63c-0.75,0-1.19-0.85-0.76-1.46l13.32-18.87
							C56.71,202.32,57.88,202.69,57.88,203.59z"/>
					</g>
					<g>
						<path fill="#520000" d="M39.95,219.71v-18.87c0-0.51,0.42-0.93,0.93-0.93H54.2c0.75,0,1.19,0.85,0.76,1.46l-13.32,18.87
							C41.12,220.98,39.95,220.61,39.95,219.71z"/>
					</g>
				</g>
				<g>
					<g>
						<path fill="#520000" d="M37.9,219.71v-18.87c0-0.51-0.42-0.93-0.93-0.93H23.65c-0.75,0-1.19,0.85-0.76,1.46l13.32,18.87
							C36.74,220.98,37.9,220.61,37.9,219.71z"/>
					</g>
					<g>
						<path fill="#520000" d="M19.98,203.59v18.87c0,0.51,0.42,0.93,0.93,0.93h13.32c0.75,0,1.19-0.85,0.76-1.46l-13.32-18.87
							C21.14,202.32,19.98,202.69,19.98,203.59z"/>
					</g>
				</g>
				<g>
					<g>
						<path fill="#520000" d="M17.92,203.59v18.87c0,0.51-0.42,0.93-0.93,0.93H3.68c-0.75,0-1.19-0.85-0.76-1.46l13.32-18.87
							C16.76,202.32,17.92,202.69,17.92,203.59z"/>
					</g>
					<g>
						<path fill="#520000" d="M0,219.71v-18.87c0-0.51,0.42-0.93,0.93-0.93h13.32c0.75,0,1.19,0.85,0.76,1.46L1.68,220.24
							C1.16,220.98,0,220.61,0,219.71z"/>
					</g>
				</g>
			</g>
		</g>
		<g>
			<g>
				<g>
					<g>
						<path fill="#520000" d="M237.67,179.04v18.87c0,0.51-0.42,0.93-0.93,0.93h-13.32c-0.75,0-1.19-0.85-0.76-1.46l13.32-18.87
							C236.51,177.77,237.67,178.14,237.67,179.04z"/>
					</g>
					<g>
						<path fill="#520000" d="M219.75,195.16v-18.87c0-0.51,0.42-0.93,0.93-0.93H234c0.75,0,1.19,0.85,0.76,1.46l-13.32,18.87
							C220.91,196.43,219.75,196.06,219.75,195.16z"/>
					</g>
				</g>
				<g>
					<g>
						<path fill="#520000" d="M217.7,195.16v-18.87c0-0.51-0.42-0.93-0.93-0.93h-13.32c-0.75,0-1.19,0.85-0.76,1.46l13.32,18.87
							C216.53,196.43,217.7,196.06,217.7,195.16z"/>
					</g>
					<g>
						<path fill="#520000" d="M199.77,179.04v18.87c0,0.51,0.42,0.93,0.93,0.93h13.32c0.75,0,1.19-0.85,0.76-1.46l-13.32-18.87
							C200.94,177.77,199.77,178.14,199.77,179.04z"/>
					</g>
				</g>
				<g>
					<g>
						<path fill="#520000" d="M197.72,179.04v18.87c0,0.51-0.42,0.93-0.93,0.93h-13.32c-0.75,0-1.19-0.85-0.76-1.46l13.32-18.87
							C196.56,177.77,197.72,178.14,197.72,179.04z"/>
					</g>
					<g>
						<path fill="#520000" d="M179.8,195.16v-18.87c0-0.51,0.42-0.93,0.93-0.93h13.32c0.75,0,1.19,0.85,0.76,1.46l-13.32,18.87
							C180.96,196.43,179.8,196.06,179.8,195.16z"/>
					</g>
				</g>
				<g>
					<g>
						<path fill="#520000" d="M177.74,195.16v-18.87c0-0.51-0.42-0.93-0.93-0.93H163.5c-0.75,0-1.19,0.85-0.76,1.46l13.32,18.87
							C176.58,196.43,177.74,196.06,177.74,195.16z"/>
					</g>
					<g>
						<path fill="#520000" d="M159.82,179.04v18.87c0,0.51,0.42,0.93,0.93,0.93h13.32c0.75,0,1.19-0.85,0.76-1.46l-13.32-18.87
							C160.98,177.77,159.82,178.14,159.82,179.04z"/>
					</g>
				</g>
				<g>
					<g>
						<path fill="#520000" d="M157.76,179.04v18.87c0,0.51-0.42,0.93-0.93,0.93h-13.32c-0.75,0-1.19-0.85-0.76-1.46l13.32-18.87
							C156.6,177.77,157.76,178.14,157.76,179.04z"/>
					</g>
					<g>
						<path fill="#520000" d="M139.84,195.16v-18.87c0-0.51,0.42-0.93,0.93-0.93h13.32c0.75,0,1.19,0.85,0.76,1.46l-13.32,18.87
							C141,196.43,139.84,196.06,139.84,195.16z"/>
					</g>
				</g>
				<g>
					<g>
						<path fill="#520000" d="M137.79,195.16v-18.87c0-0.51-0.42-0.93-0.93-0.93h-13.32c-0.75,0-1.19,0.85-0.76,1.46l13.32,18.87
							C136.62,196.43,137.79,196.06,137.79,195.16z"/>
					</g>
					<g>
						<path fill="#520000" d="M119.86,179.04v18.87c0,0.51,0.42,0.93,0.93,0.93h13.32c0.75,0,1.19-0.85,0.76-1.46l-13.32-18.87
							C121.03,177.77,119.86,178.14,119.86,179.04z"/>
					</g>
				</g>
				<g>
					<g>
						<path fill="#520000" d="M117.81,179.04v18.87c0,0.51-0.42,0.93-0.93,0.93h-13.32c-0.75,0-1.19-0.85-0.76-1.46l13.32-18.87
							C116.65,177.77,117.81,178.14,117.81,179.04z"/>
					</g>
					<g>
						<path fill="#520000" d="M99.89,195.16v-18.87c0-0.51,0.42-0.93,0.93-0.93h13.32c0.75,0,1.19,0.85,0.76,1.46l-13.32,18.87
							C101.05,196.43,99.89,196.06,99.89,195.16z"/>
					</g>
				</g>
				<g>
					<g>
						<path fill="#520000" d="M97.83,195.16v-18.87c0-0.51-0.42-0.93-0.93-0.93H83.59c-0.75,0-1.19,0.85-0.76,1.46l13.32,18.87
							C96.67,196.43,97.83,196.06,97.83,195.16z"/>
					</g>
					<g>
						<path fill="#520000" d="M79.91,179.04v18.87c0,0.51,0.42,0.93,0.93,0.93h13.32c0.75,0,1.19-0.85,0.76-1.46l-13.32-18.87
							C81.07,177.77,79.91,178.14,79.91,179.04z"/>
					</g>
				</g>
				<g>
					<g>
						<path fill="#520000" d="M77.85,179.04v18.87c0,0.51-0.42,0.93-0.93,0.93H63.61c-0.75,0-1.19-0.85-0.76-1.46l13.32-18.87
							C76.69,177.77,77.85,178.14,77.85,179.04z"/>
					</g>
					<g>
						<path fill="#520000" d="M59.93,195.16v-18.87c0-0.51,0.42-0.93,0.93-0.93h13.32c0.75,0,1.19,0.85,0.76,1.46l-13.32,18.87
							C61.1,196.43,59.93,196.06,59.93,195.16z"/>
					</g>
				</g>
				<g>
					<g>
						<path fill="#520000" d="M57.88,195.16v-18.87c0-0.51-0.42-0.93-0.93-0.93H43.63c-0.75,0-1.19,0.85-0.76,1.46l13.32,18.87
							C56.71,196.43,57.88,196.06,57.88,195.16z"/>
					</g>
					<g>
						<path fill="#520000" d="M39.95,179.04v18.87c0,0.51,0.42,0.93,0.93,0.93H54.2c0.75,0,1.19-0.85,0.76-1.46l-13.32-18.87
							C41.12,177.77,39.95,178.14,39.95,179.04z"/>
					</g>
				</g>
				<g>
					<g>
						<path fill="#520000" d="M37.9,179.04v18.87c0,0.51-0.42,0.93-0.93,0.93H23.65c-0.75,0-1.19-0.85-0.76-1.46l13.32-18.87
							C36.74,177.77,37.9,178.14,37.9,179.04z"/>
					</g>
					<g>
						<path fill="#520000" d="M19.98,195.16v-18.87c0-0.51,0.42-0.93,0.93-0.93h13.32c0.75,0,1.19,0.85,0.76,1.46l-13.32,18.87
							C21.14,196.43,19.98,196.06,19.98,195.16z"/>
					</g>
				</g>
				<g>
					<g>
						<path fill="#520000" d="M17.92,195.16v-18.87c0-0.51-0.42-0.93-0.93-0.93H3.68c-0.75,0-1.19,0.85-0.76,1.46l13.32,18.87
							C16.76,196.43,17.92,196.06,17.92,195.16z"/>
					</g>
					<g>
						<path fill="#520000" d="M0,179.04v18.87c0,0.51,0.42,0.93,0.93,0.93h13.32c0.75,0,1.19-0.85,0.76-1.46L1.68,178.51
							C1.16,177.77,0,178.14,0,179.04z"/>
					</g>
				</g>
			</g>
			<g>
				<g>
					<g>
						<path fill="#520000" d="M237.67,169.73v-18.87c0-0.51-0.42-0.93-0.93-0.93h-13.32c-0.75,0-1.19,0.85-0.76,1.46l13.32,18.87
							C236.51,171,237.67,170.63,237.67,169.73z"/>
					</g>
					<g>
						<path fill="#520000" d="M219.75,153.62v18.87c0,0.51,0.42,0.93,0.93,0.93H234c0.75,0,1.19-0.85,0.76-1.46l-13.32-18.87
							C220.91,152.34,219.75,152.71,219.75,153.62z"/>
					</g>
				</g>
				<g>
					<g>
						<path fill="#520000" d="M217.7,153.62v18.87c0,0.51-0.42,0.93-0.93,0.93h-13.32c-0.75,0-1.19-0.85-0.76-1.46l13.32-18.87
							C216.53,152.34,217.7,152.71,217.7,153.62z"/>
					</g>
					<g>
						<path fill="#520000" d="M199.77,169.73v-18.87c0-0.51,0.42-0.93,0.93-0.93h13.32c0.75,0,1.19,0.85,0.76,1.46l-13.32,18.87
							C200.94,171,199.77,170.63,199.77,169.73z"/>
					</g>
				</g>
				<g>
					<g>
						<path fill="#520000" d="M197.72,169.73v-18.87c0-0.51-0.42-0.93-0.93-0.93h-13.32c-0.75,0-1.19,0.85-0.76,1.46l13.32,18.87
							C196.56,171,197.72,170.63,197.72,169.73z"/>
					</g>
					<g>
						<path fill="#520000" d="M179.8,153.62v18.87c0,0.51,0.42,0.93,0.93,0.93h13.32c0.75,0,1.19-0.85,0.76-1.46l-13.32-18.87
							C180.96,152.34,179.8,152.71,179.8,153.62z"/>
					</g>
				</g>
				<g>
					<g>
						<path fill="#520000" d="M177.74,153.62v18.87c0,0.51-0.42,0.93-0.93,0.93H163.5c-0.75,0-1.19-0.85-0.76-1.46l13.32-18.87
							C176.58,152.34,177.74,152.71,177.74,153.62z"/>
					</g>
					<g>
						<path fill="#520000" d="M159.82,169.73v-18.87c0-0.51,0.42-0.93,0.93-0.93h13.32c0.75,0,1.19,0.85,0.76,1.46l-13.32,18.87
							C160.98,171,159.82,170.63,159.82,169.73z"/>
					</g>
				</g>
				<g>
					<g>
						<path fill="#520000" d="M157.76,169.73v-18.87c0-0.51-0.42-0.93-0.93-0.93h-13.32c-0.75,0-1.19,0.85-0.76,1.46l13.32,18.87
							C156.6,171,157.76,170.63,157.76,169.73z"/>
					</g>
					<g>
						<path fill="#520000" d="M139.84,153.62v18.87c0,0.51,0.42,0.93,0.93,0.93h13.32c0.75,0,1.19-0.85,0.76-1.46l-13.32-18.87
							C141,152.34,139.84,152.71,139.84,153.62z"/>
					</g>
				</g>
				<g>
					<g>
						<path fill="#520000" d="M137.79,153.62v18.87c0,0.51-0.42,0.93-0.93,0.93h-13.32c-0.75,0-1.19-0.85-0.76-1.46l13.32-18.87
							C136.62,152.34,137.79,152.71,137.79,153.62z"/>
					</g>
					<g>
						<path fill="#520000" d="M119.86,169.73v-18.87c0-0.51,0.42-0.93,0.93-0.93h13.32c0.75,0,1.19,0.85,0.76,1.46l-13.32,18.87
							C121.03,171,119.86,170.63,119.86,169.73z"/>
					</g>
				</g>
				<g>
					<g>
						<path fill="#520000" d="M117.81,169.73v-18.87c0-0.51-0.42-0.93-0.93-0.93h-13.32c-0.75,0-1.19,0.85-0.76,1.46l13.32,18.87
							C116.65,171,117.81,170.63,117.81,169.73z"/>
					</g>
					<g>
						<path fill="#520000" d="M99.89,153.62v18.87c0,0.51,0.42,0.93,0.93,0.93h13.32c0.75,0,1.19-0.85,0.76-1.46l-13.32-18.87
							C101.05,152.34,99.89,152.71,99.89,153.62z"/>
					</g>
				</g>
				<g>
					<g>
						<path fill="#520000" d="M97.83,153.62v18.87c0,0.51-0.42,0.93-0.93,0.93H83.59c-0.75,0-1.19-0.85-0.76-1.46l13.32-18.87
							C96.67,152.34,97.83,152.71,97.83,153.62z"/>
					</g>
					<g>
						<path fill="#520000" d="M79.91,169.73v-18.87c0-0.51,0.42-0.93,0.93-0.93h13.32c0.75,0,1.19,0.85,0.76,1.46l-13.32,18.87
							C81.07,171,79.91,170.63,79.91,169.73z"/>
					</g>
				</g>
				<g>
					<g>
						<path fill="#520000" d="M77.85,169.73v-18.87c0-0.51-0.42-0.93-0.93-0.93H63.61c-0.75,0-1.19,0.85-0.76,1.46l13.32,18.87
							C76.69,171,77.85,170.63,77.85,169.73z"/>
					</g>
					<g>
						<path fill="#520000" d="M59.93,153.62v18.87c0,0.51,0.42,0.93,0.93,0.93h13.32c0.75,0,1.19-0.85,0.76-1.46l-13.32-18.87
							C61.1,152.34,59.93,152.71,59.93,153.62z"/>
					</g>
				</g>
				<g>
					<g>
						<path fill="#520000" d="M57.88,153.62v18.87c0,0.51-0.42,0.93-0.93,0.93H43.63c-0.75,0-1.19-0.85-0.76-1.46l13.32-18.87
							C56.71,152.34,57.88,152.71,57.88,153.62z"/>
					</g>
					<g>
						<path fill="#520000" d="M39.95,169.73v-18.87c0-0.51,0.42-0.93,0.93-0.93H54.2c0.75,0,1.19,0.85,0.76,1.46l-13.32,18.87
							C41.12,171,39.95,170.63,39.95,169.73z"/>
					</g>
				</g>
				<g>
					<g>
						<path fill="#520000" d="M37.9,169.73v-18.87c0-0.51-0.42-0.93-0.93-0.93H23.65c-0.75,0-1.19,0.85-0.76,1.46l13.32,18.87
							C36.74,171,37.9,170.63,37.9,169.73z"/>
					</g>
					<g>
						<path fill="#520000" d="M19.98,153.62v18.87c0,0.51,0.42,0.93,0.93,0.93h13.32c0.75,0,1.19-0.85,0.76-1.46l-13.32-18.87
							C21.14,152.34,19.98,152.71,19.98,153.62z"/>
					</g>
				</g>
				<g>
					<g>
						<path fill="#520000" d="M17.92,153.62v18.87c0,0.51-0.42,0.93-0.93,0.93H3.68c-0.75,0-1.19-0.85-0.76-1.46l13.32-18.87
							C16.76,152.34,17.92,152.71,17.92,153.62z"/>
					</g>
					<g>
						<path fill="#520000" d="M0,169.73v-18.87c0-0.51,0.42-0.93,0.93-0.93h13.32c0.75,0,1.19,0.85,0.76,1.46L1.68,170.26
							C1.16,171,0,170.63,0,169.73z"/>
					</g>
				</g>
			</g>
		</g>
		<g>
			<g>
				<g>
					<g>
						<path fill="#520000" d="M237.67,129.06v18.87c0,0.51-0.42,0.93-0.93,0.93h-13.32c-0.75,0-1.19-0.85-0.76-1.46l13.32-18.87
							C236.51,127.79,237.67,128.16,237.67,129.06z"/>
					</g>
					<g>
						<path fill="#520000" d="M219.75,145.18v-18.87c0-0.51,0.42-0.93,0.93-0.93H234c0.75,0,1.19,0.85,0.76,1.46l-13.32,18.87
							C220.91,146.45,219.75,146.08,219.75,145.18z"/>
					</g>
				</g>
				<g>
					<g>
						<path fill="#520000" d="M217.7,145.18v-18.87c0-0.51-0.42-0.93-0.93-0.93h-13.32c-0.75,0-1.19,0.85-0.76,1.46l13.32,18.87
							C216.53,146.45,217.7,146.08,217.7,145.18z"/>
					</g>
					<g>
						<path fill="#520000" d="M199.77,129.06v18.87c0,0.51,0.42,0.93,0.93,0.93h13.32c0.75,0,1.19-0.85,0.76-1.46l-13.32-18.87
							C200.94,127.79,199.77,128.16,199.77,129.06z"/>
					</g>
				</g>
				<g>
					<g>
						<path fill="#520000" d="M197.72,129.06v18.87c0,0.51-0.42,0.93-0.93,0.93h-13.32c-0.75,0-1.19-0.85-0.76-1.46l13.32-18.87
							C196.56,127.79,197.72,128.16,197.72,129.06z"/>
					</g>
					<g>
						<path fill="#520000" d="M179.8,145.18v-18.87c0-0.51,0.42-0.93,0.93-0.93h13.32c0.75,0,1.19,0.85,0.76,1.46l-13.32,18.87
							C180.96,146.45,179.8,146.08,179.8,145.18z"/>
					</g>
				</g>
				<g>
					<g>
						<path fill="#520000" d="M177.74,145.18v-18.87c0-0.51-0.42-0.93-0.93-0.93H163.5c-0.75,0-1.19,0.85-0.76,1.46l13.32,18.87
							C176.58,146.45,177.74,146.08,177.74,145.18z"/>
					</g>
					<g>
						<path fill="#520000" d="M159.82,129.06v18.87c0,0.51,0.42,0.93,0.93,0.93h13.32c0.75,0,1.19-0.85,0.76-1.46l-13.32-18.87
							C160.98,127.79,159.82,128.16,159.82,129.06z"/>
					</g>
				</g>
				<g>
					<g>
						<path fill="#520000" d="M157.76,129.06v18.87c0,0.51-0.42,0.93-0.93,0.93h-13.32c-0.75,0-1.19-0.85-0.76-1.46l13.32-18.87
							C156.6,127.79,157.76,128.16,157.76,129.06z"/>
					</g>
					<g>
						<path fill="#520000" d="M139.84,145.18v-18.87c0-0.51,0.42-0.93,0.93-0.93h13.32c0.75,0,1.19,0.85,0.76,1.46l-13.32,18.87
							C141,146.45,139.84,146.08,139.84,145.18z"/>
					</g>
				</g>
				<g>
					<g>
						<path fill="#520000" d="M137.79,145.18v-18.87c0-0.51-0.42-0.93-0.93-0.93h-13.32c-0.75,0-1.19,0.85-0.76,1.46l13.32,18.87
							C136.62,146.45,137.79,146.08,137.79,145.18z"/>
					</g>
					<g>
						<path fill="#520000" d="M119.86,129.06v18.87c0,0.51,0.42,0.93,0.93,0.93h13.32c0.75,0,1.19-0.85,0.76-1.46l-13.32-18.87
							C121.03,127.79,119.86,128.16,119.86,129.06z"/>
					</g>
				</g>
				<g>
					<g>
						<path fill="#520000" d="M117.81,129.06v18.87c0,0.51-0.42,0.93-0.93,0.93h-13.32c-0.75,0-1.19-0.85-0.76-1.46l13.32-18.87
							C116.65,127.79,117.81,128.16,117.81,129.06z"/>
					</g>
					<g>
						<path fill="#520000" d="M99.89,145.18v-18.87c0-0.51,0.42-0.93,0.93-0.93h13.32c0.75,0,1.19,0.85,0.76,1.46l-13.32,18.87
							C101.05,146.45,99.89,146.08,99.89,145.18z"/>
					</g>
				</g>
				<g>
					<g>
						<path fill="#520000" d="M97.83,145.18v-18.87c0-0.51-0.42-0.93-0.93-0.93H83.59c-0.75,0-1.19,0.85-0.76,1.46l13.32,18.87
							C96.67,146.45,97.83,146.08,97.83,145.18z"/>
					</g>
					<g>
						<path fill="#520000" d="M79.91,129.06v18.87c0,0.51,0.42,0.93,0.93,0.93h13.32c0.75,0,1.19-0.85,0.76-1.46l-13.32-18.87
							C81.07,127.79,79.91,128.16,79.91,129.06z"/>
					</g>
				</g>
				<g>
					<g>
						<path fill="#520000" d="M77.85,129.06v18.87c0,0.51-0.42,0.93-0.93,0.93H63.61c-0.75,0-1.19-0.85-0.76-1.46l13.32-18.87
							C76.69,127.79,77.85,128.16,77.85,129.06z"/>
					</g>
					<g>
						<path fill="#520000" d="M59.93,145.18v-18.87c0-0.51,0.42-0.93,0.93-0.93h13.32c0.75,0,1.19,0.85,0.76,1.46l-13.32,18.87
							C61.1,146.45,59.93,146.08,59.93,145.18z"/>
					</g>
				</g>
				<g>
					<g>
						<path fill="#520000" d="M57.88,145.18v-18.87c0-0.51-0.42-0.93-0.93-0.93H43.63c-0.75,0-1.19,0.85-0.76,1.46l13.32,18.87
							C56.71,146.45,57.88,146.08,57.88,145.18z"/>
					</g>
					<g>
						<path fill="#520000" d="M39.95,129.06v18.87c0,0.51,0.42,0.93,0.93,0.93H54.2c0.75,0,1.19-0.85,0.76-1.46l-13.32-18.87
							C41.12,127.79,39.95,128.16,39.95,129.06z"/>
					</g>
				</g>
				<g>
					<g>
						<path fill="#520000" d="M37.9,129.06v18.87c0,0.51-0.42,0.93-0.93,0.93H23.65c-0.75,0-1.19-0.85-0.76-1.46l13.32-18.87
							C36.74,127.79,37.9,128.16,37.9,129.06z"/>
					</g>
					<g>
						<path fill="#520000" d="M19.98,145.18v-18.87c0-0.51,0.42-0.93,0.93-0.93h13.32c0.75,0,1.19,0.85,0.76,1.46l-13.32,18.87
							C21.14,146.45,19.98,146.08,19.98,145.18z"/>
					</g>
				</g>
				<g>
					<g>
						<path fill="#520000" d="M17.92,145.18v-18.87c0-0.51-0.42-0.93-0.93-0.93H3.68c-0.75,0-1.19,0.85-0.76,1.46l13.32,18.87
							C16.76,146.45,17.92,146.08,17.92,145.18z"/>
					</g>
					<g>
						<path fill="#520000" d="M0,129.06v18.87c0,0.51,0.42,0.93,0.93,0.93h13.32c0.75,0,1.19-0.85,0.76-1.46L1.68,128.53
							C1.16,127.79,0,128.16,0,129.06z"/>
					</g>
				</g>
			</g>
			<g>
				<g>
					<g>
						<path fill="#520000" d="M237.67,119.75v-18.87c0-0.51-0.42-0.93-0.93-0.93h-13.32c-0.75,0-1.19,0.85-0.76,1.46l13.32,18.87
							C236.51,121.02,237.67,120.66,237.67,119.75z"/>
					</g>
					<g>
						<path fill="#520000" d="M219.75,103.64v18.87c0,0.51,0.42,0.93,0.93,0.93H234c0.75,0,1.19-0.85,0.76-1.46l-13.32-18.87
							C220.91,102.36,219.75,102.73,219.75,103.64z"/>
					</g>
				</g>
				<g>
					<g>
						<path fill="#520000" d="M217.7,103.64v18.87c0,0.51-0.42,0.93-0.93,0.93h-13.32c-0.75,0-1.19-0.85-0.76-1.46l13.32-18.87
							C216.53,102.36,217.7,102.73,217.7,103.64z"/>
					</g>
					<g>
						<path fill="#520000" d="M199.77,119.75v-18.87c0-0.51,0.42-0.93,0.93-0.93h13.32c0.75,0,1.19,0.85,0.76,1.46l-13.32,18.87
							C200.94,121.02,199.77,120.66,199.77,119.75z"/>
					</g>
				</g>
				<g>
					<g>
						<path fill="#520000" d="M197.72,119.75v-18.87c0-0.51-0.42-0.93-0.93-0.93h-13.32c-0.75,0-1.19,0.85-0.76,1.46l13.32,18.87
							C196.56,121.02,197.72,120.66,197.72,119.75z"/>
					</g>
					<g>
						<path fill="#520000" d="M179.8,103.64v18.87c0,0.51,0.42,0.93,0.93,0.93h13.32c0.75,0,1.19-0.85,0.76-1.46l-13.32-18.87
							C180.96,102.36,179.8,102.73,179.8,103.64z"/>
					</g>
				</g>
				<g>
					<g>
						<path fill="#520000" d="M177.74,103.64v18.87c0,0.51-0.42,0.93-0.93,0.93H163.5c-0.75,0-1.19-0.85-0.76-1.46l13.32-18.87
							C176.58,102.36,177.74,102.73,177.74,103.64z"/>
					</g>
					<g>
						<path fill="#520000" d="M159.82,119.75v-18.87c0-0.51,0.42-0.93,0.93-0.93h13.32c0.75,0,1.19,0.85,0.76,1.46l-13.32,18.87
							C160.98,121.02,159.82,120.66,159.82,119.75z"/>
					</g>
				</g>
				<g>
					<g>
						<path fill="#520000" d="M157.76,119.75v-18.87c0-0.51-0.42-0.93-0.93-0.93h-13.32c-0.75,0-1.19,0.85-0.76,1.46l13.32,18.87
							C156.6,121.02,157.76,120.66,157.76,119.75z"/>
					</g>
					<g>
						<path fill="#520000" d="M139.84,103.64v18.87c0,0.51,0.42,0.93,0.93,0.93h13.32c0.75,0,1.19-0.85,0.76-1.46l-13.32-18.87
							C141,102.36,139.84,102.73,139.84,103.64z"/>
					</g>
				</g>
				<g>
					<g>
						<path fill="#520000" d="M137.79,103.64v18.87c0,0.51-0.42,0.93-0.93,0.93h-13.32c-0.75,0-1.19-0.85-0.76-1.46l13.32-18.87
							C136.62,102.36,137.79,102.73,137.79,103.64z"/>
					</g>
					<g>
						<path fill="#520000" d="M119.86,119.75v-18.87c0-0.51,0.42-0.93,0.93-0.93h13.32c0.75,0,1.19,0.85,0.76,1.46l-13.32,18.87
							C121.03,121.02,119.86,120.66,119.86,119.75z"/>
					</g>
				</g>
				<g>
					<g>
						<path fill="#520000" d="M117.81,119.75v-18.87c0-0.51-0.42-0.93-0.93-0.93h-13.32c-0.75,0-1.19,0.85-0.76,1.46l13.32,18.87
							C116.65,121.02,117.81,120.66,117.81,119.75z"/>
					</g>
					<g>
						<path fill="#520000" d="M99.89,103.64v18.87c0,0.51,0.42,0.93,0.93,0.93h13.32c0.75,0,1.19-0.85,0.76-1.46l-13.32-18.87
							C101.05,102.36,99.89,102.73,99.89,103.64z"/>
					</g>
				</g>
				<g>
					<g>
						<path fill="#520000" d="M97.83,103.64v18.87c0,0.51-0.42,0.93-0.93,0.93H83.59c-0.75,0-1.19-0.85-0.76-1.46l13.32-18.87
							C96.67,102.36,97.83,102.73,97.83,103.64z"/>
					</g>
					<g>
						<path fill="#520000" d="M79.91,119.75v-18.87c0-0.51,0.42-0.93,0.93-0.93h13.32c0.75,0,1.19,0.85,0.76,1.46l-13.32,18.87
							C81.07,121.02,79.91,120.66,79.91,119.75z"/>
					</g>
				</g>
				<g>
					<g>
						<path fill="#520000" d="M77.85,119.75v-18.87c0-0.51-0.42-0.93-0.93-0.93H63.61c-0.75,0-1.19,0.85-0.76,1.46l13.32,18.87
							C76.69,121.02,77.85,120.66,77.85,119.75z"/>
					</g>
					<g>
						<path fill="#520000" d="M59.93,103.64v18.87c0,0.51,0.42,0.93,0.93,0.93h13.32c0.75,0,1.19-0.85,0.76-1.46L61.62,103.1
							C61.1,102.36,59.93,102.73,59.93,103.64z"/>
					</g>
				</g>
				<g>
					<g>
						<path fill="#520000" d="M57.88,103.64v18.87c0,0.51-0.42,0.93-0.93,0.93H43.63c-0.75,0-1.19-0.85-0.76-1.46l13.32-18.87
							C56.71,102.36,57.88,102.73,57.88,103.64z"/>
					</g>
					<g>
						<path fill="#520000" d="M39.95,119.75v-18.87c0-0.51,0.42-0.93,0.93-0.93H54.2c0.75,0,1.19,0.85,0.76,1.46l-13.32,18.87
							C41.12,121.02,39.95,120.66,39.95,119.75z"/>
					</g>
				</g>
				<g>
					<g>
						<path fill="#520000" d="M37.9,119.75v-18.87c0-0.51-0.42-0.93-0.93-0.93H23.65c-0.75,0-1.19,0.85-0.76,1.46l13.32,18.87
							C36.74,121.02,37.9,120.66,37.9,119.75z"/>
					</g>
					<g>
						<path fill="#520000" d="M19.98,103.64v18.87c0,0.51,0.42,0.93,0.93,0.93h13.32c0.75,0,1.19-0.85,0.76-1.46L21.66,103.1
							C21.14,102.36,19.98,102.73,19.98,103.64z"/>
					</g>
				</g>
				<g>
					<g>
						<path fill="#520000" d="M17.92,103.64v18.87c0,0.51-0.42,0.93-0.93,0.93H3.68c-0.75,0-1.19-0.85-0.76-1.46l13.32-18.87
							C16.76,102.36,17.92,102.73,17.92,103.64z"/>
					</g>
					<g>
						<path fill="#520000" d="M0,119.75v-18.87c0-0.51,0.42-0.93,0.93-0.93h13.32c0.75,0,1.19,0.85,0.76,1.46L1.68,120.29
							C1.16,121.02,0,120.66,0,119.75z"/>
					</g>
				</g>
			</g>
		</g>
		<g>
			<g>
				<g>
					<g>
						<path fill="#520000" d="M237.67,79.08v18.87c0,0.51-0.42,0.93-0.93,0.93h-13.32c-0.75,0-1.19-0.85-0.76-1.46l13.32-18.87
							C236.51,77.81,237.67,78.18,237.67,79.08z"/>
					</g>
					<g>
						<path fill="#520000" d="M219.75,95.2V76.33c0-0.51,0.42-0.93,0.93-0.93H234c0.75,0,1.19,0.85,0.76,1.46l-13.32,18.87
							C220.91,96.47,219.75,96.1,219.75,95.2z"/>
					</g>
				</g>
				<g>
					<g>
						<path fill="#520000" d="M217.7,95.2V76.33c0-0.51-0.42-0.93-0.93-0.93h-13.32c-0.75,0-1.19,0.85-0.76,1.46l13.32,18.87
							C216.53,96.47,217.7,96.1,217.7,95.2z"/>
					</g>
					<g>
						<path fill="#520000" d="M199.77,79.08v18.87c0,0.51,0.42,0.93,0.93,0.93h13.32c0.75,0,1.19-0.85,0.76-1.46l-13.32-18.87
							C200.94,77.81,199.77,78.18,199.77,79.08z"/>
					</g>
				</g>
				<g>
					<g>
						<path fill="#520000" d="M197.72,79.08v18.87c0,0.51-0.42,0.93-0.93,0.93h-13.32c-0.75,0-1.19-0.85-0.76-1.46l13.32-18.87
							C196.56,77.81,197.72,78.18,197.72,79.08z"/>
					</g>
					<g>
						<path fill="#520000" d="M179.8,95.2V76.33c0-0.51,0.42-0.93,0.93-0.93h13.32c0.75,0,1.19,0.85,0.76,1.46l-13.32,18.87
							C180.96,96.47,179.8,96.1,179.8,95.2z"/>
					</g>
				</g>
				<g>
					<g>
						<path fill="#520000" d="M177.74,95.2V76.33c0-0.51-0.42-0.93-0.93-0.93H163.5c-0.75,0-1.19,0.85-0.76,1.46l13.32,18.87
							C176.58,96.47,177.74,96.1,177.74,95.2z"/>
					</g>
					<g>
						<path fill="#520000" d="M159.82,79.08v18.87c0,0.51,0.42,0.93,0.93,0.93h13.32c0.75,0,1.19-0.85,0.76-1.46L161.5,78.55
							C160.98,77.81,159.82,78.18,159.82,79.08z"/>
					</g>
				</g>
				<g>
					<g>
						<path fill="#520000" d="M157.76,79.08v18.87c0,0.51-0.42,0.93-0.93,0.93h-13.32c-0.75,0-1.19-0.85-0.76-1.46l13.32-18.87
							C156.6,77.81,157.76,78.18,157.76,79.08z"/>
					</g>
					<g>
						<path fill="#520000" d="M139.84,95.2V76.33c0-0.51,0.42-0.93,0.93-0.93h13.32c0.75,0,1.19,0.85,0.76,1.46l-13.32,18.87
							C141,96.47,139.84,96.1,139.84,95.2z"/>
					</g>
				</g>
				<g>
					<g>
						<path fill="#520000" d="M137.79,95.2V76.33c0-0.51-0.42-0.93-0.93-0.93h-13.32c-0.75,0-1.19,0.85-0.76,1.46l13.32,18.87
							C136.62,96.47,137.79,96.1,137.79,95.2z"/>
					</g>
					<g>
						<path fill="#520000" d="M119.86,79.08v18.87c0,0.51,0.42,0.93,0.93,0.93h13.32c0.75,0,1.19-0.85,0.76-1.46l-13.32-18.87
							C121.03,77.81,119.86,78.18,119.86,79.08z"/>
					</g>
				</g>
				<g>
					<g>
						<path fill="#520000" d="M117.81,79.08v18.87c0,0.51-0.42,0.93-0.93,0.93h-13.32c-0.75,0-1.19-0.85-0.76-1.46l13.32-18.87
							C116.65,77.81,117.81,78.18,117.81,79.08z"/>
					</g>
					<g>
						<path fill="#520000" d="M99.89,95.2V76.33c0-0.51,0.42-0.93,0.93-0.93h13.32c0.75,0,1.19,0.85,0.76,1.46l-13.32,18.87
							C101.05,96.47,99.89,96.1,99.89,95.2z"/>
					</g>
				</g>
				<g>
					<g>
						<path fill="#520000" d="M97.83,95.2V76.33c0-0.51-0.42-0.93-0.93-0.93H83.59c-0.75,0-1.19,0.85-0.76,1.46l13.32,18.87
							C96.67,96.47,97.83,96.1,97.83,95.2z"/>
					</g>
					<g>
						<path fill="#520000" d="M79.91,79.08v18.87c0,0.51,0.42,0.93,0.93,0.93h13.32c0.75,0,1.19-0.85,0.76-1.46L81.59,78.55
							C81.07,77.81,79.91,78.18,79.91,79.08z"/>
					</g>
				</g>
				<g>
					<g>
						<path fill="#520000" d="M77.85,79.08v18.87c0,0.51-0.42,0.93-0.93,0.93H63.61c-0.75,0-1.19-0.85-0.76-1.46l13.32-18.87
							C76.69,77.81,77.85,78.18,77.85,79.08z"/>
					</g>
					<g>
						<path fill="#520000" d="M59.93,95.2V76.33c0-0.51,0.42-0.93,0.93-0.93h13.32c0.75,0,1.19,0.85,0.76,1.46L61.62,95.73
							C61.1,96.47,59.93,96.1,59.93,95.2z"/>
					</g>
				</g>
				<g>
					<g>
						<path fill="#520000" d="M57.88,95.2V76.33c0-0.51-0.42-0.93-0.93-0.93H43.63c-0.75,0-1.19,0.85-0.76,1.46l13.32,18.87
							C56.71,96.47,57.88,96.1,57.88,95.2z"/>
					</g>
					<g>
						<path fill="#520000" d="M39.95,79.08v18.87c0,0.51,0.42,0.93,0.93,0.93H54.2c0.75,0,1.19-0.85,0.76-1.46L41.64,78.55
							C41.12,77.81,39.95,78.18,39.95,79.08z"/>
					</g>
				</g>
				<g>
					<g>
						<path fill="#520000" d="M37.9,79.08v18.87c0,0.51-0.42,0.93-0.93,0.93H23.65c-0.75,0-1.19-0.85-0.76-1.46l13.32-18.87
							C36.74,77.81,37.9,78.18,37.9,79.08z"/>
					</g>
					<g>
						<path fill="#520000" d="M19.98,95.2V76.33c0-0.51,0.42-0.93,0.93-0.93h13.32c0.75,0,1.19,0.85,0.76,1.46L21.66,95.73
							C21.14,96.47,19.98,96.1,19.98,95.2z"/>
					</g>
				</g>
				<g>
					<g>
						<path fill="#520000" d="M17.92,95.2V76.33c0-0.51-0.42-0.93-0.93-0.93H3.68c-0.75,0-1.19,0.85-0.76,1.46l13.32,18.87
							C16.76,96.47,17.92,96.1,17.92,95.2z"/>
					</g>
					<g>
						<path fill="#520000" d="M0,79.08v18.87c0,0.51,0.42,0.93,0.93,0.93h13.32c0.75,0,1.19-0.85,0.76-1.46L1.68,78.55
							C1.16,77.81,0,78.18,0,79.08z"/>
					</g>
				</g>
			</g>
			<g>
				<g>
					<g>
						<path fill="#520000" d="M237.67,69.77V50.91c0-0.51-0.42-0.93-0.93-0.93h-13.32c-0.75,0-1.19,0.85-0.76,1.46l13.32,18.87
							C236.51,71.05,237.67,70.68,237.67,69.77z"/>
					</g>
					<g>
						<path fill="#520000" d="M219.75,53.66v18.87c0,0.51,0.42,0.93,0.93,0.93H234c0.75,0,1.19-0.85,0.76-1.46l-13.32-18.87
							C220.91,52.38,219.75,52.75,219.75,53.66z"/>
					</g>
				</g>
				<g>
					<g>
						<path fill="#520000" d="M217.7,53.66v18.87c0,0.51-0.42,0.93-0.93,0.93h-13.32c-0.75,0-1.19-0.85-0.76-1.46l13.32-18.87
							C216.53,52.38,217.7,52.75,217.7,53.66z"/>
					</g>
					<g>
						<path fill="#520000" d="M199.77,69.77V50.91c0-0.51,0.42-0.93,0.93-0.93h13.32c0.75,0,1.19,0.85,0.76,1.46l-13.32,18.87
							C200.94,71.05,199.77,70.68,199.77,69.77z"/>
					</g>
				</g>
				<g>
					<g>
						<path fill="#520000" d="M197.72,69.77V50.91c0-0.51-0.42-0.93-0.93-0.93h-13.32c-0.75,0-1.19,0.85-0.76,1.46l13.32,18.87
							C196.56,71.05,197.72,70.68,197.72,69.77z"/>
					</g>
					<g>
						<path fill="#520000" d="M179.8,53.66v18.87c0,0.51,0.42,0.93,0.93,0.93h13.32c0.75,0,1.19-0.85,0.76-1.46l-13.32-18.87
							C180.96,52.38,179.8,52.75,179.8,53.66z"/>
					</g>
				</g>
				<g>
					<g>
						<path fill="#520000" d="M177.74,53.66v18.87c0,0.51-0.42,0.93-0.93,0.93H163.5c-0.75,0-1.19-0.85-0.76-1.46l13.32-18.87
							C176.58,52.38,177.74,52.75,177.74,53.66z"/>
					</g>
					<g>
						<path fill="#520000" d="M159.82,69.77V50.91c0-0.51,0.42-0.93,0.93-0.93h13.32c0.75,0,1.19,0.85,0.76,1.46L161.5,70.31
							C160.98,71.05,159.82,70.68,159.82,69.77z"/>
					</g>
				</g>
				<g>
					<g>
						<path fill="#520000" d="M157.76,69.77V50.91c0-0.51-0.42-0.93-0.93-0.93h-13.32c-0.75,0-1.19,0.85-0.76,1.46l13.32,18.87
							C156.6,71.05,157.76,70.68,157.76,69.77z"/>
					</g>
					<g>
						<path fill="#520000" d="M139.84,53.66v18.87c0,0.51,0.42,0.93,0.93,0.93h13.32c0.75,0,1.19-0.85,0.76-1.46l-13.32-18.87
							C141,52.38,139.84,52.75,139.84,53.66z"/>
					</g>
				</g>
				<g>
					<g>
						<path fill="#520000" d="M137.79,53.66v18.87c0,0.51-0.42,0.93-0.93,0.93h-13.32c-0.75,0-1.19-0.85-0.76-1.46l13.32-18.87
							C136.62,52.38,137.79,52.75,137.79,53.66z"/>
					</g>
					<g>
						<path fill="#520000" d="M119.86,69.77V50.91c0-0.51,0.42-0.93,0.93-0.93h13.32c0.75,0,1.19,0.85,0.76,1.46l-13.32,18.87
							C121.03,71.05,119.86,70.68,119.86,69.77z"/>
					</g>
				</g>
				<g>
					<g>
						<path fill="#520000" d="M117.81,69.77V50.91c0-0.51-0.42-0.93-0.93-0.93h-13.32c-0.75,0-1.19,0.85-0.76,1.46l13.32,18.87
							C116.65,71.05,117.81,70.68,117.81,69.77z"/>
					</g>
					<g>
						<path fill="#520000" d="M99.89,53.66v18.87c0,0.51,0.42,0.93,0.93,0.93h13.32c0.75,0,1.19-0.85,0.76-1.46l-13.32-18.87
							C101.05,52.38,99.89,52.75,99.89,53.66z"/>
					</g>
				</g>
				<g>
					<g>
						<path fill="#520000" d="M97.83,53.66v18.87c0,0.51-0.42,0.93-0.93,0.93H83.59c-0.75,0-1.19-0.85-0.76-1.46l13.32-18.87
							C96.67,52.38,97.83,52.75,97.83,53.66z"/>
					</g>
					<g>
						<path fill="#520000" d="M79.91,69.77V50.91c0-0.51,0.42-0.93,0.93-0.93h13.32c0.75,0,1.19,0.85,0.76,1.46L81.59,70.31
							C81.07,71.05,79.91,70.68,79.91,69.77z"/>
					</g>
				</g>
				<g>
					<g>
						<path fill="#520000" d="M77.85,69.77V50.91c0-0.51-0.42-0.93-0.93-0.93H63.61c-0.75,0-1.19,0.85-0.76,1.46l13.32,18.87
							C76.69,71.05,77.85,70.68,77.85,69.77z"/>
					</g>
					<g>
						<path fill="#520000" d="M59.93,53.66v18.87c0,0.51,0.42,0.93,0.93,0.93h13.32c0.75,0,1.19-0.85,0.76-1.46L61.62,53.12
							C61.1,52.38,59.93,52.75,59.93,53.66z"/>
					</g>
				</g>
				<g>
					<g>
						<path fill="#520000" d="M57.88,53.66v18.87c0,0.51-0.42,0.93-0.93,0.93H43.63c-0.75,0-1.19-0.85-0.76-1.46l13.32-18.87
							C56.71,52.38,57.88,52.75,57.88,53.66z"/>
					</g>
					<g>
						<path fill="#520000" d="M39.95,69.77V50.91c0-0.51,0.42-0.93,0.93-0.93H54.2c0.75,0,1.19,0.85,0.76,1.46L41.64,70.31
							C41.12,71.05,39.95,70.68,39.95,69.77z"/>
					</g>
				</g>
				<g>
					<g>
						<path fill="#520000" d="M37.9,69.77V50.91c0-0.51-0.42-0.93-0.93-0.93H23.65c-0.75,0-1.19,0.85-0.76,1.46l13.32,18.87
							C36.74,71.05,37.9,70.68,37.9,69.77z"/>
					</g>
					<g>
						<path fill="#520000" d="M19.98,53.66v18.87c0,0.51,0.42,0.93,0.93,0.93h13.32c0.75,0,1.19-0.85,0.76-1.46L21.66,53.12
							C21.14,52.38,19.98,52.75,19.98,53.66z"/>
					</g>
				</g>
				<g>
					<g>
						<path fill="#520000" d="M17.92,53.66v18.87c0,0.51-0.42,0.93-0.93,0.93H3.68c-0.75,0-1.19-0.85-0.76-1.46l13.32-18.87
							C16.76,52.38,17.92,52.75,17.92,53.66z"/>
					</g>
					<g>
						<path fill="#520000" d="M0,69.77V50.91c0-0.51,0.42-0.93,0.93-0.93h13.32c0.75,0,1.19,0.85,0.76,1.46L1.68,70.31
							C1.16,71.05,0,70.68,0,69.77z"/>
					</g>
				</g>
			</g>
		</g>
		<g>
			<g>
				<g>
					<g>
						<path fill="#520000" d="M237.67,29.1v18.87c0,0.51-0.42,0.93-0.93,0.93h-13.32c-0.75,0-1.19-0.85-0.76-1.46l13.32-18.87
							C236.51,27.83,237.67,28.2,237.67,29.1z"/>
					</g>
					<g>
						<path fill="#520000" d="M219.75,45.22V26.35c0-0.51,0.42-0.93,0.93-0.93H234c0.75,0,1.19,0.85,0.76,1.46l-13.32,18.87
							C220.91,46.49,219.75,46.12,219.75,45.22z"/>
					</g>
				</g>
				<g>
					<g>
						<path fill="#520000" d="M217.7,45.22V26.35c0-0.51-0.42-0.93-0.93-0.93h-13.32c-0.75,0-1.19,0.85-0.76,1.46l13.32,18.87
							C216.53,46.49,217.7,46.12,217.7,45.22z"/>
					</g>
					<g>
						<path fill="#520000" d="M199.77,29.1v18.87c0,0.51,0.42,0.93,0.93,0.93h13.32c0.75,0,1.19-0.85,0.76-1.46l-13.32-18.87
							C200.94,27.83,199.77,28.2,199.77,29.1z"/>
					</g>
				</g>
				<g>
					<g>
						<path fill="#520000" d="M197.72,29.1v18.87c0,0.51-0.42,0.93-0.93,0.93h-13.32c-0.75,0-1.19-0.85-0.76-1.46l13.32-18.87
							C196.56,27.83,197.72,28.2,197.72,29.1z"/>
					</g>
					<g>
						<path fill="#520000" d="M179.8,45.22V26.35c0-0.51,0.42-0.93,0.93-0.93h13.32c0.75,0,1.19,0.85,0.76,1.46l-13.32,18.87
							C180.96,46.49,179.8,46.12,179.8,45.22z"/>
					</g>
				</g>
				<g>
					<g>
						<path fill="#520000" d="M177.74,45.22V26.35c0-0.51-0.42-0.93-0.93-0.93H163.5c-0.75,0-1.19,0.85-0.76,1.46l13.32,18.87
							C176.58,46.49,177.74,46.12,177.74,45.22z"/>
					</g>
					<g>
						<path fill="#520000" d="M159.82,29.1v18.87c0,0.51,0.42,0.93,0.93,0.93h13.32c0.75,0,1.19-0.85,0.76-1.46L161.5,28.57
							C160.98,27.83,159.82,28.2,159.82,29.1z"/>
					</g>
				</g>
				<g>
					<g>
						<path fill="#520000" d="M157.76,29.1v18.87c0,0.51-0.42,0.93-0.93,0.93h-13.32c-0.75,0-1.19-0.85-0.76-1.46l13.32-18.87
							C156.6,27.83,157.76,28.2,157.76,29.1z"/>
					</g>
					<g>
						<path fill="#520000" d="M139.84,45.22V26.35c0-0.51,0.42-0.93,0.93-0.93h13.32c0.75,0,1.19,0.85,0.76,1.46l-13.32,18.87
							C141,46.49,139.84,46.12,139.84,45.22z"/>
					</g>
				</g>
				<g>
					<g>
						<path fill="#520000" d="M137.79,45.22V26.35c0-0.51-0.42-0.93-0.93-0.93h-13.32c-0.75,0-1.19,0.85-0.76,1.46l13.32,18.87
							C136.62,46.49,137.79,46.12,137.79,45.22z"/>
					</g>
					<g>
						<path fill="#520000" d="M119.86,29.1v18.87c0,0.51,0.42,0.93,0.93,0.93h13.32c0.75,0,1.19-0.85,0.76-1.46l-13.32-18.87
							C121.03,27.83,119.86,28.2,119.86,29.1z"/>
					</g>
				</g>
				<g>
					<g>
						<path fill="#520000" d="M117.81,29.1v18.87c0,0.51-0.42,0.93-0.93,0.93h-13.32c-0.75,0-1.19-0.85-0.76-1.46l13.32-18.87
							C116.65,27.83,117.81,28.2,117.81,29.1z"/>
					</g>
					<g>
						<path fill="#520000" d="M99.89,45.22V26.35c0-0.51,0.42-0.93,0.93-0.93h13.32c0.75,0,1.19,0.85,0.76,1.46l-13.32,18.87
							C101.05,46.49,99.89,46.12,99.89,45.22z"/>
					</g>
				</g>
				<g>
					<g>
						<path fill="#520000" d="M97.83,45.22V26.35c0-0.51-0.42-0.93-0.93-0.93H83.59c-0.75,0-1.19,0.85-0.76,1.46l13.32,18.87
							C96.67,46.49,97.83,46.12,97.83,45.22z"/>
					</g>
					<g>
						<path fill="#520000" d="M79.91,29.1v18.87c0,0.51,0.42,0.93,0.93,0.93h13.32c0.75,0,1.19-0.85,0.76-1.46L81.59,28.57
							C81.07,27.83,79.91,28.2,79.91,29.1z"/>
					</g>
				</g>
				<g>
					<g>
						<path fill="#520000" d="M77.85,29.1v18.87c0,0.51-0.42,0.93-0.93,0.93H63.61c-0.75,0-1.19-0.85-0.76-1.46l13.32-18.87
							C76.69,27.83,77.85,28.2,77.85,29.1z"/>
					</g>
					<g>
						<path fill="#520000" d="M59.93,45.22V26.35c0-0.51,0.42-0.93,0.93-0.93h13.32c0.75,0,1.19,0.85,0.76,1.46L61.62,45.75
							C61.1,46.49,59.93,46.12,59.93,45.22z"/>
					</g>
				</g>
				<g>
					<g>
						<path fill="#520000" d="M57.88,45.22V26.35c0-0.51-0.42-0.93-0.93-0.93H43.63c-0.75,0-1.19,0.85-0.76,1.46l13.32,18.87
							C56.71,46.49,57.88,46.12,57.88,45.22z"/>
					</g>
					<g>
						<path fill="#520000" d="M39.95,29.1v18.87c0,0.51,0.42,0.93,0.93,0.93H54.2c0.75,0,1.19-0.85,0.76-1.46L41.64,28.57
							C41.12,27.83,39.95,28.2,39.95,29.1z"/>
					</g>
				</g>
				<g>
					<g>
						<path fill="#520000" d="M37.9,29.1v18.87c0,0.51-0.42,0.93-0.93,0.93H23.65c-0.75,0-1.19-0.85-0.76-1.46l13.32-18.87
							C36.74,27.83,37.9,28.2,37.9,29.1z"/>
					</g>
					<g>
						<path fill="#520000" d="M19.98,45.22V26.35c0-0.51,0.42-0.93,0.93-0.93h13.32c0.75,0,1.19,0.85,0.76,1.46L21.66,45.75
							C21.14,46.49,19.98,46.12,19.98,45.22z"/>
					</g>
				</g>
				<g>
					<g>
						<path fill="#520000" d="M17.92,45.22V26.35c0-0.51-0.42-0.93-0.93-0.93H3.68c-0.75,0-1.19,0.85-0.76,1.46l13.32,18.87
							C16.76,46.49,17.92,46.12,17.92,45.22z"/>
					</g>
					<g>
						<path fill="#520000" d="M0,29.1v18.87c0,0.51,0.42,0.93,0.93,0.93h13.32c0.75,0,1.19-0.85,0.76-1.46L1.68,28.57
							C1.16,27.83,0,28.2,0,29.1z"/>
					</g>
				</g>
			</g>
			<g>
				<g>
					<g>
						<path fill="#520000" d="M237.67,19.79V0.93c0-0.51-0.42-0.93-0.93-0.93h-13.32c-0.75,0-1.19,0.85-0.76,1.46l13.32,18.87
							C236.51,21.07,237.67,20.7,237.67,19.79z"/>
					</g>
					<g>
						<path fill="#520000" d="M219.75,3.68v18.87c0,0.51,0.42,0.93,0.93,0.93H234c0.75,0,1.19-0.85,0.76-1.46L221.44,3.14
							C220.91,2.4,219.75,2.77,219.75,3.68z"/>
					</g>
				</g>
				<g>
					<g>
						<path fill="#520000" d="M217.7,3.68v18.87c0,0.51-0.42,0.93-0.93,0.93h-13.32c-0.75,0-1.19-0.85-0.76-1.46l13.32-18.87
							C216.53,2.4,217.7,2.77,217.7,3.68z"/>
					</g>
					<g>
						<path fill="#520000" d="M199.77,19.79V0.93c0-0.51,0.42-0.93,0.93-0.93h13.32c0.75,0,1.19,0.85,0.76,1.46l-13.32,18.87
							C200.94,21.07,199.77,20.7,199.77,19.79z"/>
					</g>
				</g>
				<g>
					<g>
						<path fill="#520000" d="M197.72,19.79V0.93c0-0.51-0.42-0.93-0.93-0.93h-13.32c-0.75,0-1.19,0.85-0.76,1.46l13.32,18.87
							C196.56,21.07,197.72,20.7,197.72,19.79z"/>
					</g>
					<g>
						<path fill="#520000" d="M179.8,3.68v18.87c0,0.51,0.42,0.93,0.93,0.93h13.32c0.75,0,1.19-0.85,0.76-1.46L181.48,3.14
							C180.96,2.4,179.8,2.77,179.8,3.68z"/>
					</g>
				</g>
				<g>
					<g>
						<path fill="#520000" d="M177.74,3.68v18.87c0,0.51-0.42,0.93-0.93,0.93H163.5c-0.75,0-1.19-0.85-0.76-1.46l13.32-18.87
							C176.58,2.4,177.74,2.77,177.74,3.68z"/>
					</g>
					<g>
						<path fill="#520000" d="M159.82,19.79V0.93c0-0.51,0.42-0.93,0.93-0.93h13.32c0.75,0,1.19,0.85,0.76,1.46L161.5,20.33
							C160.98,21.07,159.82,20.7,159.82,19.79z"/>
					</g>
				</g>
				<g>
					<g>
						<path fill="#520000" d="M157.76,19.79V0.93c0-0.51-0.42-0.93-0.93-0.93h-13.32c-0.75,0-1.19,0.85-0.76,1.46l13.32,18.87
							C156.6,21.07,157.76,20.7,157.76,19.79z"/>
					</g>
					<g>
						<path fill="#520000" d="M139.84,3.68v18.87c0,0.51,0.42,0.93,0.93,0.93h13.32c0.75,0,1.19-0.85,0.76-1.46L141.53,3.14
							C141,2.4,139.84,2.77,139.84,3.68z"/>
					</g>
				</g>
				<g>
					<g>
						<path fill="#520000" d="M137.79,3.68v18.87c0,0.51-0.42,0.93-0.93,0.93h-13.32c-0.75,0-1.19-0.85-0.76-1.46L136.1,3.14
							C136.62,2.4,137.79,2.77,137.79,3.68z"/>
					</g>
					<g>
						<path fill="#520000" d="M119.86,19.79V0.93c0-0.51,0.42-0.93,0.93-0.93h13.32c0.75,0,1.19,0.85,0.76,1.46l-13.32,18.87
							C121.03,21.07,119.86,20.7,119.86,19.79z"/>
					</g>
				</g>
				<g>
					<g>
						<path fill="#520000" d="M117.81,19.79V0.93c0-0.51-0.42-0.93-0.93-0.93h-13.32c-0.75,0-1.19,0.85-0.76,1.46l13.32,18.87
							C116.65,21.07,117.81,20.7,117.81,19.79z"/>
					</g>
					<g>
						<path fill="#520000" d="M99.89,3.68v18.87c0,0.51,0.42,0.93,0.93,0.93h13.32c0.75,0,1.19-0.85,0.76-1.46L101.57,3.14
							C101.05,2.4,99.89,2.77,99.89,3.68z"/>
					</g>
				</g>
				<g>
					<g>
						<path fill="#520000" d="M97.83,3.68v18.87c0,0.51-0.42,0.93-0.93,0.93H83.59c-0.75,0-1.19-0.85-0.76-1.46L96.15,3.14
							C96.67,2.4,97.83,2.77,97.83,3.68z"/>
					</g>
					<g>
						<path fill="#520000" d="M79.91,19.79V0.93c0-0.51,0.42-0.93,0.93-0.93h13.32c0.75,0,1.19,0.85,0.76,1.46L81.59,20.33
							C81.07,21.07,79.91,20.7,79.91,19.79z"/>
					</g>
				</g>
				<g>
					<g>
						<path fill="#520000" d="M77.85,19.79V0.93c0-0.51-0.42-0.93-0.93-0.93H63.61c-0.75,0-1.19,0.85-0.76,1.46l13.32,18.87
							C76.69,21.07,77.85,20.7,77.85,19.79z"/>
					</g>
					<g>
						<path fill="#520000" d="M59.93,3.68v18.87c0,0.51,0.42,0.93,0.93,0.93h13.32c0.75,0,1.19-0.85,0.76-1.46L61.62,3.14
							C61.1,2.4,59.93,2.77,59.93,3.68z"/>
					</g>
				</g>
				<g>
					<g>
						<path fill="#520000" d="M57.88,3.68v18.87c0,0.51-0.42,0.93-0.93,0.93H43.63c-0.75,0-1.19-0.85-0.76-1.46L56.19,3.14
							C56.71,2.4,57.88,2.77,57.88,3.68z"/>
					</g>
					<g>
						<path fill="#520000" d="M39.95,19.79V0.93c0-0.51,0.42-0.93,0.93-0.93H54.2c0.75,0,1.19,0.85,0.76,1.46L41.64,20.33
							C41.12,21.07,39.95,20.7,39.95,19.79z"/>
					</g>
				</g>
				<g>
					<g>
						<path fill="#520000" d="M37.9,19.79V0.93C37.9,0.42,37.48,0,36.97,0H23.65c-0.75,0-1.19,0.85-0.76,1.46l13.32,18.87
							C36.74,21.07,37.9,20.7,37.9,19.79z"/>
					</g>
					<g>
						<path fill="#520000" d="M19.98,3.68v18.87c0,0.51,0.42,0.93,0.93,0.93h13.32c0.75,0,1.19-0.85,0.76-1.46L21.66,3.14
							C21.14,2.4,19.98,2.77,19.98,3.68z"/>
					</g>
				</g>
				<g>
					<g>
						<path fill="#520000" d="M17.92,3.68v18.87c0,0.51-0.42,0.93-0.93,0.93H3.68c-0.75,0-1.19-0.85-0.76-1.46L16.24,3.14
							C16.76,2.4,17.92,2.77,17.92,3.68z"/>
					</g>
					<g>
						<path fill="#520000" d="M0,19.79V0.93C0,0.42,0.42,0,0.93,0h13.32C15,0,15.43,0.85,15,1.46L1.68,20.33
							C1.16,21.07,0,20.7,0,19.79z"/>
					</g>
				</g>
			</g>
		</g>
	</g>
</g>
<g id="Layer_2">
</g>
<g id="Layer_3">
</g>
<g id="Layer_4">
</g>
</svg>
