<?xml version="1.0" encoding="utf-8"?>
<!-- Generator: Adobe Illustrator 28.5.0, SVG Export Plug-In . SVG Version: 9.03 Build 54727)  -->
<svg version="1.1" baseProfile="tiny" id="Layer_1" xmlns="http://www.w3.org/2000/svg" xmlns:xlink="http://www.w3.org/1999/xlink"
	 x="0px" y="0px" viewBox="0 0 32 32" overflow="visible" xml:space="preserve">
<path fill="#FFFFFF" d="M19.9,13.8L16,9.9l-3.9,3.9L11,12.6l4.5-4.5c0.3-0.3,0.8-0.3,1.1,0l4.5,4.5L19.9,13.8z M21.1,17.4l-4.5-4.5
	c-0.3-0.3-0.8-0.3-1.1,0L11,17.4l1.1,1.1l3.9-3.9l3.9,3.9L21.1,17.4z M21.1,22.1l-4.5-4.5c-0.3-0.3-0.8-0.3-1.1,0L11,22.1l1.1,1.1
	l3.9-3.9l3.9,3.9L21.1,22.1z"/>
<path id="opacity:32" fill="#FFFFFF" d="M16,29.3c-7.4,0-13.4-6-13.4-13.4c0-7.4,6-13.4,13.4-13.4s13.4,6,13.4,13.4
	C29.4,23.3,23.4,29.3,16,29.3z M16,4C9.5,4,4.1,9.4,4.1,15.9c0,6.6,5.4,11.9,11.9,11.9S28,22.5,28,15.9C28,9.4,22.6,4,16,4z"/>
</svg>
