<?xml version="1.0" encoding="utf-8"?>
<!-- Generator: Adobe Illustrator 28.5.0, SVG Export Plug-In . SVG Version: 9.03 Build 54727)  -->
<svg version="1.1" baseProfile="tiny" id="Layer_4" xmlns="http://www.w3.org/2000/svg" xmlns:xlink="http://www.w3.org/1999/xlink"
	 x="0px" y="0px" viewBox="0 0 94.1 51" overflow="visible" xml:space="preserve">
<path id="Stroke" fill="#FFFFFF" d="M76.6,1.9c1,0,1.8,0.5,2.3,1.4c3.6,6.8,5.4,14.5,5.4,22.2c0,7.7-1.9,15.4-5.4,22.2
	c-0.5,0.9-1.3,1.4-2.3,1.4H17.3c-1,0-1.8-0.5-2.3-1.4c-3.6-6.8-5.4-14.5-5.4-22.2c0-7.7,1.9-15.4,5.4-22.2c0.5-0.9,1.3-1.4,2.3-1.4
	H76.6 M76.6,0.9H17.3c-1.3,0-2.6,0.8-3.2,1.9c-3.5,6.8-5.5,14.5-5.5,22.6s2,15.9,5.5,22.6c0.6,1.2,1.8,1.9,3.2,1.9h59.3
	c1.3,0,2.6-0.8,3.2-1.9c3.5-6.8,5.5-14.5,5.5-22.6s-2-15.9-5.5-22.6C79.2,1.6,78,0.9,76.6,0.9L76.6,0.9z"/>
</svg>
