<?xml version="1.0" encoding="utf-8"?>
<!-- Generator: Adobe Illustrator 28.5.0, SVG Export Plug-In . SVG Version: 9.03 Build 54727)  -->
<svg version="1.1" baseProfile="tiny" id="Layer_1" xmlns="http://www.w3.org/2000/svg" xmlns:xlink="http://www.w3.org/1999/xlink"
	 x="0px" y="0px" viewBox="0 0 32 32" overflow="visible" xml:space="preserve">
<path fill="#FFFFFF" d="M17.9,15.9l3.7-3.7c0.5-0.5,0.5-1.3,0-1.8c-0.5-0.5-1.3-0.5-1.8,0L16,14.1l-3.7-3.7c-0.5-0.5-1.3-0.5-1.8,0
	c-0.5,0.5-0.5,1.3,0,1.8l3.7,3.7l-3.7,3.7c-0.5,0.5-0.5,1.3,0,1.8c0.3,0.3,0.6,0.4,0.9,0.4s0.7-0.1,0.9-0.4l3.7-3.7l3.7,3.7
	c0.3,0.3,0.6,0.4,0.9,0.4s0.7-0.1,0.9-0.4c0.5-0.5,0.5-1.3,0-1.8L17.9,15.9z"/>
<path id="opacity:32" fill="#FFFFFF" d="M16,29.5c-7.5,0-13.6-6.1-13.6-13.6S8.6,2.4,16,2.4s13.6,6.1,13.6,13.6S23.5,29.5,16,29.5z
	 M16,4.2C9.6,4.2,4.3,9.5,4.3,15.9c0,6.5,5.3,11.8,11.8,11.8s11.8-5.3,11.8-11.8C27.8,9.5,22.5,4.2,16,4.2z"/>
</svg>
