<?xml version="1.0" encoding="utf-8"?>
<!-- Generator: Adobe Illustrator 28.5.0, SVG Export Plug-In . SVG Version: 9.03 Build 54727)  -->
<svg version="1.1" baseProfile="tiny" id="Layer_1" xmlns="http://www.w3.org/2000/svg" xmlns:xlink="http://www.w3.org/1999/xlink"
	 x="0px" y="0px" viewBox="0 0 32 32" overflow="visible" xml:space="preserve">
<polygon fill="#FFFFFF" points="14.8,20.6 10.1,16 11.6,14.5 14.8,17.7 20.5,12 21.9,13.4 "/>
<path id="opacity:32" fill="#FFFFFF" d="M16,26.7c-5.9,0-10.8-4.8-10.8-10.8S10.1,5.2,16,5.2S26.8,10,26.8,15.9S22,26.7,16,26.7z
	 M16,6.6c-5.1,0-9.3,4.2-9.3,9.3c0,5.1,4.2,9.3,9.3,9.3c5.1,0,9.3-4.2,9.3-9.3C25.4,10.8,21.2,6.6,16,6.6z"/>
</svg>
