<?xml version="1.0" encoding="utf-8"?>
<!-- Generator: Adobe Illustrator 28.5.0, SVG Export Plug-In . SVG Version: 9.03 Build 54727)  -->
<svg version="1.1" baseProfile="tiny" id="Layer_4" xmlns="http://www.w3.org/2000/svg" xmlns:xlink="http://www.w3.org/1999/xlink"
	 x="0px" y="0px" viewBox="0 0 94.1 51" overflow="visible" xml:space="preserve">
<path id="Edges" fill="#FFFFFF" d="M82.7,50.5c-0.1,0-0.2,0-0.3-0.1c-0.2-0.1-0.3-0.4-0.2-0.7c4.3-7.4,6.6-15.8,6.6-24.3
	c0-8.6-2.3-17-6.6-24.3c-0.1-0.2-0.1-0.5,0.2-0.7c0.2-0.1,0.5-0.1,0.7,0.2c4.4,7.5,6.7,16.1,6.7,24.8c0,8.7-2.3,17.3-6.7,24.8
	C83,50.4,82.9,50.5,82.7,50.5z M86.8,50.3c4.4-7.5,6.7-16.1,6.7-24.8c0-8.7-2.3-17.3-6.7-24.8c-0.1-0.2-0.4-0.3-0.7-0.2
	c-0.2,0.1-0.3,0.4-0.2,0.7c4.3,7.4,6.6,15.8,6.6,24.3c0,8.6-2.3,17-6.6,24.3c-0.1,0.2-0.1,0.5,0.2,0.7c0.1,0,0.2,0.1,0.3,0.1
	C86.5,50.5,86.7,50.4,86.8,50.3z M11.5,50.5c0.2-0.1,0.3-0.4,0.2-0.7C7.4,42.4,5.2,34,5.2,25.5c0-8.6,2.3-17,6.6-24.3
	c0.1-0.2,0.1-0.5-0.2-0.7c-0.2-0.1-0.5-0.1-0.7,0.2C6.5,8.1,4.2,16.7,4.2,25.5c0,8.7,2.3,17.3,6.7,24.8c0.1,0.2,0.3,0.2,0.4,0.2
	C11.4,50.5,11.4,50.5,11.5,50.5z M8.2,50.5c0.2-0.1,0.3-0.4,0.2-0.7C4.1,42.4,1.8,34,1.8,25.5c0-8.6,2.3-17,6.6-24.3
	c0.1-0.2,0.1-0.5-0.2-0.7C8,0.3,7.7,0.4,7.5,0.6C3.2,8.1,0.8,16.7,0.8,25.5c0,8.7,2.3,17.3,6.7,24.8c0.1,0.2,0.3,0.2,0.4,0.2
	C8,50.5,8.1,50.5,8.2,50.5z"/>
</svg>
