<?xml version="1.0" encoding="utf-8"?>
<!-- Generator: Adobe Illustrator 27.8.0, SVG Export Plug-In . SVG Version: 6.00 Build 0)  -->
<svg version="1.1" baseProfile="tiny" id="Layer_1" xmlns="http://www.w3.org/2000/svg" xmlns:xlink="http://www.w3.org/1999/xlink"
	 x="0px" y="0px" viewBox="0 0 64 64" overflow="visible" xml:space="preserve">
<path fill="#FFFFFF" d="M31.7,49.3l0.1,0.1h7.3c0.1,0,0.2,0,0.2,0.1c0.1,0.1,0.1,0.1,0.1,0.2v2.6c0,0.1,0,0.2-0.1,0.2
	c-0.1,0.1-0.1,0.1-0.2,0.1H27c-0.1,0-0.2,0-0.2-0.1c-0.1-0.1-0.1-0.1-0.1-0.2v-2.5c0-0.2,0.1-0.3,0.2-0.4c0.9-0.9,1.8-1.8,2.7-2.8
	c0.9-1,1.5-1.7,1.7-1.9c0.5-0.6,1-1.2,1.5-1.7c1.6-1.8,2.5-3.2,2.5-4c0-0.6-0.2-1.1-0.7-1.6c-0.4-0.4-1-0.6-1.8-0.6
	c-0.7,0-1.3,0.2-1.8,0.6c-0.5,0.4-0.7,0.9-0.7,1.6v0.7c0,0.1,0,0.2-0.1,0.2C30.1,40,30.1,40,30,40h-3.2c-0.1,0-0.2,0-0.2-0.1
	c-0.1-0.1-0.1-0.1-0.1-0.2v-1.3c0.1-1,0.4-1.8,0.9-2.6c0.6-0.7,1.3-1.3,2.2-1.7c0.9-0.4,2-0.6,3.1-0.6c1.3,0,2.4,0.2,3.3,0.7
	c0.9,0.5,1.7,1.1,2.2,1.9c0.5,0.8,0.8,1.7,0.8,2.7c0,0.8-0.2,1.5-0.6,2.3c-0.4,0.8-0.9,1.6-1.7,2.6c-0.6,0.7-1.2,1.4-1.8,2.1
	c-0.6,0.7-1.6,1.7-2.9,3l-0.4,0.4C31.7,49.2,31.7,49.2,31.7,49.3z"/>
<path fill="#FFFFFF" d="M18.3,18c0.1-0.1,0.2-0.1,0.3-0.1h3.6c0.1,0,0.2,0,0.3,0.1c0.1,0.1,0.1,0.2,0.1,0.3v26.8
	c0,0.1,0,0.2-0.1,0.3s-0.2,0.1-0.3,0.1h-3.6c-0.1,0-0.2,0-0.3-0.1c-0.1-0.1-0.1-0.2-0.1-0.3V33.8c0-0.1-0.1-0.2-0.2-0.2H7.8
	c-0.1,0-0.2,0.1-0.2,0.2v11.3c0,0.1,0,0.2-0.1,0.3s-0.2,0.1-0.3,0.1H3.5c-0.1,0-0.2,0-0.3-0.1C3.1,45.3,3,45.2,3,45.1V18.3
	c0-0.1,0-0.2,0.1-0.3c0.1-0.1,0.2-0.1,0.3-0.1H7c0.1,0,0.2,0,0.3,0.1c0.1,0.1,0.1,0.2,0.1,0.3v11.1c0,0.1,0.1,0.2,0.2,0.2h10.1
	c0.1,0,0.2-0.1,0.2-0.2V18.3C18.1,18.2,18.2,18.1,18.3,18z"/>
<path fill="#FFFFFF" d="M45.3,43.6c-1.6-1.6-2.4-3.7-2.4-6.4V26.1c0-2.6,0.8-4.7,2.4-6.3c1.6-1.5,3.8-2.3,6.6-2.3s5,0.8,6.6,2.3
	c1.7,1.5,2.5,3.6,2.5,6.3v11.2c0,2.7-0.8,4.8-2.5,6.4c-1.7,1.6-3.9,2.4-6.6,2.4S46.9,45.2,45.3,43.6z M55.1,40.7
	c0.8-0.8,1.2-1.9,1.2-3.3V25.9c0-1.4-0.4-2.5-1.2-3.3s-1.9-1.2-3.3-1.2c-1.3,0-2.4,0.4-3.2,1.2c-0.8,0.8-1.2,1.9-1.2,3.3v11.6
	c0,1.4,0.4,2.5,1.2,3.3s1.9,1.2,3.2,1.2C53.2,42,54.3,41.6,55.1,40.7z"/>
</svg>
