<?xml version="1.0" encoding="utf-8"?>
<!-- Generator: Adobe Illustrator 27.8.0, SVG Export Plug-In . SVG Version: 6.00 Build 0)  -->
<svg version="1.1" baseProfile="tiny" id="Layer_1" xmlns="http://www.w3.org/2000/svg" xmlns:xlink="http://www.w3.org/1999/xlink"
	 x="0px" y="0px" viewBox="0 0 64 64" overflow="visible" xml:space="preserve">
<path fill="#FFFFFF" d="M45.9,52.4c-0.1-0.1-0.1-0.1-0.2-0.1h-7.3c-0.1,0-0.1,0-0.1-0.1c0,0,0-0.1,0-0.1l0.4-0.4
	c1.3-1.3,2.3-2.3,2.9-3c0.6-0.7,1.3-1.4,1.8-2.1c0.8-0.9,1.3-1.8,1.7-2.6c0.4-0.8,0.6-1.6,0.6-2.3c0-0.2,0-0.3,0-0.5
	c-1.6-0.9-2.9-2.5-3.4-4.3c-0.8-0.3-1.8-0.5-2.9-0.5c-1.1,0-2.2,0.2-3.1,0.6c-0.9,0.4-1.7,1-2.2,1.7c-0.6,0.8-0.9,1.6-0.9,2.6v1.3
	c0,0.1,0,0.2,0.1,0.3c0.1,0.1,0.1,0.1,0.2,0.1h3.2c0.1,0,0.1,0,0.2-0.1c0.1-0.1,0.1-0.1,0.1-0.3v-0.7c0-0.7,0.2-1.2,0.7-1.6
	c0.5-0.4,1.1-0.6,1.8-0.6c0.7,0,1.3,0.2,1.8,0.6c0.4,0.4,0.7,0.9,0.7,1.5c0,0.9-0.8,2.2-2.5,4.1c-0.5,0.5-1,1.1-1.5,1.7
	c-0.2,0.3-0.8,0.9-1.7,1.9c-0.9,1-1.8,1.9-2.7,2.8c-0.1,0.1-0.2,0.3-0.2,0.4v2.5c0,0.1,0,0.2,0.1,0.2c0.1,0.1,0.1,0.1,0.2,0.1h12.1
	c0.1,0,0.2-0.1,0.2-0.1c0.1-0.1,0.1-0.1,0.1-0.2v-2.6C46,52.5,46,52.4,45.9,52.4z"/>
<path fill="#FFFFFF" d="M13.4,46.6c-1.6-1.6-2.4-3.7-2.4-6.4V29c0-2.6,0.8-4.7,2.4-6.3c1.6-1.5,3.8-2.3,6.6-2.3s5,0.8,6.6,2.3
	c1.7,1.5,2.5,3.6,2.5,6.3v11.2c0,2.7-0.8,4.8-2.5,6.4c-1.7,1.6-3.9,2.4-6.6,2.4S15,48.1,13.4,46.6z M23.2,43.7
	c0.8-0.8,1.2-1.9,1.2-3.3V28.9c0-1.4-0.4-2.5-1.2-3.3c-0.8-0.8-1.9-1.2-3.3-1.2c-1.3,0-2.4,0.4-3.2,1.2c-0.8,0.8-1.2,1.9-1.2,3.3
	v11.6c0,1.4,0.4,2.5,1.2,3.3c0.8,0.8,1.9,1.2,3.2,1.2C21.3,44.9,22.4,44.5,23.2,43.7z"/>
<path fill="#FFFFFF" d="M47.2,37.2c-0.6-0.6-1-1.5-1-2.5c0-1,0.3-1.8,1-2.4c0.6-0.6,1.5-0.9,2.5-0.9c1,0,1.8,0.3,2.5,0.9
	c0.6,0.6,1,1.4,1,2.4c0,1-0.3,1.8-1,2.4c-0.6,0.7-1.5,1-2.5,1C48.7,38.1,47.8,37.8,47.2,37.2z"/>
<path fill="#FFFFFF" d="M47.2,26.3c-0.1-0.1-0.1-0.2-0.1-0.3l-0.7-17c0-0.3,0.2-0.5,0.5-0.5h5.6c0.3,0,0.5,0.2,0.5,0.5l-0.7,17
	c0,0.1,0,0.2-0.1,0.3s-0.2,0.1-0.3,0.1h-4.3C47.4,26.4,47.3,26.4,47.2,26.3z"/>
</svg>
