<?xml version="1.0" encoding="utf-8"?>
<!-- Generator: Adobe Illustrator 27.8.0, SVG Export Plug-In . SVG Version: 6.00 Build 0)  -->
<svg version="1.1" baseProfile="tiny" id="Layer_1" xmlns="http://www.w3.org/2000/svg" xmlns:xlink="http://www.w3.org/1999/xlink"
	 x="0px" y="0px" viewBox="0 0 64 64" overflow="visible" xml:space="preserve">
<path fill="#FFFFFF" d="M31.8,55.7c-8.4,0-16.7-0.5-25.3-1.5c-0.7-0.1-1.2-0.7-1.1-1.4s0.7-1.2,1.4-1.1c8.5,1,16.6,1.5,25,1.5
	c0.2,0,0.3,0,0.5,0c8.4,0,16.7-0.5,24.9-1.5c0.7-0.1,1.4,0.4,1.4,1.1c0.1,0.7-0.4,1.4-1.1,1.4c-8.3,1-16.8,1.5-25.2,1.5
	C32.1,55.7,31.9,55.7,31.8,55.7z"/>
<path fill="#FFFFFF" d="M31.4,49.4c-11.2,0-19.8-3.2-25.3-5.6c-0.7-0.3-1-1.1-0.7-1.7c0.3-0.7,1.1-1,1.7-0.7
	c5.5,2.4,14.1,5.6,25.1,5.4c11.1-0.2,20.2-3.5,24.6-5.4c0.7-0.3,1.4,0,1.7,0.7s0,1.4-0.7,1.7c-4.6,2-14,5.5-25.6,5.6
	C32,49.4,31.7,49.4,31.4,49.4z"/>
<path fill="#FFFFFF" d="M32.8,42.4c-0.2,0-0.4,0-0.6,0C18.6,42.1,8.5,31.5,5.7,28.2c-0.5-0.5-0.4-1.4,0.1-1.8
	c0.5-0.5,1.4-0.4,1.8,0.1c1.9,2.2,11.8,13,24.7,13.3c0.2,0,0.4,0,0.5,0c12.1,0,20.1-9.3,23.5-13.3c0.5-0.5,1.3-0.6,1.8-0.1
	s0.6,1.3,0.1,1.8C55,32.1,46.1,42.4,32.8,42.4z"/>
<polygon fill="#FFFFFF" points="41.9,21.9 32,32.8 22.1,21.9 28.3,21.9 28.3,8.3 35.7,8.3 35.7,21.9 "/>
</svg>
