<?xml version="1.0" encoding="utf-8"?>
<!-- Generator: Adobe Illustrator 27.8.0, SVG Export Plug-In . SVG Version: 6.00 Build 0)  -->
<svg version="1.1" baseProfile="tiny" id="Layer_1" xmlns="http://www.w3.org/2000/svg" xmlns:xlink="http://www.w3.org/1999/xlink"
	 x="0px" y="0px" viewBox="0 0 64 64" overflow="visible" xml:space="preserve">
<path id="opacity:100_colorstyle:Base" fill="#FFFFFF" d="M57.5,53.7c0,5.7-11.1,7.4-24.9,7.4c-0.2,0-0.4,0-0.6,0
	c-0.2,0-0.4,0-0.6,0c-13.8,0-24.9-1.7-24.9-7.4c0-4.9,7.9-6.8,18.5-7.2l3.6,6.2c0.4,0.6,1.1,1.1,1.7,1.1h3.4c0.6,0,1.5-0.4,1.7-1.1
	l3.6-6.2C49.9,46.8,57.5,48.8,57.5,53.7z"/>
<path id="opacity:100_colorstyle:Base_00000083053705927724333600000000895384326318193069_" fill="#FFFFFF" d="M43.1,7.9
	C40.1,4.5,36,3,32,3c-4,0-8.1,1.7-11.1,4.9C16.7,12.6,16,19.6,19,25.1l13,22.8l13-22.8c1.3-2.3,1.9-4.9,1.9-7.2
	C46.9,14.1,45.6,10.7,43.1,7.9z M32,27.3c-5.1,0-9.4-4.3-9.4-9.4s4.3-9.4,9.4-9.4s9.4,4.3,9.4,9.4S37.1,27.3,32,27.3z"/>
</svg>
