<?xml version="1.0" encoding="utf-8"?>
<!-- Generator: Adobe Illustrator 28.7.5, SVG Export Plug-In . SVG Version: 9.03 Build 55973)  -->
<svg version="1.1" baseProfile="tiny" id="Layer_1" xmlns="http://www.w3.org/2000/svg" xmlns:xlink="http://www.w3.org/1999/xlink"
	 x="0px" y="0px" viewBox="0 0 8.1 136.7" overflow="visible" xml:space="preserve">
<g>
	<path fill="#3082C5" d="M7.4,1C7,0.4,6.3,0,5.6,0H4H2.5C1.7,0,1.1,0.4,0.7,1L0,1.9h1.2l0.3-0.4C1.7,1.2,2.1,1,2.5,1H4h1.6
		c0.4,0,0.8,0.2,1,0.5l0.3,0.4h1.2L7.4,1z"/>
	<path fill="#3082C5" d="M7.4,4.4c-0.4-0.6-1.1-1-1.8-1H4H2.5c-0.7,0-1.4,0.4-1.8,1L0,5.4h1.2L1.5,5c0.2-0.3,0.6-0.5,1-0.5H4h1.6
		c0.4,0,0.8,0.2,1,0.5l0.3,0.4h1.2L7.4,4.4z"/>
	<path fill="#3082C5" d="M7.4,7.9c-0.4-0.6-1.1-1-1.8-1H4H2.5c-0.7,0-1.4,0.4-1.8,1L0,8.8h1.2l0.3-0.4c0.2-0.3,0.6-0.5,1-0.5H4h1.6
		c0.4,0,0.8,0.2,1,0.5l0.3,0.4h1.2L7.4,7.9z"/>
	<path fill="#3082C5" d="M7.4,11.3c-0.4-0.6-1.1-1-1.8-1H4H2.5c-0.7,0-1.4,0.4-1.8,1l-0.7,1h1.2l0.3-0.4c0.2-0.3,0.6-0.5,1-0.5H4
		h1.6c0.4,0,0.8,0.2,1,0.5l0.3,0.4h1.2L7.4,11.3z"/>
	<path fill="#3082C5" d="M7.4,14.8c-0.4-0.6-1.1-1-1.8-1H4H2.5c-0.7,0-1.4,0.4-1.8,1l-0.7,1h1.2l0.3-0.4c0.2-0.3,0.6-0.5,1-0.5H4
		h1.6c0.4,0,0.8,0.2,1,0.5l0.3,0.4h1.2L7.4,14.8z"/>
	<path fill="#3082C5" d="M7.4,18.2c-0.4-0.6-1.1-1-1.8-1H4H2.5c-0.7,0-1.4,0.4-1.8,1l-0.7,1h1.2l0.3-0.4c0.2-0.3,0.6-0.5,1-0.5H4
		h1.6c0.4,0,0.8,0.2,1,0.5l0.3,0.4h1.2L7.4,18.2z"/>
	<path fill="#3082C5" d="M7.4,21.7c-0.4-0.6-1.1-1-1.8-1H4H2.5c-0.7,0-1.4,0.4-1.8,1l-0.7,1h1.2l0.3-0.4c0.2-0.3,0.6-0.5,1-0.5H4
		h1.6c0.4,0,0.8,0.2,1,0.5l0.3,0.4h1.2L7.4,21.7z"/>
	<path fill="#3082C5" d="M7.4,25.2c-0.4-0.6-1.1-1-1.8-1H4H2.5c-0.7,0-1.4,0.4-1.8,1l-0.7,1h1.2l0.3-0.4c0.2-0.3,0.6-0.5,1-0.5H4
		h1.6c0.4,0,0.8,0.2,1,0.5l0.3,0.4h1.2L7.4,25.2z"/>
	<path fill="#3082C5" d="M7.4,28.6c-0.4-0.6-1.1-1-1.8-1H4H2.5c-0.7,0-1.4,0.4-1.8,1l-0.7,1h1.2l0.3-0.4c0.2-0.3,0.6-0.5,1-0.5H4
		h1.6c0.4,0,0.8,0.2,1,0.5l0.3,0.4h1.2L7.4,28.6z"/>
	<path fill="#3082C5" d="M7.4,32.1c-0.4-0.6-1.1-1-1.8-1H4H2.5c-0.7,0-1.4,0.4-1.8,1L0,33h1.2l0.3-0.4c0.2-0.3,0.6-0.5,1-0.5H4h1.6
		c0.4,0,0.8,0.2,1,0.5L6.9,33h1.2L7.4,32.1z"/>
	<path fill="#3082C5" d="M7.4,35.5c-0.4-0.6-1.1-1-1.8-1H4H2.5c-0.7,0-1.4,0.4-1.8,1l-0.7,1h1.2l0.3-0.4c0.2-0.3,0.6-0.5,1-0.5H4
		h1.6c0.4,0,0.8,0.2,1,0.5l0.3,0.4h1.2L7.4,35.5z"/>
	<path fill="#3082C5" d="M7.4,39c-0.4-0.6-1.1-1-1.8-1H4H2.5c-0.7,0-1.4,0.4-1.8,1l-0.7,1h1.2l0.3-0.4c0.2-0.3,0.6-0.5,1-0.5H4h1.6
		c0.4,0,0.8,0.2,1,0.5l0.3,0.4h1.2L7.4,39z"/>
	<path fill="#3082C5" d="M7.4,42.4c-0.4-0.6-1.1-1-1.8-1H4H2.5c-0.7,0-1.4,0.4-1.8,1l-0.7,1h1.2L1.5,43c0.2-0.3,0.6-0.5,1-0.5H4h1.6
		c0.4,0,0.8,0.2,1,0.5l0.3,0.4h1.2L7.4,42.4z"/>
	<path fill="#3082C5" d="M7.4,45.9c-0.4-0.6-1.1-1-1.8-1H4H2.5c-0.7,0-1.4,0.4-1.8,1l-0.7,1h1.2l0.3-0.4c0.2-0.3,0.6-0.5,1-0.5H4
		h1.6c0.4,0,0.8,0.2,1,0.5l0.3,0.4h1.2L7.4,45.9z"/>
	<path fill="#3082C5" d="M7.4,49.4c-0.4-0.6-1.1-1-1.8-1H4H2.5c-0.7,0-1.4,0.4-1.8,1l-0.7,1h1.2l0.3-0.4c0.2-0.3,0.6-0.5,1-0.5H4
		h1.6c0.4,0,0.8,0.2,1,0.5l0.3,0.4h1.2L7.4,49.4z"/>
	<path fill="#3082C5" d="M7.4,52.8c-0.4-0.6-1.1-1-1.8-1H4H2.5c-0.7,0-1.4,0.4-1.8,1l-0.7,1h1.2l0.3-0.4c0.2-0.3,0.6-0.5,1-0.5H4
		h1.6c0.4,0,0.8,0.2,1,0.5l0.3,0.4h1.2L7.4,52.8z"/>
	<path fill="#3082C5" d="M7.4,56.3c-0.4-0.6-1.1-1-1.8-1H4H2.5c-0.7,0-1.4,0.4-1.8,1l-0.7,1h1.2l0.3-0.4c0.2-0.3,0.6-0.5,1-0.5H4
		h1.6c0.4,0,0.8,0.2,1,0.5l0.3,0.4h1.2L7.4,56.3z"/>
	<path fill="#3082C5" d="M7.4,59.7c-0.4-0.6-1.1-1-1.8-1H4H2.5c-0.7,0-1.4,0.4-1.8,1l-0.7,1h1.2l0.3-0.4c0.2-0.3,0.6-0.5,1-0.5H4
		h1.6c0.4,0,0.8,0.2,1,0.5l0.3,0.4h1.2L7.4,59.7z"/>
	<path fill="#3082C5" d="M7.4,63.2c-0.4-0.6-1.1-1-1.8-1H4H2.5c-0.7,0-1.4,0.4-1.8,1l-0.7,1h1.2l0.3-0.4c0.2-0.3,0.6-0.5,1-0.5H4
		h1.6c0.4,0,0.8,0.2,1,0.5l0.3,0.4h1.2L7.4,63.2z"/>
	<path fill="#3082C5" d="M7.4,66.6c-0.4-0.6-1.1-1-1.8-1H4H2.5c-0.7,0-1.4,0.4-1.8,1l-0.7,1h1.2l0.3-0.4c0.2-0.3,0.6-0.5,1-0.5H4
		h1.6c0.4,0,0.8,0.2,1,0.5l0.3,0.4h1.2L7.4,66.6z"/>
	<path fill="#3082C5" d="M7.4,70.1c-0.4-0.6-1.1-1-1.8-1H4H2.5c-0.7,0-1.4,0.4-1.8,1l-0.7,1h1.2l0.3-0.4c0.2-0.3,0.6-0.5,1-0.5H4
		h1.6c0.4,0,0.8,0.2,1,0.5l0.3,0.4h1.2L7.4,70.1z"/>
	<path fill="#3082C5" d="M7.4,73.6c-0.4-0.6-1.1-1-1.8-1H4H2.5c-0.7,0-1.4,0.4-1.8,1l-0.7,1h1.2l0.3-0.4c0.2-0.3,0.6-0.5,1-0.5H4
		h1.6c0.4,0,0.8,0.2,1,0.5l0.3,0.4h1.2L7.4,73.6z"/>
	<path fill="#3082C5" d="M7.4,77c-0.4-0.6-1.1-1-1.8-1H4H2.5c-0.7,0-1.4,0.4-1.8,1L0,78h1.2l0.3-0.4c0.2-0.3,0.6-0.5,1-0.5H4h1.6
		c0.4,0,0.8,0.2,1,0.5L6.9,78h1.2L7.4,77z"/>
	<path fill="#3082C5" d="M7.4,80.5c-0.4-0.6-1.1-1-1.8-1H4H2.5c-0.7,0-1.4,0.4-1.8,1l-0.7,1h1.2L1.5,81c0.2-0.3,0.6-0.5,1-0.5H4h1.6
		c0.4,0,0.8,0.2,1,0.5l0.3,0.4h1.2L7.4,80.5z"/>
	<path fill="#3082C5" d="M7.4,83.9c-0.4-0.6-1.1-1-1.8-1H4H2.5c-0.7,0-1.4,0.4-1.8,1l-0.7,1h1.2l0.3-0.4c0.2-0.3,0.6-0.5,1-0.5H4
		h1.6c0.4,0,0.8,0.2,1,0.5l0.3,0.4h1.2L7.4,83.9z"/>
	<path fill="#3082C5" d="M7.4,87.4c-0.4-0.6-1.1-1-1.8-1H4H2.5c-0.7,0-1.4,0.4-1.8,1l-0.7,1h1.2l0.3-0.4c0.2-0.3,0.6-0.5,1-0.5H4
		h1.6c0.4,0,0.8,0.2,1,0.5l0.3,0.4h1.2L7.4,87.4z"/>
	<path fill="#3082C5" d="M7.4,90.8c-0.4-0.6-1.1-1-1.8-1H4H2.5c-0.7,0-1.4,0.4-1.8,1l-0.7,1h1.2l0.3-0.4c0.2-0.3,0.6-0.5,1-0.5H4
		h1.6c0.4,0,0.8,0.2,1,0.5l0.3,0.4h1.2L7.4,90.8z"/>
	<path fill="#3082C5" d="M7.4,94.3c-0.4-0.6-1.1-1-1.8-1H4H2.5c-0.7,0-1.4,0.4-1.8,1l-0.7,1h1.2l0.3-0.4c0.2-0.3,0.6-0.5,1-0.5H4
		h1.6c0.4,0,0.8,0.2,1,0.5l0.3,0.4h1.2L7.4,94.3z"/>
	<path fill="#3082C5" d="M7.4,97.8c-0.4-0.6-1.1-1-1.8-1H4H2.5c-0.7,0-1.4,0.4-1.8,1l-0.7,1h1.2l0.3-0.4c0.2-0.3,0.6-0.5,1-0.5H4
		h1.6c0.4,0,0.8,0.2,1,0.5l0.3,0.4h1.2L7.4,97.8z"/>
	<path fill="#3082C5" d="M7.4,101.2c-0.4-0.6-1.1-1-1.8-1H4H2.5c-0.7,0-1.4,0.4-1.8,1l-0.7,1h1.2l0.3-0.4c0.2-0.3,0.6-0.5,1-0.5H4
		h1.6c0.4,0,0.8,0.2,1,0.5l0.3,0.4h1.2L7.4,101.2z"/>
	<path fill="#3082C5" d="M7.4,104.7c-0.4-0.6-1.1-1-1.8-1H4H2.5c-0.7,0-1.4,0.4-1.8,1l-0.7,1h1.2l0.3-0.4c0.2-0.3,0.6-0.5,1-0.5H4
		h1.6c0.4,0,0.8,0.2,1,0.5l0.3,0.4h1.2L7.4,104.7z"/>
	<path fill="#3082C5" d="M7.4,108.1c-0.4-0.6-1.1-1-1.8-1H4H2.5c-0.7,0-1.4,0.4-1.8,1l-0.7,1h1.2l0.3-0.4c0.2-0.3,0.6-0.5,1-0.5H4
		h1.6c0.4,0,0.8,0.2,1,0.5l0.3,0.4h1.2L7.4,108.1z"/>
	<path fill="#3082C5" d="M7.4,111.6c-0.4-0.6-1.1-1-1.8-1H4H2.5c-0.7,0-1.4,0.4-1.8,1l-0.7,1h1.2l0.3-0.4c0.2-0.3,0.6-0.5,1-0.5H4
		h1.6c0.4,0,0.8,0.2,1,0.5l0.3,0.4h1.2L7.4,111.6z"/>
	<path fill="#3082C5" d="M7.4,115c-0.4-0.6-1.1-1-1.8-1H4H2.5c-0.7,0-1.4,0.4-1.8,1L0,116h1.2l0.3-0.4c0.2-0.3,0.6-0.5,1-0.5H4h1.6
		c0.4,0,0.8,0.2,1,0.5l0.3,0.4h1.2L7.4,115z"/>
	<path fill="#3082C5" d="M7.4,118.5c-0.4-0.6-1.1-1-1.8-1H4H2.5c-0.7,0-1.4,0.4-1.8,1l-0.7,1h1.2l0.3-0.4c0.2-0.3,0.6-0.5,1-0.5H4
		h1.6c0.4,0,0.8,0.2,1,0.5l0.3,0.4h1.2L7.4,118.5z"/>
	<path fill="#3082C5" d="M7.4,122c-0.4-0.6-1.1-1-1.8-1H4H2.5c-0.7,0-1.4,0.4-1.8,1l-0.7,1h1.2l0.3-0.4c0.2-0.3,0.6-0.5,1-0.5H4h1.6
		c0.4,0,0.8,0.2,1,0.5l0.3,0.4h1.2L7.4,122z"/>
	<path fill="#3082C5" d="M7.4,125.4c-0.4-0.6-1.1-1-1.8-1H4H2.5c-0.7,0-1.4,0.4-1.8,1l-0.7,1h1.2l0.3-0.4c0.2-0.3,0.6-0.5,1-0.5H4
		h1.6c0.4,0,0.8,0.2,1,0.5l0.3,0.4h1.2L7.4,125.4z"/>
	<path fill="#3082C5" d="M7.4,128.9c-0.4-0.6-1.1-1-1.8-1H4H2.5c-0.7,0-1.4,0.4-1.8,1l-0.7,1h1.2l0.3-0.4c0.2-0.3,0.6-0.5,1-0.5H4
		h1.6c0.4,0,0.8,0.2,1,0.5l0.3,0.4h1.2L7.4,128.9z"/>
	<path fill="#3082C5" d="M7.4,132.3c-0.4-0.6-1.1-1-1.8-1H4H2.5c-0.7,0-1.4,0.4-1.8,1l-0.7,1h1.2l0.3-0.4c0.2-0.3,0.6-0.5,1-0.5H4
		h1.6c0.4,0,0.8,0.2,1,0.5l0.3,0.4h1.2L7.4,132.3z"/>
	<path fill="#3082C5" d="M7.4,135.8c-0.4-0.6-1.1-1-1.8-1H4H2.5c-0.7,0-1.4,0.4-1.8,1l-0.7,1h1.2l0.3-0.4c0.2-0.3,0.6-0.5,1-0.5H4
		h1.6c0.4,0,0.8,0.2,1,0.5l0.3,0.4h1.2L7.4,135.8z"/>
</g>
</svg>
