<?xml version="1.0" encoding="utf-8"?>
<!-- Generator: Adobe Illustrator 28.0.0, SVG Export Plug-In . SVG Version: 6.00 Build 0)  -->
<svg version="1.1" baseProfile="tiny" xmlns="http://www.w3.org/2000/svg" xmlns:xlink="http://www.w3.org/1999/xlink" x="0px"
	 y="0px" viewBox="0 0 128 128" overflow="visible" xml:space="preserve">
<g id="consolidated_outland">
</g>
<g id="shubin">
</g>
<g id="grey_cat">
</g>
<g id="mirai">
</g>
<g id="crusader">
</g>
<g id="uee">
</g>
<g id="arc_corp">
</g>
<g id="aegis">
</g>
<g id="RSI">
</g>
<g id="misc">
</g>
<g id="origin">
	<line fill="#FFFFFF" x1="79.5" y1="93.2" x2="78.9" y2="93.7"/>
	<path fill="#FFFFFF" d="M74.1,52.3c0-1.9-1.5-3.4-3.4-3.4s-3.4,1.5-3.4,3.4c0,1.9,1.5,3.4,3.4,3.4S74.1,54.1,74.1,52.3z"/>
	<path fill="#FFFFFF" d="M75.5,57.7c0-0.9-0.7-1.5-1.5-1.5c-0.9,0-1.5,0.7-1.5,1.5c0,0.9,0.7,1.5,1.5,1.5
		C74.8,59.2,75.5,58.5,75.5,57.7z"/>
	<path fill="#FFFFFF" d="M28.3,53.6c0,0,18.6-16.4,38.5-21.7c23.1-6.1,33.4,6.7,33.4,6.7s-12.8-8.1-31.5-4.4
		C46.7,38.6,28.3,53.6,28.3,53.6z"/>
	<path fill="#FFFFFF" d="M76.5,27.3c0,0-22.8-5.5-45.9,12.8c-23.2,18.3-30.3,51-30.3,51s7.9-25.9,34-45.6
		C53.8,30.8,76.5,27.3,76.5,27.3z"/>
	<path fill="#FFFFFF" d="M38.9,48c0,0-12,14.1-10.6,25.6C30,88.1,52.7,88.1,52.7,88.1c0.2,0-27.8,0-29.1-13.2
		C22.4,62,38.9,48,38.9,48z"/>
	<path fill="#FFFFFF" d="M68.4,40.7c-7.9,0.4-24.7,5.6-28.9,20.8C36.1,74,46.2,83.6,58.9,83.6c7.3,0,14.8-2.5,20.6-6.7v0
		c8.2-7.3,11.1-12.5,11.1-18.1c0,0,0,0,0,0C91.3,45.4,78.4,40.1,68.4,40.7z M85.9,58.2c0,4.8-4.7,11-4.7,11
		C75.9,75.4,67,79.5,58.2,79.5c-11,0-19.8-8.4-16.8-19.3C45.1,47,59.7,42.5,66.6,42.1C75.3,41.7,85.8,46.3,85.9,58.2z"/>
	<path fill="#FFFFFF" d="M102.9,58.5L102.9,58.5C102.9,58.6,102.9,58.6,102.9,58.5L102.9,58.5z"/>
	<path fill="#FFFFFF" d="M102.9,58.5C102.9,58.6,102.9,58.6,102.9,58.5c-1,2.6-3.4,13.8-24.9,26.6c-34.8,18.7-50.4,0.5-50.6,0.2
		c0.2,0.1,6.5,4.9,20.9,5.4c7.8,0.3,19.6-2.1,30.1-8.2c11-7.5,17-15.3,19.9-23.6c7.7-22.9-23.4-23.4-23.4-23.4s19.2,0,26,7.6
		C103.9,46.5,104.8,52.1,102.9,58.5z"/>
	<path fill="#FFFFFF" d="M127,32.8c-0.2,0.8-3.2,13.2-9.7,26c-4.9,7.9-13,18.7-25.9,27.6c-4.3,3-8.5,5.3-12.4,7.2
		c-4.8,1.8-11.7,3.6-20.1,3.6c-5,0-8.1-0.7-8.1-0.7c0,0-0.1,0-0.1,0c0.6-0.1,12.6-2.2,26.2-8.4c2.6-1.1,5.2-2.5,7.9-4
		c13.6-7.8,22.9-18,29-26.5c0,0,0,0,0,0c0,0,0,0,0,0C123.5,44.4,126.8,33.6,127,32.8z"/>
</g>
<g id="curelife">
</g>
<g id="argo">
</g>
<g id="anvil">
</g>
<g id="aopoa">
</g>
<g id="banu">
</g>
<g id="drake">
</g>
<g id="gatac">
</g>
<g id="nine_tails">
</g>
<g id="hurston_dynamics">
</g>
<g id="microtech">
</g>
<g id="klescher">
</g>
<g id="aciedo">
</g>
</svg>
