<?xml version="1.0" encoding="utf-8"?>
<!-- Generator: Adobe Illustrator 28.0.0, SVG Export Plug-In . SVG Version: 6.00 Build 0)  -->
<svg version="1.1" baseProfile="tiny" xmlns="http://www.w3.org/2000/svg" xmlns:xlink="http://www.w3.org/1999/xlink" x="0px"
	 y="0px" viewBox="0 0 128 128" overflow="visible" xml:space="preserve">
<g id="consolidated_outland">
</g>
<g id="shubin">
</g>
<g id="grey_cat">
</g>
<g id="mirai">
</g>
<g id="tumbril">
	<g>
		<path d="M93.3,72.2h15.8C101.5,85.2,94,98.1,86.5,111h-45c-7.5-12.8-15-25.7-22.6-38.7h15.8c4.8,8.3,9.7,16.7,14.6,25.1h29.2
			C83.4,89,88.3,80.6,93.3,72.2"/>
		<path d="M86.5,17c7.5,12.9,15,25.8,22.6,38.8H93.3c-4.9-8.4-9.9-16.8-14.8-25.1h-29c-4.9,8.3-9.8,16.7-14.8,25.1H18.9
			C26.5,42.7,34,29.9,41.5,17H86.5z"/>
		<path d="M80.5,45.5c0.6,0,0.9,0.3,0.9,0.8v8.2c0,0.5-0.3,0.8-0.9,0.8H69.8v31.9c0,0.6-0.3,0.9-0.8,0.9H59c-0.6,0-0.8-0.3-0.8-0.9
			V55.3H47.5c-0.6,0-0.9-0.3-0.9-0.8v-8.2c0-0.5,0.3-0.8,0.9-0.8H80.5z"/>
	</g>
</g>
<g id="regal">
</g>
<g id="crusader">
</g>
<g id="uee">
</g>
<g id="arc_corp">
</g>
<g id="aegis">
</g>
<g id="RSI">
</g>
<g id="misc">
</g>
<g id="origin">
</g>
<g id="curelife">
</g>
<g id="argo">
</g>
<g id="anvil">
</g>
<g id="aopoa">
</g>
<g id="banu">
</g>
<g id="drake">
</g>
<g id="gatac">
</g>
<g id="nine_tails">
</g>
<g id="hurston_dynamics">
</g>
<g id="microtech">
</g>
<g id="klescher">
</g>
<g id="aciedo">
</g>
</svg>
