<?xml version="1.0" encoding="utf-8"?>
<!-- Generator: Adobe Illustrator 28.0.0, SVG Export Plug-In . SVG Version: 6.00 Build 0)  -->
<svg version="1.1" baseProfile="tiny" xmlns="http://www.w3.org/2000/svg" xmlns:xlink="http://www.w3.org/1999/xlink" x="0px"
	 y="0px" viewBox="0 0 128 128" overflow="visible" xml:space="preserve">
<g id="consolidated_outland">
</g>
<g id="shubin">
</g>
<g id="grey_cat">
</g>
<g id="mirai">
</g>
<g id="crusader">
</g>
<g id="uee">
</g>
<g id="arc_corp">
</g>
<g id="aegis">
</g>
<g id="RSI">
</g>
<g id="misc">
</g>
<g id="origin">
</g>
<g id="curelife">
	<path fill="#0071BB" d="M96.8,18.6H31.2H18.6v12.7v65.4v12.7h12.7h65.5h12.6V96.6V31.4V18.6H96.8z M101.5,88.7l-9.8-9.8l4.9-4.9
		H74.1v22.5l4.9-4.9l9.9,9.9H39.2l10-9.9l4.9,4.9V74H31.6l4.9,4.9l-10,10V39.1l10,9.8l-4.9,4.9h22.5V31.3l-4.9,4.9l-9.9-9.7h49.5
		L79,36.2l-4.9-4.9v22.5h22.5l-4.9-4.9l9.8-9.7V88.7z"/>
</g>
<g id="argo">
</g>
<g id="anvil">
</g>
<g id="aopoa">
</g>
<g id="banu">
</g>
<g id="drake">
</g>
<g id="gatac">
</g>
<g id="nine_tails">
</g>
<g id="hurston_dynamics">
</g>
<g id="microtech">
</g>
<g id="klescher">
</g>
<g id="aciedo">
</g>
</svg>
