<?xml version="1.0" encoding="utf-8"?>
<!-- Generator: Adobe Illustrator 28.0.0, SVG Export Plug-In . SVG Version: 6.00 Build 0)  -->
<svg version="1.1" baseProfile="tiny" xmlns="http://www.w3.org/2000/svg" xmlns:xlink="http://www.w3.org/1999/xlink" x="0px"
	 y="0px" viewBox="0 0 128 128" overflow="visible" xml:space="preserve">
<g id="consolidated_outland">
</g>
<g id="shubin">
</g>
<g id="grey_cat">
</g>
<g id="mirai">
</g>
<g id="crusader">
</g>
<g id="uee">
</g>
<g id="arc_corp">
</g>
<g id="aegis">
</g>
<g id="RSI">
</g>
<g id="misc">
</g>
<g id="origin">
</g>
<g id="curelife">
</g>
<g id="argo">
</g>
<g id="anvil">
</g>
<g id="aopoa">
</g>
<g id="banu">
</g>
<g id="drake">
</g>
<g id="gatac">
</g>
<g id="nine_tails">
</g>
<g id="hurston_dynamics">
</g>
<g id="microtech">
	<path fill="#2AA7DF" d="M24.7,101.8c-7.3-7.5-7.4-19.3,0.3-27c4.4-4.4,10.2-5.8,15.7-5.9C52.6,68.6,69,52,69.8,39.7
		c0.4-5.5,1.5-11.6,5.8-15.6c7.5-7.4,20.1-7.7,27.4,0.4c7.9,7.5,7.7,20.2-0.3,27.5c-4.3,4-9.7,5.3-15.2,5.4
		c-13.7,0.3-30.2,18-29.7,28.5c0.2,5.1-1.2,11.8-5.4,16.3C44.9,109.6,31.8,109.1,24.7,101.8z"/>
	<path fill="#8EC74C" d="M88.7,66.8c10.9,0,20,9.2,20,20.1c0,11.5-9.2,20.6-20,20.6c-11.5,0-20.6-9.2-20.6-20.6
		C68.1,76,77.3,66.8,88.7,66.8z"/>
	<path fill="#8EC74C" d="M40,18.3c10.9,0,20,9.2,20,20.1c0,11.5-9.2,20.6-20,20.6c-11.5,0-20.6-9.2-20.6-20.6
		C19.4,27.5,28.6,18.3,40,18.3z"/>
</g>
<g id="klescher">
</g>
<g id="aciedo">
</g>
</svg>
