<?xml version="1.0" encoding="utf-8"?>
<!-- Generator: Adobe Illustrator 28.0.0, SVG Export Plug-In . SVG Version: 6.00 Build 0)  -->
<svg version="1.1" baseProfile="tiny" xmlns="http://www.w3.org/2000/svg" xmlns:xlink="http://www.w3.org/1999/xlink" x="0px"
	 y="0px" viewBox="0 0 128 128" overflow="visible" xml:space="preserve">
<g id="consolidated_outland">
</g>
<g id="shubin">
</g>
<g id="grey_cat">
</g>
<g id="mirai">
</g>
<g id="crusader">
</g>
<g id="uee">
</g>
<g id="arc_corp">
</g>
<g id="aegis">
</g>
<g id="RSI">
</g>
<g id="misc">
</g>
<g id="origin">
</g>
<g id="curelife">
</g>
<g id="argo">
</g>
<g id="anvil">
</g>
<g id="aopoa">
</g>
<g id="banu">
</g>
<g id="drake">
</g>
<g id="gatac">
</g>
<g id="nine_tails">
</g>
<g id="hurston_dynamics">
</g>
<g id="microtech">
</g>
<g id="klescher">
</g>
<g id="aciedo">
	<path fill="#D8D8D8" d="M112.1,64.5c-0.2,26.3-21.6,47.5-48,47.5s-47.7-21.2-48-47.5H8.3c0.2,30.6,25.2,55.4,55.9,55.4
		s55.6-24.8,55.9-55.4H112.1z"/>
	<path fill="#474747" d="M64.1,8.1C33.3,8.1,8.3,33.1,8.3,64c0,0.2,0,0.3,0,0.5h7.9c0-0.2,0-0.3,0-0.5c0-26.5,21.5-48,48-48
		s48,21.5,48,48c0,0.2,0,0.3,0,0.5h7.9c0-0.2,0-0.3,0-0.5C120,33.1,95,8.1,64.1,8.1z"/>
	<path fill="#595959" d="M120,64c0,0.2,0,0.3,0,0.5h-7.9c0-0.2,0-0.3,0-0.5c0-26.5-21.5-48-48-48s-48,21.5-48,48c0,0.2,0,0.3,0,0.5
		H8.3c0-0.2,0-0.3,0-0.5c0-30.9,25-55.9,55.9-55.9S120,33.1,120,64z"/>
	<path fill="#D8D8D8" d="M35.6,64.5c0,5.7,1.7,11.2,4.9,15.9l-3.8,8c-5.8-6.6-9-15.1-9-23.9H35.6z"/>
	<path fill="#D8D8D8" d="M100.7,64.5c0,8.9-3.2,17.4-9,24l-3.8-8c3.2-4.7,4.9-10.2,4.9-16H100.7z"/>
	<path fill="#595959" d="M35.6,64.5h-7.9C27.7,44.3,44.1,28,64.2,28c9.8,0,18.9,3.8,25.8,10.6c6.9,6.9,10.7,16,10.7,25.7h-7.9
		c0-15.7-12.8-28.4-28.6-28.4S35.6,48.7,35.6,64.5z"/>
	<path fill="#595959" d="M27.5,107.7L27.5,107.7l18.3,0.1l18.3-42.3l18.3,42.3h18.3l0-0.1l-28.7-60H56L27.5,107.7z"/>
</g>
</svg>
