<?xml version="1.0" encoding="utf-8"?>
<!-- Generator: Adobe Illustrator 28.0.0, SVG Export Plug-In . SVG Version: 6.00 Build 0)  -->
<svg version="1.1" baseProfile="tiny" xmlns="http://www.w3.org/2000/svg" xmlns:xlink="http://www.w3.org/1999/xlink" x="0px"
	 y="0px" viewBox="0 0 1024 1024" overflow="visible" xml:space="preserve">
<g id="Temp_BG">
</g>
<g id="esperia">
</g>
<g id="grey_cat">
</g>
<g id="kruger">
</g>
<g id="misc">
</g>
<g id="tumbril">
</g>
<g id="Banu">
</g>
<g id="mirai">
</g>
<g id="Gatac">
</g>
<g id="Aopoa">
</g>
<g id="Argo">
</g>
<g id="Anvil_Aerospace">
</g>
<g id="Consolidated_Outland">
</g>
<g id="Shubin">
</g>
<g id="RSI">
</g>
<g id="Origin">
</g>
<g id="Misc">
</g>
<g id="Drake">
</g>
<g id="Curelife">
	<g>
		<g>
			<path fill="#0071BB" d="M667.3,260.1H392.8h-52.9v53.2v273.9v53.1h53.1h274.6h52.6v-53.5V313.4v-53.3H667.3z M687.2,553.8
				l-41.1-41.1l20.6-20.6h-94.3l0,94.3l20.6-20.6l41.6,41.6H426.1l41.8-41.6l20.6,20.6l0-94.3h-94.3l20.6,20.6l-42,41.8V345.7
				l42,41.2l-20.6,20.6h94.3v-94.3l-20.6,20.6l-41.5-40.7H634l-41,40.7l-20.6-20.6l0,94.3h94.3l-20.6-20.6l41.1-40.8V553.8z"/>
		</g>
		<g>
			<path fill="#0071BB" d="M151.9,763.9H87.3c-3.9,0-6.3-2.6-6.3-6.8v-58.3c0-4.1,2.3-6.8,6.3-6.8h64.6c3.9,0,6.5,2.6,6.5,6.8v19.6
				h-17v-13H98v44.9h43.3v-13.7h17v20.4C158.3,761.3,155.8,763.9,151.9,763.9z"/>
			<path fill="#0071BB" d="M285.7,763.9h-64.3c-4.1,0-6.6-2.6-6.6-6.8v-65h17v58h43.3v-58h17v65
				C292.1,761.3,289.6,763.9,285.7,763.9z"/>
			<path fill="#0071BB" d="M406.4,763.9L373.7,735v-8.6h31.6v-20.9h-39.7v58.4h-17v-71.8h67.2c3.9,0,6.4,2.6,6.4,6.8v33
				c0,4-2.5,6.6-6.4,6.6h-18l29.3,24.8v0.7H406.4z"/>
			<path fill="#0071BB" d="M477.6,763.9v-71.8h69.7V706h-52.7v15.1h41.9V734h-41.9v16.2h53.5v13.8H477.6z"/>
			<path fill="#0071BB" d="M601,763.9v-71.8h17v58h48.2v13.8H601z"/>
			<path fill="#0071BB" d="M716.6,763.9v-71.8h17v71.8H716.6z"/>
			<path fill="#0071BB" d="M807,706v15.4h40.9v12.9H807v29.7h-17v-71.8h68V706H807z"/>
			<path fill="#0071BB" d="M908.5,763.9v-71.8h69.7V706h-52.7v15.1h41.9V734h-41.9v16.2H979v13.8H908.5z"/>
		</g>
	</g>
</g>
<g id="Crusader">
</g>
<g id="Bioticorp">
</g>
<g id="Aciedo">
</g>
<g id="Aegis">
</g>
</svg>
