<?xml version="1.0" encoding="utf-8"?>
<!-- Generator: Adobe Illustrator 28.0.0, SVG Export Plug-In . SVG Version: 6.00 Build 0)  -->
<svg version="1.1" baseProfile="tiny" xmlns="http://www.w3.org/2000/svg" xmlns:xlink="http://www.w3.org/1999/xlink" x="0px"
	 y="0px" viewBox="0 0 1024 1024" overflow="visible" xml:space="preserve">
<g id="Temp_BG">
</g>
<g id="esperia">
</g>
<g id="grey_cat">
</g>
<g id="kruger">
</g>
<g id="misc">
</g>
<g id="tumbril">
</g>
<g id="Banu">
</g>
<g id="mirai">
</g>
<g id="Gatac">
</g>
<g id="Aopoa">
</g>
<g id="Argo">
</g>
<g id="Anvil_Aerospace">
</g>
<g id="Consolidated_Outland">
</g>
<g id="Shubin">
</g>
<g id="RSI">
	<g>
		<g>
			<path fill="#808285" d="M385.7,571.5c-5.4,0-10.3-4-11.6-8.9L360.7,506l61.1-30.3c14.7-7.1,27.2-21.8,31.7-39.7l21-80.3
				c5.3-20.1-7.6-36.6-28.5-36.6H219.8l-83.8,329h79.4l20.5-79.8l53.5-26.8l19.2,79.4c3.6,14.7,18.7,27.2,34.3,27.2h63.3l19.6-76.7
				H385.7z M260.4,472.5l0.6-2.4l19-74.7h87.7h4.2c7.1,0,12,2.7,10.3,8.5c-1.3,4.5-4.5,9.8-13.4,14.3L260.4,472.5z"/>
			<path fill="#808285" d="M697.2,506.4l-127.5-84.3c-7.1-4.5-9.8-9.8-8-16.9c1.8-7.1,7.1-9.8,14.3-9.8l119.3,0.3h0.1l0.1-0.3
				l19.6-76.2l0-0.2H715l-184.1,0.2c-15.6,0-31.2,12.5-34.8,27.2l-18.3,72.2c-3.6,14.7,3.6,34.3,16.5,42.8L622.7,547
				c7.1,4.9,8.5,9.4,6.7,15.2c-1.3,4.5-6.7,9.4-13.8,9.4h-96.8l-19.6,76.7h160.5c16,0,32.1-12.5,35.7-27.2l18.3-71.8
				C717.2,534.5,710.1,514.9,697.2,506.4z"/>
			<polygon fill="#808285" points="808.6,319 808.6,319.1 808.3,319.1 723.5,648.2 803.7,648.2 888,319.1 			"/>
		</g>
		<polygon fill="#FBB815" points="478,571.5 465.2,571.5 464.9,571.5 445.2,648.2 445.3,648.2 458.3,648.2 458.4,648.2 478.2,571.5 
					"/>
		<polygon fill="#FBB815" points="451.4,571.5 438.6,571.5 438.5,571.6 418.5,648.2 418.7,648.2 431.7,648.2 432.2,648.2 452,571.5 
					"/>
		<polygon fill="#FBB815" points="491.9,571.5 491,571.5 471.4,648.2 472.1,648.2 485.2,648.2 504.8,571.5 		"/>
		<polygon fill="#FBB815" points="775,395.4 794.5,319.1 781.6,319.1 762,395.4 		"/>
		<polygon fill="#FBB815" points="748.8,395.4 768.3,319.1 755.5,319.1 735.8,395.4 		"/>
		<polygon fill="#FBB815" points="742,319.1 741.7,319.1 741.7,319 728.8,319 728,319 727.9,319.1 708.4,395.4 708.3,395.7 
			709,395.7 722,395.7 722.1,395.7 722.2,395.4 		"/>
		<g>
			<path fill="#808285" d="M153.4,705l-8.2-10.2h-3.7V705H136v-27.1h17.8c1.9,0,3.2,0.4,3.9,1.3c0.7,0.9,1.1,2.2,1.1,4v6.3
				c0,1.8-0.4,3.2-1.1,4c-0.7,0.9-2.1,1.3-3.9,1.3h-2.2l9.4,10.2H153.4z M153.4,684.8c0-0.8-0.1-1.3-0.4-1.6
				c-0.3-0.3-0.7-0.4-1.3-0.4h-10.2v7.4h10.2c0.6,0,1-0.2,1.3-0.4c0.3-0.3,0.4-0.8,0.4-1.6V684.8z"/>
			<path fill="#808285" d="M192.1,703.7c-0.7,0.9-2.2,1.4-4.4,1.4h-15c-2.2,0-3.7-0.5-4.4-1.4c-0.7-0.9-1.1-2.6-1.1-5.1v-14.3
				c0-2.4,0.4-4.1,1.1-5.1c0.7-0.9,2.2-1.4,4.4-1.4h15c2.2,0,3.7,0.5,4.4,1.4c0.7,0.9,1.1,2.6,1.1,5.1v14.3
				C193.1,701.1,192.8,702.7,192.1,703.7z M187.6,682.9h-14.8v17h14.8V682.9z"/>
			<path fill="#808285" d="M223.8,703.7c-1,0.9-2.6,1.3-4.9,1.3h-16.6v-27.1h17.9c1.9,0,3.2,0.4,3.9,1.3c0.7,0.9,1.1,2.2,1.1,4v3.3
				c0,2.6-1.1,4.1-3.4,4.5c2.4,0.5,3.6,2.2,3.6,5.2v3.5C225.3,701.5,224.8,702.8,223.8,703.7z M219.9,684.3c0-0.7-0.2-1.2-0.5-1.5
				c-0.3-0.3-0.7-0.4-1.3-0.4h-10.4v6.3h10.4c0.6,0,1-0.1,1.3-0.4c0.3-0.3,0.4-0.8,0.4-1.5V684.3z M220,695.6c0-0.9-0.2-1.5-0.5-1.9
				c-0.3-0.3-0.8-0.5-1.4-0.5h-10.4v6.8h10.4c0.6,0,1.1-0.2,1.4-0.5c0.3-0.3,0.4-1,0.4-1.9V695.6z"/>
			<path fill="#808285" d="M233.6,705v-27.1h21.7v4.7h-16.1v5.9h9.4v4.7h-9.4v6.6h16.3v5.2H233.6z"/>
			<path fill="#808285" d="M280.8,705l-8.2-10.2h-3.7V705h-5.5v-27.1h17.8c1.9,0,3.2,0.4,3.9,1.3c0.7,0.9,1.1,2.2,1.1,4v6.3
				c0,1.8-0.4,3.2-1.1,4c-0.7,0.9-2.1,1.3-3.9,1.3h-2.2l9.4,10.2H280.8z M280.8,684.8c0-0.8-0.1-1.3-0.4-1.6
				c-0.3-0.3-0.7-0.4-1.3-0.4h-10.2v7.4h10.2c0.6,0,1-0.2,1.3-0.4c0.3-0.3,0.4-0.8,0.4-1.6V684.8z"/>
			<path fill="#808285" d="M304.4,682.9V705h-5.6v-22.2h-9.3v-5h24.3v5H304.4z"/>
			<path fill="#808285" d="M340.7,703.7c-0.7,0.9-2.2,1.4-4.4,1.4h-12.6c-2.2,0-3.7-0.5-4.4-1.4c-0.7-0.9-1.1-2.6-1.1-5.1v-0.8
				l5.1-1.4v3.4h13.5v-6h-12.2c-2.2,0-3.7-0.5-4.4-1.4c-0.7-0.9-1.1-2.6-1.1-5.1v-3c0-2.4,0.4-4.1,1.1-5.1c0.7-0.9,2.2-1.4,4.4-1.4
				H336c2.2,0,3.6,0.4,4.4,1.3c0.7,0.9,1.1,2.4,1.1,4.6v0.6l-5,1.6v-3.3H324v5.7h12.3c2.2,0,3.7,0.5,4.4,1.4
				c0.7,0.9,1.1,2.6,1.1,5.1v3.7C341.8,701,341.4,702.7,340.7,703.7z"/>
			<path fill="#808285" d="M387.9,703.7c-0.7,0.9-2.2,1.4-4.4,1.4h-12.6c-2.2,0-3.7-0.5-4.4-1.4c-0.7-0.9-1.1-2.6-1.1-5.1v-0.8
				l5.1-1.4v3.4h13.5v-6h-12.2c-2.2,0-3.7-0.5-4.4-1.4c-0.7-0.9-1.1-2.6-1.1-5.1v-3c0-2.4,0.4-4.1,1.1-5.1c0.7-0.9,2.2-1.4,4.4-1.4
				h11.6c2.2,0,3.6,0.4,4.4,1.3c0.7,0.9,1.1,2.4,1.1,4.6v0.6l-5,1.6v-3.3h-12.5v5.7h12.3c2.2,0,3.7,0.5,4.4,1.4
				c0.7,0.9,1.1,2.6,1.1,5.1v3.7C389,701,388.6,702.7,387.9,703.7z"/>
			<path fill="#808285" d="M419.7,693.2c-0.7,0.9-2,1.3-3.9,1.3h-12.3V705h-5.5v-27.1h17.8c1.9,0,3.2,0.4,3.9,1.3
				c0.7,0.9,1.1,2.2,1.1,4v6C420.8,691.1,420.4,692.4,419.7,693.2z M415.3,684.8c0-0.8-0.1-1.3-0.4-1.6c-0.3-0.3-0.7-0.4-1.3-0.4
				h-10.2v7h10.2c0.6,0,1-0.1,1.3-0.4c0.3-0.3,0.4-0.8,0.4-1.6V684.8z"/>
			<path fill="#808285" d="M442.9,705l-2.4-5.9h-12.1L426,705h-5.6l11.6-27.1h5.4l11.7,27.1H442.9z M434.5,684.3l-4.1,9.9h8
				L434.5,684.3z"/>
			<path fill="#808285" d="M475.4,703.7c-0.7,0.9-2.2,1.4-4.4,1.4h-12.1c-2.2,0-3.7-0.5-4.4-1.4c-0.7-0.9-1.1-2.6-1.1-5.1v-14.3
				c0-2.4,0.4-4.1,1.1-5.1c0.7-0.9,2.2-1.4,4.4-1.4H471c2.2,0,3.7,0.5,4.4,1.4c0.7,0.9,1.1,2.6,1.1,5.1v2.6l-5.6,1.2v-5.2H459v17
				h11.9v-6l5.6,1.5v3.2C476.5,701.1,476.1,702.7,475.4,703.7z"/>
			<path fill="#808285" d="M485.4,705v-27.1h21.7v4.7H491v5.9h9.4v4.7H491v6.6h16.3v5.2H485.4z"/>
			<path fill="#808285" d="M530.5,705v-27.1h5.6V705H530.5z"/>
			<path fill="#808285" d="M550.6,687.4c0.1,1.1,0.1,2.1,0.1,3V705h-5.1v-27.1h4.1l14.4,16c0.6,0.7,1,1.2,1.3,1.5l0.1,0.1
				c-0.1-1.7-0.1-2.8-0.1-3.3v-14.3h5.1V705h-4.1l-15-16.7C551.1,688.1,550.9,687.8,550.6,687.4z"/>
			<path fill="#808285" d="M601,702.9c-1.7,1.4-4.7,2.2-8.8,2.2h-12.3v-27.1h13.5c4,0,7,1.2,9,3.5c2,2.3,3,5.6,3,9.9
				C605.5,696.6,604,700.4,601,702.9z M598.1,685c-1.1-1.4-2.6-2.1-4.6-2.1h-8v17h5.7c3,0,5.2-0.7,6.5-2c1.3-1.3,2-3.5,2-6.6
				C599.7,688.4,599.2,686.4,598.1,685z"/>
			<path fill="#808285" d="M636.1,703.7c-0.7,0.9-2.2,1.4-4.4,1.4h-12.9c-2.2,0-3.7-0.5-4.4-1.4c-0.7-0.9-1.1-2.6-1.1-5.1v-20.7h5.6
				v21.9h12.6v-21.9h5.6v20.7C637.1,701.1,636.8,702.7,636.1,703.7z"/>
			<path fill="#808285" d="M668.6,703.7c-0.7,0.9-2.2,1.4-4.4,1.4h-12.6c-2.2,0-3.7-0.5-4.4-1.4c-0.7-0.9-1.1-2.6-1.1-5.1v-0.8
				l5.1-1.4v3.4h13.5v-6h-12.2c-2.2,0-3.7-0.5-4.4-1.4c-0.7-0.9-1.1-2.6-1.1-5.1v-3c0-2.4,0.4-4.1,1.1-5.1c0.7-0.9,2.2-1.4,4.4-1.4
				h11.6c2.2,0,3.6,0.4,4.4,1.3c0.7,0.9,1.1,2.4,1.1,4.6v0.6l-5,1.6v-3.3h-12.5v5.7h12.3c2.2,0,3.7,0.5,4.4,1.4
				c0.7,0.9,1.1,2.6,1.1,5.1v3.7C669.7,701,669.3,702.7,668.6,703.7z"/>
			<path fill="#808285" d="M689,682.9V705h-5.6v-22.2H674v-5h24.3v5H689z"/>
			<path fill="#808285" d="M720.7,705l-8.2-10.2h-3.7V705h-5.5v-27.1h17.8c1.9,0,3.2,0.4,3.9,1.3c0.7,0.9,1.1,2.2,1.1,4v6.3
				c0,1.8-0.4,3.2-1.1,4c-0.7,0.9-2,1.3-3.9,1.3h-2.2l9.4,10.2H720.7z M720.7,684.8c0-0.8-0.1-1.3-0.4-1.6c-0.3-0.3-0.7-0.4-1.3-0.4
				h-10.2v7.4H719c0.6,0,1-0.2,1.3-0.4c0.3-0.3,0.4-0.8,0.4-1.6V684.8z"/>
			<path fill="#808285" d="M734.9,705v-27.1h5.6V705H734.9z"/>
			<path fill="#808285" d="M750.1,705v-27.1h21.7v4.7h-16.1v5.9h9.4v4.7h-9.4v6.6h16.3v5.2H750.1z"/>
			<path fill="#808285" d="M801.8,703.7c-0.7,0.9-2.2,1.4-4.4,1.4h-12.6c-2.2,0-3.7-0.5-4.4-1.4c-0.7-0.9-1.1-2.6-1.1-5.1v-0.8
				l5.1-1.4v3.4h13.5v-6h-12.2c-2.2,0-3.7-0.5-4.4-1.4c-0.7-0.9-1.1-2.6-1.1-5.1v-3c0-2.4,0.4-4.1,1.1-5.1c0.7-0.9,2.2-1.4,4.4-1.4
				h11.6c2.2,0,3.6,0.4,4.4,1.3c0.7,0.9,1.1,2.4,1.1,4.6v0.6l-5,1.6v-3.3H785v5.7h12.3c2.2,0,3.7,0.5,4.4,1.4
				c0.7,0.9,1.1,2.6,1.1,5.1v3.7C802.8,701,802.5,702.7,801.8,703.7z"/>
		</g>
	</g>
</g>
<g id="Origin">
</g>
<g id="Misc">
</g>
<g id="Drake">
</g>
<g id="Curelife">
</g>
<g id="Crusader">
</g>
<g id="Bioticorp">
</g>
<g id="Aciedo">
</g>
<g id="Aegis">
</g>
</svg>
