<?xml version="1.0" encoding="utf-8"?>
<!-- Generator: Adobe Illustrator 28.0.0, SVG Export Plug-In . SVG Version: 6.00 Build 0)  -->
<svg version="1.1" baseProfile="tiny" xmlns="http://www.w3.org/2000/svg" xmlns:xlink="http://www.w3.org/1999/xlink" x="0px"
	 y="0px" viewBox="0 0 1024 1024" overflow="visible" xml:space="preserve">
<g id="Temp_BG">
</g>
<g id="esperia">
</g>
<g id="grey_cat">
</g>
<g id="kruger">
</g>
<g id="misc">
</g>
<g id="tumbril">
</g>
<g id="Banu">
</g>
<g id="mirai">
</g>
<g id="Gatac">
</g>
<g id="Aopoa">
</g>
<g id="Argo">
</g>
<g id="Anvil_Aerospace">
</g>
<g id="Consolidated_Outland">
</g>
<g id="Shubin">
</g>
<g id="RSI">
</g>
<g id="Origin">
</g>
<g id="Misc">
</g>
<g id="Drake">
</g>
<g id="Curelife">
</g>
<g id="Crusader">
</g>
<g id="Bioticorp">
	<path fill="#4D4D4D" d="M841.6,559.6c16.2,14,32.4,28,49.1,42.3c0-1.4,0-2.3,0-3.1c0-31.9,0-63.9,0-95.8c0-6.5,1.3-12.6,4.8-18.2
		c5.4-8.5,13.2-13.1,22.9-15c2.1-0.4,4.1-0.6,6.2-0.6c18.4,0,36.8,0,55.3,0c9.8,0,18.8,2.5,26.6,8.5c8.9,6.7,14,16,16.5,26.7
		c0.8,3.5,1.1,7.1,1.1,10.8c-0.1,4.3,0.1,8.5-0.1,12.8c-0.4,9.7-3.3,18.7-9.7,26.2c-7.2,8.4-16.5,13.1-27.3,15
		c-2.9,0.5-5.7,0.6-8.6,0.6c-16.8,0-33.6,0-50.4,0c-0.5,0-1,0-1.4,0c-1.8,0-1.8,0-1.8-1.9c0-6.8,0-13.5,0-20.3c0-2,0-2.1,2.2-2.1
		c17,0,33.9,0,50.9,0c2.2,0,4.3-0.2,6.5-0.7c9.1-2.2,14.6-8.1,15.5-17.4c0.5-5.3,0.6-10.6-0.2-15.9c-0.3-2-0.8-3.9-1.6-5.8
		c-2.9-7.6-9.4-12.2-17.6-12.4c-0.5,0-1,0-1.4,0c-17.8,0-35.6,0-53.3,0c-1.1,0-2.2,0-3.4,0.2c-4.4,0.9-6.9,3.7-7.2,8.2
		c-0.1,0.9,0,1.8,0,2.7c0,31.7,0,63.4,0,95.1c0,3.4,0.4,3-3.1,3c-18.5,0-37,0-55.5,0c-1.6,0-2.9-0.5-4.1-1.5
		c-15.6-13.6-31.3-27-46.9-40.6c-1.2-1.1-2.5-1.5-4.1-1.5c-4.3,0.1-8.5,0-12.8,0c-2.3,0-2.3,0-2.3-2.2c0-6.6,0-13.2,0-19.8
		c0-2.2,0-2.2,2.3-2.2c8.9,0,17.9,0,26.8,0c8,0,16.1,0,24.1,0c4.4,0,8.6-1,12.5-3.2c5.9-3.4,9.2-8.6,9.5-15.3
		c0.3-6.1,0.1-12.2,0.1-18.3c0-3.1-1.6-4.5-4.7-4.5c-7.6,0-15.3,0-22.9,0c-18.2,0-36.4,0-54.5,0c-2.9,0-2.7-0.3-2.7,2.8
		c0,34.4,0,68.9,0,103.3c0,3.5,0.4,3.1-3.1,3.1c-6.2,0-12.4,0-18.6,0c-2.9,0-2.5,0.2-2.5-2.7c0-6,0-11.9,0-17.9
		c0-33.3,0-66.6,0-99.9c0-2.7,0.5-5.3,2.1-7.6c2.3-3.4,5.4-5.2,9.5-5.3c0.4,0,0.8,0,1.2,0c30.6,0,61.1,0,91.7,0
		c6.4,0,12.2,1.6,17.4,5.4c6.7,5,10.5,11.9,11.2,20c0.8,9.3,1,18.7-0.3,27.9c-1.9,13-8.7,23-20,29.7c-6.7,4-14,6.1-21.7,6.6
		c-0.5,0-1,0.1-1.4,0.1C841.7,559.3,841.6,559.4,841.6,559.6z"/>
	<path fill="#28B17A" d="M-0.2,536.1c0-17.9,0-35.9,0-53.8c0-2.9,0.6-5.6,2.3-8c2.2-3.2,5.3-4.8,9.2-5c0.4,0,0.8,0,1.2,0
		c26.9,0,53.7-0.1,80.6,0.1c11,0.1,19.9,4.7,25.7,14.3c1.9,3.1,3.1,6.6,3.4,10.2c0.7,8.5,0.4,17-2.5,25.2c-1.3,3.7-3,7.1-5.1,10.3
		c-1,1.5-1,1.5,0.5,2.6c11.2,7.8,16.9,18.7,18,32.1c0.4,5.5,0.7,10.9-0.7,16.3c-2.7,11.1-9.5,18.4-20.6,21.4
		c-2.3,0.6-4.6,0.8-6.9,0.8c-30.9,0-61.8,0-92.6,0c-7.3,0-12.4-5.1-12.4-12.5C-0.2,572.1-0.2,554.1-0.2,536.1z M24.1,536
		c0,13.3,0,26.7,0,40c0,2.4,0,2.4,2.4,2.4c0.3,0,0.6,0,1,0c18.8,0,37.6,0,56.4,0c6.8,0,13.7,0,20.5,0c3.1,0,4.5-1.3,4.6-4.4
		c0.1-2.8,0.1-5.6-0.1-8.4c-0.6-7.6-5.6-13.9-12.8-16.2c-2.9-0.9-5.8-1.2-8.8-1.2c-16.9,0-33.8,0-50.7,0c-2.9,0-2.8,0.2-2.8-2.7
		c0-6.4,0-12.7,0-19.1c0-2.8-0.1-2.6,2.6-2.6c13.3,0,26.7,0,40,0c1.9,0,3.7-0.1,5.5-0.4c7.8-1.2,13.4-6.4,15.4-14.1
		c0.8-3.1,0.7-6.2,0.7-9.3c0.1-5.4-2.1-6.5-6.4-6.5c-21.6,0.1-43.3,0-64.9,0c-0.5,0-1,0-1.4,0c-0.9,0-1.3,0.3-1.3,1.3
		c0,0.6,0,1.1,0,1.7C24.1,509.6,24.1,522.8,24.1,536z"/>
	<path fill="#4D4D4D" d="M674.2,604.5c-6.4,0-7,0.2-13.4,0c-14.8-0.6-27.8-5.8-38.1-16.7c-8.6-9.1-13.3-20-14.5-32.4
		c-0.3-3.1-0.4-6.3-0.4-9.4c0-7.8-0.1-15.6,0-23.4c0.2-13.4,4.1-25.5,12.8-35.8c8.3-10,19.1-15.8,31.8-18.2c3.6-0.7,7.2-1,10.8-1
		c11.3,0,16.7,0,27.9,0c10.5,0,20.4,2.5,29.4,8c13.6,8.3,21.6,20.6,24.7,36.1c0.7,3.6,1,7.3,1,11c0,8.9,0,17.9,0,26.8
		c0,12.8-3.6,24.4-11.5,34.6c-8.4,10.8-19.5,17-32.8,19.6c-3.9,0.7-7.8,1-11.8,1c-5.3,0-5.9,0-11.2,0
		C678.9,604.5,674.2,604.5,674.2,604.5z M673.9,580.3c4.9,0,9.8,0,14.7,0c2.5,0,5,0,7.5-0.4c11.2-1.8,19.4-7.6,23.7-18.4
		c1.6-4.1,2.2-8.4,2.3-12.7c0-8,0-16.1,0-24.1c0-2.5-0.1-5-0.5-7.4c-2-11.5-8.2-19.5-19.2-23.6c-3.9-1.4-7.9-1.9-12.1-1.9
		c-10.2,0-14.6,0-24.8,0c-2.5,0-5,0-7.5,0.5c-11.8,2-20.2,8.3-24.2,19.8c-1.4,3.9-1.8,8-1.8,12.1c0,7.4,0,14.8,0,22.2
		c0,2.5,0.1,5,0.4,7.5c1.5,11.5,7.4,19.9,18.3,24.4c4.1,1.7,8.3,2.3,12.7,2.4C668.8,580.3,668.4,580.3,673.9,580.3z"/>
	<path fill="#28B17A" d="M322.6,493.5c0-7.2,0-14.3,0-21.5c0-2.9-0.2-2.7,2.7-2.7c47.3,0,94.6,0,141.9,0c2.6,0,5.1,0,7.7,0
		c1.2,0,1.8,0.3,1.7,1.6c-0.1,0.6,0,1.1,0,1.7c0,42.2,0,84.5,0,126.7c0,0.2,0,0.5,0,0.7c0,2.9,0.2,2.6-2.6,2.6c-6.4,0-12.7,0-19.1,0
		c-2.8,0-2.6,0.1-2.6-2.7c0-34.3,0-68.7,0-103c0-4,0.5-3.4-3.5-3.4c-15.1,0-30.2,0-45.4,0c-0.5,0-1,0-1.4,0c-1.8,0-1.8,0-1.8,1.9
		c0,5.6,0,11.3,0,16.9c0,29.1,0,58.2,0,87.4c0,3.3,0.4,2.9-3,2.9c-6.4,0-12.9,0-19.3,0c-1.9,0-1.9,0-1.9-1.8c0-0.6,0-1.1,0-1.7
		c0-34.2,0-68.4,0-102.6c0-3.4,0.4-3-3.1-3C356.2,493.5,339.4,493.5,322.6,493.5C322.6,493.5,322.6,493.5,322.6,493.5z"/>
	<path fill="#4D4D4D" d="M559.1,469.3c14.6,0,29.1,0,43.7,0c3,0,2.7-0.3,2.7,2.7c0,6.4,0,12.7,0,19.1c0,2.6,0.2,2.4-2.3,2.4
		c-8.5,0-17.1,0-25.6,0c-19.5,0-39.1,0-58.6,0c-7.3,0-10.5,3.1-10.5,10.4c0,21.5,0,43,0,64.4c0,0.9,0,1.8,0.2,2.6
		c0.8,4.6,3.8,7.2,8.5,7.4c0.8,0,1.6,0,2.4,0c27.7,0,55.3,0,83,0c3.3,0,2.9-0.4,3,2.9c0,6.4,0,12.7,0,19.1c0,2.2,0,2.2-2,2.2
		c-28.8,0-57.6,0.1-86.4,0c-15.7-0.1-28.7-10.7-32.1-25.7c-0.6-2.5-0.8-5.1-0.8-7.7c0-22-0.1-44.1,0.1-66.1
		c0.1-10.9,4.2-20.2,12.9-27.2c5.5-4.4,12-6.6,19-6.6c13.5-0.1,27-0.1,40.5-0.1C557.5,469.3,558.3,469.3,559.1,469.3z"/>
	<path fill="#28B17A" d="M144.8,504.1c8.1,2.9,15.7,2.7,23.9,0.3c0.5,1,0.3,1.8,0.3,2.6c0,31,0,61.9,0,92.9c0,0.4,0,0.8,0,1.2
		c0.1,1.2-0.4,1.5-1.5,1.5c-4.5,0-9,0-13.5,0c-2.6,0-5.1,0-7.7,0c-1,0-1.5-0.3-1.4-1.4c0-0.4,0-0.8,0-1.2c0-31.2,0-62.4,0-93.6
		C144.8,505.8,144.8,505.1,144.8,504.1z"/>
	<path fill="#28B17A" d="M249.4,602.5c-6.4,0-7,0.2-13.4,0c-14.8-0.6-27.8-5.8-38.1-16.7c-8.6-9.1-13.3-20-14.5-32.4
		c-0.3-3.1-0.4-6.3-0.4-9.4c0-7.8-0.1-15.6,0-23.4c0.2-13.4,4.1-25.5,12.8-35.8c8.3-10,19.1-15.8,31.8-18.2c3.6-0.7,7.2-1,10.8-1
		c11.3,0,16.7,0,27.9,0c10.5,0,20.4,2.5,29.4,8c13.6,8.3,21.6,20.6,24.7,36.1c0.7,3.6,1,7.3,1,11c0,8.9,0,17.9,0,26.8
		c0,12.8-3.6,24.4-11.5,34.6c-8.4,10.8-19.5,17-32.8,19.6c-3.9,0.7-7.8,1-11.8,1c-5.3,0-5.9,0-11.2,0
		C254.1,602.5,249.4,602.5,249.4,602.5z M249.1,578.3c4.9,0,9.8,0,14.7,0c2.5,0,5,0,7.5-0.4c11.2-1.8,19.4-7.6,23.7-18.4
		c1.6-4.1,2.2-8.4,2.3-12.7c0-8,0-16.1,0-24.1c0-2.5-0.1-5-0.5-7.4c-2-11.5-8.2-19.5-19.2-23.6c-3.9-1.4-7.9-1.9-12.1-1.9
		c-10.2,0-14.6,0-24.8,0c-2.5,0-5,0-7.5,0.5c-11.8,2-20.2,8.3-24.2,19.8c-1.4,3.9-1.8,8-1.8,12.1c0,7.4,0,14.8,0,22.2
		c0,2.5,0.1,5,0.4,7.5c1.5,11.5,7.4,19.9,18.3,24.4c4.1,1.7,8.3,2.3,12.7,2.4C244,578.4,243.6,578.3,249.1,578.3z"/>
	<circle fill="#28B17A" cx="158.5" cy="458" r="27.6"/>
	<circle fill="#28B17A" cx="251.9" cy="392" r="25.7"/>
	<circle fill="#28B17A" cx="346.4" cy="356.6" r="23.1"/>
	<circle fill="#28B17A" cx="447.5" cy="353.2" r="22.9"/>
	<circle fill="#28B17A" cx="538.7" cy="391" r="19.8"/>
	<circle fill="#28B17A" cx="605.5" cy="441.1" r="18.6"/>
	<circle fill="#28B17A" cx="676.8" cy="537.6" r="20.1"/>
	<circle fill="#28B17A" cx="759.3" cy="625.5" r="12.3"/>
	<circle fill="#28B17A" cx="811.8" cy="650.2" r="11.4"/>
	<circle fill="#28B17A" cx="868.3" cy="649.9" r="9.1"/>
	<circle fill="#28B17A" cx="913.8" cy="629.8" r="9"/>
	<circle fill="#28B17A" cx="943" cy="596.7" r="7.7"/>
</g>
<g id="Aciedo">
</g>
<g id="Aegis">
</g>
</svg>
