<?xml version="1.0" encoding="utf-8"?>
<!-- Generator: Adobe Illustrator 28.0.0, SVG Export Plug-In . SVG Version: 6.00 Build 0)  -->
<svg version="1.1" baseProfile="tiny" xmlns="http://www.w3.org/2000/svg" xmlns:xlink="http://www.w3.org/1999/xlink" x="0px"
	 y="0px" viewBox="0 0 1024 1024" overflow="visible" xml:space="preserve">
<g id="Temp_BG">
</g>
<g id="esperia">
</g>
<g id="grey_cat">
</g>
<g id="kruger">
	<g>
		<path d="M501.7,419.8h-10.8l-6.6,15.8l13.9-7.9h1.4l-7.9,40.1v238.6l20.6,30.4l20.3-30.4V409.7h-28.3L501.7,419.8z M508.5,423.6
			l-4.6-4.8h14.7L508.5,423.6z"/>
		<polygon points="543.1,466.7 548.4,466.7 548.4,598.9 574.7,638.9 574.7,466.6 582.5,466.6 582.5,632.6 608.9,593 608.9,466.6 
			616.7,466.6 616.7,581.3 643.1,541.8 643.1,466.6 650.9,466.6 650.9,530.1 676.7,491.5 676.7,466.9 693.5,466.9 710.8,440.8 
			550.2,440.8 		"/>
		<polygon points="314.9,440.8 332.1,466.9 348.9,466.9 348.9,491.5 374.7,530.1 374.7,466.6 382.5,466.6 382.5,541.8 408.9,581.3 
			408.9,466.6 416.7,466.6 416.7,593 443.1,632.6 443.1,466.6 451,466.6 451,638.9 477.2,598.9 477.2,466.7 482.5,466.7 
			475.4,440.8 		"/>
		<path d="M103.3,205l410.8,614l406.7-614H103.3z M513.9,793.3L128,216.5H896L513.9,793.3z"/>
		<path d="M185.3,246.8l70.8,106.4h511.8l70.8-106.4H185.3z M639.9,291h31.9v19.5h-31.9V291z M287.3,280.6v12.3v36.2v6.8v1.9h-25.9
			V264h25.9V280.6z M289.3,326.7v-36.2l21.9-26.5h29.9l-24.9,30.2l-17.5,21.2L289.3,326.7z M312,337.9l-12.5-21l17.5-21.2l25.1,42.2
			H312z M375.3,282.9v11.8v19v2.3v21.7h-25.9v-73.9h9.6h16.3V282.9z M401.5,337.7l-9.3-24h-14.9v-19h24v-11.8h-24v-19h38.3
			l11.1,12.3v21.1l-10.5,11.5l12.9,29H401.5z M473,337.7h-20h-5.5l-11.8-12.9v-61h25.9v52.8H473V337.7z M512,324.8l-11.8,12.9H495
			h-20v-21.1h11.1v-52.8H512V324.8z M560.7,337.7h-21h-6L522,324.8v-48.2l11.7-12.8h6.1h8.1h12.9v19.5h-12.9v34.9h12.9V337.7z
			 M601.5,324.9l-11.7,12.8h-6.2h-8h-13v-19.5h13v-6.3h-20.8v-18.6h20.8h8h17.9V324.9z M601.5,289.3h-25.9v-6h-13v-19.5h21v0h6.1
			l11.8,12.9V289.3z M637.9,337.7L637.9,337.7h-19.5H612v-73.9h25.9l0,0V337.7z M676.1,337.7h-36.2v-19.5h36.2V337.7z M676.1,283.3
			h-36.2v-19.5h36.2V283.3z M711.1,282.9v11.8v19v2.3v21.7h-25.9v-73.9h9.6h16.3V282.9z M737.3,337.7l-9.3-24h-14.9v-19h24v-11.8
			h-24v-19h38.3l11.1,12.3v21.1l-10.5,11.5l12.9,29H737.3z"/>
		<rect x="282.4" y="368.4" width="2.8" height="27.7"/>
		<polygon points="356.8,396.1 356.8,371.3 368,371.3 368,368.4 342.8,368.4 342.8,371.3 353.9,371.3 353.9,396.1 		"/>
		<polygon points="405.1,371.3 405.1,368.4 384.1,368.4 383,368.4 383,396.1 384.1,396.1 385.9,396.1 405.1,396.1 405.1,393.2 
			385.9,393.2 385.9,383.7 403.1,383.7 403.1,380.8 385.9,380.8 385.9,371.3 		"/>
		<polygon points="325.1,396.1 327.9,396.1 327.9,391.6 327.9,368.4 325.1,368.4 325.1,391.6 323.8,391.6 306.6,368.4 302.4,368.4 
			302.4,368.4 302.4,372.9 302.4,396.1 305.2,396.1 305.2,372.9 306.3,372.9 323.7,396.1 		"/>
		<path d="M421.8,368.4h-0.9v27.7h2.8v-11.7h14.9l4.8,11.7h3.1l-5-12.3l4.1-4.1v-6.4h0l0,0l-4.8-4.8l0,0v0H421.8z M442.7,374.4v4.1
			l-3.1,3.1h-15.9v-10.3h15.9L442.7,374.4z"/>
		<path d="M506.7,388.1h15.8l3.4,8h3.1l-11.8-27.7H512l-11.8,27.7h3.1L506.7,388.1z M513.8,371.2h1.5l6,14h-13.4L513.8,371.2z"/>
		<path d="M598.3,388.1l3.4,8h3.1L593,368.4h-5.2L576,396.1h3.1l3.4-8H598.3z M589.7,371.2h1.5l6,14h-13.4L589.7,371.2z"/>
		<polygon points="543.6,368.4 543.6,396.1 545,396.1 545,396.1 564.2,396.1 564.2,393.3 546.4,393.3 546.4,368.4 		"/>
		<rect x="699.2" y="368.4" width="2.8" height="27.7"/>
		<polygon points="673.1,396.1 673.1,371.3 684.2,371.3 684.2,368.4 659,368.4 659,371.3 670.2,371.3 670.2,396.1 		"/>
		<polygon points="461.9,392.3 461.9,392.3 461.9,392.3 461.9,392.4 462,392.4 465.7,396.1 465.7,396.1 482.5,396.1 482.5,396.1 
			486.2,392.4 486.3,392.4 486.3,381.8 485.4,381.8 483.4,381.8 473.1,381.8 473.1,384.7 483.4,384.7 483.4,391.2 481.4,393.2 
			466.8,393.2 464.8,391.2 464.8,373.3 466.8,371.2 481.4,371.2 483.4,373.3 483.4,376.4 486.3,376.4 486.3,372.2 486.2,372.2 
			486.3,372.1 482.5,368.4 482.5,368.4 465.7,368.4 465.7,368.4 461.9,372.1 461.9,372.2 461.9,372.2 		"/>
		<polygon points="738.4,368.4 738.3,368.4 721.6,368.4 721.5,368.4 717.8,372.1 717.8,372.2 717.8,372.2 717.8,392.4 717.8,392.4 
			717.8,392.4 717.8,392.4 717.8,392.4 721.5,396.1 721.6,396.1 738.3,396.1 738.4,396.1 742.1,392.4 742.1,392.4 742.1,388.2 
			739.3,388.2 739.3,391.2 737.2,393.3 722.7,393.3 720.6,391.2 720.6,373.3 722.7,371.2 737.2,371.2 739.3,373.3 739.3,376.4 
			742.1,376.4 742.1,372.2 742.1,372.2 742.1,372.1 		"/>
		<polygon points="619.8,392.4 619.8,392.4 619.8,392.4 619.8,392.4 619.9,392.4 623.6,396.1 623.6,396.1 640.4,396.1 640.4,396.1 
			644.1,392.4 644.2,392.4 644.2,388.2 641.3,388.2 641.3,391.2 639.3,393.3 624.7,393.3 622.7,391.2 622.7,373.3 624.7,371.2 
			639.3,371.2 641.3,373.3 641.3,376.4 644.2,376.4 644.2,372.2 644.2,372.2 644.2,372.1 640.4,368.4 640.4,368.4 623.6,368.4 
			623.6,368.4 619.8,372.1 619.9,372.2 619.8,372.2 		"/>
	</g>
</g>
<g id="misc">
</g>
<g id="tumbril">
</g>
<g id="Banu">
</g>
<g id="mirai">
</g>
<g id="Gatac">
</g>
<g id="Aopoa">
</g>
<g id="Argo">
</g>
<g id="Anvil_Aerospace">
</g>
<g id="Consolidated_Outland">
</g>
<g id="Shubin">
</g>
<g id="RSI">
</g>
<g id="Origin">
</g>
<g id="Misc">
</g>
<g id="Drake">
</g>
<g id="Curelife">
</g>
<g id="Crusader">
</g>
<g id="Bioticorp">
</g>
<g id="Aciedo">
</g>
<g id="Aegis">
</g>
</svg>
