<?xml version="1.0" encoding="utf-8"?>
<!-- Generator: Adobe Illustrator 28.0.0, SVG Export Plug-In . SVG Version: 6.00 Build 0)  -->
<svg version="1.1" baseProfile="tiny" xmlns="http://www.w3.org/2000/svg" xmlns:xlink="http://www.w3.org/1999/xlink" x="0px"
	 y="0px" viewBox="0 0 1024 1024" overflow="visible" xml:space="preserve">
<g id="Temp_BG">
</g>
<g id="esperia">
</g>
<g id="grey_cat">
</g>
<g id="kruger">
</g>
<g id="misc">
</g>
<g id="tumbril">
</g>
<g id="Banu">
</g>
<g id="mirai">
</g>
<g id="Gatac">
</g>
<g id="Aopoa">
</g>
<g id="Argo">
</g>
<g id="Anvil_Aerospace">
</g>
<g id="Consolidated_Outland">
</g>
<g id="Shubin">
</g>
<g id="RSI">
</g>
<g id="Origin">
</g>
<g id="Misc">
</g>
<g id="Drake">
</g>
<g id="Curelife">
</g>
<g id="Crusader">
</g>
<g id="Bioticorp">
</g>
<g id="Aciedo">
	<path fill="#7A7A7A" d="M270.6,537.7c0,3.6,0.5,7,1.5,10.2c-5.9,7.4-12.6,14.3-20,20.6l-9.4-19.8c11.7-10.8,21.1-23.6,28-37.6
		V537.7z"/>
	<path fill="#7A7A7A" d="M297.5,410.5c-6.6,1.1-12.4,4.1-17.4,9.1c-0.5,0.5-1,1-1.4,1.5c-15-53.8-64.4-93.4-122.9-93.4
		c-4.4,0-8.7,0.2-13,0.7c-1.1,0.1-2.1,0.2-3.2,0.4c-0.5,0.1-1.1,0.1-1.6,0.2c-1.6,0.2-3.2,0.5-4.7,0.8c-1.1,0.2-2.1,0.4-3.1,0.6
		C72.6,342.2,29,393.1,28.4,454c0,0.5,0,1.1,0,1.6c0.1,35.5,14.8,68.9,40.5,92.9l-9.4,19.8c-33.1-28.2-52.1-69-52.2-112.7
		c0-0.6,0-1.3,0-1.9c0.7-70.3,50.6-129.2,116.8-143.6c2.4-0.5,4.8-1,7.3-1.4c1.8-0.3,3.7-0.6,5.5-0.8c1.9-0.2,3.7-0.4,5.6-0.6
		c1.2-0.1,2.5-0.2,3.8-0.3c3.1-0.2,6.3-0.3,9.5-0.3C222.2,306.7,278.5,350.4,297.5,410.5z"/>
	<path fill="#7A7A7A" d="M252.7,455.7c0,23.6-8.5,46.1-24,63.8l-10.1-21.2c8.5-12.5,13.1-27.2,13.1-42.6c0-41.8-34-75.8-75.8-75.8
		s-75.8,34-75.8,75.8c0,15.2,4.5,29.8,12.9,42.2l-10.1,21.3c-15.4-17.6-23.8-40-23.8-63.5c0-53.4,43.4-96.8,96.8-96.8
		S252.7,402.3,252.7,455.7z"/>
	<path fill="#474747" d="M297.5,410.5c-6.6,1.1-12.4,4.1-17.4,9.1c-0.5,0.5-1,1-1.4,1.5c-15-53.8-64.4-93.4-122.9-93.4
		c-15.9,0-24.6,2.4-25.7,2.6C72.7,342.2,29.2,393,28.4,454c0,0.5,0,1.1,0,1.6h-21c0-0.6,0-1.3,0-1.9
		c0.9-70.4,50.7-129.1,116.8-143.6c2.4-0.5,14.8-3.4,31.7-3.4C222.2,306.7,278.5,350.4,297.5,410.5z"/>
	<path fill="#474747" d="M80.1,455.7h-21c0-53.4,43.4-96.8,96.8-96.8c25.9,0,50.2,10,68.4,28.1c18.3,18.2,28.4,42.4,28.4,68.3h-21
		c0-41.6-34-75.4-75.8-75.4C114.1,379.9,80.1,413.9,80.1,455.7z"/>
	<path fill="#333333" d="M430.9,444.8H305.2v91.1h125.7v34.8H303.6c-9.2,0-17-3.2-23.4-9.6c-6.4-6.4-9.6-14.2-9.6-23.4V443
		c0-9.2,3.2-17,9.6-23.4c6.4-6.4,14.2-9.6,23.4-9.6h127.3V444.8z"/>
	<path fill="#333333" d="M451.4,570.7V410h34.8v160.7H451.4z"/>
	<path fill="#333333" d="M656.3,410v34.8H542.9V473h91.3v34.8h-91.3v28.1h113.4v34.8H507.8V410H656.3z"/>
	<path fill="#333333" d="M678.8,410h127.5c9.2,0,17.1,3.2,23.6,9.7c6.5,6.5,9.7,14.3,9.7,23.3v94.7c0,9.1-3.2,16.9-9.7,23.3
		c-6.5,6.5-14.3,9.7-23.6,9.7H678.8V410z M713.5,444.8v91.1h91.1v-91.1H713.5z"/>
	<path fill="#333333" d="M893,410h94.7c9.1,0,16.9,3.2,23.3,9.7c6.5,6.5,9.7,14.3,9.7,23.3v94.7c0,9.1-3.2,16.9-9.7,23.3
		c-6.5,6.5-14.3,9.7-23.3,9.7H893c-9.2,0-17-3.2-23.4-9.6c-6.4-6.4-9.6-14.2-9.6-23.4V443c0-9.2,3.2-17,9.6-23.4
		C875.9,413.2,883.8,410,893,410z M894.5,444.8v91.1h91.1v-91.1H894.5z"/>
	<text transform="matrix(1.1 0 0 1 52.6987 696.1562)" fill="#333333" font-family="'Orbitron-Regular'" font-size="80.2082px">C</text>
	<text transform="matrix(1.1 0 0 1 137.5742 696.1562)" fill="#333333" font-family="'Orbitron-Regular'" font-size="80.2082px">o</text>
	<text transform="matrix(1.1 0 0 1 210.9795 696.1562)" fill="#333333" font-family="'Orbitron-Regular'" font-size="80.2082px">m</text>
	<text transform="matrix(1.1 0 0 1 308.4736 696.1562)" fill="#333333" font-family="'Orbitron-Regular'" font-size="80.2082px">m</text>
	<text transform="matrix(1.1 0 0 1 407.1133 696.1562)" fill="#333333" font-family="'Orbitron-Regular'" font-size="80.2082px">u</text>
	<text transform="matrix(1.1 0 0 1 481.2241 696.1562)" fill="#333333" font-family="'Orbitron-Regular'" font-size="80.2082px">n</text>
	<text transform="matrix(1.1 0 0 1 554.9834 696.1562)" fill="#333333" font-family="'Orbitron-Regular'" font-size="80.2082px">i</text>
	<text transform="matrix(1.1 0 0 1 584.3633 696.1562)" fill="#333333" font-family="'Orbitron-Regular'" font-size="80.2082px">c</text>
	<text transform="matrix(1.1 0 0 1 658.0332 696.1562)" fill="#333333" font-family="'Orbitron-Regular'" font-size="80.2082px">a</text>
	<text transform="matrix(1.1 0 0 1 731.6152 696.1562)" fill="#333333" font-family="'Orbitron-Regular'" font-size="80.2082px">t</text>
	<text transform="matrix(1.1 0 0 1 780.5801 696.1562)" fill="#333333" font-family="'Orbitron-Regular'" font-size="80.2082px">i</text>
	<text transform="matrix(1.1 0 0 1 811.2832 696.1562)" fill="#333333" font-family="'Orbitron-Regular'" font-size="80.2082px">o</text>
	<text transform="matrix(1.1 0 0 1 883.3652 696.1562)" fill="#333333" font-family="'Orbitron-Regular'" font-size="80.2082px">n</text>
	<text transform="matrix(1.1 0 0 1 957.125 696.1562)" fill="#333333" font-family="'Orbitron-Regular'" font-size="80.2082px">s</text>
	<path fill="#333333" d="M58.5,570.5l-0.1,0.2h48.7l48.6-112.2l48.7,112.2h48.7l-0.1-0.2l-76.1-159.3h-42.7L58.5,570.5z"/>
</g>
<g id="Aegis">
</g>
</svg>
