<?xml version="1.0" encoding="utf-8"?>
<!-- Generator: Adobe Illustrator 28.0.0, SVG Export Plug-In . SVG Version: 6.00 Build 0)  -->
<svg version="1.1" baseProfile="tiny" xmlns="http://www.w3.org/2000/svg" xmlns:xlink="http://www.w3.org/1999/xlink" x="0px"
	 y="0px" viewBox="0 0 1024 1024" overflow="visible" xml:space="preserve">
<g id="Temp_BG">
</g>
<g id="esperia">
</g>
<g id="grey_cat">
</g>
<g id="kruger">
</g>
<g id="misc">
</g>
<g id="tumbril">
</g>
<g id="regal">
	<path id="opacity:100_colorstyle:Selected_00000005952697326599182130000013194256872906427060_" fill="#A68859" d="M193.1,774.9
		v5.3h-26.8v-48.5h5.6v43.3H193.1z M248.7,760.2v-28.5h-5.6v28.5c0,9.5-5.6,14.9-14.8,14.9s-14.9-5.4-14.9-14.9v-28.5h-5.6v28.5
		c0,12.5,7.7,20.2,20.5,20.2C241,780.4,248.7,772.9,248.7,760.2L248.7,760.2z M288.1,754.9l16.5-23.2h-6.4l-13.6,18.7l-13.4-18.7
		h-6.4l16.6,23.5l-17.8,25h6.6l14.6-20.4l14.8,20.4h6.6L288.1,754.9z M362,760.2v-28.5h-5.6v28.5c0,9.5-5.6,14.9-14.8,14.9
		c-9.2,0-14.9-5.4-14.9-14.9v-28.5h-5.6v28.5c0,12.5,7.7,20.2,20.5,20.2C354.2,780.4,362,772.9,362,760.2L362,760.2z M414.1,780.1
		h6.4l-11.3-16.5c7-2.3,10.9-7.7,10.9-15.7c0-10.3-7.1-16.3-19.2-16.3h-18.4v48.6h5.6V765h12.8c1.2,0,2.3-0.2,3.3-0.2L414.1,780.1z
		 M400.9,759.3h-12.8v-22.5h12.8c8.7,0,13.7,3.8,13.7,11.2c0,7.5-5,11.5-13.7,11.5V759.3z M456,780.1v-16.7l18.5-31.9h-5.8
		l-15.5,25.4l-15.7-25.4h-5.8l18.8,32.1v16.5H456L456,780.1z M546.7,780.1h6.4l-11.3-16.5c7-2.3,10.9-7.7,10.9-15.7
		c0-10.3-7.1-16.3-19.2-16.3h-18.4v48.6h5.4V765h13c1.2,0,2.3-0.2,3.3-0.2L546.7,780.1z M533.5,759.4v-0.2h-13v-22.5h12.9
		c8.7,0,13.7,3.8,13.7,11.2C547.1,755.5,542.1,759.4,533.5,759.4L533.5,759.4z M577.6,736.8H605v-5.3h-32.9v48.5h33.8v-5.3h-28.3
		v-16.6H602v-5.3h-24.4V737V736.8z M664.3,780.1v-48.5h-5.4v39l-29.1-39H624v48.5h5.6v-38.9l29.1,38.9H664.3z M716.8,737v-5.3h-37.2
		v5.3h15.9v43.1h5.6V737H716.8z M758,767.9l5.4,12.2h6l-21.7-48.5h-5.8l-21.7,48.5h5.9l5.4-12.2H758z M755.5,762.5h-21.7l10.9-24.6
		L755.5,762.5z M789.5,774.9v-43.3h-5.6v48.5h26.8v-5.3H789.5z M840.9,731.2c-9.9,0-16.7,4.8-16.7,12.6c0,9,7.3,11.5,14.3,13.6
		c6.6,2,13,3.6,13,9.8c0,4.7-4.3,7.5-11.3,7.5c-5.4,0-11.6-2.5-16.1-7l-2.5,5c4.6,4.3,11.5,7.4,18.6,7.4c10.3,0,17.5-5.1,17.5-13.2
		c0-9-7.2-11.6-14.2-13.8c-6.6-2-13.1-3.6-13.1-9.7c0-4.1,4.2-6.4,10.4-6.4c3.9,0,9,1.2,13.4,4.1l2.4-5.1
		C852.5,733.2,846.8,731.5,840.9,731.2z M498.9,390.3l-66.4-66.4L295.6,461.1h132.5L498.9,390.3z M596,461.1h132.5L512,244
		l-66.5,66.7L596,461.1z"/>
	<path id="opacity:100_colorstyle:Bright_00000121979708371249979390000004619793549856890544_" fill="#2E2F66" d="M263.2,536.9
		h76.2v13h-62.9v41.6h62.3v13h-62.3v52.2h62.3v13h-75.6L263.2,536.9L263.2,536.9z M534.9,539.5c-9.9-4.1-20.5-6-31.8-6
		c-13.9,0-26.4,3.1-37.4,9.2c-11,6.1-19.6,14.6-26,25.4c-6.4,10.9-9.5,22.6-9.5,35.1c0,16.9,5.6,31.8,16.6,44.6
		c14.3,16.7,33.8,25,58.4,25c20.3,0,36.4-6,48.4-18.1c12-12,18.1-28.3,18.2-48.9h-57.2v12.8h42.4c-1.6,12.4-7.2,22.3-16.7,30
		c-9.5,7.7-21,11.6-34.7,11.6c-11.3,0-21.5-2.6-31-7.7c-9.3-5.2-16.7-12.2-22.1-21.3c-5.3-9.1-8-18.6-8-28.5c0-9.8,2.6-19,7.7-27.7
		c5.2-8.7,12.6-15.6,21.9-20.8c9.3-5.2,19.3-7.7,29.7-7.7c8.5,0,17,1.8,25.8,5.6c8.7,3.8,16.9,9.4,24.3,16.6l10.3-9.8
		C554.8,550.2,545,543.7,534.9,539.5z M725.5,537h-3.1l-62.8,132.8h14.8L695,626h57.2l21,43.8h14.3L725.5,537L725.5,537z
		 M746.5,613.1h-45.4l22.7-47.9L746.5,613.1z M881.9,536.9v132.7h64.4v-12.8h-51.1V536.9H881.9L881.9,536.9z M77.7,669.8H91V549H114
		c11.2,0,18.2,0.9,26,5c8.7,4.3,14.5,15,14.5,25.4c0,11.9-7.4,24.1-21.9,28.2c-5.9,1.8-11.6,2-28.5,2l45.1,60.2h16.7l-37.6-49.7
		c25.6-1.6,39.5-21.2,39.5-40.4c0-16.3-8.7-30.9-23.7-37.8c-6.2-2.9-14.9-5-32.7-5H77.7V669.8z M569.6,461.1L512,403.5l-57.6,57.6
		H569.6z"/>
</g>
<g id="traveler">
</g>
<g id="vantage">
</g>
<g id="Banu">
</g>
<g id="mirai">
</g>
<g id="Gatac">
</g>
<g id="Aopoa">
</g>
<g id="Argo">
</g>
<g id="Anvil_Aerospace">
</g>
<g id="Consolidated_Outland">
</g>
<g id="Shubin">
</g>
<g id="RSI">
</g>
<g id="Origin">
</g>
<g id="Misc">
</g>
<g id="Drake">
</g>
<g id="Curelife">
</g>
<g id="Crusader">
</g>
<g id="Bioticorp">
</g>
<g id="Aciedo">
</g>
<g id="Aegis">
</g>
</svg>
