<?xml version="1.0" encoding="utf-8"?>
<!-- Generator: Adobe Illustrator 28.0.0, SVG Export Plug-In . SVG Version: 6.00 Build 0)  -->
<svg version="1.1" baseProfile="tiny" xmlns="http://www.w3.org/2000/svg" xmlns:xlink="http://www.w3.org/1999/xlink" x="0px"
	 y="0px" viewBox="0 0 1024 1024" overflow="visible" xml:space="preserve">
<g id="Temp_BG">
</g>
<g id="esperia">
	<g>
		<g>
			<path d="M385.4,814.7c-5.6,0-11.1,0-16.7,0c-6.2,0-10.8-4.6-10.8-10.8c0-1.1,0-2.2,0-3.4c0-0.5,0.1-0.7,0.7-0.7
				c2.9,0,5.8,0,8.7,0c0.7,0,0.7,0.3,0.7,0.8c0,1,0,1.9,0,2.9c-0.1,0.9,0.3,1.1,1.1,1.1c4.1,0,8.1,0,12.2,0c6.7,0,13.3,0,20,0
				c1.1,0,1.5-0.2,1.5-1.4c-0.1-3.2-0.1-6.5,0-9.7c0-1-0.3-1.3-1.3-1.3c-10.8,0-21.5,0-32.3,0c-3.3,0-6.1-0.9-8.4-3.4
				c-1.8-2-2.8-4.3-2.8-7c0-4,0-8,0-12c0-5.4,4.7-10.2,10.2-10.3c11.5,0,23,0,34.5,0c5.5,0,10.1,4.7,10.3,10.6c0,1.2,0,2.4,0,3.6
				c0,0.6-0.2,0.7-0.7,0.7c-2.9,0-5.9,0-8.8,0c-0.5,0-0.7-0.2-0.7-0.7c0-0.9,0-1.9,0-2.8c0.1-1-0.3-1.3-1.3-1.3
				c-7.2,0-14.4,0-21.6,0c-3.6,0-7.2,0-10.7,0c-1,0-1.2,0.3-1.2,1.2c0,3.2,0.1,6.5,0,9.7c0,1.1,0.3,1.5,1.4,1.4
				c10.8,0,21.6,0,32.4,0c5.4,0,9.5,3.1,10.8,8.1c0.1,0.4,0.2,0.8,0.2,1.2c0.2,4.8,0.4,9.6-0.1,14.4c-0.5,4.9-5.2,8.8-10.1,8.8
				C396.9,814.7,391.2,814.7,385.4,814.7z"/>
			<path d="M618.1,795.8c4.1,4.8,7.9,9.5,11.8,14.1c0.3,0.4,0.6,0.8,0.9,1.1c1.1,0.9,0.9,2.1,0.9,3.3c0,0.5-0.3,0.4-0.6,0.4
				c-3.3,0-6.6,0-9.9,0c-0.6,0-0.8-0.4-1-0.7c-4.9-5.8-9.8-11.6-14.7-17.4c-0.5-0.5-0.9-0.8-1.6-0.8c-5.3,0-10.7,0-16,0
				c-0.9,0-1.1,0.3-1.1,1.1c0,5.6,0,11.2,0,16.8c0,0.9-0.2,1-1,1c-2.7-0.1-5.4,0-8.2,0c-0.7,0-0.9-0.1-0.9-0.9c0-17.7,0-35.4,0-53.1
				c0-0.8,0.2-1,1-1c14.5,0,29,0,43.5,0c5.9,0,10.6,4.8,10.6,10.7c0,4.8,0,9.7,0,14.5c0,6-4.7,10.7-10.7,10.8
				C620.1,795.9,619.2,795.8,618.1,795.8z M604.3,769.8c-5.4,0-10.9,0-16.3,0c-0.9,0-1.2,0.3-1.2,1.2c0,4.5,0.1,8.9,0,13.4
				c0,1.2,0.4,1.4,1.4,1.4c10.7,0,21.3,0,32,0c1.3,0,1.4-0.1,1.4-1.5c0-4.3,0-8.6,0-13c0-1.5-0.1-1.5-1.5-1.5
				C614.8,769.8,609.6,769.8,604.3,769.8z"/>
			<path d="M736.2,791.6c0,7.4,0,14.8,0,22.1c0,0.8-0.2,1-1,1c-2.7-0.1-5.4-0.1-8,0c-0.8,0-1.1-0.1-1.1-1.1c0.1-5.4,0-10.9,0-16.3
				c0-0.9-0.3-1.2-1.2-1.2c-10.8,0-21.6,0-32.4,0c-1.1,0-1.3,0.4-1.2,1.3c0,5.4,0,10.8,0,16.2c0,0.9-0.2,1-1,1c-2.7-0.1-5.4,0-8.2,0
				c-0.7,0-0.9-0.1-0.9-0.9c0-14.6,0-29.1,0-43.7c0-5.9,4.8-10.4,10.7-10.4c11.2,0,22.4,0,33.5,0c6.1,0,10.8,4.7,10.8,10.7
				C736.2,777.5,736.2,784.5,736.2,791.6z M708.6,786.1c5.5,0,11,0,16.4,0c0.8,0,1.1-0.1,1.1-1c-0.1-4.7-0.1-9.3,0-14
				c0-1.1-0.4-1.4-1.4-1.4c-10.7,0-21.3,0-32,0c-1.4,0-1.4,0-1.4,1.4c0,4.6,0,9.2,0,13.9c0,0.9,0.2,1,1,1
				C697.7,786.1,703.2,786.1,708.6,786.1z"/>
			<path d="M287.8,787.1c0-8.8,0-17.6,0-26.4c0-0.8,0.1-1.1,1-1.1c16.2,0,32.4,0,48.6,0c0.8,0,1,0.2,1,1c-0.1,2.7-0.1,5.4,0,8
				c0,0.8-0.2,1.1-1.1,1.1c-12.7,0-25.4,0-38.1,0c-1.1,0-1.3,0.3-1.3,1.3c0.1,3.4,0.1,6.7,0,10.1c0,0.9,0.2,1,1.1,1
				c10.1,0,20.2,0,30.3,0c1,0,1.3,0.2,1.3,1.3c-0.1,2.6-0.1,5.2,0,7.8c0,0.9-0.2,1.1-1.1,1.1c-10.1,0-20.1,0-30.2,0
				c-1.1,0-1.4,0.2-1.3,1.3c0.1,3.3,0.1,6.6,0,9.8c0,1,0.2,1.2,1.2,1.2c12.7,0,25.3,0,38-0.1c1.1,0,1.3,0.3,1.2,1.3
				c-0.1,2.7,0,5.4,0,8c0,0.6-0.2,0.8-0.8,0.8c-16.3,0-32.6,0-49,0c-0.9,0-0.8-0.4-0.8-1C287.8,804.9,287.8,796,287.8,787.1z"/>
			<path d="M506.2,787.1c0-8.8,0-17.6,0-26.4c0-0.8,0.2-1,1-1c16.2,0,32.4,0,48.6,0c0.8,0,1,0.1,1,1c-0.1,2.7-0.1,5.4,0,8.2
				c0,0.9-0.3,1-1.1,1c-12.7,0-25.5,0-38.2,0c-1,0-1.2,0.2-1.2,1.2c0.1,3.3,0.1,6.6,0,9.9c0,0.9,0.2,1.2,1.2,1.2
				c10.1,0,20.1,0,30.2-0.1c1,0,1.3,0.2,1.2,1.2c-0.1,2.5-0.1,5,0,7.5c0,1.1-0.2,1.5-1.4,1.5c-10-0.1-20,0-30-0.1
				c-1,0-1.2,0.2-1.2,1.2c0.1,3.3,0.1,6.6,0,9.8c0,1,0.2,1.4,1.3,1.4c12.7,0,25.3,0,38-0.1c1,0,1.2,0.3,1.2,1.2c-0.1,2.7,0,5.4,0,8
				c0,0.7-0.1,0.9-0.9,0.9c-16.3,0-32.6,0-48.9,0c-0.9,0-0.9-0.3-0.9-1C506.2,804.8,506.2,796,506.2,787.1z"/>
			<path d="M433.4,787.2c0-8.8,0-17.6,0-26.4c0-0.9,0.2-1.1,1.1-1.1c14.4,0,28.8,0,43.1,0c6,0,10.8,4.7,10.8,10.7
				c0,4.8,0,9.7,0,14.5c0,6-4.5,10.6-10.5,10.8c-0.1,0-0.3,0-0.4,0c-11,0-21.9,0.1-32.9,0c-0.9,0-1.2,0.2-1.1,1.1
				c0,5.5,0,11.1,0,16.6c0,0.8-0.2,1-1,1c-2.6-0.1-5.3-0.1-7.9,0c-0.9,0-1.2-0.2-1.2-1.1C433.4,804.8,433.4,796,433.4,787.2z
				 M460.9,769.8c-5.4,0-10.7,0-16.1,0c-0.9,0-1.3,0.2-1.3,1.3c0,4.5,0,9,0,13.5c0,1,0.4,1.2,1.3,1.2c10.8,0,21.5,0,32.3,0
				c1,0,1.3-0.4,1.3-1.3c0-4.4,0-8.8,0-13.2c0-1.4,0-1.5-1.5-1.5C471.4,769.8,466.1,769.8,460.9,769.8z"/>
			<path d="M652.1,787.1c0-8.8,0-17.6,0-26.4c0-0.9,0.2-1.1,1.1-1.1c2.6,0.1,5.3,0.1,7.9,0c0.9,0,1.2,0.2,1.1,1.1
				c0,16.1,0,32.1,0,48.2c0,1.6,0,3.3,0,4.9c0,0.6-0.2,0.8-0.8,0.8c-2.8,0-5.6,0-8.4,0c-0.8,0-1-0.2-1-1
				C652.1,804.9,652.1,796,652.1,787.1z"/>
		</g>
		<g>
			<path d="M501.8,692.4c4.3-2.5,7.1-4,9.7-5.7c14.5-9.8,19.5-23.7,12.7-39.8c-4.3-10.1-10.8-19.4-16.3-29c-0.4-0.8-1.3-1.3-2.1-1.8
				c-28.1-18-41.8-44.9-47.1-76.8c0-0.2-0.2-0.3-0.3-0.4c-10.4,3.1-12.8,12-9.5,37.1c-10.8-6.6-17.5-15.6-20.4-27.3
				c-3.9-16,0-31.1,7.1-45.4c6.6-13.3,2.4-10.4,17.6-9.6c3.3,0.2,6.6,0.8,10.4,1.3c-4.5-4.7-8.4-9.1-12.6-13.2
				c-6.2-6.1-12.5-12-18.9-17.8c-1.5-1.4-3.9-2.7-5.8-2.6c-30.7,1.8-59,10.2-81.9,31.9c-20.9,19.9-29.2,45.4-29.7,73.4
				c-0.3,15.7,1.8,31.4,2.8,46.8c-8.6-4.5-18.2-9.3-27.6-14.6c-1.3-0.8-2-3.7-2-5.7c-0.1-41.4-0.1-82.9-0.1-124.3
				c0-23.5,0.2-47.1-0.2-70.6c-0.1-5.8,1.9-7.3,7.2-7.9c48.2-5.3,91.3,7.4,129.8,36.6c0.9,0.7,1.7,1.4,3,2.4
				c-6-13.6-35.1-38.4-61.7-52.6c-24.3-13-49.8-22.1-77.6-25.7c0-47,0-93.9,0-141.4c1.7-0.1,3.7-0.3,5.7-0.3
				c62.5,0,125.1-0.1,187.6,0.1c3.3,0,7,1.3,9.8,3.2c25.3,17.2,48.7,36.7,70.8,57.8c2.3,2.2,4.6,4.4,7.3,6.3
				c-8.3-25.8-22.4-47.9-43.7-67.4c8.4,0,15.1,0,21.8,0c29.1,0,29.1,0,51.9,17.6c19.3,15,34.7,33.5,46.3,54.9
				c10.7,19.8,10,41.2,4.8,62.2c-2.8,11.3-8.6,21.9-12.8,33c-0.7,1.7-0.7,4.5,0.2,5.9c8.8,13.4,16.6,27.7,27.3,39.3
				c6.6,7.1,4.7,12.5,2,18.4c-4.1,8.9-2.2,15.2,3.7,22.7c15.2,18.9,29.3,38.7,44.1,58c2.6,3.4,2.9,6,0.4,9.4
				c-7.2,9.8-14.2,19.7-21.2,29.6c-1-0.1-1.9-0.2-2.9-0.3c-0.9-2.2-2.5-4.3-2.7-6.5c-0.4-5.8-0.6-11.7,0-17.5
				c0.5-5.2-1.5-7.7-6.3-8.6c-1.1-0.2-2.1-0.7-3.1-1c-7.7,15.2-0.5,28.2,6.3,40.9c-16.5,14.7-51.8,27.8-69.2,25.7
				c0.3-3.8,0.7-7.7,1.2-12.7c-10.2,4.6-19.7,8.9-29.2,13.1c8.3-10.7,8.2-23.7,10.6-36.1c3.1-15.8-12.8-35.6-31.5-34.8
				c-15.1,0.6-27.4,7.4-38.4,17.1c-1,0.9-1.8,2.5-2.1,3.8c-4.5,19.4,0.2,36.1,14.6,50c3.7,3.5,7.8,3.4,12.1,2.3
				c6.7-1.8,13.3-3.9,20-5.9c1.4-0.4,2.8-0.8,5.3-1.5c-2.4,5.6-4.4,10.3-6.7,15.5c12.9,1.7,25.1,3.4,38.3,5.1
				c-1.5,1.7-2.4,2.9-3.5,4.1c-12.8,13.5-25.8,26.9-38.4,40.6c-16.3,17.5-34.3,32.2-58.3,37.8c-1.5,0.3-2.9,0.6-4.4,0.8
				C505.3,692.3,504.4,692.3,501.8,692.4z M531.9,341.4c-2.1-1.9-3.6-3.5-5.3-4.9c-12.3-10.1-24.5-20.5-37.2-30.1
				c-5.3-4-11.7-6.9-18-9.1c-8.2-2.9-13.2,0.5-14.3,9.1c-0.6,4.6-1.2,9.5-0.4,14c3.9,21,8.2,42,12.4,62.9c0.6,2.9,1.6,5.7,2.5,8.6
				c0-20.4-0.2-40.5,0.2-60.5c0.1-4,2.4-7.9,3.6-11.9c3.6,1.9,7.8,3.1,10.6,5.7c13.2,12.3,26.1,24.9,38.9,37.6
				c4.6,4.5,8.8,9.4,14.2,15.2c1.8-19.3,3.5-37.2,5.2-55c-0.4-0.1-0.8-0.1-1.2-0.2C539.4,328.9,535.8,335,531.9,341.4z M635.4,477.9
				c0.3-0.2,0.7-0.5,1-0.7c-5.8-10-11.6-19.9-17.5-30c3.4-3.2,6.5-6,10.3-9.6c-17.9-6.2-34.6-11.9-51.2-17.6
				c-0.4,0.7-0.7,1.4-1.1,2.1C596.4,440.6,615.9,459.2,635.4,477.9z"/>
			<path d="M501.1,732.6c78.8-58.9,156.7-117,235.2-175.6c0,59,0,117.1,0,175.6C658.4,732.6,580.4,732.6,501.1,732.6z"/>
			<path d="M427.6,479.8c-6,7.3-12.7,14.2-17.7,22.1c-10.2,16.2-10.3,33.8-4.6,51.7c7.7,24,22.6,42,45,54.1
				c8.8,4.8,17.5,10.5,24.7,17.4c10.9,10.3,14.8,23.8,12.5,38.7c-2,13.2-7.8,24.6-17.1,34.5c0.4-1.6,0.9-3.1,1.3-4.7
				c0.4-1.6,0.9-3.3,1.3-4.9c4.5-20.2-7.6-40.2-27.3-45.5c-14.3-3.8-37.6,5-39.7,25.5c-1.5,14.6-2.2,29.3-3.5,43.9
				c-0.6,6.7-1.8,13.3-2.7,20.1c-4.5,0-8.4,0-11.1,0c0.3-11.9,1.7-23.6,0.8-35.1c-1.5-18.8-10.8-34.6-21.7-49.5
				c-4.2-5.8-8.6-11.5-13.6-16.6c-26.4-26.8-27.7-71.3-11.4-100.9c15.6-28.2,40.6-42.4,71.2-48.5
				C418.8,481.1,423.7,480.5,427.6,479.8z"/>
			<path d="M736.2,498.4c-19-29.3-37.2-57.3-55.4-85.4c-5.4-8.4-11-16.6-16.1-25.2c-1.1-1.8-1.5-5.1-0.6-6.9
				c23.4-47.2,47.1-94.2,70.7-141.3c0.2-0.4,0.6-0.8,1.5-1.9C736.2,324.6,736.2,410.8,736.2,498.4z"/>
			<path d="M379.7,732.7c-30.8,0-61,0-91.5,0c0-38.3,0-76.4,0-115.2c1.5,0.7,2.8,1.1,4,1.9c14.4,8.8,29.1,17.3,43.2,26.6
				c25.2,16.6,37.6,41.2,42.3,70.3C378.6,721.6,379,727,379.7,732.7z"/>
			<path d="M682.7,295.4c-21-28.8-41.4-56.8-62.4-85.6c35.4,0,70,0,105.3,0C711.3,238.3,697.2,266.5,682.7,295.4z"/>
		</g>
	</g>
</g>
<g id="grey_cat">
</g>
<g id="kruger">
</g>
<g id="misc">
</g>
<g id="tumbril">
</g>
<g id="Banu">
</g>
<g id="mirai">
</g>
<g id="Gatac">
</g>
<g id="Aopoa">
</g>
<g id="Argo">
</g>
<g id="Anvil_Aerospace">
</g>
<g id="Consolidated_Outland">
</g>
<g id="Shubin">
</g>
<g id="RSI">
</g>
<g id="Origin">
</g>
<g id="Misc">
</g>
<g id="Drake">
</g>
<g id="Curelife">
</g>
<g id="Crusader">
</g>
<g id="Bioticorp">
</g>
<g id="Aciedo">
</g>
<g id="Aegis">
</g>
</svg>
