<?xml version="1.0" encoding="utf-8"?>
<!-- Generator: Adobe Illustrator 28.0.0, SVG Export Plug-In . SVG Version: 6.00 Build 0)  -->
<svg version="1.1" baseProfile="tiny" xmlns="http://www.w3.org/2000/svg" xmlns:xlink="http://www.w3.org/1999/xlink" x="0px"
	 y="0px" viewBox="0 0 1024 1024" overflow="visible" xml:space="preserve">
<g id="Temp_BG">
</g>
<g id="esperia">
</g>
<g id="grey_cat">
</g>
<g id="kruger">
</g>
<g id="misc">
</g>
<g id="tumbril">
</g>
<g id="Banu">
</g>
<g id="mirai">
</g>
<g id="Gatac">
</g>
<g id="Aopoa">
</g>
<g id="Argo">
</g>
<g id="Anvil_Aerospace">
</g>
<g id="Consolidated_Outland">
</g>
<g id="Shubin">
	<g id="Shubin_00000160892693597225055800000009942112743170151071_">
		<g id="Logo_00000008842638458276354190000014405235124760581009_">
			<path d="M358.4,507.7h-3.8v-0.3c-3.4,0-6-2.8-6-6c0-3.4,2.6-6,6-6h3.7c0.6,0,1.5-0.2,2.5-1.3c-0.8-19.3-4.6-37.7-10.9-55
				c-0.8-0.3-1.5-0.5-2-0.5c-0.4,0-0.7,0.1-1,0.2l-3.5,1.4c-3.1,1.3-6.6-0.1-7.8-3.3c-1.3-3,0.2-6.6,3.3-7.8l3.5-1.4
				c0.5-0.3,1.3-0.8,1.8-2.3c-3.9-8.4-8.5-16.4-13.6-23.9c-5.1-7.6-10.8-14.7-16.9-21.4c-1.5,0-2.5,0.5-2.9,0.8l-2.6,2.6
				c-2.3,2.3-6.2,2.3-8.6,0c-2.4-2.3-2.4-6.2,0-8.6l2.6-2.6c0.4-0.4,0.9-1.2,0.9-2.9c-13.8-12.6-29.5-23.1-46.6-31.1
				c-1.4,0.6-2,1.4-2.2,1.9l-1.4,3.5c-1.2,3.1-4.8,4.6-7.9,3.3c-3.1-1.2-4.6-4.8-3.3-7.8l1.4-3.5c0.2-0.6,0.3-1.5-0.3-3
				c-8.4-3.1-17.1-5.5-26.1-7.2c-9-1.8-18.2-2.8-27.5-3.3c-1.1,1.1-1.3,2-1.3,2.5v3.8c0,3.4-2.7,6-6,6c-3.4,0-6-2.8-6-6v-3.8
				c0-0.6-0.3-1.5-1.4-2.5c-19.3,0.8-37.7,4.6-55,10.9c-0.3,0.8-0.5,1.5-0.5,2c0,0.4,0.1,0.7,0.2,1l1.4,3.5c1.3,3.1-0.2,6.6-3.3,7.9
				c-3.1,1.3-6.6-0.1-7.8-3.3l-1.4-3.5c-0.2-0.5-0.8-1.3-2.3-1.8c-8.4,3.9-16.4,8.5-23.9,13.6c-7.6,5.1-14.8,10.8-21.4,16.9
				c0,1.5,0.5,2.3,0.8,2.8l2.7,2.7c2.3,2.3,2.3,6.1,0,8.6c-2.3,2.3-6.2,2.3-8.6,0l-2.7-2.7c-0.4-0.4-1.2-0.9-2.9-0.8
				c-12.6,13.8-23.1,29.5-31.1,46.6c0.6,1.4,1.3,2,1.9,2.2l3.5,1.4c3,1.2,4.6,4.8,3.3,7.9c-1.2,3.1-4.8,4.6-7.9,3.3l-3.5-1.4
				c-0.5-0.2-1.5-0.3-3,0.3c-3.1,8.4-5.5,17.1-7.2,26.1c-1.8,9-2.9,18.2-3.3,27.5c1.1,1.1,2,1.3,2.5,1.3H9c3.4,0,6,2.7,6,6
				c0,3.4-2.8,6-6,6H5.3c-0.6,0-1.5,0.2-2.5,1.3c0.8,19.3,4.6,37.7,10.9,55c0.8,0.3,1.5,0.5,2,0.5c0.4,0,0.7-0.1,0.9-0.2l3.4-1.1
				c3.1-1.3,6.6,0.2,7.9,3.3c1.3,3.1-0.2,6.6-3.3,7.8l-3.5,1.4c-0.5,0.3-1.3,0.8-1.8,2.3c7.8,16.7,18.1,32,30.5,45.4
				c1.5,0,2.3-0.5,2.9-0.8l2.7-2.7c2.3-2.3,6.2-2.3,8.6,0c2.3,2.3,2.3,6.1,0,8.6l-2.7,2.7c-0.4,0.4-0.9,1.2-0.8,2.8
				c13.8,12.6,29.5,23.1,46.6,31.1c1.4-0.6,2-1.4,2.2-1.9l1.4-3.5c1.2-3.1,4.8-4.6,7.9-3.3c3.1,1.2,4.6,4.8,3.3,7.8l-1.4,3.5
				c-0.2,0.5-0.3,1.5,0.3,3c8.4,3.1,17.1,5.5,26.1,7.2c9,1.8,18.2,2.8,27.5,3.3c1.1-1.1,1.3-2,1.4-2.5v-3.7c0-3.4,2.6-6,6-6
				c3.4,0,6,2.7,6,6v3.7c0,0.6,0.3,1.5,1.3,2.5c19.3-0.8,37.7-4.6,55-10.9c0.3-0.8,0.5-1.5,0.5-2c0-0.4-0.1-0.7-0.2-0.9l-1.4-3.5
				c-1.3-3.1,0.2-6.6,3.3-7.9c3.1-1.3,6.6,0.2,7.8,3.3l1.4,3.5c0.3,0.5,0.8,1.3,2.4,1.8c16.7-7.9,32-18.1,45.4-30.5
				c0-1.5-0.5-2.3-0.8-2.9l-2.7-2.6c-2.3-2.4-2.3-6.2,0-8.6c2.3-2.3,6.1-2.3,8.6,0l2.7,2.7c0.4,0.4,1.2,0.9,2.8,0.8
				c12.6-13.8,23.1-29.5,31.1-46.6c-0.6-1.4-1.4-2-1.9-2.2l-3.5-1.4c-3.1-1.2-4.6-4.8-3.3-7.8c1.2-3.1,4.8-4.6,7.9-3.3l3.5,1.4
				c0.5,0.2,1.5,0.3,3-0.3c0,0,0,0,0.1,0c6.1-16.8,9.7-34.9,10.5-53.6C359.9,507.9,358.9,507.7,358.4,507.7z M181.8,664.2
				C91.9,664.2,19,591.3,19,501.4c0-89.9,72.9-162.8,162.8-162.8s162.8,72.9,162.8,162.8C344.6,591.3,271.7,664.2,181.8,664.2z"/>
			<path d="M300.9,444.4C300.9,444.4,300.9,444.4,300.9,444.4l1.8-0.2L300.9,444.4z M277,410c0.1,0.1,0.2,0.2,0.4,0.4l11-5.9
				L277,410z M240.7,383.2c0.2,0.1,0.4,0.2,0.6,0.3l12.4-15.8L240.7,383.2z M181.8,357.1l-0.3,12.3h0.7L181.8,357.1z M110.1,367.8
				l12.3,15.7c0.2-0.1,0.4-0.2,0.6-0.3L110.1,367.8z M72.8,403.2l13.4,7.2c0.1-0.1,0.3-0.3,0.4-0.4L72.8,403.2z M60.8,444.2l1.9,0.2
				c0,0,0,0,0-0.1L60.8,444.2z"/>
			<path d="M181.8,347.6C96.9,347.6,28,416.4,28,501.4c0,84.9,68.8,153.8,153.8,153.8c84.9,0,153.8-68.8,153.8-153.8
				C335.6,416.5,266.7,347.6,181.8,347.6z M60.8,444.2l1.9,0.2c6-12.6,14-24,23.5-34l-13.4-7.2l13.8,6.7
				c10.3-10.7,22.4-19.7,35.8-26.5l-12.3-15.7l12.9,15.4c17.6-8.8,37.5-13.7,58.4-13.8l0.3-12.3l0.3,12.3c21,0.1,40.9,5,58.6,13.8
				l13.1-15.5l-12.4,15.8c13.4,6.8,25.4,15.7,35.7,26.4l11.3-5.5l-11,5.9c9.5,10,17.5,21.4,23.5,34l1.8-0.2l-1.8,0.2
				c7.6,15.8,12.1,33.3,12.8,51.9c-29.7-21.9-64.8-36-101.4-41l88.6-10.8c0,0,0,0,0-0.1l-103.3,8.8l79.8-42.8
				c-0.1-0.1-0.2-0.2-0.4-0.4l-88.7,43.3h0c-0.6,0-1.1,0-1.7,0l54.8-69.7c-0.2-0.1-0.4-0.2-0.6-0.3L184.2,450l-2.1-80.6h-0.7
				l-2.1,80.9L123,383.2c-0.2,0.1-0.4,0.2-0.6,0.3l54.4,69.8c-0.5,0-1,0-1.5,0h0L86.6,410c-0.2,0.1-0.3,0.3-0.4,0.4l79.9,42.8
				l-103.4-8.8c0,0,0,0,0,0.1l88.5,10.8c-36.6,5-71.1,19-101.3,41.2c0.7-18.6,5.2-36.2,12.8-52L60.8,444.2z M181.8,633.4
				c-72.2,0-130.9-58-132-129.9c5.9-4.5,11.9-8.6,18.1-12.5l1.8,19.8l2.1-22.1c3.2-1.9,6.4-3.7,9.6-5.4l3.4,45.6l3.6-49.1
				c2.5-1.2,5.1-2.4,7.7-3.5l3.9,67l4.2-70.3c2.4-0.9,4.8-1.8,7.2-2.6l4.4,82.7l4.5-85.5c1.9-0.6,3.9-1.1,5.8-1.6l4.8,94.5l5-96.8
				c1.8-0.4,3.5-0.7,5.3-1.1l5.9,102.6l6-104.4c1.2-0.2,2.4-0.3,3.6-0.5l6.4,108.7l6.5-109.8c1-0.1,2-0.1,3-0.1l8.9,111.8l9.7-111.8
				c0.8,0,1.6,0.1,2.4,0.1l6.5,109.8l6.4-108.7c1.2,0.1,2.4,0.3,3.6,0.4l6,104.5l6-102.6c1.8,0.3,3.5,0.7,5.3,1.1l5,96.8l4.8-94.5
				c2,0.5,3.9,1.1,5.8,1.6l4.5,85.6l4.4-82.8c2.4,0.8,4.8,1.6,7.1,2.5l4.2,70.4l3.9-67.2c2.6,1.1,5.2,2.2,7.7,3.4l3.7,49.3l3.4-45.8
				c3.2,1.7,6.4,3.4,9.6,5.2l2.1,22.5l1.8-20.1c6.4,3.9,12.5,8.1,18.5,12.7C312.8,575.3,254.1,633.4,181.8,633.4z"/>
			<path d="M86.6,410c-0.2,0.1-0.3,0.3-0.4,0.4l-13.4-7.2L86.6,410z"/>
			<path d="M62.7,444.4C62.7,444.4,62.7,444.4,62.7,444.4l-1.9-0.2L62.7,444.4z"/>
			<path d="M302.7,444.2l-1.8,0.2c0,0,0,0,0-0.1L302.7,444.2z"/>
			<path d="M288.3,404.5l-11,5.9c-0.1-0.1-0.2-0.2-0.4-0.4L288.3,404.5z"/>
			<polygon points="182.1,369.4 181.5,369.4 181.8,357.1 			"/>
			<path d="M123,383.2c-0.2,0.1-0.4,0.2-0.6,0.3l-12.3-15.7L123,383.2z"/>
			<path d="M253.7,367.8l-12.4,15.8c-0.2-0.1-0.4-0.2-0.6-0.3L253.7,367.8z"/>
			<path d="M242.8,411.6c3.6,0,3.6-5.5,0-5.5C239.3,406.1,239.3,411.6,242.8,411.6L242.8,411.6z"/>
			<path d="M216.5,432.2c3.6,0,3.6-5.5,0-5.5C213,426.6,213,432.2,216.5,432.2L216.5,432.2z"/>
			<path d="M202.2,396.4c3.6,0,3.6-5.5,0-5.5C198.6,390.8,198.6,396.4,202.2,396.4L202.2,396.4z"/>
			<path d="M272.8,460.2c3.6,0,3.6-5.5,0-5.5C269.2,454.7,269.2,460.2,272.8,460.2L272.8,460.2z"/>
			<path d="M267.5,433c3.6,0,3.6-5.5,0-5.5C263.9,427.4,263.9,433,267.5,433L267.5,433z"/>
			<path d="M306.4,484.3c3.6,0,3.6-5.5,0-5.5C302.9,478.7,302.9,484.3,306.4,484.3L306.4,484.3z"/>
			<path d="M119.7,411.6c3.6,0,3.6-5.5,0-5.5S116.1,411.6,119.7,411.6L119.7,411.6z"/>
			<path d="M146,432.2c3.6,0,3.6-5.5,0-5.5C142.4,426.6,142.4,432.2,146,432.2L146,432.2z"/>
			<path d="M160.4,396.4c3.6,0,3.6-5.5,0-5.5C156.8,390.8,156.8,396.4,160.4,396.4L160.4,396.4z"/>
			<path d="M89.8,460.2c3.6,0,3.6-5.5,0-5.5S86.3,460.2,89.8,460.2L89.8,460.2z"/>
			<path d="M95,433c3.6,0,3.6-5.5,0-5.5C91.6,427.4,91.5,433,95,433L95,433z"/>
			<path d="M56.1,484.3c3.6,0,3.6-5.5,0-5.5C52.5,478.7,52.5,484.3,56.1,484.3L56.1,484.3z"/>
			<polygon points="336.5,342.5 298.4,342.5 298.4,346.9 336.5,346.9 336.5,385 340.8,385 340.8,346.9 340.8,342.5 			"/>
			<polygon points="340.8,654.6 340.8,616.5 336.5,616.5 336.5,654.6 298.4,654.6 298.4,658.9 336.5,658.9 340.8,658.9 			"/>
			<polygon points="27.1,658.9 65.3,658.9 65.3,654.6 27.1,654.6 27.1,616.5 22.8,616.5 22.8,654.6 22.8,658.9 			"/>
			<polygon points="22.8,346.9 22.8,385 27.1,385 27.1,346.9 65.3,346.9 65.3,342.5 27.1,342.5 22.8,342.5 			"/>
		</g>
		<g id="SHUBIN_00000047777621118067369890000014696243327403313797_">
			<path d="M446,400.7h-30.9v25.9c0,7,5.1,10.6,15.4,10.6c13.5,0,24.7,3.6,33.6,10.8c9.6,7.6,14.4,17.7,14.4,30.3v33.8
				c0,6.2-2.3,11.5-7.1,15.9c-4.7,4.4-10.3,6.5-16.9,6.5h-47.9c-6.5,0-12.1-2.1-16.9-6.5c-4.8-4.4-7.1-9.7-7.1-15.9V479h32.6v25.1
				H446v-25.9c0-7-5.1-10.6-15.4-10.6c-13.5,0-24.7-3.6-33.6-10.8c-9.6-7.6-14.4-17.7-14.4-30.3v-33.8c0-6.2,2.3-11.5,7.1-15.9
				c4.7-4.3,10.3-6.5,16.9-6.5h47.9c6.5,0,12.1,2.1,16.9,6.5c4.8,4.4,7.1,9.7,7.1,15.9v33H446V400.7z"/>
			<path d="M532.4,467.6v66.9h-32.6V370.3h32.6v66.9h30.9v-66.9H596v164.1h-32.6v-66.9H532.4L532.4,467.6z"/>
			<path d="M653.2,504.1h30.9V370.3h32.6V512c0,6.2-2.3,11.5-7.1,15.9c-4.7,4.4-10.3,6.5-16.9,6.5h-47.9c-6.5,0-12.1-2.1-16.9-6.5
				c-4.8-4.4-7.1-9.7-7.1-15.9V370.3h32.6v133.7L653.2,504.1L653.2,504.1z"/>
			<path d="M823.6,450.8c7.1-6.3,10.7-14.4,10.7-24.3v-33.8c0-6.2-2.3-11.5-7.1-15.9c-4.7-4.4-10.4-6.5-17-6.5h-67.8l-0.1,164.1h48
				c13.5,0,24.7-3.7,33.6-10.8c9.6-7.6,14.4-17.7,14.4-30.3v-15.2C838.3,466.4,833.4,457.3,823.6,450.8z M774.9,400.8h26.8v25.9
				c0,2.8-1.2,5.4-3.6,7.5c-2.3,1.9-5.1,3-8.3,3h-15V400.8z M805.6,493.4c0,7.1-5.1,10.7-15.4,10.7h-15.4v-36.4H794
				c3.2,0,5.8,0.9,8.2,3c2.3,2,3.5,4.6,3.5,7.5V493.4z"/>
			<path d="M860.6,534.4V370.3h32.6v164.1H860.6z"/>
			<path d="M951.7,428.7v105.7h-32.6V370.3h45.2L991,476.5V370.3h32.6v164.1h-45.1L951.7,428.7z"/>
		</g>
		<g id="INTERSTELLAR_00000076563985360177894910000014586200931989154984_">
			<path d="M384.3,634.5V548h17.2v86.5H384.3z"/>
			<path d="M432.4,578.7v55.8h-17.2v-86.5h23.9l14.1,56.1v-56.1h17.2v86.5h-23.8L432.4,578.7z"/>
			<path d="M495.4,563.9h-16.8v-16h50.7v16h-16.7v70.5h-17.1V563.9z"/>
			<path d="M552.1,618.4h28.6v16h-45.9v-86.5h45.9v16h-28.6v19.3H576v16.1h-23.9V618.4z"/>
			<path d="M640.2,582.1v-22.3c0-3.3-1.2-6-3.8-8.4c-2.4-2.3-5.4-3.5-8.9-3.5h-38v86.5h17.2v-30.9h10.1c1.6,0,3.1,0.6,4.3,1.6
				c1.2,1.1,1.8,2.5,1.8,4.1v25.2h17.2v-25.2c0-5.7-2.2-10.3-6.6-13.7C638,592.3,640.2,587.9,640.2,582.1z M623.1,582
				c0,1.6-0.6,3-1.8,4c-1.2,1.1-2.6,1.6-4.3,1.6l-10.2-0.1v-23.7h16.3V582z"/>
			<path d="M684.6,563.9h-16.3v13.7c0,3.7,2.8,5.6,8.2,5.6c7.1,0,13,1.9,17.7,5.7c5.1,4,7.5,9.4,7.5,16v17.8c0,3.3-1.2,6.1-3.8,8.4
				c-2.4,2.2-5.5,3.5-8.9,3.5h-25.3c-3.5,0-6.4-1.1-8.9-3.5c-2.5-2.3-3.8-5.1-3.8-8.4v-17.4h17.1v13.3h16.3v-13.7
				c0-3.7-2.8-5.6-8.2-5.6c-7.1,0-13-1.9-17.7-5.7c-5.1-4-7.5-9.4-7.5-16v-17.8c0-3.3,1.2-6.1,3.8-8.4c2.4-2.2,5.5-3.5,8.9-3.5h25.3
				c3.5,0,6.4,1.1,8.9,3.5c2.5,2.3,3.8,5.1,3.8,8.4v17.4h-17.1V563.9z"/>
			<path d="M724.4,563.9h-16.8v-16h50.7v16h-16.7v70.5h-17.1V563.9z"/>
			<path d="M781.1,618.4h28.6v16h-45.9v-86.5h45.9v16h-28.6v19.3h23.9v16.1h-23.9V618.4z"/>
			<path d="M818.6,634.5V548h17.2v70.5h23.9v16H818.6L818.6,634.5z"/>
			<path d="M866.7,634.5V548h17.2v70.5h23.9v16H866.7L866.7,634.5z"/>
			<path d="M949.6,547.9h-22.8l-16.8,86.5h17.4l3.5-17.5h14.7l3.4,17.5h17.4L949.6,547.9z M934,600.9l4.2-36.9l4.2,36.9H934z"/>
			<path d="M1024,582.1v-22.3c0-3.3-1.2-6-3.8-8.4c-2.4-2.3-5.4-3.5-8.9-3.5h-37.9v86.5h17.2v-30.9h10c1.6,0,3.1,0.6,4.3,1.6
				c1.2,1.1,1.8,2.5,1.8,4.1v25.2h17.2v-25.2c0-5.7-2.2-10.3-6.6-13.7C1021.8,592.3,1024,587.9,1024,582.1z M1006.9,582
				c0,1.6-0.6,3-1.8,4c-1.2,1.1-2.6,1.6-4.3,1.6l-10.2-0.1v-23.7h16.3V582z"/>
		</g>
	</g>
</g>
<g id="RSI">
</g>
<g id="Origin">
</g>
<g id="Misc">
</g>
<g id="Drake">
</g>
<g id="Curelife">
</g>
<g id="Crusader">
</g>
<g id="Bioticorp">
</g>
<g id="Aciedo">
</g>
<g id="Aegis">
</g>
</svg>
