<?xml version="1.0" encoding="utf-8"?>
<!-- Generator: Adobe Illustrator 29.1.0, SVG Export Plug-In . SVG Version: 9.03 Build 55587)  -->
<svg version="1.1" baseProfile="tiny" id="Logo" xmlns="http://www.w3.org/2000/svg" xmlns:xlink="http://www.w3.org/1999/xlink"
	 x="0px" y="0px" viewBox="0 0 1024 1024" overflow="visible" xml:space="preserve">
<path fill="#EA1D25" d="M274.87,428.21H221l39.46-46.93H218.1L107.99,512l25.86,83.79h53.97l-39.55,46.93h42.44L300.73,512
	L274.87,428.21z"/>
<path fill="#FFFFFF" d="M328.44,602.99l-2.73,21.86h-7.06l2.69-21.86h-5.97l0.76-6.18h19.04l-0.76,6.18H328.44z M362.87,596.81
	l-3.45,28.04h-7.1l1.39-11.48h-10.3l-1.43,11.48h-7.1l3.45-28.04h7.1l-1.26,10.38h10.3l1.3-10.38H362.87z M384.1,596.81l-0.76,6.18
	h-8.24l-0.59,4.67h7.99l-0.76,6.14h-7.99l-0.59,4.88h8.58l-0.76,6.18H365.3l3.45-28.04h15.35V596.81z M414.82,596.81l-0.76,6.18
	h-8.87l-0.59,4.75h8.07l-0.76,6.14h-8.07l-1.34,10.97h-7.1l3.45-28.04H414.82z M443.03,596.81l-1.98,16.23
	c-0.67,5.38-1.39,7.52-3.19,9.25c-2.1,2.02-5.46,3.11-9.58,3.11c-7.27,0-11.69-3.57-11.69-9.58c0-0.84,0.13-2.14,0.34-3.87
	l1.85-15.13h7.06l-1.85,15.13c-0.08,0.84-0.13,1.64-0.13,2.35c0,2.94,1.51,4.37,4.62,4.37c1.77,0,3.15-0.46,3.99-1.39
	c0.88-1.01,1.18-1.98,1.51-4.5l1.93-15.97L443.03,596.81L443.03,596.81z M458.58,602.99l-2.73,21.86h-7.06l2.69-21.86h-5.97
	l0.76-6.18h19.04l-0.76,6.18H458.58z M492.71,596.81l-1.98,16.23c-0.67,5.38-1.39,7.52-3.19,9.25c-2.1,2.02-5.46,3.11-9.58,3.11
	c-7.27,0-11.69-3.57-11.69-9.58c0-0.84,0.13-2.14,0.34-3.87l1.85-15.13h7.06l-1.85,15.13c-0.08,0.84-0.13,1.64-0.13,2.35
	c0,2.94,1.51,4.37,4.62,4.37c1.77,0,3.15-0.46,3.99-1.39c0.88-1.01,1.18-1.98,1.51-4.5l1.93-15.97L492.71,596.81L492.71,596.81z
	 M511.67,613.96l6.56,10.89h-8.24l-6.39-11.14l-1.34,11.14h-7.1l3.45-28.04h9.12c3.83,0,6.18,0.76,7.78,2.44
	c1.35,1.43,2.14,3.74,2.14,6.26s-0.76,4.62-2.27,6.22C514.36,612.83,513.6,613.29,511.67,613.96z M504.98,602.44l-0.88,7.19h1.26
	c3.41,0,4.96-1.26,4.96-3.91c0-2.44-1.01-3.28-3.99-3.28H504.98z M540,596.81l-0.76,6.18H531l-0.59,4.67h7.99l-0.76,6.14h-7.99
	l-0.59,4.88h8.58l-0.76,6.18H521.2l3.45-28.04H540V596.81z M582.24,609.42c0,0.17,0,0.38,0,0.55c0,9.21-6.14,15.43-15.22,15.43
	c-9.12,0-15.3-5.72-15.3-14.17c0-8.79,6.56-14.97,15.85-14.97C576.06,596.26,581.91,601.48,582.24,609.42z M574.93,610.22
	c-0.25-4.41-3.24-7.23-7.65-7.23c-4.79,0-8.28,3.36-8.28,7.99c0,4.62,3.15,7.69,7.86,7.69c4.79,0,8.11-3.24,8.11-7.95
	C574.97,610.56,574.97,610.39,574.93,610.22z M604.56,596.81l-0.76,6.18h-8.87l-0.59,4.75h8.07l-0.76,6.14h-8.07l-1.34,10.97h-7.1
	l3.45-28.04H604.56z M618.31,596.81h9.37c3.19,0,6.05,0.42,8.16,2.48c2.1,2.06,2.35,4.58,2.35,6.43c0,2.02-0.29,4.54-2.19,6.6
	c-1.93,2.1-5.3,3.24-9.75,3.24h-3.15l-1.13,9.29h-7.1L618.31,596.81z M624.7,602.69l-0.84,6.98h2.23c1.01,0,2.86-0.08,3.95-1.18
	c0.8-0.8,0.88-1.85,0.88-2.48c0-1.22-0.38-1.98-0.8-2.4c-0.92-0.97-2.44-0.92-3.45-0.92H624.7z M657.9,596.81l-0.76,6.18h-8.24
	l-0.59,4.67h7.99l-0.76,6.14h-7.99l-0.59,4.88h8.58l-0.76,6.18H639.1l3.45-28.04h15.35V596.81z M675.93,613.96l6.56,10.89h-8.24
	l-6.39-11.14l-1.34,11.14h-7.1l3.45-28.04h9.12c3.83,0,6.18,0.76,7.78,2.44c1.35,1.43,2.14,3.74,2.14,6.26s-0.76,4.62-2.27,6.22
	C678.63,612.83,677.87,613.29,675.93,613.96z M669.25,602.44l-0.88,7.19h1.26c3.41,0,4.96-1.26,4.96-3.91
	c0-2.44-1.01-3.28-3.99-3.28H669.25z M704.9,596.81l-0.76,6.18h-8.87l-0.59,4.75h8.07l-0.76,6.14h-8.07l-1.34,10.97h-7.1l3.45-28.04
	H704.9z M737.94,609.42c0,0.17,0,0.38,0,0.55c0,9.21-6.14,15.43-15.22,15.43c-9.12,0-15.3-5.72-15.3-14.17
	c0-8.79,6.56-14.97,15.85-14.97C731.76,596.26,737.6,601.48,737.94,609.42z M730.62,610.22c-0.25-4.41-3.24-7.23-7.65-7.23
	c-4.79,0-8.28,3.36-8.28,7.99c0,4.62,3.15,7.69,7.86,7.69c4.79,0,8.11-3.24,8.11-7.95C730.66,610.56,730.66,610.39,730.62,610.22z
	 M757.35,613.96l6.56,10.89h-8.24l-6.39-11.14l-1.34,11.14h-7.1l3.45-28.04h9.12c3.83,0,6.18,0.76,7.78,2.44
	c1.35,1.43,2.14,3.74,2.14,6.26s-0.76,4.62-2.27,6.22C760.04,612.83,759.29,613.29,757.35,613.96z M750.67,602.44l-0.88,7.19h1.26
	c3.41,0,4.96-1.26,4.96-3.91c0-2.44-1.01-3.28-3.99-3.28H750.67z M800.86,596.81l0.88,28.04h-7.1l-0.34-12.57c0-0.29,0-0.59,0-0.88
	c0-1.56,0.08-2.61,0.34-4.67c-0.67,1.81-1.22,3.07-1.98,4.62l-6.89,13.49h-3.74l-2.4-10.85c-0.59-2.65-0.8-4.08-1.18-7.74
	c-0.67,3.45-1.01,4.79-1.47,6.43l-3.61,12.15h-7.31l8.87-28.04h7.02l2.1,9.46c0.55,2.35,0.92,4.67,1.26,7.36
	c0.46-1.3,1.09-2.86,1.6-3.83l6.6-12.99h7.35V596.81z M814.02,620.14l-2.14,4.71h-7.9l13.91-28.04h7.99l6.77,28.04h-7.44l-1.18-4.71
	H814.02z M816.62,614.59h6.05l-1.18-5.34c-0.46-2.14-0.5-2.4-0.63-3.24c-0.04-0.21-0.13-0.55-0.17-1.01
	c-0.46,1.47-0.84,2.35-1.26,3.32L816.62,614.59z M866.69,596.81l-3.45,28.04h-7.78l-7.44-12.57c-1.22-1.98-2.27-4.12-3.45-6.94v1.26
	c0,2.1-0.08,3.57-0.29,5.3l-1.6,12.95h-7.1l3.45-28.04h7.65l7.99,13.54l1.22,2.27l1.09,2.14l0.55,1.05
	c0.04-1.77,0.13-3.15,0.34-4.79l1.72-14.21H866.69z M893.25,598.62l-0.84,6.94c-2.06-1.72-4.29-2.56-6.85-2.56
	c-5.17,0-8.83,3.4-8.83,8.16c0,4.5,3.19,7.52,7.86,7.52c2.19,0,4.25-0.55,6.43-1.77l-0.88,7.15c-3.07,1.09-4.46,1.35-6.6,1.35
	c-8.28,0-14.08-5.76-14.08-13.91c0-8.53,6.73-15.22,15.3-15.22C887.79,596.26,890.27,596.94,893.25,598.62z M913.43,596.81
	l-0.76,6.18h-8.24l-0.59,4.67h7.99l-0.76,6.14h-7.99l-0.59,4.88h8.58l-0.76,6.18h-15.68l3.45-28.04h15.35V596.81z M923.18,621.07
	c0,2.44-1.85,4.33-4.2,4.33c-2.35,0-4.33-1.98-4.33-4.29c0-2.35,1.89-4.25,4.16-4.25C921.24,616.86,923.18,618.71,923.18,621.07z
	 M576.32,462.83l-28.38,99.23l-1.03,3.93h-4.29h-21.15h-4.76l1.26-4.83l28.37-99.23l1.33-3.93h4h21.15h4.99L576.32,462.83z
	 M884.91,458.01L853.21,566h30.55l32.25-107.99H884.91z M479.5,458.01H347.05L319.8,559.73l-2.12,6.27h6.66h21.84h5.45l1.42-5.36
	l20.78-78.63h42.86l-20.52,77.71l-1.76,6.27h6.3h21.32h5.56l1.31-5.36L449.68,482h24.02c4.54,0,8.31,1.73,10.61,4.87
	c2.38,3.24,2.96,7.62,1.64,12.33l-15.69,60.52l-1.89,6.27h6.43h20.03H500l1.7-5.36l15.69-60.52c3.18-11.34,1.7-22-4.17-30
	C507.48,462.31,490.53,458.01,479.5,458.01z M845.59,544.21l-12.7-0.03l4.01,21.81h-29.76l-3.57-21.81h-55.28l-16.34,21.81h-23.57
	h-10.45h-29.2c-19.39,0-43.85-6.46-41.53-33.08h-21.88l-9.81,33.08h-30.4l19.93-66.8L597.47,458h79.33c34.67,0,46.59,16.03,41,41.19
	c-4.9,22.06-21.38,29.23-34.79,31.76c-6.53,1.23-11.81,1.78-15.8,2.01c-0.2,0.01-9.55,0.02-9.73,0.03
	c-1.27,7.89,5.13,13.04,16.98,13.04c8.34,0,34.11,0.08,39.07,0.09L782.67,458h34.75l11.81,65.8h22L845.59,544.21z M656.31,509.32
	c13.99,0,29.57-1.44,32.25-14.58c2.07-10.2-8.41-12.95-24.07-12.95H620.7l-5.24,17.41h-0.06l-3.05,10.12H656.31z M800.36,523.8
	l-6.38-39.87l-30.22,39.87H800.36z M197.59,532.49c-2.67,2.49-5.39,5.11-8.17,7.85c-0.44,0.43-1.08,0.57-1.46,0.29
	c-6.89-4.87-12.28-11.1-16.19-18.67c-0.4-0.77-1.75-0.32-2.03,0.66l-6.11,21.77c-0.16,0.58-0.76,1.05-1.33,1.05h-8.17
	c-0.58,0-0.91-0.47-0.75-1.05l5.95-21.2c0.28-0.99-0.83-1.41-1.67-0.65c-7.54,6.8-16.36,12.99-26.46,18.59
	c-0.55,0.31-1.15,0.18-1.35-0.28c-1.11-2.59-2.32-5.02-3.61-7.29c-0.29-0.51,0.09-1.29,0.77-1.59c11.55-5.15,21.61-11.35,30.2-18.62
	c0.79-0.67,0.6-1.74-0.3-1.74h-22.86c-0.58,0-0.91-0.47-0.75-1.05l2.1-7.47c0.16-0.58,0.76-1.05,1.33-1.05h27.5
	c0.58,0,1.17-0.47,1.33-1.05l1.83-6.51c0.16-0.58-0.17-1.05-0.75-1.05h-23.47c-0.58,0-0.91-0.47-0.75-1.05l2.1-7.47
	c0.16-0.58,0.76-1.05,1.33-1.05h23.47c0.58,0,1.17-0.47,1.33-1.05l2.36-8.42c0.16-0.58,0.76-1.05,1.34-1.05h8.17
	c0.57,0,0.91,0.47,0.75,1.05l-2.36,8.42c-0.16,0.58,0.17,1.05,0.75,1.05h24.2c0.57,0,0.91,0.47,0.75,1.05l-2.1,7.47
	c-0.16,0.58-0.76,1.05-1.33,1.05h-24.2c-0.57,0-1.17,0.47-1.33,1.05l-1.83,6.51c-0.16,0.58,0.17,1.05,0.75,1.05h27.93
	c0.58,0,0.91,0.47,0.75,1.05l-2.1,7.47c-0.16,0.58-0.76,1.05-1.33,1.05h-23.16c-0.9,0-1.69,1.07-1.28,1.74
	c4.7,7.65,11.45,13.49,20.24,17.52C198.18,531.16,198.18,531.95,197.59,532.49z M272.05,532.93c-2.39,2.33-4.8,4.79-7.23,7.37
	c-0.43,0.46-1.08,0.61-1.48,0.34c-7.52-4.99-13.11-10.75-16.78-17.29c-0.42-0.74-1.74-0.29-2.01,0.68l-5.72,20.37
	c-0.16,0.58-0.76,1.05-1.33,1.05h-8.53c-0.58,0-0.91-0.47-0.75-1.05l5.7-20.3c0.27-0.97-0.8-1.42-1.63-0.68
	c-7.51,6.7-16.38,12.59-26.61,17.66c-0.54,0.27-1.11,0.12-1.3-0.32c-1.05-2.5-2.1-4.81-3.14-6.92c-0.26-0.53,0.15-1.29,0.85-1.57
	c9.24-3.73,17.71-8.61,25.41-14.65c0.85-0.66,0.72-1.8-0.22-1.8h-19.5c-0.57,0-0.91-0.47-0.75-1.05l2.08-7.39
	c0.16-0.58,0.76-1.05,1.33-1.05h15.39l-0.84-1.67c-1.04-2.16-2.41-4.7-4.11-7.62c-0.27-0.46-0.01-1.16,0.58-1.53l4.16-2.59
	l2.72-1.88h-10.08c-0.57,0-0.91-0.47-0.75-1.05l2.1-7.47c0.16-0.58,0.76-1.05,1.33-1.05h23.91c0.58,0,1.17-0.47,1.34-1.05l1.68-6
	c0.16-0.58,0.76-1.05,1.33-1.05h8.53c0.57,0,0.91,0.47,0.75,1.05l-1.68,6c-0.16,0.58,0.17,1.05,0.75,1.05h24.27
	c0.58,0,0.91,0.47,0.75,1.05l-2.1,7.47c-0.16,0.58-0.76,1.05-1.34,1.05h-10.69l1.83,1.89l3.07,2.9c0.38,0.36,0.26,1.06-0.25,1.52
	c-3.06,2.77-5.9,5.17-8.52,7.22l-2.07,1.77h16.16c0.58,0,0.91,0.47,0.75,1.05l-2.08,7.39c-0.16,0.58-0.76,1.05-1.34,1.05h-20.47
	c-0.95,0-1.72,1.16-1.22,1.82c4.47,5.83,10.39,10.4,17.76,13.72C272.6,531.61,272.61,532.38,272.05,532.93z M242.89,492.08
	c0.16-0.58-0.17-1.05-0.75-1.05h-12.7l0.88,1.77c1.48,2.25,2.96,4.71,4.46,7.37c0.26,0.46-0.02,1.17-0.6,1.53l-4.45,2.74l-2.64,1.89
	h10.76c0.58,0,1.17-0.47,1.34-1.05L242.89,492.08z M261.12,506.33l-1.56-1.85l-2.63-2.92c-0.36-0.4-0.18-1.11,0.38-1.54
	c2.88-2.19,5.8-4.61,8.76-7.27l2-1.72h-13.23c-0.57,0-1.17,0.47-1.33,1.05l-3.71,13.2c-0.16,0.58,0.17,1.05,0.75,1.05L261.12,506.33
	L261.12,506.33z"/>
</svg>
