<?xml version="1.0" encoding="utf-8"?>
<!-- Generator: Adobe Illustrator 28.0.0, SVG Export Plug-In . SVG Version: 6.00 Build 0)  -->
<svg version="1.1" baseProfile="tiny" xmlns="http://www.w3.org/2000/svg" xmlns:xlink="http://www.w3.org/1999/xlink" x="0px"
	 y="0px" viewBox="0 0 1024 1024" overflow="visible" xml:space="preserve">
<g id="Temp_BG">
</g>
<g id="esperia">
</g>
<g id="grey_cat">
	<g>
		<g>
			<path fill="#FFA72B" d="M511,599.8c-106.8,0-193.6-86.8-193.6-193.5c0-106.7,86.8-193.6,193.6-193.6
				c72.3,0,137.4,40.1,170.6,102.4h-56c-27.7-34.9-69.6-55.3-114.5-55.3c-80.8,0-146.5,65.7-146.5,146.5
				c0,80.8,65.7,146.5,146.5,146.5c44.9,0,86.8-20.5,114.5-55.3h56C648.4,559.7,583.3,599.8,511,599.8z"/>
			<path fill="#6E6F71" d="M747.7,360L747.7,360l-0.1-0.4C725.9,249.2,628.7,166,512,166c-132.7,0-240.3,107.6-240.3,240.3
				c0,132.7,107.6,240.2,240.3,240.2c132.7,0,240.3-107.6,240.3-240.2C752.3,390.4,750.7,375,747.7,360z M723,452.5
				c-1.7,7.7-3.9,15.1-6.4,22.5C687.9,560.5,607.3,622.2,512,622.2c-119.3,0-216.1-96.7-216.1-216c0-119.3,96.7-216,216.1-216
				c95.3,0,175.9,61.7,204.6,147.3H615.1c-22.2-33.3-60.1-55.3-103.1-55.3c-68.5,0-124,55.5-124,124c0,68.5,55.5,124,124,124
				c43.1,0,80.9-22,103.1-55.3c4.7-7,8.7-14.5,11.9-22.5H474.6V360H723c3.3,14.9,5.1,30.4,5.1,46.3C728,422.1,726.2,437.6,723,452.5
				z M586.7,474.9c-19.1,20.8-46,32.9-74.7,32.9c-56,0-101.6-45.6-101.6-101.6c0-56,45.6-101.6,101.6-101.6
				c28.6,0,55.6,12.1,74.7,32.9H452.1v137.4H586.7z"/>
			<g>
				<path fill="#6E6F71" d="M524,387.9v8.3c0,0.2-0.2,0.4-0.5,0.4H516c-0.3,0-0.5-0.2-0.5-0.4v-5.4c0-1-0.8-1.8-1.9-1.8h-5.7
					c-1,0-1.8,0.8-1.8,1.8V422c0,1,0.8,1.8,1.8,1.8h5.7c1,0,1.9-0.9,1.9-1.8v-6.6h-4.3c-0.2,0-0.5-0.2-0.5-0.5v-7.6
					c0-0.2,0.2-0.5,0.5-0.5h12.4c0.2,0,0.5,0.2,0.5,0.5v17.5c0,4.1-3.4,7.6-7.6,7.6H505c-4.1,0-7.6-3.4-7.6-7.6v-36.9
					c0-4.1,3.4-7.6,7.6-7.6h11.4C520.5,380.3,524,383.8,524,387.9z"/>
				<path fill="#6E6F71" d="M556.6,387.8v21.9c0,2.7-1.4,5-3.4,6.4l3.3,15.8c0.1,0.2-0.1,0.5-0.4,0.5h-7.5c-0.3,0-0.5-0.2-0.6-0.5
					l-3-14.6h-6.3v14.6c0,0.2-0.2,0.5-0.5,0.5h-7.6c-0.2,0-0.5-0.2-0.5-0.5v-51c0-0.3,0.2-0.5,0.5-0.5h18.5
					C553.2,380.2,556.6,383.7,556.6,387.8z M548.1,390.6c0-1-0.8-1.8-1.8-1.8H546h-7.3v19.9h7.6c1,0,1.8-0.8,1.8-1.9V390.6z"/>
				<path fill="#6E6F71" d="M571.3,388.8V402h11.8c0.3,0,0.5,0.2,0.5,0.5v7.6c0,0.2-0.2,0.4-0.5,0.4h-11.8v13.2h14.6
					c0.3,0,0.5,0.2,0.5,0.5v7.6c0,0.2-0.2,0.5-0.5,0.5h-22.6c-0.3,0-0.5-0.2-0.5-0.5v-51c0-0.3,0.2-0.5,0.5-0.5h22.6
					c0.3,0,0.5,0.2,0.5,0.5v7.6c0,0.2-0.2,0.5-0.5,0.5H571.3z"/>
				<path fill="#6E6F71" d="M618.7,394l-8.7,24.8c-0.1,0.2-0.2,0.5-0.2,0.5s0,0.2,0,0.4v12.1c0,0.2-0.1,0.5-0.5,0.5h-7.6
					c-0.2,0-0.5-0.2-0.5-0.5v-12.1c0-0.2,0-0.4,0-0.4s-0.1-0.2-0.1-0.5l-8.6-24.8c-0.1-0.2-0.2-0.6-0.2-0.9l-0.8-12.3
					c-0.1-0.3,0.1-0.5,0.4-0.5h7.6c0.3,0,0.5,0.2,0.5,0.5l0.9,12.3c0.1,0.3,0.2,0.7,0.2,0.9l4.4,12.7c0.1,0.2,0.2,0.2,0.3,0
					l4.4-12.7c0.1-0.2,0.2-0.4,0.2-0.4s0-0.2,0-0.5l0.9-12.3c0-0.3,0.2-0.5,0.5-0.5h7.6c0.3,0,0.5,0.2,0.5,0.5l-0.9,12.3
					c0,0.3,0,0.5,0,0.5S618.8,393.8,618.7,394z"/>
				<path fill="#6E6F71" d="M651.2,387.9v8.4c0,0.2-0.2,0.4-0.5,0.4h-7.6c-0.3,0-0.5-0.2-0.5-0.4v-5.6c0-1-0.9-1.8-1.9-1.8h-5.7
					c-1.1,0-1.9,0.8-1.9,1.8V422c0,1,0.8,1.8,1.9,1.8h5.7c1,0,1.9-0.9,1.9-1.8v-5.5c0-0.3,0.1-0.5,0.5-0.5h7.6
					c0.2,0,0.5,0.2,0.5,0.5v8.3c0,4.1-3.5,7.6-7.6,7.6h-11.3c-4.2,0-7.6-3.4-7.6-7.6v-36.9c0-4.1,3.4-7.6,7.6-7.6h11.3
					C647.8,380.3,651.2,383.8,651.2,387.9z"/>
				<path fill="#6E6F71" d="M683.7,431.8c0,0.2-0.2,0.5-0.5,0.5h-7.6c-0.2,0-0.5-0.2-0.5-0.5l-0.6-8.1h-10.1l-0.6,8.1
					c0,0.2-0.2,0.5-0.5,0.5h-7.6c-0.3,0-0.5-0.2-0.5-0.5l0.9-12.9l8.9-38.3c0.1-0.2,0.2-0.4,0.5-0.4c0.1-0.1,7.7-0.1,7.8,0
					c0.2,0,0.4,0.2,0.5,0.4l8.9,38.3L683.7,431.8z M673.5,415.2l-3.9-16.7l-3.9,16.7H673.5z"/>
				<path fill="#6E6F71" d="M708.9,380.9v7.5c0,0.2-0.2,0.5-0.5,0.5H700v43c0,0.2-0.2,0.4-0.5,0.4h-7.6c-0.3,0-0.5-0.2-0.5-0.4v-43
					h-8.6c-0.2,0-0.4-0.2-0.4-0.5v-7.5c0-0.3,0.2-0.5,0.4-0.5h25.5C708.7,380.3,708.9,380.5,708.9,380.9z"/>
			</g>
		</g>
		<g>
			<g>
				<path fill="#6E6F71" d="M332,701.8v18.8c0,0.5-0.5,1-1,1h-17.2c-0.7,0-1.2-0.5-1.2-1v-12.3c0-2.3-1.9-4.2-4.2-4.2h-13
					c-2.2,0-4.2,1.9-4.2,4.2v71c0,2.2,1.9,4.2,4.2,4.2h13c2.3,0,4.2-1.9,4.2-4.2v-15.1h-9.8c-0.5,0-1.1-0.5-1.1-1.1v-17.2
					c0-0.5,0.6-1.1,1.1-1.1H331c0.5,0,1,0.5,1,1.1v39.8c0,9.4-7.8,17.2-17.2,17.2h-25.9c-9.4,0-17.2-7.8-17.2-17.2v-83.9
					c0-9.3,7.8-17.2,17.2-17.2h25.9C324.2,684.6,332,692.4,332,701.8z"/>
				<path fill="#6E6F71" d="M406.2,701.6v49.7c0,6.1-3.1,11.3-7.8,14.4l7.4,36c0.2,0.5-0.2,1-0.9,1h-17c-0.7,0-1.2-0.5-1.4-1
					l-6.8-33.2h-14.4v33.2c0,0.5-0.5,1-1.2,1H347c-0.5,0-1-0.5-1-1v-116c0-0.7,0.5-1.2,1-1.2H389
					C398.4,684.4,406.2,692.2,406.2,701.6z M386.8,708.1c0-2.3-1.9-4.2-4.2-4.2h-0.7h-16.5v45.3h17.2c2.3,0,4.2-1.9,4.2-4.3V708.1z"
					/>
				<path fill="#6E6F71" d="M439.6,703.9v30h26.8c0.7,0,1.2,0.5,1.2,1v17.2c0,0.5-0.5,1-1.2,1h-26.8v30.1h33.2
					c0.7,0,1.2,0.5,1.2,1.2v17.2c0,0.5-0.5,1-1.2,1h-51.4c-0.7,0-1.2-0.5-1.2-1v-116c0-0.7,0.5-1.2,1.2-1.2h51.4
					c0.7,0,1.2,0.5,1.2,1.2v17.2c0,0.5-0.5,1.1-1.2,1.1H439.6z"/>
				<path fill="#6E6F71" d="M547.4,715.7l-19.8,56.5c-0.2,0.5-0.4,1.1-0.4,1.1s0,0.5,0,1v27.5c0,0.5-0.3,1-1,1H509
					c-0.5,0-1.1-0.5-1.1-1v-27.5c0-0.5,0-1,0-1s-0.1-0.5-0.3-1.1l-19.6-56.5c-0.1-0.5-0.5-1.4-0.5-2.1l-1.9-28
					c-0.2-0.7,0.3-1.2,0.9-1.2h17.2c0.7,0,1.2,0.5,1.2,1.2l2,28c0.1,0.7,0.4,1.6,0.5,2.1l10.1,28.8c0.1,0.5,0.5,0.5,0.7,0l10.1-28.8
					c0.2-0.5,0.4-1,0.4-1s0-0.4,0-1.1l2.1-28c0-0.7,0.5-1.2,1-1.2h17.2c0.7,0,1,0.5,1,1.2l-2.1,28c0,0.7,0,1.1,0,1.1
					S547.5,715.2,547.4,715.7z"/>
				<path fill="#6E6F71" d="M621.2,701.8v19.1c0,0.5-0.5,1-1,1H603c-0.7,0-1-0.5-1-1v-12.7c0-2.3-2.1-4.2-4.4-4.2h-12.9
					c-2.4,0-4.3,1.9-4.3,4.2v71c0,2.2,1.9,4.2,4.3,4.2h12.9c2.3,0,4.4-1.9,4.4-4.2v-12.5c0-0.7,0.3-1.2,1-1.2h17.2
					c0.5,0,1,0.5,1,1.2v18.9c0,9.4-7.9,17.2-17.2,17.2h-25.7c-9.5,0-17.2-7.8-17.2-17.2v-83.9c0-9.3,7.7-17.2,17.2-17.2H604
					C613.4,684.6,621.2,692.4,621.2,701.8z"/>
				<path fill="#6E6F71" d="M695.1,801.7c0,0.5-0.4,1-1.1,1h-17.2c-0.5,0-1-0.5-1-1l-1.4-18.4h-22.9l-1.4,18.4c0,0.5-0.6,1-1.1,1
					h-17.2c-0.7,0-1-0.5-1-1l2.1-29.2l20.2-87c0.2-0.4,0.5-0.9,1-0.9c0.2-0.2,17.5-0.2,17.7,0c0.5,0,0.9,0.5,1,0.9l20.2,87
					L695.1,801.7z M671.8,764l-8.8-37.8l-8.9,37.8H671.8z"/>
				<path fill="#6E6F71" d="M752.3,685.8V703c0,0.5-0.4,1.1-1.1,1.1H732v97.8c0,0.5-0.5,1-1.1,1h-17.2c-0.7,0-1.1-0.5-1.1-1V704
					h-19.5c-0.5,0-1-0.5-1-1.1v-17.1c0-0.7,0.5-1.2,1-1.2h58.1C751.9,684.6,752.3,685.1,752.3,685.8z"/>
			</g>
			<g>
				<path fill="#6E6F71" d="M271.7,857.9v-4.3h5.5v-29.3h-5.5v-4.3h15.7v4.3h-5.6v29.3h5.6v4.3H271.7z"/>
				<path fill="#6E6F71" d="M336,857.9v-11.5l-17.1-18.8v30.3h-4.7v-37.9h4.2l17.7,19.5v-19.5h4.7v37.9H336z"/>
				<path fill="#6E6F71" d="M386.1,857.9h-18.5v-37.9h18.5c4.8,0,8.3,3.5,8.3,8.3v21.3C394.4,854.3,390.9,857.9,386.1,857.9z
					 M389.7,827.9c0-1.8-1.4-3.5-3.3-3.5h-14.3v29h14.3c1.8,0,3.3-1.7,3.3-3.5V827.9z"/>
				<path fill="#6E6F71" d="M439.6,857.9h-10.1c-4.8,0-8.3-3.5-8.3-8.3v-29.6h4.8v30c0,1.8,1.4,3.5,3.3,3.5h10.5
					c1.8,0,3.3-1.7,3.3-3.5v-30h4.8v29.6C447.9,854.3,444.4,857.9,439.6,857.9z"/>
				<path fill="#6E6F71" d="M492.4,858h-10.1c-4.8,0-8.3-3.5-8.3-8.3v-1.6h4.6v2c0,1.8,1.4,3.5,3.3,3.5h11c1.8,0,3.3-1.7,3.3-3.5
					v-5.2c0-1.8-1.4-3.4-3.3-3.5l-10.3-0.3c-4.8-0.1-8.3-3.5-8.3-8.3v-4.5c0-4.8,3.5-8.3,8.3-8.3h9.3c4.8,0,8.3,3.5,8.3,8.3v1.6
					h-4.6v-2c0-1.8-1.4-3.5-3.3-3.5h-10.2c-1.8,0-3.3,1.7-3.3,3.5v5.3c0,1.8,1.4,3.4,3.3,3.5l10.3,0.3c4.7,0.1,8.3,3.5,8.3,8.3v4.5
					C500.7,854.5,497.2,858,492.4,858z"/>
				<path fill="#6E6F71" d="M541.4,824.4v33.5h-5v-33.5h-11.4v-4.4h28v4.4H541.4z"/>
				<path fill="#6E6F71" d="M599.5,857.9v-12.4c0-2.8-0.8-4.3-3.7-4.3h-13.5v16.7h-4.5v-37.9h18.1c4.8,0,8.3,3.5,8.3,8.3v4.3
					c0,4.9-3.4,6.3-3.4,6.3s3.4,1.2,3.4,5.8v13.3H599.5z M599.5,827.7c0-1.8-1.5-3.7-3.3-3.7h-13.9v12.6h13.2c3.1,0,4-1.2,4-4.1
					V827.7z"/>
				<path fill="#6E6F71" d="M631,857.9v-4.3h5.5v-29.3H631v-4.3h15.7v4.3h-5.6v29.3h5.6v4.3H631z"/>
				<path fill="#6E6F71" d="M700.3,857.9h-4.6v-12.6h-17.5v12.6h-4.6v-23.3c0-2.6,0.5-4.1,2.2-5.9l8.8-8.7h5l8.8,8.7
					c1.7,1.8,2.2,3.3,2.2,5.9V857.9z M694.5,831.6l-7.3-7.7h-0.5l-7.5,7.7c-1,1.1-1.1,1.7-1.1,3.3v6.3h17.5v-6.3
					C695.7,833.3,695.6,832.8,694.5,831.6z"/>
				<path fill="#6E6F71" d="M727.1,857.9v-37.9h4.8v33.5h17v4.4H727.1z"/>
			</g>
		</g>
	</g>
</g>
<g id="kruger">
</g>
<g id="misc">
</g>
<g id="tumbril">
</g>
<g id="Banu">
</g>
<g id="mirai">
</g>
<g id="Gatac">
</g>
<g id="Aopoa">
</g>
<g id="Argo">
</g>
<g id="Anvil_Aerospace">
</g>
<g id="Consolidated_Outland">
</g>
<g id="Shubin">
</g>
<g id="RSI">
</g>
<g id="Origin">
</g>
<g id="Misc">
</g>
<g id="Drake">
</g>
<g id="Curelife">
</g>
<g id="Crusader">
</g>
<g id="Bioticorp">
</g>
<g id="Aciedo">
</g>
<g id="Aegis">
</g>
</svg>
