<?xml version="1.0" encoding="utf-8"?>
<!-- Generator: Adobe Illustrator 27.2.0, SVG Export Plug-In . SVG Version: 6.00 Build 0)  -->
<svg version="1.1" baseProfile="tiny" id="Layer_1" xmlns="http://www.w3.org/2000/svg" xmlns:xlink="http://www.w3.org/1999/xlink"
	 x="0px" y="0px" viewBox="0 0 397.6 980" overflow="visible" xml:space="preserve">
<path id="opacity:40" fill="none" stroke="#6DB7C6" stroke-width="0.5" stroke-linecap="round" stroke-miterlimit="10" d="
	M184.7,3.5h-17.1c-2.6,0-4.9,1.4-6.2,3.6L26.2,237.6c-1.2,2.1-1.9,4.5-1.9,6.9v109"/>
<path fill="none" stroke="#6DB7C6" stroke-miterlimit="10" d="M17.7,383.4v-15.1c0-0.4,0-0.7,0.1-1.1l3.5-14.8
	c0.1-0.5,0.2-0.9,0.2-1.4V245.1c0-3.3,0.9-6.5,2.5-9.4l135-230.3c1.7-2.9,4.8-4.7,8.1-4.7H387"/>
<path fill="#6DB7C6" d="M185.6,1l2.5,3.7c0.1,0.2,0.3,0.3,0.5,0.3h12.7l3.1-4.1L185.6,1z"/>
<line fill="none" stroke="#6DB7C6" stroke-width="0.7836" stroke-miterlimit="10" x1="391.7" y1="2" x2="391.7" y2="0.2"/>
<circle fill="#E95495" cx="388.9" cy="0.8" r="0.8"/>
<rect x="394.3" y="0.8" fill="#E95495" width="3.3" height="0.8"/>
<rect x="394.3" y="2.5" fill="#E95495" width="1.4" height="1.4"/>
<path id="opacity:40_00000126298251264085094370000014407816516821833379_" fill="#6DB7C6" d="M21,384h0.6c1.6,0,2.9-1.3,2.9-2.9
	v-24.2l-0.9,0L21,367.8V384z"/>
<path id="opacity:40_00000174580712120807239730000016026661402412770238_" fill="none" stroke="#6DB7C6" stroke-width="0.5" stroke-linecap="round" stroke-miterlimit="10" d="
	M184.7,976.5h-17.1c-2.6,0-4.9-1.4-6.2-3.6L26.2,742.4c-1.2-2.1-1.9-4.5-1.9-6.9v-109"/>
<path fill="none" stroke="#6DB7C6" stroke-miterlimit="10" d="M17.7,596.6v15.1c0,0.4,0,0.7,0.1,1.1l3.5,14.8
	c0.1,0.5,0.2,0.9,0.2,1.4v105.9c0,3.3,0.9,6.5,2.5,9.4l135,230.3c1.7,2.9,4.8,4.7,8.1,4.7H387"/>
<path fill="#6DB7C6" d="M185.6,979l2.5-3.7c0.1-0.2,0.3-0.3,0.5-0.3h12.7l3.1,4.1L185.6,979z"/>
<line fill="none" stroke="#6DB7C6" stroke-width="0.7836" stroke-miterlimit="10" x1="391.7" y1="978" x2="391.7" y2="979.8"/>
<circle fill="#E95495" cx="388.9" cy="979.2" r="0.8"/>
<rect x="394.3" y="978.5" fill="#E95495" width="3.3" height="0.8"/>
<rect x="394.3" y="976.1" fill="#E95495" width="1.4" height="1.4"/>
<path id="opacity:40_00000165938566048865647780000011048940903798894004_" fill="#6DB7C6" d="M21,596h0.6c1.6,0,2.9,1.3,2.9,2.9
	v24.2l-0.9,0L21,612.2V596z"/>
</svg>
