<?xml version="1.0" encoding="utf-8"?>
<!-- Generator: Adobe Illustrator 27.2.0, SVG Export Plug-In . SVG Version: 6.00 Build 0)  -->
<svg version="1.1" baseProfile="tiny" id="Layer_1" xmlns="http://www.w3.org/2000/svg" xmlns:xlink="http://www.w3.org/1999/xlink"
	 x="0px" y="0px" viewBox="0 0 446.6 221" overflow="visible" xml:space="preserve">
<path fill="none" stroke="#6DB7C6" stroke-width="0.7365" stroke-miterlimit="10" d="M3.1,3.1l36.4,41.9l1.5,1.7
	c1.5,1.7,2.4,4,2.4,6.3v27.4"/>
<path id="opacity:40_00000104689828896272940960000000409120741758043057_" fill="none" stroke="#6DB7C6" stroke-width="0.3683" stroke-linecap="round" stroke-miterlimit="10" d="
	M0.9,4l36.7,42.3l1.7,2c1.3,1.4,2,3.3,2,5.2v24.2"/>
<line fill="none" stroke="#6DB7C6" stroke-width="0.7365" stroke-miterlimit="10" x1="43.4" y1="78.4" x2="43.4" y2="80.5"/>
<line fill="none" stroke="#6DB7C6" stroke-width="0.7365" stroke-miterlimit="10" x1="3.1" y1="3.1" x2="4.5" y2="4.8"/>
<polygon fill="#E95495" points="0.1,1.7 0,1.3 1.5,0 1.8,0.1 2.3,2.1 2,2.3 "/>
<path fill="none" stroke="#6DB7C6" stroke-width="0.7365" stroke-miterlimit="10" d="M3.1,217.9l36.4-41.9l1.5-1.7
	c1.5-1.7,2.4-4,2.4-6.3v-27.4"/>
<path id="opacity:40_00000065065644447568817540000009763053741236709249_" fill="none" stroke="#6DB7C6" stroke-width="0.3683" stroke-linecap="round" stroke-miterlimit="10" d="
	M0.9,217l36.7-42.3l1.7-2c1.3-1.4,2-3.3,2-5.2v-24.2"/>
<line fill="none" stroke="#6DB7C6" stroke-width="0.7365" stroke-miterlimit="10" x1="43.4" y1="142.6" x2="43.4" y2="140.5"/>
<line fill="none" stroke="#6DB7C6" stroke-width="0.7365" stroke-miterlimit="10" x1="3.1" y1="217.9" x2="4.5" y2="216.2"/>
<polygon fill="#E95495" points="0.1,219.3 0,219.7 1.5,221 1.8,220.9 2.3,218.9 2,218.7 "/>
<path fill="none" stroke="#6DB7C6" stroke-width="0.7365" stroke-miterlimit="10" d="M443.5,3.1l-36.4,41.9l-1.5,1.7
	c-1.5,1.7-2.4,4-2.4,6.3v27.4"/>
<path id="opacity:40" fill="none" stroke="#6DB7C6" stroke-width="0.3683" stroke-linecap="round" stroke-miterlimit="10" d="
	M445.7,4l-36.7,42.3l-1.7,2c-1.3,1.4-2,3.3-2,5.2v24.2"/>
<line fill="none" stroke="#6DB7C6" stroke-width="0.7365" stroke-miterlimit="10" x1="403.2" y1="78.4" x2="403.2" y2="80.5"/>
<line fill="none" stroke="#6DB7C6" stroke-width="0.7365" stroke-miterlimit="10" x1="443.5" y1="3.1" x2="442.1" y2="4.8"/>
<polygon fill="#E95495" points="446.5,1.7 446.6,1.3 445.1,0 444.8,0.1 444.3,2.1 444.6,2.3 "/>
<path fill="none" stroke="#6DB7C6" stroke-width="0.7365" stroke-miterlimit="10" d="M443.5,217.9l-36.4-41.9l-1.5-1.7
	c-1.5-1.7-2.4-4-2.4-6.3v-27.4"/>
<path id="opacity:40_00000174593085452546945000000005034021537758814354_" fill="none" stroke="#6DB7C6" stroke-width="0.3683" stroke-linecap="round" stroke-miterlimit="10" d="
	M445.7,217l-36.7-42.3l-1.7-2c-1.3-1.4-2-3.3-2-5.2v-24.2"/>
<line fill="none" stroke="#6DB7C6" stroke-width="0.7365" stroke-miterlimit="10" x1="403.2" y1="142.6" x2="403.2" y2="140.5"/>
<line fill="none" stroke="#6DB7C6" stroke-width="0.7365" stroke-miterlimit="10" x1="443.5" y1="217.9" x2="442.1" y2="216.2"/>
<polygon fill="#E95495" points="446.5,219.3 446.6,219.7 445.1,221 444.8,220.9 444.3,218.9 444.6,218.7 "/>
</svg>
