<?xml version="1.0" encoding="utf-8"?>
<!-- Generator: Adobe Illustrator 27.2.0, SVG Export Plug-In . SVG Version: 6.00 Build 0)  -->
<svg version="1.1" baseProfile="tiny" id="Layer_1" xmlns="http://www.w3.org/2000/svg" xmlns:xlink="http://www.w3.org/1999/xlink"
	 x="0px" y="0px" viewBox="0 0 397.6 980" overflow="visible" xml:space="preserve">
<path id="opacity:40" fill="none" stroke="#6DB7C6" stroke-width="0.5" stroke-linecap="round" stroke-miterlimit="10" d="
	M209.5,13.4h-17.1c-2.6,0-4.9,1.4-6.2,3.6L50.9,247.5c-1.2,2.1-1.9,4.5-1.9,6.9v30.8"/>
<path fill="none" stroke="#6DB7C6" stroke-miterlimit="10" d="M11.6,315.1h30.9V300c0-0.4,0-0.7,0.1-1.1l3.5-14.8
	c0.1-0.5,0.2-0.9,0.2-1.4V255c0-3.3,0.9-6.5,2.5-9.4l135-230.3c1.7-2.9,4.8-4.7,8.1-4.7h192.8"/>
<path fill="#6DB7C6" d="M210.3,10.8l2.5,3.7c0.1,0.2,0.3,0.3,0.5,0.3h15.4c0.2,0,0.4-0.2,0.4-0.4v-3.7L210.3,10.8z"/>
<line fill="none" stroke="#6DB7C6" stroke-width="0.7836" stroke-miterlimit="10" x1="389.4" y1="11.9" x2="389.4" y2="10.1"/>
<circle fill="#E95495" cx="386.6" cy="10.7" r="0.8"/>
<rect x="392" y="10.6" fill="#E95495" width="3.3" height="0.8"/>
<rect x="392" y="12.4" fill="#E95495" width="1.4" height="1.4"/>
<path id="opacity:40_00000129908396350539847680000010203683474312913835_" fill="#6DB7C6" d="M45.8,315.6h0.6
	c1.6,0,2.9-1.3,2.9-2.9v-24.2l-0.9,0l-2.5,10.8V315.6z"/>
<path id="opacity:40_00000147939254491083411630000000124705797621048244_" fill="none" stroke="#6DB7C6" stroke-width="0.5" stroke-linecap="round" stroke-miterlimit="10" d="
	M209.5,966.9h-17.1c-2.6,0-4.9-1.4-6.2-3.6L50.9,732.8c-1.2-2.1-1.9-4.5-1.9-6.9v-30.8"/>
<path fill="none" stroke="#6DB7C6" stroke-miterlimit="10" d="M11.6,665.2h30.9v15.1c0,0.4,0,0.7,0.1,1.1l3.5,14.8
	c0.1,0.5,0.2,0.9,0.2,1.4v27.6c0,3.3,0.9,6.5,2.5,9.4l135,230.3c1.7,2.9,4.8,4.7,8.1,4.7h192.8"/>
<path fill="#6DB7C6" d="M210.3,969.5l2.5-3.7c0.1-0.2,0.3-0.3,0.5-0.3h15.4c0.2,0,0.4,0.2,0.4,0.4v3.7L210.3,969.5z"/>
<line fill="none" stroke="#6DB7C6" stroke-width="0.7836" stroke-miterlimit="10" x1="389.4" y1="968.4" x2="389.4" y2="970.2"/>
<circle fill="#E95495" cx="386.6" cy="969.6" r="0.8"/>
<rect x="392" y="968.9" fill="#E95495" width="3.3" height="0.8"/>
<rect x="392" y="966.5" fill="#E95495" width="1.4" height="1.4"/>
<path id="opacity:40_00000182491866574213374810000002740137979802241154_" fill="#6DB7C6" d="M45.8,664.7h0.6
	c1.6,0,2.9,1.3,2.9,2.9v24.2l-0.9,0l-2.5-10.8V664.7z"/>
<path fill="none" stroke="#6DB7C6" stroke-width="0.75" stroke-linecap="round" stroke-miterlimit="10" d="M7.3,665.2
	c-2.6,0-4.7-2.1-4.7-4.7V319.7c0-2.6,2.1-4.7,4.7-4.7"/>
<line id="opacity:40_00000085939545703923236420000012306027781672897709_" fill="none" stroke="#6DB7C6" stroke-width="0.75" stroke-linecap="round" stroke-miterlimit="10" x1="6" y1="318.8" x2="6" y2="661"/>
</svg>
