<?xml version="1.0" encoding="utf-8"?>
<!-- Generator: Adobe Illustrator 27.8.0, SVG Export Plug-In . SVG Version: 6.00 Build 0)  -->
<svg version="1.1" baseProfile="tiny" id="Layer_1" xmlns="http://www.w3.org/2000/svg" xmlns:xlink="http://www.w3.org/1999/xlink"
	 x="0px" y="0px" viewBox="0 0 64 64" overflow="visible" xml:space="preserve">
<path id="opacity:15" fill="#FFFFFF" d="M42.3,15.3L33,5.4l4.5-4.2c0.2-0.2,0.6-0.2,0.8,0l8.5,9.2c0.2,0.2,0.2,0.6,0,0.8L42.3,15.3z
	"/>
<path id="opacity:75_00000157294474047405749920000010922584836953146298_" fill="#FFFFFF" d="M17.8,28.7v25h23.9v-25H17.8z
	 M33.7,47.3c-1,1.2-2.4,1.7-3.9,1.7c-1.4,0-2.9-0.6-3.9-1.7c-0.9-1-1.3-2.2-1.3-3.4c0-0.9,0.2-1.8,0.7-2.6l4.5-8l4.5,8
	C35.4,43.3,35.1,45.7,33.7,47.3z"/>
<path id="opacity:75_00000065786348254210983980000013761658925161635732_" fill="#FFFFFF" d="M41.8,57.6v2.7c0,1.5-1.2,2.7-2.7,2.7
	H20.5c-1.5,0-2.7-1.2-2.7-2.7v-2.7H41.8z"/>
<path id="opacity:75" fill="#FFFFFF" d="M41.8,24.7v0.4H17.8v-0.4c0-3.7,2-7.1,5.3-8.9l3.4-1.8h0v-2.9H33V14l3.4,1.8
	C39.7,17.6,41.8,21,41.8,24.7z"/>
</svg>
