<?xml version="1.0" encoding="utf-8"?>
<!-- Generator: Adobe Illustrator 27.8.0, SVG Export Plug-In . SVG Version: 6.00 Build 0)  -->
<svg version="1.1" baseProfile="tiny" id="Layer_1" xmlns="http://www.w3.org/2000/svg" xmlns:xlink="http://www.w3.org/1999/xlink"
	 x="0px" y="0px" viewBox="0 0 64 64" overflow="visible" xml:space="preserve">
<path fill="#FFFFFF" d="M43.8,21.6v1.2H20.2v-1.2c0-3.2,1.5-6.2,4.1-8.1l3.8-2.8V9.1h-2.8V3.3c0-0.4,0.4-0.8,0.8-0.8h11.8
	c0.4,0,0.8,0.4,0.8,0.8v5.8h-2.8v1.6l3.8,2.8C42.3,15.4,43.8,18.4,43.8,21.6z"/>
<path fill="#FFFFFF" d="M20.2,27.1v24.6h23.6V27.1H20.2z M35.2,44.5c-0.9,1-2,1.5-3.2,1.5c-1.2,0-2.4-0.5-3.2-1.5
	c-0.7-0.8-1.1-1.8-1.1-2.9c0-0.7,0.2-1.5,0.6-2.1l3.8-6.6l3.7,6.6C36.7,41.1,36.4,43.1,35.2,44.5z"/>
<path fill="#FFFFFF" d="M43.8,56.1v2.7c0,1.5-1.2,2.7-2.7,2.7H22.9c-1.5,0-2.7-1.2-2.7-2.7v-2.7H43.8z"/>
</svg>
