<?xml version="1.0" encoding="utf-8"?>
<!-- Generator: Adobe Illustrator 27.8.0, SVG Export Plug-In . SVG Version: 6.00 Build 0)  -->
<svg version="1.1" baseProfile="tiny" id="Layer_1" xmlns="http://www.w3.org/2000/svg" xmlns:xlink="http://www.w3.org/1999/xlink"
	 x="0px" y="0px" viewBox="0 0 506.2 91.2" overflow="visible" xml:space="preserve">
<path id="opacity:3" fill="#8DCCFF" d="M505.3,28.9L505.3,28.9c-1.5-11.6-12.4-21.4-24.8-21.4H25.7C13.4,7.5,2.6,17.1,1,28.6
	c0,0,0,0,0,0c0,0,0,0,0,0c-0.2,0.9-0.4,1.9-0.5,2.8l0.1-2.9c0-0.2,0-0.4,0-0.6C2.3,15.7,12.9,6.2,25.7,6.2h454.8
	c12.8,0,23.4,9.5,25.2,21.9c0,0.2,0,0.3,0,0.5l0.1,3C505.7,30.7,505.5,29.8,505.3,28.9z"/>
<path id="opacity:70" fill="#8DCCFF" d="M505.6,25.5c0-12.3-12.1-24.2-25.4-24.2H26C12.7,1.2,0.6,13.1,0.6,25.5C0.6,11.4,12,0,26,0
	h454.2C494.2,0,505.6,11.4,505.6,25.5z"/>
<path id="opacity:0.5" fill="#8DCCFF" d="M506.2,50.8v40.5l-0.8-56.8c0-12.8-11.3-24.2-24.7-24.2H25.5c-13.4,0-24.7,11.4-24.7,24.2
	L0,91.2V50.8l0.5-19.1c0-1,0.1-2,0.2-2.9c0,0,0,0,0,0c0,0,0,0,0,0C3.3,17.4,13.4,9,25.5,9h455.3c12.1,0,22.2,8.5,24.8,19.8v0
	c0.1,0.9,0.2,1.9,0.2,2.8L506.2,50.8z"/>
<path id="opacity:10" fill="#8DCCFF" d="M505.8,28.6v3c0-1.2-0.1-2.4-0.2-3.6c-0.3-12.1-12-23.7-25.2-23.7H25.9
	C12.8,4.4,1.1,15.9,0.7,28c-0.2,1.2-0.3,2.4-0.3,3.7v-3c0-1.1,0.1-2.1,0.2-3.1C2.2,12.9,12.9,3.2,25.9,3.2h454.5
	c13,0,23.7,9.8,25.2,22.3C505.7,26.5,505.8,27.5,505.8,28.6z"/>
</svg>
