<?xml version="1.0" encoding="utf-8"?>
<!-- Generator: Adobe Illustrator 28.7.5, SVG Export Plug-In . SVG Version: 9.03 Build 55973)  -->
<svg version="1.1" baseProfile="tiny" id="Layer_1" xmlns="http://www.w3.org/2000/svg" xmlns:xlink="http://www.w3.org/1999/xlink"
	 x="0px" y="0px" viewBox="0 0 563.5 617.4" overflow="visible" xml:space="preserve">
<g>
	<g>
		<g>
			<g>
				<path fill="#EB434A" d="M464.1,338.5l-58.4-99.6c-3.4-5.8-9.6-9.4-16.3-9.5l-1.6,0c-6.8-0.1-13.1-3.8-16.5-9.7l-83-145.3
					C295.6,47.2,299.7,32,307,5l8.6-5l205.3,355.5l-8.6,5L464.1,338.5z"/>
				<path fill="#EB434A" d="M100.6,338.1l58.4-99.4c3.5-5.9,9.8-9.5,16.6-9.5h0c6.9,0,13.3-3.7,16.7-9.7l82.9-145.2
					c-7.3-27-11.4-42.3-18.7-69.3l-8.6-5L42.6,355.5l8.6,5L100.6,338.1z"/>
				<path fill="#EB434A" d="M502,399v9.9H60.9V399l46.3-48.6H206c4.6,0,8.9,2.2,11.6,5.9L226,368c2.7,3.7,7,5.9,11.6,5.9h91.3
					c5.2,0,10-2.9,12.5-7.5l4.6-8.6c2.5-4.6,7.3-7.5,12.5-7.5h99L502,399z"/>
			</g>
		</g>
	</g>
	<g>
		<polygon fill="#EB434A" points="83.1,617.4 134,617.4 111,578.4 106.1,578.4 		"/>
		<path fill="#C0D0C6" d="M541.4,479.4c-14.2-14.1-34-21.9-55.8-21.9H241c-15.7,0-28.9,4.7-38.1,13.5c-8.9,8.6-13.6,20.4-13.6,34.1
			c0,13.7,5,26,14,34.7c9.3,8.9,22.2,13.6,37.3,13.6h67.5c13.3,0,15,6.7,15,12.6c0,10.6-8.2,12.8-15,12.8H193.6l-67.4-111.9
			c-1.7-2.8-6.8-11.4-17.8-11.4c-7.4,0-13.5,3.8-18,11.4L0,617.4h44.3l63.1-106.6l63.4,106.6h20.7h25.3h91.3
			c32.1,0,52.1-19,52.1-49.5c0-31.5-18.5-48.9-52.1-48.9h-67.3c-5.5,0-12-2-12-11.4c0-7.7,4.1-11.6,12.2-11.6h244.6
			c23.2,0,39.5,16.9,39.5,41.1c0,24.2-16.6,41.7-39.5,41.7h-63.8V520h-38.3v97.4h102.1c44.5,0,78-35,78-81.4
			C563.5,513.7,555.6,493.6,541.4,479.4z"/>
	</g>
</g>
</svg>
