<?xml version="1.0" encoding="utf-8"?>
<!-- Generator: Adobe Illustrator 29.5.0, SVG Export Plug-In . SVG Version: 9.03 Build 0)  -->
<svg version="1.1" baseProfile="tiny" id="Layer_1" xmlns="http://www.w3.org/2000/svg" xmlns:xlink="http://www.w3.org/1999/xlink"
	 x="0px" y="0px" viewBox="0 0 1194.7 313.5" overflow="visible" xml:space="preserve">
<path id="shape" d="M1140.6,113.3H48.8v-3h1091.8L1140.6,113.3L1140.6,113.3z M1140.6,203.2H48.8v-3h1091.8L1140.6,203.2
	L1140.6,203.2z M25.8,263.6l24-29.2l56.4,56.4H53L25.8,263.6L25.8,263.6z M161.3,290.7h53.2L143.7,220H90.5L161.3,290.7L161.3,290.7
	z M486.3,290.7h53.2L468.8,220h-53.2L486.3,290.7L486.3,290.7z M655.6,290.7h53.2l70.8-70.8h-53.2L655.6,290.7L655.6,290.7z
	 M269.6,290.7h53.2L252.1,220h-53.2L269.6,290.7L269.6,290.7z M378,290.7h53.2L360.4,220h-53.2L378,290.7L378,290.7z M1089,290.7
	h53.2l26.9-26.8l-24-29.2L1089,290.7L1089,290.7z M764,290.7h53.2L888,220h-53.2L764,290.7L764,290.7z M594.7,290.7h5.8l70.8-70.8
	h-53.2l-20.5,20.5L577.1,220h-53.2L594.7,290.7L594.7,290.7z M980.7,290.7h53.2l70.8-70.8h-53.2L980.7,290.7L980.7,290.7z
	 M872.3,290.7h53.2l70.8-70.8h-53.2L872.3,290.7L872.3,290.7z M342.3,93.6l-70.8-70.8h-53.2l70.8,70.8H342.3L342.3,93.6z
	 M450.6,93.6l-70.8-70.8h-53.2l70.8,70.8H450.6L450.6,93.6z M543.3,22.8L597.6,77l54.3-54.3L543.3,22.8L543.3,22.8z M559,93.6
	l-70.8-70.8H435l70.8,70.8H559L559,93.6z M234,93.6l-70.8-70.8H110l70.8,70.8H234L234,93.6z M72.4,93.6h53.2L54.8,22.8h-32V44
	L72.4,93.6L72.4,93.6z M797.8,93.6l70.8-70.8h-53.2l-70.8,70.8H797.8L797.8,93.6z M1014.4,93.6l70.8-70.8H1032l-70.8,70.8H1014.4
	L1014.4,93.6z M636.2,93.6h53.2l70.8-70.8H707L636.2,93.6L636.2,93.6z M906.1,93.6l70.8-70.8h-53.2l-70.8,70.8H906.1L906.1,93.6z
	 M1122.8,93.6l49.1-49.1V22.8h-31.5l-70.8,70.8L1122.8,93.6L1122.8,93.6z"/>
<path id="colorstyle:Positive" d="M1180.4,0H14.3C6.4,0,0,6.4,0,14.3v284.9c0,7.9,6.4,14.3,14.3,14.3h1166.1
	c7.9,0,14.3-6.4,14.3-14.3V14.3C1194.7,6.4,1188.2,0,1180.4,0z M1191.5,70.2c0,1.7-0.7,3.3-1.9,4.5l-17,17c-1.2,1.2-1.9,2.8-1.9,4.5
	v121.1c0,1.7,0.7,3.3,1.9,4.5l17,17c1.2,1.2,1.9,2.8,1.9,4.5v55.9c0,6.1-5,11.1-11.1,11.1H14.3c-6.1,0-11.1-5-11.1-11.1v-55.9
	c0-1.7,0.7-3.3,1.9-4.5l17-17c1.2-1.2,1.9-2.8,1.9-4.5V96.2c0-1.7-0.7-3.3-1.9-4.5l-17-17c-1.2-1.2-1.9-2.8-1.9-4.5V14.3
	c0-6.1,5-11.1,11.1-11.1h1166.1c6.1,0,11.1,5,11.1,11.1V70.2z"/>
</svg>
