<?xml version="1.0" encoding="utf-8"?>
<!-- Generator: Adobe Illustrator 28.7.5, SVG Export Plug-In . SVG Version: 9.03 Build 55973)  -->
<svg version="1.1" baseProfile="tiny" id="Layer_1" xmlns="http://www.w3.org/2000/svg" xmlns:xlink="http://www.w3.org/1999/xlink"
	 x="0px" y="0px" viewBox="0 0 1194.7 313.5" overflow="visible" xml:space="preserve">
<path id="colorstyle:Accent1" d="M18.5,297.3c-1.3,0-2.4-1.1-2.4-2.4v-46.7c0-0.6,0.2-1.2,0.7-1.7L34.4,229c2-2,3-4.6,3-7.3V91.8
	c0-2.8-1.1-5.4-3-7.3L16.9,66.9c-0.4-0.4-0.7-1-0.7-1.7V18.5c0-1.3,1.1-2.4,2.4-2.4h1157.6c1.3,0,2.4,1.1,2.4,2.4v46.7
	c0,0.6-0.2,1.2-0.7,1.7l-17.5,17.5c-2,2-3,4.6-3,7.3v129.9c0,2.8,1.1,5.4,3,7.3l17.5,17.5c0.4,0.4,0.7,1,0.7,1.7V295
	c0,1.3-1.1,2.4-2.4,2.4H18.5V297.3z"/>
</svg>
