<?xml version="1.0" encoding="utf-8"?>
<!-- Generator: Adobe Illustrator 24.3.0, SVG Export Plug-In . SVG Version: 6.00 Build 0)  -->
<svg version="1.1" baseProfile="tiny" xmlns="http://www.w3.org/2000/svg" xmlns:xlink="http://www.w3.org/1999/xlink" x="0px"
	 y="0px" viewBox="0 0 32 32" overflow="visible" xml:space="preserve">
<g id="DownLeft">
	<g>
		<path fill="#FFFFFF" d="M30.9,5.1l-25,23.3h22.9c0.8,0,1.6,0.7,1.6,1.5c0,0.8-0.7,1.5-1.6,1.5H2.2c-0.8,0-1.6-0.6-1.6-1.5V5.2
			c0-0.8,0.7-1.5,1.6-1.5c0.9,0,1.6,0.6,1.6,1.5v21L28.7,3.1c0.6-0.6,1.6-0.6,2.2,0C31.5,3.7,31.5,4.6,30.9,5.1z"/>
	</g>
</g>
<g id="Circle" display="none">
	<path display="inline" fill="#FFFFFF" d="M16,31.3C7.5,31.3,0.7,24.5,0.7,16S7.5,0.7,16,0.7S31.3,7.5,31.3,16S24.5,31.3,16,31.3z
		 M16,3C8.9,3,3,8.9,3,16s5.8,13,13,13s13-5.8,13-13S23.1,3,16,3z"/>
</g>
<g id="Close" display="none">
	<path display="inline" fill="#FFFFFF" d="M13.3,13.9c-0.3,0-0.5-0.1-0.7-0.3L0.8,2.8C0.4,2.4,0.3,1.8,0.7,1.3
		c0.4-0.4,1.1-0.5,1.5-0.1L14,12c0.4,0.4,0.5,1.1,0.1,1.5C13.9,13.7,13.6,13.9,13.3,13.9z"/>
	<path display="inline" fill="#FFFFFF" d="M30.5,31c-0.3,0-0.5-0.1-0.7-0.3L18,20c-0.4-0.4-0.5-1.1-0.1-1.5c0.4-0.4,1.1-0.5,1.5-0.1
		l11.8,10.7c0.4,0.4,0.5,1.1,0.1,1.5C31.1,30.9,30.8,31,30.5,31z"/>
	<path display="inline" fill="#FFFFFF" d="M18.7,13.9c-0.3,0-0.6-0.1-0.8-0.4c-0.4-0.4-0.4-1.1,0.1-1.5L29.8,1.3
		c0.4-0.4,1.1-0.4,1.5,0.1c0.4,0.4,0.4,1.1-0.1,1.5L19.4,13.6C19.2,13.8,18.9,13.9,18.7,13.9z"/>
	<path display="inline" fill="#FFFFFF" d="M1.5,31c-0.3,0-0.6-0.1-0.8-0.4c-0.4-0.4-0.4-1.1,0.1-1.5l11.8-10.7
		c0.4-0.4,1.1-0.4,1.5,0.1c0.4,0.4,0.4,1.1-0.1,1.5L2.2,30.7C2,30.9,1.8,31,1.5,31z"/>
</g>
</svg>
