<?xml version="1.0" encoding="utf-8"?>
<!-- Generator: Adobe Illustrator 24.3.0, SVG Export Plug-In . SVG Version: 6.00 Build 0)  -->
<svg version="1.1" baseProfile="tiny" xmlns="http://www.w3.org/2000/svg" xmlns:xlink="http://www.w3.org/1999/xlink" x="0px"
	 y="0px" viewBox="0 0 32 32" overflow="visible" xml:space="preserve">
<g id="DownLeft" display="none">
	<g>
		<path display="inline" fill="#C5C8D8" d="M30.1,3.8L6.4,26.5h21.7c0.8,0,1.5,0.7,1.5,1.4c0,0.8-0.7,1.4-1.5,1.4H3
			c-0.8,0-1.5-0.6-1.5-1.4v-24c0-0.8,0.7-1.4,1.5-1.4c0.8,0,1.5,0.6,1.5,1.4v20.4L28,1.8c0.6-0.5,1.5-0.5,2.1,0
			C30.6,2.4,30.6,3.2,30.1,3.8z"/>
	</g>
</g>
<g id="Circle" display="none">
	<path display="inline" fill="#C5C8D8" d="M16,30.5C8,30.5,1.5,24,1.5,16S8,1.5,16,1.5S30.5,8,30.5,16S24,30.5,16,30.5z M16,3.8
		C9.3,3.8,3.8,9.3,3.8,16S9.3,28.2,16,28.2S28.2,22.7,28.2,16S22.7,3.8,16,3.8z"/>
</g>
<g id="Close">
	<path fill="#FFFFFF" d="M13.3,13.9c-0.3,0-0.5-0.1-0.7-0.3L0.8,2.8C0.4,2.4,0.3,1.8,0.7,1.3c0.4-0.4,1.1-0.5,1.5-0.1L14,12
		c0.4,0.4,0.5,1.1,0.1,1.5C13.9,13.7,13.6,13.9,13.3,13.9z"/>
	<path fill="#FFFFFF" d="M30.5,31c-0.3,0-0.5-0.1-0.7-0.3L18,20c-0.4-0.4-0.5-1.1-0.1-1.5c0.4-0.4,1.1-0.5,1.5-0.1l11.8,10.7
		c0.4,0.4,0.5,1.1,0.1,1.5C31.1,30.9,30.8,31,30.5,31z"/>
	<path fill="#FFFFFF" d="M18.7,13.9c-0.3,0-0.6-0.1-0.8-0.4c-0.4-0.4-0.4-1.1,0.1-1.5L29.8,1.3c0.4-0.4,1.1-0.4,1.5,0.1
		c0.4,0.4,0.4,1.1-0.1,1.5L19.4,13.6C19.2,13.8,18.9,13.9,18.7,13.9z"/>
	<path fill="#FFFFFF" d="M1.5,31c-0.3,0-0.6-0.1-0.8-0.4c-0.4-0.4-0.4-1.1,0.1-1.5l11.8-10.7c0.4-0.4,1.1-0.4,1.5,0.1
		c0.4,0.4,0.4,1.1-0.1,1.5L2.2,30.7C2,30.9,1.8,31,1.5,31z"/>
</g>
</svg>
