<?xml version="1.0" encoding="utf-8"?>
<!-- Generator: Adobe Illustrator 26.0.2, SVG Export Plug-In . SVG Version: 6.00 Build 0)  -->
<svg version="1.1" id="Layer_1" xmlns="http://www.w3.org/2000/svg" xmlns:xlink="http://www.w3.org/1999/xlink" x="0px" y="0px"
	 viewBox="0 0 343 343" style="enable-background:new 0 0 343 343;" xml:space="preserve">
<g>
	<path d="M105.4,294.4l-13.4,0c-0.3,0-0.5-0.2-0.5-0.5l0-0.1c0-1.4-1.2-2.6-2.6-2.6H59.2c-0.6,0-1.2-0.2-1.8-0.4
		c-0.6-0.2-1.1-0.6-1.5-1c-0.9-0.9-1.4-2.1-1.4-3.3l0-29.5c0-1.1-0.3-2.1-1.2-2.8c-0.5-0.4-1.1-0.6-1.7-0.6c-0.4,0-0.6-0.2-0.6-0.5
		V240c0-0.6-0.4-1-1-1s-1,0.4-1,1v46.7c0,5.4,4.4,9.8,9.8,9.8h0.1c0,0,0,0,0,0l46.5,0c0.6,0,1-0.4,1-1S106,294.4,105.4,294.4z"/>
	<path d="M108.5,298.1l1.7-3.2c0.3-0.6,1.1-0.6,1.4-0.1l2,3.2c0.3,0.5-0.1,1.3-0.7,1.3l-3.7,0C108.6,299.3,108.2,298.7,108.5,298.1z
		"/>
	<path d="M47.4,231.2l3.2,1.7c0.6,0.3,0.6,1.1,0.1,1.4l-3.2,2c-0.5,0.3-1.3-0.1-1.3-0.7l0-3.7C46.2,231.3,46.9,230.9,47.4,231.2z"/>
</g>
<g>
	<path d="M105.4,51.2l-13.4,0c-0.3,0-0.5,0.2-0.5,0.5l0,0.1c0,1.4-1.2,2.6-2.6,2.6H59.2c-0.6,0-1.2,0.2-1.8,0.4
		c-0.6,0.2-1.1,0.6-1.5,1c-0.9,0.9-1.4,2.1-1.4,3.3l0,29.5c0,1.1-0.3,2.1-1.2,2.8c-0.5,0.4-1.1,0.6-1.7,0.6c-0.4,0-0.6,0.2-0.6,0.5
		v13.1c0,0.6-0.4,1-1,1s-1-0.4-1-1V59c0-5.4,4.4-9.8,9.8-9.8h0.1c0,0,0,0,0,0l46.5,0c0.6,0,1,0.4,1,1S106,51.2,105.4,51.2z"/>
	<path d="M108.5,47.5l1.7,3.2c0.3,0.6,1.1,0.6,1.4,0.1l2-3.2c0.3-0.5-0.1-1.3-0.7-1.3l-3.7,0C108.6,46.3,108.2,47,108.5,47.5z"/>
	<path d="M47.4,114.5l3.2-1.7c0.6-0.3,0.6-1.1,0.1-1.4l-3.2-2c-0.5-0.3-1.3,0.1-1.3,0.7l0,3.7C46.2,114.3,46.9,114.7,47.4,114.5z"/>
</g>
<g>
	<path d="M237.9,294.4l13.4,0c0.3,0,0.5-0.2,0.5-0.5l0-0.1c0-1.4,1.2-2.6,2.6-2.6h29.8c0.6,0,1.2-0.2,1.8-0.4c0.6-0.2,1.1-0.6,1.5-1
		c0.9-0.9,1.4-2.1,1.4-3.3v-29.5c0-1.1,0.3-2.1,1.2-2.8c0.5-0.4,1.1-0.6,1.7-0.6c0.4,0,0.6-0.2,0.6-0.5V240c0-0.6,0.4-1,1-1
		s1,0.4,1,1v46.7c0,5.4-4.4,9.8-9.8,9.8h-0.1c0,0,0,0,0,0l-46.5,0c-0.6,0-1-0.4-1-1S237.4,294.4,237.9,294.4z"/>
	<path d="M234.9,298.1l-1.7-3.2c-0.3-0.6-1.1-0.6-1.4-0.1l-2,3.2c-0.3,0.5,0.1,1.3,0.7,1.3l3.7,0
		C234.8,299.3,235.2,298.7,234.9,298.1z"/>
	<path d="M296,231.2l-3.2,1.7c-0.6,0.3-0.6,1.1-0.1,1.4l3.2,2c0.5,0.3,1.3-0.1,1.3-0.7v-3.7C297.2,231.3,296.5,230.9,296,231.2z"/>
</g>
<g>
	<path d="M237.9,51.2l13.4,0c0.3,0,0.5,0.2,0.5,0.5l0,0.1c0,1.4,1.2,2.6,2.6,2.6h29.8c0.6,0,1.2,0.2,1.8,0.4c0.6,0.2,1.1,0.6,1.5,1
		c0.9,0.9,1.4,2.1,1.4,3.3v29.5c0,1.1,0.3,2.1,1.2,2.8c0.5,0.4,1.1,0.6,1.7,0.6c0.4,0,0.6,0.2,0.6,0.5v13.1c0,0.6,0.4,1,1,1
		s1-0.4,1-1V59c0-5.4-4.4-9.8-9.8-9.8h-0.1c0,0,0,0,0,0l-46.5,0c-0.6,0-1,0.4-1,1S237.4,51.2,237.9,51.2z"/>
	<path d="M234.9,47.5l-1.7,3.2c-0.3,0.6-1.1,0.6-1.4,0.1l-2-3.2c-0.3-0.5,0.1-1.3,0.7-1.3l3.7,0C234.8,46.3,235.2,47,234.9,47.5z"/>
	<path d="M296,114.5l-3.2-1.7c-0.6-0.3-0.6-1.1-0.1-1.4l3.2-2c0.5-0.3,1.3,0.1,1.3,0.7v3.7C297.2,114.3,296.5,114.7,296,114.5z"/>
</g>
<rect x="80.8" y="302.9" width="1.4" height="6"/>
<rect x="79" y="302.9" width="0.7" height="6"/>
<rect x="76.2" y="302.9" width="2.3" height="6"/>
<rect x="73.8" y="302.9" width="1.8" height="6"/>
<rect x="68.6" y="302.9" width="4.5" height="6"/>
<rect x="66.5" y="302.9" width="1.3" height="6"/>
<rect x="50" y="302.9" transform="matrix(-1 -1.224647e-16 1.224647e-16 -1 101.4061 611.7648)" width="1.4" height="6"/>
<rect x="52.5" y="302.9" transform="matrix(-1 -1.224647e-16 1.224647e-16 -1 105.7414 611.7648)" width="0.7" height="6"/>
<rect x="53.6" y="302.9" transform="matrix(-1 -1.224647e-16 1.224647e-16 -1 108.9051 611.7648)" width="1.6" height="6"/>
<rect x="56.7" y="302.9" transform="matrix(-1 -1.224647e-16 1.224647e-16 -1 115.1152 611.7648)" width="1.8" height="6"/>
<rect x="59.1" y="302.9" transform="matrix(-1 -1.224647e-16 1.224647e-16 -1 122.7313 611.7648)" width="4.5" height="6"/>
<rect x="65.1" y="302.9" transform="matrix(-1 -1.224647e-16 1.224647e-16 -1 130.7576 611.7648)" width="0.6" height="6"/>
</svg>
