<?xml version="1.0" encoding="utf-8"?>
<!-- Generator: Adobe Illustrator 24.3.0, SVG Export Plug-In . SVG Version: 6.00 Build 0)  -->
<svg version="1.1" baseProfile="tiny" id="Layer_1" xmlns="http://www.w3.org/2000/svg" xmlns:xlink="http://www.w3.org/1999/xlink"
	 x="0px" y="0px" viewBox="0 0 32 32" overflow="visible" xml:space="preserve">
<polyline fill="#626672" points="22,4 10,4 10,5 22,5 "/>
<polygon fill="#A1A3B2" points="8,3 3,3 3,8 5,8 5,5 8,5 "/>
<rect fill="#C5C8D8" width="2" height="2"/>
<polygon fill="#A1A3B2" points="24,3 29,3 29,8 27,8 27,5 24,5 "/>
<polyline fill="#393B4C" points="28,22 28,10 28,10 27,10 27,10 27,22 "/>
<rect x="30" fill="#C5C8D8" width="2" height="2"/>
<polyline fill="#626672" points="22,28 10,28 10,27 22,27 "/>
<polygon fill="#A1A3B2" points="8,29 3,29 3,24 5,24 5,27 8,27 "/>
<polyline fill="#393B4C" points="4,10 4,22 4,22 5,22 5,22 5,10 "/>
<rect y="30" fill="#C5C8D8" width="2" height="2"/>
<polygon fill="#A1A3B2" points="24,29 29,29 29,24 27,24 27,27 24,27 "/>
<rect x="30" y="30" fill="#C5C8D8" width="2" height="2"/>
</svg>
