<?xml version="1.0" encoding="utf-8"?>
<!-- Generator: Adobe Illustrator 26.3.1, SVG Export Plug-In . SVG Version: 6.00 Build 0)  -->
<svg version="1.1" baseProfile="tiny" id="Layer_1" xmlns="http://www.w3.org/2000/svg" xmlns:xlink="http://www.w3.org/1999/xlink"
	 x="0px" y="0px" viewBox="0 0 283.7 493.8" overflow="visible" xml:space="preserve">
<g>
	<path fill="#6CB8C7" d="M228.3,477.7h-57.8c-1.9,0-3.6-1.2-4.2-3c-0.7-1.8-0.1-3.8,1.3-5l17.8-15c0.8-0.7,1.9-1.1,3-1.1h57.5
		c1.9,0,3.6,1.2,4.3,3s0.1,3.8-1.3,5.1l-17.7,14.9C230.4,477.3,229.4,477.7,228.3,477.7z M188.4,454.7c-0.8,0-1.7,0.3-2.3,0.8
		l-17.8,15c-1.4,1.2-1.4,2.8-1,3.9s1.5,2.3,3.3,2.3h57.8c0.8,0,1.6-0.3,2.2-0.8l17.7-14.9c1.4-1.2,1.5-2.8,1.1-4s-1.5-2.3-3.4-2.3
		H188.4z"/>
	<path fill="#6CB8C7" d="M108.5,477.7H50.7c-1.9,0-3.6-1.2-4.2-3c-0.7-1.8-0.1-3.7,1.3-5l17.8-15c0.8-0.7,1.9-1.1,3-1.1h57.5
		c1.9,0,3.6,1.2,4.3,3s0.1,3.8-1.3,5.1l-17.7,14.9C110.6,477.3,109.6,477.7,108.5,477.7z M68.6,454.7c-0.8,0-1.7,0.3-2.3,0.8
		l-17.8,15c-1.4,1.2-1.4,2.8-1,3.9s1.5,2.3,3.3,2.3h57.8c0.8,0,1.6-0.3,2.2-0.8l17.7-14.9c1.4-1.2,1.5-2.8,1.1-4s-1.5-2.3-3.4-2.3
		H68.6z"/>
</g>
</svg>
