<?xml version="1.0" encoding="utf-8"?>
<!-- Generator: Adobe Illustrator 27.8.0, SVG Export Plug-In . SVG Version: 6.00 Build 0)  -->
<svg version="1.1" baseProfile="tiny" id="animated"
	 xmlns="http://www.w3.org/2000/svg" xmlns:xlink="http://www.w3.org/1999/xlink" x="0px" y="0px" viewBox="0 0 195.9 119.6"
	 overflow="visible" xml:space="preserve">
<g id="_x35_">
	<g id="opacity:100_00000056410027648781104600000004759874334367550101_">
		<polygon fill="#FFFFFF" points="68.4,0 68.4,7 41.3,34.2 41.3,119.6 27,119.6 27,34 0,7 0,0 		"/>
	</g>
	<polygon id="opacity:100_00000054976837260331229620000003184954051332873661_" fill="#FFFFFF" points="57.8,109 76.9,93 
		76.9,119.6 57.8,119.6 	"/>
	<polygon id="opacity:100_00000019638787787910959440000003130195168527727281_" fill="#FFFFFF" points="90.3,81.8 112.6,63.1 
		112.6,119.6 90.3,119.6 	"/>
	<polygon id="opacity:100_00000147186864383323062860000013794470545653732752_" fill="#FFFFFF" points="126.1,51.9 151.9,30.2 
		151.9,119.6 126.1,119.6 	"/>
	<polygon id="opacity:100_00000116938861574083865990000005877006212240841399_" fill="#FFFFFF" points="195.9,0 195.9,119.6 
		165.3,119.6 165.3,19 188,0 	"/>
</g>
<g id="_x34__00000053522614835035550090000008731373108907997109_" display="none">
	<g id="opacity:100_00000095300852096287286550000014336844979547269508_" display="inline">
		<polygon fill="#FFFFFF" points="68.4,0 68.4,7 41.3,34.2 41.3,119.6 27,119.6 27,34 0,7 0,0 		"/>
	</g>
	<polygon id="opacity:100_00000011747658330044234150000002287311723994188454_" display="inline" fill="#FFFFFF" points="57.8,109 
		76.9,93 76.9,119.6 57.8,119.6 	"/>
	<polygon id="opacity:100_00000105392666120873610980000003311652134760124591_" display="inline" fill="#FFFFFF" points="
		90.3,81.8 112.6,63.1 112.6,119.6 90.3,119.6 	"/>
	<polygon id="opacity:100_00000138551320921151350650000004064082365071793295_" display="inline" fill="#FFFFFF" points="
		126.1,51.9 151.9,30.2 151.9,119.6 126.1,119.6 	"/>
	<polygon id="opacity:8_00000114757083135589143330000016941605369123225261_" display="inline" fill="#FFFFFF" points="195.9,0 
		195.9,119.6 165.3,119.6 165.3,19 188,0 	"/>
</g>
<g id="_x33__00000028284568079072162430000001206797576790763150_" display="none">
	<g id="opacity:100_00000058556150033346719190000010408020880144589735_" display="inline">
		<polygon fill="#FFFFFF" points="68.4,0 68.4,7 41.3,34.2 41.3,119.6 27,119.6 27,34 0,7 0,0 		"/>
	</g>
	<polygon id="opacity:100_00000063593212206643221580000004108528055869426620_" display="inline" fill="#FFFFFF" points="57.8,109 
		76.9,93 76.9,119.6 57.8,119.6 	"/>
	<polygon id="opacity:100_00000062877287920167008870000014803814584009110179_" display="inline" fill="#FFFFFF" points="
		90.3,81.8 112.6,63.1 112.6,119.6 90.3,119.6 	"/>
	<polygon id="opacity:8_00000161612811159085705110000011640690804239745441_" display="inline" fill="#FFFFFF" points="126.1,51.9 
		151.9,30.2 151.9,119.6 126.1,119.6 	"/>
	<polygon id="opacity:8_00000053508028805677224960000017754189988151479949_" display="inline" fill="#FFFFFF" points="195.9,0 
		195.9,119.6 165.3,119.6 165.3,19 188,0 	"/>
</g>
<g id="_x32__00000175303789922583499330000014221166645608174746_" display="none">
	<g id="opacity:100_00000133522730195206478480000005806649062947587507_" display="inline">
		<polygon fill="#FFFFFF" points="68.4,0 68.4,7 41.3,34.2 41.3,119.6 27,119.6 27,34 0,7 0,0 		"/>
	</g>
	<polygon id="opacity:100" display="inline" fill="#FFFFFF" points="57.8,109 76.9,93 76.9,119.6 57.8,119.6 	"/>
	<polygon id="opacity:8_00000134951869340599721560000009020970756065105336_" display="inline" fill="#FFFFFF" points="90.3,81.8 
		112.6,63.1 112.6,119.6 90.3,119.6 	"/>
	<polygon id="opacity:8_00000081618305026551907130000012249780658049976509_" display="inline" fill="#FFFFFF" points="126.1,51.9 
		151.9,30.2 151.9,119.6 126.1,119.6 	"/>
	<polygon id="opacity:8_00000030472435981178370550000006432590272589197217_" display="inline" fill="#FFFFFF" points="195.9,0 
		195.9,119.6 165.3,119.6 165.3,19 188,0 	"/>
</g>
<g id="_x31_" display="none">
	<g id="opacity:8_00000181051808771093159090000000000894464453600409_" display="inline">
		<polygon fill="#FFFFFF" points="68.4,0 68.4,7 41.3,34.2 41.3,119.6 27,119.6 27,34 0,7 0,0 		"/>
	</g>
	<polygon id="opacity:8_00000142153478527959432150000016483324608658769312_" display="inline" fill="#FFFFFF" points="57.8,109 
		76.9,93 76.9,119.6 57.8,119.6 	"/>
	<polygon id="opacity:8_00000117676898772383436950000004089050347244807100_" display="inline" fill="#FFFFFF" points="90.3,81.8 
		112.6,63.1 112.6,119.6 90.3,119.6 	"/>
	<polygon id="opacity:8_00000097485775879709962940000017874948554307796903_" display="inline" fill="#FFFFFF" points="126.1,51.9 
		151.9,30.2 151.9,119.6 126.1,119.6 	"/>
	<polygon id="opacity:8" display="inline" fill="#FFFFFF" points="195.9,0 195.9,119.6 165.3,119.6 165.3,19 188,0 	"/>
</g>
</svg>
