<?xml version="1.0" encoding="utf-8"?>
<!-- Generator: Adobe Illustrator 25.2.2, SVG Export Plug-In . SVG Version: 6.00 Build 0)  -->
<svg version="1.1" baseProfile="tiny" id="Layer_1" xmlns="http://www.w3.org/2000/svg" xmlns:xlink="http://www.w3.org/1999/xlink"
	 x="0px" y="0px" viewBox="0 0 145.2 28.8" overflow="visible" xml:space="preserve">
<g id="Horizontal_Seperator_1_4_">
	<g>
		<path fill="#0071CE" d="M21.3,26.5c1.4,1.5,1.7,2.3,4.4,2.3l119.5,0v-8l-11.7,0c-5.3,0.2-8.4-2.6-8.4-2.6L113.7,6.8
			c-5.9-6.2-6.8-6.8-12-6.8L3.1,0C0.4,0-1,3.2,0.9,5.2L21.3,26.5z M59.6,6c0,0,38.6,0.2,40.6,0.2c1.7,0,2.6,0.4,5.7,3.5l6.1,6
			c2,2,1.1,4.9-1.9,4.9c0,0-37.9,0-39.6,0c-1.4,0-2.2,0.2-5-2.5l-7.7-7.7C55.7,8.4,57.1,6,59.6,6z"/>
	</g>
	<path fill="#F0F0F0" d="M15.4,6.1h0.5c0.6,0,1.2,0.1,1.3,0.2c0.2,0.1,10.6,10.5,11,10.9l2.5,2.6c0.4,0.4,0.3,0.7-0.3,0.7H30
		c-0.6,0-1.2-0.1-1.4-0.2c-0.2-0.1-0.7-0.5-1.1-0.9L15.1,6.9C14.7,6.5,14.8,6.1,15.4,6.1z"/>
	<path fill="#F0F0F0" d="M22.1,6.1h0.5c0.6,0,1.2,0.1,1.3,0.2c0.2,0.1,10.6,10.5,11,10.9l2.5,2.6c0.4,0.4,0.3,0.7-0.3,0.7h-0.4
		c-0.6,0-1.2-0.1-1.4-0.2c-0.2-0.1-0.7-0.5-1.1-0.9L21.8,6.8C21.4,6.4,21.5,6.1,22.1,6.1z"/>
</g>
</svg>
