<?xml version="1.0" encoding="utf-8"?>
<!-- Generator: Adobe Illustrator 25.2.2, SVG Export Plug-In . SVG Version: 6.00 Build 0)  -->
<svg version="1.1" baseProfile="tiny" id="Layer_1" xmlns="http://www.w3.org/2000/svg" xmlns:xlink="http://www.w3.org/1999/xlink"
	 x="0px" y="0px" viewBox="0 0 285.7 218.6" overflow="visible" xml:space="preserve">
<path id="Background" fill-rule="evenodd" fill="#0071CD" d="M279.8,84.4L201.6,6.2c-3.8-3.8-8.9-5.9-14.2-5.9H9.7
	c-5.5,0-10,4.5-10,10v110c0,5.3,2.1,10.4,5.9,14.1l78.3,78.3c3.8,3.8,8.8,5.9,14.1,5.9h177.7c5.5,0,10-4.5,10-10v-110
	C285.7,93.3,283.6,88.2,279.8,84.4z M100.7,185.3c0,1.6-1.3,3-3,3c-0.8,0-1.6-0.3-2.1-0.9l-69.8-69.8c-1.2-1.2-1.2-3.1,0-4.2
	c0.6-0.6,1.3-0.9,2.1-0.9h62.8c5.5,0,10,4.5,10,10V185.3z"/>
</svg>
