<?xml version="1.0" encoding="utf-8"?>
<!-- Generator: Adobe Illustrator 25.2.2, SVG Export Plug-In . SVG Version: 6.00 Build 0)  -->
<svg version="1.1" baseProfile="tiny" id="Layer_1" xmlns="http://www.w3.org/2000/svg" xmlns:xlink="http://www.w3.org/1999/xlink"
	 x="0px" y="0px" viewBox="0 0 186.6 45.7" overflow="visible" xml:space="preserve">
<path fill="#0071CE" d="M171.6,45.7H10c-5.5,0-10-4.5-10-10V5.2C0,2.3,2.3,0,5.2,0h171.4c5.5,0,10,4.5,10,10v21.6L171.6,45.7z
	 M5.9,8.5C3.7,8.5,2,10.3,2,12.4v23.3c0,4.4,3.6,8,8,8h148.5l26-27.1V10c0-4.4-3.6-8-8-8H65.1l-6.9,6.5H5.9z"/>
<polygon fill="#DCB23C" points="56.4,6.7 50.2,6.7 54.9,2 61.1,2 "/>
<polygon fill="#F0F0F0" points="45.6,6.7 39.4,6.7 44.1,2 50.2,2 "/>
<polygon fill="#0071CE" points="168,43.6 171.5,43.6 184.6,30.5 184.6,27.3 "/>
<polygon fill="#0071CE" points="162.9,6.7 67.4,6.7 65.3,8.7 160.8,8.7 "/>
</svg>
