<?xml version="1.0" encoding="utf-8"?>
<!-- Generator: Adobe Illustrator 25.2.2, SVG Export Plug-In . SVG Version: 6.00 Build 0)  -->
<svg version="1.1" baseProfile="tiny" id="Layer_1" xmlns="http://www.w3.org/2000/svg" xmlns:xlink="http://www.w3.org/1999/xlink"
	 x="0px" y="0px" viewBox="0 0 47.3 29.4" overflow="visible" xml:space="preserve">
<g id="Horizontal_Seperator_2_1_">
	<path fill="#929497" d="M47.3,13.5l0,0.9c0,0-27.7,0-27.9,0c-1.6,0-3.9-0.9-5.1-2.1L2.9,0.8l0.6-0.6l11.3,11.5c1,1,3,1.8,4.5,1.8
		C19.6,13.5,47.3,13.5,47.3,13.5z"/>
	<path fill="#929497" d="M47.4,19l-3.5,0c-1.4,0-3.5,0.9-4.4,1.9L33,27.4c-1.2,1.2-3.4,2.1-5.1,2.2c-1.7,0-3.9-0.9-5.1-2.1L0,4.7
		l0.6-0.6l22.7,22.7c1,1,3,1.8,4.5,1.8c1.4,0,3.5-0.9,4.5-1.9l6.4-6.5c1.2-1.2,3.4-2.1,5.1-2.1l3.5,0V19z"/>
</g>
</svg>
