<?xml version="1.0" encoding="utf-8"?>
<!-- Generator: Adobe Illustrator 28.0.0, SVG Export Plug-In . SVG Version: 6.00 Build 0)  -->
<svg version="1.1" baseProfile="tiny" id="Layer_1" xmlns="http://www.w3.org/2000/svg" xmlns:xlink="http://www.w3.org/1999/xlink"
	 x="0px" y="0px" viewBox="0 0 168 102" overflow="visible" xml:space="preserve">
<path id="opacity:100_colorstyle:Bright_00000041274422475735088820000007892210133333047707_" fill="#24211D" d="M144,15.7l2.1-2.1
	l2.1,2.1H144z M24,15.7l-2.1-2.1l-2.1,2.1H24z M146.1,81.5l2.1,2.1l2.1-2.1H146.1z M9.2,6.2H6.2v2.9L9.2,6.2z M161.8,9.1V6.2h-2.9
	L161.8,9.1z M158.8,95.8h2.9v-2.9L158.8,95.8z M34.2,75.2v-7.3h-7.3L34.2,75.2z"/>
<path id="opacity:100_colorstyle:Base_00000142864740109782509930000015484119417572344463_" fill="#8C734B" d="M25.6,14.8l-1.2-1.2
	h119.1l-1.2,1.2H25.6z M140.1,81.5l3,3h3.7l-3-3H140.1z M45,83.3l1.2,1.2h93.9l-1.2-1.2H45z M16.2,3.2h-1.4H5H3.3V5v9.8v1.4v2.3l3-3
	v-3.7L5,13V5h8l-1.2,1.2h3.7l3-3H16.2z M149.5,6.2L148.3,5L19.7,5l-1.2,1.2L149.5,6.2z M164.7,16.2v-1.4V5V3.2H163h-9.8h-1.4h-2.3
	l3,3h3.7L154.9,5h8v8l-1.2-1.2v3.7l3,3V16.2z M161.8,18.5v65.1l1.2-1.2V19.6L161.8,18.5z M151.8,98.8h1.4h9.8h1.8V97v-9.8v-1.4v-2.3
	l-3,3v3.7L163,89v8h-8l1.2-1.2h-3.7l-3,3H151.8z M5.1,19.6v36.8l1.2,1.2V18.4L5.1,19.6z M45,95.8l1.2,1.2l102.2,0l1.2-1.2L45,95.8z
	 M41.7,93v-3.5V64.8v-4.5h-4.5H12.5H9.1H3.3l7.5,7.5H20L17,64.8h20.2v20.2L34.2,82v9.3l7.5,7.5V93z"/>
</svg>
