<?xml version="1.0" encoding="utf-8"?>
<!-- Generator: Adobe Illustrator 27.2.0, SVG Export Plug-In . SVG Version: 6.00 Build 0)  -->
<svg version="1.1" baseProfile="tiny" id="Layer_1" xmlns="http://www.w3.org/2000/svg" xmlns:xlink="http://www.w3.org/1999/xlink"
	 x="0px" y="0px" viewBox="0 0 256 256" overflow="visible" xml:space="preserve">
<g>
	<path d="M190.89,22.15v5.6c7.43,4.68,14.4,10.23,20.76,16.6C234,66.69,246.3,96.4,246.3,128c0,31.6-12.3,61.31-34.65,83.65
		c-6.36,6.37-13.32,11.92-20.76,16.6v5.6c36.06-21.47,60.22-60.83,60.22-105.85S226.95,43.62,190.89,22.15z M4.89,128
		c0,45.01,24.16,84.38,60.22,105.85v-5.6c-7.43-4.68-14.4-10.23-20.76-16.6C22,189.31,9.7,159.6,9.7,128
		c0-31.6,12.3-61.31,34.65-83.65c6.36-6.37,13.32-11.92,20.76-16.6v-5.6C29.05,43.62,4.89,82.99,4.89,128z"/>
</g>
<g>
	<path d="M128,251.61C59.84,251.61,4.39,196.16,4.39,128C4.39,59.84,59.84,4.39,128,4.39c68.16,0,123.61,55.45,123.61,123.61
		C251.61,196.16,196.16,251.61,128,251.61z M128,5.39C60.39,5.39,5.39,60.39,5.39,128c0,67.61,55,122.61,122.61,122.61
		c67.61,0,122.61-55,122.61-122.61C250.61,60.39,195.61,5.39,128,5.39z"/>
</g>
</svg>
