<?xml version="1.0" encoding="utf-8"?>
<!-- Generator: Adobe Illustrator 24.3.0, SVG Export Plug-In . SVG Version: 6.00 Build 0)  -->
<svg version="1.1" baseProfile="tiny" id="Layer_1" xmlns="http://www.w3.org/2000/svg" xmlns:xlink="http://www.w3.org/1999/xlink"
	 x="0px" y="0px" viewBox="0 0 723.5 17.8" overflow="visible" xml:space="preserve">
<path fill="#FFFFFF" d="M363.5,2c0,0.9-0.8,1.7-1.7,1.7c-0.9,0-1.7-0.8-1.7-1.7c0-0.9,0.8-1.7,1.7-1.7C362.7,0.3,363.5,1.1,363.5,2z
	"/>
<path fill="#FFFFFF" d="M709,17.5H368.1v-0.8H709c7.6,0,13.7-6.2,13.7-13.7V2.4h0.8V3C723.5,11,717,17.5,709,17.5z"/>
<path fill="#FFFFFF" d="M359.3,17.5H15.1C7.1,17.5,0.6,11,0.6,3V0.7h0.8V3c0,7.6,6.2,13.7,13.7,13.7h344.3V17.5z"/>
</svg>
