<?xml version="1.0" encoding="utf-8"?>
<!-- Generator: Adobe Illustrator 25.0.1, SVG Export Plug-In . SVG Version: 6.00 Build 0)  -->
<svg version="1.1" baseProfile="tiny" id="Layer_1" xmlns="http://www.w3.org/2000/svg" xmlns:xlink="http://www.w3.org/1999/xlink"
	 x="0px" y="0px" width="40px" height="64px" viewBox="0 0 40 64" overflow="visible" xml:space="preserve">
<g>
	<line fill="none" stroke="#466B73" stroke-width="1.5" stroke-miterlimit="10" x1="21.6" y1="63.2" x2="18.1" y2="63.2"/>
	<path fill="none" stroke="#6CB8C7" stroke-width="1.5" stroke-miterlimit="10" d="M14.3,63.2H5c-2.3,0-4.1-1.8-4.1-4.1v-5.4"/>
	<line fill="none" stroke="#466B73" stroke-width="1.5" stroke-miterlimit="10" x1="1" y1="50.3" x2="1" y2="35.3"/>
	<path fill="none" stroke="#6CB8C7" stroke-width="1.5" stroke-miterlimit="10" d="M25.7,63.2H35c2.2,0,4.1-1.8,4.1-4.1v-5.4"/>
	<line fill="none" stroke="#466B73" stroke-width="1.5" stroke-miterlimit="10" x1="39" y1="50.3" x2="39" y2="35.3"/>
	<line fill="none" stroke="#6CB8C7" stroke-width="1.5" stroke-miterlimit="10" x1="1" y1="36.9" x2="1" y2="35.3"/>
	<line fill="none" stroke="#6CB8C7" stroke-width="1.5" stroke-miterlimit="10" x1="39" y1="36.9" x2="39" y2="35.3"/>
	<line fill="none" stroke="#466B73" stroke-width="1.5" stroke-miterlimit="10" x1="21.6" y1="1" x2="18.1" y2="1"/>
	<path fill="none" stroke="#6CB8C7" stroke-width="1.5" stroke-miterlimit="10" d="M14.3,1H5C2.8,1,1,2.8,1,5.1v5.4"/>
	<line fill="none" stroke="#466B73" stroke-width="1.5" stroke-miterlimit="10" x1="1" y1="13.9" x2="1" y2="28.8"/>
	<path fill="none" stroke="#6CB8C7" stroke-width="1.5" stroke-miterlimit="10" d="M25.7,1H35C37.2,1,39,2.8,39,5.1v5.4"/>
	<line fill="none" stroke="#466B73" stroke-width="1.5" stroke-miterlimit="10" x1="39" y1="13.9" x2="39" y2="28.8"/>
	<line fill="none" stroke="#6CB8C7" stroke-width="1.5" stroke-miterlimit="10" x1="1" y1="27.3" x2="1" y2="28.8"/>
	<line fill="none" stroke="#6CB8C7" stroke-width="1.5" stroke-miterlimit="10" x1="39" y1="27.3" x2="39" y2="28.8"/>
</g>
</svg>
