<?xml version="1.0" encoding="utf-8"?>
<!-- Generator: Adobe Illustrator 26.3.1, SVG Export Plug-In . SVG Version: 6.00 Build 0)  -->
<svg version="1.1" baseProfile="tiny" id="Layer_1" xmlns="http://www.w3.org/2000/svg" xmlns:xlink="http://www.w3.org/1999/xlink"
	 x="0px" y="0px" viewBox="0 0 147.3 56.9" overflow="visible" xml:space="preserve">
<g>
	<g>
		<path fill="#6CB8C7" d="M86.6,5.2H10.8c-3.1,0-5.7,2.5-5.7,5.7V46c0,3.1,2.5,5.7,5.7,5.7h85.9c3.1,0,5.7-2.5,5.7-5.7V20.7
			c0-1.5-0.6-3-1.7-4.1L90.5,6.8C89.4,5.8,88,5.2,86.6,5.2z"/>
	</g>
	<g>
		<path fill="none" stroke="#6CB8C7" stroke-miterlimit="10" d="M102.7,0.5h-93c-5.1,0-9.3,4.1-9.3,9.3v37.3c0,5.1,4.1,9.3,9.3,9.3
			h127.8c5.1,0,9.3-4.1,9.3-9.3v-27c0-2.5-1-4.9-2.9-6.7L133.1,3.1c-1.7-1.7-4-2.6-6.4-2.6h-13.9"/>
		<circle fill="#6CB8C7" cx="107.8" cy="3.8" r="1.2"/>
	</g>
</g>
</svg>
