<?xml version="1.0" encoding="utf-8"?>
<!-- Generator: Adobe Illustrator 26.0.1, SVG Export Plug-In . SVG Version: 6.00 Build 0)  -->
<svg version="1.1" baseProfile="tiny" id="Layer_1" xmlns="http://www.w3.org/2000/svg" xmlns:xlink="http://www.w3.org/1999/xlink"
	 x="0px" y="0px" width="309.8px" height="190.6px" viewBox="0 0 309.8 190.6" overflow="visible" xml:space="preserve">
<line fill="none" stroke="#386F70" stroke-miterlimit="10" x1="33.7" y1="2" x2="288.8" y2="2"/>
<line fill="none" stroke="#79C1CF" stroke-miterlimit="10" x1="1" y1="2" x2="24.8" y2="2"/>
<line fill="none" stroke="#79C1CF" stroke-miterlimit="10" x1="261.6" y1="2" x2="288.8" y2="2"/>
<line fill="none" stroke="#DB193B" stroke-miterlimit="10" x1="295.7" y1="2" x2="309.8" y2="2"/>
<line fill="none" stroke="#386F70" stroke-miterlimit="10" x1="35.1" y1="190.6" x2="290.3" y2="190.6"/>
<line fill="none" stroke="#79C1CF" stroke-miterlimit="10" x1="2.5" y1="190.6" x2="26.3" y2="190.6"/>
<line fill="none" stroke="#79C1CF" stroke-miterlimit="10" x1="263" y1="190.6" x2="290.3" y2="190.6"/>
<line fill="none" stroke="#DB193B" stroke-miterlimit="10" x1="297.2" y1="190.6" x2="311.3" y2="190.6"/>
<line fill="none" stroke="#000000" stroke-miterlimit="10" x1="36.9" y1="119.4" x2="36.9" y2="130.7"/>
<line fill="none" stroke="#20353B" stroke-miterlimit="10" x1="36.9" y1="64.9" x2="36.9" y2="130.7"/>
<rect x="42.1" y="128.3" fill="#66494F" width="2.4" height="2.4"/>
<rect x="43.3" y="136.8" fill="#66494F" width="1.2" height="1.2"/>
<rect x="42.9" y="52" fill="#E7344B" width="2.4" height="2.4"/>
<rect x="42.9" y="64.8" fill="#66494F" width="6.1" height="2.4"/>
<line fill="none" stroke="#000000" stroke-miterlimit="10" x1="269" y1="119.4" x2="269" y2="130.7"/>
<line fill="none" stroke="#20353B" stroke-miterlimit="10" x1="269" y1="64.9" x2="269" y2="130.7"/>
<rect x="261.5" y="128.3" fill="#66494F" width="2.4" height="2.4"/>
<rect x="261.5" y="136.8" fill="#66494F" width="1.2" height="1.2"/>
<rect x="260.6" y="52" fill="#E7344B" width="2.4" height="2.4"/>
<rect x="257" y="64.8" fill="#66494F" width="6.1" height="2.4"/>
<circle fill="#DB183A" cx="96.9" cy="65.7" r="1.9"/>
<circle fill="#DB183A" cx="216.8" cy="65.7" r="1.9"/>
<line fill="none" stroke="#1E5054" stroke-miterlimit="10" x1="271.7" y1="13.3" x2="38.5" y2="13.3"/>
<path fill="none" stroke="#386F70" stroke-miterlimit="10" d="M30.7,13.3H11.4c-4.6,0-8.4,3.8-8.4,8.4v11.1"/>
<line fill="none" stroke="#1E5054" stroke-miterlimit="10" x1="3" y1="39.9" x2="3" y2="71"/>
<path fill="none" stroke="#386F70" stroke-miterlimit="10" d="M280,13.3h19.4c4.6,0,8.4,3.8,8.4,8.4v11.1"/>
<line fill="none" stroke="#1E5054" stroke-miterlimit="10" x1="307.8" y1="39.9" x2="307.8" y2="71"/>
<line fill="none" stroke="#6DB5C4" stroke-miterlimit="10" x1="3" y1="67.7" x2="3" y2="71"/>
<line fill="none" stroke="#6DB5C4" stroke-miterlimit="10" x1="307.8" y1="67.7" x2="307.8" y2="71"/>
<line fill="none" stroke="#1E5054" stroke-miterlimit="10" x1="39.1" y1="179.5" x2="272.3" y2="179.5"/>
<path fill="none" stroke="#386F70" stroke-miterlimit="10" d="M280,179.5h19.4c4.6,0,8.4-3.8,8.4-8.4V160"/>
<line fill="none" stroke="#1E5054" stroke-miterlimit="10" x1="307.8" y1="152.8" x2="307.8" y2="121.7"/>
<path fill="none" stroke="#386F70" stroke-miterlimit="10" d="M30.7,179.5H11.4c-4.6,0-8.4-3.8-8.4-8.4V160"/>
<line fill="none" stroke="#1E5054" stroke-miterlimit="10" x1="3" y1="152.8" x2="3" y2="121.7"/>
<line fill="none" stroke="#6DB5C4" stroke-miterlimit="10" x1="307.8" y1="125" x2="307.8" y2="121.7"/>
<line fill="none" stroke="#6DB5C4" stroke-miterlimit="10" x1="3" y1="125" x2="3" y2="121.7"/>
<circle fill="#DB183A" cx="307.8" cy="96.1" r="1.5"/>
<circle fill="#FFFFFF" cx="307.8" cy="16.4" r="1.5"/>
<circle fill="#DB183A" cx="2.5" cy="87.4" r="1.5"/>
<circle fill="#FFFFFF" cx="2.5" cy="115.4" r="1.5"/>
<rect x="184.4" y="157.2" fill="#79C1CF" width="4" height="10.4"/>
<rect x="174" y="157.2" fill="#79C1CF" width="4" height="10.4"/>
<rect x="163.6" y="157.2" fill="#79C1CF" width="4" height="10.4"/>
<rect x="153.2" y="157.2" fill="#79C1CF" width="4" height="10.4"/>
<rect x="128.3" y="166.1" fill="#79C1CF" width="6.7" height="1.5"/>
<rect x="138" y="157.2" fill="#1E5054" width="6" height="10.4"/>
<path fill="none" stroke="#79C1CF" stroke-miterlimit="10" d="M34.7,168.7H20.9c-4,0-7.3-3.3-7.3-7.3V35.2c0-6.2,5-11.2,11.2-11.2
	H38"/>
<circle fill="#79C1CF" cx="44.3" cy="168.7" r="1.4"/>
<circle fill="#79C1CF" cx="46" cy="24" r="1.4"/>
<path fill="none" stroke="#79C1CF" stroke-miterlimit="10" d="M276,24h13.8c4,0,7.3,3.3,7.3,7.3v126.2c0,6.2-5,11.2-11.2,11.2h-13.1
	"/>
<circle fill="#79C1CF" cx="266.5" cy="24" r="1.4"/>
<circle fill="#79C1CF" cx="264.8" cy="168.7" r="1.4"/>
</svg>
