<?xml version="1.0" encoding="utf-8"?>
<!-- Generator: Adobe Illustrator 25.4.1, SVG Export Plug-In . SVG Version: 6.00 Build 0)  -->
<svg version="1.1" baseProfile="tiny" id="Layer_1" xmlns="http://www.w3.org/2000/svg" xmlns:xlink="http://www.w3.org/1999/xlink"
	 x="0px" y="0px" viewBox="0 0 74.5 75.1" overflow="visible" xml:space="preserve">
<rect x="-69.4" y="34.2" fill="#FFFFFF" width="24.3" height="1.5"/>
<polygon fill="#A1A3B2" points="-24.6,31.2 -29.1,31.2 -29.1,36.7 -24.6,36.7 -24.6,35.7 -28.1,35.7 -28.1,32.2 -24.6,32.2 "/>
<polygon fill="#A1A3B2" points="-22.2,36.7 -17.8,36.7 -17.8,31.3 -22.2,31.3 -22.2,32.3 -18.8,32.3 -18.8,35.7 -22.2,35.7 "/>
<path display="none" fill="#0071BC" d="M65.1,4.1v67c0,2.2-1.8,4-4,4H19.4v-75h41.6C63.3,0.1,65.1,1.9,65.1,4.1z"/>
<rect x="-65.7" y="9.1" fill="#79C1CF" width="5.3" height="1.5"/>
<rect x="-43.7" y="9.1" fill="#79C1CF" width="5.3" height="1.5"/>
<rect x="-62" y="9.1" fill="#1E5054" width="19.3" height="1.5"/>
<rect x="-64.1" y="15.3" transform="matrix(-1 -4.443658e-11 4.443658e-11 -1 -127.1476 31.747)" fill="#ED94A3" width="1.1" height="1.1"/>
<rect x="-67.6" y="15.3" transform="matrix(-1 -4.443658e-11 4.443658e-11 -1 -134.5977 31.174)" fill="#EF8E9E" width="0.6" height="0.6"/>
<rect x="-65.9" y="1.3" fill="#E7344B" width="2.9" height="1.1"/>
<rect x="-53.3" y="28.9" fill="#1E5054" width="4" height="1.5"/>
<rect x="-69.4" y="28.9" fill="#79C1CF" width="16" height="1.5"/>
<rect x="-49.1" y="28.9" fill="#79C1CF" width="2" height="1.5"/>
<rect x="-47.1" y="28.9" fill="#DB193B" width="2.1" height="1.5"/>
<rect x="-22.4" y="6.1" fill="#1E5054" width="1.5" height="15.8"/>
<rect x="-28.9" y="1.6" fill="#E7344B" width="1.2" height="1.2"/>
<rect x="-28.9" y="4.6" fill="#EAA0AD" width="2.9" height="1.2"/>
<rect x="-15.6" y="1.6" fill="#E7344B" width="1.2" height="1.2"/>
<rect x="-17.3" y="4.6" fill="#EAA0AD" width="2.9" height="1.2"/>
<rect x="-22.4" y="18.3" fill="#79C1CF" width="1.5" height="5.4"/>
<rect x="-28.4" y="23.2" transform="matrix(-1.836970e-16 1 -1 -1.836970e-16 -4.0262 51.6009)" fill="#E7344B" width="1.2" height="1.2"/>
<rect x="-27.8" y="26.3" transform="matrix(1.246451e-11 1 -1 1.246451e-11 -0.896 54.059)" fill="#E7344B" width="0.6" height="0.6"/>
<rect x="-54" y="44.6" transform="matrix(-1.836970e-16 1 -1 -1.836970e-16 -4.1541 94.7699)" fill="#FFFFFF" width="9" height="1.5"/>
<rect x="-38.1" y="33" fill="#1E5054" width="1.5" height="6.7"/>
<rect x="-38.1" y="27.9" fill="#79C1CF" width="1.5" height="5"/>
<rect x="-38.1" y="39.9" fill="#79C1CF" width="1.5" height="2"/>
<rect x="-38.1" y="41.9" fill="#DB193B" width="1.5" height="2.1"/>
<g>
	<image width="65" height="2" xlink:href="7CD2564A.png"  transform="matrix(1 0 0 1 5.6891 8.8785)">
	</image>
	<line fill="none" stroke="#79C1CF" stroke-miterlimit="10" x1="0.1" y1="9.9" x2="4.5" y2="9.9"/>
	<line fill="none" stroke="#79C1CF" stroke-miterlimit="10" x1="65.1" y1="9.9" x2="70.2" y2="9.9"/>
	<line fill="none" stroke="#DB193B" stroke-miterlimit="10" x1="71.5" y1="9.9" x2="74.1" y2="9.9"/>
</g>
<g>
	<image width="65" height="2" xlink:href="7CD2564E.png"  transform="matrix(1 0 0 1 5.6891 63.8785)">
	</image>
	<line fill="none" stroke="#79C1CF" stroke-miterlimit="10" x1="0.4" y1="65.2" x2="4.8" y2="65.2"/>
	<line fill="none" stroke="#79C1CF" stroke-miterlimit="10" x1="65.4" y1="65.2" x2="70.5" y2="65.2"/>
	<line fill="none" stroke="#DB193B" stroke-miterlimit="10" x1="71.8" y1="65.2" x2="74.4" y2="65.2"/>
</g>
<g>
	<g>
		<path fill="#253D42" d="M66.2,17l2.7,2.6c0.5,0.4,0.7,1.1,0.7,1.7V58c0,0.6-0.5,1.2-1.2,1.2h-7l-1.5-1.6c-0.8-0.9-2-1.4-3.2-1.4
			H17.5c-1.2,0-2.3,0.5-3.2,1.4l-1.5,1.6h-7c-0.6,0-1.2-0.5-1.2-1.2V17.4c0-0.6,0.5-1.2,1.2-1.2h58.7C65.1,16.3,65.7,16.5,66.2,17z"
			/>
	</g>
</g>
<g>
	<g>
		<line fill="none" stroke="#000000" stroke-miterlimit="10" x1="6.8" y1="51.9" x2="6.8" y2="54"/>
		<image width="2" height="34" xlink:href="7CD25649.png"  transform="matrix(1 0 0 1 5.6891 20.8785)">
		</image>
		<image width="1" height="2" xlink:href="7CD2564B.png"  transform="matrix(1 0 0 1 7.6891 52.8785)">
		</image>
		<image width="1" height="1" xlink:href="7CD25648.png"  transform="matrix(1 0 0 1 7.6891 54.8785)">
		</image>
		<g>
			<rect x="7.9" y="19.2" fill="#E7344B" width="0.5" height="0.5"/>
			<image width="2" height="2" xlink:href="7CD25656.png"  transform="matrix(1 0 0 1 7.6891 20.8785)">
			</image>
		</g>
	</g>
	<g>
		<line fill="none" stroke="#000000" stroke-miterlimit="10" x1="66.5" y1="51.9" x2="66.5" y2="54"/>
		<image width="2" height="34" xlink:href="7CD25659.png"  transform="matrix(1 0 0 1 65.6891 20.8785)">
		</image>
		<image width="1" height="2" xlink:href="7CD2565A.png"  transform="matrix(1 0 0 1 64.6891 52.8785)">
		</image>
		<image width="1" height="1" xlink:href="7CD25658.png"  transform="matrix(1 0 0 1 64.6891 54.8785)">
		</image>
		<g>
			<rect x="64.9" y="19.2" fill="#E7344B" width="0.5" height="0.5"/>
			<image width="2" height="2" xlink:href="A66790D.png"  transform="matrix(1 0 0 1 63.6891 20.8785)">
			</image>
		</g>
	</g>
</g>
<circle fill="#DB183A" cx="18" cy="21.8" r="0.4"/>
<circle fill="#DB183A" cx="56.8" cy="21.8" r="0.4"/>
<g>
	<g>
		<image width="61" height="2" xlink:href="A667903.png"  transform="matrix(1 0 0 1 6.6891 10.8785)">
		</image>
		<image width="6" height="5" xlink:href="A667905.png"  transform="matrix(1 0 0 1 -0.3109 10.8785)">
		</image>
		<image width="2" height="6" xlink:href="A667907.png"  transform="matrix(1 0 0 1 -0.3109 16.8785)">
		</image>
		<image width="7" height="5" xlink:href="A667904.png"  transform="matrix(1 0 0 1 67.6891 10.8785)">
		</image>
		<image width="2" height="6" xlink:href="A66791C.png"  transform="matrix(1 0 0 1 72.6891 16.8785)">
		</image>
		<image width="2" height="1" xlink:href="A66791D.png"  transform="matrix(1 0 0 1 -0.3109 21.8785)">
		</image>
		<image width="2" height="1" xlink:href="A66791F.png"  transform="matrix(1 0 0 1 72.6891 21.8785)">
		</image>
	</g>
	<g>
		<image width="61" height="2" xlink:href="A66791B.png"  transform="matrix(1 0 0 1 6.6891 61.8785)">
		</image>
		<image width="7" height="5" xlink:href="A667906.png"  transform="matrix(1 0 0 1 67.6891 58.8785)">
		</image>
		<image width="2" height="7" xlink:href="A667938.png"  transform="matrix(1 0 0 1 72.6891 51.8785)">
		</image>
		<image width="6" height="5" xlink:href="A66793B.png"  transform="matrix(1 0 0 1 -0.3109 58.8785)">
		</image>
		<image width="2" height="7" xlink:href="A667939.png"  transform="matrix(1 0 0 1 -0.3109 51.8785)">
		</image>
		<image width="2" height="2" xlink:href="A667937.png"  transform="matrix(1 0 0 1 72.6891 51.8785)">
		</image>
		<image width="2" height="2" xlink:href="A667928.png"  transform="matrix(1 0 0 1 -0.3109 51.8785)">
		</image>
	</g>
</g>
<g>
	<circle fill="#DB183A" cx="73.7" cy="27.4" r="0.3"/>
	<circle fill="#FFFFFF" cx="73.7" cy="32.7" r="0.3"/>
</g>
<g>
	<circle fill="#DB183A" cx="0.4" cy="25.8" r="0.3"/>
	<circle fill="#FFFFFF" cx="0.4" cy="31" r="0.3"/>
</g>
<g>
	<g>
		<rect x="50.7" y="59" fill="#79C1CF" width="0.7" height="1.9"/>
		<rect x="48.8" y="59" fill="#79C1CF" width="0.7" height="1.9"/>
		<rect x="46.8" y="59" fill="#79C1CF" width="0.7" height="1.9"/>
		<rect x="44.9" y="59" fill="#79C1CF" width="0.7" height="1.9"/>
		<rect x="23.8" y="60.6" fill="#79C1CF" width="1.2" height="0.3"/>
		<image width="19" height="3" xlink:href="A66792B.png"  transform="matrix(1 0 0 1 24.6891 58.8785)">
		</image>
	</g>
</g>
<g>
	<g>
		<path fill="none" stroke="#79C1CF" stroke-miterlimit="10" d="M67.8,14h2.6c0.8,0,1.4,0.6,1.4,1.4V59c0,1.2-0.9,2.1-2.1,2.1h-2.5"
			/>
		<circle fill="#79C1CF" cx="66" cy="14" r="0.3"/>
		<circle fill="#79C1CF" cx="65.7" cy="61.1" r="0.3"/>
	</g>
	<g>
		<path fill="none" stroke="#79C1CF" stroke-miterlimit="10" d="M6.4,61.1H3.8c-0.8,0-1.4-0.6-1.4-1.4V16.1c0-1.2,0.9-2.1,2.1-2.1H7
			"/>
		<circle fill="#79C1CF" cx="8.2" cy="61.1" r="0.3"/>
		<circle fill="#79C1CF" cx="8.5" cy="14" r="0.3"/>
	</g>
</g>
</svg>
