<?xml version="1.0" encoding="utf-8"?>
<!-- Generator: Adobe Illustrator 26.0.1, SVG Export Plug-In . SVG Version: 6.00 Build 0)  -->
<svg version="1.1" baseProfile="tiny" id="Layer_1" xmlns="http://www.w3.org/2000/svg" xmlns:xlink="http://www.w3.org/1999/xlink"
	 x="0px" y="0px" width="309.8px" height="190.6px" viewBox="0 0 309.8 190.6" overflow="visible" xml:space="preserve">
<path fill="#253D42" d="M265.5,41.5l14.4,14.1c2.5,2.4,3.8,5.7,3.8,9.1v89c0,3.4-2.8,6.2-6.2,6.2h-37.3l-8.2-8.6
	c-4.4-4.6-10.5-7.3-16.9-7.3H92.4c-6.4,0-12.5,2.6-16.9,7.3l-8.2,8.6H29.9c-3.4,0-6.2-2.8-6.2-6.2V44.1c0-3.4,2.8-6.2,6.2-6.2h226.8
	C260,37.9,263.2,39.2,265.5,41.5z"/>
</svg>
