<?xml version="1.0" encoding="utf-8"?>
<!-- Generator: Adobe Illustrator 26.0.1, SVG Export Plug-In . SVG Version: 6.00 Build 0)  -->
<svg version="1.1" baseProfile="tiny" id="Layer_1" xmlns="http://www.w3.org/2000/svg" xmlns:xlink="http://www.w3.org/1999/xlink"
	 x="0px" y="0px" viewBox="0 0 1920 1080" overflow="visible" xml:space="preserve">
<g id="yellow_lines_00000092427210787389890310000013254070548487616403_">
	<polygon fill="none" stroke="#FBD02E" stroke-width="7.7745" stroke-linejoin="round" stroke-miterlimit="10" points="584.6,353.8 
		595.3,374.5 890.8,283.2 874.4,265.1 	"/>
	<polygon fill="none" stroke="#FBD02E" stroke-width="7.7745" stroke-linejoin="round" stroke-miterlimit="10" points="558.5,353.8 
		547.8,374.5 252.3,283.2 268.7,265.1 	"/>
	<polygon fill="none" stroke="#FBD02E" stroke-width="7.7745" stroke-linejoin="round" stroke-miterlimit="10" points="584.5,846.2 
		595.3,830.8 890.8,738.2 874.4,756.3 	"/>
	<polygon fill="none" stroke="#FBD02E" stroke-width="7.7745" stroke-linejoin="round" stroke-miterlimit="10" points="558.6,846.2 
		547.8,830.8 252.3,738.2 268.6,756.3 	"/>
	<polygon fill="none" stroke="#FBD02E" stroke-width="7.7745" stroke-linejoin="round" stroke-miterlimit="10" points="547.6,830.8 
		252.3,738.2 252.3,283.2 547.6,374.5 	"/>
	<polygon fill="none" stroke="#FBD02E" stroke-width="7.7745" stroke-linejoin="round" stroke-miterlimit="10" points="595.4,830.8 
		890.5,738.2 890.5,283.2 595.4,374.5 	"/>
	<path fill="none" stroke="#FBD02E" stroke-width="7.7745" stroke-linejoin="round" stroke-miterlimit="10" d="M558.5,353.8
		l-289.9-88.6l289.9-92.5c8.8,0,17.3,0,26.1,0l289.9,92.5l-289.9,88.6C575.8,353.8,567.3,353.8,558.5,353.8z"/>
	<polygon fill="none" stroke="#FBD02E" stroke-width="7.7745" stroke-linejoin="round" stroke-miterlimit="10" points="558.5,353.8 
		584.6,353.8 595.4,374.5 547.6,374.5 	"/>
	<polygon fill="none" stroke="#FBD02E" stroke-width="7.7745" stroke-linejoin="round" stroke-miterlimit="10" points="547.8,830.8 
		595.4,830.8 584.5,846.2 558.6,846.2 	"/>
</g>
<g id="white_lines_00000109030753309052444980000011895704070925543334_">
	<path fill="none" stroke="#FFF3CC" stroke-width="1.25" stroke-linejoin="round" stroke-miterlimit="10" d="M890.8,283.2
		l-295.5,91.3c-9.2,0-38.3,0-47.5,0l-295.5-91.3"/>
	<g>
		<polygon fill="none" stroke="#FFF3CC" stroke-width="1.25" stroke-linejoin="round" stroke-miterlimit="10" points="584.6,353.8 
			595.3,374.5 890.8,283.2 874.4,265.1 		"/>
	</g>
	<g>
		<polygon fill="none" stroke="#FFF3CC" stroke-width="1.25" stroke-linejoin="round" stroke-miterlimit="10" points="558.5,353.8 
			547.8,374.5 252.3,283.2 268.7,265.1 		"/>
	</g>
	<polyline fill="none" stroke="#FFF3CC" stroke-width="1.25" stroke-linejoin="round" stroke-miterlimit="10" points="890.8,283.2 
		874.5,265.1 584.5,172.6 	"/>
	<g>
		<polygon fill="none" stroke="#FFF3CC" stroke-width="1.25" stroke-linejoin="round" stroke-miterlimit="10" points="584.5,846.2 
			595.3,830.8 890.8,738.2 874.4,756.3 		"/>
	</g>
	<g>
		<polygon fill="none" stroke="#FFF3CC" stroke-width="1.25" stroke-linejoin="round" stroke-miterlimit="10" points="558.6,846.2 
			547.8,830.8 252.3,738.2 268.6,756.3 		"/>
	</g>
	<g>
		<polygon fill="none" stroke="#FFF3CC" stroke-width="1.25" stroke-linejoin="round" stroke-miterlimit="10" points="547.6,830.8 
			252.3,738.2 252.3,283.2 547.6,374.5 		"/>
	</g>
	<g>
		<polygon fill="none" stroke="#FFF3CC" stroke-width="1.25" stroke-linejoin="round" stroke-miterlimit="10" points="595.4,830.8 
			890.5,738.2 890.5,283.2 595.4,374.5 		"/>
	</g>
	<g>
		<path fill="none" stroke="#FFF3CC" stroke-width="1.25" stroke-linejoin="round" stroke-miterlimit="10" d="M558.5,353.8
			l-289.9-88.6l289.9-92.5c8.8,0,17.3,0,26.1,0l289.9,92.5l-289.9,88.6C575.8,353.8,567.3,353.8,558.5,353.8z"/>
	</g>
	<polygon fill="none" stroke="#FFF3CC" stroke-width="1.25" stroke-linejoin="round" stroke-miterlimit="10" points="547.6,830.8 
		595.4,830.8 584.5,846.2 558.6,846.2 	"/>
</g>
</svg>
