<?xml version="1.0" encoding="utf-8"?>
<!-- Generator: Adobe Illustrator 26.0.1, SVG Export Plug-In . SVG Version: 6.00 Build 0)  -->
<svg version="1.1" baseProfile="tiny" id="Layer_1" xmlns="http://www.w3.org/2000/svg" xmlns:xlink="http://www.w3.org/1999/xlink"
	 x="0px" y="0px" viewBox="0 0 1920 1080" overflow="visible" xml:space="preserve">
<g>
	<polygon fill="#A84300" points="570.4,500.2 491.1,526.3 491.1,642.9 570.4,668.6 649.8,642.9 649.8,526.3 	"/>
	<g>
		<polygon fill="none" stroke="#FFB22C" stroke-width="3.8633" stroke-linejoin="round" stroke-miterlimit="10" points="
			491.1,526.1 570.4,500 649.8,526.1 570.4,551.9 		"/>
		
			<line fill="none" stroke="#FFB22C" stroke-width="3.8633" stroke-linejoin="round" stroke-miterlimit="10" x1="570.4" y1="551.9" x2="570.4" y2="668.5"/>
		<polyline fill="none" stroke="#FFB22C" stroke-width="3.8633" stroke-linejoin="round" stroke-miterlimit="10" points="
			649.8,526.1 649.8,642.7 570.4,668.5 491.1,642.7 491.1,526.1 		"/>
	</g>
	<polygon fill="#A84300" points="570.4,500.4 491.1,526.5 491.1,643 570.4,668.8 649.8,643 649.8,526.5 	"/>
	<g>
		<polygon fill="none" stroke="#FFB22C" stroke-width="3.8633" stroke-linejoin="round" stroke-miterlimit="10" points="
			491.1,526.3 570.4,500.2 649.8,526.3 570.4,552.1 		"/>
		
			<line fill="none" stroke="#FFB22C" stroke-width="3.8633" stroke-linejoin="round" stroke-miterlimit="10" x1="570.4" y1="552.1" x2="570.4" y2="668.7"/>
		<polyline fill="none" stroke="#FFB22C" stroke-width="3.8633" stroke-linejoin="round" stroke-miterlimit="10" points="
			649.8,526.3 649.8,642.9 570.4,668.7 491.1,642.9 491.1,526.3 		"/>
	</g>
</g>
</svg>
