<?xml version="1.0" encoding="utf-8"?>
<!-- Generator: Adobe Illustrator 26.0.2, SVG Export Plug-In . SVG Version: 6.00 Build 0)  -->
<svg version="1.1" id="Layer_1" xmlns="http://www.w3.org/2000/svg" xmlns:xlink="http://www.w3.org/1999/xlink" x="0px" y="0px"
	 viewBox="0 0 322.6 322.4" style="enable-background:new 0 0 322.6 322.4;" xml:space="preserve">
<g>
	<path d="M321.2,50.8L272.5,2c-0.4-0.4-0.8-0.6-1.4-0.6H52.5c-0.5,0-1,0.2-1.4,0.6L2.4,50.8c-0.4,0.4-0.6,0.8-0.6,1.4v218.9
		c0,0.5,0.2,1,0.6,1.4l48.8,48.8c0.4,0.4,0.8,0.6,1.4,0.6h218.6c0.5,0,1-0.2,1.4-0.6l48.8-48.8c0.4-0.4,0.6-0.8,0.6-1.4V52.1
		C321.8,51.6,321.6,51.2,321.2,50.8z M265.5,4.4c0.9,0,1.6,0.7,1.6,1.6s-0.7,1.6-1.6,1.6s-1.6-0.7-1.6-1.6S264.6,4.4,265.5,4.4z
		 M57.5,4.4c0.9,0,1.6,0.7,1.6,1.6s-0.7,1.6-1.6,1.6S55.9,6.9,55.9,6S56.6,4.4,57.5,4.4z M7,79.3c0,0.7-0.6,1.3-1.3,1.3
		c-0.7,0-1.3-0.6-1.3-1.3V58.1c0-0.7,0.6-1.3,1.3-1.3c0.7,0,1.3,0.6,1.3,1.3V79.3z M57.5,318.5c-0.9,0-1.6-0.7-1.6-1.6
		s0.7-1.6,1.6-1.6s1.6,0.7,1.6,1.6S58.4,318.5,57.5,318.5z M265.5,318.5c-0.9,0-1.6-0.7-1.6-1.6s0.7-1.6,1.6-1.6s1.6,0.7,1.6,1.6
		S266.4,318.5,265.5,318.5z M311.3,272.6l-38.7,38.7c-0.7,0.7-2,0.7-2.7,0l-8.4-8.4c-0.4-0.4-0.8-0.6-1.4-0.6H63.5
		c-0.5,0-1,0.2-1.4,0.6l-8.4,8.4c-0.7,0.7-2,0.7-2.7,0l-38.7-38.7c-0.7-0.7-0.7-2,0-2.7l8.4-8.4c0.4-0.4,0.6-0.8,0.6-1.4v-197
		c0-0.5-0.2-1-0.6-1.4l-8.4-8.4c-0.7-0.7-0.7-2,0-2.7L51,12c0.7-0.7,2-0.7,2.7,0l8.4,8.4c0.4,0.4,0.8,0.6,1.4,0.6h196.7
		c0.5,0,1-0.2,1.4-0.6l8.4-8.4c0.7-0.7,2-0.7,2.7,0l38.7,38.7c0.7,0.7,0.7,2,0,2.7l-8.4,8.4c-0.4,0.4-0.6,0.8-0.6,1.4v197
		c0,0.5,0.2,1,0.6,1.4l8.4,8.4C312.1,270.6,312.1,271.8,311.3,272.6z M318.8,267.4c0,0.3-0.3,0.6-0.6,0.6h-0.7
		c-0.3,0-0.6-0.3-0.6-0.6v-6c0-0.3,0.3-0.6,0.6-0.6h0.7c0.3,0,0.6,0.3,0.6,0.6V267.4z"/>
</g>
</svg>
