<?xml version="1.0" encoding="utf-8"?>
<!-- Generator: Adobe Illustrator 29.8.2, SVG Export Plug-In . SVG Version: 9.03 Build 0)  -->
<svg version="1.1" baseProfile="tiny" id="Layer_1" xmlns="http://www.w3.org/2000/svg" xmlns:xlink="http://www.w3.org/1999/xlink"
	 x="0px" y="0px" viewBox="0 0 407.9 108.1" overflow="visible" xml:space="preserve">
<g>
	<path fill="#FFFFFF" d="M34,78c-0.3,0.9-0.3,1.7,0.2,2.5l7,9.1c0.6,0.8,1.5,1.2,2.9,1.2H101c1.7,0,2.2,0.8,1.6,2.5l-4.4,12.2
		c-0.6,1.7-1.7,2.5-3.4,2.5H19.6c-1.8,0-3.3-0.6-4-1.7l-15-19.5c-0.7-0.9-0.8-2-0.2-3.4L29.7,2.5C30.4,0.8,31.5,0,33.3,0h26.5
		c1.8,0,2.4,0.8,1.8,2.5L34,78L34,78z"/>
	<path fill="#FFFFFF" d="M268.8,14.9c0.5,0.8,0.5,1.9,0,3.3L260.2,42c-0.6,1.7-1.4,2.8-2.5,3.6l-19.6,15c-1.2,0.9-2.5,1.4-4,1.4H176
		c-0.8,0-1.6,0.2-2.2,0.6l-9.3,5.8c-1.1,0.6-1.7,1.6-2.1,2.7L155.5,90c-0.4,1.1,0,1.7,1.2,1.7h83.5c1.7,0,2.2,0.8,1.6,2.5l-4.1,11.4
		c-0.6,1.7-1.7,2.5-3.4,2.5H125.2c-3.2,0-4.1-1.6-2.9-4.7L136.6,64c0.7-2,2-3.6,3.7-4.7l19.5-12.5c2.3-1.4,4.6-2.2,6.8-2.2h59.9
		c0.8,0,1.6-0.3,2.5-0.9l7.7-5.6c1.2-1.1,2-2.2,2.5-3.6l3.4-9.4c0.2-0.6,0.2-1.4-0.2-2.2l-3.5-5.5c-0.4-0.6-1.1-0.9-2-0.9h-74.5
		c-1.8,0-2.4-0.8-1.8-2.3l4.2-11.6c0.6-1.7,1.7-2.5,3.6-2.5h88.8c1.7,0,2.8,0.6,3.4,1.7L268.8,14.9L268.8,14.9z"/>
	<path fill="#FFFFFF" d="M407.6,14.9c0.5,0.8,0.5,1.9,0,3.3L399,42c-0.6,1.7-1.4,2.8-2.5,3.6l-19.6,15c-1.2,0.9-2.5,1.4-4,1.4h-58.1
		c-0.8,0-1.6,0.2-2.2,0.6l-9.3,5.8c-1.1,0.6-1.7,1.6-2.1,2.7L294.3,90c-0.4,1.1,0,1.7,1.2,1.7H379c1.7,0,2.2,0.8,1.6,2.5l-4.1,11.4
		c-0.6,1.7-1.7,2.5-3.4,2.5H264c-3.2,0-4.1-1.6-2.9-4.7L275.4,64c0.7-2,2-3.6,3.7-4.7l19.5-12.5c2.3-1.4,4.6-2.2,6.8-2.2h59.9
		c0.8,0,1.6-0.3,2.5-0.9l7.7-5.6c1.2-1.1,2-2.2,2.5-3.6l3.4-9.4c0.2-0.6,0.2-1.4-0.2-2.2l-3.5-5.5c-0.4-0.6-1.1-0.9-2-0.9h-74.5
		c-1.8,0-2.4-0.8-1.8-2.3l4.2-11.6c0.6-1.7,1.7-2.5,3.6-2.5H396c1.7,0,2.8,0.6,3.4,1.7L407.6,14.9L407.6,14.9z"/>
</g>
</svg>
