<?xml version="1.0" encoding="utf-8"?>
<!-- Generator: Adobe Illustrator 29.5.1, SVG Export Plug-In . SVG Version: 9.03 Build 0)  -->
<svg version="1.1" baseProfile="tiny" id="Layer_1" xmlns="http://www.w3.org/2000/svg" xmlns:xlink="http://www.w3.org/1999/xlink"
	 x="0px" y="0px" viewBox="0 0 506 70" overflow="visible" xml:space="preserve">
<g>
	<path fill="#FFFFFF" d="M13,70h92c1.8,0,3.7-0.6,5.4-1.7l14.5-9.9c1.2-0.7,2-1.7,2.5-2.9L146,4.2c0.5-1.4,0.2-2.4-0.2-3
		c-0.4-0.6-1.2-1.2-2.7-1.2h-15.8c-1.8,0-3.3,1.1-4,2.9l-17.4,47.7c0,0-0.1,0.1-0.3,0.2l-7.7,5c-0.1,0.1-0.1,0.1-0.3,0.1H74.3
		L93.1,4.3c0.5-1.4,0.2-2.4-0.2-3C92.5,0.7,91.7,0,90.2,0h-14c-1.8,0-3.3,1.1-4,2.9L52.8,55.9H28.3l-3.5-4.3L42.1,4.3
		c0.5-1.4,0.2-2.4-0.2-3C41.5,0.8,40.7,0,39.2,0H23c-1.9,0-3.4,1.1-4.1,2.9L0.3,54.1C-0.2,55.6,0,57,0.8,58l7.4,9.9
		C9.3,69.3,11,70,13,70L13,70z"/>
	<path fill="#FFFFFF" d="M179.8,68.3c0.5,0.8,1.7,1.7,3.8,1.7H239c1.4,0,2.8-0.4,3.9-1.2l13.1-8.9c1.3-0.9,2.3-2.1,2.8-3.5l15-41.3
		c0.6-1.6,0.4-3.2-0.4-4.4l-6.6-8.9C266.2,0.9,265.1,0,263,0h-55.3c-1.4,0-2.8,0.4-3.9,1.2l-13.1,8.9c-1.3,0.9-2.3,2.1-2.8,3.6
		l-15,41.3c-0.8,2.1-0.2,3.6,0.5,4.5L179.8,68.3L179.8,68.3z M197.3,52C197.3,52,197.3,52,197.3,52l11.9-32.6
		c0.1-0.3,0.3-0.5,0.6-0.7l6.1-4.2c0.4-0.3,0.8-0.4,1-0.4h29.6l2.8,3.9c0,0,0,0,0,0l-11.8,32.5c-0.1,0.3-0.3,0.5-0.6,0.7l-6.1,4.2
		c-0.4,0.3-0.8,0.4-1,0.4L200.2,56L197.3,52L197.3,52z"/>
	<path fill="#FFFFFF" d="M315.6,68.1c0.8,1.2,2.3,1.9,4.1,1.9h45.9c1.9,0,3.3-1,4-2.9l2.7-7.4c0.5-1.5,0.2-2.5-0.2-3
		c-0.4-0.6-1.2-1.2-2.7-1.2h-34.7c-0.1,0-0.1,0-0.2,0l-4.1-5.2l16.7-45.9c0.5-1.5,0.2-2.4-0.2-3c-0.4-0.6-1.2-1.2-2.8-1.2H328
		c-2,0-3.4,1-4.1,2.9l-18,49.3c-0.7,1.8-0.2,3.2,0.5,4L315.6,68.1L315.6,68.1z"/>
	<path fill="#FFFFFF" d="M415.8,70h16.2c2,0,3.4-1,4.1-2.9l8-21.9h43.2c1.9,0,3.3-1,4-2.9l2.5-6.9c0.5-1.5,0.2-2.5-0.2-3
		c-0.4-0.6-1.2-1.2-2.7-1.2h-41.7l4.4-12.2c0-0.1,0.1-0.3,0.3-0.4l6.5-4.3c0.2-0.2,0.4-0.2,0.6-0.2h38.3c1.9,0,3.3-1,4-2.8l2.6-7.1
		c0.5-1.5,0.2-2.5-0.2-3c-0.4-0.6-1.2-1.2-2.7-1.2h-51.2c-1.5,0-3,0.5-4.3,1.4l-13.1,8.9c-1,0.7-1.9,1.8-2.3,3.1l-19.1,52.4
		c-0.5,1.5-0.2,2.5,0.2,3C413.5,69.4,414.3,70,415.8,70L415.8,70z"/>
</g>
</svg>
