<?xml version="1.0" encoding="utf-8"?>
<!-- Generator: Adobe Illustrator 29.5.1, SVG Export Plug-In . SVG Version: 9.03 Build 0)  -->
<svg version="1.1" baseProfile="tiny" id="Layer_1" xmlns="http://www.w3.org/2000/svg" xmlns:xlink="http://www.w3.org/1999/xlink"
	 x="0px" y="0px" viewBox="0 0 337.9 108" overflow="visible" xml:space="preserve">
<g>
	<path fill="#FFFFFF" d="M34,78c-0.3,0.9-0.3,1.7,0.2,2.5l7,9.1c0.6,0.8,1.5,1.2,2.9,1.2H101c1.7,0,2.2,0.8,1.6,2.5l-4.4,12.2
		c-0.6,1.7-1.7,2.5-3.4,2.5H19.6c-1.8,0-3.3-0.6-4-1.7l-15-19.5c-0.7-0.9-0.8-2-0.2-3.4L29.7,2.5C30.4,0.8,31.5,0,33.3,0h26.5
		c1.8,0,2.4,0.8,1.8,2.5L34,78L34,78z"/>
	<path fill="#FFFFFF" d="M268.8,14.9c0.5,0.8,0.5,1.9,0,3.3l-8.6,23.8c-0.6,1.7-1.4,2.8-2.5,3.6l-19.6,15c-1.2,0.9-2.5,1.4-4,1.4
		H176c-0.8,0-1.6,0.2-2.2,0.6l-9.3,5.8c-1.1,0.6-1.7,1.6-2.1,2.7l-6.9,18.9c-0.4,1.1,0,1.7,1.2,1.7h83.5c1.7,0,2.2,0.8,1.6,2.5
		l-4.1,11.4c-0.6,1.7-1.7,2.5-3.4,2.5H125.2c-3.2,0-4.1-1.6-2.9-4.7l14.3-39.4c0.7-2,2-3.6,3.7-4.7l19.5-12.5
		c2.3-1.4,4.6-2.2,6.8-2.2h59.9c0.8,0,1.6-0.3,2.5-0.9l7.7-5.6c1.2-1.1,2-2.2,2.5-3.6l3.4-9.4c0.2-0.6,0.2-1.4-0.2-2.2l-3.5-5.5
		c-0.4-0.6-1.1-0.9-2-0.9h-74.5c-1.8,0-2.4-0.8-1.8-2.3l4.2-11.6c0.6-1.7,1.7-2.5,3.6-2.5h88.8c1.7,0,2.8,0.6,3.4,1.7L268.8,14.9
		L268.8,14.9z"/>
	<path fill="#FFFFFF" d="M337.2,14.1c0.8,1.1,0.9,2.7,0.2,4.5l-31.6,86.9c-0.6,1.7-1.9,2.5-3.6,2.5h-23.3c-1.7,0-2.4-0.8-1.8-2.5
		l29.2-80.2c0.3-0.9,0.3-1.7-0.1-2.5l-3.6-5.6c-0.5-0.5-1.2-0.8-2.2-0.8H294c-1.7,0-2.2-0.8-1.6-2.3l4.2-11.6
		c0.6-1.7,1.7-2.5,3.4-2.5h24c2.7,0,4.5,0.8,5.5,2.3L337.2,14.1L337.2,14.1z"/>
</g>
</svg>
