<?xml version="1.0" encoding="utf-8"?>
<!-- Generator: Adobe Illustrator 27.2.0, SVG Export Plug-In . SVG Version: 6.00 Build 0)  -->
<svg version="1.1" baseProfile="tiny" xmlns="http://www.w3.org/2000/svg" xmlns:xlink="http://www.w3.org/1999/xlink" x="0px"
	 y="0px" viewBox="0 0 121.8 74.65" overflow="visible" xml:space="preserve">
<g id="Layer_1">
</g>
<g id="Layer_2">
</g>
<g id="Layer_3">
	<g>
		<path fill="#C9E7D9" d="M6.49,47.24H5.65v6.23c0,1.58-0.62,3.07-1.74,4.19l-2.17,2.17C0.69,60.88,0,61.56,0,63.31v8.19l3.25,3.16
			V62.07c0-0.83-0.15-1.74,0.4-2.45L5.1,57.6l-0.04,0.03c0.93-1.18,1.43-2.63,1.43-4.16V47.24z"/>
	</g>
	<g>
		<path fill="#C9E7D9" d="M12.42,0l0.57,0.63L8.2,4.95C6.85,6.17,6.42,7.06,6.38,8.87l0.06,8.39h-0.8L5.64,8
			c0.05-1.47,0.8-2.6,2.16-3.82L12.42,0z"/>
	</g>
	<g>
		<path fill="#C9E7D9" d="M115.31,47.24h0.84v6.23c0,1.58,0.62,3.07,1.74,4.19l2.17,2.17c1.05,1.04,1.74,1.73,1.74,3.47v8.19
			l-3.25,3.16V62.07c0-0.83,0.15-1.74-0.4-2.45l-1.45-2.02l0.04,0.03c-0.93-1.18-1.43-2.63-1.43-4.16V47.24z"/>
	</g>
	<g>
		<path fill="#C9E7D9" d="M109.27,0l-0.57,0.63l4.78,4.32c1.35,1.22,1.78,2.11,1.82,3.93l-0.06,8.39h0.8L116.06,8
			c-0.05-1.47-0.8-2.6-2.16-3.82L109.27,0z"/>
	</g>
</g>
<g id="Layer_4">
</g>
</svg>
