<?xml version="1.0" encoding="utf-8"?>
<!-- Generator: Adobe Illustrator 27.2.0, SVG Export Plug-In . SVG Version: 6.00 Build 0)  -->
<svg version="1.1" baseProfile="tiny" xmlns="http://www.w3.org/2000/svg" xmlns:xlink="http://www.w3.org/1999/xlink" x="0px"
	 y="0px" viewBox="0 0 53.22 18.34" overflow="visible" xml:space="preserve">
<g id="Layer_1">
</g>
<g id="Layer_2">
	<g>
		<g>
			<path fill="#C9E7D9" d="M9.53,9.59v3.42c0,0.91-0.53,1.37-1.59,1.37H1.59C0.53,14.38,0,13.92,0,13.01V5.48
				c0-0.91,0.53-1.37,1.59-1.37h7.94v2.05H2.38v6.16h4.76v-2.05H3.98l0.79-2.05h3.17C9,8.22,9.53,8.67,9.53,9.59z"/>
			<path fill="#C9E7D9" d="M13.5,10.27v2.05h5.56v2.05h-6.35c-1.06,0-1.59-0.46-1.59-1.37V5.48c0-0.91,0.53-1.37,1.59-1.37h6.35
				v2.05H13.5v2.05h3.18l-0.79,2.05H13.5z"/>
			<path fill="#C9E7D9" d="M28.6,6.16v8.22h-2.38V6.16h-3.18v8.22h-2.38v-8.9c0-0.91,0.53-1.37,1.59-1.37h10.32
				c1.06,0,1.59,0.46,1.59,1.37v8.9h-2.37l-0.01-8.22H28.6z"/>
			<path fill="#C9E7D9" d="M39.71,14.38V5.47c0-0.91,0.53-1.37,1.59-1.37h6.36c1.06,0,1.59,0.46,1.59,1.37v8.91h-2.37l-0.01-8.22
				h-4.77v8.22H39.71z"/>
		</g>
		<g>
			<polygon fill="#C9E7D9" points="36.91,17.26 37.91,17.26 38.1,17.03 36.91,17.03 35.73,17.03 35.91,17.26 			"/>
			<polygon fill="#C9E7D9" points="35.87,18.22 35.97,18.34 36.91,18.34 37.86,18.34 37.95,18.22 36.91,18.22 			"/>
			<polygon fill="#C9E7D9" points="35.91,17.36 35.91,17.6 36.91,17.6 37.92,17.6 37.92,17.36 36.91,17.36 			"/>
			<path fill="#C9E7D9" d="M36.91,4.01h0.65c0,0,0.02-0.53-0.06-1.88C37.41,0.43,36.91,0,36.91,0s-0.5,0.43-0.59,2.13
				c-0.07,1.34-0.06,1.88-0.06,1.88H36.91z"/>
			<polygon fill="#C9E7D9" points="38.1,16.9 38.1,8.45 37.75,6.92 37.75,4.11 36.91,4.11 36.08,4.11 36.08,6.92 35.73,8.45 
				35.73,16.9 36.91,16.9 			"/>
			<polygon fill="#C9E7D9" points="36.91,17.71 35.7,17.71 35.7,18.12 36.91,18.12 38.13,18.12 38.13,17.71 			"/>
		</g>
		<g>
			<polygon fill="#C9E7D9" points="52,17.26 53,17.26 53.19,17.03 52,17.03 50.81,17.03 51,17.26 			"/>
			<polygon fill="#C9E7D9" points="50.96,18.22 51.05,18.34 52,18.34 52.95,18.34 53.04,18.22 52,18.22 			"/>
			<polygon fill="#C9E7D9" points="51,17.36 51,17.6 52,17.6 53,17.6 53,17.36 52,17.36 			"/>
			<path fill="#C9E7D9" d="M52,4.01h0.65c0,0,0.02-0.53-0.06-1.88C52.5,0.43,52,0,52,0s-0.5,0.43-0.59,2.13
				c-0.07,1.34-0.06,1.88-0.06,1.88H52z"/>
			<polygon fill="#C9E7D9" points="53.19,16.9 53.19,8.45 52.84,6.92 52.84,4.11 52,4.11 51.16,4.11 51.16,6.92 50.81,8.45 
				50.81,16.9 52,16.9 			"/>
			<polygon fill="#C9E7D9" points="52,17.71 50.78,17.71 50.78,18.12 52,18.12 53.22,18.12 53.22,17.71 			"/>
		</g>
		<rect fill="#C9E7D9" width="34.14" height="2.05"/>
		<rect y="16.28" fill="#C9E7D9" width="34.14" height="2.05"/>
		<rect x="39.71" fill="#C9E7D9" width="9.49" height="2.05"/>
		<rect x="39.71" y="16.28" fill="#C9E7D9" width="9.49" height="2.05"/>
	</g>
</g>
<g id="Layer_3">
</g>
<g id="Layer_4">
</g>
</svg>
