<?xml version="1.0" encoding="utf-8"?>
<!-- Generator: Adobe Illustrator 26.0.1, SVG Export Plug-In . SVG Version: 6.00 Build 0)  -->
<svg version="1.1" baseProfile="tiny" id="Layer_1" xmlns="http://www.w3.org/2000/svg" xmlns:xlink="http://www.w3.org/1999/xlink"
	 x="0px" y="0px" viewBox="0 0 1920 1080" overflow="visible" xml:space="preserve">
<circle fill="none" stroke="#C7DDE2" stroke-width="1.5" stroke-miterlimit="10" cx="962.7" cy="-34.7" r="344.8"/>
<circle fill="none" stroke="#A7CBD6" stroke-width="1.5" stroke-miterlimit="10" cx="1769.4" cy="772" r="344.8"/>
<path fill="none" stroke="#A7CBD6" stroke-width="1.5" stroke-miterlimit="10" d="M1769.4-379.5c-190.4,0-344.8,154.4-344.8,344.8
	c0,255.1-206.8,462-462,462l0,0l0,0c-190.4,0-344.8,154.4-344.8,344.8s154.4,344.8,344.8,344.8s344.8-154.4,344.8-344.8
	c0-255.1,206.8-462,462-462l0,0l0,0c190.4,0,344.8-154.4,344.8-344.8S1959.8-379.5,1769.4-379.5z"/>
<g id="right_bracket_00000022556486712859297550000009975184583622515123_">
	<path id="Path_437_00000099641463757486689610000014119146428255769772_" fill="none" stroke="#84A8B6" stroke-miterlimit="10" d="
		M1902.9,1048.1v-5.8"/>
	<path id="Path_437_00000160174703427906698680000007310329596309958063_" fill="none" stroke="#84A8B6" stroke-miterlimit="10" d="
		M18.7,1053v3.7c0,6.4,5.1,11.5,11.5,11.5l0,0h1861.1c6.4,0,11.5-5.1,11.5-11.5v-3.6"/>
	<path id="Path_437_00000166676696091358354540000015178286314200061886_" fill="none" stroke="#84A8B6" stroke-miterlimit="10" d="
		M18.7,1042.3v6.1"/>
	
		<line id="Line_24_00000064324488371006052110000000690314772688318621_" fill="none" stroke="#84A8B6" stroke-width="2.5" stroke-miterlimit="10" x1="30.8" y1="1067.2" x2="1891.9" y2="1067.2"/>
</g>
<g>
	<path fill="#739EAD" d="M48.5,963.2h-1.2V959l-1.3,0.4v-0.9l2.4-0.8h0.1V963.2z"/>
	<path fill="#739EAD" d="M54.1,960.9c0,0.6-0.1,1-0.2,1.4c-0.2,0.4-0.4,0.6-0.7,0.8s-0.6,0.3-1,0.3s-0.7-0.1-1-0.3s-0.5-0.4-0.7-0.8
		c-0.2-0.4-0.2-0.8-0.2-1.4v-1c0-0.6,0.1-1,0.2-1.4c0.2-0.4,0.4-0.6,0.7-0.8s0.6-0.2,1-0.2s0.7,0.1,1,0.2c0.3,0.2,0.5,0.4,0.7,0.8
		c0.2,0.4,0.2,0.8,0.2,1.4V960.9z M53,959.7c0-0.3,0-0.6-0.1-0.8s-0.1-0.3-0.3-0.4c-0.1-0.1-0.2-0.1-0.4-0.1s-0.3,0-0.4,0.1
		c-0.1,0.1-0.2,0.2-0.3,0.4s-0.1,0.4-0.1,0.8v1.3c0,0.3,0,0.6,0.1,0.8s0.1,0.3,0.3,0.4s0.2,0.1,0.4,0.1s0.3,0,0.4-0.1
		s0.2-0.2,0.3-0.4s0.1-0.4,0.1-0.8V959.7z"/>
	<path fill="#739EAD" d="M55,960.5l0.3-2.9h3.2v1h-2.2l-0.1,1.2c0.1,0,0.2-0.1,0.3-0.1s0.3-0.1,0.5-0.1c0.4,0,0.7,0.1,0.9,0.2
		c0.3,0.2,0.5,0.4,0.6,0.6s0.2,0.6,0.2,1c0,0.3-0.1,0.6-0.2,0.9s-0.3,0.5-0.6,0.7s-0.6,0.3-1.1,0.3c-0.2,0-0.5,0-0.7-0.1
		s-0.4-0.2-0.6-0.3c-0.2-0.1-0.3-0.3-0.4-0.5c-0.1-0.2-0.2-0.4-0.2-0.7H56c0,0.2,0.1,0.4,0.2,0.5s0.3,0.2,0.5,0.2s0.3,0,0.4-0.1
		c0.1-0.1,0.2-0.2,0.2-0.4s0.1-0.3,0.1-0.5s0-0.4-0.1-0.5s-0.2-0.3-0.3-0.3c-0.1-0.1-0.3-0.1-0.5-0.1s-0.4,0-0.5,0.1
		s-0.2,0.1-0.3,0.2L55,960.5z"/>
</g>
<g>
	<path fill="#739EAD" d="M400.2,963.2H399V959l-1.3,0.4v-0.9l2.4-0.8h0.1V963.2z"/>
	<path fill="#739EAD" d="M405.8,960.9c0,0.6-0.1,1-0.2,1.4c-0.2,0.4-0.4,0.6-0.7,0.8s-0.6,0.3-1,0.3s-0.7-0.1-1-0.3
		s-0.5-0.4-0.7-0.8c-0.2-0.4-0.2-0.8-0.2-1.4v-1c0-0.6,0.1-1,0.2-1.4c0.2-0.4,0.4-0.6,0.7-0.8c0.3-0.2,0.6-0.2,1-0.2s0.7,0.1,1,0.2
		c0.3,0.2,0.5,0.4,0.7,0.8c0.2,0.4,0.2,0.8,0.2,1.4V960.9z M404.7,959.7c0-0.3,0-0.6-0.1-0.8s-0.1-0.3-0.3-0.4
		c-0.1-0.1-0.2-0.1-0.4-0.1c-0.2,0-0.3,0-0.4,0.1s-0.2,0.2-0.3,0.4c-0.1,0.2-0.1,0.4-0.1,0.8v1.3c0,0.3,0,0.6,0.1,0.8
		s0.1,0.3,0.3,0.4s0.2,0.1,0.4,0.1c0.2,0,0.3,0,0.4-0.1s0.2-0.2,0.3-0.4c0.1-0.2,0.1-0.4,0.1-0.8V959.7z"/>
	<path fill="#739EAD" d="M406.7,960.5l0.3-2.9h3.2v1H408l-0.1,1.2c0.1,0,0.2-0.1,0.3-0.1c0.1,0,0.3-0.1,0.5-0.1
		c0.4,0,0.7,0.1,0.9,0.2c0.3,0.2,0.5,0.4,0.6,0.6s0.2,0.6,0.2,1c0,0.3-0.1,0.6-0.2,0.9s-0.3,0.5-0.6,0.7c-0.3,0.2-0.6,0.3-1.1,0.3
		c-0.2,0-0.5,0-0.7-0.1s-0.4-0.2-0.6-0.3s-0.3-0.3-0.4-0.5s-0.2-0.4-0.2-0.7h1.2c0,0.2,0.1,0.4,0.2,0.5s0.3,0.2,0.5,0.2
		s0.3,0,0.4-0.1s0.2-0.2,0.2-0.4s0.1-0.3,0.1-0.5s0-0.4-0.1-0.5s-0.2-0.3-0.3-0.3c-0.1-0.1-0.3-0.1-0.5-0.1s-0.4,0-0.5,0.1
		s-0.2,0.1-0.3,0.2L406.7,960.5z"/>
</g>
<g>
	<path fill="#739EAD" d="M543,970.4h-1.2v-4.3l-1.3,0.4v-0.9l2.4-0.8h0.1V970.4z"/>
	<path fill="#739EAD" d="M548.7,968c0,0.6-0.1,1-0.2,1.4c-0.2,0.4-0.4,0.6-0.7,0.8s-0.6,0.3-1,0.3s-0.7-0.1-1-0.3s-0.5-0.4-0.7-0.8
		c-0.2-0.4-0.2-0.8-0.2-1.4v-1c0-0.6,0.1-1,0.2-1.4c0.2-0.4,0.4-0.6,0.7-0.8s0.6-0.2,1-0.2s0.7,0.1,1,0.2c0.3,0.2,0.5,0.4,0.7,0.8
		c0.2,0.4,0.2,0.8,0.2,1.4V968z M547.5,966.9c0-0.3,0-0.6-0.1-0.8s-0.1-0.3-0.3-0.4s-0.2-0.1-0.4-0.1s-0.3,0-0.4,0.1
		c-0.1,0.1-0.2,0.2-0.3,0.4s-0.1,0.4-0.1,0.8v1.3c0,0.3,0,0.6,0.1,0.8s0.1,0.3,0.3,0.4c0.1,0.1,0.2,0.1,0.4,0.1s0.3,0,0.4-0.1
		c0.1-0.1,0.2-0.2,0.3-0.4s0.1-0.4,0.1-0.8V966.9z"/>
	<path fill="#739EAD" d="M549.6,967.6l0.3-2.9h3.2v1h-2.2l-0.1,1.2c0.1,0,0.2-0.1,0.3-0.1s0.3-0.1,0.5-0.1c0.4,0,0.7,0.1,0.9,0.2
		c0.3,0.2,0.5,0.4,0.6,0.6s0.2,0.6,0.2,1c0,0.3-0.1,0.6-0.2,0.9c-0.1,0.3-0.3,0.5-0.6,0.7s-0.6,0.3-1.1,0.3c-0.2,0-0.5,0-0.7-0.1
		s-0.4-0.2-0.6-0.3c-0.2-0.1-0.3-0.3-0.4-0.5c-0.1-0.2-0.2-0.4-0.2-0.7h1.2c0,0.2,0.1,0.4,0.2,0.5c0.1,0.1,0.3,0.2,0.5,0.2
		s0.3,0,0.4-0.1c0.1-0.1,0.2-0.2,0.2-0.4s0.1-0.3,0.1-0.5s0-0.4-0.1-0.5s-0.2-0.3-0.3-0.3s-0.3-0.1-0.5-0.1s-0.4,0-0.5,0.1
		s-0.2,0.1-0.3,0.2L549.6,967.6z"/>
</g>
<g>
	<path fill="#739EAD" d="M543,1030.5h-1.2v-4.3l-1.3,0.4v-0.9l2.4-0.8h0.1V1030.5z"/>
	<path fill="#739EAD" d="M548.7,1028.1c0,0.6-0.1,1-0.2,1.4c-0.2,0.4-0.4,0.6-0.7,0.8s-0.6,0.3-1,0.3s-0.7-0.1-1-0.3
		c-0.3-0.2-0.5-0.4-0.7-0.8s-0.2-0.8-0.2-1.4v-1c0-0.6,0.1-1,0.2-1.4s0.4-0.6,0.7-0.8c0.3-0.2,0.6-0.2,1-0.2s0.7,0.1,1,0.2
		s0.5,0.4,0.7,0.8s0.2,0.8,0.2,1.4V1028.1z M547.5,1027c0-0.3,0-0.6-0.1-0.8s-0.1-0.3-0.3-0.4c-0.1-0.1-0.2-0.1-0.4-0.1
		s-0.3,0-0.4,0.1c-0.1,0.1-0.2,0.2-0.3,0.4c-0.1,0.2-0.1,0.4-0.1,0.8v1.3c0,0.3,0,0.6,0.1,0.8c0.1,0.2,0.1,0.3,0.3,0.4
		c0.1,0.1,0.2,0.1,0.4,0.1s0.3,0,0.4-0.1c0.1-0.1,0.2-0.2,0.3-0.4c0.1-0.2,0.1-0.4,0.1-0.8V1027z"/>
	<path fill="#739EAD" d="M549.6,1027.7l0.3-2.9h3.2v1h-2.2l-0.1,1.2c0.1,0,0.2-0.1,0.3-0.1c0.1-0.1,0.3-0.1,0.5-0.1
		c0.4,0,0.7,0.1,0.9,0.2s0.5,0.4,0.6,0.6s0.2,0.6,0.2,1c0,0.3-0.1,0.6-0.2,0.9c-0.1,0.3-0.3,0.5-0.6,0.7s-0.6,0.3-1.1,0.3
		c-0.2,0-0.5,0-0.7-0.1s-0.4-0.2-0.6-0.3c-0.2-0.1-0.3-0.3-0.4-0.5c-0.1-0.2-0.2-0.4-0.2-0.7h1.2c0,0.2,0.1,0.4,0.2,0.5
		c0.1,0.1,0.3,0.2,0.5,0.2s0.3,0,0.4-0.1c0.1-0.1,0.2-0.2,0.2-0.4c0-0.2,0.1-0.3,0.1-0.5s0-0.4-0.1-0.5s-0.2-0.3-0.3-0.3
		s-0.3-0.1-0.5-0.1s-0.4,0-0.5,0.1s-0.2,0.1-0.3,0.2L549.6,1027.7z"/>
</g>
<g>
	<path fill="#739EAD" d="M48.5,1023.6h-1.2v-4.3l-1.3,0.4v-0.9l2.4-0.8h0.1V1023.6z"/>
	<path fill="#739EAD" d="M54.1,1021.2c0,0.6-0.1,1-0.2,1.4c-0.2,0.4-0.4,0.6-0.7,0.8s-0.6,0.3-1,0.3s-0.7-0.1-1-0.3
		s-0.5-0.4-0.7-0.8c-0.2-0.4-0.2-0.8-0.2-1.4v-1c0-0.6,0.1-1,0.2-1.4c0.2-0.4,0.4-0.6,0.7-0.8s0.6-0.2,1-0.2s0.7,0.1,1,0.2
		c0.3,0.2,0.5,0.4,0.7,0.8c0.2,0.4,0.2,0.8,0.2,1.4V1021.2z M53,1020.1c0-0.3,0-0.6-0.1-0.8s-0.1-0.3-0.3-0.4
		c-0.1-0.1-0.2-0.1-0.4-0.1s-0.3,0-0.4,0.1c-0.1,0.1-0.2,0.2-0.3,0.4s-0.1,0.4-0.1,0.8v1.3c0,0.3,0,0.6,0.1,0.8s0.1,0.3,0.3,0.4
		s0.2,0.1,0.4,0.1s0.3,0,0.4-0.1s0.2-0.2,0.3-0.4s0.1-0.4,0.1-0.8V1020.1z"/>
	<path fill="#739EAD" d="M55,1020.8l0.3-2.9h3.2v1h-2.2l-0.1,1.2c0.1,0,0.2-0.1,0.3-0.1s0.3-0.1,0.5-0.1c0.4,0,0.7,0.1,0.9,0.2
		c0.3,0.2,0.5,0.4,0.6,0.6s0.2,0.6,0.2,1c0,0.3-0.1,0.6-0.2,0.9s-0.3,0.5-0.6,0.7s-0.6,0.3-1.1,0.3c-0.2,0-0.5,0-0.7-0.1
		s-0.4-0.2-0.6-0.3c-0.2-0.1-0.3-0.3-0.4-0.5c-0.1-0.2-0.2-0.4-0.2-0.7H56c0,0.2,0.1,0.4,0.2,0.5s0.3,0.2,0.5,0.2s0.3,0,0.4-0.1
		c0.1-0.1,0.2-0.2,0.2-0.4s0.1-0.3,0.1-0.5s0-0.4-0.1-0.5s-0.2-0.3-0.3-0.3c-0.1-0.1-0.3-0.1-0.5-0.1s-0.4,0-0.5,0.1
		s-0.2,0.1-0.3,0.2L55,1020.8z"/>
</g>
<g>
	<path fill="#739EAD" d="M48.5,1037.6h-1.2v-4.3l-1.3,0.4v-0.9l2.4-0.8h0.1V1037.6z"/>
	<path fill="#739EAD" d="M54.1,1035.3c0,0.6-0.1,1-0.2,1.4c-0.2,0.4-0.4,0.6-0.7,0.8s-0.6,0.3-1,0.3s-0.7-0.1-1-0.3
		s-0.5-0.4-0.7-0.8s-0.2-0.8-0.2-1.4v-1c0-0.6,0.1-1,0.2-1.4c0.2-0.4,0.4-0.6,0.7-0.8c0.3-0.2,0.6-0.2,1-0.2s0.7,0.1,1,0.2
		c0.3,0.2,0.5,0.4,0.7,0.8s0.2,0.8,0.2,1.4V1035.3z M53,1034.1c0-0.3,0-0.6-0.1-0.8s-0.1-0.3-0.3-0.4c-0.1-0.1-0.2-0.1-0.4-0.1
		s-0.3,0-0.4,0.1c-0.1,0.1-0.2,0.2-0.3,0.4c-0.1,0.2-0.1,0.4-0.1,0.8v1.3c0,0.3,0,0.6,0.1,0.8c0.1,0.2,0.1,0.3,0.3,0.4
		s0.2,0.1,0.4,0.1s0.3,0,0.4-0.1s0.2-0.2,0.3-0.4c0.1-0.2,0.1-0.4,0.1-0.8V1034.1z"/>
	<path fill="#739EAD" d="M55,1034.9l0.3-2.9h3.2v1h-2.2l-0.1,1.2c0.1,0,0.2-0.1,0.3-0.1s0.3-0.1,0.5-0.1c0.4,0,0.7,0.1,0.9,0.2
		c0.3,0.2,0.5,0.4,0.6,0.6s0.2,0.6,0.2,1c0,0.3-0.1,0.6-0.2,0.9s-0.3,0.5-0.6,0.7s-0.6,0.3-1.1,0.3c-0.2,0-0.5,0-0.7-0.1
		s-0.4-0.2-0.6-0.3c-0.2-0.1-0.3-0.3-0.4-0.5c-0.1-0.2-0.2-0.4-0.2-0.7H56c0,0.2,0.1,0.4,0.2,0.5s0.3,0.2,0.5,0.2s0.3,0,0.4-0.1
		c0.1-0.1,0.2-0.2,0.2-0.4c0-0.2,0.1-0.3,0.1-0.5s0-0.4-0.1-0.5s-0.2-0.3-0.3-0.3c-0.1-0.1-0.3-0.1-0.5-0.1s-0.4,0-0.5,0.1
		s-0.2,0.1-0.3,0.2L55,1034.9z"/>
	<path fill="#739EAD" d="M59.5,1037.1c0-0.2,0.1-0.3,0.2-0.4c0.1-0.1,0.3-0.2,0.5-0.2s0.4,0.1,0.5,0.2s0.2,0.3,0.2,0.4
		s-0.1,0.3-0.2,0.4c-0.1,0.1-0.3,0.2-0.5,0.2s-0.4-0.1-0.5-0.2S59.5,1037.2,59.5,1037.1z"/>
	<path fill="#739EAD" d="M65.7,1036.4h-4.1l-0.1-0.7l2.3-3.7h0.9l-1,1.7l-1.1,1.8h3L65.7,1036.4L65.7,1036.4z M65.1,1037.6H64v-5.6
		h1.2L65.1,1037.6L65.1,1037.6z"/>
	<path fill="#739EAD" d="M66.5,1034.9l0.3-2.9H70v1h-2.2l-0.1,1.2c0.1,0,0.2-0.1,0.3-0.1c0.1,0,0.3-0.1,0.5-0.1
		c0.4,0,0.7,0.1,0.9,0.2c0.3,0.2,0.5,0.4,0.6,0.6s0.2,0.6,0.2,1c0,0.3-0.1,0.6-0.2,0.9s-0.3,0.5-0.6,0.7c-0.3,0.2-0.6,0.3-1.1,0.3
		c-0.2,0-0.5,0-0.7-0.1s-0.4-0.2-0.6-0.3c-0.2-0.1-0.3-0.3-0.4-0.5s-0.2-0.4-0.2-0.7h1.2c0,0.2,0.1,0.4,0.2,0.5s0.3,0.2,0.5,0.2
		s0.3,0,0.4-0.1s0.2-0.2,0.2-0.4c0-0.2,0.1-0.3,0.1-0.5s0-0.4-0.1-0.5s-0.2-0.3-0.3-0.3c-0.1-0.1-0.3-0.1-0.5-0.1s-0.4,0-0.5,0.1
		s-0.2,0.1-0.3,0.2L66.5,1034.9z"/>
</g>
<g>
	<path fill="#739EAD" d="M220.9,1023.6h-1.2v-4.3l-1.3,0.4v-0.9l2.4-0.8h0.1V1023.6z"/>
	<path fill="#739EAD" d="M226.5,1021.2c0,0.6-0.1,1-0.2,1.4c-0.2,0.4-0.4,0.6-0.7,0.8s-0.6,0.3-1,0.3s-0.7-0.1-1-0.3
		s-0.5-0.4-0.7-0.8c-0.2-0.4-0.2-0.8-0.2-1.4v-1c0-0.6,0.1-1,0.2-1.4c0.2-0.4,0.4-0.6,0.7-0.8s0.6-0.2,1-0.2s0.7,0.1,1,0.2
		c0.3,0.2,0.5,0.4,0.7,0.8c0.2,0.4,0.2,0.8,0.2,1.4V1021.2z M225.3,1020.1c0-0.3,0-0.6-0.1-0.8s-0.1-0.3-0.3-0.4
		c-0.1-0.1-0.2-0.1-0.4-0.1s-0.3,0-0.4,0.1c-0.1,0.1-0.2,0.2-0.3,0.4s-0.1,0.4-0.1,0.8v1.3c0,0.3,0,0.6,0.1,0.8s0.1,0.3,0.3,0.4
		s0.2,0.1,0.4,0.1s0.3,0,0.4-0.1s0.2-0.2,0.3-0.4s0.1-0.4,0.1-0.8V1020.1z"/>
	<path fill="#739EAD" d="M227.4,1020.8l0.3-2.9h3.2v1h-2.2l-0.1,1.2c0.1,0,0.2-0.1,0.3-0.1s0.3-0.1,0.5-0.1c0.4,0,0.7,0.1,0.9,0.2
		c0.3,0.2,0.5,0.4,0.6,0.6s0.2,0.6,0.2,1c0,0.3-0.1,0.6-0.2,0.9s-0.3,0.5-0.6,0.7s-0.6,0.3-1.1,0.3c-0.2,0-0.5,0-0.7-0.1
		s-0.4-0.2-0.6-0.3c-0.2-0.1-0.3-0.3-0.4-0.5c-0.1-0.2-0.2-0.4-0.2-0.7h1.2c0,0.2,0.1,0.4,0.2,0.5s0.3,0.2,0.5,0.2s0.3,0,0.4-0.1
		c0.1-0.1,0.2-0.2,0.2-0.4s0.1-0.3,0.1-0.5s0-0.4-0.1-0.5s-0.2-0.3-0.3-0.3c-0.1-0.1-0.3-0.1-0.5-0.1s-0.4,0-0.5,0.1
		s-0.2,0.1-0.3,0.2L227.4,1020.8z"/>
</g>
<g>
	<path fill="#739EAD" d="M220.9,1037.6h-1.2v-4.3l-1.3,0.4v-0.9l2.4-0.8h0.1V1037.6z"/>
	<path fill="#739EAD" d="M226.5,1035.3c0,0.6-0.1,1-0.2,1.4c-0.2,0.4-0.4,0.6-0.7,0.8s-0.6,0.3-1,0.3s-0.7-0.1-1-0.3
		s-0.5-0.4-0.7-0.8s-0.2-0.8-0.2-1.4v-1c0-0.6,0.1-1,0.2-1.4c0.2-0.4,0.4-0.6,0.7-0.8c0.3-0.2,0.6-0.2,1-0.2s0.7,0.1,1,0.2
		c0.3,0.2,0.5,0.4,0.7,0.8s0.2,0.8,0.2,1.4V1035.3z M225.3,1034.1c0-0.3,0-0.6-0.1-0.8s-0.1-0.3-0.3-0.4c-0.1-0.1-0.2-0.1-0.4-0.1
		s-0.3,0-0.4,0.1c-0.1,0.1-0.2,0.2-0.3,0.4c-0.1,0.2-0.1,0.4-0.1,0.8v1.3c0,0.3,0,0.6,0.1,0.8c0.1,0.2,0.1,0.3,0.3,0.4
		s0.2,0.1,0.4,0.1s0.3,0,0.4-0.1s0.2-0.2,0.3-0.4c0.1-0.2,0.1-0.4,0.1-0.8V1034.1z"/>
	<path fill="#739EAD" d="M227.4,1034.9l0.3-2.9h3.2v1h-2.2l-0.1,1.2c0.1,0,0.2-0.1,0.3-0.1s0.3-0.1,0.5-0.1c0.4,0,0.7,0.1,0.9,0.2
		c0.3,0.2,0.5,0.4,0.6,0.6s0.2,0.6,0.2,1c0,0.3-0.1,0.6-0.2,0.9s-0.3,0.5-0.6,0.7s-0.6,0.3-1.1,0.3c-0.2,0-0.5,0-0.7-0.1
		s-0.4-0.2-0.6-0.3c-0.2-0.1-0.3-0.3-0.4-0.5c-0.1-0.2-0.2-0.4-0.2-0.7h1.2c0,0.2,0.1,0.4,0.2,0.5s0.3,0.2,0.5,0.2s0.3,0,0.4-0.1
		c0.1-0.1,0.2-0.2,0.2-0.4c0-0.2,0.1-0.3,0.1-0.5s0-0.4-0.1-0.5s-0.2-0.3-0.3-0.3c-0.1-0.1-0.3-0.1-0.5-0.1s-0.4,0-0.5,0.1
		s-0.2,0.1-0.3,0.2L227.4,1034.9z"/>
	<path fill="#739EAD" d="M231.9,1037.1c0-0.2,0.1-0.3,0.2-0.4c0.1-0.1,0.3-0.2,0.5-0.2s0.4,0.1,0.5,0.2s0.2,0.3,0.2,0.4
		s-0.1,0.3-0.2,0.4c-0.1,0.1-0.3,0.2-0.5,0.2s-0.4-0.1-0.5-0.2S231.9,1037.2,231.9,1037.1z"/>
	<path fill="#739EAD" d="M238.1,1036.4H234l-0.1-0.7l2.3-3.7h0.9l-1,1.7l-1.1,1.8h3v0.9H238.1z M237.5,1037.6h-1.2v-5.6h1.2V1037.6z
		"/>
	<path fill="#739EAD" d="M238.9,1034.9l0.3-2.9h3.2v1h-2.2l-0.1,1.2c0.1,0,0.2-0.1,0.3-0.1s0.3-0.1,0.5-0.1c0.4,0,0.7,0.1,0.9,0.2
		c0.3,0.2,0.5,0.4,0.6,0.6s0.2,0.6,0.2,1c0,0.3-0.1,0.6-0.2,0.9s-0.3,0.5-0.6,0.7s-0.6,0.3-1.1,0.3c-0.2,0-0.5,0-0.7-0.1
		s-0.4-0.2-0.6-0.3c-0.2-0.1-0.3-0.3-0.4-0.5c-0.1-0.2-0.2-0.4-0.2-0.7h1.2c0,0.2,0.1,0.4,0.2,0.5s0.3,0.2,0.5,0.2s0.3,0,0.4-0.1
		c0.1-0.1,0.2-0.2,0.2-0.4c0-0.2,0.1-0.3,0.1-0.5s0-0.4-0.1-0.5s-0.2-0.3-0.3-0.3c-0.1-0.1-0.3-0.1-0.5-0.1s-0.4,0-0.5,0.1
		s-0.2,0.1-0.3,0.2L238.9,1034.9z"/>
</g>
<g>
	<path fill="#739EAD" d="M400.9,1037.6h-1.2v-4.3l-1.3,0.4v-0.9l2.4-0.8h0.1V1037.6z"/>
	<path fill="#739EAD" d="M406.5,1035.3c0,0.6-0.1,1-0.2,1.4c-0.2,0.4-0.4,0.6-0.7,0.8s-0.6,0.3-1,0.3s-0.7-0.1-1-0.3
		s-0.5-0.4-0.7-0.8s-0.2-0.8-0.2-1.4v-1c0-0.6,0.1-1,0.2-1.4c0.2-0.4,0.4-0.6,0.7-0.8c0.3-0.2,0.6-0.2,1-0.2s0.7,0.1,1,0.2
		c0.3,0.2,0.5,0.4,0.7,0.8s0.2,0.8,0.2,1.4V1035.3z M405.3,1034.1c0-0.3,0-0.6-0.1-0.8s-0.1-0.3-0.3-0.4c-0.1-0.1-0.2-0.1-0.4-0.1
		c-0.2,0-0.3,0-0.4,0.1s-0.2,0.2-0.3,0.4c-0.1,0.2-0.1,0.4-0.1,0.8v1.3c0,0.3,0,0.6,0.1,0.8c0.1,0.2,0.1,0.3,0.3,0.4
		s0.2,0.1,0.4,0.1c0.2,0,0.3,0,0.4-0.1s0.2-0.2,0.3-0.4c0.1-0.2,0.1-0.4,0.1-0.8V1034.1z"/>
	<path fill="#739EAD" d="M407.4,1034.9l0.3-2.9h3.2v1h-2.2l-0.1,1.2c0.1,0,0.2-0.1,0.3-0.1c0.1,0,0.3-0.1,0.5-0.1
		c0.4,0,0.7,0.1,0.9,0.2c0.3,0.2,0.5,0.4,0.6,0.6s0.2,0.6,0.2,1c0,0.3-0.1,0.6-0.2,0.9s-0.3,0.5-0.6,0.7c-0.3,0.2-0.6,0.3-1.1,0.3
		c-0.2,0-0.5,0-0.7-0.1s-0.4-0.2-0.6-0.3c-0.2-0.1-0.3-0.3-0.4-0.5s-0.2-0.4-0.2-0.7h1.2c0,0.2,0.1,0.4,0.2,0.5s0.3,0.2,0.5,0.2
		s0.3,0,0.4-0.1s0.2-0.2,0.2-0.4c0-0.2,0.1-0.3,0.1-0.5s0-0.4-0.1-0.5s-0.2-0.3-0.3-0.3c-0.1-0.1-0.3-0.1-0.5-0.1s-0.4,0-0.5,0.1
		s-0.2,0.1-0.3,0.2L407.4,1034.9z"/>
	<path fill="#739EAD" d="M411.9,1037.1c0-0.2,0.1-0.3,0.2-0.4s0.3-0.2,0.5-0.2s0.4,0.1,0.5,0.2s0.2,0.3,0.2,0.4s-0.1,0.3-0.2,0.4
		s-0.3,0.2-0.5,0.2s-0.4-0.1-0.5-0.2S411.9,1037.2,411.9,1037.1z"/>
	<path fill="#739EAD" d="M418.1,1036.4H414l-0.1-0.7l2.3-3.7h0.9l-1,1.7l-1.1,1.8h3v0.9H418.1z M417.5,1037.6h-1.2v-5.6h1.2V1037.6z
		"/>
	<path fill="#739EAD" d="M418.8,1034.9l0.3-2.9h3.2v1h-2.2l-0.1,1.2c0.1,0,0.2-0.1,0.3-0.1c0.1,0,0.3-0.1,0.5-0.1
		c0.4,0,0.7,0.1,0.9,0.2c0.3,0.2,0.5,0.4,0.6,0.6s0.2,0.6,0.2,1c0,0.3-0.1,0.6-0.2,0.9s-0.3,0.5-0.6,0.7c-0.3,0.2-0.6,0.3-1.1,0.3
		c-0.2,0-0.5,0-0.7-0.1s-0.4-0.2-0.6-0.3c-0.2-0.1-0.3-0.3-0.4-0.5s-0.2-0.4-0.2-0.7h1.2c0,0.2,0.1,0.4,0.2,0.5s0.3,0.2,0.5,0.2
		s0.3,0,0.4-0.1s0.2-0.2,0.2-0.4c0-0.2,0.1-0.3,0.1-0.5s0-0.4-0.1-0.5s-0.2-0.3-0.3-0.3c-0.1-0.1-0.3-0.1-0.5-0.1s-0.4,0-0.5,0.1
		s-0.2,0.1-0.3,0.2L418.8,1034.9z"/>
</g>
<g>
	<path fill="#739EAD" d="M220.2,976.1H219v-4.3l-1.3,0.4v-0.9l2.4-0.8h0.1V976.1z"/>
	<path fill="#739EAD" d="M225.9,973.7c0,0.6-0.1,1-0.2,1.4c-0.2,0.4-0.4,0.6-0.7,0.8s-0.6,0.3-1,0.3s-0.7-0.1-1-0.3
		s-0.5-0.4-0.7-0.8c-0.2-0.4-0.2-0.8-0.2-1.4v-1c0-0.6,0.1-1,0.2-1.4c0.2-0.4,0.4-0.6,0.7-0.8s0.6-0.2,1-0.2s0.7,0.1,1,0.2
		c0.3,0.2,0.5,0.4,0.7,0.8c0.2,0.4,0.2,0.8,0.2,1.4V973.7z M224.7,972.6c0-0.3,0-0.6-0.1-0.8s-0.1-0.3-0.3-0.4
		c-0.1-0.1-0.2-0.1-0.4-0.1s-0.3,0-0.4,0.1c-0.1,0.1-0.2,0.2-0.3,0.4s-0.1,0.4-0.1,0.8v1.3c0,0.3,0,0.6,0.1,0.8s0.1,0.3,0.3,0.4
		s0.2,0.1,0.4,0.1s0.3,0,0.4-0.1s0.2-0.2,0.3-0.4s0.1-0.4,0.1-0.8V972.6z"/>
	<path fill="#739EAD" d="M226.7,973.3l0.3-2.9h3.2v1H228l-0.1,1.2c0.1,0,0.2-0.1,0.3-0.1s0.3-0.1,0.5-0.1c0.4,0,0.7,0.1,0.9,0.2
		c0.3,0.2,0.5,0.4,0.6,0.6s0.2,0.6,0.2,1c0,0.3-0.1,0.6-0.2,0.9s-0.3,0.5-0.6,0.7s-0.6,0.3-1.1,0.3c-0.2,0-0.5,0-0.7-0.1
		s-0.4-0.2-0.6-0.3c-0.2-0.1-0.3-0.3-0.4-0.5c-0.1-0.2-0.2-0.4-0.2-0.7h1.2c0,0.2,0.1,0.4,0.2,0.5s0.3,0.2,0.5,0.2s0.3,0,0.4-0.1
		c0.1-0.1,0.2-0.2,0.2-0.4s0.1-0.3,0.1-0.5s0-0.4-0.1-0.5s-0.2-0.3-0.3-0.3c-0.1-0.1-0.3-0.1-0.5-0.1s-0.4,0-0.5,0.1
		s-0.2,0.1-0.3,0.2L226.7,973.3z"/>
	<path fill="#739EAD" d="M231.3,975.5c0-0.2,0.1-0.3,0.2-0.4c0.1-0.1,0.3-0.2,0.5-0.2s0.4,0.1,0.5,0.2c0.1,0.1,0.2,0.3,0.2,0.4
		s-0.1,0.3-0.2,0.4c-0.1,0.1-0.3,0.2-0.5,0.2s-0.4-0.1-0.5-0.2S231.3,975.7,231.3,975.5z"/>
	<path fill="#739EAD" d="M237.5,974.9h-4.1l-0.1-0.7l2.3-3.7h0.9l-1,1.7l-1.1,1.8h3v0.9H237.5z M236.8,976.1h-1.2v-5.6h1.2V976.1z"
		/>
	<path fill="#739EAD" d="M238.2,973.3l0.3-2.9h3.2v1h-2.2l-0.1,1.2c0.1,0,0.2-0.1,0.3-0.1s0.3-0.1,0.5-0.1c0.4,0,0.7,0.1,0.9,0.2
		c0.3,0.2,0.5,0.4,0.6,0.6s0.2,0.6,0.2,1c0,0.3-0.1,0.6-0.2,0.9s-0.3,0.5-0.6,0.7s-0.6,0.3-1.1,0.3c-0.2,0-0.5,0-0.7-0.1
		s-0.4-0.2-0.6-0.3c-0.2-0.1-0.3-0.3-0.4-0.5c-0.1-0.2-0.2-0.4-0.2-0.7h1.2c0,0.2,0.1,0.4,0.2,0.5s0.3,0.2,0.5,0.2s0.3,0,0.4-0.1
		c0.1-0.1,0.2-0.2,0.2-0.4s0.1-0.3,0.1-0.5s0-0.4-0.1-0.5s-0.2-0.3-0.3-0.3c-0.1-0.1-0.3-0.1-0.5-0.1s-0.4,0-0.5,0.1
		s-0.2,0.1-0.3,0.2L238.2,973.3z"/>
</g>
<g>
	<path fill="#739EAD" d="M49.6,989.9h-3.9v-0.8l1.8-1.9c0.2-0.2,0.3-0.4,0.4-0.5c0.1-0.1,0.2-0.3,0.2-0.4c0-0.1,0.1-0.2,0.1-0.3
		c0-0.2-0.1-0.4-0.2-0.6c-0.1-0.1-0.3-0.2-0.5-0.2s-0.3,0-0.4,0.1s-0.2,0.2-0.3,0.3s-0.1,0.3-0.1,0.5h-1.2c0-0.3,0.1-0.7,0.2-0.9
		s0.4-0.5,0.7-0.7s0.6-0.3,1.1-0.3c0.6,0,1.1,0.1,1.4,0.4c0.3,0.3,0.5,0.7,0.5,1.2c0,0.3-0.1,0.5-0.2,0.7c-0.1,0.2-0.2,0.5-0.4,0.7
		s-0.4,0.5-0.7,0.8l-0.9,1h2.4C49.6,989,49.6,989.9,49.6,989.9z"/>
	<path fill="#739EAD" d="M54.1,987.6c0,0.6-0.1,1-0.2,1.4c-0.2,0.4-0.4,0.6-0.7,0.8s-0.6,0.3-1,0.3s-0.7-0.1-1-0.3s-0.5-0.4-0.7-0.8
		c-0.2-0.4-0.2-0.8-0.2-1.4v-1c0-0.6,0.1-1,0.2-1.4c0.2-0.4,0.4-0.6,0.7-0.8s0.6-0.2,1-0.2s0.7,0.1,1,0.2c0.3,0.2,0.5,0.4,0.7,0.8
		c0.2,0.4,0.2,0.8,0.2,1.4V987.6z M53,986.4c0-0.3,0-0.6-0.1-0.8s-0.1-0.3-0.3-0.4c-0.1-0.1-0.2-0.1-0.4-0.1s-0.3,0-0.4,0.1
		c-0.1,0.1-0.2,0.2-0.3,0.4s-0.1,0.4-0.1,0.8v1.3c0,0.3,0,0.6,0.1,0.8s0.1,0.3,0.3,0.4s0.2,0.1,0.4,0.1s0.3,0,0.4-0.1
		s0.2-0.2,0.3-0.4s0.1-0.4,0.1-0.8V986.4z"/>
	<path fill="#739EAD" d="M58.8,988.7h-4.1l-0.1-0.7l2.3-3.7H58l-1,1.7l-1.1,1.8h3v0.9H58.8z M58.2,989.9H57v-5.6h1.2V989.9z"/>
	<path fill="#739EAD" d="M59.5,989.3c0-0.2,0.1-0.3,0.2-0.4c0.1-0.1,0.3-0.2,0.5-0.2s0.4,0.1,0.5,0.2c0.1,0.1,0.2,0.3,0.2,0.4
		s-0.1,0.3-0.2,0.4c-0.1,0.1-0.3,0.2-0.5,0.2s-0.4-0.1-0.5-0.2S59.5,989.5,59.5,989.3z"/>
	<path fill="#739EAD" d="M65.7,988.7h-4.1l-0.1-0.7l2.3-3.7h0.9l-1,1.7l-1.1,1.8h3L65.7,988.7L65.7,988.7z M65.1,989.9H64v-5.6h1.2
		L65.1,989.9L65.1,989.9z"/>
	<path fill="#739EAD" d="M66.5,987.1l0.3-2.9H70v1h-2.2l-0.1,1.2c0.1,0,0.2-0.1,0.3-0.1c0.1,0,0.3-0.1,0.5-0.1
		c0.4,0,0.7,0.1,0.9,0.2c0.3,0.2,0.5,0.4,0.6,0.6s0.2,0.6,0.2,1c0,0.3-0.1,0.6-0.2,0.9s-0.3,0.5-0.6,0.7c-0.3,0.2-0.6,0.3-1.1,0.3
		c-0.2,0-0.5,0-0.7-0.1s-0.4-0.2-0.6-0.3s-0.3-0.3-0.4-0.5s-0.2-0.4-0.2-0.7h1.2c0,0.2,0.1,0.4,0.2,0.5s0.3,0.2,0.5,0.2
		s0.3,0,0.4-0.1s0.2-0.2,0.2-0.4s0.1-0.3,0.1-0.5s0-0.4-0.1-0.5s-0.2-0.3-0.3-0.3c-0.1-0.1-0.3-0.1-0.5-0.1s-0.4,0-0.5,0.1
		s-0.2,0.1-0.3,0.2L66.5,987.1z"/>
	<path fill="#739EAD" d="M71,989.3c0-0.2,0.1-0.3,0.2-0.4c0.1-0.1,0.3-0.2,0.5-0.2s0.4,0.1,0.5,0.2c0.1,0.1,0.2,0.3,0.2,0.4
		s-0.1,0.3-0.2,0.4c-0.1,0.1-0.3,0.2-0.5,0.2s-0.4-0.1-0.5-0.2S71,989.5,71,989.3z"/>
	<path fill="#739EAD" d="M77.1,984.9l-2.2,5h-1.2l2.2-4.7h-2.8v-0.9h4V984.9z"/>
	<path fill="#739EAD" d="M79,986.9h0.8c0.3,0,0.6,0,0.8,0.1s0.4,0.2,0.6,0.3s0.3,0.3,0.4,0.5s0.1,0.4,0.1,0.6c0,0.4-0.1,0.7-0.3,0.9
		s-0.4,0.4-0.7,0.6c-0.3,0.1-0.6,0.2-1,0.2c-0.2,0-0.5,0-0.7-0.1s-0.4-0.2-0.6-0.3s-0.3-0.3-0.4-0.5s-0.2-0.4-0.2-0.7H79
		c0,0.1,0,0.2,0.1,0.3s0.2,0.2,0.3,0.2c0.1,0.1,0.3,0.1,0.4,0.1c0.3,0,0.5-0.1,0.6-0.2c0.1-0.1,0.2-0.3,0.2-0.5s0-0.4-0.1-0.5
		s-0.2-0.2-0.3-0.3c-0.1-0.1-0.3-0.1-0.5-0.1H79V986.9z M79.6,986.6c0.2,0,0.3,0,0.4-0.1s0.2-0.1,0.3-0.3c0.1-0.1,0.1-0.2,0.1-0.4
		c0-0.1,0-0.2-0.1-0.4c-0.1-0.1-0.1-0.2-0.2-0.2c-0.1-0.1-0.2-0.1-0.4-0.1c-0.1,0-0.2,0-0.4,0.1c-0.1,0-0.2,0.1-0.3,0.2
		c-0.1,0.1-0.1,0.2-0.1,0.3h-1.2c0-0.3,0.1-0.6,0.3-0.8c0.2-0.2,0.4-0.4,0.7-0.5c0.3-0.1,0.6-0.2,0.9-0.2c0.4,0,0.7,0.1,1,0.2
		c0.3,0.1,0.5,0.3,0.7,0.5s0.2,0.5,0.2,0.9c0,0.2,0,0.4-0.1,0.5s-0.2,0.3-0.4,0.5c-0.2,0.1-0.3,0.2-0.6,0.3s-0.5,0.1-0.7,0.1H79
		v-0.6H79.6z"/>
</g>
<g>
	<path fill="#739EAD" d="M221.1,989.9h-3.9v-0.8l1.8-1.9c0.2-0.2,0.3-0.4,0.4-0.5c0.1-0.1,0.2-0.3,0.2-0.4c0-0.1,0.1-0.2,0.1-0.3
		c0-0.2-0.1-0.4-0.2-0.6c-0.1-0.1-0.3-0.2-0.5-0.2s-0.3,0-0.4,0.1s-0.2,0.2-0.3,0.3s-0.1,0.3-0.1,0.5H217c0-0.3,0.1-0.7,0.2-0.9
		s0.4-0.5,0.7-0.7s0.6-0.3,1.1-0.3c0.6,0,1.1,0.1,1.4,0.4c0.3,0.3,0.5,0.7,0.5,1.2c0,0.3-0.1,0.5-0.2,0.7c-0.1,0.2-0.2,0.5-0.4,0.7
		s-0.4,0.5-0.7,0.8l-0.9,1h2.4L221.1,989.9L221.1,989.9z"/>
	<path fill="#739EAD" d="M225.6,987.6c0,0.6-0.1,1-0.2,1.4c-0.2,0.4-0.4,0.6-0.7,0.8s-0.6,0.3-1,0.3s-0.7-0.1-1-0.3
		s-0.5-0.4-0.7-0.8c-0.2-0.4-0.2-0.8-0.2-1.4v-1c0-0.6,0.1-1,0.2-1.4c0.2-0.4,0.4-0.6,0.7-0.8s0.6-0.2,1-0.2s0.7,0.1,1,0.2
		c0.3,0.2,0.5,0.4,0.7,0.8c0.2,0.4,0.2,0.8,0.2,1.4V987.6z M224.4,986.4c0-0.3,0-0.6-0.1-0.8s-0.1-0.3-0.3-0.4
		c-0.1-0.1-0.2-0.1-0.4-0.1s-0.3,0-0.4,0.1c-0.1,0.1-0.2,0.2-0.3,0.4s-0.1,0.4-0.1,0.8v1.3c0,0.3,0,0.6,0.1,0.8s0.1,0.3,0.3,0.4
		s0.2,0.1,0.4,0.1s0.3,0,0.4-0.1s0.2-0.2,0.3-0.4s0.1-0.4,0.1-0.8V986.4z"/>
	<path fill="#739EAD" d="M230.3,988.7h-4.1l-0.1-0.7l2.3-3.7h0.9l-1,1.7l-1.1,1.8h3v0.9H230.3z M229.7,989.9h-1.2v-5.6h1.2V989.9z"
		/>
	<path fill="#739EAD" d="M231,989.3c0-0.2,0.1-0.3,0.2-0.4c0.1-0.1,0.3-0.2,0.5-0.2s0.4,0.1,0.5,0.2c0.1,0.1,0.2,0.3,0.2,0.4
		s-0.1,0.3-0.2,0.4c-0.1,0.1-0.3,0.2-0.5,0.2s-0.4-0.1-0.5-0.2S231,989.5,231,989.3z"/>
	<path fill="#739EAD" d="M237.2,988.7h-4.1L233,988l2.3-3.7h0.9l-1,1.7l-1.1,1.8h3v0.9H237.2z M236.6,989.9h-1.2v-5.6h1.2V989.9z"/>
	<path fill="#739EAD" d="M237.9,987.1l0.3-2.9h3.2v1h-2.2l-0.1,1.2c0.1,0,0.2-0.1,0.3-0.1s0.3-0.1,0.5-0.1c0.4,0,0.7,0.1,0.9,0.2
		c0.3,0.2,0.5,0.4,0.6,0.6s0.2,0.6,0.2,1c0,0.3-0.1,0.6-0.2,0.9s-0.3,0.5-0.6,0.7s-0.6,0.3-1.1,0.3c-0.2,0-0.5,0-0.7-0.1
		s-0.4-0.2-0.6-0.3c-0.2-0.1-0.3-0.3-0.4-0.5c-0.1-0.2-0.2-0.4-0.2-0.7h1.2c0,0.2,0.1,0.4,0.2,0.5s0.3,0.2,0.5,0.2s0.3,0,0.4-0.1
		c0.1-0.1,0.2-0.2,0.2-0.4s0.1-0.3,0.1-0.5s0-0.4-0.1-0.5s-0.2-0.3-0.3-0.3c-0.1-0.1-0.3-0.1-0.5-0.1s-0.4,0-0.5,0.1
		s-0.2,0.1-0.3,0.2L237.9,987.1z"/>
	<path fill="#739EAD" d="M242.5,989.3c0-0.2,0.1-0.3,0.2-0.4c0.1-0.1,0.3-0.2,0.5-0.2s0.4,0.1,0.5,0.2c0.1,0.1,0.2,0.3,0.2,0.4
		s-0.1,0.3-0.2,0.4c-0.1,0.1-0.3,0.2-0.5,0.2s-0.4-0.1-0.5-0.2S242.5,989.5,242.5,989.3z"/>
	<path fill="#739EAD" d="M248.6,984.9l-2.2,5h-1.2l2.2-4.7h-2.8v-0.9h4V984.9z"/>
	<path fill="#739EAD" d="M250.4,986.9h0.8c0.3,0,0.6,0,0.8,0.1s0.4,0.2,0.6,0.3c0.2,0.1,0.3,0.3,0.4,0.5c0.1,0.2,0.1,0.4,0.1,0.6
		c0,0.4-0.1,0.7-0.3,0.9s-0.4,0.4-0.7,0.6c-0.3,0.1-0.6,0.2-1,0.2c-0.2,0-0.5,0-0.7-0.1s-0.4-0.2-0.6-0.3s-0.3-0.3-0.4-0.5
		c-0.1-0.2-0.2-0.4-0.2-0.7h1.2c0,0.1,0,0.2,0.1,0.3s0.2,0.2,0.3,0.2c0.1,0.1,0.3,0.1,0.4,0.1c0.3,0,0.5-0.1,0.6-0.2
		c0.1-0.1,0.2-0.3,0.2-0.5s0-0.4-0.1-0.5s-0.2-0.2-0.3-0.3s-0.3-0.1-0.5-0.1h-0.6v-0.6H250.4z M251,986.6c0.2,0,0.3,0,0.4-0.1
		c0.1-0.1,0.2-0.1,0.3-0.3c0.1-0.1,0.1-0.2,0.1-0.4c0-0.1,0-0.2-0.1-0.4c-0.1-0.1-0.1-0.2-0.2-0.2c-0.1-0.1-0.2-0.1-0.4-0.1
		c-0.1,0-0.2,0-0.4,0.1c-0.1,0-0.2,0.1-0.3,0.2c-0.1,0.1-0.1,0.2-0.1,0.3h-1.2c0-0.3,0.1-0.6,0.3-0.8s0.4-0.4,0.7-0.5
		s0.6-0.2,0.9-0.2c0.4,0,0.7,0.1,1,0.2c0.3,0.1,0.5,0.3,0.7,0.5s0.2,0.5,0.2,0.9c0,0.2,0,0.4-0.1,0.5s-0.2,0.3-0.4,0.5
		c-0.2,0.1-0.3,0.2-0.6,0.3s-0.5,0.1-0.7,0.1h-0.8v-0.6H251z"/>
</g>
<g>
	<path fill="#739EAD" d="M400.4,976.1h-1.2v-4.3l-1.3,0.4v-0.9l2.4-0.8h0.1V976.1z"/>
	<path fill="#739EAD" d="M406,973.7c0,0.6-0.1,1-0.2,1.4c-0.2,0.4-0.4,0.6-0.7,0.8s-0.6,0.3-1,0.3s-0.7-0.1-1-0.3s-0.5-0.4-0.7-0.8
		c-0.2-0.4-0.2-0.8-0.2-1.4v-1c0-0.6,0.1-1,0.2-1.4c0.2-0.4,0.4-0.6,0.7-0.8c0.3-0.2,0.6-0.2,1-0.2s0.7,0.1,1,0.2
		c0.3,0.2,0.5,0.4,0.7,0.8c0.2,0.4,0.2,0.8,0.2,1.4V973.7z M404.8,972.6c0-0.3,0-0.6-0.1-0.8s-0.1-0.3-0.3-0.4
		c-0.1-0.1-0.2-0.1-0.4-0.1c-0.2,0-0.3,0-0.4,0.1s-0.2,0.2-0.3,0.4c-0.1,0.2-0.1,0.4-0.1,0.8v1.3c0,0.3,0,0.6,0.1,0.8
		s0.1,0.3,0.3,0.4s0.2,0.1,0.4,0.1c0.2,0,0.3,0,0.4-0.1s0.2-0.2,0.3-0.4c0.1-0.2,0.1-0.4,0.1-0.8V972.6z"/>
	<path fill="#739EAD" d="M406.9,973.3l0.3-2.9h3.2v1h-2.2l-0.1,1.2c0.1,0,0.2-0.1,0.3-0.1c0.1,0,0.3-0.1,0.5-0.1
		c0.4,0,0.7,0.1,0.9,0.2c0.3,0.2,0.5,0.4,0.6,0.6s0.2,0.6,0.2,1c0,0.3-0.1,0.6-0.2,0.9s-0.3,0.5-0.6,0.7c-0.3,0.2-0.6,0.3-1.1,0.3
		c-0.2,0-0.5,0-0.7-0.1s-0.4-0.2-0.6-0.3s-0.3-0.3-0.4-0.5s-0.2-0.4-0.2-0.7h1.2c0,0.2,0.1,0.4,0.2,0.5s0.3,0.2,0.5,0.2
		s0.3,0,0.4-0.1s0.2-0.2,0.2-0.4s0.1-0.3,0.1-0.5s0-0.4-0.1-0.5s-0.2-0.3-0.3-0.3c-0.1-0.1-0.3-0.1-0.5-0.1s-0.4,0-0.5,0.1
		s-0.2,0.1-0.3,0.2L406.9,973.3z"/>
	<path fill="#739EAD" d="M411.4,975.5c0-0.2,0.1-0.3,0.2-0.4c0.1-0.1,0.3-0.2,0.5-0.2s0.4,0.1,0.5,0.2c0.1,0.1,0.2,0.3,0.2,0.4
		s-0.1,0.3-0.2,0.4c-0.1,0.1-0.3,0.2-0.5,0.2s-0.4-0.1-0.5-0.2S411.4,975.7,411.4,975.5z"/>
	<path fill="#739EAD" d="M417.6,974.9h-4.1l-0.1-0.7l2.3-3.7h0.9l-1,1.7l-1.1,1.8h3v0.9H417.6z M417,976.1h-1.2v-5.6h1.2V976.1z"/>
	<path fill="#739EAD" d="M418.3,973.3l0.3-2.9h3.2v1h-2.2l-0.1,1.2c0.1,0,0.2-0.1,0.3-0.1c0.1,0,0.3-0.1,0.5-0.1
		c0.4,0,0.7,0.1,0.9,0.2c0.3,0.2,0.5,0.4,0.6,0.6s0.2,0.6,0.2,1c0,0.3-0.1,0.6-0.2,0.9s-0.3,0.5-0.6,0.7c-0.3,0.2-0.6,0.3-1.1,0.3
		c-0.2,0-0.5,0-0.7-0.1s-0.4-0.2-0.6-0.3s-0.3-0.3-0.4-0.5s-0.2-0.4-0.2-0.7h1.2c0,0.2,0.1,0.4,0.2,0.5s0.3,0.2,0.5,0.2
		s0.3,0,0.4-0.1s0.2-0.2,0.2-0.4s0.1-0.3,0.1-0.5s0-0.4-0.1-0.5s-0.2-0.3-0.3-0.3c-0.1-0.1-0.3-0.1-0.5-0.1s-0.4,0-0.5,0.1
		s-0.2,0.1-0.3,0.2L418.3,973.3z"/>
</g>
<g>
	<path fill="#739EAD" d="M401.2,989.9h-3.9v-0.8l1.8-1.9c0.2-0.2,0.3-0.4,0.4-0.5s0.2-0.3,0.2-0.4c0-0.1,0.1-0.2,0.1-0.3
		c0-0.2-0.1-0.4-0.2-0.6c-0.1-0.1-0.3-0.2-0.5-0.2s-0.3,0-0.4,0.1s-0.2,0.2-0.3,0.3c-0.1,0.1-0.1,0.3-0.1,0.5h-1.2
		c0-0.3,0.1-0.7,0.2-0.9s0.4-0.5,0.7-0.7c0.3-0.2,0.6-0.3,1.1-0.3c0.6,0,1.1,0.1,1.4,0.4c0.3,0.3,0.5,0.7,0.5,1.2
		c0,0.3-0.1,0.5-0.2,0.7s-0.2,0.5-0.4,0.7s-0.4,0.5-0.7,0.8l-0.9,1h2.4V989.9z"/>
	<path fill="#739EAD" d="M405.7,987.6c0,0.6-0.1,1-0.2,1.4c-0.2,0.4-0.4,0.6-0.7,0.8s-0.6,0.3-1,0.3s-0.7-0.1-1-0.3
		s-0.5-0.4-0.7-0.8c-0.2-0.4-0.2-0.8-0.2-1.4v-1c0-0.6,0.1-1,0.2-1.4c0.2-0.4,0.4-0.6,0.7-0.8c0.3-0.2,0.6-0.2,1-0.2s0.7,0.1,1,0.2
		c0.3,0.2,0.5,0.4,0.7,0.8c0.2,0.4,0.2,0.8,0.2,1.4V987.6z M404.5,986.4c0-0.3,0-0.6-0.1-0.8s-0.1-0.3-0.3-0.4
		c-0.1-0.1-0.2-0.1-0.4-0.1c-0.2,0-0.3,0-0.4,0.1s-0.2,0.2-0.3,0.4c-0.1,0.2-0.1,0.4-0.1,0.8v1.3c0,0.3,0,0.6,0.1,0.8
		s0.1,0.3,0.3,0.4s0.2,0.1,0.4,0.1c0.2,0,0.3,0,0.4-0.1s0.2-0.2,0.3-0.4c0.1-0.2,0.1-0.4,0.1-0.8V986.4z"/>
	<path fill="#739EAD" d="M410.4,988.7h-4.1l-0.1-0.7l2.3-3.7h0.9l-1,1.7l-1.1,1.8h3v0.9H410.4z M409.8,989.9h-1.2v-5.6h1.2V989.9z"
		/>
	<path fill="#739EAD" d="M411.1,989.3c0-0.2,0.1-0.3,0.2-0.4c0.1-0.1,0.3-0.2,0.5-0.2s0.4,0.1,0.5,0.2c0.1,0.1,0.2,0.3,0.2,0.4
		s-0.1,0.3-0.2,0.4c-0.1,0.1-0.3,0.2-0.5,0.2s-0.4-0.1-0.5-0.2S411.1,989.5,411.1,989.3z"/>
	<path fill="#739EAD" d="M417.3,988.7h-4.1l-0.1-0.7l2.3-3.7h0.9l-1,1.7l-1.1,1.8h3v0.9H417.3z M416.7,989.9h-1.2v-5.6h1.2V989.9z"
		/>
	<path fill="#739EAD" d="M418.1,987.1l0.3-2.9h3.2v1h-2.2l-0.1,1.2c0.1,0,0.2-0.1,0.3-0.1c0.1,0,0.3-0.1,0.5-0.1
		c0.4,0,0.7,0.1,0.9,0.2c0.3,0.2,0.5,0.4,0.6,0.6s0.2,0.6,0.2,1c0,0.3-0.1,0.6-0.2,0.9s-0.3,0.5-0.6,0.7c-0.3,0.2-0.6,0.3-1.1,0.3
		c-0.2,0-0.5,0-0.7-0.1s-0.4-0.2-0.6-0.3s-0.3-0.3-0.4-0.5s-0.2-0.4-0.2-0.7h1.2c0,0.2,0.1,0.4,0.2,0.5s0.3,0.2,0.5,0.2
		s0.3,0,0.4-0.1s0.2-0.2,0.2-0.4s0.1-0.3,0.1-0.5s0-0.4-0.1-0.5s-0.2-0.3-0.3-0.3c-0.1-0.1-0.3-0.1-0.5-0.1s-0.4,0-0.5,0.1
		s-0.2,0.1-0.3,0.2L418.1,987.1z"/>
	<path fill="#739EAD" d="M422.6,989.3c0-0.2,0.1-0.3,0.2-0.4c0.1-0.1,0.3-0.2,0.5-0.2s0.4,0.1,0.5,0.2c0.1,0.1,0.2,0.3,0.2,0.4
		s-0.1,0.3-0.2,0.4c-0.1,0.1-0.3,0.2-0.5,0.2s-0.4-0.1-0.5-0.2S422.6,989.5,422.6,989.3z"/>
	<path fill="#739EAD" d="M428.7,984.9l-2.2,5h-1.2l2.2-4.7h-2.8v-0.9h4V984.9z"/>
	<path fill="#739EAD" d="M430.5,986.9h0.8c0.3,0,0.6,0,0.8,0.1s0.4,0.2,0.6,0.3s0.3,0.3,0.4,0.5s0.1,0.4,0.1,0.6
		c0,0.4-0.1,0.7-0.3,0.9s-0.4,0.4-0.7,0.6c-0.3,0.1-0.6,0.2-1,0.2c-0.2,0-0.5,0-0.7-0.1s-0.4-0.2-0.6-0.3s-0.3-0.3-0.4-0.5
		s-0.2-0.4-0.2-0.7h1.2c0,0.1,0,0.2,0.1,0.3s0.2,0.2,0.3,0.2c0.1,0.1,0.3,0.1,0.4,0.1c0.3,0,0.5-0.1,0.6-0.2
		c0.1-0.1,0.2-0.3,0.2-0.5s0-0.4-0.1-0.5s-0.2-0.2-0.3-0.3c-0.1-0.1-0.3-0.1-0.5-0.1h-0.6L430.5,986.9L430.5,986.9z M431.1,986.6
		c0.2,0,0.3,0,0.4-0.1s0.2-0.1,0.3-0.3c0.1-0.1,0.1-0.2,0.1-0.4c0-0.1,0-0.2-0.1-0.4c-0.1-0.1-0.1-0.2-0.2-0.2
		c-0.1-0.1-0.2-0.1-0.4-0.1c-0.1,0-0.2,0-0.4,0.1c-0.1,0-0.2,0.1-0.3,0.2c-0.1,0.1-0.1,0.2-0.1,0.3h-1.2c0-0.3,0.1-0.6,0.3-0.8
		c0.2-0.2,0.4-0.4,0.7-0.5c0.3-0.1,0.6-0.2,0.9-0.2c0.4,0,0.7,0.1,1,0.2c0.3,0.1,0.5,0.3,0.7,0.5s0.2,0.5,0.2,0.9
		c0,0.2,0,0.4-0.1,0.5s-0.2,0.3-0.4,0.5c-0.2,0.1-0.3,0.2-0.6,0.3s-0.5,0.1-0.7,0.1h-0.8v-0.6H431.1z"/>
</g>
<g>
	<path fill="#739EAD" d="M544.8,997.2h-3.9v-0.8l1.8-1.9c0.2-0.2,0.3-0.4,0.4-0.5c0.1-0.1,0.2-0.3,0.2-0.4c0-0.1,0.1-0.2,0.1-0.3
		c0-0.2-0.1-0.4-0.2-0.6c-0.1-0.1-0.3-0.2-0.5-0.2s-0.3,0-0.4,0.1s-0.2,0.2-0.3,0.3s-0.1,0.3-0.1,0.5h-1.2c0-0.3,0.1-0.7,0.2-0.9
		s0.4-0.5,0.7-0.7s0.6-0.3,1.1-0.3c0.6,0,1.1,0.1,1.4,0.4c0.3,0.3,0.5,0.7,0.5,1.2c0,0.3-0.1,0.5-0.2,0.7c-0.1,0.2-0.2,0.5-0.4,0.7
		s-0.4,0.5-0.7,0.8l-0.9,1h2.4L544.8,997.2L544.8,997.2z"/>
	<path fill="#739EAD" d="M549.3,994.8c0,0.6-0.1,1-0.2,1.4c-0.2,0.4-0.4,0.6-0.7,0.8s-0.6,0.3-1,0.3s-0.7-0.1-1-0.3
		s-0.5-0.4-0.7-0.8c-0.2-0.4-0.2-0.8-0.2-1.4v-1c0-0.6,0.1-1,0.2-1.4c0.2-0.4,0.4-0.6,0.7-0.8s0.6-0.2,1-0.2s0.7,0.1,1,0.2
		c0.3,0.2,0.5,0.4,0.7,0.8c0.2,0.4,0.2,0.8,0.2,1.4V994.8z M548.1,993.7c0-0.3,0-0.6-0.1-0.8s-0.1-0.3-0.3-0.4
		c-0.1-0.1-0.2-0.1-0.4-0.1s-0.3,0-0.4,0.1c-0.1,0.1-0.2,0.2-0.3,0.4s-0.1,0.4-0.1,0.8v1.3c0,0.3,0,0.6,0.1,0.8s0.1,0.3,0.3,0.4
		s0.2,0.1,0.4,0.1s0.3,0,0.4-0.1s0.2-0.2,0.3-0.4s0.1-0.4,0.1-0.8V993.7z"/>
	<path fill="#739EAD" d="M554,996h-4.1l-0.1-0.7l2.3-3.7h0.9l-1,1.7l-1,1.7h3V996z M553.4,997.2h-1.2v-5.6h1.2V997.2z"/>
	<path fill="#739EAD" d="M554.7,996.6c0-0.2,0.1-0.3,0.2-0.4c0.1-0.1,0.3-0.2,0.5-0.2s0.4,0.1,0.5,0.2c0.1,0.1,0.2,0.3,0.2,0.4
		s-0.1,0.3-0.2,0.4c-0.1,0.1-0.3,0.2-0.5,0.2s-0.4-0.1-0.5-0.2S554.7,996.8,554.7,996.6z"/>
	<path fill="#739EAD" d="M560.9,996h-4.1l-0.1-0.7l2.3-3.7h0.9l-1,1.7l-1.1,1.8h3L560.9,996L560.9,996z M560.3,997.2h-1.2v-5.6h1.2
		V997.2z"/>
	<path fill="#739EAD" d="M561.7,994.4l0.3-2.9h3.2v1H563l-0.1,1.2c0.1,0,0.2-0.1,0.3-0.1s0.3-0.1,0.5-0.1c0.4,0,0.7,0.1,0.9,0.2
		c0.3,0.2,0.5,0.4,0.6,0.6s0.2,0.6,0.2,1c0,0.3-0.1,0.6-0.2,0.9s-0.3,0.5-0.6,0.7s-0.6,0.3-1.1,0.3c-0.2,0-0.5,0-0.7-0.1
		s-0.4-0.2-0.6-0.3c-0.2-0.1-0.3-0.3-0.4-0.5c-0.1-0.2-0.2-0.4-0.2-0.7h1.2c0,0.2,0.1,0.4,0.2,0.5s0.3,0.2,0.5,0.2s0.3,0,0.4-0.1
		c0.1-0.1,0.2-0.2,0.2-0.4s0.1-0.3,0.1-0.5s0-0.4-0.1-0.5s-0.2-0.3-0.3-0.3c-0.1-0.1-0.3-0.1-0.5-0.1s-0.4,0-0.5,0.1
		s-0.2,0.1-0.3,0.2L561.7,994.4z"/>
	<path fill="#739EAD" d="M566.2,996.6c0-0.2,0.1-0.3,0.2-0.4c0.1-0.1,0.3-0.2,0.5-0.2s0.4,0.1,0.5,0.2c0.1,0.1,0.2,0.3,0.2,0.4
		s-0.1,0.3-0.2,0.4c-0.1,0.1-0.3,0.2-0.5,0.2s-0.4-0.1-0.5-0.2S566.2,996.8,566.2,996.6z"/>
	<path fill="#739EAD" d="M572.3,992.2l-2.2,5h-1.2l2.2-4.7h-2.8v-0.9h4V992.2z"/>
	<path fill="#739EAD" d="M574.1,994.1h0.8c0.3,0,0.6,0,0.8,0.1s0.4,0.2,0.6,0.3c0.2,0.1,0.3,0.3,0.4,0.5c0.1,0.2,0.1,0.4,0.1,0.6
		c0,0.4-0.1,0.7-0.3,0.9s-0.4,0.4-0.7,0.6c-0.3,0.1-0.6,0.2-1,0.2c-0.2,0-0.5,0-0.7-0.1s-0.4-0.2-0.6-0.3s-0.3-0.3-0.4-0.5
		c-0.1-0.2-0.2-0.4-0.2-0.7h1.2c0,0.1,0,0.2,0.1,0.3s0.2,0.2,0.3,0.2c0.1,0.1,0.3,0.1,0.4,0.1c0.3,0,0.5-0.1,0.6-0.2
		c0.1-0.1,0.2-0.3,0.2-0.5s0-0.4-0.1-0.5s-0.2-0.2-0.3-0.3s-0.3-0.1-0.5-0.1h-0.6L574.1,994.1L574.1,994.1z M574.7,993.8
		c0.2,0,0.3,0,0.4-0.1c0.1-0.1,0.2-0.1,0.3-0.3c0.1-0.1,0.1-0.2,0.1-0.4c0-0.1,0-0.2-0.1-0.4c-0.1-0.1-0.1-0.2-0.2-0.2
		c-0.1-0.1-0.2-0.1-0.4-0.1c-0.1,0-0.2,0-0.4,0.1c-0.1,0-0.2,0.1-0.3,0.2c-0.1,0.1-0.1,0.2-0.1,0.3h-1.2c0-0.3,0.1-0.6,0.3-0.8
		s0.4-0.4,0.7-0.5s0.6-0.2,0.9-0.2c0.4,0,0.7,0.1,1,0.2c0.3,0.1,0.5,0.3,0.7,0.5s0.2,0.5,0.2,0.9c0,0.2,0,0.4-0.1,0.5
		s-0.2,0.3-0.4,0.5c-0.2,0.1-0.3,0.2-0.6,0.3s-0.5,0.1-0.7,0.1H574v-0.6H574.7z"/>
</g>
<g>
	<path fill="#739EAD" d="M282.2,988.7h-4.1L278,988l2.3-3.7h0.9l-1,1.7l-1.1,1.8h3v0.9H282.2z M281.6,989.9h-1.2v-5.6h1.2V989.9z"/>
	<path fill="#739EAD" d="M282.9,987.1l0.3-2.9h3.2v1h-2.2l-0.1,1.2c0.1,0,0.2-0.1,0.3-0.1c0.1,0,0.3-0.1,0.5-0.1
		c0.4,0,0.7,0.1,0.9,0.2c0.3,0.2,0.5,0.4,0.6,0.6s0.2,0.6,0.2,1c0,0.3-0.1,0.6-0.2,0.9s-0.3,0.5-0.6,0.7c-0.3,0.2-0.6,0.3-1.1,0.3
		c-0.2,0-0.5,0-0.7-0.1s-0.4-0.2-0.6-0.3s-0.3-0.3-0.4-0.5s-0.2-0.4-0.2-0.7h1.2c0,0.2,0.1,0.4,0.2,0.5s0.3,0.2,0.5,0.2
		s0.3,0,0.4-0.1s0.2-0.2,0.2-0.4s0.1-0.3,0.1-0.5s0-0.4-0.1-0.5s-0.2-0.3-0.3-0.3c-0.1-0.1-0.3-0.1-0.5-0.1s-0.4,0-0.5,0.1
		s-0.2,0.1-0.3,0.2L282.9,987.1z"/>
	<path fill="#739EAD" d="M287.5,989.3c0-0.2,0.1-0.3,0.2-0.4c0.1-0.1,0.3-0.2,0.5-0.2s0.4,0.1,0.5,0.2c0.1,0.1,0.2,0.3,0.2,0.4
		s-0.1,0.3-0.2,0.4c-0.1,0.1-0.3,0.2-0.5,0.2s-0.4-0.1-0.5-0.2S287.5,989.5,287.5,989.3z"/>
	<path fill="#739EAD" d="M293.6,984.9l-2.2,5h-1.2l2.2-4.7h-2.8v-0.9h4V984.9z"/>
	<path fill="#739EAD" d="M295.4,986.9h0.8c0.3,0,0.6,0,0.8,0.1s0.4,0.2,0.6,0.3s0.3,0.3,0.4,0.5s0.1,0.4,0.1,0.6
		c0,0.4-0.1,0.7-0.3,0.9s-0.4,0.4-0.7,0.6c-0.3,0.1-0.6,0.2-1,0.2c-0.2,0-0.5,0-0.7-0.1s-0.4-0.2-0.6-0.3s-0.3-0.3-0.4-0.5
		s-0.2-0.4-0.2-0.7h1.2c0,0.1,0,0.2,0.1,0.3s0.2,0.2,0.3,0.2c0.1,0.1,0.3,0.1,0.4,0.1c0.3,0,0.5-0.1,0.6-0.2
		c0.1-0.1,0.2-0.3,0.2-0.5s0-0.4-0.1-0.5s-0.2-0.2-0.3-0.3c-0.1-0.1-0.3-0.1-0.5-0.1h-0.6L295.4,986.9L295.4,986.9z M296,986.6
		c0.2,0,0.3,0,0.4-0.1s0.2-0.1,0.3-0.3c0.1-0.1,0.1-0.2,0.1-0.4c0-0.1,0-0.2-0.1-0.4c-0.1-0.1-0.1-0.2-0.2-0.2
		c-0.1-0.1-0.2-0.1-0.4-0.1c-0.1,0-0.2,0-0.4,0.1c-0.1,0-0.2,0.1-0.3,0.2c-0.1,0.1-0.1,0.2-0.1,0.3h-1.2c0-0.3,0.1-0.6,0.3-0.8
		c0.2-0.2,0.4-0.4,0.7-0.5c0.3-0.1,0.6-0.2,0.9-0.2c0.4,0,0.7,0.1,1,0.2c0.3,0.1,0.5,0.3,0.7,0.5s0.2,0.5,0.2,0.9
		c0,0.2,0,0.4-0.1,0.5s-0.2,0.3-0.4,0.5c-0.2,0.1-0.3,0.2-0.6,0.3s-0.5,0.1-0.7,0.1h-0.8v-0.6H296z"/>
	<path fill="#739EAD" d="M298.9,989.3c0-0.2,0.1-0.3,0.2-0.4c0.1-0.1,0.3-0.2,0.5-0.2s0.4,0.1,0.5,0.2c0.1,0.1,0.2,0.3,0.2,0.4
		s-0.1,0.3-0.2,0.4c-0.1,0.1-0.3,0.2-0.5,0.2s-0.4-0.1-0.5-0.2S298.9,989.5,298.9,989.3z"/>
	<path fill="#739EAD" d="M303.9,989.9h-1.2v-4.3l-1.3,0.4v-0.9l2.4-0.8h0.1V989.9z"/>
	<path fill="#739EAD" d="M309.6,988.4c0,0.4-0.1,0.7-0.2,0.9c-0.2,0.2-0.4,0.4-0.7,0.5c-0.3,0.1-0.6,0.2-1,0.2s-0.7-0.1-1-0.2
		c-0.3-0.1-0.5-0.3-0.7-0.5s-0.3-0.5-0.3-0.9c0-0.3,0.1-0.6,0.3-0.8c0.2-0.2,0.4-0.4,0.7-0.5c0.3-0.1,0.6-0.2,1-0.2s0.7,0.1,1,0.2
		c0.3,0.1,0.5,0.3,0.7,0.5C309.5,987.8,309.6,988,309.6,988.4z M309.4,985.8c0,0.3-0.1,0.5-0.2,0.8c-0.2,0.2-0.4,0.4-0.6,0.5
		s-0.6,0.2-0.9,0.2c-0.4,0-0.7-0.1-0.9-0.2s-0.5-0.3-0.6-0.5c-0.2-0.2-0.2-0.5-0.2-0.8s0.1-0.6,0.2-0.9c0.2-0.2,0.4-0.4,0.6-0.5
		c0.3-0.1,0.6-0.2,0.9-0.2c0.4,0,0.7,0.1,0.9,0.2c0.3,0.1,0.5,0.3,0.6,0.5S309.4,985.4,309.4,985.8z M308.4,988.3
		c0-0.2,0-0.3-0.1-0.4s-0.1-0.2-0.3-0.3c-0.1-0.1-0.2-0.1-0.4-0.1s-0.3,0-0.4,0.1s-0.2,0.2-0.3,0.3s-0.1,0.3-0.1,0.4
		c0,0.2,0,0.3,0.1,0.4s0.1,0.2,0.3,0.3s0.2,0.1,0.4,0.1c0.1,0,0.3,0,0.4-0.1s0.2-0.2,0.3-0.3S308.4,988.4,308.4,988.3z M308.3,985.8
		c0-0.1,0-0.3-0.1-0.4c-0.1-0.1-0.1-0.2-0.2-0.2c-0.1-0.1-0.2-0.1-0.3-0.1c-0.1,0-0.2,0-0.3,0.1c-0.1,0.1-0.2,0.1-0.2,0.2
		c0,0.1-0.1,0.2-0.1,0.4c0,0.1,0,0.3,0.1,0.4c0,0.1,0.1,0.2,0.2,0.3s0.2,0.1,0.3,0.1c0.1,0,0.2,0,0.3-0.1s0.2-0.1,0.2-0.3
		C308.2,986.1,308.3,986,308.3,985.8z"/>
	<path fill="#739EAD" d="M310.4,987.1l0.3-2.9h3.2v1h-2.2l-0.1,1.2c0.1,0,0.2-0.1,0.3-0.1c0.1,0,0.3-0.1,0.5-0.1
		c0.4,0,0.7,0.1,0.9,0.2c0.3,0.2,0.5,0.4,0.6,0.6s0.2,0.6,0.2,1c0,0.3-0.1,0.6-0.2,0.9s-0.3,0.5-0.6,0.7c-0.3,0.2-0.6,0.3-1.1,0.3
		c-0.2,0-0.5,0-0.7-0.1s-0.4-0.2-0.6-0.3s-0.3-0.3-0.4-0.5s-0.2-0.4-0.2-0.7h1.2c0,0.2,0.1,0.4,0.2,0.5s0.3,0.2,0.5,0.2
		s0.3,0,0.4-0.1s0.2-0.2,0.2-0.4s0.1-0.3,0.1-0.5s0-0.4-0.1-0.5s-0.2-0.3-0.3-0.3c-0.1-0.1-0.3-0.1-0.5-0.1s-0.4,0-0.5,0.1
		s-0.2,0.1-0.3,0.2L310.4,987.1z"/>
</g>
<g>
	<path fill="#739EAD" d="M604.8,996h-4.1l-0.1-0.7l2.3-3.7h0.9l-1,1.7l-1.1,1.8h3L604.8,996L604.8,996z M604.1,997.2H603v-5.6h1.2
		v5.6H604.1z"/>
	<path fill="#739EAD" d="M605.5,994.4l0.3-2.9h3.2v1h-2.2l-0.1,1.2c0.1,0,0.2-0.1,0.3-0.1s0.3-0.1,0.5-0.1c0.4,0,0.7,0.1,0.9,0.2
		c0.3,0.2,0.5,0.4,0.6,0.6s0.2,0.6,0.2,1c0,0.3-0.1,0.6-0.2,0.9s-0.3,0.5-0.6,0.7s-0.6,0.3-1.1,0.3c-0.2,0-0.5,0-0.7-0.1
		s-0.4-0.2-0.6-0.3c-0.2-0.1-0.3-0.3-0.4-0.5c-0.1-0.2-0.2-0.4-0.2-0.7h1.2c0,0.2,0.1,0.4,0.2,0.5s0.3,0.2,0.5,0.2s0.3,0,0.4-0.1
		c0.1-0.1,0.2-0.2,0.2-0.4s0.1-0.3,0.1-0.5s0-0.4-0.1-0.5s-0.2-0.3-0.3-0.3c-0.1-0.1-0.3-0.1-0.5-0.1s-0.4,0-0.5,0.1
		s-0.2,0.1-0.3,0.2L605.5,994.4z"/>
	<path fill="#739EAD" d="M610,996.6c0-0.2,0.1-0.3,0.2-0.4c0.1-0.1,0.3-0.2,0.5-0.2s0.4,0.1,0.5,0.2c0.1,0.1,0.2,0.3,0.2,0.4
		s-0.1,0.3-0.2,0.4c-0.1,0.1-0.3,0.2-0.5,0.2s-0.4-0.1-0.5-0.2S610,996.8,610,996.6z"/>
	<path fill="#739EAD" d="M616.1,992.2l-2.2,5h-1.2l2.2-4.7h-2.8v-0.9h4V992.2z"/>
	<path fill="#739EAD" d="M618,994.1h0.8c0.3,0,0.6,0,0.8,0.1s0.4,0.2,0.6,0.3c0.2,0.1,0.3,0.3,0.4,0.5c0.1,0.2,0.1,0.4,0.1,0.6
		c0,0.4-0.1,0.7-0.3,0.9s-0.4,0.4-0.7,0.6c-0.3,0.1-0.6,0.2-1,0.2c-0.2,0-0.5,0-0.7-0.1s-0.4-0.2-0.6-0.3s-0.3-0.3-0.4-0.5
		c-0.1-0.2-0.2-0.4-0.2-0.7h1.2c0,0.1,0,0.2,0.1,0.3s0.2,0.2,0.3,0.2c0.1,0.1,0.3,0.1,0.4,0.1c0.3,0,0.5-0.1,0.6-0.2
		c0.1-0.1,0.2-0.3,0.2-0.5s0-0.4-0.1-0.5s-0.2-0.2-0.3-0.3s-0.3-0.1-0.5-0.1H618V994.1z M618.6,993.8c0.2,0,0.3,0,0.4-0.1
		c0.1-0.1,0.2-0.1,0.3-0.3c0.1-0.1,0.1-0.2,0.1-0.4c0-0.1,0-0.2-0.1-0.4c-0.1-0.1-0.1-0.2-0.2-0.2c-0.1-0.1-0.2-0.1-0.4-0.1
		c-0.1,0-0.2,0-0.4,0.1c-0.1,0-0.2,0.1-0.3,0.2c-0.1,0.1-0.1,0.2-0.1,0.3h-1.2c0-0.3,0.1-0.6,0.3-0.8s0.4-0.4,0.7-0.5
		s0.6-0.2,0.9-0.2c0.4,0,0.7,0.1,1,0.2c0.3,0.1,0.5,0.3,0.7,0.5s0.2,0.5,0.2,0.9c0,0.2,0,0.4-0.1,0.5s-0.2,0.3-0.4,0.5
		c-0.2,0.1-0.3,0.2-0.6,0.3s-0.5,0.1-0.7,0.1H618v-0.6H618.6z"/>
	<path fill="#739EAD" d="M621.5,996.6c0-0.2,0.1-0.3,0.2-0.4c0.1-0.1,0.3-0.2,0.5-0.2s0.4,0.1,0.5,0.2c0.1,0.1,0.2,0.3,0.2,0.4
		s-0.1,0.3-0.2,0.4c-0.1,0.1-0.3,0.2-0.5,0.2s-0.4-0.1-0.5-0.2S621.5,996.8,621.5,996.6z"/>
	<path fill="#739EAD" d="M626.5,997.2h-1.2v-4.3l-1.3,0.4v-0.9l2.4-0.8h0.1V997.2z"/>
	<path fill="#739EAD" d="M632.1,995.6c0,0.4-0.1,0.7-0.2,0.9c-0.2,0.2-0.4,0.4-0.7,0.5s-0.6,0.2-1,0.2s-0.7-0.1-1-0.2
		c-0.3-0.1-0.5-0.3-0.7-0.5s-0.3-0.5-0.3-0.9c0-0.3,0.1-0.6,0.3-0.8s0.4-0.4,0.7-0.5s0.6-0.2,1-0.2s0.7,0.1,1,0.2
		c0.3,0.1,0.5,0.3,0.7,0.5C632,995,632.1,995.3,632.1,995.6z M632,993c0,0.3-0.1,0.5-0.2,0.8c-0.2,0.2-0.4,0.4-0.6,0.5
		s-0.6,0.2-0.9,0.2c-0.4,0-0.7-0.1-0.9-0.2s-0.5-0.3-0.6-0.5c-0.2-0.2-0.2-0.5-0.2-0.8s0.1-0.6,0.2-0.9c0.2-0.2,0.4-0.4,0.6-0.5
		c0.3-0.1,0.6-0.2,0.9-0.2c0.4,0,0.7,0.1,0.9,0.2c0.3,0.1,0.5,0.3,0.6,0.5S632,992.7,632,993z M630.9,995.5c0-0.2,0-0.3-0.1-0.4
		s-0.1-0.2-0.3-0.3c-0.1-0.1-0.2-0.1-0.4-0.1s-0.3,0-0.4,0.1c-0.1,0.1-0.2,0.2-0.3,0.3s-0.1,0.3-0.1,0.4c0,0.2,0,0.3,0.1,0.4
		s0.1,0.2,0.3,0.3s0.2,0.1,0.4,0.1c0.1,0,0.3,0,0.4-0.1c0.1-0.1,0.2-0.2,0.3-0.3S630.9,995.7,630.9,995.5z M630.8,993.1
		c0-0.1,0-0.3-0.1-0.4c-0.1-0.1-0.1-0.2-0.2-0.2c-0.1-0.1-0.2-0.1-0.3-0.1s-0.2,0-0.3,0.1s-0.2,0.1-0.2,0.2c0,0.1-0.1,0.2-0.1,0.4
		c0,0.1,0,0.3,0.1,0.4c0,0.1,0.1,0.2,0.2,0.3s0.2,0.1,0.3,0.1s0.2,0,0.3-0.1s0.2-0.1,0.2-0.3C630.8,993.3,630.8,993.2,630.8,993.1z"
		/>
	<path fill="#739EAD" d="M633,994.4l0.3-2.9h3.2v1h-2.2l-0.1,1.2c0.1,0,0.2-0.1,0.3-0.1s0.3-0.1,0.5-0.1c0.4,0,0.7,0.1,0.9,0.2
		c0.3,0.2,0.5,0.4,0.6,0.6s0.2,0.6,0.2,1c0,0.3-0.1,0.6-0.2,0.9s-0.3,0.5-0.6,0.7s-0.6,0.3-1.1,0.3c-0.2,0-0.5,0-0.7-0.1
		s-0.4-0.2-0.6-0.3c-0.2-0.1-0.3-0.3-0.4-0.5c-0.1-0.2-0.2-0.4-0.2-0.7h1.2c0,0.2,0.1,0.4,0.2,0.5s0.3,0.2,0.5,0.2s0.3,0,0.4-0.1
		c0.1-0.1,0.2-0.2,0.2-0.4s0.1-0.3,0.1-0.5s0-0.4-0.1-0.5s-0.2-0.3-0.3-0.3c-0.1-0.1-0.3-0.1-0.5-0.1s-0.4,0-0.5,0.1
		s-0.2,0.1-0.3,0.2L633,994.4z"/>
</g>
<line fill="none" stroke="#84A8B6" stroke-miterlimit="10" x1="17.1" y1="104.5" x2="29.1" y2="104.5"/>
<rect x="17.9" y="179.6" fill="#6F9BAC" width="3.1" height="3.1"/>
<g>
	<line fill="none" stroke="#6F9BAC" stroke-width="0.5" stroke-miterlimit="10" x1="17.1" y1="11.8" x2="22.3" y2="11.8"/>
	<path fill="none" stroke="#6F9BAC" stroke-miterlimit="10" d="M50.4,11.8c0,0,4.1,11.3,18.5,11.3s1830.3,0,1830.3,0"/>
	<line fill="none" stroke="#6F9BAC" stroke-width="0.5" stroke-miterlimit="10" x1="25.2" y1="11.8" x2="50.9" y2="11.8"/>
</g>
<line fill="none" stroke="#6F9BAC" stroke-width="0.9325" stroke-miterlimit="10" x1="1899.2" y1="19.2" x2="1897.4" y2="19.2"/>
<line fill="none" stroke="#6F9BAC" stroke-width="0.9325" stroke-miterlimit="10" x1="1893.2" y1="19.2" x2="1891.4" y2="19.2"/>
<line fill="none" stroke="#6F9BAC" stroke-width="0.9325" stroke-miterlimit="10" x1="1881.2" y1="19.2" x2="1879.4" y2="19.2"/>
<g>
	<g>
		<path fill="#6F9BAC" d="M1835.5,46v-4.8l-2.3,3.9h-0.8l-2.3-3.8V46h-1.7v-8h1.5l3,4.9l2.9-4.9h1.5v7.9L1835.5,46L1835.5,46z"/>
		<path fill="#6F9BAC" d="M1838.4,38h1.8v8h-1.8V38z"/>
		<path fill="#6F9BAC" d="M1841.2,42c0-2.4,1.8-4.1,4.3-4.1c1.4,0,2.5,0.5,3.3,1.4l-1.2,1.1c-0.5-0.6-1.2-0.9-2-0.9
			c-1.5,0-2.5,1-2.5,2.5s1.1,2.5,2.5,2.5c0.8,0,1.5-0.3,2-0.9l1.2,1.1c-0.7,0.9-1.9,1.4-3.3,1.4C1843,46.1,1841.2,44.4,1841.2,42z"
			/>
		<path fill="#6F9BAC" d="M1854.9,46l-1.5-2.2h-0.1h-1.6V46h-1.8v-8h3.4c2.1,0,3.5,1.1,3.5,2.9c0,1.2-0.6,2.1-1.6,2.5l1.8,2.6
			H1854.9z M1853.1,39.5h-1.5v2.8h1.5c1.1,0,1.7-0.5,1.7-1.4C1854.8,40,1854.3,39.5,1853.1,39.5z"/>
		<path fill="#6F9BAC" d="M1857.2,42c0-2.4,1.8-4.1,4.3-4.1s4.3,1.7,4.3,4.1s-1.9,4.1-4.3,4.1C1859,46.1,1857.2,44.3,1857.2,42z
			 M1864,42c0-1.5-1.1-2.5-2.5-2.5s-2.5,1-2.5,2.5s1.1,2.5,2.5,2.5C1863,44.5,1864,43.5,1864,42z"/>
	</g>
	<g>
		<polygon fill="#6F9BAC" points="1865.5,38 1865.4,38 1865.4,38 1865.4,38.6 1865.4,38.6 1865.5,38.6 1868.3,38.6 1868.3,46 
			1868.3,46 1868.3,46 1868.9,46 1869,46 1869,46 1869,38.6 1871.8,38.6 1871.8,38.6 1871.8,38.6 1871.8,38 1871.8,38 1871.8,38 		
			"/>
		<polygon fill="#6F9BAC" points="1873.2,45.4 1873.2,42.3 1877.3,42.3 1877.4,42.3 1877.4,42.2 1877.4,41.7 1877.4,41.6 
			1877.3,41.6 1873.2,41.6 1873.2,38.6 1877.8,38.6 1877.9,38.6 1877.9,38.6 1877.9,38 1877.9,38 1877.8,38 1872.5,38 1872.5,38 
			1872.5,38 1872.5,46 1872.5,46 1872.5,46 1878,46 1878.1,46 1878.1,46 1878.1,45.5 1878.1,45.4 1878,45.4 		"/>
		<path fill="#6F9BAC" d="M1882.8,38.6c1,0,1.8,0.3,2.4,0.9l0,0l0,0l0.4-0.4l0,0l0,0c-0.7-0.7-1.7-1.1-2.9-1.1
			c-2.4,0-4.2,1.8-4.2,4.1s1.8,4.1,4.2,4.1c1.2,0,2.2-0.4,2.9-1.1l0,0l0,0l-0.4-0.4l0,0l0,0c-0.6,0.6-1.4,0.9-2.4,0.9
			c-2,0-3.5-1.5-3.5-3.4C1879.3,40.1,1880.8,38.6,1882.8,38.6z"/>
		<polygon fill="#6F9BAC" points="1893.1,38 1892.6,38 1892.5,38 1892.5,38 1892.5,41.6 1887.3,41.6 1887.3,38 1887.3,38 1887.2,38 
			1886.7,38 1886.6,38 1886.6,38 1886.6,46 1886.6,46 1886.7,46 1887.2,46 1887.3,46 1887.3,46 1887.3,42.3 1892.5,42.3 1892.5,46 
			1892.5,46 1892.6,46 1893.1,46 1893.2,46 1893.2,46 1893.2,38 1893.2,38 		"/>
	</g>
</g>
<g>
	<circle fill="#6F9BAC" cx="1813.6" cy="38.2" r="3.2"/>
	<circle fill="#6F9BAC" cx="1821.1" cy="45.7" r="3.2"/>
	<path fill="#6F9BAC" d="M1821.1,35c-1.8,0-3.2,1.4-3.2,3.2c0,2.4-1.9,4.3-4.3,4.3l0,0l0,0c-1.8,0-3.2,1.4-3.2,3.2s1.4,3.2,3.2,3.2
		c1.8,0,3.2-1.4,3.2-3.2c0-2.4,1.9-4.3,4.3-4.3l0,0l0,0c1.8,0,3.2-1.4,3.2-3.2C1824.4,36.4,1822.9,35,1821.1,35z"/>
</g>
<g>
	<path fill="#739EAD" d="M552.3,42.7c0,0.7-0.1,1.3-0.3,1.8c-0.2,0.4-0.5,0.8-0.8,1s-0.7,0.3-1.2,0.3s-0.9-0.1-1.2-0.3
		s-0.6-0.5-0.8-1c-0.2-0.4-0.3-1-0.3-1.8v-1.2c0-0.7,0.1-1.3,0.3-1.7s0.5-0.8,0.8-1s0.7-0.3,1.2-0.3s0.9,0.1,1.2,0.3s0.6,0.5,0.8,1
		s0.3,1,0.3,1.7V42.7z M551.1,41.4c0-0.5,0-0.8-0.1-1.1s-0.2-0.5-0.4-0.6s-0.4-0.2-0.6-0.2c-0.2,0-0.4,0.1-0.6,0.2s-0.3,0.3-0.4,0.6
		c-0.1,0.3-0.1,0.6-0.1,1.1v1.5c0,0.5,0,0.8,0.1,1.1s0.2,0.5,0.4,0.6s0.4,0.2,0.6,0.2c0.2,0,0.4-0.1,0.6-0.2
		c0.2-0.1,0.3-0.3,0.4-0.6c0.1-0.3,0.1-0.6,0.1-1.1V41.4z"/>
	<path fill="#739EAD" d="M553.6,42.2l0.4-3.5h3.8v1H555l-0.2,1.7c0.1-0.1,0.3-0.1,0.4-0.2c0.2-0.1,0.4-0.1,0.7-0.1
		c0.4,0,0.8,0.1,1.1,0.3s0.6,0.5,0.7,0.8s0.3,0.8,0.3,1.3c0,0.4-0.1,0.8-0.2,1.2c-0.2,0.4-0.4,0.6-0.8,0.8s-0.8,0.3-1.3,0.3
		c-0.3,0-0.6,0-0.8-0.1c-0.3-0.1-0.5-0.2-0.7-0.4s-0.4-0.4-0.5-0.6s-0.2-0.5-0.2-0.9h1.2c0,0.3,0.2,0.6,0.4,0.8s0.5,0.3,0.8,0.3
		c0.2,0,0.5-0.1,0.6-0.2c0.2-0.1,0.3-0.3,0.4-0.5c0.1-0.2,0.1-0.5,0.1-0.7c0-0.3,0-0.5-0.1-0.7s-0.2-0.4-0.4-0.5s-0.4-0.2-0.7-0.2
		s-0.5,0-0.6,0.1s-0.3,0.2-0.4,0.3L553.6,42.2z"/>
	<path fill="#739EAD" d="M563.6,45.7h-4.7v-0.8l2.3-2.5c0.2-0.3,0.4-0.5,0.6-0.7c0.1-0.2,0.2-0.4,0.3-0.5c0.1-0.2,0.1-0.3,0.1-0.5
		c0-0.3-0.1-0.6-0.3-0.8s-0.4-0.3-0.8-0.3c-0.3,0-0.5,0.1-0.6,0.2c-0.2,0.1-0.3,0.3-0.4,0.5c-0.1,0.2-0.1,0.4-0.1,0.7h-1.2
		c0-0.4,0.1-0.8,0.3-1.1s0.5-0.6,0.8-0.8c0.4-0.2,0.8-0.3,1.3-0.3c0.7,0,1.2,0.2,1.6,0.5c0.4,0.3,0.6,0.8,0.6,1.4
		c0,0.3-0.1,0.6-0.2,0.9c-0.1,0.3-0.3,0.6-0.5,0.9c-0.2,0.3-0.5,0.6-0.7,0.9l-1.5,1.6h3.2L563.6,45.7L563.6,45.7z"/>
	<path fill="#739EAD" d="M565.9,41.9h0.9c0.4,0,0.8,0,1,0.1s0.5,0.2,0.7,0.4s0.3,0.4,0.4,0.6c0.1,0.2,0.1,0.4,0.1,0.7
		c0,0.4-0.1,0.8-0.3,1.1s-0.5,0.5-0.8,0.7c-0.4,0.2-0.8,0.2-1.2,0.2c-0.3,0-0.6,0-0.9-0.1c-0.3-0.1-0.5-0.2-0.7-0.4
		s-0.4-0.4-0.5-0.6s-0.2-0.5-0.2-0.9h1.2c0,0.2,0,0.4,0.1,0.5c0.1,0.2,0.2,0.3,0.4,0.4s0.4,0.1,0.6,0.1c0.4,0,0.6-0.1,0.8-0.3
		s0.3-0.5,0.3-0.8s-0.1-0.5-0.2-0.7s-0.3-0.3-0.4-0.4c-0.2-0.1-0.4-0.1-0.7-0.1h-0.7v-0.5H565.9z M566.6,41.6c0.3,0,0.5,0,0.7-0.1
		s0.3-0.2,0.4-0.4s0.1-0.3,0.1-0.6c0-0.2,0-0.4-0.1-0.5c-0.1-0.2-0.2-0.3-0.4-0.4c-0.2-0.1-0.4-0.1-0.6-0.1c-0.2,0-0.4,0-0.5,0.1
		s-0.3,0.2-0.4,0.3c-0.1,0.1-0.1,0.3-0.1,0.5h-1.2c0-0.4,0.1-0.7,0.3-1s0.5-0.5,0.8-0.7s0.7-0.2,1.1-0.2c0.5,0,0.8,0.1,1.2,0.2
		c0.3,0.1,0.6,0.4,0.8,0.7s0.3,0.7,0.3,1.1c0,0.2,0,0.4-0.1,0.6c-0.1,0.2-0.2,0.4-0.4,0.6s-0.4,0.3-0.7,0.4s-0.6,0.2-0.9,0.2H566
		v-0.7C566,41.6,566.6,41.6,566.6,41.6z"/>
</g>
<g>
	<path fill="#739EAD" d="M963.5,39.3l-2.8,6.3h-1.3l2.8-6h-3.6v-1h4.9L963.5,39.3L963.5,39.3z"/>
	<path fill="#739EAD" d="M969,42.7c0,0.7-0.1,1.3-0.3,1.8s-0.5,0.8-0.8,1s-0.7,0.3-1.2,0.3s-0.9-0.1-1.2-0.3s-0.6-0.5-0.8-1
		c-0.2-0.4-0.3-1-0.3-1.8v-1.2c0-0.7,0.1-1.3,0.3-1.7s0.5-0.8,0.8-1s0.7-0.3,1.2-0.3s0.9,0.1,1.2,0.3s0.6,0.5,0.8,1s0.3,1,0.3,1.7
		V42.7z M967.8,41.4c0-0.5,0-0.8-0.1-1.1s-0.2-0.5-0.4-0.6s-0.4-0.2-0.6-0.2c-0.2,0-0.4,0.1-0.6,0.2s-0.3,0.3-0.4,0.6
		c-0.1,0.3-0.1,0.6-0.1,1.1v1.5c0,0.5,0,0.8,0.1,1.1s0.2,0.5,0.4,0.6s0.4,0.2,0.6,0.2c0.2,0,0.4-0.1,0.6-0.2
		c0.2-0.1,0.3-0.3,0.4-0.6s0.1-0.6,0.1-1.1V41.4z"/>
	<path fill="#739EAD" d="M974.7,45.7H970v-0.8l2.3-2.5c0.2-0.3,0.4-0.5,0.6-0.7c0.1-0.2,0.2-0.4,0.3-0.5c0.1-0.2,0.1-0.3,0.1-0.5
		c0-0.3-0.1-0.6-0.3-0.8s-0.4-0.3-0.8-0.3c-0.3,0-0.5,0.1-0.6,0.2s-0.3,0.3-0.4,0.5c-0.1,0.2-0.1,0.4-0.1,0.7h-1.2
		c0-0.4,0.1-0.8,0.3-1.1s0.5-0.6,0.8-0.8c0.4-0.2,0.8-0.3,1.3-0.3c0.7,0,1.2,0.2,1.6,0.5c0.4,0.3,0.6,0.8,0.6,1.4
		c0,0.3-0.1,0.6-0.2,0.9c-0.1,0.3-0.3,0.6-0.5,0.9c-0.2,0.3-0.5,0.6-0.7,0.9l-1.5,1.6h3.2L974.7,45.7L974.7,45.7z"/>
	<path fill="#739EAD" d="M976.7,44.7c0.4,0,0.8-0.1,1.1-0.2c0.3-0.1,0.5-0.3,0.7-0.5s0.3-0.4,0.4-0.7s0.1-0.6,0.1-0.9v-1.2
		c0-0.4-0.1-0.7-0.2-0.9c-0.1-0.2-0.2-0.4-0.4-0.6c-0.2-0.1-0.4-0.2-0.6-0.2c-0.2,0-0.4,0.1-0.6,0.2c-0.2,0.1-0.3,0.3-0.4,0.5
		c-0.1,0.2-0.1,0.5-0.1,0.7s0,0.5,0.1,0.7s0.2,0.4,0.4,0.5s0.4,0.2,0.6,0.2c0.2,0,0.3,0,0.5-0.1c0.1-0.1,0.3-0.2,0.4-0.3
		c0.1-0.1,0.2-0.2,0.3-0.4c0.1-0.1,0.1-0.3,0.1-0.4l0.5,0.2c0,0.2-0.1,0.5-0.2,0.7c-0.1,0.2-0.2,0.4-0.4,0.6s-0.4,0.3-0.6,0.5
		s-0.5,0.2-0.8,0.2c-0.4,0-0.8-0.1-1.1-0.3s-0.5-0.5-0.7-0.9s-0.2-0.7-0.2-1.2s0.1-0.9,0.3-1.2c0.2-0.4,0.4-0.7,0.8-0.9
		c0.3-0.2,0.7-0.3,1.2-0.3c0.4,0,0.7,0.1,1,0.2c0.3,0.1,0.5,0.3,0.7,0.6s0.3,0.6,0.4,0.9c0.1,0.3,0.2,0.7,0.2,1.1v0.4
		c0,0.4,0,0.8-0.1,1.2s-0.2,0.7-0.4,1.1s-0.4,0.6-0.7,0.8s-0.6,0.4-1,0.6s-0.8,0.2-1.4,0.2h-0.1L976.7,44.7L976.7,44.7z"/>
	<path fill="#739EAD" d="M985.9,45.7h-4.7v-0.8l2.3-2.5c0.2-0.3,0.4-0.5,0.6-0.7c0.1-0.2,0.2-0.4,0.3-0.5c0.1-0.2,0.1-0.3,0.1-0.5
		c0-0.3-0.1-0.6-0.3-0.8s-0.4-0.3-0.8-0.3c-0.3,0-0.5,0.1-0.6,0.2s-0.3,0.3-0.4,0.5c-0.1,0.2-0.1,0.4-0.1,0.7h-1.2
		c0-0.4,0.1-0.8,0.3-1.1s0.5-0.6,0.8-0.8c0.4-0.2,0.8-0.3,1.3-0.3c0.7,0,1.2,0.2,1.6,0.5c0.4,0.3,0.6,0.8,0.6,1.4
		c0,0.3-0.1,0.6-0.2,0.9c-0.1,0.3-0.3,0.6-0.5,0.9c-0.2,0.3-0.5,0.6-0.7,0.9l-1.5,1.6h3.2L985.9,45.7L985.9,45.7z"/>
</g>
<g>
	<path fill="#739EAD" d="M1252,45.7h-1.2v-5.6l-1.7,0.6v-1l2.8-1h0.1L1252,45.7L1252,45.7z"/>
	<path fill="#739EAD" d="M1259,42.7c0,0.7-0.1,1.3-0.3,1.8c-0.2,0.4-0.5,0.8-0.8,1s-0.7,0.3-1.2,0.3s-0.9-0.1-1.2-0.3
		c-0.3-0.2-0.6-0.5-0.8-1s-0.3-1-0.3-1.8v-1.2c0-0.7,0.1-1.3,0.3-1.7s0.5-0.8,0.8-1s0.7-0.3,1.2-0.3s0.9,0.1,1.2,0.3s0.6,0.5,0.8,1
		s0.3,1,0.3,1.7V42.7z M1257.8,41.4c0-0.5,0-0.8-0.1-1.1s-0.2-0.5-0.4-0.6c-0.2-0.1-0.4-0.2-0.6-0.2s-0.4,0.1-0.6,0.2
		s-0.3,0.3-0.4,0.6s-0.1,0.6-0.1,1.1v1.5c0,0.5,0,0.8,0.1,1.1s0.2,0.5,0.4,0.6c0.2,0.1,0.4,0.2,0.6,0.2s0.4-0.1,0.6-0.2
		c0.2-0.1,0.3-0.3,0.4-0.6s0.1-0.6,0.1-1.1V41.4z"/>
	<path fill="#739EAD" d="M1263.2,45.7h-1.2v-5.6l-1.7,0.6v-1l2.8-1h0.1L1263.2,45.7L1263.2,45.7z"/>
</g>
<g>
	<path fill="#739EAD" d="M1316.6,42.7c0,0.7-0.1,1.3-0.3,1.8s-0.5,0.8-0.8,1s-0.7,0.3-1.2,0.3s-0.9-0.1-1.2-0.3s-0.6-0.5-0.8-1
		c-0.2-0.4-0.3-1-0.3-1.8v-1.2c0-0.7,0.1-1.3,0.3-1.7s0.5-0.8,0.8-1s0.7-0.3,1.2-0.3s0.9,0.1,1.2,0.3s0.6,0.5,0.8,1
		c0.2,0.4,0.3,1,0.3,1.7V42.7z M1315.4,41.4c0-0.5,0-0.8-0.1-1.1s-0.2-0.5-0.4-0.6c-0.2-0.1-0.4-0.2-0.6-0.2s-0.4,0.1-0.6,0.2
		c-0.2,0.1-0.3,0.3-0.4,0.6s-0.1,0.6-0.1,1.1v1.5c0,0.5,0,0.8,0.1,1.1s0.2,0.5,0.4,0.6c0.2,0.1,0.4,0.2,0.6,0.2s0.4-0.1,0.6-0.2
		c0.2-0.1,0.3-0.3,0.4-0.6s0.1-0.6,0.1-1.1V41.4z"/>
	<path fill="#739EAD" d="M1322.3,45.7h-4.7v-0.8l2.3-2.5c0.2-0.3,0.4-0.5,0.6-0.7c0.1-0.2,0.2-0.4,0.3-0.5c0.1-0.2,0.1-0.3,0.1-0.5
		c0-0.3-0.1-0.6-0.3-0.8c-0.2-0.2-0.4-0.3-0.8-0.3c-0.3,0-0.5,0.1-0.6,0.2c-0.2,0.1-0.3,0.3-0.4,0.5s-0.1,0.4-0.1,0.7h-1.2
		c0-0.4,0.1-0.8,0.3-1.1c0.2-0.3,0.5-0.6,0.8-0.8c0.4-0.2,0.8-0.3,1.3-0.3c0.7,0,1.2,0.2,1.6,0.5s0.6,0.8,0.6,1.4
		c0,0.3-0.1,0.6-0.2,0.9s-0.3,0.6-0.5,0.9c-0.2,0.3-0.5,0.6-0.7,0.9l-1.5,1.6h3.2v0.7H1322.3z"/>
	<path fill="#739EAD" d="M1324.6,41.9h0.9c0.4,0,0.8,0,1,0.1s0.5,0.2,0.7,0.4s0.3,0.4,0.4,0.6c0.1,0.2,0.1,0.4,0.1,0.7
		c0,0.4-0.1,0.8-0.3,1.1c-0.2,0.3-0.5,0.5-0.8,0.7c-0.4,0.2-0.8,0.2-1.2,0.2c-0.3,0-0.6,0-0.9-0.1s-0.5-0.2-0.7-0.4
		s-0.4-0.4-0.5-0.6s-0.2-0.5-0.2-0.9h1.2c0,0.2,0,0.4,0.1,0.5c0.1,0.2,0.2,0.3,0.4,0.4s0.4,0.1,0.6,0.1c0.4,0,0.6-0.1,0.8-0.3
		c0.2-0.2,0.3-0.5,0.3-0.8s-0.1-0.5-0.2-0.7s-0.3-0.3-0.4-0.4c-0.2-0.1-0.4-0.1-0.7-0.1h-0.7L1324.6,41.9L1324.6,41.9z M1325.3,41.6
		c0.3,0,0.5,0,0.7-0.1s0.3-0.2,0.4-0.4s0.1-0.3,0.1-0.6c0-0.2,0-0.4-0.1-0.5c-0.1-0.2-0.2-0.3-0.4-0.4c-0.2-0.1-0.4-0.1-0.6-0.1
		s-0.4,0-0.5,0.1s-0.3,0.2-0.4,0.3s-0.1,0.3-0.1,0.5h-1.2c0-0.4,0.1-0.7,0.3-1s0.5-0.5,0.8-0.7s0.7-0.2,1.1-0.2
		c0.5,0,0.8,0.1,1.2,0.2c0.3,0.1,0.6,0.4,0.8,0.7c0.2,0.3,0.3,0.7,0.3,1.1c0,0.2,0,0.4-0.1,0.6c-0.1,0.2-0.2,0.4-0.4,0.6
		c-0.2,0.2-0.4,0.3-0.7,0.4c-0.3,0.1-0.6,0.2-0.9,0.2h-0.9v-0.7C1324.7,41.6,1325.3,41.6,1325.3,41.6z"/>
</g>
<path id="Path_437_00000096031910563499694630000002495328967778391939_" fill="none" stroke="#6F9BAC" stroke-miterlimit="10" d="
	M18.7,866.8v6.1"/>
<path id="Path_437_00000101068848919449835670000015041718312431374729_" fill="none" stroke="#6F9BAC" stroke-miterlimit="10" d="
	M1900,867.7v6.1"/>
<path id="Path_437_00000178178841057827312420000003638841203717979051_" fill="none" stroke="#6F9BAC" stroke-miterlimit="10" d="
	M1900.3,179.8v3"/>
<line fill="none" stroke="#6F9BAC" stroke-width="3" stroke-miterlimit="10" x1="104.4" y1="987.1" x2="148.4" y2="987.1"/>
<line fill="none" stroke="#6F9BAC" stroke-width="3" stroke-miterlimit="10" x1="217.7" y1="958.9" x2="261.8" y2="958.9"/>
<line fill="none" stroke="#6F9BAC" stroke-width="3" stroke-miterlimit="10" x1="397.7" y1="1020.9" x2="441.8" y2="1020.9"/>
<line fill="none" stroke="#6F9BAC" stroke-width="3" stroke-miterlimit="10" x1="540.5" y1="980.5" x2="584.6" y2="980.5"/>
</svg>
