<?xml version="1.0" encoding="utf-8"?>
<!-- Generator: Adobe Illustrator 26.0.1, SVG Export Plug-In . SVG Version: 6.00 Build 0)  -->
<svg version="1.1" baseProfile="tiny" id="Layer_1" xmlns="http://www.w3.org/2000/svg" xmlns:xlink="http://www.w3.org/1999/xlink"
	 x="0px" y="0px" viewBox="0 0 1920 1080" overflow="visible" xml:space="preserve">
<g>
	<g id="Group_298_00000090286765530224016790000001631378933316092599_">
		
			<path id="Path_295_00000146470838975992885090000018444136277760403635_" fill="none" stroke="#019EC3" stroke-width="2" stroke-linecap="round" stroke-miterlimit="10" d="
			M1017.8,566.3c2.2-14.3,3.2-28.7,3.1-43.1c-0.4-32.6-27.2-59.2-60-59.2h-0.4c-33,0.4-59.5,27.4-59.1,60.4
			c0.1,11.9-1.3,22.6-1.8,24.7c-1.2,3.5-2.8,7-4.4,10.4"/>
	</g>
	<g id="Group_300_00000078026849321011130840000002968190331846663343_">
		
			<path id="Path_296_00000103226358271384743580000009743030410830086320_" fill="none" stroke="#019EC3" stroke-width="2" stroke-linecap="round" stroke-miterlimit="10" d="
			M1012.4,588.5c1.8-5.2,3.3-10.6,4.3-16.1"/>
	</g>
	<g id="Group_302_00000001628991666998040390000010108702617415169178_">
		
			<path id="Path_297_00000084491792504684970870000016029374791355181952_" fill="none" stroke="#019EC3" stroke-width="2" stroke-linecap="round" stroke-miterlimit="10" d="
			M916.3,496.8c-5.1,8.3-7.7,17.9-7.6,27.6c0.1,12.9-1.5,25-2.2,27c-2.2,6.2-5.1,12.3-8.3,18.1"/>
	</g>
	<g id="Group_304_00000117664100699446715560000013567511549595269549_">
		
			<path id="Path_298_00000015336599149189030850000011599625273471422891_" fill="none" stroke="#019EC3" stroke-width="2" stroke-linecap="round" stroke-miterlimit="10" d="
			M1010.5,506.4c-7.5-20.8-27.2-34.8-49.4-34.8h-0.4c-16.1,0.1-31.2,7.6-41,20.4"/>
	</g>
	<g id="Group_306_00000026122820159198840740000005729471845464602265_">
		
			<path id="Path_299_00000106125990749102408940000014114263519621991042_" fill="none" stroke="#019EC3" stroke-width="2" stroke-linecap="round" stroke-miterlimit="10" d="
			M998.6,602.9c2.4-5.4,4.7-10.9,6.8-16.7c8.1-22.9,8.2-56.3,8.2-62.8c-0.1-3.8-0.5-7.6-1.4-11.4"/>
	</g>
	<g id="Group_308_00000096779281427274403220000001967326849051684254_">
		
			<path id="Path_300_00000155853342870457158400000001518036058417884087_" fill="none" stroke="#019EC3" stroke-width="2" stroke-linecap="round" stroke-miterlimit="10" d="
			M913.3,554.8c-3,8-6.7,15.7-11.2,23"/>
	</g>
	<g id="Group_310_00000075853320515371286900000011015643584267807874_">
		
			<path id="Path_301_00000051342417822666033330000009013378974984415659_" fill="none" stroke="#019EC3" stroke-width="2" stroke-linecap="round" stroke-miterlimit="10" d="
			M954.2,479.5c-0.2,0.1-0.4,0.1-0.6,0.1c-21.7,3.7-37.6,22.6-37.4,44.6c0.1,8.3-0.5,16.6-1.6,24.9"/>
	</g>
	<g id="Group_312_00000017507648720234229910000006511840635725834378_">
		
			<path id="Path_302_00000077319443692214734040000012393866650332358297_" fill="none" stroke="#019EC3" stroke-width="2" stroke-linecap="round" stroke-miterlimit="10" d="
			M1005.2,545.5c0.7-10.6,0.7-19.2,0.7-22.1c-0.4-24.6-20.3-44.4-44.9-44.4h-0.3"/>
	</g>
	<g id="Group_314_00000028286059695495427640000014965653239563624609_">
		
			<path id="Path_303_00000113344506611548339860000013790432599142069661_" fill="none" stroke="#019EC3" stroke-width="2" stroke-linecap="round" stroke-miterlimit="10" d="
			M986.7,610.4c4.5-8.6,8.4-17.5,11.6-26.7c3.4-9.6,5.4-21.3,6.4-31.8"/>
	</g>
	<g id="Group_316_00000119117256710523648810000014307215799200439231_">
		
			<path id="Path_304_00000127036684862001366490000005733066256842112662_" fill="none" stroke="#019EC3" stroke-width="2" stroke-linecap="round" stroke-miterlimit="10" d="
			M926.7,509.4c-2,4.7-2.9,9.7-2.9,14.8c0.1,12.3-1.3,27.3-3,32.1c-3.7,10.1-8.5,19.8-14.3,28.7"/>
	</g>
	<g id="Group_318_00000065796600076237255160000000418844096285054898_">
		
			<path id="Path_305_00000176736186888770959300000015167382100157551514_" fill="none" stroke="#019EC3" stroke-width="2" stroke-linecap="round" stroke-miterlimit="10" d="
			M977.9,490.5c-5.2-2.7-11-4.1-16.9-4h-0.4c-12.8,0.1-24.6,6.8-31.3,17.7"/>
	</g>
	<g id="Group_320_00000159447488718392920560000012712616172825385614_">
		
			<path id="Path_306_00000179643970075053479850000005528208869204287125_" fill="none" stroke="#019EC3" stroke-width="2" stroke-linecap="round" stroke-miterlimit="10" d="
			M976,614.4c6-10.6,11.1-21.7,15.2-33.1c7.2-20.6,7.3-51.6,7.2-57.6c-0.1-11.5-5.6-22.4-14.8-29.4"/>
	</g>
	<g id="Group_322_00000152248879787047630230000016985638181384537774_">
		
			<path id="Path_307_00000067924295743966670440000016920698676548346552_" fill="none" stroke="#019EC3" stroke-width="2" stroke-linecap="round" stroke-miterlimit="10" d="
			M920.2,576c-2.9,5.6-6,10.8-9,15.5"/>
	</g>
	<g id="Group_324_00000037694572501405408260000000931505692789927314_">
		
			<path id="Path_308_00000033342631811469810320000015525481956567249853_" fill="none" stroke="#019EC3" stroke-width="2" stroke-linecap="round" stroke-miterlimit="10" d="
			M982,584.6c0.7-2,1.5-3.9,2.2-5.9c6.9-19.4,6.9-49.3,6.9-55.1c-0.2-16.4-13.5-29.5-29.9-29.6h-0.3c-16.5,0.1-29.7,13.7-29.6,30.1
			c0.1,11.7-1.2,28.3-3.5,34.6c-1.4,4.1-3,8-4.8,11.8"/>
	</g>
	<g id="Group_326_00000165209673983575844590000016401179773479427970_">
		
			<path id="Path_309_00000181790110594322521320000002551623366833918858_" fill="none" stroke="#019EC3" stroke-width="2" stroke-linecap="round" stroke-miterlimit="10" d="
			M966.4,616.1c5-8.3,9.4-16.9,13.2-25.8"/>
	</g>
	<g id="Group_328_00000135684909908108423360000000686238399124483241_">
		
			<path id="Path_310_00000011745694157306890930000012350182256359572880_" fill="none" stroke="#019EC3" stroke-width="2" stroke-linecap="round" stroke-miterlimit="10" d="
			M946.3,507.1c-4.9,4.3-7.7,10.5-7.5,17c0.1,9.9-0.9,28.8-3.8,37.2c-4.8,13.7-11.8,26.1-18.5,36"/>
	</g>
	<g id="Group_330_00000077307740919536677300000000835607400110415547_">
		
			<path id="Path_311_00000110435851185251537960000015400992787930515126_" fill="none" stroke="#019EC3" stroke-width="2" stroke-linecap="round" stroke-miterlimit="10" d="
			M983.5,522.5c-0.7-11.9-10.6-21.1-22.4-21.1H961c-3.5,0-6.8,0.9-9.9,2.4"/>
	</g>
	<g id="Group_332_00000118397294796681036950000004492916363184349320_">
		
			<path id="Path_312_00000108997215159215521180000004772582214954745776_" fill="none" stroke="#019EC3" stroke-width="2" stroke-linecap="round" stroke-miterlimit="10" d="
			M957.5,616.3c8-12.6,14.5-26.1,19.6-40.1c5.3-14.9,6.3-37.1,6.4-47.5"/>
	</g>
	<g id="Group_334_00000173849599274312747290000009698477843868313013_">
		
			<path id="Path_313_00000078030288177642497630000013560612144990588587_" fill="none" stroke="#019EC3" stroke-width="2" stroke-linecap="round" stroke-miterlimit="10" d="
			M974.9,549.6c0.9-8.6,1.3-17.2,1.2-25.8c-0.1-8.2-6.7-14.8-14.9-14.8H961c-8.3,0.1-14.8,6.8-14.8,15.1c0.1,7.5-0.6,29.2-4.3,39.7
			c-5,13.6-11.7,26.6-19.9,38.6"/>
	</g>
	<g id="Group_336_00000078749920209780264830000011715466425328404124_">
		
			<path id="Path_314_00000137848055184899503460000005895767142124209078_" fill="none" stroke="#019EC3" stroke-width="2" stroke-linecap="round" stroke-miterlimit="10" d="
			M949.3,615.2c8.5-13,15.5-27,20.7-41.6c2-5.9,3.3-11.9,4-17.9"/>
	</g>
	<g id="Group_338_00000061457549185041243300000014638327759501862305_">
		
			<path id="Path_316_00000016758605476853570680000017195376514319791245_" fill="none" stroke="#019EC3" stroke-width="2" stroke-linecap="round" stroke-miterlimit="10" d="
			M948.2,568.6c-5.1,13.5-11.9,26.3-20,38.1"/>
	</g>
	<g id="Group_340_00000138553736588942065770000016692442010075030669_">
		
			<path id="Path_318_00000039122432361940208610000003508572319658084780_" fill="none" stroke="#019EC3" stroke-width="2" stroke-linecap="round" stroke-miterlimit="10" d="
			M941.8,613.3c8.8-13.1,15.9-27.2,21.3-42c5.8-16.4,5.6-46.2,5.6-47.4c-0.1-4.1-3.4-7.5-7.5-7.5s-7.5,3.3-7.5,7.5
			c0,0,0.2,24.8-3.8,39.3"/>
	</g>
	<g id="Group_342_00000065055854300560769060000000524001974212776607_">
		
			<path id="Path_319_00000180354525277376759180000012652386163228723131_" fill="none" stroke="#019EC3" stroke-width="2" stroke-linecap="round" stroke-miterlimit="10" d="
			M934.6,610.4c2-2.8,3.8-5.9,5.8-9"/>
	</g>
	<g id="Group_344_00000088098935643662232830000010176228248677959081_">
		
			<path id="Path_321_00000137848604534929333640000011999119724037909639_" fill="none" stroke="#019EC3" stroke-width="2" stroke-linecap="round" stroke-miterlimit="10" d="
			M943.5,596c4.9-8.8,9.1-17.9,12.5-27.3c5.4-15.4,5.1-44.9,5.1-44.9"/>
	</g>
</g>
</svg>
