<?xml version="1.0" encoding="utf-8"?>
<!-- Generator: Adobe Illustrator 26.0.1, SVG Export Plug-In . SVG Version: 6.00 Build 0)  -->
<svg version="1.1" baseProfile="tiny" id="Layer_1" xmlns="http://www.w3.org/2000/svg" xmlns:xlink="http://www.w3.org/1999/xlink"
	 x="0px" y="0px" viewBox="0 0 1920 1080" overflow="visible" xml:space="preserve">
<g>
	
		<path id="Path_437_00000091715167511607054980000007060674781746807684_" fill="none" stroke="#84A8B6" stroke-width="1.1628" stroke-miterlimit="10" d="
		M866.4,616.1v4.3c0,7.4,6,13.4,13.4,13.4l0,0h16.9"/>
	
		<path id="Path_437_00000086664268032968161110000000080843285402512058_" fill="none" stroke="#84A8B6" stroke-width="1.1628" stroke-miterlimit="10" d="
		M866.4,603.6v7.1"/>
</g>
<g>
	<g>
		
			<path id="Path_437_00000092440616600944908160000007570589027907537031_" fill="none" stroke="#84A8B6" stroke-width="1.1628" stroke-miterlimit="10" d="
			M1023.3,633.8h16.9l0,0c7.4,0,13.4-6,13.4-13.4v-4.3"/>
		
			<path id="Path_437_00000175284518420613736920000001776753837474369443_" fill="none" stroke="#84A8B6" stroke-width="1.1628" stroke-miterlimit="10" d="
			M1053.6,610.7v-7.1"/>
	</g>
</g>
<path id="Path_437_00000063607976639514032380000014150350653440517276_" fill="none" stroke="#84A8B6" stroke-width="1.1628" stroke-miterlimit="10" d="
	M1053.6,463.9v-4.3c0-7.4-6-13.4-13.4-13.4l0,0h-16.9"/>
<path id="Path_437_00000119820430441796406960000011216508908368385949_" fill="none" stroke="#84A8B6" stroke-width="1.1628" stroke-miterlimit="10" d="
	M1053.6,476.4v-7.1"/>
<g>
	
		<path id="Path_437_00000129885776512685958000000005929984621410921913_" fill="none" stroke="#84A8B6" stroke-width="1.1628" stroke-miterlimit="10" d="
		M896.7,446.2h-16.9l0,0c-7.4,0-13.4,6-13.4,13.4v4.3"/>
	
		<path id="Path_437_00000134954239978204753630000003580019105014164870_" fill="none" stroke="#84A8B6" stroke-width="1.1628" stroke-miterlimit="10" d="
		M866.4,469.3v7.1"/>
</g>
</svg>
