<?xml version="1.0" encoding="utf-8"?>
<!-- Generator: Adobe Illustrator 26.3.1, SVG Export Plug-In . SVG Version: 6.00 Build 0)  -->
<svg version="1.1" baseProfile="tiny" id="Layer_2_00000052826295444146432080000009483790427443325886_"
	 xmlns="http://www.w3.org/2000/svg" xmlns:xlink="http://www.w3.org/1999/xlink" x="0px" y="0px" viewBox="0 0 844 928"
	 overflow="visible" xml:space="preserve">
<g id="Generic">
	<path fill="#231F20" d="M817,794.8l-60,59.6H123.2v7.6h694.4c2.8,0,5-2.2,5-5l0.2-59.7C822.8,794.2,819.1,792.7,817,794.8
		L817,794.8z"/>
	<path fill="#231F20" d="M723.7,68L28.5,67.9c-2.8,0-5,2.2-5,5l-0.2,59.7c0,3.1,3.7,4.6,5.9,2.4l59.9-59.4h634.8V68H723.7z"/>
	<path fill="#231F20" d="M822.8,73.1c0-2.8-2.2-5-5-5l-59.7-0.2c-3.1,0-4.6,3.7-2.5,5.8l59.6,60v630.1h7.6L822.8,73.1L822.8,73.1z"
		/>
	<path fill="#231F20" d="M90.4,856.2l-59.6-60V163.9h-7.6v692.8c0,2.8,2.2,5,5,5l59.7,0.2C91,862,92.5,858.3,90.4,856.2L90.4,856.2z
		"/>
</g>
</svg>
