<?xml version="1.0" encoding="utf-8"?>
<!-- Generator: Adobe Illustrator 26.4.0, SVG Export Plug-In . SVG Version: 6.00 Build 0)  -->
<svg version="1.1" baseProfile="tiny" id="Layer_2_00000072281704934961381540000016621472039855589557_"
	 xmlns="http://www.w3.org/2000/svg" xmlns:xlink="http://www.w3.org/1999/xlink" x="0px" y="0px" viewBox="0 0 386.8 672"
	 overflow="visible" xml:space="preserve">
<g id="button_background">
	<g id="panel_border">
		<path fill="#8EA6B2" d="M23.5,0L24,1.6h2.4c0.4,0,0.7,0.2,0.8,0.5L28,3.9c0.2,0.4,0.5,0.6,0.9,0.6h329.7c0.4,0,0.7-0.2,0.9-0.6
			l0.8-1.8c0.1-0.3,0.5-0.5,0.8-0.5h2.4l0.6-1.5L23.5,0L23.5,0z"/>
		<path fill="#8EA6B2" d="M363.8,671.6l-0.5-1.6h-2.4c-0.4,0-0.7-0.2-0.8-0.5l-0.8-1.7c-0.2-0.3-0.5-0.6-0.9-0.6h-330
			c-0.4,0-0.7,0.2-0.9,0.6l-0.8,1.8c-0.1,0.3-0.5,0.5-0.8,0.5H24l-0.6,1.6L363.8,671.6L363.8,671.6z"/>
		<path fill="#8EA6B2" d="M386.8,21.3l-1.7,1v2c0,0.4-0.2,0.7-0.5,0.8l-1.6,0.8c-0.4,0.2-0.6,0.5-0.6,0.9v617.5
			c0,0.4,0.2,0.7,0.6,0.9l1.6,0.8c0.3,0.2,0.5,0.5,0.5,0.8v2.4l1.7,0.7V21.3z"/>
		<path fill="#8EA6B2" d="M0.6,649.8l1.7-0.7v-2.2c0-0.3,0.2-0.7,0.5-0.8l1.6-0.8c0.3-0.2,0.6-0.5,0.6-0.9V27.2
			c0-0.4-0.2-0.7-0.6-0.9l-1.7-0.8c-0.3-0.1-0.5-0.5-0.5-0.8v-2.4l-1.7-0.7C0.6,21.7,0.6,649.8,0.6,649.8z"/>
		<g>
			<path fill="#FFFFFF" d="M2.3,18.1v-1.2l0,0V9.6c0-4.4,3.6-8,8-8h10.8L21.8,0H10.6C5,0,0.6,4.3,0.6,9.9v10.3l1.7-0.9
				C2.3,19.3,2.3,18.1,2.3,18.1z"/>
			<circle fill="#FFFFFF" cx="19.7" cy="3.8" r="0.5"/>
			<circle fill="#FFFFFF" cx="18" cy="3.8" r="0.5"/>
		</g>
		<g>
			<path fill="#FFFFFF" d="M385.1,18.1v-1.2l0,0V9.6c0-4.4-3.6-8-8-8h-10.8L365.5,0h11.2c5.6,0,10,4.3,10,9.9v10.3l-1.7-0.9
				L385.1,18.1L385.1,18.1z"/>
			<circle fill="#FFFFFF" cx="367.7" cy="3.8" r="0.5"/>
			<circle fill="#FFFFFF" cx="369.3" cy="3.8" r="0.5"/>
		</g>
		<g>
			<path fill="#FFFFFF" d="M2.3,661.8c0,4.4,3.9,8.4,8.3,8.4h10.5l0.5,1.5h-11c-5.6,0-10.1-4.3-10.1-9.9v-10.3l1.7,0.7L2.3,661.8
				L2.3,661.8z"/>
			<path fill="#FFFFFF" d="M19.8,668.5c0.3,0,0.5-0.2,0.5-0.5s-0.2-0.5-0.5-0.5h-1.7c-0.3,0-0.5,0.2-0.5,0.5s0.2,0.5,0.5,0.5H19.8z"
				/>
		</g>
		<g>
			<path fill="#FFFFFF" d="M385.1,661.9c0,4.4-4.1,8.2-8.6,8.2h-10.2l-0.7,1.5h11.2c5.6,0,10-4.3,10-9.9v-10.1l-1.7,0.7L385.1,661.9
				L385.1,661.9z"/>
			<circle fill="#FFFFFF" cx="361.8" cy="667.9" r="0.5"/>
			<circle fill="#FFFFFF" cx="367.5" cy="667.9" r="0.5"/>
		</g>
		<rect x="376.1" y="19.1" fill="#703C30" width="2.2" height="5.2"/>
		<rect x="376.1" y="9.8" fill="#703C30" width="2.2" height="2.2"/>
		<rect x="4.6" y="15.6" fill="#FFFFFF" width="0.7" height="2.8"/>
	</g>
</g>
<g>
	<path fill="#5F707A" d="M87.4,617l-31,31H23.2v-21.3l9.7-9.7H87.4 M87.6,616H32.8c-0.2,0-0.5,0.1-0.7,0.3l-9.7,9.7
		c-0.2,0.2-0.3,0.4-0.3,0.7v21.4c0,0.5,0.4,1,1,1h33.3c0.2,0,0.5-0.1,0.7-0.3l31.1-31.1C88.8,617,88.4,616,87.6,616L87.6,616
		L87.6,616z"/>
	<path fill="#5F707A" d="M290.5,617l-31,31h-54.6l31-31H290.5 M290.6,616h-54.8c-0.2,0-0.5,0.1-0.7,0.3L204,647.4
		c-0.6,0.6-0.2,1.6,0.7,1.6h54.8c0.2,0,0.5-0.1,0.7-0.3l31.1-31.1C291.9,617,291.5,616,290.6,616L290.6,616z"/>
	<path fill="#5F707A" d="M362.3,617v29.8l-1.2,1.3h-54.6l31-31L362.3,617 M362.3,616h-24.9c-0.2,0-0.5,0.1-0.7,0.3l-31.1,31.1
		c-0.6,0.6-0.2,1.6,0.7,1.6h54.8c0.2,0,0.5-0.1,0.7-0.3l1.3-1.3c0.2-0.2,0.3-0.4,0.3-0.7v-29.8C363.3,616.4,362.9,616,362.3,616
		L362.3,616L362.3,616z"/>
	<path fill="#5F707A" d="M189,617l-31,31h-54.6l31-31H189 M189.1,616h-54.8c-0.2,0-0.5,0.1-0.7,0.3l-31.1,31.1
		c-0.6,0.6-0.2,1.6,0.7,1.6H158c0.2,0,0.5-0.1,0.7-0.3l31.1-31.1C190.4,617,190,616,189.1,616L189.1,616L189.1,616z"/>
</g>
<g>
	<path fill="none" stroke="#8EA6B2" stroke-width="4" stroke-linecap="round" stroke-linejoin="round" d="M334.4,470.8h18.4
		c5,0,9.1,4.1,9.1,9.1v17.9"/>
	<path fill="none" stroke="#8EA6B2" stroke-width="4" stroke-linecap="round" stroke-linejoin="round" d="M23.8,496.8v-16.9
		c0-5,4.1-9.1,9.1-9.1h14.9"/>
	<path fill="none" stroke="#8EA6B2" stroke-width="4" stroke-linecap="round" stroke-linejoin="round" d="M51,602.8H32.9
		c-5,0-9.1-4.1-9.1-9.1v-16.9"/>
	<path fill="none" stroke="#8EA6B2" stroke-width="4" stroke-linecap="round" stroke-linejoin="round" d="M361.9,576.8v16.9
		c0,5-4.1,9.1-9.1,9.1H334"/>
	<polygon fill="#FFFFFF" points="48.4,481.8 35.7,494.5 35.7,481.8 	"/>
	<path fill="#1F2F3C" d="M34.1,476.5h317c2.1,0,3.8,1.7,3.8,3.8v112.4c0,2.1-1.7,3.8-3.8,3.8h-317c-2.1,0-3.8-1.7-3.8-3.8V480.2
		C30.4,478.2,32.1,476.5,34.1,476.5z"/>
	<polygon fill="#FFFFFF" points="48.4,481.8 35.7,494.5 35.7,481.8 	"/>
	<rect x="35.7" y="481.8" fill="none" stroke="#FFFFFF" stroke-miterlimit="10" width="313.9" height="109.3"/>
</g>
<g>
	<line fill="none" stroke="#8EA6B2" stroke-miterlimit="10" x1="23.5" y1="21.5" x2="363.3" y2="21.5"/>
	<path fill="#8EA6B2" d="M34.9,21.1L24,32c-0.6,0.6-1.7,0.2-1.7-0.7V22c0-0.5,0.5-1,1-1C23.2,21.1,34.9,21.1,34.9,21.1z"/>
</g>
<line fill="none" stroke="#8EA6B2" stroke-miterlimit="10" x1="23.6" y1="64.1" x2="363.3" y2="64.1"/>
<path fill="#8EA6B2" d="M34.9,63.6l-11,11c-0.6,0.6-1.7,0.2-1.7-0.7v-9.3c0-0.6,0.5-1,1-1H34.9z"/>
</svg>
