<?xml version="1.0" encoding="utf-8"?>
<!-- Generator: Adobe Illustrator 26.3.1, SVG Export Plug-In . SVG Version: 6.00 Build 0)  -->
<svg version="1.1" baseProfile="tiny" id="Layer_2_00000038411817595375749050000007585136606405648019_"
	 xmlns="http://www.w3.org/2000/svg" xmlns:xlink="http://www.w3.org/1999/xlink" x="0px" y="0px" viewBox="0 0 386.7 672"
	 overflow="visible" xml:space="preserve">
<g>
	<path fill="#5AA344" d="M32.2,616.3l-9.7,9.7c-0.2,0.2-0.3,0.4-0.3,0.7v21.4c0,0.5,0.4,1,1,1h33.3c0.2,0,0.5-0.1,0.7-0.3l31.1-31.1
		c0.6-0.6,0.2-1.6-0.7-1.6H32.8C32.6,616,32.3,616.1,32.2,616.3L32.2,616.3z"/>
	<path fill="#5AA344" d="M290.6,616h-54.8c-0.2,0-0.5,0.1-0.7,0.3L204,647.4c-0.6,0.6-0.2,1.6,0.7,1.6h54.8c0.2,0,0.5-0.1,0.7-0.3
		l31.1-31.1C291.9,617,291.5,616,290.6,616z"/>
	<path fill="#5AA344" d="M362.3,616h-24.9c-0.2,0-0.5,0.1-0.7,0.3l-31.1,31.1c-0.6,0.6-0.2,1.6,0.7,1.6H361c0.2,0,0.5-0.1,0.7-0.3
		l1.3-1.3c0.2-0.2,0.3-0.4,0.3-0.7v-29.8C363.3,616.4,362.9,616,362.3,616L362.3,616z"/>
	<path fill="#5AA344" d="M189.1,616h-54.8c-0.2,0-0.5,0.1-0.7,0.3l-31.1,31.1c-0.6,0.6-0.2,1.6,0.7,1.6H158c0.2,0,0.5-0.1,0.7-0.3
		l31.1-31.1C190.4,617,190,616,189.1,616L189.1,616z"/>
</g>
</svg>
