<?xml version="1.0" encoding="utf-8"?>
<!-- Generator: Adobe Illustrator 29.5.1, SVG Export Plug-In . SVG Version: 9.03 Build 0)  -->
<svg version="1.1" baseProfile="tiny" id="Layer_1" xmlns="http://www.w3.org/2000/svg" xmlns:xlink="http://www.w3.org/1999/xlink"
	 x="0px" y="0px" viewBox="0 0 271.8 210.1" overflow="visible" xml:space="preserve">
<g id="BG" display="none">
	<rect y="0" display="inline" fill="#2D2828" width="271.8" height="210.1"/>
</g>
<g id="Venetian_Blinds_Effect">
</g>
<g id="Vignette">
</g>
<g id="Frame">
</g>
<polygon fill="#E8E766" points="162.3,173.9 161.9,173.9 161.9,171.3 157.8,171.3 157.8,172.6 157.6,172.6 157.6,171.3 153.5,171.3 
	153.5,173.9 153.2,173.9 153.2,171.3 149.1,171.3 149.1,172.6 148.9,172.6 148.9,171.3 144.8,171.3 144.8,173.9 144.5,173.9 
	144.5,171.3 140.4,171.3 140.4,172.6 140.2,172.6 140.2,171.3 136.1,171.3 136.1,173.9 135.8,173.9 135.8,171.3 131.7,171.3 
	131.7,172.6 131.5,172.6 131.5,171.3 127.4,171.3 127.4,173.9 127,173.9 127,171.3 122.9,171.3 122.9,172.6 122.7,172.6 
	122.7,171.3 118.6,171.3 118.6,173.9 118.3,173.9 118.3,171.3 114.2,171.3 114.2,172.6 114,172.6 114,171.3 109.9,171.3 
	109.9,173.9 109.6,173.9 109.6,171 109.8,171 109.8,171 162.1,171 162.1,171 162.3,171 "/>
<line fill="none" stroke="#E8E766" stroke-width="0.3347" stroke-miterlimit="10" x1="217" y1="105.1" x2="222.4" y2="105.1"/>
<line fill="none" stroke="#E8E766" stroke-width="0.3347" stroke-miterlimit="10" x1="54.9" y1="105.1" x2="49.5" y2="105.1"/>
<polygon fill="#E8E766" points="162.3,36.8 161.9,36.8 161.9,39.3 157.8,39.3 157.8,38 157.6,38 157.6,39.3 153.5,39.3 153.5,36.8 
	153.2,36.8 153.2,39.3 149.1,39.3 149.1,38 148.9,38 148.9,39.3 144.8,39.3 144.8,36.8 144.5,36.8 144.5,39.3 140.4,39.3 140.4,38 
	140.2,38 140.2,39.3 136.1,39.3 136.1,36.8 135.8,36.8 135.8,39.3 131.7,39.3 131.7,38 131.5,38 131.5,39.3 127.4,39.3 127.4,36.8 
	127,36.8 127,39.3 122.9,39.3 122.9,38 122.7,38 122.7,39.3 118.6,39.3 118.6,36.8 118.3,36.8 118.3,39.3 114.2,39.3 114.2,38 
	114,38 114,39.3 109.9,39.3 109.9,36.8 109.6,36.8 109.6,39.6 109.8,39.6 109.8,39.6 162.1,39.6 162.1,39.6 162.3,39.6 "/>
<line fill="none" stroke="#E8E766" stroke-width="0.4184" stroke-miterlimit="10" x1="135.9" y1="48.9" x2="135.9" y2="52.9"/>
<line fill="none" stroke="#E8E766" stroke-width="0.4184" stroke-miterlimit="10" x1="135.9" y1="157.2" x2="135.9" y2="161.1"/>
<g id="Heat_x5F_Bars">
</g>
<g id="Top_x5F_Bottom_x5F_Frame">
</g>
<g id="Heat_x5F_Indicators">
</g>
<g id="Inner_x5F_Frame_x5F_Greeble">
</g>
<g id="Bottom_x5F_Footer_x5F_Greebles">
</g>
</svg>
