<?xml version="1.0" encoding="utf-8"?>
<!-- Generator: Adobe Illustrator 29.5.1, SVG Export Plug-In . SVG Version: 9.03 Build 0)  -->
<svg version="1.1" baseProfile="tiny" id="Layer_1" xmlns="http://www.w3.org/2000/svg" xmlns:xlink="http://www.w3.org/1999/xlink"
	 x="0px" y="0px" viewBox="0 0 271.8 210.1" overflow="visible" xml:space="preserve">
<g id="BG" display="none">
	<rect y="0" display="inline" fill="#2D2828" width="271.8" height="210.1"/>
</g>
<g id="Top_x5F_Bottom_x5F_Frame">
	<path id="opacity:50_00000011724404830689318580000015036413990194348942_" fill="#E8E766" d="M256.8,205.2h-72.1
		c-2.3,0-4.4-0.9-6.1-2.5l-4.6-4.6c-1.5-1.5-3.6-2.4-5.8-2.4h-64.6c-2.2,0-4.2,0.8-5.8,2.4l-4.6,4.6c-1.6,1.6-3.8,2.5-6.1,2.5H15
		v-0.4h72.1c2.2,0,4.2-0.8,5.8-2.4l4.6-4.6c1.6-1.6,3.8-2.5,6.1-2.5h64.6c2.3,0,4.4,0.9,6.1,2.5l4.6,4.6c1.5,1.5,3.6,2.4,5.8,2.4
		h72.1L256.8,205.2L256.8,205.2z"/>
	<rect id="opacity:50" x="15" y="5" fill="#E8E766" width="241.8" height="0.4"/>
	<g>
		<rect x="132.6" y="12.6" fill="#E8E766" width="0.9" height="2.2"/>
		<polygon fill="#E8E766" points="134.9,12.6 136.1,12.6 134.8,14.2 136.1,15.8 134.8,15.8 133.6,14.2 		"/>
		<polygon fill="#E8E766" points="136.4,12.7 137.7,12.7 135.8,15 135.1,14.2 		"/>
		<polygon fill="#E8E766" points="138,12.7 139.2,12.7 137.3,15 136.7,14.2 		"/>
	</g>
	<path fill="#E8E766" d="M137.2,191.8l-1.1,1.1c-0.1,0.1-0.3,0.1-0.5,0l-1.1-1.1c-0.2-0.2-0.1-0.5,0.2-0.5h2.2
		C137.3,191.2,137.4,191.6,137.2,191.8z"/>
</g>
</svg>
