<?xml version="1.0" encoding="utf-8"?>
<!-- Generator: Adobe Illustrator 29.5.1, SVG Export Plug-In . SVG Version: 9.03 Build 0)  -->
<svg version="1.1" baseProfile="tiny" id="Layer_1" xmlns="http://www.w3.org/2000/svg" xmlns:xlink="http://www.w3.org/1999/xlink"
	 x="0px" y="0px" viewBox="0 0 3816.1 2949.7" overflow="visible" xml:space="preserve">
<g id="BG" display="none">
	<rect y="-0.1" display="inline" fill="#2D2828" width="3816.1" height="2949.8"/>
</g>
<g id="opacity:100">
	<path id="_x3C_Compound_Path_x3E_opacity:100_00000060726108536307068890000017996591929840348824_" fill="#E8E766" d="
		M221.7,2809.9h3.4l-8.5,9.3l8.5,9.3h-3.4l-7.3-8.1h-0.3v8.1h-2.5v-18.6h2.5v8.1h0.3L221.7,2809.9z"/>
	<path id="_x3C_Compound_Path_x3E_opacity:100_00000100367558966933654070000009811241926180406403_" fill="#E8E766" d="
		M229.4,2828.6V2810h2.5v16.2h8.7v2.4L229.4,2828.6L229.4,2828.6z"/>
	<path id="_x3C_Compound_Path_x3E_opacity:100_00000143610349360468813370000015980312493728151176_" fill="#E8E766" d="
		M257.8,2828.6l-1.4-4.2h-8.1l-1.4,4.2h-2.7l6.5-18.6h3.4l6.5,18.6H257.8z M252.3,2812.6l-3.2,9.5h6.5L252.3,2812.6z"/>
	<path id="_x3C_Compound_Path_x3E_opacity:100_00000000188968060377061150000002586652741359517829_" fill="#E8E766" d="M277.4,2826
		c-0.4,0.6-1.6,1.8-2.2,2.2c-0.5,0.3-1.2,0.5-1.8,0.5h-4.2c-0.6,0-1.3-0.2-1.8-0.5c-0.6-0.4-1.9-1.6-2.2-2.2
		c-0.3-0.5-0.5-1.1-0.5-1.6v-14.5h2.5v14.4c0,0.5,1.4,1.7,1.9,1.9c0.1,0,0.1,0.1,0.2,0.1h3.9c0.1,0,0.2,0,0.3-0.1
		c0.5-0.2,1.8-1.5,1.8-1.9v-14.4h2.5v14.5C277.8,2825,277.7,2825.5,277.4,2826z"/>
	<path id="_x3C_Compound_Path_x3E_opacity:100_00000113354135716882520320000009391642871754871202_" fill="#E8E766" d="M296.9,2826
		c-0.4,0.6-1.7,1.8-2.3,2.2c-0.5,0.3-1.2,0.5-1.8,0.5h-5.2c-1.6,0-3-1.4-3.9-2.5c-0.2-0.3-0.5-0.8-0.8-1.6l2.5-0.7
		c0.1,0.3,0.3,0.6,0.3,0.6c0.4,0.7,1.3,1.5,1.8,1.7c0.1,0.1,0.2,0.1,0.3,0.1h5c0.1,0,0.2,0,0.2-0.1c0.5-0.2,1.8-1.4,1.8-1.9v-1.9
		c0-0.5-0.3-1-0.7-1.1l-8.4-2.2c-1.4-0.4-2.2-1.8-2.2-3.2v-1.9c0-0.5,0.1-1.2,0.4-1.6c0.4-0.6,1.6-1.8,2.3-2.2
		c0.5-0.3,1.2-0.5,1.8-0.5h4.6c1.6,0,2.9,1.4,3.8,2.5c0.2,0.3,0.5,0.8,0.9,1.6l-2.5,0.7c-0.2-0.5-0.3-0.6-0.3-0.6
		c-0.3-0.7-1.3-1.5-1.8-1.7c0,0-0.1,0-0.2,0h-4.3c-0.1,0-0.2,0-0.3,0.1c-0.5,0.2-1.8,1.4-1.8,1.9v1.8c0,0.5,0.3,0.9,0.7,1l8.4,2.2
		c1.4,0.4,2.3,1.7,2.3,3.1v2.1C297.3,2824.9,297.3,2825.5,296.9,2826z"/>
	<path id="_x3C_Compound_Path_x3E_opacity:100_00000055690365335133970710000014424422891673972649_" fill="#E8E766" d="
		M324.8,2822.4v2.3c0,0.6-0.2,1.2-0.5,1.7c-0.2,0.4-1.2,1.3-1.6,1.6c-0.6,0.4-1.4,0.7-2.1,0.7h-4.7c-0.7,0-1.5-0.2-2-0.7
		c-0.4-0.3-1.4-1.3-1.6-1.6c-0.3-0.5-0.5-1.1-0.5-1.7v-2.7c0-1.3,0.7-1.9,1.5-2.8c-0.9-0.8-1.5-1.5-1.5-2.8v-2.5
		c0-0.6,0.2-1.3,0.5-1.8c0.2-0.4,1.2-1.3,1.6-1.6c0.6-0.4,1.3-0.7,2-0.7h3.2c1.7,0,2.9,1.4,3.8,2.6c0.2,0.3,0.5,0.8,0.9,1.6
		l-2.5,0.6c-0.2-0.3-0.3-0.6-0.3-0.6c-0.3-0.7-1.2-1.5-1.7-1.7c-0.1,0-0.2-0.1-0.3-0.1h-3.1c-0.6,0-1.4,1-1.6,1.4
		c0,0.1-0.1,0.2-0.1,0.3v2.3c0,0.2,0,0.3,0.1,0.3c0.2,0.4,1.1,1.4,1.6,1.4h3.4v2.4h-3.4c-0.5,0-1.4,0.9-1.6,1.3
		c0,0.1-0.1,0.2-0.1,0.3v2.6c0,0.2,0,0.2,0.1,0.3c0.2,0.4,1.1,1.4,1.6,1.4h4.7c0.6,0,1.5-0.9,1.7-1.4c0-0.1,0.1-0.2,0.1-0.3v-4.7
		h3.5v2.5L324.8,2822.4L324.8,2822.4z"/>
	<path id="_x3C_Compound_Path_x3E_opacity:100_00000123426993288483381230000012104828413407749264_" fill="#E8E766" d="
		M355.7,2828.6h-3.2l-3.3-14.5l-3.4,14.5h-3.2l-4.3-18.6h2.6l3.3,15.2l3.4-15.2h2.9l3.5,15.2l3.3-15.2h2.6L355.7,2828.6z"/>
	<path id="_x3C_Compound_Path_x3E_opacity:100_00000152959557322941694510000017760675382413020551_" fill="#E8E766" d="
		M364.3,2828.6V2810h11.4v2.4h-8.9v5.7h8.4v2.4h-8.4v5.7h8.9v2.4L364.3,2828.6L364.3,2828.6z"/>
	<path id="_x3C_Compound_Path_x3E_opacity:100_00000082353803555050903210000004248062896438031748_" fill="#E8E766" d="
		M392.9,2828.6l-4.4-7.8h-4.3v7.8h-2.5V2810h8.8c0.7,0,1.5,0.2,2.1,0.6c0.4,0.3,1.4,1.3,1.6,1.6c0.3,0.5,0.5,1.2,0.5,1.8v2.8
		c0,0.6-0.2,1.2-0.5,1.7c-0.2,0.4-1.2,1.3-1.6,1.6s-1,0.5-1.4,0.6l4.5,7.8L392.9,2828.6L392.9,2828.6z M392.2,2814.1
		c0-0.1,0-0.3,0-0.3c-0.2-0.3-1.1-1.3-1.5-1.4c-0.1,0-0.1,0-0.2,0h-6.2v6h6.2c0.5,0,1.5-0.9,1.7-1.3c0-0.1,0-0.3,0-0.3V2814.1z"/>
	<path id="_x3C_Compound_Path_x3E_opacity:100_00000145028983026967459820000003738099937238417542_" fill="#E8E766" d="
		M411.5,2828.6l-7.8-14.2v14.2h-2.5V2810h3l7.8,14.4V2810h2.5v18.6H411.5z"/>
	<path id="_x3C_Compound_Path_x3E_opacity:100_00000014626026283379767150000007854659227990403764_" fill="#E8E766" d="
		M420.4,2828.6V2810h11.4v2.4H423v5.7h8.4v2.4H423v5.7h8.9v2.4L420.4,2828.6L420.4,2828.6z"/>
	<path id="_x3C_Compound_Path_x3E_opacity:100" fill="#E8E766" d="M449.1,2828.6l-4.4-7.8h-4.3v7.8h-2.5V2810h8.8
		c0.7,0,1.5,0.2,2.1,0.6c0.4,0.3,1.4,1.3,1.6,1.6c0.3,0.5,0.5,1.2,0.5,1.8v2.8c0,0.6-0.2,1.2-0.5,1.7c-0.2,0.4-1.2,1.3-1.6,1.6
		s-1,0.5-1.4,0.6l4.5,7.8L449.1,2828.6L449.1,2828.6z M448.3,2814.1c0-0.1,0-0.3,0-0.3c-0.2-0.3-1.1-1.3-1.5-1.4c-0.1,0-0.1,0-0.2,0
		h-6.2v6h6.2c0.5,0,1.5-0.9,1.7-1.3c0-0.1,0-0.3,0-0.3V2814.1z"/>
</g>
<g id="opacity:20_00000150070706957660184650000003642476774259661995_">
	<path id="_x3C_Compound_Path_x3E_opacity:20_00000086668307160926614260000011916911769471775662_" fill="#E8E766" d="
		M2595.4,2778.9c-0.2,0.4-1,1.1-1.4,1.4c-0.3,0.2-0.7,0.3-1.1,0.3h-3.3c-1,0-1.9-0.9-2.4-1.6c-0.2-0.2-0.3-0.5-0.5-1l1.6-0.4
		c0.1,0.2,0.2,0.4,0.2,0.4c0.2,0.5,0.8,0.9,1.1,1.1c0.1,0,0.1,0,0.2,0h3.2c0.1,0,0.1,0,0.2,0c0.3-0.2,1.1-0.9,1.1-1.2v-1.2
		c0-0.3-0.2-0.6-0.5-0.7l-5.4-1.4c-0.9-0.2-1.4-1.1-1.4-2v-1.2c0-0.3,0.1-0.7,0.3-1c0.2-0.4,1.1-1.2,1.4-1.4
		c0.3-0.2,0.8-0.3,1.1-0.3h2.9c1,0,1.9,0.9,2.4,1.6c0.2,0.2,0.3,0.5,0.6,1l-1.6,0.5c-0.2-0.3-0.2-0.4-0.2-0.4
		c-0.2-0.4-0.8-0.9-1.1-1.1h-0.1h-2.7c-0.1,0-0.1,0-0.2,0c-0.3,0.1-1.2,0.9-1.2,1.2v1.1c0,0.3,0.2,0.6,0.4,0.6l5.3,1.4
		c0.9,0.2,1.4,1.1,1.4,2v1.3C2595.7,2778.2,2595.6,2778.6,2595.4,2778.9z"/>
	<path id="_x3C_Compound_Path_x3E_opacity:20_00000083070732957425146050000000811875583901082024_" fill="#E8E766" d="
		M2603.5,2775.5v5h-1.6v-5l-4-6.8h1.8l3,5.2l3-5.2h1.8L2603.5,2775.5z"/>
	<path id="_x3C_Compound_Path_x3E_opacity:20_00000152263505030434363210000014356498228193351854_" fill="#E8E766" d="
		M2618.4,2778.9c-0.2,0.4-1,1.1-1.4,1.4c-0.3,0.2-0.7,0.3-1.1,0.3h-3.3c-1,0-1.9-0.9-2.4-1.6c-0.2-0.2-0.3-0.5-0.5-1l1.6-0.4
		c0.1,0.2,0.2,0.4,0.2,0.4c0.2,0.5,0.8,0.9,1.1,1.1c0.1,0,0.1,0,0.2,0h3.2c0.1,0,0.1,0,0.2,0c0.3-0.2,1.1-0.9,1.1-1.2v-1.2
		c0-0.3-0.2-0.6-0.5-0.7l-5.4-1.4c-0.9-0.2-1.4-1.1-1.4-2v-1.2c0-0.3,0.1-0.7,0.3-1c0.2-0.4,1.1-1.2,1.4-1.4
		c0.3-0.2,0.8-0.3,1.1-0.3h2.9c1,0,1.9,0.9,2.4,1.6c0.2,0.2,0.3,0.5,0.6,1l-1.6,0.5c-0.2-0.3-0.2-0.4-0.2-0.4
		c-0.2-0.4-0.8-0.9-1.1-1.1h-0.1h-2.7c-0.1,0-0.1,0-0.2,0c-0.3,0.1-1.2,0.9-1.2,1.2v1.1c0,0.3,0.2,0.6,0.4,0.6l5.3,1.4
		c0.9,0.2,1.4,1.1,1.4,2v1.3C2618.7,2778.2,2618.6,2778.6,2618.4,2778.9z"/>
	<path id="_x3C_Compound_Path_x3E_opacity:20_00000068652705425551425420000001154446868483134121_" fill="#E8E766" d="
		M2626.5,2770.2v10.3h-1.6v-10.3h-3.4v-1.5h8.3v1.5H2626.5z"/>
	<path id="_x3C_Compound_Path_x3E_opacity:20_00000026881267224522510090000015439487799182865322_" fill="#E8E766" d="
		M2633.1,2780.5v-11.8h7.3v1.5h-5.6v3.6h5.3v1.5h-5.3v3.6h5.6v1.5L2633.1,2780.5L2633.1,2780.5z"/>
	<path id="_x3C_Compound_Path_x3E_opacity:20_00000169536299867719307860000016842213458309245328_" fill="#E8E766" d="
		M2652.9,2780.5v-9.4l-3.1,6.3h-1.1l-3.1-6.3v9.4h-1.6v-11.8h2l3.2,6.5l3.2-6.5h2v11.8H2652.9z"/>
	<path id="_x3C_Compound_Path_x3E_opacity:20_00000166652626610205166660000008739976443746576028_" fill="#E8E766" d="
		M2672.3,2778.9c-0.2,0.4-1,1.1-1.4,1.4c-0.3,0.2-0.7,0.3-1.1,0.3h-3.3c-1,0-1.9-0.9-2.4-1.6c-0.2-0.2-0.3-0.5-0.5-1l1.6-0.4
		c0.1,0.2,0.2,0.4,0.2,0.4c0.2,0.5,0.8,0.9,1.1,1.1c0.1,0,0.1,0,0.2,0h3.2c0.1,0,0.1,0,0.2,0c0.3-0.2,1.1-0.9,1.1-1.2v-1.2
		c0-0.3-0.2-0.6-0.5-0.7l-5.4-1.4c-0.9-0.2-1.4-1.1-1.4-2v-1.2c0-0.3,0.1-0.7,0.3-1c0.2-0.4,1.1-1.2,1.4-1.4
		c0.3-0.2,0.8-0.3,1.1-0.3h2.9c1,0,1.9,0.9,2.4,1.6c0.2,0.2,0.3,0.5,0.6,1l-1.6,0.5c-0.2-0.3-0.2-0.4-0.2-0.4
		c-0.2-0.4-0.8-0.9-1.1-1.1h-0.1h-2.7c-0.1,0-0.1,0-0.2,0c-0.3,0.1-1.2,0.9-1.2,1.2v1.1c0,0.3,0.2,0.6,0.4,0.6l5.3,1.4
		c0.9,0.2,1.4,1.1,1.4,2v1.3C2672.6,2778.2,2672.5,2778.6,2672.3,2778.9z"/>
	<path id="_x3C_Compound_Path_x3E_opacity:20_00000142879302120733655010000012306879721273836212_" fill="#E8E766" d="
		M2680.4,2770.2v10.3h-1.6v-10.3h-3.4v-1.5h8.4v1.5H2680.4z"/>
	<path id="_x3C_Compound_Path_x3E_opacity:20_00000035512920416676868850000004445483019473973153_" fill="#E8E766" d="
		M2693.4,2780.5l-0.9-2.6h-5.1l-0.9,2.6h-1.7l4.1-11.8h2.1l4.1,11.8H2693.4z M2690,2770.4l-2,6h4.1L2690,2770.4z"/>
	<path id="_x3C_Compound_Path_x3E_opacity:20_00000038377762158549125950000012059119246185837485_" fill="#E8E766" d="
		M2701.1,2770.2v10.3h-1.6v-10.3h-3.4v-1.5h8.4v1.5H2701.1z"/>
	<path id="_x3C_Compound_Path_x3E_opacity:20_00000171686360702142186660000012315357218489928631_" fill="#E8E766" d="
		M2715.6,2778.9c-0.2,0.4-1,1.1-1.4,1.4c-0.3,0.2-0.8,0.3-1.1,0.3h-2.6c-0.4,0-0.8-0.2-1.1-0.3c-0.4-0.2-1.2-1-1.4-1.4
		c-0.2-0.3-0.3-0.7-0.3-1v-9.2h1.6v9.2c0,0.3,0.9,1.1,1.2,1.2c0,0,0.1,0,0.2,0h2.5c0.1,0,0.1,0,0.2,0c0.3-0.1,1.1-0.9,1.1-1.2v-9.2
		h1.6v9.2C2715.8,2778.2,2715.8,2778.6,2715.6,2778.9z"/>
	<path id="_x3C_Compound_Path_x3E_opacity:20_00000164500300411185860960000014935025880004777908_" fill="#E8E766" d="
		M2727.9,2778.9c-0.2,0.4-1,1.1-1.4,1.4c-0.3,0.2-0.7,0.3-1.1,0.3h-3.3c-1,0-1.9-0.9-2.4-1.6c-0.2-0.2-0.3-0.5-0.5-1l1.6-0.4
		c0.1,0.2,0.2,0.4,0.2,0.4c0.2,0.5,0.8,0.9,1.1,1.1c0.1,0,0.1,0,0.2,0h3.2c0.1,0,0.1,0,0.2,0c0.3-0.2,1.1-0.9,1.1-1.2v-1.2
		c0-0.3-0.2-0.6-0.5-0.7l-5.4-1.4c-0.9-0.2-1.4-1.1-1.4-2v-1.2c0-0.3,0.1-0.7,0.3-1c0.2-0.4,1.1-1.2,1.4-1.4
		c0.3-0.2,0.8-0.3,1.1-0.3h2.9c1,0,1.9,0.9,2.4,1.6c0.2,0.2,0.3,0.5,0.6,1l-1.6,0.5c-0.2-0.3-0.2-0.4-0.2-0.4
		c-0.2-0.4-0.8-0.9-1.1-1.1h-0.1h-2.7c-0.1,0-0.1,0-0.2,0c-0.3,0.1-1.2,0.9-1.2,1.2v1.1c0,0.3,0.2,0.6,0.4,0.6l5.3,1.4
		c0.9,0.2,1.4,1.1,1.4,2v1.3C2728.2,2778.2,2728.2,2778.6,2727.9,2778.9z"/>
</g>
<g id="opacity:20_00000075134084106031351390000009480773000111280829_">
	<path id="_x3C_Compound_Path_x3E_opacity:20_00000147192801997844443990000004614902126348577945_" fill="#E8E766" d="
		M2590.2,2795.7h-1.3l-2.1-5.9h1.2l1.5,4.6l1.5-4.6h1.1L2590.2,2795.7z"/>
	<path id="_x3C_Compound_Path_x3E_opacity:20_00000065061639108149741150000013094739447923943578_" fill="#E8E766" d="
		M2598.4,2791.5l-2.9,1.5c-0.2,0.1-0.3,0.3-0.3,0.5v1.2h4.1v1.1h-5.2v-2.3c0-0.6,0.4-1.1,1-1.4l2.9-1.5c0.2-0.1,0.3-0.3,0.3-0.5
		v-0.9c0-0.1,0-0.1,0-0.2c-0.1-0.2-0.5-0.6-0.7-0.6h-1.5c-0.1,0-0.1,0-0.2,0c-0.2,0.1-0.6,0.4-0.7,0.7c0,0,0,0.1-0.1,0.3l-1.1-0.3
		c0.2-0.4,0.3-0.5,0.4-0.7c0.4-0.5,1-1.1,1.7-1.1h1.5c0.3,0,0.7,0.1,0.9,0.3c0.2,0.1,0.6,0.6,0.7,0.7c0.2,0.2,0.2,0.5,0.2,0.8v0.9
		C2599.4,2790.7,2598.9,2791.2,2598.4,2791.5z"/>
	<path id="_x3C_Compound_Path_x3E_opacity:20_00000111162895577399046020000015163474590343025842_" fill="#E8E766" d="M2602,2795.7
		v-1.4h1.4v1.4H2602z"/>
	<path id="_x3C_Compound_Path_x3E_opacity:20_00000054959239953547483280000006615440510334217136_" fill="#E8E766" d="
		M2611.3,2794.7c-0.1,0.2-0.5,0.6-0.7,0.7c-0.2,0.2-0.6,0.3-0.9,0.3h-1.9c-0.3,0-0.7-0.1-0.9-0.3c-0.2-0.1-0.6-0.6-0.7-0.7
		c-0.2-0.2-0.2-0.5-0.2-0.8v-4.8c0-0.3,0.1-0.5,0.2-0.8c0.1-0.2,0.5-0.6,0.7-0.7c0.2-0.2,0.6-0.3,0.9-0.3h1.9c0.3,0,0.7,0.1,0.9,0.3
		c0.2,0.1,0.6,0.6,0.7,0.7c0.2,0.2,0.2,0.5,0.2,0.8v4.8C2611.6,2794.2,2611.5,2794.5,2611.3,2794.7z M2610.4,2789.2
		c0-0.1,0-0.1,0-0.2c-0.1-0.2-0.5-0.6-0.7-0.6h-1.8c-0.3,0-0.6,0.4-0.7,0.6c0,0,0,0.1,0,0.2v4.7v0.1c0.1,0.2,0.5,0.6,0.7,0.6h1.8
		c0.3,0,0.6-0.4,0.7-0.6v-0.1V2789.2z"/>
	<path id="_x3C_Compound_Path_x3E_opacity:20_00000011028455200486395160000013516762008565460664_" fill="#E8E766" d="
		M2618.9,2794.7c-0.1,0.2-0.5,0.6-0.7,0.7c-0.2,0.2-0.6,0.3-0.9,0.3h-1.7c-0.3,0-0.7-0.1-0.9-0.3c-0.2-0.1-0.6-0.6-0.7-0.7
		c-0.2-0.2-0.2-0.5-0.2-0.8v-1.2c0-0.6,0.3-0.9,0.7-1.2c-0.4-0.4-0.7-0.7-0.7-1.2v-1.1c0-0.3,0.1-0.5,0.2-0.8
		c0.1-0.2,0.5-0.6,0.7-0.7c0.2-0.2,0.6-0.3,0.9-0.3h1.7c0.3,0,0.7,0.1,0.9,0.3c0.2,0.1,0.6,0.6,0.7,0.7c0.2,0.2,0.2,0.5,0.2,0.8v1.1
		c0,0.6-0.3,0.9-0.7,1.2c0.4,0.4,0.7,0.7,0.7,1.2v1.2C2619.1,2794.2,2619,2794.5,2618.9,2794.7z M2618,2789.2c0-0.1,0-0.1,0-0.2
		c-0.1-0.2-0.5-0.6-0.7-0.6h-1.7c-0.3,0-0.6,0.4-0.7,0.6c0,0,0,0.1,0,0.2v1c0,0.1,0,0.1,0,0.2c0.1,0.2,0.5,0.6,0.6,0.6
		c0,0,0.1,0,1.8,0c0.2,0,0.6-0.4,0.7-0.6c0,0,0-0.1,0-0.2L2618,2789.2L2618,2789.2z M2618,2792.8c0-0.1,0-0.1,0-0.1
		c-0.1-0.2-0.5-0.6-0.7-0.6h-1.7c-0.3,0-0.6,0.4-0.7,0.6v0.1v1.2c0,0.1,0,0.1,0,0.1c0.1,0.2,0.5,0.6,0.7,0.6h1.7
		c0.2,0,0.6-0.4,0.7-0.6v-0.1V2792.8z"/>
</g>
<path id="opacity:10_00000038398369979737128040000002516658078061191852_" fill="#E8E766" d="M2891.4,2840.4h-299.2
	c-3.1,0-5.7-2.5-5.7-5.7v-15.5c0-3.1,2.5-5.7,5.7-5.7h299.2c3.1,0,5.7,2.5,5.7,5.7v15.5C2897,2837.8,2894.5,2840.4,2891.4,2840.4z"
	/>
<path id="opacity:10_00000075854240925000974010000017178438172954438801_" fill="#E8E766" d="M3317.7,2840.4h-175
	c-3.1,0-5.7-2.5-5.7-5.7v-15.5c0-3.1,2.5-5.7,5.7-5.7h175c3.1,0,5.7,2.5,5.7,5.7v15.5C3323.4,2837.8,3320.8,2840.4,3317.7,2840.4z"
	/>
<path id="opacity:10_00000168831719320573904210000000481858144471617702_" fill="#E8E766" d="M3595.5,2840.4h-241.6
	c-3.1,0-5.7-2.5-5.7-5.7v-15.5c0-3.1,2.5-5.7,5.7-5.7h241.6c3.1,0,5.7,2.5,5.7,5.7v15.5C3601.2,2837.8,3598.7,2840.4,3595.5,2840.4z
	"/>
<g id="opacity:50_00000119098504112238410480000004312056703837692804_">
	<path id="_x3C_Compound_Path_x3E_opacity:50_00000127732860321658100010000002130370195829701769_" fill="#E8E766" d="
		M2939.5,2831.6c-0.2,0.4-1.1,1.2-1.5,1.4c-0.3,0.2-0.8,0.3-1.2,0.3h-3.4c-1.1,0-1.9-0.9-2.5-1.6c-0.2-0.2-0.3-0.5-0.5-1.1l1.6-0.4
		c0.1,0.2,0.2,0.4,0.2,0.4c0.3,0.5,0.9,1,1.2,1.1c0.1,0,0.2,0,0.2,0h3.2c0.1,0,0.1,0,0.2,0c0.3-0.2,1.2-0.9,1.2-1.2v-1.2
		c0-0.3-0.2-0.6-0.5-0.7l-5.5-1.4c-0.9-0.2-1.4-1.2-1.4-2.1v-1.2c0-0.3,0.1-0.8,0.3-1.1c0.2-0.4,1.1-1.2,1.5-1.5
		c0.3-0.2,0.8-0.3,1.2-0.3h3c1.1,0,1.9,0.9,2.5,1.6c0.2,0.2,0.3,0.5,0.6,1l-1.6,0.5c-0.2-0.3-0.2-0.4-0.2-0.4
		c-0.2-0.4-0.9-1-1.2-1.1c0,0-0.1,0-0.2,0h-2.8c-0.1,0-0.1,0-0.2,0c-0.3,0.1-1.2,0.9-1.2,1.2v1.2c0,0.3,0.2,0.6,0.4,0.6l5.5,1.5
		c0.9,0.2,1.5,1.1,1.5,2v1.4C2939.8,2830.9,2939.7,2831.3,2939.5,2831.6z"/>
	<path id="_x3C_Compound_Path_x3E_opacity:50_00000024002217077718474610000000959233104651945344_" fill="#E8E766" d="
		M2951.4,2831.8c-0.6,0.7-1.5,1.6-2.5,1.6h-2.7c-0.4,0-0.8-0.2-1.2-0.3c-0.4-0.2-1.2-1.1-1.5-1.4c-0.2-0.3-0.3-0.7-0.3-1.1v-6.7
		c0-0.4,0.1-0.7,0.3-1.1c0.2-0.4,1.1-1.2,1.5-1.5c0.3-0.2,0.8-0.3,1.2-0.3h2.7c1.1,0,1.9,0.9,2.5,1.6c0.2,0.2,0.3,0.5,0.6,1
		l-1.6,0.5c-0.2-0.6-0.9-1.3-1.3-1.5c0,0-0.1,0-0.2,0h-2.6c-0.1,0-0.1,0-0.2,0c-0.3,0.1-0.9,0.7-1.1,1.1c0,0.1,0,0.2,0,0.3v6.6
		c0,0.3,0.8,1.1,1.2,1.2c0,0,0.1,0,0.2,0h2.6c0.1,0,0.2,0,0.2,0c0.4-0.2,1.1-0.9,1.3-1.5l1.6,0.4
		C2951.8,2831.1,2951.6,2831.5,2951.4,2831.8z"/>
	<path id="_x3C_Compound_Path_x3E_opacity:50_00000167368933652414974560000010213151874986034859_" fill="#E8E766" d="M2964,2831.6
		c-0.2,0.4-1.1,1.2-1.5,1.4c-0.3,0.2-0.8,0.3-1.2,0.3h-3.2c-0.4,0-0.8-0.2-1.2-0.3c-0.4-0.2-1.2-1.1-1.5-1.4
		c-0.2-0.3-0.3-0.7-0.3-1.1v-6.7c0-0.3,0.1-0.8,0.3-1.1c0.2-0.4,1.1-1.2,1.5-1.5c0.3-0.2,0.8-0.3,1.2-0.3h3.2c0.4,0,0.9,0.2,1.2,0.3
		c0.4,0.2,1.2,1.1,1.5,1.5c0.2,0.3,0.3,0.7,0.3,1.1v6.7C2964.3,2830.9,2964.2,2831.3,2964,2831.6z M2962.7,2823.9c0-0.1,0-0.1,0-0.2
		c-0.2-0.4-0.8-1-1.1-1.1c0,0-0.1,0-0.2,0h-3c-0.1,0-0.2,0-0.2,0c-0.3,0.2-1.2,0.9-1.2,1.3v6.6c0,0.3,0.9,1.1,1.2,1.2
		c0,0,0.1,0,0.2,0h3c0.1,0,0.2,0,0.2,0c0.3-0.2,1.2-0.9,1.2-1.2L2962.7,2823.9L2962.7,2823.9z"/>
	<path id="_x3C_Compound_Path_x3E_opacity:50_00000133495045763213026250000008747588556539507130_" fill="#E8E766" d="
		M2976.3,2826.7c-0.2,0.2-0.8,0.9-1.1,1.1c-0.4,0.3-0.9,0.4-1.3,0.4h-4.1v5.1h-1.7v-12.2h5.7c0.5,0,1,0.2,1.4,0.4
		c0.3,0.2,0.9,0.8,1.1,1.1c0.2,0.3,0.3,0.8,0.3,1.2v1.8C2976.6,2826,2976.5,2826.4,2976.3,2826.7z M2974.9,2823.8c0-0.1,0-0.2,0-0.2
		c-0.1-0.2-0.7-0.8-1-0.9h-0.1h-4v3.9h4c0.4,0,0.9-0.5,1.1-0.8c0-0.1,0.1-0.2,0.1-0.3v-1.7H2974.9z"/>
	<path id="_x3C_Compound_Path_x3E_opacity:50_00000066485997540381792980000007337389560764277436_" fill="#E8E766" d="M2980,2833.3
		v-12.2h7.5v1.6h-5.8v3.7h5.5v1.6h-5.5v3.7h5.8v1.6L2980,2833.3L2980,2833.3z"/>
	<path id="_x3C_Compound_Path_x3E_opacity:50_00000161620320898039138580000014247131836023354752_" fill="#E8E766" d="M2991,2835.1
		v-1.5h7.9v1.5H2991z"/>
	<path id="_x3C_Compound_Path_x3E_opacity:50_00000012472021729782819870000011136637509643781771_" fill="#E8E766" d="
		M3010.8,2833.3v-9.7l-3.2,6.6h-1.1l-3.2-6.6v9.7h-1.6v-12.2h2.1l3.3,6.7l3.3-6.7h2.1v12.2H3010.8z"/>
	<path id="_x3C_Compound_Path_x3E_opacity:50_00000050623662927111610880000009576495666495700387_" fill="#E8E766" d="M3025,2831.6
		c-0.2,0.4-1.1,1.2-1.5,1.4c-0.3,0.2-0.8,0.3-1.2,0.3h-3.2c-0.4,0-0.8-0.2-1.2-0.3c-0.4-0.2-1.2-1.1-1.5-1.4
		c-0.2-0.3-0.3-0.7-0.3-1.1v-6.7c0-0.3,0.1-0.8,0.3-1.1c0.2-0.4,1.1-1.2,1.5-1.5c0.3-0.2,0.8-0.3,1.2-0.3h3.2c0.4,0,0.8,0.2,1.2,0.3
		c0.4,0.2,1.2,1.1,1.5,1.5c0.2,0.3,0.3,0.7,0.3,1.1v6.7C3025.3,2830.9,3025.3,2831.3,3025,2831.6z M3023.7,2823.9c0-0.1,0-0.1,0-0.2
		c-0.2-0.4-0.8-1-1.1-1.1c0,0-0.1,0-0.2,0h-3c-0.1,0-0.2,0-0.2,0c-0.3,0.2-1.2,0.9-1.2,1.3v6.6c0,0.3,0.9,1.1,1.2,1.2
		c0,0,0.1,0,0.2,0h3c0.1,0,0.2,0,0.2,0c0.3-0.2,1.2-0.9,1.2-1.2L3023.7,2823.9L3023.7,2823.9z"/>
	<path id="_x3C_Compound_Path_x3E_opacity:50_00000042015466871874019550000001601590120143981232_" fill="#E8E766" d="
		M3037.3,2831.5c-0.2,0.4-1.1,1.2-1.5,1.4c-0.3,0.2-0.8,0.3-1.2,0.3h-5.6V2821h5.6c0.4,0,0.8,0.1,1.2,0.3s1.2,1.1,1.5,1.5
		c0.2,0.3,0.3,0.7,0.3,1.1v6.5C3037.6,2830.8,3037.6,2831.2,3037.3,2831.5z M3036,2824c0-0.1,0-0.1,0-0.2c-0.2-0.4-0.9-1-1.2-1.1
		c0,0-0.1,0-0.2,0h-3.8v9h3.8c0.1,0,0.1,0,0.2,0c0.3-0.2,1.2-0.9,1.2-1.3V2824z"/>
	<path id="_x3C_Compound_Path_x3E_opacity:50_00000085233837510631999290000012599631165468165784_" fill="#E8E766" d="
		M3041.5,2833.3v-12.2h7.5v1.6h-5.8v3.7h5.5v1.6h-5.5v3.7h5.8v1.6L3041.5,2833.3L3041.5,2833.3z"/>
	<path id="_x3C_Compound_Path_x3E_opacity:50_00000003064885237826519620000013572360744145867199_" fill="#E8E766" d="
		M3053.1,2827.9v-2.2h2.1v2.2H3053.1z M3053.1,2833.3v-2.2h2.1v2.2H3053.1z"/>
	<path id="_x3C_Compound_Path_x3E_opacity:50_00000101102622909820572690000015173425202870716069_" fill="#E8E766" d="
		M3063.9,2822.7v10.6h-1.7v-10.6h-3.5v-1.6h8.6v1.6H3063.9z"/>
	<path id="_x3C_Compound_Path_x3E_opacity:50_00000181082248015664238010000015265308440704424076_" fill="#E8E766" d="M3078,2833.3
		l-2.9-5.1h-2.8v5.1h-1.7v-12.2h5.7c0.5,0,1,0.2,1.4,0.4c0.3,0.2,0.9,0.8,1.1,1.1c0.2,0.3,0.3,0.8,0.3,1.2v1.8
		c0,0.4-0.1,0.8-0.3,1.2c-0.2,0.2-0.8,0.9-1.1,1.1c-0.2,0.2-0.6,0.3-0.9,0.4l3,5.1h-1.8V2833.3z M3077.5,2823.8v-0.2
		c-0.1-0.2-0.7-0.9-1-0.9h-0.1h-4v3.9h4c0.4,0,1-0.6,1.1-0.9v-0.2V2823.8z"/>
	<path id="_x3C_Compound_Path_x3E_opacity:50_00000153699901927477670570000012996697422626118029_" fill="#E8E766" d="
		M3091.5,2831.6c-0.2,0.4-1.1,1.2-1.5,1.4c-0.3,0.2-0.8,0.3-1.2,0.3h-2.7c-0.4,0-0.9-0.2-1.2-0.3c-0.4-0.2-1.2-1.1-1.5-1.4
		c-0.2-0.3-0.3-0.7-0.3-1.1v-9.5h1.7v9.4c0,0.3,0.9,1.1,1.2,1.2c0,0,0.1,0,0.2,0h2.5c0.1,0,0.2,0,0.2,0c0.3-0.2,1.2-1,1.2-1.2v-9.4
		h1.7v9.5C3091.8,2830.9,3091.7,2831.3,3091.5,2831.6z"/>
	<path id="_x3C_Compound_Path_x3E_opacity:50_00000168796803981131573310000016551932174982147773_" fill="#E8E766" d="
		M3095.5,2833.3v-12.2h7.5v1.6h-5.8v3.7h5.5v1.6h-5.5v3.7h5.8v1.6L3095.5,2833.3L3095.5,2833.3z"/>
</g>
<g id="opacity:50_00000023245945397978291620000018362650257020032688_">
	<path id="_x3C_Compound_Path_x3E_opacity:50_00000039850426687384771700000009021464378811500201_" fill="#E8E766" d="
		M3158.9,2833.3h-2.1l-2.2-9.5l-2.2,9.5h-2.1l-2.8-12.2h1.7l2.1,10l2.2-10h1.9l2.3,10l2.1-10h1.7L3158.9,2833.3z"/>
	<path id="_x3C_Compound_Path_x3E_opacity:50_00000160889016681857272050000008632051357378925482_" fill="#E8E766" d="
		M3164.7,2833.3v-12.2h1.7v12.2H3164.7z"/>
	<path id="_x3C_Compound_Path_x3E_opacity:50_00000107563613024698893250000003157452248159023000_" fill="#E8E766" d="
		M3177.1,2833.3l-5.1-9.3v9.3h-1.6v-12.2h2l5.1,9.4v-9.4h1.6v12.2H3177.1z"/>
	<path id="_x3C_Compound_Path_x3E_opacity:50_00000130634056735106735520000009186975787712556928_" fill="#E8E766" d="
		M3191.1,2831.5c-0.2,0.4-1.1,1.2-1.5,1.4c-0.3,0.2-0.8,0.3-1.2,0.3h-5.6V2821h5.6c0.4,0,0.8,0.1,1.2,0.3s1.2,1.1,1.5,1.5
		c0.2,0.3,0.3,0.7,0.3,1.1v6.5C3191.4,2830.8,3191.4,2831.2,3191.1,2831.5z M3189.8,2824c0-0.1,0-0.1,0-0.2c-0.2-0.4-0.9-1-1.2-1.1
		c0,0-0.1,0-0.2,0h-3.8v9h3.8c0.1,0,0.1,0,0.2,0c0.3-0.2,1.2-0.9,1.2-1.3V2824z"/>
	<path id="_x3C_Compound_Path_x3E_opacity:50_00000137119518168149118880000007691662800682327953_" fill="#E8E766" d="
		M3209.1,2831.8c-0.6,0.7-1.5,1.6-2.5,1.6h-2.7c-0.4,0-0.9-0.2-1.2-0.3c-0.4-0.2-1.2-1.1-1.5-1.4c-0.2-0.3-0.3-0.7-0.3-1.1v-6.7
		c0-0.4,0.1-0.7,0.3-1.1c0.2-0.4,1.1-1.2,1.5-1.5c0.3-0.2,0.8-0.3,1.2-0.3h2.7c1.1,0,1.9,0.9,2.5,1.6c0.2,0.2,0.3,0.5,0.6,1
		l-1.6,0.5c-0.2-0.6-0.9-1.3-1.3-1.5c0,0-0.1,0-0.2,0h-2.5c-0.1,0-0.1,0-0.2,0c-0.3,0.1-0.9,0.7-1.1,1.1c0,0.1,0,0.2,0,0.3v6.6
		c0,0.3,0.8,1.1,1.2,1.2c0,0,0.1,0,0.2,0h2.5c0.1,0,0.2,0,0.2,0c0.4-0.2,1.1-0.9,1.3-1.5l1.6,0.4
		C3209.4,2831.1,3209.2,2831.5,3209.1,2831.8z"/>
	<path id="_x3C_Compound_Path_x3E_opacity:50_00000152258436264904686830000001673301263616905103_" fill="#E8E766" d="
		M3220.9,2833.3l-0.9-2.7h-5.3l-0.9,2.7h-1.8l4.2-12.2h2.2l4.2,12.2H3220.9z M3217.4,2822.8l-2.1,6.2h4.2L3217.4,2822.8z"/>
	<path id="_x3C_Compound_Path_x3E_opacity:50_00000147208070568464520060000001678290622444727459_" fill="#E8E766" d="
		M3225.4,2833.3v-12.2h1.7v10.6h5.7v1.6L3225.4,2833.3L3225.4,2833.3z"/>
	<path id="_x3C_Compound_Path_x3E_opacity:50_00000168100368178883069530000017802392190302038691_" fill="#E8E766" d="
		M3236.1,2833.3v-12.2h1.7v12.2H3236.1z"/>
	<path id="_x3C_Compound_Path_x3E_opacity:50_00000117643090029118816540000013062342019368531879_" fill="#E8E766" d="
		M3249.9,2831.8c-0.2,0.2-0.8,0.9-1.1,1.1c-0.4,0.3-0.9,0.4-1.4,0.4h-5.7v-12.2h5.7c0.5,0,1,0.2,1.4,0.5c0.3,0.2,0.9,0.8,1.1,1.1
		c0.2,0.3,0.3,0.8,0.3,1.2v1.5c0,0.9-0.4,1.3-1,1.9c0.6,0.6,1,1,1,1.9v1.7C3250.2,2831.1,3250.1,2831.5,3249.9,2831.8z
		 M3248.4,2823.8c0-0.1,0-0.2,0-0.2c-0.2-0.3-0.7-0.9-1.1-0.9h-4v3.7h4.1c0.4,0,0.9-0.6,1.1-0.9c0,0,0-0.1,0-0.2v-1.5L3248.4,2823.8
		L3248.4,2823.8z M3248.4,2829c0-0.1,0-0.2,0-0.2c-0.2-0.3-0.6-0.7-0.9-0.9c0,0-0.1,0-0.2,0h-4.1v3.8h4c0.4,0,0.9-0.6,1.1-0.9
		c0,0,0-0.1,0-0.2L3248.4,2829L3248.4,2829z"/>
	<path id="_x3C_Compound_Path_x3E_opacity:50_00000092430769147820955820000002092667548386855585_" fill="#E8E766" d="
		M3254.2,2827.9v-2.2h2.1v2.2H3254.2z M3254.2,2833.3v-2.2h2.1v2.2H3254.2z"/>
	<path id="_x3C_Compound_Path_x3E_opacity:50_00000055667315030516311950000012382801503006834065_" fill="#E8E766" d="
		M3274.1,2833.3l-0.9-2.7h-5.3l-0.9,2.7h-1.8l4.2-12.2h2.2l4.2,12.2H3274.1z M3270.4,2822.8l-2.1,6.2h4.2L3270.4,2822.8z"/>
	<path id="_x3C_Compound_Path_x3E_opacity:50_00000134961352722691286520000013641288853196854203_" fill="#E8E766" d="
		M3286.9,2831.6c-0.2,0.4-1.1,1.2-1.5,1.4c-0.3,0.2-0.8,0.3-1.2,0.3h-2.7c-0.4,0-0.9-0.2-1.2-0.3c-0.4-0.2-1.2-1.1-1.5-1.4
		c-0.2-0.3-0.3-0.7-0.3-1.1v-9.5h1.7v9.4c0,0.3,0.9,1.1,1.2,1.2c0,0,0.1,0,0.2,0h2.5c0.1,0,0.2,0,0.2,0c0.3-0.2,1.2-1,1.2-1.2v-9.4
		h1.7v9.5C3287.1,2830.9,3287.1,2831.3,3286.9,2831.6z"/>
	<path id="_x3C_Compound_Path_x3E_opacity:50_00000093145133064000331670000016157267806710849699_" fill="#E8E766" d="
		M3295.4,2822.7v10.6h-1.7v-10.6h-3.5v-1.6h8.6v1.6H3295.4z"/>
	<path id="_x3C_Compound_Path_x3E_opacity:50_00000166656668901817885340000015461177651444796827_" fill="#E8E766" d="
		M3310.8,2831.6c-0.2,0.4-1.1,1.2-1.5,1.4c-0.3,0.2-0.8,0.3-1.2,0.3h-3.2c-0.4,0-0.8-0.2-1.2-0.3c-0.4-0.2-1.2-1.1-1.5-1.4
		c-0.2-0.3-0.3-0.7-0.3-1.1v-6.7c0-0.3,0.1-0.8,0.3-1.1c0.2-0.4,1.1-1.2,1.5-1.5c0.3-0.2,0.8-0.3,1.2-0.3h3.2c0.4,0,0.9,0.2,1.2,0.3
		c0.4,0.2,1.2,1.1,1.5,1.5c0.2,0.3,0.3,0.7,0.3,1.1v6.7C3311.1,2830.9,3310.9,2831.3,3310.8,2831.6z M3309.4,2823.9
		c0-0.1,0-0.1,0-0.2c-0.2-0.4-0.8-1-1.1-1.1c0,0-0.1,0-0.2,0h-3c-0.1,0-0.2,0-0.2,0c-0.3,0.2-1.2,0.9-1.2,1.3v6.6
		c0,0.3,0.9,1.1,1.2,1.2c0,0,0.1,0,0.2,0h3c0.1,0,0.2,0,0.2,0c0.3-0.2,1.2-0.9,1.2-1.2L3309.4,2823.9L3309.4,2823.9z"/>
</g>
<polygon id="_x3C_Path_x3E_opacity:50_00000121959142344959404550000011595391215473774782_" fill="#E8E766" points="1097.5,2821 
	1097.5,2809.3 1095.6,2809.3 1095.6,2821 1083.8,2821 1083.8,2823 1095.6,2823 1095.6,2834.7 1097.5,2834.7 1097.5,2823 
	1109.2,2823 1109.2,2821 "/>
<polygon id="_x3C_Path_x3E_opacity:50_00000078759231130266878620000010118508797828653993_" fill="#E8E766" points="1162.3,2821 
	1162.3,2809.3 1160.3,2809.3 1160.3,2821 1148.6,2821 1148.6,2823 1160.3,2823 1160.3,2834.7 1162.3,2834.7 1162.3,2823 1174,2823 
	1174,2821 "/>
<polygon id="_x3C_Path_x3E_opacity:50" fill="#E8E766" points="1227.1,2821 1227.1,2809.3 1225.1,2809.3 1225.1,2821 1213.4,2821 
	1213.4,2823 1225.1,2823 1225.1,2834.7 1227.1,2834.7 1227.1,2823 1238.8,2823 1238.8,2821 "/>
<rect id="opacity:20_00000071536525223281850090000016679387143014972801_" x="2740.5" y="2774" fill="#E8E766" width="859.3" height="1.2"/>
<g id="_x3C_Group_x3E_opacity:50_00000072960127916003608970000010287552474328941759_">
	<path id="_x3C_Compound_Path_x3E_opacity:50_00000158022803072531484900000008528803323554903709_" fill="#E8E766" d="M607,2826.3
		c-0.2,0.4-1.2,1.3-1.6,1.6c-0.6,0.4-1.4,0.6-2.1,0.6h-8.7V2810h8.7c0.7,0,1.5,0.3,2.1,0.7c0.4,0.3,1.4,1.2,1.6,1.6
		c0.4,0.5,0.5,1.2,0.5,1.8v2.3c0,1.4-0.6,1.9-1.5,2.8c0.9,0.9,1.5,1.5,1.5,2.8v2.6C607.5,2825.2,607.3,2825.7,607,2826.3z
		 M605,2814.1c0-0.2,0-0.3-0.1-0.3c-0.2-0.4-1-1.4-1.6-1.4h-6.1v5.6h6.2c0.6,0,1.4-0.9,1.6-1.4c0-0.1,0.1-0.2,0.1-0.3v-2.2
		L605,2814.1L605,2814.1z M605,2822c0-0.2,0-0.2-0.1-0.3c-0.2-0.4-0.9-1.1-1.3-1.3c0,0-0.2,0-0.3,0h-6.2v5.8h6.1
		c0.6,0,1.4-0.9,1.6-1.4c0-0.1,0.1-0.2,0.1-0.3v-2.5H605z"/>
	<path id="_x3C_Compound_Path_x3E_opacity:50_00000139295920337842049610000006928560461358977457_" fill="#E8E766" d="
		M623.7,2828.6l-1.4-4.1h-8l-1.4,4.1h-2.7l6.4-18.5h3.3l6.4,18.5H623.7z M618.3,2812.6l-3.2,9.4h6.4L618.3,2812.6z"/>
	<path id="_x3C_Compound_Path_x3E_opacity:50_00000093880059812203311990000012652668510589773230_" fill="#E8E766" d="
		M640.3,2828.6l-4.4-7.7h-4.3v7.7h-2.5V2810h8.7c0.7,0,1.5,0.2,2.1,0.6c0.4,0.3,1.4,1.3,1.6,1.6c0.3,0.5,0.5,1.1,0.5,1.8v2.8
		c0,0.6-0.2,1.2-0.5,1.7c-0.2,0.4-1.2,1.3-1.6,1.6c-0.4,0.3-1,0.5-1.4,0.6l4.5,7.8L640.3,2828.6L640.3,2828.6z M639.6,2814.1
		c0-0.1,0-0.3,0-0.3c-0.2-0.3-1.1-1.3-1.5-1.4c-0.1,0-0.1,0-0.2,0h-6.1v6h6.1c0.6,0,1.5-0.9,1.7-1.3c0-0.1,0-0.3,0-0.3V2814.1z"/>
	<path id="_x3C_Compound_Path_x3E_opacity:50_00000140706739753431918990000003796345307475694263_" fill="#E8E766" d="
		M658.1,2828.6l-4.4-7.7h-4.3v7.7h-2.5V2810h8.7c0.7,0,1.5,0.2,2.1,0.6c0.4,0.3,1.4,1.3,1.6,1.6c0.3,0.5,0.5,1.1,0.5,1.8v2.8
		c0,0.6-0.2,1.2-0.5,1.7c-0.2,0.4-1.2,1.3-1.6,1.6c-0.4,0.3-1,0.5-1.4,0.6l4.5,7.8L658.1,2828.6L658.1,2828.6z M657.3,2814.1
		c0-0.1,0-0.3,0-0.3c-0.2-0.3-1.1-1.3-1.5-1.4c-0.1,0-0.1,0-0.2,0h-6.1v6h6.1c0.6,0,1.5-0.9,1.7-1.3c0-0.1,0-0.3,0-0.3V2814.1z"/>
	<path id="_x3C_Path_x3E_opacity:50_00000088833206166426654080000017940965410258824357_" fill="#E8E766" d="M664.7,2828.6V2810
		H676v2.4h-8.8v5.6h8.3v2.4h-8.3v5.6h8.8v2.4h-11.3V2828.6z"/>
	<path id="_x3C_Path_x3E_opacity:50_00000121270590813910227170000004752896407253939856_" fill="#E8E766" d="M680.4,2828.6V2810
		h2.5v16.1h8.6v2.4h-11.1V2828.6z"/>
	<path id="_x3C_Path_x3E_opacity:50_00000126287905351670845140000001916585904031196853_" fill="#E8E766" d="M709,2812.5v16.1h-2.5
		v-16.1h-5.3v-2.4h13.1v2.4H709z"/>
	<path id="_x3C_Path_x3E_opacity:50_00000078012853011559672660000009339236725375115661_" fill="#E8E766" d="M717.8,2828.6V2810
		h11.4v2.4h-8.8v5.6h8.3v2.4h-8.3v5.6h8.8v2.4h-11.4V2828.6z"/>
	<path id="_x3C_Path_x3E_opacity:50_00000073720443265971308430000002854712891912566932_" fill="#E8E766" d="M747.4,2828.6v-14.7
		l-4.8,9.9h-1.7l-4.8-9.9v14.7h-2.5V2810h3.2l4.9,10.1l5-10.1h3.1v18.5h-2.4V2828.6z"/>
	<path id="_x3C_Compound_Path_x3E_opacity:50_00000021825320057488008700000005125696486740006288_" fill="#E8E766" d="
		M766.6,2818.6c-0.2,0.4-1.2,1.3-1.7,1.6c-0.6,0.4-1.3,0.6-2,0.6h-6.2v7.7h-2.5V2810h8.7c0.7,0,1.5,0.2,2.1,0.6
		c0.4,0.3,1.4,1.3,1.6,1.6c0.3,0.5,0.5,1.1,0.5,1.8v2.8C767.2,2817.5,767,2818.1,766.6,2818.6z M764.6,2814.1c0-0.2,0-0.2-0.1-0.3
		c-0.1-0.4-1.1-1.3-1.5-1.3c-0.1,0-0.1,0-0.2,0h-6.1v6h6.1c0.6,0,1.4-0.8,1.6-1.2c0.1-0.1,0.1-0.2,0.1-0.4v-2.8H764.6z"/>
	<path id="_x3C_Compound_Path_x3E_opacity:50_00000105412599963823044060000010247743690767959192_" fill="#E8E766" d="
		M771.2,2820.3v-3.3h3.1v3.3H771.2z M771.2,2828.6v-3.3h3.1v3.3H771.2z"/>
</g>
<g id="_x3C_Group_x3E_opacity:50_00000157280640226354460630000010904307317941626530_">
	<path id="_x3C_Compound_Path_x3E_opacity:50_00000026863266618640789660000018259677300222643852_" fill="#E8E766" d="
		M3363.5,2833.1l-0.9-2.6h-5l-0.9,2.6h-1.7l4.1-11.6h2.1l4,11.6H3363.5z M3360.1,2823.1l-2,5.9h4L3360.1,2823.1z"/>
	<path id="_x3C_Path_x3E_opacity:50_00000030465664943253883220000005725907434186996372_" fill="#E8E766" d="M3370,2823v10.1h-1.6
		V2823h-3.3v-1.5h8.2v1.5H3370z"/>
	<path id="_x3C_Path_x3E_opacity:50_00000096767842115288931790000011984759547162460833_" fill="#E8E766" d="M3384.2,2833.1v-9.2
		l-3,6.2h-1l-3-6.2v9.2h-1.6v-11.6h2l3.1,6.3l3.1-6.3h2v11.6H3384.2z"/>
	<path id="_x3C_Compound_Path_x3E_opacity:50_00000039118734648278313180000006090839693357648520_" fill="#E8E766" d="
		M3396.8,2831.5c-0.2,0.3-1,1.1-1.4,1.4c-0.3,0.2-0.8,0.3-1.1,0.3h-3.1c-0.4,0-0.8-0.2-1.1-0.3c-0.4-0.2-1.2-1-1.4-1.4
		c-0.2-0.3-0.3-0.7-0.3-1v-6.4c0-0.3,0.1-0.7,0.3-1s1-1.1,1.4-1.4c0.3-0.2,0.7-0.3,1.1-0.3h3.1c0.4,0,0.8,0.2,1.1,0.3
		c0.4,0.2,1.2,1,1.4,1.4c0.2,0.3,0.3,0.7,0.3,1v6.4C3397.1,2830.9,3397,2831.2,3396.8,2831.5z M3395.5,2824.2c0-0.1,0-0.1,0-0.2
		c-0.2-0.4-0.8-0.9-1.1-1c0,0-0.1,0-0.2,0h-2.9c-0.1,0-0.1,0-0.2,0c-0.3,0.2-1.1,0.9-1.1,1.2v6.3c0,0.3,0.8,1,1.1,1.2
		c0,0,0.1,0,0.2,0h2.9c0.1,0,0.1,0,0.2,0c0.3-0.2,1.1-0.9,1.1-1.2V2824.2z"/>
	<path id="_x3C_Path_x3E_opacity:50_00000180345509945099613500000006828910497328956800_" fill="#E8E766" d="M3408,2831.5
		c-0.2,0.3-1,1.1-1.4,1.4c-0.3,0.2-0.7,0.3-1.1,0.3h-3.2c-1,0-1.9-0.9-2.4-1.6c-0.2-0.2-0.3-0.5-0.5-1l1.5-0.4
		c0.1,0.2,0.2,0.3,0.2,0.3c0.3,0.4,0.8,0.9,1.1,1.1c0.1,0,0.1,0,0.2,0h3.1c0.1,0,0.1,0,0.2,0c0.3-0.2,1.1-0.9,1.1-1.2v-1.2
		c0-0.3-0.2-0.6-0.4-0.7l-5.3-1.4c-0.9-0.2-1.4-1.1-1.4-2v-1.2c0-0.3,0.1-0.7,0.3-1s1-1.1,1.4-1.4c0.3-0.2,0.7-0.3,1.1-0.3h2.8
		c1,0,1.8,0.9,2.4,1.6c0.2,0.2,0.3,0.5,0.5,1l-1.5,0.4c-0.2-0.3-0.2-0.4-0.2-0.4c-0.2-0.4-0.8-0.9-1.1-1.1h-0.1h-2.7
		c-0.1,0-0.1,0-0.2,0c-0.3,0.1-1.1,0.9-1.1,1.2v1.1c0,0.3,0.2,0.6,0.4,0.6l5.3,1.4c0.9,0.2,1.4,1.1,1.4,1.9v1.3
		C3408.3,2830.8,3408.2,2831.2,3408,2831.5z"/>
	<path id="_x3C_Compound_Path_x3E_opacity:50_00000175304097203847903350000004938117935070348985_" fill="#E8E766" d="
		M3423.1,2826.9c-0.2,0.2-0.8,0.8-1,1c-0.3,0.3-0.8,0.4-1.3,0.4h-3.9v4.8h-1.6v-11.6h5.5c0.4,0,0.9,0.2,1.3,0.4c0.3,0.2,0.9,0.8,1,1
		c0.2,0.3,0.3,0.7,0.3,1.1v1.7C3423.4,2826.2,3423.3,2826.5,3423.1,2826.9z M3421.8,2824.1c0-0.1,0-0.2,0-0.2
		c-0.1-0.2-0.7-0.8-0.9-0.8h-0.1h-3.8v3.8h3.9c0.3,0,0.9-0.5,1-0.8c0-0.1,0.1-0.2,0.1-0.3v-1.7H3421.8z"/>
	<path id="_x3C_Compound_Path_x3E_opacity:50_00000042729157068907377290000001411769599054981018_" fill="#E8E766" d="
		M3432.7,2833.1l-2.7-4.8h-2.7v4.8h-1.6v-11.6h5.5c0.4,0,0.9,0.2,1.3,0.4c0.3,0.2,0.9,0.8,1,1c0.2,0.3,0.3,0.7,0.3,1.1v1.7
		c0,0.4-0.1,0.8-0.3,1.1c-0.2,0.2-0.8,0.8-1,1s-0.6,0.3-0.9,0.3l2.8,4.9h-1.7L3432.7,2833.1L3432.7,2833.1z M3432.2,2824.1v-0.2
		c-0.1-0.2-0.7-0.8-0.9-0.9h-0.1h-3.9v3.8h3.9c0.3,0,0.9-0.5,1.1-0.8v-0.2v-1.7L3432.2,2824.1L3432.2,2824.1z"/>
	<path id="_x3C_Path_x3E_opacity:50_00000025442662477673303450000010969213308764444090_" fill="#E8E766" d="M3436.8,2833.1v-11.6
		h7.1v1.5h-5.5v3.5h5.2v1.5h-5.2v3.5h5.5v1.5h-7.1V2833.1z"/>
	<path id="_x3C_Path_x3E_opacity:50_00000073688300269048649740000008240387007060241082_" fill="#E8E766" d="M3455,2831.5
		c-0.2,0.3-1,1.1-1.4,1.4c-0.3,0.2-0.7,0.3-1.1,0.3h-3.2c-1,0-1.9-0.9-2.4-1.6c-0.2-0.2-0.3-0.5-0.5-1l1.5-0.4
		c0.1,0.2,0.2,0.3,0.2,0.3c0.3,0.4,0.8,0.9,1.1,1.1c0.1,0,0.1,0,0.2,0h3.1c0.1,0,0.1,0,0.2,0c0.3-0.2,1.1-0.9,1.1-1.2v-1.2
		c0-0.3-0.2-0.6-0.4-0.7l-5.3-1.4c-0.9-0.2-1.4-1.1-1.4-2v-1.2c0-0.3,0.1-0.7,0.3-1s1-1.1,1.4-1.4c0.3-0.2,0.7-0.3,1.1-0.3h2.8
		c1,0,1.8,0.9,2.4,1.6c0.2,0.2,0.3,0.5,0.5,1l-1.5,0.4c-0.2-0.3-0.2-0.4-0.2-0.4c-0.2-0.4-0.8-0.9-1.1-1.1h-0.1h-2.7
		c-0.1,0-0.1,0-0.2,0c-0.3,0.1-1.1,0.9-1.1,1.2v1.1c0,0.3,0.2,0.6,0.4,0.6l5.3,1.4c0.9,0.2,1.4,1.1,1.4,1.9v1.3
		C3455.3,2830.8,3455.3,2831.2,3455,2831.5z"/>
	<path id="_x3C_Path_x3E_opacity:50_00000131361036954557722480000016339582477853008030_" fill="#E8E766" d="M3466.1,2831.5
		c-0.2,0.3-1,1.1-1.4,1.4c-0.3,0.2-0.7,0.3-1.1,0.3h-3.2c-1,0-1.9-0.9-2.4-1.6c-0.2-0.2-0.3-0.5-0.5-1l1.5-0.4
		c0.1,0.2,0.2,0.3,0.2,0.3c0.3,0.4,0.8,0.9,1.1,1.1c0.1,0,0.1,0,0.2,0h3.1c0.1,0,0.1,0,0.2,0c0.3-0.2,1.1-0.9,1.1-1.2v-1.2
		c0-0.3-0.2-0.6-0.4-0.7l-5.3-1.4c-0.9-0.2-1.4-1.1-1.4-2v-1.2c0-0.3,0.1-0.7,0.3-1s1-1.1,1.4-1.4c0.3-0.2,0.7-0.3,1.1-0.3h2.8
		c1,0,1.8,0.9,2.4,1.6c0.2,0.2,0.3,0.5,0.5,1l-1.5,0.4c-0.2-0.3-0.2-0.4-0.2-0.4c-0.2-0.4-0.8-0.9-1.1-1.1h-0.1h-2.7
		c-0.1,0-0.1,0-0.2,0c-0.3,0.1-1.1,0.9-1.1,1.2v1.1c0,0.3,0.2,0.6,0.4,0.6l5.3,1.4c0.9,0.2,1.4,1.1,1.4,1.9v1.3
		C3466.4,2830.8,3466.3,2831.2,3466.1,2831.5z"/>
	<path id="_x3C_Path_x3E_opacity:50_00000126294887985541627010000007766802538596817579_" fill="#E8E766" d="M3476.7,2831.5
		c-0.2,0.3-1,1.1-1.4,1.4c-0.3,0.2-0.7,0.3-1.1,0.3h-2.6c-0.4,0-0.8-0.2-1.1-0.3c-0.4-0.2-1.2-1-1.4-1.4c-0.2-0.3-0.3-0.7-0.3-1v-9
		h1.6v9c0,0.3,0.9,1,1.2,1.2c0,0,0.1,0,0.2,0h2.4c0.1,0,0.1,0,0.2,0c0.3-0.1,1.1-0.9,1.1-1.2v-9h1.6v9
		C3476.9,2830.9,3476.9,2831.2,3476.7,2831.5z"/>
	<path id="_x3C_Compound_Path_x3E_opacity:50_00000011731506515221409480000017684885239851510146_" fill="#E8E766" d="
		M3486.6,2833.1l-2.7-4.8h-2.7v4.8h-1.6v-11.6h5.5c0.4,0,0.9,0.2,1.3,0.4c0.3,0.2,0.9,0.8,1,1c0.2,0.3,0.3,0.7,0.3,1.1v1.7
		c0,0.4-0.1,0.8-0.3,1.1c-0.2,0.2-0.8,0.8-1,1s-0.6,0.3-0.9,0.3l2.8,4.9h-1.7L3486.6,2833.1L3486.6,2833.1z M3486.1,2824.1v-0.2
		c-0.1-0.2-0.7-0.8-0.9-0.9h-0.1h-3.9v3.8h3.9c0.3,0,0.9-0.5,1.1-0.8v-0.2v-1.7L3486.1,2824.1L3486.1,2824.1z"/>
	<path id="_x3C_Path_x3E_opacity:50_00000035521002911939861920000008750837021466348169_" fill="#E8E766" d="M3490.7,2833.1v-11.6
		h7.1v1.5h-5.5v3.5h5.2v1.5h-5.2v3.5h5.5v1.5h-7.1V2833.1z"/>
	<path id="_x3C_Compound_Path_x3E_opacity:50_00000000212599554047909810000013161335750688073109_" fill="#E8E766" d="
		M3500.8,2827.9v-2.1h2v2.1H3500.8z M3500.8,2833.1v-2.1h2v2.1H3500.8z"/>
</g>
<g id="_x3C_Group_x3E_opacity:50">
	<path id="_x3C_Compound_Path_x3E_opacity:50_00000168810231386308897420000017160406786584161408_" fill="#E8E766" d="
		M2599.2,2822.8v10.3h-1.6v-10.3h-3.4v-1.5h8.4v1.5H2599.2z"/>
	<path id="_x3C_Compound_Path_x3E_opacity:50_00000125601607345647383210000013987374424717154212_" fill="#E8E766" d="M2612.2,2833
		l-0.9-2.7h-5.1l-0.9,2.7h-1.7l4.1-11.8h2.2l4.1,11.8H2612.2z M2608.7,2822.9l-2,6h4.1L2608.7,2822.9z"/>
	<path id="_x3C_Compound_Path_x3E_opacity:50_00000026157924363622365200000015848188508087931040_" fill="#E8E766" d="M2623.8,2833
		l-2.8-5h-2.7v5h-1.6v-11.8h5.6c0.4,0,1,0.1,1.3,0.4c0.3,0.2,0.9,0.8,1,1c0.2,0.3,0.3,0.8,0.3,1.1v1.8c0,0.4-0.1,0.8-0.3,1.1
		c-0.1,0.3-0.8,0.8-1,1c-0.3,0.2-0.6,0.3-0.9,0.4l2.9,5H2623.8L2623.8,2833z M2623.3,2823.8c0-0.1,0-0.2,0-0.2
		c-0.1-0.2-0.7-0.8-1-0.9c-0.1,0-0.1,0-0.1,0h-3.9v3.8h3.9c0.3,0,1-0.6,1.1-0.8c0-0.1,0-0.2,0-0.2V2823.8z"/>
	<path id="_x3C_Compound_Path_x3E_opacity:50_00000117678698160073346880000003956278631837930407_" fill="#E8E766" d="M2636.4,2833
		c-0.1-0.3-0.1-0.6-0.1-0.7c-0.4,0.3-0.8,0.8-1.5,0.8h-3c-0.4,0-0.8-0.1-1.1-0.3c-0.4-0.3-1.2-1-1.4-1.4c-0.2-0.3-0.3-0.7-0.3-1
		v-6.5c0-0.4,0.1-0.8,0.3-1c0.3-0.3,1-1.1,1.4-1.4c0.3-0.2,0.8-0.3,1.1-0.3h3c1.1,0,1.8,0.9,2.5,1.7c0.1,0.2,0.3,0.4,0.6,1l-1.6,0.4
		c-0.1-0.3-0.2-0.4-0.2-0.4c-0.2-0.4-0.8-1-1.1-1.1c-0.1,0-0.1-0.1-0.2-0.1h-2.9c-0.1,0-0.1,0-0.2,0.1c-0.3,0.1-0.9,0.7-1.1,1.1
		c0,0.1-0.1,0.1-0.1,0.2v6.3c0,0.3,0.9,1.1,1.2,1.3c0.1,0,0.1,0,0.1,0h2.9c0.1,0,0.1,0,0.2-0.1c0.3-0.1,1.1-1,1.1-1.3v-2.5h-2.7
		v-1.5h4.3v4c0,0.8,0.1,1.5,0.3,2.7H2636.4z"/>
	<path id="_x3C_Compound_Path_x3E_opacity:50_00000008125946287089514000000017596283713869535647_" fill="#E8E766" d="M2641.7,2833
		v-11.8h7.2v1.5h-5.7v3.6h5.3v1.5h-5.3v3.6h5.7v1.5L2641.7,2833L2641.7,2833z"/>
	<path id="_x3C_Compound_Path_x3E_opacity:50_00000168090140187493567920000010516170334301403010_" fill="#E8E766" d="
		M2657.1,2822.8v10.3h-1.6v-10.3h-3.4v-1.5h8.4v1.5H2657.1z"/>
	<path id="_x3C_Compound_Path_x3E_opacity:50_00000039107948227255379090000009333983931133564550_" fill="#E8E766" d="M2674.2,2833
		h-2.2l-3.9-11.8h1.7l3.3,10.1l3.3-10.1h1.7L2674.2,2833z"/>
	<path id="_x3C_Compound_Path_x3E_opacity:50_00000159470014177251255830000000959131003731597727_" fill="#E8E766" d="M2680.9,2833
		v-11.8h7.2v1.5h-5.7v3.6h5.3v1.5h-5.3v3.6h5.7v1.5L2680.9,2833L2680.9,2833z"/>
	<path id="_x3C_Compound_Path_x3E_opacity:50_00000142855125016634951080000006011508458178456248_" fill="#E8E766" d="
		M2699.7,2831.5c-0.6,0.7-1.4,1.6-2.4,1.6h-2.6c-0.4,0-0.8-0.1-1.1-0.3c-0.4-0.3-1.2-1-1.4-1.4c-0.2-0.3-0.3-0.7-0.3-1v-6.5
		c0-0.3,0.1-0.7,0.3-1c0.3-0.3,1-1.1,1.4-1.4c0.3-0.2,0.8-0.3,1.1-0.3h2.6c1,0,1.8,0.9,2.4,1.6c0.1,0.2,0.3,0.5,0.6,1l-1.6,0.4
		c-0.2-0.6-0.8-1.2-1.3-1.5h-0.1h-2.5c-0.1,0-0.1,0-0.2,0.1c-0.3,0.1-0.8,0.7-1.1,1.1c-0.1,0.1-0.1,0.1-0.1,0.3v6.3
		c0,0.3,0.8,1,1.1,1.2c0.1,0,0.1,0.1,0.2,0.1h2.5c0.1,0,0.1,0,0.2-0.1c0.4-0.3,1-0.8,1.3-1.5l1.6,0.4
		C2700.1,2830.9,2699.9,2831.3,2699.7,2831.5z"/>
	<path id="_x3C_Compound_Path_x3E_opacity:50_00000008127143826555247980000006357541721874562486_" fill="#E8E766" d="M2708,2822.8
		v10.3h-1.6v-10.3h-3.4v-1.5h8.4v1.5H2708z"/>
	<path id="_x3C_Compound_Path_x3E_opacity:50_00000073683589901015705080000014353946004791444626_" fill="#E8E766" d="M2723,2831.4
		c-0.3,0.4-1,1.1-1.4,1.4c-0.3,0.2-0.8,0.3-1.1,0.3h-3.1c-0.4,0-0.8-0.1-1.1-0.3c-0.4-0.3-1.2-1-1.5-1.4c-0.2-0.3-0.3-0.7-0.3-1
		v-6.5c0-0.3,0.1-0.8,0.3-1c0.3-0.4,1-1.1,1.5-1.4c0.3-0.2,0.8-0.3,1.1-0.3h3.1c0.4,0,0.8,0.1,1.1,0.3c0.4,0.3,1.2,1.1,1.4,1.4
		c0.2,0.3,0.3,0.7,0.3,1v6.5C2723.3,2830.7,2723.2,2831.1,2723,2831.4z M2721.6,2823.9c0-0.1,0-0.1-0.1-0.2c-0.2-0.4-0.8-1-1.1-1.1
		c-0.1,0-0.1-0.1-0.2-0.1h-3c-0.1,0-0.1,0-0.2,0.1c-0.3,0.1-1.1,0.9-1.1,1.2v6.4c0,0.3,0.8,1.1,1.1,1.2c0.1,0,0.1,0.1,0.2,0.1h3
		c0.1,0,0.1,0,0.2-0.1c0.3-0.1,1.1-0.9,1.1-1.2v-6.3L2721.6,2823.9L2721.6,2823.9z"/>
	<path id="_x3C_Compound_Path_x3E_opacity:50_00000030471194630683597750000007298155944195355782_" fill="#E8E766" d="M2734.1,2833
		l-2.8-5h-2.7v5h-1.6v-11.8h5.6c0.4,0,1,0.1,1.3,0.4c0.3,0.2,0.9,0.8,1,1c0.2,0.3,0.3,0.8,0.3,1.1v1.8c0,0.4-0.1,0.8-0.3,1.1
		c-0.1,0.3-0.8,0.8-1,1c-0.3,0.2-0.6,0.3-0.9,0.4l2.9,5H2734.1L2734.1,2833z M2733.6,2823.8c0-0.1,0-0.2,0-0.2
		c-0.1-0.2-0.7-0.8-1-0.9c-0.1,0-0.1,0-0.1,0h-3.9v3.8h3.9c0.3,0,1-0.6,1.1-0.8c0-0.1,0-0.2,0-0.2V2823.8z"/>
	<path id="_x3C_Compound_Path_x3E_opacity:50" fill="#E8E766" d="M2739.5,2827.8v-2.1h2v2.1H2739.5z M2739.5,2833v-2.1h2v2.1H2739.5
		z"/>
</g>
</svg>
