<?xml version="1.0" encoding="utf-8"?>
<!-- Generator: Adobe Illustrator 29.5.1, SVG Export Plug-In . SVG Version: 9.03 Build 0)  -->
<svg version="1.1" baseProfile="tiny" id="Layer_1" xmlns="http://www.w3.org/2000/svg" xmlns:xlink="http://www.w3.org/1999/xlink"
	 x="0px" y="0px" viewBox="0 0 3816.1 2949.7" overflow="visible" xml:space="preserve">
<g id="BG" display="none">
	<rect y="1369.8" display="inline" fill="#2D2828" width="271.8" height="210.1"/>
</g>
<g id="opacity:10_00000132054309687769424590000002247159365626287756_">
	<path id="_x3C_Compound_Path_x3E_opacity:10_00000131349685807408707760000005943935424864061624_" fill="#E8E766" d="
		M310.7,2040.3v-2.5l6.9,6.3l6.9-6.3v2.5l-6,5.4v0.2h6v1.9h-13.9v-1.9h6.1v-0.2L310.7,2040.3z"/>
	<path id="_x3C_Compound_Path_x3E_opacity:10_00000183226376568319933340000002297794626879750058_" fill="#E8E766" d="
		M324.6,2034.5h-13.9v-1.9h12.1v-6.5h1.8V2034.5z"/>
	<path id="_x3C_Compound_Path_x3E_opacity:10_00000029745842832965645910000004490140581639133857_" fill="#E8E766" d="
		M324.6,2011.8v2.4l-10.8,2.5l10.8,2.5v2.4l-13.9,3.2v-2l11.4-2.4l-11.4-2.6v-2.2l11.4-2.6l-11.4-2.4v-2L324.6,2011.8z"/>
	<path id="_x3C_Compound_Path_x3E_opacity:10_00000007424208870533746890000017963268323015359152_" fill="#E8E766" d="
		M324.6,2005.4h-13.9v-8.5h1.8v6.6h4.2v-6.2h1.8v6.2h4.2v-6.6h1.8v8.5H324.6z"/>
	<path id="_x3C_Compound_Path_x3E_opacity:10_00000166673500124162813250000006295216845065208209_" fill="#E8E766" d="
		M324.6,1985.9h-13.9v-1.9h13.9V1985.9z"/>
	<path id="_x3C_Compound_Path_x3E_opacity:10_00000181780118235534691010000009863050381499072907_" fill="#E8E766" d="
		M324.6,1971.8l-10.6,5.8h10.6v1.9h-13.9v-2.2l10.7-5.8h-10.7v-1.9h13.9V1971.8z"/>
	<path id="_x3C_Compound_Path_x3E_opacity:10_00000023270201268522352410000014552680149846248068_" fill="#E8E766" d="M312.5,1960
		h12.1v1.9h-12.1v4h-1.8v-9.8h1.8V1960z"/>
	<path id="_x3C_Compound_Path_x3E_opacity:10_00000146471678927955690830000004074176261387655839_" fill="#E8E766" d="
		M324.6,1952.3h-13.9v-8.5h1.8v6.6h4.2v-6.2h1.8v6.2h4.2v-6.6h1.8v8.5H324.6z"/>
	<path id="_x3C_Compound_Path_x3E_opacity:10_00000048482377879193975090000012923774204776470402_" fill="#E8E766" d="
		M324.6,1939.3h-13.9v-1.9h12.1v-6.5h1.8V1939.3z"/>
	<path id="_x3C_Compound_Path_x3E_opacity:10_00000123416542169941930440000016899923679585532093_" fill="#E8E766" d="
		M319.7,1927.4H318v-5.3h1.7V1927.4z"/>
	<path id="_x3C_Compound_Path_x3E_opacity:10_00000169557066198479864820000006947523596822466198_" fill="#E8E766" d="
		M322.7,1908.3c0.4,0.3,1.3,1.2,1.6,1.7c0.2,0.4,0.4,0.9,0.4,1.3v3.9c0,1.2-1,2.2-1.9,2.9c-0.3,0.2-0.6,0.3-1.2,0.6l-0.5-1.8
		c0.2-0.1,0.4-0.2,0.4-0.2c0.5-0.3,1.1-1,1.3-1.3c0.1-0.1,0.1-0.2,0.1-0.2v-3.7c0-0.1,0-0.1-0.1-0.2c-0.2-0.4-1-1.3-1.4-1.3H320
		c-0.4,0-0.7,0.3-0.8,0.5l-1.6,6.3c-0.3,1.1-1.3,1.6-2.4,1.6h-1.4c-0.4,0-0.8-0.1-1.2-0.3c-0.4-0.3-1.4-1.2-1.6-1.7
		c-0.2-0.4-0.4-0.9-0.4-1.3v-3.4c0-1.2,1-2.2,1.9-2.9c0.2-0.2,0.6-0.4,1.2-0.6l0.5,1.9c-0.4,0.2-0.5,0.2-0.5,0.2
		c-0.5,0.2-1.1,1-1.3,1.3c0,0,0,0.1,0,0.2v3.2c0,0.1,0,0.2,0,0.2c0.2,0.3,1.1,1.3,1.4,1.3h1.3c0.3,0,0.7-0.2,0.7-0.5l1.7-6.3
		c0.3-1,1.3-1.7,2.3-1.7h1.6C321.9,1908,322.3,1908,322.7,1908.3z"/>
	<path id="_x3C_Compound_Path_x3E_opacity:10_00000063594924516760680840000008886896322066471841_" fill="#E8E766" d="
		M322.9,1894.7c0.8,0.7,1.9,1.6,1.9,2.8v3.1c0,0.4-0.2,1-0.4,1.3c-0.3,0.5-1.2,1.4-1.6,1.7c-0.4,0.2-0.8,0.3-1.2,0.3H314
		c-0.4,0-0.8-0.1-1.2-0.3c-0.4-0.3-1.4-1.2-1.6-1.7c-0.2-0.4-0.4-0.9-0.4-1.3v-3.1c0-1.2,1-2.2,1.9-2.8c0.2-0.2,0.6-0.4,1.2-0.6
		l0.5,1.9c-0.7,0.2-1.4,1-1.8,1.5c0,0,0,0.1,0,0.2v2.9c0,0.1,0,0.2,0,0.2c0.2,0.3,0.8,1,1.2,1.3c0.1,0.1,0.2,0.1,0.3,0.1h7.4
		c0.4,0,1.2-0.9,1.4-1.3c0-0.1,0.1-0.1,0.1-0.2v-2.9c0-0.1,0-0.2-0.1-0.2c-0.3-0.5-1-1.2-1.7-1.5l0.5-1.9
		C322.1,1894.2,322.5,1894.4,322.9,1894.7z"/>
	<path id="_x3C_Compound_Path_x3E_opacity:10_00000056429056039295747580000016146763783708009114_" fill="#E8E766" d="
		M322.7,1880.2c0.4,0.3,1.3,1.2,1.6,1.7c0.2,0.4,0.4,0.9,0.4,1.3v3.6c0,0.4-0.2,0.9-0.4,1.3c-0.3,0.5-1.2,1.4-1.6,1.7
		c-0.4,0.2-0.8,0.3-1.2,0.3h-7.6c-0.4,0-0.8-0.1-1.2-0.3c-0.4-0.3-1.4-1.2-1.6-1.7c-0.2-0.4-0.4-0.9-0.4-1.3v-3.6
		c0-0.4,0.2-1,0.4-1.3c0.3-0.5,1.2-1.4,1.6-1.7c0.4-0.2,0.8-0.3,1.2-0.3h7.6C321.9,1879.9,322.3,1880,322.7,1880.2z M313.9,1881.8
		c-0.1,0-0.2,0-0.2,0.1c-0.5,0.2-1.1,0.9-1.2,1.3c0,0,0,0.1,0,0.2v3.5c0,0.1,0,0.2,0,0.2c0.2,0.4,1.1,1.3,1.5,1.3h7.5
		c0.4,0,1.3-1,1.4-1.3c0,0,0.1-0.1,0.1-0.2v-3.5c0-0.1,0-0.2-0.1-0.2c-0.2-0.4-1-1.3-1.4-1.3L313.9,1881.8L313.9,1881.8z"/>
	<path id="_x3C_Compound_Path_x3E_opacity:10_00000105408547775381090470000004921303659033816462_" fill="#E8E766" d="
		M317.1,1866.2c0.3,0.2,1,0.9,1.2,1.3c0.3,0.4,0.5,1,0.5,1.5v4.6h5.8v1.9h-13.9v-6.5c0-0.5,0.2-1.1,0.5-1.5c0.2-0.3,0.9-1,1.2-1.2
		c0.4-0.2,0.9-0.4,1.3-0.4h2.1C316.3,1865.8,316.7,1866,317.1,1866.2z M313.8,1867.7c-0.1,0-0.2,0-0.2,0.1c-0.3,0.1-1,0.8-1,1.1
		c0,0.1,0,0.1,0,0.1v4.6h4.5v-4.6c0-0.4-0.6-1-0.9-1.2c-0.1,0-0.2-0.1-0.3-0.1H313.8z"/>
	<path id="_x3C_Compound_Path_x3E_opacity:10_00000022551350110544729560000007800476420376836253_" fill="#E8E766" d="
		M324.6,1861.9h-13.9v-8.5h1.8v6.6h4.2v-6.2h1.8v6.2h4.2v-6.6h1.8v8.5H324.6z"/>
	<path id="_x3C_Compound_Path_x3E_opacity:10_00000056407294026290867290000015614123783839030400_" fill="#E8E766" d="
		M322.7,1832.5c0.4,0.3,1.3,1.2,1.6,1.7c0.2,0.4,0.4,0.9,0.4,1.3v3.6c0,0.4-0.2,0.9-0.4,1.3c-0.3,0.5-1.2,1.4-1.6,1.7
		c-0.4,0.2-0.8,0.3-1.2,0.3h-7.6c-0.4,0-0.8-0.1-1.2-0.3c-0.4-0.3-1.4-1.2-1.6-1.7c-0.2-0.4-0.4-0.9-0.4-1.3v-3.6
		c0-0.4,0.2-1,0.4-1.3c0.3-0.5,1.2-1.4,1.6-1.7c0.4-0.2,0.8-0.3,1.2-0.3h7.6C321.9,1832.2,322.3,1832.2,322.7,1832.5z M313.9,1834
		c-0.1,0-0.2,0-0.2,0.1c-0.5,0.2-1.1,0.9-1.2,1.3c0,0.1,0,0.1,0,0.2v3.5c0,0.1,0,0.2,0,0.2c0.2,0.4,1.1,1.3,1.5,1.3h7.5
		c0.4,0,1.3-1,1.4-1.3c0,0,0.1-0.1,0.1-0.2v-3.5c0-0.1,0-0.2-0.1-0.2c-0.2-0.4-1-1.3-1.4-1.3L313.9,1834L313.9,1834z"/>
	<path id="_x3C_Compound_Path_x3E_opacity:10_00000092418525550564555920000002650078383319518599_" fill="#E8E766" d="M324.6,1822
		v2.5l-13.9,4.6v-2l11.8-3.8l-11.8-3.8v-2L324.6,1822z"/>
	<path id="_x3C_Compound_Path_x3E_opacity:10_00000103986110457905006090000008638975650147034771_" fill="#E8E766" d="
		M324.6,1814.1h-13.9v-8.5h1.8v6.6h4.2v-6.2h1.8v6.2h4.2v-6.6h1.8v8.5H324.6z"/>
	<path id="_x3C_Compound_Path_x3E_opacity:10_00000013889244159668401160000013824925587298163608_" fill="#E8E766" d="
		M324.6,1792.7l-5.8,3.3v3.2h5.8v1.9h-13.9v-6.5c0-0.5,0.2-1.1,0.5-1.5c0.2-0.3,0.9-1,1.2-1.2c0.4-0.2,0.9-0.4,1.3-0.4h2.1
		c0.5,0,0.9,0.1,1.3,0.4c0.3,0.2,1,0.9,1.2,1.2c0.2,0.3,0.4,0.7,0.4,1l5.8-3.4v2H324.6z M313.8,1793.3c0,0-0.2,0-0.3,0
		c-0.2,0.1-1,0.8-1,1.1c0,0.1,0,0.1,0,0.2v4.6h4.5v-4.6c0-0.4-0.6-1.1-1-1.3c-0.1,0-0.2,0-0.3,0L313.8,1793.3L313.8,1793.3z"/>
	<path id="_x3C_Compound_Path_x3E_opacity:10_00000018929919694119300740000002487495307908366241_" fill="#E8E766" d="
		M324.6,1778.7h-6v6h6v1.9h-13.9v-1.9h6v-6h-6v-1.9h13.9V1778.7z"/>
	<path id="_x3C_Compound_Path_x3E_opacity:10_00000125574679755819648140000007144099669320153225_" fill="#E8E766" d="
		M324.6,1772.3h-13.9v-8.5h1.8v6.6h4.2v-6.2h1.8v6.2h4.2v-6.6h1.8v8.5H324.6z"/>
	<path id="_x3C_Compound_Path_x3E_opacity:10_00000001627800834005847280000003750880373672089481_" fill="#E8E766" d="
		M324.6,1750.4l-3.1,1v6l3.1,1.1v2l-13.9-4.8v-2.5l13.9-4.8V1750.4z M312.7,1754.4l7.1,2.4v-4.8L312.7,1754.4z"/>
	<path id="_x3C_Compound_Path_x3E_opacity:10_00000084527392319583025050000015828823354213220284_" fill="#E8E766" d="
		M312.5,1741.4h12.1v1.9h-12.1v4h-1.8v-9.8h1.8V1741.4z"/>
	<path id="_x3C_Compound_Path_x3E_opacity:10_00000174592124400838471360000001566845296895836563_" fill="#E8E766" d="
		M324.6,1718.4c-0.3,0-0.6,0.1-0.8,0.2c0.4,0.5,0.9,0.9,0.9,1.7v3.6c0,0.4-0.2,1-0.4,1.3c-0.3,0.5-1.2,1.4-1.6,1.7
		c-0.4,0.2-0.8,0.3-1.2,0.3h-7.6c-0.4,0-0.8-0.1-1.2-0.3c-0.4-0.3-1.4-1.2-1.6-1.7c-0.2-0.4-0.4-0.9-0.4-1.3v-3.6
		c0-1.2,1-2.2,1.9-2.9c0.2-0.2,0.6-0.4,1.2-0.6l0.5,1.9c-0.4,0.2-0.5,0.2-0.5,0.2c-0.5,0.2-1.1,0.9-1.3,1.3c0,0,0,0.1,0,0.2v3.4
		c0,0.1,0,0.2,0,0.2c0.2,0.3,0.8,1.1,1.3,1.3c0,0,0.1,0.1,0.2,0.1h7.5c0.4,0,1.3-1,1.5-1.4c0,0,0-0.1,0-0.2v-3.3
		c0-0.1,0-0.1-0.1-0.2c-0.2-0.4-1.1-1.4-1.5-1.4h-2.9v3.2h-1.8v-5.1h4.6c0.9,0,1.8-0.2,3.2-0.4L324.6,1718.4L324.6,1718.4z"/>
	<path id="_x3C_Compound_Path_x3E_opacity:10_00000035527134431364300970000000533770703459898289_" fill="#E8E766" d="
		M324.6,1703.8l-5.8,3.3v3.2h5.8v1.9h-13.9v-6.5c0-0.5,0.2-1.1,0.5-1.5c0.2-0.3,0.9-1,1.2-1.2c0.4-0.2,0.9-0.4,1.3-0.4h2.1
		c0.5,0,0.9,0.1,1.3,0.4c0.3,0.2,1,0.9,1.2,1.2c0.2,0.3,0.4,0.7,0.4,1l5.8-3.4v2H324.6z M313.8,1704.4c0,0-0.2,0-0.3,0
		c-0.2,0.1-1,0.8-1,1.1c0,0.1,0,0.1,0,0.2v4.6h4.5v-4.6c0-0.4-0.6-1.1-1-1.3c-0.1,0-0.2,0-0.3,0L313.8,1704.4L313.8,1704.4z"/>
	<path id="_x3C_Compound_Path_x3E_opacity:10_00000105387165748584181170000000467020095494932620_" fill="#E8E766" d="
		M324.6,1697.7h-13.9v-1.9h13.9V1697.7z"/>
	<path id="_x3C_Compound_Path_x3E_opacity:10_00000172405313708220510750000004816989255438612919_" fill="#E8E766" d="M322.6,1682
		c0.4,0.3,1.3,1.2,1.6,1.7c0.2,0.4,0.4,0.9,0.4,1.3v6.4h-13.9v-6.4c0-0.4,0.1-0.9,0.4-1.3c0.3-0.5,1.3-1.4,1.7-1.7
		c0.4-0.2,0.8-0.3,1.2-0.3h7.4C321.8,1681.7,322.2,1681.8,322.6,1682z M314,1683.6c-0.1,0-0.1,0-0.2,0c-0.5,0.2-1.1,1-1.3,1.3
		c0,0,0,0.1,0,0.2v4.4h10.3v-4.4c0-0.1,0-0.2,0-0.2c-0.2-0.4-1-1.4-1.4-1.4L314,1683.6L314,1683.6z"/>
	<path id="_x3C_Compound_Path_x3E_opacity:10_00000059294729556911014880000017890949545580179617_" fill="#E8E766" d="
		M324.6,1664.8v2.5l-13.9,4.6v-2l11.8-3.9l-11.8-3.8v-2L324.6,1664.8z"/>
	<path id="_x3C_Compound_Path_x3E_opacity:10_00000068665645350579856410000017213490873090528441_" fill="#E8E766" d="
		M323.1,1648.6c0.3,0.2,1,0.9,1.2,1.2c0.3,0.4,0.5,1,0.5,1.5v2.6c0,1.2-1,2.2-1.9,2.9c-0.2,0.2-0.6,0.4-1.2,0.6l-0.5-1.9
		c0.2-0.1,0.3-0.1,0.5-0.3c0.4-0.3,1-0.9,1.2-1.2c0,0,0-0.1,0-0.2v-2.5c0-0.4-0.7-1-1-1.2c-0.1-0.1-0.2-0.1-0.3-0.1h-2
		c-0.1,0-0.2,0-0.2,0c-0.4,0.2-1,0.8-1,1.2v2.5h-1.8v-2.5c0-0.1,0-0.2-0.1-0.2c-0.2-0.3-0.6-0.7-0.9-0.9c-0.1-0.1-0.2-0.1-0.3-0.1
		h-1.8c-0.1,0-0.2,0-0.3,0c-0.3,0.2-0.8,0.6-1,0.9c0,0.1,0,0.2,0,0.3v2.5c0,0.1,0,0.2,0,0.2c0.2,0.3,0.8,1,1.3,1.3
		c0,0,0.1,0.1,0.5,0.2l-0.5,1.9c-0.6-0.3-1-0.5-1.2-0.6c-0.4-0.3-1.2-1-1.5-1.5c-0.2-0.4-0.4-0.9-0.4-1.3v-2.6
		c0-0.5,0.2-1.1,0.5-1.5c0.2-0.3,1-1,1.3-1.2c0.4-0.3,0.8-0.4,1.3-0.4h1.9c1,0,1.5,0.5,2.1,1.1c0.6-0.6,1.1-1.1,2.1-1.1h2
		C322.2,1648.2,322.7,1648.3,323.1,1648.6z"/>
	<path id="_x3C_Compound_Path_x3E_opacity:10_00000109736902636116231850000002064146112804348552_" fill="#E8E766" d="
		M324.6,1643.6h-2.4v-2.4h2.4V1643.6z"/>
	<path id="_x3C_Compound_Path_x3E_opacity:10_00000145748323336789192960000004013347836278474909_" fill="#E8E766" d="M321.2,1635
		c0.2-0.1,0.4-0.2,0.4-0.2c0.5-0.3,1-0.8,1.2-1.2c0-0.1,0-0.2,0-0.3v-2.5c0-0.1,0-0.2,0-0.2c-0.2-0.3-0.6-0.8-1-1c0,0-0.1,0-0.2,0
		h-2.9c0.4,0.5,0.7,1,0.7,1.7v2.4c0,0.5-0.2,1.1-0.5,1.5c-0.2,0.3-0.9,1-1.2,1.2c-0.4,0.3-0.9,0.4-1.3,0.4h-2.9
		c-0.5,0-0.9-0.1-1.3-0.4c-0.3-0.2-1-0.9-1.2-1.2c-0.3-0.4-0.5-1-0.5-1.5v-2.9c0-0.5,0.2-1.1,0.5-1.5c0.2-0.3,1-1,1.2-1.2
		c0.4-0.3,0.8-0.4,1.3-0.4h8.1c0.5,0,0.9,0.1,1.3,0.4c0.3,0.2,1,0.9,1.2,1.2c0.3,0.4,0.5,1,0.5,1.5v2.6c0,0.4-0.1,0.9-0.4,1.3
		c-0.3,0.5-1.1,1.2-1.5,1.5c-0.2,0.2-0.6,0.4-1.2,0.6L321.2,1635z M316.5,1634.9c0.1,0,0.2,0,0.2-0.1c0.3-0.2,1-0.8,1-1.2v-2.3
		c0-0.1,0-0.2,0-0.2c-0.2-0.5-0.8-1.3-1.3-1.6h-2.7c-0.1,0-0.2,0-0.2,0c-0.3,0.2-1,0.8-1,1.2v2.9c0,0.4,0.7,1.1,1,1.2
		c0,0,0.1,0.1,0.2,0.1H316.5z"/>
	<path id="_x3C_Compound_Path_x3E_opacity:10_00000069368818049281025620000007217408296813172362_" fill="#E8E766" d="
		M324.6,1622.7h-1.7v-3.2h-10.4v2.7h-1.8v-4.6h12.2v-3h1.7L324.6,1622.7L324.6,1622.7z"/>
</g>
<g id="opacity:10">
	<path id="_x3C_Compound_Path_x3E_opacity:10_00000014604551153048455420000014138803819308319678_" fill="#E8E766" d="M3503.8,1621
		v2.5l-6.9-6.3l-6.9,6.3v-2.5l6-5.4v-0.2h-6v-1.9h13.9v1.9h-6.1v0.2L3503.8,1621z"/>
	<path id="_x3C_Compound_Path_x3E_opacity:10_00000015319118898559410590000010574209499802196144_" fill="#E8E766" d="
		M3489.9,1626.7h13.9v1.9h-12.1v6.5h-1.8L3489.9,1626.7L3489.9,1626.7z"/>
	<path id="_x3C_Compound_Path_x3E_opacity:10_00000093160871056372977510000001282024382328117934_" fill="#E8E766" d="
		M3489.9,1649.5v-2.4l10.8-2.5l-10.8-2.5v-2.4l13.9-3.2v2l-11.4,2.4l11.4,2.6v2.2l-11.4,2.6l11.4,2.4v2L3489.9,1649.5z"/>
	<path id="_x3C_Compound_Path_x3E_opacity:10_00000137849702966285402450000002066857360286697600_" fill="#E8E766" d="
		M3489.9,1655.9h13.9v8.5h-1.8v-6.6h-4.2v6.2h-1.8v-6.2h-4.2v6.6h-1.8L3489.9,1655.9L3489.9,1655.9z"/>
	<path id="_x3C_Compound_Path_x3E_opacity:10_00000002372661708754546280000009623048521425019265_" fill="#E8E766" d="
		M3489.9,1675.4h13.9v1.9h-13.9V1675.4z"/>
	<path id="_x3C_Compound_Path_x3E_opacity:10_00000104699022980006324490000015172345011227692203_" fill="#E8E766" d="
		M3489.9,1689.5l10.6-5.8h-10.6v-1.9h13.9v2.2l-10.7,5.8h10.7v1.9h-13.9V1689.5z"/>
	<path id="_x3C_Compound_Path_x3E_opacity:10_00000019669108755938435050000005948058108291024521_" fill="#E8E766" d="M3502,1701.3
		h-12.1v-1.9h12.1v-4h1.8v9.8h-1.8V1701.3z"/>
	<path id="_x3C_Compound_Path_x3E_opacity:10_00000072983633931402527480000007001023343633567679_" fill="#E8E766" d="M3489.9,1709
		h13.9v8.5h-1.8v-6.6h-4.2v6.2h-1.8v-6.2h-4.2v6.6h-1.8L3489.9,1709L3489.9,1709z"/>
	<path id="_x3C_Compound_Path_x3E_opacity:10_00000140015257603318611610000003489688202017984676_" fill="#E8E766" d="M3489.9,1722
		h13.9v1.9h-12.1v6.5h-1.8L3489.9,1722L3489.9,1722z"/>
	<path id="_x3C_Compound_Path_x3E_opacity:10_00000127760316841732715410000012685518697113519528_" fill="#E8E766" d="
		M3494.8,1733.8h1.7v5.3h-1.7V1733.8z"/>
	<path id="_x3C_Compound_Path_x3E_opacity:10_00000168111938390051115950000010991944148936673215_" fill="#E8E766" d="M3491.8,1753
		c-0.4-0.3-1.3-1.2-1.6-1.7c-0.2-0.4-0.4-0.9-0.4-1.3v-3.9c0-1.2,1-2.2,1.9-2.9c0.3-0.2,0.6-0.3,1.2-0.6l0.5,1.8
		c-0.2,0.1-0.4,0.2-0.4,0.2c-0.5,0.3-1.1,1-1.3,1.3c-0.1,0.1-0.1,0.2-0.1,0.2v3.7c0,0.1,0,0.1,0.1,0.2c0.2,0.4,1,1.3,1.4,1.3h1.4
		c0.4,0,0.7-0.3,0.8-0.5l1.6-6.3c0.3-1.1,1.3-1.6,2.4-1.6h1.4c0.4,0,0.8,0.1,1.2,0.3c0.4,0.3,1.4,1.2,1.6,1.7
		c0.2,0.4,0.4,0.9,0.4,1.3v3.4c0,1.2-1,2.2-1.9,2.9c-0.2,0.2-0.6,0.4-1.2,0.6l-0.5-1.9c0.4-0.2,0.5-0.2,0.5-0.2
		c0.5-0.2,1.1-1,1.3-1.3c0,0,0-0.1,0-0.2v-3.2c0-0.1,0-0.2,0-0.2c-0.2-0.3-1.1-1.3-1.4-1.3h-1.3c-0.3,0-0.7,0.2-0.7,0.5l-1.7,6.3
		c-0.3,1-1.3,1.7-2.3,1.7h-1.6C3492.7,1753.3,3492.2,1753.2,3491.8,1753z"/>
	<path id="_x3C_Compound_Path_x3E_opacity:10_00000034768245326067344720000009228646224332959637_" fill="#E8E766" d="
		M3491.7,1766.6c-0.8-0.7-1.9-1.6-1.9-2.8v-3.1c0-0.4,0.2-1,0.4-1.3c0.3-0.5,1.2-1.4,1.6-1.7c0.4-0.2,0.8-0.3,1.2-0.3h7.6
		c0.4,0,0.8,0.1,1.2,0.3c0.4,0.3,1.4,1.2,1.6,1.7c0.2,0.4,0.4,0.9,0.4,1.3v3.1c0,1.2-1,2.2-1.9,2.8c-0.2,0.2-0.6,0.4-1.2,0.6
		l-0.5-1.9c0.7-0.2,1.4-1,1.8-1.5c0,0,0-0.1,0-0.2v-2.9c0-0.1,0-0.2,0-0.2c-0.2-0.3-0.8-1-1.2-1.3c-0.1-0.1-0.2-0.1-0.3-0.1h-7.4
		c-0.4,0-1.2,0.9-1.4,1.3c0,0.1-0.1,0.1-0.1,0.2v2.9c0,0.1,0,0.2,0.1,0.2c0.3,0.5,1,1.2,1.7,1.5l-0.5,1.9
		C3492.5,1767,3492,1766.8,3491.7,1766.6z"/>
	<path id="_x3C_Compound_Path_x3E_opacity:10_00000134960071594634498400000014810588101524794267_" fill="#E8E766" d="M3491.8,1781
		c-0.4-0.3-1.3-1.2-1.6-1.7c-0.2-0.4-0.4-0.9-0.4-1.3v-3.6c0-0.4,0.2-0.9,0.4-1.3c0.3-0.5,1.2-1.4,1.6-1.7c0.4-0.2,0.8-0.3,1.2-0.3
		h7.6c0.4,0,0.8,0.1,1.2,0.3c0.4,0.3,1.4,1.2,1.6,1.7c0.2,0.4,0.4,0.9,0.4,1.3v3.6c0,0.4-0.2,1-0.4,1.3c-0.3,0.5-1.2,1.4-1.6,1.7
		c-0.4,0.2-0.8,0.3-1.2,0.3h-7.6C3492.6,1781.4,3492.2,1781.3,3491.8,1781z M3500.6,1779.5c0.1,0,0.2,0,0.2-0.1
		c0.5-0.2,1.1-0.9,1.2-1.3c0,0,0-0.1,0-0.2v-3.5c0-0.1,0-0.2,0-0.2c-0.2-0.4-1.1-1.3-1.5-1.3h-7.5c-0.4,0-1.3,1-1.4,1.3
		c0,0-0.1,0.1-0.1,0.2v3.5c0,0.1,0,0.2,0.1,0.2c0.2,0.4,1,1.3,1.4,1.3L3500.6,1779.5L3500.6,1779.5z"/>
	<path id="_x3C_Compound_Path_x3E_opacity:10_00000003794084870144203390000013374308619053866913_" fill="#E8E766" d="M3497.4,1795
		c-0.3-0.2-1-0.9-1.2-1.3c-0.3-0.4-0.5-1-0.5-1.5v-4.6h-5.8v-1.9h13.9v6.5c0,0.5-0.2,1.1-0.5,1.5c-0.2,0.3-0.9,1-1.2,1.2
		c-0.4,0.2-0.9,0.4-1.3,0.4h-2.1C3498.2,1795.4,3497.8,1795.3,3497.4,1795z M3500.8,1793.5c0.1,0,0.2,0,0.2-0.1c0.3-0.1,1-0.8,1-1.1
		c0-0.1,0-0.1,0-0.1v-4.6h-4.5v4.6c0,0.4,0.6,1,0.9,1.2c0.1,0,0.2,0.1,0.3,0.1H3500.8z"/>
	<path id="_x3C_Compound_Path_x3E_opacity:10_00000132796926672560679360000016858043950699554703_" fill="#E8E766" d="
		M3489.9,1799.3h13.9v8.5h-1.8v-6.6h-4.2v6.2h-1.8v-6.2h-4.2v6.6h-1.8L3489.9,1799.3L3489.9,1799.3z"/>
	<path id="_x3C_Compound_Path_x3E_opacity:10_00000106848971810902234400000001783649875448937636_" fill="#E8E766" d="
		M3491.8,1828.8c-0.4-0.3-1.3-1.2-1.6-1.7c-0.2-0.4-0.4-0.9-0.4-1.3v-3.6c0-0.4,0.2-0.9,0.4-1.3c0.3-0.5,1.2-1.4,1.6-1.7
		c0.4-0.2,0.8-0.3,1.2-0.3h7.6c0.4,0,0.8,0.1,1.2,0.3c0.4,0.3,1.4,1.2,1.6,1.7c0.2,0.4,0.4,0.9,0.4,1.3v3.6c0,0.4-0.2,1-0.4,1.3
		c-0.3,0.5-1.2,1.4-1.6,1.7c-0.4,0.2-0.8,0.3-1.2,0.3h-7.6C3492.6,1829.1,3492.2,1829,3491.8,1828.8z M3500.6,1827.2
		c0.1,0,0.2,0,0.2-0.1c0.5-0.2,1.1-0.9,1.2-1.3c0-0.1,0-0.1,0-0.2v-3.5c0-0.1,0-0.2,0-0.2c-0.2-0.4-1.1-1.3-1.5-1.3h-7.5
		c-0.4,0-1.3,1-1.4,1.3c0,0-0.1,0.1-0.1,0.2v3.5c0,0.1,0,0.2,0.1,0.2c0.2,0.4,1,1.3,1.4,1.3L3500.6,1827.2L3500.6,1827.2z"/>
	<path id="_x3C_Compound_Path_x3E_opacity:10_00000008859764393513303680000009547757297427659404_" fill="#E8E766" d="
		M3489.9,1839.3v-2.5l13.9-4.6v2l-11.8,3.8l11.8,3.8v2L3489.9,1839.3z"/>
	<path id="_x3C_Compound_Path_x3E_opacity:10_00000038401383774231689080000009810289071373276055_" fill="#E8E766" d="
		M3489.9,1847.2h13.9v8.5h-1.8v-6.6h-4.2v6.2h-1.8v-6.2h-4.2v6.6h-1.8L3489.9,1847.2L3489.9,1847.2z"/>
	<path id="_x3C_Compound_Path_x3E_opacity:10_00000070091699407749764310000015369875575662182280_" fill="#E8E766" d="
		M3489.9,1868.5l5.8-3.3v-3.2h-5.8v-1.9h13.9v6.5c0,0.5-0.2,1.1-0.5,1.5c-0.2,0.3-0.9,1-1.2,1.2c-0.4,0.2-0.9,0.4-1.3,0.4h-2.1
		c-0.5,0-0.9-0.1-1.3-0.4c-0.3-0.2-1-0.9-1.2-1.2c-0.2-0.3-0.4-0.7-0.4-1l-5.8,3.4L3489.9,1868.5L3489.9,1868.5z M3500.7,1868
		c0,0,0.2,0,0.3,0c0.2-0.1,1-0.8,1-1.1c0-0.1,0-0.1,0-0.2v-4.6h-4.5v4.6c0,0.4,0.6,1.1,1,1.3c0.1,0,0.2,0,0.3,0L3500.7,1868
		L3500.7,1868z"/>
	<path id="_x3C_Compound_Path_x3E_opacity:10_00000104698259810681340980000008782938235919735948_" fill="#E8E766" d="
		M3489.9,1882.5h6v-6h-6v-1.9h13.9v1.9h-6v6h6v1.9h-13.9V1882.5z"/>
	<path id="_x3C_Compound_Path_x3E_opacity:10_00000015333287162184827580000009503230570910913926_" fill="#E8E766" d="
		M3489.9,1888.9h13.9v8.5h-1.8v-6.6h-4.2v6.2h-1.8v-6.2h-4.2v6.6h-1.8L3489.9,1888.9L3489.9,1888.9z"/>
	<path id="_x3C_Compound_Path_x3E_opacity:10_00000170255884918962170750000009138316674018232742_" fill="#E8E766" d="
		M3489.9,1910.9l3.1-1v-6l-3.1-1.1v-2l13.9,4.8v2.5l-13.9,4.8V1910.9z M3501.9,1906.9l-7.1-2.4v4.8L3501.9,1906.9z"/>
	<path id="_x3C_Compound_Path_x3E_opacity:10_00000129198121595502619300000013681992356835847604_" fill="#E8E766" d="M3502,1919.9
		h-12.1v-1.9h12.1v-4h1.8v9.8h-1.8V1919.9z"/>
	<path id="_x3C_Compound_Path_x3E_opacity:10_00000095324963608228510850000013797819120052530327_" fill="#E8E766" d="
		M3489.9,1942.9c0.3,0,0.6-0.1,0.8-0.2c-0.4-0.5-0.9-0.9-0.9-1.7v-3.6c0-0.4,0.2-1,0.4-1.3c0.3-0.5,1.2-1.4,1.6-1.7
		c0.4-0.2,0.8-0.3,1.2-0.3h7.6c0.4,0,0.8,0.1,1.2,0.3c0.4,0.3,1.4,1.2,1.6,1.7c0.2,0.4,0.4,0.9,0.4,1.3v3.6c0,1.2-1,2.2-1.9,2.9
		c-0.2,0.2-0.6,0.4-1.2,0.6l-0.5-1.9c0.4-0.2,0.5-0.2,0.5-0.2c0.5-0.2,1.1-0.9,1.3-1.3c0,0,0-0.1,0-0.2v-3.4c0-0.1,0-0.2,0-0.2
		c-0.2-0.3-0.8-1.1-1.3-1.3c0,0-0.1-0.1-0.2-0.1h-7.5c-0.4,0-1.3,1-1.5,1.4c0,0,0,0.1,0,0.2v3.3c0,0.1,0,0.1,0.1,0.2
		c0.2,0.4,1.1,1.4,1.5,1.4h2.9v-3.2h1.8v5.1h-4.6c-0.9,0-1.8,0.2-3.2,0.4v-1.8H3489.9z"/>
	<path id="_x3C_Compound_Path_x3E_opacity:10_00000080178471404564739200000015164087476355701901_" fill="#E8E766" d="
		M3489.9,1957.4l5.8-3.3v-3.2h-5.8v-1.9h13.9v6.5c0,0.5-0.2,1.1-0.5,1.5c-0.2,0.3-0.9,1-1.2,1.2c-0.4,0.2-0.9,0.4-1.3,0.4h-2.1
		c-0.5,0-0.9-0.1-1.3-0.4c-0.3-0.2-1-0.9-1.2-1.2c-0.2-0.3-0.4-0.7-0.4-1l-5.8,3.4L3489.9,1957.4L3489.9,1957.4z M3500.7,1956.9
		c0,0,0.2,0,0.3,0c0.2-0.1,1-0.8,1-1.1c0-0.1,0-0.1,0-0.2v-4.6h-4.5v4.6c0,0.4,0.6,1.1,1,1.3c0.1,0,0.2,0,0.3,0L3500.7,1956.9
		L3500.7,1956.9z"/>
	<path id="_x3C_Compound_Path_x3E_opacity:10_00000001635597311738868950000009287248962119437204_" fill="#E8E766" d="
		M3489.9,1963.5h13.9v1.9h-13.9V1963.5z"/>
	<path id="_x3C_Compound_Path_x3E_opacity:10_00000125596005920934548020000014294030023803488442_" fill="#E8E766" d="
		M3491.9,1979.3c-0.4-0.3-1.3-1.2-1.6-1.7c-0.2-0.4-0.4-0.9-0.4-1.3v-6.4h13.9v6.4c0,0.4-0.1,0.9-0.4,1.3c-0.3,0.5-1.3,1.4-1.7,1.7
		c-0.4,0.2-0.8,0.3-1.2,0.3h-7.4C3492.7,1979.6,3492.3,1979.5,3491.9,1979.3z M3500.5,1977.7c0.1,0,0.1,0,0.2,0
		c0.5-0.2,1.1-1,1.3-1.3c0,0,0-0.1,0-0.2v-4.4h-10.3v4.4c0,0.1,0,0.2,0,0.2c0.2,0.4,1,1.4,1.4,1.4L3500.5,1977.7L3500.5,1977.7z"/>
	<path id="_x3C_Compound_Path_x3E_opacity:10_00000128485055951432476010000009453173247692960430_" fill="#E8E766" d="
		M3489.9,1996.4v-2.5l13.9-4.6v2l-11.8,3.9l11.8,3.8v2L3489.9,1996.4z"/>
	<path id="_x3C_Compound_Path_x3E_opacity:10_00000153677182216603692280000005128664320571992252_" fill="#E8E766" d="
		M3491.5,2012.7c-0.3-0.2-1-0.9-1.2-1.2c-0.3-0.4-0.5-1-0.5-1.5v-2.6c0-1.2,1-2.2,1.9-2.9c0.2-0.2,0.6-0.4,1.2-0.6l0.5,1.9
		c-0.2,0.1-0.3,0.1-0.5,0.3c-0.4,0.3-1,0.9-1.2,1.2c0,0,0,0.1,0,0.2v2.5c0,0.4,0.7,1,1,1.2c0.1,0.1,0.2,0.1,0.3,0.1h2
		c0.1,0,0.2,0,0.2,0c0.4-0.2,1-0.8,1-1.2v-2.5h1.8v2.5c0,0.1,0,0.2,0.1,0.2c0.2,0.3,0.6,0.7,0.9,0.9c0.1,0.1,0.2,0.1,0.3,0.1h1.8
		c0.1,0,0.2,0,0.3,0c0.3-0.2,0.8-0.6,1-0.9c0-0.1,0-0.2,0-0.3v-2.5c0-0.1,0-0.2,0-0.2c-0.2-0.3-0.8-1-1.3-1.3c0,0-0.1-0.1-0.5-0.2
		l0.5-1.9c0.6,0.3,1,0.5,1.2,0.6c0.4,0.3,1.2,1,1.5,1.5c0.2,0.4,0.4,0.9,0.4,1.3v2.6c0,0.5-0.2,1.1-0.5,1.5c-0.2,0.3-1,1-1.3,1.2
		c-0.4,0.3-0.8,0.4-1.3,0.4h-1.9c-1,0-1.5-0.5-2.1-1.1c-0.6,0.6-1.1,1.1-2.1,1.1h-2C3492.3,2013.1,3491.9,2013,3491.5,2012.7z"/>
	<path id="_x3C_Compound_Path_x3E_opacity:10_00000022549085111144170570000000910803655020659594_" fill="#E8E766" d="
		M3489.9,2017.7h2.4v2.4h-2.4V2017.7z"/>
	<path id="_x3C_Compound_Path_x3E_opacity:10_00000112626621928065107170000007281125475951032981_" fill="#E8E766" d="
		M3493.3,2026.3c-0.2,0.1-0.4,0.2-0.4,0.2c-0.5,0.3-1,0.8-1.2,1.2c0,0.1,0,0.2,0,0.3v2.5c0,0.1,0,0.2,0,0.2c0.2,0.3,0.6,0.8,1,1
		c0,0,0.1,0,0.2,0h2.9c-0.4-0.5-0.7-1-0.7-1.7v-2.4c0-0.5,0.2-1.1,0.5-1.5c0.2-0.3,0.9-1,1.2-1.2c0.4-0.3,0.9-0.4,1.3-0.4h2.9
		c0.5,0,0.9,0.1,1.3,0.4c0.3,0.2,1,0.9,1.2,1.2c0.3,0.4,0.5,1,0.5,1.5v2.9c0,0.5-0.2,1.1-0.5,1.5c-0.2,0.3-1,1-1.2,1.2
		c-0.4,0.3-0.9,0.4-1.3,0.4h-8.1c-0.5,0-0.9-0.1-1.3-0.4c-0.3-0.2-1-0.9-1.2-1.2c-0.3-0.4-0.5-1-0.5-1.5v-2.6c0-0.4,0.1-0.9,0.4-1.3
		c0.3-0.5,1.1-1.2,1.5-1.5c0.2-0.2,0.6-0.4,1.2-0.6L3493.3,2026.3z M3498,2026.4c-0.1,0-0.2,0-0.2,0.1c-0.3,0.2-1,0.8-1,1.2v2.3
		c0,0.1,0,0.2,0,0.2c0.2,0.5,0.8,1.3,1.3,1.6h2.7c0.1,0,0.2,0,0.2,0c0.3-0.2,1-0.8,1-1.2v-2.9c0-0.4-0.7-1.1-1-1.2
		c0,0-0.1-0.1-0.2-0.1H3498z"/>
	<path id="_x3C_Compound_Path_x3E_opacity:10" fill="#E8E766" d="M3489.9,2038.5h1.7v3.2h10.4v-2.7h1.8v4.6h-12.2v3h-1.7V2038.5z"/>
</g>
<path id="_x3C_Path_x3E_opacity:10_00000081630321002098937900000009429701455553238153_" fill="none" stroke="#E8E766" stroke-width="2" stroke-miterlimit="10" d="
	M3662,718.6V402.2c0-77.5-62.8-140.4-140.4-140.4h-1272c-24.9,0-48.8,9.9-66.4,27.5l-0.5,0.5c-17.1,17.1-40.2,27-64.4,27.5
	c-68.2,1.4-210-0.9-210-0.9"/>
<path id="_x3C_Path_x3E_opacity:10_00000013158739329408442080000000115959824977396878_" fill="none" stroke="#E8E766" stroke-width="2" stroke-miterlimit="10" d="
	M1908.2,2576.5h89.5c24.9,0,48.8,9.9,66.4,27.5l12.9,12.9c17.6,17.6,41.5,27.5,66.4,27.5H3475c77.5,0,140.4-62.8,140.4-140.4v-334.1
	c0-24.9-9.9-48.8-27.5-66.4l-27.5-27.5c-17.6-17.6-27.5-41.5-27.5-66.4v-404.9"/>
<path id="_x3C_Path_x3E_opacity:10_00000041268255632027579390000000025090691847232912_" fill="none" stroke="#E8E766" stroke-width="0.6276" stroke-miterlimit="10" d="
	M3616.1,1556.6"/>
<path id="_x3C_Path_x3E_opacity:10" fill="none" stroke="#E8E766" stroke-width="2" stroke-miterlimit="10" d="M154.1,718.6V402.2
	c0-77.5,62.8-140.4,140.4-140.4h1272.1c24.9,0,48.8,9.9,66.4,27.5l0.5,0.5c17.1,17.1,40.2,27,64.4,27.5c68.2,1.4,210-0.9,210-0.9"/>
<path id="_x3C_Path_x3E_opacity:10_00000031198133240822553520000009954823900985027003_" fill="none" stroke="#E8E766" stroke-width="2" stroke-miterlimit="10" d="
	M1907.9,2576.5h-89.5c-24.9,0-48.8,9.9-66.4,27.5l-12.9,12.9c-17.6,17.6-41.5,27.5-66.4,27.5H341.1c-77.5,0-140.4-62.8-140.4-140.4
	v-334.1c0-24.9,9.9-48.8,27.5-66.4l27.5-27.5c17.6-17.6,27.5-41.5,27.5-66.4v-404.9"/>
</svg>
