<?xml version="1.0" encoding="utf-8"?>
<!-- Generator: Adobe Illustrator 29.5.1, SVG Export Plug-In . SVG Version: 9.03 Build 0)  -->
<svg version="1.1" baseProfile="tiny" id="Layer_1" xmlns="http://www.w3.org/2000/svg" xmlns:xlink="http://www.w3.org/1999/xlink"
	 x="0px" y="0px" viewBox="0 0 271.8 210.1" overflow="visible" xml:space="preserve">
<g id="BG" display="none">
	<rect y="0" display="inline" fill="#2D2828" width="271.8" height="210.1"/>
</g>
<g id="Venetian_Blinds_Effect">
</g>
<g id="Vignette">
</g>
<g id="Frame">
</g>
<g id="Center_x5F_Target_x5F_Greeble">
</g>
<g id="Heat_x5F_Bars">
</g>
<g id="Top_x5F_Bottom_x5F_Frame">
</g>
<g id="Heat_x5F_Indicators">
	<polygon fill="#E8E766" points="263.4,145.8 261.5,145.8 261.5,146 263.4,146 263.4,146.1 266.9,146.1 266.9,145.7 263.4,145.7 	
		"/>
	<polygon fill="#E8E766" points="263.4,140 261.5,140 261.5,140.2 263.4,140.2 263.4,140.3 266.9,140.3 266.9,139.9 263.4,139.9 	
		"/>
	<polygon fill="#E8E766" points="263.4,134.2 261.5,134.2 261.5,134.3 263.4,134.3 263.4,134.4 266.9,134.4 266.9,134 263.4,134 	
		"/>
	<polygon fill="#E8E766" points="263.4,128.3 261.5,128.3 261.5,128.5 263.4,128.5 263.4,128.6 266.9,128.6 266.9,128.2 
		263.4,128.2 	"/>
	<polygon fill="#E8E766" points="263.4,122.5 261.5,122.5 261.5,122.6 263.4,122.6 263.4,122.8 266.9,122.8 266.9,122.4 
		263.4,122.4 	"/>
	<polygon fill="#E8E766" points="263.4,116.6 261.5,116.6 261.5,116.8 263.4,116.8 263.4,116.9 266.9,116.9 266.9,116.5 
		263.4,116.5 	"/>
	<polygon fill="#E8E766" points="263.4,110.8 261.5,110.8 261.5,111 263.4,111 263.4,111.1 266.9,111.1 266.9,110.7 263.4,110.7 	
		"/>
	<polygon fill="#E8E766" points="263.4,105 259.9,105 259.9,105.1 263.4,105.1 263.4,105.3 266.9,105.3 266.9,104.8 263.4,104.8 	
		"/>
	<polygon fill="#E8E766" points="263.4,99.1 256.5,99.1 256.5,99.3 263.4,99.3 263.4,99.4 266.9,99.4 266.9,99 263.4,99 	"/>
	<polygon fill="#E8E766" points="263.4,93.3 253.1,93.3 253.1,93.5 263.4,93.5 263.4,93.6 266.9,93.6 266.9,93.2 263.4,93.2 	"/>
	<polygon fill="#E8E766" points="263.4,87.5 253.1,87.5 253.1,87.6 263.4,87.6 263.4,87.7 266.9,87.7 266.9,87.3 263.4,87.3 	"/>
	<polygon fill="#E8E766" points="263.4,81.6 253.1,81.6 253.1,81.8 263.4,81.8 263.4,81.9 266.9,81.9 266.9,81.5 263.4,81.5 	"/>
	<polygon fill="#E8E766" points="263.4,75.8 253.1,75.8 253.1,75.9 263.4,75.9 263.4,76.1 266.9,76.1 266.9,75.7 263.4,75.7 	"/>
	<polygon fill="#E8E766" points="263.4,69.9 253.1,69.9 253.1,70.1 263.4,70.1 263.4,70.2 266.9,70.2 266.9,69.8 263.4,69.8 	"/>
	<polygon fill="#E8E766" points="263.4,64 263.4,64.1 253.1,64.1 253.1,64.3 263.4,64.3 263.4,64.4 266.9,64.4 266.9,64 	"/>
	<polygon fill="#E8E766" points="8.4,145.7 5,145.7 5,146.1 8.4,146.1 8.4,146 10.3,146 10.3,145.8 8.4,145.8 	"/>
	<polygon fill="#E8E766" points="8.4,139.9 5,139.9 5,140.3 8.4,140.3 8.4,140.2 10.3,140.2 10.3,140 8.4,140 	"/>
	<polygon fill="#E8E766" points="8.4,134 5,134 5,134.4 8.4,134.4 8.4,134.3 10.3,134.3 10.3,134.2 8.4,134.2 	"/>
	<polygon fill="#E8E766" points="8.4,128.2 5,128.2 5,128.6 8.4,128.6 8.4,128.5 10.3,128.5 10.3,128.3 8.4,128.3 	"/>
	<polygon fill="#E8E766" points="8.4,122.4 5,122.4 5,122.8 8.4,122.8 8.4,122.6 10.3,122.6 10.3,122.5 8.4,122.5 	"/>
	<polygon fill="#E8E766" points="8.4,116.5 5,116.5 5,116.9 8.4,116.9 8.4,116.8 10.3,116.8 10.3,116.6 8.4,116.6 	"/>
	<polygon fill="#E8E766" points="8.4,110.7 5,110.7 5,111.1 8.4,111.1 8.4,111 10.3,111 10.3,110.8 8.4,110.8 	"/>
	<polygon fill="#E8E766" points="8.4,104.8 5,104.8 5,105.3 8.4,105.3 8.4,105.1 12,105.1 12,105 8.4,105 	"/>
	<polygon fill="#E8E766" points="8.4,99 5,99 5,99.4 8.4,99.4 8.4,99.3 15.3,99.3 15.3,99.1 8.4,99.1 	"/>
	<polygon fill="#E8E766" points="8.4,93.2 5,93.2 5,93.6 8.4,93.6 8.4,93.5 18.7,93.5 18.7,93.3 8.4,93.3 	"/>
	<polygon fill="#E8E766" points="8.4,87.3 5,87.3 5,87.7 8.4,87.7 8.4,87.6 18.7,87.6 18.7,87.5 8.4,87.5 	"/>
	<polygon fill="#E8E766" points="8.4,81.5 5,81.5 5,81.9 8.4,81.9 8.4,81.8 18.7,81.8 18.7,81.6 8.4,81.6 	"/>
	<polygon fill="#E8E766" points="8.4,75.7 5,75.7 5,76.1 8.4,76.1 8.4,75.9 18.7,75.9 18.7,75.8 8.4,75.8 	"/>
	<polygon fill="#E8E766" points="8.4,69.8 5,69.8 5,70.2 8.4,70.2 8.4,70.1 18.7,70.1 18.7,69.9 8.4,69.9 	"/>
	<polygon fill="#E8E766" points="8.4,64.1 8.4,64 5,64 5,64.4 8.4,64.4 8.4,64.3 18.7,64.3 18.7,64.1 	"/>
	<path fill="#E8E766" d="M12.7,60.4L12.1,61c-0.1,0.1-0.2,0.1-0.3,0l-0.6-0.6c-0.1-0.1,0-0.3,0.1-0.3h1.3
		C12.8,60.1,12.9,60.3,12.7,60.4z"/>
	<path fill="#E8E766" d="M259.5,60.4l-0.6,0.6c-0.1,0.1-0.2,0.1-0.3,0l-0.6-0.6c-0.1-0.1,0-0.3,0.1-0.3h1.3
		C259.6,60.1,259.7,60.3,259.5,60.4z"/>
</g>
<g id="Inner_x5F_Frame_x5F_Greeble">
</g>
<g id="Bottom_x5F_Footer_x5F_Greebles">
</g>
</svg>
