<?xml version="1.0" encoding="utf-8"?>
<!-- Generator: Adobe Illustrator 28.7.4, SVG Export Plug-In . SVG Version: 9.03 Build 55973)  -->
<svg version="1.1" baseProfile="tiny" id="A" xmlns="http://www.w3.org/2000/svg" xmlns:xlink="http://www.w3.org/1999/xlink"
	 x="0px" y="0px" viewBox="0 0 107.7 1005.4" overflow="visible" xml:space="preserve">
<polygon id="opacity:25_00000114044418029242960780000012899305529642559647_" fill="#494849" points="9.2,986.7 18.8,996.2 
	38,996.2 47.2,1005.4 14.9,1005.4 0,990.5 0,972.8 9.2,972.8 "/>
<polygon id="opacity:25_00000045579566348727942480000018198746618804497046_" fill-rule="evenodd" fill="#494849" points="14.9,0 
	47.2,0 38,9.2 18.8,9.2 9.2,18.8 9.2,49.6 0,40.4 0,14.9 "/>
<rect id="opacity:75_00000005976532689746206160000001042414461002080648_" x="98.5" y="808.6" fill="#C85628" width="9.2" height="153.9"/>
<polygon id="opacity:75_00000067937127200064453240000005074285538695770546_" fill="#494849" points="98.5,798.3 107.7,798.3 
	107.7,50.8 98.5,59 "/>
<polygon id="opacity:75_00000128481842900105664800000011037782332960856478_" fill="#C85628" points="98.5,972.8 98.5,986.6 
	88.9,996.2 69.7,996.2 60.5,1005.4 92.7,1005.4 107.6,990.5 107.6,972.8 "/>
<polygon id="opacity:25_00000006667120945280907170000017110394839750949818_" fill="#494849" points="0,50.8 0,962.5 9.2,962.5 
	9.2,60 "/>
<polygon id="opacity:75" fill="#494849" points="92.7,0 60.4,0 69.6,9.2 88.9,9.2 98.4,18.8 98.4,49.6 107.6,40.4 107.6,14.9 "/>
</svg>
