<?xml version="1.0" encoding="utf-8"?>
<!-- Generator: Adobe Illustrator 25.0.0, SVG Export Plug-In . SVG Version: 6.00 Build 0)  -->
<svg version="1.1" baseProfile="tiny" id="animated"
	 xmlns="http://www.w3.org/2000/svg" xmlns:xlink="http://www.w3.org/1999/xlink" x="0px" y="0px" width="100px" height="25px"
	 viewBox="0 0 100 25" overflow="visible" xml:space="preserve">
<g>
	<path d="M2.7,11.6h-2v2h2V11.6z"/>
	<path d="M5,11.6H3v2h2V11.6z"/>
	<path d="M7.3,11.6h-2v2h2V11.6z"/>
	<path d="M9.6,11.6h-2v2h2V11.6z"/>
	<path d="M11.9,11.6h-2v2h2V11.6z"/>
	<path d="M14.2,11.6h-2v2h2V11.6z"/>
	<path d="M16.5,11.6h-2v2h2V11.6z"/>
	<path d="M18.8,11.6h-2v2h2V11.6z"/>
	<path d="M21.1,11.6h-2v2h2V11.6z"/>
	<path d="M23.4,11.6h-2v2h2V11.6z"/>
	<path d="M25.7,11.6h-2v2h2V11.6z"/>
	<path d="M28,11.6h-2v2h2V11.6z"/>
	<path d="M30.3,11.6h-2v2h2V11.6z"/>
	<path d="M32.6,11.6h-2v2h2V11.6z"/>
	<path d="M34.9,11.6h-2v2h2V11.6z"/>
	<path d="M37.2,11.6h-2v2h2V11.6z"/>
	<path d="M39.5,10.9h-2v3.2h2V10.9z"/>
	<path d="M41.8,14.7v-4.3h-2v4.3H41.8z"/>
	<path d="M44.1,9.9h-2v5.4h2V9.9z"/>
	<path d="M46.4,10.4h-2v4.3h2V10.4z"/>
	<path d="M48.7,10.9h-2v3.2h2V10.9z"/>
	<path d="M51,11.6h-2v2h2V11.6z"/>
	<path d="M53.3,11.6h-2v2h2V11.6z"/>
	<path d="M55.6,10.6h-2v3.7h2V10.6z"/>
	<path d="M57.9,9.4h-2v6.4h2V9.4z"/>
	<path d="M60.2,10.6h-2v3.7h2V10.6z"/>
	<path d="M62.5,11.6h-2v2h2V11.6z"/>
	<path d="M64.8,11.6h-2v2h2V11.6z"/>
	<path d="M67.1,11.6h-2v2.1h2V11.6z"/>
	<path d="M69.3,11.2h-2V14h2V11.2z"/>
	<path d="M71.7,10.6h-2v4h2V10.6z"/>
	<path d="M73.9,10.1h-2v5.1h2V10.1z"/>
	<path d="M76.2,10.6h-2v4h2V10.6z"/>
	<path d="M78.6,11.2h-2V14h2V11.2z"/>
	<path d="M80.8,11.6h-2v2.1h2V11.6z"/>
	<path d="M83.2,11.6h-2v2h2V11.6z"/>
	<path d="M85.5,11h-2v3.1h2V11z"/>
	<path d="M87.8,10.6h-2v3.9h2V10.6z"/>
	<path d="M90.1,10h-2v5.1h2V10z"/>
	<path d="M92.4,10.6h-2v3.9h2V10.6z"/>
	<path d="M94.8,11h-2v3.1h2V11z"/>
	<path d="M97.1,11.6h-2v2h2V11.6z"/>
	<path d="M99.4,11.6h-2v2h2V11.6z"/>
</g>
<g>
	<path d="M2.7,11.6h-2v2h2V11.6z"/>
	<path d="M5,9.3H3v6.1h2V9.3z"/>
	<path d="M7.3,7h-2v10.7h2V7z"/>
	<path d="M9.6,4h-2v16.8h2V4z"/>
	<path d="M11.9,7h-2v10.7h2V7z"/>
	<path d="M14.2,9.3h-2v6.1h2V9.3z"/>
	<path d="M16.5,11.6h-2v2h2V11.6z"/>
	<path d="M18.8,11.6h-2v2h2V11.6z"/>
	<path d="M21.1,11.6h-2v2h2V11.6z"/>
	<path d="M23.4,11.6h-2v2h2V11.6z"/>
	<path d="M25.7,11.6h-2v2h2V11.6z"/>
	<path d="M28,11.6h-2v2h2V11.6z"/>
	<path d="M30.3,11.6h-2v2h2V11.6z"/>
	<path d="M32.6,10.6h-2v3.9h2V10.6z"/>
	<path d="M34.9,11.6h-2v2h2V11.6z"/>
	<path d="M37.2,11.1h-2V14h2V11.1z"/>
	<path d="M39.5,10.2h-2v4.7h2V10.2z"/>
	<path d="M41.8,15.6V9.5h-2v6.1H41.8z"/>
	<path d="M44.1,8.6h-2v7.8h2V8.6z"/>
	<path d="M46.4,9.5h-2v6.1h2V9.5z"/>
	<path d="M48.7,10.2h-2v4.7h2V10.2z"/>
	<path d="M51,11.1h-2V14h2V11.1z"/>
	<path d="M53.3,11.6h-2v2h2V11.6z"/>
	<path d="M55.6,9.4h-2v6.2h2V9.4z"/>
	<path d="M57.9,7.2h-2V18h2V7.2z"/>
	<path d="M60.2,9.4h-2v6.2h2V9.4z"/>
	<path d="M62.5,11.6h-2v2h2V11.6z"/>
	<path d="M64.8,11.6h-2v2h2V11.6z"/>
	<path d="M67.1,11.1h-2v3h2V11.1z"/>
	<path d="M69.3,10.6h-2v4h2V10.6z"/>
	<path d="M71.7,9.8h-2v5.6h2V9.8z"/>
	<path d="M73.9,9.1h-2v7.2h2V9.1z"/>
	<path d="M76.2,9.8h-2v5.6h2V9.8z"/>
	<path d="M78.6,10.6h-2v4h2V10.6z"/>
	<path d="M80.8,11.1h-2v3h2V11.1z"/>
	<path d="M83.2,11.6h-2v2h2V11.6z"/>
	<path d="M85.5,10.7h-2v3.7h2V10.7z"/>
	<path d="M87.8,10.2h-2v4.7h2V10.2z"/>
	<path d="M90.1,9.5h-2v6.1h2V9.5z"/>
	<path d="M92.4,10.2h-2v4.7h2V10.2z"/>
	<path d="M94.8,10.7h-2v3.7h2V10.7z"/>
	<path d="M97.1,11.6h-2v2h2V11.6z"/>
	<path d="M99.4,11.6h-2v2h2V11.6z"/>
</g>
<g>
	<path d="M2.7,11.6h-2v2h2V11.6z"/>
	<path d="M5,10.1H3v4.7h2V10.1z"/>
	<path d="M7.3,8.6h-2v7.8h2V8.6z"/>
	<path d="M9.6,6.6h-2v11.9h2V6.6z"/>
	<path d="M11.9,8.6h-2v7.8h2V8.6z"/>
	<path d="M14.2,10.1h-2v4.7h2V10.1z"/>
	<path d="M16.5,11.6h-2v2h2V11.6z"/>
	<path d="M18.8,11.6h-2v2h2V11.6z"/>
	<path d="M21.1,11.6h-2v2h2V11.6z"/>
	<path d="M23.4,11.6h-2v2h2V11.6z"/>
	<path d="M25.7,11.6h-2v2h2V11.6z"/>
	<path d="M28,11.6h-2v2h2V11.6z"/>
	<path d="M30.3,11.6h-2v2h2V11.6z"/>
	<path d="M32.6,9.6h-2v5.9h2V9.6z"/>
	<path d="M34.9,11.6h-2v2h2V11.6z"/>
	<path d="M37.2,11.6h-2v2h2V11.6z"/>
	<path d="M39.5,10.9h-2v3.2h2V10.9z"/>
	<path d="M41.8,14.7v-4.3h-2v4.3H41.8z"/>
	<path d="M44.1,9.9h-2v5.4h2V9.9z"/>
	<path d="M46.4,10.4h-2v4.3h2V10.4z"/>
	<path d="M48.7,10.9h-2v3.2h2V10.9z"/>
	<path d="M51,11.6h-2v2h2V11.6z"/>
	<path d="M53.3,11.6h-2v2h2V11.6z"/>
	<path d="M55.6,9.8h-2v5.4h2V9.8z"/>
	<path d="M57.9,7.8h-2v9.3h2V7.8z"/>
	<path d="M60.2,9.8h-2v5.4h2V9.8z"/>
	<path d="M62.5,11.6h-2v2h2V11.6z"/>
	<path d="M64.8,11.6h-2v2h2V11.6z"/>
	<path d="M67,10.9h-2v3.4h2V10.9z"/>
	<path d="M69.3,10.3h-2v4.5h2V10.3z"/>
	<path d="M71.6,9.4h-2v6.3h2V9.4z"/>
	<path d="M73.9,8.7h-2v8.1h2V8.7z"/>
	<path d="M76.2,9.4h-2v6.3h2V9.4z"/>
	<path d="M78.5,10.3h-2v4.5h2V10.3z"/>
	<path d="M80.8,10.9h-2v3.4h2V10.9z"/>
	<path d="M83.2,11.6h-2v2h2V11.6z"/>
	<path d="M85.5,11h-2v3.1h2V11z"/>
	<path d="M87.8,10.6h-2v3.9h2V10.6z"/>
	<path d="M90.1,10h-2v5.1h2V10z"/>
	<path d="M92.4,10.6h-2v3.9h2V10.6z"/>
	<path d="M94.8,11h-2v3.1h2V11z"/>
	<path d="M97.1,11.6h-2v2h2V11.6z"/>
	<path d="M99.4,11.6h-2v2h2V11.6z"/>
</g>
<g>
	<path d="M2.7,11.6h-2v2h2V11.6z"/>
	<path d="M5,10.9H3v3.4h2V10.9z"/>
	<path d="M7.3,10.1h-2v4.9h2V10.1z"/>
	<path d="M9.6,9.1h-2V16h2V9.1z"/>
	<path d="M11.9,10.1h-2v4.9h2V10.1z"/>
	<path d="M14.2,10.9h-2v3.4h2V10.9z"/>
	<path d="M16.5,11.6h-2v2h2V11.6z"/>
	<path d="M18.8,11.6h-2v2h2V11.6z"/>
	<path d="M21.1,10.8h-2v3.5h2V10.8z"/>
	<path d="M23.4,9.6h-2v5.9h2V9.6z"/>
	<path d="M25.7,10.8h-2v3.5h2V10.8z"/>
	<path d="M28,11.6h-2v2h2V11.6z"/>
	<path d="M30.3,11.6h-2v2h2V11.6z"/>
	<path d="M32.6,8.6h-2v7.8h2V8.6z"/>
	<path d="M34.9,11.6h-2v2h2V11.6z"/>
	<path d="M37.2,11.1h-2v3h2V11.1z"/>
	<path d="M39.5,10.1h-2v4.8h2V10.1z"/>
	<path d="M41.8,15.7V9.4h-2v6.3H41.8z"/>
	<path d="M44.1,6.8h-2v11.4h2V6.8z"/>
	<path d="M46.4,9.4h-2v6.3h2V9.4z"/>
	<path d="M48.7,10.1h-2v4.8h2V10.1z"/>
	<path d="M51,11.1h-2v3h2V11.1z"/>
	<path d="M53.3,11.6h-2v2h2V11.6z"/>
	<path d="M55.6,10.2h-2v4.5h2V10.2z"/>
	<path d="M57.9,8.6h-2v7.9h2V8.6z"/>
	<path d="M60.2,10.2h-2v4.5h2V10.2z"/>
	<path d="M62.5,11.6h-2v2h2V11.6z"/>
	<path d="M64.8,11.6h-2v2h2V11.6z"/>
	<path d="M67.1,11.3h-2v2.5h2V11.3z"/>
	<path d="M69.3,10.9h-2v3.3h2V10.9z"/>
	<path d="M71.7,10.2h-2v4.7h2V10.2z"/>
	<path d="M73.9,9.7h-2v6h2V9.7z"/>
	<path d="M76.2,10.2h-2v4.7h2V10.2z"/>
	<path d="M78.6,10.9h-2v3.3h2V10.9z"/>
	<path d="M80.8,11.3h-2v2.5h2V11.3z"/>
	<path d="M83.2,11.6h-2v2h2V11.6z"/>
	<path d="M85.5,11.4h-2v2.4h2V11.4z"/>
	<path d="M87.8,11.1h-2v3h2V11.1z"/>
	<path d="M90.1,10.6h-2v3.9h2V10.6z"/>
	<path d="M92.4,11.1h-2v3h2V11.1z"/>
	<path d="M94.8,11.4h-2v2.4h2V11.4z"/>
	<path d="M97.1,11.6h-2v2h2V11.6z"/>
	<path d="M99.4,11.6h-2v2h2V11.6z"/>
</g>
<g>
	<path d="M2.7,11.6h-2v2h2V11.6z"/>
	<path d="M5,11.6H3v2h2V11.6z"/>
	<path d="M7.3,11.6h-2v2h2V11.6z"/>
	<path d="M9.6,11.6h-2v2h2V11.6z"/>
	<path d="M11.9,11.6h-2v2h2V11.6z"/>
	<path d="M14.2,11.6h-2v2h2V11.6z"/>
	<path d="M16.5,11.6h-2v2h2V11.6z"/>
	<path d="M18.8,11.6h-2v2h2V11.6z"/>
	<path d="M21.1,11.2h-2V14h2V11.2z"/>
	<path d="M23.4,10.6h-2v3.9h2V10.6z"/>
	<path d="M25.7,11.2h-2V14h2V11.2z"/>
	<path d="M28,11.6h-2v2h2V11.6z"/>
	<path d="M30.3,11.6h-2v2h2V11.6z"/>
	<path d="M32.6,9.4h-2v6.4h2V9.4z"/>
	<path d="M34.9,11.6h-2v2h2V11.6z"/>
	<path d="M37.2,11.2h-2v2.7h2V11.2z"/>
	<path d="M39.5,10.6h-2v4.1h2V10.6z"/>
	<path d="M41.8,15.1V9.9h-2v5.2H41.8z"/>
	<path d="M44.1,8.1h-2v9h2V8.1z"/>
	<path d="M46.4,9.9h-2v5.2h2V9.9z"/>
	<path d="M48.7,10.6h-2v4.1h2V10.6z"/>
	<path d="M51,11.2h-2v2.7h2V11.2z"/>
	<path d="M53.3,11.6h-2v2h2V11.6z"/>
	<path d="M55.6,9.9h-2v5.3h2V9.9z"/>
	<path d="M57.9,7.9h-2v9.2h2V7.9z"/>
	<path d="M60.2,9.9h-2v5.3h2V9.9z"/>
	<path d="M62.5,11.6h-2v2h2V11.6z"/>
	<path d="M64.8,11.6h-2v2h2V11.6z"/>
	<path d="M67.1,10.6h-2v4h2V10.6z"/>
	<path d="M69.4,9.9h-2v5.3h2V9.9z"/>
	<path d="M71.7,8.8h-2v7.5h2V8.8z"/>
	<path d="M74,6.6h-2v12h2V6.6z"/>
	<path d="M76.3,8.8h-2v7.5h2V8.8z"/>
	<path d="M78.6,9.9h-2v5.3h2V9.9z"/>
	<path d="M80.9,10.6h-2v4h2V10.6z"/>
	<path d="M83.2,11.6h-2v2h2V11.6z"/>
	<path d="M85.5,10h-2v5.1h2V10z"/>
	<path d="M87.8,9.4h-2v6.4h2V9.4z"/>
	<path d="M90.1,8.4h-2v8.4h2V8.4z"/>
	<path d="M92.4,9.4h-2v6.4h2V9.4z"/>
	<path d="M94.8,10h-2v5.1h2V10z"/>
	<path d="M97.1,11.6h-2v2h2V11.6z"/>
	<path d="M99.4,11.6h-2v2h2V11.6z"/>
</g>
<g>
	<path d="M2.7,11.6h-2v2h2V11.6z"/>
	<path d="M5,11.6H3v2h2V11.6z"/>
	<path d="M7.3,11.6h-2v2h2V11.6z"/>
	<path d="M9.6,11.6h-2v2h2V11.6z"/>
	<path d="M11.9,11.6h-2v2h2V11.6z"/>
	<path d="M14.2,11.6h-2v2h2V11.6z"/>
	<path d="M16.5,11.6h-2v2h2V11.6z"/>
	<path d="M18.8,11.6h-2v2h2V11.6z"/>
	<path d="M21.1,11.6h-2v2h2V11.6z"/>
	<path d="M23.4,11.6h-2v2h2V11.6z"/>
	<path d="M25.7,11.6h-2v2h2V11.6z"/>
	<path d="M28,11.6h-2v2h2V11.6z"/>
	<path d="M30.3,11.6h-2v2h2V11.6z"/>
	<path d="M32.6,10.1h-2V15h2V10.1z"/>
	<path d="M34.9,11.6h-2v2h2V11.6z"/>
	<path d="M37.2,11.3h-2v2.5h2V11.3z"/>
	<path d="M39.5,10.9h-2v3.4h2V10.9z"/>
	<path d="M41.8,14.6v-4.2h-2v4.2H41.8z"/>
	<path d="M44.1,9.2h-2v6.7h2V9.2z"/>
	<path d="M46.4,10.4h-2v4.2h2V10.4z"/>
	<path d="M48.7,10.9h-2v3.4h2V10.9z"/>
	<path d="M51,11.3h-2v2.5h2V11.3z"/>
	<path d="M53.3,11.6h-2v2h2V11.6z"/>
	<path d="M55.6,10.2h-2v4.7h2V10.2z"/>
	<path d="M57.9,8.4h-2v8.2h2V8.4z"/>
	<path d="M60.2,10.2h-2v4.7h2V10.2z"/>
	<path d="M62.5,11.6h-2v2h2V11.6z"/>
	<path d="M64.8,11.6h-2v2h2V11.6z"/>
	<path d="M67.1,10.8h-2v3.5h2V10.8z"/>
	<path d="M69.4,10.2h-2v4.7h2V10.2z"/>
	<path d="M71.7,9.2h-2v6.6h2V9.2z"/>
	<path d="M74,7.3h-2v10.6h2V7.3z"/>
	<path d="M76.3,9.2h-2v6.6h2V9.2z"/>
	<path d="M78.6,10.2h-2v4.7h2V10.2z"/>
	<path d="M80.9,10.8h-2v3.5h2V10.8z"/>
	<path d="M83.2,11.6h-2v2h2V11.6z"/>
	<path d="M85.5,10.2h-2v4.6h2V10.2z"/>
	<path d="M87.8,9.7h-2v5.8h2V9.7z"/>
	<path d="M90.1,8.7h-2v7.6h2V8.7z"/>
	<path d="M92.4,9.7h-2v5.8h2V9.7z"/>
	<path d="M94.8,10.2h-2v4.6h2V10.2z"/>
	<path d="M97.1,11.6h-2v2h2V11.6z"/>
	<path d="M99.4,11.6h-2v2h2V11.6z"/>
</g>
<g>
	<path d="M2.7,11.6h-2v2h2V11.6z"/>
	<path d="M5,11.6H3v2h2V11.6z"/>
	<path d="M7.3,11.6h-2v2h2V11.6z"/>
	<path d="M9.6,11.6h-2v2h2V11.6z"/>
	<path d="M11.9,11.6h-2v2h2V11.6z"/>
	<path d="M14.2,11.6h-2v2h2V11.6z"/>
	<path d="M16.5,11.6h-2v2h2V11.6z"/>
	<path d="M18.8,11.6h-2v2h2V11.6z"/>
	<path d="M21.1,10.8h-2v3.5h2V10.8z"/>
	<path d="M23.4,9.6h-2v5.9h2V9.6z"/>
	<path d="M25.7,10.8h-2v3.5h2V10.8z"/>
	<path d="M28,11.6h-2v2h2V11.6z"/>
	<path d="M30.3,11.6h-2v2h2V11.6z"/>
	<path d="M32.6,10.8h-2v3.5h2V10.8z"/>
	<path d="M34.9,11.6h-2v2h2V11.6z"/>
	<path d="M37.2,11.4h-2v2.2h2V11.4z"/>
	<path d="M39.5,11.3h-2V14h2V11.3z"/>
	<path d="M41.8,14.1V11h-2v3.1H41.8z"/>
	<path d="M44.1,10.4h-2v4.3h2V10.4z"/>
	<path d="M46.4,11h-2v3.1h2V11z"/>
	<path d="M48.7,11.3h-2V14h2V11.3z"/>
	<path d="M51,11.4h-2v2.2h2V11.4z"/>
	<path d="M53.3,11.6h-2v2h2V11.6z"/>
	<path d="M55.6,10.4h-2v4.2h2V10.4z"/>
	<path d="M57.9,8.9h-2v7.3h2V8.9z"/>
	<path d="M60.2,10.4h-2v4.2h2V10.4z"/>
	<path d="M62.5,11.6h-2v2h2V11.6z"/>
	<path d="M64.8,11.6h-2v2h2V11.6z"/>
	<path d="M67.1,11.1h-2v3h2V11.1z"/>
	<path d="M69.4,10.6h-2v4h2V10.6z"/>
	<path d="M71.7,9.7h-2v5.7h2V9.7z"/>
	<path d="M74,8.1h-2v9.1h2V8.1z"/>
	<path d="M76.3,9.7h-2v5.7h2V9.7z"/>
	<path d="M78.6,10.6h-2v4h2V10.6z"/>
	<path d="M80.9,11.1h-2v3h2V11.1z"/>
	<path d="M83.2,11.6h-2v2h2V11.6z"/>
	<path d="M85.5,10.5h-2v4.2h2V10.5z"/>
	<path d="M87.8,9.9h-2v5.3h2V9.9z"/>
	<path d="M90.1,9.1h-2V16h2V9.1z"/>
	<path d="M92.4,9.9h-2v5.3h2V9.9z"/>
	<path d="M94.8,10.5h-2v4.2h2V10.5z"/>
	<path d="M97.1,11.6h-2v2h2V11.6z"/>
	<path d="M99.4,11.6h-2v2h2V11.6z"/>
</g>
<g>
	<path d="M2.7,11.6h-2v2h2V11.6z"/>
	<path d="M5,11.6H3v2h2V11.6z"/>
	<path d="M7.3,11.6h-2v2h2V11.6z"/>
	<path d="M9.6,11.6h-2v2h2V11.6z"/>
	<path d="M11.9,11.6h-2v2h2V11.6z"/>
	<path d="M14.2,11.6h-2v2h2V11.6z"/>
	<path d="M16.5,11.6h-2v2h2V11.6z"/>
	<path d="M18.8,5.8h-2v13.4h2V5.8z"/>
	<path d="M21.1,11.6h-2v2h2V11.6z"/>
	<path d="M23.4,11.6h-2v2h2V11.6z"/>
	<path d="M25.7,11.6h-2v2h2V11.6z"/>
	<path d="M28,11.6h-2v2h2V11.6z"/>
	<path d="M30.3,11.6h-2v2h2V11.6z"/>
	<path d="M32.6,10.2h-2v4.6h2V10.2z"/>
	<path d="M34.9,11.6h-2v2h2V11.6z"/>
	<path d="M37.2,11.6h-2v2h2V11.6z"/>
	<path d="M39.5,11.6h-2v2h2V11.6z"/>
	<path d="M41.8,13.6v-2h-2v2H41.8z"/>
	<path d="M44.1,11.6h-2v2h2V11.6z"/>
	<path d="M46.4,11.6h-2v2h2V11.6z"/>
	<path d="M48.7,11.6h-2v2h2V11.6z"/>
	<path d="M51,11.6h-2v2h2V11.6z"/>
	<path d="M53.3,11.6h-2v2h2V11.6z"/>
	<path d="M55.6,10.1h-2v4.9h2V10.1z"/>
	<path d="M57.9,8.3h-2v8.5h2V8.3z"/>
	<path d="M60.2,10.1h-2v4.9h2V10.1z"/>
	<path d="M62.5,11.6h-2v2h2V11.6z"/>
	<path d="M64.8,11.6h-2v2h2V11.6z"/>
	<path d="M67.1,11.2h-2v2.6h2V11.2z"/>
	<path d="M69.4,10.9h-2v3.4h2V10.9z"/>
	<path d="M71.7,10.1h-2v4.8h2V10.1z"/>
	<path d="M74,8.7h-2v7.7h2V8.7z"/>
	<path d="M76.3,10.1h-2v4.8h2V10.1z"/>
	<path d="M78.6,10.9h-2v3.4h2V10.9z"/>
	<path d="M80.9,11.2h-2v2.6h2V11.2z"/>
	<path d="M83.2,11.6h-2v2h2V11.6z"/>
	<path d="M85.5,10.7h-2v3.7h2V10.7z"/>
	<path d="M87.8,10.3h-2V15h2V10.3z"/>
	<path d="M90.1,9.5h-2v6.1h2V9.5z"/>
	<path d="M92.4,10.3h-2V15h2V10.3z"/>
	<path d="M94.8,10.7h-2v3.7h2V10.7z"/>
	<path d="M97.1,11.6h-2v2h2V11.6z"/>
	<path d="M99.4,11.6h-2v2h2V11.6z"/>
</g>
<g>
	<path d="M2.7,11.6h-2v2h2V11.6z"/>
	<path d="M5,11.6H3v2h2V11.6z"/>
	<path d="M7.3,11.6h-2v2h2V11.6z"/>
	<path d="M9.6,11.6h-2v2h2V11.6z"/>
	<path d="M11.9,11.6h-2v2h2V11.6z"/>
	<path d="M14.2,11.6h-2v2h2V11.6z"/>
	<path d="M16.5,11.6h-2v2h2V11.6z"/>
	<path d="M18.8,7.4h-2v10.5h2V7.4z"/>
	<path d="M21.1,11.6h-2v2h2V11.6z"/>
	<path d="M23.4,11.6h-2v2h2V11.6z"/>
	<path d="M25.7,11.6h-2v2h2V11.6z"/>
	<path d="M28,11.6h-2v2h2V11.6z"/>
	<path d="M30.3,11.6h-2v2h2V11.6z"/>
	<path d="M32.6,11.5h-2v2.1h2V11.5z"/>
	<path d="M34.9,11.6h-2v2h2V11.6z"/>
	<path d="M37.2,11.3h-2v2.5h2V11.3z"/>
	<path d="M39.5,10.6h-2v4h2V10.6z"/>
	<path d="M41.8,15.1V9.9h-2v5.2H41.8z"/>
	<path d="M44.1,8.9h-2v7.6h2V8.9z"/>
	<path d="M46.4,9.9h-2v5.2h2V9.9z"/>
	<path d="M48.7,10.6h-2v4h2V10.6z"/>
	<path d="M51,11.3h-2v2.5h2V11.3z"/>
	<path d="M53.3,11.6h-2v2h2V11.6z"/>
	<path d="M55.6,11.3h-2v2.5h2V11.3z"/>
	<path d="M57.9,10.4h-2v4.4h2V10.4z"/>
	<path d="M60.2,11.3h-2v2.5h2V11.3z"/>
	<path d="M62.5,11.6h-2v2h2V11.6z"/>
	<path d="M64.8,11.6h-2v2h2V11.6z"/>
	<path d="M67.1,10.9h-2v3.2h2V10.9z"/>
	<path d="M69.4,10.4h-2v4.3h2V10.4z"/>
	<path d="M71.7,9.5h-2v6.1h2V9.5z"/>
	<path d="M74,7.7h-2v9.7h2V7.7z"/>
	<path d="M76.3,9.5h-2v6.1h2V9.5z"/>
	<path d="M78.6,10.4h-2v4.3h2V10.4z"/>
	<path d="M80.9,10.9h-2v3.2h2V10.9z"/>
	<path d="M83.2,11.6h-2v2h2V11.6z"/>
	<path d="M85.5,10.9h-2v3.3h2V10.9z"/>
	<path d="M87.8,10.6h-2v4.1h2V10.6z"/>
	<path d="M90.1,9.9h-2v5.4h2V9.9z"/>
	<path d="M92.4,10.6h-2v4.1h2V10.6z"/>
	<path d="M94.8,10.9h-2v3.3h2V10.9z"/>
	<path d="M97.1,11.6h-2v2h2V11.6z"/>
	<path d="M99.4,11.6h-2v2h2V11.6z"/>
</g>
<g>
	<path d="M2.7,11.6h-2v2h2V11.6z"/>
	<path d="M5,10.2H3v4.1h2V10.2z"/>
	<path d="M7.3,9.1h-2v6.3h2V9.1z"/>
	<path d="M9.6,7.6h-2V17h2V7.6z"/>
	<path d="M11.9,9.1h-2v6.3h2V9.1z"/>
	<path d="M14.2,10.2h-2v4.1h2V10.2z"/>
	<path d="M16.5,11.6h-2v2h2V11.6z"/>
	<path d="M18.8,8.9h-2v7.6h2V8.9z"/>
	<path d="M21.1,11.6h-2v2h2V11.6z"/>
	<path d="M23.4,11.6h-2v2h2V11.6z"/>
	<path d="M25.7,11.6h-2v2h2V11.6z"/>
	<path d="M28,11.6h-2v2h2V11.6z"/>
	<path d="M30.3,11.6h-2v2h2V11.6z"/>
	<path d="M32.6,11.5h-2v2.1h2V11.5z"/>
	<path d="M34.9,11.6h-2v2h2V11.6z"/>
	<path d="M37.2,11.4h-2v2.2h2V11.4z"/>
	<path d="M39.5,11h-2v3h2V11z"/>
	<path d="M41.8,14.4v-3.6h-2v3.6H41.8z"/>
	<path d="M44,10.3h-2v4.8h2V10.3z"/>
	<path d="M46.3,10.8h-2v3.6h2V10.8z"/>
	<path d="M48.7,11h-2v3h2V11z"/>
	<path d="M51,11.4h-2v2.2h2V11.4z"/>
	<path d="M53.3,11.6h-2v2h2V11.6z"/>
	<path d="M55.6,10.2h-2v4.7h2V10.2z"/>
	<path d="M57.9,8.5h-2v8.1h2V8.5z"/>
	<path d="M60.2,10.2h-2v4.7h2V10.2z"/>
	<path d="M62.5,11.6h-2v2h2V11.6z"/>
	<path d="M64.8,11.6h-2v2h2V11.6z"/>
	<path d="M67.1,11.4h-2v2.2h2V11.4z"/>
	<path d="M69.4,11.1h-2V14h2V11.1z"/>
	<path d="M71.7,10.5h-2v4.1h2V10.5z"/>
	<path d="M74,9.2h-2v6.6h2V9.2z"/>
	<path d="M76.3,10.5h-2v4.1h2V10.5z"/>
	<path d="M78.6,11.1h-2V14h2V11.1z"/>
	<path d="M80.9,11.4h-2v2.2h2V11.4z"/>
	<path d="M83.2,11.6h-2v2h2V11.6z"/>
	<path d="M85.5,11.1h-2v2.8h2V11.1z"/>
	<path d="M87.8,10.9h-2v3.6h2V10.9z"/>
	<path d="M90.1,10.3h-2v4.6h2V10.3z"/>
	<path d="M92.4,10.9h-2v3.6h2V10.9z"/>
	<path d="M94.8,11.1h-2v2.8h2V11.1z"/>
	<path d="M97.1,11.6h-2v2h2V11.6z"/>
	<path d="M99.4,11.6h-2v2h2V11.6z"/>
</g>
<g>
	<path d="M2.7,11.6h-2v2h2V11.6z"/>
	<path d="M5,9.3H3v6.1h2V9.3z"/>
	<path d="M7.3,7h-2v10.7h2V7z"/>
	<path d="M9.6,4h-2v16.8h2V4z"/>
	<path d="M11.9,7h-2v10.7h2V7z"/>
	<path d="M14.2,9.3h-2v6.1h2V9.3z"/>
	<path d="M16.5,11.6h-2v2h2V11.6z"/>
	<path d="M18.8,10.2h-2v4.7h2V10.2z"/>
	<path d="M21.1,11.6h-2v2h2V11.6z"/>
	<path d="M23.4,11.6h-2v2h2V11.6z"/>
	<path d="M25.7,11.6h-2v2h2V11.6z"/>
	<path d="M28,11.6h-2v2h2V11.6z"/>
	<path d="M30.3,11.6h-2v2h2V11.6z"/>
	<path d="M32.6,11.5h-2v2.1h2V11.5z"/>
	<path d="M34.9,11.6h-2v2h2V11.6z"/>
	<path d="M37.2,11.6h-2v2h2V11.6z"/>
	<path d="M39.5,11.6h-2v2h2V11.6z"/>
	<path d="M41.8,13.6v-2h-2v2H41.8z"/>
	<path d="M44.1,11.6h-2v2h2V11.6z"/>
	<path d="M46.4,11.6h-2v2h2V11.6z"/>
	<path d="M48.7,11.6h-2v2h2V11.6z"/>
	<path d="M51,11.6h-2v2h2V11.6z"/>
	<path d="M53.3,11.6h-2v2h2V11.6z"/>
	<path d="M55.6,11.4h-2v2.2h2V11.4z"/>
	<path d="M57.9,10.6h-2v3.9h2V10.6z"/>
	<path d="M60.2,11.4h-2v2.2h2V11.4z"/>
	<path d="M62.5,11.6h-2v2h2V11.6z"/>
	<path d="M64.8,11.6h-2v2h2V11.6z"/>
	<path d="M67.1,10.1h-2V15h2V10.1z"/>
	<path d="M69.4,9.4h-2v6.4h2V9.4z"/>
	<path d="M71.7,8h-2v9.1h2V8z"/>
	<path d="M74,5.2h-2v14.6h2V5.2z"/>
	<path d="M76.3,8h-2v9.1h2V8z"/>
	<path d="M78.6,9.4h-2v6.4h2V9.4z"/>
	<path d="M80.9,10.1h-2V15h2V10.1z"/>
	<path d="M83.2,11.6h-2v2h2V11.6z"/>
	<path d="M85.5,11.4h-2v2.4h2V11.4z"/>
	<path d="M87.8,11.1h-2v3h2V11.1z"/>
	<path d="M90.1,10.6h-2v3.9h2V10.6z"/>
	<path d="M92.4,11.1h-2v3h2V11.1z"/>
	<path d="M94.8,11.4h-2v2.4h2V11.4z"/>
	<path d="M97.1,11.6h-2v2h2V11.6z"/>
	<path d="M99.4,11.6h-2v2h2V11.6z"/>
</g>
<g>
	<path d="M2.7,11.6h-2v2h2V11.6z"/>
	<path d="M5,9.7H3v5.4h2V9.7z"/>
	<path d="M7.3,7.8h-2V17h2V7.8z"/>
	<path d="M9.6,5.3h-2v14.4h2V5.3z"/>
	<path d="M11.9,7.9h-2v9.2h2V7.9z"/>
	<path d="M14.2,9.7h-2v5.4h2V9.7z"/>
	<path d="M16.5,11.6h-2v2h2V11.6z"/>
	<path d="M18.8,9.1h-2v6.8h2V9.1z"/>
	<path d="M21.1,11.6h-2v2h2V11.6z"/>
	<path d="M23.4,11.6h-2v2h2V11.6z"/>
	<path d="M25.7,11.6h-2v2h2V11.6z"/>
	<path d="M28,11.6h-2v2h2V11.6z"/>
	<path d="M30.3,11.6h-2v2h2V11.6z"/>
	<path d="M32.6,11.5h-2v2.1h2V11.5z"/>
	<path d="M34.9,11.6h-2v2h2V11.6z"/>
	<path d="M37.2,11.6h-2v2h2V11.6z"/>
	<path d="M39.5,10.9h-2v3.2h2V10.9z"/>
	<path d="M41.8,14.7v-4.3h-2v4.3H41.8z"/>
	<path d="M44.1,9.9h-2v5.4h2V9.9z"/>
	<path d="M46.4,10.4h-2v4.3h2V10.4z"/>
	<path d="M48.7,10.9h-2v3.2h2V10.9z"/>
	<path d="M51,11.6h-2v2h2V11.6z"/>
	<path d="M53.3,11.6h-2v2h2V11.6z"/>
	<path d="M55.6,10.9h-2v3.3h2V10.9z"/>
	<path d="M57.9,9.7h-2v5.7h2V9.7z"/>
	<path d="M60.2,10.9h-2v3.3h2V10.9z"/>
	<path d="M62.5,11.6h-2v2h2V11.6z"/>
	<path d="M64.8,11.6h-2v2h2V11.6z"/>
	<path d="M67.1,10.4h-2v4.3h2V10.4z"/>
	<path d="M69.4,9.6h-2v5.7h2V9.6z"/>
	<path d="M71.7,8.4h-2v8.1h2V8.4z"/>
	<path d="M73.9,6.2h-2V19h2V6.2z"/>
	<path d="M76.2,8.4h-2v8.1h2V8.4z"/>
	<path d="M78.6,9.6h-2v5.7h2V9.6z"/>
	<path d="M80.9,10.4h-2v4.3h2V10.4z"/>
	<path d="M83.2,11.6h-2v2h2V11.6z"/>
	<path d="M85.5,10.8h-2v3.4h2V10.8z"/>
	<path d="M87.8,10.3h-2v4.3h2V10.3z"/>
	<path d="M90.1,9.6h-2v5.7h2V9.6z"/>
	<path d="M92.4,10.3h-2v4.3h2V10.3z"/>
	<path d="M94.8,10.8h-2v3.4h2V10.8z"/>
	<path d="M97.1,11.6h-2v2h2V11.6z"/>
	<path d="M99.4,11.6h-2v2h2V11.6z"/>
</g>
<g>
	<path d="M2.7,11.6h-2v2h2V11.6z"/>
	<path d="M5,10.1H3v4.7h2V10.1z"/>
	<path d="M7.3,8.6h-2v7.8h2V8.6z"/>
	<path d="M9.6,6.6h-2v11.9h2V6.6z"/>
	<path d="M11.9,8.6h-2v7.8h2V8.6z"/>
	<path d="M14.2,10.1h-2v4.7h2V10.1z"/>
	<path d="M16.5,11.6h-2v2h2V11.6z"/>
	<path d="M18.8,9.9h-2v5.6h2V9.9z"/>
	<path d="M21.1,10.8h-2v3.5h2V10.8z"/>
	<path d="M23.4,9.6h-2v5.9h2V9.6z"/>
	<path d="M25.7,10.8h-2v3.5h2V10.8z"/>
	<path d="M28,11.6h-2v2h2V11.6z"/>
	<path d="M30.3,11.6h-2v2h2V11.6z"/>
	<path d="M32.6,11.5h-2v2.1h2V11.5z"/>
	<path d="M34.9,11.6h-2v2h2V11.6z"/>
	<path d="M37.2,11.2h-2v2.7h2V11.2z"/>
	<path d="M39.5,10.4h-2v4.3h2V10.4z"/>
	<path d="M41.8,15.4V9.8h-2v5.6H41.8z"/>
	<path d="M44.1,9h-2v7.1h2V9z"/>
	<path d="M46.4,9.8h-2v5.6h2V9.8z"/>
	<path d="M48.7,10.4h-2v4.3h2V10.4z"/>
	<path d="M51,11.2h-2v2.7h2V11.2z"/>
	<path d="M53.3,11.6h-2v2h2V11.6z"/>
	<path d="M55.6,11.4h-2v2.3h2V11.4z"/>
	<path d="M57.8,10.6h-2v4h2V10.6z"/>
	<path d="M60.2,11.4h-2v2.3h2V11.4z"/>
	<path d="M62.5,11.6h-2v2h2V11.6z"/>
	<path d="M64.8,11.6h-2v2h2V11.6z"/>
	<path d="M67.1,10.6h-2v3.8h2V10.6z"/>
	<path d="M69.4,10h-2v5h2V10z"/>
	<path d="M71.7,9h-2v7.1h2V9z"/>
	<path d="M73.9,7.2h-2v10.9h2V7.2z"/>
	<path d="M76.2,9h-2v7.1h2V9z"/>
	<path d="M78.6,10h-2v5h2V10z"/>
	<path d="M80.9,10.6h-2v3.8h2V10.6z"/>
	<path d="M83.2,11.6h-2v2h2V11.6z"/>
	<path d="M85.5,10.9h-2v3h2V10.9z"/>
	<path d="M87.8,10.6h-2v3.8h2V10.6z"/>
	<path d="M90.1,10.1h-2v5h2V10.1z"/>
	<path d="M92.4,10.6h-2v3.8h2V10.6z"/>
	<path d="M94.8,10.9h-2v3h2V10.9z"/>
	<path d="M97.1,11.6h-2v2h2V11.6z"/>
	<path d="M99.4,11.6h-2v2h2V11.6z"/>
</g>
<g>
	<path d="M2.7,11.6h-2v2h2V11.6z"/>
	<path d="M5,10.4H3v4.1h2V10.4z"/>
	<path d="M7.3,9.4h-2v6.3h2V9.4z"/>
	<path d="M9.6,7.9h-2v9.4h2V7.9z"/>
	<path d="M11.9,9.4h-2v6.3h2V9.4z"/>
	<path d="M14.2,10.4h-2v4.1h2V10.4z"/>
	<path d="M16.5,11.6h-2v2h2V11.6z"/>
	<path d="M18.8,10.7h-2V15h2V10.7z"/>
	<path d="M21.1,11.1h-2v3h2V11.1z"/>
	<path d="M23.4,10.2h-2v4.6h2V10.2z"/>
	<path d="M25.7,11.1h-2v3h2V11.1z"/>
	<path d="M28,11.6h-2v2h2V11.6z"/>
	<path d="M30.3,11.6h-2v2h2V11.6z"/>
	<path d="M32.6,8.8h-2v7.5h2V8.8z"/>
	<path d="M34.9,11.6h-2v2h2V11.6z"/>
	<path d="M37.2,11.6h-2v2h2V11.6z"/>
	<path d="M39.5,11.2h-2v2.7h2V11.2z"/>
	<path d="M41.8,14.2v-3.4h-2v3.4H41.8z"/>
	<path d="M44.1,10.6h-2v4h2V10.6z"/>
	<path d="M46.4,10.9h-2v3.4h2V10.9z"/>
	<path d="M48.7,11.2h-2v2.7h2V11.2z"/>
	<path d="M51,11.6h-2v2h2V11.6z"/>
	<path d="M53.3,11.6h-2v2h2V11.6z"/>
	<path d="M55.6,11.4h-2v2.2h2V11.4z"/>
	<path d="M57.9,10.6h-2v3.9h2V10.6z"/>
	<path d="M60.2,11.4h-2v2.2h2V11.4z"/>
	<path d="M62.5,11.6h-2v2h2V11.6z"/>
	<path d="M64.8,11.6h-2v2h2V11.6z"/>
	<path d="M67.1,10.9h-2v3.2h2V10.9z"/>
	<path d="M69.4,10.4h-2v4.3h2V10.4z"/>
	<path d="M71.7,9.6h-2v6h2V9.6z"/>
	<path d="M73.9,8.1h-2v9.1h2V8.1z"/>
	<path d="M76.2,9.6h-2v6h2V9.6z"/>
	<path d="M78.6,10.4h-2v4.3h2V10.4z"/>
	<path d="M80.9,10.9h-2v3.2h2V10.9z"/>
	<path d="M83.2,11.6h-2v2h2V11.6z"/>
	<path d="M85.5,11.2h-2v2.6h2V11.2z"/>
	<path d="M87.8,10.9h-2v3.3h2V10.9z"/>
	<path d="M90.1,10.4h-2v4.3h2V10.4z"/>
	<path d="M92.4,10.9h-2v3.3h2V10.9z"/>
	<path d="M94.8,11.2h-2v2.6h2V11.2z"/>
	<path d="M97.1,11.6h-2v2h2V11.6z"/>
	<path d="M99.4,11.6h-2v2h2V11.6z"/>
</g>
<g>
	<path d="M2.7,11.6h-2v2h2V11.6z"/>
	<path d="M5,10.9H3v3.4h2V10.9z"/>
	<path d="M7.3,10.1h-2v4.9h2V10.1z"/>
	<path d="M9.6,9.1h-2V16h2V9.1z"/>
	<path d="M11.9,10.1h-2v4.9h2V10.1z"/>
	<path d="M14.2,10.9h-2v3.4h2V10.9z"/>
	<path d="M16.5,11.6h-2v2h2V11.6z"/>
	<path d="M18.8,7.8h-2v9.4h2V7.8z"/>
	<path d="M21.1,11.4h-2v2.5h2V11.4z"/>
	<path d="M23.3,10.9h-2v3.3h2V10.9z"/>
	<path d="M25.7,11.4h-2v2.5h2V11.4z"/>
	<path d="M28,11.6h-2v2h2V11.6z"/>
	<path d="M30.3,11.6h-2v2h2V11.6z"/>
	<path d="M32.6,9.4h-2v6.4h2V9.4z"/>
	<path d="M34.9,11.6h-2v2h2V11.6z"/>
	<path d="M37.2,10.9h-2v3.1h2V10.9z"/>
	<path d="M39.5,10.6h-2v3.9h2V10.6z"/>
	<path d="M41.8,14.9v-4.5h-2v4.5H41.8z"/>
	<path d="M44.1,8.9h-2v7h2V8.9z"/>
	<path d="M46.4,10.4h-2v4.5h2V10.4z"/>
	<path d="M48.7,10.6h-2v3.9h2V10.6z"/>
	<path d="M51,10.9h-2v3.1h2V10.9z"/>
	<path d="M53.3,11.6h-2v2h2V11.6z"/>
	<path d="M55.6,8.4h-2v8.3h2V8.4z"/>
	<path d="M57.9,5.3h-2v14.4h2V5.3z"/>
	<path d="M60.2,8.4h-2v8.3h2V8.4z"/>
	<path d="M62.5,11.6h-2v2h2V11.6z"/>
	<path d="M64.8,11.6h-2v2h2V11.6z"/>
	<path d="M67.1,11.2h-2v2.7h2V11.2z"/>
	<path d="M69.4,10.7h-2v3.6h2V10.7z"/>
	<path d="M71.7,10.1h-2v5h2V10.1z"/>
	<path d="M73.9,9h-2v7.3h2V9z"/>
	<path d="M76.2,10.1h-2v5h2V10.1z"/>
	<path d="M78.6,10.7h-2v3.6h2V10.7z"/>
	<path d="M80.9,11.2h-2v2.7h2V11.2z"/>
	<path d="M83.2,11.6h-2v2h2V11.6z"/>
	<path d="M85.5,11.4h-2v2.2h2V11.4z"/>
	<path d="M87.8,11.2h-2v2.7h2V11.2z"/>
	<path d="M90.1,10.8h-2v3.6h2V10.8z"/>
	<path d="M92.4,11.2h-2v2.7h2V11.2z"/>
	<path d="M94.8,11.4h-2v2.2h2V11.4z"/>
	<path d="M97.1,11.6h-2v2h2V11.6z"/>
	<path d="M99.4,11.6h-2v2h2V11.6z"/>
</g>
<g>
	<path d="M2.7,11.6h-2v2h2V11.6z"/>
	<path d="M5,11.2H3v2.7h2V11.2z"/>
	<path d="M7.3,10.9h-2v3.4h2V10.9z"/>
	<path d="M9.6,10.4h-2v4.5h2V10.4z"/>
	<path d="M11.9,10.9h-2v3.4h2V10.9z"/>
	<path d="M14.2,11.2h-2v2.7h2V11.2z"/>
	<path d="M16.5,11.6h-2v2h2V11.6z"/>
	<path d="M18.8,8.9h-2v7h2V8.9z"/>
	<path d="M21.1,11.6h-2v2h2V11.6z"/>
	<path d="M23.4,11.6h-2v2h2V11.6z"/>
	<path d="M25.7,11.6h-2v2h2V11.6z"/>
	<path d="M28,11.6h-2v2h2V11.6z"/>
	<path d="M30.3,11.6h-2v2h2V11.6z"/>
	<path d="M32.6,9.9h-2v5.4h2V9.9z"/>
	<path d="M34.9,11.6h-2v2h2V11.6z"/>
	<path d="M37.2,11.2h-2v2.6h2V11.2z"/>
	<path d="M39.5,11.1h-2v2.9h2V11.1z"/>
	<path d="M41.8,14.1v-3.3h-2v3.3H41.8z"/>
	<path d="M44.1,10.2h-2v4.5h2V10.2z"/>
	<path d="M46.4,10.9h-2v3.3h2V10.9z"/>
	<path d="M48.7,11.1h-2v2.9h2V11.1z"/>
	<path d="M51,11.2h-2v2.6h2V11.2z"/>
	<path d="M53.3,11.6h-2v2h2V11.6z"/>
	<path d="M55.6,8.8h-2v7.6h2V8.8z"/>
	<path d="M57.9,5.9h-2V19h2V5.9z"/>
	<path d="M60.2,8.8h-2v7.6h2V8.8z"/>
	<path d="M62.5,11.6h-2v2h2V11.6z"/>
	<path d="M64.8,11.6h-2v2h2V11.6z"/>
	<path d="M67.1,11.5h-2v2.1h2V11.5z"/>
	<path d="M69.4,11.1h-2v2.8h2V11.1z"/>
	<path d="M71.7,10.6h-2v4h2V10.6z"/>
	<path d="M74,9.9h-2v5.4h2V9.9z"/>
	<path d="M76.3,10.6h-2v4h2V10.6z"/>
	<path d="M78.6,11.1h-2v2.8h2V11.1z"/>
	<path d="M80.9,11.5h-2v2.1h2V11.5z"/>
	<path d="M83.2,11.6h-2v2h2V11.6z"/>
	<path d="M85.5,11.2h-2v2.6h2V11.2z"/>
	<path d="M87.8,10.9h-2v3.3h2V10.9z"/>
	<path d="M90.1,10.4h-2v4.3h2V10.4z"/>
	<path d="M92.4,10.9h-2v3.3h2V10.9z"/>
	<path d="M94.8,11.2h-2v2.6h2V11.2z"/>
	<path d="M97.1,11.6h-2v2h2V11.6z"/>
	<path d="M99.4,11.6h-2v2h2V11.6z"/>
</g>
<g>
	<path d="M2.7,11.6h-2v2h2V11.6z"/>
	<path d="M5,11.6H3v2h2V11.6z"/>
	<path d="M7.3,11.6h-2v2h2V11.6z"/>
	<path d="M9.6,11.6h-2v2h2V11.6z"/>
	<path d="M11.9,11.6h-2v2h2V11.6z"/>
	<path d="M14.2,11.6h-2v2h2V11.6z"/>
	<path d="M16.5,11.6h-2v2h2V11.6z"/>
	<path d="M18.8,10.1h-2v4.5h2V10.1z"/>
	<path d="M21.1,11.6h-2v2h2V11.6z"/>
	<path d="M23.4,11.6h-2v2h2V11.6z"/>
	<path d="M25.7,11.6h-2v2h2V11.6z"/>
	<path d="M28,11.6h-2v2h2V11.6z"/>
	<path d="M30.3,11.6h-2v2h2V11.6z"/>
	<path d="M32.6,10.4h-2v4.3h2V10.4z"/>
	<path d="M34.9,11.6h-2v2h2V11.6z"/>
	<path d="M37.2,11.6h-2v2h2V11.6z"/>
	<path d="M39.5,11.6h-2v2h2V11.6z"/>
	<path d="M41.8,13.6v-2h-2v2H41.8z"/>
	<path d="M44.1,11.6h-2v2h2V11.6z"/>
	<path d="M46.4,11.6h-2v2h2V11.6z"/>
	<path d="M48.7,11.6h-2v2h2V11.6z"/>
	<path d="M51,11.6h-2v2h2V11.6z"/>
	<path d="M53.3,11.6h-2v2h2V11.6z"/>
	<path d="M55.6,9.2h-2V16h2V9.2z"/>
	<path d="M57.9,6.6h-2v11.8h2V6.6z"/>
	<path d="M60.2,9.2h-2V16h2V9.2z"/>
	<path d="M62.5,11.6h-2v2h2V11.6z"/>
	<path d="M64.8,11.6h-2v2h2V11.6z"/>
	<path d="M67.1,9h-2v7.1h2V9z"/>
	<path d="M69.4,7.8h-2v9.5h2V7.8z"/>
	<path d="M71.7,5.8h-2v13.4h2V5.8z"/>
	<path d="M74,1.9h-2v21.4h2V1.9z"/>
	<path d="M76.3,5.8h-2v13.4h2V5.8z"/>
	<path d="M78.6,7.8h-2v9.5h2V7.8z"/>
	<path d="M80.9,9h-2v7.1h2V9z"/>
	<path d="M83.2,11.6h-2v2h2V11.6z"/>
	<path d="M85.5,10.9h-2v3.5h2V10.9z"/>
	<path d="M87.8,10.4h-2v4.4h2V10.4z"/>
	<path d="M90.1,9.6h-2v5.8h2V9.6z"/>
	<path d="M92.4,10.4h-2v4.4h2V10.4z"/>
	<path d="M94.8,10.9h-2v3.5h2V10.9z"/>
	<path d="M97.1,11.6h-2v2h2V11.6z"/>
	<path d="M99.4,11.6h-2v2h2V11.6z"/>
</g>
<g>
	<path d="M2.7,11.6h-2v2h2V11.6z"/>
	<path d="M5,11.6H3v2h2V11.6z"/>
	<path d="M7.3,11.6h-2v2h2V11.6z"/>
	<path d="M9.6,11.6h-2v2h2V11.6z"/>
	<path d="M11.9,11.6h-2v2h2V11.6z"/>
	<path d="M14.2,11.6h-2v2h2V11.6z"/>
	<path d="M16.5,11.6h-2v2h2V11.6z"/>
	<path d="M18.8,11.6h-2v2h2V11.6z"/>
	<path d="M21.1,11.6h-2v2h2V11.6z"/>
	<path d="M23.4,11.6h-2v2h2V11.6z"/>
	<path d="M25.7,11.6h-2v2h2V11.6z"/>
	<path d="M28,11.6h-2v2h2V11.6z"/>
	<path d="M30.3,11.6h-2v2h2V11.6z"/>
	<path d="M32.6,10.9h-2v3.3h2V10.9z"/>
	<path d="M34.9,11.6h-2v2h2V11.6z"/>
	<path d="M37.2,11.1h-2v3h2V11.1z"/>
	<path d="M39.5,10.1h-2v4.8h2V10.1z"/>
	<path d="M41.8,15.7V9.4h-2v6.3H41.8z"/>
	<path d="M44.1,6.8h-2v11.4h2V6.8z"/>
	<path d="M46.4,9.4h-2v6.3h2V9.4z"/>
	<path d="M48.7,10.1h-2v4.8h2V10.1z"/>
	<path d="M51,11.1h-2v3h2V11.1z"/>
	<path d="M53.3,11.6h-2v2h2V11.6z"/>
	<path d="M55.6,9.7h-2v6h2V9.7z"/>
	<path d="M57.9,7.2h-2v10.5h2V7.2z"/>
	<path d="M60.2,9.7h-2v6h2V9.7z"/>
	<path d="M62.5,11.6h-2v2h2V11.6z"/>
	<path d="M64.8,11.6h-2v2h2V11.6z"/>
	<path d="M67.1,10.2h-2v4.7h2V10.2z"/>
	<path d="M69.4,9.4h-2v6.2h2V9.4z"/>
	<path d="M71.7,8.2h-2v8.7h2V8.2z"/>
	<path d="M74,6.6h-2v11.9h2V6.6z"/>
	<path d="M76.3,8.2h-2v8.7h2V8.2z"/>
	<path d="M78.6,9.4h-2v6.2h2V9.4z"/>
	<path d="M80.9,10.2h-2v4.7h2V10.2z"/>
	<path d="M83.2,11.6h-2v2h2V11.6z"/>
	<path d="M85.5,10.3h-2v4.5h2V10.3z"/>
	<path d="M87.8,9.8h-2v5.6h2V9.8z"/>
	<path d="M90.1,8.9h-2v7.3h2V8.9z"/>
	<path d="M92.4,9.8h-2v5.6h2V9.8z"/>
	<path d="M94.8,10.3h-2v4.5h2V10.3z"/>
	<path d="M97.1,11.6h-2v2h2V11.6z"/>
	<path d="M99.4,11.6h-2v2h2V11.6z"/>
</g>
<g>
	<path d="M2.7,11.6h-2v2h2V11.6z"/>
	<path d="M5,11.6H3v2h2V11.6z"/>
	<path d="M7.3,11.6h-2v2h2V11.6z"/>
	<path d="M9.6,11.6h-2v2h2V11.6z"/>
	<path d="M11.9,11.6h-2v2h2V11.6z"/>
	<path d="M14.2,11.6h-2v2h2V11.6z"/>
	<path d="M16.5,11.6h-2v2h2V11.6z"/>
	<path d="M18.8,11.6h-2v2h2V11.6z"/>
	<path d="M21.1,11.6h-2v2h2V11.6z"/>
	<path d="M23.4,11.6h-2v2h2V11.6z"/>
	<path d="M25.7,11.6h-2v2h2V11.6z"/>
	<path d="M28,11.6h-2v2h2V11.6z"/>
	<path d="M30.3,11.6h-2v2h2V11.6z"/>
	<path d="M32.6,11.5h-2v2.2h2V11.5z"/>
	<path d="M34.9,11.6h-2v2h2V11.6z"/>
	<path d="M37.2,11.1h-2v2.8h2V11.1z"/>
	<path d="M39.5,10.4h-2v4.5h2V10.4z"/>
	<path d="M41.8,15.4V9.6h-2v5.9H41.8z"/>
	<path d="M44.1,7.5h-2v10.2h2V7.5z"/>
	<path d="M46.4,9.6h-2v5.9h2V9.6z"/>
	<path d="M48.7,10.4h-2v4.5h2V10.4z"/>
	<path d="M51,11.1h-2v2.8h2V11.1z"/>
	<path d="M53.3,11.6h-2v2h2V11.6z"/>
	<path d="M55.6,9.9h-2v5.3h2V9.9z"/>
	<path d="M57.9,8h-2v9.1h2V8z"/>
	<path d="M60.2,9.9h-2v5.3h2V9.9z"/>
	<path d="M62.5,11.6h-2v2h2V11.6z"/>
	<path d="M64.8,11.6h-2v2h2V11.6z"/>
	<path d="M67.1,8.8h-2v7.6h2V8.8z"/>
	<path d="M69.4,7.5h-2v10.1h2V7.5z"/>
	<path d="M71.7,5.4h-2v14.2h2V5.4z"/>
	<path d="M74,2.8h-2v19.4h2V2.8z"/>
	<path d="M76.3,5.4h-2v14.2h2V5.4z"/>
	<path d="M78.6,7.5h-2v10.1h2V7.5z"/>
	<path d="M80.9,8.8h-2v7.6h2V8.8z"/>
	<path d="M83.2,11.6h-2v2h2V11.6z"/>
	<path d="M85.5,10.7h-2v3.7h2V10.7z"/>
	<path d="M87.8,10.2h-2v4.7h2V10.2z"/>
	<path d="M90.1,9.5h-2v6.1h2V9.5z"/>
	<path d="M92.4,10.2h-2v4.7h2V10.2z"/>
	<path d="M94.8,10.7h-2v3.7h2V10.7z"/>
	<path d="M97.1,11.6h-2v2h2V11.6z"/>
	<path d="M99.4,11.6h-2v2h2V11.6z"/>
</g>
<g>
	<path d="M2.7,11.6h-2v2h2V11.6z"/>
	<path d="M5,11.1H3v2.5h2V11.1z"/>
	<path d="M7.3,10.1h-2v4.4h2V10.1z"/>
	<path d="M9.6,8.9h-2v6.9h2V8.9z"/>
	<path d="M11.9,10.1h-2v4.4h2V10.1z"/>
	<path d="M14.2,11.1h-2v2.5h2V11.1z"/>
	<path d="M16.5,11.6h-2v2h2V11.6z"/>
	<path d="M18.8,11.6h-2v2h2V11.6z"/>
	<path d="M21.1,11.4h-2v2.3h2V11.4z"/>
	<path d="M23.4,10.6h-2v3.9h2V10.6z"/>
	<path d="M25.7,11.4h-2v2.3h2V11.4z"/>
	<path d="M28,11.6h-2v2h2V11.6z"/>
	<path d="M30.3,11.6h-2v2h2V11.6z"/>
	<path d="M32.6,11.5h-2v2.2h2V11.5z"/>
	<path d="M34.9,11.6h-2v2h2V11.6z"/>
	<path d="M37.2,11.2h-2v2.6h2V11.2z"/>
	<path d="M39.5,10.5h-2v4.2h2V10.5z"/>
	<path d="M41.8,15.3V9.8h-2v5.5H41.8z"/>
	<path d="M44.1,8.1h-2v9h2V8.1z"/>
	<path d="M46.4,9.8h-2v5.5h2V9.8z"/>
	<path d="M48.7,10.5h-2v4.2h2V10.5z"/>
	<path d="M51,11.2h-2v2.6h2V11.2z"/>
	<path d="M53.3,11.6h-2v2h2V11.6z"/>
	<path d="M55.6,9.4h-2v6.4h2V9.4z"/>
	<path d="M57.9,7h-2v11.1h2V7z"/>
	<path d="M60.2,9.4h-2v6.4h2V9.4z"/>
	<path d="M62.5,11.6h-2v2h2V11.6z"/>
	<path d="M64.8,11.6h-2v2h2V11.6z"/>
	<path d="M67.1,9.4h-2v6.3h2V9.4z"/>
	<path d="M69.4,8.4h-2v8.3h2V8.4z"/>
	<path d="M71.7,6.7h-2v11.8h2V6.7z"/>
	<path d="M74,4.5h-2v16h2V4.5z"/>
	<path d="M76.3,6.7h-2v11.8h2V6.7z"/>
	<path d="M78.6,8.4h-2v8.3h2V8.4z"/>
	<path d="M80.9,9.4h-2v6.3h2V9.4z"/>
	<path d="M83.2,11.6h-2v2h2V11.6z"/>
	<path d="M85.5,10.9h-2v3.3h2V10.9z"/>
	<path d="M87.8,10.5h-2v4.2h2V10.5z"/>
	<path d="M90.1,9.8h-2v5.5h2V9.8z"/>
	<path d="M92.3,10.5h-2v4.2h2V10.5z"/>
	<path d="M94.8,10.9h-2v3.3h2V10.9z"/>
	<path d="M97.1,11.6h-2v2h2V11.6z"/>
	<path d="M99.4,11.6h-2v2h2V11.6z"/>
</g>
<g>
	<path d="M2.7,11.6h-2v2h2V11.6z"/>
	<path d="M5,11.2H3v2.4h2V11.2z"/>
	<path d="M7.3,10.4h-2v3.9h2V10.4z"/>
	<path d="M9.6,9.4h-2v5.9h2V9.4z"/>
	<path d="M11.9,10.5h-2v3.9h2V10.5z"/>
	<path d="M14.2,11.2h-2v2.4h2V11.2z"/>
	<path d="M16.5,11.6h-2v2h2V11.6z"/>
	<path d="M18.8,11.6h-2v2h2V11.6z"/>
	<path d="M21.1,11.4h-2v2.2h2V11.4z"/>
	<path d="M23.4,11.1h-2v2.9h2V11.1z"/>
	<path d="M25.7,11.4h-2v2.2h2V11.4z"/>
	<path d="M28,11.6h-2v2h2V11.6z"/>
	<path d="M30.3,11.6h-2v2h2V11.6z"/>
	<path d="M32.6,11.5h-2v2.2h2V11.5z"/>
	<path d="M34.9,11.6h-2v2h2V11.6z"/>
	<path d="M37.2,11.4h-2v2.4h2V11.4z"/>
	<path d="M39.5,10.6h-2v3.9h2V10.6z"/>
	<path d="M41.8,15.1V10h-2v5.1H41.8z"/>
	<path d="M44.1,8.8h-2v7.8h2V8.8z"/>
	<path d="M46.4,10h-2v5.1h2V10z"/>
	<path d="M48.7,10.6h-2v3.9h2V10.6z"/>
	<path d="M51,11.4h-2v2.4h2V11.4z"/>
	<path d="M53.3,11.6h-2v2h2V11.6z"/>
	<path d="M55.6,11.4h-2v2.2h2V11.4z"/>
	<path d="M57.9,10.6h-2v3.8h2V10.6z"/>
	<path d="M60.2,11.4h-2v2.2h2V11.4z"/>
	<path d="M62.5,11.6h-2v2h2V11.6z"/>
	<path d="M64.8,11.6h-2v2h2V11.6z"/>
	<path d="M67.1,10.1h-2v4.9h2V10.1z"/>
	<path d="M69.4,9.4h-2v6.5h2V9.4z"/>
	<path d="M71.7,8h-2v9.3h2V8z"/>
	<path d="M74,6.2h-2v12.6h2V6.2z"/>
	<path d="M76.3,8h-2v9.3h2V8z"/>
	<path d="M78.6,9.4h-2v6.5h2V9.4z"/>
	<path d="M80.9,10.1h-2v4.9h2V10.1z"/>
	<path d="M83.2,11.6h-2v2h2V11.6z"/>
	<path d="M85.5,11.1h-2V14h2V11.1z"/>
	<path d="M87.8,10.7h-2v3.7h2V10.7z"/>
	<path d="M90.1,10.1h-2v4.8h2V10.1z"/>
	<path d="M92.4,10.7h-2v3.7h2V10.7z"/>
	<path d="M94.8,11.1h-2V14h2V11.1z"/>
	<path d="M97.1,11.6h-2v2h2V11.6z"/>
	<path d="M99.4,11.6h-2v2h2V11.6z"/>
</g>
<g>
	<path d="M2.7,11.6h-2v2h2V11.6z"/>
	<path d="M5,11.3H3v2.3h2V11.3z"/>
	<path d="M7.3,10.8h-2v3.4h2V10.8z"/>
	<path d="M9.6,10h-2v4.9h2V10z"/>
	<path d="M11.9,10.8h-2v3.4h2V10.8z"/>
	<path d="M14.2,11.3h-2v2.3h2V11.3z"/>
	<path d="M16.5,11.6h-2v2h2V11.6z"/>
	<path d="M18.8,9.6h-2v6h2V9.6z"/>
	<path d="M21.1,11.6h-2v2h2V11.6z"/>
	<path d="M23.4,11.6h-2v2h2V11.6z"/>
	<path d="M25.7,11.6h-2v2h2V11.6z"/>
	<path d="M28,11.6h-2v2h2V11.6z"/>
	<path d="M30.3,11.6h-2v2h2V11.6z"/>
	<path d="M32.6,11.5h-2v2.2h2V11.5z"/>
	<path d="M34.9,11.6h-2v2h2V11.6z"/>
	<path d="M37.2,11.4h-2v2.2h2V11.4z"/>
	<path d="M39.5,10.8h-2v3.6h2V10.8z"/>
	<path d="M41.8,14.9v-4.7h-2v4.7H41.8z"/>
	<path d="M44.1,9.4h-2V16h2V9.4z"/>
	<path d="M46.4,10.2h-2v4.7h2V10.2z"/>
	<path d="M48.7,10.8h-2v3.6h2V10.8z"/>
	<path d="M51,11.4h-2v2.2h2V11.4z"/>
	<path d="M53.3,11.6h-2v2h2V11.6z"/>
	<path d="M55.6,10.8h-2v3.6h2V10.8z"/>
	<path d="M57.9,9.4h-2v6.2h2V9.4z"/>
	<path d="M60.2,10.8h-2v3.6h2V10.8z"/>
	<path d="M62.5,11.6h-2v2h2V11.6z"/>
	<path d="M64.8,11.6h-2v2h2V11.6z"/>
	<path d="M67.1,10.8h-2v3.6h2V10.8z"/>
	<path d="M69.4,10.1h-2v4.8h2V10.1z"/>
	<path d="M71.7,9.2h-2V16h2V9.2z"/>
	<path d="M74,7.9h-2v9.2h2V7.9z"/>
	<path d="M76.3,9.2h-2V16h2V9.2z"/>
	<path d="M78.6,10.1h-2v4.8h2V10.1z"/>
	<path d="M80.9,10.8h-2v3.6h2V10.8z"/>
	<path d="M83.2,11.6h-2v2h2V11.6z"/>
	<path d="M85.5,9.9h-2v5.3h2V9.9z"/>
	<path d="M87.8,9.2h-2v6.7h2V9.2z"/>
	<path d="M90.1,8.2h-2v8.7h2V8.2z"/>
	<path d="M92.4,9.2h-2v6.7h2V9.2z"/>
	<path d="M94.8,9.9h-2v5.3h2V9.9z"/>
	<path d="M97.1,11.6h-2v2h2V11.6z"/>
	<path d="M99.4,11.6h-2v2h2V11.6z"/>
</g>
<g>
	<path d="M2.7,11.6h-2v2h2V11.6z"/>
	<path d="M5,11.4H3v2.2h2V11.4z"/>
	<path d="M7.3,10.9h-2v3h2V10.9z"/>
	<path d="M9.6,10.6h-2v4h2V10.6z"/>
	<path d="M11.9,11h-2v3h2V11z"/>
	<path d="M14.2,11.4h-2v2.2h2V11.4z"/>
	<path d="M16.5,11.6h-2v2h2V11.6z"/>
	<path d="M18.8,10.1h-2v4.7h2V10.1z"/>
	<path d="M21.1,11.6h-2v2h2V11.6z"/>
	<path d="M23.4,11.6h-2v2h2V11.6z"/>
	<path d="M25.7,11.6h-2v2h2V11.6z"/>
	<path d="M28,11.6h-2v2h2V11.6z"/>
	<path d="M30.3,11.6h-2v2h2V11.6z"/>
	<path d="M32.7,10.4h-2v4.5h2V10.4z"/>
	<path d="M34.9,11.6h-2v2h2V11.6z"/>
	<path d="M37.2,11.6h-2v2h2V11.6z"/>
	<path d="M39.5,10.9h-2v3.2h2V10.9z"/>
	<path d="M41.8,14.7v-4.3h-2v4.3H41.8z"/>
	<path d="M44.1,9.9h-2v5.4h2V9.9z"/>
	<path d="M46.4,10.4h-2v4.3h2V10.4z"/>
	<path d="M48.7,10.9h-2v3.2h2V10.9z"/>
	<path d="M51,11.6h-2v2h2V11.6z"/>
	<path d="M53.3,11.6h-2v2h2V11.6z"/>
	<path d="M55.6,11.1h-2v3h2V11.1z"/>
	<path d="M57.9,10h-2v5.1h2V10z"/>
	<path d="M60.2,11.1h-2v3h2V11.1z"/>
	<path d="M62.5,11.6h-2v2h2V11.6z"/>
	<path d="M64.8,11.6h-2v2h2V11.6z"/>
	<path d="M67.1,11.4h-2v2.3h2V11.4z"/>
	<path d="M69.4,11.1h-2v3h2V11.1z"/>
	<path d="M71.7,10.4h-2v4.3h2V10.4z"/>
	<path d="M74,9.6h-2v5.8h2V9.6z"/>
	<path d="M76.3,10.4h-2v4.3h2V10.4z"/>
	<path d="M78.6,11.1h-2v3h2V11.1z"/>
	<path d="M80.9,11.4h-2v2.3h2V11.4z"/>
	<path d="M83.2,11.6h-2v2h2V11.6z"/>
	<path d="M85.5,11.4h-2v2.2h2V11.4z"/>
	<path d="M87.8,11.1h-2v2.8h2V11.1z"/>
	<path d="M90.1,10.8h-2v3.6h2V10.8z"/>
	<path d="M92.4,11.1h-2v2.8h2V11.1z"/>
	<path d="M94.8,11.4h-2v2.2h2V11.4z"/>
	<path d="M97.1,11.6h-2v2h2V11.6z"/>
	<path d="M99.4,11.6h-2v2h2V11.6z"/>
</g>
<g>
	<path d="M2.7,11.6h-2v2h2V11.6z"/>
	<path d="M5,11.4H3v2.1h2V11.4z"/>
	<path d="M7.3,11.2h-2v2.5h2V11.2z"/>
	<path d="M9.6,11.1h-2v3h2V11.1z"/>
	<path d="M11.9,11.2h-2v2.5h2V11.2z"/>
	<path d="M14.2,11.4h-2v2.1h2V11.4z"/>
	<path d="M16.5,11.6h-2v2h2V11.6z"/>
	<path d="M18.8,10.9h-2v3.3h2V10.9z"/>
	<path d="M21.1,11.6h-2v2h2V11.6z"/>
	<path d="M23.4,11.6h-2v2h2V11.6z"/>
	<path d="M25.7,11.6h-2v2h2V11.6z"/>
	<path d="M28,11.6h-2v2h2V11.6z"/>
	<path d="M30.3,11.6h-2v2h2V11.6z"/>
	<path d="M32.6,9.4h-2V16h2V9.4z"/>
	<path d="M34.9,11.6h-2v2h2V11.6z"/>
	<path d="M37.2,11.4h-2v2.4h2V11.4z"/>
	<path d="M39.5,10.6h-2v3.9h2V10.6z"/>
	<path d="M41.8,15.1V10h-2v5.1H41.8z"/>
	<path d="M44.1,9.3h-2v6.5h2V9.3z"/>
	<path d="M46.4,10h-2v5.1h2V10z"/>
	<path d="M48.7,10.6h-2v3.9h2V10.6z"/>
	<path d="M51,11.4h-2v2.4h2V11.4z"/>
	<path d="M53.3,11.6h-2v2h2V11.6z"/>
	<path d="M55.6,10.1h-2v5h2V10.1z"/>
	<path d="M57.9,8.2h-2v8.7h2V8.2z"/>
	<path d="M60.2,10.1h-2v5h2V10.1z"/>
	<path d="M62.5,11.6h-2v2h2V11.6z"/>
	<path d="M64.8,11.6h-2v2h2V11.6z"/>
	<path d="M67.1,11.1h-2V14h2V11.1z"/>
	<path d="M69.4,10.6h-2v3.9h2V10.6z"/>
	<path d="M71.7,9.8h-2v5.5h2V9.8z"/>
	<path d="M74,8.8h-2v7.5h2V8.8z"/>
	<path d="M76.3,9.8h-2v5.5h2V9.8z"/>
	<path d="M78.6,10.6h-2v3.9h2V10.6z"/>
	<path d="M80.9,11.1h-2V14h2V11.1z"/>
	<path d="M83.2,11.6h-2v2h2V11.6z"/>
	<path d="M85.5,10.7h-2v3.7h2V10.7z"/>
	<path d="M87.8,10.2h-2v4.6h2V10.2z"/>
	<path d="M90.1,9.6h-2v6h2V9.6z"/>
	<path d="M92.4,10.2h-2v4.6h2V10.2z"/>
	<path d="M94.8,10.7h-2v3.7h2V10.7z"/>
	<path d="M97.1,11.6h-2v2h2V11.6z"/>
	<path d="M99.4,11.6h-2v2h2V11.6z"/>
</g>
<g>
	<path d="M2.7,11.6h-2v2h2V11.6z"/>
	<path d="M5,11.6H3v2h2V11.6z"/>
	<path d="M7.3,11.6h-2v2h2V11.6z"/>
	<path d="M9.6,11.6h-2v2h2V11.6z"/>
	<path d="M11.9,11.6h-2v2h2V11.6z"/>
	<path d="M14.2,11.6h-2v2h2V11.6z"/>
	<path d="M16.5,11.6h-2v2h2V11.6z"/>
	<path d="M18.8,11.6h-2v2h2V11.6z"/>
	<path d="M21.1,9.8h-2v5.5h2V9.8z"/>
	<path d="M23.4,7.4h-2v10.3h2V7.4z"/>
	<path d="M25.7,9.8h-2v5.5h2V9.8z"/>
	<path d="M28,11.6h-2v2h2V11.6z"/>
	<path d="M30.3,11.6h-2v2h2V11.6z"/>
	<path d="M32.6,10.1h-2v5.1h2V10.1z"/>
	<path d="M34.9,11.6h-2v2h2V11.6z"/>
	<path d="M37.2,11.1h-2V14h2V11.1z"/>
	<path d="M39.5,10.2h-2v4.7h2V10.2z"/>
	<path d="M41.8,15.6V9.5h-2v6.1H41.8z"/>
	<path d="M44.1,8.6h-2v7.8h2V8.6z"/>
	<path d="M46.4,9.5h-2v6.1h2V9.5z"/>
	<path d="M48.7,10.2h-2v4.7h2V10.2z"/>
	<path d="M51,11.1h-2V14h2V11.1z"/>
	<path d="M53.3,11.6h-2v2h2V11.6z"/>
	<path d="M55.6,10.6h-2v3.9h2V10.6z"/>
	<path d="M57.9,9.1h-2v6.8h2V9.1z"/>
	<path d="M60.2,10.6h-2v3.9h2V10.6z"/>
	<path d="M62.5,11.6h-2v2h2V11.6z"/>
	<path d="M64.8,11.6h-2v2h2V11.6z"/>
	<path d="M67.1,11.4h-2v2.4h2V11.4z"/>
	<path d="M69.4,10.9h-2v3.2h2V10.9z"/>
	<path d="M71.7,10.3h-2v4.5h2V10.3z"/>
	<path d="M74,9.5h-2v6.1h2V9.5z"/>
	<path d="M76.3,10.3h-2v4.5h2V10.3z"/>
	<path d="M78.6,10.9h-2v3.2h2V10.9z"/>
	<path d="M80.9,11.4h-2v2.4h2V11.4z"/>
	<path d="M83.2,11.6h-2v2h2V11.6z"/>
	<path d="M85.5,10.9h-2v3.3h2V10.9z"/>
	<path d="M87.8,10.6h-2v4.1h2V10.6z"/>
	<path d="M90.1,9.9h-2v5.4h2V9.9z"/>
	<path d="M92.4,10.6h-2v4.1h2V10.6z"/>
	<path d="M94.8,10.9h-2v3.3h2V10.9z"/>
	<path d="M97.1,11.6h-2v2h2V11.6z"/>
	<path d="M99.4,11.6h-2v2h2V11.6z"/>
</g>
<g>
	<path d="M2.7,11.6h-2v2h2V11.6z"/>
	<path d="M5,10.9H3v3h2V10.9z"/>
	<path d="M7.3,9.8h-2v5.3h2V9.8z"/>
	<path d="M9.6,8.2h-2v8.3h2V8.2z"/>
	<path d="M11.9,9.8h-2v5.3h2V9.8z"/>
	<path d="M14.2,10.9h-2v3h2V10.9z"/>
	<path d="M16.5,11.6h-2v2h2V11.6z"/>
	<path d="M18.8,11.6h-2v2h2V11.6z"/>
	<path d="M21.1,10.2h-2V15h2V10.2z"/>
	<path d="M23.4,8.2h-2v8.6h2V8.2z"/>
	<path d="M25.7,10.2h-2V15h2V10.2z"/>
	<path d="M28,11.6h-2v2h2V11.6z"/>
	<path d="M30.3,11.6h-2v2h2V11.6z"/>
	<path d="M32.6,10.8h-2v3.5h2V10.8z"/>
	<path d="M34.9,11.6h-2v2h2V11.6z"/>
	<path d="M37.2,11.6h-2v2h2V11.6z"/>
	<path d="M39.5,10.9h-2v3.2h2V10.9z"/>
	<path d="M41.8,14.7v-4.3h-2v4.3H41.8z"/>
	<path d="M44.1,9.9h-2v5.4h2V9.9z"/>
	<path d="M46.4,10.4h-2v4.3h2V10.4z"/>
	<path d="M48.7,10.9h-2v3.2h2V10.9z"/>
	<path d="M51,11.6h-2v2h2V11.6z"/>
	<path d="M53.3,11.6h-2v2h2V11.6z"/>
	<path d="M55.6,10.3h-2v4.5h2V10.3z"/>
	<path d="M57.9,8.6h-2v7.8h2V8.6z"/>
	<path d="M60.2,10.3h-2v4.5h2V10.3z"/>
	<path d="M62.5,11.6h-2v2h2V11.6z"/>
	<path d="M64.8,11.6h-2v2h2V11.6z"/>
	<path d="M67.1,10.8h-2v3.6h2V10.8z"/>
	<path d="M69.4,10.1h-2v4.8h2V10.1z"/>
	<path d="M71.7,9.1h-2v6.8h2V9.1z"/>
	<path d="M74,7.9h-2v9.3h2V7.9z"/>
	<path d="M76.3,9.1h-2v6.8h2V9.1z"/>
	<path d="M78.6,10.1h-2v4.8h2V10.1z"/>
	<path d="M80.9,10.8h-2v3.6h2V10.8z"/>
	<path d="M83.2,11.6h-2v2h2V11.6z"/>
	<path d="M85.5,11.2h-2V14h2V11.2z"/>
	<path d="M87.8,10.9h-2v3.6h2V10.9z"/>
	<path d="M90.1,10.2h-2v4.7h2V10.2z"/>
	<path d="M92.4,10.9h-2v3.6h2V10.9z"/>
	<path d="M94.8,11.2h-2V14h2V11.2z"/>
	<path d="M97.1,11.6h-2v2h2V11.6z"/>
	<path d="M99.4,11.6h-2v2h2V11.6z"/>
</g>
<g>
	<path d="M2.7,11.6h-2v2h2V11.6z"/>
	<path d="M5,11.1H3v2.8h2V11.1z"/>
	<path d="M7.3,10.2h-2v4.4h2V10.2z"/>
	<path d="M9.6,9.1h-2v6.7h2V9.1z"/>
	<path d="M11.9,10.2h-2v4.4h2V10.2z"/>
	<path d="M14.2,11.1h-2v2.8h2V11.1z"/>
	<path d="M16.5,11.6h-2v2h2V11.6z"/>
	<path d="M18.8,11.6h-2v2h2V11.6z"/>
	<path d="M21.1,10.6h-2v4.1h2V10.6z"/>
	<path d="M23.4,9h-2v7h2V9z"/>
	<path d="M25.7,10.6h-2v4.1h2V10.6z"/>
	<path d="M28,11.6h-2v2h2V11.6z"/>
	<path d="M30.3,11.6h-2v2h2V11.6z"/>
	<path d="M32.6,9.9h-2v5.1h2V9.9z"/>
	<path d="M34.9,11.6h-2v2h2V11.6z"/>
	<path d="M37.2,11.3h-2v2.5h2V11.3z"/>
	<path d="M39.5,10.6h-2v4h2V10.6z"/>
	<path d="M41.8,15.1V9.9h-2v5.2H41.8z"/>
	<path d="M44.1,9.1h-2v7.2h2V9.1z"/>
	<path d="M46.4,9.9h-2v5.2h2V9.9z"/>
	<path d="M48.7,10.6h-2v4h2V10.6z"/>
	<path d="M51,11.3h-2v2.5h2V11.3z"/>
	<path d="M53.3,11.6h-2v2h2V11.6z"/>
	<path d="M55.6,11.2h-2v2.7h2V11.2z"/>
	<path d="M57.9,10.2h-2v4.7h2V10.2z"/>
	<path d="M60.2,11.2h-2v2.7h2V11.2z"/>
	<path d="M62.5,11.6h-2v2h2V11.6z"/>
	<path d="M64.8,11.6h-2v2h2V11.6z"/>
	<path d="M67.1,11h-2v3.1h2V11z"/>
	<path d="M69.4,10.5h-2v4.1h2V10.5z"/>
	<path d="M71.7,9.6h-2v5.8h2V9.6z"/>
	<path d="M74,8.6h-2v7.9h2V8.6z"/>
	<path d="M76.3,9.6h-2v5.8h2V9.6z"/>
	<path d="M78.6,10.5h-2v4.1h2V10.5z"/>
	<path d="M80.9,11h-2v3.1h2V11z"/>
	<path d="M83.2,11.6h-2v2h2V11.6z"/>
	<path d="M85.5,11.4h-2v2.4h2V11.4z"/>
	<path d="M87.8,11h-2v3.1h2V11z"/>
	<path d="M90.1,10.6h-2v4h2V10.6z"/>
	<path d="M92.4,11h-2v3.1h2V11z"/>
	<path d="M94.8,11.4h-2v2.4h2V11.4z"/>
	<path d="M97.1,11.6h-2v2h2V11.6z"/>
	<path d="M99.4,11.6h-2v2h2V11.6z"/>
</g>
<g>
	<path d="M2.7,11.6h-2v2h2V11.6z"/>
	<path d="M5,11.3H3v2.5h2V11.3z"/>
	<path d="M7.3,10.7h-2v3.6h2V10.7z"/>
	<path d="M9.6,9.9h-2v5.2h2V9.9z"/>
	<path d="M11.9,10.8h-2v3.6h2V10.8z"/>
	<path d="M14.2,11.3h-2v2.5h2V11.3z"/>
	<path d="M16.5,11.6h-2v2h2V11.6z"/>
	<path d="M18.8,11.6h-2v2h2V11.6z"/>
	<path d="M21.1,10.9h-2v3.4h2V10.9z"/>
	<path d="M23.4,9.9h-2v5.3h2V9.9z"/>
	<path d="M25.7,10.9h-2v3.4h2V10.9z"/>
	<path d="M28,11.6h-2v2h2V11.6z"/>
	<path d="M30.3,11.6h-2v2h2V11.6z"/>
	<path d="M32.6,11.2h-2v3.1h2V11.2z"/>
	<path d="M34.9,11.6h-2v2h2V11.6z"/>
	<path d="M37.2,11.4h-2v2.2h2V11.4z"/>
	<path d="M39.5,11h-2v3h2V11z"/>
	<path d="M41.8,14.4v-3.6h-2v3.6H41.8z"/>
	<path d="M44.1,10.4h-2V15h2V10.4z"/>
	<path d="M46.3,10.8h-2v3.6h2V10.8z"/>
	<path d="M48.7,11h-2v3h2V11z"/>
	<path d="M51,11.4h-2v2.2h2V11.4z"/>
	<path d="M53.3,11.6h-2v2h2V11.6z"/>
	<path d="M55.6,10.5h-2v4.1h2V10.5z"/>
	<path d="M57.9,9.1h-2v7h2V9.1z"/>
	<path d="M60.2,10.5h-2v4.1h2V10.5z"/>
	<path d="M62.5,11.6h-2v2h2V11.6z"/>
	<path d="M64.8,11.6h-2v2h2V11.6z"/>
	<path d="M67.1,11.4h-2v2.3h2V11.4z"/>
	<path d="M69.4,11h-2v3.1h2V11z"/>
	<path d="M71.7,10.4h-2v4.3h2V10.4z"/>
	<path d="M74,9.6h-2v5.9h2V9.6z"/>
	<path d="M76.3,10.4h-2v4.3h2V10.4z"/>
	<path d="M78.6,11h-2v3.1h2V11z"/>
	<path d="M80.9,11.4h-2v2.3h2V11.4z"/>
	<path d="M83.2,11.6h-2v2h2V11.6z"/>
	<path d="M85.5,10.7h-2v3.7h2V10.7z"/>
	<path d="M87.8,10.2h-2v4.7h2V10.2z"/>
	<path d="M90.1,9.5h-2v6.1h2V9.5z"/>
	<path d="M92.4,10.2h-2v4.7h2V10.2z"/>
	<path d="M94.8,10.7h-2v3.7h2V10.7z"/>
	<path d="M97.1,11.6h-2v2h2V11.6z"/>
	<path d="M99.4,11.6h-2v2h2V11.6z"/>
</g>
<g>
	<path d="M2.7,11.6h-2v2h2V11.6z"/>
	<path d="M5,11.4H3v2.3h2V11.4z"/>
	<path d="M7.3,11.1h-2v2.8h2V11.1z"/>
	<path d="M9.6,10.7h-2v3.6h2V10.7z"/>
	<path d="M11.9,11.1h-2v2.8h2V11.1z"/>
	<path d="M14.2,11.4h-2v2.3h2V11.4z"/>
	<path d="M16.5,11.6h-2v2h2V11.6z"/>
	<path d="M18.8,11.6h-2v2h2V11.6z"/>
	<path d="M21.1,11.2h-2v2.7h2V11.2z"/>
	<path d="M23.4,10.7h-2v3.7h2V10.7z"/>
	<path d="M25.7,11.2h-2v2.7h2V11.2z"/>
	<path d="M28,11.6h-2v2h2V11.6z"/>
	<path d="M30.3,11.6h-2v2h2V11.6z"/>
	<path d="M32.6,11.2h-2v3.1h2V11.2z"/>
	<path d="M34.9,11.6h-2v2h2V11.6z"/>
	<path d="M37.2,11.6h-2v2h2V11.6z"/>
	<path d="M39.5,11.6h-2v2h2V11.6z"/>
	<path d="M41.8,13.6v-2h-2v2H41.8z"/>
	<path d="M44.1,11.6h-2v2h2V11.6z"/>
	<path d="M46.4,11.6h-2v2h2V11.6z"/>
	<path d="M48.7,11.6h-2v2h2V11.6z"/>
	<path d="M51,11.6h-2v2h2V11.6z"/>
	<path d="M53.3,11.6h-2v2h2V11.6z"/>
	<path d="M55.6,11.1h-2v3.1h2V11.1z"/>
	<path d="M57.8,9.9h-2v5.4h2V9.9z"/>
	<path d="M60.2,11.1h-2v3.1h2V11.1z"/>
	<path d="M62.5,11.6h-2v2h2V11.6z"/>
	<path d="M64.8,11.6h-2v2h2V11.6z"/>
	<path d="M67.1,11.2h-2v2.6h2V11.2z"/>
	<path d="M69.4,10.8h-2v3.4h2V10.8z"/>
	<path d="M71.7,10.1h-2v4.8h2V10.1z"/>
	<path d="M74,9.3h-2v6.6h2V9.3z"/>
	<path d="M76.3,10.1h-2v4.8h2V10.1z"/>
	<path d="M78.6,10.8h-2v3.4h2V10.8z"/>
	<path d="M80.9,11.2h-2v2.6h2V11.2z"/>
	<path d="M83.2,11.6h-2v2h2V11.6z"/>
	<path d="M85.5,11.1h-2v3h2V11.1z"/>
	<path d="M87.8,10.7h-2v3.8h2V10.7z"/>
	<path d="M90.1,10.1h-2v5h2V10.1z"/>
	<path d="M92.4,10.7h-2v3.8h2V10.7z"/>
	<path d="M94.8,11.1h-2v3h2V11.1z"/>
	<path d="M97.1,11.6h-2v2h2V11.6z"/>
	<path d="M99.4,11.6h-2v2h2V11.6z"/>
</g>
<g>
	<path d="M2.7,11.6h-2v2h2V11.6z"/>
	<path d="M5,11.6H3v2h2V11.6z"/>
	<path d="M7.3,11.6h-2v2h2V11.6z"/>
	<path d="M9.6,11.6h-2v2h2V11.6z"/>
	<path d="M11.9,11.6h-2v2h2V11.6z"/>
	<path d="M14.2,11.6h-2v2h2V11.6z"/>
	<path d="M16.5,11.6h-2v2h2V11.6z"/>
	<path d="M18.8,11.6h-2v2h2V11.6z"/>
	<path d="M21.1,11.6h-2v2h2V11.6z"/>
	<path d="M23.4,11.6h-2v2h2V11.6z"/>
	<path d="M25.7,11.6h-2v2h2V11.6z"/>
	<path d="M28,11.6h-2v2h2V11.6z"/>
	<path d="M30.3,11.6h-2v2h2V11.6z"/>
	<path d="M32.6,11.2h-2v3.1h2V11.2z"/>
	<path d="M34.9,11.6h-2v2h2V11.6z"/>
	<path d="M37.2,11.6h-2v2h2V11.6z"/>
	<path d="M39.5,11.4h-2v2.2h2V11.4z"/>
	<path d="M41.8,14.1v-3.2h-2v3.2H41.8z"/>
	<path d="M44.1,10.4h-2v4.6h2V10.4z"/>
	<path d="M46.4,10.9h-2v3.2h2V10.9z"/>
	<path d="M48.7,11.4h-2v2.2h2V11.4z"/>
	<path d="M51,11.6h-2v2h2V11.6z"/>
	<path d="M53.3,11.6h-2v2h2V11.6z"/>
	<path d="M55.6,11.4h-2v2.2h2V11.4z"/>
	<path d="M57.9,10.6h-2v3.8h2V10.6z"/>
	<path d="M60.2,11.4h-2v2.2h2V11.4z"/>
	<path d="M62.5,11.6h-2v2h2V11.6z"/>
	<path d="M64.8,11.6h-2v2h2V11.6z"/>
	<path d="M67.1,11.1h-2V14h2V11.1z"/>
	<path d="M69.4,10.6h-2v3.8h2V10.6z"/>
	<path d="M71.7,9.9h-2v5.4h2V9.9z"/>
	<path d="M74,8.9h-2v7.3h2V8.9z"/>
	<path d="M76.3,9.9h-2v5.4h2V9.9z"/>
	<path d="M78.6,10.6h-2v3.8h2V10.6z"/>
	<path d="M80.9,11.1h-2V14h2V11.1z"/>
	<path d="M83.2,11.6h-2v2h2V11.6z"/>
	<path d="M85.5,11.4h-2v2.3h2V11.4z"/>
	<path d="M87.8,11.1h-2V14h2V11.1z"/>
	<path d="M90.1,10.6h-2v3.8h2V10.6z"/>
	<path d="M92.4,11.1h-2V14h2V11.1z"/>
	<path d="M94.8,11.4h-2v2.3h2V11.4z"/>
	<path d="M97.1,11.6h-2v2h2V11.6z"/>
	<path d="M99.4,11.6h-2v2h2V11.6z"/>
</g>
</svg>
