<?xml version="1.0" encoding="utf-8"?>
<!-- Generator: Adobe Illustrator 23.0.3, SVG Export Plug-In . SVG Version: 6.00 Build 0)  -->
<svg version="1.1" baseProfile="tiny" id="s71" xmlns="http://www.w3.org/2000/svg" xmlns:xlink="http://www.w3.org/1999/xlink"
	 x="0px" y="0px" viewBox="0 0 224.55 26.22" xml:space="preserve">
<path fill="#1A8EE5" d="M222.55,26.22c-0.03-0.31-0.78-7.69-12.9-12.11c-12.79-4.65-34.78-10.53-35-10.59
	c-0.05-0.01-3.86-1.06-6.45-0.04c-1.51,0.6-5.24,3.35-8.24,5.56c-4.36,3.21-5.05,3.65-5.68,3.65v-2c-0.13,0-0.22,0.03-0.22,0.03
	c0.5-0.19,2.84-1.91,4.72-3.29c3.25-2.39,6.94-5.11,8.69-5.81c3.22-1.28,7.54-0.08,7.72-0.03c0.21,0.05,22.28,5.96,35.15,10.63
	c13.42,4.89,14.19,13.48,14.21,13.85L222.55,26.22z"/>
<path fill="#1A8EE5" d="M1.99,26.23L0,26.08c0.03-0.36,0.79-8.96,14.21-13.85C27.07,7.55,49.15,1.65,49.38,1.59
	c0.17-0.05,4.48-1.24,7.7,0.04c1.75,0.7,5.43,3.41,8.69,5.81c1.88,1.38,4.22,3.11,4.72,3.3c0,0-0.09-0.03-0.22-0.03v2
	c-0.63,0-1.32-0.44-5.69-3.65c-3-2.21-6.73-4.95-8.24-5.56c-2.58-1.03-6.39,0.02-6.43,0.03C49.68,3.59,27.68,9.47,14.9,14.12
	C2.77,18.53,2.02,25.92,1.99,26.23z"/>
</svg>
