<?xml version="1.0" encoding="utf-8"?>
<!-- Generator: Adobe Illustrator 23.0.3, SVG Export Plug-In . SVG Version: 6.00 Build 0)  -->
<svg version="1.1" baseProfile="tiny" id="s71" xmlns="http://www.w3.org/2000/svg" xmlns:xlink="http://www.w3.org/1999/xlink"
	 x="0px" y="0px" viewBox="0 0 62.06 26.89" xml:space="preserve">
<polygon fill="#1A8EE5" points="20.03,26.89 11.27,24.58 10.3,19.24 13.84,3.36 20.86,0 21.72,1.8 15.58,4.75 12.34,19.28 
	13.01,22.97 18.76,24.49 19.22,23.18 21.11,23.84 "/>
<polygon fill="#1A8EE5" points="42.08,26.89 41.01,23.84 42.9,23.18 43.36,24.49 49.1,22.97 49.78,19.28 46.54,4.75 40.39,1.8 
	41.26,0 48.28,3.36 51.82,19.24 50.84,24.58 "/>
<rect x="29.84" y="14.71" fill="#1A8EE5" width="2.44" height="2.44"/>
<rect y="14.93" fill="#1A8EE5" width="9.18" height="2"/>
<rect x="52.89" y="14.93" fill="#1A8EE5" width="9.17" height="2"/>
</svg>
