<?xml version="1.0" encoding="utf-8"?>
<!-- Generator: Adobe Illustrator 28.5.0, SVG Export Plug-In . SVG Version: 9.03 Build 54727)  -->
<svg version="1.1" baseProfile="tiny" id="Layer_1" xmlns="http://www.w3.org/2000/svg" xmlns:xlink="http://www.w3.org/1999/xlink"
	 x="0px" y="0px" width="1394.8px" height="221.1px" viewBox="0 0 1394.8 221.1" overflow="visible" xml:space="preserve">
<rect id="colorstyle:Moderate_00000039837432072079004750000007170661438745833099_" x="6.8" y="7.3" fill="#FEE752" width="1381.3" height="207"/>
<path id="colorstyle:Bright_00000003810817260487495710000006528661167012170134_" fill="#EFECE2" d="M-0.3,0.3v221H1395V0.3H-0.3z
	 M6.7,7.3L6.7,7.3H1388v207H6.8H6.7V7.3z"/>
<g id="colorstyle:Background_00000038404469729506064420000001633401885373936271_">
	<polygon fill="#221F1F" points="25.7,191.9 25.7,197.1 47.2,197.1 123.2,121.1 123.2,94.3 	"/>
	<polygon fill="#221F1F" points="76.3,197.1 103.1,197.1 123.2,177 123.2,150.2 	"/>
	<polygon fill="#221F1F" points="25.7,24.2 25.7,51 53.9,22.8 27.1,22.8 	"/>
	<polygon fill="#221F1F" points="25.7,80.1 25.7,106.9 109.8,22.8 83,22.8 	"/>
	<polygon fill="#221F1F" points="25.7,136 25.7,162.8 123.2,65.2 123.2,38.5 	"/>
</g>
<g id="colorstyle:Background">
	<polygon fill="#231F20" points="1271.3,191.9 1271.3,197.1 1292.9,197.1 1368.9,121.1 1368.9,94.3 	"/>
	<polygon fill="#231F20" points="1322,197.1 1348.8,197.1 1368.9,177 1368.9,150.2 	"/>
	<polygon fill="#231F20" points="1271.3,80.1 1271.3,106.9 1355.5,22.8 1328.7,22.8 	"/>
	<polygon fill="#231F20" points="1271.3,24.2 1271.3,51 1299.6,22.8 1272.8,22.8 	"/>
	<polygon fill="#231F20" points="1271.3,136 1271.3,162.8 1368.9,65.2 1368.9,38.5 	"/>
</g>
</svg>
