<?xml version="1.0" encoding="utf-8"?>
<!-- Generator: Adobe Illustrator 27.2.0, SVG Export Plug-In . SVG Version: 6.00 Build 0)  -->
<svg version="1.1" baseProfile="tiny" id="Layer_1" xmlns="http://www.w3.org/2000/svg" xmlns:xlink="http://www.w3.org/1999/xlink"
	 x="0px" y="0px" viewBox="0 0 4 1255.8" overflow="visible" xml:space="preserve">
<g>
	<path fill="#83A9D9" d="M0,1255.8v-12h4v12H0z M0,1230.8v-12h4v12H0z M0,1205.8v-12h4v12H0z M0,1180.8v-12h4v12H0z M0,1155.8v-12h4
		v12H0z M0,1130.8v-12h4v12H0z M0,1105.8v-12h4v12H0z M0,1080.8v-12h4v12H0z M0,1055.8v-12h4v12H0z M0,1030.8v-12h4v12H0z M0,1005.8
		v-12h4v12H0z M0,980.8v-12h4v12H0z M0,955.8v-12h4v12H0z M0,930.8v-12h4v12H0z M0,905.8v-12h4v12H0z M0,880.8v-12h4v12H0z M0,855.8
		v-12h4v12H0z M0,830.8v-12h4v12H0z M0,805.8v-12h4v12H0z M0,780.8v-12h4v12H0z M0,755.8v-12h4v12H0z M0,730.8v-12h4v12H0z M0,705.8
		v-12h4v12H0z M0,680.8v-12h4v12H0z M0,655.8v-12h4v12H0z M0,630.8v-12h4v12H0z M0,605.8v-12h4v12H0z M0,580.8v-12h4v12H0z M0,555.8
		v-12h4v12H0z M0,530.8v-12h4v12H0z M0,505.8v-12h4v12H0z M0,480.8v-12h4v12H0z M0,455.8v-12h4v12H0z M0,430.8v-12h4v12H0z M0,405.8
		v-12h4v12H0z M0,380.8v-12h4v12H0z M0,355.8v-12h4v12H0z M0,330.8v-12h4v12H0z M0,305.8v-12h4v12H0z M0,280.8v-12h4v12H0z M0,255.8
		v-12h4v12H0z M0,230.8v-12h4v12H0z M0,205.8v-12h4v12H0z M0,180.8v-12h4v12H0z M0,155.8v-12h4v12H0z M0,130.8v-12h4v12H0z M0,105.8
		v-12h4v12H0z M0,80.8v-12h4v12H0z M0,55.8v-12h4v12H0z M0,30.8v-12h4v12H0z M0,5.8V0h4v5.8H0z"/>
</g>
</svg>
