<?xml version="1.0" encoding="utf-8"?>
<!-- Generator: Adobe Illustrator 27.2.0, SVG Export Plug-In . SVG Version: 6.00 Build 0)  -->
<svg version="1.1" baseProfile="tiny" id="Layer_1" xmlns="http://www.w3.org/2000/svg" xmlns:xlink="http://www.w3.org/1999/xlink"
	 x="0px" y="0px" viewBox="0 0 67.3 583" overflow="visible" xml:space="preserve">
<path id="opacity:100_colorstyle:Base" fill="#68FFD8" d="M58.2,4.6V580H3V4.6H58.2 M61.2,1.6H0V583h61.2V1.6L61.2,1.6z"/>
<g id="opacity:100_colorstyle:Base_00000038383580433412860840000008802588994777445270_">
	<path fill="#68FFD8" d="M67.3,583h-6v-3h6V583z M67.3,510.7h-6v-3h6V510.7z M67.3,438.4h-6v-3h6V438.4z M67.3,366.1h-6v-3h6V366.1z
		 M67.3,293.8h-6v-3h6V293.8z M67.3,221.5h-6v-3h6V221.5z M67.3,149.2h-6v-3h6V149.2z M67.3,76.9h-6v-3h6V76.9z M67.3,4.6h-6v-3h6
		V4.6z"/>
</g>
</svg>
