<?xml version="1.0" encoding="utf-8"?>
<!-- Generator: Adobe Illustrator 27.2.0, SVG Export Plug-In . SVG Version: 6.00 Build 0)  -->
<svg version="1.1" baseProfile="tiny" id="Layer_1" xmlns="http://www.w3.org/2000/svg" xmlns:xlink="http://www.w3.org/1999/xlink"
	 x="0px" y="0px" viewBox="0 0 1255.8 4" overflow="visible" xml:space="preserve">
<g>
	<path fill="#83A9D9" d="M1255.8,4h-12V0h12V4z M1230.8,4h-12V0h12V4z M1205.8,4h-12V0h12V4z M1180.8,4h-12V0h12V4z M1155.8,4h-12V0
		h12V4z M1130.8,4h-12V0h12V4z M1105.8,4h-12V0h12V4z M1080.8,4h-12V0h12V4z M1055.8,4h-12V0h12V4z M1030.8,4h-12V0h12V4z M1005.8,4
		h-12V0h12V4z M980.8,4h-12V0h12V4z M955.8,4h-12V0h12V4z M930.8,4h-12V0h12V4z M905.8,4h-12V0h12V4z M880.8,4h-12V0h12V4z M855.8,4
		h-12V0h12V4z M830.8,4h-12V0h12V4z M805.8,4h-12V0h12V4z M780.8,4h-12V0h12V4z M755.8,4h-12V0h12V4z M730.8,4h-12V0h12V4z M705.8,4
		h-12V0h12V4z M680.8,4h-12V0h12V4z M655.8,4h-12V0h12V4z M630.8,4h-12V0h12V4z M605.8,4h-12V0h12V4z M580.8,4h-12V0h12V4z M555.8,4
		h-12V0h12V4z M530.8,4h-12V0h12V4z M505.8,4h-12V0h12V4z M480.8,4h-12V0h12V4z M455.8,4h-12V0h12V4z M430.8,4h-12V0h12V4z M405.8,4
		h-12V0h12V4z M380.8,4h-12V0h12V4z M355.8,4h-12V0h12V4z M330.8,4h-12V0h12V4z M305.8,4h-12V0h12V4z M280.8,4h-12V0h12V4z M255.8,4
		h-12V0h12V4z M230.8,4h-12V0h12V4z M205.8,4h-12V0h12V4z M180.8,4h-12V0h12V4z M155.8,4h-12V0h12V4z M130.8,4h-12V0h12V4z M105.8,4
		h-12V0h12V4z M80.8,4h-12V0h12V4z M55.8,4h-12V0h12V4z M30.8,4h-12V0h12V4z M5.8,4H0V0h5.8V4z"/>
</g>
</svg>
