<?xml version="1.0" encoding="utf-8"?>
<!-- Generator: Adobe Illustrator 27.8.1, SVG Export Plug-In . SVG Version: 6.00 Build 0)  -->
<svg version="1.1" baseProfile="tiny" id="Layer_1" xmlns="http://www.w3.org/2000/svg" xmlns:xlink="http://www.w3.org/1999/xlink"
	 x="0px" y="0px" viewBox="0 0 25 620" overflow="visible" xml:space="preserve">
<g>
	<path d="M10,606H0v-4h10V606z M10,592H0v-4h10V592z M10,578H0v-4h10V578z M10,550H0v-4h10V550z M10,536H0v-4h10V536z M10,522H0v-4
		h10V522z M10,494H0v-4h10V494z M10,480H0v-4h10V480z M10,466H0v-4h10V466z M10,438H0v-4h10V438z M10,424H0v-4h10V424z M10,410H0v-4
		h10V410z M10,382H0v-4h10V382z M10,368H0v-4h10V368z M10,354H0v-4h10V354z M10,326H0v-4h10V326z M10,312H0v-4h10V312z M10,298H0v-4
		h10V298z M10,270H0v-4h10V270z M10,256H0v-4h10V256z M10,242H0v-4h10V242z M10,214H0v-4h10V214z M10,200H0v-4h10V200z M10,186H0v-4
		h10V186z M10,158H0v-4h10V158z M10,144H0v-4h10V144z M10,130H0v-4h10V130z M10,102H0v-4h10V102z M10,88H0v-4h10V88z M10,74H0v-4h10
		V74z M10,46H0v-4h10V46z M10,32H0v-4h10V32z M10,18H0v-4h10V18z"/>
</g>
<g>
	<path d="M25,620H0v-4h25V620z M25,564H0v-4h25V564z M25,508H0v-4h25V508z M25,452H0v-4h25V452z M25,396H0v-4h25V396z M25,340H0v-4
		h25V340z M25,284H0v-4h25V284z M25,228H0v-4h25V228z M25,172H0v-4h25V172z M25,116H0v-4h25V116z M25,60H0v-4h25V60z M25,4H0V0h25V4
		z"/>
</g>
</svg>
