<?xml version="1.0" encoding="utf-8"?>
<!-- Generator: Adobe Illustrator 27.9.0, SVG Export Plug-In . SVG Version: 6.00 Build 0)  -->
<svg version="1.1" baseProfile="tiny" id="Layer_1" xmlns="http://www.w3.org/2000/svg" xmlns:xlink="http://www.w3.org/1999/xlink"
	 x="0px" y="0px" viewBox="0 0 512 512" overflow="visible" xml:space="preserve">
<rect x="186.9" y="338.4" transform="matrix(0.7084 -0.7058 0.7058 0.7084 -185.4238 242.4855)" fill="#D91F24" width="27.7" height="14.5"/>
<path fill="#D91F24" d="M137.9,416l-9.9-10.6l-10.7,10.1c-8-5.8-17.4-9.3-27.5-10c-14.2-1-28,3.5-38.7,12.9
	c-10.8,9.3-17.3,22.3-18.3,36.5c-1,14.2,3.5,28,12.9,38.7c9.3,10.8,22.3,17.3,36.5,18.3c1.3,0.1,2.6,0.1,3.9,0.1h0
	c27.7,0,51.1-21.5,53.2-49.5c1-13.4-3.1-26.5-11.4-36.9L137.9,416z M124.6,461.5c-1.5,21.4-20.1,37.5-41.5,36h0
	c-10.3-0.7-19.8-5.5-26.6-13.3c-6.8-7.8-10.1-17.9-9.4-28.2c0.7-10.3,5.5-19.8,13.3-26.6c7.8-6.8,17.9-10.1,28.2-9.4
	c10.3,0.7,19.8,5.5,26.6,13.3C122,441.1,125.3,451.1,124.6,461.5z"/>
<circle fill="#D91F24" cx="161.5" cy="383.6" r="20.6"/>
<path fill="#FFFFFF" d="M158.2,394.2c0-2.3,1.5-3.8,3.7-3.8c2.2,0,3.7,1.6,3.7,3.8c0,2.2-1.5,3.8-3.7,3.8
	C159.7,398,158.2,396.4,158.2,394.2z M159.6,388.3l-0.9-19.1h6.5l-0.9,19.1H159.6z"/>
</svg>
