<?xml version="1.0" encoding="utf-8"?>
<!-- Generator: Adobe Illustrator 27.9.0, SVG Export Plug-In . SVG Version: 6.00 Build 0)  -->
<svg version="1.1" baseProfile="tiny" id="Layer_1" xmlns="http://www.w3.org/2000/svg" xmlns:xlink="http://www.w3.org/1999/xlink"
	 x="0px" y="0px" viewBox="0 0 512 512" overflow="visible" xml:space="preserve">
<g>
	<polygon fill="#FFFFFF" points="268.6,360 268.6,360 268.6,360 	"/>
	<path fill="#FFFFFF" d="M463.2,397.9c-0.8-28.9-24.5-51.9-53.3-51.9c-0.5,0-0.9,0-1.4,0c-13.8,0.4-26.3,6-35.6,14.9l-38.9-33
		c7-9,12.1-19.4,14.9-30.8c5.4-21.5,2-43.8-9.4-62.8c-7.6-12.7-18.3-22.9-30.9-29.9l37.8-86.5c0.2,0.1,0.5,0.1,0.7,0.2
		c4.3,1.1,8.7,1.6,13,1.6h0c9.6,0,19-2.6,27.4-7.6c12.2-7.3,20.8-19,24.3-32.8c3.4-13.8,1.3-28.2-6-40.4
		c-7.3-12.2-19-20.8-32.8-24.3c-13.8-3.4-28.2-1.3-40.4,6c-12.2,7.3-20.8,19-24.3,32.8c-3.4,13.8-1.3,28.2,6,40.4
		c4.7,7.8,11.1,14.1,18.7,18.5l-37.7,86.2c-2.2-0.8-4.5-1.5-6.8-2c-19.6-4.9-39.9-2.5-57.7,6.6l-27.4-40.7c9-7.1,15.8-17.1,18.8-29
		c3.4-13.8,1.3-28.2-6-40.4c-7.3-12.2-19-20.8-32.8-24.3c-13.8-3.4-28.2-1.3-40.4,6c-12.2,7.3-20.8,19-24.3,32.8
		c-7.1,28.5,10.3,57.5,38.9,64.7c4.3,1.1,8.6,1.6,12.9,1.6l0,0c7.1,0,14-1.4,20.4-4.1l27.6,41c-15.2,11.4-25.9,27.5-30.5,46.1
		c-5.4,21.5-2,43.8,9.4,62.8c11.4,19,29.5,32.4,51,37.7c6.7,1.7,13.5,2.5,20.2,2.5c14.9,0,29.5-4,42.6-11.9c4.7-2.8,9-6,13-9.6
		l39.7,33.8c-4.9,8.3-7.6,18.1-7.4,28.4c0.8,28.9,24.5,51.9,53.3,51.9v0c0.5,0,0.9,0,1.4,0C440.7,451.9,464,427.3,463.2,397.9z
		 M326.8,86.5c-5.3-8.9-6.9-19.3-4.4-29.4c2.5-10.1,8.8-18.6,17.7-23.9c6.1-3.7,13-5.6,19.9-5.6c3.2,0,6.3,0.4,9.5,1.2
		c10.1,2.5,18.6,8.8,23.9,17.7c5.3,8.9,6.9,19.3,4.4,29.4c-2.5,10.1-8.8,18.6-17.7,23.9c-8.9,5.3-19.3,6.9-29.4,4.4
		C340.7,101.7,332.2,95.4,326.8,86.5z M161.2,158.3c-20.8-5.2-33.5-26.3-28.3-47.1c2.5-10.1,8.8-18.6,17.7-23.9
		c6.1-3.7,13-5.6,19.9-5.6c3.2,0,6.3,0.4,9.5,1.2c10.1,2.5,18.6,8.8,23.9,17.7c5.3,8.9,6.9,19.3,4.4,29.4
		c-4.4,17.6-20.3,29.5-37.7,29.5C167.5,159.5,164.3,159.1,161.2,158.3z M268.5,345.5c-5.5,0-11-0.7-16.5-2
		c-17.7-4.4-32.7-15.5-42.1-31.1c-9.4-15.7-12.2-34.1-7.7-51.8c4.4-17.7,15.5-32.7,31.1-42.1c10.8-6.5,22.9-9.8,35.1-9.8l0,0
		c5.5,0,11.1,0.7,16.7,2.1c17.7,4.4,32.7,15.5,42.1,31.1c9.4,15.7,12.2,34.1,7.7,51.8C327.2,324.7,299.2,345.5,268.5,345.5z
		 M438.1,426.1c-7.1,7.5-16.8,11.8-27.2,12.1c-0.3,0-0.7,0-1,0c-20.9,0-38.3-16.8-38.8-37.8c-0.3-10.4,3.5-20.2,10.7-27.8
		c7.1-7.5,16.8-11.8,27.2-12.1c0.3,0,0.7,0,1,0c21,0,38.3,16.8,38.8,37.8C449,408.7,445.2,418.5,438.1,426.1z"/>
</g>
<rect x="186.9" y="338.4" transform="matrix(0.7084 -0.7058 0.7058 0.7084 -185.4238 242.4854)" fill="#FF0000" width="27.7" height="14.5"/>
<path fill="#FF0000" d="M143.2,411.1l10.2-9.6l-9.9-10.6L132.7,401c-8-5.8-17.4-9.3-27.5-10c-14.2-1-28,3.5-38.7,12.9
	c-10.8,9.3-17.3,22.3-18.3,36.5s3.5,28,12.9,38.7c9.3,10.8,22.3,17.3,36.5,18.3c1.3,0.1,2.6,0.1,3.9,0.1h0
	c27.7,0,51.1-21.5,53.2-49.5C155.5,434.6,151.5,421.5,143.2,411.1z M140.1,446.9c-1.5,21.4-20.1,37.5-41.5,36h0
	c-10.3-0.7-19.8-5.5-26.6-13.3c-6.8-7.8-10.1-17.9-9.4-28.2c0.7-10.3,5.5-19.8,13.3-26.6c7.8-6.8,17.9-10.1,28.2-9.4
	c10.3,0.7,19.8,5.5,26.6,13.3C137.5,426.6,140.9,436.6,140.1,446.9z"/>
<g>
	<circle fill="#FF0000" cx="170.3" cy="376" r="20.6"/>
	<path fill="#FFFFFF" d="M167,386.7c0-2.3,1.5-3.8,3.7-3.8c2.2,0,3.7,1.6,3.7,3.8c0,2.2-1.5,3.8-3.7,3.8
		C168.5,390.5,167,388.8,167,386.7z M168.4,380.7l-0.9-19.1h6.5l-0.9,19.1H168.4z"/>
</g>
</svg>
