<?xml version="1.0" encoding="utf-8"?>
<!-- Generator: Adobe Illustrator 27.9.0, SVG Export Plug-In . SVG Version: 6.00 Build 0)  -->
<svg version="1.1" baseProfile="tiny" id="Layer_1" xmlns="http://www.w3.org/2000/svg" xmlns:xlink="http://www.w3.org/1999/xlink"
	 x="0px" y="0px" viewBox="0 0 1016 147.6" overflow="visible" xml:space="preserve">
<g>
	<polygon points="0,0.1 0,11.2 11.1,0.1 	"/>
	<polygon points="1004.9,0.1 1016,11.2 1016,0.1 	"/>
	<path d="M983,0l23.4,23.4h-10.6L972.4,0h-11.3l23.4,23.4H974L950.6,0h-11.3l23.3,23.4h-10.5L928.7,0h-11.3l23.4,23.4h-10.6L906.8,0
		h-11.3l23.4,23.4h-10.5L885,0.1h-11.3L897,23.4h-10.5L863.1,0h-11.3l23.4,23.4h-10.6L841.2,0h-11.3l23.4,23.4h-10.6L819.3,0H808
		l23.4,23.4h-10.5L797.5,0h-11.3l23.4,23.4H799L775.6,0h-11.3l23.4,23.4h-10.6L753.7,0h-11.3l23.4,23.4h-10.5L731.9,0h-11.3
		l23.3,23.4h-10.5L710,0h-11.3l23.4,23.4h-10.6L688.1,0h-11.3l23.4,23.4h-10.5L666.3,0H655l23.3,23.4h-10.5L644.4,0h-11.3l23.4,23.4
		h-10.6L622.5,0h-11.3l23.4,23.4H624L600.6,0h-11.3l23.4,23.4h-10.5L578.8,0h-11.3l23.4,23.4h-10.6L556.9,0h-11.3L569,23.4h-10.6
		L535,0.1h-11.3l23.4,23.3h-10.5L513.2,0H508h-5.2l-23.4,23.4h-10.5L492.3,0H481l-23.4,23.4H447L470.4,0h-11.3l-23.4,23.4h-10.6
		L448.5,0h-11.3l-23.4,23.4h-10.5L426.7,0h-11.3L392,23.4h-10.6L404.8,0h-11.3l-23.4,23.4h-10.6L382.9,0h-11.3l-23.4,23.4h-10.5
		L361.1,0h-11.3l-23.4,23.4h-10.6L339.2,0h-11.3l-23.4,23.4h-10.6L317.3,0H306l-23.4,23.4h-10.5L295.5,0h-11.3l-23.4,23.4h-10.6
		L273.6,0h-11.3l-23.4,23.4h-10.6L251.7,0h-11.3L217,23.4h-10.6L229.8,0h-11.3l-23.4,23.4h-10.5L208,0.1h-11.3l-23.3,23.3h-10.7
		L186.1,0h-11.3l-23.4,23.4h-10.6L164.2,0h-11.3l-23.4,23.4H119L142.4,0H131l-23.4,23.4H97.1L120.5,0h-11.3L85.8,23.4H75.2L98.6,0
		H87.3L63.9,23.4H53.4L76.8,0H65.5L42.1,23.4H31.5L54.9,0H43.6L20.2,23.4H9.6L33,0.1H21.7L0,21.7v1.7v1.5v1.5h1016v-1.5v-1.5v-1.7
		L994.3,0H983z M508,6.2l17.3,17.2h-10.6l-6.7-6.7l-6.7,6.7h-10.6L508,6.2z"/>
</g>
<g>
	<polygon points="1016,147.5 1016,136.4 1004.9,147.5 	"/>
	<polygon points="0,147.5 11.1,147.5 0,136.4 	"/>
	<path d="M0,121.1v1.6v1.4v1.8l21.7,21.7H33L9.5,124.1h10.6l23.5,23.5h11.3l-23.5-23.5h10.5l23.5,23.5h11.3l-23.4-23.5h10.5
		l23.5,23.5h11.3l-23.5-23.5h10.6l23.5,23.5h11.3L97,124.1h10.5l23.5,23.4h11.3l-23.4-23.4h10.5l23.5,23.5h11.3l-23.5-23.5h10.6
		l23.5,23.5h11.3l-23.5-23.5h10.6l23.5,23.5H208l-23.5-23.5H195l23.5,23.5h11.3l-23.5-23.5h10.6l23.5,23.5h11.3l-23.5-23.5h10.6
		l23.5,23.5h11.3l-23.5-23.5h10.5l23.5,23.5h11.3L272,124.1h10.5l23.5,23.5h11.3l-23.5-23.5h10.6l23.5,23.5h11.3l-23.5-23.5h10.5
		l23.5,23.5H361l-23.4-23.5h10.5l23.5,23.5h11.3l-23.5-23.5H370l23.5,23.5h11.3l-23.5-23.5h10.6l23.5,23.5h11.3l-23.5-23.5h10.5
		l23.5,23.5h11.3L425,124.1h10.6l23.5,23.5h11.3l-23.5-23.5h10.6l23.5,23.4h11.3l-23.5-23.4h10.5l23.5,23.5h5.2h5.2l23.5-23.5h10.5
		l-23.5,23.5H535l23.5-23.5h10.6l-23.5,23.5h11.3l23.5-23.5H591l-23.5,23.5h11.3l23.5-23.5h10.5l-23.5,23.5h11.3l23.5-23.5h10.6
		l-23.5,23.5h11.3l23.5-23.5h10.6l-23.5,23.5h11.3l23.5-23.5h10.5l-23.5,23.5h11.3l23.5-23.5h10.6l-23.5,23.5h11.3l23.5-23.5h10.6
		l-23.5,23.5H710l23.5-23.5H744l-23.5,23.5h11.3l23.5-23.5h10.6l-23.5,23.5h11.3l23.5-23.5h10.6l-23.5,23.5h11.3l23.5-23.5h10.6
		l-23.5,23.5h11.3l23.5-23.5h10.5L808,147.5h11.3l23.4-23.4h10.7l-23.5,23.5h11.3l23.5-23.5h10.6l-23.5,23.5h11.3l23.5-23.5h10.5
		l-23.5,23.5H885l23.5-23.5H919l-23.5,23.5h11.3l23.5-23.5h10.6l-23.5,23.5h11.3l23.5-23.5h10.5l-23.5,23.5h11.3l23.5-23.5h10.6
		l-23.5,23.5h11.3l23.5-23.5h10.6L983,147.5h11.3l21.7-21.6v-1.8v-1.4v-1.6H0z M508,141.4l-17.4-17.3h10.6l6.8,6.8l6.8-6.8h10.6
		L508,141.4z"/>
</g>
</svg>
