<?xml version="1.0" encoding="utf-8"?>
<!-- Generator: Adobe Illustrator 26.5.0, SVG Export Plug-In . SVG Version: 6.00 Build 0)  -->
<svg version="1.1" baseProfile="tiny" id="Layer_1" xmlns="http://www.w3.org/2000/svg" xmlns:xlink="http://www.w3.org/1999/xlink"
	 x="0px" y="0px" viewBox="0 0 1016 26" overflow="visible" xml:space="preserve">
<path d="M292.4,0.6l24.9,24.9H306L281.1,0.6H292.4z M324.8,0.6l24.9,24.9h11.3L336.2,0.6H324.8z M303,0.6l24.9,24.9h11.3L314.3,0.6
	H303z M237.4,0.6l24.9,24.9h11.3L248.7,0.6H237.4z M259.2,0.6l24.9,24.9h11.3L270.6,0.6H259.2z M346.7,0.6l24.9,24.9h11.3L358,0.6
	H346.7z M412.3,0.6l24.9,24.9h11.3L423.6,0.6H412.3z M434.2,0.6l24.9,24.9h11.3L445.5,0.6H434.2z M215.5,0.6l24.9,24.9h11.3
	L226.8,0.6H215.5z M456.1,0.6L481,25.4h11.3L467.4,0.6H456.1z M390.5,0.6l24.9,24.9h11.3L401.8,0.6H390.5z M368.6,0.6l24.9,24.9
	h11.3L379.9,0.6H368.6z M18.7,0.6l24.9,24.9h11.3L30,0.6H18.7z M40.5,0.6l24.9,24.9h11.3L51.9,0.6H40.5z M62.4,0.6l24.9,24.9h11.3
	L73.7,0.6H62.4z M0,0.6v3.2l21.7,21.7H33L8.1,0.6H0z M0,25.4h11.1L0,14.3V25.4z M149.9,0.6l24.9,24.9h11.3L161.2,0.6H149.9z
	 M193.6,0.6l24.9,24.9h11.3L204.9,0.6H193.6z M84.3,0.6l24.9,24.9h11.3L95.6,0.6H84.3z M171.8,0.6l24.9,24.9H208L183.1,0.6H171.8z
	 M128,0.6l24.9,24.9h11.3L139.3,0.6H128z M106.1,0.6L131,25.4h11.3L117.5,0.6H106.1z M516.2,0.6H508h-8.2l8.2,8.2L516.2,0.6z
	 M526.8,0.6L508,19.3L489.2,0.6h-11.3l24.9,24.9h5.2h5.2l24.9-24.9H526.8z M898.5,0.6l-24.9,24.9H885l24.9-24.9H898.5z M876.7,0.6
	l-24.9,24.9h11.3L888,0.6H876.7z M920.4,0.6l-24.9,24.9h11.3l24.9-24.9H920.4z M548.6,0.6l-24.9,24.9H535l24.9-24.9H548.6z
	 M854.8,0.6l-24.9,24.9h11.3l24.9-24.9H854.8z M832.9,0.6L808,25.4h11.3l24.9-24.9H832.9z M1016,25.4V14.3l-11.1,11.1H1016z
	 M942.3,0.6l-24.9,24.9h11.3l24.9-24.9H942.3z M1007.9,0.6L983,25.4h11.3L1016,3.8V0.6H1007.9z M964.1,0.6l-24.9,24.9h11.3
	l24.9-24.9H964.1z M986,0.6l-24.9,24.9h11.3l24.9-24.9H986z M811.1,0.6l-24.9,24.9h11.3l24.9-24.9H811.1z M789.2,0.6l-24.9,24.9
	h11.3l24.9-24.9H789.2z M636.1,0.6l-24.9,24.9h11.3l24.9-24.9H636.1z M592.4,0.6l-24.9,24.9h11.3l24.9-24.9H592.4z M570.5,0.6
	l-24.9,24.9h11.3l24.9-24.9H570.5z M658,0.6l-24.9,24.9h11.3l24.9-24.9H658z M614.2,0.6l-24.9,24.9h11.3l24.9-24.9H614.2z
	 M745.4,0.6l-24.9,24.9h11.3l24.9-24.9H745.4z M767.3,0.6l-24.9,24.9h11.3l24.9-24.9H767.3z M701.7,0.6l-24.9,24.9h11.3L713,0.6
	H701.7z M723.6,0.6l-24.9,24.9H710l24.9-24.9H723.6z M679.8,0.6l-24.9,24.9h11.3l24.9-24.9H679.8z"/>
</svg>
