<?xml version="1.0" encoding="utf-8"?>
<!-- Generator: Adobe Illustrator 28.5.0, SVG Export Plug-In . SVG Version: 9.03 Build 54727)  -->
<svg version="1.1" baseProfile="tiny" id="Layer_1" xmlns="http://www.w3.org/2000/svg" xmlns:xlink="http://www.w3.org/1999/xlink"
	 x="0px" y="0px" viewBox="0 0 13.2 12.8" overflow="visible" xml:space="preserve">
<path fill-rule="evenodd" fill="#A2E1F3" d="M4.4,0h4v4h-4V0z M4.4,4v4h-4V4H4.4z M8.4,4v4h4V4H8.4z"/>
<g>
	<path fill="#A2E1F3" d="M1.8,11.7c-0.1,0.2-0.3,0.3-0.5,0.3H0.7c-0.1,0-0.2,0-0.2-0.1c-0.1,0-0.2-0.2-0.3-0.3
		c0-0.1-0.1-0.1-0.1-0.2v-1.2c0-0.1,0-0.1,0.1-0.2c0-0.1,0.2-0.2,0.3-0.3c0.1,0,0.1-0.1,0.2-0.1h0.6c0.2,0,0.4,0.2,0.5,0.3
		c0,0.1,0.1,0.1,0.1,0.2v1.2C1.9,11.6,1.8,11.7,1.8,11.7z M0.6,11.5C0.6,11.5,0.6,11.5,0.6,11.5c0,0.1,0.1,0.2,0.2,0.2h0.5
		c0,0,0.2-0.1,0.2-0.2c0,0,0,0,0,0v-1.1c0,0,0,0,0,0c0,0-0.1-0.2-0.2-0.2H0.7c0,0,0,0,0,0c0,0-0.1,0.1-0.2,0.2c0,0,0,0,0,0V11.5z"/>
	<path fill="#A2E1F3" d="M3.9,10.7c0,0.1,0,0.2-0.1,0.2c0,0-0.1,0.2-0.2,0.2c-0.1,0.1-0.2,0.1-0.3,0.1H2.7V12H2.3V9.8h1
		c0.1,0,0.2,0,0.3,0.1c0.1,0,0.2,0.2,0.2,0.2c0,0.1,0.1,0.1,0.1,0.2V10.7z M3.5,10.3c0,0-0.1-0.1-0.1-0.1H2.7v0.6h0.7
		c0,0,0.1-0.1,0.1-0.1c0,0,0,0,0,0V10.3z"/>
	<path fill="#A2E1F3" d="M5.9,10.7c0,0.1,0,0.2-0.1,0.2c0,0-0.1,0.2-0.2,0.2c-0.1,0.1-0.2,0.1-0.3,0.1H4.7V12H4.3V9.8h1
		c0.1,0,0.2,0,0.3,0.1c0.1,0,0.2,0.2,0.2,0.2c0,0.1,0.1,0.1,0.1,0.2V10.7z M5.5,10.3c0,0-0.1-0.1-0.1-0.1H4.7v0.6h0.7
		c0,0,0.1-0.1,0.1-0.1c0,0,0,0,0,0V10.3z"/>
	<path fill="#A2E1F3" d="M8,11.7c-0.1,0.2-0.3,0.3-0.5,0.3H6.9c-0.1,0-0.2,0-0.2-0.1c-0.1,0-0.2-0.2-0.3-0.3c0-0.1-0.1-0.1-0.1-0.2
		v-1.2c0-0.1,0-0.1,0.1-0.2c0-0.1,0.2-0.2,0.3-0.3c0.1,0,0.1-0.1,0.2-0.1h0.6c0.2,0,0.4,0.2,0.5,0.3C8,10.2,8,10.3,8,10.4v1.2
		C8,11.6,8,11.7,8,11.7z M6.7,11.5C6.7,11.5,6.7,11.5,6.7,11.5c0,0.1,0.1,0.2,0.2,0.2h0.5c0,0,0.2-0.1,0.2-0.2c0,0,0,0,0,0v-1.1
		c0,0,0,0,0,0c0,0-0.1-0.2-0.2-0.2H6.9c0,0,0,0,0,0c0,0-0.1,0.1-0.2,0.2c0,0,0,0,0,0V11.5z"/>
	<path fill="#A2E1F3" d="M8.5,11.1v-0.5H9v0.5H8.5z M8.5,12v-0.5H9V12H8.5z"/>
	<path fill="#A2E1F3" d="M11,11.5c0,0.1,0,0.1-0.1,0.2c0,0.1-0.2,0.2-0.3,0.3c-0.1,0-0.1,0.1-0.2,0.1H10c-0.1,0-0.2,0-0.2-0.1
		c-0.1,0-0.2-0.2-0.3-0.3c0-0.1-0.1-0.1-0.1-0.2v-1.2c0-0.1,0-0.1,0.1-0.2c0-0.1,0.2-0.2,0.3-0.3c0.1,0,0.1-0.1,0.2-0.1h0.4
		c0.1,0,0.2,0,0.2,0.1c0.1,0,0.2,0.2,0.3,0.3c0,0.1,0.1,0.1,0.1,0.2V11.5z M10.4,10.2h-0.4c0,0,0,0,0,0c0,0-0.1,0.1-0.2,0.2
		c0,0,0,0,0,0v0.9L10.4,10.2z M10.1,11.7h0.4c0,0,0.2-0.1,0.2-0.2c0,0,0,0,0,0v-0.9L10.1,11.7z"/>
	<path fill="#A2E1F3" d="M12.1,12v-1.8h-0.4V9.8h0.8V12H12.1z"/>
</g>
</svg>
