<?xml version="1.0" encoding="utf-8"?>
<!-- Generator: Adobe Illustrator 28.5.0, SVG Export Plug-In . SVG Version: 9.03 Build 54727)  -->
<svg version="1.1" baseProfile="tiny" id="Layer_1" xmlns="http://www.w3.org/2000/svg" xmlns:xlink="http://www.w3.org/1999/xlink"
	 x="0px" y="0px" viewBox="0 0 83.9 25.9" overflow="visible" xml:space="preserve">
<polygon fill="#F7D454" points="0,20.7 0,22.7 10,22.7 10,23.7 14,23.7 14,22.7 14,20.7 "/>
<g id="_x3C_Group_x3E__opacity:60">
	<path fill="#A2E1F3" d="M23.6,3.6h-0.4l1.5-2.7h0.4L23.6,3.6z"/>
	<path fill="#A2E1F3" d="M26.7,2.2C26.7,2.1,26.6,2,26.5,2H26c0,0,0,0-0.1,0c-0.1,0-0.1,0.1-0.2,0.2c0,0,0,0,0,0.1v0.1
		c0,0,0,0.1,0.1,0.1l0.7,0.1c0.2,0,0.4,0.2,0.4,0.4v0.2c0,0.1,0,0.2-0.1,0.3c0,0.1-0.1,0.2-0.2,0.2c-0.1,0.1-0.2,0.1-0.3,0.1h-0.5
		c-0.1,0-0.2,0-0.3-0.1c-0.1-0.1-0.2-0.2-0.3-0.4L25.7,3c0,0.1,0.1,0.2,0.2,0.2c0,0,0,0,0.1,0h0.5c0.1,0,0.2-0.1,0.2-0.2
		c0,0,0,0,0-0.1V2.9c0,0,0-0.1-0.1-0.1l-0.7,0c-0.2,0-0.4-0.2-0.4-0.4V2.2c0-0.1,0-0.2,0.1-0.3c0-0.1,0.1-0.2,0.2-0.2
		c0.1-0.1,0.2-0.1,0.3-0.1h0.5c0.1,0,0.2,0,0.3,0.1C26.9,1.8,27,2,27.1,2.1L26.7,2.2z"/>
	<path fill="#A2E1F3" d="M29.1,3.3c0,0-0.1,0.2-0.2,0.2c-0.1,0.1-0.2,0.1-0.3,0.1h-0.5c-0.1,0-0.2,0-0.3-0.1c-0.1,0-0.2-0.2-0.2-0.2
		c-0.1-0.1-0.1-0.2-0.1-0.3V2.2c0-0.1,0-0.2,0.1-0.3c0,0,0.1-0.2,0.2-0.2c0.1-0.1,0.2-0.1,0.3-0.1h0.4c0.1,0,0.2,0,0.3,0.1
		C29,1.8,29.1,2,29.2,2.1l-0.3,0.1c0-0.1-0.2-0.2-0.3-0.2h-0.5c0,0,0,0-0.1,0c-0.1,0-0.2,0.1-0.2,0.2c0,0,0,0,0,0v0.8c0,0,0,0,0,0
		c0,0.1,0.1,0.1,0.2,0.2c0,0,0,0,0.1,0h0.5c0,0,0,0,0.1,0c0.1,0,0.2-0.1,0.2-0.2l0.3,0.1C29.2,3.2,29.1,3.3,29.1,3.3z"/>
	<path fill="#A2E1F3" d="M30.9,2.2c0-0.1-0.2-0.2-0.3-0.2h-0.2c-0.1,0-0.3,0.2-0.4,0.2v1.4h-0.4V2l0-0.4H30l0,0.2
		c0.1-0.1,0.2-0.2,0.4-0.2h0.2c0.1,0,0.2,0,0.3,0.1c0.1,0.1,0.2,0.3,0.3,0.4L30.9,2.2z"/>
	<path fill="#A2E1F3" d="M31.7,3.6h-0.4l1.5-2.7h0.4L31.7,3.6z"/>
	<path fill="#A2E1F3" d="M35.1,3.3c0,0-0.1,0.2-0.2,0.2c-0.1,0.1-0.2,0.1-0.3,0.1h-0.4c-0.1,0-0.3-0.1-0.4-0.2l0,0.2h-0.4l0-0.4V0.9
		h0.4v0.9c0.1-0.1,0.2-0.2,0.3-0.2h0.4c0.1,0,0.2,0,0.3,0.1c0.1,0,0.2,0.2,0.2,0.2c0.1,0.1,0.1,0.2,0.1,0.3v0.8
		C35.2,3.1,35.2,3.2,35.1,3.3z M34.8,2.2C34.8,2.2,34.8,2.2,34.8,2.2c0-0.1-0.1-0.2-0.2-0.2c0,0,0,0-0.1,0h-0.3
		c-0.1,0-0.3,0.2-0.4,0.3V3c0,0.1,0.3,0.3,0.4,0.3h0.3c0,0,0,0,0.1,0c0.1,0,0.2-0.1,0.2-0.2c0,0,0,0,0,0V2.2z"/>
	<path fill="#A2E1F3" d="M37,3.6l0-0.2c-0.1,0.1-0.2,0.2-0.4,0.2h-0.4c-0.1,0-0.2,0-0.3-0.1c-0.1,0-0.2-0.2-0.2-0.2
		c-0.1-0.1-0.1-0.2-0.1-0.3V3c0-0.1,0-0.2,0.1-0.3c0,0,0.1-0.2,0.2-0.2c0.1-0.1,0.2-0.1,0.3-0.1h0.7V2.2c0,0,0,0,0-0.1
		c0-0.1-0.1-0.1-0.2-0.2c0,0,0,0-0.1,0h-0.4c-0.1,0-0.2,0.1-0.2,0.2c0,0-0.1,0.1-0.1,0.1l-0.3-0.1C35.7,2,35.9,1.8,36,1.7
		c0.1-0.1,0.2-0.1,0.3-0.1h0.4c0.1,0,0.2,0,0.3,0.1c0.1,0,0.2,0.2,0.2,0.2c0.1,0.1,0.1,0.2,0.1,0.3v1l0,0.4H37z M36.9,2.7h-0.7
		c0,0,0,0-0.1,0c-0.1,0-0.2,0.1-0.2,0.2c0,0,0,0,0,0v0.1c0,0,0,0,0,0c0,0.1,0.1,0.1,0.2,0.2c0,0,0,0,0.1,0h0.4c0,0,0,0,0,0
		c0.1,0,0.2-0.1,0.3-0.2V2.7z"/>
	<path fill="#A2E1F3" d="M39.4,3.3c0,0-0.1,0.2-0.2,0.2c-0.1,0.1-0.2,0.1-0.3,0.1h-0.5c-0.1,0-0.2,0-0.3-0.1c-0.1,0-0.2-0.2-0.2-0.2
		c-0.1-0.1-0.1-0.2-0.1-0.3V2.2c0-0.1,0-0.2,0.1-0.3c0,0,0.1-0.2,0.2-0.2c0.1-0.1,0.2-0.1,0.3-0.1h0.4c0.1,0,0.2,0,0.3,0.1
		c0.1,0.1,0.2,0.2,0.3,0.4l-0.3,0.1C39.1,2.1,39,2,38.9,2h-0.5c0,0,0,0-0.1,0c-0.1,0-0.2,0.1-0.2,0.2c0,0,0,0,0,0v0.8c0,0,0,0,0,0
		c0,0.1,0.1,0.1,0.2,0.2c0,0,0,0,0.1,0h0.5c0,0,0,0,0.1,0c0.1,0,0.2-0.1,0.2-0.2l0.3,0.1C39.5,3.2,39.5,3.3,39.4,3.3z"/>
	<path fill="#A2E1F3" d="M41.2,3.6l-0.8-0.9h-0.1v0.9H40V0.9h0.4v1.5h0.1l0.7-0.8h0.5l-0.9,0.9l1,1H41.2z"/>
	<path fill="#A2E1F3" d="M43.3,3.6l0-0.2c-0.1,0.1-0.2,0.2-0.4,0.2h-0.3c-0.1,0-0.2,0-0.3-0.1c-0.1,0-0.2-0.2-0.2-0.2
		C42.1,3.2,42,3.1,42,3.1V1.7h0.4V3c0,0,0,0,0,0c0,0.1,0.1,0.2,0.2,0.2c0,0,0,0,0.1,0H43c0.1,0,0.3-0.2,0.3-0.2V1.7h0.4v1.6l0,0.4
		H43.3z"/>
	<path fill="#A2E1F3" d="M45.8,3.3c0,0-0.1,0.2-0.2,0.2c-0.1,0.1-0.2,0.1-0.3,0.1H45c-0.1,0-0.3-0.1-0.3-0.2v0.9h-0.4V2l0-0.4h0.4
		l0,0.2c0.1-0.1,0.2-0.2,0.4-0.2h0.4c0.1,0,0.2,0,0.3,0.1c0.1,0,0.2,0.2,0.2,0.2c0.1,0.1,0.1,0.2,0.1,0.3v0.8
		C45.9,3.1,45.9,3.2,45.8,3.3z M45.6,2.2C45.6,2.2,45.6,2.2,45.6,2.2c0-0.1-0.1-0.2-0.2-0.2c0,0,0,0-0.1,0H45
		c-0.1,0-0.3,0.2-0.4,0.3V3c0,0.1,0.3,0.3,0.4,0.3h0.3c0,0,0,0,0.1,0c0.1,0,0.2-0.1,0.2-0.2c0,0,0,0,0,0V2.2z"/>
	<path fill="#A2E1F3" d="M47.8,2.2C47.7,2.1,47.6,2,47.5,2H47c0,0,0,0-0.1,0c-0.1,0-0.1,0.1-0.2,0.2c0,0,0,0,0,0.1v0.1
		c0,0,0,0.1,0.1,0.1l0.7,0.1c0.2,0,0.4,0.2,0.4,0.4v0.2c0,0.1,0,0.2-0.1,0.3c0,0.1-0.1,0.2-0.2,0.2c-0.1,0.1-0.2,0.1-0.3,0.1H47
		c-0.1,0-0.2,0-0.3-0.1c-0.1-0.1-0.2-0.2-0.3-0.4L46.7,3c0,0.1,0.1,0.2,0.2,0.2c0,0,0,0,0.1,0h0.5c0.1,0,0.2-0.1,0.2-0.2
		c0,0,0,0,0-0.1V2.9c0,0,0-0.1-0.1-0.1l-0.7,0c-0.2,0-0.4-0.2-0.4-0.4V2.2c0-0.1,0-0.2,0.1-0.3c0-0.1,0.1-0.2,0.2-0.2
		c0.1-0.1,0.2-0.1,0.3-0.1h0.5c0.1,0,0.2,0,0.3,0.1C47.9,1.8,48,2,48.1,2.1L47.8,2.2z"/>
	<path fill="#A2E1F3" d="M48.7,3.6h-0.4l1.5-2.7h0.4L48.7,3.6z"/>
	<path fill="#A2E1F3" d="M50.5,1.3V0.9h0.4v0.4H50.5z M50.6,3.6V1.7h0.4v1.9H50.6z"/>
	<path fill="#A2E1F3" d="M52.8,3.6V2.2c0,0,0,0,0,0c0-0.1-0.1-0.2-0.2-0.2c0,0,0,0-0.1,0h-0.3c-0.1,0-0.3,0.2-0.3,0.2v1.4h-0.4V2
		l0-0.4h0.4l0,0.2c0.1-0.1,0.2-0.2,0.4-0.2h0.3c0.1,0,0.2,0,0.3,0.1c0.1,0,0.2,0.2,0.2,0.2c0.1,0.1,0.1,0.2,0.1,0.3v1.4H52.8z"/>
	<path fill="#A2E1F3" d="M55,3.6l0-0.2c-0.1,0.1-0.2,0.2-0.4,0.2h-0.4c-0.1,0-0.2,0-0.3-0.1c-0.1,0-0.2-0.2-0.2-0.2
		c-0.1-0.1-0.1-0.2-0.1-0.3V2.2c0-0.1,0-0.2,0.1-0.3c0,0,0.1-0.2,0.2-0.2c0.1-0.1,0.2-0.1,0.3-0.1h0.4c0.1,0,0.3,0.1,0.3,0.2V0.9
		h0.4v2.3l0,0.4H55z M55,2.2c0-0.1-0.3-0.3-0.4-0.3h-0.3c0,0,0,0-0.1,0c-0.1,0-0.2,0.1-0.2,0.2c0,0,0,0,0,0V3c0,0,0,0,0,0
		c0,0.1,0.1,0.2,0.2,0.2c0,0,0,0,0.1,0h0.3c0.1,0,0.3-0.2,0.4-0.3V2.2z"/>
	<path fill="#A2E1F3" d="M57.3,3.5c-0.1,0.1-0.2,0.1-0.3,0.1h-0.4c-0.1,0-0.2,0-0.3-0.1c-0.1,0-0.2-0.2-0.2-0.2
		c-0.1-0.1-0.1-0.2-0.1-0.3V2.2c0-0.1,0-0.2,0.1-0.3c0,0,0.1-0.2,0.2-0.2c0.1-0.1,0.2-0.1,0.3-0.1H57c0.1,0,0.2,0,0.3,0.1
		c0.1,0,0.2,0.2,0.2,0.2c0.1,0.1,0.1,0.2,0.1,0.3v0.6h-1.3v0.3c0,0,0,0,0,0c0,0,0.1,0.1,0.2,0.2c0,0,0,0,0.1,0H57c0,0,0,0,0.1,0
		c0.1,0,0.2-0.1,0.2-0.2l0,0l0.3,0.1C57.5,3.3,57.4,3.5,57.3,3.5z M57.2,2.2C57.2,2.2,57.2,2.2,57.2,2.2C57.2,2.1,57.1,2,57,2
		c0,0,0,0-0.1,0h-0.4c0,0,0,0-0.1,0c-0.1,0-0.2,0.1-0.2,0.2c0,0,0,0,0,0v0.3h0.9V2.2z"/>
	<path fill="#A2E1F3" d="M59.3,3.6l-0.5-0.7l-0.5,0.7h-0.4l0.7-1L58,1.7h0.4l0.4,0.7l0.4-0.7h0.4L59,2.6l0.7,1H59.3z"/>
	<path fill="#A2E1F3" d="M60.2,3.6V3.1h0.5v0.5H60.2z"/>
	<path fill="#A2E1F3" d="M62.6,3.6V2.2c0,0,0,0,0,0c0-0.1-0.1-0.2-0.2-0.2c0,0,0,0-0.1,0H62c-0.1,0-0.3,0.2-0.4,0.3c0,0,0,1.4,0,1.4
		h-0.4V0.9h0.4v0.9c0.1-0.1,0.2-0.2,0.3-0.2h0.3c0.1,0,0.2,0,0.3,0.1c0.1,0,0.2,0.2,0.2,0.2c0.1,0.1,0.1,0.2,0.1,0.3v1.4H62.6z"/>
	<path fill="#A2E1F3" d="M64,2v1c0,0,0,0,0,0.1c0,0.1,0.1,0.1,0.2,0.2c0,0,0,0,0.1,0h0.3v0.3h-0.3c-0.1,0-0.2,0-0.3-0.1
		c-0.1,0-0.2-0.2-0.2-0.2c-0.1-0.1-0.1-0.2-0.1-0.3V2h-0.3V1.7h0.3V0.9H64v0.8h0.6V2H64z"/>
	<path fill="#A2E1F3" d="M67.3,3.6V2.2c0,0,0,0,0,0c0-0.1-0.1-0.1-0.2-0.2c0,0,0,0-0.1,0h-0.2c-0.1,0-0.3,0.2-0.3,0.2v0v1.4h-0.3
		V2.2c0,0,0,0,0,0C66.2,2.1,66.1,2,66,2c0,0,0,0-0.1,0h-0.2c0,0,0,0,0,0c-0.1,0-0.3,0.2-0.3,0.3v1.4H65V2l0-0.4h0.4l0,0.2
		c0.1-0.1,0.2-0.2,0.4-0.2c0.1,0,0.2,0,0.3,0c0.1,0,0.2,0,0.3,0.1c0,0,0.1,0.1,0.1,0.2c0.1-0.1,0.2-0.1,0.2-0.2
		c0.1,0,0.2-0.1,0.2-0.1c0.1,0,0.2,0,0.3,0c0.1,0,0.2,0,0.2,0.1s0.2,0.2,0.2,0.2c0.1,0.1,0.1,0.2,0.1,0.3v1.4H67.3z"/>
	<path fill="#A2E1F3" d="M68.3,3.6l0-0.3V0.9h0.3v2.4l0,0.3H68.3z"/>
	<path fill="#A2E1F3" d="M23.6,8.6h-0.4l1.5-2.7h0.4L23.6,8.6z"/>
	<path fill="#A2E1F3" d="M26.7,7.2C26.7,7.1,26.6,7,26.5,7H26c0,0,0,0-0.1,0c-0.1,0-0.1,0.1-0.2,0.2c0,0,0,0,0,0.1v0.1
		c0,0,0,0.1,0.1,0.1l0.7,0.1c0.2,0,0.4,0.2,0.4,0.4v0.2c0,0.1,0,0.2-0.1,0.3c0,0.1-0.1,0.2-0.2,0.2c-0.1,0.1-0.2,0.1-0.3,0.1h-0.5
		c-0.1,0-0.2,0-0.3-0.1c-0.1-0.1-0.2-0.2-0.3-0.4L25.7,8c0,0.1,0.1,0.2,0.2,0.2c0,0,0,0,0.1,0h0.5c0.1,0,0.2-0.1,0.2-0.2
		c0,0,0,0,0-0.1V7.9c0,0,0-0.1-0.1-0.1l-0.7,0c-0.2,0-0.4-0.2-0.4-0.4V7.2c0-0.1,0-0.2,0.1-0.3c0-0.1,0.1-0.2,0.2-0.2
		c0.1-0.1,0.2-0.1,0.3-0.1h0.5c0.1,0,0.2,0,0.3,0.1C26.9,6.8,27,7,27.1,7.1L26.7,7.2z"/>
	<path fill="#A2E1F3" d="M29.1,8.3c0,0-0.1,0.2-0.2,0.2c-0.1,0.1-0.2,0.1-0.3,0.1h-0.5c-0.1,0-0.2,0-0.3-0.1c-0.1,0-0.2-0.2-0.2-0.2
		c-0.1-0.1-0.1-0.2-0.1-0.3V7.2c0-0.1,0-0.2,0.1-0.3c0,0,0.1-0.2,0.2-0.2c0.1-0.1,0.2-0.1,0.3-0.1h0.4c0.1,0,0.2,0,0.3,0.1
		C29,6.8,29.1,7,29.2,7.1l-0.3,0.1c0-0.1-0.2-0.2-0.3-0.2h-0.5c0,0,0,0-0.1,0c-0.1,0-0.2,0.1-0.2,0.2c0,0,0,0,0,0v0.8c0,0,0,0,0,0
		c0,0.1,0.1,0.1,0.2,0.2c0,0,0,0,0.1,0h0.5c0,0,0,0,0.1,0c0.1,0,0.2-0.1,0.2-0.2l0.3,0.1C29.2,8.2,29.1,8.3,29.1,8.3z"/>
	<path fill="#A2E1F3" d="M30.9,7.2c0-0.1-0.2-0.2-0.3-0.2h-0.2c-0.1,0-0.3,0.2-0.4,0.2v1.4h-0.4V7l0-0.4H30l0,0.2
		c0.1-0.1,0.2-0.2,0.4-0.2h0.2c0.1,0,0.2,0,0.3,0.1c0.1,0.1,0.2,0.3,0.3,0.4L30.9,7.2z"/>
	<path fill="#A2E1F3" d="M31.7,8.6h-0.4l1.5-2.7h0.4L31.7,8.6z"/>
	<path fill="#A2E1F3" d="M34.8,7.2C34.8,7.1,34.6,7,34.5,7h-0.5c0,0,0,0-0.1,0c-0.1,0-0.1,0.1-0.2,0.2c0,0,0,0,0,0.1v0.1
		c0,0,0,0.1,0.1,0.1l0.7,0.1c0.2,0,0.4,0.2,0.4,0.4v0.2c0,0.1,0,0.2-0.1,0.3c0,0.1-0.1,0.2-0.2,0.2c-0.1,0.1-0.2,0.1-0.3,0.1H34
		c-0.1,0-0.2,0-0.3-0.1c-0.1-0.1-0.2-0.2-0.3-0.4L33.7,8c0,0.1,0.1,0.2,0.2,0.2c0,0,0,0,0.1,0h0.5c0.1,0,0.2-0.1,0.2-0.2
		c0,0,0,0,0-0.1V7.9c0,0,0-0.1-0.1-0.1l-0.7,0c-0.2,0-0.4-0.2-0.4-0.4V7.2c0-0.1,0-0.2,0.1-0.3c0-0.1,0.1-0.2,0.2-0.2
		c0.1-0.1,0.2-0.1,0.3-0.1h0.5c0.1,0,0.2,0,0.3,0.1c0.1,0.1,0.2,0.2,0.3,0.4L34.8,7.2z"/>
	<path fill="#A2E1F3" d="M37.2,8.3c0,0-0.1,0.2-0.2,0.2c-0.1,0.1-0.2,0.1-0.3,0.1h-0.5c-0.1,0-0.2,0-0.3-0.1c-0.1,0-0.2-0.2-0.2-0.2
		c-0.1-0.1-0.1-0.2-0.1-0.3V7.2c0-0.1,0-0.2,0.1-0.3c0,0,0.1-0.2,0.2-0.2c0.1-0.1,0.2-0.1,0.3-0.1h0.4c0.1,0,0.2,0,0.3,0.1
		c0.1,0.1,0.2,0.2,0.3,0.4l-0.3,0.1c0-0.1-0.2-0.2-0.3-0.2h-0.5c0,0,0,0-0.1,0C36.1,7,36,7.1,36,7.2c0,0,0,0,0,0v0.8c0,0,0,0,0,0
		c0,0.1,0.1,0.1,0.2,0.2c0,0,0,0,0.1,0h0.5c0,0,0,0,0.1,0c0.1,0,0.2-0.1,0.2-0.2l0.3,0.1C37.2,8.2,37.2,8.3,37.2,8.3z"/>
	<path fill="#A2E1F3" d="M37.9,8.6h-0.4L39,5.9h0.4L37.9,8.6z"/>
	<path fill="#A2E1F3" d="M41,8.6l0-0.2c-0.1,0.1-0.2,0.2-0.4,0.2h-0.3c-0.1,0-0.2,0-0.3-0.1c-0.1,0-0.2-0.2-0.2-0.2
		c-0.1-0.1-0.1-0.2-0.1-0.3V6.7h0.4V8c0,0,0,0,0,0c0,0.1,0.1,0.2,0.2,0.2c0,0,0,0,0.1,0h0.3c0.1,0,0.3-0.2,0.3-0.2V6.7h0.4v1.6
		l0,0.4H41z"/>
	<path fill="#A2E1F3" d="M41.9,6.3V5.9h0.4v0.4H41.9z M41.9,8.6V6.7h0.4v1.9H41.9z"/>
	<path fill="#A2E1F3" d="M43,8.6h-0.4l1.5-2.7h0.4L43,8.6z"/>
	<path fill="#A2E1F3" d="M46.1,8.6l0-0.2c-0.1,0.1-0.2,0.2-0.4,0.2h-0.4c-0.1,0-0.2,0-0.3-0.1c-0.1,0-0.2-0.2-0.2-0.2
		c-0.1-0.1-0.1-0.2-0.1-0.3V8c0-0.1,0-0.2,0.1-0.3c0,0,0.1-0.2,0.2-0.2c0.1-0.1,0.2-0.1,0.3-0.1h0.7V7.2c0,0,0,0,0-0.1
		C46,7.1,45.9,7,45.9,7c0,0,0,0-0.1,0h-0.4c-0.1,0-0.2,0.1-0.2,0.2c0,0-0.1,0.1-0.1,0.1l-0.3-0.1C44.8,7,45,6.8,45.1,6.7
		c0.1-0.1,0.2-0.1,0.3-0.1h0.4c0.1,0,0.2,0,0.3,0.1c0.1,0,0.2,0.2,0.2,0.2c0.1,0.1,0.1,0.2,0.1,0.3v1l0,0.4H46.1z M46.1,7.7h-0.7
		c0,0,0,0-0.1,0c-0.1,0-0.2,0.1-0.2,0.2c0,0,0,0,0,0v0.1c0,0,0,0,0,0c0,0.1,0.1,0.1,0.2,0.2c0,0,0,0,0.1,0h0.4c0,0,0,0,0,0
		c0.1,0,0.2-0.1,0.3-0.2V7.7z"/>
	<path fill="#A2E1F3" d="M48.2,7.2C48.2,7.1,48.1,7,48,7h-0.2c-0.1,0-0.3,0.2-0.4,0.2v1.4H47V7l0-0.4h0.3l0,0.2
		c0.1-0.1,0.2-0.2,0.4-0.2h0.2c0.1,0,0.2,0,0.3,0.1c0.1,0.1,0.2,0.3,0.3,0.4L48.2,7.2z"/>
	<path fill="#A2E1F3" d="M50.2,8.5c-0.1,0.1-0.2,0.1-0.3,0.1h-0.4c-0.1,0-0.2,0-0.3-0.1c-0.1,0-0.2-0.2-0.2-0.2
		c-0.1-0.1-0.1-0.2-0.1-0.3V7.2c0-0.1,0-0.2,0.1-0.3c0,0,0.1-0.2,0.2-0.2c0.1-0.1,0.2-0.1,0.3-0.1h0.5c0.1,0,0.2,0,0.3,0.1
		c0.1,0,0.2,0.2,0.2,0.2c0.1,0.1,0.1,0.2,0.1,0.3v0.6h-1.3v0.3c0,0,0,0,0,0c0,0,0.1,0.1,0.2,0.2c0,0,0,0,0.1,0h0.5c0,0,0,0,0.1,0
		c0.1,0,0.2-0.1,0.2-0.2l0,0l0.3,0.1C50.4,8.3,50.3,8.5,50.2,8.5z M50.2,7.2C50.2,7.2,50.2,7.2,50.2,7.2C50.1,7.1,50,7,50,7
		c0,0,0,0-0.1,0h-0.4c0,0,0,0-0.1,0c-0.1,0-0.2,0.1-0.2,0.2c0,0,0,0,0,0v0.3h0.9V7.2z"/>
	<path fill="#A2E1F3" d="M52.3,8.6V7.2c0,0,0,0,0,0c0-0.1-0.1-0.2-0.2-0.2c0,0,0,0-0.1,0h-0.3c-0.1,0-0.3,0.2-0.3,0.2v1.4h-0.4V7
		l0-0.4h0.4l0,0.2c0.1-0.1,0.2-0.2,0.4-0.2h0.3c0.1,0,0.2,0,0.3,0.1c0.1,0,0.2,0.2,0.2,0.2c0.1,0.1,0.1,0.2,0.1,0.3v1.4H52.3z"/>
	<path fill="#A2E1F3" d="M54.5,8.6l0-0.2c-0.1,0.1-0.2,0.2-0.4,0.2h-0.4c-0.1,0-0.2,0-0.3-0.1c-0.1,0-0.2-0.2-0.2-0.2
		c-0.1-0.1-0.1-0.2-0.1-0.3V8c0-0.1,0-0.2,0.1-0.3c0,0,0.1-0.2,0.2-0.2c0.1-0.1,0.2-0.1,0.3-0.1h0.7V7.2c0,0,0,0,0-0.1
		c0-0.1-0.1-0.1-0.2-0.2c0,0,0,0-0.1,0h-0.4c-0.1,0-0.2,0.1-0.2,0.2c0,0-0.1,0.1-0.1,0.1l-0.3-0.1c0.1-0.1,0.2-0.3,0.3-0.4
		c0.1-0.1,0.2-0.1,0.3-0.1h0.4c0.1,0,0.2,0,0.3,0.1c0.1,0,0.2,0.2,0.2,0.2c0.1,0.1,0.1,0.2,0.1,0.3v1l0,0.4H54.5z M54.5,7.7h-0.7
		c0,0,0,0-0.1,0c-0.1,0-0.2,0.1-0.2,0.2c0,0,0,0,0,0v0.1c0,0,0,0,0,0c0,0.1,0.1,0.1,0.2,0.2c0,0,0,0,0.1,0h0.4c0,0,0,0,0,0
		c0.1,0,0.2-0.1,0.3-0.2V7.7z"/>
	<path fill="#A2E1F3" d="M57,8.3c0,0-0.1,0.2-0.2,0.2c-0.1,0.1-0.2,0.1-0.3,0.1H56c-0.1,0-0.2,0-0.3-0.1c-0.1,0-0.2-0.2-0.2-0.2
		c-0.1-0.1-0.1-0.2-0.1-0.3V7.2c0-0.1,0-0.2,0.1-0.3c0,0,0.1-0.2,0.2-0.2c0.1-0.1,0.2-0.1,0.3-0.1h0.4c0.1,0,0.2,0,0.3,0.1
		C56.9,6.8,57,7,57.1,7.1l-0.3,0.1c0-0.1-0.2-0.2-0.3-0.2H56c0,0,0,0-0.1,0c-0.1,0-0.2,0.1-0.2,0.2c0,0,0,0,0,0v0.8c0,0,0,0,0,0
		c0,0.1,0.1,0.1,0.2,0.2c0,0,0,0,0.1,0h0.5c0,0,0,0,0.1,0c0.1,0,0.2-0.1,0.2-0.2l0.3,0.1C57,8.2,57,8.3,57,8.3z"/>
	<path fill="#A2E1F3" d="M59.1,8.3c0,0-0.1,0.2-0.2,0.2c-0.1,0.1-0.2,0.1-0.3,0.1h-0.5c-0.1,0-0.2,0-0.3-0.1c-0.1,0-0.2-0.2-0.2-0.2
		c-0.1-0.1-0.1-0.2-0.1-0.3V7.2c0-0.1,0-0.2,0.1-0.3c0,0,0.1-0.2,0.2-0.2c0.1-0.1,0.2-0.1,0.3-0.1h0.5c0.1,0,0.2,0,0.3,0.1
		c0.1,0,0.2,0.2,0.2,0.2c0.1,0.1,0.1,0.2,0.1,0.3v0.9C59.2,8.1,59.2,8.2,59.1,8.3z M58.8,8.1V7.2c0,0,0,0,0-0.1
		c0-0.1-0.1-0.1-0.2-0.2c0,0,0,0-0.1,0h-0.4c0,0,0,0-0.1,0c-0.1,0-0.2,0.1-0.2,0.2c0,0,0,0,0,0v0.8c0,0,0,0,0,0
		c0,0.1,0.1,0.1,0.2,0.2c0,0,0,0,0.1,0h0.4c0,0,0,0,0.1,0C58.7,8.3,58.8,8.2,58.8,8.1C58.8,8.1,58.8,8.1,58.8,8.1z"/>
	<path fill="#A2E1F3" d="M62.1,8.6V7.2c0,0,0,0,0,0C62,7.1,61.9,7,61.9,7c0,0,0,0-0.1,0h-0.2c-0.1,0-0.3,0.2-0.3,0.2v0v1.4h-0.3V7.2
		c0,0,0,0,0,0c0-0.1-0.1-0.1-0.2-0.2c0,0,0,0-0.1,0h-0.2c0,0,0,0,0,0c-0.1,0-0.3,0.2-0.3,0.3v1.4h-0.4V7l0-0.4h0.4l0,0.2
		c0.1-0.1,0.2-0.2,0.4-0.2c0.1,0,0.2,0,0.3,0c0.1,0,0.2,0,0.3,0.1c0,0,0.1,0.1,0.1,0.2c0.1-0.1,0.2-0.1,0.2-0.2
		c0.1,0,0.2-0.1,0.2-0.1c0.1,0,0.2,0,0.3,0c0.1,0,0.2,0,0.2,0.1s0.2,0.2,0.2,0.2c0.1,0.1,0.1,0.2,0.1,0.3v1.4H62.1z"/>
	<path fill="#A2E1F3" d="M65.3,8.6V7.2c0,0,0,0,0,0c0-0.1-0.1-0.1-0.2-0.2c0,0,0,0-0.1,0h-0.2c-0.1,0-0.3,0.2-0.3,0.2v0v1.4h-0.3
		V7.2c0,0,0,0,0,0C64.1,7.1,64,7,64,7c0,0,0,0-0.1,0h-0.2c0,0,0,0,0,0c-0.1,0-0.3,0.2-0.3,0.3v1.4H63V7l0-0.4h0.4l0,0.2
		c0.1-0.1,0.2-0.2,0.4-0.2c0.1,0,0.2,0,0.3,0c0.1,0,0.2,0,0.3,0.1c0,0,0.1,0.1,0.1,0.2c0.1-0.1,0.2-0.1,0.2-0.2
		c0.1,0,0.2-0.1,0.2-0.1c0.1,0,0.2,0,0.3,0c0.1,0,0.2,0,0.2,0.1s0.2,0.2,0.2,0.2c0.1,0.1,0.1,0.2,0.1,0.3v1.4H65.3z"/>
	<path fill="#A2E1F3" d="M67.5,8.6l0-0.2c-0.1,0.1-0.2,0.2-0.4,0.2h-0.4c-0.1,0-0.2,0-0.3-0.1c-0.1,0-0.2-0.2-0.2-0.2
		c-0.1-0.1-0.1-0.2-0.1-0.3V8c0-0.1,0-0.2,0.1-0.3c0,0,0.1-0.2,0.2-0.2c0.1-0.1,0.2-0.1,0.3-0.1h0.7V7.2c0,0,0,0,0-0.1
		c0-0.1-0.1-0.1-0.2-0.2c0,0,0,0-0.1,0h-0.4c-0.1,0-0.2,0.1-0.2,0.2c0,0-0.1,0.1-0.1,0.1l-0.3-0.1c0.1-0.1,0.2-0.3,0.3-0.4
		c0.1-0.1,0.2-0.1,0.3-0.1h0.4c0.1,0,0.2,0,0.3,0.1c0.1,0,0.2,0.2,0.2,0.2c0.1,0.1,0.1,0.2,0.1,0.3v1l0,0.4H67.5z M67.4,7.7h-0.7
		c0,0,0,0-0.1,0c-0.1,0-0.2,0.1-0.2,0.2c0,0,0,0,0,0v0.1c0,0,0,0,0,0c0,0.1,0.1,0.1,0.2,0.2c0,0,0,0,0.1,0h0.4c0,0,0,0,0,0
		c0.1,0,0.2-0.1,0.3-0.2V7.7z"/>
	<path fill="#A2E1F3" d="M69.7,8.6V7.2c0,0,0,0,0,0c0-0.1-0.1-0.2-0.2-0.2c0,0,0,0-0.1,0h-0.3c-0.1,0-0.3,0.2-0.3,0.2v1.4h-0.4V7
		l0-0.4h0.4l0,0.2c0.1-0.1,0.2-0.2,0.4-0.2h0.3c0.1,0,0.2,0,0.3,0.1c0.1,0,0.2,0.2,0.2,0.2C70,7,70,7.1,70,7.2v1.4H69.7z"/>
	<path fill="#A2E1F3" d="M71.9,8.6l0-0.2c-0.1,0.1-0.2,0.2-0.4,0.2h-0.4c-0.1,0-0.2,0-0.3-0.1c-0.1,0-0.2-0.2-0.2-0.2
		c-0.1-0.1-0.1-0.2-0.1-0.3V7.2c0-0.1,0-0.2,0.1-0.3c0,0,0.1-0.2,0.2-0.2c0.1-0.1,0.2-0.1,0.3-0.1h0.4c0.1,0,0.3,0.1,0.3,0.2V5.9
		h0.4v2.3l0,0.4H71.9z M71.9,7.2c0-0.1-0.3-0.3-0.4-0.3h-0.3c0,0,0,0-0.1,0c-0.1,0-0.2,0.1-0.2,0.2c0,0,0,0,0,0V8c0,0,0,0,0,0
		c0,0.1,0.1,0.2,0.2,0.2c0,0,0,0,0.1,0h0.3c0.1,0,0.3-0.2,0.4-0.3V7.2z"/>
	<path fill="#A2E1F3" d="M74.1,8.5c-0.1,0.1-0.2,0.1-0.3,0.1h-0.4c-0.1,0-0.2,0-0.3-0.1c-0.1,0-0.2-0.2-0.2-0.2
		c-0.1-0.1-0.1-0.2-0.1-0.3V7.2c0-0.1,0-0.2,0.1-0.3c0,0,0.1-0.2,0.2-0.2c0.1-0.1,0.2-0.1,0.3-0.1h0.5c0.1,0,0.2,0,0.3,0.1
		c0.1,0,0.2,0.2,0.2,0.2c0.1,0.1,0.1,0.2,0.1,0.3v0.6h-1.3v0.3c0,0,0,0,0,0c0,0,0.1,0.1,0.2,0.2c0,0,0,0,0.1,0h0.5c0,0,0,0,0.1,0
		c0.1,0,0.2-0.1,0.2-0.2l0,0l0.3,0.1C74.4,8.3,74.3,8.5,74.1,8.5z M74.1,7.2C74.1,7.2,74.1,7.2,74.1,7.2C74.1,7.1,74,7,73.9,7
		c0,0,0,0-0.1,0h-0.4c0,0,0,0-0.1,0c-0.1,0-0.2,0.1-0.2,0.2c0,0,0,0,0,0v0.3h0.9V7.2z"/>
	<path fill="#A2E1F3" d="M76.2,7.2C76.2,7.1,76,7,75.9,7h-0.2c-0.1,0-0.3,0.2-0.4,0.2v1.4H75V7l0-0.4h0.3l0,0.2
		c0.1-0.1,0.2-0.2,0.4-0.2h0.2c0.1,0,0.2,0,0.3,0.1c0.1,0.1,0.2,0.3,0.3,0.4L76.2,7.2z"/>
	<path fill="#A2E1F3" d="M76.6,8.6V8.1h0.5v0.5H76.6z"/>
	<path fill="#A2E1F3" d="M78.9,8.6l-0.5-0.7L78,8.6h-0.4l0.7-1l-0.7-0.9H78l0.4,0.7l0.4-0.7h0.4l-0.6,0.9l0.7,1H78.9z"/>
	<path fill="#A2E1F3" d="M82.1,8.6V7.2c0,0,0,0,0,0C82,7.1,82,7,81.9,7c0,0,0,0-0.1,0h-0.2c-0.1,0-0.3,0.2-0.3,0.2v0v1.4H81V7.2
		c0,0,0,0,0,0c0-0.1-0.1-0.1-0.2-0.2c0,0,0,0-0.1,0h-0.2c0,0,0,0,0,0c-0.1,0-0.3,0.2-0.3,0.3v1.4h-0.4V7l0-0.4h0.4l0,0.2
		c0.1-0.1,0.2-0.2,0.4-0.2c0.1,0,0.2,0,0.3,0c0.1,0,0.2,0,0.3,0.1c0,0,0.1,0.1,0.1,0.2c0.1-0.1,0.2-0.1,0.2-0.2
		c0.1,0,0.2-0.1,0.2-0.1c0.1,0,0.2,0,0.3,0c0.1,0,0.2,0,0.2,0.1s0.2,0.2,0.2,0.2c0.1,0.1,0.1,0.2,0.1,0.3v1.4H82.1z"/>
	<path fill="#A2E1F3" d="M83.1,8.6l0-0.3V5.9h0.3v2.4l0,0.3H83.1z"/>
	<path fill="#A2E1F3" d="M23.6,13.6h-0.4l1.5-2.7h0.4L23.6,13.6z"/>
	<path fill="#A2E1F3" d="M26.7,12.2c-0.1-0.1-0.2-0.2-0.3-0.2H26c0,0,0,0-0.1,0c-0.1,0-0.1,0.1-0.2,0.2c0,0,0,0,0,0.1v0.1
		c0,0,0,0.1,0.1,0.1l0.7,0.1c0.2,0,0.4,0.2,0.4,0.4v0.2c0,0.1,0,0.2-0.1,0.3c0,0.1-0.1,0.2-0.2,0.2c-0.1,0.1-0.2,0.1-0.3,0.1h-0.5
		c-0.1,0-0.2,0-0.3-0.1c-0.1-0.1-0.2-0.2-0.3-0.4l0.3-0.1c0,0.1,0.1,0.2,0.2,0.2c0,0,0,0,0.1,0h0.5c0.1,0,0.2-0.1,0.2-0.2
		c0,0,0,0,0-0.1v-0.1c0,0,0-0.1-0.1-0.1l-0.7,0c-0.2,0-0.4-0.2-0.4-0.4v-0.1c0-0.1,0-0.2,0.1-0.3c0-0.1,0.1-0.2,0.2-0.2
		c0.1-0.1,0.2-0.1,0.3-0.1h0.5c0.1,0,0.2,0,0.3,0.1c0.1,0.1,0.2,0.2,0.3,0.4L26.7,12.2z"/>
	<path fill="#A2E1F3" d="M29.1,13.3c0,0-0.1,0.2-0.2,0.2c-0.1,0.1-0.2,0.1-0.3,0.1h-0.5c-0.1,0-0.2,0-0.3-0.1
		c-0.1,0-0.2-0.2-0.2-0.2c-0.1-0.1-0.1-0.2-0.1-0.3v-0.9c0-0.1,0-0.2,0.1-0.3c0,0,0.1-0.2,0.2-0.2c0.1-0.1,0.2-0.1,0.3-0.1h0.4
		c0.1,0,0.2,0,0.3,0.1c0.1,0.1,0.2,0.2,0.3,0.4l-0.3,0.1c0-0.1-0.2-0.2-0.3-0.2h-0.5c0,0,0,0-0.1,0c-0.1,0-0.2,0.1-0.2,0.2
		c0,0,0,0,0,0v0.8c0,0,0,0,0,0c0,0.1,0.1,0.1,0.2,0.2c0,0,0,0,0.1,0h0.5c0,0,0,0,0.1,0c0.1,0,0.2-0.1,0.2-0.2l0.3,0.1
		C29.2,13.2,29.1,13.3,29.1,13.3z"/>
	<path fill="#A2E1F3" d="M30.9,12.2c0-0.1-0.2-0.2-0.3-0.2h-0.2c-0.1,0-0.3,0.2-0.4,0.2v1.4h-0.4V12l0-0.4H30l0,0.2
		c0.1-0.1,0.2-0.2,0.4-0.2h0.2c0.1,0,0.2,0,0.3,0.1c0.1,0.1,0.2,0.3,0.3,0.4L30.9,12.2z"/>
	<path fill="#A2E1F3" d="M31.7,13.6h-0.4l1.5-2.7h0.4L31.7,13.6z"/>
	<path fill="#A2E1F3" d="M34.8,12.2c-0.1-0.1-0.2-0.2-0.3-0.2h-0.5c0,0,0,0-0.1,0c-0.1,0-0.1,0.1-0.2,0.2c0,0,0,0,0,0.1v0.1
		c0,0,0,0.1,0.1,0.1l0.7,0.1c0.2,0,0.4,0.2,0.4,0.4v0.2c0,0.1,0,0.2-0.1,0.3c0,0.1-0.1,0.2-0.2,0.2c-0.1,0.1-0.2,0.1-0.3,0.1H34
		c-0.1,0-0.2,0-0.3-0.1c-0.1-0.1-0.2-0.2-0.3-0.4l0.3-0.1c0,0.1,0.1,0.2,0.2,0.2c0,0,0,0,0.1,0h0.5c0.1,0,0.2-0.1,0.2-0.2
		c0,0,0,0,0-0.1v-0.1c0,0,0-0.1-0.1-0.1l-0.7,0c-0.2,0-0.4-0.2-0.4-0.4v-0.1c0-0.1,0-0.2,0.1-0.3c0-0.1,0.1-0.2,0.2-0.2
		c0.1-0.1,0.2-0.1,0.3-0.1h0.5c0.1,0,0.2,0,0.3,0.1c0.1,0.1,0.2,0.2,0.3,0.4L34.8,12.2z"/>
	<path fill="#A2E1F3" d="M37.2,13.3c0,0-0.1,0.2-0.2,0.2c-0.1,0.1-0.2,0.1-0.3,0.1h-0.5c-0.1,0-0.2,0-0.3-0.1
		c-0.1,0-0.2-0.2-0.2-0.2c-0.1-0.1-0.1-0.2-0.1-0.3v-0.9c0-0.1,0-0.2,0.1-0.3c0,0,0.1-0.2,0.2-0.2c0.1-0.1,0.2-0.1,0.3-0.1h0.4
		c0.1,0,0.2,0,0.3,0.1c0.1,0.1,0.2,0.2,0.3,0.4l-0.3,0.1c0-0.1-0.2-0.2-0.3-0.2h-0.5c0,0,0,0-0.1,0c-0.1,0-0.2,0.1-0.2,0.2
		c0,0,0,0,0,0v0.8c0,0,0,0,0,0c0,0.1,0.1,0.1,0.2,0.2c0,0,0,0,0.1,0h0.5c0,0,0,0,0.1,0c0.1,0,0.2-0.1,0.2-0.2l0.3,0.1
		C37.2,13.2,37.2,13.3,37.2,13.3z"/>
	<path fill="#A2E1F3" d="M37.9,13.6h-0.4l1.5-2.7h0.4L37.9,13.6z"/>
	<path fill="#A2E1F3" d="M41.3,13.3c0,0-0.1,0.2-0.2,0.2c-0.1,0.1-0.2,0.1-0.3,0.1h-0.5c-0.1,0-0.2,0-0.3-0.1
		c-0.1,0-0.2-0.2-0.2-0.2c-0.1-0.1-0.1-0.2-0.1-0.3v-0.9c0-0.1,0-0.2,0.1-0.3c0,0,0.1-0.2,0.2-0.2c0.1-0.1,0.2-0.1,0.3-0.1h0.4
		c0.1,0,0.2,0,0.3,0.1c0.1,0.1,0.2,0.2,0.3,0.4L41,12.2c0-0.1-0.2-0.2-0.3-0.2h-0.5c0,0,0,0-0.1,0c-0.1,0-0.2,0.1-0.2,0.2
		c0,0,0,0,0,0v0.8c0,0,0,0,0,0c0,0.1,0.1,0.1,0.2,0.2c0,0,0,0,0.1,0h0.5c0,0,0,0,0.1,0c0.1,0,0.2-0.1,0.2-0.2l0.3,0.1
		C41.3,13.2,41.3,13.3,41.3,13.3z"/>
	<path fill="#A2E1F3" d="M43.4,13.3c0,0-0.1,0.2-0.2,0.2c-0.1,0.1-0.2,0.1-0.3,0.1h-0.5c-0.1,0-0.2,0-0.3-0.1
		c-0.1,0-0.2-0.2-0.2-0.2c-0.1-0.1-0.1-0.2-0.1-0.3v-0.9c0-0.1,0-0.2,0.1-0.3c0,0,0.1-0.2,0.2-0.2c0.1-0.1,0.2-0.1,0.3-0.1h0.5
		c0.1,0,0.2,0,0.3,0.1c0.1,0,0.2,0.2,0.2,0.2c0.1,0.1,0.1,0.2,0.1,0.3v0.9C43.5,13.1,43.5,13.2,43.4,13.3z M43.1,13.1v-0.8
		c0,0,0,0,0-0.1c0-0.1-0.1-0.1-0.2-0.2c0,0,0,0-0.1,0h-0.4c0,0,0,0-0.1,0c-0.1,0-0.2,0.1-0.2,0.2c0,0,0,0,0,0v0.8c0,0,0,0,0,0
		c0,0.1,0.1,0.1,0.2,0.2c0,0,0,0,0.1,0h0.4c0,0,0,0,0.1,0C43,13.3,43.1,13.2,43.1,13.1C43.1,13.1,43.1,13.1,43.1,13.1z"/>
	<path fill="#A2E1F3" d="M46.4,13.6v-1.4c0,0,0,0,0,0c0-0.1-0.1-0.1-0.2-0.2c0,0,0,0-0.1,0h-0.2c-0.1,0-0.3,0.2-0.3,0.2v0v1.4h-0.3
		v-1.4c0,0,0,0,0,0c0-0.1-0.1-0.1-0.2-0.2c0,0,0,0-0.1,0h-0.2c0,0,0,0,0,0c-0.1,0-0.3,0.2-0.3,0.3v1.4h-0.4V12l0-0.4h0.4l0,0.2
		c0.1-0.1,0.2-0.2,0.4-0.2c0.1,0,0.2,0,0.3,0c0.1,0,0.2,0,0.3,0.1c0,0,0.1,0.1,0.1,0.2c0.1-0.1,0.2-0.1,0.2-0.2
		c0.1,0,0.2-0.1,0.2-0.1c0.1,0,0.2,0,0.3,0c0.1,0,0.2,0,0.2,0.1s0.2,0.2,0.2,0.2c0.1,0.1,0.1,0.2,0.1,0.3v1.4H46.4z"/>
	<path fill="#A2E1F3" d="M48.9,13.3c0,0-0.1,0.2-0.2,0.2c-0.1,0.1-0.2,0.1-0.3,0.1H48c-0.1,0-0.3-0.1-0.3-0.2v0.9h-0.4V12l0-0.4h0.4
		l0,0.2c0.1-0.1,0.2-0.2,0.4-0.2h0.4c0.1,0,0.2,0,0.3,0.1c0.1,0,0.2,0.2,0.2,0.2c0.1,0.1,0.1,0.2,0.1,0.3v0.8
		C48.9,13.1,48.9,13.2,48.9,13.3z M48.6,12.2C48.6,12.2,48.6,12.2,48.6,12.2c0-0.1-0.1-0.2-0.2-0.2c0,0,0,0-0.1,0H48
		c-0.1,0-0.3,0.2-0.4,0.3V13c0,0.1,0.3,0.3,0.4,0.3h0.3c0,0,0,0,0.1,0c0.1,0,0.2-0.1,0.2-0.2c0,0,0,0,0,0V12.2z"/>
	<path fill="#A2E1F3" d="M51.1,13.3c0,0-0.1,0.2-0.2,0.2c-0.1,0.1-0.2,0.1-0.3,0.1h-0.5c-0.1,0-0.2,0-0.3-0.1
		c-0.1,0-0.2-0.2-0.2-0.2c-0.1-0.1-0.1-0.2-0.1-0.3v-0.9c0-0.1,0-0.2,0.1-0.3c0,0,0.1-0.2,0.2-0.2c0.1-0.1,0.2-0.1,0.3-0.1h0.5
		c0.1,0,0.2,0,0.3,0.1c0.1,0,0.2,0.2,0.2,0.2c0.1,0.1,0.1,0.2,0.1,0.3v0.9C51.1,13.1,51.1,13.2,51.1,13.3z M50.8,13.1v-0.8
		c0,0,0,0,0-0.1c0-0.1-0.1-0.1-0.2-0.2c0,0,0,0-0.1,0h-0.4c0,0,0,0-0.1,0c-0.1,0-0.2,0.1-0.2,0.2c0,0,0,0,0,0v0.8c0,0,0,0,0,0
		c0,0.1,0.1,0.1,0.2,0.2c0,0,0,0,0.1,0h0.4c0,0,0,0,0.1,0C50.6,13.3,50.7,13.2,50.8,13.1C50.8,13.1,50.8,13.1,50.8,13.1z"/>
	<path fill="#A2E1F3" d="M53,13.6v-1.4c0,0,0,0,0,0c0-0.1-0.1-0.2-0.2-0.2c0,0,0,0-0.1,0h-0.3c-0.1,0-0.3,0.2-0.3,0.2v1.4h-0.4V12
		l0-0.4H52l0,0.2c0.1-0.1,0.2-0.2,0.4-0.2h0.3c0.1,0,0.2,0,0.3,0.1c0.1,0,0.2,0.2,0.2,0.2c0.1,0.1,0.1,0.2,0.1,0.3v1.4H53z"/>
	<path fill="#A2E1F3" d="M55.2,13.5c-0.1,0.1-0.2,0.1-0.3,0.1h-0.4c-0.1,0-0.2,0-0.3-0.1c-0.1,0-0.2-0.2-0.2-0.2
		c-0.1-0.1-0.1-0.2-0.1-0.3v-0.9c0-0.1,0-0.2,0.1-0.3c0,0,0.1-0.2,0.2-0.2c0.1-0.1,0.2-0.1,0.3-0.1h0.5c0.1,0,0.2,0,0.3,0.1
		c0.1,0,0.2,0.2,0.2,0.2c0.1,0.1,0.1,0.2,0.1,0.3v0.6h-1.3v0.3c0,0,0,0,0,0c0,0,0.1,0.1,0.2,0.2c0,0,0,0,0.1,0h0.5c0,0,0,0,0.1,0
		c0.1,0,0.2-0.1,0.2-0.2l0,0l0.3,0.1C55.5,13.3,55.3,13.5,55.2,13.5z M55.2,12.2C55.2,12.2,55.2,12.2,55.2,12.2
		c0-0.1-0.1-0.2-0.2-0.2c0,0,0,0-0.1,0h-0.4c0,0,0,0-0.1,0c-0.1,0-0.2,0.1-0.2,0.2c0,0,0,0,0,0v0.3h0.9V12.2z"/>
	<path fill="#A2E1F3" d="M57.3,13.6v-1.4c0,0,0,0,0,0c0-0.1-0.1-0.2-0.2-0.2c0,0,0,0-0.1,0h-0.3c-0.1,0-0.3,0.2-0.3,0.2v1.4h-0.4V12
		l0-0.4h0.4l0,0.2c0.1-0.1,0.2-0.2,0.4-0.2h0.3c0.1,0,0.2,0,0.3,0.1c0.1,0,0.2,0.2,0.2,0.2c0.1,0.1,0.1,0.2,0.1,0.3v1.4H57.3z"/>
	<path fill="#A2E1F3" d="M58.8,12v1c0,0,0,0,0,0.1c0,0.1,0.1,0.1,0.2,0.2c0,0,0,0,0.1,0h0.3v0.3H59c-0.1,0-0.2,0-0.3-0.1
		c-0.1,0-0.2-0.2-0.2-0.2c-0.1-0.1-0.1-0.2-0.1-0.3v-1h-0.3v-0.3h0.3v-0.8h0.4v0.8h0.6V12H58.8z"/>
	<path fill="#A2E1F3" d="M61.1,12.2C61,12.1,60.9,12,60.8,12h-0.5c0,0,0,0-0.1,0c-0.1,0-0.1,0.1-0.2,0.2c0,0,0,0,0,0.1v0.1
		c0,0,0,0.1,0.1,0.1l0.7,0.1c0.2,0,0.4,0.2,0.4,0.4v0.2c0,0.1,0,0.2-0.1,0.3c0,0.1-0.1,0.2-0.2,0.2c-0.1,0.1-0.2,0.1-0.3,0.1h-0.5
		c-0.1,0-0.2,0-0.3-0.1c-0.1-0.1-0.2-0.2-0.3-0.4L60,13c0,0.1,0.1,0.2,0.2,0.2c0,0,0,0,0.1,0h0.5c0.1,0,0.2-0.1,0.2-0.2
		c0,0,0,0,0-0.1v-0.1c0,0,0-0.1-0.1-0.1l-0.7,0c-0.2,0-0.4-0.2-0.4-0.4v-0.1c0-0.1,0-0.2,0.1-0.3c0-0.1,0.1-0.2,0.2-0.2
		c0.1-0.1,0.2-0.1,0.3-0.1h0.5c0.1,0,0.2,0,0.3,0.1c0.1,0.1,0.2,0.2,0.3,0.4L61.1,12.2z"/>
	<path fill="#A2E1F3" d="M62,13.6v-0.5h0.5v0.5H62z"/>
	<path fill="#A2E1F3" d="M63.5,14.1c0,0-0.1,0.2-0.2,0.2c-0.1,0.1-0.2,0.1-0.4,0.1h-0.2v-0.3c0.3,0,0.3,0,0.3,0
		c0.1,0,0.1-0.1,0.2-0.2c0,0,0,0,0,0v-2.1h0.4v2.1C63.6,13.9,63.5,14,63.5,14.1z M63.2,11.3v-0.4h0.4v0.4H63.2z"/>
	<path fill="#A2E1F3" d="M65.4,12.2c-0.1-0.1-0.2-0.2-0.3-0.2h-0.5c0,0,0,0-0.1,0c-0.1,0-0.1,0.1-0.2,0.2c0,0,0,0,0,0.1v0.1
		c0,0,0,0.1,0.1,0.1l0.7,0.1c0.2,0,0.4,0.2,0.4,0.4v0.2c0,0.1,0,0.2-0.1,0.3c0,0.1-0.1,0.2-0.2,0.2c-0.1,0.1-0.2,0.1-0.3,0.1h-0.5
		c-0.1,0-0.2,0-0.3-0.1c-0.1-0.1-0.2-0.2-0.3-0.4l0.3-0.1c0,0.1,0.1,0.2,0.2,0.2c0,0,0,0,0.1,0h0.5c0.1,0,0.2-0.1,0.2-0.2
		c0,0,0,0,0-0.1v-0.1c0,0,0-0.1-0.1-0.1l-0.7,0c-0.2,0-0.4-0.2-0.4-0.4v-0.1c0-0.1,0-0.2,0.1-0.3c0-0.1,0.1-0.2,0.2-0.2
		c0.1-0.1,0.2-0.1,0.3-0.1h0.5c0.1,0,0.2,0,0.3,0.1c0.1,0.1,0.2,0.2,0.3,0.4L65.4,12.2z"/>
	<path fill="#A2E1F3" d="M67.8,13.3c0,0-0.1,0.2-0.2,0.2c-0.1,0.1-0.2,0.1-0.3,0.1h-0.5c-0.1,0-0.2,0-0.3-0.1
		c-0.1,0-0.2-0.2-0.2-0.2c-0.1-0.1-0.1-0.2-0.1-0.3v-0.9c0-0.1,0-0.2,0.1-0.3c0,0,0.1-0.2,0.2-0.2c0.1-0.1,0.2-0.1,0.3-0.1h0.5
		c0.1,0,0.2,0,0.3,0.1c0.1,0,0.2,0.2,0.2,0.2c0.1,0.1,0.1,0.2,0.1,0.3v0.9C67.9,13.1,67.9,13.2,67.8,13.3z M67.5,13.1v-0.8
		c0,0,0,0,0-0.1c0-0.1-0.1-0.1-0.2-0.2c0,0,0,0-0.1,0h-0.4c0,0,0,0-0.1,0c-0.1,0-0.2,0.1-0.2,0.2c0,0,0,0,0,0v0.8c0,0,0,0,0,0
		c0,0.1,0.1,0.1,0.2,0.2c0,0,0,0,0.1,0h0.4c0,0,0,0,0.1,0C67.4,13.3,67.5,13.2,67.5,13.1C67.5,13.1,67.5,13.1,67.5,13.1z"/>
	<path fill="#A2E1F3" d="M69.7,13.6v-1.4c0,0,0,0,0,0c0-0.1-0.1-0.2-0.2-0.2c0,0,0,0-0.1,0h-0.3c-0.1,0-0.3,0.2-0.3,0.2v1.4h-0.4V12
		l0-0.4h0.4l0,0.2c0.1-0.1,0.2-0.2,0.4-0.2h0.3c0.1,0,0.2,0,0.3,0.1c0.1,0,0.2,0.2,0.2,0.2c0.1,0.1,0.1,0.2,0.1,0.3v1.4H69.7z"/>
</g>
<g>
	<path fill="#A2E1F3" d="M48.6,24.4c-0.2,0.2-0.4,0.5-0.7,0.5h-0.8c-0.1,0-0.2,0-0.3-0.1c-0.1-0.1-0.3-0.3-0.4-0.4
		c-0.1-0.1-0.1-0.2-0.1-0.3v-1.6c0-0.1,0-0.2,0.1-0.3c0.1-0.1,0.3-0.3,0.4-0.4c0.1,0,0.2-0.1,0.3-0.1h0.8c0.3,0,0.5,0.2,0.7,0.5
		c0.1,0.1,0.1,0.2,0.1,0.3v1.6C48.6,24.2,48.6,24.3,48.6,24.4z M46.9,24.1C46.9,24.1,46.9,24.1,46.9,24.1c0,0.1,0.2,0.2,0.3,0.2h0.7
		c0.1,0,0.2-0.2,0.2-0.2c0,0,0,0,0,0v-1.5c0,0,0,0,0,0c0,0-0.2-0.2-0.2-0.2h-0.7c0,0,0,0,0,0c-0.1,0-0.2,0.1-0.2,0.2c0,0,0,0,0,0
		V24.1z"/>
	<path fill="#A2E1F3" d="M51.4,22.9c0,0.1,0,0.2-0.1,0.3c0,0.1-0.2,0.2-0.3,0.3c-0.1,0.1-0.2,0.1-0.4,0.1h-0.9v1.2h-0.5v-3h1.4
		c0.1,0,0.3,0,0.4,0.1c0.1,0,0.2,0.2,0.3,0.3c0.1,0.1,0.1,0.2,0.1,0.3V22.9z M50.9,22.5c0-0.1-0.1-0.2-0.2-0.2h-0.9v0.8h0.9
		c0,0,0.1-0.1,0.2-0.2c0,0,0,0,0,0V22.5z"/>
	<path fill="#A2E1F3" d="M52,24.8v-3h1.9v0.5h-1.4v0.8h1.3v0.5h-1.3v0.7h1.4v0.5H52z"/>
	<path fill="#A2E1F3" d="M56.7,22.9c0,0.1,0,0.2-0.1,0.3c-0.1,0.1-0.3,0.3-0.4,0.3l0.6,1.2h-0.6l-0.6-1.2h-0.6v1.2h-0.5v-3H56
		c0.1,0,0.3,0,0.4,0.1c0.1,0,0.2,0.2,0.3,0.3c0.1,0.1,0.1,0.2,0.1,0.3V22.9z M56.2,22.5c0-0.1-0.1-0.2-0.2-0.2h-0.9v0.8H56
		c0,0,0.1-0.1,0.2-0.2c0,0,0,0,0,0V22.5z"/>
	<path fill="#A2E1F3" d="M59.8,24.8h-0.6l-0.2-0.6h-1.1l-0.2,0.6h-0.6l1-3h0.6L59.8,24.8z M58.9,23.7l-0.4-1.2l-0.4,1.2H58.9z"/>
	<path fill="#A2E1F3" d="M61.1,22.3v2.5h-0.5v-2.5h-0.8v-0.5h2.1v0.5H61.1z"/>
	<path fill="#A2E1F3" d="M62.3,22.3v-0.5h0.9v0.5H63v1.9h0.2v0.5h-0.9v-0.5h0.2v-1.9H62.3z"/>
	<path fill="#A2E1F3" d="M65.3,24.8l-1-2v2h-0.5v-3h0.6l1,2v-2h0.5v3H65.3z"/>
	<path fill="#A2E1F3" d="M67.1,24.1c0,0.1,0.2,0.2,0.2,0.2c0,0,0,0,0,0H68c0,0,0,0,0,0c0.1,0,0.2-0.2,0.2-0.2v-0.5h-0.6v-0.5h1.2v1
		c0,0,0,0.3,0.1,0.7h-0.5l0-0.1c-0.1,0-0.2,0.1-0.3,0.1h-0.7c-0.1,0-0.2,0-0.3-0.1c-0.1-0.1-0.3-0.3-0.4-0.4s-0.1-0.2-0.1-0.3v-1.6
		c0-0.1,0-0.2,0.1-0.3c0.1-0.1,0.3-0.3,0.4-0.4c0.1,0,0.2-0.1,0.3-0.1H68c0.3,0,0.5,0.2,0.6,0.4c0,0.1,0.1,0.1,0.1,0.2l-0.5,0.1
		c0,0-0.1-0.2-0.2-0.2c0,0,0,0,0,0h-0.7c0,0,0,0,0,0c-0.1,0-0.2,0.1-0.2,0.2c0,0,0,0,0,0V24.1z"/>
</g>
<g>
	<path fill="#A2E1F3" d="M31.6,22.4h-0.8v0.7h0.8c0,0,0.1-0.1,0.2-0.1c0,0,0,0,0,0v-0.4C31.8,22.5,31.7,22.4,31.6,22.4z"/>
	<path fill="#A2E1F3" d="M41.5,20.7h-18c-0.3,0-0.5,0.2-0.5,0.5v4c0,0.3,0.2,0.5,0.5,0.5h18c0.3,0,0.5-0.2,0.5-0.5v-4
		C42,20.9,41.8,20.7,41.5,20.7z M26.8,24.6h-0.6l-0.9-2.7h0.5l0.7,2.1l0.7-2.1h0.5L26.8,24.6z M29.7,22.4h-1.2v0.7h1.1v0.5h-1.1v0.7
		h1.2v0.5H28v-2.7h1.7V22.4z M31.8,24.6l-0.5-1.1h-0.5v1.1h-0.5v-2.7h1.3c0.1,0,0.2,0,0.3,0.1c0.1,0,0.2,0.2,0.2,0.2
		c0.1,0.1,0.1,0.2,0.1,0.3V23c0,0.1,0,0.2-0.1,0.3c-0.1,0.1-0.2,0.3-0.4,0.3l0.5,1.1H31.8z M35.8,22.9c0,0.2-0.1,0.3-0.2,0.4
		c0.1,0.1,0.2,0.2,0.2,0.4V24c0,0.1,0,0.2-0.1,0.3c0,0.1-0.2,0.2-0.2,0.2c-0.1,0.1-0.2,0.1-0.3,0.1h-0.5c-0.3,0-0.6-0.3-0.7-0.6
		l0.5-0.1c0,0,0.2,0.2,0.2,0.2h0.5c0,0,0.1-0.1,0.2-0.2c0,0,0,0,0,0v-0.4c0-0.1-0.1-0.2-0.2-0.2h-0.6V23h0.6c0,0,0.1-0.1,0.2-0.1
		c0,0,0,0,0,0v-0.3c0,0,0,0,0,0c0-0.1-0.1-0.1-0.2-0.1h-0.5c-0.1,0-0.2,0.2-0.2,0.2l-0.5-0.1c0.1-0.3,0.4-0.6,0.7-0.6h0.5
		c0.1,0,0.2,0,0.3,0.1c0.1,0,0.2,0.2,0.2,0.2c0.1,0.1,0.1,0.2,0.1,0.3V22.9z M36.9,24.6h-0.6v-0.6h0.6V24.6z M39.4,24
		c0,0.1,0,0.2-0.1,0.3c-0.1,0.1-0.2,0.3-0.3,0.3c-0.1,0-0.2,0.1-0.3,0.1h-0.5c-0.1,0-0.2,0-0.3-0.1c-0.1-0.1-0.3-0.2-0.3-0.3
		c-0.1-0.1-0.1-0.2-0.1-0.3v-1.4c0-0.1,0-0.2,0.1-0.3c0.1-0.1,0.2-0.3,0.3-0.3c0.1,0,0.2-0.1,0.3-0.1h0.5c0.1,0,0.2,0,0.3,0.1
		c0.1,0.1,0.3,0.2,0.3,0.3c0.1,0.1,0.1,0.2,0.1,0.3V24z"/>
	<path fill="#A2E1F3" d="M38.2,22.4C38.2,22.4,38.2,22.4,38.2,22.4c-0.1,0-0.2,0.1-0.2,0.2c0,0,0,0,0,0v1.1l0.7-1.3H38.2z"/>
	<path fill="#A2E1F3" d="M38.7,24.2c0.1,0,0.2-0.2,0.2-0.2c0,0,0,0,0,0v-1.1l-0.7,1.3H38.7z"/>
</g>
</svg>
