<?xml version="1.0" encoding="utf-8"?>
<!-- Generator: Adobe Illustrator 28.5.0, SVG Export Plug-In . SVG Version: 9.03 Build 54727)  -->
<svg version="1.1" baseProfile="tiny" id="Layer_1" xmlns="http://www.w3.org/2000/svg" xmlns:xlink="http://www.w3.org/1999/xlink"
	 x="0px" y="0px" viewBox="0 0 128 128" overflow="visible" xml:space="preserve">
<path fill="#FFFFFF" d="M98.8,68.5c0.2-1.4,0.3-2.9,0.3-4.4c0-1.5,0-3.1-0.4-4.4l9.9-7.5c0.4-0.4,0.7-0.8,0.9-1.4
	c0-0.5,0-1.1-0.2-1.6l-9.3-15.8c-0.3-0.5-0.7-0.9-1.2-1.1c-0.5-0.2-1.1-0.2-1.6,0L85.4,37c-2.4-1.8-5-3.3-7.9-4.5l-1.8-12.1
	c0-0.6-0.4-1.1-0.8-1.4s-1-0.6-1.6-0.6H54.7c-1.1,0-2.1,0.8-2.3,1.9l-1.8,12.1c-2.9,1.1-5.5,2.7-7.9,4.5l-11.6-4.6
	c-1.1-0.4-2.3,0-2.9,1.1l-9.4,15.8c-0.6,1-0.4,2.2,0.6,2.9l9.9,7.5c-0.2,1.4-0.4,3-0.4,4.4c0,1.4,0,3.1,0.4,4.4l-9.9,7.5
	c-0.4,0.4-0.7,0.8-0.9,1.4c0,0.5,0,1.1,0.2,1.6l9.3,15.8c0.6,1.1,1.8,1.4,2.9,1.1l11.6-4.6c2.4,1.8,5,3.3,7.9,4.5l1.8,12.1
	c0.2,1.1,1.2,1.9,2.3,1.9h18.7c1.1,0,2.1-0.8,2.3-1.9l1.8-12.1c2.8-1.1,5.5-2.6,7.9-4.5l11.6,4.6c1.1,0.4,2.3,0,2.9-1.1l9.3-15.8
	c0.6-1.1,0.4-2.2-0.6-2.9L98.8,68.5L98.8,68.5z M64,81.1c-9.6,0-17.5-7.7-17.5-17.1S54.3,47,64,47s17.6,7.7,17.6,17.1
	S73.6,81.1,64,81.1z"/>
</svg>
