<?xml version="1.0" encoding="utf-8"?>
<!-- Generator: Adobe Illustrator 28.5.0, SVG Export Plug-In . SVG Version: 9.03 Build 54727)  -->
<svg version="1.1" baseProfile="tiny" id="Layer_1" xmlns="http://www.w3.org/2000/svg" xmlns:xlink="http://www.w3.org/1999/xlink"
	 x="0px" y="0px" viewBox="0 0 349.5 62" overflow="visible" xml:space="preserve">
<g>
	<circle cx="25" cy="1" r="0.5"/>
	<circle cx="37" cy="1" r="0.5"/>
	<circle cx="49" cy="1" r="0.5"/>
	<circle cx="61" cy="1" r="0.5"/>
	<circle cx="73" cy="1" r="0.5"/>
	<circle cx="85" cy="1" r="0.5"/>
	<circle cx="97" cy="1" r="0.5"/>
	<circle cx="109" cy="1" r="0.5"/>
	<circle cx="121" cy="1" r="0.5"/>
	<circle cx="133" cy="1" r="0.5"/>
	<circle cx="145" cy="1" r="0.5"/>
	<circle cx="157" cy="1" r="0.5"/>
	<circle cx="169" cy="1" r="0.5"/>
	<circle cx="181" cy="1" r="0.5"/>
	<circle cx="193" cy="1" r="0.5"/>
	<circle cx="205" cy="1" r="0.5"/>
	<circle cx="217" cy="1" r="0.5"/>
	<circle cx="229" cy="1" r="0.5"/>
	<circle cx="241" cy="1" r="0.5"/>
	<circle cx="253" cy="1" r="0.5"/>
	<circle cx="265" cy="1" r="0.5"/>
	<circle cx="277" cy="1" r="0.5"/>
	<circle cx="289" cy="1" r="0.5"/>
	<circle cx="301" cy="1" r="0.5"/>
	<circle cx="313" cy="1" r="0.5"/>
	<circle cx="325" cy="1" r="0.5"/>
	<circle cx="337" cy="1" r="0.5"/>
	<circle cx="349" cy="1" r="0.5"/>
	<circle cx="25" cy="13" r="0.5"/>
	<circle cx="37" cy="13" r="0.5"/>
	<circle cx="49" cy="13" r="0.5"/>
	<circle cx="61" cy="13" r="0.5"/>
	<circle cx="73" cy="13" r="0.5"/>
	<circle cx="85" cy="13" r="0.5"/>
	<circle cx="97" cy="13" r="0.5"/>
	<circle cx="109" cy="13" r="0.5"/>
	<circle cx="121" cy="13" r="0.5"/>
	<circle cx="133" cy="13" r="0.5"/>
	<circle cx="145" cy="13" r="0.5"/>
	<circle cx="157" cy="13" r="0.5"/>
	<circle cx="169" cy="13" r="0.5"/>
	<circle cx="181" cy="13" r="0.5"/>
	<circle cx="193" cy="13" r="0.5"/>
	<circle cx="205" cy="13" r="0.5"/>
	<circle cx="217" cy="13" r="0.5"/>
	<circle cx="229" cy="13" r="0.5"/>
	<circle cx="241" cy="13" r="0.5"/>
	<circle cx="253" cy="13" r="0.5"/>
	<circle cx="265" cy="13" r="0.5"/>
	<circle cx="277" cy="13" r="0.5"/>
	<circle cx="289" cy="13" r="0.5"/>
	<circle cx="301" cy="13" r="0.5"/>
	<circle cx="313" cy="13" r="0.5"/>
	<circle cx="325" cy="13" r="0.5"/>
	<circle cx="337" cy="13" r="0.5"/>
	<circle cx="349" cy="13" r="0.5"/>
	<circle cx="25" cy="25" r="0.5"/>
	<circle cx="37" cy="25" r="0.5"/>
	<circle cx="49" cy="25" r="0.5"/>
	<circle cx="61" cy="25" r="0.5"/>
	<circle cx="73" cy="25" r="0.5"/>
	<circle cx="85" cy="25" r="0.5"/>
	<circle cx="97" cy="25" r="0.5"/>
	<circle cx="109" cy="25" r="0.5"/>
	<circle cx="121" cy="25" r="0.5"/>
	<circle cx="133" cy="25" r="0.5"/>
	<circle cx="145" cy="25" r="0.5"/>
	<circle cx="157" cy="25" r="0.5"/>
	<circle cx="169" cy="25" r="0.5"/>
	<circle cx="181" cy="25" r="0.5"/>
	<circle cx="193" cy="25" r="0.5"/>
	<circle cx="205" cy="25" r="0.5"/>
	<circle cx="217" cy="25" r="0.5"/>
	<circle cx="229" cy="25" r="0.5"/>
	<circle cx="241" cy="25" r="0.5"/>
	<circle cx="253" cy="25" r="0.5"/>
	<circle cx="265" cy="25" r="0.5"/>
	<circle cx="277" cy="25" r="0.5"/>
	<circle cx="289" cy="25" r="0.5"/>
	<circle cx="301" cy="25" r="0.5"/>
	<circle cx="313" cy="25" r="0.5"/>
	<circle cx="325" cy="25" r="0.5"/>
	<circle cx="337" cy="25" r="0.5"/>
	<circle cx="349" cy="25" r="0.5"/>
	<circle cx="25" cy="37" r="0.5"/>
	<circle cx="37" cy="37" r="0.5"/>
	<circle cx="49" cy="37" r="0.5"/>
	<circle cx="61" cy="37" r="0.5"/>
	<circle cx="73" cy="37" r="0.5"/>
	<circle cx="85" cy="37" r="0.5"/>
	<circle cx="97" cy="37" r="0.5"/>
	<circle cx="109" cy="37" r="0.5"/>
	<circle cx="121" cy="37" r="0.5"/>
	<circle cx="133" cy="37" r="0.5"/>
	<circle cx="145" cy="37" r="0.5"/>
	<circle cx="157" cy="37" r="0.5"/>
	<circle cx="169" cy="37" r="0.5"/>
	<circle cx="181" cy="37" r="0.5"/>
	<circle cx="193" cy="37" r="0.5"/>
	<circle cx="205" cy="37" r="0.5"/>
	<circle cx="217" cy="37" r="0.5"/>
	<circle cx="229" cy="37" r="0.5"/>
	<circle cx="241" cy="37" r="0.5"/>
	<circle cx="253" cy="37" r="0.5"/>
	<circle cx="265" cy="37" r="0.5"/>
	<circle cx="277" cy="37" r="0.5"/>
	<circle cx="289" cy="37" r="0.5"/>
	<circle cx="301" cy="37" r="0.5"/>
	<circle cx="313" cy="37" r="0.5"/>
	<circle cx="325" cy="37" r="0.5"/>
	<circle cx="337" cy="37" r="0.5"/>
	<circle cx="349" cy="37" r="0.5"/>
	<circle cx="25" cy="49" r="0.5"/>
	<circle cx="37" cy="49" r="0.5"/>
	<circle cx="49" cy="49" r="0.5"/>
	<circle cx="61" cy="49" r="0.5"/>
	<circle cx="73" cy="49" r="0.5"/>
	<circle cx="85" cy="49" r="0.5"/>
	<circle cx="97" cy="49" r="0.5"/>
	<circle cx="109" cy="49" r="0.5"/>
	<circle cx="121" cy="49" r="0.5"/>
	<circle cx="133" cy="49" r="0.5"/>
	<circle cx="145" cy="49" r="0.5"/>
	<circle cx="157" cy="49" r="0.5"/>
	<circle cx="169" cy="49" r="0.5"/>
	<circle cx="181" cy="49" r="0.5"/>
	<circle cx="193" cy="49" r="0.5"/>
	<circle cx="205" cy="49" r="0.5"/>
	<circle cx="217" cy="49" r="0.5"/>
	<circle cx="229" cy="49" r="0.5"/>
	<circle cx="241" cy="49" r="0.5"/>
	<circle cx="253" cy="49" r="0.5"/>
	<circle cx="265" cy="49" r="0.5"/>
	<circle cx="277" cy="49" r="0.5"/>
	<circle cx="289" cy="49" r="0.5"/>
	<circle cx="301" cy="49" r="0.5"/>
	<circle cx="313" cy="49" r="0.5"/>
	<circle cx="325" cy="49" r="0.5"/>
	<circle cx="337" cy="49" r="0.5"/>
	<circle cx="349" cy="49" r="0.5"/>
	<circle cx="25" cy="61" r="0.5"/>
	<circle cx="37" cy="61" r="0.5"/>
	<circle cx="49" cy="61" r="0.5"/>
	<circle cx="61" cy="61" r="0.5"/>
	<circle cx="73" cy="61" r="0.5"/>
	<circle cx="85" cy="61" r="0.5"/>
	<circle cx="97" cy="61" r="0.5"/>
	<circle cx="109" cy="61" r="0.5"/>
	<circle cx="121" cy="61" r="0.5"/>
	<circle cx="133" cy="61" r="0.5"/>
	<circle cx="145" cy="61" r="0.5"/>
	<circle cx="157" cy="61" r="0.5"/>
	<circle cx="169" cy="61" r="0.5"/>
	<circle cx="181" cy="61" r="0.5"/>
	<circle cx="193" cy="61" r="0.5"/>
	<circle cx="205" cy="61" r="0.5"/>
	<circle cx="217" cy="61" r="0.5"/>
	<circle cx="229" cy="61" r="0.5"/>
	<circle cx="241" cy="61" r="0.5"/>
	<circle cx="253" cy="61" r="0.5"/>
	<circle cx="265" cy="61" r="0.5"/>
	<circle cx="277" cy="61" r="0.5"/>
	<circle cx="289" cy="61" r="0.5"/>
	<circle cx="301" cy="61" r="0.5"/>
	<circle cx="313" cy="61" r="0.5"/>
	<circle cx="325" cy="61" r="0.5"/>
	<circle cx="337" cy="61" r="0.5"/>
	<circle cx="349" cy="61" r="0.5"/>
</g>
<rect width="1" height="62"/>
<path d="M15,6.2h-0.8V7h-0.4V6.2H13V5.8h0.8V5h0.4v0.8H15V6.2z"/>
<path d="M15,53.2h-0.8V54h-0.4v-0.8H13v-0.4h0.8V52h0.4v0.8H15V53.2z"/>
</svg>
