<?xml version="1.0" encoding="utf-8"?>
<!-- Generator: Adobe Illustrator 28.5.0, SVG Export Plug-In . SVG Version: 9.03 Build 54727)  -->
<svg version="1.1" baseProfile="tiny" id="Layer_1" xmlns="http://www.w3.org/2000/svg" xmlns:xlink="http://www.w3.org/1999/xlink"
	 x="0px" y="0px" viewBox="0 0 128 128" overflow="visible" xml:space="preserve">
<path fill="#FFFFFF" d="M89.3,94l-21-21c-1.6,1.3-3.6,2.4-5.7,3.2c-2.2,0.8-4.5,1.1-6.9,1.1c-6.1,0-11.2-2.1-15.4-6.3
	c-4.2-4.2-6.3-9.3-6.3-15.3c0-6.1,2.1-11.2,6.3-15.4c4.2-4.2,9.3-6.3,15.4-6.3c6,0,11.1,2.1,15.3,6.3c4.2,4.2,6.3,9.3,6.3,15.4
	c0,2.4-0.4,4.7-1.1,6.9c-0.8,2.1-1.9,4.1-3.2,5.7l21,21L89.3,94L89.3,94z M55.7,70.7c4.1,0,7.7-1.5,10.7-4.3
	c2.9-2.9,4.3-6.5,4.3-10.7S69.2,48,66.3,45c-3-2.9-6.5-4.3-10.7-4.4c-4.2,0-7.7,1.4-10.7,4.4c-2.9,2.9-4.3,6.4-4.3,10.6
	c0,4.1,1.4,7.7,4.3,10.7C48,69.2,51.5,70.7,55.7,70.7z"/>
</svg>
