<?xml version="1.0" encoding="utf-8"?>
<!-- Generator: Adobe Illustrator 28.6.0, SVG Export Plug-In . SVG Version: 9.03 Build 54939)  -->
<svg version="1.1" baseProfile="tiny" id="Layer_1" xmlns="http://www.w3.org/2000/svg" xmlns:xlink="http://www.w3.org/1999/xlink"
	 x="0px" y="0px" viewBox="0 0 379 217.6" overflow="visible" xml:space="preserve">
<rect x="17.3" y="26.8" fill="#A2E1F3" width="1" height="0.5"/>
<rect x="46.9" y="26.8" fill="#A2E1F3" width="1" height="0.5"/>
<rect id="_x3C_Rectangle_x3E__opacity:30_00000088124874889453626930000014827558523083872170_" x="18.5" y="26.8" fill="#A2E1F3" width="28.1" height="0.5"/>
<path fill="#A2E1F3" d="M17.3,13.9h0.5v-1.2H18v-1.2h-0.7V13.9z"/>
<path fill="#A2E1F3" d="M366.3,11.3h0.5v5.1h0.5v2.5h-1V11.3z"/>
<path fill="#A2E1F3" d="M366.3,206.2h0.5v-5.1h0.5v-2.5h-1V206.2z"/>
<rect id="_x3C_Path_x3E__opacity:30_00000012471238965792745340000010140229657397122951_" x="366.3" y="25.5" fill="#A2E1F3" width="1" height="166.1"/>
<rect x="251.2" y="175.9" transform="matrix(0.7071 0.7071 -0.7071 0.7071 198.3111 -126.4087)" fill="#A2E1F3" width="1" height="0.5"/>
<rect x="272.2" y="196.9" transform="matrix(0.7071 0.7071 -0.7071 0.7071 219.3095 -135.1066)" fill="#A2E1F3" width="1" height="0.5"/>
<rect id="_x3C_Rectangle_x3E__opacity:30_00000095330408095059567270000013197843561058972350_" x="248.2" y="186.4" transform="matrix(0.7071 0.7071 -0.7071 0.7071 208.7921 -130.7501)" fill="#A2E1F3" width="28.1" height="0.5"/>
<rect x="277.4" y="197.1" fill="#A2E1F3" width="4.8" height="1.2"/>
<rect x="311" y="197.1" fill="#A2E1F3" width="1" height="1.2"/>
<rect id="_x3C_Rectangle_x3E__opacity:30" x="282.6" y="197.1" fill="#A2E1F3" width="28.1" height="1.2"/>
</svg>
