<?xml version="1.0" encoding="utf-8"?>
<!-- Generator: Adobe Illustrator 28.5.0, SVG Export Plug-In . SVG Version: 9.03 Build 54727)  -->
<svg version="1.1" baseProfile="tiny" id="Layer_1" xmlns="http://www.w3.org/2000/svg" xmlns:xlink="http://www.w3.org/1999/xlink"
	 x="0px" y="0px" viewBox="0 0 379 155.5" overflow="visible" xml:space="preserve">
<rect id="_x3C_Path_x3E__opacity:70_00000139275361675325964380000011852315350965698971_" y="0" fill="#55F6C2" width="2" height="155.5"/>
<g id="_x3C_Group_x3E__00000078726649249103999810000000869780171745620906_">
	<polygon id="_x3C_Path_x3E__opacity:50_00000125591640998131991620000007219127238840435840_" fill="#A2E1F3" points="362.5,13 
		362.5,8 362,8 362,15.5 363,15.5 363,13 	"/>
	<polygon id="_x3C_Path_x3E__opacity:50_00000134239158760136150940000005056425781326896795_" fill="#A2E1F3" points="362,147.5 
		362.5,147.5 362.5,142.5 363,142.5 363,140 362,140 	"/>
	<rect id="_x3C_Path_x3E__opacity:50" x="362" y="22" fill="#A2E1F3" width="1" height="111"/>
</g>
<path id="_x3C_Compound_Path_x3E__opacity:30_00000021821024751702887500000006655914144619592328_" fill="#A2E1F3" d="M378,1v23.3
	l-2.9,1.2l-0.6,0.3v0.7v100v0.7l0.6,0.3l2.9,1.2v25.8H4.5V1H378 M379,0H3.5v155.5H379V128l-3.5-1.5v-100L379,25V0L379,0z"/>
</svg>
