<?xml version="1.0" encoding="utf-8"?>
<!-- Generator: Adobe Illustrator 28.5.0, SVG Export Plug-In . SVG Version: 9.03 Build 54727)  -->
<svg version="1.1" baseProfile="tiny" id="Layer_1" xmlns="http://www.w3.org/2000/svg" xmlns:xlink="http://www.w3.org/1999/xlink"
	 x="0px" y="0px" viewBox="0 0 1667.5 58.4" overflow="visible" xml:space="preserve">
<g id="_x3C_Group_x3E__opacity:30">
	<path fill="#A2E1F3" d="M1489,8h-125V5h125V8z M1364.5,7.5h124v-2h-124V7.5z"/>
	<path fill="#A2E1F3" d="M1545,8h-22V5h22V8z M1523.5,7.5h21v-2h-21V7.5z"/>
	<path fill="#A2E1F3" d="M1552,8h-3V5h3V8z M1549.5,7.5h2v-2h-2V7.5z"/>
</g>
<rect id="_x3C_Path_x3E__opacity:10" x="1564" y="11.2" fill="#A2E1F3" width="103" height="37.4"/>
<rect x="1564" y="11.2" fill="#A2E1F3" width="3" height="1"/>
<rect x="1664" y="11.2" fill="#A2E1F3" width="3" height="1"/>
<rect x="1564" y="47.6" fill="#A2E1F3" width="3" height="1"/>
<rect x="1664" y="47.6" fill="#A2E1F3" width="3" height="1"/>
<g>
	<path fill="#A2E1F3" d="M1614.4,27.8c-0.1,0-0.1,0-0.2,0l-10.9-10.1c0-0.1,0-0.1,0-0.2c0-0.4-0.4-0.8-0.8-0.8s-0.8,0.4-0.8,0.8
		c0,0.4,0.4,0.8,0.8,0.8c0.1,0,0.1,0,0.2,0l10.9,10.1c0,0.1,0,0.1,0,0.2c0,0.4,0.4,0.8,0.8,0.8c0.4,0,0.8-0.4,0.8-0.8
		C1615.2,28.2,1614.9,27.8,1614.4,27.8z"/>
	<path fill="#A2E1F3" d="M1614.4,31c-0.4,0-0.8,0.4-0.8,0.8c0,0,0,0.1,0,0.1l-10.8,9.4c-0.1,0-0.2-0.1-0.2-0.1
		c-0.4,0-0.8,0.4-0.8,0.8s0.4,0.8,0.8,0.8s0.8-0.4,0.8-0.8c0,0,0-0.1,0-0.1l10.8-9.4c0.1,0,0.2,0.1,0.2,0.1c0.4,0,0.8-0.4,0.8-0.8
		S1614.9,31,1614.4,31z"/>
	<path fill="#A2E1F3" d="M1617.6,29.4c0.4,0,0.8-0.4,0.8-0.8c0-0.1,0-0.1,0-0.2l10.9-10.1c0.1,0,0.1,0,0.2,0c0.4,0,0.8-0.4,0.8-0.8
		c0-0.4-0.4-0.8-0.8-0.8c-0.4,0-0.8,0.4-0.8,0.8c0,0.1,0,0.1,0,0.2l-10.9,10.1c-0.1,0-0.1,0-0.2,0c-0.4,0-0.8,0.4-0.8,0.8
		C1616.8,29.1,1617.1,29.4,1617.6,29.4z"/>
	<path fill="#A2E1F3" d="M1629.4,41.3c-0.1,0-0.2,0-0.2,0.1l-10.8-9.4c0,0,0-0.1,0-0.1c0-0.4-0.4-0.8-0.8-0.8
		c-0.4,0-0.8,0.4-0.8,0.8s0.4,0.8,0.8,0.8c0.1,0,0.2,0,0.2-0.1l10.8,9.4c0,0,0,0.1,0,0.1c0,0.4,0.4,0.8,0.8,0.8
		c0.4,0,0.8-0.4,0.8-0.8S1629.8,41.3,1629.4,41.3z"/>
</g>
<g>
	<path fill-rule="evenodd" fill="#A2E1F3" d="M14.6,11.8h3L3.2,29.9h1.7L19.3,48h-4.7L0.2,29.9L14.6,11.8z"/>
	<g>
		<path id="_x3C_Path_x3E__opacity:30" fill="#A2E1F3" d="M10.3,29.9h4L28.7,48h-4L10.3,29.9z"/>
		<path fill="#A2E1F3" d="M28.7,11.8h-4L10.3,29.9h4L28.7,11.8z"/>
	</g>
</g>
<path id="_x3C_Compound_Path_x3E__opacity:30" fill="#A2E1F3" d="M1551.5,11.8V17l-2.5,1v22.9l2.5,1V48H0.5V11.8L1551.5,11.8
	 M1552,11.3h-0.5l-1551,0H0v0.5V48v0.5h0.5h1551h0.5V48v-6.2v-0.3l-0.3-0.1l-2.2-0.9V18.3l2.2-0.9l0.3-0.1V17v-5.2V11.3L1552,11.3z"
	/>
<g>
	<path fill="#A2E1F3" d="M1651.6,8.2c0,0-0.1,0.2-0.2,0.2c-0.1,0-0.1,0.1-0.2,0.1h-0.4c-0.1,0-0.1,0-0.2-0.1c-0.1,0-0.2-0.2-0.2-0.2
		c0,0-0.1-0.1-0.1-0.1l0.2-0.1c0,0.1,0.2,0.2,0.2,0.3c0,0,0,0,0,0h0.4c0,0,0,0,0.1,0c0.1,0,0.1-0.1,0.2-0.2c0,0,0,0,0-0.1V7.7
		c0,0,0,0,0-0.1c0-0.1-0.1-0.1-0.2-0.2c0,0,0,0-0.1,0h-0.4V7.3h0.4c0,0,0,0,0.1,0c0.1,0,0.1-0.1,0.2-0.2c0,0,0,0,0-0.1V6.8
		c0,0,0,0,0-0.1c0-0.1-0.1-0.1-0.2-0.2c0,0,0,0-0.1,0h-0.4c0,0,0,0,0,0c-0.1,0-0.2,0.2-0.2,0.3l-0.2-0.1c0,0,0.1-0.1,0.1-0.1
		c0-0.1,0.1-0.2,0.2-0.2c0,0,0.1-0.1,0.2-0.1h0.4c0.1,0,0.2,0,0.2,0.1c0,0,0.2,0.1,0.2,0.2c0,0.1,0.1,0.1,0.1,0.2v0.3
		c0,0.1,0,0.1-0.1,0.2c0,0-0.1,0.1-0.1,0.1c0,0,0.1,0.1,0.1,0.1c0,0.1,0.1,0.1,0.1,0.2V8C1651.7,8.1,1651.7,8.2,1651.6,8.2z"/>
	<path fill="#A2E1F3" d="M1652.2,8.5V8.2h0.3v0.3H1652.2z"/>
	<path fill="#A2E1F3" d="M1654.2,8.2c0,0-0.1,0.2-0.2,0.2c-0.1,0-0.1,0.1-0.2,0.1h-0.4c-0.1,0-0.2,0-0.2-0.1c0,0-0.2-0.1-0.2-0.2
		c0-0.1-0.1-0.1-0.1-0.2V6.8c0-0.1,0-0.1,0.1-0.2c0,0,0.1-0.2,0.2-0.2c0.1,0,0.1-0.1,0.2-0.1h0.4c0.1,0,0.2,0,0.2,0.1
		c0,0,0.2,0.1,0.2,0.2c0,0.1,0.1,0.1,0.1,0.2V8C1654.2,8.1,1654.2,8.2,1654.2,8.2z M1654,6.8C1654,6.8,1654,6.7,1654,6.8
		c0-0.1-0.1-0.2-0.2-0.2c0,0,0,0-0.1,0h-0.4c0,0,0,0-0.1,0c-0.1,0-0.1,0.1-0.2,0.2c0,0,0,0,0,0.1V8c0,0,0,0,0,0.1
		c0,0.1,0.1,0.1,0.2,0.2c0,0,0,0,0.1,0h0.4c0,0,0,0,0.1,0c0.1,0,0.1-0.1,0.2-0.2c0,0,0,0,0-0.1V6.8z"/>
	<path fill="#A2E1F3" d="M1656.3,8.5h-0.3l-0.7-2.1h0.2l0.6,1.9h0l0.6-1.9h0.2L1656.3,8.5z"/>
	<path fill="#A2E1F3" d="M1657.4,8.5V6.4h1.2v0.2h-1v0.8h1v0.2h-1v0.8h1v0.2H1657.4z"/>
	<path fill="#A2E1F3" d="M1660.4,7.3c0,0-0.1,0.1-0.2,0.2c-0.1,0-0.1,0.1-0.2,0.1l0.5,0.9h-0.2l-0.5-0.9h-0.5v0.9h-0.2V6.4h0.9
		c0.1,0,0.2,0,0.2,0.1c0,0,0.2,0.1,0.2,0.2c0,0.1,0.1,0.1,0.1,0.2v0.3C1660.5,7.2,1660.5,7.2,1660.4,7.3z M1660.3,6.8
		C1660.3,6.8,1660.3,6.8,1660.3,6.8c0-0.1-0.1-0.2-0.2-0.2c0,0,0,0-0.1,0h-0.7v0.8h0.7c0,0,0,0,0.1,0c0.1,0,0.1-0.1,0.2-0.2
		c0,0,0,0,0-0.1V6.8z"/>
	<path fill="#A2E1F3" d="M1662.5,8.2c0,0.1-0.2,0.2-0.2,0.2c0,0-0.1,0.1-0.2,0.1h-0.6c-0.1,0-0.1,0-0.2-0.1c-0.1,0-0.2-0.2-0.2-0.2
		c0,0-0.1-0.1-0.1-0.1l0.2-0.1c0,0,0,0,0,0c0,0.1,0.2,0.2,0.2,0.2c0,0,0,0,0,0h0.6c0,0,0,0,0,0c0.1,0,0.2-0.1,0.2-0.2c0,0,0,0,0,0
		V7.8c0-0.1,0-0.1-0.1-0.2l-1-0.3c-0.1,0-0.2-0.2-0.2-0.3V6.8c0-0.1,0-0.1,0-0.2c0-0.1,0.2-0.2,0.2-0.2c0,0,0.1-0.1,0.2-0.1h0.5
		c0.1,0,0.1,0,0.2,0.1c0.1,0,0.2,0.2,0.2,0.2c0,0,0.1,0.1,0.1,0.1l-0.2,0.1c0,0,0,0,0,0c0-0.1-0.2-0.2-0.2-0.2c0,0,0,0,0,0h-0.5
		c0,0,0,0,0,0c-0.1,0-0.2,0.1-0.2,0.2c0,0,0,0,0,0V7c0,0.1,0,0.1,0.1,0.2l1,0.3c0.1,0,0.2,0.2,0.2,0.3V8
		C1662.5,8.1,1662.5,8.1,1662.5,8.2z"/>
	<path fill="#A2E1F3" d="M1663,8.5V6.4h0.2v2.1H1663z"/>
	<path fill="#A2E1F3" d="M1665.1,8.2c0,0.1-0.2,0.2-0.2,0.2c0,0-0.1,0.1-0.2,0.1h-0.6c-0.1,0-0.1,0-0.2-0.1c-0.1,0-0.2-0.2-0.2-0.2
		c0,0,0-0.1,0-0.2V6.8c0-0.1,0-0.1,0-0.2c0-0.1,0.2-0.2,0.2-0.2c0,0,0.1-0.1,0.2-0.1h0.6c0.1,0,0.1,0,0.2,0.1c0.1,0,0.2,0.2,0.2,0.2
		c0,0,0,0.1,0,0.2V8C1665.2,8.1,1665.2,8.1,1665.1,8.2z M1665,6.8C1665,6.8,1665,6.8,1665,6.8c-0.1-0.1-0.2-0.2-0.2-0.3c0,0,0,0,0,0
		h-0.5c0,0,0,0,0,0c-0.1,0-0.2,0.1-0.2,0.2c0,0,0,0,0,0.1V8c0,0,0,0,0,0c0,0.1,0.2,0.2,0.2,0.2c0,0,0,0,0,0h0.5c0,0,0,0,0,0
		c0.1,0,0.2-0.1,0.2-0.2c0,0,0,0,0,0V6.8z"/>
	<path fill="#A2E1F3" d="M1666.8,8.5l-0.9-1.8v1.8h-0.2V6.4h0.3l0.9,1.8V6.4h0.2v2.1H1666.8z"/>
</g>
</svg>
