<?xml version="1.0" encoding="utf-8"?>
<!-- Generator: Adobe Illustrator 25.4.1, SVG Export Plug-In . SVG Version: 6.00 Build 0)  -->
<svg version="1.1" baseProfile="tiny" id="Layer_1" xmlns="http://www.w3.org/2000/svg" xmlns:xlink="http://www.w3.org/1999/xlink"
	 x="0px" y="0px" viewBox="0 0 1920 1080" overflow="visible" xml:space="preserve">
<path fill="#FFFFFF" d="M1919.8,0v3c-1.5-0.1-2.8-1.4-2.8-3h-0.5c0,1.8,1.4,3.4,3.2,3.5v173c-1.7,0.1-3.1,1.5-3.2,3.2h-313
	c-0.1-1.7-1.5-3.1-3.2-3.2V3.5c1.8-0.1,3.2-1.6,3.2-3.5h-0.5c0,1.6-1.2,2.8-2.7,3V0h-0.5v3c-1.5-0.1-2.7-1.4-2.7-3h-0.5
	c0,1.8,1.4,3.3,3.2,3.5v173c-1.7,0.1-3.1,1.5-3.2,3.2h-313c-0.1-1.7-1.5-3.1-3.2-3.2V3.5c1.8-0.1,3.2-1.6,3.2-3.5h-0.5
	c0,1.6-1.2,2.8-2.7,3V0h-0.5v3c-1.5-0.1-2.7-1.4-2.7-3h-0.5c0,1.8,1.4,3.3,3.2,3.5v173c-1.7,0.1-3.1,1.5-3.2,3.2h-313
	c-0.1-1.7-1.5-3.1-3.2-3.2V3.5c1.8-0.1,3.2-1.6,3.2-3.5H963c0,1.6-1.2,2.8-2.8,3V0h-0.5v3c-1.5-0.1-2.7-1.4-2.7-3h-0.5
	c0,1.8,1.4,3.3,3.2,3.5v173c-1.7,0.1-3.1,1.5-3.2,3.2h-313c-0.1-1.7-1.5-3.1-3.2-3.2V3.5c1.8-0.1,3.2-1.6,3.2-3.5H643
	c0,1.6-1.2,2.8-2.7,3V0h-0.5v3c-1.5-0.1-2.7-1.4-2.7-3h-0.5c0,1.8,1.4,3.3,3.2,3.5v173c-1.7,0.1-3.1,1.5-3.2,3.2h-313
	c-0.1-1.7-1.5-3.1-3.2-3.2V3.5c1.8-0.1,3.2-1.6,3.2-3.5H323c0,1.6-1.2,2.8-2.7,3V0h-0.5v3c-1.5-0.1-2.7-1.4-2.7-3h-0.5
	c0,1.8,1.4,3.3,3.2,3.5v173c-1.7,0.1-3.1,1.5-3.2,3.2H0v0.5h316.5c0.1,1.7,1.5,3.1,3.2,3.2v173c-1.7,0.1-3.1,1.5-3.2,3.2H0v0.5
	h316.5c0.1,1.7,1.5,3.1,3.2,3.2v173c-1.7,0.1-3.1,1.5-3.2,3.2H0v0.5h316.5c0.1,1.7,1.5,3.1,3.2,3.2v173c-1.7,0.1-3.1,1.5-3.2,3.2H0
	v0.5h316.5c0.1,1.7,1.5,3.1,3.2,3.2v173c-1.7,0.1-3.1,1.5-3.2,3.2H0v0.5h316.5c0.1,1.7,1.5,3.1,3.2,3.2v173
	c-1.7,0.1-3.1,1.5-3.2,3.2H3.5c-0.1-1.8-1.6-3.2-3.5-3.2v0.5c1.6,0,2.9,1.2,3,2.8H0v0.5h1920v-0.2h0.2V0H1919.8z M319.8,1079.8H317
	c0.1-1.4,1.3-2.6,2.7-2.7V1079.8z M319.8,903c-1.5-0.1-2.6-1.3-2.7-2.7h2.7V903z M319.8,899.8H317c0.1-1.5,1.3-2.6,2.7-2.7V899.8z
	 M319.8,723c-1.5-0.1-2.6-1.3-2.7-2.7h2.7V723z M319.8,719.8H317c0.1-1.5,1.3-2.6,2.7-2.7V719.8z M319.8,543
	c-1.5-0.1-2.6-1.3-2.7-2.7h2.7V543z M319.8,539.8H317c0.1-1.5,1.3-2.6,2.7-2.7V539.8z M319.8,363c-1.5-0.1-2.6-1.3-2.7-2.7h2.7V363z
	 M319.8,359.8H317c0.1-1.5,1.3-2.6,2.7-2.7V359.8z M319.8,183c-1.5-0.1-2.6-1.3-2.7-2.7h2.7V183z M319.8,179.8H317
	c0.1-1.5,1.3-2.6,2.7-2.7V179.8z M320.2,177c1.5,0.1,2.6,1.3,2.7,2.7h-2.7V177z M320.2,180.2h2.7c-0.1,1.5-1.3,2.6-2.7,2.7V180.2z
	 M320.2,357c1.5,0.1,2.6,1.3,2.7,2.7h-2.7V357z M320.2,360.2h2.7c-0.1,1.5-1.3,2.6-2.7,2.7V360.2z M320.2,537
	c1.5,0.1,2.6,1.3,2.7,2.7h-2.7V537z M320.2,540.2h2.7c-0.1,1.5-1.3,2.6-2.7,2.7V540.2z M320.2,717c1.5,0.1,2.6,1.3,2.7,2.7h-2.7V717
	z M320.2,720.2h2.7c-0.1,1.5-1.3,2.6-2.7,2.7V720.2z M320.2,897c1.5,0.1,2.6,1.3,2.7,2.7h-2.7V897z M320.2,900.2h2.7
	c-0.1,1.5-1.3,2.6-2.7,2.7V900.2z M320.2,1079.8v-2.7c1.5,0.1,2.6,1.3,2.7,2.7H320.2z M639.8,1079.8H637c0.1-1.4,1.3-2.6,2.7-2.7
	V1079.8z M639.8,1076.5c-1.7,0.1-3.1,1.5-3.2,3.2h-313c-0.1-1.7-1.5-3.1-3.2-3.2v-173c1.7-0.1,3.1-1.5,3.2-3.2h313
	c0.1,1.7,1.5,3.1,3.2,3.2V1076.5z M639.8,903c-1.5-0.1-2.6-1.3-2.7-2.7h2.7V903z M639.8,899.8H637c0.1-1.5,1.3-2.6,2.7-2.7V899.8z
	 M639.8,896.5c-1.7,0.1-3.1,1.5-3.2,3.2h-313c-0.1-1.7-1.5-3.1-3.2-3.2v-173c1.7-0.1,3.1-1.5,3.2-3.2h313c0.1,1.7,1.5,3.1,3.2,3.2
	V896.5z M639.8,723c-1.5-0.1-2.6-1.3-2.7-2.7h2.7V723z M639.8,719.8H637c0.1-1.5,1.3-2.6,2.7-2.7V719.8z M639.8,716.5
	c-1.7,0.1-3.1,1.5-3.2,3.2h-313c-0.1-1.7-1.5-3.1-3.2-3.2v-173c1.7-0.1,3.1-1.5,3.2-3.2h313c0.1,1.7,1.5,3.1,3.2,3.2V716.5z
	 M639.8,543c-1.5-0.1-2.6-1.3-2.7-2.7h2.7V543z M639.8,539.8H637c0.1-1.5,1.3-2.6,2.7-2.7V539.8z M639.8,536.5
	c-1.7,0.1-3.1,1.5-3.2,3.2h-313c-0.1-1.7-1.5-3.1-3.2-3.2v-173c1.7-0.1,3.1-1.5,3.2-3.2h313c0.1,1.7,1.5,3.1,3.2,3.2V536.5z
	 M639.8,363c-1.5-0.1-2.6-1.3-2.7-2.7h2.7V363z M639.8,359.8H637c0.1-1.5,1.3-2.6,2.7-2.7V359.8z M639.8,356.5
	c-1.7,0.1-3.1,1.5-3.2,3.2h-313c-0.1-1.7-1.5-3.1-3.2-3.2v-173c1.7-0.1,3.1-1.5,3.2-3.2h313c0.1,1.7,1.5,3.1,3.2,3.2V356.5z
	 M639.8,183c-1.5-0.1-2.6-1.3-2.7-2.7h2.7V183z M639.8,179.8H637c0.1-1.5,1.3-2.6,2.7-2.7V179.8z M640.2,177
	c1.5,0.1,2.6,1.3,2.7,2.7h-2.7V177z M640.2,180.2h2.7c-0.1,1.5-1.3,2.6-2.7,2.7V180.2z M640.2,357c1.5,0.1,2.6,1.3,2.7,2.7h-2.7V357
	z M640.2,360.2h2.7c-0.1,1.5-1.3,2.6-2.7,2.7V360.2z M640.2,537c1.5,0.1,2.6,1.3,2.7,2.7h-2.7V537z M640.2,540.2h2.7
	c-0.1,1.5-1.3,2.6-2.7,2.7V540.2z M640.2,717c1.5,0.1,2.6,1.3,2.7,2.7h-2.7V717z M640.2,720.2h2.7c-0.1,1.5-1.3,2.6-2.7,2.7V720.2z
	 M640.2,897c1.5,0.1,2.6,1.3,2.7,2.7h-2.7V897z M640.2,900.2h2.7c-0.1,1.5-1.3,2.6-2.7,2.7V900.2z M640.2,1079.8v-2.7
	c1.5,0.1,2.6,1.3,2.7,2.7H640.2z M959.8,1079.8H957c0.1-1.4,1.3-2.6,2.7-2.7V1079.8z M959.8,1076.5c-1.7,0.1-3.1,1.5-3.2,3.2h-313
	c-0.1-1.7-1.5-3.1-3.2-3.2v-173c1.7-0.1,3.1-1.5,3.2-3.2h313c0.1,1.7,1.5,3.1,3.2,3.2V1076.5z M959.8,903c-1.5-0.1-2.6-1.3-2.7-2.7
	h2.7V903z M959.8,899.8H957c0.1-1.5,1.3-2.6,2.7-2.7V899.8z M959.8,896.5c-1.7,0.1-3.1,1.5-3.2,3.2h-313c-0.1-1.7-1.5-3.1-3.2-3.2
	v-173c1.7-0.1,3.1-1.5,3.2-3.2h313c0.1,1.7,1.5,3.1,3.2,3.2V896.5z M959.8,723c-1.5-0.1-2.6-1.3-2.7-2.7h2.7V723z M959.8,719.8H957
	c0.1-1.5,1.3-2.6,2.7-2.7V719.8z M959.8,716.5c-1.7,0.1-3.1,1.5-3.2,3.2h-313c-0.1-1.7-1.5-3.1-3.2-3.2v-173
	c1.7-0.1,3.1-1.5,3.2-3.2h313c0.1,1.7,1.5,3.1,3.2,3.2V716.5z M959.8,543c-1.5-0.1-2.6-1.3-2.7-2.7h2.7V543z M959.8,539.8H957
	c0.1-1.5,1.3-2.6,2.7-2.7V539.8z M959.8,536.5c-1.7,0.1-3.1,1.5-3.2,3.2h-313c-0.1-1.7-1.5-3.1-3.2-3.2v-173
	c1.7-0.1,3.1-1.5,3.2-3.2h313c0.1,1.7,1.5,3.1,3.2,3.2V536.5z M959.8,363c-1.5-0.1-2.6-1.3-2.7-2.7h2.7V363z M959.8,359.8H957
	c0.1-1.5,1.3-2.6,2.7-2.7V359.8z M959.8,356.5c-1.7,0.1-3.1,1.5-3.2,3.2h-313c-0.1-1.7-1.5-3.1-3.2-3.2v-173
	c1.7-0.1,3.1-1.5,3.2-3.2h313c0.1,1.7,1.5,3.1,3.2,3.2V356.5z M959.8,183c-1.5-0.1-2.6-1.3-2.7-2.7h2.7V183z M959.8,179.8H957
	c0.1-1.5,1.3-2.6,2.7-2.7V179.8z M960.2,177c1.5,0.1,2.6,1.3,2.7,2.7h-2.7V177z M960.2,180.2h2.7c-0.1,1.5-1.3,2.6-2.7,2.7V180.2z
	 M960.2,357c1.5,0.1,2.6,1.3,2.7,2.7h-2.7V357z M960.2,360.2h2.7c-0.1,1.5-1.3,2.6-2.7,2.7V360.2z M960.2,537
	c1.5,0.1,2.6,1.3,2.7,2.7h-2.7V537z M960.2,540.2h2.7c-0.1,1.5-1.3,2.6-2.7,2.7V540.2z M960.2,717c1.5,0.1,2.6,1.3,2.7,2.7h-2.7V717
	z M960.2,720.2h2.7c-0.1,1.5-1.3,2.6-2.7,2.7V720.2z M960.2,897c1.5,0.1,2.6,1.3,2.7,2.7h-2.7V897z M960.2,900.2h2.7
	c-0.1,1.5-1.3,2.6-2.7,2.7V900.2z M960.2,1079.8v-2.7c1.5,0.1,2.6,1.3,2.7,2.7H960.2z M1279.8,1079.8h-2.7c0.1-1.4,1.3-2.6,2.7-2.7
	V1079.8z M1279.8,1076.5c-1.7,0.1-3.1,1.5-3.2,3.2h-313c-0.1-1.7-1.5-3.1-3.2-3.2v-173c1.7-0.1,3.1-1.5,3.2-3.2h313
	c0.1,1.7,1.5,3.1,3.2,3.2V1076.5z M1279.8,903c-1.4-0.1-2.6-1.3-2.7-2.7h2.7V903z M1279.8,899.8h-2.7c0.1-1.5,1.3-2.6,2.7-2.7V899.8
	z M1279.8,896.5c-1.7,0.1-3.1,1.5-3.2,3.2h-313c-0.1-1.7-1.5-3.1-3.2-3.2v-173c1.7-0.1,3.1-1.5,3.2-3.2h313c0.1,1.7,1.5,3.1,3.2,3.2
	V896.5z M1279.8,723c-1.4-0.1-2.6-1.3-2.7-2.7h2.7V723z M1279.8,719.8h-2.7c0.1-1.5,1.3-2.6,2.7-2.7V719.8z M1279.8,716.5
	c-1.7,0.1-3.1,1.5-3.2,3.2h-313c-0.1-1.7-1.5-3.1-3.2-3.2v-173c1.7-0.1,3.1-1.5,3.2-3.2h313c0.1,1.7,1.5,3.1,3.2,3.2V716.5z
	 M1279.8,543c-1.4-0.1-2.6-1.3-2.7-2.7h2.7V543z M1279.8,539.8h-2.7c0.1-1.5,1.3-2.6,2.7-2.7V539.8z M1279.8,536.5
	c-1.7,0.1-3.1,1.5-3.2,3.2h-313c-0.1-1.7-1.5-3.1-3.2-3.2v-173c1.7-0.1,3.1-1.5,3.2-3.2h313c0.1,1.7,1.5,3.1,3.2,3.2V536.5z
	 M1279.8,363c-1.4-0.1-2.6-1.3-2.7-2.7h2.7V363z M1279.8,359.8h-2.7c0.1-1.5,1.3-2.6,2.7-2.7V359.8z M1279.8,356.5
	c-1.7,0.1-3.1,1.5-3.2,3.2h-313c-0.1-1.7-1.5-3.1-3.2-3.2v-173c1.7-0.1,3.1-1.5,3.2-3.2h313c0.1,1.7,1.5,3.1,3.2,3.2V356.5z
	 M1279.8,183c-1.4-0.1-2.6-1.3-2.7-2.7h2.7V183z M1279.8,179.8h-2.7c0.1-1.5,1.3-2.6,2.7-2.7V179.8z M1280.2,177
	c1.4,0.1,2.6,1.3,2.7,2.7h-2.7V177z M1280.2,180.2h2.7c-0.1,1.5-1.3,2.6-2.7,2.7V180.2z M1280.2,357c1.4,0.1,2.6,1.3,2.7,2.7h-2.7
	V357z M1280.2,360.2h2.7c-0.1,1.5-1.3,2.6-2.7,2.7V360.2z M1280.2,537c1.4,0.1,2.6,1.3,2.7,2.7h-2.7V537z M1280.2,540.2h2.7
	c-0.1,1.5-1.3,2.6-2.7,2.7V540.2z M1280.2,717c1.4,0.1,2.6,1.3,2.7,2.7h-2.7V717z M1280.2,720.2h2.7c-0.1,1.5-1.3,2.6-2.7,2.7V720.2
	z M1280.2,897c1.4,0.1,2.6,1.3,2.7,2.7h-2.7V897z M1280.2,900.2h2.7c-0.1,1.5-1.3,2.6-2.7,2.7V900.2z M1280.2,1079.8v-2.7
	c1.4,0.1,2.6,1.3,2.7,2.7H1280.2z M1599.8,1079.8h-2.7c0.1-1.4,1.3-2.6,2.7-2.7V1079.8z M1599.8,1076.5c-1.7,0.1-3.1,1.5-3.2,3.2
	h-313c-0.1-1.7-1.5-3.1-3.2-3.2v-173c1.7-0.1,3.1-1.5,3.2-3.2h313c0.1,1.7,1.5,3.1,3.2,3.2V1076.5z M1599.8,903
	c-1.4-0.1-2.6-1.3-2.7-2.7h2.7V903z M1599.8,899.8h-2.7c0.1-1.5,1.3-2.6,2.7-2.7V899.8z M1599.8,896.5c-1.7,0.1-3.1,1.5-3.2,3.2
	h-313c-0.1-1.7-1.5-3.1-3.2-3.2v-173c1.7-0.1,3.1-1.5,3.2-3.2h313c0.1,1.7,1.5,3.1,3.2,3.2V896.5z M1599.8,723
	c-1.4-0.1-2.6-1.3-2.7-2.7h2.7V723z M1599.8,719.8h-2.7c0.1-1.5,1.3-2.6,2.7-2.7V719.8z M1599.8,716.5c-1.7,0.1-3.1,1.5-3.2,3.2
	h-313c-0.1-1.7-1.5-3.1-3.2-3.2v-173c1.7-0.1,3.1-1.5,3.2-3.2h313c0.1,1.7,1.5,3.1,3.2,3.2V716.5z M1599.8,543
	c-1.4-0.1-2.6-1.3-2.7-2.7h2.7V543z M1599.8,539.8h-2.7c0.1-1.5,1.3-2.6,2.7-2.7V539.8z M1599.8,536.5c-1.7,0.1-3.1,1.5-3.2,3.2
	h-313c-0.1-1.7-1.5-3.1-3.2-3.2v-173c1.7-0.1,3.1-1.5,3.2-3.2h313c0.1,1.7,1.5,3.1,3.2,3.2V536.5z M1599.8,363
	c-1.4-0.1-2.6-1.3-2.7-2.7h2.7V363z M1599.8,359.8h-2.7c0.1-1.5,1.3-2.6,2.7-2.7V359.8z M1599.8,356.5c-1.7,0.1-3.1,1.5-3.2,3.2
	h-313c-0.1-1.7-1.5-3.1-3.2-3.2v-173c1.7-0.1,3.1-1.5,3.2-3.2h313c0.1,1.7,1.5,3.1,3.2,3.2V356.5z M1599.8,183
	c-1.4-0.1-2.6-1.3-2.7-2.7h2.7V183z M1599.8,179.8h-2.7c0.1-1.5,1.3-2.6,2.7-2.7V179.8z M1600.2,177c1.4,0.1,2.6,1.3,2.7,2.7h-2.7
	V177z M1600.2,180.2h2.7c-0.1,1.5-1.3,2.6-2.7,2.7V180.2z M1600.2,357c1.4,0.1,2.6,1.3,2.7,2.7h-2.7V357z M1600.2,360.2h2.7
	c-0.1,1.5-1.3,2.6-2.7,2.7V360.2z M1600.2,537c1.4,0.1,2.6,1.3,2.7,2.7h-2.7V537z M1600.2,540.2h2.7c-0.1,1.5-1.3,2.6-2.7,2.7V540.2
	z M1600.2,717c1.4,0.1,2.6,1.3,2.7,2.7h-2.7V717z M1600.2,720.2h2.7c-0.1,1.5-1.3,2.6-2.7,2.7V720.2z M1600.2,897
	c1.4,0.1,2.6,1.3,2.7,2.7h-2.7V897z M1600.2,900.2h2.7c-0.1,1.5-1.3,2.6-2.7,2.7V900.2z M1600.2,1079.8v-2.7
	c1.4,0.1,2.6,1.3,2.7,2.7H1600.2z M1919.8,1079.8h-2.5c0.2-1.3,1.2-2.4,2.5-2.6V1079.8z M1919.8,1076.7c-1.6,0.2-2.8,1.5-3,3.1
	h-313.2c-0.1-1.7-1.5-3.1-3.2-3.2v-173c1.7-0.1,3.1-1.5,3.2-3.2h313c0.1,1.7,1.5,3.1,3.2,3.2V1076.7z M1919.8,903
	c-1.4-0.1-2.6-1.3-2.7-2.7h2.7V903z M1919.8,899.8h-2.7c0.1-1.5,1.3-2.6,2.7-2.7V899.8z M1919.8,896.5c-1.7,0.1-3.1,1.5-3.2,3.2
	h-313c-0.1-1.7-1.5-3.1-3.2-3.2v-173c1.7-0.1,3.1-1.5,3.2-3.2h313c0.1,1.7,1.5,3.1,3.2,3.2V896.5z M1919.8,723
	c-1.4-0.1-2.6-1.3-2.7-2.7h2.7V723z M1919.8,719.8h-2.7c0.1-1.5,1.3-2.6,2.7-2.7V719.8z M1919.8,716.5c-1.7,0.1-3.1,1.5-3.2,3.2
	h-313c-0.1-1.7-1.5-3.1-3.2-3.2v-173c1.7-0.1,3.1-1.5,3.2-3.2h313c0.1,1.7,1.5,3,3.2,3.2V716.5z M1919.8,542.9
	c-1.4-0.1-2.6-1.2-2.7-2.7h2.7V542.9z M1919.8,539.8h-2.7c0.1-1.5,1.3-2.7,2.7-2.8V539.8z M1919.8,536.5c-1.8,0.1-3.2,1.5-3.2,3.3
	h-313c-0.1-1.7-1.5-3.1-3.2-3.2v-173c1.7-0.1,3.1-1.5,3.2-3.2h313c0.1,1.7,1.5,3,3.2,3.2V536.5z M1919.8,362.9
	c-1.4-0.1-2.6-1.2-2.7-2.7h2.7V362.9z M1919.8,359.8h-2.7c0.1-1.5,1.3-2.7,2.7-2.8V359.8z M1919.8,356.5c-1.8,0.1-3.2,1.5-3.2,3.3
	h-313c-0.1-1.7-1.5-3.1-3.2-3.2v-173c1.7-0.1,3.1-1.5,3.2-3.2h313c0.1,1.7,1.5,3.1,3.2,3.2V356.5z M1919.8,183
	c-1.4-0.1-2.6-1.3-2.7-2.7h2.7V183z M1919.8,179.8h-2.7c0.1-1.5,1.3-2.6,2.7-2.7V179.8z"/>
<path fill="#FFFFFF" d="M0,3v0.5c1.9,0,3.5-1.6,3.5-3.5H3C3,1.7,1.7,3,0,3z"/>
</svg>
