<?xml version="1.0" encoding="utf-8"?>
<!-- Generator: Adobe Illustrator 25.4.1, SVG Export Plug-In . SVG Version: 6.00 Build 0)  -->
<svg version="1.1" baseProfile="tiny" id="Layer_1" xmlns="http://www.w3.org/2000/svg" xmlns:xlink="http://www.w3.org/1999/xlink"
	 x="0px" y="0px" viewBox="0 0 237.8 237.7" overflow="visible" xml:space="preserve">
<path fill="#FFFFFF" d="M169.6,67.2l0.7,14.9l-6.9,78.5c0.1,3.8-1,5.9-1,5.9l-5.7,8.9l-3.8-7.4l-1.1-5.1l3.1-4.1l-1.7-12.7
	c0,0-14.6-4.5-15.2-4.9l-1,1.6l-0.6,3l4.8,26.2c0,0,0.5,3.3-1.8,5.7l-4.6,8.1l-15.5-28.1l-1.4-3l9.6-14.8l1.3-10.2l-1.7-5.4
	l-1.3,1.4l-4.7,4.9c0.6-0.8,1.9-3.4-3.6-7.2c-5.1-4.2-7.3-2.4-7.9-1.6l3.4-5.9l1-1.6l-5.6-0.2l-9.5,4l-11.7,13.2l-3.2-0.5l-31.2-7.5
	l6.5-6.6c1.7-2.8,5-3.2,5-3.2l26.5-2.4l2.7-1.3l1.3-1.4c-0.5-0.4-8.8-13.3-8.8-13.3l-12.7,1.7l-3.1,4.1l-5.2,0.3l-8.1-1.7l7.1-7.9
	c0,0,1.7-1.7,5.4-2.6l73.8-27.6l14.5-3.3l11-6.2l2,1.5l2,1.5L169.6,67.2z M112.1,132.1L112.1,132.1
	C112.1,132.1,112.1,132.1,112.1,132.1C112,132,112,132,112,132c-1.3-0.8-13.1-6.4-31.1,39.8C121.5,143.3,113.2,133.2,112.1,132.1z
	 M217.9,66.5v15.2h-4.2v18.4h-1V81.6H209V70.2c0-6.2-2.4-12-6.8-16.4L184,35.6c-4.3-4.3-10.2-6.8-16.4-6.8h-11.5v-3.7h-18.2v-1h18.2
	v-4.2h15.2c6.2,0,12,2.4,16.4,6.8l23.5,23.4C215.5,54.4,217.9,60.3,217.9,66.5z M90.7,24.1v-4.2H75.5c-6.2,0-12,2.4-16.4,6.8
	L35.7,50.1c-4.3,4.3-6.8,10.2-6.8,16.4v15.2h4v18.4h1V81.6h3.9V70.2c0-6.2,2.4-12,6.8-16.4l18.2-18.2c4.3-4.3,10.2-6.8,16.4-6.8
	h11.5v-3.7h18.4v-1H90.7z M213.7,147.1v-18.2h-1v18.2H209v11.5c0,6.2-2.4,12-6.8,16.4L184,193.1c-4.3,4.3-10.2,6.8-16.4,6.8h-11.5v4
	h-18.2v1h18.2v4h15.2c6.2,0,12-2.4,16.4-6.8l23.5-23.4c4.3-4.3,6.8-10.2,6.8-16.4v-15.2H213.7z M90.7,203.9v-4H79.2
	c-6.2,0-12-2.4-16.4-6.8l-18.2-18.2c-4.3-4.4-6.8-10.2-6.8-16.4v-11.5h-3.9v-18.2h-1v18.2h-4v15.2c0,6.2,2.4,12,6.8,16.4l23.5,23.4
	c4.3,4.4,10.2,6.8,16.4,6.8h15.2v-4h18.4v-1H90.7z M124.9,199.8h-3v37.8h3V199.8z M124.9,0h-3v37.8h3V0z M237.8,112.9h-37.8v3h37.8
	V112.9z M37.8,112.9H0v3h37.8V112.9z"/>
</svg>
