<?xml version="1.0" encoding="utf-8"?>
<!-- Generator: Adobe Illustrator 25.0.0, SVG Export Plug-In . SVG Version: 6.00 Build 0)  -->
<svg version="1.1" baseProfile="tiny" id="Layer_1" xmlns="http://www.w3.org/2000/svg" xmlns:xlink="http://www.w3.org/1999/xlink"
	 x="0px" y="0px" width="117px" height="117px" viewBox="0 0 117 117" overflow="visible" xml:space="preserve">
<polygon points="63.5,29.088 63.5,27.588 59.25,27.588 59.25,19.044 61,19.044 61,17.544 59.25,17.544 59.25,8.25 57.75,8.25 
	57.75,17.544 56,17.544 56,19.044 57.75,19.044 57.75,27.588 53.5,27.588 53.5,29.088 57.75,29.088 57.75,37.633 56,37.633 
	56,39.133 57.75,39.133 57.75,47.677 53.5,47.677 53.5,49.177 57.75,49.177 57.75,67.765 53.5,67.765 53.5,69.265 57.75,69.265 
	57.75,77.81 56,77.81 56,79.31 57.75,79.31 57.75,87.854 53.5,87.854 53.5,89.354 57.75,89.354 57.75,97.898 56,97.898 56,99.398 
	57.75,99.398 57.75,108.75 59.25,108.75 59.25,99.398 61,99.398 61,97.898 59.25,97.898 59.25,89.354 63.5,89.354 63.5,87.854 
	59.25,87.854 59.25,79.31 61,79.31 61,77.81 59.25,77.81 59.25,69.265 63.5,69.265 63.5,67.765 59.25,67.765 59.25,49.177 
	63.5,49.177 63.5,47.677 59.25,47.677 59.25,39.133 61,39.133 61,37.633 59.25,37.633 59.25,29.088 "/>
</svg>
