<?xml version="1.0" encoding="utf-8"?>
<!-- Generator: Adobe Illustrator 24.3.0, SVG Export Plug-In . SVG Version: 6.00 Build 0)  -->
<svg version="1.1" baseProfile="tiny" id="Layer_1" xmlns="http://www.w3.org/2000/svg" xmlns:xlink="http://www.w3.org/1999/xlink"
	 x="0px" y="0px" viewBox="0 0 855.2 800" overflow="visible" xml:space="preserve">
<g>
	<path fill="#FFFFFF" d="M189,177.3l11.6,11.5c-0.5,0.5-0.9,1-1.4,1.5l-11.6-11.5c-0.3-0.3-0.6-0.5-0.9-0.8c-3.1-2.6-7.1-4-11.2-4
		H32.4c-1.7,0-3.3,0.5-4.6,1.5l-20.1,15l-1.2-1.6l20.1-15c1.7-1.2,3.7-1.9,5.8-1.9h143.2c4.5,0,9,1.6,12.5,4.5
		C188.4,176.7,188.7,177,189,177.3z"/>
</g>
<g>
	<path fill="#FFFFFF" d="M199.7,610.3c0.5,0.5,0.9,1,1.4,1.5L189,623.7c-0.3,0.3-0.6,0.6-1,0.9c-3.5,2.9-7.9,4.5-12.5,4.5H32.4
		c-2.1,0-4.1-0.7-5.8-1.9L6.6,612.2l1.2-1.6l20.1,15c1.3,1,3,1.5,4.6,1.5h143.2c4.1,0,8-1.4,11.2-4c0.3-0.3,0.6-0.5,0.9-0.8
		L199.7,610.3z"/>
</g>
<g>
	<path fill="#FFFFFF" d="M848.7,612.2l-20.1,14.9c-1.7,1.2-3.7,1.9-5.8,1.9H679.6c-4.5,0-8.9-1.6-12.4-4.5c-0.3-0.3-0.7-0.6-1-0.9
		l-12.6-12.5c0.4-0.5,0.9-1,1.3-1.5l12.6,12.5c0.3,0.3,0.6,0.5,0.9,0.8c3.1,2.6,7.1,4,11.2,4h143.2c1.7,0,3.3-0.5,4.6-1.5l20.1-15
		L848.7,612.2z"/>
</g>
<g>
	<path fill="#FFFFFF" d="M848.7,188.8l-1.2,1.6l-20.1-15c-1.3-1-2.9-1.5-4.6-1.5H679.6c-4.1,0-8,1.4-11.2,4
		c-0.3,0.3-0.6,0.5-0.9,0.8l-12.1,12c-0.4-0.5-0.9-1-1.4-1.5l12.1-12c0.3-0.3,0.6-0.6,1-0.9c3.5-2.9,7.9-4.5,12.4-4.5h143.2
		c2.1,0,4.1,0.7,5.8,1.9L848.7,188.8z"/>
</g>
<rect x="3.3" y="188.8" transform="matrix(0.5945 0.8041 -0.8041 0.5945 155.5587 73.0956)" fill="#FFFFFF" width="4" height="4"/>
<rect x="847.9" y="188.8" transform="matrix(-0.5945 0.8041 -0.8041 -0.5945 1508.5861 -379.2346)" fill="#FFFFFF" width="4" height="4"/>
<rect x="3.3" y="608.2" transform="matrix(0.5945 -0.8041 0.8041 0.5945 -488.5369 251.7262)" fill="#FFFFFF" width="4" height="4"/>
<rect x="847.9" y="608.2" transform="matrix(-0.5945 -0.8041 0.8041 -0.5945 864.4905 1656.424)" fill="#FFFFFF" width="4" height="4"/>
</svg>
