<?xml version="1.0" encoding="utf-8"?>
<!-- Generator: Adobe Illustrator 24.3.0, SVG Export Plug-In . SVG Version: 6.00 Build 0)  -->
<svg version="1.1" baseProfile="tiny" xmlns="http://www.w3.org/2000/svg" xmlns:xlink="http://www.w3.org/1999/xlink" x="0px"
	 y="0px" viewBox="0 0 167 483" overflow="visible" xml:space="preserve">
<g id="Layer_1">
	<g display="none">
		<path display="inline" fill="none" stroke="#D62B60" stroke-width="1.2" stroke-miterlimit="10" d="M74.2,70.3
			c19.9-26.2,40.3-47.8,66.7-66.4c0.6-0.4,1.3-0.3,1.7,0.3l2.4,3.4"/>
		<path display="inline" fill="none" stroke="#D1E5E4" stroke-width="1.2" stroke-miterlimit="10" d="M72.3,72.6
			c-21.7,29.2-39.8,62.8-50.7,100.1l-3,10.9c-7,25.3-10.5,50-11.3,77.8C5,346,32.6,422,81.1,478.9c0.5,0.5,1.3,0.6,1.8,0.1l3-2.8"/>
	</g>
	<g>
		<g>
			<path fill="#FFFFFF" d="M89.4,73.7c-22-25.5-49-48.2-80.2-67.5c-0.1-0.1-0.3,0-0.4,0L6,9.6L4,8l2.9-3.4c0.9-1,2.5-1.3,3.7-0.5
				c31.5,19.5,58.7,42.3,80.8,68L89.4,73.7z"/>
		</g>
		<g>
			<path fill="#FFFFFF" d="M71.9,481.2c-0.7,0-1.3-0.2-1.8-0.6l-3.4-2.9l1.6-1.9l3.4,2.9c0.1,0.1,0.3,0.1,0.4,0
				c25.2-24.4,45.6-52.2,60.6-82.7l4-8.5c5.7-12.5,9.9-23.7,13.5-36.1l2.7-9.6c6.8-25.4,9.9-51.2,9.5-78.8
				c-0.4-27.9-4.1-54.5-11.7-79.6l-3.4-11c-11.3-34.8-30.8-66.8-58-98.8l2-1.6c27.4,32.3,47,64.5,58.4,99.7l3.4,11
				c7.7,25.3,11.5,52.2,11.8,80.3c0.4,27.8-2.8,53.8-9.6,79.5l-2.7,9.6c-3.7,12.5-7.9,23.8-13.7,36.4l-4,8.5
				c-15.2,30.7-35.7,58.8-61.1,83.4C73.3,481,72.6,481.2,71.9,481.2z"/>
		</g>
	</g>
</g>
<g id="Layer_2" display="none">
	<g display="inline">
		<path fill="none" stroke="#D1E5E4" stroke-width="2" stroke-miterlimit="10" d="M29.2,85C9.3,58.5-14.2,36.2-40.9,17.2
			c-0.6-0.4-1.3-0.3-1.7,0.3l-2.5,3.4"/>
		<path fill="none" stroke="#D1E5E4" stroke-width="2" stroke-miterlimit="10" d="M29.2,85c21.8,29.5,40.1,63.9,50.7,101.3l2.9,11
			c6.8,25.4,10,50.1,10.3,78c0.3,27.8-2.4,53.7-8.2,79.1l-2.3,9.6c-3.3,12.8-7,24.2-11.8,36.2l-3.5,8.5
			c-13.1,30.7-31,58.6-52.8,82.9c-0.5,0.5-1.3,0.6-1.8,0.1l-3-2.9"/>
	</g>
</g>
</svg>
