<?xml version="1.0" encoding="utf-8"?>
<!-- Generator: Adobe Illustrator 24.3.0, SVG Export Plug-In . SVG Version: 6.00 Build 0)  -->
<svg version="1.1" baseProfile="tiny" id="Layer_1" xmlns="http://www.w3.org/2000/svg" xmlns:xlink="http://www.w3.org/1999/xlink"
	 x="0px" y="0px" viewBox="0 0 317 45" overflow="visible" xml:space="preserve">
<g>
	<g>
		<g>
			<path fill="#FFFFFF" d="M5.7,12h-2c0-3.5,2.8-6.3,6.3-6.3h282.1v2H10C7.7,7.7,5.7,9.6,5.7,12z"/>
		</g>
		<g>
			<path fill="#FFFFFF" d="M307,39.3H10c-3.5,0-6.3-2.8-6.3-6.3h2c0,2.4,1.9,4.3,4.3,4.3H307c2.4,0,4.3-1.9,4.3-4.3V12
				c0-2.4-1.9-4.3-4.3-4.3h-5.6v-2h5.6c3.5,0,6.3,2.8,6.3,6.3v21C313.3,36.5,310.5,39.3,307,39.3z"/>
		</g>
		<circle fill="#FFFFFF" cx="296.8" cy="10.7" r="2"/>
	</g>
	<g>
		<rect x="3.7" y="15.8" fill="#FFFFFF" width="2" height="13.8"/>
	</g>
</g>
</svg>
