<?xml version="1.0" encoding="utf-8"?>
<!-- Generator: Adobe Illustrator 28.6.0, SVG Export Plug-In . SVG Version: 9.03 Build 54939)  -->
<svg version="1.1" baseProfile="tiny" id="Layer_1" xmlns="http://www.w3.org/2000/svg" xmlns:xlink="http://www.w3.org/1999/xlink"
	 x="0px" y="0px" viewBox="0 0 120 120" overflow="visible" xml:space="preserve">
<g>
	<g>
		<g>
			<path fill="#0B1214" d="M10.9,76.4c-2.9,0-5.3-2.4-5.3-5.3V48.7c0-2.9,2.4-5.3,5.3-5.3s5.3,2.4,5.3,5.3v22.4
				C16.2,74.1,13.8,76.4,10.9,76.4z"/>
		</g>
		<g>
			<path fill="#0B1214" d="M35.5,104.7c-2.9,0-5.3-2.4-5.3-5.3V20.6c0-2.9,2.4-5.3,5.3-5.3s5.3,2.4,5.3,5.3v78.8
				C40.8,102.3,38.4,104.7,35.5,104.7z"/>
		</g>
		<g>
			<path fill="#0B1214" d="M109.1,76.6c-2.9,0-5.3-2.4-5.3-5.3V48.9c0-2.9,2.4-5.3,5.3-5.3s5.3,2.4,5.3,5.3v22.4
				C114.4,74.2,112,76.6,109.1,76.6z"/>
		</g>
		<g>
			<path fill="#0B1214" d="M84.5,104.7c-2.9,0-5.3-2.4-5.3-5.3V20.6c0-2.9,2.4-5.3,5.3-5.3s5.3,2.4,5.3,5.3v78.8
				C89.9,102.3,87.5,104.7,84.5,104.7z"/>
		</g>
		<g>
			<path fill="#0B1214" d="M60,94.9c-2.9,0-5.3-2.4-5.3-5.3V30.3c0-2.9,2.4-5.3,5.3-5.3s5.3,2.4,5.3,5.3v59.3
				C65.3,92.5,62.9,94.9,60,94.9z"/>
		</g>
	</g>
</g>
</svg>
