<?xml version="1.0" encoding="utf-8"?>
<!-- Generator: Adobe Illustrator 25.4.2, SVG Export Plug-In . SVG Version: 6.00 Build 0)  -->
<svg version="1.1" baseProfile="tiny" id="Layer_1" xmlns="http://www.w3.org/2000/svg" xmlns:xlink="http://www.w3.org/1999/xlink"
	 x="0px" y="0px" viewBox="0 0 32 32" overflow="visible" xml:space="preserve">
<path fill="#FFFFFF" d="M16,0C7.2,0,0,7.2,0,16s7.2,16,16,16s16-7.2,16-16S24.8,0,16,0z M16,29.8c-7.2,0-13.2-5.6-13.8-12.7h4.2
	v-2.2H2.2c0.2-3,1.4-5.7,3.3-7.9l3,3L10,8.5l-3-3c2.2-1.8,4.9-3,7.9-3.3v4.2h2.2V2.2c3,0.2,5.7,1.4,7.9,3.3l-3,3l1.5,1.5l3-3
	c1.8,2.2,3,4.9,3.3,7.9h-4.2v2.2h4.2C29.2,24.2,23.2,29.8,16,29.8z"/>
<polygon fill="#FFFFFF" points="19.6,21.9 19.6,22.7 21.1,24.6 21.1,26.5 17.9,24.7 17.9,21.4 17.1,20.8 16.7,22.2 15.3,22.2 
	14.9,20.8 14.1,21.4 14.1,24.7 10.9,26.5 10.9,24.6 12.4,22.7 12.4,21.9 11.3,21.1 9,23.3 9,20.8 13.6,14.8 15.1,8.7 16.9,8.7 
	18.4,14.8 23,20.8 23,23.3 20.7,21.1 "/>
</svg>
