<?xml version="1.0" encoding="utf-8"?>
<!-- Generator: Adobe Illustrator 25.4.2, SVG Export Plug-In . SVG Version: 6.00 Build 0)  -->
<svg version="1.1" baseProfile="tiny" id="Layer_1" xmlns="http://www.w3.org/2000/svg" xmlns:xlink="http://www.w3.org/1999/xlink"
	 x="0px" y="0px" viewBox="0 0 32 32" overflow="visible" xml:space="preserve">
<path fill="#FFFFFF" d="M0,11.4h4.6v0c0-1.6-0.3-3.1-0.7-4.6L2.7,3.3C2.6,2.9,2,2.9,1.9,3.3L0.7,6.7C0.3,8.2,0,9.8,0,11.4L0,11.4z"
	/>
<polygon fill="#FFFFFF" points="3.8,25.5 3.8,27.5 4.6,27.5 4.6,29 0,29 0,27.5 0.8,27.5 0.8,25.5 0,25.5 0,13.3 4.6,13.3 4.6,25.5 
	"/>
<path fill="#FFFFFF" d="M9.1,11.4h4.6v0c0-1.6-0.3-3.1-0.7-4.6l-1.1-3.4c-0.1-0.4-0.7-0.4-0.8,0L9.9,6.7C9.4,8.2,9.1,9.8,9.1,11.4
	L9.1,11.4z"/>
<polygon fill="#FFFFFF" points="13,25.5 13,27.5 13.7,27.5 13.7,29 9.1,29 9.1,27.5 9.9,27.5 9.9,25.5 9.1,25.5 9.1,13.3 13.7,13.3 
	13.7,25.5 "/>
<path fill="#FFFFFF" d="M18.3,11.4h4.6v0c0-1.6-0.3-3.1-0.7-4.6L21,3.3c-0.1-0.4-0.7-0.4-0.8,0L19,6.7C18.5,8.2,18.3,9.8,18.3,11.4
	L18.3,11.4z"/>
<polygon fill="#FFFFFF" points="22.1,25.5 22.1,27.5 22.9,27.5 22.9,29 18.3,29 18.3,27.5 19,27.5 19,25.5 18.3,25.5 18.3,13.3 
	22.9,13.3 22.9,25.5 "/>
<path fill="#FFFFFF" d="M27.4,11.4H32v0c0-1.6-0.3-3.1-0.7-4.6l-1.1-3.4c-0.1-0.4-0.7-0.4-0.8,0l-1.1,3.4
	C27.7,8.2,27.4,9.8,27.4,11.4L27.4,11.4z"/>
<polygon fill="#FFFFFF" points="31.2,25.5 31.2,27.5 32,27.5 32,29 27.4,29 27.4,27.5 28.2,27.5 28.2,25.5 27.4,25.5 27.4,13.3 
	32,13.3 32,25.5 "/>
</svg>
