<?xml version="1.0" encoding="utf-8"?>
<!-- Generator: Adobe Illustrator 28.7.0, SVG Export Plug-In . SVG Version: 9.03 Build 54978)  -->
<svg version="1.1" baseProfile="tiny" id="Layer_1" xmlns="http://www.w3.org/2000/svg" xmlns:xlink="http://www.w3.org/1999/xlink"
	 x="0px" y="0px" width="264px" height="264px" viewBox="0 0 264 264" overflow="visible" xml:space="preserve">
<path d="M122.7,226V39.2c0-5.5,4.4-9.9,9.9-9.9h0c5.5,0,9.9,4.4,9.9,9.9V226c0,5.5-4.4,9.9-9.9,9.9h0
	C127.2,235.9,122.7,231.4,122.7,226z"/>
<path d="M107.8,202.3c-20.6-9.4-35-30.2-35-54.4c0-24.1,14.4-44.9,35-54.4V70.3C75,80.8,51.1,111.7,51.1,147.9S75,215,107.8,225.6
	V202.3z"/>
<path d="M157.4,70.3v23.3c20.6,9.4,35,30.2,35,54.4c0,24.1-14.4,44.9-35,54.4v23.3c32.8-10.5,56.7-41.3,56.7-77.6
	S190.3,80.8,157.4,70.3z"/>
</svg>
