<?xml version="1.0" encoding="utf-8"?>
<!-- Generator: Adobe Illustrator 28.7.0, SVG Export Plug-In . SVG Version: 9.03 Build 54978)  -->
<svg version="1.1" baseProfile="tiny" id="Layer_1" xmlns="http://www.w3.org/2000/svg" xmlns:xlink="http://www.w3.org/1999/xlink"
	 x="0px" y="0px" width="264px" height="264px" viewBox="0 0 264 264" overflow="visible" xml:space="preserve">
<g>
	<path d="M47.1,127.9c1.1,0.3,2.2,0.5,3.3,0.5c5,0,9.7-3.3,11.1-8.4c0.3-1.2,0.7-2.4,1.1-3.6c2.1-6.1-1.1-12.7-7.1-14.8
		c-6.1-2.1-12.7,1.1-14.8,7.1c-0.6,1.6-1.1,3.2-1.5,4.8C37.4,119.7,40.9,126.1,47.1,127.9z"/>
	<path d="M61.6,159.2c-0.4-1.2-0.7-2.4-1-3.6c-1.5-6.2-7.7-10.1-14-8.6c-6.2,1.5-10.1,7.7-8.6,14c0.4,1.6,0.8,3.2,1.3,4.8
		c1.5,5.1,6.1,8.3,11.1,8.3c1.1,0,2.2-0.2,3.3-0.5C59.8,171.8,63.4,165.3,61.6,159.2z"/>
	<path d="M188.6,105c2.1,3.7,6.1,5.8,10.1,5.8c2,0,3.9-0.5,5.8-1.5c5.6-3.2,7.5-10.3,4.3-15.9c-0.8-1.4-1.7-2.9-2.6-4.3
		c-3.5-5.4-10.7-6.9-16.1-3.4c-5.4,3.5-6.9,10.7-3.4,16.1C187.3,102.9,188,103.9,188.6,105z"/>
	<path d="M75,89.9c2.7,0,5.4-0.9,7.6-2.9c0.9-0.8,1.9-1.6,2.9-2.4c2-1.6,3.4-3.7,4-5.9c-1-3.2-1.8-6.7-2.1-10.5
		c-4-5-11.2-5.8-16.2-1.9c-1.3,1-2.6,2.1-3.8,3.2c-4.8,4.2-5.3,11.5-1.1,16.4C68.6,88.6,71.8,89.9,75,89.9z"/>
	<path d="M82.8,192.1c-0.9-0.8-1.9-1.7-2.8-2.5c-4.6-4.5-12-4.3-16.4,0.3c-4.5,4.6-4.3,12,0.3,16.4c1.2,1.1,2.4,2.3,3.7,3.4
		c2.2,1.9,4.9,2.8,7.6,2.8c3.3,0,6.5-1.4,8.8-4C88.2,203.6,87.6,196.3,82.8,192.1z"/>
	<path d="M202.8,173.6c-5.4-3.5-12.6-1.9-16,3.5c-0.7,1-1.4,2.1-2.1,3.1c-3.8,5.2-2.6,12.5,2.6,16.2c2.1,1.5,4.4,2.2,6.8,2.2
		c3.6,0,7.1-1.7,9.4-4.8c1-1.3,1.9-2.7,2.8-4.1C209.7,184.3,208.2,177.1,202.8,173.6z"/>
	<path d="M157.1,202.8C157.1,202.8,157.1,202.8,157.1,202.8c4.5,5,8.8,11.7,10.8,20.5c5-3,7-9.3,4.6-14.8
		C169.9,202.6,163,200.1,157.1,202.8z"/>
	<path d="M221,139.3c0-6.4-5.2-11.6-11.6-11.6s-11.6,5.2-11.6,11.6l0,0.2c0,1.2,0,2.5-0.1,3.8c-0.3,6.4,4.6,11.9,11,12.2
		c0.2,0,0.4,0,0.6,0c6.1,0,11.3-4.8,11.6-11c0.1-1.7,0.1-3.3,0.1-5L221,139.3z"/>
	<path d="M171.1,57.3c-1.5-0.8-3-1.5-4.5-2.2c-1.3-0.6-2.6-0.9-3.9-1c-2.5,4.1-5.4,7.5-8.2,10.3c3.7,3.7,7.7,8.6,10.6,14.8
		c0.2,0,0.4,0,0.6,0c4.2,0,8.2-2.3,10.3-6.2C179,67.3,176.8,60.2,171.1,57.3z"/>
</g>
<path d="M149.6,235.3H129c0-3.1-1.4-4.6-7.1-9c-6-4.6-15.1-11.7-15.1-25.3c0-13.6,9.1-20.7,15.1-25.3c5.7-4.4,7.1-5.9,7.1-9
	c0-3.1-1.4-4.6-7.1-9c-6-4.6-15.1-11.7-15.1-25.3c0-13.6,9.1-20.7,15.1-25.3c5.7-4.4,7.1-5.9,7.1-9s-1.4-4.6-7.1-9
	c-6-4.6-15.1-11.7-15.1-25.3c0-13.6,9.1-20.7,15.1-25.3c5.7-4.4,7.1-5.9,7.1-9h20.6c0,13.6-9.1,20.7-15.1,25.3
	c-5.7,4.4-7.1,5.9-7.1,9c0,3.1,1.4,4.6,7.1,9c6,4.6,15.1,11.7,15.1,25.3s-9.1,20.7-15.1,25.3c-5.7,4.4-7.1,5.9-7.1,9
	c0,3.1,1.4,4.6,7.1,9c6,4.6,15.1,11.7,15.1,25.3c0,13.6-9.1,20.7-15.1,25.3c-5.7,4.4-7.1,5.9-7.1,9c0,3.1,1.4,4.6,7.1,9
	C140.5,214.7,149.6,221.7,149.6,235.3z"/>
</svg>
