<?xml version="1.0" encoding="utf-8"?>
<!-- Generator: Adobe Illustrator 25.4.6, SVG Export Plug-In . SVG Version: 6.00 Build 0)  -->
<svg version="1.1" baseProfile="tiny" xmlns="http://www.w3.org/2000/svg" xmlns:xlink="http://www.w3.org/1999/xlink" x="0px"
	 y="0px" width="40px" height="40px" viewBox="0 0 40 40" overflow="visible" xml:space="preserve">
<g id="Black_BG" display="none">
	<rect x="-3556.3" y="-2853.7" display="inline" width="7152" height="6096"/>
</g>
<g id="HUD_modes_x5F_icon">
</g>
<g id="Main_Layer">
	<g id="Zone_control_icons">
	</g>
	<polygon fill="#FFFFFF" points="26.9,34.2 21.2,40 18.9,40.1 12.8,34 15.5,31.3 20,35.7 24.2,31.5 	"/>
	<polygon fill="#FFFFFF" points="5.7,27.1 0,21.4 0,18.8 5.9,13 8.6,15.7 4.2,20.1 8.4,24.4 	"/>
	<polygon fill="#FFFFFF" points="13.1,5.8 18.8,0 21.2,0 27.2,6 24.5,8.7 20,4.3 15.8,8.5 	"/>
	<polygon fill="#FFFFFF" points="34.3,12.9 40,18.6 40,21.2 34.1,27 31.4,24.3 35.8,19.9 31.6,15.6 	"/>
	<polygon fill="#FFFFFF" points="30.2,0.1 40,0.1 40,9.9 	"/>
	<rect x="14.9" y="15" transform="matrix(0.7071 -0.7071 0.7071 0.7071 -8.3051 19.9068)" fill="#FFFFFF" width="10" height="10"/>
</g>
</svg>
