<?xml version="1.0" encoding="utf-8"?>
<!-- Generator: Adobe Illustrator 29.1.0, SVG Export Plug-In . SVG Version: 9.03 Build 55587)  -->
<svg version="1.1" baseProfile="tiny" id="Layer_1" xmlns="http://www.w3.org/2000/svg" xmlns:xlink="http://www.w3.org/1999/xlink"
	 x="0px" y="0px" viewBox="0 0 64 64" overflow="visible" xml:space="preserve">
<path d="M32,9.5C19.6,9.5,9.5,19.6,9.5,32c0,12.4,10.1,22.5,22.5,22.5c12.4,0,22.5-10.1,22.5-22.5C54.5,19.6,44.4,9.5,32,9.5z
	 M11.5,32c0-5,1.8-9.6,4.8-13.1l28.9,28.9c-3.6,3-8.1,4.8-13.1,4.8C20.7,52.5,11.5,43.3,11.5,32z M46.6,46.4l-29-29
	c3.7-3.7,8.8-5.9,14.4-5.9c11.3,0,20.5,9.2,20.5,20.5C52.5,37.6,50.2,42.7,46.6,46.4z"/>
</svg>
