<?xml version="1.0" encoding="utf-8"?>
<!-- Generator: Adobe Illustrator 27.8.0, SVG Export Plug-In . SVG Version: 6.00 Build 0)  -->
<svg version="1.1" baseProfile="tiny" id="Layer_1" xmlns="http://www.w3.org/2000/svg" xmlns:xlink="http://www.w3.org/1999/xlink"
	 x="0px" y="0px" viewBox="0 0 64 64" overflow="visible" xml:space="preserve">
<path fill="#FFFFFF" d="M32.4,6.5C18.3,6.5,6.8,18,6.8,32.1c0,14.1,11.5,25.6,25.6,25.6C46.5,57.7,58,46.2,58,32.1
	C58,18,46.5,6.5,32.4,6.5z M32.4,10.8c11.1,0,20.2,8.5,21.2,19.4c-1.6,1.1-1.4,1-2.9,2.1l-14.2-6.5c-2.6-1.2-5.5-1.2-8.1,0
	l-14.2,6.5c-1.6-1.1-1.4-1-3-2.1C12.1,19.4,21.3,10.8,32.4,10.8z M27.1,52.6c-6.8-1.7-12.3-6.7-14.7-13.3l10.7-2.8
	c1.8-0.5,3.6,0.7,3.8,2.5l1.7,12.2C28,51.9,27.7,52.1,27.1,52.6z M26.7,32.1c0-3.1,2.6-5.7,5.7-5.7c3.2,0,5.7,2.6,5.7,5.7
	c0,3.2-2.6,5.7-5.7,5.7C29.2,37.8,26.7,35.2,26.7,32.1z M36.3,53c-0.6-0.6-0.8-0.8-1.4-1.4L36.6,39c0.2-1.8,2-3,3.7-2.5l12.1,2.9
	C49.8,46.3,43.7,51.6,36.3,53z"/>
</svg>
