<?xml version="1.0" encoding="utf-8"?>
<!-- Generator: Adobe Illustrator 27.8.0, SVG Export Plug-In . SVG Version: 6.00 Build 0)  -->
<svg version="1.1" baseProfile="tiny" id="Layer_1" xmlns="http://www.w3.org/2000/svg" xmlns:xlink="http://www.w3.org/1999/xlink"
	 x="0px" y="0px" viewBox="0 0 64 64" overflow="visible" xml:space="preserve">
<g>
	<path fill="#FFFFFF" d="M33.9,15.1c-1.3-2.4-3.2-4.2-5.6-5.5c-2.4-1.3-5.2-1.9-8.3-1.9c-3.1,0-5.9,0.7-8.3,2
		c-2.4,1.3-4.3,3.1-5.6,5.5c-1.3,2.3-2,5.1-2,8.2v13.9c0,3.7,1,6.8,3,9.4c2,2.6,4.8,4.3,8.3,5.1c0.2,0.1,0.2,0.2,0.2,0.3v5
		c0,0.2,0.1,0.4,0.2,0.5c0.2,0.2,0.3,0.2,0.5,0.2h7.3c0.2,0,0.4-0.1,0.5-0.2c0.1-0.1,0.2-0.3,0.2-0.5V52c0-0.2,0.1-0.3,0.2-0.3
		c3.5-0.8,6.2-2.5,8.2-5.1c2-2.5,3-5.7,3-9.4V23.3C35.8,20.2,35.2,17.5,33.9,15.1z M27.1,37c0,2.3-0.7,4.1-2,5.5
		c-0.7,0.8-1.5,1.3-2.5,1.7v-3c0-0.4-0.3-0.8-0.8-0.8H18c-0.4,0-0.8,0.3-0.8,0.8v3c-0.9-0.3-1.8-0.9-2.5-1.6
		c-1.3-1.4-1.9-3.2-1.9-5.5V22.9c0-2.3,0.6-4.1,1.9-5.5c1.3-1.4,3-2.1,5.1-2.1c2.2,0,3.9,0.7,5.2,2.1c1.3,1.4,2,3.3,2,5.5V37z"/>
</g>
<g>
	<path fill="#FFFFFF" d="M58.7,28.7c0.1,0.1,0.1,0.2,0.1,0.3v3.9c0,0.1,0,0.2-0.1,0.3c-0.1,0.1-0.2,0.1-0.3,0.1h-5.8
		c-0.1,0-0.2,0.1-0.2,0.2v17.9c0,0.1,0,0.2-0.1,0.3c-0.1,0.1-0.2,0.1-0.3,0.1h-4.7c-0.1,0-0.2,0-0.3-0.1c-0.1-0.1-0.1-0.2-0.1-0.3
		V33.5c0-0.1-0.1-0.2-0.2-0.2h-5.6c-0.1,0-0.2,0-0.3-0.1c-0.1-0.1-0.1-0.2-0.1-0.3V29c0-0.1,0-0.2,0.1-0.3c0.1-0.1,0.2-0.1,0.3-0.1
		h17.2C58.6,28.6,58.7,28.6,58.7,28.7z"/>
</g>
</svg>
