<?xml version="1.0" encoding="utf-8"?>
<!-- Generator: Adobe Illustrator 25.1.0, SVG Export Plug-In . SVG Version: 6.00 Build 0)  -->
<svg version="1.1" baseProfile="tiny" id="Icon" xmlns="http://www.w3.org/2000/svg" xmlns:xlink="http://www.w3.org/1999/xlink"
	 x="0px" y="0px" width="256px" height="256px" viewBox="0 0 256 256" overflow="visible" xml:space="preserve">
<polygon fill="#FFFFFF" points="105.9,43.1 116.9,62.2 128,81.4 139.1,62.2 150.1,43.1 135.9,43.1 137.1,1.4 118.9,1.4 120.1,43.1 
	"/>
<polygon fill="#FFFFFF" points="150.1,212.9 139.1,193.8 128,174.6 116.9,193.8 105.9,212.9 120.1,212.9 118.9,254.6 137.1,254.6 
	135.9,212.9 "/>
<g>
	<polygon fill="#FFFFFF" points="209.2,105.9 190.1,116.9 170.9,128 190.1,139.1 209.2,150.1 209.2,135.9 250.9,137.1 250.9,118.9 
		209.2,120.1 	"/>
	<polygon fill="#FFFFFF" points="46.8,105.9 65.9,116.9 85.1,128 65.9,139.1 46.8,150.1 46.8,135.9 5.1,137.1 5.1,118.9 46.8,120.1 
			"/>
</g>
<circle fill="#FFFFFF" cx="128" cy="128" r="27.9"/>
</svg>
