<?xml version="1.0" encoding="utf-8"?>
<!-- Generator: Adobe Illustrator 27.8.0, SVG Export Plug-In . SVG Version: 6.00 Build 0)  -->
<svg version="1.1" baseProfile="tiny" id="Layer_1" xmlns="http://www.w3.org/2000/svg" xmlns:xlink="http://www.w3.org/1999/xlink"
	 x="0px" y="0px" viewBox="0 0 64 64" overflow="visible" xml:space="preserve">
<path fill="#FFFFFF" d="M52.2,17.3v-2.3c0-1.6-1.3-2.9-2.8-2.9h-2.3L46,13.8H18.7l-1.1-1.6h-2.3c-1.6,0-2.8,1.3-2.8,2.9v2.3l1.5,1.1
	v27.3l-1.5,1.1v2.3c0,1.6,1.3,2.8,2.8,2.8h2.3l1.1-1.6H46l1.1,1.6h2.3c1.6,0,2.8-1.3,2.8-2.8v-2.3l-1.5-1.1V18.4L52.2,17.3z
	 M45,44.8H19.7V19.4H45V44.8z"/>
<rect x="5.2" y="28.7" transform="matrix(4.443894e-11 1 -1 4.443894e-11 39.2845 24.8989)" fill="#FFFFFF" width="4" height="6.8"/>
<rect x="5.2" y="19.8" transform="matrix(4.535554e-11 1 -1 4.535554e-11 30.3681 15.9825)" fill="#FFFFFF" width="4" height="6.8"/>
<rect x="5.2" y="37.6" transform="matrix(4.443894e-11 1 -1 4.443894e-11 48.2009 33.8153)" fill="#FFFFFF" width="4" height="6.8"/>
<rect x="55.6" y="28.7" transform="matrix(-1.836970e-16 1 -1 -1.836970e-16 89.6538 -25.4704)" fill="#FFFFFF" width="4" height="6.8"/>
<rect x="55.6" y="19.8" transform="matrix(-1.836970e-16 1 -1 -1.836970e-16 80.7374 -34.3868)" fill="#FFFFFF" width="4" height="6.8"/>
<rect x="55.6" y="37.6" transform="matrix(-1.836970e-16 1 -1 -1.836970e-16 98.5702 -16.554)" fill="#FFFFFF" width="4" height="6.8"/>
<rect x="30.4" y="3.5" fill="#FFFFFF" width="4" height="6.8"/>
<rect x="21.5" y="3.5" fill="#FFFFFF" width="4" height="6.8"/>
<rect x="39.3" y="3.5" fill="#FFFFFF" width="4" height="6.8"/>
<rect x="30.4" y="53.9" fill="#FFFFFF" width="4" height="6.8"/>
<rect x="21.5" y="53.9" fill="#FFFFFF" width="4" height="6.8"/>
<rect x="39.3" y="53.9" fill="#FFFFFF" width="4" height="6.8"/>
</svg>
