<?xml version="1.0" encoding="utf-8"?>
<!-- Generator: Adobe Illustrator 28.5.0, SVG Export Plug-In . SVG Version: 9.03 Build 54727)  -->
<svg version="1.1" baseProfile="tiny" id="Layer_1" xmlns="http://www.w3.org/2000/svg" xmlns:xlink="http://www.w3.org/1999/xlink"
	 x="0px" y="0px" viewBox="0 0 64 64" overflow="visible" xml:space="preserve">
<circle fill="#FFFFFF" cx="32" cy="32" r="7.67"/>
<g>
	<path fill="#FFFFFF" d="M59.48,31.99c0,15.29-12.43,27.72-27.72,27.72c-12.5,0-23.51-8.41-26.77-20.46l5.89-1.59
		c2.54,9.4,11.13,15.96,20.88,15.96c11.92,0,21.63-9.71,21.63-21.63c0-11.93-9.71-21.64-21.63-21.64c-3.92,0-7.68,1.03-11,3.01
		l3.71,6.43l-18.78-0.6l8.87-16.55l3.14,5.44c4.25-2.51,9.06-3.82,14.06-3.82C47.05,4.26,59.48,16.7,59.48,31.99z"/>
</g>
</svg>
