<?xml version="1.0" encoding="utf-8"?>
<!-- Generator: Adobe Illustrator 28.7.5, SVG Export Plug-In . SVG Version: 9.03 Build 55973)  -->
<svg version="1.1" baseProfile="tiny" id="Layer_1" xmlns="http://www.w3.org/2000/svg" xmlns:xlink="http://www.w3.org/1999/xlink"
	 x="0px" y="0px" viewBox="0 0 203.1 185.8" overflow="visible" xml:space="preserve">
<path id="colorstyle:Background" fill="#0E1110" d="M36.7,185.8c-13.3,0-25.2-6.8-31.8-18.3c-6.5-11.4-6.6-25.1-0.1-36.7l65-112.4
	C76.2,6.9,88,0,101.4,0c13.3,0,25.2,6.8,31.8,18.3l65,112.3c6.5,11.4,6.6,25.1,0.1,36.7l-0.1,0.1c-6.5,11.3-18.7,18.3-31.8,18.3
	H36.7z"/>
<path id="colorstyle:Critical" fill="#EE4750" d="M187.8,136.7l-65-112.4c-4.4-7.7-12.3-12.3-21.4-12.3s-16.9,4.6-21.1,12.3
	l-65,112.4c-4.4,7.9-4.4,17.2,0,24.8c4.4,7.7,12.3,12.3,21.4,12.3h129.8c8.8,0,16.9-4.6,21.4-12.3
	C192.2,153.6,192.2,144.3,187.8,136.7z M101.7,50.3c7.9,0,13.9,6.7,13,14.6l-3,43.4c-0.5,5.6-5.1,9.5-10.2,9.5
	c-5.3,0-9.5-4.4-10.2-9.5L88,64.9C87.5,57,93.6,50.1,101.7,50.3z M99.4,155.2c-5.8-0.7-10.7-5.1-11.8-10.7
	c-2.8-11.4,7.4-21.1,18.6-17.9c5.3,1.6,9.5,7,10.2,12.8C117,149.2,108.9,156.9,99.4,155.2z"/>
</svg>
