<?xml version="1.0" encoding="utf-8"?>
<!-- Generator: Adobe Illustrator 27.5.0, SVG Export Plug-In . SVG Version: 6.00 Build 0)  -->
<svg version="1.1" baseProfile="tiny" id="Layer_1" xmlns="http://www.w3.org/2000/svg" xmlns:xlink="http://www.w3.org/1999/xlink"
	 x="0px" y="0px" viewBox="0 0 40 40" overflow="visible" xml:space="preserve">
<path display="none" d="M37.2,18.9c-1.1-0.6-2.1-1-3.9-1H30v-0.2c-1.2,0-2.5-0.1-3.5-0.6l-0.7-0.4c-0.4-0.2-1-0.4-1.6-0.4h-19V17
	H3.8v-0.7H2.7v7.4h1.1V23h1.4v0.7h19c0.6,0,1.1-0.1,1.6-0.4l0.7-0.4c1-0.5,2.2-0.6,3.5-0.6v-0.2h3.3c1.9,0,2.8-0.4,3.9-1
	c0.8-0.4,1.2-1.1,1.2-1.1S38,19.3,37.2,18.9z"/>
<polygon points="39.9,10.4 39.2,18.3 36.7,4.9 37.7,18 29.8,11.3 37,19 1.9,19 1.9,21 37,21 29.8,28.7 37.7,22 36.7,35.1 39.2,21.7 
	39.9,29.6 39.9,20 "/>
</svg>
