<?xml version="1.0" encoding="utf-8"?>
<!-- Generator: Adobe Illustrator 27.6.1, SVG Export Plug-In . SVG Version: 6.00 Build 0)  -->
<svg version="1.1" baseProfile="tiny" xmlns="http://www.w3.org/2000/svg" xmlns:xlink="http://www.w3.org/1999/xlink" x="0px"
	 y="0px" viewBox="0 0 40 40" overflow="visible" xml:space="preserve">
<g id="Black_BG" display="none">
	<rect x="-3556" y="-3115.7" display="inline" width="7152" height="6096"/>
</g>
<g id="HUD_modes_x5F_icon">
</g>
<g id="Main_Layer">
	<g id="Zone_control_icons">
	</g>
	<g>
		<path fill="#FFFFFF" d="M13.3,14.4h13.5c0.4,0,0.8-0.4,0.8-0.8v-3.5c0-0.4-0.4-0.8-0.8-0.8H13.3c-0.4,0-0.8,0.4-0.8,0.8v3.5
			C12.5,14,12.8,14.4,13.3,14.4z"/>
		<g>
			<path fill="#FFFFFF" d="M30.8,23H9.2c-0.5,0-0.8,0.6-0.4,1l10.8,10.8c0.2,0.2,0.6,0.2,0.9,0L31.3,24C31.6,23.6,31.4,23,30.8,23z"
				/>
		</g>
	</g>
</g>
</svg>
