<?xml version="1.0" encoding="utf-8"?>
<!-- Generator: Adobe Illustrator 25.4.1, SVG Export Plug-In . SVG Version: 6.00 Build 0)  -->
<svg version="1.1" baseProfile="tiny" id="Layer_1" xmlns="http://www.w3.org/2000/svg" xmlns:xlink="http://www.w3.org/1999/xlink"
	 x="0px" y="0px" width="64px" height="64px" viewBox="0 0 64 64" overflow="visible" xml:space="preserve">
<path d="M31.7,62.4c-0.9,0-1.8-0.2-2.6-0.7C22.2,58,6.2,47.9,6.2,35.4V9.1c0-2.5,1.7-4.7,4.1-5.3c3.5-0.9,10.1-2,21.4-2
	s17.9,1.1,21.4,2c2.4,0.6,4.1,2.8,4.1,5.3v26.3c0,13.2-16,22.8-22.9,26.4C33.4,62.2,32.6,62.4,31.7,62.4z M31.7,6.1
	C20.2,6.1,14,7.3,11.4,8c-0.5,0.1-0.9,0.6-0.9,1.1v26.3c0,8.3,10.7,17,20.7,22.5c0.3,0.2,0.8,0.2,1.1,0c4.8-2.5,20.6-11.4,20.6-22.5
	V9.1c0-0.5-0.4-1-0.9-1.1C49.3,7.3,43.1,6.1,31.7,6.1z"/>
</svg>
