<?xml version="1.0" encoding="utf-8"?>
<!-- Generator: Adobe Illustrator 27.6.1, SVG Export Plug-In . SVG Version: 6.00 Build 0)  -->
<svg version="1.1" baseProfile="tiny" xmlns="http://www.w3.org/2000/svg" xmlns:xlink="http://www.w3.org/1999/xlink" x="0px"
	 y="0px" viewBox="0 0 40 40" overflow="visible" xml:space="preserve">
<g id="Black_BG" display="none">
	<rect x="-3508" y="-3115.7" display="inline" width="7152" height="6096"/>
</g>
<g id="HUD_modes_x5F_icon">
</g>
<g id="Main_Layer">
	<g id="Zone_control_icons">
	</g>
	<g>
		<path fill="#FFFFFF" d="M37.8,20.6c0,2.5-1,4.8-2.8,6.4c-1.6,1.5-3.4,2.3-5.4,2.3c-0.2,0-0.4,0-0.6,0c-2.5-0.2-5.1-1.8-7-4.2
			l2.1-2.8c1.2,1.6,3.4,3.2,4.8,3.3c1,0.1,2.6-0.2,3.5-1.1c1-0.9,1.8-2.7,1.8-4.1c0-1.5-0.7-3.1-1.8-4.3c-1.1-1.2-2.3-1.5-3.6-1.6
			c-1.1-0.1-2.8,0.5-4.2,2.2c-0.1,0.1-0.1,0.1-0.2,0.2c-0.1,0.2-1,1.4-2.1,2.9c-0.1,0.2-0.3,0.4-0.4,0.6c-1,1.3-2.2,3-4,5.4
			c-0.1,0.1-0.2,0.2-0.2,0.3c-1.5,1.9-3.6,3.2-6.9,3.2c-2.8,0-4.3-0.9-6.1-2.7C3,24.7,2.1,22,2.2,19.4c0-2.5,1-4.8,2.8-6.4
			c1.6-1.5,3.4-2.3,5.4-2.3c0.2,0,0.4,0,0.6,0c2.5,0.2,5.1,1.8,7,4.2l-2.1,2.8c-1.2-1.6-3.4-3.2-4.8-3.3c-1-0.1-2.5,0.2-3.5,1.1
			c-1,0.9-1.8,2.7-1.9,4.1c0,1.5,0.7,3.1,1.8,4.3c1.1,1.2,2.3,1.5,3.6,1.6c1.1,0.1,2.9-0.5,4.2-2.2c0.1-0.1,0.1-0.2,0.2-0.2
			c0.1-0.2,1.1-1.6,2.3-3.3c0.1-0.1,0.1-0.2,0.2-0.2c1-1.3,2.2-3,4-5.3c0.1-0.1,0.2-0.2,0.2-0.3c1.5-1.9,3.7-3.2,6.9-3.2
			c2.8,0,4.3,0.9,6.1,2.7C37,15.3,37.9,18,37.8,20.6z"/>
	</g>
</g>
</svg>
