<?xml version="1.0" encoding="utf-8"?>
<!-- Generator: Adobe Illustrator 26.2.0, SVG Export Plug-In . SVG Version: 6.00 Build 0)  -->
<svg version="1.1" baseProfile="tiny" xmlns="http://www.w3.org/2000/svg" xmlns:xlink="http://www.w3.org/1999/xlink" x="0px"
	 y="0px" width="40px" height="40px" viewBox="0 0 40 40" overflow="visible" xml:space="preserve">
<g id="Black_BG" display="none">
	<rect x="-3508" y="-2925" display="inline" width="7152" height="6096"/>
</g>
<g id="HUD_modes_x5F_icon">
	<polygon id="scm" fill="#FFFFFF" points="31.9,18.9 31.9,24.6 25.9,23.8 25.1,23.2 24.5,23.7 24.9,24.5 24.9,27.1 26.1,28.7 
		26.1,31.8 22.7,32.7 22.7,27 21.5,26.4 21.1,28.1 19.8,28.6 18.5,28.1 18,26.4 16.9,27 16.9,32.7 13.5,31.8 13.5,28.7 14.7,27.1 
		14.7,24.5 15.1,23.7 14.5,23.2 13.7,23.8 7.6,24.6 7.6,18.9 8.6,18.2 9.2,20.4 16.3,16.6 18,5.1 21.5,5.1 23.2,16.6 30.3,20.4 
		31,18.2 	"/>
</g>
<g id="Main_Layer">
	<g id="Zone_control_icons">
	</g>
</g>
</svg>
