<?xml version="1.0" encoding="utf-8"?>
<!-- Generator: Adobe Illustrator 26.3.1, SVG Export Plug-In . SVG Version: 6.00 Build 0)  -->
<svg version="1.1" baseProfile="tiny" id="Layer_1" xmlns="http://www.w3.org/2000/svg" xmlns:xlink="http://www.w3.org/1999/xlink"
	 x="0px" y="0px" viewBox="0 0 40 40" overflow="visible" xml:space="preserve">
<path d="M34,9.2l3.4-3.4l-3.2-3.2L30.8,6C27.6,3.6,23.9,2.3,20,2.3c-9.8,0-17.7,8-17.7,17.7c0,3.9,1.3,7.6,3.8,10.8l-3.4,3.4
	l3.2,3.2L9.2,34c3.2,2.5,6.9,3.8,10.8,3.8c9.8,0,17.7-8,17.7-17.7C37.7,16.1,36.4,12.4,34,9.2z M27.5,9.2L9.2,27.5
	c-1.6-2.3-2.4-4.9-2.4-7.5c0-7.3,5.9-13.2,13.2-13.2C22.7,6.8,25.3,7.6,27.5,9.2z M33.2,20c0,7.3-5.9,13.2-13.2,13.2
	c-2.7,0-5.3-0.8-7.5-2.4l18.3-18.3C32.4,14.7,33.2,17.3,33.2,20z"/>
</svg>
