<?xml version="1.0" encoding="utf-8"?>
<!-- Generator: Adobe Illustrator 25.4.2, SVG Export Plug-In . SVG Version: 6.00 Build 0)  -->
<svg version="1.1" baseProfile="tiny" xmlns="http://www.w3.org/2000/svg" xmlns:xlink="http://www.w3.org/1999/xlink" x="0px"
	 y="0px" width="40px" height="40px" viewBox="0 0 40 40" overflow="visible" xml:space="preserve">
<g id="Black_BG" display="none">
	<rect x="-3844.7" y="-2756.3" display="inline" width="7152" height="6096"/>
</g>
<g id="HUD_modes_x5F_icon">
</g>
<g id="Main_Layer">
	<g id="DoorIcon_x2F_LightsCombat_00000174565105057120300580000010812223774362271654_">
		<path fill-rule="evenodd" fill="#FFFFFF" d="M29.6,10.1c0,1.6,0,6.4,0,6.4l-3.6,0l0.1-6.9c0-2.8-1.5-5.5-5.9-5.5c-4,0-6,2.7-6,5.5
			v6.7l-3.5,0c0,0,0-4.2,0-6.3c0-5,4.6-9.3,9.6-9.3C25.2,0.8,29.6,5.1,29.6,10.1z"/>
		<path fill-rule="evenodd" fill="#FFFFFF" d="M8.8,14.9l-1.4,2.4v20.8L9,40h23.3l1.4-1.7V17.3l-2.6-2.4H8.8z M15.4,32.1h-2.2
			l-1.1-4.9l1.2-5.1h2l1,5L15.4,32.1z M22.4,31.1l-0.8,5.6h-2.4l-1-5.6v-7.3l0.9-5.5h2.5l0.8,5.5V31.1z M27.1,32.1H25l-1.1-4.9
			l1.1-5.1h2l1,5L27.1,32.1z"/>
	</g>
	<g id="Zone_control_icons">
	</g>
</g>
</svg>
