<?xml version="1.0" encoding="utf-8"?>
<!-- Generator: Adobe Illustrator 26.0.1, SVG Export Plug-In . SVG Version: 6.00 Build 0)  -->
<svg version="1.1" baseProfile="tiny" id="Layer_1" xmlns="http://www.w3.org/2000/svg" xmlns:xlink="http://www.w3.org/1999/xlink"
	 x="0px" y="0px" viewBox="0 0 64 64" overflow="visible" xml:space="preserve">
<g>
	<g>
		<path fill="#FFFFFF" d="M55,26.9c-0.7-0.9-1.4-1.7-2.2-2.5c-5.3-5.3-12.3-8.2-19.7-8.2l0,0c-7.5,0-14.5,2.9-19.7,8.2
			c-0.8,0.8-1.5,1.6-2.2,2.5c-0.2,0.2-0.3,0.5-0.3,0.8c0,0.4,0.2,0.8,0.5,1c0.2,0.2,0.5,0.3,0.8,0.3c0.4,0,0.8-0.2,1-0.5
			c0.6-0.8,1.3-1.6,2-2.3c4.8-4.8,11.2-7.4,17.9-7.4c6.8,0,13.1,2.6,17.9,7.4c0.7,0.7,1.4,1.4,2,2.3c0.3,0.3,0.6,0.5,1,0.5
			c0.3,0,0.6-0.1,0.8-0.3c0.3-0.3,0.5-0.6,0.5-1C55.3,27.4,55.2,27.1,55,26.9z"/>
		<path fill="#FFFFFF" d="M46.1,29.8c-3.5-3.5-8.1-5.4-13-5.4l0,0c-4.9,0-9.5,1.9-13,5.4c-0.8,0.8-1.5,1.7-2.2,2.7
			c-0.2,0.2-0.2,0.5-0.2,0.7c0,0.4,0.2,0.8,0.6,1.1c0.2,0.2,0.5,0.2,0.7,0.2c0.4,0,0.8-0.2,1.1-0.6c0.6-0.8,1.2-1.6,1.9-2.3
			c3-3,7-4.6,11.2-4.6s8.2,1.6,11.2,4.6c0.7,0.7,1.3,1.5,1.9,2.3c0.2,0.4,0.6,0.6,1.1,0.6c0.2,0,0.5-0.1,0.7-0.2
			c0.4-0.2,0.6-0.6,0.6-1.1c0-0.2-0.1-0.5-0.2-0.7C47.6,31.5,46.9,30.6,46.1,29.8z"/>
		<path fill="#FFFFFF" d="M39.6,35.4c-1.7-1.7-4.1-2.7-6.5-2.7l0,0l0,0c-2.5,0-4.8,1-6.5,2.7c-0.9,0.9-1.6,2-2.1,3.2
			c-0.1,0.2-0.1,0.3-0.1,0.5c0,0.5,0.3,1,0.8,1.2c0.2,0.1,0.3,0.1,0.5,0.1c0.5,0,1-0.3,1.2-0.8c0.3-0.9,0.8-1.6,1.5-2.3
			c1.3-1.3,2.9-2,4.7-2l0,0l0,0c1.8,0,3.5,0.7,4.7,2c0.7,0.7,1.2,1.4,1.5,2.3c0.2,0.5,0.7,0.8,1.2,0.8c0.2,0,0.3,0,0.5-0.1
			c0.5-0.2,0.8-0.7,0.8-1.2c0-0.2,0-0.3-0.1-0.5C41.2,37.4,40.5,36.3,39.6,35.4z"/>
	</g>
	<circle fill="#FFFFFF" cx="33.1" cy="42.8" r="2.5"/>
</g>
</svg>
