<?xml version="1.0" encoding="utf-8"?>
<!-- Generator: Adobe Illustrator 26.3.1, SVG Export Plug-In . SVG Version: 6.00 Build 0)  -->
<svg version="1.1" baseProfile="tiny" id="Layer_1" xmlns="http://www.w3.org/2000/svg" xmlns:xlink="http://www.w3.org/1999/xlink"
	 x="0px" y="0px" viewBox="0 0 40 40" overflow="visible" xml:space="preserve">
<path d="M26.7,19.9H13.3c-1.2,0-2.1-0.9-2.1-2.1V4.4c0-1.2,0.9-2.1,2.1-2.1h13.4c1.2,0,2.1,0.9,2.1,2.1v13.4
	C28.8,18.9,27.9,19.9,26.7,19.9z M14.3,16.7h11.4V5.4H14.3V16.7z M27.9,30.6l-2.6-1.7L20,32.8l-5.3-3.9l-2.6,1.7l7.9,7.1L27.9,30.6z
	 M25.5,24.6l-1.8-1.2L20,25.5l-3.7-2.1l-1.8,1.2l5.5,4.3L25.5,24.6z"/>
</svg>
