<?xml version="1.0" encoding="utf-8"?>
<!-- Generator: Adobe Illustrator 27.9.0, SVG Export Plug-In . SVG Version: 6.00 Build 0)  -->
<svg version="1.1" baseProfile="tiny" id="Layer_1" xmlns="http://www.w3.org/2000/svg" xmlns:xlink="http://www.w3.org/1999/xlink"
	 x="0px" y="0px" viewBox="0 0 130 130" overflow="visible" xml:space="preserve">
<g>
	<path fill="#FFFFFF" d="M10.1,71.2l5.7,0.8l0.1,0.8l1.5,0.3l0.1-5.3v-0.2l0-5.1L16,62.6l-0.2,0.5l-5.7,0.7c-0.3,0-0.3,0.5-0.3,1.1
		c0,0,0,0,0,0l0,5.3c0,0,0,0,0,0C9.9,70.8,9.8,71.2,10.1,71.2z"/>
	<path fill="#FFFFFF" d="M69.8,45.3c2.8-0.4,7.8,0.3,13.1,1.1c9.2,1.3,19.6,2.9,25.6-0.7c5.6-3.3,6.8-12.6,7.1-17.1h6.2l0.7,0
		c1.1,0,2.2-0.7,2.8-1.7l1.5-2.6c1.4-0.2,2.4-0.3,2.4-0.3c0.3-0.1,0.6-0.4,0.8-0.7v-3.5H97.3v3.5c0.2,0.3,0.5,0.6,0.8,0.7
		c0,0,1,0.1,2.4,0.3l1.5,2.6c0.6,1.1,1.6,1.7,2.8,1.7l0.7,0h5.7c-0.4,4.4-1.4,11.2-4.9,13.3c-4.6,2.7-14.7,1.3-22.7,0.1
		c-5.8-0.8-10.9-1.6-14.4-1c-6.6,1-9,5.8-9.5,9.5h-1.2c-0.9,0-1.7,0.8-1.7,1.7v1.5l-5,0c0,0-4.1,0-7.3,0L44,54.3h0l-0.8,1.5
		l-33.1-7.2L2,48.8c0,0-1.5,1.5-0.7,2c0.9,0.5,0.9,0.5,0.9,0.5l4.8,0.9l20.6,7.5l0,0.5c0,0.4-0.3,0.7-0.7,0.8L19.2,62l-0.1,10.8
		c0,0.4,0.3,0.8,0.7,0.8l4.6,0.6l-15,5.4l-4.8,0.9c0,0,0,0-0.9,0.5s0.7,2,0.7,2l8.2,0.2L22.8,81c0.1,0.2,0.3,0.3,0.5,0.3
		c0,0,0,0,0,0l3.1,0.1c0,0,0,0,0,0c0.4,0,0.7-0.2,0.7-0.6l0-0.7l5.9-1.3c0.9,0.9,3.2,2.1,3.2,2.1l7,0.1c0.4,0.2,0.8,0.3,1.2,0.4
		l4.9,0.1c0,0-0.1,0.3-0.2,0.7h6l0.1-0.5l0,0l0.9,0c0.7,0,2.1-0.2,2.5-0.7l1.5-1.6l0.1,0l1.2,0.4c0,0,20.6,0.5,21.2,0
		c0.1-0.1,0.4-0.3,0.8-0.6c1.3,1,2.6,2,2.8,2l3.3-0.1c0.7,0,7.5-0.1,7.5-0.1l1.2,0c0.7,0,1.3-0.4,1.6-1l1.2-2.6l3.6,0l0.5-0.3
		c0.2-0.1,0.3-0.3,0.3-0.6V76c0-0.1,0-0.2,0.1-0.4l1.3-0.3l0.5-0.1l5.6,0.1c0.4,0,0.8,0.4,0.8,0.8h0l0.4,0.1l0,0.2
		c0,0.4,0.3,0.7,0.7,0.7c0,0,0,0,0,0l3.2,0c0,0,0,0,0,0c0.4,0,0.7-0.3,0.7-0.7l0-0.2l0.4-0.1l0-0.7c0-0.4,0.3-0.8,0.8-0.8l5.8-0.4
		c0.1,0,0.1,0,0.2,0c0.8-0.3,1.6-0.8,2-1.6l1.4-2.2c0.1-0.2,0.2-0.4,0.1-0.6c-0.1-0.4-0.4-0.8-0.8-0.9L101,58.5c-0.1,0-0.2,0-0.2,0
		l-14.5-1.2c-0.1,0-0.3-0.1-0.4-0.1l-2.2-1.5c-0.1-0.1-0.3-0.1-0.4-0.1l-5.5-0.3l0,0.1l-0.2,0l-1.4,1.2c-0.1,0.1-0.3,0.2-0.5,0.2
		c-1,0.1-4.5,0.2-5,0c-0.4-0.1-2.5-1.6-3.7-2.5v-2.1c0-0.9-0.8-1.7-1.7-1.7h-1.1C64.6,48.5,65.9,45.9,69.8,45.3z M95.1,59.2
		c2.3,0.2,4.3,0.3,4.8,0.4c0.1,0,0.1,0,0.2,0.1l0.5,0.2v0l6.8,2.8c0.5,0.2,0.6,0.8,0.1,1.2l-0.7,0.5c-0.1,0.1-0.3,0.1-0.5,0.1
		l-8.8-0.9c-0.1,0-0.2,0-0.2-0.1L95,62.3c-0.2-0.1-0.3-0.3-0.4-0.5L94.4,60C94.4,59.5,94.7,59.2,95.1,59.2z M90.8,58.9
		c0.5,0,1,0.1,1.5,0.1c0.3,0,0.6,0.3,0.6,0.6l0.1,1.5c0,0.4-0.3,0.7-0.7,0.7l-0.5,0c-0.2,0-0.4-0.1-0.5-0.3l-1-1.5
		C89.9,59.5,90.2,58.9,90.8,58.9z"/>
</g>
</svg>
