<?xml version="1.0" encoding="utf-8"?>
<!-- Generator: Adobe Illustrator 25.4.2, SVG Export Plug-In . SVG Version: 6.00 Build 0)  -->
<svg version="1.1" baseProfile="tiny" xmlns="http://www.w3.org/2000/svg" xmlns:xlink="http://www.w3.org/1999/xlink" x="0px"
	 y="0px" width="40px" height="40px" viewBox="0 0 40 40" overflow="visible" xml:space="preserve">
<g id="Black_BG" display="none">
	<rect x="-3942.3" y="-2806.3" display="inline" width="7152" height="6096"/>
</g>
<g id="HUD_modes_x5F_icon">
</g>
<g id="Main_Layer">
	<g id="Zone_control_icons">
	</g>
	<g id="frame_x5F_target_00000135659079276334452180000004314857527860371608_">
		<polygon fill="#FFFFFF" points="22.2,19.6 27.3,24.7 25.1,26.9 20,21.7 14.9,26.9 12.7,24.7 17.8,19.6 12.7,14.4 14.9,12.3 
			20,17.4 25.1,12.3 27.3,14.4 		"/>
	</g>
	<polygon fill="#FFFFFF" points="40,29.7 40,39.8 29.6,39.8 29.6,36.6 36.8,36.6 36.8,29.7 	"/>
	<polygon fill="#FFFFFF" points="10.3,40 0.3,40 0.3,29.6 3.5,29.6 3.5,36.8 10.3,36.8 	"/>
	<polygon fill="#FFFFFF" points="0.3,10.1 0.3,0 10.7,0 10.7,3.2 3.5,3.2 3.5,10.1 	"/>
	<polygon fill="#FFFFFF" points="29.9,-0.2 40,-0.2 40,10.3 36.8,10.3 36.8,3.1 29.9,3.1 	"/>
</g>
</svg>
