<?xml version="1.0" encoding="utf-8"?>
<!-- Generator: Adobe Illustrator 30.2.1, SVG Export Plug-In . SVG Version: 9.03 Build 0)  -->
<svg version="1.1" baseProfile="tiny" id="Layer_1" xmlns="http://www.w3.org/2000/svg" xmlns:xlink="http://www.w3.org/1999/xlink"
	 x="0px" y="0px" viewBox="0 0 64 64" overflow="visible" xml:space="preserve">
<path d="M39.54,8.14l0.19,1.85c0.02,0.22,0.19,0.4,0.41,0.43l7.5,1.12c0.21,0.03,0.42-0.08,0.51-0.27l0.81-1.7
	c0.14-0.29-0.04-0.64-0.37-0.69l-8.5-1.27C39.78,7.57,39.5,7.83,39.54,8.14z"/>
<path fill="none" stroke="#000000" stroke-width="1.9431" stroke-miterlimit="10" d="M55.45,32.61h-12.8c-0.29,0-0.56,0.15-0.7,0.4
	l-6.4,11.08c-0.14,0.25-0.14,0.56,0,0.81l6.4,11.08c0.14,0.25,0.41,0.4,0.7,0.4h12.8c0.29,0,0.56-0.15,0.7-0.4l6.4-11.08
	c0.14-0.25,0.14-0.56,0-0.81l-6.4-11.08C56,32.77,55.74,32.61,55.45,32.61z M52.54,48.21c-5.21,3.81-11.01-1.99-7.2-7.2
	c0.06-0.08,0.14-0.16,0.22-0.22c5.21-3.81,11.01,1.99,7.2,7.2C52.7,48.07,52.62,48.15,52.54,48.21z"/>
<path fill="none" stroke="#000000" stroke-width="1.9431" stroke-miterlimit="10" d="M36.1,28.38v-4.26c0-0.39-0.27-0.72-0.65-0.79
	l-3.83-0.76c-0.28-0.06-0.51-0.26-0.6-0.54c-0.18-0.51-0.38-1.01-0.62-1.49c-0.13-0.26-0.11-0.56,0.05-0.81l2.17-3.25
	c0.21-0.32,0.17-0.75-0.1-1.02l-3.01-3.01c-0.27-0.27-0.7-0.32-1.02-0.1l-3.25,2.17c-0.24,0.16-0.55,0.17-0.81,0.05
	c-0.48-0.24-0.98-0.44-1.49-0.62c-0.27-0.09-0.48-0.32-0.54-0.6l-0.76-3.83c-0.07-0.38-0.41-0.65-0.79-0.65H16.6
	c-0.39,0-0.72,0.27-0.79,0.65l-0.76,3.83c-0.06,0.28-0.26,0.51-0.54,0.6c-0.51,0.18-1.01,0.38-1.49,0.62
	c-0.26,0.13-0.56,0.11-0.81-0.05l-3.25-2.17c-0.32-0.21-0.75-0.17-1.02,0.1l-3.01,3.01c-0.27,0.27-0.32,0.7-0.1,1.02L7,19.73
	c0.16,0.24,0.17,0.55,0.05,0.81c-0.24,0.48-0.44,0.98-0.62,1.49c-0.09,0.27-0.32,0.48-0.6,0.54L2,23.32
	c-0.38,0.07-0.65,0.41-0.65,0.79v4.26c0,0.39,0.27,0.72,0.65,0.79l3.83,0.76c0.28,0.06,0.51,0.26,0.6,0.54
	c0.18,0.51,0.38,1.01,0.62,1.49c0.13,0.26,0.11,0.56-0.05,0.81l-2.17,3.25c-0.21,0.32-0.17,0.75,0.1,1.02l3.01,3.01
	c0.27,0.27,0.7,0.32,1.02,0.1l3.25-2.17c0.24-0.16,0.55-0.17,0.81-0.05c0.48,0.24,0.98,0.44,1.49,0.62c0.27,0.09,0.48,0.32,0.54,0.6
	l0.76,3.83c0.08,0.38,0.41,0.65,0.79,0.65h4.26c0.39,0,0.72-0.27,0.79-0.65l0.76-3.83c0.06-0.28,0.26-0.51,0.54-0.6
	c0.51-0.18,1.01-0.38,1.49-0.62c0.26-0.13,0.56-0.11,0.81,0.05l3.25,2.17c0.32,0.21,0.75,0.17,1.02-0.1l3.01-3.01
	c0.27-0.27,0.32-0.7,0.1-1.02l-2.17-3.25c-0.16-0.24-0.17-0.55-0.05-0.81c0.24-0.48,0.44-0.98,0.62-1.49
	c0.09-0.27,0.32-0.48,0.6-0.54l3.83-0.76C35.83,29.09,36.1,28.76,36.1,28.38z M23.64,31.35c-7.27,5.4-15.42-2.73-10.03-10.01
	c0.06-0.08,0.13-0.15,0.21-0.21c7.27-5.36,15.38,2.74,10.03,10.01C23.79,31.21,23.72,31.29,23.64,31.35z"/>
<g>
	<path d="M42.62,12.28l-0.39,2.6l2.28-0.97l0.2-1.33L42.62,12.28z M41.61,19.03l2.28-0.97l0.28-1.89l-2.28,0.97L41.61,19.03z
		 M41.22,21.68c-0.02,0.13-0.01,0.26,0.03,0.38l0.68,1.97l1.23-1.69c0.08-0.11,0.13-0.23,0.15-0.36l0.25-1.67l-2.28,0.97
		L41.22,21.68z"/>
</g>
<path d="M56.15,14.43l-1.17,1.44c-0.14,0.17-0.14,0.42-0.01,0.6l4.53,6.09c0.13,0.17,0.35,0.24,0.55,0.17l1.77-0.63
	c0.31-0.11,0.42-0.49,0.23-0.75l-5.14-6.9C56.73,14.2,56.35,14.19,56.15,14.43z"/>
<g>
	<path d="M55.42,19.55l-2.11,1.57l2.3,0.92l1.08-0.8L55.42,19.55z M49.95,23.62l2.3,0.92l1.53-1.14l-2.3-0.92L49.95,23.62z
		 M47.8,25.22c-0.1,0.08-0.19,0.18-0.24,0.3l-0.91,1.88l2.06-0.33c0.13-0.02,0.25-0.07,0.35-0.15l1.36-1.01l-2.3-0.92L47.8,25.22z"
		/>
</g>
</svg>
