<?xml version="1.0" encoding="utf-8"?>
<!-- Generator: Adobe Illustrator 25.4.1, SVG Export Plug-In . SVG Version: 6.00 Build 0)  -->
<svg version="1.1" baseProfile="tiny" id="Layer_1" xmlns="http://www.w3.org/2000/svg" xmlns:xlink="http://www.w3.org/1999/xlink"
	 x="0px" y="0px" width="40px" height="40px" viewBox="0 0 40 40" overflow="visible" xml:space="preserve">
<path fill-rule="evenodd" fill="#FFFFFF" d="M26.9,8.4c0,1.4,0,5.9,0,5.9l-3.5,0V7.9c0-2.5-2-4.4-4.4-4.4c-2.5,0-4.4,2-4.4,4.4v10.7
	l-3.5,0c0,0,0-8.5,0-10.3c0-4.4,3.5-7.9,7.9-7.9C23.3,0.4,26.9,4,26.9,8.4z"/>
<path fill-rule="evenodd" fill="#FFFFFF" d="M28.1,18.2H8.7c-0.4,0.4-0.7,0.7-1.1,1.1v17.5c1.3,1.3,2,2,3.2,3.2h19.4
	c0.4-0.4,0.7-0.7,1.1-1.1V21.5L28.1,18.2z M27.4,36.2H11.6v-14h15.8V36.2z"/>
</svg>
