<?xml version="1.0" encoding="utf-8"?>
<!-- Generator: Adobe Illustrator 25.3.1, SVG Export Plug-In . SVG Version: 6.00 Build 0)  -->
<svg version="1.1" baseProfile="tiny" id="Layer_1" xmlns="http://www.w3.org/2000/svg" xmlns:xlink="http://www.w3.org/1999/xlink"
	 x="0px" y="0px" viewBox="0 0 40 40" overflow="visible" xml:space="preserve">
<polygon fill="#FFFFFF" points="20,25.5 21.2,26.6 15,32.8 12.6,32.9 10.9,31.2 7.8,34.2 2.3,39.5 0.5,37.7 6,32.4 9.1,29.4 
	7.6,27.9 7.6,25.5 13.7,19.3 14.7,20.2 17.7,17.2 18.1,17.3 18.9,18 18.9,18.4 15.9,21.4 18.8,24.3 21.7,21.3 22.2,21.4 22.9,22.1 
	22.9,22.5 "/>
<polygon fill="#FFFFFF" points="16.4,12.1 14.4,12.4 12.1,3.6 16.3,3 "/>
<polygon fill="#FFFFFF" points="11.7,15.5 11.6,17.5 2.5,18 2.8,13.9 "/>
<polygon fill="#FFFFFF" points="23.5,28.6 25.5,28.3 27.7,37.1 23.6,37.7 "/>
<polygon fill="#FFFFFF" points="28.3,25.3 28.4,23.3 37.5,22.8 37.2,27 "/>
<polyline fill="#FFFFFF" points="29.3,9.1 32.4,6 37.7,0.5 39.5,2.3 34.2,7.8 31.1,10.9 32.8,12.6 32.8,15 26.6,21.2 19.2,13.7 
	25.5,7.6 27.9,7.6 "/>
</svg>
