<?xml version="1.0" encoding="utf-8"?>
<!-- Generator: Adobe Illustrator 27.8.0, SVG Export Plug-In . SVG Version: 6.00 Build 0)  -->
<svg version="1.1" baseProfile="tiny" id="Layer_1" xmlns="http://www.w3.org/2000/svg" xmlns:xlink="http://www.w3.org/1999/xlink"
	 x="0px" y="0px" viewBox="0 0 64 64" overflow="visible" xml:space="preserve">
<g>
	<path fill="#FFFFFF" d="M50.4,46.7L50.4,46.7l8.5,0.1c0.1,0,0.2,0,0.3,0.1s0.1,0.2,0.1,0.3V51c0,0.1,0,0.2-0.1,0.3
		s-0.2,0.1-0.3,0.1H43.5c-0.1,0-0.2,0-0.3-0.1s-0.1-0.2-0.1-0.3v-3.6c0-0.2,0.1-0.4,0.2-0.5c1.3-1.2,3.1-3,5.2-5.3l2-2.1
		c2-2.1,3-3.6,3-4.5c0-0.6-0.2-1.2-0.7-1.6c-0.5-0.4-1.1-0.6-1.8-0.6s-1.3,0.2-1.8,0.6c-0.5,0.4-0.7,1-0.7,1.6v0.8
		c0,0.1,0,0.2-0.1,0.3s-0.2,0.1-0.3,0.1h-4.7c-0.1,0-0.2,0-0.3-0.1S43,35.9,43,35.8v-1.6c0.1-1.2,0.5-2.3,1.2-3.2
		c0.7-0.9,1.7-1.6,2.9-2.1s2.5-0.7,3.9-0.7c1.6,0,3,0.3,4.2,0.9s2.1,1.4,2.8,2.4c0.6,1,1,2.2,1,3.4c0,0.9-0.2,1.8-0.7,2.7
		c-0.4,0.9-1.1,1.9-2,2.9c-0.6,0.7-1.3,1.5-2.1,2.3s-1.8,1.8-3.2,3.1l-0.7,0.6C50.3,46.6,50.3,46.6,50.4,46.7z"/>
</g>
<g>
	<path fill="#FFFFFF" d="M28.5,7.9c0.1-0.1,0.3-0.2,0.5-0.2h7.4c0.2,0,0.4,0.1,0.5,0.2c0.1,0.1,0.2,0.3,0.2,0.5v42.8
		c0,0.2-0.1,0.4-0.2,0.5c-0.1,0.1-0.3,0.2-0.5,0.2H29c-0.2,0-0.4-0.1-0.5-0.2c-0.1-0.1-0.2-0.3-0.2-0.5V33.8c0-0.2-0.1-0.3-0.3-0.3
		h-14c-0.2,0-0.3,0.1-0.3,0.3v17.5c0,0.2-0.1,0.4-0.2,0.5c-0.1,0.1-0.3,0.2-0.5,0.2H5.4c-0.2,0-0.4-0.1-0.5-0.2
		c-0.1-0.1-0.2-0.3-0.2-0.5V8.5c0-0.2,0.1-0.4,0.2-0.5c0.1-0.1,0.3-0.2,0.5-0.2h7.4c0.2,0,0.4,0.1,0.5,0.2c0.1,0.1,0.2,0.3,0.2,0.5
		v17c0,0.2,0.1,0.3,0.3,0.3h14c0.2,0,0.3-0.1,0.3-0.3v-17C28.2,8.2,28.3,8.1,28.5,7.9z"/>
</g>
</svg>
