<?xml version="1.0" encoding="utf-8"?>
<!-- Generator: Adobe Illustrator 23.1.0, SVG Export Plug-In . SVG Version: 6.00 Build 0)  -->
<svg version="1.1" id="Icon" xmlns="http://www.w3.org/2000/svg" xmlns:xlink="http://www.w3.org/1999/xlink" x="0px" y="0px"
	 viewBox="0 0 256 256" style="enable-background:new 0 0 256 256;" xml:space="preserve">
<style type="text/css">
	.st0{fill:#FFFFFF;}
</style>
<g>
	<polygon class="st0" points="104.6,203.3 116.3,223.5 128,243.7 139.7,223.5 151.4,203.3 136.4,203.3 137.6,5.7 118.4,5.7 
		119.6,203.3 	"/>
	<polygon class="st0" points="184.5,226.2 204.4,191.5 214,175 187.5,175 180.3,175 182.3,5.7 171.3,5.7 171.3,12.4 171.2,12.4 
		169.2,186 194.9,186 174.9,220.7 157.8,250.3 170.5,250.3 	"/>
	<polygon class="st0" points="81.1,220.7 61.1,186 86.8,186 84.8,5.7 73.7,5.7 75.7,175 68.5,175 42,175 51.6,191.5 71.5,226.2 
		85.5,250.3 98.2,250.3 	"/>
</g>
</svg>
