<?xml version="1.0" encoding="utf-8"?>
<!-- Generator: Adobe Illustrator 27.8.0, SVG Export Plug-In . SVG Version: 6.00 Build 0)  -->
<svg version="1.1" baseProfile="tiny" id="Layer_1" xmlns="http://www.w3.org/2000/svg" xmlns:xlink="http://www.w3.org/1999/xlink"
	 x="0px" y="0px" viewBox="0 0 64 64" overflow="visible" xml:space="preserve">
<path fill="#FFFFFF" d="M52.9,19.1H11.1c-1.5,0-2.8,1.3-2.8,2.8c0,1.5,1.3,2.8,2.8,2.8h4.5l2.8,34h27.2l2.8-34h4.5
	c1.5,0,2.8-1.3,2.8-2.8C55.7,20.4,54.4,19.1,52.9,19.1z M28.9,49.5c0,1.7-1.3,3-3,3c-1.7,0-3-1.4-3-3V30.4c0-1.7,1.3-3,3-3
	c1.7,0,3,1.3,3,3V49.5z M41.2,49.5c0,1.7-1.4,3-3,3c-1.6,0-3-1.4-3-3V30.4c0-1.7,1.4-3,3-3c1.7,0,3,1.3,3,3V49.5z"/>
<path fill="#FFFFFF" d="M41.7,13H22.3c1-4.4,4.9-7.7,9.7-7.7S40.7,8.6,41.7,13z"/>
</svg>
