<?xml version="1.0" encoding="utf-8"?>
<!-- Generator: Adobe Illustrator 27.8.0, SVG Export Plug-In . SVG Version: 6.00 Build 0)  -->
<svg version="1.1" baseProfile="tiny" id="b" xmlns="http://www.w3.org/2000/svg" xmlns:xlink="http://www.w3.org/1999/xlink"
	 x="0px" y="0px" viewBox="0 0 40 40" overflow="visible" xml:space="preserve">
<g id="d">
	<path fill="#FFFFFF" d="M40,18.4v3.3H19.2c-0.5,1-1.6,1.7-2.9,1.7c-1.9,0-3.4-1.5-3.4-3.4c0-1.8,1.5-3.3,3.4-3.3
		c1.3,0,2.4,0.7,2.9,1.7L40,18.4L40,18.4z"/>
	<path fill="#FFFFFF" d="M8.3,20c0,4.4,3.6,8,8,8h1.3v8.4h-2.7v-5.7c-2-0.3-3.7-1.1-5.2-2.2l-4,4l-1.9-1.9l4-4
		c-1.2-1.5-1.9-3.3-2.2-5.2H0v-2.7h5.7c0.3-2,1.1-3.7,2.2-5.2l-4-4l1.9-1.9l4,4c1.4-1.2,3.2-1.9,5.2-2.2V3.6h2.7V12h-1.3
		C11.9,12,8.3,15.6,8.3,20L8.3,20z"/>
	
		<rect x="21.9" y="9.6" transform="matrix(0.7065 -0.7078 0.7078 0.7065 -0.2892 21.1554)" fill="#FFFFFF" width="6.9" height="2.7"/>
	<rect x="24" y="25.6" transform="matrix(0.7072 -0.707 0.707 0.7072 -13.1281 26.4391)" fill="#FFFFFF" width="2.7" height="6.9"/>
</g>
</svg>
