<?xml version="1.0" encoding="utf-8"?>
<!-- Generator: Adobe Illustrator 28.5.0, SVG Export Plug-In . SVG Version: 9.03 Build 54727)  -->
<svg version="1.1" baseProfile="tiny" id="Layer_1" xmlns="http://www.w3.org/2000/svg" xmlns:xlink="http://www.w3.org/1999/xlink"
	 x="0px" y="0px" viewBox="0 0 64 64" overflow="visible" xml:space="preserve">
<g>
	<path fill="#FFFFFF" d="M56.11,51.29L49.08,22.9h-7.95c1.15-1.7,1.82-3.76,1.82-5.88c0-6.13-4.97-11.04-10.98-11.04
		c-6.07,0-10.98,4.91-10.98,11.04c0,2.12,0.67,4.19,1.76,5.88h-7.82L7.89,51.29c-0.85,3.4,1.7,6.73,5.22,6.73h37.73
		C54.35,58.02,56.96,54.69,56.11,51.29z M31.97,10.89c3.34,0,6.01,2.73,6.01,6.13c0,3.09-2.37,5.64-5.4,5.88
		c-0.18,0.06-0.36,0.06-0.61,0.06c-0.18,0-0.36,0-0.61-0.06c-3.09-0.24-5.46-2.79-5.46-5.88C25.91,13.62,28.63,10.89,31.97,10.89z
		 M29.42,52.26l-10.8-10.8l4.31-4.25l6.49,6.43l11.71-11.71l4.31,4.31L29.42,52.26z"/>
</g>
</svg>
