<?xml version="1.0" encoding="utf-8"?>
<!-- Generator: Adobe Illustrator 25.4.2, SVG Export Plug-In . SVG Version: 6.00 Build 0)  -->
<svg version="1.1" baseProfile="tiny" id="Layer_1" xmlns="http://www.w3.org/2000/svg" xmlns:xlink="http://www.w3.org/1999/xlink"
	 x="0px" y="0px" viewBox="0 0 97.6 97.6" overflow="visible" xml:space="preserve">
<g>
	<path fill="#191919" d="M64.7,48.2c0,8.8-7.1,15.9-15.9,15.9S32.9,57,32.9,48.2c0-8.8,7.1-15.9,15.9-15.9S64.7,39.4,64.7,48.2z"/>
	<path fill="#191919" d="M89.4,0H8.2C3.7,0,0,3.7,0,8.2v81.2c0,4.5,3.7,8.2,8.2,8.2h81.2c4.5,0,8.2-3.7,8.2-8.2V8.2
		C97.6,3.7,93.9,0,89.4,0z M81.7,53.8l-6.6,3v0c-0.5,1.7-1.2,3.3-2.1,4.9l2.6,6.9l-7,7l-7.2-2.7h0c-1.4,0.7-2.8,1.3-4.4,1.8
		l-3.2,7.1h-10l-3.2-7.1c-1.5-0.5-3-1.1-4.4-1.8h0L29,75.6l-7.1-7l2.6-6.9c-0.9-1.5-1.6-3.2-2.1-4.9v0l-6.6-3v-10l6.2-2.8
		c0.5-2,1.3-3.9,2.3-5.7L22,29l7.1-7l5.9,2.2c1.9-1.1,4-2,6.2-2.6h0l2.6-5.7h10l2.6,5.7h0c2.2,0.6,4.3,1.5,6.2,2.6h0l5.9-2.2l7,7
		l-2.3,6.2c1,1.8,1.7,3.7,2.3,5.7l6.2,2.8V53.8z"/>
</g>
</svg>
