<?xml version="1.0" encoding="utf-8"?>
<!-- Generator: Adobe Illustrator 27.8.0, SVG Export Plug-In . SVG Version: 6.00 Build 0)  -->
<svg version="1.1" baseProfile="tiny" id="Layer_1" xmlns="http://www.w3.org/2000/svg" xmlns:xlink="http://www.w3.org/1999/xlink"
	 x="0px" y="0px" viewBox="0 0 64 64" overflow="visible" xml:space="preserve">
<path fill="#FFFFFF" d="M43.6,9.1h-1.5v13c0,1.5-1.2,2.8-2.8,2.8H20.7c-1.5,0-2.8-1.2-2.8-2.8v-13h-3.7c-2.1,0-3.8,1.7-3.8,3.8v38.3
	c0,2.1,1.7,3.8,3.8,3.8h35.4c2.1,0,3.8-1.7,3.8-3.8V19L43.6,9.1z M47.3,51.8H17.9v-17c0-2.6,2.1-4.6,4.7-4.6h20.1
	c2.6,0,4.7,2.1,4.7,4.6V51.8z"/>
<path fill="#FFFFFF" d="M36.6,19.6H33c-0.3,0-0.6-0.3-0.6-0.6v-10h4.9v10C37.2,19.4,37,19.6,36.6,19.6z"/>
</svg>
