<?xml version="1.0" encoding="utf-8"?>
<!-- Generator: Adobe Illustrator 26.2.1, SVG Export Plug-In . SVG Version: 6.00 Build 0)  -->
<svg version="1.1" baseProfile="tiny" id="Layer_1" xmlns="http://www.w3.org/2000/svg" xmlns:xlink="http://www.w3.org/1999/xlink"
	 x="0px" y="0px" viewBox="0 0 350 350" overflow="visible" xml:space="preserve">
<g id="power_issue">
	<path fill-rule="evenodd" d="M302.2,33.6H47.8c-7.8,0-14.1,6.3-14.1,14.1v254.5c0,7.8,6.3,14.1,14.1,14.1h254.5
		c7.8,0,14.1-6.3,14.1-14.1V47.8C316.4,40,310,33.6,302.2,33.6z M288.1,288.1h-99v-58.6l-28.3,40v18.5h-99V61.9h99V122l28.3-40.3
		V61.9h99V288.1z"/>
	<polygon points="213.2,166.3 190.5,166.3 199.2,99.4 136.8,187.3 159.5,187.3 150.8,254.2 	"/>
</g>
</svg>
