<?xml version="1.0" encoding="utf-8"?>
<!-- Generator: Adobe Illustrator 27.8.0, SVG Export Plug-In . SVG Version: 6.00 Build 0)  -->
<svg version="1.1" baseProfile="tiny" id="Layer_1" xmlns="http://www.w3.org/2000/svg" xmlns:xlink="http://www.w3.org/1999/xlink"
	 x="0px" y="0px" viewBox="0 0 64 64" overflow="visible" xml:space="preserve">
<g>
	<path fill="#FFFFFF" d="M12.9,27.7c-1.7-1-3-2.3-4-4.1c-1-1.7-1.5-3.5-1.5-5.5c0-2,0.5-3.8,1.5-5.5s2.3-3,4-4s3.5-1.5,5.6-1.5
		s3.8,0.5,5.5,1.5c1.7,1,3,2.3,4,4c1,1.7,1.5,3.5,1.5,5.5S29,21.9,28,23.6c-1,1.7-2.3,3-4,4c-1.7,1-3.5,1.4-5.5,1.4
		C16.4,29.1,14.6,28.6,12.9,27.7z M22.1,21.8c1-1,1.5-2.3,1.5-3.7c0-1.4-0.5-2.7-1.5-3.7c-1-1-2.2-1.5-3.6-1.5
		c-1.5,0-2.7,0.5-3.7,1.5c-1,1.1-1.5,2.2-1.5,3.7s0.5,2.7,1.5,3.7s2.3,1.5,3.7,1.5C19.9,23.4,21.1,22.9,22.1,21.8z M15.2,56.1
		c-0.1-0.2-0.1-0.4,0.1-0.7L41.4,8.3c0.3-0.4,0.6-0.5,1.1-0.5h5.1c0.4,0,0.5,0.1,0.6,0.3c0.1,0.2,0.1,0.4-0.1,0.7L22,55.8
		c-0.3,0.4-0.6,0.5-1.1,0.5h-5.2C15.5,56.4,15.3,56.3,15.2,56.1z M40.1,55.5c-1.7-1-3-2.3-4.1-4.1c-1-1.7-1.5-3.5-1.5-5.5
		c0-2,0.5-3.8,1.5-5.5s2.3-3,4.1-4c1.7-1,3.5-1.4,5.5-1.4c1.9,0,3.8,0.4,5.5,1.4s3,2.3,4.1,4c1,1.7,1.5,3.5,1.5,5.5
		c0,1.9-0.5,3.8-1.5,5.5s-2.3,3-4.1,4.1c-1.7,1-3.5,1.5-5.5,1.5C43.6,57,41.7,56.5,40.1,55.5z M49.3,49.7c1.1-1,1.5-2.3,1.5-3.7
		c0-1.4-0.5-2.7-1.5-3.7c-1-1-2.2-1.5-3.7-1.5c-1.5,0-2.7,0.5-3.7,1.5c-1,1-1.5,2.2-1.5,3.7c0,1.5,0.5,2.7,1.5,3.7
		c1,1,2.2,1.5,3.7,1.5C47,51.2,48.2,50.8,49.3,49.7z"/>
</g>
</svg>
