<?xml version="1.0" encoding="utf-8"?>
<!-- Generator: Adobe Illustrator 28.6.0, SVG Export Plug-In . SVG Version: 9.03 Build 54939)  -->
<svg version="1.1" baseProfile="tiny" id="Layer_1" xmlns="http://www.w3.org/2000/svg" xmlns:xlink="http://www.w3.org/1999/xlink"
	 x="0px" y="0px" viewBox="0 0 32.7 35.2" overflow="visible" xml:space="preserve">
<g>
	<path fill="#7ACBDB" d="M20.9,25.6v-2.1c0-2.4,1.2-4.4,3.1-5.6V0h-6.3v11.4H6.3V0H0v27.9h6.3V16.4h11.5v11.6h6.3v-2.4h-1H20.9z"/>
	<path fill="#7ACBDB" d="M30.3,28.4c0.4-0.4,0.7-0.9,1.1-1.4c0.7-1,1.3-2.1,1.3-3.4c0-0.5-0.1-1-0.2-1.4c-0.1-0.3-0.2-0.6-0.4-0.8
		c-0.1-0.3-0.3-0.5-0.5-0.7c-0.9-1-2.2-1.6-3.8-1.6l0,0c0,0,0,0,0,0c-0.5,0-1,0.1-1.4,0.2c-0.2,0.1-0.5,0.1-0.7,0.2
		c-0.7,0.3-1.2,0.7-1.7,1.2c-0.7,0.8-1,1.7-1,2.9h1h1.4c0-0.2,0.1-0.4,0.1-0.7c0.1-0.4,0.3-0.8,0.6-1c0.1-0.1,0.2-0.2,0.3-0.2
		c0.1-0.1,0.2-0.1,0.3-0.1c0.3-0.1,0.6-0.2,1-0.2c1.2,0,2.3,0.7,2.3,2.2c0,0.9-0.4,1.7-1,2.6c-0.2,0.3-0.4,0.5-0.6,0.8l-5.5,6.5v1.9
		h9.7v-2.3h-6.1L30.3,28.4z"/>
</g>
</svg>
