<?xml version="1.0" encoding="utf-8"?>
<!-- Generator: Adobe Illustrator 28.5.0, SVG Export Plug-In . SVG Version: 9.03 Build 54727)  -->
<svg version="1.1" baseProfile="tiny" id="Layer_1" xmlns="http://www.w3.org/2000/svg" xmlns:xlink="http://www.w3.org/1999/xlink"
	 x="0px" y="0px" viewBox="0 0 64 64" overflow="visible" xml:space="preserve">
<g>
	<path fill="#FFFFFF" d="M62.25,32c0,2.8-2.28,5.08-5.08,5.08c-1.95,0-3.65-1.11-4.48-2.73h-6.4c-1.04,0-1.95-0.68-2.26-1.67
		l-1.41-4.65l-5.07,16.72c-0.31,0.99-1.21,1.67-2.24,1.67c-1.04,0-1.95-0.68-2.26-1.67l-5.07-16.72l-5.07,16.72
		c-0.31,0.99-1.21,1.67-2.26,1.67c-1.03,0-1.94-0.68-2.24-1.67l-3.15-10.4h-3.95c-0.84,1.61-2.53,2.73-4.48,2.73
		c-2.81,0-5.08-2.28-5.08-5.08s2.27-5.07,5.08-5.07c1.95,0,3.63,1.1,4.48,2.71h5.69c1.03,0,1.95,0.68,2.24,1.67l1.41,4.65
		l5.08-16.72c0.29-0.99,1.21-1.67,2.24-1.67c1.03,0,1.95,0.68,2.24,1.67l5.08,16.72l5.05-16.72c0.31-0.99,1.23-1.67,2.26-1.67
		s1.95,0.68,2.24,1.67l3.16,10.4h4.66c0.85-1.62,2.53-2.71,4.48-2.71C59.96,26.93,62.25,29.2,62.25,32z"/>
</g>
</svg>
