<?xml version="1.0" encoding="utf-8"?>
<!-- Generator: Adobe Illustrator 25.4.1, SVG Export Plug-In . SVG Version: 6.00 Build 0)  -->
<svg version="1.1" baseProfile="tiny" id="Layer_1" xmlns="http://www.w3.org/2000/svg" xmlns:xlink="http://www.w3.org/1999/xlink"
	 x="0px" y="0px" width="32px" height="32px" viewBox="0 0 32 32" overflow="visible" xml:space="preserve">
<path fill="#FFFFFF" d="M10.6,24.1l-2.7-0.9c1-3,0.2-5-0.4-6.6c-0.1-0.3-0.2-0.6-0.3-0.8c-0.2-0.2-0.3-0.4-0.3-0.7
	C6.2,13.4,5.3,11,6.5,6.5l2.8,0.8c-1,3.5-0.3,5.3,0.3,6.8c0.1,0.3,0.2,0.5,0.3,0.8c0.1,0.2,0.2,0.5,0.3,0.7
	C10.8,17.4,11.8,20.1,10.6,24.1z"/>
<path fill="#FFFFFF" d="M25.5,24.1l-2.7-0.9c1-3,0.2-5-0.4-6.6c-0.1-0.3-0.2-0.6-0.3-0.8c-0.1-0.2-0.2-0.4-0.3-0.7
	c-0.7-1.8-1.6-4.2-0.4-8.6l2.8,0.8c-1,3.5-0.3,5.3,0.3,6.8c0.1,0.3,0.2,0.5,0.3,0.8c0.1,0.2,0.2,0.5,0.3,0.7
	C25.7,17.4,26.8,20.1,25.5,24.1z"/>
<path fill="#FFFFFF" d="M17.2,26.2L14.6,25c1.9-4,1-6.4,0.2-8.3c-0.1-0.3-0.2-0.6-0.3-0.8c-0.1-0.2-0.2-0.4-0.3-0.7
	c-0.7-1.9-1.8-4.8,0.3-10.5l2.7,1c-1.7,4.7-0.9,6.8-0.3,8.5c0.1,0.3,0.2,0.5,0.3,0.8c0.1,0.2,0.2,0.5,0.3,0.7
	C18.3,17.6,19.6,21.1,17.2,26.2z"/>
<polygon fill="#FFFFFF" points="4.4,16.2 0,13.6 0,18.7 "/>
<polygon fill="#FFFFFF" points="27.6,16.2 32,18.7 32,13.6 "/>
<polygon fill="#FFFFFF" points="4.4,16.2 0,13.6 0,18.7 "/>
<polygon fill="#FFFFFF" points="27.6,16.2 32,18.7 32,13.6 "/>
</svg>
