<?xml version="1.0" encoding="utf-8"?>
<!-- Generator: Adobe Illustrator 29.6.1, SVG Export Plug-In . SVG Version: 9.03 Build 0)  -->
<svg version="1.1" baseProfile="tiny" id="Icons" xmlns="http://www.w3.org/2000/svg" xmlns:xlink="http://www.w3.org/1999/xlink"
	 x="0px" y="0px" viewBox="0 0 64 64" overflow="visible" xml:space="preserve">
<path fill="#FFFFFF" d="M26.6,64c0,0-0.1,0-0.1,0C26.3,64,7,62,7,42.1c0-4.6,1.2-8.1,2.4-11.5c1-2.9,2-5.6,2.1-8.8
	c0-0.5,0.3-1,0.8-1.3c0.5-0.3,1-0.3,1.5-0.1c0.2,0.1,3,1.4,5.1,4.1c0.6-1.9,1.4-4.5,2-7.4c1.5-7.3,1.9-15.4,1.9-15.5
	c0-0.5,0.3-1,0.7-1.3s1-0.3,1.5-0.1c0.6,0.2,14.5,6,21,16.4c3.1,5,3.8,10.4,3.9,13.8c0.7-0.6,1.6-1.4,2.5-2.6c0.4-0.5,1-0.7,1.5-0.6
	c0.6,0.1,1.1,0.5,1.3,1.1c0.2,0.6,4.6,13.8-0.8,24.6c-2.7,5.4-7.3,9.1-13.7,11.2c-0.6,0.2-1.3,0-1.8-0.5c-0.4-0.5-0.5-1.2-0.2-1.8
	c0.3-0.6,7.6-13.9-5.5-26.7c0.4,4.7,0.2,12-3.2,16.8c-0.5,0.7-1.5,0.9-2.2,0.4c-0.1-0.1-2-1.3-3.5-3.4c-1,3.4-1.4,8.7,3.3,12.5
	c0.5,0.5,0.7,1.2,0.5,1.9C27.9,63.6,27.3,64,26.6,64L26.6,64z M14.5,24.6c-0.4,2.5-1.2,4.8-2,7c-1.2,3.3-2.2,6.4-2.2,10.4
	c0,11.4,7.1,15.8,12,17.6C19,53.9,21,47,23,43.6c0.4-0.6,1-0.9,1.7-0.8c0.7,0.1,1.2,0.7,1.3,1.4c0.2,1.7,1.4,3.2,2.4,4.1
	c3.2-6.4,1.2-17,1.2-17.1c-0.1-0.7,0.2-1.3,0.8-1.7s1.3-0.3,1.9,0.1C46.3,40.7,44.9,53.3,43,59.4c3.8-1.9,6.6-4.7,8.4-8.2
	c3.4-6.8,2.3-15,1.4-19.2c-2.2,2.1-4,2.7-4.3,2.7c-0.5,0.1-1.1,0-1.5-0.3c-0.4-0.3-0.6-0.9-0.5-1.4c0-0.1,0.8-8.1-3.3-14.7
	C38.7,11,29.9,6.1,25.9,4.1c-0.2,3-0.7,8.5-1.8,13.6c-1.4,6.6-3.4,11.4-3.5,11.5c-0.3,0.7-0.9,1.1-1.6,1c-0.7-0.1-1.3-0.6-1.4-1.3
	C17.1,27,15.7,25.6,14.5,24.6L14.5,24.6z"/>
</svg>
