<?xml version="1.0" encoding="utf-8"?>
<!-- Generator: Adobe Illustrator 28.5.0, SVG Export Plug-In . SVG Version: 9.03 Build 54727)  -->
<svg version="1.1" baseProfile="tiny" id="Layer_1" xmlns="http://www.w3.org/2000/svg" xmlns:xlink="http://www.w3.org/1999/xlink"
	 x="0px" y="0px" viewBox="0 0 80.6 69.8" overflow="visible" xml:space="preserve">
<path d="M40.3,1.9c3.2,0,6,1.6,7.6,4.4l28,48.4c1.6,2.7,1.6,6,0,8.8c-1.6,2.7-4.4,4.4-7.6,4.4h-56c-3.2,0-6-1.6-7.6-4.4
	c-1.6-2.7-1.6-6,0-8.8l28-48.4C34.3,3.5,37.1,1.9,40.3,1.9 M40.3,0c-3.9,0-7.3,2-9.2,5.3l-28,48.4C1.2,57,1.2,61,3.1,64.4
	c1.9,3.3,5.4,5.3,9.2,5.3h55.9c3.9,0,7.3-2,9.2-5.3c1.9-3.3,1.9-7.3,0-10.7l-28-48.4C47.6,2,44.2,0,40.3,0L40.3,0z"/>
<path d="M73.3,56.1l-28-48.4c-2.1-3.9-7.9-3.9-10.1,0l-28,48.4c-2.3,4,0.6,8.9,5.1,8.9h55.9C72.8,65,75.6,60.1,73.3,56.1z M33.7,48
	c-0.8,2.6-2.3,4.7-4.2,6.3c0.4-2.5,1-4.7,1.1-6.8c0.2-3.3-1.9-6.3-2.3-9.7c-0.8-4,1.2-8.1,3.9-10.7c-0.3,2.5-0.8,4.8-0.7,6.9
	C31.6,38.6,35.3,43.2,33.7,48z M42.6,49.3c-0.9,3.1-2.8,5.6-5.1,7.5c0.5-3,1.2-5.7,1.2-8.1c0.2-3.9-2.2-7.5-2.8-11.6
	c-0.8-4.6,1.6-9.6,4.9-12.6c-0.3,3-0.9,5.7-0.8,8.2c0,4,2.5,7.5,3,11.7C43.2,46,43,47.8,42.6,49.3z M50.7,48
	c-0.8,2.6-2.3,4.7-4.2,6.3c0.4-2.5,1-4.7,1.1-6.8c0.2-3.3-1.9-6.3-2.3-9.7c-0.8-4,1.2-8.1,3.9-10.7c-0.3,2.5-0.8,4.8-0.7,6.9
	C48.6,38.6,52.3,43.2,50.7,48z"/>
</svg>
