<?xml version="1.0" encoding="utf-8"?>
<!-- Generator: Adobe Illustrator 28.5.0, SVG Export Plug-In . SVG Version: 9.03 Build 54727)  -->
<svg version="1.1" baseProfile="tiny" id="Layer_1" xmlns="http://www.w3.org/2000/svg" xmlns:xlink="http://www.w3.org/1999/xlink"
	 x="0px" y="0px" viewBox="0 0 20 20" overflow="visible" xml:space="preserve">
<path d="M10,7.8c-1,0.3-1.6,1.3-1.4,2.3c0.3,1,1.3,1.6,2.3,1.4c1-0.3,1.6-1.3,1.4-2.3C12.1,8.2,11,7.6,10,7.8z M19.9,11.8
	c-0.4-0.7-1.2-0.9-1.9-0.6c-0.2,0.1-0.3,0.2-0.4,0.3l-3.1-1c0.1-0.6,0.1-1.2,0-1.8c-0.2-0.9-0.8-1.7-1.5-2.2l1.5-2.6
	c0.1,0,0.2,0,0.3,0c0.8,0,1.4-0.7,1.3-1.5c0-0.8-0.7-1.4-1.5-1.3c-0.8,0-1.4,0.7-1.3,1.5c0,0.3,0.1,0.6,0.3,0.8L12.1,6
	c-0.8-0.3-1.7-0.4-2.6-0.2C9.1,5.9,8.8,6,8.5,6.1L6,2.3C6.2,1.9,6.3,1.5,6.2,1C6,0.3,5.3-0.1,4.5,0c-0.7,0.2-1.2,1-1,1.7
	c0.2,0.7,0.9,1.2,1.6,1l2.6,3.9c-1.1,1-1.6,2.5-1.2,4c0.1,0.4,0.2,0.7,0.4,1l-4.9,3.7c-0.2-0.1-0.5-0.2-0.8-0.2
	c-0.8,0-1.4,0.7-1.3,1.5C0,17.5,0.6,18,1.4,18c0.8,0,1.4-0.7,1.3-1.5c0-0.1,0-0.2-0.1-0.4l4.9-3.7c1,1,2.5,1.5,4,1.1
	c0.1,0,0.2-0.1,0.3-0.1l1.7,4.1c-0.1,0.1-0.2,0.3-0.3,0.5c-0.3,0.7,0.1,1.5,0.8,1.8c0.7,0.3,1.5-0.1,1.8-0.8
	c0.3-0.7-0.1-1.5-0.8-1.8c-0.2-0.1-0.4-0.1-0.6-0.1l-1.7-4.1c0.6-0.4,1.1-1,1.5-1.7l3.1,1c0,0.2,0.1,0.4,0.2,0.6
	c0.4,0.7,1.2,0.9,1.9,0.6C20,13.3,20.3,12.4,19.9,11.8z M11.3,12.8c-1.7,0.4-3.4-0.6-3.9-2.3C7,8.8,8,7.1,9.7,6.6
	c1.7-0.4,3.4,0.6,3.9,2.3C14,10.6,13,12.3,11.3,12.8z"/>
</svg>
