<?xml version="1.0" encoding="utf-8"?>
<!-- Generator: Adobe Illustrator 27.9.0, SVG Export Plug-In . SVG Version: 6.00 Build 0)  -->
<svg version="1.1" baseProfile="tiny" id="Layer" xmlns="http://www.w3.org/2000/svg" xmlns:xlink="http://www.w3.org/1999/xlink"
	 x="0px" y="0px" viewBox="0 0 32 21.6" overflow="visible" xml:space="preserve">
<path fill="#FFFFFF" d="M28.6,3.2l0.1,0.4l0.7,0.6v5.3l-0.3,0.2l-0.3,0.8h-1.1l-0.4-0.3h-3.1l-0.4,0.3h-1.1l-0.3-0.8l-0.3-0.2V4.2
	l0.7-0.6l0.1-0.4h1l0.3,0.3h3.1l0.3-0.3L28.6,3.2 M28.6,1.8L28.6,1.8h-1c-0.3,0-0.6,0.1-0.9,0.3h-1.9c-0.2-0.1-0.5-0.3-0.8-0.3h-1
	c-0.5,0-1.3,0.9-1.3,0.9l-0.5,0.4c-0.3,0.2-0.4,0.6-0.4,1v5.3c0,0.4,0.2,0.8,0.6,1.1l0.1,0.4c0.2,0.5,0.7,0.8,1.3,0.8h1.1l0,0
	c0.3,0,0.5-0.1,0.7-0.2l0,0h2.3l0,0c0.2,0.1,0.5,0.2,0.7,0.2l0,0h1.1c0.5,0,1-0.3,1.3-0.8l0.1-0.4c0.4-0.2,0.6-0.6,0.6-1.1V4.2
	c0-0.4-0.2-0.7-0.4-1l-0.5-0.4C29.7,2.8,29.1,1.8,28.6,1.8L28.6,1.8z M24.1,13.1h-4.9V2.8c0-0.4-3.4-0.4-3.4,0c0,0.4,0,2,0,2l1,2.2
	c0,0,0,4.8,0,8.4c-0.2-0.2-0.5-0.3-0.8-0.4v-4.4c0-0.3-0.1-0.6-0.3-0.8L13,6.1c-0.2-0.3-0.6-0.5-1-0.5H7.8C7,5.6,6.4,6.2,6.4,6.9
	v5.2l-3.6,0.6c-0.6,0.1-1.1,0.6-1.1,1.4v4.3c0,0.3,0.1,0.7,0.4,0.9c0.2,0.2,0.6,0.4,0.9,0.4h0.5c0.4,0.9,1.4,1.6,2.5,1.6
	c1,0,2-0.6,2.5-1.6h3.8c0.5,0.9,1.6,1.6,2.7,1.6c1,0,2.1-0.5,2.6-1.4c0.7,0,1.7-0.2,1.7-0.5v-4.5l4.9-0.8V13.1z M5.9,20.5
	c-1,0-2-0.8-2-2c0-1.1,0.8-2,2-2s2,0.8,2,2C7.9,19.6,7,20.5,5.9,20.5z M11.2,15.4h-1.1l-2.4-2.6V6.9h4.3l2.7,3.6v3.5h-2.2L11.2,15.4
	z M15,20.6c-1.4,0-2.4-1-2.4-2.4c0-1.4,1-2.4,2.4-2.4s2.4,1,2.4,2.4C17.3,19.5,16.3,20.6,15,20.6z M14.6,17.5l-0.8-0.8
	c-0.1-0.1-0.2-0.1-0.3,0l0,0c-0.1,0.1-0.1,0.2,0,0.3l0.8,0.8c0.1,0.1,0.2,0.1,0.3,0l0,0C14.7,17.7,14.7,17.6,14.6,17.5z M16.4,19.3
	l-0.8-0.8c-0.1-0.1-0.2-0.1-0.3,0l0,0c-0.1,0.1-0.1,0.2,0,0.3l0.8,0.8c0.1,0.1,0.2,0.1,0.3,0l0,0C16.5,19.5,16.5,19.4,16.4,19.3z
	 M13.9,19.6l2.5-2.5c0.1-0.1,0.1-0.2,0-0.3l0,0c-0.1-0.1-0.2-0.1-0.3,0l-2.5,2.5c-0.1,0.1-0.1,0.2,0,0.3l0,0
	C13.6,19.7,13.8,19.7,13.9,19.6z M25,5.7l-1.3-1.3c-0.1-0.1-0.4-0.1-0.5,0l0,0c-0.1,0.1-0.1,0.4,0,0.5l1.3,1.3
	c0.1,0.1,0.4,0.1,0.5,0l0,0C25.2,6.1,25.2,5.9,25,5.7z M28.1,8.8l-1.3-1.3c-0.1-0.1-0.4-0.1-0.5,0l0,0c-0.1,0.1-0.1,0.4,0,0.5
	l1.3,1.3c0.1,0.1,0.4,0.1,0.5,0l0,0C28.2,9.1,28.2,8.9,28.1,8.8z M23.8,9.3L28,5c0.1-0.1,0.1-0.4,0-0.5l0,0c-0.1-0.1-0.4-0.1-0.5,0
	l-4.2,4.2c-0.1,0.1-0.1,0.4,0,0.5l0,0C23.4,9.4,23.7,9.4,23.8,9.3z M5.6,17.7l-0.5-0.5c-0.1-0.1-0.2-0.1-0.3,0l0,0
	c-0.1,0.1-0.1,0.2,0,0.3L5.3,18c0.1,0.1,0.2,0.1,0.3,0l0,0C5.7,17.9,5.7,17.8,5.6,17.7z M7,19.3l-0.5-0.5c-0.1-0.1-0.2-0.1-0.3,0
	l0,0c-0.1,0.1-0.1,0.2,0,0.3l0.5,0.5c0.1,0.1,0.2,0.1,0.3,0l0,0C7.1,19.6,7.1,19.4,7,19.3z M5.1,19.6L7,17.7c0.1-0.1,0.1-0.2,0-0.3
	l0,0c-0.1-0.1-0.2-0.1-0.3,0l-1.9,1.9c-0.1,0.1-0.1,0.2,0,0.3l0,0C4.8,19.7,5,19.7,5.1,19.6z M15.1,4.6l0-1.6c0-0.1-0.1-0.3-0.3-0.3
	h0c-0.1,0-0.3,0.1-0.3,0.3l0,1.6c0,0.1,0.1,0.3,0.3,0.3h0C14.9,4.8,15.1,4.7,15.1,4.6z M14,3.8L14,3c0-0.1-0.1-0.3-0.3-0.3h0
	c-0.1,0-0.3,0.1-0.3,0.3l0,0.8c0,0.1,0.1,0.3,0.3,0.3l0,0C13.9,4.1,14,4,14,3.8z"/>
</svg>
