<?xml version="1.0" encoding="utf-8"?>
<!-- Generator: Adobe Illustrator 29.8.4, SVG Export Plug-In . SVG Version: 9.03 Build 0)  -->
<svg version="1.1" baseProfile="tiny" id="Layer_1" xmlns="http://www.w3.org/2000/svg" xmlns:xlink="http://www.w3.org/1999/xlink"
	 x="0px" y="0px" viewBox="0 0 16.24 16.1" overflow="visible" xml:space="preserve">
<path fill="#EFEFEF" d="M15.92,13.4c-0.5,0.8-1.4,1.3-2.5,1.3h-2v1.4l-1.8-1.3v-0.1h-0.1l-1.4-1l1.3-1h0.2v-0.1l1.8-1.4v1.5h2
	c0.4,0,0.7-0.2,0.8-0.3c0-0.1,0-0.4-0.2-0.8l-1.9-3.2l1.7-1l1.9,3.2C16.32,11.6,16.42,12.6,15.92,13.4z M11.42,3.1l-0.9-1.6
	c-1.2-2-3.6-2-4.8,0l-1.9,3.2l1.8,1.1l1.9-3.3c0.2-0.4,0.5-0.6,0.6-0.6s0.4,0.2,0.6,0.6l1,1.7l-1.3,0.7l1.2,0.5l0.9,0.4h0.1l1.6,0.7
	l0.2-1.7V4.7l0.3-2.3L11.42,3.1z M2.82,12.7c-0.4,0-0.7-0.2-0.8-0.3c0-0.2,0-0.5,0.2-0.8l1-1.6V9.9l0.1,0.1l1.1,0.6l-0.1-1.2l-0.1-1
	l-0.1-0.1l0.1-0.1l-0.2-1.7l-1.6,0.7v0.1h-0.2l-2,0.9l1.3,0.7l-1,1.7c-0.6,1-0.7,2-0.2,2.8c0.5,0.8,1.4,1.3,2.5,1.3h3.8v-2H2.82z"/>
</svg>
