<?xml version="1.0" encoding="utf-8"?>
<!-- Generator: Adobe Illustrator 27.6.1, SVG Export Plug-In . SVG Version: 6.00 Build 0)  -->
<svg version="1.1" baseProfile="tiny" xmlns="http://www.w3.org/2000/svg" xmlns:xlink="http://www.w3.org/1999/xlink" x="0px"
	 y="0px" viewBox="0 0 40 40" overflow="visible" xml:space="preserve">
<g id="Black_BG" display="none">
	<rect x="-3933.4" y="-3115.7" display="inline" width="7152" height="6096"/>
</g>
<g id="HUD_modes_x5F_icon">
</g>
<g id="Main_Layer">
	<g id="Zone_control_icons">
	</g>
	<path fill="#FFFFFF" d="M27.7,8.8l-6.2,0c-0.3,0-0.6-0.3-0.6-0.6l0-6.8c0-0.6-0.8-0.8-1.1-0.3l-8,14.2c-0.2,0.4,0.1,0.9,0.5,0.9
		l6.2,0c0.3,0,0.6,0.3,0.6,0.6l0,6.8c0,0.6,0.8,0.8,1.1,0.3l8-14.2C28.4,9.3,28.1,8.8,27.7,8.8z"/>
	<g>
		<path fill="#FFFFFF" d="M30.8,27.5H9.2c-0.5,0-0.8,0.6-0.4,1l10.8,10.8c0.2,0.2,0.6,0.2,0.9,0l10.8-10.8
			C31.6,28.1,31.4,27.5,30.8,27.5z"/>
	</g>
</g>
</svg>
