<?xml version="1.0" encoding="utf-8"?>
<!-- Generator: Adobe Illustrator 25.4.2, SVG Export Plug-In . SVG Version: 6.00 Build 0)  -->
<svg version="1.1" baseProfile="tiny" xmlns="http://www.w3.org/2000/svg" xmlns:xlink="http://www.w3.org/1999/xlink" x="0px"
	 y="0px" width="40px" height="40px" viewBox="0 0 40 40" overflow="visible" xml:space="preserve">
<g id="Black_BG" display="none">
	<rect x="-3989" y="-2806.3" display="inline" width="7152" height="6096"/>
</g>
<g id="HUD_modes_x5F_icon">
</g>
<g id="Main_Layer">
	<g id="Zone_control_icons">
	</g>
	<g id="frame_x5F_target_00000178199934794418372260000017313686391410340743_">
		<path fill="#FFFFFF" d="M20.2,11.1c-3.7,0-6.8,3-6.8,6.8c0,0.2,0,0.4,0,0.7c0.1,0.9,0.3,1.7,0.8,2.5l0.4,0.6l5.6,9.7L26,21.2
			l0.2-0.3c0.4-0.8,0.7-1.6,0.7-2.5c0-0.2,0-0.4,0-0.7C26.9,14.1,23.9,11.1,20.2,11.1z M20.4,21c-1.8,0-3.2-1.4-3.2-3.2
			c0-1.8,1.4-3.2,3.2-3.2c1.8,0,3.2,1.4,3.2,3.2C23.6,19.6,22.2,21,20.4,21z"/>
		<polygon fill="#FFFFFF" points="10.4,0 10.4,10.1 0,10.1 0,6.8 7.2,6.8 7.2,0 		"/>
		<polygon fill="#FFFFFF" points="40.1,10.4 30,10.4 30,0 33.3,0 33.3,7.2 40.1,7.2 		"/>
		<polygon fill="#FFFFFF" points="29.6,40 29.6,29.9 40,29.9 40,33.2 32.9,33.2 32.9,40 		"/>
		<polygon fill="#FFFFFF" points="0,29.6 10,29.6 10,40 6.8,40 6.8,32.8 0,32.8 		"/>
	</g>
</g>
</svg>
