<?xml version="1.0" encoding="utf-8"?>
<!-- Generator: Adobe Illustrator 26.2.1, SVG Export Plug-In . SVG Version: 6.00 Build 0)  -->
<svg version="1.1" baseProfile="tiny" id="Layer_1" xmlns="http://www.w3.org/2000/svg" xmlns:xlink="http://www.w3.org/1999/xlink"
	 x="0px" y="0px" viewBox="0 0 350 350" overflow="visible" xml:space="preserve">
<path id="Unlocked" fill-rule="evenodd" d="M238.2,160.7h-98.9v-75c0-17.9,14.4-32.3,32.3-32.3c17.8,0,32.3,14.4,32.3,32.3v46.1
	l25.1-0.1c0,0,0-33,0-43c0-31.7-25.7-57.4-57.4-57.4c-31.7,0-57.4,25.7-57.4,57.4c0,11.5,0.1,60,0.1,72H97.2c-3,3-4.8,4.8-7.8,7.8
	v126.7c9.1,9.1,14.3,14.3,23.4,23.4h141.1c3-3,4.8-4.8,7.8-7.8V184.1L238.2,160.7z M232.9,291.2H118.1V189.4h114.9V291.2z"/>
</svg>
