<?xml version="1.0" encoding="utf-8"?>
<!-- Generator: Adobe Illustrator 28.5.0, SVG Export Plug-In . SVG Version: 9.03 Build 54727)  -->
<svg version="1.1" baseProfile="tiny" id="Layer_1" xmlns="http://www.w3.org/2000/svg" xmlns:xlink="http://www.w3.org/1999/xlink"
	 x="0px" y="0px" viewBox="0 0 64 64" overflow="visible" xml:space="preserve">
<path fill="#FFFFFF" d="M24.9,32.4L23,34.3c-0.2-0.7-0.3-1.4-0.3-2.1c0-5.1,4.1-9.2,9.2-9.2c0.7,0,1.4,0.1,2.1,0.3l-1.9,1.9
	c-0.1,0-0.1,0-0.2,0c-3.9,0-7,3.1-7,7C24.9,32.3,24.9,32.4,24.9,32.4z M45.9,24.9c0,0.6,0.5,1.1,1.1,1.1h1.7c0.6,0,1.1-0.5,1.1-1.1
	c0-0.6-0.5-1.1-1.1-1.1H47c-0.3,0-0.5,0.1-0.7,0.3l-0.1,0.1C46,24.5,45.9,24.7,45.9,24.9z M38.9,32.3c0,3.9-3.1,7-7,7
	c-0.2,0-0.4,0-0.7-0.1L29.4,41c0.8,0.2,1.6,0.4,2.5,0.4c5.1,0,9.2-4.1,9.2-9.2c0-0.9-0.2-1.7-0.4-2.5l-1.8,1.8
	C38.9,31.8,38.9,32,38.9,32.3z M51.3,20.3l-1.2,0L48,22.4h3.2l0.1,21L27,43.5l-2.1,2.1h26.4c1.1,0,2.1-0.9,2.1-2.1V22.3
	C53.4,21.2,52.4,20.3,51.3,20.3z M48.7,27.4H47c-0.6,0-1.1,0.5-1.1,1.1c0,0.6,0.5,1.1,1.1,1.1h1.7c0.6,0,1.1-0.5,1.1-1.1
	C49.7,27.9,49.3,27.4,48.7,27.4z M10.4,43.5V24.2c0-1.1,0.9-2.1,2.1-2.1h0.9v-1.4c0-0.9,0.7-1.6,1.6-1.6h3.1c0.9,0,1.6,0.7,1.6,1.6
	v1.4h0.6l5.3-5.3c0.4-0.4,0.9-0.6,1.5-0.6h12.2c0.5,0,1,0.2,1.4,0.6L39,18.3l-12,0l-5.3,5.3c-0.4,0.4-0.9,0.6-1.5,0.6h-7.8l0.1,19.2
	l1.3,0l-1.9,1.9C11,45.2,10.4,44.4,10.4,43.5z M15.5,22.1h2v-0.9h-2V22.1z M12.6,54.8l42-42c1-1,1-2.6,0-3.5c-1-1-2.6-1-3.5,0
	l-42,42c-1,1-1,2.6,0,3.5c0.5,0.5,1.1,0.7,1.8,0.7C11.5,55.5,12.1,55.3,12.6,54.8z"/>
</svg>
