<?xml version="1.0" encoding="utf-8"?>
<!-- Generator: Adobe Illustrator 26.3.1, SVG Export Plug-In . SVG Version: 6.00 Build 0)  -->
<svg version="1.1" baseProfile="tiny" id="Layer_1" xmlns="http://www.w3.org/2000/svg" xmlns:xlink="http://www.w3.org/1999/xlink"
	 x="0px" y="0px" viewBox="0 0 40 40" overflow="visible" xml:space="preserve">
<path d="M30.3,7.8h-4.9V6h4.9V7.8z M30.3,11.6h-4.9v1.8h4.9V11.6z M30.3,17.2h-4.9V19h4.9V17.2z M25.8,29.7c0,2.2-0.8,4.2-2.4,5.7
	c-1.5,1.5-3.5,2.4-5.7,2.4s-4.2-0.8-5.7-2.4s-2.4-3.5-2.4-5.7s0.8-4.2,2.4-5.7l0.2-0.2V5c0-1.5,1.2-2.7,2.7-2.7h5.5
	c1.5,0,2.7,1.2,2.7,2.7l0.2,19C25,25.5,25.8,27.6,25.8,29.7z M22.2,29.7c0-1.2-0.5-2.3-1.3-3.1l-1.3-1.2V13.8c0-0.4-0.4-0.8-0.8-0.8
	h-2.1c-0.4,0-0.8,0.4-0.8,0.8l0,11.6l-1.3,1.2c-0.8,0.8-1.2,1.9-1.2,3.1c0,1.2,0.5,2.3,1.3,3.1c1.7,1.7,4.6,1.7,6.3,0
	C21.7,32,22.2,30.9,22.2,29.7z"/>
</svg>
