<?xml version="1.0" encoding="utf-8"?>
<!-- Generator: Adobe Illustrator 27.8.0, SVG Export Plug-In . SVG Version: 6.00 Build 0)  -->
<svg version="1.1" baseProfile="tiny" id="Layer_1" xmlns="http://www.w3.org/2000/svg" xmlns:xlink="http://www.w3.org/1999/xlink"
	 x="0px" y="0px" viewBox="0 0 64 64" overflow="visible" xml:space="preserve">
<path fill="#FFFFFF" d="M53.5,47.8c-0.3,0-0.6-0.1-0.8-0.3c-0.7-0.5-0.9-1.4-0.4-2.1c2.7-4,4.1-8.7,4.1-13.6s-1.4-9.6-4.1-13.6
	c-0.5-0.7-0.3-1.6,0.4-2.1c0.7-0.5,1.6-0.3,2.1,0.4c3,4.5,4.6,9.7,4.6,15.2s-1.6,10.8-4.6,15.2C54.4,47.6,54,47.8,53.5,47.8z"/>
<path fill="#FFFFFF" d="M10.5,47.8c-0.5,0-0.9-0.2-1.2-0.6c-3-4.4-4.6-9.7-4.6-15.2s1.6-10.8,4.6-15.2c0.5-0.7,1.4-0.8,2.1-0.4
	c0.7,0.5,0.9,1.4,0.4,2.1C9,22.4,7.6,27,7.6,32s1.4,9.6,4.1,13.6c0.5,0.7,0.3,1.6-0.4,2.1C11.1,47.7,10.8,47.8,10.5,47.8z"/>
<path fill="#FFFFFF" d="M46.4,11.9c-0.3,0-0.6-0.1-0.8-0.3c-7.9-5.4-19.2-5.4-27.1,0c-0.7,0.5-1.6,0.3-2.1-0.4
	c-0.5-0.7-0.3-1.6,0.4-2.1c8.9-6.1,21.5-6.1,30.4,0c0.7,0.5,0.9,1.4,0.4,2.1C47.3,11.7,46.9,11.9,46.4,11.9z"/>
<path fill="#FFFFFF" d="M32,59.3c-5.5,0-10.8-1.6-15.2-4.6c-0.7-0.5-0.9-1.4-0.4-2.1c0.5-0.7,1.4-0.9,2.1-0.4
	c7.9,5.4,19.2,5.4,27.1,0c0.7-0.5,1.6-0.3,2.1,0.4c0.5,0.7,0.3,1.6-0.4,2.1C42.8,57.7,37.5,59.3,32,59.3z"/>
<g>
	<polygon fill="#FFFFFF" points="40,29.7 27.8,48.7 26.5,48.7 30.2,33.9 24,33.9 27,16.7 37.9,16.7 32.7,29.7 	"/>
</g>
</svg>
