<?xml version="1.0" encoding="utf-8"?>
<!-- Generator: Adobe Illustrator 27.8.0, SVG Export Plug-In . SVG Version: 6.00 Build 0)  -->
<svg version="1.1" baseProfile="tiny" id="Layer_1" xmlns="http://www.w3.org/2000/svg" xmlns:xlink="http://www.w3.org/1999/xlink"
	 x="0px" y="0px" viewBox="0 0 64 64" overflow="visible" xml:space="preserve">
<path fill="#FFFFFF" d="M62.9,22.7l-5.4,15.1L44.9,27.7l6.2-1.7c-2.5-8.3-10.2-14.3-19.3-14.3c-7.5,0-14.3,4-17.8,10.5l-4.4-3.6
	c4.7-7.8,13-12.6,22.2-12.6c11.7,0,21.6,7.8,24.8,18.4L62.9,22.7z"/>
<path fill="#FFFFFF" d="M53.5,46c-4.7,7.4-12.9,12-21.8,12c-11.4,0-21.1-7.4-24.5-17.7L1.1,42l5.4-15.2l12.6,10.1l-6.5,1.8
	c2.7,7.9,10.2,13.6,19.1,13.6c7.2,0,13.9-3.8,17.5-10L53.5,46z"/>
</svg>
