<?xml version="1.0" encoding="utf-8"?>
<!-- Generator: Adobe Illustrator 25.4.2, SVG Export Plug-In . SVG Version: 6.00 Build 0)  -->
<svg version="1.1" baseProfile="tiny" id="Layer_1" xmlns="http://www.w3.org/2000/svg" xmlns:xlink="http://www.w3.org/1999/xlink"
	 x="0px" y="0px" viewBox="0 0 97.6 97.6" overflow="visible" xml:space="preserve">
<path fill="#191919" d="M79.5,55.4c0.2,0.3,0.2,0.8,0,1.1l-8.1,14H26.2l-8.1-14c-0.2-0.3-0.2-0.8,0-1.1l12.6-21.8
	c0.2-0.3,0.6-0.6,1-0.6h3.9c0.4,0,0.8,0.2,1,0.6l1.1,2c0.2,0.3,0.6,0.6,1,0.6H59c0.4,0,0.8-0.2,1-0.6l1.2-2c0.2-0.3,0.6-0.6,1-0.6
	h3.9c0.4,0,0.8,0.2,1,0.6L79.5,55.4z"/>
<path fill="#191919" d="M89.4,0H8.2C3.7,0,0,3.7,0,8.2v81.2c0,4.5,3.7,8.2,8.2,8.2h81.2c4.5,0,8.2-3.7,8.2-8.2V8.2
	C97.6,3.7,93.9,0,89.4,0z M32.9,8.9l2.4,5.8c0.5,1.3,1.8,2.1,3.2,2.1h20.6c1.4,0,2.7-0.8,3.2-2.1l2.4-5.8h6.5l-3.2,8
	c-1.3,3.2-4.4,5.3-7.9,5.3H37.6c-3.5,0-6.6-2.1-7.9-5.3l-3.2-8C26.5,8.9,32.9,8.9,32.9,8.9z M85.9,57.6L71,83.4
	c-0.6,1-1.6,1.6-2.7,1.6h-3.4c-0.9,1.9-2.9,3.2-5.1,3.2c-2.2,0-4.2-1.3-5.1-3.2H42.9c-0.9,1.9-2.9,3.2-5.1,3.2
	c-2.2,0-4.2-1.3-5.1-3.2h-3.4c-1.1,0-2.2-0.6-2.7-1.6L11.7,57.6c-0.6-1-0.6-2.2,0-3.1l14.9-25.9c0.6-1,1.6-1.6,2.7-1.6h39
	c1.1,0,2.2,0.6,2.7,1.6l14.9,25.9C86.5,55.4,86.5,56.6,85.9,57.6z"/>
<path fill="#191919" d="M59.7,84.8L59.7,84.8c-1.5,0-2.7-1.2-2.7-2.7V78c0-1.5,1.2-2.7,2.7-2.7l0,0c1.5,0,2.7,1.2,2.7,2.7v4
	C62.4,83.5,61.2,84.8,59.7,84.8z"/>
<path fill="#191919" d="M37.9,84.8L37.9,84.8c-1.5,0-2.7-1.2-2.7-2.7V78c0-1.5,1.2-2.7,2.7-2.7l0,0c1.5,0,2.7,1.2,2.7,2.7v4
	C40.7,83.5,39.4,84.8,37.9,84.8z"/>
</svg>
