<?xml version="1.0" encoding="utf-8"?>
<!-- Generator: Adobe Illustrator 28.5.0, SVG Export Plug-In . SVG Version: 9.03 Build 54727)  -->
<svg version="1.1" baseProfile="tiny" id="Layer_1" xmlns="http://www.w3.org/2000/svg" xmlns:xlink="http://www.w3.org/1999/xlink"
	 x="0px" y="0px" viewBox="0 0 80.6 69.8" overflow="visible" xml:space="preserve">
<path d="M40.3,1.9c3.2,0,6,1.6,7.6,4.4l28,48.4c1.6,2.7,1.6,6,0,8.8c-1.6,2.7-4.4,4.4-7.6,4.4h-56c-3.2,0-6-1.6-7.6-4.4
	c-1.6-2.7-1.6-6,0-8.8l28-48.4C34.3,3.5,37.1,1.9,40.3,1.9 M40.3,0c-3.9,0-7.3,2-9.2,5.3l-28,48.4C1.2,57,1.2,61,3.1,64.4
	c1.9,3.3,5.4,5.3,9.2,5.3h55.9c3.9,0,7.3-2,9.2-5.3c1.9-3.3,1.9-7.3,0-10.7l-28-48.4C47.6,2,44.2,0,40.3,0L40.3,0z"/>
<path d="M73.3,56.1l-28-48.4c-2.1-3.9-7.9-3.9-10.1,0l-28,48.4c-2.3,4,0.6,8.9,5.1,8.9h55.9C72.8,65,75.6,60.1,73.3,56.1z
	 M22.9,54.7L19.6,41L36,37l-0.7,3.2l4.6,2.7l-2,4.9l2.4,2.7L22.9,54.7z M56.9,55.8l-15.7-5.1l-0.6-3.6l4.3-3.1l-2.6-4.7l2.3-2.3
	l16.7,5.4L56.9,55.8z"/>
</svg>
