<?xml version="1.0" encoding="utf-8"?>
<!-- Generator: Adobe Illustrator 25.1.0, SVG Export Plug-In . SVG Version: 6.00 Build 0)  -->
<svg version="1.1" baseProfile="tiny" id="Layer_1" xmlns="http://www.w3.org/2000/svg" xmlns:xlink="http://www.w3.org/1999/xlink"
	 x="0px" y="0px" viewBox="0 0 130 130" overflow="visible" xml:space="preserve">
<path id="refuel_x5F_b" fill="#FFFFFF" d="M110.62,37.2l-5.2-8.55h-4c-1.67-2.47-2.95-4.48-3.85-6.05c-1.3-2.3-3.5-3.55-6.6-3.75
	V7.9c0-1.47-0.52-2.73-1.55-3.8c-1.07-1.07-2.35-1.6-3.85-1.6h-46c-1.47,0-2.73,0.53-3.8,1.6c-1.07,1.07-1.6,2.33-1.6,3.8V119H18.72
	c-0.73,0-1.37,0.27-1.9,0.8c-0.53,0.5-0.8,1.12-0.8,1.85v3.15c0,0.77,0.27,1.4,0.8,1.9c0.53,0.53,1.17,0.8,1.9,0.8h87.75
	c0.73,0,1.37-0.27,1.9-0.8c0.53-0.53,0.8-1.17,0.8-1.9v-3.15c0-0.73-0.27-1.35-0.8-1.85c-0.53-0.53-1.17-0.8-1.9-0.8h-15.5V60.1
	c1.07,0.13,1.82,0.58,2.25,1.35c0.47,0.77,0.7,2,0.7,3.7v37.45c0,5.4,1.28,9,3.85,10.8c2.2,1.53,4.6,1.48,7.2-0.15
	c2.27-1.47,4.45-2.97,6.55-4.5c1.57-1.13,2.38-2.93,2.45-5.4c0.07-2.33-0.57-5.02-1.9-8.05c-1-2.27-1.8-4.25-2.4-5.95
	c-0.67-1.8-1.1-2.95-1.3-3.45c-0.57-1.3-0.9-2.2-1-2.7c-0.1-0.47-0.15-1.52-0.15-3.15V52l0.9-1.15v-10.3L110.62,37.2 M102.62,85.75
	c0.3,1.43,0.83,2.93,1.6,4.5c1.17,2.33,2.4,5.03,3.7,8.1c1.33,3.13,1.07,5.37-0.8,6.7c-0.83,0.67-1.73,1.35-2.7,2.05
	c-1.37,0.93-2.6,1.27-3.7,1c-1.4-0.33-2.1-1.75-2.1-4.25V67.8c0-4.1-0.62-7.13-1.85-9.1c-1.07-1.73-3-3.13-5.8-4.2V22.05
	c1.83,0.2,3.22,1.05,4.15,2.55c0.73,1.2,1.63,2.77,2.7,4.7l-2.5,4.75l3.4,4.7L96.67,50.2h5.4v28.95
	C102.07,81.85,102.26,84.05,102.62,85.75 M81.07,10.45c0.73,0,1.37,0.27,1.9,0.8s0.8,1.17,0.8,1.9v26.7c0,0.77-0.27,1.4-0.8,1.9
	c-0.5,0.53-1.13,0.8-1.9,0.8H43.62c-0.73,0-1.37-0.27-1.9-0.8c-0.53-0.5-0.8-1.13-0.8-1.9v-26.7c0-0.73,0.27-1.37,0.8-1.9
	c0.53-0.53,1.17-0.8,1.9-0.8H81.07 M41.69,73.96c1.76-3.08,5.72-4.01,11.89-2.76c0.9-2.74,2.03-4.88,3.41-6.43
	c1.46-1.67,3.08-2.51,4.88-2.51c3.6,0,6.38,2.98,8.35,8.93c6.17-1.24,10.13-0.32,11.89,2.76s0.56,6.98-3.6,11.69
	c1.93,2.14,3.21,4.2,3.86,6.17c0.73,2.1,0.64,3.92-0.26,5.46c-1.29,2.18-3.73,3.28-7.32,3.28c-1.33,0-2.85-0.17-4.56-0.51
	c-1.97,5.95-4.75,8.93-8.35,8.93c-1.8,0-3.43-0.84-4.88-2.51c-1.37-1.54-2.51-3.68-3.41-6.43c-1.71,0.34-3.26,0.51-4.63,0.51
	c-3.64,0-6.06-1.09-7.26-3.28c-0.94-1.54-1.05-3.36-0.32-5.46c0.64-1.93,1.93-3.98,3.86-6.17C41.07,80.9,39.89,77,41.69,73.96
	 M76.26,96.64c1.33-0.21,2.16-0.64,2.51-1.29c0.39-0.64,0.32-1.56-0.19-2.76c-0.51-1.29-1.43-2.7-2.76-4.24
	c-0.94,0.9-2.21,1.95-3.79,3.15c-0.17,1.67-0.43,3.28-0.77,4.82C73.22,96.71,74.89,96.82,76.26,96.64 M57.31,99.09
	c0.64,1.88,1.39,3.38,2.25,4.5c0.81,1.03,1.58,1.54,2.31,1.54c0.77,0,1.56-0.51,2.38-1.54c0.86-1.11,1.61-2.61,2.25-4.5l-4.63-1.73
	L57.31,99.09 M56.02,94.33l0.26,1.03l0.96-0.32L56.02,94.33 M67.52,95.36l0.19-1.03l-0.58,0.39l-0.64,0.32L67.52,95.36 M56.66,76.6
	l0.58-0.39l-0.96-0.32l-0.26,1.03L56.66,76.6 M66.5,76.21l1.22,0.71l-0.19-1.03L66.5,76.21 M68.36,89.38v-7.52l-3.15-1.93
	c-0.26-0.13-1.37-0.73-3.34-1.8c-1.8,0.99-2.89,1.58-3.28,1.8l-3.15,1.93c-0.13,1.24-0.19,2.51-0.19,3.79s0.06,2.53,0.19,3.73
	c1.46,0.99,2.51,1.65,3.15,1.99l3.28,1.73L68.36,89.38 M72.34,84.95v1.41l0.84-0.71L72.34,84.95 M78.58,78.72
	c0.51-1.24,0.58-2.18,0.19-2.83c-0.34-0.64-1.18-1.05-2.51-1.22c-1.37-0.21-3.04-0.13-5.01,0.26c0.3,1.5,0.56,3.13,0.77,4.88
	c1.46,1.03,2.72,2.06,3.79,3.08C77.14,81.39,78.06,80,78.58,78.72 M64.25,67.73c-0.81-1.07-1.61-1.61-2.38-1.61
	c-0.73,0-1.5,0.54-2.31,1.61c-0.86,1.07-1.61,2.55-2.25,4.43l4.56,1.73l4.63-1.73C65.85,70.28,65.1,68.8,64.25,67.73 M47.54,96.64
	c1.37,0.17,3.04,0.06,5.01-0.32c-0.43-2.01-0.69-3.62-0.77-4.82c-1.5-1.16-2.78-2.21-3.86-3.15c-1.29,1.54-2.18,2.96-2.7,4.24
	c-0.51,1.24-0.58,2.16-0.19,2.76C45.38,96,46.21,96.43,47.54,96.64 M50.62,85.66l0.84,0.71l-0.06-0.71l0.06-0.71L50.62,85.66
	 M52.55,74.93c-1.33-0.26-2.51-0.39-3.53-0.39c-2.18,0-3.51,0.45-3.98,1.35c-0.39,0.64-0.32,1.58,0.19,2.83
	c0.51,1.29,1.41,2.68,2.7,4.18c1.24-1.07,2.53-2.1,3.86-3.08C51.87,78.57,52.12,76.94,52.55,74.93 M50.17,16.75h-2.1
	c-0.2,0-0.3,0.1-0.3,0.3v6.1c0,0.23,0.1,0.35,0.3,0.35h2.1c0.2,0,0.3-0.12,0.3-0.35v-6.1C50.47,16.85,50.37,16.75,50.17,16.75
	 M54.97,17.05c0-0.2-0.12-0.3-0.35-0.3h-2.05c-0.2,0-0.3,0.1-0.3,0.3v6.1c0,0.23,0.1,0.35,0.3,0.35h2.05c0.23,0,0.35-0.12,0.35-0.35
	V17.05 M72.92,17.05c0-0.2-0.12-0.3-0.35-0.3h-2.05c-0.2,0-0.3,0.1-0.3,0.3v6.1c0,0.23,0.1,0.35,0.3,0.35h2.05
	c0.23,0,0.35-0.12,0.35-0.35V17.05 M59.12,16.75h-2.05c-0.2,0-0.3,0.1-0.3,0.3v6.1c0,0.23,0.1,0.35,0.3,0.35h2.05
	c0.2,0,0.3-0.12,0.3-0.35v-6.1C59.42,16.85,59.32,16.75,59.12,16.75 M63.92,17.05c0-0.2-0.1-0.3-0.3-0.3h-2.05
	c-0.23,0-0.35,0.1-0.35,0.3v6.1c0,0.23,0.12,0.35,0.35,0.35h2.05c0.2,0,0.3-0.12,0.3-0.35V17.05 M66.02,16.75
	c-0.2,0-0.3,0.1-0.3,0.3v6.1c0,0.23,0.1,0.35,0.3,0.35h2.1c0.2,0,0.3-0.12,0.3-0.35v-6.1c0-0.2-0.1-0.3-0.3-0.3H66.02 M77.37,17.05
	c0-0.2-0.1-0.3-0.3-0.3h-2.05c-0.2,0-0.3,0.1-0.3,0.3v6.1c0,0.23,0.1,0.35,0.3,0.35h2.05c0.2,0,0.3-0.12,0.3-0.35V17.05z"/>
</svg>
