<?xml version="1.0" encoding="utf-8"?>
<!-- Generator: Adobe Illustrator 25.1.0, SVG Export Plug-In . SVG Version: 6.00 Build 0)  -->
<svg version="1.1" baseProfile="tiny" id="Layer_1" xmlns="http://www.w3.org/2000/svg" xmlns:xlink="http://www.w3.org/1999/xlink"
	 x="0px" y="0px" viewBox="0 0 32 32" overflow="visible" xml:space="preserve">
<path id="Store" fill="#FFFFFF" d="M23.63,1.93H8.33C6.75,1.92,5.37,2.49,4.2,3.62l0,0C3.07,4.81,2.51,6.2,2.52,7.79v21.5
	c0,0.18,0.06,0.32,0.17,0.43c0.14,0.14,0.3,0.22,0.47,0.22H28.8c0.18,0,0.32-0.07,0.43-0.22c0.14-0.11,0.21-0.26,0.22-0.43V7.79
	c0-1.59-0.56-2.98-1.68-4.17h-0.04C26.61,2.49,25.24,1.93,23.63,1.93 M26.82,4.53c0.89,0.93,1.33,2.01,1.34,3.26v20.85h-2.03v-12.6
	c0-0.63-0.23-1.18-0.69-1.65l-0.04-0.04c-0.42-0.46-0.97-0.69-1.64-0.7H8.25c-0.67,0-1.24,0.23-1.72,0.7
	c-0.43,0.45-0.64,1.02-0.65,1.69v12.6H3.81V7.79c0-1.23,0.44-2.31,1.29-3.21l0.04-0.04c0.9-0.86,1.96-1.3,3.19-1.3h15.3
	C24.89,3.23,25.95,3.66,26.82,4.53L26.82,4.53 M24.84,18.65v2.39H7.17v-2.39H24.84 M24.49,15.26c0.23,0.23,0.34,0.49,0.34,0.78v1.3
	H7.17v-1.3c0-0.31,0.08-0.57,0.26-0.78c0.23-0.2,0.51-0.31,0.82-0.3h15.51C24.06,14.95,24.3,15.06,24.49,15.26L24.49,15.26
	 M7.17,28.64v-2.61h17.67v2.61H7.17 M24.84,22.35v2.39H7.17v-2.39H24.84 M25.44,5.92c-0.01-0.02-0.03-0.03-0.04-0.04
	c-0.5-0.47-1.07-0.7-1.72-0.7H8.29c-0.67,0-1.24,0.23-1.72,0.7v0.04C6.1,6.43,5.87,7,5.88,7.66v2.52c0,0.18,0.06,0.32,0.17,0.43
	c0.14,0.14,0.3,0.22,0.47,0.22h18.96c0.18,0,0.32-0.07,0.43-0.22c0.14-0.11,0.21-0.26,0.22-0.43V7.66C26.13,7,25.9,6.43,25.44,5.92
	 M24.54,6.84c0.2,0.24,0.3,0.52,0.3,0.83v1.87H7.17V7.66c0-0.32,0.1-0.61,0.3-0.87h0.04c0.22-0.2,0.47-0.31,0.78-0.3h15.38
	c0.31,0,0.58,0.1,0.82,0.3C24.51,6.81,24.52,6.82,24.54,6.84z"/>
</svg>
