<?xml version="1.0" encoding="utf-8"?>
<!-- Generator: Adobe Illustrator 26.2.0, SVG Export Plug-In . SVG Version: 6.00 Build 0)  -->
<svg version="1.1" baseProfile="tiny" xmlns="http://www.w3.org/2000/svg" xmlns:xlink="http://www.w3.org/1999/xlink" x="0px"
	 y="0px" width="40px" height="40px" viewBox="0 0 40 40" overflow="visible" xml:space="preserve">
<g id="Black_BG" display="none">
	<rect x="-3760" y="-2977" display="inline" width="7152" height="6096"/>
</g>
<g id="HUD_modes_x5F_icon">
	<g id="sal">
		<g>
			<polygon fill="#FFFFFF" points="26.5,14.4 24.1,14.4 22.3,16.1 17.7,16.1 15.9,14.4 13.5,14.4 17.2,10.7 17.2,5.5 14.9,5.5 
				14.9,3.4 25.1,3.4 25.1,5.5 22.8,5.5 22.8,10.7 			"/>
		</g>
		<polygon fill="#FFFFFF" points="11.5,17.5 14.2,17.5 16,19.3 10.5,24.8 10.5,32.3 9.1,32.3 7,23.4 		"/>
		<polygon fill="#FFFFFF" points="28.5,17.5 25.8,17.5 24,19.3 29.5,24.8 29.5,32.3 30.9,32.3 33,23.4 		"/>
		<rect x="15.4" y="28" fill="#FFFFFF" width="9.3" height="9.3"/>
	</g>
</g>
<g id="Main_Layer">
	<g id="Zone_control_icons">
	</g>
</g>
</svg>
