<?xml version="1.0" encoding="utf-8"?>
<!-- Generator: Adobe Illustrator 27.8.0, SVG Export Plug-In . SVG Version: 6.00 Build 0)  -->
<svg version="1.1" baseProfile="tiny" id="Layer_1" xmlns="http://www.w3.org/2000/svg" xmlns:xlink="http://www.w3.org/1999/xlink"
	 x="0px" y="0px" viewBox="0 0 64 64" overflow="visible" xml:space="preserve">
<g>
	<g>
		<path fill="#FFFFFF" d="M56.1,47.4v7.4c-2,1.1-3.7,1.7-5.5,2c-6.4,0.9-12.2-2.5-16.2-4.9l-3.4-2c-5.6-3.4-13.9-8.4-23.1-3.1v-6.9
			c10.9-4.5,20.6,1.3,25.7,4.3l3.4,2C42.6,49.5,49,53.3,56.1,47.4z"/>
	</g>
	<g>
		<path fill="#FFFFFF" d="M56.1,31.9v7.4c-2,1.1-3.7,1.7-5.5,2c-6.4,0.9-12.2-2.5-16.2-4.9l-3.4-2C25.4,31,17.1,26,7.9,31.2v-6.9
			c10.9-4.5,20.6,1.3,25.7,4.3l3.4,2C42.6,34,49,37.9,56.1,31.9z"/>
	</g>
	<g>
		<path fill="#FFFFFF" d="M56.1,16.4v7.4c-2,1.1-3.7,1.7-5.5,2c-6.4,0.9-12.2-2.5-16.2-4.9l-3.4-2c-5.6-3.4-13.9-8.4-23.1-3.1v-7
			c10.9-4.5,20.6,1.3,25.7,4.3l3.4,2C42.6,18.6,49,22.4,56.1,16.4z"/>
	</g>
</g>
</svg>
