<?xml version="1.0" encoding="utf-8"?>
<!-- Generator: Adobe Illustrator 23.1.0, SVG Export Plug-In . SVG Version: 6.00 Build 0)  -->
<svg version="1.1" id="Icon" xmlns="http://www.w3.org/2000/svg" xmlns:xlink="http://www.w3.org/1999/xlink" x="0px" y="0px"
	 viewBox="0 0 256 256" style="enable-background:new 0 0 256 256;" xml:space="preserve">
<style type="text/css">
	.st0{fill:#FFFFFF;}
</style>
<g>
	<g>
		<path class="st0" d="M61.5,49.1c17.8-14.9,40.6-23.8,65.5-23.8s47.8,9,65.5,23.8l13-13C184.4,18,157,7,127,7S69.6,18,48.5,36.1
			L61.5,49.1z"/>
		<path class="st0" d="M218.4,49l-13,13c14.9,17.8,23.8,40.6,23.8,65.5s-9,47.8-23.8,65.5l13,13c18.1-21.1,29.1-48.5,29.1-78.5
			S236.5,70.1,218.4,49z"/>
		<path class="st0" d="M48.6,193c-14.9-17.8-23.8-40.6-23.8-65.5s9-47.8,23.8-65.5l-13-13C17.5,70.1,6.5,97.5,6.5,127.5
			s11,57.4,29.1,78.5L48.6,193z"/>
		<path class="st0" d="M192.5,205.9c-17.8,14.9-40.6,23.8-65.5,23.8s-47.8-9-65.5-23.8l-13,13C69.6,237,97,248,127,248
			s57.4-11,78.5-29.1L192.5,205.9z"/>
	</g>
	<g>
		<polygon class="st0" points="179.4,137.5 154.8,60.2 103.4,91.2 134.8,135.4 		"/>
		<polygon class="st0" points="99.2,179.9 108.5,194.8 162.5,194.8 179.3,154.7 133,152.6 		"/>
		<polygon class="st0" points="92,104.9 74.6,140.5 90,165.2 118.5,142.2 		"/>
	</g>
</g>
</svg>
