<?xml version="1.0" encoding="utf-8"?>
<!-- Generator: Adobe Illustrator 27.6.1, SVG Export Plug-In . SVG Version: 6.00 Build 0)  -->
<svg version="1.1" baseProfile="tiny" xmlns="http://www.w3.org/2000/svg" xmlns:xlink="http://www.w3.org/1999/xlink" x="0px"
	 y="0px" viewBox="0 0 40 40" overflow="visible" xml:space="preserve">
<g id="Black_BG" display="none">
	<rect x="-3885.3" y="-3115.7" display="inline" width="7152" height="6096"/>
</g>
<g id="HUD_modes_x5F_icon">
</g>
<g id="Main_Layer">
	<g id="Zone_control_icons">
	</g>
	<g>
		<rect x="18.2" y="3.2" fill="#FFFFFF" width="4.3" height="12.2"/>
		<path fill="#FFFFFF" d="M34.3,20c0,7.9-6.4,14.3-14.3,14.3c-7.9,0-14.3-6.4-14.3-14.3c0-5.7,3.3-10.5,8.1-12.9v5.4
			c-2.2,1.8-3.5,4.5-3.5,7.5c0,5.4,4.4,9.7,9.7,9.7c5.4,0,9.7-4.4,9.7-9.7c0-3-1.4-5.7-3.5-7.5V7.1C31,9.4,34.3,14.3,34.3,20z"/>
	</g>
</g>
</svg>
