<?xml version="1.0" encoding="utf-8"?>
<!-- Generator: Adobe Illustrator 23.1.0, SVG Export Plug-In . SVG Version: 6.00 Build 0)  -->
<svg version="1.1" id="Icon" xmlns="http://www.w3.org/2000/svg" xmlns:xlink="http://www.w3.org/1999/xlink" x="0px" y="0px"
	 viewBox="0 0 256 256" style="enable-background:new 0 0 256 256;" xml:space="preserve">
<style type="text/css">
	.st0{fill:#FFFFFF;}
</style>
<g>
	<polygon class="st0" points="132.8,123.5 120.6,114.2 152,90.2 120.6,66.1 132.8,56.8 132.8,5.2 121.5,5.2 121.5,51.2 102,66.1 
		133.4,90.2 102,114.2 121.5,129.1 121.5,160.2 102.2,160.2 114.6,181.8 127,203.3 139.4,181.8 151.8,160.2 132.8,160.2 	"/>
	<g>
		<path class="st0" d="M66.6,211.2c0,10.6,27.1,19.2,60.4,19.2c33.4,0,60.4-8.6,60.4-19.2c0-8-15.7-14.9-37.8-17.8l-5,8.7
			c18,1.8,29.1,6.2,32.7,9c-4.6,3.6-20.9,9.6-48.1,9.9h-4.5c-27.1-0.3-43.5-6.3-48.1-9.9c3.6-2.8,14.7-7.2,32.7-9l-5-8.7
			C82.2,196.2,66.6,203.1,66.6,211.2z"/>
		<path class="st0" d="M160.8,174l-5.1,8.8c54.6,4.2,84,19.8,84,28.4c0,10-39.8,29.4-112.8,29.4S14.2,221.2,14.2,211.2
			c0-8.6,29.4-24.2,84-28.4l-5.1-8.8C42.3,178.6,5,193.5,5,211.2c0,21.4,54.6,38.7,122,38.7c67.4,0,122-17.3,122-38.7
			C249,193.5,211.7,178.6,160.8,174z"/>
	</g>
</g>
</svg>
