<?xml version="1.0" encoding="utf-8"?>
<!-- Generator: Adobe Illustrator 25.4.2, SVG Export Plug-In . SVG Version: 6.00 Build 0)  -->
<svg version="1.1" baseProfile="tiny" xmlns="http://www.w3.org/2000/svg" xmlns:xlink="http://www.w3.org/1999/xlink" x="0px"
	 y="0px" width="40px" height="40px" viewBox="0 0 40 40" overflow="visible" xml:space="preserve">
<g id="Black_BG" display="none">
	<rect x="-3653.4" y="-2806.3" display="inline" width="7152" height="6096"/>
</g>
<g id="HUD_modes_x5F_icon">
</g>
<g id="Main_Layer">
	<g id="Zone_control_icons">
	</g>
	<g id="frame_x5F_target">
		<path fill="#FFFFFF" d="M4,30.5l2,0.6l-0.6,2.5l-3-1C1,32.1,0,30.8,0,29.3V9.8c0-1.5,1-2.9,2.4-3.3l3-1L6,7.9L4,8.5
			c-0.8,0.3-1.4,1-1.4,1.9v18.2C2.6,29.5,3.1,30.2,4,30.5z"/>
		<path fill="#FFFFFF" d="M19.2,10.7c-3.7,0-6.8,3-6.8,6.8c0,0.2,0,0.4,0,0.7c0.1,0.9,0.3,1.7,0.8,2.5l0.4,0.6l5.6,9.7L25,20.8
			l0.2-0.3c0.4-0.8,0.7-1.6,0.7-2.5c0-0.2,0-0.4,0-0.7C25.9,13.7,22.9,10.7,19.2,10.7z M19.4,20.6c-1.8,0-3.2-1.4-3.2-3.2
			c0-1.8,1.4-3.2,3.2-3.2c1.8,0,3.2,1.4,3.2,3.2C22.6,19.2,21.2,20.6,19.4,20.6z"/>
		<path fill="#FFFFFF" d="M35.9,8.5l-2-0.6l0.6-2.5l3,1c1.4,0.5,2.4,1.8,2.4,3.3v19.5c0,1.5-1,2.9-2.4,3.3l-3,1l-0.6-2.5l2-0.6
			c0.8-0.3,1.4-1,1.4-1.9V10.4C37.3,9.6,36.8,8.8,35.9,8.5z"/>
	</g>
</g>
</svg>
