<?xml version="1.0" encoding="utf-8"?>
<!-- Generator: Adobe Illustrator 30.2.1, SVG Export Plug-In . SVG Version: 9.03 Build 0)  -->
<svg version="1.1" baseProfile="tiny" id="Layer_1" xmlns="http://www.w3.org/2000/svg" xmlns:xlink="http://www.w3.org/1999/xlink"
	 x="0px" y="0px" viewBox="0 0 64 64" overflow="visible" xml:space="preserve">
<g id="_x31_">
	<g>
		<path fill="none" stroke="#000000" stroke-width="1.9431" stroke-miterlimit="10" d="M42.37,10.5c-0.22-0.19-0.55-0.03-0.55,0.25
			v11.89c0,1.41-1.13,2.63-2.63,2.63H24.06c-1.41,0-2.63-1.13-2.63-2.63V12.09c0-0.92-0.75-1.67-1.67-1.67h-5.36
			c-0.92,0-1.67,0.75-1.67,1.67v39.83c0,0.92,0.75,1.67,1.67,1.67h35.21c0.92,0,1.67-0.75,1.67-1.67v-31.5
			c0-0.44-0.17-0.86-0.48-1.18L42.37,10.5z M42.02,53.59H23.24c-0.73,0-1.33-0.59-1.33-1.32V38.85c0-0.73,0.6-1.32,1.33-1.32h15.33
			c1.94,0,3.52,1.56,3.52,3.42v12.64H42.02z"/>
	</g>
	<path fill="none" stroke="#000000" stroke-width="1.9431" stroke-miterlimit="10" d="M36.49,20.89h-3.03c-0.17,0-0.3-0.13-0.3-0.3
		v-6.03c0-0.17,0.13-0.3,0.3-0.3h3.03c0.17,0,0.3,0.13,0.3,0.3v6.03C36.79,20.76,36.66,20.89,36.49,20.89z"/>
	
		<line fill="none" stroke="#000000" stroke-width="1.9431" stroke-linecap="round" stroke-linejoin="round" stroke-miterlimit="10" x1="18.1" y1="10.41" x2="42.17" y2="10.41"/>
	<circle fill="none" stroke="#000000" stroke-width="1.9431" stroke-miterlimit="10" cx="46.66" cy="49.33" r="0.14"/>
	<circle fill="none" stroke="#000000" stroke-width="1.9431" stroke-miterlimit="10" cx="17.15" cy="49.33" r="0.14"/>
</g>
</svg>
