<?xml version="1.0" encoding="utf-8"?>
<!-- Generator: Adobe Illustrator 27.8.0, SVG Export Plug-In . SVG Version: 6.00 Build 0)  -->
<svg version="1.1" baseProfile="tiny" id="Layer_1" xmlns="http://www.w3.org/2000/svg" xmlns:xlink="http://www.w3.org/1999/xlink"
	 x="0px" y="0px" viewBox="0 0 64 64" overflow="visible" xml:space="preserve">
<path id="opacity:60" fill="#FFFFFF" d="M63.5,54.5L34.9,5c-1.2-2.1-4.6-2.1-5.8,0L0.4,54.5c-0.6,1.1-0.6,2.3,0,3.4
	c0.6,1.1,1.7,1.7,2.9,1.7h19.5v-2.8H3.4c-0.3,0-0.5-0.2-0.6-0.3c0-0.1-0.1-0.3,0-0.6L31.5,6.3C31.6,6.1,31.9,6,32,6
	c0.1,0,0.4,0,0.5,0.3l28.6,49.6c0.1,0.3,0.1,0.5,0,0.6c0,0.1-0.2,0.3-0.5,0.3H41.1v2.8h19.6c1.2,0,2.3-0.6,2.9-1.7
	C64.2,56.9,64.2,55.6,63.5,54.5z"/>
<polygon id="opacity:10" fill="#FFFFFF" points="32,12.4 8.4,53.3 55.6,53.3 "/>
<path id="opacity:100_00000114035528636319920910000000241388673641536385_" fill="#FFFFFF" d="M29.4,45.9c-0.1-0.1-0.2-0.3-0.2-0.4
	l-0.6-21.3c0-0.2,0.1-0.3,0.2-0.4c0.1-0.1,0.3-0.2,0.4-0.2h5.7c0.2,0,0.3,0.1,0.4,0.2c0.1,0.1,0.2,0.3,0.2,0.4l-0.7,21.3
	c0,0.2-0.1,0.3-0.2,0.4c-0.1,0.1-0.3,0.2-0.4,0.2h-4.4C29.6,46.1,29.5,46,29.4,45.9z"/>
<path id="opacity:100" fill="#FFFFFF" d="M29,59.4c-0.8-0.8-1.2-1.8-1.2-3.1c0-1.3,0.4-2.3,1.2-3.1c0.8-0.8,1.8-1.2,3.1-1.2
	c1.3,0,2.3,0.4,3.1,1.2c0.8,0.8,1.2,1.8,1.2,3.1c0,1.2-0.4,2.2-1.2,3.1c-0.8,0.8-1.8,1.2-3,1.2C30.8,60.6,29.8,60.2,29,59.4z"/>
</svg>
