<?xml version="1.0" encoding="utf-8"?>
<!-- Generator: Adobe Illustrator 26.3.1, SVG Export Plug-In . SVG Version: 6.00 Build 0)  -->
<svg version="1.1" id="Layer_1" xmlns="http://www.w3.org/2000/svg" xmlns:xlink="http://www.w3.org/1999/xlink" x="0px" y="0px"
	 viewBox="0 0 40 40" style="enable-background:new 0 0 40 40;" xml:space="preserve">
<path d="M25.1,31.9c0,1-0.8,1.8-1.8,1.8c-1,0-1.8-0.8-1.8-1.8c0-1,0.8-1.8,1.8-1.8C24.3,30.1,25.1,30.9,25.1,31.9z M19.7,35.5
	c-0.6,0-1.2,0.5-1.2,1.2c0,0.6,0.5,1.2,1.2,1.2c0.6,0,1.2-0.5,1.2-1.2C20.9,36,20.4,35.5,19.7,35.5z M19.6,27.9c0-1.2-1-2.2-2.2-2.2
	s-2.2,1-2.2,2.2c0,1.2,1,2.2,2.2,2.2S19.6,29.1,19.6,27.9z M21.5,23c1.9,0,3.4-1.5,3.4-3.4s-1.5-3.4-3.4-3.4c-1.9,0-3.4,1.5-3.4,3.4
	S19.6,23,21.5,23z M13.3,17.7c-1,0-1.8,0.8-1.8,1.8s0.8,1.8,1.8,1.8c1,0,1.8-0.8,1.8-1.8S14.3,17.7,13.3,17.7z M27.7,10.1
	c-1.7,0-3,1.4-3,3c0,1.7,1.4,3,3,3c1.7,0,3-1.4,3-3C30.7,11.5,29.4,10.1,27.7,10.1z M26.6,23c-0.6,0-1.2,0.5-1.2,1.2
	s0.5,1.2,1.2,1.2c0.6,0,1.2-0.5,1.2-1.2S27.2,23,26.6,23z M36.1,2.2H3.9c-0.7,0-1.3,0.6-1.3,1.3v6.4h9.9c0,0.1,0,0.2,0,0.2
	c0,1.9,1.5,3.4,3.4,3.4c1.9,0,3.4-1.5,3.4-3.4c0-0.1,0-0.2,0-0.2H24c0-1.9,1.5-3.4,3.4-3.4c1.9,0,3.4,1.5,3.4,3.4h0.3h6.3V3.6
	C37.4,2.8,36.8,2.2,36.1,2.2z"/>
</svg>
