<?xml version="1.0" encoding="utf-8"?>
<!-- Generator: Adobe Illustrator 25.1.0, SVG Export Plug-In . SVG Version: 6.00 Build 0)  -->
<svg version="1.1" baseProfile="tiny" id="Layer_1" xmlns="http://www.w3.org/2000/svg" xmlns:xlink="http://www.w3.org/1999/xlink"
	 x="0px" y="0px" viewBox="0 0 32 32" overflow="visible" xml:space="preserve">
<path id="retrieve" fill="#FFFFFF" d="M16.26,6.39c-0.22,0-0.41,0.08-0.57,0.24L6.73,15.6c-0.16,0.16-0.24,0.35-0.24,0.57
	c0,0.22,0.08,0.41,0.24,0.57l9,9c0.16,0.16,0.35,0.24,0.57,0.24c0.22,0,0.41-0.08,0.57-0.24c0.16-0.16,0.24-0.35,0.24-0.57v-4.58
	c4.21-0.29,7.65,0.38,10.3,2.03c1.34,0.85,2.25,1.71,2.72,2.6c0.09,0.18,0.23,0.3,0.41,0.36c0.18,0.09,0.35,0.11,0.53,0.04
	c0.2-0.04,0.35-0.15,0.45-0.32c0.12-0.15,0.18-0.32,0.16-0.53c-0.14-2.08-0.88-4.2-2.23-6.37l0,0c-2.58-4.08-6.7-6.31-12.37-6.69
	v-4.5c0-0.22-0.08-0.41-0.24-0.57C16.67,6.48,16.48,6.4,16.26,6.39 M29.4,22.01c-0.33-0.25-0.71-0.51-1.14-0.77
	c-3.06-1.94-7.07-2.67-12.04-2.19c-0.21,0.02-0.38,0.1-0.53,0.24c-0.14,0.17-0.21,0.36-0.2,0.57v3.37l-7.06-7.06l7.02-7.02v3.33
	c0,0.22,0.07,0.41,0.2,0.57c0.17,0.16,0.36,0.24,0.57,0.24c5.46,0.21,9.4,2.21,11.84,6v-0.04C28.64,20.19,29.09,21.11,29.4,22.01
	 M9.77,6.39c-0.22,0-0.41,0.08-0.57,0.24L0.24,15.6C0.08,15.76,0,15.95,0,16.17c0,0.22,0.08,0.41,0.24,0.57l9,9
	c0.16,0.16,0.35,0.24,0.57,0.24c0.22,0,0.41-0.08,0.57-0.24c0.16-0.16,0.24-0.35,0.24-0.57c0-0.22-0.08-0.41-0.24-0.57l-8.43-8.43
	l8.39-8.39c0.16-0.16,0.24-0.35,0.24-0.57c0-0.22-0.08-0.41-0.24-0.57C10.18,6.48,9.99,6.4,9.77,6.39z"/>
</svg>
