<?xml version="1.0" encoding="utf-8"?>
<!-- Generator: Adobe Illustrator 27.8.0, SVG Export Plug-In . SVG Version: 6.00 Build 0)  -->
<svg version="1.1" baseProfile="tiny" id="Layer_1" xmlns="http://www.w3.org/2000/svg" xmlns:xlink="http://www.w3.org/1999/xlink"
	 x="0px" y="0px" viewBox="0 0 64 64" overflow="visible" xml:space="preserve">
<path fill="#FFFFFF" d="M14.3,30.9C14.2,30.9,14.2,30.9,14.3,30.9L14.3,30.9L14.3,30.9z"/>
<path fill="#FFFFFF" d="M29.6,52.1c-2.3,5.6-7.8,9.5-14.2,9.5C6.9,61.6,0,54.7,0,46.2c0-8.1,6.3-14.8,14.2-15.4v11.8
	c0,0,14.1-4.7,14.2-4.7v0l-2.3,11.8L29.6,52.1z"/>
<polygon fill="#FFFFFF" points="19,35.6 30.8,4.7 37.9,9.5 "/>
<polygon fill="#FFFFFF" points="30.8,35.6 56.9,2.4 64,9.5 "/>
<polygon fill="#FFFFFF" points="30.8,47.4 56.9,37.9 56.9,49.8 30.8,47.4 "/>
<polygon fill="#FFFFFF" points="49.8,30.9 61.6,23.7 61.6,30.8 "/>
<polygon fill="#FFFFFF" points="11.9,28.4 14.2,14.2 7.1,14.2 "/>
</svg>
