<?xml version="1.0" encoding="utf-8"?>
<!-- Generator: Adobe Illustrator 28.5.0, SVG Export Plug-In . SVG Version: 9.03 Build 54727)  -->
<svg version="1.1" baseProfile="tiny" id="Layer_1" xmlns="http://www.w3.org/2000/svg" xmlns:xlink="http://www.w3.org/1999/xlink"
	 x="0px" y="0px" viewBox="0 0 20 20" overflow="visible" xml:space="preserve">
<path fill-rule="evenodd" d="M20,5v1.1c0,0.6-0.5,1.1-1.1,1.1h-3.2c-0.6,0-1.1-0.5-1.1-1.1V5c0-0.6,0.5-1.1,1.1-1.1h1.1V0.3h1.1v3.7
	h1.1C19.5,3.9,20,4.4,20,5z M16.8,19.7h1.1V8.2h-1.1V19.7z M11.6,12.9h-1.1V0.3H9.5v12.6H8.4c-0.6,0-1.1,0.5-1.1,1.1V15
	c0,0.6,0.5,1.1,1.1,1.1h3.2c0.6,0,1.1-0.5,1.1-1.1v-1.1C12.6,13.4,12.2,12.9,11.6,12.9z M9.5,19.7h1.1v-2.6H9.5V19.7z M4.2,8.2H3.2
	V0.3H2.1v7.9H1.1C0.5,8.2,0,8.6,0,9.2v1.1c0,0.6,0.5,1.1,1.1,1.1h3.2c0.6,0,1.1-0.5,1.1-1.1V9.2C5.3,8.6,4.8,8.2,4.2,8.2z M2.1,19.7
	h1.1v-7.4H2.1V19.7z"/>
</svg>
