<?xml version="1.0" encoding="utf-8"?>
<!-- Generator: Adobe Illustrator 29.1.0, SVG Export Plug-In . SVG Version: 9.03 Build 55587)  -->
<svg version="1.1" baseProfile="tiny" id="Layer_1" xmlns="http://www.w3.org/2000/svg" xmlns:xlink="http://www.w3.org/1999/xlink"
	 x="0px" y="0px" viewBox="0 0 36 32" overflow="visible" xml:space="preserve">
<path fill="#FFFFFF" d="M18,10.9c-4.7,0-8.6,3.8-8.6,8.6c0,4.7,3.8,8.6,8.6,8.6c4.7,0,8.6-3.8,8.6-8.6C26.6,14.7,22.7,10.9,18,10.9z
	 M10.2,19.5c0-1.9,0.7-3.6,1.8-5l11,11c-1.4,1.1-3.1,1.8-5,1.8C13.7,27.3,10.2,23.8,10.2,19.5z M23.5,24.9l-11-11
	c1.4-1.4,3.3-2.3,5.5-2.3c4.3,0,7.8,3.5,7.8,7.8C25.8,21.6,24.9,23.5,23.5,24.9z"/>
</svg>
