<?xml version="1.0" encoding="utf-8"?>
<!-- Generator: Adobe Illustrator 26.0.2, SVG Export Plug-In . SVG Version: 6.00 Build 0)  -->
<svg version="1.1" baseProfile="tiny" id="Layer_2" xmlns="http://www.w3.org/2000/svg" xmlns:xlink="http://www.w3.org/1999/xlink"
	 x="0px" y="0px" viewBox="0 0 256 256" overflow="visible" xml:space="preserve">
<g>
	<path d="M128,16.2c8.5,0,17,3.2,23.5,9.7l78.8,78.8c13,13,13,34,0,46.9l-78.8,78.8c-6.5,6.5-15,9.7-23.5,9.7
		c-8.5,0-17-3.2-23.5-9.7l-78.8-78.8c-13-13-13-34,0-46.9L104.6,26C111,19.5,119.5,16.2,128,16.2 M128,1.1c-12.9,0-25,5-34.1,14.1
		L15.1,94.1c-18.8,18.8-18.8,49.4,0,68.3l78.8,78.8c9.1,9.1,21.2,14.1,34.1,14.1c12.9,0,25-5,34.1-14.1l78.8-78.8
		c18.8-18.8,18.8-49.4,0-68.3l-78.8-78.8C153,6.2,140.9,1.1,128,1.1L128,1.1z"/>
</g>
</svg>
