<?xml version="1.0" encoding="utf-8"?>
<!-- Generator: Adobe Illustrator 25.4.6, SVG Export Plug-In . SVG Version: 6.00 Build 0)  -->
<svg version="1.1" baseProfile="tiny" xmlns="http://www.w3.org/2000/svg" xmlns:xlink="http://www.w3.org/1999/xlink" x="0px"
	 y="0px" width="40px" height="40px" viewBox="0 0 40 40" overflow="visible" xml:space="preserve">
<g id="Black_BG" display="none">
	<rect x="-3556.3" y="-2660.1" display="inline" width="7152" height="6096"/>
</g>
<g id="HUD_modes_x5F_icon">
</g>
<g id="Main_Layer">
	<g id="Zone_control_icons">
	</g>
	<g id="Close__x2F__closed">
		<g id="SensorIcon_x2F_Door_00000014632617111382608210000005602192476277664189_">
			<path id="Combined-Shape_00000005231867918847225360000006955577246349030317_" fill-rule="evenodd" fill="#FFFFFF" d="M36.3,2
				c1,0,1.8,0.8,1.8,1.8v32.4c0,1-0.8,1.8-1.8,1.8H3.8c-1,0-1.8-0.8-1.8-1.8V3.8C2,2.8,2.8,2,3.8,2H36.3z M18.3,5.6H5.6v28.8h12.6
				V5.6z M34.5,5.6H21.9v28.8h12.6V5.6z"/>
		</g>
		<polygon fill="#FFFFFF" points="26.7,23.3 22.3,20 26.7,16.7 		"/>
		<polygon fill="#FFFFFF" points="13.4,16.7 17.7,20 13.4,23.3 		"/>
	</g>
</g>
</svg>
