<?xml version="1.0" encoding="utf-8"?>
<!-- Generator: Adobe Illustrator 27.5.0, SVG Export Plug-In . SVG Version: 6.00 Build 0)  -->
<svg version="1.1" baseProfile="tiny" id="Layer_1" xmlns="http://www.w3.org/2000/svg" xmlns:xlink="http://www.w3.org/1999/xlink"
	 x="0px" y="0px" viewBox="0 0 40 40" overflow="visible" xml:space="preserve">
<path d="M37.2,12.2c-1.1-0.6-2.1-1-3.9-1H30v-0.2c-1.2,0-2.5-0.1-3.5-0.6l-0.7-0.4c-0.4-0.2-1-0.4-1.6-0.4h-19v0.7H3.8V9.6H2.7V17
	h1.1v-0.7h1.4V17h19c0.6,0,1.1-0.1,1.6-0.4l0.7-0.4c1-0.5,2.2-0.6,3.5-0.6v-0.2h3.3c1.9,0,2.8-0.4,3.9-1c0.8-0.4,1.2-1.1,1.2-1.1
	S38,12.6,37.2,12.2z"/>
<path d="M37.2,25.6c-1.1-0.6-2.1-1-3.9-1H30v-0.2c-1.2,0-2.5-0.1-3.5-0.6l-0.7-0.4c-0.4-0.2-1-0.4-1.6-0.4h-19v0.7H3.8V23H2.7v7.4
	h1.1v-0.7h1.4v0.7h19c0.6,0,1.1-0.1,1.6-0.4l0.7-0.4c1-0.5,2.2-0.6,3.5-0.6v-0.2h3.3c1.9,0,2.8-0.4,3.9-1c0.8-0.4,1.2-1.1,1.2-1.1
	S38,25.9,37.2,25.6z"/>
</svg>
