<?xml version="1.0" encoding="utf-8"?>
<!-- Generator: Adobe Illustrator 25.4.2, SVG Export Plug-In . SVG Version: 6.00 Build 0)  -->
<svg version="1.1" id="Layer_1" xmlns="http://www.w3.org/2000/svg" xmlns:xlink="http://www.w3.org/1999/xlink" x="0px" y="0px"
	 viewBox="0 0 97.6 97.6" style="enable-background:new 0 0 97.6 97.6;" xml:space="preserve">
<style type="text/css">
	.st0{fill:#191919;}
</style>
<path class="st0" d="M88.3,0h-79C4.2,0,0,4.2,0,9.3v79c0,5.1,4.2,9.3,9.3,9.3h79c5.1,0,9.3-4.2,9.3-9.3v-79C97.6,4.2,93.4,0,88.3,0z
	 M31.8,10.8c4.3,0,7.7,3.4,7.7,7.7s-3.4,7.7-7.7,7.7S24,22.8,24,18.5S27.5,10.8,31.8,10.8z M48.2,52.3c-1.7,0.7-3.7-0.2-4.5-1.9
	L40,42.1v41.3c0,1.9-1.5,3.4-3.4,3.4s-3.5-1.5-3.5-3.4V58.1h-2.5v25.3c0,1.9-1.6,3.4-3.5,3.4s-3.4-1.5-3.4-3.4V42.1L20,50.4
	c-0.8,1.7-2.8,2.6-4.5,1.9c-1.8-0.8-2.6-2.8-1.8-4.6l9.1-17.6c0.6-1.1,1.7-1.8,2.9-1.8H38c1.2,0,2.4,0.7,2.9,1.8L50,47.7
	C50.8,49.5,50,51.6,48.2,52.3z M69.9,83.7l-14-15h10.7V54.3h6.7v14.3H84L69.9,83.7z M73.2,28.9v14.3h-6.7V28.9H55.8l14-15.1L84,28.9
	H73.2z"/>
</svg>
