<?xml version="1.0" encoding="utf-8"?>
<!-- Generator: Adobe Illustrator 27.5.0, SVG Export Plug-In . SVG Version: 6.00 Build 0)  -->
<svg version="1.1" baseProfile="tiny" id="Layer_1" xmlns="http://www.w3.org/2000/svg" xmlns:xlink="http://www.w3.org/1999/xlink"
	 x="0px" y="0px" viewBox="0 0 40 40" overflow="visible" xml:space="preserve">
<path display="none" d="M37.2,18.9c-1.1-0.6-2.1-1-3.9-1H30v-0.2c-1.2,0-2.5-0.1-3.5-0.6l-0.7-0.4c-0.4-0.2-1-0.4-1.6-0.4h-19V17
	H3.8v-0.7H2.7v7.4h1.1V23h1.4v0.7h19c0.6,0,1.1-0.1,1.6-0.4l0.7-0.4c1-0.5,2.2-0.6,3.5-0.6v-0.2h3.3c1.9,0,2.8-0.4,3.9-1
	c0.8-0.4,1.2-1.1,1.2-1.1S38,19.3,37.2,18.9z"/>
<g>
	<path d="M21,16.7L25.8,0l-16,22.3l-0.9,1.2h9.7L13.8,40L27,22.3l4.1-5.6L21,16.7L21,16.7z"/>
</g>
</svg>
