<?xml version="1.0" encoding="utf-8"?>
<!-- Generator: Adobe Illustrator 28.6.0, SVG Export Plug-In . SVG Version: 9.03 Build 54939)  -->
<svg version="1.1" baseProfile="tiny" id="Layer_1" xmlns="http://www.w3.org/2000/svg" xmlns:xlink="http://www.w3.org/1999/xlink"
	 x="0px" y="0px" viewBox="0 0 80.6 69.8" overflow="visible" xml:space="preserve">
<path fill="#140B06" d="M77.4,53.7l-28-48.4C47.6,2,44.2,0,40.3,0c-3.9,0-7.3,2-9.2,5.3l-28,48.4C1.2,57,1.2,61,3.1,64.4
	c1.9,3.3,5.4,5.3,9.2,5.3h55.9c3.9,0,7.3-2,9.2-5.3C79.3,61.1,79.3,57.1,77.4,53.7z M40.2,16.5c3.5-0.1,6.1,2.9,5.9,6.3l-1.4,18.7
	c-0.3,2.2-2.1,4.1-4.4,4.1c-2.2,0-4.2-1.7-4.4-4.1l-1.3-18.7C34.2,19.4,36.8,16.5,40.2,16.5z M46.3,57.1c-0.5,2.4-2.6,4.3-5.1,4.6
	c-4.1,0.7-7.6-2.6-7.3-6.8c0.3-2.5,2.1-4.8,4.4-5.5C43.1,48,47.5,52.2,46.3,57.1z"/>
</svg>
