<?xml version="1.0" encoding="utf-8"?>
<!-- Generator: Adobe Illustrator 28.7.1, SVG Export Plug-In . SVG Version: 9.03 Build 54978)  -->
<svg version="1.1" baseProfile="tiny" id="Layer_1" xmlns="http://www.w3.org/2000/svg" xmlns:xlink="http://www.w3.org/1999/xlink"
	 x="0px" y="0px" viewBox="0 0 40 40" overflow="visible" xml:space="preserve">
<path d="M28.9,10.5H11.1c-1,0-1.5,1.2-0.8,1.9l8.9,8.9c0.4,0.4,1.1,0.4,1.6,0l8.9-8.9C30.4,11.7,29.9,10.5,28.9,10.5z"/>
<path id="opacity:50" d="M30.2,29.5H9.8c-4,0-7.2-3.2-7.2-7.2v-5.7c0-0.4,0.3-0.7,0.7-0.7h3.5c0.4,0,0.7,0.3,0.7,0.7v5.7
	c0,1.2,1,2.2,2.2,2.2H30c1.2,0,2.2-1,2.2-2.2v-5.7c0-0.4,0.3-0.7,0.7-0.7h3.5c0.4,0,0.7,0.3,0.7,0.7v5.7
	C37.3,26.3,34.1,29.5,30.2,29.5z"/>
</svg>
