<?xml version="1.0" encoding="utf-8"?>
<!-- Generator: Adobe Illustrator 27.6.1, SVG Export Plug-In . SVG Version: 6.00 Build 0)  -->
<svg version="1.1" baseProfile="tiny" xmlns="http://www.w3.org/2000/svg" xmlns:xlink="http://www.w3.org/1999/xlink" x="0px"
	 y="0px" viewBox="0 0 40 40" overflow="visible" xml:space="preserve">
<g id="Black_BG" display="none">
	<rect x="-3788.5" y="-3115.7" display="inline" width="7152" height="6096"/>
</g>
<g id="HUD_modes_x5F_icon">
</g>
<g id="Main_Layer">
	<g id="Zone_control_icons">
	</g>
	<g>
		<path fill="#FFFFFF" d="M23.1,8.1l2,7.9H14.9l2-7.9H23.1 M26.2,4.1H13.8l-4,15.9h20.3L26.2,4.1L26.2,4.1z"/>
		<path fill="#FFFFFF" d="M20,0.9c-1.3,0-2.3,1-2.3,2.3s1,2.3,2.3,2.3s2.3-1,2.3-2.3S21.3,0.9,20,0.9L20,0.9z"/>
	</g>
	<g>
		
			<rect x="18" y="21" transform="matrix(0.7071 -0.7071 0.7071 0.7071 -15.4678 22.9755)" fill="#FFFFFF" width="3.9" height="18.3"/>
		
			<rect x="10.9" y="28.2" transform="matrix(0.7071 -0.7071 0.7071 0.7071 -15.4678 22.9755)" fill="#FFFFFF" width="18.3" height="3.9"/>
	</g>
</g>
</svg>
