<?xml version="1.0" encoding="utf-8"?>
<!-- Generator: Adobe Illustrator 29.6.1, SVG Export Plug-In . SVG Version: 9.03 Build 0)  -->
<svg version="1.1" baseProfile="tiny" id="Layer_2_00000127746145070851219660000017392342966528562839_"
	 xmlns="http://www.w3.org/2000/svg" xmlns:xlink="http://www.w3.org/1999/xlink" x="0px" y="0px" viewBox="0 0 40 40"
	 overflow="visible" xml:space="preserve">
<g id="Layer_1-2">
	<path fill="#FFFFFF" d="M37.5,10.4H31l-3.2-3.2c-0.4-0.4-0.8-0.5-1.3-0.5h-11c-0.5,0-1,0.2-1.3,0.5L9.4,12H8.9v-1.3
		c0-0.8-0.6-1.4-1.4-1.4H4.7c-0.8,0-1.4,0.6-1.4,1.4V12H2.4c-1,0-1.9,0.8-1.9,1.9v17.5c0,1,0.8,1.9,1.9,1.9h35.1
		c1,0,1.9-0.8,1.9-1.9V12.3C39.5,11.3,38.5,10.4,37.5,10.4L37.5,10.4z M5.2,11.3H7v0.8H5.2V11.3z M2.5,31.4L2.4,14h7
		c0.5,0,1-0.2,1.3-0.5l4.8-4.8h11l3.2,3.2c0.4,0.4,0.8,0.5,1.3,0.5h6.4l0.1,19C37.5,31.3,2.5,31.4,2.5,31.4z M20,13
		c-4.6,0-8.3,3.7-8.3,8.3s3.7,8.3,8.3,8.3s8.3-3.7,8.3-8.3S24.5,13,20,13z M20,27.6c-3.5,0-6.3-2.9-6.3-6.3S16.5,15,20,15
		s6.3,2.8,6.3,6.3S23.4,27.6,20,27.6z M20,16.4c-2.7,0-4.9,2.2-4.9,4.9s2.2,4.9,4.9,4.9s4.9-2.2,4.9-4.9S22.8,16.4,20,16.4z
		 M20,24.2c-1.6,0-3-1.3-3-3c0-1.6,1.3-3,3-3s3,1.3,3,3C22.9,22.9,21.6,24.2,20,24.2z M36.1,14.6c0,0.5-0.4,1-1,1h-1.5
		c-0.5,0-1-0.4-1-1s0.4-1,1-1h1.5C35.8,13.7,36.1,14.1,36.1,14.6z M36.1,17.8c0,0.5-0.4,1-1,1h-1.5c-0.5,0-1-0.4-1-1s0.4-1,1-1h1.5
		C35.8,16.8,36.1,17.3,36.1,17.8z"/>
</g>
</svg>
