<?xml version="1.0" encoding="utf-8"?>
<!-- Generator: Adobe Illustrator 26.0.1, SVG Export Plug-In . SVG Version: 6.00 Build 0)  -->
<svg version="1.1" baseProfile="tiny" id="Layer_1" xmlns="http://www.w3.org/2000/svg" xmlns:xlink="http://www.w3.org/1999/xlink"
	 x="0px" y="0px" viewBox="0 0 128.7 64" overflow="visible" xml:space="preserve">
<g id="ShipToShipRefuel">
	<path fill="#FFFFFF" d="M9.8,51.5l5.6,0.8l0.1,0.7l1.5,0.3L17,48l0-0.3l0-5L15.6,43l-0.1,0.5l-5.6,0.7c-0.3,0-0.3,0.5-0.3,1.1
		c0,0,0,0,0,0l0,5.2c0,0,0,0,0,0C9.5,51.1,9.5,51.5,9.8,51.5z"/>
	<path fill="#FFFFFF" d="M58.3,33.3c-0.2-3.5,1.6-10.3,9.5-11.5c3.4-0.5,8.4,0.2,14.1,1c7.9,1.2,17.8,2.6,22.3-0.1
		c4.2-2.5,4.7-12.1,5-15.6l4.3,0.3c-0.1,1.5-0.3,15-7.1,19.1c-5.9,3.5-16.1,2-25.2,0.7c-5.2-0.8-10.1-1.5-12.8-1
		c-5.9,0.9-5.8,6.4-5.8,7L58.3,33.3z"/>
	<path fill="#FFFFFF" d="M65.6,36.6H55.5v-3.8c0-0.9,0.8-1.7,1.7-1.7h6.6c0.9,0,1.7,0.8,1.7,1.7V36.6z"/>
	<path fill="#FFFFFF" d="M127.2,50c-0.1-0.4-0.4-0.7-0.8-0.9L99,39c-0.1,0-0.1,0-0.2,0l-14.3-1.2c-0.1,0-0.3-0.1-0.4-0.1L82,36.2
		c-0.1-0.1-0.3-0.1-0.4-0.1l-5.4-0.3l0,0.1l-0.2,0L74.6,37c-0.1,0.1-0.3,0.2-0.5,0.2c-1,0-4.4,0.2-4.9,0c-0.5-0.2-3.5-2.3-4.3-2.9
		c-0.1-0.1-0.3-0.2-0.5-0.2l-13.8,0.1c0,0-4,0-7.2,0L43,34.9l0,0l-0.7,1.5l-32.5-7l-8.1,0.1c0,0-1.5,1.5-0.7,1.9
		c0.8,0.4,0.8,0.4,0.8,0.4l4.7,0.9l20.3,7.3l0,0.4c0,0.4-0.3,0.7-0.7,0.7l-7.5,1.2l-0.1,10.6c0,0.4,0.3,0.8,0.7,0.8l4.5,0.6
		L9.1,59.8l-4.7,0.9c0,0,0,0-0.8,0.4c-0.8,0.4,0.7,1.9,0.7,1.9l8.1,0.1l9.9-2.1c0.1,0.2,0.3,0.3,0.5,0.3c0,0,0,0,0,0l3.1,0.1
		c0,0,0,0,0,0c0.4,0,0.7-0.2,0.7-0.6l0-0.7l5.8-1.3c0.9,0.9,3.2,2.1,3.2,2.1l6.9,0.1c0.4,0.2,0.8,0.3,1.2,0.3l4.8,0.1
		c0,0-0.1,0.3-0.1,0.7h5.9l0.1-0.5l0,0l0.9,0c0.6,0,2.1-0.2,2.5-0.7l1.5-1.6l0.1,0l1.2,0.4c0,0,20.3,0.5,20.8,0
		c0.1-0.1,0.4-0.3,0.8-0.6c1.3,1,2.5,2,2.8,2l3.3,0c0.7,0,7.4-0.1,7.4-0.1l1.2,0c0.7,0,1.3-0.4,1.6-1l1.2-2.6l3.5,0l0.5-0.3
		c0.2-0.1,0.3-0.3,0.3-0.6l0-0.2c0-0.1,0-0.2,0.1-0.3l1.3-0.3l0.5-0.1l5.5,0.1c0.4,0,0.8,0.4,0.8,0.8l0,0l0.4,0.1l0,0.2
		c0,0.4,0.3,0.7,0.7,0.7c0,0,0,0,0,0l3.2,0c0,0,0,0,0,0c0.4,0,0.7-0.3,0.7-0.7l0-0.2l0.4-0.1l0-0.7c0-0.4,0.3-0.8,0.7-0.8l5.7-0.4
		c0,0,0.1,0,0.1,0c0.8-0.3,1.5-0.8,2-1.6l1.3-2.2C127.2,50.4,127.3,50.2,127.2,50z M90.5,42.2l-0.5,0c-0.2,0-0.4-0.1-0.5-0.3l-1-1.5
		c-0.3-0.5,0-1.1,0.6-1c0.5,0,1,0.1,1.5,0.1c0.3,0,0.6,0.3,0.6,0.6l0.1,1.4C91.2,42,90.9,42.3,90.5,42.2z M105.6,44.3l-0.7,0.5
		c-0.1,0.1-0.3,0.1-0.4,0.1L95.8,44c-0.1,0-0.2,0-0.2-0.1l-2.4-1.2c-0.2-0.1-0.3-0.3-0.4-0.5l-0.2-1.8c0-0.4,0.3-0.8,0.7-0.7
		c2.3,0.2,4.2,0.3,4.7,0.4c0.1,0,0.1,0,0.2,0.1l0.5,0.2l0,0l6.7,2.8C105.9,43.3,106,44,105.6,44.3z"/>
	<path fill="#FFFFFF" d="M95.4,0.9v3.5c0.1,0.3,0.4,0.6,0.8,0.7c0,0,1,0.1,2.4,0.3l1.4,2.6c0.6,1,1.6,1.7,2.7,1.7l0.7,0h16.2l0.7,0
		c1.1,0,2.1-0.7,2.7-1.7l1.4-2.6c1.4-0.2,2.4-0.3,2.4-0.3c0.3-0.1,0.6-0.3,0.8-0.7V0.9H95.4z"/>
</g>
</svg>
