<?xml version="1.0" encoding="utf-8"?>
<!-- Generator: Adobe Illustrator 27.5.0, SVG Export Plug-In . SVG Version: 6.00 Build 0)  -->
<svg version="1.1" baseProfile="tiny" id="Layer_1" xmlns="http://www.w3.org/2000/svg" xmlns:xlink="http://www.w3.org/1999/xlink"
	 x="0px" y="0px" viewBox="0 0 40 40" overflow="visible" xml:space="preserve">
<path d="M37.2,5.6c-1.1-0.6-2.1-1-3.9-1H30l0-0.2c-1.2,0-2.5-0.1-3.5-0.6l-0.7-0.4c-0.4-0.2-1-0.4-1.6-0.4h-19v0.7H3.8V3H2.7v7.4
	h1.1V9.7h1.4v0.7h19c0.6,0,1.1-0.1,1.6-0.4l0.7-0.4c1-0.5,2.2-0.6,3.5-0.6l0-0.2h3.3c1.9,0,2.8-0.4,3.9-1c0.8-0.4,1.2-1.1,1.2-1.1
	S38,6,37.2,5.6z"/>
<path d="M37.2,18.9c-1.1-0.6-2.1-1-3.9-1H30l0-0.2c-1.2,0-2.5-0.1-3.5-0.6l-0.7-0.4c-0.4-0.2-1-0.4-1.6-0.4h-19V17H3.8v-0.7H2.7v7.4
	h1.1V23h1.4v0.7h19c0.6,0,1.1-0.1,1.6-0.4l0.7-0.4c1-0.5,2.2-0.6,3.5-0.6l0-0.2h3.3c1.9,0,2.8-0.4,3.9-1c0.8-0.4,1.2-1.1,1.2-1.1
	S38,19.3,37.2,18.9z"/>
<path d="M37.2,32.2c-1.1-0.6-2.1-1-3.9-1H30l0-0.2c-1.2,0-2.5-0.1-3.5-0.6L25.8,30c-0.4-0.2-1-0.4-1.6-0.4h-19v0.7H3.8v-0.7H2.7V37
	h1.1v-0.7h1.4V37h19c0.6,0,1.1-0.1,1.6-0.4l0.7-0.4c1-0.5,2.2-0.6,3.5-0.6l0-0.2h3.3c1.9,0,2.8-0.4,3.9-1c0.8-0.4,1.2-1.1,1.2-1.1
	S38,32.6,37.2,32.2z"/>
</svg>
