<?xml version="1.0" encoding="utf-8"?>
<!-- Generator: Adobe Illustrator 26.2.0, SVG Export Plug-In . SVG Version: 6.00 Build 0)  -->
<svg version="1.1" baseProfile="tiny" xmlns="http://www.w3.org/2000/svg" xmlns:xlink="http://www.w3.org/1999/xlink" x="0px"
	 y="0px" width="40px" height="40px" viewBox="0 0 40 40" overflow="visible" xml:space="preserve">
<g id="Black_BG" display="none">
	<rect x="-3508" y="-3028" display="inline" width="7152" height="6096"/>
</g>
<g id="HUD_modes_x5F_icon">
	<g id="sca">
		<circle fill="#FFFFFF" cx="20.2" cy="12.4" r="1.7"/>
		<path fill="#FFFFFF" d="M35.4,19.3C35,11.5,28.7,5.2,20.9,4.8V1.7h-1.4v3.1C11.7,5.2,5.4,11.5,5.1,19.3H1.9v1.4h3.1
			c0.4,7.8,6.7,14.1,14.5,14.5v3.1h1.4v-3.1c7.8-0.4,14.1-6.7,14.5-14.5h3.1v-1.4H35.4z M20.2,32.4c-6.8,0-12.4-5.6-12.4-12.4
			c0-3.2,1.2-6.1,3.2-8.3l3.1,3.1c-2.6,3.2-2.5,8,0.5,11c1.6,1.6,3.6,2.4,5.8,2.4c2.2,0,4.2-0.9,5.8-2.4c3.2-3.2,3.2-8.4,0-11.6
			l-1,1c2.7,2.7,2.7,7,0,9.7c-1.3,1.3-3,2-4.8,2c-1.8,0-3.5-0.7-4.8-2c-2.5-2.5-2.6-6.4-0.5-9.1l2.6,2.6c-0.3,0.5-0.5,1-0.5,1.6
			c0,1.7,1.4,3,3,3c1.7,0,3-1.4,3-3c0-1.7-1.4-3-3-3c-0.6,0-1.2,0.2-1.6,0.5l-6.7-6.7c2.2-2,5.1-3.2,8.3-3.2
			c6.9,0,12.4,5.6,12.4,12.4C32.7,26.8,27.1,32.4,20.2,32.4z M18.6,20c0-0.9,0.7-1.7,1.7-1.7c0.9,0,1.7,0.8,1.7,1.7
			c0,0.9-0.7,1.7-1.7,1.7C19.3,21.7,18.6,20.9,18.6,20z"/>
	</g>
</g>
<g id="Main_Layer">
	<g id="Zone_control_icons">
	</g>
</g>
</svg>
