<?xml version="1.0" encoding="utf-8"?>
<!-- Generator: Adobe Illustrator 29.8.4, SVG Export Plug-In . SVG Version: 9.03 Build 0)  -->
<svg version="1.1" baseProfile="tiny" id="Layer_1" xmlns="http://www.w3.org/2000/svg" xmlns:xlink="http://www.w3.org/1999/xlink"
	 x="0px" y="0px" viewBox="0 0 26.9 33.15" overflow="visible" xml:space="preserve">
<g>
	<path fill="#FFFFFF" d="M3.92,23.62c7.51,1.88,15.67,1.36,22.97-1.11l-2.19-4.05c-3.54,1.33-7.85,1.97-11.66,2
		c-3.71-0.04-7.49-0.82-10.82-2L0,22.48C1.22,22.9,2.54,23.29,3.92,23.62z"/>
	<g>
		<path fill="#FFFFFF" d="M23.44,25.8c-0.99,0.22-2.02,0.41-3.05,0.57l3.25,6.78l2.55-3.83l-1.77-3.78
			C24.09,25.63,23.77,25.72,23.44,25.8z"/>
		<path fill="#FFFFFF" d="M6.18,26.34c-1.28-0.23-2.49-0.48-3.71-0.82l-1.78,3.8l2.55,3.83l3.24-6.76
			C6.37,26.38,6.28,26.36,6.18,26.34z"/>
		<path fill="#FFFFFF" d="M6.3,17.36c1.4,0.34,2.49,0.53,4.15,0.73c0.61-1.26,1.95-4.07,2.57-5.36c0.27,0.03,0.56,0.03,0.83,0
			c0.62,1.29,1.94,4.06,2.55,5.32c1.43-0.14,2.85-0.37,4.18-0.68c-0.63-1.35-2.58-5.5-3.24-6.92c0.85-1.43,0.69-3.19-0.13-4.53
			c-0.56-0.91-1.42-1.62-2.49-1.91V1.28L13.43,0l-1.27,1.28v2.74c-1.12,0.3-2.01,1.07-2.57,2.04c-0.76,1.32-0.88,3.02-0.06,4.41
			C8.87,11.89,6.94,15.99,6.3,17.36z M13.43,6.43c2.46,0.08,2.46,3.64,0,3.72C10.98,10.07,10.98,6.51,13.43,6.43z"/>
	</g>
</g>
</svg>
