<?xml version="1.0" encoding="utf-8"?>
<!-- Generator: Adobe Illustrator 25.4.2, SVG Export Plug-In . SVG Version: 6.00 Build 0)  -->
<svg version="1.1" baseProfile="tiny" xmlns="http://www.w3.org/2000/svg" xmlns:xlink="http://www.w3.org/1999/xlink" x="0px"
	 y="0px" width="40px" height="40px" viewBox="0 0 40 40" overflow="visible" xml:space="preserve">
<g id="Black_BG" display="none">
	<rect x="-3890.2" y="-2756.3" display="inline" width="7152" height="6096"/>
</g>
<g id="HUD_modes_x5F_icon">
</g>
<g id="Main_Layer">
	<g id="Zone_control_icons">
	</g>
	<path fill="#FFFFFF" d="M20,0C9,0,0,9,0,20c0,11,9,20,20,20c11.1,0,20-9,20-20C40,9,31,0,20,0z M20,37c-9.4,0-17-7.6-17-17
		c0-9.4,7.6-17,17-17c9.4,0,17,7.6,17,17C37,29.4,29.4,37,20,37z"/>
	<polygon fill="#FFFFFF" points="22.2,29.2 21.4,34.8 19.1,34.8 18.1,29.2 18.1,11.2 19,5.6 21.4,5.6 22.2,11.2 	"/>
	<polygon fill="#FFFFFF" points="8.9,23.9 6.9,23.9 5.8,20.3 6.9,16.5 8.9,16.5 9.9,20.2 	"/>
	<polygon fill="#FFFFFF" points="15.8,23.9 15,29.5 12.7,29.5 11.8,23.9 11.8,16.5 12.7,11 15,11 15.8,16.5 	"/>
	<polygon fill="#FFFFFF" points="28.5,23.9 27.7,29.5 25.4,29.5 24.5,23.9 24.5,16.5 25.3,11 27.7,11 28.5,16.5 	"/>
	<polygon fill="#FFFFFF" points="33.2,24 31.2,24 30.1,20.3 31.2,16.6 33.2,16.6 34.2,20.2 	"/>
</g>
</svg>
