<?xml version="1.0" encoding="utf-8"?>
<!-- Generator: Adobe Illustrator 28.5.0, SVG Export Plug-In . SVG Version: 9.03 Build 54727)  -->
<svg version="1.1" baseProfile="tiny" id="Layer_1" xmlns="http://www.w3.org/2000/svg" xmlns:xlink="http://www.w3.org/1999/xlink"
	 x="0px" y="0px" viewBox="0 0 64 64" overflow="visible" xml:space="preserve">
<g>
	<g>
		<path fill="#FFFFFF" d="M32,21.25c2.82,0,5.11,2.28,5.11,5.11c0,1.9-1.04,3.57-2.58,4.44v31.7h-5.03v-31.7
			c-1.55-0.87-2.6-2.52-2.6-4.44C26.89,23.53,29.18,21.25,32,21.25z"/>
	</g>
	<g>
		<path fill="#FFFFFF" d="M34.07,10.15c2.95,0.37,5.66,1.54,7.9,3.29l6.13-6.12l2.92,2.92l-6.12,6.13c1.75,2.24,2.92,4.95,3.29,7.9
			h8.74v4.14H44.19v-2.07c0-6.72-5.48-12.19-12.19-12.19c-6.72,0-12.18,5.48-12.18,12.19v2.07H7.06v-4.14h8.76
			c0.37-2.95,1.54-5.68,3.28-7.91l-6.12-6.12l2.92-2.92l6.13,6.12c2.24-1.75,4.95-2.92,7.9-3.29V1.51h4.14V10.15z"/>
	</g>
	<g>
		
			<rect x="43.75" y="34.88" transform="matrix(0.7071 -0.7071 0.7071 0.7071 -14.9847 44.1679)" fill="#FFFFFF" width="4.14" height="10.58"/>
	</g>
	<g>
		
			<rect x="12.89" y="38.1" transform="matrix(0.7071 -0.7071 0.7071 0.7071 -23.0811 24.6216)" fill="#FFFFFF" width="10.58" height="4.14"/>
	</g>
</g>
</svg>
