<?xml version="1.0" encoding="utf-8"?>
<!-- Generator: Adobe Illustrator 27.8.0, SVG Export Plug-In . SVG Version: 6.00 Build 0)  -->
<svg version="1.1" baseProfile="tiny" id="Layer_1" xmlns="http://www.w3.org/2000/svg" xmlns:xlink="http://www.w3.org/1999/xlink"
	 x="0px" y="0px" viewBox="0 0 64 64" overflow="visible" xml:space="preserve">
<path fill="#FFFFFF" d="M10.6,27l3.9,7.2c-2.8,3.2-4.9,7.2-5.8,11.2L0,43C2.3,36.3,5.9,31,10.6,27z"/>
<path fill="#FFFFFF" d="M49.4,22.7v5.9c-6.1-3.4-13.2-4.5-19.9-3.2L24.1,20C32.5,17.8,41.7,18.7,49.4,22.7z"/>
<path fill="#FFFFFF" d="M55.7,45.7c-0.9-0.9-1.4-2.1-1.4-3.4s0.5-2.6,1.4-3.4c0.9-0.9,2.1-1.4,3.4-1.4s2.6,0.5,3.4,1.4
	c0.9,0.9,1.4,2,1.4,3.4c0,1.4-0.5,2.5-1.4,3.4c-0.9,0.9-2.1,1.4-3.4,1.4C57.7,47,56.6,46.7,55.7,45.7z"/>
<path fill="#FFFFFF" d="M55.7,30.2c-0.1-0.1-0.2-0.2-0.2-0.5l-1-23.9c0-0.5,0.2-0.6,0.6-0.6H63c0.5,0,0.6,0.2,0.6,0.6l-1,23.9
	c0,0.1-0.1,0.4-0.2,0.5c-0.1,0.1-0.2,0.2-0.5,0.2H56C56,30.3,55.9,30.3,55.7,30.2z"/>
<path fill="#FFFFFF" d="M16.3,21.2l-1.2,0.9L31,51.8l8.6,1.8l0.6-8.9L16.3,21.2z M35.1,50.4c-1.5-0.1-2.6-1.4-2.5-2.9
	s1.4-2.6,2.9-2.5c1.5,0.1,2.6,1.4,2.5,2.9C37.9,49.4,36.6,50.5,35.1,50.4z"/>
</svg>
