<?xml version="1.0" encoding="utf-8"?>
<!-- Generator: Adobe Illustrator 27.8.0, SVG Export Plug-In . SVG Version: 6.00 Build 0)  -->
<svg version="1.1" baseProfile="tiny" id="Layer_1" xmlns="http://www.w3.org/2000/svg" xmlns:xlink="http://www.w3.org/1999/xlink"
	 x="0px" y="0px" viewBox="0 0 64 64" overflow="visible" xml:space="preserve">
<path fill="#FFFFFF" d="M10.7,24.3v21.4h42.6V24.3H10.7z M27.9,37.4h-5v5h-4v-5h-5v-4h5v-5h4v5h5V37.4z M50.1,37.4H36.1v-4h13.9
	V37.4z"/>
<rect x="5.7" y="49.6" fill="#FFFFFF" width="52.6" height="3.9"/>
<polygon fill="#FFFFFF" points="58.3,16.7 58.3,20.3 5.7,20.3 5.7,16.7 10.1,16.7 10.1,10.5 14.8,10.5 14.8,16.7 20.9,16.7 24,12.2 
	40,12.2 43.1,16.7 49.2,16.7 49.2,10.5 53.9,10.5 53.9,16.7 "/>
</svg>
