<?xml version="1.0" encoding="utf-8"?>
<!-- Generator: Adobe Illustrator 28.7.1, SVG Export Plug-In . SVG Version: 9.03 Build 54978)  -->
<svg version="1.1" baseProfile="tiny" id="Layer_1" xmlns="http://www.w3.org/2000/svg" xmlns:xlink="http://www.w3.org/1999/xlink"
	 x="0px" y="0px" viewBox="0 0 64 64" overflow="visible" xml:space="preserve">
<path d="M40.6,28.4c3.6,5.8,3,13.5-2,18.5L26.7,59.2c-5.3,5.5-14.1,6.6-20.2,2C-0.9,55.6-1.6,45,4.7,38.6l7.3-7.5
	c1.2-1.3,3.3-1.3,4.6-0.1c1.3,1.2,1.3,3.3,0.1,4.6l-7.1,7.3c-2.9,2.9-3.5,7.6-1.2,11c3.2,4.7,9.6,5.1,13.3,1.2L34,42.4
	c2.8-2.8,3.2-7.1,1.3-10.4c-0.7-1.2-0.6-2.6,0.3-3.6l0.5-0.5C37.4,26.6,39.6,26.9,40.6,28.4z M60.5,5.7C54.7-1.5,44-1.9,37.8,4.6
	L25.5,17.2c-5.8,6-5.7,15.5,0.3,21.3l1.1,1.1c1.3,1.2,3.3,1.2,4.6-0.1c1.2-1.3,1.2-3.3-0.1-4.6l-1.1-1.1l0,0
	c-3.4-3.3-3.5-8.8-0.2-12.2L42.4,9.1c3.7-3.8,10.2-3.4,13.3,1.2c2.3,3.4,1.7,8-1.2,11l-6.2,6.4c-1.2,1.3-1.2,3.3,0.1,4.6
	c1.3,1.2,3.3,1.2,4.6-0.1l6-6.2C64.4,20.5,65.2,11.8,60.5,5.7z"/>
</svg>
