<?xml version="1.0" encoding="utf-8"?>
<!-- Generator: Adobe Illustrator 25.4.6, SVG Export Plug-In . SVG Version: 6.00 Build 0)  -->
<svg version="1.1" baseProfile="tiny" xmlns="http://www.w3.org/2000/svg" xmlns:xlink="http://www.w3.org/1999/xlink" x="0px"
	 y="0px" width="40px" height="40px" viewBox="0 0 40 40" overflow="visible" xml:space="preserve">
<g id="Black_BG" display="none">
	<rect x="-3605.2" y="-2660.1" display="inline" width="7152" height="6096"/>
</g>
<g id="HUD_modes_x5F_icon">
</g>
<g id="Main_Layer">
	<g id="Zone_control_icons">
	</g>
	<g id="Close__x2F__closed_00000112622245730965191610000004643587318541301684_">
		<g id="SensorIcon_x2F_Door_00000118371555669873202200000004716072257414132407_">
			<path id="Combined-Shape_00000088114987884843722300000004532923747894615456_" fill-rule="evenodd" fill="#FFFFFF" d="M36.2,2
				H3.8C2.8,2,2,2.8,2,3.8v32.4c0,1,0.8,1.8,1.8,1.8h32.4c1,0,1.8-0.8,1.8-1.8V3.8C38,2.8,37.2,2,36.2,2z M34.4,34.4H21.8v-6.3
				L20,26.3l-1.8,1.8v6.2H5.6V5.6h12.6v6.2l1.8,1.8l1.8-1.8V5.6h12.6V34.4z"/>
		</g>
	</g>
	<polygon fill="#FFFFFF" points="27.2,25 25,27.2 20,22.2 15.1,27.1 12.9,25 17.9,20 12.9,15 15.1,12.8 20,17.8 25,12.8 27.2,15 
		22.2,20 	"/>
</g>
</svg>
