<?xml version="1.0" encoding="utf-8"?>
<!-- Generator: Adobe Illustrator 25.4.2, SVG Export Plug-In . SVG Version: 6.00 Build 0)  -->
<svg version="1.1" baseProfile="tiny" xmlns="http://www.w3.org/2000/svg" xmlns:xlink="http://www.w3.org/1999/xlink" x="0px"
	 y="0px" width="40px" height="40px" viewBox="0 0 40 40" overflow="visible" xml:space="preserve">
<g id="Black_BG" display="none">
	<rect x="-3605.2" y="-2806.3" display="inline" width="7152" height="6096"/>
</g>
<g id="HUD_modes_x5F_icon">
</g>
<g id="Main_Layer">
	<g id="Zone_control_icons">
	</g>
	<g id="Frame_x5F_player">
		<circle fill="#FFFFFF" cx="20.4" cy="14.3" r="5.2"/>
		<path fill="#FFFFFF" d="M23.8,21.6H17c-1.7,0-3.2,1.1-3.7,2.7l-2,5.9h18.2l-2-5.9C26.9,22.7,25.4,21.6,23.8,21.6z"/>
		<path fill="#FFFFFF" d="M4,30.5l2,0.6l-0.6,2.5l-3-1C1,32.1,0,30.8,0,29.3V9.8c0-1.5,1-2.9,2.4-3.3l3-1L6,7.9L4,8.5
			c-0.8,0.3-1.4,1-1.4,1.9v18.2C2.6,29.5,3.1,30.2,4,30.5z"/>
		<path fill="#FFFFFF" d="M35.9,8.5l-2-0.6l0.6-2.5l3,1c1.4,0.5,2.4,1.8,2.4,3.3v19.5c0,1.5-1,2.9-2.4,3.3l-3,1l-0.6-2.5l2-0.6
			c0.8-0.3,1.4-1,1.4-1.9V10.4C37.3,9.6,36.8,8.8,35.9,8.5z"/>
	</g>
</g>
</svg>
