<?xml version="1.0" encoding="utf-8"?>
<!-- Generator: Adobe Illustrator 25.4.1, SVG Export Plug-In . SVG Version: 6.00 Build 0)  -->
<svg version="1.1" baseProfile="tiny" xmlns="http://www.w3.org/2000/svg" xmlns:xlink="http://www.w3.org/1999/xlink" x="0px"
	 y="0px" viewBox="0 0 256 256" overflow="visible" xml:space="preserve">
<g id="Layer_2">
</g>
<g id="Layer_1">
	<path fill="#FFFFFF" d="M236.2,0H19.8C8.9,0,0,8.9,0,19.8v216.4C0,247.1,8.9,256,19.8,256h216.4c10.9,0,19.8-8.9,19.8-19.8V19.8
		C256,8.9,247.1,0,236.2,0z M227.2,30.8c-13.6,43.1-29.3,69.6-44.5,95.2c-1,0.6-1.8,1-2.8,1.6l-25,0c-1.2,0-2.3,0.6-2.8,1.6
		c-14.1,24.2-28.2,51.1-40.5,93.3c-0.4,1.3-1.7,2.3-3.1,2.3H86.1c-2.2,0-3.7-2-3.1-4c11.9-39.7,25.2-64.5,39.2-88.4
		c1.2-2.1-0.3-4.7-2.8-4.7h-18.8c-1.2,0-2.3,0.6-2.8,1.6c-14.1,24.2-28.2,51.1-40.5,93.3c-0.4,1.3-1.7,2.3-3.1,2.3H31.9
		c-2.2,0-3.7-2-3.1-4c11.9-39.7,25.2-64.5,39.2-88.4c1.2-2.1-0.3-4.7-2.8-4.7H48.5c-2.5,0-4.1-2.6-2.8-4.7c0.5-0.8,0.9-1.5,1.4-2.3
		C62.4,94.9,77,70.2,90,29c0.4-1.3,1.7-2.2,3.1-2.2h22.2c2.2,0,3.7,2,3.1,4c-12.5,39.4-26.5,64.9-40.5,88.5
		c-1.2,2.1,0.3,4.7,2.8,4.7h16.7c1.2,0,2.2-0.6,2.8-1.6c0.4-0.6,0.7-1.2,1.1-1.8c15.3-25.8,29.9-50.5,42.9-91.7
		c0.4-1.3,1.7-2.2,3.1-2.2h22.2c2.2,0,3.7,2,3.1,4c-12.5,39.4-26.5,64.9-40.5,88.5c-1.2,2.1,0.3,4.7,2.8,4.7H152
		c1.2,0,2.2-0.6,2.8-1.6c0.4-0.6,0.7-1.2,1.1-1.8c15.3-25.8,29.9-50.5,42.9-91.7c0.4-1.3,1.7-2.2,3.1-2.2h22.2
		C226.2,26.8,227.8,28.8,227.2,30.8z"/>
</g>
</svg>
