<?xml version="1.0" encoding="utf-8"?>
<!-- Generator: Adobe Illustrator 28.4.1, SVG Export Plug-In . SVG Version: 6.00 Build 0)  -->
<svg version="1.1" baseProfile="tiny" id="Layer_1" xmlns="http://www.w3.org/2000/svg" xmlns:xlink="http://www.w3.org/1999/xlink"
	 x="0px" y="0px" viewBox="0 0 64 64" overflow="visible" xml:space="preserve">
<path d="M46.8,41.2c-0.5,0.8-1.5,1.6-3.8,1.6c-1,0-2.1-0.2-3.5-0.5c-0.7-0.2-1.5-0.5-2.3-0.7c-1,4.6-2.8,7.9-5.3,7.9
	c-2.3,0-4.2-2.8-5.3-7.5l1.8-1.9c1,5,2.5,7.3,3.5,7.3c1.1,0,2.4-2.4,3.3-6.5c-1.6-0.7-3.4-1.6-5.2-2.6l1.6-1.7
	c1.3,0.7,2.6,1.4,3.9,1.9c0.3-1.9,0.5-4.1,0.4-6.4l2.2-2.3c0,0.7,0.1,1.4,0.1,2.2c0,2.5-0.2,5.1-0.5,7.5c0.8,0.3,1.6,0.5,2.4,0.7
	c2.8,0.7,4.5,0.4,4.8-0.2c0.5-0.8-0.5-3.3-4.2-6.7l-0.1-2.9C46,34.9,48.3,38.8,46.8,41.2z M19,40.1c-0.4-0.6,0.1-2.2,2-4.5
	c0.6-0.7,1.3-1.5,2.1-2.2c0.6,0.5,1.3,1,2,1.5l1.5-1.6c-0.6-0.4-1.2-0.9-1.7-1.3c1.4-1.2,3.1-2.4,4.9-3.5c1-0.6,1.9-1.1,2.9-1.6
	l4.5-4.7c-0.9-4.4-2.7-7.5-5.2-7.5c-2.2,0-4,2.5-5.1,6.8c-0.3,1.2-0.6,2.4-0.8,3.9l2.4-1.5c0.9-4.8,2.5-7.1,3.5-7.1
	c1.1,0,2.4,2.4,3.3,6.5c-2.1,0.8-4.4,2.1-6.7,3.5c-2,1.3-3.9,2.6-5.6,4c-0.8-0.7-1.5-1.5-2.1-2.2c-1.9-2.2-2.4-3.8-2-4.4
	c0.4-0.7,2.4-0.9,5.7,0.1c0.1-0.6,0.2-1.5,0.4-2.1c-4.1-1.2-6.8-0.9-7.9,0.8c-0.7,1.2-0.8,3.3,2.2,6.9c0.6,0.7,1.3,1.5,2.2,2.2
	c-0.8,0.8-1.5,1.5-2.2,2.2c-3.1,3.6-3,5.8-2.2,6.9c0.3,0.4,0.6,0.7,1,1l1.6-1.7C19.4,40.4,19.1,40.3,19,40.1z M45,24
	c0.4,0.7-0.2,2.4-2.4,4.9l1.5,1.5c2.9-3.1,3.8-5.7,2.7-7.5c-0.2-0.4-0.5-0.7-1-1l-1.6,1.7C44.6,23.7,44.9,23.8,45,24z M54.5,10.5
	l-2.2-2.1L8.1,54.9l2.2,2.1L54.5,10.5z M63,32L32,1L1,32l31,31L63,32z M32,5.2L58.8,32L32,58.8L5.2,32L32,5.2z"/>
</svg>
