<?xml version="1.0" encoding="utf-8"?>
<!-- Generator: Adobe Illustrator 25.1.0, SVG Export Plug-In . SVG Version: 6.00 Build 0)  -->
<svg version="1.1" baseProfile="tiny" id="Icon" xmlns="http://www.w3.org/2000/svg" xmlns:xlink="http://www.w3.org/1999/xlink"
	 x="0px" y="0px" width="256px" height="256px" viewBox="0 0 256 256" overflow="visible" xml:space="preserve">
<circle fill="#FFFFFF" cx="128.9" cy="127.6" r="29.8"/>
<path fill="#FFFFFF" d="M207.3,132h-15.2c0-37.3-30.3-67.6-67.6-67.6V49.2C170.2,49.2,207.3,86.3,207.3,132z"/>
<path fill="#FFFFFF" d="M250.5,135.3h-15.2c0-63-51.2-114.2-114.2-114.2V6C192.5,6,250.5,64,250.5,135.3z"/>
<path fill="#FFFFFF" d="M132.5,206.8c-45.7,0-82.8-37.1-82.8-82.8h15.2c0,37.3,30.3,67.6,67.6,67.6V206.8z"/>
<path fill="#FFFFFF" d="M135.8,250C64.5,250,6.5,192,6.5,120.7h15.2c0,63,51.2,114.2,114.2,114.2V250z"/>
</svg>
