<?xml version="1.0" encoding="utf-8"?>
<!-- Generator: Adobe Illustrator 25.4.6, SVG Export Plug-In . SVG Version: 6.00 Build 0)  -->
<svg version="1.1" baseProfile="tiny" xmlns="http://www.w3.org/2000/svg" xmlns:xlink="http://www.w3.org/1999/xlink" x="0px"
	 y="0px" width="40px" height="40px" viewBox="0 0 40 40" overflow="visible" xml:space="preserve">
<g id="Black_BG" display="none">
	<rect x="-3696.8" y="-2660.1" display="inline" width="7152" height="6096"/>
</g>
<g id="HUD_modes_x5F_icon">
</g>
<g id="Main_Layer">
	<g id="Zone_control_icons">
	</g>
	<g id="power_issue">
		<path fill-rule="evenodd" fill="#FFFFFF" d="M36.1,2H3.9C3,2,2.2,2.8,2.2,3.8v32.1c0,1,0.8,1.8,1.8,1.8h32.1c1,0,1.8-0.8,1.8-1.8
			V3.8C37.8,2.8,37,2,36.1,2z M34.3,34.1H21.8v-7.4l-3.6,5.1v2.3H5.7V5.5h12.5v7.6L21.8,8V5.5h12.5V34.1z"/>
		<polygon fill="#FFFFFF" points="24.8,18.7 22,18.7 23.1,10.3 15.2,21.4 18,21.4 16.9,29.8 		"/>
	</g>
</g>
</svg>
