<?xml version="1.0" encoding="utf-8"?>
<!-- Generator: Adobe Illustrator 25.4.6, SVG Export Plug-In . SVG Version: 6.00 Build 0)  -->
<svg version="1.1" baseProfile="tiny" xmlns="http://www.w3.org/2000/svg" xmlns:xlink="http://www.w3.org/1999/xlink" x="0px"
	 y="0px" width="40px" height="40px" viewBox="0 0 40 40" overflow="visible" xml:space="preserve">
<g id="Black_BG" display="none">
	<rect x="-3508" y="-2853.7" display="inline" width="7152" height="6096"/>
</g>
<g id="HUD_modes_x5F_icon">
</g>
<g id="Main_Layer">
	<path fill="#FFFFFF" d="M39.1,17.9L22.2,1C21-0.2,19-0.2,17.8,1L0.9,17.9c-1.2,1.2-1.2,3.2,0,4.4l16.9,16.9c1.2,1.2,3.2,1.2,4.4,0
		l16.9-16.9C40.3,21.1,40.3,19.1,39.1,17.9z M35.4,21.2L21.1,35.5c-0.6,0.6-1.6,0.6-2.2,0L4.6,21.2C4,20.6,4,19.6,4.6,19L18.9,4.7
		c0.6-0.6,1.6-0.6,2.2,0L35.4,19C36,19.6,36,20.6,35.4,21.2z"/>
	<g id="Zone_control_icons">
	</g>
	<polygon fill="#FFFFFF" points="22.6,24.5 22.6,19.6 17.9,19.6 17.9,27.6 14.1,27.6 14.1,16.8 15.1,15.7 22.6,15.7 22.6,11.1 
		29.4,17.8 	"/>
</g>
</svg>
