<?xml version="1.0" encoding="utf-8"?>
<!-- Generator: Adobe Illustrator 27.8.0, SVG Export Plug-In . SVG Version: 6.00 Build 0)  -->
<svg version="1.1" baseProfile="tiny" id="Layer_1" xmlns="http://www.w3.org/2000/svg" xmlns:xlink="http://www.w3.org/1999/xlink"
	 x="0px" y="0px" viewBox="0 0 64 64" overflow="visible" xml:space="preserve">
<polygon fill="#FFFFFF" points="64,44 53.1,55.5 42.2,44 50.4,44 50.4,21.6 55.8,21.6 55.8,44 "/>
<path fill="#FFFFFF" d="M15.5,3.2l-1,4.1l8.9,3l-2.7,8.5h3l-2.9,9.1c-1.3-0.4-2.7-0.5-4.2-0.5C7.5,27.4,0,34.9,0,44.1
	c0,9.2,7.5,16.7,16.7,16.7s16.7-7.5,16.7-16.7c0-5.8-3-11-7.6-14l3.6-11.3h2.3l2.5-8.1l20-3.4l1-4.1H15.5z M27,44.1
	c0,5.7-4.6,10.3-10.3,10.3S6.5,49.8,6.5,44.1c0-5.7,4.6-10.3,10.2-10.3S27,38.5,27,44.1z"/>
</svg>
