<?xml version="1.0" encoding="utf-8"?>
<!-- Generator: Adobe Illustrator 26.2.0, SVG Export Plug-In . SVG Version: 6.00 Build 0)  -->
<svg version="1.1" baseProfile="tiny" xmlns="http://www.w3.org/2000/svg" xmlns:xlink="http://www.w3.org/1999/xlink" x="0px"
	 y="0px" width="40px" height="40px" viewBox="0 0 40 40" overflow="visible" xml:space="preserve">
<g id="Black_BG" display="none">
	<rect x="-3508.2" y="-2977" display="inline" width="7152" height="6096"/>
</g>
<g id="HUD_modes_x5F_icon">
	<g id="fly">
		<polygon fill="#FFFFFF" points="28,20.9 28,24.7 24,24.2 23.5,23.8 23.1,24.1 23.3,24.6 23.3,26.3 24.1,27.4 24.1,29.4 21.9,30 
			21.9,26.2 21.1,25.8 20.9,26.9 20,27.3 19.1,26.9 18.8,25.8 18.1,26.2 18.1,30 15.9,29.4 15.9,27.4 16.7,26.3 16.7,24.6 
			16.9,24.1 16.5,23.8 16,24.2 12.1,24.7 12.1,20.9 12.7,20.5 13.1,21.9 17.7,19.4 18.9,11.9 21.1,11.9 22.3,19.4 26.9,21.9 
			27.3,20.5 		"/>
		<path fill="#FFFFFF" d="M20,2.7c-9.4,0-17,7.6-17,17s7.6,17,17,17s17-7.6,17-17S29.4,2.7,20,2.7z M20,34.7c-8,0-14.5-6.2-15-14.1
			h4.7v-1.9H5c0.2-3.4,1.6-6.5,3.7-9l3.3,3.3l1.4-1.4l-3.3-3.3c2.4-2.1,5.5-3.5,9-3.7v4.7H21V4.7c3.4,0.2,6.5,1.6,8.9,3.7l-3.3,3.3
			l1.4,1.4l3.3-3.3c2.1,2.4,3.5,5.5,3.7,9h-4.7v1.9H35C34.5,28.5,28,34.7,20,34.7z"/>
	</g>
</g>
<g id="Main_Layer">
	<g id="Zone_control_icons">
	</g>
</g>
</svg>
