<?xml version="1.0" encoding="utf-8"?>
<!-- Generator: Adobe Illustrator 26.3.1, SVG Export Plug-In . SVG Version: 6.00 Build 0)  -->
<svg version="1.1" id="Layer_1" xmlns="http://www.w3.org/2000/svg" xmlns:xlink="http://www.w3.org/1999/xlink" x="0px" y="0px"
	 viewBox="0 0 40 40" style="enable-background:new 0 0 40 40;" xml:space="preserve">
<path d="M20,9.2l3.1,3.1L22,13.5l-2-2l-2,2l-1.1-1.1L20,9.2z M27.6,16.9L26.5,18l2,2l-2,2l1.1,1.1l3.1-3.1L27.6,16.9z M20,28.6l-2-2
	l-1.1,1.1l3.1,3.1l3.1-3.1L22,26.5L20,28.6z M12.3,16.9L9.2,20l3.1,3.1l1.1-1.1l-2-2l2-2L12.3,16.9z M22.6,17.4h-5.2v5.2h5.2
	C22.6,22.6,22.6,17.4,22.6,17.4z"/>
<path d="M-1.4,4.5v31.1h42.8V4.5H-1.4z M40.6,34.8H-0.6V5.3h41.2V34.8z"/>
</svg>
