<?xml version="1.0" encoding="utf-8"?>
<!-- Generator: Adobe Illustrator 27.8.0, SVG Export Plug-In . SVG Version: 6.00 Build 0)  -->
<svg version="1.1" baseProfile="tiny" id="Layer_1" xmlns="http://www.w3.org/2000/svg" xmlns:xlink="http://www.w3.org/1999/xlink"
	 x="0px" y="0px" viewBox="0 0 64 64" overflow="visible" xml:space="preserve">
<path fill="#FFFFFF" d="M41.2,22.5v5.8c4.5,2.9,7.5,8.1,7.5,13.9c0,9.2-7.5,16.7-16.8,16.7c-9.2,0-16.7-7.5-16.7-16.7
	c0-5.8,2.9-10.9,7.4-13.9v-5.8c-7.4,3.4-12.5,11-12.5,19.7C10.2,54.2,20,64,32,64c12.1,0,21.8-9.8,21.8-21.8
	C53.8,33.5,48.6,25.9,41.2,22.5z"/>
<polygon fill="#FFFFFF" points="44.9,15.1 34.5,15.1 34.5,30.3 29.4,30.3 29.4,15.1 19.1,15.1 32,0 "/>
<circle fill="#FFFFFF" cx="32" cy="42.2" r="5.6"/>
</svg>
