<?xml version="1.0" encoding="utf-8"?>
<!-- Generator: Adobe Illustrator 25.1.0, SVG Export Plug-In . SVG Version: 6.00 Build 0)  -->
<svg version="1.1" baseProfile="tiny" id="Layer_1" xmlns="http://www.w3.org/2000/svg" xmlns:xlink="http://www.w3.org/1999/xlink"
	 x="0px" y="0px" viewBox="0 0 32 32" overflow="visible" xml:space="preserve">
<path id="claim" fill="#FFFFFF" d="M26.55,1.05c0-0.41-0.2-0.61-0.61-0.61H9.71c-0.16,0-0.3,0.06-0.42,0.19L4.15,5.72
	C4.05,5.88,4.01,6.03,4.01,6.19v24.76c0,0.41,0.2,0.61,0.61,0.61h21.32c0.41,0,0.61-0.2,0.61-0.61V1.05 M10.33,6.19V1.71h15v28.63
	H5.23V6.8h4.48c0.19,0,0.33-0.06,0.42-0.19C10.26,6.52,10.33,6.38,10.33,6.19 M9.1,2.56v3.02H6.13L9.1,2.56 M7.45,27.22
	c0,0.41,0.2,0.61,0.61,0.61h5.42c0.41,0,0.61-0.2,0.61-0.61c0-0.41-0.2-0.61-0.61-0.61H8.06C7.65,26.61,7.45,26.82,7.45,27.22
	 M17.87,24.58c0-0.41-0.2-0.61-0.61-0.61h-9.2c-0.41,0-0.61,0.2-0.61,0.61c0,0.41,0.2,0.61,0.61,0.61h9.2
	C17.67,25.2,17.87,24.99,17.87,24.58 M20.42,27.84h1.79c0.41,0,0.61-0.2,0.61-0.61c0-0.41-0.2-0.61-0.61-0.61h-1.79
	c-0.41,0-0.61,0.2-0.61,0.61C19.81,27.63,20.01,27.84,20.42,27.84 M8.06,19.07c-0.44,0-0.66,0.2-0.66,0.61
	c0,0.41,0.22,0.61,0.66,0.61h14.43c0.41,0,0.61-0.2,0.61-0.61c0-0.41-0.2-0.61-0.61-0.61H8.06 M8.06,16.94
	c-0.44,0-0.66,0.2-0.66,0.61c0,0.41,0.22,0.61,0.66,0.61h14.43c0.41,0,0.61-0.2,0.61-0.61c0-0.41-0.2-0.61-0.61-0.61H8.06
	 M8.06,14.63c-0.44,0-0.66,0.22-0.66,0.66c0,0.41,0.22,0.61,0.66,0.61h14.43c0.41,0,0.61-0.2,0.61-0.61c0-0.44-0.2-0.66-0.61-0.66
	H8.06 M8.06,13.78h0.33c0.41,0,0.61-0.2,0.61-0.61s-0.2-0.61-0.61-0.61H8.06c-0.44,0-0.66,0.2-0.66,0.61S7.62,13.78,8.06,13.78
	 M9.95,13.17c0,0.41,0.2,0.61,0.61,0.61h11.93c0.41,0,0.61-0.2,0.61-0.61s-0.2-0.61-0.61-0.61H10.56
	C10.15,12.56,9.95,12.76,9.95,13.17 M15.51,6.9c0.41,0,0.61-0.2,0.61-0.61c0-0.41-0.2-0.61-0.61-0.61h-3.4
	c-0.41,0-0.61,0.2-0.61,0.61c0,0.41,0.2,0.61,0.61,0.61H15.51 M22.16,4.4c-0.53-0.57-1.19-0.85-1.98-0.85S18.74,3.83,18.2,4.4
	c-0.57,0.53-0.85,1.19-0.85,1.98s0.28,1.45,0.85,1.98c0.53,0.57,1.19,0.85,1.98,0.85s1.45-0.28,1.98-0.85
	c0.57-0.53,0.85-1.19,0.85-1.98S22.73,4.93,22.16,4.4 M20.18,4.78c0.44,0,0.82,0.16,1.13,0.47c0.31,0.31,0.47,0.69,0.47,1.13
	c0,0.44-0.16,0.82-0.47,1.13C21,7.83,20.62,7.98,20.18,7.98c-0.44,0-0.82-0.16-1.13-0.47c-0.31-0.31-0.47-0.69-0.47-1.13
	c0-0.44,0.16-0.82,0.47-1.13C19.37,4.93,19.74,4.78,20.18,4.78z"/>
</svg>
