<?xml version="1.0" encoding="utf-8"?>
<!-- Generator: Adobe Illustrator 25.1.0, SVG Export Plug-In . SVG Version: 6.00 Build 0)  -->
<svg version="1.1" baseProfile="tiny" id="Layer_1" xmlns="http://www.w3.org/2000/svg" xmlns:xlink="http://www.w3.org/1999/xlink"
	 x="0px" y="0px" viewBox="0 0 32 32" overflow="visible" xml:space="preserve">
<path id="track" fill="#FFFFFF" d="M25.05,9.57c0-2.43-0.88-4.53-2.65-6.3c-1.73-1.73-3.83-2.6-6.3-2.6s-4.57,0.87-6.3,2.6
	c-1.73,1.77-2.6,3.87-2.6,6.3c0,2.47,0.87,4.57,2.6,6.3c1.53,1.47,3.28,2.32,5.25,2.55l-0.2,11.6c0,0.37,0.12,0.67,0.35,0.9
	c0.2,0.27,0.47,0.4,0.8,0.4c0.33,0,0.6-0.12,0.8-0.35c0.23-0.23,0.35-0.53,0.35-0.9l0.2-11.65c1.9-0.27,3.58-1.12,5.05-2.55
	C24.16,14.14,25.05,12.04,25.05,9.57 M21.1,4.58c1.4,1.4,2.1,3.07,2.1,5c0,1.97-0.7,3.62-2.1,4.95c-1.33,1.4-3,2.1-5,2.1
	c-1.93,0-3.6-0.7-5-2.1c-1.37-1.37-2.05-3.02-2.05-4.95c0-1.9,0.68-3.57,2.05-5c1.43-1.37,3.1-2.05,5-2.05
	C18.06,2.53,19.73,3.21,21.1,4.58 M15.35,5.68c-0.33-0.33-0.73-0.5-1.2-0.5s-0.87,0.17-1.2,0.5c-0.33,0.33-0.5,0.73-0.5,1.2
	c0,0.47,0.17,0.88,0.5,1.25c0.33,0.33,0.73,0.5,1.2,0.5s0.87-0.17,1.2-0.5c0.33-0.37,0.5-0.78,0.5-1.25
	C15.85,6.41,15.68,6.01,15.35,5.68z"/>
</svg>
