<?xml version="1.0" encoding="utf-8"?>
<!-- Generator: Adobe Illustrator 25.4.1, SVG Export Plug-In . SVG Version: 6.00 Build 0)  -->
<svg version="1.1" baseProfile="tiny" xmlns="http://www.w3.org/2000/svg" xmlns:xlink="http://www.w3.org/1999/xlink" x="0px"
	 y="0px" viewBox="0 0 256 256" overflow="visible" xml:space="preserve">
<g id="Layer_2">
</g>
<g id="Layer_1">
	<path fill="#FFFFFF" d="M236.2,0H19.8C8.9,0,0,8.9,0,19.8v216.4C0,247.1,8.9,256,19.8,256h216.4c10.9,0,19.8-8.9,19.8-19.8V19.8
		C256,8.9,247.1,0,236.2,0z M132,37.6c25.4,1,49,11.3,67.1,29.4c19,19,29.4,44.2,29.4,71.1h-5.4c0-51.1-40.5-92.9-91.1-95V37.6z
		 M132,57.4c20,1,38.7,9.3,53,23.5c15.2,15.2,23.6,35.5,23.6,57h-20.2c0-32-25-58.3-56.4-60.4V57.4z M128,122c2.2,0,4.1-1.8,4.1-4.1
		V87.1c26.2,2.2,46.8,24.2,46.8,50.9h-43.3c0-4.3-3.5-7.8-7.8-7.8s-7.8,3.5-7.8,7.8H76.6c0-26.9,20.9-49,47.3-51v30.9
		C123.9,120.1,125.7,122,128,122z M67.5,138H47.3c0-21.5,8.4-41.8,23.6-57c14.3-14.3,33-22.5,53-23.5v20.2
		C92.4,79.7,67.5,106,67.5,138z M56.9,66.9c18-18,41.7-28.3,67-29.4V43c-50.5,2.2-91,43.9-91,95h-5.4C27.5,111.1,38,85.9,56.9,66.9z
		 M27.3,191.2h68.6v7.2H27.3V191.2z M160.1,218.4H95.9v-7.2h64.2V218.4z M228.7,198.4h-68.6v-7.2h68.6V198.4z M228.7,167h-68.6v11.2
		H95.9V167H27.3V147h68.6v11.2h64.2V147h68.6V167z"/>
</g>
</svg>
