<?xml version="1.0" encoding="utf-8"?>
<!-- Generator: Adobe Illustrator 25.2.3, SVG Export Plug-In . SVG Version: 6.00 Build 0)  -->
<svg version="1.1" baseProfile="tiny" id="Layer_1" xmlns="http://www.w3.org/2000/svg" xmlns:xlink="http://www.w3.org/1999/xlink"
	 x="0px" y="0px" width="40px" height="40px" viewBox="0 0 40 40" overflow="visible" xml:space="preserve">
<path id="Radiation_1_" fill-rule="evenodd" fill="#FFFFFF" d="M24.1,26.1l3.6,7.5c-2.2,1.1-4.6,1.7-7.2,1.7s-5-0.6-7.2-1.7l3.6-7.5
	c1.1,0.5,2.3,0.8,3.6,0.8C21.8,26.9,23,26.6,24.1,26.1z M20.5,14.8c2.1,0,3.8,1.7,3.8,3.8s-1.7,3.8-3.8,3.8s-3.8-1.7-3.8-3.8
	S18.4,14.8,20.5,14.8z M11.3,4.8l4.7,6.9c-2.1,1.4-3.6,3.8-3.7,6.5L4,17.5C4.3,12.2,7.1,7.6,11.3,4.8z M29.7,4.8
	c4.2,2.8,7,7.4,7.3,12.7l-8.3,0.6c-0.1-2.7-1.6-5.1-3.7-6.5L29.7,4.8z"/>
</svg>
