<?xml version="1.0" encoding="utf-8"?>
<!-- Generator: Adobe Illustrator 29.8.4, SVG Export Plug-In . SVG Version: 9.03 Build 0)  -->
<svg version="1.1" baseProfile="tiny" id="Layer_1" xmlns="http://www.w3.org/2000/svg" xmlns:xlink="http://www.w3.org/1999/xlink"
	 x="0px" y="0px" viewBox="0 0 8.56 11.32" overflow="visible" xml:space="preserve">
<g>
	<path fill="#A8FFE7" d="M0,11.12V10.3c0-0.12,0.08-0.2,0.2-0.2h8.04c0.12,0,0.2,0.08,0.2,0.2v0.82c0,0.12-0.08,0.2-0.2,0.2H0.2
		C0.08,11.32,0,11.24,0,11.12z M0.12,8.8V7.82c0-0.1,0.06-0.18,0.16-0.22l6.74-3.04c0.08-0.04,0.08-0.08,0-0.12L0.28,1.4
		c-0.1-0.04-0.16-0.12-0.16-0.22v-1c0-0.14,0.1-0.22,0.24-0.16L8.42,3.8c0.1,0.06,0.14,0.12,0.14,0.22v0.96
		c0,0.1-0.04,0.16-0.14,0.22L0.36,8.96C0.22,9.02,0.12,8.94,0.12,8.8z"/>
</g>
</svg>
