<?xml version="1.0" encoding="utf-8"?>
<!-- Generator: Adobe Illustrator 27.8.0, SVG Export Plug-In . SVG Version: 6.00 Build 0)  -->
<svg version="1.1" baseProfile="tiny" id="Layer_1" xmlns="http://www.w3.org/2000/svg" xmlns:xlink="http://www.w3.org/1999/xlink"
	 x="0px" y="0px" viewBox="0 0 64 64" overflow="visible" xml:space="preserve">
<g>
	<path fill="#FFFFFF" d="M56.3,30.9c-0.2-2.8-0.9-5.5-1.9-8c-0.4-0.8-1.5-0.9-2-0.2c-1.8,2.8-4.5,5.8-8.8,7.9
		c-1.3,0.6-2.6,1.1-3.8,1.4l-1.7-4.2c1.9-2.1,3.6-5,4.3-8.6c0.5-2.8,0.3-5.2-0.1-7.2c-0.3-1.2-1.2-2.3-2.4-2.7
		c-2.5-0.9-5.2-1.4-8.1-1.4c-0.9,0-1.8,0.1-2.7,0.2c-0.9,0.1-1.3,1.2-0.7,1.9c2.1,2.5,4.3,6.1,5,10.9c0.2,1.2,0.2,2.3,0.2,3.3
		l-5.1,0.4c-1.5-2.1-3.6-4.3-6.5-5.8c-2.5-1.3-5-1.8-7-1.9c-1.2-0.1-2.4,0.4-3.1,1.4c-2.1,2.9-3.6,6.4-4.2,10.1
		c-0.1,0.9,0.7,1.6,1.6,1.3c3-1.3,7.1-2.3,11.8-1.7c1.4,0.2,2.8,0.5,4,1l-1,4.1c-2.8,0.6-5.8,1.9-8.5,4.4c-2,1.8-3.3,3.9-4.1,5.7
		c-0.5,1.2-0.4,2.6,0.4,3.6c2,2.9,4.7,5.3,7.8,7.1c0.8,0.5,1.8-0.1,1.7-1c-0.2-3.3,0.2-7.3,2.4-11.4c0.9-1.7,1.9-3.1,2.9-4.3
		l3.7,2.3c-0.2,3,0.2,6.8,2.3,10.4c1.3,2.4,3,4.1,4.5,5.3c0.9,0.7,2.2,0.9,3.3,0.5c3.5-1.3,6.6-3.3,9.1-6c0.6-0.7,0.3-1.8-0.6-1.9
		c-3.2-0.6-7-2-10.5-5c-1.5-1.3-2.6-2.7-3.5-4l2.5-2.1c2.7,1.4,6.4,2.5,10.6,2.1c2.7-0.3,4.9-1.2,6.6-2.2c1.1-0.6,1.8-1.8,1.9-3
		C56.4,32.7,56.4,31.8,56.3,30.9z M35.6,35.8c-0.5,0.5-1.2,0.9-1.9,1.1c-0.5,0.2-1.1,0.3-1.6,0.3c-0.5,0-0.9-0.1-1.3-0.2
		c-1-0.2-1.8-0.7-2.5-1.4c-0.8-0.8-1.3-1.8-1.5-2.9c-0.1-0.3-0.1-0.6-0.1-0.8c0-0.7,0.1-1.4,0.4-2c0.5-1.3,1.5-2.3,2.8-2.9
		c0.7-0.3,1.4-0.5,2.2-0.5c0.5,0,1,0.1,1.5,0.2c1.4,0.4,2.6,1.4,3.3,2.7c0.4,0.7,0.6,1.6,0.6,2.5c0,0.3,0,0.6-0.1,0.9
		C37.1,33.9,36.5,35,35.6,35.8z"/>
</g>
</svg>
