<?xml version="1.0" encoding="utf-8"?>
<!-- Generator: Adobe Illustrator 28.7.5, SVG Export Plug-In . SVG Version: 9.03 Build 55973)  -->
<svg version="1.1" baseProfile="tiny" id="Layer_1" xmlns="http://www.w3.org/2000/svg" xmlns:xlink="http://www.w3.org/1999/xlink"
	 x="0px" y="0px" viewBox="0 0 97.3 97.3" overflow="visible" xml:space="preserve">
<path id="opacity:10_colorstyle:Positive_00000018237280379303515220000017786268010613612678_" fill="#F8FBFA" d="M78.5,18.3
	c-2.1,2.8-6,3.5-8.8,1.4c-2.8-2.1-3.5-6-1.4-8.8c2.1-2.8,6-3.5,8.8-1.4S80.6,15.5,78.5,18.3z"/>
<path id="opacity:20_colorstyle:Positive" fill="#F1F6F4" d="M90.6,41.7c-3.3,1.1-6.9-0.7-8-4.1s0.7-6.9,4.1-8
	c3.3-1.1,6.9,0.7,8,4.1C95.8,37,93.9,40.6,90.6,41.7z"/>
<path id="opacity:30_colorstyle:Positive" fill="#EAF2EF" d="M86.7,67.7c-3.3-1.1-5.1-4.7-4.1-8s4.7-5.1,8-4.1
	c3.3,1.1,5.1,4.7,4.1,8C93.6,66.9,90,68.8,86.7,67.7z"/>
<path id="opacity:40_colorstyle:Positive_00000151523806848104872510000008164300846663921035_" fill="#E3EDE9" d="M68.2,86.4
	c-2.1-2.8-1.4-6.8,1.4-8.8c2.8-2.1,6.8-1.4,8.8,1.4c2.1,2.8,1.4,6.8-1.4,8.8C74.3,89.9,70.3,89.2,68.2,86.4z"/>
<path id="opacity:50_colorstyle:Positive" fill="#DCE8E3" d="M42.3,90.7c0-3.5,2.8-6.3,6.3-6.3c3.5,0,6.3,2.8,6.3,6.3
	c0,3.5-2.8,6.3-6.3,6.3C45.2,97,42.3,94.2,42.3,90.7z"/>
<path id="opacity:60_colorstyle:Positive" fill="#D5E3DD" d="M18.8,79c2.1-2.8,6-3.5,8.8-1.4c2.8,2.1,3.5,6,1.4,8.8s-6,3.5-8.8,1.4
	C17.4,85.7,16.7,81.8,18.8,79z"/>
<path id="opacity:70_colorstyle:Positive_00000021108749473470088390000001917260428867332783_" fill="#CEDFD8" d="M6.7,55.6
	c3.3-1.1,6.9,0.7,8,4.1s-0.7,6.9-4.1,8s-6.9-0.7-8-4.1C1.5,60.3,3.4,56.7,6.7,55.6z"/>
<path id="opacity:80_colorstyle:Positive" fill="#C7DAD2" d="M10.6,29.6c3.3,1.1,5.1,4.7,4.1,8s-4.7,5.1-8,4.1s-5.1-4.7-4.1-8
	S7.3,28.5,10.6,29.6z"/>
<path id="opacity:90_colorstyle:Positive" fill="#C0D6CD" d="M29,10.9c2.1,2.8,1.4,6.8-1.4,8.8s-6.8,1.4-8.8-1.4s-1.4-6.8,1.4-8.8
	S27,8.1,29,10.9z"/>
<path id="opacity:100_colorstyle:Positive" fill="#B9D1C7" d="M55,6.6c0,3.5-2.8,6.3-6.3,6.3s-6.3-2.8-6.3-6.3s2.8-6.3,6.3-6.3
	S55,3.1,55,6.6z"/>
</svg>
