<?xml version="1.0" encoding="utf-8"?>
<!-- Generator: Adobe Illustrator 26.2.0, SVG Export Plug-In . SVG Version: 6.00 Build 0)  -->
<svg version="1.1" baseProfile="tiny" xmlns="http://www.w3.org/2000/svg" xmlns:xlink="http://www.w3.org/1999/xlink" x="0px"
	 y="0px" width="40px" height="40px" viewBox="0 0 40 40" overflow="visible" xml:space="preserve">
<g id="Black_BG" display="none">
	<rect x="-3556.4" y="-2977" display="inline" width="7152" height="6096"/>
</g>
<g id="HUD_modes_x5F_icon">
	<g id="gun">
		<path fill="#FFFFFF" d="M4.5,15.2h4.4v0c0-1.5-0.2-3-0.7-4.5L7.1,7.5C7,7.1,6.5,7.1,6.3,7.5l-1.1,3.3C4.8,12.2,4.5,13.7,4.5,15.2
			L4.5,15.2z"/>
		<polygon fill="#FFFFFF" points="8.2,28.8 8.2,30.7 8.9,30.7 8.9,32.2 4.5,32.2 4.5,30.7 5.3,30.7 5.3,28.8 4.5,28.8 4.5,17 
			8.9,17 8.9,28.8 		"/>
		<path fill="#FFFFFF" d="M13.3,15.2h4.4v0c0-1.5-0.2-3-0.7-4.5l-1.1-3.3c-0.1-0.4-0.7-0.4-0.8,0l-1.1,3.3
			C13.6,12.2,13.3,13.7,13.3,15.2L13.3,15.2z"/>
		<polygon fill="#FFFFFF" points="17,28.8 17,30.7 17.7,30.7 17.7,32.2 13.3,32.2 13.3,30.7 14.1,30.7 14.1,28.8 13.3,28.8 13.3,17 
			17.7,17 17.7,28.8 		"/>
		<path fill="#FFFFFF" d="M30.9,15.2h4.4v0c0-1.5-0.2-3-0.7-4.5l-1.1-3.3c-0.1-0.4-0.7-0.4-0.8,0l-1.1,3.3
			C31.2,12.2,30.9,13.7,30.9,15.2L30.9,15.2z"/>
		<polygon fill="#FFFFFF" points="34.6,28.8 34.6,30.7 35.4,30.7 35.4,32.2 30.9,32.2 30.9,30.7 31.7,30.7 31.7,28.8 30.9,28.8 
			30.9,17 35.4,17 35.4,28.8 		"/>
		<path fill="#FFFFFF" d="M22.1,15.2h4.4v0c0-1.5-0.2-3-0.7-4.5l-1.1-3.3c-0.1-0.4-0.7-0.4-0.8,0l-1.1,3.3
			C22.4,12.2,22.1,13.7,22.1,15.2L22.1,15.2z"/>
		<polygon fill="#FFFFFF" points="25.8,28.8 25.8,30.7 26.6,30.7 26.6,32.2 22.1,32.2 22.1,30.7 22.9,30.7 22.9,28.8 22.1,28.8 
			22.1,17 26.6,17 26.6,28.8 		"/>
	</g>
</g>
<g id="Main_Layer">
	<g id="Zone_control_icons">
	</g>
</g>
</svg>
