<?xml version="1.0" encoding="utf-8"?>
<!-- Generator: Adobe Illustrator 25.4.1, SVG Export Plug-In . SVG Version: 6.00 Build 0)  -->
<svg version="1.1" baseProfile="tiny" id="Layer_1" xmlns="http://www.w3.org/2000/svg" xmlns:xlink="http://www.w3.org/1999/xlink"
	 x="0px" y="0px" width="40px" height="40px" viewBox="0 0 40 40" overflow="visible" xml:space="preserve">
<path d="M36.3,35.5H3.7c-1,0-1.9-0.9-1.9-1.9v0c0-1,0.9-1.9,1.9-1.9h32.5c1,0,1.9,0.9,1.9,1.9v0C38.2,34.6,37.3,35.5,36.3,35.5z"/>
<path d="M36.1,4.5H3.9C2.1,4.5,1.1,6.7,2.4,8l16.2,16.1c0.8,0.8,2.1,0.8,2.9,0L37.6,8C38.9,6.7,37.9,4.5,36.1,4.5z M21.6,17.9
	l-0.1-0.3c0,0-0.2,0.1-0.2,0.1c-0.2,0.1-0.4,0.2-0.7,0.2h-2.5c-0.4,0-0.8-0.2-1.1-0.3c-0.4-0.2-1-0.9-1.2-1.2
	c-0.2-0.3-0.3-0.7-0.3-1v-5.1c0-0.4,0.1-0.7,0.3-1.1C16,8.9,16.7,8.2,17,8c0.3-0.2,0.7-0.3,1.1-0.3h2.6c1,0,1.8,0.9,2.2,1.4
	c0.3,0.4,0.4,0.7,0.6,1.1l-1.9,0.5c-0.2-0.5-0.4-0.7-0.9-1.1h-2.5c-0.2,0.1-0.5,0.4-0.7,0.7v5.1c0,0.1,0.4,0.4,0.6,0.6h2.5
	c0.3-0.1,0.6-0.5,0.6-0.6v-1.5H19v-1.9h4.4v3.8c0,0.2,0.1,0.6,0.1,1l0.2,1.2H21.6z"/>
</svg>
