<?xml version="1.0" encoding="utf-8"?>
<!-- Generator: Adobe Illustrator 25.4.2, SVG Export Plug-In . SVG Version: 6.00 Build 0)  -->
<svg version="1.1" baseProfile="tiny" id="Layer_1" xmlns="http://www.w3.org/2000/svg" xmlns:xlink="http://www.w3.org/1999/xlink"
	 x="0px" y="0px" viewBox="0 0 97.6 97.6" overflow="visible" xml:space="preserve">
<path fill="#5E2748" d="M88.6,0H9C4,0,0,4,0,9v79.5c0,5,4,9,9,9h79.6c5,0,9-4,9-9V9C97.6,4.1,93.6,0,88.6,0z"/>
<g>
	<path fill="#FFFDDE" d="M71.6,11.1h-2.9c-6.6-0.8-9.4,26-10.7,36.2c-0.3,2.4,1.6,4.5,4,4.5h6.6v37.5h5.5V13.6
		C74.1,12.2,73,11.1,71.6,11.1z"/>
	<path fill="#FFFDDE" d="M42.7,39.9h-4.2V11.1h-5.5v28.8h-4.2V11.1h-5.4v28.8v2.2v2.7c0.8,7,9.6,9.3,9.6,9.3v35.2h5.5V54.2
		c0,0,8.8-2.3,9.6-9.3v-2.7v-2.2V11.1h-5.5V39.9z"/>
</g>
</svg>
