<?xml version="1.0" encoding="utf-8"?>
<!-- Generator: Adobe Illustrator 28.3.0, SVG Export Plug-In . SVG Version: 6.00 Build 0)  -->
<svg version="1.1" baseProfile="tiny" id="Layer_1" xmlns="http://www.w3.org/2000/svg" xmlns:xlink="http://www.w3.org/1999/xlink"
	 x="0px" y="0px" viewBox="0 0 500 500" overflow="visible" xml:space="preserve">
<g>
	<path fill="#FFFFFF" d="M324.4,160.4V292c0,8.3-6.7,15-15,15c-4.1,0-7.9,1.7-10.6,4.4c-2.7,2.7-4.4,6.5-4.4,10.6v85.2
		c-14.8,1.4-30.4,2.1-46.3,2.1c-13.9,0-27.7-0.5-40.8-1.6v-85.6c0-8.3-6.7-15-15-15h-1.8c-8.3,0-15-6.7-15-15V160.4
		c0-8.3,6.7-15,15-15h43.1l14.5,25.1l14.5-25.1h46.8C317.7,145.5,324.4,152.2,324.4,160.4z"/>
	<circle fill="#FFFFFF" cx="250" cy="87.5" r="48.4"/>
	<g>
		<path fill="#FFFFFF" d="M365.2,347.2c-15.7-4.4-34-7.9-53.9-10.2c-0.7,2-1,4.1-1,6.3v33.4c12.6,1.6,24.5,3.6,35.2,6.2
			c21.4,5.1,32.6,10.7,37.6,14.3c-5,3.6-16.2,9.2-37.6,14.3c-10.7,2.5-22.5,4.6-35.2,6.2c-18.8,2.3-39.3,3.6-60.3,3.6
			c-18.7,0-37.1-1-54.2-2.9c-14.9-1.6-28.9-3.9-41.2-6.9c-21.4-5.1-32.6-10.7-37.6-14.3c5-3.6,16.2-9.2,37.6-14.3
			c12.3-2.9,26.3-5.3,41.2-6.9v-32.7c0-2.5-0.4-4.8-1.3-6.9c-22.1,2.3-42.4,5.9-59.6,10.8c-39.7,11.2-59.9,28.1-59.9,50
			c0,22,20.1,38.8,59.9,50c17.6,5,38.4,8.7,60.9,10.9c17.2,1.8,35.5,2.6,54.2,2.6c20.9,0,41.3-1.1,60.3-3.3
			c20.2-2.3,38.9-5.8,54.9-10.3c39.7-11.2,59.9-28,59.9-50C425,375.3,404.9,358.5,365.2,347.2z"/>
	</g>
</g>
</svg>
