<?xml version="1.0" encoding="utf-8"?>
<!-- Generator: Adobe Illustrator 26.2.1, SVG Export Plug-In . SVG Version: 6.00 Build 0)  -->
<svg version="1.1" baseProfile="tiny" id="Layer_1" xmlns="http://www.w3.org/2000/svg" xmlns:xlink="http://www.w3.org/1999/xlink"
	 x="0px" y="0px" viewBox="0 0 350 350" overflow="visible" xml:space="preserve">
<path id="Locked" fill-rule="evenodd" d="M239.8,146.5h-6.9c0-9.6,0-35.4,0-43.4c0-31.7-25.7-57.4-57.5-57.4
	c-31.7,0-57.4,25.7-57.4,57.4c0,10.4,0,33.9,0.1,43.4H96.6c-2.8,2.8-4.4,4.4-7.3,7.3v128.9c8.5,8.5,13.3,13.3,21.8,21.8h143.2
	c2.8-2.8,4.4-4.4,7.3-7.3V168.2C253.1,159.7,248.3,155,239.8,146.5z M175.5,67.7c17.9,0,32.3,14.4,32.3,32.3v46.5h-64.6V100
	C143.2,82.1,157.7,67.7,175.5,67.7z"/>
</svg>
