<?xml version="1.0" encoding="utf-8"?>
<!-- Generator: Adobe Illustrator 25.1.0, SVG Export Plug-In . SVG Version: 6.00 Build 0)  -->
<svg version="1.1" baseProfile="tiny" id="Icon" xmlns="http://www.w3.org/2000/svg" xmlns:xlink="http://www.w3.org/1999/xlink"
	 x="0px" y="0px" width="256px" height="256px" viewBox="0 0 256 256" overflow="visible" xml:space="preserve">
<polygon fill="#FFFFFF" points="136.5,166 136.5,11 120.5,11 120.5,166 101.1,166 114.8,189.8 128.5,213.5 142.2,189.8 155.9,166 
	"/>
<g>
	<path fill="#FFFFFF" d="M135.9,200.7c-2.4,0.2-4.9,0.3-7.4,0.3s-5-0.1-7.4-0.3l7.4,12.8L135.9,200.7z"/>
	<path fill="#FFFFFF" d="M205.2,143.2c-7.4,25.8-27.5,46.3-53,54.3l-12.9,22.3l-10.8,18.8l-10.8-18.8l-12.9-22.3
		c-25.6-8-45.7-28.4-53-54.3c-2,7-3.1,14.4-3.1,22c0,44.1,35.7,79.8,79.8,79.8c44.1,0,79.8-35.7,79.8-79.8
		C208.3,157.5,207.2,150.2,205.2,143.2z"/>
</g>
</svg>
