<?xml version="1.0" encoding="utf-8"?>
<!-- Generator: Adobe Illustrator 27.8.0, SVG Export Plug-In . SVG Version: 6.00 Build 0)  -->
<svg version="1.1" baseProfile="tiny" id="Layer_1" xmlns="http://www.w3.org/2000/svg" xmlns:xlink="http://www.w3.org/1999/xlink"
	 x="0px" y="0px" viewBox="0 0 64 64" overflow="visible" xml:space="preserve">
<g>
	<path fill="#FFFFFF" d="M47.7,10.6H16.3c-4.2,0-7.7,3.4-7.7,7.7v27.4c0,4.2,3.4,7.7,7.7,7.7h31.5c4.2,0,7.7-3.4,7.7-7.7V18.3
		C55.4,14.1,51.9,10.6,47.7,10.6z M30,37.6c0-1.8,1.4-3.3,3.3-3.3c1.8,0,3.3,1.4,3.3,3.3c0,1.8-1.5,3.2-3.3,3.2
		C31.5,40.8,30,39.4,30,37.6z M52.1,45.7c0,2.4-2,4.4-4.4,4.4h-1.8V27c0-1-0.8-1.7-1.7-1.7h-15c-1,0-1.7,0.8-1.7,1.7v23.1H16.3
		c-2.4,0-4.4-2-4.4-4.4V18.3c0-2.4,2-4.4,4.4-4.4h31.5c2.4,0,4.4,2,4.4,4.4V45.7z"/>
</g>
</svg>
