<?xml version="1.0" encoding="utf-8"?>
<!-- Generator: Adobe Illustrator 27.8.0, SVG Export Plug-In . SVG Version: 6.00 Build 0)  -->
<svg version="1.1" baseProfile="tiny" id="Layer_1" xmlns="http://www.w3.org/2000/svg" xmlns:xlink="http://www.w3.org/1999/xlink"
	 x="0px" y="0px" viewBox="0 0 64 64" overflow="visible" xml:space="preserve">
<polygon fill="#FFFFFF" points="25,11.8 18.2,9.6 24,0 29.9,3.6 "/>
<polygon fill="#FFFFFF" points="35.9,15 29.1,12.7 34,4.5 40,8 "/>
<rect x="39.9" y="10.7" transform="matrix(0.8581 0.5134 -0.5134 0.8581 15.2448 -19.7448)" fill="#FFFFFF" width="6.9" height="14.1"/>
<polygon fill="#FFFFFF" points="57.9,21.3 52.1,31 46.1,27.5 52,17.7 "/>
<polygon fill="#FFFFFF" points="51.3,39.5 46.6,46.3 46.6,64 17.4,64 20.6,45.1 6.1,28 13.3,13.7 33.3,19.5 29.9,25.3 16.2,25.5 
	16.2,28.7 29.3,30 39.2,44 41.7,42.8 33.3,27.6 34.3,26 50.4,35.5 "/>
</svg>
