<?xml version="1.0" encoding="utf-8"?>
<!-- Generator: Adobe Illustrator 26.0.2, SVG Export Plug-In . SVG Version: 6.00 Build 0)  -->
<svg version="1.1" baseProfile="tiny" id="Layer_1" xmlns="http://www.w3.org/2000/svg" xmlns:xlink="http://www.w3.org/1999/xlink"
	 x="0px" y="0px" viewBox="0 0 256 256" overflow="visible" xml:space="preserve">
<g id="Layer_2_00000181052536622997352630000010963937732361095310_">
	<g id="Layer_3" display="none">
		<g display="inline">
			<path d="M128,16.2c8.5,0,17,3.2,23.5,9.7l78.8,78.8c13,13,13,34,0,46.9l-78.8,78.8c-6.5,6.5-15,9.7-23.5,9.7s-17-3.2-23.5-9.7
				l-78.8-78.8c-13-13-13-34,0-46.9L104.6,26C111,19.5,119.5,16.2,128,16.2 M128,1.1c-12.9,0-25,5-34.1,14.1L15.1,94.1
				c-18.8,18.8-18.8,49.4,0,68.3l78.8,78.8c9.1,9.1,21.2,14.1,34.1,14.1s25-5,34.1-14.1l78.8-78.8c18.8-18.8,18.8-49.4,0-68.3
				l-78.8-78.8C153,6.2,140.9,1.1,128,1.1L128,1.1z"/>
		</g>
		<path display="inline" d="M175.6,99l-20.9,12.7v-12c0-4.5-3.7-8.2-8.2-8.2H79c-4.5,0-8.2,3.7-8.2,8.2v57.1c0,4.5,3.7,8.2,8.2,8.2
			h67.5c4.5,0,8.2-3.7,8.2-8.2v-12l20.9,12.7c4.2,2.5,9.5-0.5,9.5-5.4v-47.6C185.2,99.5,179.8,96.5,175.6,99z"/>
	</g>
	<g id="Layer_4">
		<path d="M128,16.1c8.5,0,17,3.2,23.5,9.7l78.8,78.8c13,13,13,34,0,46.9l-78.8,78.8c-6.5,6.5-15,9.7-23.5,9.7s-17-3.2-23.5-9.7
			l-78.8-78.8c-13-13-13-34,0-46.9l78.8-78.8C111,19.3,119.5,16.1,128,16.1 M128,1c-12.9,0-25,5-34.1,14.1L15.1,93.9
			C6,103,1,115.1,1,128s5,25,14.1,34.1l78.8,78.8C103,250,115.1,255,128,255s25-5,34.1-14.1l78.8-78.8C250,153,255,140.9,255,128
			s-5-25-14.1-34.1l-78.8-78.8C153,6,140.9,1,128,1L128,1z"/>
		<rect x="77.3" y="116.8" display="none" width="101.4" height="25.6"/>
	</g>
	<g id="Layer_5" display="none">
		<g display="inline">
			<g>
				<path d="M80,124.1l-4.3,35.5L145.3,90h-69l-3,26.3C72.9,120.3,76,123.9,80,124.1z"/>
			</g>
			<g>
				<polygon points="186.1,89.9 151.9,124.1 202,124.1 202,89.9 				"/>
			</g>
			<g>
				<path d="M90,186h18.5c2.2,0,4.1-1.7,4.4-3.9l2.6-21.7L90,186z"/>
			</g>
			<g>
				<path d="M130.3,145.7h4.1c5.8,0,10.5-4.7,10.5-10.5V135l-0.5-3.5L130.3,145.7z"/>
			</g>
		</g>
		<path display="inline" d="M240.6,93.9L162,15.2c-9.1-9.1-21.2-14.1-34.1-14.1s-25,5-34.1,14.1L15.2,93.9
			c-9.1,9.1-14.1,21.2-14.1,34s5,25,14.1,34.1l78.6,78.6c9.1,9.1,21.2,14.1,34.1,14.1s25-5,34.1-14.1l78.6-78.6
			c9.1-9.1,14.1-21.2,14.1-34.1S249.7,103,240.6,93.9z M25.9,104.5l78.6-78.6c6.5-6.5,14.9-9.7,23.4-9.7s16.9,3.2,23.4,9.7l34,34
			l-126,124.9l-33.5-33.5C13,138.4,13,117.5,25.9,104.5z M230,151.3L151.3,230c-6.5,6.5-14.9,9.7-23.4,9.7s-16.9-3.2-23.4-9.7
			L70,195.5L196,70.6l33.9,33.9C242.9,117.5,242.9,138.4,230,151.3z"/>
	</g>
</g>
</svg>
