<?xml version="1.0" encoding="utf-8"?>
<!-- Generator: Adobe Illustrator 27.8.0, SVG Export Plug-In . SVG Version: 6.00 Build 0)  -->
<svg version="1.1" baseProfile="tiny" id="Layer_1" xmlns="http://www.w3.org/2000/svg" xmlns:xlink="http://www.w3.org/1999/xlink"
	 x="0px" y="0px" viewBox="0 0 64 64" overflow="visible" xml:space="preserve">
<path fill="#FFFFFF" d="M50.8,31.2c-0.2-2.2-0.7-4.2-1.5-6.1c-0.3-0.6-1.2-0.7-1.6-0.1C46.4,27,44.2,29.4,41,31
	c-1,0.5-2,0.8-2.9,1.1l-1.3-3.2c1.4-1.6,2.8-3.8,3.3-6.6c0.4-2.1,0.2-4-0.1-5.5c-0.2-1-0.9-1.7-1.8-2.1c-1.9-0.7-4-1-6.2-1
	c-0.7,0-1.4,0-2.1,0.1c-0.7,0.1-1,0.9-0.6,1.4c1.7,2,3.3,4.7,3.8,8.4c0.1,0.9,0.2,1.7,0.2,2.5l-3.9,0.3c-1.1-1.7-2.8-3.3-5-4.5
	c-2-1-3.9-1.4-5.4-1.5c-0.9,0-1.8,0.3-2.4,1.1c-1.7,2.3-2.8,4.9-3.3,7.8c-0.1,0.7,0.6,1.3,1.2,1c2.3-1,5.5-1.8,9.1-1.3
	c1.1,0.2,2.1,0.4,3,0.8l-0.8,3.2c-2.1,0.4-4.5,1.4-6.5,3.4c-1.5,1.4-2.5,3-3.1,4.4c-0.4,0.9-0.3,2,0.3,2.8c1.6,2.2,3.6,4.1,6,5.5
	c0.6,0.4,1.4-0.1,1.3-0.8c-0.1-2.5,0.2-5.7,1.9-8.8c0.7-1.3,1.5-2.4,2.3-3.3l2.8,1.7c-0.2,2.3,0.1,5.2,1.7,8c1,1.8,2.3,3.1,3.5,4.1
	c0.7,0.5,1.7,0.7,2.5,0.4c2.7-1,5.1-2.6,7-4.6c0.5-0.5,0.2-1.4-0.5-1.5c-2.5-0.5-5.4-1.5-8.1-3.9c-1.1-1-2-2.1-2.7-3.1l1.9-1.6
	c2.1,1.1,4.9,2,8.2,1.6c2.1-0.3,3.8-0.9,5.1-1.7c0.8-0.5,1.4-1.3,1.4-2.3C50.8,32.6,50.8,31.9,50.8,31.2z M34.7,34.9
	c-0.4,0.4-0.9,0.7-1.5,0.8C32.9,35.9,32.5,36,32,36c-0.4,0-0.7,0-1.1-0.2c-0.7-0.2-1.3-0.5-1.9-1.1c-0.6-0.6-1-1.4-1.1-2.3
	c0-0.2-0.1-0.4-0.1-0.6c0-0.5,0.1-1.1,0.3-1.5c0.4-1,1.2-1.8,2.1-2.2c0.5-0.2,1.1-0.4,1.7-0.4c0.4,0,0.8,0,1.1,0.2
	c1.1,0.3,2.1,1,2.5,2.1c0.3,0.6,0.5,1.2,0.5,1.9c0,0.2,0,0.4-0.1,0.7C35.9,33.5,35.4,34.3,34.7,34.9z"/>
<path fill="#FFFFFF" d="M32,8.4C45,8.4,55.6,19,55.6,32C55.6,45,45,55.6,32,55.6C19,55.6,8.4,45,8.4,32C8.4,19,19,8.4,32,8.4
	 M32,6.1C17.7,6.1,6.1,17.7,6.1,32S17.7,57.9,32,57.9S57.9,46.3,57.9,32S46.3,6.1,32,6.1L32,6.1z"/>
</svg>
