<?xml version="1.0" encoding="utf-8"?>
<!-- Generator: Adobe Illustrator 25.1.0, SVG Export Plug-In . SVG Version: 6.00 Build 0)  -->
<svg version="1.1" baseProfile="tiny" id="Layer_1" xmlns="http://www.w3.org/2000/svg" xmlns:xlink="http://www.w3.org/1999/xlink"
	 x="0px" y="0px" viewBox="0 0 130 130" overflow="visible" xml:space="preserve">
<path id="general" fill="#FFFFFF" d="M64.43,44.2c-2.87,0.87-5.37,2.37-7.5,4.5c-1.87,1.87-3.25,4.02-4.15,6.45
	c-0.9,2.33-1.27,4.77-1.1,7.3c0.2,2.9-0.68,5.35-2.65,7.35L8.38,110.45c-1.53,1.53-2.3,3.38-2.3,5.55c0,2.13,0.77,3.97,2.3,5.5
	s3.38,2.3,5.55,2.3c2.13,0,3.97-0.77,5.5-2.3l39.05-39.05c2.73-2.73,5.4-3.88,8-3.45c2.83,0.5,5.62,0.33,8.35-0.5
	c2.83-0.87,5.3-2.35,7.4-4.45c2.3-2.3,3.87-5.03,4.7-8.2c0.77-3.07,0.73-6.13-0.1-9.2c-0.1-0.4-0.27-0.67-0.5-0.8
	c-0.33-0.2-0.72-0.08-1.15,0.35l-6.65,6.65c-1.17,1.17-2.58,1.75-4.25,1.75c-1.7,0-3.13-0.58-4.3-1.75l-2.65-2.65
	c-1.17-1.17-1.75-2.58-1.75-4.25s0.58-3.08,1.75-4.25l6.3-6.3c0.83-0.83,0.6-1.37-0.7-1.6C70.06,43.23,67.22,43.37,64.43,44.2
	 M54.03,73.3c0.5-0.5,1.1-0.75,1.8-0.75c0.73,0,1.33,0.25,1.8,0.75c0.5,0.5,0.75,1.1,0.75,1.8c0,0.7-0.25,1.3-0.75,1.8l-40.4,40.45
	c-0.5,0.5-1.1,0.75-1.8,0.75c-0.73,0-1.35-0.25-1.85-0.75s-0.75-1.1-0.75-1.8s0.25-1.3,0.75-1.8L54.03,73.3 M113.02,27.85
	c0-0.5-0.18-0.93-0.55-1.3l-8.95-8.9c-0.33-0.33-0.75-0.5-1.25-0.5s-0.93,0.17-1.3,0.5l-7.05,7.05c-4.93-3.3-10.35-5.5-16.25-6.6V8
	c0-0.5-0.17-0.92-0.5-1.25c-0.37-0.37-0.8-0.55-1.3-0.55H63.23c-0.47,0-0.88,0.18-1.25,0.55C61.61,7.08,61.42,7.5,61.42,8v10.2
	c-5.8,1.2-11.12,3.45-15.95,6.75l-7.3-7.3c-0.33-0.33-0.75-0.5-1.25-0.5s-0.93,0.17-1.3,0.5l-8.95,8.9c-0.33,0.37-0.5,0.8-0.5,1.3
	c0,0.53,0.17,0.97,0.5,1.3l7.4,7.4c-3.27,4.87-5.43,10.15-6.5,15.85H17.03c-0.5,0-0.92,0.18-1.25,0.55
	c-0.37,0.33-0.55,0.75-0.55,1.25v12.65c0,0.5,0.18,0.93,0.55,1.3c0.33,0.33,0.75,0.5,1.25,0.5h10.6c0.73,3.63,1.85,7.05,3.35,10.25
	l9.3-9.3c-1.67-5.43-1.85-10.9-0.55-16.4c1.33-5.67,4.08-10.57,8.25-14.7c6.07-6.03,13.38-9.05,21.95-9.05s15.87,3.02,21.9,9.05
	c6.07,6.07,9.1,13.38,9.1,21.95s-3.03,15.87-9.1,21.9c-4.17,4.17-9.13,6.92-14.9,8.25c-5.57,1.3-11.08,1.08-16.55-0.65l-9.25,9.2
	c3.37,1.63,6.8,2.8,10.3,3.5v10.4c0,0.5,0.18,0.93,0.55,1.3c0.37,0.33,0.78,0.5,1.25,0.5h12.65c0.5,0,0.93-0.17,1.3-0.5
	c0.33-0.37,0.5-0.8,0.5-1.3v-10.3c5.87-1.1,11.23-3.27,16.1-6.5l7.2,7.15c0.37,0.37,0.8,0.55,1.3,0.55s0.92-0.18,1.25-0.55l8.95-8.9
	c0.37-0.37,0.55-0.8,0.55-1.3s-0.18-0.93-0.55-1.3l-7.15-7.1c3.4-4.87,5.67-10.25,6.8-16.15h9.95c0.5,0,0.93-0.17,1.3-0.5
	c0.37-0.37,0.55-0.8,0.55-1.3V54.2c0-0.5-0.18-0.92-0.55-1.25c-0.37-0.37-0.8-0.55-1.3-0.55h-9.9c-1.07-5.77-3.32-11.18-6.75-16.25
	l7.05-7C112.84,28.82,113.02,28.38,113.02,27.85z"/>
</svg>
