<?xml version="1.0" encoding="utf-8"?>
<!-- Generator: Adobe Illustrator 28.5.0, SVG Export Plug-In . SVG Version: 9.03 Build 54727)  -->
<svg version="1.1" baseProfile="tiny" id="Layer_1" xmlns="http://www.w3.org/2000/svg" xmlns:xlink="http://www.w3.org/1999/xlink"
	 x="0px" y="0px" viewBox="0 0 20 20" overflow="visible" xml:space="preserve">
<path d="M2.4,2.9v14h7.2v-14H2.4z M9.1,11.2H8.3V8.5h0.8V11.2z M10.3,2.9v14h7.2v-14H10.3L10.3,2.9z M11.6,11.2h-0.8V8.5h0.8V11.2z
	 M19.5,19.2h-19C0.2,19.2,0,19,0,18.7V1.3C0,1,0.2,0.8,0.5,0.8h19C19.8,0.8,20,1,20,1.3v17.4C20,19,19.8,19.2,19.5,19.2L19.5,19.2z
	 M1,18.2h18V1.8H1V18.2L1,18.2z"/>
</svg>
