<?xml version="1.0" encoding="utf-8"?>
<!-- Generator: Adobe Illustrator 30.2.1, SVG Export Plug-In . SVG Version: 9.03 Build 0)  -->
<svg version="1.1" baseProfile="tiny" id="Layer_1" xmlns="http://www.w3.org/2000/svg" xmlns:xlink="http://www.w3.org/1999/xlink"
	 x="0px" y="0px" viewBox="0 0 64 64" overflow="visible" xml:space="preserve">
<g>
	<rect x="-2.5" y="31.9" transform="matrix(0.8528 -0.5223 0.5223 0.8528 -12.7923 21.6485)" width="68.9" height="3.3"/>
	<path d="M36.5,18.9L34,29.6l10.2-6.2l-6.9-12c-0.1-0.1-0.1-0.2-0.2-0.3h-6.4c-0.1,0.1-0.1,0.2-0.2,0.3L12.1,43l14.7-9L36.5,18.9z"
		/>
	<path d="M38.4,32.3L30,46.1l1.8-9.8L13.2,47.7l1.4,2.6c0.1,0,0.2,0,0.2,0h37.1l3.8-6.8l-9.3-16.1L38.4,32.3z"/>
</g>
</svg>
