<?xml version="1.0" encoding="utf-8"?>
<!-- Generator: Adobe Illustrator 29.1.0, SVG Export Plug-In . SVG Version: 9.03 Build 55587)  -->
<svg version="1.1" baseProfile="tiny" id="Layer_2_00000077288068995346466110000010203696400924477626_"
	 xmlns="http://www.w3.org/2000/svg" xmlns:xlink="http://www.w3.org/1999/xlink" x="0px" y="0px" viewBox="0 0 64 64"
	 overflow="visible" xml:space="preserve">
<path id="Fat_x5F_Hand_x5F_Bar_x5F_3" fill="#FFFFFF" d="M36.3,28.5l-5.2-3.1c0-5.6,0.1-14.1,0-17.8c0-1,0.3-1.8,1-2.4
	c1.5-1.3,3.8-0.4,4.1,1.7c0.1,0.5,0.1,1.1,0.1,1.6C36.3,13.4,36.3,22.7,36.3,28.5z M53.8,14.5c0-0.9-0.4-1.6-1.2-2
	c-0.9-0.6-1.8-0.5-2.7,0C49.1,13,48.8,14,48.8,15c0,3.1,0,15.6,0,16.5c0,1.2-1.1,1.4-1.7,1.4c-0.7,0-1.9-0.2-1.9-1.4
	c0-0.2,0-21.8-0.1-22.8c-0.1-1.4-1.3-2.4-2.6-2.4c-1.3,0-2.4,1.1-2.5,2.5c0,0.8-0.1,21.2-0.1,21.4c0,0.1,0,0.2,0,0.3L53.8,39
	C53.9,29.9,53.9,15.6,53.8,14.5z M22.1,39.6c0,1.1-1,2-2.3,1.3c-2-1.1-6.2-3.5-7.5-4.5c-0.7-0.5-1.1-0.9-1.8-1.1
	c-1.4-0.5-2.9,0.1-3.6,1.6c-0.6,1.3-0.4,2.6,0.3,3.8C9.9,45,23.2,54.6,25.9,56.1c2.7,1.5,7.8,2.4,10.1,2.4c7.2,0,12.7-1.5,15.6-5.1
	L22.1,35.8C22.1,38.1,22.1,39.5,22.1,39.6z M27.3,11.3c0-2-1.6-3.4-3.4-2.8c-1.1,0.4-1.7,1.5-1.7,2.9c0,2.1,0,5.3,0,8.8l5.2,3.1
	C27.3,18.8,27.3,13.6,27.3,11.3z M58.6,46l-4.8-2.8L31.1,29.6l-3.8-2.2l-5.2-3.1l-11.3-6.7c-0.2-0.1-0.4-0.2-0.6-0.2
	c-0.4,0-0.8,0.2-1,0.6l-2,3.4C6.9,21.9,7,22.6,7.6,23l14.5,8.7l31.2,18.5l2.1,1.3c0.2,0.1,0.4,0.2,0.6,0.2c0.4,0,0.8-0.2,1-0.6
	l2-3.4C59.3,47.1,59.2,46.4,58.6,46z"/>
</svg>
