<?xml version="1.0" encoding="utf-8"?>
<!-- Generator: Adobe Illustrator 27.8.0, SVG Export Plug-In . SVG Version: 6.00 Build 0)  -->
<svg version="1.1" baseProfile="tiny" id="Layer_1" xmlns="http://www.w3.org/2000/svg" xmlns:xlink="http://www.w3.org/1999/xlink"
	 x="0px" y="0px" viewBox="0 0 64 64" overflow="visible" xml:space="preserve">
<polygon fill="#FFFFFF" points="43.7,27.2 53.5,33.3 53.5,27.1 59.3,27.2 59.3,23 59.3,18.9 53.5,18.9 53.5,12.7 43.6,18.9 
	26.6,18.9 24.3,18.9 24.2,12.7 19.5,18.8 13.3,18.9 4.7,23 13.4,27.2 19.5,27.2 24.3,33.3 24.2,27.2 "/>
<g>
	<path fill="#FFFFFF" d="M56,39.1v0.5c0,4.5-3.7,8.2-8.2,8.2h-3.6v3.5h-4.3v-3.5H26.2v3.5h-4.3v-3.5h-3.6c-4.6,0-8.2-3.7-8.2-8.2
		v-1.8h4.3v1.8c0,2.1,1.8,3.9,3.9,3.9h29.4c2.1,0,3.9-1.7,3.9-3.9v-0.5H56z"/>
</g>
</svg>
