<?xml version="1.0" encoding="utf-8"?>
<!-- Generator: Adobe Illustrator 25.4.1, SVG Export Plug-In . SVG Version: 6.00 Build 0)  -->
<svg version="1.1" baseProfile="tiny" id="Layer_1" xmlns="http://www.w3.org/2000/svg" xmlns:xlink="http://www.w3.org/1999/xlink"
	 x="0px" y="0px" width="40px" height="40px" viewBox="0 0 40 40" overflow="visible" xml:space="preserve">
<path fill="#FFFFFF" d="M19.9,10.5c-5.5,0-10,4.5-10,10c0,5.5,4.5,10,10,10c5.5,0,10-4.5,10-10C30,15,25.5,10.5,19.9,10.5z M20,28.5
	c-0.8,0-1.5-0.7-1.5-1.5c0-0.8,0.7-1.5,1.5-1.5c0.8,0,1.5,0.7,1.5,1.5C21.5,27.8,20.8,28.5,20,28.5z M21.5,21.5
	c0,0.9-0.7,1.6-1.5,1.6c-0.8,0-1.5-0.7-1.5-1.6v-8.3c0-0.9,0.7-1.6,1.5-1.6c0.8,0,1.5,0.7,1.5,1.6V21.5z"/>
<circle display="none" fill="none" stroke="#FFFFFF" stroke-width="3" stroke-miterlimit="10" cx="19.8" cy="20.5" r="10"/>
<g>
	<path fill="#FFFFFF" d="M15.6,3.8v2.6c-4.7,1.5-8.3,5.2-9.7,9.8H3.2C4.8,10.2,9.5,5.4,15.6,3.8z"/>
	<path fill="#FFFFFF" d="M36.7,16.2h-2.6c-1.4-4.6-5-8.3-9.7-9.8V3.8C30.4,5.4,35.1,10.2,36.7,16.2z"/>
	<path fill="#FFFFFF" d="M15.6,34.6v2.6C9.4,35.6,4.6,30.7,3.2,24.5h2.6C7.1,29.3,10.8,33.1,15.6,34.6z"/>
	<path fill="#FFFFFF" d="M36.7,24.5c-1.5,6.2-6.2,11.1-12.3,12.7v-2.6c4.7-1.5,8.4-5.3,9.7-10.1H36.7z"/>
</g>
</svg>
