<?xml version="1.0" encoding="utf-8"?>
<!-- Generator: Adobe Illustrator 25.4.2, SVG Export Plug-In . SVG Version: 6.00 Build 0)  -->
<svg version="1.1" baseProfile="tiny" xmlns="http://www.w3.org/2000/svg" xmlns:xlink="http://www.w3.org/1999/xlink" x="0px"
	 y="0px" width="40px" height="40px" viewBox="0 0 40 40" overflow="visible" xml:space="preserve">
<g id="Black_BG" display="none">
	<rect x="-3700.9" y="-2756.3" display="inline" width="7152" height="6096"/>
</g>
<g id="HUD_modes_x5F_icon">
</g>
<g id="Main_Layer">
	<g id="Zone_control_icons">
	</g>
	<path fill="#FFFFFF" d="M24,7.4H4.1c-2.2,0-4,1.8-4,4v16.9c0,2.2,1.8,4,4,4H24c2.2,0,4-1.8,4-4V11.4C28.1,9.2,26.2,7.4,24,7.4z
		 M23.4,15.2H4.6l0-4.9h18.8L23.4,15.2z"/>
	<path fill="#FFFFFF" d="M36.7,30.5H40V10.7h-3.3c0,0-6,6.8-6,6.8c0,2.4,0,3.4,0,5.8C30.7,23.3,36.7,30.5,36.7,30.5z"/>
</g>
</svg>
