<?xml version="1.0" encoding="utf-8"?>
<!-- Generator: Adobe Illustrator 28.5.0, SVG Export Plug-In . SVG Version: 9.03 Build 54727)  -->
<svg version="1.1" baseProfile="tiny" id="Layer_1" xmlns="http://www.w3.org/2000/svg" xmlns:xlink="http://www.w3.org/1999/xlink"
	 x="0px" y="0px" viewBox="0 0 64 64" overflow="visible" xml:space="preserve">
<path fill="#FFFFFF" d="M46.95,52.24H16.89c-4.12,0-7.47-3.35-7.47-7.47v-8.26h5.34v8.26c0,1.18,0.96,2.13,2.13,2.13h30.07
	c1.18,0,2.13-0.96,2.13-2.13v-8.26h5.34v8.26C54.42,48.89,51.07,52.24,46.95,52.24z"/>
<path fill="#FFFFFF" d="M42.89,25.82v14.13c0,0.33-0.27,0.6-0.65,0.6H21.61c-0.38,0-0.65-0.27-0.65-0.6V19.27
	c0-0.38,0.27-0.65,0.65-0.65h13.53v7.2H42.89z"/>
<g>
	<g>
		<polygon fill="#FFFFFF" points="64,15.86 64,21.32 54.78,21.32 54.78,30.54 49.33,30.54 49.33,21.32 40.11,21.32 40.11,15.86 
			49.33,15.86 49.33,6.7 54.78,6.7 54.78,15.86 		"/>
	</g>
</g>
</svg>
