<?xml version="1.0" encoding="utf-8"?>
<!-- Generator: Adobe Illustrator 26.2.0, SVG Export Plug-In . SVG Version: 6.00 Build 0)  -->
<svg version="1.1" baseProfile="tiny" xmlns="http://www.w3.org/2000/svg" xmlns:xlink="http://www.w3.org/1999/xlink" x="0px"
	 y="0px" width="40px" height="40px" viewBox="0 0 40 40" overflow="visible" xml:space="preserve">
<g id="Black_BG" display="none">
	<rect x="-3656" y="-2977" display="inline" width="7152" height="6096"/>
</g>
<g id="HUD_modes_x5F_icon">
	<g id="min">
		<polygon fill="#FFFFFF" points="11.3,30.1 6.7,30.1 7.3,25.3 7.8,24.6 7.4,24.1 6.8,24.5 4.7,24.5 3.4,25.4 0.9,25.4 0.1,22.7 
			4.8,22.7 5.3,21.8 3.9,21.4 3.4,20.3 3.9,19.3 5.3,18.9 4.8,18 0.1,18 0.9,15.3 3.4,15.3 4.7,16.2 6.8,16.2 7.4,16.6 7.8,16.1 
			7.3,15.4 6.7,10.5 11.3,10.5 11.8,11.3 10.1,11.8 13.2,17.6 22.4,18.9 22.4,21.8 13.2,23.1 10.1,28.8 11.8,29.4 		"/>
		<polygon fill="#FFFFFF" points="39.7,13.7 39.7,15.7 36.2,15.7 30.6,21.3 26.9,21.3 26.9,27.2 18.7,27.2 18.7,25.2 24.9,25.2 
			24.9,15.5 18.7,15.5 18.7,13.5 26.9,13.5 26.9,19.4 29.8,19.4 35.4,13.7 		"/>
	</g>
</g>
<g id="Main_Layer">
	<g id="Zone_control_icons">
	</g>
</g>
</svg>
