<?xml version="1.0" encoding="utf-8"?>
<!-- Generator: Adobe Illustrator 27.8.0, SVG Export Plug-In . SVG Version: 6.00 Build 0)  -->
<svg version="1.1" baseProfile="tiny" id="Layer_1" xmlns="http://www.w3.org/2000/svg" xmlns:xlink="http://www.w3.org/1999/xlink"
	 x="0px" y="0px" viewBox="0 0 64 64" overflow="visible" xml:space="preserve">
<path fill="#FFFFFF" d="M46.1,32.2c0-5.9,3-8.9,3.6-9.4c-1.9-3.5-4.8-6.4-8.3-8.3c-0.5,0.6-3.5,3.6-9.4,3.6h0c-5.9,0-8.9-3-9.4-3.6
	c-3.5,1.9-6.4,4.8-8.3,8.3c0.6,0.5,3.6,3.5,3.6,9.4c0,5.9-3,8.9-3.6,9.4c1.9,3.5,4.8,6.4,8.3,8.3c0.5-0.6,3.5-3.6,9.4-3.6h0
	c5.9,0,8.9,3,9.4,3.6c3.5-1.9,6.4-4.8,8.3-8.3C49.1,41.1,46.1,38.1,46.1,32.2z M40.7,28c0,0.1,0,0.2-0.1,0.3
	c-0.1,0.1-0.2,0.1-0.3,0.1h-3.9c-0.1,0-0.2,0-0.3-0.1C36,28.2,36,28.1,36,28v-0.1c0-1-0.4-1.9-1.1-2.6c-0.7-0.7-1.7-1.1-2.9-1.1
	c-1.2,0-2.2,0.4-2.9,1.1c-0.7,0.7-1.1,1.7-1.1,2.9v7.8c0,1.2,0.4,2.2,1.2,2.9c0.8,0.8,1.8,1.1,3,1.1c1.1,0,2.1-0.3,2.8-0.9
	c0.7-0.6,1-1.5,1-2.6v-1.5c0-0.1-0.1-0.2-0.2-0.2h-3.8c-0.1,0-0.2,0-0.3-0.1c-0.1-0.1-0.1-0.2-0.1-0.3v-3.1c0-0.1,0-0.2,0.1-0.3
	c0.1-0.1,0.2-0.1,0.3-0.1h8.2c0.1,0,0.2,0,0.3,0.1c0.1,0.1,0.1,0.2,0.1,0.3v4.4c0,1.7-0.4,3.2-1.1,4.4c-0.7,1.3-1.7,2.2-3,2.9
	c-1.3,0.7-2.8,1-4.5,1c-1.7,0-3.2-0.3-4.6-1c-1.3-0.7-2.3-1.7-3.1-2.9c-0.7-1.2-1.1-2.7-1.1-4.3v-7.5c0-1.6,0.4-3.1,1.1-4.3
	c0.7-1.3,1.7-2.2,3.1-2.9c1.3-0.7,2.8-1,4.6-1c1.7,0,3.2,0.3,4.5,1c1.3,0.7,2.3,1.6,3.1,2.7c0.7,1.2,1.1,2.4,1.1,3.8V28z"/>
<path fill="#FFFFFF" d="M53.5,47.8c-0.3,0-0.6-0.1-0.8-0.3c-0.7-0.5-0.9-1.4-0.4-2.1c2.7-4,4.1-8.7,4.1-13.6s-1.4-9.6-4.1-13.6
	c-0.5-0.7-0.3-1.6,0.4-2.1c0.7-0.5,1.6-0.3,2.1,0.4c3,4.5,4.6,9.7,4.6,15.2s-1.6,10.8-4.6,15.2C54.4,47.6,54,47.8,53.5,47.8z"/>
<path fill="#FFFFFF" d="M10.5,47.8c-0.5,0-0.9-0.2-1.2-0.6c-3-4.4-4.6-9.7-4.6-15.2s1.6-10.8,4.6-15.2c0.5-0.7,1.4-0.8,2.1-0.4
	c0.7,0.5,0.9,1.4,0.4,2.1C9,22.4,7.6,27,7.6,32s1.4,9.6,4.1,13.6c0.5,0.7,0.3,1.6-0.4,2.1C11.1,47.7,10.8,47.8,10.5,47.8z"/>
<path fill="#FFFFFF" d="M46.4,11.9c-0.3,0-0.6-0.1-0.8-0.3c-7.9-5.4-19.2-5.4-27.1,0c-0.7,0.5-1.6,0.3-2.1-0.4
	c-0.5-0.7-0.3-1.6,0.4-2.1c8.9-6.1,21.5-6.1,30.4,0c0.7,0.5,0.9,1.4,0.4,2.1C47.3,11.7,46.9,11.9,46.4,11.9z"/>
<path fill="#FFFFFF" d="M32,59.3c-5.5,0-10.8-1.6-15.2-4.6c-0.7-0.5-0.9-1.4-0.4-2.1c0.5-0.7,1.4-0.9,2.1-0.4
	c7.9,5.4,19.2,5.4,27.1,0c0.7-0.5,1.6-0.3,2.1,0.4c0.5,0.7,0.3,1.6-0.4,2.1C42.8,57.7,37.5,59.3,32,59.3z"/>
</svg>
