<?xml version="1.0" encoding="utf-8"?>
<!-- Generator: Adobe Illustrator 25.1.0, SVG Export Plug-In . SVG Version: 6.00 Build 0)  -->
<svg version="1.1" baseProfile="tiny" id="Icon" xmlns="http://www.w3.org/2000/svg" xmlns:xlink="http://www.w3.org/1999/xlink"
	 x="0px" y="0px" width="256px" height="256px" viewBox="0 0 256 256" overflow="visible" xml:space="preserve">
<rect x="117.8" y="16.3" fill="#FFFFFF" width="13.8" height="223.3"/>
<g>
	<path fill="#FFFFFF" d="M64.9,185.8c-20.1-1.2-38.2,15.8-38.4,15.9l-4.8-5l-4.8-5c0.9-0.9,22.5-21.3,48.6-19.7
		c7.6,0.4,14.7,2.7,21.3,6.6v17.2C80.2,189.7,72.9,186.3,64.9,185.8z"/>
	<path fill="#FFFFFF" d="M64.9,117.1c-20.1-1.2-38.2,15.8-38.4,15.9l-4.8-5l-4.8-5c0.9-0.9,22.5-21.3,48.6-19.7
		c7.6,0.4,14.7,2.7,21.3,6.6v17.2C80.2,120.9,72.9,117.5,64.9,117.1z"/>
	<path fill="#FFFFFF" d="M64.9,48.3c-20.1-1.2-38.2,15.8-38.4,15.9l-4.8-5l-4.8-5c0.9-0.9,22.5-21.3,48.6-19.7
		c7.6,0.4,14.7,2.7,21.3,6.6v17.2C80.2,52.2,72.9,48.8,64.9,48.3z"/>
</g>
<g>
	<path fill="#FFFFFF" d="M157.7,123.6c8.3,10.1,17.4,15.3,26.8,15.4c11.2,0.2,21.1-6.5,26.6-11.2l-8.2-8.2l18-4.8l18-4.8l-4.8,18
		l-4.8,18l-8.4-8.4c-7,6.1-20.3,15.4-36.5,15.2c-10.2-0.1-19.8-4-28.6-11.4v-19.8C156.5,122.2,157.1,122.9,157.7,123.6z"/>
</g>
</svg>
