<?xml version="1.0" encoding="utf-8"?>
<!-- Generator: Adobe Illustrator 25.1.0, SVG Export Plug-In . SVG Version: 6.00 Build 0)  -->
<svg version="1.1" baseProfile="tiny" id="Icon" xmlns="http://www.w3.org/2000/svg" xmlns:xlink="http://www.w3.org/1999/xlink"
	 x="0px" y="0px" width="256px" height="256px" viewBox="0 0 256 256" overflow="visible" xml:space="preserve">
<path fill="#FFFFFF" d="M213,58.1l-5.3,20l-9.4-9.4L68.2,199.2c-1.8-1.8-3.6-3.7-5.4-5.5c-1.8-1.8-3.7-3.6-5.5-5.4L187.8,58.2
	l-9.4-9.4l20-5.3l20-5.3L213,58.1z"/>
<g>
	<path fill="#FFFFFF" d="M207.7,149.2c3.7-3.7-8.5-21.8-27.7-42l8.6-8.6c8.7,9.2,16.3,18.2,21.7,25.9c7.4,10.6,13.2,20.9,3.4,30.6
		c-9.8,9.8-20.1,4-30.6-3.4c-7.7-5.3-16.6-12.9-25.7-21.5l8.6-8.6C185.9,140.8,204,152.9,207.7,149.2z"/>
	<path fill="#FFFFFF" d="M107.3,48.8c-3.6,3.6,8.5,21.8,27.6,41.9l-8.6,8.6c-8.7-9.1-16.2-18.1-21.5-25.7
		c-7.4-10.6-13.2-20.9-3.4-30.6s20.1-4,30.6,3.4c7.7,5.4,16.7,12.9,25.9,21.7l-8.6,8.6C129.1,57.3,110.9,45.2,107.3,48.8z"/>
	<path fill="#FFFFFF" d="M156.9,229c5.1-5.1-12.2-30.7-39.3-58.8l8.6-8.6c12.5,13,23.3,25.8,30.9,36.6c11.3,16.3,15.6,26.9,5.8,36.7
		c-9.8,9.8-20.5,5.5-36.7-5.8c-10.8-7.5-23.6-18.3-36.5-30.7l8.5-8.6C126.3,216.8,151.9,234,156.9,229z"/>
	<path fill="#FFFFFF" d="M27.5,99.6c-5.1,5.1,12.2,30.7,39.2,58.7l-8.6,8.5c-12.4-12.9-23.2-25.6-30.7-36.5
		c-11.3-16.3-15.6-26.9-5.8-36.7s20.5-5.5,36.7,5.8c10.9,7.6,23.7,18.4,36.6,30.9l-8.6,8.6C58.2,111.8,32.6,94.5,27.5,99.6z"/>
</g>
</svg>
