<?xml version="1.0" encoding="utf-8"?>
<!-- Generator: Adobe Illustrator 27.6.1, SVG Export Plug-In . SVG Version: 6.00 Build 0)  -->
<svg version="1.1" baseProfile="tiny" xmlns="http://www.w3.org/2000/svg" xmlns:xlink="http://www.w3.org/1999/xlink" x="0px"
	 y="0px" viewBox="0 0 40 40" overflow="visible" xml:space="preserve">
<g id="Black_BG" display="none">
	<rect x="-3742.7" y="-3115.7" display="inline" width="7152" height="6096"/>
</g>
<g id="HUD_modes_x5F_icon">
</g>
<g id="Main_Layer">
	<g id="Zone_control_icons">
	</g>
	<path fill="#FFFFFF" d="M25.1,5.2c0.5,0,0.9,0.4,0.9,0.9v10.2c0,0.5-0.4,0.9-0.9,0.9H14.9c-0.5,0-0.9-0.4-0.9-0.9V6.1
		c0-0.5,0.4-0.9,0.9-0.9H25.1 M25.1,1.2H14.9c-2.7,0-4.9,2.2-4.9,4.9v10.2c0,2.7,2.2,4.9,4.9,4.9h10.2c2.7,0,4.9-2.2,4.9-4.9V6.1
		C29.9,3.4,27.8,1.2,25.1,1.2L25.1,1.2z"/>
	<rect x="17.5" y="27.8" fill="#FFFFFF" width="5" height="4.7"/>
</g>
</svg>
