<?xml version="1.0" encoding="utf-8"?>
<!-- Generator: Adobe Illustrator 25.1.0, SVG Export Plug-In . SVG Version: 6.00 Build 0)  -->
<svg version="1.1" baseProfile="tiny" id="Layer_1" xmlns="http://www.w3.org/2000/svg" xmlns:xlink="http://www.w3.org/1999/xlink"
	 x="0px" y="0px" viewBox="0 0 130 130" overflow="visible" xml:space="preserve">
<path id="refuel_x5F_a" fill="#FFFFFF" d="M110.2,50.85v-10.3l2.5-3.4l-5.15-8.5h-4.05c-1.67-2.47-2.95-4.48-3.85-6.05
	c-1.23-2.27-3.43-3.52-6.6-3.75V7.9c0-1.47-0.52-2.73-1.55-3.8c-1.07-1.07-2.35-1.6-3.85-1.6h-46c-1.47,0-2.73,0.53-3.8,1.6
	c-1.07,1.07-1.6,2.33-1.6,3.8v111.05H20.8c-0.73,0-1.37,0.27-1.9,0.8s-0.8,1.17-0.8,1.9v3.15c0,0.77,0.27,1.4,0.8,1.9
	c0.53,0.53,1.17,0.8,1.9,0.8h87.75c0.73,0,1.37-0.27,1.9-0.8c0.53-0.53,0.8-1.17,0.8-1.9v-3.15c0-0.73-0.27-1.37-0.8-1.9
	c-0.53-0.53-1.17-0.8-1.9-0.8h-15.5V60.1c1.07,0.13,1.82,0.58,2.25,1.35c0.47,0.77,0.7,2,0.7,3.7v37.45c0,5.4,1.28,9,3.85,10.8
	c2.23,1.53,4.65,1.48,7.25-0.15c2.2-1.43,4.37-2.93,6.5-4.5c1.6-1.13,2.42-2.93,2.45-5.4c0.07-2.37-0.57-5.05-1.9-8.05
	c-1-2.27-1.8-4.25-2.4-5.95c-0.67-1.9-1.1-3.07-1.3-3.5c-0.57-1.27-0.9-2.15-1-2.65c-0.1-0.47-0.15-1.52-0.15-3.15V52L110.2,50.85
	 M106.3,90.25c1.17,2.33,2.4,5.03,3.7,8.1c1.33,3.13,1.07,5.37-0.8,6.7c-0.8,0.67-1.7,1.35-2.7,2.05c-1.37,0.93-2.6,1.27-3.7,1
	c-1.4-0.33-2.1-1.75-2.1-4.25V67.8c0-4.1-0.62-7.13-1.85-9.1c-1.07-1.73-3-3.13-5.8-4.2V22.05c1.83,0.2,3.22,1.05,4.15,2.55
	c0.77,1.2,1.67,2.77,2.7,4.7l-2.45,4.75l3.35,4.7L98.75,50.2h5.4v28.95c0,2.7,0.18,4.9,0.55,6.6C105,87.18,105.53,88.68,106.3,90.25
	 M83.2,10.45c0.73,0,1.35,0.27,1.85,0.8c0.53,0.53,0.8,1.17,0.8,1.9v26.7c0,0.73-0.27,1.37-0.8,1.9c-0.5,0.53-1.12,0.8-1.85,0.8
	H45.7c-0.73,0-1.37-0.27-1.9-0.8c-0.53-0.5-0.8-1.13-0.8-1.9v-26.7c0-0.73,0.27-1.37,0.8-1.9s1.17-0.8,1.9-0.8H83.2 M49.35,101.28
	c-4.26-4.26-6.38-9.37-6.38-15.35c0-4.72,1.42-8.99,4.26-12.82c2.76-3.72,6.33-6.29,10.7-7.71c0.38-1.53,1.19-2.8,2.42-3.8
	c1.27-1.04,2.7-1.55,4.31-1.55c1.61,0,3.05,0.52,4.31,1.55c1.23,1,2.01,2.26,2.36,3.8c4.41,1.42,7.99,3.99,10.75,7.71
	c2.84,3.8,4.26,8.07,4.26,12.82c0,5.98-2.11,11.1-6.33,15.35c-4.26,4.22-9.37,6.33-15.35,6.33S53.57,105.49,49.35,101.28
	 M46.42,85.92c0,5.02,1.78,9.32,5.35,12.88c3.57,3.57,7.86,5.35,12.88,5.35s9.32-1.78,12.88-5.35c3.57-3.57,5.35-7.86,5.35-12.88
	c0-3.8-1.09-7.25-3.28-10.35c-2.11-3.03-4.89-5.21-8.34-6.56c-0.42,1.42-1.25,2.57-2.47,3.45c-1.23,0.92-2.61,1.38-4.14,1.38
	c-1.53,0-2.91-0.46-4.14-1.38c-1.23-0.88-2.05-2.03-2.47-3.45c-3.45,1.34-6.23,3.53-8.34,6.56C47.51,78.68,46.42,82.13,46.42,85.92
	 M64.65,79.02c1.92,0,3.55,0.67,4.89,2.01c1.34,1.38,2.01,3.01,2.01,4.89c0,1.92-0.67,3.55-2.01,4.89
	c-1.34,1.34-2.97,2.01-4.89,2.01c-1.92,0-3.55-0.67-4.89-2.01c-1.34-1.34-2.01-2.97-2.01-4.89c0-1.88,0.67-3.51,2.01-4.89
	C61.14,79.69,62.77,79.02,64.65,79.02 M52.55,17.05c0-0.2-0.1-0.3-0.3-0.3h-2.1c-0.2,0-0.3,0.1-0.3,0.3v6.1
	c0,0.23,0.1,0.35,0.3,0.35h2.1c0.2,0,0.3-0.12,0.3-0.35V17.05 M56.7,16.75h-2.05c-0.2,0-0.3,0.1-0.3,0.3v6.1
	c0,0.23,0.1,0.35,0.3,0.35h2.05c0.23,0,0.35-0.12,0.35-0.35v-6.1C57.05,16.85,56.93,16.75,56.7,16.75 M75,17.05
	c0-0.2-0.12-0.3-0.35-0.3H72.6c-0.2,0-0.3,0.1-0.3,0.3v6.1c0,0.23,0.1,0.35,0.3,0.35h2.05c0.23,0,0.35-0.12,0.35-0.35V17.05
	 M61.5,17.05c0-0.2-0.1-0.3-0.3-0.3h-2.05c-0.2,0-0.3,0.1-0.3,0.3v6.1c0,0.23,0.1,0.35,0.3,0.35h2.05c0.2,0,0.3-0.12,0.3-0.35V17.05
	 M66,17.05c0-0.2-0.1-0.3-0.3-0.3h-2.05c-0.23,0-0.35,0.1-0.35,0.3v6.1c0,0.23,0.12,0.35,0.35,0.35h2.05c0.2,0,0.3-0.12,0.3-0.35
	V17.05 M68.1,16.75c-0.2,0-0.3,0.1-0.3,0.3v6.1c0,0.23,0.1,0.35,0.3,0.35h2.1c0.2,0,0.3-0.12,0.3-0.35v-6.1c0-0.2-0.1-0.3-0.3-0.3
	H68.1 M79.45,17.05c0-0.2-0.1-0.3-0.3-0.3H77.1c-0.2,0-0.3,0.1-0.3,0.3v6.1c0,0.23,0.1,0.35,0.3,0.35h2.05c0.2,0,0.3-0.12,0.3-0.35
	V17.05z"/>
</svg>
