<?xml version="1.0" encoding="utf-8"?>
<!-- Generator: Adobe Illustrator 25.4.1, SVG Export Plug-In . SVG Version: 6.00 Build 0)  -->
<svg version="1.1" baseProfile="tiny" xmlns="http://www.w3.org/2000/svg" xmlns:xlink="http://www.w3.org/1999/xlink" x="0px"
	 y="0px" viewBox="0 0 256 256" overflow="visible" xml:space="preserve">
<g id="Layer_2">
</g>
<g id="Layer_1">
	<path fill="#FFFFFF" d="M236.2,0H19.8C8.9,0,0,8.9,0,19.8v216.4C0,247.1,8.9,256,19.8,256h216.4c10.9,0,19.8-8.9,19.8-19.8V19.8
		C256,8.9,247.1,0,236.2,0z M27.2,126.1h60.7v20H27.2V126.1z M168.3,206.4L128,226.6l-40.3-20.2v-40.3l40.3,20.1l40.3-20.2V206.4z
		 M168.3,125.8L128.1,146l-40.2-20.2V25h80.5V125.8z M228.8,145.7h-60.3v-19.6h60.3V145.7z"/>
</g>
</svg>
