<?xml version="1.0" encoding="utf-8"?>
<!-- Generator: Adobe Illustrator 27.9.0, SVG Export Plug-In . SVG Version: 6.00 Build 0)  -->
<svg version="1.1" baseProfile="tiny" id="Layer_2" xmlns="http://www.w3.org/2000/svg" xmlns:xlink="http://www.w3.org/1999/xlink"
	 x="0px" y="0px" viewBox="0 0 32 32" overflow="visible" xml:space="preserve">
<path fill="#FFFFFF" d="M15.7,0.1L1.9,8.5C1.6,8.7,1.6,9.1,1.7,9.3L16,32L30.3,9.3c0.2-0.3,0.1-0.7-0.2-0.8L16.3,0.1
	C16.1,0,15.9,0,15.7,0.1z M6.6,8.7l9.1-5.6c0.2-0.1,0.4-0.1,0.6,0l9.1,5.6c0.4,0.2,0.4,0.7,0,1l-9.1,5.6c-0.2,0.1-0.4,0.1-0.6,0
	L6.6,9.7C6.2,9.4,6.2,8.9,6.6,8.7z"/>
</svg>
