<?xml version="1.0" encoding="utf-8"?>
<!-- Generator: Adobe Illustrator 25.4.2, SVG Export Plug-In . SVG Version: 6.00 Build 0)  -->
<svg version="1.1" baseProfile="tiny" id="Layer_1" xmlns="http://www.w3.org/2000/svg" xmlns:xlink="http://www.w3.org/1999/xlink"
	 x="0px" y="0px" viewBox="0 0 32 32" overflow="visible" xml:space="preserve">
<g>
	<g>
		<polygon fill="#FFFFFF" points="17.5,12.6 16.8,15.5 16,18.4 18.9,17.6 21.8,16.8 20.4,15.5 28.8,7.2 27.1,5.5 18.9,13.9 		"/>
		<polygon fill="#FFFFFF" points="21.1,7.9 19.5,9.4 18,6 14.6,9.6 10.3,7.2 9.7,12.1 4.8,12.7 7.2,17 3.6,20.3 6.3,21.5 5.1,23.2 
			0,20.9 4.7,16.6 1.6,11 7.9,10.3 8.6,3.9 14.2,7 18.5,2.3 		"/>
		<polygon fill="#FFFFFF" points="27.3,20.1 30.4,25.7 24.1,26.4 23.2,24.5 27.2,24 24.7,19.7 28.4,16.4 24.9,14.8 26.5,13.3 
			32,15.8 		"/>
	</g>
	<polygon fill="#FFFFFF" points="3.8,29.2 22.7,29.2 19.3,22.2 10.5,19.7 	"/>
</g>
</svg>
