<?xml version="1.0" encoding="utf-8"?>
<!-- Generator: Adobe Illustrator 25.4.2, SVG Export Plug-In . SVG Version: 6.00 Build 0)  -->
<svg version="1.1" baseProfile="tiny" id="Layer_1" xmlns="http://www.w3.org/2000/svg" xmlns:xlink="http://www.w3.org/1999/xlink"
	 x="0px" y="0px" viewBox="0 0 32 32" overflow="visible" xml:space="preserve">
<circle fill="#FFFFFF" cx="16" cy="9.3" r="1.5"/>
<path fill="#FFFFFF" d="M29.2,15.4C28.9,8.6,23.4,3.1,16.6,2.8V0h-1.2v2.8C8.6,3.1,3.1,8.6,2.8,15.4H0v1.2h2.8
	c0.3,6.8,5.8,12.3,12.6,12.6V32h1.2v-2.8c6.8-0.3,12.3-5.8,12.6-12.6H32v-1.2H29.2z M16,26.9C10,26.9,5.1,22,5.1,16
	c0-2.8,1-5.3,2.8-7.2l2.7,2.7c-2.3,2.8-2.2,7,0.5,9.6c1.4,1.4,3.2,2.1,5.1,2.1c1.8,0,3.7-0.7,5.1-2.1c2.8-2.8,2.8-7.3,0-10.1
	l-0.8,0.8c2.3,2.3,2.3,6.1,0,8.4c-2.3,2.3-6.1,2.3-8.4,0c-2.2-2.2-2.3-5.6-0.5-7.9l2.3,2.3c-0.3,0.4-0.4,0.9-0.4,1.4
	c0,1.5,1.2,2.7,2.7,2.7s2.7-1.2,2.7-2.7c0-1.5-1.2-2.7-2.7-2.7c-0.5,0-1,0.2-1.4,0.4L8.8,7.9c1.9-1.7,4.5-2.8,7.2-2.8
	c6,0,10.9,4.9,10.9,10.9S22,26.9,16,26.9z M14.5,16c0-0.8,0.7-1.5,1.5-1.5s1.5,0.7,1.5,1.5s-0.7,1.5-1.5,1.5S14.5,16.8,14.5,16z"/>
</svg>
