<?xml version="1.0" encoding="utf-8"?>
<!-- Generator: Adobe Illustrator 27.4.0, SVG Export Plug-In . SVG Version: 6.00 Build 0)  -->
<svg version="1.1" baseProfile="tiny" id="Layer_1" xmlns="http://www.w3.org/2000/svg" xmlns:xlink="http://www.w3.org/1999/xlink"
	 x="0px" y="0px" viewBox="0 0 29.5 163.9" overflow="visible" xml:space="preserve">
<g>
	<g>
		
			<polyline fill="none" stroke="#6CB8C7" stroke-width="1.6964" stroke-linecap="round" stroke-linejoin="round" stroke-miterlimit="10" points="
			17.8,126.1 10.3,133.6 17.8,141.2 		"/>
	</g>
	
		<polyline fill="none" stroke="#6CB8C7" stroke-width="1.6964" stroke-linecap="round" stroke-linejoin="round" stroke-miterlimit="10" points="
		10.2,126.1 2.7,133.6 10.3,141.2 	"/>
</g>
<path fill="none" stroke="#BDCCD4" stroke-miterlimit="10" d="M0.5,0v14.5c0,0.8,0.3,1.5,0.7,2.1l1.1,1.3c0.5,0.6,0.7,1.3,0.7,2.1
	v19.8c0,0.7-0.2,1.3-0.6,1.9l-1.4,1.9c-0.4,0.5-0.6,1.2-0.6,1.9v66h22.9c3.1,0,5.6,2.5,5.6,5.6v33.2c0,3.1-2.5,5.6-5.6,5.6H0.5v8"/>
</svg>
