<?xml version="1.0" encoding="iso-8859-1"?>
<!-- Generator: Adobe Illustrator 27.5.0, SVG Export Plug-In . SVG Version: 6.00 Build 0)  -->
<svg version="1.1" baseProfile="tiny" id="Layer_2" xmlns="http://www.w3.org/2000/svg" xmlns:xlink="http://www.w3.org/1999/xlink"
	 x="0px" y="0px" width="14.417px" height="14.523px" viewBox="0 0 14.417 14.523" overflow="visible" xml:space="preserve">
<g>
	<path fill="#9ACED8" d="M10.654,12.314c0,0.115-0.094,0.209-0.209,0.209H2.209C2.094,12.523,2,12.43,2,12.314V4.078
		c0-0.115,0.094-0.209,0.209-0.209H7.45v-2H2.209C0.991,1.869,0,2.86,0,4.078v8.236c0,1.218,0.991,2.209,2.209,2.209h8.236
		c1.218,0,2.209-0.991,2.209-2.209V7.119h-2V12.314z"/>
	<path fill="#9ACED8" d="M12.389,0H8.164v2l2.649,0.018L4.912,7.919l1.414,1.414l6.091-6.091v2.873h2V2.028
		C14.417,0.91,13.507,0,12.389,0z"/>
</g>
</svg>
