<?xml version="1.0" encoding="utf-8"?>
<!-- Generator: Adobe Illustrator 27.8.0, SVG Export Plug-In . SVG Version: 6.00 Build 0)  -->
<svg version="1.1" baseProfile="tiny" id="Layer_1" xmlns="http://www.w3.org/2000/svg" xmlns:xlink="http://www.w3.org/1999/xlink"
	 x="0px" y="0px" viewBox="0 0 618.5 63.9" overflow="visible" xml:space="preserve">
<path fill="#00FF8E" d="M38.3,5.5H2.8C1.2,5.5,0,4.2,0,2.7l0,0C0,1.2,1.2,0,2.7,0h35.5C39.8,0,41,1.2,41,2.7l0,0
	C41,4.2,39.8,5.5,38.3,5.5z"/>
<path fill="#00FF8E" d="M38.3,63.9H2.7c-1.5,0-2.7-1.2-2.7-2.7l0,0c0-1.5,1.2-2.7,2.7-2.7h35.5c1.5,0,2.7,1.2,2.7,2.7l0,0
	C41,62.7,39.8,63.9,38.3,63.9z"/>
<path fill="#00FF8E" d="M615.8,5.5h-35.5c-1.5,0-2.7-1.2-2.7-2.7l0,0c0-1.5,1.2-2.7,2.7-2.7h35.5c1.5,0,2.7,1.2,2.7,2.7l0,0
	C618.6,4.2,617.3,5.5,615.8,5.5z"/>
<path fill="#00FF8E" d="M615.8,63.9h-35.5c-1.5,0-2.7-1.2-2.7-2.7l0,0c0-1.5,1.2-2.7,2.7-2.7h35.5c1.5,0,2.7,1.2,2.7,2.7l0,0
	C618.6,62.7,617.3,63.9,615.8,63.9z"/>
</svg>
