<?xml version="1.0" encoding="utf-8"?>
<!-- Generator: Adobe Illustrator 27.8.0, SVG Export Plug-In . SVG Version: 6.00 Build 0)  -->
<svg version="1.1" baseProfile="tiny" id="Layer_1" xmlns="http://www.w3.org/2000/svg" xmlns:xlink="http://www.w3.org/1999/xlink"
	 x="0px" y="0px" viewBox="0 0 64 64" overflow="visible" xml:space="preserve">
<path fill="#FFFFFF" d="M34.4,31.2L22.3,45.1c-0.5,0.6-1.4,0.6-1.9,0L8.2,31.2c-0.3-0.3-0.1-0.8,0.4-0.8h7.1
	c0.1-3.8,0.9-10.4,5.3-17.7c3.7-6,8.4-10.1,11.8-12.6c0.1-0.1,0.2,0,0.2,0.2c-2,4.1-4,9.1-5.3,14.9C26.3,21,26,26.2,26,30.5h8.1
	C34.5,30.5,34.7,30.9,34.4,31.2z"/>
<path fill="#FFFFFF" d="M62.5,18.7h-7.1c-0.1,3.8-0.9,10.4-5.3,17.6c-3.6,6-8.4,10.1-11.8,12.7c-0.1,0.1-0.2,0-0.2-0.2
	c2-4.1,4-9.1,5.3-14.9c1.3-5.8,1.7-11,1.6-15.2h-8c-0.4,0-0.6-0.5-0.4-0.8L48.9,4.1c0.5-0.6,1.4-0.6,1.9,0l12.1,13.8
	C63.2,18.2,63,18.7,62.5,18.7z"/>
<path fill="#FFFFFF" d="M52.1,64.2H11.9C5.5,64.2,0.4,59,0.4,52.6V48h6.1v4.6c0,3,2.4,5.5,5.5,5.5h40.2c3,0,5.5-2.4,5.5-5.5V48h6.1
	v4.6C63.6,59,58.5,64.2,52.1,64.2z"/>
</svg>
