<?xml version="1.0" encoding="utf-8"?>
<!-- Generator: Adobe Illustrator 25.4.1, SVG Export Plug-In . SVG Version: 6.00 Build 0)  -->
<svg version="1.1" baseProfile="tiny" id="Layer_1" xmlns="http://www.w3.org/2000/svg" xmlns:xlink="http://www.w3.org/1999/xlink"
	 x="0px" y="0px" viewBox="0 0 128 128" overflow="visible" xml:space="preserve">
<g>
	<path fill="#ED1C24" d="M77.1,30c-0.8-3.2-2.8-5.9-5.6-7.5c-2.8-1.7-6.1-2.2-9.3-1.3C59,22,56.4,24,54.7,26.8L30.1,68.1
		c-3.5,5.8-1.5,13.4,4.3,16.8c1.9,1.1,4.1,1.7,6.3,1.7c1,0,2-0.1,3-0.4c3.2-0.8,5.9-2.8,7.5-5.6l24.6-41.3
		C77.5,36.5,77.9,33.2,77.1,30z M74.6,38.6L62.8,58.5L44.1,47.3l11.8-19.8c1.5-2.5,3.9-4.3,6.7-5c0.9-0.2,1.8-0.3,2.7-0.3
		c1.9,0,3.8,0.5,5.6,1.5c2.5,1.5,4.3,3.9,5,6.7C76.5,33.2,76.1,36.1,74.6,38.6z"/>
	<path fill="#ED1C24" d="M98.9,94.8L85.4,63.3c-0.9-2.2-2.7-3.9-4.9-4.8c-2.2-0.9-4.6-0.9-6.8,0.1c-2.2,0.9-3.9,2.7-4.8,4.9
		C68,65.7,68,68.2,69,70.3l13.5,31.4c1.5,3.4,4.8,5.4,8.2,5.4c1.2,0,2.4-0.2,3.5-0.7c2.2-0.9,3.9-2.7,4.8-4.9
		C99.8,99.4,99.8,96.9,98.9,94.8z M70.1,64c0.8-1.9,2.2-3.4,4-4.1c1.9-0.8,3.9-0.8,5.8-0.1c1.9,0.8,3.4,2.2,4.1,4l6.5,15.1l-13.9,6
		l-6.5-15.1C69.4,68,69.4,65.9,70.1,64z"/>
	<path fill="#ED1C24" d="M73.3,66.5c-0.2,0-0.3,0-0.5-0.1c-0.4-0.3-0.4-0.8-0.2-1.1c0.9-1.3,2.2-2.2,3.7-2.5s3,0,4.3,0.8
		c0.4,0.3,0.4,0.8,0.2,1.1c-0.3,0.4-0.8,0.4-1.1,0.2c-0.9-0.6-1.9-0.8-3-0.6c-1.1,0.2-2.1,0.9-2.8,1.8
		C73.8,66.4,73.6,66.5,73.3,66.5z"/>
	<path fill="#ED1C24" d="M58.6,31.3c-0.2,0-0.4,0-0.5-0.1c-0.5-0.3-0.7-0.9-0.4-1.5c1.1-1.9,2.8-3.3,4.9-3.9c2.1-0.6,4.2-0.4,6,0.7
		c0.5,0.3,0.7,0.9,0.4,1.5c-0.3,0.5-1,0.7-1.5,0.4c-1.3-0.8-2.8-0.9-4.3-0.5c-1.5,0.5-2.8,1.5-3.6,2.9C59.3,31.1,59,31.3,58.6,31.3z
		"/>
</g>
</svg>
