<?xml version="1.0" encoding="utf-8"?>
<!-- Generator: Adobe Illustrator 30.2.1, SVG Export Plug-In . SVG Version: 9.03 Build 0)  -->
<svg version="1.1" baseProfile="tiny" id="animated"
	 xmlns="http://www.w3.org/2000/svg" xmlns:xlink="http://www.w3.org/1999/xlink" x="0px" y="0px" viewBox="0 0 64 64"
	 overflow="visible" xml:space="preserve">
<g id="_x31_">
	<g>
		<path fill="#F9F7F6" d="M17.7,38.89v-2.67c0.02-0.26,0.07-0.48,0.16-0.67c0.21-0.44,0.59-0.67,1.12-0.67h1.71v0.67h-1.71
			c-0.26,0-0.41,0.15-0.43,0.44v0.88h0.85c0.53,0,0.91,0.22,1.12,0.67c0.09,0.19,0.14,0.41,0.16,0.67v0.67
			c-0.02,0.26-0.07,0.48-0.16,0.67c-0.21,0.45-0.59,0.67-1.12,0.67h-0.43c-0.25-0.01-0.46-0.07-0.64-0.17
			C17.92,39.84,17.7,39.45,17.7,38.89z M19.41,37.56h-0.85v1.56c0.02,0.3,0.16,0.45,0.43,0.45h0.43c0.28-0.02,0.43-0.17,0.43-0.45
			V38C19.84,37.73,19.69,37.58,19.41,37.56z"/>
		<path fill="#F9F7F6" d="M24.96,35.56h-2.13v1.33h0.85c0.53,0,0.91,0.22,1.12,0.67c0.09,0.19,0.14,0.41,0.16,0.67v0.67
			c-0.02,0.26-0.07,0.48-0.16,0.67c-0.21,0.45-0.59,0.67-1.12,0.67h-0.43c-0.25-0.01-0.46-0.07-0.64-0.17
			c-0.43-0.22-0.64-0.61-0.64-1.17v-0.22h0.85v0.45c0.02,0.3,0.16,0.45,0.43,0.45h0.43c0.28-0.02,0.43-0.17,0.43-0.45V38
			c0-0.27-0.14-0.42-0.43-0.45h-1.71v-2.66h2.99C24.96,34.89,24.96,35.56,24.96,35.56z"/>
		<path fill="#F9F7F6" d="M29.23,36.45c0,0.48-0.23,0.81-0.68,0.99c0.46,0.22,0.68,0.56,0.68,1.01v0.44
			c-0.02,0.26-0.07,0.48-0.16,0.67c-0.21,0.44-0.59,0.67-1.12,0.67h-0.43c-0.25-0.01-0.46-0.07-0.64-0.17
			c-0.43-0.22-0.64-0.61-0.64-1.17v-0.22h0.85v0.45c0.02,0.3,0.16,0.45,0.43,0.45h0.43c0.28-0.02,0.43-0.17,0.43-0.45v-0.89
			c-0.02-0.3-0.16-0.45-0.43-0.45H27.3v-0.67h0.64c0.28-0.02,0.43-0.17,0.43-0.44V36c-0.02-0.29-0.16-0.44-0.43-0.44h-0.43
			c-0.28,0.02-0.43,0.17-0.43,0.45v0.45h-0.85v-0.22c0.02-0.26,0.07-0.48,0.16-0.67c0.21-0.45,0.59-0.67,1.12-0.67h0.43
			c0.25,0.02,0.46,0.08,0.64,0.17c0.43,0.22,0.64,0.61,0.64,1.17v0.21H29.23z"/>
		<path fill="#F9F7F6" d="M32.43,39.34v0.89h-0.85v-0.89H32.43z"/>
		<path fill="#F9F7F6" d="M34.77,38.89v-2.67c0.02-0.26,0.07-0.48,0.16-0.67c0.21-0.44,0.59-0.67,1.12-0.67h1.71v0.67h-1.71
			c-0.26,0-0.41,0.15-0.43,0.44v0.88h0.85c0.53,0,0.91,0.22,1.12,0.67c0.08,0.19,0.14,0.41,0.16,0.67v0.67
			c-0.02,0.26-0.08,0.48-0.16,0.67C37.38,40,37,40.22,36.47,40.22h-0.43c-0.25-0.01-0.46-0.07-0.64-0.17
			C34.99,39.84,34.77,39.45,34.77,38.89z M36.48,37.56h-0.85v1.56c0.02,0.3,0.16,0.45,0.43,0.45h0.43c0.28-0.02,0.43-0.17,0.43-0.45
			V38C36.91,37.73,36.76,37.58,36.48,37.56z"/>
		<path fill="#F9F7F6" d="M39.04,34.89h2.99v0.67l-1.28,4v0.67H39.9v-0.67l1.28-4l-2.14,0.01V34.89z"/>
		<path fill="#F9F7F6" d="M46.3,36.45c0,0.48-0.23,0.81-0.68,0.99c0.46,0.22,0.68,0.56,0.68,1.01v0.44
			c-0.02,0.26-0.08,0.48-0.16,0.67c-0.21,0.45-0.59,0.67-1.12,0.67h-0.43c-0.53,0-0.91-0.22-1.12-0.67
			c-0.08-0.18-0.14-0.41-0.16-0.67v-0.44c0-0.45,0.23-0.79,0.68-1.01c-0.46-0.18-0.68-0.51-0.68-0.99v-0.22
			c0-0.56,0.21-0.94,0.64-1.17c0.18-0.09,0.39-0.14,0.64-0.17h0.43c0.25,0.02,0.46,0.08,0.64,0.17c0.43,0.22,0.64,0.61,0.64,1.17
			V36.45z M45.44,36.67V36c-0.02-0.29-0.16-0.44-0.43-0.44h-0.43c-0.26,0-0.41,0.15-0.43,0.44v0.66c0,0.27,0.14,0.42,0.43,0.44h0.43
			C45.3,37.09,45.44,36.94,45.44,36.67z M45.44,39.11v-0.89c-0.02-0.3-0.16-0.45-0.43-0.45h-0.43c-0.26,0-0.41,0.15-0.43,0.45v0.89
			c0,0.27,0.14,0.42,0.43,0.45h0.43C45.3,39.54,45.44,39.39,45.44,39.11z"/>
	</g>
	<g>
		<path fill="#F9F7F6" d="M20.7,16.01v0.67h-0.43v1.34h-0.85v-1.34H17.5v-0.67l1.92-3.33h0.85v3.33H20.7z M18.13,16.01h1.29v-2.23
			L18.13,16.01z"/>
		<path fill="#F9F7F6" d="M24.96,13.35h-2.13v1.32h0.85c0.53,0,0.91,0.22,1.12,0.67c0.09,0.19,0.14,0.41,0.16,0.67v0.67
			c-0.02,0.26-0.07,0.48-0.16,0.67c-0.21,0.45-0.59,0.67-1.12,0.67h-0.43C23,18,22.79,17.94,22.61,17.85
			c-0.43-0.22-0.64-0.61-0.64-1.17v-0.22h0.85v0.45c0.02,0.3,0.16,0.45,0.43,0.45h0.43c0.28-0.02,0.43-0.17,0.43-0.45V15.8
			c0-0.27-0.14-0.42-0.43-0.45h-1.71v-2.66h2.99C24.96,12.69,24.96,13.35,24.96,13.35z"/>
		<path fill="#F9F7F6" d="M26.24,12.68h2.99v0.67l-1.28,4v0.67H27.1v-0.67l1.28-4l-2.14,0.01C26.24,13.36,26.24,12.68,26.24,12.68z"
			/>
		<path fill="#F9F7F6" d="M32.43,17.12v0.89h-0.85v-0.89H32.43z"/>
		<path fill="#F9F7F6" d="M34.77,14.02c0-0.56,0.21-0.95,0.64-1.17c0.18-0.09,0.39-0.15,0.64-0.17h0.43c0.53,0,0.91,0.22,1.12,0.67
			c0.08,0.19,0.14,0.41,0.16,0.67v0.22h-0.85v-0.45c0-0.27-0.14-0.42-0.43-0.45h-0.43c-0.26,0-0.41,0.15-0.43,0.44v0.66
			c0,0.27,0.14,0.42,0.43,0.44h0.43c0.53,0,0.91,0.22,1.12,0.67c0.08,0.19,0.14,0.41,0.16,0.67v0.45c-0.02,0.26-0.08,0.48-0.16,0.67
			c-0.21,0.45-0.59,0.67-1.12,0.67h-0.43c-0.25-0.01-0.46-0.07-0.64-0.17c-0.43-0.22-0.64-0.61-0.64-1.17v-0.22h0.85v0.45
			c0.02,0.3,0.16,0.45,0.43,0.45h0.43c0.28-0.02,0.43-0.17,0.43-0.45v-0.89c0-0.27-0.14-0.42-0.43-0.45h-0.43
			c-0.53,0-0.91-0.22-1.12-0.66c-0.08-0.18-0.14-0.4-0.16-0.66V14.02z"/>
		<path fill="#F9F7F6" d="M41.82,13.35h-1.71v1.55h1.49v0.67h-1.49v1.78h1.71v0.67h-2.56v-5.33h2.56V13.35z"/>
		<path fill="#F9F7F6" d="M46.3,14.23c0,0.68-0.32,1.11-0.96,1.3l0.96,1.81v0.67h-0.85v-0.67l-0.93-1.78h-0.35v2.45h-0.85v-5.33
			h1.71c0.53,0,0.91,0.22,1.12,0.67c0.08,0.19,0.14,0.41,0.16,0.67v0.21C46.31,14.23,46.3,14.23,46.3,14.23z M45.44,14.45v-0.66
			c0-0.27-0.14-0.42-0.43-0.44h-0.85v1.55h0.85C45.28,14.9,45.42,14.75,45.44,14.45z"/>
	</g>
	<g>
		<path fill="#F9F7F6" d="M17.7,6.9V5.35c0.02-0.26,0.07-0.48,0.16-0.67c0.21-0.45,0.59-0.67,1.12-0.67h0.43
			c0.28-0.02,0.43-0.17,0.43-0.44V2.68c-0.02-0.29-0.16-0.44-0.43-0.44h-0.43c-0.28,0.02-0.43,0.17-0.43,0.45v0.45H17.7V2.91
			c0.02-0.26,0.07-0.48,0.16-0.67c0.21-0.45,0.59-0.67,1.12-0.67h0.43c0.25,0.02,0.46,0.08,0.64,0.17c0.43,0.22,0.64,0.61,0.64,1.16
			v0.44c-0.02,0.26-0.07,0.48-0.16,0.67c-0.21,0.44-0.59,0.67-1.12,0.67h-0.43c-0.28,0.02-0.43,0.17-0.43,0.45v1.11h2.13V6.9H17.7z"
			/>
		<path fill="#F9F7F6" d="M24.96,3.13c0,0.48-0.23,0.81-0.68,0.99c0.46,0.22,0.68,0.56,0.68,1.01v0.44
			c-0.02,0.26-0.07,0.48-0.16,0.67c-0.21,0.44-0.59,0.67-1.12,0.67h-0.43C23,6.89,22.79,6.83,22.61,6.74
			c-0.43-0.22-0.64-0.61-0.64-1.17V5.35h0.85V5.8c0.02,0.3,0.16,0.45,0.43,0.45h0.43c0.28-0.02,0.43-0.17,0.43-0.45V4.9
			c-0.02-0.3-0.16-0.45-0.43-0.45h-0.64V3.79h0.64c0.28-0.02,0.43-0.17,0.43-0.44V2.68c-0.02-0.29-0.16-0.44-0.43-0.44h-0.43
			c-0.28,0.02-0.43,0.17-0.43,0.45v0.45h-0.85V2.91c0.02-0.26,0.07-0.48,0.16-0.67c0.21-0.45,0.59-0.67,1.12-0.67h0.43
			c0.25,0.02,0.46,0.08,0.64,0.17c0.43,0.22,0.64,0.61,0.64,1.17C24.96,2.91,24.96,3.13,24.96,3.13z"/>
		<path fill="#F9F7F6" d="M29.23,2.24H27.1v1.32h0.85c0.53,0,0.91,0.22,1.12,0.67c0.09,0.19,0.14,0.41,0.16,0.67v0.67
			c-0.02,0.26-0.07,0.48-0.16,0.67c-0.21,0.45-0.59,0.67-1.12,0.67h-0.43c-0.25-0.01-0.46-0.07-0.64-0.17
			c-0.43-0.22-0.64-0.61-0.64-1.17V5.35h0.85V5.8c0.02,0.3,0.16,0.45,0.43,0.45h0.43c0.28-0.02,0.43-0.17,0.43-0.45V4.68
			c0-0.27-0.14-0.42-0.43-0.45h-1.71V1.57h2.99C29.23,1.57,29.23,2.24,29.23,2.24z"/>
		<path fill="#F9F7F6" d="M32.43,6.01V6.9h-0.85V6.01H32.43z"/>
		<path fill="#F9F7F6" d="M37.77,4.9v0.67h-0.43V6.9h-0.85V5.57h-1.92V4.9l1.92-3.33h0.85V4.9H37.77z M35.21,4.9h1.29V2.67
			L35.21,4.9z"/>
		<path fill="#F9F7F6" d="M42.03,2.24H39.9v1.32h0.85c0.53,0,0.91,0.22,1.12,0.67c0.08,0.19,0.14,0.41,0.16,0.67v0.67
			c-0.02,0.26-0.08,0.48-0.16,0.67c-0.21,0.45-0.59,0.67-1.12,0.67h-0.43c-0.25-0.01-0.46-0.07-0.64-0.17
			c-0.43-0.22-0.64-0.61-0.64-1.17V5.35h0.85V5.8c0.02,0.3,0.16,0.45,0.43,0.45h0.43c0.28-0.02,0.43-0.17,0.43-0.45V4.68
			c0-0.27-0.14-0.42-0.43-0.45h-1.71V1.57h2.99C42.03,1.57,42.03,2.24,42.03,2.24z"/>
		<path fill="#F9F7F6" d="M46.3,4.01v1.56c0,0.56-0.21,0.95-0.64,1.17c-0.18,0.09-0.39,0.14-0.64,0.17h-0.43
			c-0.53,0-0.91-0.22-1.12-0.67c-0.08-0.19-0.14-0.41-0.16-0.67V2.9c0-0.56,0.21-0.94,0.64-1.17c0.18-0.09,0.39-0.14,0.64-0.17h0.43
			c0.53,0,0.91,0.22,1.12,0.67c0.08,0.19,0.14,0.41,0.16,0.67v0.22h-0.85V2.68c0-0.27-0.14-0.42-0.43-0.45h-0.43
			c-0.26,0-0.41,0.15-0.43,0.44v3.11c0,0.27,0.14,0.42,0.43,0.44h0.43c0.26,0,0.41-0.15,0.43-0.45V4.68H44.8V4.01H46.3z"/>
	</g>
	<g>
		<path fill="#FC3535" d="M20.69,47.34V50c-0.02,0.26-0.07,0.48-0.16,0.67c-0.21,0.45-0.59,0.67-1.12,0.67H17.7v-0.67h1.71
			c0.26,0,0.41-0.15,0.43-0.45v-0.89h-0.85c-0.53,0-0.91-0.22-1.12-0.67c-0.09-0.18-0.14-0.41-0.16-0.67v-0.67
			c0.02-0.26,0.07-0.48,0.16-0.67c0.21-0.44,0.59-0.67,1.12-0.67h0.43c0.25,0.02,0.46,0.08,0.64,0.17
			C20.48,46.39,20.69,46.78,20.69,47.34z M18.98,48.66h0.85v-1.55c-0.02-0.29-0.16-0.44-0.43-0.44h-0.43
			c-0.28,0.02-0.43,0.17-0.43,0.44v1.11C18.56,48.49,18.7,48.64,18.98,48.66z"/>
		<path fill="#FC3535" d="M24.96,47.56c0,0.48-0.23,0.81-0.68,0.99c0.46,0.22,0.68,0.56,0.68,1.01V50
			c-0.02,0.26-0.07,0.48-0.16,0.67c-0.21,0.45-0.59,0.67-1.12,0.67h-0.43c-0.53,0-0.91-0.22-1.12-0.67
			c-0.09-0.18-0.14-0.41-0.16-0.67v-0.44c0-0.45,0.23-0.79,0.68-1.01c-0.46-0.18-0.68-0.51-0.68-0.99v-0.22
			c0-0.56,0.21-0.94,0.64-1.17c0.18-0.09,0.39-0.14,0.64-0.17h0.43c0.25,0.02,0.46,0.08,0.64,0.17c0.43,0.22,0.64,0.61,0.64,1.17
			C24.96,47.34,24.96,47.56,24.96,47.56z M24.1,47.78v-0.66c-0.02-0.29-0.16-0.44-0.43-0.44h-0.43c-0.26,0-0.41,0.15-0.43,0.44v0.66
			c0,0.27,0.14,0.42,0.43,0.44h0.43C23.96,48.2,24.1,48.05,24.1,47.78z M24.1,50.22v-0.89c-0.02-0.3-0.16-0.45-0.43-0.45h-0.43
			c-0.26,0-0.41,0.15-0.43,0.45v0.89c0,0.27,0.14,0.42,0.43,0.45h0.43C23.96,50.65,24.1,50.5,24.1,50.22z"/>
		<path fill="#FC3535" d="M29.23,46.67H27.1V48h0.85c0.53,0,0.91,0.22,1.12,0.67c0.09,0.19,0.14,0.41,0.16,0.67V50
			c-0.02,0.26-0.07,0.48-0.16,0.67c-0.21,0.45-0.59,0.67-1.12,0.67h-0.43c-0.25-0.01-0.46-0.07-0.64-0.17
			c-0.43-0.22-0.64-0.61-0.64-1.17v-0.22h0.85v0.45c0.02,0.3,0.16,0.45,0.43,0.45h0.43c0.28-0.02,0.43-0.17,0.43-0.45v-1.11
			c0-0.27-0.14-0.42-0.43-0.45h-1.71V46h2.99C29.23,46,29.23,46.67,29.23,46.67z"/>
		<path fill="#FC3535" d="M32.43,50.45v0.89h-0.85v-0.89H32.43z"/>
		<path fill="#FC3535" d="M36.48,46c0.53,0,0.91,0.22,1.12,0.67c0.08,0.19,0.14,0.41,0.16,0.67V50c0,0.56-0.21,0.94-0.64,1.17
			c-0.18,0.09-0.39,0.14-0.64,0.17h-1.71V46H36.48z M36.91,50.22v-3.11c0-0.27-0.14-0.42-0.43-0.44h-0.85v4h0.85
			C36.74,50.67,36.89,50.52,36.91,50.22z"/>
		<path fill="#FC3535" d="M41.82,46.67h-1.71v1.55h1.49v0.67h-1.49v2.45h-0.85V46h2.56C41.82,46,41.82,46.67,41.82,46.67z"/>
		<path fill="#FC3535" d="M46.3,48.44V50c0,0.56-0.21,0.95-0.64,1.17c-0.18,0.09-0.39,0.14-0.64,0.17h-0.43
			c-0.53,0-0.91-0.22-1.12-0.67c-0.08-0.18-0.14-0.41-0.16-0.67v-2.67c0-0.56,0.21-0.94,0.64-1.17c0.18-0.09,0.39-0.14,0.64-0.17
			h0.43c0.53,0,0.91,0.22,1.12,0.67c0.08,0.19,0.14,0.41,0.16,0.67v0.22h-0.85V47.1c0-0.27-0.14-0.42-0.43-0.45h-0.43
			c-0.26,0-0.41,0.15-0.43,0.44v3.11c0,0.27,0.14,0.42,0.43,0.44h0.43c0.26,0,0.41-0.15,0.43-0.45v-1.11H44.8v-0.67h1.5V48.44z"/>
	</g>
	<g>
		<path fill="#FC3535" d="M19.62,61.78h0.85v0.67h-2.56v-0.67h0.85v-3.79h-0.85v-0.66l1.71-0.22
			C19.62,57.11,19.62,61.78,19.62,61.78z"/>
		<path fill="#FC3535" d="M24.96,58.67c0,0.48-0.23,0.81-0.68,0.99c0.46,0.22,0.68,0.56,0.68,1.01v0.44
			c-0.02,0.26-0.07,0.48-0.16,0.67c-0.21,0.45-0.59,0.67-1.12,0.67h-0.43c-0.53,0-0.91-0.22-1.12-0.67
			c-0.09-0.18-0.14-0.41-0.16-0.67v-0.44c0-0.45,0.23-0.79,0.68-1.01c-0.46-0.18-0.68-0.51-0.68-0.99v-0.22
			c0-0.56,0.21-0.94,0.64-1.17c0.18-0.09,0.39-0.14,0.64-0.17h0.43c0.25,0.02,0.46,0.08,0.64,0.17c0.43,0.22,0.64,0.61,0.64,1.17
			C24.96,58.45,24.96,58.67,24.96,58.67z M24.1,58.88v-0.66c-0.02-0.29-0.16-0.44-0.43-0.44h-0.43c-0.26,0-0.41,0.15-0.43,0.44v0.66
			c0,0.27,0.14,0.42,0.43,0.44h0.43C23.96,59.3,24.1,59.16,24.1,58.88z M24.1,61.33v-0.89c-0.02-0.3-0.16-0.45-0.43-0.45h-0.43
			c-0.26,0-0.41,0.15-0.43,0.45v0.89c0,0.27,0.14,0.42,0.43,0.45h0.43C23.96,61.75,24.1,61.6,24.1,61.33z"/>
		<path fill="#FC3535" d="M29.23,58.44v2.67c-0.02,0.26-0.07,0.48-0.16,0.67c-0.21,0.45-0.59,0.67-1.12,0.67h-1.71v-0.67h1.71
			c0.26,0,0.41-0.15,0.43-0.45v-0.89h-0.85c-0.53,0-0.91-0.22-1.12-0.67c-0.09-0.18-0.14-0.41-0.16-0.67v-0.67
			c0.02-0.26,0.07-0.48,0.16-0.67c0.21-0.44,0.59-0.67,1.12-0.67h0.43c0.25,0.02,0.46,0.08,0.64,0.17
			C29.01,57.5,29.23,57.89,29.23,58.44z M27.52,59.77h0.85v-1.55c-0.02-0.29-0.16-0.44-0.43-0.44h-0.43
			c-0.28,0.02-0.43,0.17-0.43,0.44v1.11C27.09,59.6,27.23,59.75,27.52,59.77z"/>
		<path fill="#FC3535" d="M32.43,61.55v0.89h-0.85v-0.89H32.43z"/>
		<path fill="#FC3535" d="M36.05,61.78h1.71v0.67H35.2v-5.33h0.85V61.78z"/>
		<path fill="#FC3535" d="M41.82,57.78h-0.85v4h0.85v0.67h-2.56v-0.67h0.85v-4h-0.85v-0.67h2.56V57.78z"/>
		<path fill="#FC3535" d="M45.44,57.11h0.85v4c0,0.56-0.21,0.94-0.64,1.17c-0.18,0.09-0.39,0.14-0.64,0.17h-0.43
			c-0.53,0-0.91-0.22-1.12-0.67c-0.08-0.18-0.14-0.41-0.16-0.67v-4h0.85v4.22c0,0.27,0.14,0.42,0.43,0.44h0.43
			c0.26,0,0.41-0.15,0.43-0.44V57.11z"/>
	</g>
</g>
<g id="_x32_">
	<g>
		<path fill="#F9F7F6" d="M20.69,36.23v0.22h-0.85V36c0-0.27-0.14-0.42-0.43-0.45h-0.43c-0.26,0-0.41,0.15-0.43,0.44v3.11
			c0,0.27,0.14,0.42,0.43,0.44h0.43c0.26,0,0.41-0.15,0.43-0.45v-0.45h0.85v0.22c0,0.56-0.21,0.95-0.64,1.17
			c-0.18,0.1-0.39,0.15-0.64,0.17h-0.43c-0.53,0-0.91-0.22-1.12-0.67c-0.09-0.18-0.14-0.41-0.16-0.67v-2.67
			c0-0.56,0.21-0.94,0.64-1.17c0.18-0.09,0.39-0.14,0.64-0.17h0.43c0.53,0,0.91,0.22,1.12,0.67C20.62,35.75,20.67,35.97,20.69,36.23
			z"/>
		<path fill="#F9F7F6" d="M24.96,34.89v0.67l-0.8,2l0.8,2v0.67H24.1v-0.67l-0.64-1.78l-0.64,1.78v0.67h-0.85v-0.67l0.8-2l-0.8-2
			v-0.67h0.85v0.67l0.64,1.77l0.64-1.77v-0.67H24.96z"/>
		<path fill="#F9F7F6" d="M29.23,36.45c0,0.48-0.23,0.81-0.68,0.99c0.46,0.22,0.68,0.56,0.68,1.01v0.44
			c-0.02,0.26-0.07,0.48-0.16,0.67c-0.21,0.44-0.59,0.67-1.12,0.67h-0.43c-0.25-0.01-0.46-0.07-0.64-0.17
			c-0.43-0.22-0.64-0.61-0.64-1.17v-0.22h0.85v0.45c0.02,0.3,0.16,0.45,0.43,0.45h0.43c0.28-0.02,0.43-0.17,0.43-0.45v-0.89
			c-0.02-0.3-0.16-0.45-0.43-0.45H27.3v-0.67h0.64c0.28-0.02,0.43-0.17,0.43-0.44V36c-0.02-0.29-0.16-0.44-0.43-0.44h-0.43
			c-0.28,0.02-0.43,0.17-0.43,0.45v0.45h-0.85v-0.22c0.02-0.26,0.07-0.48,0.16-0.67c0.21-0.45,0.59-0.67,1.12-0.67h0.43
			c0.25,0.02,0.46,0.08,0.64,0.17c0.43,0.22,0.64,0.61,0.64,1.17v0.21H29.23z"/>
		<path fill="#F9F7F6" d="M32.43,39.34v0.89h-0.85v-0.89H32.43z"/>
		<path fill="#F9F7F6" d="M34.77,38.89v-2.67c0.02-0.26,0.07-0.48,0.16-0.67c0.21-0.44,0.59-0.67,1.12-0.67h1.71v0.67h-1.71
			c-0.26,0-0.41,0.15-0.43,0.44v0.88h0.85c0.53,0,0.91,0.22,1.12,0.67c0.08,0.19,0.14,0.41,0.16,0.67v0.67
			c-0.02,0.26-0.08,0.48-0.16,0.67C37.38,40,37,40.22,36.47,40.22h-0.43c-0.25-0.01-0.46-0.07-0.64-0.17
			C34.99,39.84,34.77,39.45,34.77,38.89z M36.48,37.56h-0.85v1.56c0.02,0.3,0.16,0.45,0.43,0.45h0.43c0.28-0.02,0.43-0.17,0.43-0.45
			V38C36.91,37.73,36.76,37.58,36.48,37.56z"/>
		<path fill="#F9F7F6" d="M40.75,34.89c0.53,0,0.91,0.22,1.12,0.67c0.08,0.19,0.14,0.41,0.16,0.67v2.67c0,0.56-0.21,0.94-0.64,1.17
			c-0.18,0.09-0.39,0.14-0.64,0.17h-1.71v-5.33h1.71V34.89z M41.18,39.12v-3.11c0-0.27-0.14-0.42-0.43-0.44H39.9v4h0.85
			C41.01,39.56,41.15,39.41,41.18,39.12z"/>
		<path fill="#F9F7F6" d="M46.3,36.23v0.22h-0.85V36c0-0.27-0.14-0.42-0.43-0.45h-0.43c-0.26,0-0.41,0.15-0.43,0.44v3.11
			c0,0.27,0.14,0.42,0.43,0.44h0.43c0.26,0,0.41-0.15,0.43-0.45v-0.45h0.85v0.22c0,0.56-0.21,0.95-0.64,1.17
			c-0.18,0.1-0.39,0.15-0.64,0.17h-0.43c-0.53,0-0.91-0.22-1.12-0.67c-0.08-0.18-0.14-0.41-0.16-0.67v-2.67
			c0-0.56,0.21-0.94,0.64-1.17c0.18-0.09,0.39-0.14,0.64-0.17h0.43c0.53,0,0.91,0.22,1.12,0.67C46.22,35.75,46.28,35.97,46.3,36.23z
			"/>
	</g>
	<g>
		<path fill="#F9F7F6" d="M17.92,12.68h2.77v4c-0.02,0.26-0.07,0.48-0.16,0.67c-0.21,0.44-0.59,0.67-1.12,0.67h-0.43
			c-0.25-0.01-0.46-0.07-0.64-0.17c-0.43-0.22-0.64-0.61-0.64-1.17v-0.22h0.85v0.45c0.02,0.3,0.16,0.45,0.43,0.45h0.43
			c0.28-0.02,0.43-0.17,0.43-0.44v-3.55h-1.92C17.92,13.37,17.92,12.68,17.92,12.68z"/>
		<path fill="#F9F7F6" d="M24.1,12.68h0.85v5.33H24.1v-2.45h-1.28v2.45h-0.85v-5.33h0.85v2.22h1.28V12.68z"/>
		<path fill="#F9F7F6" d="M26.24,12.68h2.99v0.67l-1.28,4v0.67H27.1v-0.67l1.28-4l-2.14,0.01C26.24,13.36,26.24,12.68,26.24,12.68z"
			/>
		<path fill="#F9F7F6" d="M32.43,17.12v0.89h-0.85v-0.89H32.43z"/>
		<path fill="#F9F7F6" d="M34.77,14.02c0-0.56,0.21-0.95,0.64-1.17c0.18-0.09,0.39-0.15,0.64-0.17h0.43c0.53,0,0.91,0.22,1.12,0.67
			c0.08,0.19,0.14,0.41,0.16,0.67v0.22h-0.85v-0.45c0-0.27-0.14-0.42-0.43-0.45h-0.43c-0.26,0-0.41,0.15-0.43,0.44v0.66
			c0,0.27,0.14,0.42,0.43,0.44h0.43c0.53,0,0.91,0.22,1.12,0.67c0.08,0.19,0.14,0.41,0.16,0.67v0.45c-0.02,0.26-0.08,0.48-0.16,0.67
			c-0.21,0.45-0.59,0.67-1.12,0.67h-0.43c-0.25-0.01-0.46-0.07-0.64-0.17c-0.43-0.22-0.64-0.61-0.64-1.17v-0.22h0.85v0.45
			c0.02,0.3,0.16,0.45,0.43,0.45h0.43c0.28-0.02,0.43-0.17,0.43-0.45v-0.89c0-0.27-0.14-0.42-0.43-0.45h-0.43
			c-0.53,0-0.91-0.22-1.12-0.66c-0.08-0.18-0.14-0.4-0.16-0.66V14.02z"/>
		<path fill="#F9F7F6" d="M41.82,13.35h-1.71v1.55h1.49v0.67h-1.49v1.78h1.71v0.67h-2.56v-5.33h2.56V13.35z"/>
		<path fill="#F9F7F6" d="M46.3,14.23c0,0.68-0.32,1.11-0.96,1.3l0.96,1.81v0.67h-0.85v-0.67l-0.93-1.78h-0.35v2.45h-0.85v-5.33
			h1.71c0.53,0,0.91,0.22,1.12,0.67c0.08,0.19,0.14,0.41,0.16,0.67v0.21C46.31,14.23,46.3,14.23,46.3,14.23z M45.44,14.45v-0.66
			c0-0.27-0.14-0.42-0.43-0.44h-0.85v1.55h0.85C45.28,14.9,45.42,14.75,45.44,14.45z"/>
	</g>
	<g>
		<path fill="#F9F7F6" d="M20.69,2.24h-2.13v1.32h0.85c0.53,0,0.91,0.22,1.12,0.67c0.09,0.19,0.14,0.41,0.16,0.67v0.67
			c-0.02,0.26-0.07,0.48-0.16,0.67c-0.21,0.45-0.59,0.67-1.12,0.67h-0.43c-0.25-0.01-0.46-0.07-0.64-0.17
			c-0.43-0.22-0.64-0.61-0.64-1.17V5.35h0.85V5.8c0.02,0.3,0.16,0.45,0.43,0.45h0.43c0.28-0.02,0.43-0.17,0.43-0.45V4.68
			c0-0.27-0.14-0.42-0.43-0.45H17.7V1.57h2.99V2.24z"/>
		<path fill="#F9F7F6" d="M24.97,4.9v0.67h-0.43V6.9h-0.85V5.57h-1.92V4.9l1.92-3.33h0.85V4.9H24.97z M22.4,4.9h1.29V2.67L22.4,4.9z
			"/>
		<path fill="#F9F7F6" d="M29.23,2.24H27.1v1.32h0.85c0.53,0,0.91,0.22,1.12,0.67c0.09,0.19,0.14,0.41,0.16,0.67v0.67
			c-0.02,0.26-0.07,0.48-0.16,0.67c-0.21,0.45-0.59,0.67-1.12,0.67h-0.43c-0.25-0.01-0.46-0.07-0.64-0.17
			c-0.43-0.22-0.64-0.61-0.64-1.17V5.35h0.85V5.8c0.02,0.3,0.16,0.45,0.43,0.45h0.43c0.28-0.02,0.43-0.17,0.43-0.45V4.68
			c0-0.27-0.14-0.42-0.43-0.45h-1.71V1.57h2.99C29.23,1.57,29.23,2.24,29.23,2.24z"/>
		<path fill="#F9F7F6" d="M32.43,6.01V6.9h-0.85V6.01H32.43z"/>
		<path fill="#F9F7F6" d="M34.77,6.9V5.35c0.02-0.26,0.07-0.48,0.16-0.67c0.21-0.45,0.59-0.67,1.12-0.67h0.43
			c0.28-0.02,0.43-0.17,0.43-0.44V2.68c-0.02-0.29-0.16-0.44-0.43-0.44h-0.43c-0.29,0.02-0.43,0.17-0.43,0.45v0.45h-0.85V2.91
			c0.02-0.26,0.07-0.48,0.16-0.67c0.21-0.45,0.59-0.67,1.12-0.67h0.43c0.25,0.02,0.46,0.08,0.64,0.17c0.43,0.22,0.64,0.61,0.64,1.16
			v0.44c-0.02,0.26-0.08,0.48-0.16,0.67c-0.21,0.44-0.59,0.67-1.12,0.67h-0.43c-0.29,0.02-0.43,0.17-0.43,0.45v1.11h2.13V6.9H34.77z
			"/>
		<path fill="#F9F7F6" d="M42.03,3.13c0,0.48-0.23,0.81-0.68,0.99c0.46,0.22,0.68,0.56,0.68,1.01v0.44
			c-0.02,0.26-0.08,0.48-0.16,0.67c-0.21,0.44-0.59,0.67-1.12,0.67h-0.43c-0.25-0.01-0.46-0.07-0.64-0.17
			c-0.43-0.22-0.64-0.61-0.64-1.17V5.35h0.85V5.8c0.02,0.3,0.16,0.45,0.43,0.45h0.43c0.28-0.02,0.43-0.17,0.43-0.45V4.9
			c-0.02-0.3-0.16-0.45-0.43-0.45h-0.64V3.79h0.64c0.28-0.02,0.43-0.17,0.43-0.44V2.68c-0.02-0.29-0.16-0.44-0.43-0.44h-0.43
			c-0.29,0.02-0.43,0.17-0.43,0.45v0.45h-0.85V2.91c0.02-0.26,0.07-0.48,0.16-0.67c0.21-0.45,0.59-0.67,1.12-0.67h0.43
			c0.25,0.02,0.46,0.08,0.64,0.17c0.43,0.22,0.64,0.61,0.64,1.17V3.13z"/>
		<path fill="#F9F7F6" d="M46.3,4.01v1.56c0,0.56-0.21,0.95-0.64,1.17c-0.18,0.09-0.39,0.14-0.64,0.17h-0.43
			c-0.53,0-0.91-0.22-1.12-0.67c-0.08-0.19-0.14-0.41-0.16-0.67V2.9c0-0.56,0.21-0.94,0.64-1.17c0.18-0.09,0.39-0.14,0.64-0.17h0.43
			c0.53,0,0.91,0.22,1.12,0.67c0.08,0.19,0.14,0.41,0.16,0.67v0.22h-0.85V2.68c0-0.27-0.14-0.42-0.43-0.45h-0.43
			c-0.26,0-0.41,0.15-0.43,0.44v3.11c0,0.27,0.14,0.42,0.43,0.44h0.43c0.26,0,0.41-0.15,0.43-0.45V4.68H44.8V4.01H46.3z"/>
	</g>
	<g>
		<path fill="#FC3535" d="M19.2,46c0.41,0,0.76,0.15,1.06,0.46c0.29,0.3,0.44,0.67,0.44,1.1v2.22c0,0.43-0.15,0.8-0.44,1.1
			s-0.64,0.46-1.06,0.46s-0.76-0.15-1.06-0.46c-0.29-0.3-0.44-0.67-0.44-1.1v-2.22c0-0.43,0.15-0.8,0.44-1.1
			C18.43,46.15,18.78,46,19.2,46z M19.84,50v-2.67c0-0.18-0.06-0.34-0.19-0.47s-0.28-0.19-0.45-0.19s-0.33,0.06-0.45,0.19
			c-0.12,0.13-0.19,0.29-0.19,0.47V50c0,0.18,0.06,0.34,0.19,0.47c0.12,0.13,0.28,0.19,0.45,0.19s0.33-0.06,0.45-0.19
			S19.84,50.19,19.84,50z"/>
		<path fill="#FC3535" d="M21.97,46h2.99v0.67l-1.28,4v0.67h-0.85v-0.67l1.28-4l-2.14,0.01V46z"/>
		<path fill="#FC3535" d="M29.23,46.67H27.1V48h0.85c0.53,0,0.91,0.22,1.12,0.67c0.09,0.19,0.14,0.41,0.16,0.67V50
			c-0.02,0.26-0.07,0.48-0.16,0.67c-0.21,0.45-0.59,0.67-1.12,0.67h-0.43c-0.25-0.01-0.46-0.07-0.64-0.17
			c-0.43-0.22-0.64-0.61-0.64-1.17v-0.22h0.85v0.45c0.02,0.3,0.16,0.45,0.43,0.45h0.43c0.28-0.02,0.43-0.17,0.43-0.45v-1.11
			c0-0.27-0.14-0.42-0.43-0.45h-1.71V46h2.99C29.23,46,29.23,46.67,29.23,46.67z"/>
		<path fill="#FC3535" d="M32.43,50.45v0.89h-0.85v-0.89H32.43z"/>
		<path fill="#FC3535" d="M36.27,46c0.41,0,0.76,0.15,1.06,0.46c0.29,0.3,0.44,0.67,0.44,1.1v2.22c0,0.43-0.15,0.8-0.44,1.1
			c-0.29,0.3-0.64,0.46-1.06,0.46s-0.76-0.15-1.06-0.46c-0.29-0.3-0.44-0.67-0.44-1.1v-2.22c0-0.43,0.15-0.8,0.44-1.1
			C35.5,46.15,35.85,46,36.27,46z M36.91,50v-2.67c0-0.18-0.06-0.34-0.19-0.47c-0.12-0.13-0.28-0.19-0.45-0.19s-0.33,0.06-0.45,0.19
			c-0.12,0.13-0.19,0.29-0.19,0.47V50c0,0.18,0.06,0.34,0.19,0.47c0.12,0.13,0.28,0.19,0.45,0.19s0.33-0.06,0.45-0.19
			C36.84,50.34,36.91,50.19,36.91,50z"/>
		<path fill="#FC3535" d="M41.82,46.67h-1.71v1.55h1.49v0.67h-1.49v2.45h-0.85V46h2.56C41.82,46,41.82,46.67,41.82,46.67z"/>
		<path fill="#FC3535" d="M46.3,47.34V50c-0.02,0.26-0.08,0.48-0.16,0.67c-0.21,0.45-0.59,0.67-1.12,0.67h-1.71v-0.67h1.71
			c0.26,0,0.41-0.15,0.43-0.45v-0.89H44.6c-0.53,0-0.91-0.22-1.12-0.67c-0.08-0.18-0.14-0.41-0.16-0.67v-0.67
			c0.02-0.26,0.07-0.48,0.16-0.67c0.21-0.44,0.59-0.67,1.12-0.67h0.43c0.25,0.02,0.46,0.08,0.64,0.17
			C46.08,46.39,46.3,46.78,46.3,47.34z M44.59,48.66h0.85v-1.55c-0.02-0.29-0.16-0.44-0.43-0.44h-0.43
			c-0.29,0.02-0.43,0.17-0.43,0.44v1.11C44.16,48.49,44.3,48.64,44.59,48.66z"/>
	</g>
	<g>
		<path fill="#FC3535" d="M19.62,61.78h0.85v0.67h-2.56v-0.67h0.85v-3.79h-0.85v-0.66l1.71-0.22
			C19.62,57.11,19.62,61.78,19.62,61.78z"/>
		<path fill="#FC3535" d="M24.96,57.11v0.67l-0.8,2l0.8,2v0.67H24.1v-0.67L23.46,60l-0.64,1.78v0.67h-0.85v-0.67l0.8-2l-0.8-2v-0.67
			h0.85v0.67l0.64,1.77l0.64-1.77v-0.67H24.96z"/>
		<path fill="#FC3535" d="M29.23,58.44v2.67c-0.02,0.26-0.07,0.48-0.16,0.67c-0.21,0.45-0.59,0.67-1.12,0.67h-1.71v-0.67h1.71
			c0.26,0,0.41-0.15,0.43-0.45v-0.89h-0.85c-0.53,0-0.91-0.22-1.12-0.67c-0.09-0.18-0.14-0.41-0.16-0.67v-0.67
			c0.02-0.26,0.07-0.48,0.16-0.67c0.21-0.44,0.59-0.67,1.12-0.67h0.43c0.25,0.02,0.46,0.08,0.64,0.17
			C29.01,57.5,29.23,57.89,29.23,58.44z M27.52,59.77h0.85v-1.55c-0.02-0.29-0.16-0.44-0.43-0.44h-0.43
			c-0.28,0.02-0.43,0.17-0.43,0.44v1.11C27.09,59.6,27.23,59.75,27.52,59.77z"/>
		<path fill="#FC3535" d="M32.43,61.55v0.89h-0.85v-0.89H32.43z"/>
		<path fill="#FC3535" d="M37.76,57.78h-2.13v1.33h0.85c0.53,0,0.91,0.22,1.12,0.67c0.08,0.19,0.14,0.41,0.16,0.67v0.67
			c-0.02,0.26-0.08,0.48-0.16,0.67c-0.21,0.45-0.59,0.67-1.12,0.67h-0.43c-0.25-0.01-0.46-0.07-0.64-0.17
			c-0.43-0.22-0.64-0.61-0.64-1.17V60.9h0.85v0.45c0.02,0.3,0.16,0.45,0.43,0.45h0.43c0.28-0.02,0.43-0.17,0.43-0.45v-1.11
			c0-0.27-0.14-0.42-0.43-0.45h-1.71v-2.66h2.99V57.78z"/>
		<path fill="#FC3535" d="M39.04,61.11v-2.67c0.02-0.26,0.07-0.48,0.16-0.67c0.21-0.44,0.59-0.67,1.12-0.67h1.71v0.67h-1.71
			c-0.26,0-0.41,0.15-0.43,0.44v0.88h0.85c0.53,0,0.91,0.22,1.12,0.67c0.08,0.19,0.14,0.41,0.16,0.67v0.67
			c-0.02,0.26-0.08,0.48-0.16,0.67c-0.21,0.45-0.59,0.67-1.12,0.67h-0.43c-0.25-0.01-0.46-0.07-0.64-0.17
			C39.25,62.05,39.04,61.67,39.04,61.11z M40.75,59.77H39.9v1.56c0.02,0.3,0.16,0.45,0.43,0.45h0.43c0.28-0.02,0.43-0.17,0.43-0.45
			v-1.11C41.18,59.94,41.03,59.79,40.75,59.77z"/>
		<path fill="#FC3535" d="M44.8,57.11c0.41,0,0.76,0.15,1.06,0.46c0.29,0.3,0.44,0.67,0.44,1.1v2.22c0,0.43-0.15,0.8-0.44,1.1
			c-0.29,0.3-0.64,0.46-1.06,0.46s-0.76-0.15-1.06-0.46c-0.29-0.3-0.44-0.67-0.44-1.1v-2.22c0-0.43,0.15-0.8,0.44-1.1
			C44.04,57.26,44.39,57.11,44.8,57.11z M45.44,61.11v-2.67c0-0.18-0.06-0.34-0.19-0.47c-0.12-0.13-0.28-0.19-0.45-0.19
			s-0.33,0.06-0.45,0.19c-0.12,0.13-0.19,0.29-0.19,0.47v2.67c0,0.18,0.06,0.34,0.19,0.47c0.12,0.13,0.28,0.19,0.45,0.19
			s0.33-0.06,0.45-0.19C45.38,61.45,45.44,61.29,45.44,61.11z"/>
	</g>
</g>
<g id="_x33_">
	<g>
		<path fill="#F9F7F6" d="M19.62,39.56h0.85v0.67h-2.56v-0.67h0.85v-3.79h-0.85v-0.66l1.71-0.22
			C19.62,34.89,19.62,39.56,19.62,39.56z"/>
		<path fill="#F9F7F6" d="M21.97,38.89v-2.67c0.02-0.26,0.07-0.48,0.16-0.67c0.21-0.44,0.59-0.67,1.12-0.67h1.71v0.67h-1.71
			c-0.26,0-0.41,0.15-0.43,0.44v0.88h0.85c0.53,0,0.91,0.22,1.12,0.67c0.09,0.19,0.14,0.41,0.16,0.67v0.67
			c-0.02,0.26-0.07,0.48-0.16,0.67c-0.21,0.45-0.59,0.67-1.12,0.67h-0.43c-0.25-0.01-0.46-0.07-0.64-0.17
			C22.18,39.84,21.97,39.45,21.97,38.89z M23.68,37.56h-0.85v1.56c0.02,0.3,0.16,0.45,0.43,0.45h0.43c0.28-0.02,0.43-0.17,0.43-0.45
			V38C24.1,37.73,23.96,37.58,23.68,37.56z"/>
		<path fill="#F9F7F6" d="M29.23,34.89v0.67l-0.8,2l0.8,2v0.67h-0.85v-0.67l-0.64-1.78l-0.64,1.78v0.67h-0.85v-0.67l0.8-2l-0.8-2
			v-0.67h0.85v0.67l0.64,1.77l0.64-1.77v-0.67H29.23z"/>
		<path fill="#F9F7F6" d="M32.43,39.34v0.89h-0.85v-0.89H32.43z"/>
		<path fill="#F9F7F6" d="M37.76,36.23v0.22h-0.85V36c0-0.27-0.14-0.42-0.43-0.45h-0.43c-0.26,0-0.41,0.15-0.43,0.44v3.11
			c0,0.27,0.14,0.42,0.43,0.44h0.43c0.26,0,0.41-0.15,0.43-0.45v-0.45h0.85v0.22c0,0.56-0.21,0.95-0.64,1.17
			c-0.18,0.1-0.39,0.15-0.64,0.17h-0.43c-0.53,0-0.91-0.22-1.12-0.67c-0.08-0.18-0.14-0.41-0.16-0.67v-2.67
			c0-0.56,0.21-0.94,0.64-1.17c0.18-0.09,0.39-0.14,0.64-0.17h0.43c0.53,0,0.91,0.22,1.12,0.67C37.69,35.75,37.74,35.97,37.76,36.23
			z"/>
		<path fill="#F9F7F6" d="M39.04,34.89h2.99v0.67l-1.28,4v0.67H39.9v-0.67l1.28-4l-2.14,0.01V34.89z"/>
		<path fill="#F9F7F6" d="M44.8,34.89c0.41,0,0.76,0.15,1.06,0.46c0.29,0.3,0.44,0.67,0.44,1.1v2.22c0,0.43-0.15,0.8-0.44,1.1
			c-0.29,0.3-0.64,0.46-1.06,0.46s-0.76-0.15-1.06-0.46c-0.29-0.3-0.44-0.67-0.44-1.1v-2.22c0-0.43,0.15-0.8,0.44-1.1
			C44.04,35.05,44.39,34.89,44.8,34.89z M45.44,38.89v-2.67c0-0.18-0.06-0.34-0.19-0.47c-0.12-0.13-0.28-0.19-0.45-0.19
			s-0.33,0.06-0.45,0.19c-0.12,0.13-0.19,0.29-0.19,0.47v2.67c0,0.18,0.06,0.34,0.19,0.47c0.12,0.13,0.28,0.19,0.45,0.19
			s0.33-0.06,0.45-0.19C45.38,39.24,45.44,39.08,45.44,38.89z"/>
	</g>
	<g>
		<path fill="#F9F7F6" d="M20.7,16.01v0.67h-0.43v1.34h-0.85v-1.34H17.5v-0.67l1.92-3.33h0.85v3.33H20.7z M18.13,16.01h1.29v-2.23
			L18.13,16.01z"/>
		<path fill="#F9F7F6" d="M24.96,14.24c0,0.48-0.23,0.81-0.68,0.99c0.46,0.22,0.68,0.56,0.68,1.01v0.44
			c-0.02,0.26-0.07,0.48-0.16,0.67c-0.21,0.44-0.59,0.67-1.12,0.67h-0.43C23,18,22.79,17.94,22.61,17.85
			c-0.43-0.22-0.64-0.61-0.64-1.17v-0.22h0.85v0.45c0.02,0.3,0.16,0.45,0.43,0.45h0.43c0.28-0.02,0.43-0.17,0.43-0.45v-0.89
			c-0.02-0.3-0.16-0.45-0.43-0.45h-0.64V14.9h0.64c0.28-0.02,0.43-0.17,0.43-0.44V13.8c-0.02-0.29-0.16-0.44-0.43-0.44h-0.43
			c-0.28,0.02-0.43,0.17-0.43,0.45v0.45h-0.85v-0.22c0.02-0.26,0.07-0.48,0.16-0.67c0.21-0.45,0.59-0.67,1.12-0.67h0.43
			c0.25,0.02,0.46,0.08,0.64,0.17c0.43,0.22,0.64,0.61,0.64,1.17C24.96,14.04,24.96,14.24,24.96,14.24z"/>
		<path fill="#F9F7F6" d="M26.24,12.68h2.99v0.67l-1.28,4v0.67H27.1v-0.67l1.28-4l-2.14,0.01C26.24,13.36,26.24,12.68,26.24,12.68z"
			/>
		<path fill="#F9F7F6" d="M32.43,17.12v0.89h-0.85v-0.89H32.43z"/>
		<path fill="#F9F7F6" d="M34.77,12.68h2.99v0.67l-1.28,4v0.67h-0.85v-0.67l1.28-4l-2.14,0.01C34.77,13.36,34.77,12.68,34.77,12.68z
			"/>
		<path fill="#F9F7F6" d="M42.03,14.01v2.67c-0.02,0.26-0.08,0.48-0.16,0.67c-0.21,0.44-0.59,0.67-1.12,0.67h-1.71v-0.67h1.71
			c0.26,0,0.41-0.15,0.43-0.45v-0.89h-0.85c-0.53,0-0.91-0.22-1.12-0.67c-0.08-0.19-0.14-0.41-0.16-0.67V14
			c0.02-0.26,0.07-0.48,0.16-0.67c0.21-0.44,0.59-0.67,1.12-0.67h0.43c0.25,0.02,0.46,0.08,0.64,0.17
			C41.82,13.07,42.03,13.46,42.03,14.01z M40.32,15.34h0.85v-1.55c-0.02-0.3-0.16-0.44-0.43-0.44h-0.43
			c-0.29,0.02-0.43,0.17-0.43,0.44v1.11C39.9,15.17,40.04,15.32,40.32,15.34z"/>
		<path fill="#F9F7F6" d="M46.3,14.23c0,0.68-0.32,1.11-0.96,1.3l0.96,1.81v0.67h-0.85v-0.67l-0.93-1.78h-0.35v2.45h-0.85v-5.33
			h1.71c0.53,0,0.91,0.22,1.12,0.67c0.08,0.19,0.14,0.41,0.16,0.67v0.21C46.31,14.23,46.3,14.23,46.3,14.23z M45.44,14.45v-0.66
			c0-0.27-0.14-0.42-0.43-0.44h-0.85v1.55h0.85C45.28,14.9,45.42,14.75,45.44,14.45z"/>
	</g>
	<g>
		<path fill="#F9F7F6" d="M20.69,2.9v2.67c-0.02,0.26-0.07,0.48-0.16,0.67c-0.21,0.44-0.59,0.67-1.12,0.67H17.7V6.24h1.71
			c0.26,0,0.41-0.15,0.43-0.45V4.9h-0.85c-0.53,0-0.91-0.22-1.12-0.67c-0.09-0.19-0.14-0.41-0.16-0.67V2.9
			c0.02-0.26,0.07-0.48,0.16-0.67c0.21-0.44,0.59-0.67,1.12-0.67h0.43c0.25,0.02,0.46,0.08,0.64,0.17
			C20.48,1.96,20.69,2.35,20.69,2.9z M18.98,4.23h0.85V2.68c-0.02-0.3-0.16-0.44-0.43-0.44h-0.43c-0.28,0.02-0.43,0.17-0.43,0.44
			v1.11C18.56,4.06,18.7,4.21,18.98,4.23z"/>
		<path fill="#F9F7F6" d="M24.97,4.9v0.67h-0.43V6.9h-0.85V5.57h-1.92V4.9l1.92-3.33h0.85V4.9H24.97z M22.4,4.9h1.29V2.67L22.4,4.9z
			"/>
		<path fill="#F9F7F6" d="M29.23,2.24H27.1v1.32h0.85c0.53,0,0.91,0.22,1.12,0.67c0.09,0.19,0.14,0.41,0.16,0.67v0.67
			c-0.02,0.26-0.07,0.48-0.16,0.67c-0.21,0.45-0.59,0.67-1.12,0.67h-0.43c-0.25-0.01-0.46-0.07-0.64-0.17
			c-0.43-0.22-0.64-0.61-0.64-1.17V5.35h0.85V5.8c0.02,0.3,0.16,0.45,0.43,0.45h0.43c0.28-0.02,0.43-0.17,0.43-0.45V4.68
			c0-0.27-0.14-0.42-0.43-0.45h-1.71V1.57h2.99C29.23,1.57,29.23,2.24,29.23,2.24z"/>
		<path fill="#F9F7F6" d="M32.43,6.01V6.9h-0.85V6.01H32.43z"/>
		<path fill="#F9F7F6" d="M37.77,4.9v0.67h-0.43V6.9h-0.85V5.57h-1.92V4.9l1.92-3.33h0.85V4.9H37.77z M35.21,4.9h1.29V2.67
			L35.21,4.9z"/>
		<path fill="#F9F7F6" d="M41.82,2.24h-1.71v1.55h1.49v0.67h-1.49V6.9h-0.85V1.57h2.56C41.82,1.57,41.82,2.24,41.82,2.24z"/>
		<path fill="#F9F7F6" d="M46.3,4.01v1.56c0,0.56-0.21,0.95-0.64,1.17c-0.18,0.09-0.39,0.14-0.64,0.17h-0.43
			c-0.53,0-0.91-0.22-1.12-0.67c-0.08-0.19-0.14-0.41-0.16-0.67V2.9c0-0.56,0.21-0.94,0.64-1.17c0.18-0.09,0.39-0.14,0.64-0.17h0.43
			c0.53,0,0.91,0.22,1.12,0.67c0.08,0.19,0.14,0.41,0.16,0.67v0.22h-0.85V2.68c0-0.27-0.14-0.42-0.43-0.45h-0.43
			c-0.26,0-0.41,0.15-0.43,0.44v3.11c0,0.27,0.14,0.42,0.43,0.44h0.43c0.26,0,0.41-0.15,0.43-0.45V4.68H44.8V4.01H46.3z"/>
	</g>
	<g>
		<path fill="#FC3535" d="M20.69,47.34V50c-0.02,0.26-0.07,0.48-0.16,0.67c-0.21,0.45-0.59,0.67-1.12,0.67H17.7v-0.67h1.71
			c0.26,0,0.41-0.15,0.43-0.45v-0.89h-0.85c-0.53,0-0.91-0.22-1.12-0.67c-0.09-0.18-0.14-0.41-0.16-0.67v-0.67
			c0.02-0.26,0.07-0.48,0.16-0.67c0.21-0.44,0.59-0.67,1.12-0.67h0.43c0.25,0.02,0.46,0.08,0.64,0.17
			C20.48,46.39,20.69,46.78,20.69,47.34z M18.98,48.66h0.85v-1.55c-0.02-0.29-0.16-0.44-0.43-0.44h-0.43
			c-0.28,0.02-0.43,0.17-0.43,0.44v1.11C18.56,48.49,18.7,48.64,18.98,48.66z"/>
		<path fill="#FC3535" d="M24.96,47.56c0,0.48-0.23,0.81-0.68,0.99c0.46,0.22,0.68,0.56,0.68,1.01V50
			c-0.02,0.26-0.07,0.48-0.16,0.67c-0.21,0.45-0.59,0.67-1.12,0.67h-0.43c-0.53,0-0.91-0.22-1.12-0.67
			c-0.09-0.18-0.14-0.41-0.16-0.67v-0.44c0-0.45,0.23-0.79,0.68-1.01c-0.46-0.18-0.68-0.51-0.68-0.99v-0.22
			c0-0.56,0.21-0.94,0.64-1.17c0.18-0.09,0.39-0.14,0.64-0.17h0.43c0.25,0.02,0.46,0.08,0.64,0.17c0.43,0.22,0.64,0.61,0.64,1.17
			C24.96,47.34,24.96,47.56,24.96,47.56z M24.1,47.78v-0.66c-0.02-0.29-0.16-0.44-0.43-0.44h-0.43c-0.26,0-0.41,0.15-0.43,0.44v0.66
			c0,0.27,0.14,0.42,0.43,0.44h0.43C23.96,48.2,24.1,48.05,24.1,47.78z M24.1,50.22v-0.89c-0.02-0.3-0.16-0.45-0.43-0.45h-0.43
			c-0.26,0-0.41,0.15-0.43,0.45v0.89c0,0.27,0.14,0.42,0.43,0.45h0.43C23.96,50.65,24.1,50.5,24.1,50.22z"/>
		<path fill="#FC3535" d="M29.23,46.67H27.1V48h0.85c0.53,0,0.91,0.22,1.12,0.67c0.09,0.19,0.14,0.41,0.16,0.67V50
			c-0.02,0.26-0.07,0.48-0.16,0.67c-0.21,0.45-0.59,0.67-1.12,0.67h-0.43c-0.25-0.01-0.46-0.07-0.64-0.17
			c-0.43-0.22-0.64-0.61-0.64-1.17v-0.22h0.85v0.45c0.02,0.3,0.16,0.45,0.43,0.45h0.43c0.28-0.02,0.43-0.17,0.43-0.45v-1.11
			c0-0.27-0.14-0.42-0.43-0.45h-1.71V46h2.99C29.23,46,29.23,46.67,29.23,46.67z"/>
		<path fill="#FC3535" d="M32.43,50.45v0.89h-0.85v-0.89H32.43z"/>
		<path fill="#FC3535" d="M37.76,46v0.67l-0.8,2l0.8,2v0.67h-0.85v-0.67l-0.64-1.78l-0.64,1.78v0.67h-0.85v-0.67l0.8-2l-0.8-2V46
			h0.85v0.67l0.64,1.77l0.64-1.77V46H37.76z"/>
		<path fill="#FC3535" d="M40.54,46c0.41,0,0.76,0.15,1.06,0.46c0.29,0.3,0.44,0.67,0.44,1.1v2.22c0,0.43-0.15,0.8-0.44,1.1
			c-0.29,0.3-0.64,0.46-1.06,0.46s-0.76-0.15-1.06-0.46c-0.29-0.3-0.44-0.67-0.44-1.1v-2.22c0-0.43,0.15-0.8,0.44-1.1
			C39.77,46.15,40.12,46,40.54,46z M41.18,50v-2.67c0-0.18-0.06-0.34-0.19-0.47c-0.12-0.13-0.28-0.19-0.45-0.19
			s-0.33,0.06-0.45,0.19c-0.12,0.13-0.19,0.29-0.19,0.47V50c0,0.18,0.06,0.34,0.19,0.47c0.12,0.13,0.28,0.19,0.45,0.19
			s0.33-0.06,0.45-0.19C41.11,50.34,41.18,50.19,41.18,50z"/>
		<path fill="#FC3535" d="M46.3,48.44V50c0,0.56-0.21,0.95-0.64,1.17c-0.18,0.09-0.39,0.14-0.64,0.17h-0.43
			c-0.53,0-0.91-0.22-1.12-0.67c-0.08-0.18-0.14-0.41-0.16-0.67v-2.67c0-0.56,0.21-0.94,0.64-1.17c0.18-0.09,0.39-0.14,0.64-0.17
			h0.43c0.53,0,0.91,0.22,1.12,0.67c0.08,0.19,0.14,0.41,0.16,0.67v0.22h-0.85V47.1c0-0.27-0.14-0.42-0.43-0.45h-0.43
			c-0.26,0-0.41,0.15-0.43,0.44v3.11c0,0.27,0.14,0.42,0.43,0.44h0.43c0.26,0,0.41-0.15,0.43-0.45v-1.11H44.8v-0.67h1.5V48.44z"/>
	</g>
	<g>
		<path fill="#FC3535" d="M20.69,58.67c0,0.48-0.23,0.81-0.68,0.99c0.46,0.22,0.68,0.56,0.68,1.01v0.44
			c-0.02,0.26-0.07,0.48-0.16,0.67c-0.21,0.44-0.59,0.67-1.12,0.67h-0.43c-0.25-0.01-0.46-0.07-0.64-0.17
			c-0.43-0.22-0.64-0.61-0.64-1.17v-0.22h0.85v0.45c0.02,0.3,0.16,0.45,0.43,0.45h0.43c0.28-0.02,0.43-0.17,0.43-0.45v-0.89
			c-0.02-0.3-0.16-0.45-0.43-0.45h-0.64v-0.67h0.64c0.28-0.02,0.43-0.17,0.43-0.44v-0.66c-0.02-0.29-0.16-0.44-0.43-0.44h-0.43
			c-0.28,0.02-0.43,0.17-0.43,0.45v0.45H17.7v-0.22c0.02-0.26,0.07-0.48,0.16-0.67c0.21-0.45,0.59-0.67,1.12-0.67h0.43
			c0.25,0.02,0.46,0.08,0.64,0.17c0.43,0.22,0.64,0.61,0.64,1.17V58.67z"/>
		<path fill="#FC3535" d="M21.97,61.11v-2.67c0.02-0.26,0.07-0.48,0.16-0.67c0.21-0.44,0.59-0.67,1.12-0.67h1.71v0.67h-1.71
			c-0.26,0-0.41,0.15-0.43,0.44v0.88h0.85c0.53,0,0.91,0.22,1.12,0.67c0.09,0.19,0.14,0.41,0.16,0.67v0.67
			c-0.02,0.26-0.07,0.48-0.16,0.67c-0.21,0.45-0.59,0.67-1.12,0.67h-0.43c-0.25-0.01-0.46-0.07-0.64-0.17
			C22.18,62.05,21.97,61.67,21.97,61.11z M23.68,59.77h-0.85v1.56c0.02,0.3,0.16,0.45,0.43,0.45h0.43c0.28-0.02,0.43-0.17,0.43-0.45
			v-1.11C24.1,59.94,23.96,59.79,23.68,59.77z"/>
		<path fill="#FC3535" d="M29.23,58.44v2.67c-0.02,0.26-0.07,0.48-0.16,0.67c-0.21,0.45-0.59,0.67-1.12,0.67h-1.71v-0.67h1.71
			c0.26,0,0.41-0.15,0.43-0.45v-0.89h-0.85c-0.53,0-0.91-0.22-1.12-0.67c-0.09-0.18-0.14-0.41-0.16-0.67v-0.67
			c0.02-0.26,0.07-0.48,0.16-0.67c0.21-0.44,0.59-0.67,1.12-0.67h0.43c0.25,0.02,0.46,0.08,0.64,0.17
			C29.01,57.5,29.23,57.89,29.23,58.44z M27.52,59.77h0.85v-1.55c-0.02-0.29-0.16-0.44-0.43-0.44h-0.43
			c-0.28,0.02-0.43,0.17-0.43,0.44v1.11C27.09,59.6,27.23,59.75,27.52,59.77z"/>
		<path fill="#FC3535" d="M32.43,61.55v0.89h-0.85v-0.89H32.43z"/>
		<path fill="#FC3535" d="M36.27,57.11c0.41,0,0.76,0.15,1.06,0.46c0.29,0.3,0.44,0.67,0.44,1.1v2.22c0,0.43-0.15,0.8-0.44,1.1
			c-0.29,0.3-0.64,0.46-1.06,0.46s-0.76-0.15-1.06-0.46c-0.29-0.3-0.44-0.67-0.44-1.1v-2.22c0-0.43,0.15-0.8,0.44-1.1
			C35.5,57.26,35.85,57.11,36.27,57.11z M36.91,61.11v-2.67c0-0.18-0.06-0.34-0.19-0.47c-0.12-0.13-0.28-0.19-0.45-0.19
			s-0.33,0.06-0.45,0.19c-0.12,0.13-0.19,0.29-0.19,0.47v2.67c0,0.18,0.06,0.34,0.19,0.47c0.12,0.13,0.28,0.19,0.45,0.19
			s0.33-0.06,0.45-0.19C36.84,61.45,36.91,61.29,36.91,61.11z"/>
		<path fill="#FC3535" d="M40.96,57.11l1.07,4.67v0.67h-0.85v-0.67L41,60.67h-0.92l-0.18,1.11v0.67h-0.85v-0.67l1.07-4.67H40.96z
			 M40.18,59.99h0.7l-0.35-2.23L40.18,59.99z"/>
		<path fill="#FC3535" d="M46.31,60.44v0.67h-0.43v1.34h-0.85v-1.34h-1.92v-0.67l1.92-3.33h0.85v3.33
			C45.88,60.44,46.31,60.44,46.31,60.44z M43.74,60.44h1.29v-2.23L43.74,60.44z"/>
	</g>
</g>
<g id="_x34_">
	<g>
		<path fill="#F9F7F6" d="M17.7,38.89v-2.67c0.02-0.26,0.07-0.48,0.16-0.67c0.21-0.44,0.59-0.67,1.12-0.67h1.71v0.67h-1.71
			c-0.26,0-0.41,0.15-0.43,0.44v0.88h0.85c0.53,0,0.91,0.22,1.12,0.67c0.09,0.19,0.14,0.41,0.16,0.67v0.67
			c-0.02,0.26-0.07,0.48-0.16,0.67c-0.21,0.45-0.59,0.67-1.12,0.67h-0.43c-0.25-0.01-0.46-0.07-0.64-0.17
			C17.92,39.84,17.7,39.45,17.7,38.89z M19.41,37.56h-0.85v1.56c0.02,0.3,0.16,0.45,0.43,0.45h0.43c0.28-0.02,0.43-0.17,0.43-0.45
			V38C19.84,37.73,19.69,37.58,19.41,37.56z"/>
		<path fill="#F9F7F6" d="M21.97,38.89v-2.67c0.02-0.26,0.07-0.48,0.16-0.67c0.21-0.44,0.59-0.67,1.12-0.67h1.71v0.67h-1.71
			c-0.26,0-0.41,0.15-0.43,0.44v0.88h0.85c0.53,0,0.91,0.22,1.12,0.67c0.09,0.19,0.14,0.41,0.16,0.67v0.67
			c-0.02,0.26-0.07,0.48-0.16,0.67c-0.21,0.45-0.59,0.67-1.12,0.67h-0.43c-0.25-0.01-0.46-0.07-0.64-0.17
			C22.18,39.84,21.97,39.45,21.97,38.89z M23.68,37.56h-0.85v1.56c0.02,0.3,0.16,0.45,0.43,0.45h0.43c0.28-0.02,0.43-0.17,0.43-0.45
			V38C24.1,37.73,23.96,37.58,23.68,37.56z"/>
		<path fill="#F9F7F6" d="M29.23,36.45c0,0.48-0.23,0.81-0.68,0.99c0.46,0.22,0.68,0.56,0.68,1.01v0.44
			c-0.02,0.26-0.07,0.48-0.16,0.67c-0.21,0.44-0.59,0.67-1.12,0.67h-0.43c-0.25-0.01-0.46-0.07-0.64-0.17
			c-0.43-0.22-0.64-0.61-0.64-1.17v-0.22h0.85v0.45c0.02,0.3,0.16,0.45,0.43,0.45h0.43c0.28-0.02,0.43-0.17,0.43-0.45v-0.89
			c-0.02-0.3-0.16-0.45-0.43-0.45H27.3v-0.67h0.64c0.28-0.02,0.43-0.17,0.43-0.44V36c-0.02-0.29-0.16-0.44-0.43-0.44h-0.43
			c-0.28,0.02-0.43,0.17-0.43,0.45v0.45h-0.85v-0.22c0.02-0.26,0.07-0.48,0.16-0.67c0.21-0.45,0.59-0.67,1.12-0.67h0.43
			c0.25,0.02,0.46,0.08,0.64,0.17c0.43,0.22,0.64,0.61,0.64,1.17v0.21H29.23z"/>
		<path fill="#F9F7F6" d="M32.43,39.34v0.89h-0.85v-0.89H32.43z"/>
		<path fill="#F9F7F6" d="M34.77,38.89v-2.67c0.02-0.26,0.07-0.48,0.16-0.67c0.21-0.44,0.59-0.67,1.12-0.67h1.71v0.67h-1.71
			c-0.26,0-0.41,0.15-0.43,0.44v0.88h0.85c0.53,0,0.91,0.22,1.12,0.67c0.08,0.19,0.14,0.41,0.16,0.67v0.67
			c-0.02,0.26-0.08,0.48-0.16,0.67C37.38,40,37,40.22,36.47,40.22h-0.43c-0.25-0.01-0.46-0.07-0.64-0.17
			C34.99,39.84,34.77,39.45,34.77,38.89z M36.48,37.56h-0.85v1.56c0.02,0.3,0.16,0.45,0.43,0.45h0.43c0.28-0.02,0.43-0.17,0.43-0.45
			V38C36.91,37.73,36.76,37.58,36.48,37.56z"/>
		<path fill="#F9F7F6" d="M39.04,34.89h2.99v0.67l-1.28,4v0.67H39.9v-0.67l1.28-4l-2.14,0.01V34.89z"/>
		<path fill="#F9F7F6" d="M46.3,36.45c0,0.48-0.23,0.81-0.68,0.99c0.46,0.22,0.68,0.56,0.68,1.01v0.44
			c-0.02,0.26-0.08,0.48-0.16,0.67c-0.21,0.45-0.59,0.67-1.12,0.67h-0.43c-0.53,0-0.91-0.22-1.12-0.67
			c-0.08-0.18-0.14-0.41-0.16-0.67v-0.44c0-0.45,0.23-0.79,0.68-1.01c-0.46-0.18-0.68-0.51-0.68-0.99v-0.22
			c0-0.56,0.21-0.94,0.64-1.17c0.18-0.09,0.39-0.14,0.64-0.17h0.43c0.25,0.02,0.46,0.08,0.64,0.17c0.43,0.22,0.64,0.61,0.64,1.17
			V36.45z M45.44,36.67V36c-0.02-0.29-0.16-0.44-0.43-0.44h-0.43c-0.26,0-0.41,0.15-0.43,0.44v0.66c0,0.27,0.14,0.42,0.43,0.44h0.43
			C45.3,37.09,45.44,36.94,45.44,36.67z M45.44,39.11v-0.89c-0.02-0.3-0.16-0.45-0.43-0.45h-0.43c-0.26,0-0.41,0.15-0.43,0.45v0.89
			c0,0.27,0.14,0.42,0.43,0.45h0.43C45.3,39.54,45.44,39.39,45.44,39.11z"/>
	</g>
	<g>
		<path fill="#F9F7F6" d="M20.7,16.01v0.67h-0.43v1.34h-0.85v-1.34H17.5v-0.67l1.92-3.33h0.85v3.33H20.7z M18.13,16.01h1.29v-2.23
			L18.13,16.01z"/>
		<path fill="#F9F7F6" d="M23.46,12.68c0.41,0,0.76,0.15,1.06,0.46c0.29,0.3,0.44,0.67,0.44,1.1v2.22c0,0.43-0.15,0.8-0.44,1.1
			c-0.29,0.3-0.64,0.46-1.06,0.46s-0.76-0.15-1.06-0.46c-0.29-0.3-0.44-0.67-0.44-1.1v-2.22c0-0.43,0.15-0.8,0.44-1.1
			C22.7,12.83,23.05,12.68,23.46,12.68z M24.1,16.68v-2.67c0-0.19-0.06-0.34-0.19-0.47s-0.28-0.19-0.45-0.19s-0.33,0.06-0.45,0.19
			c-0.12,0.13-0.19,0.29-0.19,0.47v2.67c0,0.19,0.06,0.34,0.19,0.47c0.12,0.13,0.28,0.19,0.45,0.19s0.33-0.06,0.45-0.19
			S24.1,16.86,24.1,16.68z"/>
		<path fill="#F9F7F6" d="M27.73,12.68c0.41,0,0.76,0.15,1.06,0.46c0.29,0.3,0.44,0.67,0.44,1.1v2.22c0,0.43-0.15,0.8-0.44,1.1
			c-0.29,0.3-0.64,0.46-1.06,0.46s-0.76-0.15-1.06-0.46c-0.29-0.3-0.44-0.67-0.44-1.1v-2.22c0-0.43,0.15-0.8,0.44-1.1
			C26.97,12.83,27.32,12.68,27.73,12.68z M28.37,16.68v-2.67c0-0.19-0.06-0.34-0.19-0.47s-0.28-0.19-0.45-0.19s-0.33,0.06-0.45,0.19
			c-0.12,0.13-0.19,0.29-0.19,0.47v2.67c0,0.19,0.06,0.34,0.19,0.47c0.12,0.13,0.28,0.19,0.45,0.19s0.33-0.06,0.45-0.19
			S28.37,16.86,28.37,16.68z"/>
		<path fill="#F9F7F6" d="M32.43,17.12v0.89h-0.85v-0.89H32.43z"/>
		<path fill="#F9F7F6" d="M34.77,14.02c0-0.56,0.21-0.95,0.64-1.17c0.18-0.09,0.39-0.15,0.64-0.17h0.43c0.53,0,0.91,0.22,1.12,0.67
			c0.08,0.19,0.14,0.41,0.16,0.67v0.22h-0.85v-0.45c0-0.27-0.14-0.42-0.43-0.45h-0.43c-0.26,0-0.41,0.15-0.43,0.44v0.66
			c0,0.27,0.14,0.42,0.43,0.44h0.43c0.53,0,0.91,0.22,1.12,0.67c0.08,0.19,0.14,0.41,0.16,0.67v0.45c-0.02,0.26-0.08,0.48-0.16,0.67
			c-0.21,0.45-0.59,0.67-1.12,0.67h-0.43c-0.25-0.01-0.46-0.07-0.64-0.17c-0.43-0.22-0.64-0.61-0.64-1.17v-0.22h0.85v0.45
			c0.02,0.3,0.16,0.45,0.43,0.45h0.43c0.28-0.02,0.43-0.17,0.43-0.45v-0.89c0-0.27-0.14-0.42-0.43-0.45h-0.43
			c-0.53,0-0.91-0.22-1.12-0.66c-0.08-0.18-0.14-0.4-0.16-0.66V14.02z"/>
		<path fill="#F9F7F6" d="M42.03,14.02v0.22h-0.85v-0.45c0-0.27-0.14-0.42-0.43-0.45h-0.43c-0.26,0-0.41,0.15-0.43,0.44v3.11
			c0,0.27,0.14,0.42,0.43,0.44h0.43c0.26,0,0.41-0.15,0.43-0.45v-0.45h0.85v0.22c0,0.56-0.21,0.95-0.64,1.17
			c-0.18,0.1-0.39,0.15-0.64,0.17h-0.43c-0.53,0-0.91-0.22-1.12-0.67c-0.08-0.19-0.14-0.41-0.16-0.67v-2.67
			c0-0.56,0.21-0.94,0.64-1.17c0.18-0.09,0.39-0.14,0.64-0.17h0.43c0.53,0,0.91,0.22,1.12,0.67C41.95,13.53,42.01,13.76,42.03,14.02
			z"/>
		<path fill="#F9F7F6" d="M45.02,12.68c0.53,0,0.91,0.22,1.12,0.67c0.08,0.19,0.14,0.41,0.16,0.67v0.67c0,0.55-0.21,0.94-0.64,1.17
			c-0.18,0.1-0.39,0.15-0.64,0.17h-0.85v2h-0.85V12.7h1.7C45.02,12.7,45.02,12.68,45.02,12.68z M45.44,14.9v-1.11
			c0-0.27-0.14-0.42-0.43-0.44h-0.85v1.99h0.85C45.28,15.34,45.42,15.19,45.44,14.9z"/>
	</g>
	<g>
		<path fill="#F9F7F6" d="M17.7,6.9V5.35c0.02-0.26,0.07-0.48,0.16-0.67c0.21-0.45,0.59-0.67,1.12-0.67h0.43
			c0.28-0.02,0.43-0.17,0.43-0.44V2.68c-0.02-0.29-0.16-0.44-0.43-0.44h-0.43c-0.28,0.02-0.43,0.17-0.43,0.45v0.45H17.7V2.91
			c0.02-0.26,0.07-0.48,0.16-0.67c0.21-0.45,0.59-0.67,1.12-0.67h0.43c0.25,0.02,0.46,0.08,0.64,0.17c0.43,0.22,0.64,0.61,0.64,1.16
			v0.44c-0.02,0.26-0.07,0.48-0.16,0.67c-0.21,0.44-0.59,0.67-1.12,0.67h-0.43c-0.28,0.02-0.43,0.17-0.43,0.45v1.11h2.13V6.9H17.7z"
			/>
		<path fill="#F9F7F6" d="M24.96,2.9v2.67c-0.02,0.26-0.07,0.48-0.16,0.67c-0.21,0.44-0.59,0.67-1.12,0.67h-1.71V6.24h1.71
			c0.26,0,0.41-0.15,0.43-0.45V4.9h-0.85c-0.53,0-0.91-0.22-1.12-0.67C22.05,4.04,22,3.82,21.98,3.56V2.9
			c0.02-0.26,0.07-0.48,0.16-0.67c0.21-0.44,0.59-0.67,1.12-0.67h0.43c0.25,0.02,0.46,0.08,0.64,0.17
			C24.74,1.96,24.96,2.35,24.96,2.9z M23.25,4.23h0.85V2.68c-0.02-0.3-0.16-0.44-0.43-0.44h-0.43c-0.28,0.02-0.43,0.17-0.43,0.44
			v1.11C22.82,4.06,22.97,4.21,23.25,4.23z"/>
		<path fill="#F9F7F6" d="M26.24,6.9V5.35c0.02-0.26,0.07-0.48,0.16-0.67c0.21-0.45,0.59-0.67,1.12-0.67h0.43
			c0.28-0.02,0.43-0.17,0.43-0.44V2.68c-0.02-0.29-0.16-0.44-0.43-0.44h-0.43c-0.28,0.02-0.43,0.17-0.43,0.45v0.45h-0.85V2.91
			c0.02-0.26,0.07-0.48,0.16-0.67c0.21-0.45,0.59-0.67,1.12-0.67h0.43c0.25,0.02,0.46,0.08,0.64,0.17c0.43,0.22,0.64,0.61,0.64,1.16
			v0.44c-0.02,0.26-0.07,0.48-0.16,0.67c-0.21,0.44-0.59,0.67-1.12,0.67h-0.43c-0.28,0.02-0.43,0.17-0.43,0.45v1.11h2.13V6.9H26.24z
			"/>
		<path fill="#F9F7F6" d="M32.43,6.01V6.9h-0.85V6.01H32.43z"/>
		<path fill="#F9F7F6" d="M37.76,3.13c0,0.48-0.23,0.81-0.68,0.99c0.46,0.22,0.68,0.56,0.68,1.01v0.44
			c-0.02,0.26-0.08,0.48-0.16,0.67c-0.21,0.44-0.59,0.67-1.12,0.67h-0.43c-0.25-0.01-0.46-0.07-0.64-0.17
			c-0.43-0.22-0.64-0.61-0.64-1.17V5.35h0.85V5.8c0.02,0.3,0.16,0.45,0.43,0.45h0.43c0.28-0.02,0.43-0.17,0.43-0.45V4.9
			c-0.02-0.3-0.16-0.45-0.43-0.45h-0.64V3.79h0.64c0.28-0.02,0.43-0.17,0.43-0.44V2.68c-0.02-0.29-0.16-0.44-0.43-0.44h-0.43
			c-0.29,0.02-0.43,0.17-0.43,0.45v0.45h-0.85V2.91c0.02-0.26,0.07-0.48,0.16-0.67c0.21-0.45,0.59-0.67,1.12-0.67h0.43
			c0.25,0.02,0.46,0.08,0.64,0.17c0.43,0.22,0.64,0.61,0.64,1.17V3.13z"/>
		<path fill="#F9F7F6" d="M42.03,2.24H39.9v1.32h0.85c0.53,0,0.91,0.22,1.12,0.67c0.08,0.19,0.14,0.41,0.16,0.67v0.67
			c-0.02,0.26-0.08,0.48-0.16,0.67c-0.21,0.45-0.59,0.67-1.12,0.67h-0.43c-0.25-0.01-0.46-0.07-0.64-0.17
			c-0.43-0.22-0.64-0.61-0.64-1.17V5.35h0.85V5.8c0.02,0.3,0.16,0.45,0.43,0.45h0.43c0.28-0.02,0.43-0.17,0.43-0.45V4.68
			c0-0.27-0.14-0.42-0.43-0.45h-1.71V1.57h2.99C42.03,1.57,42.03,2.24,42.03,2.24z"/>
		<path fill="#F9F7F6" d="M46.3,4.01v1.56c0,0.56-0.21,0.95-0.64,1.17c-0.18,0.09-0.39,0.14-0.64,0.17h-0.43
			c-0.53,0-0.91-0.22-1.12-0.67c-0.08-0.19-0.14-0.41-0.16-0.67V2.9c0-0.56,0.21-0.94,0.64-1.17c0.18-0.09,0.39-0.14,0.64-0.17h0.43
			c0.53,0,0.91,0.22,1.12,0.67c0.08,0.19,0.14,0.41,0.16,0.67v0.22h-0.85V2.68c0-0.27-0.14-0.42-0.43-0.45h-0.43
			c-0.26,0-0.41,0.15-0.43,0.44v3.11c0,0.27,0.14,0.42,0.43,0.44h0.43c0.26,0,0.41-0.15,0.43-0.45V4.68H44.8V4.01H46.3z"/>
	</g>
	<g>
		<path fill="#FC3535" d="M17.7,51.34v-1.56c0.02-0.26,0.07-0.48,0.16-0.67c0.21-0.45,0.59-0.67,1.12-0.67h0.43
			c0.28-0.02,0.43-0.17,0.43-0.44v-0.89c-0.02-0.29-0.16-0.44-0.43-0.44h-0.43c-0.28,0.02-0.43,0.17-0.43,0.45v0.45H17.7v-0.22
			c0.02-0.26,0.07-0.48,0.16-0.67c0.21-0.45,0.59-0.67,1.12-0.67h0.43c0.25,0.02,0.46,0.08,0.64,0.17c0.43,0.22,0.64,0.61,0.64,1.17
			v0.44c-0.02,0.26-0.07,0.48-0.16,0.67c-0.21,0.44-0.59,0.67-1.12,0.67h-0.43c-0.28,0.02-0.43,0.17-0.43,0.45v1.11h2.13v0.67H17.7
			V51.34z"/>
		<path fill="#FC3535" d="M24.96,47.56c0,0.48-0.23,0.81-0.68,0.99c0.46,0.22,0.68,0.56,0.68,1.01V50
			c-0.02,0.26-0.07,0.48-0.16,0.67c-0.21,0.45-0.59,0.67-1.12,0.67h-0.43c-0.53,0-0.91-0.22-1.12-0.67
			c-0.09-0.18-0.14-0.41-0.16-0.67v-0.44c0-0.45,0.23-0.79,0.68-1.01c-0.46-0.18-0.68-0.51-0.68-0.99v-0.22
			c0-0.56,0.21-0.94,0.64-1.17c0.18-0.09,0.39-0.14,0.64-0.17h0.43c0.25,0.02,0.46,0.08,0.64,0.17c0.43,0.22,0.64,0.61,0.64,1.17
			C24.96,47.34,24.96,47.56,24.96,47.56z M24.1,47.78v-0.66c-0.02-0.29-0.16-0.44-0.43-0.44h-0.43c-0.26,0-0.41,0.15-0.43,0.44v0.66
			c0,0.27,0.14,0.42,0.43,0.44h0.43C23.96,48.2,24.1,48.05,24.1,47.78z M24.1,50.22v-0.89c-0.02-0.3-0.16-0.45-0.43-0.45h-0.43
			c-0.26,0-0.41,0.15-0.43,0.45v0.89c0,0.27,0.14,0.42,0.43,0.45h0.43C23.96,50.65,24.1,50.5,24.1,50.22z"/>
		<path fill="#FC3535" d="M29.23,46.67H27.1V48h0.85c0.53,0,0.91,0.22,1.12,0.67c0.09,0.19,0.14,0.41,0.16,0.67V50
			c-0.02,0.26-0.07,0.48-0.16,0.67c-0.21,0.45-0.59,0.67-1.12,0.67h-0.43c-0.25-0.01-0.46-0.07-0.64-0.17
			c-0.43-0.22-0.64-0.61-0.64-1.17v-0.22h0.85v0.45c0.02,0.3,0.16,0.45,0.43,0.45h0.43c0.28-0.02,0.43-0.17,0.43-0.45v-1.11
			c0-0.27-0.14-0.42-0.43-0.45h-1.71V46h2.99C29.23,46,29.23,46.67,29.23,46.67z"/>
		<path fill="#FC3535" d="M32.43,50.45v0.89h-0.85v-0.89H32.43z"/>
		<path fill="#FC3535" d="M37.55,46.67h-1.71v1.55h1.49v0.67h-1.49v2.45h-0.85V46h2.56C37.55,46,37.55,46.67,37.55,46.67z"/>
		<path fill="#FC3535" d="M41.82,46.67h-1.71v1.55h1.49v0.67h-1.49v2.45h-0.85V46h2.56C41.82,46,41.82,46.67,41.82,46.67z"/>
		<path fill="#FC3535" d="M46.3,48.44V50c0,0.56-0.21,0.95-0.64,1.17c-0.18,0.09-0.39,0.14-0.64,0.17h-0.43
			c-0.53,0-0.91-0.22-1.12-0.67c-0.08-0.18-0.14-0.41-0.16-0.67v-2.67c0-0.56,0.21-0.94,0.64-1.17c0.18-0.09,0.39-0.14,0.64-0.17
			h0.43c0.53,0,0.91,0.22,1.12,0.67c0.08,0.19,0.14,0.41,0.16,0.67v0.22h-0.85V47.1c0-0.27-0.14-0.42-0.43-0.45h-0.43
			c-0.26,0-0.41,0.15-0.43,0.44v3.11c0,0.27,0.14,0.42,0.43,0.44h0.43c0.26,0,0.41-0.15,0.43-0.45v-1.11H44.8v-0.67h1.5V48.44z"/>
	</g>
	<g>
		<path fill="#FC3535" d="M19.62,61.78h0.85v0.67h-2.56v-0.67h0.85v-3.79h-0.85v-0.66l1.71-0.22
			C19.62,57.11,19.62,61.78,19.62,61.78z"/>
		<path fill="#FC3535" d="M23.46,57.11c0.41,0,0.76,0.15,1.06,0.46c0.29,0.3,0.44,0.67,0.44,1.1v2.22c0,0.43-0.15,0.8-0.44,1.1
			s-0.64,0.46-1.06,0.46s-0.76-0.15-1.06-0.46c-0.29-0.3-0.44-0.67-0.44-1.1v-2.22c0-0.43,0.15-0.8,0.44-1.1
			C22.7,57.26,23.05,57.11,23.46,57.11z M24.1,61.11v-2.67c0-0.18-0.06-0.34-0.19-0.47s-0.28-0.19-0.45-0.19s-0.33,0.06-0.45,0.19
			c-0.12,0.13-0.19,0.29-0.19,0.47v2.67c0,0.18,0.06,0.34,0.19,0.47c0.12,0.13,0.28,0.19,0.45,0.19s0.33-0.06,0.45-0.19
			S24.1,61.29,24.1,61.11z"/>
		<path fill="#FC3535" d="M29.23,58.44v2.67c-0.02,0.26-0.07,0.48-0.16,0.67c-0.21,0.45-0.59,0.67-1.12,0.67h-1.71v-0.67h1.71
			c0.26,0,0.41-0.15,0.43-0.45v-0.89h-0.85c-0.53,0-0.91-0.22-1.12-0.67c-0.09-0.18-0.14-0.41-0.16-0.67v-0.67
			c0.02-0.26,0.07-0.48,0.16-0.67c0.21-0.44,0.59-0.67,1.12-0.67h0.43c0.25,0.02,0.46,0.08,0.64,0.17
			C29.01,57.5,29.23,57.89,29.23,58.44z M27.52,59.77h0.85v-1.55c-0.02-0.29-0.16-0.44-0.43-0.44h-0.43
			c-0.28,0.02-0.43,0.17-0.43,0.44v1.11C27.09,59.6,27.23,59.75,27.52,59.77z"/>
		<path fill="#FC3535" d="M32.43,61.55v0.89h-0.85v-0.89H32.43z"/>
		<path fill="#FC3535" d="M36.05,61.78h1.71v0.67H35.2v-5.33h0.85V61.78z"/>
		<path fill="#FC3535" d="M42.03,57.11v0.67l-0.8,2l0.8,2v0.67h-0.85v-0.67L40.54,60l-0.64,1.78v0.67h-0.85v-0.67l0.8-2l-0.8-2
			v-0.67h0.85v0.67l0.64,1.77l0.64-1.77v-0.67H42.03z"/>
		<path fill="#FC3535" d="M45.44,57.11h0.85v4c0,0.56-0.21,0.94-0.64,1.17c-0.18,0.09-0.39,0.14-0.64,0.17h-0.43
			c-0.53,0-0.91-0.22-1.12-0.67c-0.08-0.18-0.14-0.41-0.16-0.67v-4h0.85v4.22c0,0.27,0.14,0.42,0.43,0.44h0.43
			c0.26,0,0.41-0.15,0.43-0.44V57.11z"/>
	</g>
</g>
<g id="_x35_">
	<g>
		<path fill="#F9F7F6" d="M17.7,38.89v-2.67c0.02-0.26,0.07-0.48,0.16-0.67c0.21-0.44,0.59-0.67,1.12-0.67h1.71v0.67h-1.71
			c-0.26,0-0.41,0.15-0.43,0.44v0.88h0.85c0.53,0,0.91,0.22,1.12,0.67c0.09,0.19,0.14,0.41,0.16,0.67v0.67
			c-0.02,0.26-0.07,0.48-0.16,0.67c-0.21,0.45-0.59,0.67-1.12,0.67h-0.43c-0.25-0.01-0.46-0.07-0.64-0.17
			C17.92,39.84,17.7,39.45,17.7,38.89z M19.41,37.56h-0.85v1.56c0.02,0.3,0.16,0.45,0.43,0.45h0.43c0.28-0.02,0.43-0.17,0.43-0.45
			V38C19.84,37.73,19.69,37.58,19.41,37.56z"/>
		<path fill="#F9F7F6" d="M24.96,35.56h-2.13v1.33h0.85c0.53,0,0.91,0.22,1.12,0.67c0.09,0.19,0.14,0.41,0.16,0.67v0.67
			c-0.02,0.26-0.07,0.48-0.16,0.67c-0.21,0.45-0.59,0.67-1.12,0.67h-0.43c-0.25-0.01-0.46-0.07-0.64-0.17
			c-0.43-0.22-0.64-0.61-0.64-1.17v-0.22h0.85v0.45c0.02,0.3,0.16,0.45,0.43,0.45h0.43c0.28-0.02,0.43-0.17,0.43-0.45V38
			c0-0.27-0.14-0.42-0.43-0.45h-1.71v-2.66h2.99C24.96,34.89,24.96,35.56,24.96,35.56z"/>
		<path fill="#F9F7F6" d="M29.23,36.45c0,0.48-0.23,0.81-0.68,0.99c0.46,0.22,0.68,0.56,0.68,1.01v0.44
			c-0.02,0.26-0.07,0.48-0.16,0.67c-0.21,0.44-0.59,0.67-1.12,0.67h-0.43c-0.25-0.01-0.46-0.07-0.64-0.17
			c-0.43-0.22-0.64-0.61-0.64-1.17v-0.22h0.85v0.45c0.02,0.3,0.16,0.45,0.43,0.45h0.43c0.28-0.02,0.43-0.17,0.43-0.45v-0.89
			c-0.02-0.3-0.16-0.45-0.43-0.45H27.3v-0.67h0.64c0.28-0.02,0.43-0.17,0.43-0.44V36c-0.02-0.29-0.16-0.44-0.43-0.44h-0.43
			c-0.28,0.02-0.43,0.17-0.43,0.45v0.45h-0.85v-0.22c0.02-0.26,0.07-0.48,0.16-0.67c0.21-0.45,0.59-0.67,1.12-0.67h0.43
			c0.25,0.02,0.46,0.08,0.64,0.17c0.43,0.22,0.64,0.61,0.64,1.17v0.21H29.23z"/>
		<path fill="#F9F7F6" d="M32.43,39.34v0.89h-0.85v-0.89H32.43z"/>
		<path fill="#F9F7F6" d="M34.77,38.89v-2.67c0.02-0.26,0.07-0.48,0.16-0.67c0.21-0.44,0.59-0.67,1.12-0.67h1.71v0.67h-1.71
			c-0.26,0-0.41,0.15-0.43,0.44v0.88h0.85c0.53,0,0.91,0.22,1.12,0.67c0.08,0.19,0.14,0.41,0.16,0.67v0.67
			c-0.02,0.26-0.08,0.48-0.16,0.67C37.38,40,37,40.22,36.47,40.22h-0.43c-0.25-0.01-0.46-0.07-0.64-0.17
			C34.99,39.84,34.77,39.45,34.77,38.89z M36.48,37.56h-0.85v1.56c0.02,0.3,0.16,0.45,0.43,0.45h0.43c0.28-0.02,0.43-0.17,0.43-0.45
			V38C36.91,37.73,36.76,37.58,36.48,37.56z"/>
		<path fill="#F9F7F6" d="M42.03,36.23v2.67c-0.02,0.26-0.08,0.48-0.16,0.67c-0.21,0.45-0.59,0.67-1.12,0.67h-1.71v-0.67h1.71
			c0.26,0,0.41-0.15,0.43-0.45v-0.89h-0.85c-0.53,0-0.91-0.22-1.12-0.67c-0.08-0.18-0.14-0.41-0.16-0.67v-0.67
			c0.02-0.26,0.07-0.48,0.16-0.67c0.21-0.44,0.59-0.67,1.12-0.67h0.43c0.25,0.02,0.46,0.08,0.64,0.17
			C41.82,35.28,42.03,35.67,42.03,36.23z M40.32,37.56h0.85V36c-0.02-0.29-0.16-0.44-0.43-0.44h-0.43
			c-0.29,0.02-0.43,0.17-0.43,0.44v1.11C39.9,37.39,40.04,37.53,40.32,37.56z"/>
		<path fill="#F9F7F6" d="M46.3,36.45c0,0.48-0.23,0.81-0.68,0.99c0.46,0.22,0.68,0.56,0.68,1.01v0.44
			c-0.02,0.26-0.08,0.48-0.16,0.67c-0.21,0.45-0.59,0.67-1.12,0.67h-0.43c-0.53,0-0.91-0.22-1.12-0.67
			c-0.08-0.18-0.14-0.41-0.16-0.67v-0.44c0-0.45,0.23-0.79,0.68-1.01c-0.46-0.18-0.68-0.51-0.68-0.99v-0.22
			c0-0.56,0.21-0.94,0.64-1.17c0.18-0.09,0.39-0.14,0.64-0.17h0.43c0.25,0.02,0.46,0.08,0.64,0.17c0.43,0.22,0.64,0.61,0.64,1.17
			V36.45z M45.44,36.67V36c-0.02-0.29-0.16-0.44-0.43-0.44h-0.43c-0.26,0-0.41,0.15-0.43,0.44v0.66c0,0.27,0.14,0.42,0.43,0.44h0.43
			C45.3,37.09,45.44,36.94,45.44,36.67z M45.44,39.11v-0.89c-0.02-0.3-0.16-0.45-0.43-0.45h-0.43c-0.26,0-0.41,0.15-0.43,0.45v0.89
			c0,0.27,0.14,0.42,0.43,0.45h0.43C45.3,39.54,45.44,39.39,45.44,39.11z"/>
	</g>
	<g>
		<path fill="#F9F7F6" d="M20.7,16.01v0.67h-0.43v1.34h-0.85v-1.34H17.5v-0.67l1.92-3.33h0.85v3.33H20.7z M18.13,16.01h1.29v-2.23
			L18.13,16.01z"/>
		<path fill="#F9F7F6" d="M24.96,13.35h-2.13v1.32h0.85c0.53,0,0.91,0.22,1.12,0.67c0.09,0.19,0.14,0.41,0.16,0.67v0.67
			c-0.02,0.26-0.07,0.48-0.16,0.67c-0.21,0.45-0.59,0.67-1.12,0.67h-0.43C23,18,22.79,17.94,22.61,17.85
			c-0.43-0.22-0.64-0.61-0.64-1.17v-0.22h0.85v0.45c0.02,0.3,0.16,0.45,0.43,0.45h0.43c0.28-0.02,0.43-0.17,0.43-0.45V15.8
			c0-0.27-0.14-0.42-0.43-0.45h-1.71v-2.66h2.99C24.96,12.69,24.96,13.35,24.96,13.35z"/>
		<path fill="#F9F7F6" d="M29.24,16.01v0.67h-0.43v1.34h-0.85v-1.34h-1.92v-0.67l1.92-3.33h0.85v3.33H29.24z M26.67,16.01h1.29
			v-2.23L26.67,16.01z"/>
		<path fill="#F9F7F6" d="M32.43,17.12v0.89h-0.85v-0.89H32.43z"/>
		<path fill="#F9F7F6" d="M37.76,12.68v0.67l-0.8,2l0.8,2v0.67h-0.85v-0.67l-0.64-1.78l-0.64,1.78v0.67h-0.85v-0.67l0.8-2l-0.8-2
			v-0.67h0.85v0.67l0.64,1.77l0.64-1.77v-0.67H37.76z"/>
		<path fill="#F9F7F6" d="M41.82,13.35h-1.71v1.55h1.49v0.67h-1.49v1.78h1.71v0.67h-2.56v-5.33h2.56V13.35z"/>
		<path fill="#F9F7F6" d="M46.3,14.23c0,0.68-0.32,1.11-0.96,1.3l0.96,1.81v0.67h-0.85v-0.67l-0.93-1.78h-0.35v2.45h-0.85v-5.33
			h1.71c0.53,0,0.91,0.22,1.12,0.67c0.08,0.19,0.14,0.41,0.16,0.67v0.21C46.31,14.23,46.3,14.23,46.3,14.23z M45.44,14.45v-0.66
			c0-0.27-0.14-0.42-0.43-0.44h-0.85v1.55h0.85C45.28,14.9,45.42,14.75,45.44,14.45z"/>
	</g>
	<g>
		<path fill="#F9F7F6" d="M17.7,6.9V5.35c0.02-0.26,0.07-0.48,0.16-0.67c0.21-0.45,0.59-0.67,1.12-0.67h0.43
			c0.28-0.02,0.43-0.17,0.43-0.44V2.68c-0.02-0.29-0.16-0.44-0.43-0.44h-0.43c-0.28,0.02-0.43,0.17-0.43,0.45v0.45H17.7V2.91
			c0.02-0.26,0.07-0.48,0.16-0.67c0.21-0.45,0.59-0.67,1.12-0.67h0.43c0.25,0.02,0.46,0.08,0.64,0.17c0.43,0.22,0.64,0.61,0.64,1.16
			v0.44c-0.02,0.26-0.07,0.48-0.16,0.67c-0.21,0.44-0.59,0.67-1.12,0.67h-0.43c-0.28,0.02-0.43,0.17-0.43,0.45v1.11h2.13V6.9H17.7z"
			/>
		<path fill="#F9F7F6" d="M24.96,3.13c0,0.48-0.23,0.81-0.68,0.99c0.46,0.22,0.68,0.56,0.68,1.01v0.44
			c-0.02,0.26-0.07,0.48-0.16,0.67c-0.21,0.44-0.59,0.67-1.12,0.67h-0.43C23,6.89,22.79,6.83,22.61,6.74
			c-0.43-0.22-0.64-0.61-0.64-1.17V5.35h0.85V5.8c0.02,0.3,0.16,0.45,0.43,0.45h0.43c0.28-0.02,0.43-0.17,0.43-0.45V4.9
			c-0.02-0.3-0.16-0.45-0.43-0.45h-0.64V3.79h0.64c0.28-0.02,0.43-0.17,0.43-0.44V2.68c-0.02-0.29-0.16-0.44-0.43-0.44h-0.43
			c-0.28,0.02-0.43,0.17-0.43,0.45v0.45h-0.85V2.91c0.02-0.26,0.07-0.48,0.16-0.67c0.21-0.45,0.59-0.67,1.12-0.67h0.43
			c0.25,0.02,0.46,0.08,0.64,0.17c0.43,0.22,0.64,0.61,0.64,1.17C24.96,2.91,24.96,3.13,24.96,3.13z"/>
		<path fill="#F9F7F6" d="M29.23,3.13c0,0.48-0.23,0.81-0.68,0.99c0.46,0.22,0.68,0.56,0.68,1.01v0.44
			c-0.02,0.26-0.07,0.48-0.16,0.67c-0.21,0.44-0.59,0.67-1.12,0.67h-0.43c-0.53,0-0.91-0.22-1.12-0.67
			c-0.09-0.19-0.14-0.41-0.16-0.67V5.13c0-0.45,0.23-0.79,0.68-1.01c-0.46-0.18-0.68-0.51-0.68-0.99V2.9c0-0.56,0.21-0.94,0.64-1.17
			c0.18-0.09,0.39-0.14,0.64-0.17h0.43c0.25,0.02,0.46,0.08,0.64,0.17c0.43,0.22,0.64,0.61,0.64,1.17
			C29.23,2.9,29.23,3.13,29.23,3.13z M28.37,3.34V2.68c-0.02-0.29-0.16-0.44-0.43-0.44h-0.43c-0.26,0-0.41,0.15-0.43,0.44v0.66
			c0,0.27,0.14,0.42,0.43,0.44h0.43C28.23,3.76,28.37,3.62,28.37,3.34z M28.37,5.79V4.9c-0.02-0.3-0.16-0.45-0.43-0.45h-0.43
			c-0.26,0-0.41,0.15-0.43,0.45v0.89c0,0.27,0.14,0.42,0.43,0.45h0.43C28.23,6.21,28.37,6.07,28.37,5.79z"/>
		<path fill="#F9F7F6" d="M32.43,6.01V6.9h-0.85V6.01H32.43z"/>
		<path fill="#F9F7F6" d="M37.77,4.9v0.67h-0.43V6.9h-0.85V5.57h-1.92V4.9l1.92-3.33h0.85V4.9H37.77z M35.21,4.9h1.29V2.67
			L35.21,4.9z"/>
		<path fill="#F9F7F6" d="M42.03,2.24H39.9v1.32h0.85c0.53,0,0.91,0.22,1.12,0.67c0.08,0.19,0.14,0.41,0.16,0.67v0.67
			c-0.02,0.26-0.08,0.48-0.16,0.67c-0.21,0.45-0.59,0.67-1.12,0.67h-0.43c-0.25-0.01-0.46-0.07-0.64-0.17
			c-0.43-0.22-0.64-0.61-0.64-1.17V5.35h0.85V5.8c0.02,0.3,0.16,0.45,0.43,0.45h0.43c0.28-0.02,0.43-0.17,0.43-0.45V4.68
			c0-0.27-0.14-0.42-0.43-0.45h-1.71V1.57h2.99C42.03,1.57,42.03,2.24,42.03,2.24z"/>
		<path fill="#F9F7F6" d="M46.3,4.01v1.56c0,0.56-0.21,0.95-0.64,1.17c-0.18,0.09-0.39,0.14-0.64,0.17h-0.43
			c-0.53,0-0.91-0.22-1.12-0.67c-0.08-0.19-0.14-0.41-0.16-0.67V2.9c0-0.56,0.21-0.94,0.64-1.17c0.18-0.09,0.39-0.14,0.64-0.17h0.43
			c0.53,0,0.91,0.22,1.12,0.67c0.08,0.19,0.14,0.41,0.16,0.67v0.22h-0.85V2.68c0-0.27-0.14-0.42-0.43-0.45h-0.43
			c-0.26,0-0.41,0.15-0.43,0.44v3.11c0,0.27,0.14,0.42,0.43,0.44h0.43c0.26,0,0.41-0.15,0.43-0.45V4.68H44.8V4.01H46.3z"/>
	</g>
	<g>
		<path fill="#FC3535" d="M20.69,47.34V50c-0.02,0.26-0.07,0.48-0.16,0.67c-0.21,0.45-0.59,0.67-1.12,0.67H17.7v-0.67h1.71
			c0.26,0,0.41-0.15,0.43-0.45v-0.89h-0.85c-0.53,0-0.91-0.22-1.12-0.67c-0.09-0.18-0.14-0.41-0.16-0.67v-0.67
			c0.02-0.26,0.07-0.48,0.16-0.67c0.21-0.44,0.59-0.67,1.12-0.67h0.43c0.25,0.02,0.46,0.08,0.64,0.17
			C20.48,46.39,20.69,46.78,20.69,47.34z M18.98,48.66h0.85v-1.55c-0.02-0.29-0.16-0.44-0.43-0.44h-0.43
			c-0.28,0.02-0.43,0.17-0.43,0.44v1.11C18.56,48.49,18.7,48.64,18.98,48.66z"/>
		<path fill="#FC3535" d="M24.96,47.56c0,0.48-0.23,0.81-0.68,0.99c0.46,0.22,0.68,0.56,0.68,1.01V50
			c-0.02,0.26-0.07,0.48-0.16,0.67c-0.21,0.44-0.59,0.67-1.12,0.67h-0.43c-0.25-0.01-0.46-0.07-0.64-0.17
			c-0.43-0.22-0.64-0.61-0.64-1.17v-0.22h0.85v0.45c0.02,0.3,0.16,0.45,0.43,0.45h0.43c0.28-0.02,0.43-0.17,0.43-0.45v-0.89
			c-0.02-0.3-0.16-0.45-0.43-0.45h-0.64v-0.67h0.64c0.28-0.02,0.43-0.17,0.43-0.44v-0.66c-0.02-0.29-0.16-0.44-0.43-0.44h-0.43
			c-0.28,0.02-0.43,0.17-0.43,0.45v0.45h-0.85v-0.22c0.02-0.26,0.07-0.48,0.16-0.67c0.21-0.45,0.59-0.67,1.12-0.67h0.43
			c0.25,0.02,0.46,0.08,0.64,0.17c0.43,0.22,0.64,0.61,0.64,1.17V47.56z"/>
		<path fill="#FC3535" d="M29.23,47.56c0,0.48-0.23,0.81-0.68,0.99c0.46,0.22,0.68,0.56,0.68,1.01V50
			c-0.02,0.26-0.07,0.48-0.16,0.67c-0.21,0.44-0.59,0.67-1.12,0.67h-0.43c-0.25-0.01-0.46-0.07-0.64-0.17
			c-0.43-0.22-0.64-0.61-0.64-1.17v-0.22h0.85v0.45c0.02,0.3,0.16,0.45,0.43,0.45h0.43c0.28-0.02,0.43-0.17,0.43-0.45v-0.89
			c-0.02-0.3-0.16-0.45-0.43-0.45H27.3v-0.67h0.64c0.28-0.02,0.43-0.17,0.43-0.44v-0.66c-0.02-0.29-0.16-0.44-0.43-0.44h-0.43
			c-0.28,0.02-0.43,0.17-0.43,0.45v0.45h-0.85v-0.22c0.02-0.26,0.07-0.48,0.16-0.67c0.21-0.45,0.59-0.67,1.12-0.67h0.43
			c0.25,0.02,0.46,0.08,0.64,0.17c0.43,0.22,0.64,0.61,0.64,1.17v0.2C29.22,47.56,29.23,47.56,29.23,47.56z"/>
		<path fill="#FC3535" d="M32.43,50.45v0.89h-0.85v-0.89H32.43z"/>
		<path fill="#FC3535" d="M36.48,46c0.53,0,0.91,0.22,1.12,0.67c0.08,0.19,0.14,0.41,0.16,0.67V50c0,0.56-0.21,0.94-0.64,1.17
			c-0.18,0.09-0.39,0.14-0.64,0.17h-1.71V46H36.48z M36.91,50.22v-3.11c0-0.27-0.14-0.42-0.43-0.44h-0.85v4h0.85
			C36.74,50.67,36.89,50.52,36.91,50.22z"/>
		<path fill="#FC3535" d="M41.82,46.67h-1.71v1.55h1.49v0.67h-1.49v2.45h-0.85V46h2.56C41.82,46,41.82,46.67,41.82,46.67z"/>
		<path fill="#FC3535" d="M46.3,48.44V50c0,0.56-0.21,0.95-0.64,1.17c-0.18,0.09-0.39,0.14-0.64,0.17h-0.43
			c-0.53,0-0.91-0.22-1.12-0.67c-0.08-0.18-0.14-0.41-0.16-0.67v-2.67c0-0.56,0.21-0.94,0.64-1.17c0.18-0.09,0.39-0.14,0.64-0.17
			h0.43c0.53,0,0.91,0.22,1.12,0.67c0.08,0.19,0.14,0.41,0.16,0.67v0.22h-0.85V47.1c0-0.27-0.14-0.42-0.43-0.45h-0.43
			c-0.26,0-0.41,0.15-0.43,0.44v3.11c0,0.27,0.14,0.42,0.43,0.44h0.43c0.26,0,0.41-0.15,0.43-0.45v-1.11H44.8v-0.67h1.5V48.44z"/>
	</g>
	<g>
		<path fill="#FC3535" d="M19.2,57.11c0.41,0,0.76,0.15,1.06,0.46c0.29,0.3,0.44,0.67,0.44,1.1v2.22c0,0.43-0.15,0.8-0.44,1.1
			s-0.64,0.46-1.06,0.46s-0.76-0.15-1.06-0.46c-0.29-0.3-0.44-0.67-0.44-1.1v-2.22c0-0.43,0.15-0.8,0.44-1.1
			C18.43,57.26,18.78,57.11,19.2,57.11z M19.84,61.11v-2.67c0-0.18-0.06-0.34-0.19-0.47s-0.28-0.19-0.45-0.19s-0.33,0.06-0.45,0.19
			c-0.12,0.13-0.19,0.29-0.19,0.47v2.67c0,0.18,0.06,0.34,0.19,0.47c0.12,0.13,0.28,0.19,0.45,0.19s0.33-0.06,0.45-0.19
			S19.84,61.29,19.84,61.11z"/>
		<path fill="#FC3535" d="M24.96,58.67c0,0.48-0.23,0.81-0.68,0.99c0.46,0.22,0.68,0.56,0.68,1.01v0.44
			c-0.02,0.26-0.07,0.48-0.16,0.67c-0.21,0.45-0.59,0.67-1.12,0.67h-0.43c-0.53,0-0.91-0.22-1.12-0.67
			c-0.09-0.18-0.14-0.41-0.16-0.67v-0.44c0-0.45,0.23-0.79,0.68-1.01c-0.46-0.18-0.68-0.51-0.68-0.99v-0.22
			c0-0.56,0.21-0.94,0.64-1.17c0.18-0.09,0.39-0.14,0.64-0.17h0.43c0.25,0.02,0.46,0.08,0.64,0.17c0.43,0.22,0.64,0.61,0.64,1.17
			C24.96,58.45,24.96,58.67,24.96,58.67z M24.1,58.88v-0.66c-0.02-0.29-0.16-0.44-0.43-0.44h-0.43c-0.26,0-0.41,0.15-0.43,0.44v0.66
			c0,0.27,0.14,0.42,0.43,0.44h0.43C23.96,59.3,24.1,59.16,24.1,58.88z M24.1,61.33v-0.89c-0.02-0.3-0.16-0.45-0.43-0.45h-0.43
			c-0.26,0-0.41,0.15-0.43,0.45v0.89c0,0.27,0.14,0.42,0.43,0.45h0.43C23.96,61.75,24.1,61.6,24.1,61.33z"/>
		<path fill="#FC3535" d="M29.23,58.44v2.67c-0.02,0.26-0.07,0.48-0.16,0.67c-0.21,0.45-0.59,0.67-1.12,0.67h-1.71v-0.67h1.71
			c0.26,0,0.41-0.15,0.43-0.45v-0.89h-0.85c-0.53,0-0.91-0.22-1.12-0.67c-0.09-0.18-0.14-0.41-0.16-0.67v-0.67
			c0.02-0.26,0.07-0.48,0.16-0.67c0.21-0.44,0.59-0.67,1.12-0.67h0.43c0.25,0.02,0.46,0.08,0.64,0.17
			C29.01,57.5,29.23,57.89,29.23,58.44z M27.52,59.77h0.85v-1.55c-0.02-0.29-0.16-0.44-0.43-0.44h-0.43
			c-0.28,0.02-0.43,0.17-0.43,0.44v1.11C27.09,59.6,27.23,59.75,27.52,59.77z"/>
		<path fill="#FC3535" d="M32.43,61.55v0.89h-0.85v-0.89H32.43z"/>
		<path fill="#FC3535" d="M37.05,59.49c0.48,0.28,0.71,0.67,0.71,1.18v0.44c0,0.56-0.21,0.94-0.64,1.17
			c-0.18,0.09-0.39,0.14-0.64,0.17h-1.71v-5.33h1.49c0.53,0,0.91,0.22,1.12,0.67c0.09,0.19,0.14,0.41,0.16,0.67v0.22
			C37.55,59.05,37.38,59.33,37.05,59.49z M35.63,57.78v1.55h0.64c0.26,0,0.41-0.15,0.43-0.44v-0.66c0-0.27-0.14-0.42-0.43-0.44
			h-0.64V57.78z M36.91,61.33v-0.89c0-0.27-0.14-0.42-0.43-0.45h-0.85v1.78h0.85C36.74,61.78,36.89,61.63,36.91,61.33z"/>
		<path fill="#FC3535" d="M40.96,57.11l1.07,4.67v0.67h-0.85v-0.67L41,60.67h-0.92l-0.18,1.11v0.67h-0.85v-0.67l1.07-4.67H40.96z
			 M40.18,59.99h0.7l-0.35-2.23L40.18,59.99z"/>
		<path fill="#FC3535" d="M45.44,57.11h0.85v4c0,0.56-0.21,0.94-0.64,1.17c-0.18,0.09-0.39,0.14-0.64,0.17h-0.43
			c-0.53,0-0.91-0.22-1.12-0.67c-0.08-0.18-0.14-0.41-0.16-0.67v-4h0.85v4.22c0,0.27,0.14,0.42,0.43,0.44h0.43
			c0.26,0,0.41-0.15,0.43-0.44V57.11z"/>
	</g>
</g>
<g id="_x36_">
	<g>
		<path fill="#F9F7F6" d="M17.7,38.89v-2.67c0.02-0.26,0.07-0.48,0.16-0.67c0.21-0.44,0.59-0.67,1.12-0.67h1.71v0.67h-1.71
			c-0.26,0-0.41,0.15-0.43,0.44v0.88h0.85c0.53,0,0.91,0.22,1.12,0.67c0.09,0.19,0.14,0.41,0.16,0.67v0.67
			c-0.02,0.26-0.07,0.48-0.16,0.67c-0.21,0.45-0.59,0.67-1.12,0.67h-0.43c-0.25-0.01-0.46-0.07-0.64-0.17
			C17.92,39.84,17.7,39.45,17.7,38.89z M19.41,37.56h-0.85v1.56c0.02,0.3,0.16,0.45,0.43,0.45h0.43c0.28-0.02,0.43-0.17,0.43-0.45
			V38C19.84,37.73,19.69,37.58,19.41,37.56z"/>
		<path fill="#F9F7F6" d="M24.97,38.22v0.67h-0.43v1.34h-0.85v-1.34h-1.92v-0.67l1.92-3.33h0.85v3.33H24.97z M22.4,38.22h1.29V36
			L22.4,38.22z"/>
		<path fill="#F9F7F6" d="M29.23,36.45c0,0.48-0.23,0.81-0.68,0.99c0.46,0.22,0.68,0.56,0.68,1.01v0.44
			c-0.02,0.26-0.07,0.48-0.16,0.67c-0.21,0.44-0.59,0.67-1.12,0.67h-0.43c-0.25-0.01-0.46-0.07-0.64-0.17
			c-0.43-0.22-0.64-0.61-0.64-1.17v-0.22h0.85v0.45c0.02,0.3,0.16,0.45,0.43,0.45h0.43c0.28-0.02,0.43-0.17,0.43-0.45v-0.89
			c-0.02-0.3-0.16-0.45-0.43-0.45H27.3v-0.67h0.64c0.28-0.02,0.43-0.17,0.43-0.44V36c-0.02-0.29-0.16-0.44-0.43-0.44h-0.43
			c-0.28,0.02-0.43,0.17-0.43,0.45v0.45h-0.85v-0.22c0.02-0.26,0.07-0.48,0.16-0.67c0.21-0.45,0.59-0.67,1.12-0.67h0.43
			c0.25,0.02,0.46,0.08,0.64,0.17c0.43,0.22,0.64,0.61,0.64,1.17v0.21H29.23z"/>
		<path fill="#F9F7F6" d="M32.43,39.34v0.89h-0.85v-0.89H32.43z"/>
		<path fill="#F9F7F6" d="M34.77,38.89v-2.67c0.02-0.26,0.07-0.48,0.16-0.67c0.21-0.44,0.59-0.67,1.12-0.67h1.71v0.67h-1.71
			c-0.26,0-0.41,0.15-0.43,0.44v0.88h0.85c0.53,0,0.91,0.22,1.12,0.67c0.08,0.19,0.14,0.41,0.16,0.67v0.67
			c-0.02,0.26-0.08,0.48-0.16,0.67C37.38,40,37,40.22,36.47,40.22h-0.43c-0.25-0.01-0.46-0.07-0.64-0.17
			C34.99,39.84,34.77,39.45,34.77,38.89z M36.48,37.56h-0.85v1.56c0.02,0.3,0.16,0.45,0.43,0.45h0.43c0.28-0.02,0.43-0.17,0.43-0.45
			V38C36.91,37.73,36.76,37.58,36.48,37.56z"/>
		<path fill="#F9F7F6" d="M39.04,34.89h2.99v0.67l-1.28,4v0.67H39.9v-0.67l1.28-4l-2.14,0.01V34.89z"/>
		<path fill="#F9F7F6" d="M46.3,36.45c0,0.48-0.23,0.81-0.68,0.99c0.46,0.22,0.68,0.56,0.68,1.01v0.44
			c-0.02,0.26-0.08,0.48-0.16,0.67c-0.21,0.45-0.59,0.67-1.12,0.67h-0.43c-0.53,0-0.91-0.22-1.12-0.67
			c-0.08-0.18-0.14-0.41-0.16-0.67v-0.44c0-0.45,0.23-0.79,0.68-1.01c-0.46-0.18-0.68-0.51-0.68-0.99v-0.22
			c0-0.56,0.21-0.94,0.64-1.17c0.18-0.09,0.39-0.14,0.64-0.17h0.43c0.25,0.02,0.46,0.08,0.64,0.17c0.43,0.22,0.64,0.61,0.64,1.17
			V36.45z M45.44,36.67V36c-0.02-0.29-0.16-0.44-0.43-0.44h-0.43c-0.26,0-0.41,0.15-0.43,0.44v0.66c0,0.27,0.14,0.42,0.43,0.44h0.43
			C45.3,37.09,45.44,36.94,45.44,36.67z M45.44,39.11v-0.89c-0.02-0.3-0.16-0.45-0.43-0.45h-0.43c-0.26,0-0.41,0.15-0.43,0.45v0.89
			c0,0.27,0.14,0.42,0.43,0.45h0.43C45.3,39.54,45.44,39.39,45.44,39.11z"/>
	</g>
	<g>
		<path fill="#F9F7F6" d="M20.7,16.01v0.67h-0.43v1.34h-0.85v-1.34H17.5v-0.67l1.92-3.33h0.85v3.33H20.7z M18.13,16.01h1.29v-2.23
			L18.13,16.01z"/>
		<path fill="#F9F7F6" d="M24.96,13.35h-2.13v1.32h0.85c0.53,0,0.91,0.22,1.12,0.67c0.09,0.19,0.14,0.41,0.16,0.67v0.67
			c-0.02,0.26-0.07,0.48-0.16,0.67c-0.21,0.45-0.59,0.67-1.12,0.67h-0.43C23,18,22.79,17.94,22.61,17.85
			c-0.43-0.22-0.64-0.61-0.64-1.17v-0.22h0.85v0.45c0.02,0.3,0.16,0.45,0.43,0.45h0.43c0.28-0.02,0.43-0.17,0.43-0.45V15.8
			c0-0.27-0.14-0.42-0.43-0.45h-1.71v-2.66h2.99C24.96,12.69,24.96,13.35,24.96,13.35z"/>
		<path fill="#F9F7F6" d="M26.24,12.68h2.99v0.67l-1.28,4v0.67H27.1v-0.67l1.28-4l-2.14,0.01C26.24,13.36,26.24,12.68,26.24,12.68z"
			/>
		<path fill="#F9F7F6" d="M32.43,17.12v0.89h-0.85v-0.89H32.43z"/>
		<path fill="#F9F7F6" d="M34.77,14.02c0-0.56,0.21-0.95,0.64-1.17c0.18-0.09,0.39-0.15,0.64-0.17h0.43c0.53,0,0.91,0.22,1.12,0.67
			c0.08,0.19,0.14,0.41,0.16,0.67v0.22h-0.85v-0.45c0-0.27-0.14-0.42-0.43-0.45h-0.43c-0.26,0-0.41,0.15-0.43,0.44v0.66
			c0,0.27,0.14,0.42,0.43,0.44h0.43c0.53,0,0.91,0.22,1.12,0.67c0.08,0.19,0.14,0.41,0.16,0.67v0.45c-0.02,0.26-0.08,0.48-0.16,0.67
			c-0.21,0.45-0.59,0.67-1.12,0.67h-0.43c-0.25-0.01-0.46-0.07-0.64-0.17c-0.43-0.22-0.64-0.61-0.64-1.17v-0.22h0.85v0.45
			c0.02,0.3,0.16,0.45,0.43,0.45h0.43c0.28-0.02,0.43-0.17,0.43-0.45v-0.89c0-0.27-0.14-0.42-0.43-0.45h-0.43
			c-0.53,0-0.91-0.22-1.12-0.66c-0.08-0.18-0.14-0.4-0.16-0.66V14.02z"/>
		<path fill="#F9F7F6" d="M42.03,14.23c0,0.48-0.23,0.81-0.68,0.99c0.46,0.22,0.68,0.56,0.68,1.01v0.44
			c-0.02,0.26-0.08,0.48-0.16,0.67c-0.21,0.44-0.59,0.67-1.12,0.67h-0.43c-0.53,0-0.91-0.22-1.12-0.67
			c-0.08-0.19-0.14-0.41-0.16-0.67v-0.44c0-0.45,0.23-0.79,0.68-1.01c-0.46-0.18-0.68-0.51-0.68-0.99v-0.22
			c0-0.56,0.21-0.94,0.64-1.17c0.18-0.09,0.39-0.14,0.64-0.17h0.43c0.25,0.02,0.46,0.08,0.64,0.17c0.43,0.22,0.64,0.61,0.64,1.17
			V14.23z M41.18,14.45v-0.66c-0.02-0.29-0.16-0.44-0.43-0.44h-0.43c-0.26,0-0.41,0.15-0.43,0.44v0.66c0,0.27,0.14,0.42,0.43,0.44
			h0.43C41.03,14.87,41.18,14.73,41.18,14.45z M41.18,16.9v-0.89c-0.02-0.3-0.16-0.45-0.43-0.45h-0.43c-0.26,0-0.41,0.15-0.43,0.45
			v0.89c0,0.27,0.14,0.42,0.43,0.45h0.43C41.03,17.32,41.18,17.17,41.18,16.9z"/>
		<path fill="#F9F7F6" d="M46.3,14.23c0,0.68-0.32,1.11-0.96,1.3l0.96,1.81v0.67h-0.85v-0.67l-0.93-1.78h-0.35v2.45h-0.85v-5.33
			h1.71c0.53,0,0.91,0.22,1.12,0.67c0.08,0.19,0.14,0.41,0.16,0.67v0.21C46.31,14.23,46.3,14.23,46.3,14.23z M45.44,14.45v-0.66
			c0-0.27-0.14-0.42-0.43-0.44h-0.85v1.55h0.85C45.28,14.9,45.42,14.75,45.44,14.45z"/>
	</g>
	<g>
		<path fill="#F9F7F6" d="M20.69,2.24h-2.13v1.32h0.85c0.53,0,0.91,0.22,1.12,0.67c0.09,0.19,0.14,0.41,0.16,0.67v0.67
			c-0.02,0.26-0.07,0.48-0.16,0.67c-0.21,0.45-0.59,0.67-1.12,0.67h-0.43c-0.25-0.01-0.46-0.07-0.64-0.17
			c-0.43-0.22-0.64-0.61-0.64-1.17V5.35h0.85V5.8c0.02,0.3,0.16,0.45,0.43,0.45h0.43c0.28-0.02,0.43-0.17,0.43-0.45V4.68
			c0-0.27-0.14-0.42-0.43-0.45H17.7V1.57h2.99V2.24z"/>
		<path fill="#F9F7F6" d="M24.96,3.13c0,0.48-0.23,0.81-0.68,0.99c0.46,0.22,0.68,0.56,0.68,1.01v0.44
			c-0.02,0.26-0.07,0.48-0.16,0.67c-0.21,0.44-0.59,0.67-1.12,0.67h-0.43C23,6.89,22.79,6.83,22.61,6.74
			c-0.43-0.22-0.64-0.61-0.64-1.17V5.35h0.85V5.8c0.02,0.3,0.16,0.45,0.43,0.45h0.43c0.28-0.02,0.43-0.17,0.43-0.45V4.9
			c-0.02-0.3-0.16-0.45-0.43-0.45h-0.64V3.79h0.64c0.28-0.02,0.43-0.17,0.43-0.44V2.68c-0.02-0.29-0.16-0.44-0.43-0.44h-0.43
			c-0.28,0.02-0.43,0.17-0.43,0.45v0.45h-0.85V2.91c0.02-0.26,0.07-0.48,0.16-0.67c0.21-0.45,0.59-0.67,1.12-0.67h0.43
			c0.25,0.02,0.46,0.08,0.64,0.17c0.43,0.22,0.64,0.61,0.64,1.17C24.96,2.91,24.96,3.13,24.96,3.13z"/>
		<path fill="#F9F7F6" d="M29.23,2.24H27.1v1.32h0.85c0.53,0,0.91,0.22,1.12,0.67c0.09,0.19,0.14,0.41,0.16,0.67v0.67
			c-0.02,0.26-0.07,0.48-0.16,0.67c-0.21,0.45-0.59,0.67-1.12,0.67h-0.43c-0.25-0.01-0.46-0.07-0.64-0.17
			c-0.43-0.22-0.64-0.61-0.64-1.17V5.35h0.85V5.8c0.02,0.3,0.16,0.45,0.43,0.45h0.43c0.28-0.02,0.43-0.17,0.43-0.45V4.68
			c0-0.27-0.14-0.42-0.43-0.45h-1.71V1.57h2.99C29.23,1.57,29.23,2.24,29.23,2.24z"/>
		<path fill="#F9F7F6" d="M32.43,6.01V6.9h-0.85V6.01H32.43z"/>
		<path fill="#F9F7F6" d="M37.77,4.9v0.67h-0.43V6.9h-0.85V5.57h-1.92V4.9l1.92-3.33h0.85V4.9H37.77z M35.21,4.9h1.29V2.67
			L35.21,4.9z"/>
		<path fill="#F9F7F6" d="M42.03,2.24H39.9v1.32h0.85c0.53,0,0.91,0.22,1.12,0.67c0.08,0.19,0.14,0.41,0.16,0.67v0.67
			c-0.02,0.26-0.08,0.48-0.16,0.67c-0.21,0.45-0.59,0.67-1.12,0.67h-0.43c-0.25-0.01-0.46-0.07-0.64-0.17
			c-0.43-0.22-0.64-0.61-0.64-1.17V5.35h0.85V5.8c0.02,0.3,0.16,0.45,0.43,0.45h0.43c0.28-0.02,0.43-0.17,0.43-0.45V4.68
			c0-0.27-0.14-0.42-0.43-0.45h-1.71V1.57h2.99C42.03,1.57,42.03,2.24,42.03,2.24z"/>
		<path fill="#F9F7F6" d="M46.3,4.01v1.56c0,0.56-0.21,0.95-0.64,1.17c-0.18,0.09-0.39,0.14-0.64,0.17h-0.43
			c-0.53,0-0.91-0.22-1.12-0.67c-0.08-0.19-0.14-0.41-0.16-0.67V2.9c0-0.56,0.21-0.94,0.64-1.17c0.18-0.09,0.39-0.14,0.64-0.17h0.43
			c0.53,0,0.91,0.22,1.12,0.67c0.08,0.19,0.14,0.41,0.16,0.67v0.22h-0.85V2.68c0-0.27-0.14-0.42-0.43-0.45h-0.43
			c-0.26,0-0.41,0.15-0.43,0.44v3.11c0,0.27,0.14,0.42,0.43,0.44h0.43c0.26,0,0.41-0.15,0.43-0.45V4.68H44.8V4.01H46.3z"/>
	</g>
	<g>
		<path fill="#FC3535" d="M20.69,47.34V50c-0.02,0.26-0.07,0.48-0.16,0.67c-0.21,0.45-0.59,0.67-1.12,0.67H17.7v-0.67h1.71
			c0.26,0,0.41-0.15,0.43-0.45v-0.89h-0.85c-0.53,0-0.91-0.22-1.12-0.67c-0.09-0.18-0.14-0.41-0.16-0.67v-0.67
			c0.02-0.26,0.07-0.48,0.16-0.67c0.21-0.44,0.59-0.67,1.12-0.67h0.43c0.25,0.02,0.46,0.08,0.64,0.17
			C20.48,46.39,20.69,46.78,20.69,47.34z M18.98,48.66h0.85v-1.55c-0.02-0.29-0.16-0.44-0.43-0.44h-0.43
			c-0.28,0.02-0.43,0.17-0.43,0.44v1.11C18.56,48.49,18.7,48.64,18.98,48.66z"/>
		<path fill="#FC3535" d="M24.96,47.56c0,0.48-0.23,0.81-0.68,0.99c0.46,0.22,0.68,0.56,0.68,1.01V50
			c-0.02,0.26-0.07,0.48-0.16,0.67c-0.21,0.45-0.59,0.67-1.12,0.67h-0.43c-0.53,0-0.91-0.22-1.12-0.67
			c-0.09-0.18-0.14-0.41-0.16-0.67v-0.44c0-0.45,0.23-0.79,0.68-1.01c-0.46-0.18-0.68-0.51-0.68-0.99v-0.22
			c0-0.56,0.21-0.94,0.64-1.17c0.18-0.09,0.39-0.14,0.64-0.17h0.43c0.25,0.02,0.46,0.08,0.64,0.17c0.43,0.22,0.64,0.61,0.64,1.17
			C24.96,47.34,24.96,47.56,24.96,47.56z M24.1,47.78v-0.66c-0.02-0.29-0.16-0.44-0.43-0.44h-0.43c-0.26,0-0.41,0.15-0.43,0.44v0.66
			c0,0.27,0.14,0.42,0.43,0.44h0.43C23.96,48.2,24.1,48.05,24.1,47.78z M24.1,50.22v-0.89c-0.02-0.3-0.16-0.45-0.43-0.45h-0.43
			c-0.26,0-0.41,0.15-0.43,0.45v0.89c0,0.27,0.14,0.42,0.43,0.45h0.43C23.96,50.65,24.1,50.5,24.1,50.22z"/>
		<path fill="#FC3535" d="M27.73,46c0.41,0,0.76,0.15,1.06,0.46c0.29,0.3,0.44,0.67,0.44,1.1v2.22c0,0.43-0.15,0.8-0.44,1.1
			s-0.64,0.46-1.06,0.46s-0.76-0.15-1.06-0.46c-0.29-0.3-0.44-0.67-0.44-1.1v-2.22c0-0.43,0.15-0.8,0.44-1.1
			C26.97,46.15,27.32,46,27.73,46z M28.37,50v-2.67c0-0.18-0.06-0.34-0.19-0.47s-0.28-0.19-0.45-0.19s-0.33,0.06-0.45,0.19
			c-0.12,0.13-0.19,0.29-0.19,0.47V50c0,0.18,0.06,0.34,0.19,0.47c0.12,0.13,0.28,0.19,0.45,0.19s0.33-0.06,0.45-0.19
			S28.37,50.19,28.37,50z"/>
		<path fill="#FC3535" d="M32.43,50.45v0.89h-0.85v-0.89H32.43z"/>
		<path fill="#FC3535" d="M36.48,46c0.53,0,0.91,0.22,1.12,0.67c0.08,0.19,0.14,0.41,0.16,0.67V50c0,0.56-0.21,0.94-0.64,1.17
			c-0.18,0.09-0.39,0.14-0.64,0.17h-1.71V46H36.48z M36.91,50.22v-3.11c0-0.27-0.14-0.42-0.43-0.44h-0.85v4h0.85
			C36.74,50.67,36.89,50.52,36.91,50.22z"/>
		<path fill="#FC3535" d="M40.32,50.67h1.71v0.67h-2.56V46h0.85C40.32,46,40.32,50.67,40.32,50.67z"/>
		<path fill="#FC3535" d="M46.3,48.44V50c0,0.56-0.21,0.95-0.64,1.17c-0.18,0.09-0.39,0.14-0.64,0.17h-0.43
			c-0.53,0-0.91-0.22-1.12-0.67c-0.08-0.18-0.14-0.41-0.16-0.67v-2.67c0-0.56,0.21-0.94,0.64-1.17c0.18-0.09,0.39-0.14,0.64-0.17
			h0.43c0.53,0,0.91,0.22,1.12,0.67c0.08,0.19,0.14,0.41,0.16,0.67v0.22h-0.85V47.1c0-0.27-0.14-0.42-0.43-0.45h-0.43
			c-0.26,0-0.41,0.15-0.43,0.44v3.11c0,0.27,0.14,0.42,0.43,0.44h0.43c0.26,0,0.41-0.15,0.43-0.45v-1.11H44.8v-0.67h1.5V48.44z"/>
	</g>
	<g>
		<path fill="#FC3535" d="M19.62,61.78h0.85v0.67h-2.56v-0.67h0.85v-3.79h-0.85v-0.66l1.71-0.22
			C19.62,57.11,19.62,61.78,19.62,61.78z"/>
		<path fill="#FC3535" d="M24.96,57.78h-2.13v1.33h0.85c0.53,0,0.91,0.22,1.12,0.67c0.09,0.19,0.14,0.41,0.16,0.67v0.67
			c-0.02,0.26-0.07,0.48-0.16,0.67c-0.21,0.45-0.59,0.67-1.12,0.67h-0.43c-0.25-0.01-0.46-0.07-0.64-0.17
			c-0.43-0.22-0.64-0.61-0.64-1.17V60.9h0.85v0.45c0.02,0.3,0.16,0.45,0.43,0.45h0.43c0.28-0.02,0.43-0.17,0.43-0.45v-1.11
			c0-0.27-0.14-0.42-0.43-0.45h-1.71v-2.66h2.99C24.96,57.13,24.96,57.78,24.96,57.78z"/>
		<path fill="#FC3535" d="M29.23,58.44v2.67c-0.02,0.26-0.07,0.48-0.16,0.67c-0.21,0.45-0.59,0.67-1.12,0.67h-1.71v-0.67h1.71
			c0.26,0,0.41-0.15,0.43-0.45v-0.89h-0.85c-0.53,0-0.91-0.22-1.12-0.67c-0.09-0.18-0.14-0.41-0.16-0.67v-0.67
			c0.02-0.26,0.07-0.48,0.16-0.67c0.21-0.44,0.59-0.67,1.12-0.67h0.43c0.25,0.02,0.46,0.08,0.64,0.17
			C29.01,57.5,29.23,57.89,29.23,58.44z M27.52,59.77h0.85v-1.55c-0.02-0.29-0.16-0.44-0.43-0.44h-0.43
			c-0.28,0.02-0.43,0.17-0.43,0.44v1.11C27.09,59.6,27.23,59.75,27.52,59.77z"/>
		<path fill="#FC3535" d="M32.43,61.55v0.89h-0.85v-0.89H32.43z"/>
		<path fill="#FC3535" d="M36.05,61.78h1.71v0.67H35.2v-5.33h0.85V61.78z"/>
		<path fill="#FC3535" d="M40.96,57.11l1.07,4.67v0.67h-0.85v-0.67L41,60.67h-0.92l-0.18,1.11v0.67h-0.85v-0.67l1.07-4.67H40.96z
			 M40.18,59.99h0.7l-0.35-2.23L40.18,59.99z"/>
		<path fill="#FC3535" d="M45.44,57.11h0.85v4c0,0.56-0.21,0.94-0.64,1.17c-0.18,0.09-0.39,0.14-0.64,0.17h-0.43
			c-0.53,0-0.91-0.22-1.12-0.67c-0.08-0.18-0.14-0.41-0.16-0.67v-4h0.85v4.22c0,0.27,0.14,0.42,0.43,0.44h0.43
			c0.26,0,0.41-0.15,0.43-0.44V57.11z"/>
	</g>
</g>
</svg>
