<?xml version="1.0" encoding="utf-8"?>
<!-- Generator: Adobe Illustrator 30.2.1, SVG Export Plug-In . SVG Version: 9.03 Build 0)  -->
<svg version="1.1" baseProfile="tiny" id="Layer_1" xmlns="http://www.w3.org/2000/svg" xmlns:xlink="http://www.w3.org/1999/xlink"
	 x="0px" y="0px" viewBox="0 0 783.48 69.48" overflow="visible" xml:space="preserve">
<polyline fill="none" stroke="#FFB200" stroke-width="2" stroke-miterlimit="10" points="777.12,24.55 777.12,62.2 0,62.2 "/>
<g>
	<path fill="#4C3917" d="M618.92,25.1l-1.27,5.51h-1l-1.26-5.51v-0.79h1.01v0.79l0.76,4.73l0.76-4.73v-0.79h1.01v0.79H618.92z"/>
	<path fill="#4C3917" d="M623.71,25.1h-2.02v1.83h1.77v0.79h-1.77v2.11h2.02v0.79h-3.03v-6.3h3.03V25.1z"/>
	<path fill="#4C3917" d="M629,26.15c0,0.8-0.38,1.32-1.13,1.54l1.13,2.14v0.79h-1.01v-0.79l-1.1-2.1h-0.42v2.9h-1.01v-6.3h2.02
		c0.63,0,1.07,0.26,1.32,0.79c0.1,0.22,0.16,0.48,0.19,0.79L629,26.15L629,26.15z M627.99,26.4v-0.78c0-0.32-0.17-0.5-0.5-0.52
		h-1.01v1.83h1.01C627.8,26.93,627.97,26.75,627.99,26.4z"/>
	<path fill="#4C3917" d="M632.79,29.56v1.05h-1.01v-1.05H632.79z"/>
	<path fill="#4C3917" d="M648.42,25.07v-0.76h0.76v0.79l-2.77,5.25v0.79h-0.76v-0.8L648.42,25.07z"/>
	<path fill="#4C3917" d="M653.47,25.07v-0.76h0.76v0.79l-2.77,5.25v0.79h-0.76v-0.8L653.47,25.07z"/>
	<path fill="#4C3917" d="M667.59,24.31c0.49,0,0.9,0.18,1.25,0.54c0.34,0.36,0.52,0.79,0.52,1.3v2.63c0,0.51-0.17,0.94-0.52,1.3
		c-0.34,0.36-0.76,0.54-1.25,0.54s-0.9-0.18-1.25-0.54c-0.34-0.36-0.52-0.79-0.52-1.3v-2.63c0-0.51,0.17-0.94,0.52-1.3
		C666.68,24.49,667.1,24.31,667.59,24.31z M668.34,29.03v-3.15c0-0.22-0.07-0.4-0.22-0.56c-0.15-0.15-0.33-0.23-0.54-0.23
		c-0.21,0-0.39,0.08-0.54,0.23c-0.15,0.15-0.22,0.34-0.22,0.56v3.15c0,0.22,0.07,0.4,0.22,0.56s0.33,0.23,0.54,0.23
		c0.21,0,0.39-0.08,0.54-0.23S668.34,29.25,668.34,29.03z"/>
	<path fill="#4C3917" d="M673.14,29.56v1.05h-1.01v-1.05H673.14z"/>
	<path fill="#4C3917" d="M675.91,30.61v-1.84c0.03-0.31,0.09-0.57,0.19-0.79c0.25-0.53,0.69-0.79,1.32-0.79h0.5
		c0.34-0.03,0.5-0.2,0.5-0.52v-1.05c-0.02-0.35-0.19-0.52-0.5-0.52h-0.5c-0.34,0.03-0.5,0.2-0.5,0.53v0.53h-1.01V25.9
		c0.03-0.31,0.09-0.57,0.19-0.79c0.25-0.53,0.69-0.79,1.32-0.79h0.5c0.29,0.03,0.55,0.09,0.76,0.2c0.5,0.26,0.76,0.72,0.76,1.38
		v0.52c-0.02,0.31-0.09,0.57-0.19,0.79C679,27.74,678.56,28,677.93,28h-0.5c-0.34,0.03-0.5,0.2-0.5,0.53v1.32h2.52v0.79h-3.54
		L675.91,30.61L675.91,30.61z"/>
	<path fill="#4C3917" d="M683.22,29.82h1.01v0.79h-3.03v-0.79h1.01v-4.47h-1.01v-0.78l2.02-0.26V29.82z"/>
	<path fill="#4C3917" d="M693.31,29.56v1.05h-1.01v-1.05H693.31z"/>
	<path fill="#4C3917" d="M696.08,30.61v-1.84c0.02-0.31,0.09-0.57,0.19-0.79c0.25-0.53,0.69-0.79,1.32-0.79h0.5
		c0.34-0.03,0.5-0.2,0.5-0.52v-1.05c-0.03-0.35-0.19-0.52-0.5-0.52h-0.5c-0.34,0.03-0.5,0.2-0.5,0.53v0.53h-1.01V25.9
		c0.02-0.31,0.09-0.57,0.19-0.79c0.25-0.53,0.69-0.79,1.32-0.79h0.5c0.29,0.03,0.55,0.09,0.76,0.2c0.5,0.26,0.76,0.72,0.76,1.38
		v0.52c-0.03,0.31-0.09,0.57-0.19,0.79c-0.25,0.53-0.69,0.79-1.32,0.79h-0.5c-0.34,0.03-0.5,0.2-0.5,0.53v1.32h2.52v0.79h-3.54
		L696.08,30.61L696.08,30.61z"/>
	<path fill="#4C3917" d="M704.66,27.19v1.84c0,0.66-0.25,1.12-0.76,1.38c-0.21,0.1-0.46,0.17-0.76,0.2h-0.5
		c-0.63,0-1.07-0.26-1.32-0.79c-0.1-0.22-0.16-0.48-0.19-0.79v-3.15c0-0.66,0.25-1.12,0.76-1.38c0.21-0.1,0.46-0.17,0.76-0.2h0.5
		c0.63,0,1.07,0.26,1.32,0.79c0.1,0.22,0.16,0.48,0.19,0.79v0.26h-1.01v-0.53c0-0.32-0.17-0.5-0.5-0.53h-0.5
		c-0.31,0-0.48,0.17-0.5,0.53v3.67c0,0.32,0.17,0.5,0.5,0.52h0.5c0.31,0,0.48-0.17,0.5-0.53v-1.32h-0.76v-0.79h1.77V27.19z"/>
	<path fill="#4C3917" d="M708.44,29.82h1.01v0.79h-3.03v-0.79h1.01v-4.47h-1.01v-0.78l2.02-0.26V29.82z"/>
	<path fill="#4C3917" d="M719.79,25.88v3.15c-0.03,0.31-0.09,0.57-0.19,0.79c-0.25,0.53-0.69,0.79-1.32,0.79h-2.02v-0.79h2.02
		c0.31,0,0.48-0.17,0.5-0.53v-1.05h-1.01c-0.63,0-1.07-0.26-1.32-0.79c-0.1-0.22-0.16-0.48-0.19-0.79v-0.79
		c0.02-0.31,0.09-0.57,0.19-0.79c0.25-0.52,0.69-0.79,1.32-0.79h0.5c0.29,0.03,0.55,0.09,0.76,0.2
		C719.54,24.77,719.79,25.23,719.79,25.88z M717.77,27.45h1.01v-1.83c-0.03-0.35-0.19-0.52-0.5-0.52h-0.5
		c-0.34,0.03-0.5,0.2-0.5,0.52v1.31C717.27,27.25,717.44,27.43,717.77,27.45z"/>
	<path fill="#4C3917" d="M721.3,24.31h3.53v0.79l-1.51,4.72v0.79h-1.01v-0.79l1.52-4.73l-2.52,0.01v-0.79H721.3z"/>
	<path fill="#4C3917" d="M725.84,29.82h4.54v0.79h-4.54V29.82z"/>
</g>
<line fill="none" stroke="#4C3917" stroke-width="2" stroke-miterlimit="10" x1="742.7" y1="38.1" x2="3.26" y2="38.1"/>
<rect x="736.69" y="24.6" fill="#4C3917" width="6" height="6"/>
<rect x="774.12" y="4.41" fill="#FFB200" width="4" height="4"/>
</svg>
