<?xml version="1.0" encoding="utf-8"?>
<!-- Generator: Adobe Illustrator 30.2.1, SVG Export Plug-In . SVG Version: 9.03 Build 0)  -->
<svg version="1.1" baseProfile="tiny" id="Layer_1" xmlns="http://www.w3.org/2000/svg" xmlns:xlink="http://www.w3.org/1999/xlink"
	 x="0px" y="0px" viewBox="0 0 508 126" overflow="visible" xml:space="preserve">
<g>
	<polygon fill="#FFFFFF" points="502.28,39.51 500.28,39.51 500.28,2.86 7.72,2.86 7.72,39.51 5.72,39.51 5.72,0.86 502.28,0.86 	
		"/>
</g>
<g>
	<polygon fill="#FFFFFF" points="502.28,125.14 5.72,125.14 5.72,86.49 7.72,86.49 7.72,123.14 500.28,123.14 500.28,86.49 
		502.28,86.49 	"/>
</g>
<path fill="#FFFFFF" d="M488.39,110.59H382.94V14.1h105.45V110.59z M384.94,108.59h101.45V16.1H384.94V108.59z"/>
<g>
	<path fill="#FFFFFF" d="M424.7,41.39h6.46v5.04l-8.07,21.85v13.45h-6.46V68.28l-8.07-21.85v-5.04h6.46v5.03l4.84,16.78l4.84-16.78
		V41.39z"/>
	<path fill="#FFFFFF" d="M463.43,46.44h-16.14v10.02h6.46c4.04,0,6.86,1.68,8.47,5.05c0.65,1.4,1.05,3.09,1.21,5.05v5.05
		c-0.16,1.97-0.57,3.65-1.21,5.05c-1.61,3.37-4.44,5.05-8.47,5.05h-3.23c-1.88-0.11-3.5-0.53-4.84-1.26
		c-3.23-1.68-4.84-4.63-4.84-8.84v-1.68h6.46v3.37c0.16,2.25,1.24,3.37,3.23,3.37h3.23c2.15-0.17,3.23-1.29,3.23-3.37v-8.42
		c0-2.08-1.08-3.2-3.23-3.37h-12.91V41.39h22.6V46.44z"/>
</g>
<g>
	<path fill="#FFFFFF" d="M291.14,87.65h-1.82v8.5h1.82c0.56,0,0.86-0.32,0.91-0.95V88.6C292.05,88.01,291.75,87.7,291.14,87.65z"/>
	<polygon fill="#FFFFFF" points="263.96,37.57 265.96,37.57 264.96,31.25 	"/>
	<polygon fill="#FFFFFF" points="307.33,59 306.66,63.21 308,63.21 	"/>
	<path fill="#FFFFFF" d="M72.49,34.42v-1.88c0-0.77-0.4-1.19-1.21-1.25h-1.82v4.39h1.82C72.03,35.67,72.43,35.25,72.49,34.42z"/>
	<polygon fill="#FFFFFF" points="239.75,37.57 241.75,37.57 240.75,31.25 	"/>
	<polygon fill="#FFFFFF" points="326.25,92.36 327.75,92.36 327,87.63 	"/>
	<path fill="#FFFFFF" d="M309.3,87.65h-0.91c-0.61,0.05-0.91,0.36-0.91,0.94v2.36c0,0.58,0.3,0.89,0.91,0.94h1.82v-3.3
		C310.16,87.96,309.86,87.65,309.3,87.65z"/>
	<path fill="#FFFFFF" d="M96.1,31.28h-1.21c-0.75,0-1.15,0.42-1.21,1.26v8.82c0,0.78,0.4,1.2,1.21,1.26h1.21
		c0.75,0,1.15-0.42,1.21-1.26v-8.82C97.31,31.77,96.9,31.35,96.1,31.28z"/>
	<path fill="#FFFFFF" d="M336.08,87.65c-0.38,0-0.7,0.14-0.96,0.41c-0.26,0.28-0.4,0.61-0.4,1v5.67c0,0.39,0.13,0.73,0.4,1
		s0.59,0.41,0.96,0.41s0.7-0.14,0.96-0.41s0.4-0.61,0.4-1v-5.67c0-0.39-0.13-0.73-0.4-1C336.78,87.79,336.46,87.65,336.08,87.65z"/>
	<path fill="#FFFFFF" d="M71.89,37.57h-2.42v5.05h2.42c0.75,0,1.15-0.42,1.21-1.26v-2.53C73.1,38.05,72.69,37.63,71.89,37.57z"/>
	<path fill="#FFFFFF" d="M236.67,87.65h-1.82v3.29h1.82c0.56,0,0.86-0.31,0.91-0.94v-1.41C237.57,88.01,237.27,87.7,236.67,87.65z"
		/>
	<path fill="#FFFFFF" d="M168.73,31.28h-2.42v5.65h2.42c0.75,0,1.15-0.42,1.21-1.26v-3.14C169.94,31.76,169.53,31.35,168.73,31.28z"
		/>
	<path fill="#FFFFFF" d="M229.25,31.28h-2.42v11.34h2.42c0.75,0,1.15-0.42,1.21-1.26v-8.82C230.46,31.77,230.06,31.35,229.25,31.28z
		"/>
	<path fill="#FFFFFF" d="M364.22,59.02h-0.81c-0.54,0.04-0.81,0.32-0.81,0.84v2.09c0,0.52,0.27,0.8,0.81,0.84h1.61v-2.93
		C364.99,59.3,364.72,59.02,364.22,59.02z"/>
	<path fill="#FFFFFF" d="M345.16,87.65c-0.38,0-0.7,0.14-0.96,0.41c-0.26,0.28-0.4,0.61-0.4,1v5.67c0,0.39,0.13,0.73,0.4,1
		s0.59,0.41,0.96,0.41s0.7-0.14,0.96-0.41s0.4-0.61,0.4-1v-5.67c0-0.39-0.13-0.73-0.4-1C345.86,87.79,345.54,87.65,345.16,87.65z"/>
	<polygon fill="#FFFFFF" points="340.03,64.05 340.03,59.84 337.6,64.05 	"/>
	<path fill="#FFFFFF" d="M18.08,14.1v96.49h365.6V14.1H18.08z M346.67,29.39h2.42v13.23h4.84v1.89h-7.26V29.39z M333.36,29.39h2.42
		v1.89l1.82,11.34l1.82-11.34v-1.89h2.42v1.89l-3.03,13.24h-2.42l-3.03-13.24V29.39z M309.15,43.85l6.66-12.63v-1.84h1.82v1.89
		l-6.66,12.6v1.9h-1.82V43.85z M297.04,43.85l6.66-12.63v-1.84h1.82v1.89l-6.66,12.6v1.9h-1.82V43.85z M75.52,40.73
		c0,1.58-0.61,2.68-1.82,3.31c-0.5,0.25-1.11,0.41-1.82,0.47h-4.84V29.39h4.24c1.51,0,2.57,0.63,3.18,1.89
		c0.24,0.53,0.39,1.16,0.45,1.89v0.63c0,1.09-0.47,1.87-1.42,2.33c1.35,0.8,2.03,1.91,2.03,3.34V40.73z M87.02,31.28H84.6v11.34
		h2.42v1.89h-7.26v-1.89h2.42V31.28h-2.42v-1.9h7.26V31.28z M99.73,40.73c0,1.58-0.61,2.68-1.82,3.31c-0.5,0.25-1.11,0.41-1.82,0.47
		h-1.21c-1.51,0-2.57-0.63-3.18-1.89c-0.24-0.53-0.39-1.16-0.45-1.89v-7.56c0-1.58,0.6-2.68,1.82-3.31c0.5-0.25,1.11-0.41,1.82-0.47
		h1.21c1.51,0,2.57,0.63,3.18,1.89c0.24,0.53,0.39,1.16,0.45,1.89V40.73z M111.83,33.81h-2.42v-1.26c0-0.78-0.4-1.2-1.21-1.26h-1.21
		c-0.75,0-1.15,0.42-1.21,1.25v1.88c0,0.77,0.4,1.19,1.21,1.25h1.21c1.51,0,2.57,0.63,3.18,1.9c0.24,0.53,0.39,1.16,0.45,1.89v1.26
		c-0.06,0.74-0.21,1.37-0.45,1.9c-0.6,1.26-1.66,1.89-3.18,1.89h-1.21c-0.71-0.04-1.31-0.2-1.82-0.47
		c-1.21-0.63-1.82-1.74-1.82-3.32v-0.63h2.42v1.26c0.06,0.84,0.46,1.26,1.21,1.26h1.21c0.81-0.06,1.21-0.48,1.21-1.26v-2.53
		c0-0.78-0.4-1.2-1.21-1.26h-1.21c-1.51,0-2.57-0.63-3.18-1.88c-0.24-0.52-0.39-1.15-0.45-1.88v-0.63c0-1.58,0.6-2.68,1.82-3.32
		c0.5-0.25,1.11-0.41,1.82-0.47h1.21c1.51,0,2.57,0.63,3.18,1.9c0.24,0.53,0.39,1.16,0.45,1.89V33.81z M125.15,44.51h-10.89v-1.89
		h10.89V44.51z M136.04,33.81h-2.42v-1.26c0-0.78-0.4-1.2-1.21-1.26h-1.21c-0.75,0-1.15,0.42-1.21,1.26v8.82
		c0,0.78,0.4,1.2,1.21,1.26h1.21c0.75,0,1.15-0.42,1.21-1.26v-1.26h2.42v0.63c0,1.58-0.61,2.68-1.82,3.32
		c-0.5,0.27-1.11,0.43-1.82,0.47h-1.21c-1.51,0-2.57-0.63-3.18-1.89c-0.24-0.53-0.39-1.16-0.45-1.89v-7.56
		c0-1.58,0.6-2.68,1.82-3.31c0.5-0.25,1.11-0.41,1.82-0.47h1.21c1.51,0,2.57,0.63,3.18,1.9c0.24,0.53,0.39,1.16,0.45,1.89V33.81z
		 M148.15,44.51h-2.42v-6.95h-3.63v6.95h-2.42V29.39h2.42v6.28h3.63v-6.28h2.42V44.51z M159.65,31.28h-2.42v11.34h2.42v1.89h-7.26
		v-1.89h2.42V31.28h-2.42v-1.9h7.26V31.28z M172.36,35.05c0,1.57-0.61,2.68-1.82,3.3c-0.5,0.27-1.11,0.43-1.82,0.47h-2.42v5.68
		h-2.42V29.39h4.84c1.51,0,2.57,0.63,3.18,1.89c0.24,0.53,0.39,1.15,0.45,1.89V35.05z M184.46,33.81h-2.42v-1.26
		c0-0.78-0.4-1.2-1.21-1.26h-1.21c-0.75,0-1.15,0.42-1.21,1.25v1.88c0,0.77,0.4,1.19,1.21,1.25h1.21c1.51,0,2.57,0.63,3.18,1.9
		c0.24,0.53,0.39,1.16,0.45,1.89v1.26c-0.06,0.74-0.21,1.37-0.45,1.9c-0.6,1.26-1.66,1.89-3.18,1.89h-1.21
		c-0.71-0.04-1.31-0.2-1.82-0.47c-1.21-0.63-1.82-1.74-1.82-3.32v-0.63h2.42v1.26c0.06,0.84,0.46,1.26,1.21,1.26h1.21
		c0.81-0.06,1.21-0.48,1.21-1.26v-2.53c0-0.78-0.4-1.2-1.21-1.26h-1.21c-1.51,0-2.57-0.63-3.18-1.88c-0.24-0.52-0.39-1.15-0.45-1.88
		v-0.63c0-1.58,0.6-2.68,1.82-3.32c0.5-0.25,1.11-0.41,1.82-0.47h1.21c1.51,0,2.57,0.63,3.18,1.9c0.24,0.53,0.39,1.16,0.45,1.89
		V33.81z M195.96,31.28h-4.84v4.39h4.24v1.9h-4.24v5.05h4.84v1.89h-7.26V29.39h7.26V31.28z M209.28,31.28h-3.63v13.23h-2.42V31.28
		h-3.63v-1.9h9.68V31.28z M221.23,87.65l-2.27,9.93h-1.82l-2.27-9.93v-1.42h1.82v1.42l1.36,8.51l1.36-8.51v-1.42h1.82V87.65z
		 M229.86,87.65h-3.63v3.29h3.18v1.42h-3.18v3.79h3.63v1.42h-5.45V86.23h5.45V87.65z M232.88,40.73c0,1.58-0.61,2.68-1.82,3.31
		c-0.5,0.25-1.11,0.41-1.82,0.47h-4.84V29.39h4.84c1.51,0,2.57,0.63,3.18,1.89c0.24,0.53,0.39,1.16,0.45,1.89V40.73z M239.39,89.54
		c0,1.45-0.68,2.37-2.04,2.76l2.04,3.85v1.42h-1.82v-1.42l-1.98-3.79l-0.75,0v5.21h-1.82V86.23h3.63c1.14,0,1.93,0.47,2.38,1.42
		c0.18,0.39,0.3,0.87,0.34,1.42V89.54z M242.05,39.46h-2.6l-0.51,3.16v1.89h-2.42v-1.89l3.03-13.24h2.42l3.03,13.24v1.89h-2.42
		v-1.89L242.05,39.46z M246.2,97.57h-1.82v-1.89h1.82V97.57z M257.7,31.28h-3.63v13.23h-2.42V31.28h-3.63v-1.9h9.68V31.28z
		 M266.63,87.65l-4.99,9.45v1.42h-1.36v-1.44l4.99-9.47v-1.38h1.36V87.65z M269.2,44.51h-2.42v-1.89l-0.51-3.16h-2.6l-0.51,3.16
		v1.89h-2.42v-1.89l3.03-13.24h2.42l3.03,13.24V44.51z M275.71,87.65l-4.99,9.45v1.42h-1.36v-1.44l4.99-9.47v-1.38h1.36V87.65z
		 M293.86,94.74c0,1.18-0.45,2.01-1.36,2.48c-0.38,0.19-0.83,0.31-1.36,0.35h-3.63V86.23h3.63c1.13,0,1.93,0.47,2.38,1.42
		c0.18,0.39,0.3,0.87,0.34,1.42V94.74z M303.85,97.57h-8.17v-1.42h8.17V97.57z M304.5,66.58l2.02-8.82h1.61l2.02,8.82v1.26h-1.61
		v-1.26l-0.34-2.1h-1.74l-0.34,2.1v1.26h-1.61V66.58z M312.02,94.74c-0.04,0.55-0.16,1.02-0.34,1.42c-0.45,0.95-1.25,1.42-2.38,1.42
		h-3.63v-1.42h3.63c0.56,0,0.86-0.32,0.91-0.95v-1.9h-1.82c-1.13,0-1.93-0.47-2.38-1.42c-0.18-0.39-0.29-0.87-0.34-1.42v-1.42
		c0.05-0.55,0.16-1.02,0.34-1.42c0.45-0.94,1.25-1.42,2.38-1.42h0.91c0.53,0.05,0.98,0.17,1.36,0.35c0.91,0.47,1.36,1.3,1.36,2.48
		V94.74z M316.21,67.84h-1.61v-8.82h-2.42v-1.26h6.46v1.26h-2.42V67.84z M318.83,97.57h-1.82v-1.89h1.82V97.57z M320.24,59.02v-1.26
		h6.46v1.26h-2.42v8.82h-1.61v-8.82H320.24z M330.18,97.57h-1.82v-1.42l-0.39-2.37h-1.95l-0.39,2.37v1.42h-1.82v-1.42l2.27-9.93
		h1.82l2.27,9.93V97.57z M339.26,94.27c0,0.91-0.31,1.69-0.93,2.34s-1.37,0.97-2.25,0.97s-1.63-0.32-2.25-0.97s-0.93-1.43-0.93-2.34
		v-4.73c0-0.91,0.31-1.69,0.93-2.34c0.62-0.65,1.37-0.97,2.25-0.97s1.63,0.32,2.25,0.97c0.62,0.65,0.93,1.43,0.93,2.34V94.27z
		 M341.65,67.84h-1.61v-2.53h-3.63v-1.26l3.63-6.29h1.61v6.29h0.81v1.26h-0.81V67.84z M348.34,94.27c0,0.91-0.31,1.69-0.93,2.34
		s-1.37,0.97-2.25,0.97s-1.63-0.32-2.25-0.97s-0.93-1.43-0.93-2.34v-4.73c0-0.91,0.31-1.69,0.93-2.34c0.62-0.65,1.37-0.97,2.25-0.97
		s1.63,0.32,2.25,0.97c0.62,0.65,0.93,1.43,0.93,2.34V94.27z M350.5,59.02h-4.04v2.51h1.61c1.01,0,1.71,0.42,2.12,1.26
		c0.16,0.35,0.26,0.77,0.3,1.26v1.26c-0.04,0.49-0.14,0.91-0.3,1.26c-0.4,0.84-1.11,1.26-2.12,1.26h-0.81
		c-0.47-0.03-0.87-0.13-1.21-0.32c-0.81-0.42-1.21-1.16-1.21-2.21V64.9h1.61v0.84c0.04,0.56,0.31,0.84,0.81,0.84h0.81
		c0.54-0.04,0.81-0.32,0.81-0.84v-2.1c0-0.52-0.27-0.8-0.81-0.84h-3.23v-5.03h5.65V59.02z M357.42,87.65l-1.7,4.25l1.7,4.25v1.42
		h-1.82v-1.42l-1.36-3.79l-1.36,3.79v1.42h-1.82v-1.42l1.7-4.25l-1.7-4.25v-1.42h1.82v1.42l1.36,3.77l1.36-3.77v-1.42h1.82V87.65z
		 M358.57,60.71c0,0.91-0.43,1.53-1.29,1.87c0.86,0.42,1.29,1.06,1.29,1.91v0.84c-0.04,0.49-0.14,0.91-0.3,1.26
		c-0.4,0.84-1.11,1.26-2.12,1.26h-0.81c-0.47-0.03-0.87-0.13-1.21-0.32c-0.81-0.42-1.21-1.16-1.21-2.21V64.9h1.61v0.84
		c0.04,0.56,0.31,0.84,0.81,0.84h0.81c0.54-0.04,0.81-0.32,0.81-0.84v-1.68c-0.04-0.56-0.31-0.84-0.81-0.84h-1.21v-1.26h1.21
		c0.54-0.04,0.81-0.32,0.81-0.84v-1.25c-0.04-0.56-0.31-0.84-0.81-0.84h-0.81c-0.54,0.04-0.81,0.32-0.81,0.84v0.84h-1.61v-0.42
		c0.04-0.49,0.14-0.91,0.3-1.26c0.4-0.84,1.11-1.26,2.12-1.26h0.81c0.47,0.04,0.87,0.15,1.21,0.32c0.81,0.42,1.21,1.16,1.21,2.21
		V60.71z M357.57,40.72v-0.63h2.42v1.26c0.06,0.84,0.46,1.26,1.21,1.26h1.21c0.81-0.06,1.21-0.48,1.21-1.26v-2.53
		c-0.06-0.84-0.46-1.26-1.21-1.26h-1.82v-1.9h1.82c0.81-0.06,1.21-0.48,1.21-1.25v-1.88c-0.06-0.84-0.46-1.25-1.21-1.25h-1.21
		c-0.81,0.06-1.21,0.48-1.21,1.26v1.26h-2.42v-0.63c0.06-0.74,0.21-1.37,0.45-1.89c0.61-1.26,1.66-1.9,3.18-1.9h1.21
		c0.71,0.06,1.31,0.22,1.82,0.47c1.21,0.63,1.82,1.74,1.82,3.32v0.63c0,1.36-0.65,2.3-1.94,2.8c1.29,0.63,1.94,1.59,1.94,2.87v1.26
		c-0.06,0.73-0.21,1.36-0.45,1.89c-0.6,1.26-1.66,1.89-3.18,1.89h-1.21c-0.71-0.04-1.31-0.2-1.82-0.47
		C358.17,43.41,357.57,42.3,357.57,40.72z M366.49,97.57h-5.45V86.23h1.82v9.92h3.63V97.57z M366.64,65.32
		c-0.04,0.49-0.14,0.91-0.3,1.26c-0.4,0.84-1.11,1.26-2.12,1.26H361v-1.26h3.23c0.5,0,0.77-0.28,0.81-0.84v-1.68h-1.61
		c-1.01,0-1.71-0.42-2.12-1.26c-0.16-0.35-0.26-0.77-0.3-1.26v-1.26c0.04-0.49,0.14-0.91,0.3-1.26c0.4-0.84,1.11-1.26,2.12-1.26
		h0.81c0.47,0.04,0.87,0.15,1.21,0.31c0.81,0.42,1.21,1.16,1.21,2.21V65.32z"/>
</g>
<path fill="#FFFFFF" d="M5.96,65.65H0.61V71h5.35V65.65z M5.96,60.35l-5.35,0V55h5.35V60.35z M11.31,65.65H5.96V60.3h5.35V65.65z"/>
<path fill="#FFFFFF" d="M502.04,65.65h5.35V71h-5.35V65.65z M502.04,60.35l5.35,0V55h-5.35V60.35z M496.69,65.65h5.35V60.3h-5.35
	V65.65z"/>
</svg>
