<?xml version="1.0" encoding="utf-8"?>
<!-- Generator: Adobe Illustrator 30.2.1, SVG Export Plug-In . SVG Version: 9.03 Build 0)  -->
<svg version="1.1" baseProfile="tiny" id="animated"
	 xmlns="http://www.w3.org/2000/svg" xmlns:xlink="http://www.w3.org/1999/xlink" x="0px" y="0px" viewBox="0 0 530 74"
	 overflow="visible" xml:space="preserve">
<g id="Frame_1" display="none">
	<path display="inline" fill="#FFB200" d="M526.51,2.67v68.66H3.49V2.67H526.51 M528.51,0.67H1.49v72.66H528.5V0.67H528.51z"/>
	<g display="inline">
		<rect x="7.44" y="6.14" fill="#41351C" width="13.66" height="61.21"/>
		<rect x="26.61" y="6.14" fill="#41351C" width="13.66" height="61.21"/>
		<rect x="45.78" y="6.14" fill="#41351C" width="13.66" height="61.21"/>
		<rect x="64.95" y="6.14" fill="#41351C" width="13.66" height="61.21"/>
		<rect x="84.13" y="6.14" fill="#41351C" width="13.66" height="61.21"/>
		<rect x="103.3" y="6.14" fill="#41351C" width="13.66" height="61.21"/>
		<rect x="122.47" y="6.14" fill="#41351C" width="13.66" height="61.21"/>
		<rect x="141.64" y="6.14" fill="#41351C" width="13.66" height="61.21"/>
		<rect x="160.81" y="6.14" fill="#41351C" width="13.66" height="61.21"/>
		<rect x="179.99" y="6.14" fill="#41351C" width="13.66" height="61.21"/>
		<rect x="199.16" y="6.14" fill="#41351C" width="13.66" height="61.21"/>
		<rect x="218.33" y="6.14" fill="#41351C" width="13.66" height="61.21"/>
		<rect x="237.5" y="6.14" fill="#41351C" width="13.66" height="61.21"/>
		<rect x="256.67" y="6.14" fill="#41351C" width="13.66" height="61.21"/>
		<rect x="275.85" y="6.14" fill="#41351C" width="13.66" height="61.21"/>
		<rect x="295.02" y="6.14" fill="#41351C" width="13.66" height="61.21"/>
		<rect x="314.19" y="6.14" fill="#41351C" width="13.66" height="61.21"/>
		<rect x="333.36" y="6.14" fill="#41351C" width="13.66" height="61.21"/>
		<rect x="352.54" y="6.14" fill="#41351C" width="13.66" height="61.21"/>
		<rect x="371.71" y="6.14" fill="#41351C" width="13.66" height="61.21"/>
		<rect x="390.88" y="6.14" fill="#41351C" width="13.66" height="61.21"/>
		<rect x="410.05" y="6.14" fill="#41351C" width="13.66" height="61.21"/>
		<rect x="429.22" y="6.14" fill="#41351C" width="13.66" height="61.21"/>
		<rect x="448.4" y="6.14" fill="#41351C" width="13.66" height="61.21"/>
		<rect x="467.57" y="6.14" fill="#41351C" width="13.66" height="61.21"/>
		<rect x="486.74" y="6.14" fill="#41351C" width="13.66" height="61.21"/>
		<rect x="505.91" y="6.14" fill="#41351C" width="13.66" height="61.21"/>
	</g>
	<g display="inline">
		<rect x="7.44" y="6.14" fill="#41351C" width="13.66" height="61.21"/>
		<rect x="26.48" y="6.14" fill="#A0740E" width="13.66" height="61.21"/>
		<rect x="45.53" y="6.14" fill="#FFB200" width="13.66" height="61.21"/>
	</g>
</g>
<g id="Frame_2" display="none">
	<path display="inline" fill="#FFB200" d="M526.51,2.67v68.66H3.49V2.67H526.51 M528.51,0.67H1.49v72.66H528.5V0.67H528.51z"/>
	<g display="inline">
		<rect x="7.44" y="6.14" fill="#41351C" width="13.66" height="61.21"/>
		<rect x="26.61" y="6.14" fill="#41351C" width="13.66" height="61.21"/>
		<rect x="45.78" y="6.14" fill="#41351C" width="13.66" height="61.21"/>
		<rect x="64.95" y="6.14" fill="#41351C" width="13.66" height="61.21"/>
		<rect x="84.13" y="6.14" fill="#41351C" width="13.66" height="61.21"/>
		<rect x="103.3" y="6.14" fill="#41351C" width="13.66" height="61.21"/>
		<rect x="122.47" y="6.14" fill="#41351C" width="13.66" height="61.21"/>
		<rect x="141.64" y="6.14" fill="#41351C" width="13.66" height="61.21"/>
		<rect x="160.81" y="6.14" fill="#41351C" width="13.66" height="61.21"/>
		<rect x="179.99" y="6.14" fill="#41351C" width="13.66" height="61.21"/>
		<rect x="199.16" y="6.14" fill="#41351C" width="13.66" height="61.21"/>
		<rect x="218.33" y="6.14" fill="#41351C" width="13.66" height="61.21"/>
		<rect x="237.5" y="6.14" fill="#41351C" width="13.66" height="61.21"/>
		<rect x="256.67" y="6.14" fill="#41351C" width="13.66" height="61.21"/>
		<rect x="275.85" y="6.14" fill="#41351C" width="13.66" height="61.21"/>
		<rect x="295.02" y="6.14" fill="#41351C" width="13.66" height="61.21"/>
		<rect x="314.19" y="6.14" fill="#41351C" width="13.66" height="61.21"/>
		<rect x="333.36" y="6.14" fill="#41351C" width="13.66" height="61.21"/>
		<rect x="352.54" y="6.14" fill="#41351C" width="13.66" height="61.21"/>
		<rect x="371.71" y="6.14" fill="#41351C" width="13.66" height="61.21"/>
		<rect x="390.88" y="6.14" fill="#41351C" width="13.66" height="61.21"/>
		<rect x="410.05" y="6.14" fill="#41351C" width="13.66" height="61.21"/>
		<rect x="429.22" y="6.14" fill="#41351C" width="13.66" height="61.21"/>
		<rect x="448.4" y="6.14" fill="#41351C" width="13.66" height="61.21"/>
		<rect x="467.57" y="6.14" fill="#41351C" width="13.66" height="61.21"/>
		<rect x="486.74" y="6.14" fill="#41351C" width="13.66" height="61.21"/>
		<rect x="505.91" y="6.14" fill="#41351C" width="13.66" height="61.21"/>
	</g>
	<g display="inline">
		<rect x="7.44" y="6.14" fill="#41351C" width="13.66" height="61.21"/>
		<rect x="26.61" y="6.14" fill="#594518" width="13.66" height="61.21"/>
		<rect x="45.78" y="6.14" fill="#715415" width="13.66" height="61.21"/>
		<rect x="64.95" y="6.14" fill="#886412" width="13.66" height="61.21"/>
		<rect x="84.12" y="6.14" fill="#A0740E" width="13.66" height="61.21"/>
		<rect x="103.29" y="6.14" fill="#B8830B" width="13.66" height="61.21"/>
		<rect x="122.46" y="6.14" fill="#D09307" width="13.66" height="61.21"/>
		<rect x="141.63" y="6.14" fill="#E7A204" width="13.66" height="61.21"/>
		<rect x="160.8" y="6.14" fill="#FFB200" width="13.66" height="61.21"/>
	</g>
</g>
<g id="Frame_3" display="none">
	<path display="inline" fill="#FFB200" d="M526.51,2.67v68.66H3.49V2.67H526.51 M528.51,0.67H1.49v72.66H528.5V0.67H528.51z"/>
	<g display="inline">
		<rect x="7.44" y="6.14" fill="#41351C" width="13.66" height="61.21"/>
		<rect x="26.61" y="6.14" fill="#41351C" width="13.66" height="61.21"/>
		<rect x="45.78" y="6.14" fill="#41351C" width="13.66" height="61.21"/>
		<rect x="64.95" y="6.14" fill="#41351C" width="13.66" height="61.21"/>
		<rect x="84.13" y="6.14" fill="#41351C" width="13.66" height="61.21"/>
		<rect x="103.3" y="6.14" fill="#41351C" width="13.66" height="61.21"/>
		<rect x="122.47" y="6.14" fill="#41351C" width="13.66" height="61.21"/>
		<rect x="141.64" y="6.14" fill="#41351C" width="13.66" height="61.21"/>
		<rect x="160.81" y="6.14" fill="#41351C" width="13.66" height="61.21"/>
		<rect x="179.99" y="6.14" fill="#41351C" width="13.66" height="61.21"/>
		<rect x="199.16" y="6.14" fill="#41351C" width="13.66" height="61.21"/>
		<rect x="218.33" y="6.14" fill="#41351C" width="13.66" height="61.21"/>
		<rect x="237.5" y="6.14" fill="#41351C" width="13.66" height="61.21"/>
		<rect x="256.67" y="6.14" fill="#41351C" width="13.66" height="61.21"/>
		<rect x="275.85" y="6.14" fill="#41351C" width="13.66" height="61.21"/>
		<rect x="295.02" y="6.14" fill="#41351C" width="13.66" height="61.21"/>
		<rect x="314.19" y="6.14" fill="#41351C" width="13.66" height="61.21"/>
		<rect x="333.36" y="6.14" fill="#41351C" width="13.66" height="61.21"/>
		<rect x="352.54" y="6.14" fill="#41351C" width="13.66" height="61.21"/>
		<rect x="371.71" y="6.14" fill="#41351C" width="13.66" height="61.21"/>
		<rect x="390.88" y="6.14" fill="#41351C" width="13.66" height="61.21"/>
		<rect x="410.05" y="6.14" fill="#41351C" width="13.66" height="61.21"/>
		<rect x="429.22" y="6.14" fill="#41351C" width="13.66" height="61.21"/>
		<rect x="448.4" y="6.14" fill="#41351C" width="13.66" height="61.21"/>
		<rect x="467.57" y="6.14" fill="#41351C" width="13.66" height="61.21"/>
		<rect x="486.74" y="6.14" fill="#41351C" width="13.66" height="61.21"/>
		<rect x="505.91" y="6.14" fill="#41351C" width="13.66" height="61.21"/>
	</g>
	<g display="inline">
		<rect x="7.44" y="6.14" fill="#41351C" width="13.66" height="61.21"/>
		<rect x="26.61" y="6.14" fill="#503F1A" width="13.66" height="61.21"/>
		<rect x="45.78" y="6.14" fill="#5E4818" width="13.66" height="61.21"/>
		<rect x="64.95" y="6.14" fill="#6D5216" width="13.66" height="61.21"/>
		<rect x="84.13" y="6.14" fill="#7B5B13" width="13.66" height="61.21"/>
		<rect x="103.3" y="6.14" fill="#8A6511" width="13.66" height="61.21"/>
		<rect x="122.47" y="6.14" fill="#996F0F" width="13.66" height="61.21"/>
		<rect x="141.64" y="6.14" fill="#A7780D" width="13.66" height="61.21"/>
		<rect x="160.81" y="6.14" fill="#B6820B" width="13.66" height="61.21"/>
		<rect x="179.99" y="6.14" fill="#C58C09" width="13.66" height="61.21"/>
		<rect x="199.16" y="6.14" fill="#D39506" width="13.66" height="61.21"/>
		<rect x="218.33" y="6.14" fill="#E29F04" width="13.66" height="61.21"/>
		<rect x="237.5" y="6.14" fill="#F0A802" width="13.66" height="61.21"/>
		<rect x="256.67" y="6.14" fill="#FFB200" width="13.66" height="61.21"/>
	</g>
</g>
<g id="Frame_4" display="none">
	<path display="inline" fill="#FFB200" d="M526.51,2.67v68.66H3.49V2.67H526.51 M528.51,0.67H1.49v72.66H528.5V0.67H528.51z"/>
	<g display="inline">
		<rect x="7.44" y="6.14" fill="#41351C" width="13.66" height="61.21"/>
		<rect x="26.61" y="6.14" fill="#41351C" width="13.66" height="61.21"/>
		<rect x="45.78" y="6.14" fill="#41351C" width="13.66" height="61.21"/>
		<rect x="64.95" y="6.14" fill="#41351C" width="13.66" height="61.21"/>
		<rect x="84.13" y="6.14" fill="#41351C" width="13.66" height="61.21"/>
		<rect x="103.3" y="6.14" fill="#41351C" width="13.66" height="61.21"/>
		<rect x="122.47" y="6.14" fill="#41351C" width="13.66" height="61.21"/>
		<rect x="141.64" y="6.14" fill="#41351C" width="13.66" height="61.21"/>
		<rect x="160.81" y="6.14" fill="#41351C" width="13.66" height="61.21"/>
		<rect x="179.99" y="6.14" fill="#41351C" width="13.66" height="61.21"/>
		<rect x="199.16" y="6.14" fill="#41351C" width="13.66" height="61.21"/>
		<rect x="218.33" y="6.14" fill="#41351C" width="13.66" height="61.21"/>
		<rect x="237.5" y="6.14" fill="#41351C" width="13.66" height="61.21"/>
		<rect x="256.67" y="6.14" fill="#41351C" width="13.66" height="61.21"/>
		<rect x="275.85" y="6.14" fill="#41351C" width="13.66" height="61.21"/>
		<rect x="295.02" y="6.14" fill="#41351C" width="13.66" height="61.21"/>
		<rect x="314.19" y="6.14" fill="#41351C" width="13.66" height="61.21"/>
		<rect x="333.36" y="6.14" fill="#41351C" width="13.66" height="61.21"/>
		<rect x="352.54" y="6.14" fill="#41351C" width="13.66" height="61.21"/>
		<rect x="371.71" y="6.14" fill="#41351C" width="13.66" height="61.21"/>
		<rect x="390.88" y="6.14" fill="#41351C" width="13.66" height="61.21"/>
		<rect x="410.05" y="6.14" fill="#41351C" width="13.66" height="61.21"/>
		<rect x="429.22" y="6.14" fill="#41351C" width="13.66" height="61.21"/>
		<rect x="448.4" y="6.14" fill="#41351C" width="13.66" height="61.21"/>
		<rect x="467.57" y="6.14" fill="#41351C" width="13.66" height="61.21"/>
		<rect x="486.74" y="6.14" fill="#41351C" width="13.66" height="61.21"/>
		<rect x="505.91" y="6.14" fill="#41351C" width="13.66" height="61.21"/>
	</g>
	<g display="inline">
		<rect x="7.44" y="6.14" fill="#41351C" width="13.66" height="61.21"/>
		<rect x="26.62" y="6.14" fill="#4B3C1B" width="13.66" height="61.21"/>
		<rect x="45.8" y="6.14" fill="#554219" width="13.66" height="61.21"/>
		<rect x="64.98" y="6.14" fill="#5F4918" width="13.66" height="61.21"/>
		<rect x="84.17" y="6.14" fill="#694F16" width="13.66" height="61.21"/>
		<rect x="103.35" y="6.14" fill="#735615" width="13.66" height="61.21"/>
		<rect x="122.53" y="6.14" fill="#7D5C13" width="13.66" height="61.21"/>
		<rect x="141.71" y="6.14" fill="#876312" width="13.66" height="61.21"/>
		<rect x="160.89" y="6.14" fill="#916A10" width="13.66" height="61.21"/>
		<rect x="180.08" y="6.14" fill="#9B700F" width="13.66" height="61.21"/>
		<rect x="199.26" y="6.14" fill="#A5770D" width="13.66" height="61.21"/>
		<rect x="218.44" y="6.14" fill="#AF7D0C" width="13.66" height="61.21"/>
		<rect x="237.62" y="6.14" fill="#B9840A" width="13.66" height="61.21"/>
		<rect x="256.8" y="6.14" fill="#C38B09" width="13.66" height="61.21"/>
		<rect x="275.99" y="6.14" fill="#CD9107" width="13.66" height="61.21"/>
		<rect x="295.17" y="6.14" fill="#D79806" width="13.66" height="61.21"/>
		<rect x="314.35" y="6.14" fill="#E19E04" width="13.66" height="61.21"/>
		<rect x="333.53" y="6.14" fill="#EBA503" width="13.66" height="61.21"/>
		<rect x="352.71" y="6.14" fill="#F5AB01" width="13.66" height="61.21"/>
		<rect x="371.9" y="6.14" fill="#FFB200" width="13.66" height="61.21"/>
	</g>
</g>
<g id="Frame_5" display="none">
	<path display="inline" fill="#FFB200" d="M526.51,2.67v68.66H3.49V2.67H526.51 M528.51,0.67H1.49v72.66H528.5V0.67H528.51z"/>
	<g display="inline">
		<rect x="7.44" y="6.14" fill="#41351C" width="13.66" height="61.21"/>
		<rect x="26.61" y="6.14" fill="#41351C" width="13.66" height="61.21"/>
		<rect x="45.78" y="6.14" fill="#41351C" width="13.66" height="61.21"/>
		<rect x="64.95" y="6.14" fill="#41351C" width="13.66" height="61.21"/>
		<rect x="84.13" y="6.14" fill="#41351C" width="13.66" height="61.21"/>
		<rect x="103.3" y="6.14" fill="#41351C" width="13.66" height="61.21"/>
		<rect x="122.47" y="6.14" fill="#41351C" width="13.66" height="61.21"/>
		<rect x="141.64" y="6.14" fill="#41351C" width="13.66" height="61.21"/>
		<rect x="160.81" y="6.14" fill="#41351C" width="13.66" height="61.21"/>
		<rect x="179.99" y="6.14" fill="#41351C" width="13.66" height="61.21"/>
		<rect x="199.16" y="6.14" fill="#41351C" width="13.66" height="61.21"/>
		<rect x="218.33" y="6.14" fill="#41351C" width="13.66" height="61.21"/>
		<rect x="237.5" y="6.14" fill="#41351C" width="13.66" height="61.21"/>
		<rect x="256.67" y="6.14" fill="#41351C" width="13.66" height="61.21"/>
		<rect x="275.85" y="6.14" fill="#41351C" width="13.66" height="61.21"/>
		<rect x="295.02" y="6.14" fill="#41351C" width="13.66" height="61.21"/>
		<rect x="314.19" y="6.14" fill="#41351C" width="13.66" height="61.21"/>
		<rect x="333.36" y="6.14" fill="#41351C" width="13.66" height="61.21"/>
		<rect x="352.54" y="6.14" fill="#41351C" width="13.66" height="61.21"/>
		<rect x="371.71" y="6.14" fill="#41351C" width="13.66" height="61.21"/>
		<rect x="390.88" y="6.14" fill="#41351C" width="13.66" height="61.21"/>
		<rect x="410.05" y="6.14" fill="#41351C" width="13.66" height="61.21"/>
		<rect x="429.22" y="6.14" fill="#41351C" width="13.66" height="61.21"/>
		<rect x="448.4" y="6.14" fill="#41351C" width="13.66" height="61.21"/>
		<rect x="467.57" y="6.14" fill="#41351C" width="13.66" height="61.21"/>
		<rect x="486.74" y="6.14" fill="#41351C" width="13.66" height="61.21"/>
		<rect x="505.91" y="6.14" fill="#41351C" width="13.66" height="61.21"/>
	</g>
	<g display="inline">
		<rect x="7.44" y="6.14" fill="#41351C" width="13.66" height="61.21"/>
		<rect x="26.61" y="6.14" fill="#493A1B" width="13.66" height="61.21"/>
		<rect x="45.78" y="6.14" fill="#52401A" width="13.66" height="61.21"/>
		<rect x="64.95" y="6.14" fill="#5A4518" width="13.66" height="61.21"/>
		<rect x="84.12" y="6.14" fill="#624B17" width="13.66" height="61.21"/>
		<rect x="103.29" y="6.14" fill="#6A5016" width="13.66" height="61.21"/>
		<rect x="122.46" y="6.14" fill="#735615" width="13.66" height="61.21"/>
		<rect x="141.63" y="6.14" fill="#7B5B13" width="13.66" height="61.21"/>
		<rect x="160.8" y="6.14" fill="#836012" width="13.66" height="61.21"/>
		<rect x="179.97" y="6.14" fill="#8B6611" width="13.66" height="61.21"/>
		<rect x="199.14" y="6.14" fill="#946B10" width="13.66" height="61.21"/>
		<rect x="218.32" y="6.14" fill="#9C710F" width="13.66" height="61.21"/>
		<rect x="237.49" y="6.14" fill="#A4760D" width="13.66" height="61.21"/>
		<rect x="256.66" y="6.14" fill="#AC7C0C" width="13.66" height="61.21"/>
		<rect x="275.83" y="6.14" fill="#B5810B" width="13.66" height="61.21"/>
		<rect x="295" y="6.14" fill="#BD870A" width="13.66" height="61.21"/>
		<rect x="314.17" y="6.14" fill="#C58C09" width="13.66" height="61.21"/>
		<rect x="333.34" y="6.14" fill="#CD9107" width="13.66" height="61.21"/>
		<rect x="352.51" y="6.14" fill="#D69706" width="13.66" height="61.21"/>
		<rect x="371.68" y="6.14" fill="#DE9C05" width="13.66" height="61.21"/>
		<rect x="390.85" y="6.14" fill="#E6A204" width="13.66" height="61.21"/>
		<rect x="410.02" y="6.14" fill="#EEA702" width="13.66" height="61.21"/>
		<rect x="429.19" y="6.14" fill="#F7AD01" width="13.66" height="61.21"/>
		<rect x="448.36" y="6.14" fill="#FFB200" width="13.66" height="61.21"/>
	</g>
</g>
<g id="Frame_6">
	<path fill="#FFB200" d="M526.51,2.67v68.66H3.49V2.67H526.51 M528.51,0.67H1.49v72.66H528.5V0.67H528.51z"/>
	<g>
		<rect x="7.44" y="6.14" fill="#41351C" width="13.66" height="61.21"/>
		<rect x="26.61" y="6.14" fill="#483A1B" width="13.66" height="61.21"/>
		<rect x="45.78" y="6.14" fill="#503F1A" width="13.66" height="61.21"/>
		<rect x="64.95" y="6.14" fill="#574319" width="13.66" height="61.21"/>
		<rect x="84.13" y="6.14" fill="#5E4818" width="13.66" height="61.21"/>
		<rect x="103.3" y="6.14" fill="#664D17" width="13.66" height="61.21"/>
		<rect x="122.47" y="6.14" fill="#6D5216" width="13.66" height="61.21"/>
		<rect x="141.64" y="6.14" fill="#745714" width="13.66" height="61.21"/>
		<rect x="160.81" y="6.14" fill="#7B5B13" width="13.66" height="61.21"/>
		<rect x="179.99" y="6.14" fill="#836012" width="13.66" height="61.21"/>
		<rect x="199.16" y="6.14" fill="#8A6511" width="13.66" height="61.21"/>
		<rect x="218.33" y="6.14" fill="#916A10" width="13.66" height="61.21"/>
		<rect x="237.5" y="6.14" fill="#996F0F" width="13.66" height="61.21"/>
		<rect x="256.67" y="6.14" fill="#A0730E" width="13.66" height="61.21"/>
		<rect x="275.85" y="6.14" fill="#A7780D" width="13.66" height="61.21"/>
		<rect x="295.02" y="6.14" fill="#AF7D0C" width="13.66" height="61.21"/>
		<rect x="314.19" y="6.14" fill="#B6820B" width="13.66" height="61.21"/>
		<rect x="333.36" y="6.14" fill="#BD870A" width="13.66" height="61.21"/>
		<rect x="352.54" y="6.14" fill="#C58C09" width="13.66" height="61.21"/>
		<rect x="371.71" y="6.14" fill="#CC9008" width="13.66" height="61.21"/>
		<rect x="390.88" y="6.14" fill="#D39506" width="13.66" height="61.21"/>
		<rect x="410.05" y="6.14" fill="#DA9A05" width="13.66" height="61.21"/>
		<rect x="429.22" y="6.14" fill="#E29F04" width="13.66" height="61.21"/>
		<rect x="448.4" y="6.14" fill="#E9A403" width="13.66" height="61.21"/>
		<rect x="467.57" y="6.14" fill="#F0A802" width="13.66" height="61.21"/>
		<rect x="486.74" y="6.14" fill="#F8AD01" width="13.66" height="61.21"/>
		<rect x="505.91" y="6.14" fill="#FFB200" width="13.66" height="61.21"/>
	</g>
</g>
</svg>
