<?xml version="1.0" encoding="utf-8"?>
<!-- Generator: Adobe Illustrator 30.2.1, SVG Export Plug-In . SVG Version: 9.03 Build 0)  -->
<svg version="1.1" baseProfile="tiny" id="Layer_1" xmlns="http://www.w3.org/2000/svg" xmlns:xlink="http://www.w3.org/1999/xlink"
	 x="0px" y="0px" viewBox="0 0 286.55 69.48" overflow="visible" xml:space="preserve">
<line fill="none" stroke="#FFB200" stroke-width="2" stroke-miterlimit="10" x1="0" y1="62.2" x2="286.55" y2="62.2"/>
<polygon fill="#4C3917" points="134.54,30.88 133.02,30.88 133.02,25.31 133.77,24.56 134.54,24.56 134.54,26.94 137.67,26.94 
	137.67,26.09 134.93,26.09 134.93,24.56 139.19,24.56 139.19,28.49 137.55,28.49 139.19,29.78 139.19,30.88 138.1,30.88 
	135.01,28.49 134.54,28.49 "/>
<polygon fill="#4C3917" points="141.56,30.88 140.04,30.88 140.04,26.48 141.56,26.48 141.56,27.5 143.63,27.5 144.39,28.27 
	143.63,29.05 141.56,29.05 "/>
<polygon fill="#4C3917" points="144.64,26.09 140.04,26.09 140.04,24.56 146.17,24.56 146.17,30.88 144.64,30.88 "/>
<polygon fill="#4C3917" points="148.49,30.88 146.97,30.88 146.97,25.31 147.74,24.56 148.49,25.31 "/>
<polygon fill="#4C3917" points="149.85,28.51 148.89,29.31 148.89,27.13 151.88,24.56 152.95,24.56 152.95,25.63 151.04,27.57 
	153.19,29.78 153.19,30.88 152.12,30.88 "/>
<polygon fill="#4C3917" points="158.65,26.09 153.55,26.09 153.55,24.56 158.65,24.56 159.42,25.31 "/>
<polygon fill="#4C3917" points="158.65,29.34 159.42,30.1 158.65,30.88 154.31,30.88 153.55,30.1 153.55,26.47 155.06,26.47 
	155.06,26.94 157.89,26.94 158.63,27.72 157.89,28.49 155.06,28.49 155.06,29.34 "/>
<polygon fill="#4C3917" points="131.47,30.88 126.34,30.88 126.34,26.47 127.87,26.47 127.87,29.34 130.7,29.34 130.7,26.09 
	126.34,26.09 126.34,24.56 131.47,24.56 132.22,25.31 132.22,30.12 "/>
<line fill="none" stroke="#4C3917" stroke-width="2" stroke-miterlimit="10" x1="2.51" y1="38.1" x2="283.25" y2="38.1"/>
<rect x="117.18" y="24.82" fill="#4C3917" width="1" height="6"/>
<rect x="107.81" y="24.82" fill="#4C3917" width="2" height="6"/>
<rect x="99.44" y="24.82" fill="#4C3917" width="1" height="6"/>
<rect x="90.08" y="24.82" fill="#4C3917" width="2" height="6"/>
<rect x="81.71" y="24.82" fill="#4C3917" width="1" height="6"/>
<rect x="203.05" y="24.82" fill="#4C3917" width="1" height="6"/>
<rect x="193.68" y="24.82" fill="#4C3917" width="2" height="6"/>
<rect x="185.31" y="24.82" fill="#4C3917" width="1" height="6"/>
<rect x="175.94" y="24.82" fill="#4C3917" width="2" height="6"/>
<rect x="167.58" y="24.82" fill="#4C3917" width="1" height="6"/>
</svg>
