<?xml version="1.0" encoding="utf-8"?>
<!-- Generator: Adobe Illustrator 30.2.1, SVG Export Plug-In . SVG Version: 9.03 Build 0)  -->
<svg version="1.1" baseProfile="tiny" id="Layer_1" xmlns="http://www.w3.org/2000/svg" xmlns:xlink="http://www.w3.org/1999/xlink"
	 x="0px" y="0px" viewBox="0 0 286.55 69.48" overflow="visible" xml:space="preserve">
<line fill="none" stroke="#FFB200" stroke-width="2" stroke-miterlimit="10" x1="0" y1="7.28" x2="286.55" y2="7.28"/>
<polygon fill="#4C3917" points="134.54,44.93 133.02,44.93 133.02,39.37 133.77,38.61 134.54,38.61 134.54,40.99 137.67,40.99 
	137.67,40.14 134.93,40.14 134.93,38.61 139.19,38.61 139.19,42.54 137.55,42.54 139.19,43.83 139.19,44.93 138.1,44.93 
	135.01,42.54 134.54,42.54 "/>
<polygon fill="#4C3917" points="141.56,44.93 140.04,44.93 140.04,40.53 141.56,40.53 141.56,41.55 143.63,41.55 144.39,42.32 
	143.63,43.1 141.56,43.1 "/>
<polygon fill="#4C3917" points="144.64,40.14 140.04,40.14 140.04,38.61 146.17,38.61 146.17,44.93 144.64,44.93 "/>
<polygon fill="#4C3917" points="148.49,44.93 146.97,44.93 146.97,39.37 147.74,38.61 148.49,39.37 "/>
<polygon fill="#4C3917" points="149.85,42.56 148.89,43.36 148.89,41.19 151.88,38.61 152.95,38.61 152.95,39.69 151.04,41.62 
	153.19,43.83 153.19,44.93 152.12,44.93 "/>
<polygon fill="#4C3917" points="158.65,40.14 153.55,40.14 153.55,38.61 158.65,38.61 159.42,39.37 "/>
<polygon fill="#4C3917" points="158.65,43.39 159.42,44.15 158.65,44.93 154.31,44.93 153.55,44.15 153.55,40.52 155.06,40.52 
	155.06,40.99 157.89,40.99 158.63,41.77 157.89,42.54 155.06,42.54 155.06,43.39 "/>
<polygon fill="#4C3917" points="131.47,44.93 126.34,44.93 126.34,40.53 127.87,40.53 127.87,43.39 130.7,43.39 130.7,40.14 
	126.34,40.14 126.34,38.61 131.47,38.61 132.22,39.37 132.22,44.17 "/>
<line fill="none" stroke="#4C3917" stroke-width="2" stroke-miterlimit="10" x1="2.51" y1="31.38" x2="283.25" y2="31.38"/>
<rect x="117.18" y="38.87" fill="#4C3917" width="1" height="6"/>
<rect x="107.81" y="38.87" fill="#4C3917" width="2" height="6"/>
<rect x="99.44" y="38.87" fill="#4C3917" width="1" height="6"/>
<rect x="90.08" y="38.87" fill="#4C3917" width="2" height="6"/>
<rect x="81.71" y="38.87" fill="#4C3917" width="1" height="6"/>
<rect x="203.05" y="38.87" fill="#4C3917" width="1" height="6"/>
<rect x="193.68" y="38.87" fill="#4C3917" width="2" height="6"/>
<rect x="185.31" y="38.87" fill="#4C3917" width="1" height="6"/>
<rect x="175.94" y="38.87" fill="#4C3917" width="2" height="6"/>
<rect x="167.58" y="38.87" fill="#4C3917" width="1" height="6"/>
</svg>
