<?xml version="1.0" encoding="utf-8"?>
<!-- Generator: Adobe Illustrator 24.1.1, SVG Export Plug-In . SVG Version: 6.00 Build 0)  -->
<svg version="1.1" baseProfile="tiny" xmlns="http://www.w3.org/2000/svg" xmlns:xlink="http://www.w3.org/1999/xlink" x="0px"
	 y="0px" viewBox="0 0 64 64" xml:space="preserve">
<g id="BG">
</g>
<g id="REF">
</g>
<g id="DESIGN">
	<g>
		<g>
			<path fill="#FFFFFF" d="M48.36,34.06l-6.28-0.24c-1.11-0.04-1.97-0.97-1.93-2.08c0.04-1.05,0.89-1.88,1.93-1.92l6.28-0.24
				c1.24-0.05,2.28,0.92,2.33,2.16c0.05,1.24-0.92,2.28-2.16,2.33C48.47,34.07,48.41,34.06,48.36,34.06z"/>
			<path fill="#FFFFFF" d="M34.32,33.53l-6.28-0.24c-0.81-0.03-1.45-0.72-1.42-1.53c0.03-0.77,0.66-1.38,1.42-1.42l6.28-0.24
				c0.95-0.04,1.74,0.7,1.78,1.65c0.04,0.95-0.7,1.74-1.65,1.78C34.41,33.53,34.37,33.53,34.32,33.53z"/>
			<path fill="#FFFFFF" d="M21.35,33l-6.28-0.24c-0.52-0.02-0.93-0.46-0.91-0.98c0.02-0.49,0.42-0.89,0.91-0.91l6.28-0.24
				c0.65-0.03,1.2,0.48,1.23,1.14c0.02,0.65-0.48,1.2-1.14,1.23C21.41,33,21.38,33,21.35,33z"/>
		</g>
		<g>
			<path fill="#FFFFFF" d="M46.63,18.41l-6.06,1.66c-1.07,0.29-2.17-0.33-2.46-1.4c-0.28-1.01,0.28-2.06,1.26-2.42l5.92-2.12
				c1.17-0.42,2.45,0.19,2.87,1.35c0.42,1.17-0.19,2.45-1.35,2.87C46.74,18.38,46.69,18.4,46.63,18.41z"/>
			<path fill="#FFFFFF" d="M33.09,22.14l-6.06,1.66c-0.78,0.22-1.59-0.25-1.81-1.03c-0.2-0.75,0.21-1.52,0.92-1.78l5.92-2.12
				c0.89-0.32,1.87,0.14,2.19,1.03c0.32,0.89-0.14,1.87-1.03,2.19C33.18,22.11,33.13,22.12,33.09,22.14z"/>
			<path fill="#FFFFFF" d="M20.57,25.54l-6.06,1.66c-0.5,0.14-1.02-0.16-1.16-0.66c-0.13-0.48,0.13-0.97,0.59-1.14l5.92-2.12
				c0.62-0.22,1.29,0.1,1.51,0.71c0.22,0.62-0.1,1.29-0.71,1.51C20.63,25.52,20.6,25.53,20.57,25.54z"/>
		</g>
		<g>
			<path fill="#FFFFFF" d="M46.63,45.59l-6.06-1.66c-1.07-0.29-2.17,0.33-2.46,1.4c-0.28,1.01,0.28,2.06,1.26,2.42l5.92,2.12
				c1.17,0.42,2.45-0.19,2.87-1.35c0.42-1.17-0.19-2.45-1.35-2.87C46.74,45.62,46.69,45.6,46.63,45.59z"/>
			<path fill="#FFFFFF" d="M33.09,41.86l-6.06-1.66c-0.78-0.22-1.59,0.25-1.81,1.03c-0.2,0.75,0.21,1.52,0.92,1.78l5.92,2.12
				c0.89,0.32,1.87-0.14,2.19-1.03c0.32-0.89-0.14-1.87-1.03-2.19C33.18,41.89,33.13,41.88,33.09,41.86z"/>
			<path fill="#FFFFFF" d="M20.57,38.46l-6.06-1.66c-0.5-0.14-1.02,0.16-1.16,0.66c-0.13,0.48,0.13,0.97,0.59,1.14l5.92,2.12
				c0.62,0.22,1.29-0.1,1.51-0.71c0.22-0.62-0.1-1.29-0.71-1.51C20.63,38.48,20.6,38.47,20.57,38.46z"/>
		</g>
	</g>
</g>
<g id="Layer_2">
</g>
<g id="Layer_3">
</g>
</svg>
