<?xml version="1.0" encoding="utf-8"?>
<!-- Generator: Adobe Illustrator 24.1.1, SVG Export Plug-In . SVG Version: 6.00 Build 0)  -->
<svg version="1.1" baseProfile="tiny" xmlns="http://www.w3.org/2000/svg" xmlns:xlink="http://www.w3.org/1999/xlink" x="0px"
	 y="0px" viewBox="0 0 154.03 205.97" xml:space="preserve">
<g id="BG">
</g>
<g id="REF">
</g>
<g id="DESIGN">
	<g>
		<path fill="#FFFFFF" d="M77.01,154.73c-9.95,0-19.73-0.19-29.29-0.56l-25.35,44.3c17.67,1.23,36,1.87,54.64,1.87
			c18.64,0,36.97-0.64,54.64-1.87l-25.35-44.3C96.74,154.54,86.96,154.73,77.01,154.73z"/>
		<path fill="#FFFFFF" d="M77.01,51.24c9.95,0,19.73,0.19,29.29,0.56l25.35-44.3c-17.67-1.23-36-1.87-54.64-1.87
			c-18.64,0-36.97,0.64-54.64,1.87l25.35,44.3C57.28,51.43,67.06,51.24,77.01,51.24z"/>
	</g>
</g>
<g id="Layer_2">
</g>
<g id="Layer_3">
</g>
</svg>
