<?xml version="1.0" encoding="utf-8"?>
<!-- Generator: Adobe Illustrator 25.4.1, SVG Export Plug-In . SVG Version: 6.00 Build 0)  -->
<svg version="1.1" baseProfile="tiny" id="Layer_1" xmlns="http://www.w3.org/2000/svg" xmlns:xlink="http://www.w3.org/1999/xlink"
	 x="0px" y="0px" width="25px" height="25px" viewBox="0 0 25 25" overflow="visible" xml:space="preserve">
<polygon fill-rule="evenodd" points="4.4,16.5 4.4,3.5 13,12.2 13,19.7 18.3,14.4 18.3,8.1 14.7,11.8 14.7,9.3 20,4 20,15.1 
	11.3,23.9 11.3,13 6.1,7.6 6.1,15.8 9.6,19.3 9.6,21.7 "/>
<path fill-rule="evenodd" d="M14,2.6l-1.4-1.5l-1.4,1.5L7,2.6l5.5,5.6l5.5-5.6H14z M10.1,3.7l1.9,0l0.6-0.8l0.6,0.8H15l-2.5,2.5
	L10.1,3.7z"/>
</svg>
