<?xml version="1.0" encoding="utf-8"?>
<!-- Generator: Adobe Illustrator 25.4.1, SVG Export Plug-In . SVG Version: 6.00 Build 0)  -->
<svg version="1.1" baseProfile="tiny" id="Layer_1" xmlns="http://www.w3.org/2000/svg" xmlns:xlink="http://www.w3.org/1999/xlink"
	 x="0px" y="0px" width="25px" height="25px" viewBox="0 0 25 25" overflow="visible" xml:space="preserve">
<path id="Location_marker" d="M23.6,11.6h-2c-0.4-4.3-3.9-7.8-8.2-8.2v-2c0-0.5-0.4-0.9-0.9-0.9s-0.9,0.4-0.9,0.9v2
	c-4.3,0.4-7.8,3.9-8.2,8.2h-2c-0.5,0-0.9,0.4-0.9,0.9c0,0.5,0.4,0.9,0.9,0.9h2c0.4,4.3,3.9,7.8,8.2,8.2v2c0,0.5,0.4,0.9,0.9,0.9
	s0.9-0.4,0.9-0.9v-2c4.3-0.4,7.8-3.9,8.2-8.2h2c0.5,0,0.9-0.4,0.9-0.9C24.5,12,24.1,11.6,23.6,11.6z M19.8,11.6h-2
	c-0.4-2.3-2.2-4-4.4-4.4v-2C16.7,5.6,19.4,8.3,19.8,11.6z M11.6,11.6H9c0.3-1.3,1.3-2.3,2.6-2.6V11.6z M11.6,13.4V16
	c-1.3-0.3-2.3-1.3-2.6-2.6H11.6z M13.4,13.4H16c-0.3,1.3-1.3,2.3-2.6,2.6V13.4z M13.4,11.6V9c1.3,0.3,2.3,1.3,2.6,2.6H13.4z
	 M11.6,5.2v2c-2.3,0.4-4,2.2-4.4,4.4h-2C5.6,8.3,8.2,5.6,11.6,5.2z M5.2,13.4h2c0.4,2.3,2.2,4,4.4,4.4v2C8.2,19.4,5.6,16.8,5.2,13.4
	z M13.4,19.8v-2c2.3-0.4,4-2.2,4.4-4.4h2C19.4,16.8,16.7,19.4,13.4,19.8z"/>
</svg>
