<?xml version="1.0" encoding="utf-8"?>
<!-- Generator: Adobe Illustrator 25.4.1, SVG Export Plug-In . SVG Version: 6.00 Build 0)  -->
<svg version="1.1" baseProfile="tiny" id="Layer_1" xmlns="http://www.w3.org/2000/svg" xmlns:xlink="http://www.w3.org/1999/xlink"
	 x="0px" y="0px" width="25px" height="25px" viewBox="0 0 25 25" overflow="visible" xml:space="preserve">
<path fill-rule="evenodd" d="M20.3,23.2l-2.8-2.8l-7.8,0v-4.3H7.5l-2.8,2.8l-3.6-3.6h0v-3.6l0,0V1.9h17v5v0.7h5.7l0,9.9h0v0h0v2.1h0
	L20.3,23.2z M16.8,6.8V3.3H2.6v8.5v1.4v1.4l2.1,2.1l2.1-2.1h2.8V7.5h7.1V6.8z M16.8,9h-5.7v5.7h5.7V9z M22.4,17.5v-1.4V9h-4.3v5.7
	v1.4h-1.4h-5.7v2.8h7.1l2.1,2.1l2.1-2.1V17.5z"/>
</svg>
