<?xml version="1.0" encoding="utf-8"?>
<!-- Generator: Adobe Illustrator 28.7.7, SVG Export Plug-In . SVG Version: 9.03 Build 56771)  -->
<svg version="1.1" baseProfile="tiny" id="Layer_1" xmlns="http://www.w3.org/2000/svg" xmlns:xlink="http://www.w3.org/1999/xlink"
	 x="0px" y="0px" viewBox="0 0 719 29" overflow="visible" xml:space="preserve">
<path id="colorstyle:Disabled" d="M704.5,2c6.9,0,12.5,5.6,12.5,12.5S711.4,27,704.5,27h-690C7.6,27,2,21.4,2,14.5S7.6,2,14.5,2
	H704.5 M704.5,0h-690C6.5,0,0,6.5,0,14.5S6.5,29,14.5,29h690c8,0,14.5-6.5,14.5-14.5S712.5,0,704.5,0L704.5,0z"/>
<path id="colorstyle:Disabled_opacity:85" d="M704.5,22h-690C10.4,22,7,18.6,7,14.5v0C7,10.4,10.4,7,14.5,7h690
	c4.1,0,7.5,3.4,7.5,7.5v0C712,18.6,708.6,22,704.5,22z"/>
</svg>
