<?xml version="1.0" encoding="UTF-8"?>
<svg xmlns="http://www.w3.org/2000/svg" baseProfile="tiny" version="1.2" viewBox="0 0 719 29">
  <!-- Generator: Adobe Illustrator 28.7.7, SVG Export Plug-In . SVG Version: 1.2.0 Build 194)  -->
  <g>
    <g id="Layer_1">
      <path id="colorstyle:Disabled" d="M426.7,2h-133.7V0h133.7v2ZM285,29v-2h-133.7v2h133.7ZM426.7,27h-133.7v2h133.7v-2ZM151.3,2h133.7V0h-133.7v2ZM704.8,0h-128.5v2h128.5c6.9,0,12.5,5.6,12.5,12.5s-5.6,12.5-12.5,12.5h-128.5v2h128.5c8,0,14.5-6.5,14.5-14.5s-6.5-14.5-14.5-14.5ZM143.3,27H14.8c-6.9,0-12.5-5.6-12.5-12.5S7.9,2,14.8,2h128.5V0H14.8C6.8,0,.3,6.5.3,14.5s6.5,14.5,14.5,14.5h128.5v-2ZM434.7,0v2h133.7V0h-133.7ZM568.3,27h-133.6v2h133.7v-2h-.1Z"/>
      <path id="colorstyle:Disabled_opacity:75" d="M704.8,22H14.8c-4.1,0-7.5-3.4-7.5-7.5h0c0-4.1,3.4-7.5,7.5-7.5h690c4.1,0,7.5,3.4,7.5,7.5h0c0,4.1-3.3,7.5-7.5,7.5Z"/>
    </g>
  </g>
</svg>