<?xml version="1.0" encoding="utf-8"?>
<!-- Generator: Adobe Illustrator 27.8.0, SVG Export Plug-In . SVG Version: 6.00 Build 0)  -->
<svg version="1.1" baseProfile="tiny" id="Layer_1" xmlns="http://www.w3.org/2000/svg" xmlns:xlink="http://www.w3.org/1999/xlink"
	 x="0px" y="0px" viewBox="0 0 55.9 36.6" overflow="visible" xml:space="preserve">
<g>
	<g>
		<g>
			<circle fill="#32FFB6" cx="1.8" cy="1.8" r="1.8"/>
		</g>
		<g>
			<circle fill="#32FFB6" cx="54" cy="1.8" r="1.8"/>
		</g>
		<g>
			<circle fill="#32FFB6" cx="1.8" cy="34.8" r="1.8"/>
		</g>
		<g>
			<circle fill="#32FFB6" cx="54" cy="34.8" r="1.8"/>
		</g>
	</g>
	<g>
		<path fill="#FFFFFF" d="M9.6,26.4c-0.8-0.9-1.2-2-1.2-3.4V12.8c0-1.4,0.4-2.6,1.2-3.4c0.8-0.9,1.9-1.3,3.2-1.3
			c1.3,0,2.4,0.4,3.2,1.3c0.8,0.9,1.2,2,1.2,3.4V23c0,1.4-0.4,2.6-1.2,3.4c-0.8,0.9-1.9,1.3-3.2,1.3C11.5,27.7,10.4,27.3,9.6,26.4z
			 M15,25.5c0.6-0.6,0.8-1.4,0.8-2.4V12.7c0-1-0.3-1.8-0.8-2.4c-0.6-0.6-1.3-0.9-2.2-0.9c-0.9,0-1.6,0.3-2.2,0.9
			c-0.6,0.6-0.8,1.4-0.8,2.4v10.4c0,1,0.3,1.8,0.8,2.4s1.3,0.9,2.2,0.9C13.7,26.4,14.5,26.1,15,25.5z"/>
		<path fill="#FFFFFF" d="M23.7,26.4c-0.8-0.9-1.2-2-1.2-3.4V12.8c0-1.4,0.4-2.6,1.2-3.4c0.8-0.9,1.9-1.3,3.2-1.3
			c1.3,0,2.4,0.4,3.2,1.3c0.8,0.9,1.2,2,1.2,3.4V23c0,1.4-0.4,2.6-1.2,3.4c-0.8,0.9-1.9,1.3-3.2,1.3C25.6,27.7,24.5,27.3,23.7,26.4z
			 M29.1,25.5c0.6-0.6,0.8-1.4,0.8-2.4V12.7c0-1-0.3-1.8-0.8-2.4c-0.6-0.6-1.3-0.9-2.2-0.9c-0.9,0-1.6,0.3-2.2,0.9
			c-0.6,0.6-0.8,1.4-0.8,2.4v10.4c0,1,0.3,1.8,0.8,2.4s1.3,0.9,2.2,0.9C27.8,26.4,28.5,26.1,29.1,25.5z"/>
		<path fill="#FFFFFF" d="M44.9,21.7c0,0.7,0,1.4-0.1,2.1c-0.2,1.3-0.6,2.2-1.3,2.9c-0.7,0.7-1.6,1-2.7,1c-1.1,0-1.9-0.3-2.6-0.9
			S37,25.2,36.8,24c-0.1-0.6-0.2-1.4-0.2-2.3l0-9c0-1.4,0.4-2.5,1.1-3.3c0.8-0.8,1.8-1.3,3-1.3c1.1,0,2,0.4,2.8,1.3
			c0.7,0.8,1.1,2,1.1,3.3v0.3c0,0.2-0.1,0.3-0.3,0.3h-0.9c-0.2,0-0.3-0.1-0.3-0.3v-0.3c0-1-0.2-1.8-0.7-2.4c-0.5-0.6-1-0.9-1.7-0.9
			c-0.8,0-1.4,0.3-1.9,0.9S38,11.8,38,12.8v4.2c0,0.1,0,0.1,0,0.1s0.1,0,0.1-0.1c0.3-0.5,0.6-0.8,1.1-1s1-0.4,1.5-0.4
			c1,0,1.9,0.3,2.5,0.9c0.7,0.6,1.1,1.5,1.3,2.6C44.8,19.7,44.9,20.6,44.9,21.7z M43.4,21.6c0-0.8-0.1-1.7-0.3-2.5
			c-0.3-1.5-1.2-2.2-2.4-2.2c-1.3,0-2.1,0.8-2.5,2.3c-0.1,0.7-0.2,1.5-0.2,2.4c0,0.8,0.1,1.5,0.2,2.2c0.3,1.7,1.2,2.6,2.5,2.6
			c1.4,0,2.2-0.9,2.6-2.7C43.4,22.9,43.4,22.2,43.4,21.6z"/>
	</g>
</g>
</svg>
