<?xml version="1.0" encoding="utf-8"?>
<!-- Generator: Adobe Illustrator 27.8.0, SVG Export Plug-In . SVG Version: 6.00 Build 0)  -->
<svg version="1.1" baseProfile="tiny" id="Layer_1" xmlns="http://www.w3.org/2000/svg" xmlns:xlink="http://www.w3.org/1999/xlink"
	 x="0px" y="0px" viewBox="0 0 273.7 4.3" overflow="visible" xml:space="preserve">
<g>
	<path fill="#32FFB6" d="M116.3,4.1c-0.2-0.1-0.4-0.3-0.5-0.5c-0.1-0.2-0.2-0.5-0.2-0.7V1.4c0-0.3,0.1-0.5,0.2-0.7
		c0.1-0.2,0.3-0.4,0.5-0.5c0.2-0.1,0.5-0.2,0.8-0.2c0.3,0,0.6,0.1,0.8,0.2c0.2,0.1,0.4,0.3,0.5,0.5c0.1,0.2,0.2,0.4,0.2,0.7
		c0,0,0,0,0,0.1c0,0,0,0-0.1,0l-0.6,0c0,0-0.1,0-0.1-0.1c0-0.2-0.1-0.4-0.2-0.6c-0.1-0.1-0.3-0.2-0.6-0.2s-0.4,0.1-0.6,0.2
		c-0.1,0.1-0.2,0.3-0.2,0.6v1.5c0,0.2,0.1,0.4,0.2,0.6c0.1,0.1,0.3,0.2,0.6,0.2s0.4-0.1,0.6-0.2c0.1-0.1,0.2-0.3,0.2-0.6
		c0,0,0-0.1,0.1-0.1l0.6,0c0,0,0,0,0.1,0c0,0,0,0,0,0c0,0.3-0.1,0.5-0.2,0.7c-0.1,0.2-0.3,0.4-0.5,0.5c-0.2,0.1-0.5,0.2-0.8,0.2
		C116.8,4.3,116.5,4.2,116.3,4.1z"/>
	<path fill="#32FFB6" d="M119.8,4.2C119.8,4.2,119.7,4.2,119.8,4.2l0-4.1c0,0,0,0,0-0.1c0,0,0,0,0.1,0h0.6c0,0,0,0,0.1,0
		c0,0,0,0,0,0.1v3.5c0,0,0,0,0,0h2c0,0,0,0,0.1,0c0,0,0,0,0,0.1v0.5c0,0,0,0,0,0.1c0,0,0,0-0.1,0L119.8,4.2
		C119.8,4.2,119.8,4.2,119.8,4.2z"/>
	<path fill="#32FFB6" d="M123.6,4.2C123.6,4.2,123.6,4.2,123.6,4.2l0-4.1c0,0,0,0,0-0.1c0,0,0,0,0.1,0h0.6c0,0,0,0,0.1,0
		c0,0,0,0,0,0.1v4.1c0,0,0,0,0,0.1c0,0,0,0-0.1,0L123.6,4.2C123.7,4.2,123.7,4.2,123.6,4.2z"/>
	<path fill="#32FFB6" d="M128,0.2c0.2,0.1,0.3,0.3,0.4,0.4c0.1,0.2,0.2,0.4,0.2,0.7c0,0.2-0.1,0.5-0.2,0.6c-0.1,0.2-0.3,0.3-0.5,0.4
		c-0.2,0.1-0.4,0.2-0.7,0.2h-1c0,0,0,0,0,0v1.6c0,0,0,0,0,0.1c0,0,0,0-0.1,0h-0.6c0,0,0,0-0.1,0s0,0,0-0.1V0.1c0,0,0,0,0-0.1
		c0,0,0,0,0.1,0h1.7C127.6,0,127.8,0.1,128,0.2z M127.7,1.8c0.1-0.1,0.2-0.3,0.2-0.5c0-0.2-0.1-0.4-0.2-0.5s-0.3-0.2-0.5-0.2h-0.9
		c0,0,0,0,0,0v1.3c0,0,0,0,0,0h0.9C127.4,2,127.6,1.9,127.7,1.8z"/>
	<path fill="#32FFB6" d="M133.6,0.1C133.6,0.1,133.7,0,133.6,0.1l0.6,0c0,0,0,0,0.1,0c0,0,0,0,0,0.1v4.1c0,0,0,0,0,0.1
		c0,0,0,0-0.1,0h-0.6c0,0,0,0-0.1,0c0,0,0,0,0-0.1V2.5c0,0,0,0,0,0H132c0,0,0,0,0,0v1.7c0,0,0,0,0,0.1c0,0,0,0-0.1,0h-0.6
		c0,0,0,0-0.1,0s0,0,0-0.1V0.1c0,0,0,0,0-0.1c0,0,0,0,0.1,0h0.6c0,0,0,0,0.1,0c0,0,0,0,0,0.1v1.7c0,0,0,0,0,0h1.5c0,0,0,0,0,0
		L133.6,0.1C133.6,0.1,133.6,0.1,133.6,0.1z"/>
	<path fill="#32FFB6" d="M138.4,0.6C138.4,0.6,138.4,0.6,138.4,0.6l-2.1,0c0,0,0,0,0,0v1.1c0,0,0,0,0,0h1.4c0,0,0,0,0.1,0
		c0,0,0,0,0,0.1v0.5c0,0,0,0,0,0.1s0,0-0.1,0h-1.4c0,0,0,0,0,0v1.2c0,0,0,0,0,0h2c0,0,0,0,0.1,0c0,0,0,0,0,0.1v0.5c0,0,0,0,0,0.1
		c0,0,0,0-0.1,0h-2.7c0,0,0,0-0.1,0s0,0,0-0.1V0.1c0,0,0,0,0-0.1c0,0,0,0,0.1,0h2.7c0,0,0,0,0.1,0c0,0,0,0,0,0.1L138.4,0.6
		C138.4,0.6,138.4,0.6,138.4,0.6z"/>
	<path fill="#32FFB6" d="M142.1,4.2l-0.2-0.6c0,0,0,0,0,0h-1.6c0,0,0,0,0,0l-0.2,0.6c0,0,0,0.1-0.1,0.1h-0.6c0,0,0,0-0.1,0
		c0,0,0,0,0-0.1l1.3-4.1c0,0,0-0.1,0.1-0.1h0.8c0,0,0.1,0,0.1,0.1l1.3,4.1c0,0,0,0,0,0c0,0,0,0.1-0.1,0.1L142.1,4.2
		C142.2,4.2,142.1,4.2,142.1,4.2z M140.5,3h1.2c0,0,0,0,0,0l-0.6-2c0,0,0,0,0,0s0,0,0,0L140.5,3C140.5,3,140.5,3,140.5,3z"/>
	<path fill="#32FFB6" d="M143.9,4.2C143.9,4.2,143.9,4.2,143.9,4.2l0-4.1c0,0,0,0,0-0.1c0,0,0,0,0.1,0h1.5c0.3,0,0.5,0,0.8,0.2
		c0.2,0.1,0.4,0.2,0.5,0.4c0.1,0.2,0.2,0.4,0.2,0.7V3c0,0.2-0.1,0.5-0.2,0.7c-0.1,0.2-0.3,0.3-0.5,0.4c-0.2,0.1-0.5,0.2-0.8,0.2
		L143.9,4.2C144,4.2,144,4.2,143.9,4.2z M144.7,3.6h0.8c0.2,0,0.4-0.1,0.5-0.2c0.1-0.1,0.2-0.3,0.2-0.5V1.4c0-0.2-0.1-0.4-0.2-0.5
		c-0.1-0.1-0.3-0.2-0.5-0.2h-0.8c0,0,0,0,0,0L144.7,3.6C144.6,3.6,144.6,3.6,144.7,3.6z"/>
	<path fill="#32FFB6" d="M148.4,2.1c-0.1-0.1-0.1-0.2-0.1-0.3s0-0.2,0.1-0.3s0.2-0.1,0.3-0.1c0.1,0,0.2,0,0.3,0.1
		c0.1,0.1,0.1,0.2,0.1,0.3s0,0.2-0.1,0.3c-0.1,0.1-0.2,0.1-0.3,0.1C148.6,2.2,148.5,2.2,148.4,2.1z M148.4,4.1
		c-0.1-0.1-0.1-0.2-0.1-0.3c0-0.1,0-0.2,0.1-0.3s0.2-0.1,0.3-0.1c0.1,0,0.2,0,0.3,0.1c0.1,0.1,0.1,0.2,0.1,0.3c0,0.1,0,0.2-0.1,0.3
		s-0.2,0.1-0.3,0.1C148.6,4.2,148.5,4.2,148.4,4.1z"/>
</g>
<g>
	<path fill="#32FFB6" d="M160,0.1C160.1,0.1,160.1,0,160,0.1l0.6,0c0,0,0,0,0.1,0c0,0,0,0,0,0.1v4.1c0,0,0,0,0,0.1c0,0,0,0-0.1,0
		h-0.5c0,0-0.1,0-0.1,0l-1.7-2.8c0,0,0,0,0,0s0,0,0,0l0,2.8c0,0,0,0,0,0.1c0,0,0,0-0.1,0h-0.6c0,0,0,0-0.1,0s0,0,0-0.1V0.1
		c0,0,0,0,0-0.1c0,0,0,0,0.1,0h0.5c0,0,0.1,0,0.1,0l1.7,2.8c0,0,0,0,0,0s0,0,0,0L160,0.1C160,0.1,160,0.1,160,0.1z"/>
	<path fill="#32FFB6" d="M162.7,4.1c-0.2-0.1-0.4-0.3-0.5-0.5c-0.1-0.2-0.2-0.5-0.2-0.7V0.1c0,0,0,0,0-0.1c0,0,0,0,0.1,0h0.6
		c0,0,0,0,0.1,0c0,0,0,0,0,0.1v2.8c0,0.2,0.1,0.4,0.2,0.6c0.1,0.1,0.3,0.2,0.6,0.2s0.4-0.1,0.6-0.2c0.1-0.1,0.2-0.3,0.2-0.6V0.1
		c0,0,0,0,0-0.1c0,0,0,0,0.1,0h0.6c0,0,0,0,0.1,0c0,0,0,0,0,0.1v2.8c0,0.3-0.1,0.5-0.2,0.7c-0.1,0.2-0.3,0.4-0.5,0.5
		c-0.2,0.1-0.5,0.2-0.8,0.2C163.2,4.3,163,4.2,162.7,4.1z"/>
	<path fill="#32FFB6" d="M166.3,4.2C166.3,4.2,166.3,4.2,166.3,4.2l0-4.1c0,0,0,0,0-0.1c0,0,0,0,0.1,0h0.6c0,0,0,0,0.1,0
		c0,0,0,0,0,0.1v3.5c0,0,0,0,0,0h2c0,0,0,0,0.1,0c0,0,0,0,0,0.1v0.5c0,0,0,0,0,0.1c0,0,0,0-0.1,0L166.3,4.2
		C166.4,4.2,166.3,4.2,166.3,4.2z"/>
	<path fill="#32FFB6" d="M170.2,4.2C170.2,4.2,170.2,4.2,170.2,4.2l0-4.1c0,0,0,0,0-0.1c0,0,0,0,0.1,0h0.6c0,0,0,0,0.1,0
		c0,0,0,0,0,0.1v3.5c0,0,0,0,0,0h2c0,0,0,0,0.1,0c0,0,0,0,0,0.1v0.5c0,0,0,0,0,0.1c0,0,0,0-0.1,0L170.2,4.2
		C170.2,4.2,170.2,4.2,170.2,4.2z"/>
</g>
<g>
	<path fill="#32FFB6" d="M217,4.1c-0.2-0.1-0.4-0.3-0.5-0.5c-0.1-0.2-0.2-0.5-0.2-0.7V1.4c0-0.3,0.1-0.5,0.2-0.7
		c0.1-0.2,0.3-0.4,0.5-0.5s0.5-0.2,0.8-0.2c0.3,0,0.6,0.1,0.8,0.2s0.4,0.3,0.5,0.5c0.1,0.2,0.2,0.4,0.2,0.7c0,0,0,0,0,0.1
		c0,0,0,0-0.1,0l-0.6,0c0,0-0.1,0-0.1-0.1c0-0.2-0.1-0.4-0.2-0.6c-0.1-0.1-0.3-0.2-0.6-0.2s-0.4,0.1-0.6,0.2C217,1,217,1.2,217,1.4
		v1.5c0,0.2,0.1,0.4,0.2,0.6c0.1,0.1,0.3,0.2,0.6,0.2s0.4-0.1,0.6-0.2s0.2-0.3,0.2-0.6c0,0,0-0.1,0.1-0.1l0.6,0c0,0,0,0,0.1,0
		c0,0,0,0,0,0c0,0.3-0.1,0.5-0.2,0.7c-0.1,0.2-0.3,0.4-0.5,0.5c-0.2,0.1-0.5,0.2-0.8,0.2C217.5,4.3,217.2,4.2,217,4.1z"/>
	<path fill="#32FFB6" d="M220.5,4.2C220.5,4.2,220.5,4.2,220.5,4.2l0-4.1c0,0,0,0,0-0.1c0,0,0,0,0.1,0h0.6c0,0,0,0,0.1,0
		c0,0,0,0,0,0.1v3.5c0,0,0,0,0,0h2c0,0,0,0,0.1,0c0,0,0,0,0,0.1v0.5c0,0,0,0,0,0.1c0,0,0,0-0.1,0L220.5,4.2
		C220.5,4.2,220.5,4.2,220.5,4.2z"/>
	<path fill="#32FFB6" d="M224.4,4.2C224.3,4.2,224.3,4.2,224.4,4.2l0-4.1c0,0,0,0,0-0.1c0,0,0,0,0.1,0h0.6c0,0,0,0,0.1,0
		c0,0,0,0,0,0.1v4.1c0,0,0,0,0,0.1c0,0,0,0-0.1,0L224.4,4.2C224.4,4.2,224.4,4.2,224.4,4.2z"/>
	<path fill="#32FFB6" d="M228.7,0.2c0.2,0.1,0.3,0.3,0.4,0.4c0.1,0.2,0.2,0.4,0.2,0.7c0,0.2-0.1,0.5-0.2,0.6
		c-0.1,0.2-0.3,0.3-0.5,0.4c-0.2,0.1-0.4,0.2-0.7,0.2h-1c0,0,0,0,0,0v1.6c0,0,0,0,0,0.1c0,0,0,0-0.1,0h-0.6c0,0,0,0-0.1,0s0,0,0-0.1
		V0.1c0,0,0,0,0-0.1c0,0,0,0,0.1,0h1.7C228.3,0,228.5,0.1,228.7,0.2z M228.4,1.8c0.1-0.1,0.2-0.3,0.2-0.5c0-0.2-0.1-0.4-0.2-0.5
		c-0.1-0.1-0.3-0.2-0.5-0.2H227c0,0,0,0,0,0v1.3c0,0,0,0,0,0h0.9C228.1,2,228.3,1.9,228.4,1.8z"/>
	<path fill="#32FFB6" d="M234.3,0.1C234.3,0.1,234.4,0,234.3,0.1l0.6,0c0,0,0,0,0.1,0c0,0,0,0,0,0.1v4.1c0,0,0,0,0,0.1
		c0,0,0,0-0.1,0h-0.6c0,0,0,0-0.1,0c0,0,0,0,0-0.1V2.5c0,0,0,0,0,0h-1.5c0,0,0,0,0,0v1.7c0,0,0,0,0,0.1s0,0-0.1,0h-0.6
		c0,0,0,0-0.1,0s0,0,0-0.1V0.1c0,0,0,0,0-0.1c0,0,0,0,0.1,0h0.6c0,0,0,0,0.1,0c0,0,0,0,0,0.1v1.7c0,0,0,0,0,0h1.5c0,0,0,0,0,0
		L234.3,0.1C234.3,0.1,234.3,0.1,234.3,0.1z"/>
	<path fill="#32FFB6" d="M239.1,0.6C239.1,0.6,239.1,0.6,239.1,0.6l-2.1,0c0,0,0,0,0,0v1.1c0,0,0,0,0,0h1.4c0,0,0,0,0.1,0
		c0,0,0,0,0,0.1v0.5c0,0,0,0,0,0.1s0,0-0.1,0H237c0,0,0,0,0,0v1.2c0,0,0,0,0,0h2c0,0,0,0,0.1,0c0,0,0,0,0,0.1v0.5c0,0,0,0,0,0.1
		s0,0-0.1,0h-2.7c0,0,0,0-0.1,0s0,0,0-0.1V0.1c0,0,0,0,0-0.1c0,0,0,0,0.1,0h2.7c0,0,0,0,0.1,0c0,0,0,0,0,0.1L239.1,0.6
		C239.1,0.6,239.1,0.6,239.1,0.6z"/>
	<path fill="#32FFB6" d="M242.8,4.2l-0.2-0.6c0,0,0,0,0,0H241c0,0,0,0,0,0l-0.2,0.6c0,0,0,0.1-0.1,0.1h-0.6c0,0,0,0-0.1,0
		c0,0,0,0,0-0.1l1.3-4.1c0,0,0-0.1,0.1-0.1h0.8c0,0,0.1,0,0.1,0.1l1.3,4.1c0,0,0,0,0,0c0,0,0,0.1-0.1,0.1L242.8,4.2
		C242.9,4.2,242.8,4.2,242.8,4.2z M241.2,3h1.2c0,0,0,0,0,0l-0.6-2c0,0,0,0,0,0c0,0,0,0,0,0L241.2,3C241.2,3,241.2,3,241.2,3z"/>
	<path fill="#32FFB6" d="M244.7,4.2C244.6,4.2,244.6,4.2,244.7,4.2l0-4.1c0,0,0,0,0-0.1c0,0,0,0,0.1,0h1.5c0.3,0,0.5,0,0.8,0.2
		c0.2,0.1,0.4,0.2,0.5,0.4c0.1,0.2,0.2,0.4,0.2,0.7V3c0,0.2-0.1,0.5-0.2,0.7c-0.1,0.2-0.3,0.3-0.5,0.4s-0.5,0.2-0.8,0.2L244.7,4.2
		C244.7,4.2,244.7,4.2,244.7,4.2z M245.4,3.6h0.8c0.2,0,0.4-0.1,0.5-0.2c0.1-0.1,0.2-0.3,0.2-0.5V1.4c0-0.2-0.1-0.4-0.2-0.5
		c-0.1-0.1-0.3-0.2-0.5-0.2h-0.8c0,0,0,0,0,0L245.4,3.6C245.3,3.6,245.3,3.6,245.4,3.6z"/>
	<path fill="#32FFB6" d="M249.1,2.1C249,2,249,1.9,249,1.8s0-0.2,0.1-0.3s0.2-0.1,0.3-0.1c0.1,0,0.2,0,0.3,0.1s0.1,0.2,0.1,0.3
		s0,0.2-0.1,0.3c-0.1,0.1-0.2,0.1-0.3,0.1C249.3,2.2,249.2,2.2,249.1,2.1z M249.1,4.1C249,4,249,3.9,249,3.8c0-0.1,0-0.2,0.1-0.3
		s0.2-0.1,0.3-0.1c0.1,0,0.2,0,0.3,0.1s0.1,0.2,0.1,0.3c0,0.1,0,0.2-0.1,0.3c-0.1,0.1-0.2,0.1-0.3,0.1
		C249.3,4.2,249.2,4.2,249.1,4.1z"/>
</g>
<g>
	<path fill="#32FFB6" d="M260.8,0.1C260.8,0.1,260.8,0,260.8,0.1l0.6,0c0,0,0,0,0.1,0c0,0,0,0,0,0.1v4.1c0,0,0,0,0,0.1
		c0,0,0,0-0.1,0h-0.5c0,0-0.1,0-0.1,0L259,1.4c0,0,0,0,0,0s0,0,0,0l0,2.8c0,0,0,0,0,0.1c0,0,0,0-0.1,0h-0.6c0,0,0,0-0.1,0s0,0,0-0.1
		V0.1c0,0,0,0,0-0.1c0,0,0,0,0.1,0h0.5c0,0,0.1,0,0.1,0l1.7,2.8c0,0,0,0,0,0s0,0,0,0L260.8,0.1C260.7,0.1,260.7,0.1,260.8,0.1z"/>
	<path fill="#32FFB6" d="M263.4,4.1c-0.2-0.1-0.4-0.3-0.5-0.5c-0.1-0.2-0.2-0.5-0.2-0.7V0.1c0,0,0,0,0-0.1c0,0,0,0,0.1,0h0.6
		c0,0,0,0,0.1,0c0,0,0,0,0,0.1v2.8c0,0.2,0.1,0.4,0.2,0.6c0.1,0.1,0.3,0.2,0.6,0.2s0.4-0.1,0.6-0.2c0.1-0.1,0.2-0.3,0.2-0.6V0.1
		c0,0,0,0,0-0.1c0,0,0,0,0.1,0h0.6c0,0,0,0,0.1,0c0,0,0,0,0,0.1v2.8c0,0.3-0.1,0.5-0.2,0.7c-0.1,0.2-0.3,0.4-0.5,0.5
		c-0.2,0.1-0.5,0.2-0.8,0.2C263.9,4.3,263.7,4.2,263.4,4.1z"/>
	<path fill="#32FFB6" d="M267,4.2C267,4.2,267,4.2,267,4.2l0-4.1c0,0,0,0,0-0.1c0,0,0,0,0.1,0h0.6c0,0,0,0,0.1,0c0,0,0,0,0,0.1v3.5
		c0,0,0,0,0,0h2c0,0,0,0,0.1,0c0,0,0,0,0,0.1v0.5c0,0,0,0,0,0.1c0,0,0,0-0.1,0L267,4.2C267.1,4.2,267.1,4.2,267,4.2z"/>
	<path fill="#32FFB6" d="M270.9,4.2C270.9,4.2,270.9,4.2,270.9,4.2l0-4.1c0,0,0,0,0-0.1c0,0,0,0,0.1,0h0.6c0,0,0,0,0.1,0
		c0,0,0,0,0,0.1v3.5c0,0,0,0,0,0h2c0,0,0,0,0.1,0c0,0,0,0,0,0.1v0.5c0,0,0,0,0,0.1c0,0,0,0-0.1,0L270.9,4.2
		C270.9,4.2,270.9,4.2,270.9,4.2z"/>
</g>
<g>
	<path fill="#EBF4FF" d="M2.3,2.1C2.8,2.3,3,2.6,3,3.1C3,3.5,2.8,3.8,2.6,4C2.3,4.1,2,4.2,1.6,4.2H0.1c0,0,0,0-0.1,0s0,0,0-0.1V0.1
		c0,0,0,0,0-0.1c0,0,0,0,0.1,0h1.5c0.4,0,0.8,0.1,1,0.3c0.2,0.2,0.4,0.5,0.4,0.9C2.9,1.6,2.7,1.9,2.3,2.1C2.3,2.1,2.3,2.1,2.3,2.1z
		 M0.7,0.7v1.1c0,0,0,0,0,0h0.8c0.2,0,0.4-0.1,0.5-0.2s0.2-0.2,0.2-0.4c0-0.2-0.1-0.3-0.2-0.4C1.9,0.7,1.7,0.6,1.5,0.6L0.7,0.7
		C0.7,0.6,0.7,0.7,0.7,0.7z M2.1,3.5C2.2,3.4,2.3,3.2,2.3,3c0-0.2-0.1-0.3-0.2-0.5C2,2.4,1.8,2.4,1.6,2.4H0.7c0,0,0,0,0,0v1.2
		c0,0,0,0,0,0h0.9C1.8,3.6,2,3.6,2.1,3.5z"/>
	<path fill="#EBF4FF" d="M4.1,4.2C4,4.2,4,4.2,4.1,4.2l0-4.1c0,0,0,0,0-0.1c0,0,0,0,0.1,0h0.6c0,0,0,0,0.1,0c0,0,0,0,0,0.1v4.1
		c0,0,0,0,0,0.1c0,0,0,0-0.1,0L4.1,4.2C4.1,4.2,4.1,4.2,4.1,4.2z"/>
	<path fill="#EBF4FF" d="M6.5,4.1C6.3,4,6.1,3.8,6,3.6S5.8,3.1,5.8,2.8V1.5c0-0.3,0.1-0.5,0.2-0.8c0.1-0.2,0.3-0.4,0.5-0.5
		C6.8,0.1,7,0,7.3,0c0.3,0,0.6,0.1,0.8,0.2c0.2,0.1,0.4,0.3,0.5,0.5c0.1,0.2,0.2,0.5,0.2,0.8v1.4c0,0.3-0.1,0.5-0.2,0.8
		S8.4,4,8.1,4.1C7.9,4.2,7.6,4.3,7.3,4.3C7,4.3,6.8,4.2,6.5,4.1z M7.9,3.5c0.2-0.2,0.2-0.4,0.2-0.6V1.5c0-0.3-0.1-0.5-0.2-0.6
		S7.6,0.6,7.3,0.6c-0.2,0-0.4,0.1-0.6,0.2C6.6,1,6.5,1.2,6.5,1.5v1.4c0,0.3,0.1,0.5,0.2,0.6c0.2,0.2,0.4,0.2,0.6,0.2
		C7.6,3.7,7.8,3.6,7.9,3.5z"/>
	<path fill="#EBF4FF" d="M12.7,0h0.6c0,0,0,0,0.1,0c0,0,0,0,0,0.1v4.1c0,0,0,0,0,0.1s0,0-0.1,0h-0.6c0,0,0,0-0.1,0c0,0,0,0,0-0.1
		V1.3c0,0,0,0,0,0c0,0,0,0,0,0l-0.8,1.2c0,0,0,0-0.1,0h-0.3c0,0-0.1,0-0.1,0l-0.8-1.1c0,0,0,0,0,0c0,0,0,0,0,0v2.9c0,0,0,0,0,0.1
		c0,0,0,0-0.1,0H10c0,0,0,0-0.1,0s0,0,0-0.1V0.1c0,0,0,0,0-0.1c0,0,0,0,0.1,0h0.6c0,0,0.1,0,0.1,0l1,1.5c0,0,0,0,0,0c0,0,0,0,0,0
		L12.7,0C12.7,0.1,12.7,0,12.7,0z"/>
	<path fill="#EBF4FF" d="M17.3,0.6C17.3,0.6,17.3,0.6,17.3,0.6l-2.1,0c0,0,0,0,0,0v1.1c0,0,0,0,0,0h1.4c0,0,0,0,0.1,0c0,0,0,0,0,0.1
		v0.5c0,0,0,0,0,0.1s0,0-0.1,0h-1.4c0,0,0,0,0,0v1.2c0,0,0,0,0,0h2c0,0,0,0,0.1,0c0,0,0,0,0,0.1v0.5c0,0,0,0,0,0.1c0,0,0,0-0.1,0
		h-2.7c0,0,0,0-0.1,0s0,0,0-0.1V0.1c0,0,0,0,0-0.1c0,0,0,0,0.1,0h2.7c0,0,0,0,0.1,0c0,0,0,0,0,0.1L17.3,0.6
		C17.4,0.6,17.4,0.6,17.3,0.6z"/>
	<path fill="#EBF4FF" d="M21.2,0.1C21.2,0.1,21.2,0.1,21.2,0.1l0,0.5c0,0,0,0,0,0.1c0,0,0,0-0.1,0H20c0,0,0,0,0,0v3.5c0,0,0,0,0,0.1
		s0,0-0.1,0h-0.6c0,0,0,0-0.1,0c0,0,0,0,0-0.1V0.7c0,0,0,0,0,0h-1.1c0,0,0,0-0.1,0c0,0,0,0,0-0.1V0.1c0,0,0,0,0-0.1c0,0,0,0,0.1,0
		L21.2,0.1C21.2,0,21.2,0.1,21.2,0.1z"/>
	<path fill="#EBF4FF" d="M24.4,4.2l-0.8-1.7c0,0,0,0,0,0h-0.7c0,0,0,0,0,0v1.7c0,0,0,0,0,0.1c0,0,0,0-0.1,0h-0.6c0,0,0,0-0.1,0
		s0,0,0-0.1V0.1c0,0,0,0,0-0.1c0,0,0,0,0.1,0h1.7c0.2,0,0.5,0.1,0.6,0.2c0.2,0.1,0.3,0.2,0.4,0.4c0.1,0.2,0.2,0.4,0.2,0.6
		c0,0.3-0.1,0.5-0.2,0.7c-0.1,0.2-0.3,0.3-0.6,0.4c0,0,0,0,0,0c0,0,0,0,0,0l0.8,1.7c0,0,0,0,0,0c0,0,0,0-0.1,0L24.4,4.2
		C24.5,4.2,24.4,4.2,24.4,4.2z M22.8,0.7v1.2c0,0,0,0,0,0h0.9c0.2,0,0.3-0.1,0.5-0.2c0.1-0.1,0.2-0.3,0.2-0.5c0-0.2-0.1-0.3-0.2-0.5
		c-0.1-0.1-0.3-0.2-0.5-0.2L22.8,0.7C22.9,0.6,22.8,0.7,22.8,0.7z"/>
	<path fill="#EBF4FF" d="M26.1,4.2C26.1,4.2,26.1,4.2,26.1,4.2l0-4.1c0,0,0,0,0-0.1c0,0,0,0,0.1,0h0.6c0,0,0,0,0.1,0c0,0,0,0,0,0.1
		v4.1c0,0,0,0,0,0.1c0,0,0,0-0.1,0L26.1,4.2C26.2,4.2,26.2,4.2,26.1,4.2z"/>
	<path fill="#EBF4FF" d="M28.6,4.1c-0.2-0.1-0.4-0.3-0.5-0.5c-0.1-0.2-0.2-0.5-0.2-0.7V1.4c0-0.3,0.1-0.5,0.2-0.7
		c0.1-0.2,0.3-0.4,0.5-0.5C28.8,0.1,29.1,0,29.4,0c0.3,0,0.6,0.1,0.8,0.2c0.2,0.1,0.4,0.3,0.5,0.5c0.1,0.2,0.2,0.4,0.2,0.7
		c0,0,0,0,0,0.1c0,0,0,0-0.1,0l-0.6,0c0,0-0.1,0-0.1-0.1c0-0.2-0.1-0.4-0.2-0.6c-0.1-0.1-0.3-0.2-0.6-0.2S29,0.7,28.8,0.8
		c-0.1,0.1-0.2,0.3-0.2,0.6v1.5c0,0.2,0.1,0.4,0.2,0.6c0.1,0.1,0.3,0.2,0.6,0.2s0.4-0.1,0.6-0.2c0.1-0.1,0.2-0.3,0.2-0.6
		c0,0,0-0.1,0.1-0.1l0.6,0c0,0,0,0,0.1,0c0,0,0,0,0,0c0,0.3-0.1,0.5-0.2,0.7c-0.1,0.2-0.3,0.4-0.5,0.5c-0.2,0.1-0.5,0.2-0.8,0.2
		C29.1,4.3,28.8,4.2,28.6,4.1z"/>
</g>
<g>
	<path fill="#EBF4FF" d="M40.8,4.2C40.8,4.2,40.8,4.2,40.8,4.2l0-4.1c0,0,0,0,0-0.1c0,0,0,0,0.1,0h1.5c0.3,0,0.5,0,0.8,0.2
		c0.2,0.1,0.4,0.2,0.5,0.4c0.1,0.2,0.2,0.4,0.2,0.7V3c0,0.2-0.1,0.5-0.2,0.7c-0.1,0.2-0.3,0.3-0.5,0.4c-0.2,0.1-0.5,0.2-0.8,0.2
		L40.8,4.2C40.9,4.2,40.8,4.2,40.8,4.2z M41.5,3.6h0.8c0.2,0,0.4-0.1,0.5-0.2c0.1-0.1,0.2-0.3,0.2-0.5V1.4c0-0.2-0.1-0.4-0.2-0.5
		c-0.1-0.1-0.3-0.2-0.5-0.2h-0.8c0,0,0,0,0,0L41.5,3.6C41.5,3.6,41.5,3.6,41.5,3.6z"/>
	<path fill="#EBF4FF" d="M47.1,4.2l-0.2-0.6c0,0,0,0,0,0h-1.6c0,0,0,0,0,0l-0.2,0.6c0,0,0,0.1-0.1,0.1h-0.6c0,0,0,0-0.1,0
		c0,0,0,0,0-0.1l1.3-4.1c0,0,0-0.1,0.1-0.1h0.8c0,0,0.1,0,0.1,0.1l1.3,4.1c0,0,0,0,0,0c0,0,0,0.1-0.1,0.1L47.1,4.2
		C47.2,4.2,47.2,4.2,47.1,4.2z M45.5,3h1.2c0,0,0,0,0,0l-0.6-2c0,0,0,0,0,0c0,0,0,0,0,0L45.5,3C45.5,3,45.5,3,45.5,3z"/>
	<path fill="#EBF4FF" d="M51.1,0.1C51.2,0.1,51.2,0.1,51.1,0.1l0,0.5c0,0,0,0,0,0.1c0,0,0,0-0.1,0H50c0,0,0,0,0,0v3.5c0,0,0,0,0,0.1
		s0,0-0.1,0h-0.6c0,0,0,0-0.1,0c0,0,0,0,0-0.1V0.7c0,0,0,0,0,0h-1.1c0,0,0,0-0.1,0c0,0,0,0,0-0.1V0.1c0,0,0,0,0-0.1c0,0,0,0,0.1,0
		L51.1,0.1C51.1,0,51.1,0.1,51.1,0.1z"/>
	<path fill="#EBF4FF" d="M54.3,4.2l-0.2-0.6c0,0,0,0,0,0h-1.6c0,0,0,0,0,0l-0.2,0.6c0,0,0,0.1-0.1,0.1h-0.6c0,0,0,0-0.1,0
		c0,0,0,0,0-0.1l1.3-4.1c0,0,0-0.1,0.1-0.1h0.8c0,0,0.1,0,0.1,0.1L55,4.2c0,0,0,0,0,0c0,0,0,0.1-0.1,0.1L54.3,4.2
		C54.3,4.2,54.3,4.2,54.3,4.2z M52.6,3h1.2c0,0,0,0,0,0l-0.6-2c0,0,0,0,0,0c0,0,0,0,0,0L52.6,3C52.6,3,52.6,3,52.6,3z"/>
</g>
<g>
	<path fill="#EBF4FF" d="M85,0.2c0.2,0.1,0.3,0.3,0.4,0.4c0.1,0.2,0.2,0.4,0.2,0.7c0,0.2-0.1,0.5-0.2,0.6c-0.1,0.2-0.3,0.3-0.5,0.4
		c-0.2,0.1-0.4,0.2-0.7,0.2h-1c0,0,0,0,0,0v1.6c0,0,0,0,0,0.1c0,0,0,0-0.1,0h-0.6c0,0,0,0-0.1,0s0,0,0-0.1V0.1c0,0,0,0,0-0.1
		c0,0,0,0,0.1,0h1.7C84.6,0,84.8,0.1,85,0.2z M84.8,1.8c0.1-0.1,0.2-0.3,0.2-0.5c0-0.2-0.1-0.4-0.2-0.5s-0.3-0.2-0.5-0.2h-0.9
		c0,0,0,0,0,0v1.3c0,0,0,0,0,0h0.9C84.5,2,84.6,1.9,84.8,1.8z"/>
	<path fill="#EBF4FF" d="M88.9,2.1c0.4,0.2,0.6,0.5,0.6,1c0,0.4-0.1,0.7-0.4,0.9c-0.3,0.2-0.6,0.3-1,0.3h-1.5c0,0,0,0-0.1,0
		s0,0,0-0.1V0.1c0,0,0,0,0-0.1c0,0,0,0,0.1,0h1.5c0.4,0,0.8,0.1,1,0.3c0.2,0.2,0.4,0.5,0.4,0.9C89.5,1.6,89.3,1.9,88.9,2.1
		C88.9,2.1,88.9,2.1,88.9,2.1z M87.3,0.7v1.1c0,0,0,0,0,0h0.8c0.2,0,0.4-0.1,0.5-0.2s0.2-0.2,0.2-0.4c0-0.2-0.1-0.3-0.2-0.4
		c-0.1-0.1-0.3-0.2-0.5-0.2L87.3,0.7C87.3,0.6,87.3,0.7,87.3,0.7z M88.6,3.5c0.1-0.1,0.2-0.3,0.2-0.5c0-0.2-0.1-0.3-0.2-0.5
		c-0.1-0.1-0.3-0.2-0.5-0.2h-0.8c0,0,0,0,0,0v1.2c0,0,0,0,0,0h0.9C88.3,3.6,88.5,3.6,88.6,3.5z"/>
	<path fill="#EBF4FF" d="M90.4,2.7C90.3,2.7,90.3,2.7,90.4,2.7l0-0.5c0,0,0,0,0-0.1s0,0,0.1,0h1.9c0,0,0,0,0.1,0s0,0,0,0.1v0.5
		c0,0,0,0,0,0.1c0,0,0,0-0.1,0L90.4,2.7C90.4,2.7,90.4,2.7,90.4,2.7z"/>
	<path fill="#EBF4FF" d="M93.9,0h0.6c0,0,0,0,0.1,0c0,0,0,0,0,0.1v4.1c0,0,0,0,0,0.1c0,0,0,0-0.1,0h-0.6c0,0,0,0-0.1,0
		c0,0,0,0,0-0.1V0.8c0,0,0,0,0,0s0,0,0,0l-0.6,0.2c0,0,0,0,0,0c0,0,0,0,0,0s0,0,0,0l0-0.4c0,0,0-0.1,0-0.1L93.9,0
		C93.9,0.1,93.9,0,93.9,0z"/>
	<path fill="#EBF4FF" d="M98.2,2.9c0,0.2,0,0.5-0.1,0.6C98,3.8,97.9,4,97.7,4.1c-0.2,0.1-0.5,0.2-0.7,0.2c-0.3,0-0.6-0.1-0.8-0.2
		c-0.2-0.1-0.4-0.3-0.5-0.6c-0.1-0.2-0.1-0.4-0.1-0.6V1.1c0-0.2,0.1-0.4,0.2-0.6c0.1-0.2,0.3-0.3,0.5-0.4S96.6,0,96.9,0
		c0.2,0,0.5,0,0.7,0.1c0.2,0.1,0.3,0.2,0.4,0.4c0.1,0.2,0.2,0.3,0.2,0.6v0.1c0,0,0,0,0,0.1c0,0,0,0-0.1,0h-0.6c0,0,0,0-0.1,0
		c0,0,0,0,0-0.1v0c0-0.2-0.1-0.3-0.2-0.4c-0.1-0.1-0.2-0.2-0.4-0.2c-0.2,0-0.3,0.1-0.4,0.2c-0.1,0.1-0.2,0.2-0.2,0.4v0.7
		c0,0,0,0,0,0c0,0,0,0,0,0c0.2-0.2,0.4-0.2,0.7-0.2c0.2,0,0.4,0.1,0.6,0.2C97.8,1.8,98,2,98.1,2.2C98.2,2.4,98.2,2.6,98.2,2.9z
		 M97.5,2.9c0-0.2,0-0.3-0.1-0.5c-0.1-0.2-0.3-0.3-0.5-0.3c-0.2,0-0.4,0.1-0.5,0.3c-0.1,0.1-0.1,0.3-0.1,0.5c0,0.2,0,0.3,0.1,0.4
		c0.1,0.2,0.3,0.3,0.5,0.3c0.3,0,0.4-0.1,0.5-0.3C97.5,3.2,97.5,3.1,97.5,2.9z"/>
	<path fill="#EBF4FF" d="M101.7,2.9c0,0.2,0,0.4-0.1,0.5c-0.1,0.3-0.2,0.5-0.5,0.6c-0.2,0.2-0.5,0.2-0.8,0.2c-0.3,0-0.6-0.1-0.8-0.2
		c-0.2-0.1-0.4-0.3-0.5-0.6c0-0.1-0.1-0.2-0.1-0.3v0c0,0,0-0.1,0.1-0.1h0.6c0,0,0.1,0,0.1,0.1c0,0,0,0.1,0,0.1
		c0,0.1,0.1,0.2,0.2,0.3c0.1,0.1,0.2,0.1,0.3,0.1c0.1,0,0.3,0,0.4-0.1c0.1-0.1,0.2-0.2,0.2-0.3c0-0.1,0.1-0.2,0.1-0.3
		c0-0.1,0-0.2,0-0.3c0-0.1-0.1-0.2-0.2-0.3c-0.1-0.1-0.2-0.1-0.4-0.1c-0.1,0-0.3,0-0.4,0.1c-0.1,0.1-0.2,0.1-0.2,0.2
		c0,0,0,0.1-0.1,0.1h-0.6c0,0,0,0-0.1,0c0,0,0,0,0-0.1V0.1c0,0,0,0,0-0.1c0,0,0,0,0.1,0h2.3c0,0,0,0,0.1,0c0,0,0,0,0,0.1v0.5
		c0,0,0,0,0,0.1c0,0,0,0-0.1,0h-1.7c0,0,0,0,0,0l0,1.1c0,0,0,0,0,0s0,0,0,0c0.2-0.1,0.4-0.2,0.7-0.2c0.3,0,0.5,0.1,0.7,0.2
		c0.2,0.1,0.3,0.3,0.4,0.6C101.7,2.5,101.7,2.7,101.7,2.9z"/>
</g>
</svg>
