<?xml version="1.0" encoding="utf-8"?>
<!-- Generator: Adobe Illustrator 28.2.0, SVG Export Plug-In . SVG Version: 6.00 Build 0)  -->
<svg version="1.1" baseProfile="tiny" id="Layer_1" xmlns="http://www.w3.org/2000/svg" xmlns:xlink="http://www.w3.org/1999/xlink"
	 x="0px" y="0px" viewBox="0 0 3 102" overflow="visible" xml:space="preserve">
<path id="colorstyle:Bright_opacity:2" d="M1.5,100c-0.6,0-1-0.4-1-1V3c0-0.6,0.4-1,1-1s1,0.4,1,1v96C2.5,99.6,2.1,100,1.5,100z"/>
<path id="colorstyle:Bright_opacity:100" d="M0.6,1.1C0.3,1.1,0,0.9,0,0.6S0.3,0,0.6,0s0.6,0.3,0.6,0.6S0.9,1.1,0.6,1.1z M3,0.6
	C3,0.3,2.7,0,2.4,0S1.9,0.3,1.9,0.6s0.3,0.6,0.6,0.6S3,0.9,3,0.6z M1.1,101.4c0-0.3-0.3-0.6-0.6-0.6S0,101.1,0,101.4
	s0.3,0.6,0.6,0.6S1.1,101.8,1.1,101.4z M3,101.4c0-0.3-0.3-0.6-0.6-0.6s-0.6,0.3-0.6,0.6s0.3,0.6,0.6,0.6S3,101.8,3,101.4z"/>
</svg>
