<?xml version="1.0" encoding="utf-8"?>
<!-- Generator: Adobe Illustrator 27.0.1, SVG Export Plug-In . SVG Version: 6.00 Build 0)  -->
<svg version="1.1" baseProfile="tiny" id="Layer_1" xmlns="http://www.w3.org/2000/svg" xmlns:xlink="http://www.w3.org/1999/xlink"
	 x="0px" y="0px" viewBox="0 0 77.2 71.4" overflow="visible" xml:space="preserve">
<g id="panel_background_and_border_00000166639256880435355240000004439362014331388068_">
	<path d="M64.8,71.4H27.6c-1.8,0-3.6,0-5.7-2.3L2.4,45.3c-1.7-2.2-2.4-4-2.4-6.6V11.9C0,5.4,5.5,0,12.3,0H29v2H12.3
		C6.6,2,2,6.5,2,11.9v26.8c0,1.8,0.3,3.2,1.9,5.3l19.5,23.7c1.5,1.6,2.6,1.6,4.2,1.6h37.2c5.7,0,10.4-4.6,10.4-10.4V12.3
		C75.2,6.6,70.5,2,64.9,2H33.1V0h31.8c6.8,0,12.3,5.5,12.3,12.3V59C77.2,65.8,71.6,71.4,64.8,71.4z"/>
	<circle cx="31" cy="5.1" r="1.3"/>
</g>
</svg>
