<?xml version="1.0" encoding="utf-8"?>
<!-- Generator: Adobe Illustrator 27.0.1, SVG Export Plug-In . SVG Version: 6.00 Build 0)  -->
<svg version="1.1" baseProfile="tiny" id="Layer_1" xmlns="http://www.w3.org/2000/svg" xmlns:xlink="http://www.w3.org/1999/xlink"
	 x="0px" y="0px" viewBox="0 0 106.8 84.2" overflow="visible" xml:space="preserve">
<image display="none" width="108" height="85" xlink:href="97C04F08.png"  transform="matrix(1 0 0 1 -0.6396 -0.1914)">
</image>
<image display="none" width="108" height="85" xlink:href="97C04F09.png"  transform="matrix(1 0 0 1 -0.6396 -0.1914)">
</image>
<path d="M89.4,84.2H13.3C6.3,84.2,0,78.3,0,71.8h2c0,5.3,5.5,10.3,11.2,10.3h76.2V84.2z M106.8,70.6h-2c0,6.7-4.9,11.6-11.6,11.6
	h-1.4v2h1.4C101,84.2,106.8,78.3,106.8,70.6z M23.3,3.4c-0.7,0-1.2,0.5-1.2,1.2s0.5,1.2,1.2,1.2c0.7,0,1.2-0.5,1.2-1.2
	S24,3.4,23.3,3.4z M94.5,0l-69,0.1l0,2l69-0.1c6,0,10.3,4.5,10.3,10.6h2C106.8,5.4,101.5,0,94.5,0z M2.1,12.5
	c0-5.8,4.5-10.4,10.3-10.4h8.8v-2h-8.8C5.5,0.1,0.1,5.6,0.1,12.5v0.4h2V12.5z"/>
</svg>
