<?xml version="1.0" encoding="utf-8"?>
<!-- Generator: Adobe Illustrator 27.0.1, SVG Export Plug-In . SVG Version: 6.00 Build 0)  -->
<svg version="1.1" baseProfile="tiny" id="Layer_1" xmlns="http://www.w3.org/2000/svg" xmlns:xlink="http://www.w3.org/1999/xlink"
	 x="0px" y="0px" viewBox="0 0 49 43.5" overflow="visible" xml:space="preserve">
<path d="M42.6,43.5H6.4c-3.5,0-6.4-2.7-6.4-6v-20c0-0.2,0-0.4,0-0.6c0-1.3,0-2,1.1-3.5l0.1-0.1L13.3,1.3c1.1-0.9,2.6-1.3,4-1.3h25.3
	C46.2,0,49,2.7,49,6v31.6C49,40.9,46.2,43.5,42.6,43.5z M2.3,14.5c-0.8,1.1-0.8,1.5-0.8,2.5c0,0.2,0,0.4,0,0.6v20
	C1.6,40,3.7,42,6.4,42h36.2c2.7,0,4.9-2,4.9-4.4V6c0-2.4-2.2-4.4-4.9-4.4H17.3c-1.1,0-2.2,0.4-3.1,1L2.3,14.5z"/>
</svg>
