<?xml version="1.0" encoding="utf-8"?>
<!-- Generator: Adobe Illustrator 27.0.1, SVG Export Plug-In . SVG Version: 6.00 Build 0)  -->
<svg version="1.1" baseProfile="tiny" id="Layer_1" xmlns="http://www.w3.org/2000/svg" xmlns:xlink="http://www.w3.org/1999/xlink"
	 x="0px" y="0px" viewBox="0 0 72.4 47.2" overflow="visible" xml:space="preserve">
<g>
	<circle fill="#010101" cx="22.1" cy="3.7" r="1.2"/>
	<path fill="#010101" d="M64.5,47.2H7.9c-4.3,0-7.9-3.5-7.9-7.9V7.9C0,3.5,3.5,0,7.9,0h12.5v1H7.9C4.1,1,1,4.1,1,7.9v31.4
		c0,3.8,3.1,6.9,6.9,6.9h56.6c3.8,0,6.9-3.1,6.9-6.9V23.5c0-2.1-0.9-4-2.5-5.3l-19-15.6c-1.2-1-2.8-1.6-4.4-1.6H23.8V0h21.7
		c1.8,0,3.6,0.6,5,1.8l19,15.6c1.8,1.5,2.9,3.7,2.9,6.1v15.8C72.4,43.6,68.9,47.2,64.5,47.2z"/>
</g>
</svg>
