<?xml version="1.0" encoding="utf-8"?>
<!-- Generator: Adobe Illustrator 25.4.1, SVG Export Plug-In . SVG Version: 6.00 Build 0)  -->
<svg version="1.1" baseProfile="tiny" id="Layer_1" xmlns="http://www.w3.org/2000/svg" xmlns:xlink="http://www.w3.org/1999/xlink"
	 x="0px" y="0px" width="64px" height="64px" viewBox="0 0 64 64" overflow="visible" xml:space="preserve">
<path fill="#231F20" d="M31.8,48.8c6,0,11.4-2.5,15.2-6.6c3.6-3.8,5.7-8.9,5.7-14.4c0-6.6-3.1-12.5-7.9-16.3
	c-3.6-2.9-8.1-4.6-13.1-4.6c-5.8,0-11,2.4-14.8,6.1c-3.7,3.9-6.1,9.1-6.1,14.9c0,5.6,2.2,10.6,5.7,14.4
	C20.4,46.3,25.8,48.8,31.8,48.8z M38.8,10c5.9,2.4,10.3,7.2,11.6,13.4H47c-0.7-2.6-2.6-5.5-4.6-7.3v9.7h8.5c0.1,0.6,0.1,1.3,0.1,1.9
	c0,0.6,0,1.1-0.1,1.6h-8.4v9.9c2.1-1.9,3.6-4.4,4.4-6.7h3.6c-1.6,5.9-5.7,10.7-11.6,13L38.8,10L38.8,10z M26.8,9.3
	c1.6-0.4,3.2-0.6,4.9-0.6c1.8,0,3.5,0.2,5.2,0.7v14.1h-3.6V12.3c-0.5-0.1-1.1-0.1-1.6-0.1c-0.4,0-0.9,0-1.4,0.1v13.6H37v3.6h-6.6
	v13.9c0.4,0,0.9,0.1,1.4,0.1c0.6,0,1.1,0,1.6-0.1V32.7H37v13.6c-1.6,0.6-3.4,0.7-5.2,0.7c-1.7,0-3.4-0.3-4.9-0.6L26.8,9.3z
	 M14.5,19.8c0.9-1.9,2.1-3.7,3.6-5.2v20.9c0.9,1.5,1.9,2.9,3.2,4V11.8c1.1-0.7,2.4-1.4,3.6-1.9v35.6c-4.6-1.8-8.4-5.4-10.4-9.8l0,0
	L14.5,19.8L14.5,19.8z"/>
<path fill="#231F20" d="M8.6,27.8c0,5.6,2,10.7,5.3,14.8c4.3,5.1,10.7,8.4,17.9,8.4c7,0,13.2-3.1,17.5-7.9C52.9,39,55,33.7,55,27.8
	c0-6.7-2.9-12.8-7.4-17C43.5,7,37.9,4.6,31.8,4.6c-6.4,0-12.2,2.6-16.4,6.8S8.6,21.4,8.6,27.8z M31.8,6.3c5.9,0,11.3,2.4,15.2,6.3
	c3.9,3.9,6.4,9.3,6.4,15.3S50.9,39.2,47,43.1c-3.9,3.9-9.3,6.3-15.2,6.3c-6.2,0-11.8-2.6-15.8-6.9c-3.6-3.9-5.9-9.1-5.9-14.7
	c0-5.9,2.4-11.3,6.3-15.2C20.4,8.7,25.8,6.3,31.8,6.3z"/>
<path fill="#231F20" d="M56.2,24.6h1.2c-0.8-6.2-3.7-11.8-8.1-15.8C45.4,5.3,40.5,2.9,35,2.2v1.2C40.2,4.1,45,6.5,48.7,10
	C52.8,13.8,55.5,18.9,56.2,24.6z"/>
<path fill="#231F20" d="M6.2,24.6h1.2c0.7-5.5,3.3-10.5,7-14.2c3.7-3.7,8.7-6.3,14.2-7V2.2c-5.8,0.7-11,3.4-14.9,7.2
	C9.6,13.4,6.9,18.7,6.2,24.6z"/>
<path fill="#231F20" d="M56.2,31c-0.7,5.5-3.2,10.4-6.9,14.1c-3.8,3.8-8.7,6.4-14.3,7.1v1.2c6.1-0.7,11.5-3.6,15.5-7.8
	c3.7-3.9,6.2-9,6.9-14.6H56.2z"/>
<path fill="#231F20" d="M28.6,52.2c-5.7-0.7-10.8-3.4-14.6-7.4c-3.6-3.7-5.9-8.5-6.6-13.9H6.2c0.7,5.6,3.2,10.7,6.9,14.6
	c4,4.2,9.4,7.1,15.5,7.8V52.2z"/>
<path fill="#231F20" d="M56.2,12.7l2.6,1.9c-1.5-3.1-3.4-5.8-5.8-8.1c-0.1-0.1-0.3-0.3-0.4-0.4l-0.1,0.1L50,5.6
	C52.4,7.5,54.5,10,56.2,12.7z"/>
<path fill="#231F20" d="M61.8,27.5c0-0.4,0-0.9,0-1.4h-0.1l-1.6-2.3c0.1,1.2,0.2,2.4,0.2,3.6c0,1.9-0.2,3.9-0.6,5.7l0.6,3.2
	C61.3,33.7,61.8,30.7,61.8,27.5z"/>
<path fill="#231F20" d="M60,22.6l1.8,2.7c-0.3-3.6-1.1-7-2.6-10.1L59,15.3l-2.2-1.5C58.3,16.5,59.4,19.5,60,22.6z"/>
<path fill="#231F20" d="M48.4,50.8l-1.8,2.9c2.4-1.4,4.5-3,6.4-4.9c0.5-0.5,1-1.1,1.5-1.6l0,0l0.5-2.9C53.2,46.7,51,48.9,48.4,50.8z
	"/>
<path fill="#231F20" d="M62.2,24.8l1-2.9h0.1c-0.6-3.7-2-7.3-3.9-10.4l0.1,3.3C60.9,17.8,61.8,21.2,62.2,24.8z"/>
<path fill="#231F20" d="M59,13.7l-0.1-2.9l0.1-0.1c-1.3-2.1-2.8-4-4.5-5.7c-0.9-0.9-1.9-1.8-2.9-2.6l1.3,3
	C55.2,7.8,57.3,10.5,59,13.7z"/>
<path fill="#231F20" d="M60.1,37.3l-0.6-2.8c-0.8,3.1-2.1,6-3.8,8.6l-0.6,3.3C57.3,43.7,59,40.6,60.1,37.3L60.1,37.3z"/>
<path fill="#231F20" d="M46,54.5c-2.1,1.1-4.4,2-6.9,2.6l-0.5-0.1l0.4-0.4c2.4-0.6,4.6-1.4,6.7-2.6l1.6-2.6c-2.6,1.7-5.5,3-8.6,3.7
	l0,0l-0.9,0.6c-0.5,0.3-1.5,1-2.2,1.3c-0.9,0.5-2.7,1.2-3.7,1.3c-1-0.1-2.8-0.8-3.7-1.3c-0.6-0.4-1.7-1-2.2-1.3l-0.9-0.6l0,0
	c-3.1-0.8-6-2.1-8.6-3.7l1.6,2.6c2.1,1.1,4.4,2,6.7,2.6l0.4,0.4L24.8,57c-2.4-0.6-4.7-1.5-6.9-2.6v0.1l-3.2-0.3
	c3.1,2,6.4,3.4,10.1,4.3h0.1c2.1-0.4,3,0.6,4.6,1.2c-0.9,0.8-2,1.1-3.1,1.9c1.1,0,2.1,0.3,3.1,0.1c0.9-0.1,1.6-1,2.5-1.4
	c0.9,0.3,1.6,1.2,2.5,1.4c1,0.1,1.9-0.1,3.1-0.1c-1.1-0.8-2.1-1.1-3.1-1.9c1.6-0.6,2.4-1.6,4.6-1.2h0.1c3.6-0.9,7-2.4,10.1-4.3
	L46,54.5L46,54.5z"/>
<path fill="#231F20" d="M55,47.4C52.8,50,50,52.3,47,54l3.1-0.3c1.5-1.1,2.9-2.2,4.2-3.6c1.3-1.3,2.5-2.7,3.5-4.2L55,47.4L55,47.4z"
	/>
<path fill="#231F20" d="M63.4,22.9L62.2,26c0,0.5,0.1,1.1,0.1,1.6c0,3-0.4,5.9-1.3,8.6l2.1-2.4l0,0c0.4-2.1,0.6-4.1,0.6-6.4
	C63.8,26,63.6,24.4,63.4,22.9z"/>
<path fill="#231F20" d="M55.7,46.5l2.9-1.4c2-3.1,3.5-6.4,4.4-10.1l-2.2,2.4C59.5,40.7,57.8,43.8,55.7,46.5z"/>
<path fill="#231F20" d="M11.3,6C11.2,6.1,11,6.3,11,6.3c-2.4,2.4-4.4,5.1-5.8,8.1l2.6-1.9c1.6-2.7,3.8-5.1,6.2-7.1L11.5,6L11.3,6z"
	/>
<path fill="#231F20" d="M2.2,26.2L2.2,26.2c-0.1,0.4-0.1,0.9-0.1,1.4c0,3.1,0.5,6.1,1.4,8.9l0.6-3.2c-0.4-1.9-0.6-3.8-0.6-5.7
	c0-1.2,0.1-2.4,0.2-3.6L2.2,26.2z"/>
<path fill="#231F20" d="M4,22.6c0.6-3.1,1.6-6.1,3.1-8.9l-2.2,1.5l-0.1-0.1c-1.4,3.1-2.4,6.6-2.6,10.1L4,22.6z"/>
<path fill="#231F20" d="M10.9,48.8c1.9,1.9,4,3.5,6.4,4.9l-1.8-2.9c-2.6-1.9-4.8-4.1-6.6-6.6l0.5,2.9l0,0
	C9.9,47.7,10.4,48.2,10.9,48.8z"/>
<path fill="#231F20" d="M1.7,24.8c0.4-3.6,1.3-6.9,2.7-10l0.1-3.3c-1.9,3.1-3.2,6.7-3.9,10.4h0.1L1.7,24.8z"/>
<path fill="#231F20" d="M11.2,5.4l1.3-3c-1,0.8-2,1.6-2.9,2.6c-1.7,1.7-3.2,3.6-4.5,5.7l0.1,0.1L5,13.7C6.6,10.5,8.7,7.8,11.2,5.4z"
	/>
<path fill="#231F20" d="M8.2,43.1c-1.7-2.6-3-5.5-3.8-8.6l-0.6,2.8H3.7c1.1,3.3,2.9,6.4,5,9L8.2,43.1z"/>
<path fill="#231F20" d="M9,47.4L9,47.4l-3-1.5c1.1,1.5,2.2,2.9,3.5,4.2c1.3,1.3,2.7,2.5,4.2,3.6l3.1,0.3C14,52.2,11.2,50,9,47.4z"/>
<path fill="#231F20" d="M1.7,27.5c0-0.6,0-1.1,0.1-1.6l-1.1-3.1c-0.2,1.5-0.4,3.1-0.4,4.6c0,2.1,0.2,4.3,0.6,6.4l0,0L3,36.2
	C2.1,33.5,1.7,30.5,1.7,27.5z"/>
<path fill="#231F20" d="M3.2,37.4L1,35C1.9,38.6,3.4,42,5.4,45l2.9,1.4C6.1,43.8,4.4,40.7,3.2,37.4z"/>
</svg>
