<?xml version="1.0" encoding="utf-8"?>
<!-- Generator: Adobe Illustrator 26.0.1, SVG Export Plug-In . SVG Version: 6.00 Build 0)  -->
<svg version="1.1" baseProfile="tiny" id="Layer_1" xmlns="http://www.w3.org/2000/svg" xmlns:xlink="http://www.w3.org/1999/xlink"
	 x="0px" y="0px" viewBox="0 0 1920 1080" overflow="visible" xml:space="preserve">
<g>
	<path fill="none" stroke="#7A7430" stroke-miterlimit="10" d="M624,722.9l-12.6-19.7c-24.4-38.2-66.6-61.4-112-61.4h0h0.1h0
		c-45.3,0-87.6,23.1-112,61.4l-12.6,19.7"/>
	<path fill="none" stroke="#7A7430" stroke-miterlimit="10" d="M679.9,610.9L679.9,610.9c-41.4-38.7-95.9-60.3-152.6-60.3h-27.9h0.1
		h-27.9c-56.7,0-111.2,21.6-152.6,60.3l0,0"/>
	<path fill="none" stroke="#7A7430" stroke-miterlimit="10" d="M741.4,394.7l-84.2-17.9c-31.2-6.6-63-10-94.9-10h-62.9h0.1h-62.9
		c-31.9,0-63.7,3.3-94.9,10l-84.2,17.9"/>
	<path fill="none" stroke="#7A7430" stroke-miterlimit="10" d="M698.9,230.1l-49.8,23.1c-34,15.8-70.9,24-108.4,24h-41.3h0.1h-41.3
		c-37.4,0-74.4-8.2-108.4-24L300,230.1"/>
</g>
</svg>
