<?xml version="1.0" encoding="utf-8"?>
<!-- Generator: Adobe Illustrator 26.5.2, SVG Export Plug-In . SVG Version: 6.00 Build 0)  -->
<svg version="1.1" baseProfile="tiny" id="GREEBLKES"
	 xmlns="http://www.w3.org/2000/svg" xmlns:xlink="http://www.w3.org/1999/xlink" x="0px" y="0px" viewBox="0 0 1920 1080"
	 overflow="visible" xml:space="preserve">
<path fill="#79742E" d="M1852.3,84.4l-39.8,0l-16.1-16.1h0l0,0l-0.9,0h-607.4h-57.6L1116,82.7h-87l-7.4-7.4H898.4l-7.4,7.4h-87
	l-14.4-14.4h-57.6H124.5l-0.9,0l0,0h0l-16.1,16.1l-39.8,0l-17.6,17.6v891.6l18.2,18.2h1783.3l18.2-18.2V101.9L1852.3,84.4z
	 M1864.8,991.5l-15.3,15.3H70.4l-15.3-15.3V104l14.6-14.6l32.7,0l0,0h5.7l1.4,0l0,0h50.6l16.1-16.1h560.7l14.5,14.5l51.7-0.1h90
	l7.4-7.4h119.1l7.4,7.4h90l51.7,0.1l14.5-14.5h560.7l16.1,16.1h50.6l0,0l1.4,0h5.7l0,0l32.7,0l14.6,14.6V991.5z"/>
</svg>
