<?xml version="1.0" encoding="utf-8"?>
<!-- Generator: Adobe Illustrator 27.3.1, SVG Export Plug-In . SVG Version: 6.00 Build 0)  -->
<svg version="1.1" baseProfile="tiny" id="GREEBLKES"
	 xmlns="http://www.w3.org/2000/svg" xmlns:xlink="http://www.w3.org/1999/xlink" x="0px" y="0px" viewBox="0 0 1920 1080"
	 overflow="visible" xml:space="preserve">
<polygon fill="#3A3C23" points="1864.8,991.5 1849.5,1006.8 70.4,1006.8 55.1,991.5 55.1,104 69.7,89.4 102.4,89.4 102.4,89.4 
	108.1,89.4 109.5,89.4 109.5,89.4 160.1,89.4 176.2,73.3 736.9,73.3 751.4,87.8 803.1,87.7 893.1,87.7 900.5,80.3 1019.6,80.3 
	1027,87.7 1117,87.7 1168.7,87.8 1183.2,73.3 1743.9,73.3 1760,89.4 1810.6,89.4 1810.6,89.4 1812,89.4 1817.7,89.4 1817.7,89.4 
	1850.4,89.4 1865,104 1865,991.5 "/>
</svg>
