<?xml version="1.0" encoding="utf-8"?>
<!-- Generator: Adobe Illustrator 26.5.2, SVG Export Plug-In . SVG Version: 6.00 Build 0)  -->
<svg version="1.1" baseProfile="tiny" id="Layer_1" xmlns="http://www.w3.org/2000/svg" xmlns:xlink="http://www.w3.org/1999/xlink"
	 x="0px" y="0px" viewBox="0 0 1920 1080" overflow="visible" xml:space="preserve">
<polygon id="Border_00000004505842293552809540000012415459145505963180_" fill="#7A7430" points="1667.7,269.5 1615.8,269.5 
	1589.1,242.9 1463.5,242.9 1463.5,277.1 1478.5,292.1 1666.2,292.1 1666.2,476 953.2,476 953.2,292.1 1141.6,292.1 1156.6,277.1 
	1156.6,242.9 1030.2,242.9 1003.6,269.5 951.7,269.5 930.3,290.5 930.3,479.6 951.7,501.1 1144.6,501.1 1156.9,488.4 1463.5,488.4 
	1475.8,501.1 1667.4,501.1 1667.7,501.1 1689.1,479.6 1689.1,290.5 "/>
<path id="Bolts_00000147911395231329846870000001803813429681637771_" fill="#4F5320" d="M1147.9,254.4c-1.6,0-2.8-1.3-2.8-2.8
	s1.3-2.8,2.8-2.8s2.8,1.3,2.8,2.8S1149.5,254.4,1147.9,254.4z M1041.6,251.6c0-1.6-1.3-2.8-2.8-2.8s-2.8,1.3-2.8,2.8
	s1.3,2.8,2.8,2.8S1041.6,253.1,1041.6,251.6z M1015.1,278.2c0-1.6-1.3-2.8-2.8-2.8s-2.8,1.3-2.8,2.8c0,1.6,1.3,2.8,2.8,2.8
	S1015.1,279.7,1015.1,278.2z M941.8,299.1c0-1.6-1.3-2.8-2.8-2.8c-1.6,0-2.8,1.3-2.8,2.8s1.3,2.8,2.8,2.8
	C940.5,301.9,941.8,300.7,941.8,299.1z M941.8,470.9c0-1.6-1.3-2.8-2.8-2.8c-1.6,0-2.8,1.3-2.8,2.8s1.3,2.8,2.8,2.8
	C940.5,473.7,941.8,472.5,941.8,470.9z M963.1,492.4c0-1.6-1.3-2.8-2.8-2.8s-2.8,1.3-2.8,2.8s1.3,2.8,2.8,2.8S963.1,494,963.1,492.4
	z M1138.7,492.4c0-1.6-1.3-2.8-2.8-2.8c-1.6,0-2.8,1.3-2.8,2.8s1.3,2.8,2.8,2.8C1137.4,495.2,1138.7,494,1138.7,492.4z
	 M1135.7,283.4c0-1.6-1.3-2.8-2.8-2.8c-1.6,0-2.8,1.3-2.8,2.8s1.3,2.8,2.8,2.8C1134.5,286.2,1135.7,285,1135.7,283.4z M1471.3,254.4
	c1.6,0,2.8-1.3,2.8-2.8s-1.3-2.8-2.8-2.8c-1.6,0-2.8,1.3-2.8,2.8S1469.7,254.4,1471.3,254.4z M1580.4,254.4c1.6,0,2.8-1.3,2.8-2.8
	s-1.3-2.8-2.8-2.8c-1.6,0-2.8,1.3-2.8,2.8S1578.8,254.4,1580.4,254.4z M1606.9,281c1.6,0,2.8-1.3,2.8-2.8c0-1.6-1.3-2.8-2.8-2.8
	c-1.6,0-2.8,1.3-2.8,2.8C1604.1,279.7,1605.4,281,1606.9,281z M1680.3,301.9c1.6,0,2.8-1.3,2.8-2.8s-1.3-2.8-2.8-2.8
	s-2.8,1.3-2.8,2.8S1678.7,301.9,1680.3,301.9z M1680.3,473.7c1.6,0,2.8-1.3,2.8-2.8s-1.3-2.8-2.8-2.8s-2.8,1.3-2.8,2.8
	S1678.7,473.7,1680.3,473.7z M1658.9,495.2c1.6,0,2.8-1.3,2.8-2.8s-1.3-2.8-2.8-2.8s-2.8,1.3-2.8,2.8S1657.4,495.2,1658.9,495.2z
	 M1483.3,495.2c1.6,0,2.8-1.3,2.8-2.8s-1.3-2.8-2.8-2.8c-1.6,0-2.8,1.3-2.8,2.8S1481.8,495.2,1483.3,495.2z M1486.3,286.2
	c1.6,0,2.8-1.3,2.8-2.8s-1.3-2.8-2.8-2.8c-1.6,0-2.8,1.3-2.8,2.8S1484.7,286.2,1486.3,286.2z"/>
<path id="Garrity_00000172418385489218060670000002712729290309563823_" fill="#C1B13E" d="M1207.8,244.9L1207.8,244.9
	c0.4,0.4,0.8,0.9,1.1,1.5l0.3,0.6c0.4,0.8,0.6,1.7,0.6,2.6v9.3h-7.5v-6.2c0-0.6-0.2-1.2-0.7-1.6l0,0c-0.4-0.4-1-0.7-1.6-0.7H1185
	c-0.6,0-1.2,0.2-1.6,0.7l0,0c-0.4,0.4-0.7,1-0.7,1.6v39c0,0.6,0.2,1.2,0.7,1.6l0,0c0.4,0.4,1,0.7,1.6,0.7h15.1
	c0.6,0,1.2-0.2,1.6-0.7l0,0c0.4-0.4,0.7-1,0.7-1.6V277h-5.8v-7.5h13.3v25.2c0,0.9-0.2,1.8-0.6,2.6l-0.3,0.6
	c-0.3,0.6-0.6,1.1-1.1,1.5l0,0c-0.4,0.4-0.9,0.8-1.5,1.1l-0.6,0.3c-0.8,0.4-1.7,0.6-2.6,0.6h-21.2c-0.9,0-1.8-0.2-2.6-0.6l-0.6-0.3
	c-0.6-0.3-1.1-0.6-1.5-1.1l0,0c-0.4-0.4-0.8-0.9-1.1-1.5l-0.3-0.6c-0.4-0.8-0.6-1.7-0.6-2.6v-45.1c0-0.9,0.2-1.8,0.6-2.6l0.3-0.6
	c0.3-0.6,0.6-1.1,1.1-1.5l0,0c0.4-0.4,0.9-0.8,1.5-1.1l0.6-0.3c0.8-0.4,1.7-0.6,2.6-0.6h21.2c0.9,0,1.8,0.2,2.6,0.6l0.6,0.3
	C1206.9,244.1,1207.4,244.5,1207.8,244.9z M1252.9,249.6v51.8h-7.9V277h-16.1v24.4h-7.9v-51.8c0-0.9,0.2-1.8,0.6-2.6l0.3-0.6
	c0.3-0.6,0.6-1.1,1.1-1.5l0,0c0.4-0.4,0.9-0.8,1.5-1.1l0.6-0.3c0.8-0.4,1.7-0.6,2.6-0.6h18.5c0.9,0,1.8,0.2,2.6,0.6l0.6,0.3
	c0.6,0.3,1.1,0.6,1.5,1.1l0,0c0.4,0.4,0.8,0.9,1.1,1.5l0.3,0.6C1252.6,247.8,1252.9,248.7,1252.9,249.6z M1244.9,252.7
	c0-0.6-0.2-1.2-0.7-1.6l0,0c-0.4-0.4-1-0.7-1.6-0.7h-11.5c-0.6,0-1.2,0.2-1.6,0.7l0,0c-0.4,0.4-0.7,1-0.7,1.6v16.8h16.1V252.7z
	 M1293.9,244.9L1293.9,244.9c0.4,0.4,0.8,0.9,1.1,1.5l0.3,0.6c0.4,0.8,0.6,1.7,0.6,2.6v20.7c0,0.9-0.2,1.8-0.6,2.6l-0.3,0.6
	c-0.3,0.6-0.6,1.1-1.1,1.5l0,0c-0.4,0.4-0.9,0.8-1.5,1.1l-0.6,0.3c-0.8,0.4-1.7,0.6-2.6,0.6h-6.2l12.4,24.4h-7.5l-12.4-24.4h-4v24.4
	h-7.5v-53.2l0,0v-5.3h3.8h1.5h19.9c0.9,0,1.8,0.2,2.6,0.6l0.6,0.3C1292.9,244.1,1293.4,244.5,1293.9,244.9z M1288.4,267.3v-14.6
	c0-0.6-0.2-1.2-0.7-1.6l0,0c-0.4-0.4-1-0.7-1.6-0.7h-14.7v19.1h14.7c0.6,0,1.2-0.2,1.6-0.7l0,0
	C1288.1,268.4,1288.4,267.9,1288.4,267.3z M1336.9,244.9L1336.9,244.9c0.4,0.4,0.8,0.9,1.1,1.5l0.3,0.6c0.4,0.8,0.6,1.7,0.6,2.6
	v20.7c0,0.9-0.2,1.8-0.6,2.6l-0.3,0.6c-0.3,0.6-0.6,1.1-1.1,1.5l0,0c-0.4,0.4-0.9,0.8-1.5,1.1l-0.6,0.3c-0.8,0.4-1.7,0.6-2.6,0.6
	h-6.2l12.4,24.4h-7.5l-12.4-24.4h-4v24.4h-7.5v-53.2l0,0v-5.3h3.9h1.4h19.9c0.9,0,1.8,0.2,2.6,0.6l0.6,0.3
	C1336,244.1,1336.5,244.5,1336.9,244.9z M1331.4,267.3v-14.6c0-0.6-0.2-1.2-0.7-1.6l0,0c-0.4-0.4-1-0.7-1.6-0.7h-14.7v19.1h14.7
	c0.6,0,1.2-0.2,1.6-0.7l0,0C1331.2,268.4,1331.4,267.9,1331.4,267.3z M1349.6,301.4h7.5v-58.5h-7.5V301.4z M1367,250.4h14.4v51h7.5
	v-51h14.4v-7.5H1367V250.4z M1439.3,242.9l-10.6,21.2l-10.8-21.2h-7.9l14.6,29.3l-14.6,29.2h7.4l29.4-58.5H1439.3z"/>
<path id="DEFENCE_00000167393363099787371470000000620968651943214477_" fill="#C1B13E" d="M980.1,316.5h22.9v137.1h-22.9V316.5z
	 M1039.7,339.4h-28.8v-22.9h37.9l13.7,13.5v110.2l-13.7,13.5h-37.9v-22.6h28.8V339.4z M1101.4,453.7h-8.9h-13.9V316.5h13.9h8.9
	V453.7z M1109.4,339.4v-22.9h51.7v9.1l-13.7,13.7H1109.4z M1109.4,399.1V376h33.4v23.1H1109.4z M1109.4,453.7v-22.6h37.9l13.7,13.7
	v8.9H1109.4z M1186.9,316.5h8.9v137.1H1173V316.5H1186.9z M1241.8,339.4h-37.9v-22.9h51.7v9.1L1241.8,339.4z M1203.8,399.1V376h33.4
	v23.1H1203.8z M1288.9,453.7h-8.9H1266V316.5h13.9h8.9V453.7z M1296.9,339.4v-22.9h51.7v9.1l-13.7,13.7H1296.9z M1296.9,399.1V376
	h33.4v23.1H1296.9z M1296.9,453.7v-22.6h37.9l13.7,13.7v8.9H1296.9z M1383.3,316.1v137.1h-8.9h-13.9V329.8l13.9-13.7H1383.3z
	 M1391.2,331.6l26.7,53.5v55.1l-26.7-53.3V331.6z M1433.8,453.2h-9.1V316.1h9.1h13.9v123.6L1433.8,453.2z M1582.3,453.7h-8.9h-13.9
	V316.5h13.9h8.9V453.7z M1590.3,339.4v-22.9h51.7v9.1l-13.7,13.7H1590.3z M1590.3,399.1V376h33.4v23.1H1590.3z M1590.3,453.7v-22.6
	h37.9l13.7,13.7v8.9H1590.3z"/>
<g>
	<polygon fill="#C1B13E" points="1486.6,316.5 1477.6,316.5 1463.7,330 1463.7,359.6 1523.4,418.8 1523.4,453.7 1532.3,453.7 
		1546.2,440.2 1546.2,410.2 1486.6,351 	"/>
	<polygon fill="#C1B13E" points="1532.5,316.5 1494.6,316.5 1494.6,339.4 1523.4,339.4 1523.4,362.3 1532.5,362.3 1546.2,348.5 
		1546.2,330 	"/>
	<polygon fill="#C1B13E" points="1486.6,408 1477.4,408 1463.7,421.9 1463.7,440.2 1477.4,453.7 1515.4,453.7 1515.4,431.1 
		1486.6,431.1 	"/>
</g>
</svg>
