<?xml version="1.0" encoding="utf-8"?>
<!-- Generator: Adobe Illustrator 26.0.1, SVG Export Plug-In . SVG Version: 6.00 Build 0)  -->
<svg version="1.1" baseProfile="tiny" id="Layer_2" xmlns="http://www.w3.org/2000/svg" xmlns:xlink="http://www.w3.org/1999/xlink"
	 x="0px" y="0px" viewBox="0 0 1920 1080" overflow="visible" xml:space="preserve">
<g>
	<path fill="none" stroke="#C1B13E" stroke-width="2.0999" stroke-miterlimit="10" d="M309.3,683.4l-76.9-179.2
		c-5.3-15.6-8.4-31.6-9.2-47.8l-5.7-116.4c-0.3-5.8,2.4-11.5,7.3-15.5l16.9-13.9l27.4-67.5l37-41.3c0.9-1,2-1.9,3.1-2.6l45.4-27.7
		c3.1-1.9,6.8-2.5,10.4-1.7l13.5,3"/>
	<path fill="none" stroke="#C1B13E" stroke-width="2.0999" stroke-miterlimit="10" d="M404.2,768.5V727c0-2.3,1.9-4.1,4.3-4.1h29.5
		c2.4,0,4.3,1.8,4.3,4.1v41.5"/>
	<path fill="none" stroke="#C1B13E" stroke-width="2.0999" stroke-miterlimit="10" d="M449,789.6c0,8.6-0.4,19.2-4.9,25
		c-4.7,5.9-13.7,6.8-20.9,6.8c-7.3,0-16.2-0.9-20.9-6.8c-4.5-5.7-4.9-16.4-4.9-25c0-8.2,6.6-21.2,6.6-21.2h38.5
		C442.4,768.4,449,781.4,449,789.6z"/>
	<path fill="none" stroke="#C1B13E" stroke-width="2.0999" stroke-miterlimit="10" d="M366.5,798.8l11.7,30.5
		c3.3,8.1,12.3,13.5,22.4,13.5h54.1l7.3-91.7"/>
	<path fill="none" stroke="#C1B13E" stroke-width="2.0999" stroke-linejoin="round" stroke-miterlimit="10" d="M261.8,314.5l-20-4
		l3.8,130.4c0.5,17,3.4,33.9,8.7,50.3l73,185.4"/>
	<line fill="none" stroke="#C1B13E" stroke-width="2.0999" stroke-miterlimit="10" x1="451" y1="852.8" x2="435.2" y2="895.8"/>
	<line fill="none" stroke="#C1B13E" stroke-width="2.0999" stroke-miterlimit="10" x1="307.5" y1="200.1" x2="319" y2="210.4"/>
	<line fill="none" stroke="#C1B13E" stroke-width="2.0999" stroke-miterlimit="10" x1="269.1" y1="243" x2="284.4" y2="250.9"/>
	<path fill="none" stroke="#C1B13E" stroke-width="2.0999" stroke-miterlimit="10" d="M436.5,794.2L436.5,794.2
		c-1,1.8-3.2,2.4-5.1,1.5l-20-10.1c-1.8-0.9-2.5-3.1-1.6-4.9l0,0c1-1.8,3.2-2.4,5.1-1.5l20,10.1
		C436.7,790.2,437.4,792.4,436.5,794.2z"/>
	<path fill="none" stroke="#C1B13E" stroke-width="2.0999" stroke-miterlimit="10" d="M436.5,810.4L436.5,810.4
		c-1,1.8-3.2,2.4-5.1,1.5l-20-10.1c-1.8-0.9-2.5-3.1-1.6-4.9l0,0c1-1.8,3.2-2.4,5.1-1.5l20,10.1
		C436.7,806.4,437.4,808.6,436.5,810.4z"/>
	<path fill="none" stroke="#C1B13E" stroke-width="2.0999" stroke-miterlimit="10" d="M422.2,754.4c-5.5,0-9.9,4.3-9.9,9.5h19.8
		C432.1,758.7,427.6,754.4,422.2,754.4z"/>
	<path fill="none" stroke="#C1B13E" stroke-width="2.0999" stroke-miterlimit="10" d="M624,723.4
		c326.1-594.4-124.5-573.4-124.5-573.4s-450.7-21-124.5,573.4"/>
	<path fill="none" stroke="#C1B13E" stroke-width="2.0999" stroke-miterlimit="10" d="M689.7,683.4l76.9-179.2
		c5.3-15.6,8.4-31.6,9.2-47.8l5.7-116.4c0.3-5.8-2.4-11.5-7.3-15.5l-16.9-13.9l-26.5-65.2c-0.6-1.5-1.5-2.9-2.5-4.1l-35.3-39.5
		c-0.9-1-2-1.9-3.1-2.6l-45.4-27.7c-3.1-1.9-6.8-2.5-10.4-1.7l-13.5,3"/>
	<path fill="none" stroke="#C1B13E" stroke-width="2.0999" stroke-miterlimit="10" d="M624,722.9h-29.2l-4.6-12.9
		c-0.7-2-2.6-3.3-4.8-3.3h-19.6c-2.2,0-4.2,1.4-4.9,3.5l-4.1,12.7v10.9h-8.1c-1.5,0-2.9,0.8-3.5,2.1l-8.2,15.2h-22.4
		c-1.7,0-3.2,1-3.7,2.5l-1.5,4h-9.8h-9.8l-1.5-4c-0.6-1.5-2.1-2.5-3.7-2.5H462l-8.2-15.2c-0.7-1.3-2-2.1-3.5-2.1h-8.1v-10.9
		l-4.1-12.7c-0.7-2.1-2.6-3.5-4.9-3.5h-19.6c-2.2,0-4.1,1.3-4.8,3.3l-4.6,12.9h-29.2"/>
	<path fill="none" stroke="#C1B13E" stroke-width="2.0999" stroke-miterlimit="10" d="M594.8,768.5V727c0-2.3-1.9-4.1-4.3-4.1H561
		c-2.4,0-4.3,1.8-4.3,4.1v41.5"/>
	<path fill="none" stroke="#C1B13E" stroke-width="2.0999" stroke-miterlimit="10" d="M550,789.6c0,8.6,0.4,19.2,4.9,25
		c4.7,5.9,13.7,6.8,20.9,6.8c7.3,0,16.2-0.9,20.9-6.8c4.5-5.7,4.9-16.4,4.9-25c0-8.2-6.6-21.2-6.6-21.2h-38.5
		C556.6,768.4,550,781.4,550,789.6z"/>
	<path fill="none" stroke="#C1B13E" stroke-width="2.0999" stroke-miterlimit="10" d="M632.5,798.8l-11.7,30.5
		c-3.3,8.1-12.3,13.5-22.4,13.5h-54.1l-7.3-91.7"/>
	<path fill="none" stroke="#C1B13E" stroke-width="2.0999" stroke-miterlimit="10" d="M650.5,799.4l-31,72
		c-3.3,8.2-12.3,13.7-22.5,13.7h-26.3l-3.7,6.8c-1.8,3.4-5.8,5.5-10.2,5.5l-57.4,0l-57.4,0c-4.4,0-8.3-2.2-10.2-5.5l-3.7-6.8h-26.3
		c-10.2,0-19.2-5.5-22.5-13.7l-31-72"/>
	<polyline fill="none" stroke="#C1B13E" stroke-width="2.0999" stroke-linejoin="round" stroke-miterlimit="10" points="
		570.3,885.1 554.3,842.8 548,852.8 499.5,852.8 451,852.8 444.7,842.8 428.7,885.1 	"/>
	<path fill="none" stroke="#C1B13E" stroke-width="2.0999" stroke-linejoin="round" stroke-miterlimit="10" d="M737.2,314.5l20-4
		l-3.8,130.4c-0.5,17-3.4,33.9-8.7,50.3l-73,185.4"/>
	
		<ellipse transform="matrix(0.3263 -0.9453 0.9453 0.3263 -247.0497 1138.6447)" fill="none" stroke="#C1B13E" stroke-width="2.0999" stroke-miterlimit="10" cx="675.3" cy="742.6" rx="60.2" ry="28.4"/>
	<path fill="none" stroke="#C1B13E" stroke-width="2.0999" stroke-miterlimit="10" d="M696.8,686.6l-19.2-7.8l-7.6-2.5
		c-16.9-1.9-38.7,24-48.5,57.9c-9.9,33.9-4.1,63,12.8,64.9l8.3,1l17.9,0.1"/>
	<path fill="none" stroke="#C1B13E" stroke-width="2.0999" stroke-miterlimit="10" d="M678.1,678.9c-16.7-1.9-38.2,23.7-47.9,57.2
		s-4.1,62.2,12.7,64.1"/>
	
		<ellipse transform="matrix(0.9453 -0.3263 0.3263 0.9453 -224.6036 146.2865)" fill="none" stroke="#C1B13E" stroke-width="2.0999" stroke-miterlimit="10" cx="323.7" cy="742.6" rx="28.4" ry="60.2"/>
	<path fill="none" stroke="#C1B13E" stroke-width="2.0999" stroke-miterlimit="10" d="M302.2,686.6l19.2-7.8l7.6-2.5
		c16.9-1.9,38.7,24,48.5,57.9c9.9,33.9,4.1,63-12.8,64.9l-8.3,1l-17.9,0.1"/>
	<path fill="none" stroke="#C1B13E" stroke-width="2.0999" stroke-miterlimit="10" d="M321,678.9c16.7-1.9,38.2,23.7,47.9,57.2
		s4.1,62.2-12.7,64.1"/>
	<polyline fill="none" stroke="#C1B13E" stroke-width="2.0999" stroke-miterlimit="10" points="538.3,768.4 499.5,768.4 
		460.7,768.4 	"/>
	<line fill="none" stroke="#C1B13E" stroke-width="2.0999" stroke-miterlimit="10" x1="548" y1="852.8" x2="563.8" y2="895.8"/>
	<path fill="none" stroke="#C1B13E" stroke-width="2.0999" stroke-miterlimit="10" d="M509.3,757.7V812c0,5.9-4.4,10.7-9.8,10.7l0,0
		h0c-5.4,0-9.8-4.8-9.8-10.7v-54.4"/>
	<polyline fill="none" stroke="#C1B13E" stroke-width="2.0999" stroke-miterlimit="10" points="554.3,842.8 499.5,842.8 
		444.7,842.8 	"/>
	<line fill="none" stroke="#C1B13E" stroke-width="2.0999" stroke-miterlimit="10" x1="691.5" y1="200.1" x2="680" y2="210.4"/>
	<line fill="none" stroke="#C1B13E" stroke-width="2.0999" stroke-miterlimit="10" x1="729.8" y1="243" x2="714.6" y2="250.9"/>
	<path fill="none" stroke="#C1B13E" stroke-width="2.0999" stroke-miterlimit="10" d="M562.5,794.2L562.5,794.2
		c1,1.8,3.2,2.4,5.1,1.5l20-10.1c1.8-0.9,2.5-3.1,1.6-4.9l0,0c-1-1.8-3.2-2.4-5.1-1.5l-20,10.1C562.2,790.2,561.5,792.4,562.5,794.2
		z"/>
	<path fill="none" stroke="#C1B13E" stroke-width="2.0999" stroke-miterlimit="10" d="M562.5,810.4L562.5,810.4
		c1,1.8,3.2,2.4,5.1,1.5l20-10.1c1.8-0.9,2.5-3.1,1.6-4.9l0,0c-1-1.8-3.2-2.4-5.1-1.5l-20,10.1C562.2,806.4,561.5,808.6,562.5,810.4
		z"/>
	<path fill="none" stroke="#C1B13E" stroke-width="2.0999" stroke-miterlimit="10" d="M576.8,754.4c5.5,0,9.9,4.3,9.9,9.5h-19.8
		C566.9,758.7,571.3,754.4,576.8,754.4z"/>
</g>
<path fill="#FFFFFF" d="M1919,1v1078H1V1H1919 M1920,0H0v1080h1920V0L1920,0z"/>
</svg>
