<?xml version="1.0" encoding="utf-8"?>
<!-- Generator: Adobe Illustrator 28.7.3, SVG Export Plug-In . SVG Version: 9.03 Build 54978)  -->
<svg version="1.1" baseProfile="tiny" id="Layer_1" xmlns="http://www.w3.org/2000/svg" xmlns:xlink="http://www.w3.org/1999/xlink"
	 x="0px" y="0px" viewBox="0 0 1920 1080" overflow="visible" xml:space="preserve">
<g>
	<g>
		<g>
			<g id="_x3C_Grid_Repeat_x3E__00000155867761934570002000000005623858943125637808_">
				<g>
					<polygon fill="#F1C550" points="78.8,951.4 74.2,963.4 110.7,963.4 115.2,951.4 					"/>
					<polygon fill="#F1C550" points="71.2,971.6 66.7,983.6 103.1,983.6 107.6,971.6 					"/>
					<polygon fill="#F1C550" points="95.3,1004.3 99.8,992.3 63.4,992.3 58.9,1004.3 					"/>
				</g>
			</g>
			<g id="_x3C_Grid_Repeat_x3E__00000150823736670413279610000009345068612401684402_">
				<g>
					<polygon fill="#F1C550" points="153.6,951.4 149.1,963.4 185.5,963.4 190.1,951.4 					"/>
					<polygon fill="#F1C550" points="146,971.6 141.5,983.6 178,983.6 182.5,971.6 					"/>
					<polygon fill="#F1C550" points="170.2,1004.3 174.7,992.3 138.3,992.3 133.7,1004.3 					"/>
				</g>
			</g>
			<g id="_x3C_Grid_Repeat_x3E__00000128442842540969014330000005036175865066149515_">
				<g>
					<polygon fill="#F1C550" points="228.5,951.4 224,963.4 260.4,963.4 264.9,951.4 					"/>
					<polygon fill="#F1C550" points="220.9,971.6 216.4,983.6 252.8,983.6 257.3,971.6 					"/>
					<polygon fill="#F1C550" points="245,1004.3 249.6,992.3 213.1,992.3 208.6,1004.3 					"/>
				</g>
			</g>
			<g id="_x3C_Grid_Repeat_x3E__00000057853536523706326490000007951512952998326457_">
				<g>
					<polygon fill="#F1C550" points="303.4,951.4 298.9,963.4 335.3,963.4 339.8,951.4 					"/>
					<polygon fill="#F1C550" points="295.8,971.6 291.3,983.6 327.7,983.6 332.2,971.6 					"/>
					<polygon fill="#F1C550" points="319.9,1004.3 324.4,992.3 288,992.3 283.5,1004.3 					"/>
				</g>
			</g>
			<g id="_x3C_Grid_Repeat_x3E__00000158706994817022161890000005758486078939067549_">
				<g>
					<polygon fill="#F1C550" points="378.3,951.4 373.7,963.4 410.2,963.4 414.7,951.4 					"/>
					<polygon fill="#F1C550" points="370.7,971.6 366.2,983.6 402.6,983.6 407.1,971.6 					"/>
					<polygon fill="#F1C550" points="394.8,1004.3 399.3,992.3 362.9,992.3 358.4,1004.3 					"/>
				</g>
			</g>
			<g id="_x3C_Grid_Repeat_x3E__00000001661611339150705790000013390838631583922335_">
				<g>
					<polygon fill="#F1C550" points="453.1,951.4 448.6,963.4 485,963.4 489.6,951.4 					"/>
					<polygon fill="#F1C550" points="445.5,971.6 441,983.6 477.5,983.6 482,971.6 					"/>
					<polygon fill="#F1C550" points="469.7,1004.3 474.2,992.3 437.8,992.3 433.2,1004.3 					"/>
				</g>
			</g>
			<g id="_x3C_Grid_Repeat_x3E__00000178174461222383828520000015299218839400684962_">
				<g>
					<polygon fill="#F1C550" points="528,951.4 523.5,963.4 559.9,963.4 564.4,951.4 					"/>
					<polygon fill="#F1C550" points="520.4,971.6 515.9,983.6 552.3,983.6 556.8,971.6 					"/>
					<polygon fill="#F1C550" points="544.5,1004.3 549.1,992.3 512.6,992.3 508.1,1004.3 					"/>
				</g>
			</g>
			<g id="_x3C_Grid_Repeat_x3E__00000027605574504019423690000017739597189996389558_">
				<g>
					<polygon fill="#F1C550" points="602.9,951.4 598.4,963.4 634.8,963.4 639.3,951.4 					"/>
					<polygon fill="#F1C550" points="595.3,971.6 590.8,983.6 627.2,983.6 631.7,971.6 					"/>
					<polygon fill="#F1C550" points="619.4,1004.3 623.9,992.3 587.5,992.3 583,1004.3 					"/>
				</g>
			</g>
			<g id="_x3C_Grid_Repeat_x3E__00000115500424287566435730000006586463567494512283_">
				<g>
					<polygon fill="#F1C550" points="677.8,951.4 673.2,963.4 709.7,963.4 714.2,951.4 					"/>
					<polygon fill="#F1C550" points="670.2,971.6 665.7,983.6 702.1,983.6 706.6,971.6 					"/>
					<polygon fill="#F1C550" points="694.3,1004.3 698.8,992.3 662.4,992.3 657.9,1004.3 					"/>
				</g>
			</g>
			<g id="_x3C_Grid_Repeat_x3E__00000122718549237228030510000001887881989807885482_">
				<g>
					<polygon fill="#F1C550" points="752.6,951.4 748.1,963.4 784.5,963.4 789.1,951.4 					"/>
					<polygon fill="#F1C550" points="745,971.6 740.5,983.6 777,983.6 781.5,971.6 					"/>
					<polygon fill="#F1C550" points="769.2,1004.3 773.7,992.3 737.3,992.3 732.7,1004.3 					"/>
				</g>
			</g>
			<g id="_x3C_Grid_Repeat_x3E__00000118390918520454298570000005900717346115302311_">
				<g>
					<polygon fill="#F1C550" points="827.5,951.4 823,963.4 859.4,963.4 863.9,951.4 					"/>
					<polygon fill="#F1C550" points="819.9,971.6 815.4,983.6 851.8,983.6 856.3,971.6 					"/>
					<polygon fill="#F1C550" points="844,1004.3 848.6,992.3 812.1,992.3 807.6,1004.3 					"/>
				</g>
			</g>
			<g id="_x3C_Grid_Repeat_x3E__00000004527896107574229630000012845541635871526036_">
				<g>
					<polygon fill="#F1C550" points="902.4,951.4 897.9,963.4 934.3,963.4 938.8,951.4 					"/>
					<polygon fill="#F1C550" points="894.8,971.6 890.3,983.6 926.7,983.6 931.2,971.6 					"/>
					<polygon fill="#F1C550" points="918.9,1004.3 923.4,992.3 887,992.3 882.5,1004.3 					"/>
				</g>
			</g>
			<g id="_x3C_Grid_Repeat_x3E__00000079479938647824743600000015886051849386854845_">
				<g>
					<polygon fill="#F1C550" points="977.3,951.4 972.7,963.4 1009.2,963.4 1013.7,951.4 					"/>
					<polygon fill="#F1C550" points="969.7,971.6 965.2,983.6 1001.6,983.6 1006.1,971.6 					"/>
					<polygon fill="#F1C550" points="993.8,1004.3 998.3,992.3 961.9,992.3 957.4,1004.3 					"/>
				</g>
			</g>
			<g id="_x3C_Grid_Repeat_x3E__00000066474877360340136270000006686084260299072426_">
				<g>
					<polygon fill="#F1C550" points="1052.1,951.4 1047.6,963.4 1084,963.4 1088.6,951.4 					"/>
					<polygon fill="#F1C550" points="1044.5,971.6 1040,983.6 1076.5,983.6 1081,971.6 					"/>
					<polygon fill="#F1C550" points="1068.7,1004.3 1073.2,992.3 1036.8,992.3 1032.2,1004.3 					"/>
				</g>
			</g>
			<g id="_x3C_Grid_Repeat_x3E__00000036948675844367059060000002415589785499562648_">
				<g>
					<polygon fill="#F1C550" points="1127,951.4 1122.5,963.4 1158.9,963.4 1163.4,951.4 					"/>
					<polygon fill="#F1C550" points="1119.4,971.6 1114.9,983.6 1151.3,983.6 1155.8,971.6 					"/>
					<polygon fill="#F1C550" points="1143.5,1004.3 1148.1,992.3 1111.6,992.3 1107.1,1004.3 					"/>
				</g>
			</g>
			<g id="_x3C_Grid_Repeat_x3E__00000142148092418346780030000006060003240393676422_">
				<g>
					<polygon fill="#F1C550" points="1201.9,951.4 1197.4,963.4 1233.8,963.4 1238.3,951.4 					"/>
					<polygon fill="#F1C550" points="1194.3,971.6 1189.8,983.6 1226.2,983.6 1230.7,971.6 					"/>
					<polygon fill="#F1C550" points="1218.4,1004.3 1222.9,992.3 1186.5,992.3 1182,1004.3 					"/>
				</g>
			</g>
			<g id="_x3C_Grid_Repeat_x3E__00000135674514570045641720000012374039882291915196_">
				<g>
					<polygon fill="#F1C550" points="1276.8,951.4 1272.2,963.4 1308.7,963.4 1313.2,951.4 					"/>
					<polygon fill="#F1C550" points="1269.2,971.6 1264.7,983.6 1301.1,983.6 1305.6,971.6 					"/>
					<polygon fill="#F1C550" points="1293.3,1004.3 1297.8,992.3 1261.4,992.3 1256.9,1004.3 					"/>
				</g>
			</g>
			<g id="_x3C_Grid_Repeat_x3E__00000119802493859934908770000009418740159221391036_">
				<g>
					<polygon fill="#F1C550" points="1351.6,951.4 1347.1,963.4 1383.5,963.4 1388.1,951.4 					"/>
					<polygon fill="#F1C550" points="1344,971.6 1339.5,983.6 1376,983.6 1380.5,971.6 					"/>
					<polygon fill="#F1C550" points="1368.2,1004.3 1372.7,992.3 1336.3,992.3 1331.7,1004.3 					"/>
				</g>
			</g>
			<g id="_x3C_Grid_Repeat_x3E__00000107562282581543130300000002906011370930449557_">
				<g>
					<polygon fill="#F1C550" points="1426.5,951.4 1422,963.4 1458.4,963.4 1462.9,951.4 					"/>
					<polygon fill="#F1C550" points="1418.9,971.6 1414.4,983.6 1450.8,983.6 1455.3,971.6 					"/>
					<polygon fill="#F1C550" points="1443,1004.3 1447.6,992.3 1411.1,992.3 1406.6,1004.3 					"/>
				</g>
			</g>
			<g id="_x3C_Grid_Repeat_x3E__00000078759170536304651360000017726226716246649740_">
				<g>
					<polygon fill="#F1C550" points="1501.4,951.4 1496.9,963.4 1533.3,963.4 1537.8,951.4 					"/>
					<polygon fill="#F1C550" points="1493.8,971.6 1489.3,983.6 1525.7,983.6 1530.2,971.6 					"/>
					<polygon fill="#F1C550" points="1517.9,1004.3 1522.4,992.3 1486,992.3 1481.5,1004.3 					"/>
				</g>
			</g>
			<g id="_x3C_Grid_Repeat_x3E__00000119810976387689542540000010855894697570609563_">
				<g>
					<polygon fill="#F1C550" points="1576.3,951.4 1571.7,963.4 1608.2,963.4 1612.7,951.4 					"/>
					<polygon fill="#F1C550" points="1568.7,971.6 1564.2,983.6 1600.6,983.6 1605.1,971.6 					"/>
					<polygon fill="#F1C550" points="1592.8,1004.3 1597.3,992.3 1560.9,992.3 1556.4,1004.3 					"/>
				</g>
			</g>
			<g id="_x3C_Grid_Repeat_x3E__00000160161654433404146440000012789981965241792661_">
				<g>
					<polygon fill="#F1C550" points="1651.1,951.4 1646.6,963.4 1683,963.4 1687.6,951.4 					"/>
					<polygon fill="#F1C550" points="1643.5,971.6 1639,983.6 1675.5,983.6 1680,971.6 					"/>
					<polygon fill="#F1C550" points="1667.7,1004.3 1672.2,992.3 1635.8,992.3 1631.2,1004.3 					"/>
				</g>
			</g>
			<g id="_x3C_Grid_Repeat_x3E__00000049916895329698147780000001482983573500722313_">
				<g>
					<polygon fill="#F1C550" points="1726,951.4 1721.5,963.4 1757.9,963.4 1762.4,951.4 					"/>
					<polygon fill="#F1C550" points="1718.4,971.6 1713.9,983.6 1750.3,983.6 1754.8,971.6 					"/>
					<polygon fill="#F1C550" points="1742.5,1004.3 1747.1,992.3 1710.6,992.3 1706.1,1004.3 					"/>
				</g>
			</g>
			<g id="_x3C_Grid_Repeat_x3E__00000011751375656899580160000012678978159524944826_">
				<g>
					<polygon fill="#F1C550" points="1800.9,951.4 1796.4,963.4 1832.8,963.4 1837.3,951.4 					"/>
					<polygon fill="#F1C550" points="1793.3,971.6 1788.8,983.6 1825.2,983.6 1829.7,971.6 					"/>
					<polygon fill="#F1C550" points="1817.4,1004.3 1821.9,992.3 1785.5,992.3 1781,1004.3 					"/>
				</g>
			</g>
		</g>
	</g>
	<g>
		<g>
			<g>
				<g id="_x3C_Grid_Repeat_x3E__00000150805214116907944850000016158445898606894496_">
					<g>
						<polygon fill="#F1C550" points="78.8,126.3 74.2,138.3 110.7,138.3 115.2,126.3 						"/>
						<polygon fill="#F1C550" points="71.2,146.5 66.7,158.5 103.1,158.5 107.6,146.5 						"/>
						<polygon fill="#F1C550" points="95.3,179.2 99.8,167.2 63.4,167.2 58.9,179.2 						"/>
					</g>
				</g>
				<g id="_x3C_Grid_Repeat_x3E__00000114065067440933981990000006662277782377492108_">
					<g>
						<polygon fill="#F1C550" points="153.6,126.3 149.1,138.3 185.5,138.3 190.1,126.3 						"/>
						<polygon fill="#F1C550" points="146,146.5 141.5,158.5 178,158.5 182.5,146.5 						"/>
						<polygon fill="#F1C550" points="170.2,179.2 174.7,167.2 138.3,167.2 133.7,179.2 						"/>
					</g>
				</g>
				<g id="_x3C_Grid_Repeat_x3E__00000039824124249715441260000010074003944342930845_">
					<g>
						<polygon fill="#F1C550" points="228.5,126.3 224,138.3 260.4,138.3 264.9,126.3 						"/>
						<polygon fill="#F1C550" points="220.9,146.5 216.4,158.5 252.8,158.5 257.3,146.5 						"/>
						<polygon fill="#F1C550" points="245,179.2 249.6,167.2 213.1,167.2 208.6,179.2 						"/>
					</g>
				</g>
				<g id="_x3C_Grid_Repeat_x3E__00000000206627390799490180000003528147451512634301_">
					<g>
						<polygon fill="#F1C550" points="303.4,126.3 298.9,138.3 335.3,138.3 339.8,126.3 						"/>
						<polygon fill="#F1C550" points="295.8,146.5 291.3,158.5 327.7,158.5 332.2,146.5 						"/>
						<polygon fill="#F1C550" points="319.9,179.2 324.4,167.2 288,167.2 283.5,179.2 						"/>
					</g>
				</g>
				<g id="_x3C_Grid_Repeat_x3E__00000124849944940619120010000002062407849956043967_">
					<g>
						<polygon fill="#F1C550" points="378.3,126.3 373.7,138.3 410.2,138.3 414.7,126.3 						"/>
						<polygon fill="#F1C550" points="370.7,146.5 366.2,158.5 402.6,158.5 407.1,146.5 						"/>
						<polygon fill="#F1C550" points="394.8,179.2 399.3,167.2 362.9,167.2 358.4,179.2 						"/>
					</g>
				</g>
				<g id="_x3C_Grid_Repeat_x3E__00000165201407368830673910000012155561587126108605_">
					<g>
						<polygon fill="#F1C550" points="453.1,126.3 448.6,138.3 485,138.3 489.6,126.3 						"/>
						<polygon fill="#F1C550" points="445.5,146.5 441,158.5 477.5,158.5 482,146.5 						"/>
						<polygon fill="#F1C550" points="469.7,179.2 474.2,167.2 437.8,167.2 433.2,179.2 						"/>
					</g>
				</g>
				<g id="_x3C_Grid_Repeat_x3E__00000127027061368295322500000015568719155857258394_">
					<g>
						<polygon fill="#F1C550" points="528,126.3 523.5,138.3 559.9,138.3 564.4,126.3 						"/>
						<polygon fill="#F1C550" points="520.4,146.5 515.9,158.5 552.3,158.5 556.8,146.5 						"/>
						<polygon fill="#F1C550" points="544.5,179.2 549.1,167.2 512.6,167.2 508.1,179.2 						"/>
					</g>
				</g>
				<g id="_x3C_Grid_Repeat_x3E__00000046301299168506096560000015597479746044451508_">
					<g>
						<polygon fill="#F1C550" points="602.9,126.3 598.4,138.3 634.8,138.3 639.3,126.3 						"/>
						<polygon fill="#F1C550" points="595.3,146.5 590.8,158.5 627.2,158.5 631.7,146.5 						"/>
						<polygon fill="#F1C550" points="619.4,179.2 623.9,167.2 587.5,167.2 583,179.2 						"/>
					</g>
				</g>
				<g id="_x3C_Grid_Repeat_x3E__00000103948710966006041960000017093639050787609004_">
					<g>
						<polygon fill="#F1C550" points="677.8,126.3 673.2,138.3 709.7,138.3 714.2,126.3 						"/>
						<polygon fill="#F1C550" points="670.2,146.5 665.7,158.5 702.1,158.5 706.6,146.5 						"/>
						<polygon fill="#F1C550" points="694.3,179.2 698.8,167.2 662.4,167.2 657.9,179.2 						"/>
					</g>
				</g>
				<g id="_x3C_Grid_Repeat_x3E__00000075870994905939285920000018271221988609709497_">
					<g>
						<polygon fill="#F1C550" points="752.6,126.3 748.1,138.3 784.5,138.3 789.1,126.3 						"/>
						<polygon fill="#F1C550" points="745,146.5 740.5,158.5 777,158.5 781.5,146.5 						"/>
						<polygon fill="#F1C550" points="769.2,179.2 773.7,167.2 737.3,167.2 732.7,179.2 						"/>
					</g>
				</g>
				<g id="_x3C_Grid_Repeat_x3E__00000102514460831518625770000002978921729768676245_">
					<g>
						<polygon fill="#F1C550" points="827.5,126.3 823,138.3 859.4,138.3 863.9,126.3 						"/>
						<polygon fill="#F1C550" points="819.9,146.5 815.4,158.5 851.8,158.5 856.3,146.5 						"/>
						<polygon fill="#F1C550" points="844,179.2 848.6,167.2 812.1,167.2 807.6,179.2 						"/>
					</g>
				</g>
				<g id="_x3C_Grid_Repeat_x3E__00000169531053803066105810000016283680215557159557_">
					<g>
						<polygon fill="#F1C550" points="902.4,126.3 897.9,138.3 934.3,138.3 938.8,126.3 						"/>
						<polygon fill="#F1C550" points="894.8,146.5 890.3,158.5 926.7,158.5 931.2,146.5 						"/>
						<polygon fill="#F1C550" points="918.9,179.2 923.4,167.2 887,167.2 882.5,179.2 						"/>
					</g>
				</g>
				<g id="_x3C_Grid_Repeat_x3E__00000171705321202496316130000005406440661192527009_">
					<g>
						<polygon fill="#F1C550" points="977.3,126.3 972.7,138.3 1009.2,138.3 1013.7,126.3 						"/>
						<polygon fill="#F1C550" points="969.7,146.5 965.2,158.5 1001.6,158.5 1006.1,146.5 						"/>
						<polygon fill="#F1C550" points="993.8,179.2 998.3,167.2 961.9,167.2 957.4,179.2 						"/>
					</g>
				</g>
				<g id="_x3C_Grid_Repeat_x3E__00000084506116775203108240000014100364033518805897_">
					<g>
						<polygon fill="#F1C550" points="1052.1,126.3 1047.6,138.3 1084,138.3 1088.6,126.3 						"/>
						<polygon fill="#F1C550" points="1044.5,146.5 1040,158.5 1076.5,158.5 1081,146.5 						"/>
						<polygon fill="#F1C550" points="1068.7,179.2 1073.2,167.2 1036.8,167.2 1032.2,179.2 						"/>
					</g>
				</g>
				<g id="_x3C_Grid_Repeat_x3E__00000078017945304482440250000000598763389194567868_">
					<g>
						<polygon fill="#F1C550" points="1127,126.3 1122.5,138.3 1158.9,138.3 1163.4,126.3 						"/>
						<polygon fill="#F1C550" points="1119.4,146.5 1114.9,158.5 1151.3,158.5 1155.8,146.5 						"/>
						<polygon fill="#F1C550" points="1143.5,179.2 1148.1,167.2 1111.6,167.2 1107.1,179.2 						"/>
					</g>
				</g>
				<g id="_x3C_Grid_Repeat_x3E__00000119826868213666192920000015523771505148154276_">
					<g>
						<polygon fill="#F1C550" points="1201.9,126.3 1197.4,138.3 1233.8,138.3 1238.3,126.3 						"/>
						<polygon fill="#F1C550" points="1194.3,146.5 1189.8,158.5 1226.2,158.5 1230.7,146.5 						"/>
						<polygon fill="#F1C550" points="1218.4,179.2 1222.9,167.2 1186.5,167.2 1182,179.2 						"/>
					</g>
				</g>
				<g id="_x3C_Grid_Repeat_x3E__00000056399251550709361700000012445132666284944817_">
					<g>
						<polygon fill="#F1C550" points="1276.8,126.3 1272.2,138.3 1308.7,138.3 1313.2,126.3 						"/>
						<polygon fill="#F1C550" points="1269.2,146.5 1264.7,158.5 1301.1,158.5 1305.6,146.5 						"/>
						<polygon fill="#F1C550" points="1293.3,179.2 1297.8,167.2 1261.4,167.2 1256.9,179.2 						"/>
					</g>
				</g>
				<g id="_x3C_Grid_Repeat_x3E__00000046304902925250252970000003220399945558075802_">
					<g>
						<polygon fill="#F1C550" points="1351.6,126.3 1347.1,138.3 1383.5,138.3 1388.1,126.3 						"/>
						<polygon fill="#F1C550" points="1344,146.5 1339.5,158.5 1376,158.5 1380.5,146.5 						"/>
						<polygon fill="#F1C550" points="1368.2,179.2 1372.7,167.2 1336.3,167.2 1331.7,179.2 						"/>
					</g>
				</g>
				<g id="_x3C_Grid_Repeat_x3E__00000029756378609177558440000003254192239331934360_">
					<g>
						<polygon fill="#F1C550" points="1426.5,126.3 1422,138.3 1458.4,138.3 1462.9,126.3 						"/>
						<polygon fill="#F1C550" points="1418.9,146.5 1414.4,158.5 1450.8,158.5 1455.3,146.5 						"/>
						<polygon fill="#F1C550" points="1443,179.2 1447.6,167.2 1411.1,167.2 1406.6,179.2 						"/>
					</g>
				</g>
				<g id="_x3C_Grid_Repeat_x3E__00000013892850897836049550000005321623791228902276_">
					<g>
						<polygon fill="#F1C550" points="1501.4,126.3 1496.9,138.3 1533.3,138.3 1537.8,126.3 						"/>
						<polygon fill="#F1C550" points="1493.8,146.5 1489.3,158.5 1525.7,158.5 1530.2,146.5 						"/>
						<polygon fill="#F1C550" points="1517.9,179.2 1522.4,167.2 1486,167.2 1481.5,179.2 						"/>
					</g>
				</g>
				<g id="_x3C_Grid_Repeat_x3E__00000061462749049048247840000015421492806561745825_">
					<g>
						<polygon fill="#F1C550" points="1576.3,126.3 1571.7,138.3 1608.2,138.3 1612.7,126.3 						"/>
						<polygon fill="#F1C550" points="1568.7,146.5 1564.2,158.5 1600.6,158.5 1605.1,146.5 						"/>
						<polygon fill="#F1C550" points="1592.8,179.2 1597.3,167.2 1560.9,167.2 1556.4,179.2 						"/>
					</g>
				</g>
				<g id="_x3C_Grid_Repeat_x3E__00000076591690868647031060000010963905395966869157_">
					<g>
						<polygon fill="#F1C550" points="1651.1,126.3 1646.6,138.3 1683,138.3 1687.6,126.3 						"/>
						<polygon fill="#F1C550" points="1643.5,146.5 1639,158.5 1675.5,158.5 1680,146.5 						"/>
						<polygon fill="#F1C550" points="1667.7,179.2 1672.2,167.2 1635.8,167.2 1631.2,179.2 						"/>
					</g>
				</g>
				<g id="_x3C_Grid_Repeat_x3E__00000049207169272206875300000000899107943338437311_">
					<g>
						<polygon fill="#F1C550" points="1726,126.3 1721.5,138.3 1757.9,138.3 1762.4,126.3 						"/>
						<polygon fill="#F1C550" points="1718.4,146.5 1713.9,158.5 1750.3,158.5 1754.8,146.5 						"/>
						<polygon fill="#F1C550" points="1742.5,179.2 1747.1,167.2 1710.6,167.2 1706.1,179.2 						"/>
					</g>
				</g>
				<g id="_x3C_Grid_Repeat_x3E__00000043450629551469385230000006517630654886600604_">
					<g>
						<polygon fill="#F1C550" points="1800.9,126.3 1796.4,138.3 1832.8,138.3 1837.3,126.3 						"/>
						<polygon fill="#F1C550" points="1793.3,146.5 1788.8,158.5 1825.2,158.5 1829.7,146.5 						"/>
						<polygon fill="#F1C550" points="1817.4,179.2 1821.9,167.2 1785.5,167.2 1781,179.2 						"/>
					</g>
				</g>
			</g>
		</g>
		<g>
			<g>
				<g id="_x3C_Grid_Repeat_x3E__00000044897133764038620830000017999220093226327692_">
					<g>
						<polygon fill="#F1C550" points="102.6,64.1 98.1,76.1 134.5,76.1 139,64.1 						"/>
						<polygon fill="#F1C550" points="95,84.3 90.5,96.3 126.9,96.3 131.4,84.3 						"/>
						<polygon fill="#F1C550" points="119.1,117 123.6,105 87.2,105 82.7,117 						"/>
					</g>
				</g>
				<g id="_x3C_Grid_Repeat_x3E__00000106144347607953174540000003537109441957196193_">
					<g>
						<polygon fill="#F1C550" points="177.5,64.1 172.9,76.1 209.4,76.1 213.9,64.1 						"/>
						<polygon fill="#F1C550" points="169.9,84.3 165.4,96.3 201.8,96.3 206.3,84.3 						"/>
						<polygon fill="#F1C550" points="194,117 198.5,105 162.1,105 157.6,117 						"/>
					</g>
				</g>
				<g id="_x3C_Grid_Repeat_x3E__00000105385300905530386760000014773320344349306807_">
					<g>
						<polygon fill="#F1C550" points="252.3,64.1 247.8,76.1 284.2,76.1 288.8,64.1 						"/>
						<polygon fill="#F1C550" points="244.7,84.3 240.2,96.3 276.7,96.3 281.2,84.3 						"/>
						<polygon fill="#F1C550" points="268.9,117 273.4,105 237,105 232.4,117 						"/>
					</g>
				</g>
				<g id="_x3C_Grid_Repeat_x3E__00000149362989528782795260000003269348132605204147_">
					<g>
						<polygon fill="#F1C550" points="327.2,64.1 322.7,76.1 359.1,76.1 363.6,64.1 						"/>
						<polygon fill="#F1C550" points="319.6,84.3 315.1,96.3 351.5,96.3 356,84.3 						"/>
						<polygon fill="#F1C550" points="343.7,117 348.3,105 311.8,105 307.3,117 						"/>
					</g>
				</g>
				<g id="_x3C_Grid_Repeat_x3E__00000070102379660893260130000014668991133718135461_">
					<g>
						<polygon fill="#F1C550" points="402.1,64.1 397.6,76.1 434,76.1 438.5,64.1 						"/>
						<polygon fill="#F1C550" points="394.5,84.3 390,96.3 426.4,96.3 430.9,84.3 						"/>
						<polygon fill="#F1C550" points="418.6,117 423.1,105 386.7,105 382.2,117 						"/>
					</g>
				</g>
				<g id="_x3C_Grid_Repeat_x3E__00000059302953124293184620000005811099232713900953_">
					<g>
						<polygon fill="#F1C550" points="477,64.1 472.4,76.1 508.9,76.1 513.4,64.1 						"/>
						<polygon fill="#F1C550" points="469.4,84.3 464.9,96.3 501.3,96.3 505.8,84.3 						"/>
						<polygon fill="#F1C550" points="493.5,117 498,105 461.6,105 457.1,117 						"/>
					</g>
				</g>
				<g id="_x3C_Grid_Repeat_x3E__00000088812178422397072420000014883152500907310215_">
					<g>
						<polygon fill="#F1C550" points="551.8,64.1 547.3,76.1 583.7,76.1 588.3,64.1 						"/>
						<polygon fill="#F1C550" points="544.2,84.3 539.7,96.3 576.2,96.3 580.7,84.3 						"/>
						<polygon fill="#F1C550" points="568.4,117 572.9,105 536.5,105 531.9,117 						"/>
					</g>
				</g>
				<g id="_x3C_Grid_Repeat_x3E__00000000911215338543221870000007300180983636710556_">
					<g>
						<polygon fill="#F1C550" points="626.7,64.1 622.2,76.1 658.6,76.1 663.1,64.1 						"/>
						<polygon fill="#F1C550" points="619.1,84.3 614.6,96.3 651,96.3 655.5,84.3 						"/>
						<polygon fill="#F1C550" points="643.2,117 647.8,105 611.3,105 606.8,117 						"/>
					</g>
				</g>
				<g id="_x3C_Grid_Repeat_x3E__00000039853379108747158230000002970325034989093802_">
					<g>
						<polygon fill="#F1C550" points="701.6,64.1 697.1,76.1 733.5,76.1 738,64.1 						"/>
						<polygon fill="#F1C550" points="694,84.3 689.5,96.3 725.9,96.3 730.4,84.3 						"/>
						<polygon fill="#F1C550" points="718.1,117 722.6,105 686.2,105 681.7,117 						"/>
					</g>
				</g>
				<g id="_x3C_Grid_Repeat_x3E__00000164494672670193334530000002940868689678984333_">
					<g>
						<polygon fill="#F1C550" points="776.5,64.1 771.9,76.1 808.4,76.1 812.9,64.1 						"/>
						<polygon fill="#F1C550" points="768.9,84.3 764.4,96.3 800.8,96.3 805.3,84.3 						"/>
						<polygon fill="#F1C550" points="793,117 797.5,105 761.1,105 756.6,117 						"/>
					</g>
				</g>
				<g id="_x3C_Grid_Repeat_x3E__00000008846481643320642130000014272753906030586274_">
					<g>
						<polygon fill="#F1C550" points="851.3,64.1 846.8,76.1 883.2,76.1 887.8,64.1 						"/>
						<polygon fill="#F1C550" points="843.7,84.3 839.2,96.3 875.7,96.3 880.2,84.3 						"/>
						<polygon fill="#F1C550" points="867.9,117 872.4,105 836,105 831.4,117 						"/>
					</g>
				</g>
				<g id="_x3C_Grid_Repeat_x3E__00000181071861691662104600000014104586340158792382_">
					<g>
						<polygon fill="#F1C550" points="926.2,64.1 921.7,76.1 958.1,76.1 962.6,64.1 						"/>
						<polygon fill="#F1C550" points="918.6,84.3 914.1,96.3 950.5,96.3 955,84.3 						"/>
						<polygon fill="#F1C550" points="942.7,117 947.3,105 910.8,105 906.3,117 						"/>
					</g>
				</g>
				<g id="_x3C_Grid_Repeat_x3E__00000166634389070817389720000015823643089991712948_">
					<g>
						<polygon fill="#F1C550" points="1001.1,64.1 996.6,76.1 1033,76.1 1037.5,64.1 						"/>
						<polygon fill="#F1C550" points="993.5,84.3 989,96.3 1025.4,96.3 1029.9,84.3 						"/>
						<polygon fill="#F1C550" points="1017.6,117 1022.1,105 985.7,105 981.2,117 						"/>
					</g>
				</g>
				<g id="_x3C_Grid_Repeat_x3E__00000071543844187287474010000017421429222821138605_">
					<g>
						<polygon fill="#F1C550" points="1076,64.1 1071.4,76.1 1107.9,76.1 1112.4,64.1 						"/>
						<polygon fill="#F1C550" points="1068.4,84.3 1063.9,96.3 1100.3,96.3 1104.8,84.3 						"/>
						<polygon fill="#F1C550" points="1092.5,117 1097,105 1060.6,105 1056.1,117 						"/>
					</g>
				</g>
				<g id="_x3C_Grid_Repeat_x3E__00000063608301078988296130000012678751352108094098_">
					<g>
						<polygon fill="#F1C550" points="1150.8,64.1 1146.3,76.1 1182.7,76.1 1187.3,64.1 						"/>
						<polygon fill="#F1C550" points="1143.2,84.3 1138.7,96.3 1175.2,96.3 1179.7,84.3 						"/>
						<polygon fill="#F1C550" points="1167.4,117 1171.9,105 1135.5,105 1130.9,117 						"/>
					</g>
				</g>
				<g id="_x3C_Grid_Repeat_x3E__00000130636640534557656830000010893907920274420367_">
					<g>
						<polygon fill="#F1C550" points="1225.7,64.1 1221.2,76.1 1257.6,76.1 1262.1,64.1 						"/>
						<polygon fill="#F1C550" points="1218.1,84.3 1213.6,96.3 1250,96.3 1254.5,84.3 						"/>
						<polygon fill="#F1C550" points="1242.2,117 1246.8,105 1210.3,105 1205.8,117 						"/>
					</g>
				</g>
				<g id="_x3C_Grid_Repeat_x3E__00000094583589627332439070000012422901791149202357_">
					<g>
						<polygon fill="#F1C550" points="1300.6,64.1 1296.1,76.1 1332.5,76.1 1337,64.1 						"/>
						<polygon fill="#F1C550" points="1293,84.3 1288.5,96.3 1324.9,96.3 1329.4,84.3 						"/>
						<polygon fill="#F1C550" points="1317.1,117 1321.6,105 1285.2,105 1280.7,117 						"/>
					</g>
				</g>
				<g id="_x3C_Grid_Repeat_x3E__00000145021907438163197890000010279993896130360706_">
					<g>
						<polygon fill="#F1C550" points="1375.5,64.1 1370.9,76.1 1407.4,76.1 1411.9,64.1 						"/>
						<polygon fill="#F1C550" points="1367.9,84.3 1363.4,96.3 1399.8,96.3 1404.3,84.3 						"/>
						<polygon fill="#F1C550" points="1392,117 1396.5,105 1360.1,105 1355.6,117 						"/>
					</g>
				</g>
				<g id="_x3C_Grid_Repeat_x3E__00000132087214597590026990000006017897915237733267_">
					<g>
						<polygon fill="#F1C550" points="1450.3,64.1 1445.8,76.1 1482.2,76.1 1486.8,64.1 						"/>
						<polygon fill="#F1C550" points="1442.7,84.3 1438.2,96.3 1474.7,96.3 1479.2,84.3 						"/>
						<polygon fill="#F1C550" points="1466.9,117 1471.4,105 1435,105 1430.4,117 						"/>
					</g>
				</g>
				<g id="_x3C_Grid_Repeat_x3E__00000152944878384833713110000016111712304515113089_">
					<g>
						<polygon fill="#F1C550" points="1525.2,64.1 1520.7,76.1 1557.1,76.1 1561.6,64.1 						"/>
						<polygon fill="#F1C550" points="1517.6,84.3 1513.1,96.3 1549.5,96.3 1554,84.3 						"/>
						<polygon fill="#F1C550" points="1541.7,117 1546.3,105 1509.8,105 1505.3,117 						"/>
					</g>
				</g>
				<g id="_x3C_Grid_Repeat_x3E__00000121242013179732445620000010421796463526789808_">
					<g>
						<polygon fill="#F1C550" points="1600.1,64.1 1595.6,76.1 1632,76.1 1636.5,64.1 						"/>
						<polygon fill="#F1C550" points="1592.5,84.3 1588,96.3 1624.4,96.3 1628.9,84.3 						"/>
						<polygon fill="#F1C550" points="1616.6,117 1621.1,105 1584.7,105 1580.2,117 						"/>
					</g>
				</g>
				<g id="_x3C_Grid_Repeat_x3E__00000130627711128894048060000018045442508415514513_">
					<g>
						<polygon fill="#F1C550" points="1675,64.1 1670.4,76.1 1706.9,76.1 1711.4,64.1 						"/>
						<polygon fill="#F1C550" points="1667.4,84.3 1662.9,96.3 1699.3,96.3 1703.8,84.3 						"/>
						<polygon fill="#F1C550" points="1691.5,117 1696,105 1659.6,105 1655.1,117 						"/>
					</g>
				</g>
				<g id="_x3C_Grid_Repeat_x3E__00000063632624270449731060000001134608060998886822_">
					<g>
						<polygon fill="#F1C550" points="1749.8,64.1 1745.3,76.1 1781.7,76.1 1786.3,64.1 						"/>
						<polygon fill="#F1C550" points="1742.2,84.3 1737.7,96.3 1774.2,96.3 1778.7,84.3 						"/>
						<polygon fill="#F1C550" points="1766.4,117 1770.9,105 1734.5,105 1729.9,117 						"/>
					</g>
				</g>
				<g id="_x3C_Grid_Repeat_x3E__00000161632583026029208610000009340730956680952200_">
					<g>
						<polygon fill="#F1C550" points="1824.7,64.1 1820.2,76.1 1856.6,76.1 1861.1,64.1 						"/>
						<polygon fill="#F1C550" points="1817.1,84.3 1812.6,96.3 1849,96.3 1853.5,84.3 						"/>
						<polygon fill="#F1C550" points="1841.2,117 1845.8,105 1809.3,105 1804.8,117 						"/>
					</g>
				</g>
			</g>
		</g>
	</g>
</g>
<path id="opacity:50" fill="#F1C550" d="M404.4,356v40H64.3v0c15.6-15.6,24.4-24.4,40-40H404.4z M64.3,446h340.1v-40H64.3V446z
	 M64.3,496h340.1v-40H64.3V496z M64.3,546h340.1v-40H64.3V546z M64.3,596h340.1v-40H64.3V596z M64.3,646h340.1v-40H64.3V646z
	 M64.3,696h340.1v-40H64.3V696z M64.3,746h300.1c15.6-15.6,24.4-24.4,40-40v0H64.3V746z"/>
<path id="opacity:50_00000100353290288188455070000018358658347892105404_" fill="#F1C550" d="M1855.7,400.7L1855.7,400.7l-340.1,0
	v-40h300.1C1831.3,376.3,1840.1,385.1,1855.7,400.7z M1515.6,450.7h340.1v-40h-340.1V450.7z M1515.6,500.7h340.1v-40h-340.1V500.7z
	 M1515.6,550.7h340.1v-40h-340.1V550.7z M1515.6,600.7h340.1v-40h-340.1V600.7z M1515.6,650.7h340.1v-40h-340.1V650.7z
	 M1515.6,700.7h340.1v-40h-340.1V700.7z M1555.6,750.7h300.1v-40h-340.1v0C1531.2,726.3,1540,735.1,1555.6,750.7z"/>
</svg>
