<?xml version="1.0" encoding="utf-8"?>
<!-- Generator: Adobe Illustrator 28.4.1, SVG Export Plug-In . SVG Version: 6.00 Build 0)  -->
<svg version="1.1" baseProfile="tiny" id="Layer_1" xmlns="http://www.w3.org/2000/svg" xmlns:xlink="http://www.w3.org/1999/xlink"
	 x="0px" y="0px" viewBox="0 0 64 64" overflow="visible" xml:space="preserve">
<path d="M58,22.1h-2.3v-0.2c0-2.7-2.2-4.8-4.8-4.8H7.1c-2.7,0-4.8,2.2-4.8,4.8v19.6c0,3,2.4,5.5,5.5,5.5h43.2c2.6,0,4.8-2.1,4.8-4.8
	v-0.3H58c1.9,0,3.5-1.6,3.5-3.5V25.6C61.5,23.7,60,22.1,58,22.1z M59.3,39.3c0,0.2-0.1,0.2-0.2,0.2h-5.5v3.5c0,0.8-0.7,1.6-1.6,1.6
	H6.8c-1.2,0-2.2-1-2.2-2.2V20.9c0-0.9,0.7-1.6,1.6-1.6h45.8c0.8,0,1.6,0.7,1.6,1.6v3.5H59c0.1,0,0.2,0.1,0.2,0.2
	C59.3,24.6,59.3,39.3,59.3,39.3z"/>
<path d="M47.7,38.5H11.3c-0.3,0-0.6-0.3-0.6-0.6V26c0-0.3,0.3-0.6,0.6-0.6h36.3c0.3,0,0.6,0.3,0.6,0.6v11.9
	C48.3,38.3,48,38.5,47.7,38.5z"/>
</svg>
