<?xml version="1.0" encoding="utf-8"?>
<!-- Generator: Adobe Illustrator 28.5.0, SVG Export Plug-In . SVG Version: 9.03 Build 54727)  -->
<svg version="1.1" baseProfile="tiny" id="Layer_1" xmlns="http://www.w3.org/2000/svg" xmlns:xlink="http://www.w3.org/1999/xlink"
	 x="0px" y="0px" viewBox="0 0 64 64" overflow="visible" xml:space="preserve">
<path fill="#FFFFFF" d="M46.95,52.24H16.89c-4.12,0-7.47-3.35-7.47-7.47v-8.26h5.34v8.26c0,1.18,0.96,2.13,2.13,2.13h30.07
	c1.18,0,2.13-0.96,2.13-2.13v-8.26h5.34v8.26C54.42,48.89,51.07,52.24,46.95,52.24z"/>
<g>
	<g>
		<polygon fill="#FFFFFF" points="35.49,28.75 44.19,37.45 40.71,40.93 32,32.23 23.3,40.93 19.81,37.45 28.52,28.75 19.81,20.04 
			23.3,16.56 32,25.26 40.71,16.56 44.19,20.04 		"/>
	</g>
</g>
</svg>
