<?xml version="1.0" encoding="utf-8"?>
<!-- Generator: Adobe Illustrator 28.5.0, SVG Export Plug-In . SVG Version: 9.03 Build 54727)  -->
<svg version="1.1" baseProfile="tiny" id="Layer_1" xmlns="http://www.w3.org/2000/svg" xmlns:xlink="http://www.w3.org/1999/xlink"
	 x="0px" y="0px" viewBox="0 0 64 64" overflow="visible" xml:space="preserve">
<polygon fill="#FFFFFF" points="50.18,52.09 54.88,53.92 41.6,53.92 49.97,45.49 39.01,46.5 47.14,30.42 36.81,35.3 32.5,18.41 
	27.09,28.27 15.61,24.06 19.24,40.38 10.34,42.49 20.78,53.92 7.5,53.92 12.48,51.98 1.3,39.7 13.54,36.79 9.04,16.54 24.89,22.33 
	34.13,5.48 40.02,28.51 57.77,20.18 47.2,40.95 62.7,39.51 "/>
<polygon fill="#FFFFFF" points="28.52,53.92 22.36,46.7 26.72,47.7 27.38,36.7 31.5,47.24 35.25,42.69 32.88,51.11 36.93,51.39 
	34.52,53.92 "/>
</svg>
