<?xml version="1.0" encoding="utf-8"?>
<!-- Generator: Adobe Illustrator 28.5.0, SVG Export Plug-In . SVG Version: 9.03 Build 54727)  -->
<svg version="1.1" baseProfile="tiny" id="Layer_1" xmlns="http://www.w3.org/2000/svg" xmlns:xlink="http://www.w3.org/1999/xlink"
	 x="0px" y="0px" viewBox="0 0 64 64" overflow="visible" xml:space="preserve">
<path fill="#FFFFFF" d="M46.95,52.24H16.89c-4.12,0-7.47-3.35-7.47-7.47v-8.26h5.34v8.26c0,1.18,0.96,2.13,2.13,2.13h30.07
	c1.18,0,2.13-0.96,2.13-2.13v-8.26h5.34v8.26C54.42,48.89,51.07,52.24,46.95,52.24z"/>
<path fill="#FFFFFF" d="M44.76,17.57L44.76,17.57c2.94,2.94,2.94,7.71,0,10.65L32,40.98L19.24,28.22c-2.94-2.94-2.94-7.71,0-10.65
	l0,0c2.94-2.94,7.71-2.94,10.65,0L32,19.68l2.11-2.11C37.05,14.63,41.82,14.63,44.76,17.57z"/>
</svg>
