<?xml version="1.0" encoding="utf-8"?>
<!-- Generator: Adobe Illustrator 28.5.0, SVG Export Plug-In . SVG Version: 9.03 Build 54727)  -->
<svg version="1.1" baseProfile="tiny" id="Layer_1" xmlns="http://www.w3.org/2000/svg" xmlns:xlink="http://www.w3.org/1999/xlink"
	 x="0px" y="0px" viewBox="0 0 64 64" overflow="visible" xml:space="preserve">
<path fill="#FFFFFF" d="M58.03,22.13h-2.31v-0.25c0-2.66-2.17-4.83-4.79-4.83H39.39l-0.92,3.23h12.46c0.85,0,1.56,0.71,1.56,1.6
	v3.48h5.54c0.14,0,0.25,0.11,0.25,0.25v12.74c0,0.14-0.11,0.25-0.25,0.25h-5.54v3.55c0,0.85-0.71,1.56-1.56,1.56H36.16l-2.2,3.23
	h16.97c2.63,0,4.79-2.13,4.79-4.79v-0.32h2.31c1.92,0,3.48-1.56,3.48-3.48V25.61C61.51,23.69,59.95,22.13,58.03,22.13z M7.13,20.29
	h16.01l2.24-3.23H7.13c-2.66,0-4.83,2.17-4.83,4.83v19.6c0,3.02,2.45,5.47,5.47,5.47h12.14l0.92-3.23H7.76
	c-1.21,0-2.2-0.99-2.2-2.24v-19.6C5.56,21,6.24,20.29,7.13,20.29z"/>
<polygon fill="#FFFFFF" points="39.93,28.91 29.74,43.71 27.54,46.95 25.87,49.36 24.7,49.36 25.37,46.95 26.3,43.71 28.74,35.09 
	19.34,35.09 29.53,20.29 31.73,17.05 33.4,14.64 34.6,14.64 33.93,17.05 33,20.29 30.52,28.91 "/>
</svg>
