<?xml version="1.0" encoding="utf-8"?>
<!-- Generator: Adobe Illustrator 28.5.0, SVG Export Plug-In . SVG Version: 9.03 Build 54727)  -->
<svg version="1.1" baseProfile="tiny" id="Layer_1" xmlns="http://www.w3.org/2000/svg" xmlns:xlink="http://www.w3.org/1999/xlink"
	 x="0px" y="0px" viewBox="0 0 64 64" overflow="visible" xml:space="preserve">
<g>
	<path fill="#FFFFFF" d="M44.63,14.38v0.02c0,0.98,0.4,1.94,1.15,2.58c4.92,4.22,7.87,10.66,7.29,17.83
		c-0.8,9.82-8.55,17.93-18.32,19.17c-12.87,1.63-23.88-8.41-23.88-20.96c0-6.45,2.86-12.18,7.37-16.04
		c0.75-0.64,1.14-1.59,1.14-2.57v0c0-2.97-3.5-4.59-5.75-2.65c-5.93,5.13-9.71,12.71-9.73,21.2C3.86,47.77,15.73,60.33,30.52,61.09
		c16.23,0.83,29.59-12.1,29.59-28.07c0-8.53-3.76-16.14-9.73-21.28C48.12,9.79,44.63,11.41,44.63,14.38z"/>
</g>
<g>
	<path fill="#FFFFFF" d="M32.01,39.42c-2.31,0-4.19-1.87-4.19-4.19V7.06c0-2.31,1.87-4.19,4.19-4.19c2.31,0,4.19,1.87,4.19,4.19
		v28.17C36.2,37.54,34.33,39.42,32.01,39.42z"/>
</g>
</svg>
