<?xml version="1.0" encoding="utf-8"?>
<!-- Generator: Adobe Illustrator 28.4.1, SVG Export Plug-In . SVG Version: 6.00 Build 0)  -->
<svg version="1.1" baseProfile="tiny" id="Layer_1" xmlns="http://www.w3.org/2000/svg" xmlns:xlink="http://www.w3.org/1999/xlink"
	 x="0px" y="0px" viewBox="0 0 64 64" overflow="visible" xml:space="preserve">
<circle cx="32" cy="32" r="7.7"/>
<path d="M59.5,32c0,15.3-12.4,27.7-27.7,27.7C19.3,59.7,8.2,51.3,5,39.2l5.9-1.6c2.5,9.4,11.1,16,20.9,16c11.9,0,21.6-9.7,21.6-21.6
	c0-11.9-9.7-21.6-21.6-21.6c-3.9,0-7.7,1-11,3l3.7,6.4L5.7,19.2l8.9-16.5l3.1,5.4c4.2-2.5,9.1-3.8,14.1-3.8
	C47,4.3,59.5,16.7,59.5,32z"/>
</svg>
