<?xml version="1.0" encoding="utf-8"?>
<!-- Generator: Adobe Illustrator 28.4.1, SVG Export Plug-In . SVG Version: 6.00 Build 0)  -->
<svg version="1.1" baseProfile="tiny" id="Layer_1" xmlns="http://www.w3.org/2000/svg" xmlns:xlink="http://www.w3.org/1999/xlink"
	 x="0px" y="0px" viewBox="0 0 64 64" overflow="visible" xml:space="preserve">
<path d="M16.4,44.1c3.7,0,6.7,3,6.7,6.7s-3,6.7-6.7,6.7s-6.7-3-6.7-6.7S12.7,44.1,16.4,44.1z M16.4,26.1c2.6,0,4.8,2.1,4.8,4.8
	s-2.1,4.8-4.8,4.8s-4.8-2.1-4.8-4.8S13.8,26.1,16.4,26.1z M16.4,11.1c1.8,0,3.2,1.4,3.2,3.2s-1.4,3.2-3.2,3.2s-3.2-1.4-3.2-3.2
	S14.6,11.1,16.4,11.1z M47.6,44.1c3.7,0,6.7,3,6.7,6.7s-3,6.7-6.7,6.7s-6.7-3-6.7-6.7S43.9,44.1,47.6,44.1z M47.6,26.1
	c2.6,0,4.8,2.1,4.8,4.8s-2.1,4.8-4.8,4.8s-4.8-2.1-4.8-4.8S45,26.1,47.6,26.1z M47.6,11.1c1.8,0,3.2,1.4,3.2,3.2s-1.4,3.2-3.2,3.2
	s-3.2-1.4-3.2-3.2S45.8,11.1,47.6,11.1z M31.9,34.3c3.7,0,6.7,3,6.7,6.7s-3,6.7-6.7,6.7s-6.7-3-6.7-6.7S28.2,34.3,31.9,34.3z
	 M40.4,62.8H23.3c0-4.7,3.8-8.6,8.6-8.6C36.6,54.2,40.4,58.1,40.4,62.8z M31.9,16.2c2.6,0,4.8,2.1,4.8,4.8s-2.1,4.8-4.8,4.8
	s-4.8-2.1-4.8-4.8S29.2,16.2,31.9,16.2z M31.9,1.2c1.8,0,3.2,1.4,3.2,3.2s-1.4,3.2-3.2,3.2s-3.2-1.4-3.2-3.2S30.1,1.2,31.9,1.2z"/>
</svg>
