<?xml version="1.0" encoding="utf-8"?>
<!-- Generator: Adobe Illustrator 26.0.1, SVG Export Plug-In . SVG Version: 6.00 Build 0)  -->
<svg version="1.1" baseProfile="tiny" id="Layer_1" xmlns="http://www.w3.org/2000/svg" xmlns:xlink="http://www.w3.org/1999/xlink"
	 x="0px" y="0px" viewBox="0 0 500 250" overflow="visible" xml:space="preserve">
<g>
	
		<line fill="none" stroke="#88C9D8" stroke-width="3.219" stroke-linecap="round" stroke-miterlimit="10" x1="24.1" y1="126.1" x2="24.1" y2="188.1"/>
	
		<line fill="none" stroke="#88C9D8" stroke-width="3.219" stroke-linecap="round" stroke-miterlimit="10" x1="24.1" y1="126.1" x2="24.1" y2="64"/>
	
		<line fill="none" stroke="#88C9D8" stroke-width="3.219" stroke-linecap="round" stroke-miterlimit="10" x1="41.9" y1="126.1" x2="41.9" y2="177.4"/>
	
		<line fill="none" stroke="#88C9D8" stroke-width="3.219" stroke-linecap="round" stroke-miterlimit="10" x1="41.9" y1="126.1" x2="41.9" y2="74.7"/>
	
		<line fill="none" stroke="#88C9D8" stroke-width="3.219" stroke-linecap="round" stroke-miterlimit="10" x1="77.7" y1="126.1" x2="77.7" y2="59.4"/>
	
		<line fill="none" stroke="#88C9D8" stroke-width="3.219" stroke-linecap="round" stroke-miterlimit="10" x1="77.7" y1="126.1" x2="77.7" y2="192.7"/>
	
		<line fill="none" stroke="#88C9D8" stroke-width="3.219" stroke-linecap="round" stroke-miterlimit="10" x1="122.4" y1="126.1" x2="122.4" y2="74.7"/>
	
		<line fill="none" stroke="#88C9D8" stroke-width="3.219" stroke-linecap="round" stroke-miterlimit="10" x1="122.4" y1="126.1" x2="122.4" y2="177.4"/>
	
		<line fill="none" stroke="#88C9D8" stroke-width="3.219" stroke-linecap="round" stroke-miterlimit="10" x1="158.1" y1="126.1" x2="158.1" y2="174.6"/>
	
		<line fill="none" stroke="#88C9D8" stroke-width="3.219" stroke-linecap="round" stroke-miterlimit="10" x1="158.1" y1="126.1" x2="158.1" y2="77.6"/>
	
		<line fill="none" stroke="#88C9D8" stroke-width="3.219" stroke-linecap="round" stroke-miterlimit="10" x1="175.9" y1="126.1" x2="175.9" y2="192.7"/>
	
		<line fill="none" stroke="#88C9D8" stroke-width="3.219" stroke-linecap="round" stroke-miterlimit="10" x1="175.9" y1="126.1" x2="175.9" y2="59.4"/>
	
		<line fill="none" stroke="#88C9D8" stroke-width="3.219" stroke-linecap="round" stroke-miterlimit="10" x1="202.8" y1="126.1" x2="202.8" y2="69.6"/>
	
		<line fill="none" stroke="#88C9D8" stroke-width="3.219" stroke-linecap="round" stroke-miterlimit="10" x1="202.8" y1="126.1" x2="202.8" y2="182.6"/>
	
		<line fill="none" stroke="#88C9D8" stroke-width="3.219" stroke-linecap="round" stroke-miterlimit="10" x1="211.7" y1="126.1" x2="211.7" y2="74.7"/>
	
		<line fill="none" stroke="#88C9D8" stroke-width="3.219" stroke-linecap="round" stroke-miterlimit="10" x1="211.7" y1="126.1" x2="211.7" y2="177.4"/>
	
		<line fill="none" stroke="#88C9D8" stroke-width="3.219" stroke-linecap="round" stroke-miterlimit="10" x1="220.6" y1="126.1" x2="220.6" y2="188.1"/>
	
		<line fill="none" stroke="#88C9D8" stroke-width="3.219" stroke-linecap="round" stroke-miterlimit="10" x1="220.6" y1="126.1" x2="220.6" y2="64"/>
	
		<line fill="none" stroke="#88C9D8" stroke-width="3.219" stroke-linecap="round" stroke-miterlimit="10" x1="247.4" y1="126.1" x2="247.4" y2="52.6"/>
	
		<line fill="none" stroke="#88C9D8" stroke-width="3.219" stroke-linecap="round" stroke-miterlimit="10" x1="247.4" y1="126.1" x2="247.4" y2="199.5"/>
	
		<line fill="none" stroke="#88C9D8" stroke-width="3.219" stroke-linecap="round" stroke-miterlimit="10" x1="292.1" y1="126.1" x2="292.1" y2="177.4"/>
	
		<line fill="none" stroke="#88C9D8" stroke-width="3.219" stroke-linecap="round" stroke-miterlimit="10" x1="292.1" y1="126.1" x2="292.1" y2="74.7"/>
	
		<line fill="none" stroke="#88C9D8" stroke-width="3.219" stroke-linecap="round" stroke-miterlimit="10" x1="327.9" y1="126.1" x2="327.9" y2="69.6"/>
	
		<line fill="none" stroke="#88C9D8" stroke-width="3.219" stroke-linecap="round" stroke-miterlimit="10" x1="327.9" y1="126.1" x2="327.9" y2="182.6"/>
	
		<line fill="none" stroke="#88C9D8" stroke-width="3.219" stroke-linecap="round" stroke-miterlimit="10" x1="372.5" y1="126.1" x2="372.5" y2="80.9"/>
	
		<line fill="none" stroke="#88C9D8" stroke-width="3.219" stroke-linecap="round" stroke-miterlimit="10" x1="372.5" y1="126.1" x2="372.5" y2="171.2"/>
	
		<line fill="none" stroke="#88C9D8" stroke-width="3.219" stroke-linecap="round" stroke-miterlimit="10" x1="390.3" y1="126.1" x2="390.3" y2="90.1"/>
	
		<line fill="none" stroke="#88C9D8" stroke-width="3.219" stroke-linecap="round" stroke-miterlimit="10" x1="390.3" y1="126.1" x2="390.3" y2="162"/>
	
		<line fill="none" stroke="#88C9D8" stroke-width="3.219" stroke-linecap="round" stroke-miterlimit="10" x1="399.2" y1="126.1" x2="399.2" y2="180.5"/>
	
		<line fill="none" stroke="#88C9D8" stroke-width="3.219" stroke-linecap="round" stroke-miterlimit="10" x1="399.2" y1="126.1" x2="399.2" y2="71.8"/>
	
		<line fill="none" stroke="#88C9D8" stroke-width="3.219" stroke-linecap="round" stroke-miterlimit="10" x1="426.1" y1="126.1" x2="426.1" y2="90.1"/>
	
		<line fill="none" stroke="#88C9D8" stroke-width="3.219" stroke-linecap="round" stroke-miterlimit="10" x1="426.1" y1="126.1" x2="426.1" y2="162"/>
	
		<line fill="none" stroke="#88C9D8" stroke-width="3.219" stroke-linecap="round" stroke-miterlimit="10" x1="443.9" y1="126.1" x2="443.9" y2="177.4"/>
	
		<line fill="none" stroke="#88C9D8" stroke-width="3.219" stroke-linecap="round" stroke-miterlimit="10" x1="443.9" y1="126.1" x2="443.9" y2="74.7"/>
	
		<line fill="none" stroke="#88C9D8" stroke-width="3.219" stroke-linecap="round" stroke-miterlimit="10" x1="461.9" y1="126.1" x2="461.9" y2="174.6"/>
	
		<line fill="none" stroke="#88C9D8" stroke-width="3.219" stroke-linecap="round" stroke-miterlimit="10" x1="461.9" y1="126.1" x2="461.9" y2="77.6"/>
</g>
</svg>
