<?xml version="1.0" encoding="utf-8"?>
<!-- Generator: Adobe Illustrator 26.0.1, SVG Export Plug-In . SVG Version: 6.00 Build 0)  -->
<svg version="1.1" baseProfile="tiny" id="Layer_1" xmlns="http://www.w3.org/2000/svg" xmlns:xlink="http://www.w3.org/1999/xlink"
	 x="0px" y="0px" viewBox="0 0 500 250" overflow="visible" xml:space="preserve">
<g>
	
		<line fill="none" stroke="#88C9D8" stroke-width="3.219" stroke-linecap="round" stroke-miterlimit="10" x1="15.2" y1="125.8" x2="15.2" y2="162"/>
	
		<line fill="none" stroke="#88C9D8" stroke-width="3.219" stroke-linecap="round" stroke-miterlimit="10" x1="15.2" y1="125.8" x2="15.2" y2="90.1"/>
	
		<line fill="none" stroke="#88C9D8" stroke-width="3.219" stroke-linecap="round" stroke-miterlimit="10" x1="50.8" y1="125.8" x2="50.8" y2="158.2"/>
	
		<line fill="none" stroke="#88C9D8" stroke-width="3.219" stroke-linecap="round" stroke-miterlimit="10" x1="50.8" y1="125.8" x2="50.8" y2="94"/>
	
		<line fill="none" stroke="#88C9D8" stroke-width="3.219" stroke-linecap="round" stroke-miterlimit="10" x1="59.9" y1="125.8" x2="59.9" y2="116.2"/>
	
		<line fill="none" stroke="#88C9D8" stroke-width="3.219" stroke-linecap="round" stroke-miterlimit="10" x1="59.9" y1="125.8" x2="59.9" y2="135.9"/>
	
		<line fill="none" stroke="#88C9D8" stroke-width="3.219" stroke-linecap="round" stroke-miterlimit="10" x1="86.6" y1="125.8" x2="86.6" y2="105.4"/>
	
		<line fill="none" stroke="#88C9D8" stroke-width="3.219" stroke-linecap="round" stroke-miterlimit="10" x1="86.6" y1="125.8" x2="86.6" y2="146.7"/>
	
		<line fill="none" stroke="#88C9D8" stroke-width="3.219" stroke-linecap="round" stroke-miterlimit="10" x1="95.5" y1="125.8" x2="95.5" y2="164.5"/>
	
		<line fill="none" stroke="#88C9D8" stroke-width="3.219" stroke-linecap="round" stroke-miterlimit="10" x1="95.5" y1="125.8" x2="95.5" y2="87.6"/>
	
		<line fill="none" stroke="#88C9D8" stroke-width="3.219" stroke-linecap="round" stroke-miterlimit="10" x1="104.6" y1="125.8" x2="104.6" y2="146.7"/>
	
		<line fill="none" stroke="#88C9D8" stroke-width="3.219" stroke-linecap="round" stroke-miterlimit="10" x1="104.6" y1="125.8" x2="104.6" y2="105.4"/>
	
		<line fill="none" stroke="#88C9D8" stroke-width="3.219" stroke-linecap="round" stroke-miterlimit="10" x1="113.5" y1="125.8" x2="113.5" y2="162"/>
	
		<line fill="none" stroke="#88C9D8" stroke-width="3.219" stroke-linecap="round" stroke-miterlimit="10" x1="113.5" y1="125.8" x2="113.5" y2="90.1"/>
	
		<line fill="none" stroke="#88C9D8" stroke-width="3.219" stroke-linecap="round" stroke-miterlimit="10" x1="140.2" y1="125.8" x2="140.2" y2="105.4"/>
	
		<line fill="none" stroke="#88C9D8" stroke-width="3.219" stroke-linecap="round" stroke-miterlimit="10" x1="140.2" y1="125.8" x2="140.2" y2="146.7"/>
	
		<line fill="none" stroke="#88C9D8" stroke-width="3.219" stroke-linecap="round" stroke-miterlimit="10" x1="149.2" y1="125.8" x2="149.2" y2="134.4"/>
	
		<line fill="none" stroke="#88C9D8" stroke-width="3.219" stroke-linecap="round" stroke-miterlimit="10" x1="149.2" y1="125.8" x2="149.2" y2="117.7"/>
	
		<line fill="none" stroke="#88C9D8" stroke-width="3.219" stroke-linecap="round" stroke-miterlimit="10" x1="184.8" y1="125.8" x2="184.8" y2="164.5"/>
	
		<line fill="none" stroke="#88C9D8" stroke-width="3.219" stroke-linecap="round" stroke-miterlimit="10" x1="184.8" y1="125.8" x2="184.8" y2="87.6"/>
	
		<line fill="none" stroke="#88C9D8" stroke-width="3.219" stroke-linecap="round" stroke-miterlimit="10" x1="193.9" y1="125.8" x2="193.9" y2="146.7"/>
	
		<line fill="none" stroke="#88C9D8" stroke-width="3.219" stroke-linecap="round" stroke-miterlimit="10" x1="193.9" y1="125.8" x2="193.9" y2="105.4"/>
	
		<line fill="none" stroke="#88C9D8" stroke-width="3.219" stroke-linecap="round" stroke-miterlimit="10" x1="274.3" y1="125.8" x2="274.3" y2="159.7"/>
	
		<line fill="none" stroke="#88C9D8" stroke-width="3.219" stroke-linecap="round" stroke-miterlimit="10" x1="274.3" y1="125.8" x2="274.3" y2="92.4"/>
	
		<line fill="none" stroke="#88C9D8" stroke-width="3.219" stroke-linecap="round" stroke-miterlimit="10" x1="283.2" y1="125.8" x2="283.2" y2="114.6"/>
	
		<line fill="none" stroke="#88C9D8" stroke-width="3.219" stroke-linecap="round" stroke-miterlimit="10" x1="283.2" y1="125.8" x2="283.2" y2="137.5"/>
	
		<line fill="none" stroke="#88C9D8" stroke-width="3.219" stroke-linecap="round" stroke-miterlimit="10" x1="309.9" y1="125.8" x2="309.9" y2="162"/>
	
		<line fill="none" stroke="#88C9D8" stroke-width="3.219" stroke-linecap="round" stroke-miterlimit="10" x1="309.9" y1="125.8" x2="309.9" y2="90.1"/>
	
		<line fill="none" stroke="#88C9D8" stroke-width="3.219" stroke-linecap="round" stroke-miterlimit="10" x1="319" y1="125.8" x2="319" y2="105.4"/>
	
		<line fill="none" stroke="#88C9D8" stroke-width="3.219" stroke-linecap="round" stroke-miterlimit="10" x1="319" y1="125.8" x2="319" y2="146.7"/>
	
		<line fill="none" stroke="#88C9D8" stroke-width="3.219" stroke-linecap="round" stroke-miterlimit="10" x1="363.6" y1="125.8" x2="363.6" y2="155.9"/>
	
		<line fill="none" stroke="#88C9D8" stroke-width="3.219" stroke-linecap="round" stroke-miterlimit="10" x1="363.6" y1="125.8" x2="363.6" y2="96.2"/>
	
		<line fill="none" stroke="#88C9D8" stroke-width="3.219" stroke-linecap="round" stroke-miterlimit="10" x1="381.4" y1="125.8" x2="381.4" y2="105.4"/>
	
		<line fill="none" stroke="#88C9D8" stroke-width="3.219" stroke-linecap="round" stroke-miterlimit="10" x1="381.4" y1="125.8" x2="381.4" y2="146.7"/>
	
		<line fill="none" stroke="#88C9D8" stroke-width="3.219" stroke-linecap="round" stroke-miterlimit="10" x1="435" y1="125.8" x2="435" y2="119.2"/>
	
		<line fill="none" stroke="#88C9D8" stroke-width="3.219" stroke-linecap="round" stroke-miterlimit="10" x1="435" y1="125.8" x2="435" y2="132.9"/>
	
		<line fill="none" stroke="#88C9D8" stroke-width="3.219" stroke-linecap="round" stroke-miterlimit="10" x1="470.8" y1="125.8" x2="470.8" y2="146.7"/>
	
		<line fill="none" stroke="#88C9D8" stroke-width="3.219" stroke-linecap="round" stroke-miterlimit="10" x1="470.8" y1="125.8" x2="470.8" y2="105.4"/>
	
		<line fill="none" stroke="#88C9D8" stroke-width="3.219" stroke-linecap="round" stroke-miterlimit="10" x1="479.7" y1="125.8" x2="479.7" y2="111.5"/>
	
		<line fill="none" stroke="#88C9D8" stroke-width="3.219" stroke-linecap="round" stroke-miterlimit="10" x1="479.7" y1="125.8" x2="479.7" y2="140.6"/>
	
		<line fill="none" stroke="#88C9D8" stroke-width="3.219" stroke-linecap="round" stroke-miterlimit="10" x1="488.6" y1="125.8" x2="488.6" y2="129.8"/>
	
		<line fill="none" stroke="#88C9D8" stroke-width="3.219" stroke-linecap="round" stroke-miterlimit="10" x1="488.6" y1="125.8" x2="488.6" y2="122.3"/>
</g>
</svg>
