<?xml version="1.0" encoding="utf-8"?>
<!-- Generator: Adobe Illustrator 24.0.2, SVG Export Plug-In . SVG Version: 6.00 Build 0)  -->
<svg version="1.1" baseProfile="tiny" id="Layer_1" xmlns="http://www.w3.org/2000/svg" xmlns:xlink="http://www.w3.org/1999/xlink"
	 x="0px" y="0px" viewBox="0 0 612 792" xml:space="preserve">
<g>
	<path fill="#FFFFFF" d="M290.29,394.51c0.14,1.11,1.25,1.11,1.25,0l-0.34-3.12l-1.21-3.63c0,0,0-0.85,0-2.12c0,0-0.95-1.11-1.91,0
		s-1.25,5.54,0,6.65C289.32,393.4,290.15,393.4,290.29,394.51z"/>
	<path fill="#FFFFFF" d="M321.24,394.51c0,1.11,1.11,1.11,1.25,0c0.14-1.11,0.97-1.11,2.22-2.22c1.25-1.11,0.97-5.54,0-6.65
		c-0.97-1.11-1.91,0-1.91,0c0,1.27,0,2.12,0,2.12l-1.21,3.63L321.24,394.51z"/>
	<path fill="#FFFFFF" d="M293.09,402.27c0,0.02,0,0.05,0.01,0.08c0,0.01,0,0.01,0,0.02c0.01,0.03,0.02,0.06,0.03,0.1
		c0,0,0,0.01,0,0.01c0.01,0.03,0.03,0.07,0.04,0.11c0,0.01,0.01,0.02,0.01,0.03c0.02,0.04,0.04,0.09,0.07,0.14
		c0,0.01,0.01,0.02,0.01,0.02c0.02,0.04,0.05,0.09,0.07,0.14c0.01,0.01,0.01,0.02,0.02,0.03c0.03,0.05,0.06,0.11,0.1,0.17
		c0.01,0.01,0.01,0.02,0.02,0.03c0.03,0.05,0.07,0.11,0.11,0.17c0,0.01,0.01,0.01,0.01,0.02c0.04,0.06,0.08,0.13,0.13,0.2
		c0.01,0.01,0.02,0.02,0.02,0.04c0.05,0.07,0.09,0.14,0.14,0.21c0,0,0,0,0,0c0.05,0.07,0.1,0.15,0.16,0.23
		c0.01,0.01,0.02,0.02,0.03,0.04c0.11,0.16,0.23,0.32,0.35,0.49c0.01,0.01,0.02,0.02,0.02,0.03c0.13,0.17,0.26,0.35,0.4,0.54
		c0,0.01,0.01,0.01,0.01,0.02c1.97,2.62,4.87,6.01,4.87,6.01s1.11,2.22,6.65,2.22s6.65-2.22,6.65-2.22s2.9-3.39,4.87-6.01
		c0-0.01,0.01-0.01,0.01-0.02c0.14-0.18,0.27-0.36,0.4-0.54c0.01-0.01,0.01-0.02,0.02-0.03c0.12-0.17,0.24-0.33,0.35-0.49
		c0.01-0.01,0.02-0.02,0.03-0.04c0.05-0.08,0.11-0.16,0.16-0.23c0,0,0,0,0,0c0.05-0.07,0.1-0.14,0.14-0.21
		c0.01-0.01,0.02-0.03,0.02-0.04c0.04-0.07,0.09-0.13,0.13-0.2c0-0.01,0.01-0.01,0.01-0.02c0.04-0.06,0.07-0.11,0.11-0.17
		c0.01-0.01,0.01-0.02,0.02-0.03c0.04-0.06,0.07-0.11,0.1-0.17c0.01-0.01,0.01-0.02,0.02-0.03c0.03-0.05,0.05-0.09,0.07-0.14
		c0-0.01,0.01-0.02,0.01-0.02c0.02-0.05,0.05-0.09,0.07-0.14c0-0.01,0.01-0.02,0.01-0.03c0.02-0.04,0.03-0.08,0.04-0.11
		c0,0,0-0.01,0-0.01c0.01-0.04,0.02-0.07,0.03-0.1c0-0.01,0-0.01,0-0.02c0.01-0.03,0.01-0.06,0.01-0.08
		c0-1.11,1.11-11.08,1.11-11.08l1.11-3.33c0,0,0-7.76,0-11.08s-3.33-13.41-15.52-13.41c-12.19,0-15.52,10.09-15.52,13.41
		s0,11.08,0,11.08l1.11,3.33C291.98,391.18,293.09,401.16,293.09,402.27z"/>
	<path fill="#FFFFFF" d="M317.47,415.46v-7.6c-0.02,0.03-0.05,0.06-0.07,0.09c-1.46,1.82-2.93,3.56-3.28,3.96
		c-0.21,0.32-0.69,0.92-1.67,1.49c-1.49,0.85-3.53,1.28-6.06,1.28c-2.53,0-4.57-0.43-6.06-1.28c-0.99-0.56-1.47-1.16-1.67-1.49
		c-0.34-0.4-1.82-2.14-3.28-3.96c-0.02-0.03-0.05-0.06-0.07-0.09v7.6c0,2.22-14.41,2.22-14.41,6.65s4.43,5.54,4.43,5.54h42.12
		c0,0,4.43-1.11,4.43-5.54S317.47,417.67,317.47,415.46z"/>
</g>
</svg>
