<?xml version="1.0" encoding="utf-8"?>
<!-- Generator: Adobe Illustrator 24.0.2, SVG Export Plug-In . SVG Version: 6.00 Build 0)  -->
<svg version="1.1" id="Layer_1" xmlns="http://www.w3.org/2000/svg" xmlns:xlink="http://www.w3.org/1999/xlink" x="0px" y="0px"
	 viewBox="0 0 612 792" style="enable-background:new 0 0 612 792;" xml:space="preserve">
<style type="text/css">
	.st0{fill:#FFFFFF;}
</style>
<path class="st0" d="M303.5,359.4c0.7,0,3.2,0.3,2.9,4l0.5,0.8l-0.6,2.3l-0.6,0.6l-0.4,1.1c0,0,1.4,4,6.6,4l1.8,2.1l2.3,7.6l5.4,8.6
	l1.8,6.2l-0.5,2.1l-1.9-1l-1.8-2.9v-2.3l-3.7-4l-2.2-4l-3.9-4.4l0.4,6.2l-0.3,3.1l0.7,4.1l1.9,5.8l0.5,4.8l-0.9,5.4l1.7,7.5l0.4,8.5
	l2.6,5.1l-0.3,1.6l-3.2,0.4l-0.6-2.4l-2.2-2.4l-0.3-2.1l0.7-1.5l-1.5-5.4l-1.1-2l0.2-2.8l-3-8.5l-1.3-5.7l0,0h0l0,0l-1.3,5.7l-3,9
	l0.2,2.6l-1.1,1.8l-1.5,5.3l0.7,1.5l-0.3,2.1l-2.2,2.4l-0.6,2.4l-3.2-0.4l-0.3-1.6l2.6-5.1l0.4-8.5l1.7-7.5l-0.9-5.4l0.4-4.8
	l1.9-5.8l0.7-4.1l-0.4-3.1l0.4-6.2l-4,4.4l-2.9,4l-4.5,4v2.3l-0.9,2.9l-1.3,1l-0.4-2.1l1.9-6.2l5.4-8.6l2.3-7.6l1.8-2.1
	c5.2,0,6.6-4,6.6-4l-0.3-1.1l-0.6-0.6l-0.6-2.3l0.5-0.8c-0.3-3.7,2.2-4,2.9-4C303.3,359.3,303.4,359.3,303.5,359.4
	C303.4,359.3,303.4,359.4,303.5,359.4"/>
</svg>
