<?xml version="1.0" encoding="utf-8"?>
<!-- Generator: Adobe Illustrator 25.2.3, SVG Export Plug-In . SVG Version: 6.00 Build 0)  -->
<svg version="1.1" id="Layer_2_1_" xmlns="http://www.w3.org/2000/svg" xmlns:xlink="http://www.w3.org/1999/xlink" x="0px" y="0px"
	 viewBox="0 0 612 792" style="enable-background:new 0 0 612 792;" xml:space="preserve">
<style type="text/css">
	.st0{fill:#FFFFFF;}
</style>
<path class="st0" d="M306.5,370.3l-20.6,9.1l20.5,9.1l20.8-9.2L306.5,370.3z"/>
<path class="st0" d="M325.4,403.3L313.8,391l-4.7,2.1v27.3l5.4-2.4v-18.5l11.7,13.2l4.9-2.2v-27.3l-5.6,2.5V403.3z"/>
<path class="st0" d="M339.3,373.5l-31.6-13.9c-0.7-0.3-1.7-0.3-2.5,0l-31.7,14.1c-1.3,0.7-1.8,1.9-1.8,2.8V415
	c0,1.2,0.7,2.3,1.8,2.8l31.5,13.9c0.3,0.2,1.3,0.5,2.5,0l31.8-14.1c1-0.5,1.8-1.6,1.8-2.8v-38.5
	C341.1,374.5,339.6,373.7,339.3,373.5z M336.3,412.3c0,1-0.7,2-1.5,2.4l-27.2,12c-1.2,0.6-2,0.1-2.1,0l-27-11.9
	c-0.9-0.4-1.5-1.3-1.5-2.4v-33c0-0.9,0.4-1.8,1.5-2.4l27.2-12.1c0.7-0.3,1.5-0.3,2.1,0l27.1,11.9c0.2,0.1,1.5,0.9,1.5,2.4V412.3z"/>
<path class="st0" d="M298.6,390.7v15.7l-11-20.5l-5.4-2.4v27.3l5.3,2.4v-16l11.1,20.9l5.3,2.4v-27.3L298.6,390.7z"/>
</svg>
