<?xml version="1.0" encoding="utf-8"?>
<!-- Generator: Adobe Illustrator 24.0.2, SVG Export Plug-In . SVG Version: 6.00 Build 0)  -->
<svg version="1.1" id="Layer_3" xmlns="http://www.w3.org/2000/svg" xmlns:xlink="http://www.w3.org/1999/xlink" x="0px" y="0px"
	 viewBox="0 0 612 792" style="enable-background:new 0 0 612 792;" xml:space="preserve">
<style type="text/css">
	.st0{fill:#FFFFFF;}
</style>
<g>
	<path class="st0" d="M311.1,375c-13.2,0-24,10.8-24,24c0,13.2,10.8,24,24,24c13.2,0,24-10.8,24-24C335,385.7,324.3,375,311.1,375z
		 M311.1,413c-7.8,0-14.1-6.3-14.1-14.1c0-7.8,6.3-14.1,14.1-14.1c7.8,0,14.1,6.3,14.1,14.1C325.1,406.7,318.8,413,311.1,413z"/>
	<path class="st0" d="M285.3,380.7c2,0,3.9-0.8,5.3-2.2c2.9-2.9,2.9-7.6,0-10.5c-1.4-1.4-3.3-2.2-5.3-2.2s-3.9,0.8-5.3,2.2
		c-2.9,2.9-2.9,7.6,0,10.5C281.5,379.9,283.3,380.7,285.3,380.7z"/>
	<path class="st0" d="M285.3,417.2c-2,0-3.9,0.8-5.3,2.2c-2.9,2.9-2.9,7.6,0,10.5c1.4,1.4,3.3,2.2,5.3,2.2s3.9-0.8,5.3-2.2
		c2.9-2.9,2.9-7.6,0-10.5C289.2,418,287.3,417.2,285.3,417.2z M285.3,427.8c-0.8,0-1.6-0.3-2.2-0.9c-0.6-0.6-0.9-1.4-0.9-2.2
		s0.3-1.6,0.9-2.2c0.6-0.6,1.4-0.9,2.2-0.9s1.6,0.3,2.2,0.9c0.6,0.6,0.9,1.4,0.9,2.2s-0.3,1.6-0.9,2.2
		C286.9,427.5,286.1,427.8,285.3,427.8z"/>
	<path class="st0" d="M342.1,367.9c-1.4-1.4-3.3-2.2-5.3-2.2s-3.9,0.8-5.3,2.2c-2.9,2.9-2.9,7.6,0,10.5c1.4,1.4,3.3,2.2,5.3,2.2
		s3.9-0.8,5.3-2.2C345,375.6,345,370.9,342.1,367.9z M336.8,376.4c-0.8,0-1.6-0.3-2.2-0.9c-0.6-0.6-0.9-1.4-0.9-2.2s0.3-1.6,0.9-2.2
		c0.6-0.6,1.4-0.9,2.2-0.9s1.6,0.3,2.2,0.9c0.6,0.6,0.9,1.4,0.9,2.2s-0.3,1.6-0.9,2.2C338.4,376,337.6,376.4,336.8,376.4z"/>
	<path class="st0" d="M278.7,418.4c0-0.1,0.1-0.1,0.2-0.2c0.7-0.7,1.4-1.2,2.2-1.6l0.8-0.4l-0.4-0.7c-2.8-5-4.3-10.8-4.3-16.5
		s1.5-11.5,4.3-16.5l0.4-0.7l-0.8-0.4c-0.8-0.4-1.6-1-2.2-1.6c-0.1-0.1-0.1-0.1-0.2-0.2l-0.8-0.9l-0.6,1c-3.4,5.9-5.2,12.6-5.2,19.4
		s1.8,13.5,5.2,19.4l0.6,1L278.7,418.4z"/>
	<path class="st0" d="M291.8,366.8c0.7,0.7,1.2,1.4,1.6,2.2l0.4,0.8l0.7-0.4c5-2.8,10.8-4.3,16.5-4.3s11.5,1.5,16.5,4.3l0.7,0.4
		l0.4-0.8c0.4-0.8,1-1.6,1.6-2.2c0.1-0.1,0.1-0.1,0.2-0.2l0.9-0.8l-1-0.6c-5.9-3.4-12.6-5.2-19.4-5.2s-13.5,1.8-19.4,5.2l-1,0.6
		l0.9,0.8C291.6,366.7,291.7,366.7,291.8,366.8z"/>
</g>
</svg>
