<?xml version="1.0" encoding="utf-8"?>
<!-- Generator: Adobe Illustrator 24.0.2, SVG Export Plug-In . SVG Version: 6.00 Build 0)  -->
<svg version="1.1" id="Layer_2_1_" xmlns="http://www.w3.org/2000/svg" xmlns:xlink="http://www.w3.org/1999/xlink" x="0px" y="0px"
	 viewBox="0 0 612 792" style="enable-background:new 0 0 612 792;" xml:space="preserve">
<style type="text/css">
	.st0{fill:#FFFFFF;}
</style>
<g>
	<path class="st0" d="M338.5,390.9h-1.9v-16.3h-55.9v16.3h-1.9c-2.6,0-4.6,2.1-4.6,4.6v30.3c0,2.6,2.1,4.6,4.6,4.6h59.7
		c2.6,0,4.6-2.1,4.6-4.6v-30.3C343.1,393,341,390.9,338.5,390.9z M338.5,394.5c0.6,0,1,0.5,1,1v11.7h-2.9v-12.7H338.5z M333,378.2
		v29.1h-48.7v-29.1H333z M338.5,426.9h-59.7c-0.6,0-1-0.5-1-1v-15h61.8v15C339.5,426.4,339.1,426.9,338.5,426.9z M280.7,407.3h-2.9
		v-11.7c0-0.6,0.5-1,1-1h1.9L280.7,407.3L280.7,407.3z"/>
	<path class="st0" d="M291.6,369.6l0.2,0.1c0.5,0.3,1.2,0.2,1.7-0.1c4.5-2.9,9.7-4.5,15.1-4.5c5.4,0,10.6,1.6,15.1,4.5
		c0.3,0.2,0.6,0.3,0.9,0.3c0.3,0,0.5-0.1,0.8-0.2l0.2-0.1c0.5-0.3,0.9-0.8,0.9-1.4c0-0.6-0.3-1.2-0.8-1.5c-5.1-3.4-11-5.1-17.1-5.1
		c-6.1,0-12,1.8-17.1,5.1c-0.5,0.3-0.8,0.9-0.8,1.5C290.7,368.8,291.1,369.3,291.6,369.6z"/>
	<path class="st0" d="M308.6,368.1c-2.7,0-5.4,0.6-7.8,1.8c-0.7,0.3-1,1-0.9,1.7c0.1,0.7,0.6,1.3,1.3,1.5l0.3,0.1c0.1,0,0.2,0,0.3,0
		c0.2,0,0.5-0.1,0.7-0.2c1.9-0.9,3.9-1.3,6-1.3c2.1,0,4.1,0.4,6,1.3c0.3,0.2,0.7,0.2,1,0.1l0.3-0.1c0.7-0.2,1.3-0.7,1.3-1.5
		c0.1-0.7-0.3-1.4-0.9-1.7C314,368.7,311.4,368.1,308.6,368.1z"/>
	<rect x="294.9" y="381.3" class="st0" width="27.4" height="3.3"/>
	<rect x="291.6" y="387.8" class="st0" width="34" height="3.3"/>
	<rect x="298.2" y="394.4" class="st0" width="20.9" height="3.3"/>
	<rect x="288.4" y="400.9" class="st0" width="40.5" height="3.3"/>
</g>
</svg>
