<?xml version="1.0" encoding="utf-8"?>
<!-- Generator: Adobe Illustrator 24.0.2, SVG Export Plug-In . SVG Version: 6.00 Build 0)  -->
<svg version="1.1" id="Layer_2_1_" xmlns="http://www.w3.org/2000/svg" xmlns:xlink="http://www.w3.org/1999/xlink" x="0px" y="0px"
	 viewBox="0 0 612 792" style="enable-background:new 0 0 612 792;" xml:space="preserve">
<style type="text/css">
	.st0{fill:#FFFFFF;}
</style>
<g>
	<polygon class="st0" points="276.7,393.1 301.5,405.5 301.5,401.9 276.7,389.5 	"/>
	<polygon class="st0" points="276.7,399.9 301.5,412.3 301.5,408.7 276.7,396.3 	"/>
	<polygon class="st0" points="276.7,406.7 301.5,419.1 301.5,415.5 276.7,403.1 	"/>
	<path class="st0" d="M341.2,377.5l-34.1-17c-0.5-0.2-1-0.2-1.4,0l-34.1,17c-0.5,0.3-0.9,0.8-0.9,1.4V413c0,0.6,0.3,1.2,0.9,1.4
		l34.1,17c0.2,0.1,0.5,0.2,0.7,0.2s0.5-0.1,0.7-0.2l34.1-17c0.5-0.3,0.9-0.8,0.9-1.4V379C342.1,378.4,341.7,377.8,341.2,377.5z
		 M274.1,412v-30.2l30.6,15.3v30.2L274.1,412z M338.7,381.8v30.2l-10.8,5.4v-30.2L338.7,381.8z M326,384.3l-30.2-15.1l10.5-5.3
		l30.2,15.1L326,384.3z M288.1,373.1l30.2,15.1l-11.9,5.9L276.2,379L288.1,373.1z M320.2,391v30.2l-12.1,6.1v-30.2L320.2,391z"/>
</g>
</svg>
