<?xml version="1.0" encoding="utf-8"?>
<!-- Generator: Adobe Illustrator 24.0.2, SVG Export Plug-In . SVG Version: 6.00 Build 0)  -->
<svg version="1.1" baseProfile="tiny" id="Layer_1" xmlns="http://www.w3.org/2000/svg" xmlns:xlink="http://www.w3.org/1999/xlink"
	 x="0px" y="0px" viewBox="0 0 612 792" xml:space="preserve">
<path fill="#FFFFFF" d="M320.5,395.51c0-3.02-0.96-5.82-2.6-8.11l4.83-4.83l-3.3-3.3l-4.83,4.83c-2.29-1.63-5.09-2.6-8.11-2.6
	s-5.82,0.96-8.11,2.6l-4.83-4.83l-3.3,3.3l4.83,4.83c-1.63,2.29-2.6,5.09-2.6,8.11c0,3.02,0.96,5.82,2.6,8.11l-4.83,4.83l3.3,3.3
	l4.83-4.83c2.29,1.63,5.09,2.6,8.11,2.6s5.82-0.96,8.11-2.6l4.83,4.83l3.3-3.3l-4.83-4.83C319.54,401.33,320.5,398.53,320.5,395.51z
	 M311.23,403.55c-1.39,0.82-3.01,1.3-4.74,1.3c-1.73,0-3.35-0.47-4.74-1.3c-1.36-0.8-2.5-1.94-3.3-3.3c-0.82-1.39-1.3-3.01-1.3-4.74
	c0-1.73,0.47-3.35,1.3-4.74c0.8-1.36,1.94-2.5,3.3-3.3c1.39-0.82,3.01-1.3,4.74-1.3c1.73,0,3.35,0.47,4.74,1.3
	c1.36,0.8,2.5,1.94,3.3,3.3c0.82,1.39,1.3,3.01,1.3,4.74c0,1.73-0.47,3.35-1.3,4.74C313.73,401.61,312.59,402.74,311.23,403.55z"/>
</svg>
