<?xml version="1.0" encoding="utf-8"?>
<!-- Generator: Adobe Illustrator 24.0.2, SVG Export Plug-In . SVG Version: 6.00 Build 0)  -->
<svg version="1.1" baseProfile="tiny" id="Layer_1" xmlns="http://www.w3.org/2000/svg" xmlns:xlink="http://www.w3.org/1999/xlink"
	 x="0px" y="0px" viewBox="0 0 612 792" xml:space="preserve">
<path fill="#B5B5B6" d="M397.92,366.26l-41.53-23.07v-32.68c0-2.76-2.24-5-5-5h-90c-2.76,0-5,2.24-5,5v32.68l-41.53,23.07
	c-4.93,1.76-8.47,6.46-8.47,12v94.5c0,7.04,5.71,12.75,12.75,12.75h174.5c7.04,0,12.75-5.71,12.75-12.75v-94.5
	C406.39,372.72,402.85,368.02,397.92,366.26z M216.39,472.76v-94.39l66.9,37.17l-66.89,57.33
	C216.4,472.83,216.39,472.79,216.39,472.76z M287.02,417.6l11.58,6.43c2.44,1.36,5.12,2.03,7.79,2.03s5.35-0.68,7.79-2.03
	l11.58-6.43l67.55,57.9H219.46L287.02,417.6z M329.49,415.53l66.9-37.17v94.39c0,0.04-0.01,0.07-0.01,0.11L329.49,415.53z
	 M393.64,374.18l-37.25,20.69v-41.39L393.64,374.18z M346.39,355.51h-20v56.03l-14.63,8.13c-3.36,1.87-7.37,1.87-10.73,0
	l-14.63-8.13v-56.03h-20l40-40L346.39,355.51z M256.39,394.87l-37.25-20.69l37.25-20.69V394.87z"/>
</svg>
