<?xml version="1.0" encoding="utf-8"?>
<!-- Generator: Adobe Illustrator 22.1.0, SVG Export Plug-In . SVG Version: 6.00 Build 0)  -->
<svg version="1.1" baseProfile="tiny" id="Layer_2_1_"
	 xmlns="http://www.w3.org/2000/svg" xmlns:xlink="http://www.w3.org/1999/xlink" x="0px" y="0px" width="612px" height="792px"
	 viewBox="0 0 612 792" xml:space="preserve">
<g id="XMLID_1_">
	<g>
		<g>
			<path fill="#FFFFFF" d="M322.4,380.7c-1.3-2-0.5-7.3-7-10.9c-2.8-1.5-5.7-2.4-8.5-2.6c-1.1-2.4-3.4-5.5-7.7-5.8
				c1,2.8,0.4,5.3-0.3,6.9l-0.6,0.2c-7.3,2.5-12.8,8.8-15.5,17.5c-2.2,7.2-1.3,14.3,4,20.3c1.5,2.5-0.1,5.8-0.2,6.4
				c1.4-0.1,3-1.7,3-1.7l-0.3-1.5l0.8,1.2c0,0,3.1-0.7,5.2-3.2c-0.9-0.4-4.2,0.1-7.3-1.7c-2.3-4.1-1.7-11.1,1.9-16.7
				c0.3-0.5,0.7-1,1.1-1.5c0.3-0.3,0.6-0.7,0.8-1c6.1-6.8,14.3-7.6,26.4-4.4c1.4,0.4,2.8,0.9,4.1,1.5c0.9,0.4,1.8,0.9,2.6,1.3
				c0.9,0.5,1.6,0.9,2,1.2C328.5,384.1,323.1,381.8,322.4,380.7z"/>
		</g>
	</g>
</g>
<g>
	<g>
		<g>
			<path fill="#FFFFFF" d="M276.9,397.7c-1.1,2.1-6.1,4.1-5.9,11.6c0.1,3.2,0.8,6.1,2,8.6c-1.5,2.1-3.1,5.7-1.2,9.6
				c1.9-2.3,4.4-3,6.1-3.1l0.5,0.4c5.8,5.1,14,6.7,22.9,4.7c7.3-1.7,13-6.1,15.6-13.6c1.4-2.5,5.1-2.8,5.6-3c-0.8-1.2-3-1.8-3-1.8
				l-1.2,1l0.6-1.3c0,0-2.2-2.3-5.4-2.9c0.2,1,2.2,3.6,2.2,7.2c-2.4,4.1-8.8,7-15.4,6.6c-0.6,0-1.2-0.1-1.8-0.2
				c-0.4-0.1-0.9-0.1-1.3-0.2c-9-1.9-13.7-8.6-17-20.7c-0.4-1.4-0.6-2.9-0.8-4.3c-0.1-1-0.2-2-0.2-2.9c0-1,0-1.8,0-2.3
				C276.7,390.7,277.5,396.5,276.9,397.7z"/>
		</g>
	</g>
</g>
<g>
	<g>
		<g>
			<path fill="#FFFFFF" d="M314.3,428.6c2.4-0.1,6.6,3.2,13-0.6c2.7-1.6,4.9-3.7,6.5-6.1c2.6,0.3,6.4-0.2,8.9-3.8
				c-2.9-0.5-4.8-2.3-5.8-3.7l0.1-0.6c1.5-7.5-1.2-15.5-7.4-22.2c-5.1-5.5-11.7-8.2-19.6-6.7c-2.9,0-5-3-5.4-3.4
				c-0.6,1.3-0.1,3.5-0.1,3.5l1.5,0.5l-1.4,0.1c0,0-0.9,3.1,0.2,6.1c0.8-0.6,2-3.7,5.1-5.5c4.8,0,10.4,4.1,13.5,10
				c0.3,0.5,0.5,1.1,0.8,1.7c0.2,0.4,0.3,0.8,0.5,1.2c2.9,8.7-0.6,16.2-9.4,25.1c-1,1-2.2,2-3.3,2.8c-0.8,0.6-1.7,1.1-2.4,1.6
				c-0.9,0.5-1.6,0.9-2,1.1C308.3,432.2,313,428.7,314.3,428.6z"/>
		</g>
	</g>
</g>
</svg>
