<?xml version="1.0" encoding="utf-8"?>
<!-- Generator: Adobe Illustrator 24.0.2, SVG Export Plug-In . SVG Version: 6.00 Build 0)  -->
<svg version="1.1" id="Layer_3" xmlns="http://www.w3.org/2000/svg" xmlns:xlink="http://www.w3.org/1999/xlink" x="0px" y="0px"
	 viewBox="0 0 612 792" style="enable-background:new 0 0 612 792;" xml:space="preserve">
<style type="text/css">
	.st0{fill:#FFFFFF;}
</style>
<g>
	<path class="st0" d="M305.6,402.2c-1.3-0.5-2.2-1.8-2.2-3.2v-4.3c1.8-1.2,3-3.2,3-5.4l1.3-11l0-0.1c0-6-4.9-10.9-10.9-10.9
		c-6,0-10.9,4.9-10.9,10.9l1.3,11.1c0,2.3,1.2,4.3,3,5.4v4.3c0,1.4-0.9,2.7-2.2,3.2c-5.2,1.9-17.7,7.2-17.7,12.5c0,6.6,0,10,0,10
		h53.1c0,0,0-3.3,0-10C323.3,409.5,310.7,404.2,305.6,402.2z"/>
	<g>
		<path class="st0" d="M327.1,406.1c-1.1-0.4-1.8-1.5-1.8-2.6v-3.6c1.5-1,2.5-2.6,2.5-4.5l1.1-9.1l0-0.1c0-5-4.1-9.1-9.1-9.1
			c-5,0-9.1,4.1-9.1,9.1l1.1,9.2c0,1.9,1,3.5,2.5,4.5v3.3c1.2,0.6,2.3,1.2,3.5,1.9c5.5,3.2,8.2,6.4,8.2,9.8v10h15.8c0,0,0-2.8,0-8.3
			C341.8,412,331.4,407.7,327.1,406.1z"/>
	</g>
</g>
</svg>
