<?xml version="1.0" encoding="utf-8"?>
<!-- Generator: Adobe Illustrator 24.0.2, SVG Export Plug-In . SVG Version: 6.00 Build 0)  -->
<svg version="1.1" id="Layer_1" xmlns="http://www.w3.org/2000/svg" xmlns:xlink="http://www.w3.org/1999/xlink" x="0px" y="0px"
	 viewBox="0 0 612 792" style="enable-background:new 0 0 612 792;" xml:space="preserve">
<style type="text/css">
	.st0{fill:#FFFFFF;}
</style>
<path id="Ship_Manager" class="st0" d="M320,431.5l-6.4-2l-0.8-0.8l-1.4-4.1l-1.2,1.1h-7.5l-1.2-1.1l-1.4,4.1l-0.8,0.8l-6.4,2
	l-1.6-1.4l2.8-15.2l-19,6l-1.6-1.4l0.9-7.4l0.4-0.8l19.8-19.4v-6.7l0.4-0.9l4-4l1.1-10.3l3.2-7.6l0.3-0.4l1.3-1.3l0.9-0.4h1.8
	l0.9,0.4l1.3,1.3l0.3,0.4l3.3,8l1,9.9l4,4l0.4,0.9v6.7l19.8,19.4l0.4,0.8l0.9,7.4l-1.6,1.4l-19-6l2.8,15.2L320,431.5z M315,427.3
	l3.7,1.1l-2.8-15.2l1.6-1.4l19.2,6l-0.6-5l-19.9-19.5l-0.4-0.9v-6.7l-3.9-3.9l-0.4-0.8l-1-10.2l-3.1-7.2l-0.7-0.7H306l-0.7,0.7
	l-3.1,7.2l-1,10.2l-0.4,0.8l-3.9,3.9v6.7l-0.4,0.9l-19.9,19.5l-0.6,5l19.2-6l1.6,1.4l-2.8,15.2l3.7-1.1l3-9l2.5,0.3l0.5,4.6h5.2
	l0.5-4.6l2.5-0.3L315,427.3z"/>
</svg>
