<?xml version="1.0" encoding="utf-8"?>
<!-- Generator: Adobe Illustrator 24.0.2, SVG Export Plug-In . SVG Version: 6.00 Build 0)  -->
<svg version="1.1" id="Layer_2_1_" xmlns="http://www.w3.org/2000/svg" xmlns:xlink="http://www.w3.org/1999/xlink" x="0px" y="0px"
	 viewBox="0 0 612 792" style="enable-background:new 0 0 612 792;" xml:space="preserve">
<style type="text/css">
	.st0{fill:#FFFFFF;}
</style>
<g>
	<g>
		<polygon class="st0" points="314.3,424 317.4,423 315.3,420.9 		"/>
	</g>
	<g>
		<rect x="286.3" y="368" class="st0" width="21.4" height="2.7"/>
	</g>
	<g>
		<g>
			<path class="st0" d="M323.7,425.6c0,1.4-1.1,2.5-2.5,2.5h-37.7c-1.4,0-2.5-1.1-2.5-2.5v-59.1c0-1.4,1.1-2.5,2.5-2.5h37.7
				c1.4,0,2.5,1.1,2.5,2.5v40.8l5.3-5.3v-35.4c0-4.3-3.5-7.8-7.8-7.8h-37.7c-4.3,0-7.8,3.5-7.8,7.8v59.1c0,4.3,3.5,7.8,7.8,7.8h37.7
				c4.3,0,7.8-3.5,7.8-7.8v-8.9l-5.3,5.3V425.6z"/>
		</g>
	</g>
	<g>
		<rect x="286.3" y="373.3" class="st0" width="32" height="2.7"/>
	</g>
	<g>
		<rect x="286.3" y="378.6" class="st0" width="10.7" height="2.7"/>
	</g>
	<g>
		<rect x="302.3" y="378.6" class="st0" width="16" height="2.7"/>
	</g>
	<g>
		<rect x="286.3" y="384" class="st0" width="21.4" height="2.7"/>
	</g>
	<g>
		<rect x="313" y="384" class="st0" width="5.3" height="2.7"/>
	</g>
	<g>
		<rect x="286.3" y="389.3" class="st0" width="10.7" height="2.7"/>
	</g>
	<g>
		<rect x="302.3" y="389.3" class="st0" width="16" height="2.7"/>
	</g>
	<g>
		<rect x="286.3" y="394.7" class="st0" width="32" height="2.7"/>
	</g>
	<g>
		<rect x="286.3" y="400" class="st0" width="21.4" height="2.7"/>
	</g>
	<g>
		<rect x="313" y="400" class="st0" width="5.3" height="2.7"/>
	</g>
	<g>
		<rect x="286.3" y="405.3" class="st0" width="5.3" height="2.7"/>
	</g>
	<g>
		<rect x="297" y="405.3" class="st0" width="21.4" height="2.7"/>
	</g>
	<g>
		<rect x="286.3" y="410.7" class="st0" width="16" height="2.7"/>
	</g>
	<g>
		<rect x="286.3" y="416" class="st0" width="10.7" height="2.7"/>
	</g>
	<g>
		<rect x="286.3" y="421.4" class="st0" width="10.7" height="2.7"/>
	</g>
	<g>
		<rect x="302.3" y="421.4" class="st0" width="5.3" height="2.7"/>
	</g>
	<g>
		<g>
			<path class="st0" d="M339.2,403.5c0.7-0.7,0.7-1.9,0-2.7l-1.7-1.7c-0.7-0.7-1.9-0.7-2.7,0l-0.9,0.9l4.4,4.4L339.2,403.5z"/>
		</g>
		<g>
			<polygon class="st0" points="316.5,417.5 315.7,419.8 318.5,422.6 320.8,421.9 337.1,405.6 332.8,401.2 			"/>
		</g>
	</g>
</g>
</svg>
