<?xml version="1.0" encoding="utf-8"?>
<!-- Generator: Adobe Illustrator 27.4.0, SVG Export Plug-In . SVG Version: 6.00 Build 0)  -->
<svg version="1.1" baseProfile="tiny" id="Layer_1" xmlns="http://www.w3.org/2000/svg" xmlns:xlink="http://www.w3.org/1999/xlink"
	 x="0px" y="0px" viewBox="0 0 23.4 23" overflow="visible" xml:space="preserve">
<path fill="#6CB8C7" d="M23,20.5L18,15.6c0,0,0,0,0,0c1.1-1.6,1.8-3.5,1.8-5.6c0-5.5-4.4-9.9-9.9-9.9C4.4,0,0,4.4,0,9.9
	s4.4,9.9,9.9,9.9c2.3,0,4.4-0.8,6-2.1l4.9,4.9c0.3,0.3,0.7,0.4,1.1,0.4s0.8-0.1,1.1-0.4C23.5,22,23.5,21.1,23,20.5z M9.9,16.8
	C6.1,16.8,3,13.7,3,9.9C3,6.1,6.1,3,9.9,3s6.9,3.1,6.9,6.9C16.8,13.7,13.7,16.8,9.9,16.8z"/>
</svg>
