<?xml version="1.0" encoding="utf-8"?>
<!-- Generator: Adobe Illustrator 27.8.0, SVG Export Plug-In . SVG Version: 6.00 Build 0)  -->
<svg version="1.1" baseProfile="tiny" id="Layer_1" xmlns="http://www.w3.org/2000/svg" xmlns:xlink="http://www.w3.org/1999/xlink"
	 x="0px" y="0px" viewBox="0 0 64 64" overflow="visible" xml:space="preserve">
<path fill="#FFFFFF" d="M44.7,7.1c-7.8,0-14.2,6.4-14.2,14.2v6.1H7.9c-1.6,0-2.8,1.3-2.8,2.8v23.9c0,1.5,1.2,2.8,2.8,2.8h33.9
	c1.6,0,2.8-1.2,2.8-2.8V30.2c0-1.6-1.2-2.8-2.8-2.8h-6.2v-6.1c0-5,4-9,9-9c5,0,9,4,9,9v6.1c0,1.4,1.2,2.6,2.6,2.6
	c1.4,0,2.6-1.2,2.6-2.6v-6.1C58.9,13.5,52.5,7.1,44.7,7.1z M26.3,43.2v6.5c0,0.8-0.6,1.4-1.4,1.4c-0.8,0-1.4-0.6-1.4-1.4v-6.4
	c-1.7-0.6-2.9-2.2-2.9-4c0-2.3,1.9-4.2,4.2-4.2c2.4,0,4.3,1.9,4.3,4.2C29.2,41.1,27.9,42.7,26.3,43.2z"/>
</svg>
