<?xml version="1.0" encoding="utf-8"?>
<!-- Generator: Adobe Illustrator 27.8.0, SVG Export Plug-In . SVG Version: 6.00 Build 0)  -->
<svg version="1.1" baseProfile="tiny" id="Layer_1" xmlns="http://www.w3.org/2000/svg" xmlns:xlink="http://www.w3.org/1999/xlink"
	 x="0px" y="0px" viewBox="0 0 64 64" overflow="visible" xml:space="preserve">
<path fill="#FFFFFF" d="M37.8,5.8c-1.8-0.4-3.6-0.5-5.4-0.5c-14.8,0-26.8,12-26.8,26.8c0,14.7,11.9,26.7,26.7,26.8h0.1
	c0.3,0,0.5,0,0.8,0c14.4-0.4,26-12.2,26-26.7C59.1,19.2,50,8.3,37.8,5.8z M27.5,10.5h9.7c0.6,0,0.9,0.3,0.9,0.9L37,37.3
	c0,0.3-0.1,0.5-0.3,0.7c-0.2,0.2-0.4,0.3-0.7,0.3h-7.3c-0.3,0-0.5-0.1-0.7-0.3c-0.2-0.2-0.3-0.4-0.3-0.7l-1-25.9
	C26.7,10.8,27,10.5,27.5,10.5z M37,53.4c-1.2,1.2-2.7,1.8-4.6,1.8s-3.4-0.6-4.6-1.8c-1.2-1.2-1.8-2.7-1.8-4.6c0-1.9,0.6-3.4,1.8-4.6
	c1.2-1.2,2.7-1.8,4.6-1.8s3.4,0.6,4.6,1.8c1.2,1.2,1.8,2.7,1.8,4.6C38.8,50.6,38.2,52.1,37,53.4z"/>
</svg>
