<?xml version="1.0" encoding="utf-8"?>
<!-- Generator: Adobe Illustrator 27.8.0, SVG Export Plug-In . SVG Version: 6.00 Build 0)  -->
<svg version="1.1" baseProfile="tiny" id="Layer_1" xmlns="http://www.w3.org/2000/svg" xmlns:xlink="http://www.w3.org/1999/xlink"
	 x="0px" y="0px" viewBox="0 0 64 64" overflow="visible" xml:space="preserve">
<path fill="#FFFFFF" d="M38.7,5.9c-2.2-0.6-4.4-0.8-6.7-0.8C17.1,5.1,5.1,17.1,5.1,32c0,14.8,11.9,26.7,26.6,26.9H32
	c14.9,0,26.9-12,26.9-26.9C58.9,19.4,50.3,8.9,38.7,5.9z M35.5,50.7c-1,1-2.2,1.5-3.7,1.5c-1.5,0-2.7-0.5-3.6-1.4
	c-1-1-1.4-2.2-1.4-3.6c0-1.5,0.5-2.7,1.4-3.7c1-1,2.2-1.4,3.6-1.4c1.5,0,2.7,0.5,3.7,1.4c1,0.9,1.4,2.2,1.4,3.7
	C36.9,48.5,36.4,49.7,35.5,50.7z M36.3,36.1c0,0.3-0.1,0.4-0.2,0.6c-0.2,0.2-0.4,0.2-0.6,0.2H29c-0.3,0-0.5-0.1-0.6-0.2
	c-0.2-0.2-0.3-0.3-0.3-0.6l-0.9-22.7c0-0.5,0.2-0.8,0.7-0.8h8.5c0.5,0,0.7,0.3,0.7,0.8L36.3,36.1z"/>
</svg>
