<?xml version="1.0" encoding="utf-8"?>
<!-- Generator: Adobe Illustrator 27.8.0, SVG Export Plug-In . SVG Version: 6.00 Build 0)  -->
<svg version="1.1" baseProfile="tiny" id="Layer_1" xmlns="http://www.w3.org/2000/svg" xmlns:xlink="http://www.w3.org/1999/xlink"
	 x="0px" y="0px" viewBox="0 0 64 64" overflow="visible" xml:space="preserve">
<path fill="#FFFFFF" d="M55.2,10.2c-9.9-2.9-16.9-6.9-20.4-9.3c-1.7-1.1-3.8-1.1-5.5,0c-3.6,2.4-10.6,6.4-20.4,9.3
	C7.8,10.5,7,11.4,7,12.5v18c0,8.5,3.7,16.6,10.3,22L30,63.3c1.2,1,2.9,1,4.1,0l12.7-10.7C53.2,47.1,57,39,57,30.5V12.5
	C57,11.4,56.2,10.5,55.2,10.2z M48.7,26.5l-9.3,6.8l3.6,11c0.3,1-0.8,1.8-1.6,1.2L32,38.7l-9.3,6.8c-0.8,0.6-1.9-0.2-1.6-1.2l3.6-11
	l-9.3-6.8c-0.8-0.6-0.4-1.9,0.6-1.9l11.5,0l3.6-11c0.3-0.9,1.7-0.9,2,0l3.5,11l11.6,0C49.1,24.7,49.5,25.9,48.7,26.5z"/>
</svg>
