<?xml version="1.0" encoding="utf-8"?>
<!-- Generator: Adobe Illustrator 27.8.0, SVG Export Plug-In . SVG Version: 6.00 Build 0)  -->
<svg version="1.1" baseProfile="tiny" id="Layer_1" xmlns="http://www.w3.org/2000/svg" xmlns:xlink="http://www.w3.org/1999/xlink"
	 x="0px" y="0px" viewBox="0 0 64 64" overflow="visible" xml:space="preserve">
<circle fill="#FFFFFF" cx="36.7" cy="5.2" r="5.2"/>
<path fill="#FFFFFF" d="M54.5,14.4l-10.9,3.7c-0.6,0.2-1,0.8-1,1.4v10.8c0,2,0.2,4,0.7,5.9l3.4,14.5c0.3,1.3-0.5,2.5-1.7,2.8
	c-0.2,0-0.4,0.1-0.5,0.1c-1.1,0-2-0.7-2.3-1.8l-3.9-16.4c-0.2-0.7-0.8-1.2-1.6-1.2h0c-0.7,0-1.4,0.5-1.6,1.2l-3.9,16.4
	C31,52.9,30,53.6,29,53.6c-0.2,0-0.4,0-0.5-0.1c-1.3-0.3-2-1.6-1.7-2.8l3.4-14.5c0.5-1.9,0.7-3.9,0.7-5.9V19.5c0-0.7-0.4-1.2-1-1.4
	l-10.9-3.7c-1.4-0.5-2-2.1-1.3-3.4c0.6-1,1.8-1.4,2.9-1l9.7,3.2c1.4,0.5,2.9,0.7,4.4,0.7h4.3c1.5,0,3-0.2,4.4-0.7L53,10
	c1.2-0.4,2.6,0.3,3,1.5C56.4,12.7,55.7,14,54.5,14.4z"/>
<path fill="#FFFFFF" d="M55.1,64H8.9c-1.1,0-1.9-0.9-1.9-1.9v0c0-1.1,0.9-1.9,1.9-1.9h46.3c1.1,0,1.9,0.9,1.9,1.9v0
	C57.1,63.1,56.2,64,55.1,64z"/>
<polygon fill="#FFFFFF" points="22.1,46.5 15.3,53.6 8.4,46.5 13.1,46.5 13.1,32.5 17.4,32.5 17.4,46.5 "/>
</svg>
