<?xml version="1.0" encoding="utf-8"?>
<!-- Generator: Adobe Illustrator 27.8.0, SVG Export Plug-In . SVG Version: 6.00 Build 0)  -->
<svg version="1.1" baseProfile="tiny" id="Layer_1" xmlns="http://www.w3.org/2000/svg" xmlns:xlink="http://www.w3.org/1999/xlink"
	 x="0px" y="0px" viewBox="0 0 64 64" overflow="visible" xml:space="preserve">
<path fill="#FFFFFF" d="M51.7,2.1v16.5l-5-3c-0.8-0.5-1.8-0.5-2.6,0l-5,3V2.1H16.9c-2.8,0-5,2.3-5,5v2.6h1.8c3.6,0,6.5,2.9,6.5,6.5
	c0,3.6-2.9,6.5-6.5,6.5h-1.8v2.9h1.8c3.6,0,6.5,2.9,6.5,6.5c0,3.6-2.9,6.5-6.5,6.5h-1.8v2.9h1.8c3.6,0,6.5,2.9,6.5,6.5
	c0,3.6-2.9,6.5-6.5,6.5h-1.8v2.6c0,2.8,2.3,5,5,5h40.7V2.1H51.7z M52.3,56.4c-0.4,0.4-0.9,0.6-1.4,0.6H34.5c-1.1,0-2-0.9-2-2
	c0-0.6,0.2-1.1,0.6-1.4c0.4-0.4,0.9-0.6,1.4-0.6h16.3c1.1,0,2,0.9,2,2C52.9,55.5,52.6,56,52.3,56.4z M52.3,48.3
	c-0.4,0.4-0.9,0.6-1.4,0.6H39.2c-1.1,0-2-0.9-2-2c0-0.6,0.2-1.1,0.6-1.4c0.4-0.4,0.9-0.6,1.4-0.6h11.6c1.1,0,2,0.9,2,2
	C52.9,47.5,52.6,48,52.3,48.3z"/>
<path fill="#FFFFFF" d="M16,16.2c0,1.4-1.1,2.5-2.5,2.5H6.4v-5h7.1C14.9,13.7,16,14.8,16,16.2z"/>
<path fill="#FFFFFF" d="M16,32c0,1.4-1.1,2.5-2.5,2.5H6.4v-5h7.1C14.9,29.5,16,30.6,16,32z"/>
<path fill="#FFFFFF" d="M16,47.8c0,0.7-0.3,1.3-0.7,1.8c-0.4,0.4-1.1,0.7-1.7,0.7H6.4v-5h7.1C14.9,45.3,16,46.4,16,47.8z"/>
</svg>
