<?xml version="1.0" encoding="utf-8"?>
<!-- Generator: Adobe Illustrator 27.8.0, SVG Export Plug-In . SVG Version: 6.00 Build 0)  -->
<svg version="1.1" baseProfile="tiny" id="Layer_1" xmlns="http://www.w3.org/2000/svg" xmlns:xlink="http://www.w3.org/1999/xlink"
	 x="0px" y="0px" viewBox="0 0 64 64" overflow="visible" xml:space="preserve">
<path fill="#FFFFFF" d="M55.8,23.2l-3.6,3.5c0.5,1.7,0.7,3.5,0.7,5.3c0,11.6-9.4,21.1-21.1,21.1c-1.9,0-3.6-0.2-5.3-0.7L23,56
	c2.8,1.1,5.7,1.6,8.9,1.6c14.1,0,25.5-11.5,25.5-25.5C57.4,29,56.8,26,55.8,23.2z"/>
<path fill="#FFFFFF" d="M56.8,2.4l-9.5,9.5c-4.3-3.3-9.7-5.3-15.5-5.3C17.8,6.6,6.3,18,6.3,32.1c0,5.8,2,11.2,5.3,15.4L2.2,57
	l4.8,4.8L61.6,7.2L56.8,2.4z M37.3,21.9c-1.6-0.9-3.5-1.4-5.5-1.4c-6.5,0-11.7,5.2-11.7,11.7c0,2,0.5,3.9,1.4,5.5l-6.8,6.8
	c-2.5-3.5-4-7.7-4-12.3c0-11.7,9.5-21.1,21.1-21.1c4.6,0,8.9,1.5,12.3,4L37.3,21.9z"/>
</svg>
