<?xml version="1.0" encoding="utf-8"?>
<!-- Generator: Adobe Illustrator 27.0.1, SVG Export Plug-In . SVG Version: 6.00 Build 0)  -->
<svg version="1.1" id="Layer_1" xmlns="http://www.w3.org/2000/svg" xmlns:xlink="http://www.w3.org/1999/xlink" x="0px" y="0px"
	 viewBox="0 0 215 215" style="enable-background:new 0 0 215 215;" xml:space="preserve">
<style type="text/css">
	.st0{fill:#79C1CF;}
</style>
<path id="apps_bar" class="st0" d="M197.5,111.1l-90.6-79c-0.6-0.5-1.6-0.5-2.2,0l-88.9,77.7l0.1-14.7l81.3-71.4c0,0,7.5-8.7,17.2,0
	c6.8,6.1,83.1,71.9,83.1,71.9L197.5,111.1L197.5,111.1z M169.1,100.8v87h-30.7v-67.7H74.6l-0.1,67.7H43.2l-0.1-86.6l-10.7,9.5
	l0.1,87.8h52.7v-67.7l42.5,0v67.7l0,0l0,0l0,0l0,0h52v-88.2C179.8,110.4,169.1,100.8,169.1,100.8z"/>
</svg>
