<?xml version="1.0" encoding="utf-8"?>
<!-- Generator: Adobe Illustrator 27.0.1, SVG Export Plug-In . SVG Version: 6.00 Build 0)  -->
<svg version="1.1" id="Layer_1" xmlns="http://www.w3.org/2000/svg" xmlns:xlink="http://www.w3.org/1999/xlink" x="0px" y="0px"
	 viewBox="0 0 215 215" style="enable-background:new 0 0 215 215;" xml:space="preserve">
<style type="text/css">
	.st0{fill:#79C1CF;}
</style>
<g id="Layer_4">
	<path class="st0" d="M191.9,110.9L169.7,95c-1.5-1.1-3.3-1.7-5.2-1.7s-3.7,0.6-5.2,1.7l-8.4,6.1l-24.5-16.6l11.8-8.5
		c9.3-6.7,9.3-20.5,0-27.2L98.3,20.2c-2.9-2.1-6.3-3.1-9.8-3.1s-6.8,1-9.8,3.1L38.9,48.8c-9.3,6.7-9.3,20.5,0,27.2l39.9,28.6
		c2.9,2.1,6.3,3.1,9.8,3.1s6.8-1,9.8-3.1L118.6,90l24.5,16.6l-6,4.3c-2.4,1.7-3.7,4.4-3.7,7.3s1.4,5.6,3.7,7.3l22.2,15.9
		c1.5,1.1,3.3,1.7,5.2,1.7s3.7-0.6,5.2-1.7l22.2-15.9c2.4-1.7,3.7-4.4,3.7-7.3S194.2,112.6,191.9,110.9L191.9,110.9z M93.3,97.6
		c-1.4,1-3,1.5-4.7,1.5s-3.3-0.5-4.7-1.5L43.9,69c-2.2-1.6-3.4-3.9-3.4-6.6s1.2-5,3.4-6.6l39.9-28.6c1.4-1,3-1.5,4.7-1.5
		s3.3,0.5,4.7,1.5l39.9,28.6c2.1,1.6,3.4,3.9,3.4,6.6s-1.2,5-3.4,6.6l-14.4,10.3l-9.1-6.2l8.6-6.2c3.1-2.2,3.1-6.9,0-9.1l-26.5-19
		c-2-1.4-4.6-1.4-6.5,0l-26.5,19c-3.1,2.2-3.1,6.9,0,9.1l26.5,19c2,1.4,4.6,1.4,6.6,0l10.1-7.3l9.1,6.2L93.3,97.6L93.3,97.6z
		 M186.7,118.2l-22.3,15.9l-22.2-16l0-0.1l22.2-15.9c0,0,0,0,0.1,0l22.3,16L186.7,118.2L186.7,118.2z M115,170.1l-22.2-15.9
		c-1.5-1.1-3.3-1.7-5.2-1.7s-3.7,0.6-5.2,1.7l-22.2,15.9c-2.4,1.7-3.7,4.4-3.7,7.3s1.4,5.6,3.7,7.3l22.2,15.9
		c1.5,1.1,3.3,1.7,5.2,1.7s3.7-0.6,5.2-1.7l22.2-15.9c2.4-1.7,3.7-4.4,3.7-7.3S117.3,171.7,115,170.1L115,170.1z M109.8,177.4
		l-22.3,15.9l-22.2-16l0-0.1l22.2-15.9c0,0,0,0,0.1,0l22.3,16L109.8,177.4L109.8,177.4z M129.3,145.7c1.6,2.2,1,5.3-1.2,6.9
		l-0.2,0.1c-0.9,0.6-2,0.9-3.1,0.9c-1.5-0.1-2.9-0.8-3.8-2.1c-1.6-2.2-1-5.3,1.2-6.9l0.2-0.2C124.6,143,127.7,143.5,129.3,145.7
		L129.3,145.7z M142.8,136.2c1.6,2.2,1,5.3-1.2,6.9l-0.2,0.2c-0.9,0.6-2,0.9-3.1,0.9c-1.5-0.1-2.9-0.8-3.8-2.1
		c-1.6-2.2-1-5.3,1.2-6.9l0.2-0.2C138.1,133.5,141.2,134,142.8,136.2z M107.4,161c-1.6-2.2-1-5.3,1.2-6.9l0.2-0.2
		c2.2-1.6,5.3-1,6.9,1.2c1.6,2.2,1,5.3-1.2,6.9l-0.2,0.1c-0.9,0.6-2,0.9-3.1,0.9C109.8,163.1,108.4,162.3,107.4,161L107.4,161z"/>
</g>
</svg>
