<?xml version="1.0" encoding="utf-8"?>
<!-- Generator: Adobe Illustrator 27.3.1, SVG Export Plug-In . SVG Version: 6.00 Build 0)  -->
<svg version="1.1" baseProfile="tiny" id="Layer_1" xmlns="http://www.w3.org/2000/svg" xmlns:xlink="http://www.w3.org/1999/xlink"
	 x="0px" y="0px" viewBox="0 0 67.8 67.8" overflow="visible" xml:space="preserve">
<g>
	<g>
		<path fill="#6CB8C7" d="M59.5,3.3c2.8,0,5,2.2,5,5v51.2c0,2.8-2.2,5-5,5H8.3c-2.8,0-5-2.2-5-5V8.3c0-2.8,2.2-5,5-5H59.5 M59.5,0
			H8.3C3.7,0,0,3.7,0,8.3v51.2c0,4.6,3.7,8.3,8.3,8.3h51.2c4.6,0,8.3-3.7,8.3-8.3V8.3C67.8,3.7,64.1,0,59.5,0L59.5,0z"/>
	</g>
	<path id="lock_icon_00000092419058347012579620000013414378514369357743_" fill-rule="evenodd" fill="#6CB8C7" d="M44.4,26.8h-1.1
		c0-1.6,0-3.3,0-4.6c0-5.2-4.2-9.4-9.4-9.4c-5.2,0-9.4,4.2-9.4,9.4c0,1.7,0,3,0,4.6h-3.5c-0.5,0.5-0.7,0.7-1.2,1.2v23.5
		c1.4,1.4,2.2,2.2,3.5,3.5h23.3c0.5-0.5,0.7-0.7,1.2-1.2V30.3C46.6,28.9,45.8,28.1,44.4,26.8z M33.9,16.4c2.9,0,5.3,2.4,5.3,5.3v5.1
		H28.6v-5.1C28.6,18.8,31,16.4,33.9,16.4z"/>
</g>
</svg>
