<?xml version="1.0" encoding="utf-8"?>
<!-- Generator: Adobe Illustrator 27.0.1, SVG Export Plug-In . SVG Version: 6.00 Build 0)  -->
<svg version="1.1" id="Layer_1" xmlns="http://www.w3.org/2000/svg" xmlns:xlink="http://www.w3.org/1999/xlink" x="0px" y="0px"
	 viewBox="0 0 215 215" style="enable-background:new 0 0 215 215;" xml:space="preserve">
<style type="text/css">
	.st0{fill:#79C1CF;}
</style>
<path class="st0" d="M142.1,39.6c-0.9-1-2.2-1.5-3.6-1.5H32.6c-2.8,0-5,2.3-5,5v55.5c0,2.8,2.3,5,5,5h8l8.6,8.6c2,2,5.2,2,7.1,0
	l8.6-8.6h73.6c1.3,0,2.6-0.5,3.6-1.5c0.9-0.9,1.5-2.2,1.5-3.6V43.1C143.5,41.8,143,40.5,142.1,39.6 M133.4,93.6H62.8
	c-1.3,0-2.6,0.5-3.6,1.5l-6.5,6.5l-6.5-6.5c-0.9-0.9-2.2-1.5-3.6-1.5h-5V48.2h95.8V93.6z M72.9,58.3h20.2c2.8,0,5,2.3,5,5
	s-2.3,5-5,5H72.9c-2.8,0-5-2.3-5-5S70.1,58.3,72.9,58.3 M72.9,73.4h40.4c2.8,0,5,2.3,5,5s-2.3,5-5,5H72.9c-2.8,0-5-2.3-5-5
	S70.1,73.4,72.9,73.4 M52.7,58.3c2,0,3.9,1.2,4.7,3.1s0.3,4.1-1.1,5.5c-1.4,1.4-3.6,1.9-5.5,1.1c-1.9-0.8-3.1-2.6-3.1-4.7
	C47.7,60.5,50,58.3,52.7,58.3 M188.8,114.1c-0.9-0.9-2.2-1.5-3.6-1.5H79.3c-2.8,0-5.1,2.3-5.1,5v55.5c0,2.8,2.3,5,5.1,5h73.6
	l8.6,8.6c2,2,5.2,2,7.1,0l8.6-8.6h8c1.3,0,2.6-0.5,3.6-1.5c0.9-0.9,1.5-2.2,1.5-3.6v-55.5C190.3,116.4,189.7,115.1,188.8,114.1
	 M180.2,168.1h-5c-1.3,0-2.6,0.5-3.6,1.5l-6.5,6.5l-6.5-6.5c-0.9-0.9-2.2-1.5-3.6-1.5H84.3v-45.4h95.8L180.2,168.1L180.2,168.1z
	 M165,132.8c2,0,3.9,1.2,4.7,3.1s0.4,4.1-1.1,5.5c-1.4,1.4-3.6,1.9-5.5,1.1c-1.9-0.8-3.1-2.6-3.1-4.7
	C160,135.1,162.3,132.8,165,132.8 M124.7,132.8h20.2c2.8,0,5,2.3,5,5s-2.3,5-5,5h-20.2c-2.8,0-5-2.3-5-5S121.9,132.8,124.7,132.8
	 M104.5,148h40.3c2.8,0,5,2.3,5,5s-2.3,5-5,5h-40.3c-2.8,0-5-2.3-5-5S101.7,148,104.5,148"/>
</svg>
