<?xml version="1.0" encoding="utf-8"?>
<!-- Generator: Adobe Illustrator 27.0.1, SVG Export Plug-In . SVG Version: 6.00 Build 0)  -->
<svg version="1.1" id="Layer_1" xmlns="http://www.w3.org/2000/svg" xmlns:xlink="http://www.w3.org/1999/xlink" x="0px" y="0px"
	 viewBox="0 0 215 215" style="enable-background:new 0 0 215 215;" xml:space="preserve">
<style type="text/css">
	.st0{fill:#79C1CF;}
</style>
<path class="st0" d="M108.5,9.4c-55.3,0-100,44.7-100,100s44.7,100,100,100s100-44.7,100-100S163.8,9.4,108.5,9.4z M122.7,164.3
	c0,7.9-6.4,14.2-14.2,14.2s-14.2-6.4-14.2-14.2V91.7c0-7.9,6.4-14.2,14.2-14.2c7.9,0,14.2,6.4,14.2,14.2V164.3z M108.5,65.8
	c-7.9,0-14.2-6.4-14.2-14.2s6.4-14.2,14.2-14.2c7.9,0,14.2,6.4,14.2,14.2S116.4,65.8,108.5,65.8z"/>
</svg>
