<?xml version="1.0" encoding="utf-8"?>
<!-- Generator: Adobe Illustrator 27.0.1, SVG Export Plug-In . SVG Version: 6.00 Build 0)  -->
<svg version="1.1" id="Layer_1" xmlns="http://www.w3.org/2000/svg" xmlns:xlink="http://www.w3.org/1999/xlink" x="0px" y="0px"
	 viewBox="0 0 215 215" style="enable-background:new 0 0 215 215;" xml:space="preserve">
<style type="text/css">
	.st0{fill:#79C1CF;}
</style>
<path class="st0" d="M69.6,42.6H121v6.5H69.6C69.6,49.1,69.6,42.6,69.6,42.6z M69.6,74.6h25.7v-6.5H69.6V74.6z M108,74.6h38.4v-6.5
	H108V74.6z M69.6,87.5H121V81H69.6V87.5z M133.7,87.5h12.7V81h-12.7V87.5z M69.6,100.2h25.7v-6.5H69.6V100.2z M108,100.2h38.4v-6.5
	H108V100.2z M69.6,113.2h76.8v-6.5H69.6C69.6,106.7,69.6,113.2,69.6,113.2z M69.6,138.7h12.7v-6.5H69.6V138.7z M95.3,138.7h51.4
	v-6.5H95.3V138.7z M69.6,151.6h57.6v-6.5H69.6V151.6z M69.6,164.4h25.7v-6.5H69.6V164.4z M69.6,177.3h25.7v-6.5H69.6V177.3z
	 M108,177.3h12.7v-6.5H108V177.3z M189.7,121l-4.7-4.8l-40.3,40.3l-4.6,13.6l-0.1,0.2l13.8-4.4l40.3-40.3L189.7,121L189.7,121z
	 M165.9,172v14.7c0,3.2-2.6,5.9-5.9,5.9H58.8c-3.2,0-5.8-2.6-5.8-5.9V31.7c0-3.2,2.6-5.8,5.8-5.8h101.3c3.2,0,5.9,2.6,5.9,5.8v95.9
	l8.7-9.1V31.7c0-8-6.5-14.6-14.6-14.6H58.8c-8,0-14.6,6.5-14.6,14.6v155.1c0,8,6.5,14.6,14.6,14.6h101.3c8,0,14.6-6.5,14.6-14.6
	v-23.1L165.9,172L165.9,172z"/>
</svg>
