<?xml version="1.0" encoding="utf-8"?>
<!-- Generator: Adobe Illustrator 29.8.3, SVG Export Plug-In . SVG Version: 9.03 Build 0)  -->
<svg version="1.1" baseProfile="tiny" id="Layer_1" xmlns="http://www.w3.org/2000/svg" xmlns:xlink="http://www.w3.org/1999/xlink"
	 x="0px" y="0px" viewBox="0 0 1920 1080" overflow="visible" xml:space="preserve">
<path id="opacity:50" fill="#258C4A" d="M132,841.83h1656v105.13H132V841.83z M132,352.67v103.06h1656V352.67H132z"/>
<path fill="#E2A937" d="M337.76,612.67l14.04-14.04l-67.6-67.6h-32.25l-21.18,21.18l60.46,60.46H337.76z M253.6,535.03h28.94
	l63.6,63.6l-10.04,10.04h-43.22l-56.46-56.46L253.6,535.03z M442.21,689.04h-46.53l-14.04,14.04l67.6,67.6h32.25l21.18-21.18
	L442.21,689.04z M479.84,766.68H450.9l-63.6-63.6l10.04-10.04h43.22l56.46,56.46L479.84,766.68z M404.91,621.89l14.04,14.04
	l67.6-67.6v-32.25l-21.18-21.18l-60.46,60.46V621.89z M482.55,537.73v28.94l-63.6,63.6l-10.04-10.04v-43.22l56.46-56.46
	L482.55,537.73z M328.53,726.35v-46.53l-14.04-14.04l-67.6,67.6v32.25l21.18,21.18L328.53,726.35z M250.89,763.98v-28.94l63.6-63.6
	l10.04,10.04v43.22l-56.46,56.46L250.89,763.98z M366.72,613.55l-37.31,37.31l37.31,37.31l37.3-37.31L366.72,613.55z M335.07,650.85
	l31.65-31.65l31.65,31.65l-31.65,31.65L335.07,650.85z"/>
</svg>
