<?xml version="1.0" encoding="utf-8"?>
<!-- Generator: Adobe Illustrator 29.8.3, SVG Export Plug-In . SVG Version: 9.03 Build 0)  -->
<svg version="1.1" baseProfile="tiny" id="animated"
	 xmlns="http://www.w3.org/2000/svg" xmlns:xlink="http://www.w3.org/1999/xlink" x="0px" y="0px" viewBox="0 0 1920 1080"
	 overflow="visible" xml:space="preserve">
<g>
	<path fill="#258C4A" d="M486.55,568.33v-32.25l-21.18-21.18l-60.46,60.46v46.53l14.04,14.04L486.55,568.33z M408.91,577.02
		l56.46-56.46l17.18,17.18v28.94l-63.6,63.6l-10.04-10.04V577.02z"/>
	<path fill="#258C4A" d="M366.72,613.55l-37.31,37.31l37.31,37.3l37.31-37.3L366.72,613.55z M335.07,650.86l31.65-31.65l31.65,31.65
		l-31.65,31.65L335.07,650.86z"/>
	<path fill="#258C4A" d="M246.89,733.38v32.25l21.18,21.18l60.46-60.46v-46.53l-14.04-14.04L246.89,733.38z M324.53,724.69
		l-56.46,56.46l-17.18-17.18v-28.94l63.6-63.6l10.04,10.04V724.69z"/>
	<path fill="#258C4A" d="M442.21,689.04h-46.53l-14.04,14.04l67.6,67.6h32.26l21.18-21.18L442.21,689.04z M479.84,766.68H450.9
		l-63.6-63.6l10.04-10.04h43.22l56.46,56.46L479.84,766.68z"/>
	<path fill="#258C4A" d="M337.76,612.67l14.04-14.04l-67.6-67.6h-32.26l-21.18,21.18l60.46,60.46H337.76z M253.6,535.03h28.94
		l63.6,63.6l-10.04,10.04h-43.22l-56.46-56.46L253.6,535.03z"/>
</g>
<g>
	<polygon fill="#258C4A" points="337.76,612.67 351.8,598.63 284.2,531.03 251.94,531.03 230.76,552.21 291.22,612.67 	"/>
	<path fill="#258C4A" d="M486.55,568.33v-32.25l-21.18-21.18l-60.46,60.46v46.53l14.04,14.04L486.55,568.33z M408.91,577.02
		l56.46-56.46l17.18,17.18v28.94l-63.6,63.6l-10.04-10.04V577.02z"/>
	<path fill="#258C4A" d="M442.21,689.04h-46.53l-14.04,14.04l67.6,67.6h32.26l21.18-21.18L442.21,689.04z M479.84,766.68H450.9
		l-63.6-63.6l10.04-10.04h43.22l56.46,56.46L479.84,766.68z"/>
	<path fill="#258C4A" d="M246.89,733.38v32.25l21.18,21.18l60.46-60.46v-46.53l-14.04-14.04L246.89,733.38z M324.53,724.69
		l-56.46,56.46l-17.18-17.18v-28.94l63.6-63.6l10.04,10.04V724.69z"/>
	<path fill="#258C4A" d="M366.72,613.55l-37.31,37.31l37.31,37.3l37.31-37.3L366.72,613.55z M335.07,650.86l31.65-31.65l31.65,31.65
		l-31.65,31.65L335.07,650.86z"/>
</g>
<g>
	<path fill="#258C4A" d="M337.76,612.67l14.04-14.04l-67.6-67.6h-32.25l-21.18,21.18l60.46,60.46H337.76z M253.6,535.03h28.94
		l63.6,63.6l-10.04,10.04h-43.22l-56.46-56.46L253.6,535.03z"/>
	<polygon fill="#258C4A" points="486.55,568.33 486.55,536.08 465.37,514.9 404.91,575.36 404.91,621.89 418.95,635.93 	"/>
	<path fill="#258C4A" d="M442.21,689.04h-46.53l-14.04,14.04l67.6,67.6h32.25l21.18-21.18L442.21,689.04z M479.84,766.68H450.9
		l-63.6-63.6l10.04-10.04h43.22l56.46,56.46L479.84,766.68z"/>
	<path fill="#258C4A" d="M246.89,733.38v32.25l21.18,21.18l60.46-60.46v-46.53l-14.04-14.04L246.89,733.38z M324.53,724.69
		l-56.46,56.46l-17.18-17.18v-28.94l63.6-63.6l10.04,10.04V724.69z"/>
	<path fill="#258C4A" d="M366.72,613.55l-37.31,37.31l37.31,37.3l37.31-37.3L366.72,613.55z M335.07,650.86l31.65-31.65l31.65,31.65
		l-31.65,31.65L335.07,650.86z"/>
</g>
<g>
	<path fill="#258C4A" d="M337.76,612.67l14.04-14.04l-67.6-67.6h-32.25l-21.18,21.18l60.46,60.46H337.76z M253.6,535.03h28.94
		l63.6,63.6l-10.04,10.04h-43.22l-56.46-56.46L253.6,535.03z"/>
	<path fill="#258C4A" d="M486.55,568.33v-32.25l-21.18-21.18l-60.46,60.46v46.53l14.04,14.04L486.55,568.33z M408.91,577.02
		l56.46-56.46l17.18,17.18v28.94l-63.6,63.6l-10.04-10.04V577.02z"/>
	<polygon fill="#258C4A" points="442.21,689.04 395.68,689.04 381.64,703.08 449.24,770.68 481.5,770.68 502.67,749.5 	"/>
	<path fill="#258C4A" d="M246.89,733.38v32.25l21.18,21.18l60.46-60.46v-46.53l-14.04-14.04L246.89,733.38z M324.53,724.69
		l-56.46,56.46l-17.18-17.18v-28.94l63.6-63.6l10.04,10.04V724.69z"/>
	<path fill="#258C4A" d="M366.72,613.55l-37.31,37.31l37.31,37.3l37.3-37.3L366.72,613.55z M335.07,650.86l31.65-31.65l31.65,31.65
		l-31.65,31.65L335.07,650.86z"/>
</g>
<g>
	<path fill="#258C4A" d="M337.76,612.67l14.04-14.04l-67.6-67.6h-32.25l-21.18,21.18l60.46,60.46H337.76z M253.6,535.03h28.94
		l63.6,63.6l-10.04,10.04h-43.22l-56.46-56.46L253.6,535.03z"/>
	<path fill="#258C4A" d="M486.55,568.33v-32.25l-21.18-21.18l-60.46,60.46v46.53l14.04,14.04L486.55,568.33z M408.91,577.02
		l56.46-56.46l17.18,17.18v28.94l-63.6,63.6l-10.04-10.04V577.02z"/>
	<path fill="#258C4A" d="M442.21,689.04h-46.53l-14.04,14.04l67.6,67.6h32.25l21.18-21.18L442.21,689.04z M479.84,766.68H450.9
		l-63.6-63.6l10.04-10.04h43.22l56.46,56.46L479.84,766.68z"/>
	<polygon fill="#258C4A" points="246.89,733.38 246.89,765.63 268.07,786.81 328.53,726.35 328.53,679.82 314.49,665.78 	"/>
	<path fill="#258C4A" d="M366.72,613.55l-37.31,37.31l37.31,37.31l37.3-37.31L366.72,613.55z M335.07,650.85l31.65-31.65
		l31.65,31.65l-31.65,31.65L335.07,650.85z"/>
</g>
<g>
	<polygon fill="#258C4A" points="337.76,612.67 351.8,598.63 284.2,531.03 251.94,531.03 230.76,552.21 291.22,612.67 	"/>
	<polygon fill="#258C4A" points="486.55,568.33 486.55,536.08 465.37,514.9 404.91,575.36 404.91,621.89 418.95,635.93 	"/>
	<polygon fill="#258C4A" points="442.21,689.04 395.68,689.04 381.64,703.08 449.24,770.68 481.49,770.68 502.67,749.5 	"/>
	<polygon fill="#258C4A" points="246.89,733.38 246.89,765.63 268.07,786.81 328.53,726.35 328.53,679.82 314.49,665.78 	"/>
	
		<rect x="340.34" y="624.47" transform="matrix(0.7071 -0.7071 0.7071 0.7071 -352.8141 449.9395)" fill="#258C4A" width="52.76" height="52.76"/>
</g>
</svg>
