<?xml version="1.0" encoding="utf-8"?>
<!-- Generator: Adobe Illustrator 27.6.1, SVG Export Plug-In . SVG Version: 6.00 Build 0)  -->
<svg version="1.1" baseProfile="tiny" id="animated"
	 xmlns="http://www.w3.org/2000/svg" xmlns:xlink="http://www.w3.org/1999/xlink" x="0px" y="0px" viewBox="0 0 1920 1080"
	 overflow="visible" xml:space="preserve">
<g>
	<g>
		<path fill="#E52627" d="M1715.6,565.4v65.2c0,27.1-29.3,44-52.8,30.5l-56.5-32.6l-56.5-32.6c-23.4-13.5-23.4-47.4,0-60.9
			l56.5-32.6l56.5-32.6c23.4-13.5,52.8,3.4,52.8,30.5V565.4z"/>
	</g>
	<g>
		<path fill="#E52627" d="M1158.8,565.4v65.2c0,27.1,29.3,44,52.8,30.5l56.5-32.6l56.5-32.6c23.4-13.5,23.4-47.4,0-60.9l-56.5-32.6
			l-56.5-32.6c-23.4-13.5-52.8,3.4-52.8,30.5L1158.8,565.4z"/>
	</g>
</g>
<g>
	<g>
		<path fill="#E52627" d="M1437.2,843.8H1372c-27.1,0-44-29.3-30.5-52.8l32.6-56.5l32.6-56.5c13.5-23.4,47.4-23.4,60.9,0l32.6,56.5
			l32.6,56.5c13.5,23.4-3.4,52.8-30.5,52.8L1437.2,843.8z"/>
	</g>
	<g>
		<path fill="#E52627" d="M1437.2,287l65.2,0c27.1,0,44,29.3,30.5,52.8l-32.6,56.5l-32.6,56.5c-13.5,23.4-47.4,23.4-60.9,0
			l-32.6-56.5l-32.6-56.5c-13.5-23.4,3.4-52.8,30.5-52.8L1437.2,287z"/>
	</g>
</g>
<g display="none">
	<circle display="inline" fill="#E52627" cx="1437.2" cy="565.4" r="45.7"/>
</g>
</svg>
