<?xml version="1.0" encoding="utf-8"?>
<!-- Generator: Adobe Illustrator 28.6.0, SVG Export Plug-In . SVG Version: 9.03 Build 54939)  -->
<svg version="1.1" baseProfile="tiny" id="Layer_1" xmlns="http://www.w3.org/2000/svg" xmlns:xlink="http://www.w3.org/1999/xlink"
	 x="0px" y="0px" viewBox="0 0 69 69" overflow="visible" xml:space="preserve">
<path d="M61,16.8c-8.4-4.2-16.7-8.4-25.1-12.6c-1-0.5-1.9-0.5-2.8,0C24.7,8.4,16.4,12.6,8,16.8c-1.2,0.6-1.7,1.5-1.7,2.8
	c0,0.5,0,1,0,1.7c0.3,8.2,1.7,16.3,5.3,23.9c4.5,9.6,11.7,16.3,21.7,19.8c0.7,0.2,1.6,0.3,2.3,0c8.1-2.8,14.5-7.7,19.1-14.9
	c5.9-9.3,8-19.7,8.1-30.6C62.8,18.2,62.1,17.3,61,16.8z M49.7,28.5L35.3,42.9c-0.4,0.4-1.1,0.4-1.6,0L19.4,28.5
	c-0.7-0.7-0.2-1.9,0.8-1.9h28.8C49.9,26.7,50.4,27.8,49.7,28.5z"/>
</svg>
