<?xml version="1.0" encoding="utf-8"?>
<!-- Generator: Adobe Illustrator 28.5.0, SVG Export Plug-In . SVG Version: 9.03 Build 54727)  -->
<svg version="1.1" baseProfile="tiny" id="Layer_1" xmlns="http://www.w3.org/2000/svg" xmlns:xlink="http://www.w3.org/1999/xlink"
	 x="0px" y="0px" viewBox="0 0 128 128" overflow="visible" xml:space="preserve">
<path d="M99.9,99.3c0,1.2-0.4,2.2-1.2,3s-1.7,1.2-2.8,1.2H32c-1.1,0-2.1-0.4-2.8-1.2s-1.1-1.9-1.1-3V54.9c0-0.7,0.1-1.3,0.4-1.9
	c0.3-0.6,0.6-1.1,1.1-1.5l32-26.2c0.7-0.6,1.6-0.9,2.5-0.9s1.7,0.3,2.4,0.9l32,26.2c0.5,0.4,0.9,0.9,1.2,1.5
	c0.3,0.6,0.4,1.2,0.4,1.9L99.9,99.3L99.9,99.3z M60,69.8V95h8V69.8H60z"/>
</svg>
