<?xml version="1.0" encoding="utf-8"?>
<!-- Generator: Adobe Illustrator 28.5.0, SVG Export Plug-In . SVG Version: 9.03 Build 54727)  -->
<svg version="1.1" baseProfile="tiny" id="Layer_1" xmlns="http://www.w3.org/2000/svg" xmlns:xlink="http://www.w3.org/1999/xlink"
	 x="0px" y="0px" viewBox="0 0 69.1 69.1" overflow="visible" xml:space="preserve">
<path d="M63.7,69.1L39.5,44.9c-1.9,1.6-4.1,2.8-6.6,3.6c-2.5,0.9-5.1,1.3-7.9,1.3c-7,0-12.8-2.4-17.7-7.3S0,31.9,0,24.9
	C0,18,2.4,12,7.3,7.3C12.1,2.4,18,0,24.9,0c7,0,12.8,2.4,17.7,7.3s7.3,10.7,7.3,17.7c0,2.8-0.5,5.5-1.3,7.9
	c-0.9,2.5-2.1,4.7-3.6,6.6l24.2,24.2L63.7,69.1L63.7,69.1z M24.9,42.2c4.8,0,8.9-1.7,12.3-5c3.3-3.3,5-7.4,5-12.3s-1.7-8.9-5-12.2
	c-3.4-3.3-7.4-5-12.3-5.1c-4.8,0-8.9,1.7-12.3,5.1c-3.3,3.3-5,7.4-5,12.2c0,4.8,1.7,8.9,5,12.3C16.1,40.6,20.1,42.3,24.9,42.2z"/>
</svg>
