<?xml version="1.0" encoding="utf-8"?>
<!-- Generator: Adobe Illustrator 28.5.0, SVG Export Plug-In . SVG Version: 9.03 Build 54727)  -->
<svg version="1.1" baseProfile="tiny" id="Layer_1" xmlns="http://www.w3.org/2000/svg" xmlns:xlink="http://www.w3.org/1999/xlink"
	 x="0px" y="0px" viewBox="0 0 128 128" overflow="visible" xml:space="preserve">
<path d="M33.7,19.9L37.5,53h-3.1L28,43.6L27,42H11.3l0.9,4.3L15.8,64l-3.6,17.7L11.3,86H27l1.1-1.6l6.3-9.4h3.1l-3.7,33.1h13l1.1-1
	L80.1,75h20.5c4.3,0,7-2.5,9.4-4.5s4.3-4,4.3-4l2.4-2.5l-2.4-2.5c0,0-1.8-2-4.3-4c-2.4-2-5.1-4.5-9.4-4.5H80.1L47.9,20.9l-1.1-1
	H33.7z M63.6,31l7.4,7.3h7.3l3.7-3.7l-3.7-3.7L63.6,31L63.6,31z M71,89.8l-7.4,7.3h14.7l3.7-3.7l-3.7-3.7L71,89.8L71,89.8z"/>
</svg>
