<?xml version="1.0" encoding="utf-8"?>
<!-- Generator: Adobe Illustrator 28.5.0, SVG Export Plug-In . SVG Version: 9.03 Build 54727)  -->
<svg version="1.1" baseProfile="tiny" id="Layer_1" xmlns="http://www.w3.org/2000/svg" xmlns:xlink="http://www.w3.org/1999/xlink"
	 x="0px" y="0px" viewBox="0 0 69 69" overflow="visible" xml:space="preserve">
<polygon points="14.1,23.8 8.1,26.8 8.8,41.1 12.9,44.6 14.4,43 "/>
<path d="M53.7,43.7l0-4.8l-3.3,3.4l0.1,4.3l-1.1,0.8L49.3,42l4.4-4.5l0-19.7L51.3,7.5l-8-5.4l-8.7-1.7L25.8,2l-8,5.4l-2.3,10.3
	l0,19.7l4.4,4.5l-0.1,5.5l-1.1-0.8l0.1-4.3l-3.3-3.4l0,4.8l-1,1.3l-0.3,8l14.3,15.5h6.2h6.2L55,53.1l-0.3-8L53.7,43.7z M34.5,3.6
	l5.6,0.7l-2.4,18.6L34.5,23l-3.2-0.1L29,4.4L34.5,3.6z M19.5,32L18,30.2l-0.3-2.7L30,31.1l4.6,0.1l4.6-0.1l12.3-3.7l-0.3,2.7
	L49.6,32l-15,3.2L19.5,32z M41.8,63l-3-3h-4.3h-4.3l-3,3l-0.6-0.4L30,59h4.6h4.6l3.3,3.6L41.8,63z M42.9,58.5l-4.1-2.9l-4.3-0.1
	l-4.3,0.1l-4.1,2.9l-7.4-8.8l0.1-1.4l8.3,7.7l2.6-1.7l4.9-0.3l4.9,0.3l2.6,1.7l8.3-7.7l0.1,1.4L42.9,58.5z"/>
<polygon points="55,23.8 54.6,43 56.1,44.6 60.2,41.1 61,26.8 "/>
</svg>
