<?xml version="1.0" encoding="utf-8"?>
<!-- Generator: Adobe Illustrator 28.6.0, SVG Export Plug-In . SVG Version: 9.03 Build 54939)  -->
<svg version="1.1" baseProfile="tiny" id="Layer_1" xmlns="http://www.w3.org/2000/svg" xmlns:xlink="http://www.w3.org/1999/xlink"
	 x="0px" y="0px" viewBox="0 0 69 69" overflow="visible" xml:space="preserve">
<path d="M45.7,6.2H23.3c-0.3,0-0.7,0.1-0.9,0.4L6.6,22.4c-0.2,0.2-0.4,0.6-0.4,0.9v22.4c0,0.3,0.1,0.7,0.4,0.9l15.8,15.8
	c0.2,0.2,0.6,0.4,0.9,0.4h22.4c0.3,0,0.7-0.1,0.9-0.4l15.8-15.8c0.2-0.2,0.4-0.6,0.4-0.9V23.3c0-0.3-0.1-0.7-0.4-0.9L46.6,6.6
	C46.4,6.3,46.1,6.2,45.7,6.2z M50.2,47.8l-2.4,2.4c-0.5,0.5-1.3,0.5-1.8,0L35.4,39.6c-0.5-0.5-1.3-0.5-1.8,0L23,50.2
	c-0.5,0.5-1.3,0.5-1.8,0l-2.4-2.4c-0.5-0.5-0.5-1.3,0-1.8l10.6-10.6c0.5-0.5,0.5-1.3,0-1.8L18.8,23c-0.5-0.5-0.5-1.3,0-1.8l2.4-2.4
	c0.5-0.5,1.3-0.5,1.8,0l10.6,10.6c0.5,0.5,1.3,0.5,1.8,0L46,18.8c0.5-0.5,1.3-0.5,1.8,0l2.4,2.4c0.5,0.5,0.5,1.3,0,1.8L39.6,33.6
	c-0.5,0.5-0.5,1.3,0,1.8L50.2,46C50.7,46.5,50.7,47.3,50.2,47.8z"/>
</svg>
