<?xml version="1.0" encoding="utf-8"?>
<!-- Generator: Adobe Illustrator 28.5.0, SVG Export Plug-In . SVG Version: 9.03 Build 54727)  -->
<svg version="1.1" baseProfile="tiny" id="Layer_1" xmlns="http://www.w3.org/2000/svg" xmlns:xlink="http://www.w3.org/1999/xlink"
	 x="0px" y="0px" viewBox="0 0 69 69" overflow="visible" xml:space="preserve">
<path d="M10,12.5c0,1.3,0.3,1.5,0.6,1.5c0.3,0,0.9-0.3,1.6-1c1.3-1.3,2.9-3.4,4.5-5.7c-0.3,0-0.5,0.1-0.8,0.2
	c-0.9,0.2-1.9,0.7-2.8,1.3c-0.9,0.6-1.8,1.4-2.3,2.1C10.2,11.5,10,12.1,10,12.5z"/>
<path d="M10.9,16.1c-0.7,0.5-1.4,1.2-1.8,1.9c-0.4,0.7-0.5,1.2-0.5,1.7c0.2,1.3,0.5,1.5,0.8,1.5c0.1,0,0.3,0,0.6-0.2
	c0.1-0.1,0.2-0.2,0.3-0.2c0.2-0.1,0.3-0.3,0.5-0.5c1-1.2,2.2-3.3,3.1-5.4c-0.2,0-0.4,0.1-0.7,0.1C12.4,15.2,11.6,15.6,10.9,16.1z"/>
<path d="M8.3,14.1c0,0,0.1-0.1,0.1-0.1c0-0.2-0.1-0.4-0.1-0.6c-0.1-1.3,0.6-2.6,1.4-3.7c0.2-0.3,0.4-0.5,0.6-0.7c0-0.1,0-0.2,0-0.2
	c0.2-1.1,0.4-2.3,0.5-3.2c0-0.4,0.1-0.6,0.1-0.9c-2,1.9-3.3,4.4-3.8,6.4c0,0.1,0,0.1,0.1,0.2C7.7,12,8,13,8.3,14.1z"/>
<path d="M7.4,18c-0.1-0.7-0.4-1.6-0.6-2.4c-0.3-1-0.7-1.9-1-2.7c-0.1-0.3-0.3-0.5-0.4-0.7c-1.2,3.2-1,6.5-0.2,8.1
	c0.4,1,0.9,1.3,1.2,1.3c0.2,0,0.5-0.2,0.8-1c0-0.1,0-0.2-0.1-0.3C7,19.6,7.1,18.7,7.4,18C7.4,18,7.4,18,7.4,18z"/>
<polygon points="8.3,26.3 7.8,40.8 12.6,45.8 12.1,22.4 "/>
<polygon points="14.2,57.8 21.9,65.7 22.3,50.1 14,37.9 "/>
<polygon points="14,27.7 15.6,28.7 18.3,30.2 28.8,33.5 34.5,33.5 34.6,33.5 40.2,33.5 50.8,30.2 53.4,28.7 55,27.7 54.5,14.6 
	51.8,11 48.3,3.4 41.6,1.5 41.1,22.8 34.6,22.8 34.5,22.8 28,22.8 27.4,1.5 20.8,3.4 17.2,11 14.5,14.6 "/>
<path d="M6.1,24.6c-0.7-0.6-1.4-1.2-2-1.6c-0.2-0.1-0.4-0.2-0.6-0.3c0.3,3,1.7,5.5,2.9,6.6c0.2,0.1,0.4,0.1,0.6,0.2l0.1-3.9
	C6.8,25.3,6.5,24.9,6.1,24.6z"/>
<path d="M4.3,31.6c0.7,1.3,1.6,2.4,2.5,3.1l0.1-3c-0.7-0.2-1.4-0.2-1.9-0.2C4.7,31.5,4.5,31.5,4.3,31.6z"/>
<path d="M58.4,14c0.3,0,0.6-0.2,0.6-1.5c0-0.4-0.2-1-0.7-1.7c-0.5-0.7-1.4-1.5-2.3-2.1c-0.9-0.6-2-1-2.8-1.3
	c-0.3-0.1-0.6-0.1-0.8-0.2c1.6,2.3,3.3,4.4,4.5,5.7C57.5,13.7,58.1,14,58.4,14z"/>
<path d="M58.8,20.8c0.1,0.1,0.2,0.1,0.3,0.2c0.2,0.2,0.4,0.2,0.6,0.2c0.3,0,0.6-0.3,0.8-1.5c0.1-0.4-0.1-1-0.5-1.7
	c-0.4-0.7-1.1-1.4-1.8-1.9c-0.7-0.5-1.6-0.9-2.3-1.1c-0.3-0.1-0.5-0.1-0.7-0.1c1,2.1,2.1,4.2,3.1,5.4C58.5,20.5,58.6,20.7,58.8,20.8
	z"/>
<path d="M58.6,8.7c0,0.1,0,0.2,0,0.2c0.2,0.2,0.4,0.5,0.6,0.7c0.9,1.1,1.5,2.5,1.4,3.7c0,0.2,0,0.4-0.1,0.6c0.1,0,0.1,0.1,0.1,0.1
	C61,13,61.3,12,61.7,11c0-0.1,0-0.1,0.1-0.2c-0.5-2-1.8-4.5-3.8-6.4c0,0.3,0,0.6,0.1,0.9C58.2,6.4,58.4,7.5,58.6,8.7z"/>
<path d="M61.8,20.7c0.3,0.8,0.6,1,0.8,1c0.3,0,0.8-0.4,1.2-1.3c0.7-1.6,1-5-0.2-8.1c-0.1,0.2-0.3,0.4-0.4,0.7
	c-0.3,0.8-0.7,1.7-1,2.7c-0.3,0.8-0.5,1.6-0.6,2.4c0,0,0,0,0,0c0.3,0.8,0.4,1.6,0.3,2.5C61.9,20.5,61.9,20.6,61.8,20.7z"/>
<polygon points="56.9,22.4 56.5,45.8 61.3,40.8 60.8,26.3 "/>
<polygon points="34.6,10 39.2,10 39.2,0.7 34.6,0.4 34.6,0.4 34.5,0.4 34.5,0.4 34.5,0.4 29.8,0.7 29.8,10 34.5,10 "/>
<polygon points="54.9,36.2 54.9,30.8 51.2,33.1 49.6,36.1 37.9,39.2 34.6,39.2 34.5,39.2 31.1,39.2 19.5,36.1 17.9,33.1 14.2,30.8 
	14.2,36.2 24.1,49.6 23.8,58.6 25.1,59 27.1,53.8 34.5,53.8 34.6,53.8 41.9,53.8 44,59 45.3,58.6 45,49.6 "/>
<polygon points="47.1,65.7 54.9,57.8 55,37.9 46.8,50.1 "/>
<polygon points="34.5,55.4 28.9,55.2 26.2,60.9 26.2,68.6 30.4,68.6 30.4,66.8 34.5,66.8 34.6,66.8 38.6,66.8 38.6,68.6 42.8,68.6 
	42.8,60.9 40.1,55.2 "/>
<path d="M65.6,22.7c-0.2,0.1-0.4,0.2-0.6,0.3c-0.6,0.4-1.4,1-2,1.6c-0.4,0.3-0.7,0.7-1,1l0.1,3.9c0.2-0.1,0.4-0.1,0.6-0.2
	C63.9,28.2,65.3,25.7,65.6,22.7z"/>
<path d="M62.1,31.7l0.1,3c0.9-0.8,1.8-1.8,2.5-3.1c-0.2,0-0.4-0.1-0.7-0.1C63.5,31.5,62.8,31.6,62.1,31.7z"/>
</svg>
