<?xml version="1.0" encoding="utf-8"?>
<!-- Generator: Adobe Illustrator 25.0.0, SVG Export Plug-In . SVG Version: 6.00 Build 0)  -->
<svg version="1.1" baseProfile="tiny" id="Layer_1" xmlns="http://www.w3.org/2000/svg" xmlns:xlink="http://www.w3.org/1999/xlink"
	 x="0px" y="0px" viewBox="0 0 648 1152" overflow="visible" xml:space="preserve">
<path fill="#213B72" d="M237.5,569.8c-1.6,0-3.1,0.2-4.6,0.6l0.1,9.3v3l0.1,14.9c1.4,0.8,2.9,1.3,4.6,1.3c1.4,0,2.8-0.4,4-1
	l-0.1-15.6v-2.9l-0.1-9.2C240.3,570,238.9,569.8,237.5,569.8z"/>
<path fill="#213B72" d="M252.4,562.2h-12.6v-13.6c0.7-0.7,1.2-1.6,1.2-2.6c0-2-1.6-3.6-3.6-3.6s-3.6,1.6-3.6,3.6
	c0,1.1,0.5,2,1.2,2.6v13.6h-12.6l6,3.7h4.6v1.7c1.5-0.3,3-0.5,4.6-0.5c1.4,0,2.7,0.1,4,0.4v-1.6h4.6L252.4,562.2z"/>
<g>
	<g>
		<path fill="#213B72" d="M248.1,585.4l9.3-0.1c-1.7-6.7-6.7-12.1-13.2-14.3l0.1,9.9C246,582,247.3,583.5,248.1,585.4z"/>
		<path fill="#213B72" d="M244.5,599.4L244.5,599.4l-1.1,0.7l-0.4,0.2c0,0-0.1,0-0.1,0.1c-0.2,0.1-0.5,0.2-0.7,0.3
			c-0.1,0-0.1,0.1-0.2,0.1c-0.3,0.1-0.5,0.2-0.8,0.3c-0.1,0-0.2,0-0.2,0.1c-0.3,0.1-0.5,0.1-0.8,0.2c-0.3,0.1-0.7,0.1-1,0.2
			c-0.1,0-0.1,0-0.1,0c-0.4,0.1-0.9,0.1-1.3,0.1c-0.3,0-0.7,0-1,0c-0.1,0-0.2,0-0.3,0c-0.2,0-0.5-0.1-0.7-0.1s-0.4-0.1-0.6-0.1
			c-0.2,0-0.4-0.1-0.6-0.1c-0.2-0.1-0.4-0.1-0.6-0.2c-0.1,0-0.2-0.1-0.2-0.1c-0.4-0.1-0.8-0.3-1.1-0.5c-0.2-0.1-0.4-0.2-0.6-0.3
			c-0.1-0.1-0.2-0.1-0.3-0.2l-0.4-0.3l-0.9-0.5v-0.1c-2.6-2.1-4.2-5.2-4.2-8.8s1.6-6.7,4.1-8.9l-0.1-10.1
			c-7.6,3-12.9,10.5-12.8,19.1c0.1,11.2,9.3,20.3,20.5,20.2c9.6-0.1,17.6-6.8,19.6-15.8l-9.3,0.1
			C247.4,596.7,246.1,598.2,244.5,599.4z"/>
	</g>
	<path fill="#213B72" d="M233.8,601c-0.4-0.1-0.8-0.3-1.1-0.5C233,600.7,233.4,600.8,233.8,601z"/>
	<path fill="#213B72" d="M231.7,600c0.1,0.1,0.2,0.1,0.3,0.2c-0.2-0.1-0.5-0.3-0.7-0.4L231.7,600z"/>
	<path fill="#213B72" d="M239.1,601.6c-0.4,0.1-0.8,0.1-1.3,0.1C238.2,601.7,238.7,601.6,239.1,601.6z"/>
	<path fill="#213B72" d="M243.1,600.3l0.4-0.2c-0.2,0.1-0.3,0.2-0.5,0.3C243,600.4,243,600.4,243.1,600.3z"/>
	<path fill="#213B72" d="M242.2,600.7c-0.1,0-0.1,0.1-0.2,0.1C242.1,600.8,242.2,600.8,242.2,600.7z"/>
	<path fill="#213B72" d="M241.3,601.1c-0.1,0-0.2,0-0.2,0.1C241.1,601.2,241.2,601.1,241.3,601.1z"/>
	<path fill="#213B72" d="M240.3,601.4c-0.3,0.1-0.7,0.1-1,0.2C239.6,601.5,239.9,601.5,240.3,601.4z"/>
	<path fill="#213B72" d="M244.5,599.6L244.5,599.6c-0.3,0.2-0.7,0.4-1.1,0.6L244.5,599.6z"/>
	<path fill="#213B72" d="M230.5,599.2l0.9,0.5C231.1,599.5,230.8,599.3,230.5,599.2L230.5,599.2z"/>
</g>
<g>
	<path fill="#213B72" d="M283.6,586c0,3.1-0.9,5.7-2.6,7.6c-1.5,1.8-3.3,2.6-5.3,2.6s-3.8-0.8-5.4-2.4c-1.8-1.9-2.7-4.4-2.7-7.6v-33
		c0-3.3,0.8-5.9,2.3-7.9c1.6-2,3.5-3,5.7-3s4,0.9,5.5,2.8c1.6,2,2.4,4.6,2.4,7.7v7.7h-5.2v-7.1c0-1.2-0.2-2.2-0.7-3.1
		c-0.5-0.9-1.1-1.3-2-1.3c-0.7,0-1.3,0.4-2,1.2c-0.6,0.8-0.9,1.7-0.9,2.6v32.8c0,1.2,0.3,2.1,1,2.8c0.6,0.7,1.3,1,1.9,1
		c0.7,0,1.4-0.4,1.9-1.1c0.5-0.7,0.8-1.7,0.8-2.8v-8.2h5.2v8.7H283.6z"/>
	<path fill="#213B72" d="M306.1,595.3h-5.5l-4.5-22.5h-3v22.5H288V543h9.5c4.8,0,7.2,5.1,7.2,15.2c0,3.4-0.1,5.9-0.4,7.4
		c-0.5,2.6-1.6,4.5-3.3,5.5L306.1,595.3z M299.6,558.1c0-5.6-1-8.4-3.1-8.4h-3.3v16.2h3.7C298.7,566,299.6,563.4,299.6,558.1z"/>
	<path fill="#213B72" d="M326.3,585.7c0,3.1-0.8,5.6-2.4,7.6s-3.5,2.9-5.8,2.9s-4.3-1-5.9-3s-2.3-4.7-2.3-8.2v-42h5.2v41.6
		c0,1.2,0.3,2.3,0.8,3.2c0.6,1.1,1.3,1.7,2.3,1.7c0.7,0,1.4-0.5,2-1.4s0.9-1.8,0.9-2.8V543h5.2L326.3,585.7L326.3,585.7z"/>
	<path fill="#213B72" d="M347,582.9c0,4.1-0.7,7.2-2,9.5c-1.5,2.5-3.6,3.8-6.3,3.8c-2.2,0-4-1-5.6-2.9c-1.7-2.1-2.6-4.7-2.6-8v-6.6
		h5.2c0,2.1,0.1,4.1,0.1,6.2c0.3,3,1.3,4.5,3,4.5c2.1,0,3.1-2.1,3.1-6.2c0-2.9-1-5.9-2.9-8.9c-1.8-2.6-3.6-5.3-5.4-7.9
		c-1.9-3.4-2.9-7.1-2.9-11c0-3.7,0.6-6.8,1.8-9.1c1.5-2.7,3.5-4,6.3-4c2.5,0,4.4,1.1,5.9,3.4c1.3,2.1,2,4.8,2,7.9v5.2h-5.1
		c0-1.9-0.1-3.9-0.1-5.8c-0.2-2.7-1.1-4.1-2.7-4.1c-1.9,0-2.9,2.1-2.9,6.2c0,2.5,1,5.2,3,8c1.8,2.6,3.5,5.3,5.3,7.9
		C346,574.8,347,578.7,347,582.9z"/>
	<path fill="#213B72" d="M369.1,595.3H364c-0.3-2.6-0.8-6.6-1.6-11.8h-6.5c-0.4,2.6-0.9,6.5-1.4,11.8h-4.9l6.2-52.3h6.8L369.1,595.3
		z M361.7,576.4l-2.5-22.8l-2.5,22.8H361.7z"/>
	<path fill="#213B72" d="M389.4,584.3c0,3.1-0.8,5.7-2.4,7.9s-3.5,3.2-5.8,3.2H373V543h8.5c2,0,3.8,1.1,5.4,3.4
		c1.6,2.3,2.4,4.9,2.4,7.7v30.2H389.4z M384.2,583.1v-28.2c0-0.7-0.3-1.7-0.8-2.8c-0.6-1.4-1.2-2-1.9-2h-3.3v38.5h2.4
		c1,0,1.9-0.5,2.6-1.6C383.8,585.9,384.2,584.6,384.2,583.1z"/>
	<path fill="#213B72" d="M408.7,595.3h-14.3V543h14.2v6.7h-9v15.2h7.6v6.9h-7.6v16.7h9.2v6.8H408.7z"/>
	<path fill="#213B72" d="M430.7,595.3h-5.5l-4.5-22.5h-3v22.5h-5.2V543h9.5c4.8,0,7.2,5.1,7.2,15.2c0,3.4-0.1,5.9-0.4,7.4
		c-0.5,2.6-1.6,4.5-3.3,5.5L430.7,595.3z M424.1,558.1c0-5.6-1-8.4-3.1-8.4h-3.3v16.2h3.7C423.2,566,424.1,563.4,424.1,558.1z"/>
</g>
<g>
	<path fill="#213B72" d="M267.6,601.3h1.2v9.1h-1.2V601.3z"/>
	<path fill="#213B72" d="M281.4,601.3h1.6l5,7.5l0,0v-7.5h1.2v9.1h-1.6l-5-7.5l0,0v7.5h-1.2V601.3z"/>
	<path fill="#213B72" d="M301.6,601.3h3.2c0.6,0,1.2,0.1,1.7,0.2c0.5,0.1,0.9,0.3,1.3,0.6c0.4,0.2,0.6,0.5,0.9,0.8
		c0.2,0.3,0.4,0.6,0.6,1c0.1,0.3,0.2,0.7,0.3,1c0.1,0.3,0.1,0.6,0.1,0.9c0,0.6-0.1,1.1-0.3,1.7c-0.2,0.5-0.5,1-0.9,1.4
		s-0.9,0.8-1.6,1c-0.6,0.3-1.3,0.4-2.1,0.4h-2.9v-9H301.6z M302.8,609.2h1.5c0.5,0,1-0.1,1.5-0.2c0.5-0.1,0.9-0.4,1.2-0.6
		c0.3-0.3,0.6-0.6,0.8-1.1c0.2-0.4,0.3-0.9,0.3-1.5c0-0.3,0-0.6-0.1-1s-0.3-0.8-0.5-1.1c-0.3-0.3-0.6-0.6-1.1-0.9
		c-0.5-0.2-1.1-0.4-1.8-0.4h-1.8V609.2z"/>
	<path fill="#213B72" d="M322.5,601.3v5.6c0,0.3,0,0.6,0.1,0.9c0.1,0.3,0.2,0.6,0.4,0.8c0.2,0.3,0.4,0.5,0.7,0.6
		c0.3,0.2,0.6,0.2,1.1,0.2c0.4,0,0.8-0.1,1.1-0.2c0.3-0.2,0.5-0.4,0.7-0.6c0.2-0.3,0.3-0.5,0.4-0.8s0.1-0.6,0.1-0.9v-5.6h1.2v5.8
		c0,0.5-0.1,1-0.3,1.4c-0.2,0.4-0.4,0.8-0.7,1.1c-0.3,0.3-0.7,0.6-1.1,0.7c-0.4,0.2-0.9,0.3-1.4,0.3s-1-0.1-1.4-0.3
		s-0.8-0.4-1.1-0.7c-0.3-0.3-0.6-0.7-0.7-1.1c-0.2-0.4-0.3-0.9-0.3-1.4v-5.8H322.5z"/>
	<path fill="#213B72" d="M341,608.5c0.2,0.3,0.5,0.6,0.9,0.7c0.3,0.2,0.7,0.2,1.1,0.2c0.2,0,0.4,0,0.6-0.1s0.4-0.2,0.6-0.3
		s0.3-0.3,0.4-0.5s0.2-0.4,0.2-0.7c0-0.4-0.1-0.6-0.3-0.8c-0.2-0.2-0.5-0.3-0.8-0.5c-0.3-0.1-0.7-0.2-1.1-0.4
		c-0.4-0.1-0.7-0.3-1.1-0.5c-0.3-0.2-0.6-0.5-0.8-0.8c-0.2-0.3-0.3-0.8-0.3-1.4c0-0.3,0.1-0.5,0.2-0.8s0.3-0.6,0.5-0.8
		s0.6-0.5,1-0.6c0.4-0.2,0.9-0.3,1.4-0.3s1,0.1,1.4,0.2c0.5,0.1,0.8,0.4,1.2,0.8l-1,0.9c-0.2-0.2-0.4-0.4-0.7-0.6
		c-0.3-0.1-0.6-0.2-1-0.2c-0.3,0-0.6,0-0.9,0.1c-0.2,0.1-0.4,0.2-0.5,0.3s-0.2,0.3-0.3,0.5c-0.1,0.2-0.1,0.3-0.1,0.5
		c0,0.4,0.1,0.7,0.3,0.9c0.2,0.2,0.5,0.4,0.8,0.5s0.7,0.2,1.1,0.3s0.7,0.2,1.1,0.4c0.3,0.2,0.6,0.4,0.8,0.7c0.2,0.3,0.3,0.7,0.3,1.3
		c0,0.4-0.1,0.8-0.2,1.2c-0.2,0.4-0.4,0.6-0.7,0.9c-0.3,0.2-0.6,0.4-1,0.6c-0.4,0.1-0.8,0.2-1.2,0.2c-0.6,0-1.1-0.1-1.6-0.3
		s-0.9-0.5-1.2-0.9L341,608.5z"/>
	<path fill="#213B72" d="M359.9,602.4H357v-1.2h7.1v1.2h-2.9v7.9H360v-7.9H359.9z"/>
	<path fill="#213B72" d="M375.6,601.3h3.2c0.6,0,1.1,0.1,1.4,0.2c0.4,0.2,0.7,0.4,0.9,0.6c0.2,0.2,0.4,0.5,0.5,0.8s0.1,0.6,0.1,0.9
		c0,0.3-0.1,0.6-0.2,0.8c-0.1,0.3-0.2,0.5-0.4,0.7c-0.2,0.2-0.4,0.4-0.7,0.6c-0.3,0.1-0.6,0.2-0.9,0.3l2.6,4.1h-1.5l-2.3-4h-1.4v4
		h-1.2v-9H375.6z M376.8,605.3h1.6c0.2,0,0.5,0,0.7-0.1c0.2,0,0.4-0.1,0.6-0.2c0.2-0.1,0.3-0.2,0.4-0.4s0.2-0.4,0.2-0.8
		c0-0.3-0.1-0.6-0.2-0.8s-0.3-0.3-0.4-0.4c-0.2-0.1-0.4-0.2-0.6-0.2s-0.5-0.1-0.7-0.1h-1.6V605.3z"/>
	<path fill="#213B72" d="M393.6,601.3h1.2v9.1h-1.2V601.3z"/>
	<path fill="#213B72" d="M407.4,601.3h5.8v1.2h-4.6v2.7h4.3v1.2h-4.3v2.9h4.8v1.2h-6.1v-9.2H407.4z"/>
	<path fill="#213B72" d="M425.7,608.5c0.2,0.3,0.5,0.6,0.9,0.7c0.3,0.2,0.7,0.2,1.1,0.2c0.2,0,0.4,0,0.6-0.1s0.4-0.2,0.6-0.3
		s0.3-0.3,0.4-0.5s0.2-0.4,0.2-0.7c0-0.4-0.1-0.6-0.3-0.8c-0.2-0.2-0.5-0.3-0.8-0.5c-0.3-0.1-0.7-0.2-1.1-0.4
		c-0.4-0.1-0.7-0.3-1.1-0.5c-0.3-0.2-0.6-0.5-0.8-0.8c-0.2-0.3-0.3-0.8-0.3-1.4c0-0.3,0.1-0.5,0.2-0.8s0.3-0.6,0.5-0.8
		s0.6-0.5,1-0.6c0.4-0.2,0.9-0.3,1.4-0.3s1,0.1,1.4,0.2c0.5,0.1,0.8,0.4,1.2,0.8l-1,0.9c-0.2-0.2-0.4-0.4-0.7-0.6
		c-0.3-0.1-0.6-0.2-1-0.2c-0.3,0-0.6,0-0.9,0.1c-0.2,0.1-0.4,0.2-0.5,0.3s-0.2,0.3-0.3,0.5c-0.1,0.2-0.1,0.3-0.1,0.5
		c0,0.4,0.1,0.7,0.3,0.9c0.2,0.2,0.5,0.4,0.8,0.5s0.7,0.2,1.1,0.3s0.7,0.2,1.1,0.4c0.3,0.2,0.6,0.4,0.8,0.7c0.2,0.3,0.3,0.7,0.3,1.3
		c0,0.4-0.1,0.8-0.2,1.2c-0.2,0.4-0.4,0.6-0.7,0.9c-0.3,0.2-0.6,0.4-1,0.6c-0.4,0.1-0.8,0.2-1.2,0.2c-0.6,0-1.1-0.1-1.6-0.3
		s-0.9-0.5-1.2-0.9L425.7,608.5z"/>
</g>
</svg>
