<?xml version="1.0" encoding="utf-8"?>
<!-- Generator: Adobe Illustrator 28.7.9, SVG Export Plug-In . SVG Version: 9.03 Build 56881)  -->
<svg version="1.1" baseProfile="tiny" id="animated"
	 xmlns="http://www.w3.org/2000/svg" xmlns:xlink="http://www.w3.org/1999/xlink" x="0px" y="0px" viewBox="0 0 720 69.8"
	 overflow="visible" xml:space="preserve">
<g id="_x31_4">
	<rect x="12.1" y="7.7" fill="none" stroke="#000000" stroke-width="2" stroke-miterlimit="10" width="695.8" height="54.3"/>
</g>
<g id="_x31_3_00000127736027685210504980000002544185845547955618_" display="none">
	
		<rect x="12.1" y="7.7" display="inline" fill="none" stroke="#000000" stroke-width="2" stroke-miterlimit="10" width="695.8" height="54.3"/>
	<rect x="17.6" y="12.4" display="inline" width="45" height="45"/>
</g>
<g id="_x31_2_00000119838367131873081520000017460848961737369012_" display="none">
	
		<rect x="12.1" y="7.7" display="inline" fill="none" stroke="#000000" stroke-width="2" stroke-miterlimit="10" width="695.8" height="54.3"/>
	<rect x="17.6" y="12.4" display="inline" width="45" height="45"/>
	<rect x="66.8" y="12.4" display="inline" width="45" height="45"/>
</g>
<g id="_x31_1_00000073695955790357216110000016521608816499604873_" display="none">
	
		<rect x="12.1" y="7.7" display="inline" fill="none" stroke="#000000" stroke-width="2" stroke-miterlimit="10" width="695.8" height="54.3"/>
	<rect x="17.6" y="12.4" display="inline" width="45" height="45"/>
	<rect x="66.8" y="12.4" display="inline" width="45" height="45"/>
	<rect x="116" y="12.4" display="inline" width="45" height="45"/>
</g>
<g id="_x31_0_00000164495935039414026040000007543684833264833976_" display="none">
	
		<rect x="12.1" y="7.7" display="inline" fill="none" stroke="#000000" stroke-width="2" stroke-miterlimit="10" width="695.8" height="54.3"/>
	<rect x="17.6" y="12.4" display="inline" width="45" height="45"/>
	<rect x="66.8" y="12.4" display="inline" width="45" height="45"/>
	<rect x="116" y="12.4" display="inline" width="45" height="45"/>
	<rect x="165.2" y="12.4" display="inline" width="45" height="45"/>
</g>
<g id="_x39__00000083769994724453090970000001288569713284943037_" display="none">
	
		<rect x="12.1" y="7.7" display="inline" fill="none" stroke="#000000" stroke-width="2" stroke-miterlimit="10" width="695.8" height="54.3"/>
	<rect x="17.6" y="12.4" display="inline" width="45" height="45"/>
	<rect x="66.8" y="12.4" display="inline" width="45" height="45"/>
	<rect x="116" y="12.4" display="inline" width="45" height="45"/>
	<rect x="165.2" y="12.4" display="inline" width="45" height="45"/>
	<rect x="214.5" y="12.4" display="inline" width="45" height="45"/>
</g>
<g id="_x38__00000025401656995831814160000005559949253376873355_" display="none">
	
		<rect x="12.1" y="7.7" display="inline" fill="none" stroke="#000000" stroke-width="2" stroke-miterlimit="10" width="695.8" height="54.3"/>
	<rect x="17.6" y="12.4" display="inline" width="45" height="45"/>
	<rect x="66.8" y="12.4" display="inline" width="45" height="45"/>
	<rect x="116" y="12.4" display="inline" width="45" height="45"/>
	<rect x="165.2" y="12.4" display="inline" width="45" height="45"/>
	<rect x="214.5" y="12.4" display="inline" width="45" height="45"/>
	<rect x="263.7" y="12.4" display="inline" width="45" height="45"/>
</g>
<g id="_x37__00000043447793915946083440000015835491839691361183_" display="none">
	
		<rect x="12.1" y="7.7" display="inline" fill="none" stroke="#000000" stroke-width="2" stroke-miterlimit="10" width="695.8" height="54.3"/>
	<rect x="17.6" y="12.4" display="inline" width="45" height="45"/>
	<rect x="66.8" y="12.4" display="inline" width="45" height="45"/>
	<rect x="116" y="12.4" display="inline" width="45" height="45"/>
	<rect x="165.2" y="12.4" display="inline" width="45" height="45"/>
	<rect x="214.5" y="12.4" display="inline" width="45" height="45"/>
	<rect x="263.7" y="12.4" display="inline" width="45" height="45"/>
	<rect x="312.9" y="12.4" display="inline" width="45" height="45"/>
</g>
<g id="_x36__00000178194620539884400750000016681444159015542931_" display="none">
	
		<rect x="12.1" y="7.7" display="inline" fill="none" stroke="#000000" stroke-width="2" stroke-miterlimit="10" width="695.8" height="54.3"/>
	<rect x="17.6" y="12.4" display="inline" width="45" height="45"/>
	<rect x="66.8" y="12.4" display="inline" width="45" height="45"/>
	<rect x="116" y="12.4" display="inline" width="45" height="45"/>
	<rect x="165.2" y="12.4" display="inline" width="45" height="45"/>
	<rect x="214.5" y="12.4" display="inline" width="45" height="45"/>
	<rect x="263.7" y="12.4" display="inline" width="45" height="45"/>
	<rect x="312.9" y="12.4" display="inline" width="45" height="45"/>
	<rect x="362.1" y="12.4" display="inline" width="45" height="45"/>
</g>
<g id="_x35__00000066493675076071317450000010387913296430508685_" display="none">
	
		<rect x="12.1" y="7.7" display="inline" fill="none" stroke="#000000" stroke-width="2" stroke-miterlimit="10" width="695.8" height="54.3"/>
	<rect x="17.6" y="12.4" display="inline" width="45" height="45"/>
	<rect x="66.8" y="12.4" display="inline" width="45" height="45"/>
	<rect x="116" y="12.4" display="inline" width="45" height="45"/>
	<rect x="165.2" y="12.4" display="inline" width="45" height="45"/>
	<rect x="214.5" y="12.4" display="inline" width="45" height="45"/>
	<rect x="263.7" y="12.4" display="inline" width="45" height="45"/>
	<rect x="312.9" y="12.4" display="inline" width="45" height="45"/>
	<rect x="362.1" y="12.4" display="inline" width="45" height="45"/>
	<rect x="411.3" y="12.4" display="inline" width="45" height="45"/>
</g>
<g id="_x34__00000054242060488729097950000008183333024728628640_" display="none">
	
		<rect x="12.1" y="7.7" display="inline" fill="none" stroke="#000000" stroke-width="2" stroke-miterlimit="10" width="695.8" height="54.3"/>
	<rect x="17.6" y="12.4" display="inline" width="45" height="45"/>
	<rect x="66.8" y="12.4" display="inline" width="45" height="45"/>
	<rect x="116" y="12.4" display="inline" width="45" height="45"/>
	<rect x="165.2" y="12.4" display="inline" width="45" height="45"/>
	<rect x="214.5" y="12.4" display="inline" width="45" height="45"/>
	<rect x="263.7" y="12.4" display="inline" width="45" height="45"/>
	<rect x="312.9" y="12.4" display="inline" width="45" height="45"/>
	<rect x="362.1" y="12.4" display="inline" width="45" height="45"/>
	<rect x="411.3" y="12.4" display="inline" width="45" height="45"/>
	<rect x="460.6" y="12.4" display="inline" width="45" height="45"/>
</g>
<g id="_x33__00000134934598552768614560000015353689329276222349_" display="none">
	
		<rect x="12.1" y="7.7" display="inline" fill="none" stroke="#000000" stroke-width="2" stroke-miterlimit="10" width="695.8" height="54.3"/>
	<rect x="17.6" y="12.4" display="inline" width="45" height="45"/>
	<rect x="66.8" y="12.4" display="inline" width="45" height="45"/>
	<rect x="116" y="12.4" display="inline" width="45" height="45"/>
	<rect x="165.2" y="12.4" display="inline" width="45" height="45"/>
	<rect x="214.5" y="12.4" display="inline" width="45" height="45"/>
	<rect x="263.7" y="12.4" display="inline" width="45" height="45"/>
	<rect x="312.9" y="12.4" display="inline" width="45" height="45"/>
	<rect x="362.1" y="12.4" display="inline" width="45" height="45"/>
	<rect x="411.3" y="12.4" display="inline" width="45" height="45"/>
	<rect x="460.6" y="12.4" display="inline" width="45" height="45"/>
	<rect x="509.8" y="12.4" display="inline" width="45" height="45"/>
</g>
<g id="_x32__00000063598949237706540680000002472263725128024729_" display="none">
	
		<rect x="12.1" y="7.7" display="inline" fill="none" stroke="#000000" stroke-width="2" stroke-miterlimit="10" width="695.8" height="54.3"/>
	<rect x="17.6" y="12.4" display="inline" width="45" height="45"/>
	<rect x="66.8" y="12.4" display="inline" width="45" height="45"/>
	<rect x="116" y="12.4" display="inline" width="45" height="45"/>
	<rect x="165.2" y="12.4" display="inline" width="45" height="45"/>
	<rect x="214.5" y="12.4" display="inline" width="45" height="45"/>
	<rect x="263.7" y="12.4" display="inline" width="45" height="45"/>
	<rect x="312.9" y="12.4" display="inline" width="45" height="45"/>
	<rect x="362.1" y="12.4" display="inline" width="45" height="45"/>
	<rect x="411.3" y="12.4" display="inline" width="45" height="45"/>
	<rect x="460.6" y="12.4" display="inline" width="45" height="45"/>
	<rect x="509.8" y="12.4" display="inline" width="45" height="45"/>
	<rect x="559" y="12.4" display="inline" width="45" height="45"/>
</g>
<g id="_x31__00000052805433019960350300000015174078313702564997_" display="none">
	
		<rect x="12.1" y="7.7" display="inline" fill="none" stroke="#000000" stroke-width="2" stroke-miterlimit="10" width="695.8" height="54.3"/>
	<rect x="17.6" y="12.4" display="inline" width="45" height="45"/>
	<rect x="66.8" y="12.4" display="inline" width="45" height="45"/>
	<rect x="116" y="12.4" display="inline" width="45" height="45"/>
	<rect x="165.2" y="12.4" display="inline" width="45" height="45"/>
	<rect x="214.5" y="12.4" display="inline" width="45" height="45"/>
	<rect x="263.7" y="12.4" display="inline" width="45" height="45"/>
	<rect x="312.9" y="12.4" display="inline" width="45" height="45"/>
	<rect x="362.1" y="12.4" display="inline" width="45" height="45"/>
	<rect x="411.3" y="12.4" display="inline" width="45" height="45"/>
	<rect x="460.6" y="12.4" display="inline" width="45" height="45"/>
	<rect x="509.8" y="12.4" display="inline" width="45" height="45"/>
	<rect x="559" y="12.4" display="inline" width="45" height="45"/>
	<rect x="608.2" y="12.4" display="inline" width="45" height="45"/>
</g>
<g id="_x30__00000086683000969037146620000002115110526297036456_" display="none">
	
		<rect x="12.1" y="7.7" display="inline" fill="none" stroke="#000000" stroke-width="2" stroke-miterlimit="10" width="695.8" height="54.3"/>
	<rect x="17.6" y="12.4" display="inline" width="45" height="45"/>
	<rect x="66.8" y="12.4" display="inline" width="45" height="45"/>
	<rect x="116" y="12.4" display="inline" width="45" height="45"/>
	<rect x="165.2" y="12.4" display="inline" width="45" height="45"/>
	<rect x="214.5" y="12.4" display="inline" width="45" height="45"/>
	<rect x="263.7" y="12.4" display="inline" width="45" height="45"/>
	<rect x="312.9" y="12.4" display="inline" width="45" height="45"/>
	<rect x="362.1" y="12.4" display="inline" width="45" height="45"/>
	<rect x="411.3" y="12.4" display="inline" width="45" height="45"/>
	<rect x="460.6" y="12.4" display="inline" width="45" height="45"/>
	<rect x="509.8" y="12.4" display="inline" width="45" height="45"/>
	<rect x="559" y="12.4" display="inline" width="45" height="45"/>
	<rect x="608.2" y="12.4" display="inline" width="45" height="45"/>
	<rect x="657.4" y="12.4" display="inline" width="45" height="45"/>
</g>
</svg>
