<?xml version="1.0" encoding="utf-8"?>
<!-- Generator: Adobe Illustrator 29.2.1, SVG Export Plug-In . SVG Version: 9.03 Build 55982)  -->
<svg version="1.1" baseProfile="tiny" id="Layer_1" xmlns="http://www.w3.org/2000/svg" xmlns:xlink="http://www.w3.org/1999/xlink"
	 x="0px" y="0px" viewBox="0 0 589.2 6.2" overflow="visible" xml:space="preserve">
<g>
	<g>
		<path fill="#09CF6D" d="M3.8,3.9c0,0-2.1-2.1-2.1-2.6c0-0.6,0.5-1.1,1.1-1.1c0.4,0,0.7,0.4,0.9,0.7c0.2-0.3,0.6-0.7,0.9-0.7
			c0.6,0,1.1,0.5,1.1,1.1C5.9,1.8,3.8,3.9,3.8,3.9z"/>
		<path fill="#09CF6D" d="M3.9,3.9c0,0,2.1-2.1,2.6-2.1c0.6,0,1.1,0.5,1.1,1.1c0,0.4-0.4,0.7-0.7,0.9c0.3,0.2,0.7,0.6,0.7,0.9
			C7.7,5.5,7.2,6,6.6,6C6,6,3.9,3.9,3.9,3.9z"/>
		<path fill="#09CF6D" d="M3.8,3.9c0,0-2.1,2.1-2.6,2.1C0.5,6,0,5.5,0,4.9c0-0.4,0.4-0.7,0.7-0.9C0.4,3.7,0,3.4,0,3
			c0-0.6,0.5-1.1,1.1-1.1C1.7,1.9,3.8,3.9,3.8,3.9z"/>
	</g>
	<g>
		<path fill="#09CF6D" d="M15.4,3.9c0,0-2.1-2.1-2.1-2.6c0-0.6,0.5-1.1,1.1-1.1c0.4,0,0.7,0.4,0.9,0.7c0.2-0.3,0.6-0.7,0.9-0.7
			c0.6,0,1.1,0.5,1.1,1.1C17.5,1.8,15.4,3.9,15.4,3.9z"/>
		<path fill="#09CF6D" d="M15.5,3.9c0,0,2.1-2.1,2.6-2.1c0.6,0,1.1,0.5,1.1,1.1c0,0.4-0.4,0.7-0.7,0.9c0.3,0.2,0.7,0.6,0.7,0.9
			c0,0.6-0.5,1.1-1.1,1.1C17.6,6,15.5,3.9,15.5,3.9z"/>
		<path fill="#09CF6D" d="M15.4,3.9c0,0-2.1,2.1-2.6,2.1c-0.6,0-1.1-0.5-1.1-1.1c0-0.4,0.4-0.7,0.7-0.9C12,3.7,11.6,3.4,11.6,3
			c0-0.6,0.5-1.1,1.1-1.1C13.3,1.9,15.4,3.9,15.4,3.9z"/>
	</g>
	<g>
		<path fill="#09CF6D" d="M27,3.9c0,0-2.1-2.1-2.1-2.6c0-0.6,0.5-1.1,1.1-1.1c0.4,0,0.7,0.4,0.9,0.7c0.2-0.3,0.6-0.7,0.9-0.7
			c0.6,0,1.1,0.5,1.1,1.1C29.1,1.8,27,3.9,27,3.9z"/>
		<path fill="#09CF6D" d="M27.1,3.9c0,0,2.1-2.1,2.6-2.1c0.6,0,1.1,0.5,1.1,1.1c0,0.4-0.4,0.7-0.7,0.9c0.3,0.2,0.7,0.6,0.7,0.9
			c0,0.6-0.5,1.1-1.1,1.1C29.2,6,27.1,3.9,27.1,3.9z"/>
		<path fill="#09CF6D" d="M27,3.9c0,0-2.1,2.1-2.6,2.1c-0.6,0-1.1-0.5-1.1-1.1c0-0.4,0.4-0.7,0.7-0.9c-0.3-0.2-0.7-0.6-0.7-0.9
			c0-0.6,0.5-1.1,1.1-1.1C24.9,1.9,27,3.9,27,3.9z"/>
	</g>
	<g>
		<path fill="#09CF6D" d="M38.6,3.9c0,0-2.1-2.1-2.1-2.6c0-0.6,0.5-1.1,1.1-1.1c0.4,0,0.7,0.4,0.9,0.7c0.2-0.3,0.6-0.7,0.9-0.7
			c0.6,0,1.1,0.5,1.1,1.1C40.7,1.8,38.6,3.9,38.6,3.9z"/>
		<path fill="#09CF6D" d="M38.7,3.9c0,0,2.1-2.1,2.6-2.1c0.6,0,1.1,0.5,1.1,1.1c0,0.4-0.4,0.7-0.7,0.9c0.3,0.2,0.7,0.6,0.7,0.9
			C42.5,5.5,42,6,41.3,6C40.8,6,38.7,3.9,38.7,3.9z"/>
		<path fill="#09CF6D" d="M38.6,3.9c0,0-2.1,2.1-2.6,2.1c-0.6,0-1.1-0.5-1.1-1.1c0-0.4,0.4-0.7,0.7-0.9c-0.3-0.2-0.7-0.6-0.7-0.9
			c0-0.6,0.5-1.1,1.1-1.1C36.5,1.9,38.6,3.9,38.6,3.9z"/>
	</g>
	<g>
		<path fill="#09CF6D" d="M50.2,3.9c0,0-2.1-2.1-2.1-2.6c0-0.6,0.5-1.1,1.1-1.1c0.4,0,0.7,0.4,0.9,0.7c0.2-0.3,0.6-0.7,0.9-0.7
			c0.6,0,1.1,0.5,1.1,1.1C52.3,1.8,50.2,3.9,50.2,3.9z"/>
		<path fill="#09CF6D" d="M50.3,3.9c0,0,2.1-2.1,2.6-2.1c0.6,0,1.1,0.5,1.1,1.1c0,0.4-0.4,0.7-0.7,0.9c0.3,0.2,0.7,0.6,0.7,0.9
			c0,0.6-0.5,1.1-1.1,1.1C52.4,6,50.3,3.9,50.3,3.9z"/>
		<path fill="#09CF6D" d="M50.2,3.9c0,0-2.1,2.1-2.6,2.1c-0.6,0-1.1-0.5-1.1-1.1c0-0.4,0.4-0.7,0.7-0.9c-0.3-0.2-0.7-0.6-0.7-0.9
			c0-0.6,0.5-1.1,1.1-1.1C48.1,1.9,50.2,3.9,50.2,3.9z"/>
	</g>
	<g>
		<path fill="#09CF6D" d="M61.8,3.9c0,0-2.1-2.1-2.1-2.6c0-0.6,0.5-1.1,1.1-1.1c0.4,0,0.7,0.4,0.9,0.7c0.2-0.3,0.6-0.7,0.9-0.7
			c0.6,0,1.1,0.5,1.1,1.1C63.9,1.8,61.8,3.9,61.8,3.9z"/>
		<path fill="#09CF6D" d="M61.9,3.9c0,0,2.1-2.1,2.6-2.1c0.6,0,1.1,0.5,1.1,1.1c0,0.4-0.4,0.7-0.7,0.9c0.3,0.2,0.7,0.6,0.7,0.9
			c0,0.6-0.5,1.1-1.1,1.1C63.9,6,61.9,3.9,61.9,3.9z"/>
		<path fill="#09CF6D" d="M61.8,3.9c0,0-2.1,2.1-2.6,2.1C58.5,6,58,5.5,58,4.9c0-0.4,0.4-0.7,0.7-0.9C58.4,3.7,58,3.4,58,3
			c0-0.6,0.5-1.1,1.1-1.1C59.7,1.9,61.8,3.9,61.8,3.9z"/>
	</g>
	<g>
		<path fill="#09CF6D" d="M73.4,3.9c0,0-2.1-2.1-2.1-2.6c0-0.6,0.5-1.1,1.1-1.1c0.4,0,0.7,0.4,0.9,0.7c0.2-0.3,0.6-0.7,0.9-0.7
			c0.6,0,1.1,0.5,1.1,1.1C75.5,1.8,73.4,3.9,73.4,3.9z"/>
		<path fill="#09CF6D" d="M73.5,3.9c0,0,2.1-2.1,2.6-2.1c0.6,0,1.1,0.5,1.1,1.1c0,0.4-0.4,0.7-0.7,0.9c0.3,0.2,0.7,0.6,0.7,0.9
			c0,0.6-0.5,1.1-1.1,1.1C75.5,6,73.5,3.9,73.5,3.9z"/>
		<path fill="#09CF6D" d="M73.3,3.9c0,0-2.1,2.1-2.6,2.1c-0.6,0-1.1-0.5-1.1-1.1c0-0.4,0.4-0.7,0.7-0.9C70,3.7,69.6,3.4,69.6,3
			c0-0.6,0.5-1.1,1.1-1.1C71.3,1.9,73.3,3.9,73.3,3.9z"/>
	</g>
	<g>
		<path fill="#09CF6D" d="M85,3.9c0,0-2.1-2.1-2.1-2.6c0-0.6,0.5-1.1,1.1-1.1c0.4,0,0.7,0.4,0.9,0.7c0.2-0.3,0.6-0.7,0.9-0.7
			c0.6,0,1.1,0.5,1.1,1.1C87.1,1.8,85,3.9,85,3.9z"/>
		<path fill="#09CF6D" d="M85.1,3.9c0,0,2.1-2.1,2.6-2.1c0.6,0,1.1,0.5,1.1,1.1c0,0.4-0.4,0.7-0.7,0.9c0.3,0.2,0.7,0.6,0.7,0.9
			c0,0.6-0.5,1.1-1.1,1.1C87.1,6,85.1,3.9,85.1,3.9z"/>
		<path fill="#09CF6D" d="M84.9,3.9c0,0-2.1,2.1-2.6,2.1c-0.6,0-1.1-0.5-1.1-1.1c0-0.4,0.4-0.7,0.7-0.9c-0.3-0.2-0.7-0.6-0.7-0.9
			c0-0.6,0.5-1.1,1.1-1.1C82.9,1.9,84.9,3.9,84.9,3.9z"/>
	</g>
	<g>
		<path fill="#09CF6D" d="M96.6,3.9c0,0-2.1-2.1-2.1-2.6c0-0.6,0.5-1.1,1.1-1.1c0.4,0,0.7,0.4,0.9,0.7c0.2-0.3,0.6-0.7,0.9-0.7
			c0.6,0,1.1,0.5,1.1,1.1C98.7,1.8,96.6,3.9,96.6,3.9z"/>
		<path fill="#09CF6D" d="M96.7,3.9c0,0,2.1-2.1,2.6-2.1c0.6,0,1.1,0.5,1.1,1.1c0,0.4-0.4,0.7-0.7,0.9c0.3,0.2,0.7,0.6,0.7,0.9
			c0,0.6-0.5,1.1-1.1,1.1C98.7,6,96.7,3.9,96.7,3.9z"/>
		<path fill="#09CF6D" d="M96.5,3.9c0,0-2.1,2.1-2.6,2.1c-0.6,0-1.1-0.5-1.1-1.1c0-0.4,0.4-0.7,0.7-0.9c-0.3-0.2-0.7-0.6-0.7-0.9
			c0-0.6,0.5-1.1,1.1-1.1C94.5,1.9,96.5,3.9,96.5,3.9z"/>
	</g>
	<g>
		<path fill="#09CF6D" d="M108.2,3.9c0,0-2.1-2.1-2.1-2.6c0-0.6,0.5-1.1,1.1-1.1c0.4,0,0.7,0.4,0.9,0.7c0.2-0.3,0.6-0.7,0.9-0.7
			c0.6,0,1.1,0.5,1.1,1.1C110.3,1.8,108.2,3.9,108.2,3.9z"/>
		<path fill="#09CF6D" d="M108.3,3.9c0,0,2.1-2.1,2.6-2.1c0.6,0,1.1,0.5,1.1,1.1c0,0.4-0.4,0.7-0.7,0.9c0.3,0.2,0.7,0.6,0.7,0.9
			c0,0.6-0.5,1.1-1.1,1.1C110.3,6,108.3,3.9,108.3,3.9z"/>
		<path fill="#09CF6D" d="M108.1,3.9c0,0-2.1,2.1-2.6,2.1c-0.6,0-1.1-0.5-1.1-1.1c0-0.4,0.4-0.7,0.7-0.9c-0.3-0.2-0.7-0.6-0.7-0.9
			c0-0.6,0.5-1.1,1.1-1.1C106.1,1.9,108.1,3.9,108.1,3.9z"/>
	</g>
	<g>
		<path fill="#09CF6D" d="M119.8,3.9c0,0-2.1-2.1-2.1-2.6c0-0.6,0.5-1.1,1.1-1.1c0.4,0,0.7,0.4,0.9,0.7c0.2-0.3,0.6-0.7,0.9-0.7
			c0.6,0,1.1,0.5,1.1,1.1C121.9,1.8,119.8,3.9,119.8,3.9z"/>
		<path fill="#09CF6D" d="M119.9,3.9c0,0,2.1-2.1,2.6-2.1c0.6,0,1.1,0.5,1.1,1.1c0,0.4-0.4,0.7-0.7,0.9c0.3,0.2,0.7,0.6,0.7,0.9
			c0,0.6-0.5,1.1-1.1,1.1C121.9,6,119.9,3.9,119.9,3.9z"/>
		<path fill="#09CF6D" d="M119.7,3.9c0,0-2.1,2.1-2.6,2.1c-0.6,0-1.1-0.5-1.1-1.1c0-0.4,0.4-0.7,0.7-0.9C116.4,3.7,116,3.4,116,3
			c0-0.6,0.5-1.1,1.1-1.1C117.7,1.9,119.7,3.9,119.7,3.9z"/>
	</g>
	<g>
		<path fill="#09CF6D" d="M131.4,3.9c0,0-2.1-2.1-2.1-2.6c0-0.6,0.5-1.1,1.1-1.1c0.4,0,0.7,0.4,0.9,0.7c0.2-0.3,0.6-0.7,0.9-0.7
			c0.6,0,1.1,0.5,1.1,1.1C133.5,1.8,131.4,3.9,131.4,3.9z"/>
		<path fill="#09CF6D" d="M131.5,3.9c0,0,2.1-2.1,2.6-2.1c0.6,0,1.1,0.5,1.1,1.1c0,0.4-0.4,0.7-0.7,0.9c0.3,0.2,0.7,0.6,0.7,0.9
			c0,0.6-0.5,1.1-1.1,1.1C133.5,6,131.5,3.9,131.5,3.9z"/>
		<path fill="#09CF6D" d="M131.3,3.9c0,0-2.1,2.1-2.6,2.1c-0.6,0-1.1-0.5-1.1-1.1c0-0.4,0.4-0.7,0.7-0.9c-0.3-0.2-0.7-0.6-0.7-0.9
			c0-0.6,0.5-1.1,1.1-1.1C129.3,1.9,131.3,3.9,131.3,3.9z"/>
	</g>
	<g>
		<path fill="#09CF6D" d="M143,3.9c0,0-2.1-2.1-2.1-2.6c0-0.6,0.5-1.1,1.1-1.1c0.4,0,0.7,0.4,0.9,0.7c0.2-0.3,0.6-0.7,0.9-0.7
			c0.6,0,1.1,0.5,1.1,1.1C145,1.8,143,3.9,143,3.9z"/>
		<path fill="#09CF6D" d="M143.1,3.9c0,0,2.1-2.1,2.6-2.1c0.6,0,1.1,0.5,1.1,1.1c0,0.4-0.4,0.7-0.7,0.9c0.3,0.2,0.7,0.6,0.7,0.9
			c0,0.6-0.5,1.1-1.1,1.1C145.1,6,143.1,3.9,143.1,3.9z"/>
		<path fill="#09CF6D" d="M142.9,3.9c0,0-2.1,2.1-2.6,2.1c-0.6,0-1.1-0.5-1.1-1.1c0-0.4,0.4-0.7,0.7-0.9c-0.3-0.2-0.7-0.6-0.7-0.9
			c0-0.6,0.5-1.1,1.1-1.1C140.9,1.9,142.9,3.9,142.9,3.9z"/>
	</g>
	<g>
		<path fill="#09CF6D" d="M154.6,3.9c0,0-2.1-2.1-2.1-2.6c0-0.6,0.5-1.1,1.1-1.1c0.4,0,0.7,0.4,0.9,0.7c0.2-0.3,0.6-0.7,0.9-0.7
			c0.6,0,1.1,0.5,1.1,1.1C156.6,1.8,154.6,3.9,154.6,3.9z"/>
		<path fill="#09CF6D" d="M154.7,3.9c0,0,2.1-2.1,2.6-2.1c0.6,0,1.1,0.5,1.1,1.1c0,0.4-0.4,0.7-0.7,0.9c0.3,0.2,0.7,0.6,0.7,0.9
			c0,0.6-0.5,1.1-1.1,1.1C156.7,6,154.7,3.9,154.7,3.9z"/>
		<path fill="#09CF6D" d="M154.5,3.9c0,0-2.1,2.1-2.6,2.1c-0.6,0-1.1-0.5-1.1-1.1c0-0.4,0.4-0.7,0.7-0.9c-0.3-0.2-0.7-0.6-0.7-0.9
			c0-0.6,0.5-1.1,1.1-1.1C152.5,1.9,154.5,3.9,154.5,3.9z"/>
	</g>
	<g>
		<path fill="#09CF6D" d="M166.2,3.9c0,0-2.1-2.1-2.1-2.6c0-0.6,0.5-1.1,1.1-1.1c0.4,0,0.7,0.4,0.9,0.7c0.2-0.3,0.6-0.7,0.9-0.7
			c0.6,0,1.1,0.5,1.1,1.1C168.2,1.8,166.2,3.9,166.2,3.9z"/>
		<path fill="#09CF6D" d="M166.3,3.9c0,0,2.1-2.1,2.6-2.1c0.6,0,1.1,0.5,1.1,1.1c0,0.4-0.4,0.7-0.7,0.9c0.3,0.2,0.7,0.6,0.7,0.9
			c0,0.6-0.5,1.1-1.1,1.1C168.3,6,166.3,3.9,166.3,3.9z"/>
		<path fill="#09CF6D" d="M166.1,3.9c0,0-2.1,2.1-2.6,2.1c-0.6,0-1.1-0.5-1.1-1.1c0-0.4,0.4-0.7,0.7-0.9c-0.3-0.2-0.7-0.6-0.7-0.9
			c0-0.6,0.5-1.1,1.1-1.1C164.1,1.9,166.1,3.9,166.1,3.9z"/>
	</g>
	<g>
		<path fill="#09CF6D" d="M177.8,3.9c0,0-2.1-2.1-2.1-2.6c0-0.6,0.5-1.1,1.1-1.1c0.4,0,0.7,0.4,0.9,0.7c0.2-0.3,0.6-0.7,0.9-0.7
			c0.6,0,1.1,0.5,1.1,1.1C179.8,1.8,177.8,3.9,177.8,3.9z"/>
		<path fill="#09CF6D" d="M177.8,3.9c0,0,2.1-2.1,2.6-2.1c0.6,0,1.1,0.5,1.1,1.1c0,0.4-0.4,0.7-0.7,0.9c0.3,0.2,0.7,0.6,0.7,0.9
			c0,0.6-0.5,1.1-1.1,1.1C179.9,6,177.8,3.9,177.8,3.9z"/>
		<path fill="#09CF6D" d="M177.7,3.9c0,0-2.1,2.1-2.6,2.1c-0.6,0-1.1-0.5-1.1-1.1c0-0.4,0.4-0.7,0.7-0.9c-0.3-0.2-0.7-0.6-0.7-0.9
			c0-0.6,0.5-1.1,1.1-1.1C175.7,1.9,177.7,3.9,177.7,3.9z"/>
	</g>
	<g>
		<path fill="#09CF6D" d="M189.4,3.9c0,0-2.1-2.1-2.1-2.6c0-0.6,0.5-1.1,1.1-1.1c0.4,0,0.7,0.4,0.9,0.7c0.2-0.3,0.6-0.7,0.9-0.7
			c0.6,0,1.1,0.5,1.1,1.1C191.4,1.8,189.4,3.9,189.4,3.9z"/>
		<path fill="#09CF6D" d="M189.4,3.9c0,0,2.1-2.1,2.6-2.1c0.6,0,1.1,0.5,1.1,1.1c0,0.4-0.4,0.7-0.7,0.9c0.3,0.2,0.7,0.6,0.7,0.9
			c0,0.6-0.5,1.1-1.1,1.1C191.5,6,189.4,3.9,189.4,3.9z"/>
		<path fill="#09CF6D" d="M189.3,3.9c0,0-2.1,2.1-2.6,2.1c-0.6,0-1.1-0.5-1.1-1.1c0-0.4,0.4-0.7,0.7-0.9c-0.3-0.2-0.7-0.6-0.7-0.9
			c0-0.6,0.5-1.1,1.1-1.1C187.2,1.9,189.3,3.9,189.3,3.9z"/>
	</g>
	<g>
		<path fill="#09CF6D" d="M201,3.9c0,0-2.1-2.1-2.1-2.6c0-0.6,0.5-1.1,1.1-1.1c0.4,0,0.7,0.4,0.9,0.7c0.2-0.3,0.6-0.7,0.9-0.7
			c0.6,0,1.1,0.5,1.1,1.1C203,1.8,201,3.9,201,3.9z"/>
		<path fill="#09CF6D" d="M201,3.9c0,0,2.1-2.1,2.6-2.1c0.6,0,1.1,0.5,1.1,1.1c0,0.4-0.4,0.7-0.7,0.9c0.3,0.2,0.7,0.6,0.7,0.9
			c0,0.6-0.5,1.1-1.1,1.1C203.1,6,201,3.9,201,3.9z"/>
		<path fill="#09CF6D" d="M200.9,3.9c0,0-2.1,2.1-2.6,2.1c-0.6,0-1.1-0.5-1.1-1.1c0-0.4,0.4-0.7,0.7-0.9c-0.3-0.2-0.7-0.6-0.7-0.9
			c0-0.6,0.5-1.1,1.1-1.1C198.8,1.9,200.9,3.9,200.9,3.9z"/>
	</g>
	<g>
		<path fill="#09CF6D" d="M212.6,3.9c0,0-2.1-2.1-2.1-2.6c0-0.6,0.5-1.1,1.1-1.1c0.4,0,0.7,0.4,0.9,0.7c0.2-0.3,0.6-0.7,0.9-0.7
			c0.6,0,1.1,0.5,1.1,1.1C214.6,1.8,212.6,3.9,212.6,3.9z"/>
		<path fill="#09CF6D" d="M212.6,3.9c0,0,2.1-2.1,2.6-2.1c0.6,0,1.1,0.5,1.1,1.1c0,0.4-0.4,0.7-0.7,0.9c0.3,0.2,0.7,0.6,0.7,0.9
			c0,0.6-0.5,1.1-1.1,1.1C214.7,6,212.6,3.9,212.6,3.9z"/>
		<path fill="#09CF6D" d="M212.5,3.9c0,0-2.1,2.1-2.6,2.1c-0.6,0-1.1-0.5-1.1-1.1c0-0.4,0.4-0.7,0.7-0.9c-0.3-0.2-0.7-0.6-0.7-0.9
			c0-0.6,0.5-1.1,1.1-1.1C210.4,1.9,212.5,3.9,212.5,3.9z"/>
	</g>
	<g>
		<path fill="#09CF6D" d="M224.2,3.9c0,0-2.1-2.1-2.1-2.6c0-0.6,0.5-1.1,1.1-1.1c0.4,0,0.7,0.4,0.9,0.7c0.2-0.3,0.6-0.7,0.9-0.7
			c0.6,0,1.1,0.5,1.1,1.1C226.2,1.8,224.2,3.9,224.2,3.9z"/>
		<path fill="#09CF6D" d="M224.2,3.9c0,0,2.1-2.1,2.6-2.1c0.6,0,1.1,0.5,1.1,1.1c0,0.4-0.4,0.7-0.7,0.9c0.3,0.2,0.7,0.6,0.7,0.9
			c0,0.6-0.5,1.1-1.1,1.1C226.3,6,224.2,3.9,224.2,3.9z"/>
		<path fill="#09CF6D" d="M224.1,3.9c0,0-2.1,2.1-2.6,2.1c-0.6,0-1.1-0.5-1.1-1.1c0-0.4,0.4-0.7,0.7-0.9c-0.3-0.2-0.7-0.6-0.7-0.9
			c0-0.6,0.5-1.1,1.1-1.1C222,1.9,224.1,3.9,224.1,3.9z"/>
	</g>
	<g>
		<path fill="#09CF6D" d="M235.8,3.9c0,0-2.1-2.1-2.1-2.6c0-0.6,0.5-1.1,1.1-1.1c0.4,0,0.7,0.4,0.9,0.7c0.2-0.3,0.6-0.7,0.9-0.7
			c0.6,0,1.1,0.5,1.1,1.1C237.8,1.8,235.8,3.9,235.8,3.9z"/>
		<path fill="#09CF6D" d="M235.8,3.9c0,0,2.1-2.1,2.6-2.1c0.6,0,1.1,0.5,1.1,1.1c0,0.4-0.4,0.7-0.7,0.9c0.3,0.2,0.7,0.6,0.7,0.9
			c0,0.6-0.5,1.1-1.1,1.1C237.9,6,235.8,3.9,235.8,3.9z"/>
		<path fill="#09CF6D" d="M235.7,3.9c0,0-2.1,2.1-2.6,2.1c-0.6,0-1.1-0.5-1.1-1.1c0-0.4,0.4-0.7,0.7-0.9c-0.3-0.2-0.7-0.6-0.7-0.9
			c0-0.6,0.5-1.1,1.1-1.1C233.6,1.9,235.7,3.9,235.7,3.9z"/>
	</g>
	<g>
		<path fill="#09CF6D" d="M247.4,3.9c0,0-2.1-2.1-2.1-2.6c0-0.6,0.5-1.1,1.1-1.1c0.4,0,0.7,0.4,0.9,0.7c0.2-0.3,0.6-0.7,0.9-0.7
			c0.6,0,1.1,0.5,1.1,1.1C249.4,1.8,247.4,3.9,247.4,3.9z"/>
		<path fill="#09CF6D" d="M247.4,3.9c0,0,2.1-2.1,2.6-2.1c0.6,0,1.1,0.5,1.1,1.1c0,0.4-0.4,0.7-0.7,0.9c0.3,0.2,0.7,0.6,0.7,0.9
			c0,0.6-0.5,1.1-1.1,1.1C249.5,6,247.4,3.9,247.4,3.9z"/>
		<path fill="#09CF6D" d="M247.3,3.9c0,0-2.1,2.1-2.6,2.1c-0.6,0-1.1-0.5-1.1-1.1c0-0.4,0.4-0.7,0.7-0.9c-0.3-0.2-0.7-0.6-0.7-0.9
			c0-0.6,0.5-1.1,1.1-1.1C245.2,1.9,247.3,3.9,247.3,3.9z"/>
	</g>
	<g>
		<path fill="#09CF6D" d="M258.9,3.9c0,0-2.1-2.1-2.1-2.6c0-0.6,0.5-1.1,1.1-1.1c0.4,0,0.7,0.4,0.9,0.7c0.2-0.3,0.6-0.7,0.9-0.7
			c0.6,0,1.1,0.5,1.1,1.1C261,1.8,258.9,3.9,258.9,3.9z"/>
		<path fill="#09CF6D" d="M259,3.9c0,0,2.1-2.1,2.6-2.1c0.6,0,1.1,0.5,1.1,1.1c0,0.4-0.4,0.7-0.7,0.9c0.3,0.2,0.7,0.6,0.7,0.9
			c0,0.6-0.5,1.1-1.1,1.1C261.1,6,259,3.9,259,3.9z"/>
		<path fill="#09CF6D" d="M258.9,3.9c0,0-2.1,2.1-2.6,2.1c-0.6,0-1.1-0.5-1.1-1.1c0-0.4,0.4-0.7,0.7-0.9c-0.3-0.2-0.7-0.6-0.7-0.9
			c0-0.6,0.5-1.1,1.1-1.1C256.8,1.9,258.9,3.9,258.9,3.9z"/>
	</g>
	<g>
		<path fill="#09CF6D" d="M270.5,3.9c0,0-2.1-2.1-2.1-2.6c0-0.6,0.5-1.1,1.1-1.1c0.4,0,0.7,0.4,0.9,0.7c0.2-0.3,0.6-0.7,0.9-0.7
			c0.6,0,1.1,0.5,1.1,1.1C272.6,1.8,270.5,3.9,270.5,3.9z"/>
		<path fill="#09CF6D" d="M270.6,3.9c0,0,2.1-2.1,2.6-2.1c0.6,0,1.1,0.5,1.1,1.1c0,0.4-0.4,0.7-0.7,0.9c0.3,0.2,0.7,0.6,0.7,0.9
			c0,0.6-0.5,1.1-1.1,1.1C272.7,6,270.6,3.9,270.6,3.9z"/>
		<path fill="#09CF6D" d="M270.5,3.9c0,0-2.1,2.1-2.6,2.1c-0.6,0-1.1-0.5-1.1-1.1c0-0.4,0.4-0.7,0.7-0.9c-0.3-0.2-0.7-0.6-0.7-0.9
			c0-0.6,0.5-1.1,1.1-1.1C268.4,1.9,270.5,3.9,270.5,3.9z"/>
	</g>
	<g>
		<path fill="#09CF6D" d="M282.1,3.9c0,0-2.1-2.1-2.1-2.6c0-0.6,0.5-1.1,1.1-1.1c0.4,0,0.7,0.4,0.9,0.7c0.2-0.3,0.6-0.7,0.9-0.7
			c0.6,0,1.1,0.5,1.1,1.1C284.2,1.8,282.1,3.9,282.1,3.9z"/>
		<path fill="#09CF6D" d="M282.2,3.9c0,0,2.1-2.1,2.6-2.1c0.6,0,1.1,0.5,1.1,1.1c0,0.4-0.4,0.7-0.7,0.9c0.3,0.2,0.7,0.6,0.7,0.9
			c0,0.6-0.5,1.1-1.1,1.1C284.3,6,282.2,3.9,282.2,3.9z"/>
		<path fill="#09CF6D" d="M282.1,3.9c0,0-2.1,2.1-2.6,2.1c-0.6,0-1.1-0.5-1.1-1.1c0-0.4,0.4-0.7,0.7-0.9c-0.3-0.2-0.7-0.6-0.7-0.9
			c0-0.6,0.5-1.1,1.1-1.1C280,1.9,282.1,3.9,282.1,3.9z"/>
	</g>
	<g>
		<path fill="#09CF6D" d="M293.7,3.9c0,0-2.1-2.1-2.1-2.6c0-0.6,0.5-1.1,1.1-1.1c0.4,0,0.7,0.4,0.9,0.7c0.2-0.3,0.6-0.7,0.9-0.7
			c0.6,0,1.1,0.5,1.1,1.1C295.8,1.8,293.7,3.9,293.7,3.9z"/>
		<path fill="#09CF6D" d="M293.8,3.9c0,0,2.1-2.1,2.6-2.1c0.6,0,1.1,0.5,1.1,1.1c0,0.4-0.4,0.7-0.7,0.9c0.3,0.2,0.7,0.6,0.7,0.9
			c0,0.6-0.5,1.1-1.1,1.1C295.9,6,293.8,3.9,293.8,3.9z"/>
		<path fill="#09CF6D" d="M293.7,3.9c0,0-2.1,2.1-2.6,2.1c-0.6,0-1.1-0.5-1.1-1.1c0-0.4,0.4-0.7,0.7-0.9c-0.3-0.2-0.7-0.6-0.7-0.9
			c0-0.6,0.5-1.1,1.1-1.1C291.6,1.9,293.7,3.9,293.7,3.9z"/>
	</g>
	<g>
		<path fill="#09CF6D" d="M305.3,3.9c0,0-2.1-2.1-2.1-2.6c0-0.6,0.5-1.1,1.1-1.1c0.4,0,0.7,0.4,0.9,0.7c0.2-0.3,0.6-0.7,0.9-0.7
			c0.6,0,1.1,0.5,1.1,1.1C307.4,1.8,305.3,3.9,305.3,3.9z"/>
		<path fill="#09CF6D" d="M305.4,3.9c0,0,2.1-2.1,2.6-2.1c0.6,0,1.1,0.5,1.1,1.1c0,0.4-0.4,0.7-0.7,0.9c0.3,0.2,0.7,0.6,0.7,0.9
			c0,0.6-0.5,1.1-1.1,1.1C307.5,6,305.4,3.9,305.4,3.9z"/>
		<path fill="#09CF6D" d="M305.3,3.9c0,0-2.1,2.1-2.6,2.1c-0.6,0-1.1-0.5-1.1-1.1c0-0.4,0.4-0.7,0.7-0.9c-0.3-0.2-0.7-0.6-0.7-0.9
			c0-0.6,0.5-1.1,1.1-1.1C303.2,1.9,305.3,3.9,305.3,3.9z"/>
	</g>
	<g>
		<path fill="#09CF6D" d="M316.9,3.9c0,0-2.1-2.1-2.1-2.6c0-0.6,0.5-1.1,1.1-1.1c0.4,0,0.7,0.4,0.9,0.7c0.2-0.3,0.6-0.7,0.9-0.7
			c0.6,0,1.1,0.5,1.1,1.1C319,1.8,316.9,3.9,316.9,3.9z"/>
		<path fill="#09CF6D" d="M317,3.9c0,0,2.1-2.1,2.6-2.1c0.6,0,1.1,0.5,1.1,1.1c0,0.4-0.4,0.7-0.7,0.9c0.3,0.2,0.7,0.6,0.7,0.9
			c0,0.6-0.5,1.1-1.1,1.1C319.1,6,317,3.9,317,3.9z"/>
		<path fill="#09CF6D" d="M316.9,3.9c0,0-2.1,2.1-2.6,2.1c-0.6,0-1.1-0.5-1.1-1.1c0-0.4,0.4-0.7,0.7-0.9c-0.3-0.2-0.7-0.6-0.7-0.9
			c0-0.6,0.5-1.1,1.1-1.1C314.8,1.9,316.9,3.9,316.9,3.9z"/>
	</g>
	<g>
		<path fill="#09CF6D" d="M328.5,3.9c0,0-2.1-2.1-2.1-2.6c0-0.6,0.5-1.1,1.1-1.1c0.4,0,0.7,0.4,0.9,0.7c0.2-0.3,0.6-0.7,0.9-0.7
			c0.6,0,1.1,0.5,1.1,1.1C330.6,1.8,328.5,3.9,328.5,3.9z"/>
		<path fill="#09CF6D" d="M328.6,3.9c0,0,2.1-2.1,2.6-2.1c0.6,0,1.1,0.5,1.1,1.1c0,0.4-0.4,0.7-0.7,0.9c0.3,0.2,0.7,0.6,0.7,0.9
			c0,0.6-0.5,1.1-1.1,1.1C330.7,6,328.6,3.9,328.6,3.9z"/>
		<path fill="#09CF6D" d="M328.5,3.9c0,0-2.1,2.1-2.6,2.1c-0.6,0-1.1-0.5-1.1-1.1c0-0.4,0.4-0.7,0.7-0.9c-0.3-0.2-0.7-0.6-0.7-0.9
			c0-0.6,0.5-1.1,1.1-1.1C326.4,1.9,328.5,3.9,328.5,3.9z"/>
	</g>
	<g>
		<path fill="#09CF6D" d="M340.1,3.9c0,0-2.1-2.1-2.1-2.6c0-0.6,0.5-1.1,1.1-1.1c0.4,0,0.7,0.4,0.9,0.7c0.2-0.3,0.6-0.7,0.9-0.7
			c0.6,0,1.1,0.5,1.1,1.1C342.2,1.8,340.1,3.9,340.1,3.9z"/>
		<path fill="#09CF6D" d="M340.2,3.9c0,0,2.1-2.1,2.6-2.1c0.6,0,1.1,0.5,1.1,1.1c0,0.4-0.4,0.7-0.7,0.9c0.3,0.2,0.7,0.6,0.7,0.9
			c0,0.6-0.5,1.1-1.1,1.1C342.2,6,340.2,3.9,340.2,3.9z"/>
		<path fill="#09CF6D" d="M340.1,3.9c0,0-2.1,2.1-2.6,2.1c-0.6,0-1.1-0.5-1.1-1.1c0-0.4,0.4-0.7,0.7-0.9c-0.3-0.2-0.7-0.6-0.7-0.9
			c0-0.6,0.5-1.1,1.1-1.1C338,1.9,340.1,3.9,340.1,3.9z"/>
	</g>
	<g>
		<path fill="#09CF6D" d="M351.7,3.9c0,0-2.1-2.1-2.1-2.6c0-0.6,0.5-1.1,1.1-1.1c0.4,0,0.7,0.4,0.9,0.7c0.2-0.3,0.6-0.7,0.9-0.7
			c0.6,0,1.1,0.5,1.1,1.1C353.8,1.8,351.7,3.9,351.7,3.9z"/>
		<path fill="#09CF6D" d="M351.8,3.9c0,0,2.1-2.1,2.6-2.1c0.6,0,1.1,0.5,1.1,1.1c0,0.4-0.4,0.7-0.7,0.9c0.3,0.2,0.7,0.6,0.7,0.9
			c0,0.6-0.5,1.1-1.1,1.1C353.8,6,351.8,3.9,351.8,3.9z"/>
		<path fill="#09CF6D" d="M351.6,3.9c0,0-2.1,2.1-2.6,2.1c-0.6,0-1.1-0.5-1.1-1.1c0-0.4,0.4-0.7,0.7-0.9c-0.3-0.2-0.7-0.6-0.7-0.9
			c0-0.6,0.5-1.1,1.1-1.1C349.6,1.9,351.6,3.9,351.6,3.9z"/>
	</g>
	<g>
		<path fill="#09CF6D" d="M363.3,3.9c0,0-2.1-2.1-2.1-2.6c0-0.6,0.5-1.1,1.1-1.1c0.4,0,0.7,0.4,0.9,0.7c0.2-0.3,0.6-0.7,0.9-0.7
			c0.6,0,1.1,0.5,1.1,1.1C365.4,1.8,363.3,3.9,363.3,3.9z"/>
		<path fill="#09CF6D" d="M363.4,3.9c0,0,2.1-2.1,2.6-2.1c0.6,0,1.1,0.5,1.1,1.1c0,0.4-0.4,0.7-0.7,0.9c0.3,0.2,0.7,0.6,0.7,0.9
			c0,0.6-0.5,1.1-1.1,1.1C365.4,6,363.4,3.9,363.4,3.9z"/>
		<path fill="#09CF6D" d="M363.2,3.9c0,0-2.1,2.1-2.6,2.1c-0.6,0-1.1-0.5-1.1-1.1c0-0.4,0.4-0.7,0.7-0.9c-0.3-0.2-0.7-0.6-0.7-0.9
			c0-0.6,0.5-1.1,1.1-1.1C361.2,1.9,363.2,3.9,363.2,3.9z"/>
	</g>
	<g>
		<path fill="#09CF6D" d="M374.9,3.9c0,0-2.1-2.1-2.1-2.6c0-0.6,0.5-1.1,1.1-1.1c0.4,0,0.7,0.4,0.9,0.7c0.2-0.3,0.6-0.7,0.9-0.7
			c0.6,0,1.1,0.5,1.1,1.1C377,1.8,374.9,3.9,374.9,3.9z"/>
		<path fill="#09CF6D" d="M375,3.9c0,0,2.1-2.1,2.6-2.1c0.6,0,1.1,0.5,1.1,1.1c0,0.4-0.4,0.7-0.7,0.9c0.3,0.2,0.7,0.6,0.7,0.9
			c0,0.6-0.5,1.1-1.1,1.1C377,6,375,3.9,375,3.9z"/>
		<path fill="#09CF6D" d="M374.8,3.9c0,0-2.1,2.1-2.6,2.1c-0.6,0-1.1-0.5-1.1-1.1c0-0.4,0.4-0.7,0.7-0.9c-0.3-0.2-0.7-0.6-0.7-0.9
			c0-0.6,0.5-1.1,1.1-1.1C372.8,1.9,374.8,3.9,374.8,3.9z"/>
	</g>
	<g>
		<path fill="#09CF6D" d="M386.5,3.9c0,0-2.1-2.1-2.1-2.6c0-0.6,0.5-1.1,1.1-1.1c0.4,0,0.7,0.4,0.9,0.7c0.2-0.3,0.6-0.7,0.9-0.7
			c0.6,0,1.1,0.5,1.1,1.1C388.6,1.8,386.5,3.9,386.5,3.9z"/>
		<path fill="#09CF6D" d="M386.6,3.9c0,0,2.1-2.1,2.6-2.1c0.6,0,1.1,0.5,1.1,1.1c0,0.4-0.4,0.7-0.7,0.9c0.3,0.2,0.7,0.6,0.7,0.9
			c0,0.6-0.5,1.1-1.1,1.1C388.6,6,386.6,3.9,386.6,3.9z"/>
		<path fill="#09CF6D" d="M386.4,3.9c0,0-2.1,2.1-2.6,2.1c-0.6,0-1.1-0.5-1.1-1.1c0-0.4,0.4-0.7,0.7-0.9c-0.3-0.2-0.7-0.6-0.7-0.9
			c0-0.6,0.5-1.1,1.1-1.1C384.4,1.9,386.4,3.9,386.4,3.9z"/>
	</g>
	<g>
		<path fill="#09CF6D" d="M398.1,3.9c0,0-2.1-2.1-2.1-2.6c0-0.6,0.5-1.1,1.1-1.1c0.4,0,0.7,0.4,0.9,0.7c0.2-0.3,0.6-0.7,0.9-0.7
			c0.6,0,1.1,0.5,1.1,1.1C400.2,1.8,398.1,3.9,398.1,3.9z"/>
		<path fill="#09CF6D" d="M398.2,3.9c0,0,2.1-2.1,2.6-2.1c0.6,0,1.1,0.5,1.1,1.1c0,0.4-0.4,0.7-0.7,0.9c0.3,0.2,0.7,0.6,0.7,0.9
			c0,0.6-0.5,1.1-1.1,1.1C400.2,6,398.2,3.9,398.2,3.9z"/>
		<path fill="#09CF6D" d="M398,3.9c0,0-2.1,2.1-2.6,2.1c-0.6,0-1.1-0.5-1.1-1.1c0-0.4,0.4-0.7,0.7-0.9c-0.3-0.2-0.7-0.6-0.7-0.9
			c0-0.6,0.5-1.1,1.1-1.1C396,1.9,398,3.9,398,3.9z"/>
	</g>
	<g>
		<path fill="#09CF6D" d="M409.7,3.9c0,0-2.1-2.1-2.1-2.6c0-0.6,0.5-1.1,1.1-1.1c0.4,0,0.7,0.4,0.9,0.7c0.2-0.3,0.6-0.7,0.9-0.7
			c0.6,0,1.1,0.5,1.1,1.1C411.8,1.8,409.7,3.9,409.7,3.9z"/>
		<path fill="#09CF6D" d="M409.8,3.9c0,0,2.1-2.1,2.6-2.1c0.6,0,1.1,0.5,1.1,1.1c0,0.4-0.4,0.7-0.7,0.9c0.3,0.2,0.7,0.6,0.7,0.9
			c0,0.6-0.5,1.1-1.1,1.1C411.8,6,409.8,3.9,409.8,3.9z"/>
		<path fill="#09CF6D" d="M409.6,3.9c0,0-2.1,2.1-2.6,2.1c-0.6,0-1.1-0.5-1.1-1.1c0-0.4,0.4-0.7,0.7-0.9c-0.3-0.2-0.7-0.6-0.7-0.9
			c0-0.6,0.5-1.1,1.1-1.1C407.6,1.9,409.6,3.9,409.6,3.9z"/>
	</g>
	<g>
		<path fill="#09CF6D" d="M421.3,3.9c0,0-2.1-2.1-2.1-2.6c0-0.6,0.5-1.1,1.1-1.1c0.4,0,0.7,0.4,0.9,0.7c0.2-0.3,0.6-0.7,0.9-0.7
			c0.6,0,1.1,0.5,1.1,1.1C423.3,1.8,421.3,3.9,421.3,3.9z"/>
		<path fill="#09CF6D" d="M421.4,3.9c0,0,2.1-2.1,2.6-2.1c0.6,0,1.1,0.5,1.1,1.1c0,0.4-0.4,0.7-0.7,0.9c0.3,0.2,0.7,0.6,0.7,0.9
			c0,0.6-0.5,1.1-1.1,1.1C423.4,6,421.4,3.9,421.4,3.9z"/>
		<path fill="#09CF6D" d="M421.2,3.9c0,0-2.1,2.1-2.6,2.1c-0.6,0-1.1-0.5-1.1-1.1c0-0.4,0.4-0.7,0.7-0.9c-0.3-0.2-0.7-0.6-0.7-0.9
			c0-0.6,0.5-1.1,1.1-1.1C419.2,1.9,421.2,3.9,421.2,3.9z"/>
	</g>
	<g>
		<path fill="#09CF6D" d="M432.9,3.9c0,0-2.1-2.1-2.1-2.6c0-0.6,0.5-1.1,1.1-1.1c0.4,0,0.7,0.4,0.9,0.7c0.2-0.3,0.6-0.7,0.9-0.7
			c0.6,0,1.1,0.5,1.1,1.1C434.9,1.8,432.9,3.9,432.9,3.9z"/>
		<path fill="#09CF6D" d="M433,3.9c0,0,2.1-2.1,2.6-2.1c0.6,0,1.1,0.5,1.1,1.1c0,0.4-0.4,0.7-0.7,0.9c0.3,0.2,0.7,0.6,0.7,0.9
			c0,0.6-0.5,1.1-1.1,1.1C435,6,433,3.9,433,3.9z"/>
		<path fill="#09CF6D" d="M432.8,3.9c0,0-2.1,2.1-2.6,2.1c-0.6,0-1.1-0.5-1.1-1.1c0-0.4,0.4-0.7,0.7-0.9C429.5,3.7,429,3.4,429,3
			c0-0.6,0.5-1.1,1.1-1.1C430.8,1.9,432.8,3.9,432.8,3.9z"/>
	</g>
	<g>
		<path fill="#09CF6D" d="M444.5,3.9c0,0-2.1-2.1-2.1-2.6c0-0.6,0.5-1.1,1.1-1.1c0.4,0,0.7,0.4,0.9,0.7c0.2-0.3,0.6-0.7,0.9-0.7
			c0.6,0,1.1,0.5,1.1,1.1C446.5,1.8,444.5,3.9,444.5,3.9z"/>
		<path fill="#09CF6D" d="M444.6,3.9c0,0,2.1-2.1,2.6-2.1c0.6,0,1.1,0.5,1.1,1.1c0,0.4-0.4,0.7-0.7,0.9c0.3,0.2,0.7,0.6,0.7,0.9
			c0,0.6-0.5,1.1-1.1,1.1C446.6,6,444.6,3.9,444.6,3.9z"/>
		<path fill="#09CF6D" d="M444.4,3.9c0,0-2.1,2.1-2.6,2.1c-0.6,0-1.1-0.5-1.1-1.1c0-0.4,0.4-0.7,0.7-0.9c-0.3-0.2-0.7-0.6-0.7-0.9
			c0-0.6,0.5-1.1,1.1-1.1C442.4,1.9,444.4,3.9,444.4,3.9z"/>
	</g>
	<g>
		<path fill="#09CF6D" d="M456.1,3.9c0,0-2.1-2.1-2.1-2.6c0-0.6,0.5-1.1,1.1-1.1c0.4,0,0.7,0.4,0.9,0.7c0.2-0.3,0.6-0.7,0.9-0.7
			c0.6,0,1.1,0.5,1.1,1.1C458.1,1.8,456.1,3.9,456.1,3.9z"/>
		<path fill="#09CF6D" d="M456.1,3.9c0,0,2.1-2.1,2.6-2.1c0.6,0,1.1,0.5,1.1,1.1c0,0.4-0.4,0.7-0.7,0.9c0.3,0.2,0.7,0.6,0.7,0.9
			c0,0.6-0.5,1.1-1.1,1.1C458.2,6,456.1,3.9,456.1,3.9z"/>
		<path fill="#09CF6D" d="M456,3.9c0,0-2.1,2.1-2.6,2.1c-0.6,0-1.1-0.5-1.1-1.1c0-0.4,0.4-0.7,0.7-0.9c-0.3-0.2-0.7-0.6-0.7-0.9
			c0-0.6,0.5-1.1,1.1-1.1C454,1.9,456,3.9,456,3.9z"/>
	</g>
	<g>
		<path fill="#09CF6D" d="M467.7,3.9c0,0-2.1-2.1-2.1-2.6c0-0.6,0.5-1.1,1.1-1.1c0.4,0,0.7,0.4,0.9,0.7c0.2-0.3,0.6-0.7,0.9-0.7
			c0.6,0,1.1,0.5,1.1,1.1C469.7,1.8,467.7,3.9,467.7,3.9z"/>
		<path fill="#09CF6D" d="M467.7,3.9c0,0,2.1-2.1,2.6-2.1c0.6,0,1.1,0.5,1.1,1.1c0,0.4-0.4,0.7-0.7,0.9c0.3,0.2,0.7,0.6,0.7,0.9
			c0,0.6-0.5,1.1-1.1,1.1C469.8,6,467.7,3.9,467.7,3.9z"/>
		<path fill="#09CF6D" d="M467.6,3.9c0,0-2.1,2.1-2.6,2.1c-0.6,0-1.1-0.5-1.1-1.1c0-0.4,0.4-0.7,0.7-0.9c-0.3-0.2-0.7-0.6-0.7-0.9
			c0-0.6,0.5-1.1,1.1-1.1C465.5,1.9,467.6,3.9,467.6,3.9z"/>
	</g>
	<g>
		<path fill="#09CF6D" d="M479.3,3.9c0,0-2.1-2.1-2.1-2.6c0-0.6,0.5-1.1,1.1-1.1c0.4,0,0.7,0.4,0.9,0.7c0.2-0.3,0.6-0.7,0.9-0.7
			c0.6,0,1.1,0.5,1.1,1.1C481.3,1.8,479.3,3.9,479.3,3.9z"/>
		<path fill="#09CF6D" d="M479.3,3.9c0,0,2.1-2.1,2.6-2.1c0.6,0,1.1,0.5,1.1,1.1c0,0.4-0.4,0.7-0.7,0.9c0.3,0.2,0.7,0.6,0.7,0.9
			c0,0.6-0.5,1.1-1.1,1.1C481.4,6,479.3,3.9,479.3,3.9z"/>
		<path fill="#09CF6D" d="M479.2,3.9c0,0-2.1,2.1-2.6,2.1c-0.6,0-1.1-0.5-1.1-1.1c0-0.4,0.4-0.7,0.7-0.9c-0.3-0.2-0.7-0.6-0.7-0.9
			c0-0.6,0.5-1.1,1.1-1.1C477.1,1.9,479.2,3.9,479.2,3.9z"/>
	</g>
	<g>
		<path fill="#09CF6D" d="M490.9,3.9c0,0-2.1-2.1-2.1-2.6c0-0.6,0.5-1.1,1.1-1.1c0.4,0,0.7,0.4,0.9,0.7c0.2-0.3,0.6-0.7,0.9-0.7
			c0.6,0,1.1,0.5,1.1,1.1C492.9,1.8,490.9,3.9,490.9,3.9z"/>
		<path fill="#09CF6D" d="M490.9,3.9c0,0,2.1-2.1,2.6-2.1c0.6,0,1.1,0.5,1.1,1.1c0,0.4-0.4,0.7-0.7,0.9c0.3,0.2,0.7,0.6,0.7,0.9
			c0,0.6-0.5,1.1-1.1,1.1C493,6,490.9,3.9,490.9,3.9z"/>
		<path fill="#09CF6D" d="M490.8,3.9c0,0-2.1,2.1-2.6,2.1c-0.6,0-1.1-0.5-1.1-1.1c0-0.4,0.4-0.7,0.7-0.9C487.5,3.7,487,3.4,487,3
			c0-0.6,0.5-1.1,1.1-1.1C488.7,1.9,490.8,3.9,490.8,3.9z"/>
	</g>
	<g>
		<path fill="#09CF6D" d="M502.5,3.9c0,0-2.1-2.1-2.1-2.6c0-0.6,0.5-1.1,1.1-1.1c0.4,0,0.7,0.4,0.9,0.7c0.2-0.3,0.6-0.7,0.9-0.7
			c0.6,0,1.1,0.5,1.1,1.1C504.5,1.8,502.5,3.9,502.5,3.9z"/>
		<path fill="#09CF6D" d="M502.5,3.9c0,0,2.1-2.1,2.6-2.1c0.6,0,1.1,0.5,1.1,1.1c0,0.4-0.4,0.7-0.7,0.9c0.3,0.2,0.7,0.6,0.7,0.9
			c0,0.6-0.5,1.1-1.1,1.1C504.6,6,502.5,3.9,502.5,3.9z"/>
		<path fill="#09CF6D" d="M502.4,3.9c0,0-2.1,2.1-2.6,2.1c-0.6,0-1.1-0.5-1.1-1.1c0-0.4,0.4-0.7,0.7-0.9c-0.3-0.2-0.7-0.6-0.7-0.9
			c0-0.6,0.5-1.1,1.1-1.1C500.3,1.9,502.4,3.9,502.4,3.9z"/>
	</g>
	<g>
		<path fill="#09CF6D" d="M514.1,3.9c0,0-2.1-2.1-2.1-2.6c0-0.6,0.5-1.1,1.1-1.1c0.4,0,0.7,0.4,0.9,0.7c0.2-0.3,0.6-0.7,0.9-0.7
			c0.6,0,1.1,0.5,1.1,1.1C516.1,1.8,514.1,3.9,514.1,3.9z"/>
		<path fill="#09CF6D" d="M514.1,3.9c0,0,2.1-2.1,2.6-2.1c0.6,0,1.1,0.5,1.1,1.1c0,0.4-0.4,0.7-0.7,0.9c0.3,0.2,0.7,0.6,0.7,0.9
			c0,0.6-0.5,1.1-1.1,1.1C516.2,6,514.1,3.9,514.1,3.9z"/>
		<path fill="#09CF6D" d="M514,3.9c0,0-2.1,2.1-2.6,2.1c-0.6,0-1.1-0.5-1.1-1.1c0-0.4,0.4-0.7,0.7-0.9c-0.3-0.2-0.7-0.6-0.7-0.9
			c0-0.6,0.5-1.1,1.1-1.1C511.9,1.9,514,3.9,514,3.9z"/>
	</g>
	<g>
		<path fill="#09CF6D" d="M525.7,3.9c0,0-2.1-2.1-2.1-2.6c0-0.6,0.5-1.1,1.1-1.1c0.4,0,0.7,0.4,0.9,0.7c0.2-0.3,0.6-0.7,0.9-0.7
			c0.6,0,1.1,0.5,1.1,1.1C527.7,1.8,525.7,3.9,525.7,3.9z"/>
		<path fill="#09CF6D" d="M525.7,3.9c0,0,2.1-2.1,2.6-2.1c0.6,0,1.1,0.5,1.1,1.1c0,0.4-0.4,0.7-0.7,0.9c0.3,0.2,0.7,0.6,0.7,0.9
			c0,0.6-0.5,1.1-1.1,1.1C527.8,6,525.7,3.9,525.7,3.9z"/>
		<path fill="#09CF6D" d="M525.6,3.9c0,0-2.1,2.1-2.6,2.1c-0.6,0-1.1-0.5-1.1-1.1c0-0.4,0.4-0.7,0.7-0.9c-0.3-0.2-0.7-0.6-0.7-0.9
			c0-0.6,0.5-1.1,1.1-1.1C523.5,1.9,525.6,3.9,525.6,3.9z"/>
	</g>
	<g>
		<path fill="#09CF6D" d="M537.2,3.9c0,0-2.1-2.1-2.1-2.6c0-0.6,0.5-1.1,1.1-1.1c0.4,0,0.7,0.4,0.9,0.7c0.2-0.3,0.6-0.7,0.9-0.7
			c0.6,0,1.1,0.5,1.1,1.1C539.3,1.8,537.2,3.9,537.2,3.9z"/>
		<path fill="#09CF6D" d="M537.3,3.9c0,0,2.1-2.1,2.6-2.1c0.6,0,1.1,0.5,1.1,1.1c0,0.4-0.4,0.7-0.7,0.9c0.3,0.2,0.7,0.6,0.7,0.9
			c0,0.6-0.5,1.1-1.1,1.1C539.4,6,537.3,3.9,537.3,3.9z"/>
		<path fill="#09CF6D" d="M537.2,3.9c0,0-2.1,2.1-2.6,2.1c-0.6,0-1.1-0.5-1.1-1.1c0-0.4,0.4-0.7,0.7-0.9c-0.3-0.2-0.7-0.6-0.7-0.9
			c0-0.6,0.5-1.1,1.1-1.1C535.1,1.9,537.2,3.9,537.2,3.9z"/>
	</g>
	<g>
		<path fill="#09CF6D" d="M548.8,3.9c0,0-2.1-2.1-2.1-2.6c0-0.6,0.5-1.1,1.1-1.1c0.4,0,0.7,0.4,0.9,0.7c0.2-0.3,0.6-0.7,0.9-0.7
			c0.6,0,1.1,0.5,1.1,1.1C550.9,1.8,548.8,3.9,548.8,3.9z"/>
		<path fill="#09CF6D" d="M548.9,3.9c0,0,2.1-2.1,2.6-2.1c0.6,0,1.1,0.5,1.1,1.1c0,0.4-0.4,0.7-0.7,0.9c0.3,0.2,0.7,0.6,0.7,0.9
			c0,0.6-0.5,1.1-1.1,1.1C551,6,548.9,3.9,548.9,3.9z"/>
		<path fill="#09CF6D" d="M548.8,3.9c0,0-2.1,2.1-2.6,2.1c-0.6,0-1.1-0.5-1.1-1.1c0-0.4,0.4-0.7,0.7-0.9C545.4,3.7,545,3.4,545,3
			c0-0.6,0.5-1.1,1.1-1.1C546.7,1.9,548.8,3.9,548.8,3.9z"/>
	</g>
	<g>
		<path fill="#09CF6D" d="M560.4,3.9c0,0-2.1-2.1-2.1-2.6c0-0.6,0.5-1.1,1.1-1.1c0.4,0,0.7,0.4,0.9,0.7c0.2-0.3,0.6-0.7,0.9-0.7
			c0.6,0,1.1,0.5,1.1,1.1C562.5,1.8,560.4,3.9,560.4,3.9z"/>
		<path fill="#09CF6D" d="M560.5,3.9c0,0,2.1-2.1,2.6-2.1c0.6,0,1.1,0.5,1.1,1.1c0,0.4-0.4,0.7-0.7,0.9c0.3,0.2,0.7,0.6,0.7,0.9
			c0,0.6-0.5,1.1-1.1,1.1C562.6,6,560.5,3.9,560.5,3.9z"/>
		<path fill="#09CF6D" d="M560.4,3.9c0,0-2.1,2.1-2.6,2.1c-0.6,0-1.1-0.5-1.1-1.1c0-0.4,0.4-0.7,0.7-0.9c-0.3-0.2-0.7-0.6-0.7-0.9
			c0-0.6,0.5-1.1,1.1-1.1C558.3,1.9,560.4,3.9,560.4,3.9z"/>
	</g>
	<g>
		<path fill="#09CF6D" d="M572,3.9c0,0-2.1-2.1-2.1-2.6c0-0.6,0.5-1.1,1.1-1.1c0.4,0,0.7,0.4,0.9,0.7c0.2-0.3,0.6-0.7,0.9-0.7
			c0.6,0,1.1,0.5,1.1,1.1C574.1,1.8,572,3.9,572,3.9z"/>
		<path fill="#09CF6D" d="M572.1,3.9c0,0,2.1-2.1,2.6-2.1c0.6,0,1.1,0.5,1.1,1.1c0,0.4-0.4,0.7-0.7,0.9c0.3,0.2,0.7,0.6,0.7,0.9
			c0,0.6-0.5,1.1-1.1,1.1C574.2,6,572.1,3.9,572.1,3.9z"/>
		<path fill="#09CF6D" d="M572,3.9c0,0-2.1,2.1-2.6,2.1c-0.6,0-1.1-0.5-1.1-1.1c0-0.4,0.4-0.7,0.7-0.9c-0.3-0.2-0.7-0.6-0.7-0.9
			c0-0.6,0.5-1.1,1.1-1.1C569.9,1.9,572,3.9,572,3.9z"/>
	</g>
	<g>
		<path fill="#09CF6D" d="M583.6,3.9c0,0-2.1-2.1-2.1-2.6c0-0.6,0.5-1.1,1.1-1.1c0.4,0,0.7,0.4,0.9,0.7c0.2-0.3,0.6-0.7,0.9-0.7
			c0.6,0,1.1,0.5,1.1,1.1C585.7,1.8,583.6,3.9,583.6,3.9z"/>
		<path fill="#09CF6D" d="M583.7,3.9c0,0,2.1-2.1,2.6-2.1c0.6,0,1.1,0.5,1.1,1.1c0,0.4-0.4,0.7-0.7,0.9c0.3,0.2,0.7,0.6,0.7,0.9
			c0,0.6-0.5,1.1-1.1,1.1C585.8,6,583.7,3.9,583.7,3.9z"/>
		<path fill="#09CF6D" d="M583.6,3.9c0,0-2.1,2.1-2.6,2.1c-0.6,0-1.1-0.5-1.1-1.1c0-0.4,0.4-0.7,0.7-0.9c-0.3-0.2-0.7-0.6-0.7-0.9
			c0-0.6,0.5-1.1,1.1-1.1C581.5,1.9,583.6,3.9,583.6,3.9z"/>
	</g>
</g>
</svg>
