<?xml version="1.0" encoding="utf-8"?>
<!-- Generator: Adobe Illustrator 29.2.1, SVG Export Plug-In . SVG Version: 9.03 Build 55982)  -->
<svg version="1.1" baseProfile="tiny" id="Layer_1" xmlns="http://www.w3.org/2000/svg" xmlns:xlink="http://www.w3.org/1999/xlink"
	 x="0px" y="0px" viewBox="0 0 355.6 6.2" overflow="visible" xml:space="preserve">
<g>
	<path fill="#09CF6D" d="M3.8,3.9c0,0-2.1-2.1-2.1-2.6c0-0.6,0.5-1.1,1.1-1.1c0.4,0,0.7,0.4,0.9,0.7c0.2-0.3,0.6-0.7,0.9-0.7
		c0.6,0,1.1,0.5,1.1,1.1C5.9,1.9,3.8,3.9,3.8,3.9z"/>
	<path fill="#09CF6D" d="M3.9,4C3.9,4,6,2,6.6,2c0.6,0,1.1,0.5,1.1,1.1C7.7,3.4,7.2,3.8,7,4c0.3,0.2,0.7,0.6,0.7,0.9
		c0,0.6-0.5,1.1-1.1,1.1C6,6.1,3.9,4,3.9,4z"/>
	<path fill="#09CF6D" d="M3.8,4c0,0-2.1,2.1-2.6,2.1C0.5,6.1,0,5.6,0,4.9C0,4.6,0.4,4.2,0.7,4C0.4,3.8,0,3.4,0,3.1
		C0,2.5,0.5,2,1.1,2C1.7,2,3.8,4,3.8,4z"/>
</g>
<g>
	<path fill="#09CF6D" d="M15.4,3.9c0,0-2.1-2.1-2.1-2.6c0-0.6,0.5-1.1,1.1-1.1c0.4,0,0.7,0.4,0.9,0.7c0.2-0.3,0.6-0.7,0.9-0.7
		c0.6,0,1.1,0.5,1.1,1.1C17.5,1.9,15.4,3.9,15.4,3.9z"/>
	<path fill="#09CF6D" d="M15.5,4c0,0,2.1-2.1,2.6-2.1c0.6,0,1.1,0.5,1.1,1.1c0,0.4-0.4,0.7-0.7,0.9c0.3,0.2,0.7,0.6,0.7,0.9
		c0,0.6-0.5,1.1-1.1,1.1C17.6,6.1,15.5,4,15.5,4z"/>
	<path fill="#09CF6D" d="M15.4,4c0,0-2.1,2.1-2.6,2.1c-0.6,0-1.1-0.5-1.1-1.1c0-0.4,0.4-0.7,0.7-0.9c-0.3-0.2-0.7-0.6-0.7-0.9
		c0-0.6,0.5-1.1,1.1-1.1C13.3,2,15.4,4,15.4,4z"/>
</g>
<g>
	<path fill="#09CF6D" d="M27,3.9c0,0-2.1-2.1-2.1-2.6c0-0.6,0.5-1.1,1.1-1.1c0.4,0,0.7,0.4,0.9,0.7c0.2-0.3,0.6-0.7,0.9-0.7
		c0.6,0,1.1,0.5,1.1,1.1C29.1,1.9,27,3.9,27,3.9z"/>
	<path fill="#09CF6D" d="M27.1,4c0,0,2.1-2.1,2.6-2.1c0.6,0,1.1,0.5,1.1,1.1c0,0.4-0.4,0.7-0.7,0.9c0.3,0.2,0.7,0.6,0.7,0.9
		c0,0.6-0.5,1.1-1.1,1.1C29.2,6.1,27.1,4,27.1,4z"/>
	<path fill="#09CF6D" d="M27,4c0,0-2.1,2.1-2.6,2.1c-0.6,0-1.1-0.5-1.1-1.1c0-0.4,0.4-0.7,0.7-0.9c-0.3-0.2-0.7-0.6-0.7-0.9
		c0-0.6,0.5-1.1,1.1-1.1C24.9,2,27,4,27,4z"/>
</g>
<g>
	<path fill="#09CF6D" d="M38.6,3.9c0,0-2.1-2.1-2.1-2.6c0-0.6,0.5-1.1,1.1-1.1c0.4,0,0.7,0.4,0.9,0.7c0.2-0.3,0.6-0.7,0.9-0.7
		c0.6,0,1.1,0.5,1.1,1.1C40.7,1.9,38.6,3.9,38.6,3.9z"/>
	<path fill="#09CF6D" d="M38.7,4c0,0,2.1-2.1,2.6-2.1c0.6,0,1.1,0.5,1.1,1.1c0,0.4-0.4,0.7-0.7,0.9c0.3,0.2,0.7,0.6,0.7,0.9
		c0,0.6-0.5,1.1-1.1,1.1C40.8,6.1,38.7,4,38.7,4z"/>
	<path fill="#09CF6D" d="M38.6,4c0,0-2.1,2.1-2.6,2.1c-0.6,0-1.1-0.5-1.1-1.1c0-0.4,0.4-0.7,0.7-0.9c-0.3-0.2-0.7-0.6-0.7-0.9
		c0-0.6,0.5-1.1,1.1-1.1C36.5,2,38.6,4,38.6,4z"/>
</g>
<g>
	<path fill="#09CF6D" d="M50.2,3.9c0,0-2.1-2.1-2.1-2.6c0-0.6,0.5-1.1,1.1-1.1c0.4,0,0.7,0.4,0.9,0.7c0.2-0.3,0.6-0.7,0.9-0.7
		c0.6,0,1.1,0.5,1.1,1.1C52.3,1.9,50.2,3.9,50.2,3.9z"/>
	<path fill="#09CF6D" d="M50.3,4c0,0,2.1-2.1,2.6-2.1c0.6,0,1.1,0.5,1.1,1.1c0,0.4-0.4,0.7-0.7,0.9c0.3,0.2,0.7,0.6,0.7,0.9
		c0,0.6-0.5,1.1-1.1,1.1C52.4,6.1,50.3,4,50.3,4z"/>
	<path fill="#09CF6D" d="M50.2,4c0,0-2.1,2.1-2.6,2.1c-0.6,0-1.1-0.5-1.1-1.1c0-0.4,0.4-0.7,0.7-0.9c-0.3-0.2-0.7-0.6-0.7-0.9
		c0-0.6,0.5-1.1,1.1-1.1C48.1,2,50.2,4,50.2,4z"/>
</g>
<g>
	<path fill="#09CF6D" d="M61.8,3.9c0,0-2.1-2.1-2.1-2.6c0-0.6,0.5-1.1,1.1-1.1c0.4,0,0.7,0.4,0.9,0.7c0.2-0.3,0.6-0.7,0.9-0.7
		c0.6,0,1.1,0.5,1.1,1.1C63.9,1.9,61.8,3.9,61.8,3.9z"/>
	<path fill="#09CF6D" d="M61.9,4c0,0,2.1-2.1,2.6-2.1c0.6,0,1.1,0.5,1.1,1.1c0,0.4-0.4,0.7-0.7,0.9c0.3,0.2,0.7,0.6,0.7,0.9
		c0,0.6-0.5,1.1-1.1,1.1C63.9,6.1,61.9,4,61.9,4z"/>
	<path fill="#09CF6D" d="M61.8,4c0,0-2.1,2.1-2.6,2.1c-0.6,0-1.1-0.5-1.1-1.1c0-0.4,0.4-0.7,0.7-0.9C58.4,3.8,58,3.4,58,3.1
		C58,2.5,58.5,2,59.1,2C59.7,2,61.8,4,61.8,4z"/>
</g>
<g>
	<path fill="#09CF6D" d="M73.4,3.9c0,0-2.1-2.1-2.1-2.6c0-0.6,0.5-1.1,1.1-1.1c0.4,0,0.7,0.4,0.9,0.7c0.2-0.3,0.6-0.7,0.9-0.7
		c0.6,0,1.1,0.5,1.1,1.1C75.5,1.9,73.4,3.9,73.4,3.9z"/>
	<path fill="#09CF6D" d="M73.5,4c0,0,2.1-2.1,2.6-2.1c0.6,0,1.1,0.5,1.1,1.1c0,0.4-0.4,0.7-0.7,0.9c0.3,0.2,0.7,0.6,0.7,0.9
		c0,0.6-0.5,1.1-1.1,1.1C75.5,6.1,73.5,4,73.5,4z"/>
	<path fill="#09CF6D" d="M73.3,4c0,0-2.1,2.1-2.6,2.1c-0.6,0-1.1-0.5-1.1-1.1c0-0.4,0.4-0.7,0.7-0.9c-0.3-0.2-0.7-0.6-0.7-0.9
		c0-0.6,0.5-1.1,1.1-1.1C71.3,2,73.3,4,73.3,4z"/>
</g>
<g>
	<path fill="#09CF6D" d="M85,3.9c0,0-2.1-2.1-2.1-2.6c0-0.6,0.5-1.1,1.1-1.1c0.4,0,0.7,0.4,0.9,0.7c0.2-0.3,0.6-0.7,0.9-0.7
		c0.6,0,1.1,0.5,1.1,1.1C87.1,1.9,85,3.9,85,3.9z"/>
	<path fill="#09CF6D" d="M85.1,4c0,0,2.1-2.1,2.6-2.1c0.6,0,1.1,0.5,1.1,1.1c0,0.4-0.4,0.7-0.7,0.9c0.3,0.2,0.7,0.6,0.7,0.9
		c0,0.6-0.5,1.1-1.1,1.1C87.1,6.1,85.1,4,85.1,4z"/>
	<path fill="#09CF6D" d="M84.9,4c0,0-2.1,2.1-2.6,2.1c-0.6,0-1.1-0.5-1.1-1.1c0-0.4,0.4-0.7,0.7-0.9c-0.3-0.2-0.7-0.6-0.7-0.9
		c0-0.6,0.5-1.1,1.1-1.1C82.9,2,84.9,4,84.9,4z"/>
</g>
<g>
	<path fill="#09CF6D" d="M96.6,3.9c0,0-2.1-2.1-2.1-2.6c0-0.6,0.5-1.1,1.1-1.1c0.4,0,0.7,0.4,0.9,0.7c0.2-0.3,0.6-0.7,0.9-0.7
		c0.6,0,1.1,0.5,1.1,1.1C98.7,1.9,96.6,3.9,96.6,3.9z"/>
	<path fill="#09CF6D" d="M96.7,4c0,0,2.1-2.1,2.6-2.1c0.6,0,1.1,0.5,1.1,1.1c0,0.4-0.4,0.7-0.7,0.9c0.3,0.2,0.7,0.6,0.7,0.9
		c0,0.6-0.5,1.1-1.1,1.1C98.7,6.1,96.7,4,96.7,4z"/>
	<path fill="#09CF6D" d="M96.5,4c0,0-2.1,2.1-2.6,2.1c-0.6,0-1.1-0.5-1.1-1.1c0-0.4,0.4-0.7,0.7-0.9c-0.3-0.2-0.7-0.6-0.7-0.9
		c0-0.6,0.5-1.1,1.1-1.1C94.5,2,96.5,4,96.5,4z"/>
</g>
<g>
	<path fill="#09CF6D" d="M108.2,3.9c0,0-2.1-2.1-2.1-2.6c0-0.6,0.5-1.1,1.1-1.1c0.4,0,0.7,0.4,0.9,0.7c0.2-0.3,0.6-0.7,0.9-0.7
		c0.6,0,1.1,0.5,1.1,1.1C110.3,1.9,108.2,3.9,108.2,3.9z"/>
	<path fill="#09CF6D" d="M108.3,4c0,0,2.1-2.1,2.6-2.1c0.6,0,1.1,0.5,1.1,1.1c0,0.4-0.4,0.7-0.7,0.9c0.3,0.2,0.7,0.6,0.7,0.9
		c0,0.6-0.5,1.1-1.1,1.1C110.3,6.1,108.3,4,108.3,4z"/>
	<path fill="#09CF6D" d="M108.1,4c0,0-2.1,2.1-2.6,2.1c-0.6,0-1.1-0.5-1.1-1.1c0-0.4,0.4-0.7,0.7-0.9c-0.3-0.2-0.7-0.6-0.7-0.9
		c0-0.6,0.5-1.1,1.1-1.1C106.1,2,108.1,4,108.1,4z"/>
</g>
<g>
	<path fill="#09CF6D" d="M119.8,3.9c0,0-2.1-2.1-2.1-2.6c0-0.6,0.5-1.1,1.1-1.1c0.4,0,0.7,0.4,0.9,0.7c0.2-0.3,0.6-0.7,0.9-0.7
		c0.6,0,1.1,0.5,1.1,1.1C121.9,1.9,119.8,3.9,119.8,3.9z"/>
	<path fill="#09CF6D" d="M119.9,4c0,0,2.1-2.1,2.6-2.1c0.6,0,1.1,0.5,1.1,1.1c0,0.4-0.4,0.7-0.7,0.9c0.3,0.2,0.7,0.6,0.7,0.9
		c0,0.6-0.5,1.1-1.1,1.1C121.9,6.1,119.9,4,119.9,4z"/>
	<path fill="#09CF6D" d="M119.7,4c0,0-2.1,2.1-2.6,2.1c-0.6,0-1.1-0.5-1.1-1.1c0-0.4,0.4-0.7,0.7-0.9c-0.3-0.2-0.7-0.6-0.7-0.9
		c0-0.6,0.5-1.1,1.1-1.1C117.7,2,119.7,4,119.7,4z"/>
</g>
<g>
	<path fill="#09CF6D" d="M131.4,3.9c0,0-2.1-2.1-2.1-2.6c0-0.6,0.5-1.1,1.1-1.1c0.4,0,0.7,0.4,0.9,0.7c0.2-0.3,0.6-0.7,0.9-0.7
		c0.6,0,1.1,0.5,1.1,1.1C133.5,1.9,131.4,3.9,131.4,3.9z"/>
	<path fill="#09CF6D" d="M131.5,4c0,0,2.1-2.1,2.6-2.1c0.6,0,1.1,0.5,1.1,1.1c0,0.4-0.4,0.7-0.7,0.9c0.3,0.2,0.7,0.6,0.7,0.9
		c0,0.6-0.5,1.1-1.1,1.1C133.5,6.1,131.5,4,131.5,4z"/>
	<path fill="#09CF6D" d="M131.3,4c0,0-2.1,2.1-2.6,2.1c-0.6,0-1.1-0.5-1.1-1.1c0-0.4,0.4-0.7,0.7-0.9c-0.3-0.2-0.7-0.6-0.7-0.9
		c0-0.6,0.5-1.1,1.1-1.1C129.3,2,131.3,4,131.3,4z"/>
</g>
<g>
	<path fill="#09CF6D" d="M143,3.9c0,0-2.1-2.1-2.1-2.6c0-0.6,0.5-1.1,1.1-1.1c0.4,0,0.7,0.4,0.9,0.7c0.2-0.3,0.6-0.7,0.9-0.7
		c0.6,0,1.1,0.5,1.1,1.1C145,1.9,143,3.9,143,3.9z"/>
	<path fill="#09CF6D" d="M143.1,4c0,0,2.1-2.1,2.6-2.1c0.6,0,1.1,0.5,1.1,1.1c0,0.4-0.4,0.7-0.7,0.9c0.3,0.2,0.7,0.6,0.7,0.9
		c0,0.6-0.5,1.1-1.1,1.1C145.1,6.1,143.1,4,143.1,4z"/>
	<path fill="#09CF6D" d="M142.9,4c0,0-2.1,2.1-2.6,2.1c-0.6,0-1.1-0.5-1.1-1.1c0-0.4,0.4-0.7,0.7-0.9c-0.3-0.2-0.7-0.6-0.7-0.9
		c0-0.6,0.5-1.1,1.1-1.1C140.9,2,142.9,4,142.9,4z"/>
</g>
<g>
	<path fill="#09CF6D" d="M154.6,3.9c0,0-2.1-2.1-2.1-2.6c0-0.6,0.5-1.1,1.1-1.1c0.4,0,0.7,0.4,0.9,0.7c0.2-0.3,0.6-0.7,0.9-0.7
		c0.6,0,1.1,0.5,1.1,1.1C156.6,1.9,154.6,3.9,154.6,3.9z"/>
	<path fill="#09CF6D" d="M154.7,4c0,0,2.1-2.1,2.6-2.1c0.6,0,1.1,0.5,1.1,1.1c0,0.4-0.4,0.7-0.7,0.9c0.3,0.2,0.7,0.6,0.7,0.9
		c0,0.6-0.5,1.1-1.1,1.1C156.7,6.1,154.7,4,154.7,4z"/>
	<path fill="#09CF6D" d="M154.5,4c0,0-2.1,2.1-2.6,2.1c-0.6,0-1.1-0.5-1.1-1.1c0-0.4,0.4-0.7,0.7-0.9c-0.3-0.2-0.7-0.6-0.7-0.9
		c0-0.6,0.5-1.1,1.1-1.1C152.5,2,154.5,4,154.5,4z"/>
</g>
<g>
	<path fill="#09CF6D" d="M166.2,3.9c0,0-2.1-2.1-2.1-2.6c0-0.6,0.5-1.1,1.1-1.1c0.4,0,0.7,0.4,0.9,0.7c0.2-0.3,0.6-0.7,0.9-0.7
		c0.6,0,1.1,0.5,1.1,1.1C168.2,1.9,166.2,3.9,166.2,3.9z"/>
	<path fill="#09CF6D" d="M166.3,4c0,0,2.1-2.1,2.6-2.1c0.6,0,1.1,0.5,1.1,1.1c0,0.4-0.4,0.7-0.7,0.9c0.3,0.2,0.7,0.6,0.7,0.9
		c0,0.6-0.5,1.1-1.1,1.1C168.3,6.1,166.3,4,166.3,4z"/>
	<path fill="#09CF6D" d="M166.1,4c0,0-2.1,2.1-2.6,2.1c-0.6,0-1.1-0.5-1.1-1.1c0-0.4,0.4-0.7,0.7-0.9c-0.3-0.2-0.7-0.6-0.7-0.9
		c0-0.6,0.5-1.1,1.1-1.1C164.1,2,166.1,4,166.1,4z"/>
</g>
<g>
	<path fill="#09CF6D" d="M177.8,3.9c0,0-2.1-2.1-2.1-2.6c0-0.6,0.5-1.1,1.1-1.1c0.4,0,0.7,0.4,0.9,0.7c0.2-0.3,0.6-0.7,0.9-0.7
		c0.6,0,1.1,0.5,1.1,1.1C179.8,1.9,177.8,3.9,177.8,3.9z"/>
	<path fill="#09CF6D" d="M177.8,4c0,0,2.1-2.1,2.6-2.1c0.6,0,1.1,0.5,1.1,1.1c0,0.4-0.4,0.7-0.7,0.9c0.3,0.2,0.7,0.6,0.7,0.9
		c0,0.6-0.5,1.1-1.1,1.1C179.9,6.1,177.8,4,177.8,4z"/>
	<path fill="#09CF6D" d="M177.7,4c0,0-2.1,2.1-2.6,2.1c-0.6,0-1.1-0.5-1.1-1.1c0-0.4,0.4-0.7,0.7-0.9c-0.3-0.2-0.7-0.6-0.7-0.9
		c0-0.6,0.5-1.1,1.1-1.1C175.7,2,177.7,4,177.7,4z"/>
</g>
<g>
	<path fill="#09CF6D" d="M189.4,3.9c0,0-2.1-2.1-2.1-2.6c0-0.6,0.5-1.1,1.1-1.1c0.4,0,0.7,0.4,0.9,0.7c0.2-0.3,0.6-0.7,0.9-0.7
		c0.6,0,1.1,0.5,1.1,1.1C191.4,1.9,189.4,3.9,189.4,3.9z"/>
	<path fill="#09CF6D" d="M189.4,4c0,0,2.1-2.1,2.6-2.1c0.6,0,1.1,0.5,1.1,1.1c0,0.4-0.4,0.7-0.7,0.9c0.3,0.2,0.7,0.6,0.7,0.9
		c0,0.6-0.5,1.1-1.1,1.1C191.5,6.1,189.4,4,189.4,4z"/>
	<path fill="#09CF6D" d="M189.3,4c0,0-2.1,2.1-2.6,2.1c-0.6,0-1.1-0.5-1.1-1.1c0-0.4,0.4-0.7,0.7-0.9c-0.3-0.2-0.7-0.6-0.7-0.9
		c0-0.6,0.5-1.1,1.1-1.1C187.2,2,189.3,4,189.3,4z"/>
</g>
<g>
	<path fill="#09CF6D" d="M201,3.9c0,0-2.1-2.1-2.1-2.6c0-0.6,0.5-1.1,1.1-1.1c0.4,0,0.7,0.4,0.9,0.7c0.2-0.3,0.6-0.7,0.9-0.7
		c0.6,0,1.1,0.5,1.1,1.1C203,1.9,201,3.9,201,3.9z"/>
	<path fill="#09CF6D" d="M201,4c0,0,2.1-2.1,2.6-2.1c0.6,0,1.1,0.5,1.1,1.1c0,0.4-0.4,0.7-0.7,0.9c0.3,0.2,0.7,0.6,0.7,0.9
		c0,0.6-0.5,1.1-1.1,1.1C203.1,6.1,201,4,201,4z"/>
	<path fill="#09CF6D" d="M200.9,4c0,0-2.1,2.1-2.6,2.1c-0.6,0-1.1-0.5-1.1-1.1c0-0.4,0.4-0.7,0.7-0.9c-0.3-0.2-0.7-0.6-0.7-0.9
		c0-0.6,0.5-1.1,1.1-1.1C198.8,2,200.9,4,200.9,4z"/>
</g>
<g>
	<path fill="#09CF6D" d="M212.6,3.9c0,0-2.1-2.1-2.1-2.6c0-0.6,0.5-1.1,1.1-1.1c0.4,0,0.7,0.4,0.9,0.7c0.2-0.3,0.6-0.7,0.9-0.7
		c0.6,0,1.1,0.5,1.1,1.1C214.6,1.9,212.6,3.9,212.6,3.9z"/>
	<path fill="#09CF6D" d="M212.6,4c0,0,2.1-2.1,2.6-2.1c0.6,0,1.1,0.5,1.1,1.1c0,0.4-0.4,0.7-0.7,0.9c0.3,0.2,0.7,0.6,0.7,0.9
		c0,0.6-0.5,1.1-1.1,1.1C214.7,6.1,212.6,4,212.6,4z"/>
	<path fill="#09CF6D" d="M212.5,4c0,0-2.1,2.1-2.6,2.1c-0.6,0-1.1-0.5-1.1-1.1c0-0.4,0.4-0.7,0.7-0.9c-0.3-0.2-0.7-0.6-0.7-0.9
		c0-0.6,0.5-1.1,1.1-1.1C210.4,2,212.5,4,212.5,4z"/>
</g>
<g>
	<path fill="#09CF6D" d="M224.2,3.9c0,0-2.1-2.1-2.1-2.6c0-0.6,0.5-1.1,1.1-1.1c0.4,0,0.7,0.4,0.9,0.7c0.2-0.3,0.6-0.7,0.9-0.7
		c0.6,0,1.1,0.5,1.1,1.1C226.2,1.9,224.2,3.9,224.2,3.9z"/>
	<path fill="#09CF6D" d="M224.2,4c0,0,2.1-2.1,2.6-2.1c0.6,0,1.1,0.5,1.1,1.1c0,0.4-0.4,0.7-0.7,0.9c0.3,0.2,0.7,0.6,0.7,0.9
		c0,0.6-0.5,1.1-1.1,1.1C226.3,6.1,224.2,4,224.2,4z"/>
	<path fill="#09CF6D" d="M224.1,4c0,0-2.1,2.1-2.6,2.1c-0.6,0-1.1-0.5-1.1-1.1c0-0.4,0.4-0.7,0.7-0.9c-0.3-0.2-0.7-0.6-0.7-0.9
		c0-0.6,0.5-1.1,1.1-1.1C222,2,224.1,4,224.1,4z"/>
</g>
<g>
	<path fill="#09CF6D" d="M235.8,3.9c0,0-2.1-2.1-2.1-2.6c0-0.6,0.5-1.1,1.1-1.1c0.4,0,0.7,0.4,0.9,0.7c0.2-0.3,0.6-0.7,0.9-0.7
		c0.6,0,1.1,0.5,1.1,1.1C237.8,1.9,235.8,3.9,235.8,3.9z"/>
	<path fill="#09CF6D" d="M235.8,4c0,0,2.1-2.1,2.6-2.1c0.6,0,1.1,0.5,1.1,1.1c0,0.4-0.4,0.7-0.7,0.9c0.3,0.2,0.7,0.6,0.7,0.9
		c0,0.6-0.5,1.1-1.1,1.1C237.9,6.1,235.8,4,235.8,4z"/>
	<path fill="#09CF6D" d="M235.7,4c0,0-2.1,2.1-2.6,2.1c-0.6,0-1.1-0.5-1.1-1.1c0-0.4,0.4-0.7,0.7-0.9c-0.3-0.2-0.7-0.6-0.7-0.9
		c0-0.6,0.5-1.1,1.1-1.1C233.6,2,235.7,4,235.7,4z"/>
</g>
<g>
	<path fill="#09CF6D" d="M247.4,3.9c0,0-2.1-2.1-2.1-2.6c0-0.6,0.5-1.1,1.1-1.1c0.4,0,0.7,0.4,0.9,0.7c0.2-0.3,0.6-0.7,0.9-0.7
		c0.6,0,1.1,0.5,1.1,1.1C249.4,1.9,247.4,3.9,247.4,3.9z"/>
	<path fill="#09CF6D" d="M247.4,4c0,0,2.1-2.1,2.6-2.1c0.6,0,1.1,0.5,1.1,1.1c0,0.4-0.4,0.7-0.7,0.9c0.3,0.2,0.7,0.6,0.7,0.9
		c0,0.6-0.5,1.1-1.1,1.1C249.5,6.1,247.4,4,247.4,4z"/>
	<path fill="#09CF6D" d="M247.3,4c0,0-2.1,2.1-2.6,2.1c-0.6,0-1.1-0.5-1.1-1.1c0-0.4,0.4-0.7,0.7-0.9c-0.3-0.2-0.7-0.6-0.7-0.9
		c0-0.6,0.5-1.1,1.1-1.1C245.2,2,247.3,4,247.3,4z"/>
</g>
<g>
	<path fill="#09CF6D" d="M258.9,3.9c0,0-2.1-2.1-2.1-2.6c0-0.6,0.5-1.1,1.1-1.1c0.4,0,0.7,0.4,0.9,0.7c0.2-0.3,0.6-0.7,0.9-0.7
		c0.6,0,1.1,0.5,1.1,1.1C261,1.9,258.9,3.9,258.9,3.9z"/>
	<path fill="#09CF6D" d="M259,4c0,0,2.1-2.1,2.6-2.1c0.6,0,1.1,0.5,1.1,1.1c0,0.4-0.4,0.7-0.7,0.9c0.3,0.2,0.7,0.6,0.7,0.9
		c0,0.6-0.5,1.1-1.1,1.1C261.1,6.1,259,4,259,4z"/>
	<path fill="#09CF6D" d="M258.9,4c0,0-2.1,2.1-2.6,2.1c-0.6,0-1.1-0.5-1.1-1.1c0-0.4,0.4-0.7,0.7-0.9c-0.3-0.2-0.7-0.6-0.7-0.9
		c0-0.6,0.5-1.1,1.1-1.1C256.8,2,258.9,4,258.9,4z"/>
</g>
<g>
	<path fill="#09CF6D" d="M270.5,3.9c0,0-2.1-2.1-2.1-2.6c0-0.6,0.5-1.1,1.1-1.1c0.4,0,0.7,0.4,0.9,0.7c0.2-0.3,0.6-0.7,0.9-0.7
		c0.6,0,1.1,0.5,1.1,1.1C272.6,1.9,270.5,3.9,270.5,3.9z"/>
	<path fill="#09CF6D" d="M270.6,4c0,0,2.1-2.1,2.6-2.1c0.6,0,1.1,0.5,1.1,1.1c0,0.4-0.4,0.7-0.7,0.9c0.3,0.2,0.7,0.6,0.7,0.9
		c0,0.6-0.5,1.1-1.1,1.1C272.7,6.1,270.6,4,270.6,4z"/>
	<path fill="#09CF6D" d="M270.5,4c0,0-2.1,2.1-2.6,2.1c-0.6,0-1.1-0.5-1.1-1.1c0-0.4,0.4-0.7,0.7-0.9c-0.3-0.2-0.7-0.6-0.7-0.9
		c0-0.6,0.5-1.1,1.1-1.1C268.4,2,270.5,4,270.5,4z"/>
</g>
<g>
	<path fill="#09CF6D" d="M282.1,3.9c0,0-2.1-2.1-2.1-2.6c0-0.6,0.5-1.1,1.1-1.1c0.4,0,0.7,0.4,0.9,0.7c0.2-0.3,0.6-0.7,0.9-0.7
		c0.6,0,1.1,0.5,1.1,1.1C284.2,1.9,282.1,3.9,282.1,3.9z"/>
	<path fill="#09CF6D" d="M282.2,4c0,0,2.1-2.1,2.6-2.1c0.6,0,1.1,0.5,1.1,1.1c0,0.4-0.4,0.7-0.7,0.9c0.3,0.2,0.7,0.6,0.7,0.9
		c0,0.6-0.5,1.1-1.1,1.1C284.3,6.1,282.2,4,282.2,4z"/>
	<path fill="#09CF6D" d="M282.1,4c0,0-2.1,2.1-2.6,2.1c-0.6,0-1.1-0.5-1.1-1.1c0-0.4,0.4-0.7,0.7-0.9c-0.3-0.2-0.7-0.6-0.7-0.9
		c0-0.6,0.5-1.1,1.1-1.1C280,2,282.1,4,282.1,4z"/>
</g>
<g>
	<path fill="#09CF6D" d="M293.7,3.9c0,0-2.1-2.1-2.1-2.6c0-0.6,0.5-1.1,1.1-1.1c0.4,0,0.7,0.4,0.9,0.7c0.2-0.3,0.6-0.7,0.9-0.7
		c0.6,0,1.1,0.5,1.1,1.1C295.8,1.9,293.7,3.9,293.7,3.9z"/>
	<path fill="#09CF6D" d="M293.8,4c0,0,2.1-2.1,2.6-2.1c0.6,0,1.1,0.5,1.1,1.1c0,0.4-0.4,0.7-0.7,0.9c0.3,0.2,0.7,0.6,0.7,0.9
		c0,0.6-0.5,1.1-1.1,1.1C295.9,6.1,293.8,4,293.8,4z"/>
	<path fill="#09CF6D" d="M293.7,4c0,0-2.1,2.1-2.6,2.1c-0.6,0-1.1-0.5-1.1-1.1c0-0.4,0.4-0.7,0.7-0.9c-0.3-0.2-0.7-0.6-0.7-0.9
		c0-0.6,0.5-1.1,1.1-1.1C291.6,2,293.7,4,293.7,4z"/>
</g>
<g>
	<path fill="#09CF6D" d="M305.3,3.9c0,0-2.1-2.1-2.1-2.6c0-0.6,0.5-1.1,1.1-1.1c0.4,0,0.7,0.4,0.9,0.7c0.2-0.3,0.6-0.7,0.9-0.7
		c0.6,0,1.1,0.5,1.1,1.1C307.4,1.9,305.3,3.9,305.3,3.9z"/>
	<path fill="#09CF6D" d="M305.4,4c0,0,2.1-2.1,2.6-2.1c0.6,0,1.1,0.5,1.1,1.1c0,0.4-0.4,0.7-0.7,0.9c0.3,0.2,0.7,0.6,0.7,0.9
		c0,0.6-0.5,1.1-1.1,1.1C307.5,6.1,305.4,4,305.4,4z"/>
	<path fill="#09CF6D" d="M305.3,4c0,0-2.1,2.1-2.6,2.1c-0.6,0-1.1-0.5-1.1-1.1c0-0.4,0.4-0.7,0.7-0.9c-0.3-0.2-0.7-0.6-0.7-0.9
		c0-0.6,0.5-1.1,1.1-1.1C303.2,2,305.3,4,305.3,4z"/>
</g>
<g>
	<path fill="#09CF6D" d="M316.9,3.9c0,0-2.1-2.1-2.1-2.6c0-0.6,0.5-1.1,1.1-1.1c0.4,0,0.7,0.4,0.9,0.7c0.2-0.3,0.6-0.7,0.9-0.7
		c0.6,0,1.1,0.5,1.1,1.1C319,1.9,316.9,3.9,316.9,3.9z"/>
	<path fill="#09CF6D" d="M317,4c0,0,2.1-2.1,2.6-2.1c0.6,0,1.1,0.5,1.1,1.1c0,0.4-0.4,0.7-0.7,0.9c0.3,0.2,0.7,0.6,0.7,0.9
		c0,0.6-0.5,1.1-1.1,1.1C319.1,6.1,317,4,317,4z"/>
	<path fill="#09CF6D" d="M316.9,4c0,0-2.1,2.1-2.6,2.1c-0.6,0-1.1-0.5-1.1-1.1c0-0.4,0.4-0.7,0.7-0.9c-0.3-0.2-0.7-0.6-0.7-0.9
		c0-0.6,0.5-1.1,1.1-1.1C314.8,2,316.9,4,316.9,4z"/>
</g>
<g>
	<path fill="#09CF6D" d="M328.5,3.9c0,0-2.1-2.1-2.1-2.6c0-0.6,0.5-1.1,1.1-1.1c0.4,0,0.7,0.4,0.9,0.7c0.2-0.3,0.6-0.7,0.9-0.7
		c0.6,0,1.1,0.5,1.1,1.1C330.6,1.9,328.5,3.9,328.5,3.9z"/>
	<path fill="#09CF6D" d="M328.6,4c0,0,2.1-2.1,2.6-2.1c0.6,0,1.1,0.5,1.1,1.1c0,0.4-0.4,0.7-0.7,0.9c0.3,0.2,0.7,0.6,0.7,0.9
		c0,0.6-0.5,1.1-1.1,1.1C330.7,6.1,328.6,4,328.6,4z"/>
	<path fill="#09CF6D" d="M328.5,4c0,0-2.1,2.1-2.6,2.1c-0.6,0-1.1-0.5-1.1-1.1c0-0.4,0.4-0.7,0.7-0.9c-0.3-0.2-0.7-0.6-0.7-0.9
		c0-0.6,0.5-1.1,1.1-1.1C326.4,2,328.5,4,328.5,4z"/>
</g>
<g>
	<path fill="#09CF6D" d="M340.1,3.9c0,0-2.1-2.1-2.1-2.6c0-0.6,0.5-1.1,1.1-1.1c0.4,0,0.7,0.4,0.9,0.7c0.2-0.3,0.6-0.7,0.9-0.7
		c0.6,0,1.1,0.5,1.1,1.1C342.2,1.9,340.1,3.9,340.1,3.9z"/>
	<path fill="#09CF6D" d="M340.2,4c0,0,2.1-2.1,2.6-2.1c0.6,0,1.1,0.5,1.1,1.1c0,0.4-0.4,0.7-0.7,0.9c0.3,0.2,0.7,0.6,0.7,0.9
		c0,0.6-0.5,1.1-1.1,1.1C342.2,6.1,340.2,4,340.2,4z"/>
	<path fill="#09CF6D" d="M340.1,4c0,0-2.1,2.1-2.6,2.1c-0.6,0-1.1-0.5-1.1-1.1c0-0.4,0.4-0.7,0.7-0.9c-0.3-0.2-0.7-0.6-0.7-0.9
		c0-0.6,0.5-1.1,1.1-1.1C338,2,340.1,4,340.1,4z"/>
</g>
<g>
	<path fill="#09CF6D" d="M351.7,3.9c0,0-2.1-2.1-2.1-2.6c0-0.6,0.5-1.1,1.1-1.1c0.4,0,0.7,0.4,0.9,0.7c0.2-0.3,0.6-0.7,0.9-0.7
		c0.6,0,1.1,0.5,1.1,1.1C353.8,1.9,351.7,3.9,351.7,3.9z"/>
	<path fill="#09CF6D" d="M351.8,4c0,0,2.1-2.1,2.6-2.1c0.6,0,1.1,0.5,1.1,1.1c0,0.4-0.4,0.7-0.7,0.9c0.3,0.2,0.7,0.6,0.7,0.9
		c0,0.6-0.5,1.1-1.1,1.1C353.8,6.1,351.8,4,351.8,4z"/>
	<path fill="#09CF6D" d="M351.6,4c0,0-2.1,2.1-2.6,2.1c-0.6,0-1.1-0.5-1.1-1.1c0-0.4,0.4-0.7,0.7-0.9c-0.3-0.2-0.7-0.6-0.7-0.9
		c0-0.6,0.5-1.1,1.1-1.1C349.6,2,351.6,4,351.6,4z"/>
</g>
</svg>
