<?xml version="1.0" encoding="utf-8"?>
<!-- Generator: Adobe Illustrator 29.2.1, SVG Export Plug-In . SVG Version: 9.03 Build 55982)  -->
<svg version="1.1" baseProfile="tiny" id="Layer_1" xmlns="http://www.w3.org/2000/svg" xmlns:xlink="http://www.w3.org/1999/xlink"
	 x="0px" y="0px" viewBox="0 0 379 155.5" overflow="visible" xml:space="preserve">
<rect id="_x3C_Path_x3E__opacity:70_00000139275361675325964380000011852315350965698971_" y="0" fill="#F7D21E" width="2" height="155.5"/>
<path id="_x3C_Compound_Path_x3E__opacity:30_00000021821024751702887500000006655914144619592328_" fill="#09CF6D" d="M378,1v23.3
	l-2.9,1.2l-0.6,0.3v0.7v100v0.7l0.6,0.3l2.9,1.2v25.8H4.5V1H378 M379,0H3.5v155.5H379V128l-3.5-1.5v-100L379,25V0L379,0z"/>
<g>
	<g>
		<path fill="#09CF6D" d="M361.9,26.5c0,0-1.3-1.3-1.3-1.7c0-0.4,0.3-0.7,0.7-0.7c0.2,0,0.4,0.3,0.6,0.4c0.1-0.2,0.4-0.4,0.6-0.4
			c0.4,0,0.7,0.3,0.7,0.7C363.2,25.2,361.9,26.5,361.9,26.5z"/>
		<path fill="#09CF6D" d="M362,26.6c0,0,1.3-1.3,1.7-1.3c0.4,0,0.7,0.3,0.7,0.7c0,0.2-0.3,0.4-0.4,0.6c0.2,0.1,0.4,0.4,0.4,0.6
			c0,0.4-0.3,0.7-0.7,0.7C363.3,27.9,362,26.6,362,26.6z"/>
		<path fill="#09CF6D" d="M361.9,26.6c0,0-1.3,1.3-1.7,1.3c-0.4,0-0.7-0.3-0.7-0.7c0-0.2,0.3-0.4,0.4-0.6c-0.2-0.1-0.4-0.4-0.4-0.6
			c0-0.4,0.3-0.7,0.7-0.7C360.6,25.3,361.9,26.6,361.9,26.6z"/>
	</g>
	<g>
		<path fill="#09CF6D" d="M361.9,33.9c0,0-1.3-1.3-1.3-1.7c0-0.4,0.3-0.7,0.7-0.7c0.2,0,0.4,0.3,0.6,0.4c0.1-0.2,0.4-0.4,0.6-0.4
			c0.4,0,0.7,0.3,0.7,0.7C363.2,32.6,361.9,33.9,361.9,33.9z"/>
		<path fill="#09CF6D" d="M362,33.9c0,0,1.3-1.3,1.7-1.3c0.4,0,0.7,0.3,0.7,0.7c0,0.2-0.3,0.4-0.4,0.6c0.2,0.1,0.4,0.4,0.4,0.6
			c0,0.4-0.3,0.7-0.7,0.7C363.3,35.2,362,33.9,362,33.9z"/>
		<path fill="#09CF6D" d="M361.9,33.9c0,0-1.3,1.3-1.7,1.3c-0.4,0-0.7-0.3-0.7-0.7c0-0.2,0.3-0.4,0.4-0.6c-0.2-0.1-0.4-0.4-0.4-0.6
			c0-0.4,0.3-0.7,0.7-0.7C360.6,32.6,361.9,33.9,361.9,33.9z"/>
	</g>
	<g>
		<path fill="#09CF6D" d="M361.9,41.2c0,0-1.3-1.3-1.3-1.7c0-0.4,0.3-0.7,0.7-0.7c0.2,0,0.4,0.3,0.6,0.4c0.1-0.2,0.4-0.4,0.6-0.4
			c0.4,0,0.7,0.3,0.7,0.7C363.2,39.9,361.9,41.2,361.9,41.2z"/>
		<path fill="#09CF6D" d="M362,41.2c0,0,1.3-1.3,1.7-1.3c0.4,0,0.7,0.3,0.7,0.7c0,0.2-0.3,0.4-0.4,0.6c0.2,0.1,0.4,0.4,0.4,0.6
			c0,0.4-0.3,0.7-0.7,0.7C363.3,42.5,362,41.2,362,41.2z"/>
		<path fill="#09CF6D" d="M361.9,41.2c0,0-1.3,1.3-1.7,1.3c-0.4,0-0.7-0.3-0.7-0.7c0-0.2,0.3-0.4,0.4-0.6c-0.2-0.1-0.4-0.4-0.4-0.6
			c0-0.4,0.3-0.7,0.7-0.7C360.6,39.9,361.9,41.2,361.9,41.2z"/>
	</g>
	<g>
		<path fill="#09CF6D" d="M361.9,48.5c0,0-1.3-1.3-1.3-1.7c0-0.4,0.3-0.7,0.7-0.7c0.2,0,0.4,0.3,0.6,0.4c0.1-0.2,0.4-0.4,0.6-0.4
			c0.4,0,0.7,0.3,0.7,0.7C363.2,47.2,361.9,48.5,361.9,48.5z"/>
		<path fill="#09CF6D" d="M362,48.5c0,0,1.3-1.3,1.7-1.3c0.4,0,0.7,0.3,0.7,0.7c0,0.2-0.3,0.4-0.4,0.6c0.2,0.1,0.4,0.4,0.4,0.6
			c0,0.4-0.3,0.7-0.7,0.7C363.3,49.8,362,48.5,362,48.5z"/>
		<path fill="#09CF6D" d="M361.9,48.5c0,0-1.3,1.3-1.7,1.3c-0.4,0-0.7-0.3-0.7-0.7c0-0.2,0.3-0.4,0.4-0.6c-0.2-0.1-0.4-0.4-0.4-0.6
			c0-0.4,0.3-0.7,0.7-0.7C360.6,47.2,361.9,48.5,361.9,48.5z"/>
	</g>
	<g>
		<path fill="#09CF6D" d="M361.9,55.8c0,0-1.3-1.3-1.3-1.7c0-0.4,0.3-0.7,0.7-0.7c0.2,0,0.4,0.3,0.6,0.4c0.1-0.2,0.4-0.4,0.6-0.4
			c0.4,0,0.7,0.3,0.7,0.7C363.2,54.5,361.9,55.8,361.9,55.8z"/>
		<path fill="#09CF6D" d="M362,55.8c0,0,1.3-1.3,1.7-1.3c0.4,0,0.7,0.3,0.7,0.7c0,0.2-0.3,0.4-0.4,0.6c0.2,0.1,0.4,0.4,0.4,0.6
			c0,0.4-0.3,0.7-0.7,0.7C363.3,57.1,362,55.8,362,55.8z"/>
		<path fill="#09CF6D" d="M361.9,55.8c0,0-1.3,1.3-1.7,1.3c-0.4,0-0.7-0.3-0.7-0.7c0-0.2,0.3-0.4,0.4-0.6c-0.2-0.1-0.4-0.4-0.4-0.6
			c0-0.4,0.3-0.7,0.7-0.7C360.6,54.6,361.9,55.8,361.9,55.8z"/>
	</g>
	<g>
		<path fill="#09CF6D" d="M361.9,63.1c0,0-1.3-1.3-1.3-1.7c0-0.4,0.3-0.7,0.7-0.7c0.2,0,0.4,0.3,0.6,0.4c0.1-0.2,0.4-0.4,0.6-0.4
			c0.4,0,0.7,0.3,0.7,0.7C363.2,61.8,361.9,63.1,361.9,63.1z"/>
		<path fill="#09CF6D" d="M362,63.2c0,0,1.3-1.3,1.7-1.3c0.4,0,0.7,0.3,0.7,0.7c0,0.2-0.3,0.4-0.4,0.6c0.2,0.1,0.4,0.4,0.4,0.6
			c0,0.4-0.3,0.7-0.7,0.7C363.3,64.5,362,63.2,362,63.2z"/>
		<path fill="#09CF6D" d="M361.9,63.2c0,0-1.3,1.3-1.7,1.3c-0.4,0-0.7-0.3-0.7-0.7c0-0.2,0.3-0.4,0.4-0.6c-0.2-0.1-0.4-0.4-0.4-0.6
			c0-0.4,0.3-0.7,0.7-0.7C360.6,61.9,361.9,63.2,361.9,63.2z"/>
	</g>
	<g>
		<path fill="#09CF6D" d="M361.9,70.4c0,0-1.3-1.3-1.3-1.7c0-0.4,0.3-0.7,0.7-0.7c0.2,0,0.4,0.3,0.6,0.4c0.1-0.2,0.4-0.4,0.6-0.4
			c0.4,0,0.7,0.3,0.7,0.7C363.2,69.1,361.9,70.4,361.9,70.4z"/>
		<path fill="#09CF6D" d="M362,70.5c0,0,1.3-1.3,1.7-1.3c0.4,0,0.7,0.3,0.7,0.7c0,0.2-0.3,0.4-0.4,0.6c0.2,0.1,0.4,0.4,0.4,0.6
			c0,0.4-0.3,0.7-0.7,0.7C363.3,71.8,362,70.5,362,70.5z"/>
		<path fill="#09CF6D" d="M361.9,70.5c0,0-1.3,1.3-1.7,1.3c-0.4,0-0.7-0.3-0.7-0.7c0-0.2,0.3-0.4,0.4-0.6c-0.2-0.1-0.4-0.4-0.4-0.6
			c0-0.4,0.3-0.7,0.7-0.7C360.6,69.2,361.9,70.5,361.9,70.5z"/>
	</g>
	<g>
		<path fill="#09CF6D" d="M361.9,77.8c0,0-1.3-1.3-1.3-1.7c0-0.4,0.3-0.7,0.7-0.7c0.2,0,0.4,0.3,0.6,0.4c0.1-0.2,0.4-0.4,0.6-0.4
			c0.4,0,0.7,0.3,0.7,0.7C363.2,76.5,361.9,77.8,361.9,77.8z"/>
		<path fill="#09CF6D" d="M362,77.8c0,0,1.3-1.3,1.7-1.3c0.4,0,0.7,0.3,0.7,0.7c0,0.2-0.3,0.4-0.4,0.6c0.2,0.1,0.4,0.4,0.4,0.6
			c0,0.4-0.3,0.7-0.7,0.7C363.3,79.1,362,77.8,362,77.8z"/>
		<path fill="#09CF6D" d="M361.9,77.8c0,0-1.3,1.3-1.7,1.3c-0.4,0-0.7-0.3-0.7-0.7c0-0.2,0.3-0.4,0.4-0.6c-0.2-0.1-0.4-0.4-0.4-0.6
			c0-0.4,0.3-0.7,0.7-0.7C360.6,76.5,361.9,77.8,361.9,77.8z"/>
	</g>
	<g>
		<path fill="#09CF6D" d="M361.9,85.1c0,0-1.3-1.3-1.3-1.7c0-0.4,0.3-0.7,0.7-0.7c0.2,0,0.4,0.3,0.6,0.4c0.1-0.2,0.4-0.4,0.6-0.4
			c0.4,0,0.7,0.3,0.7,0.7C363.2,83.8,361.9,85.1,361.9,85.1z"/>
		<path fill="#09CF6D" d="M362,85.1c0,0,1.3-1.3,1.7-1.3c0.4,0,0.7,0.3,0.7,0.7c0,0.2-0.3,0.4-0.4,0.6c0.2,0.1,0.4,0.4,0.4,0.6
			c0,0.4-0.3,0.7-0.7,0.7C363.3,86.4,362,85.1,362,85.1z"/>
		<path fill="#09CF6D" d="M361.9,85.1c0,0-1.3,1.3-1.7,1.3c-0.4,0-0.7-0.3-0.7-0.7c0-0.2,0.3-0.4,0.4-0.6c-0.2-0.1-0.4-0.4-0.4-0.6
			c0-0.4,0.3-0.7,0.7-0.7C360.6,83.8,361.9,85.1,361.9,85.1z"/>
	</g>
	<g>
		<path fill="#09CF6D" d="M361.9,92.4c0,0-1.3-1.3-1.3-1.7c0-0.4,0.3-0.7,0.7-0.7c0.2,0,0.4,0.3,0.6,0.4c0.1-0.2,0.4-0.4,0.6-0.4
			c0.4,0,0.7,0.3,0.7,0.7C363.2,91.1,361.9,92.4,361.9,92.4z"/>
		<path fill="#09CF6D" d="M362,92.4c0,0,1.3-1.3,1.7-1.3c0.4,0,0.7,0.3,0.7,0.7c0,0.2-0.3,0.4-0.4,0.6c0.2,0.1,0.4,0.4,0.4,0.6
			c0,0.4-0.3,0.7-0.7,0.7C363.3,93.7,362,92.4,362,92.4z"/>
		<path fill="#09CF6D" d="M361.9,92.4c0,0-1.3,1.3-1.7,1.3c-0.4,0-0.7-0.3-0.7-0.7c0-0.2,0.3-0.4,0.4-0.6c-0.2-0.1-0.4-0.4-0.4-0.6
			c0-0.4,0.3-0.7,0.7-0.7C360.6,91.1,361.9,92.4,361.9,92.4z"/>
	</g>
	<g>
		<path fill="#09CF6D" d="M361.9,99.7c0,0-1.3-1.3-1.3-1.7c0-0.4,0.3-0.7,0.7-0.7c0.2,0,0.4,0.3,0.6,0.4c0.1-0.2,0.4-0.4,0.6-0.4
			c0.4,0,0.7,0.3,0.7,0.7C363.2,98.4,361.9,99.7,361.9,99.7z"/>
		<path fill="#09CF6D" d="M362,99.7c0,0,1.3-1.3,1.7-1.3c0.4,0,0.7,0.3,0.7,0.7c0,0.2-0.3,0.4-0.4,0.6c0.2,0.1,0.4,0.4,0.4,0.6
			c0,0.4-0.3,0.7-0.7,0.7C363.3,101,362,99.7,362,99.7z"/>
		<path fill="#09CF6D" d="M361.9,99.7c0,0-1.3,1.3-1.7,1.3c-0.4,0-0.7-0.3-0.7-0.7c0-0.2,0.3-0.4,0.4-0.6c-0.2-0.1-0.4-0.4-0.4-0.6
			c0-0.4,0.3-0.7,0.7-0.7C360.6,98.4,361.9,99.7,361.9,99.7z"/>
	</g>
	<g>
		<path fill="#09CF6D" d="M361.9,107c0,0-1.3-1.3-1.3-1.7c0-0.4,0.3-0.7,0.7-0.7c0.2,0,0.4,0.3,0.6,0.4c0.1-0.2,0.4-0.4,0.6-0.4
			c0.4,0,0.7,0.3,0.7,0.7C363.2,105.7,361.9,107,361.9,107z"/>
		<path fill="#09CF6D" d="M362,107.1c0,0,1.3-1.3,1.7-1.3c0.4,0,0.7,0.3,0.7,0.7c0,0.2-0.3,0.4-0.4,0.6c0.2,0.1,0.4,0.4,0.4,0.6
			c0,0.4-0.3,0.7-0.7,0.7C363.3,108.4,362,107.1,362,107.1z"/>
		<path fill="#09CF6D" d="M361.9,107.1c0,0-1.3,1.3-1.7,1.3c-0.4,0-0.7-0.3-0.7-0.7c0-0.2,0.3-0.4,0.4-0.6c-0.2-0.1-0.4-0.4-0.4-0.6
			c0-0.4,0.3-0.7,0.7-0.7C360.6,105.8,361.9,107.1,361.9,107.1z"/>
	</g>
	<g>
		<path fill="#09CF6D" d="M361.9,114.3c0,0-1.3-1.3-1.3-1.7c0-0.4,0.3-0.7,0.7-0.7c0.2,0,0.4,0.3,0.6,0.4c0.1-0.2,0.4-0.4,0.6-0.4
			c0.4,0,0.7,0.3,0.7,0.7C363.2,113,361.9,114.3,361.9,114.3z"/>
		<path fill="#09CF6D" d="M362,114.4c0,0,1.3-1.3,1.7-1.3c0.4,0,0.7,0.3,0.7,0.7c0,0.2-0.3,0.4-0.4,0.6c0.2,0.1,0.4,0.4,0.4,0.6
			c0,0.4-0.3,0.7-0.7,0.7C363.3,115.7,362,114.4,362,114.4z"/>
		<path fill="#09CF6D" d="M361.9,114.4c0,0-1.3,1.3-1.7,1.3c-0.4,0-0.7-0.3-0.7-0.7c0-0.2,0.3-0.4,0.4-0.6c-0.2-0.1-0.4-0.4-0.4-0.6
			c0-0.4,0.3-0.7,0.7-0.7C360.6,113.1,361.9,114.4,361.9,114.4z"/>
	</g>
	<g>
		<path fill="#09CF6D" d="M361.9,121.6c0,0-1.3-1.3-1.3-1.7c0-0.4,0.3-0.7,0.7-0.7c0.2,0,0.4,0.3,0.6,0.4c0.1-0.2,0.4-0.4,0.6-0.4
			c0.4,0,0.7,0.3,0.7,0.7C363.2,120.3,361.9,121.6,361.9,121.6z"/>
		<path fill="#09CF6D" d="M362,121.7c0,0,1.3-1.3,1.7-1.3c0.4,0,0.7,0.3,0.7,0.7c0,0.2-0.3,0.4-0.4,0.6c0.2,0.1,0.4,0.4,0.4,0.6
			c0,0.4-0.3,0.7-0.7,0.7C363.3,123,362,121.7,362,121.7z"/>
		<path fill="#09CF6D" d="M361.9,121.7c0,0-1.3,1.3-1.7,1.3c-0.4,0-0.7-0.3-0.7-0.7c0-0.2,0.3-0.4,0.4-0.6c-0.2-0.1-0.4-0.4-0.4-0.6
			c0-0.4,0.3-0.7,0.7-0.7C360.6,120.4,361.9,121.7,361.9,121.7z"/>
	</g>
	<g>
		<path fill="#09CF6D" d="M361.9,129c0,0-1.3-1.3-1.3-1.7c0-0.4,0.3-0.7,0.7-0.7c0.2,0,0.4,0.3,0.6,0.4c0.1-0.2,0.4-0.4,0.6-0.4
			c0.4,0,0.7,0.3,0.7,0.7C363.2,127.7,361.9,129,361.9,129z"/>
		<path fill="#09CF6D" d="M362,129c0,0,1.3-1.3,1.7-1.3c0.4,0,0.7,0.3,0.7,0.7c0,0.2-0.3,0.4-0.4,0.6c0.2,0.1,0.4,0.4,0.4,0.6
			c0,0.4-0.3,0.7-0.7,0.7C363.3,130.3,362,129,362,129z"/>
		<path fill="#09CF6D" d="M361.9,129c0,0-1.3,1.3-1.7,1.3c-0.4,0-0.7-0.3-0.7-0.7c0-0.2,0.3-0.4,0.4-0.6c-0.2-0.1-0.4-0.4-0.4-0.6
			c0-0.4,0.3-0.7,0.7-0.7C360.6,127.7,361.9,129,361.9,129z"/>
	</g>
</g>
</svg>
