<?xml version="1.0" encoding="utf-8"?>
<!-- Generator: Adobe Illustrator 29.2.1, SVG Export Plug-In . SVG Version: 9.03 Build 55982)  -->
<svg version="1.1" baseProfile="tiny" id="Layer_1" xmlns="http://www.w3.org/2000/svg" xmlns:xlink="http://www.w3.org/1999/xlink"
	 x="0px" y="0px" viewBox="0 0 379 155.5" overflow="visible" xml:space="preserve">
<rect id="_x3C_Path_x3E__opacity:100_00000081618444125741933710000006849261402225131410_" y="0" fill="#F7D21E" width="2" height="155.5"/>
<path id="_x3C_Compound_Path_x3E__opacity:100_00000016077546626216557680000015123398824518298036_" fill="#09CF6D" d="M378,1v23.3
	l-2.9,1.2l-0.6,0.3v0.7v100v0.7l0.6,0.3l2.9,1.2v25.8H4.5V1H378 M379,0H3.5v155.5H379V128l-3.5-1.5v-100L379,25V0L379,0z"/>
<g>
	<g>
		<path fill="#09CF6D" d="M361.9,27.1c0,0-1.3-1.3-1.3-1.7c0-0.4,0.3-0.7,0.7-0.7c0.2,0,0.4,0.3,0.6,0.4c0.1-0.2,0.4-0.4,0.6-0.4
			c0.4,0,0.7,0.3,0.7,0.7C363.2,25.8,361.9,27.1,361.9,27.1z"/>
		<path fill="#09CF6D" d="M362,27.1c0,0,1.3-1.3,1.7-1.3c0.4,0,0.7,0.3,0.7,0.7c0,0.2-0.3,0.4-0.4,0.6c0.2,0.1,0.4,0.4,0.4,0.6
			c0,0.4-0.3,0.7-0.7,0.7C363.3,28.4,362,27.1,362,27.1z"/>
		<path fill="#09CF6D" d="M361.9,27.1c0,0-1.3,1.3-1.7,1.3c-0.4,0-0.7-0.3-0.7-0.7c0-0.2,0.3-0.4,0.4-0.6c-0.2-0.1-0.4-0.4-0.4-0.6
			c0-0.4,0.3-0.7,0.7-0.7C360.6,25.8,361.9,27.1,361.9,27.1z"/>
	</g>
	<g>
		<path fill="#09CF6D" d="M361.9,34.4c0,0-1.3-1.3-1.3-1.7c0-0.4,0.3-0.7,0.7-0.7c0.2,0,0.4,0.3,0.6,0.4c0.1-0.2,0.4-0.4,0.6-0.4
			c0.4,0,0.7,0.3,0.7,0.7C363.2,33.1,361.9,34.4,361.9,34.4z"/>
		<path fill="#09CF6D" d="M362,34.4c0,0,1.3-1.3,1.7-1.3c0.4,0,0.7,0.3,0.7,0.7c0,0.2-0.3,0.4-0.4,0.6c0.2,0.1,0.4,0.4,0.4,0.6
			c0,0.4-0.3,0.7-0.7,0.7C363.3,35.7,362,34.4,362,34.4z"/>
		<path fill="#09CF6D" d="M361.9,34.4c0,0-1.3,1.3-1.7,1.3c-0.4,0-0.7-0.3-0.7-0.7c0-0.2,0.3-0.4,0.4-0.6c-0.2-0.1-0.4-0.4-0.4-0.6
			c0-0.4,0.3-0.7,0.7-0.7C360.6,33.1,361.9,34.4,361.9,34.4z"/>
	</g>
	<g>
		<path fill="#09CF6D" d="M361.9,41.7c0,0-1.3-1.3-1.3-1.7c0-0.4,0.3-0.7,0.7-0.7c0.2,0,0.4,0.3,0.6,0.4c0.1-0.2,0.4-0.4,0.6-0.4
			c0.4,0,0.7,0.3,0.7,0.7C363.2,40.4,361.9,41.7,361.9,41.7z"/>
		<path fill="#09CF6D" d="M362,41.7c0,0,1.3-1.3,1.7-1.3c0.4,0,0.7,0.3,0.7,0.7c0,0.2-0.3,0.4-0.4,0.6c0.2,0.1,0.4,0.4,0.4,0.6
			c0,0.4-0.3,0.7-0.7,0.7C363.3,43,362,41.7,362,41.7z"/>
		<path fill="#09CF6D" d="M361.9,41.7c0,0-1.3,1.3-1.7,1.3c-0.4,0-0.7-0.3-0.7-0.7c0-0.2,0.3-0.4,0.4-0.6c-0.2-0.1-0.4-0.4-0.4-0.6
			c0-0.4,0.3-0.7,0.7-0.7C360.6,40.4,361.9,41.7,361.9,41.7z"/>
	</g>
	<g>
		<path fill="#09CF6D" d="M361.9,49c0,0-1.3-1.3-1.3-1.7c0-0.4,0.3-0.7,0.7-0.7c0.2,0,0.4,0.3,0.6,0.4c0.1-0.2,0.4-0.4,0.6-0.4
			c0.4,0,0.7,0.3,0.7,0.7C363.2,47.7,361.9,49,361.9,49z"/>
		<path fill="#09CF6D" d="M362,49.1c0,0,1.3-1.3,1.7-1.3c0.4,0,0.7,0.3,0.7,0.7c0,0.2-0.3,0.4-0.4,0.6c0.2,0.1,0.4,0.4,0.4,0.6
			c0,0.4-0.3,0.7-0.7,0.7C363.3,50.4,362,49.1,362,49.1z"/>
		<path fill="#09CF6D" d="M361.9,49.1c0,0-1.3,1.3-1.7,1.3c-0.4,0-0.7-0.3-0.7-0.7c0-0.2,0.3-0.4,0.4-0.6c-0.2-0.1-0.4-0.4-0.4-0.6
			c0-0.4,0.3-0.7,0.7-0.7C360.6,47.8,361.9,49.1,361.9,49.1z"/>
	</g>
	<g>
		<path fill="#09CF6D" d="M361.9,56.3c0,0-1.3-1.3-1.3-1.7c0-0.4,0.3-0.7,0.7-0.7c0.2,0,0.4,0.3,0.6,0.4c0.1-0.2,0.4-0.4,0.6-0.4
			c0.4,0,0.7,0.3,0.7,0.7C363.2,55,361.9,56.3,361.9,56.3z"/>
		<path fill="#09CF6D" d="M362,56.4c0,0,1.3-1.3,1.7-1.3c0.4,0,0.7,0.3,0.7,0.7c0,0.2-0.3,0.4-0.4,0.6c0.2,0.1,0.4,0.4,0.4,0.6
			c0,0.4-0.3,0.7-0.7,0.7C363.3,57.7,362,56.4,362,56.4z"/>
		<path fill="#09CF6D" d="M361.9,56.4c0,0-1.3,1.3-1.7,1.3c-0.4,0-0.7-0.3-0.7-0.7c0-0.2,0.3-0.4,0.4-0.6c-0.2-0.1-0.4-0.4-0.4-0.6
			c0-0.4,0.3-0.7,0.7-0.7C360.6,55.1,361.9,56.4,361.9,56.4z"/>
	</g>
	<g>
		<path fill="#09CF6D" d="M361.9,63.6c0,0-1.3-1.3-1.3-1.7c0-0.4,0.3-0.7,0.7-0.7c0.2,0,0.4,0.3,0.6,0.4c0.1-0.2,0.4-0.4,0.6-0.4
			c0.4,0,0.7,0.3,0.7,0.7C363.2,62.3,361.9,63.6,361.9,63.6z"/>
		<path fill="#09CF6D" d="M362,63.7c0,0,1.3-1.3,1.7-1.3c0.4,0,0.7,0.3,0.7,0.7c0,0.2-0.3,0.4-0.4,0.6c0.2,0.1,0.4,0.4,0.4,0.6
			c0,0.4-0.3,0.7-0.7,0.7C363.3,65,362,63.7,362,63.7z"/>
		<path fill="#09CF6D" d="M361.9,63.7c0,0-1.3,1.3-1.7,1.3c-0.4,0-0.7-0.3-0.7-0.7c0-0.2,0.3-0.4,0.4-0.6c-0.2-0.1-0.4-0.4-0.4-0.6
			c0-0.4,0.3-0.7,0.7-0.7C360.6,62.4,361.9,63.7,361.9,63.7z"/>
	</g>
	<g>
		<path fill="#09CF6D" d="M361.9,71c0,0-1.3-1.3-1.3-1.7c0-0.4,0.3-0.7,0.7-0.7c0.2,0,0.4,0.3,0.6,0.4c0.1-0.2,0.4-0.4,0.6-0.4
			c0.4,0,0.7,0.3,0.7,0.7C363.2,69.7,361.9,71,361.9,71z"/>
		<path fill="#09CF6D" d="M362,71c0,0,1.3-1.3,1.7-1.3c0.4,0,0.7,0.3,0.7,0.7c0,0.2-0.3,0.4-0.4,0.6c0.2,0.1,0.4,0.4,0.4,0.6
			c0,0.4-0.3,0.7-0.7,0.7C363.3,72.3,362,71,362,71z"/>
		<path fill="#09CF6D" d="M361.9,71c0,0-1.3,1.3-1.7,1.3c-0.4,0-0.7-0.3-0.7-0.7c0-0.2,0.3-0.4,0.4-0.6c-0.2-0.1-0.4-0.4-0.4-0.6
			c0-0.4,0.3-0.7,0.7-0.7C360.6,69.7,361.9,71,361.9,71z"/>
	</g>
	<g>
		<path fill="#09CF6D" d="M361.9,78.3c0,0-1.3-1.3-1.3-1.7c0-0.4,0.3-0.7,0.7-0.7c0.2,0,0.4,0.3,0.6,0.4c0.1-0.2,0.4-0.4,0.6-0.4
			c0.4,0,0.7,0.3,0.7,0.7C363.2,77,361.9,78.3,361.9,78.3z"/>
		<path fill="#09CF6D" d="M362,78.3c0,0,1.3-1.3,1.7-1.3c0.4,0,0.7,0.3,0.7,0.7c0,0.2-0.3,0.4-0.4,0.6c0.2,0.1,0.4,0.4,0.4,0.6
			c0,0.4-0.3,0.7-0.7,0.7C363.3,79.6,362,78.3,362,78.3z"/>
		<path fill="#09CF6D" d="M361.9,78.3c0,0-1.3,1.3-1.7,1.3c-0.4,0-0.7-0.3-0.7-0.7c0-0.2,0.3-0.4,0.4-0.6c-0.2-0.1-0.4-0.4-0.4-0.6
			c0-0.4,0.3-0.7,0.7-0.7C360.6,77,361.9,78.3,361.9,78.3z"/>
	</g>
	<g>
		<path fill="#09CF6D" d="M361.9,85.6c0,0-1.3-1.3-1.3-1.7c0-0.4,0.3-0.7,0.7-0.7c0.2,0,0.4,0.3,0.6,0.4c0.1-0.2,0.4-0.4,0.6-0.4
			c0.4,0,0.7,0.3,0.7,0.7C363.2,84.3,361.9,85.6,361.9,85.6z"/>
		<path fill="#09CF6D" d="M362,85.6c0,0,1.3-1.3,1.7-1.3c0.4,0,0.7,0.3,0.7,0.7c0,0.2-0.3,0.4-0.4,0.6c0.2,0.1,0.4,0.4,0.4,0.6
			c0,0.4-0.3,0.7-0.7,0.7C363.3,86.9,362,85.6,362,85.6z"/>
		<path fill="#09CF6D" d="M361.9,85.6c0,0-1.3,1.3-1.7,1.3c-0.4,0-0.7-0.3-0.7-0.7c0-0.2,0.3-0.4,0.4-0.6c-0.2-0.1-0.4-0.4-0.4-0.6
			c0-0.4,0.3-0.7,0.7-0.7C360.6,84.3,361.9,85.6,361.9,85.6z"/>
	</g>
	<g>
		<path fill="#09CF6D" d="M361.9,92.9c0,0-1.3-1.3-1.3-1.7c0-0.4,0.3-0.7,0.7-0.7c0.2,0,0.4,0.3,0.6,0.4c0.1-0.2,0.4-0.4,0.6-0.4
			c0.4,0,0.7,0.3,0.7,0.7C363.2,91.6,361.9,92.9,361.9,92.9z"/>
		<path fill="#09CF6D" d="M362,92.9c0,0,1.3-1.3,1.7-1.3c0.4,0,0.7,0.3,0.7,0.7c0,0.2-0.3,0.4-0.4,0.6c0.2,0.1,0.4,0.4,0.4,0.6
			c0,0.4-0.3,0.7-0.7,0.7C363.3,94.2,362,92.9,362,92.9z"/>
		<path fill="#09CF6D" d="M361.9,92.9c0,0-1.3,1.3-1.7,1.3c-0.4,0-0.7-0.3-0.7-0.7c0-0.2,0.3-0.4,0.4-0.6c-0.2-0.1-0.4-0.4-0.4-0.6
			c0-0.4,0.3-0.7,0.7-0.7C360.6,91.6,361.9,92.9,361.9,92.9z"/>
	</g>
	<g>
		<path fill="#09CF6D" d="M361.9,100.2c0,0-1.3-1.3-1.3-1.7c0-0.4,0.3-0.7,0.7-0.7c0.2,0,0.4,0.3,0.6,0.4c0.1-0.2,0.4-0.4,0.6-0.4
			c0.4,0,0.7,0.3,0.7,0.7C363.2,98.9,361.9,100.2,361.9,100.2z"/>
		<path fill="#09CF6D" d="M362,100.3c0,0,1.3-1.3,1.7-1.3c0.4,0,0.7,0.3,0.7,0.7c0,0.2-0.3,0.4-0.4,0.6c0.2,0.1,0.4,0.4,0.4,0.6
			c0,0.4-0.3,0.7-0.7,0.7C363.3,101.6,362,100.3,362,100.3z"/>
		<path fill="#09CF6D" d="M361.9,100.3c0,0-1.3,1.3-1.7,1.3c-0.4,0-0.7-0.3-0.7-0.7c0-0.2,0.3-0.4,0.4-0.6c-0.2-0.1-0.4-0.4-0.4-0.6
			c0-0.4,0.3-0.7,0.7-0.7C360.6,99,361.9,100.3,361.9,100.3z"/>
	</g>
	<g>
		<path fill="#09CF6D" d="M361.9,107.5c0,0-1.3-1.3-1.3-1.7c0-0.4,0.3-0.7,0.7-0.7c0.2,0,0.4,0.3,0.6,0.4c0.1-0.2,0.4-0.4,0.6-0.4
			c0.4,0,0.7,0.3,0.7,0.7C363.2,106.2,361.9,107.5,361.9,107.5z"/>
		<path fill="#09CF6D" d="M362,107.6c0,0,1.3-1.3,1.7-1.3c0.4,0,0.7,0.3,0.7,0.7c0,0.2-0.3,0.4-0.4,0.6c0.2,0.1,0.4,0.4,0.4,0.6
			c0,0.4-0.3,0.7-0.7,0.7C363.3,108.9,362,107.6,362,107.6z"/>
		<path fill="#09CF6D" d="M361.9,107.6c0,0-1.3,1.3-1.7,1.3c-0.4,0-0.7-0.3-0.7-0.7c0-0.2,0.3-0.4,0.4-0.6c-0.2-0.1-0.4-0.4-0.4-0.6
			c0-0.4,0.3-0.7,0.7-0.7C360.6,106.3,361.9,107.6,361.9,107.6z"/>
	</g>
	<g>
		<path fill="#09CF6D" d="M361.9,114.8c0,0-1.3-1.3-1.3-1.7c0-0.4,0.3-0.7,0.7-0.7c0.2,0,0.4,0.3,0.6,0.4c0.1-0.2,0.4-0.4,0.6-0.4
			c0.4,0,0.7,0.3,0.7,0.7C363.2,113.5,361.9,114.8,361.9,114.8z"/>
		<path fill="#09CF6D" d="M362,114.9c0,0,1.3-1.3,1.7-1.3c0.4,0,0.7,0.3,0.7,0.7c0,0.2-0.3,0.4-0.4,0.6c0.2,0.1,0.4,0.4,0.4,0.6
			c0,0.4-0.3,0.7-0.7,0.7C363.3,116.2,362,114.9,362,114.9z"/>
		<path fill="#09CF6D" d="M361.9,114.9c0,0-1.3,1.3-1.7,1.3c-0.4,0-0.7-0.3-0.7-0.7c0-0.2,0.3-0.4,0.4-0.6c-0.2-0.1-0.4-0.4-0.4-0.6
			c0-0.4,0.3-0.7,0.7-0.7C360.6,113.6,361.9,114.9,361.9,114.9z"/>
	</g>
	<g>
		<path fill="#09CF6D" d="M361.9,122.2c0,0-1.3-1.3-1.3-1.7c0-0.4,0.3-0.7,0.7-0.7c0.2,0,0.4,0.3,0.6,0.4c0.1-0.2,0.4-0.4,0.6-0.4
			c0.4,0,0.7,0.3,0.7,0.7C363.2,120.9,361.9,122.2,361.9,122.2z"/>
		<path fill="#09CF6D" d="M362,122.2c0,0,1.3-1.3,1.7-1.3c0.4,0,0.7,0.3,0.7,0.7c0,0.2-0.3,0.4-0.4,0.6c0.2,0.1,0.4,0.4,0.4,0.6
			c0,0.4-0.3,0.7-0.7,0.7C363.3,123.5,362,122.2,362,122.2z"/>
		<path fill="#09CF6D" d="M361.9,122.2c0,0-1.3,1.3-1.7,1.3c-0.4,0-0.7-0.3-0.7-0.7c0-0.2,0.3-0.4,0.4-0.6c-0.2-0.1-0.4-0.4-0.4-0.6
			c0-0.4,0.3-0.7,0.7-0.7C360.6,120.9,361.9,122.2,361.9,122.2z"/>
	</g>
	<g>
		<path fill="#09CF6D" d="M361.9,129.5c0,0-1.3-1.3-1.3-1.7c0-0.4,0.3-0.7,0.7-0.7c0.2,0,0.4,0.3,0.6,0.4c0.1-0.2,0.4-0.4,0.6-0.4
			c0.4,0,0.7,0.3,0.7,0.7C363.2,128.2,361.9,129.5,361.9,129.5z"/>
		<path fill="#09CF6D" d="M362,129.5c0,0,1.3-1.3,1.7-1.3c0.4,0,0.7,0.3,0.7,0.7c0,0.2-0.3,0.4-0.4,0.6c0.2,0.1,0.4,0.4,0.4,0.6
			c0,0.4-0.3,0.7-0.7,0.7C363.3,130.8,362,129.5,362,129.5z"/>
		<path fill="#09CF6D" d="M361.9,129.5c0,0-1.3,1.3-1.7,1.3c-0.4,0-0.7-0.3-0.7-0.7c0-0.2,0.3-0.4,0.4-0.6c-0.2-0.1-0.4-0.4-0.4-0.6
			c0-0.4,0.3-0.7,0.7-0.7C360.6,128.2,361.9,129.5,361.9,129.5z"/>
	</g>
</g>
</svg>
