<?xml version="1.0" encoding="utf-8"?>
<!-- Generator: Adobe Illustrator 28.5.0, SVG Export Plug-In . SVG Version: 9.03 Build 54727)  -->
<svg version="1.1" baseProfile="tiny" id="Layer_1" xmlns="http://www.w3.org/2000/svg" xmlns:xlink="http://www.w3.org/1999/xlink"
	 x="0px" y="0px" width="264.7px" height="121.5px" viewBox="0 0 264.7 121.5" overflow="visible" xml:space="preserve">
<rect id="colorstyle:Base_opacity:6" x="80.7" y="-0.1" fill="#FF9E39" width="47.1" height="121.6"/>
<rect id="colorstyle:Base_opacity:7" x="127.8" y="-0.1" fill="#FF9E39" width="56.1" height="121.6"/>
<rect id="colorstyle:Base_opacity:8" x="183.9" y="-0.1" fill="#FF9E39" width="73.1" height="121.6"/>
<rect id="colorstyle:Base_opacity:5" x="49.5" y="-0.1" fill="#FF9E39" width="31.2" height="121.6"/>
<rect id="colorstyle:Base_opacity:4_00000074425190385574753040000015010753120461769112_" x="26.8" y="-0.1" fill="#FF9E39" width="22.7" height="121.6"/>
<rect id="colorstyle:Base_opacity:3" x="9.8" y="-0.1" fill="#FF9E39" width="17" height="121.6"/>
<rect id="colorstyle:Base_opacity:2" x="0" y="-0.1" fill="#FF9E39" width="9.8" height="121.6"/>
<g id="colorstyle:Base_opacity:4">
	<path fill="#FF9E39" d="M261.3,6.6v1.2H261V6.9h-2.1v0.9h-0.3V6.6H261.3z M261,7.8v0.3h-2.1V7.8H261z"/>
	<path fill="#FF9E39" d="M261,8.7V9h-1.2v0.9h1.2v0.3h-2.4V9.9h0.9V9h-0.9V8.7H261z M261.3,9v0.9H261V9H261.3z"/>
	<path fill="#FF9E39" d="M261.3,10.7v1.5H261v-0.6h-2.4v-0.3h2.4v-0.6C261,10.7,261.3,10.7,261.3,10.7z"/>
	<path fill="#FF9E39" d="M261,12.8v0.3h-1.2V14h1.2v0.3h-2.4V14h0.9v-0.9h-0.9v-0.3H261z M261.3,13.1V14H261v-0.9H261.3z"/>
	<path fill="#FF9E39" d="M258.4,14.6v1.5h-0.3v-1.5C258.1,14.6,258.4,14.6,258.4,14.6z"/>
	<path fill="#FF9E39" d="M259,16.7v0.9h-0.3v-0.9H259z M259.2,16.4v0.3h-0.3v-0.3H259.2z M259.8,17.6v0.3h-0.9v-0.3H259.8z
		 M260.1,16.7v0.9h-0.3v-0.9H260.1z M261,16.4v0.3h-0.9v-0.3H261z M261,17.6v0.3h-0.3v-0.3H261z M261.3,16.7v0.9H261v-0.9H261.3z"/>
	<path fill="#FF9E39" d="M259,18.8v0.9h-0.3v-0.9H259z M261,18.5v0.3h-2.1v-0.3H261z M259.2,19.7V20h-0.3v-0.3H259.2z M261,19.7V20
		h-0.3v-0.3H261z M261.3,18.8v0.9H261v-0.9H261.3z"/>
	<path fill="#FF9E39" d="M261.3,20.6v1.2H261v-1h-0.9v0.9h-0.3v-0.3h-0.3v-0.3h0.3v-0.3h-1.2v-0.3L261.3,20.6L261.3,20.6z
		 M259.2,21.7V22h-0.6v-0.3H259.2z M259.5,21.4v0.3h-0.3v-0.3H259.5z M261,21.7V22h-0.9v-0.3H261z"/>
	<path fill="#FF9E39" d="M261.3,22.9v0.3h-2.7v-0.3H261.3z"/>
	<path fill="#FF9E39" d="M261.3,24.1v1.2H261v-0.9h-0.9v0.9h-0.3v-0.9h-1.2v-0.3C258.6,24.1,261.3,24.1,261.3,24.1z M261,25.3v0.3
		h-0.9v-0.3H261z"/>
	<path fill="#FF9E39" d="M261.3,26.2v1.5H261v-0.6h-2.4v-0.3h2.4v-0.6H261.3z"/>
	<path fill="#FF9E39" d="M259,28.6v0.3h-0.3v-0.3H259z M260.7,28.6v0.3h-0.3v-0.3H260.7z"/>
	<path fill="#FF9E39" d="M261.3,31v1.2H261v-0.9h-0.9v0.9h-0.3v-0.9h-0.9v0.9h-0.3V31H261.3z M259.8,32.1v0.3h-0.9v-0.3H259.8z
		 M261,32.1v0.3h-0.9v-0.3H261z"/>
	<path fill="#FF9E39" d="M258.4,32.7v1.5h-0.3v-1.5H258.4z"/>
	<path fill="#FF9E39" d="M261.3,34.5v0.3h-1.2v0.3h-0.3v-0.3h-1.2v-0.3H261.3z M259.2,35.7V36h-0.6v-0.3H259.2z M259.5,35.4v0.3
		h-0.3v-0.3H259.5z M259.8,35.1v0.3h-0.3v-0.3H259.8z M260.4,35.1v0.3h-0.3v-0.3H260.4z M260.7,35.4v0.3h-0.3v-0.3H260.7z
		 M261.3,35.7V36h-0.6v-0.3H261.3z"/>
	<path fill="#FF9E39" d="M261.3,36.6v1.2H261v-0.9h-2.1v0.9h-0.3v-1.2H261.3z M261,37.8v0.3h-2.1v-0.3H261z"/>
	<path fill="#FF9E39" d="M261.3,38.7v1.5H261V39h-0.9v0.6h-0.3V39h-0.9v1.2h-0.3v-1.5H261.3z"/>
	<path fill="#FF9E39" d="M259,42.2v0.9h-0.3v-0.9H259z M261,41.9v0.3h-1.2v0.3h-0.3v-0.3h-0.6v-0.3H261z M261,43.1v0.3h-2.1v-0.3
		h1.2v-0.3h0.3v0.3H261z M260.1,42.5v0.3h-0.3v-0.3H260.1z M261.3,42.2v0.9H261v-0.9H261.3z"/>
	<path fill="#FF9E39" d="M259,44.3v0.9h-0.3v-0.9H259z M261,44v0.3h-1.2v0.3h-0.3v-0.3h-0.6V44H261z M261,45.2v0.3h-2.1v-0.3h1.2
		v-0.3h0.3v0.3H261z M260.1,44.6v0.3h-0.3v-0.3H260.1z M261.3,44.3v0.9H261v-0.9H261.3z"/>
	<path fill="#FF9E39" d="M259,46.4v0.9h-0.3v-0.9H259z M261,46.1v0.3h-0.9v0.9h-0.3v-0.9h-0.9v-0.3H261z M259.8,47.3v0.3h-0.9v-0.3
		H259.8z M261,47.3v0.3h-0.3v-0.3H261z M261.3,46.4v0.9H261v-0.9H261.3z"/>
	<path fill="#FF9E39" d="M259,48.5v0.9h-0.3v-0.9H259z M259.2,48.2v0.3h-0.3v-0.3H259.2z M260.1,49.4v0.3h-1.2v-0.3H260.1z
		 M261.3,48.2v1.5H261v-1.2h-0.6v0.9h-0.3v-1.2H261.3z"/>
</g>
<path id="colorstyle:Base_opacity:90" fill="#FF9E39" d="M264.7,0v121.4h-1.2V0H264.7z"/>
<rect id="colorstyle:Base_opacity:40" fill="#FF9E39" width="3.7" height="1.6"/>
<rect id="colorstyle:Base_opacity:40_00000088851602661299587620000011476793082155945354_" y="119.9" fill="#FF9E39" width="3.7" height="1.6"/>
<path id="colorstyle:Base_opacity:60" fill="#FF9E39" d="M260.5,120.2h4.2v1.2h-4.2V120.2z M260.5,0h4.2v1.2h-4.2V0z"/>
<rect id="colorstyle:Selected_opacity:90" x="258.1" y="120.2" fill="#FF9E39" width="1.3" height="1.2"/>
<rect id="colorstyle:Selected_opacity:90_00000078761663227580732670000005365843750628095140_" x="258.1" y="0" fill="#FF9E39" width="1.3" height="1.2"/>
</svg>
