<?xml version="1.0" encoding="utf-8"?>
<!-- Generator: Adobe Illustrator 28.7.9, SVG Export Plug-In . SVG Version: 9.03 Build 56881)  -->
<svg version="1.1" baseProfile="tiny" id="Layer_1" xmlns="http://www.w3.org/2000/svg" xmlns:xlink="http://www.w3.org/1999/xlink"
	 x="0px" y="0px" viewBox="0 0 808.4 57.7" overflow="visible" xml:space="preserve">
<polygon id="opacity:100_colorstyle:Base" points="807.8,18.8 803.8,18.8 803.8,4 4,4 4,18.8 0,18.8 0,0 807.8,0 "/>
<rect id="opacity:100_colorstyle:Accent1" x="81.4" y="3.8" width="2" height="29.2"/>
<rect id="opacity:100_colorstyle:Accent1_00000016793746605621376310000013014992926692436667_" x="161.8" y="3.8" width="2" height="29.2"/>
<rect id="opacity:100_colorstyle:Accent1_00000125579059657409807060000004871608758181124543_" x="242.1" y="3.8" width="2" height="29.2"/>
<rect id="opacity:100_colorstyle:Accent1_00000044164082398890399160000000516714507155588480_" x="402.9" y="3.8" width="2" height="29.2"/>
<rect id="opacity:100_colorstyle:Accent1_00000020385623737629433470000001488943076935524486_" x="322.5" y="3.8" width="2" height="29.2"/>
<rect id="opacity:100_colorstyle:Accent1_00000072961506708695707040000015872096154411015304_" x="483.3" y="3.8" width="2" height="29.2"/>
<rect id="opacity:100_colorstyle:Accent1_00000114771112520163195680000012170369317722808732_" x="563.7" y="3.8" width="2" height="29.2"/>
<rect id="opacity:100_colorstyle:Accent1_00000160157873970522078930000011021120554195389615_" x="644.1" y="3.8" width="2" height="29.2"/>
<rect id="opacity:100_colorstyle:Accent1_00000117644652632852703340000007388449877577066431_" x="724.4" y="3.8" width="2" height="29.2"/>
<path id="opacity:100_colorstyle:Base_00000000916969747018843780000000700382503958052535_" d="M6,40.9v16.8H3.6V43.3H0.7v-2.4H6z"
	/>
<path id="opacity:100_colorstyle:Base_00000132060536060539696390000014862729777312734622_" d="M23.8,55.3c0,0.3-0.1,0.6-0.2,0.9
	s-0.3,0.5-0.5,0.8s-0.5,0.4-0.8,0.5s-0.6,0.2-0.9,0.2H13c-0.3,0-0.6-0.1-0.9-0.2s-0.5-0.3-0.8-0.5s-0.4-0.5-0.5-0.8
	s-0.2-0.6-0.2-0.9v-12c0-0.3,0.1-0.6,0.2-0.9s0.3-0.5,0.5-0.8s0.5-0.4,0.8-0.5s0.6-0.2,0.9-0.2h8.4c0.3,0,0.6,0.1,0.9,0.2
	s0.5,0.3,0.8,0.5s0.4,0.5,0.5,0.8s0.2,0.6,0.2,0.9V55.3z M13,43.3v12h8.4v-12H13z"/>
<path id="opacity:100_colorstyle:Base_00000070804829851713318780000004334837606312991893_" d="M41.3,55.3c0,0.3-0.1,0.6-0.2,0.9
	s-0.3,0.5-0.5,0.8s-0.5,0.4-0.8,0.5s-0.6,0.2-0.9,0.2h-8.4c-0.3,0-0.6-0.1-0.9-0.2S29,57.2,28.8,57s-0.4-0.5-0.5-0.8
	s-0.2-0.6-0.2-0.9v-12c0-0.3,0.1-0.6,0.2-0.9s0.3-0.5,0.5-0.8s0.5-0.4,0.8-0.5s0.6-0.2,0.9-0.2h8.4c0.3,0,0.6,0.1,0.9,0.2
	s0.5,0.3,0.8,0.5s0.4,0.5,0.5,0.8s0.2,0.6,0.2,0.9V55.3z M30.5,43.3v12h8.4v-12H30.5z"/>
<path id="opacity:100_colorstyle:Base_00000014622934509878714250000018326329078317432715_" d="M402.6,53.6c0,1.4-0.4,2.4-1,3.1
	s-1.7,1-3,1h-4.5c-2.7,0-4.1-1.4-4.1-4.1v-1h2.4v0.9c0,0.6,0.1,1.1,0.4,1.4s0.7,0.4,1.4,0.4h4.4c0.6,0,1.1-0.1,1.4-0.4
	s0.4-0.8,0.4-1.4v-2.3c0-0.6-0.1-1.1-0.4-1.4s-0.7-0.4-1.4-0.4h-8v-8.5h11.8v2.4h-9.4V47h5.7c1.4,0,2.4,0.3,3.1,1s1,1.7,1,3.1V53.6z
	"/>
<path id="opacity:100_colorstyle:Base_00000049942418693000940600000001853173335660290710_" d="M419.5,55.3c0,0.3-0.1,0.6-0.2,0.9
	s-0.3,0.5-0.5,0.8s-0.5,0.4-0.8,0.5s-0.6,0.2-0.9,0.2h-8.4c-0.3,0-0.6-0.1-0.9-0.2s-0.5-0.3-0.8-0.5s-0.4-0.5-0.5-0.8
	s-0.2-0.6-0.2-0.9v-12c0-0.3,0.1-0.6,0.2-0.9s0.3-0.5,0.5-0.8s0.5-0.4,0.8-0.5s0.6-0.2,0.9-0.2h8.4c0.3,0,0.6,0.1,0.9,0.2
	s0.5,0.3,0.8,0.5s0.4,0.5,0.5,0.8s0.2,0.6,0.2,0.9V55.3z M408.6,43.3v12h8.4v-12H408.6z"/>
<path id="opacity:100_colorstyle:Base_00000006678724892739426790000007924892903356164774_" d="M808.4,55.3c0,0.3-0.1,0.6-0.2,0.9
	s-0.3,0.5-0.5,0.8s-0.4,0.4-0.7,0.5c-0.3,0.1-0.6,0.2-0.9,0.2h-7.7c-0.3,0-0.6-0.1-0.9-0.2c-0.3-0.1-0.5-0.3-0.7-0.5
	s-0.4-0.5-0.5-0.8c-0.1-0.3-0.2-0.6-0.2-0.9v-12c0-0.3,0.1-0.6,0.2-0.9c0.1-0.3,0.3-0.5,0.5-0.8s0.4-0.4,0.7-0.5
	c0.3-0.1,0.6-0.2,0.9-0.2h7.7c0.3,0,0.6,0.1,0.9,0.2c0.3,0.1,0.5,0.3,0.7,0.5s0.4,0.5,0.5,0.8s0.2,0.6,0.2,0.9V55.3z M798.5,43.3v12
	h7.7v-12H798.5z"/>
</svg>
