<?xml version="1.0" encoding="utf-8"?>
<!-- Generator: Adobe Illustrator 27.5.0, SVG Export Plug-In . SVG Version: 6.00 Build 0)  -->
<svg version="1.1" baseProfile="tiny" id="Layer_1" xmlns="http://www.w3.org/2000/svg" xmlns:xlink="http://www.w3.org/1999/xlink"
	 x="0px" y="0px" viewBox="0 0 241 81.4" overflow="visible" xml:space="preserve">
<path fill="#234A53" d="M237.2,11.2l-8.1-7.8c-2.3-2.2-5.4-3.4-8.5-3.4H20.4c-3.1,0-6.2,1.2-8.5,3.4l-8.1,7.8
	C1.4,13.5,0,16.8,0,20.1v47.7c0,7.5,6.1,13.6,13.6,13.6h213.8c7.5,0,13.6-6.1,13.6-13.6V20.1C241,16.8,239.6,13.5,237.2,11.2z
	 M238,67.8c0,5.8-4.8,10.6-10.6,10.6h-38.1l-4.3-4.3c-0.3-0.3-0.9-0.6-1.5-0.6h-24.3c-0.8,0-1.3,0.5-1.4,0.6l-4.4,4.3h-66l-4.3-4.3
	c-0.2-0.2-0.6-0.6-1.5-0.6H57.4c-0.6,0-1.2,0.3-1.5,0.6l-4.3,4.3H13.6C7.8,78.4,3,73.6,3,67.8V20.1c0-2.5,1.1-5,2.8-6.7l8.1-7.8
	C15.7,3.9,18,3,20.4,3h200.2c2.4,0,4.7,0.9,6.5,2.6l8.1,7.8c1.8,1.7,2.8,4.2,2.8,6.7V67.8z"/>
<path fill="#050A0A" d="M235.2,13.4l-8.1-7.8C225.3,3.9,223,3,220.6,3H20.4c-2.4,0-4.7,0.9-6.5,2.6l-8.1,7.8C4.1,15.1,3,17.6,3,20.1
	v47.7c0,5.8,4.8,10.6,10.6,10.6h38.1l4.3-4.3c0.3-0.3,0.9-0.6,1.5-0.6h24.3c0.8,0,1.3,0.5,1.5,0.6l4.4,4.3h66l4.4-4.3
	c0.2-0.2,0.6-0.6,1.4-0.6h24.3c0.6,0,1.2,0.3,1.5,0.6l4.3,4.3h38.1c5.8,0,10.6-4.8,10.6-10.6V20.1C238,17.6,236.9,15.1,235.2,13.4z
	 M234,67.8c0,3.6-3,6.6-6.6,6.6h-36.4l-3.3-3.3c-1.1-1.1-2.4-1.6-3.9-1.6H159c-1.5,0-2.9,0.6-3.9,1.6l-3.3,3.3H89.2l-3.3-3.3
	c-1.1-1.1-2.4-1.6-3.9-1.6H57.2c-1.5,0-2.9,0.6-3.9,1.6l-3.3,3.3H13.6c-3.6,0-6.6-3-6.6-6.6V20.1c0-1.4,0.6-2.8,1.6-3.8l8.1-7.8
	c1-1,2.3-1.5,3.7-1.5h200.2c1.4,0,2.7,0.5,3.7,1.5l8.1,7.8c1,1,1.6,2.4,1.6,3.8V67.8z"/>
</svg>
