<?xml version="1.0" encoding="utf-8"?>
<!-- Generator: Adobe Illustrator 27.5.0, SVG Export Plug-In . SVG Version: 6.00 Build 0)  -->
<svg version="1.1" baseProfile="tiny" id="Layer_1" xmlns="http://www.w3.org/2000/svg" xmlns:xlink="http://www.w3.org/1999/xlink"
	 x="0px" y="0px" viewBox="0 0 296.9 82.2" overflow="visible" xml:space="preserve">
<path fill="#234A53" d="M288.6,0H8.3C3.7,0,0,3.7,0,8.3v53.5c0,3.2,1.2,6.2,3.4,8.5l7.8,8.1c2.3,2.4,5.5,3.8,8.9,3.8h11.2l69.8,0
	h187.5c4.6,0,8.3-3.7,8.3-8.3V8.3C296.9,3.7,293.2,0,288.6,0z M293.9,73.9c0,2.9-2.4,5.3-5.3,5.3l-114.5,0l-4.3-4.3
	c-0.4-0.4-0.9-0.6-1.5-0.6h-38.6c-0.6,0-1.1,0.2-1.5,0.6l-4.3,4.3l-103.8,0c-2.5,0-5-1-6.7-2.9l-7.8-8.1c-1.7-1.7-2.6-4-2.6-6.5V8.3
	C3,5.4,5.4,3,8.3,3h116l4.3,4.3c0.4,0.4,0.9,0.6,1.5,0.6h38.6c0.6,0,1.1-0.2,1.5-0.6l4.3-4.3h114.1c2.9,0,5.3,2.4,5.3,5.3V73.9z"/>
<path fill="#133746" d="M6.4,10.4c0-2.5,0.1-4.5,4.5-4.5h110.4l4.4,4.4c0.5,0.5,1.2,0.8,1.9,0.8h43.3c0.7,0,1.4-0.3,1.9-0.8l4.4-4.4
	h108.7c4.4,0,4.5,2,4.5,4.5v3.4H6.4V10.4z"/>
<polygon fill="#133746" points="28.2,76.2 31.2,71.9 34.3,76.2 "/>
</svg>
