<?xml version="1.0" encoding="utf-8"?>
<!-- Generator: Adobe Illustrator 27.5.0, SVG Export Plug-In . SVG Version: 6.00 Build 0)  -->
<svg version="1.1" baseProfile="tiny" id="Layer_1" xmlns="http://www.w3.org/2000/svg" xmlns:xlink="http://www.w3.org/1999/xlink"
	 x="0px" y="0px" viewBox="0 0 296.9 82.2" overflow="visible" xml:space="preserve">
<g>
	<path fill="#6EB7C6" d="M3,13.8H0V8.2C0,3.7,3.7,0,8.2,0h13.1v3H8.2C5.4,3,3,5.3,3,8.2V13.8z"/>
</g>
<g>
	<path fill="#6EB7C6" d="M288.7,82.2h-13.1v-3h13.1c2.9,0,5.2-2.3,5.2-5.2v-5.6h3v5.6C296.9,78.5,293.2,82.2,288.7,82.2z"/>
</g>
<g>
	<path fill="#6EB7C6" d="M296.9,13.8h-3V8.2c0-2.9-2.3-5.2-5.2-5.2h-13.1V0h13.1c4.5,0,8.2,3.7,8.2,8.2V13.8z"/>
</g>
<g>
	<path fill="#6EB7C6" d="M31.3,82.2H20.1c-3.3,0-6.6-1.4-8.9-3.8l-7.8-8.1C1.2,68,0,65,0,61.8V50.5h3v11.3c0,2.4,0.9,4.7,2.6,6.5
		l7.8,8.1c1.7,1.8,4.2,2.9,6.7,2.9h11.2V82.2z"/>
</g>
</svg>
