<?xml version="1.0" encoding="utf-8"?>
<!-- Generator: Adobe Illustrator 27.5.0, SVG Export Plug-In . SVG Version: 6.00 Build 0)  -->
<svg version="1.1" baseProfile="tiny" id="Layer_1" xmlns="http://www.w3.org/2000/svg" xmlns:xlink="http://www.w3.org/1999/xlink"
	 x="0px" y="0px" viewBox="0 0 241 81.4" overflow="visible" xml:space="preserve">
<g>
	<path fill="#6EB7C6" d="M227.4,81.4h-23.7v-3h23.7c5.9,0,10.6-4.8,10.6-10.6V57.6h3v10.2C241,75.3,234.9,81.4,227.4,81.4z"/>
</g>
<g>
	<path fill="#6EB7C6" d="M241,31.3h-3V20.1c0-2.5-1-5-2.9-6.7L227,5.6c-1.7-1.7-4-2.6-6.5-2.6h-16.9V0h16.9c3.2,0,6.2,1.2,8.5,3.4
		l8.1,7.8c2.4,2.3,3.8,5.5,3.8,8.9V31.3z"/>
</g>
<g>
	<path fill="#6EB7C6" d="M37.3,81.4H13.6C6.1,81.4,0,75.3,0,67.8V57.6h3v10.2c0,5.9,4.8,10.6,10.6,10.6h23.7V81.4z"/>
</g>
<g>
	<path fill="#6EB7C6" d="M3,31.3H0V20.1c0-3.3,1.4-6.6,3.8-8.9l8.1-7.8C14.2,1.2,17.2,0,20.4,0h16.9v3H20.4C18,3,15.7,3.9,14,5.6
		l-8.1,7.8C4,15.1,3,17.6,3,20.1V31.3z"/>
</g>
</svg>
