<?xml version="1.0" encoding="utf-8"?>
<!-- Generator: Adobe Illustrator 27.5.0, SVG Export Plug-In . SVG Version: 6.00 Build 0)  -->
<svg version="1.1" baseProfile="tiny" id="Layer_1" xmlns="http://www.w3.org/2000/svg" xmlns:xlink="http://www.w3.org/1999/xlink"
	 x="0px" y="0px" viewBox="0 0 680.4 656.6" overflow="visible" xml:space="preserve">
<g>
	<line fill="none" x1="679.4" y1="15.5" x2="679.4" y2="641.1"/>
	<polyline fill="#224B53" points="678.4,15.5 678.4,641.1 680.4,641.1 680.4,15.5 	"/>
	<line fill="none" x1="1" y1="15.5" x2="1" y2="641"/>
	<polyline fill="#224B53" points="0,15.5 0,641 2,641 2,15.5 	"/>
	<path fill="#6DB8C7" d="M2,15.5H0V9.4C0,4.2,4.2,0,9.4,0h26.1v2H9.4C5.3,2,2,5.3,2,9.4V15.5z"/>
	<path fill="#6DB8C7" d="M680.4,15.5V9.4c0-5.2-4.2-9.4-9.4-9.4h-26.1v2H671c2.1,0,3.9,0.8,5.2,2.2c1.3,1.3,2.2,3.2,2.2,5.2v6.1
		H680.4L680.4,15.5z"/>
	<path fill="#224B53" d="M95.8,2l2.1,2.1c0.2,0.2,0.5,0.4,0.9,0.4h21.5c0.3,0,0.6-0.1,0.9-0.4l2.1-2.1h434.1l2.1,2.1
		c0.2,0.2,0.5,0.4,0.9,0.4h21.5c0.3,0,0.6-0.1,0.9-0.4l2.1-2.1h60.3V0H35.5v2H95.8z"/>
	<path fill="#224B53" d="M584.6,654.6l-2.1-2.1c-0.2-0.2-0.5-0.4-0.9-0.4h-21.5c-0.3,0-0.6,0.1-0.9,0.4l-2.1,2.1H123l-2.1-2.1
		c-0.2-0.2-0.5-0.4-0.9-0.4H98.7c-0.3,0-0.6,0.1-0.9,0.4l-2.1,2.1H35.4v2h609.3v-2H584.6z"/>
	<path fill="#6DB8C7" d="M678.4,641.1h2v6.1c0,5.2-4.2,9.4-9.4,9.4h-26.1v-2H671c4.1,0,7.4-3.3,7.4-7.4V641.1z"/>
	<path fill="#6DB8C7" d="M0,641v6.1c0,5.2,4.2,9.4,9.4,9.4h26.1v-2H9.4c-2.1,0-3.9-0.8-5.2-2.2C2.9,651,2,649.1,2,647.1V641H0L0,641
		z"/>
	<rect x="7.5" y="76.7" fill="#005C68" width="3.4" height="3.4"/>
	<rect x="7.5" y="632.1" fill="#005C68" width="3.4" height="3.4"/>
	<polyline fill="#043741" points="9.8,88.6 8.6,88.6 8.6,623.3 9.8,623.3 9.8,88.6 	"/>
	<polygon fill="#541316" points="24.5,646.5 26.6,650.1 22.3,650.1 	"/>
	<polygon fill="#541316" points="37.8,646.5 39.9,650.1 35.7,650.1 	"/>
	<polygon fill="#541316" points="192.3,646.5 194.4,650.1 190.2,650.1 	"/>
	<polygon fill="#541316" points="213.6,646.5 215.7,650.1 211.5,650.1 	"/>
	<polygon fill="#541316" points="291.3,646.5 293.4,650.1 289.2,650.1 	"/>
	<rect x="669.5" y="76.7" fill="#005C68" width="3.4" height="3.4"/>
	<rect x="669.5" y="632" fill="#005C68" width="3.4" height="3.4"/>
	<polyline fill="#043741" points="671.8,88.6 670.6,88.6 670.6,623.2 671.8,623.2 671.8,88.6 	"/>
</g>
</svg>
