<?xml version="1.0" encoding="utf-8"?>
<!-- Generator: Adobe Illustrator 27.5.0, SVG Export Plug-In . SVG Version: 6.00 Build 0)  -->
<svg version="1.1" baseProfile="tiny" id="Layer_1" xmlns="http://www.w3.org/2000/svg" xmlns:xlink="http://www.w3.org/1999/xlink"
	 x="0px" y="0px" viewBox="0 0 24.9 25.2" overflow="visible" xml:space="preserve">
<g>
	<path fill="#FFFFFF" d="M11.4,4.1c-2-2-5.3-2-7.3,0c-1,1-1.5,2.3-1.5,3.6s0.5,2.7,1.5,3.6c1,1,2.3,1.5,3.6,1.5s2.6-0.5,3.6-1.5
		C13.4,9.4,13.4,6.1,11.4,4.1z M11,11c-1.8,1.8-4.7,1.8-6.4,0c-1.8-1.8-1.8-4.7,0-6.4c0.9-0.9,2.1-1.3,3.2-1.3
		c1.2,0,2.3,0.4,3.2,1.3C12.7,6.3,12.7,9.2,11,11z"/>
	<path fill="#FFFFFF" d="M24.4,21.5l-6.3-6.3c-0.3-0.3-0.7-0.4-1-0.2l-1.5-1.5l0.6-0.6l-1.7-1.7c1.5-2.8,1-6.4-1.4-8.7
		c-2.9-2.9-7.7-2.9-10.6,0c-2.9,2.9-2.9,7.7,0,10.6c1.5,1.5,3.4,2.2,5.3,2.2c1.1,0,2.1-0.2,3.1-0.7l1.8,1.8l0.6-0.6l1.5,1.5
		c-0.1,0.4-0.1,0.8,0.2,1l6.3,6.3c0.2,0.2,0.5,0.3,0.7,0.3c0.3,0,0.5-0.1,0.7-0.3l1.7-1.7C24.8,22.5,24.8,21.9,24.4,21.5z M3.2,12.3
		c-2.5-2.5-2.5-6.6,0-9C4.5,2,6.1,1.3,7.7,1.3c1.6,0,3.3,0.6,4.5,1.9c2.5,2.5,2.5,6.6,0,9C9.8,14.8,5.7,14.8,3.2,12.3z M14,12.2
		l0.7,0.7l-2.1,2.1l-0.7-0.7L14,12.2z M14.8,14.1l1.4,1.4L15.8,16l-0.5,0.5l-1.4-1.4L14.8,14.1z"/>
</g>
</svg>
