<?xml version="1.0" encoding="utf-8"?>
<!-- Generator: Adobe Illustrator 29.8.4, SVG Export Plug-In . SVG Version: 9.03 Build 0)  -->
<svg version="1.1" baseProfile="tiny" id="Icons" xmlns="http://www.w3.org/2000/svg" xmlns:xlink="http://www.w3.org/1999/xlink"
	 x="0px" y="0px" viewBox="0 0 64 64" overflow="visible" xml:space="preserve">
<path fill="#FFFFFF" d="M16.7,38.8l1.3,2.3H2.3v-2.3C2.3,38.8,16.7,38.8,16.7,38.8z M45.5,2.9h-13l-3.6,3.6H9.8L5.6,8.4v4.2h28
	l2.9-2.9h8.9V3L45.5,2.9z M31.6,20.9L27.9,18h-8.7L18,23.1l1.2,3.5l-2.3,7.8H2.3L5.2,22l-0.7-1.1l1.2-4.8H34l3.4-3.4h8v8.2H31.5
	L31.6,20.9z"/>
<g>
	<path fill="#FFFFFF" d="M60.8,54.1l-9.7-13.7l-1.5,1.5l-3.1-3.1l1.5-1.5l-13.7-9.7l14.9,4.5c3.5,1.1,6.1,3.7,7.2,7.2l4.4,14.9V54.1
		z"/>
	
		<rect x="25.31" y="49.51" transform="matrix(0.7071 -0.7071 0.7071 0.7071 -25.8105 41.1012)" fill="#FFFFFF" width="22.8" height="4.4"/>
</g>
</svg>
