<?xml version="1.0" encoding="utf-8"?>
<!-- Generator: Adobe Illustrator 27.8.0, SVG Export Plug-In . SVG Version: 6.00 Build 0)  -->
<svg version="1.1" baseProfile="tiny" id="Layer_1" xmlns="http://www.w3.org/2000/svg" xmlns:xlink="http://www.w3.org/1999/xlink"
	 x="0px" y="0px" viewBox="0 0 64 64" overflow="visible" xml:space="preserve">
<g>
	<path fill="#FFFFFF" d="M45.3,41.5c3.5-4.5,5.3-10.5,4.3-16.8c-1.5-9.4-9.4-16.9-18.9-17.9C16.3,5.2,4.2,18,7.1,32.7
		c1.7,8.6,8.7,15.4,17.3,16.8c6.4,1.1,12.5-0.6,17-4.2l11.2,11.2c1,1,2.7,1.1,3.8,0l0,0c1.1-1.1,1.1-2.8,0-3.8L45.3,41.5z
		 M12.1,28.3c0-8.9,7.3-16.2,16.2-16.2s16.2,7.3,16.2,16.2s-7.3,16.2-16.2,16.2S12.1,37.2,12.1,28.3z"/>
</g>
</svg>
