<?xml version="1.0" encoding="utf-8"?>
<!-- Generator: Adobe Illustrator 27.8.0, SVG Export Plug-In . SVG Version: 6.00 Build 0)  -->
<svg version="1.1" baseProfile="tiny" id="Layer_1" xmlns="http://www.w3.org/2000/svg" xmlns:xlink="http://www.w3.org/1999/xlink"
	 x="0px" y="0px" viewBox="0 0 64 64" overflow="visible" xml:space="preserve">
<path fill="#FFFFFF" d="M62.4,41.9c-0.6-0.8-1.7-2.1-3.2-3.5c-1.5,3.4-5,5.8-8.9,5.8c-1.6,0-3.1-0.4-4.4-1.1
	c-0.1,7.5-6.3,13.6-13.8,13.6c-7.7,0-13.9-6.2-13.9-13.9c0-7.7,6.2-13.9,13.9-13.9c3.2,0,6.2,1.1,8.5,3v-4c-2.6-0.6-5.5-1-8.5-1
	c-17.4,0-27.8,11.8-30.4,15.1c-0.4,0.5-0.4,1.2,0,1.7c2.6,3.3,13,15.1,30.4,15.1c17.4,0,27.8-11.8,30.4-15.1
	C62.8,43.1,62.8,42.4,62.4,41.9z"/>
<circle fill="#FFFFFF" cx="35.2" cy="40" r="4.4"/>
<path fill="#FFFFFF" d="M47.8,26.1c-0.1-0.1-0.1-0.2-0.1-0.4V24c0-1.3,0.3-2.4,1-3.3c0.7-0.8,1.7-1.7,3-2.6c1.1-0.8,2-1.6,2.5-2.2
	c0.6-0.7,0.8-1.5,0.8-2.5c0-1.1-0.4-2-1.1-2.6s-1.8-1-3-1c-1.3,0-2.3,0.4-3.1,1.1c-0.8,0.7-1.2,1.6-1.2,2.7v0.9
	c0,0.3-0.2,0.5-0.5,0.5l-3.9-0.2c-0.1,0-0.3-0.1-0.4-0.2c-0.1-0.1-0.1-0.2-0.1-0.4v-0.6c0-1.6,0.4-3,1.2-4.3C43.6,8,44.7,7,46.1,6.3
	c1.4-0.7,3-1,4.9-1c2.7,0,4.9,0.7,6.5,2.2c1.6,1.4,2.4,3.4,2.4,5.8c0,1.2-0.2,2.3-0.7,3.2c-0.4,0.9-0.9,1.6-1.5,2.2
	c-0.6,0.6-1.4,1.2-2.3,1.9c-1,0.7-1.7,1.3-2.2,1.8c-0.5,0.5-0.7,1.2-0.7,1.9v1.4c0,0.1,0,0.3-0.1,0.4c-0.1,0.1-0.2,0.1-0.4,0.1h-3.9
	C48,26.2,47.9,26.2,47.8,26.1z M47.4,37.2c-0.7-0.7-1-1.5-1-2.6c0-1,0.3-1.9,1-2.6c0.7-0.7,1.5-1,2.6-1s1.9,0.3,2.6,1
	c0.7,0.7,1,1.5,1,2.6c0,1-0.3,1.9-1,2.6c-0.7,0.7-1.5,1-2.5,1C48.9,38.2,48.1,37.9,47.4,37.2z"/>
</svg>
