<?xml version="1.0" encoding="utf-8"?>
<!-- Generator: Adobe Illustrator 27.8.0, SVG Export Plug-In . SVG Version: 6.00 Build 0)  -->
<svg version="1.1" baseProfile="tiny" id="Layer_1" xmlns="http://www.w3.org/2000/svg" xmlns:xlink="http://www.w3.org/1999/xlink"
	 x="0px" y="0px" viewBox="0 0 64 64" overflow="visible" xml:space="preserve">
<path fill="#FFFFFF" d="M53.2,42.9L12.7,62.4c-1.2,0.6-2.6,0.1-3.1-1.1c-0.6-1.2-0.1-2.6,1.1-3.1l15.8-7.6l-15.8-7.6
	c-1.2-0.6-1.7-2-1.1-3.1l0,0c0.6-1.2,2-1.7,3.1-1.1l19.2,9.2l19.2-9.2c1.2-0.6,2.6-0.1,3.1,1.1l0,0C54.9,41,54.4,42.4,53.2,42.9z"/>
<path fill="#FFFFFF" d="M55.2,61.8L55.2,61.8c-0.6,1.2-2,1.7-3.1,1.1l-13.8-6.6l5.4-2.6l10.4,5C55.3,59.2,55.8,60.6,55.2,61.8z"/>
<path fill="#FFFFFF" d="M27.3,0.9c0,0-4,3-5.2,8.2c-1.8,7.5,3.5,11.3,3.5,11.3s-4,0-5.8-1.7c-1.8-1.7-2.4-3.3-2.4-3.3s-1.9,6,3.3,11
	s8.9,7.3,8.6,12.5c0,0,7.8-4.1,8.3-13.2s-4.1-12.1-7.2-15.5S27.3,0.9,27.3,0.9z"/>
<path fill="#FFFFFF" d="M43.1,31c0.8-1.8,1.3-4,1.4-6.3c0.4-6.9-1.5-11.1-4-14.2c1.8-4.9,5.2-6.1,5.2-6.1s-2.1,4.7,1.4,11.8
	C50.4,22.9,45.7,28.5,43.1,31z"/>
</svg>
