<?xml version="1.0" encoding="utf-8"?>
<!-- Generator: Adobe Illustrator 27.8.0, SVG Export Plug-In . SVG Version: 6.00 Build 0)  -->
<svg version="1.1" baseProfile="tiny" id="Layer_1" xmlns="http://www.w3.org/2000/svg" xmlns:xlink="http://www.w3.org/1999/xlink"
	 x="0px" y="0px" viewBox="0 0 64 64" overflow="visible" xml:space="preserve">
<path fill="#FFFFFF" d="M55.7,22.1v7.4c-7.8,2-15.9,2.9-24,3c-7.9,0-15.8-1-23.5-3v-7.4H55.7z"/>
<path fill="#FFFFFF" d="M45.9,37.4c3.3-0.4,6.6-1.1,9.8-1.8v14c0,2.9-2.3,5.2-5.2,5.2H13.5c-2.9,0-5.2-2.3-5.2-5.2v-14
	c3.2,0.8,6.5,1.4,9.8,1.8v6.5c0,0.6,0.5,1.1,1.1,1.1h3.7c0.6,0,1.1-0.5,1.1-1.1V38c2.6,0.2,5.2,0.3,7.8,0.3H32
	c2.7,0,5.4-0.1,8.1-0.3v5.9c0,0.6,0.5,1.1,1.1,1.1h3.7c0.6,0,1.1-0.5,1.1-1.1V37.4z"/>
<path fill="#FFFFFF" d="M45.9,16.8h-4.5c0-1.7-1.4-3-3-3H25.6c-1.7,0-3,1.4-3,3h-4.5c0-4.1,3.4-7.5,7.5-7.5h12.9
	C42.6,9.3,45.9,12.6,45.9,16.8z"/>
</svg>
