<?xml version="1.0" encoding="utf-8"?>
<!-- Generator: Adobe Illustrator 27.8.0, SVG Export Plug-In . SVG Version: 6.00 Build 0)  -->
<svg version="1.1" baseProfile="tiny" id="Layer_1" xmlns="http://www.w3.org/2000/svg" xmlns:xlink="http://www.w3.org/1999/xlink"
	 x="0px" y="0px" viewBox="0 0 64 64" overflow="visible" xml:space="preserve">
<path fill="#FFFFFF" d="M39.6,23.8c-1.5-1.9-7.4-8.5-17.2-8.5c-9.9,0-15.8,6.7-17.2,8.5c-0.2,0.3-0.2,0.7,0,0.9
	c1.5,1.9,7.4,8.6,17.2,8.6c9.9,0,15.8-6.7,17.2-8.6C39.9,24.4,39.9,24,39.6,23.8z M22.4,32.1c-4.4,0-7.9-3.5-7.9-7.9
	c0-4.4,3.5-7.9,7.9-7.9c4.4,0,7.9,3.5,7.9,7.9C30.3,28.6,26.8,32.1,22.4,32.1z"/>
<circle fill="#FFFFFF" cx="24.2" cy="22.6" r="2.5"/>
<path fill="#FFFFFF" d="M47.6,41.2c3.3-4.2,5-9.8,4.1-15.7C50.6,17.8,44.9,11.2,37.4,9C33.1,7.6,28.8,7.8,25.1,9
	c6.6,0.8,11.6,3.9,14.9,6.7c0,0,0.1,0.1,0.1,0.1c4.6,3.1,7.4,8.6,6.7,14.6c-0.8,6.9-6.4,12.5-13.2,13.4c-5,0.7-9.7-1.1-12.9-4.3
	c-2.7-0.1-5.1-0.5-7.3-1.2c3.5,6.4,10.3,10.7,18,10.7c4.7,0,9.1-1.6,12.6-4.3l10.7,10.7c1,1,2.6,1,3.6,0l0,0c1-1,1-2.6,0-3.6
	L47.6,41.2z"/>
</svg>
