<?xml version="1.0" encoding="utf-8"?>
<!-- Generator: Adobe Illustrator 25.4.1, SVG Export Plug-In . SVG Version: 6.00 Build 0)  -->
<svg version="1.1" baseProfile="tiny" id="Layer_1" xmlns="http://www.w3.org/2000/svg" xmlns:xlink="http://www.w3.org/1999/xlink"
	 x="0px" y="0px" viewBox="0 0 590.4 24.9" overflow="visible" xml:space="preserve">
<g>
	<g>
		<line fill="none" stroke="#D1EBF4" stroke-miterlimit="10" x1="26.8" y1="12.2" x2="105.9" y2="12.2"/>
		<polygon fill="#D1EBF4" stroke="#D1EBF4" stroke-miterlimit="10" points="21.4,15.5 24.3,15.5 26.8,12.2 23.9,12.2 		"/>
		<polygon fill="#D1EBF4" stroke="#D1EBF4" stroke-miterlimit="10" points="16.9,15.5 18.2,15.5 20.7,12.2 19.4,12.2 		"/>
	</g>
	<g>
		<polygon fill="#D1EBF4" stroke="#D1EBF4" stroke-miterlimit="10" points="10.8,15.5 12.9,15.5 15.4,12.2 13.3,12.2 		"/>
		<polygon fill="#D1EBF4" stroke="#D1EBF4" stroke-miterlimit="10" points="1,24.4 3.2,24.4 5.7,21.2 3.5,21.2 		"/>
		<line fill="none" stroke="#D1EBF4" stroke-miterlimit="10" x1="13.3" y1="12.2" x2="3.4" y2="24.1"/>
	</g>
</g>
<g>
	<g>
		<line fill="none" stroke="#D1EBF4" stroke-miterlimit="10" x1="563.5" y1="12.2" x2="484.5" y2="12.2"/>
		<polygon fill="#D1EBF4" stroke="#D1EBF4" stroke-miterlimit="10" points="569,15.5 566,15.5 563.5,12.2 566.5,12.2 		"/>
		<polygon fill="#D1EBF4" stroke="#D1EBF4" stroke-miterlimit="10" points="573.5,15.5 572.2,15.5 569.7,12.2 571,12.2 		"/>
	</g>
	<g>
		<polygon fill="#D1EBF4" stroke="#D1EBF4" stroke-miterlimit="10" points="579.6,15.5 577.5,15.5 575,12.2 577.1,12.2 		"/>
		<polygon fill="#D1EBF4" stroke="#D1EBF4" stroke-miterlimit="10" points="589.4,24.4 587.2,24.4 584.7,21.2 586.9,21.2 		"/>
		<line fill="none" stroke="#D1EBF4" stroke-miterlimit="10" x1="577.1" y1="12.2" x2="587" y2="24.1"/>
	</g>
</g>
<polyline fill="none" stroke="#9AA5D4" stroke-miterlimit="10" points="429.5,12.2 420.7,6.2 175.9,6.2 167.6,12.2 "/>
<polyline fill="none" stroke="#D1EBF4" stroke-miterlimit="10" points="129.9,12.2 154.7,12.2 172.8,0.5 423.5,0.5 441.5,12.2 
	462.1,12.2 "/>
<line fill="none" stroke="#F29104" stroke-miterlimit="10" x1="478.1" y1="12.2" x2="467.8" y2="12.2"/>
<line fill="none" stroke="#F29104" stroke-miterlimit="10" x1="124.7" y1="12.2" x2="114.5" y2="12.2"/>
</svg>
