<?xml version="1.0" encoding="utf-8"?>
<!-- Generator: Adobe Illustrator 26.4.1, SVG Export Plug-In . SVG Version: 6.00 Build 0)  -->
<svg version="1.1" baseProfile="tiny" id="Layer_1" xmlns="http://www.w3.org/2000/svg" xmlns:xlink="http://www.w3.org/1999/xlink"
	 x="0px" y="0px" viewBox="0 0 566.6 4.2" overflow="visible" xml:space="preserve">
<g id="Layer_1_00000148631321622066427340000016637807583173797519_" display="none">
	<g display="inline">
		<g>
			<line fill="none" stroke="#D1EBF4" stroke-miterlimit="10" x1="14.9" y1="1.8" x2="94" y2="1.8"/>
			<polygon fill="#D1EBF4" stroke="#D1EBF4" stroke-miterlimit="10" points="9.5,5.1 12.4,5.1 14.9,1.8 12,1.8 			"/>
			<polygon fill="#D1EBF4" stroke="#D1EBF4" stroke-miterlimit="10" points="5,5.1 6.3,5.1 8.8,1.8 7.5,1.8 			"/>
		</g>
		<g>
			<polygon fill="#D1EBF4" stroke="#D1EBF4" stroke-miterlimit="10" points="-1.1,5.1 1,5.1 3.5,1.8 1.4,1.8 			"/>
			<polygon fill="#D1EBF4" stroke="#D1EBF4" stroke-miterlimit="10" points="-10.9,14 -8.7,14 -6.2,10.8 -8.4,10.8 			"/>
			<line fill="none" stroke="#D1EBF4" stroke-miterlimit="10" x1="1.4" y1="1.8" x2="-8.5" y2="13.7"/>
		</g>
	</g>
	<g display="inline">
		<g>
			<line fill="none" stroke="#D1EBF4" stroke-miterlimit="10" x1="551.6" y1="1.8" x2="472.6" y2="1.8"/>
			<polygon fill="#D1EBF4" stroke="#D1EBF4" stroke-miterlimit="10" points="557.1,5.1 554.1,5.1 551.6,1.8 554.6,1.8 			"/>
			<polygon fill="#D1EBF4" stroke="#D1EBF4" stroke-miterlimit="10" points="561.6,5.1 560.3,5.1 557.8,1.8 559.1,1.8 			"/>
		</g>
		<g>
			<polygon fill="#D1EBF4" stroke="#D1EBF4" stroke-miterlimit="10" points="567.7,5.1 565.6,5.1 563.1,1.8 565.2,1.8 			"/>
			<polygon fill="#D1EBF4" stroke="#D1EBF4" stroke-miterlimit="10" points="577.5,14 575.3,14 572.8,10.8 575,10.8 			"/>
			<line fill="none" stroke="#D1EBF4" stroke-miterlimit="10" x1="565.2" y1="1.8" x2="575.1" y2="13.7"/>
		</g>
	</g>
	<polyline display="inline" fill="none" stroke="#9AA5D4" stroke-miterlimit="10" points="417.6,1.8 408.8,-4.2 164,-4.2 155.7,1.8 
			"/>
	<polyline display="inline" fill="none" stroke="#D1EBF4" stroke-miterlimit="10" points="118,1.8 142.8,1.8 160.9,-9.9 411.6,-9.9 
		429.6,1.8 450.2,1.8 	"/>
	<line display="inline" fill="none" stroke="#F29104" stroke-miterlimit="10" x1="466.2" y1="1.8" x2="455.9" y2="1.8"/>
	<line display="inline" fill="none" stroke="#F29104" stroke-miterlimit="10" x1="112.8" y1="1.8" x2="102.6" y2="1.8"/>
</g>
<g id="Layer_2_00000082362050125820823000000000770961131773392551_" display="none">
	<line display="inline" fill="none" stroke="#F29104" stroke-miterlimit="10" x1="566.8" y1="5.4" x2="571.1" y2="5.4"/>
	<line display="inline" fill="none" stroke="#F29104" stroke-miterlimit="10" x1="563.8" y1="5.4" x2="563.1" y2="5.4"/>
	<line display="inline" fill="none" stroke="#F29104" stroke-miterlimit="10" x1="574.9" y1="5.4" x2="574.2" y2="5.4"/>
	<line display="inline" fill="none" stroke="#F29104" stroke-miterlimit="10" x1="-0.2" y1="5.4" x2="-4.5" y2="5.4"/>
	<polyline display="inline" fill="none" stroke="#D1EBF4" stroke-miterlimit="10" points="6.8,5.4 34.1,5.4 46.4,-1.3 520.2,-1.3 
		532.5,5.4 559.8,5.4 	"/>
	<line display="inline" fill="none" stroke="#F29104" stroke-miterlimit="10" x1="2.8" y1="5.4" x2="3.5" y2="5.4"/>
	<line display="inline" fill="none" stroke="#F29104" stroke-miterlimit="10" x1="-8.4" y1="5.4" x2="-7.6" y2="5.4"/>
</g>
<g id="Layer_3">
	<line fill="none" stroke="#F29104" stroke-width="2" stroke-miterlimit="10" x1="116.6" y1="2.1" x2="104.7" y2="2.1"/>
	<line fill="none" stroke="#D1EBF4" stroke-miterlimit="10" x1="543.8" y1="2.1" x2="128.5" y2="2.1"/>
	<line fill="none" stroke="#D1EBF4" stroke-miterlimit="10" x1="95.2" y1="2.1" x2="16.7" y2="2.1"/>
	<circle fill="#F29104" cx="2.1" cy="2.1" r="2.1"/>
	<line fill="none" stroke="#F29104" stroke-width="2" stroke-miterlimit="10" x1="566.6" y1="2.1" x2="557.7" y2="2.1"/>
</g>
</svg>
