<?xml version="1.0" encoding="utf-8"?>
<!-- Generator: Adobe Illustrator 25.4.1, SVG Export Plug-In . SVG Version: 6.00 Build 0)  -->
<svg version="1.1" baseProfile="tiny" xmlns="http://www.w3.org/2000/svg" xmlns:xlink="http://www.w3.org/1999/xlink" x="0px"
	 y="0px" viewBox="0 0 10.9 548.3" overflow="visible" xml:space="preserve">
<g id="Layer_1" display="none">
	<line display="inline" fill="none" stroke="#F29104" stroke-width="2" stroke-miterlimit="10" x1="1" y1="7.9" x2="1" y2="20.4"/>
	<line display="inline" fill="none" stroke="#F29104" stroke-width="2" stroke-miterlimit="10" x1="1" y1="1.8" x2="1" y2="0"/>
	<line display="inline" fill="none" stroke="#F29104" stroke-width="2" stroke-miterlimit="10" x1="1" y1="28.3" x2="1" y2="26.5"/>
	<polyline display="inline" fill="none" stroke="#D1EBF4" stroke-miterlimit="10" points="10.4,454.7 1,463.1 1,519.4 10.4,511.4 
		10.4,420.3 1.5,408.8 1,39.1 	"/>
	<polygon display="inline" fill="#4958A4" points="1,548.3 7.1,543 7.1,535.9 1,541.1 	"/>
	<polygon display="inline" fill="#BDD2EE" points="1,534.5 7.1,529.3 7.1,522.2 1,527.4 	"/>
</g>
<g id="Layer_2">
	<g>
		<line fill="none" stroke="#D1EBF4" stroke-miterlimit="10" x1="3.1" y1="22.1" x2="3.1" y2="129.5"/>
		<polygon fill="none" stroke="#D1EBF4" stroke-miterlimit="10" points="0.7,18.2 0.7,20.3 3.1,22.1 3.1,20 		"/>
		<polygon fill="none" stroke="#F29104" stroke-miterlimit="10" points="0.7,10.9 0.7,13 3.1,14.9 3.1,12.7 		"/>
		<polygon fill="none" stroke="#F29104" stroke-miterlimit="10" points="0.7,2 0.7,4.2 3.1,6 3.1,3.9 		"/>
	</g>
	<line fill="none" stroke="#F29104" stroke-miterlimit="10" x1="3.1" y1="134.4" x2="3.1" y2="140.8"/>
	<line fill="none" stroke="#D1EBF4" stroke-miterlimit="10" x1="3.1" y1="526.1" x2="3.1" y2="418.8"/>
	<polygon fill="none" stroke="#D1EBF4" stroke-miterlimit="10" points="0.7,530.1 0.7,528 3.1,526.1 3.1,528.3 	"/>
	<polygon fill="none" stroke="#F29104" stroke-miterlimit="10" points="0.7,537.4 0.7,535.2 3.1,533.4 3.1,535.6 	"/>
	<polygon fill="none" stroke="#F29104" stroke-miterlimit="10" points="0.7,546.2 0.7,544.1 3.1,542.2 3.1,544.4 	"/>
	<line fill="none" stroke="#F29104" stroke-miterlimit="10" x1="3.1" y1="413.8" x2="3.1" y2="407.4"/>
	<polyline fill="none" stroke="#D1EBF4" stroke-miterlimit="10" points="3.1,144.1 3.1,162.6 10.2,170.5 10.2,377.8 3.1,385.7 
		3.1,404.2 	"/>
</g>
</svg>
