<?xml version="1.0" encoding="utf-8"?>
<!-- Generator: Adobe Illustrator 28.7.1, SVG Export Plug-In . SVG Version: 9.03 Build 54978)  -->
<svg version="1.1" baseProfile="tiny" id="Layer_1" xmlns="http://www.w3.org/2000/svg" xmlns:xlink="http://www.w3.org/1999/xlink"
	 x="0px" y="0px" viewBox="0 0 1569.3 65.8" overflow="visible" xml:space="preserve">
<rect id="_x3C_Path_x3E__opacity:30_00000009586114294286806550000015650151577220324536_" x="391.8" y="24.1" fill="#AA7BFF" width="69" height="3"/>
<path id="_x3C_Compound_Path_x3E__opacity:30_00000087391481483017889750000009521011007712487856_" fill="#AA7BFF" d="M393.7,17.1
	h-0.8v-7h4.1v0.7h-3.2v2.4h2.7v0.7h-2.7V17.1z M403.1,15.8L403.1,15.8c0-0.2,0-0.3,0-0.5v-5.2h0.8v7H403l-3.7-5.6l0,0
	c0,0.2,0.1,0.3,0.1,0.5v5.1h-0.8v-7h0.8L403.1,15.8z M410.2,17.8v0.6h-5.3v-0.6H410.2z M410.9,17.1V16c0-0.1,0-0.2,0-0.2
	c0,0,0.1-0.1,0.2-0.2l3.3-3c0.1-0.1,0.1-0.1,0.2-0.2c0-0.1,0-0.2,0-0.3v-0.9c0-0.1,0-0.2,0-0.2c0,0,0-0.1-0.1-0.1s-0.1-0.1-0.1-0.1
	c0,0-0.1,0-0.2,0h-1.8c-0.1,0-0.2,0-0.2,0c0,0-0.1,0-0.1,0.1s-0.1,0.1-0.1,0.1c0,0,0,0.1,0,0.2v0.2H411V11c0-0.2,0.1-0.4,0.2-0.5
	l0.2-0.2c0.2-0.1,0.3-0.2,0.5-0.2h2.5c0.2,0,0.3,0.1,0.5,0.2l0.2,0.2c0.2,0.1,0.2,0.3,0.2,0.5v1.4c0,0.1,0,0.2,0,0.3
	c0,0.1-0.1,0.1-0.2,0.2l-3.3,3c-0.1,0.1-0.1,0.2-0.2,0.2s0,0.1,0,0.3v0h3.7v0.7H410.9z M420.3,12.8h0.8v2h1v0.7h-1v1.6h-0.8v-1.6
	h-3.5v-0.8l3.4-4.6h0.9l-3.3,4.5c-0.1,0.1-0.1,0.2-0.2,0.2v0h2.7V12.8z"/>
<rect id="_x3C_Path_x3E__opacity:30_00000050628574125154498470000006874481490874844033_" x="1135.2" y="24.1" fill="#AA7BFF" width="69" height="3"/>
<rect id="_x3C_Path_x3E__opacity:30_00000103966073574999862210000014153729062958568577_" x="1201.2" y="30.1" fill="#AA7BFF" width="3" height="3"/>
<path id="_x3C_Compound_Path_x3E__opacity:30_00000183959535844418792390000018204805741370740918_" fill="#AA7BFF" d="M1137.1,17.1
	h-0.8v-7h4.1v0.7h-3.2v2.4h2.7v0.7h-2.7V17.1z M1146.5,15.8L1146.5,15.8c0-0.2,0-0.3,0-0.5v-5.2h0.8v7h-0.8l-3.7-5.6l0,0
	c0.1,0.2,0.1,0.3,0.1,0.5v5.1h-0.8v-7h0.8L1146.5,15.8z M1153.6,17.8v0.6h-5.3v-0.6H1153.6z M1158.4,13.6l0.4,0.3
	c0.1,0.1,0.2,0.1,0.2,0.2c0,0,0,0.1,0,0.3v1.8c0,0.1,0,0.2,0,0.3c0,0.1-0.1,0.1-0.2,0.2l-0.2,0.2c-0.2,0.2-0.3,0.2-0.5,0.2h-2.8
	c-0.2,0-0.3-0.1-0.5-0.2l-0.2-0.2c-0.2-0.1-0.2-0.3-0.2-0.5v-0.4h0.8V16c0,0.1,0,0.2,0,0.2c0,0,0,0.1,0.1,0.1c0.1,0,0.1,0.1,0.1,0.1
	c0,0,0.1,0,0.2,0h2c0.1,0,0.2,0,0.2,0c0,0,0.1,0,0.1-0.1s0.1-0.1,0.1-0.1c0,0,0-0.1,0-0.2v-1.5c0-0.1-0.1-0.3-0.2-0.4l-0.1-0.1
	c-0.1-0.1-0.2-0.1-0.2-0.2c0,0-0.1,0-0.2,0h-1.6v-0.6h1.5c0.1,0,0.2,0,0.2,0c0,0,0.1-0.1,0.2-0.1l0.2-0.1c0.1-0.1,0.2-0.1,0.2-0.2
	c0,0,0-0.1,0-0.2v-1.2c0-0.1,0-0.2,0-0.2c0,0,0-0.1-0.1-0.1c-0.1,0-0.1-0.1-0.1-0.1c0,0-0.1,0-0.2,0h-1.7c-0.1,0-0.2,0-0.2,0
	c0,0-0.1,0-0.1,0.1c-0.1,0-0.1,0.1-0.1,0.1c0,0,0,0.1,0,0.2v0.2h-0.8V11c0-0.2,0.1-0.4,0.2-0.5l0.2-0.2c0.2-0.1,0.3-0.2,0.5-0.2h2.4
	c0.2,0,0.3,0.1,0.5,0.2l0.2,0.2c0.2,0.1,0.2,0.3,0.2,0.5v1.6c0,0.1,0,0.2,0,0.2c0,0-0.1,0.1-0.2,0.1l-0.3,0.2
	c-0.1,0.1-0.2,0.1-0.3,0.1v0C1158.2,13.4,1158.2,13.5,1158.4,13.6z M1160.7,15.8h0.8V16c0,0.1,0,0.2,0,0.2c0,0,0.1,0.1,0.1,0.1
	c0.1,0,0.1,0.1,0.1,0.1c0,0,0.1,0,0.2,0h2.4c0.1,0,0.2,0,0.2,0c0,0,0.1,0,0.1-0.1c0.1,0,0.1-0.1,0.1-0.1c0,0,0-0.1,0-0.2v-2h0l0,0
	c-0.2,0.2-0.4,0.3-0.6,0.3h-2.7c-0.2,0-0.3-0.1-0.5-0.2l-0.2-0.2c-0.2-0.1-0.2-0.3-0.2-0.5V11c0-0.2,0.1-0.4,0.2-0.5l0.2-0.2
	c0.2-0.1,0.3-0.2,0.5-0.2h3.2c0.2,0,0.3,0.1,0.5,0.2l0.2,0.2c0.2,0.1,0.2,0.3,0.2,0.5v5.2c0,0.2-0.1,0.4-0.2,0.5l-0.2,0.2
	c-0.2,0.1-0.3,0.2-0.5,0.2h-3.1c-0.2,0-0.3-0.1-0.5-0.2l-0.2-0.2c-0.2-0.1-0.2-0.3-0.2-0.5V15.8z M1161.5,11.2v2.1
	c0,0.1,0,0.2,0,0.2c0,0,0.1,0.1,0.1,0.1c0.1,0,0.1,0.1,0.1,0.1c0,0,0.1,0,0.2,0h2.2c0.1,0,0.2,0,0.2,0c0.1,0,0.1-0.1,0.2-0.1
	c0.2-0.1,0.2-0.2,0.2-0.2v-2.1c0-0.1,0-0.2,0-0.2c0,0,0-0.1-0.1-0.1c-0.1,0-0.1-0.1-0.1-0.1c0,0-0.1,0-0.2,0h-2.5
	c-0.1,0-0.2,0-0.2,0c0,0-0.1,0-0.1,0.1c-0.1,0-0.1,0.1-0.1,0.1C1161.5,11,1161.5,11.1,1161.5,11.2z"/>
<rect x="25.8" y="11.1" fill="#AA7BFF" width="3" height="3"/>
<rect x="29.8" y="11.1" fill="#AA7BFF" width="3" height="3"/>
<path id="_x3C_Compound_Path_x3E__opacity:30_00000067937125252079996640000012944203219108181923_" fill="#AA7BFF" d="M39.8,14.1
	h-3v-3h3V14.1z M37.3,13.6h2v-2h-2V13.6z"/>
<path id="_x3C_Compound_Path_x3E__opacity:30_00000075162748288591251300000010124088469094989486_" fill="#AA7BFF" d="M69.8,35.1
	h-20v-3h20V35.1z M50.3,34.6h19v-2h-19V34.6z"/>
<path id="_x3C_Compound_Path_x3E__opacity:30_00000148620768002303695010000003741931905575639991_" fill="#AA7BFF" d="M74.8,35.1
	h-3v-3h3V35.1z M72.3,34.6h2v-2h-2V34.6z"/>
<g id="_x3C_Group_x3E__opacity:30_00000008144832527407652670000012396707742192315265_">
	<path fill="#AA7BFF" d="M53.4,16.7c-0.1,0.2-0.6,0.7-0.9,0.9c-0.2,0.1-0.4,0.2-0.6,0.2h-2c-0.2,0-0.5-0.1-0.6-0.2
		c-0.3-0.2-0.6-0.5-0.8-0.8c-0.1-0.1-0.2-0.3-0.3-0.5l0.7-0.2c0,0.1,0.1,0.1,0.1,0.1c0.2,0.3,0.5,0.7,0.8,0.8c0,0,0.1,0,0.2,0h2
		c0.1,0,0.1,0,0.1,0c0.2-0.1,0.6-0.5,0.8-0.7c0,0,0-0.1,0-0.2v-0.8c0-0.2-0.2-0.5-0.4-0.6l-3.4-0.9c-0.5-0.1-0.8-0.6-0.8-1.2v-0.8
		c0-0.2,0-0.4,0.1-0.6c0.1-0.2,0.6-0.7,0.9-0.9c0.2-0.1,0.4-0.2,0.6-0.2h1.8c0.2,0,0.5,0.1,0.6,0.2c0.3,0.2,0.6,0.5,0.8,0.8
		c0.1,0.1,0.2,0.3,0.3,0.5l-0.7,0.2c0-0.1-0.1-0.2-0.1-0.2c-0.2-0.3-0.5-0.7-0.8-0.8c0,0-0.1,0-0.2,0H50c-0.1,0-0.1,0-0.2,0
		c-0.2,0.1-0.6,0.4-0.8,0.7c0,0,0,0.1,0,0.2v0.8c0,0.2,0.2,0.5,0.4,0.6l3.4,0.9c0.5,0.1,0.8,0.6,0.8,1.1v0.8
		C53.6,16.3,53.5,16.6,53.4,16.7z"/>
	<path fill="#AA7BFF" d="M57.5,14.6v3.2h-0.7v-3.2l-2.3-4.2h0.8l1.9,3.5l1.9-3.5h0.8L57.5,14.6z"/>
	<path fill="#AA7BFF" d="M65.8,16.7c-0.1,0.2-0.6,0.7-0.9,0.9c-0.2,0.1-0.4,0.2-0.6,0.2h-2c-0.2,0-0.5-0.1-0.6-0.2
		c-0.3-0.2-0.6-0.5-0.8-0.8c-0.1-0.1-0.2-0.3-0.3-0.5l0.7-0.2c0,0.1,0.1,0.1,0.1,0.1c0.2,0.3,0.5,0.7,0.8,0.8c0,0,0.1,0,0.2,0h2
		c0.1,0,0.1,0,0.1,0c0.2-0.1,0.6-0.5,0.8-0.7c0,0,0-0.1,0-0.2v-0.8c0-0.2-0.2-0.5-0.4-0.6l-3.4-0.9c-0.5-0.1-0.8-0.6-0.8-1.2v-0.8
		c0-0.2,0-0.4,0.1-0.6c0.1-0.2,0.6-0.7,0.9-0.9c0.2-0.1,0.4-0.2,0.6-0.2h1.8c0.2,0,0.5,0.1,0.6,0.2c0.3,0.2,0.6,0.5,0.8,0.8
		c0.1,0.1,0.2,0.3,0.3,0.5l-0.7,0.2c0-0.1-0.1-0.2-0.1-0.2c-0.2-0.3-0.5-0.7-0.8-0.8c0,0-0.1,0-0.2,0h-1.7c-0.1,0-0.1,0-0.2,0
		c-0.2,0.1-0.6,0.4-0.8,0.7c0,0,0,0.1,0,0.2v0.8c0,0.2,0.2,0.5,0.4,0.6l3.4,0.9c0.5,0.1,0.8,0.6,0.8,1.1v0.8
		C65.9,16.3,65.9,16.6,65.8,16.7z"/>
	<path fill="#AA7BFF" d="M69.9,11v6.7h-0.7V11h-2.1v-0.7H72V11H69.9z"/>
	<path fill="#AA7BFF" d="M73.4,17.7v-7.4h4.2V11h-3.5v2.7h3.3v0.7h-3.3V17h3.5v0.7H73.4z"/>
	<path fill="#AA7BFF" d="M84.9,17.7v-6.6l-2.1,4.7h-0.5l-2.1-4.7v6.6h-0.7v-7.4h1l2,4.3l2-4.3h1v7.4H84.9z"/>
</g>
<g id="_x3C_Group_x3E__opacity:30_00000111897445484418995080000016403132014719630757_">
	<path fill="#AA7BFF" d="M231.3,16.7c-0.1,0.2-0.6,0.7-0.9,0.9c-0.2,0.1-0.4,0.2-0.6,0.2h-2c-0.2,0-0.5-0.1-0.6-0.2
		c-0.3-0.2-0.6-0.5-0.8-0.8c-0.1-0.1-0.2-0.3-0.3-0.5l0.7-0.2c0,0.1,0.1,0.1,0.1,0.1c0.2,0.3,0.5,0.7,0.8,0.8c0,0,0.1,0,0.2,0h2
		c0.1,0,0.1,0,0.1,0c0.2-0.1,0.6-0.5,0.8-0.7c0,0,0-0.1,0-0.2v-0.8c0-0.2-0.2-0.5-0.4-0.6l-3.4-0.9c-0.5-0.1-0.8-0.6-0.8-1.2v-0.8
		c0-0.2,0-0.4,0.1-0.6c0.1-0.2,0.6-0.7,0.9-0.9c0.2-0.1,0.4-0.2,0.6-0.2h1.8c0.2,0,0.5,0.1,0.6,0.2c0.3,0.2,0.6,0.5,0.8,0.8
		c0.1,0.1,0.2,0.3,0.3,0.5l-0.7,0.2c0-0.1-0.1-0.2-0.1-0.2c-0.2-0.3-0.5-0.7-0.8-0.8c0,0-0.1,0-0.2,0h-1.7c-0.1,0-0.1,0-0.2,0
		c-0.2,0.1-0.6,0.4-0.8,0.7c0,0,0,0.1,0,0.2v0.8c0,0.2,0.2,0.5,0.4,0.6l3.4,0.9c0.5,0.1,0.8,0.6,0.8,1.1v0.8
		C231.5,16.3,231.5,16.5,231.3,16.7z"/>
	<path fill="#AA7BFF" d="M235.5,11v6.7h-0.7V11h-2.1v-0.7h4.9V11H235.5z"/>
	<path fill="#AA7BFF" d="M242.4,16H239l-0.6,1.7h-0.8l2.5-7.4h1.1l2.5,7.4H243L242.4,16z M242.2,15.3l-1.4-4.3h-0.2l-1.4,4.3H242.2z
		"/>
	<path fill="#AA7BFF" d="M246.7,11v6.7h-0.7V11h-2.1v-0.7h4.9V11H246.7z"/>
	<path fill="#AA7BFF" d="M254.9,16.7c-0.1,0.2-0.6,0.7-0.8,0.9c-0.2,0.1-0.4,0.2-0.6,0.2h-1.7c-0.2,0-0.5-0.1-0.6-0.2
		c-0.2-0.1-0.7-0.6-0.8-0.9c-0.1-0.2-0.2-0.4-0.2-0.6v-5.8h0.7v5.8c0,0.1,0,0.1,0,0.2c0.2,0.3,0.6,0.7,0.8,0.8c0,0,0.1,0,0.2,0h1.5
		c0.1,0,0.1,0,0.2,0c0.2-0.1,0.6-0.5,0.8-0.8c0,0,0-0.1,0-0.2v-5.8h0.7v5.8C255.1,16.3,255,16.5,254.9,16.7z"/>
	<path fill="#AA7BFF" d="M261.9,16.7c-0.1,0.2-0.6,0.7-0.9,0.9c-0.2,0.1-0.4,0.2-0.6,0.2h-2c-0.2,0-0.5-0.1-0.6-0.2
		c-0.3-0.2-0.6-0.5-0.8-0.8c-0.1-0.1-0.2-0.3-0.3-0.5l0.7-0.2c0,0.1,0.1,0.1,0.1,0.1c0.2,0.3,0.5,0.7,0.8,0.8c0,0,0.1,0,0.2,0h2
		c0.1,0,0.1,0,0.1,0c0.2-0.1,0.6-0.5,0.8-0.7c0,0,0-0.1,0-0.2v-0.8c0-0.2-0.2-0.5-0.4-0.6l-3.4-0.9c-0.5-0.1-0.8-0.6-0.8-1.2v-0.8
		c0-0.2,0-0.4,0.1-0.6c0.1-0.2,0.6-0.7,0.9-0.9c0.2-0.1,0.4-0.2,0.6-0.2h1.8c0.2,0,0.5,0.1,0.6,0.2c0.3,0.2,0.6,0.5,0.8,0.8
		c0.1,0.1,0.2,0.3,0.3,0.5l-0.7,0.2c0-0.1-0.1-0.2-0.1-0.2c-0.2-0.3-0.5-0.7-0.8-0.8c0,0-0.1,0-0.2,0h-1.7c-0.1,0-0.1,0-0.2,0
		c-0.2,0.1-0.6,0.4-0.8,0.7c0,0,0,0.1,0,0.2v0.8c0,0.2,0.2,0.5,0.4,0.6l3.4,0.9c0.5,0.1,0.8,0.6,0.8,1.1v0.8
		C262,16.3,262,16.5,261.9,16.7z"/>
	<path fill="#AA7BFF" d="M263.5,14.2v-1h1v1H263.5z M263.5,17.7v-1h1v1H263.5z"/>
</g>
<g id="_x3C_Group_x3E__opacity:50_00000097487443098467915850000005793554117892309139_">
	<path fill="#0C9200" d="M274.3,17.7l-3.2-6.3v6.3h-0.7v-7.4h1l3.2,6.4v-6.4h0.7v7.4H274.3z"/>
	<path fill="#0C9200" d="M282.2,16.7c-0.1,0.2-0.6,0.7-0.8,0.9c-0.2,0.1-0.4,0.2-0.6,0.2h-2c-0.2,0-0.5-0.1-0.6-0.2
		c-0.2-0.1-0.7-0.6-0.9-0.9c-0.1-0.2-0.1-0.4-0.1-0.6v-4.2c0-0.2,0-0.4,0.1-0.6c0.1-0.2,0.6-0.7,0.9-0.9c0.2-0.1,0.4-0.2,0.6-0.2h2
		c0.2,0,0.5,0.1,0.6,0.2c0.2,0.1,0.7,0.7,0.8,0.9c0.1,0.2,0.2,0.4,0.2,0.6v4.2C282.3,16.3,282.3,16.5,282.2,16.7z M281.6,11.9
		c0-0.1,0-0.1,0-0.2c-0.2-0.3-0.6-0.7-0.8-0.8c0,0-0.1,0-0.2,0h-1.8c-0.1,0-0.1,0-0.2,0c-0.2,0.1-0.6,0.5-0.8,0.8c0,0,0,0.1,0,0.2
		V16c0,0.1,0,0.1,0,0.2c0.2,0.3,0.6,0.7,0.8,0.8c0,0,0.1,0,0.2,0h1.8c0.1,0,0.1,0,0.2,0c0.2-0.1,0.6-0.5,0.8-0.8c0,0,0-0.1,0-0.2
		V11.9z"/>
	<path fill="#0C9200" d="M288.9,13.5c-0.1,0.1-0.5,0.5-0.6,0.6c-0.2,0.1-0.4,0.2-0.7,0.2l1.8,3.3h-0.8l-1.8-3.3h-1.9v3.3h-0.7v-7.4
		h3.3c0.3,0,0.5,0.1,0.7,0.2c0.2,0.1,0.5,0.5,0.6,0.7c0.1,0.2,0.2,0.4,0.2,0.6v1.1C289.1,13.1,289,13.3,288.9,13.5z M288.3,11.8
		c0-0.1,0-0.2,0-0.2c-0.1-0.2-0.4-0.5-0.6-0.6c-0.1,0-0.1,0-0.2,0h-2.6v2.8h2.6c0.1,0,0.1,0,0.2,0c0.2-0.1,0.5-0.4,0.6-0.6
		c0,0,0-0.1,0-0.2V11.8z"/>
	<path fill="#0C9200" d="M296.4,17.7V11l-2.1,4.7h-0.5l-2.1-4.7v6.6H291v-7.4h1l2,4.3l2-4.3h1v7.4H296.4z"/>
	<path fill="#0C9200" d="M303.1,15.9h-3.4l-0.6,1.7h-0.8l2.5-7.4h1.1l2.5,7.4h-0.8L303.1,15.9z M302.9,15.2l-1.4-4.3h-0.2l-1.4,4.3
		H302.9z"/>
	<path fill="#0C9200" d="M305.6,17.7v-7.4h0.7V17h3.5v0.7H305.6z"/>
</g>
<g id="_x3C_Group_x3E__opacity:30_00000116951507723769314800000015321277637070563007_">
	<path fill="#AA7BFF" d="M87.9,14.3v-0.9h0.9v0.9H87.9z M87.9,17.7v-0.9h0.9v0.9H87.9z"/>
	<path fill="#AA7BFF" d="M97.9,17.7l-0.1-0.6c-0.1,0.2-0.3,0.4-0.4,0.5c-0.2,0.1-0.4,0.2-0.6,0.2h-1.8c-0.2,0-0.5-0.1-0.6-0.2
		c-0.2-0.1-0.7-0.6-0.8-0.8c-0.1-0.2-0.2-0.4-0.2-0.6v-4.1c0-0.2,0-0.4,0.2-0.6c0.1-0.2,0.6-0.7,0.8-0.8c0.2-0.1,0.4-0.2,0.6-0.2
		h1.8c0.2,0,0.5,0.1,0.6,0.2c0.3,0.2,0.6,0.5,0.7,0.8c0.1,0.1,0.2,0.3,0.3,0.5l-0.7,0.2c-0.1-0.3-0.6-0.8-0.8-0.9c0,0-0.1,0-0.2,0
		H95c-0.1,0-0.1,0-0.2,0c-0.2,0.1-0.6,0.5-0.8,0.8c0,0,0,0.1,0,0.2v4c0,0.1,0,0.1,0,0.2c0.2,0.3,0.6,0.7,0.8,0.8c0,0,0.1,0,0.2,0
		h1.7c0.1,0,0.1,0,0.2,0c0.2-0.1,0.6-0.5,0.8-0.8c0,0,0-0.1,0-0.2v-1.7H96v-0.7h2.3v2.6c0,0.3,0.1,1.1,0.2,1.4H97.9z"/>
	<path fill="#AA7BFF" d="M104.3,16.1H101l-0.6,1.7h-0.7l2.4-7.2h1.1l2.4,7.2h-0.7L104.3,16.1z M104.1,15.4l-1.4-4.2h-0.2l-1.4,4.2
		H104.1z"/>
	<path fill="#AA7BFF" d="M112,17.7v-6.5l-2.1,4.5h-0.5l-2-4.5v6.5h-0.7v-7.2h1l2,4.2l2-4.2h1v7.2H112z"/>
	<path fill="#AA7BFF" d="M114.6,17.7v-7.2h4.1v0.7h-3.4v2.6h3.3v0.7h-3.3v2.6h3.4v0.7H114.6z"/>
	<path fill="#AA7BFF" d="M128.5,17.7v-6.5l-2.1,4.5H126l-2-4.5v6.5h-0.7v-7.2h1l2,4.2l2-4.2h1v7.2H128.5z"/>
	<path fill="#AA7BFF" d="M135.9,16.8c-0.1,0.2-0.6,0.7-0.8,0.8c-0.2,0.1-0.4,0.2-0.6,0.2h-1.9c-0.2,0-0.4-0.1-0.6-0.2
		c-0.2-0.1-0.7-0.6-0.8-0.8c-0.1-0.2-0.1-0.4-0.1-0.6v-4.1c0-0.2,0-0.4,0.1-0.6c0.1-0.2,0.6-0.7,0.8-0.8c0.2-0.1,0.4-0.2,0.6-0.2
		h1.9c0.2,0,0.5,0.1,0.6,0.2c0.2,0.1,0.7,0.6,0.8,0.8c0.1,0.2,0.2,0.4,0.2,0.6v4.1C136.1,16.4,136,16.6,135.9,16.8z M135.4,12.1
		c0-0.1,0-0.1,0-0.2c-0.2-0.3-0.6-0.7-0.8-0.8c0,0-0.1,0-0.2,0h-1.8c-0.1,0-0.1,0-0.2,0c-0.2,0.1-0.6,0.5-0.7,0.8c0,0,0,0.1,0,0.2v4
		c0,0.1,0,0.1,0,0.2c0.2,0.3,0.6,0.7,0.7,0.8c0,0,0.1,0,0.2,0h1.8c0.1,0,0.1,0,0.2,0c0.2-0.1,0.6-0.5,0.8-0.8c0,0,0-0.1,0-0.2V12.1z
		"/>
	<path fill="#AA7BFF" d="M142.5,16.7c-0.1,0.2-0.6,0.7-0.8,0.8c-0.2,0.1-0.4,0.2-0.6,0.2h-3.2v-7.2h3.2c0.2,0,0.4,0.1,0.6,0.2
		c0.2,0.1,0.7,0.6,0.8,0.9c0.1,0.2,0.1,0.4,0.1,0.6v4C142.6,16.3,142.6,16.5,142.5,16.7z M141.9,12c-0.2-0.3-0.6-0.6-0.7-0.7
		c0,0-0.1,0-0.2,0h-2.4v5.9h2.4c0.1,0,0.1,0,0.2,0c0.2-0.1,0.6-0.5,0.7-0.8c0,0,0-0.1,0-0.2v-3.9C141.9,12.1,141.9,12,141.9,12z"/>
	<path fill="#AA7BFF" d="M144.4,17.7v-7.2h4.1v0.7h-3.4v2.6h3.3v0.7h-3.3v2.6h3.4v0.7H144.4z"/>
	<path fill="#AA7BFF" d="M157.9,16.8c-0.1,0.2-0.6,0.7-0.8,0.8c-0.2,0.1-0.4,0.2-0.6,0.2h-2c-0.2,0-0.5-0.1-0.6-0.2
		c-0.3-0.2-0.6-0.5-0.7-0.8c-0.1-0.1-0.2-0.3-0.3-0.5l0.7-0.2c0,0.1,0.1,0.1,0.1,0.1c0.2,0.3,0.5,0.6,0.7,0.8c0,0,0.1,0,0.2,0h1.9
		c0.1,0,0.1,0,0.1,0c0.2-0.1,0.6-0.4,0.8-0.7c0,0,0-0.1,0-0.2v-0.8c0-0.2-0.2-0.5-0.4-0.6l-3.3-0.9c-0.5-0.1-0.7-0.6-0.7-1.1v-0.7
		c0-0.2,0-0.4,0.1-0.6c0.1-0.2,0.6-0.7,0.8-0.8c0.2-0.1,0.4-0.2,0.6-0.2h1.8c0.2,0,0.4,0.1,0.6,0.2c0.3,0.2,0.6,0.5,0.7,0.8
		c0.1,0.1,0.2,0.3,0.3,0.5l-0.7,0.2c0-0.1-0.1-0.2-0.1-0.2c-0.2-0.3-0.5-0.6-0.7-0.8c0,0-0.1,0-0.2,0h-1.7c-0.1,0-0.1,0-0.2,0
		c-0.2,0.1-0.6,0.4-0.7,0.7c0,0,0,0.1,0,0.2v0.8c0,0.2,0.2,0.5,0.4,0.5l3.3,0.9c0.5,0.1,0.8,0.6,0.8,1.1v0.8
		C158.1,16.4,158.1,16.6,157.9,16.8z"/>
	<path fill="#AA7BFF" d="M159.7,17.7v-7.2h4.1v0.7h-3.4v2.6h3.3v0.7h-3.3v2.6h3.4v0.7H159.7z"/>
	<path fill="#AA7BFF" d="M165.7,17.7v-7.2h0.7v6.5h3.4v0.7H165.7z"/>
	<path fill="#AA7BFF" d="M171.1,17.7v-7.2h4.1v0.7h-3.4v2.6h3.3v0.7h-3.3v2.6h3.4v0.7H171.1z"/>
	<path fill="#AA7BFF" d="M181.6,16.8c-0.2,0.2-0.5,0.6-0.7,0.8c-0.2,0.1-0.4,0.2-0.6,0.2h-1.6c-0.2,0-0.5-0.1-0.6-0.2
		c-0.2-0.1-0.7-0.6-0.8-0.8c-0.1-0.2-0.2-0.4-0.2-0.6v-4.1c0-0.2,0-0.4,0.2-0.6c0.1-0.2,0.6-0.7,0.8-0.8c0.2-0.1,0.4-0.2,0.6-0.2
		h1.6c0.2,0,0.4,0.1,0.6,0.2c0.3,0.2,0.6,0.5,0.7,0.8c0.1,0.1,0.2,0.3,0.3,0.5l-0.7,0.2c-0.1-0.3-0.6-0.8-0.8-0.9c0,0-0.1,0-0.2,0
		h-1.5c-0.1,0-0.1,0-0.2,0c-0.2,0.1-0.6,0.5-0.8,0.8c0,0,0,0.1,0,0.2v4.1c0,0.1,0,0.1,0,0.2c0.2,0.3,0.6,0.7,0.8,0.8
		c0,0,0.1,0,0.2,0h1.5c0.1,0,0.1,0,0.2,0c0.3-0.1,0.6-0.6,0.8-0.9l0.7,0.2C181.8,16.5,181.7,16.7,181.6,16.8z"/>
	<path fill="#AA7BFF" d="M185.6,11.2v6.5h-0.7v-6.5h-2.1v-0.7h4.8v0.7H185.6z"/>
	<path fill="#AA7BFF" d="M189,17.7v-7.2h0.7v7.2H189z"/>
	<path fill="#AA7BFF" d="M196.5,16.8c-0.1,0.2-0.6,0.7-0.8,0.8c-0.2,0.1-0.4,0.2-0.6,0.2h-1.9c-0.2,0-0.4-0.1-0.6-0.2
		c-0.2-0.1-0.7-0.6-0.8-0.8c-0.1-0.2-0.1-0.4-0.1-0.6v-4.1c0-0.2,0-0.4,0.1-0.6c0.1-0.2,0.6-0.7,0.8-0.8c0.2-0.1,0.4-0.2,0.6-0.2
		h1.9c0.2,0,0.5,0.1,0.6,0.2c0.2,0.1,0.7,0.6,0.8,0.8c0.1,0.2,0.2,0.4,0.2,0.6v4.1C196.6,16.4,196.6,16.6,196.5,16.8z M195.9,12.1
		c0-0.1,0-0.1,0-0.2c-0.2-0.3-0.6-0.7-0.8-0.8c0,0-0.1,0-0.2,0h-1.8c-0.1,0-0.1,0-0.2,0c-0.2,0.1-0.6,0.5-0.7,0.8c0,0,0,0.1,0,0.2v4
		c0,0.1,0,0.1,0,0.2c0.2,0.3,0.6,0.7,0.7,0.8c0,0,0.1,0,0.2,0h1.8c0.1,0,0.1,0,0.2,0c0.2-0.1,0.6-0.5,0.8-0.8c0,0,0-0.1,0-0.2V12.1z
		"/>
	<path fill="#AA7BFF" d="M202.2,17.7l-3.1-6.1v6.1h-0.7v-7.2h0.9l3.1,6.2v-6.2h0.7v7.2H202.2z"/>
</g>
<g>
	<path id="_x3C_Path_x3E__opacity:30_00000075121078119190194230000014550053019214755976_" fill="#AA7BFF" d="M1038,60H531.3
		c-6.8,0-13.4-2.8-18.2-7.6l-42.8-44c-4.6-4.7-11-7.3-17.5-7.3H24V0h428.8c6.8,0,13.4,2.8,18.2,7.6l42.8,44c4.6,4.7,11,7.3,17.5,7.3
		H1038c6.8,0,13.3-2.8,17.9-7.8l40.2-43.1c4.8-5.2,11.6-8.1,18.6-8.1h430.6v1h-430.6c-6.8,0-13.3,2.8-17.9,7.8l-40.2,43.1
		C1051.8,57,1045,60,1038,60z"/>
	<path id="_x3C_Path_x3E__opacity:30_00000176754557862284646570000017168385713055745156_" fill="#AA7BFF" d="M1042.9,65.8H527.4
		c-6.8,0-13.1-2.6-17.9-7.4l-38.3-38.8l0.4-0.4L509.8,58c4.7,4.7,10.9,7.3,17.6,7.3h515.5c6.9,0,13.5-2.9,18.2-7.9l35.8-38.2
		l0.4,0.3l-35.8,38.2C1056.6,62.8,1049.9,65.8,1042.9,65.8z"/>
	<polygon fill="#AA7BFF" points="0,0 0,2 10,2 10,3 14,3 14,2 14,0 	"/>
	<polygon fill="#AA7BFF" points="1555.3,0 1555.3,2 1555.3,3 1559.3,3 1559.3,2 1569.3,2 1569.3,0 	"/>
	
		<rect id="_x3C_Rectangle_x3E__opacity:10_00000044883119599749713270000001300421765753594531_" x="874.9" y="36.5" fill="#AA7BFF" width="9" height="9"/>
	<rect id="_x3C_Rectangle_x3E__opacity:20" x="885.1" y="36.5" fill="#AA7BFF" width="9" height="9"/>
	
		<rect id="_x3C_Rectangle_x3E__opacity:20_00000103265220243297458290000007469691622407505540_" x="907" y="36.5" fill="#AA7BFF" width="9" height="9"/>
	
		<rect id="_x3C_Rectangle_x3E__opacity:10_00000023270764517438427800000014385585921944874686_" x="927.9" y="36.5" fill="#AA7BFF" width="9" height="9"/>
	
		<rect id="_x3C_Rectangle_x3E__opacity:10_00000013165400046830288010000014542058375775785919_" x="990.7" y="36.5" fill="#AA7BFF" width="9" height="9"/>
	
		<rect id="_x3C_Rectangle_x3E__opacity:20_00000010299907522601336360000012948167019096258970_" x="1000.8" y="36.5" fill="#AA7BFF" width="9" height="9"/>
	<rect id="_x3C_Rectangle_x3E__opacity:05" x="1021.7" y="36.5" fill="#AA7BFF" width="9" height="9"/>
	
		<rect id="_x3C_Rectangle_x3E__opacity:10_00000133520603362400674170000014570236517668929471_" x="1033.8" y="36.5" fill="#AA7BFF" width="9" height="9"/>
	<rect id="_x3C_Rectangle_x3E__opacity:40" x="954.5" y="36.5" fill="#AA7BFF" width="3" height="9"/>
	
		<rect id="_x3C_Rectangle_x3E__opacity:40_00000078012953348413734700000013386479043025692809_" x="973.2" y="36.5" fill="#AA7BFF" width="3" height="9"/>
</g>
</svg>
