<?xml version="1.0" encoding="utf-8"?>
<!-- Generator: Adobe Illustrator 28.7.1, SVG Export Plug-In . SVG Version: 9.03 Build 54978)  -->
<svg version="1.1" baseProfile="tiny" id="Layer_1" xmlns="http://www.w3.org/2000/svg" xmlns:xlink="http://www.w3.org/1999/xlink"
	 x="0px" y="0px" viewBox="0 0 379 155.5" overflow="visible" xml:space="preserve">
<rect id="_x3C_Path_x3E__opacity:100_00000081618444125741933710000006849261402225131410_" y="0" fill="#AAFF47" width="2" height="155.5"/>
<g id="_x3C_Group_x3E__00000166663384178112836640000014318057179951009691_">
	<polygon id="_x3C_Path_x3E__opacity:50_00000082352358007246103690000016271763325383448731_" fill="#AA7BFF" points="362.5,13 
		362.5,8 362,8 362,15.5 363,15.5 363,13 	"/>
	<polygon id="_x3C_Path_x3E__opacity:50_00000022547387355637209050000005733170736780212118_" fill="#AA7BFF" points="362,147.5 
		362.5,147.5 362.5,142.5 363,142.5 363,140 362,140 	"/>
	
		<rect id="_x3C_Path_x3E__opacity:50_00000036216460501034586890000018242176785704793501_" x="362" y="22" fill="#AA7BFF" width="1" height="111"/>
</g>
<path id="_x3C_Compound_Path_x3E__opacity:100_00000016077546626216557680000015123398824518298036_" fill="#AA7BFF" d="M378,1v23.3
	l-2.9,1.2l-0.6,0.3v0.7v100v0.7l0.6,0.3l2.9,1.2v25.8H4.5V1H378 M379,0H3.5v155.5H379V128l-3.5-1.5v-100L379,25V0L379,0z"/>
</svg>
