<?xml version="1.0" encoding="utf-8"?>
<!-- Generator: Adobe Illustrator 26.0.1, SVG Export Plug-In . SVG Version: 6.00 Build 0)  -->
<svg version="1.1" baseProfile="tiny" id="Layer_1" xmlns="http://www.w3.org/2000/svg" xmlns:xlink="http://www.w3.org/1999/xlink"
	 x="0px" y="0px" viewBox="0 0 1920 1080" overflow="visible" xml:space="preserve">
<path fill="#3969AE" d="M1116,508.5l-68.2-56.3L991.5,384c-1.4-1.7-3.4-2.6-5.6-2.6h-51.8c-2.2,0-4.2,1-5.6,2.6l-56.3,68.2
	L804,508.5c-1.7,1.4-2.6,3.4-2.6,5.6v51.8c0,2.2,1,4.2,2.6,5.6l68.2,56.3l56.3,68.2c1.4,1.7,3.4,2.6,5.6,2.6h51.8
	c2.2,0,4.2-1,5.6-2.6l56.3-68.2l68.2-56.3c1.7-1.4,2.6-3.4,2.6-5.6v-51.8C1118.6,511.9,1117.7,509.9,1116,508.5z M995.3,669.2
	c-1.9,2.3-4.8,3.7-7.9,3.7h-54.9c-3.1,0-5.9-1.4-7.9-3.7l-5.3-6.3v-9.2c0-3.1-1.4-5.9-3.7-7.9l-33.6-27.9l-27.9-33.6
	c-1.9-2.3-4.8-3.7-7.9-3.7h-9.2l-6.3-5.3c-2.3-1.9-3.7-4.8-3.7-7.9v-54.9c0-3.1,1.4-5.9,3.7-7.9l6.3-5.3h9.2c3.1,0,5.9-1.4,7.9-3.7
	l27.9-33.6l33.6-27.9c2.3-1.9,3.7-4.8,3.7-7.9v-9.2l5.3-6.3c1.9-2.3,4.8-3.7,7.9-3.7h54.9c3.1,0,5.9,1.4,7.9,3.7l5.3,6.3v9.2
	c0,3.1,1.4,5.9,3.7,7.9l33.6,27.9l27.9,33.6c1.9,2.3,4.8,3.7,7.9,3.7h9.2l6.3,5.3c2.3,1.9,3.7,4.8,3.7,7.9v54.9
	c0,3.1-1.4,5.9-3.7,7.9l-6.3,5.3h-9.2c-3.1,0-5.9,1.4-7.9,3.7l-27.9,33.6l-33.6,27.9c-2.3,1.9-3.7,4.8-3.7,7.9v9.2L995.3,669.2z"/>
</svg>
