<?xml version="1.0" encoding="utf-8"?>
<!-- Generator: Adobe Illustrator 26.0.1, SVG Export Plug-In . SVG Version: 6.00 Build 0)  -->
<svg version="1.1" baseProfile="tiny" id="Layer_1" xmlns="http://www.w3.org/2000/svg" xmlns:xlink="http://www.w3.org/1999/xlink"
	 x="0px" y="0px" viewBox="0 0 1920 1080" overflow="visible" xml:space="preserve">
<g>
	<path fill="#FFFFFF" d="M1622.3,731.9h9c0.5,0,0.7-0.6,0.4-0.9l-11.5-11.4c-0.2-0.2-0.2-0.5,0-0.7l11.5-11.4
		c0.3-0.3,0.1-0.9-0.4-0.9h-9c-0.1,0-0.3,0.1-0.4,0.2l-12.3,12.1c-0.2,0.2-0.2,0.5,0,0.7l12.3,12.1
		C1622,731.8,1622.2,731.9,1622.3,731.9z"/>
	<path fill="#FFFFFF" d="M1613.8,731.9h2.2c0.5,0,0.7-0.6,0.4-0.9l-11.5-11.4c-0.2-0.2-0.2-0.5,0-0.7l11.5-11.4
		c0.3-0.3,0.1-0.9-0.4-0.9h-2.2c-0.1,0-0.3,0.1-0.4,0.2l-12.3,12.1c-0.2,0.2-0.2,0.5,0,0.7l12.3,12.1
		C1613.6,731.8,1613.7,731.9,1613.8,731.9z"/>
</g>
</svg>
