<?xml version="1.0" encoding="utf-8"?>
<!-- Generator: Adobe Illustrator 26.0.1, SVG Export Plug-In . SVG Version: 6.00 Build 0)  -->
<svg version="1.1" baseProfile="tiny" id="Layer_1" xmlns="http://www.w3.org/2000/svg" xmlns:xlink="http://www.w3.org/1999/xlink"
	 x="0px" y="0px" viewBox="0 0 1920 1080" overflow="visible" xml:space="preserve">
<path fill="#466BEC" d="M987.4,414.1c1,0,1.9,0.4,2.5,1.2l3.6,4.4v6.7c0,5.1,2.3,10,6.2,13.3l33.1,27.5l27.5,33.1
	c3.3,4,8.1,6.2,13.3,6.2h6.7l4.4,3.6c0.8,0.6,1.2,1.5,1.2,2.5v54.9c0,1-0.4,1.9-1.2,2.5l-4.4,3.6h-6.7c-5.1,0-10,2.3-13.3,6.2
	l-27.5,33.1l-33.1,27.5c-4,3.3-6.2,8.1-6.2,13.3v6.7l-3.6,4.4c-0.6,0.8-1.5,1.2-2.5,1.2h-54.9c-1,0-1.9-0.4-2.5-1.2l-3.6-4.4v-6.7
	c0-5.1-2.3-10-6.2-13.3l-33.1-27.5l-27.5-33.1c-3.3-4-8.1-6.2-13.3-6.2h-6.7l-4.4-3.6c-0.8-0.6-1.2-1.5-1.2-2.5v-54.9
	c0-1,0.4-1.9,1.2-2.5l4.4-3.6h6.7c5.1,0,10-2.3,13.3-6.2l27.5-33.1l33.1-27.5c4-3.3,6.2-8.1,6.2-13.3v-6.7l3.6-4.4
	c0.6-0.8,1.5-1.2,2.5-1.2H987.4"/>
</svg>
