<?xml version="1.0" encoding="utf-8"?>
<!-- Generator: Adobe Illustrator 26.0.1, SVG Export Plug-In . SVG Version: 6.00 Build 0)  -->
<svg version="1.1" baseProfile="tiny" id="Layer_1" xmlns="http://www.w3.org/2000/svg" xmlns:xlink="http://www.w3.org/1999/xlink"
	 x="0px" y="0px" viewBox="0 0 1920 1080" overflow="visible" xml:space="preserve">
<g>
	<path fill="#FFFFFF" d="M1284.2,706.5h-9c-0.5,0-0.7,0.6-0.4,0.9l11.5,11.4c0.2,0.2,0.2,0.5,0,0.7l-11.5,11.4
		c-0.3,0.3-0.1,0.9,0.4,0.9h9c0.1,0,0.3-0.1,0.4-0.2l12.3-12.1c0.2-0.2,0.2-0.5,0-0.7l-12.3-12.1
		C1284.5,706.6,1284.4,706.5,1284.2,706.5z"/>
	<path fill="#FFFFFF" d="M1292.7,706.5h-2.2c-0.5,0-0.7,0.6-0.4,0.9l11.5,11.4c0.2,0.2,0.2,0.5,0,0.7l-11.5,11.4
		c-0.3,0.3-0.1,0.9,0.4,0.9h2.2c0.1,0,0.3-0.1,0.4-0.2l12.3-12.1c0.2-0.2,0.2-0.5,0-0.7l-12.3-12.1
		C1293,706.6,1292.8,706.5,1292.7,706.5z"/>
</g>
</svg>
