<?xml version="1.0" encoding="utf-8"?>
<!-- Generator: Adobe Illustrator 26.0.1, SVG Export Plug-In . SVG Version: 6.00 Build 0)  -->
<svg version="1.1" baseProfile="tiny" id="Layer_1" xmlns="http://www.w3.org/2000/svg" xmlns:xlink="http://www.w3.org/1999/xlink"
	 x="0px" y="0px" viewBox="0 0 1920 1080" overflow="visible" xml:space="preserve">
<g>
	<g>
		<path fill="#FFFFFF" d="M345.1,774.6c-1.3-0.7-2.9-1.3-4.8-1.7c-1.8-0.4-3.8-0.6-6-0.6h-27.8c-0.5,0-0.9,0.4-0.9,0.9v34.1
			c0,0.5,0.4,0.9,0.9,0.9h6.1c0.5,0,0.9-0.4,0.9-0.9v-10.5c0-0.5,0.4-0.9,0.9-0.9h19.7c4.9,0,8.7-0.8,11.4-2.5
			c2.6-1.6,3.9-4.1,3.9-7.3v-5.5c0-1.3-0.4-2.4-1.1-3.4C347.5,776.2,346.5,775.3,345.1,774.6z M341.6,786c0,2.2-2.4,3.2-7.2,3.2h-20
			c-0.5,0-0.9-0.4-0.9-0.9v-8.5c0-0.5,0.4-0.9,0.9-0.9h20c0.9,0,1.7,0.1,2.6,0.2c0.9,0.1,1.6,0.3,2.3,0.6c0.7,0.3,1.2,0.6,1.6,0.9
			c0.4,0.4,0.6,0.7,0.6,1.2V786z"/>
		<path fill="#FFFFFF" d="M389.3,801.5h-18.5c-1.8,0-3.3,0-4.6-0.1c-1.2-0.1-2.2-0.3-3-0.5c-0.8-0.2-1.3-0.5-1.6-0.9
			c-0.3-0.4-0.5-0.8-0.5-1.4v-25.2c0-0.5-0.4-0.9-0.9-0.9h-6.1c-0.5,0-0.9,0.4-0.9,0.9v25.2c0,1.7,0.3,3.1,1,4.4
			c0.6,1.2,1.7,2.2,3.1,3c1.4,0.8,3.2,1.4,5.3,1.8c2.2,0.4,4.8,0.6,7.8,0.6h18.8c0.5,0,0.9-0.4,0.9-0.9v-5
			C390.2,801.8,389.8,801.5,389.3,801.5z"/>
		<path fill="#FFFFFF" d="M476.2,772.3h-37.7c-0.5,0-0.9,0.4-0.9,0.9v5c0,0.5,0.4,0.9,0.9,0.9h14.1c0.5,0,0.9,0.4,0.9,0.9v27.5
			c0,0.5,0.4,0.9,0.9,0.9h6.1c0.5,0,0.9-0.4,0.9-0.9v-27.5c0-0.5,0.4-0.9,0.9-0.9h14.1c0.5,0,0.9-0.4,0.9-0.9v-5
			C477,772.7,476.6,772.3,476.2,772.3z"/>
		<path fill="#FFFFFF" d="M487.3,772.4h-6.1c-0.5,0-0.9,0.4-0.9,0.9v34.1c0,0.5,0.4,0.9,0.9,0.9h6.1c0.5,0,0.9-0.4,0.9-0.9v-34.1
			C488.1,772.8,487.7,772.4,487.3,772.4z"/>
		<path fill="#FFFFFF" d="M535,772.4h-6.1c-0.5,0-0.9,0.4-0.9,0.9v22.5c0,0.7-0.9,1.1-1.4,0.6l-25.5-22.2c-1.5-1.3-3.1-2-4.8-2
			c-2.5,0-3.7,1.5-3.7,4.5v30.7c0,0.5,0.4,0.9,0.9,0.9h6.1c0.5,0,0.9-0.4,0.9-0.9v-22.5c0-0.7,0.9-1.1,1.4-0.6l25.8,22.5
			c1.4,1.2,2.9,1.8,4.4,1.8c2.6,0,3.9-1.6,3.9-4.7v-30.6C535.9,772.8,535.5,772.4,535,772.4z"/>
		<path fill="#FFFFFF" d="M582.2,772.4h-6c-0.5,0-0.9,0.4-0.9,0.9v24.2c0,2.6-2.8,4-8.5,4h-10.5c-5.8,0-8.6-1.3-8.6-4v-24.2
			c0-0.5-0.4-0.9-0.9-0.9h-6.1c-0.5,0-0.9,0.4-0.9,0.9v24.6c0,1.6,0.3,3,0.8,4.1c0.5,1.1,1.2,2.1,2.1,2.9c0.9,0.8,1.9,1.4,3.1,1.8
			c1.2,0.4,2.4,0.8,3.7,1c1.3,0.2,2.6,0.4,3.9,0.4c1.3,0,2.6,0.1,3.8,0.1h8.5c6,0,10.4-0.8,13.2-2.5c2.8-1.7,4.1-4.3,4.1-7.8v-24.6
			C583.1,772.8,582.7,772.4,582.2,772.4z"/>
		<path fill="#FFFFFF" d="M641.3,772.1c-1.7,0-3.1,0.6-4.1,1.9l-19.8,24.8c-0.3,0.4-1,0.4-1.3,0L595.8,774c-1-1.2-2.5-1.8-4.3-1.8
			c-1.2,0-2.2,0.3-3,1c-0.8,0.7-1.2,1.7-1.2,2.9v31.3c0,0.5,0.4,0.9,0.9,0.9h6.1c0.5,0,0.9-0.4,0.9-0.9v-20.2c0-0.8,1-1.2,1.5-0.5
			l15.4,19.6c1.2,1.5,2.7,2.2,4.6,2.2c0.9,0,1.7-0.2,2.5-0.6c0.8-0.4,1.5-0.9,2-1.7l15.1-19.4c0.5-0.6,1.5-0.3,1.5,0.5v19.9
			c0,0.5,0.4,0.9,0.9,0.9h6.1c0.5,0,0.9-0.4,0.9-0.9v-31c0-1.3-0.4-2.3-1.2-3.1C643.6,772.5,642.6,772.1,641.3,772.1z"/>
		<path fill="#FFFFFF" d="M713.2,793c-0.3-0.8-0.8-1.5-1.2-2c-0.2-0.2-0.4-0.4-0.6-0.6c-0.4-0.3-0.4-1,0-1.3
			c0.8-0.7,1.4-1.5,1.7-2.5c0.5-1.3,0.7-3,0.7-5.1c0-3-1.3-5.3-3.8-6.8c-2.6-1.5-6.1-2.3-10.7-2.3h-27.4c-0.5,0-0.9,0.4-0.9,0.9
			v34.1c0,0.5,0.4,0.9,0.9,0.9H700c2.2,0,4.1-0.2,5.9-0.7c1.8-0.4,3.3-1.1,4.5-1.9c1.2-0.8,2.2-1.9,2.9-3.1c0.7-1.2,1-2.6,1-4.1
			c0-1-0.1-1.9-0.3-2.9C713.8,794.6,713.6,793.8,713.2,793z M678.9,779.9c0-0.5,0.4-0.9,0.9-0.9h20.1c2.2,0,3.9,0.2,5,0.7
			c1.1,0.5,1.6,1.3,1.6,2.3v2c0,1.2-0.5,2-1.4,2.5c-0.9,0.5-2.4,0.7-4.5,0.7h-20.8c-0.5,0-0.9-0.4-0.9-0.9V779.9z M706.2,799.4
			c-0.2,0.5-0.6,0.9-1.1,1.2c-0.5,0.3-1.3,0.6-2.2,0.7c-0.9,0.1-2.1,0.2-3.5,0.2h-19.8c-0.5,0-0.9-0.4-0.9-0.9v-5.7
			c0-0.5,0.4-0.9,0.9-0.9h20.4c1.4,0,2.5,0.1,3.3,0.2c0.8,0.1,1.5,0.4,2,0.7c0.5,0.3,0.8,0.7,0.9,1.1c0.2,0.5,0.2,1,0.2,1.6
			C706.5,798.3,706.4,798.9,706.2,799.4z"/>
		<path fill="#FFFFFF" d="M808.9,772.4h-7.8c-0.2,0-0.4,0.1-0.6,0.2l-14.7,13.9c-0.3,0.3-0.9,0.3-1.2,0L770,772.6
			c-0.2-0.2-0.4-0.2-0.6-0.2h-8.1c-0.8,0-1.2,0.9-0.6,1.5l20.3,19.3c0.2,0.2,0.3,0.4,0.3,0.6v13.5c0,0.5,0.4,0.9,0.9,0.9h6.1
			c0.5,0,0.9-0.4,0.9-0.9v-13.5c0-0.2,0.1-0.5,0.3-0.6l20.1-19.3C810,773.3,809.7,772.4,808.9,772.4z"/>
		<path fill="#FFFFFF" d="M419.8,790.7c-0.3-0.5-1.1-0.5-1.4,0l-10.9,16.2c-0.4,0.6,0,1.3,0.7,1.3h22.1c0.7,0,1.1-0.8,0.7-1.3
			L419.8,790.7z"/>
		<path fill="#FFFFFF" d="M423.7,774.6c-0.5-0.8-1.2-1.4-2-1.8c-0.8-0.4-1.6-0.6-2.4-0.6c-1.8,0-3.2,0.8-4.4,2.4l-22.3,32.2
			c-0.4,0.6,0,1.3,0.7,1.3h7.1c0.3,0,0.6-0.1,0.7-0.4l17.2-25.7c0.3-0.5,1.1-0.5,1.4,0l17.7,25.7c0.2,0.2,0.4,0.4,0.7,0.4h6.7
			c0.7,0,1.1-0.8,0.7-1.3L423.7,774.6z"/>
		<path fill="#FFFFFF" d="M744.6,790.7c-0.3-0.5-1.1-0.5-1.4,0l-10.9,16.2c-0.4,0.6,0,1.3,0.7,1.3h22.1c0.7,0,1.1-0.8,0.7-1.3
			L744.6,790.7z"/>
		<path fill="#FFFFFF" d="M748.5,774.6c-0.5-0.8-1.2-1.4-2-1.8c-0.8-0.4-1.6-0.6-2.4-0.6c-1.8,0-3.2,0.8-4.4,2.4l-22.3,32.2
			c-0.4,0.6,0,1.3,0.7,1.3h7.1c0.3,0,0.6-0.1,0.7-0.4l17.2-25.7c0.3-0.5,1.1-0.5,1.4,0l17.7,25.7c0.2,0.2,0.4,0.4,0.7,0.4h6.7
			c0.7,0,1.1-0.8,0.7-1.3L748.5,774.6z"/>
	</g>
	<g>
		<path fill="#FFFFFF" d="M707.5,551c-10.4,2.7-22.1,4.6-35.3,5.6c0.6,3.9,0.9,8.2,0.9,13.1c0,14.7-2.5,25.4-7.6,32
			c-5,6.6-14.8,9.9-29.4,9.9H484.8v74.5h161.4c20.2,0,37.4-1.3,51.7-3.9c14.3-2.6,26.3-8.8,36.1-18.6c9.8-9.8,16.4-22.2,19.7-37
			c3.4-14.9,5-32.9,5-54c0-18.7-1.1-34.8-3.1-48.3C743.4,536.9,727.2,545.9,707.5,551z"/>
		<path fill="#FFFFFF" d="M369.4,686.1h87.3v-87.6v-47.7v-14.7c0-3.8,3.1-7,7-7h162.7c3.4,0,6.4,0.1,9,0.2c2.6,0.2,5.6,0.2,9,0.2
			c22.7,0,41.4-1.9,56.1-5.7c14.7-3.8,26.4-10.3,35.2-19.3c8.7-9,14.8-21.1,18.2-36.1c3.4-15,5.1-33.9,5.1-56.6
			c0-21.2-1.8-39.2-5.5-54c-3.7-14.9-10.9-27.2-21.6-37c-10.7-9.8-23.9-16-39.5-18.6c-15.6-2.6-34.5-3.9-56.6-3.9H369.4
			c-3.8,0-7,3.1-7,7v245.6v47.7v80.6C362.4,682.9,365.5,686.1,369.4,686.1z M456.7,379.7c0-3.8,3.1-7,7-7h160.9
			c15.9,0,26.7,3.3,32.2,9.9c5.5,6.6,8.3,17.2,8.3,32c0,15.3-3.1,25.8-9.2,31.5c-6.1,5.7-16.6,8.5-31.3,8.5H463.7c-3.8,0-7-3.1-7-7
			V379.7z"/>
	</g>
</g>
<path display="none" fill="none" stroke="#CDCED1" stroke-width="19" stroke-miterlimit="10" d="M751.8,734.5H363.6
	c-27.2,0-49.3-22.1-49.3-49.3V296.9c0-27.2,22.1-49.3,49.3-49.3h388.3c27.2,0,49.3,22.1,49.3,49.3v388.3
	C801.2,712.4,779.1,734.5,751.8,734.5z"/>
<path fill="none" stroke="#FFFFFF" stroke-width="19" stroke-miterlimit="10" d="M751.8,734.5H363.6c-27.2,0-49.3-22.1-49.3-49.3
	V296.9c0-27.2,22.1-49.3,49.3-49.3h388.3c27.2,0,49.3,22.1,49.3,49.3v388.3C801.2,712.4,779.1,734.5,751.8,734.5z"/>
</svg>
