<?xml version="1.0" encoding="utf-8"?>
<!-- Generator: Adobe Illustrator 28.5.0, SVG Export Plug-In . SVG Version: 9.03 Build 54727)  -->
<svg version="1.1" baseProfile="tiny" id="Layer_1" xmlns="http://www.w3.org/2000/svg" xmlns:xlink="http://www.w3.org/1999/xlink"
	 x="0px" y="0px" viewBox="0 0 281.5 33.2" overflow="visible" xml:space="preserve">
<rect id="colorstyle:Bright_opacity:100_00000007419714232473725670000011157537646370767039_" x="277.6" y="11.7" fill="#FFFFFF" width="1" height="2"/>
<rect id="colorstyle:Bright_opacity:100_00000019657295539065413680000000023886542156310703_" x="280.6" y="11.7" fill="#FFFFFF" width="1" height="2"/>
<rect id="colorstyle:Bright_opacity:100_00000047024585584120575450000013933686039104213943_" x="272.9" y="11.7" fill="#FFFFFF" width="1" height="2"/>
<rect id="colorstyle:Bright_opacity:100_00000076568583226232498960000014614073471229934980_" x="162.9" y="11.7" fill="#FFFFFF" width="1" height="2"/>
<rect id="colorstyle:Base_opacity:100_00000171000614850360846220000005384904164037072054_" x="163.9" y="13.1" fill="#FFFFFF" width="109" height="0.6"/>
<rect id="colorstyle:Base_opacity:100" x="163.9" y="11.7" fill="#FFFFFF" width="109" height="0.6"/>
<rect id="colorstyle:Bright_opacity:100_00000123414036328058799870000004201378721374446257_" x="29.3" y="11.7" fill="#FFFFFF" width="1" height="2"/>
<rect id="colorstyle:Bright_opacity:100_00000093885140440329990460000010087918843417022886_" x="20" y="3.1" fill="#FFFFFF" width="1.5" height="1"/>
<rect id="colorstyle:Bright_opacity:100_00000116230045782144516270000000495286101879671712_" x="20" y="1.1" fill="#FFFFFF" width="1.5" height="1"/>
<rect id="colorstyle:Base_opacity:100_00000067219794597833723180000004743908527383040401_" x="32.1" y="11.5" width="129.3" height="2.5"/>
<path id="colorstyle:Base_opacity:100_00000070094240939014538970000007572675996054955956_" d="M27.7,13.5h-2.1
	c-3.1,0-5.6-2.5-5.6-5.6V5.4h1.5v2.4c0,2.3,1.9,4.1,4.1,4.1h2.1V13.5z"/>
<path id="colorstyle:Base_opacity:100_00000026123224869112563010000014167078232862480771_" d="M61.4,17.5h-4c-1.2,0-2.2-1-2.2-2.2
	v-0.1h3.9C60.4,15.3,61.4,16.3,61.4,17.5L61.4,17.5z"/>
</svg>
