<?xml version="1.0" encoding="utf-8"?>
<!-- Generator: Adobe Illustrator 25.4.1, SVG Export Plug-In . SVG Version: 6.00 Build 0)  -->
<svg version="1.1" baseProfile="tiny" id="Layer_1" xmlns="http://www.w3.org/2000/svg" xmlns:xlink="http://www.w3.org/1999/xlink"
	 x="0px" y="0px" viewBox="0 0 74.5 75.1" overflow="visible" xml:space="preserve">
<polygon fill="#B4B4B4" points="69.2,32.5 69.2,42.5 71.3,42.5 71.3,73.5 73.2,73.5 73.2,1.5 71.3,1.5 71.3,32.5 "/>
<polygon fill="#B4B4B4" points="5.3,32.6 5.3,42.6 3.2,42.6 3.2,73.5 1.2,73.5 1.2,1.6 3.2,1.6 3.2,32.6 "/>
<line fill="none" stroke="#B4B4B4" stroke-width="0.4" stroke-miterlimit="10" x1="0.6" y1="7.7" x2="0.6" y2="73.5"/>
<rect x="0.2" y="1.6" fill="#9A9999" width="0.8" height="12.3"/>
<rect x="0.2" y="72.8" fill="#9A9999" width="0.8" height="0.8"/>
<line fill="none" stroke="#B4B4B4" stroke-width="0.4" stroke-miterlimit="10" x1="73.9" y1="67.3" x2="73.9" y2="1.5"/>
<rect x="73.5" y="72.7" fill="#9A9999" width="0.8" height="0.8"/>
<rect x="73.5" y="1.5" fill="#F2F2F2" width="0.8" height="0.8"/>
<rect x="73.5" y="71.7" fill="#9A9999" width="0.8" height="0.8"/>
<rect x="73.5" y="67.1" fill="#9A9999" width="0.8" height="0.8"/>
</svg>
