<?xml version="1.0" encoding="utf-8"?>
<!-- Generator: Adobe Illustrator 26.0.1, SVG Export Plug-In . SVG Version: 6.00 Build 0)  -->
<svg version="1.1" baseProfile="tiny" id="Layer_1" xmlns="http://www.w3.org/2000/svg" xmlns:xlink="http://www.w3.org/1999/xlink"
	 x="0px" y="0px" viewBox="0 0 1920 1080" overflow="visible" xml:space="preserve">
<polygon fill="#57B294" points="613.6,442.8 613.6,255.4 1544.5,255.4 1544.5,232.2 328.3,232.2 328.3,466.1 1544.5,466.1 
	1544.5,442.8 "/>
<g>
	<path fill="#468F77" d="M421,424.8l-39.4-54.5h-2.2v54.5h-26.8V292.9h26.8v53.6h2.2c0.9,0,39.6-53.6,39.6-53.6h31.7l-48.6,65.1
		c0.7,0.4,49.3,66.8,49.3,66.8H421z"/>
	<path fill="#468F77" d="M542.5,331.6c-2.9-5.9-5.5-9.7-11.7-13.9h-27.5c-2.2,1.5-6.6,5.7-8.6,8.8V392c0,0.2,3.3,5.1,8.6,8.1h27.9
		c4.6-3.1,8.1-7.7,11.2-13.2l25.1,6.2c-2,5.5-4.6,10.1-7.5,14.1c-5.3,7.5-15.6,18.7-29,18.7h-28.8c-5.3,0-10.8-2-14.5-4.2
		c-4.6-2.9-13-11.7-16.1-15.8c-2.6-4.2-3.7-9.2-3.7-13.6v-66.6c0-4.8,0.9-9.5,3.7-13.6c2.6-3.5,11.2-12.8,16.3-15.8
		c3.5-2,9-4.2,14.3-4.2h28.8c13.4,0,23.5,11.2,28.8,18.5c3.5,4.8,5.7,9.5,7.5,14.1L542.5,331.6z"/>
</g>
<g>
	<path fill="#FFFFFF" d="M442.8,414.8l-39.4-54.5h-2.2v54.5h-26.8V282.9h26.8v53.6h2.2c0.9,0,39.6-53.6,39.6-53.6h31.7L426.1,348
		c0.7,0.4,49.3,66.8,49.3,66.8H442.8z"/>
	<path fill="#FFFFFF" d="M564.4,321.6c-2.9-5.9-5.5-9.7-11.7-13.9h-27.5c-2.2,1.5-6.6,5.7-8.6,8.8v65.5c0,0.2,3.3,5.1,8.6,8.1h27.9
		c4.6-3.1,8.1-7.7,11.2-13.2l25.1,6.2c-2,5.5-4.6,10.1-7.5,14.1c-5.3,7.5-15.6,18.7-29,18.7h-28.8c-5.3,0-10.8-2-14.5-4.2
		c-4.6-2.9-13-11.7-16.1-15.8c-2.6-4.2-3.7-9.2-3.7-13.6v-66.6c0-4.8,0.9-9.5,3.7-13.6c2.6-3.5,11.2-12.8,16.3-15.8
		c3.5-2,9-4.2,14.3-4.2H553c13.4,0,23.5,11.2,28.8,18.5c3.5,4.8,5.7,9.5,7.5,14.1L564.4,321.6z"/>
</g>
<g>
	<path fill="#FFE878" d="M721.1,308.6v106.2h-27V308.6h-35.6v-25.7h98.1v25.7H721.1z"/>
	<path fill="#FFE878" d="M869.8,347.6c-2,3.1-8.8,9.7-11.9,11.9c-1.8,1.3-3.5,2.2-5.3,3.1c10.8,19.8,28.6,52.3,28.6,52.3h-29.9
		l-26.2-50.4H804v50.4h-26.8V282.9h64.2c5.5,0,12.3,2,16.5,5.1c3.1,2.4,9.7,9.2,11.9,12.1c2.9,4,4.2,9.7,4.2,14.5v18.7
		C873.9,338.6,872.6,343.4,869.8,347.6z M847.1,313.9c-1.1-1.8-3.5-4.2-5.7-5.3H804v30.1h37.4c0.7,0,4.4-3.1,5.7-5.3V313.9z"/>
	<path fill="#FFE878" d="M901.4,414.8V282.9H988v25.7h-59.8v27H986v25.7h-57.8v27.7H988v25.7H901.4z"/>
	<path fill="#FFE878" d="M1084.3,414.8l-42.7-77.6v77.6h-26.8V282.9h27.5l42.2,78.7v-78.7h26.8v131.9H1084.3z"/>
	<path fill="#FFE878" d="M1232.9,395.1c-3.1,4.4-11.4,12.8-16.3,15.6c-3.7,2-9,4.2-14.1,4.2h-64V282.9h64c4.6,0,10.3,1.3,14.5,4
		c4.8,3.1,13,12.5,15.6,16.1c3.1,4.4,3.7,9,3.7,13.6v65.1C1236.5,385.6,1235.6,390.9,1232.9,395.1z M1209.6,317.7
		c-2-4.8-4.8-7-8.1-9h-36.1v80.5h36.1c3.1-1.8,5.9-4.2,8.1-8.4V317.7z"/>
	<path fill="#FFE878" d="M1263.5,414.8V282.9h27v131.9H1263.5z"/>
	<path fill="#FFE878" d="M1388.1,414.8l-42.7-77.6v77.6h-26.8V282.9h27.5l42.2,78.7v-78.7h26.8v131.9H1388.1z"/>
	<path fill="#FFE878" d="M1476.7,282h33.4c13.4,0,23.5,11.2,28.8,18.5c3.5,4.8,5.7,9.5,7.5,14.1l-24.8,7c-2.9-5.9-5.5-9.7-11.7-13.9
		h-32.1c-2,1.3-6.2,4.8-8.6,8.6V383c0,1.1,4.6,5.5,8.1,7.3h32.1c3.3-1.5,8.4-6.4,8.4-7.9v-19.8h-30.1v-25.1h56.9v49.5
		c0,2.6,0.7,7.3,1.5,12.5l2.6,15.6h-26.6l-0.9-4c-0.7,0.2-2.2,1.3-2.9,1.8c-2.6,1.5-5.3,3.1-8.6,3.1h-33.2c-5.5,0-10.8-2-14.5-4.2
		c-4.6-2.9-13-11.2-16.1-15.6c-2.6-4.2-3.7-9.2-3.7-13.6v-66.8c0-4.8,0.9-9.7,3.7-13.9c2.6-3.5,11.2-13,16.1-15.8
		C1466,283.8,1471.5,282,1476.7,282z"/>
</g>
</svg>
