<?xml version="1.0" encoding="utf-8"?>
<!-- Generator: Adobe Illustrator 26.0.1, SVG Export Plug-In . SVG Version: 6.00 Build 0)  -->
<svg version="1.1" baseProfile="tiny" id="Layer_1" xmlns="http://www.w3.org/2000/svg" xmlns:xlink="http://www.w3.org/1999/xlink"
	 x="0px" y="0px" viewBox="0 0 1920 1080" overflow="visible" xml:space="preserve">
<g>
	<path fill="none" stroke="#57B294" stroke-width="2.147" stroke-miterlimit="10" d="M1146.4,898.1c1.2,6.5-24,16.5-56.5,22.4
		c-32.4,5.9-59.5,5.3-60.5-1.2"/>
	<path fill="none" stroke="#57B294" stroke-width="2.147" stroke-miterlimit="10" d="M1179.2,420.5c-7.8,1.6-24.8-49.3-37.9-113.6
		s-17.4-117.8-9.7-119.4"/>
	<path fill="none" stroke="#57B294" stroke-width="2.147" stroke-miterlimit="10" d="M1299.8,167.6
		c-66.8,14.4-125.5,40.5-169.6,70.9c0,0-57.1,125.9-92.9,335.7c-3,17.7-4.2,35.7-3.6,53.8c1.4,45.8,7.2,146.5,28.8,295.5"/>
	<path fill="none" stroke="#57B294" stroke-width="2.147" stroke-miterlimit="10" d="M1300.8,122c4.3,12.7,8.8,24.6,13.3,35.5
		c17.8,43,57.3,64.5,96.7,64.5l0,0c39.4,0,78.8-21.5,96.7-64.5c4.5-10.9,9-22.9,13.3-35.5"/>
	<path fill="none" stroke="#57B294" stroke-width="2.147" stroke-miterlimit="10" d="M1281.8,122c4.5,13,11.2,30.3,15.9,41.7
		c20.9,50.3,67.1,75.5,113.3,75.5l0,0c46.2,0,92.3-25.1,113.3-75.5c4.7-11.4,11.4-28.7,15.9-41.7"/>
	<path fill="none" stroke="#57B294" stroke-width="6.5688" stroke-miterlimit="10" d="M1172.3,945.9c8.2,13.3,111.9,23.7,238.5,23.7
		c128,0,232.4-10.7,238.7-24.2"/>
	<path fill="none" stroke="#57B294" stroke-width="6.5688" stroke-miterlimit="10" d="M1146.5,903.3c-0.1-0.2-0.2-0.3-0.2-0.3
		c0-6.7,5.2-11.5-1.4-26.4c-6.2-14.3-7-28.3-7-28.3L1125,616.1l34-140.5l15.7-56.7c0.6-2.5,4.3-2.4,4.7,0.2
		c2.3,13.4,6,38.2,8.1,65.8c7.1,98.1,15.1,132.4,5.5,236.6c-13.2,142.6-14.8,141.5-17.7,176.6c0,0-2.7,17.2-7.4,27.6
		c-3.5,7.8,0.5,14.3,2.8,17.1c0.6,0.8,1.2,1.7,1.6,2.7c0.1,0.1,0.2,0.3,0.2,0.4"/>
	<path fill="none" stroke="#57B294" stroke-width="6.5688" stroke-miterlimit="10" d="M1029.3,922.4c-1,1.1-8.2,9.1,1.2,16.1
		c0.9,0.6,1.5,1.4,2.1,2.1c4.2,5.2,28.2,5.4,56.4,0.1c29-5.4,52-14.4,52.8-20.6c0.1-0.5,0.2-1.2,0.6-1.6c7-9.3,4.8-14.2,4.1-15.2"/>
	<path fill="none" stroke="#57B294" stroke-width="6.5688" stroke-miterlimit="10" d="M1793.2,923c-0.4-0.4-0.6-0.8-0.6-0.8
		c1.7-1.2,7.7-8.2,6.7-28.4c-1.1-21.5,2.6-43.2,2.6-43.2c11.1-94.3,23.6-239.8,7.9-318.7c-36.7-184.3-84.2-289.4-105.2-329.9
		c-6.5-12.6-17.1-22.7-29.8-28.7c-26.2-12.2-51.4-22.1-75.3-30.2c-41.5-16.1-32.8-13.5-49.9-19.1s-29.1-2.4-29.1-2.4
		c-1,0.4-1.9,0.8-2.9,1.2c-68.9,26.5-145.4,26.4-214.2-0.3c-0.6-0.2-1.3-0.5-1.9-0.8c0,0-12-3.2-29.1,2.4s-8.4,3-49.9,19.1
		c-23.8,8.1-49.1,17.9-75.3,30.2c-12.8,6-23.3,16.1-29.8,28.7c-21,40.5-68.5,145.6-105.2,329.9c-15.7,78.9-3.1,224.4,7.9,318.7
		c0,0,3.8,21.7,2.6,43.2c-1.1,20.2,4.9,27.3,6.7,28.4c0,0,0,0-0.1,0.1"/>
	<path fill="none" stroke="#57B294" stroke-width="6.5688" stroke-miterlimit="10" d="M1674.9,904.2c-0.8,2-1.2,6.7,4.6,14.3
		c0.3,0.4,0.5,1.1,0.6,1.6c0.9,6.3,23.8,15.4,52.8,20.6c28.1,5.2,52.3,5,56.4-0.1c0.6-0.8,1.4-1.6,2.1-2.1
		c8.2-6.1,3.5-13.2,1.7-15.5"/>
	<path fill="none" stroke="#57B294" stroke-width="6.5688" stroke-miterlimit="10" d="M1649.6,945.5
		C1649.7,945.5,1649.7,945.5,1649.6,945.5c0.4-1,1-1.9,1.6-2.7c2.3-2.8,6.3-9.2,2.8-17.1c-4.7-10.4-7.4-27.6-7.4-27.6
		c-3-35.1-4.5-34-17.7-176.6c-9.7-104.2-1.6-138.5,5.5-236.6c2-27.6,5.8-52.4,8.1-65.8c0.4-2.6,4.1-2.7,4.7-0.2l15.7,56.7l34,140.5
		L1684,848.2c0,0-0.6,14.1-7,28.3c-6.5,14.9-1.4,19.8-1.4,26.4c0,0-0.3,0.4-0.6,1.3"/>
	<path fill="none" stroke="#57B294" stroke-width="2.147" stroke-miterlimit="10" d="M1792.5,919.3c-1.2,6.4-28.2,7.1-60.5,1.2
		c-32.3-5.9-57.6-15.9-56.5-22.4"/>
	<path fill="none" stroke="#57B294" stroke-width="2.147" stroke-miterlimit="10" d="M1690.1,187.6c7.7,1.6,3.4,55.1-9.7,119.4
		s-30.1,115.2-37.9,113.6"/>
	<path fill="none" stroke="#57B294" stroke-width="2.147" stroke-miterlimit="10" d="M1759.4,923.5c21.6-149,27.4-249.7,28.8-295.5
		c0.5-18-0.6-36.1-3.6-53.8c-35.7-209.8-92.9-335.7-92.9-335.7c-44.1-30.4-102.8-56.5-169.6-70.9"/>
</g>
<g>
	<path fill="none" stroke="#FFE878" stroke-width="6.5688" stroke-miterlimit="10" d="M1363.3,485.3l-54.2-75.1h-3v75.1h-36.9V303.6
		h36.9v73.9h3c1.2,0,54.5-73.9,54.5-73.9h43.6l-66.9,89.6c0.9,0.6,67.8,92.1,67.8,92.1L1363.3,485.3L1363.3,485.3z"/>
	<path fill="none" stroke="#FFE878" stroke-width="6.5688" stroke-miterlimit="10" d="M1530.7,356.9c-3.9-8.2-7.6-13.3-16.1-19.1
		h-37.9c-3,2.1-9.1,7.9-11.8,12.1v90.3c0,0.3,4.5,7,11.8,11.2h38.5c6.4-4.2,11.2-10.6,15.4-18.2l34.5,8.5
		c-2.7,7.6-6.4,13.9-10.3,19.4c-7.3,10.3-21.5,25.7-40,25.7h-39.7c-7.3,0-14.8-2.7-20-5.8c-6.4-3.9-17.9-16.1-22.1-21.8
		c-3.6-5.8-5.1-12.7-5.1-18.8v-91.8c0-6.7,1.2-13,5.1-18.8c3.6-4.8,15.4-17.6,22.4-21.8c4.8-2.7,12.4-5.8,19.7-5.8h39.7
		c18.5,0,32.4,15.4,39.7,25.4c4.8,6.7,7.9,13,10.3,19.4L1530.7,356.9z"/>
</g>
</svg>
