<?xml version="1.0" encoding="utf-8"?>
<!-- Generator: Adobe Illustrator 26.0.1, SVG Export Plug-In . SVG Version: 6.00 Build 0)  -->
<svg version="1.1" baseProfile="tiny" id="Layer_1" xmlns="http://www.w3.org/2000/svg" xmlns:xlink="http://www.w3.org/1999/xlink"
	 x="0px" y="0px" viewBox="0 0 1920 1080" overflow="visible" xml:space="preserve">
<g>
	<g>
		<path fill="none" stroke="#468F77" stroke-width="2.1455" stroke-miterlimit="10" d="M1151.2,226c0,0-62.2,132.4-96.3,335.2
			c-2.9,17.2-4.2,43.1-3.6,60.5c1.5,46.4,7.5,142.2,30.6,297.4"/>
		<path fill="none" stroke="#468F77" stroke-width="2.1455" stroke-miterlimit="10" d="M1670.9,226c0,0,62.2,132.4,96.3,335.2
			c2.9,17.2,4.2,43.1,3.6,60.5c-1.5,46.4-7.5,142.2-30.6,297.4"/>
		<path fill="none" stroke="#468F77" stroke-width="6.5641" stroke-miterlimit="10" d="M1172.1,944.5c0-14.1,107-25.4,238.9-25.4
			s238.9,11.4,238.9,25.4"/>
		<path fill="none" stroke="#468F77" stroke-width="6.4371" stroke-miterlimit="10" d="M1032.3,939.8c-1.2-6.3,22.5-15.9,52.8-21.5
			s55.8-4.9,57,1.4"/>
		<path fill="none" stroke="#468F77" stroke-width="6.4371" stroke-miterlimit="10" d="M1789.7,939.8c1.2-6.3-22.5-15.9-52.8-21.5
			c-30.4-5.6-55.8-4.9-57,1.4"/>
		<path fill="none" stroke="#468F77" stroke-width="2.1455" stroke-miterlimit="10" d="M1688.4,185.6c-7.8-1.6-24.8,49.2-37.9,113.5
			s-17.4,117.7-9.7,119.3"/>
		<path fill="none" stroke="#468F77" stroke-width="2.1455" stroke-miterlimit="10" d="M1132,188.5c7.8-1.6,24.8,49.2,37.9,113.5
			s17.4,117.7,9.7,119.3"/>
	</g>
</g>
<g>
	<path fill="none" stroke="#468F77" stroke-width="2.1455" stroke-miterlimit="10" d="M1333.2,499l-54.2-75.1h-3V499h-37V317.2h36.9
		v73.9h3c1.2,0,54.5-73.9,54.5-73.9h43.6l-66.9,89.6c0.9,0.6,67.8,92.1,67.8,92.1L1333.2,499L1333.2,499z"/>
	<path fill="none" stroke="#468F77" stroke-width="2.1455" stroke-miterlimit="10" d="M1500.6,370.5c-3.9-8.2-7.6-13.3-16.1-19.1
		h-37.9c-3,2.1-9.1,7.9-11.8,12.1v90.3c0,0.3,4.5,7,11.8,11.2h38.5c6.4-4.2,11.2-10.6,15.4-18.2l34.5,8.5
		c-2.7,7.6-6.4,13.9-10.3,19.4c-7.3,10.3-21.5,25.7-40,25.7H1445c-7.3,0-14.8-2.7-20-5.8c-6.4-3.9-17.9-16.1-22.1-21.8
		c-3.6-5.8-5.1-12.7-5.1-18.8v-91.8c0-6.7,1.2-13,5.1-18.8c3.6-4.8,15.4-17.6,22.4-21.8c4.8-2.7,12.4-5.8,19.7-5.8h39.7
		c18.5,0,32.4,15.4,39.7,25.4c4.8,6.7,7.9,13,10.3,19.4L1500.6,370.5z"/>
</g>
</svg>
