<?xml version="1.0" encoding="utf-8"?>
<!-- Generator: Adobe Illustrator 26.0.1, SVG Export Plug-In . SVG Version: 6.00 Build 0)  -->
<svg version="1.1" baseProfile="tiny" id="Layer_1" xmlns="http://www.w3.org/2000/svg" xmlns:xlink="http://www.w3.org/1999/xlink"
	 x="0px" y="0px" viewBox="0 0 1920 1080" overflow="visible" xml:space="preserve">
<g>
	<path fill="none" stroke="#23463A" stroke-width="8.2746" stroke-miterlimit="10" d="M446.3,935.3L237.2,645.6h-11.7v289.7H83.1
		V234.4h142.5v285h11.7c4.7,0,210.3-285,210.3-285h168.2L357.6,580.2c3.5,2.3,261.7,355.1,261.7,355.1H446.3z"/>
	<path fill="none" stroke="#23463A" stroke-width="8.2746" stroke-miterlimit="10" d="M1092.2,440c-15.2-31.5-29.2-51.4-61.9-73.6
		h-146c-11.7,8.2-35,30.4-45.6,46.7v348.1c0,1.2,17.5,26.9,45.6,43.2h148.3c24.5-16.4,43.2-40.9,59.6-70.1l133.2,32.7
		c-10.5,29.2-24.5,53.7-39.7,74.8c-28,39.7-82.9,99.3-154.2,99.3h-153c-28,0-57.2-10.5-77.1-22.2c-24.5-15.2-68.9-61.9-85.3-84.1
		c-14-22.2-19.9-49.1-19.9-72.4V408.5c0-25.7,4.7-50.2,19.9-72.4c14-18.7,59.6-67.7,86.4-84.1c18.7-10.5,47.9-22.2,75.9-22.2h153
		c71.3,0,125,59.6,153,98.1c18.7,25.7,30.4,50.2,39.7,74.8L1092.2,440z"/>
</g>
<g>
	<path fill="none" stroke="#23463A" stroke-width="25.3347" stroke-miterlimit="10" d="M562.4,882.5L353.3,592.8h-11.7v289.7H199.1
		V181.6h142.5v285h11.7c4.7,0,210.3-285,210.3-285h168.2L473.6,527.4c3.5,2.3,261.7,355.1,261.7,355.1H562.4z"/>
	<path fill="none" stroke="#23463A" stroke-width="25.3347" stroke-miterlimit="10" d="M1208.3,387.2
		c-15.2-31.5-29.2-51.4-61.9-73.6h-146c-11.7,8.2-35,30.4-45.6,46.7v348.1c0,1.2,17.5,26.9,45.6,43.2h148.3
		c24.5-16.4,43.2-40.9,59.6-70.1l133.2,32.7c-10.5,29.2-24.5,53.7-39.7,74.8c-28,39.7-82.9,99.3-154.2,99.3h-153
		c-28,0-57.2-10.5-77.1-22.2c-24.5-15.2-68.9-61.9-85.3-84.1c-14-22.2-19.9-49.1-19.9-72.4V355.7c0-25.7,4.7-50.2,19.9-72.4
		c14-18.7,59.6-67.7,86.4-84.1c18.7-10.5,47.9-22.2,75.9-22.2h153c71.3,0,125,59.6,153,98.1c18.7,25.7,30.4,50.2,39.7,74.8
		L1208.3,387.2z"/>
</g>
</svg>
