<?xml version="1.0" encoding="utf-8"?>
<!-- Generator: Adobe Illustrator 29.2.1, SVG Export Plug-In . SVG Version: 9.03 Build 55982)  -->
<svg version="1.1" baseProfile="tiny" id="Layer_1" xmlns="http://www.w3.org/2000/svg" xmlns:xlink="http://www.w3.org/1999/xlink"
	 x="0px" y="0px" viewBox="0 0 501.2 64" overflow="visible" xml:space="preserve">
<g>
	<g>
		<path fill="#F7D21E" d="M433.8,14.8c0,0-6.8-6.8-6.8-8.8c0-2.1,1.7-3.8,3.8-3.8c1.2,0,2.3,1.5,3.1,2.3c0.7-0.9,1.9-2.3,3.1-2.3
			c2.1,0,3.8,1.7,3.8,3.8C440.7,7.9,433.8,14.8,433.8,14.8z"/>
		<path fill="#F7D21E" d="M433.8,15.2c0,0,6.8,6.8,6.8,8.8c0,2.1-1.7,3.8-3.8,3.8c-1.2,0-2.3-1.5-3.1-2.3c-0.7,0.9-1.9,2.3-3.1,2.3
			c-2.1,0-3.8-1.7-3.8-3.8C427,22.1,433.8,15.2,433.8,15.2z"/>
		<path fill="#F7D21E" d="M434,15c0,0,6.8-6.8,8.8-6.8c2.1,0,3.8,1.7,3.8,3.8c0,1.2-1.5,2.3-2.3,3.1c0.9,0.7,2.3,1.9,2.3,3.1
			c0,2.1-1.7,3.8-3.8,3.8C440.9,21.9,434,15,434,15z"/>
		<path fill="#F7D21E" d="M433.6,15c0,0-6.8,6.8-8.8,6.8c-2.1,0-3.8-1.7-3.8-3.8c0-1.2,1.5-2.3,2.3-3.1c-0.9-0.7-2.3-1.9-2.3-3.1
			c0-2.1,1.7-3.8,3.8-3.8C426.7,8.2,433.6,15,433.6,15z"/>
	</g>
	<path fill="#F7D21E" d="M436.9,30c-1.1,0-2.1-0.4-3.1-1.3c-1,0.9-2,1.3-3.1,1.3c-3.3,0-6-2.6-6-5.9c-3.3,0-5.9-2.6-5.9-6
		c0-1.1,0.4-2.1,1.3-3.1c-0.9-1-1.3-2-1.3-3.1c0-3.3,2.6-6,5.9-6c0-3.3,2.6-5.9,6-5.9c1.1,0,2.1,0.4,3.1,1.3c1-0.9,2-1.3,3.1-1.3
		c3.3,0,6,2.6,6,5.9c3.3,0,5.9,2.6,5.9,6c0,1.1-0.4,2.1-1.3,3.1c0.9,1,1.3,2,1.3,3.1c0,3.3-2.6,6-5.9,6
		C442.9,27.4,440.2,30,436.9,30z M433.8,27.7l0.3,0.2c1,0.9,1.9,1.3,2.8,1.3c2.9,0,5.2-2.3,5.2-5.2c0-0.1,0-0.2,0-0.3l-0.1-0.5
		l0.5,0.1c0.1,0,0.2,0,0.3,0c2.9,0,5.2-2.3,5.2-5.2c0-0.9-0.4-1.9-1.3-2.8l-0.2-0.3l0.2-0.3c0.9-1,1.3-1.9,1.3-2.8
		c0-2.9-2.3-5.2-5.2-5.2c-0.1,0-0.2,0-0.3,0L442,6.8l0.1-0.5c0-0.1,0-0.2,0-0.3c0-2.9-2.3-5.2-5.2-5.2c-0.9,0-1.9,0.4-2.8,1.3
		l-0.3,0.2l-0.3-0.2c-1-0.9-1.9-1.3-2.8-1.3c-2.9,0-5.2,2.3-5.2,5.2c0,0.1,0,0.2,0,0.3l0.1,0.5l-0.5-0.1c-0.1,0-0.2,0-0.3,0
		c-2.9,0-5.2,2.3-5.2,5.2c0,0.9,0.4,1.9,1.3,2.8l0.2,0.3l-0.2,0.3c-0.9,1-1.3,1.9-1.3,2.8c0,2.9,2.3,5.2,5.2,5.2c0.1,0,0.2,0,0.3,0
		l0.5-0.1l-0.1,0.5c0,0.1,0,0.2,0,0.3c0,2.9,2.3,5.2,5.2,5.2c0.9,0,1.9-0.4,2.8-1.3L433.8,27.7z"/>
	<path fill="#09CF6D" d="M441.4,45.9c-1.1,10.6,11.8,18.7,19.2,9.5c-0.1,2.8-0.9,3.5-3.3,4.5c-11.9,5.2-27.3-4.8-21.6-18.6
		c4-9.7,15.7-10.5,24.8-9.9c0,0,0,2.8,0,4.1c0,1.1,0.1,2.3-0.5,2.3c-0.4,0-0.8-1.2-1.1-1.6c-7.8-8.5-16.5-0.8-17.5,8.4H458l0.3,0.5
		c-0.7,1.6-1,3.3-0.9,5l-0.8-0.1c-0.3-1.8-1.1-3.2-3-3.7c-0.2-0.1-1.8-0.4-1.9-0.4H441.4z"/>
	<path fill="#09CF6D" d="M36.7,60.1l-0.2,0c-2.4,0.1-4.2,0.5-6.6,0.2c-4.5-0.6-5.8-4.9-7.3-8.4c-3.3,0.8-6.3,2.7-9.2,4.6
		c-2.7,1.9-4.7,7-8.4,7c-4.1,0-4.9-4.2-5-6.5c0-0.4,0.5-0.6,0.7-0.2c1.1,1.7,3.3,4.1,6.2,1.3c0.1-0.1,0.2-0.3,0.4-0.5
		c3.5-5.3,4.5-13.7,10-16.6c0.1-0.4-2.2-4.9-2.6-5.6c-1.4-2.4-2.1-2.7-5-2.5c-0.7,0.1-2.3,1-1.7-0.5c3.6-0.9,8.8-2.5,11.8,0.4
		c2.9,2.9,6,11.8,8,15.9c1.1,2.3,2.4,5.3,3.9,7.4c1.6,2.4,1.8,3.3,4.9,3.3H37c1.3,0,3-0.8,3.2-2.1c-0.5-7.1,0.7-15.2,0-22.2
		c-0.2-1.9-1.5-2.7-3.3-2.7l-0.2-0.9c4.4,0.2,9-0.2,13.4,0c4.7,0.2,12,1.3,13.5,6.7c1.7,6.4-3.6,9.7-8.9,11.2c0,0.7,2.3,3.8,2.9,4.6
		c1.4,1.8,4.6,5.6,7,5.5c0.6,0,1.9-0.7,1.9,0.4c0,0.8-5.7,1.5-6.6,1.4c-4.6-0.5-9.8-8-11.6-12c6.5-0.5,11.8-7.5,7.6-13.5
		c-2-2.8-8.7-4.9-9.3-0.4c0.3,6.7-0.5,13.9,0,20.5c0.2,2.5,0.8,3.6,3.5,3.6l0,0.7H36.7z M14.2,53.6l7.5-3.4l-3.4-6.8L14.2,53.6z"/>
	<path fill="#09CF6D" d="M364.6,60.1l0-0.7c-3.4,1.1-8.1,1.9-10.7-1.1c-1.6-1.8-2.3-4.3-3.4-6.4c-1.1-0.2-7.3,2.9-8.6,3.7
		c-3.2,2-4,3.9-8.2,4.5c-1.1,0.2-3.1,0.7-3.3-0.7c9.9-1.5,7.1-14.2,14.7-18.4c-2-4.1-3.1-10.2-9.1-7.6c-1.2-1.4,0.7-0.9,1.5-1.4
		c4.5-1.1,8.3-1.9,11.2,2.3c3.9,5.7,6.3,14.1,9.9,20.3c1.5,2.6,3,4.9,6.4,3.5l0.2,1l-0.5,0.3c1.1,0.1,2.8-0.4,3.1-1.5l0.1-23.6
		c-0.6-1.4-1.8-2-3.2-2l0.1-0.9h9.5l15.4,18.2V34.5c0-0.5-1-1.6-1.4-1.8c-0.9-0.5-2.3,0.1-2.1-1.3h8.7l0,1c-1.3-0.3-3.5,0.6-3.5,2.1
		v25.6l-1.9-0.1l-19.5-23.4v20.8c0,0.9,2.5,2.3,3.5,1.9l0,0.7H364.6z M342.4,53.6l7.2-3.4c-0.3-0.8-2.8-6.5-3.1-6.6
		c-0.5-0.1-1.1,1.4-1.2,1.8C344.1,47.9,343.4,50.9,342.4,53.6z"/>
	<path fill="#09CF6D" d="M331,40.1c-2.1-8.5-12.3-11.2-19.7-8.1c-1.9,0.8-2.9,2-4.5,3.2c-4.9-5.9-15.3-5.8-20.1,0.1
		c-0.5,0.6-0.9,1.3-1.3,2c-0.4-0.7-0.8-1.3-1.3-2c-4.7-5.9-15.4-6.1-20.1-0.1c-1.9-1.7-3.5-3-6-3.7c-18.4-5.2-26.5,17-9.4,26.9
		c1.6,0.9,3.5,2,5.3,1.8l-3.6-3.2c-4.5-5.2-6.2-14.2-2.9-20.4c2.6-5,8.8-6.4,11.5-0.7c0.5,1.1,1.5,4.3,1.5,5.5v18.8h6.5
		c0.6-7.1-1.2-16.3,1-23.1c2.4-7.2,9-6.1,11.7,0.3c2.8,6.6,1.2,15-3.7,20.2l-3.3,2.6h7.6c1.4-0.3,3.9-4.3,5.1-6.5
		c1.2,2.6,3,4.8,5.2,6.5h7.4c-7.2-4.9-10.1-15-6.7-23c2.5-5.8,8.8-7.3,11.4-0.7c2.7,6.8,0.7,16.5,1.3,23.8h6.1l0.4-0.4V41
		c0-1.3,1.2-4.7,1.9-5.9c2.7-4.6,7.9-3.7,10.6,0.4c4.9,7.7,1.5,19.7-5.9,24.5c1.8,0.2,3.8-0.9,5.3-1.8C329,54.3,333,48.2,331,40.1z"
		/>
	<path fill="#09CF6D" d="M414.1,31.9c-4.8-2-5.3-8.2-1.3-11.4c0.6-0.5,1.9-0.9,1.4,0.1c-0.8,1.6-1.8,1.5-0.6,3.8
		c1.6,3.1,10.3,8.3,13.4,12c9.5,11.4,0,23.7-13.1,24.6c-16.3,1.1-22.2-17.5-7.6-25.8c2.5-1.5,4.8-1.9,7.3-2.9
		C413.8,32.2,414.1,32.1,414.1,31.9z M414.8,33.4c-3.2,0.5-7.4,4.8-8.7,7.8c-2.8,6.3-0.6,16,6.8,17.8c10.2,2.5,13.3-11.2,9.5-18.5
		c-0.8-1.5-5.2-6.8-6.7-7.1C415.4,33.3,415.1,33.4,414.8,33.4z"/>
	<path fill="#09CF6D" d="M464.2,59.9l0-0.7c2,0,3.3-0.5,3.5-2.6c0.6-7-0.5-15.1,0-22.2c-0.3-1.8-1.6-2.1-3.2-2.3l-0.2-0.9
		c4.3,0.2,8.8-0.2,13.1,0c6,0.3,14.7,1.8,14.1,9.6c-0.4,4.9-5.2,7-9.3,8.2c1.2,2.7,9.9,12.8,15,12.8c2.5,0,2.8-2.2,3.5-2.2
		c1.3,0,0.3,4.4-7.3,4.4c-6.1,0-14.7-9.8-16.6-13c-0.2-0.3-1.1-2-1-2.1c5.6-0.9,9.8-4.4,8.9-10.5c-0.4-2.6-2.4-4.8-4.9-5.5
		c-2.6-0.8-5.3-0.7-5.7,2.5c-0.8,6.6,0.4,15,0.2,21.7c0.3,1.5,1.8,2.2,3.3,2.1l0,0.7H464.2z"/>
	<path fill="#09CF6D" d="M217.4,31.2c23.8-2.4,23.4,31.7-0.1,29.6C200,59.3,199.3,33.1,217.4,31.2z M219.1,32.7
		c-11.2,0.5-11,24.8-1.2,26.5C231,61.5,232.3,32,219.1,32.7z"/>
	<path fill="#09CF6D" d="M123.1,49.6V34.2c0-0.9-2.3-2.2-3.3-2l-0.2-0.9h8.7l0,1c-1.5-0.4-3.5,0.9-3.5,2.4v25.3l-1.9-0.1l-19.5-23.4
		v20.8c0,1,2.6,2.2,3.5,1.9l0,0.7h-9l0-0.7c2.6,0.1,3.5-0.8,3.8-3.4c0.6-6.9-0.5-14.5,0-21.5c-0.7-1.4-1.9-2.3-3.5-2.2l0.1-0.9h9.5
		L123.1,49.6z"/>
	<path fill="#09CF6D" d="M164,58.1l0.3,1c-3.1,1-6.3,1.9-9.5,0.6c-2.9-1.2-4.1-5.2-5.3-7.8c-0.8-0.5-7.6,2.9-8.7,3.6
		c-3.1,2-4.1,3.9-8.2,4.5c-1.1,0.2-3.1,0.7-3.3-0.7c9.9-1.5,7-14.2,14.7-18.4c-2-4.2-3.1-10.2-9.3-7.6l-0.3-1c6-1.3,10.2-3.1,13.9,3
		c3.7,6.2,6.1,15.3,10.3,20.9C160.1,58.2,161.7,59.1,164,58.1z M141.1,53.6l7.5-3.4c-0.3-0.8-2.8-6.5-3.1-6.6
		c-0.5-0.1-1,1.2-1.2,1.6C143,47.9,142.4,50.9,141.1,53.6z"/>
	<path fill="#09CF6D" d="M75.2,45.9C74.1,56.5,87,64.6,94.4,55.3c-0.1,2.8-0.9,3.5-3.3,4.5C79.1,65,63.7,55.1,69.5,41.3
		c4-9.7,15.7-10.5,24.8-9.9c0,0,0,2.8,0,4.1c0,1.1,0.1,2.3-0.5,2.3c-0.4,0-0.8-1.2-1.1-1.6c-7.8-8.5-16.5-0.8-17.5,8.4h16.6l0.3,0.5
		c-0.7,1.6-1,3.3-0.9,5L90.4,50c-0.3-1.8-1.1-3.2-3-3.7c-0.2-0.1-1.8-0.4-1.9-0.4H75.2z"/>
	<path fill="#09CF6D" d="M200.2,37.9c-1,0.2-1.2-1-1.8-1.6c-10.1-11.2-21.3,5.1-16.3,16.3c3.2,7.2,13,9.6,18,2.8
		c0.1,2.9-1.7,4.1-4.2,4.9c-10.4,3.5-23.7-3.3-21.7-15.5c1.4-8.7,9.2-12.9,17.3-13.4c1.8-0.1,6.4-0.3,8,0c0.3,0,0.5,0.1,0.6,0.4
		C200.2,32,200.3,37,200.2,37.9z"/>
</g>
</svg>
