<?xml version="1.0" encoding="utf-8"?>
<!-- Generator: Adobe Illustrator 25.1.0, SVG Export Plug-In . SVG Version: 6.00 Build 0)  -->
<svg version="1.1" id="Layer_1" xmlns="http://www.w3.org/2000/svg" xmlns:xlink="http://www.w3.org/1999/xlink" x="0px" y="0px"
	 viewBox="0 0 674 540" style="enable-background:new 0 0 674 540;" xml:space="preserve">
<style type="text/css">
	.st0{opacity:0.2;fill:#6CB8C7;}
</style>
<path class="st0" d="M85,493.2c-0.4-0.5-0.9-1-1.3-1.5l1.5-1.3c0.4,0.5,0.9,1,1.3,1.5L85,493.2z M78.7,485.8c-0.4-0.5-0.9-1-1.3-1.5
	l1.5-1.3c0.4,0.5,0.8,1,1.3,1.5L78.7,485.8z M72.5,478.2l-1.2-1.6l1.6-1.2l1.2,1.6L72.5,478.2z M66.6,470.5
	c-0.4-0.5-0.8-1.1-1.2-1.6l1.6-1.2c0.4,0.5,0.8,1.1,1.2,1.6L66.6,470.5z M60.9,462.6c-0.4-0.5-0.8-1.1-1.1-1.6l1.6-1.1
	c0.4,0.5,0.8,1.1,1.1,1.6L60.9,462.6z M55.5,454.6c-0.4-0.6-0.7-1.1-1.1-1.7l1.7-1.1c0.4,0.6,0.7,1.1,1.1,1.7L55.5,454.6z
	 M50.2,446.4c-0.4-0.6-0.7-1.1-1-1.7l1.7-1c0.3,0.6,0.7,1.1,1,1.7L50.2,446.4z M45.2,438c-0.3-0.6-0.7-1.2-1-1.7l1.7-1
	c0.3,0.6,0.7,1.2,1,1.7L45.2,438z M40.5,429.6c-0.3-0.6-0.6-1.2-0.9-1.8l1.8-0.9c0.3,0.6,0.6,1.2,0.9,1.8L40.5,429.6z M36,421
	c-0.3-0.6-0.6-1.2-0.9-1.8l1.8-0.9c0.3,0.6,0.6,1.2,0.9,1.8L36,421z M31.8,412.2c-0.3-0.6-0.6-1.2-0.8-1.8l1.8-0.8
	c0.3,0.6,0.6,1.2,0.8,1.8L31.8,412.2z M27.8,403.4c-0.3-0.6-0.5-1.2-0.8-1.8l1.8-0.8c0.3,0.6,0.5,1.2,0.8,1.8L27.8,403.4z M24,394.4
	c-0.2-0.6-0.5-1.2-0.7-1.9l1.9-0.7c0.2,0.6,0.5,1.2,0.7,1.9L24,394.4z M20.6,385.3c-0.2-0.6-0.5-1.3-0.7-1.9l1.9-0.7
	c0.2,0.6,0.5,1.3,0.7,1.9L20.6,385.3z M17.4,376.1c-0.2-0.6-0.4-1.3-0.6-1.9l1.9-0.6c0.2,0.6,0.4,1.3,0.6,1.9L17.4,376.1z
	 M14.4,366.8l-0.6-1.9l1.9-0.6l0.6,1.9L14.4,366.8z M11.8,357.4c-0.2-0.6-0.3-1.3-0.5-1.9l1.9-0.5c0.2,0.6,0.3,1.3,0.5,1.9
	L11.8,357.4z M9.4,348c-0.2-0.7-0.3-1.3-0.5-2l1.9-0.5c0.2,0.6,0.3,1.3,0.5,1.9L9.4,348z M7.2,338.5c-0.1-0.7-0.3-1.3-0.4-2l2-0.4
	c0.1,0.7,0.3,1.3,0.4,2L7.2,338.5z M5.4,328.9c-0.1-0.7-0.2-1.3-0.3-2l2-0.3c0.1,0.7,0.2,1.3,0.3,2L5.4,328.9z M3.8,319.3
	c-0.1-0.7-0.2-1.3-0.3-2l2-0.3c0.1,0.7,0.2,1.3,0.3,2L3.8,319.3z M2.6,309.6c-0.1-0.7-0.2-1.3-0.2-2l2-0.2c0.1,0.7,0.1,1.3,0.2,2
	L2.6,309.6z M1.6,299.9c-0.1-0.7-0.1-1.3-0.2-2l2-0.2c0.1,0.7,0.1,1.3,0.2,2L1.6,299.9z M0.8,290.2c0-0.7-0.1-1.3-0.1-2l2-0.1
	c0,0.7,0.1,1.3,0.1,2L0.8,290.2z M0.4,280.5c0-0.7,0-1.3-0.1-2l2-0.1c0,0.7,0,1.3,0.1,2L0.4,280.5z M0.2,270.7l0-1.1l0-0.9l2,0
	l0,0.9l0,1.1L0.2,270.7z M2.3,261.1l-2-0.1c0-0.7,0-1.3,0.1-2l2,0.1C2.4,259.7,2.4,260.4,2.3,261.1z M2.7,251.4l-2-0.1
	c0-0.7,0.1-1.3,0.1-2l2,0.1C2.8,250,2.8,250.7,2.7,251.4z M3.4,241.7l-2-0.2c0.1-0.7,0.1-1.3,0.2-2l2,0.2
	C3.5,240.4,3.4,241.1,3.4,241.7z M4.3,232.1l-2-0.2c0.1-0.7,0.2-1.3,0.2-2l2,0.2C4.5,230.8,4.4,231.4,4.3,232.1z M5.5,222.5l-2-0.3
	c0.1-0.7,0.2-1.3,0.3-2l2,0.3C5.7,221.1,5.6,221.8,5.5,222.5z M7,212.9l-2-0.3c0.1-0.7,0.2-1.3,0.3-2l2,0.3
	C7.3,211.6,7.2,212.2,7,212.9z M8.8,203.4l-2-0.4c0.1-0.7,0.3-1.3,0.4-2l2,0.4C9.1,202.1,8.9,202.7,8.8,203.4z M10.9,193.9l-1.9-0.5
	c0.2-0.7,0.3-1.3,0.5-2l1.9,0.5C11.2,192.6,11,193.3,10.9,193.9z M13.2,184.5l-1.9-0.5c0.2-0.6,0.3-1.3,0.5-1.9l1.9,0.5
	C13.5,183.2,13.4,183.9,13.2,184.5z M15.8,175.2l-1.9-0.6c0.2-0.6,0.4-1.3,0.6-1.9l1.9,0.6C16.2,173.9,16,174.5,15.8,175.2z
	 M18.7,165.9l-1.9-0.6c0.2-0.6,0.4-1.3,0.6-1.9l1.9,0.6C19.1,164.6,18.9,165.3,18.7,165.9z M21.8,156.7l-1.9-0.7
	c0.2-0.6,0.5-1.3,0.7-1.9l1.9,0.7C22.3,155.4,22.1,156.1,21.8,156.7z M25.2,147.6l-1.9-0.7c0.2-0.6,0.5-1.3,0.7-1.9l1.9,0.7
	C25.7,146.4,25.5,147,25.2,147.6z M28.9,138.6l-1.8-0.8c0.3-0.6,0.5-1.2,0.8-1.9l1.8,0.8C29.5,137.4,29.2,138,28.9,138.6z
	 M32.9,129.7l-1.8-0.8c0.3-0.6,0.6-1.2,0.9-1.8l1.8,0.8C33.4,128.5,33.1,129.1,32.9,129.7z M37.1,121l-1.8-0.9
	c0.3-0.6,0.6-1.2,0.9-1.8l1.8,0.9C37.7,119.8,37.4,120.4,37.1,121z M41.5,112.4l-1.8-0.9c0.3-0.6,0.6-1.2,1-1.8l1.8,1
	C42.1,111.2,41.8,111.8,41.5,112.4z M46.2,103.9l-1.7-1c0.3-0.6,0.7-1.2,1-1.7l1.7,1C46.9,102.7,46.5,103.3,46.2,103.9z M51.1,95.5
	l-1.7-1c0.3-0.6,0.7-1.1,1.1-1.7l1.7,1.1C51.8,94.4,51.5,95,51.1,95.5z M56.3,87.3l-1.7-1.1c0.4-0.6,0.7-1.1,1.1-1.7l1.7,1.1
	C57.1,86.2,56.7,86.8,56.3,87.3z M61.7,79.3l-1.6-1.1c0.4-0.6,0.8-1.1,1.2-1.6l1.6,1.1C62.5,78.2,62.1,78.7,61.7,79.3z M67.4,71.4
	l-1.6-1.2c0.4-0.5,0.8-1.1,1.2-1.6l1.6,1.2C68.2,70.3,67.8,70.9,67.4,71.4z M73.2,63.7l-1.6-1.2c0.4-0.5,0.8-1.1,1.2-1.6l1.6,1.2
	C74.1,62.6,73.7,63.2,73.2,63.7z M79.3,56.1l-1.5-1.3c0.4-0.5,0.9-1,1.3-1.5l1.5,1.3C80.2,55.1,79.8,55.6,79.3,56.1z M85.6,48.8
	l-1.5-1.3c0.4-0.5,0.9-1,1.3-1.5l1.5,1.3C86.5,47.8,86.1,48.3,85.6,48.8z M92.1,41.6l-1.5-1.4c0.5-0.5,0.9-1,1.4-1.5l1.5,1.4
	C93,40.6,92.6,41.1,92.1,41.6z M98.8,34.6l-1.4-1.4c0.5-0.5,0.9-1,1.4-1.4l1.4,1.4C99.8,33.7,99.3,34.1,98.8,34.6z M105.7,27.8
	l-1.4-1.4c0.5-0.5,1-0.9,1.5-1.4l1.4,1.5C106.7,26.9,106.2,27.4,105.7,27.8z M112.8,21.2l-1.3-1.5c0.5-0.4,1-0.9,1.5-1.3l1.3,1.5
	C113.8,20.4,113.3,20.8,112.8,21.2z M120.1,14.9l-1.3-1.5c0.5-0.4,1-0.9,1.5-1.3l1.3,1.5C121.1,14,120.6,14.4,120.1,14.9z
	 M127.6,8.7l-1.3-1.6c0.5-0.4,1-0.8,1.6-1.3l1.2,1.6C128.6,7.9,128.1,8.3,127.6,8.7z M135.2,2.8L134,1.2c0.5-0.4,1.1-0.8,1.6-1.2
	l1.2,1.6C136.3,2,135.7,2.4,135.2,2.8z"/>
<path class="st0" d="M586.5,491.8c0.4-0.5,0.9-1,1.3-1.5l1.5,1.3c-0.4,0.5-0.9,1-1.3,1.5L586.5,491.8z M592.8,484.5
	c0.4-0.5,0.9-1,1.3-1.5l1.5,1.3c-0.4,0.5-0.9,1-1.3,1.5L592.8,484.5z M598.9,477l1.2-1.6l1.6,1.2l-1.2,1.6L598.9,477z M604.8,469.3
	c0.4-0.5,0.8-1.1,1.2-1.6l1.6,1.2c-0.4,0.5-0.8,1.1-1.2,1.6L604.8,469.3z M610.5,461.5c0.4-0.5,0.8-1.1,1.1-1.6l1.6,1.1
	c-0.4,0.5-0.8,1.1-1.1,1.6L610.5,461.5z M615.9,453.5c0.4-0.6,0.7-1.1,1.1-1.7l1.7,1.1c-0.4,0.6-0.7,1.1-1.1,1.7L615.9,453.5z
	 M621.1,445.3c0.3-0.6,0.7-1.1,1-1.7l1.7,1c-0.3,0.6-0.7,1.1-1,1.7L621.1,445.3z M626.1,437c0.3-0.6,0.7-1.2,1-1.7l1.7,1
	c-0.3,0.6-0.7,1.2-1,1.7L626.1,437z M630.8,428.6c0.3-0.6,0.6-1.2,0.9-1.8l1.8,0.9c-0.3,0.6-0.6,1.2-0.9,1.8L630.8,428.6z
	 M635.2,420.1c0.3-0.6,0.6-1.2,0.9-1.8l1.8,0.9c-0.3,0.6-0.6,1.2-0.9,1.8L635.2,420.1z M639.5,411.4c0.3-0.6,0.6-1.2,0.8-1.8
	l1.8,0.8c-0.3,0.6-0.6,1.2-0.8,1.8L639.5,411.4z M643.4,402.6c0.3-0.6,0.5-1.2,0.8-1.8l1.8,0.8c-0.3,0.6-0.5,1.2-0.8,1.8
	L643.4,402.6z M647.1,393.6c0.2-0.6,0.5-1.2,0.7-1.9l1.9,0.7c-0.2,0.6-0.5,1.2-0.7,1.9L647.1,393.6z M592.4,54.6l1.5-1.3
	c0.4,0.5,0.9,1,1.3,1.5l-1.5,1.3C593.3,55.6,592.8,55.1,592.4,54.6z M586.1,47.3l1.5-1.3c0.4,0.5,0.9,1,1.3,1.5l-1.5,1.3
	C587,48.3,586.5,47.8,586.1,47.3z M579.5,40.1l1.5-1.4c0.5,0.5,0.9,1,1.4,1.5l-1.5,1.4C580.4,41.1,580,40.6,579.5,40.1z M572.8,33.2
	l1.4-1.4c0.5,0.5,0.9,0.9,1.4,1.4l-1.4,1.4C573.7,34.1,573.3,33.7,572.8,33.2z M565.8,26.5l1.4-1.5c0.5,0.5,1,0.9,1.5,1.4l-1.4,1.4
	C566.8,27.4,566.3,26.9,565.8,26.5z M558.7,19.9l1.3-1.5c0.5,0.4,1,0.9,1.5,1.3l-1.3,1.5C559.7,20.8,559.2,20.4,558.7,19.9z
	 M551.4,13.6l1.3-1.5c0.5,0.4,1,0.9,1.5,1.3l-1.3,1.5C552.4,14.4,551.9,14,551.4,13.6z M543.9,7.5l1.2-1.6c0.5,0.4,1,0.8,1.6,1.3
	l-1.3,1.6C544.9,8.3,544.4,7.9,543.9,7.5z M536.2,1.6l1.2-1.6c0.5,0.4,1.1,0.8,1.6,1.2l-1.2,1.6C537.3,2.4,536.8,2,536.2,1.6z"/>
</svg>
