<?xml version="1.0" encoding="utf-8"?>
<!-- Generator: Adobe Illustrator 25.1.0, SVG Export Plug-In . SVG Version: 6.00 Build 0)  -->
<svg version="1.1" baseProfile="tiny" id="Layer_1" xmlns="http://www.w3.org/2000/svg" xmlns:xlink="http://www.w3.org/1999/xlink"
	 x="0px" y="0px" viewBox="0 0 66 79" overflow="visible" xml:space="preserve">
<g id="Inner">
	<path fill="#6CB8C7" d="M61.6,78.9H4.4C2,78.9,0,77,0,74.5h1c0,1.9,1.5,3.4,3.4,3.4h57.2c1.9,0,3.4-1.5,3.4-3.4h1
		C66,77,64,78.9,61.6,78.9z"/>
	<path fill="#6CB8C7" d="M66,4.5h-1c0-1.9-1.5-3.4-3.4-3.4H4.4C2.6,1.1,1,2.6,1,4.5H0C0,2,2,0.1,4.4,0.1h57.2C64,0.1,66,2,66,4.5z"
		/>
</g>
</svg>
