<?xml version="1.0" encoding="utf-8"?>
<!-- Generator: Adobe Illustrator 25.1.0, SVG Export Plug-In . SVG Version: 6.00 Build 0)  -->
<svg version="1.1" id="squares" xmlns="http://www.w3.org/2000/svg" xmlns:xlink="http://www.w3.org/1999/xlink" x="0px" y="0px"
	 viewBox="0 0 480 22" style="enable-background:new 0 0 480 22;" xml:space="preserve">
<style type="text/css">
	.st0{opacity:0.6;}
	.st1{fill:#6CB8C7;}
</style>
<g class="st0">
	<path class="st1" d="M5.5,5.3H1.1C0.8,5.3,0.6,5,0.6,4.8V0.3c0-0.3,0.2-0.5,0.5-0.5h4.4C5.8-0.2,6,0.1,6,0.3v4.4
		C6,5,5.8,5.3,5.5,5.3z M1.6,4.3H5V0.8H1.6V4.3z"/>
	<path class="st1" d="M478.9,5.3h-4.4c-0.3,0-0.5-0.2-0.5-0.5V0.3c0-0.3,0.2-0.5,0.5-0.5h4.4c0.3,0,0.5,0.2,0.5,0.5v4.4
		C479.4,5,479.2,5.3,478.9,5.3z M475,4.3h3.4V0.8H475V4.3z"/>
	<path class="st1" d="M478.9,22.2h-4.4c-0.3,0-0.5-0.2-0.5-0.5v-4.4c0-0.3,0.2-0.5,0.5-0.5h4.4c0.3,0,0.5,0.2,0.5,0.5v4.4
		C479.4,21.9,479.2,22.2,478.9,22.2z M475,21.2h3.4v-3.4H475V21.2z"/>
	<path class="st1" d="M5.5,22.2H1.1c-0.3,0-0.5-0.2-0.5-0.5v-4.4c0-0.3,0.2-0.5,0.5-0.5h4.4C5.8,16.7,6,17,6,17.2v4.4
		C6,21.9,5.8,22.2,5.5,22.2z M1.6,21.2H5v-3.4H1.6V21.2z"/>
</g>
</svg>
