<?xml version="1.0" encoding="utf-8"?>
<!-- Generator: Adobe Illustrator 25.1.0, SVG Export Plug-In . SVG Version: 6.00 Build 0)  -->
<svg version="1.1" id="brackets" xmlns="http://www.w3.org/2000/svg" xmlns:xlink="http://www.w3.org/1999/xlink" x="0px" y="0px"
	 viewBox="0 0 584 564" style="enable-background:new 0 0 584 564;" xml:space="preserve">
<style type="text/css">
	.st0{opacity:0.2;}
	.st1{fill:#6CB8C7;}
</style>
<g id="Inner_1_" class="st0">
	<path class="st1" d="M18.9,21.1h-1c0-1.8,0.3-3.5,1-5.1c0.7-1.6,1.6-3,2.8-4.2c1.2-1.2,2.6-2.2,4.2-2.8c1.6-0.7,3.4-1,5.1-1h255.7
		v1H31c-1.6,0-3.2,0.3-4.7,1c-1.4,0.6-2.8,1.5-3.9,2.6c-1.1,1.1-2,2.4-2.6,3.9C19.2,17.9,18.9,19.5,18.9,21.1z"/>
	<path class="st1" d="M567,21.1h-1c0-1.6-0.3-3.2-1-4.7c-0.6-1.5-1.5-2.8-2.6-3.9c-1.1-1.1-2.4-2-3.9-2.6c-1.5-0.6-3.1-1-4.7-1
		H298.1V8h255.7c1.8,0,3.5,0.3,5.1,1c1.6,0.7,3,1.6,4.2,2.8c1.2,1.2,2.2,2.6,2.8,4.2C566.7,17.6,567,19.4,567,21.1z"/>
	<path class="st1" d="M553.8,555.4H298.1v-1h255.7c1.6,0,3.2-0.3,4.7-1c1.5-0.6,2.8-1.5,3.9-2.6s2-2.4,2.6-3.9c0.6-1.5,1-3.1,1-4.7
		h1c0,1.8-0.3,3.5-1,5.1c-0.7,1.6-1.6,3-2.8,4.2s-2.6,2.2-4.2,2.8C557.3,555.1,555.6,555.4,553.8,555.4z"/>
	<path class="st1" d="M286.7,555.4H31c-1.8,0-3.5-0.3-5.1-1c-1.6-0.7-3-1.6-4.2-2.8c-1.2-1.2-2.2-2.6-2.8-4.2c-0.7-1.6-1-3.3-1-5.1
		h1c0,1.6,0.3,3.2,1,4.7c0.6,1.4,1.5,2.8,2.6,3.9c1.1,1.1,2.4,2,3.9,2.6c1.5,0.6,3.1,1,4.7,1h255.7V555.4z"/>
	<circle class="st1" cx="292" cy="562" r="1.8"/>
	<circle class="st1" cx="292" cy="2" r="1.8"/>
	<circle class="st1" cx="2" cy="562" r="1.8"/>
	<circle class="st1" cx="2" cy="2" r="1.8"/>
	<circle class="st1" cx="582" cy="562" r="1.8"/>
	<circle class="st1" cx="582" cy="2" r="1.8"/>
</g>
</svg>
