<?xml version="1.0" encoding="utf-8"?>
<!-- Generator: Adobe Illustrator 25.1.0, SVG Export Plug-In . SVG Version: 6.00 Build 0)  -->
<svg version="1.1" id="animated" xmlns="http://www.w3.org/2000/svg" xmlns:xlink="http://www.w3.org/1999/xlink" x="0px" y="0px"
	 viewBox="0 0 360 340" style="enable-background:new 0 0 360 340;" xml:space="preserve">
<style type="text/css">
	.st0{fill:#6CB8C7;}
</style>
<g id="_x31__2_">
	<path class="st0" d="M201.1,15.4h-0.8c-0.3,0-0.5-0.2-0.5-0.5v-0.8c0-0.3,0.2-0.5,0.5-0.5h0.8c0.3,0,0.5,0.2,0.5,0.5v0.8
		C201.6,15.2,201.4,15.4,201.1,15.4z M200.8,14.4h-0.2v0.2h0.2V14.4z"/>
	<path class="st0" d="M221.1,15.4h-0.8c-0.3,0-0.5-0.2-0.5-0.5v-0.8c0-0.3,0.2-0.5,0.5-0.5h0.8c0.3,0,0.5,0.2,0.5,0.5v0.8
		C221.6,15.2,221.4,15.4,221.1,15.4z M220.8,14.4h-0.2v0.2h0.2V14.4z"/>
	<path class="st0" d="M284.1,56.4h-0.8c-0.3,0-0.5-0.2-0.5-0.5v-0.8c0-0.3,0.2-0.5,0.5-0.5h0.8c0.3,0,0.5,0.2,0.5,0.5v0.8
		C284.6,56.2,284.4,56.4,284.1,56.4z M283.8,55.4h-0.2v0.2h0.2V55.4z"/>
	<path class="st0" d="M76.7,56.4h-0.8c-0.3,0-0.5-0.2-0.5-0.5v-0.8c0-0.3,0.2-0.5,0.5-0.5h0.8c0.3,0,0.5,0.2,0.5,0.5v0.8
		C77.2,56.2,77,56.4,76.7,56.4z M76.4,55.4h-0.2v0.2h0.2V55.4z"/>
	<path class="st0" d="M263.1,36.4h-0.8c-0.3,0-0.5-0.2-0.5-0.5v-0.8c0-0.3,0.2-0.5,0.5-0.5h0.8c0.3,0,0.5,0.2,0.5,0.5v0.8
		C263.6,36.2,263.4,36.4,263.1,36.4z M262.8,35.4h-0.2v0.2h0.2V35.4z"/>
	<path class="st0" d="M97.7,36.4h-0.8c-0.3,0-0.5-0.2-0.5-0.5v-0.8c0-0.3,0.2-0.5,0.5-0.5h0.8c0.3,0,0.5,0.2,0.5,0.5v0.8
		C98.2,36.2,98,36.4,97.7,36.4z M97.4,35.4h-0.2v0.2h0.2V35.4z"/>
	<path class="st0" d="M304.1,77.4h-0.8c-0.3,0-0.5-0.2-0.5-0.5v-0.8c0-0.3,0.2-0.5,0.5-0.5h0.8c0.3,0,0.5,0.2,0.5,0.5v0.8
		C304.6,77.2,304.4,77.4,304.1,77.4z M303.8,76.4h-0.2v0.2h0.2V76.4z"/>
	<path class="st0" d="M56.7,77.4h-0.8c-0.3,0-0.5-0.2-0.5-0.5v-0.8c0-0.3,0.2-0.5,0.5-0.5h0.8c0.3,0,0.5,0.2,0.5,0.5v0.8
		C57.2,77.2,57,77.4,56.7,77.4z M56.4,76.4h-0.2v0.2h0.2V76.4z"/>
	<path class="st0" d="M346.1,118.4h-0.8c-0.3,0-0.5-0.2-0.5-0.5v-0.8c0-0.3,0.2-0.5,0.5-0.5h0.8c0.3,0,0.5,0.2,0.5,0.5v0.8
		C346.6,118.2,346.4,118.4,346.1,118.4z M345.8,117.4h-0.2v0.2h0.2V117.4z"/>
	<path class="st0" d="M14.7,118.4h-0.8c-0.3,0-0.5-0.2-0.5-0.5v-0.8c0-0.3,0.2-0.5,0.5-0.5h0.8c0.3,0,0.5,0.2,0.5,0.5v0.8
		C15.2,118.2,15,118.4,14.7,118.4z M14.4,117.4h-0.2v0.2h0.2V117.4z"/>
	<path class="st0" d="M346.1,139.4h-0.8c-0.3,0-0.5-0.2-0.5-0.5v-0.8c0-0.3,0.2-0.5,0.5-0.5h0.8c0.3,0,0.5,0.2,0.5,0.5v0.8
		C346.6,139.2,346.4,139.4,346.1,139.4z M345.8,138.4h-0.2v0.2h0.2V138.4z"/>
	<path class="st0" d="M14.7,139.4h-0.8c-0.3,0-0.5-0.2-0.5-0.5v-0.8c0-0.3,0.2-0.5,0.5-0.5h0.8c0.3,0,0.5,0.2,0.5,0.5v0.8
		C15.2,139.2,15,139.4,14.7,139.4z M14.4,138.4h-0.2v0.2h0.2V138.4z"/>
	<path class="st0" d="M346.1,159.4h-0.8c-0.3,0-0.5-0.2-0.5-0.5v-0.8c0-0.3,0.2-0.5,0.5-0.5h0.8c0.3,0,0.5,0.2,0.5,0.5v0.8
		C346.6,159.2,346.4,159.4,346.1,159.4z M345.8,158.4h-0.2v0.2h0.2V158.4z"/>
	<path class="st0" d="M14.7,159.4h-0.8c-0.3,0-0.5-0.2-0.5-0.5v-0.8c0-0.3,0.2-0.5,0.5-0.5h0.8c0.3,0,0.5,0.2,0.5,0.5v0.8
		C15.2,159.2,15,159.4,14.7,159.4z M14.4,158.4h-0.2v0.2h0.2V158.4z"/>
	<path class="st0" d="M346.1,182.4h-0.8c-0.3,0-0.5-0.2-0.5-0.5v-0.8c0-0.3,0.2-0.5,0.5-0.5h0.8c0.3,0,0.5,0.2,0.5,0.5v0.8
		C346.6,182.2,346.4,182.4,346.1,182.4z M345.8,181.4h-0.2v0.2h0.2V181.4z"/>
	<path class="st0" d="M14.7,182.4h-0.8c-0.3,0-0.5-0.2-0.5-0.5v-0.8c0-0.3,0.2-0.5,0.5-0.5h0.8c0.3,0,0.5,0.2,0.5,0.5v0.8
		C15.2,182.2,15,182.4,14.7,182.4z M14.4,181.4h-0.2v0.2h0.2V181.4z"/>
	<path class="st0" d="M346.1,202.4h-0.8c-0.3,0-0.5-0.2-0.5-0.5v-0.8c0-0.3,0.2-0.5,0.5-0.5h0.8c0.3,0,0.5,0.2,0.5,0.5v0.8
		C346.6,202.2,346.4,202.4,346.1,202.4z M345.8,201.4h-0.2v0.2h0.2V201.4z"/>
	<path class="st0" d="M14.7,202.4h-0.8c-0.3,0-0.5-0.2-0.5-0.5v-0.8c0-0.3,0.2-0.5,0.5-0.5h0.8c0.3,0,0.5,0.2,0.5,0.5v0.8
		C15.2,202.2,15,202.4,14.7,202.4z M14.4,201.4h-0.2v0.2h0.2V201.4z"/>
	<path class="st0" d="M139.7,15.4h-0.8c-0.3,0-0.5-0.2-0.5-0.5v-0.8c0-0.3,0.2-0.5,0.5-0.5h0.8c0.3,0,0.5,0.2,0.5,0.5v0.8
		C140.2,15.2,140,15.4,139.7,15.4z M139.4,14.4h-0.2v0.2h0.2V14.4z"/>
	<path class="st0" d="M159.7,15.4h-0.8c-0.3,0-0.5-0.2-0.5-0.5v-0.8c0-0.3,0.2-0.5,0.5-0.5h0.8c0.3,0,0.5,0.2,0.5,0.5v0.8
		C160.2,15.2,160,15.4,159.7,15.4z M159.4,14.4h-0.2v0.2h0.2V14.4z"/>
	<path class="st0" d="M201.6,325.1v0.8c0,0.3-0.2,0.5-0.5,0.5h-0.8c-0.3,0-0.5-0.2-0.5-0.5v-0.8c0-0.3,0.2-0.5,0.5-0.5h0.8
		C201.4,324.6,201.6,324.8,201.6,325.1z M200.8,325.4h-0.2v0.2h0.2V325.4z"/>
	<path class="st0" d="M180.4,15.4h-0.8c-0.3,0-0.5-0.2-0.5-0.5v-0.8c0-0.3,0.2-0.5,0.5-0.5h0.8c0.3,0,0.5,0.2,0.5,0.5v0.8
		C180.9,15.2,180.7,15.4,180.4,15.4z M180.1,14.4h-0.2v0.2h0.2V14.4z"/>
	<path class="st0" d="M180.9,325.1v0.8c0,0.3-0.2,0.5-0.5,0.5h-0.8c-0.3,0-0.5-0.2-0.5-0.5v-0.8c0-0.3,0.2-0.5,0.5-0.5h0.8
		C180.7,324.6,180.9,324.8,180.9,325.1z M180.1,325.4h-0.2v0.2h0.2V325.4z"/>
	<path class="st0" d="M221.6,325.1v0.8c0,0.3-0.2,0.5-0.5,0.5h-0.8c-0.3,0-0.5-0.2-0.5-0.5v-0.8c0-0.3,0.2-0.5,0.5-0.5h0.8
		C221.4,324.6,221.6,324.8,221.6,325.1z M220.8,325.4h-0.2v0.2h0.2V325.4z"/>
	<path class="st0" d="M242.1,15.4h-0.8c-0.3,0-0.5-0.2-0.5-0.5v-0.8c0-0.3,0.2-0.5,0.5-0.5h0.8c0.3,0,0.5,0.2,0.5,0.5v0.8
		C242.6,15.2,242.4,15.4,242.1,15.4z M241.8,14.4h-0.2v0.2h0.2V14.4z"/>
	<path class="st0" d="M242.6,325.1v0.8c0,0.3-0.2,0.5-0.5,0.5h-0.8c-0.3,0-0.5-0.2-0.5-0.5v-0.8c0-0.3,0.2-0.5,0.5-0.5h0.8
		C242.4,324.6,242.6,324.8,242.6,325.1z M241.8,325.4h-0.2v0.2h0.2V325.4z"/>
	<path class="st0" d="M284.6,284v0.8c0,0.3-0.2,0.5-0.5,0.5h-0.8c-0.3,0-0.5-0.2-0.5-0.5V284c0-0.3,0.2-0.5,0.5-0.5h0.8
		C284.4,283.5,284.6,283.7,284.6,284z M283.8,284.3h-0.2v0.2h0.2V284.3z"/>
	<path class="st0" d="M77.2,284v0.8c0,0.3-0.2,0.5-0.5,0.5h-0.8c-0.3,0-0.5-0.2-0.5-0.5V284c0-0.3,0.2-0.5,0.5-0.5h0.8
		C77,283.5,77.2,283.7,77.2,284z M76.4,284.3h-0.2v0.2h0.2V284.3z"/>
	<path class="st0" d="M263.6,304v0.8c0,0.3-0.2,0.5-0.5,0.5h-0.8c-0.3,0-0.5-0.2-0.5-0.5V304c0-0.3,0.2-0.5,0.5-0.5h0.8
		C263.4,303.5,263.6,303.7,263.6,304z M262.8,304.3h-0.2v0.2h0.2V304.3z"/>
	<path class="st0" d="M98.2,304v0.8c0,0.3-0.2,0.5-0.5,0.5h-0.8c-0.3,0-0.5-0.2-0.5-0.5V304c0-0.3,0.2-0.5,0.5-0.5h0.8
		C98,303.5,98.2,303.7,98.2,304z M97.4,304.3h-0.2v0.2h0.2V304.3z"/>
	<path class="st0" d="M304.6,263v0.8c0,0.3-0.2,0.5-0.5,0.5h-0.8c-0.3,0-0.5-0.2-0.5-0.5V263c0-0.3,0.2-0.5,0.5-0.5h0.8
		C304.4,262.5,304.6,262.7,304.6,263z M303.8,263.3h-0.2v0.2h0.2V263.3z"/>
	<path class="st0" d="M325.1,97.4h-0.8c-0.3,0-0.5-0.2-0.5-0.5v-0.8c0-0.3,0.2-0.5,0.5-0.5h0.8c0.3,0,0.5,0.2,0.5,0.5v0.8
		C325.6,97.2,325.4,97.4,325.1,97.4z M324.8,96.4h-0.2v0.2h0.2V96.4z"/>
	<path class="st0" d="M325.6,243v0.8c0,0.3-0.2,0.5-0.5,0.5h-0.8c-0.3,0-0.5-0.2-0.5-0.5V243c0-0.3,0.2-0.5,0.5-0.5h0.8
		C325.4,242.5,325.6,242.7,325.6,243z M324.8,243.3h-0.2v0.2h0.2V243.3z"/>
	<path class="st0" d="M57.2,263v0.8c0,0.3-0.2,0.5-0.5,0.5h-0.8c-0.3,0-0.5-0.2-0.5-0.5V263c0-0.3,0.2-0.5,0.5-0.5h0.8
		C57,262.5,57.2,262.7,57.2,263z M56.4,263.3h-0.2v0.2h0.2V263.3z"/>
	<path class="st0" d="M35.7,97.4h-0.8c-0.3,0-0.5-0.2-0.5-0.5v-0.8c0-0.3,0.2-0.5,0.5-0.5h0.8c0.3,0,0.5,0.2,0.5,0.5v0.8
		C36.2,97.2,36,97.4,35.7,97.4z M35.4,96.4h-0.2v0.2h0.2V96.4z"/>
	<path class="st0" d="M36.2,243v0.8c0,0.3-0.2,0.5-0.5,0.5h-0.8c-0.3,0-0.5-0.2-0.5-0.5V243c0-0.3,0.2-0.5,0.5-0.5h0.8
		C36,242.5,36.2,242.7,36.2,243z M35.4,243.3h-0.2v0.2h0.2V243.3z"/>
	<path class="st0" d="M346.6,222v0.8c0,0.3-0.2,0.5-0.5,0.5h-0.8c-0.3,0-0.5-0.2-0.5-0.5V222c0-0.3,0.2-0.5,0.5-0.5h0.8
		C346.4,221.5,346.6,221.7,346.6,222z M345.8,222.3h-0.2v0.2h0.2V222.3z"/>
	<path class="st0" d="M15.2,222v0.8c0,0.3-0.2,0.5-0.5,0.5h-0.8c-0.3,0-0.5-0.2-0.5-0.5V222c0-0.3,0.2-0.5,0.5-0.5h0.8
		C15,221.5,15.2,221.7,15.2,222z M14.4,222.3h-0.2v0.2h0.2V222.3z"/>
	<path class="st0" d="M140.2,325.1v0.8c0,0.3-0.2,0.5-0.5,0.5h-0.8c-0.3,0-0.5-0.2-0.5-0.5v-0.8c0-0.3,0.2-0.5,0.5-0.5h0.8
		C140,324.6,140.2,324.8,140.2,325.1z M139.4,325.4h-0.2v0.2h0.2V325.4z"/>
	<path class="st0" d="M118.7,15.4h-0.8c-0.3,0-0.5-0.2-0.5-0.5v-0.8c0-0.3,0.2-0.5,0.5-0.5h0.8c0.3,0,0.5,0.2,0.5,0.5v0.8
		C119.2,15.2,119,15.4,118.7,15.4z M118.4,14.4h-0.2v0.2h0.2V14.4z"/>
	<path class="st0" d="M119.2,325.1v0.8c0,0.3-0.2,0.5-0.5,0.5h-0.8c-0.3,0-0.5-0.2-0.5-0.5v-0.8c0-0.3,0.2-0.5,0.5-0.5h0.8
		C119,324.6,119.2,324.8,119.2,325.1z M118.4,325.4h-0.2v0.2h0.2V325.4z"/>
	<path class="st0" d="M160.2,325.1v0.8c0,0.3-0.2,0.5-0.5,0.5h-0.8c-0.3,0-0.5-0.2-0.5-0.5v-0.8c0-0.3,0.2-0.5,0.5-0.5h0.8
		C160,324.6,160.2,324.8,160.2,325.1z M159.4,325.4h-0.2v0.2h0.2V325.4z"/>
</g>
<g id="_x32_">
	<path class="st0" d="M202.1,16.4h-2.8c-0.3,0-0.5-0.2-0.5-0.5v-2.8c0-0.3,0.2-0.5,0.5-0.5h2.8c0.3,0,0.5,0.2,0.5,0.5v2.8
		C202.6,16.2,202.4,16.4,202.1,16.4z M199.8,15.4h1.8v-1.8h-1.8V15.4z"/>
	<path class="st0" d="M222.1,16.4h-2.8c-0.3,0-0.5-0.2-0.5-0.5v-2.8c0-0.3,0.2-0.5,0.5-0.5h2.8c0.3,0,0.5,0.2,0.5,0.5v2.8
		C222.6,16.2,222.4,16.4,222.1,16.4z M219.8,15.4h1.8v-1.8h-1.8V15.4z"/>
	<path class="st0" d="M285.1,57.4h-2.8c-0.3,0-0.5-0.2-0.5-0.5v-2.8c0-0.3,0.2-0.5,0.5-0.5h2.8c0.3,0,0.5,0.2,0.5,0.5v2.8
		C285.6,57.2,285.4,57.4,285.1,57.4z M282.8,56.4h1.8v-1.8h-1.8V56.4z"/>
	<path class="st0" d="M77.7,57.4h-2.8c-0.3,0-0.5-0.2-0.5-0.5v-2.8c0-0.3,0.2-0.5,0.5-0.5h2.8c0.3,0,0.5,0.2,0.5,0.5v2.8
		C78.2,57.2,78,57.4,77.7,57.4z M75.4,56.4h1.8v-1.8h-1.8V56.4z"/>
	<path class="st0" d="M264.1,37.4h-2.8c-0.3,0-0.5-0.2-0.5-0.5v-2.8c0-0.3,0.2-0.5,0.5-0.5h2.8c0.3,0,0.5,0.2,0.5,0.5v2.8
		C264.6,37.2,264.4,37.4,264.1,37.4z M261.8,36.4h1.8v-1.8h-1.8V36.4z"/>
	<path class="st0" d="M98.7,37.4h-2.8c-0.3,0-0.5-0.2-0.5-0.5v-2.8c0-0.3,0.2-0.5,0.5-0.5h2.8c0.3,0,0.5,0.2,0.5,0.5v2.8
		C99.2,37.2,99,37.4,98.7,37.4z M96.4,36.4h1.8v-1.8h-1.8V36.4z"/>
	<path class="st0" d="M305.1,78.4h-2.8c-0.3,0-0.5-0.2-0.5-0.5v-2.8c0-0.3,0.2-0.5,0.5-0.5h2.8c0.3,0,0.5,0.2,0.5,0.5v2.8
		C305.6,78.2,305.4,78.4,305.1,78.4z M302.8,77.4h1.8v-1.8h-1.8V77.4z"/>
	<path class="st0" d="M57.7,78.4h-2.8c-0.3,0-0.5-0.2-0.5-0.5v-2.8c0-0.3,0.2-0.5,0.5-0.5h2.8c0.3,0,0.5,0.2,0.5,0.5v2.8
		C58.2,78.2,58,78.4,57.7,78.4z M55.4,77.4h1.8v-1.8h-1.8V77.4z"/>
	<path class="st0" d="M326.1,98.4h-2.8c-0.3,0-0.5-0.2-0.5-0.5v-2.8c0-0.3,0.2-0.5,0.5-0.5h2.8c0.3,0,0.5,0.2,0.5,0.5v2.8
		C326.6,98.2,326.4,98.4,326.1,98.4z M323.8,97.4h1.8v-1.8h-1.8V97.4z"/>
	<path class="st0" d="M36.7,98.4h-2.8c-0.3,0-0.5-0.2-0.5-0.5v-2.8c0-0.3,0.2-0.5,0.5-0.5h2.8c0.3,0,0.5,0.2,0.5,0.5v2.8
		C37.2,98.2,37,98.4,36.7,98.4z M34.4,97.4h1.8v-1.8h-1.8V97.4z"/>
	<path class="st0" d="M347.1,119.4h-2.8c-0.3,0-0.5-0.2-0.5-0.5v-2.8c0-0.3,0.2-0.5,0.5-0.5h2.8c0.3,0,0.5,0.2,0.5,0.5v2.8
		C347.6,119.2,347.4,119.4,347.1,119.4z M344.8,118.4h1.8v-1.8h-1.8V118.4z"/>
	<path class="st0" d="M15.7,119.4h-2.8c-0.3,0-0.5-0.2-0.5-0.5v-2.8c0-0.3,0.2-0.5,0.5-0.5h2.8c0.3,0,0.5,0.2,0.5,0.5v2.8
		C16.2,119.2,16,119.4,15.7,119.4z M13.4,118.4h1.8v-1.8h-1.8V118.4z"/>
	<path class="st0" d="M347.1,140.4h-2.8c-0.3,0-0.5-0.2-0.5-0.5v-2.8c0-0.3,0.2-0.5,0.5-0.5h2.8c0.3,0,0.5,0.2,0.5,0.5v2.8
		C347.6,140.2,347.4,140.4,347.1,140.4z M344.8,139.4h1.8v-1.8h-1.8V139.4z"/>
	<path class="st0" d="M15.7,140.4h-2.8c-0.3,0-0.5-0.2-0.5-0.5v-2.8c0-0.3,0.2-0.5,0.5-0.5h2.8c0.3,0,0.5,0.2,0.5,0.5v2.8
		C16.2,140.2,16,140.4,15.7,140.4z M13.4,139.4h1.8v-1.8h-1.8V139.4z"/>
	<path class="st0" d="M347.1,160.4h-2.8c-0.3,0-0.5-0.2-0.5-0.5v-2.8c0-0.3,0.2-0.5,0.5-0.5h2.8c0.3,0,0.5,0.2,0.5,0.5v2.8
		C347.6,160.2,347.4,160.4,347.1,160.4z M344.8,159.4h1.8v-1.8h-1.8V159.4z"/>
	<path class="st0" d="M15.7,160.4h-2.8c-0.3,0-0.5-0.2-0.5-0.5v-2.8c0-0.3,0.2-0.5,0.5-0.5h2.8c0.3,0,0.5,0.2,0.5,0.5v2.8
		C16.2,160.2,16,160.4,15.7,160.4z M13.4,159.4h1.8v-1.8h-1.8V159.4z"/>
	<path class="st0" d="M347.1,183.4h-2.8c-0.3,0-0.5-0.2-0.5-0.5v-2.8c0-0.3,0.2-0.5,0.5-0.5h2.8c0.3,0,0.5,0.2,0.5,0.5v2.8
		C347.6,183.2,347.4,183.4,347.1,183.4z M344.8,182.4h1.8v-1.8h-1.8V182.4z"/>
	<path class="st0" d="M15.7,183.4h-2.8c-0.3,0-0.5-0.2-0.5-0.5v-2.8c0-0.3,0.2-0.5,0.5-0.5h2.8c0.3,0,0.5,0.2,0.5,0.5v2.8
		C16.2,183.2,16,183.4,15.7,183.4z M13.4,182.4h1.8v-1.8h-1.8V182.4z"/>
	<path class="st0" d="M347.1,203.4h-2.8c-0.3,0-0.5-0.2-0.5-0.5v-2.8c0-0.3,0.2-0.5,0.5-0.5h2.8c0.3,0,0.5,0.2,0.5,0.5v2.8
		C347.6,203.2,347.4,203.4,347.1,203.4z M344.8,202.4h1.8v-1.8h-1.8V202.4z"/>
	<path class="st0" d="M15.7,203.4h-2.8c-0.3,0-0.5-0.2-0.5-0.5v-2.8c0-0.3,0.2-0.5,0.5-0.5h2.8c0.3,0,0.5,0.2,0.5,0.5v2.8
		C16.2,203.2,16,203.4,15.7,203.4z M13.4,202.4h1.8v-1.8h-1.8V202.4z"/>
	<path class="st0" d="M140.7,16.4h-2.8c-0.3,0-0.5-0.2-0.5-0.5v-2.8c0-0.3,0.2-0.5,0.5-0.5h2.8c0.3,0,0.5,0.2,0.5,0.5v2.8
		C141.2,16.2,141,16.4,140.7,16.4z M138.4,15.4h1.8v-1.8h-1.8V15.4z"/>
	<path class="st0" d="M160.7,16.4h-2.8c-0.3,0-0.5-0.2-0.5-0.5v-2.8c0-0.3,0.2-0.5,0.5-0.5h2.8c0.3,0,0.5,0.2,0.5,0.5v2.8
		C161.2,16.2,161,16.4,160.7,16.4z M158.4,15.4h1.8v-1.8h-1.8V15.4z"/>
	<path class="st0" d="M202.6,324.1v2.8c0,0.3-0.2,0.5-0.5,0.5h-2.8c-0.3,0-0.5-0.2-0.5-0.5v-2.8c0-0.3,0.2-0.5,0.5-0.5h2.8
		C202.4,323.6,202.6,323.8,202.6,324.1z M199.8,326.4h1.8v-1.8h-1.8V326.4z"/>
	<path class="st0" d="M181.4,16.4h-2.8c-0.3,0-0.5-0.2-0.5-0.5v-2.8c0-0.3,0.2-0.5,0.5-0.5h2.8c0.3,0,0.5,0.2,0.5,0.5v2.8
		C181.9,16.2,181.7,16.4,181.4,16.4z M179.1,15.4h1.8v-1.8h-1.8V15.4z"/>
	<path class="st0" d="M181.9,324.1v2.8c0,0.3-0.2,0.5-0.5,0.5h-2.8c-0.3,0-0.5-0.2-0.5-0.5v-2.8c0-0.3,0.2-0.5,0.5-0.5h2.8
		C181.7,323.6,181.9,323.8,181.9,324.1z M179.1,326.4h1.8v-1.8h-1.8V326.4z"/>
	<path class="st0" d="M222.6,324.1v2.8c0,0.3-0.2,0.5-0.5,0.5h-2.8c-0.3,0-0.5-0.2-0.5-0.5v-2.8c0-0.3,0.2-0.5,0.5-0.5h2.8
		C222.4,323.6,222.6,323.8,222.6,324.1z M219.8,326.4h1.8v-1.8h-1.8V326.4z"/>
	<path class="st0" d="M243.1,16.4h-2.8c-0.3,0-0.5-0.2-0.5-0.5v-2.8c0-0.3,0.2-0.5,0.5-0.5h2.8c0.3,0,0.5,0.2,0.5,0.5v2.8
		C243.6,16.2,243.4,16.4,243.1,16.4z M240.8,15.4h1.8v-1.8h-1.8V15.4z"/>
	<path class="st0" d="M243.6,324.1v2.8c0,0.3-0.2,0.5-0.5,0.5h-2.8c-0.3,0-0.5-0.2-0.5-0.5v-2.8c0-0.3,0.2-0.5,0.5-0.5h2.8
		C243.4,323.6,243.6,323.8,243.6,324.1z M240.8,326.4h1.8v-1.8h-1.8V326.4z"/>
	<path class="st0" d="M285.6,283v2.8c0,0.3-0.2,0.5-0.5,0.5h-2.8c-0.3,0-0.5-0.2-0.5-0.5V283c0-0.3,0.2-0.5,0.5-0.5h2.8
		C285.4,282.5,285.6,282.7,285.6,283z M282.8,285.3h1.8v-1.8h-1.8V285.3z"/>
	<path class="st0" d="M78.2,283v2.8c0,0.3-0.2,0.5-0.5,0.5h-2.8c-0.3,0-0.5-0.2-0.5-0.5V283c0-0.3,0.2-0.5,0.5-0.5h2.8
		C78,282.5,78.2,282.7,78.2,283z M75.4,285.3h1.8v-1.8h-1.8V285.3z"/>
	<path class="st0" d="M264.6,303v2.8c0,0.3-0.2,0.5-0.5,0.5h-2.8c-0.3,0-0.5-0.2-0.5-0.5V303c0-0.3,0.2-0.5,0.5-0.5h2.8
		C264.4,302.5,264.6,302.7,264.6,303z M261.8,305.3h1.8v-1.8h-1.8V305.3z"/>
	<path class="st0" d="M99.2,303v2.8c0,0.3-0.2,0.5-0.5,0.5h-2.8c-0.3,0-0.5-0.2-0.5-0.5V303c0-0.3,0.2-0.5,0.5-0.5h2.8
		C99,302.5,99.2,302.7,99.2,303z M96.4,305.3h1.8v-1.8h-1.8V305.3z"/>
	<path class="st0" d="M305.6,262v2.8c0,0.3-0.2,0.5-0.5,0.5h-2.8c-0.3,0-0.5-0.2-0.5-0.5V262c0-0.3,0.2-0.5,0.5-0.5h2.8
		C305.4,261.5,305.6,261.7,305.6,262z M302.8,264.3h1.8v-1.8h-1.8V264.3z"/>
	<path class="st0" d="M58.2,262v2.8c0,0.3-0.2,0.5-0.5,0.5h-2.8c-0.3,0-0.5-0.2-0.5-0.5V262c0-0.3,0.2-0.5,0.5-0.5h2.8
		C58,261.5,58.2,261.7,58.2,262z M55.4,264.3h1.8v-1.8h-1.8V264.3z"/>
	<path class="st0" d="M326.6,242v2.8c0,0.3-0.2,0.5-0.5,0.5h-2.8c-0.3,0-0.5-0.2-0.5-0.5V242c0-0.3,0.2-0.5,0.5-0.5h2.8
		C326.4,241.5,326.6,241.7,326.6,242z M323.8,244.3h1.8v-1.8h-1.8V244.3z"/>
	<path class="st0" d="M37.2,242v2.8c0,0.3-0.2,0.5-0.5,0.5h-2.8c-0.3,0-0.5-0.2-0.5-0.5V242c0-0.3,0.2-0.5,0.5-0.5h2.8
		C37,241.5,37.2,241.7,37.2,242z M34.4,244.3h1.8v-1.8h-1.8V244.3z"/>
	<path class="st0" d="M347.6,221v2.8c0,0.3-0.2,0.5-0.5,0.5h-2.8c-0.3,0-0.5-0.2-0.5-0.5V221c0-0.3,0.2-0.5,0.5-0.5h2.8
		C347.4,220.5,347.6,220.7,347.6,221z M344.8,223.3h1.8v-1.8h-1.8V223.3z"/>
	<path class="st0" d="M16.2,221v2.8c0,0.3-0.2,0.5-0.5,0.5h-2.8c-0.3,0-0.5-0.2-0.5-0.5V221c0-0.3,0.2-0.5,0.5-0.5h2.8
		C16,220.5,16.2,220.7,16.2,221z M13.4,223.3h1.8v-1.8h-1.8V223.3z"/>
	<path class="st0" d="M141.2,324.1v2.8c0,0.3-0.2,0.5-0.5,0.5h-2.8c-0.3,0-0.5-0.2-0.5-0.5v-2.8c0-0.3,0.2-0.5,0.5-0.5h2.8
		C141,323.6,141.2,323.8,141.2,324.1z M138.4,326.4h1.8v-1.8h-1.8V326.4z"/>
	<path class="st0" d="M119.7,16.4h-2.8c-0.3,0-0.5-0.2-0.5-0.5v-2.8c0-0.3,0.2-0.5,0.5-0.5h2.8c0.3,0,0.5,0.2,0.5,0.5v2.8
		C120.2,16.2,120,16.4,119.7,16.4z M117.4,15.4h1.8v-1.8h-1.8V15.4z"/>
	<path class="st0" d="M120.2,324.1v2.8c0,0.3-0.2,0.5-0.5,0.5h-2.8c-0.3,0-0.5-0.2-0.5-0.5v-2.8c0-0.3,0.2-0.5,0.5-0.5h2.8
		C120,323.6,120.2,323.8,120.2,324.1z M117.4,326.4h1.8v-1.8h-1.8V326.4z"/>
	<path class="st0" d="M161.2,324.1v2.8c0,0.3-0.2,0.5-0.5,0.5h-2.8c-0.3,0-0.5-0.2-0.5-0.5v-2.8c0-0.3,0.2-0.5,0.5-0.5h2.8
		C161,323.6,161.2,323.8,161.2,324.1z M158.4,326.4h1.8v-1.8h-1.8V326.4z"/>
</g>
<g id="_x33_">
	<path class="st0" d="M203.1,17.4h-4.8c-0.3,0-0.5-0.2-0.5-0.5v-4.8c0-0.3,0.2-0.5,0.5-0.5h4.8c0.3,0,0.5,0.2,0.5,0.5v4.8
		C203.6,17.2,203.4,17.4,203.1,17.4z M198.8,16.4h3.8v-3.8h-3.8V16.4z"/>
	<path class="st0" d="M223.1,17.4h-4.8c-0.3,0-0.5-0.2-0.5-0.5v-4.8c0-0.3,0.2-0.5,0.5-0.5h4.8c0.3,0,0.5,0.2,0.5,0.5v4.8
		C223.6,17.2,223.4,17.4,223.1,17.4z M218.8,16.4h3.8v-3.8h-3.8V16.4z"/>
	<path class="st0" d="M286.1,58.4h-4.8c-0.3,0-0.5-0.2-0.5-0.5v-4.8c0-0.3,0.2-0.5,0.5-0.5h4.8c0.3,0,0.5,0.2,0.5,0.5v4.8
		C286.6,58.2,286.4,58.4,286.1,58.4z M281.8,57.4h3.8v-3.8h-3.8V57.4z"/>
	<path class="st0" d="M78.7,58.4h-4.8c-0.3,0-0.5-0.2-0.5-0.5v-4.8c0-0.3,0.2-0.5,0.5-0.5h4.8c0.3,0,0.5,0.2,0.5,0.5v4.8
		C79.2,58.2,79,58.4,78.7,58.4z M74.4,57.4h3.8v-3.8h-3.8V57.4z"/>
	<path class="st0" d="M265.1,38.4h-4.8c-0.3,0-0.5-0.2-0.5-0.5v-4.8c0-0.3,0.2-0.5,0.5-0.5h4.8c0.3,0,0.5,0.2,0.5,0.5v4.8
		C265.6,38.2,265.4,38.4,265.1,38.4z M260.8,37.4h3.8v-3.8h-3.8V37.4z"/>
	<path class="st0" d="M99.7,38.4h-4.8c-0.3,0-0.5-0.2-0.5-0.5v-4.8c0-0.3,0.2-0.5,0.5-0.5h4.8c0.3,0,0.5,0.2,0.5,0.5v4.8
		C100.2,38.2,100,38.4,99.7,38.4z M95.4,37.4h3.8v-3.8h-3.8V37.4z"/>
	<path class="st0" d="M306.1,79.4h-4.8c-0.3,0-0.5-0.2-0.5-0.5v-4.8c0-0.3,0.2-0.5,0.5-0.5h4.8c0.3,0,0.5,0.2,0.5,0.5v4.8
		C306.6,79.2,306.4,79.4,306.1,79.4z M301.8,78.4h3.8v-3.8h-3.8V78.4z"/>
	<path class="st0" d="M58.7,79.4h-4.8c-0.3,0-0.5-0.2-0.5-0.5v-4.8c0-0.3,0.2-0.5,0.5-0.5h4.8c0.3,0,0.5,0.2,0.5,0.5v4.8
		C59.2,79.2,59,79.4,58.7,79.4z M54.4,78.4h3.8v-3.8h-3.8V78.4z"/>
	<path class="st0" d="M348.1,120.4h-4.8c-0.3,0-0.5-0.2-0.5-0.5v-4.8c0-0.3,0.2-0.5,0.5-0.5h4.8c0.3,0,0.5,0.2,0.5,0.5v4.8
		C348.6,120.2,348.4,120.4,348.1,120.4z M343.8,119.4h3.8v-3.8h-3.8V119.4z"/>
	<path class="st0" d="M16.7,120.4h-4.8c-0.3,0-0.5-0.2-0.5-0.5v-4.8c0-0.3,0.2-0.5,0.5-0.5h4.8c0.3,0,0.5,0.2,0.5,0.5v4.8
		C17.2,120.2,17,120.4,16.7,120.4z M12.4,119.4h3.8v-3.8h-3.8V119.4z"/>
	<path class="st0" d="M348.1,141.4h-4.8c-0.3,0-0.5-0.2-0.5-0.5v-4.8c0-0.3,0.2-0.5,0.5-0.5h4.8c0.3,0,0.5,0.2,0.5,0.5v4.8
		C348.6,141.2,348.4,141.4,348.1,141.4z M343.8,140.4h3.8v-3.8h-3.8V140.4z"/>
	<path class="st0" d="M16.7,141.4h-4.8c-0.3,0-0.5-0.2-0.5-0.5v-4.8c0-0.3,0.2-0.5,0.5-0.5h4.8c0.3,0,0.5,0.2,0.5,0.5v4.8
		C17.2,141.2,17,141.4,16.7,141.4z M12.4,140.4h3.8v-3.8h-3.8V140.4z"/>
	<path class="st0" d="M348.1,161.4h-4.8c-0.3,0-0.5-0.2-0.5-0.5v-4.8c0-0.3,0.2-0.5,0.5-0.5h4.8c0.3,0,0.5,0.2,0.5,0.5v4.8
		C348.6,161.2,348.4,161.4,348.1,161.4z M343.8,160.4h3.8v-3.8h-3.8V160.4z"/>
	<path class="st0" d="M16.7,161.4h-4.8c-0.3,0-0.5-0.2-0.5-0.5v-4.8c0-0.3,0.2-0.5,0.5-0.5h4.8c0.3,0,0.5,0.2,0.5,0.5v4.8
		C17.2,161.2,17,161.4,16.7,161.4z M12.4,160.4h3.8v-3.8h-3.8V160.4z"/>
	<path class="st0" d="M348.1,184.4h-4.8c-0.3,0-0.5-0.2-0.5-0.5v-4.8c0-0.3,0.2-0.5,0.5-0.5h4.8c0.3,0,0.5,0.2,0.5,0.5v4.8
		C348.6,184.2,348.4,184.4,348.1,184.4z M343.8,183.4h3.8v-3.8h-3.8V183.4z"/>
	<path class="st0" d="M16.7,184.4h-4.8c-0.3,0-0.5-0.2-0.5-0.5v-4.8c0-0.3,0.2-0.5,0.5-0.5h4.8c0.3,0,0.5,0.2,0.5,0.5v4.8
		C17.2,184.2,17,184.4,16.7,184.4z M12.4,183.4h3.8v-3.8h-3.8V183.4z"/>
	<path class="st0" d="M348.1,204.4h-4.8c-0.3,0-0.5-0.2-0.5-0.5v-4.8c0-0.3,0.2-0.5,0.5-0.5h4.8c0.3,0,0.5,0.2,0.5,0.5v4.8
		C348.6,204.2,348.4,204.4,348.1,204.4z M343.8,203.4h3.8v-3.8h-3.8V203.4z"/>
	<path class="st0" d="M16.7,204.4h-4.8c-0.3,0-0.5-0.2-0.5-0.5v-4.8c0-0.3,0.2-0.5,0.5-0.5h4.8c0.3,0,0.5,0.2,0.5,0.5v4.8
		C17.2,204.2,17,204.4,16.7,204.4z M12.4,203.4h3.8v-3.8h-3.8V203.4z"/>
	<path class="st0" d="M141.7,17.4h-4.8c-0.3,0-0.5-0.2-0.5-0.5v-4.8c0-0.3,0.2-0.5,0.5-0.5h4.8c0.3,0,0.5,0.2,0.5,0.5v4.8
		C142.2,17.2,142,17.4,141.7,17.4z M137.4,16.4h3.8v-3.8h-3.8V16.4z"/>
	<path class="st0" d="M161.7,17.4h-4.8c-0.3,0-0.5-0.2-0.5-0.5v-4.8c0-0.3,0.2-0.5,0.5-0.5h4.8c0.3,0,0.5,0.2,0.5,0.5v4.8
		C162.2,17.2,162,17.4,161.7,17.4z M157.4,16.4h3.8v-3.8h-3.8V16.4z"/>
	<path class="st0" d="M203.6,323.1v4.8c0,0.3-0.2,0.5-0.5,0.5h-4.8c-0.3,0-0.5-0.2-0.5-0.5v-4.8c0-0.3,0.2-0.5,0.5-0.5h4.8
		C203.4,322.6,203.6,322.8,203.6,323.1z M198.8,327.4h3.8v-3.8h-3.8V327.4z"/>
	<path class="st0" d="M182.4,17.4h-4.8c-0.3,0-0.5-0.2-0.5-0.5v-4.8c0-0.3,0.2-0.5,0.5-0.5h4.8c0.3,0,0.5,0.2,0.5,0.5v4.8
		C182.9,17.2,182.7,17.4,182.4,17.4z M178.1,16.4h3.8v-3.8h-3.8V16.4z"/>
	<path class="st0" d="M182.9,323.1v4.8c0,0.3-0.2,0.5-0.5,0.5h-4.8c-0.3,0-0.5-0.2-0.5-0.5v-4.8c0-0.3,0.2-0.5,0.5-0.5h4.8
		C182.7,322.6,182.9,322.8,182.9,323.1z M178.1,327.4h3.8v-3.8h-3.8V327.4z"/>
	<path class="st0" d="M223.6,323.1v4.8c0,0.3-0.2,0.5-0.5,0.5h-4.8c-0.3,0-0.5-0.2-0.5-0.5v-4.8c0-0.3,0.2-0.5,0.5-0.5h4.8
		C223.4,322.6,223.6,322.8,223.6,323.1z M218.8,327.4h3.8v-3.8h-3.8V327.4z"/>
	<path class="st0" d="M244.2,17.4h-4.8c-0.3,0-0.5-0.2-0.5-0.5v-4.8c0-0.3,0.2-0.5,0.5-0.5h4.8c0.3,0,0.5,0.2,0.5,0.5v4.8
		C244.7,17.2,244.5,17.4,244.2,17.4z M239.9,16.4h3.8v-3.8h-3.8V16.4z"/>
	<path class="st0" d="M244.7,323.1v4.8c0,0.3-0.2,0.5-0.5,0.5h-4.8c-0.3,0-0.5-0.2-0.5-0.5v-4.8c0-0.3,0.2-0.5,0.5-0.5h4.8
		C244.5,322.6,244.7,322.8,244.7,323.1z M239.9,327.4h3.8v-3.8h-3.8V327.4z"/>
	<path class="st0" d="M286.6,282v4.8c0,0.3-0.2,0.5-0.5,0.5h-4.8c-0.3,0-0.5-0.2-0.5-0.5V282c0-0.3,0.2-0.5,0.5-0.5h4.8
		C286.4,281.5,286.6,281.7,286.6,282z M281.8,286.3h3.8v-3.8h-3.8V286.3z"/>
	<path class="st0" d="M79.2,282v4.8c0,0.3-0.2,0.5-0.5,0.5h-4.8c-0.3,0-0.5-0.2-0.5-0.5V282c0-0.3,0.2-0.5,0.5-0.5h4.8
		C79,281.5,79.2,281.7,79.2,282z M74.4,286.3h3.8v-3.8h-3.8V286.3z"/>
	<path class="st0" d="M265.6,302v4.8c0,0.3-0.2,0.5-0.5,0.5h-4.8c-0.3,0-0.5-0.2-0.5-0.5V302c0-0.3,0.2-0.5,0.5-0.5h4.8
		C265.4,301.5,265.6,301.7,265.6,302z M260.8,306.3h3.8v-3.8h-3.8V306.3z"/>
	<path class="st0" d="M100.2,302v4.8c0,0.3-0.2,0.5-0.5,0.5h-4.8c-0.3,0-0.5-0.2-0.5-0.5V302c0-0.3,0.2-0.5,0.5-0.5h4.8
		C100,301.5,100.2,301.7,100.2,302z M95.4,306.3h3.8v-3.8h-3.8V306.3z"/>
	<path class="st0" d="M306.6,261v4.8c0,0.3-0.2,0.5-0.5,0.5h-4.8c-0.3,0-0.5-0.2-0.5-0.5V261c0-0.3,0.2-0.5,0.5-0.5h4.8
		C306.4,260.5,306.6,260.7,306.6,261z M301.8,265.3h3.8v-3.8h-3.8V265.3z"/>
	<path class="st0" d="M327.1,99.4h-4.8c-0.3,0-0.5-0.2-0.5-0.5v-4.8c0-0.3,0.2-0.5,0.5-0.5h4.8c0.3,0,0.5,0.2,0.5,0.5v4.8
		C327.6,99.2,327.4,99.4,327.1,99.4z M322.8,98.4h3.8v-3.8h-3.8V98.4z"/>
	<path class="st0" d="M327.6,241v4.8c0,0.3-0.2,0.5-0.5,0.5h-4.8c-0.3,0-0.5-0.2-0.5-0.5V241c0-0.3,0.2-0.5,0.5-0.5h4.8
		C327.4,240.5,327.6,240.7,327.6,241z M322.8,245.3h3.8v-3.8h-3.8V245.3z"/>
	<path class="st0" d="M59.2,261v4.8c0,0.3-0.2,0.5-0.5,0.5h-4.8c-0.3,0-0.5-0.2-0.5-0.5V261c0-0.3,0.2-0.5,0.5-0.5h4.8
		C59,260.5,59.2,260.7,59.2,261z M54.4,265.3h3.8v-3.8h-3.8V265.3z"/>
	<path class="st0" d="M37.7,99.4h-4.8c-0.3,0-0.5-0.2-0.5-0.5v-4.8c0-0.3,0.2-0.5,0.5-0.5h4.8c0.3,0,0.5,0.2,0.5,0.5v4.8
		C38.2,99.2,38,99.4,37.7,99.4z M33.4,98.4h3.8v-3.8h-3.8V98.4z"/>
	<path class="st0" d="M38.2,241v4.8c0,0.3-0.2,0.5-0.5,0.5h-4.8c-0.3,0-0.5-0.2-0.5-0.5V241c0-0.3,0.2-0.5,0.5-0.5h4.8
		C38,240.5,38.2,240.7,38.2,241z M33.4,245.3h3.8v-3.8h-3.8V245.3z"/>
	<path class="st0" d="M348.6,220v4.8c0,0.3-0.2,0.5-0.5,0.5h-4.8c-0.3,0-0.5-0.2-0.5-0.5V220c0-0.3,0.2-0.5,0.5-0.5h4.8
		C348.4,219.5,348.6,219.7,348.6,220z M343.8,224.3h3.8v-3.8h-3.8V224.3z"/>
	<path class="st0" d="M17.2,220v4.8c0,0.3-0.2,0.5-0.5,0.5h-4.8c-0.3,0-0.5-0.2-0.5-0.5V220c0-0.3,0.2-0.5,0.5-0.5h4.8
		C17,219.5,17.2,219.7,17.2,220z M12.4,224.3h3.8v-3.8h-3.8V224.3z"/>
	<path class="st0" d="M142.2,323.1v4.8c0,0.3-0.2,0.5-0.5,0.5h-4.8c-0.3,0-0.5-0.2-0.5-0.5v-4.8c0-0.3,0.2-0.5,0.5-0.5h4.8
		C142,322.6,142.2,322.8,142.2,323.1z M137.4,327.4h3.8v-3.8h-3.8V327.4z"/>
	<path class="st0" d="M120.7,17.4h-4.8c-0.3,0-0.5-0.2-0.5-0.5v-4.8c0-0.3,0.2-0.5,0.5-0.5h4.8c0.3,0,0.5,0.2,0.5,0.5v4.8
		C121.2,17.2,121,17.4,120.7,17.4z M116.4,16.4h3.8v-3.8h-3.8V16.4z"/>
	<path class="st0" d="M121.2,323.1v4.8c0,0.3-0.2,0.5-0.5,0.5h-4.8c-0.3,0-0.5-0.2-0.5-0.5v-4.8c0-0.3,0.2-0.5,0.5-0.5h4.8
		C121,322.6,121.2,322.8,121.2,323.1z M116.4,327.4h3.8v-3.8h-3.8V327.4z"/>
	<path class="st0" d="M162.2,323.1v4.8c0,0.3-0.2,0.5-0.5,0.5h-4.8c-0.3,0-0.5-0.2-0.5-0.5v-4.8c0-0.3,0.2-0.5,0.5-0.5h4.8
		C162,322.6,162.2,322.8,162.2,323.1z M157.4,327.4h3.8v-3.8h-3.8V327.4z"/>
</g>
<g id="_x34_">
	<path class="st0" d="M204.1,18.4h-6.8c-0.3,0-0.5-0.2-0.5-0.5v-6.8c0-0.3,0.2-0.5,0.5-0.5h6.8c0.3,0,0.5,0.2,0.5,0.5v6.8
		C204.6,18.2,204.4,18.4,204.1,18.4z M197.8,17.4h5.8v-5.8h-5.8V17.4z"/>
	<path class="st0" d="M224.1,18.4h-6.8c-0.3,0-0.5-0.2-0.5-0.5v-6.8c0-0.3,0.2-0.5,0.5-0.5h6.8c0.3,0,0.5,0.2,0.5,0.5v6.8
		C224.6,18.2,224.4,18.4,224.1,18.4z M217.8,17.4h5.8v-5.8h-5.8V17.4z"/>
	<path class="st0" d="M287.1,59.4h-6.8c-0.3,0-0.5-0.2-0.5-0.5v-6.8c0-0.3,0.2-0.5,0.5-0.5h6.8c0.3,0,0.5,0.2,0.5,0.5v6.8
		C287.6,59.2,287.4,59.4,287.1,59.4z M280.8,58.4h5.8v-5.8h-5.8V58.4z"/>
	<path class="st0" d="M79.7,59.4h-6.8c-0.3,0-0.5-0.2-0.5-0.5v-6.8c0-0.3,0.2-0.5,0.5-0.5h6.8c0.3,0,0.5,0.2,0.5,0.5v6.8
		C80.2,59.2,80,59.4,79.7,59.4z M73.4,58.4h5.8v-5.8h-5.8V58.4z"/>
	<path class="st0" d="M266.1,39.4h-6.8c-0.3,0-0.5-0.2-0.5-0.5v-6.8c0-0.3,0.2-0.5,0.5-0.5h6.8c0.3,0,0.5,0.2,0.5,0.5v6.8
		C266.6,39.2,266.4,39.4,266.1,39.4z M259.8,38.4h5.8v-5.8h-5.8V38.4z"/>
	<path class="st0" d="M100.7,39.4h-6.8c-0.3,0-0.5-0.2-0.5-0.5v-6.8c0-0.3,0.2-0.5,0.5-0.5h6.8c0.3,0,0.5,0.2,0.5,0.5v6.8
		C101.2,39.2,101,39.4,100.7,39.4z M94.4,38.4h5.8v-5.8h-5.8V38.4z"/>
	<path class="st0" d="M307.1,80.4h-6.8c-0.3,0-0.5-0.2-0.5-0.5v-6.8c0-0.3,0.2-0.5,0.5-0.5h6.8c0.3,0,0.5,0.2,0.5,0.5v6.8
		C307.6,80.2,307.4,80.4,307.1,80.4z M300.8,79.4h5.8v-5.8h-5.8V79.4z"/>
	<path class="st0" d="M59.7,80.4h-6.8c-0.3,0-0.5-0.2-0.5-0.5v-6.8c0-0.3,0.2-0.5,0.5-0.5h6.8c0.3,0,0.5,0.2,0.5,0.5v6.8
		C60.2,80.2,60,80.4,59.7,80.4z M53.4,79.4h5.8v-5.8h-5.8V79.4z"/>
	<path class="st0" d="M349.1,121.4h-6.8c-0.3,0-0.5-0.2-0.5-0.5v-6.8c0-0.3,0.2-0.5,0.5-0.5h6.8c0.3,0,0.5,0.2,0.5,0.5v6.8
		C349.6,121.2,349.4,121.4,349.1,121.4z M342.8,120.4h5.8v-5.8h-5.8V120.4z"/>
	<path class="st0" d="M17.7,121.4h-6.8c-0.3,0-0.5-0.2-0.5-0.5v-6.8c0-0.3,0.2-0.5,0.5-0.5h6.8c0.3,0,0.5,0.2,0.5,0.5v6.8
		C18.2,121.2,18,121.4,17.7,121.4z M11.4,120.4h5.8v-5.8h-5.8V120.4z"/>
	<path class="st0" d="M328.1,100.4h-6.8c-0.3,0-0.5-0.2-0.5-0.5v-6.8c0-0.3,0.2-0.5,0.5-0.5h6.8c0.3,0,0.5,0.2,0.5,0.5v6.8
		C328.6,100.2,328.4,100.4,328.1,100.4z M321.8,99.4h5.8v-5.8h-5.8V99.4z"/>
	<path class="st0" d="M38.7,100.4h-6.8c-0.3,0-0.5-0.2-0.5-0.5v-6.8c0-0.3,0.2-0.5,0.5-0.5h6.8c0.3,0,0.5,0.2,0.5,0.5v6.8
		C39.2,100.2,39,100.4,38.7,100.4z M32.4,99.4h5.8v-5.8h-5.8V99.4z"/>
	<path class="st0" d="M349.1,142.4h-6.8c-0.3,0-0.5-0.2-0.5-0.5v-6.8c0-0.3,0.2-0.5,0.5-0.5h6.8c0.3,0,0.5,0.2,0.5,0.5v6.8
		C349.6,142.2,349.4,142.4,349.1,142.4z M342.8,141.4h5.8v-5.8h-5.8V141.4z"/>
	<path class="st0" d="M17.7,142.4h-6.8c-0.3,0-0.5-0.2-0.5-0.5v-6.8c0-0.3,0.2-0.5,0.5-0.5h6.8c0.3,0,0.5,0.2,0.5,0.5v6.8
		C18.2,142.2,18,142.4,17.7,142.4z M11.4,141.4h5.8v-5.8h-5.8V141.4z"/>
	<path class="st0" d="M349.1,162.4h-6.8c-0.3,0-0.5-0.2-0.5-0.5v-6.8c0-0.3,0.2-0.5,0.5-0.5h6.8c0.3,0,0.5,0.2,0.5,0.5v6.8
		C349.6,162.2,349.4,162.4,349.1,162.4z M342.8,161.4h5.8v-5.8h-5.8V161.4z"/>
	<path class="st0" d="M17.7,162.4h-6.8c-0.3,0-0.5-0.2-0.5-0.5v-6.8c0-0.3,0.2-0.5,0.5-0.5h6.8c0.3,0,0.5,0.2,0.5,0.5v6.8
		C18.2,162.2,18,162.4,17.7,162.4z M11.4,161.4h5.8v-5.8h-5.8V161.4z"/>
	<path class="st0" d="M142.7,18.4h-6.8c-0.3,0-0.5-0.2-0.5-0.5v-6.8c0-0.3,0.2-0.5,0.5-0.5h6.8c0.3,0,0.5,0.2,0.5,0.5v6.8
		C143.2,18.2,143,18.4,142.7,18.4z M136.4,17.4h5.8v-5.8h-5.8V17.4z"/>
	<path class="st0" d="M162.7,18.4h-6.8c-0.3,0-0.5-0.2-0.5-0.5v-6.8c0-0.3,0.2-0.5,0.5-0.5h6.8c0.3,0,0.5,0.2,0.5,0.5v6.8
		C163.2,18.2,163,18.4,162.7,18.4z M156.4,17.4h5.8v-5.8h-5.8V17.4z"/>
	<path class="st0" d="M204.6,322.1v6.8c0,0.3-0.2,0.5-0.5,0.5h-6.8c-0.3,0-0.5-0.2-0.5-0.5v-6.8c0-0.3,0.2-0.5,0.5-0.5h6.8
		C204.4,321.6,204.6,321.8,204.6,322.1z M197.8,328.4h5.8v-5.8h-5.8V328.4z"/>
	<path class="st0" d="M183.4,18.4h-6.8c-0.3,0-0.5-0.2-0.5-0.5v-6.8c0-0.3,0.2-0.5,0.5-0.5h6.8c0.3,0,0.5,0.2,0.5,0.5v6.8
		C183.9,18.2,183.7,18.4,183.4,18.4z M177.1,17.4h5.8v-5.8h-5.8V17.4z"/>
	<path class="st0" d="M183.9,322.1v6.8c0,0.3-0.2,0.5-0.5,0.5h-6.8c-0.3,0-0.5-0.2-0.5-0.5v-6.8c0-0.3,0.2-0.5,0.5-0.5h6.8
		C183.7,321.6,183.9,321.8,183.9,322.1z M177.1,328.4h5.8v-5.8h-5.8V328.4z"/>
	<path class="st0" d="M224.6,322.1v6.8c0,0.3-0.2,0.5-0.5,0.5h-6.8c-0.3,0-0.5-0.2-0.5-0.5v-6.8c0-0.3,0.2-0.5,0.5-0.5h6.8
		C224.4,321.6,224.6,321.8,224.6,322.1z M217.8,328.4h5.8v-5.8h-5.8V328.4z"/>
	<path class="st0" d="M245.2,18.4h-6.8c-0.3,0-0.5-0.2-0.5-0.5v-6.8c0-0.3,0.2-0.5,0.5-0.5h6.8c0.3,0,0.5,0.2,0.5,0.5v6.8
		C245.7,18.2,245.5,18.4,245.2,18.4z M238.9,17.4h5.8v-5.8h-5.8V17.4z"/>
	<path class="st0" d="M245.7,322.1v6.8c0,0.3-0.2,0.5-0.5,0.5h-6.8c-0.3,0-0.5-0.2-0.5-0.5v-6.8c0-0.3,0.2-0.5,0.5-0.5h6.8
		C245.5,321.6,245.7,321.8,245.7,322.1z M238.9,328.4h5.8v-5.8h-5.8V328.4z"/>
	<path class="st0" d="M287.6,281v6.8c0,0.3-0.2,0.5-0.5,0.5h-6.8c-0.3,0-0.5-0.2-0.5-0.5V281c0-0.3,0.2-0.5,0.5-0.5h6.8
		C287.4,280.5,287.6,280.7,287.6,281z M280.8,287.3h5.8v-5.8h-5.8V287.3z"/>
	<path class="st0" d="M80.2,281v6.8c0,0.3-0.2,0.5-0.5,0.5h-6.8c-0.3,0-0.5-0.2-0.5-0.5V281c0-0.3,0.2-0.5,0.5-0.5h6.8
		C80,280.5,80.2,280.7,80.2,281z M73.4,287.3h5.8v-5.8h-5.8V287.3z"/>
	<path class="st0" d="M266.6,301v6.8c0,0.3-0.2,0.5-0.5,0.5h-6.8c-0.3,0-0.5-0.2-0.5-0.5V301c0-0.3,0.2-0.5,0.5-0.5h6.8
		C266.4,300.5,266.6,300.7,266.6,301z M259.8,307.3h5.8v-5.8h-5.8V307.3z"/>
	<path class="st0" d="M101.2,301v6.8c0,0.3-0.2,0.5-0.5,0.5h-6.8c-0.3,0-0.5-0.2-0.5-0.5V301c0-0.3,0.2-0.5,0.5-0.5h6.8
		C101,300.5,101.2,300.7,101.2,301z M94.4,307.3h5.8v-5.8h-5.8V307.3z"/>
	<path class="st0" d="M307.6,260v6.8c0,0.3-0.2,0.5-0.5,0.5h-6.8c-0.3,0-0.5-0.2-0.5-0.5V260c0-0.3,0.2-0.5,0.5-0.5h6.8
		C307.4,259.5,307.6,259.7,307.6,260z M300.8,266.3h5.8v-5.8h-5.8V266.3z"/>
	<path class="st0" d="M60.2,260v6.8c0,0.3-0.2,0.5-0.5,0.5h-6.8c-0.3,0-0.5-0.2-0.5-0.5V260c0-0.3,0.2-0.5,0.5-0.5h6.8
		C60,259.5,60.2,259.7,60.2,260z M53.4,266.3h5.8v-5.8h-5.8V266.3z"/>
	<path class="st0" d="M349.6,219v6.8c0,0.3-0.2,0.5-0.5,0.5h-6.8c-0.3,0-0.5-0.2-0.5-0.5V219c0-0.3,0.2-0.5,0.5-0.5h6.8
		C349.4,218.5,349.6,218.7,349.6,219z M342.8,225.3h5.8v-5.8h-5.8V225.3z"/>
	<path class="st0" d="M18.2,219v6.8c0,0.3-0.2,0.5-0.5,0.5h-6.8c-0.3,0-0.5-0.2-0.5-0.5V219c0-0.3,0.2-0.5,0.5-0.5h6.8
		C18,218.5,18.2,218.7,18.2,219z M11.4,225.3h5.8v-5.8h-5.8V225.3z"/>
	<path class="st0" d="M328.6,240v6.8c0,0.3-0.2,0.5-0.5,0.5h-6.8c-0.3,0-0.5-0.2-0.5-0.5V240c0-0.3,0.2-0.5,0.5-0.5h6.8
		C328.4,239.5,328.6,239.7,328.6,240z M321.8,246.3h5.8v-5.8h-5.8V246.3z"/>
	<path class="st0" d="M39.2,240v6.8c0,0.3-0.2,0.5-0.5,0.5h-6.8c-0.3,0-0.5-0.2-0.5-0.5V240c0-0.3,0.2-0.5,0.5-0.5h6.8
		C39,239.5,39.2,239.7,39.2,240z M32.4,246.3h5.8v-5.8h-5.8V246.3z"/>
	<path class="st0" d="M349.6,198v6.8c0,0.3-0.2,0.5-0.5,0.5h-6.8c-0.3,0-0.5-0.2-0.5-0.5V198c0-0.3,0.2-0.5,0.5-0.5h6.8
		C349.4,197.5,349.6,197.7,349.6,198z M342.8,204.3h5.8v-5.8h-5.8V204.3z"/>
	<path class="st0" d="M18.2,198v6.8c0,0.3-0.2,0.5-0.5,0.5h-6.8c-0.3,0-0.5-0.2-0.5-0.5V198c0-0.3,0.2-0.5,0.5-0.5h6.8
		C18,197.5,18.2,197.7,18.2,198z M11.4,204.3h5.8v-5.8h-5.8V204.3z"/>
	<path class="st0" d="M349.6,178v6.8c0,0.3-0.2,0.5-0.5,0.5h-6.8c-0.3,0-0.5-0.2-0.5-0.5V178c0-0.3,0.2-0.5,0.5-0.5h6.8
		C349.4,177.5,349.6,177.7,349.6,178z M342.8,184.3h5.8v-5.8h-5.8V184.3z"/>
	<path class="st0" d="M18.2,178v6.8c0,0.3-0.2,0.5-0.5,0.5h-6.8c-0.3,0-0.5-0.2-0.5-0.5V178c0-0.3,0.2-0.5,0.5-0.5h6.8
		C18,177.5,18.2,177.7,18.2,178z M11.4,184.3h5.8v-5.8h-5.8V184.3z"/>
	<path class="st0" d="M143.2,322.1v6.8c0,0.3-0.2,0.5-0.5,0.5h-6.8c-0.3,0-0.5-0.2-0.5-0.5v-6.8c0-0.3,0.2-0.5,0.5-0.5h6.8
		C143,321.6,143.2,321.8,143.2,322.1z M136.4,328.4h5.8v-5.8h-5.8V328.4z"/>
	<path class="st0" d="M121.7,18.4h-6.8c-0.3,0-0.5-0.2-0.5-0.5v-6.8c0-0.3,0.2-0.5,0.5-0.5h6.8c0.3,0,0.5,0.2,0.5,0.5v6.8
		C122.2,18.2,122,18.4,121.7,18.4z M115.4,17.4h5.8v-5.8h-5.8V17.4z"/>
	<path class="st0" d="M122.2,322.1v6.8c0,0.3-0.2,0.5-0.5,0.5h-6.8c-0.3,0-0.5-0.2-0.5-0.5v-6.8c0-0.3,0.2-0.5,0.5-0.5h6.8
		C122,321.6,122.2,321.8,122.2,322.1z M115.4,328.4h5.8v-5.8h-5.8V328.4z"/>
	<path class="st0" d="M163.2,322.1v6.8c0,0.3-0.2,0.5-0.5,0.5h-6.8c-0.3,0-0.5-0.2-0.5-0.5v-6.8c0-0.3,0.2-0.5,0.5-0.5h6.8
		C163,321.6,163.2,321.8,163.2,322.1z M156.4,328.4h5.8v-5.8h-5.8V328.4z"/>
</g>
<g id="_x35_">
	<path class="st0" d="M205.1,19.4h-8.8c-0.3,0-0.5-0.2-0.5-0.5v-8.8c0-0.3,0.2-0.5,0.5-0.5h8.8c0.3,0,0.5,0.2,0.5,0.5v8.8
		C205.6,19.2,205.4,19.4,205.1,19.4z M196.8,18.4h7.8v-7.8h-7.8V18.4z"/>
	<path class="st0" d="M225.1,19.4h-8.8c-0.3,0-0.5-0.2-0.5-0.5v-8.8c0-0.3,0.2-0.5,0.5-0.5h8.8c0.3,0,0.5,0.2,0.5,0.5v8.8
		C225.6,19.2,225.4,19.4,225.1,19.4z M216.8,18.4h7.8v-7.8h-7.8V18.4z"/>
	<path class="st0" d="M288.1,60.4h-8.8c-0.3,0-0.5-0.2-0.5-0.5v-8.8c0-0.3,0.2-0.5,0.5-0.5h8.8c0.3,0,0.5,0.2,0.5,0.5v8.8
		C288.6,60.2,288.4,60.4,288.1,60.4z M279.8,59.4h7.8v-7.8h-7.8V59.4z"/>
	<path class="st0" d="M80.7,60.4h-8.8c-0.3,0-0.5-0.2-0.5-0.5v-8.8c0-0.3,0.2-0.5,0.5-0.5h8.8c0.3,0,0.5,0.2,0.5,0.5v8.8
		C81.2,60.2,81,60.4,80.7,60.4z M72.4,59.4h7.8v-7.8h-7.8V59.4z"/>
	<path class="st0" d="M267.1,40.4h-8.8c-0.3,0-0.5-0.2-0.5-0.5v-8.8c0-0.3,0.2-0.5,0.5-0.5h8.8c0.3,0,0.5,0.2,0.5,0.5v8.8
		C267.6,40.2,267.4,40.4,267.1,40.4z M258.8,39.4h7.8v-7.8h-7.8V39.4z"/>
	<path class="st0" d="M101.7,40.4h-8.8c-0.3,0-0.5-0.2-0.5-0.5v-8.8c0-0.3,0.2-0.5,0.5-0.5h8.8c0.3,0,0.5,0.2,0.5,0.5v8.8
		C102.2,40.2,102,40.4,101.7,40.4z M93.4,39.4h7.8v-7.8h-7.8V39.4z"/>
	<path class="st0" d="M308.1,81.4h-8.8c-0.3,0-0.5-0.2-0.5-0.5v-8.8c0-0.3,0.2-0.5,0.5-0.5h8.8c0.3,0,0.5,0.2,0.5,0.5v8.8
		C308.6,81.2,308.4,81.4,308.1,81.4z M299.8,80.4h7.8v-7.8h-7.8V80.4z"/>
	<path class="st0" d="M60.7,81.4h-8.8c-0.3,0-0.5-0.2-0.5-0.5v-8.8c0-0.3,0.2-0.5,0.5-0.5h8.8c0.3,0,0.5,0.2,0.5,0.5v8.8
		C61.2,81.2,61,81.4,60.7,81.4z M52.4,80.4h7.8v-7.8h-7.8V80.4z"/>
	<path class="st0" d="M350.1,122.4h-8.8c-0.3,0-0.5-0.2-0.5-0.5v-8.8c0-0.3,0.2-0.5,0.5-0.5h8.8c0.3,0,0.5,0.2,0.5,0.5v8.8
		C350.6,122.2,350.4,122.4,350.1,122.4z M341.8,121.4h7.8v-7.8h-7.8V121.4z"/>
	<path class="st0" d="M18.7,122.4H9.9c-0.3,0-0.5-0.2-0.5-0.5v-8.8c0-0.3,0.2-0.5,0.5-0.5h8.8c0.3,0,0.5,0.2,0.5,0.5v8.8
		C19.2,122.2,19,122.4,18.7,122.4z M10.4,121.4h7.8v-7.8h-7.8V121.4z"/>
	<path class="st0" d="M329.1,101.4h-8.8c-0.3,0-0.5-0.2-0.5-0.5v-8.8c0-0.3,0.2-0.5,0.5-0.5h8.8c0.3,0,0.5,0.2,0.5,0.5v8.8
		C329.6,101.2,329.4,101.4,329.1,101.4z M320.8,100.4h7.8v-7.8h-7.8V100.4z"/>
	<path class="st0" d="M39.7,101.4h-8.8c-0.3,0-0.5-0.2-0.5-0.5v-8.8c0-0.3,0.2-0.5,0.5-0.5h8.8c0.3,0,0.5,0.2,0.5,0.5v8.8
		C40.2,101.2,40,101.4,39.7,101.4z M31.4,100.4h7.8v-7.8h-7.8V100.4z"/>
	<path class="st0" d="M350.1,143.4h-8.8c-0.3,0-0.5-0.2-0.5-0.5v-8.8c0-0.3,0.2-0.5,0.5-0.5h8.8c0.3,0,0.5,0.2,0.5,0.5v8.8
		C350.6,143.2,350.4,143.4,350.1,143.4z M341.8,142.4h7.8v-7.8h-7.8V142.4z"/>
	<path class="st0" d="M18.7,143.4H9.9c-0.3,0-0.5-0.2-0.5-0.5v-8.8c0-0.3,0.2-0.5,0.5-0.5h8.8c0.3,0,0.5,0.2,0.5,0.5v8.8
		C19.2,143.2,19,143.4,18.7,143.4z M10.4,142.4h7.8v-7.8h-7.8V142.4z"/>
	<path class="st0" d="M350.1,163.4h-8.8c-0.3,0-0.5-0.2-0.5-0.5v-8.8c0-0.3,0.2-0.5,0.5-0.5h8.8c0.3,0,0.5,0.2,0.5,0.5v8.8
		C350.6,163.2,350.4,163.4,350.1,163.4z M341.8,162.4h7.8v-7.8h-7.8V162.4z"/>
	<path class="st0" d="M18.7,163.4H9.9c-0.3,0-0.5-0.2-0.5-0.5v-8.8c0-0.3,0.2-0.5,0.5-0.5h8.8c0.3,0,0.5,0.2,0.5,0.5v8.8
		C19.2,163.2,19,163.4,18.7,163.4z M10.4,162.4h7.8v-7.8h-7.8V162.4z"/>
	<path class="st0" d="M350.1,186.4h-8.8c-0.3,0-0.5-0.2-0.5-0.5v-8.8c0-0.3,0.2-0.5,0.5-0.5h8.8c0.3,0,0.5,0.2,0.5,0.5v8.8
		C350.6,186.2,350.4,186.4,350.1,186.4z M341.8,185.4h7.8v-7.8h-7.8V185.4z"/>
	<path class="st0" d="M18.7,186.4H9.9c-0.3,0-0.5-0.2-0.5-0.5v-8.8c0-0.3,0.2-0.5,0.5-0.5h8.8c0.3,0,0.5,0.2,0.5,0.5v8.8
		C19.2,186.2,19,186.4,18.7,186.4z M10.4,185.4h7.8v-7.8h-7.8V185.4z"/>
	<path class="st0" d="M350.1,206.4h-8.8c-0.3,0-0.5-0.2-0.5-0.5v-8.8c0-0.3,0.2-0.5,0.5-0.5h8.8c0.3,0,0.5,0.2,0.5,0.5v8.8
		C350.6,206.2,350.4,206.4,350.1,206.4z M341.8,205.4h7.8v-7.8h-7.8V205.4z"/>
	<path class="st0" d="M18.7,206.4H9.9c-0.3,0-0.5-0.2-0.5-0.5v-8.8c0-0.3,0.2-0.5,0.5-0.5h8.8c0.3,0,0.5,0.2,0.5,0.5v8.8
		C19.2,206.2,19,206.4,18.7,206.4z M10.4,205.4h7.8v-7.8h-7.8V205.4z"/>
	<path class="st0" d="M143.7,19.4h-8.8c-0.3,0-0.5-0.2-0.5-0.5v-8.8c0-0.3,0.2-0.5,0.5-0.5h8.8c0.3,0,0.5,0.2,0.5,0.5v8.8
		C144.2,19.2,144,19.4,143.7,19.4z M135.4,18.4h7.8v-7.8h-7.8V18.4z"/>
	<path class="st0" d="M163.7,19.4h-8.8c-0.3,0-0.5-0.2-0.5-0.5v-8.8c0-0.3,0.2-0.5,0.5-0.5h8.8c0.3,0,0.5,0.2,0.5,0.5v8.8
		C164.2,19.2,164,19.4,163.7,19.4z M155.4,18.4h7.8v-7.8h-7.8V18.4z"/>
	<path class="st0" d="M205.6,321.1v8.8c0,0.3-0.2,0.5-0.5,0.5h-8.8c-0.3,0-0.5-0.2-0.5-0.5v-8.8c0-0.3,0.2-0.5,0.5-0.5h8.8
		C205.4,320.6,205.6,320.8,205.6,321.1z M196.8,329.4h7.8v-7.8h-7.8V329.4z"/>
	<path class="st0" d="M184.4,19.4h-8.8c-0.3,0-0.5-0.2-0.5-0.5v-8.8c0-0.3,0.2-0.5,0.5-0.5h8.8c0.3,0,0.5,0.2,0.5,0.5v8.8
		C184.9,19.2,184.7,19.4,184.4,19.4z M176.1,18.4h7.8v-7.8h-7.8V18.4z"/>
	<path class="st0" d="M184.9,321.1v8.8c0,0.3-0.2,0.5-0.5,0.5h-8.8c-0.3,0-0.5-0.2-0.5-0.5v-8.8c0-0.3,0.2-0.5,0.5-0.5h8.8
		C184.7,320.6,184.9,320.8,184.9,321.1z M176.1,329.4h7.8v-7.8h-7.8V329.4z"/>
	<path class="st0" d="M225.6,321.1v8.8c0,0.3-0.2,0.5-0.5,0.5h-8.8c-0.3,0-0.5-0.2-0.5-0.5v-8.8c0-0.3,0.2-0.5,0.5-0.5h8.8
		C225.4,320.6,225.6,320.8,225.6,321.1z M216.8,329.4h7.8v-7.8h-7.8V329.4z"/>
	<path class="st0" d="M246.2,19.4h-8.8c-0.3,0-0.5-0.2-0.5-0.5v-8.8c0-0.3,0.2-0.5,0.5-0.5h8.8c0.3,0,0.5,0.2,0.5,0.5v8.8
		C246.7,19.2,246.5,19.4,246.2,19.4z M237.9,18.4h7.8v-7.8h-7.8V18.4z"/>
	<path class="st0" d="M246.7,321.1v8.8c0,0.3-0.2,0.5-0.5,0.5h-8.8c-0.3,0-0.5-0.2-0.5-0.5v-8.8c0-0.3,0.2-0.5,0.5-0.5h8.8
		C246.5,320.6,246.7,320.8,246.7,321.1z M237.9,329.4h7.8v-7.8h-7.8V329.4z"/>
	<path class="st0" d="M288.6,280v8.8c0,0.3-0.2,0.5-0.5,0.5h-8.8c-0.3,0-0.5-0.2-0.5-0.5V280c0-0.3,0.2-0.5,0.5-0.5h8.8
		C288.4,279.5,288.6,279.7,288.6,280z M279.8,288.3h7.8v-7.8h-7.8V288.3z"/>
	<path class="st0" d="M81.2,280v8.8c0,0.3-0.2,0.5-0.5,0.5h-8.8c-0.3,0-0.5-0.2-0.5-0.5V280c0-0.3,0.2-0.5,0.5-0.5h8.8
		C81,279.5,81.2,279.7,81.2,280z M72.4,288.3h7.8v-7.8h-7.8V288.3z"/>
	<path class="st0" d="M267.6,300v8.8c0,0.3-0.2,0.5-0.5,0.5h-8.8c-0.3,0-0.5-0.2-0.5-0.5V300c0-0.3,0.2-0.5,0.5-0.5h8.8
		C267.4,299.5,267.6,299.7,267.6,300z M258.8,308.3h7.8v-7.8h-7.8V308.3z"/>
	<path class="st0" d="M102.2,300v8.8c0,0.3-0.2,0.5-0.5,0.5h-8.8c-0.3,0-0.5-0.2-0.5-0.5V300c0-0.3,0.2-0.5,0.5-0.5h8.8
		C102,299.5,102.2,299.7,102.2,300z M93.4,308.3h7.8v-7.8h-7.8V308.3z"/>
	<path class="st0" d="M308.6,259v8.8c0,0.3-0.2,0.5-0.5,0.5h-8.8c-0.3,0-0.5-0.2-0.5-0.5V259c0-0.3,0.2-0.5,0.5-0.5h8.8
		C308.4,258.5,308.6,258.7,308.6,259z M299.8,267.3h7.8v-7.8h-7.8V267.3z"/>
	<path class="st0" d="M61.2,259v8.8c0,0.3-0.2,0.5-0.5,0.5h-8.8c-0.3,0-0.5-0.2-0.5-0.5V259c0-0.3,0.2-0.5,0.5-0.5h8.8
		C61,258.5,61.2,258.7,61.2,259z M52.4,267.3h7.8v-7.8h-7.8V267.3z"/>
	<path class="st0" d="M350.6,218v8.8c0,0.3-0.2,0.5-0.5,0.5h-8.8c-0.3,0-0.5-0.2-0.5-0.5V218c0-0.3,0.2-0.5,0.5-0.5h8.8
		C350.4,217.5,350.6,217.7,350.6,218z M341.8,226.3h7.8v-7.8h-7.8V226.3z"/>
	<path class="st0" d="M19.2,218v8.8c0,0.3-0.2,0.5-0.5,0.5H9.9c-0.3,0-0.5-0.2-0.5-0.5V218c0-0.3,0.2-0.5,0.5-0.5h8.8
		C19,217.5,19.2,217.7,19.2,218z M10.4,226.3h7.8v-7.8h-7.8V226.3z"/>
	<path class="st0" d="M329.6,239v8.8c0,0.3-0.2,0.5-0.5,0.5h-8.8c-0.3,0-0.5-0.2-0.5-0.5V239c0-0.3,0.2-0.5,0.5-0.5h8.8
		C329.4,238.5,329.6,238.7,329.6,239z M320.8,247.3h7.8v-7.8h-7.8V247.3z"/>
	<path class="st0" d="M40.2,239v8.8c0,0.3-0.2,0.5-0.5,0.5h-8.8c-0.3,0-0.5-0.2-0.5-0.5V239c0-0.3,0.2-0.5,0.5-0.5h8.8
		C40,238.5,40.2,238.7,40.2,239z M31.4,247.3h7.8v-7.8h-7.8V247.3z"/>
	<path class="st0" d="M144.2,321.1v8.8c0,0.3-0.2,0.5-0.5,0.5h-8.8c-0.3,0-0.5-0.2-0.5-0.5v-8.8c0-0.3,0.2-0.5,0.5-0.5h8.8
		C144,320.6,144.2,320.8,144.2,321.1z M135.4,329.4h7.8v-7.8h-7.8V329.4z"/>
	<path class="st0" d="M122.7,19.4h-8.8c-0.3,0-0.5-0.2-0.5-0.5v-8.8c0-0.3,0.2-0.5,0.5-0.5h8.8c0.3,0,0.5,0.2,0.5,0.5v8.8
		C123.2,19.2,123,19.4,122.7,19.4z M114.4,18.4h7.8v-7.8h-7.8V18.4z"/>
	<path class="st0" d="M123.2,321.1v8.8c0,0.3-0.2,0.5-0.5,0.5h-8.8c-0.3,0-0.5-0.2-0.5-0.5v-8.8c0-0.3,0.2-0.5,0.5-0.5h8.8
		C123,320.6,123.2,320.8,123.2,321.1z M114.4,329.4h7.8v-7.8h-7.8V329.4z"/>
	<path class="st0" d="M164.2,321.1v8.8c0,0.3-0.2,0.5-0.5,0.5h-8.8c-0.3,0-0.5-0.2-0.5-0.5v-8.8c0-0.3,0.2-0.5,0.5-0.5h8.8
		C164,320.6,164.2,320.8,164.2,321.1z M155.4,329.4h7.8v-7.8h-7.8V329.4z"/>
</g>
</svg>
