<?xml version="1.0" encoding="utf-8"?>
<!-- Generator: Adobe Illustrator 25.1.0, SVG Export Plug-In . SVG Version: 6.00 Build 0)  -->
<svg version="1.1" id="animated" xmlns="http://www.w3.org/2000/svg" xmlns:xlink="http://www.w3.org/1999/xlink" x="0px" y="0px"
	 viewBox="0 0 400 380" style="enable-background:new 0 0 400 380;" xml:space="preserve">
<style type="text/css">
	.st0{fill:#6CB8C7;}
</style>
<g id="_x31__2_">
	<path class="st0" d="M221.1,14.4h-0.8c-0.3,0-0.5-0.2-0.5-0.5v-0.8c0-0.3,0.2-0.5,0.5-0.5h0.8c0.3,0,0.5,0.2,0.5,0.5v0.8
		C221.6,14.2,221.4,14.4,221.1,14.4z M220.8,13.4h-0.2v0.2h0.2V13.4z"/>
	<path class="st0" d="M241.1,14.4h-0.8c-0.3,0-0.5-0.2-0.5-0.5v-0.8c0-0.3,0.2-0.5,0.5-0.5h0.8c0.3,0,0.5,0.2,0.5,0.5v0.8
		C241.6,14.2,241.4,14.4,241.1,14.4z M240.8,13.4h-0.2v0.2h0.2V13.4z"/>
	<path class="st0" d="M304.1,56.4h-0.8c-0.3,0-0.5-0.2-0.5-0.5v-0.8c0-0.3,0.2-0.5,0.5-0.5h0.8c0.3,0,0.5,0.2,0.5,0.5v0.8
		C304.6,56.2,304.4,56.4,304.1,56.4z M303.8,55.4h-0.2v0.2h0.2V55.4z"/>
	<path class="st0" d="M96.7,56.4h-0.8c-0.3,0-0.5-0.2-0.5-0.5v-0.8c0-0.3,0.2-0.5,0.5-0.5h0.8c0.3,0,0.5,0.2,0.5,0.5v0.8
		C97.2,56.2,97,56.4,96.7,56.4z M96.4,55.4h-0.2v0.2h0.2V55.4z"/>
	<path class="st0" d="M283.1,35.4h-0.8c-0.3,0-0.5-0.2-0.5-0.5v-0.8c0-0.3,0.2-0.5,0.5-0.5h0.8c0.3,0,0.5,0.2,0.5,0.5v0.8
		C283.6,35.2,283.4,35.4,283.1,35.4z M282.8,34.4h-0.2v0.2h0.2V34.4z"/>
	<path class="st0" d="M117.7,35.4h-0.8c-0.3,0-0.5-0.2-0.5-0.5v-0.8c0-0.3,0.2-0.5,0.5-0.5h0.8c0.3,0,0.5,0.2,0.5,0.5v0.8
		C118.2,35.2,118,35.4,117.7,35.4z M117.4,34.4h-0.2v0.2h0.2V34.4z"/>
	<path class="st0" d="M324.1,76.4h-0.8c-0.3,0-0.5-0.2-0.5-0.5v-0.8c0-0.3,0.2-0.5,0.5-0.5h0.8c0.3,0,0.5,0.2,0.5,0.5v0.8
		C324.6,76.2,324.4,76.4,324.1,76.4z M323.8,75.4h-0.2v0.2h0.2V75.4z"/>
	<path class="st0" d="M76.7,76.4h-0.8c-0.3,0-0.5-0.2-0.5-0.5v-0.8c0-0.3,0.2-0.5,0.5-0.5h0.8c0.3,0,0.5,0.2,0.5,0.5v0.8
		C77.2,76.2,77,76.4,76.7,76.4z M76.4,75.4h-0.2v0.2h0.2V75.4z"/>
	<path class="st0" d="M366.1,117.4h-0.8c-0.3,0-0.5-0.2-0.5-0.5v-0.8c0-0.3,0.2-0.5,0.5-0.5h0.8c0.3,0,0.5,0.2,0.5,0.5v0.8
		C366.6,117.2,366.4,117.4,366.1,117.4z M365.8,116.4h-0.2v0.2h0.2V116.4z"/>
	<path class="st0" d="M34.7,117.4h-0.8c-0.3,0-0.5-0.2-0.5-0.5v-0.8c0-0.3,0.2-0.5,0.5-0.5h0.8c0.3,0,0.5,0.2,0.5,0.5v0.8
		C35.2,117.2,35,117.4,34.7,117.4z M34.4,116.4h-0.2v0.2h0.2V116.4z"/>
	<path class="st0" d="M386.1,159.4h-0.8c-0.3,0-0.5-0.2-0.5-0.5v-0.8c0-0.3,0.2-0.5,0.5-0.5h0.8c0.3,0,0.5,0.2,0.5,0.5v0.8
		C386.6,159.2,386.4,159.4,386.1,159.4z M385.8,158.4h-0.2v0.2h0.2V158.4z"/>
	<path class="st0" d="M14.7,159.4h-0.8c-0.3,0-0.5-0.2-0.5-0.5v-0.8c0-0.3,0.2-0.5,0.5-0.5h0.8c0.3,0,0.5,0.2,0.5,0.5v0.8
		C15.2,159.2,15,159.4,14.7,159.4z M14.4,158.4h-0.2v0.2h0.2V158.4z"/>
	<path class="st0" d="M386.1,138.4h-0.8c-0.3,0-0.5-0.2-0.5-0.5v-0.8c0-0.3,0.2-0.5,0.5-0.5h0.8c0.3,0,0.5,0.2,0.5,0.5v0.8
		C386.6,138.2,386.4,138.4,386.1,138.4z M385.8,137.4h-0.2v0.2h0.2V137.4z"/>
	<path class="st0" d="M14.7,138.4h-0.8c-0.3,0-0.5-0.2-0.5-0.5v-0.8c0-0.3,0.2-0.5,0.5-0.5h0.8c0.3,0,0.5,0.2,0.5,0.5v0.8
		C15.2,138.2,15,138.4,14.7,138.4z M14.4,137.4h-0.2v0.2h0.2V137.4z"/>
	<path class="st0" d="M386.1,179.4h-0.8c-0.3,0-0.5-0.2-0.5-0.5v-0.8c0-0.3,0.2-0.5,0.5-0.5h0.8c0.3,0,0.5,0.2,0.5,0.5v0.8
		C386.6,179.2,386.4,179.4,386.1,179.4z M385.8,178.4h-0.2v0.2h0.2V178.4z"/>
	<path class="st0" d="M14.7,179.4h-0.8c-0.3,0-0.5-0.2-0.5-0.5v-0.8c0-0.3,0.2-0.5,0.5-0.5h0.8c0.3,0,0.5,0.2,0.5,0.5v0.8
		C15.2,179.2,15,179.4,14.7,179.4z M14.4,178.4h-0.2v0.2h0.2V178.4z"/>
	<path class="st0" d="M386.1,202.4h-0.8c-0.3,0-0.5-0.2-0.5-0.5v-0.8c0-0.3,0.2-0.5,0.5-0.5h0.8c0.3,0,0.5,0.2,0.5,0.5v0.8
		C386.6,202.2,386.4,202.4,386.1,202.4z M385.8,201.4h-0.2v0.2h0.2V201.4z"/>
	<path class="st0" d="M14.7,202.4h-0.8c-0.3,0-0.5-0.2-0.5-0.5v-0.8c0-0.3,0.2-0.5,0.5-0.5h0.8c0.3,0,0.5,0.2,0.5,0.5v0.8
		C15.2,202.2,15,202.4,14.7,202.4z M14.4,201.4h-0.2v0.2h0.2V201.4z"/>
	<path class="st0" d="M386.1,222.4h-0.8c-0.3,0-0.5-0.2-0.5-0.5v-0.8c0-0.3,0.2-0.5,0.5-0.5h0.8c0.3,0,0.5,0.2,0.5,0.5v0.8
		C386.6,222.2,386.4,222.4,386.1,222.4z M385.8,221.4h-0.2v0.2h0.2V221.4z"/>
	<path class="st0" d="M14.7,222.4h-0.8c-0.3,0-0.5-0.2-0.5-0.5v-0.8c0-0.3,0.2-0.5,0.5-0.5h0.8c0.3,0,0.5,0.2,0.5,0.5v0.8
		C15.2,222.2,15,222.4,14.7,222.4z M14.4,221.4h-0.2v0.2h0.2V221.4z"/>
	<path class="st0" d="M386.1,243.4h-0.8c-0.3,0-0.5-0.2-0.5-0.5v-0.8c0-0.3,0.2-0.5,0.5-0.5h0.8c0.3,0,0.5,0.2,0.5,0.5v0.8
		C386.6,243.2,386.4,243.4,386.1,243.4z M385.8,242.4h-0.2v0.2h0.2V242.4z"/>
	<path class="st0" d="M14.7,243.4h-0.8c-0.3,0-0.5-0.2-0.5-0.5v-0.8c0-0.3,0.2-0.5,0.5-0.5h0.8c0.3,0,0.5,0.2,0.5,0.5v0.8
		C15.2,243.2,15,243.4,14.7,243.4z M14.4,242.4h-0.2v0.2h0.2V242.4z"/>
	<path class="st0" d="M159.7,14.4h-0.8c-0.3,0-0.5-0.2-0.5-0.5v-0.8c0-0.3,0.2-0.5,0.5-0.5h0.8c0.3,0,0.5,0.2,0.5,0.5v0.8
		C160.2,14.2,160,14.4,159.7,14.4z M159.4,13.4h-0.2v0.2h0.2V13.4z"/>
	<path class="st0" d="M179.7,14.4h-0.8c-0.3,0-0.5-0.2-0.5-0.5v-0.8c0-0.3,0.2-0.5,0.5-0.5h0.8c0.3,0,0.5,0.2,0.5,0.5v0.8
		C180.2,14.2,180,14.4,179.7,14.4z M179.4,13.4h-0.2v0.2h0.2V13.4z"/>
	<path class="st0" d="M221.6,366.1v0.8c0,0.3-0.2,0.5-0.5,0.5h-0.8c-0.3,0-0.5-0.2-0.5-0.5v-0.8c0-0.3,0.2-0.5,0.5-0.5h0.8
		C221.4,365.6,221.6,365.8,221.6,366.1z M220.8,366.4h-0.2v0.2h0.2V366.4z"/>
	<path class="st0" d="M200.4,14.4h-0.8c-0.3,0-0.5-0.2-0.5-0.5v-0.8c0-0.3,0.2-0.5,0.5-0.5h0.8c0.3,0,0.5,0.2,0.5,0.5v0.8
		C200.9,14.2,200.7,14.4,200.4,14.4z M200.1,13.4h-0.2v0.2h0.2V13.4z"/>
	<path class="st0" d="M200.9,366.1v0.8c0,0.3-0.2,0.5-0.5,0.5h-0.8c-0.3,0-0.5-0.2-0.5-0.5v-0.8c0-0.3,0.2-0.5,0.5-0.5h0.8
		C200.7,365.6,200.9,365.8,200.9,366.1z M200.1,366.4h-0.2v0.2h0.2V366.4z"/>
	<path class="st0" d="M241.6,366.1v0.8c0,0.3-0.2,0.5-0.5,0.5h-0.8c-0.3,0-0.5-0.2-0.5-0.5v-0.8c0-0.3,0.2-0.5,0.5-0.5h0.8
		C241.4,365.6,241.6,365.8,241.6,366.1z M240.8,366.4h-0.2v0.2h0.2V366.4z"/>
	<path class="st0" d="M262.1,14.4h-0.8c-0.3,0-0.5-0.2-0.5-0.5v-0.8c0-0.3,0.2-0.5,0.5-0.5h0.8c0.3,0,0.5,0.2,0.5,0.5v0.8
		C262.6,14.2,262.4,14.4,262.1,14.4z M261.8,13.4h-0.2v0.2h0.2V13.4z"/>
	<path class="st0" d="M262.6,366.1v0.8c0,0.3-0.2,0.5-0.5,0.5h-0.8c-0.3,0-0.5-0.2-0.5-0.5v-0.8c0-0.3,0.2-0.5,0.5-0.5h0.8
		C262.4,365.6,262.6,365.8,262.6,366.1z M261.8,366.4h-0.2v0.2h0.2V366.4z"/>
	<path class="st0" d="M304.6,324v0.8c0,0.3-0.2,0.5-0.5,0.5h-0.8c-0.3,0-0.5-0.2-0.5-0.5V324c0-0.3,0.2-0.5,0.5-0.5h0.8
		C304.4,323.5,304.6,323.7,304.6,324z M303.8,324.3h-0.2v0.2h0.2V324.3z"/>
	<path class="st0" d="M97.2,324v0.8c0,0.3-0.2,0.5-0.5,0.5h-0.8c-0.3,0-0.5-0.2-0.5-0.5V324c0-0.3,0.2-0.5,0.5-0.5h0.8
		C97,323.5,97.2,323.7,97.2,324z M96.4,324.3h-0.2v0.2h0.2V324.3z"/>
	<path class="st0" d="M283.6,345v0.8c0,0.3-0.2,0.5-0.5,0.5h-0.8c-0.3,0-0.5-0.2-0.5-0.5V345c0-0.3,0.2-0.5,0.5-0.5h0.8
		C283.4,344.5,283.6,344.7,283.6,345z M282.8,345.3h-0.2v0.2h0.2V345.3z"/>
	<path class="st0" d="M118.2,345v0.8c0,0.3-0.2,0.5-0.5,0.5h-0.8c-0.3,0-0.5-0.2-0.5-0.5V345c0-0.3,0.2-0.5,0.5-0.5h0.8
		C118,344.5,118.2,344.7,118.2,345z M117.4,345.3h-0.2v0.2h0.2V345.3z"/>
	<path class="st0" d="M324.6,304v0.8c0,0.3-0.2,0.5-0.5,0.5h-0.8c-0.3,0-0.5-0.2-0.5-0.5V304c0-0.3,0.2-0.5,0.5-0.5h0.8
		C324.4,303.5,324.6,303.7,324.6,304z M323.8,304.3h-0.2v0.2h0.2V304.3z"/>
	<path class="st0" d="M345.1,97.4h-0.8c-0.3,0-0.5-0.2-0.5-0.5v-0.8c0-0.3,0.2-0.5,0.5-0.5h0.8c0.3,0,0.5,0.2,0.5,0.5v0.8
		C345.6,97.2,345.4,97.4,345.1,97.4z M344.8,96.4h-0.2v0.2h0.2V96.4z"/>
	<path class="st0" d="M345.6,283v0.8c0,0.3-0.2,0.5-0.5,0.5h-0.8c-0.3,0-0.5-0.2-0.5-0.5V283c0-0.3,0.2-0.5,0.5-0.5h0.8
		C345.4,282.5,345.6,282.7,345.6,283z M344.8,283.3h-0.2v0.2h0.2V283.3z"/>
	<path class="st0" d="M77.2,304v0.8c0,0.3-0.2,0.5-0.5,0.5h-0.8c-0.3,0-0.5-0.2-0.5-0.5V304c0-0.3,0.2-0.5,0.5-0.5h0.8
		C77,303.5,77.2,303.7,77.2,304z M76.4,304.3h-0.2v0.2h0.2V304.3z"/>
	<path class="st0" d="M55.7,97.4h-0.8c-0.3,0-0.5-0.2-0.5-0.5v-0.8c0-0.3,0.2-0.5,0.5-0.5h0.8c0.3,0,0.5,0.2,0.5,0.5v0.8
		C56.2,97.2,56,97.4,55.7,97.4z M55.4,96.4h-0.2v0.2h0.2V96.4z"/>
	<path class="st0" d="M56.2,283v0.8c0,0.3-0.2,0.5-0.5,0.5h-0.8c-0.3,0-0.5-0.2-0.5-0.5V283c0-0.3,0.2-0.5,0.5-0.5h0.8
		C56,282.5,56.2,282.7,56.2,283z M55.4,283.3h-0.2v0.2h0.2V283.3z"/>
	<path class="st0" d="M366.6,263v0.8c0,0.3-0.2,0.5-0.5,0.5h-0.8c-0.3,0-0.5-0.2-0.5-0.5V263c0-0.3,0.2-0.5,0.5-0.5h0.8
		C366.4,262.5,366.6,262.7,366.6,263z M365.8,263.3h-0.2v0.2h0.2V263.3z"/>
	<path class="st0" d="M35.2,263v0.8c0,0.3-0.2,0.5-0.5,0.5h-0.8c-0.3,0-0.5-0.2-0.5-0.5V263c0-0.3,0.2-0.5,0.5-0.5h0.8
		C35,262.5,35.2,262.7,35.2,263z M34.4,263.3h-0.2v0.2h0.2V263.3z"/>
	<path class="st0" d="M160.2,366.1v0.8c0,0.3-0.2,0.5-0.5,0.5h-0.8c-0.3,0-0.5-0.2-0.5-0.5v-0.8c0-0.3,0.2-0.5,0.5-0.5h0.8
		C160,365.6,160.2,365.8,160.2,366.1z M159.4,366.4h-0.2v0.2h0.2V366.4z"/>
	<path class="st0" d="M138.7,14.4h-0.8c-0.3,0-0.5-0.2-0.5-0.5v-0.8c0-0.3,0.2-0.5,0.5-0.5h0.8c0.3,0,0.5,0.2,0.5,0.5v0.8
		C139.2,14.2,139,14.4,138.7,14.4z M138.4,13.4h-0.2v0.2h0.2V13.4z"/>
	<path class="st0" d="M139.2,366.1v0.8c0,0.3-0.2,0.5-0.5,0.5h-0.8c-0.3,0-0.5-0.2-0.5-0.5v-0.8c0-0.3,0.2-0.5,0.5-0.5h0.8
		C139,365.6,139.2,365.8,139.2,366.1z M138.4,366.4h-0.2v0.2h0.2V366.4z"/>
	<path class="st0" d="M180.2,366.1v0.8c0,0.3-0.2,0.5-0.5,0.5h-0.8c-0.3,0-0.5-0.2-0.5-0.5v-0.8c0-0.3,0.2-0.5,0.5-0.5h0.8
		C180,365.6,180.2,365.8,180.2,366.1z M179.4,366.4h-0.2v0.2h0.2V366.4z"/>
</g>
<g id="_x32_">
	<path class="st0" d="M222.1,15.4h-2.8c-0.3,0-0.5-0.2-0.5-0.5v-2.8c0-0.3,0.2-0.5,0.5-0.5h2.8c0.3,0,0.5,0.2,0.5,0.5v2.8
		C222.6,15.2,222.4,15.4,222.1,15.4z M219.8,14.4h1.8v-1.8h-1.8V14.4z"/>
	<path class="st0" d="M242.1,15.4h-2.8c-0.3,0-0.5-0.2-0.5-0.5v-2.8c0-0.3,0.2-0.5,0.5-0.5h2.8c0.3,0,0.5,0.2,0.5,0.5v2.8
		C242.6,15.2,242.4,15.4,242.1,15.4z M239.8,14.4h1.8v-1.8h-1.8V14.4z"/>
	<path class="st0" d="M305.1,57.4h-2.8c-0.3,0-0.5-0.2-0.5-0.5v-2.8c0-0.3,0.2-0.5,0.5-0.5h2.8c0.3,0,0.5,0.2,0.5,0.5v2.8
		C305.6,57.2,305.4,57.4,305.1,57.4z M302.8,56.4h1.8v-1.8h-1.8V56.4z"/>
	<path class="st0" d="M97.7,57.4h-2.8c-0.3,0-0.5-0.2-0.5-0.5v-2.8c0-0.3,0.2-0.5,0.5-0.5h2.8c0.3,0,0.5,0.2,0.5,0.5v2.8
		C98.2,57.2,98,57.4,97.7,57.4z M95.4,56.4h1.8v-1.8h-1.8V56.4z"/>
	<path class="st0" d="M284.1,36.4h-2.8c-0.3,0-0.5-0.2-0.5-0.5v-2.8c0-0.3,0.2-0.5,0.5-0.5h2.8c0.3,0,0.5,0.2,0.5,0.5v2.8
		C284.6,36.2,284.4,36.4,284.1,36.4z M281.8,35.4h1.8v-1.8h-1.8V35.4z"/>
	<path class="st0" d="M118.7,36.4h-2.8c-0.3,0-0.5-0.2-0.5-0.5v-2.8c0-0.3,0.2-0.5,0.5-0.5h2.8c0.3,0,0.5,0.2,0.5,0.5v2.8
		C119.2,36.2,119,36.4,118.7,36.4z M116.4,35.4h1.8v-1.8h-1.8V35.4z"/>
	<path class="st0" d="M325.1,77.4h-2.8c-0.3,0-0.5-0.2-0.5-0.5v-2.8c0-0.3,0.2-0.5,0.5-0.5h2.8c0.3,0,0.5,0.2,0.5,0.5v2.8
		C325.6,77.2,325.4,77.4,325.1,77.4z M322.8,76.4h1.8v-1.8h-1.8V76.4z"/>
	<path class="st0" d="M77.7,77.4h-2.8c-0.3,0-0.5-0.2-0.5-0.5v-2.8c0-0.3,0.2-0.5,0.5-0.5h2.8c0.3,0,0.5,0.2,0.5,0.5v2.8
		C78.2,77.2,78,77.4,77.7,77.4z M75.4,76.4h1.8v-1.8h-1.8V76.4z"/>
	<path class="st0" d="M346.1,98.4h-2.8c-0.3,0-0.5-0.2-0.5-0.5v-2.8c0-0.3,0.2-0.5,0.5-0.5h2.8c0.3,0,0.5,0.2,0.5,0.5v2.8
		C346.6,98.2,346.4,98.4,346.1,98.4z M343.8,97.4h1.8v-1.8h-1.8V97.4z"/>
	<path class="st0" d="M56.7,98.4h-2.8c-0.3,0-0.5-0.2-0.5-0.5v-2.8c0-0.3,0.2-0.5,0.5-0.5h2.8c0.3,0,0.5,0.2,0.5,0.5v2.8
		C57.2,98.2,57,98.4,56.7,98.4z M54.4,97.4h1.8v-1.8h-1.8V97.4z"/>
	<path class="st0" d="M367.1,118.4h-2.8c-0.3,0-0.5-0.2-0.5-0.5v-2.8c0-0.3,0.2-0.5,0.5-0.5h2.8c0.3,0,0.5,0.2,0.5,0.5v2.8
		C367.6,118.2,367.4,118.4,367.1,118.4z M364.8,117.4h1.8v-1.8h-1.8V117.4z"/>
	<path class="st0" d="M35.7,118.4h-2.8c-0.3,0-0.5-0.2-0.5-0.5v-2.8c0-0.3,0.2-0.5,0.5-0.5h2.8c0.3,0,0.5,0.2,0.5,0.5v2.8
		C36.2,118.2,36,118.4,35.7,118.4z M33.4,117.4h1.8v-1.8h-1.8V117.4z"/>
	<path class="st0" d="M387.1,160.4h-2.8c-0.3,0-0.5-0.2-0.5-0.5v-2.8c0-0.3,0.2-0.5,0.5-0.5h2.8c0.3,0,0.5,0.2,0.5,0.5v2.8
		C387.6,160.2,387.4,160.4,387.1,160.4z M384.8,159.4h1.8v-1.8h-1.8V159.4z"/>
	<path class="st0" d="M15.7,160.4h-2.8c-0.3,0-0.5-0.2-0.5-0.5v-2.8c0-0.3,0.2-0.5,0.5-0.5h2.8c0.3,0,0.5,0.2,0.5,0.5v2.8
		C16.2,160.2,16,160.4,15.7,160.4z M13.4,159.4h1.8v-1.8h-1.8V159.4z"/>
	<path class="st0" d="M387.1,139.4h-2.8c-0.3,0-0.5-0.2-0.5-0.5v-2.8c0-0.3,0.2-0.5,0.5-0.5h2.8c0.3,0,0.5,0.2,0.5,0.5v2.8
		C387.6,139.2,387.4,139.4,387.1,139.4z M384.8,138.4h1.8v-1.8h-1.8V138.4z"/>
	<path class="st0" d="M15.7,139.4h-2.8c-0.3,0-0.5-0.2-0.5-0.5v-2.8c0-0.3,0.2-0.5,0.5-0.5h2.8c0.3,0,0.5,0.2,0.5,0.5v2.8
		C16.2,139.2,16,139.4,15.7,139.4z M13.4,138.4h1.8v-1.8h-1.8V138.4z"/>
	<path class="st0" d="M387.1,180.4h-2.8c-0.3,0-0.5-0.2-0.5-0.5v-2.8c0-0.3,0.2-0.5,0.5-0.5h2.8c0.3,0,0.5,0.2,0.5,0.5v2.8
		C387.6,180.2,387.4,180.4,387.1,180.4z M384.8,179.4h1.8v-1.8h-1.8V179.4z"/>
	<path class="st0" d="M15.7,180.4h-2.8c-0.3,0-0.5-0.2-0.5-0.5v-2.8c0-0.3,0.2-0.5,0.5-0.5h2.8c0.3,0,0.5,0.2,0.5,0.5v2.8
		C16.2,180.2,16,180.4,15.7,180.4z M13.4,179.4h1.8v-1.8h-1.8V179.4z"/>
	<path class="st0" d="M387.1,203.4h-2.8c-0.3,0-0.5-0.2-0.5-0.5v-2.8c0-0.3,0.2-0.5,0.5-0.5h2.8c0.3,0,0.5,0.2,0.5,0.5v2.8
		C387.6,203.2,387.4,203.4,387.1,203.4z M384.8,202.4h1.8v-1.8h-1.8V202.4z"/>
	<path class="st0" d="M15.7,203.4h-2.8c-0.3,0-0.5-0.2-0.5-0.5v-2.8c0-0.3,0.2-0.5,0.5-0.5h2.8c0.3,0,0.5,0.2,0.5,0.5v2.8
		C16.2,203.2,16,203.4,15.7,203.4z M13.4,202.4h1.8v-1.8h-1.8V202.4z"/>
	<path class="st0" d="M387.1,223.4h-2.8c-0.3,0-0.5-0.2-0.5-0.5v-2.8c0-0.3,0.2-0.5,0.5-0.5h2.8c0.3,0,0.5,0.2,0.5,0.5v2.8
		C387.6,223.2,387.4,223.4,387.1,223.4z M384.8,222.4h1.8v-1.8h-1.8V222.4z"/>
	<path class="st0" d="M15.7,223.4h-2.8c-0.3,0-0.5-0.2-0.5-0.5v-2.8c0-0.3,0.2-0.5,0.5-0.5h2.8c0.3,0,0.5,0.2,0.5,0.5v2.8
		C16.2,223.2,16,223.4,15.7,223.4z M13.4,222.4h1.8v-1.8h-1.8V222.4z"/>
	<path class="st0" d="M387.1,244.4h-2.8c-0.3,0-0.5-0.2-0.5-0.5v-2.8c0-0.3,0.2-0.5,0.5-0.5h2.8c0.3,0,0.5,0.2,0.5,0.5v2.8
		C387.6,244.2,387.4,244.4,387.1,244.4z M384.8,243.4h1.8v-1.8h-1.8V243.4z"/>
	<path class="st0" d="M15.7,244.4h-2.8c-0.3,0-0.5-0.2-0.5-0.5v-2.8c0-0.3,0.2-0.5,0.5-0.5h2.8c0.3,0,0.5,0.2,0.5,0.5v2.8
		C16.2,244.2,16,244.4,15.7,244.4z M13.4,243.4h1.8v-1.8h-1.8V243.4z"/>
	<path class="st0" d="M160.7,15.4h-2.8c-0.3,0-0.5-0.2-0.5-0.5v-2.8c0-0.3,0.2-0.5,0.5-0.5h2.8c0.3,0,0.5,0.2,0.5,0.5v2.8
		C161.2,15.2,161,15.4,160.7,15.4z M158.4,14.4h1.8v-1.8h-1.8V14.4z"/>
	<path class="st0" d="M180.7,15.4h-2.8c-0.3,0-0.5-0.2-0.5-0.5v-2.8c0-0.3,0.2-0.5,0.5-0.5h2.8c0.3,0,0.5,0.2,0.5,0.5v2.8
		C181.2,15.2,181,15.4,180.7,15.4z M178.4,14.4h1.8v-1.8h-1.8V14.4z"/>
	<path class="st0" d="M222.6,365.1v2.8c0,0.3-0.2,0.5-0.5,0.5h-2.8c-0.3,0-0.5-0.2-0.5-0.5v-2.8c0-0.3,0.2-0.5,0.5-0.5h2.8
		C222.4,364.6,222.6,364.8,222.6,365.1z M219.8,367.4h1.8v-1.8h-1.8V367.4z"/>
	<path class="st0" d="M201.4,15.4h-2.8c-0.3,0-0.5-0.2-0.5-0.5v-2.8c0-0.3,0.2-0.5,0.5-0.5h2.8c0.3,0,0.5,0.2,0.5,0.5v2.8
		C201.9,15.2,201.7,15.4,201.4,15.4z M199.1,14.4h1.8v-1.8h-1.8V14.4z"/>
	<path class="st0" d="M201.9,365.1v2.8c0,0.3-0.2,0.5-0.5,0.5h-2.8c-0.3,0-0.5-0.2-0.5-0.5v-2.8c0-0.3,0.2-0.5,0.5-0.5h2.8
		C201.7,364.6,201.9,364.8,201.9,365.1z M199.1,367.4h1.8v-1.8h-1.8V367.4z"/>
	<path class="st0" d="M242.6,365.1v2.8c0,0.3-0.2,0.5-0.5,0.5h-2.8c-0.3,0-0.5-0.2-0.5-0.5v-2.8c0-0.3,0.2-0.5,0.5-0.5h2.8
		C242.4,364.6,242.6,364.8,242.6,365.1z M239.8,367.4h1.8v-1.8h-1.8V367.4z"/>
	<path class="st0" d="M263.1,15.4h-2.8c-0.3,0-0.5-0.2-0.5-0.5v-2.8c0-0.3,0.2-0.5,0.5-0.5h2.8c0.3,0,0.5,0.2,0.5,0.5v2.8
		C263.6,15.2,263.4,15.4,263.1,15.4z M260.8,14.4h1.8v-1.8h-1.8V14.4z"/>
	<path class="st0" d="M263.6,365.1v2.8c0,0.3-0.2,0.5-0.5,0.5h-2.8c-0.3,0-0.5-0.2-0.5-0.5v-2.8c0-0.3,0.2-0.5,0.5-0.5h2.8
		C263.4,364.6,263.6,364.8,263.6,365.1z M260.8,367.4h1.8v-1.8h-1.8V367.4z"/>
	<path class="st0" d="M305.6,323v2.8c0,0.3-0.2,0.5-0.5,0.5h-2.8c-0.3,0-0.5-0.2-0.5-0.5V323c0-0.3,0.2-0.5,0.5-0.5h2.8
		C305.4,322.5,305.6,322.7,305.6,323z M302.8,325.3h1.8v-1.8h-1.8V325.3z"/>
	<path class="st0" d="M98.2,323v2.8c0,0.3-0.2,0.5-0.5,0.5h-2.8c-0.3,0-0.5-0.2-0.5-0.5V323c0-0.3,0.2-0.5,0.5-0.5h2.8
		C98,322.5,98.2,322.7,98.2,323z M95.4,325.3h1.8v-1.8h-1.8V325.3z"/>
	<path class="st0" d="M284.6,344v2.8c0,0.3-0.2,0.5-0.5,0.5h-2.8c-0.3,0-0.5-0.2-0.5-0.5V344c0-0.3,0.2-0.5,0.5-0.5h2.8
		C284.4,343.5,284.6,343.7,284.6,344z M281.8,346.3h1.8v-1.8h-1.8V346.3z"/>
	<path class="st0" d="M119.2,344v2.8c0,0.3-0.2,0.5-0.5,0.5h-2.8c-0.3,0-0.5-0.2-0.5-0.5V344c0-0.3,0.2-0.5,0.5-0.5h2.8
		C119,343.5,119.2,343.7,119.2,344z M116.4,346.3h1.8v-1.8h-1.8V346.3z"/>
	<path class="st0" d="M325.6,303v2.8c0,0.3-0.2,0.5-0.5,0.5h-2.8c-0.3,0-0.5-0.2-0.5-0.5V303c0-0.3,0.2-0.5,0.5-0.5h2.8
		C325.4,302.5,325.6,302.7,325.6,303z M322.8,305.3h1.8v-1.8h-1.8V305.3z"/>
	<path class="st0" d="M78.2,303v2.8c0,0.3-0.2,0.5-0.5,0.5h-2.8c-0.3,0-0.5-0.2-0.5-0.5V303c0-0.3,0.2-0.5,0.5-0.5h2.8
		C78,302.5,78.2,302.7,78.2,303z M75.4,305.3h1.8v-1.8h-1.8V305.3z"/>
	<path class="st0" d="M346.6,282v2.8c0,0.3-0.2,0.5-0.5,0.5h-2.8c-0.3,0-0.5-0.2-0.5-0.5V282c0-0.3,0.2-0.5,0.5-0.5h2.8
		C346.4,281.5,346.6,281.7,346.6,282z M343.8,284.3h1.8v-1.8h-1.8V284.3z"/>
	<path class="st0" d="M57.2,282v2.8c0,0.3-0.2,0.5-0.5,0.5h-2.8c-0.3,0-0.5-0.2-0.5-0.5V282c0-0.3,0.2-0.5,0.5-0.5h2.8
		C57,281.5,57.2,281.7,57.2,282z M54.4,284.3h1.8v-1.8h-1.8V284.3z"/>
	<path class="st0" d="M367.6,262v2.8c0,0.3-0.2,0.5-0.5,0.5h-2.8c-0.3,0-0.5-0.2-0.5-0.5V262c0-0.3,0.2-0.5,0.5-0.5h2.8
		C367.4,261.5,367.6,261.7,367.6,262z M364.8,264.3h1.8v-1.8h-1.8V264.3z"/>
	<path class="st0" d="M36.2,262v2.8c0,0.3-0.2,0.5-0.5,0.5h-2.8c-0.3,0-0.5-0.2-0.5-0.5V262c0-0.3,0.2-0.5,0.5-0.5h2.8
		C36,261.5,36.2,261.7,36.2,262z M33.4,264.3h1.8v-1.8h-1.8V264.3z"/>
	<path class="st0" d="M161.2,365.1v2.8c0,0.3-0.2,0.5-0.5,0.5h-2.8c-0.3,0-0.5-0.2-0.5-0.5v-2.8c0-0.3,0.2-0.5,0.5-0.5h2.8
		C161,364.6,161.2,364.8,161.2,365.1z M158.4,367.4h1.8v-1.8h-1.8V367.4z"/>
	<path class="st0" d="M139.7,15.4h-2.8c-0.3,0-0.5-0.2-0.5-0.5v-2.8c0-0.3,0.2-0.5,0.5-0.5h2.8c0.3,0,0.5,0.2,0.5,0.5v2.8
		C140.2,15.2,140,15.4,139.7,15.4z M137.4,14.4h1.8v-1.8h-1.8V14.4z"/>
	<path class="st0" d="M140.2,365.1v2.8c0,0.3-0.2,0.5-0.5,0.5h-2.8c-0.3,0-0.5-0.2-0.5-0.5v-2.8c0-0.3,0.2-0.5,0.5-0.5h2.8
		C140,364.6,140.2,364.8,140.2,365.1z M137.4,367.4h1.8v-1.8h-1.8V367.4z"/>
	<path class="st0" d="M181.2,365.1v2.8c0,0.3-0.2,0.5-0.5,0.5h-2.8c-0.3,0-0.5-0.2-0.5-0.5v-2.8c0-0.3,0.2-0.5,0.5-0.5h2.8
		C181,364.6,181.2,364.8,181.2,365.1z M178.4,367.4h1.8v-1.8h-1.8V367.4z"/>
</g>
<g id="_x33_">
	<path class="st0" d="M223.1,16.4h-4.8c-0.3,0-0.5-0.2-0.5-0.5v-4.8c0-0.3,0.2-0.5,0.5-0.5h4.8c0.3,0,0.5,0.2,0.5,0.5v4.8
		C223.6,16.2,223.4,16.4,223.1,16.4z M218.8,15.4h3.8v-3.8h-3.8V15.4z"/>
	<path class="st0" d="M243.1,16.4h-4.8c-0.3,0-0.5-0.2-0.5-0.5v-4.8c0-0.3,0.2-0.5,0.5-0.5h4.8c0.3,0,0.5,0.2,0.5,0.5v4.8
		C243.6,16.2,243.4,16.4,243.1,16.4z M238.8,15.4h3.8v-3.8h-3.8V15.4z"/>
	<path class="st0" d="M306.1,58.4h-4.8c-0.3,0-0.5-0.2-0.5-0.5v-4.8c0-0.3,0.2-0.5,0.5-0.5h4.8c0.3,0,0.5,0.2,0.5,0.5v4.8
		C306.6,58.2,306.4,58.4,306.1,58.4z M301.8,57.4h3.8v-3.8h-3.8V57.4z"/>
	<path class="st0" d="M98.7,58.4h-4.8c-0.3,0-0.5-0.2-0.5-0.5v-4.8c0-0.3,0.2-0.5,0.5-0.5h4.8c0.3,0,0.5,0.2,0.5,0.5v4.8
		C99.2,58.2,99,58.4,98.7,58.4z M94.4,57.4h3.8v-3.8h-3.8V57.4z"/>
	<path class="st0" d="M285.1,37.4h-4.8c-0.3,0-0.5-0.2-0.5-0.5v-4.8c0-0.3,0.2-0.5,0.5-0.5h4.8c0.3,0,0.5,0.2,0.5,0.5v4.8
		C285.6,37.2,285.4,37.4,285.1,37.4z M280.8,36.4h3.8v-3.8h-3.8V36.4z"/>
	<path class="st0" d="M119.7,37.4h-4.8c-0.3,0-0.5-0.2-0.5-0.5v-4.8c0-0.3,0.2-0.5,0.5-0.5h4.8c0.3,0,0.5,0.2,0.5,0.5v4.8
		C120.2,37.2,120,37.4,119.7,37.4z M115.4,36.4h3.8v-3.8h-3.8V36.4z"/>
	<path class="st0" d="M326.1,78.4h-4.8c-0.3,0-0.5-0.2-0.5-0.5v-4.8c0-0.3,0.2-0.5,0.5-0.5h4.8c0.3,0,0.5,0.2,0.5,0.5v4.8
		C326.6,78.2,326.4,78.4,326.1,78.4z M321.8,77.4h3.8v-3.8h-3.8V77.4z"/>
	<path class="st0" d="M78.7,78.4h-4.8c-0.3,0-0.5-0.2-0.5-0.5v-4.8c0-0.3,0.2-0.5,0.5-0.5h4.8c0.3,0,0.5,0.2,0.5,0.5v4.8
		C79.2,78.2,79,78.4,78.7,78.4z M74.4,77.4h3.8v-3.8h-3.8V77.4z"/>
	<path class="st0" d="M368.1,119.4h-4.8c-0.3,0-0.5-0.2-0.5-0.5v-4.8c0-0.3,0.2-0.5,0.5-0.5h4.8c0.3,0,0.5,0.2,0.5,0.5v4.8
		C368.6,119.2,368.4,119.4,368.1,119.4z M363.8,118.4h3.8v-3.8h-3.8V118.4z"/>
	<path class="st0" d="M36.7,119.4h-4.8c-0.3,0-0.5-0.2-0.5-0.5v-4.8c0-0.3,0.2-0.5,0.5-0.5h4.8c0.3,0,0.5,0.2,0.5,0.5v4.8
		C37.2,119.2,37,119.4,36.7,119.4z M32.4,118.4h3.8v-3.8h-3.8V118.4z"/>
	<path class="st0" d="M388.1,161.4h-4.8c-0.3,0-0.5-0.2-0.5-0.5v-4.8c0-0.3,0.2-0.5,0.5-0.5h4.8c0.3,0,0.5,0.2,0.5,0.5v4.8
		C388.6,161.2,388.4,161.4,388.1,161.4z M383.8,160.4h3.8v-3.8h-3.8V160.4z"/>
	<path class="st0" d="M16.7,161.4h-4.8c-0.3,0-0.5-0.2-0.5-0.5v-4.8c0-0.3,0.2-0.5,0.5-0.5h4.8c0.3,0,0.5,0.2,0.5,0.5v4.8
		C17.2,161.2,17,161.4,16.7,161.4z M12.4,160.4h3.8v-3.8h-3.8V160.4z"/>
	<path class="st0" d="M388.1,140.4h-4.8c-0.3,0-0.5-0.2-0.5-0.5v-4.8c0-0.3,0.2-0.5,0.5-0.5h4.8c0.3,0,0.5,0.2,0.5,0.5v4.8
		C388.6,140.2,388.4,140.4,388.1,140.4z M383.8,139.4h3.8v-3.8h-3.8V139.4z"/>
	<path class="st0" d="M16.7,140.4h-4.8c-0.3,0-0.5-0.2-0.5-0.5v-4.8c0-0.3,0.2-0.5,0.5-0.5h4.8c0.3,0,0.5,0.2,0.5,0.5v4.8
		C17.2,140.2,17,140.4,16.7,140.4z M12.4,139.4h3.8v-3.8h-3.8V139.4z"/>
	<path class="st0" d="M388.1,181.4h-4.8c-0.3,0-0.5-0.2-0.5-0.5v-4.8c0-0.3,0.2-0.5,0.5-0.5h4.8c0.3,0,0.5,0.2,0.5,0.5v4.8
		C388.6,181.2,388.4,181.4,388.1,181.4z M383.8,180.4h3.8v-3.8h-3.8V180.4z"/>
	<path class="st0" d="M16.7,181.4h-4.8c-0.3,0-0.5-0.2-0.5-0.5v-4.8c0-0.3,0.2-0.5,0.5-0.5h4.8c0.3,0,0.5,0.2,0.5,0.5v4.8
		C17.2,181.2,17,181.4,16.7,181.4z M12.4,180.4h3.8v-3.8h-3.8V180.4z"/>
	<path class="st0" d="M388.1,204.4h-4.8c-0.3,0-0.5-0.2-0.5-0.5v-4.8c0-0.3,0.2-0.5,0.5-0.5h4.8c0.3,0,0.5,0.2,0.5,0.5v4.8
		C388.6,204.2,388.4,204.4,388.1,204.4z M383.8,203.4h3.8v-3.8h-3.8V203.4z"/>
	<path class="st0" d="M16.7,204.4h-4.8c-0.3,0-0.5-0.2-0.5-0.5v-4.8c0-0.3,0.2-0.5,0.5-0.5h4.8c0.3,0,0.5,0.2,0.5,0.5v4.8
		C17.2,204.2,17,204.4,16.7,204.4z M12.4,203.4h3.8v-3.8h-3.8V203.4z"/>
	<path class="st0" d="M388.1,224.4h-4.8c-0.3,0-0.5-0.2-0.5-0.5v-4.8c0-0.3,0.2-0.5,0.5-0.5h4.8c0.3,0,0.5,0.2,0.5,0.5v4.8
		C388.6,224.2,388.4,224.4,388.1,224.4z M383.8,223.4h3.8v-3.8h-3.8V223.4z"/>
	<path class="st0" d="M16.7,224.4h-4.8c-0.3,0-0.5-0.2-0.5-0.5v-4.8c0-0.3,0.2-0.5,0.5-0.5h4.8c0.3,0,0.5,0.2,0.5,0.5v4.8
		C17.2,224.2,17,224.4,16.7,224.4z M12.4,223.4h3.8v-3.8h-3.8V223.4z"/>
	<path class="st0" d="M388.1,245.4h-4.8c-0.3,0-0.5-0.2-0.5-0.5v-4.8c0-0.3,0.2-0.5,0.5-0.5h4.8c0.3,0,0.5,0.2,0.5,0.5v4.8
		C388.6,245.2,388.4,245.4,388.1,245.4z M383.8,244.4h3.8v-3.8h-3.8V244.4z"/>
	<path class="st0" d="M16.7,245.4h-4.8c-0.3,0-0.5-0.2-0.5-0.5v-4.8c0-0.3,0.2-0.5,0.5-0.5h4.8c0.3,0,0.5,0.2,0.5,0.5v4.8
		C17.2,245.2,17,245.4,16.7,245.4z M12.4,244.4h3.8v-3.8h-3.8V244.4z"/>
	<path class="st0" d="M161.7,16.4h-4.8c-0.3,0-0.5-0.2-0.5-0.5v-4.8c0-0.3,0.2-0.5,0.5-0.5h4.8c0.3,0,0.5,0.2,0.5,0.5v4.8
		C162.2,16.2,162,16.4,161.7,16.4z M157.4,15.4h3.8v-3.8h-3.8V15.4z"/>
	<path class="st0" d="M181.7,16.4h-4.8c-0.3,0-0.5-0.2-0.5-0.5v-4.8c0-0.3,0.2-0.5,0.5-0.5h4.8c0.3,0,0.5,0.2,0.5,0.5v4.8
		C182.2,16.2,182,16.4,181.7,16.4z M177.4,15.4h3.8v-3.8h-3.8V15.4z"/>
	<path class="st0" d="M223.6,364.1v4.8c0,0.3-0.2,0.5-0.5,0.5h-4.8c-0.3,0-0.5-0.2-0.5-0.5v-4.8c0-0.3,0.2-0.5,0.5-0.5h4.8
		C223.4,363.6,223.6,363.8,223.6,364.1z M218.8,368.4h3.8v-3.8h-3.8V368.4z"/>
	<path class="st0" d="M202.4,16.4h-4.8c-0.3,0-0.5-0.2-0.5-0.5v-4.8c0-0.3,0.2-0.5,0.5-0.5h4.8c0.3,0,0.5,0.2,0.5,0.5v4.8
		C202.9,16.2,202.7,16.4,202.4,16.4z M198.1,15.4h3.8v-3.8h-3.8V15.4z"/>
	<path class="st0" d="M202.9,364.1v4.8c0,0.3-0.2,0.5-0.5,0.5h-4.8c-0.3,0-0.5-0.2-0.5-0.5v-4.8c0-0.3,0.2-0.5,0.5-0.5h4.8
		C202.7,363.6,202.9,363.8,202.9,364.1z M198.1,368.4h3.8v-3.8h-3.8V368.4z"/>
	<path class="st0" d="M243.6,364.1v4.8c0,0.3-0.2,0.5-0.5,0.5h-4.8c-0.3,0-0.5-0.2-0.5-0.5v-4.8c0-0.3,0.2-0.5,0.5-0.5h4.8
		C243.4,363.6,243.6,363.8,243.6,364.1z M238.8,368.4h3.8v-3.8h-3.8V368.4z"/>
	<path class="st0" d="M264.2,16.4h-4.8c-0.3,0-0.5-0.2-0.5-0.5v-4.8c0-0.3,0.2-0.5,0.5-0.5h4.8c0.3,0,0.5,0.2,0.5,0.5v4.8
		C264.7,16.2,264.5,16.4,264.2,16.4z M259.9,15.4h3.8v-3.8h-3.8V15.4z"/>
	<path class="st0" d="M264.7,364.1v4.8c0,0.3-0.2,0.5-0.5,0.5h-4.8c-0.3,0-0.5-0.2-0.5-0.5v-4.8c0-0.3,0.2-0.5,0.5-0.5h4.8
		C264.5,363.6,264.7,363.8,264.7,364.1z M259.9,368.4h3.8v-3.8h-3.8V368.4z"/>
	<path class="st0" d="M306.6,322v4.8c0,0.3-0.2,0.5-0.5,0.5h-4.8c-0.3,0-0.5-0.2-0.5-0.5V322c0-0.3,0.2-0.5,0.5-0.5h4.8
		C306.4,321.5,306.6,321.7,306.6,322z M301.8,326.3h3.8v-3.8h-3.8V326.3z"/>
	<path class="st0" d="M99.2,322v4.8c0,0.3-0.2,0.5-0.5,0.5h-4.8c-0.3,0-0.5-0.2-0.5-0.5V322c0-0.3,0.2-0.5,0.5-0.5h4.8
		C99,321.5,99.2,321.7,99.2,322z M94.4,326.3h3.8v-3.8h-3.8V326.3z"/>
	<path class="st0" d="M285.6,343v4.8c0,0.3-0.2,0.5-0.5,0.5h-4.8c-0.3,0-0.5-0.2-0.5-0.5V343c0-0.3,0.2-0.5,0.5-0.5h4.8
		C285.4,342.5,285.6,342.7,285.6,343z M280.8,347.3h3.8v-3.8h-3.8V347.3z"/>
	<path class="st0" d="M120.2,343v4.8c0,0.3-0.2,0.5-0.5,0.5h-4.8c-0.3,0-0.5-0.2-0.5-0.5V343c0-0.3,0.2-0.5,0.5-0.5h4.8
		C120,342.5,120.2,342.7,120.2,343z M115.4,347.3h3.8v-3.8h-3.8V347.3z"/>
	<path class="st0" d="M326.6,302v4.8c0,0.3-0.2,0.5-0.5,0.5h-4.8c-0.3,0-0.5-0.2-0.5-0.5V302c0-0.3,0.2-0.5,0.5-0.5h4.8
		C326.4,301.5,326.6,301.7,326.6,302z M321.8,306.3h3.8v-3.8h-3.8V306.3z"/>
	<path class="st0" d="M347.1,99.4h-4.8c-0.3,0-0.5-0.2-0.5-0.5v-4.8c0-0.3,0.2-0.5,0.5-0.5h4.8c0.3,0,0.5,0.2,0.5,0.5v4.8
		C347.6,99.2,347.4,99.4,347.1,99.4z M342.8,98.4h3.8v-3.8h-3.8V98.4z"/>
	<path class="st0" d="M347.6,281v4.8c0,0.3-0.2,0.5-0.5,0.5h-4.8c-0.3,0-0.5-0.2-0.5-0.5V281c0-0.3,0.2-0.5,0.5-0.5h4.8
		C347.4,280.5,347.6,280.7,347.6,281z M342.8,285.3h3.8v-3.8h-3.8V285.3z"/>
	<path class="st0" d="M79.2,302v4.8c0,0.3-0.2,0.5-0.5,0.5h-4.8c-0.3,0-0.5-0.2-0.5-0.5V302c0-0.3,0.2-0.5,0.5-0.5h4.8
		C79,301.5,79.2,301.7,79.2,302z M74.4,306.3h3.8v-3.8h-3.8V306.3z"/>
	<path class="st0" d="M57.7,99.4h-4.8c-0.3,0-0.5-0.2-0.5-0.5v-4.8c0-0.3,0.2-0.5,0.5-0.5h4.8c0.3,0,0.5,0.2,0.5,0.5v4.8
		C58.2,99.2,58,99.4,57.7,99.4z M53.4,98.4h3.8v-3.8h-3.8V98.4z"/>
	<path class="st0" d="M58.2,281v4.8c0,0.3-0.2,0.5-0.5,0.5h-4.8c-0.3,0-0.5-0.2-0.5-0.5V281c0-0.3,0.2-0.5,0.5-0.5h4.8
		C58,280.5,58.2,280.7,58.2,281z M53.4,285.3h3.8v-3.8h-3.8V285.3z"/>
	<path class="st0" d="M368.6,261v4.8c0,0.3-0.2,0.5-0.5,0.5h-4.8c-0.3,0-0.5-0.2-0.5-0.5V261c0-0.3,0.2-0.5,0.5-0.5h4.8
		C368.4,260.5,368.6,260.7,368.6,261z M363.8,265.3h3.8v-3.8h-3.8V265.3z"/>
	<path class="st0" d="M37.2,261v4.8c0,0.3-0.2,0.5-0.5,0.5h-4.8c-0.3,0-0.5-0.2-0.5-0.5V261c0-0.3,0.2-0.5,0.5-0.5h4.8
		C37,260.5,37.2,260.7,37.2,261z M32.4,265.3h3.8v-3.8h-3.8V265.3z"/>
	<path class="st0" d="M162.2,364.1v4.8c0,0.3-0.2,0.5-0.5,0.5h-4.8c-0.3,0-0.5-0.2-0.5-0.5v-4.8c0-0.3,0.2-0.5,0.5-0.5h4.8
		C162,363.6,162.2,363.8,162.2,364.1z M157.4,368.4h3.8v-3.8h-3.8V368.4z"/>
	<path class="st0" d="M140.7,16.4h-4.8c-0.3,0-0.5-0.2-0.5-0.5v-4.8c0-0.3,0.2-0.5,0.5-0.5h4.8c0.3,0,0.5,0.2,0.5,0.5v4.8
		C141.2,16.2,141,16.4,140.7,16.4z M136.4,15.4h3.8v-3.8h-3.8V15.4z"/>
	<path class="st0" d="M141.2,364.1v4.8c0,0.3-0.2,0.5-0.5,0.5h-4.8c-0.3,0-0.5-0.2-0.5-0.5v-4.8c0-0.3,0.2-0.5,0.5-0.5h4.8
		C141,363.6,141.2,363.8,141.2,364.1z M136.4,368.4h3.8v-3.8h-3.8V368.4z"/>
	<path class="st0" d="M182.2,364.1v4.8c0,0.3-0.2,0.5-0.5,0.5h-4.8c-0.3,0-0.5-0.2-0.5-0.5v-4.8c0-0.3,0.2-0.5,0.5-0.5h4.8
		C182,363.6,182.2,363.8,182.2,364.1z M177.4,368.4h3.8v-3.8h-3.8V368.4z"/>
</g>
<g id="_x34_">
	<path class="st0" d="M224.1,17.4h-6.8c-0.3,0-0.5-0.2-0.5-0.5v-6.8c0-0.3,0.2-0.5,0.5-0.5h6.8c0.3,0,0.5,0.2,0.5,0.5v6.8
		C224.6,17.2,224.4,17.4,224.1,17.4z M217.8,16.4h5.8v-5.8h-5.8V16.4z"/>
	<path class="st0" d="M244.1,17.4h-6.8c-0.3,0-0.5-0.2-0.5-0.5v-6.8c0-0.3,0.2-0.5,0.5-0.5h6.8c0.3,0,0.5,0.2,0.5,0.5v6.8
		C244.6,17.2,244.4,17.4,244.1,17.4z M237.8,16.4h5.8v-5.8h-5.8V16.4z"/>
	<path class="st0" d="M307.1,59.4h-6.8c-0.3,0-0.5-0.2-0.5-0.5v-6.8c0-0.3,0.2-0.5,0.5-0.5h6.8c0.3,0,0.5,0.2,0.5,0.5v6.8
		C307.6,59.2,307.4,59.4,307.1,59.4z M300.8,58.4h5.8v-5.8h-5.8V58.4z"/>
	<path class="st0" d="M99.7,59.4h-6.8c-0.3,0-0.5-0.2-0.5-0.5v-6.8c0-0.3,0.2-0.5,0.5-0.5h6.8c0.3,0,0.5,0.2,0.5,0.5v6.8
		C100.2,59.2,100,59.4,99.7,59.4z M93.4,58.4h5.8v-5.8h-5.8V58.4z"/>
	<path class="st0" d="M286.1,38.4h-6.8c-0.3,0-0.5-0.2-0.5-0.5v-6.8c0-0.3,0.2-0.5,0.5-0.5h6.8c0.3,0,0.5,0.2,0.5,0.5v6.8
		C286.6,38.2,286.4,38.4,286.1,38.4z M279.8,37.4h5.8v-5.8h-5.8V37.4z"/>
	<path class="st0" d="M120.7,38.4h-6.8c-0.3,0-0.5-0.2-0.5-0.5v-6.8c0-0.3,0.2-0.5,0.5-0.5h6.8c0.3,0,0.5,0.2,0.5,0.5v6.8
		C121.2,38.2,121,38.4,120.7,38.4z M114.4,37.4h5.8v-5.8h-5.8V37.4z"/>
	<path class="st0" d="M327.1,79.4h-6.8c-0.3,0-0.5-0.2-0.5-0.5v-6.8c0-0.3,0.2-0.5,0.5-0.5h6.8c0.3,0,0.5,0.2,0.5,0.5v6.8
		C327.6,79.2,327.4,79.4,327.1,79.4z M320.8,78.4h5.8v-5.8h-5.8V78.4z"/>
	<path class="st0" d="M79.7,79.4h-6.8c-0.3,0-0.5-0.2-0.5-0.5v-6.8c0-0.3,0.2-0.5,0.5-0.5h6.8c0.3,0,0.5,0.2,0.5,0.5v6.8
		C80.2,79.2,80,79.4,79.7,79.4z M73.4,78.4h5.8v-5.8h-5.8V78.4z"/>
	<path class="st0" d="M369.1,120.4h-6.8c-0.3,0-0.5-0.2-0.5-0.5v-6.8c0-0.3,0.2-0.5,0.5-0.5h6.8c0.3,0,0.5,0.2,0.5,0.5v6.8
		C369.6,120.2,369.4,120.4,369.1,120.4z M362.8,119.4h5.8v-5.8h-5.8V119.4z"/>
	<path class="st0" d="M37.7,120.4h-6.8c-0.3,0-0.5-0.2-0.5-0.5v-6.8c0-0.3,0.2-0.5,0.5-0.5h6.8c0.3,0,0.5,0.2,0.5,0.5v6.8
		C38.2,120.2,38,120.4,37.7,120.4z M31.4,119.4h5.8v-5.8h-5.8V119.4z"/>
	<path class="st0" d="M348.1,100.4h-6.8c-0.3,0-0.5-0.2-0.5-0.5v-6.8c0-0.3,0.2-0.5,0.5-0.5h6.8c0.3,0,0.5,0.2,0.5,0.5v6.8
		C348.6,100.2,348.4,100.4,348.1,100.4z M341.8,99.4h5.8v-5.8h-5.8V99.4z"/>
	<path class="st0" d="M58.7,100.4h-6.8c-0.3,0-0.5-0.2-0.5-0.5v-6.8c0-0.3,0.2-0.5,0.5-0.5h6.8c0.3,0,0.5,0.2,0.5,0.5v6.8
		C59.2,100.2,59,100.4,58.7,100.4z M52.4,99.4h5.8v-5.8h-5.8V99.4z"/>
	<path class="st0" d="M389.1,162.4h-6.8c-0.3,0-0.5-0.2-0.5-0.5v-6.8c0-0.3,0.2-0.5,0.5-0.5h6.8c0.3,0,0.5,0.2,0.5,0.5v6.8
		C389.6,162.2,389.4,162.4,389.1,162.4z M382.8,161.4h5.8v-5.8h-5.8V161.4z"/>
	<path class="st0" d="M17.7,162.4h-6.8c-0.3,0-0.5-0.2-0.5-0.5v-6.8c0-0.3,0.2-0.5,0.5-0.5h6.8c0.3,0,0.5,0.2,0.5,0.5v6.8
		C18.2,162.2,18,162.4,17.7,162.4z M11.4,161.4h5.8v-5.8h-5.8V161.4z"/>
	<path class="st0" d="M389.1,141.4h-6.8c-0.3,0-0.5-0.2-0.5-0.5v-6.8c0-0.3,0.2-0.5,0.5-0.5h6.8c0.3,0,0.5,0.2,0.5,0.5v6.8
		C389.6,141.2,389.4,141.4,389.1,141.4z M382.8,140.4h5.8v-5.8h-5.8V140.4z"/>
	<path class="st0" d="M17.7,141.4h-6.8c-0.3,0-0.5-0.2-0.5-0.5v-6.8c0-0.3,0.2-0.5,0.5-0.5h6.8c0.3,0,0.5,0.2,0.5,0.5v6.8
		C18.2,141.2,18,141.4,17.7,141.4z M11.4,140.4h5.8v-5.8h-5.8V140.4z"/>
	<path class="st0" d="M389.1,182.4h-6.8c-0.3,0-0.5-0.2-0.5-0.5v-6.8c0-0.3,0.2-0.5,0.5-0.5h6.8c0.3,0,0.5,0.2,0.5,0.5v6.8
		C389.6,182.2,389.4,182.4,389.1,182.4z M382.8,181.4h5.8v-5.8h-5.8V181.4z"/>
	<path class="st0" d="M17.7,182.4h-6.8c-0.3,0-0.5-0.2-0.5-0.5v-6.8c0-0.3,0.2-0.5,0.5-0.5h6.8c0.3,0,0.5,0.2,0.5,0.5v6.8
		C18.2,182.2,18,182.4,17.7,182.4z M11.4,181.4h5.8v-5.8h-5.8V181.4z"/>
	<path class="st0" d="M162.7,17.4h-6.8c-0.3,0-0.5-0.2-0.5-0.5v-6.8c0-0.3,0.2-0.5,0.5-0.5h6.8c0.3,0,0.5,0.2,0.5,0.5v6.8
		C163.2,17.2,163,17.4,162.7,17.4z M156.4,16.4h5.8v-5.8h-5.8V16.4z"/>
	<path class="st0" d="M182.7,17.4h-6.8c-0.3,0-0.5-0.2-0.5-0.5v-6.8c0-0.3,0.2-0.5,0.5-0.5h6.8c0.3,0,0.5,0.2,0.5,0.5v6.8
		C183.2,17.2,183,17.4,182.7,17.4z M176.4,16.4h5.8v-5.8h-5.8V16.4z"/>
	<path class="st0" d="M224.6,363.1v6.8c0,0.3-0.2,0.5-0.5,0.5h-6.8c-0.3,0-0.5-0.2-0.5-0.5v-6.8c0-0.3,0.2-0.5,0.5-0.5h6.8
		C224.4,362.6,224.6,362.8,224.6,363.1z M217.8,369.4h5.8v-5.8h-5.8V369.4z"/>
	<path class="st0" d="M203.4,17.4h-6.8c-0.3,0-0.5-0.2-0.5-0.5v-6.8c0-0.3,0.2-0.5,0.5-0.5h6.8c0.3,0,0.5,0.2,0.5,0.5v6.8
		C203.9,17.2,203.7,17.4,203.4,17.4z M197.1,16.4h5.8v-5.8h-5.8V16.4z"/>
	<path class="st0" d="M203.9,363.1v6.8c0,0.3-0.2,0.5-0.5,0.5h-6.8c-0.3,0-0.5-0.2-0.5-0.5v-6.8c0-0.3,0.2-0.5,0.5-0.5h6.8
		C203.7,362.6,203.9,362.8,203.9,363.1z M197.1,369.4h5.8v-5.8h-5.8V369.4z"/>
	<path class="st0" d="M244.6,363.1v6.8c0,0.3-0.2,0.5-0.5,0.5h-6.8c-0.3,0-0.5-0.2-0.5-0.5v-6.8c0-0.3,0.2-0.5,0.5-0.5h6.8
		C244.4,362.6,244.6,362.8,244.6,363.1z M237.8,369.4h5.8v-5.8h-5.8V369.4z"/>
	<path class="st0" d="M265.2,17.4h-6.8c-0.3,0-0.5-0.2-0.5-0.5v-6.8c0-0.3,0.2-0.5,0.5-0.5h6.8c0.3,0,0.5,0.2,0.5,0.5v6.8
		C265.7,17.2,265.5,17.4,265.2,17.4z M258.9,16.4h5.8v-5.8h-5.8V16.4z"/>
	<path class="st0" d="M265.7,363.1v6.8c0,0.3-0.2,0.5-0.5,0.5h-6.8c-0.3,0-0.5-0.2-0.5-0.5v-6.8c0-0.3,0.2-0.5,0.5-0.5h6.8
		C265.5,362.6,265.7,362.8,265.7,363.1z M258.9,369.4h5.8v-5.8h-5.8V369.4z"/>
	<path class="st0" d="M307.6,321v6.8c0,0.3-0.2,0.5-0.5,0.5h-6.8c-0.3,0-0.5-0.2-0.5-0.5V321c0-0.3,0.2-0.5,0.5-0.5h6.8
		C307.4,320.5,307.6,320.7,307.6,321z M300.8,327.3h5.8v-5.8h-5.8V327.3z"/>
	<path class="st0" d="M100.2,321v6.8c0,0.3-0.2,0.5-0.5,0.5h-6.8c-0.3,0-0.5-0.2-0.5-0.5V321c0-0.3,0.2-0.5,0.5-0.5h6.8
		C100,320.5,100.2,320.7,100.2,321z M93.4,327.3h5.8v-5.8h-5.8V327.3z"/>
	<path class="st0" d="M286.6,342v6.8c0,0.3-0.2,0.5-0.5,0.5h-6.8c-0.3,0-0.5-0.2-0.5-0.5V342c0-0.3,0.2-0.5,0.5-0.5h6.8
		C286.4,341.5,286.6,341.7,286.6,342z M279.8,348.3h5.8v-5.8h-5.8V348.3z"/>
	<path class="st0" d="M121.2,342v6.8c0,0.3-0.2,0.5-0.5,0.5h-6.8c-0.3,0-0.5-0.2-0.5-0.5V342c0-0.3,0.2-0.5,0.5-0.5h6.8
		C121,341.5,121.2,341.7,121.2,342z M114.4,348.3h5.8v-5.8h-5.8V348.3z"/>
	<path class="st0" d="M327.6,301v6.8c0,0.3-0.2,0.5-0.5,0.5h-6.8c-0.3,0-0.5-0.2-0.5-0.5V301c0-0.3,0.2-0.5,0.5-0.5h6.8
		C327.4,300.5,327.6,300.7,327.6,301z M320.8,307.3h5.8v-5.8h-5.8V307.3z"/>
	<path class="st0" d="M80.2,301v6.8c0,0.3-0.2,0.5-0.5,0.5h-6.8c-0.3,0-0.5-0.2-0.5-0.5V301c0-0.3,0.2-0.5,0.5-0.5h6.8
		C80,300.5,80.2,300.7,80.2,301z M73.4,307.3h5.8v-5.8h-5.8V307.3z"/>
	<path class="st0" d="M369.6,260v6.8c0,0.3-0.2,0.5-0.5,0.5h-6.8c-0.3,0-0.5-0.2-0.5-0.5V260c0-0.3,0.2-0.5,0.5-0.5h6.8
		C369.4,259.5,369.6,259.7,369.6,260z M362.8,266.3h5.8v-5.8h-5.8V266.3z"/>
	<path class="st0" d="M38.2,260v6.8c0,0.3-0.2,0.5-0.5,0.5h-6.8c-0.3,0-0.5-0.2-0.5-0.5V260c0-0.3,0.2-0.5,0.5-0.5h6.8
		C38,259.5,38.2,259.7,38.2,260z M31.4,266.3h5.8v-5.8h-5.8V266.3z"/>
	<path class="st0" d="M348.6,280v6.8c0,0.3-0.2,0.5-0.5,0.5h-6.8c-0.3,0-0.5-0.2-0.5-0.5V280c0-0.3,0.2-0.5,0.5-0.5h6.8
		C348.4,279.5,348.6,279.7,348.6,280z M341.8,286.3h5.8v-5.8h-5.8V286.3z"/>
	<path class="st0" d="M59.2,280v6.8c0,0.3-0.2,0.5-0.5,0.5h-6.8c-0.3,0-0.5-0.2-0.5-0.5V280c0-0.3,0.2-0.5,0.5-0.5h6.8
		C59,279.5,59.2,279.7,59.2,280z M52.4,286.3h5.8v-5.8h-5.8V286.3z"/>
	<path class="st0" d="M389.6,218v6.8c0,0.3-0.2,0.5-0.5,0.5h-6.8c-0.3,0-0.5-0.2-0.5-0.5V218c0-0.3,0.2-0.5,0.5-0.5h6.8
		C389.4,217.5,389.6,217.7,389.6,218z M382.8,224.3h5.8v-5.8h-5.8V224.3z"/>
	<path class="st0" d="M18.2,218v6.8c0,0.3-0.2,0.5-0.5,0.5h-6.8c-0.3,0-0.5-0.2-0.5-0.5V218c0-0.3,0.2-0.5,0.5-0.5h6.8
		C18,217.5,18.2,217.7,18.2,218z M11.4,224.3h5.8v-5.8h-5.8V224.3z"/>
	<path class="st0" d="M389.6,239v6.8c0,0.3-0.2,0.5-0.5,0.5h-6.8c-0.3,0-0.5-0.2-0.5-0.5V239c0-0.3,0.2-0.5,0.5-0.5h6.8
		C389.4,238.5,389.6,238.7,389.6,239z M382.8,245.3h5.8v-5.8h-5.8V245.3z"/>
	<path class="st0" d="M18.2,239v6.8c0,0.3-0.2,0.5-0.5,0.5h-6.8c-0.3,0-0.5-0.2-0.5-0.5V239c0-0.3,0.2-0.5,0.5-0.5h6.8
		C18,238.5,18.2,238.7,18.2,239z M11.4,245.3h5.8v-5.8h-5.8V245.3z"/>
	<path class="st0" d="M389.6,198v6.8c0,0.3-0.2,0.5-0.5,0.5h-6.8c-0.3,0-0.5-0.2-0.5-0.5V198c0-0.3,0.2-0.5,0.5-0.5h6.8
		C389.4,197.5,389.6,197.7,389.6,198z M382.8,204.3h5.8v-5.8h-5.8V204.3z"/>
	<path class="st0" d="M18.2,198v6.8c0,0.3-0.2,0.5-0.5,0.5h-6.8c-0.3,0-0.5-0.2-0.5-0.5V198c0-0.3,0.2-0.5,0.5-0.5h6.8
		C18,197.5,18.2,197.7,18.2,198z M11.4,204.3h5.8v-5.8h-5.8V204.3z"/>
	<path class="st0" d="M163.2,363.1v6.8c0,0.3-0.2,0.5-0.5,0.5h-6.8c-0.3,0-0.5-0.2-0.5-0.5v-6.8c0-0.3,0.2-0.5,0.5-0.5h6.8
		C163,362.6,163.2,362.8,163.2,363.1z M156.4,369.4h5.8v-5.8h-5.8V369.4z"/>
	<path class="st0" d="M141.7,17.4h-6.8c-0.3,0-0.5-0.2-0.5-0.5v-6.8c0-0.3,0.2-0.5,0.5-0.5h6.8c0.3,0,0.5,0.2,0.5,0.5v6.8
		C142.2,17.2,142,17.4,141.7,17.4z M135.4,16.4h5.8v-5.8h-5.8V16.4z"/>
	<path class="st0" d="M142.2,363.1v6.8c0,0.3-0.2,0.5-0.5,0.5h-6.8c-0.3,0-0.5-0.2-0.5-0.5v-6.8c0-0.3,0.2-0.5,0.5-0.5h6.8
		C142,362.6,142.2,362.8,142.2,363.1z M135.4,369.4h5.8v-5.8h-5.8V369.4z"/>
	<path class="st0" d="M183.2,363.1v6.8c0,0.3-0.2,0.5-0.5,0.5h-6.8c-0.3,0-0.5-0.2-0.5-0.5v-6.8c0-0.3,0.2-0.5,0.5-0.5h6.8
		C183,362.6,183.2,362.8,183.2,363.1z M176.4,369.4h5.8v-5.8h-5.8V369.4z"/>
</g>
<g id="_x35_">
	<path class="st0" d="M225.1,18.4h-8.8c-0.3,0-0.5-0.2-0.5-0.5V9.1c0-0.3,0.2-0.5,0.5-0.5h8.8c0.3,0,0.5,0.2,0.5,0.5v8.8
		C225.6,18.2,225.4,18.4,225.1,18.4z M216.8,17.4h7.8V9.6h-7.8V17.4z"/>
	<path class="st0" d="M245.1,18.4h-8.8c-0.3,0-0.5-0.2-0.5-0.5V9.1c0-0.3,0.2-0.5,0.5-0.5h8.8c0.3,0,0.5,0.2,0.5,0.5v8.8
		C245.6,18.2,245.4,18.4,245.1,18.4z M236.8,17.4h7.8V9.6h-7.8V17.4z"/>
	<path class="st0" d="M308.1,60.4h-8.8c-0.3,0-0.5-0.2-0.5-0.5v-8.8c0-0.3,0.2-0.5,0.5-0.5h8.8c0.3,0,0.5,0.2,0.5,0.5v8.8
		C308.6,60.2,308.4,60.4,308.1,60.4z M299.8,59.4h7.8v-7.8h-7.8V59.4z"/>
	<path class="st0" d="M100.7,60.4h-8.8c-0.3,0-0.5-0.2-0.5-0.5v-8.8c0-0.3,0.2-0.5,0.5-0.5h8.8c0.3,0,0.5,0.2,0.5,0.5v8.8
		C101.2,60.2,101,60.4,100.7,60.4z M92.4,59.4h7.8v-7.8h-7.8V59.4z"/>
	<path class="st0" d="M287.1,39.4h-8.8c-0.3,0-0.5-0.2-0.5-0.5v-8.8c0-0.3,0.2-0.5,0.5-0.5h8.8c0.3,0,0.5,0.2,0.5,0.5v8.8
		C287.6,39.2,287.4,39.4,287.1,39.4z M278.8,38.4h7.8v-7.8h-7.8V38.4z"/>
	<path class="st0" d="M121.7,39.4h-8.8c-0.3,0-0.5-0.2-0.5-0.5v-8.8c0-0.3,0.2-0.5,0.5-0.5h8.8c0.3,0,0.5,0.2,0.5,0.5v8.8
		C122.2,39.2,122,39.4,121.7,39.4z M113.4,38.4h7.8v-7.8h-7.8V38.4z"/>
	<path class="st0" d="M328.1,80.4h-8.8c-0.3,0-0.5-0.2-0.5-0.5v-8.8c0-0.3,0.2-0.5,0.5-0.5h8.8c0.3,0,0.5,0.2,0.5,0.5v8.8
		C328.6,80.2,328.4,80.4,328.1,80.4z M319.8,79.4h7.8v-7.8h-7.8V79.4z"/>
	<path class="st0" d="M80.7,80.4h-8.8c-0.3,0-0.5-0.2-0.5-0.5v-8.8c0-0.3,0.2-0.5,0.5-0.5h8.8c0.3,0,0.5,0.2,0.5,0.5v8.8
		C81.2,80.2,81,80.4,80.7,80.4z M72.4,79.4h7.8v-7.8h-7.8V79.4z"/>
	<path class="st0" d="M370.1,121.4h-8.8c-0.3,0-0.5-0.2-0.5-0.5v-8.8c0-0.3,0.2-0.5,0.5-0.5h8.8c0.3,0,0.5,0.2,0.5,0.5v8.8
		C370.6,121.2,370.4,121.4,370.1,121.4z M361.8,120.4h7.8v-7.8h-7.8V120.4z"/>
	<path class="st0" d="M38.7,121.4h-8.8c-0.3,0-0.5-0.2-0.5-0.5v-8.8c0-0.3,0.2-0.5,0.5-0.5h8.8c0.3,0,0.5,0.2,0.5,0.5v8.8
		C39.2,121.2,39,121.4,38.7,121.4z M30.4,120.4h7.8v-7.8h-7.8V120.4z"/>
	<path class="st0" d="M349.1,101.4h-8.8c-0.3,0-0.5-0.2-0.5-0.5v-8.8c0-0.3,0.2-0.5,0.5-0.5h8.8c0.3,0,0.5,0.2,0.5,0.5v8.8
		C349.6,101.2,349.4,101.4,349.1,101.4z M340.8,100.4h7.8v-7.8h-7.8V100.4z"/>
	<path class="st0" d="M59.7,101.4h-8.8c-0.3,0-0.5-0.2-0.5-0.5v-8.8c0-0.3,0.2-0.5,0.5-0.5h8.8c0.3,0,0.5,0.2,0.5,0.5v8.8
		C60.2,101.2,60,101.4,59.7,101.4z M51.4,100.4h7.8v-7.8h-7.8V100.4z"/>
	<path class="st0" d="M390.1,163.4h-8.8c-0.3,0-0.5-0.2-0.5-0.5v-8.8c0-0.3,0.2-0.5,0.5-0.5h8.8c0.3,0,0.5,0.2,0.5,0.5v8.8
		C390.6,163.2,390.4,163.4,390.1,163.4z M381.8,162.4h7.8v-7.8h-7.8V162.4z"/>
	<path class="st0" d="M18.7,163.4H9.9c-0.3,0-0.5-0.2-0.5-0.5v-8.8c0-0.3,0.2-0.5,0.5-0.5h8.8c0.3,0,0.5,0.2,0.5,0.5v8.8
		C19.2,163.2,19,163.4,18.7,163.4z M10.4,162.4h7.8v-7.8h-7.8V162.4z"/>
	<path class="st0" d="M390.1,142.4h-8.8c-0.3,0-0.5-0.2-0.5-0.5v-8.8c0-0.3,0.2-0.5,0.5-0.5h8.8c0.3,0,0.5,0.2,0.5,0.5v8.8
		C390.6,142.2,390.4,142.4,390.1,142.4z M381.8,141.4h7.8v-7.8h-7.8V141.4z"/>
	<path class="st0" d="M18.7,142.4H9.9c-0.3,0-0.5-0.2-0.5-0.5v-8.8c0-0.3,0.2-0.5,0.5-0.5h8.8c0.3,0,0.5,0.2,0.5,0.5v8.8
		C19.2,142.2,19,142.4,18.7,142.4z M10.4,141.4h7.8v-7.8h-7.8V141.4z"/>
	<path class="st0" d="M390.1,183.4h-8.8c-0.3,0-0.5-0.2-0.5-0.5v-8.8c0-0.3,0.2-0.5,0.5-0.5h8.8c0.3,0,0.5,0.2,0.5,0.5v8.8
		C390.6,183.2,390.4,183.4,390.1,183.4z M381.8,182.4h7.8v-7.8h-7.8V182.4z"/>
	<path class="st0" d="M18.7,183.4H9.9c-0.3,0-0.5-0.2-0.5-0.5v-8.8c0-0.3,0.2-0.5,0.5-0.5h8.8c0.3,0,0.5,0.2,0.5,0.5v8.8
		C19.2,183.2,19,183.4,18.7,183.4z M10.4,182.4h7.8v-7.8h-7.8V182.4z"/>
	<path class="st0" d="M390.1,206.4h-8.8c-0.3,0-0.5-0.2-0.5-0.5v-8.8c0-0.3,0.2-0.5,0.5-0.5h8.8c0.3,0,0.5,0.2,0.5,0.5v8.8
		C390.6,206.2,390.4,206.4,390.1,206.4z M381.8,205.4h7.8v-7.8h-7.8V205.4z"/>
	<path class="st0" d="M18.7,206.4H9.9c-0.3,0-0.5-0.2-0.5-0.5v-8.8c0-0.3,0.2-0.5,0.5-0.5h8.8c0.3,0,0.5,0.2,0.5,0.5v8.8
		C19.2,206.2,19,206.4,18.7,206.4z M10.4,205.4h7.8v-7.8h-7.8V205.4z"/>
	<path class="st0" d="M390.1,226.4h-8.8c-0.3,0-0.5-0.2-0.5-0.5v-8.8c0-0.3,0.2-0.5,0.5-0.5h8.8c0.3,0,0.5,0.2,0.5,0.5v8.8
		C390.6,226.2,390.4,226.4,390.1,226.4z M381.8,225.4h7.8v-7.8h-7.8V225.4z"/>
	<path class="st0" d="M18.7,226.4H9.9c-0.3,0-0.5-0.2-0.5-0.5v-8.8c0-0.3,0.2-0.5,0.5-0.5h8.8c0.3,0,0.5,0.2,0.5,0.5v8.8
		C19.2,226.2,19,226.4,18.7,226.4z M10.4,225.4h7.8v-7.8h-7.8V225.4z"/>
	<path class="st0" d="M390.1,247.4h-8.8c-0.3,0-0.5-0.2-0.5-0.5v-8.8c0-0.3,0.2-0.5,0.5-0.5h8.8c0.3,0,0.5,0.2,0.5,0.5v8.8
		C390.6,247.2,390.4,247.4,390.1,247.4z M381.8,246.4h7.8v-7.8h-7.8V246.4z"/>
	<path class="st0" d="M18.7,247.4H9.9c-0.3,0-0.5-0.2-0.5-0.5v-8.8c0-0.3,0.2-0.5,0.5-0.5h8.8c0.3,0,0.5,0.2,0.5,0.5v8.8
		C19.2,247.2,19,247.4,18.7,247.4z M10.4,246.4h7.8v-7.8h-7.8V246.4z"/>
	<path class="st0" d="M163.7,18.4h-8.8c-0.3,0-0.5-0.2-0.5-0.5V9.1c0-0.3,0.2-0.5,0.5-0.5h8.8c0.3,0,0.5,0.2,0.5,0.5v8.8
		C164.2,18.2,164,18.4,163.7,18.4z M155.4,17.4h7.8V9.6h-7.8V17.4z"/>
	<path class="st0" d="M183.7,18.4h-8.8c-0.3,0-0.5-0.2-0.5-0.5V9.1c0-0.3,0.2-0.5,0.5-0.5h8.8c0.3,0,0.5,0.2,0.5,0.5v8.8
		C184.2,18.2,184,18.4,183.7,18.4z M175.4,17.4h7.8V9.6h-7.8V17.4z"/>
	<path class="st0" d="M225.6,362.1v8.8c0,0.3-0.2,0.5-0.5,0.5h-8.8c-0.3,0-0.5-0.2-0.5-0.5v-8.8c0-0.3,0.2-0.5,0.5-0.5h8.8
		C225.4,361.6,225.6,361.8,225.6,362.1z M216.8,370.4h7.8v-7.8h-7.8V370.4z"/>
	<path class="st0" d="M204.4,18.4h-8.8c-0.3,0-0.5-0.2-0.5-0.5V9.1c0-0.3,0.2-0.5,0.5-0.5h8.8c0.3,0,0.5,0.2,0.5,0.5v8.8
		C204.9,18.2,204.7,18.4,204.4,18.4z M196.1,17.4h7.8V9.6h-7.8V17.4z"/>
	<path class="st0" d="M204.9,362.1v8.8c0,0.3-0.2,0.5-0.5,0.5h-8.8c-0.3,0-0.5-0.2-0.5-0.5v-8.8c0-0.3,0.2-0.5,0.5-0.5h8.8
		C204.7,361.6,204.9,361.8,204.9,362.1z M196.1,370.4h7.8v-7.8h-7.8V370.4z"/>
	<path class="st0" d="M245.6,362.1v8.8c0,0.3-0.2,0.5-0.5,0.5h-8.8c-0.3,0-0.5-0.2-0.5-0.5v-8.8c0-0.3,0.2-0.5,0.5-0.5h8.8
		C245.4,361.6,245.6,361.8,245.6,362.1z M236.8,370.4h7.8v-7.8h-7.8V370.4z"/>
	<path class="st0" d="M266.2,18.4h-8.8c-0.3,0-0.5-0.2-0.5-0.5V9.1c0-0.3,0.2-0.5,0.5-0.5h8.8c0.3,0,0.5,0.2,0.5,0.5v8.8
		C266.7,18.2,266.5,18.4,266.2,18.4z M257.9,17.4h7.8V9.6h-7.8V17.4z"/>
	<path class="st0" d="M266.7,362.1v8.8c0,0.3-0.2,0.5-0.5,0.5h-8.8c-0.3,0-0.5-0.2-0.5-0.5v-8.8c0-0.3,0.2-0.5,0.5-0.5h8.8
		C266.5,361.6,266.7,361.8,266.7,362.1z M257.9,370.4h7.8v-7.8h-7.8V370.4z"/>
	<path class="st0" d="M308.6,320v8.8c0,0.3-0.2,0.5-0.5,0.5h-8.8c-0.3,0-0.5-0.2-0.5-0.5V320c0-0.3,0.2-0.5,0.5-0.5h8.8
		C308.4,319.5,308.6,319.7,308.6,320z M299.8,328.3h7.8v-7.8h-7.8V328.3z"/>
	<path class="st0" d="M101.2,320v8.8c0,0.3-0.2,0.5-0.5,0.5h-8.8c-0.3,0-0.5-0.2-0.5-0.5V320c0-0.3,0.2-0.5,0.5-0.5h8.8
		C101,319.5,101.2,319.7,101.2,320z M92.4,328.3h7.8v-7.8h-7.8V328.3z"/>
	<path class="st0" d="M287.6,341v8.8c0,0.3-0.2,0.5-0.5,0.5h-8.8c-0.3,0-0.5-0.2-0.5-0.5V341c0-0.3,0.2-0.5,0.5-0.5h8.8
		C287.4,340.5,287.6,340.7,287.6,341z M278.8,349.3h7.8v-7.8h-7.8V349.3z"/>
	<path class="st0" d="M122.2,341v8.8c0,0.3-0.2,0.5-0.5,0.5h-8.8c-0.3,0-0.5-0.2-0.5-0.5V341c0-0.3,0.2-0.5,0.5-0.5h8.8
		C122,340.5,122.2,340.7,122.2,341z M113.4,349.3h7.8v-7.8h-7.8V349.3z"/>
	<path class="st0" d="M328.6,300v8.8c0,0.3-0.2,0.5-0.5,0.5h-8.8c-0.3,0-0.5-0.2-0.5-0.5V300c0-0.3,0.2-0.5,0.5-0.5h8.8
		C328.4,299.5,328.6,299.7,328.6,300z M319.8,308.3h7.8v-7.8h-7.8V308.3z"/>
	<path class="st0" d="M81.2,300v8.8c0,0.3-0.2,0.5-0.5,0.5h-8.8c-0.3,0-0.5-0.2-0.5-0.5V300c0-0.3,0.2-0.5,0.5-0.5h8.8
		C81,299.5,81.2,299.7,81.2,300z M72.4,308.3h7.8v-7.8h-7.8V308.3z"/>
	<path class="st0" d="M370.6,259v8.8c0,0.3-0.2,0.5-0.5,0.5h-8.8c-0.3,0-0.5-0.2-0.5-0.5V259c0-0.3,0.2-0.5,0.5-0.5h8.8
		C370.4,258.5,370.6,258.7,370.6,259z M361.8,267.3h7.8v-7.8h-7.8V267.3z"/>
	<path class="st0" d="M39.2,259v8.8c0,0.3-0.2,0.5-0.5,0.5h-8.8c-0.3,0-0.5-0.2-0.5-0.5V259c0-0.3,0.2-0.5,0.5-0.5h8.8
		C39,258.5,39.2,258.7,39.2,259z M30.4,267.3h7.8v-7.8h-7.8V267.3z"/>
	<path class="st0" d="M349.6,279v8.8c0,0.3-0.2,0.5-0.5,0.5h-8.8c-0.3,0-0.5-0.2-0.5-0.5V279c0-0.3,0.2-0.5,0.5-0.5h8.8
		C349.4,278.5,349.6,278.7,349.6,279z M340.8,287.3h7.8v-7.8h-7.8V287.3z"/>
	<path class="st0" d="M60.2,279v8.8c0,0.3-0.2,0.5-0.5,0.5h-8.8c-0.3,0-0.5-0.2-0.5-0.5V279c0-0.3,0.2-0.5,0.5-0.5h8.8
		C60,278.5,60.2,278.7,60.2,279z M51.4,287.3h7.8v-7.8h-7.8V287.3z"/>
	<path class="st0" d="M164.2,362.1v8.8c0,0.3-0.2,0.5-0.5,0.5h-8.8c-0.3,0-0.5-0.2-0.5-0.5v-8.8c0-0.3,0.2-0.5,0.5-0.5h8.8
		C164,361.6,164.2,361.8,164.2,362.1z M155.4,370.4h7.8v-7.8h-7.8V370.4z"/>
	<path class="st0" d="M142.7,18.4h-8.8c-0.3,0-0.5-0.2-0.5-0.5V9.1c0-0.3,0.2-0.5,0.5-0.5h8.8c0.3,0,0.5,0.2,0.5,0.5v8.8
		C143.2,18.2,143,18.4,142.7,18.4z M134.4,17.4h7.8V9.6h-7.8V17.4z"/>
	<path class="st0" d="M143.2,362.1v8.8c0,0.3-0.2,0.5-0.5,0.5h-8.8c-0.3,0-0.5-0.2-0.5-0.5v-8.8c0-0.3,0.2-0.5,0.5-0.5h8.8
		C143,361.6,143.2,361.8,143.2,362.1z M134.4,370.4h7.8v-7.8h-7.8V370.4z"/>
	<path class="st0" d="M184.2,362.1v8.8c0,0.3-0.2,0.5-0.5,0.5h-8.8c-0.3,0-0.5-0.2-0.5-0.5v-8.8c0-0.3,0.2-0.5,0.5-0.5h8.8
		C184,361.6,184.2,361.8,184.2,362.1z M175.4,370.4h7.8v-7.8h-7.8V370.4z"/>
</g>
</svg>
