<?xml version="1.0" encoding="utf-8"?>
<!-- Generator: Adobe Illustrator 25.2.2, SVG Export Plug-In . SVG Version: 6.00 Build 0)  -->
<svg version="1.1" baseProfile="tiny" id="progress"
	 xmlns="http://www.w3.org/2000/svg" xmlns:xlink="http://www.w3.org/1999/xlink" x="0px" y="0px" viewBox="0 0 120 390.4"
	 overflow="visible" xml:space="preserve">
<path display="none" fill="#6CB8C7" d="M45.9,381.7C86,335.2,108,276,108,214.4C108,132.8,70.5,58,5,9L4.6,8.7l3.9-5L8.9,4
	c32,24,58.6,55.4,76.8,90.9c19.1,37.2,28.7,77.5,28.7,119.6c0,62.8-22.7,123.8-63.6,171.3L45.9,381.7z M50.7,384.4
	c40.4-47.2,62.7-107.6,62.7-169.9c0-83.1-38.2-159.4-104.7-209.4L6,8.5C37.2,32,63.1,62.7,80.9,97.3c18.7,36.5,28.1,75.9,28.1,117.1
	c0,61.5-21.9,120.6-61.7,167.1L50.7,384.4z"/>
<path fill="#6CB8C7" d="M43.3,387c41.5-48.9,64.5-111.3,64.5-175.5c0-57.2-17.6-111.9-50.9-158l0.4-0.3l-0.4,0.3
	C44,35.6,28.9,19.2,12,4.9L16.2,0l4.6,4.1C36.1,17.7,50,33,62,49.7C96.1,97,114.1,153,114.1,211.5c0,66-23.4,129.6-66,179.7
	L43.3,387z M13.7,4.9c16.5,14.2,31.3,30.3,44,47.9l0,0c33.4,46.4,51.1,101.3,51.1,158.7c0,64.2-22.8,126.4-64.2,175.4l3.3,2.8
	c42.2-49.8,65.2-112.8,65.2-178.2c0-58.3-17.9-114.1-51.9-161.2C49.2,33.7,31.8,15,16.5,1.6C16.5,1.6,13.7,4.9,13.7,4.9z"/>
<rect x="5.3" y="-2.8" transform="matrix(0.6375 -0.7705 0.7705 0.6375 4.6855 5.3097)" fill="#6CB8C7" width="5.3" height="1"/>
<rect x="-2" y="-8.2" transform="matrix(0.6013 -0.799 0.799 0.6013 6.4623 -2.545)" fill="#6CB8C7" width="5.3" height="1"/>
<rect x="41.9" y="390.4" transform="matrix(0.6488 -0.7609 0.7609 0.6488 -284.2126 170.309)" fill="#6CB8C7" width="1" height="5.3"/>
</svg>
