<?xml version="1.0" encoding="utf-8"?>
<!-- Generator: Adobe Illustrator 25.1.0, SVG Export Plug-In . SVG Version: 6.00 Build 0)  -->
<svg version="1.1" id="animated" xmlns="http://www.w3.org/2000/svg" xmlns:xlink="http://www.w3.org/1999/xlink" x="0px" y="0px"
	 viewBox="0 0 260 200" style="enable-background:new 0 0 260 200;" xml:space="preserve">
<style type="text/css">
	.st0{fill:#6CB8C7;}
</style>
<g id="_x31__2_">
	<path class="st0" d="M151.1,48.4h-0.8c-0.3,0-0.5-0.2-0.5-0.5v-0.8c0-0.3,0.2-0.5,0.5-0.5h0.8c0.3,0,0.5,0.2,0.5,0.5v0.8
		C151.6,48.2,151.4,48.4,151.1,48.4z M150.8,47.4h-0.2v0.2h0.2V47.4z"/>
	<path class="st0" d="M171.1,48.4h-0.8c-0.3,0-0.5-0.2-0.5-0.5v-0.8c0-0.3,0.2-0.5,0.5-0.5h0.8c0.3,0,0.5,0.2,0.5,0.5v0.8
		C171.6,48.2,171.4,48.4,171.1,48.4z M170.8,47.4h-0.2v0.2h0.2V47.4z"/>
	<path class="st0" d="M192.1,48.4h-0.8c-0.3,0-0.5-0.2-0.5-0.5v-0.8c0-0.3,0.2-0.5,0.5-0.5h0.8c0.3,0,0.5,0.2,0.5,0.5v0.8
		C192.6,48.2,192.4,48.4,192.1,48.4z M191.8,47.4h-0.2v0.2h0.2V47.4z"/>
	<path class="st0" d="M68.7,48.4h-0.8c-0.3,0-0.5-0.2-0.5-0.5v-0.8c0-0.3,0.2-0.5,0.5-0.5h0.8c0.3,0,0.5,0.2,0.5,0.5v0.8
		C69.2,48.2,69,48.4,68.7,48.4z M68.4,47.4h-0.2v0.2h0.2V47.4z"/>
	<path class="st0" d="M192.1,69.4h-0.8c-0.3,0-0.5-0.2-0.5-0.5v-0.8c0-0.3,0.2-0.5,0.5-0.5h0.8c0.3,0,0.5,0.2,0.5,0.5v0.8
		C192.6,69.2,192.4,69.4,192.1,69.4z M191.8,68.4h-0.2v0.2h0.2V68.4z"/>
	<path class="st0" d="M68.7,69.4h-0.8c-0.3,0-0.5-0.2-0.5-0.5v-0.8c0-0.3,0.2-0.5,0.5-0.5h0.8c0.3,0,0.5,0.2,0.5,0.5v0.8
		C69.2,69.2,69,69.4,68.7,69.4z M68.4,68.4h-0.2v0.2h0.2V68.4z"/>
	<path class="st0" d="M89.7,48.4h-0.8c-0.3,0-0.5-0.2-0.5-0.5v-0.8c0-0.3,0.2-0.5,0.5-0.5h0.8c0.3,0,0.5,0.2,0.5,0.5v0.8
		C90.2,48.2,90,48.4,89.7,48.4z M89.4,47.4h-0.2v0.2h0.2V47.4z"/>
	<path class="st0" d="M109.7,48.4h-0.8c-0.3,0-0.5-0.2-0.5-0.5v-0.8c0-0.3,0.2-0.5,0.5-0.5h0.8c0.3,0,0.5,0.2,0.5,0.5v0.8
		C110.2,48.2,110,48.4,109.7,48.4z M109.4,47.4h-0.2v0.2h0.2V47.4z"/>
	<path class="st0" d="M151.6,152v0.8c0,0.3-0.2,0.5-0.5,0.5h-0.8c-0.3,0-0.5-0.2-0.5-0.5V152c0-0.3,0.2-0.5,0.5-0.5h0.8
		C151.4,151.5,151.6,151.7,151.6,152z M150.8,152.3h-0.2v0.2h0.2V152.3z"/>
	<path class="st0" d="M171.6,152v0.8c0,0.3-0.2,0.5-0.5,0.5h-0.8c-0.3,0-0.5-0.2-0.5-0.5V152c0-0.3,0.2-0.5,0.5-0.5h0.8
		C171.4,151.5,171.6,151.7,171.6,152z M170.8,152.3h-0.2v0.2h0.2V152.3z"/>
	<path class="st0" d="M192.6,152v0.8c0,0.3-0.2,0.5-0.5,0.5h-0.8c-0.3,0-0.5-0.2-0.5-0.5V152c0-0.3,0.2-0.5,0.5-0.5h0.8
		C192.4,151.5,192.6,151.7,192.6,152z M191.8,152.3h-0.2v0.2h0.2V152.3z"/>
	<path class="st0" d="M69.2,152v0.8c0,0.3-0.2,0.5-0.5,0.5h-0.8c-0.3,0-0.5-0.2-0.5-0.5V152c0-0.3,0.2-0.5,0.5-0.5h0.8
		C69,151.5,69.2,151.7,69.2,152z M68.4,152.3h-0.2v0.2h0.2V152.3z"/>
	<path class="st0" d="M192.6,131v0.8c0,0.3-0.2,0.5-0.5,0.5h-0.8c-0.3,0-0.5-0.2-0.5-0.5V131c0-0.3,0.2-0.5,0.5-0.5h0.8
		C192.4,130.5,192.6,130.7,192.6,131z M191.8,131.3h-0.2v0.2h0.2V131.3z"/>
	<path class="st0" d="M69.2,131v0.8c0,0.3-0.2,0.5-0.5,0.5h-0.8c-0.3,0-0.5-0.2-0.5-0.5V131c0-0.3,0.2-0.5,0.5-0.5h0.8
		C69,130.5,69.2,130.7,69.2,131z M68.4,131.3h-0.2v0.2h0.2V131.3z"/>
	<path class="st0" d="M90.2,152v0.8c0,0.3-0.2,0.5-0.5,0.5h-0.8c-0.3,0-0.5-0.2-0.5-0.5V152c0-0.3,0.2-0.5,0.5-0.5h0.8
		C90,151.5,90.2,151.7,90.2,152z M89.4,152.3h-0.2v0.2h0.2V152.3z"/>
	<path class="st0" d="M110.2,152v0.8c0,0.3-0.2,0.5-0.5,0.5h-0.8c-0.3,0-0.5-0.2-0.5-0.5V152c0-0.3,0.2-0.5,0.5-0.5h0.8
		C110,151.5,110.2,151.7,110.2,152z M109.4,152.3h-0.2v0.2h0.2V152.3z"/>
</g>
<g id="_x32_">
	<path class="st0" d="M152.1,49.4h-2.8c-0.3,0-0.5-0.2-0.5-0.5v-2.8c0-0.3,0.2-0.5,0.5-0.5h2.8c0.3,0,0.5,0.2,0.5,0.5v2.8
		C152.6,49.2,152.4,49.4,152.1,49.4z M149.8,48.4h1.8v-1.8h-1.8V48.4z"/>
	<path class="st0" d="M172.1,49.4h-2.8c-0.3,0-0.5-0.2-0.5-0.5v-2.8c0-0.3,0.2-0.5,0.5-0.5h2.8c0.3,0,0.5,0.2,0.5,0.5v2.8
		C172.6,49.2,172.4,49.4,172.1,49.4z M169.8,48.4h1.8v-1.8h-1.8V48.4z"/>
	<path class="st0" d="M193.1,49.4h-2.8c-0.3,0-0.5-0.2-0.5-0.5v-2.8c0-0.3,0.2-0.5,0.5-0.5h2.8c0.3,0,0.5,0.2,0.5,0.5v2.8
		C193.6,49.2,193.4,49.4,193.1,49.4z M190.8,48.4h1.8v-1.8h-1.8V48.4z"/>
	<path class="st0" d="M69.7,49.4h-2.8c-0.3,0-0.5-0.2-0.5-0.5v-2.8c0-0.3,0.2-0.5,0.5-0.5h2.8c0.3,0,0.5,0.2,0.5,0.5v2.8
		C70.2,49.2,70,49.4,69.7,49.4z M67.4,48.4h1.8v-1.8h-1.8V48.4z"/>
	<path class="st0" d="M193.1,70.4h-2.8c-0.3,0-0.5-0.2-0.5-0.5v-2.8c0-0.3,0.2-0.5,0.5-0.5h2.8c0.3,0,0.5,0.2,0.5,0.5v2.8
		C193.6,70.2,193.4,70.4,193.1,70.4z M190.8,69.4h1.8v-1.8h-1.8V69.4z"/>
	<path class="st0" d="M69.7,70.4h-2.8c-0.3,0-0.5-0.2-0.5-0.5v-2.8c0-0.3,0.2-0.5,0.5-0.5h2.8c0.3,0,0.5,0.2,0.5,0.5v2.8
		C70.2,70.2,70,70.4,69.7,70.4z M67.4,69.4h1.8v-1.8h-1.8V69.4z"/>
	<path class="st0" d="M90.7,49.4h-2.8c-0.3,0-0.5-0.2-0.5-0.5v-2.8c0-0.3,0.2-0.5,0.5-0.5h2.8c0.3,0,0.5,0.2,0.5,0.5v2.8
		C91.2,49.2,91,49.4,90.7,49.4z M88.4,48.4h1.8v-1.8h-1.8V48.4z"/>
	<path class="st0" d="M110.7,49.4h-2.8c-0.3,0-0.5-0.2-0.5-0.5v-2.8c0-0.3,0.2-0.5,0.5-0.5h2.8c0.3,0,0.5,0.2,0.5,0.5v2.8
		C111.2,49.2,111,49.4,110.7,49.4z M108.4,48.4h1.8v-1.8h-1.8V48.4z"/>
	<path class="st0" d="M152.6,151v2.8c0,0.3-0.2,0.5-0.5,0.5h-2.8c-0.3,0-0.5-0.2-0.5-0.5V151c0-0.3,0.2-0.5,0.5-0.5h2.8
		C152.4,150.5,152.6,150.7,152.6,151z M149.8,153.3h1.8v-1.8h-1.8V153.3z"/>
	<path class="st0" d="M172.6,151v2.8c0,0.3-0.2,0.5-0.5,0.5h-2.8c-0.3,0-0.5-0.2-0.5-0.5V151c0-0.3,0.2-0.5,0.5-0.5h2.8
		C172.4,150.5,172.6,150.7,172.6,151z M169.8,153.3h1.8v-1.8h-1.8V153.3z"/>
	<path class="st0" d="M193.6,151v2.8c0,0.3-0.2,0.5-0.5,0.5h-2.8c-0.3,0-0.5-0.2-0.5-0.5V151c0-0.3,0.2-0.5,0.5-0.5h2.8
		C193.4,150.5,193.6,150.7,193.6,151z M190.8,153.3h1.8v-1.8h-1.8V153.3z"/>
	<path class="st0" d="M70.2,151v2.8c0,0.3-0.2,0.5-0.5,0.5h-2.8c-0.3,0-0.5-0.2-0.5-0.5V151c0-0.3,0.2-0.5,0.5-0.5h2.8
		C70,150.5,70.2,150.7,70.2,151z M67.4,153.3h1.8v-1.8h-1.8V153.3z"/>
	<path class="st0" d="M193.6,130v2.8c0,0.3-0.2,0.5-0.5,0.5h-2.8c-0.3,0-0.5-0.2-0.5-0.5V130c0-0.3,0.2-0.5,0.5-0.5h2.8
		C193.4,129.5,193.6,129.7,193.6,130z M190.8,132.3h1.8v-1.8h-1.8V132.3z"/>
	<path class="st0" d="M70.2,130v2.8c0,0.3-0.2,0.5-0.5,0.5h-2.8c-0.3,0-0.5-0.2-0.5-0.5V130c0-0.3,0.2-0.5,0.5-0.5h2.8
		C70,129.5,70.2,129.7,70.2,130z M67.4,132.3h1.8v-1.8h-1.8V132.3z"/>
	<path class="st0" d="M91.2,151v2.8c0,0.3-0.2,0.5-0.5,0.5h-2.8c-0.3,0-0.5-0.2-0.5-0.5V151c0-0.3,0.2-0.5,0.5-0.5h2.8
		C91,150.5,91.2,150.7,91.2,151z M88.4,153.3h1.8v-1.8h-1.8V153.3z"/>
	<path class="st0" d="M111.2,151v2.8c0,0.3-0.2,0.5-0.5,0.5h-2.8c-0.3,0-0.5-0.2-0.5-0.5V151c0-0.3,0.2-0.5,0.5-0.5h2.8
		C111,150.5,111.2,150.7,111.2,151z M108.4,153.3h1.8v-1.8h-1.8V153.3z"/>
</g>
<g id="_x33_">
	<path class="st0" d="M153.1,50.4h-4.8c-0.3,0-0.5-0.2-0.5-0.5v-4.8c0-0.3,0.2-0.5,0.5-0.5h4.8c0.3,0,0.5,0.2,0.5,0.5v4.8
		C153.6,50.2,153.4,50.4,153.1,50.4z M148.8,49.4h3.8v-3.8h-3.8V49.4z"/>
	<path class="st0" d="M173.1,50.4h-4.8c-0.3,0-0.5-0.2-0.5-0.5v-4.8c0-0.3,0.2-0.5,0.5-0.5h4.8c0.3,0,0.5,0.2,0.5,0.5v4.8
		C173.6,50.2,173.4,50.4,173.1,50.4z M168.8,49.4h3.8v-3.8h-3.8V49.4z"/>
	<path class="st0" d="M194.1,50.4h-4.8c-0.3,0-0.5-0.2-0.5-0.5v-4.8c0-0.3,0.2-0.5,0.5-0.5h4.8c0.3,0,0.5,0.2,0.5,0.5v4.8
		C194.6,50.2,194.4,50.4,194.1,50.4z M189.8,49.4h3.8v-3.8h-3.8V49.4z"/>
	<path class="st0" d="M70.7,50.4h-4.8c-0.3,0-0.5-0.2-0.5-0.5v-4.8c0-0.3,0.2-0.5,0.5-0.5h4.8c0.3,0,0.5,0.2,0.5,0.5v4.8
		C71.2,50.2,71,50.4,70.7,50.4z M66.4,49.4h3.8v-3.8h-3.8V49.4z"/>
	<path class="st0" d="M194.1,71.4h-4.8c-0.3,0-0.5-0.2-0.5-0.5v-4.8c0-0.3,0.2-0.5,0.5-0.5h4.8c0.3,0,0.5,0.2,0.5,0.5v4.8
		C194.6,71.2,194.4,71.4,194.1,71.4z M189.8,70.4h3.8v-3.8h-3.8V70.4z"/>
	<path class="st0" d="M70.7,71.4h-4.8c-0.3,0-0.5-0.2-0.5-0.5v-4.8c0-0.3,0.2-0.5,0.5-0.5h4.8c0.3,0,0.5,0.2,0.5,0.5v4.8
		C71.2,71.2,71,71.4,70.7,71.4z M66.4,70.4h3.8v-3.8h-3.8V70.4z"/>
	<path class="st0" d="M91.7,50.4h-4.8c-0.3,0-0.5-0.2-0.5-0.5v-4.8c0-0.3,0.2-0.5,0.5-0.5h4.8c0.3,0,0.5,0.2,0.5,0.5v4.8
		C92.2,50.2,92,50.4,91.7,50.4z M87.4,49.4h3.8v-3.8h-3.8V49.4z"/>
	<path class="st0" d="M111.7,50.4h-4.8c-0.3,0-0.5-0.2-0.5-0.5v-4.8c0-0.3,0.2-0.5,0.5-0.5h4.8c0.3,0,0.5,0.2,0.5,0.5v4.8
		C112.2,50.2,112,50.4,111.7,50.4z M107.4,49.4h3.8v-3.8h-3.8V49.4z"/>
	<path class="st0" d="M153.6,150v4.8c0,0.3-0.2,0.5-0.5,0.5h-4.8c-0.3,0-0.5-0.2-0.5-0.5V150c0-0.3,0.2-0.5,0.5-0.5h4.8
		C153.4,149.5,153.6,149.7,153.6,150z M148.8,154.3h3.8v-3.8h-3.8V154.3z"/>
	<path class="st0" d="M173.6,150v4.8c0,0.3-0.2,0.5-0.5,0.5h-4.8c-0.3,0-0.5-0.2-0.5-0.5V150c0-0.3,0.2-0.5,0.5-0.5h4.8
		C173.4,149.5,173.6,149.7,173.6,150z M168.8,154.3h3.8v-3.8h-3.8V154.3z"/>
	<path class="st0" d="M194.6,150v4.8c0,0.3-0.2,0.5-0.5,0.5h-4.8c-0.3,0-0.5-0.2-0.5-0.5V150c0-0.3,0.2-0.5,0.5-0.5h4.8
		C194.4,149.5,194.6,149.7,194.6,150z M189.8,154.3h3.8v-3.8h-3.8V154.3z"/>
	<path class="st0" d="M71.2,150v4.8c0,0.3-0.2,0.5-0.5,0.5h-4.8c-0.3,0-0.5-0.2-0.5-0.5V150c0-0.3,0.2-0.5,0.5-0.5h4.8
		C71,149.5,71.2,149.7,71.2,150z M66.4,154.3h3.8v-3.8h-3.8V154.3z"/>
	<path class="st0" d="M194.6,129v4.8c0,0.3-0.2,0.5-0.5,0.5h-4.8c-0.3,0-0.5-0.2-0.5-0.5V129c0-0.3,0.2-0.5,0.5-0.5h4.8
		C194.4,128.5,194.6,128.7,194.6,129z M189.8,133.3h3.8v-3.8h-3.8V133.3z"/>
	<path class="st0" d="M71.2,129v4.8c0,0.3-0.2,0.5-0.5,0.5h-4.8c-0.3,0-0.5-0.2-0.5-0.5V129c0-0.3,0.2-0.5,0.5-0.5h4.8
		C71,128.5,71.2,128.7,71.2,129z M66.4,133.3h3.8v-3.8h-3.8V133.3z"/>
	<path class="st0" d="M92.2,150v4.8c0,0.3-0.2,0.5-0.5,0.5h-4.8c-0.3,0-0.5-0.2-0.5-0.5V150c0-0.3,0.2-0.5,0.5-0.5h4.8
		C92,149.5,92.2,149.7,92.2,150z M87.4,154.3h3.8v-3.8h-3.8V154.3z"/>
	<path class="st0" d="M112.2,150v4.8c0,0.3-0.2,0.5-0.5,0.5h-4.8c-0.3,0-0.5-0.2-0.5-0.5V150c0-0.3,0.2-0.5,0.5-0.5h4.8
		C112,149.5,112.2,149.7,112.2,150z M107.4,154.3h3.8v-3.8h-3.8V154.3z"/>
</g>
<g id="_x34_">
	<path class="st0" d="M154.1,51.4h-6.8c-0.3,0-0.5-0.2-0.5-0.5v-6.8c0-0.3,0.2-0.5,0.5-0.5h6.8c0.3,0,0.5,0.2,0.5,0.5v6.8
		C154.6,51.2,154.4,51.4,154.1,51.4z M147.8,50.4h5.8v-5.8h-5.8V50.4z"/>
	<path class="st0" d="M174.1,51.4h-6.8c-0.3,0-0.5-0.2-0.5-0.5v-6.8c0-0.3,0.2-0.5,0.5-0.5h6.8c0.3,0,0.5,0.2,0.5,0.5v6.8
		C174.6,51.2,174.4,51.4,174.1,51.4z M167.8,50.4h5.8v-5.8h-5.8V50.4z"/>
	<path class="st0" d="M195.1,51.4h-6.8c-0.3,0-0.5-0.2-0.5-0.5v-6.8c0-0.3,0.2-0.5,0.5-0.5h6.8c0.3,0,0.5,0.2,0.5,0.5v6.8
		C195.6,51.2,195.4,51.4,195.1,51.4z M188.8,50.4h5.8v-5.8h-5.8V50.4z"/>
	<path class="st0" d="M71.7,51.4h-6.8c-0.3,0-0.5-0.2-0.5-0.5v-6.8c0-0.3,0.2-0.5,0.5-0.5h6.8c0.3,0,0.5,0.2,0.5,0.5v6.8
		C72.2,51.2,72,51.4,71.7,51.4z M65.4,50.4h5.8v-5.8h-5.8V50.4z"/>
	<path class="st0" d="M195.1,72.4h-6.8c-0.3,0-0.5-0.2-0.5-0.5v-6.8c0-0.3,0.2-0.5,0.5-0.5h6.8c0.3,0,0.5,0.2,0.5,0.5v6.8
		C195.6,72.2,195.4,72.4,195.1,72.4z M188.8,71.4h5.8v-5.8h-5.8V71.4z"/>
	<path class="st0" d="M71.7,72.4h-6.8c-0.3,0-0.5-0.2-0.5-0.5v-6.8c0-0.3,0.2-0.5,0.5-0.5h6.8c0.3,0,0.5,0.2,0.5,0.5v6.8
		C72.2,72.2,72,72.4,71.7,72.4z M65.4,71.4h5.8v-5.8h-5.8V71.4z"/>
	<path class="st0" d="M92.7,51.4h-6.8c-0.3,0-0.5-0.2-0.5-0.5v-6.8c0-0.3,0.2-0.5,0.5-0.5h6.8c0.3,0,0.5,0.2,0.5,0.5v6.8
		C93.2,51.2,93,51.4,92.7,51.4z M86.4,50.4h5.8v-5.8h-5.8V50.4z"/>
	<path class="st0" d="M112.7,51.4h-6.8c-0.3,0-0.5-0.2-0.5-0.5v-6.8c0-0.3,0.2-0.5,0.5-0.5h6.8c0.3,0,0.5,0.2,0.5,0.5v6.8
		C113.2,51.2,113,51.4,112.7,51.4z M106.4,50.4h5.8v-5.8h-5.8V50.4z"/>
	<path class="st0" d="M154.6,149v6.8c0,0.3-0.2,0.5-0.5,0.5h-6.8c-0.3,0-0.5-0.2-0.5-0.5V149c0-0.3,0.2-0.5,0.5-0.5h6.8
		C154.4,148.5,154.6,148.7,154.6,149z M147.8,155.3h5.8v-5.8h-5.8V155.3z"/>
	<path class="st0" d="M174.6,149v6.8c0,0.3-0.2,0.5-0.5,0.5h-6.8c-0.3,0-0.5-0.2-0.5-0.5V149c0-0.3,0.2-0.5,0.5-0.5h6.8
		C174.4,148.5,174.6,148.7,174.6,149z M167.8,155.3h5.8v-5.8h-5.8V155.3z"/>
	<path class="st0" d="M195.6,149v6.8c0,0.3-0.2,0.5-0.5,0.5h-6.8c-0.3,0-0.5-0.2-0.5-0.5V149c0-0.3,0.2-0.5,0.5-0.5h6.8
		C195.4,148.5,195.6,148.7,195.6,149z M188.8,155.3h5.8v-5.8h-5.8V155.3z"/>
	<path class="st0" d="M72.2,149v6.8c0,0.3-0.2,0.5-0.5,0.5h-6.8c-0.3,0-0.5-0.2-0.5-0.5V149c0-0.3,0.2-0.5,0.5-0.5h6.8
		C72,148.5,72.2,148.7,72.2,149z M65.4,155.3h5.8v-5.8h-5.8V155.3z"/>
	<path class="st0" d="M195.6,128v6.8c0,0.3-0.2,0.5-0.5,0.5h-6.8c-0.3,0-0.5-0.2-0.5-0.5V128c0-0.3,0.2-0.5,0.5-0.5h6.8
		C195.4,127.5,195.6,127.7,195.6,128z M188.8,134.3h5.8v-5.8h-5.8V134.3z"/>
	<path class="st0" d="M72.2,128v6.8c0,0.3-0.2,0.5-0.5,0.5h-6.8c-0.3,0-0.5-0.2-0.5-0.5V128c0-0.3,0.2-0.5,0.5-0.5h6.8
		C72,127.5,72.2,127.7,72.2,128z M65.4,134.3h5.8v-5.8h-5.8V134.3z"/>
	<path class="st0" d="M93.2,149v6.8c0,0.3-0.2,0.5-0.5,0.5h-6.8c-0.3,0-0.5-0.2-0.5-0.5V149c0-0.3,0.2-0.5,0.5-0.5h6.8
		C93,148.5,93.2,148.7,93.2,149z M86.4,155.3h5.8v-5.8h-5.8V155.3z"/>
	<path class="st0" d="M113.2,149v6.8c0,0.3-0.2,0.5-0.5,0.5h-6.8c-0.3,0-0.5-0.2-0.5-0.5V149c0-0.3,0.2-0.5,0.5-0.5h6.8
		C113,148.5,113.2,148.7,113.2,149z M106.4,155.3h5.8v-5.8h-5.8V155.3z"/>
</g>
<g id="_x35_">
	<path class="st0" d="M155.1,52.4h-8.8c-0.3,0-0.5-0.2-0.5-0.5v-8.8c0-0.3,0.2-0.5,0.5-0.5h8.8c0.3,0,0.5,0.2,0.5,0.5v8.8
		C155.6,52.2,155.4,52.4,155.1,52.4z M146.8,51.4h7.8v-7.8h-7.8V51.4z"/>
	<path class="st0" d="M175.1,52.4h-8.8c-0.3,0-0.5-0.2-0.5-0.5v-8.8c0-0.3,0.2-0.5,0.5-0.5h8.8c0.3,0,0.5,0.2,0.5,0.5v8.8
		C175.6,52.2,175.4,52.4,175.1,52.4z M166.8,51.4h7.8v-7.8h-7.8V51.4z"/>
	<path class="st0" d="M196.1,52.4h-8.8c-0.3,0-0.5-0.2-0.5-0.5v-8.8c0-0.3,0.2-0.5,0.5-0.5h8.8c0.3,0,0.5,0.2,0.5,0.5v8.8
		C196.6,52.2,196.4,52.4,196.1,52.4z M187.8,51.4h7.8v-7.8h-7.8V51.4z"/>
	<path class="st0" d="M72.7,52.4h-8.8c-0.3,0-0.5-0.2-0.5-0.5v-8.8c0-0.3,0.2-0.5,0.5-0.5h8.8c0.3,0,0.5,0.2,0.5,0.5v8.8
		C73.2,52.2,73,52.4,72.7,52.4z M64.4,51.4h7.8v-7.8h-7.8V51.4z"/>
	<path class="st0" d="M196.1,73.4h-8.8c-0.3,0-0.5-0.2-0.5-0.5v-8.8c0-0.3,0.2-0.5,0.5-0.5h8.8c0.3,0,0.5,0.2,0.5,0.5v8.8
		C196.6,73.2,196.4,73.4,196.1,73.4z M187.8,72.4h7.8v-7.8h-7.8V72.4z"/>
	<path class="st0" d="M72.7,73.4h-8.8c-0.3,0-0.5-0.2-0.5-0.5v-8.8c0-0.3,0.2-0.5,0.5-0.5h8.8c0.3,0,0.5,0.2,0.5,0.5v8.8
		C73.2,73.2,73,73.4,72.7,73.4z M64.4,72.4h7.8v-7.8h-7.8V72.4z"/>
	<path class="st0" d="M93.7,52.4h-8.8c-0.3,0-0.5-0.2-0.5-0.5v-8.8c0-0.3,0.2-0.5,0.5-0.5h8.8c0.3,0,0.5,0.2,0.5,0.5v8.8
		C94.2,52.2,94,52.4,93.7,52.4z M85.4,51.4h7.8v-7.8h-7.8V51.4z"/>
	<path class="st0" d="M113.7,52.4h-8.8c-0.3,0-0.5-0.2-0.5-0.5v-8.8c0-0.3,0.2-0.5,0.5-0.5h8.8c0.3,0,0.5,0.2,0.5,0.5v8.8
		C114.2,52.2,114,52.4,113.7,52.4z M105.4,51.4h7.8v-7.8h-7.8V51.4z"/>
	<path class="st0" d="M155.6,148v8.8c0,0.3-0.2,0.5-0.5,0.5h-8.8c-0.3,0-0.5-0.2-0.5-0.5V148c0-0.3,0.2-0.5,0.5-0.5h8.8
		C155.4,147.5,155.6,147.7,155.6,148z M146.8,156.3h7.8v-7.8h-7.8V156.3z"/>
	<path class="st0" d="M175.6,148v8.8c0,0.3-0.2,0.5-0.5,0.5h-8.8c-0.3,0-0.5-0.2-0.5-0.5V148c0-0.3,0.2-0.5,0.5-0.5h8.8
		C175.4,147.5,175.6,147.7,175.6,148z M166.8,156.3h7.8v-7.8h-7.8V156.3z"/>
	<path class="st0" d="M196.6,148v8.8c0,0.3-0.2,0.5-0.5,0.5h-8.8c-0.3,0-0.5-0.2-0.5-0.5V148c0-0.3,0.2-0.5,0.5-0.5h8.8
		C196.4,147.5,196.6,147.7,196.6,148z M187.8,156.3h7.8v-7.8h-7.8V156.3z"/>
	<path class="st0" d="M73.2,148v8.8c0,0.3-0.2,0.5-0.5,0.5h-8.8c-0.3,0-0.5-0.2-0.5-0.5V148c0-0.3,0.2-0.5,0.5-0.5h8.8
		C73,147.5,73.2,147.7,73.2,148z M64.4,156.3h7.8v-7.8h-7.8V156.3z"/>
	<path class="st0" d="M196.6,127v8.8c0,0.3-0.2,0.5-0.5,0.5h-8.8c-0.3,0-0.5-0.2-0.5-0.5V127c0-0.3,0.2-0.5,0.5-0.5h8.8
		C196.4,126.5,196.6,126.7,196.6,127z M187.8,135.3h7.8v-7.8h-7.8V135.3z"/>
	<path class="st0" d="M73.2,127v8.8c0,0.3-0.2,0.5-0.5,0.5h-8.8c-0.3,0-0.5-0.2-0.5-0.5V127c0-0.3,0.2-0.5,0.5-0.5h8.8
		C73,126.5,73.2,126.7,73.2,127z M64.4,135.3h7.8v-7.8h-7.8V135.3z"/>
	<path class="st0" d="M94.2,148v8.8c0,0.3-0.2,0.5-0.5,0.5h-8.8c-0.3,0-0.5-0.2-0.5-0.5V148c0-0.3,0.2-0.5,0.5-0.5h8.8
		C94,147.5,94.2,147.7,94.2,148z M85.4,156.3h7.8v-7.8h-7.8V156.3z"/>
	<path class="st0" d="M114.2,148v8.8c0,0.3-0.2,0.5-0.5,0.5h-8.8c-0.3,0-0.5-0.2-0.5-0.5V148c0-0.3,0.2-0.5,0.5-0.5h8.8
		C114,147.5,114.2,147.7,114.2,148z M105.4,156.3h7.8v-7.8h-7.8V156.3z"/>
</g>
</svg>
