<?xml version="1.0" encoding="utf-8"?>
<!-- Generator: Adobe Illustrator 25.1.0, SVG Export Plug-In . SVG Version: 6.00 Build 0)  -->
<svg version="1.1" id="animated" xmlns="http://www.w3.org/2000/svg" xmlns:xlink="http://www.w3.org/1999/xlink" x="0px" y="0px"
	 viewBox="0 0 400 420" style="enable-background:new 0 0 400 420;" xml:space="preserve">
<style type="text/css">
	.st0{fill:#6CB8C7;}
</style>
<g id="_x31__2_">
	<path class="st0" d="M324.1,55.4h-0.8c-0.3,0-0.5-0.2-0.5-0.5v-0.8c0-0.3,0.2-0.5,0.5-0.5h0.8c0.3,0,0.5,0.2,0.5,0.5v0.8
		C324.6,55.2,324.4,55.4,324.1,55.4z M323.8,54.4h-0.2v0.2h0.2V54.4z"/>
	<path class="st0" d="M76.7,55.4h-0.8c-0.3,0-0.5-0.2-0.5-0.5v-0.8c0-0.3,0.2-0.5,0.5-0.5h0.8c0.3,0,0.5,0.2,0.5,0.5v0.8
		C77.2,55.2,77,55.4,76.7,55.4z M76.4,54.4h-0.2v0.2h0.2V54.4z"/>
	<path class="st0" d="M304.1,34.4h-0.8c-0.3,0-0.5-0.2-0.5-0.5v-0.8c0-0.3,0.2-0.5,0.5-0.5h0.8c0.3,0,0.5,0.2,0.5,0.5v0.8
		C304.6,34.2,304.4,34.4,304.1,34.4z M303.8,33.4h-0.2v0.2h0.2V33.4z"/>
	<path class="st0" d="M96.7,34.4h-0.8c-0.3,0-0.5-0.2-0.5-0.5v-0.8c0-0.3,0.2-0.5,0.5-0.5h0.8c0.3,0,0.5,0.2,0.5,0.5v0.8
		C97.2,34.2,97,34.4,96.7,34.4z M96.4,33.4h-0.2v0.2h0.2V33.4z"/>
	<path class="st0" d="M345.1,76.4h-0.8c-0.3,0-0.5-0.2-0.5-0.5v-0.8c0-0.3,0.2-0.5,0.5-0.5h0.8c0.3,0,0.5,0.2,0.5,0.5v0.8
		C345.6,76.2,345.4,76.4,345.1,76.4z M344.8,75.4h-0.2v0.2h0.2V75.4z"/>
	<path class="st0" d="M55.7,76.4h-0.8c-0.3,0-0.5-0.2-0.5-0.5v-0.8c0-0.3,0.2-0.5,0.5-0.5h0.8c0.3,0,0.5,0.2,0.5,0.5v0.8
		C56.2,76.2,56,76.4,55.7,76.4z M55.4,75.4h-0.2v0.2h0.2V75.4z"/>
	<path class="st0" d="M386.1,117.4h-0.8c-0.3,0-0.5-0.2-0.5-0.5v-0.8c0-0.3,0.2-0.5,0.5-0.5h0.8c0.3,0,0.5,0.2,0.5,0.5v0.8
		C386.6,117.2,386.4,117.4,386.1,117.4z M385.8,116.4h-0.2v0.2h0.2V116.4z"/>
	<path class="st0" d="M14.7,117.4h-0.8c-0.3,0-0.5-0.2-0.5-0.5v-0.8c0-0.3,0.2-0.5,0.5-0.5h0.8c0.3,0,0.5,0.2,0.5,0.5v0.8
		C15.2,117.2,15,117.4,14.7,117.4z M14.4,116.4h-0.2v0.2h0.2V116.4z"/>
	<path class="st0" d="M283.1,13.4h-0.8c-0.3,0-0.5-0.2-0.5-0.5v-0.8c0-0.3,0.2-0.5,0.5-0.5h0.8c0.3,0,0.5,0.2,0.5,0.5v0.8
		C283.6,13.2,283.4,13.4,283.1,13.4z M282.8,12.4h-0.2v0.2h0.2V12.4z"/>
	<path class="st0" d="M283.6,407.1v0.8c0,0.3-0.2,0.5-0.5,0.5h-0.8c-0.3,0-0.5-0.2-0.5-0.5v-0.8c0-0.3,0.2-0.5,0.5-0.5h0.8
		C283.4,406.6,283.6,406.8,283.6,407.1z M282.8,407.4h-0.2v0.2h0.2V407.4z"/>
	<path class="st0" d="M324.6,365v0.8c0,0.3-0.2,0.5-0.5,0.5h-0.8c-0.3,0-0.5-0.2-0.5-0.5V365c0-0.3,0.2-0.5,0.5-0.5h0.8
		C324.4,364.5,324.6,364.7,324.6,365z M323.8,365.3h-0.2v0.2h0.2V365.3z"/>
	<path class="st0" d="M77.2,365v0.8c0,0.3-0.2,0.5-0.5,0.5h-0.8c-0.3,0-0.5-0.2-0.5-0.5V365c0-0.3,0.2-0.5,0.5-0.5h0.8
		C77,364.5,77.2,364.7,77.2,365z M76.4,365.3h-0.2v0.2h0.2V365.3z"/>
	<path class="st0" d="M304.6,386v0.8c0,0.3-0.2,0.5-0.5,0.5h-0.8c-0.3,0-0.5-0.2-0.5-0.5V386c0-0.3,0.2-0.5,0.5-0.5h0.8
		C304.4,385.5,304.6,385.7,304.6,386z M303.8,386.3h-0.2v0.2h0.2V386.3z"/>
	<path class="st0" d="M97.2,386v0.8c0,0.3-0.2,0.5-0.5,0.5h-0.8c-0.3,0-0.5-0.2-0.5-0.5V386c0-0.3,0.2-0.5,0.5-0.5h0.8
		C97,385.5,97.2,385.7,97.2,386z M96.4,386.3h-0.2v0.2h0.2V386.3z"/>
	<path class="st0" d="M345.6,344v0.8c0,0.3-0.2,0.5-0.5,0.5h-0.8c-0.3,0-0.5-0.2-0.5-0.5V344c0-0.3,0.2-0.5,0.5-0.5h0.8
		C345.4,343.5,345.6,343.7,345.6,344z M344.8,344.3h-0.2v0.2h0.2V344.3z"/>
	<path class="st0" d="M366.1,96.4h-0.8c-0.3,0-0.5-0.2-0.5-0.5v-0.8c0-0.3,0.2-0.5,0.5-0.5h0.8c0.3,0,0.5,0.2,0.5,0.5v0.8
		C366.6,96.2,366.4,96.4,366.1,96.4z M365.8,95.4h-0.2v0.2h0.2V95.4z"/>
	<path class="st0" d="M366.6,324v0.8c0,0.3-0.2,0.5-0.5,0.5h-0.8c-0.3,0-0.5-0.2-0.5-0.5V324c0-0.3,0.2-0.5,0.5-0.5h0.8
		C366.4,323.5,366.6,323.7,366.6,324z M365.8,324.3h-0.2v0.2h0.2V324.3z"/>
	<path class="st0" d="M56.2,344v0.8c0,0.3-0.2,0.5-0.5,0.5h-0.8c-0.3,0-0.5-0.2-0.5-0.5V344c0-0.3,0.2-0.5,0.5-0.5h0.8
		C56,343.5,56.2,343.7,56.2,344z M55.4,344.3h-0.2v0.2h0.2V344.3z"/>
	<path class="st0" d="M34.7,96.4h-0.8c-0.3,0-0.5-0.2-0.5-0.5v-0.8c0-0.3,0.2-0.5,0.5-0.5h0.8c0.3,0,0.5,0.2,0.5,0.5v0.8
		C35.2,96.2,35,96.4,34.7,96.4z M34.4,95.4h-0.2v0.2h0.2V95.4z"/>
	<path class="st0" d="M35.2,324v0.8c0,0.3-0.2,0.5-0.5,0.5h-0.8c-0.3,0-0.5-0.2-0.5-0.5V324c0-0.3,0.2-0.5,0.5-0.5h0.8
		C35,323.5,35.2,323.7,35.2,324z M34.4,324.3h-0.2v0.2h0.2V324.3z"/>
	<path class="st0" d="M386.6,303v0.8c0,0.3-0.2,0.5-0.5,0.5h-0.8c-0.3,0-0.5-0.2-0.5-0.5V303c0-0.3,0.2-0.5,0.5-0.5h0.8
		C386.4,302.5,386.6,302.7,386.6,303z M385.8,303.3h-0.2v0.2h0.2V303.3z"/>
	<path class="st0" d="M15.2,303v0.8c0,0.3-0.2,0.5-0.5,0.5h-0.8c-0.3,0-0.5-0.2-0.5-0.5V303c0-0.3,0.2-0.5,0.5-0.5h0.8
		C15,302.5,15.2,302.7,15.2,303z M14.4,303.3h-0.2v0.2h0.2V303.3z"/>
	<path class="st0" d="M117.7,13.4h-0.8c-0.3,0-0.5-0.2-0.5-0.5v-0.8c0-0.3,0.2-0.5,0.5-0.5h0.8c0.3,0,0.5,0.2,0.5,0.5v0.8
		C118.2,13.2,118,13.4,117.7,13.4z M117.4,12.4h-0.2v0.2h0.2V12.4z"/>
	<path class="st0" d="M118.2,407.1v0.8c0,0.3-0.2,0.5-0.5,0.5h-0.8c-0.3,0-0.5-0.2-0.5-0.5v-0.8c0-0.3,0.2-0.5,0.5-0.5h0.8
		C118,406.6,118.2,406.8,118.2,407.1z M117.4,407.4h-0.2v0.2h0.2V407.4z"/>
</g>
<g id="_x32_">
	<path class="st0" d="M325.1,56.4h-2.8c-0.3,0-0.5-0.2-0.5-0.5v-2.8c0-0.3,0.2-0.5,0.5-0.5h2.8c0.3,0,0.5,0.2,0.5,0.5v2.8
		C325.6,56.2,325.4,56.4,325.1,56.4z M322.8,55.4h1.8v-1.8h-1.8V55.4z"/>
	<path class="st0" d="M77.7,56.4h-2.8c-0.3,0-0.5-0.2-0.5-0.5v-2.8c0-0.3,0.2-0.5,0.5-0.5h2.8c0.3,0,0.5,0.2,0.5,0.5v2.8
		C78.2,56.2,78,56.4,77.7,56.4z M75.4,55.4h1.8v-1.8h-1.8V55.4z"/>
	<path class="st0" d="M305.1,35.4h-2.8c-0.3,0-0.5-0.2-0.5-0.5v-2.8c0-0.3,0.2-0.5,0.5-0.5h2.8c0.3,0,0.5,0.2,0.5,0.5v2.8
		C305.6,35.2,305.4,35.4,305.1,35.4z M302.8,34.4h1.8v-1.8h-1.8V34.4z"/>
	<path class="st0" d="M97.7,35.4h-2.8c-0.3,0-0.5-0.2-0.5-0.5v-2.8c0-0.3,0.2-0.5,0.5-0.5h2.8c0.3,0,0.5,0.2,0.5,0.5v2.8
		C98.2,35.2,98,35.4,97.7,35.4z M95.4,34.4h1.8v-1.8h-1.8V34.4z"/>
	<path class="st0" d="M346.1,77.4h-2.8c-0.3,0-0.5-0.2-0.5-0.5v-2.8c0-0.3,0.2-0.5,0.5-0.5h2.8c0.3,0,0.5,0.2,0.5,0.5v2.8
		C346.6,77.2,346.4,77.4,346.1,77.4z M343.8,76.4h1.8v-1.8h-1.8V76.4z"/>
	<path class="st0" d="M56.7,77.4h-2.8c-0.3,0-0.5-0.2-0.5-0.5v-2.8c0-0.3,0.2-0.5,0.5-0.5h2.8c0.3,0,0.5,0.2,0.5,0.5v2.8
		C57.2,77.2,57,77.4,56.7,77.4z M54.4,76.4h1.8v-1.8h-1.8V76.4z"/>
	<path class="st0" d="M367.1,97.4h-2.8c-0.3,0-0.5-0.2-0.5-0.5v-2.8c0-0.3,0.2-0.5,0.5-0.5h2.8c0.3,0,0.5,0.2,0.5,0.5v2.8
		C367.6,97.2,367.4,97.4,367.1,97.4z M364.8,96.4h1.8v-1.8h-1.8V96.4z"/>
	<path class="st0" d="M35.7,97.4h-2.8c-0.3,0-0.5-0.2-0.5-0.5v-2.8c0-0.3,0.2-0.5,0.5-0.5h2.8c0.3,0,0.5,0.2,0.5,0.5v2.8
		C36.2,97.2,36,97.4,35.7,97.4z M33.4,96.4h1.8v-1.8h-1.8V96.4z"/>
	<path class="st0" d="M387.1,118.4h-2.8c-0.3,0-0.5-0.2-0.5-0.5v-2.8c0-0.3,0.2-0.5,0.5-0.5h2.8c0.3,0,0.5,0.2,0.5,0.5v2.8
		C387.6,118.2,387.4,118.4,387.1,118.4z M384.8,117.4h1.8v-1.8h-1.8V117.4z"/>
	<path class="st0" d="M15.7,118.4h-2.8c-0.3,0-0.5-0.2-0.5-0.5v-2.8c0-0.3,0.2-0.5,0.5-0.5h2.8c0.3,0,0.5,0.2,0.5,0.5v2.8
		C16.2,118.2,16,118.4,15.7,118.4z M13.4,117.4h1.8v-1.8h-1.8V117.4z"/>
	<path class="st0" d="M284.1,14.4h-2.8c-0.3,0-0.5-0.2-0.5-0.5v-2.8c0-0.3,0.2-0.5,0.5-0.5h2.8c0.3,0,0.5,0.2,0.5,0.5v2.8
		C284.6,14.2,284.4,14.4,284.1,14.4z M281.8,13.4h1.8v-1.8h-1.8V13.4z"/>
	<path class="st0" d="M284.6,406.1v2.8c0,0.3-0.2,0.5-0.5,0.5h-2.8c-0.3,0-0.5-0.2-0.5-0.5v-2.8c0-0.3,0.2-0.5,0.5-0.5h2.8
		C284.4,405.6,284.6,405.8,284.6,406.1z M281.8,408.4h1.8v-1.8h-1.8V408.4z"/>
	<path class="st0" d="M325.6,364v2.8c0,0.3-0.2,0.5-0.5,0.5h-2.8c-0.3,0-0.5-0.2-0.5-0.5V364c0-0.3,0.2-0.5,0.5-0.5h2.8
		C325.4,363.5,325.6,363.7,325.6,364z M322.8,366.3h1.8v-1.8h-1.8V366.3z"/>
	<path class="st0" d="M78.2,364v2.8c0,0.3-0.2,0.5-0.5,0.5h-2.8c-0.3,0-0.5-0.2-0.5-0.5V364c0-0.3,0.2-0.5,0.5-0.5h2.8
		C78,363.5,78.2,363.7,78.2,364z M75.4,366.3h1.8v-1.8h-1.8V366.3z"/>
	<path class="st0" d="M305.6,385v2.8c0,0.3-0.2,0.5-0.5,0.5h-2.8c-0.3,0-0.5-0.2-0.5-0.5V385c0-0.3,0.2-0.5,0.5-0.5h2.8
		C305.4,384.5,305.6,384.7,305.6,385z M302.8,387.3h1.8v-1.8h-1.8V387.3z"/>
	<path class="st0" d="M98.2,385v2.8c0,0.3-0.2,0.5-0.5,0.5h-2.8c-0.3,0-0.5-0.2-0.5-0.5V385c0-0.3,0.2-0.5,0.5-0.5h2.8
		C98,384.5,98.2,384.7,98.2,385z M95.4,387.3h1.8v-1.8h-1.8V387.3z"/>
	<path class="st0" d="M346.6,343v2.8c0,0.3-0.2,0.5-0.5,0.5h-2.8c-0.3,0-0.5-0.2-0.5-0.5V343c0-0.3,0.2-0.5,0.5-0.5h2.8
		C346.4,342.5,346.6,342.7,346.6,343z M343.8,345.3h1.8v-1.8h-1.8V345.3z"/>
	<path class="st0" d="M57.2,343v2.8c0,0.3-0.2,0.5-0.5,0.5h-2.8c-0.3,0-0.5-0.2-0.5-0.5V343c0-0.3,0.2-0.5,0.5-0.5h2.8
		C57,342.5,57.2,342.7,57.2,343z M54.4,345.3h1.8v-1.8h-1.8V345.3z"/>
	<path class="st0" d="M367.6,323v2.8c0,0.3-0.2,0.5-0.5,0.5h-2.8c-0.3,0-0.5-0.2-0.5-0.5V323c0-0.3,0.2-0.5,0.5-0.5h2.8
		C367.4,322.5,367.6,322.7,367.6,323z M364.8,325.3h1.8v-1.8h-1.8V325.3z"/>
	<path class="st0" d="M36.2,323v2.8c0,0.3-0.2,0.5-0.5,0.5h-2.8c-0.3,0-0.5-0.2-0.5-0.5V323c0-0.3,0.2-0.5,0.5-0.5h2.8
		C36,322.5,36.2,322.7,36.2,323z M33.4,325.3h1.8v-1.8h-1.8V325.3z"/>
	<path class="st0" d="M387.6,302v2.8c0,0.3-0.2,0.5-0.5,0.5h-2.8c-0.3,0-0.5-0.2-0.5-0.5V302c0-0.3,0.2-0.5,0.5-0.5h2.8
		C387.4,301.5,387.6,301.7,387.6,302z M384.8,304.3h1.8v-1.8h-1.8V304.3z"/>
	<path class="st0" d="M16.2,302v2.8c0,0.3-0.2,0.5-0.5,0.5h-2.8c-0.3,0-0.5-0.2-0.5-0.5V302c0-0.3,0.2-0.5,0.5-0.5h2.8
		C16,301.5,16.2,301.7,16.2,302z M13.4,304.3h1.8v-1.8h-1.8V304.3z"/>
	<path class="st0" d="M118.7,14.4h-2.8c-0.3,0-0.5-0.2-0.5-0.5v-2.8c0-0.3,0.2-0.5,0.5-0.5h2.8c0.3,0,0.5,0.2,0.5,0.5v2.8
		C119.2,14.2,119,14.4,118.7,14.4z M116.4,13.4h1.8v-1.8h-1.8V13.4z"/>
	<path class="st0" d="M119.2,406.1v2.8c0,0.3-0.2,0.5-0.5,0.5h-2.8c-0.3,0-0.5-0.2-0.5-0.5v-2.8c0-0.3,0.2-0.5,0.5-0.5h2.8
		C119,405.6,119.2,405.8,119.2,406.1z M116.4,408.4h1.8v-1.8h-1.8V408.4z"/>
</g>
<g id="_x33_">
	<path class="st0" d="M326.1,57.4h-4.8c-0.3,0-0.5-0.2-0.5-0.5v-4.8c0-0.3,0.2-0.5,0.5-0.5h4.8c0.3,0,0.5,0.2,0.5,0.5v4.8
		C326.6,57.2,326.4,57.4,326.1,57.4z M321.8,56.4h3.8v-3.8h-3.8V56.4z"/>
	<path class="st0" d="M78.7,57.4h-4.8c-0.3,0-0.5-0.2-0.5-0.5v-4.8c0-0.3,0.2-0.5,0.5-0.5h4.8c0.3,0,0.5,0.2,0.5,0.5v4.8
		C79.2,57.2,79,57.4,78.7,57.4z M74.4,56.4h3.8v-3.8h-3.8V56.4z"/>
	<path class="st0" d="M306.1,36.4h-4.8c-0.3,0-0.5-0.2-0.5-0.5v-4.8c0-0.3,0.2-0.5,0.5-0.5h4.8c0.3,0,0.5,0.2,0.5,0.5v4.8
		C306.6,36.2,306.4,36.4,306.1,36.4z M301.8,35.4h3.8v-3.8h-3.8V35.4z"/>
	<path class="st0" d="M98.7,36.4h-4.8c-0.3,0-0.5-0.2-0.5-0.5v-4.8c0-0.3,0.2-0.5,0.5-0.5h4.8c0.3,0,0.5,0.2,0.5,0.5v4.8
		C99.2,36.2,99,36.4,98.7,36.4z M94.4,35.4h3.8v-3.8h-3.8V35.4z"/>
	<path class="st0" d="M347.1,78.4h-4.8c-0.3,0-0.5-0.2-0.5-0.5v-4.8c0-0.3,0.2-0.5,0.5-0.5h4.8c0.3,0,0.5,0.2,0.5,0.5v4.8
		C347.6,78.2,347.4,78.4,347.1,78.4z M342.8,77.4h3.8v-3.8h-3.8V77.4z"/>
	<path class="st0" d="M57.7,78.4h-4.8c-0.3,0-0.5-0.2-0.5-0.5v-4.8c0-0.3,0.2-0.5,0.5-0.5h4.8c0.3,0,0.5,0.2,0.5,0.5v4.8
		C58.2,78.2,58,78.4,57.7,78.4z M53.4,77.4h3.8v-3.8h-3.8V77.4z"/>
	<path class="st0" d="M388.1,119.4h-4.8c-0.3,0-0.5-0.2-0.5-0.5v-4.8c0-0.3,0.2-0.5,0.5-0.5h4.8c0.3,0,0.5,0.2,0.5,0.5v4.8
		C388.6,119.2,388.4,119.4,388.1,119.4z M383.8,118.4h3.8v-3.8h-3.8V118.4z"/>
	<path class="st0" d="M16.7,119.4h-4.8c-0.3,0-0.5-0.2-0.5-0.5v-4.8c0-0.3,0.2-0.5,0.5-0.5h4.8c0.3,0,0.5,0.2,0.5,0.5v4.8
		C17.2,119.2,17,119.4,16.7,119.4z M12.4,118.4h3.8v-3.8h-3.8V118.4z"/>
	<path class="st0" d="M285.2,15.4h-4.8c-0.3,0-0.5-0.2-0.5-0.5v-4.8c0-0.3,0.2-0.5,0.5-0.5h4.8c0.3,0,0.5,0.2,0.5,0.5v4.8
		C285.7,15.2,285.5,15.4,285.2,15.4z M280.9,14.4h3.8v-3.8h-3.8V14.4z"/>
	<path class="st0" d="M285.7,405.1v4.8c0,0.3-0.2,0.5-0.5,0.5h-4.8c-0.3,0-0.5-0.2-0.5-0.5v-4.8c0-0.3,0.2-0.5,0.5-0.5h4.8
		C285.5,404.6,285.7,404.8,285.7,405.1z M280.9,409.4h3.8v-3.8h-3.8V409.4z"/>
	<path class="st0" d="M326.6,363v4.8c0,0.3-0.2,0.5-0.5,0.5h-4.8c-0.3,0-0.5-0.2-0.5-0.5V363c0-0.3,0.2-0.5,0.5-0.5h4.8
		C326.4,362.5,326.6,362.7,326.6,363z M321.8,367.3h3.8v-3.8h-3.8V367.3z"/>
	<path class="st0" d="M79.2,363v4.8c0,0.3-0.2,0.5-0.5,0.5h-4.8c-0.3,0-0.5-0.2-0.5-0.5V363c0-0.3,0.2-0.5,0.5-0.5h4.8
		C79,362.5,79.2,362.7,79.2,363z M74.4,367.3h3.8v-3.8h-3.8V367.3z"/>
	<path class="st0" d="M306.6,384v4.8c0,0.3-0.2,0.5-0.5,0.5h-4.8c-0.3,0-0.5-0.2-0.5-0.5V384c0-0.3,0.2-0.5,0.5-0.5h4.8
		C306.4,383.5,306.6,383.7,306.6,384z M301.8,388.3h3.8v-3.8h-3.8V388.3z"/>
	<path class="st0" d="M99.2,384v4.8c0,0.3-0.2,0.5-0.5,0.5h-4.8c-0.3,0-0.5-0.2-0.5-0.5V384c0-0.3,0.2-0.5,0.5-0.5h4.8
		C99,383.5,99.2,383.7,99.2,384z M94.4,388.3h3.8v-3.8h-3.8V388.3z"/>
	<path class="st0" d="M347.6,342v4.8c0,0.3-0.2,0.5-0.5,0.5h-4.8c-0.3,0-0.5-0.2-0.5-0.5V342c0-0.3,0.2-0.5,0.5-0.5h4.8
		C347.4,341.5,347.6,341.7,347.6,342z M342.8,346.3h3.8v-3.8h-3.8V346.3z"/>
	<path class="st0" d="M368.1,98.4h-4.8c-0.3,0-0.5-0.2-0.5-0.5v-4.8c0-0.3,0.2-0.5,0.5-0.5h4.8c0.3,0,0.5,0.2,0.5,0.5v4.8
		C368.6,98.2,368.4,98.4,368.1,98.4z M363.8,97.4h3.8v-3.8h-3.8V97.4z"/>
	<path class="st0" d="M368.6,322v4.8c0,0.3-0.2,0.5-0.5,0.5h-4.8c-0.3,0-0.5-0.2-0.5-0.5V322c0-0.3,0.2-0.5,0.5-0.5h4.8
		C368.4,321.5,368.6,321.7,368.6,322z M363.8,326.3h3.8v-3.8h-3.8V326.3z"/>
	<path class="st0" d="M58.2,342v4.8c0,0.3-0.2,0.5-0.5,0.5h-4.8c-0.3,0-0.5-0.2-0.5-0.5V342c0-0.3,0.2-0.5,0.5-0.5h4.8
		C58,341.5,58.2,341.7,58.2,342z M53.4,346.3h3.8v-3.8h-3.8V346.3z"/>
	<path class="st0" d="M36.7,98.4h-4.8c-0.3,0-0.5-0.2-0.5-0.5v-4.8c0-0.3,0.2-0.5,0.5-0.5h4.8c0.3,0,0.5,0.2,0.5,0.5v4.8
		C37.2,98.2,37,98.4,36.7,98.4z M32.4,97.4h3.8v-3.8h-3.8V97.4z"/>
	<path class="st0" d="M37.2,322v4.8c0,0.3-0.2,0.5-0.5,0.5h-4.8c-0.3,0-0.5-0.2-0.5-0.5V322c0-0.3,0.2-0.5,0.5-0.5h4.8
		C37,321.5,37.2,321.7,37.2,322z M32.4,326.3h3.8v-3.8h-3.8V326.3z"/>
	<path class="st0" d="M388.6,301v4.8c0,0.3-0.2,0.5-0.5,0.5h-4.8c-0.3,0-0.5-0.2-0.5-0.5V301c0-0.3,0.2-0.5,0.5-0.5h4.8
		C388.4,300.5,388.6,300.7,388.6,301z M383.8,305.3h3.8v-3.8h-3.8V305.3z"/>
	<path class="st0" d="M17.2,301v4.8c0,0.3-0.2,0.5-0.5,0.5h-4.8c-0.3,0-0.5-0.2-0.5-0.5V301c0-0.3,0.2-0.5,0.5-0.5h4.8
		C17,300.5,17.2,300.7,17.2,301z M12.4,305.3h3.8v-3.8h-3.8V305.3z"/>
	<path class="st0" d="M119.7,15.4h-4.8c-0.3,0-0.5-0.2-0.5-0.5v-4.8c0-0.3,0.2-0.5,0.5-0.5h4.8c0.3,0,0.5,0.2,0.5,0.5v4.8
		C120.2,15.2,120,15.4,119.7,15.4z M115.4,14.4h3.8v-3.8h-3.8V14.4z"/>
	<path class="st0" d="M120.2,405.1v4.8c0,0.3-0.2,0.5-0.5,0.5h-4.8c-0.3,0-0.5-0.2-0.5-0.5v-4.8c0-0.3,0.2-0.5,0.5-0.5h4.8
		C120,404.6,120.2,404.8,120.2,405.1z M115.4,409.4h3.8v-3.8h-3.8V409.4z"/>
</g>
<g id="_x34_">
	<path class="st0" d="M327.1,58.4h-6.8c-0.3,0-0.5-0.2-0.5-0.5v-6.8c0-0.3,0.2-0.5,0.5-0.5h6.8c0.3,0,0.5,0.2,0.5,0.5v6.8
		C327.6,58.2,327.4,58.4,327.1,58.4z M320.8,57.4h5.8v-5.8h-5.8V57.4z"/>
	<path class="st0" d="M79.7,58.4h-6.8c-0.3,0-0.5-0.2-0.5-0.5v-6.8c0-0.3,0.2-0.5,0.5-0.5h6.8c0.3,0,0.5,0.2,0.5,0.5v6.8
		C80.2,58.2,80,58.4,79.7,58.4z M73.4,57.4h5.8v-5.8h-5.8V57.4z"/>
	<path class="st0" d="M307.1,37.4h-6.8c-0.3,0-0.5-0.2-0.5-0.5v-6.8c0-0.3,0.2-0.5,0.5-0.5h6.8c0.3,0,0.5,0.2,0.5,0.5v6.8
		C307.6,37.2,307.4,37.4,307.1,37.4z M300.8,36.4h5.8v-5.8h-5.8V36.4z"/>
	<path class="st0" d="M99.7,37.4h-6.8c-0.3,0-0.5-0.2-0.5-0.5v-6.8c0-0.3,0.2-0.5,0.5-0.5h6.8c0.3,0,0.5,0.2,0.5,0.5v6.8
		C100.2,37.2,100,37.4,99.7,37.4z M93.4,36.4h5.8v-5.8h-5.8V36.4z"/>
	<path class="st0" d="M348.1,79.4h-6.8c-0.3,0-0.5-0.2-0.5-0.5v-6.8c0-0.3,0.2-0.5,0.5-0.5h6.8c0.3,0,0.5,0.2,0.5,0.5v6.8
		C348.6,79.2,348.4,79.4,348.1,79.4z M341.8,78.4h5.8v-5.8h-5.8V78.4z"/>
	<path class="st0" d="M58.7,79.4h-6.8c-0.3,0-0.5-0.2-0.5-0.5v-6.8c0-0.3,0.2-0.5,0.5-0.5h6.8c0.3,0,0.5,0.2,0.5,0.5v6.8
		C59.2,79.2,59,79.4,58.7,79.4z M52.4,78.4h5.8v-5.8h-5.8V78.4z"/>
	<path class="st0" d="M389.1,120.4h-6.8c-0.3,0-0.5-0.2-0.5-0.5v-6.8c0-0.3,0.2-0.5,0.5-0.5h6.8c0.3,0,0.5,0.2,0.5,0.5v6.8
		C389.6,120.2,389.4,120.4,389.1,120.4z M382.8,119.4h5.8v-5.8h-5.8V119.4z"/>
	<path class="st0" d="M17.7,120.4h-6.8c-0.3,0-0.5-0.2-0.5-0.5v-6.8c0-0.3,0.2-0.5,0.5-0.5h6.8c0.3,0,0.5,0.2,0.5,0.5v6.8
		C18.2,120.2,18,120.4,17.7,120.4z M11.4,119.4h5.8v-5.8h-5.8V119.4z"/>
	<path class="st0" d="M369.1,99.4h-6.8c-0.3,0-0.5-0.2-0.5-0.5v-6.8c0-0.3,0.2-0.5,0.5-0.5h6.8c0.3,0,0.5,0.2,0.5,0.5v6.8
		C369.6,99.2,369.4,99.4,369.1,99.4z M362.8,98.4h5.8v-5.8h-5.8V98.4z"/>
	<path class="st0" d="M37.7,99.4h-6.8c-0.3,0-0.5-0.2-0.5-0.5v-6.8c0-0.3,0.2-0.5,0.5-0.5h6.8c0.3,0,0.5,0.2,0.5,0.5v6.8
		C38.2,99.2,38,99.4,37.7,99.4z M31.4,98.4h5.8v-5.8h-5.8V98.4z"/>
	<path class="st0" d="M286.2,16.4h-6.8c-0.3,0-0.5-0.2-0.5-0.5V9.1c0-0.3,0.2-0.5,0.5-0.5h6.8c0.3,0,0.5,0.2,0.5,0.5v6.8
		C286.7,16.2,286.5,16.4,286.2,16.4z M279.9,15.4h5.8V9.6h-5.8V15.4z"/>
	<path class="st0" d="M286.7,404.1v6.8c0,0.3-0.2,0.5-0.5,0.5h-6.8c-0.3,0-0.5-0.2-0.5-0.5v-6.8c0-0.3,0.2-0.5,0.5-0.5h6.8
		C286.5,403.6,286.7,403.8,286.7,404.1z M279.9,410.4h5.8v-5.8h-5.8V410.4z"/>
	<path class="st0" d="M327.6,362v6.8c0,0.3-0.2,0.5-0.5,0.5h-6.8c-0.3,0-0.5-0.2-0.5-0.5V362c0-0.3,0.2-0.5,0.5-0.5h6.8
		C327.4,361.5,327.6,361.7,327.6,362z M320.8,368.3h5.8v-5.8h-5.8V368.3z"/>
	<path class="st0" d="M80.2,362v6.8c0,0.3-0.2,0.5-0.5,0.5h-6.8c-0.3,0-0.5-0.2-0.5-0.5V362c0-0.3,0.2-0.5,0.5-0.5h6.8
		C80,361.5,80.2,361.7,80.2,362z M73.4,368.3h5.8v-5.8h-5.8V368.3z"/>
	<path class="st0" d="M307.6,383v6.8c0,0.3-0.2,0.5-0.5,0.5h-6.8c-0.3,0-0.5-0.2-0.5-0.5V383c0-0.3,0.2-0.5,0.5-0.5h6.8
		C307.4,382.5,307.6,382.7,307.6,383z M300.8,389.3h5.8v-5.8h-5.8V389.3z"/>
	<path class="st0" d="M100.2,383v6.8c0,0.3-0.2,0.5-0.5,0.5h-6.8c-0.3,0-0.5-0.2-0.5-0.5V383c0-0.3,0.2-0.5,0.5-0.5h6.8
		C100,382.5,100.2,382.7,100.2,383z M93.4,389.3h5.8v-5.8h-5.8V389.3z"/>
	<path class="st0" d="M348.6,341v6.8c0,0.3-0.2,0.5-0.5,0.5h-6.8c-0.3,0-0.5-0.2-0.5-0.5V341c0-0.3,0.2-0.5,0.5-0.5h6.8
		C348.4,340.5,348.6,340.7,348.6,341z M341.8,347.3h5.8v-5.8h-5.8V347.3z"/>
	<path class="st0" d="M59.2,341v6.8c0,0.3-0.2,0.5-0.5,0.5h-6.8c-0.3,0-0.5-0.2-0.5-0.5V341c0-0.3,0.2-0.5,0.5-0.5h6.8
		C59,340.5,59.2,340.7,59.2,341z M52.4,347.3h5.8v-5.8h-5.8V347.3z"/>
	<path class="st0" d="M389.6,300v6.8c0,0.3-0.2,0.5-0.5,0.5h-6.8c-0.3,0-0.5-0.2-0.5-0.5V300c0-0.3,0.2-0.5,0.5-0.5h6.8
		C389.4,299.5,389.6,299.7,389.6,300z M382.8,306.3h5.8v-5.8h-5.8V306.3z"/>
	<path class="st0" d="M18.2,300v6.8c0,0.3-0.2,0.5-0.5,0.5h-6.8c-0.3,0-0.5-0.2-0.5-0.5V300c0-0.3,0.2-0.5,0.5-0.5h6.8
		C18,299.5,18.2,299.7,18.2,300z M11.4,306.3h5.8v-5.8h-5.8V306.3z"/>
	<path class="st0" d="M369.6,321v6.8c0,0.3-0.2,0.5-0.5,0.5h-6.8c-0.3,0-0.5-0.2-0.5-0.5V321c0-0.3,0.2-0.5,0.5-0.5h6.8
		C369.4,320.5,369.6,320.7,369.6,321z M362.8,327.3h5.8v-5.8h-5.8V327.3z"/>
	<path class="st0" d="M38.2,321v6.8c0,0.3-0.2,0.5-0.5,0.5h-6.8c-0.3,0-0.5-0.2-0.5-0.5V321c0-0.3,0.2-0.5,0.5-0.5h6.8
		C38,320.5,38.2,320.7,38.2,321z M31.4,327.3h5.8v-5.8h-5.8V327.3z"/>
	<path class="st0" d="M120.7,16.4h-6.8c-0.3,0-0.5-0.2-0.5-0.5V9.1c0-0.3,0.2-0.5,0.5-0.5h6.8c0.3,0,0.5,0.2,0.5,0.5v6.8
		C121.2,16.2,121,16.4,120.7,16.4z M114.4,15.4h5.8V9.6h-5.8V15.4z"/>
	<path class="st0" d="M121.2,404.1v6.8c0,0.3-0.2,0.5-0.5,0.5h-6.8c-0.3,0-0.5-0.2-0.5-0.5v-6.8c0-0.3,0.2-0.5,0.5-0.5h6.8
		C121,403.6,121.2,403.8,121.2,404.1z M114.4,410.4h5.8v-5.8h-5.8V410.4z"/>
</g>
<g id="_x35_">
	<path class="st0" d="M328.1,59.4h-8.8c-0.3,0-0.5-0.2-0.5-0.5v-8.8c0-0.3,0.2-0.5,0.5-0.5h8.8c0.3,0,0.5,0.2,0.5,0.5v8.8
		C328.6,59.2,328.4,59.4,328.1,59.4z M319.8,58.4h7.8v-7.8h-7.8V58.4z"/>
	<path class="st0" d="M80.7,59.4h-8.8c-0.3,0-0.5-0.2-0.5-0.5v-8.8c0-0.3,0.2-0.5,0.5-0.5h8.8c0.3,0,0.5,0.2,0.5,0.5v8.8
		C81.2,59.2,81,59.4,80.7,59.4z M72.4,58.4h7.8v-7.8h-7.8V58.4z"/>
	<path class="st0" d="M308.1,38.4h-8.8c-0.3,0-0.5-0.2-0.5-0.5v-8.8c0-0.3,0.2-0.5,0.5-0.5h8.8c0.3,0,0.5,0.2,0.5,0.5v8.8
		C308.6,38.2,308.4,38.4,308.1,38.4z M299.8,37.4h7.8v-7.8h-7.8V37.4z"/>
	<path class="st0" d="M100.7,38.4h-8.8c-0.3,0-0.5-0.2-0.5-0.5v-8.8c0-0.3,0.2-0.5,0.5-0.5h8.8c0.3,0,0.5,0.2,0.5,0.5v8.8
		C101.2,38.2,101,38.4,100.7,38.4z M92.4,37.4h7.8v-7.8h-7.8V37.4z"/>
	<path class="st0" d="M349.1,80.4h-8.8c-0.3,0-0.5-0.2-0.5-0.5v-8.8c0-0.3,0.2-0.5,0.5-0.5h8.8c0.3,0,0.5,0.2,0.5,0.5v8.8
		C349.6,80.2,349.4,80.4,349.1,80.4z M340.8,79.4h7.8v-7.8h-7.8V79.4z"/>
	<path class="st0" d="M59.7,80.4h-8.8c-0.3,0-0.5-0.2-0.5-0.5v-8.8c0-0.3,0.2-0.5,0.5-0.5h8.8c0.3,0,0.5,0.2,0.5,0.5v8.8
		C60.2,80.2,60,80.4,59.7,80.4z M51.4,79.4h7.8v-7.8h-7.8V79.4z"/>
	<path class="st0" d="M390.1,121.4h-8.8c-0.3,0-0.5-0.2-0.5-0.5v-8.8c0-0.3,0.2-0.5,0.5-0.5h8.8c0.3,0,0.5,0.2,0.5,0.5v8.8
		C390.6,121.2,390.4,121.4,390.1,121.4z M381.8,120.4h7.8v-7.8h-7.8V120.4z"/>
	<path class="st0" d="M18.7,121.4H9.9c-0.3,0-0.5-0.2-0.5-0.5v-8.8c0-0.3,0.2-0.5,0.5-0.5h8.8c0.3,0,0.5,0.2,0.5,0.5v8.8
		C19.2,121.2,19,121.4,18.7,121.4z M10.4,120.4h7.8v-7.8h-7.8V120.4z"/>
	<path class="st0" d="M370.1,100.4h-8.8c-0.3,0-0.5-0.2-0.5-0.5v-8.8c0-0.3,0.2-0.5,0.5-0.5h8.8c0.3,0,0.5,0.2,0.5,0.5v8.8
		C370.6,100.2,370.4,100.4,370.1,100.4z M361.8,99.4h7.8v-7.8h-7.8V99.4z"/>
	<path class="st0" d="M38.7,100.4h-8.8c-0.3,0-0.5-0.2-0.5-0.5v-8.8c0-0.3,0.2-0.5,0.5-0.5h8.8c0.3,0,0.5,0.2,0.5,0.5v8.8
		C39.2,100.2,39,100.4,38.7,100.4z M30.4,99.4h7.8v-7.8h-7.8V99.4z"/>
	<path class="st0" d="M287.2,17.4h-8.8c-0.3,0-0.5-0.2-0.5-0.5V8.1c0-0.3,0.2-0.5,0.5-0.5h8.8c0.3,0,0.5,0.2,0.5,0.5v8.8
		C287.7,17.2,287.5,17.4,287.2,17.4z M278.9,16.4h7.8V8.6h-7.8V16.4z"/>
	<path class="st0" d="M287.7,403.1v8.8c0,0.3-0.2,0.5-0.5,0.5h-8.8c-0.3,0-0.5-0.2-0.5-0.5v-8.8c0-0.3,0.2-0.5,0.5-0.5h8.8
		C287.5,402.6,287.7,402.8,287.7,403.1z M278.9,411.4h7.8v-7.8h-7.8V411.4z"/>
	<path class="st0" d="M328.6,361v8.8c0,0.3-0.2,0.5-0.5,0.5h-8.8c-0.3,0-0.5-0.2-0.5-0.5V361c0-0.3,0.2-0.5,0.5-0.5h8.8
		C328.4,360.5,328.6,360.7,328.6,361z M319.8,369.3h7.8v-7.8h-7.8V369.3z"/>
	<path class="st0" d="M81.2,361v8.8c0,0.3-0.2,0.5-0.5,0.5h-8.8c-0.3,0-0.5-0.2-0.5-0.5V361c0-0.3,0.2-0.5,0.5-0.5h8.8
		C81,360.5,81.2,360.7,81.2,361z M72.4,369.3h7.8v-7.8h-7.8V369.3z"/>
	<path class="st0" d="M308.6,382v8.8c0,0.3-0.2,0.5-0.5,0.5h-8.8c-0.3,0-0.5-0.2-0.5-0.5V382c0-0.3,0.2-0.5,0.5-0.5h8.8
		C308.4,381.5,308.6,381.7,308.6,382z M299.8,390.3h7.8v-7.8h-7.8V390.3z"/>
	<path class="st0" d="M101.2,382v8.8c0,0.3-0.2,0.5-0.5,0.5h-8.8c-0.3,0-0.5-0.2-0.5-0.5V382c0-0.3,0.2-0.5,0.5-0.5h8.8
		C101,381.5,101.2,381.7,101.2,382z M92.4,390.3h7.8v-7.8h-7.8V390.3z"/>
	<path class="st0" d="M349.6,340v8.8c0,0.3-0.2,0.5-0.5,0.5h-8.8c-0.3,0-0.5-0.2-0.5-0.5V340c0-0.3,0.2-0.5,0.5-0.5h8.8
		C349.4,339.5,349.6,339.7,349.6,340z M340.8,348.3h7.8v-7.8h-7.8V348.3z"/>
	<path class="st0" d="M60.2,340v8.8c0,0.3-0.2,0.5-0.5,0.5h-8.8c-0.3,0-0.5-0.2-0.5-0.5V340c0-0.3,0.2-0.5,0.5-0.5h8.8
		C60,339.5,60.2,339.7,60.2,340z M51.4,348.3h7.8v-7.8h-7.8V348.3z"/>
	<path class="st0" d="M390.6,299v8.8c0,0.3-0.2,0.5-0.5,0.5h-8.8c-0.3,0-0.5-0.2-0.5-0.5V299c0-0.3,0.2-0.5,0.5-0.5h8.8
		C390.4,298.5,390.6,298.7,390.6,299z M381.8,307.3h7.8v-7.8h-7.8V307.3z"/>
	<path class="st0" d="M19.2,299v8.8c0,0.3-0.2,0.5-0.5,0.5H9.9c-0.3,0-0.5-0.2-0.5-0.5V299c0-0.3,0.2-0.5,0.5-0.5h8.8
		C19,298.5,19.2,298.7,19.2,299z M10.4,307.3h7.8v-7.8h-7.8V307.3z"/>
	<path class="st0" d="M370.6,320v8.8c0,0.3-0.2,0.5-0.5,0.5h-8.8c-0.3,0-0.5-0.2-0.5-0.5V320c0-0.3,0.2-0.5,0.5-0.5h8.8
		C370.4,319.5,370.6,319.7,370.6,320z M361.8,328.3h7.8v-7.8h-7.8V328.3z"/>
	<path class="st0" d="M39.2,320v8.8c0,0.3-0.2,0.5-0.5,0.5h-8.8c-0.3,0-0.5-0.2-0.5-0.5V320c0-0.3,0.2-0.5,0.5-0.5h8.8
		C39,319.5,39.2,319.7,39.2,320z M30.4,328.3h7.8v-7.8h-7.8V328.3z"/>
	<path class="st0" d="M121.7,17.4h-8.8c-0.3,0-0.5-0.2-0.5-0.5V8.1c0-0.3,0.2-0.5,0.5-0.5h8.8c0.3,0,0.5,0.2,0.5,0.5v8.8
		C122.2,17.2,122,17.4,121.7,17.4z M113.4,16.4h7.8V8.6h-7.8V16.4z"/>
	<path class="st0" d="M122.2,403.1v8.8c0,0.3-0.2,0.5-0.5,0.5h-8.8c-0.3,0-0.5-0.2-0.5-0.5v-8.8c0-0.3,0.2-0.5,0.5-0.5h8.8
		C122,402.6,122.2,402.8,122.2,403.1z M113.4,411.4h7.8v-7.8h-7.8V411.4z"/>
</g>
</svg>
