<?xml version="1.0" encoding="utf-8"?>
<!-- Generator: Adobe Illustrator 25.1.0, SVG Export Plug-In . SVG Version: 6.00 Build 0)  -->
<svg version="1.1" id="animated" xmlns="http://www.w3.org/2000/svg" xmlns:xlink="http://www.w3.org/1999/xlink" x="0px" y="0px"
	 viewBox="0 0 400 420" style="enable-background:new 0 0 400 420;" xml:space="preserve">
<style type="text/css">
	.st0{fill:#6CB8C7;}
</style>
<g id="_x31__2_">
	<path class="st0" d="M304.1,55.4h-0.8c-0.3,0-0.5-0.2-0.5-0.5v-0.8c0-0.3,0.2-0.5,0.5-0.5h0.8c0.3,0,0.5,0.2,0.5,0.5v0.8
		C304.6,55.2,304.4,55.4,304.1,55.4z M303.8,54.4h-0.2v0.2h0.2V54.4z"/>
	<path class="st0" d="M96.7,55.4h-0.8c-0.3,0-0.5-0.2-0.5-0.5v-0.8c0-0.3,0.2-0.5,0.5-0.5h0.8c0.3,0,0.5,0.2,0.5,0.5v0.8
		C97.2,55.2,97,55.4,96.7,55.4z M96.4,54.4h-0.2v0.2h0.2V54.4z"/>
	<path class="st0" d="M283.1,34.4h-0.8c-0.3,0-0.5-0.2-0.5-0.5v-0.8c0-0.3,0.2-0.5,0.5-0.5h0.8c0.3,0,0.5,0.2,0.5,0.5v0.8
		C283.6,34.2,283.4,34.4,283.1,34.4z M282.8,33.4h-0.2v0.2h0.2V33.4z"/>
	<path class="st0" d="M117.7,34.4h-0.8c-0.3,0-0.5-0.2-0.5-0.5v-0.8c0-0.3,0.2-0.5,0.5-0.5h0.8c0.3,0,0.5,0.2,0.5,0.5v0.8
		C118.2,34.2,118,34.4,117.7,34.4z M117.4,33.4h-0.2v0.2h0.2V33.4z"/>
	<path class="st0" d="M324.1,76.4h-0.8c-0.3,0-0.5-0.2-0.5-0.5v-0.8c0-0.3,0.2-0.5,0.5-0.5h0.8c0.3,0,0.5,0.2,0.5,0.5v0.8
		C324.6,76.2,324.4,76.4,324.1,76.4z M323.8,75.4h-0.2v0.2h0.2V75.4z"/>
	<path class="st0" d="M76.7,76.4h-0.8c-0.3,0-0.5-0.2-0.5-0.5v-0.8c0-0.3,0.2-0.5,0.5-0.5h0.8c0.3,0,0.5,0.2,0.5,0.5v0.8
		C77.2,76.2,77,76.4,76.7,76.4z M76.4,75.4h-0.2v0.2h0.2V75.4z"/>
	<path class="st0" d="M366.1,117.4h-0.8c-0.3,0-0.5-0.2-0.5-0.5v-0.8c0-0.3,0.2-0.5,0.5-0.5h0.8c0.3,0,0.5,0.2,0.5,0.5v0.8
		C366.6,117.2,366.4,117.4,366.1,117.4z M365.8,116.4h-0.2v0.2h0.2V116.4z"/>
	<path class="st0" d="M34.7,117.4h-0.8c-0.3,0-0.5-0.2-0.5-0.5v-0.8c0-0.3,0.2-0.5,0.5-0.5h0.8c0.3,0,0.5,0.2,0.5,0.5v0.8
		C35.2,117.2,35,117.4,34.7,117.4z M34.4,116.4h-0.2v0.2h0.2V116.4z"/>
	<path class="st0" d="M386.1,137.4h-0.8c-0.3,0-0.5-0.2-0.5-0.5v-0.8c0-0.3,0.2-0.5,0.5-0.5h0.8c0.3,0,0.5,0.2,0.5,0.5v0.8
		C386.6,137.2,386.4,137.4,386.1,137.4z M385.8,136.4h-0.2v0.2h0.2V136.4z"/>
	<path class="st0" d="M14.7,137.4h-0.8c-0.3,0-0.5-0.2-0.5-0.5v-0.8c0-0.3,0.2-0.5,0.5-0.5h0.8c0.3,0,0.5,0.2,0.5,0.5v0.8
		C15.2,137.2,15,137.4,14.7,137.4z M14.4,136.4h-0.2v0.2h0.2V136.4z"/>
	<path class="st0" d="M386.1,284.4h-0.8c-0.3,0-0.5-0.2-0.5-0.5v-0.8c0-0.3,0.2-0.5,0.5-0.5h0.8c0.3,0,0.5,0.2,0.5,0.5v0.8
		C386.6,284.2,386.4,284.4,386.1,284.4z M385.8,283.4h-0.2v0.2h0.2V283.4z"/>
	<path class="st0" d="M14.7,284.4h-0.8c-0.3,0-0.5-0.2-0.5-0.5v-0.8c0-0.3,0.2-0.5,0.5-0.5h0.8c0.3,0,0.5,0.2,0.5,0.5v0.8
		C15.2,284.2,15,284.4,14.7,284.4z M14.4,283.4h-0.2v0.2h0.2V283.4z"/>
	<path class="st0" d="M262.1,13.4h-0.8c-0.3,0-0.5-0.2-0.5-0.5v-0.8c0-0.3,0.2-0.5,0.5-0.5h0.8c0.3,0,0.5,0.2,0.5,0.5v0.8
		C262.6,13.2,262.4,13.4,262.1,13.4z M261.8,12.4h-0.2v0.2h0.2V12.4z"/>
	<path class="st0" d="M262.6,407.1v0.8c0,0.3-0.2,0.5-0.5,0.5h-0.8c-0.3,0-0.5-0.2-0.5-0.5v-0.8c0-0.3,0.2-0.5,0.5-0.5h0.8
		C262.4,406.6,262.6,406.8,262.6,407.1z M261.8,407.4h-0.2v0.2h0.2V407.4z"/>
	<path class="st0" d="M304.6,365v0.8c0,0.3-0.2,0.5-0.5,0.5h-0.8c-0.3,0-0.5-0.2-0.5-0.5V365c0-0.3,0.2-0.5,0.5-0.5h0.8
		C304.4,364.5,304.6,364.7,304.6,365z M303.8,365.3h-0.2v0.2h0.2V365.3z"/>
	<path class="st0" d="M97.2,365v0.8c0,0.3-0.2,0.5-0.5,0.5h-0.8c-0.3,0-0.5-0.2-0.5-0.5V365c0-0.3,0.2-0.5,0.5-0.5h0.8
		C97,364.5,97.2,364.7,97.2,365z M96.4,365.3h-0.2v0.2h0.2V365.3z"/>
	<path class="st0" d="M283.6,386v0.8c0,0.3-0.2,0.5-0.5,0.5h-0.8c-0.3,0-0.5-0.2-0.5-0.5V386c0-0.3,0.2-0.5,0.5-0.5h0.8
		C283.4,385.5,283.6,385.7,283.6,386z M282.8,386.3h-0.2v0.2h0.2V386.3z"/>
	<path class="st0" d="M118.2,386v0.8c0,0.3-0.2,0.5-0.5,0.5h-0.8c-0.3,0-0.5-0.2-0.5-0.5V386c0-0.3,0.2-0.5,0.5-0.5h0.8
		C118,385.5,118.2,385.7,118.2,386z M117.4,386.3h-0.2v0.2h0.2V386.3z"/>
	<path class="st0" d="M324.6,344v0.8c0,0.3-0.2,0.5-0.5,0.5h-0.8c-0.3,0-0.5-0.2-0.5-0.5V344c0-0.3,0.2-0.5,0.5-0.5h0.8
		C324.4,343.5,324.6,343.7,324.6,344z M323.8,344.3h-0.2v0.2h0.2V344.3z"/>
	<path class="st0" d="M345.1,96.4h-0.8c-0.3,0-0.5-0.2-0.5-0.5v-0.8c0-0.3,0.2-0.5,0.5-0.5h0.8c0.3,0,0.5,0.2,0.5,0.5v0.8
		C345.6,96.2,345.4,96.4,345.1,96.4z M344.8,95.4h-0.2v0.2h0.2V95.4z"/>
	<path class="st0" d="M345.6,324v0.8c0,0.3-0.2,0.5-0.5,0.5h-0.8c-0.3,0-0.5-0.2-0.5-0.5V324c0-0.3,0.2-0.5,0.5-0.5h0.8
		C345.4,323.5,345.6,323.7,345.6,324z M344.8,324.3h-0.2v0.2h0.2V324.3z"/>
	<path class="st0" d="M77.2,344v0.8c0,0.3-0.2,0.5-0.5,0.5h-0.8c-0.3,0-0.5-0.2-0.5-0.5V344c0-0.3,0.2-0.5,0.5-0.5h0.8
		C77,343.5,77.2,343.7,77.2,344z M76.4,344.3h-0.2v0.2h0.2V344.3z"/>
	<path class="st0" d="M55.7,96.4h-0.8c-0.3,0-0.5-0.2-0.5-0.5v-0.8c0-0.3,0.2-0.5,0.5-0.5h0.8c0.3,0,0.5,0.2,0.5,0.5v0.8
		C56.2,96.2,56,96.4,55.7,96.4z M55.4,95.4h-0.2v0.2h0.2V95.4z"/>
	<path class="st0" d="M56.2,324v0.8c0,0.3-0.2,0.5-0.5,0.5h-0.8c-0.3,0-0.5-0.2-0.5-0.5V324c0-0.3,0.2-0.5,0.5-0.5h0.8
		C56,323.5,56.2,323.7,56.2,324z M55.4,324.3h-0.2v0.2h0.2V324.3z"/>
	<path class="st0" d="M366.6,303v0.8c0,0.3-0.2,0.5-0.5,0.5h-0.8c-0.3,0-0.5-0.2-0.5-0.5V303c0-0.3,0.2-0.5,0.5-0.5h0.8
		C366.4,302.5,366.6,302.7,366.6,303z M365.8,303.3h-0.2v0.2h0.2V303.3z"/>
	<path class="st0" d="M35.2,303v0.8c0,0.3-0.2,0.5-0.5,0.5h-0.8c-0.3,0-0.5-0.2-0.5-0.5V303c0-0.3,0.2-0.5,0.5-0.5h0.8
		C35,302.5,35.2,302.7,35.2,303z M34.4,303.3h-0.2v0.2h0.2V303.3z"/>
	<path class="st0" d="M138.7,13.4h-0.8c-0.3,0-0.5-0.2-0.5-0.5v-0.8c0-0.3,0.2-0.5,0.5-0.5h0.8c0.3,0,0.5,0.2,0.5,0.5v0.8
		C139.2,13.2,139,13.4,138.7,13.4z M138.4,12.4h-0.2v0.2h0.2V12.4z"/>
	<path class="st0" d="M139.2,407.1v0.8c0,0.3-0.2,0.5-0.5,0.5h-0.8c-0.3,0-0.5-0.2-0.5-0.5v-0.8c0-0.3,0.2-0.5,0.5-0.5h0.8
		C139,406.6,139.2,406.8,139.2,407.1z M138.4,407.4h-0.2v0.2h0.2V407.4z"/>
</g>
<g id="_x32_">
	<path class="st0" d="M305.1,56.4h-2.8c-0.3,0-0.5-0.2-0.5-0.5v-2.8c0-0.3,0.2-0.5,0.5-0.5h2.8c0.3,0,0.5,0.2,0.5,0.5v2.8
		C305.6,56.2,305.4,56.4,305.1,56.4z M302.8,55.4h1.8v-1.8h-1.8V55.4z"/>
	<path class="st0" d="M97.7,56.4h-2.8c-0.3,0-0.5-0.2-0.5-0.5v-2.8c0-0.3,0.2-0.5,0.5-0.5h2.8c0.3,0,0.5,0.2,0.5,0.5v2.8
		C98.2,56.2,98,56.4,97.7,56.4z M95.4,55.4h1.8v-1.8h-1.8V55.4z"/>
	<path class="st0" d="M284.1,35.4h-2.8c-0.3,0-0.5-0.2-0.5-0.5v-2.8c0-0.3,0.2-0.5,0.5-0.5h2.8c0.3,0,0.5,0.2,0.5,0.5v2.8
		C284.6,35.2,284.4,35.4,284.1,35.4z M281.8,34.4h1.8v-1.8h-1.8V34.4z"/>
	<path class="st0" d="M118.7,35.4h-2.8c-0.3,0-0.5-0.2-0.5-0.5v-2.8c0-0.3,0.2-0.5,0.5-0.5h2.8c0.3,0,0.5,0.2,0.5,0.5v2.8
		C119.2,35.2,119,35.4,118.7,35.4z M116.4,34.4h1.8v-1.8h-1.8V34.4z"/>
	<path class="st0" d="M325.1,77.4h-2.8c-0.3,0-0.5-0.2-0.5-0.5v-2.8c0-0.3,0.2-0.5,0.5-0.5h2.8c0.3,0,0.5,0.2,0.5,0.5v2.8
		C325.6,77.2,325.4,77.4,325.1,77.4z M322.8,76.4h1.8v-1.8h-1.8V76.4z"/>
	<path class="st0" d="M77.7,77.4h-2.8c-0.3,0-0.5-0.2-0.5-0.5v-2.8c0-0.3,0.2-0.5,0.5-0.5h2.8c0.3,0,0.5,0.2,0.5,0.5v2.8
		C78.2,77.2,78,77.4,77.7,77.4z M75.4,76.4h1.8v-1.8h-1.8V76.4z"/>
	<path class="st0" d="M346.1,97.4h-2.8c-0.3,0-0.5-0.2-0.5-0.5v-2.8c0-0.3,0.2-0.5,0.5-0.5h2.8c0.3,0,0.5,0.2,0.5,0.5v2.8
		C346.6,97.2,346.4,97.4,346.1,97.4z M343.8,96.4h1.8v-1.8h-1.8V96.4z"/>
	<path class="st0" d="M56.7,97.4h-2.8c-0.3,0-0.5-0.2-0.5-0.5v-2.8c0-0.3,0.2-0.5,0.5-0.5h2.8c0.3,0,0.5,0.2,0.5,0.5v2.8
		C57.2,97.2,57,97.4,56.7,97.4z M54.4,96.4h1.8v-1.8h-1.8V96.4z"/>
	<path class="st0" d="M367.1,118.4h-2.8c-0.3,0-0.5-0.2-0.5-0.5v-2.8c0-0.3,0.2-0.5,0.5-0.5h2.8c0.3,0,0.5,0.2,0.5,0.5v2.8
		C367.6,118.2,367.4,118.4,367.1,118.4z M364.8,117.4h1.8v-1.8h-1.8V117.4z"/>
	<path class="st0" d="M35.7,118.4h-2.8c-0.3,0-0.5-0.2-0.5-0.5v-2.8c0-0.3,0.2-0.5,0.5-0.5h2.8c0.3,0,0.5,0.2,0.5,0.5v2.8
		C36.2,118.2,36,118.4,35.7,118.4z M33.4,117.4h1.8v-1.8h-1.8V117.4z"/>
	<path class="st0" d="M387.1,138.4h-2.8c-0.3,0-0.5-0.2-0.5-0.5v-2.8c0-0.3,0.2-0.5,0.5-0.5h2.8c0.3,0,0.5,0.2,0.5,0.5v2.8
		C387.6,138.2,387.4,138.4,387.1,138.4z M384.8,137.4h1.8v-1.8h-1.8V137.4z"/>
	<path class="st0" d="M15.7,138.4h-2.8c-0.3,0-0.5-0.2-0.5-0.5v-2.8c0-0.3,0.2-0.5,0.5-0.5h2.8c0.3,0,0.5,0.2,0.5,0.5v2.8
		C16.2,138.2,16,138.4,15.7,138.4z M13.4,137.4h1.8v-1.8h-1.8V137.4z"/>
	<path class="st0" d="M387.1,285.4h-2.8c-0.3,0-0.5-0.2-0.5-0.5v-2.8c0-0.3,0.2-0.5,0.5-0.5h2.8c0.3,0,0.5,0.2,0.5,0.5v2.8
		C387.6,285.2,387.4,285.4,387.1,285.4z M384.8,284.4h1.8v-1.8h-1.8V284.4z"/>
	<path class="st0" d="M15.7,285.4h-2.8c-0.3,0-0.5-0.2-0.5-0.5v-2.8c0-0.3,0.2-0.5,0.5-0.5h2.8c0.3,0,0.5,0.2,0.5,0.5v2.8
		C16.2,285.2,16,285.4,15.7,285.4z M13.4,284.4h1.8v-1.8h-1.8V284.4z"/>
	<path class="st0" d="M263.1,14.4h-2.8c-0.3,0-0.5-0.2-0.5-0.5v-2.8c0-0.3,0.2-0.5,0.5-0.5h2.8c0.3,0,0.5,0.2,0.5,0.5v2.8
		C263.6,14.2,263.4,14.4,263.1,14.4z M260.8,13.4h1.8v-1.8h-1.8V13.4z"/>
	<path class="st0" d="M263.6,406.1v2.8c0,0.3-0.2,0.5-0.5,0.5h-2.8c-0.3,0-0.5-0.2-0.5-0.5v-2.8c0-0.3,0.2-0.5,0.5-0.5h2.8
		C263.4,405.6,263.6,405.8,263.6,406.1z M260.8,408.4h1.8v-1.8h-1.8V408.4z"/>
	<path class="st0" d="M305.6,364v2.8c0,0.3-0.2,0.5-0.5,0.5h-2.8c-0.3,0-0.5-0.2-0.5-0.5V364c0-0.3,0.2-0.5,0.5-0.5h2.8
		C305.4,363.5,305.6,363.7,305.6,364z M302.8,366.3h1.8v-1.8h-1.8V366.3z"/>
	<path class="st0" d="M98.2,364v2.8c0,0.3-0.2,0.5-0.5,0.5h-2.8c-0.3,0-0.5-0.2-0.5-0.5V364c0-0.3,0.2-0.5,0.5-0.5h2.8
		C98,363.5,98.2,363.7,98.2,364z M95.4,366.3h1.8v-1.8h-1.8V366.3z"/>
	<path class="st0" d="M284.6,385v2.8c0,0.3-0.2,0.5-0.5,0.5h-2.8c-0.3,0-0.5-0.2-0.5-0.5V385c0-0.3,0.2-0.5,0.5-0.5h2.8
		C284.4,384.5,284.6,384.7,284.6,385z M281.8,387.3h1.8v-1.8h-1.8V387.3z"/>
	<path class="st0" d="M119.2,385v2.8c0,0.3-0.2,0.5-0.5,0.5h-2.8c-0.3,0-0.5-0.2-0.5-0.5V385c0-0.3,0.2-0.5,0.5-0.5h2.8
		C119,384.5,119.2,384.7,119.2,385z M116.4,387.3h1.8v-1.8h-1.8V387.3z"/>
	<path class="st0" d="M325.6,343v2.8c0,0.3-0.2,0.5-0.5,0.5h-2.8c-0.3,0-0.5-0.2-0.5-0.5V343c0-0.3,0.2-0.5,0.5-0.5h2.8
		C325.4,342.5,325.6,342.7,325.6,343z M322.8,345.3h1.8v-1.8h-1.8V345.3z"/>
	<path class="st0" d="M78.2,343v2.8c0,0.3-0.2,0.5-0.5,0.5h-2.8c-0.3,0-0.5-0.2-0.5-0.5V343c0-0.3,0.2-0.5,0.5-0.5h2.8
		C78,342.5,78.2,342.7,78.2,343z M75.4,345.3h1.8v-1.8h-1.8V345.3z"/>
	<path class="st0" d="M346.6,323v2.8c0,0.3-0.2,0.5-0.5,0.5h-2.8c-0.3,0-0.5-0.2-0.5-0.5V323c0-0.3,0.2-0.5,0.5-0.5h2.8
		C346.4,322.5,346.6,322.7,346.6,323z M343.8,325.3h1.8v-1.8h-1.8V325.3z"/>
	<path class="st0" d="M57.2,323v2.8c0,0.3-0.2,0.5-0.5,0.5h-2.8c-0.3,0-0.5-0.2-0.5-0.5V323c0-0.3,0.2-0.5,0.5-0.5h2.8
		C57,322.5,57.2,322.7,57.2,323z M54.4,325.3h1.8v-1.8h-1.8V325.3z"/>
	<path class="st0" d="M367.6,302v2.8c0,0.3-0.2,0.5-0.5,0.5h-2.8c-0.3,0-0.5-0.2-0.5-0.5V302c0-0.3,0.2-0.5,0.5-0.5h2.8
		C367.4,301.5,367.6,301.7,367.6,302z M364.8,304.3h1.8v-1.8h-1.8V304.3z"/>
	<path class="st0" d="M36.2,302v2.8c0,0.3-0.2,0.5-0.5,0.5h-2.8c-0.3,0-0.5-0.2-0.5-0.5V302c0-0.3,0.2-0.5,0.5-0.5h2.8
		C36,301.5,36.2,301.7,36.2,302z M33.4,304.3h1.8v-1.8h-1.8V304.3z"/>
	<path class="st0" d="M139.7,14.4h-2.8c-0.3,0-0.5-0.2-0.5-0.5v-2.8c0-0.3,0.2-0.5,0.5-0.5h2.8c0.3,0,0.5,0.2,0.5,0.5v2.8
		C140.2,14.2,140,14.4,139.7,14.4z M137.4,13.4h1.8v-1.8h-1.8V13.4z"/>
	<path class="st0" d="M140.2,406.1v2.8c0,0.3-0.2,0.5-0.5,0.5h-2.8c-0.3,0-0.5-0.2-0.5-0.5v-2.8c0-0.3,0.2-0.5,0.5-0.5h2.8
		C140,405.6,140.2,405.8,140.2,406.1z M137.4,408.4h1.8v-1.8h-1.8V408.4z"/>
</g>
<g id="_x33_">
	<path class="st0" d="M306.1,57.4h-4.8c-0.3,0-0.5-0.2-0.5-0.5v-4.8c0-0.3,0.2-0.5,0.5-0.5h4.8c0.3,0,0.5,0.2,0.5,0.5v4.8
		C306.6,57.2,306.4,57.4,306.1,57.4z M301.8,56.4h3.8v-3.8h-3.8V56.4z"/>
	<path class="st0" d="M98.7,57.4h-4.8c-0.3,0-0.5-0.2-0.5-0.5v-4.8c0-0.3,0.2-0.5,0.5-0.5h4.8c0.3,0,0.5,0.2,0.5,0.5v4.8
		C99.2,57.2,99,57.4,98.7,57.4z M94.4,56.4h3.8v-3.8h-3.8V56.4z"/>
	<path class="st0" d="M285.1,36.4h-4.8c-0.3,0-0.5-0.2-0.5-0.5v-4.8c0-0.3,0.2-0.5,0.5-0.5h4.8c0.3,0,0.5,0.2,0.5,0.5v4.8
		C285.6,36.2,285.4,36.4,285.1,36.4z M280.8,35.4h3.8v-3.8h-3.8V35.4z"/>
	<path class="st0" d="M119.7,36.4h-4.8c-0.3,0-0.5-0.2-0.5-0.5v-4.8c0-0.3,0.2-0.5,0.5-0.5h4.8c0.3,0,0.5,0.2,0.5,0.5v4.8
		C120.2,36.2,120,36.4,119.7,36.4z M115.4,35.4h3.8v-3.8h-3.8V35.4z"/>
	<path class="st0" d="M326.1,78.4h-4.8c-0.3,0-0.5-0.2-0.5-0.5v-4.8c0-0.3,0.2-0.5,0.5-0.5h4.8c0.3,0,0.5,0.2,0.5,0.5v4.8
		C326.6,78.2,326.4,78.4,326.1,78.4z M321.8,77.4h3.8v-3.8h-3.8V77.4z"/>
	<path class="st0" d="M78.7,78.4h-4.8c-0.3,0-0.5-0.2-0.5-0.5v-4.8c0-0.3,0.2-0.5,0.5-0.5h4.8c0.3,0,0.5,0.2,0.5,0.5v4.8
		C79.2,78.2,79,78.4,78.7,78.4z M74.4,77.4h3.8v-3.8h-3.8V77.4z"/>
	<path class="st0" d="M368.1,119.4h-4.8c-0.3,0-0.5-0.2-0.5-0.5v-4.8c0-0.3,0.2-0.5,0.5-0.5h4.8c0.3,0,0.5,0.2,0.5,0.5v4.8
		C368.6,119.2,368.4,119.4,368.1,119.4z M363.8,118.4h3.8v-3.8h-3.8V118.4z"/>
	<path class="st0" d="M36.7,119.4h-4.8c-0.3,0-0.5-0.2-0.5-0.5v-4.8c0-0.3,0.2-0.5,0.5-0.5h4.8c0.3,0,0.5,0.2,0.5,0.5v4.8
		C37.2,119.2,37,119.4,36.7,119.4z M32.4,118.4h3.8v-3.8h-3.8V118.4z"/>
	<path class="st0" d="M388.1,139.4h-4.8c-0.3,0-0.5-0.2-0.5-0.5v-4.8c0-0.3,0.2-0.5,0.5-0.5h4.8c0.3,0,0.5,0.2,0.5,0.5v4.8
		C388.6,139.2,388.4,139.4,388.1,139.4z M383.8,138.4h3.8v-3.8h-3.8V138.4z"/>
	<path class="st0" d="M16.7,139.4h-4.8c-0.3,0-0.5-0.2-0.5-0.5v-4.8c0-0.3,0.2-0.5,0.5-0.5h4.8c0.3,0,0.5,0.2,0.5,0.5v4.8
		C17.2,139.2,17,139.4,16.7,139.4z M12.4,138.4h3.8v-3.8h-3.8V138.4z"/>
	<path class="st0" d="M388.1,286.4h-4.8c-0.3,0-0.5-0.2-0.5-0.5v-4.8c0-0.3,0.2-0.5,0.5-0.5h4.8c0.3,0,0.5,0.2,0.5,0.5v4.8
		C388.6,286.2,388.4,286.4,388.1,286.4z M383.8,285.4h3.8v-3.8h-3.8V285.4z"/>
	<path class="st0" d="M16.7,286.4h-4.8c-0.3,0-0.5-0.2-0.5-0.5v-4.8c0-0.3,0.2-0.5,0.5-0.5h4.8c0.3,0,0.5,0.2,0.5,0.5v4.8
		C17.2,286.2,17,286.4,16.7,286.4z M12.4,285.4h3.8v-3.8h-3.8V285.4z"/>
	<path class="st0" d="M264.2,15.4h-4.8c-0.3,0-0.5-0.2-0.5-0.5v-4.8c0-0.3,0.2-0.5,0.5-0.5h4.8c0.3,0,0.5,0.2,0.5,0.5v4.8
		C264.7,15.2,264.5,15.4,264.2,15.4z M259.9,14.4h3.8v-3.8h-3.8V14.4z"/>
	<path class="st0" d="M264.7,405.1v4.8c0,0.3-0.2,0.5-0.5,0.5h-4.8c-0.3,0-0.5-0.2-0.5-0.5v-4.8c0-0.3,0.2-0.5,0.5-0.5h4.8
		C264.5,404.6,264.7,404.8,264.7,405.1z M259.9,409.4h3.8v-3.8h-3.8V409.4z"/>
	<path class="st0" d="M306.6,363v4.8c0,0.3-0.2,0.5-0.5,0.5h-4.8c-0.3,0-0.5-0.2-0.5-0.5V363c0-0.3,0.2-0.5,0.5-0.5h4.8
		C306.4,362.5,306.6,362.7,306.6,363z M301.8,367.3h3.8v-3.8h-3.8V367.3z"/>
	<path class="st0" d="M99.2,363v4.8c0,0.3-0.2,0.5-0.5,0.5h-4.8c-0.3,0-0.5-0.2-0.5-0.5V363c0-0.3,0.2-0.5,0.5-0.5h4.8
		C99,362.5,99.2,362.7,99.2,363z M94.4,367.3h3.8v-3.8h-3.8V367.3z"/>
	<path class="st0" d="M285.6,384v4.8c0,0.3-0.2,0.5-0.5,0.5h-4.8c-0.3,0-0.5-0.2-0.5-0.5V384c0-0.3,0.2-0.5,0.5-0.5h4.8
		C285.4,383.5,285.6,383.7,285.6,384z M280.8,388.3h3.8v-3.8h-3.8V388.3z"/>
	<path class="st0" d="M120.2,384v4.8c0,0.3-0.2,0.5-0.5,0.5h-4.8c-0.3,0-0.5-0.2-0.5-0.5V384c0-0.3,0.2-0.5,0.5-0.5h4.8
		C120,383.5,120.2,383.7,120.2,384z M115.4,388.3h3.8v-3.8h-3.8V388.3z"/>
	<path class="st0" d="M326.6,342v4.8c0,0.3-0.2,0.5-0.5,0.5h-4.8c-0.3,0-0.5-0.2-0.5-0.5V342c0-0.3,0.2-0.5,0.5-0.5h4.8
		C326.4,341.5,326.6,341.7,326.6,342z M321.8,346.3h3.8v-3.8h-3.8V346.3z"/>
	<path class="st0" d="M347.1,98.4h-4.8c-0.3,0-0.5-0.2-0.5-0.5v-4.8c0-0.3,0.2-0.5,0.5-0.5h4.8c0.3,0,0.5,0.2,0.5,0.5v4.8
		C347.6,98.2,347.4,98.4,347.1,98.4z M342.8,97.4h3.8v-3.8h-3.8V97.4z"/>
	<path class="st0" d="M347.6,322v4.8c0,0.3-0.2,0.5-0.5,0.5h-4.8c-0.3,0-0.5-0.2-0.5-0.5V322c0-0.3,0.2-0.5,0.5-0.5h4.8
		C347.4,321.5,347.6,321.7,347.6,322z M342.8,326.3h3.8v-3.8h-3.8V326.3z"/>
	<path class="st0" d="M79.2,342v4.8c0,0.3-0.2,0.5-0.5,0.5h-4.8c-0.3,0-0.5-0.2-0.5-0.5V342c0-0.3,0.2-0.5,0.5-0.5h4.8
		C79,341.5,79.2,341.7,79.2,342z M74.4,346.3h3.8v-3.8h-3.8V346.3z"/>
	<path class="st0" d="M57.7,98.4h-4.8c-0.3,0-0.5-0.2-0.5-0.5v-4.8c0-0.3,0.2-0.5,0.5-0.5h4.8c0.3,0,0.5,0.2,0.5,0.5v4.8
		C58.2,98.2,58,98.4,57.7,98.4z M53.4,97.4h3.8v-3.8h-3.8V97.4z"/>
	<path class="st0" d="M58.2,322v4.8c0,0.3-0.2,0.5-0.5,0.5h-4.8c-0.3,0-0.5-0.2-0.5-0.5V322c0-0.3,0.2-0.5,0.5-0.5h4.8
		C58,321.5,58.2,321.7,58.2,322z M53.4,326.3h3.8v-3.8h-3.8V326.3z"/>
	<path class="st0" d="M368.6,301v4.8c0,0.3-0.2,0.5-0.5,0.5h-4.8c-0.3,0-0.5-0.2-0.5-0.5V301c0-0.3,0.2-0.5,0.5-0.5h4.8
		C368.4,300.5,368.6,300.7,368.6,301z M363.8,305.3h3.8v-3.8h-3.8V305.3z"/>
	<path class="st0" d="M37.2,301v4.8c0,0.3-0.2,0.5-0.5,0.5h-4.8c-0.3,0-0.5-0.2-0.5-0.5V301c0-0.3,0.2-0.5,0.5-0.5h4.8
		C37,300.5,37.2,300.7,37.2,301z M32.4,305.3h3.8v-3.8h-3.8V305.3z"/>
	<path class="st0" d="M140.7,15.4h-4.8c-0.3,0-0.5-0.2-0.5-0.5v-4.8c0-0.3,0.2-0.5,0.5-0.5h4.8c0.3,0,0.5,0.2,0.5,0.5v4.8
		C141.2,15.2,141,15.4,140.7,15.4z M136.4,14.4h3.8v-3.8h-3.8V14.4z"/>
	<path class="st0" d="M141.2,405.1v4.8c0,0.3-0.2,0.5-0.5,0.5h-4.8c-0.3,0-0.5-0.2-0.5-0.5v-4.8c0-0.3,0.2-0.5,0.5-0.5h4.8
		C141,404.6,141.2,404.8,141.2,405.1z M136.4,409.4h3.8v-3.8h-3.8V409.4z"/>
</g>
<g id="_x34_">
	<path class="st0" d="M307.1,58.4h-6.8c-0.3,0-0.5-0.2-0.5-0.5v-6.8c0-0.3,0.2-0.5,0.5-0.5h6.8c0.3,0,0.5,0.2,0.5,0.5v6.8
		C307.6,58.2,307.4,58.4,307.1,58.4z M300.8,57.4h5.8v-5.8h-5.8V57.4z"/>
	<path class="st0" d="M99.7,58.4h-6.8c-0.3,0-0.5-0.2-0.5-0.5v-6.8c0-0.3,0.2-0.5,0.5-0.5h6.8c0.3,0,0.5,0.2,0.5,0.5v6.8
		C100.2,58.2,100,58.4,99.7,58.4z M93.4,57.4h5.8v-5.8h-5.8V57.4z"/>
	<path class="st0" d="M286.1,37.4h-6.8c-0.3,0-0.5-0.2-0.5-0.5v-6.8c0-0.3,0.2-0.5,0.5-0.5h6.8c0.3,0,0.5,0.2,0.5,0.5v6.8
		C286.6,37.2,286.4,37.4,286.1,37.4z M279.8,36.4h5.8v-5.8h-5.8V36.4z"/>
	<path class="st0" d="M120.7,37.4h-6.8c-0.3,0-0.5-0.2-0.5-0.5v-6.8c0-0.3,0.2-0.5,0.5-0.5h6.8c0.3,0,0.5,0.2,0.5,0.5v6.8
		C121.2,37.2,121,37.4,120.7,37.4z M114.4,36.4h5.8v-5.8h-5.8V36.4z"/>
	<path class="st0" d="M327.1,79.4h-6.8c-0.3,0-0.5-0.2-0.5-0.5v-6.8c0-0.3,0.2-0.5,0.5-0.5h6.8c0.3,0,0.5,0.2,0.5,0.5v6.8
		C327.6,79.2,327.4,79.4,327.1,79.4z M320.8,78.4h5.8v-5.8h-5.8V78.4z"/>
	<path class="st0" d="M79.7,79.4h-6.8c-0.3,0-0.5-0.2-0.5-0.5v-6.8c0-0.3,0.2-0.5,0.5-0.5h6.8c0.3,0,0.5,0.2,0.5,0.5v6.8
		C80.2,79.2,80,79.4,79.7,79.4z M73.4,78.4h5.8v-5.8h-5.8V78.4z"/>
	<path class="st0" d="M369.1,120.4h-6.8c-0.3,0-0.5-0.2-0.5-0.5v-6.8c0-0.3,0.2-0.5,0.5-0.5h6.8c0.3,0,0.5,0.2,0.5,0.5v6.8
		C369.6,120.2,369.4,120.4,369.1,120.4z M362.8,119.4h5.8v-5.8h-5.8V119.4z"/>
	<path class="st0" d="M37.7,120.4h-6.8c-0.3,0-0.5-0.2-0.5-0.5v-6.8c0-0.3,0.2-0.5,0.5-0.5h6.8c0.3,0,0.5,0.2,0.5,0.5v6.8
		C38.2,120.2,38,120.4,37.7,120.4z M31.4,119.4h5.8v-5.8h-5.8V119.4z"/>
	<path class="st0" d="M348.1,99.4h-6.8c-0.3,0-0.5-0.2-0.5-0.5v-6.8c0-0.3,0.2-0.5,0.5-0.5h6.8c0.3,0,0.5,0.2,0.5,0.5v6.8
		C348.6,99.2,348.4,99.4,348.1,99.4z M341.8,98.4h5.8v-5.8h-5.8V98.4z"/>
	<path class="st0" d="M58.7,99.4h-6.8c-0.3,0-0.5-0.2-0.5-0.5v-6.8c0-0.3,0.2-0.5,0.5-0.5h6.8c0.3,0,0.5,0.2,0.5,0.5v6.8
		C59.2,99.2,59,99.4,58.7,99.4z M52.4,98.4h5.8v-5.8h-5.8V98.4z"/>
	<path class="st0" d="M389.1,140.4h-6.8c-0.3,0-0.5-0.2-0.5-0.5v-6.8c0-0.3,0.2-0.5,0.5-0.5h6.8c0.3,0,0.5,0.2,0.5,0.5v6.8
		C389.6,140.2,389.4,140.4,389.1,140.4z M382.8,139.4h5.8v-5.8h-5.8V139.4z"/>
	<path class="st0" d="M17.7,140.4h-6.8c-0.3,0-0.5-0.2-0.5-0.5v-6.8c0-0.3,0.2-0.5,0.5-0.5h6.8c0.3,0,0.5,0.2,0.5,0.5v6.8
		C18.2,140.2,18,140.4,17.7,140.4z M11.4,139.4h5.8v-5.8h-5.8V139.4z"/>
	<path class="st0" d="M265.2,16.4h-6.8c-0.3,0-0.5-0.2-0.5-0.5V9.1c0-0.3,0.2-0.5,0.5-0.5h6.8c0.3,0,0.5,0.2,0.5,0.5v6.8
		C265.7,16.2,265.5,16.4,265.2,16.4z M258.9,15.4h5.8V9.6h-5.8V15.4z"/>
	<path class="st0" d="M265.7,404.1v6.8c0,0.3-0.2,0.5-0.5,0.5h-6.8c-0.3,0-0.5-0.2-0.5-0.5v-6.8c0-0.3,0.2-0.5,0.5-0.5h6.8
		C265.5,403.6,265.7,403.8,265.7,404.1z M258.9,410.4h5.8v-5.8h-5.8V410.4z"/>
	<path class="st0" d="M307.6,362v6.8c0,0.3-0.2,0.5-0.5,0.5h-6.8c-0.3,0-0.5-0.2-0.5-0.5V362c0-0.3,0.2-0.5,0.5-0.5h6.8
		C307.4,361.5,307.6,361.7,307.6,362z M300.8,368.3h5.8v-5.8h-5.8V368.3z"/>
	<path class="st0" d="M100.2,362v6.8c0,0.3-0.2,0.5-0.5,0.5h-6.8c-0.3,0-0.5-0.2-0.5-0.5V362c0-0.3,0.2-0.5,0.5-0.5h6.8
		C100,361.5,100.2,361.7,100.2,362z M93.4,368.3h5.8v-5.8h-5.8V368.3z"/>
	<path class="st0" d="M286.6,383v6.8c0,0.3-0.2,0.5-0.5,0.5h-6.8c-0.3,0-0.5-0.2-0.5-0.5V383c0-0.3,0.2-0.5,0.5-0.5h6.8
		C286.4,382.5,286.6,382.7,286.6,383z M279.8,389.3h5.8v-5.8h-5.8V389.3z"/>
	<path class="st0" d="M121.2,383v6.8c0,0.3-0.2,0.5-0.5,0.5h-6.8c-0.3,0-0.5-0.2-0.5-0.5V383c0-0.3,0.2-0.5,0.5-0.5h6.8
		C121,382.5,121.2,382.7,121.2,383z M114.4,389.3h5.8v-5.8h-5.8V389.3z"/>
	<path class="st0" d="M327.6,341v6.8c0,0.3-0.2,0.5-0.5,0.5h-6.8c-0.3,0-0.5-0.2-0.5-0.5V341c0-0.3,0.2-0.5,0.5-0.5h6.8
		C327.4,340.5,327.6,340.7,327.6,341z M320.8,347.3h5.8v-5.8h-5.8V347.3z"/>
	<path class="st0" d="M80.2,341v6.8c0,0.3-0.2,0.5-0.5,0.5h-6.8c-0.3,0-0.5-0.2-0.5-0.5V341c0-0.3,0.2-0.5,0.5-0.5h6.8
		C80,340.5,80.2,340.7,80.2,341z M73.4,347.3h5.8v-5.8h-5.8V347.3z"/>
	<path class="st0" d="M369.6,300v6.8c0,0.3-0.2,0.5-0.5,0.5h-6.8c-0.3,0-0.5-0.2-0.5-0.5V300c0-0.3,0.2-0.5,0.5-0.5h6.8
		C369.4,299.5,369.6,299.7,369.6,300z M362.8,306.3h5.8v-5.8h-5.8V306.3z"/>
	<path class="st0" d="M38.2,300v6.8c0,0.3-0.2,0.5-0.5,0.5h-6.8c-0.3,0-0.5-0.2-0.5-0.5V300c0-0.3,0.2-0.5,0.5-0.5h6.8
		C38,299.5,38.2,299.7,38.2,300z M31.4,306.3h5.8v-5.8h-5.8V306.3z"/>
	<path class="st0" d="M348.6,321v6.8c0,0.3-0.2,0.5-0.5,0.5h-6.8c-0.3,0-0.5-0.2-0.5-0.5V321c0-0.3,0.2-0.5,0.5-0.5h6.8
		C348.4,320.5,348.6,320.7,348.6,321z M341.8,327.3h5.8v-5.8h-5.8V327.3z"/>
	<path class="st0" d="M59.2,321v6.8c0,0.3-0.2,0.5-0.5,0.5h-6.8c-0.3,0-0.5-0.2-0.5-0.5V321c0-0.3,0.2-0.5,0.5-0.5h6.8
		C59,320.5,59.2,320.7,59.2,321z M52.4,327.3h5.8v-5.8h-5.8V327.3z"/>
	<path class="st0" d="M389.6,280v6.8c0,0.3-0.2,0.5-0.5,0.5h-6.8c-0.3,0-0.5-0.2-0.5-0.5V280c0-0.3,0.2-0.5,0.5-0.5h6.8
		C389.4,279.5,389.6,279.7,389.6,280z M382.8,286.3h5.8v-5.8h-5.8V286.3z"/>
	<path class="st0" d="M18.2,280v6.8c0,0.3-0.2,0.5-0.5,0.5h-6.8c-0.3,0-0.5-0.2-0.5-0.5V280c0-0.3,0.2-0.5,0.5-0.5h6.8
		C18,279.5,18.2,279.7,18.2,280z M11.4,286.3h5.8v-5.8h-5.8V286.3z"/>
	<path class="st0" d="M141.7,16.4h-6.8c-0.3,0-0.5-0.2-0.5-0.5V9.1c0-0.3,0.2-0.5,0.5-0.5h6.8c0.3,0,0.5,0.2,0.5,0.5v6.8
		C142.2,16.2,142,16.4,141.7,16.4z M135.4,15.4h5.8V9.6h-5.8V15.4z"/>
	<path class="st0" d="M142.2,404.1v6.8c0,0.3-0.2,0.5-0.5,0.5h-6.8c-0.3,0-0.5-0.2-0.5-0.5v-6.8c0-0.3,0.2-0.5,0.5-0.5h6.8
		C142,403.6,142.2,403.8,142.2,404.1z M135.4,410.4h5.8v-5.8h-5.8V410.4z"/>
</g>
<g id="_x35_">
	<path class="st0" d="M308.1,59.4h-8.8c-0.3,0-0.5-0.2-0.5-0.5v-8.8c0-0.3,0.2-0.5,0.5-0.5h8.8c0.3,0,0.5,0.2,0.5,0.5v8.8
		C308.6,59.2,308.4,59.4,308.1,59.4z M299.8,58.4h7.8v-7.8h-7.8V58.4z"/>
	<path class="st0" d="M100.7,59.4h-8.8c-0.3,0-0.5-0.2-0.5-0.5v-8.8c0-0.3,0.2-0.5,0.5-0.5h8.8c0.3,0,0.5,0.2,0.5,0.5v8.8
		C101.2,59.2,101,59.4,100.7,59.4z M92.4,58.4h7.8v-7.8h-7.8V58.4z"/>
	<path class="st0" d="M287.1,38.4h-8.8c-0.3,0-0.5-0.2-0.5-0.5v-8.8c0-0.3,0.2-0.5,0.5-0.5h8.8c0.3,0,0.5,0.2,0.5,0.5v8.8
		C287.6,38.2,287.4,38.4,287.1,38.4z M278.8,37.4h7.8v-7.8h-7.8V37.4z"/>
	<path class="st0" d="M121.7,38.4h-8.8c-0.3,0-0.5-0.2-0.5-0.5v-8.8c0-0.3,0.2-0.5,0.5-0.5h8.8c0.3,0,0.5,0.2,0.5,0.5v8.8
		C122.2,38.2,122,38.4,121.7,38.4z M113.4,37.4h7.8v-7.8h-7.8V37.4z"/>
	<path class="st0" d="M328.1,80.4h-8.8c-0.3,0-0.5-0.2-0.5-0.5v-8.8c0-0.3,0.2-0.5,0.5-0.5h8.8c0.3,0,0.5,0.2,0.5,0.5v8.8
		C328.6,80.2,328.4,80.4,328.1,80.4z M319.8,79.4h7.8v-7.8h-7.8V79.4z"/>
	<path class="st0" d="M80.7,80.4h-8.8c-0.3,0-0.5-0.2-0.5-0.5v-8.8c0-0.3,0.2-0.5,0.5-0.5h8.8c0.3,0,0.5,0.2,0.5,0.5v8.8
		C81.2,80.2,81,80.4,80.7,80.4z M72.4,79.4h7.8v-7.8h-7.8V79.4z"/>
	<path class="st0" d="M370.1,121.4h-8.8c-0.3,0-0.5-0.2-0.5-0.5v-8.8c0-0.3,0.2-0.5,0.5-0.5h8.8c0.3,0,0.5,0.2,0.5,0.5v8.8
		C370.6,121.2,370.4,121.4,370.1,121.4z M361.8,120.4h7.8v-7.8h-7.8V120.4z"/>
	<path class="st0" d="M38.7,121.4h-8.8c-0.3,0-0.5-0.2-0.5-0.5v-8.8c0-0.3,0.2-0.5,0.5-0.5h8.8c0.3,0,0.5,0.2,0.5,0.5v8.8
		C39.2,121.2,39,121.4,38.7,121.4z M30.4,120.4h7.8v-7.8h-7.8V120.4z"/>
	<path class="st0" d="M349.1,100.4h-8.8c-0.3,0-0.5-0.2-0.5-0.5v-8.8c0-0.3,0.2-0.5,0.5-0.5h8.8c0.3,0,0.5,0.2,0.5,0.5v8.8
		C349.6,100.2,349.4,100.4,349.1,100.4z M340.8,99.4h7.8v-7.8h-7.8V99.4z"/>
	<path class="st0" d="M59.7,100.4h-8.8c-0.3,0-0.5-0.2-0.5-0.5v-8.8c0-0.3,0.2-0.5,0.5-0.5h8.8c0.3,0,0.5,0.2,0.5,0.5v8.8
		C60.2,100.2,60,100.4,59.7,100.4z M51.4,99.4h7.8v-7.8h-7.8V99.4z"/>
	<path class="st0" d="M390.1,141.4h-8.8c-0.3,0-0.5-0.2-0.5-0.5v-8.8c0-0.3,0.2-0.5,0.5-0.5h8.8c0.3,0,0.5,0.2,0.5,0.5v8.8
		C390.6,141.2,390.4,141.4,390.1,141.4z M381.8,140.4h7.8v-7.8h-7.8V140.4z"/>
	<path class="st0" d="M18.7,141.4H9.9c-0.3,0-0.5-0.2-0.5-0.5v-8.8c0-0.3,0.2-0.5,0.5-0.5h8.8c0.3,0,0.5,0.2,0.5,0.5v8.8
		C19.2,141.2,19,141.4,18.7,141.4z M10.4,140.4h7.8v-7.8h-7.8V140.4z"/>
	<path class="st0" d="M390.1,288.4h-8.8c-0.3,0-0.5-0.2-0.5-0.5v-8.8c0-0.3,0.2-0.5,0.5-0.5h8.8c0.3,0,0.5,0.2,0.5,0.5v8.8
		C390.6,288.2,390.4,288.4,390.1,288.4z M381.8,287.4h7.8v-7.8h-7.8V287.4z"/>
	<path class="st0" d="M18.7,288.4H9.9c-0.3,0-0.5-0.2-0.5-0.5v-8.8c0-0.3,0.2-0.5,0.5-0.5h8.8c0.3,0,0.5,0.2,0.5,0.5v8.8
		C19.2,288.2,19,288.4,18.7,288.4z M10.4,287.4h7.8v-7.8h-7.8V287.4z"/>
	<path class="st0" d="M266.2,17.4h-8.8c-0.3,0-0.5-0.2-0.5-0.5V8.1c0-0.3,0.2-0.5,0.5-0.5h8.8c0.3,0,0.5,0.2,0.5,0.5v8.8
		C266.7,17.2,266.5,17.4,266.2,17.4z M257.9,16.4h7.8V8.6h-7.8V16.4z"/>
	<path class="st0" d="M266.7,403.1v8.8c0,0.3-0.2,0.5-0.5,0.5h-8.8c-0.3,0-0.5-0.2-0.5-0.5v-8.8c0-0.3,0.2-0.5,0.5-0.5h8.8
		C266.5,402.6,266.7,402.8,266.7,403.1z M257.9,411.4h7.8v-7.8h-7.8V411.4z"/>
	<path class="st0" d="M308.6,361v8.8c0,0.3-0.2,0.5-0.5,0.5h-8.8c-0.3,0-0.5-0.2-0.5-0.5V361c0-0.3,0.2-0.5,0.5-0.5h8.8
		C308.4,360.5,308.6,360.7,308.6,361z M299.8,369.3h7.8v-7.8h-7.8V369.3z"/>
	<path class="st0" d="M101.2,361v8.8c0,0.3-0.2,0.5-0.5,0.5h-8.8c-0.3,0-0.5-0.2-0.5-0.5V361c0-0.3,0.2-0.5,0.5-0.5h8.8
		C101,360.5,101.2,360.7,101.2,361z M92.4,369.3h7.8v-7.8h-7.8V369.3z"/>
	<path class="st0" d="M287.6,382v8.8c0,0.3-0.2,0.5-0.5,0.5h-8.8c-0.3,0-0.5-0.2-0.5-0.5V382c0-0.3,0.2-0.5,0.5-0.5h8.8
		C287.4,381.5,287.6,381.7,287.6,382z M278.8,390.3h7.8v-7.8h-7.8V390.3z"/>
	<path class="st0" d="M122.2,382v8.8c0,0.3-0.2,0.5-0.5,0.5h-8.8c-0.3,0-0.5-0.2-0.5-0.5V382c0-0.3,0.2-0.5,0.5-0.5h8.8
		C122,381.5,122.2,381.7,122.2,382z M113.4,390.3h7.8v-7.8h-7.8V390.3z"/>
	<path class="st0" d="M328.6,340v8.8c0,0.3-0.2,0.5-0.5,0.5h-8.8c-0.3,0-0.5-0.2-0.5-0.5V340c0-0.3,0.2-0.5,0.5-0.5h8.8
		C328.4,339.5,328.6,339.7,328.6,340z M319.8,348.3h7.8v-7.8h-7.8V348.3z"/>
	<path class="st0" d="M81.2,340v8.8c0,0.3-0.2,0.5-0.5,0.5h-8.8c-0.3,0-0.5-0.2-0.5-0.5V340c0-0.3,0.2-0.5,0.5-0.5h8.8
		C81,339.5,81.2,339.7,81.2,340z M72.4,348.3h7.8v-7.8h-7.8V348.3z"/>
	<path class="st0" d="M370.6,299v8.8c0,0.3-0.2,0.5-0.5,0.5h-8.8c-0.3,0-0.5-0.2-0.5-0.5V299c0-0.3,0.2-0.5,0.5-0.5h8.8
		C370.4,298.5,370.6,298.7,370.6,299z M361.8,307.3h7.8v-7.8h-7.8V307.3z"/>
	<path class="st0" d="M39.2,299v8.8c0,0.3-0.2,0.5-0.5,0.5h-8.8c-0.3,0-0.5-0.2-0.5-0.5V299c0-0.3,0.2-0.5,0.5-0.5h8.8
		C39,298.5,39.2,298.7,39.2,299z M30.4,307.3h7.8v-7.8h-7.8V307.3z"/>
	<path class="st0" d="M349.6,320v8.8c0,0.3-0.2,0.5-0.5,0.5h-8.8c-0.3,0-0.5-0.2-0.5-0.5V320c0-0.3,0.2-0.5,0.5-0.5h8.8
		C349.4,319.5,349.6,319.7,349.6,320z M340.8,328.3h7.8v-7.8h-7.8V328.3z"/>
	<path class="st0" d="M60.2,320v8.8c0,0.3-0.2,0.5-0.5,0.5h-8.8c-0.3,0-0.5-0.2-0.5-0.5V320c0-0.3,0.2-0.5,0.5-0.5h8.8
		C60,319.5,60.2,319.7,60.2,320z M51.4,328.3h7.8v-7.8h-7.8V328.3z"/>
	<path class="st0" d="M142.7,17.4h-8.8c-0.3,0-0.5-0.2-0.5-0.5V8.1c0-0.3,0.2-0.5,0.5-0.5h8.8c0.3,0,0.5,0.2,0.5,0.5v8.8
		C143.2,17.2,143,17.4,142.7,17.4z M134.4,16.4h7.8V8.6h-7.8V16.4z"/>
	<path class="st0" d="M143.2,403.1v8.8c0,0.3-0.2,0.5-0.5,0.5h-8.8c-0.3,0-0.5-0.2-0.5-0.5v-8.8c0-0.3,0.2-0.5,0.5-0.5h8.8
		C143,402.6,143.2,402.8,143.2,403.1z M134.4,411.4h7.8v-7.8h-7.8V411.4z"/>
</g>
</svg>
