<?xml version="1.0" encoding="utf-8"?>
<!-- Generator: Adobe Illustrator 25.1.0, SVG Export Plug-In . SVG Version: 6.00 Build 0)  -->
<svg version="1.1" id="animated" xmlns="http://www.w3.org/2000/svg" xmlns:xlink="http://www.w3.org/1999/xlink" x="0px" y="0px"
	 viewBox="0 0 400 420" style="enable-background:new 0 0 400 420;" xml:space="preserve">
<style type="text/css">
	.st0{fill:#6CB8C7;}
</style>
<g id="_x31__2_">
	<path class="st0" d="M345.1,55.4h-0.8c-0.3,0-0.5-0.2-0.5-0.5v-0.8c0-0.3,0.2-0.5,0.5-0.5h0.8c0.3,0,0.5,0.2,0.5,0.5v0.8
		C345.6,55.2,345.4,55.4,345.1,55.4z M344.8,54.4h-0.2v0.2h0.2V54.4z"/>
	<path class="st0" d="M55.7,55.4h-0.8c-0.3,0-0.5-0.2-0.5-0.5v-0.8c0-0.3,0.2-0.5,0.5-0.5h0.8c0.3,0,0.5,0.2,0.5,0.5v0.8
		C56.2,55.2,56,55.4,55.7,55.4z M55.4,54.4h-0.2v0.2h0.2V54.4z"/>
	<path class="st0" d="M324.1,34.4h-0.8c-0.3,0-0.5-0.2-0.5-0.5v-0.8c0-0.3,0.2-0.5,0.5-0.5h0.8c0.3,0,0.5,0.2,0.5,0.5v0.8
		C324.6,34.2,324.4,34.4,324.1,34.4z M323.8,33.4h-0.2v0.2h0.2V33.4z"/>
	<path class="st0" d="M76.7,34.4h-0.8c-0.3,0-0.5-0.2-0.5-0.5v-0.8c0-0.3,0.2-0.5,0.5-0.5h0.8c0.3,0,0.5,0.2,0.5,0.5v0.8
		C77.2,34.2,77,34.4,76.7,34.4z M76.4,33.4h-0.2v0.2h0.2V33.4z"/>
	<path class="st0" d="M366.1,76.4h-0.8c-0.3,0-0.5-0.2-0.5-0.5v-0.8c0-0.3,0.2-0.5,0.5-0.5h0.8c0.3,0,0.5,0.2,0.5,0.5v0.8
		C366.6,76.2,366.4,76.4,366.1,76.4z M365.8,75.4h-0.2v0.2h0.2V75.4z"/>
	<path class="st0" d="M34.7,76.4h-0.8c-0.3,0-0.5-0.2-0.5-0.5v-0.8c0-0.3,0.2-0.5,0.5-0.5h0.8c0.3,0,0.5,0.2,0.5,0.5v0.8
		C35.2,76.2,35,76.4,34.7,76.4z M34.4,75.4h-0.2v0.2h0.2V75.4z"/>
	<path class="st0" d="M345.6,365v0.8c0,0.3-0.2,0.5-0.5,0.5h-0.8c-0.3,0-0.5-0.2-0.5-0.5V365c0-0.3,0.2-0.5,0.5-0.5h0.8
		C345.4,364.5,345.6,364.7,345.6,365z M344.8,365.3h-0.2v0.2h0.2V365.3z"/>
	<path class="st0" d="M56.2,365v0.8c0,0.3-0.2,0.5-0.5,0.5h-0.8c-0.3,0-0.5-0.2-0.5-0.5V365c0-0.3,0.2-0.5,0.5-0.5h0.8
		C56,364.5,56.2,364.7,56.2,365z M55.4,365.3h-0.2v0.2h0.2V365.3z"/>
	<path class="st0" d="M324.6,386v0.8c0,0.3-0.2,0.5-0.5,0.5h-0.8c-0.3,0-0.5-0.2-0.5-0.5V386c0-0.3,0.2-0.5,0.5-0.5h0.8
		C324.4,385.5,324.6,385.7,324.6,386z M323.8,386.3h-0.2v0.2h0.2V386.3z"/>
	<path class="st0" d="M77.2,386v0.8c0,0.3-0.2,0.5-0.5,0.5h-0.8c-0.3,0-0.5-0.2-0.5-0.5V386c0-0.3,0.2-0.5,0.5-0.5h0.8
		C77,385.5,77.2,385.7,77.2,386z M76.4,386.3h-0.2v0.2h0.2V386.3z"/>
	<path class="st0" d="M366.6,344v0.8c0,0.3-0.2,0.5-0.5,0.5h-0.8c-0.3,0-0.5-0.2-0.5-0.5V344c0-0.3,0.2-0.5,0.5-0.5h0.8
		C366.4,343.5,366.6,343.7,366.6,344z M365.8,344.3h-0.2v0.2h0.2V344.3z"/>
	<path class="st0" d="M35.2,344v0.8c0,0.3-0.2,0.5-0.5,0.5h-0.8c-0.3,0-0.5-0.2-0.5-0.5V344c0-0.3,0.2-0.5,0.5-0.5h0.8
		C35,343.5,35.2,343.7,35.2,344z M34.4,344.3h-0.2v0.2h0.2V344.3z"/>
</g>
<g id="_x32_">
	<path class="st0" d="M346.1,56.4h-2.8c-0.3,0-0.5-0.2-0.5-0.5v-2.8c0-0.3,0.2-0.5,0.5-0.5h2.8c0.3,0,0.5,0.2,0.5,0.5v2.8
		C346.6,56.2,346.4,56.4,346.1,56.4z M343.8,55.4h1.8v-1.8h-1.8V55.4z"/>
	<path class="st0" d="M56.7,56.4h-2.8c-0.3,0-0.5-0.2-0.5-0.5v-2.8c0-0.3,0.2-0.5,0.5-0.5h2.8c0.3,0,0.5,0.2,0.5,0.5v2.8
		C57.2,56.2,57,56.4,56.7,56.4z M54.4,55.4h1.8v-1.8h-1.8V55.4z"/>
	<path class="st0" d="M325.1,35.4h-2.8c-0.3,0-0.5-0.2-0.5-0.5v-2.8c0-0.3,0.2-0.5,0.5-0.5h2.8c0.3,0,0.5,0.2,0.5,0.5v2.8
		C325.6,35.2,325.4,35.4,325.1,35.4z M322.8,34.4h1.8v-1.8h-1.8V34.4z"/>
	<path class="st0" d="M77.7,35.4h-2.8c-0.3,0-0.5-0.2-0.5-0.5v-2.8c0-0.3,0.2-0.5,0.5-0.5h2.8c0.3,0,0.5,0.2,0.5,0.5v2.8
		C78.2,35.2,78,35.4,77.7,35.4z M75.4,34.4h1.8v-1.8h-1.8V34.4z"/>
	<path class="st0" d="M367.1,77.4h-2.8c-0.3,0-0.5-0.2-0.5-0.5v-2.8c0-0.3,0.2-0.5,0.5-0.5h2.8c0.3,0,0.5,0.2,0.5,0.5v2.8
		C367.6,77.2,367.4,77.4,367.1,77.4z M364.8,76.4h1.8v-1.8h-1.8V76.4z"/>
	<path class="st0" d="M35.7,77.4h-2.8c-0.3,0-0.5-0.2-0.5-0.5v-2.8c0-0.3,0.2-0.5,0.5-0.5h2.8c0.3,0,0.5,0.2,0.5,0.5v2.8
		C36.2,77.2,36,77.4,35.7,77.4z M33.4,76.4h1.8v-1.8h-1.8V76.4z"/>
	<path class="st0" d="M346.6,364v2.8c0,0.3-0.2,0.5-0.5,0.5h-2.8c-0.3,0-0.5-0.2-0.5-0.5V364c0-0.3,0.2-0.5,0.5-0.5h2.8
		C346.4,363.5,346.6,363.7,346.6,364z M343.8,366.3h1.8v-1.8h-1.8V366.3z"/>
	<path class="st0" d="M57.2,364v2.8c0,0.3-0.2,0.5-0.5,0.5h-2.8c-0.3,0-0.5-0.2-0.5-0.5V364c0-0.3,0.2-0.5,0.5-0.5h2.8
		C57,363.5,57.2,363.7,57.2,364z M54.4,366.3h1.8v-1.8h-1.8V366.3z"/>
	<path class="st0" d="M325.6,385v2.8c0,0.3-0.2,0.5-0.5,0.5h-2.8c-0.3,0-0.5-0.2-0.5-0.5V385c0-0.3,0.2-0.5,0.5-0.5h2.8
		C325.4,384.5,325.6,384.7,325.6,385z M322.8,387.3h1.8v-1.8h-1.8V387.3z"/>
	<path class="st0" d="M78.2,385v2.8c0,0.3-0.2,0.5-0.5,0.5h-2.8c-0.3,0-0.5-0.2-0.5-0.5V385c0-0.3,0.2-0.5,0.5-0.5h2.8
		C78,384.5,78.2,384.7,78.2,385z M75.4,387.3h1.8v-1.8h-1.8V387.3z"/>
	<path class="st0" d="M367.6,343v2.8c0,0.3-0.2,0.5-0.5,0.5h-2.8c-0.3,0-0.5-0.2-0.5-0.5V343c0-0.3,0.2-0.5,0.5-0.5h2.8
		C367.4,342.5,367.6,342.7,367.6,343z M364.8,345.3h1.8v-1.8h-1.8V345.3z"/>
	<path class="st0" d="M36.2,343v2.8c0,0.3-0.2,0.5-0.5,0.5h-2.8c-0.3,0-0.5-0.2-0.5-0.5V343c0-0.3,0.2-0.5,0.5-0.5h2.8
		C36,342.5,36.2,342.7,36.2,343z M33.4,345.3h1.8v-1.8h-1.8V345.3z"/>
</g>
<g id="_x33_">
	<path class="st0" d="M347.1,57.4h-4.8c-0.3,0-0.5-0.2-0.5-0.5v-4.8c0-0.3,0.2-0.5,0.5-0.5h4.8c0.3,0,0.5,0.2,0.5,0.5v4.8
		C347.6,57.2,347.4,57.4,347.1,57.4z M342.8,56.4h3.8v-3.8h-3.8V56.4z"/>
	<path class="st0" d="M57.7,57.4h-4.8c-0.3,0-0.5-0.2-0.5-0.5v-4.8c0-0.3,0.2-0.5,0.5-0.5h4.8c0.3,0,0.5,0.2,0.5,0.5v4.8
		C58.2,57.2,58,57.4,57.7,57.4z M53.4,56.4h3.8v-3.8h-3.8V56.4z"/>
	<path class="st0" d="M326.1,36.4h-4.8c-0.3,0-0.5-0.2-0.5-0.5v-4.8c0-0.3,0.2-0.5,0.5-0.5h4.8c0.3,0,0.5,0.2,0.5,0.5v4.8
		C326.6,36.2,326.4,36.4,326.1,36.4z M321.8,35.4h3.8v-3.8h-3.8V35.4z"/>
	<path class="st0" d="M78.7,36.4h-4.8c-0.3,0-0.5-0.2-0.5-0.5v-4.8c0-0.3,0.2-0.5,0.5-0.5h4.8c0.3,0,0.5,0.2,0.5,0.5v4.8
		C79.2,36.2,79,36.4,78.7,36.4z M74.4,35.4h3.8v-3.8h-3.8V35.4z"/>
	<path class="st0" d="M368.1,78.4h-4.8c-0.3,0-0.5-0.2-0.5-0.5v-4.8c0-0.3,0.2-0.5,0.5-0.5h4.8c0.3,0,0.5,0.2,0.5,0.5v4.8
		C368.6,78.2,368.4,78.4,368.1,78.4z M363.8,77.4h3.8v-3.8h-3.8V77.4z"/>
	<path class="st0" d="M36.7,78.4h-4.8c-0.3,0-0.5-0.2-0.5-0.5v-4.8c0-0.3,0.2-0.5,0.5-0.5h4.8c0.3,0,0.5,0.2,0.5,0.5v4.8
		C37.2,78.2,37,78.4,36.7,78.4z M32.4,77.4h3.8v-3.8h-3.8V77.4z"/>
	<path class="st0" d="M347.6,363v4.8c0,0.3-0.2,0.5-0.5,0.5h-4.8c-0.3,0-0.5-0.2-0.5-0.5V363c0-0.3,0.2-0.5,0.5-0.5h4.8
		C347.4,362.5,347.6,362.7,347.6,363z M342.8,367.3h3.8v-3.8h-3.8V367.3z"/>
	<path class="st0" d="M58.2,363v4.8c0,0.3-0.2,0.5-0.5,0.5h-4.8c-0.3,0-0.5-0.2-0.5-0.5V363c0-0.3,0.2-0.5,0.5-0.5h4.8
		C58,362.5,58.2,362.7,58.2,363z M53.4,367.3h3.8v-3.8h-3.8V367.3z"/>
	<path class="st0" d="M326.6,384v4.8c0,0.3-0.2,0.5-0.5,0.5h-4.8c-0.3,0-0.5-0.2-0.5-0.5V384c0-0.3,0.2-0.5,0.5-0.5h4.8
		C326.4,383.5,326.6,383.7,326.6,384z M321.8,388.3h3.8v-3.8h-3.8V388.3z"/>
	<path class="st0" d="M79.2,384v4.8c0,0.3-0.2,0.5-0.5,0.5h-4.8c-0.3,0-0.5-0.2-0.5-0.5V384c0-0.3,0.2-0.5,0.5-0.5h4.8
		C79,383.5,79.2,383.7,79.2,384z M74.4,388.3h3.8v-3.8h-3.8V388.3z"/>
	<path class="st0" d="M368.6,342v4.8c0,0.3-0.2,0.5-0.5,0.5h-4.8c-0.3,0-0.5-0.2-0.5-0.5V342c0-0.3,0.2-0.5,0.5-0.5h4.8
		C368.4,341.5,368.6,341.7,368.6,342z M363.8,346.3h3.8v-3.8h-3.8V346.3z"/>
	<path class="st0" d="M37.2,342v4.8c0,0.3-0.2,0.5-0.5,0.5h-4.8c-0.3,0-0.5-0.2-0.5-0.5V342c0-0.3,0.2-0.5,0.5-0.5h4.8
		C37,341.5,37.2,341.7,37.2,342z M32.4,346.3h3.8v-3.8h-3.8V346.3z"/>
</g>
<g id="_x34_">
	<path class="st0" d="M348.1,58.4h-6.8c-0.3,0-0.5-0.2-0.5-0.5v-6.8c0-0.3,0.2-0.5,0.5-0.5h6.8c0.3,0,0.5,0.2,0.5,0.5v6.8
		C348.6,58.2,348.4,58.4,348.1,58.4z M341.8,57.4h5.8v-5.8h-5.8V57.4z"/>
	<path class="st0" d="M58.7,58.4h-6.8c-0.3,0-0.5-0.2-0.5-0.5v-6.8c0-0.3,0.2-0.5,0.5-0.5h6.8c0.3,0,0.5,0.2,0.5,0.5v6.8
		C59.2,58.2,59,58.4,58.7,58.4z M52.4,57.4h5.8v-5.8h-5.8V57.4z"/>
	<path class="st0" d="M327.1,37.4h-6.8c-0.3,0-0.5-0.2-0.5-0.5v-6.8c0-0.3,0.2-0.5,0.5-0.5h6.8c0.3,0,0.5,0.2,0.5,0.5v6.8
		C327.6,37.2,327.4,37.4,327.1,37.4z M320.8,36.4h5.8v-5.8h-5.8V36.4z"/>
	<path class="st0" d="M79.7,37.4h-6.8c-0.3,0-0.5-0.2-0.5-0.5v-6.8c0-0.3,0.2-0.5,0.5-0.5h6.8c0.3,0,0.5,0.2,0.5,0.5v6.8
		C80.2,37.2,80,37.4,79.7,37.4z M73.4,36.4h5.8v-5.8h-5.8V36.4z"/>
	<path class="st0" d="M369.1,79.4h-6.8c-0.3,0-0.5-0.2-0.5-0.5v-6.8c0-0.3,0.2-0.5,0.5-0.5h6.8c0.3,0,0.5,0.2,0.5,0.5v6.8
		C369.6,79.2,369.4,79.4,369.1,79.4z M362.8,78.4h5.8v-5.8h-5.8V78.4z"/>
	<path class="st0" d="M37.7,79.4h-6.8c-0.3,0-0.5-0.2-0.5-0.5v-6.8c0-0.3,0.2-0.5,0.5-0.5h6.8c0.3,0,0.5,0.2,0.5,0.5v6.8
		C38.2,79.2,38,79.4,37.7,79.4z M31.4,78.4h5.8v-5.8h-5.8V78.4z"/>
	<path class="st0" d="M348.6,362v6.8c0,0.3-0.2,0.5-0.5,0.5h-6.8c-0.3,0-0.5-0.2-0.5-0.5V362c0-0.3,0.2-0.5,0.5-0.5h6.8
		C348.4,361.5,348.6,361.7,348.6,362z M341.8,368.3h5.8v-5.8h-5.8V368.3z"/>
	<path class="st0" d="M59.2,362v6.8c0,0.3-0.2,0.5-0.5,0.5h-6.8c-0.3,0-0.5-0.2-0.5-0.5V362c0-0.3,0.2-0.5,0.5-0.5h6.8
		C59,361.5,59.2,361.7,59.2,362z M52.4,368.3h5.8v-5.8h-5.8V368.3z"/>
	<path class="st0" d="M327.6,383v6.8c0,0.3-0.2,0.5-0.5,0.5h-6.8c-0.3,0-0.5-0.2-0.5-0.5V383c0-0.3,0.2-0.5,0.5-0.5h6.8
		C327.4,382.5,327.6,382.7,327.6,383z M320.8,389.3h5.8v-5.8h-5.8V389.3z"/>
	<path class="st0" d="M80.2,383v6.8c0,0.3-0.2,0.5-0.5,0.5h-6.8c-0.3,0-0.5-0.2-0.5-0.5V383c0-0.3,0.2-0.5,0.5-0.5h6.8
		C80,382.5,80.2,382.7,80.2,383z M73.4,389.3h5.8v-5.8h-5.8V389.3z"/>
	<path class="st0" d="M369.6,341v6.8c0,0.3-0.2,0.5-0.5,0.5h-6.8c-0.3,0-0.5-0.2-0.5-0.5V341c0-0.3,0.2-0.5,0.5-0.5h6.8
		C369.4,340.5,369.6,340.7,369.6,341z M362.8,347.3h5.8v-5.8h-5.8V347.3z"/>
	<path class="st0" d="M38.2,341v6.8c0,0.3-0.2,0.5-0.5,0.5h-6.8c-0.3,0-0.5-0.2-0.5-0.5V341c0-0.3,0.2-0.5,0.5-0.5h6.8
		C38,340.5,38.2,340.7,38.2,341z M31.4,347.3h5.8v-5.8h-5.8V347.3z"/>
</g>
<g id="_x35_">
	<path class="st0" d="M349.1,59.4h-8.8c-0.3,0-0.5-0.2-0.5-0.5v-8.8c0-0.3,0.2-0.5,0.5-0.5h8.8c0.3,0,0.5,0.2,0.5,0.5v8.8
		C349.6,59.2,349.4,59.4,349.1,59.4z M340.8,58.4h7.8v-7.8h-7.8V58.4z"/>
	<path class="st0" d="M59.7,59.4h-8.8c-0.3,0-0.5-0.2-0.5-0.5v-8.8c0-0.3,0.2-0.5,0.5-0.5h8.8c0.3,0,0.5,0.2,0.5,0.5v8.8
		C60.2,59.2,60,59.4,59.7,59.4z M51.4,58.4h7.8v-7.8h-7.8V58.4z"/>
	<path class="st0" d="M328.1,38.4h-8.8c-0.3,0-0.5-0.2-0.5-0.5v-8.8c0-0.3,0.2-0.5,0.5-0.5h8.8c0.3,0,0.5,0.2,0.5,0.5v8.8
		C328.6,38.2,328.4,38.4,328.1,38.4z M319.8,37.4h7.8v-7.8h-7.8V37.4z"/>
	<path class="st0" d="M80.7,38.4h-8.8c-0.3,0-0.5-0.2-0.5-0.5v-8.8c0-0.3,0.2-0.5,0.5-0.5h8.8c0.3,0,0.5,0.2,0.5,0.5v8.8
		C81.2,38.2,81,38.4,80.7,38.4z M72.4,37.4h7.8v-7.8h-7.8V37.4z"/>
	<path class="st0" d="M370.1,80.4h-8.8c-0.3,0-0.5-0.2-0.5-0.5v-8.8c0-0.3,0.2-0.5,0.5-0.5h8.8c0.3,0,0.5,0.2,0.5,0.5v8.8
		C370.6,80.2,370.4,80.4,370.1,80.4z M361.8,79.4h7.8v-7.8h-7.8V79.4z"/>
	<path class="st0" d="M38.7,80.4h-8.8c-0.3,0-0.5-0.2-0.5-0.5v-8.8c0-0.3,0.2-0.5,0.5-0.5h8.8c0.3,0,0.5,0.2,0.5,0.5v8.8
		C39.2,80.2,39,80.4,38.7,80.4z M30.4,79.4h7.8v-7.8h-7.8V79.4z"/>
	<path class="st0" d="M349.6,361v8.8c0,0.3-0.2,0.5-0.5,0.5h-8.8c-0.3,0-0.5-0.2-0.5-0.5V361c0-0.3,0.2-0.5,0.5-0.5h8.8
		C349.4,360.5,349.6,360.7,349.6,361z M340.8,369.3h7.8v-7.8h-7.8V369.3z"/>
	<path class="st0" d="M60.2,361v8.8c0,0.3-0.2,0.5-0.5,0.5h-8.8c-0.3,0-0.5-0.2-0.5-0.5V361c0-0.3,0.2-0.5,0.5-0.5h8.8
		C60,360.5,60.2,360.7,60.2,361z M51.4,369.3h7.8v-7.8h-7.8V369.3z"/>
	<path class="st0" d="M328.6,382v8.8c0,0.3-0.2,0.5-0.5,0.5h-8.8c-0.3,0-0.5-0.2-0.5-0.5V382c0-0.3,0.2-0.5,0.5-0.5h8.8
		C328.4,381.5,328.6,381.7,328.6,382z M319.8,390.3h7.8v-7.8h-7.8V390.3z"/>
	<path class="st0" d="M81.2,382v8.8c0,0.3-0.2,0.5-0.5,0.5h-8.8c-0.3,0-0.5-0.2-0.5-0.5V382c0-0.3,0.2-0.5,0.5-0.5h8.8
		C81,381.5,81.2,381.7,81.2,382z M72.4,390.3h7.8v-7.8h-7.8V390.3z"/>
	<path class="st0" d="M370.6,340v8.8c0,0.3-0.2,0.5-0.5,0.5h-8.8c-0.3,0-0.5-0.2-0.5-0.5V340c0-0.3,0.2-0.5,0.5-0.5h8.8
		C370.4,339.5,370.6,339.7,370.6,340z M361.8,348.3h7.8v-7.8h-7.8V348.3z"/>
	<path class="st0" d="M39.2,340v8.8c0,0.3-0.2,0.5-0.5,0.5h-8.8c-0.3,0-0.5-0.2-0.5-0.5V340c0-0.3,0.2-0.5,0.5-0.5h8.8
		C39,339.5,39.2,339.7,39.2,340z M30.4,348.3h7.8v-7.8h-7.8V348.3z"/>
</g>
</svg>
