<?xml version="1.0" encoding="utf-8"?>
<!-- Generator: Adobe Illustrator 25.1.0, SVG Export Plug-In . SVG Version: 6.00 Build 0)  -->
<svg version="1.1" id="animated" xmlns="http://www.w3.org/2000/svg" xmlns:xlink="http://www.w3.org/1999/xlink" x="0px" y="0px"
	 viewBox="0 0 132 410" style="enable-background:new 0 0 132 410;" xml:space="preserve">
<style type="text/css">
	.st0{fill:#6CB8C7;}
</style>
<g>
	<path class="st0" d="M72.9,405.1C72.9,405.2,72.9,405.2,72.9,405.1l0-6.5c0,0,0,0,0,0L72.9,405.1z"/>
</g>
<g>
	<path class="st0" d="M72.6,404.8c0.1,0.1,0.2,0.3,0.3,0.4v-6.6c0-0.1-0.1-0.1-0.1-0.2L72.6,404.8z"/>
</g>
<g>
	<path class="st0" d="M72.1,404.2c0.3,0.3,0.5,0.6,0.8,1v-6.6c-0.2-0.2-0.3-0.4-0.5-0.6L72.1,404.2z"/>
</g>
<g>
	<path class="st0" d="M71.4,403.4c0.5,0.6,1,1.2,1.5,1.8v-6.6c-0.3-0.4-0.6-0.8-1-1.2L71.4,403.4z"/>
</g>
<g>
	<path class="st0" d="M70.5,402.4c0.8,0.9,1.6,1.9,2.4,2.8v-6.6c-0.6-0.7-1.1-1.3-1.7-2L70.5,402.4z"/>
</g>
<g>
	<path class="st0" d="M68.8,400.4C68.8,400.4,68.8,400.4,68.8,400.4C68.8,400.4,68.8,400.4,68.8,400.4z"/>
	<path class="st0" d="M69.4,401.2c1.1,1.3,2.3,2.7,3.5,4v-6.6c-0.9-1-1.7-2.1-2.6-3.1L69.4,401.2z"/>
</g>
<g>
	<path class="st0" d="M68.2,399.7c1.5,1.8,3.1,3.7,4.7,5.5v-6.6c-1.2-1.4-2.4-2.9-3.6-4.4L68.2,399.7z"/>
</g>
<g>
	<path class="st0" d="M66.8,398c2,2.4,4,4.8,6.1,7.2v-6.6c-1.7-2-3.3-3.9-4.9-5.9L66.8,398z"/>
</g>
<g>
	<path class="st0" d="M65.2,396c2.5,3.1,5.1,6.2,7.7,9.2v-6.6c-2.2-2.5-4.2-5.1-6.3-7.7L65.2,396z"/>
</g>
<g>
	<path class="st0" d="M63.4,393.8c3.1,3.9,6.2,7.7,9.5,11.4v-6.6c-2.7-3.2-5.3-6.4-7.9-9.7L63.4,393.8z"/>
</g>
<g>
	<path class="st0" d="M60.9,390.6C60.9,390.6,60.9,390.6,60.9,390.6C60.9,390.6,60.9,390.6,60.9,390.6z"/>
	<path class="st0" d="M61.5,391.4c3.6,4.7,7.4,9.3,11.4,13.8v-6.6c-3.3-3.9-6.5-7.9-9.6-12L61.5,391.4z"/>
</g>
<g>
	<path class="st0" d="M59.5,388.7c4.3,5.7,8.7,11.2,13.4,16.5v-6.6c-4-4.7-7.8-9.6-11.5-14.5L59.5,388.7z"/>
</g>
<g>
	<path class="st0" d="M57.3,385.7c4.9,6.7,10.1,13.2,15.6,19.5v-6.6c-4.7-5.6-9.2-11.4-13.5-17.3L57.3,385.7z"/>
</g>
<g>
	<path class="st0" d="M55,382.5c5.6,7.8,11.5,15.4,17.9,22.7v-6.6c-5.5-6.5-10.7-13.3-15.6-20.3L55,382.5z"/>
</g>
<g>
	<path class="st0" d="M52.6,379.1c6.2,9,13,17.8,20.3,26.1v-6.6c-6.4-7.5-12.4-15.4-17.9-23.5L52.6,379.1z"/>
</g>
<g>
	<path class="st0" d="M50.1,375.4c6.9,10.4,14.5,20.3,22.8,29.8v-6.6c-7.3-8.6-14-17.6-20.2-27L50.1,375.4z"/>
</g>
<g>
	<path class="st0" d="M47.5,371.5c7.5,11.8,16,23.1,25.4,33.7v-6.6c-8.3-9.7-15.8-20-22.6-30.7L47.5,371.5z"/>
</g>
<g>
	<path class="st0" d="M44.9,367.4c8.2,13.3,17.5,26,28,37.8v-6.6c-9.3-10.9-17.6-22.5-25-34.7L44.9,367.4z"/>
</g>
<g>
	<path class="st0" d="M42.3,363c8.8,14.9,19,29,30.6,42.2v-6.6c-10.3-12.2-19.5-25.2-27.5-38.8L42.3,363z"/>
</g>
<g>
	<path class="st0" d="M39.6,358.4c9.4,16.6,20.5,32.3,33.3,46.8v-6.6c-11.4-13.5-21.4-27.9-30-43.2L39.6,358.4z"/>
</g>
<g>
	<path class="st0" d="M37,353.7c9.9,18.3,21.9,35.6,35.9,51.5v-6.6c-12.6-14.8-23.4-30.8-32.5-47.8L37,353.7z"/>
</g>
<g>
	<path class="st0" d="M34.4,348.7c10.4,20.2,23.2,39.2,38.5,56.5v-6.6c-13.7-16.2-25.4-33.8-34.9-52.5L34.4,348.7z"/>
</g>
<g>
	<path class="st0" d="M31.9,343.6c10.8,22.1,24.5,42.8,41,61.6v-6.6C58,381,45.5,361.7,35.5,341.2L31.9,343.6z"/>
</g>
<g>
	<path class="st0" d="M29.4,338.4c11.1,24.1,25.7,46.6,43.5,66.8v-6.6c-16.1-19-29.5-40-39.7-62.4L29.4,338.4z"/>
</g>
<g>
	<path class="st0" d="M27,333c11.4,26.1,26.8,50.4,45.9,72.2v-6.6c-17.4-20.5-31.5-43.3-42-67.6L27,333z"/>
</g>
<g>
	<path class="st0" d="M24.6,327.5c11.5,28.1,27.8,54.4,48.3,77.7v-6.6c-18.6-21.9-33.5-46.6-44.3-72.9L24.6,327.5z"/>
</g>
<g>
	<path class="st0" d="M22.4,322c11.6,30.2,28.6,58.4,50.5,83.2v-6.6c-19.9-23.4-35.5-49.9-46.4-78.2L22.4,322z"/>
</g>
<g>
	<path class="st0" d="M20.3,316.3c11.7,32.4,29.4,62.5,52.6,88.9v-6.6c-21.1-24.9-37.5-53.3-48.4-83.7L20.3,316.3z"/>
</g>
<g>
	<path class="st0" d="M18.4,310.7c11.6,34.5,30,66.7,54.5,94.5v-6.6c-22.4-26.4-39.4-56.7-50.4-89.2L18.4,310.7z"/>
</g>
<g>
	<path class="st0" d="M16.5,304.9c11.4,36.7,30.5,70.9,56.4,100.3v-6.6c-23.7-27.9-41.3-60.2-52.2-94.7L16.5,304.9z"/>
</g>
<g>
	<path class="st0" d="M14.8,299.2c11.2,38.9,30.9,75.1,58.1,106v-6.6c-25-29.4-43.2-63.7-53.8-100.3L14.8,299.2z"/>
</g>
<g>
	<path class="st0" d="M13.2,293.5c10.9,41.1,31.1,79.3,59.7,111.7v-6.6c-26.2-30.9-45-67.1-55.4-105.9L13.2,293.5z"/>
</g>
<g>
	<path class="st0" d="M11.8,287.7c10.4,43.2,31.3,83.6,61.1,117.5v-6.6C45.4,366.2,26.1,328,16.1,287.2L11.8,287.7z"/>
</g>
<g>
	<path class="st0" d="M10.4,282c10,45.4,31.3,87.8,62.5,123.2v-6.6c-28.7-33.8-48.6-74.1-58.1-117L10.4,282z"/>
</g>
<g>
	<path class="st0" d="M9.3,276.3c9.4,47.5,31.1,92,63.6,128.9v-6.6c-30-35.3-50.3-77.6-59.3-122.5L9.3,276.3z"/>
</g>
<g>
	<path class="st0" d="M8.2,270.7c8.7,49.6,30.9,96.2,64.7,134.5v-6.6c-31.2-36.7-51.9-81-60.3-128L8.2,270.7z"/>
</g>
<g>
	<path class="st0" d="M7.3,265.1c8,51.7,30.6,100.3,65.6,140.1v-6.6c-32.4-38.1-53.5-84.5-61.3-133.5H7.3z"/>
</g>
<g>
	<path class="st0" d="M6.7,261.2c7.5,53.2,30.3,103.2,66.2,144v-6.6c-33.2-39.2-54.6-86.9-61.8-137.4H6.7z"/>
</g>
<g>
	<path class="st0" d="M6.2,257.3c6.9,54.6,29.9,106.1,66.7,147.9v-6.6c-34.1-40.2-55.7-89.4-62.4-141.3H6.2z"/>
</g>
<g>
	<path class="st0" d="M5.7,253.4c6.2,56.1,29.5,109,67.2,151.8v-6.6C38,357.4,16.1,306.8,10.1,253.4H5.7z"/>
</g>
<g>
	<path class="st0" d="M5.3,249.5c5.6,57.5,29,111.9,67.6,155.7v-6.6c-35.8-42.2-57.8-94.3-63.3-149.1H5.3z"/>
</g>
<g>
	<path class="st0" d="M5,245.6c4.9,59,28.5,114.8,67.9,159.6v-6.6c-36.6-43.2-58.8-96.8-63.6-153H5z"/>
</g>
<g>
	<path class="st0" d="M4.7,241.7c4.2,60.4,28,117.7,68.2,163.5v-6.6C35.4,354.4,13,299.3,9,241.7H4.7z"/>
</g>
<g>
	<path class="st0" d="M4.4,237.9c3.4,61.8,27.3,120.6,68.5,167.3v-6.6C34.6,353.5,12.1,296.8,8.7,237.9H4.4z"/>
</g>
<g>
	<path class="st0" d="M4.2,234c2.6,63.2,26.6,123.6,68.7,171.2v-6.6C33.7,352.5,11.1,294.4,8.5,234H4.2z"/>
</g>
<g>
	<path class="st0" d="M4.1,230.1C5.8,294.7,30,356.5,72.9,405.2v-6.6c-40-47.1-62.8-106.7-64.5-168.5H4.1z"/>
</g>
<g>
	<path class="st0" d="M4,226.2c0.8,66,25.1,129.4,68.9,179v-6.6C32.1,350.5,9.2,289.4,8.3,226.2H4z"/>
</g>
<g>
	<path class="st0" d="M8.3,222.3H4c0,0.1,0,0.3,0,0.4c0,67.3,24.4,132,68.9,182.5v-6.6c-41.6-49-64.6-111.5-64.6-175.9
		C8.3,222.6,8.3,222.4,8.3,222.3z"/>
</g>
<g>
	<path class="st0" d="M8.3,218.4H4c0,1.4,0,2.9,0,4.3c0,67.3,24.4,132,68.9,182.5v-6.6c-41.6-49-64.6-111.5-64.6-175.9
		C8.3,221.3,8.3,219.8,8.3,218.4z"/>
</g>
<g>
	<path class="st0" d="M8.4,214.5H4.1C4.1,217.2,4,220,4,222.7c0,67.3,24.4,132,68.9,182.5v-6.6c-41.6-49-64.6-111.5-64.6-175.9
		C8.3,220,8.4,217.2,8.4,214.5z"/>
</g>
<g>
	<path class="st0" d="M8.6,210.6H4.3c-0.2,4-0.3,8-0.3,12.1c0,67.3,24.4,132,68.9,182.5v-6.6c-41.6-49-64.6-111.5-64.6-175.9
		C8.3,218.7,8.4,214.6,8.6,210.6z"/>
</g>
<g>
	<path class="st0" d="M8.8,206.7H4.5C4.2,212,4,217.4,4,222.7c0,67.3,24.4,132,68.9,182.5v-6.6c-41.6-49-64.6-111.5-64.6-175.9
		C8.3,217.4,8.5,212,8.8,206.7z"/>
</g>
<g>
	<path class="st0" d="M9,202.9H4.7C4.2,209.4,4,216,4,222.7c0,67.3,24.4,132,68.9,182.5v-6.6c-41.6-49-64.6-111.5-64.6-175.9
		C8.3,216,8.5,209.4,9,202.9z"/>
</g>
<g>
	<path class="st0" d="M9.3,199H5c-0.7,7.9-1,15.8-1,23.7c0,67.3,24.4,132,68.9,182.5v-6.6c-41.6-49-64.6-111.5-64.6-175.9
		C8.3,214.7,8.7,206.8,9.3,199z"/>
</g>
<g>
	<path class="st0" d="M9.7,195.1H5.4C4.5,204.2,4,213.4,4,222.7c0,67.3,24.4,132,68.9,182.5v-6.6c-41.6-49-64.6-111.5-64.6-175.9
		C8.3,213.4,8.8,204.2,9.7,195.1z"/>
</g>
<g>
	<path class="st0" d="M10.1,191.2H5.8C4.6,201.6,4,212.1,4,222.7c0,67.3,24.4,132,68.9,182.5v-6.6c-41.6-49-64.6-111.5-64.6-175.9
		C8.3,212.1,8.9,201.6,10.1,191.2z"/>
</g>
<g>
	<path class="st0" d="M10.6,187.3H6.2C4.8,199,4,210.8,4,222.7c0,67.3,24.4,132,68.9,182.5v-6.6c-41.6-49-64.6-111.5-64.6-175.9
		C8.3,210.8,9.1,199,10.6,187.3z"/>
</g>
<g>
	<path class="st0" d="M11.1,183.4H6.8c-1.8,12.9-2.8,26-2.8,39.3c0,67.3,24.4,132,68.9,182.5v-6.6c-41.6-49-64.6-111.5-64.6-175.9
		C8.3,209.5,9.3,196.3,11.1,183.4z"/>
</g>
<g>
	<path class="st0" d="M11.7,179.6H7.3C5.1,193.7,4,208.1,4,222.7c0,67.3,24.4,132,68.9,182.5v-6.6c-41.6-49-64.6-111.5-64.6-175.9
		C8.3,208.1,9.4,193.7,11.7,179.6z"/>
</g>
<g>
	<path class="st0" d="M12.3,175.7H8c-2.6,15.4-4,31.1-4,47c0,67.3,24.4,132,68.9,182.5v-6.6c-41.6-49-64.6-111.5-64.6-175.9
		C8.3,206.8,9.7,191.1,12.3,175.7z"/>
</g>
<g>
	<path class="st0" d="M13.1,171.8H8.7C5.6,188.4,4,205.5,4,222.7c0,67.3,24.4,132,68.9,182.5v-6.6c-41.6-49-64.6-111.5-64.6-175.9
		C8.3,205.5,9.9,188.4,13.1,171.8z"/>
</g>
<g>
	<path class="st0" d="M13.8,167.9H9.4C5.8,185.8,4,204.1,4,222.7c0,67.3,24.4,132,68.9,182.5v-6.6c-41.6-49-64.6-111.5-64.6-175.9
		C8.3,204.1,10.2,185.8,13.8,167.9z"/>
</g>
<g>
	<path class="st0" d="M14.6,164h-4.4C6.1,183.1,4,202.8,4,222.7c0,67.3,24.4,132,68.9,182.5v-6.6c-41.6-49-64.6-111.5-64.6-175.9
		C8.3,202.8,10.4,183.1,14.6,164z"/>
</g>
<g>
	<path class="st0" d="M15.5,160.1h-4.4C6.4,180.5,4,201.4,4,222.7c0,67.3,24.4,132,68.9,182.5v-6.6c-41.6-49-64.6-111.5-64.6-175.9
		C8.3,201.4,10.7,180.5,15.5,160.1z"/>
</g>
<g>
	<path class="st0" d="M16.5,156.3H12c-5.3,21.5-8,43.8-8,66.4c0,67.3,24.4,132,68.9,182.5v-6.6c-41.6-49-64.6-111.5-64.6-175.9
		C8.3,200,11.1,177.8,16.5,156.3z"/>
</g>
<g>
	<path class="st0" d="M17.5,152.4H13c-5.9,22.7-9,46.3-9,70.3c0,67.3,24.4,132,68.9,182.5v-6.6c-41.6-49-64.6-111.5-64.6-175.9
		C8.3,198.7,11.4,175.1,17.5,152.4z"/>
</g>
<g>
	<path class="st0" d="M18.5,148.5H14c-6.6,23.9-10,48.8-10,74.2c0,67.3,24.4,132,68.9,182.5v-6.6c-41.6-49-64.6-111.5-64.6-175.9
		C8.3,197.3,11.8,172.4,18.5,148.5z"/>
</g>
<g>
	<path class="st0" d="M19.7,144.6h-4.5C7.8,169.7,4,195.9,4,222.7c0,67.3,24.4,132,68.9,182.5v-6.6c-41.6-49-64.6-111.5-64.6-175.9
		C8.3,195.9,12.2,169.7,19.7,144.6z"/>
</g>
<g>
	<path class="st0" d="M20.9,140.7h-4.5C8.2,167,4,194.6,4,222.7c0,67.3,24.4,132,68.9,182.5v-6.6c-41.6-49-64.6-111.5-64.6-175.9
		C8.3,194.5,12.6,167,20.9,140.7z"/>
</g>
<g>
	<path class="st0" d="M22.1,136.9h-4.6C8.6,164.3,4,193.2,4,222.7c0,67.3,24.4,132,68.9,182.5v-6.6c-41.6-49-64.6-111.5-64.6-175.9
		C8.3,193.1,13,164.3,22.1,136.9z"/>
</g>
<g>
	<path class="st0" d="M23.4,133h-4.6C9,161.6,4,191.8,4,222.7c0,67.3,24.4,132,68.9,182.5v-6.6c-41.6-49-64.6-111.5-64.6-175.9
		C8.3,191.7,13.5,161.5,23.4,133z"/>
</g>
<g>
	<path class="st0" d="M24.8,129.1h-4.6C9.5,158.8,4,190.4,4,222.7c0,67.3,24.4,132,68.9,182.5v-6.6c-41.6-49-64.6-111.5-64.6-175.9
		C8.3,190.3,13.9,158.8,24.8,129.1z"/>
</g>
<g>
	<path class="st0" d="M26.3,125.2h-4.6C10,156.1,4,189,4,222.7c0,67.3,24.4,132,68.9,182.5v-6.6c-41.6-49-64.6-111.5-64.6-175.9
		C8.3,188.9,14.4,156,26.3,125.2z"/>
</g>
<g>
	<path class="st0" d="M27.8,121.3h-4.7C10.5,153.3,4,187.5,4,222.7c0,67.3,24.4,132,68.9,182.5v-6.6c-41.6-49-64.6-111.5-64.6-175.9
		C8.3,187.5,15,153.3,27.8,121.3z"/>
</g>
<g>
	<path class="st0" d="M29.4,117.4h-4.7C11.1,150.5,4,186.1,4,222.7c0,67.3,24.4,132,68.9,182.5v-6.6c-41.6-49-64.6-111.5-64.6-175.9
		C8.3,186.1,15.5,150.5,29.4,117.4z"/>
</g>
<g>
	<path class="st0" d="M31.1,113.6h-4.7C11.6,147.7,4,184.7,4,222.7c0,67.3,24.4,132,68.9,182.5v-6.6c-41.6-49-64.6-111.5-64.6-175.9
		C8.3,184.6,16.1,147.7,31.1,113.6z"/>
</g>
<g>
	<path class="st0" d="M32.8,109.7h-4.8C12.2,144.9,4,183.2,4,222.7c0,67.3,24.4,132,68.9,182.5v-6.6c-41.6-49-64.6-111.5-64.6-175.9
		C8.3,183.2,16.7,144.9,32.8,109.7z"/>
</g>
<g>
	<path class="st0" d="M34.6,105.8h-4.8C12.8,142.1,4,181.8,4,222.7c0,67.3,24.4,132,68.9,182.5v-6.6c-41.6-49-64.6-111.5-64.6-175.9
		C8.3,181.7,17.3,142,34.6,105.8z"/>
</g>
<g>
	<path class="st0" d="M36.5,101.9h-4.8C13.5,139.3,4,180.3,4,222.7c0,67.3,24.4,132,68.9,182.5v-6.6c-41.6-49-64.6-111.5-64.6-175.9
		C8.3,180.3,18,139.2,36.5,101.9z"/>
</g>
<g>
	<path class="st0" d="M38.5,98h-4.9C14.1,136.4,4,178.8,4,222.7c0,67.3,24.4,132,68.9,182.5v-6.6c-41.6-49-64.6-111.5-64.6-175.9
		C8.3,178.8,18.7,136.3,38.5,98z"/>
</g>
<g>
	<path class="st0" d="M40.6,94.1h-4.9C14.8,133.5,4,177.4,4,222.7c0,67.3,24.4,132,68.9,182.5v-6.6c-41.6-49-64.6-111.5-64.6-175.9
		C8.3,177.3,19.4,133.5,40.6,94.1z"/>
</g>
<g>
	<path class="st0" d="M42.7,90.3h-4.9C15.6,130.7,4,175.9,4,222.7c0,67.3,24.4,132,68.9,182.5v-6.6c-41.6-49-64.6-111.5-64.6-175.9
		C8.3,175.8,20.1,130.6,42.7,90.3z"/>
</g>
<g>
	<path class="st0" d="M44.9,86.4h-5C16.3,127.7,4,174.4,4,222.7c0,67.3,24.4,132,68.9,182.5v-6.6c-41.6-49-64.6-111.5-64.6-175.9
		C8.3,174.3,20.9,127.6,44.9,86.4z"/>
</g>
<g>
	<path class="st0" d="M47.2,82.5h-5C17.1,124.8,4,172.8,4,222.7c0,67.3,24.4,132,68.9,182.5v-6.6c-41.6-49-64.6-111.5-64.6-175.9
		C8.3,172.8,21.7,124.7,47.2,82.5z"/>
</g>
<g>
	<path class="st0" d="M49.6,78.6h-5.1C17.9,121.9,4,171.3,4,222.7c0,67.3,24.4,132,68.9,182.5v-6.6c-41.6-49-64.6-111.5-64.6-175.9
		C8.3,171.2,22.5,121.7,49.6,78.6z"/>
</g>
<g>
	<path class="st0" d="M52.1,74.7h-2.5h-2.7C18.8,118.9,4,169.8,4,222.7c0,67.3,24.4,132,68.9,182.5v-6.6
		c-41.6-49-64.6-111.5-64.6-175.9C8.3,169.7,23.4,118.8,52.1,74.7z"/>
</g>
<g>
	<path class="st0" d="M54.6,70.8h-5.1h-0.1C19.6,115.9,4,168.2,4,222.7c0,67.3,24.4,132,68.9,182.5v-6.6
		c-41.6-49-64.6-111.5-64.6-175.9C8.3,168.1,24.3,115.8,54.6,70.8z"/>
</g>
<g>
	<path class="st0" d="M57.3,67h-5.2C20.6,112.9,4,166.6,4,222.7c0,67.3,24.4,132,68.9,182.5v-6.6c-41.6-49-64.6-111.5-64.6-175.9
		C8.3,166.5,25.3,112.7,57.3,67z"/>
</g>
<g>
	<path class="st0" d="M59.4,64c0.2-0.3,0.5-0.6,0.7-0.9h-5.3C21.5,109.8,4,165,4,222.7c0,67.3,24.4,132,68.9,182.5v-6.6
		c-41.6-49-64.6-111.5-64.6-175.9C8.3,165.3,26,110.4,59.4,64z"/>
</g>
<g>
	<path class="st0" d="M59.4,64c1.2-1.6,2.4-3.2,3.6-4.8h-5.4c-0.6,0.8-1.1,1.5-1.7,2.3C21.9,108.6,4,164.4,4,222.7
		c0,67.3,24.4,132,68.9,182.5v-6.6c-41.6-49-64.6-111.5-64.6-175.9C8.3,165.3,26,110.4,59.4,64z"/>
</g>
<g>
	<path class="st0" d="M66,55.3h-5.5c-1.6,2-3.1,4.1-4.6,6.2C21.9,108.6,4,164.4,4,222.7c0,67.3,24.4,132,68.9,182.5v-6.6
		c-41.6-49-64.6-111.5-64.6-175.9C8.3,165.3,26,110.4,59.4,64C61.5,61.1,63.7,58.2,66,55.3L66,55.3z"/>
</g>
<g>
	<path class="st0" d="M69,51.4h-5.5c-2.6,3.3-5.2,6.6-7.7,10.1C21.9,108.6,4,164.4,4,222.7c0,67.3,24.4,132,68.9,182.5v-6.6
		c-41.6-49-64.6-111.5-64.6-175.9C8.3,165.3,26,110.4,59.4,64C62.5,59.7,65.7,55.5,69,51.4L69,51.4z"/>
</g>
<g>
	<path class="st0" d="M98.6,20.4c0.9-0.8,1.9-1.6,2.8-2.5C100.4,18.7,99.5,19.6,98.6,20.4z"/>
	<path class="st0" d="M75.6,43.7h-5.7c-4.9,5.7-9.6,11.7-14,17.8C21.9,108.6,4,164.4,4,222.7c0,67.3,24.4,132,68.9,182.5v-6.6
		c-41.6-49-64.6-111.5-64.6-175.9C8.3,165.3,26,110.4,59.4,64C64.5,57,69.9,50.2,75.6,43.7L75.6,43.7z"/>
</g>
<g>
	<path class="st0" d="M79.1,39.8h-5.7c-6.1,6.9-12,14.2-17.4,21.7C21.9,108.6,4,164.4,4,222.7c0,67.3,24.4,132,68.9,182.5v-6.6
		c-41.6-49-64.6-111.5-64.6-175.9C8.3,165.3,26,110.4,59.4,64C65.5,55.6,72.1,47.5,79.1,39.8L79.1,39.8z"/>
</g>
<g>
	<path class="st0" d="M59.4,64c7.1-9.9,14.9-19.2,23.3-28.1l0,0h-5.9C69.4,44,62.4,52.5,55.9,61.5C21.9,108.6,4,164.4,4,222.7
		c0,67.3,24.4,132,68.9,182.5v-6.6c-41.6-49-64.6-111.5-64.6-175.9C8.3,165.3,26,110.4,59.4,64z"/>
</g>
<g>
	<path class="st0" d="M86.4,32h-6c-8.8,9.2-17,19.1-24.5,29.5C21.9,108.6,4,164.4,4,222.7c0,67.3,24.4,132,68.9,182.5v-6.6
		c-41.6-49-64.6-111.5-64.6-175.9C8.3,165.3,26,110.4,59.4,64C67.6,52.7,76.6,42,86.4,32L86.4,32z"/>
</g>
<g>
	<path class="st0" d="M90.3,28.1h-6.1C73.9,38.5,64.5,49.6,55.9,61.5C21.9,108.6,4,164.4,4,222.7c0,67.3,24.4,132,68.9,182.5v-6.6
		c-41.6-49-64.6-111.5-64.6-175.9C8.3,165.3,26,110.4,59.4,64C68.6,51.2,79,39.2,90.3,28.1C90.4,28.1,90.4,28.1,90.3,28.1z"/>
</g>
<g>
	<path class="st0" d="M94.4,24.3h-6.2C76.3,35.7,65.6,48.1,55.9,61.5C21.9,108.6,4,164.4,4,222.7c0,67.3,24.4,132,68.9,182.5v-6.6
		c-41.6-49-64.6-111.5-64.6-175.9C8.3,165.3,26,110.4,59.4,64C69.7,49.7,81.5,36.4,94.4,24.3z"/>
</g>
<g>
	<path class="st0" d="M98.6,20.4h-6.4C78.8,32.9,66.7,46.6,55.9,61.5C21.9,108.6,4,164.4,4,222.7c0,67.3,24.4,132,68.9,182.5v-6.6
		c-41.6-49-64.6-111.5-64.6-175.9C8.3,165.3,26,110.4,59.4,64C70.8,48.1,84,33.5,98.6,20.4z"/>
</g>
<g>
	<path class="st0" d="M103,16.5h-6.5C81.3,30,67.8,45.1,55.9,61.5C21.9,108.6,4,164.4,4,222.7c0,67.3,24.4,132,68.9,182.5v-6.6
		c-41.6-49-64.6-111.5-64.6-175.9C8.3,165.3,26,110.4,59.4,64C72,46.6,86.6,30.6,103,16.5z"/>
</g>
</svg>
