<?xml version="1.0" encoding="utf-8"?>
<!-- Generator: Adobe Illustrator 25.1.0, SVG Export Plug-In . SVG Version: 6.00 Build 0)  -->
<svg version="1.1" id="animated" xmlns="http://www.w3.org/2000/svg" xmlns:xlink="http://www.w3.org/1999/xlink" x="0px" y="0px"
	 viewBox="0 0 132 410" style="enable-background:new 0 0 132 410;" xml:space="preserve">
<style type="text/css">
	.st0{fill:#6CB8C7;}
	.st1{fill:#D4F014;}
	.st2{fill:#CFEE17;}
	.st3{fill:#CAEC1A;}
	.st4{fill:#C5EA1C;}
	.st5{fill:#C0E81F;}
	.st6{fill:#BAE621;}
	.st7{fill:#B5E424;}
	.st8{fill:#B0E226;}
	.st9{fill:#ABE029;}
	.st10{fill:#A6DE2C;}
	.st11{fill:#A1DC2E;}
	.st12{fill:#9CDB31;}
	.st13{fill:#97D933;}
	.st14{fill:#92D736;}
	.st15{fill:#8DD538;}
	.st16{fill:#88D33B;}
	.st17{fill:#83D13D;}
	.st18{fill:#7ECF40;}
	.st19{fill:#79CD43;}
	.st20{fill:#74CB45;}
	.st21{fill:#6FC948;}
	.st22{fill:#6AC74A;}
	.st23{fill:#65C54D;}
	.st24{fill:#60C34F;}
	.st25{fill:#5BC252;}
	.st26{fill:#56C054;}
	.st27{fill:#51BE57;}
	.st28{fill:#4CBC5A;}
	.st29{fill:#47BA5C;}
	.st30{fill:#42B85F;}
	.st31{fill:#3CB661;}
	.st32{fill:#37B464;}
	.st33{fill:#32B266;}
	.st34{fill:#2DB069;}
	.st35{fill:#28AE6C;}
	.st36{fill:#23AC6E;}
	.st37{fill:#1EAB71;}
	.st38{fill:#19A973;}
	.st39{fill:#14A776;}
	.st40{fill:#0FA578;}
	.st41{fill:#0AA37B;}
	.st42{fill:#05A17D;}
	.st43{fill:#009F80;}
	.st44{fill:#059D83;}
	.st45{fill:#0A9B85;}
	.st46{fill:#0E9888;}
	.st47{fill:#13968A;}
	.st48{fill:#18948D;}
	.st49{fill:#1D928F;}
	.st50{fill:#228F92;}
	.st51{fill:#278D94;}
	.st52{fill:#2B8B97;}
	.st53{fill:#308999;}
	.st54{fill:#35869C;}
	.st55{fill:#3A849E;}
	.st56{fill:#3F82A1;}
	.st57{fill:#4380A4;}
	.st58{fill:#487EA7;}
	.st59{fill:#4D7BA9;}
	.st60{fill:#5279AC;}
	.st61{fill:#5677AE;}
	.st62{fill:#5B75B1;}
	.st63{fill:#6072B3;}
	.st64{fill:#6570B6;}
	.st65{fill:#6A6EB8;}
	.st66{fill:#6F6CBB;}
	.st67{fill:#7369BD;}
	.st68{fill:#7867C0;}
	.st69{fill:#7D65C2;}
	.st70{fill:#8263C5;}
	.st71{fill:#8760C7;}
	.st72{fill:#8C5ECA;}
	.st73{fill:#905CCC;}
	.st74{fill:#955ACF;}
	.st75{fill:#9A57D2;}
	.st76{fill:#9F55D4;}
	.st77{fill:#A453D7;}
	.st78{fill:#A851D9;}
	.st79{fill:#AD4FDC;}
	.st80{fill:#B24CDE;}
	.st81{fill:#B74AE1;}
	.st82{fill:#BC48E3;}
	.st83{fill:#C146E6;}
	.st84{fill:#C543E8;}
	.st85{fill:#CA41EB;}
	.st86{fill:#CF3FED;}
</style>
<g id="_x30_">
	<path class="st0" d="M96.4,16.5h6.6c0.2-0.1,0.3-0.3,0.5-0.4h-6.6C96.7,16.2,96.5,16.4,96.4,16.5z"/>
</g>
<g id="_x31_">
	<path class="st0" d="M92.1,20.4h6.5c1.6-1.5,3.2-2.9,4.9-4.3h-6.6C95.3,17.5,93.7,18.9,92.1,20.4z"/>
</g>
<g id="_x32_">
	<path class="st0" d="M88.1,24.3h6.3c3-2.8,6-5.5,9.1-8.2h-6.6C93.9,18.7,90.9,21.5,88.1,24.3z"/>
</g>
<g id="_x33_">
	<path class="st0" d="M84.1,28.1h6.2c4.3-4.2,8.6-8.2,13.2-12.1h-6.6C92.5,19.9,88.3,24,84.1,28.1z"/>
</g>
<g id="_x34_">
	<path class="st0" d="M80.3,32h6.1c5.5-5.6,11.2-10.9,17.1-16h-6.6C91.1,21.2,85.6,26.5,80.3,32z"/>
</g>
<g id="_x35_">
	<path class="st0" d="M76.7,35.9h6c6.6-7,13.5-13.6,20.8-19.8h-6.6C89.8,22.3,83.1,29,76.7,35.9z"/>
</g>
<g id="_x36_">
	<path class="st0" d="M73.2,39.8h5.8c7.6-8.4,15.8-16.3,24.4-23.7h-6.6C88.5,23.5,80.6,31.4,73.2,39.8z"/>
</g>
<g id="_x37_">
	<path class="st1" d="M69.8,43.7h5.8c8.6-9.8,17.9-19.1,27.9-27.6h-6.6C87.2,24.6,78.2,33.9,69.8,43.7z"/>
</g>
<g id="_x38_">
	<path class="st2" d="M63.5,51.4H69c10.4-12.8,21.9-24.6,34.4-35.4h-6.6C84.7,26.8,73.5,38.7,63.5,51.4z"/>
</g>
<g id="_x39_">
	<path class="st3" d="M60.4,55.3H66C77.1,41,89.7,27.9,103.5,16.1h-6.6C83.5,27.9,71.3,41.1,60.4,55.3z"/>
</g>
<g id="_x31_0">
	<path class="st4" d="M57.6,59.2H63c11.9-15.8,25.5-30.3,40.5-43.1h-6.6C82.3,29,69.1,43.5,57.6,59.2z"/>
</g>
<g id="_x31_1">
	<path class="st5" d="M55.9,61.4c-0.4,0.5-0.8,1.1-1.2,1.7h5.4c12.6-17.3,27.1-33.1,43.4-47h-6.6C81.6,29.6,67.8,44.9,55.9,61.4z"/>
</g>
<g id="_x31_2">
	<path class="st6" d="M55.9,61.4c-1.3,1.8-2.6,3.7-3.9,5.5h5.3c0.7-1,1.4-2,2.1-3v0c12.7-17.6,27.5-33.7,44-47.9h-6.6
		C81.6,29.6,67.8,44.9,55.9,61.4z"/>
</g>
<g id="_x31_3">
	<path class="st7" d="M55.9,61.4c-2.2,3.1-4.4,6.2-6.5,9.4h0.2h5.1c1.6-2.3,3.2-4.6,4.8-6.9v0c12.7-17.6,27.5-33.7,44-47.9h-6.6
		C81.6,29.6,67.8,44.9,55.9,61.4z"/>
</g>
<g id="_x31_4">
	<path class="st8" d="M55.9,61.4c-3.1,4.4-6.1,8.8-9,13.3h2.7h2.5c2.4-3.6,4.8-7.2,7.4-10.8v0c12.7-17.6,27.5-33.7,44-47.9h-6.6
		C81.6,29.6,67.8,44.9,55.9,61.4z"/>
</g>
<g id="_x31_5">
	<path class="st9" d="M55.9,61.4c-4,5.6-7.8,11.3-11.4,17.2h5.1h0c3.1-5,6.4-9.9,9.8-14.7v0c12.7-17.6,27.5-33.7,44-47.9h-6.6
		C81.6,29.6,67.8,44.9,55.9,61.4z"/>
</g>
<g id="_x31_6">
	<path class="st10" d="M55.9,61.4c-4.9,6.8-9.5,13.9-13.8,21.1h5.1C51,76.2,55.1,70,59.4,64v0c12.7-17.6,27.5-33.7,44-47.9h-6.6
		C81.6,29.6,67.8,44.9,55.9,61.4z"/>
</g>
<g id="_x31_7">
	<path class="st11" d="M55.9,61.4c-5.8,8.1-11.1,16.4-16,25h5c4.5-7.7,9.3-15.1,14.5-22.4v0c12.7-17.6,27.5-33.7,44-47.9h-6.6
		C81.6,29.6,67.8,44.9,55.9,61.4z"/>
</g>
<g id="_x31_8">
	<path class="st12" d="M55.9,61.4c-6.7,9.3-12.8,18.9-18.2,28.8h5c5.1-9,10.6-17.8,16.8-26.3v0c12.7-17.6,27.5-33.7,44-47.9h-6.6
		C81.6,29.6,67.8,44.9,55.9,61.4z"/>
</g>
<g id="_x31_9">
	<path class="st13" d="M55.9,61.4c-7.6,10.5-14.3,21.4-20.3,32.7h4.9C46.2,83.7,52.4,73.7,59.4,64v0c12.7-17.6,27.5-33.7,44-47.9
		h-6.6C81.6,29.6,67.8,44.9,55.9,61.4z"/>
</g>
<g id="_x32_0">
	<path class="st14" d="M55.9,61.4C47.5,73.1,40,85.4,33.6,98h4.9C44.6,86.3,51.6,74.9,59.4,64v0c12.7-17.6,27.5-33.7,44-47.9h-6.6
		C81.6,29.6,67.8,44.9,55.9,61.4z"/>
</g>
<g id="_x32_1">
	<path class="st15" d="M55.9,61.4c-9.3,12.9-17.4,26.4-24.2,40.5h4.9c6.5-13.2,14.2-25.8,22.9-38v0c12.7-17.6,27.5-33.7,44-47.9
		h-6.6C81.6,29.6,67.8,44.9,55.9,61.4z"/>
</g>
<g id="_x32_2">
	<path class="st16" d="M55.9,61.4c-10.1,14.1-18.8,28.9-26.1,44.4h4.8C41.6,91.2,49.9,77.3,59.4,64v0c12.7-17.6,27.5-33.7,44-47.9
		h-6.6C81.6,29.6,67.8,44.9,55.9,61.4z"/>
</g>
<g id="_x32_3">
	<path class="st17" d="M55.9,61.4c-11,15.3-20.3,31.4-27.9,48.2h4.8C40.1,93.7,49,78.4,59.4,64v0c12.7-17.6,27.5-33.7,44-47.9h-6.6
		C81.6,29.6,67.8,44.9,55.9,61.4z"/>
</g>
<g id="_x32_4">
	<path class="st18" d="M55.9,61.4c-11.8,16.4-21.7,33.9-29.6,52.1h4.7c7.6-17.3,17.1-34,28.4-49.6v0c12.7-17.6,27.5-33.7,44-47.9
		h-6.6C81.6,29.6,67.8,44.9,55.9,61.4z"/>
</g>
<g id="_x32_5">
	<path class="st19" d="M55.9,61.4c-12.7,17.6-23.1,36.4-31.2,56h4.7c7.9-18.7,17.9-36.7,30-53.5v0c12.7-17.6,27.5-33.7,44-47.9h-6.6
		C81.6,29.6,67.8,44.9,55.9,61.4z"/>
</g>
<g id="_x32_6">
	<path class="st20" d="M55.9,61.4c-13.5,18.7-24.4,38.8-32.8,59.9h4.7c8.1-20.2,18.7-39.4,31.6-57.4v0c12.7-17.6,27.5-33.7,44-47.9
		h-6.6C81.6,29.6,67.8,44.9,55.9,61.4z"/>
</g>
<g id="_x32_7">
	<path class="st21" d="M55.9,61.4c-14.3,19.9-25.8,41.3-34.3,63.8h4.6c8.3-21.6,19.4-42.1,33.1-61.2v0c12.7-17.6,27.5-33.7,44-47.9
		h-6.6C81.6,29.6,67.8,44.9,55.9,61.4z"/>
</g>
<g id="_x32_8">
	<path class="st22" d="M55.9,61.4c-15.1,21-27.1,43.8-35.7,67.7h4.6c8.4-23,20-44.9,34.6-65.1v0c12.7-17.6,27.5-33.7,44-47.9h-6.6
		C81.6,29.6,67.8,44.9,55.9,61.4z"/>
</g>
<g id="_x32_9">
	<path class="st23" d="M55.9,61.4c-16,22.2-28.4,46.2-37.1,71.5h4.6c8.5-24.4,20.6-47.6,36-69v0c12.7-17.6,27.5-33.7,44-47.9h-6.6
		C81.6,29.6,67.8,44.9,55.9,61.4z"/>
</g>
<g id="_x33_0">
	<path class="st24" d="M55.9,61.4c-16.8,23.3-29.6,48.7-38.4,75.4h4.6C30.7,111,43.2,86.5,59.4,64v0c12.7-17.6,27.5-33.7,44-47.9
		h-6.6C81.6,29.6,67.8,44.9,55.9,61.4z"/>
</g>
<g id="_x33_1">
	<path class="st25" d="M55.9,61.4C38.3,85.8,25,112.6,16.3,140.7h4.6c8.6-27.3,21.5-53.1,38.6-76.8v0c12.7-17.6,27.5-33.7,44-47.9
		h-6.6C81.6,29.6,67.8,44.9,55.9,61.4z"/>
</g>
<g id="_x33_2">
	<path class="st26" d="M55.9,61.4C37.5,87,23.8,115,15.1,144.6h4.5c8.6-28.7,21.9-55.9,39.8-80.7v0c12.7-17.6,27.5-33.7,44-47.9
		h-6.6C81.6,29.6,67.8,44.9,55.9,61.4z"/>
</g>
<g id="_x33_3">
	<path class="st27" d="M55.9,61.4c-19.2,26.6-33.3,56-41.9,87.1h4.5c8.5-30.1,22.3-58.7,40.9-84.5v0c12.7-17.6,27.5-33.7,44-47.9
		h-6.6C81.6,29.6,67.8,44.9,55.9,61.4z"/>
</g>
<g id="_x33_4">
	<path class="st28" d="M55.9,61.4c-20,27.8-34.4,58.5-42.9,91h4.5C25.9,120.8,40,91,59.4,64v0c12.7-17.6,27.5-33.7,44-47.9h-6.6
		C81.6,29.6,67.8,44.9,55.9,61.4z"/>
</g>
<g id="_x33_5">
	<path class="st29" d="M55.9,61.4C35.1,90.3,20.3,122.4,12,156.3h4.5c8.3-33,22.7-64.2,43-92.3v0c12.7-17.6,27.5-33.7,44-47.9h-6.6
		C81.6,29.6,67.8,44.9,55.9,61.4z"/>
</g>
<g id="_x33_6">
	<path class="st30" d="M55.9,61.4c-21.6,30-36.7,63.4-44.8,98.7h4.5c8.1-34.4,22.9-67,43.9-96.2v0c12.7-17.6,27.5-33.7,44-47.9h-6.6
		C81.6,29.6,67.8,44.9,55.9,61.4z"/>
</g>
<g id="_x33_7">
	<path class="st31" d="M55.9,61.4C33.5,92.5,18.1,127.3,10.2,164h4.5c7.9-35.9,23-69.8,44.8-100.1v0c12.7-17.6,27.5-33.7,44-47.9
		h-6.6C81.6,29.6,67.8,44.9,55.9,61.4z"/>
</g>
<g id="_x33_8">
	<path class="st32" d="M55.9,61.4C32.8,93.6,17.1,129.7,9.4,167.9h4.4c7.6-37.3,23-72.6,45.6-104v0c12.7-17.6,27.5-33.7,44-47.9
		h-6.6C81.6,29.6,67.8,44.9,55.9,61.4z"/>
</g>
<g id="_x33_9">
	<path class="st33" d="M55.9,61.4C32,94.7,16,132.1,8.6,171.8h4.4C20.4,133.1,36,96.4,59.4,64v0c12.7-17.6,27.5-33.7,44-47.9h-6.6
		C81.6,29.6,67.8,44.9,55.9,61.4z"/>
</g>
<g id="_x34_0">
	<path class="st34" d="M55.9,61.4C31.2,95.7,15,134.6,8,175.7h4.4c7-40.2,22.9-78.2,47.1-111.7v0c12.7-17.6,27.5-33.7,44-47.9h-6.6
		C81.6,29.6,67.8,44.9,55.9,61.4z"/>
</g>
<g id="_x34_1">
	<path class="st35" d="M55.9,61.4C30.4,96.8,13.9,137,7.3,179.6h4.4C18.3,138,34.5,98.6,59.4,64v0c12.7-17.6,27.5-33.7,44-47.9h-6.6
		C81.6,29.6,67.8,44.9,55.9,61.4z"/>
</g>
<g id="_x34_2">
	<path class="st36" d="M55.9,61.4C29.6,97.9,13,139.5,6.7,183.4h4.4c6.2-43,22.6-83.8,48.3-119.5v0c12.7-17.6,27.5-33.7,44-47.9
		h-6.6C81.6,29.6,67.8,44.9,55.9,61.4z"/>
</g>
<g id="_x34_3">
	<path class="st37" d="M55.9,61.4C28.9,99,12,141.9,6.2,187.3h4.4c5.7-44.5,22.3-86.6,48.8-123.4v0c12.7-17.6,27.5-33.7,44-47.9
		h-6.6C81.6,29.6,67.8,44.9,55.9,61.4z"/>
</g>
<g id="_x34_4">
	<path class="st38" d="M55.9,61.4C28.1,100,11,144.4,5.8,191.2h4.4c5.3-45.9,22-89.4,49.3-127.3v0c12.7-17.6,27.5-33.7,44-47.9h-6.6
		C81.6,29.6,67.8,44.9,55.9,61.4z"/>
</g>
<g id="_x34_5">
	<path class="st39" d="M55.9,61.4c-28.6,39.7-45.8,85.4-50.6,133.7h4.4c4.7-47.3,21.7-92.2,49.7-131.1v0
		c12.7-17.6,27.5-33.7,44-47.9h-6.6C81.6,29.6,67.8,44.9,55.9,61.4z"/>
</g>
<g id="_x34_6">
	<path class="st40" d="M55.9,61.4C26.6,102.2,9.2,149.3,5,199h4.4c4.2-48.8,21.3-95,50.1-135v0c12.7-17.6,27.5-33.7,44-47.9h-6.6
		C81.6,29.6,67.8,44.9,55.9,61.4z"/>
</g>
<g id="_x34_7">
	<path class="st41" d="M55.9,61.4C25.8,103.2,8.3,151.8,4.7,202.9H9C12.6,152.7,29.9,105,59.4,64v0c12.7-17.6,27.5-33.7,44-47.9
		h-6.6C81.6,29.6,67.8,44.9,55.9,61.4z"/>
</g>
<g id="_x34_8">
	<path class="st42" d="M55.9,61.4C25,104.3,7.4,154.2,4.4,206.7h4.4c3-51.6,20.3-100.7,50.7-142.8v0c12.7-17.6,27.5-33.7,44-47.9
		h-6.6C81.6,29.6,67.8,44.9,55.9,61.4z"/>
</g>
<g id="_x34_9">
	<path class="st43" d="M55.9,61.4C24.3,105.3,6.5,156.7,4.2,210.6h4.4c2.3-53,19.8-103.5,50.8-146.7v0c12.7-17.6,27.5-33.7,44-47.9
		h-6.6C81.6,29.6,67.8,44.9,55.9,61.4z"/>
</g>
<g id="_x35_0">
	<path class="st44" d="M55.9,61.4c-32.4,45-50.2,97.7-51.8,153.1h4.3c1.6-54.4,19.1-106.3,51-150.6v0c12.7-17.6,27.5-33.7,44-47.9
		h-6.6C81.6,29.6,67.8,44.9,55.9,61.4z"/>
</g>
<g id="_x35_1">
	<path class="st45" d="M55.9,61.4c-33.1,46-51,100.2-51.9,157h4.3C9.2,162.5,26.8,109.2,59.4,64v0c12.7-17.6,27.5-33.7,44-47.9h-6.6
		C81.6,29.6,67.8,44.9,55.9,61.4z"/>
</g>
<g id="_x35_2">
	<path class="st46" d="M55.9,61.4C22,108.5,4.1,164.1,4,222.3h4.3C8.4,165,26.1,110.3,59.4,64v0c12.7-17.6,27.5-33.7,44-47.9h-6.6
		C81.6,29.6,67.8,44.9,55.9,61.4z"/>
</g>
<g id="_x35_3">
	<path class="st47" d="M55.9,61.4C21.9,108.6,4,164.4,4,222.7c0,1.2,0,2.3,0,3.5h4.3c0-1.2,0-2.3,0-3.5C8.3,165.3,26,110.4,59.4,64
		v0c12.7-17.6,27.5-33.7,44-47.9h-6.6C81.6,29.6,67.8,44.9,55.9,61.4z"/>
</g>
<g id="_x35_4">
	<path class="st48" d="M55.9,61.4C21.9,108.6,4,164.4,4,222.7c0,2.5,0,4.9,0.1,7.4h4.4c-0.1-2.5-0.1-4.9-0.1-7.4
		C8.3,165.3,26,110.4,59.4,64v0c12.7-17.6,27.5-33.7,44-47.9h-6.6C81.6,29.6,67.8,44.9,55.9,61.4z"/>
</g>
<g id="_x35_5">
	<path class="st49" d="M55.9,61.4C21.9,108.6,4,164.4,4,222.7c0,3.8,0.1,7.5,0.2,11.3h4.3c-0.2-3.8-0.2-7.5-0.2-11.3
		C8.3,165.3,26,110.4,59.4,64v0c12.7-17.6,27.5-33.7,44-47.9h-6.6C81.6,29.6,67.8,44.9,55.9,61.4z"/>
</g>
<g id="_x35_6">
	<path class="st50" d="M55.9,61.4C21.9,108.6,4,164.4,4,222.7c0,5.1,0.2,10.1,0.4,15.2h4.4c-0.3-5-0.4-10.1-0.4-15.2
		C8.3,165.3,26,110.4,59.4,64v0c12.7-17.6,27.5-33.7,44-47.9h-6.6C81.6,29.6,67.8,44.9,55.9,61.4z"/>
</g>
<g id="_x35_7">
	<path class="st51" d="M55.9,61.4C21.9,108.6,4,164.4,4,222.7c0,6.4,0.2,12.7,0.7,19.1H9c-0.4-6.3-0.7-12.7-0.7-19.1
		C8.3,165.3,26,110.4,59.4,64v0c12.7-17.6,27.5-33.7,44-47.9h-6.6C81.6,29.6,67.8,44.9,55.9,61.4z"/>
</g>
<g id="_x35_8">
	<path class="st52" d="M96.9,16.1c-15.3,13.6-29,28.8-41,45.4C21.9,108.6,4,164.4,4,222.7c0,7.7,0.3,15.4,1,23h4.4
		c-0.6-7.6-1-15.3-1-23C8.3,165.3,26,110.4,59.4,64v0c12.7-17.6,27.5-33.7,44-47.9H96.9z"/>
</g>
<g id="_x35_9">
	<path class="st53" d="M96.9,16.1c-15.3,13.6-29,28.8-41,45.4C21.9,108.6,4,164.4,4,222.7c0,9,0.5,18,1.3,26.9h4.4
		c-0.9-8.9-1.3-17.9-1.3-26.9C8.3,165.3,26,110.4,59.4,64v0c12.7-17.6,27.5-33.7,44-47.9H96.9z"/>
</g>
<g id="_x36_0">
	<path class="st54" d="M96.9,16.1c-15.3,13.6-29,28.8-41,45.4C21.9,108.6,4,164.4,4,222.7c0,10.3,0.6,20.6,1.7,30.8h4.4
		c-1.2-10.2-1.8-20.4-1.8-30.8C8.3,165.3,26,110.4,59.4,64v0c12.7-17.6,27.5-33.7,44-47.9H96.9z"/>
</g>
<g id="_x36_1">
	<path class="st55" d="M96.9,16.1c-15.3,13.6-29,28.8-41,45.4C21.9,108.6,4,164.4,4,222.7c0,11.6,0.7,23.2,2.2,34.6h4.4
		c-1.5-11.4-2.2-23-2.2-34.6C8.3,165.3,26,110.4,59.4,64v0c12.7-17.6,27.5-33.7,44-47.9H96.9z"/>
</g>
<g id="_x36_2">
	<path class="st56" d="M96.9,16.1c-15.3,13.6-29,28.8-41,45.4C21.9,108.6,4,164.4,4,222.7c0,13,0.9,25.8,2.7,38.5h4.4
		c-1.8-12.7-2.8-25.6-2.8-38.5C8.3,165.3,26,110.4,59.4,64v0c12.7-17.6,27.5-33.7,44-47.9H96.9z"/>
</g>
<g id="_x36_3">
	<path class="st57" d="M55.9,61.4C21.9,108.6,4,164.4,4,222.7c0,14.3,1.1,28.5,3.3,42.4h4.4c-2.2-14-3.3-28.1-3.3-42.4
		C8.3,165.3,26,110.4,59.4,64v0c12.7-17.6,27.5-33.7,44-47.9h-6.6C81.6,29.6,67.8,44.9,55.9,61.4z"/>
</g>
<g id="_x36_4">
	<path class="st58" d="M55.9,61.4C21.9,108.6,4,164.4,4,222.7c0,16.2,1.4,32.3,4.2,48l4.4-0.1c-2.8-15.7-4.3-31.7-4.3-47.9
		C8.3,165.3,26,110.4,59.4,64v0c12.7-17.6,27.5-33.7,44-47.9h-6.6C81.6,29.6,67.8,44.9,55.9,61.4z"/>
</g>
<g id="_x36_5">
	<path class="st59" d="M55.9,61.4C21.9,108.6,4,164.4,4,222.7c0,18.1,1.8,36.1,5.3,53.7l4.4-0.3c-3.5-17.5-5.3-35.4-5.3-53.4
		C8.3,165.3,26,110.4,59.4,64v0c12.7-17.6,27.5-33.7,44-47.9h-6.6C81.6,29.6,67.8,44.9,55.9,61.4z"/>
</g>
<g id="_x36_6">
	<path class="st60" d="M55.9,61.4C21.9,108.6,4,164.4,4,222.7c0,20.1,2.2,40,6.4,59.3l4.4-0.4c-4.3-19.2-6.5-39-6.5-58.9
		C8.3,165.3,26,110.4,59.4,64v0c12.7-17.6,27.5-33.7,44-47.9h-6.6C81.6,29.6,67.8,44.9,55.9,61.4z"/>
</g>
<g id="_x36_7">
	<path class="st61" d="M55.9,61.4C21.9,108.6,4,164.4,4,222.7c0,22.1,2.7,43.9,7.8,65.1l4.4-0.6c-5.1-21-7.8-42.6-7.8-64.5
		C8.3,165.3,26,110.4,59.4,64v0c12.7-17.6,27.5-33.7,44-47.9h-6.6C81.6,29.6,67.8,44.9,55.9,61.4z"/>
</g>
<g id="_x36_8">
	<path class="st62" d="M55.9,61.4C21.9,108.6,4,164.4,4,222.7c0,24.1,3.2,47.9,9.2,70.8l4.3-0.7c-6.1-22.7-9.2-46.2-9.2-70.1
		C8.3,165.3,26,110.4,59.4,64v0c12.7-17.6,27.5-33.7,44-47.9h-6.6C81.6,29.6,67.8,44.9,55.9,61.4z"/>
</g>
<g id="_x36_9">
	<path class="st63" d="M55.9,61.4C21.9,108.6,4,164.4,4,222.7c0,26.1,3.7,51.9,10.8,76.5l4.3-0.9C12,273.9,8.3,248.4,8.3,222.7
		C8.3,165.3,26,110.4,59.4,64v0c12.7-17.6,27.5-33.7,44-47.9h-6.6C81.6,29.6,67.8,44.9,55.9,61.4z"/>
</g>
<g id="_x37_0">
	<path class="st64" d="M55.9,61.4C21.9,108.6,4,164.4,4,222.7c0,28.2,4.3,55.9,12.5,82.3l4.3-1.1c-8.2-26.1-12.4-53.5-12.4-81.2
		C8.3,165.3,26,110.4,59.4,64v0c12.7-17.6,27.5-33.7,44-47.9h-6.6C81.6,29.6,67.8,44.9,55.9,61.4z"/>
</g>
<g id="_x37_1">
	<path class="st65" d="M55.9,61.4C21.9,108.6,4,164.4,4,222.7c0,30.2,4.9,59.9,14.4,88l4.2-1.2c-9.3-27.8-14.2-57-14.2-86.7
		C8.3,165.3,26,110.4,59.4,64v0c12.7-17.6,27.5-33.7,44-47.9h-6.6C81.6,29.6,67.8,44.9,55.9,61.4z"/>
</g>
<g id="_x37_2">
	<path class="st66" d="M55.9,61.4C21.9,108.6,4,164.4,4,222.7c0,32.2,5.6,63.9,16.4,93.7l4.1-1.4c-10.6-29.4-16.1-60.6-16.1-92.2
		C8.3,165.3,26,110.4,59.4,64v0c12.7-17.6,27.5-33.7,44-47.9h-6.6C81.6,29.6,67.8,44.9,55.9,61.4z"/>
</g>
<g id="_x37_3">
	<path class="st67" d="M55.9,61.4C21.9,108.6,4,164.4,4,222.7c0,34.3,6.4,67.9,18.5,99.3l4.1-1.6c-11.9-30.9-18.2-64-18.2-97.7
		C8.3,165.3,26,110.4,59.4,64v0c12.7-17.6,27.5-33.7,44-47.9h-6.6C81.6,29.6,67.8,44.9,55.9,61.4z"/>
</g>
<g id="_x37_4">
	<path class="st68" d="M55.9,61.4C21.9,108.6,4,164.4,4,222.7c0,36.3,7.1,71.9,20.7,104.9l4-1.8C15.3,293.3,8.3,258.3,8.3,222.7
		C8.3,165.3,26,110.4,59.4,64v0c12.7-17.6,27.5-33.7,44-47.9h-6.6C81.6,29.6,67.8,44.9,55.9,61.4z"/>
</g>
<g id="_x37_5">
	<path class="st69" d="M55.9,61.4C21.9,108.6,4,164.4,4,222.7C4,261,11.9,298.5,27,333l3.9-2C16.1,297.1,8.3,260.2,8.3,222.7
		C8.3,165.3,26,110.4,59.4,64v0c12.7-17.6,27.5-33.7,44-47.9h-6.6C81.6,29.6,67.8,44.9,55.9,61.4z"/>
</g>
<g id="_x37_6">
	<path class="st70" d="M55.9,61.4C21.9,108.6,4,164.4,4,222.7c0,40.3,8.8,79.7,25.4,115.7l3.8-2.2C16.9,300.8,8.3,262.1,8.3,222.7
		C8.3,165.3,26,110.4,59.4,64v0c12.7-17.6,27.5-33.7,44-47.9h-6.6C81.6,29.6,67.8,44.9,55.9,61.4z"/>
</g>
<g id="_x37_7">
	<path class="st71" d="M55.9,61.4C21.9,108.6,4,164.4,4,222.7c0,42.3,9.7,83.6,27.9,121l3.7-2.4C17.8,304.5,8.3,264,8.3,222.7
		C8.3,165.3,26,110.4,59.4,64v0c12.7-17.6,27.5-33.7,44-47.9h-6.6C81.6,29.6,67.8,44.9,55.9,61.4z"/>
</g>
<g id="_x37_8">
	<path class="st72" d="M55.9,61.4C21.9,108.6,4,164.4,4,222.7c0,44.2,10.6,87.4,30.4,126.1l3.6-2.6c-19.3-38-29.6-80.3-29.6-123.4
		C8.3,165.3,26,110.4,59.4,64v0c12.7-17.6,27.5-33.7,44-47.9h-6.6C81.6,29.6,67.8,44.9,55.9,61.4z"/>
</g>
<g id="_x37_9">
	<path class="st73" d="M55.9,61.4C21.9,108.6,4,164.4,4,222.7c0,46.1,11.5,91.1,33,131l3.4-2.8C19.5,311.7,8.3,267.6,8.3,222.7
		C8.3,165.3,26,110.4,59.4,64v0c12.7-17.6,27.5-33.7,44-47.9h-6.6C81.6,29.6,67.8,44.9,55.9,61.4z"/>
</g>
<g id="_x38_0">
	<path class="st74" d="M55.9,61.4C21.9,108.6,4,164.4,4,222.7c0,48,12.4,94.6,35.7,135.8l3.3-3c-22.5-40.3-34.6-86-34.6-132.7
		C8.3,165.3,26,110.4,59.4,64v0c12.7-17.6,27.5-33.7,44-47.9h-6.6C81.6,29.6,67.8,44.9,55.9,61.4z"/>
</g>
<g id="_x38_1">
	<path class="st75" d="M55.9,61.4C21.9,108.6,4,164.4,4,222.7c0,49.8,13.4,98.1,38.3,140.3l3.1-3.2C21.3,318.4,8.3,271.1,8.3,222.7
		C8.3,165.3,26,110.4,59.4,64v0c12.7-17.6,27.5-33.7,44-47.9h-6.6C81.6,29.6,67.8,44.9,55.9,61.4z"/>
</g>
<g id="_x38_2">
	<path class="st76" d="M55.9,61.4C21.9,108.6,4,164.4,4,222.7c0,51.5,14.3,101.5,40.9,144.7l3-3.5C22.2,321.6,8.3,272.7,8.3,222.7
		C8.3,165.3,26,110.4,59.4,64v0c12.7-17.6,27.5-33.7,44-47.9h-6.6C81.6,29.6,67.8,44.9,55.9,61.4z"/>
</g>
<g id="_x38_3">
	<path class="st77" d="M55.9,61.4C21.9,108.6,4,164.4,4,222.7c0,53.1,15.3,104.7,43.5,148.8l2.8-3.7c-27.3-43.2-42-93.6-42-145.2
		C8.3,165.3,26,110.4,59.4,64v0c12.7-17.6,27.5-33.7,44-47.9h-6.6C81.6,29.6,67.8,44.9,55.9,61.4z"/>
</g>
<g id="_x38_4">
	<path class="st78" d="M55.9,61.4C21.9,108.6,4,164.4,4,222.7c0,54.7,16.2,107.8,46.1,152.8l2.7-3.9c-28.8-44-44.4-95.8-44.4-148.9
		C8.3,165.3,26,110.4,59.4,64v0c12.7-17.6,27.5-33.7,44-47.9h-6.6C81.6,29.6,67.8,44.9,55.9,61.4z"/>
</g>
<g id="_x38_5">
	<path class="st79" d="M55.9,61.4C21.9,108.6,4,164.4,4,222.7C4,278.9,21,333.3,52.5,379.1l2.5-4.1C24.8,330.3,8.3,277.2,8.3,222.7
		C8.3,165.3,26,110.4,59.4,64v0c12.7-17.6,27.5-33.7,44-47.9h-6.6C81.6,29.6,67.8,44.9,55.9,61.4z"/>
</g>
<g id="_x38_6">
	<path class="st80" d="M55.9,61.4C21.9,108.6,4,164.4,4,222.7c0,57.6,17.9,113.4,51,159.9l2.3-4.3c-31.7-45.4-49-99.8-49-155.6
		C8.3,165.3,26,110.4,59.4,64v0c12.7-17.6,27.5-33.7,44-47.9h-6.6C81.6,29.6,67.8,44.9,55.9,61.4z"/>
</g>
<g id="_x38_7">
	<path class="st81" d="M55.9,61.4C21.9,108.6,4,164.4,4,222.7c0,59,18.8,116,53.3,163.1l2.2-4.5c-33.1-46-51.1-101.6-51.1-158.6
		C8.3,165.3,26,110.4,59.4,64v0c12.7-17.6,27.5-33.7,44-47.9h-6.6C81.6,29.6,67.8,44.9,55.9,61.4z"/>
</g>
<g id="_x38_8">
	<path class="st82" d="M55.9,61.4C21.9,108.6,4,164.4,4,222.7c0,60.2,19.6,118.3,55.5,166l2-4.6C27.1,337.5,8.3,280.9,8.3,222.7
		C8.3,165.3,26,110.4,59.4,64v0c12.7-17.6,27.5-33.7,44-47.9h-6.6C81.6,29.6,67.8,44.9,55.9,61.4z"/>
</g>
<g id="_x38_9">
	<path class="st83" d="M55.9,61.4C21.9,108.6,4,164.4,4,222.7C4,284,24.3,343.2,61.5,391.4l1.8-4.8c-35.5-47-55-104.6-55-163.9
		C8.3,165.3,26,110.4,59.4,64v0c12.7-17.6,27.5-33.7,44-47.9h-6.6C81.6,29.6,67.8,44.9,55.9,61.4z"/>
</g>
<g id="_x39_0">
	<path class="st84" d="M55.9,61.4C21.9,108.6,4,164.4,4,222.7C4,285,25,345.2,63.4,393.8l1.6-5c-36.6-47.4-56.7-106-56.7-166.2
		C8.3,165.3,26,110.4,59.4,64v0c12.7-17.6,27.5-33.7,44-47.9h-6.6C81.6,29.6,67.8,44.9,55.9,61.4z"/>
</g>
<g id="_x39_1">
	<path class="st85" d="M55.9,61.4C21.9,108.6,4,164.4,4,222.7C4,286,25.6,347.1,65.2,396.1l1.4-5.2C29,343.1,8.3,283.8,8.3,222.7
		C8.3,165.3,26,110.4,59.4,64v0c12.7-17.6,27.5-33.7,44-47.9h-6.6C81.6,29.6,67.8,44.9,55.9,61.4z"/>
</g>
<g id="_x39_2">
	<path class="st86" d="M55.9,61.4C21.9,108.6,4,164.4,4,222.7c0,64.2,22.2,126,62.8,175.3l1.3-5.4c-38.5-48.1-59.7-108.1-59.7-170
		C8.3,165.3,26,110.4,59.4,64v0c12.7-17.6,27.5-33.7,44-47.9h-6.6C81.6,29.6,67.8,44.9,55.9,61.4z"/>
</g>
<g id="_x39_3">
	<path class="st86" d="M59.4,64c11.9-16.5,25.7-31.7,41-45.2c1-0.9,2.1-1.8,3.1-2.7h-6.6c-0.1,0.1-0.3,0.2-0.4,0.4h0
		c-1.1,0.9-2.1,1.9-3.1,2.9c-0.1,0.1-0.3,0.3-0.5,0.4h0c-13.7,12.6-26.1,26.6-37,41.7C21.9,108.6,4,164.4,4,222.7
		c0,64.9,22.7,127.5,64.2,177.1l1.1-5.5c-39.3-48.3-60.9-109-60.9-171.5C8.3,165.3,26,110.4,59.4,64L59.4,64z"/>
</g>
<g id="_x39_4">
	<path class="st86" d="M59.4,64c12-16.7,26-32,41.4-45.6c0.9-0.8,1.7-1.5,2.6-2.3h-6.6c-0.3,0.3-0.7,0.6-1,0.9h0
		c-0.6,0.6-1.2,1.1-1.8,1.7c-0.4,0.3-0.8,0.7-1.1,1h0c-13.7,12.6-26.1,26.6-37,41.7C21.9,108.6,4,164.4,4,222.7
		c0,65.6,23.2,128.7,65.5,178.5l0.9-5.7c-40-48.5-62-109.7-62-172.8C8.3,165.3,26,110.4,59.4,64L59.4,64z"/>
</g>
<g id="_x39_5">
	<path class="st86" d="M59.4,64c12-16.7,26-32,41.4-45.6c0.9-0.8,1.8-1.5,2.6-2.3h-6.6c-0.5,0.5-1.1,1-1.6,1.5h0
		c-0.4,0.4-0.8,0.7-1.2,1.1c-0.4,0.4-0.8,0.7-1.2,1.1h0c-13.7,12.6-26.1,26.6-37,41.7C21.9,108.6,4,164.4,4,222.7
		c0,66.1,23.6,129.8,66.5,179.8l0.7-5.9C30.7,347.9,8.3,286.2,8.3,222.7C8.3,165.3,26,110.4,59.4,64L59.4,64z"/>
</g>
<g id="_x39_6">
	<path class="st86" d="M59.4,64c12-16.6,25.8-31.8,41.2-45.4c1-0.8,1.9-1.7,2.9-2.5h-6.6c-0.7,0.7-1.5,1.3-2.2,2h0
		c-0.3,0.2-0.5,0.5-0.8,0.7c-0.3,0.3-0.7,0.6-1,0.9h0c-13.7,12.6-26.1,26.6-37,41.7C21.9,108.6,4,164.4,4,222.7
		c0,66.6,23.9,130.6,67.4,180.8l0.5-6.1c-41-48.8-63.6-110.8-63.6-174.7C8.3,165.3,26,110.4,59.4,64L59.4,64z"/>
</g>
<g id="_x39_7">
	<path class="st86" d="M59.4,64C71.3,47.5,85,32.4,100.3,18.9c1.1-1,2.2-1.9,3.2-2.8h-6.6c-0.9,0.8-1.9,1.7-2.8,2.5h0
		c-0.2,0.2-0.3,0.3-0.5,0.5c-0.2,0.2-0.5,0.4-0.7,0.6h0c-13.7,12.6-26.1,26.6-37,41.7C21.9,108.6,4,164.4,4,222.7
		C4,289.6,28.2,354,72.1,404.3l0.4-6.3C31.1,349.1,8.3,286.8,8.3,222.7C8.3,165.3,26,110.4,59.4,64L59.4,64z"/>
</g>
<g id="_x39_8">
	<path class="st86" d="M59.4,64c11.8-16.3,25.3-31.3,40.4-44.7c1.2-1.1,2.4-2.2,3.7-3.2h-6.6c-1.1,1-2.3,2.1-3.4,3.1h0
		c-0.1,0.1-0.2,0.2-0.3,0.3c-0.1,0.1-0.2,0.2-0.3,0.3h0c-13.7,12.6-26.1,26.6-37,41.7C21.9,108.6,4,164.4,4,222.7
		c0,67.2,24.4,131.8,68.6,182.2l0.2-6.4C31.2,349.4,8.3,287,8.3,222.7C8.3,165.3,26,110.4,59.4,64L59.4,64z"/>
</g>
<g id="_x39_9">
	<path class="st86" d="M68,392.7c-14.4-17.9-26.3-37.5-35.6-58.2c-0.1-0.2-0.1-0.3-0.2-0.5c-0.7-1.5-1.3-3-1.9-4.5
		c-0.1-0.3-0.3-0.6-0.4-0.9c-0.6-1.4-1.2-2.8-1.7-4.2c-0.2-0.4-0.3-0.8-0.5-1.2c-0.5-1.3-1-2.7-1.5-4c-0.2-0.5-0.4-1-0.6-1.5
		c-0.5-1.3-0.9-2.5-1.4-3.8c-0.2-0.6-0.4-1.1-0.6-1.7c-0.4-1.2-0.8-2.5-1.3-3.7c-0.2-0.6-0.4-1.2-0.6-1.9c-0.4-1.2-0.8-2.4-1.1-3.6
		c-0.2-0.7-0.4-1.3-0.6-2c-0.3-1.2-0.7-2.3-1-3.5c-0.2-0.7-0.4-1.4-0.6-2.2c-0.3-1.1-0.6-2.3-0.9-3.4c-0.2-0.8-0.4-1.5-0.6-2.3
		c-0.3-1.1-0.6-2.2-0.8-3.3c-0.2-0.8-0.4-1.6-0.6-2.4c-0.3-1.1-0.5-2.2-0.7-3.2c-0.2-0.8-0.4-1.7-0.5-2.5c-0.2-1.1-0.4-2.1-0.6-3.2
		c-0.2-0.9-0.3-1.7-0.5-2.6c-0.2-1-0.4-2.1-0.6-3.1c-0.2-0.9-0.3-1.8-0.5-2.7c-0.2-1-0.3-2-0.5-3c-0.1-0.9-0.3-1.9-0.4-2.8
		c-0.1-1-0.3-2-0.4-3c-0.1-1-0.2-2-0.4-2.9c-0.1-1-0.2-1.9-0.3-2.9c-0.1-1-0.2-2-0.3-3.1c-0.1-0.9-0.2-1.8-0.3-2.8
		c-0.1-1.1-0.2-2.1-0.3-3.2c-0.1-0.9-0.1-1.8-0.2-2.6c-0.1-1.1-0.1-2.3-0.2-3.4c0-0.8-0.1-1.6-0.1-2.4c-0.1-1.3-0.1-2.6-0.1-3.9
		c0-0.7,0-1.3-0.1-2c0-2-0.1-3.9-0.1-5.9C8.3,165.3,26,110.4,59.4,64v0c1.5-2.1,3.1-4.2,4.6-6.2c0.7-0.9,1.4-1.7,2-2.6
		c0.9-1.1,1.8-2.3,2.7-3.4c0.9-1.1,1.9-2.2,2.8-3.4c0.7-0.8,1.4-1.6,2.1-2.5c1.1-1.3,2.2-2.6,3.4-3.8c0.5-0.6,1.1-1.2,1.6-1.8
		c1.3-1.4,2.6-2.8,3.9-4.2c0.4-0.4,0.8-0.9,1.2-1.3c1.4-1.5,2.9-3,4.3-4.4c0.3-0.3,0.5-0.5,0.8-0.8c1.6-1.6,3.2-3.1,4.8-4.6
		c0.1-0.1,0.3-0.3,0.4-0.4c1.7-1.6,3.5-3.2,5.2-4.8c1.4-1.2,2.7-2.4,4.1-3.6h-6.6c-3,2.6-5.9,5.4-8.8,8.2c-0.2,0.2-0.3,0.3-0.5,0.5
		c-1.5,1.4-2.9,2.8-4.3,4.3c-0.3,0.3-0.6,0.6-0.9,0.9c-1.3,1.3-2.6,2.7-3.9,4.1c-0.4,0.4-0.8,0.9-1.2,1.3c-1.2,1.3-2.3,2.5-3.5,3.8
		c-0.5,0.6-1.1,1.2-1.6,1.8c-1,1.2-2,2.3-3,3.5c-0.7,0.8-1.3,1.6-2,2.4c-0.8,1-1.7,2-2.5,3.1c-0.9,1.1-1.7,2.2-2.6,3.3
		c-0.6,0.8-1.3,1.6-1.9,2.4c-1.5,1.9-2.9,3.9-4.3,5.9C21.9,108.6,4,164.4,4,222.7c0,2.1,0,4.1,0.1,6.2c0,0.7,0,1.4,0.1,2.1
		c0,1.3,0.1,2.7,0.1,4c0,0.8,0.1,1.7,0.1,2.5c0.1,1.2,0.1,2.4,0.2,3.6c0.1,0.9,0.1,1.8,0.2,2.8c0.1,1.1,0.2,2.2,0.3,3.3
		c0.1,1,0.2,1.9,0.3,2.9c0.1,1,0.2,2.1,0.3,3.1c0.1,1,0.2,2,0.4,3c0.1,1,0.2,2,0.4,3c0.1,1,0.3,2.1,0.4,3.1c0.1,1,0.3,1.9,0.4,2.9
		c0.2,1.1,0.3,2.1,0.5,3.2c0.2,0.9,0.3,1.8,0.5,2.8c0.2,1.1,0.4,2.2,0.6,3.3c0.2,0.9,0.3,1.8,0.5,2.6c0.2,1.1,0.5,2.3,0.7,3.4
		c0.2,0.8,0.4,1.7,0.5,2.5c0.3,1.2,0.5,2.3,0.8,3.5c0.2,0.8,0.4,1.6,0.6,2.3c0.3,1.2,0.6,2.4,0.9,3.6c0.2,0.7,0.4,1.4,0.6,2.2
		c0.3,1.2,0.7,2.5,1,3.7c0.2,0.7,0.4,1.3,0.6,2c0.4,1.3,0.8,2.6,1.2,3.9c0.2,0.6,0.4,1.2,0.5,1.7c0.4,1.4,0.9,2.7,1.3,4.1
		c0.2,0.5,0.3,1,0.5,1.4c0.5,1.4,1,2.9,1.5,4.3c0.1,0.3,0.3,0.7,0.4,1c0.6,1.6,1.1,3.1,1.7,4.7c0.1,0.2,0.1,0.3,0.2,0.5
		C34,352.1,51,380.4,72.9,405.2l0-6.6C71.2,396.6,69.6,394.6,68,392.7L68,392.7z"/>
</g>
</svg>
