<?xml version="1.0" encoding="utf-8"?>
<!-- Generator: Adobe Illustrator 27.9.0, SVG Export Plug-In . SVG Version: 6.00 Build 0)  -->
<svg version="1.1" baseProfile="tiny" id="Layer_1" xmlns="http://www.w3.org/2000/svg" xmlns:xlink="http://www.w3.org/1999/xlink"
	 x="0px" y="0px" viewBox="0 0 1827 952" overflow="visible" xml:space="preserve">
<path fill="#FFFFFF" d="M1817,952H10c-5.5,0-10-4.5-10-10V10C0,4.5,4.5,0,10,0h1807c5.5,0,10,4.5,10,10v932
	C1827,947.5,1822.5,952,1817,952z M10,2c-4.4,0-8,3.6-8,8v932c0,4.4,3.6,8,8,8h1807c4.4,0,8-3.6,8-8V10c0-4.4-3.6-8-8-8H10z"/>
</svg>
