<?xml version="1.0" encoding="utf-8"?>
<!-- Generator: Adobe Illustrator 21.0.2, SVG Export Plug-In . SVG Version: 6.00 Build 0)  -->
<svg version="1.1" baseProfile="tiny" id="Layer_1" xmlns="http://www.w3.org/2000/svg" xmlns:xlink="http://www.w3.org/1999/xlink"
	 x="0px" y="0px" viewBox="0 0 24 24" xml:space="preserve">
<path d="M11.6,7.5c3.8,0,7.2,2.1,9,5.3V8.2c0-0.6,0.4-1,1-1s1,0.4,1,1v7.5c0,0.5-0.4,1-1,1H14c-0.6,0-1-0.4-1-1s0.4-1,1-1h5.1
	l0.1-0.1C18,11.5,15,9.5,11.6,9.5c-3.9,0-7.3,2.7-8.1,6.5c-0.1,0.5-0.6,0.8-1.1,0.8h0c-0.6-0.1-1-0.6-0.9-1.2
	C2.5,10.9,6.7,7.5,11.6,7.5z"/>
</svg>
