<?xml version="1.0" encoding="utf-8"?>
<!-- Generator: Adobe Illustrator 21.0.2, SVG Export Plug-In . SVG Version: 6.00 Build 0)  -->
<svg version="1.1" baseProfile="tiny" id="Layer_1" xmlns="http://www.w3.org/2000/svg" xmlns:xlink="http://www.w3.org/1999/xlink"
	 x="0px" y="0px" viewBox="0 0 24 24" xml:space="preserve">
<path d="M11.4,0c4.4-0.2,8.3,2,10.5,5.4V1.1c0-0.6,0.4-1,1-1s1,0.4,1,1v6.7c0,0.6-0.5,1.1-1,1.1h-6.7c-0.6,0-1-0.4-1-1
	c0-0.6,0.4-1,1-1h4.2c-2-3.4-6-5.5-10.3-4.7c-4,0.7-7.2,3.9-8,7.9C1,16.4,5.9,22,12,22c5.2,0,9.5-4,9.9-9.1c0-0.5,0.5-0.9,1-0.9h0
	c0.6,0,1.1,0.5,1,1.1C23.3,19.2,18.2,24,12,24C5.2,24-0.2,18.3,0,11.5C0.3,5.4,5.3,0.3,11.4,0z"/>
</svg>
