<?xml version="1.0" encoding="utf-8"?>
<!-- Generator: Adobe Illustrator 21.0.2, SVG Export Plug-In . SVG Version: 6.00 Build 0)  -->
<svg version="1.1" baseProfile="tiny" id="Layer_1" xmlns="http://www.w3.org/2000/svg" xmlns:xlink="http://www.w3.org/1999/xlink"
	 x="0px" y="0px" viewBox="0 0 24 24" xml:space="preserve">
<path d="M23,15.3c-0.6,0-1,0.4-1,1v4.3L3.5,2l0,0h4.3c0.6,0,1-0.4,1-1c0-0.6-0.4-1-1-1H1.1C0.5-0.1,0,0.4,0,0.9v6.8c0,0.6,0.4,1,1,1
	s1-0.4,1-1V3.4L20.6,22L20.5,22h-4.3c-0.6,0-1,0.4-1,1c0,0.6,0.4,1,1,1h6.7c0.6,0.1,1.1-0.4,1.1-0.9v-6.8C24,15.7,23.6,15.3,23,15.3
	z"/>
</svg>
