<?xml version="1.0" encoding="utf-8"?>
<!-- Generator: Adobe Illustrator 21.0.2, SVG Export Plug-In . SVG Version: 6.00 Build 0)  -->
<svg version="1.1" baseProfile="tiny" id="Layer_1" xmlns="http://www.w3.org/2000/svg" xmlns:xlink="http://www.w3.org/1999/xlink"
	 x="0px" y="0px" viewBox="0 0 24 24" xml:space="preserve">
<path d="M20.5,3.5C18.3,1.3,15.3,0,12,0S5.7,1.3,3.5,3.5S0,8.7,0,12s1.3,6.3,3.5,8.5S8.7,24,12,24s6.3-1.3,8.5-3.5S24,15.3,24,12
	S22.7,5.7,20.5,3.5z M19.8,19.8c-2,2-4.8,3.2-7.8,3.2s-5.8-1.2-7.8-3.2S1,15,1,12s1.2-5.8,3.2-7.8S9,1,12,1s5.8,1.2,7.8,3.2
	S23,9,23,12S21.8,17.8,19.8,19.8z"/>
<path d="M18.3,13H8.1l4,4c0.4,0.4,0.4,1,0,1.4c-0.4,0.4-1,0.4-1.4,0L5,12.7c-0.4-0.4-0.4-1,0-1.4l5.7-5.7c0.4-0.4,1-0.4,1.4,0
	s0.4,1,0,1.4l-4,4h10.2c0.6,0,1,0.4,1,1S18.9,13,18.3,13z"/>
</svg>
