<?xml version="1.0" encoding="utf-8"?>
<!-- Generator: Adobe Illustrator 21.0.2, SVG Export Plug-In . SVG Version: 6.00 Build 0)  -->
<svg version="1.1" baseProfile="tiny" id="Layer_1" xmlns="http://www.w3.org/2000/svg" xmlns:xlink="http://www.w3.org/1999/xlink"
	 x="0px" y="0px" viewBox="0 0 24 24" xml:space="preserve">
<g>
	<path d="M20.4,12.7H16v8c0,0.6-0.4,1-1,1H9c-0.6,0-1-0.4-1-1v-8H3.6c-0.9,0-1.3-1.1-0.7-1.7l8.4-8.4c0.4-0.4,1-0.4,1.4,0l8.4,8.4
		C21.7,11.6,21.2,12.7,20.4,12.7z M14,19.7v-8c0-0.6,0.4-1,1-1h2.9L12,4.7l-5.9,5.9H9c0.6,0,1,0.4,1,1v8H14z"/>
</g>
</svg>
