<?xml version="1.0" encoding="utf-8"?>
<!-- Generator: Adobe Illustrator 21.0.2, SVG Export Plug-In . SVG Version: 6.00 Build 0)  -->
<svg version="1.1" baseProfile="tiny" id="Layer_1" xmlns="http://www.w3.org/2000/svg" xmlns:xlink="http://www.w3.org/1999/xlink"
	 x="0px" y="0px" viewBox="0 0 24 24" xml:space="preserve">
<path d="M10.9,11.1h3.2l-3.6-3.6c-0.4-0.4-0.4-1,0-1.4s1-0.4,1.4,0l5.3,5.3c0.4,0.4,0.4,1,0,1.4l-5.3,5.3c-0.4,0.4-1,0.4-1.4,0
	s-0.4-1,0-1.4l3.6-3.6h-3.2c-3.8,0-7,3.1-7,7v1.7c0,0.6-0.4,1-1,1h0c-0.6,0-1-0.4-1-1V20C1.9,15.1,5.9,11.1,10.9,11.1z"/>
<g>
	<path d="M15,18L15,18c-0.4-0.4-0.4-1,0-1.4l4.6-4.6l-4.5-4.6c-0.4-0.4-0.4-1,0-1.4l0,0c0.4-0.4,1-0.4,1.4,0l5.3,5.3
		c0.4,0.4,0.4,1,0,1.4L16.5,18C16.1,18.4,15.4,18.4,15,18z"/>
</g>
</svg>
