<?xml version="1.0" encoding="utf-8"?>
<!-- Generator: Adobe Illustrator 21.0.2, SVG Export Plug-In . SVG Version: 6.00 Build 0)  -->
<svg version="1.1" baseProfile="tiny" id="Layer_1" xmlns="http://www.w3.org/2000/svg" xmlns:xlink="http://www.w3.org/1999/xlink"
	 x="0px" y="0px" viewBox="0 0 24 24" xml:space="preserve">
<path d="M13.3,11.1H5.1l3.6-3.6c0.4-0.4,0.4-1,0-1.4s-1-0.4-1.4,0L2,11.4c-0.4,0.4-0.4,1,0,1.4l5.3,5.3c0.4,0.4,1,0.4,1.4,0
	s0.4-1,0-1.4l-3.6-3.6h8.2c3.8,0,7,3.1,7,7v1.7c0,0.6,0.4,1,1,1l0,0c0.6,0,1-0.4,1-1V20C22.3,15.1,18.3,11.1,13.3,11.1z"/>
</svg>
