<?xml version="1.0" encoding="utf-8"?>
<!-- Generator: Adobe Illustrator 21.0.2, SVG Export Plug-In . SVG Version: 6.00 Build 0)  -->
<svg version="1.1" baseProfile="tiny" id="Layer_1" xmlns="http://www.w3.org/2000/svg" xmlns:xlink="http://www.w3.org/1999/xlink"
	 x="0px" y="0px" viewBox="0 0 24 24" xml:space="preserve">
<g>
	<path d="M8.9,19.5v-3.8c-3.8,0.4-6.4,3.2-6.4,3.3l-1.7,1.8l-0.1-2.4c0-0.2-0.1-4.7,2.8-7.6c1.4-1.4,3.2-2.2,5.4-2.4V4.3
		c0-0.9,1.1-1.3,1.7-0.7l8.3,8.3l-8.3,8.3C10,20.8,8.9,20.4,8.9,19.5z M9.9,13.6h1v3.4l5.2-5.2l-5.2-5.2v3.4h-1
		c-2.1,0-3.7,0.6-4.9,1.8c-1.1,1.1-1.7,2.6-2,3.9C4.6,14.8,7,13.6,9.9,13.6z"/>
</g>
<g>
	<path d="M13.9,20.3L13.9,20.3c-0.4-0.4-0.4-1,0-1.4l6.9-6.9L13.9,5c-0.4-0.4-0.4-1,0-1.4l0,0c0.4-0.4,1-0.4,1.4,0l7.6,7.6
		c0.4,0.4,0.4,1,0,1.4l-7.6,7.6C14.9,20.7,14.3,20.7,13.9,20.3z"/>
</g>
</svg>
