<?xml version="1.0" encoding="utf-8"?>
<!-- Generator: Adobe Illustrator 21.0.2, SVG Export Plug-In . SVG Version: 6.00 Build 0)  -->
<svg version="1.1" baseProfile="tiny" id="Layer_1" xmlns="http://www.w3.org/2000/svg" xmlns:xlink="http://www.w3.org/1999/xlink"
	 x="0px" y="0px" viewBox="0 0 24 24" xml:space="preserve">
<path d="M20.5,3.5C18.3,1.3,15.3,0,12,0S5.7,1.3,3.5,3.5S0,8.7,0,12s1.3,6.3,3.5,8.5S8.7,24,12,24s6.3-1.3,8.5-3.5S24,15.3,24,12
	S22.7,5.7,20.5,3.5z M19.8,19.8c-2,2-4.8,3.2-7.8,3.2s-5.8-1.2-7.8-3.2S1,15,1,12s1.2-5.8,3.2-7.8S9,1,12,1s5.8,1.2,7.8,3.2
	S23,9,23,12S21.8,17.8,19.8,19.8z"/>
<path d="M6.9,15.7L14,8.6H8.5c-0.6,0-1-0.4-1-1s0.4-1,1-1h8c0.6,0,1,0.4,1,1v8c0,0.6-0.4,1-1,1s-1-0.4-1-1V10l-7.2,7.2
	c-0.4,0.4-1,0.4-1.4,0S6.5,16.1,6.9,15.7z"/>
</svg>
