<?xml version="1.0" encoding="utf-8"?>
<!-- Generator: Adobe Illustrator 21.0.2, SVG Export Plug-In . SVG Version: 6.00 Build 0)  -->
<svg version="1.1" baseProfile="tiny" id="Layer_1" xmlns="http://www.w3.org/2000/svg" xmlns:xlink="http://www.w3.org/1999/xlink"
	 x="0px" y="0px" viewBox="0 0 24 24" xml:space="preserve">
<path d="M23,8.7c0.6,0,1-0.4,1-1V0.9c0-0.5-0.5-1-1.1-0.9h-6.7c-0.6,0-1,0.4-1,1c0,0.6,0.4,1,1,1h4.3l0,0L12,10.6L3.5,2l0,0h4.3
	c0.6,0,1-0.4,1-1c0-0.6-0.4-1-1-1H1.1C0.5-0.1,0,0.4,0,0.9v6.8c0,0.6,0.4,1,1,1s1-0.4,1-1V3.4l8.6,8.6L2,20.6v-4.3c0-0.6-0.4-1-1-1
	s-1,0.4-1,1v6.8c0,0.5,0.5,1,1.1,0.9h6.7c0.6,0,1-0.4,1-1c0-0.6-0.4-1-1-1H3.5L3.4,22l8.6-8.6l8.6,8.6L20.5,22h-4.3
	c-0.6,0-1,0.4-1,1c0,0.6,0.4,1,1,1h6.7c0.6,0.1,1.1-0.4,1.1-0.9v-6.8c0-0.6-0.4-1-1-1s-1,0.4-1,1v4.3L13.4,12L22,3.4v4.3
	C22,8.3,22.4,8.7,23,8.7z"/>
</svg>
