<?xml version="1.0" encoding="utf-8"?>
<!-- Generator: Adobe Illustrator 21.0.2, SVG Export Plug-In . SVG Version: 6.00 Build 0)  -->
<svg version="1.1" baseProfile="tiny" id="Layer_1" xmlns="http://www.w3.org/2000/svg" xmlns:xlink="http://www.w3.org/1999/xlink"
	 x="0px" y="0px" viewBox="0 0 24 24" xml:space="preserve">
<path d="M12.4,7.5c-3.8,0-7.2,2.1-9,5.3V8.2c0-0.6-0.4-1-1-1s-1,0.4-1,1v7.5c0,0.5,0.4,1,1,1H10c0.6,0,1-0.4,1-1s-0.4-1-1-1H4.9
	l-0.1-0.1C6,11.5,9,9.5,12.4,9.5c3.9,0,7.3,2.7,8.1,6.5c0.1,0.5,0.6,0.8,1.1,0.8h0c0.6-0.1,1-0.6,0.9-1.2
	C21.5,10.9,17.3,7.5,12.4,7.5z"/>
</svg>
