<?xml version="1.0" encoding="utf-8"?>
<!-- Generator: Adobe Illustrator 21.0.2, SVG Export Plug-In . SVG Version: 6.00 Build 0)  -->
<svg version="1.1" baseProfile="tiny" id="Layer_1" xmlns="http://www.w3.org/2000/svg" xmlns:xlink="http://www.w3.org/1999/xlink"
	 x="0px" y="0px" viewBox="0 0 24 24" xml:space="preserve">
<path d="M18.5,16.4c0.4,0.4,1,0.4,1.4,0l3.8-3.8c0.4-0.4,0.4-1.1-0.1-1.4l-3.7-3.7c-0.4-0.4-1-0.4-1.4,0c-0.4,0.4-0.4,1,0,1.4l2,2
	l0,0.1H13V3.5l0.1,0l2,2c0.4,0.4,1,0.4,1.4,0c0.4-0.4,0.4-1,0-1.4l-3.7-3.7c-0.4-0.5-1.1-0.5-1.4-0.1L7.6,4.1c-0.4,0.4-0.4,1,0,1.4
	s1,0.4,1.4,0l2-2V11H3.5l2-2c0.4-0.4,0.4-1,0-1.4s-1-0.4-1.4,0l-3.8,3.8c-0.4,0.4-0.4,1.1,0.1,1.4l3.7,3.7c0.4,0.4,1,0.4,1.4,0
	c0.4-0.4,0.4-1,0-1.4l-2-2l0-0.1H11v7.5l-0.1,0l-2-2c-0.4-0.4-1-0.4-1.4,0c-0.4,0.4-0.4,1,0,1.4l3.7,3.7c0.4,0.5,1.1,0.5,1.4,0.1
	l3.8-3.8c0.4-0.4,0.4-1,0-1.4c-0.4-0.4-1-0.4-1.4,0l-2,2V13h7.6l-2,2C18.1,15.4,18.1,16,18.5,16.4z"/>
</svg>
