<?xml version="1.0" encoding="utf-8"?>
<!-- Generator: Adobe Illustrator 21.0.2, SVG Export Plug-In . SVG Version: 6.00 Build 0)  -->
<svg version="1.1" baseProfile="tiny" id="Layer_1" xmlns="http://www.w3.org/2000/svg" xmlns:xlink="http://www.w3.org/1999/xlink"
	 x="0px" y="0px" viewBox="0 0 24 24" xml:space="preserve">
<g>
	<path d="M8.8,17.2l3-3c-3.3-2.7-7.7-2.6-7.7-2.6l-2.4,0.1l1.7-1.8c0.1-0.2,3.6-3.7,8.1-3.8c2.2,0,4.2,0.8,6.1,2.3l3.1-3.1
		c0.6-0.6,1.7-0.2,1.7,0.7l0,11.8c0,0.6-0.4,1-1,1l-11.8,0C8.6,18.9,8.2,17.8,8.8,17.2z M14,13.4l0.7,0.7l-2.8,2.8l8.4,0l0-8.4
		l-2.8,2.8l-0.7-0.7c-1.6-1.6-3.5-2.5-5.4-2.4C9.5,8.2,7.8,9,6.6,9.8C8.7,10.2,11.6,11.1,14,13.4z"/>
</g>
</svg>
