<?xml version="1.0" encoding="utf-8"?>
<!-- Generator: Adobe Illustrator 21.0.2, SVG Export Plug-In . SVG Version: 6.00 Build 0)  -->
<svg version="1.1" baseProfile="tiny" id="Layer_1" xmlns="http://www.w3.org/2000/svg" xmlns:xlink="http://www.w3.org/1999/xlink"
	 x="0px" y="0px" viewBox="0 0 24 24" xml:space="preserve">
<g>
	<path d="M3,12.4l8.3-8.3c0.4-0.4,1-0.4,1.4,0l8.3,8.3c0.4,0.4,0.4,1,0,1.4l0,0c-0.4,0.4-1,0.4-1.4,0L12,6.3l-7.6,7.6
		c-0.4,0.4-1,0.4-1.4,0l0,0C2.6,13.5,2.6,12.8,3,12.4z"/>
</g>
<g>
	<path d="M3,18.4l8.3-8.3c0.4-0.4,1-0.4,1.4,0l8.3,8.3c0.4,0.4,0.4,1,0,1.4l0,0c-0.4,0.4-1,0.4-1.4,0L12,12.3l-7.6,7.6
		c-0.4,0.4-1,0.4-1.4,0l0,0C2.6,19.5,2.6,18.8,3,18.4z"/>
</g>
</svg>
