<?xml version="1.0" encoding="utf-8"?>
<!-- Generator: Adobe Illustrator 21.0.2, SVG Export Plug-In . SVG Version: 6.00 Build 0)  -->
<svg version="1.1" baseProfile="tiny" id="Layer_1" xmlns="http://www.w3.org/2000/svg" xmlns:xlink="http://www.w3.org/1999/xlink"
	 x="0px" y="0px" viewBox="0 0 24 24" xml:space="preserve">
<g>
	<path d="M13.4,20.2l-8.3-8.3l8.3-8.3C14,3,15.1,3.4,15.1,4.3v3.9c2.2,0.2,4,1,5.4,2.4c2.9,3,2.8,7.5,2.8,7.6l-0.1,2.4l-1.7-1.8
		c0,0-2.7-2.8-6.4-3.3v3.8C15.1,20.4,14,20.8,13.4,20.2z M21,15.9c-0.3-1.2-0.8-2.7-2-3.9c-1.2-1.2-2.9-1.8-4.9-1.8h-1V6.7l-5.2,5.2
		l5.2,5.2v-3.4h1C17,13.6,19.4,14.8,21,15.9z"/>
</g>
<g>
	<path d="M10.1,20.3L10.1,20.3c0.4-0.4,0.4-1,0-1.4l-6.9-6.9L10.1,5c0.4-0.4,0.4-1,0-1.4l0,0c-0.4-0.4-1-0.4-1.4,0L1,11.2
		c-0.4,0.4-0.4,1,0,1.4l7.6,7.6C9.1,20.7,9.7,20.7,10.1,20.3z"/>
</g>
</svg>
