<?xml version="1.0" encoding="utf-8"?>
<!-- Generator: Adobe Illustrator 21.0.2, SVG Export Plug-In . SVG Version: 6.00 Build 0)  -->
<svg version="1.1" baseProfile="tiny" id="Layer_1" xmlns="http://www.w3.org/2000/svg" xmlns:xlink="http://www.w3.org/1999/xlink"
	 x="0px" y="0px" viewBox="0 0 24 24" xml:space="preserve">
<g>
	<path d="M11,21l-8.4-8.4c-0.4-0.4-0.4-1,0-1.4L11,2.9c0.6-0.6,1.7-0.2,1.7,0.7V8c2.4,0.2,4.4,1.1,6,2.6c3.1,3.2,3,8.1,3,8.4
		l-0.1,2.4l-1.7-1.8c0,0-3-3.2-7.3-3.6v4.3C12.7,21.2,11.6,21.6,11,21z M19.4,16.6c-0.3-1.4-0.9-3.2-2.2-4.6
		c-1.3-1.4-3.2-2.1-5.5-2.1h-1V6l-5.9,5.9l5.9,5.9v-3.9h1C15,13.9,17.7,15.4,19.4,16.6z"/>
</g>
</svg>
