<?xml version="1.0" encoding="utf-8"?>
<!-- Generator: Adobe Illustrator 21.0.2, SVG Export Plug-In . SVG Version: 6.00 Build 0)  -->
<svg version="1.1" baseProfile="tiny" id="Layer_1" xmlns="http://www.w3.org/2000/svg" xmlns:xlink="http://www.w3.org/1999/xlink"
	 x="0px" y="0px" viewBox="0 0 24 24" xml:space="preserve">
<path d="M22.9,12c-0.5,0-0.9,0.4-1,0.9C21.5,18,17.2,22,12,22c-3.6,0-6.7-1.9-8.5-4.8h2.2c0.6,0,1-0.4,1-1c0-0.6-0.4-1-1-1H1
	c-0.5,0-1,0.5-1,1.1v4.7c0,0.6,0.4,1,1,1s1-0.4,1-1v-2.3C4.2,21.8,7.8,24,12,24c6.2,0,11.4-4.8,11.9-10.9C24,12.5,23.5,12,22.9,12z"
	/>
<path d="M23,2.1c-0.6,0-1,0.4-1,1v2.4C19.8,2.1,15.9-0.1,11.4,0C5.5,0.3,0.6,5,0.1,10.9C0,11.5,0.5,12,1.1,12h0c0.5,0,0.9-0.4,1-0.9
	c0.2-2,0.9-4.2,3.5-6.5c1.4-1.3,3.1-2.2,5-2.5c4.2-0.6,8,1.5,10,4.7h-2.2c-0.6,0-1,0.4-1,1c0,0.6,0.4,1,1,1H23c0.5,0,1-0.5,1-1.1
	V3.1C24,2.5,23.6,2.1,23,2.1z"/>
<rect x="11" y="5.7" width="2" height="8.6"/>
<rect x="11" y="16.3" width="2" height="2"/>
</svg>
