<?xml version="1.0" encoding="utf-8"?>
<!-- Generator: Adobe Illustrator 21.0.2, SVG Export Plug-In . SVG Version: 6.00 Build 0)  -->
<svg version="1.1" baseProfile="tiny" id="Layer_1" xmlns="http://www.w3.org/2000/svg" xmlns:xlink="http://www.w3.org/1999/xlink"
	 x="0px" y="0px" viewBox="0 0 24 24" xml:space="preserve">
<path d="M1.1,12c0.5,0,0.9,0.4,1,0.9C2.5,18,6.8,22,12,22c3.6,0,6.7-1.9,8.5-4.8h-4.2c-0.6,0-1-0.4-1-1c0-0.6,0.4-1,1-1H23
	c0.5,0,1,0.5,1,1.1v6.7c0,0.6-0.4,1-1,1s-1-0.4-1-1v-4.3c-2.1,3.2-5.8,5.4-10,5.4C5.8,24,0.7,19.2,0.1,13.1C0,12.5,0.5,12,1.1,12z"
	/>
<path d="M1,0.1c0.6,0,1,0.4,1,1v4.4C4.2,2.1,8.1-0.1,12.6,0c5.9,0.3,10.8,5,11.4,10.8c0.1,0.6-0.4,1.1-1,1.1h0c-0.5,0-0.9-0.4-1-0.9
	c-0.2-2-0.9-4.2-3.5-6.5c-1.4-1.3-3.1-2.2-5-2.5c-4.2-0.6-8,1.5-10,4.7h4.2c0.6,0,1,0.4,1,1c0,0.6-0.4,1-1,1H1c-0.5,0-1-0.5-1-1.1
	V1.1C0,0.5,0.4,0.1,1,0.1z"/>
</svg>
