<?xml version="1.0" encoding="utf-8"?>
<!-- Generator: Adobe Illustrator 21.0.2, SVG Export Plug-In . SVG Version: 6.00 Build 0)  -->
<svg version="1.1" baseProfile="tiny" id="Layer_1" xmlns="http://www.w3.org/2000/svg" xmlns:xlink="http://www.w3.org/1999/xlink"
	 x="0px" y="0px" viewBox="0 0 24 24" xml:space="preserve">
<g>
	<path d="M14.5,18.9l-11.8,0c-0.6,0-1-0.4-1-1l0-11.8c0-0.9,1.1-1.3,1.7-0.7l3.1,3.1c1.9-1.6,3.9-2.4,6.1-2.3
		c4.5,0.1,7.9,3.6,8.1,3.8l1.7,1.8l-2.4-0.1c0,0-4.4-0.1-7.7,2.6l3,3C15.8,17.8,15.4,18.9,14.5,18.9z M17.4,9.8
		c-1.2-0.8-2.9-1.6-4.8-1.7c-1.9,0-3.7,0.8-5.4,2.4l-0.7,0.7L3.7,8.5l0,8.4l8.4,0l-2.8-2.8l0.7-0.7C12.4,11.1,15.3,10.2,17.4,9.8z"
		/>
</g>
</svg>
