<?xml version="1.0" encoding="utf-8"?>
<!-- Generator: Adobe Illustrator 21.0.2, SVG Export Plug-In . SVG Version: 6.00 Build 0)  -->
<svg version="1.1" baseProfile="tiny" id="Layer_1" xmlns="http://www.w3.org/2000/svg" xmlns:xlink="http://www.w3.org/1999/xlink"
	 x="0px" y="0px" viewBox="0 0 24 24" xml:space="preserve">
<path d="M7.7,11.1l11.2,0v0l-3.6-3.6c-0.4-0.4-0.4-1,0-1.4c0.4-0.4,1-0.4,1.4,0l5.3,5.3c0.4,0.4,0.4,1,0,1.4l-5.3,5.3
	c-0.4,0.4-1,0.4-1.4,0c-0.4-0.4-0.4-1,0-1.4l3.6-3.6l-11.3,0c-1.8,0-3.5,1.2-3.8,3c-0.5,2.4,1.4,4.6,3.7,4.6h2.4c0.6,0,1,0.4,1,1v0
	c0,0.6-0.4,1-1,1H7.5c-3.4,0-6.2-3-5.8-6.6C2.1,13.2,4.8,11.1,7.7,11.1z"/>
</svg>
