<?xml version="1.0" encoding="utf-8"?>
<!-- Generator: Adobe Illustrator 21.0.2, SVG Export Plug-In . SVG Version: 6.00 Build 0)  -->
<svg version="1.1" baseProfile="tiny" id="Layer_1" xmlns="http://www.w3.org/2000/svg" xmlns:xlink="http://www.w3.org/1999/xlink"
	 x="0px" y="0px" viewBox="0 0 24 24" xml:space="preserve">
<path d="M12.6,0C8.1-0.1,4.2,2.1,2,5.5V1.1c0-0.6-0.4-1-1-1s-1,0.4-1,1v6.7c0,0.6,0.5,1.1,1,1.1h6.7c0.6,0,1-0.4,1-1
	c0-0.6-0.4-1-1-1H3.5c2-3.4,6-5.5,10.3-4.7c4,0.7,7.2,3.9,8,7.9C23,16.4,18.1,22,12,22c-5.2,0-9.5-4-9.9-9.1c0-0.5-0.5-0.9-1-0.9h0
	c-0.6,0-1.1,0.5-1,1.1C0.7,19.2,5.8,24,12,24c6.8,0,12.2-5.6,12-12.5C23.7,5.4,18.7,0.3,12.6,0z"/>
</svg>
