<?xml version="1.0" encoding="utf-8"?>
<!-- Generator: Adobe Illustrator 21.0.2, SVG Export Plug-In . SVG Version: 6.00 Build 0)  -->
<svg version="1.1" baseProfile="tiny" id="Layer_1" xmlns="http://www.w3.org/2000/svg" xmlns:xlink="http://www.w3.org/1999/xlink"
	 x="0px" y="0px" viewBox="0 0 24 24" xml:space="preserve">
<g>
	<path d="M21,11.6l-8.3,8.3c-0.4,0.4-1,0.4-1.4,0L3,11.6c-0.4-0.4-0.4-1,0-1.4l0,0c0.4-0.4,1-0.4,1.4,0l7.6,7.6l7.6-7.6
		c0.4-0.4,1-0.4,1.4,0l0,0C21.4,10.5,21.4,11.2,21,11.6z"/>
</g>
<g>
	<path d="M21,5.6l-8.3,8.3c-0.4,0.4-1,0.4-1.4,0L3,5.6c-0.4-0.4-0.4-1,0-1.4l0,0c0.4-0.4,1-0.4,1.4,0l7.6,7.6l7.6-7.6
		c0.4-0.4,1-0.4,1.4,0l0,0C21.4,4.5,21.4,5.2,21,5.6z"/>
</g>
</svg>
