<?xml version="1.0" encoding="utf-8"?>
<!-- Generator: Adobe Illustrator 28.1.0, SVG Export Plug-In . SVG Version: 6.00 Build 0)  -->
<svg version="1.1" baseProfile="tiny" id="Layer_1" xmlns="http://www.w3.org/2000/svg" xmlns:xlink="http://www.w3.org/1999/xlink"
	 x="0px" y="0px" viewBox="0 0 680.4 656.6" overflow="visible" xml:space="preserve">
<path id="colorstyle:Base" fill="#E95724" d="M653,29.1h-2.1v-9.6H29.5v9.6h-2.1V17.4H653V29.1z M668,624.2h-11.7v-2.1h9.6V34.5
	h-9.6v-2.1H668V624.2z M653,639.2H27.4v-11.7h2.1v9.6h621.4v-9.6h2.1V639.2z M24.1,624.2H12.4V32.4h11.7v2.1h-9.6v587.6h9.6V624.2z"
	/>
<path id="colorstyle:Accent1" fill="#E95724" d="M19.2,41.9c0.6,0,1,0.4,1,1s-0.4,1-1,1s-1-0.4-1-1S18.6,41.9,19.2,41.9z M19.2,46.2
	c0.6,0,1,0.4,1,1s-0.4,1-1,1s-1-0.4-1-1S18.6,46.2,19.2,46.2z M19.2,50.6c0.6,0,1,0.4,1,1s-0.4,1-1,1s-1-0.4-1-1
	S18.6,50.6,19.2,50.6z M19.2,54.9c0.6,0,1,0.4,1,1s-0.4,1-1,1s-1-0.4-1-1S18.6,54.9,19.2,54.9z M19.2,59.2c0.6,0,1,0.4,1,1
	s-0.4,1-1,1s-1-0.4-1-1S18.6,59.2,19.2,59.2z M19.2,63.6c0.6,0,1,0.4,1,1s-0.4,1-1,1s-1-0.4-1-1S18.6,63.6,19.2,63.6z M661.2,41.9
	c0.6,0,1,0.4,1,1s-0.4,1-1,1s-1-0.4-1-1S660.6,41.9,661.2,41.9z M661.2,46.2c0.6,0,1,0.4,1,1s-0.4,1-1,1s-1-0.4-1-1
	S660.6,46.2,661.2,46.2z M661.2,50.6c0.6,0,1,0.4,1,1s-0.4,1-1,1s-1-0.4-1-1S660.6,50.6,661.2,50.6z M661.2,54.9c0.6,0,1,0.4,1,1
	s-0.4,1-1,1s-1-0.4-1-1S660.6,54.9,661.2,54.9z M661.2,59.2c0.6,0,1,0.4,1,1s-0.4,1-1,1s-1-0.4-1-1S660.6,59.2,661.2,59.2z
	 M661.2,63.6c0.6,0,1,0.4,1,1s-0.4,1-1,1s-1-0.4-1-1S660.6,63.6,661.2,63.6z M661.2,612.7c0.6,0,1,0.4,1,1s-0.4,1-1,1s-1-0.4-1-1
	S660.6,612.7,661.2,612.7z M661.2,608.4c0.6,0,1,0.4,1,1s-0.4,1-1,1s-1-0.4-1-1S660.6,608.4,661.2,608.4z M661.2,604
	c0.6,0,1,0.4,1,1s-0.4,1-1,1s-1-0.4-1-1S660.6,604,661.2,604z M661.2,599.7c0.6,0,1,0.4,1,1s-0.4,1-1,1s-1-0.4-1-1
	S660.6,599.7,661.2,599.7z M661.2,595.4c0.6,0,1,0.4,1,1s-0.4,1-1,1s-1-0.4-1-1S660.6,595.4,661.2,595.4z M661.2,591
	c0.6,0,1,0.4,1,1s-0.4,1-1,1s-1-0.4-1-1S660.6,591,661.2,591z M660.1,74.5h2.1v507.6h-2.1V74.5z M19.2,612.7c0.6,0,1,0.4,1,1
	s-0.4,1-1,1s-1-0.4-1-1S18.6,612.7,19.2,612.7z M19.2,608.4c0.6,0,1,0.4,1,1s-0.4,1-1,1s-1-0.4-1-1S18.6,608.4,19.2,608.4z
	 M19.2,604c0.6,0,1,0.4,1,1s-0.4,1-1,1s-1-0.4-1-1S18.6,604,19.2,604z M19.2,599.7c0.6,0,1,0.4,1,1s-0.4,1-1,1s-1-0.4-1-1
	S18.6,599.7,19.2,599.7z M19.2,595.4c0.6,0,1,0.4,1,1s-0.4,1-1,1s-1-0.4-1-1S18.6,595.4,19.2,595.4z M19.2,591c0.6,0,1,0.4,1,1
	s-0.4,1-1,1s-1-0.4-1-1S18.6,591,19.2,591z M18.1,74.5h2.1v507.6h-2.1V74.5z"/>
<path id="colorstyle:Selected" fill="#E95724" d="M12.4,17.3h11.7V29H12.4V17.3z M29.9,8.5c1.6,0,2.9,1.3,2.9,2.9s-1.3,2.9-2.9,2.9
	S27,13,27,11.4S28.3,8.5,29.9,8.5z M38.8,8.5c1.6,0,2.9,1.3,2.9,2.9s-1.3,2.9-2.9,2.9s-2.9-1.3-2.9-2.9S37.2,8.5,38.8,8.5z
	 M47.6,8.5c1.6,0,2.9,1.3,2.9,2.9s-1.3,2.9-2.9,2.9s-2.9-1.3-2.9-2.9S46,8.5,47.6,8.5z M31.5,612.4c0.1-0.1,0.3-0.2,0.5-0.2l0,0
	c0.2,0,0.4,0.1,0.5,0.2c0.1,0.1,0.2,0.3,0.2,0.5v1.4c0,0.2-0.1,0.4-0.2,0.5c-0.1,0.1-0.3,0.2-0.5,0.2c-0.1,0-0.1,0-0.2-0.1
	c0,0-0.1-0.1-0.1-0.2c0-0.1,0-0.1,0.1-0.2c0,0,0.1-0.1,0.2-0.1c0.1,0,0.1,0,0.2-0.1c0,0,0.1-0.1,0.1-0.2v-1.4c0-0.1,0-0.1-0.1-0.2
	c0,0-0.1-0.1-0.2-0.1h-0.1c-0.1,0-0.1,0-0.2,0.1l-2.6,2.2c-0.1,0.1-0.3,0.2-0.5,0.2h-0.1c-0.2,0-0.4-0.1-0.5-0.2
	c-0.1-0.1-0.2-0.3-0.2-0.5v-1.4c0-0.2,0.1-0.4,0.2-0.5s0.3-0.2,0.5-0.2c0.1,0,0.1,0,0.2,0.1c0,0,0.1,0.1,0.1,0.2
	c0,0.1,0,0.1-0.1,0.2c0,0-0.1,0.1-0.2,0.1s-0.1,0-0.2,0.1c0,0-0.1,0.1-0.1,0.2v1.4c0,0.1,0,0.1,0.1,0.2c0,0,0.1,0.1,0.2,0.1h0.1
	c0.1,0,0.1,0,0.2-0.1L31.5,612.4z M32.2,607.7c0-0.1,0-0.1,0.1-0.2c0,0,0.1-0.1,0.2-0.1c0.1,0,0.1,0,0.2,0.1c0,0,0.1,0.1,0.1,0.2
	v2.4c0,0.1,0,0.1-0.1,0.2c0,0-0.1,0.1-0.2,0.1h-4.3c-0.1,0-0.1,0-0.2-0.1c0,0-0.1-0.1-0.1-0.2v-2.4c0-0.1,0-0.1,0.1-0.2
	c0,0,0.1-0.1,0.2-0.1s0.1,0,0.2,0.1c0,0,0.1,0.1,0.1,0.2v2.1h1.7v-1.7c0-0.1,0-0.1,0.1-0.2c0,0,0.1-0.1,0.2-0.1s0.1,0,0.2,0.1
	c0,0,0.1,0.1,0.1,0.2v1.7h1.7v-2.1H32.2z M32.3,602.8L32.3,602.8h0.2l0.1,0.1v0.1v0.1l-0.1,0.1l-2,1v0.9h1.9c0.1,0,0.1,0,0.2,0.1
	c0,0,0.1,0.1,0.1,0.2c0,0.1,0,0.1-0.1,0.2c0,0-0.1,0.1-0.2,0.1h-4.3c-0.1,0-0.1,0-0.2-0.1c0,0-0.1-0.1-0.1-0.2v-1.3l0,0
	c0-0.2,0.1-0.4,0.2-0.6c0.1-0.2,0.3-0.3,0.5-0.4c0.2-0.1,0.4-0.2,0.6-0.2c0.3,0,0.6,0.1,0.8,0.3c0.2,0.2,0.4,0.4,0.5,0.7L32.3,602.8
	z M30.1,604.1c0-0.2,0-0.3-0.1-0.4c-0.1-0.1-0.2-0.2-0.3-0.3c-0.1-0.1-0.3-0.1-0.4-0.1c-0.2,0-0.3,0-0.4,0.1s-0.2,0.2-0.3,0.3
	c-0.1,0.1-0.1,0.3-0.1,0.4v1.1h1.7L30.1,604.1z M32.2,599.3c0-0.1,0-0.1,0.1-0.2c0,0,0.1-0.1,0.2-0.1c0.1,0,0.1,0,0.2,0.1
	c0,0,0.1,0.1,0.1,0.2v1.4c0,0.1,0,0.1-0.1,0.2c0,0-0.1,0.1-0.2,0.1c-0.1,0-0.1,0-0.2-0.1c0,0-0.1-0.1-0.1-0.2v-0.5h-3.8v0.5
	c0,0.1,0,0.1-0.1,0.2c0,0-0.1,0.1-0.2,0.1s-0.1,0-0.2-0.1c0,0-0.1-0.1-0.1-0.2v-1.4c0-0.1,0-0.1,0.1-0.2c0,0,0.1-0.1,0.2-0.1
	s0.1,0,0.2,0.1c0,0,0.1,0.1,0.1,0.2v0.5h3.8V599.3z M32.4,593.8L32.4,593.8c0.1,0,0.2,0,0.2,0l0.1,0.1c0,0,0,0,0,0.1s0,0.1,0,0.1
	l-0.1,0.1l-0.8,0.2v1.9l0.8,0.2c0.1,0,0.1,0,0.1,0.1v0.1c0,0.1,0,0.1-0.1,0.2c0,0-0.1,0.1-0.2,0.1c0,0,0,0-0.1,0l-4.3-1.3
	c-0.1,0-0.1,0-0.1-0.1v-0.1v-0.3c0-0.1,0-0.1,0-0.1L28,595L32.4,593.8z M31.3,596.3v-1.7l-2.8,0.8L31.3,596.3z M32.2,589.3
	c0-0.1,0-0.1,0.1-0.2c0,0,0.1-0.1,0.2-0.1c0.1,0,0.1,0,0.2,0.1c0,0,0.1,0.1,0.1,0.2v2.4c0,0.1,0,0.1-0.1,0.2c0,0-0.1,0.1-0.2,0.1
	h-4.3c-0.1,0-0.1,0-0.2-0.1c0,0-0.1-0.1-0.1-0.2c0-0.1,0-0.1,0.1-0.2c0,0,0.1-0.1,0.2-0.1h4.1L32.2,589.3L32.2,589.3z M28,582.1
	c0,0,0.1-0.1,0.2-0.1h4.3c0.1,0,0.1,0,0.1,0l0.1,0.1c0,0,0,0,0,0.1s0,0.2-0.1,0.2l-3.5,1.9h3.4c0.1,0,0.1,0,0.2,0.1
	c0,0,0.1,0.1,0.1,0.2c0,0.1,0,0.1-0.1,0.2c0,0-0.1,0.1-0.2,0.1h-4.3c-0.1,0-0.1,0-0.2-0.1c0,0-0.1-0.1-0.1-0.2v-0.1l0.1-0.1l3.5-1.9
	h-3.4c-0.1,0-0.1,0-0.2-0.1c0,0-0.1-0.1-0.1-0.2C27.9,582.2,27.9,582.1,28,582.1z M28,577.4c0,0,0.1-0.1,0.2-0.1H32
	c0.2,0,0.4,0.1,0.5,0.2c0.1,0.1,0.2,0.3,0.2,0.5v1.4c0,0.2-0.1,0.4-0.2,0.5c-0.1,0.1-0.3,0.2-0.5,0.2h-3.8c-0.1,0-0.1,0-0.2-0.1
	c0,0-0.1-0.1-0.1-0.2c0-0.1,0-0.1,0.1-0.2c0,0,0.1-0.1,0.2-0.1H32c0.1,0,0.1,0,0.2-0.1c0,0,0.1-0.1,0.1-0.2V578c0-0.1,0-0.1-0.1-0.2
	c0,0-0.1-0.1-0.2-0.1h-3.8c-0.1,0-0.1,0-0.2-0.1c0,0-0.1-0.1-0.1-0.2C27.9,577.5,27.9,577.4,28,577.4z M28,571.7
	c0,0,0.1-0.1,0.2-0.1h4.3c0.1,0,0.1,0,0.2,0.1c0,0,0.1,0.1,0.1,0.2c0,0.1,0,0.1-0.1,0.2c0,0-0.1,0.1-0.2,0.1h-3.6l1.6,1.2
	c0.1,0,0.1,0.1,0.1,0.2c0,0.1,0,0.1-0.1,0.2l-1.6,1.2h3.6c0.1,0,0.1,0,0.2,0.1c0,0,0.1,0.1,0.1,0.2c0,0.1,0,0.1-0.1,0.2
	c0,0-0.1,0.1-0.2,0.1h-4.3c-0.1,0-0.1,0-0.2-0.1c0,0-0.1-0.1-0.1-0.2c0-0.1,0-0.2,0.1-0.2l1.9-1.5l-1.9-1.5c-0.1,0-0.1-0.1-0.1-0.2
	S27.9,571.7,28,571.7z M30.8,567.1c0.2-0.1,0.4-0.1,0.6-0.1s0.5,0.1,0.7,0.2c0.2,0.1,0.4,0.3,0.5,0.5s0.2,0.4,0.2,0.7l0,0v1.3
	c0,0.1,0,0.1-0.1,0.2c0,0-0.1,0.1-0.2,0.1h-4.3c-0.1,0-0.1,0-0.2-0.1c0,0-0.1-0.1-0.1-0.2v-1.3c0-0.2,0.1-0.5,0.2-0.7
	s0.3-0.4,0.5-0.5s0.4-0.2,0.7-0.2c0.2,0,0.4,0,0.6,0.1s0.3,0.2,0.5,0.4C30.4,567.3,30.6,567.2,30.8,567.1z M28.4,569.3h1.7v-1.1l0,0
	c0-0.2-0.1-0.4-0.3-0.6c-0.2-0.2-0.4-0.2-0.6-0.2s-0.3,0-0.4,0.1s-0.2,0.2-0.3,0.3c-0.1,0.1-0.1,0.3-0.1,0.4
	C28.4,568.2,28.4,569.3,28.4,569.3z M32,567.6c-0.2-0.2-0.4-0.2-0.6-0.2c-0.1,0-0.3,0-0.4,0.1s-0.2,0.2-0.3,0.3
	c-0.1,0.1-0.1,0.3-0.1,0.4l0,0v1h1.7v-1.1l0,0C32.2,568,32.1,567.8,32,567.6z M32.2,562.4c0-0.1,0-0.1,0.1-0.2c0,0,0.1-0.1,0.2-0.1
	c0.1,0,0.1,0,0.2,0.1c0,0,0.1,0.1,0.1,0.2v2.4c0,0.1,0,0.1-0.1,0.2c0,0-0.1,0.1-0.2,0.1h-4.3c-0.1,0-0.1,0-0.2-0.1
	c0,0-0.1-0.1-0.1-0.2v-2.4c0-0.1,0-0.1,0.1-0.2c0,0,0.1-0.1,0.2-0.1s0.1,0,0.2,0.1c0,0,0.1,0.1,0.1,0.2v2.1h1.7v-1.7
	c0-0.1,0-0.1,0.1-0.2c0,0,0.1-0.1,0.2-0.1s0.1,0,0.2,0.1c0,0,0.1,0.1,0.1,0.2v1.7h1.7v-2.1H32.2z M32.3,557.5L32.3,557.5h0.2
	l0.1,0.1v0.1v0.1l-0.1,0.1l-2,1v0.9h1.9c0.1,0,0.1,0,0.2,0.1c0,0,0.1,0.1,0.1,0.2c0,0.1,0,0.1-0.1,0.2c0,0-0.1,0.1-0.2,0.1h-4.3
	c-0.1,0-0.1,0-0.2-0.1c0,0-0.1-0.1-0.1-0.2v-1.3l0,0c0-0.2,0.1-0.4,0.2-0.6c0.1-0.2,0.3-0.3,0.5-0.4c0.2-0.1,0.4-0.2,0.6-0.2
	c0.3,0,0.6,0.1,0.8,0.3c0.2,0.2,0.4,0.4,0.5,0.7L32.3,557.5z M30.1,558.8c0-0.2,0-0.3-0.1-0.4c-0.1-0.1-0.2-0.2-0.3-0.3
	c-0.1-0.1-0.3-0.1-0.4-0.1c-0.2,0-0.3,0-0.4,0.1s-0.2,0.2-0.3,0.3c-0.1,0.1-0.1,0.3-0.1,0.4v1.1h1.7L30.1,558.8z M40.8,612
	C40.9,612,40.9,612,40.8,612c0.1,0,0.2,0,0.2,0l0.1,0.1c0,0,0,0,0,0.1s0,0.1,0,0.1l-0.1,0.1l-0.8,0.2v1.9l0.8,0.2
	c0.1,0,0.1,0,0.1,0.1v0.1c0,0.1,0,0.1-0.1,0.2c0,0-0.1,0.1-0.2,0.1c0,0,0,0-0.1,0l-4.3-1.3c-0.1,0-0.1,0-0.1-0.1v-0.1v-0.3
	c0-0.1,0-0.1,0-0.1l0.1-0.1L40.8,612z M39.7,614.5v-1.7l-2.8,0.8L39.7,614.5z M40.8,606.8C40.9,606.8,40.9,606.8,40.8,606.8
	c0.1,0,0.2,0,0.2,0l0.1,0.1c0,0,0,0,0,0.1s0,0.1,0,0.1l-0.1,0.1l-0.8,0.2v1.9l0.8,0.2c0.1,0,0.1,0,0.1,0.1v0.1c0,0.1,0,0.1-0.1,0.2
	c0,0-0.1,0.1-0.2,0.1c0,0,0,0-0.1,0l-4.3-1.3c-0.1,0-0.1,0-0.1-0.1v-0.1v-0.3c0-0.1,0-0.1,0-0.1l0.1-0.1L40.8,606.8z M39.7,609.3
	v-1.7l-2.8,0.8L39.7,609.3z M36.4,600.4c0-0.2,0.1-0.4,0.2-0.5c0.1-0.1,0.3-0.2,0.5-0.2h3.3c0.2,0,0.4,0.1,0.5,0.2
	c0.1,0.1,0.2,0.3,0.2,0.5v1.4c0,0.2-0.1,0.4-0.2,0.5c-0.1,0.1-0.3,0.2-0.5,0.2h-3.3c-0.2,0-0.4-0.1-0.5-0.2
	c-0.1-0.1-0.2-0.3-0.2-0.5V600.4z M37.1,600.2c-0.1,0-0.1,0-0.2,0.1c0,0-0.1,0.1-0.1,0.2v1.4c0,0.1,0,0.1,0.1,0.2
	c0,0,0.1,0.1,0.2,0.1h3.3c0.1,0,0.1,0,0.2-0.1c0,0,0.1-0.1,0.1-0.2v-1.4c0-0.1,0-0.1-0.1-0.2c0,0-0.1-0.1-0.2-0.1H37.1z M36.4,595.7
	c0-0.2,0.1-0.4,0.2-0.5c0.1-0.1,0.3-0.2,0.5-0.2h3.3c0.2,0,0.4,0.1,0.5,0.2c0.1,0.1,0.2,0.3,0.2,0.5v1.4c0,0.2-0.1,0.4-0.2,0.5
	c-0.1,0.1-0.3,0.2-0.5,0.2h-3.3c-0.2,0-0.4-0.1-0.5-0.2c-0.1-0.1-0.2-0.3-0.2-0.5V595.7z M37.1,595.4c-0.1,0-0.1,0-0.2,0.1
	c0,0-0.1,0.1-0.1,0.2v1.4c0,0.1,0,0.1,0.1,0.2c0,0,0.1,0.1,0.2,0.1h3.3c0.1,0,0.1,0,0.2-0.1c0,0,0.1-0.1,0.1-0.2v-1.4
	c0-0.1,0-0.1-0.1-0.2c0,0-0.1-0.1-0.2-0.1H37.1z M36.4,590.5c0-0.1,0-0.1,0.1-0.2c0,0,0.1-0.1,0.2-0.1H38c0.1,0,0.1,0,0.2,0.1
	l1.1,1.1h1.6c0.1,0,0.1,0,0.2,0.1c0,0,0.1,0.1,0.1,0.2c0,0.1,0,0.1-0.1,0.2c0,0-0.1,0.1-0.2,0.1h-1.7c-0.1,0-0.1,0-0.2-0.1l-1.1-1.1
	h-1.1v1.9H37c0.1,0,0.1,0,0.2,0.1c0,0,0.1,0.1,0.1,0.2c0,0.1,0,0.1-0.1,0.2c0,0-0.1,0.1-0.2,0.1h-0.5c-0.1,0-0.1,0-0.2-0.1
	c0,0-0.1-0.1-0.1-0.2v-2.5H36.4z M38.3,586c0-0.1,0-0.2,0.1-0.3s0.2-0.1,0.3-0.1h1.9c0.1,0,0.2,0,0.3,0.1s0.1,0.2,0.1,0.3v1.9
	c0,0.1,0,0.2-0.1,0.3s-0.2,0.1-0.3,0.1H37c-0.1,0-0.1,0-0.2-0.1l-0.5-0.5c0,0-0.1-0.1-0.1-0.2c0-0.1,0-0.1,0.1-0.2
	c0,0,0.1-0.1,0.2-0.1c0.1,0,0.1,0,0.2,0.1l0.4,0.4h1.1L38.3,586L38.3,586z M40.7,586h-1.9v1.9h1.9V586z M39.2,578.4h1.5
	c0.1,0,0.2,0,0.3,0.1s0.1,0.2,0.1,0.3v2.1c0,0.1,0,0.1-0.1,0.2c0,0-0.1,0.1-0.2,0.1c-0.1,0-0.1,0-0.2-0.1c0,0-0.1-0.1-0.1-0.2v-2.1
	H39h-0.1v0.1v1.3c0,0.1,0,0.1-0.1,0.2c0,0-0.1,0.1-0.2,0.1s-0.1,0-0.2-0.1c0,0-0.1-0.1-0.1-0.2v-1.3v-0.1h-0.1h-1.5v2.1
	c0,0.1,0,0.1-0.1,0.2c0,0-0.1,0.1-0.2,0.1c-0.1,0-0.1,0-0.2-0.1c0,0-0.1-0.1-0.1-0.2v-2.1c0-0.1,0-0.2,0.1-0.3s0.2-0.1,0.3-0.1H38
	c0.2,0,0.3,0,0.4,0.1C38.9,578.5,39,578.4,39.2,578.4z M39,576.1h1.6V574c0-0.1,0-0.1,0.1-0.2c0,0,0.1-0.1,0.2-0.1
	c0.1,0,0.1,0,0.2,0.1c0,0,0.1,0.1,0.1,0.2v2.4c0,0.1,0,0.1-0.1,0.2c-0.1,0-0.1,0.1-0.2,0.1H39c-0.1,0-0.2,0-0.3-0.1
	s-0.1-0.2-0.1-0.3v-1.9h-1.7v2.1c0,0.1,0,0.1-0.1,0.2c0,0-0.1,0.1-0.2,0.1c-0.1,0-0.1,0-0.2-0.1c0,0-0.1-0.1-0.1-0.2v-2.1
	c0-0.1,0-0.2,0.1-0.3s0.2-0.1,0.3-0.1h1.7c0.1,0,0.2,0,0.3,0.1s0.1,0.2,0.1,0.3v1.7H39z M39,569.2c0-0.1,0-0.1,0.1-0.2
	c0,0,0.1-0.1,0.2-0.1c0.1,0,0.1,0,0.2,0.1c0,0,0.1,0.1,0.1,0.2v0.2H41c0.1,0,0.1,0,0.2,0.1c0,0,0.1,0.1,0.1,0.2c0,0.1,0,0.1-0.1,0.2
	c0,0-0.1,0.1-0.2,0.1h-1.4v1.4c0,0.1,0,0.2-0.1,0.3s-0.2,0.1-0.3,0.1h-2.4c-0.1,0-0.1,0-0.2-0.1c0,0-0.1-0.1-0.1-0.2
	c0-0.1,0-0.1,0.1-0.2c0,0,0.1-0.1,0.2-0.1H39V570h-0.7c-0.1,0-0.1,0-0.2-0.1c0,0-0.1-0.1-0.1-0.2c0-0.1,0-0.1,0.1-0.2
	c0,0,0.1-0.1,0.2-0.1H39V569.2z M40.8,566.8L40.8,566.8l0.3-0.1c0.1,0,0.1,0,0.1,0.1l0.1,0.1c0,0.1,0,0.1-0.1,0.1l-0.1,0.1h-0.2
	c-0.1,0-0.1,0-0.1-0.1V566.8C40.7,566.9,40.8,566.9,40.8,566.8z M665.9,19.5V27h-7.5v-7.5H665.9 M668,17.3h-11.7V29H668V17.3
	L668,17.3z M650.5,8.5c1.6,0,2.9,1.3,2.9,2.9s-1.3,2.9-2.9,2.9s-2.9-1.3-2.9-2.9S648.9,8.5,650.5,8.5z M641.6,8.5
	c1.6,0,2.9,1.3,2.9,2.9s-1.3,2.9-2.9,2.9s-2.9-1.3-2.9-2.9S640,8.5,641.6,8.5z M632.8,8.5c1.6,0,2.9,1.3,2.9,2.9s-1.3,2.9-2.9,2.9
	s-2.9-1.3-2.9-2.9S631.2,8.5,632.8,8.5z M650.5,642.3c1.6,0,2.9,1.3,2.9,2.9s-1.3,2.9-2.9,2.9s-2.9-1.3-2.9-2.9
	S648.9,642.3,650.5,642.3z M641.6,642.3c1.6,0,2.9,1.3,2.9,2.9s-1.3,2.9-2.9,2.9s-2.9-1.3-2.9-2.9S640,642.3,641.6,642.3z
	 M632.8,642.3c1.6,0,2.9,1.3,2.9,2.9s-1.3,2.9-2.9,2.9s-2.9-1.3-2.9-2.9S631.2,642.3,632.8,642.3z M12.4,627.5h11.7v11.7H12.4V627.5
	z M29.9,642.3c1.6,0,2.9,1.3,2.9,2.9s-1.3,2.9-2.9,2.9s-2.9-1.3-2.9-2.9S28.3,642.3,29.9,642.3z M38.8,642.3c1.6,0,2.9,1.3,2.9,2.9
	s-1.3,2.9-2.9,2.9s-2.9-1.3-2.9-2.9S37.2,642.3,38.8,642.3z M47.6,642.3c1.6,0,2.9,1.3,2.9,2.9s-1.3,2.9-2.9,2.9s-2.9-1.3-2.9-2.9
	S46,642.3,47.6,642.3z M665.9,629.6v7.5h-7.5v-7.5H665.9 M668,627.5h-11.7v11.7H668V627.5L668,627.5z"/>
</svg>
