<?xml version="1.0" encoding="utf-8"?>
<!-- Generator: Adobe Illustrator 27.6.1, SVG Export Plug-In . SVG Version: 6.00 Build 0)  -->
<svg version="1.1" baseProfile="tiny" id="Layer_1" xmlns="http://www.w3.org/2000/svg" xmlns:xlink="http://www.w3.org/1999/xlink"
	 x="0px" y="0px" viewBox="0 0 168 102" overflow="visible" xml:space="preserve">
<g>
	<path fill="#E95724" d="M10.7,76.3V9.5h147.6v92.4H34.9L10.7,76.3z M156.5,11.3h-144v64.3l23.2,24.5h120.8V11.3z"/>
</g>
<path fill="#E95724" d="M133.2,44.7h-15V43h15V44.7L133.2,44.7z"/>
<path fill="#E95724" d="M115.9,44.7h-15V43h15V44.7L115.9,44.7z M100.9,50.5v-1.7h15v1.7H100.9z"/>
<polygon fill="#E95724" points="131.5,27.8 62,27.8 60.3,27.8 60.3,29.5 60.3,35 62,35 62,29.5 131.5,29.5 131.5,35 133.2,35 
	133.2,29.5 133.2,27.8 "/>
<polygon fill="#E95724" points="112.7,70.8 112.7,76.3 53.8,76.3 53.8,70.8 52.1,70.8 52.1,78 52.3,78 53.8,78 112.7,78 114.4,78 
	114.4,76.3 114.4,70.8 "/>
<polygon fill="#E95724" points="133.2,57.4 131.5,57.4 119.9,57.4 118.2,57.4 118.2,59.1 118.2,64.6 119.9,64.6 119.9,59.1 
	131.5,59.1 131.5,64.6 133.2,64.6 133.2,57.4 "/>
<g>
	<polygon fill="#E95724" points="131.5,70.8 131.5,76.3 119.9,76.3 119.9,70.8 118.2,70.8 118.2,78 118.8,78 119.9,78 131.5,78 
		133.2,78 133.2,78 133.2,70.8 	"/>
</g>
<rect x="164" y="93.2" fill="#E95724" width="3.6" height="8.8"/>
<g>
	<rect x="0.4" y="0.5" fill="#E95724" width="3.6" height="8.8"/>
	<polygon fill="#E95724" points="4,97.8 4,12.9 0.4,12.9 0.4,101.4 2.9,101.4 4,101.4 10.8,101.4 10.8,97.8 	"/>
</g>
<polygon fill="#E95724" points="167.6,0.5 164,0.5 157.2,0.5 157.2,4.1 164,4.1 164,89.6 167.6,89.6 167.6,4.1 167.6,4.1 "/>
<rect x="41.5" y="27.8" fill="#E75725" width="14.4" height="7.2"/>
<rect x="118.2" y="81.8" fill="#E75725" width="15" height="7.4"/>
<rect x="1742.2" y="392.3" fill="#E75725" width="14.4" height="7.4"/>
<rect x="1818.9" y="446.9" fill="#E75725" width="15" height="7.4"/>
</svg>
