<?xml version="1.0" encoding="utf-8"?>
<!-- Generator: Adobe Illustrator 26.5.0, SVG Export Plug-In . SVG Version: 6.00 Build 0)  -->
<svg version="1.1" baseProfile="tiny" id="Layer_1" xmlns="http://www.w3.org/2000/svg" xmlns:xlink="http://www.w3.org/1999/xlink"
	 x="0px" y="0px" viewBox="0 0 275.5 331.7" overflow="visible" xml:space="preserve">
<path fill="#52B399" d="M119.3,162.5l-73.2,42.3v84.6l73.2,42.3l73.2-42.3v-84.6L119.3,162.5z M161.5,260.4h-28.9v28.9H106v-28.9
	H77.1v-26.6H106v-28.9h26.6v28.9h28.9V260.4z"/>
<path fill="#52B399" d="M119.3,0L96.7,13v26.1l22.6,13l22.6-13v-26L119.3,0z M132.3,30.2h-8.9v8.9h-8.2v-8.9h-8.9V22h8.9v-8.9h8.2
	V22h8.9V30.2z"/>
<g>
	<path fill="#E6E6E6" d="M38.8,105.8c-3.5,0-6.5,1.2-8.9,3.7s-3.6,5.4-3.6,8.9s1.2,6.4,3.7,8.9c2.4,2.5,5.4,3.7,8.9,3.7
		c3.4,0,6.4-1.2,8.9-3.7s3.7-5.4,3.7-8.9s-1.3-6.4-3.8-8.9C45,107,42.1,105.8,38.8,105.8z"/>
	<path fill="#E6E6E6" d="M38.7,73.6L0,96v44.7l38.7,22.4l38.7-22.4V96L38.7,73.6z M55.9,139.7l-6.3-6.3c-3.2,2.3-6.8,3.5-10.9,3.5
		c-4.1,0-7.8-1.2-11-3.5l-6.3,6.3l-4.2-4.4l6.3-6.1c-2.3-3.4-3.5-7-3.5-10.8c0-3.9,1.2-7.5,3.5-10.8l-6.3-6.2l4.2-4.4l6.3,6.3
		c3.3-2.3,7-3.5,11-3.5c3.9,0,7.5,1.2,10.8,3.5l6.3-6.3l4.2,4.4l-6.3,6.2c2.4,3.4,3.6,7,3.6,10.8c0,3.7-1.2,7.3-3.6,10.8l6.4,6.1
		L55.9,139.7z"/>
</g>
<g>
	<path fill="#E6E6E6" d="M222.9,101.2c-4.8,0-8.8,1.7-12.1,5s-4.9,7.4-4.9,12c0,4.6,1.7,8.7,5,12s7.3,5,12.1,5c4.7,0,8.7-1.7,12.1-5
		c3.4-3.3,5-7.4,5-12c0-4.6-1.7-8.7-5.1-12C231.5,102.9,227.5,101.2,222.9,101.2z"/>
	<path fill="#E6E6E6" d="M222.9,57.7L170.3,88v60.7l52.6,30.3l52.6-30.3V88L222.9,57.7z M248.2,118.4c0,5-1.6,9.9-4.8,14.7l8.5,8.3
		l-5.7,5.9l-8.5-8.6c-4.3,3.1-9.3,4.7-14.8,4.7c-5.6,0-10.6-1.6-14.9-4.7l-8.6,8.6l-5.7-5.9l8.6-8.3c-3.1-4.7-4.7-9.6-4.7-14.7
		c0-5.3,1.6-10.2,4.7-14.7l-8.6-8.4l5.7-5.9l8.6,8.5c4.5-3.2,9.5-4.8,14.9-4.8c5.3,0,10.2,1.6,14.7,4.8l8.6-8.5l5.7,5.9l-8.5,8.4
		C246.6,108.3,248.2,113.2,248.2,118.4z"/>
</g>
</svg>
