<?xml version="1.0" encoding="utf-8"?>
<!-- Generator: Adobe Illustrator 26.5.2, SVG Export Plug-In . SVG Version: 6.00 Build 0)  -->
<svg version="1.1" baseProfile="tiny" id="Layer_1" xmlns="http://www.w3.org/2000/svg" xmlns:xlink="http://www.w3.org/1999/xlink"
	 x="0px" y="0px" viewBox="0 0 275.5 331.7" overflow="visible" xml:space="preserve">
<path fill="#52B399" d="M133.8,0l-22.6,13v26.1l22.6,13l22.6-13v-26L133.8,0z M146.8,30.2h-8.9v8.9h-8.2v-8.9h-8.9V22h8.9v-8.9h8.2
	V22h8.9V30.2z"/>
<g>
	<path fill="#E6E6E6" d="M234,157.3l-38.3-10.8c-1.6-0.4-3.2,0.5-3.6,2l-1.8,6.3c-0.4,1.6,0.5,3.2,2,3.6l38.3,10.8
		c1.6,0.4,3.2-0.5,3.6-2l1.8-6.3C236.5,159.4,235.6,157.8,234,157.3z"/>
	<path fill="#E6E6E6" d="M186.2,169.9c-1.5,5.2,1.6,10.6,6.8,12.1l2.2,0.6c1.7,0.5,3.5,0.3,5-0.5c1.5-0.8,3.3-1,5-0.5l1.3,0.4
		l1.3,0.4c1.7,0.5,3.1,1.6,4,3.1c0.9,1.5,2.3,2.6,4,3.1l2.2,0.6c5.2,1.5,10.6-1.6,12.1-6.8l2.4-8.5l-43.9-12.3L186.2,169.9z"/>
	<path fill="#E6E6E6" d="M232,55.6l18.5,5.2c1.1,0.3,2.2-0.3,2.6-1.4l0.9-3.1c0.6-2-0.6-4-2.6-4.6L236,47.4c-2-0.6-4,0.6-4.6,2.6
		l-0.9,3.1C230.3,54.2,230.9,55.3,232,55.6z"/>
	<path fill="#E6E6E6" d="M246.5,73.8l2.5-8.9l-17.8-5l-2.5,8.9l-16,12.7c-1.4,1.1-2.4,2.6-2.8,4.3l-1.5,5.3l43.9,12.3l1.5-5.3
		c0.5-1.7,0.4-3.5-0.2-5.1L246.5,73.8z"/>
	<path fill="#E6E6E6" d="M199.3,123.2c-0.4,1.6,0.5,3.2,2,3.6l38.3,10.8c1.6,0.4,3.2-0.5,3.6-2l7.9-27.9l-43.9-12.3L199.3,123.2z
		 M215.8,117c2-4.1,12.5-12.7,12.5-12.7s4.5,12.9,4.1,17.4c-0.4,4.5-4.6,9.2-11,7.3C214.9,127.2,213.7,121.1,215.8,117z"/>
	<path fill="#E6E6E6" d="M238.5,141.5l-38.3-10.8c-1.6-0.4-3.2,0.5-3.6,2l-1.8,6.3c-0.4,1.6,0.5,3.2,2,3.6l38.3,10.8
		c1.6,0.4,3.2-0.5,3.6-2l1.8-6.3C241,143.5,240.1,141.9,238.5,141.5z"/>
</g>
<g>
	<path fill="#D34F4B" d="M80,147.6L64.4,96l-39.5,11.9l15.6,51.5L80,147.6z M49.8,120.6l7.3-6.9l9.7,34.8l-12.1-14.7l-7.3,6.9
		l-9.7-34.8L49.8,120.6z"/>
	<path fill="#D34F4B" d="M87.1,154.6c-2.2-1.2-3.4-1.8-5.6-3l-40.1,12.1c-1.2,2.2-1.8,3.4-3,5.6l2.8,9.2l5.1-6.4l6.9,2l4.9-6
		l7.2,2.1l4.8-5.8l7.5,2.3l4.6-5.5l7.8,2.5L87.1,154.6z"/>
	<path fill="#D34F4B" d="M66.2,85.1L63.4,76l-5.1,6.4l-6.9-2l-4.9,6l-7.2-2.1L34.5,90l-7.5-2.3l-4.6,5.5l-7.8-2.5l2.8,9.2
		c2.2,1.2,3.4,1.8,5.6,3l40.1-12.1C64.3,88.6,65,87.3,66.2,85.1z"/>
</g>
<g>
	<polygon fill="#52B399" points="106.7,204.6 106,195.6 138.9,193.2 139.6,202.1 150.6,201.3 149.1,181.3 94.1,185.4 95.6,205.4 	
		"/>
	<path fill="#52B399" d="M192.1,204.2L55,214.3l7.4,101.1l137.1-10.1L192.1,204.2z M141.2,294.8l-22.6,1.7l-1.8-24.5l-24.5,1.8
		l-1.7-22.6l24.5-1.8l-1.8-24.5l22.6-1.7l1.8,24.5l24.5-1.8l1.7,22.6l-24.5,1.8L141.2,294.8z"/>
</g>
</svg>
