<?xml version="1.0" encoding="utf-8"?>
<!-- Generator: Adobe Illustrator 27.7.0, SVG Export Plug-In . SVG Version: 6.00 Build 0)  -->
<svg version="1.1" baseProfile="tiny" id="Layer_1" xmlns="http://www.w3.org/2000/svg" xmlns:xlink="http://www.w3.org/1999/xlink"
	 x="0px" y="0px" viewBox="0 0 168 102" overflow="visible" xml:space="preserve">
<rect x="138.7" y="4" fill="#0F3A44" width="16.1" height="8.7"/>
<path fill="none" stroke="#45525D" stroke-width="2" stroke-miterlimit="10" d="M162.6,25.3V11.7"/>
<path fill="none" stroke="#FF705C" stroke-width="2" stroke-miterlimit="10" d="M162.6,42.2V29.3"/>
<rect x="155.8" y="4.9" fill="none" stroke="#89C7E7" stroke-width="2" stroke-miterlimit="10" width="6.8" height="6.8"/>
<path fill="none" stroke="#45525D" stroke-width="2" stroke-miterlimit="10" d="M146.3,97.7h6c4-4,6.3-6.3,10.3-10.3V45.8"/>
<path fill="#8AC6E5" d="M144.4,96.8L144.4,96.8c0.5,0,1,0.4,1,1l0,0c0,0.5-0.4,1-1,1l0,0c-0.5,0-1-0.4-1-1l0,0
	C143.4,97.2,143.9,96.8,144.4,96.8z"/>
<path fill="#8AC6E5" d="M134.7,96.8L134.7,96.8c0.5,0,1,0.4,1,1l0,0c0,0.5-0.4,1-1,1h0c-0.5,0-1-0.4-1-1l0,0
	C133.7,97.2,134.2,96.8,134.7,96.8z"/>
<line fill="none" stroke="#45525D" stroke-width="2" stroke-miterlimit="10" x1="142.4" y1="97.7" x2="136.7" y2="97.7"/>
<line fill="none" stroke="#45525D" stroke-width="2" stroke-miterlimit="10" x1="132.8" y1="97.7" x2="127.1" y2="97.7"/>
<line fill="none" stroke="#1F2E36" stroke-width="2" stroke-miterlimit="10" x1="122.2" y1="97.7" x2="23.5" y2="97.7"/>
<path fill="none" stroke="#1F2E36" stroke-width="2" stroke-miterlimit="10" d="M152.7,66.1v7.1c-2.1,2.1-3.3,3.3-5.4,5.4H20.1
	c-2.1-2.1-3.3-3.3-5.4-5.4v-7.1"/>
<path fill="#89C7E6" d="M156.7,84.2h-2.5c-0.3,0-0.5,0.1-0.7,0.3l-4,4.1c-0.2,0.2-0.3,0.4-0.3,0.7v2.6c0,0.5,0.4,1,1,1h0.5
	c0.3,0,0.5-0.1,0.7-0.3l6.1-6.2c0.2-0.2,0.3-0.4,0.3-0.6l0-0.5C157.7,84.7,157.2,84.2,156.7,84.2z"/>
<rect x="12.9" y="4" fill="#0F3A44" width="66.5" height="8.7"/>
<rect x="79.4" y="4" fill="#335B6B" width="59.8" height="8.7"/>
<path fill="#335B6B" d="M144.9,74.9H22.5c-1.2-1.2-1.9-1.9-3.1-3.1V66h128.7v5.7C146.8,73,146.2,73.7,144.9,74.9z"/>
<path fill="none" stroke="#45525D" stroke-width="2" stroke-miterlimit="10" d="M18.6,97.7h-3.3c-4-4-6.3-6.3-10.3-10.3l0.1-75.8"/>
<path fill="#89C7E6" d="M11.1,84.2h2.6c0.3,0,0.5,0.1,0.7,0.3l4,4.1c0.2,0.2,0.3,0.4,0.3,0.7v2.6c0,0.5-0.4,1-1,1h-0.5
	c-0.3,0-0.5-0.1-0.7-0.3l-6.1-6.1c-0.2-0.2-0.3-0.4-0.3-0.7v-0.6C10.1,84.7,10.5,84.2,11.1,84.2z"/>
<rect x="4.3" y="4" fill="#89C7E7" width="8.7" height="8.7"/>
</svg>
