<?xml version="1.0" encoding="utf-8"?>
<!-- Generator: Adobe Illustrator 27.7.0, SVG Export Plug-In . SVG Version: 6.00 Build 0)  -->
<svg version="1.1" baseProfile="tiny" id="Layer_1" xmlns="http://www.w3.org/2000/svg" xmlns:xlink="http://www.w3.org/1999/xlink"
	 x="0px" y="0px" viewBox="0 0 680.4 656.6" overflow="visible" xml:space="preserve">
<rect x="637.5" fill="#0F3A44" width="33.6" height="9.1"/>
<path fill="none" stroke="#45525D" stroke-width="2" stroke-miterlimit="10" d="M679.2,432.3V8.1"/>
<path fill="none" stroke="#FF705C" stroke-width="2" stroke-miterlimit="10" d="M679.2,466.5v-30"/>
<rect x="672.1" y="1" fill="none" stroke="#89C7E7" stroke-width="2" stroke-miterlimit="10" width="7.1" height="7.1"/>
<path fill="none" stroke="#45525D" stroke-width="2" stroke-miterlimit="10" d="M662.2,655.6h7.3c3.8-3.8,5.9-5.9,9.7-9.7V471.7"/>
<rect x="659.2" y="654.6" fill="#8AC6E5" width="2" height="2"/>
<rect x="649.1" y="654.6" fill="#8AC6E5" width="2" height="2"/>
<line fill="none" stroke="#45525D" stroke-width="2" stroke-miterlimit="10" x1="658.1" y1="655.6" x2="652.2" y2="655.6"/>
<line fill="none" stroke="#45525D" stroke-width="2" stroke-miterlimit="10" x1="648.1" y1="655.6" x2="642.2" y2="655.6"/>
<line fill="none" stroke="#1F2E36" stroke-width="2" stroke-miterlimit="10" x1="637.1" y1="655.6" x2="20.1" y2="655.6"/>
<line fill="none" stroke="#1F2E36" stroke-width="2" stroke-miterlimit="10" x1="668.9" y1="635.6" x2="10.9" y2="635.6"/>
<polygon fill="#89C7E6" points="674.1,641.5 670,641.5 665.2,646.4 665.2,650.5 667.1,650.5 674,643.5 "/>
<rect x="9.1" fill="#0F3A44" width="446.1" height="9.1"/>
<rect x="455.1" fill="#335B6B" width="182.4" height="9.1"/>
<path fill="none" stroke="#45525D" stroke-width="2" stroke-miterlimit="10" d="M15,655.6h-4.4c-3.8-3.8-5.9-5.9-9.7-9.7L1,8.1"/>
<polygon fill="#89C7E6" points="6.1,641.5 10.2,641.5 15,646.4 15,650.5 13.1,650.5 6.1,643.5 "/>
<g>
	<path fill="#CEEAFF" d="M462,6c-0.1,0-0.1,0.1-0.2,0.1h-0.7c-0.1,0-0.2,0-0.2-0.1c-0.1-0.1-0.3-0.3-0.3-0.3c0-0.1-0.1-0.1-0.1-0.2
		V3.7c0-0.1,0-0.2,0.1-0.2c0.1-0.1,0.2-0.3,0.3-0.3s0.1-0.1,0.2-0.1h0.7c0.1,0,0.2,0,0.2,0.1c0.1,0.1,0.3,0.3,0.4,0.4l-0.2,0.1
		c-0.1-0.1-0.2-0.3-0.3-0.4h-0.1h-0.7H461c-0.1,0-0.2,0.2-0.3,0.3v0.1v1.8v0.1c0.1,0.1,0.2,0.3,0.3,0.3h0.1h0.7L462,6
		c0-0.2,0.2-0.3,0.2-0.5l0.2,0.1C462.3,5.7,462.2,5.9,462,6z"/>
	<path fill="#CEEAFF" d="M465.6,5.7c-0.1,0.1-0.2,0.3-0.3,0.3s-0.2,0.1-0.2,0.1h-0.8c-0.1,0-0.2,0-0.2-0.1c-0.1-0.1-0.3-0.3-0.3-0.3
		c0-0.1-0.1-0.1-0.1-0.2V3.7c0-0.1,0-0.2,0.1-0.2c0.1-0.1,0.2-0.3,0.3-0.3s0.2-0.1,0.2-0.1h0.8c0.1,0,0.2,0,0.2,0.1
		c0.1,0.1,0.3,0.3,0.3,0.3c0,0.1,0.1,0.1,0.1,0.2v1.8C465.6,5.5,465.6,5.6,465.6,5.7z M465.5,3.7C465.5,3.6,465.5,3.6,465.5,3.7
		c-0.1-0.2-0.3-0.4-0.3-0.4h-0.1h-0.8h-0.1c-0.1,0-0.3,0.2-0.3,0.3v0.1v1.8v0.1c0.1,0.1,0.3,0.3,0.3,0.3h0.1h0.8h0.1
		c0.1-0.1,0.2-0.2,0.3-0.3V5.5V3.7z"/>
	<path fill="#CEEAFF" d="M469.1,6V3.2H469l-0.9,2H468l-0.9-2l0,0V6h-0.2V3h0.4l0.8,1.9l0.8-1.9h0.4v3H469.1z"/>
	<path fill="#CEEAFF" d="M472.8,6V3.2h-0.1l-0.9,2h-0.1l-0.9-2h-0.1V6h-0.2V3h0.4l0.8,1.9l0.8-1.9h0.4L472.8,6L472.8,6z"/>
	<path fill="#CEEAFF" d="M476.2,5.7C476.1,5.8,476,6,475.9,6s-0.2,0.1-0.2,0.1h-0.8c-0.1,0-0.2,0-0.2-0.1c-0.1-0.1-0.3-0.3-0.3-0.3
		c0-0.1-0.1-0.1-0.1-0.2V3.7c0-0.1,0-0.2,0.1-0.2c0.1-0.1,0.2-0.3,0.3-0.3s0.2-0.1,0.2-0.1h0.8c0.1,0,0.2,0,0.2,0.1
		c0.1,0.1,0.3,0.3,0.3,0.3c0,0.1,0.1,0.1,0.1,0.2v1.8C476.3,5.5,476.3,5.6,476.2,5.7z M476.1,3.7C476.1,3.6,476.1,3.6,476.1,3.7
		c-0.1-0.2-0.3-0.4-0.3-0.4h-0.1h-0.8h-0.1c-0.1,0-0.3,0.2-0.3,0.3v0.1v1.8v0.1c0.1,0.1,0.3,0.3,0.3,0.3h0.1h0.8h0.1
		c0.1-0.1,0.2-0.2,0.3-0.3V5.5V3.7z"/>
	<path fill="#CEEAFF" d="M479.4,5.6c-0.1,0.1-0.2,0.3-0.3,0.3S479,6,478.9,6h-1.3V3h1.3c0.1,0,0.2,0,0.2,0.1c0.1,0,0.3,0.3,0.3,0.3
		c0,0.1,0.1,0.1,0.1,0.2v1.7C479.4,5.5,479.4,5.6,479.4,5.6z M479.3,3.7L479.3,3.7c-0.1-0.2-0.2-0.4-0.3-0.4h-0.1h-1.1v2.6h1.1h0.1
		c0.1,0,0.3-0.2,0.3-0.3V5.5V3.7z"/>
	<path fill="#CEEAFF" d="M480.7,6V3h0.2v3H480.7z"/>
	<path fill="#CEEAFF" d="M483,3.2V6h-0.2V3.2h-0.9V3.1h1.9v0.2L483,3.2L483,3.2z"/>
	<path fill="#CEEAFF" d="M485.8,4.7V6h-0.2V4.7l-0.9-1.6h0.2l0.8,1.5l0.8-1.5h0.2L485.8,4.7z"/>
	<path fill="#CEEAFF" d="M490.1,3.2V6h-0.2V3.2h-0.8V3.1h1.9v0.2L490.1,3.2L490.1,3.2z"/>
	<path fill="#CEEAFF" d="M493.6,6l-0.2-0.7H492L491.7,6h-0.2l1-3h0.4l1,3H493.6z M492.7,3.2h-0.1L492,5.1h1.3L492.7,3.2z"/>
	<path fill="#CEEAFF" d="M496.8,6V5.7c-0.1,0.1-0.2,0.2-0.2,0.2c-0.1,0-0.1,0.1-0.2,0.1h-0.8c-0.1,0-0.2,0-0.2-0.1
		c-0.1,0-0.3-0.3-0.3-0.3c0-0.1-0.1-0.1-0.1-0.2V3.7c0-0.1,0-0.2,0.1-0.2c0.1-0.1,0.3-0.3,0.3-0.3c0.1,0,0.1-0.1,0.2-0.1h0.8
		c0.1,0,0.2,0,0.2,0.1c0.2,0.1,0.3,0.3,0.4,0.4l-0.2,0.1c-0.1-0.1-0.2-0.3-0.3-0.4h-0.1h-0.8h-0.1c-0.1,0-0.3,0.2-0.3,0.3v0.1v1.7
		v0.1c0.1,0.1,0.3,0.3,0.3,0.3h0.1h0.8h0.1c0.1,0,0.3-0.2,0.3-0.3V5.4V4.6h-0.7V4.4h0.9c0,0.8,0,1.1,0,1.1s0,0.2,0.1,0.5H496.8z"/>
	<path fill="#CEEAFF" d="M501.7,5.7c-0.1,0.1-0.2,0.3-0.3,0.3c-0.1,0-0.2,0.1-0.2,0.1h-0.9c-0.1,0-0.2,0-0.2-0.1
		c-0.1-0.1-0.3-0.3-0.4-0.4l0.2-0.1c0.1,0.1,0.2,0.3,0.3,0.4h0.1h0.8h0.1c0.1-0.1,0.3-0.2,0.3-0.3V5.5V5.1c0-0.1,0-0.2-0.2-0.3
		l-1.2-0.4c-0.2,0-0.3-0.2-0.3-0.4V3.7c0-0.1,0-0.2,0-0.2c0.1-0.1,0.2-0.3,0.3-0.3c0.1,0,0.2-0.1,0.2-0.1h0.8c0.1,0,0.2,0,0.2,0.1
		c0.2,0.1,0.3,0.3,0.4,0.4l-0.2,0.1c-0.1-0.1-0.2-0.3-0.3-0.4h-0.1h-0.7h-0.1c-0.1,0-0.3,0.2-0.3,0.3v0.1V4c0,0.1,0,0.2,0.2,0.3
		l1.4,0.4c0.2,0,0.3,0.2,0.3,0.4v0.4C501.8,5.5,501.8,5.6,501.7,5.7z"/>
	<path fill="#CEEAFF" d="M504.5,6c-0.1,0-0.1,0.1-0.2,0.1h-0.7c-0.1,0-0.2,0-0.2-0.1c-0.1-0.1-0.3-0.3-0.3-0.3
		c0-0.1-0.1-0.1-0.1-0.2V3.7c0-0.1,0-0.2,0.1-0.2c0.1-0.1,0.2-0.3,0.3-0.3c0.1,0,0.1-0.1,0.2-0.1h0.7c0.1,0,0.2,0,0.2,0.1
		c0.1,0.1,0.3,0.3,0.4,0.4l-0.2,0.1c-0.1-0.1-0.2-0.3-0.3-0.4h-0.1h-0.7h-0.1c-0.1,0-0.2,0.2-0.3,0.3v0.1v1.8v0.1
		c0.1,0.1,0.2,0.3,0.3,0.3h0.1h0.7h0.1c0.1-0.1,0.3-0.2,0.3-0.4l0.2,0.1C504.8,5.7,504.7,5.9,504.5,6z"/>
	<path fill="#CEEAFF" d="M507.9,6l-0.2-0.7h-1.4L506,6h-0.2l1-3h0.4l1,3H507.9z M507.1,3.2H507l-0.6,1.9h1.3L507.1,3.2z"/>
	<path fill="#CEEAFF" d="M510.7,6l-1.3-2.8l0,0V6h-0.2V3h0.3l1.3,2.8l0,0V3.1h0.2v3L510.7,6L510.7,6z"/>
	<path fill="#CEEAFF" d="M514,6V3h0.2v2.8h1.4V6H514z"/>
	<path fill="#CEEAFF" d="M516.7,6V3h0.2v3H516.7z"/>
	<path fill="#CEEAFF" d="M520.1,5.7C520,5.8,519.9,6,519.8,6s-0.2,0.1-0.2,0.1h-0.9c-0.1,0-0.2,0-0.2-0.1c-0.1-0.1-0.3-0.3-0.4-0.4
		l0.2-0.1c0.1,0.1,0.2,0.3,0.3,0.4h0.1h0.8h0.1c0.1-0.1,0.3-0.2,0.3-0.3V5.5V5.1c0-0.1,0-0.2-0.2-0.3l-1.3-0.4
		c-0.2,0-0.3-0.2-0.3-0.4V3.7c0-0.1,0-0.2,0-0.2c0.1-0.1,0.2-0.3,0.3-0.3c0.1,0,0.2-0.1,0.2-0.1h0.8c0.1,0,0.2,0,0.2,0.1
		c0.2,0.1,0.3,0.3,0.4,0.4l-0.2,0.1c-0.1-0.1-0.2-0.3-0.3-0.4h-0.1h-0.7h-0.1c-0.1,0-0.3,0.2-0.3,0.3v0.1V4c0,0.1,0,0.2,0.2,0.3
		l1.4,0.4c0.2,0,0.3,0.2,0.3,0.4v0.4C520.2,5.5,520.2,5.6,520.1,5.7z"/>
	<path fill="#CEEAFF" d="M522.2,3.2V6H522V3.2h-0.9V3.1h1.9v0.2L522.2,3.2L522.2,3.2z"/>
	<path fill="#CEEAFF" d="M527.6,4.3c0,0.1-0.2,0.2-0.2,0.3c-0.1,0.1-0.2,0.1-0.3,0.1H527l0.8,1.4h-0.2l-0.8-1.4H526V6h-0.2V3h1.3
		c0.1,0,0.2,0,0.3,0.1c0.1,0,0.2,0.2,0.2,0.3s0.1,0.1,0.1,0.2V4C527.7,4.2,527.7,4.2,527.6,4.3z M527.5,3.7L527.5,3.7
		c0-0.2-0.2-0.3-0.3-0.4h-0.1H526v1.2h1.1h0.1c0.1,0,0.2-0.2,0.3-0.3V4.1V3.7z"/>
	<path fill="#CEEAFF" d="M529,6V3h1.6v0.2h-1.5v1.2h1.4v0.2h-1.4v1.2h1.5V6H529z"/>
	<path fill="#CEEAFF" d="M532.8,3.2V6h-0.2V3.2h-0.9V3.1h1.9v0.2L532.8,3.2L532.8,3.2z"/>
	<path fill="#CEEAFF" d="M536.6,5.7c0,0.1-0.2,0.3-0.3,0.3s-0.2,0.1-0.2,0.1h-0.7c-0.1,0-0.2,0-0.2-0.1c-0.1-0.1-0.3-0.3-0.3-0.3
		c0-0.1-0.1-0.1-0.1-0.2V3.1h0.2v2.4v0.1c0.1,0.1,0.2,0.3,0.3,0.3h0.1h0.7h0.1C536.3,5.8,536.5,5.7,536.6,5.7l-0.1-0.2V3.1h0.2v2.4
		C536.6,5.5,536.6,5.6,536.6,5.7z"/>
	<path fill="#CEEAFF" d="M539.7,4.3c0,0.1-0.2,0.2-0.2,0.3c-0.1,0.1-0.2,0.1-0.3,0.1h-0.1l0.8,1.4h-0.2l-0.8-1.4h-0.8V6h-0.2V3h1.3
		c0.1,0,0.2,0,0.3,0.1c0.1,0,0.2,0.2,0.2,0.3s0.1,0.1,0.1,0.2V4C539.8,4.2,539.7,4.2,539.7,4.3z M539.6,3.7L539.6,3.7
		c0-0.2-0.2-0.3-0.3-0.4h-0.1h-1.1v1.2h1.1h0.1c0.1,0,0.2-0.2,0.3-0.3V4.1V3.7z"/>
	<path fill="#CEEAFF" d="M542.6,6l-1.3-2.8l0,0V6h-0.2V3h0.3l1.3,2.8l0,0V3.1h0.2v3L542.6,6L542.6,6z"/>
	<path fill="#CEEAFF" d="M545.9,3.4c0,0,0.2-0.2,0.2-0.3c0.1-0.1,0.2-0.1,0.3-0.1h0.7c0.1,0,0.2,0,0.3,0.1c0.1,0,0.2,0.2,0.2,0.3
		s0.1,0.2,0.1,0.2v1.9c0,0.1,0,0.2-0.1,0.2c0,0.1-0.2,0.2-0.2,0.3c-0.1,0.1-0.2,0.1-0.3,0.1h-0.6c-0.1,0-0.2,0-0.2-0.1
		c-0.1-0.1-0.3-0.3-0.4-0.4l0.2-0.1c0.1,0.1,0.2,0.3,0.3,0.4h0.1h0.6h0.1c0.1,0,0.2-0.2,0.3-0.3V5.5v-1c-0.1,0.1-0.2,0.2-0.3,0.3
		c-0.1,0-0.2,0.1-0.2,0.1h-0.6c-0.1,0-0.2,0-0.3-0.1s-0.2-0.2-0.2-0.3c0-0.1-0.1-0.1-0.1-0.2V3.6C545.9,3.5,545.9,3.5,545.9,3.4z
		 M546,4.3L546,4.3c0.1,0.2,0.2,0.3,0.3,0.4h0.1h0.6h0.1c0.1-0.1,0.2-0.2,0.3-0.3V4.3V3.6V3.5c-0.1-0.1-0.2-0.2-0.3-0.3H547h-0.7
		h-0.1c-0.1,0.1-0.2,0.2-0.3,0.3v0.1v0.7H546z"/>
	<path fill="#CEEAFF" d="M550.6,5.7c0,0.1-0.2,0.2-0.2,0.3c-0.2,0-0.3,0.1-0.3,0.1h-0.7c-0.1,0-0.2,0-0.3-0.1
		c-0.1,0-0.2-0.2-0.2-0.3c0-0.1-0.1-0.1-0.1-0.2V3.6c0-0.1,0-0.2,0.1-0.2c0,0,0.2-0.2,0.2-0.3c0.1-0.1,0.2-0.1,0.3-0.1h0.7
		c0.1,0,0.2,0,0.3,0.1c0.1,0,0.2,0.2,0.2,0.3s0.1,0.2,0.1,0.2v1.9C550.6,5.6,550.6,5.7,550.6,5.7z M550.4,3.6L550.4,3.6
		c0-0.2-0.2-0.3-0.3-0.4H550h-0.7h-0.1c-0.1,0-0.2,0.2-0.3,0.3v0.1v1.9v0.1c0.1,0.1,0.2,0.2,0.3,0.3h0.1h0.7h0.1
		c0.1,0,0.2-0.2,0.3-0.3V5.5V3.6z"/>
	<path fill="#CEEAFF" d="M551.9,3.4c0,0,0.2-0.2,0.2-0.3c0.1-0.1,0.2-0.1,0.3-0.1h0.7c0.1,0,0.2,0,0.3,0.1c0.1,0,0.2,0.2,0.2,0.3
		s0.1,0.2,0.1,0.2v1.9c0,0.1,0,0.2-0.1,0.2c0,0.1-0.2,0.2-0.2,0.3c-0.1,0.1-0.2,0.1-0.3,0.1h-0.6c-0.1,0-0.2,0-0.2-0.1
		c-0.1-0.1-0.3-0.3-0.4-0.4l0.2-0.1c0.1,0.1,0.2,0.3,0.3,0.4h0.1h0.6h0.1c0.1,0,0.2-0.2,0.2-0.3V5.5v-1c-0.1,0.1-0.2,0.2-0.3,0.3
		c-0.1,0-0.2,0.1-0.2,0.1h-0.6c-0.1,0-0.2,0-0.3-0.1s-0.2-0.2-0.2-0.3c0-0.1-0.1-0.1-0.1-0.2V3.6C551.8,3.5,551.8,3.5,551.9,3.4z
		 M552,4.3L552,4.3c0.1,0.2,0.2,0.3,0.3,0.4h0.1h0.6h0.1c0.1-0.1,0.2-0.2,0.3-0.3V4.3V3.6V3.5c0-0.1-0.2-0.2-0.3-0.3H553h-0.7h-0.1
		c-0.1,0.1-0.2,0.2-0.3,0.3v0.1v0.7H552z"/>
	<path fill="#CEEAFF" d="M554.9,6L554.9,6l0.7-0.1V3.2h-0.7V3.1h0.9v2.8h0.7V6H554.9z"/>
	<path fill="#CEEAFF" d="M558.2,6H558l1.3-2.8h-1.6V3.1h1.8v0.2L558.2,6z"/>
	<path fill="#CEEAFF" d="M562.4,5.7c0,0.1-0.2,0.2-0.2,0.3c-0.1,0.1-0.2,0.1-0.3,0.1h-0.7c-0.1,0-0.2,0-0.3-0.1
		c-0.1,0-0.2-0.2-0.2-0.3c0-0.1-0.1-0.1-0.1-0.2V5c0-0.1,0-0.2,0.1-0.2c0,0,0.1-0.1,0.2-0.2c-0.1-0.1-0.2-0.2-0.2-0.3
		c0-0.1-0.1-0.1-0.1-0.2V3.6c0-0.1,0-0.2,0.1-0.2c0,0,0.2-0.2,0.2-0.3C561,3,561.1,3,561.2,3h0.7c0.1,0,0.2,0,0.3,0.1
		c0.1,0,0.2,0.2,0.2,0.3s0.1,0.2,0.1,0.2V4c0,0.1,0,0.2-0.1,0.2c0,0-0.1,0.2-0.2,0.3c0.1,0.1,0.2,0.2,0.2,0.2c0,0.1,0.1,0.1,0.1,0.2
		v0.5C562.5,5.6,562.5,5.7,562.4,5.7z M562.3,3.6L562.3,3.6c-0.1-0.2-0.2-0.3-0.3-0.4h-0.1h-0.7h-0.1c-0.1,0.1-0.2,0.2-0.3,0.3v0.1
		V4v0.1c0.1,0.1,0.2,0.2,0.3,0.3h0.1h0.7h0.1c0.1,0,0.2-0.2,0.3-0.3V4V3.6z M562.3,5L562.3,5c-0.1-0.2-0.2-0.3-0.3-0.4h-0.1h-0.7
		h-0.1c-0.1,0-0.2,0.2-0.3,0.3V5v0.5v0.1c0.1,0.1,0.2,0.2,0.3,0.3h0.1h0.7h0.1c0.1,0,0.2-0.2,0.3-0.3V5.5V5z"/>
	<path fill="#CEEAFF" d="M565.2,4.4L564.1,5c-0.1,0.1-0.2,0.2-0.2,0.3v0.6h1.5V6h-1.7V5.3c0-0.2,0.1-0.3,0.3-0.4l1.1-0.6
		c0.1-0.1,0.2-0.2,0.2-0.3V3.6V3.5c-0.1-0.1-0.2-0.2-0.3-0.3h-0.1h-0.6h-0.1c-0.1,0.1-0.3,0.2-0.3,0.4l-0.2-0.1
		c0.1-0.2,0.2-0.3,0.4-0.4c0.1,0,0.2-0.1,0.2-0.1h0.6c0.1,0,0.2,0,0.3,0.1c0.1,0,0.2,0.2,0.2,0.3s0.1,0.2,0.1,0.2V4
		C565.5,4.2,565.4,4.3,565.2,4.4z"/>
</g>
<rect fill="#89C7E7" width="9.1" height="9.1"/>
</svg>
