<?xml version="1.0" encoding="utf-8"?>
<!-- Generator: Adobe Illustrator 29.4.0, SVG Export Plug-In . SVG Version: 9.03 Build 0)  -->
<svg version="1.1" baseProfile="tiny" id="Layer_1" xmlns="http://www.w3.org/2000/svg" xmlns:xlink="http://www.w3.org/1999/xlink"
	 x="0px" y="0px" viewBox="0 0 181 33.4" overflow="visible" xml:space="preserve">
<polygon fill="none" stroke="#FFFFFF" stroke-miterlimit="10" points="78.8,0.5 77.3,0.5 70.9,0.5 69.7,0.5 69.3,1.7 60.8,31.5 
	60.5,32.9 61.9,32.9 68.2,32.9 69.5,32.9 69.8,31.7 78.3,1.9 "/>
<polygon fill="none" stroke="#FFFFFF" stroke-miterlimit="10" points="171,0.5 161.5,32.9 170.6,32.9 180.3,0.5 "/>
<path fill="none" stroke="#FFFFFF" stroke-miterlimit="10" d="M49.3,0.5H9.5L1.3,31l-0.6,1.9h2h6.6h1.6l0.4-1.6l6.2-23.6h12.9
	L24.3,31l-0.5,1.9h1.9H32h1.7l0.4-1.6l6.2-23.6h7.2c1.4,0,2.5,0.5,3.2,1.5c0.7,1,0.9,2.3,0.5,3.7L46.5,31l-0.6,1.9h1.9h6h1.6
	l0.5-1.6l4.7-18.2c1-3.4,0.5-6.6-1.3-9C57.7,1.8,52.6,0.5,49.3,0.5z"/>
<path fill="none" stroke="#FFFFFF" stroke-miterlimit="10" d="M160.9,20.3h-6.6l-3.5-19.8h-10.4L119.5,27c-1.5,0-9.2,0-11.7,0
	c-3.6,0-5.5-1.5-5.1-3.9c0.1,0,2.9,0,2.9,0c1.2-0.1,2.8-0.2,4.7-0.6c4-0.8,9-2.9,10.4-9.5c1.7-7.6-1.9-12.4-12.3-12.4H84.7L81,12.9
	l-6,20.1h9.1l2.9-9.9h6.6c-0.7,8,6.6,9.9,12.5,9.9h8.8h3.1h7.1l4.9-6.5h16.6l1.1,6.5h8.9l-1.2-6.5l3.8,0L160.9,20.3z M89.2,15.9
	l0.9-3h0l1.6-5.2h13.1c4.7,0,7.8,0.8,7.2,3.9c-0.8,3.9-5.5,4.4-9.7,4.4H89.2z M134.6,20.3l9.1-12l1.9,12H134.6z"/>
</svg>
