<?xml version="1.0" encoding="utf-8"?>
<!-- Generator: Adobe Illustrator 29.4.0, SVG Export Plug-In . SVG Version: 9.03 Build 0)  -->
<svg version="1.1" baseProfile="tiny" id="Layer_1" xmlns="http://www.w3.org/2000/svg" xmlns:xlink="http://www.w3.org/1999/xlink"
	 x="0px" y="0px" viewBox="0 0 182.5 9.2" overflow="visible" xml:space="preserve">
<g>
	<path fill="none" stroke="#FFFFFF" stroke-width="0.5" stroke-miterlimit="10" d="M4.2,2.3L3.4,8.8H1.3l0.8-6.6H0.3l0.2-1.9h5.7
		L6,2.3H4.2z"/>
	<path fill="none" stroke="#FFFFFF" stroke-width="0.5" stroke-miterlimit="10" d="M14.5,0.4l-1,8.4h-2.1l0.4-3.4H8.7L8.3,8.8H6.1
		l1-8.4h2.1L8.9,3.5H12l0.4-3.1H14.5z"/>
	<path fill="none" stroke="#FFFFFF" stroke-width="0.5" stroke-miterlimit="10" d="M20.9,0.4l-0.2,1.9h-2.5L18,3.7h2.4l-0.2,1.8
		h-2.4L17.6,7h2.6L20,8.8h-4.7l1-8.4H20.9z"/>
	<path fill="none" stroke="#FFFFFF" stroke-width="0.5" stroke-miterlimit="10" d="M30.1,0.4l-0.2,1.9h-2.7l-0.2,1.4h2.4l-0.2,1.8
		h-2.4l-0.4,3.3h-2.1l1-8.4H30.1z"/>
	<path fill="none" stroke="#FFFFFF" stroke-width="0.5" stroke-miterlimit="10" d="M38.6,0.4L38,5.3c-0.2,1.6-0.4,2.3-1,2.8
		C36.4,8.7,35.4,9,34.2,9c-2.2,0-3.5-1.1-3.5-2.9c0-0.3,0-0.6,0.1-1.2l0.6-4.5h2.1L32.9,5c0,0.3,0,0.5,0,0.7c0,0.9,0.5,1.3,1.4,1.3
		c0.5,0,0.9-0.1,1.2-0.4c0.3-0.3,0.4-0.6,0.5-1.4l0.6-4.8H38.6z"/>
	<path fill="none" stroke="#FFFFFF" stroke-width="0.5" stroke-miterlimit="10" d="M43.3,2.3l-0.8,6.6h-2.1l0.8-6.6h-1.8l0.2-1.9
		h5.7l-0.2,1.9H43.3z"/>
	<path fill="none" stroke="#FFFFFF" stroke-width="0.5" stroke-miterlimit="10" d="M53.5,0.4l-0.6,4.9c-0.2,1.6-0.4,2.3-1,2.8
		C51.3,8.7,50.3,9,49.1,9c-2.2,0-3.5-1.1-3.5-2.9c0-0.3,0-0.6,0.1-1.2l0.6-4.5h2.1L47.8,5c0,0.3,0,0.5,0,0.7c0,0.9,0.5,1.3,1.4,1.3
		c0.5,0,0.9-0.1,1.2-0.4c0.3-0.3,0.4-0.6,0.5-1.4l0.6-4.8H53.5z"/>
	<path fill="none" stroke="#FFFFFF" stroke-width="0.5" stroke-miterlimit="10" d="M59.2,5.6l2,3.3h-2.5l-1.9-3.3l-0.4,3.3h-2.1
		l1-8.4H58c1.1,0,1.9,0.2,2.3,0.7C60.8,1.6,61,2.3,61,3s-0.2,1.4-0.7,1.9C60,5.2,59.8,5.4,59.2,5.6z M57.2,2.1l-0.3,2.2h0.4
		c1,0,1.5-0.4,1.5-1.2c0-0.7-0.3-1-1.2-1H57.2z"/>
	<path fill="none" stroke="#FFFFFF" stroke-width="0.5" stroke-miterlimit="10" d="M67.7,0.4l-0.2,1.9H65l-0.2,1.4h2.4L67,5.5h-2.4
		L64.4,7H67l-0.2,1.9h-4.7l1-8.4H67.7z"/>
	<path fill="none" stroke="#FFFFFF" stroke-width="0.5" stroke-miterlimit="10" d="M80.4,4.2c0,0.1,0,0.1,0,0.2
		c0,2.8-1.8,4.6-4.6,4.6c-2.7,0-4.6-1.7-4.6-4.3c0-2.6,2-4.5,4.8-4.5C78.5,0.2,80.3,1.8,80.4,4.2z M78.2,4.4c-0.1-1.3-1-2.2-2.3-2.2
		c-1.4,0-2.5,1-2.5,2.4S74.4,7,75.8,7c1.4,0,2.4-1,2.4-2.4C78.2,4.5,78.2,4.5,78.2,4.4z"/>
	<path fill="none" stroke="#FFFFFF" stroke-width="0.5" stroke-miterlimit="10" d="M87.1,0.4l-0.2,1.9h-2.7L84,3.7h2.4l-0.2,1.8
		h-2.4l-0.4,3.3h-2.1l1-8.4H87.1z"/>
	<path fill="none" stroke="#FFFFFF" stroke-width="0.5" stroke-miterlimit="10" d="M91.2,0.4H94c1,0,1.8,0.1,2.4,0.7
		c0.6,0.6,0.7,1.4,0.7,1.9c0,0.6-0.1,1.4-0.7,2C96,5.7,95,6,93.6,6h-0.9l-0.3,2.8h-2.1L91.2,0.4z M93.1,2.2l-0.3,2.1h0.7
		c0.3,0,0.9,0,1.2-0.4C95,3.7,95,3.4,95,3.2c0-0.4-0.1-0.6-0.2-0.7c-0.3-0.3-0.7-0.3-1-0.3H93.1z"/>
	<path fill="none" stroke="#FFFFFF" stroke-width="0.5" stroke-miterlimit="10" d="M103.1,0.4l-0.2,1.9h-2.5l-0.2,1.4h2.4l-0.2,1.8
		H100L99.8,7h2.6l-0.2,1.9h-4.7l1-8.4H103.1z"/>
	<path fill="none" stroke="#FFFFFF" stroke-width="0.5" stroke-miterlimit="10" d="M108.5,5.6l2,3.3H108l-1.9-3.3l-0.4,3.3h-2.1
		l1-8.4h2.7c1.1,0,1.9,0.2,2.3,0.7c0.4,0.4,0.6,1.1,0.6,1.9s-0.2,1.4-0.7,1.9C109.3,5.2,109.1,5.4,108.5,5.6z M106.5,2.1l-0.3,2.2
		h0.4c1,0,1.5-0.4,1.5-1.2c0-0.7-0.3-1-1.2-1H106.5z"/>
	<path fill="none" stroke="#FFFFFF" stroke-width="0.5" stroke-miterlimit="10" d="M117.2,0.4L117,2.3h-2.7l-0.2,1.4h2.4l-0.2,1.8
		h-2.4l-0.4,3.3h-2.1l1-8.4H117.2z"/>
	<path fill="none" stroke="#FFFFFF" stroke-width="0.5" stroke-miterlimit="10" d="M126.7,4.2c0,0.1,0,0.1,0,0.2
		c0,2.8-1.8,4.6-4.6,4.6c-2.7,0-4.6-1.7-4.6-4.3c0-2.6,2-4.5,4.8-4.5C124.8,0.2,126.6,1.8,126.7,4.2z M124.5,4.4
		c-0.1-1.3-1-2.2-2.3-2.2c-1.4,0-2.5,1-2.5,2.4S120.6,7,122,7c1.4,0,2.4-1,2.4-2.4C124.5,4.5,124.5,4.5,124.5,4.4z"/>
	<path fill="none" stroke="#FFFFFF" stroke-width="0.5" stroke-miterlimit="10" d="M132.5,5.6l2,3.3H132l-1.9-3.3l-0.4,3.3h-2.1
		l1-8.4h2.7c1.1,0,1.9,0.2,2.3,0.7c0.4,0.4,0.6,1.1,0.6,1.9s-0.2,1.4-0.7,1.9C133.3,5.2,133.1,5.4,132.5,5.6z M130.5,2.1l-0.3,2.2
		h0.4c1,0,1.5-0.4,1.5-1.2c0-0.7-0.3-1-1.2-1H130.5z"/>
	<path fill="none" stroke="#FFFFFF" stroke-width="0.5" stroke-miterlimit="10" d="M145.6,0.4l0.3,8.4h-2.1l-0.1-3.8
		c0-0.1,0-0.2,0-0.3c0-0.5,0-0.8,0.1-1.4c-0.2,0.5-0.4,0.9-0.6,1.4L141,8.8h-1.1l-0.7-3.3c-0.2-0.8-0.2-1.2-0.4-2.3
		c-0.2,1-0.3,1.4-0.4,1.9l-1.1,3.6h-2.2l2.7-8.4h2.1l0.6,2.8c0.2,0.7,0.3,1.4,0.4,2.2c0.1-0.4,0.3-0.9,0.5-1.1l2-3.9H145.6z"/>
	<path fill="none" stroke="#FFFFFF" stroke-width="0.5" stroke-miterlimit="10" d="M149.5,7.4l-0.6,1.4h-2.4l4.2-8.4h2.4l2,8.4h-2.2
		l-0.4-1.4H149.5z M150.3,5.8h1.8l-0.4-1.6c-0.1-0.6-0.2-0.7-0.2-1c0-0.1,0-0.2-0.1-0.3c-0.1,0.4-0.3,0.7-0.4,1L150.3,5.8z"/>
	<path fill="none" stroke="#FFFFFF" stroke-width="0.5" stroke-miterlimit="10" d="M165.3,0.4l-1,8.4h-2.3l-2.2-3.8
		c-0.4-0.6-0.7-1.2-1-2.1v0.4c0,0.6,0,1.1-0.1,1.6l-0.5,3.9H156l1-8.4h2.3l2.4,4.1l0.4,0.7l0.3,0.6l0.2,0.3c0-0.5,0-0.9,0.1-1.4
		l0.5-4.3H165.3z"/>
	<path fill="none" stroke="#FFFFFF" stroke-width="0.5" stroke-miterlimit="10" d="M173.3,1L173,3c-0.6-0.5-1.3-0.8-2.1-0.8
		c-1.6,0-2.7,1-2.7,2.4c0,1.4,1,2.3,2.4,2.3c0.7,0,1.3-0.2,1.9-0.5l-0.3,2.1c-0.9,0.3-1.3,0.4-2,0.4c-2.5,0-4.2-1.7-4.2-4.2
		c0-2.6,2-4.6,4.6-4.6C171.6,0.2,172.4,0.5,173.3,1z"/>
	<path fill="none" stroke="#FFFFFF" stroke-width="0.5" stroke-miterlimit="10" d="M179.3,0.4l-0.2,1.9h-2.5l-0.2,1.4h2.4l-0.2,1.8
		h-2.4L176.1,7h2.6l-0.2,1.9h-4.7l1-8.4H179.3z"/>
	<path fill="none" stroke="#FFFFFF" stroke-width="0.5" stroke-miterlimit="10" d="M182.3,7.7c0,0.7-0.6,1.3-1.3,1.3
		c-0.7,0-1.3-0.6-1.3-1.3c0-0.7,0.6-1.3,1.2-1.3C181.7,6.4,182.3,7,182.3,7.7z"/>
</g>
</svg>
