<?xml version="1.0" encoding="utf-8"?>
<!-- Generator: Adobe Illustrator 24.1.1, SVG Export Plug-In . SVG Version: 6.00 Build 0)  -->
<svg version="1.1" baseProfile="tiny" xmlns="http://www.w3.org/2000/svg" xmlns:xlink="http://www.w3.org/1999/xlink" x="0px"
	 y="0px" viewBox="0 0 260 210" xml:space="preserve">
<g id="BG">
</g>
<g id="REF">
</g>
<g id="DESIGN">
</g>
<g id="Layer_2">
</g>
<g id="Layer_3">
	<path fill="#FFFFFF" d="M248.29,4.39H11.71c-4.47,0-8.09,3.62-8.09,8.09v185.03c0,4.47,3.62,8.09,8.09,8.09h236.58
		c4.47,0,8.09-3.62,8.09-8.09V12.49C256.38,8.02,252.76,4.39,248.29,4.39z M13.81,20.08c0-0.83,0.67-1.5,1.5-1.5H193.6
		c0.83,0,1.5,0.67,1.5,1.5V48.8c0,0.83-0.67,1.5-1.5,1.5H15.31c-0.83,0-1.5-0.67-1.5-1.5V20.08z M195.1,56.55
		c0,0.83-0.67,1.5-1.5,1.5H15.31c-0.83,0-1.5-0.67-1.5-1.5c0-0.83,0.67-1.5,1.5-1.5H193.6C194.43,55.05,195.1,55.73,195.1,56.55z
		 M13.81,64.66c0-0.83,0.67-1.5,1.5-1.5H193.6c0.83,0,1.5,0.67,1.5,1.5v117.25c0,0.83-0.67,1.5-1.5,1.5H15.31
		c-0.83,0-1.5-0.67-1.5-1.5V64.66z M244.69,192.07H15.31c-0.83,0-1.5-0.67-1.5-1.5s0.67-1.5,1.5-1.5h229.38c0.83,0,1.5,0.67,1.5,1.5
		S245.52,192.07,244.69,192.07z M246.19,181.92c0,0.83-0.67,1.5-1.5,1.5h-39.65c-0.83,0-1.5-0.67-1.5-1.5V20.08
		c0-0.83,0.67-1.5,1.5-1.5h39.65c0.83,0,1.5,0.67,1.5,1.5V181.92z"/>
</g>
</svg>
