<?xml version="1.0" encoding="utf-8"?>
<!-- Generator: Adobe Illustrator 24.1.1, SVG Export Plug-In . SVG Version: 6.00 Build 0)  -->
<svg version="1.1" baseProfile="tiny" id="Layer_1" xmlns="http://www.w3.org/2000/svg" xmlns:xlink="http://www.w3.org/1999/xlink"
	 x="0px" y="0px" viewBox="0 0 38.1 36.1" xml:space="preserve">
<g>
	<path fill="#FFFFFF" d="M3.2,17.4l1.5-1.3c0.3-0.3,0.6-0.4,0.9-0.4v-0.2c-0.3,0-0.6-0.1-0.9-0.4l-1.1-0.8c-0.3-0.3-0.5-0.6-0.5-1.1
		V7.7c0-0.6,0.3-1.2,0.8-1.6l0.8-0.6c0.5-0.4,1-0.6,1.5-0.6H16c0.5,0,1,0.2,1.5,0.6l0.8,0.6c0.5,0.4,0.8,1,0.8,1.6v5.5
		c0,0.5-0.2,0.8-0.5,1.1l-1.1,0.8c-0.3,0.3-0.6,0.4-0.9,0.4v0.2c0.3,0,0.6,0.1,0.9,0.4l1.5,1.3c0.3,0.2,0.4,0.7,0.4,1.3v5.8
		c0,0.6-0.3,1.2-0.8,1.6c-0.2,0.1-0.4,0.3-0.8,0.6c-0.5,0.4-1,0.6-1.5,0.6H5.8c-0.5,0-1-0.2-1.5-0.6c-0.3-0.3-0.6-0.5-0.8-0.6
		c-0.5-0.4-0.8-1-0.8-1.6v-5.8C2.7,18,2.9,17.6,3.2,17.4z M14.4,17H7.9c-0.3,0-0.5,0-0.6,0S7,17.2,6.8,17.4L6,18
		c-0.3,0.2-0.4,0.4-0.5,0.5s-0.1,0.3-0.1,0.7v4.6c0,0.3,0,0.5,0,0.6s0.1,0.2,0.3,0.4C6,24.9,6.2,25,6.3,25s0.4,0,0.7,0h8.2
		c0.4,0,0.6,0,0.7,0c0.1,0,0.3-0.1,0.4-0.3c0.2-0.2,0.3-0.3,0.3-0.4s0-0.3,0-0.6v-4.6c0-0.3,0-0.6-0.1-0.7c0-0.1-0.2-0.3-0.5-0.5
		l-0.7-0.6c-0.3-0.2-0.4-0.3-0.5-0.4C14.9,17,14.7,17,14.4,17z M14.8,7.1H7.4c-0.4,0-0.6,0-0.7,0S6.4,7.2,6.3,7.4
		C6,7.5,5.9,7.7,5.9,7.8c0,0.1,0,0.3,0,0.6v4.2c0,0.4,0,0.6,0.1,0.7c0,0.1,0.2,0.3,0.4,0.5l0.8,0.7c0.2,0.2,0.4,0.3,0.5,0.3
		s0.4,0,0.8,0h5.4c0.4,0,0.6,0,0.8,0c0.1,0,0.3-0.1,0.5-0.3l0.8-0.7c0.3-0.2,0.4-0.4,0.4-0.5s0.1-0.3,0.1-0.7V8.4c0-0.3,0-0.5,0-0.6
		s-0.1-0.2-0.3-0.4c-0.2-0.1-0.3-0.2-0.4-0.3C15.5,7.1,15.2,7.1,14.8,7.1z"/>
	<path fill="#FFFFFF" d="M30.1,17h0.1c0-0.3,0.1-0.6,0.4-1l3.1-4.8h2.8l-5,7.7l5.4,8.3h-2.8l-3.5-5.4c-0.3-0.4-0.4-0.7-0.4-1h-0.1
		c0,0.2-0.1,0.5-0.4,1l-3.5,5.4h-2.8l5.4-8.3l-5-7.7h2.8l3.1,4.8C29.9,16.4,30.1,16.8,30.1,17z"/>
</g>
</svg>
