<?xml version="1.0" encoding="utf-8"?>
<!-- Generator: Adobe Illustrator 24.1.1, SVG Export Plug-In . SVG Version: 6.00 Build 0)  -->
<svg version="1.1" baseProfile="tiny" id="Layer_1" xmlns="http://www.w3.org/2000/svg" xmlns:xlink="http://www.w3.org/1999/xlink"
	 x="0px" y="0px" viewBox="0 0 50.2 36.1" xml:space="preserve">
<g>
	<path fill="#FFFFFF" d="M3.1,11.3L1.6,9.7l4.5-4.9h3.8v22.5H7.4V7.4c0-0.4,0-0.7,0.1-0.8L7.4,6.5L3.1,11.3z"/>
	<path fill="#FFFFFF" d="M31.3,9h-2.7V8.4c0-0.3,0-0.5,0-0.6s-0.1-0.2-0.3-0.4c-0.2-0.1-0.3-0.2-0.5-0.3c-0.1,0-0.4,0-0.7,0h-7.7
		c-0.4,0-0.6,0-0.7,0s-0.3,0.1-0.4,0.3C18.1,7.6,18,7.7,18,7.8s0,0.3,0,0.6v6.4h0.1l0.2-0.2c0.7-0.7,1.3-1.1,1.8-1.1h8.7
		c0.5,0,1,0.2,1.5,0.6l0.8,0.6c0.5,0.4,0.8,1,0.8,1.6v8c0,0.6-0.3,1.2-0.8,1.6l-0.8,0.6c-0.5,0.4-1,0.6-1.5,0.6H18.1
		c-0.5,0-1-0.2-1.5-0.6L15.8,26c-0.5-0.4-0.8-1-0.8-1.6V7.7c0-0.6,0.3-1.2,0.8-1.6l0.8-0.6c0.5-0.4,1-0.6,1.5-0.6h10.1
		c0.5,0,1,0.2,1.5,0.6l0.8,0.6c0.5,0.4,0.8,1,0.8,1.6V9z M28.9,23.7V17c0-0.3,0-0.5,0-0.6s-0.1-0.2-0.3-0.4
		c-0.2-0.1-0.3-0.2-0.4-0.3c-0.1,0-0.4,0-0.7,0h-7.2c-0.4,0-0.7,0-0.8,0.1c-0.1,0-0.4,0.2-0.8,0.4c-0.5,0.3-0.7,0.6-0.8,0.8v6.7
		c0,0.3,0,0.5,0,0.6s0.1,0.2,0.3,0.4c0.2,0.1,0.3,0.2,0.4,0.3s0.4,0,0.7,0h8c0.4,0,0.6,0,0.7,0s0.3-0.1,0.4-0.3
		c0.2-0.2,0.3-0.3,0.3-0.4C28.9,24.3,28.9,24,28.9,23.7z"/>
	<path fill="#FFFFFF" d="M42.2,17L42.2,17c0.1-0.3,0.2-0.6,0.5-1l3.1-4.8h2.8l-5,7.7l5.4,8.3h-2.8l-3.5-5.4c-0.3-0.4-0.4-0.7-0.4-1
		h-0.1c0,0.2-0.1,0.5-0.4,1l-3.5,5.4h-2.8l5.4-8.3l-5-7.7h2.8l3.1,4.8C42.1,16.4,42.2,16.8,42.2,17z"/>
</g>
</svg>
