<?xml version="1.0" encoding="utf-8"?>
<!-- Generator: Adobe Illustrator 24.1.1, SVG Export Plug-In . SVG Version: 6.00 Build 0)  -->
<svg version="1.1" baseProfile="tiny" id="Layer_1" xmlns="http://www.w3.org/2000/svg" xmlns:xlink="http://www.w3.org/1999/xlink"
	 x="0px" y="0px" viewBox="0 0 485.2 155.6" xml:space="preserve">
<g id="Layer_2_1_">
	<g id="v6">
		<rect fill="#FFFFFF" width="1.8" height="18.2"/>
		<rect x="24.2" fill="#FFFFFF" width="1.8" height="8.3"/>
		<rect x="48.3" fill="#FFFFFF" width="1.8" height="8.3"/>
		<rect x="72.5" fill="#FFFFFF" width="1.8" height="8.3"/>
		<rect x="96.7" fill="#FFFFFF" width="1.8" height="8.3"/>
		<rect x="120.8" fill="#FFFFFF" width="1.8" height="18.2"/>
		<rect x="145" fill="#FFFFFF" width="1.8" height="8.3"/>
		<rect x="169.2" fill="#FFFFFF" width="1.8" height="8.3"/>
		<rect x="193.4" fill="#FFFFFF" width="1.8" height="8.3"/>
		<rect x="217.5" fill="#FFFFFF" width="1.8" height="8.3"/>
		<rect x="265.9" fill="#FFFFFF" width="1.8" height="8.3"/>
		<rect x="290" fill="#FFFFFF" width="1.8" height="8.3"/>
		<rect x="314.2" fill="#FFFFFF" width="1.8" height="8.3"/>
		<rect x="338.4" fill="#FFFFFF" width="1.8" height="8.3"/>
		<rect x="362.5" fill="#FFFFFF" width="1.8" height="18.2"/>
		<rect x="386.7" fill="#FFFFFF" width="1.8" height="8.3"/>
		<rect x="410.9" fill="#FFFFFF" width="1.8" height="8.3"/>
		<rect x="435" fill="#FFFFFF" width="1.8" height="8.3"/>
		<rect x="459.2" fill="#FFFFFF" width="1.8" height="8.3"/>
		<rect x="483.4" fill="#FFFFFF" width="1.8" height="18.2"/>
		<polygon fill="#FFFFFF" points="248.1,58.9 242.6,50 237,58.9 235.5,58 242.6,46.7 249.6,58 		"/>
		<polygon fill="#FFFFFF" points="248.1,107.3 242.6,98.3 237,107.3 235.5,106.3 242.6,95 249.6,106.3 		"/>
		<polygon fill="#FFFFFF" points="248.1,155.6 242.6,146.7 237,155.6 235.5,154.7 242.6,143.3 249.6,154.7 		"/>
	</g>
</g>
</svg>
