<?xml version="1.0" encoding="utf-8"?>
<!-- Generator: Adobe Illustrator 27.8.1, SVG Export Plug-In . SVG Version: 6.00 Build 0)  -->
<svg version="1.1" baseProfile="tiny" id="Layer_1" xmlns="http://www.w3.org/2000/svg" xmlns:xlink="http://www.w3.org/1999/xlink"
	 x="0px" y="0px" viewBox="0 0 1837.2 958.8" overflow="visible" xml:space="preserve">
<path fill="#FFFFFF" d="M1819.7,958.8H17.5C7.9,958.8,0,951,0,941.3V17.5C0,7.9,7.9,0,17.5,0h833.9v5H17.5C10.6,5,5,10.6,5,17.5
	v923.8c0,6.9,5.6,12.5,12.5,12.5h1802.2c6.9,0,12.5-5.6,12.5-12.5V17.5c0-6.9-5.6-12.5-12.5-12.5H985.8V0h833.9
	c9.6,0,17.5,7.9,17.5,17.5v923.8C1837.2,951,1829.4,958.8,1819.7,958.8z"/>
</svg>
