<?xml version="1.0" encoding="utf-8"?>
<!-- Generator: Adobe Illustrator 29.8.2, SVG Export Plug-In . SVG Version: 9.03 Build 0)  -->
<svg version="1.1" baseProfile="tiny" id="Layer_1" xmlns="http://www.w3.org/2000/svg" xmlns:xlink="http://www.w3.org/1999/xlink"
	 x="0px" y="0px" viewBox="0 0 297.7 168" overflow="visible" xml:space="preserve">
<path d="M5.2,140v1.6c0,2.7,1.5,6.4,3.4,8.3l9.3,9.3c1.9,1.9,5.6,3.4,8.3,3.4h245.2c2.7,0,6.4-1.5,8.3-3.4l9.3-9.3
	c1.9-1.9,3.4-5.6,3.4-8.3V140l0-112.1v-1.6c0-2.7-1.5-6.4-3.4-8.3l-9.3-9.3c-1.9-1.9-5.6-3.4-8.3-3.4H26.3c-2.7,0-6.4,1.5-8.3,3.4
	L8.6,18c-1.9,1.9-3.4,5.6-3.4,8.3v1.6L5.2,140z"/>
</svg>
