<?xml version="1.0" encoding="utf-8"?>
<!-- Generator: Adobe Illustrator 28.1.0, SVG Export Plug-In . SVG Version: 6.00 Build 0)  -->
<svg version="1.1" baseProfile="tiny" id="Layer_1" xmlns="http://www.w3.org/2000/svg" xmlns:xlink="http://www.w3.org/1999/xlink"
	 x="0px" y="0px" viewBox="0 0 1920 1080" overflow="visible" xml:space="preserve">
<path id="colorstyle:Disabled" fill="none" stroke="#808080" stroke-miterlimit="10" d="M1195.4,767.3H724.6
	c-20.2,0-36.5-16.3-36.5-36.5V315.5c0-20.2,16.3-36.5,36.5-36.5h470.9c20.2,0,36.5,16.3,36.5,36.5v415.3
	C1231.9,751,1215.6,767.3,1195.4,767.3z"/>
<path id="colorstyle:Accent2" fill="none" stroke="#808080" stroke-width="4" stroke-miterlimit="10" d="M756.2,396.8v195.5h37.6
	V445.9l125.9,146.4h41.1V431h162.3c1.8,0,3.2,1.4,3.2,3.2v122.2c0,1.8-1.4,3.2-3.2,3.2h-94.3l-32.4,32.6l131.7-0.2
	c19.8,0,35.8-16.1,35.8-35.9V434.6c0-19.8-16.1-35.9-35.9-35.9H923.2v145.8L797.5,398.7h-41.4"/>
<path id="colorstyle:Bright" fill="none" stroke="#808080" stroke-miterlimit="10" d="M793.7,657.6v-24h10.5v36h-10.7l-27-24.1v24.1
	h-10.3v-36h10.7L793.7,657.6z M856.2,633.6v7.8h-33.9v6.3h27.3v7.8h-27.3v6.3h33.9v7.8h-44.4v-36H856.2z M923.9,633.6h10.9l-17.5,36
	h-7.9l-11.3-23.2l-4.3,8.8l-7,14.4h-7.9l-17.5-36h11l10.5,21.5l1.7-3.4l8.8-18.1h9.5l10.5,21.5l1.7-3.4L923.9,633.6z M963,633.6
	h38.1c2.8,0,5.1,0.7,7,2.2c1.9,1.5,2.9,3.2,2.9,5.2v21.2c0,2-1,3.8-2.9,5.2c-1.9,1.5-4.3,2.2-7,2.2H963V633.6z M973.4,641.4v20.4
	h27.2v-20.4H973.4z M1063,633.6v7.8h-33.9v6.3h27.3v7.8h-27.3v6.3h33.9v7.8h-44.4v-36H1063z M1079.6,633.6h28.2c2.8,0,5.1,0.7,7,2.2
	c1.9,1.5,2.9,3.2,2.9,5.2v28.6h-10.5V658h-27.2v11.6h-10.3V641c0-2.1,1-3.8,2.9-5.3C1074.5,634.3,1076.9,633.6,1079.6,633.6z
	 M1080.1,650.2h27.2v-8.8h-27.2V650.2z M1125.5,669.6v-36.1h10.3v28.3h28v7.8H1125.5z"/>
</svg>
