<?xml version="1.0" encoding="utf-8"?>
<!-- Generator: Adobe Illustrator 26.0.1, SVG Export Plug-In . SVG Version: 6.00 Build 0)  -->
<svg version="1.1" baseProfile="tiny" id="Layer_1" xmlns="http://www.w3.org/2000/svg" xmlns:xlink="http://www.w3.org/1999/xlink"
	 x="0px" y="0px" viewBox="0 0 49.6 61.1" overflow="visible" xml:space="preserve">
<g>
	<path fill="#D0493D" d="M9.1,47.9c0,0.3-0.2,0.5-0.5,0.5H6.8c-0.2,0-0.4-0.1-0.5-0.4c-0.1-0.2,0-0.4,0.2-0.6l0.4-0.3H4.6
		c-0.2,0-0.4-0.2-0.5-0.4c0-0.2,0.1-0.5,0.3-0.6L6,45.6H3.2c-0.2,0-0.5-0.2-0.5-0.4l-0.2-0.9c-0.3,0-0.4-0.2-0.4-0.5
		s0.2-0.5,0.5-0.5H3c0.2,0,0.5,0.2,0.5,0.4l0.2,0.9h4.9c0.2,0,0.4,0.2,0.5,0.4c0,0.2-0.1,0.5-0.3,0.6l-1.6,0.7h1.4
		c0.2,0,0.4,0.1,0.5,0.4c0.1,0.2,0,0.4-0.2,0.6l-0.4,0.3h0.2C8.9,47.4,9.1,47.6,9.1,47.9z M8.6,43.1h-1c-0.3,0-0.5,0.2-0.5,0.5
		s0.2,0.5,0.5,0.5h1c0.3,0,0.5-0.2,0.5-0.5S8.9,43.1,8.6,43.1z M48.2,41.2c0-0.3-0.2-0.5-0.5-0.5h-0.4c-0.1,0-0.2,0-0.3,0.1
		l-12.5,1.7c-0.3,0-0.4,0.3-0.4,0.5c0,0.3,0.2,0.5,0.5,0.5h4.2L34.4,44c-0.3,0-0.5,0.3-0.4,0.5c0,0.3,0.2,0.5,0.5,0.5h5.8l-5.9,0.8
		c-0.3,0-0.4,0.3-0.4,0.5c0,0.3,0.2,0.5,0.5,0.5h6.4l-6.5,1c-0.3,0-0.4,0.3-0.4,0.5c0,0.3,0.2,0.5,0.5,0.5h1.4L34.5,49
		c-0.3,0-0.5,0.3-0.4,0.5c0,0.3,0.2,0.5,0.5,0.5h6.7c0.3,0,0.5-0.2,0.5-0.5c0-0.1,0-0.2-0.1-0.3l3.8-0.4c0.3,0,0.5-0.3,0.4-0.5
		c0-0.3-0.2-0.5-0.5-0.5h-4.2l6.5-1c0.3,0,0.4-0.3,0.4-0.5c0-0.3-0.2-0.5-0.5-0.5h-5.8l5.9-0.8c0.3,0,0.4-0.3,0.4-0.5
		c0-0.3-0.2-0.5-0.5-0.5h-4.2l4.3-0.5c0.3,0,0.5-0.3,0.4-0.5c0-0.3-0.2-0.5-0.5-0.5h-6l6-0.8C48,41.7,48.2,41.5,48.2,41.2z M10,38.7
		c0-0.3-0.2-0.5-0.5-0.5H2.7l0.5-0.9c0.1-0.2,0.1-0.3,0-0.5c-0.1-0.1-0.3-0.2-0.4-0.2H2.1c-0.3,0-0.5,0.2-0.5,0.5
		c0,0.2,0.2,0.4,0.4,0.5l-0.5,0.9c-0.1,0.2-0.1,0.3,0,0.5c0.1,0.1,0.3,0.2,0.4,0.2H4l-2.2,0.4c-0.3,0-0.4,0.3-0.4,0.5
		c0,0.3,0.2,0.5,0.5,0.5h3.2l-2.3,0.6c-0.2,0.1-0.4,0.3-0.4,0.5s0.2,0.4,0.5,0.4h4.6C7.8,42.2,8,42,8,41.7s-0.2-0.5-0.5-0.5H6.7
		L9,40.6c0.2-0.1,0.4-0.3,0.4-0.5s-0.2-0.4-0.5-0.4H7.4l2.2-0.4C9.8,39.1,10,38.9,10,38.7z M8.2,36.6c-0.3,0-0.5,0.2-0.5,0.5
		s0.2,0.5,0.5,0.5h1.9c0.3,0,0.5-0.2,0.5-0.5s-0.2-0.5-0.5-0.5H8.2z M48.2,34.4c0-0.3-0.2-0.5-0.5-0.5h-0.5l0.6-0.2
		c0.2-0.1,0.4-0.3,0.3-0.6c0-0.2-0.2-0.4-0.5-0.4h-0.4c-0.2,0-0.4,0.1-0.4,0.3l-2.6,1c-0.2,0.1-0.4,0.3-0.3,0.6c0,0.1,0,0.1,0.1,0.2
		H31l0.6-1.3c0.1-0.2,0.1-0.3,0-0.5c-0.1-0.1-0.2-0.2-0.4-0.2h-0.4c-0.3,0-0.5,0.2-0.5,0.5c0,0.1,0.1,0.3,0.2,0.4L29.8,35
		c-0.1,0.2-0.1,0.3,0,0.5c0.1,0.1,0.2,0.2,0.4,0.2h4l-2.6,0.2c-0.3,0-0.5,0.2-0.5,0.5s0.2,0.5,0.5,0.5h1.7h-0.1
		c-0.3,0-0.5,0.2-0.5,0.5s0.2,0.5,0.5,0.5h3.1l-2,0.2c-0.3,0-0.5,0.3-0.5,0.5c0,0.3,0.2,0.5,0.5,0.5h5.4l-5.1,0.7
		c-0.3,0-0.5,0.3-0.4,0.5s0.2,0.5,0.5,0.5h9.8c0.3,0,0.5-0.2,0.5-0.5s-0.2-0.5-0.5-0.5h-2.3l5.1-0.7c0.3,0,0.5-0.3,0.4-0.5
		S47.6,38,47.4,38h-1.7l2-0.2c0.3,0,0.5-0.3,0.5-0.5c0-0.3-0.2-0.5-0.5-0.5h-0.1h0.1c0.3,0,0.5-0.2,0.5-0.5s-0.2-0.5-0.5-0.5h-2.6
		l2.6-0.2c0.3,0,0.5-0.2,0.5-0.5c0-0.2-0.1-0.3-0.2-0.4C48.1,34.7,48.2,34.5,48.2,34.4z M18.2,30.4c0,0.3,0.2,0.5,0.5,0.5l-0.3,0.3
		c-0.1,0.1-0.2,0.4-0.1,0.5c0.1,0.2,0.3,0.3,0.5,0.3h0.4l-0.6,0.5c-0.2,0.1-0.2,0.4-0.2,0.6s0.3,0.3,0.5,0.3h0.5
		c0.3,0,0.5-0.2,0.5-0.5c0-0.1,0-0.1,0-0.1l1-0.8c0.2-0.1,0.2-0.4,0.2-0.6s-0.3-0.3-0.5-0.3H20l0.3-0.3c0.1-0.1,0.2-0.4,0.1-0.5
		c-0.1-0.2-0.3-0.3-0.5-0.3h-0.7L19,28.5c0-0.3-0.2-0.5-0.5-0.5h-0.1c-0.3,0-0.5,0.2-0.5,0.5c0,0.1,0.1,0.3,0.2,0.4L18.2,30.4z
		 M30.7,28.1c-0.1-0.2-0.3-0.4-0.5-0.4h-0.3c-0.2,0-0.4,0.2-0.5,0.4l-1.8,1.3c-0.2,0.1-0.3,0.4-0.2,0.6v0.1l-1.1,0.4
		c-0.2,0.1-0.4,0.3-0.3,0.6s0.2,0.4,0.5,0.4H27L25.6,32c-0.2,0.1-0.3,0.3-0.3,0.6c0,0.2,0.3,0.4,0.5,0.4h3c0.3,0,0.5-0.2,0.5-0.5
		S29,32,28.8,32h-0.6l1.5-0.7c0.2-0.1,0.3-0.3,0.3-0.6c0-0.2-0.2-0.3-0.3-0.4l0.3-0.1c0.2-0.1,0.4-0.3,0.3-0.6
		c0-0.2-0.2-0.4-0.5-0.4h-0.2l0.9-0.7C30.7,28.5,30.7,28.3,30.7,28.1z M47.7,24.1h-0.3c-0.2,0-0.4,0.1-0.5,0.3l-2.6,1.1
		c-0.2,0.1-0.3,0.3-0.3,0.6c0,0.2,0.3,0.4,0.5,0.4h3.1c0.3,0,0.5-0.2,0.5-0.5s-0.2-0.5-0.5-0.5H47l0.9-0.4c0.2-0.1,0.3-0.3,0.3-0.6
		C48.1,24.3,47.9,24.1,47.7,24.1z M48.2,27.7c0-0.3-0.2-0.5-0.5-0.5H34l1.6-1c0.2-0.1,0.3-0.3,0.2-0.6c-0.1-0.3-0.3-0.4-0.5-0.4
		h-1.8l0.2-0.4c0.1-0.2,0.1-0.3,0-0.5c-0.1-0.2-0.3-0.2-0.4-0.2H33c-0.3,0-0.5,0.2-0.5,0.5c0,0.1,0,0.2,0.1,0.3l-0.3,0.6
		c-0.1,0.2-0.1,0.3,0,0.5s0.3,0.2,0.4,0.2h0.9l-1.6,1c-0.2,0.1-0.3,0.3-0.2,0.6c0.1,0.3,0.3,0.4,0.5,0.4h2.4l-2.8,0.2
		c-0.3,0-0.5,0.2-0.5,0.5s0.2,0.5,0.5,0.5h4.4l-4.7,0.4c-0.3,0-0.5,0.3-0.5,0.5c0,0.3,0.2,0.5,0.5,0.5h7L33,31.4
		c-0.3,0-0.5,0.3-0.4,0.5c0,0.3,0.2,0.5,0.5,0.5h3H36c-0.3,0-0.5,0.3-0.4,0.5c0,0.3,0.2,0.5,0.5,0.5h6c0.3,0,0.5-0.2,0.5-0.5
		c0-0.1,0-0.1,0-0.2l3-0.3c0.3,0,0.5-0.3,0.4-0.5c0-0.3-0.2-0.5-0.5-0.5H42l5.6-0.6c0.3,0,0.5-0.3,0.4-0.5c0-0.3-0.2-0.5-0.5-0.5H43
		l4.7-0.4c0.3,0,0.5-0.3,0.5-0.5c0-0.3-0.2-0.5-0.5-0.5h-2.8l2.8-0.2C48,28.2,48.2,27.9,48.2,27.7z M32.4,21.3
		c-0.1-0.2-0.3-0.3-0.5-0.3h-0.2c-0.3,0-0.5,0.2-0.5,0.4L29,23c-0.2,0.1-0.2,0.4-0.2,0.6c0,0.1,0.1,0.2,0.2,0.3l-2.3,0.9
		c-0.2,0.1-0.3,0.3-0.3,0.6c0,0.1,0.1,0.2,0.1,0.2l-1,0.2c-0.3,0-0.4,0.3-0.4,0.5c0,0.3,0.2,0.5,0.5,0.5H27l-2,0.8
		c-0.2,0.1-0.4,0.3-0.3,0.6c0,0.2,0.2,0.3,0.4,0.4l-0.4,0.2c-0.2,0.1-0.3,0.3-0.3,0.6c0,0.2,0.3,0.4,0.5,0.4h1.2
		c0.3,0,0.5-0.2,0.5-0.5c0-0.1,0-0.1,0-0.2l1.2-0.5c0.2-0.1,0.3-0.3,0.3-0.6c0-0.1-0.1-0.3-0.3-0.3l2.1-0.8c0.2-0.1,0.4-0.3,0.3-0.6
		c0-0.1-0.1-0.2-0.1-0.2l1-0.2c0.3,0,0.4-0.3,0.4-0.5c0-0.3-0.2-0.5-0.5-0.5h-1.4l2.1-0.9c0.2-0.1,0.3-0.3,0.3-0.6
		c0-0.2-0.3-0.4-0.5-0.4h-0.6l1.4-1C32.4,21.8,32.5,21.5,32.4,21.3z M18.9,25.5h2.2l-1.4,0.9c-0.2,0.1-0.3,0.3-0.2,0.6
		c0.1,0.2,0.3,0.4,0.5,0.4h0.7l-0.2,0.1c-0.2,0.1-0.4,0.3-0.3,0.6c0,0.2,0.2,0.4,0.5,0.4h1.4l-0.7,0.8c-0.1,0.1-0.2,0.4-0.1,0.5
		c0.1,0.2,0.3,0.3,0.5,0.3h0.9c0.3,0,0.5-0.2,0.5-0.5c0-0.2-0.1-0.4-0.3-0.5l0.7-0.8c0.1-0.1,0.2-0.4,0.1-0.5s-0.1-0.2-0.3-0.3
		l0.3-0.1c0.2-0.1,0.4-0.3,0.3-0.6c0-0.2-0.2-0.4-0.5-0.4h-1.9l1.4-0.9c0.2-0.1,0.3-0.3,0.2-0.6c-0.1-0.2-0.3-0.4-0.5-0.4h-2.3
		l1.2-0.9c0.2-0.1,0.3-0.4,0.2-0.6c-0.1-0.2-0.3-0.3-0.5-0.3H20l0.4-1c0.1-0.2,0-0.3-0.1-0.5c0-0.1-0.2-0.2-0.3-0.2h-0.3
		c-0.3,0-0.5,0.2-0.5,0.5c0,0.1,0,0.2,0.1,0.3L18.9,23c-0.1,0.2,0,0.3,0.1,0.5c0.1,0.1,0.2,0.2,0.4,0.2h0.5l-1.2,0.9
		c-0.2,0.1-0.3,0.4-0.2,0.6C18.5,25.3,18.7,25.5,18.9,25.5z M2.6,35.2h3.3l-1.3,0.1c-0.3,0-0.5,0.3-0.4,0.5s0.2,0.5,0.5,0.5h1.9
		c0.2,0,0.3-0.1,0.4-0.2l4.7-0.5H15c0.2,0,0.4-0.2,0.5-0.4h0.4c0.3,0,0.5-0.3,0.4-0.5c0-0.3-0.2-0.5-0.5-0.5h-4.3l5.8-0.7
		c0.3,0,0.5-0.3,0.4-0.5s-0.2-0.5-0.5-0.5H16l1.2-0.1c0.3,0,0.5-0.2,0.5-0.5s-0.2-0.5-0.5-0.5h-1l0.9-0.1c0.3,0,0.5-0.3,0.5-0.5
		c0-0.3-0.2-0.5-0.5-0.5H13l3.6-0.4c0.3,0,0.5-0.3,0.4-0.5c0-0.3-0.2-0.5-0.5-0.5h-5.2l4.8-0.7c0.3,0,0.4-0.3,0.4-0.5
		s-0.2-0.5-0.5-0.5h-1.5l1.2-0.1c0.3,0,0.5-0.3,0.4-0.5c0-0.3-0.2-0.5-0.5-0.5h-3.7l3.3-0.6c0.3,0,0.4-0.3,0.4-0.5s-0.2-0.5-0.5-0.5
		h-3.3l2.8-0.7c0.2-0.1,0.4-0.3,0.4-0.5c0-0.3-0.2-0.4-0.5-0.4h-2.1l1.7-0.4c0.2-0.1,0.4-0.3,0.4-0.5s-0.2-0.4-0.5-0.4h-2l1.4-0.7
		c0.2-0.1,0.3-0.3,0.3-0.6c-0.1-0.2-0.3-0.4-0.5-0.4h-0.9l0.5-0.4c0.2-0.1,0.2-0.4,0.1-0.6c-0.1-0.2-0.3-0.3-0.5-0.3H12
		c-0.3,0-0.5,0.2-0.5,0.5v0.1L10.7,20c-0.2,0.1-0.2,0.4-0.1,0.6c0.1,0.2,0.2,0.3,0.4,0.3l-1.5,0.7c-0.2,0.1-0.3,0.3-0.3,0.6
		c0.1,0.2,0.3,0.4,0.5,0.4h0.5L8.5,23c-0.2,0.1-0.4,0.3-0.4,0.5s0.2,0.4,0.5,0.4h1.6l-2.8,0.7c-0.2,0-0.4,0.2-0.4,0.5
		c0,0.3,0.2,0.4,0.5,0.4h2.1l-3.3,0.6c-0.3,0-0.4,0.3-0.4,0.5c0,0.2,0.2,0.5,0.5,0.5h0.5l-1.2,0.1c-0.3,0-0.5,0.3-0.4,0.5
		c0,0.3,0.2,0.5,0.5,0.5h3.8L4.7,29c-0.3,0-0.4,0.3-0.4,0.5S4.5,30,4.8,30h2.8L4,30.4c-0.3,0-0.5,0.3-0.4,0.5c0,0.3,0.2,0.5,0.5,0.5
		h0.4l-0.9,0.1c-0.3,0-0.5,0.3-0.5,0.5c0,0.3,0.2,0.5,0.5,0.5h0.7l-1.2,0.1c-0.3,0-0.5,0.2-0.5,0.5s0.2,0.5,0.5,0.5h5.2l-5.8,0.7
		c-0.3,0-0.5,0.3-0.4,0.5S2.3,35.2,2.6,35.2z M33.3,21.7c0,0.3,0.2,0.5,0.5,0.5h7.6l-5.9,1c-0.3,0-0.4,0.3-0.4,0.5
		c0,0.3,0.2,0.5,0.5,0.5h10c0.3,0,0.5-0.2,0.5-0.5s-0.2-0.5-0.5-0.5h-3.8l5.9-1c0.3,0,0.4-0.3,0.4-0.5c0-0.3-0.2-0.5-0.5-0.5H45
		l2.6-0.2c0.3,0,0.5-0.3,0.5-0.5c0-0.3-0.2-0.5-0.5-0.5H42l4.4-0.6c0.3,0,0.5-0.3,0.4-0.5c-0.1-0.2-0.2-0.5-0.5-0.5h-3.1l0.6-0.1
		c0.3,0,0.4-0.3,0.4-0.5c0-0.3-0.2-0.5-0.5-0.5H39c-0.3,0-0.5,0.2-0.5,0.5c0,0.1,0,0.2,0.1,0.2L36,18.4c-0.3,0-0.4,0.3-0.4,0.5
		c0,0.3,0.2,0.5,0.5,0.5h2.5L34.2,20c-0.3,0-0.5,0.3-0.4,0.5S34,21,34.3,21h2.2l-2.6,0.2C33.5,21.2,33.3,21.4,33.3,21.7z M32.9,14.3
		h-0.2c-0.3,0-0.5,0.2-0.5,0.5l-1.8,1.5c-0.2,0.1-0.2,0.4-0.1,0.6c0,0.1,0.1,0.2,0.2,0.2L29,17.7c-0.2,0.1-0.3,0.3-0.3,0.6
		c0,0.1,0.1,0.2,0.1,0.2l-0.9,0.2c-0.2,0.1-0.4,0.3-0.4,0.5c0,0.3,0.2,0.4,0.5,0.4h0l-1,0.3c-0.2,0.1-0.4,0.3-0.4,0.5
		s0.2,0.4,0.5,0.4H28l-1.3,0.6c-0.2,0.1-0.3,0.3-0.3,0.6c0,0.3,0.3,0.4,0.5,0.4H27l-0.7,0.5C26,23.1,26,23.3,26,23.5
		s0.3,0.3,0.5,0.3h0.2c0.2,0,0.5-0.2,0.5-0.4l1.5-1.1c0.2-0.1,0.3-0.4,0.2-0.6c0-0.1-0.1-0.1-0.1-0.2l1.7-0.8
		c0.2-0.1,0.3-0.3,0.3-0.6c0-0.1-0.1-0.2-0.2-0.3l1.3-0.4c0.2-0.1,0.4-0.3,0.4-0.5c0-0.1-0.1-0.3-0.2-0.3l0.6-0.1
		c0.2-0.1,0.4-0.3,0.4-0.5c0-0.3-0.2-0.4-0.5-0.4h-0.9l1.3-0.5c0.2-0.1,0.3-0.3,0.3-0.6c0-0.2-0.3-0.4-0.5-0.4H32l1.1-1
		c0.2-0.1,0.2-0.4,0.1-0.6C33.3,14.4,33.1,14.3,32.9,14.3z M23.9,23.6c0.1,0.1,0.3,0.2,0.4,0.2h0.3c0.3,0,0.5-0.2,0.5-0.5
		c0-0.1,0-0.2-0.1-0.3l0.3-0.6c0.1-0.2,0.1-0.3,0-0.5c0-0.1-0.1-0.1-0.2-0.2l0.3-0.2c0.2-0.1,0.3-0.3,0.2-0.6
		c-0.1-0.2-0.3-0.4-0.5-0.4h-0.5l1.1-0.6c0.2-0.1,0.3-0.3,0.2-0.6s-0.3-0.4-0.5-0.4h-2.5l1.3-0.9c0.2-0.1,0.3-0.4,0.2-0.6
		c-0.1-0.2-0.3-0.3-0.5-0.3H22l0.8-0.5c0.2-0.1,0.3-0.3,0.2-0.6c-0.1-0.2-0.3-0.4-0.5-0.4h-1.4l0.2-1c0-0.1,0-0.3-0.1-0.4
		C21.1,14.1,21,14,20.8,14h-0.3c-0.3,0-0.5,0.2-0.5,0.5c0,0.1,0.1,0.3,0.2,0.4L20,16.3c0,0.1,0,0.3,0.1,0.4c0.1,0.1,0.2,0.2,0.4,0.2
		h0.3L20,17.4c-0.2,0.1-0.3,0.3-0.2,0.6c0.1,0.2,0.3,0.4,0.5,0.4h2L21,19.3c-0.2,0.1-0.3,0.4-0.2,0.6c0.1,0.2,0.3,0.3,0.5,0.3h2.2
		l-1.1,0.6c-0.2,0.1-0.3,0.3-0.2,0.6c0.1,0.3,0.3,0.4,0.5,0.4h0.8l-0.2,0.1C23,22,22.9,22.2,23,22.4c0.1,0.2,0.3,0.4,0.5,0.4H24
		l-0.2,0.4C23.8,23.3,23.8,23.5,23.9,23.6z M33.1,42.1c0.1,0.2,0,0.5-0.2,0.6l-1.5,0.9h0.5c0.3,0,0.5,0.2,0.5,0.5s-0.2,0.5-0.5,0.5
		h-0.2c0.1,0.1,0.1,0.2,0.1,0.3c0,0.2-0.1,0.5-0.4,0.5c0,0.2-0.1,0.4-0.4,0.5l-0.8,0.2c0.1,0.1,0.2,0.2,0.2,0.4
		c0,0.3-0.2,0.5-0.5,0.5h-0.7c0.1,0.1,0.2,0.2,0.2,0.4c0,0.3-0.1,0.5-0.4,0.5l-1,0.2c0.1,0.1,0.2,0.2,0.2,0.3c0,0.2-0.1,0.5-0.3,0.6
		l-3.1,1h2c0.3,0,0.5,0.2,0.5,0.5c0,0.1,0,0.2-0.1,0.3c0.1,0.1,0.1,0.2,0.1,0.3c0,0.3-0.2,0.5-0.5,0.5h-2c-0.1,0-0.2,0-0.3-0.1
		c0,0.1-0.1,0.2-0.2,0.3H27c0.3,0,0.5,0.2,0.5,0.5c0,0.2-0.1,0.3-0.2,0.4h2c-0.1-0.1-0.2-0.2-0.3-0.3c0-0.2,0.1-0.5,0.3-0.6l0.9-0.4
		c-0.1-0.1-0.3-0.2-0.3-0.3c-0.1-0.2,0-0.4,0.2-0.6l0.6-0.4H30c-0.2,0-0.4-0.1-0.5-0.3s0-0.4,0.1-0.6l0.8-0.7
		c-0.1-0.1-0.2-0.2-0.2-0.4c0-0.3,0.2-0.5,0.5-0.5h0.9c0.2,0,0.4,0.1,0.5,0.3c0.1,0.2,0,0.4-0.1,0.6L31.4,49h0.8
		c0.2,0,0.4,0.1,0.5,0.4c0.1,0.2,0,0.4-0.2,0.6l-0.6,0.4h0.5c0.2,0,0.4,0.2,0.5,0.4c0,0.2-0.1,0.5-0.3,0.6l-0.8,0.4h0.5
		c0.3,0,0.5,0.2,0.5,0.5s-0.2,0.5-0.5,0.5H32c0.2,0.1,0.3,0.2,0.3,0.4c0,0.3-0.2,0.5-0.5,0.5h-9.6c-0.1,0-0.3-0.1-0.4-0.2l-1.4,0.2
		c0,0.1-0.1,0.3-0.2,0.4l-0.9,0.7h0.8c0.1,0,0.3,0.1,0.4,0.2c0.1,0.1,0.1,0.2,0.1,0.4l-0.1,1.2h2.3c-0.1-0.1-0.1-0.1-0.2-0.2
		c-0.1-0.2,0-0.4,0.2-0.6l0.8-0.6v-0.1c0-0.3,0.2-0.5,0.5-0.5h0.5c0.2,0,0.4,0.1,0.5,0.3s0,0.4-0.2,0.6l-0.3,0.2h1.6
		c0.3,0,0.5,0.2,0.5,0.5s-0.2,0.5-0.5,0.5H26c0.1,0.1,0.1,0.2,0.2,0.3c0,0.2-0.1,0.5-0.4,0.5l-0.9,0.3C25,57.9,25,58,25,58.1
		c0,0.3-0.2,0.5-0.5,0.5H22c-0.2,0-0.5-0.2-0.5-0.4s0.1-0.5,0.4-0.5l0.3-0.1H20c-0.1,0-0.3-0.1-0.4-0.2c-0.1-0.1-0.1-0.2-0.1-0.4
		l0.1-1.2H18c-0.2,0-0.4-0.1-0.5-0.3s0-0.4,0.1-0.6l0.9-0.7h-1.8c-0.3,0-0.5-0.2-0.5-0.5s0.2-0.5,0.4-0.5l3-0.4H16
		c-0.2,0-0.4-0.2-0.5-0.4s0-0.5,0.2-0.6l0.5-0.3h-0.8c-0.2,0-0.4-0.1-0.5-0.3s0-0.4,0.1-0.6l1.2-1h-1.9c-0.2,0-0.4-0.2-0.5-0.4
		s0-0.5,0.2-0.6l0.4-0.2h-1.5l-0.3,0.1c0,0.1-0.1,0.2-0.2,0.3l-1,0.9h0.3c0.2,0,0.4,0.1,0.5,0.3s0.1,0.4-0.1,0.5l-0.5,0.6h1.1
		c0.2,0,0.4,0.1,0.5,0.3s0,0.4-0.2,0.6l0,0.2h1.9c0.2,0,0.4,0.1,0.5,0.3s0,0.4-0.2,0.6l-0.3,0.2H15c0.3,0,0.5,0.2,0.5,0.5
		s-0.2,0.5-0.5,0.5h-1.6c-0.2,0-0.4-0.1-0.5-0.3s0-0.4,0.2-0.6l0.3-0.2h-1.8c-0.2,0-0.4-0.1-0.5-0.3s0-0.4,0.2-0.6l0.2-0.2h-0.8
		c-0.2,0-0.4-0.1-0.5-0.3s-0.1-0.4,0.1-0.5l0.5-0.6h-0.6c-0.2,0-0.4-0.1-0.5-0.3s0-0.4,0.1-0.6l1-0.9h-0.5c-0.3,0-0.5-0.2-0.5-0.5
		s0.2-0.5,0.4-0.5l0.8-0.1h-0.2c-0.2,0-0.4-0.2-0.5-0.4s0.1-0.5,0.3-0.6l1.3-0.6h-0.1c-0.2,0-0.5-0.2-0.5-0.4s0.1-0.5,0.3-0.6
		l1.9-0.7h-0.3c-0.2,0-0.5-0.2-0.5-0.4s0.1-0.5,0.4-0.6l1.6-0.5c-0.1,0-0.3-0.2-0.3-0.3c-0.1-0.2,0-0.4,0.2-0.6l1-0.7h-0.3
		c-0.3,0-0.5-0.2-0.5-0.5s0.2-0.5,0.4-0.5l2.1-0.3h-1.7h-0.1l-2.4,0.4c0,0.1-0.1,0.2-0.2,0.3l-0.5,0.3c0.1,0,0.3,0.1,0.3,0.3
		c0.1,0.2,0.1,0.4-0.1,0.5L11.7,43h0.1c0.3,0,0.5,0.2,0.5,0.5S12.1,44,11.8,44h-1.1c-0.2,0-0.4-0.1-0.5-0.3s-0.1-0.4,0.1-0.5
		l0.9-1.1h-0.6c-0.2,0-0.4-0.1-0.5-0.4s0-0.4,0.2-0.6l0.5-0.3c-0.3,0-0.5-0.2-0.5-0.5s0.2-0.5,0.4-0.5l3.6-0.6h-2.6
		c-0.3,0-0.5-0.2-0.5-0.5s0.2-0.5,0.4-0.5l1.5-0.3C13,38.1,13,38,13,37.9c0-0.3,0.2-0.5,0.5-0.5h3.9c0.3,0,0.5,0.2,0.5,0.5
		s-0.2,0.5-0.4,0.5H17h3.6c0.3,0,0.5,0.2,0.5,0.5c0,0.1,0,0.3-0.1,0.4h0.4c-0.1-0.1-0.2-0.2-0.2-0.4c0-0.3,0.1-0.5,0.4-0.5l2.1-0.5
		c-0.1-0.2,0-0.3,0.1-0.5l0.9-1h-0.2l-4.3,0.9c-0.1,0.1-0.2,0.2-0.4,0.2h-0.5c-0.3,0-0.5-0.2-0.5-0.4s0.1-0.5,0.4-0.5l1.9-0.4h-2.2
		c-0.2,0-0.5-0.2-0.5-0.4s0.1-0.5,0.3-0.6l2.6-0.8c-0.1-0.1-0.2-0.2-0.2-0.4c0-0.3,0.2-0.5,0.5-0.5h2.5c0.2,0,0.5,0.2,0.5,0.4
		s-0.1,0.5-0.3,0.6L22.1,35h3.6c0.3,0,0.5,0.2,0.5,0.4l0.1,0.1c0.1,0.2,0,0.4-0.1,0.5l-0.9,1h1c0.3,0,0.5,0.2,0.5,0.4
		c0,0.3-0.1,0.5-0.4,0.5l-0.8,0.2h0.8c0.3,0,0.5,0.2,0.5,0.5s-0.2,0.5-0.5,0.5h-1.9c0.1,0,0.1,0.1,0.2,0.2h1.8
		c0.3,0,0.5,0.2,0.5,0.5s-0.2,0.5-0.5,0.5h-2.1c-0.2,0-0.3-0.1-0.4-0.2h-0.3c0,0.2-0.2,0.4-0.5,0.4h-2.5L17.4,41
		c0,0.1-0.1,0.2-0.2,0.2l-1,0.7H18c0.2,0,0.5,0.2,0.5,0.4s-0.1,0.5-0.4,0.6l-1.6,0.5c0.2,0.1,0.3,0.2,0.3,0.4s-0.1,0.5-0.3,0.6
		L14.9,45h1.3c0.2,0,0.4,0.1,0.5,0.4c0,0.1,0,0.2,0,0.2c0.1-0.1,0.2-0.2,0.3-0.2l1.9-0.4h-1.4c-0.2,0-0.4-0.2-0.5-0.4
		c0-0.2,0.1-0.5,0.3-0.6l1.8-0.7c-0.2-0.1-0.4-0.3-0.4-0.5c0-0.3,0.2-0.5,0.5-0.5h2.5c0.2,0,0.4,0.2,0.5,0.4c0,0.2-0.1,0.5-0.3,0.6
		L20.1,44h3.2c0.3,0,0.5,0.2,0.5,0.4c0,0,0,0,0,0.1l0.1,0.1c0.1,0.2,0,0.4-0.1,0.5l-1.1,1h0.8c0.3,0,0.5,0.2,0.5,0.5
		s-0.2,0.5-0.5,0.5h-2.1c-0.2,0-0.4-0.1-0.5-0.3s0-0.4,0.1-0.5l1.1-1H22L19.6,46c0,0.1,0,0.2-0.1,0.3l-0.7,1.1h4.4
		c0.2,0,0.5,0.2,0.5,0.4s-0.1,0.5-0.3,0.6l-1.2,0.4c0.1,0.1,0.1,0.2,0.1,0.4c0,0.3-0.2,0.5-0.5,0.5h-2.5c-0.2,0-0.5-0.2-0.5-0.4
		s0.1-0.5,0.3-0.6l0.7-0.2h-2c-0.2,0-0.4-0.1-0.4-0.3s-0.1-0.4,0-0.5l0.7-1.1h-0.9c-0.3,0-0.5-0.2-0.5-0.4c0-0.1,0-0.1,0-0.2
		c0,0.1-0.1,0.1-0.1,0.1l-0.4,0.2h0.1c0.3,0,0.5,0.2,0.5,0.5c0,0.1,0,0.2-0.1,0.2c0.1,0.1,0.1,0.2,0.1,0.3s0,0.2-0.1,0.3
		c0.1,0.1,0.1,0.2,0.2,0.3c0.1,0.2,0,0.5-0.2,0.6l-0.4,0.2h1.2c0.2,0,0.4,0.1,0.5,0.3s0,0.4-0.1,0.6l-1.2,1h1.5
		c0.2,0,0.4,0.1,0.4,0.3H21c0-0.2,0-0.3,0-0.4c0-0.2,0.1-0.5,0.3-0.6l3.1-1h-0.1c-0.3,0-0.5-0.2-0.5-0.4c0-0.3,0.1-0.5,0.4-0.5
		l0.6-0.2h-0.2c-0.2,0-0.4-0.2-0.5-0.4s0-0.5,0.2-0.6l0.3-0.2h-0.1c-0.3,0-0.5-0.2-0.5-0.4c0-0.3,0.1-0.5,0.4-0.5l2-0.4h-1.9
		c-0.2,0-0.4-0.1-0.5-0.3s0-0.4,0.2-0.6l1.4-1.1h-2.1c-0.2,0-0.4-0.2-0.5-0.4s0.1-0.5,0.3-0.6l0.9-0.4h-3.1c-0.3,0-0.5-0.2-0.5-0.5
		S21,41,21.2,41h5.4c0.2,0,0.4,0.2,0.5,0.4c0,0.2-0.1,0.5-0.3,0.6L26,42.4h1.3c0.2,0,0.4,0.1,0.5,0.3s0,0.4-0.2,0.6l-1.4,1.1H29
		c0-0.1-0.1-0.1-0.1-0.2c-0.1-0.2,0-0.5,0.2-0.6l1.5-0.9h-0.2c-0.2,0-0.4-0.1-0.5-0.3s0-0.4,0.2-0.6l0.9-0.7h-1
		c-0.2,0-0.4-0.2-0.5-0.4s0-0.5,0.3-0.6L30,40h-2.2c-0.2,0-0.4-0.1-0.5-0.3s0-0.4,0.1-0.5l0.8-0.7C28.1,38.4,28,38.2,28,38
		c0-0.3,0.2-0.5,0.5-0.5h1c0.2,0,0.4,0.1,0.5,0.3s0,0.4-0.1,0.5L29.2,39h3c0.2,0,0.4,0.2,0.5,0.4s0,0.5-0.3,0.6l-0.2,0.1h0.5
		c0.2,0,0.4,0.1,0.5,0.3s0,0.4-0.2,0.6l-0.9,0.7h0.7C32.8,41.8,33,41.9,33.1,42.1z M13.1,46.8h1.1c0-0.2,0-0.3,0.2-0.4l0.4-0.2h-0.1
		h-0.1l-0.1,0.1L13.1,46.8z M26.6,46.9L26.6,46.9C26.7,46.9,26.7,46.9,26.6,46.9z M24.7,1.8h0.9l-0.5,0.9C25,2.9,25,3,25.1,3.2
		s0.3,0.2,0.4,0.2h0.7L25.8,4c-0.1,0.1-0.1,0.4-0.1,0.5c0.1,0.2,0.3,0.3,0.5,0.3h0.9l-0.7,1.1c-0.1,0.2-0.1,0.3,0,0.5
		c0.1,0.2,0.3,0.3,0.4,0.3h0.7l-0.6,0.7c-0.1,0.1-0.2,0.4-0.1,0.5c0.1,0.2,0.3,0.3,0.5,0.3h0.1l-0.2,0.1C27,8.5,26.9,8.7,27,8.9
		c0.1,0.2,0.3,0.4,0.5,0.4h0.6l-0.8,0.8c-0.1,0.1-0.2,0.4-0.1,0.5c0.1,0.2,0.3,0.3,0.5,0.3L27.5,11c-0.2,0.1-0.3,0.3-0.2,0.6
		c0.1,0.2,0.3,0.4,0.5,0.4h0.6l-0.9,0.9c-0.1,0.1-0.2,0.4-0.1,0.5c0.1,0.2,0.3,0.3,0.5,0.3h0.5l-0.8,0.7c-0.2,0.1-0.2,0.4-0.1,0.6
		s0.3,0.3,0.5,0.3h0.1l-0.5,0.3c-0.2,0.1-0.3,0.3-0.2,0.6c0.1,0.2,0.3,0.4,0.5,0.4h1c0.3,0,0.5-0.2,0.5-0.5c0-0.1,0-0.2-0.1-0.3
		l0.8-0.5c0.2-0.1,0.3-0.3,0.2-0.6c-0.1-0.2-0.3-0.4-0.5-0.4h-0.5l0.8-0.7c0.2-0.1,0.2-0.4,0.1-0.6s-0.3-0.3-0.5-0.3H29l0.9-0.9
		c0.1-0.1,0.2-0.4,0.1-0.5c0-0.2-0.2-0.3-0.4-0.3l0.2-0.1c0.2-0.1,0.3-0.3,0.2-0.6c-0.1-0.2-0.3-0.4-0.5-0.4h-0.6l0.8-0.8
		c0.1-0.1,0.2-0.4,0.1-0.5c-0.1-0.2-0.3-0.3-0.5-0.3h-0.1l0.2-0.1c0.2-0.1,0.3-0.3,0.2-0.6S29.3,7.3,29,7.3h-0.7L29,6.5
		c0.1-0.1,0.2-0.4,0.1-0.5c-0.1-0.2-0.3-0.3-0.5-0.3h-0.9l0.7-1.1c0.1-0.2,0.1-0.3,0-0.5C28.3,4,28.2,3.9,28,3.9h-0.7l0.5-0.6
		c0.1-0.1,0.1-0.4,0.1-0.5c-0.1-0.2-0.3-0.3-0.5-0.3h-0.9L27,1.6c0-0.2,0-0.4-0.1-0.6s-0.3-0.2-0.4-0.2h-1.8c-0.3,0-0.5,0.2-0.5,0.5
		S24.4,1.8,24.7,1.8z M29.7,5.2h0.8l-0.6,0.9c-0.1,0.2-0.1,0.4,0,0.5c0.1,0.2,0.3,0.3,0.4,0.3h0.6l-0.5,0.6
		c-0.1,0.1-0.2,0.4-0.1,0.5c0.1,0.2,0.3,0.3,0.5,0.3h0.7l-0.8,1c-0.1,0.2-0.1,0.4,0,0.5c0.1,0.2,0.3,0.3,0.4,0.3h0.5l-0.7,0.7
		c-0.1,0.1-0.2,0.4-0.1,0.5c0.1,0.2,0.2,0.3,0.4,0.3L31,11.7c-0.2,0.1-0.3,0.3-0.2,0.6c0.1,0.2,0.3,0.4,0.5,0.4L30.9,13
		c-0.2,0.1-0.2,0.4-0.1,0.6c0.1,0.2,0.3,0.3,0.5,0.3h0.2c0.3,0,0.5-0.2,0.5-0.5l0.9-0.8c0.2-0.1,0.2-0.4,0.1-0.6
		c0-0.1-0.1-0.2-0.2-0.2l0.3-0.2c0.2-0.1,0.3-0.3,0.2-0.6s-0.3-0.4-0.5-0.4h-0.5L33,10c0.1-0.1,0.2-0.4,0.1-0.5
		c-0.1-0.2-0.3-0.3-0.5-0.3H32l0.8-1c0.1-0.2,0.1-0.4,0-0.5c-0.1-0.2-0.3-0.3-0.4-0.3h-0.5l0.5-0.6c0.1-0.1,0.2-0.4,0.1-0.5
		C32.4,6,32.2,5.9,32,5.9h-0.8L31.9,5c0.1-0.2,0.1-0.4,0-0.5c-0.1-0.2-0.3-0.3-0.4-0.3h-1.8c-0.3,0-0.5,0.2-0.5,0.5
		S29.4,5.2,29.7,5.2z M21.3,1.8h0.9l-0.5,0.9c-0.1,0.2-0.1,0.3,0,0.5s0.3,0.2,0.4,0.2h0.7L22.3,4c-0.1,0.1-0.2,0.4-0.1,0.5
		c0.1,0.2,0.3,0.3,0.5,0.3h0.9l-0.7,1.1c-0.1,0.2-0.1,0.4,0,0.5c0.1,0.1,0.3,0.3,0.4,0.3H24l-0.7,0.7c-0.1,0.1-0.2,0.4-0.1,0.5
		c0.1,0.2,0.3,0.3,0.5,0.3h0.1l-0.2,0.1c-0.2,0.1-0.3,0.3-0.2,0.6c0.1,0.2,0.3,0.4,0.5,0.4h0.7l-0.8,0.8c-0.1,0.1-0.2,0.4-0.1,0.5
		c0.1,0.1,0.3,0.4,0.5,0.4L24,11.1c-0.2,0.1-0.3,0.3-0.2,0.6c0.1,0.2,0.3,0.4,0.5,0.4h0.6L24,12.9c-0.1,0.1-0.2,0.4-0.1,0.5
		c0.1,0.2,0.3,0.3,0.5,0.3h0.5L24,14.4c-0.2,0.1-0.2,0.4-0.1,0.6s0.3,0.3,0.5,0.3h0.8l-0.3,0.4c-0.1,0.1-0.1,0.4-0.1,0.5
		c0.1,0.2,0.3,0.3,0.5,0.3H26c0.3,0,0.5-0.2,0.5-0.5c0-0.2-0.2-0.4-0.4-0.5l0.4-0.4c0.1-0.1,0.1-0.4,0.1-0.5
		c-0.1-0.2-0.3-0.3-0.5-0.3h-0.5l0.9-0.7c0.2-0.1,0.2-0.4,0.1-0.6s-0.3-0.3-0.5-0.3h-0.6l0.9-0.9c0.1-0.1,0.2-0.4,0.1-0.5
		C26.4,11.1,26.2,11,26,11l0.2-0.1c0.2-0.1,0.3-0.3,0.2-0.6c0.1-0.2-0.1-0.3-0.4-0.3h-0.7l0.8-0.8c0.1-0.1,0.2-0.4,0.1-0.5
		c-0.1-0.1-0.2-0.4-0.4-0.4h-0.1l0.2-0.1c0.2-0.1,0.3-0.3,0.2-0.6c-0.1-0.3-0.3-0.4-0.5-0.4h-0.7l0.7-0.7c0.1-0.1,0.2-0.4,0.1-0.5
		s-0.3-0.3-0.5-0.3h-0.9L25,4.6c0.1-0.2,0.1-0.4,0-0.5c-0.1-0.1-0.3-0.3-0.4-0.3h-0.7l0.5-0.6c0.1-0.1,0.2-0.4,0.1-0.5
		c-0.1-0.2-0.3-0.3-0.5-0.3h-1l0.5-0.9c0.1-0.2,0.1-0.3,0-0.5s-0.3-0.2-0.4-0.2h-1.8c-0.3,0-0.5,0.2-0.5,0.5S21,1.8,21.3,1.8z
		 M19.3,5.2h0.8L19.4,6c-0.1,0.1-0.2,0.4-0.1,0.5c0.1,0.2,0.3,0.3,0.5,0.3h0.6l-0.6,0.5c-0.2,0.1-0.2,0.4-0.1,0.6
		c0.1,0.2,0.3,0.3,0.5,0.3H21l-0.9,1C20,9.3,19.9,9.6,20,9.7c0.1,0.2,0.3,0.3,0.5,0.3H21l-0.8,0.7c-0.2,0.1-0.2,0.4-0.1,0.6
		s0.3,0.3,0.5,0.3H21l-0.2,0.1c-0.2,0.1-0.2,0.4-0.2,0.6c0.1,0.2,0.3,0.3,0.5,0.3H22l-0.1,0.5c0,0.1,0,0.3,0.1,0.4
		c0.1,0.1,0.2,0.2,0.4,0.2h0.3c0.3,0,0.5-0.2,0.5-0.5c0-0.1-0.1-0.3-0.2-0.4l0.1-0.6c0-0.1,0-0.3-0.1-0.4c-0.1-0.1-0.2-0.2-0.3-0.2
		l0.2-0.1c0.2-0.1,0.2-0.4,0.2-0.6c-0.1-0.2-0.3-0.3-0.5-0.3H22l0.8-0.7C23,9.8,23,9.5,22.9,9.3S22.6,9,22.4,9h-0.8l0.9-1
		c0.1-0.1,0.2-0.4,0.1-0.5c-0.1-0.2-0.3-0.3-0.5-0.3h-0.6L22,6.7c0.2-0.1,0.2-0.4,0.1-0.6c-0.1-0.2-0.3-0.3-0.5-0.3h-0.8L21.6,5
		c0.1-0.1,0.2-0.4,0.1-0.5c-0.1-0.2-0.3-0.3-0.5-0.3h-1.9c-0.3,0-0.5,0.2-0.5,0.5S19,5.2,19.3,5.2z"/>
</g>
</svg>
