<?xml version="1.0" encoding="utf-8"?>
<!-- Generator: Adobe Illustrator 26.0.1, SVG Export Plug-In . SVG Version: 6.00 Build 0)  -->
<svg version="1.1" baseProfile="tiny" id="Layer_1" xmlns="http://www.w3.org/2000/svg" xmlns:xlink="http://www.w3.org/1999/xlink"
	 x="0px" y="0px" viewBox="0 0 1920 1080" overflow="visible" xml:space="preserve">
<g>
	<rect x="1859.7" y="1050.6" fill="#FF5748" width="2" height="2"/>
	<path fill="none" stroke="#160604" stroke-width="2" stroke-miterlimit="10" d="M1889.8,692.3V35.6"/>
	<path fill="none" stroke="#FF705C" stroke-width="2" stroke-miterlimit="10" d="M1889.8,726.5v-30"/>
	<rect x="1882.7" y="28.5" fill="none" stroke="#FF5748" stroke-width="2" stroke-miterlimit="10" width="7.1" height="7.1"/>
	<path fill="none" stroke="#160604" stroke-width="2" stroke-miterlimit="10" d="M1872.8,1051.6h7.3c3.8-3.8,5.9-5.9,9.7-9.7V731.7"
		/>
	<rect x="1869.8" y="1050.6" fill="#FF5748" width="2" height="2"/>
	<line fill="none" stroke="#160604" stroke-width="2" stroke-miterlimit="10" x1="1868.7" y1="1051.6" x2="1862.8" y2="1051.6"/>
	<polygon fill="#FF5748" points="1884.7,1037.5 1880.6,1037.5 1875.8,1042.4 1875.8,1046.5 1877.7,1046.5 1884.6,1039.5 	"/>
	<path fill="none" stroke="#160604" stroke-width="2" stroke-miterlimit="10" d="M45.2,1051.6h-4.4c-3.8-3.8-5.9-5.9-9.7-9.7
		L31.2,35.6"/>
	<polygon fill="#FF705C" points="36.3,1037.5 40.4,1037.5 45.2,1042.4 45.2,1046.5 43.3,1046.5 36.3,1039.5 	"/>
	<rect x="30.2" y="27.4" fill="#FF5748" width="9.1" height="9.1"/>
	<rect x="46.4" y="1050.6" fill="#FF5748" width="2" height="2"/>
	<rect x="56.5" y="1050.6" fill="#FF5748" width="2" height="2"/>
	<line fill="none" stroke="#160604" stroke-width="2" stroke-miterlimit="10" x1="55.4" y1="1051.6" x2="49.5" y2="1051.6"/>
</g>
</svg>
