<?xml version="1.0" encoding="utf-8"?>
<!-- Generator: Adobe Illustrator 26.0.1, SVG Export Plug-In . SVG Version: 6.00 Build 0)  -->
<svg version="1.1" baseProfile="tiny" id="Layer_1" xmlns="http://www.w3.org/2000/svg" xmlns:xlink="http://www.w3.org/1999/xlink"
	 x="0px" y="0px" viewBox="0 0 1920 1080" overflow="visible" xml:space="preserve">
<g>
	<path fill="none" stroke="#C12525" stroke-width="3" stroke-linejoin="round" stroke-miterlimit="10" d="M157.6,469.3
		c5-4.6,11.7-5.1,18.4-2.9c3.6,1.2,7.4,2,11.1,3.1c2.5,0.8,5,2.3,7.7,1.7c6.2-1.3,12.2,0.3,18.3,1.3c4.4,0.7,8,2.2,11.2,5.7
		c4.2,4.6,10.4,5.2,14.3,1.6c3.5-3.2,7-3,11.1-1.9c6,1.6,12.1,4.3,18.3,0.3c1-0.6,2.7-0.4,3.9-0.2c13.7,2.8,27.9,1.2,41.6,4
		c1.1,0.2,2.5,0.6,3.3-0.4c0.9-1.2-0.3-2.1-1-3c-13.1-17.8-13.9-38.4-13-59.2c0.2-5.8-0.7-9.7-5.4-13.3c-7.9-6-16.3-11.6-23.5-18.6
		c-4.6-4.5-4.2-7.2,1.5-10.3c1.7-0.9,3.5-1,5.3-1.2c4.6-0.3,8.9-1.8,12.2-5.1c7-7.3,15.3-8.8,24.7-6.1c12.8,3.6,25.6,7.1,38.9,8.9
		c9.9,1.3,20,1.3,29.7,3.5c9.3,2.1,18.7,2.7,28,3.6c16.7,1.7,33.1,5.4,49.8,6.9c19.8,1.8,38.5,8.7,57.4,14.7
		c14.8,4.7,29.8,8.6,44.5,13.4c6.8,2.2,13.9,2.9,20.8,5.2c11.5,3.9,22.7,8.7,34.3,12.3c4.6,1.4,9.3,2.7,14.2,1.2
		c7.9-2.3,15.4-5.2,21.6-11c5.2-4.9,11.5-5.9,18.2-4c6.4,1.8,12.8,3.8,19.1,5.8c6.2,2,8.4,0.5,8.7-5.7c0.5-10.5,3.2-13.3,13.8-14.6
		c3.4-0.4,6.6,0.1,9.9,1c5.3,1.5,10.7,2.6,15.8,4.5c14.3,5.1,29.3,7.7,43.7,12.4c12.3,4,24.8,7.8,37.1,11.7
		c3.9,1.2,7.9,1.1,11.9,0.3c5-1.1,10.1-2.4,15-3.8c17.8-5.1,35.7-9.7,54.4-9.8c1.5,0,3.6,0.2,4-1.3c0.5-2-1.7-2.7-3.1-3.3
		c-11.9-5-20.7-14.4-30.1-22.6c-6.4-5.6-13.4-9.6-20.7-13.6c-14.3-8-29.8-14.4-39.2-29.1c-8.3-13-15.8-26.3-16.5-42.2l0.1-12.6
		c0,0,2.6-3.8,2.9-5.5c0.3-1.7,0.5-9.7,0.7-12.4c0.2-2.8,1.9-15.4,2.8-16.9c0.9-1.6,0-1.2,2.4-8.3c2.4-7.1-0.7-7.3,4.1-12.8
		s8.8-12.9,9.8-14.8c1-1.9,0.2-4.8,2.9-10.7c2.8-5.9,2.2-6,4.7-8.3c2.4-2.2,20.2-19.2,23.7-23.8c3.5-4.7,18.3-18.1,23.1-20.5
		s31.2-13.8,31.2-13.8c27.9-8.1,52.6-1.6,74.7,16.4c0.5,0.4,1.2,0.8,1.4,1.4c3.2,7.6,10.4,11.8,15.3,18c3.3,4.3,8.4,6.8,12.7,10.1
		c7.6,5.9,15.4,11.7,21.1,19.7c2.1,3,4.2,3.8,8,3.2c7.8-1.2,15.7-3.7,23.6-2.9c9.7,0.9,16.2,8,23.4,13.6
		c9.8,7.5,18.9,16.3,29.8,21.7c14.2,7,24.8,18.3,37.5,27c20.8,14.2,39.4,31.3,59.6,46.3c9.4,6.9,15.3,17,23.8,24.8
		c6.8,6.3,14,12.5,19.3,20.3c6.3,9.2,13.4,17.7,21.1,25.8c4.1,4.4,5.3,10.2,5.3,16.1c0,2.3,0.5,4.5,1.9,6
		c8.8,9.2,12.5,21.1,17.2,32.4c4.3,10.4,9.2,20.7,12.2,31.6c1.2,4.3,0.9,7.5-3.5,9.5c-2.7,1.2-2.8,3.5-2.2,5.9
		c4.1,15.9,5.7,32.3,10.4,48c0.3,0.9-0.2,2,0.9,2.6c9.5,5.5,9.3,15.5,10.6,24.5c1.1,7.5,2.5,15,2.7,22.4c0.2,8.3,3.9,16.7-0.7,25.2
		c-3.4,6.2-8.1,10.6-14.4,11.1c-16.5,1.4-32.8,5.4-49.6,3.7c-15.1-1.5-30.1,1.2-45.2,2.8c-10.5,1.1-20.8,3.5-31.6,3.2
		c-7.3-0.2-14.1,3.6-20.9,6.1c-8.2,3-16.7,2.4-25.1,3.5c-11.2,1.4-22.4,3.2-33.7,3.1c-0.9,0-1.9,0.5-3.6,1.1
		c6.8,5.2,13,10,19.4,14.6c2,1.5,4.5,0.8,6.8,0.3c4.3-0.9,8.2,0.1,10.8,3.6c3.7,5.2,9,7.1,14.7,8.5c8.8,2.2,8.4,3.1,9.4,12.3
		c0.9,9.3,0.2,18.5,1.4,27.7c0.4,3.1,2,4.2,4.8,4.7c11.5,2,23.2,2.3,34.7,3.7c15.4,1.9,31,1.9,46.3,3.6c18.8,2.1,37.7,4.2,56.5,5.9
		c6.1,0.5,12.3-0.7,18.4,0.6c2.4,0.5,3-1.4,1.7-3.2c-9.2-12.3-6.6-27.1-8.5-40.9c-0.9-6.6-1.1-13.3-1.4-19.9c-0.2-3.8-3-4.9-5.6-6.3
		c-3-1.6-6.8-2.3-7.9-6.3c-0.5-1.9-1.8-3.9-0.2-5.7c1.7-2,4.2-2.1,6.5-1.3c3.3,1.2,6.5,2.5,9.7,4c25.2,11.8,50.2,24,75.7,35.2
		c8,3.5,10.4,9.6,12.5,16.6c2.7,9.4,2.8,19.1,3.8,28.7c1.3,12.4,1.7,24.9,3.5,37.2c2.6,17.1,3,34.4,5.4,51.5
		c0.9,6.6,3.5,12.5,6,18.4c3.6,8.6,2.2,17.4,2.2,26.1c0,1.7-0.9,3.2-2.1,4.4c-1,1.1-1.9,2.3-3,3.4c-1.8,1.8-0.4,6-4.1,6.2
		c-5.8,0.5-11.7,1.4-17.3-0.5c-1.6-0.5-2.3-0.7-3.8,0c-5,2.3-9.8,0.1-11.5-5.2c-0.9-2.9-2.5-4.5-5.1-6.2c-6.5-4.1-11.2-9.6-10.5-18
		c0.6-7.3-4.7-11.8-7.5-17.5c-0.7-1.3-2.3-1.4-3.6-1.2c-4.3,0.6-6.6-1.8-8.8-5.1c-6.3-9.3-9.9-19.1-8.3-30.5
		c0.4-2.6,1.6-4.6,3.2-7.2c-4.3-0.5-7.8-1.5-10.9,3c-2.9,4.1-15.6,0.9-17.1-4.1c-0.8-2.7-2.2-3.3-4.6-3.3c-14.3,0.1-28.7,0.3-43-1
		c-9-0.8-18-0.3-26.9-1.1c-5.5-0.5-8.3,4.2-13.1,4.9c-1.5,0.2-1.1,2.9,0.1,4.3c1.6,2,3.6,3.4,6.4,3.5c2.6,0.1,4.3,1.5,5.4,3.8
		c0.5,1.1,0.9,2.3-0.3,3.1c-7.4,4.6-15.7,6.8-24.3,7c-4.1,0.1-6.9-6.1-4.4-10.1c1.9-3,0.6-5.8,1.4-8.6c0.1-0.3-0.1-0.7-0.2-1
		c-0.7-1.8-13.4-7.5-14.9-6.4c-2.7,2-5.7,2.6-8.8,2.9c-3.9,0.4-5.4,2.7-5.3,6.5c0.1,5.2-0.1,10.3,0.3,15.5c0.3,4.3-1.7,6.1-5.5,5.4
		c-4.2-0.7-8.3,1.1-12.4-0.3c-0.6-0.2-1.6,0.3-2.3,0.7c-4.4,2.7-6.4,11.9-3.4,16.2c3.1,4.4,3.7,9.7,6.5,14.3c2.4,4-3,10.4-7.9,10.4
		c-17.2,0-34.3,0-51.5-0.1c-7.7,0-7.9-0.4-9.3-8c-1.7-8.7-6.2-12.6-15.8-13c-5.5-0.3-11.2,0.6-16.4-1.1c-11.4-3.7-23.1-1.3-34.6-2.9
		c-3.4-0.5-6.6,0-9.5,1.9c-14.3,9.2-30.3,11.3-46.8,10.9c-2.2-0.1-4.3,0.1-6.5,0.1c-2.9,0-4.4,0.7-2.3,3.7
		c3.8,5.7,1.7,11.5,0.4,17.3c-0.7,3.2-3,4.6-6.2,4.7c-5.1,0.2-10.3,0.4-15.4,1c-3.9,0.4-8.5-1.3-10.5-5.9c-0.7-1.7-1.6-3.6-3.8-3.3
		c-2.3,0.3-1.7,2.5-2,4c-0.3,1.6-0.4,3.3-0.9,4.9c-1.3,3.9-3.4,6.7-8.2,6.5c-6-0.2-12,0-18-0.1c-2,0-4-0.2-5.4-2
		c-6.7-8.6-15.6-14.9-23-22.8c-1.9-2-4.3-2.3-6.9-2.3c-8.7,0-17.3,0.1-26,0c-23.5-0.2-47-0.6-70.5-0.8c-7.6-0.1-11.8-5-15.5-10.4
		c-9-12.8-8.8-12.9-24.4-12.6c-4,0.1-7.9,1.3-11.9,0.3c-1.8-0.4-3,1.2-4.2,2.4c-3.6,3.5-5.9,8-8.9,12.1c-4.7,6.5-10.6,10.4-19,10.1
		c-6.7-0.3-13.4,0.3-20-0.1c-8.3-0.4-15.8,1.8-22.9,5.9c-4.9,2.8-9.9,4.6-15.7,4.2c-4-0.3-8,0.8-11.8,2.1
		c-7.1,2.4-14.1,5.1-21.1,7.8c-3.1,1.2-6,2.8-7.9,5.8c-1.3,2.1-3.5,2.9-5.8,3.7c-31.3,10.9-62.5,22.4-94,32.6
		c-12.8,4.2-25.4,9.1-38,13.7c-5.2,1.9-10.3,4-15.9,4.1c-9.3,0.2-18.6,1.7-27.9,2.4c-4.4,0.4-8.5,1.5-12.5,3.4
		c-6,2.9-12.1,3.7-18.9,2.2c-6.2-1.4-12.9-1.4-19.3-1.2c-10.5,0.2-20.8-1.9-31.3-2c-5.8,0-11.6-0.8-17.4-1.5
		c-5.8-0.7-7.9-6.6-5.1-11.6c7-12.6,19.3-19.2,30.7-26.1c36.4-22,75.2-39.4,113.6-57.6c9-4.3,18.2-8.5,26.8-13.5
		c6.3-3.6,12.2-8.1,15.8-14.9c0.6-1.1,1.7-2.1,2.8-2.8c6.7-4.1,9.5-11.4,13.9-17.3c2-2.7,1.9-6.4-0.6-9.3
		c-11.9-13.9-20.4-29.9-29.2-45.8c-2.7-4.8-6.5-8.9-8.5-14.1c-0.4-1.1-1.2-1.3-2.4-1.1c-11.4,2.5-22.7,1.5-33.9-0.6
		c-10.5-1.9-20.6-5.7-30.4-9.9c-15.5-6.7-31.9-7.9-48.3-9.3c-13.3-1.2-26.4-2.8-38.9-7.6c-2.4-0.9-4.5-0.2-6.7,0.7
		c-11.9,4.6-23.9,6.9-36.2,0.9c-3.9-1.9-8.1-3.2-12.1-4.8c-3.4-1.3-6.9-2.4-8.4-6.4c-0.6-1.7-2.7-2.4-4.5-2.9
		c-6.2-1.7-9.1-6.3-11-11.9c-1.4-4.4,0.2-6.3,4.9-5.7c1.2,0.1,2.3,0.3,3.5,0.6c2.3,0.5,3.2-0.3,2.7-2.6c-0.1-0.5-0.3-1-0.2-1.5
		c1.3-8.7-1.3-14.8-10.8-16.6c-2.5-0.5-3.5-2.4-2.9-5.4c0.6-3.2-0.2-6.3-2.9-8.8c-4.3-4.1-6.4-9.4-8.1-15.2c-1.8-6.2-7.9-8.9-14-9.8
		c-5.4-0.8-11.1-2.7-16.4,1.2c-1.6,1.2-3.9,0.6-5.9,0.2c-8.3-1.7-17.4-1.9-24.8-5.4c-10.2-4.8-21.7-4.6-31.7-9.9
		c-4.3-2.3-8.3-5.1-10-9.4c0,0-0.5-7.4-0.3-9.7c0.2-2.2,0.2-5,0.5-8.8c0.3-3.8-0.5-10.7-0.2-15.4c0.3-4.7,0.2-5,1-11.4
		s0.5-7.9,2.1-16.1s0.3-7.3,3.1-14.2s4.3-9.5,6.7-13.8s8.8-15.2,12.3-18.5C153.4,473.6,157.6,469.3,157.6,469.3z M789,438.2
		c-5.6-1.7-10.6-3.2-15.5-4.6c-15-4.3-30.1-8.5-45.2-12.7c-6.7-1.8-7.2-1.1-7.7,5.8c-0.4,5.2,1.4,8.1,6.6,9.3
		c7.2,1.6,14.1,6.6,21.8,1.2c1.1-0.8,3.3-0.3,4.9-0.1c9.1,1.1,18.2,2.3,27.2,3.6C784,441.1,786.4,441.1,789,438.2z M521.6,812.2
		c2.9-0.9,6.7-2,10.4-3.4c2.2-0.8,6,0.1,6.4-2.7c0.4-3-2.8-5-5-6.9c-1.1-1-2.5-1.6-3.8-2.4c-1.3-0.8-2.5-0.9-3.5,0.5
		c-2.7,4-5.7,7.7-7.4,12.3C517.9,811.8,518.8,812.3,521.6,812.2z"/>
</g>
</svg>
