<?xml version="1.0" encoding="utf-8"?>
<!-- Generator: Adobe Illustrator 26.0.1, SVG Export Plug-In . SVG Version: 6.00 Build 0)  -->
<svg version="1.1" baseProfile="tiny" id="Layer_1" xmlns="http://www.w3.org/2000/svg" xmlns:xlink="http://www.w3.org/1999/xlink"
	 x="0px" y="0px" viewBox="0 0 454.1 959.1" overflow="visible" xml:space="preserve">
<g>
	<polygon fill="#160604" points="451.2,530.5 451.3,530.4 451.1,530.8 452.2,531.9 451.4,532.9 452.4,533.9 451.6,537.3 
		453.2,538.4 452.4,540.4 452.9,540.8 452.4,540.7 452,544.8 452,544.8 449.6,548.9 451.6,551 451.7,550.9 451,552.4 451.9,553.2 
		450.4,555.7 450.9,556.2 449.9,559.8 450.6,560.3 449.5,562.6 451.2,564.1 450.7,565.4 452,566.5 451.2,569 452.6,570.1 
		451.6,572.4 451.8,572.6 450.2,576.6 451.6,577.8 450.7,580.4 452.1,581.6 451.4,584.7 452.7,585.7 452,587.7 452.5,588.1 
		450.9,590.7 451.6,591.5 449.2,595.4 450.4,596.7 450,598.2 451.2,599.2 450,600.6 451,601.8 450.8,605.3 451.7,605.8 450.3,608 
		451.4,609.1 450.4,611.9 451.6,612.9 451.1,614.4 452.2,615.2 450.3,618.3 451.6,619.6 451,621.8 451.3,622 449.8,625.1 
		451.1,626.3 450.9,626.7 451.7,627.5 450.5,629.4 451,630 450.5,633.2 452,634.2 451.3,635.3 451.5,635.6 450.7,639.4 451.9,640.3 
		451,643.1 451.3,643.2 450.1,646 451.4,647.2 450,650.1 451.5,651.5 450.7,654 451.3,654.5 449.5,657 450.7,658.4 449.6,660.2 
		451.6,662.3 451.7,662.3 451.2,663.4 453.3,665.3 456.1,663.6 455.2,661.9 456.4,659.2 454.7,657.7 455.2,656.8 454.2,655.7 
		455.3,654.2 454.2,653 455.2,649.9 454,648.9 455.6,645.6 454.1,644.3 454.2,643.9 454,643.7 455.5,639 454.1,637.9 454.5,636.2 
		454.3,636.1 457,632.1 455,630 454,630.5 454.1,630 453.8,629.8 455.4,627.2 454.7,626.5 456.1,624.4 454.3,622.6 454.4,622.5 
		454,622.1 455,618.3 454.2,617.7 456.5,614 454.9,612.3 455,611.8 453.9,610.9 454.9,608.3 454.1,607.6 456,604.8 454,602.7 
		454,602.7 454,600.8 453.8,600.7 456.7,597.2 454.8,594.9 453.8,595.5 453.9,595.4 453.1,594.8 455.4,591.2 454.6,590.4 
		455.9,588.3 455.2,587.6 456.4,584.3 454.9,583 455.6,580.1 454.3,579.2 455.3,576.3 454,575.2 454.7,573.4 454.5,573.2 
		456.5,568.6 454.9,567.2 455.5,565.2 454.3,564.3 455.2,562 453.7,560.8 454,560.1 453.2,559.3 454,556.4 453.7,556.1 456,552.4 
		454.9,551.3 456.6,547.8 454.8,546.1 455.1,545.6 454.6,545.1 455,545.1 455.4,541 455.4,541 457.1,536.6 455.2,535 455.6,533.3 
		455.1,532.9 456.9,530.5 455.6,529 456.6,527.1 454.5,525.1 454,525.4 454.5,524.6 454.2,524.3 454.4,524.4 455.5,520 454.4,519.1 
		455.2,516.7 454.7,516.2 456.6,513.3 455.2,511.9 457,508.5 454.9,506.5 455.1,505.5 454.1,504.8 455.1,503.3 454.6,502.8 
		454.9,502.8 455.1,498.2 454.4,497.8 455,495.6 453.9,494.7 454.8,491.7 454.7,491.6 456.7,488.1 455.3,486.7 455.7,485.2 
		454.6,484.4 456.4,481.1 454.7,479.6 457,476.4 455,474.2 454.8,474.3 455.1,473.3 454.2,472.6 455.5,468.9 454.7,468.3 456.2,466 
		455,464.7 456.5,461.4 455.2,460.2 456.5,457.4 454.6,455.7 455.1,454.7 454,453.6 455.3,450.4 454.2,449.3 455.5,446.2 
		454.9,445.6 456.7,441.5 454.9,439.9 456.1,437.9 454.1,435.9 454,435.9 454.1,434 453.8,433.8 455.5,429.7 454.2,428.6 
		455.2,425.1 454,424.2 455.7,420.7 454.1,419.2 454,417.5 453.8,417.3 456,413.1 454.9,412.1 456.6,409.8 455.3,408.3 455.6,406.6 
		454.2,405.6 454.8,403 454.4,402.7 456.9,398.8 454.9,396.7 455.4,395.9 454.4,395 455.3,393.1 454.9,392.7 456.6,390.2 
		455.4,388.9 456.9,387.2 455.3,385.2 456.7,382.8 455.6,381.7 456.8,380.3 455.4,378.6 456,377.9 454.8,376.5 455,374.4 454.5,374 
		454.7,372 454.2,371.7 456.5,368.7 454.8,366.7 454.9,366.2 454.7,366 455.8,363.6 454.4,362.3 456.5,359.2 454.5,357 454,357.3 
		454,355.8 453.3,355.5 455.9,351 454.6,349.8 456,347 454.6,345.7 456.6,342.2 455,340.6 455.1,340.2 453.9,339.2 454.9,337.2 
		454.4,336.7 456.5,331.7 454.4,329.8 454.3,329.8 454,329.3 455.3,325.4 454.8,325 455.9,322.6 454.7,321.5 456.9,318.7 
		454.9,316.4 454.8,316.5 454.9,315.9 454.8,315.9 456.3,311.6 454.6,310.2 455.7,307.8 455.1,307.4 456.9,302.6 454.9,301 
		455.5,299.5 454.4,298.5 456.1,295.6 454.7,294.2 455.1,293.7 454.3,292.8 455.4,289.7 453.9,288.4 454.6,286.7 453.9,286.2 
		455.4,283.8 454.5,283 456.8,279 454.7,277 454.6,277.1 455.4,275.5 454.5,274.6 456.2,271.3 454.2,269.4 454.3,268.9 453.6,268.3 
		455.3,264.7 454.1,263.6 454.4,262.7 453.6,262.1 456.4,258.6 455,256.9 456,254.8 455.2,254 456.8,252.1 455.4,250.5 456.2,249 
		455.4,248.2 455.9,244.6 455.5,244.3 456.3,242.2 455.2,241.2 456.9,237.3 454.8,235.4 454.7,235.5 454.2,235.1 455.7,233.1 
		454.5,231.8 456.5,228.2 455.4,227.1 456.9,225.4 455,223.1 454.8,223.2 454.6,222.3 453.6,221.9 455.3,218.8 454.8,218.4 
		456.7,214.3 455.3,213.1 456.1,210.1 454.4,208.8 455.1,207.4 453.9,206.1 454.2,203.3 454.2,203.3 455.6,199 454.3,198 
		455.2,196.5 454.1,195.4 455.6,193.1 455.2,192.6 455.6,188.9 454.2,188 454.6,186.8 453.7,186.2 455.4,182.1 454.2,181 
		456.3,177.1 454.9,175.7 455.4,174.8 454.5,173.9 456.2,170.5 454.4,168.8 455.4,166.8 454.5,165.9 456.3,162 455.1,160.9 
		456.6,158.8 454.7,156.6 454.1,157 454.3,156.5 453.6,155.8 454.5,152.2 453.9,151.7 456,149.1 454.7,147.5 455.5,145.2 
		454.3,144.2 455.6,140.7 454.1,139.5 455.4,137.4 454.1,136.1 454.7,133.8 453.9,133.1 455.4,130.9 455.1,130.7 456.1,126.9 
		454.9,125.9 454.9,124.7 454.9,124.7 456.6,120.5 455.2,119.3 455.4,118.7 454.5,117.8 455.7,115.2 454.8,114.4 455.7,113 
		455.1,112.3 456.5,108.6 455,107.4 455.5,106.3 454.6,105.6 456.4,102.6 454.4,100.5 454.1,100.7 454.3,100.1 454.1,100 456.6,96 
		455.5,94.9 456.3,93.9 454.7,92 455.3,90.1 454.7,89.6 456.3,87.1 454.3,85 454.2,85.1 454.2,84.9 453.4,84.4 454.1,81.8 
		453.5,81.3 455.4,77.8 454.7,77.1 457,73.7 455.3,71.8 455.4,70.4 454.3,69.8 455.6,67.5 454.2,66.2 454.3,63.9 453.9,63.7 
		456.7,59.7 455.2,58.1 456.8,55.5 455.5,54.1 456,52.7 454.5,51.4 455.6,48.9 454,47.4 454.7,45.9 453.8,45 455.1,42.3 454.5,41.8 
		455,39.6 454.3,39 456.3,35 455.2,33.9 456.9,30.6 454.8,28.6 454.3,28.9 454,28.1 453.9,28.1 456.6,24.3 454.9,22.5 455.5,21.6 
		454.2,20.3 454.4,19.4 454.2,19.3 455.4,16.3 454.9,15.9 455.6,12.7 454.2,11.6 454.6,8.6 452.4,7.1 450.1,8.4 451.3,10.5 
		450.9,13.1 452.2,14 451.8,15.8 452.2,16.1 451.2,18.7 451.4,18.9 450.8,21.6 451.6,22.2 449.8,25.1 451.3,26.7 449.9,28.7 
		451.8,30.7 452.1,31.7 452.9,31.9 451.3,35 452.4,36.1 450.7,39.4 451.8,40.4 451.4,41.8 451.9,42.1 450.1,45.7 451,46.6 
		449.5,49.5 451.2,51.2 450.3,53.2 452,54.8 451.7,55.6 452.7,56.5 450.3,60.3 451.6,61.7 450,63.9 451.3,65.3 451.2,67.6 451.9,68 
		450.3,70.9 452.2,72.7 452.1,74 452.8,74.5 450.9,77.4 451.7,78.3 450.1,81.4 450.9,82.1 450.1,85 451.1,85.7 450.8,87.7 
		451.9,88.4 451,89.8 451.9,90.8 450.7,94.1 451.6,94.9 450.2,96.6 451.7,98.3 451.2,99 451.4,99.3 449.6,103.7 451.4,105.2 
		450.8,106.1 451.9,107.1 451.1,109 452.6,110.3 451.9,112.3 452.3,112.7 450.8,115.1 451.9,116.2 450.8,118.5 451.8,119.5 
		451.2,120.8 452.7,122.2 451.9,124.2 452.3,124.6 451.9,124.6 451.8,127.2 452.8,127.8 452.2,130 452.3,130.1 449.8,133.8 
		451.2,135.3 450.7,137.4 451.5,138 449.5,141.3 451.5,143.3 450.7,145.4 451.9,146.4 451,149 451.7,149.6 449.5,152.3 451,154 
		450.4,156.1 451,156.6 449.3,160 451,161.5 450.3,162.4 451.9,164.2 450.8,166.6 451.7,167.5 449.8,171.3 451.6,173 450.8,174.5 
		451.7,175.3 450.5,177.5 451.9,178.9 450.1,182.3 451.5,183.7 450.2,186.7 451.2,187.6 450.7,189.4 452.3,190.8 452.2,192.5 
		452.3,192.6 449.8,196.5 451,197.8 450.1,199.5 451.8,201.2 451.3,202.7 451.6,203 451.3,202.9 450.7,207.4 451.4,207.9 449.8,211 
		451.9,213 452.2,212.8 451.7,214.5 452.9,215.4 451.7,218 452.1,218.4 449.5,223.3 451.6,225.3 452.1,225 452.3,225.9 452.4,225.9 
		449.4,229.2 451.3,231.4 450.2,233.2 451.2,234.2 450.2,235.7 451.4,237.1 451.1,238 452.8,239.3 451.5,242.2 452.6,243.3 
		452.2,244.2 452.9,244.8 452.3,248.7 452.8,249.1 450.9,252.4 451.8,253.3 450.2,255.1 451.6,256.9 450.6,258.9 451.6,259.8 
		449.3,262.7 450.6,264.2 450.4,264.7 451.5,265.7 450.2,268.6 451,269.4 450.2,272 451.8,273.3 450.8,275.2 451.7,276.1 
		449.5,280.3 451.5,282.3 450.8,283.5 451.6,284.2 450.4,286.3 451.2,287.1 449.9,290.2 451.5,291.6 450.9,293.2 451.4,293.6 
		449.4,296.4 451.1,298.3 450.3,299.6 451.7,300.9 450.6,303.5 452.7,305.3 452,307.2 452.5,307.6 450.4,312.3 452.3,314 
		451.8,315.4 452.1,315.6 451.9,315.6 451.5,319.1 452.3,319.6 449.4,323.3 451.3,325.6 452,325.2 452.2,325.4 450.6,329.7 
		451.5,330.4 451.3,330.6 452.3,332.6 452.8,332.8 451.3,336.4 451.7,336.8 450.1,340.5 451.5,341.7 451.2,342.6 452.4,343.6 
		450.3,347.4 451.8,348.8 450.8,351 451.8,352 449.6,356.1 451,357.5 451.1,359.9 452,360.4 449.2,364.4 451.2,366.5 451.9,366.1 
		451.5,369 452.2,369.4 450,372.1 451.5,373.8 451.4,374.4 451.9,374.7 451.6,377.8 452,378.1 449.6,381.2 450.7,382.5 449.4,383.9 
		451.2,386.2 450.2,387.9 451.3,389.1 449.8,390.9 451.7,393.2 452.1,393 450.8,395.6 451.6,396.4 449.6,399.9 451.4,401.7 
		451,402.5 451.7,403.3 450.7,407.1 452.2,408.3 451.9,409.7 452.6,410.2 450.2,413.3 451.6,414.9 450.4,417.4 451.1,418 
		451.3,421.1 452,421.5 450,425.4 451.6,426.9 450.7,429.8 451.8,430.7 450.6,433.7 451.1,434.1 450.7,438.5 451.8,439.2 
		449.9,442.5 451.9,444.5 452.2,444.4 451.6,445.7 452.3,446.2 450.4,450.4 451.6,451.5 450.4,454.6 451.3,455.4 449.7,458.5 
		451.7,460.5 451.8,460.5 451.2,461.6 452.6,462.9 451.2,466 452.1,466.8 450.9,468.7 452,469.9 450.7,473.3 451.8,474.2 451.1,477 
		452.3,477.9 449.2,482.2 451.2,484.4 451.2,484.4 450.7,485.4 452.1,486.8 451.7,488.2 452.7,489 451.7,490.7 451.9,490.9 
		450.5,495.7 451.6,496.6 451.2,498.3 452,498.9 451.9,502.7 451.9,502.7 449.8,506 451.6,507.9 451.4,509.1 452.8,510.1 451,513.5 
		452.1,514.6 451.1,516.2 451.9,517 450.7,520.2 452.1,521.4 451.5,523.6 451.6,523.6 449.1,528.5 	"/>
	<polygon fill="#160604" points="440,956.7 438,955.1 433.6,957.7 432.6,956 430.7,957.2 427.7,955.9 426.4,956 424.1,957.3 
		425.6,959.9 427.2,959 430.2,960.2 431.5,960.1 433,959.3 433.9,960.9 436.6,959.4 438.6,960.9 444,957.8 442.5,955.2 	"/>
	<polygon fill="#160604" points="455.3,767.2 455.4,765.8 454.3,765.2 455.6,762.9 454.2,761.6 454.3,759.3 453.9,759.1 
		456.7,755.1 455.2,753.5 456.8,750.9 455.5,749.5 456,748.1 454.5,746.8 455.6,744.2 454,742.8 454.7,741.3 453.8,740.4 
		455.1,737.7 454.5,737.2 455,735 454.3,734.4 456.3,730.4 455.2,729.3 456.9,726 454.8,724 454.3,724.3 454,723.5 453.9,723.5 
		456.6,719.7 454.9,717.9 455.5,717 454.2,715.7 454.4,714.8 454.2,714.7 455.4,711.7 454.8,711.3 455.6,708.1 454.2,707 454.6,704 
		452.4,702.5 450.1,703.8 451.3,705.9 450.9,708.5 452.2,709.4 451.8,711.2 452.2,711.5 451.2,714.1 451.4,714.3 450.8,717 
		451.6,717.6 449.8,720.5 451.3,722 449.9,724.1 451.8,726.1 452.1,727.1 452.8,727.3 451.3,730.4 452.4,731.5 450.7,734.8 
		451.8,735.8 451.4,737.2 451.9,737.5 450.1,741.1 451,742 449.5,744.9 451.2,746.6 450.3,748.6 452,750.2 451.7,751 452.7,751.9 
		450.3,755.7 451.6,757.1 450,759.3 451.3,760.7 451.2,763 451.9,763.4 450.3,766.3 452.2,768.1 452.1,769.4 452.8,769.9 
		450.9,772.7 451.7,773.7 450.1,776.8 450.9,777.5 450.1,780.4 451.1,781.1 450.8,783.1 451.9,783.8 451,785.2 451.9,786.2 
		450.7,789.5 451.6,790.2 450.2,792 451.7,793.7 451.2,794.4 451.4,794.7 449.6,799.1 451.4,800.6 450.8,801.5 451.9,802.5 
		451.1,804.4 452.6,805.7 451.9,807.7 452.3,808.1 450.8,810.5 451.9,811.6 450.8,813.9 451.8,814.9 451.2,816.2 452.7,817.6 
		451.9,819.6 452.3,820 451.9,820 451.8,822.6 452.8,823.2 452.2,825.4 452.3,825.5 449.8,829.2 451.2,830.7 450.7,832.8 
		451.5,833.4 449.5,836.7 451.5,838.7 450.7,840.8 451.9,841.8 451,844.4 451.7,845 449.5,847.7 451,849.4 450.4,851.5 451,852 
		449.3,855.4 451,856.9 450.3,857.8 451.9,859.6 450.8,862 451.7,862.9 449.8,866.7 451.6,868.4 450.8,869.9 451.7,870.7 
		450.5,872.9 451.9,874.3 450.1,877.7 451.5,879.1 450.2,882.1 451.2,883 450.7,884.8 452.3,886.1 452.2,887.9 452.3,888 
		449.8,891.9 451,893.2 450.1,894.9 451.8,896.6 451.3,898.1 451.7,898.4 451.3,898.3 450.7,902.8 451.4,903.3 449.8,906.4 
		451.9,908.4 452.2,908.2 451.7,909.9 452.9,910.8 451.7,913.4 452.1,913.8 449.5,918.7 451.6,920.7 452.1,920.4 452.3,921.3 
		452.4,921.3 449.4,924.6 451.3,926.8 450.2,928.6 451.2,929.6 450.2,931.1 451.4,932.5 451.1,933.4 452.8,934.7 451.5,937.6 
		452.6,938.7 452.2,939.6 452.9,940.2 452.3,944.1 452.6,944.3 449.4,948.6 449.9,949.1 443.2,954.4 444.8,956.9 454.1,951.6 
		453.3,950.3 456.6,947.7 455.3,945.7 456.1,944.6 455.4,943.8 455.9,940 455.5,939.7 456.3,937.6 455.2,936.6 456.9,932.7 
		454.8,930.8 454.7,930.9 454.2,930.5 455.7,928.5 454.5,927.2 456.5,923.6 455.4,922.5 456.9,920.8 455,918.5 454.8,918.6 
		454.6,917.7 453.6,917.3 455.3,914.2 454.8,913.7 456.7,909.7 455.3,908.5 456.1,905.5 454.4,904.2 455.1,902.8 453.9,901.5 
		454.2,898.7 454.2,898.7 455.6,894.4 454.3,893.4 455.2,891.9 454.1,890.8 455.6,888.4 455.2,888 455.6,884.3 454.2,883.4 
		454.6,882.2 453.7,881.6 455.4,877.5 454.2,876.4 456.3,872.5 454.9,871.1 455.4,870.2 454.5,869.3 456.2,865.9 454.4,864.2 
		455.4,862.2 454.5,861.3 456.3,857.4 455.1,856.3 456.6,854.2 454.7,852 454.1,852.4 454.3,851.9 453.6,851.2 454.5,847.6 
		453.9,847.1 456,844.4 454.7,842.9 455.5,840.6 454.3,839.6 455.6,836.1 454.1,834.9 455.4,832.8 454.1,831.5 454.7,829.2 
		453.9,828.5 455.4,826.3 455.1,826.1 456.1,822.3 454.9,821.3 454.9,820.1 454.9,820.1 456.6,815.9 455.2,814.7 455.4,814.1 
		454.5,813.2 455.7,810.6 454.8,809.8 455.7,808.4 455.1,807.7 456.5,804 455,802.8 455.5,801.7 454.6,801 456.4,798 454.4,795.9 
		454.1,796.1 454.3,795.5 454.1,795.4 456.6,791.4 455.5,790.3 456.3,789.2 454.7,787.3 455.3,785.5 454.7,785 456.3,782.5 
		454.3,780.4 454.2,780.5 454.2,780.3 453.4,779.8 454.1,777.2 453.5,776.7 455.4,773.2 454.7,772.5 457,769.1 	"/>
	<polygon fill="#160604" points="420.7,957.1 417.7,955.9 416.4,956 414.1,957.3 415.6,959.9 417.2,959 420.2,960.2 421.5,960.1 
		424.1,958.6 422.6,956 	"/>
	<polygon fill="#160604" points="407.5,957.3 405.9,955.4 404,955 401.6,956.4 399.8,954.7 396.8,956.4 392.4,956 391.5,956.2 
		388.8,957.8 387.1,956 385.3,955.7 383.8,956.6 382,955.1 380.3,955 377.4,956.7 373.3,955.2 372,955.3 368.2,957.5 367,956.1 
		365.2,955.8 362.6,957.3 357.9,956.3 356.8,956.4 356.1,956.9 353.3,955.5 351.9,955.6 348.9,957.3 348.3,956.3 346.3,955.8 
		343.7,957.3 343.4,956.3 341.3,955.5 339.5,956.5 333.9,956.4 333.1,956.6 332.4,957 330,956.1 328.8,956.2 326.6,957.5 
		323.5,955.7 322,955.7 318.9,957.5 316.7,955.4 314.9,955.2 311,957.4 309,956.5 307.6,956.6 307.5,956.6 304.8,955.2 303.4,955.2 
		298.9,957.8 295.5,956.3 294.2,956.4 290,955.1 288.8,955.2 286.1,956.8 286.1,956.2 283.8,955 278.6,958 277.1,956.6 275.3,956.4 
		273.4,957.5 269.9,956.2 268.6,956.3 267.7,956.9 265.7,955.3 262.3,957.3 257.7,956.5 256.8,956.6 251.5,955.6 250.5,955.7 
		246.7,957.9 245.1,956.4 243.3,956.2 242.9,956.5 237.7,956.1 236.8,956.3 235.2,957.3 235.1,956.9 232.9,955.8 231.6,956.5 
		229.1,955.4 227.7,955.5 225.5,956.8 223.1,956.1 222,956.2 221.2,956.7 218.8,955.2 217.3,955.2 213.9,957.2 212,956.4 
		210.7,956.5 210.6,956.6 207.6,955.6 206.4,955.7 204.5,956.7 202.4,955.7 200.6,956.7 197.9,955.3 196.5,955.3 193,957.3 
		190.5,956.5 189.3,956.6 189,956.7 187.5,955.5 185.8,955.3 181,958 179,956.7 177.4,956.6 177.1,956.8 176.9,956 174.7,955.2 
		172,956.7 170.3,955.3 166.6,957.5 163.6,956 162.1,956 160.9,956.7 160.9,956.4 158.6,955.4 155,957.5 152.4,956.6 151.2,956.8 
		149.3,957.8 146.6,956.7 145.3,956.8 143.4,957.9 141,956.6 139.8,956.6 138.6,955.3 136.7,955 133.6,956.8 129.6,955.9 
		128.5,956.1 126,957.5 125.1,956.3 123.2,955.9 120.6,957.3 116.3,956.5 115.3,956.7 114.2,957.3 114.1,956.3 111.9,955.2 
		107.9,957.5 107,955.8 104.9,955.1 101.8,956.9 100.1,955.8 98.5,955.7 95,957.7 92.6,956 91,955.9 87.2,958.1 86.1,956.7 
		84.2,956.4 81.8,957.8 80.5,956.4 78.7,956.2 77.1,957.1 75.6,956.2 74.1,956.3 72.1,957.4 70.1,955.6 68.4,955.5 65.6,957.1 
		63.7,955.4 61.9,955.1 58.9,956.9 54.7,956.6 53.8,956.8 52.8,957.5 52.5,956.2 50.3,955.2 46.1,957.6 45.7,956.6 43.6,955.9 
		40.9,957.4 39.3,956.6 37.9,956.6 37.1,957.1 36,956.2 34.3,956 32.8,956.9 30.1,955.8 28.8,955.9 26.2,957.4 21.5,956.1 
		20.4,956.2 18.1,957.5 19.6,960.1 21.3,959.1 25.9,960.5 27.1,960.3 29.7,958.8 32.3,959.9 33.6,959.8 34.9,959.1 35.9,960.1 
		37.7,960.2 38.7,959.6 40.3,960.4 41.7,960.4 43.5,959.4 43.9,960.4 46.1,961.1 50,958.9 50.3,960.1 52.5,961.1 54.9,959.7 
		59.2,959.9 60,959.7 62.5,958.3 64.3,960 66.1,960.2 68.9,958.6 71,960.4 72.7,960.6 74.9,959.3 76.4,960.1 77.9,960.1 79.1,959.4 
		80.4,960.7 82.3,961 84.6,959.6 85.8,961 87.7,961.3 91.6,959 94,960.7 95.7,960.8 99.2,958.8 100.9,959.9 102.5,960 105,958.5 
		105.9,960.3 108,960.9 111.4,958.9 111.5,959.9 113.8,961.1 116.3,959.6 120.7,960.4 121.7,960.2 123.5,959.2 124.4,960.4 
		126.4,960.8 129.5,959 133.5,959.9 134.6,959.7 137.2,958.2 138.3,959.4 140.2,959.7 140.3,959.6 142.7,960.9 144.2,960.9 
		146.1,959.8 148.8,960.9 150.2,960.8 152.1,959.7 154.8,960.5 156,960.4 158.2,959.1 158.3,959.4 160.5,960.4 163,959 166,960.5 
		167.4,960.5 169.1,959.5 170.8,960.9 174.6,958.7 174.8,959.5 177,960.3 178.1,959.7 180.1,961.1 181.7,961.1 186.4,958.4 
		187.8,959.7 189.6,959.9 190.2,959.5 192.8,960.4 194,960.2 197.2,958.3 199.9,959.8 201.3,959.7 202,959.4 204.1,960.5 
		207.3,958.6 210.2,959.7 211.5,959.5 211.5,959.5 213.4,960.3 214.7,960.2 218,958.3 220.3,959.7 221.9,959.7 222.9,959.1 
		225.2,959.8 226.4,959.7 228.6,958.5 231.1,959.6 232.4,959.5 232.5,959.9 234.7,961 237.9,959.1 243.1,959.5 243.8,959.4 
		245.4,960.9 247.2,961.1 251.5,958.6 256.7,959.7 257.7,959.5 262.3,960.3 263.3,960.1 264.3,959.6 266.3,961.1 269.5,959.3 
		273,960.6 274.3,960.4 275.9,959.5 277.4,960.9 279.2,961.1 283.2,958.8 283.2,959.4 285.4,960.6 289.8,958.1 293.9,959.4 
		294.9,959.3 298.4,960.9 299.8,960.8 304.2,958.3 306.9,959.7 308.3,959.6 308.4,959.6 310.4,960.5 311.8,960.4 315.5,958.3 
		317.7,960.4 319.5,960.6 322.7,958.7 325.8,960.5 327.3,960.5 329.6,959.2 332,960 333.3,959.9 334.2,959.4 339.8,959.5 
		340.6,959.3 341.2,959 341.5,960 343.6,960.8 346.5,959.1 347.1,960.1 349.2,960.6 352.7,958.6 355.5,959.9 356.9,959.9 
		357.8,959.3 362.5,960.3 363.6,960.2 365.6,959 366.7,960.4 368.6,960.8 372.9,958.3 377.1,959.7 378.3,959.6 380.9,958.1 
		382.8,959.5 384.4,959.7 385.8,958.9 387.5,960.7 389.3,961 392.6,959.1 397,959.5 397.5,959.3 399.4,961.1 404.4,958.3 
		405.9,960.2 407.8,960.6 413.4,957.4 411.9,954.8 	"/>
	<polygon fill="#160604" points="420,937.7 421.6,937.8 423.8,936.5 424.4,937.2 426.3,937.5 427.7,936.7 431.9,938 433.1,937.8 
		434,937.3 434.7,938.4 436.7,939 438,938.3 439.6,939.8 445.4,936.4 443.9,933.8 441.4,935.3 439.8,933.8 436.5,935.6 435.9,934.5 
		433.8,933.9 432.1,934.9 427.9,933.7 426.7,933.8 425.8,934.3 425.2,933.6 423.4,933.3 421,934.7 418.3,932.7 416.7,932.6 
		413.4,934.5 412.2,933.7 410.5,933.6 409.4,934.2 407.3,932.9 404.3,934.6 402.9,932.7 400.9,932.3 398.8,933.5 397,931.8 
		394.1,933.4 389.8,933 388.9,933.2 386.4,934.6 384.8,932.9 382.9,932.6 381.6,933.3 379.9,931.9 378.2,931.7 375.3,933.4 
		371.2,931.9 370,932 366.2,934.2 365.1,932.8 363.2,932.5 360.6,933.9 355.9,932.9 354.9,933.1 354.1,933.5 351.3,932.2 
		349.9,932.2 346.9,934 346.3,933 344.2,932.5 341.6,934 341.3,933 339.1,932.2 337.3,933.3 331.6,933.2 330.8,933.4 330,933.8 
		327.6,933 326.3,933.1 324,934.4 320.8,932.7 319.3,932.7 316.1,934.6 313.7,932.5 312,932.4 307.9,934.7 305.8,933.8 304.4,933.9 
		304.2,934 301.4,932.7 300,932.7 295.3,935.4 291.6,934 290.3,934.1 290.1,934.2 285.8,933 284.6,933.1 281.6,934.9 281.5,934.3 
		279.3,933.1 273.8,936.2 272.1,934.8 270.4,934.7 268.2,936 264.5,934.8 263.2,934.9 262,935.6 260,934.1 256.3,936.2 251.6,935.5 
		250.6,935.7 250.4,935.8 244.8,934.9 243.8,935.1 239.7,937.4 237.9,936 236.2,935.8 235.5,936.3 230.1,936 229.2,936.2 
		227.2,937.3 227.2,936.9 225,935.9 223.4,936.8 220.7,935.7 219.4,935.8 216.9,937.2 214.5,936.6 213.3,936.7 212.2,937.3 
		209.7,936 208.2,936 204.5,938.1 202.5,937.4 201.3,937.5 200.9,937.7 197.7,936.7 196.5,936.9 194.5,938 192.3,937 190.2,938.2 
		187.4,936.8 186,936.9 182.3,939 179.6,938.2 178.4,938.3 177.9,938.6 176.3,937.4 174.6,937.2 169.6,940.1 167.4,938.8 
		165.9,938.7 165.3,939.1 165,938.3 162.9,937.5 160,939.2 158.3,937.8 154.3,940 151.2,938.6 149.8,938.7 148.4,939.5 148.3,939.2 
		146.1,938.1 142.3,940.3 139.6,939.5 138.4,939.6 136.4,940.8 133.6,939.7 132.3,939.8 130.3,941 127.8,939.7 126.4,939.7 
		125.2,938.4 123.4,938.2 120.2,940 116.1,939.2 115.1,939.4 112.5,940.8 111.5,939.6 109.6,939.2 107.1,940.7 102.7,939.9 
		101.7,940.1 100.6,940.7 100.5,939.7 98.2,938.5 94.2,940.9 93.4,939.1 91.3,938.5 88.2,940.3 86.6,939.1 85,939 81.5,941 
		79.2,939.3 77.5,939.2 73.9,941.3 72.8,939.9 70.9,939.6 68.6,940.9 67.4,939.6 65.5,939.3 64.1,940.1 62.6,939.3 61.1,939.3 
		59.3,940.3 57.5,938.5 55.7,938.3 53.1,939.8 51.4,938 49.6,937.8 46.8,939.4 42.6,939.1 41.8,939.3 41,939.7 40.9,938.5 
		38.6,937.5 34.8,939.7 34.5,938.7 32.3,937.9 29.9,939.2 28.4,938.4 27,938.4 26.5,938.7 25.5,937.8 23.7,937.6 22.6,938.3 
		20.2,937.1 18.8,937.2 16.5,938.5 12.3,936.9 11.1,937.1 8.9,938.3 10.4,940.9 12,940 16.1,941.5 17.4,941.4 19.6,940.2 22,941.3 
		23.4,941.2 24.3,940.7 25.2,941.6 27,941.9 27.7,941.4 29.3,942.3 30.7,942.2 32.2,941.4 32.5,942.4 34.6,943.2 38.2,941.2 
		38.4,942.4 40.6,943.4 42.9,942.1 47,942.4 47.9,942.2 50.1,941 51.7,942.7 53.5,943 56.2,941.5 58,943.3 59.8,943.5 61.9,942.3 
		63.4,943.1 64.9,943.1 66,942.5 67.2,943.8 69,944.1 71.2,942.8 72.3,944.2 74.3,944.5 78.2,942.3 80.5,944 82.1,944.1 85.6,942.1 
		87.3,943.3 88.9,943.3 91.4,941.9 92.3,943.6 94.3,944.3 97.8,942.3 97.9,943.3 100.1,944.4 102.7,942.9 107.1,943.7 108.1,943.5 
		109.9,942.5 110.9,943.7 112.8,944.1 116.1,942.2 120.1,943.1 121.2,942.9 123.9,941.4 125.1,942.6 126.9,942.9 127.2,942.7 
		129.6,944 131.1,944 133.2,942.7 136,943.8 137.3,943.8 139.4,942.5 142.1,943.3 143.3,943.2 145.7,941.8 145.8,942.1 148,943.2 
		150.6,941.6 153.8,943.1 155.2,943 157.1,941.9 158.8,943.3 162.9,941 163.2,941.8 165.3,942.5 166.6,941.8 168.8,943.2 
		170.3,943.2 175.3,940.3 176.9,941.6 178.5,941.7 179.4,941.3 182.1,942.1 183.2,941.9 186.8,939.9 189.6,941.2 191,941.2 
		191.9,940.7 194.1,941.7 197.5,939.8 200.6,940.7 201.8,940.6 202.1,940.4 204.1,941.2 205.4,941.1 209,939 211.5,940.4 213,940.4 
		214.3,939.6 216.7,940.3 217.8,940.1 220.3,938.7 223,939.8 224.3,939.7 224.6,939.5 224.6,939.9 226.9,941 230.4,939 235.8,939.3 
		236.6,939.1 236.8,939 238.6,940.4 240.3,940.6 244.8,937.9 250.4,938.8 251.4,938.7 251.6,938.5 256.4,939.2 257.4,939 
		258.7,938.3 260.7,939.8 264.2,937.8 268,939 269.2,938.9 271,937.8 272.7,939.2 274.4,939.3 278.7,936.9 278.8,937.5 281,938.7 
		285.6,936 289.9,937.3 291.1,937.1 291.2,937.1 294.9,938.5 296.2,938.4 300.8,935.7 303.6,937.1 305,937 305.3,936.9 307.4,937.8 
		308.7,937.7 312.6,935.5 315,937.5 316.7,937.7 320.1,935.7 323.3,937.5 324.8,937.4 327.2,936 329.6,936.9 330.9,936.8 
		331.9,936.2 337.6,936.3 338.4,936.1 339,935.7 339.4,936.7 341.5,937.5 344.5,935.8 345.1,936.8 347.1,937.3 350.7,935.2 
		353.5,936.6 354.9,936.5 355.9,935.9 360.6,937 361.6,936.8 363.6,935.7 364.7,937.1 366.6,937.4 370.9,935 374.9,936.4 
		376.2,936.3 378.7,934.8 380.5,936.3 382.2,936.5 383.4,935.8 385,937.6 386.9,937.9 390,936 394.3,936.5 394.6,936.4 396.6,938.3 
		401.3,935.5 402.7,937.5 404.7,937.9 406.5,936.8 408.6,938.1 411.2,936.7 412.3,937.5 414,937.6 417.3,935.7 	"/>
	<polygon fill="#160604" points="7.9,5.1 9.9,6.4 9.2,7 11,9.4 12.4,8.6 13.7,10.5 16.3,9 17.6,10.8 20.1,9.4 21.7,11.7 27,8.6 
		26.2,9.3 27.9,11.8 33.7,8.4 35.2,10.5 41.1,7.1 39.3,8.8 41.1,11.2 47.7,7.3 45.7,9.2 47.5,11.6 51.4,9.4 52.6,11.2 55.1,9.7 
		56.8,12.1 60.5,10 60.4,10.1 62.1,12.5 70.3,7.8 68.2,9.7 70,12.1 75.2,9.1 76.8,11.3 82.6,8 80.5,9.8 82.2,12.2 86.5,9.7 86.2,10 
		87.9,12.4 94.9,8.5 94.1,9.2 95.8,11.6 98.9,9.8 100.5,12.2 107.6,8.1 107,8.7 108.7,11.1 112.8,8.8 114.4,11.1 116.9,9.7 
		116.7,9.8 118.4,12.3 122.8,9.8 124.5,12.1 128.9,9.6 130.3,11.7 133.6,9.8 134.9,11.7 141.6,7.8 140.1,9.3 141.9,11.7 144.2,10.3 
		145.4,12.1 150.2,9.3 151.7,11.4 155.1,9.4 154.7,9.7 156.5,12.2 162.8,8.5 164.5,10.9 167.5,9.1 169,11.1 175.7,7.3 174.7,8.2 
		176.5,10.6 178.2,9.5 179.4,11.2 185.1,7.9 186.9,10.2 189,9 190.2,10.8 196.5,7.1 195.8,7.9 197.5,10.3 200.9,8.3 202.2,10.2 
		206.7,7.6 208.4,9.9 209.4,9.3 210.8,11.3 218.9,6.6 218.3,7.2 220.2,9.5 222.1,8.4 221.7,8.9 223.6,11.2 229.7,7.7 231,9.4 
		233.3,8.1 234.6,10 237.6,8.3 238.8,10.1 241.7,8.4 243.4,10.7 249,7.5 248.2,8.1 250,10.5 256.1,7 257.7,9.1 263.5,5.7 262.2,7.1 
		264,9.5 270.5,5.7 269,7.3 270.8,9.7 274.9,7.3 276.2,9.1 278.9,7.5 280.7,9.9 284.6,7.7 284.4,7.8 286.2,10.1 293.9,5.7 
		292.6,7.3 294.4,9.5 299.8,6.5 301.4,8.6 306.6,5.6 305.2,7.1 307,9.5 311.4,7 311.1,7.2 312.9,9.6 319.5,5.8 319,6.5 320.9,8.7 
		323.9,6.9 325.7,9.2 332.5,5.3 332,5.9 334,8.1 337.9,5.8 339.6,8.1 342,6.7 341.8,6.9 343.6,9.2 347.8,6.8 349.7,9.1 353.9,6.7 
		355.5,8.7 358.7,6.9 360,8.8 365.8,5.4 364.9,6.6 366.8,8.8 369,7.5 370.2,9.3 374.9,6.6 376.4,8.7 379.5,6.9 379.1,7.2 381,9.6 
		387,6.1 388.8,8.4 391.5,6.8 393.1,8.8 399.1,5.3 398.4,6.1 400.3,8.4 401.8,7.5 403,9.1 408.2,6.1 408.1,6.4 410.2,8.3 412.4,7 
		411.8,6.1 412.6,6.6 412.9,6.4 414.7,8.7 417.2,7.2 418.6,9.1 421.2,7.6 422.5,9.4 425,7.9 426.7,10.2 431.8,7.3 431.1,7.9 
		432.8,10.3 438.4,7.1 440.2,9 443,7.4 442.8,7.8 444.9,9.7 448.1,7.9 447,6.1 447.9,4.3 445.8,2.3 444.5,3 442.8,1.1 443.6,0.4 
		441.8,-2 436.7,0.9 435.1,-1.4 430.7,1.2 429.4,-0.6 427.2,0.7 425.8,-1.2 422,0.9 420.3,-1.3 413.7,2.4 414,0.5 411.8,-1 
		411.5,-0.8 411.1,-1.3 406.7,1.2 407.4,0.4 405.5,-1.9 399.8,1.4 398.3,-0.6 396.6,0.4 394.9,-1.9 388,2.1 388.3,1.7 386.5,-0.6 
		385.3,0.1 383.8,-2 380.6,-0.2 379.4,-1.9 372.2,2.2 373.2,1 371.3,-1.2 369.1,0 367.8,-1.9 361.9,1.5 360.3,-0.5 356.3,1.8 
		354.4,-0.5 350.4,1.9 350.6,1.7 348.7,-0.6 347.6,0 345.9,-2.3 339.2,1.6 339.6,1 337.7,-1.2 334.1,0.9 332.3,-1.4 325.9,2.3 
		326.4,1.6 324.5,-0.6 322.6,0.5 322.8,0.3 321.1,-2.1 314.5,1.7 315.9,0.2 314.1,-2.1 309.4,0.6 307.7,-1.6 300.7,2.5 302.1,0.9 
		300.2,-1.4 295.1,1.6 295.2,1.5 293.4,-0.9 289.6,1.3 287.9,-1.1 284.6,0.8 283.3,-1 277.9,2.1 279.4,0.5 277.5,-1.8 271.6,1.6 
		272.9,0.2 271.1,-2.1 264.6,1.7 263,-0.4 260.4,1.1 261.2,0.4 259.4,-2 254.3,0.9 252.7,-1.3 248.2,1.2 247,-0.6 244.7,0.7 
		243.4,-1.2 239.6,1 237.8,-1.3 231.3,2.4 231.6,0.5 229.4,-1 227.1,0.3 228.3,2.4 228.3,2.7 227.5,1.8 227,2.2 227.6,1.5 
		225.7,-0.8 223.1,0.7 221.8,-1.3 218.3,0.7 216.6,-1.7 212.2,0.9 210.9,-0.9 207.3,1.2 208,0.5 206.3,-1.9 200.9,1.2 199.7,-0.6 
		197.1,0.9 195.3,-1.5 192.5,0.2 191.4,-1.5 186.3,1.4 187.3,0.5 185.5,-1.9 179.7,1.5 178.3,-0.6 176.5,0.4 174.9,-1.9 167.8,2.2 
		168.2,1.8 166.5,-0.6 165.2,0.1 163.8,-2 160.5,-0.1 159.4,-1.9 151.5,2.6 153,1.2 151.3,-1.2 149.1,0.1 147.8,-1.9 141.8,1.6 
		140.3,-0.5 136.1,1.9 134.4,-0.5 130.2,2 130.4,1.8 128.7,-0.6 127.5,0.1 125.9,-2.3 118.8,1.8 119.5,1.2 117.7,-1.2 114,1 
		112.3,-1.4 105.5,2.6 106.3,1.8 104.5,-0.6 102.5,0.6 102.8,0.4 101.1,-2.1 93.7,2.1 95.8,0.3 94.1,-2.1 89.3,0.6 87.7,-1.6 
		79.9,2.9 81.9,1 80.2,-1.4 75,1.6 75.1,1.5 73.4,-0.9 69.5,1.3 67.9,-1.1 64.5,0.8 63.3,-1 57.3,2.5 59.3,0.6 57.5,-1.8 51.1,1.9 
		52.9,0.3 51.1,-2.1 44.5,1.7 43,-0.4 40.3,1.1 41.1,0.4 39.4,-2 34.3,1 32.7,-1.3 28.2,1.2 27,-0.6 24.7,0.7 23.4,-1.2 19.6,1 
		17.8,-1.3 11.3,2.4 11.6,0.5 9.4,-1 7.1,0.3 8.3,2.4 	"/>
	<polygon fill="#160604" points="12.6,956.6 9.6,955.7 10.2,954.3 8.1,952.4 8.1,952.4 7.9,951.1 5.8,950.1 5.9,949.5 4.1,948.3 
		3.6,945.8 3,945.5 3.3,943.6 2.5,942.9 3.8,939.4 2.3,938.1 3.3,935.4 2.6,934.8 4.3,932.5 3.1,931.1 4.6,928.6 2.5,926.6 
		2.4,926.6 2.2,926 4.6,923.5 2.8,921.3 3,921.1 1.9,920 3.4,917.7 1.9,916 1.9,915.1 1.6,915 2.3,910.7 1.8,910.4 3.3,906.9 
		2,905.7 3.5,903.6 2.9,902.9 4.2,900.5 2.5,898.7 3,897.6 2.3,896.9 4.4,893.5 3.1,892.2 3.7,890.5 2.5,889.5 3.6,886.9 2.9,886.3 
		4.6,883.6 2.6,881.5 2.2,881.7 2.4,880.4 1.4,879.8 3.2,876.9 2.4,876.2 4.9,872.4 2.8,870.3 2.7,870.4 3.2,869.5 2.3,868.6 
		3.6,866.4 2.8,865.7 4.6,861.9 3.2,860.7 4.1,859.1 2,857.1 2.8,855.6 1.3,854.2 2.9,851.1 2.1,850.3 3.8,847.2 2.9,846.3 
		4.7,842.9 3.2,841.5 3.3,841.2 2.1,840.2 2.6,838.4 2,837.8 2.9,833.7 2.7,833.6 4.2,830.2 2.9,829 3.5,828.1 2.3,826.7 3.2,825.1 
		2,823.9 2.9,821.3 1.6,820.2 3.4,817.2 2.3,816.1 3.2,814.2 1.6,812.7 1.8,811 1.7,810.9 3.9,807.6 2.8,806.4 3.9,804.2 2.2,802.5 
		2.8,800.8 1.5,799.8 2.7,797.6 2,796.9 3.6,793.3 1.9,791.7 2.1,789.2 1.6,788.9 4.6,785.2 3.3,783.5 4.7,781.6 2.8,779.4 
		2.6,779.5 2.1,777.7 1.8,777.6 4.4,773.9 2.6,771.9 2.7,770.4 2.5,770.2 3.6,766.7 2.5,765.8 3.3,763.5 1.9,762.4 2.7,761.1 
		1.9,760.3 2,758 1.5,757.7 2.5,753.8 1.5,753 3.6,750 1.9,748.1 2.6,746.7 1.8,746 4.8,742.1 2.8,739.9 2.8,739.9 3.3,737.9 
		2.3,737.1 3.6,734.1 2.1,732.8 2,730.8 4.2,727.7 3.3,726.7 4.8,722.9 2.7,721 1.8,721.5 1.8,720.3 1.2,719.9 2.4,718.2 1.5,717.3 
		2.7,713.2 1.7,712.5 3.8,709.2 2.9,708.3 3.3,706.4 1.6,705.1 1.6,704.7 1.3,704.5 4.2,700.2 3.1,699.1 4.9,696.2 3.5,694.9 
		3.9,693.6 2.1,692.2 3.2,690.2 2.3,689.3 3.8,686.6 3.3,686.1 4.1,683.4 2.3,681.9 3.1,680.5 1.9,679.2 2.4,677.6 1.4,676.8 
		1.8,675.4 1,674.8 3.3,670.7 2.3,669.7 3.2,668 2.8,667.6 3.4,664 2.3,663.3 4.2,659.3 2.5,657.8 3,656.9 2,655.8 3.1,654.3 
		2,653.1 3,649.9 1.8,648.9 3.3,645.7 1.9,644.3 2,644 1.8,643.8 3.3,639.1 1.9,637.9 2.2,636.3 2.1,636.2 4.8,632.2 2.7,630 
		1.8,630.6 1.9,630.1 1.6,629.9 3.2,627.3 2.5,626.5 3.8,624.5 2.1,622.7 2.2,622.5 1.8,622.2 2.8,618.4 2,617.8 4.3,614.1 
		2.7,612.4 2.8,611.8 1.7,611 2.7,608.3 1.9,607.7 3.8,604.9 1.7,602.7 1.7,602.7 1.8,600.9 1.6,600.8 4.5,597.2 2.6,595 1.6,595.5 
		1.6,595.5 0.9,594.9 3.1,591.3 2.4,590.5 3.7,588.4 3,587.7 4.2,584.4 2.7,583.1 3.3,580.2 2.1,579.3 3.1,576.3 1.8,575.3 
		2.5,573.5 2.3,573.3 4.3,568.7 2.7,567.3 3.3,565.3 2.1,564.3 3,562.1 1.5,560.8 1.8,560.2 1,559.4 1.7,556.4 1.4,556.2 3.8,552.5 
		2.7,551.3 4.4,547.9 2.6,546.2 2.9,545.6 2.4,545.1 2.8,545.2 3.2,541.1 3.2,541.1 4.9,536.7 3,535 3.4,533.3 2.9,533 4.7,530.6 
		3.4,529 4.4,527.2 2.3,525.2 1.8,525.5 2.2,524.6 1.9,524.3 2.2,524.4 3.3,520 2.1,519.2 3,516.8 2.5,516.3 4.3,513.4 3,512 
		4.8,508.6 2.7,506.6 2.9,505.6 1.9,504.9 2.8,503.4 2.4,502.9 2.7,502.9 2.9,498.2 2.2,497.8 2.8,495.6 1.7,494.8 2.6,491.8 
		2.5,491.7 4.4,488.2 3,486.8 3.5,485.3 2.4,484.4 4.2,481.2 2.5,479.6 4.8,476.4 2.8,474.3 2.6,474.4 2.9,473.4 1.9,472.7 3.3,469 
		2.5,468.4 4,466.1 2.8,464.8 4.3,461.5 3,460.3 4.3,457.5 2.4,455.7 2.9,454.8 1.8,453.7 3.1,450.4 2,449.4 3.3,446.2 2.7,445.7 
		4.5,441.5 2.7,440 3.9,438 1.9,435.9 1.8,436 1.9,434.1 1.6,433.9 3.3,429.8 2,428.7 3,425.2 1.8,424.2 3.5,420.8 1.9,419.3 
		1.8,417.5 1.6,417.4 3.7,413.1 2.7,412.1 4.4,409.8 3,408.3 3.3,406.7 2,405.7 2.6,403.1 2.2,402.7 4.7,398.9 2.7,396.8 3.2,396 
		2.2,395 3.1,393.2 2.7,392.8 4.4,390.2 3.2,389 4.7,387.3 3.1,385.3 4.5,382.9 3.3,381.7 4.6,380.4 3.2,378.7 3.8,378 2.6,376.5 
		2.8,374.4 2.3,374.1 2.5,372.1 2,371.7 4.3,368.8 2.6,366.8 2.7,366.3 2.5,366.1 3.6,363.6 2.2,362.3 4.3,359.2 2.3,357.1 
		1.8,357.4 1.8,355.9 1.1,355.5 3.6,351.1 2.4,349.9 3.8,347 2.4,345.8 4.4,342.3 2.8,340.7 2.9,340.3 1.7,339.3 2.7,337.2 
		2.2,336.8 4.3,331.7 2.2,329.9 2.1,329.9 1.8,329.3 3.1,325.5 2.6,325 3.7,322.7 2.4,321.6 4.6,318.7 2.7,316.5 2.6,316.6 2.7,316 
		2.6,316 4.1,311.7 2.4,310.3 3.4,307.9 2.9,307.4 4.7,302.7 2.7,301 3.3,299.5 2.2,298.6 3.9,295.7 2.5,294.3 2.9,293.8 2.1,292.9 
		3.2,289.8 1.7,288.5 2.4,286.8 1.7,286.2 3.2,283.9 2.3,283.1 4.5,279.1 2.5,277.1 2.4,277.1 3.2,275.6 2.3,274.7 4,271.4 2,269.4 
		2.1,269 1.4,268.4 3.1,264.7 1.8,263.6 2.2,262.8 1.4,262.2 4.2,258.7 2.8,257 3.8,254.9 3,254.1 4.6,252.2 3.2,250.5 4,249.1 
		3.2,248.3 3.7,244.6 3.3,244.3 4.1,242.3 3,241.3 4.7,237.4 2.6,235.5 2.5,235.6 2,235.2 3.5,233.2 2.3,231.9 4.3,228.3 3.2,227.2 
		4.7,225.5 2.8,223.2 2.6,223.3 2.4,222.4 1.4,222 3.1,218.9 2.6,218.4 4.5,214.4 3,213.1 3.9,210.2 2.2,208.8 2.9,207.4 1.7,206.2 
		2,203.4 2,203.4 3.4,199.1 2.1,198.1 3,196.5 1.9,195.5 3.4,193.1 3,192.6 3.4,189 2,188.1 2.4,186.9 1.5,186.2 3.2,182.2 2,181.1 
		4.1,177.1 2.7,175.8 3.2,174.8 2.3,173.9 4,170.6 2.2,168.9 3.2,166.8 2.2,165.9 4.1,162 2.9,160.9 4.4,158.9 2.5,156.7 1.9,157 
		2.1,156.6 1.4,155.9 2.3,152.3 1.6,151.8 3.8,149.1 2.5,147.6 3.3,145.3 2.1,144.3 3.4,140.7 1.9,139.5 3.2,137.4 1.9,136.2 
		2.5,133.8 1.7,133.2 3.2,131 2.9,130.7 3.9,126.9 2.7,126 2.7,124.8 2.7,124.7 4.4,120.5 3,119.3 3.2,118.7 2.3,117.9 3.5,115.3 
		2.6,114.4 3.5,113.1 2.9,112.4 4.3,108.6 2.8,107.4 3.3,106.4 2.4,105.7 4.2,102.7 2.2,100.6 1.9,100.8 2.1,100.2 1.9,100.1 
		4.4,96.1 3.3,94.9 4.1,93.9 2.5,92 3.1,90.2 2.5,89.7 4.1,87.2 2.1,85 2,85.1 2,85 1.2,84.5 1.9,81.8 1.3,81.4 3.2,77.8 2.5,77.2 
		4.8,73.8 3.1,71.9 3.2,70.5 2.1,69.8 3.4,67.6 2,66.3 2.1,64 1.7,63.7 4.5,59.8 3,58.1 4.6,55.6 3.3,54.2 3.8,52.8 2.3,51.4 
		3.4,48.9 1.8,47.5 2.5,46 1.6,45.1 2.9,42.4 2.3,41.9 2.8,39.6 2.1,39.1 4.1,35 3,34 4.7,30.7 2.6,28.7 2.1,29 1.8,28.2 1.7,28.2 
		4.4,24.3 2.7,22.6 3.3,21.7 2,20.4 2.2,19.4 2,19.3 3.2,16.4 2.7,15.9 3.4,12.8 2,11.7 2.4,8.7 0.2,7.1 -2.1,8.5 -0.9,10.5 
		-1.3,13.2 0,14.1 -0.4,15.9 0,16.2 -1,18.8 -0.8,18.9 -1.4,21.7 -0.6,22.3 -2.4,25.2 -0.9,26.7 -2.3,28.7 -0.4,30.8 -0.1,31.7 
		0.6,32 -0.9,35 0.2,36.1 -1.5,39.5 -0.4,40.5 -0.8,41.9 -0.3,42.2 -2.1,45.8 -1.2,46.7 -2.7,49.6 -1,51.2 -1.9,53.3 -0.2,54.8 
		-0.5,55.7 0.5,56.5 -1.9,60.4 -0.6,61.8 -2.2,64 -0.9,65.4 -1,67.7 -0.3,68.1 -1.9,70.9 0,72.7 -0.1,74.1 0.6,74.5 -1.3,77.4 
		-0.5,78.3 -2.1,81.5 -1.3,82.2 -2.1,85.1 -1.1,85.8 -1.4,87.8 -0.3,88.4 -1.2,89.8 -0.3,90.9 -1.5,94.2 -0.6,94.9 -2,96.6 
		-0.5,98.3 -1,99.1 -0.8,99.4 -2.6,103.7 -0.8,105.3 -1.4,106.2 -0.3,107.2 -1.1,109 0.4,110.4 -0.3,112.4 0.1,112.8 -1.4,115.1 
		-0.3,116.3 -1.4,118.6 -0.4,119.5 -1,120.9 0.5,122.2 -0.3,124.2 0.1,124.7 -0.3,124.7 -0.4,127.3 0.6,127.9 0,130.1 0.1,130.2 
		-2.4,133.9 -1,135.4 -1.5,137.4 -0.7,138.1 -2.7,141.4 -0.7,143.3 -1.5,145.4 -0.3,146.4 -1.2,149.1 -0.5,149.7 -2.7,152.4 
		-1.2,154.1 -1.8,156.2 -1.2,156.6 -2.9,160.1 -1.2,161.6 -1.9,162.5 -0.3,164.3 -1.4,166.6 -0.5,167.5 -2.4,171.4 -0.6,173 
		-1.4,174.6 -0.5,175.4 -1.7,177.5 -0.3,179 -2.1,182.4 -0.7,183.7 -2,186.8 -1,187.7 -1.5,189.5 0.1,190.8 0,192.6 0.1,192.7 
		-2.4,196.6 -1.2,197.8 -2.1,199.5 -0.4,201.2 -0.9,202.7 -0.5,203 -0.9,203 -1.5,207.5 -0.8,208 -2.4,211.1 -0.3,213.1 0,212.9 
		-0.5,214.6 0.7,215.5 -0.5,218.1 -0.1,218.5 -2.7,223.4 -0.6,225.4 -0.1,225.1 0.1,226 0.2,226 -2.8,229.2 -0.9,231.5 -2,233.2 
		-1,234.2 -2,235.7 -0.8,237.1 -1.1,238.1 0.6,239.4 -0.7,242.3 0.4,243.3 0,244.3 0.7,244.9 0.1,248.8 0.6,249.1 -1.3,252.5 
		-0.4,253.3 -2,255.2 -0.6,257 -1.6,258.9 -0.6,259.8 -2.9,262.8 -1.6,264.3 -1.8,264.8 -0.7,265.8 -2,268.7 -1.2,269.5 -2,272.1 
		-0.4,273.4 -1.4,275.3 -0.5,276.2 -2.7,280.4 -0.7,282.3 -1.4,283.5 -0.6,284.3 -1.8,286.4 -1,287.2 -2.3,290.2 -0.7,291.6 
		-1.3,293.2 -0.8,293.7 -2.8,296.5 -1.1,298.3 -1.9,299.6 -0.5,301 -1.6,303.6 0.5,305.4 -0.2,307.3 0.3,307.7 -1.8,312.4 
		0.1,314.1 -0.4,315.4 -0.1,315.7 -0.3,315.7 -0.7,319.2 0.1,319.7 -2.8,323.4 -0.9,325.6 -0.2,325.3 0,325.4 -1.6,329.8 
		-0.7,330.5 -0.9,330.6 0.1,332.7 0.6,332.8 -0.9,336.5 -0.5,336.8 -2.1,340.5 -0.7,341.8 -1,342.7 0.2,343.7 -1.9,347.4 
		-0.4,348.9 -1.4,351.1 -0.4,352.1 -2.6,356.1 -1.2,357.6 -1.1,360 -0.2,360.5 -3,364.4 -1,366.6 -0.3,366.2 -0.7,369 0,369.4 
		-2.2,372.2 -0.7,373.9 -0.8,374.4 -0.3,374.8 -0.6,377.9 -0.2,378.2 -2.6,381.3 -1.5,382.5 -2.8,383.9 -1,386.2 -2,388 -0.9,389.2 
		-2.4,391 -0.5,393.2 -0.2,393 -1.4,395.7 -0.6,396.5 -2.6,400 -0.8,401.8 -1.2,402.6 -0.5,403.3 -1.5,407.2 0,408.3 -0.3,409.8 
		0.3,410.3 -2,413.4 -0.6,415 -1.8,417.4 -1.2,418 -0.9,421.2 -0.2,421.6 -2.2,425.5 -0.6,426.9 -1.5,429.9 -0.4,430.8 -1.6,433.8 
		-1.1,434.2 -1.5,438.6 -0.4,439.3 -2.3,442.5 -0.3,444.6 0,444.5 -0.6,445.7 0.1,446.3 -1.8,450.5 -0.6,451.6 -1.8,454.7 
		-0.9,455.5 -2.5,458.5 -0.5,460.5 -0.4,460.5 -1,461.7 0.4,462.9 -1,466 -0.1,466.9 -1.3,468.8 -0.2,469.9 -1.5,473.4 -0.4,474.3 
		-1.1,477.1 0.1,477.9 -3,482.3 -1,484.5 -1,484.4 -1.5,485.4 -0.1,486.8 -0.5,488.3 0.5,489.1 -0.5,490.8 -0.3,491 -0.3,491 
		-1.7,495.8 -0.6,496.6 -1,498.3 -0.2,499 -0.3,502.8 -0.3,502.8 -2.4,506 -0.6,507.9 -0.8,509.2 0.5,510.2 -1.2,513.6 -0.1,514.7 
		-1.1,516.3 -0.3,517.1 -1.5,520.3 -0.1,521.4 -0.7,523.7 -0.7,523.7 -3.1,528.6 -1,530.6 -0.9,530.5 -1.1,530.8 0,531.9 -0.8,533 
		0.2,534 -0.6,537.3 1,538.5 0.2,540.4 0.7,540.8 0.2,540.8 -0.2,544.9 -0.2,544.9 -2.6,549 -0.6,551 -0.5,551 -1.2,552.4 
		-0.3,553.3 -1.8,555.7 -1.3,556.2 -2.3,559.9 -1.6,560.4 -2.7,562.6 -1,564.2 -1.5,565.4 -0.2,566.5 -1,569.1 0.4,570.2 
		-0.6,572.5 -0.4,572.7 -2,576.6 -0.6,577.9 -1.5,580.5 -0.1,581.7 -0.8,584.8 0.5,585.8 -0.2,587.8 0.3,588.2 -1.3,590.8 
		-0.6,591.6 -3,595.4 -1.8,596.7 -2.2,598.3 -1,599.2 -2.2,600.7 -1.2,601.9 -1.4,605.3 -0.5,605.9 -1.9,608.1 -0.8,609.2 
		-1.8,611.9 -0.6,612.9 -1.1,614.4 0,615.3 -1.9,618.4 -0.7,619.6 -1.2,621.8 -0.9,622.1 -2.4,625.1 -1.1,626.4 -1.3,626.8 
		-0.5,627.6 -1.7,629.5 -1.2,630 -1.7,633.2 -0.2,634.3 -0.9,635.4 -0.7,635.7 -1.5,639.4 -0.3,640.4 -1.2,643.1 -1,643.3 -2.1,646 
		-0.8,647.3 -2.2,650.2 -0.7,651.6 -1.5,654.1 -0.9,654.6 -2.7,657.1 -1.5,658.5 -2.6,660.3 -0.6,662.4 -0.5,662.4 -1.4,664.3 
		0.1,665.6 -0.2,667.4 0,667.5 -1.6,670.5 -0.6,671.5 -2.7,675.3 -1.6,676.4 -1.9,677.5 -0.9,678.3 -1.5,680.5 -0.7,681.1 -3,684.7 
		-1,686.8 0.3,686.1 0.6,686.3 -1.4,689.9 -0.5,690.8 -2.6,694.7 -0.6,696.7 0.1,696.3 0.9,696.9 -1,700.1 0,701.1 -2.2,704.3 
		-1.4,705.1 -1.6,707 -0.1,707.9 -0.4,708.9 0.2,709.3 -2.5,713.4 -0.9,715 -1.7,717.8 -1.2,718.2 -2.9,720.5 -1.2,722.3 
		-1.3,724.1 0.6,725.2 -0.2,727.3 0.4,727.9 -1,729.9 -0.4,730.7 -1,730.7 -0.8,734.5 0,734.9 -1.4,738.1 -0.1,739.2 -1.1,742.6 
		0,743.5 -2.2,746.4 -1.2,747.5 -2.7,750.6 -1.3,751.9 -2.9,754.1 -1.2,756 -1.7,758 -1.1,758.5 -1.1,760.9 -0.8,761.1 -2.7,764.1 
		-0.7,766.1 -1,766.8 0.1,767.7 -0.6,770 -0.3,770.3 -0.6,774.2 0.2,774.7 -2.2,778.2 -0.4,780.1 0.1,782.2 0.4,782.3 -2.3,786 
		-1.1,787.4 -2.7,789.3 -1.1,791.2 -1.3,793.7 -0.2,794.5 -1.4,797 -0.7,797.6 -2.6,801.1 -1,802.7 -1.7,804.7 -0.3,805.9 -1,807.4 
		-0.1,808.2 -1.5,810.3 -1.1,810.7 -1.2,810.7 -1.6,814.5 -0.6,815.2 -1.5,817.1 -0.6,818 -2.8,821.8 -1,823.6 -1.5,825 -0.6,825.7 
		-2,828.2 -0.9,829.3 -1.7,830.6 0,832.4 -0.3,833 -0.1,833.2 -1.2,838.1 -0.6,838.6 -1.5,841.3 -0.4,842.2 -0.8,843.2 0.5,844.4 
		-0.7,846.8 0.1,847.6 -1.7,850.8 -0.8,851.7 -3.1,856.1 -1.6,857.6 -3,860.3 -1,862.2 -1,862.2 0.5,863.6 -0.6,866 0.1,866.6 
		-1.4,869.2 -0.5,870 -2.5,873.6 -0.7,875.4 -1.3,876.4 -0.6,877.3 -2.7,880.8 -0.9,882.6 -1.1,884.4 0.1,885.1 -0.8,886.5 
		0.1,887.4 -1.3,890.7 0.1,891.9 -0.5,893.5 0.4,894.2 -1.4,897.2 -0.5,898 -2.1,901.2 -0.5,902.8 -0.5,902.9 0,903.4 -2.7,907.4 
		-1,909.3 -1.4,910.4 -0.8,911 -1.4,915 -1.1,915.2 -1.2,917.9 -0.6,918.2 -2.5,921.2 -1.3,922.4 -2.5,924.5 -1.5,925.6 -2.5,926.6 
		-0.6,929 -0.1,928.6 0.1,929.3 0.6,929.5 -1.1,932.6 -0.1,933.5 -1.3,935.1 -0.2,936.3 -1.4,939.7 0,940.9 -1,943.6 0.1,944.6 
		-0.2,946.3 0.8,947 1.4,950.5 2.8,951.1 2.7,952.5 4.9,953.8 5.2,953.7 5.4,955 6.5,955.5 5.5,957.8 7.7,959.6 9.2,958.7 
		12.4,959.6 13.6,959.5 18,956.9 16.5,954.3 	"/>
</g>
<g>
	<polygon fill="#FF5748" points="454.8,688.8 454.3,689.1 454,688.3 453.9,688.2 456.6,684.4 455,682.6 455.5,681.8 454.2,680.4 
		454.4,679.5 454.2,679.4 455.4,676.4 454.9,676 455.6,672.8 454.2,671.8 454.6,668.7 452.4,667.2 450.1,668.5 451.3,670.6 
		450.9,673.3 452.2,674.1 451.8,676 452.2,676.3 451.2,678.8 451.4,679 450.8,681.8 451.6,682.3 449.8,685.2 451.3,686.8 
		449.9,688.8 451.8,690.8 452.1,691.8 452.9,692 451.3,695.1 452.2,696 451.2,697.5 453.2,699.6 455.7,698.2 455,697.1 456.3,695.2 
		455.2,694.1 456.9,690.8 	"/>
	<path fill="#FF5748" d="M454.9,7.5l-0.6-1l2.5-1.4l-1.5-2.6l-0.6,0.3l0.2-0.4l-1.2-1.2l0.6-1.2l-2.1-2l-4.8,2.8l0-0.3L445.3-1
		l-2.2,1.3l1.2,2l-0.4,2.7l1.3,0.9l-0.4,1.8l2.2,1.6l0.9-0.5l1.1,0.9l1.7,0.1L454.9,7.5z M449,5.9l-0.7-0.1l0.3-1.2l-0.7-0.5
		l2.2-1.3l0.9,0.8L449.6,6l0.7,0.6l-0.2,0.1L449,5.9z"/>
	
		<rect x="431.6" y="956.1" transform="matrix(0.866 -0.5001 0.5001 0.866 -420.7195 345.1736)" fill="#FF5748" width="4.1" height="3"/>
	
		<rect x="421.5" y="956" transform="matrix(0.866 -0.5001 0.5001 0.866 -422.0453 340.1163)" fill="#FF5748" width="4.1" height="3"/>
	<polygon fill="#FF5748" points="444.5,946.8 446,944.7 444,942.5 439.9,944.9 441,946.7 438.2,950.6 440.2,952.8 447.8,948.4 
		446.3,945.8 	"/>
	<polygon fill="#FF5748" points="15.3,949.1 13.4,947.5 13.5,946.6 11.3,945.1 9.3,946.2 8.4,944.1 6.2,943.5 4.1,944.7 5.6,947.3 
		6.3,946.9 7.2,949 9.4,949.7 10.1,949.2 10,949.8 11.5,950.8 11.2,951.5 13.4,953.3 15.8,951.9 14.9,950.3 	"/>
	<polygon fill="#FF5748" points="258.1,2.4 257.4,1.2 255.8,2.1 254.9,0.4 252.4,1.9 252.2,1.6 249.6,3.1 248.4,1.1 247.3,1.8 
		246.8,1 245.3,1.9 245.2,1.8 245.1,1.8 244.7,1.2 243.6,1.8 243.1,1 241.6,1.9 241.5,1.8 239,3.3 238.3,2.1 237,2.8 236.3,1.5 
		230.7,4.7 232.2,7.3 236.3,5 237,6.3 238.4,5.5 239.1,6.8 240.4,6 240.9,6.8 242.4,6 242.8,6.7 244.1,6 244.6,6.8 247.1,5.4 
		247.6,6.2 250.1,4.8 250.9,6.2 253.4,4.7 254.1,5.9 255.9,4.8 256.2,5.3 257.8,4.4 258.5,5.6 261.2,4.1 259.7,1.5 	"/>
	<polygon fill="#FF5748" points="269.4,2 268.7,0.8 266.8,1.9 266.7,1.8 265.4,2.5 264.6,1.1 261.8,2.8 263.3,5.4 263.8,5.1 
		264.7,6.6 267.5,5 268.2,6.1 270.9,4.5 269.4,1.9 	"/>
	<polygon fill="#FF5748" points="318.9,3.2 317.4,0.6 315.9,1.4 315.2,0.1 312.7,1.6 312.2,0.7 309.7,2.1 309.3,1.4 308,2.2 
		307.2,0.9 305.2,2.1 304.5,0.9 303.8,1.4 303.1,0.2 300.6,1.6 300.4,1.4 297.8,2.9 296.7,1 294.3,2.3 293.7,1.2 291.8,2.3 
		291.3,1.5 289.3,2.7 288.6,1.5 286.5,2.7 285.4,0.7 283.8,1.7 283.7,1.6 283.6,1.7 283,0.7 281.2,1.8 281.1,1.7 279.4,2.7 
		278.6,1.3 276.2,2.7 275.4,1.3 271.8,3.3 273.3,5.9 275.6,4.6 276.4,6 278.2,5 279.1,6.5 280.9,5.5 281.4,6.5 283.9,5.1 284.3,5.7 
		286.6,4.4 287.4,5.7 289.4,4.5 290.1,5.7 291.2,5 291.7,5.8 294.7,4 295.4,5.2 297.9,3.8 299.1,5.9 301.7,4.4 302.4,5.6 305.3,3.9 
		306,5.1 307,4.5 308.1,6.5 310.7,5 311.2,5.9 312.6,5.1 313.4,6.4 315.8,5 316.2,5.6 318.9,4 318.6,3.4 	"/>
	<polygon fill="#FF5748" points="331.7,3.6 330.2,1 329.8,1.2 329.1,0.1 326.4,1.6 326.3,1.6 325.7,2 324.9,0.7 322.6,2 321.9,0.8 
		319.2,2.3 320,3.7 319,4.3 320.5,6.9 324.4,4.6 325.1,5.8 328.3,4 329,5.2 	"/>
	<polygon fill="#FF5748" points="337.6,2 336.8,0.7 334.6,1.9 333.8,0.5 331.1,2.1 332.5,4.4 331,5.2 332.5,7.8 338,4.7 337.4,3.8 
		337.9,3.5 338.7,4.8 341.3,3.3 339.8,0.7 	"/>
	<polygon fill="#FF5748" points="10,7.4 9,5.8 10.1,4.6 8.6,2.8 10.2,1.2 8.4,-1.1 2.2,2.4 2.5,0.5 0.3,-1 -2,0.3 -0.8,2.4 
		-1.2,5.1 0.7,6.4 0.1,7 1.9,9.4 3.6,8.4 5.1,10.3 	"/>
</g>
</svg>
