<?xml version="1.0" encoding="utf-8"?>
<!-- Generator: Adobe Illustrator 25.1.0, SVG Export Plug-In . SVG Version: 6.00 Build 0)  -->
<svg version="1.1" baseProfile="tiny" id="Layer_1" xmlns="http://www.w3.org/2000/svg" xmlns:xlink="http://www.w3.org/1999/xlink"
	 x="0px" y="0px" viewBox="0 0 72 72" overflow="visible" xml:space="preserve">
<g id="Exit_x5F_Button">
	<path fill="#1D1D1B" d="M65.7,3c2,0,3.6,1.6,3.6,3.6v58.8c0,2-1.6,3.6-3.6,3.6H6.9c-2,0-3.6-1.6-3.6-3.6V6.6c0-2,1.6-3.6,3.6-3.6
		H65.7 M65.7,0H6.9C3.3,0,0.3,3,0.3,6.6v58.8c0,3.6,3,6.6,6.6,6.6h58.8c3.6,0,6.6-3,6.6-6.6V6.6C72.3,3,69.4,0,65.7,0L65.7,0z"/>
	<g>
		<g>
			<path d="M42.9,35.4L18.6,11.2c-2.5,0-3.9,0-6.5,0l-1.6,1.6c0,2.5,0,3.9,0,6.5L27.3,36L10.6,52.7c0,2.5,0,3.9,0,6.5l1.6,1.6
				c2.5,0,3.9,0,6.5,0l24.2-24.2l0.6-0.6L42.9,35.4z"/>
		</g>
		<g>
			<path d="M29.8,36.6L54,60.8c2.5,0,3.9,0,6.5,0l1.6-1.6c0-2.5,0-3.9,0-6.5L45.3,36L62,19.3c0-2.5,0-3.9,0-6.5l-1.6-1.6
				c-2.5,0-3.9,0-6.5,0L29.8,35.4L29.2,36L29.8,36.6z"/>
		</g>
	</g>
</g>
</svg>
