<?xml version="1.0" encoding="utf-8"?>
<!-- Generator: Adobe Illustrator 25.1.0, SVG Export Plug-In . SVG Version: 6.00 Build 0)  -->
<svg version="1.1" baseProfile="tiny" id="Layer_1" xmlns="http://www.w3.org/2000/svg" xmlns:xlink="http://www.w3.org/1999/xlink"
	 x="0px" y="0px" viewBox="0 0 1990 33" overflow="visible" xml:space="preserve">
<g>
	<g>
		<polygon points="1960,33 1920.1,33 1950.1,0 1990,0 		"/>
	</g>
	<g>
		<polygon points="1900,33 1860.1,33 1890.1,0 1930,0 		"/>
	</g>
	<g>
		<polygon points="1840,33 1800.1,33 1830.1,0 1870,0 		"/>
	</g>
	<g>
		<polygon points="1780,33 1740.1,33 1770.1,0 1810,0 		"/>
	</g>
	<g>
		<polygon points="1720,33 1680.1,33 1710.1,0 1750,0 		"/>
	</g>
	<g>
		<polygon points="1660,33 1620.1,33 1650.1,0 1690,0 		"/>
	</g>
	<g>
		<polygon points="1600,33 1560.1,33 1590.1,0 1630,0 		"/>
	</g>
	<g>
		<polygon points="1540,33 1500,33 1530,0 1570,0 		"/>
	</g>
	<g>
		<polygon points="1480,33 1440,33 1470,0 1510,0 		"/>
	</g>
	<g>
		<polygon points="1420,33 1380,33 1410,0 1450,0 		"/>
	</g>
	<g>
		<polygon points="1360,33 1320,33 1350,0 1390,0 		"/>
	</g>
	<g>
		<polygon points="1300,33 1260,33 1290,0 1330,0 		"/>
	</g>
	<g>
		<polygon points="1240,33 1200,33 1230,0 1270,0 		"/>
	</g>
	<g>
		<polygon points="1180,33 1140,33 1170,0 1210,0 		"/>
	</g>
	<g>
		<polygon points="1120,33 1080,33 1110,0 1150,0 		"/>
	</g>
	<g>
		<polygon points="1060,33 1020,33 1050,0 1090,0 		"/>
	</g>
	<g>
		<polygon points="1000,33 960,33 990,0 1030,0 		"/>
	</g>
	<g>
		<polygon points="940,33 900,33 930,0 970,0 		"/>
	</g>
	<g>
		<polygon points="880,33 840,33 870,0 910,0 		"/>
	</g>
	<g>
		<polygon points="820,33 780,33 810,0 850,0 		"/>
	</g>
	<g>
		<polygon points="760,33 720,33 750,0 790,0 		"/>
	</g>
	<g>
		<polygon points="700,33 660,33 690,0 730,0 		"/>
	</g>
	<g>
		<polygon points="640,33 600,33 630,0 670,0 		"/>
	</g>
	<g>
		<polygon points="580,33 540,33 570,0 610,0 		"/>
	</g>
	<g>
		<polygon points="520,33 480,33 510,0 550,0 		"/>
	</g>
	<g>
		<polygon points="460,33 420,33 450,0 490,0 		"/>
	</g>
	<g>
		<polygon points="399.9,33 360,33 390,0 429.9,0 		"/>
	</g>
	<g>
		<polygon points="339.9,33 300,33 330,0 369.9,0 		"/>
	</g>
	<g>
		<polygon points="279.9,33 240,33 270,0 309.9,0 		"/>
	</g>
	<g>
		<polygon points="219.9,33 180,33 210,0 249.9,0 		"/>
	</g>
	<g>
		<polygon points="159.9,33 120,33 150,0 189.9,0 		"/>
	</g>
	<g>
		<polygon points="99.9,33 60,33 90,0 129.9,0 		"/>
	</g>
	<g>
		<polygon points="39.9,33 0,33 30,0 69.9,0 		"/>
	</g>
</g>
</svg>
