<?xml version="1.0" encoding="utf-8"?>
<!-- Generator: Adobe Illustrator 26.0.1, SVG Export Plug-In . SVG Version: 6.00 Build 0)  -->
<svg version="1.1" baseProfile="tiny" id="GREEBLKES"
	 xmlns="http://www.w3.org/2000/svg" xmlns:xlink="http://www.w3.org/1999/xlink" x="0px" y="0px" width="1920px" height="1080px"
	 viewBox="0 0 1920 1080" overflow="visible" xml:space="preserve">
<g id="frame" transform="translate(1 -101)">
	<g id="Path_148">
		<path fill="#080D1D" d="M55.5,181h1807c5,0,9,4,9,9v917c0,5-4,9-9,9l0,0H55.5c-5,0-9-4-9-9l0,0V190C46.5,185.1,50.5,181,55.5,181"
			/>
	</g>
	<g id="Path_149">
		<path fill="#192754" d="M1862.5,1117H55.5c-5.5,0-10-4.5-10-10V190c0-5.5,4.5-10,10-10h1807c5.5,0,10,4.5,10,10v917
			C1872.5,1112.5,1868,1117,1862.5,1117z M55.5,182c-4.4,0-8,3.6-8,8v917c0,4.4,3.6,8,8,8h1807c4.4,0,8-3.6,8-8V190c0-4.4-3.6-8-8-8
			H55.5z"/>
	</g>
</g>
</svg>
