<?xml version="1.0" encoding="utf-8"?>
<!-- Generator: Adobe Illustrator 25.0.0, SVG Export Plug-In . SVG Version: 6.00 Build 0)  -->
<svg version="1.1" baseProfile="tiny" id="Layer_2" xmlns="http://www.w3.org/2000/svg" xmlns:xlink="http://www.w3.org/1999/xlink"
	 x="0px" y="0px" width="280px" height="72px" viewBox="0 0 280 72" overflow="visible" xml:space="preserve">
<rect x="50.729" y="20.519" width="44.948" height="2.5"/>
<polygon points="268.978,38.428 254.507,23.019 224.298,23.019 224.298,20.519 255.589,20.519 270.8,36.717 "/>
<path d="M272.636,61.539c0-1.682,1.361-3.043,2.964-3.043l0,0c1.682,0,3.042,1.361,3.042,3.043l0,0c0,1.603-1.361,2.964-3.042,2.964
	l0,0C273.997,64.503,272.636,63.142,272.636,61.539z"/>
<path d="M247.125,61.539c0-1.682,1.361-3.043,3.043-3.043l0,0c1.603,0,2.964,1.361,2.964,3.043l0,0c0,1.603-1.361,2.964-2.964,2.964
	l0,0C248.486,64.503,247.125,63.142,247.125,61.539z"/>
<path d="M221.615,61.539c0-1.682,1.361-3.043,2.964-3.043l0,0c1.682,0,3.043,1.361,3.043,3.043l0,0c0,1.603-1.361,2.964-3.043,2.964
	l0,0C222.976,64.503,221.615,63.142,221.615,61.539z"/>
<path d="M196.104,61.539c0-1.682,1.361-3.043,3.043-3.043l0,0c1.603,0,2.964,1.361,2.964,3.043l0,0c0,1.603-1.361,2.964-2.964,2.964
	l0,0C197.465,64.503,196.104,63.142,196.104,61.539z"/>
<path d="M170.593,61.539c0-1.682,1.365-3.043,2.964-3.043l0,0c1.682,0,3.043,1.361,3.043,3.043l0,0c0,1.603-1.361,2.964-3.043,2.964
	l0,0C171.958,64.503,170.593,63.142,170.593,61.539z"/>
<path d="M145.082,61.539c0-1.682,1.365-3.043,3.046-3.043l0,0c1.599,0,2.96,1.361,2.96,3.043l0,0c0,1.603-1.361,2.964-2.96,2.964
	l0,0C146.447,64.503,145.082,63.142,145.082,61.539z"/>
<path d="M119.572,61.539c0-1.682,1.365-3.043,2.964-3.043l0,0c1.682,0,3.043,1.361,3.043,3.043l0,0c0,1.603-1.361,2.964-3.043,2.964
	l0,0C120.937,64.503,119.572,63.142,119.572,61.539z"/>
<path d="M94.061,61.539c0-1.682,1.365-3.043,3.046-3.043l0,0c1.599,0,2.96,1.361,2.96,3.043l0,0c0,1.603-1.361,2.964-2.96,2.964l0,0
	C95.426,64.503,94.061,63.142,94.061,61.539z"/>
</svg>
