<?xml version="1.0" encoding="utf-8"?>
<!-- Generator: Adobe Illustrator 27.8.0, SVG Export Plug-In . SVG Version: 6.00 Build 0)  -->
<svg version="1.1" baseProfile="tiny" id="Layer_1" xmlns="http://www.w3.org/2000/svg" xmlns:xlink="http://www.w3.org/1999/xlink"
	 x="0px" y="0px" viewBox="0 0 257.4 59.3" overflow="visible" xml:space="preserve">
<polygon id="opacity:28_00000129203535483364566730000000191027343634167698_" fill="#34A1B8" points="28.7,51.8 16.8,51.8 
	0.5,27.5 0.5,9.7 "/>
<polygon id="opacity:28_00000122720984692980834490000001840366314754524054_" fill="#34A1B8" points="51,51.8 39,51.8 9.3,7.5 
	21.3,7.5 "/>
<polygon id="opacity:28_00000020356835645790001030000000440193449334091653_" fill="#34A1B8" points="73.2,51.8 61.2,51.8 
	31.5,7.5 43.5,7.5 "/>
<polygon id="opacity:28_00000098902633496565471360000014412572617954966455_" fill="#34A1B8" points="95.5,51.8 83.5,51.8 
	53.8,7.5 65.8,7.5 "/>
<polygon id="opacity:28_00000010294710751595900960000008792177942456829096_" fill="#34A1B8" points="117.7,51.8 105.7,51.8 
	76,7.5 88,7.5 "/>
<polygon id="opacity:28_00000008852800483418512040000008398102000288984459_" fill="#34A1B8" points="139.9,51.8 128,51.8 
	98.3,7.5 110.2,7.5 "/>
<polygon id="opacity:28_00000126289779683658340550000009670145610646563476_" fill="#34A1B8" points="162.2,51.8 150.2,51.8 
	120.5,7.5 132.5,7.5 "/>
<polygon id="opacity:28_00000070834855717536610670000011284843647592575125_" fill="#34A1B8" points="184.4,51.8 172.5,51.8 
	142.8,7.5 154.7,7.5 "/>
<polygon id="opacity:28_00000162342758043986379760000005661376145779913916_" fill="#34A1B8" points="206.7,51.8 194.7,51.8 
	165,7.5 177,7.5 "/>
<polygon id="opacity:28_00000016062787657943286260000008089585385841527190_" fill="#34A1B8" points="228.9,51.8 217,51.8 
	187.3,7.5 199.2,7.5 "/>
<polygon id="opacity:28_00000011001279246139612000000018292868024269510070_" fill="#34A1B8" points="251.2,51.8 239.2,51.8 
	209.5,7.5 221.5,7.5 "/>
<polygon id="opacity:28_00000049921463653915828760000011324996389870209423_" fill="#34A1B8" points="256.9,27.2 256.9,45.1 
	231.7,7.5 243.7,7.5 "/>
<polygon id="opacity:28_00000071518516001105816250000011886572707450445459_" fill="#34A1B8" points="256.9,7.5 256.9,11.9 
	254,7.5 "/>
<polygon id="opacity:28" fill="#34A1B8" points="0.5,51.8 0.5,43.2 6.3,51.8 "/>
<line id="opacity:50" fill="none" stroke="#6CB8C7" stroke-linecap="round" stroke-miterlimit="10" x1="11.9" y1="0.5" x2="245.6" y2="0.5"/>
<line id="opacity:50_00000066494583628018643700000001087930952205184703_" fill="none" stroke="#6CB8C7" stroke-linecap="round" stroke-miterlimit="10" x1="11.9" y1="58.8" x2="245.6" y2="58.8"/>
<line id="opacity:90_00000146494459558314295110000009364852644897705890_" fill="none" stroke="#B5F4FF" stroke-linecap="round" stroke-miterlimit="10" x1="6.3" y1="0.5" x2="0.5" y2="0.5"/>
<line id="opacity:90_00000183933835645084852100000000080248814305645975_" fill="none" stroke="#B5F4FF" stroke-linecap="round" stroke-miterlimit="10" x1="256.9" y1="58.8" x2="251.1" y2="58.8"/>
<line id="opacity:90_00000124862456291330342880000001743161691290189445_" fill="none" stroke="#B5F4FF" stroke-linecap="round" stroke-miterlimit="10" x1="6.3" y1="58.8" x2="0.5" y2="58.8"/>
<line id="opacity:90" fill="none" stroke="#B5F4FF" stroke-linecap="round" stroke-miterlimit="10" x1="256.9" y1="0.5" x2="251.1" y2="0.5"/>
</svg>
