<?xml version="1.0" encoding="utf-8"?>
<!-- Generator: Adobe Illustrator 28.5.0, SVG Export Plug-In . SVG Version: 9.03 Build 54727)  -->
<svg version="1.1" baseProfile="tiny" id="Layer_1" xmlns="http://www.w3.org/2000/svg" xmlns:xlink="http://www.w3.org/1999/xlink"
	 x="0px" y="0px" width="1381.9px" height="219.1px" viewBox="0 0 1381.9 219.1" overflow="visible" xml:space="preserve">
<path id="colorstyle:Moderate_opacity:95" fill="#F8ED6E" d="M1365.7,60.6c-1.2-1.3-1.9-3-1.9-4.8V14.9c0-6-4.9-10.9-10.9-10.9H29
	c-6,0-10.9,4.9-10.9,10.9v40.9c0,1.8-0.7,3.5-1.9,4.8L4.8,73.4C4.3,74.1,4,74.8,4,75.6v67.8c0,0.8,0.3,1.5,0.8,2.1l11.4,12.8
	c1.2,1.4,1.8,3.1,1.8,4.8v41c0,6,4.9,10.9,10.9,10.9h1324c6,0,10.9-4.9,10.9-10.9v-41c0-1.7,0.7-3.5,1.8-4.8l11.4-12.8
	c0.5-0.6,0.8-1.3,0.8-2.1V75.6c0-0.8-0.3-1.6-0.8-2.2L1365.7,60.6z"/>
<path id="colorstyle:Bright__opacity:95" fill="#FFFFFF" d="M1380.1,70.8l-11.4-12.8c-0.5-0.6-0.8-1.3-0.8-2.1V14.9
	c0-8.2-6.7-14.9-14.9-14.9H29c-8.2,0-14.9,6.7-14.9,14.9v40.9c0,0.8-0.3,1.5-0.8,2.1L1.8,70.8C0.6,72.2,0,73.9,0,75.6v67.8
	c0,1.7,0.6,3.4,1.8,4.8l11.4,12.8c0.5,0.6,0.8,1.4,0.8,2.2v41c0,8.2,6.7,14.9,14.9,14.9h1324c8.2,0,14.9-6.7,14.9-14.9v-41
	c0-0.8,0.3-1.5,0.8-2.2l11.4-12.8c1.2-1.3,1.8-3,1.8-4.8V75.6C1381.9,73.9,1381.3,72.2,1380.1,70.8z M1377.9,143.4
	c0,0.8-0.3,1.5-0.8,2.1l-11.4,12.8c-1.2,1.4-1.8,3.1-1.8,4.8v41c0,6-4.9,10.9-10.9,10.9H29c-6,0-10.9-4.9-10.9-10.9v-41
	c0-1.7-0.7-3.5-1.8-4.8L4.8,145.6C4.3,145,4,144.2,4,143.4V75.6c0-0.8,0.3-1.6,0.8-2.2l11.4-12.8c1.2-1.3,1.9-3,1.9-4.8V14.9
	C18.1,8.9,22.9,4,29,4h1324c6,0,10.9,4.9,10.9,10.9v40.9c0,1.8,0.7,3.5,1.9,4.8l11.4,12.8c0.5,0.6,0.8,1.4,0.8,2.2V143.4z"/>
<g id="colorstyle:Background">
	<polygon fill="#1D1D1B" points="85.7,201 114,201 135.3,179.7 135.3,151.4 	"/>
	<polygon fill="#1D1D1B" points="62.1,16.9 33.8,16.9 32.3,18.4 32.3,46.7 	"/>
	<polygon fill="#1D1D1B" points="32.3,136.4 32.3,164.7 135.3,61.7 135.3,33.4 	"/>
	<polygon fill="#1D1D1B" points="32.3,195.4 32.3,201 55,201 135.3,120.7 135.3,92.4 	"/>
	<polygon fill="#1D1D1B" points="32.3,77.4 32.3,105.7 121.1,16.9 92.8,16.9 	"/>
</g>
<g id="colorstyle:Background_00000157272377225148005700000017466784959103291008_">
	<polygon fill="#1D1D1B" points="1297,201 1325.3,201 1346.5,179.7 1346.5,151.4 	"/>
	<polygon fill="#1D1D1B" points="1273.4,16.9 1245.1,16.9 1243.5,18.4 1243.5,46.7 	"/>
	<polygon fill="#1D1D1B" points="1243.5,136.4 1243.5,164.7 1346.5,61.7 1346.5,33.4 	"/>
	<polygon fill="#1D1D1B" points="1243.5,195.4 1243.5,201 1266.3,201 1346.5,120.7 1346.5,92.4 	"/>
	<polygon fill="#1D1D1B" points="1243.5,77.4 1243.5,105.7 1332.4,16.9 1304.1,16.9 	"/>
</g>
</svg>
