<?xml version="1.0" encoding="utf-8"?>
<!-- Generator: Adobe Illustrator 27.8.0, SVG Export Plug-In . SVG Version: 6.00 Build 0)  -->
<svg version="1.1" baseProfile="tiny" id="Layer_1" xmlns="http://www.w3.org/2000/svg" xmlns:xlink="http://www.w3.org/1999/xlink"
	 x="0px" y="0px" viewBox="0 0 9.6 21.1" overflow="visible" xml:space="preserve">
<path fill="none" stroke="#355D69" stroke-linecap="round" stroke-miterlimit="10" d="M5.7,19.6L5.7,19.6c1.3,0,2.4-1.1,2.4-2.4V4
	c0-1.3-1.1-2.4-2.4-2.4l0,0"/>
<path fill="none" stroke="#3C474A" stroke-width="0.5" stroke-linecap="round" stroke-miterlimit="10" d="M5.7,20.9L5.7,20.9
	c2,0,3.7-1.6,3.7-3.7V3.9c0-2-1.6-3.7-3.7-3.7l0,0"/>
<path fill="none" stroke="#355D69" stroke-linecap="round" stroke-miterlimit="10" d="M3.9,19.6L3.9,19.6c-1.3,0-2.4-1.1-2.4-2.4V4
	c0-1.3,1.1-2.4,2.4-2.4l0,0"/>
<path fill="none" stroke="#3C474A" stroke-width="0.5" stroke-linecap="round" stroke-miterlimit="10" d="M3.9,20.9L3.9,20.9
	c-2,0-3.7-1.6-3.7-3.7V3.9c0-2,1.6-3.7,3.7-3.7l0,0"/>
</svg>
