<?xml version="1.0" encoding="utf-8"?>
<!-- Generator: Adobe Illustrator 27.8.0, SVG Export Plug-In . SVG Version: 6.00 Build 0)  -->
<svg version="1.1" baseProfile="tiny" id="Layer_1" xmlns="http://www.w3.org/2000/svg" xmlns:xlink="http://www.w3.org/1999/xlink"
	 x="0px" y="0px" viewBox="0 0 7.3 236.6" overflow="visible" xml:space="preserve">
<path fill="#DDF0F4" d="M0.7,233.3L0.7,233.3c-0.4,0-0.7-0.3-0.7-0.7l0,0c0-0.4,0.3-0.7,0.7-0.7l0,0c0.4,0,0.7,0.3,0.7,0.7
	C1.4,233,1.1,233.3,0.7,233.3z"/>
<path fill="#6CB8C7" d="M0.7,188.2L0.7,188.2c-0.4,0-0.7-0.3-0.7-0.7l0,0c0-0.4,0.3-0.7,0.7-0.7l0,0c0.4,0,0.7,0.3,0.7,0.7
	C1.4,187.9,1.1,188.2,0.7,188.2z"/>
<path fill="#6CB8C7" d="M0.7,181.8L0.7,181.8c-0.4,0-0.7-0.3-0.7-0.7l0,0c0-0.4,0.3-0.7,0.7-0.7l0,0c0.4,0,0.7,0.3,0.7,0.7
	C1.4,181.5,1.1,181.8,0.7,181.8z"/>
<path fill="#6CB8C7" d="M0.7,175.3L0.7,175.3c-0.4,0-0.7-0.3-0.7-0.7l0,0c0-0.4,0.3-0.7,0.7-0.7l0,0c0.4,0,0.7,0.3,0.7,0.7
	C1.4,175,1.1,175.3,0.7,175.3z"/>
<path fill="#6CB8C7" d="M0.7,168.9L0.7,168.9c-0.4,0-0.7-0.3-0.7-0.7l0,0c0-0.4,0.3-0.7,0.7-0.7l0,0c0.4,0,0.7,0.3,0.7,0.7
	C1.4,168.6,1.1,168.9,0.7,168.9z"/>
<path fill="#6CB8C7" d="M0.7,226.9L0.7,226.9c-0.4,0-0.7-0.3-0.7-0.7l0,0c0-0.4,0.3-0.7,0.7-0.7l0,0c0.4,0,0.7,0.3,0.7,0.7
	C1.4,226.6,1.1,226.9,0.7,226.9z"/>
<path fill="#6CB8C7" d="M0.7,214L0.7,214c-0.4,0-0.7-0.3-0.7-0.7l0,0c0-0.4,0.3-0.7,0.7-0.7l0,0c0.4,0,0.7,0.3,0.7,0.7
	C1.4,213.7,1.1,214,0.7,214z"/>
<path fill="#6CB8C7" d="M0.7,201.1L0.7,201.1c-0.4,0-0.7-0.3-0.7-0.7l0,0c0-0.4,0.3-0.7,0.7-0.7l0,0c0.4,0,0.7,0.3,0.7,0.7
	C1.4,200.8,1.1,201.1,0.7,201.1z"/>
<path fill="#6CB8C7" d="M0.7,220.4L0.7,220.4c-0.4,0-0.7-0.3-0.7-0.7l0,0c0-0.4,0.3-0.7,0.7-0.7l0,0c0.4,0,0.7,0.3,0.7,0.7
	C1.4,220.1,1.1,220.4,0.7,220.4z"/>
<path fill="#6CB8C7" d="M0.7,207.6L0.7,207.6c-0.4,0-0.7-0.3-0.7-0.7l0,0c0-0.4,0.3-0.7,0.7-0.7l0,0c0.4,0,0.7,0.3,0.7,0.7
	C1.4,207.2,1.1,207.6,0.7,207.6z"/>
<path fill="#6CB8C7" d="M0.7,194.7L0.7,194.7c-0.4,0-0.7-0.3-0.7-0.7l0,0c0-0.4,0.3-0.7,0.7-0.7l0,0c0.4,0,0.7,0.3,0.7,0.7
	C1.4,194.4,1.1,194.7,0.7,194.7z"/>
<path fill="#6CB8C7" d="M0.7,162.5L0.7,162.5c-0.4,0-0.7-0.3-0.7-0.7l0,0c0-0.4,0.3-0.7,0.7-0.7l0,0c0.4,0,0.7,0.3,0.7,0.7
	C1.4,162.2,1.1,162.5,0.7,162.5z"/>
<path fill="#6CB8C7" d="M0.7,156L0.7,156c-0.4,0-0.7-0.3-0.7-0.7l0,0c0-0.4,0.3-0.7,0.7-0.7l0,0c0.4,0,0.7,0.3,0.7,0.7
	C1.4,155.7,1.1,156,0.7,156z"/>
<path fill="#6CB8C7" d="M0.7,149.6L0.7,149.6c-0.4,0-0.7-0.3-0.7-0.7l0,0c0-0.4,0.3-0.7,0.7-0.7l0,0c0.4,0,0.7,0.3,0.7,0.7
	C1.4,149.3,1.1,149.6,0.7,149.6z"/>
<path fill="#6CB8C7" d="M0.7,143.1L0.7,143.1c-0.4,0-0.7-0.3-0.7-0.7l0,0c0-0.4,0.3-0.7,0.7-0.7l0,0c0.4,0,0.7,0.3,0.7,0.7
	C1.4,142.8,1.1,143.1,0.7,143.1z"/>
<path fill="#6CB8C7" d="M0.7,136.7L0.7,136.7c-0.4,0-0.7-0.3-0.7-0.7l0,0c0-0.4,0.3-0.7,0.7-0.7l0,0c0.4,0,0.7,0.3,0.7,0.7
	C1.4,136.4,1.1,136.7,0.7,136.7z"/>
<path fill="#6CB8C7" d="M0.7,130.3L0.7,130.3c-0.4,0-0.7-0.3-0.7-0.7l0,0c0-0.4,0.3-0.7,0.7-0.7l0,0c0.4,0,0.7,0.3,0.7,0.7
	C1.4,129.9,1.1,130.3,0.7,130.3z"/>
<path fill="#6CB8C7" d="M0.7,123.8L0.7,123.8c-0.4,0-0.7-0.3-0.7-0.7l0,0c0-0.4,0.3-0.7,0.7-0.7l0,0c0.4,0,0.7,0.3,0.7,0.7
	C1.4,123.5,1.1,123.8,0.7,123.8z"/>
<path fill="#6CB8C7" d="M0.7,117.4L0.7,117.4c-0.4,0-0.7-0.3-0.7-0.7l0,0c0-0.4,0.3-0.7,0.7-0.7l0,0c0.4,0,0.7,0.3,0.7,0.7
	C1.4,117,1.1,117.4,0.7,117.4z"/>
<path fill="#6CB8C7" d="M0.7,104.5L0.7,104.5c-0.4,0-0.7-0.3-0.7-0.7l0,0c0-0.4,0.3-0.7,0.7-0.7l0,0c0.4,0,0.7,0.3,0.7,0.7
	C1.4,104.2,1.1,104.5,0.7,104.5z"/>
<path fill="#6CB8C7" d="M0.7,91.6L0.7,91.6c-0.4,0-0.7-0.3-0.7-0.7l0,0c0-0.4,0.3-0.7,0.7-0.7l0,0c0.4,0,0.7,0.3,0.7,0.7
	C1.4,91.3,1.1,91.6,0.7,91.6z"/>
<path fill="#6CB8C7" d="M0.7,78.7L0.7,78.7C0.3,78.7,0,78.4,0,78l0,0c0-0.4,0.3-0.7,0.7-0.7l0,0c0.4,0,0.7,0.3,0.7,0.7
	C1.4,78.4,1.1,78.7,0.7,78.7z"/>
<path fill="#6CB8C7" d="M0.7,65.8L0.7,65.8c-0.4,0-0.7-0.3-0.7-0.7l0,0c0-0.4,0.3-0.7,0.7-0.7l0,0c0.4,0,0.7,0.3,0.7,0.7
	C1.4,65.5,1.1,65.8,0.7,65.8z"/>
<path fill="#6CB8C7" d="M0.7,59.4L0.7,59.4c-0.4,0-0.7-0.3-0.7-0.7l0,0C0,58.3,0.3,58,0.7,58l0,0c0.4,0,0.7,0.3,0.7,0.7
	C1.4,59.1,1.1,59.4,0.7,59.4z"/>
<path fill="#6CB8C7" d="M0.7,85.2L0.7,85.2c-0.4,0-0.7-0.3-0.7-0.7l0,0c0-0.4,0.3-0.7,0.7-0.7l0,0c0.4,0,0.7,0.3,0.7,0.7
	C1.4,84.9,1.1,85.2,0.7,85.2z"/>
<path fill="#6CB8C7" d="M0.7,72.3L0.7,72.3C0.3,72.3,0,72,0,71.6l0,0c0-0.4,0.3-0.7,0.7-0.7l0,0c0.4,0,0.7,0.3,0.7,0.7
	C1.4,72,1.1,72.3,0.7,72.3z"/>
<path fill="#6CB8C7" d="M0.7,110.9L0.7,110.9c-0.4,0-0.7-0.3-0.7-0.7l0,0c0-0.4,0.3-0.7,0.7-0.7l0,0c0.4,0,0.7,0.3,0.7,0.7
	C1.4,110.6,1.1,110.9,0.7,110.9z"/>
<path fill="#6CB8C7" d="M0.7,98L0.7,98C0.3,98,0,97.7,0,97.4l0,0c0-0.4,0.3-0.7,0.7-0.7l0,0c0.4,0,0.7,0.3,0.7,0.7
	C1.4,97.7,1.1,98,0.7,98z"/>
<path fill="#6CB8C7" d="M0.7,52.9L0.7,52.9c-0.4,0-0.7-0.3-0.7-0.7l0,0c0-0.4,0.3-0.7,0.7-0.7l0,0c0.4,0,0.7,0.3,0.7,0.7
	C1.4,52.6,1.1,52.9,0.7,52.9z"/>
<path fill="#6CB8C7" d="M0.7,46.5L0.7,46.5c-0.4,0-0.7-0.3-0.7-0.7l0,0c0-0.4,0.3-0.7,0.7-0.7l0,0c0.4,0,0.7,0.3,0.7,0.7
	C1.4,46.2,1.1,46.5,0.7,46.5z"/>
<path fill="#6CB8C7" d="M0.7,40.1L0.7,40.1c-0.4,0-0.7-0.3-0.7-0.7l0,0c0-0.4,0.3-0.7,0.7-0.7l0,0c0.4,0,0.7,0.3,0.7,0.7
	C1.4,39.8,1.1,40.1,0.7,40.1z"/>
<path fill="#DB193B" d="M0.7,33.6L0.7,33.6c-0.4,0-0.7-0.3-0.7-0.7l0,0c0-0.4,0.3-0.7,0.7-0.7l0,0c0.4,0,0.7,0.3,0.7,0.7
	C1.4,33.3,1.1,33.6,0.7,33.6z"/>
<path fill="#DB193B" d="M0.7,27.2L0.7,27.2c-0.4,0-0.7-0.3-0.7-0.7l0,0c0-0.4,0.3-0.7,0.7-0.7l0,0c0.4,0,0.7,0.3,0.7,0.7
	C1.4,26.9,1.1,27.2,0.7,27.2z"/>
<path fill="#DB193B" d="M0.7,20.7L0.7,20.7c-0.4,0-0.7-0.3-0.7-0.7l0,0c0-0.4,0.3-0.7,0.7-0.7l0,0c0.4,0,0.7,0.3,0.7,0.7
	C1.4,20.4,1.1,20.7,0.7,20.7z"/>
<path fill="#DB193B" d="M0.7,14.3L0.7,14.3C0.3,14.3,0,14,0,13.6l0,0c0-0.4,0.3-0.7,0.7-0.7l0,0c0.4,0,0.7,0.3,0.7,0.7
	C1.4,14,1.1,14.3,0.7,14.3z"/>
<path fill="#DB193B" d="M0.7,7.9L0.7,7.9C0.3,7.9,0,7.5,0,7.1l0,0c0-0.4,0.3-0.7,0.7-0.7l0,0c0.4,0,0.7,0.3,0.7,0.7
	C1.4,7.5,1.1,7.9,0.7,7.9z"/>
<path fill="#DDF0F4" d="M0.7,1.4L0.7,1.4C0.3,1.4,0,1.1,0,0.7l0,0C0,0.3,0.3,0,0.7,0l0,0c0.4,0,0.7,0.3,0.7,0.7
	C1.4,1.1,1.1,1.4,0.7,1.4z"/>
<path fill="#DDF0F4" d="M6.6,233.3L6.6,233.3c-0.4,0-0.7-0.3-0.7-0.7l0,0c0-0.4,0.3-0.7,0.7-0.7l0,0c0.4,0,0.7,0.3,0.7,0.7
	C7.3,233,7,233.3,6.6,233.3z"/>
<path fill="#6CB8C7" d="M6.6,188.2L6.6,188.2c-0.4,0-0.7-0.3-0.7-0.7l0,0c0-0.4,0.3-0.7,0.7-0.7l0,0c0.4,0,0.7,0.3,0.7,0.7
	C7.3,187.9,7,188.2,6.6,188.2z"/>
<path fill="#6CB8C7" d="M6.6,181.8L6.6,181.8c-0.4,0-0.7-0.3-0.7-0.7l0,0c0-0.4,0.3-0.7,0.7-0.7l0,0c0.4,0,0.7,0.3,0.7,0.7
	C7.3,181.5,7,181.8,6.6,181.8z"/>
<path fill="#6CB8C7" d="M6.6,175.3L6.6,175.3c-0.4,0-0.7-0.3-0.7-0.7l0,0c0-0.4,0.3-0.7,0.7-0.7l0,0c0.4,0,0.7,0.3,0.7,0.7
	C7.3,175,7,175.3,6.6,175.3z"/>
<path fill="#6CB8C7" d="M6.6,168.9L6.6,168.9c-0.4,0-0.7-0.3-0.7-0.7l0,0c0-0.4,0.3-0.7,0.7-0.7l0,0c0.4,0,0.7,0.3,0.7,0.7
	C7.3,168.6,7,168.9,6.6,168.9z"/>
<path fill="#6CB8C7" d="M6.6,226.9L6.6,226.9c-0.4,0-0.7-0.3-0.7-0.7l0,0c0-0.4,0.3-0.7,0.7-0.7l0,0c0.4,0,0.7,0.3,0.7,0.7
	C7.3,226.6,7,226.9,6.6,226.9z"/>
<path fill="#6CB8C7" d="M6.6,214L6.6,214c-0.4,0-0.7-0.3-0.7-0.7l0,0c0-0.4,0.3-0.7,0.7-0.7l0,0c0.4,0,0.7,0.3,0.7,0.7
	C7.3,213.7,7,214,6.6,214z"/>
<path fill="#6CB8C7" d="M6.6,201.1L6.6,201.1c-0.4,0-0.7-0.3-0.7-0.7l0,0c0-0.4,0.3-0.7,0.7-0.7l0,0c0.4,0,0.7,0.3,0.7,0.7
	C7.3,200.8,7,201.1,6.6,201.1z"/>
<path fill="#6CB8C7" d="M6.6,220.4L6.6,220.4c-0.4,0-0.7-0.3-0.7-0.7l0,0c0-0.4,0.3-0.7,0.7-0.7l0,0c0.4,0,0.7,0.3,0.7,0.7
	C7.3,220.1,7,220.4,6.6,220.4z"/>
<path fill="#6CB8C7" d="M6.6,207.6L6.6,207.6c-0.4,0-0.7-0.3-0.7-0.7l0,0c0-0.4,0.3-0.7,0.7-0.7l0,0c0.4,0,0.7,0.3,0.7,0.7
	C7.3,207.2,7,207.6,6.6,207.6z"/>
<path fill="#6CB8C7" d="M6.6,194.7L6.6,194.7c-0.4,0-0.7-0.3-0.7-0.7l0,0c0-0.4,0.3-0.7,0.7-0.7l0,0c0.4,0,0.7,0.3,0.7,0.7
	C7.3,194.4,7,194.7,6.6,194.7z"/>
<path fill="#6CB8C7" d="M6.6,162.5L6.6,162.5c-0.4,0-0.7-0.3-0.7-0.7l0,0c0-0.4,0.3-0.7,0.7-0.7l0,0c0.4,0,0.7,0.3,0.7,0.7
	C7.3,162.2,7,162.5,6.6,162.5z"/>
<path fill="#6CB8C7" d="M6.6,156L6.6,156c-0.4,0-0.7-0.3-0.7-0.7l0,0c0-0.4,0.3-0.7,0.7-0.7l0,0c0.4,0,0.7,0.3,0.7,0.7
	C7.3,155.7,7,156,6.6,156z"/>
<path fill="#6CB8C7" d="M6.6,149.6L6.6,149.6c-0.4,0-0.7-0.3-0.7-0.7l0,0c0-0.4,0.3-0.7,0.7-0.7l0,0c0.4,0,0.7,0.3,0.7,0.7
	C7.3,149.3,7,149.6,6.6,149.6z"/>
<path fill="#6CB8C7" d="M6.6,143.1L6.6,143.1c-0.4,0-0.7-0.3-0.7-0.7l0,0c0-0.4,0.3-0.7,0.7-0.7l0,0c0.4,0,0.7,0.3,0.7,0.7
	C7.3,142.8,7,143.1,6.6,143.1z"/>
<path fill="#6CB8C7" d="M6.6,136.7L6.6,136.7c-0.4,0-0.7-0.3-0.7-0.7l0,0c0-0.4,0.3-0.7,0.7-0.7l0,0c0.4,0,0.7,0.3,0.7,0.7
	C7.3,136.4,7,136.7,6.6,136.7z"/>
<path fill="#6CB8C7" d="M6.6,130.3L6.6,130.3c-0.4,0-0.7-0.3-0.7-0.7l0,0c0-0.4,0.3-0.7,0.7-0.7l0,0c0.4,0,0.7,0.3,0.7,0.7
	C7.3,129.9,7,130.3,6.6,130.3z"/>
<path fill="#6CB8C7" d="M6.6,123.8L6.6,123.8c-0.4,0-0.7-0.3-0.7-0.7l0,0c0-0.4,0.3-0.7,0.7-0.7l0,0c0.4,0,0.7,0.3,0.7,0.7
	C7.3,123.5,7,123.8,6.6,123.8z"/>
<path fill="#6CB8C7" d="M6.6,117.4L6.6,117.4c-0.4,0-0.7-0.3-0.7-0.7l0,0c0-0.4,0.3-0.7,0.7-0.7l0,0c0.4,0,0.7,0.3,0.7,0.7
	C7.3,117,7,117.4,6.6,117.4z"/>
<path fill="#6CB8C7" d="M6.6,104.5L6.6,104.5c-0.4,0-0.7-0.3-0.7-0.7l0,0c0-0.4,0.3-0.7,0.7-0.7l0,0c0.4,0,0.7,0.3,0.7,0.7
	C7.3,104.2,7,104.5,6.6,104.5z"/>
<path fill="#6CB8C7" d="M6.6,91.6L6.6,91.6c-0.4,0-0.7-0.3-0.7-0.7l0,0c0-0.4,0.3-0.7,0.7-0.7l0,0c0.4,0,0.7,0.3,0.7,0.7
	C7.3,91.3,7,91.6,6.6,91.6z"/>
<path fill="#6CB8C7" d="M6.6,78.7L6.6,78.7c-0.4,0-0.7-0.3-0.7-0.7l0,0c0-0.4,0.3-0.7,0.7-0.7l0,0c0.4,0,0.7,0.3,0.7,0.7
	C7.3,78.4,7,78.7,6.6,78.7z"/>
<path fill="#6CB8C7" d="M6.6,65.8L6.6,65.8c-0.4,0-0.7-0.3-0.7-0.7l0,0c0-0.4,0.3-0.7,0.7-0.7l0,0c0.4,0,0.7,0.3,0.7,0.7
	C7.3,65.5,7,65.8,6.6,65.8z"/>
<path fill="#6CB8C7" d="M6.6,59.4L6.6,59.4c-0.4,0-0.7-0.3-0.7-0.7l0,0c0-0.4,0.3-0.7,0.7-0.7l0,0c0.4,0,0.7,0.3,0.7,0.7
	C7.3,59.1,7,59.4,6.6,59.4z"/>
<path fill="#6CB8C7" d="M6.6,85.2L6.6,85.2c-0.4,0-0.7-0.3-0.7-0.7l0,0c0-0.4,0.3-0.7,0.7-0.7l0,0c0.4,0,0.7,0.3,0.7,0.7
	C7.3,84.9,7,85.2,6.6,85.2z"/>
<path fill="#6CB8C7" d="M6.6,72.3L6.6,72.3c-0.4,0-0.7-0.3-0.7-0.7l0,0c0-0.4,0.3-0.7,0.7-0.7l0,0c0.4,0,0.7,0.3,0.7,0.7
	C7.3,72,7,72.3,6.6,72.3z"/>
<path fill="#6CB8C7" d="M6.6,110.9L6.6,110.9c-0.4,0-0.7-0.3-0.7-0.7l0,0c0-0.4,0.3-0.7,0.7-0.7l0,0c0.4,0,0.7,0.3,0.7,0.7
	C7.3,110.6,7,110.9,6.6,110.9z"/>
<path fill="#6CB8C7" d="M6.6,98L6.6,98c-0.4,0-0.7-0.3-0.7-0.7l0,0c0-0.4,0.3-0.7,0.7-0.7l0,0c0.4,0,0.7,0.3,0.7,0.7
	C7.3,97.7,7,98,6.6,98z"/>
<path fill="#6CB8C7" d="M6.6,52.9L6.6,52.9c-0.4,0-0.7-0.3-0.7-0.7l0,0c0-0.4,0.3-0.7,0.7-0.7l0,0c0.4,0,0.7,0.3,0.7,0.7
	C7.3,52.6,7,52.9,6.6,52.9z"/>
<path fill="#6CB8C7" d="M6.6,46.5L6.6,46.5c-0.4,0-0.7-0.3-0.7-0.7l0,0c0-0.4,0.3-0.7,0.7-0.7l0,0c0.4,0,0.7,0.3,0.7,0.7
	C7.3,46.2,7,46.5,6.6,46.5z"/>
<path fill="#6CB8C7" d="M6.6,40.1L6.6,40.1c-0.4,0-0.7-0.3-0.7-0.7l0,0c0-0.4,0.3-0.7,0.7-0.7l0,0c0.4,0,0.7,0.3,0.7,0.7
	C7.3,39.8,7,40.1,6.6,40.1z"/>
<path fill="#DB193B" d="M6.6,33.6L6.6,33.6c-0.4,0-0.7-0.3-0.7-0.7l0,0c0-0.4,0.3-0.7,0.7-0.7l0,0c0.4,0,0.7,0.3,0.7,0.7
	C7.3,33.3,7,33.6,6.6,33.6z"/>
<path fill="#DB193B" d="M6.6,27.2L6.6,27.2c-0.4,0-0.7-0.3-0.7-0.7l0,0c0-0.4,0.3-0.7,0.7-0.7l0,0c0.4,0,0.7,0.3,0.7,0.7
	C7.3,26.9,7,27.2,6.6,27.2z"/>
<path fill="#DB193B" d="M6.6,20.7L6.6,20.7c-0.4,0-0.7-0.3-0.7-0.7l0,0c0-0.4,0.3-0.7,0.7-0.7l0,0c0.4,0,0.7,0.3,0.7,0.7
	C7.3,20.4,7,20.7,6.6,20.7z"/>
<path fill="#DB193B" d="M6.6,14.3L6.6,14.3c-0.4,0-0.7-0.3-0.7-0.7l0,0c0-0.4,0.3-0.7,0.7-0.7l0,0c0.4,0,0.7,0.3,0.7,0.7
	C7.3,14,7,14.3,6.6,14.3z"/>
<path fill="#DB193B" d="M6.6,7.9L6.6,7.9c-0.4,0-0.7-0.3-0.7-0.7l0,0c0-0.4,0.3-0.7,0.7-0.7l0,0c0.4,0,0.7,0.3,0.7,0.7
	C7.3,7.5,7,7.9,6.6,7.9z"/>
<path fill="#DDF0F4" d="M6.6,1.4L6.6,1.4c-0.4,0-0.7-0.3-0.7-0.7l0,0C5.9,0.3,6.2,0,6.6,0l0,0C7,0,7.3,0.3,7.3,0.7
	C7.3,1.1,7,1.4,6.6,1.4z"/>
<path fill="#DDF0F4" d="M3.7,236.6L3.7,236.6c-0.4,0-0.7-0.3-0.7-0.7l0,0c0-0.4,0.3-0.7,0.7-0.7l0,0c0.4,0,0.7,0.3,0.7,0.7
	C4.4,236.3,4,236.6,3.7,236.6z"/>
<path fill="#6CB8C7" d="M3.7,191.5L3.7,191.5c-0.4,0-0.7-0.3-0.7-0.7l0,0c0-0.4,0.3-0.7,0.7-0.7l0,0c0.4,0,0.7,0.3,0.7,0.7
	C4.4,191.2,4,191.5,3.7,191.5z"/>
<path fill="#6CB8C7" d="M3.7,185.1L3.7,185.1c-0.4,0-0.7-0.3-0.7-0.7l0,0c0-0.4,0.3-0.7,0.7-0.7l0,0c0.4,0,0.7,0.3,0.7,0.7
	C4.4,184.8,4,185.1,3.7,185.1z"/>
<path fill="#6CB8C7" d="M3.7,178.7L3.7,178.7c-0.4,0-0.7-0.3-0.7-0.7l0,0c0-0.4,0.3-0.7,0.7-0.7l0,0c0.4,0,0.7,0.3,0.7,0.7
	C4.4,178.4,4,178.7,3.7,178.7z"/>
<path fill="#6CB8C7" d="M3.7,172.2L3.7,172.2c-0.4,0-0.7-0.3-0.7-0.7l0,0c0-0.4,0.3-0.7,0.7-0.7l0,0c0.4,0,0.7,0.3,0.7,0.7
	C4.4,171.9,4,172.2,3.7,172.2z"/>
<path fill="#6CB8C7" d="M3.7,230.2L3.7,230.2c-0.4,0-0.7-0.3-0.7-0.7l0,0c0-0.4,0.3-0.7,0.7-0.7l0,0c0.4,0,0.7,0.3,0.7,0.7
	C4.4,229.9,4,230.2,3.7,230.2z"/>
<path fill="#6CB8C7" d="M3.7,217.3L3.7,217.3c-0.4,0-0.7-0.3-0.7-0.7l0,0c0-0.4,0.3-0.7,0.7-0.7l0,0c0.4,0,0.7,0.3,0.7,0.7
	C4.4,217,4,217.3,3.7,217.3z"/>
<path fill="#6CB8C7" d="M3.7,204.4L3.7,204.4c-0.4,0-0.7-0.3-0.7-0.7l0,0c0-0.4,0.3-0.7,0.7-0.7l0,0c0.4,0,0.7,0.3,0.7,0.7
	C4.4,204.1,4,204.4,3.7,204.4z"/>
<path fill="#6CB8C7" d="M3.7,223.8L3.7,223.8c-0.4,0-0.7-0.3-0.7-0.7l0,0c0-0.4,0.3-0.7,0.7-0.7l0,0c0.4,0,0.7,0.3,0.7,0.7
	C4.4,223.4,4,223.8,3.7,223.8z"/>
<path fill="#6CB8C7" d="M3.7,210.9L3.7,210.9c-0.4,0-0.7-0.3-0.7-0.7l0,0c0-0.4,0.3-0.7,0.7-0.7l0,0c0.4,0,0.7,0.3,0.7,0.7
	C4.4,210.6,4,210.9,3.7,210.9z"/>
<path fill="#6CB8C7" d="M3.7,198L3.7,198c-0.4,0-0.7-0.3-0.7-0.7l0,0c0-0.4,0.3-0.7,0.7-0.7l0,0c0.4,0,0.7,0.3,0.7,0.7
	C4.4,197.7,4,198,3.7,198z"/>
<path fill="#6CB8C7" d="M3.7,165.8L3.7,165.8c-0.4,0-0.7-0.3-0.7-0.7l0,0c0-0.4,0.3-0.7,0.7-0.7l0,0c0.4,0,0.7,0.3,0.7,0.7
	C4.4,165.5,4,165.8,3.7,165.8z"/>
<path fill="#6CB8C7" d="M3.7,159.3L3.7,159.3c-0.4,0-0.7-0.3-0.7-0.7l0,0c0-0.4,0.3-0.7,0.7-0.7l0,0c0.4,0,0.7,0.3,0.7,0.7
	C4.4,159,4,159.3,3.7,159.3z"/>
<path fill="#6CB8C7" d="M3.7,152.9L3.7,152.9c-0.4,0-0.7-0.3-0.7-0.7l0,0c0-0.4,0.3-0.7,0.7-0.7l0,0c0.4,0,0.7,0.3,0.7,0.7
	C4.4,152.6,4,152.9,3.7,152.9z"/>
<path fill="#6CB8C7" d="M3.7,146.4L3.7,146.4c-0.4,0-0.7-0.3-0.7-0.7l0,0c0-0.4,0.3-0.7,0.7-0.7l0,0c0.4,0,0.7,0.3,0.7,0.7
	C4.4,146.1,4,146.4,3.7,146.4z"/>
<path fill="#6CB8C7" d="M3.7,140L3.7,140c-0.4,0-0.7-0.3-0.7-0.7l0,0c0-0.4,0.3-0.7,0.7-0.7l0,0c0.4,0,0.7,0.3,0.7,0.7
	C4.4,139.7,4,140,3.7,140z"/>
<path fill="#6CB8C7" d="M3.7,133.6L3.7,133.6c-0.4,0-0.7-0.3-0.7-0.7l0,0c0-0.4,0.3-0.7,0.7-0.7l0,0c0.4,0,0.7,0.3,0.7,0.7
	C4.4,133.3,4,133.6,3.7,133.6z"/>
<path fill="#6CB8C7" d="M3.7,127.1L3.7,127.1c-0.4,0-0.7-0.3-0.7-0.7l0,0c0-0.4,0.3-0.7,0.7-0.7l0,0c0.4,0,0.7,0.3,0.7,0.7
	C4.4,126.8,4,127.1,3.7,127.1z"/>
<path fill="#6CB8C7" d="M3.7,120.7L3.7,120.7c-0.4,0-0.7-0.3-0.7-0.7l0,0c0-0.4,0.3-0.7,0.7-0.7l0,0c0.4,0,0.7,0.3,0.7,0.7
	C4.4,120.4,4,120.7,3.7,120.7z"/>
<path fill="#6CB8C7" d="M3.7,107.8L3.7,107.8c-0.4,0-0.7-0.3-0.7-0.7l0,0c0-0.4,0.3-0.7,0.7-0.7l0,0c0.4,0,0.7,0.3,0.7,0.7
	C4.4,107.5,4,107.8,3.7,107.8z"/>
<path fill="#6CB8C7" d="M3.7,94.9L3.7,94.9c-0.4,0-0.7-0.3-0.7-0.7l0,0c0-0.4,0.3-0.7,0.7-0.7l0,0c0.4,0,0.7,0.3,0.7,0.7
	C4.4,94.6,4,94.9,3.7,94.9z"/>
<path fill="#6CB8C7" d="M3.7,82L3.7,82C3.3,82,3,81.7,3,81.3l0,0c0-0.4,0.3-0.7,0.7-0.7l0,0c0.4,0,0.7,0.3,0.7,0.7
	C4.4,81.7,4,82,3.7,82z"/>
<path fill="#6CB8C7" d="M3.7,69.1L3.7,69.1c-0.4,0-0.7-0.3-0.7-0.7l0,0c0-0.4,0.3-0.7,0.7-0.7l0,0c0.4,0,0.7,0.3,0.7,0.7
	C4.4,68.8,4,69.1,3.7,69.1z"/>
<path fill="#6CB8C7" d="M3.7,62.7L3.7,62.7C3.3,62.7,3,62.4,3,62l0,0c0-0.4,0.3-0.7,0.7-0.7l0,0c0.4,0,0.7,0.3,0.7,0.7
	C4.4,62.4,4,62.7,3.7,62.7z"/>
<path fill="#6CB8C7" d="M3.7,88.5L3.7,88.5c-0.4,0-0.7-0.3-0.7-0.7l0,0c0-0.4,0.3-0.7,0.7-0.7l0,0c0.4,0,0.7,0.3,0.7,0.7
	C4.4,88.2,4,88.5,3.7,88.5z"/>
<path fill="#6CB8C7" d="M3.7,75.6L3.7,75.6c-0.4,0-0.7-0.3-0.7-0.7l0,0c0-0.4,0.3-0.7,0.7-0.7l0,0c0.4,0,0.7,0.3,0.7,0.7
	C4.4,75.3,4,75.6,3.7,75.6z"/>
<path fill="#6CB8C7" d="M3.7,114.2L3.7,114.2c-0.4,0-0.7-0.3-0.7-0.7l0,0c0-0.4,0.3-0.7,0.7-0.7l0,0c0.4,0,0.7,0.3,0.7,0.7
	C4.4,113.9,4,114.2,3.7,114.2z"/>
<path fill="#6CB8C7" d="M3.7,101.4L3.7,101.4c-0.4,0-0.7-0.3-0.7-0.7l0,0c0-0.4,0.3-0.7,0.7-0.7l0,0c0.4,0,0.7,0.3,0.7,0.7
	C4.4,101,4,101.4,3.7,101.4z"/>
<path fill="#6CB8C7" d="M3.7,56.2L3.7,56.2c-0.4,0-0.7-0.3-0.7-0.7l0,0c0-0.4,0.3-0.7,0.7-0.7l0,0c0.4,0,0.7,0.3,0.7,0.7
	C4.4,55.9,4,56.2,3.7,56.2z"/>
<path fill="#6CB8C7" d="M3.7,49.8L3.7,49.8c-0.4,0-0.7-0.3-0.7-0.7l0,0c0-0.4,0.3-0.7,0.7-0.7l0,0c0.4,0,0.7,0.3,0.7,0.7
	C4.4,49.5,4,49.8,3.7,49.8z"/>
<path fill="#6CB8C7" d="M3.7,43.4L3.7,43.4c-0.4,0-0.7-0.3-0.7-0.7l0,0C3,42.3,3.3,42,3.7,42l0,0c0.4,0,0.7,0.3,0.7,0.7
	C4.4,43.1,4,43.4,3.7,43.4z"/>
<path fill="#DB193B" d="M3.7,36.9L3.7,36.9c-0.4,0-0.7-0.3-0.7-0.7l0,0c0-0.4,0.3-0.7,0.7-0.7l0,0c0.4,0,0.7,0.3,0.7,0.7
	C4.4,36.6,4,36.9,3.7,36.9z"/>
<path fill="#DB193B" d="M3.7,30.5L3.7,30.5c-0.4,0-0.7-0.3-0.7-0.7l0,0c0-0.4,0.3-0.7,0.7-0.7l0,0c0.4,0,0.7,0.3,0.7,0.7
	C4.4,30.2,4,30.5,3.7,30.5z"/>
<path fill="#DB193B" d="M3.7,24.1L3.7,24.1c-0.4,0-0.7-0.3-0.7-0.7l0,0c0-0.4,0.3-0.7,0.7-0.7l0,0c0.4,0,0.7,0.3,0.7,0.7
	C4.4,23.7,4,24.1,3.7,24.1z"/>
<path fill="#DB193B" d="M3.7,17.6L3.7,17.6c-0.4,0-0.7-0.3-0.7-0.7l0,0c0-0.4,0.3-0.7,0.7-0.7l0,0c0.4,0,0.7,0.3,0.7,0.7
	C4.4,17.3,4,17.6,3.7,17.6z"/>
<path fill="#DB193B" d="M3.7,11.2L3.7,11.2c-0.4,0-0.7-0.3-0.7-0.7l0,0c0-0.4,0.3-0.7,0.7-0.7l0,0c0.4,0,0.7,0.3,0.7,0.7
	C4.4,10.8,4,11.2,3.7,11.2z"/>
<path fill="#DDF0F4" d="M3.7,4.7L3.7,4.7C3.3,4.7,3,4.4,3,4l0,0c0-0.4,0.3-0.7,0.7-0.7l0,0C4,3.3,4.4,3.6,4.4,4
	C4.4,4.4,4,4.7,3.7,4.7z"/>
</svg>
