<?xml version="1.0" encoding="utf-8"?>
<!-- Generator: Adobe Illustrator 27.8.0, SVG Export Plug-In . SVG Version: 6.00 Build 0)  -->
<svg version="1.1" baseProfile="tiny" id="Layer_1" xmlns="http://www.w3.org/2000/svg" xmlns:xlink="http://www.w3.org/1999/xlink"
	 x="0px" y="0px" viewBox="0 0 6.7 6.7" overflow="visible" xml:space="preserve">
<g>
	<path fill="#DB193B" d="M4.1,0v0.7C5,1,5.7,1.7,6,2.7h0.7C6.4,1.3,5.4,0.3,4.1,0z M0,2.7h0.7C1,1.7,1.7,1,2.7,0.7V0
		C1.3,0.3,0.3,1.3,0,2.7z M6,4.1C5.7,5,5,5.7,4.1,6v0.7c1.3-0.3,2.4-1.3,2.7-2.7H6z M0.7,4.1H0c0.3,1.3,1.3,2.4,2.7,2.7V6
		C1.7,5.7,1,5,0.7,4.1z"/>
</g>
<circle fill="#63F6FF" cx="3.4" cy="3.4" r="1.3"/>
</svg>
