<?xml version="1.0" encoding="utf-8"?>
<!-- Generator: Adobe Illustrator 27.8.0, SVG Export Plug-In . SVG Version: 6.00 Build 0)  -->
<svg version="1.1" baseProfile="tiny" id="Layer_1" xmlns="http://www.w3.org/2000/svg" xmlns:xlink="http://www.w3.org/1999/xlink"
	 x="0px" y="0px" viewBox="0 0 293.7 12" overflow="visible" xml:space="preserve">
<path id="opacity:12_00000111913205706624159360000015195115135679942017_" fill="#6CB8C7" d="M293.7,12c0-2.1-1.7-3.8-3.8-3.8l-6,0
	V3.8l6,0c2.1,0,3.8-1.7,3.8-3.8V12z"/>
<path id="opacity:12" fill="#6CB8C7" d="M0,12c0-2.1,1.7-3.8,3.8-3.8l6,0l0-4.5l-6,0C1.7,3.8,0,2.1,0,0L0,12z"/>
<circle id="opacity:70_00000088816947363044919480000014228971853544140930_" fill="#DDF0F4" cx="58.7" cy="4.8" r="0.7"/>
<circle id="opacity:50_00000070807741899335107250000000828330758226867840_" fill="#DDF0F4" cx="58.7" cy="7.9" r="0.7"/>
<line id="opacity:50_00000060014635475435823960000001183104151223150002_" fill="none" stroke="#DDF0F4" stroke-width="0.5" stroke-miterlimit="10" x1="17" y1="7.9" x2="56.9" y2="7.9"/>
<line id="opacity:80_00000054231563862173365980000002592076181618016641_" fill="none" stroke="#6CB8C7" stroke-width="0.5" stroke-miterlimit="10" x1="56.9" y1="4.8" x2="17" y2="4.8"/>
<circle id="opacity:50" fill="#DDF0F4" cx="280.7" cy="4.8" r="0.7"/>
<circle id="opacity:70" fill="#DDF0F4" cx="280.7" cy="7.9" r="0.7"/>
<line id="opacity:50_00000177458603254839193160000009771444309378609586_" fill="none" stroke="#DDF0F4" stroke-width="0.5" stroke-miterlimit="10" x1="250.9" y1="7.9" x2="278.9" y2="7.9"/>
<line id="opacity:80_00000080197192160438117230000005550784126340787381_" fill="none" stroke="#6CB8C7" stroke-width="0.5" stroke-miterlimit="10" x1="278.9" y1="4.8" x2="250.9" y2="4.8"/>
<circle id="opacity:70_00000008116180353525182500000008756550011758159784_" fill="#DB193B" cx="15.1" cy="4.8" r="0.7"/>
<circle id="opacity:50_00000109016182712191977080000013581951496647872182_" fill="#DDF0F4" cx="15.1" cy="7.9" r="0.7"/>
<circle id="opacity:70_00000037672538979571559910000006520512157841843587_" fill="#DDF0F4" cx="61.7" cy="4.8" r="0.7"/>
<circle id="opacity:50_00000022546142919479909690000009662048053437398439_" fill="#DDF0F4" cx="61.7" cy="7.9" r="0.7"/>
<circle id="opacity:70_00000060743770163762913380000011417148826818880907_" fill="#6FFC5D" cx="248.5" cy="4.8" r="0.7"/>
<circle id="opacity:50_00000107578441444571664810000015620880877334740409_" fill="#DDF0F4" cx="248.5" cy="7.9" r="0.7"/>
<line id="opacity:50_00000042718257921658001140000016008378234163929730_" fill="none" stroke="#DDF0F4" stroke-width="0.5" stroke-miterlimit="10" x1="63.9" y1="7.9" x2="245.6" y2="7.9"/>
<line id="opacity:80" fill="none" stroke="#6CB8C7" stroke-width="0.5" stroke-miterlimit="10" x1="245.6" y1="4.8" x2="63.9" y2="4.8"/>
</svg>
