<?xml version="1.0" encoding="utf-8"?>
<!-- Generator: Adobe Illustrator 27.8.0, SVG Export Plug-In . SVG Version: 6.00 Build 0)  -->
<svg version="1.1" baseProfile="tiny" id="Layer_1" xmlns="http://www.w3.org/2000/svg" xmlns:xlink="http://www.w3.org/1999/xlink"
	 x="0px" y="0px" viewBox="0 0 240.7 255" overflow="visible" xml:space="preserve">
<path id="opacity:8" fill="#BDF9FF" d="M241.1,66.4v59.5H139.9c-1.5,0-2.6-1.4-2.3-2.8c2.2-10.3,3.4-21,3.4-31.9
	c0-7.5-0.6-14.9-1.6-22.1c-0.2-1.4,0.9-2.7,2.3-2.7H241.1z"/>
<polygon fill="#DB193B" points="159.2,122.1 159.5,121.2 155.7,121.2 155.3,122.1 "/>
<path id="opacity:30_00000111879896667240497150000007145469948580017794_" fill="#6CB8C7" d="M231.9,121.6c0-0.3,0.2-0.6,0.5-0.6
	l0,0c0.3,0,0.6,0.2,0.6,0.6l0,0c0,0.3-0.2,0.6-0.6,0.6l0,0C232.2,122.2,231.9,121.9,231.9,121.6z"/>
<path id="opacity:30_00000040553287944532605580000012963234663181414317_" fill="#6CB8C7" d="M229.3,121.6c0-0.3,0.2-0.6,0.6-0.6
	l0,0c0.3,0,0.5,0.2,0.5,0.6l0,0c0,0.3-0.2,0.6-0.5,0.6l0,0C229.5,122.2,229.3,121.9,229.3,121.6z"/>
<path id="opacity:30_00000136387822827650468300000006251993105471025076_" fill="#6CB8C7" d="M226.6,121.6c0-0.3,0.2-0.6,0.5-0.6
	l0,0c0.3,0,0.6,0.2,0.6,0.6l0,0c0,0.3-0.2,0.6-0.6,0.6l0,0C226.8,122.2,226.6,121.9,226.6,121.6z"/>
<path id="opacity:30_00000077312083725757053630000006470884069934464425_" fill="#6CB8C7" d="M223.9,121.6c0-0.3,0.2-0.6,0.6-0.6
	l0,0c0.3,0,0.5,0.2,0.5,0.6l0,0c0,0.3-0.2,0.6-0.5,0.6l0,0C224.2,122.2,223.9,121.9,223.9,121.6z"/>
<path id="opacity:30_00000013192430536313418920000017552912687572222628_" fill="#6CB8C7" d="M221.3,121.6c0-0.3,0.2-0.6,0.6-0.6
	l0,0c0.3,0,0.6,0.2,0.6,0.6l0,0c0,0.3-0.2,0.6-0.6,0.6l0,0C221.5,122.2,221.3,121.9,221.3,121.6z"/>
<path id="opacity:30_00000183951155335081643750000017696356288012667789_" fill="#6CB8C7" d="M218.6,121.6c0-0.3,0.2-0.6,0.6-0.6
	l0,0c0.3,0,0.5,0.2,0.5,0.6l0,0c0,0.3-0.2,0.6-0.5,0.6l0,0C218.8,122.2,218.6,121.9,218.6,121.6z"/>
<path id="opacity:30_00000039839847192876423050000015072959156573929406_" fill="#6CB8C7" d="M215.9,121.6c0-0.3,0.2-0.6,0.6-0.6
	l0,0c0.3,0,0.6,0.2,0.6,0.6l0,0c0,0.3-0.2,0.6-0.6,0.6l0,0C216.2,122.2,215.9,121.9,215.9,121.6z"/>
<path id="opacity:30_00000028295785373581668990000013638014720848726192_" fill="#6CB8C7" d="M213.3,121.6c0-0.3,0.2-0.6,0.6-0.6
	l0,0c0.3,0,0.5,0.2,0.5,0.6l0,0c0,0.3-0.2,0.6-0.5,0.6l0,0C213.5,122.2,213.3,121.9,213.3,121.6z"/>
<path id="opacity:30_00000062881705945936948670000003089652177087737994_" fill="#6CB8C7" d="M210.6,121.6c0-0.3,0.3-0.6,0.6-0.6
	l0,0c0.3,0,0.6,0.2,0.6,0.6l0,0c0,0.3-0.2,0.6-0.6,0.6l0,0C210.9,122.2,210.6,121.9,210.6,121.6z"/>
<path id="opacity:30_00000114763662076805343190000013012211312980722325_" fill="#6CB8C7" d="M207.9,121.6c0-0.3,0.2-0.6,0.6-0.6
	l0,0c0.3,0,0.5,0.2,0.5,0.6l0,0c0,0.3-0.2,0.6-0.5,0.6l0,0C208.2,122.2,207.9,121.9,207.9,121.6z"/>
<path id="opacity:30_00000075867791089662518270000007780789252433543065_" fill="#6CB8C7" d="M205.3,121.6c0-0.3,0.2-0.6,0.5-0.6
	l0,0c0.3,0,0.6,0.2,0.6,0.6l0,0c0,0.3-0.2,0.6-0.6,0.6l0,0C205.5,122.2,205.3,121.9,205.3,121.6z"/>
<path id="opacity:30_00000165219922123717741470000009138407028770306229_" fill="#6CB8C7" d="M202.6,121.6c0-0.3,0.2-0.6,0.6-0.6
	l0,0c0.3,0,0.5,0.2,0.5,0.6l0,0c0,0.3-0.2,0.6-0.5,0.6l0,0C202.9,122.2,202.6,121.9,202.6,121.6z"/>
<path id="opacity:30_00000096746735242938790860000011502840558626819229_" fill="#6CB8C7" d="M199.9,121.6c0-0.3,0.2-0.6,0.5-0.6
	l0,0c0.3,0,0.6,0.2,0.6,0.6l0,0c0,0.3-0.2,0.6-0.6,0.6l0,0C200.2,122.2,199.9,121.9,199.9,121.6z"/>
<path id="opacity:30_00000138561544229019091830000016107264891578834055_" fill="#6CB8C7" d="M197.3,121.6c0-0.3,0.2-0.6,0.6-0.6
	l0,0c0.3,0,0.5,0.2,0.5,0.6l0,0c0,0.3-0.2,0.6-0.5,0.6l0,0C197.5,122.2,197.3,121.9,197.3,121.6z"/>
<path id="opacity:30_00000148644211991503073550000015587405201420301718_" fill="#6CB8C7" d="M194.6,121.6c0-0.3,0.2-0.6,0.5-0.6
	l0,0c0.3,0,0.6,0.2,0.6,0.6l0,0c0,0.3-0.2,0.6-0.6,0.6l0,0C194.9,122.2,194.6,121.9,194.6,121.6z"/>
<path id="opacity:30_00000065073912418744940960000002744718741024446341_" fill="#6CB8C7" d="M191.9,121.6c0-0.3,0.2-0.6,0.6-0.6
	l0,0c0.3,0,0.5,0.2,0.5,0.6l0,0c0,0.3-0.2,0.6-0.5,0.6l0,0C192.2,122.2,191.9,121.9,191.9,121.6z"/>
<path id="opacity:30_00000175313558022059931070000016911575969681042865_" fill="#6CB8C7" d="M189.3,121.6c0-0.3,0.2-0.6,0.5-0.6
	l0,0c0.3,0,0.6,0.2,0.6,0.6l0,0c0,0.3-0.2,0.6-0.6,0.6l0,0C189.5,122.2,189.3,121.9,189.3,121.6z"/>
<path id="opacity:30_00000132057732125614897920000009627151134320231822_" fill="#6CB8C7" d="M186.6,121.6c0-0.3,0.2-0.6,0.6-0.6
	l0,0c0.3,0,0.5,0.2,0.5,0.6l0,0c0,0.3-0.2,0.6-0.5,0.6l0,0C186.9,122.2,186.6,121.9,186.6,121.6z"/>
<path id="opacity:30_00000057855723024659713200000012221208638482391988_" fill="#6CB8C7" d="M184,121.6c0-0.3,0.2-0.6,0.5-0.6l0,0
	c0.3,0,0.6,0.2,0.6,0.6l0,0c0,0.3-0.2,0.6-0.6,0.6l0,0C184.2,122.2,184,121.9,184,121.6z"/>
<path id="opacity:30_00000163040577649645892120000003039840238704462003_" fill="#6CB8C7" d="M181.3,121.6c0-0.3,0.2-0.6,0.6-0.6
	l0,0c0.3,0,0.5,0.2,0.5,0.6l0,0c0,0.3-0.2,0.6-0.5,0.6l0,0C181.5,122.2,181.3,121.9,181.3,121.6z"/>
<path id="opacity:30_00000147921211722232724680000003988960849629312677_" fill="#6CB8C7" d="M178.6,121.6c0-0.3,0.2-0.6,0.5-0.6
	l0,0c0.3,0,0.6,0.2,0.6,0.6l0,0c0,0.3-0.2,0.6-0.6,0.6l0,0C178.9,122.2,178.6,121.9,178.6,121.6z"/>
<path id="opacity:30_00000079449923530746738250000008234738087427831458_" fill="#6CB8C7" d="M176,121.6c0-0.3,0.2-0.6,0.6-0.6l0,0
	c0.3,0,0.6,0.2,0.6,0.6l0,0c0,0.3-0.2,0.6-0.6,0.6l0,0C176.2,122.2,176,121.9,176,121.6z"/>
<path id="opacity:30_00000049211556602600449900000007955849693762770367_" fill="#6CB8C7" d="M173.3,121.6c0-0.3,0.2-0.6,0.5-0.6
	l0,0c0.3,0,0.6,0.2,0.6,0.6l0,0c0,0.3-0.2,0.6-0.6,0.6l0,0C173.5,122.2,173.3,121.9,173.3,121.6z"/>
<path id="opacity:30_00000106147272337533633020000008998032084899525050_" fill="#6CB8C7" d="M170.6,121.6c0-0.3,0.2-0.6,0.6-0.6
	l0,0c0.3,0,0.6,0.2,0.6,0.6l0,0c0,0.3-0.2,0.6-0.6,0.6l0,0C170.9,122.2,170.6,121.9,170.6,121.6z"/>
<path id="opacity:30_00000155104134302999288830000016233482721271710356_" fill="#6CB8C7" d="M168,121.6c0-0.3,0.2-0.6,0.5-0.6l0,0
	c0.3,0,0.6,0.2,0.6,0.6l0,0c0,0.3-0.2,0.6-0.6,0.6l0,0C168.2,122.2,168,121.9,168,121.6z"/>
<path id="opacity:30" fill="#6CB8C7" d="M165.3,121.6c0-0.3,0.2-0.6,0.6-0.6l0,0c0.3,0,0.6,0.2,0.6,0.6l0,0c0,0.3-0.2,0.6-0.6,0.6
	l0,0C165.5,122.2,165.3,121.9,165.3,121.6z"/>
<path id="opacity:30_00000044893397485062181120000000611520056797371808_" fill="#6CB8C7" d="M91.7,209.9c-0.2-0.2-0.1-0.6,0.1-0.8
	l0,0c0.2-0.2,0.6-0.1,0.8,0.1l0,0c0.2,0.2,0.1,0.6-0.1,0.8l0,0c-0.1,0.1-0.2,0.1-0.4,0.1l0,0C92,210.1,91.8,210.1,91.7,209.9z"/>
<path id="opacity:30_00000003094712729513370830000015967973977466453160_" fill="#6CB8C7" d="M93.8,208.3c-0.2-0.2-0.2-0.6,0.1-0.8
	l0,0c0.2-0.2,0.6-0.2,0.8,0.1l0,0c0.2,0.2,0.2,0.6-0.1,0.8l0,0c-0.1,0.1-0.2,0.1-0.4,0.1l0,0C94.1,208.5,93.9,208.4,93.8,208.3z"/>
<path id="opacity:30_00000147221179657273220200000008230911482948038840_" fill="#6CB8C7" d="M95.9,206.6c-0.2-0.2-0.2-0.6,0.1-0.8
	l0,0c0.2-0.2,0.6-0.2,0.8,0.1l0,0c0.2,0.2,0.2,0.6-0.1,0.8l0,0c-0.1,0.1-0.2,0.1-0.4,0.1l0,0C96.1,206.8,96,206.7,95.9,206.6z"/>
<path id="opacity:30_00000090257145817974423210000015110143140114006431_" fill="#6CB8C7" d="M97.9,204.9c-0.2-0.2-0.2-0.6,0.1-0.8
	l0,0c0.2-0.2,0.6-0.2,0.8,0.1l0,0c0.2,0.2,0.2,0.6-0.1,0.8l0,0c-0.1,0.1-0.2,0.1-0.4,0.1l0,0C98.2,205,98,205,97.9,204.9z"/>
<path id="opacity:30_00000028301279557222827500000016361254573297885591_" fill="#6CB8C7" d="M99.9,203.1c-0.2-0.2-0.2-0.6,0-0.8
	l0,0c0.2-0.2,0.6-0.2,0.8,0l0,0c0.2,0.2,0.2,0.6,0,0.8l0,0c-0.1,0.1-0.2,0.1-0.4,0.1l0,0C100.1,203.3,100,203.2,99.9,203.1z"/>
<path id="opacity:30_00000104698975573145365040000016898405640294265270_" fill="#6CB8C7" d="M101.9,201.3c-0.2-0.2-0.2-0.6,0-0.8
	l0,0c0.2-0.2,0.6-0.2,0.8,0l0,0c0.2,0.2,0.2,0.6,0,0.8l0,0l0,0l0,0c-0.1,0.1-0.2,0.2-0.4,0.2l0,0C102.1,201.5,102,201.4,101.9,201.3
	z"/>
<path id="opacity:30_00000047748686477571833540000010980585890491475642_" fill="#6CB8C7" d="M103.8,199.5c-0.2-0.2-0.2-0.6,0-0.8
	l0,0c0.2-0.2,0.6-0.2,0.8,0l0,0c0.2,0.2,0.2,0.6,0,0.8l0,0c-0.1,0.1-0.2,0.2-0.4,0.2l0,0C104.1,199.6,103.9,199.6,103.8,199.5z"/>
<path id="opacity:30_00000037674040510932385270000015769489766875442610_" fill="#6CB8C7" d="M105.7,197.6c-0.2-0.2-0.2-0.6,0-0.8
	l0,0c0.2-0.2,0.6-0.2,0.8,0l0,0c0.2,0.2,0.2,0.6,0,0.8l0,0c-0.1,0.1-0.2,0.2-0.4,0.2l0,0C106,197.8,105.8,197.7,105.7,197.6z"/>
<path id="opacity:30_00000011033535942725752080000012010230153981979526_" fill="#6CB8C7" d="M107.6,195.7c-0.2-0.2-0.2-0.6,0-0.8
	l0,0c0.2-0.2,0.6-0.2,0.8,0l0,0c0.2,0.2,0.2,0.6,0,0.8l0,0c-0.1,0.1-0.3,0.2-0.4,0.2l0,0C107.8,195.9,107.7,195.8,107.6,195.7z"/>
<path id="opacity:30_00000059288394074867371360000002378656066626125187_" fill="#6CB8C7" d="M109.4,193.8c-0.2-0.2-0.2-0.6,0-0.8
	l0,0c0.2-0.2,0.6-0.2,0.8,0l0,0c0.2,0.2,0.2,0.6,0,0.8l0,0l0,0l0,0c-0.1,0.1-0.2,0.2-0.4,0.2l0,0
	C109.7,193.9,109.5,193.9,109.4,193.8z"/>
<path id="opacity:30_00000058572665291844321760000008721212955741078710_" fill="#6CB8C7" d="M111.2,191.8
	c-0.2-0.2-0.2-0.6-0.1-0.8l0,0c0.2-0.2,0.6-0.2,0.8,0l0,0c0.2,0.2,0.2,0.6,0,0.8l0,0c-0.1,0.1-0.3,0.2-0.4,0.2l0,0
	C111.5,192,111.3,191.9,111.2,191.8z"/>
<path id="opacity:30_00000169559711525005863310000015405083986631994556_" fill="#6CB8C7" d="M113,189.8c-0.2-0.2-0.3-0.5-0.1-0.8
	l0,0c0.2-0.2,0.5-0.3,0.8-0.1l0,0c0.2,0.2,0.3,0.5,0.1,0.8l0,0c-0.1,0.1-0.3,0.2-0.4,0.2l0,0C113.2,190,113.1,189.9,113,189.8z"/>
<path id="opacity:30_00000018210451073560115100000016721618333961407125_" fill="#6CB8C7" d="M114.7,187.8
	c-0.2-0.2-0.3-0.5-0.1-0.8l0,0c0.2-0.2,0.6-0.3,0.8-0.1l0,0c0.2,0.2,0.3,0.5,0.1,0.8l0,0c-0.1,0.1-0.3,0.2-0.4,0.2l0,0
	C115,187.9,114.8,187.9,114.7,187.8z"/>
<path id="opacity:30_00000147200069949821825400000000952529750993664441_" fill="#6CB8C7" d="M116.4,185.7
	c-0.2-0.2-0.3-0.5-0.1-0.8l0,0c0.2-0.2,0.5-0.3,0.8-0.1l0,0c0.2,0.2,0.3,0.5,0.1,0.8l0,0c-0.1,0.1-0.3,0.2-0.4,0.2l0,0
	C116.7,185.9,116.5,185.8,116.4,185.7z"/>
<path id="opacity:30_00000049929823150567873290000011863592994233949883_" fill="#6CB8C7" d="M118.1,183.6
	c-0.2-0.2-0.3-0.5-0.1-0.8l0,0c0.2-0.2,0.5-0.3,0.8-0.1l0,0c0.2,0.2,0.3,0.5,0.1,0.8l0,0c-0.1,0.1-0.3,0.2-0.4,0.2l0,0
	C118.3,183.8,118.2,183.7,118.1,183.6z"/>
<path id="opacity:30_00000080891421674847708650000007351553863155376771_" fill="#6CB8C7" d="M119.7,181.5
	c-0.2-0.2-0.3-0.5-0.1-0.8l0,0c0.2-0.2,0.5-0.3,0.8-0.1l0,0c0.2,0.2,0.3,0.5,0.1,0.8l0,0c-0.1,0.1-0.3,0.2-0.4,0.2l0,0
	C119.9,181.6,119.8,181.6,119.7,181.5z"/>
<path id="opacity:30_00000038412179202857668070000008283758794687822782_" fill="#6CB8C7" d="M121.3,179.4
	c-0.2-0.2-0.3-0.5-0.1-0.8l0,0c0.2-0.2,0.5-0.3,0.8-0.1l0,0c0.2,0.2,0.3,0.5,0.1,0.8l0,0c-0.1,0.1-0.3,0.2-0.5,0.2l0,0
	C121.5,179.5,121.4,179.5,121.3,179.4z"/>
<path id="opacity:30_00000070814041724831451810000015877370618029085605_" fill="#6CB8C7" d="M122.8,177.2
	c-0.2-0.2-0.3-0.5-0.1-0.8l0,0c0.2-0.2,0.5-0.3,0.8-0.1l0,0c0.2,0.2,0.3,0.5,0.1,0.8l0,0c-0.1,0.2-0.3,0.2-0.5,0.2l0,0
	C123.1,177.3,122.9,177.3,122.8,177.2z"/>
<path id="opacity:30_00000141430337840966331810000004229138356055886493_" fill="#6CB8C7" d="M124.4,175c-0.3-0.2-0.3-0.5-0.2-0.8
	l0,0c0.2-0.3,0.5-0.3,0.8-0.1l0,0c0.3,0.2,0.3,0.5,0.2,0.8l0,0c-0.1,0.2-0.3,0.2-0.5,0.2l0,0C124.6,175.1,124.5,175.1,124.4,175z"/>
<path id="opacity:30_00000144338445326193342590000002516142300181087903_" fill="#6CB8C7" d="M125.8,172.8
	c-0.3-0.2-0.3-0.5-0.2-0.8l0,0c0.2-0.3,0.5-0.3,0.8-0.2l0,0c0.3,0.2,0.3,0.5,0.2,0.8l0,0l0,0l0,0c-0.1,0.2-0.3,0.3-0.5,0.3l0,0
	C126,172.9,125.9,172.8,125.8,172.8z"/>
<path id="opacity:30_00000105418664340419036760000006607300746432814994_" fill="#6CB8C7" d="M127.3,170.5
	c-0.3-0.2-0.3-0.5-0.2-0.8l0,0c0.2-0.3,0.5-0.3,0.8-0.2l0,0c0.3,0.2,0.3,0.5,0.2,0.8l0,0c-0.1,0.2-0.3,0.3-0.5,0.3l0,0
	C127.5,170.6,127.4,170.6,127.3,170.5z"/>
<path id="opacity:30_00000081639205321308757670000000313549333926089866_" fill="#6CB8C7" d="M128.7,168.2
	c-0.3-0.2-0.4-0.5-0.2-0.8l0,0c0.2-0.3,0.5-0.4,0.8-0.2l0,0c0.3,0.2,0.4,0.5,0.2,0.8l0,0c-0.1,0.2-0.3,0.3-0.5,0.3l0,0
	C128.8,168.3,128.7,168.3,128.7,168.2z"/>
<path id="opacity:30_00000085951430046461928520000008755106016482224562_" fill="#6CB8C7" d="M130,165.9c-0.3-0.1-0.4-0.5-0.2-0.8
	l0,0c0.2-0.3,0.5-0.4,0.8-0.2l0,0c0.3,0.1,0.4,0.5,0.2,0.8l0,0c-0.1,0.2-0.3,0.3-0.5,0.3l0,0C130.2,166,130.1,166,130,165.9z"/>
<path id="opacity:30_00000011020269765639087110000011332837870535278744_" fill="#6CB8C7" d="M131.3,163.6
	c-0.3-0.1-0.4-0.5-0.2-0.8l0,0c0.2-0.3,0.5-0.4,0.8-0.2l0,0c0.3,0.1,0.4,0.5,0.2,0.8l0,0c-0.1,0.2-0.3,0.3-0.5,0.3l0,0
	C131.5,163.7,131.4,163.7,131.3,163.6z"/>
<path id="opacity:30_00000107566674448688724850000009735098153241924751_" fill="#6CB8C7" d="M132.6,161.3
	c-0.3-0.1-0.4-0.5-0.2-0.8l0,0c0.1-0.3,0.5-0.4,0.8-0.2l0,0c0.3,0.1,0.4,0.5,0.2,0.8l0,0c-0.1,0.2-0.3,0.3-0.5,0.3l0,0
	C132.8,161.3,132.7,161.3,132.6,161.3z"/>
<path id="opacity:30_00000003078586783680479200000004810710994073425059_" fill="#6CB8C7" d="M133.8,158.9
	c-0.3-0.1-0.4-0.5-0.2-0.7l0,0c0.1-0.3,0.5-0.4,0.7-0.2l0,0c0.3,0.1,0.4,0.5,0.2,0.8l0,0l0,0l0,0c-0.1,0.2-0.3,0.3-0.5,0.3l0,0
	C134,158.9,133.9,158.9,133.8,158.9z"/>
<path id="opacity:30_00000086665412038764942090000013265572649330713503_" fill="#6CB8C7" d="M135,156.5c-0.3-0.1-0.4-0.5-0.3-0.7
	l0,0c0.1-0.3,0.5-0.4,0.7-0.3l0,0c0.3,0.1,0.4,0.5,0.3,0.7l0,0c-0.1,0.2-0.3,0.3-0.5,0.3l0,0C135.2,156.5,135.1,156.5,135,156.5z"/>
<path id="opacity:30_00000126320899702414708830000012878129788083786128_" fill="#6CB8C7" d="M136.1,154.1
	c-0.3-0.1-0.4-0.5-0.3-0.7l0,0c0.1-0.3,0.5-0.4,0.7-0.3l0,0c0.3,0.1,0.4,0.5,0.3,0.7l0,0c-0.1,0.2-0.3,0.3-0.5,0.3l0,0
	C136.3,154.1,136.2,154.1,136.1,154.1z"/>
<path id="opacity:30_00000175299684538824327970000016297766634696876223_" fill="#6CB8C7" d="M137.2,151.6
	c-0.3-0.1-0.4-0.5-0.3-0.7l0,0c0.1-0.3,0.4-0.4,0.7-0.3l0,0c0.3,0.1,0.4,0.4,0.3,0.7l0,0l0,0l0,0c-0.1,0.2-0.3,0.3-0.5,0.3l0,0
	C137.4,151.7,137.3,151.7,137.2,151.6z"/>
<path id="opacity:30_00000163779046961792210030000010190444735163335089_" fill="#6CB8C7" d="M138.3,149.2
	c-0.3-0.1-0.4-0.4-0.3-0.7l0,0c0.1-0.3,0.4-0.4,0.7-0.3l0,0c0.3,0.1,0.4,0.4,0.3,0.7l0,0l0,0l0,0c-0.1,0.2-0.3,0.3-0.5,0.3l0,0
	C138.4,149.2,138.4,149.2,138.3,149.2z"/>
<path id="opacity:30_00000021830965623301872570000000080485353970636722_" fill="#6CB8C7" d="M139.3,146.7
	c-0.3-0.1-0.4-0.4-0.3-0.7l0,0c0.1-0.3,0.4-0.4,0.7-0.3l0,0c0.3,0.1,0.4,0.4,0.3,0.7l0,0c-0.1,0.2-0.3,0.4-0.5,0.4l0,0
	C139.4,146.7,139.4,146.7,139.3,146.7z"/>
<path id="opacity:30_00000153674918972777695460000008385269884883868839_" fill="#6CB8C7" d="M140.3,144.2
	c-0.3-0.1-0.4-0.4-0.3-0.7l0,0c0.1-0.3,0.4-0.4,0.7-0.3l0,0c0.3,0.1,0.4,0.4,0.3,0.7l0,0l0,0l0,0c-0.1,0.2-0.3,0.4-0.5,0.4l0,0
	C140.4,144.2,140.3,144.2,140.3,144.2z"/>
<path id="opacity:30_00000080890944466735879440000008778902759156896182_" fill="#6CB8C7" d="M141.2,141.7
	c-0.3-0.1-0.4-0.4-0.3-0.7l0,0c0.1-0.3,0.4-0.4,0.7-0.3l0,0c0.3,0.1,0.4,0.4,0.3,0.7l0,0l0,0l0,0c-0.1,0.2-0.3,0.4-0.5,0.4l0,0
	C141.3,141.7,141.2,141.7,141.2,141.7z"/>
<path id="opacity:30_00000021825230452362697220000000384482709837602184_" fill="#6CB8C7" d="M142.1,139.1
	c-0.3-0.1-0.5-0.4-0.4-0.7l0,0c0.1-0.3,0.4-0.4,0.7-0.4l0,0c0.3,0.1,0.4,0.4,0.4,0.7l0,0c-0.1,0.2-0.3,0.4-0.5,0.4l0,0
	C142.2,139.2,142.1,139.2,142.1,139.1z"/>
<path id="opacity:30_00000170979300116971186500000015132502968448193676_" fill="#6CB8C7" d="M142.9,136.6
	c-0.3-0.1-0.5-0.4-0.4-0.7l0,0c0.1-0.3,0.4-0.5,0.7-0.4l0,0c0.3,0.1,0.5,0.4,0.4,0.7l0,0l0,0l0,0c-0.1,0.2-0.3,0.4-0.5,0.4l0,0
	C143,136.6,142.9,136.6,142.9,136.6z"/>
<path id="opacity:15_00000128482605982469424040000017838000138254303914_" fill="#6CB8C7" d="M147.8,115.9c-0.3,0-0.5-0.3-0.5-0.6
	l0,0c0-0.3,0.3-0.5,0.6-0.5l0,0c0.3,0,0.5,0.3,0.5,0.6l0,0C148.4,115.7,148.2,115.9,147.8,115.9L147.8,115.9
	C147.9,115.9,147.9,115.9,147.8,115.9z"/>
<path id="opacity:15_00000175309743850847337480000010238242716328806586_" fill="#6CB8C7" d="M148.2,113.2c-0.3,0-0.5-0.3-0.5-0.6
	l0,0c0-0.3,0.3-0.5,0.6-0.5l0,0c0.3,0,0.5,0.3,0.5,0.6l0,0C148.8,113,148.6,113.2,148.2,113.2L148.2,113.2
	C148.3,113.2,148.3,113.2,148.2,113.2z"/>
<path id="opacity:15_00000087405821735961759120000010373827091404235662_" fill="#6CB8C7" d="M148.6,110.6c-0.3,0-0.5-0.3-0.5-0.6
	l0,0c0-0.3,0.3-0.5,0.6-0.5l0,0c0.3,0,0.5,0.3,0.5,0.6l0,0C149.2,110.4,149,110.6,148.6,110.6L148.6,110.6
	C148.7,110.6,148.6,110.6,148.6,110.6z"/>
<path id="opacity:15_00000024692778170784186590000007091489556205772179_" fill="#6CB8C7" d="M148.9,107.9c-0.3,0-0.5-0.3-0.5-0.6
	l0,0c0-0.3,0.3-0.5,0.6-0.5l0,0c0.3,0,0.5,0.3,0.5,0.6l0,0C149.5,107.7,149.3,107.9,148.9,107.9L148.9,107.9
	C149,107.9,148.9,107.9,148.9,107.9z"/>
<path id="opacity:15_00000085934748203164732810000007100007321235680430_" fill="#6CB8C7" d="M149.2,105.3c-0.3,0-0.5-0.3-0.5-0.6
	l0,0c0-0.3,0.3-0.5,0.6-0.5l0,0c0.3,0,0.5,0.3,0.5,0.6l0,0l0,0l0,0C149.8,105.1,149.5,105.3,149.2,105.3L149.2,105.3L149.2,105.3z"
	/>
<path id="opacity:15_00000086676896451870674930000013693087363123964823_" fill="#6CB8C7" d="M149.4,102.6c-0.3,0-0.5-0.3-0.5-0.6
	l0,0c0-0.3,0.3-0.5,0.6-0.5l0,0c0.3,0,0.5,0.3,0.5,0.6l0,0C150,102.4,149.7,102.6,149.4,102.6L149.4,102.6L149.4,102.6z"/>
<path id="opacity:15_00000132783100918856594520000009352547410745578143_" fill="#6CB8C7" d="M149.6,100c-0.3,0-0.5-0.3-0.5-0.6
	l0,0c0-0.3,0.3-0.5,0.6-0.5l0,0c0.3,0,0.5,0.3,0.5,0.6l0,0C150.2,99.7,149.9,100,149.6,100L149.6,100L149.6,100z"/>
<path id="opacity:15_00000176014587240735548030000003964430845063813557_" fill="#6CB8C7" d="M149.7,97.3c-0.3,0-0.5-0.3-0.5-0.6
	l0,0c0-0.3,0.3-0.6,0.6-0.5l0,0c0.3,0,0.5,0.3,0.5,0.6l0,0l0,0l0,0C150.3,97.1,150,97.3,149.7,97.3L149.7,97.3L149.7,97.3z"/>
<path id="opacity:15_00000103979135153173788290000013426876321405899196_" fill="#6CB8C7" d="M149.8,94.6c-0.3,0-0.5-0.2-0.5-0.6
	l0,0c0-0.3,0.3-0.5,0.6-0.5l0,0c0.3,0,0.5,0.3,0.5,0.6l0,0C150.3,94.4,150.1,94.6,149.8,94.6L149.8,94.6L149.8,94.6z"/>
<path id="opacity:15_00000023248017070828252640000010454705699226866566_" fill="#6CB8C7" d="M149.3,91.4L149.3,91.4L149.3,91.4
	v-0.2l0,0c0-0.3,0.2-0.6,0.6-0.6l0,0c0.3,0,0.5,0.2,0.5,0.6l0,0v0.1l0,0v0.1l0,0l0,0l0,0c0,0.3-0.2,0.6-0.5,0.6l0,0
	C149.5,92,149.3,91.7,149.3,91.4z"/>
<path id="opacity:15_00000017497112714936831800000006189734422639969180_" fill="#6CB8C7" d="M149.2,88.5L149.2,88.5
	c0-0.3,0.2-0.6,0.5-0.6l0,0c0.3,0,0.6,0.2,0.6,0.5l0,0l0,0l0,0c0,0.3-0.2,0.6-0.5,0.6l0,0l0,0l0,0C149.5,89.1,149.2,88.8,149.2,88.5
	z"/>
<path id="opacity:15_00000133521150460072848040000004465377140385694639_" fill="#6CB8C7" d="M149.2,85.9c0-0.3,0.2-0.6,0.5-0.6
	l0,0c0.3,0,0.6,0.2,0.6,0.5l0,0c0,0.3-0.2,0.6-0.5,0.6l0,0l0,0l0,0C149.4,86.4,149.2,86.2,149.2,85.9z"/>
<path id="opacity:15_00000157279020519894083470000011300495873215065532_" fill="#6CB8C7" d="M149,83.2c0-0.3,0.2-0.6,0.5-0.6l0,0
	c0.3,0,0.6,0.2,0.6,0.5l0,0c0,0.3-0.2,0.6-0.5,0.6l0,0l0,0l0,0C149.3,83.7,149.1,83.5,149,83.2z"/>
<path id="opacity:15_00000152247754762405504090000013006669738507207040_" fill="#6CB8C7" d="M148.9,80.6L148.9,80.6
	c0-0.3,0.2-0.6,0.5-0.6l0,0c0.3,0,0.6,0.2,0.6,0.5l0,0c0,0.3-0.2,0.6-0.5,0.6l0,0l0,0l0,0C149.1,81.1,148.9,80.9,148.9,80.6z"/>
<path id="opacity:15_00000134946172880037874090000004705198817978384287_" fill="#6CB8C7" d="M148.7,77.9c0-0.3,0.2-0.6,0.5-0.6
	l0,0c0.3,0,0.6,0.2,0.6,0.5l0,0c0,0.3-0.2,0.6-0.5,0.6l0,0l0,0l0,0C148.9,78.4,148.7,78.2,148.7,77.9z"/>
<path id="opacity:30_00000021828660966260921850000011772199527377209522_" fill="#6CB8C7" d="M145.9,59.5c-0.1-0.3,0.1-0.6,0.4-0.7
	l0,0c0.3-0.1,0.6,0.1,0.7,0.4l0,0l0,0l0,0c0.1,0.3-0.1,0.6-0.4,0.7l0,0h-0.1l0,0C146.1,60,145.9,59.8,145.9,59.5z"/>
<path id="opacity:30_00000096764688680386738950000010353644735222270383_" fill="#6CB8C7" d="M145.3,56.9c-0.1-0.3,0.1-0.6,0.4-0.7
	l0,0c0.3-0.1,0.6,0.1,0.7,0.4l0,0c0.1,0.3-0.1,0.6-0.4,0.7l0,0h-0.1l0,0C145.6,57.4,145.3,57.2,145.3,56.9z"/>
<path id="opacity:30_00000087408197540188738210000005109279987849992834_" fill="#6CB8C7" d="M144.6,54.4c-0.1-0.3,0.1-0.6,0.4-0.7
	l0,0c0.3-0.1,0.6,0.1,0.7,0.4l0,0c0.1,0.3-0.1,0.6-0.4,0.7l0,0c-0.1,0-0.1,0-0.1,0l0,0C144.9,54.8,144.7,54.6,144.6,54.4z"/>
<path id="opacity:30_00000130626377607779029470000014046628395870642333_" fill="#6CB8C7" d="M144,51.8c-0.1-0.3,0.1-0.6,0.4-0.7
	l0,0c0.3-0.1,0.6,0.1,0.7,0.4l0,0c0.1,0.3-0.1,0.6-0.4,0.7l0,0h-0.1l0,0C144.2,52.2,144,52,144,51.8z"/>
<path id="opacity:30_00000172442065092893734910000017201827739574136215_" fill="#6CB8C7" d="M143.2,49.2L143.2,49.2
	c-0.1-0.3,0.1-0.6,0.4-0.7l0,0c0.3-0.1,0.6,0.1,0.7,0.4l0,0c0.1,0.3-0.1,0.6-0.4,0.7l0,0c0,0-0.1,0-0.2,0l0,0
	C143.5,49.6,143.3,49.5,143.2,49.2z"/>
<path id="opacity:30_00000165955854775458200230000003108075588510412719_" fill="#6CB8C7" d="M142.5,46.7c-0.1-0.3,0.1-0.6,0.4-0.7
	l0,0c0.3-0.1,0.6,0.1,0.7,0.4l0,0l0,0l0,0c0.1,0.3-0.1,0.6-0.4,0.7l0,0c-0.1,0-0.1,0-0.2,0l0,0C142.7,47.1,142.5,46.9,142.5,46.7z"
	/>
<path id="opacity:30_00000052806806573934455110000004939885755464675745_" fill="#6CB8C7" d="M141.6,44.2c-0.1-0.3,0.1-0.6,0.4-0.7
	l0,0c0.3-0.1,0.6,0.1,0.7,0.4l0,0c0.1,0.3-0.1,0.6-0.4,0.7l0,0c-0.1,0-0.1,0-0.2,0l0,0C141.9,44.5,141.7,44.4,141.6,44.2z"/>
<path id="opacity:30_00000111875441113774882640000004964575657843911316_" fill="#6CB8C7" d="M140.8,41.7c-0.1-0.3,0-0.6,0.3-0.7
	l0,0c0.3-0.1,0.6,0.1,0.7,0.3l0,0c0.1,0.3,0,0.6-0.3,0.7l0,0c-0.1,0-0.1,0-0.2,0l0,0C141.1,42,140.9,41.9,140.8,41.7z"/>
<path id="opacity:30_00000020367303424962569190000000778054127100062374_" fill="#6CB8C7" d="M139.9,39.2L139.9,39.2
	c-0.1-0.3,0-0.6,0.3-0.7l0,0c0.3-0.1,0.6,0,0.7,0.3l0,0c0.1,0.3,0,0.6-0.3,0.7l0,0c-0.1,0-0.1,0-0.2,0l0,0
	C140.2,39.5,140,39.4,139.9,39.2z"/>
<path id="opacity:30_00000018953399324798513750000000590819663881782974_" fill="#6CB8C7" d="M138.9,36.7c-0.1-0.3,0-0.6,0.3-0.7
	l0,0c0.3-0.1,0.6,0,0.7,0.3l0,0l0,0l0,0c0.1,0.3,0,0.6-0.3,0.7l0,0c-0.1,0-0.1,0-0.2,0l0,0C139.2,37,139,36.9,138.9,36.7z"/>
<path id="opacity:30_00000054236082048700087900000014400494316847087007_" fill="#6CB8C7" d="M137.9,34.2c-0.1-0.3,0-0.6,0.3-0.7
	l0,0c0.3-0.1,0.6,0,0.7,0.3l0,0c0.1,0.3,0,0.6-0.3,0.7l0,0c-0.1,0-0.2,0-0.2,0l0,0C138.2,34.6,138,34.4,137.9,34.2z"/>
<path id="opacity:30_00000178204963132162997080000008180991339646113409_" fill="#6CB8C7" d="M136.9,31.8c-0.1-0.3,0-0.6,0.3-0.7
	l0,0c0.3-0.1,0.6,0,0.7,0.3l0,0l0,0l0,0c0.1,0.3,0,0.6-0.3,0.7l0,0c-0.1,0-0.1,0-0.2,0l0,0C137.2,32.1,137,32,136.9,31.8z"/>
<path id="opacity:30_00000089536558943297048370000001777805940402513293_" fill="#6CB8C7" d="M135.8,29.4c-0.1-0.3,0-0.6,0.3-0.7
	l0,0c0.3-0.1,0.6,0,0.7,0.3l0,0c0.1,0.3,0,0.6-0.3,0.7l0,0c-0.1,0-0.2,0-0.2,0l0,0C136.1,29.7,135.9,29.6,135.8,29.4z"/>
<path id="opacity:30_00000109003638214679045200000003651449515191454091_" fill="#6CB8C7" d="M134.7,27c-0.1-0.3,0-0.6,0.3-0.7l0,0
	c0.3-0.1,0.6,0,0.7,0.3l0,0c0.1,0.3,0,0.6-0.3,0.8l0,0c-0.1,0-0.2,0.1-0.2,0.1l0,0C135,27.3,134.8,27.2,134.7,27z"/>
<path id="opacity:30_00000011724868052781768860000012135797133550630021_" fill="#6CB8C7" d="M133.5,24.6c-0.1-0.3,0-0.6,0.2-0.7
	l0,0c0.3-0.1,0.6,0,0.8,0.2l0,0l0,0l0,0c0.1,0.3,0,0.6-0.2,0.7l0,0c-0.1,0-0.2,0.1-0.2,0.1l0,0C133.8,24.9,133.6,24.8,133.5,24.6z"
	/>
<path id="opacity:30_00000005255314445655468850000000544480218484214183_" fill="#6CB8C7" d="M132.3,22.2L132.3,22.2
	c-0.1-0.3,0-0.6,0.2-0.8l0,0c0.3-0.1,0.6,0,0.8,0.2l0,0c0.1,0.3,0,0.6-0.2,0.8l0,0c-0.1,0-0.2,0.1-0.3,0.1l0,0
	C132.6,22.5,132.4,22.4,132.3,22.2z"/>
<path id="opacity:30_00000064334769308089297030000000737950803897729447_" fill="#6CB8C7" d="M131.1,19.9c-0.2-0.3-0.1-0.6,0.2-0.8
	l0,0c0.3-0.1,0.6-0.1,0.8,0.2l0,0c0.1,0.3,0,0.6-0.2,0.8l0,0c-0.1,0.1-0.2,0.1-0.3,0.1l0,0C131.4,20.2,131.2,20.1,131.1,19.9z"/>
<path id="opacity:30_00000116940555195540244000000004974214900788752531_" fill="#6CB8C7" d="M129.8,17.6c-0.1-0.3-0.1-0.6,0.2-0.8
	l0,0c0.3-0.1,0.6-0.1,0.8,0.2l0,0c0.1,0.3,0.1,0.6-0.2,0.8l0,0c-0.1,0-0.2,0.1-0.3,0.1l0,0C130.1,17.9,129.9,17.8,129.8,17.6z"/>
<path id="opacity:30_00000044163805459994609110000017887487495768798617_" fill="#6CB8C7" d="M128.4,15.3c-0.2-0.3-0.1-0.6,0.2-0.8
	l0,0c0.3-0.1,0.6-0.1,0.8,0.2l0,0l0,0l0,0c0.2,0.3,0.1,0.6-0.2,0.8l0,0c-0.1,0.1-0.2,0.1-0.3,0.1l0,0
	C128.7,15.6,128.5,15.5,128.4,15.3z"/>
<path id="opacity:80" fill="#6CB8C7" d="M158.4,76.5h-1.1c0.5,4.9,0.7,9.9,0.7,15c0,8.5-0.7,16.9-2,25h1.1c1.3-8.2,2-16.5,2-25
	C159.1,86.4,158.9,81.4,158.4,76.5z"/>
<polygon fill="#DB193B" points="159.2,71.2 159.5,72.1 155.7,72.1 155.3,71.2 "/>
</svg>
