<?xml version="1.0" encoding="utf-8"?>
<!-- Generator: Adobe Illustrator 27.8.0, SVG Export Plug-In . SVG Version: 6.00 Build 0)  -->
<svg version="1.1" baseProfile="tiny" id="Layer_1" xmlns="http://www.w3.org/2000/svg" xmlns:xlink="http://www.w3.org/1999/xlink"
	 x="0px" y="0px" viewBox="0 0 158 116.8" overflow="visible" xml:space="preserve">
<path fill="#1D3338" d="M0,0l0,116.8h6.4V61.6C6.4,60.2,7.6,59,9,59h119.2c2.3,0,4.5-1.2,5.7-3.2L158,16.4h-8l-5.6,7
	c-1,1.3-2.6,2-4.2,2h-38.8c-0.9,0-1.9-0.4-2.5-1.1L83,6.2c-1.3-1.5-3.2-2.3-5.2-2.3H8.7c-1.3,0-2.3-1-2.3-2.3V0L0,0z"/>
<path fill="#254850" d="M7.3,11.1H77c0.8,0,1.5,0.3,2,0.9l11.8,14.1c0.4,0.5,0.6,1.1,0.6,1.7v17.5c0,0.5-0.4,0.9-0.9,0.9H7.3
	c-0.5,0-0.9-0.4-0.9-0.9V12.1C6.4,11.6,6.8,11.1,7.3,11.1z"/>
<polygon fill="#DB193B" points="86.7,52.2 86.3,53.2 90.5,53.2 90.9,52.2 "/>
<path fill="#497D85" d="M79,52.7c0-0.3,0.2-0.6,0.6-0.6l0,0c0.3,0,0.6,0.2,0.6,0.6l0,0c0,0.3-0.2,0.6-0.6,0.6l0,0
	C79.2,53.3,79,53,79,52.7z M76.3,52.7c0-0.3,0.2-0.6,0.5-0.6l0,0c0.3,0,0.6,0.2,0.6,0.6l0,0c0,0.3-0.2,0.6-0.6,0.6l0,0
	C76.6,53.3,76.3,53,76.3,52.7z M73.7,52.7c0-0.3,0.2-0.6,0.6-0.6l0,0c0.3,0,0.6,0.2,0.6,0.6l0,0c0,0.3-0.2,0.6-0.6,0.6l0,0
	C73.9,53.3,73.7,53,73.7,52.7z M71,52.7c0-0.3,0.2-0.6,0.5-0.6l0,0c0.3,0,0.6,0.2,0.6,0.6l0,0c0,0.3-0.2,0.6-0.6,0.6l0,0
	C71.3,53.3,71,53,71,52.7z M68.3,52.7c0-0.3,0.2-0.6,0.6-0.6l0,0c0.3,0,0.5,0.2,0.5,0.6l0,0c0,0.3-0.2,0.6-0.5,0.6l0,0
	C68.6,53.3,68.3,53,68.3,52.7z M65.7,52.7c0-0.3,0.2-0.6,0.5-0.6l0,0c0.3,0,0.6,0.2,0.6,0.6l0,0c0,0.3-0.2,0.6-0.6,0.6l0,0
	C65.9,53.3,65.7,53,65.7,52.7z M63,52.7c0-0.3,0.2-0.6,0.6-0.6l0,0c0.3,0,0.5,0.2,0.5,0.6l0,0c0,0.3-0.2,0.6-0.5,0.6l0,0
	C63.3,53.3,63,53,63,52.7z M60.3,52.7c0-0.3,0.2-0.6,0.6-0.6l0,0c0.3,0,0.6,0.2,0.6,0.6l0,0c0,0.3-0.2,0.6-0.6,0.6l0,0
	C60.6,53.3,60.3,53,60.3,52.7z M57.7,52.7c0-0.3,0.2-0.6,0.6-0.6l0,0c0.3,0,0.5,0.2,0.5,0.6l0,0c0,0.3-0.2,0.6-0.5,0.6l0,0
	C57.9,53.3,57.7,53,57.7,52.7z M55,52.7c0-0.3,0.2-0.6,0.6-0.6l0,0c0.3,0,0.6,0.2,0.6,0.6l0,0c0,0.3-0.2,0.6-0.6,0.6l0,0
	C55.3,53.3,55,53,55,52.7z M52.3,52.7c0-0.3,0.2-0.6,0.6-0.6l0,0c0.3,0,0.5,0.2,0.5,0.6l0,0c0,0.3-0.2,0.6-0.5,0.6l0,0
	C52.6,53.3,52.3,53,52.3,52.7z M49.7,52.7c0-0.3,0.2-0.6,0.6-0.6l0,0c0.3,0,0.6,0.2,0.6,0.6l0,0c0,0.3-0.2,0.6-0.6,0.6l0,0
	C49.9,53.3,49.7,53,49.7,52.7z M47,52.7c0-0.3,0.2-0.6,0.6-0.6l0,0c0.3,0,0.6,0.2,0.6,0.6l0,0c0,0.3-0.2,0.6-0.6,0.6l0,0
	C47.3,53.3,47,53,47,52.7z M44.4,52.7c0-0.3,0.2-0.6,0.5-0.6l0,0c0.3,0,0.6,0.2,0.6,0.6l0,0c0,0.3-0.2,0.6-0.6,0.6l0,0
	C44.6,53.3,44.4,53,44.4,52.7z M41.7,52.7c0-0.3,0.2-0.6,0.6-0.6l0,0c0.3,0,0.6,0.2,0.6,0.6l0,0c0,0.3-0.2,0.6-0.6,0.6l0,0
	C41.9,53.3,41.7,53,41.7,52.7z M39,52.7c0-0.3,0.2-0.6,0.5-0.6l0,0c0.3,0,0.6,0.2,0.6,0.6l0,0c0,0.3-0.2,0.6-0.6,0.6l0,0
	C39.3,53.3,39,53,39,52.7z M36.4,52.7c0-0.3,0.2-0.6,0.6-0.6l0,0c0.3,0,0.5,0.2,0.5,0.6l0,0c0,0.3-0.2,0.6-0.5,0.6l0,0
	C36.6,53.3,36.4,53,36.4,52.7z M33.7,52.7c0-0.3,0.2-0.6,0.5-0.6l0,0c0.3,0,0.6,0.2,0.6,0.6l0,0c0,0.3-0.2,0.6-0.6,0.6l0,0
	C33.9,53.3,33.7,53,33.7,52.7z M31,52.7c0-0.3,0.2-0.6,0.6-0.6l0,0c0.3,0,0.5,0.2,0.5,0.6l0,0c0,0.3-0.3,0.6-0.5,0.6l0,0
	C31.3,53.3,31,53,31,52.7z M28.4,52.7c0-0.3,0.2-0.6,0.6-0.6l0,0c0.3,0,0.6,0.2,0.6,0.6l0,0c0,0.3-0.2,0.6-0.6,0.6l0,0
	C28.6,53.3,28.4,53,28.4,52.7z M25.7,52.7c0-0.3,0.2-0.6,0.6-0.6l0,0c0.3,0,0.5,0.2,0.5,0.6l0,0c0,0.3-0.2,0.6-0.5,0.6l0,0
	C25.9,53.3,25.7,53,25.7,52.7z M23,52.7c0-0.3,0.2-0.6,0.6-0.6l0,0c0.3,0,0.6,0.2,0.6,0.6l0,0c0,0.3-0.2,0.6-0.6,0.6l0,0
	C23.3,53.3,23,53,23,52.7z M20.4,52.7c0-0.3,0.2-0.6,0.6-0.6l0,0c0.3,0,0.5,0.2,0.5,0.6l0,0c0,0.3-0.2,0.6-0.5,0.6l0,0
	C20.6,53.3,20.4,53,20.4,52.7z M17.7,52.7c0-0.3,0.2-0.6,0.6-0.6l0,0c0.3,0,0.6,0.2,0.6,0.6l0,0c0,0.3-0.2,0.6-0.6,0.6l0,0
	C18,53.3,17.7,53,17.7,52.7z M15,52.7c0-0.3,0.2-0.6,0.6-0.6l0,0c0.3,0,0.6,0.2,0.6,0.6l0,0c0,0.3-0.2,0.6-0.6,0.6l0,0
	C15.3,53.3,15,53,15,52.7z M12.4,52.7c0-0.3,0.2-0.6,0.5-0.6l0,0c0.3,0,0.6,0.2,0.6,0.6l0,0c0,0.3-0.2,0.6-0.6,0.6l0,0
	C12.6,53.3,12.4,53,12.4,52.7z M9.7,52.7c0-0.3,0.2-0.6,0.6-0.6l0,0c0.3,0,0.6,0.2,0.6,0.6l0,0c0,0.3-0.2,0.6-0.6,0.6l0,0
	C10,53.3,9.7,53,9.7,52.7z M7,52.7c0-0.3,0.2-0.6,0.5-0.6l0,0c0.3,0,0.6,0.2,0.6,0.6l0,0c0,0.3-0.3,0.6-0.6,0.6l0,0
	C7.3,53.3,7,53,7,52.7z"/>
</svg>
