<?xml version="1.0" encoding="utf-8"?>
<!-- Generator: Adobe Illustrator 27.4.0, SVG Export Plug-In . SVG Version: 6.00 Build 0)  -->
<svg version="1.1" baseProfile="tiny" id="Border" xmlns="http://www.w3.org/2000/svg" xmlns:xlink="http://www.w3.org/1999/xlink"
	 x="0px" y="0px" viewBox="0 0 128 7" overflow="visible" xml:space="preserve">
<path fill="#6CB8C7" d="M49.6,7c0,1-0.8,2-2,2s-2-0.8-2-2s0.8-2,2-2S49.6,6,49.6,7z"/>
<path fill="none" stroke="#6CB8C7" stroke-linecap="round" stroke-miterlimit="10" d="M43.3,0H6.2C5.4,0,4.5,0.2,3.8,0.4
	C3,0.7,2.4,1.1,1.8,1.7c-0.5,0.6-1,1.3-1.3,2 M127.5,3.8c-0.3-0.8-0.8-1.4-1.4-1.9s-1.2-1-2-1.3c-0.7-0.3-1.6-0.5-2.4-0.5H51.9"/>
</svg>
