<?xml version="1.0" encoding="utf-8"?>
<!-- Generator: Adobe Illustrator 22.1.0, SVG Export Plug-In . SVG Version: 6.00 Build 0)  -->
<svg version="1.1" baseProfile="tiny" id="Layer_1" xmlns="http://www.w3.org/2000/svg" xmlns:xlink="http://www.w3.org/1999/xlink"
	 x="0px" y="0px" width="300px" height="300px" viewBox="0 0 300 300" xml:space="preserve">
<path fill="#FFFFFF" d="M150,250c55.2,0,100-44.8,100-100S205.2,50,150,50S50,94.8,50,150S94.8,250,150,250z M141.6,57.4L150,70
	l8.4-12.6c44.2,4,79.5,39,84.1,82.9L170,150l72.5,9.7c-4.6,44-39.9,79-84.1,82.9L150,230l-8.4,12.6c-44.2-4-79.5-39-84.1-82.9
	L130,150l-72.5-9.7C62.1,96.3,97.4,61.4,141.6,57.4z"/>
<path fill="#FFFFFF" d="M145.4,151.9c0.1,0.3,0.3,0.6,0.5,0.9c0.2,0.3,0.4,0.5,0.6,0.8c0.2,0.2,0.5,0.4,0.8,0.6
	c0.3,0.2,0.6,0.3,0.9,0.5c0.3,0.1,0.6,0.2,0.9,0.3c0.3,0.1,0.7,0.1,1,0.1s0.6,0,1-0.1c0.3-0.1,0.6-0.2,0.9-0.3
	c0.3-0.1,0.6-0.3,0.9-0.5c0.3-0.2,0.5-0.4,0.8-0.6c0.2-0.2,0.4-0.5,0.6-0.8c0.2-0.3,0.3-0.6,0.5-0.9c0.1-0.3,0.2-0.6,0.3-0.9
	c0.1-0.3,0.1-0.6,0.1-1c0-0.3,0-0.7-0.1-1c-0.1-0.3-0.2-0.6-0.3-0.9c-0.1-0.3-0.3-0.6-0.5-0.9c-0.2-0.3-0.4-0.5-0.6-0.8
	c-0.2-0.2-0.5-0.5-0.8-0.6c-0.3-0.2-0.6-0.3-0.9-0.5c-0.3-0.1-0.6-0.2-0.9-0.3c-0.6-0.1-1.3-0.1-2,0c-0.3,0.1-0.6,0.2-0.9,0.3
	c-0.3,0.1-0.6,0.3-0.9,0.5c-0.3,0.2-0.5,0.4-0.8,0.6c-0.2,0.2-0.4,0.5-0.6,0.8c-0.2,0.3-0.3,0.6-0.5,0.9c-0.1,0.3-0.2,0.6-0.3,0.9
	c-0.1,0.3-0.1,0.7-0.1,1c0,0.3,0,0.7,0.1,1C145.2,151.3,145.3,151.6,145.4,151.9z"/>
</svg>
