<?xml version="1.0" encoding="utf-8"?>
<!-- Generator: Adobe Illustrator 22.1.0, SVG Export Plug-In . SVG Version: 6.00 Build 0)  -->
<svg version="1.1" baseProfile="tiny" id="Layer_1" xmlns="http://www.w3.org/2000/svg" xmlns:xlink="http://www.w3.org/1999/xlink"
	 x="0px" y="0px" width="520px" height="520px" viewBox="0 0 520 520" xml:space="preserve">
<g>
	<path fill="none" d="M401.6,114.8c-25.2,0-45.6-20.4-45.6-45.6c0-1.3-1.1-2.4-2.4-2.4H166.4c-1.3,0-2.4,1.1-2.4,2.4
		c0,25.2-20.4,45.6-45.6,45.6c-1.3,0-2.4,1.1-2.4,2.4v183.9c0,26.2,12.4,50.9,33.3,66.7l110.7,83l110.7-83
		c21-15.7,33.3-40.4,33.3-66.7V117.2C404,115.8,402.9,114.8,401.6,114.8z"/>
	<path fill="#FDFFFF" d="M401.6,102.8c-18.5,0-33.6-15.1-33.6-33.6c0-7.9-6.5-14.4-14.4-14.4H166.4c-7.9,0-14.4,6.5-14.4,14.4
		c0,18.5-15.1,33.6-33.6,33.6c-7.9,0-14.4,6.5-14.4,14.4v183.9c0,29.9,14.3,58.4,38.1,76.3l110.7,83l7.2,5.4l7.2-5.4l110.7-83
		c23.9-17.9,38.1-46.4,38.1-76.3V117.2C416,109.2,409.5,102.8,401.6,102.8z M410,301.1c0,28-13.4,54.7-35.7,71.5l-110.7,83l-3.6,2.7
		l-3.6-2.7l-110.7-83C123.4,355.8,110,329,110,301.1V117.2c0-4.6,3.8-8.4,8.4-8.4c21.8,0,39.6-17.8,39.6-39.6c0-4.6,3.8-8.4,8.4-8.4
		h187.2c4.6,0,8.4,3.8,8.4,8.4c0,21.8,17.8,39.6,39.6,39.6c4.6,0,8.4,3.8,8.4,8.4V301.1z"/>
</g>
<g>
	<path fill="#FFFFFF" d="M401.6,114.8c-25.2,0-45.6-20.4-45.6-45.6c0-1.3-1.1-2.4-2.4-2.4H166.4c-1.3,0-2.4,1.1-2.4,2.4
		c0,25.2-20.4,45.6-45.6,45.6c-1.3,0-2.4,1.1-2.4,2.4v183.9c0,26.2,12.4,50.9,33.3,66.7l110.7,83l110.7-83
		c21-15.7,33.3-40.4,33.3-66.7V117.2C404,115.8,402.9,114.8,401.6,114.8z M181,85.9h158c6,22.3,23.5,39.8,45.8,45.8v19h-12.6
		l1.8-1.8v-8.5l-10.2,10.2h-3.5l12-12c-2-0.8-3.9-1.7-5.8-2.7l-14.7,14.7h-3.5l15.9-15.9c-1.8-1-3.5-2.1-5.2-3.3l-19.2,19.2h-3.5
		l20.7-20.7c-1.6-1.2-3.2-2.5-4.7-3.8l-24.4,24.4h-3.5l26.1-26.1c-1.5-1.4-2.9-2.8-4.2-4.2l-30.3,30.3h-3.5l32.2-32.2
		c-1.3-1.5-2.6-3.1-3.8-4.7l-36.9,36.9h-3.5l39-39c-1.2-1.7-2.3-3.4-3.3-5.2l-44.2,44.2h-3.5l46.4-46.4c-1-1.9-1.9-3.8-2.7-5.8
		l-52.2,52.2h-3.5l54-54h-8.5l-54,54h-3.5l54-54h-8.5l-54,54h-3.5l54-54h-8.5l-54,54h-3.5l54-54h-8.5l-54,54h-3.5l54-54h-8.5l-54,54
		h-3.5l54-54h-8.5l-54,54h-3.5l54-54h-8.5l-54,54h-3.5l54-54h-8.5l-54,54h-3.5l54-54h-8.5l-54,54h-3.5l54-54h-8.5l-54,54h-3.5l54-54
		h-8.5l-54,54h-12.6v-19C157.5,125.8,175,108.2,181,85.9z M308,243.1v-88.8h12v88.8H308z M272,243.1v-88.8h12v88.8H272z M236,243.1
		v-88.8h12v88.8H236z M200,243.1v-88.8h12v88.8H200z M135.2,243.1v-88.8H176v88.8H135.2z M344,154.4h40.8v88.8H344V154.4z
		 M359.1,352.4L260,426.8l-99.1-74.4c-16.1-12.1-25.7-31.2-25.7-51.3v-54.3h12.6l-1.8,1.8v8.5l10.2-10.2h3.5L146,260.5v8.5
		l22.2-22.2h3.5L146,272.5v8.5l34.2-34.2h3.5L146,284.5v8.5l46.2-46.2h3.5L146,296.5v4.6c0,1.3,0.1,2.5,0.2,3.8l58.1-58.1h3.5
		L146.5,308c0.3,2.4,0.8,4.7,1.4,7l68.3-68.3h3.5l-71,71c0.7,2.1,1.5,4.1,2.4,6.1l77.1-77.1h3.5l-79.4,79.4c1,1.8,2,3.6,3.2,5.3
		l84.7-84.7h3.5L157,333.5c1.2,1.6,2.5,3.1,3.9,4.6l91.3-91.3h3.5l-93.1,93.1c1.5,1.4,3,2.7,4.6,3.9l97-97h3.5l-98.5,98.5l4.8,3.6
		l43.4-43.4l-2.3-2.2l5.1-0.6l55.9-55.9h3.5l-55.5,55.5l9.6-1.1l22.5-22.5l3.6-7.9l1.3,2.9l26.9-26.9h3.5l-29.3,29.3l2.7,5.8
		l35.1-35.1h3.5l-37.5,37.5l2.7,5.8l43.3-43.3h3.5L270,292.5l2.7,5.8l51.5-51.5h3.5l-53,53l7.6,0.9l53.9-53.9h3.5L285.5,301l7.6,0.9
		l55.2-55.2h3.5l-55.5,55.5l7.6,0.9l56.4-56.4h3.5l-81.6,81.6l1.4,7.1l88.6-88.6h12.6v54.3C384.8,321.2,375.2,340.3,359.1,352.4z"/>
	<path fill="#FFFFFF" d="M189.8,96.8l-1.7,1.7c-7.7,18.2-22.2,32.7-40.4,40.4l-1.7,1.7v8.5l52.2-52.2H189.8z"/>
	<polygon fill="#FFFFFF" points="219.4,307.1 176.1,350.4 181,354 223.8,311.2 	"/>
	<polygon fill="#FFFFFF" points="253.4,285.1 237.9,300.6 246.7,299.6 	"/>
	<polygon fill="#FFFFFF" points="225.6,312.9 183,355.5 187.9,359.1 230,317 	"/>
	<polygon fill="#FFFFFF" points="231.8,318.7 189.9,360.6 194.7,364.3 236.3,322.7 	"/>
	<polygon fill="#FFFFFF" points="238.5,324.8 238.1,324.4 196.7,365.8 201.6,369.4 236.6,334.4 	"/>
	<polygon fill="#FFFFFF" points="235.7,338.8 203.6,370.9 208.4,374.6 233.6,349.4 	"/>
	<polygon fill="#FFFFFF" points="232.3,355.9 232.8,353.8 210.4,376.1 215.3,379.7 247.6,347.4 	"/>
	<polygon fill="#FFFFFF" points="260,340.4 255.6,342.9 217.3,381.2 222.1,384.9 264.2,342.8 	"/>
	<polygon fill="#FFFFFF" points="281.6,325.4 290.5,316.5 281.5,324.8 	"/>
	<polygon fill="#FFFFFF" points="266.5,344.1 224.1,386.4 229,390 271.9,347.1 	"/>
	<polygon fill="#FFFFFF" points="274.1,348.4 231,391.5 235.9,395.1 279.6,351.4 	"/>
	<polygon fill="#FFFFFF" points="285.6,345.4 374,257 374,248.5 284.2,338.3 	"/>
	<polygon fill="#FFFFFF" points="281.8,352.7 237.9,396.6 242.7,400.3 287.3,355.7 	"/>
	<polygon fill="#FFFFFF" points="287.6,355.4 374,269 374,260.5 286.2,348.3 	"/>
	<polygon fill="#FFFFFF" points="249.6,405.4 374,281 374,272.5 244.7,401.8 	"/>
	<polygon fill="#FFFFFF" points="256.4,410.6 374,293 374,284.5 251.6,406.9 	"/>
	<path fill="#FFFFFF" d="M260,413.3l23-17.2l90.8-90.9c0.1-1.4,0.2-2.7,0.2-4.1v-4.6L258.4,412.1L260,413.3z"/>
	<path fill="#FFFFFF" d="M331,360l39.2-39.2c1.5-3.8,2.6-7.7,3.2-11.7L297,385.5L331,360z"/>
	<path fill="#FFFFFF" d="M352.7,343.8c5.9-4.4,10.7-9.9,14.2-16.1L345,349.5L352.7,343.8z"/>
	<polygon fill="#FFFFFF" points="235.7,351.3 260,337.7 284.3,351.3 278.9,324 299.3,305.1 271.7,301.8 260,276.5 248.3,301.8 
		220.7,305.1 241.1,324 	"/>
</g>
</svg>
