<?xml version="1.0" encoding="utf-8"?>
<!-- Generator: Adobe Illustrator 22.1.0, SVG Export Plug-In . SVG Version: 6.00 Build 0)  -->
<svg version="1.1" baseProfile="tiny" id="Layer_1" xmlns="http://www.w3.org/2000/svg" xmlns:xlink="http://www.w3.org/1999/xlink"
	 x="0px" y="0px" width="520px" height="520px" viewBox="0 0 520 520" xml:space="preserve">
<g>
	<path fill="#B0FFC9" d="M139.7,270.6c0.9-1.1,1.3-2.6,0.8-4c-0.7-2.1-3-3.3-5.2-2.5c-2.1,0.7-3.3,3-2.5,5.2
		c0.5,1.4,1.7,2.4,3.1,2.6l2,5.9c0.4,1.1,1.5,1.6,2.6,1.3c1.1-0.4,1.6-1.5,1.3-2.6L139.7,270.6z"/>
	<path fill="#B0FFC9" d="M454.5,265.9c4.2-1.5,6.5-6.1,5-10.3c-1.5-4.2-6.1-6.5-10.3-5c-4.2,1.5-6.5,6.1-5,10.3
		C445.6,265.1,450.2,267.4,454.5,265.9z M449.7,252.1c3.4-1.2,7.1,0.6,8.3,4c1.2,3.4-0.6,7.1-4,8.3c-3.4,1.2-7.1-0.6-8.3-4
		S446.3,253.2,449.7,252.1z"/>
	<path fill="#B0FFC9" d="M362.8,193.6l2,5.9c0.4,1.1,1.5,1.6,2.6,1.3c1.1-0.4,1.6-1.5,1.3-2.6l-2-5.9c0.9-1.1,1.3-2.6,0.8-4
		c-0.7-2.1-3-3.3-5.2-2.5c-2.1,0.7-3.3,3-2.5,5.2C360.2,192.4,361.4,193.4,362.8,193.6z"/>
	<path fill="#B0FFC9" d="M448.2,260.3l3.1-1.1l1.1,3.1c0.1,0.4,0.6,0.7,1,0.5c0.4-0.1,0.7-0.6,0.5-1l-1.1-3.1l3.1-1.1
		c0.4-0.1,0.7-0.6,0.5-1c-0.1-0.4-0.6-0.7-1-0.5l-3.1,1.1l-1.1-3.1c-0.1-0.4-0.6-0.7-1-0.5c-0.4,0.1-0.7,0.6-0.5,1l1.1,3.1l-3.1,1.1
		c-0.4,0.1-0.7,0.6-0.5,1C447.4,260.2,447.8,260.5,448.2,260.3z"/>
	<path fill="#B0FFC9" d="M199.9,414c-4.2,1.5-6.5,6.1-5,10.3c1.5,4.2,6.1,6.5,10.3,5c4.2-1.5,6.5-6.1,5-10.3
		C208.8,414.8,204.2,412.6,199.9,414z M204.7,427.9c-3.4,1.2-7.1-0.6-8.3-4c-1.2-3.4,0.6-7.1,4-8.3c3.4-1.2,7.1,0.6,8.3,4
		C209.9,423,208.1,426.7,204.7,427.9z"/>
	<path fill="#B0FFC9" d="M206.2,419.6l-3.1,1.1l-1.1-3.1c-0.1-0.4-0.6-0.7-1-0.5c-0.4,0.1-0.7,0.6-0.5,1l1.1,3.1l-3.1,1.1
		c-0.4,0.1-0.7,0.6-0.5,1c0.1,0.4,0.6,0.7,1,0.5l3.1-1.1l1.1,3.1c0.1,0.4,0.6,0.7,1,0.5c0.4-0.1,0.7-0.6,0.5-1l-1.1-3.1l3.1-1.1
		c0.4-0.1,0.7-0.6,0.5-1C207.1,419.7,206.6,419.5,206.2,419.6z"/>
	<path fill="#B0FFC9" d="M107.4,372.8l1.1,3.1l-3.1,1.1c-0.4,0.1-0.7,0.6-0.5,1c0.1,0.4,0.6,0.7,1,0.5l3.1-1.1l1.1,3.1
		c0.1,0.4,0.6,0.7,1,0.5s0.7-0.6,0.5-1l-1.1-3.1l3.1-1.1c0.4-0.1,0.7-0.6,0.5-1c-0.1-0.4-0.6-0.6-1-0.5l-3.1,1.1l-1.1-3.1
		c-0.1-0.4-0.6-0.7-1-0.5C107.4,371.9,107.2,372.4,107.4,372.8z"/>
	<path fill="#B0FFC9" d="M410.1,349.3l-3.1,1.1l-1.1-3.1c-0.1-0.4-0.6-0.7-1-0.5c-0.4,0.1-0.7,0.6-0.5,1l1.1,3.1l-3.1,1.1
		c-0.4,0.1-0.7,0.6-0.5,1c0.1,0.4,0.6,0.7,1,0.5l3.1-1.1l1.1,3.1c0.1,0.4,0.6,0.7,1,0.5s0.7-0.6,0.5-1l-1.1-3.1l3.1-1.1
		c0.4-0.1,0.7-0.6,0.5-1C410.9,349.3,410.5,349.1,410.1,349.3z"/>
	<path fill="#B0FFC9" d="M260,18.5c-132.5,0-240.3,107.8-240.3,240.3S127.5,499.2,260,499.2s240.3-107.8,240.3-240.3
		S392.5,18.5,260,18.5z M329.5,121.8c10.1-3.5,21.2,1.9,24.7,12l7.2,21c2.5,7.3,0.4,15-4.7,20.1L352,161c-0.6-1.7-1.6-3.2-2.8-4.4
		l-5-14.4c0.8-3.4-0.3-7.1-3.1-9.5L328.8,122L329.5,121.8z M330.4,168.4l4.8,13.9c-7.2-0.9-13.6-5.7-16.1-13l-7.2-21
		c-1.3-3.8-1.4-7.7-0.4-11.3l13.5,11.7l4.9,14.3C329.7,164.9,329.8,166.7,330.4,168.4z M327,146.3l-34.4-29.9
		c-3.4-2.9-3.8-8.1-0.8-11.5c2.9-3.4,8.1-3.8,11.5-0.8l34.4,29.9c3.4,2.9,3.8,8.1,0.8,11.5C335.6,148.9,330.4,149.3,327,146.3z
		 M254.7,96.1c1-5.1,3.9-9.5,8.2-12.4c4.3-2.9,9.5-4,14.6-3l21.8,4.2c5.1,1,9.5,3.9,12.4,8.2c2.9,4.3,4,9.5,3,14.6l-0.3,1.7
		l-10.1-8.8c-1.2-1-2.5-1.7-4-2.1c-0.9-0.8-2.1-1.4-3.3-1.6l-21.8-4.2c-0.7-0.1-1.4-0.2-2.1-0.1c-1.7-0.3-3.4-0.3-5.2,0.3l-13.5,4.6
		L254.7,96.1z M144.6,194.8c2.9,2.2,5.2,5.3,6.5,9.1l7.2,21c2.5,7.3,0.4,15-4.7,20.1l-5.3-15.5c-0.6-1.6-1.5-3-2.7-4.1l-4.5-13
		L144.6,194.8z M138,211.5c-0.9,4.4-5.1,7.3-9.5,6.4c-4.4-0.9-7.3-5.1-6.4-9.5l8.7-44.7c0.9-4.4,5.1-7.3,9.5-6.4
		c4.4,0.9,7.3,5.1,6.4,9.5L138,211.5z M155.3,175.7c-2.2,2.5-5,4.4-8,5.5l3-15.4c0.2-1,0.2-2.1,0.1-3.1l6.7-7.7
		c0.7-0.1,1.4-0.2,2.2-0.5l15.1-5.2c-0.6,3.5-2.1,6.8-4.5,9.6L155.3,175.7z M159.6,151c-4.2,1.5-8.9-0.8-10.3-5
		c-1.5-4.2,0.8-8.9,5-10.3l43.1-14.9c4.2-1.5,8.9,0.8,10.3,5c1.5,4.2-0.8,8.9-5,10.3L159.6,151z M205.3,138.7
		c1.4-0.5,2.7-1.3,3.7-2.3l15.8-5.5c1.4,0.2,2.9,0,4.3-0.5l14.9-5.1c-0.8,7.3-5.6,13.8-13,16.4l-21,7.2c-7.4,2.5-15.2,0.4-20.3-4.9
		L205.3,138.7z M229.6,126.8c-4.2,1.5-8.9-0.8-10.3-5c-1.5-4.2,0.8-8.9,5-10.3l43.1-14.9c4.2-1.5,8.9,0.8,10.3,5
		c1.5,4.2-0.8,8.9-5,10.3L229.6,126.8z M195.5,106.6l21-7.2c7.2-2.5,14.8-0.5,19.9,4.5l-14.7,5.1c-1.8,0.6-3.3,1.7-4.4,3.1
		l-14.2,4.9c-1.7-0.4-3.5-0.3-5.3,0.3l-15.3,5.3C183.5,115.3,188.3,109.1,195.5,106.6z M121.5,146.3l14.5-16.7
		c3.4-3.9,8.1-6.3,13.3-6.6c5.2-0.4,10.2,1.3,14.1,4.7l1.1,1l-12.8,4.4c-1.6,0.6-3,1.5-4.1,2.7c-0.9,0.4-1.7,1-2.4,1.8l-14.5,16.7
		c-1,1.2-1.6,2.7-1.7,4.2c-0.5,0.9-0.9,1.9-1.1,2.9l-2.7,13.8l-1.8-1.5c-3.9-3.4-6.3-8.1-6.6-13.3
		C116.4,155.3,118,150.3,121.5,146.3z M120.8,193.8l0.8-0.3l-3.1,15.9c-0.7,3.6,0.7,7.1,3.2,9.3l4.6,13.4c-0.3,1.6-0.2,3.2,0.4,4.9
		l5.3,15.5c-7.2-0.9-13.6-5.7-16.1-13l-7.2-21C105.3,208.4,110.7,197.3,120.8,193.8z M106.5,388.2c2.3,0.6,4.7,0.5,7-0.3
		c2.8-1,5.1-2.9,6.6-5.4c6.5,12.6,17,23,29.8,29.2c12.8,6.3,27.5,8.2,41.4,5.5c-1.1,2.7-1.2,5.7-0.2,8.5c0.8,2.3,2.2,4.2,4.1,5.7
		C159.4,438.9,122.6,421,106.5,388.2z M254.3,384.9c-8,18.7-22.5,33.7-40.9,42.2c-2.5,1.2-5.2,2.2-7.8,3.2
		c-4.7,1.6-9.8-0.9-11.4-5.5c-1.6-4.7,0.9-9.8,5.5-11.4c2.2-0.8,4.5-1.7,6.8-2.8c29.5-14.1,43.6-48,33-78.9
		c-11.6-33.5-48.2-51.4-81.8-39.8c-30.9,10.7-48.9,42.7-41.8,74.6c0.5,2.5,1.2,4.9,2,7.1c1.6,4.7-0.9,9.8-5.5,11.4
		c-4.7,1.6-9.8-0.9-11.4-5.5c-0.9-2.7-1.7-5.4-2.3-8.1c-4.6-19.7-1.8-40.4,8-58.2c4.5-8.2,10.3-15.5,17.2-21.7l-2-23.4
		c-0.4-4.4,2.3-8.5,6.4-9.9l8.3-2.9l-6.1-17.7c-1.5-4.2,0.8-8.9,5-10.3s8.9,0.8,10.3,5l6.1,17.7l8.3-2.9c4.2-1.4,8.8,0.1,11.2,3.8
		l12.8,19.7c32,2.2,61.1,23.1,72.2,55.2C263.1,345,262.3,366,254.3,384.9z M290.7,128.9l-21.8-4.2c-3.6-0.7-6.8-2.4-9.4-4.8
		l15.8-5.4c0.5-0.2,1.1-0.4,1.6-0.7l10.7,2.1c0.5,0.7,1,1.4,1.7,2l11.8,10.3c-0.1,0-0.2,0.1-0.3,0.1
		C297.6,129.3,294.1,129.6,290.7,128.9z M409.4,359.8c-2.7,0.9-5.4,1.7-8.1,2.3c-19.7,4.6-40.4,1.8-58.2-8
		c-18-9.8-31.5-25.9-38.2-45.3c-11.1-32.1-1-66.6,22.8-88l-2-23.4c-0.4-4.4,2.3-8.5,6.4-9.9l7.5-2.6l-6.1-17.7
		c-1.5-4.2,0.8-8.9,5-10.3c4.2-1.5,8.9,0.8,10.3,5l6.1,17.7l9.1-3.1c4.2-1.4,8.8,0.1,11.2,3.8l12.8,19.7c9.2,0.6,18.3,2.8,26.9,6.5
		c18.7,8,33.7,22.5,42.2,40.9c1.2,2.5,2.2,5.2,3.2,7.8c1.6,4.7-0.9,9.8-5.5,11.4c-4.7,1.6-9.8-0.9-11.4-5.5
		c-0.8-2.2-1.7-4.5-2.8-6.8c-14.1-29.5-48-43.6-78.9-33c-33.5,11.6-51.4,48.2-39.8,81.8c10.7,30.9,42.7,48.9,74.6,41.8
		c2.5-0.6,4.9-1.2,7.1-2c4.7-1.6,9.8,0.9,11.4,5.5C416.6,353.1,414.1,358.2,409.4,359.8z M418.3,354.4c0.6-2.3,0.5-4.7-0.3-7
		c-1-2.8-2.9-5.1-5.4-6.6c12.6-6.5,23-17,29.2-29.8c6.3-12.8,8.2-27.5,5.5-41.4c2.7,1.1,5.7,1.2,8.5,0.2c2.3-0.8,4.2-2.2,5.7-4.1
		C469,301.5,451.1,338.2,418.3,354.4z"/>
	<path fill="#B0FFC9" d="M403.8,343.7c-4.2,1.5-6.5,6.1-5,10.3c1.5,4.2,6.1,6.5,10.3,5s6.5-6.1,5-10.3
		C412.7,344.5,408.1,342.2,403.8,343.7z M408.6,357.5c-3.4,1.2-7.1-0.6-8.3-4c-1.2-3.4,0.6-7.1,4-8.3s7.1,0.6,8.3,4
		C413.8,352.6,412,356.3,408.6,357.5z"/>
	<path fill="#B0FFC9" d="M106.8,368.7c-4.2,1.5-6.5,6.1-5,10.3c1.5,4.2,6.1,6.5,10.3,5c4.2-1.5,6.5-6.1,5-10.3
		S111.1,367.2,106.8,368.7z M115.6,374.2c1.2,3.4-0.6,7.1-4,8.3s-7.1-0.6-8.3-4c-1.2-3.4,0.6-7.1,4-8.3
		C110.7,369,114.5,370.8,115.6,374.2z"/>
	<path fill="#B0FFC9" d="M439.5,80.5C391.5,32.6,327.8,6.2,260,6.2S128.5,32.6,80.5,80.5S6.2,192.2,6.2,260s26.4,131.5,74.3,179.5
		c47.9,47.9,111.7,74.3,179.5,74.3s131.5-26.4,179.5-74.3s74.3-111.7,74.3-179.5S487.4,128.5,439.5,80.5z M260,510.8
		C121.7,510.8,9.2,398.3,9.2,260C9.2,121.7,121.7,9.2,260,9.2c138.3,0,250.8,112.5,250.8,250.8C510.8,398.3,398.3,510.8,260,510.8z"
		/>
</g>
</svg>
