<?xml version="1.0" encoding="utf-8"?>
<!-- Generator: Adobe Illustrator 26.4.1, SVG Export Plug-In . SVG Version: 6.00 Build 0)  -->
<svg version="1.1" baseProfile="tiny" id="Layer_3" xmlns="http://www.w3.org/2000/svg" xmlns:xlink="http://www.w3.org/1999/xlink"
	 x="0px" y="0px" viewBox="0 0 280 280" overflow="visible" xml:space="preserve">
<polygon fill="#FFFFFF" points="130.3,156.9 131.1,141.6 115.8,147.5 "/>
<polygon fill="#FFFFFF" points="164.2,147.5 149,141.6 149.7,156.9 "/>
<path fill="#FFFFFF" d="M140,12.7c-64,0-116.1,52.1-116.1,116.1S76,244.9,140,244.9s116.1-52.1,116.1-116.1S204,12.7,140,12.7z
	 M140,238.3c-60.4,0-109.5-49.1-109.5-109.5S79.6,19.3,140,19.3s109.5,49.1,109.5,109.5S200.4,238.3,140,238.3z"/>
<path fill="#FFFFFF" d="M213.7,202.9c19-18.9,30.9-45.2,30.9-74.1c0-14.3-2.9-27.9-8.1-40.4h-0.1h-1.5h-89.7c0.8,3,1.5,5.7,1.5,5.7
	l3.5,1.9l0.7,3l-3.5-0.4l2.5,9.5l0.1,8.9l18.5,21.9l1.1,12.1c0,0-0.6,3.8-0.6,5.2s-2.3,2.4-3.8,3.3c-1.4,0.9-17,12.6-17,12.6
	s-4.2,6-4.7,6.6c-0.6,0.7-1.4,1.3-2.3,1.3c-0.9,0-1.3,0-1.3,0s-0.5,0-1.3,0c-0.9,0-1.8-0.7-2.3-1.3c-0.6-0.7-4.7-6.6-4.7-6.6
	s-15.5-11.7-17-12.6c-1.4-0.9-3.8-1.9-3.8-3.3s-0.6-5.2-0.6-5.2l1.1-12.1L130,117l0.1-8.9l2.5-9.5L129,99l0.7-3l3.5-1.9
	c0,0,0.7-2.7,1.5-5.7H45.3h-1.7h-0.1c-5.2,12.4-8.1,26.1-8.1,40.4c0,28.9,11.8,55.2,30.9,74.1l3.1-50.5l0.2,1.9l-0.7,51.1
	c0.7,0.6,1.4,1.3,2.1,1.9l1.5-53.9l0.1,0.5l0.7,3.1h1.5h1.5l0.7-3.1l0.1-0.5l1.7,60.1c0.9,0.7,1.8,1.3,2.8,2l-1.3-61.1l0.2-1.9
	l4.7,65.4c8.1,5,16.9,9,26.3,11.6l7.1-61.4c0.7,0.5,1.5,1.1,2.3,1.7l-6.3,60.5c1.8,0.4,3.6,0.8,5.4,1.2l5.1-58.3
	c1.4,1,2.8,2.1,4.2,3.2c0.1,0.1,0.1,0.2,0.2,0.3l-3.7,55.8c2.5,0.3,5.1,0.6,7.7,0.8l1.4-49.5l2.5,4.8h2.8h2.8l2.5-4.8l1.5,49.5
	c2.5-0.2,5-0.4,7.4-0.7l-3.7-55.8c0.1-0.1,0.1-0.2,0.2-0.3c1.4-1.1,2.8-2.1,4.2-3.2l5.1,58.3c1.8-0.4,3.6-0.8,5.4-1.2l-6.3-60.5
	c0.8-0.6,1.6-1.2,2.3-1.7l7.1,61.4c9.4-2.7,18.2-6.6,26.3-11.6l4.7-65.4l0.2,1.9l-1.3,61.1c0.9-0.6,1.9-1.3,2.8-2l1.7-60.1l0.1,0.5
	l0.7,3.1h1.5h1.5l0.7-3.1l0.1-0.5l1.5,53.9c0.7-0.6,1.4-1.2,2.1-1.9l-0.7-51.1l0.2-1.9L213.7,202.9z M84.7,145.7h-7.4l-1.7,4.1h-1.5
	l-1.7-4.1h-7.4v-4.4l5.7-5.9l3.1-16.5h1H76l2.9,16.5l5.7,5.9V145.7z M207.6,145.7l-1.7,4.1h-1.5l-1.7-4.1h-7.4v-4.4l5.7-5.9
	l2.9-16.5h1.2h1l3.1,16.5l5.7,5.9v4.4H207.6z"/>
<path fill="#FFFFFF" d="M233.4,82h-11h-5V65.9h-17.1V82h-17.1V65.9h-17.1V82H149V65.9h-17.1V82h-17.1V65.9H97.7V82H80.6V65.9H63.4
	V82h-5.1H46.6h-0.1c-0.7,1.4-1.4,2.9-2.1,4.3h0.1h0.8h90c0.9-3.1,1.8-6,2.1-6.3c0.8-0.7,2.5-1.2,2.5-1.2s1.8,0.6,2.5,1.2
	c0.4,0.3,1.2,3.2,2.1,6.3h90.2h0.6h0.1C234.9,84.9,234.2,83.4,233.4,82L233.4,82z"/>
<g>
	<path fill="#FFFFFF" d="M63.4,57.6c-2.5,2.6-4.8,5.4-7,8.3h1.9v0h5.1v-2.6v-5.6V57.6z"/>
	<path fill="#FFFFFF" d="M203.4,45.8h-2.9H80.9h-4.2h-0.1c-1.7,1.3-3.4,2.7-5,4.1h0.1h3.1h5.9v16.1h17.1V49.9h17.1v16.1h17.1V49.9
		H149v16.1h17.1V49.9h17.1v16.1h17.1V49.9h7.3h0.8h0.1c-1.6-1.4-3.3-2.8-5-4.1H203.4z"/>
</g>
<path fill="#FFFFFF" d="M217.5,58.6c2.1,2.3,4.2,4.8,6.1,7.3h-1.6v0h-4.4v-2.3v-4.9V58.6z"/>
<path fill="#FFFFFF" d="M200.6,43.6c-17.1-12.2-38-19.4-60.6-19.4s-43.5,7.2-60.6,19.4H200.6z"/>
</svg>
