<?xml version="1.0" encoding="utf-8"?>
<!-- Generator: Adobe Illustrator 26.4.1, SVG Export Plug-In . SVG Version: 6.00 Build 0)  -->
<svg version="1.1" baseProfile="tiny" id="icon_x5F_reputation_x5F_aciedo_x5F_header"
	 xmlns="http://www.w3.org/2000/svg" xmlns:xlink="http://www.w3.org/1999/xlink" x="0px" y="0px" viewBox="0 0 280 280"
	 overflow="visible" xml:space="preserve">
<g>
	<path fill="#FFFFFF" d="M140,12.7c-64,0-116.1,52.1-116.1,116.1S76,244.9,140,244.9s116.1-52.1,116.1-116.1S204,12.7,140,12.7z
		 M208.8,55.7c1.5-1.5,4-1.5,5.5,0s1.5,4,0,5.5c-0.7,0.8-1.7,1.1-2.7,1.1s-2-0.4-2.8-1.1C207.3,59.7,207.3,57.2,208.8,55.7z
		 M66.1,56.3c1.5-1.5,4-1.5,5.5,0s1.5,4,0,5.5c-0.7,0.7-1.7,1.1-2.7,1.1s-2-0.4-2.8-1.1C64.6,60.3,64.6,57.8,66.1,56.3z M71.3,200.7
		c-0.7,0.7-1.7,1.1-2.7,1.1s-2-0.4-2.8-1.1c-1.5-1.5-1.5-4,0-5.5s4-1.5,5.5,0S72.8,199.2,71.3,200.7z M214.1,201.2
		c-0.7,0.7-1.7,1.1-2.7,1.1s-2-0.4-2.8-1.1c-1.5-1.5-1.5-4,0-5.5s4-1.5,5.5,0S215.6,199.7,214.1,201.2z M241.2,131
		c-1.1,0-2.1-0.7-2.5-1.7h-58.6v7.8h25.8l9.4,7.7h9.7c0.4-1,1.4-1.7,2.5-1.7c1.5,0,2.7,1.2,2.7,2.7s-1.2,2.7-2.7,2.7
		c-1.1,0-2.1-0.7-2.5-1.7h-10.5l-9.3-7.6h-25.1v20.6l-6.5,6.4H151v28.2l7.6,9.3v12.5c1,0.4,1.7,1.4,1.7,2.5c0,1.5-1.2,2.7-2.7,2.7
		c-1.5,0-2.7-1.2-2.7-2.7c0-1.1,0.7-2.1,1.7-2.5l-0.1-11.7l-7.6-9.4v-28.9h-7.8v63.7c0.9,0.4,1.6,1.4,1.6,2.5c0,1.5-1.2,2.7-2.7,2.7
		s-2.7-1.2-2.7-2.7c0-1.1,0.7-2.1,1.7-2.5v-63.7h-7.9v28.9l-7.7,9.4v11.7c1,0.4,1.7,1.4,1.7,2.5c0,1.5-1.2,2.7-2.7,2.7
		c-1.5,0-2.7-1.2-2.7-2.7c0-1.1,0.7-2.1,1.7-2.5v-12.5l7.6-9.3v-28.2h-22.6l-6.4-6.4v-20.5H74.2l-9.3,7.6h-9.7
		c-0.4,1-1.4,1.7-2.5,1.7c-1.5,0-2.7-1.2-2.7-2.7c0-1.5,1.2-2.7,2.7-2.7c1.1,0,2.1,0.7,2.5,1.7l8.9-0.1l9.4-7.6H100v-7.8H41.5
		c-0.4,0.9-1.4,1.6-2.5,1.6c-1.5,0-2.7-1.2-2.7-2.7s1.2-2.7,2.7-2.7c1.1,0,2.1,0.7,2.5,1.7H100v-7.9H73.5l-9.4-7.6h-8.9
		c-0.4,0.9-1.4,1.6-2.5,1.6c-1.5,0-2.7-1.2-2.7-2.7c0-1.5,1.2-2.7,2.7-2.7c1.1,0,2.1,0.7,2.5,1.7h9.7l9.3,7.6H100V96.5l6.4-6.4H129
		V67.4l-7.6-9.4V45.4c-1-0.4-1.7-1.4-1.7-2.5c0-1.5,1.2-2.7,2.7-2.7c1.5,0,2.7,1.2,2.7,2.7c0,1.1-0.7,2.1-1.7,2.5l0.1,11.8l7.6,9.4
		v23.5h7.9V31.7c-1-0.4-1.7-1.4-1.7-2.5c0-1.5,1.2-2.7,2.7-2.7s2.7,1.2,2.7,2.7c0,1.1-0.7,2-1.6,2.5v58.4h7.8V66.5l7.6-9.3V45.4
		c-0.9-0.4-1.6-1.4-1.6-2.5c0-1.5,1.2-2.7,2.7-2.7c1.5,0,2.7,1.2,2.7,2.7c0,1.1-0.7,2.1-1.7,2.5v12.5l-7.6,9.4v22.8h22.7l6.4,6.4
		v20.7h25.1l9.3-7.6H225c0.4-1,1.4-1.7,2.5-1.7c1.5,0,2.7,1.2,2.7,2.7c0,1.5-1.2,2.7-2.7,2.7c-1.1,0-2.1-0.7-2.5-1.7l-9.7,0.1
		l-9.4,7.6h-25.8v7.9h58.6c0.4-0.9,1.4-1.6,2.5-1.6c1.5,0,2.7,1.2,2.7,2.7S242.7,131,241.2,131z"/>
</g>
<path fill="#FFFFFF" d="M117.5,105.8v44.8h44.8v-44.8H117.5z M156.7,145h-33.5v-33.5h33.5V145z"/>
<path fill="#FFFFFF" d="M124.8,113.1v30.2H155v-30.2H124.8z M132.4,138.7h-3v-3h3V138.7z M132.4,132.7h-3v-3h3V132.7z M132.4,126.7
	h-3v-3h3V126.7z M132.4,120.7h-3v-3h3V120.7z M138.5,138.7h-3v-3h3V138.7z M138.5,132.7h-3v-3h3V132.7z M138.5,126.7h-3v-3h3V126.7z
	 M138.5,120.7h-3v-3h3V120.7z M144.5,138.7h-3v-3h3V138.7z M144.5,132.7h-3v-3h3V132.7z M144.5,126.7h-3v-3h3V126.7z M144.5,120.7
	h-3v-3h3V120.7z M150.5,138.7h-3v-3h3V138.7z M150.5,132.7h-3v-3h3V132.7z M150.5,126.7h-3v-3h3V126.7z M150.5,120.7h-3v-3h3V120.7z
	"/>
<g>
	<rect x="138.5" y="126.7" fill="none" width="3" height="3"/>
</g>
<path fill="#FFFFFF" d="M68.6,196c-0.5,0-1,0.2-1.3,0.6c-0.7,0.7-0.7,1.9,0,2.7c0.7,0.7,1.9,0.7,2.7,0c0.7-0.7,0.7-1.9,0-2.7
	C69.6,196.2,69.1,196,68.6,196z"/>
<path fill="#FFFFFF" d="M68.9,57.1c-0.5,0-1,0.2-1.3,0.6c-0.7,0.7-0.7,1.9,0,2.7c0.7,0.7,1.9,0.7,2.7,0c0.8-0.7,0.7-1.9,0-2.7
	C69.8,57.3,69.3,57.1,68.9,57.1z"/>
<path fill="#FFFFFF" d="M211.6,56.6c-0.5,0-1,0.2-1.3,0.6c-0.7,0.7-0.7,1.9,0,2.7c0.7,0.7,1.9,0.7,2.7,0c0.7-0.7,0.7-1.9,0-2.7
	C212.6,56.7,212.1,56.6,211.6,56.6z"/>
<path fill="#FFFFFF" d="M211.4,196.5c-0.5,0-1,0.2-1.3,0.6c-0.7,0.7-0.7,1.9,0,2.7c0.7,0.7,1.9,0.7,2.7,0c0.7-0.7,0.7-1.9,0-2.7
	C212.3,196.7,211.9,196.5,211.4,196.5z"/>
<path fill="#FFFFFF" d="M112,97.5c-2.4,0-4.3,1.9-4.3,4.3s1.9,4.3,4.3,4.3s4.3-1.9,4.3-4.3S114.4,97.5,112,97.5z M112,104.5
	c-1.5,0-2.7-1.2-2.7-2.7s1.2-2.7,2.7-2.7s2.7,1.2,2.7,2.7S113.5,104.5,112,104.5z"/>
<path fill="#FFFFFF" d="M168.4,97.5c-2.4,0-4.3,1.9-4.3,4.3s1.9,4.3,4.3,4.3s4.3-1.9,4.3-4.3S170.8,97.5,168.4,97.5z M168.4,104.5
	c-1.5,0-2.7-1.2-2.7-2.7s1.2-2.7,2.7-2.7s2.7,1.2,2.7,2.7S169.9,104.5,168.4,104.5z"/>
<path fill="#FFFFFF" d="M168.4,150.4c-2.4,0-4.3,1.9-4.3,4.3s1.9,4.3,4.3,4.3s4.3-1.9,4.3-4.3S170.8,150.4,168.4,150.4z
	 M168.4,157.4c-1.5,0-2.7-1.2-2.7-2.7s1.2-2.7,2.7-2.7s2.7,1.2,2.7,2.7S169.9,157.4,168.4,157.4z"/>
<path fill="#FFFFFF" d="M112,150.4c-2.4,0-4.3,1.9-4.3,4.3s1.9,4.3,4.3,4.3s4.3-1.9,4.3-4.3S114.4,150.4,112,150.4z M112,157.4
	c-1.5,0-2.7-1.2-2.7-2.7s1.2-2.7,2.7-2.7s2.7,1.2,2.7,2.7S113.5,157.4,112,157.4z"/>
</svg>
