<?xml version="1.0" encoding="utf-8"?>
<!-- Generator: Adobe Illustrator 28.0.0, SVG Export Plug-In . SVG Version: 6.00 Build 0)  -->
<svg version="1.1" baseProfile="tiny" id="Layer_1" xmlns="http://www.w3.org/2000/svg" xmlns:xlink="http://www.w3.org/1999/xlink"
	 x="0px" y="0px" viewBox="0 0 460.7 306.1" overflow="visible" xml:space="preserve">
<g>
	<g>
		<path d="M308.1,190.2l-13.7-13.7c-0.1-0.1-0.5-0.5-0.7-0.5c-1.3-0.1-3.9-0.2-5.5,0.1c-0.2,0-0.6,0.4-0.7,0.5L281,183
			c-0.1,0.1-0.5,0.5-0.5,0.7c-0.4,1.6-0.4,4-0.1,5.5c0.1,0.4,0.5,0.7,0.5,0.7l13.7,13.7c0,0,0.4,0.4,0.7,0.5
			c1.5,0.2,3.9,0.2,5.5-0.1c0.2,0,0.6-0.4,0.7-0.5l6.4-6.4c0.1-0.1,0.5-0.5,0.5-0.7c0.4-1.6,0.2-4.2,0.1-5.5
			C308.6,190.7,308.2,190.4,308.1,190.2z"/>
		<path d="M396.9,171.2l-13.7-13.7c-0.1-0.1-0.5-0.5-0.7-0.5c-1.3-0.1-3.9-0.2-5.5,0.1c-0.2,0-0.6,0.4-0.7,0.5l-6.4,6.4
			c-0.1,0.1-0.5,0.5-0.5,0.7c-0.4,1.6-0.4,4-0.1,5.5c0.1,0.4,0.5,0.7,0.5,0.7l13.7,13.7c0,0,0.4,0.4,0.7,0.5
			c1.5,0.2,3.9,0.2,5.5-0.1c0.2,0,0.6-0.4,0.7-0.5l6.4-6.4c0.1-0.1,0.5-0.5,0.5-0.7c0.4-1.6,0.2-4.2,0.1-5.5
			C397.4,171.7,397,171.4,396.9,171.2z"/>
		<path d="M449.7,170.4L349.1,69.8c-5.2-5.2-12.2-8.1-19.5-8.1h-82.1c-15.2,0-27.6,12.3-27.6,27.6l0,82.1c0,7.3,2.9,14.3,8.1,19.5
			l100.7,100.7c10.8,10.8,28.2,10.8,39,0l41-41l41-41C460.5,198.6,460.5,181.2,449.7,170.4z M244.8,108.8c-6.1-6.1-6.1-16.1,0-22.3
			c6.1-6.1,16.1-6.1,22.3,0c6.1,6.1,6.1,16.1,0,22.3C260.9,114.9,250.9,114.9,244.8,108.8z M323.5,197.6c-0.7,3.2-2.4,6.6-4.8,8.9
			l-7.8,7.8c-2.3,2.3-5.8,4-8.8,4.7c-2.6,0.4-7.2,0.4-9.2,0.1c-3.2-0.5-5.5-2.3-7.5-4.3l-15.7-15.7c-2-2-3.8-4.3-4.3-7.5
			c-0.2-2-0.2-6.6,0.1-9.2c0.6-3.1,2.3-6.5,4.7-8.8l7.8-7.8c2.3-2.3,5.8-4,8.9-4.8c2.4-0.2,7.1-0.2,9.1,0c3.2,0.5,5.5,2.3,7.5,4.3
			l15.7,15.7c2,2,3.8,4.3,4.3,7.5C323.8,190.5,323.8,195.1,323.5,197.6z M348.5,244.4l-32.8-113.9l14-14l32.9,113.8L348.5,244.4z
			 M412.3,178.6c-0.7,3.2-2.4,6.6-4.8,8.9l-7.8,7.8c-2.3,2.3-5.8,4-8.8,4.7c-2.6,0.4-7.2,0.4-9.2,0.1c-3.2-0.5-5.5-2.3-7.5-4.3
			l-15.7-15.7c-2-2-3.8-4.3-4.3-7.5c-0.2-2-0.2-6.6,0.1-9.2c0.6-3.1,2.3-6.5,4.7-8.8l7.8-7.8c2.3-2.3,5.8-4,8.9-4.8
			c2.4-0.2,7.1-0.2,9.1,0c3.2,0.5,5.5,2.3,7.5,4.3l15.7,15.7c2,2,3.8,4.3,4.3,7.5C412.6,171.5,412.6,176.1,412.3,178.6z"/>
	</g>
	<g>
		<path d="M160.8,109.3v142.6l84.5-22.7l-27.8-27.8c-8-8-12.4-18.7-12.4-30l0-73.7L160.8,109.3z"/>
		<polygon points="259.3,243.2 159.4,269.8 141.2,269.8 0,231.9 30,258.7 131.3,289.6 169.4,289.6 270.6,258.7 272.8,256.7 		"/>
		<polygon points="139.9,109.3 0,71.4 0,214 139.9,251.9 		"/>
		<path d="M150.3,91.5h9.1l46.8-12.1c4.4-18.7,21.3-32.7,41.3-32.7h44.4l-13.5-10.6l-109-30.9h-19.1h-19.1l-109,30.9L0,53.6
			l141.2,38H150.3z"/>
	</g>
</g>
</svg>
