<?xml version="1.0" encoding="utf-8"?>
<!-- Generator: Adobe Illustrator 27.8.1, SVG Export Plug-In . SVG Version: 6.00 Build 0)  -->
<svg version="1.1" baseProfile="tiny" id="Layer_2_1_"
	 xmlns="http://www.w3.org/2000/svg" xmlns:xlink="http://www.w3.org/1999/xlink" x="0px" y="0px" viewBox="0 0 300 300"
	 overflow="visible" xml:space="preserve">
<path fill="#FFFFFF" d="M150.1,248.2c-26.3,0-51-10.2-69.5-28.8s-28.8-43.3-28.8-69.5s10.2-51,28.8-69.5s43.3-28.8,69.5-28.8
	s51,10.2,69.5,28.8c18.6,18.6,28.8,43.3,28.8,69.5s-10.2,51-28.8,69.5C201.1,238,176.4,248.2,150.1,248.2z M150.1,56.2
	c-51.6,0-93.6,42-93.6,93.6s42,93.6,93.6,93.6s93.6-42,93.6-93.6S201.7,56.2,150.1,56.2z"/>
<path fill="#FFFFFF" d="M188.5,216.6C188.5,216.6,188.5,216.6,188.5,216.6c-0.4,0-0.9,0-1.3,0c-3.8-0.2-7.3-0.9-11-2.3
	c-1-0.4-1.5-1.5-1.2-2.6c0.4-1,1.6-1.5,2.6-1.2c3.3,1.3,6.3,1.9,9.8,2c0.4,0,0.8,0,1.1,0c1.1,0,2,0.9,2,2
	C190.5,215.8,189.6,216.6,188.5,216.6z M198.1,214.8c-0.7,0-1.4-0.4-1.7-1c-0.6-1-0.2-2.2,0.7-2.7c2.4-1.4,3.7-3.7,4.9-8.7
	c0.3-1.1,1.3-1.7,2.4-1.5c1.1,0.3,1.7,1.3,1.5,2.4c-1.2,5.1-2.8,8.9-6.8,11.2C198.8,214.7,198.4,214.8,198.1,214.8z M167.8,210.4
	c-0.3,0-0.5,0-0.8-0.2c-2.5-1-5.9-2.3-10.7-2.7l-0.2,0c-1.1-0.1-1.9-1.1-1.8-2.2c0.1-1.1,1.1-1.9,2.2-1.8l0.2,0
	c5.3,0.5,9.1,1.8,11.8,3c1,0.4,1.5,1.6,1.1,2.6C169.4,210,168.6,210.4,167.8,210.4z M141.6,208.3c-2.5,0-4.8-0.3-7.4-0.9
	c-1.1-0.3-1.7-1.3-1.5-2.4c0.3-1.1,1.4-1.7,2.4-1.5c2.2,0.6,4.3,0.8,6.4,0.8c1.7,0,3.2-0.2,4.7-0.3c1.1-0.1,2.1,0.7,2.2,1.8
	c0.1,1.1-0.7,2.1-1.8,2.2C145.1,208.1,143.4,208.3,141.6,208.3z M125.4,204c-0.3,0-0.6-0.1-0.8-0.2c-3.2-1.5-6.7-3.4-10.6-5.7l1-1.7
	l1.1-1.7l-1.1,1.7l1.1-1.7c3.8,2.3,7.2,4.1,10.2,5.5c1,0.5,1.4,1.7,1,2.7C126.9,203.6,126.2,204,125.4,204z M207.3,195.6
	c-0.3,0-0.7-0.1-1-0.3c-1-0.5-1.3-1.8-0.8-2.7c1.2-2.2,2.8-5,3.8-10.5c0.2-1.1,1.2-1.8,2.3-1.6c1.1,0.2,1.8,1.2,1.6,2.3
	c-1.2,6.2-3,9.4-4.3,11.7C208.7,195.3,208,195.6,207.3,195.6z M107.4,192.1c-0.6,0-1.1-0.2-1.5-0.7c-1.2-1.5-2.1-2.8-2.9-4
	c-1.4-2-2.3-3.5-4.1-4.4c-1-0.5-1.4-1.7-0.9-2.7c0.5-1,1.7-1.4,2.7-0.9c2.7,1.3,4.1,3.5,5.6,5.7c0.8,1.2,1.6,2.4,2.7,3.7
	c0.7,0.8,0.6,2.1-0.2,2.8C108.3,191.9,107.8,192.1,107.4,192.1z M87.9,182.2c-3.6,0-6.9-1.9-9.8-5.4c-0.7-0.9-0.5-2.1,0.3-2.8
	c0.9-0.7,2.1-0.5,2.8,0.3c2.2,2.8,4.7,4.1,7.3,3.8c0.4,0,0.9-0.1,1.3-0.1c1.1-0.1,2.1,0.7,2.2,1.8c0.1,1.1-0.7,2.1-1.8,2.2
	c-0.4,0-0.8,0.1-1.2,0.1C88.6,182.2,88.3,182.2,87.9,182.2z M212.5,174.7c0,0-0.1,0-0.1,0c-1.1-0.1-2-1-1.9-2.1
	c0.1-2.4,0.2-5,0.2-7.8c0-1.3,0-2.6,0-4c0-1.1,0.9-2,2-2c1.1,0,2,0.9,2,2c0,1.4,0,2.7,0,4c0,2.9-0.1,5.6-0.2,8
	C214.4,173.9,213.5,174.7,212.5,174.7z M172.9,170.5c-1.2,0-2.2-0.7-2.8-1.9c-1.4-3.2-3-6-4.5-8.4c-0.6-0.9-0.4-2.2,0.6-2.8
	c0.9-0.6,2.2-0.4,2.8,0.6c1.6,2.4,3.1,5.2,4.5,8.2c0.6,0,1.2,0.2,1.6,0.6c0.8,0.8,0.7,2.1-0.1,2.8
	C174.4,170.2,173.7,170.5,172.9,170.5z M75.2,168.9c-0.8,0-1.6-0.5-1.9-1.4c-1.3-3.6-2.1-7.8-2.6-12.1c-0.1-1.1,0.7-2.1,1.8-2.2
	c1.1-0.1,2.1,0.7,2.2,1.8c0.4,3.9,1.2,7.8,2.4,11.2c0.4,1-0.2,2.2-1.2,2.5C75.6,168.8,75.4,168.9,75.2,168.9z M176.1,160.6
	c-0.2,0-0.4,0-0.6-0.1c-1.1-0.3-1.7-1.4-1.4-2.5c1.2-4.3,2.7-8,4.5-11.4c0.5-1,1.7-1.4,2.7-0.8c1,0.5,1.4,1.7,0.8,2.7
	c-1.7,3.2-3,6.7-4.2,10.6C177.7,160,176.9,160.6,176.1,160.6z M160.8,153.6c-0.5,0-0.9-0.2-1.3-0.5c-3-2.5-6.1-4-9.7-4.6
	c-1.1-0.2-1.8-1.2-1.6-2.3c0.2-1.1,1.2-1.8,2.3-1.6c4.2,0.7,8.1,2.6,11.5,5.5c0.8,0.7,1,2,0.2,2.8
	C162,153.4,161.4,153.6,160.8,153.6z M212.4,153c-1.1,0-2-0.9-2-1.9c-0.1-4.9-0.3-8.7-0.4-11.9c0-1.1,0.8-2,1.9-2.1
	c1.1,0,2,0.8,2.1,1.9c0.1,3.1,0.2,7,0.4,11.9C214.4,152,213.5,152.9,212.4,153C212.4,153,212.4,153,212.4,153z M133.9,150.3
	c-2.8,0-4.8-1.8-5.5-4.8c-0.2-1.1,0.4-2.1,1.5-2.4c1.1-0.2,2.1,0.4,2.4,1.5c0.4,1.7,1.2,1.7,1.6,1.7c0.3,0,0.7-0.1,1.1-0.2
	c1.7-0.6,3.4-1,5-1.3c1.1-0.2,2.1,0.5,2.3,1.6c0.2,1.1-0.5,2.1-1.6,2.3c-1.5,0.3-3,0.7-4.5,1.2C135.4,150.2,134.7,150.3,133.9,150.3
	z M72.5,147.4c0,0-0.1,0-0.1,0c-1.1-0.1-1.9-1-1.9-2.1c0.3-4.4,1.1-8.5,2.4-12.2c0.4-1,1.5-1.6,2.5-1.2c1,0.4,1.6,1.5,1.2,2.5
	c-1.2,3.3-1.9,7.1-2.2,11.1C74.5,146.6,73.6,147.4,72.5,147.4z M185.7,141.3c-0.4,0-0.8-0.1-1.2-0.4c-0.9-0.6-1.1-1.9-0.5-2.8
	c2.1-3,4.1-5.8,5.3-9.8c0.3-1.1,1.4-1.7,2.5-1.3c1.1,0.3,1.7,1.4,1.3,2.5c-1.4,4.7-3.7,7.9-5.9,11C187,141,186.4,141.3,185.7,141.3z
	 M127,137.8c-0.7,0-1.3-0.3-1.7-1c-1.9-3.1-4.4-6.1-7.2-8.6c-0.8-0.7-0.9-2-0.2-2.8c0.7-0.8,2-0.9,2.8-0.2c3.2,2.8,5.9,6.1,8,9.6
	c0.6,0.9,0.3,2.2-0.7,2.7C127.7,137.7,127.4,137.8,127,137.8z M211.6,131.2c-1.1,0-2-0.8-2-1.9c-0.1-2.1-0.1-3.9-0.1-6
	c0-1.7,0-3.6,0.1-6c0-1.1,0.9-2,2.1-1.9c1.1,0,2,1,1.9,2.1c-0.1,2.3-0.1,4.2-0.1,5.9c0,2.1,0,3.8,0.1,5.9
	C213.7,130.2,212.8,131.2,211.6,131.2C211.7,131.2,211.6,131.2,211.6,131.2z M79.6,127.1c-0.5,0-0.9-0.2-1.3-0.5
	c-0.8-0.7-1-2-0.3-2.8c2.9-3.5,6.6-5.9,10.9-6.9c0.2-0.1,0.4-0.1,0.7-0.2c1.1-0.3,2.2,0.4,2.4,1.5c0.3,1.1-0.4,2.2-1.5,2.4l-0.6,0.1
	c-3.4,0.9-6.4,2.7-8.8,5.6C80.7,126.8,80.1,127.1,79.6,127.1z M111.2,123.2c-0.3,0-0.6-0.1-0.9-0.2c-3.4-1.7-7-2.7-10.6-3
	c-1.1-0.1-1.9-1.1-1.8-2.2s1.1-1.9,2.2-1.8c4.1,0.4,8.2,1.5,12.1,3.4c1,0.5,1.4,1.7,0.9,2.7C112.7,122.7,112,123.2,111.2,123.2z
	 M191.6,121.1c-0.9,0-1.7-0.6-1.9-1.5c-0.4-1.4-0.9-2.7-1.3-3.7c-0.4,0.4-0.8,0.7-1.3,1c-0.9,0.6-2.2,0.3-2.7-0.7
	c-0.6-0.9-0.3-2.2,0.7-2.7c0.4-0.2,0.8-0.6,0.9-1.1c0.4-2.2,2.1-2.3,2.4-2.3c0.7,0,1.7,0.3,2.5,1.7c0.4,0.7,1.9,3.4,2.7,6.8
	c0.3,1.1-0.4,2.2-1.4,2.4C192,121.1,191.8,121.1,191.6,121.1z M176.4,117.7c-0.2,0-0.4,0-0.6-0.1c-1-0.3-2-0.7-3.1-1.1
	c-0.2-0.1-0.2-0.1-0.2-0.1c0,0-0.2,0.1-0.3,0.1c-0.5,0.2-1.3,0.5-2.5,0.5c-1.3,0-2.8-0.3-4.7-1c-0.3-0.1-0.5-0.2-0.8-0.3
	c-1-0.4-1.5-1.6-1.1-2.6c0.4-1,1.6-1.5,2.6-1.1c0.2,0.1,0.4,0.2,0.6,0.2c1.4,0.5,2.5,0.8,3.3,0.8c0.5,0,0.8-0.1,1.2-0.2
	c0.4-0.1,1-0.3,1.6-0.3c0.6,0,1.2,0.2,1.9,0.5c0.9,0.4,1.7,0.7,2.5,0.9c1.1,0.3,1.7,1.4,1.4,2.5
	C178.1,117.2,177.3,117.7,176.4,117.7z M210.9,109.5c-0.9,0-1.8-0.7-2-1.6c-0.8-4-2.4-7.1-4.7-9.4c-0.8-0.8-0.8-2,0-2.8
	c0.8-0.8,2-0.8,2.8,0c2.9,2.9,4.9,6.7,5.8,11.5c0.2,1.1-0.5,2.1-1.6,2.4C211.2,109.4,211.1,109.5,210.9,109.5z M162.6,108.1
	c-0.3,0-0.6-0.1-0.9-0.2c-0.6-0.3-0.9-0.8-1.1-1.3c-0.6-0.4-1.6-1.1-2.9-2.2c-1.4-1.3-2.1-2.7-2.1-4.2c0-1.8,1.1-3.4,2-4.5
	c0.7-0.9,2-1,2.8-0.3c0.9,0.7,1,1.9,0.3,2.8c-0.9,1.1-1.1,1.7-1.1,2c0,0.3,0.3,0.8,0.8,1.3c1.1,1,1.9,1.5,2.5,1.9
	c0.7,0.4,1.7,1.1,1.7,2.5c0,0.4-0.1,0.8-0.3,1.2C164,107.7,163.3,108.1,162.6,108.1z M160.8,105.3L160.8,105.3
	C160.8,105.3,160.8,105.3,160.8,105.3z M197.1,94.3c-0.2,0-0.4,0-0.6-0.1c-4.8-1.4-8.5-2.5-11.4-3.4c-1.1-0.3-1.6-1.4-1.3-2.5
	c0.3-1.1,1.4-1.6,2.5-1.3c3,0.9,6.6,2,11.4,3.4c1.1,0.3,1.7,1.4,1.4,2.5C198.8,93.7,198,94.3,197.1,94.3z M166.4,92.2
	c-0.7,0-1.3-0.3-1.7-0.9c-0.6-0.9-0.3-2.2,0.6-2.8l0.7-0.4c1-0.6,1.8-1.2,2.8-2.1l0.4-0.4c1.4-1.5,2.5-2.6,4.4-2.6
	c1,0,2.1,0.3,3.5,0.9l0.2,0.1c1,0.5,1.4,1.7,0.9,2.7c-0.5,1-1.6,1.4-2.6,0.9c-0.4-0.2-1.5-0.6-2-0.6c-0.2,0-0.8,0.7-1.5,1.4
	l-0.4,0.4c-1.3,1.3-2.4,2-3.5,2.7l-0.6,0.4C167.2,92.1,166.8,92.2,166.4,92.2z"/>
</svg>
