<?xml version="1.0" encoding="utf-8"?>
<!-- Generator: Adobe Illustrator 22.1.0, SVG Export Plug-In . SVG Version: 6.00 Build 0)  -->
<svg version="1.1" baseProfile="tiny" id="Layer_1" xmlns="http://www.w3.org/2000/svg" xmlns:xlink="http://www.w3.org/1999/xlink"
	 x="0px" y="0px" width="520px" height="520px" viewBox="0 0 520 520" xml:space="preserve">
<g>
	<path fill="#D1D1D1" d="M378,140c-21,0-38-17-38-38c0-1.1-0.9-2-2-2H182c-1.1,0-2,0.9-2,2c0,21-17,38-38,38c-1.1,0-2,0.9-2,2v153.3
		c0,21.9,10.3,42.5,27.8,55.6L260,420l92.2-69.2c17.5-13.1,27.8-33.7,27.8-55.6V142C380,140.9,379.1,140,378,140z M194.2,116h131.7
		c5,18.5,19.6,33.2,38.2,38.2V170h-10.5l1.5-1.5v-7.1l-8.5,8.5h-2.9l10-10c-1.6-0.7-3.2-1.4-4.8-2.3L336.5,170h-2.9l13.3-13.3
		c-1.5-0.9-2.9-1.8-4.3-2.7l-16,16h-2.9l17.2-17.2c-1.4-1-2.7-2.1-3.9-3.2L316.5,170h-2.9l21.8-21.8c-1.2-1.1-2.4-2.3-3.5-3.5
		L306.5,170h-2.9l26.8-26.8c-1.1-1.3-2.2-2.6-3.2-3.9L296.5,170h-2.9l32.5-32.5c-1-1.4-1.9-2.9-2.7-4.3L286.5,170h-2.9l38.7-38.7
		c-0.8-1.6-1.6-3.2-2.3-4.8L276.5,170h-2.9l45-45h-7.1l-45,45h-2.9l45-45h-7.1l-45,45h-2.9l45-45h-7.1l-45,45h-2.9l45-45h-7.1
		l-45,45h-2.9l45-45h-7.1l-45,45h-2.9l45-45h-7.1l-45,45h-2.9l45-45h-7.1l-45,45h-2.9l45-45h-7.1l-45,45h-2.9l45-45h-7.1l-45,45
		h-2.9l45-45h-7.1l-45,45h-2.9l45-45h-7.1l-45,45H156v-15.8C174.5,149.2,189.2,134.5,194.2,116z M156,247v-74h94v74H156z M270,173
		h94v74h-94V173z M342.6,338L260,400l-82.6-62C164,328,156,312,156,295.3V250h10.5l-1.5,1.5v7.1l8.5-8.5h2.9L165,261.5v7.1
		l18.5-18.5h2.9L165,271.5v7.1l28.5-28.5h2.9L165,281.5v7.1l38.5-38.5h2.9L165,291.5v3.8c0,1.1,0.1,2.1,0.1,3.1l48.4-48.4h2.9
		l-51.1,51.1c0.3,2,0.7,4,1.2,5.9l56.9-56.9h2.9l-59.2,59.2c0.6,1.7,1.2,3.4,2,5l64.2-64.2h2.9l-66.2,66.2c0.8,1.5,1.7,3,2.7,4.4
		l70.6-70.6h2.9l-72.3,72.3c1,1.3,2.1,2.6,3.3,3.8l76.1-76.1h2.9l-77.6,77.6c1.2,1.1,2.5,2.2,3.8,3.2l80.8-80.8h2.9l-82.1,82.1l4,3
		l36.2-36.2l2.3-2.3l46.6-46.6h2.9l-46.2,46.2l-4.1,4.1l-36,36l4,3l35.7-35.7l8.4-8.4l18.7-18.7l4.1-4.1l22.4-22.4h2.9L262,274.4
		l-7.6,7.6l-12.9,12.9l-10.2,10.2l-35.5,35.5l4,3l35.1-35.1l13.9-14.5l15.3-14.7l29.3-29.3h2.9l-31.3,31.3l-28.7,28.7l-35,35l4,3
		l34.6-34.6l27.2-27.2l36.1-36.1h2.9l-38.1,38.1l-26.6,26.6l-34.5,34.5l4,3l29.2-29.2l30.1-30.1l43-43h2.9l-44.2,44.2l-32.5,32.5
		L213,353.5l4,3l21-21l40.6-40.6l44.9-44.9h2.9l-45.2,45.2l-44,44l-18.6,18.6l4,3l27-27l37.9-37.9l46-46h2.9l-46.3,46.3l-33.8,33.8
		l-31.9,31.9l4,3l35.1-35.1l33-33l47-47h2.9l-68,68l-13.1,13.1l-35.3,35.3l4,3l35.8-35.8l9.7-9.7l73.9-73.9H364v45.3
		C364,312,356,328,342.6,338z"/>
	<path fill="#D1D1D1" d="M201.5,125l-1.4,1.4c-6.4,15.1-18.5,27.3-33.6,33.6l-1.4,1.4v7.1l43.5-43.5H201.5z"/>
	<polygon fill="#D1D1D1" points="271.8,334.7 235.8,370.6 239.9,373.7 276.3,337.2 281.3,332.2 355,258.5 355,251.5 280.1,326.3 	
		"/>
	<polygon fill="#D1D1D1" points="278.2,338.3 241.6,374.9 245.6,377.9 282.7,340.8 283,340.6 355,268.5 355,261.5 281.8,334.7 	"/>
	<polygon fill="#D1D1D1" points="251.3,382.2 355,278.5 355,271.5 247.3,379.2 	"/>
	<polygon fill="#D1D1D1" points="257,386.5 355,288.5 355,281.5 253,383.5 	"/>
	<path fill="#D1D1D1" d="M260,388.8l19.1-14.4l75.7-75.7c0.1-1.1,0.2-2.3,0.2-3.4v-3.8l-96.3,96.3L260,388.8z"/>
	<path fill="#D1D1D1" d="M319.1,344.4l32.6-32.6c1.3-3.1,2.2-6.4,2.7-9.7l-63.6,63.6L319.1,344.4z"/>
	<path fill="#D1D1D1" d="M337.2,330.8c4.9-3.7,8.9-8.3,11.9-13.5l-18.2,18.2L337.2,330.8z"/>
</g>
</svg>
