<?xml version="1.0" encoding="utf-8"?>
<!-- Generator: Adobe Illustrator 22.1.0, SVG Export Plug-In . SVG Version: 6.00 Build 0)  -->
<svg version="1.1" baseProfile="tiny" id="Layer_1" xmlns="http://www.w3.org/2000/svg" xmlns:xlink="http://www.w3.org/1999/xlink"
	 x="0px" y="0px" width="300px" height="300px" viewBox="0 0 300 300" xml:space="preserve">
<path fill="#FFFFFF" d="M150,250c55.2,0,100-44.8,100-100S205.2,50,150,50S50,94.8,50,150S94.8,250,150,250z M140.6,57.5L150,100
	l9.4-42.5c43.8,4.4,78.6,39.3,83.1,83.1L200,150l42.5,9.4c-4.4,43.8-39.3,78.6-83.1,83.1L150,200l-9.4,42.5
	c-43.8-4.4-78.6-39.3-83.1-83.1L100,150l-42.5-9.4C61.9,96.8,96.8,61.9,140.6,57.5z"/>
<path fill="#FFFFFF" d="M147.2,154.2c0.3,0.2,0.6,0.3,0.9,0.5c0.3,0.1,0.6,0.2,0.9,0.3c0.3,0.1,0.7,0.1,1,0.1s0.6,0,1-0.1
	c0.3-0.1,0.6-0.2,0.9-0.3c0.3-0.1,0.6-0.3,0.9-0.5c0.3-0.2,0.5-0.4,0.8-0.6c0.9-0.9,1.5-2.2,1.5-3.5c0-0.3,0-0.7-0.1-1
	c-0.1-0.3-0.2-0.6-0.3-0.9c-0.1-0.3-0.3-0.6-0.5-0.9c-0.2-0.3-0.4-0.5-0.6-0.8c-0.2-0.2-0.5-0.5-0.8-0.6c-0.3-0.2-0.6-0.3-0.9-0.5
	c-0.3-0.1-0.6-0.2-0.9-0.3c-0.6-0.1-1.3-0.1-2,0c-0.3,0.1-0.6,0.2-0.9,0.3c-0.3,0.1-0.6,0.3-0.9,0.5c-0.3,0.2-0.5,0.4-0.8,0.6
	c-0.2,0.2-0.4,0.5-0.6,0.8c-0.2,0.3-0.3,0.6-0.5,0.9c-0.1,0.3-0.2,0.6-0.3,0.9c-0.1,0.3-0.1,0.7-0.1,1c0,1.3,0.5,2.6,1.5,3.5
	C146.7,153.8,146.9,154,147.2,154.2z"/>
</svg>
