<?xml version="1.0" encoding="utf-8"?>
<!-- Generator: Adobe Illustrator 25.2.3, SVG Export Plug-In . SVG Version: 6.00 Build 0)  -->
<svg version="1.1" id="Layer_2_1_" xmlns="http://www.w3.org/2000/svg" xmlns:xlink="http://www.w3.org/1999/xlink" x="0px" y="0px"
	 viewBox="0 0 300 300" style="enable-background:new 0 0 300 300;" xml:space="preserve">
<style type="text/css">
	.st0{fill:#FFFFFF;}
</style>
<path class="st0" d="M150,50C94.8,50,50,94.8,50,150s44.8,100,100,100s100-44.8,100-100S205.2,50,150,50z M150,242
	c-50.7,0-92-41.3-92-92s41.3-92,92-92s92,41.3,92,92S200.7,242,150,242z"/>
<path class="st0" d="M153.8,122.2l-6.5,56.6h-18.4c-1.7-8.7-3.2-18.6-4.5-29.7c-0.6,4.8-2,14.6-4.1,29.7H102l-6.6-56.6h14.3
	l1.6,19.7l1.5,19.1c0.5-9.9,1.9-22.8,4.1-38.8h15.3c0.2,1.7,0.7,7.9,1.6,18.7l1.6,21.5c0.8-13.7,2.2-27.1,4.1-40.2H153.8z"/>
<path class="st0" d="M171.4,122.2v56.6h-14.7v-56.6C156.7,122.2,171.4,122.2,171.4,122.2z"/>
<path class="st0" d="M177.3,122.2h14.8c4,0,7.1,0.3,9.2,0.9c2.2,0.6,3.8,1.5,4.9,2.7c1.1,1.2,1.8,2.6,2.2,4.3s0.6,4.3,0.6,7.8v4.9
	c0,3.6-0.4,6.2-1.1,7.9c-0.7,1.7-2.1,2.9-4.1,3.8c-2,0.9-4.6,1.3-7.8,1.3h-4v22.8h-14.7L177.3,122.2L177.3,122.2z M192,131.9v14.4
	c0.4,0,0.8,0,1.1,0c1.4,0,2.3-0.3,2.8-1s0.8-2,0.8-4.1v-4.6c0-1.9-0.3-3.2-0.9-3.8C195.2,132.2,193.9,131.9,192,131.9z"/>
<path class="st0" d="M160.8,204.5c1.1,0.4,1.9,1,2.4,1.8c0.5,0.8,0.8,2.8,0.8,5.8c0,2.3-0.3,4-0.8,5.3s-1.4,2.2-2.7,2.8
	c-1.3,0.7-2.9,1-4.9,1c-2.2,0-4-0.4-5.3-1.1s-2.1-1.7-2.5-2.8s-0.6-3-0.6-5.7v-2.2h7.1v4.6c0,1.2,0.1,2,0.2,2.3s0.5,0.5,1,0.5
	c0.6,0,0.9-0.2,1.1-0.6s0.3-1.5,0.3-3.3v-2c0-1.1-0.1-1.9-0.4-2.4s-0.6-0.8-1.1-1s-1.4-0.2-2.8-0.3v-4.1c1.7,0,2.7-0.1,3.1-0.2
	s0.7-0.4,0.9-0.8s0.3-1.1,0.3-2v-1.6c0-1-0.1-1.7-0.3-2s-0.5-0.5-1-0.5c-0.5,0-0.8,0.2-1,0.5s-0.3,1-0.3,2.1v2.3h-7.1v-2.4
	c0-2.7,0.6-4.6,1.9-5.5s3.2-1.4,5.9-1.4c3.4,0,5.7,0.7,6.9,2s1.8,3.2,1.8,5.5c0,1.6-0.2,2.7-0.7,3.5
	C162.6,203.2,161.9,203.9,160.8,204.5z"/>
</svg>
