<?xml version="1.0" encoding="utf-8"?>
<!-- Generator: Adobe Illustrator 22.1.0, SVG Export Plug-In . SVG Version: 6.00 Build 0)  -->
<svg version="1.1" baseProfile="tiny" id="Layer_1" xmlns="http://www.w3.org/2000/svg" xmlns:xlink="http://www.w3.org/1999/xlink"
	 x="0px" y="0px" width="520px" height="520px" viewBox="0 0 520 520" xml:space="preserve">
<g>
	<path fill="#FFFFFF" d="M401.6,116c-25.2,0-45.6-20.4-45.6-45.6c0-1.3-1.1-2.4-2.4-2.4H166.4c-1.3,0-2.4,1.1-2.4,2.4
		c0,25.2-20.4,45.6-45.6,45.6c-1.3,0-2.4,1.1-2.4,2.4v183.9c0,26.2,12.4,50.9,33.3,66.7L260,452l110.7-83
		c21-15.7,33.3-40.4,33.3-66.7V118.4C404,117.1,402.9,116,401.6,116z M384.8,302.3c0,20.1-9.6,39.3-25.7,51.3L260,428l-99.1-74.4
		c-16.1-12.1-25.7-31.2-25.7-51.3V133c22.3-6,39.8-23.5,45.8-45.8h158c6,22.3,23.5,39.8,45.8,45.8V302.3z"/>
	<polygon fill="#FFFFFF" points="302.9,194.9 260,237.8 217.1,194.9 206.9,205.1 249.8,248 206.9,290.9 217.1,301.1 260,258.2 
		302.9,301.1 313.1,290.9 270.2,248 313.1,205.1 	"/>
</g>
</svg>
