<?xml version="1.0" encoding="utf-8"?>
<!-- Generator: Adobe Illustrator 22.1.0, SVG Export Plug-In . SVG Version: 6.00 Build 0)  -->
<svg version="1.1" baseProfile="tiny" id="Layer_1" xmlns="http://www.w3.org/2000/svg" xmlns:xlink="http://www.w3.org/1999/xlink"
	 x="0px" y="0px" width="300px" height="300px" viewBox="0 0 300 300" xml:space="preserve">
<path fill="#FFFFFF" d="M150,250c55.2,0,100-44.8,100-100S205.2,50,150,50S50,94.8,50,150S94.8,250,150,250z M57.4,158.4l11.1-7.4
	H69v9h2v-9h8v9h2v-9h8v9h2v-9h8v9h2v-9h8v9h2v-9h8v9h2v-9h24.1c0.1,0.3,0.2,0.6,0.3,0.9c0.1,0.3,0.3,0.6,0.5,0.9
	c0.2,0.3,0.4,0.5,0.6,0.8c0.2,0.2,0.5,0.4,0.8,0.6c0.3,0.2,0.6,0.3,0.9,0.5c0.3,0.1,0.6,0.2,0.9,0.3V179h-9v2h9v8h-9v2h9v8h-9v2h9v8
	h-9v2h9v8h-9v2h9v8h-9v2h9v0.5l-7.4,11.1C97,238.6,61.4,203,57.4,158.4z M158.4,242.6l-7.4-11.1V231h9v-2h-9v-8h9v-2h-9v-8h9v-2h-9
	v-8h9v-2h-9v-8h9v-2h-9v-8h9v-2h-9v-24.1c0.3-0.1,0.6-0.2,0.9-0.3c0.3-0.1,0.6-0.3,0.9-0.5c0.3-0.2,0.5-0.4,0.8-0.6
	c0.2-0.2,0.4-0.5,0.6-0.8c0.2-0.3,0.3-0.6,0.5-0.9c0.1-0.3,0.2-0.6,0.3-0.9H179v9h2v-9h8v9h2v-9h8v9h2v-9h8v9h2v-9h8v9h2v-9h8v9h2
	v-9h0.5l11.1,7.4C238.6,203,203,238.6,158.4,242.6z M242.6,141.6l-11.1,7.4H231v-9h-2v9h-8v-9h-2v9h-8v-9h-2v9h-8v-9h-2v9h-8v-9h-2
	v9h-8v-9h-2v9h-24.1c-0.1-0.3-0.2-0.6-0.3-0.9c-0.1-0.3-0.3-0.6-0.5-0.9c-0.2-0.3-0.4-0.5-0.6-0.8c-0.2-0.2-0.5-0.5-0.8-0.6
	c-0.3-0.2-0.6-0.3-0.9-0.5c-0.3-0.1-0.6-0.2-0.9-0.3V121h9v-2h-9v-8h9v-2h-9v-8h9v-2h-9v-8h9v-2h-9v-8h9v-2h-9v-8h9v-2h-9v-0.5
	l7.4-11.1C203,61.4,238.6,97,242.6,141.6z M141.6,57.4l7.4,11.1V69h-9v2h9v8h-9v2h9v8h-9v2h9v8h-9v2h9v8h-9v2h9v8h-9v2h9v24.1
	c-0.3,0.1-0.6,0.2-0.9,0.3c-0.3,0.1-0.6,0.3-0.9,0.5c-0.3,0.2-0.5,0.4-0.8,0.6c-0.7,0.7-1.2,1.6-1.4,2.5H121v-9h-2v9h-8v-9h-2v9h-8
	v-9h-2v9h-8v-9h-2v9h-8v-9h-2v9h-8v-9h-2v9h-0.5l-11.1-7.4C61.4,97,97,61.4,141.6,57.4z"/>
</svg>
