<?xml version="1.0" encoding="utf-8"?>
<!-- Generator: Adobe Illustrator 25.4.1, SVG Export Plug-In . SVG Version: 6.00 Build 0)  -->
<svg version="1.1" id="Layer_2_1_" xmlns="http://www.w3.org/2000/svg" xmlns:xlink="http://www.w3.org/1999/xlink" x="0px" y="0px"
	 viewBox="0 0 300 300" style="enable-background:new 0 0 300 300;" xml:space="preserve">
<style type="text/css">
	.st0{fill:#FFFFFF;}
</style>
<path class="st0" d="M277.5,155.1l25-7.5l-109.6-21.9l0,0l-43-24.8l-42.7,24.8l0,0L-2.5,147.6l25,7.5l84.7-16.9l0,3.5l-79.7,15.9
	l25,7.5l54.6-10.9l0,3.5l-49.6,9.9l25,7.5l24.6-4.9l0,4.9l43,24.8l42.7-24.8l0-4.9l24.7,4.9l25-7.5l-49.7-9.9l0-3.5l54.7,10.9
	l25-7.5l-79.6-15.9l0-3.5L277.5,155.1z M149.5,176.6l0,10.9l-32-18.5l0.1-36.7l32,18.5L149.5,176.6z M118.2,131.3l31.8-18.5l32,18.5
	l-8.6,5l-23.2,13.5L118.2,131.3z M182.4,169.1l-31.7,18.4l0-11.1l0.1-25.6l30.3-17.6l1.5-0.8L182.4,169.1z"/>
</svg>
