<?xml version="1.0" encoding="utf-8"?>
<!-- Generator: Adobe Illustrator 26.4.1, SVG Export Plug-In . SVG Version: 6.00 Build 0)  -->
<svg version="1.1" baseProfile="tiny" id="icon_x5F_reputation_x5F_aciedo_x5F_04"
	 xmlns="http://www.w3.org/2000/svg" xmlns:xlink="http://www.w3.org/1999/xlink" x="0px" y="0px" viewBox="0 0 280 280"
	 overflow="visible" xml:space="preserve">
<g>
	<g>
		<g>
			<rect x="138.9" y="28.9" fill="#FFFFFF" width="2.1" height="63.4"/>
		</g>
		<g>
			<circle fill="#FFFFFF" cx="140" cy="29.1" r="2.7"/>
		</g>
	</g>
	<g>
		<g>
			<polygon fill="#FFFFFF" points="121.1,92.3 119,92.3 119,82.2 106.4,67.9 106.4,52.9 108.4,52.9 108.4,67.1 121.1,81.5 			"/>
		</g>
		<g>
			<circle fill="#FFFFFF" cx="107.4" cy="52.9" r="2.7"/>
		</g>
	</g>
	<g>
		<g>
			<polygon fill="#FFFFFF" points="161,92.3 158.9,92.3 158.9,81.5 171.5,67.1 171.5,52.9 173.6,52.9 173.6,67.9 161,82.2 			"/>
		</g>
		<g>
			<circle fill="#FFFFFF" cx="172.6" cy="52.9" r="2.7"/>
		</g>
	</g>
	<g>
		<g>
			<polygon fill="#FFFFFF" points="150.9,92.3 148.9,92.3 148.9,66.5 156.5,57.1 156.5,32.9 158.6,32.9 158.6,57.8 150.9,67.2 			
				"/>
		</g>
		<g>
			<circle fill="#FFFFFF" cx="157.5" cy="32.9" r="2.7"/>
		</g>
	</g>
	<g>
		<g>
			<polygon fill="#FFFFFF" points="131,92.3 129,92.3 129,67.3 121.3,57.9 121.3,32.9 123.4,32.8 123.4,57.1 131,66.5 			"/>
		</g>
		<g>
			<circle fill="#FFFFFF" cx="122.3" cy="32.9" r="2.7"/>
		</g>
	</g>
</g>
<g>
	<g>
		<g>
			<rect x="138.9" y="164.2" fill="#FFFFFF" width="2.1" height="68.4"/>
		</g>
		<g>
			<circle fill="#FFFFFF" cx="139.9" cy="232.4" r="2.7"/>
		</g>
	</g>
	<g>
		<g>
			<polygon fill="#FFFFFF" points="173.5,203.6 171.4,203.6 171.4,194.3 158.8,179.9 158.8,164.2 160.9,164.2 160.9,179.2 
				173.5,193.5 			"/>
		</g>
		<g>
			<circle fill="#FFFFFF" cx="172.5" cy="203.6" r="2.7"/>
		</g>
	</g>
	<g>
		<g>
			<polygon fill="#FFFFFF" points="108.4,203.6 106.3,203.6 106.3,193.6 118.9,179.2 118.9,164.2 121,164.2 121,180 108.4,194.4 			
				"/>
		</g>
		<g>
			<circle fill="#FFFFFF" cx="107.3" cy="203.6" r="2.7"/>
		</g>
	</g>
	<g>
		<g>
			<polygon fill="#FFFFFF" points="123.4,228.6 121.3,228.6 121.3,203.7 128.9,194.3 128.9,164.2 131,164.2 131,195 123.4,204.4 			
				"/>
		</g>
		<g>
			<circle fill="#FFFFFF" cx="122.4" cy="228.6" r="2.7"/>
		</g>
	</g>
	<g>
		<g>
			<polygon fill="#FFFFFF" points="156.5,228.6 156.5,204.4 148.8,195 148.8,164.2 150.9,164.2 150.9,194.3 158.5,203.7 
				158.6,228.6 			"/>
		</g>
		<g>
			<circle fill="#FFFFFF" cx="157.5" cy="228.6" r="2.7"/>
		</g>
	</g>
</g>
<g>
	<g>
		<g>
			<rect x="177" y="127.1" fill="#FFFFFF" width="64.4" height="2.1"/>
		</g>
		<g>
			<circle fill="#FFFFFF" cx="241.2" cy="128.2" r="2.7"/>
		</g>
	</g>
	<g>
		<g>
			<polygon fill="#FFFFFF" points="191.4,109.3 177,109.3 177,107.2 190.6,107.2 205,94.6 216.4,94.6 216.4,96.7 205.8,96.7 			"/>
		</g>
		<g>
			<circle fill="#FFFFFF" cx="216.4" cy="95.6" r="2.7"/>
		</g>
	</g>
	<g>
		<g>
			<polygon fill="#FFFFFF" points="216.4,161.8 205,161.8 190.6,149.2 177,149.2 177,147.1 191.4,147.1 205.8,159.7 216.4,159.7 			
				"/>
		</g>
		<g>
			<circle fill="#FFFFFF" cx="216.4" cy="160.8" r="2.7"/>
		</g>
	</g>
	<g>
		<g>
			<polygon fill="#FFFFFF" points="237.5,146.8 215,146.8 205.6,139.1 177,139.1 177,137.1 206.4,137.1 215.8,144.7 237.5,144.7 			
				"/>
		</g>
		<g>
			<circle fill="#FFFFFF" cx="237.5" cy="145.7" r="2.7"/>
		</g>
	</g>
	<g>
		<g>
			<polygon fill="#FFFFFF" points="206.4,119.3 177,119.3 177,117.2 205.6,117.2 215,109.6 237.5,109.5 237.5,111.6 215.8,111.6 			
				"/>
		</g>
		<g>
			<circle fill="#FFFFFF" cx="237.5" cy="110.6" r="2.7"/>
		</g>
	</g>
</g>
<g>
	<g>
		<g>
			<rect x="38.6" y="127.1" fill="#FFFFFF" width="62.5" height="2.1"/>
		</g>
		<g>
			<circle fill="#FFFFFF" cx="38.8" cy="128.1" r="2.7"/>
		</g>
	</g>
	<g>
		<g>
			<polygon fill="#FFFFFF" points="75.3,161.7 61.7,161.7 61.7,159.7 74.5,159.7 88.9,147 101.1,147 101.1,149.1 89.6,149.1 			"/>
		</g>
		<g>
			<circle fill="#FFFFFF" cx="61.7" cy="160.7" r="2.7"/>
		</g>
	</g>
	<g>
		<g>
			<polygon fill="#FFFFFF" points="101.1,109.2 88.9,109.2 74.5,96.6 61.7,96.6 61.7,94.5 75.3,94.5 89.6,107.1 101.1,107.1 			"/>
		</g>
		<g>
			<circle fill="#FFFFFF" cx="61.7" cy="95.5" r="2.7"/>
		</g>
	</g>
	<g>
		<g>
			<polygon fill="#FFFFFF" points="101.1,119.2 73.9,119.2 64.5,111.6 42.7,111.6 42.7,109.5 65.2,109.5 74.6,117.2 101.1,117.2 			
				"/>
		</g>
		<g>
			<circle fill="#FFFFFF" cx="42.7" cy="110.6" r="2.7"/>
		</g>
	</g>
	<g>
		<g>
			<polygon fill="#FFFFFF" points="42.7,146.8 42.7,144.7 64.5,144.7 73.9,137.1 101.1,137.1 101.1,139.1 74.6,139.1 65.2,146.8 			
				"/>
		</g>
		<g>
			<circle fill="#FFFFFF" cx="42.7" cy="145.8" r="2.7"/>
		</g>
	</g>
</g>
<g>
	<path fill="#FFFFFF" d="M68.9,62.9c-1,0-2-0.4-2.8-1.1c-1.5-1.5-1.5-4,0-5.5s4-1.5,5.5,0s1.5,4,0,5.5
		C70.9,62.5,69.9,62.9,68.9,62.9z M68.9,57.1c-0.5,0-1,0.2-1.3,0.6c-0.7,0.7-0.7,1.9,0,2.7c0.7,0.7,1.9,0.7,2.7,0
		c0.7-0.7,0.7-1.9,0-2.7C69.8,57.3,69.3,57.1,68.9,57.1z"/>
</g>
<g>
	<path fill="#FFFFFF" d="M211.6,62.3c-1,0-2-0.4-2.8-1.1c-1.5-1.5-1.5-4,0-5.5s4-1.5,5.5,0s1.5,4,0,5.5
		C213.6,61.9,212.6,62.3,211.6,62.3z M211.6,56.5c-0.5,0-1,0.2-1.3,0.6c-0.7,0.7-0.7,1.9,0,2.7c0.7,0.7,1.9,0.7,2.7,0
		c0.7-0.7,0.7-1.9,0-2.7C212.6,56.7,212.1,56.5,211.6,56.5z"/>
</g>
<g>
	<path fill="#FFFFFF" d="M68.6,201.7c-1,0-2-0.4-2.8-1.1c-1.5-1.5-1.5-4,0-5.5s4-1.5,5.5,0s1.5,4,0,5.5
		C70.6,201.4,69.6,201.7,68.6,201.7z M68.6,196c-0.5,0-1,0.2-1.3,0.6c-0.7,0.7-0.7,1.9,0,2.7c0.7,0.7,1.9,0.7,2.7,0
		c0.7-0.7,0.7-1.9,0-2.7C69.6,196.1,69.1,196,68.6,196z"/>
</g>
<g>
	<path fill="#FFFFFF" d="M211.4,202.2c-1,0-2-0.4-2.8-1.1c-1.5-1.5-1.5-4,0-5.5s4-1.5,5.5,0s1.5,4,0,5.5
		C213.4,201.9,212.4,202.2,211.4,202.2z M211.4,196.5c-0.5,0-1,0.2-1.3,0.6c-0.7,0.7-0.7,1.9,0,2.7c0.7,0.7,1.9,0.7,2.7,0
		c0.7-0.7,0.7-1.9,0-2.7C212.3,196.6,211.9,196.5,211.4,196.5z"/>
</g>
<g>
	<g>
		<g>
			<polygon fill="#FFFFFF" points="155.4,249.5 160,257.6 169.3,257.1 163,264 166.3,272.7 157.8,268.9 150.6,274.8 151.6,265.5 
				143.8,260.4 152.9,258.5 			"/>
		</g>
	</g>
	<g>
		<g>
			<polygon fill="#FFFFFF" points="186.4,241.3 193,247.9 201.9,245.1 197.6,253.3 203.1,260.9 193.9,259.4 188.4,266.9 
				186.9,257.8 178.1,254.8 186.4,250.6 			"/>
		</g>
	</g>
	<g>
		<g>
			<polygon fill="#FFFFFF" points="123.6,249.4 118.9,257.4 109.6,256.9 115.8,263.8 112.4,272.5 120.9,268.8 128.1,274.7 
				127.2,265.4 135,260.4 125.9,258.4 			"/>
		</g>
	</g>
	<g>
		<g>
			<polygon fill="#FFFFFF" points="92.7,241 86,247.5 77.2,244.6 81.4,252.9 75.9,260.4 85.1,259 90.5,266.6 92,257.4 100.9,254.5 
				92.6,250.3 			"/>
		</g>
	</g>
</g>
<path fill="#FFFFFF" d="M140,12.7c-64,0-116.1,52.1-116.1,116.1S76,244.9,140,244.9s116.1-52.1,116.1-116.1S204,12.7,140,12.7z
	 M140,238.3c-60.4,0-109.5-49.1-109.5-109.5S79.6,19.3,140,19.3s109.5,49.1,109.5,109.5S200.4,238.3,140,238.3z"/>
<path fill="#FFFFFF" d="M173.6,166.2h-67.2l-6.4-6.4V96.5l6.4-6.4h67.3l6.4,6.4v63.3L173.6,166.2z M108.1,162h63.8l3.9-3.9V98.3
	l-3.9-3.9h-63.8l-3.9,3.9v59.8L108.1,162z"/>
<g>
	<g>
		<path fill="#FFFFFF" d="M112,158.9c-2.4,0-4.3-1.9-4.3-4.3s1.9-4.3,4.3-4.3s4.3,1.9,4.3,4.3S114.4,158.9,112,158.9z M112,152
			c-1.5,0-2.7,1.2-2.7,2.7s1.2,2.7,2.7,2.7s2.7-1.2,2.7-2.7S113.5,152,112,152z"/>
	</g>
	<g>
		<path fill="#FFFFFF" d="M168.4,158.9c-2.4,0-4.3-1.9-4.3-4.3s1.9-4.3,4.3-4.3s4.3,1.9,4.3,4.3S170.8,158.9,168.4,158.9z
			 M168.4,152c-1.5,0-2.7,1.2-2.7,2.7s1.2,2.7,2.7,2.7s2.7-1.2,2.7-2.7S169.9,152,168.4,152z"/>
	</g>
	<g>
		<path fill="#FFFFFF" d="M112,106.1c-2.4,0-4.3-1.9-4.3-4.3s1.9-4.3,4.3-4.3s4.3,1.9,4.3,4.3S114.4,106.1,112,106.1z M112,99.1
			c-1.5,0-2.7,1.2-2.7,2.7s1.2,2.7,2.7,2.7s2.7-1.2,2.7-2.7S113.5,99.1,112,99.1z"/>
	</g>
	<g>
		<path fill="#FFFFFF" d="M168.4,106.1c-2.4,0-4.3-1.9-4.3-4.3s1.9-4.3,4.3-4.3s4.3,1.9,4.3,4.3S170.8,106.1,168.4,106.1z
			 M168.4,99.1c-1.5,0-2.7,1.2-2.7,2.7s1.2,2.7,2.7,2.7s2.7-1.2,2.7-2.7S169.9,99.1,168.4,99.1z"/>
	</g>
</g>
<g>
	<path fill="#FFFFFF" d="M155,113.1h-30.2v30.2H155V113.1z M132.4,138.7h-3v-3h3V138.7z M132.4,132.7h-3v-3h3V132.7z M132.4,126.7
		h-3v-3h3V126.7z M132.4,120.6h-3v-3h3V120.6z M138.5,138.7h-3v-3h3V138.7z M138.5,132.7h-3v-3h3V132.7z M138.5,126.7h-3v-3h3V126.7
		z M138.5,120.6h-3v-3h3V120.6z M144.5,138.7h-3v-3h3V138.7z M144.5,132.7h-3v-3h3V132.7z M144.5,126.7h-3v-3h3V126.7z M144.5,120.6
		h-3v-3h3V120.6z M150.5,138.7h-3v-3h3V138.7z M150.5,132.7h-3v-3h3V132.7z M150.5,126.7h-3v-3h3V126.7z M150.5,120.6h-3v-3h3V120.6
		z"/>
	<path fill="#FFFFFF" d="M117.5,105.8v44.8h44.8v-44.8H117.5z M156.7,144.9h-33.5v-33.5h33.5V144.9z"/>
</g>
</svg>
