<?xml version="1.0" encoding="utf-8"?>
<!-- Generator: Adobe Illustrator 25.2.3, SVG Export Plug-In . SVG Version: 6.00 Build 0)  -->
<svg version="1.1" id="Layer_1" xmlns="http://www.w3.org/2000/svg" xmlns:xlink="http://www.w3.org/1999/xlink" x="0px" y="0px"
	 viewBox="0 0 520 520" style="enable-background:new 0 0 520 520;" xml:space="preserve">
<style type="text/css">
	.st0{fill:#345F89;}
</style>
<path class="st0" d="M401.6,116c-25.2,0-45.6-20.4-45.6-45.6c0-1.3-1.1-2.4-2.4-2.4H166.4c-1.3,0-2.4,1.1-2.4,2.4
	c0,25.2-20.4,45.6-45.6,45.6c-1.3,0-2.4,1.1-2.4,2.4v183.9c0,26.2,12.4,50.9,33.3,66.7L260,452l110.7-83
	c21-15.7,33.3-40.4,33.3-66.7V118.4C404,117.1,402.9,116,401.6,116z M372.2,140l-57.7,57.7l-7.6-0.9l59.5-59.5
	C368.3,138.3,370.2,139.2,372.2,140z M336.5,201.3l11.1,1.3l1.4,0.2l0,0l7.5,0.9l0,0l1.5,0.2l-15.9,14.7l-6.9,6.4l0,0l-28.1,26
	l0.7,3.8l0.2,0.9l0,0l1.4,7.1l0,0l0.6,3l0,0l1.4,7l0,0l0.4,2.1l3.7,18.7l0.4,2.1l0,0l0.4,2.1l1,5l0,0l0.6,3l0,0l2.6,13.3l-2.5-1.4
	l0,0l-2.3-1.3l0,0l-5.4-3l0,0l-2.3-1.3l0,0l-5.4-3l0,0l-1-0.6l-1.3-0.7l0,0l-5.4-3l0,0l-2.3-1.3l0,0l-5.5-3.1l0,0l-1.9-1l-5.8-3.2
	l0,0l-2.3-1.3l0,0l-5.5-3.1l0,0l-1.2-0.7l-6.5-3.6l0,0l-1.2-0.7l-3.1-1.7l-12.3,6.9l0,0l-8.2,4.6l0,0l-19.3,10.8l0,0l-2,1.1l-6,3.4
	l0,0l-12.9,7.2l0.7-3.4l0,0l0.9-4.4l0,0l2.7-13.5l5.4-27.1l0,0l0.7-3.7l3.2-16l-5.6-5.2l-0.5-0.4l0,0l-5.3-4.9l-1-0.9l0,0l-4.4-4.1
	l0,0l0,0l-6.2-5.7l0,0l-0.3-0.3l-5.9-5.5l0,0l-0.6-0.6l-5.2-4.8l-0.4-0.3l0,0l-0.9-0.8l-5.4-5l0,0l-0.8-0.7l-5.4-5l0,0l-0.7-0.6
	l-2.4-2.2l4.1-0.5l2.5-0.3l0,0l9.5-1.1l0,0l0.8-0.1l4.4-0.5l24.3-2.9l1.8-0.2l0,0l9.5-1.1l0,0l4.1-0.5l0,0l7.6-0.9l8.5-18.3l0.4-0.9
	l0,0l7.2-15.6l0,0l3.1-6.7l0,0l0.9-1.9l9.1-19.6l1,2.2l0,0l2.9,6.3l0.9,1.9l0,0l4.3,9.2l6,13l0,0l1.1,2.3l0,0l3.1,6.7l0.7,1.5l0,0
	l9.2,19.9l16.4,2l0.5,0.1l0,0L336.5,201.3z M308.2,251.4l8.5-7.8l-8.4,8.4L308.2,251.4z M248,156.2l-41.3,41.3l-9.5,1.1l58.1-58.1
	l-5.2,11.2L248,156.2z M220.3,195.9l-9.5,1.1l34.2-34.2l-7.2,15.6L220.3,195.9z M234.6,185.2l-4.4,9.5l-5.8,0.7L234.6,185.2z
	 M364.2,136l-60.4,60.4l-7.6-0.9l62.8-62.8C360.7,133.9,362.4,135,364.2,136z M356.9,131.3l-63.8,63.8l-3.2-0.4l-1.5-3.3l63.9-63.9
	C353.7,128.8,355.3,130.1,356.9,131.3z M350.4,125.9l-63.2,63.2l-2.7-5.8l61.7-61.6C347.5,123.1,348.9,124.5,350.4,125.9z
	 M344.4,119.8l-61,61l-2.7-5.8l59.9-59.9C341.8,116.7,343.1,118.3,344.4,119.8z M339.2,113l-59.6,59.6l-2.7-5.8l59-59
	C336.9,109.6,338,111.3,339.2,113z M334.7,105.6l-58.9,58.9l-2.7-5.8L332,99.8C332.8,101.8,333.7,103.7,334.7,105.6z M330.2,98
	L272,156.2l-2-4.4l-0.6-1.4L321.8,98H330.2z M318.2,98l-50,50l-2.7-5.7L309.8,98H318.2z M306.2,98l-41.8,41.8l-2.7-5.7l36-36H306.2z
	 M294.2,98l-33.6,33.6l-0.6-1.3l-0.9,2l-0.8,1.7L193,199.2l-9.5,1.1L285.8,98H294.2z M282.2,98L179.4,200.8l-9.5,1.1l104-104H282.2z
	 M146,141.8l1.7-1.7c18.2-7.7,32.7-22.2,40.4-40.4l1.7-1.7h8.4L146,150.3V141.8z M146,153.8L201.8,98h8.4L146,162.2V153.8z
	 M146,165.8L213.8,98h8.4L146,174.2V165.8z M146,177.8L225.8,98h8.4L146,186.2V177.8z M146,189.8L237.8,98h8.4L146,198.2V189.8z
	 M146,201.8L249.8,98h8.4L146,210.2V201.8z M146,213.8L261.8,98h8.4L165.8,202.4l-3.9,0.5l-2.1,0.3l1.6,1.5l1.2,1.1L146,222.2V213.8
	z M146,225.8l18.4-18.4l4.4,4L146,234.2V225.8z M146,237.8l24.6-24.6l4.4,4l-29,29V237.8z M146,249.8l30.8-30.8l0.4,0.4l4,3.7
	L146,258.2V249.8z M146,261.8l37.1-37.1l4.4,4L146,270.2V261.8z M146,273.8l43.3-43.3l4.4,4L146,282.2V273.8z M146,285.8l49.5-49.5
	l4.4,4.1L146,294.3V285.8z M146,302.3v-4.5l55.7-55.8l4.4,4.1l-59.9,60C146.1,304.8,146,303.6,146,302.3z M146.5,309.3l61.5-61.5
	l3.8,3.6l-0.3,1.3l-63.6,63.6C147.3,314,146.8,311.7,146.5,309.3z M148.7,319l62-61.9l-2.1,10.6l-57.4,57.4
	C150.2,323.1,149.4,321.1,148.7,319z M152.3,327.4l55.4-55.4l-2.1,10.6l-50.1,50.1C154.4,331,153.3,329.2,152.3,327.4z M157,334.7
	l47.8-47.8l-2.1,10.6l-41.8,41.8C159.5,337.9,158.2,336.3,157,334.7z M162.7,341.1l39.1-39.1l-2.1,10.6L167.3,345
	C165.7,343.7,164.1,342.4,162.7,341.1z M169.3,346.5l29.5-29.5l-0.4,1.9L198,321l1.9-1.1l9.8-5.5l-35.6,35.6L169.3,346.5z
	 M176.1,351.6l41.6-41.6l1.1-0.6l18.2-10.2l-56,56L176.1,351.6z M183,356.8l62.1-62.1l14.9-8.3l1.2,0.7l-73.3,73.4L183,356.8z
	 M189.9,361.9l73.6-73.6l5.4,3l-74.2,74.2L189.9,361.9z M196.7,367l74.5-74.4l5.5,3.1l-75,75.1L196.7,367z M203.6,372.2l75.3-75.3
	l5.4,3l-75.9,75.9L203.6,372.2z M210.4,377.3l76.1-76.1l5.5,3.1L215.3,381L210.4,377.3z M217.3,382.5l77-77l5.4,3l-77.6,77.6
	L217.3,382.5z M224.1,387.6l77.8-77.8l5.4,3L229,391.2L224.1,387.6z M231,392.8l78.7-78.7l5.4,3l-79.2,79.2L231,392.8z M352.7,345
	l-7.7,5.7l21.9-21.8C363.4,335.1,358.6,340.6,352.7,345z M370.2,322.1L331,361.3l-34,25.4l76.4-76.3
	C372.8,314.4,371.7,318.3,370.2,322.1z M374,302.3c0,1.4-0.1,2.7-0.2,4.1L283,397.3l-23,17.2l-1.6-1.2L374,297.7V302.3z M374,294.2
	L256.4,411.8l-4.8-3.6L374,285.8V294.2z M374,282.2L249.6,406.7l-4.9-3.7L374,273.8V282.2z M374,270.2L242.7,401.5l-4.8-3.6
	l79.5-79.5l2.7,1.5l1.9,1.1l-0.4-2.1l-0.8-3.9l53.2-53.2V270.2z M374,258.2L320.2,312l-1.4-7l55.2-55.2V258.2z M374,246.2L318.2,302
	l-0.9-4.3l-0.5-2.7l57.2-57.1V246.2z M374,234.2L316.2,292l-1.4-7l59.2-59.2V234.2z M374,222.2L314.3,282l-1.4-7.1l61.1-61.1V222.2z
	 M374,210.2l-61.7,61.7l-1.4-7l63.1-63.1V210.2z M374,198.2l-63.7,63.7l-1.4-7.1l65.1-65.1V198.2z M374,186.2l-16.6,16.6l-7.5-0.9
	l24.1-24.1V186.2z M374,174.2l-27.3,27.3l-7.5-0.9l34.8-34.8V174.2z M374,162.2l-38.1,38.1l-7.5-0.9l45.6-45.6V162.2z M374,150.2
	L325.2,199l-7.5-0.9l56.3-56.3V150.2z"/>
<polygon class="st0" points="213.4,299.8 260,273.7 306.6,299.8 296.2,247.5 335.3,211.3 282.4,204.9 260,156.4 237.6,204.9 
	184.7,211.3 223.8,247.5 "/>
</svg>
