<?xml version="1.0" encoding="utf-8"?>
<!-- Generator: Adobe Illustrator 25.4.1, SVG Export Plug-In . SVG Version: 6.00 Build 0)  -->
<svg version="1.1" id="Layer_2_1_" xmlns="http://www.w3.org/2000/svg" xmlns:xlink="http://www.w3.org/1999/xlink" x="0px" y="0px"
	 viewBox="0 0 300 300" style="enable-background:new 0 0 300 300;" xml:space="preserve">
<style type="text/css">
	.st0{fill:#FFFFFF;}
</style>
<g>
	<polygon class="st0" points="150.7,150.8 150.7,176.4 150.6,187.5 182.4,169.1 182.5,132.4 181,133.2 	"/>
	<polygon class="st0" points="181.9,131.3 149.9,112.9 118.2,131.3 150.2,149.8 173.3,136.3 	"/>
	<polygon class="st0" points="117.5,169.1 149.5,187.5 149.5,176.6 149.6,150.8 117.6,132.4 	"/>
	<path class="st0" d="M277.5,155.1l25-7.5l-109.6-21.9l0,0l-43-24.8l-42.7,24.8l0,0L-2.5,147.6l25,7.5l84.7-16.9l0,3.5l-79.7,15.9
		l25,7.5l54.6-10.9l0,3.5l-49.6,9.9l25,7.5l24.6-4.9l0,4.9l43,24.8l42.7-24.8l0-4.9l24.7,4.9l25-7.5l-49.7-9.9l0-3.5l54.7,10.9
		l25-7.5l-79.6-15.9l0-3.5L277.5,155.1z M195,128.7l97.2,19.4l-14.8,4.4L195,136.1V128.7z M105,136.1l-82.4,16.5l-14.8-4.4
		l97.2-19.4V136.1z M105,152.1l-52.4,10.5l-14.8-4.4l67.2-13.4V152.1z M105,168.1l-22.4,4.5l-14.8-4.4l37.2-7.4V168.1z M195,160.7
		l37.2,7.4l-14.8,4.4l-22.4-4.5V160.7z M195,144.7l67.2,13.4l-14.8,4.4L195,152.1V144.7z M186.7,130l-0.1,40.8l0,0.7l-0.6,0.4
		l-35.2,20.5l-0.6,0.4l-0.6-0.4L114,171.9l-0.6-0.4l0-0.7l0.1-40.8l0-0.7l0.6-0.4l35.2-20.5l0.6-0.4l0.6,0.4l35.5,20.5l0.6,0.4
		L186.7,130z"/>
</g>
</svg>
