<?xml version="1.0" encoding="utf-8"?>
<!-- Generator: Adobe Illustrator 22.1.0, SVG Export Plug-In . SVG Version: 6.00 Build 0)  -->
<svg version="1.1" baseProfile="tiny" id="Layer_1" xmlns="http://www.w3.org/2000/svg" xmlns:xlink="http://www.w3.org/1999/xlink"
	 x="0px" y="0px" width="520px" height="520px" viewBox="0 0 520 520" xml:space="preserve">
<g>
	<path fill="#FFFFFF" d="M189.8,98l-1.7,1.7c-7.7,18.2-22.2,32.7-40.4,40.4l-1.7,1.7v8.5L198.2,98H189.8z"/>
	<polygon fill="#FFFFFF" points="274.1,349.6 231,392.8 235.9,396.4 279.6,352.7 285.6,346.7 374,258.2 374,249.8 284.2,339.6 	"/>
	<polygon fill="#FFFFFF" points="281.8,353.9 237.9,397.9 242.7,401.5 287.3,357 287.6,356.7 374,270.2 374,261.8 286.2,349.6 	"/>
	<polygon fill="#FFFFFF" points="249.6,406.7 374,282.2 374,273.8 244.7,403 	"/>
	<polygon fill="#FFFFFF" points="256.4,411.8 374,294.2 374,285.8 251.6,408.2 	"/>
	<path fill="#FFFFFF" d="M260,414.5l23-17.2l90.8-90.9c0.1-1.4,0.2-2.7,0.2-4.1v-4.6L258.4,413.3L260,414.5z"/>
	<path fill="#FFFFFF" d="M331,361.3l39.2-39.2c1.5-3.8,2.6-7.7,3.2-11.7L297,386.7L331,361.3z"/>
	<path fill="#FFFFFF" d="M352.7,345c5.9-4.4,10.7-9.9,14.2-16.1L345,350.7L352.7,345z"/>
	<path fill="#FFFFFF" d="M401.6,116c-25.2,0-45.6-20.4-45.6-45.6c0-1.3-1.1-2.4-2.4-2.4H166.4c-1.3,0-2.4,1.1-2.4,2.4
		c0,25.2-20.4,45.6-45.6,45.6c-1.3,0-2.4,1.1-2.4,2.4v183.9c0,26.2,12.4,50.9,33.3,66.7L260,452l110.7-83
		c21-15.7,33.3-40.4,33.3-66.7V118.4C404,117.1,402.9,116,401.6,116z M181,87.2h158c6,22.3,23.5,39.8,45.8,45.8v19h-12.6l1.8-1.8
		v-8.5L363.8,152h-3.5l12-12c-2-0.8-3.9-1.7-5.8-2.7L351.8,152h-3.5l15.9-15.9c-1.8-1-3.5-2.1-5.2-3.3L339.8,152h-3.5l20.7-20.7
		c-1.6-1.2-3.2-2.5-4.7-3.8L327.8,152h-3.5l26.1-26.1c-1.5-1.4-2.9-2.8-4.2-4.2L315.8,152h-3.5l32.2-32.2c-1.3-1.5-2.6-3.1-3.8-4.7
		L303.8,152h-3.5l39-39c-1.2-1.7-2.3-3.4-3.3-5.2L291.8,152h-3.5l46.4-46.4c-1-1.9-1.9-3.8-2.7-5.8L279.8,152h-3.5l54-54h-8.5
		l-54,54h-3.5l54-54h-8.5l-54,54h-3.5l54-54h-8.5l-54,54h-3.5l54-54h-8.5l-54,54h-3.5l54-54h-8.5l-54,54h-3.5l54-54h-8.5l-54,54
		h-3.5l54-54h-8.5l-54,54h-3.5l54-54h-8.5l-54,54h-3.5l54-54h-8.5l-54,54h-3.5l54-54h-8.5l-54,54h-3.5l54-54h-8.5l-54,54h-12.6v-19
		C157.5,127,175,109.5,181,87.2z M308,244.4v-88.8h12v88.8H308z M272,244.4v-88.8h12v88.8H272z M236,244.4v-88.8h12v88.8H236z
		 M200,244.4v-88.8h12v88.8H200z M135.2,244.4v-88.8H176v88.8H135.2z M344,155.6h40.8v88.8H344V155.6z M359.1,353.6L260,428
		l-99.1-74.4c-16.1-12.1-25.7-31.2-25.7-51.3V248h12.6l-1.8,1.8v8.5l10.2-10.2h3.5L146,261.8v8.5l22.2-22.2h3.5L146,273.8v8.5
		l34.2-34.2h3.5L146,285.8v8.5l46.2-46.2h3.5L146,297.8v4.6c0,1.3,0.1,2.5,0.2,3.8l58.1-58.1h3.5l-61.3,61.3c0.3,2.4,0.8,4.7,1.4,7
		l68.3-68.3h3.5l-71,71c0.7,2.1,1.5,4.1,2.4,6.1l77.1-77.1h3.5l-79.4,79.4c1,1.8,2,3.6,3.2,5.3l84.7-84.7h3.5L157,334.7
		c1.2,1.6,2.5,3.1,3.9,4.6l91.3-91.3h3.5l-93.1,93.1c1.5,1.4,3,2.7,4.6,3.9l97-97h3.5l-98.5,98.5l4.8,3.6l43.4-43.4l2.8-2.8
		l55.9-55.9h3.5l-55.5,55.5l-4.9,4.9l-43.2,43.2l4.8,3.6l42.8-42.8l10.1-10.1l22.5-22.5l5-5l26.9-26.9h3.5l-29.3,29.3l-9.1,9.1
		l-15.5,15.5l-12.3,12.3L183,356.8l4.8,3.6l42.2-42.2l16.7-17.4l18.4-17.7l35.1-35.1h3.5l-37.5,37.5l-34.4,34.4l-42,42l4.8,3.6
		l41.5-41.5l32.7-32.7l43.3-43.3h3.5L270,293.7l-31.9,31.9L196.7,367l4.8,3.6l35-35l36.1-36.1l51.5-51.5h3.5l-53,53l-39,39
		l-32.2,32.2l4.8,3.6l25.2-25.2l48.7-48.7l53.9-53.9h3.5l-54.3,54.3L232.8,355l-22.3,22.3l4.8,3.6l32.4-32.4l45.5-45.5l55.2-55.2
		h3.5l-55.5,55.5l-40.6,40.6l-38.3,38.3l4.8,3.6l42.1-42.1l39.6-39.6l56.4-56.4h3.5l-81.6,81.6l-15.7,15.7l-42.3,42.3l4.8,3.6
		l42.9-42.9l11.7-11.7l88.6-88.6h12.6v54.3C384.8,322.4,375.2,341.6,359.1,353.6z"/>
</g>
</svg>
