<?xml version="1.0" encoding="utf-8"?>
<!-- Generator: Adobe Illustrator 25.4.1, SVG Export Plug-In . SVG Version: 6.00 Build 0)  -->
<svg version="1.1" id="Layer_2_1_" xmlns="http://www.w3.org/2000/svg" xmlns:xlink="http://www.w3.org/1999/xlink" x="0px" y="0px"
	 viewBox="0 0 300 300" style="enable-background:new 0 0 300 300;" xml:space="preserve">
<style type="text/css">
	.st0{fill:#FFFFFF;}
</style>
<g>
	<path class="st0" d="M190,194.1l-40,40l-40-40v-5.9l-10-10v20l50,50l50-50v-20l-10,10V194.1z M193,195.3v-1.2v-4.6l4-4V197l-47,47
		l-47-47v-11.5l4,4v4.6v1.2l0.9,0.9l40,40l2.1,2.1l2.1-2.1l40-40L193,195.3z"/>
	<path class="st0" d="M100,173.2l50,50l50-50v-75H100V173.2z M110,108.2h80v60.9l-40,40l-40-40V108.2z"/>
	<polygon class="st0" points="205,98.2 205,113.2 275,113.2 290,98.2 	"/>
	<polygon class="st0" points="205,133.2 255,133.2 270,118.2 205,118.2 	"/>
	<polygon class="st0" points="205,153.2 220,153.2 235,138.2 205,138.2 	"/>
	<polygon class="st0" points="205,168.2 215,158.2 205,158.2 	"/>
	<polygon class="st0" points="25,113.2 95,113.2 95,98.2 10,98.2 	"/>
	<polygon class="st0" points="45,133.2 95,133.2 95,118.2 30,118.2 	"/>
	<polygon class="st0" points="80,153.2 95,153.2 95,138.2 65,138.2 	"/>
	<polygon class="st0" points="95,168.2 95,158.2 85,158.2 	"/>
	<rect x="157.5" y="118.2" class="st0" width="7.5" height="50"/>
	<rect x="167.5" y="118.2" class="st0" width="7.5" height="50"/>
	<rect x="177.5" y="118.2" class="st0" width="7.5" height="50"/>
	<polygon class="st0" points="140.8,80.9 150,76 159.2,80.9 157.4,70.6 164.9,63.4 154.6,61.9 150,52.6 145.4,61.9 135.1,63.4 
		142.6,70.6 	"/>
	<polygon class="st0" points="191.2,65.6 183.1,72.1 173.1,69.1 176.8,78.8 170.9,87.4 181.3,86.9 187.6,95.1 190.3,85.1 
		200.1,81.7 191.4,76 	"/>
	<polygon class="st0" points="112.4,95.1 118.7,86.9 129.1,87.4 123.2,78.8 126.9,69.1 116.9,72.1 108.8,65.6 108.6,76 99.9,81.7 
		109.7,85.1 	"/>
	<polygon class="st0" points="142.7,118.2 133.7,151.8 124.7,118.2 114.3,118.2 127.7,168.2 139.6,168.2 153,118.2 	"/>
</g>
</svg>
