<?xml version="1.0" encoding="utf-8"?>
<!-- Generator: Adobe Illustrator 25.4.1, SVG Export Plug-In . SVG Version: 6.00 Build 0)  -->
<svg version="1.1" id="Layer_2_1_" xmlns="http://www.w3.org/2000/svg" xmlns:xlink="http://www.w3.org/1999/xlink" x="0px" y="0px"
	 viewBox="0 0 300 300" style="enable-background:new 0 0 300 300;" xml:space="preserve">
<style type="text/css">
	.st0{fill:#FFFFFF;}
</style>
<g>
	<polygon class="st0" points="190,194.1 150,234.1 110,194.1 110,188.2 100,178.2 100,198.2 150,248.2 200,198.2 200,178.2 
		190,188.2 	"/>
	<path class="st0" d="M100,173.2l50,50l50-50v-75H100V173.2z M110,108.2h80v60.9l-40,40l-40-40V108.2z"/>
	<polygon class="st0" points="205,98.2 205,113.2 285,113.2 300,98.2 	"/>
	<polygon class="st0" points="205,133.2 265,133.2 280,118.2 205,118.2 	"/>
	<polygon class="st0" points="205,153.2 225,153.2 240,138.2 205,138.2 	"/>
	<polygon class="st0" points="205,168.2 215,158.2 205,158.2 	"/>
	<polygon class="st0" points="15,113.2 95,113.2 95,98.2 0,98.2 	"/>
	<polygon class="st0" points="35,133.2 95,133.2 95,118.2 20,118.2 	"/>
	<polygon class="st0" points="75,153.2 95,153.2 95,138.2 60,138.2 	"/>
	<polygon class="st0" points="95,168.2 95,158.2 85,158.2 	"/>
	<rect x="124" y="118.2" class="st0" width="10" height="50"/>
	<polygon class="st0" points="150.3,168.2 159,153.2 167.7,168.2 179.2,168.2 164.8,143.2 179.2,118.2 167.7,118.2 159,133.2 
		150.3,118.2 138.8,118.2 153.2,143.2 138.8,168.2 	"/>
	<polygon class="st0" points="140.8,80.9 150,76 159.2,80.9 157.4,70.6 164.9,63.4 154.6,61.9 150,52.6 145.4,61.9 135.1,63.4 
		142.6,70.6 	"/>
	<polygon class="st0" points="191.2,65.6 183.1,72.1 173.1,69.1 176.8,78.8 170.9,87.4 181.3,86.9 187.6,95.1 190.3,85.1 
		200.1,81.7 191.4,76 	"/>
	<polygon class="st0" points="112.4,95.1 118.7,86.9 129.1,87.4 123.2,78.8 126.9,69.1 116.9,72.1 108.8,65.6 108.6,76 99.9,81.7 
		109.7,85.1 	"/>
</g>
</svg>
