<?xml version="1.0" encoding="utf-8"?>
<!-- Generator: Adobe Illustrator 25.4.1, SVG Export Plug-In . SVG Version: 6.00 Build 0)  -->
<svg version="1.1" id="Layer_2_1_" xmlns="http://www.w3.org/2000/svg" xmlns:xlink="http://www.w3.org/1999/xlink" x="0px" y="0px"
	 viewBox="0 0 300 300" style="enable-background:new 0 0 300 300;" xml:space="preserve">
<style type="text/css">
	.st0{fill:#FFFFFF;}
</style>
<g>
	<path class="st0" d="M100,162.9l50,50l50-50v-75H100V162.9z M110,97.9h80v60.9l-40,40l-40-40V97.9z"/>
	<polygon class="st0" points="205,87.9 205,102.9 275,102.9 290,87.9 	"/>
	<polygon class="st0" points="205,122.9 255,122.9 270,107.9 205,107.9 	"/>
	<path class="st0" d="M205,142.9h15l15-15h-30V142.9z M210,132.9h12.9l-5,5H210V132.9z"/>
	<polygon class="st0" points="25,102.9 95,102.9 95,87.9 10,87.9 	"/>
	<polygon class="st0" points="45,122.9 95,122.9 95,107.9 30,107.9 	"/>
	<path class="st0" d="M80,142.9h15v-15H65L80,142.9z M90,137.9h-7.9l-5-5H90V137.9z"/>
	<polygon class="st0" points="169.4,107.9 159,107.9 150,141.5 141,107.9 130.6,107.9 144,157.9 156,157.9 	"/>
</g>
</svg>
