<?xml version="1.0" encoding="utf-8"?>
<!-- Generator: Adobe Illustrator 25.4.1, SVG Export Plug-In . SVG Version: 6.00 Build 0)  -->
<svg version="1.1" id="Layer_2_1_" xmlns="http://www.w3.org/2000/svg" xmlns:xlink="http://www.w3.org/1999/xlink" x="0px" y="0px"
	 viewBox="0 0 300 300" style="enable-background:new 0 0 300 300;" xml:space="preserve">
<style type="text/css">
	.st0{fill:#FFFFFF;}
</style>
<g>
	<polygon class="st0" points="100,162.9 150,212.9 200,162.9 200,87.9 100,87.9 	"/>
	<polygon class="st0" points="205,87.9 205,102.9 275,102.9 290,87.9 	"/>
	<polygon class="st0" points="205,122.9 255,122.9 270,107.9 205,107.9 	"/>
	<polygon class="st0" points="205,142.9 220,142.9 235,127.9 205,127.9 	"/>
	<polygon class="st0" points="205,157.9 215,147.9 205,147.9 	"/>
	<polygon class="st0" points="25,102.9 95,102.9 95,87.9 10,87.9 	"/>
	<polygon class="st0" points="45,122.9 95,122.9 95,107.9 30,107.9 	"/>
	<polygon class="st0" points="80,142.9 95,142.9 95,127.9 65,127.9 	"/>
	<polygon class="st0" points="95,157.9 95,147.9 85,147.9 	"/>
</g>
</svg>
