<?xml version="1.0" encoding="utf-8"?>
<!-- Generator: Adobe Illustrator 22.1.0, SVG Export Plug-In . SVG Version: 6.00 Build 0)  -->
<svg version="1.1" baseProfile="tiny" id="Layer_1" xmlns="http://www.w3.org/2000/svg" xmlns:xlink="http://www.w3.org/1999/xlink"
	 x="0px" y="0px" width="520px" height="520px" viewBox="0 0 520 520" xml:space="preserve">
<g>
	<path fill="#0C0808" d="M260,512.1c-67.3,0-130.6-26.2-178.3-73.8C34.1,390.6,7.9,327.3,7.9,260S34.1,129.4,81.7,81.7
		C129.4,34.1,192.7,7.9,260,7.9s130.6,26.2,178.3,73.8c47.6,47.6,73.8,110.9,73.8,178.3c0,67.3-26.2,130.6-73.8,178.3
		S327.3,512.1,260,512.1z M260,10.9C122.6,10.9,10.9,122.6,10.9,260S122.6,509.1,260,509.1S509.1,397.4,509.1,260
		S397.4,10.9,260,10.9z"/>
</g>
<g>
	<path fill="#0C0808" d="M88.7,244.4l20.6,13.7h1c1-81.2,66.8-147,148-148v-1l-13.7-20.6C162,96.1,96.1,162,88.7,244.4z"/>
	<path fill="#0C0808" d="M409.8,258.2h1l20.6-13.7C423.9,162,358,96.1,275.6,88.7l-13.7,20.6v1C343,111.2,408.8,177,409.8,258.2z"/>
	<path fill="#0C0808" d="M254.9,267.7c-0.5-0.4-1-0.7-1.4-1.2c-0.4-0.4-0.8-0.9-1.2-1.4c-0.3-0.5-0.6-1-0.9-1.6
		c-0.2-0.5-0.4-1.1-0.5-1.7h-44.6v16.7h-3.7v-16.7h-14.8v16.7h-3.7v-16.7h-14.8v16.7h-3.7v-16.7h-14.8v16.7h-3.7v-16.7h-14.8v16.7
		h-3.7v-16.7h-14.8c1,79.1,65.1,143.3,144.3,144.3v-14.8h-16.7v-3.7h16.7v-14.8h-16.7v-3.7h16.7v-14.8h-16.7v-3.7h16.7v-14.8h-16.7
		v-3.7h16.7v-14.8h-16.7v-3.7h16.7v-44.6c-0.6-0.1-1.1-0.3-1.7-0.5C255.9,268.3,255.4,268,254.9,267.7z"/>
	<path fill="#0C0808" d="M110.2,261.8h-1l-20.6,13.7C96.1,358,162,423.9,244.4,431.3l13.7-20.6v-1C177,408.8,111.2,343,110.2,261.8z
		"/>
	<path fill="#0C0808" d="M113.9,258.2h14.8v-16.7h3.7v16.7h14.8v-16.7h3.7v16.7h14.8v-16.7h3.7v16.7h14.8v-16.7h3.7v16.7h14.8v-16.7
		h3.7v16.7h44.6c0.1-0.6,0.3-1.1,0.5-1.7c0.2-0.6,0.5-1.1,0.9-1.6c0.3-0.5,0.7-1,1.1-1.4c0.4-0.4,0.9-0.8,1.4-1.2
		c0.5-0.3,1.1-0.6,1.6-0.9c0.5-0.2,1.1-0.4,1.7-0.5v-44.6h-16.7v-3.7h16.7v-14.8h-16.7v-3.7h16.7v-14.8h-16.7v-3.7h16.7v-14.8h-16.7
		v-3.7h16.7v-14.8h-16.7v-3.7h16.7v-14.8C179,114.9,114.9,179,113.9,258.2z"/>
	<path fill="#0C0808" d="M260,22.6C128.9,22.6,22.6,128.9,22.6,260S128.9,497.4,260,497.4S497.4,391.1,497.4,260
		S391.1,22.6,260,22.6z M260,445c-102.2,0-185-82.8-185-185S157.8,75,260,75s185,82.8,185,185S362.2,445,260,445z"/>
	<path fill="#0C0808" d="M267.7,254.9c0.3,0.5,0.6,1,0.9,1.6c0.2,0.5,0.4,1.1,0.5,1.7h44.6v-16.7h3.7v16.7h14.8v-16.7h3.7v16.7h14.8
		v-16.7h3.7v16.7h14.8v-16.7h3.7v16.7h14.8v-16.7h3.7v16.7h14.8c-1-79.1-65.1-143.3-144.3-144.3v14.8h16.7v3.7h-16.7v14.8h16.7v3.7
		h-16.7v14.8h16.7v3.7h-16.7v14.8h16.7v3.7h-16.7v14.8h16.7v3.7h-16.7V251c1.8,0.4,3.4,1.2,4.7,2.5
		C267,253.9,267.4,254.4,267.7,254.9z"/>
	<path fill="#0C0808" d="M409.8,261.8c-1,81.2-66.8,147-148,148v1l13.7,20.6c82.5-7.4,148.4-73.3,155.8-155.8l-20.6-13.7H409.8z"/>
	<path fill="#0C0808" d="M406.1,261.8h-14.8v16.7h-3.7v-16.7h-14.8v16.7h-3.7v-16.7h-14.8v16.7h-3.7v-16.7h-14.8v16.7h-3.7v-16.7
		h-14.8v16.7h-3.7v-16.7h-44.6c-0.1,0.6-0.3,1.1-0.5,1.7c-0.2,0.6-0.5,1.1-0.9,1.6c-0.3,0.5-0.7,1-1.2,1.4c-0.4,0.4-0.9,0.8-1.4,1.2
		c-0.5,0.3-1,0.6-1.6,0.9c-0.5,0.2-1.1,0.4-1.7,0.5v44.6h16.7v3.7h-16.7v14.8h16.7v3.7h-16.7v14.8h16.7v3.7h-16.7v14.8h16.7v3.7
		h-16.7v14.8h16.7v3.7h-16.7v14.8C341,405.1,405.1,341,406.1,261.8z"/>
</g>
</svg>
