<?xml version="1.0" encoding="utf-8"?>
<!-- Generator: Adobe Illustrator 22.1.0, SVG Export Plug-In . SVG Version: 6.00 Build 0)  -->
<svg version="1.1" baseProfile="tiny" id="Layer_2" xmlns="http://www.w3.org/2000/svg" xmlns:xlink="http://www.w3.org/1999/xlink"
	 x="0px" y="0px" width="300px" height="300px" viewBox="0 0 300 300" xml:space="preserve">
<path fill="#FFFFFF" d="M150,50C94.8,50,50,94.8,50,150s44.8,100,100,100s100-44.8,100-100S205.2,50,150,50z M150,242
	c-50.7,0-92-41.3-92-92s41.3-92,92-92s92,41.3,92,92S200.7,242,150,242z"/>
<polygon fill="#FFFFFF" points="176.5,116.5 150,142.9 123.5,116.5 116.5,123.5 142.9,150 116.5,176.5 123.5,183.5 150,157.1 
	176.5,183.5 183.5,176.5 157.1,150 183.5,123.5 "/>
</svg>
