<?xml version="1.0" encoding="utf-8"?>
<!-- Generator: Adobe Illustrator 26.4.1, SVG Export Plug-In . SVG Version: 6.00 Build 0)  -->
<svg version="1.1" baseProfile="tiny" id="Layer_2" xmlns="http://www.w3.org/2000/svg" xmlns:xlink="http://www.w3.org/1999/xlink"
	 x="0px" y="0px" viewBox="0 0 280 280" overflow="visible" xml:space="preserve">
<path fill="#FFFFFF" d="M140,12.7c-64,0-116.1,52.1-116.1,116.1S76,244.9,140,244.9s116.1-52.1,116.1-116.1S204,12.7,140,12.7z
	 M140,238.3c-60.4,0-109.5-49.1-109.5-109.5S79.6,19.3,140,19.3s109.5,49.1,109.5,109.5S200.4,238.3,140,238.3z"/>
<g>
	<polygon fill="#FFFFFF" points="78.9,135.4 76,118.9 74.9,118.9 73.9,118.9 70.8,135.4 65.1,141.3 65.1,145.7 72.4,145.7 
		74.1,149.8 75.6,149.8 77.3,145.7 84.7,145.7 84.7,141.3 	"/>
	<g>
		<path fill="#FFFFFF" d="M69.4,152.4l-3.1,50.7c0.8,0.8,1.7,1.7,2.6,2.5l0.7-51.3L69.4,152.4z"/>
		<path fill="#FFFFFF" d="M76.9,153.9l-0.7,3.1h-1.5h-1.5l-0.7-3.1l-0.1-0.5l-1.5,54.1c2.5,2.2,5.1,4.3,7.8,6.2L77,153.4L76.9,153.9
			z"/>
		<path fill="#FFFFFF" d="M80.1,154.3l1.3,61.3c1.2,0.8,2.4,1.6,3.7,2.4l-4.7-65.5L80.1,154.3z"/>
	</g>
</g>
<g>
	<polygon fill="#FFFFFF" points="201.1,135.4 204,118.9 205.1,118.9 206.1,118.9 209.2,135.4 214.9,141.3 214.9,145.7 207.6,145.7 
		205.9,149.8 204.4,149.8 202.7,145.7 195.3,145.7 195.3,141.3 	"/>
	<g>
		<path fill="#FFFFFF" d="M210.6,152.4l3.1,50.7c-0.8,0.8-1.7,1.7-2.6,2.5l-0.7-51.3L210.6,152.4z"/>
		<path fill="#FFFFFF" d="M203.1,153.9l0.7,3.1h1.5h1.5l0.7-3.1l0.1-0.5l1.5,54.1c-2.5,2.2-5.1,4.3-7.8,6.2l1.7-60.3L203.1,153.9z"
			/>
		<path fill="#FFFFFF" d="M199.9,154.3l-1.3,61.3c-1.2,0.8-2.4,1.6-3.7,2.4l4.7-65.5L199.9,154.3z"/>
	</g>
</g>
<path fill="#FFFFFF" d="M140,233.5c2.3,0,4.6-0.1,6.8-0.2l-1.5-49.6l-2.5,4.8h-2.8h-2.8l-2.5-4.8l-1.4,49.6
	C135.6,233.4,137.8,233.5,140,233.5z"/>
<g>
	<path fill="#FFFFFF" d="M129.2,176.3c-1.4-1.1-2.8-2.1-4.2-3.2l-5.1,58.4c1.5,0.3,4.3,0.8,5.8,1l3.7-55.9
		C129.4,176.5,129.3,176.4,129.2,176.3z"/>
	<path fill="#FFFFFF" d="M118.5,168l-7.1,61.5c1,0.3,2.1,0.6,3.1,0.8l6.3-60.6C120,169.2,119.2,168.6,118.5,168z"/>
</g>
<g>
	<path fill="#FFFFFF" d="M150.8,176.3c1.4-1.1,2.8-2.1,4.2-3.2l5.1,58.4c-1.5,0.3-4.3,0.8-5.8,1l-3.7-55.9
		C150.6,176.5,150.7,176.4,150.8,176.3z"/>
	<path fill="#FFFFFF" d="M161.5,168l7.1,61.5c-1,0.3-2.1,0.6-3.1,0.8l-6.3-60.6C160,169.2,160.8,168.6,161.5,168z"/>
</g>
<g>
	<path fill="#FFFFFF" d="M129.6,139.7l-10.3-10.3l-7.9,9.4l-1.1,12.1c0,0,0.6,3.8,0.6,5.2c0,0.6,0.4,1,0.9,1.5l7.7-7.7l-3.6-2.4
		l9.9-3.9L129.6,139.7z"/>
	<path fill="#FFFFFF" d="M130.1,108L130,117l-0.9,1l11.1,11.1l10.9-10.9L150,117l-0.1-8.9l-2.5-9.5L151,99l-0.7-3l-3.5-1.9
		c0,0-3.4-13.5-4.2-14.1c-0.8-0.7-2.5-1.2-2.5-1.2s-1.8,0.6-2.5,1.2s-4.2,14.1-4.2,14.1l-3.5,1.9l-0.7,3l3.5-0.4L130.1,108z"/>
</g>
<g>
	<path fill="#FFFFFF" d="M155.1,144l9.1,3.6l-3.4,2.2l7.7,7.7c0.4-0.4,0.6-0.8,0.6-1.3c0-1.4,0.6-5.2,0.6-5.2l-1.1-12.1l-7.7-9.1
		l-10,10L155.1,144z"/>
	<path fill="#FFFFFF" d="M140.2,150.4l-16.1,16.1c3.9,2.9,7.4,5.6,7.4,5.6s4.2,6,4.7,6.6c0.6,0.7,1.4,1.3,2.3,1.3c0.9,0,1.3,0,1.3,0
		s0.5,0,1.3,0c0.9,0,1.8-0.7,2.3-1.3c0.6-0.7,4.7-6.6,4.7-6.6s3.7-2.8,7.7-5.8L140.2,150.4z"/>
</g>
<g>
	<g>
		
			<rect x="137.7" y="94.9" transform="matrix(0.7071 -0.7071 0.7071 0.7071 -57.5154 139.9592)" fill="#FFFFFF" width="5" height="89.1"/>
	</g>
	<g>
		
			<rect x="95.7" y="137" transform="matrix(0.7071 -0.7071 0.7071 0.7071 -57.5786 140.0406)" fill="#FFFFFF" width="89.1" height="5"/>
	</g>
</g>
<g>
	<rect x="97.7" y="49.9" fill="#FFFFFF" width="17.1" height="16.1"/>
	<rect x="131.9" y="49.9" fill="#FFFFFF" width="17.1" height="16.1"/>
	<rect x="166.1" y="49.9" fill="#FFFFFF" width="17.1" height="16.1"/>
	<rect x="80.6" y="65.9" fill="#FFFFFF" width="17.1" height="16.1"/>
	<rect x="114.8" y="65.9" fill="#FFFFFF" width="17.1" height="16.1"/>
	<rect x="149" y="65.9" fill="#FFFFFF" width="17.1" height="16.1"/>
	<rect x="183.2" y="65.9" fill="#FFFFFF" width="17.1" height="16.1"/>
	<path fill="#FFFFFF" d="M76.6,45.8h126.7c-0.9-0.7-1.9-1.4-2.9-2.1h-121C78.5,44.3,77.6,45,76.6,45.8z"/>
	<path fill="#FFFFFF" d="M236.4,88.4c-0.3-0.7-0.6-1.4-0.9-2.1H44.5c-0.3,0.7-0.6,1.4-0.9,2.1H236.4z"/>
	<path fill="#FFFFFF" d="M200.3,65.9h17.1v-7.2c-2.8-3.1-5.8-6.1-9-8.8h-8.1V65.9z"/>
	<path fill="#FFFFFF" d="M217.5,82h16c-2.8-5.7-6.2-11-10-16.1h-6V82z"/>
	<path fill="#FFFFFF" d="M80.6,65.9V49.9h-9c-2.8,2.5-5.6,5.1-8.1,7.9v8.2H80.6z"/>
	<path fill="#FFFFFF" d="M63.4,82V65.9h-6.9c-3.8,5-7.1,10.4-10,16.1H63.4z"/>
</g>
</svg>
