<?xml version="1.0" encoding="utf-8"?>
<!-- Generator: Adobe Illustrator 25.4.1, SVG Export Plug-In . SVG Version: 6.00 Build 0)  -->
<svg version="1.1" id="Layer_2_1_" xmlns="http://www.w3.org/2000/svg" xmlns:xlink="http://www.w3.org/1999/xlink" x="0px" y="0px"
	 viewBox="0 0 300 300" style="enable-background:new 0 0 300 300;" xml:space="preserve">
<style type="text/css">
	.st0{fill:#FFFFFF;}
</style>
<g>
	<polygon class="st0" points="150.7,154.2 150.7,179.8 150.6,190.9 182.4,172.5 182.5,135.7 181,136.6 	"/>
	<polygon class="st0" points="181.9,134.7 149.9,116.3 118.2,134.7 150.2,153.2 173.3,139.7 	"/>
	<polygon class="st0" points="117.5,172.5 149.5,190.9 149.5,180 149.6,154.2 117.6,135.7 	"/>
	<path class="st0" d="M277.5,158.5l25-7.5l-109.6-21.9l0,0l-43-24.8l-42.7,24.8l0,0L-2.5,151l25,7.5l84.7-16.9l0,3.5L27.5,161
		l25,7.5l54.6-10.9l0,3.5L57.5,171l25,7.5l24.6-4.9l0,4.9l43,24.8l42.7-24.8l0-4.9l24.7,4.9l25-7.5l-49.7-9.9l0-3.5l54.7,10.9
		l25-7.5l-79.6-15.9l0-3.5L277.5,158.5z M186.7,133.4l-0.1,40.8l0,0.7l-0.6,0.4l-35.2,20.5l-0.6,0.4l-0.6-0.4L114,175.2l-0.6-0.4
		l0-0.7l0.1-40.8l0-0.7l0.6-0.4l35.2-20.5l0.6-0.4l0.6,0.4l35.5,20.5l0.6,0.4L186.7,133.4z"/>
	<polygon class="st0" points="192.8,189.2 192.8,182.4 192.5,182.4 191.8,182.8 187.8,185.2 152.8,205.5 150.1,207.1 147.3,205.5 
		112.1,185.1 108.1,182.8 107.3,182.4 107.1,182.4 107.1,189.2 150.1,214 	"/>
	<polygon class="st0" points="150.1,224 192.8,199.2 192.8,192.4 192.5,192.4 191.8,192.8 187.8,195.2 187.8,196.3 150.1,218.3 
		112.1,196.3 112.1,195.1 108.1,192.8 107.3,192.4 107.1,192.4 107.1,199.2 	"/>
	<polygon class="st0" points="153.1,84 150,77.8 146.9,84 140,85 145,89.9 143.8,96.8 150,93.5 156.2,96.8 155,89.9 160,85 	"/>
	<polygon class="st0" points="113.2,110.8 115.7,117.4 119.4,111.5 126.4,111.2 121.9,105.8 123.8,99.1 117.3,101.7 111.5,97.8 
		112,104.8 106.5,109.1 	"/>
	<polygon class="st0" points="180.6,111.5 184.3,117.4 186.8,110.8 193.5,109.1 188,104.8 188.5,97.8 182.7,101.7 176.2,99.1 
		178.1,105.8 173.6,111.2 	"/>
	<polygon class="st0" points="95.3,181 95.2,203.7 95.2,207.3 98.4,209.1 147,237.2 150.1,239 153.2,237.1 201.5,209.1 204.6,207.3 
		204.6,203.7 204.6,180.9 198.4,179.7 198.4,203.7 150.1,231.7 101.5,203.7 101.5,179.7 	"/>
	<polygon class="st0" points="204.7,126.5 204.8,97.1 204.8,93.5 201.6,91.7 153,63.6 149.9,61.8 146.8,63.6 98.5,91.7 95.4,93.5 
		95.4,97.1 95.4,126.4 101.6,125.2 101.6,97.1 149.9,69 198.5,97.1 198.5,125.2 	"/>
	<polygon class="st0" points="92.9,97.1 92.9,93.5 92.9,92.1 94.1,91.3 97.2,89.5 145.5,61.5 148.7,59.7 149.9,58.9 151.2,59.7 
		154.3,61.5 202.9,89.5 206,91.3 207.3,92 207.3,93.5 207.3,97.1 207.2,127 208.7,127.3 208.8,97.1 208.8,93.5 208.8,92 208.8,91.2 
		208,90.7 206.8,90 203.6,88.2 155,60.2 151.9,58.4 150.7,57.6 149.9,57.2 149.2,57.6 147.9,58.4 144.8,60.2 96.5,88.2 93.4,90 
		92.1,90.8 91.4,91.2 91.4,92.1 91.4,93.5 91.4,97.1 91.4,127.2 92.9,126.9 	"/>
	<polygon class="st0" points="207.1,203.7 207.1,207.3 207.1,208.7 205.9,209.4 202.8,211.2 154.5,239.3 151.3,241.1 150.1,241.9 
		148.8,241.1 145.7,239.3 97.1,211.3 94,209.5 92.7,208.7 92.7,207.3 92.7,203.7 92.8,181.5 91.3,181.8 91.2,203.7 91.2,207.3 
		91.2,208.7 91.2,209.6 92,210 93.2,210.8 96.4,212.6 145,240.6 148.1,242.4 149.3,243.2 150.1,243.6 150.8,243.1 152.1,242.4 
		155.2,240.6 203.5,212.5 206.6,210.7 207.9,210 208.6,209.6 208.6,208.7 208.6,207.3 208.6,203.7 208.6,181.7 207.1,181.4 	"/>
</g>
</svg>
