<?xml version="1.0" encoding="utf-8"?>
<!-- Generator: Adobe Illustrator 22.1.0, SVG Export Plug-In . SVG Version: 6.00 Build 0)  -->
<svg version="1.1" baseProfile="tiny" id="Layer_1" xmlns="http://www.w3.org/2000/svg" xmlns:xlink="http://www.w3.org/1999/xlink"
	 x="0px" y="0px" width="300px" height="300px" viewBox="0 0 300 300" xml:space="preserve">
<path fill="#FFFFFF" d="M150,250c55.2,0,100-44.8,100-100S205.2,50,150,50S50,94.8,50,150S94.8,250,150,250z M57.4,158.4l11.1-7.4
	h76.6c0.2,1,0.7,1.8,1.4,2.5c0.2,0.2,0.5,0.4,0.8,0.6c0.3,0.2,0.6,0.3,0.9,0.5c0.3,0.1,0.6,0.2,0.9,0.3v76.6l-7.4,11.1
	C97,238.6,61.4,203,57.4,158.4z M158.4,242.6l-7.4-11.1v-76.6c1-0.2,1.8-0.7,2.5-1.4s1.2-1.6,1.4-2.5h76.6l11.1,7.4
	C238.6,203,203,238.6,158.4,242.6z M242.6,141.6l-11.1,7.4h-76.6c-0.2-1-0.7-1.8-1.4-2.5s-1.6-1.2-2.5-1.3V68.5l7.4-11.1
	C203,61.4,238.6,97,242.6,141.6z M141.6,57.4l7.4,11.1v76.6c-0.3,0.1-0.6,0.2-0.9,0.3c-0.3,0.1-0.6,0.3-0.9,0.5
	c-0.3,0.2-0.5,0.4-0.8,0.6c-0.7,0.7-1.2,1.6-1.4,2.5H68.5l-11.1-7.4C61.4,97,97,61.4,141.6,57.4z"/>
</svg>
