<?xml version="1.0" encoding="utf-8"?>
<!-- Generator: Adobe Illustrator 26.4.1, SVG Export Plug-In . SVG Version: 6.00 Build 0)  -->
<svg version="1.1" baseProfile="tiny" id="Layer_2" xmlns="http://www.w3.org/2000/svg" xmlns:xlink="http://www.w3.org/1999/xlink"
	 x="0px" y="0px" viewBox="0 0 280 280" overflow="visible" xml:space="preserve">
<g>
	<g>
		<polygon fill="#FFFFFF" points="78.9,135.4 76,118.9 74.9,118.9 73.9,118.9 70.8,135.4 65.1,141.3 65.1,145.7 72.4,145.7 
			74.1,149.8 75.6,149.8 77.3,145.7 84.7,145.7 84.7,141.3 		"/>
		<g>
			<path fill="#FFFFFF" d="M69.4,152.4l-3.1,50.7c0.8,0.8,1.7,1.7,2.6,2.5l0.7-51.3L69.4,152.4z"/>
			<path fill="#FFFFFF" d="M76.9,153.9l-0.7,3.1h-1.5h-1.5l-0.7-3.1l-0.1-0.5l-1.5,54.1c2.5,2.2,5.1,4.3,7.8,6.2L77,153.4
				L76.9,153.9z"/>
			<path fill="#FFFFFF" d="M80.1,154.3l1.3,61.3c1.2,0.8,2.4,1.6,3.7,2.4l-4.7-65.5L80.1,154.3z"/>
		</g>
	</g>
	<g>
		<polygon fill="#FFFFFF" points="201.1,135.4 204,118.9 205.1,118.9 206.1,118.9 209.2,135.4 214.9,141.3 214.9,145.7 207.6,145.7 
			205.9,149.8 204.4,149.8 202.7,145.7 195.3,145.7 195.3,141.3 		"/>
		<g>
			<path fill="#FFFFFF" d="M210.6,152.4l3.1,50.7c-0.8,0.8-1.7,1.7-2.6,2.5l-0.7-51.3L210.6,152.4z"/>
			<path fill="#FFFFFF" d="M203.1,153.9l0.7,3.1h1.5h1.5l0.7-3.1l0.1-0.5l1.5,54.1c-2.5,2.2-5.1,4.3-7.8,6.2l1.7-60.3L203.1,153.9z"
				/>
			<path fill="#FFFFFF" d="M199.9,154.3l-1.3,61.3c-1.2,0.8-2.4,1.6-3.7,2.4l4.7-65.5L199.9,154.3z"/>
		</g>
	</g>
	<path fill="#FFFFFF" d="M168.6,138.8L150,117l-0.1-8.9l-2.5-9.5L151,99l-0.7-3l-3.5-1.9c0,0-3.4-13.5-4.2-14.1
		c-0.8-0.7-2.5-1.2-2.5-1.2s-1.8,0.6-2.5,1.2c-0.8,0.7-4.2,14.1-4.2,14.1l-3.5,1.9l-0.7,3l3.5-0.4l-2.5,9.5L130,117l-18.5,21.9
		l-1.1,12.1c0,0,0.6,3.8,0.6,5.2c0,1.4,2.3,2.4,3.8,3.3c1.4,0.9,17,12.6,17,12.6s4.2,6,4.7,6.6c0.6,0.7,1.4,1.3,2.3,1.3
		c0.9,0,1.3,0,1.3,0s0.5,0,1.3,0s1.8-0.7,2.3-1.3c0.6-0.7,4.7-6.6,4.7-6.6s15.5-11.7,17-12.6c1.4-0.9,3.8-1.9,3.8-3.3
		c0-1.4,0.6-5.2,0.6-5.2L168.6,138.8z M130.3,156.9l-14.5-9.4l15.2-6L130.3,156.9z M149.7,156.9l-0.8-15.3l15.2,6L149.7,156.9z"/>
	<path fill="#FFFFFF" d="M140,233.5c2.3,0,4.6-0.1,6.8-0.2l-1.5-49.6l-2.5,4.8h-2.8h-2.8l-2.5-4.8l-1.4,49.6
		C135.6,233.4,137.8,233.5,140,233.5z"/>
	<g>
		<path fill="#FFFFFF" d="M129.2,176.3c-1.4-1.1-2.8-2.1-4.2-3.2l-5.1,58.4c1.5,0.3,4.3,0.8,5.8,1l3.7-55.9
			C129.4,176.5,129.3,176.4,129.2,176.3z"/>
		<path fill="#FFFFFF" d="M118.5,168l-7.1,61.5c1,0.3,2.1,0.6,3.1,0.8l6.3-60.6C120,169.2,119.2,168.6,118.5,168z"/>
	</g>
	<g>
		<path fill="#FFFFFF" d="M150.8,176.3c1.4-1.1,2.8-2.1,4.2-3.2l5.1,58.4c-1.5,0.3-4.3,0.8-5.8,1l-3.7-55.9
			C150.6,176.5,150.7,176.4,150.8,176.3z"/>
		<path fill="#FFFFFF" d="M161.5,168l7.1,61.5c-1,0.3-2.1,0.6-3.1,0.8l-6.3-60.6C160,169.2,160.8,168.6,161.5,168z"/>
	</g>
</g>
<g>
	<polygon fill="#FFFFFF" points="224.7,240 218.4,236.8 212.2,240.2 213.3,233.2 208.1,228.3 215.1,227.2 218.2,220.8 221.4,227.1 
		228.4,228 223.4,233 	"/>
	<polygon fill="#FFFFFF" points="269.7,181 263.4,177.8 257.2,181.2 258.3,174.2 253.1,169.3 260.1,168.2 263.2,161.8 266.4,168.1 
		273.4,169 268.4,174 	"/>
	<polygon fill="#FFFFFF" points="188.7,259.5 182.4,256.3 176.2,259.7 177.3,252.7 172.1,247.8 179.1,246.7 182.2,240.3 
		185.4,246.6 192.4,247.5 187.4,252.5 	"/>
	<polygon fill="#FFFFFF" points="250.7,214 244.4,210.8 238.2,214.2 239.3,207.2 234.1,202.3 241.1,201.2 244.2,194.8 247.4,201.1 
		254.4,202 249.4,207 	"/>
	<polygon fill="#FFFFFF" points="133.5,268.4 139.8,265.2 146,268.6 144.9,261.6 150,256.8 143,255.7 140,249.3 136.8,255.6 
		129.8,256.5 134.8,261.5 	"/>
	<polygon fill="#FFFFFF" points="55.3,240 61.6,236.8 67.8,240.2 66.7,233.2 71.9,228.3 64.9,227.2 61.8,220.8 58.6,227.1 51.6,228 
		56.6,233 	"/>
	<polygon fill="#FFFFFF" points="10.3,181 16.6,177.8 22.8,181.2 21.7,174.2 26.9,169.3 19.9,168.2 16.8,161.8 13.6,168.1 6.6,169 
		11.6,174 	"/>
	<polygon fill="#FFFFFF" points="91.3,259.5 97.6,256.3 103.8,259.7 102.7,252.7 107.9,247.8 100.9,246.7 97.8,240.3 94.6,246.6 
		87.6,247.5 92.6,252.5 	"/>
	<polygon fill="#FFFFFF" points="29.3,214 35.6,210.8 41.8,214.2 40.7,207.2 45.9,202.3 38.9,201.2 35.8,194.8 32.6,201.1 25.6,202 
		30.6,207 	"/>
</g>
<g>
	<path fill="#FFFFFF" d="M140,12.7c-64,0-116.1,52.1-116.1,116.1S76,244.9,140,244.9s116.1-52.1,116.1-116.1S204,12.7,140,12.7z
		 M140,238.3c-60.4,0-109.5-49.1-109.5-109.5S79.6,19.3,140,19.3s109.5,49.1,109.5,109.5S200.4,238.3,140,238.3z"/>
	<g>
		<rect x="97.7" y="49.9" fill="#FFFFFF" width="17.1" height="16.1"/>
		<rect x="131.9" y="49.9" fill="#FFFFFF" width="17.1" height="16.1"/>
		<rect x="166.1" y="49.9" fill="#FFFFFF" width="17.1" height="16.1"/>
		<rect x="80.6" y="65.9" fill="#FFFFFF" width="17.1" height="16.1"/>
		<rect x="114.8" y="65.9" fill="#FFFFFF" width="17.1" height="16.1"/>
		<rect x="149" y="65.9" fill="#FFFFFF" width="17.1" height="16.1"/>
		<rect x="183.2" y="65.9" fill="#FFFFFF" width="17.1" height="16.1"/>
		<path fill="#FFFFFF" d="M76.6,45.8h126.7c-0.9-0.7-1.9-1.4-2.9-2.1h-121C78.5,44.3,77.6,45,76.6,45.8z"/>
		<path fill="#FFFFFF" d="M236.4,88.4c-0.3-0.7-0.6-1.4-0.9-2.1H44.5c-0.3,0.7-0.6,1.4-0.9,2.1H236.4z"/>
		<path fill="#FFFFFF" d="M200.3,65.9h17.1v-7.2c-2.8-3.1-5.8-6.1-9-8.8h-8.1V65.9z"/>
		<path fill="#FFFFFF" d="M217.5,82h16c-2.8-5.7-6.2-11-10-16.1h-6V82z"/>
		<path fill="#FFFFFF" d="M80.6,65.9V49.9h-9c-2.8,2.5-5.6,5.1-8.1,7.9v8.2H80.6z"/>
		<path fill="#FFFFFF" d="M63.4,82V65.9h-6.9c-3.8,5-7.1,10.4-10,16.1H63.4z"/>
	</g>
</g>
</svg>
