<?xml version="1.0" encoding="utf-8"?>
<!-- Generator: Adobe Illustrator 26.4.1, SVG Export Plug-In . SVG Version: 6.00 Build 0)  -->
<svg version="1.1" baseProfile="tiny" id="icon_x5F_reputation_x5F_aciedo_x5F_applicant"
	 xmlns="http://www.w3.org/2000/svg" xmlns:xlink="http://www.w3.org/1999/xlink" x="0px" y="0px" viewBox="0 0 280 280"
	 overflow="visible" xml:space="preserve">
<path fill="#FFFFFF" d="M173.6,166.2h-67.2l-6.4-6.4V96.5l6.4-6.4h67.3l6.4,6.4v63.3L173.6,166.2z M108.1,162h63.8l3.9-3.9V98.3
	l-3.9-3.9h-63.8l-3.9,3.9v59.8L108.1,162z"/>
<g>
	<path fill="#FFFFFF" d="M155,113.1h-30.2v30.2H155V113.1z M132.4,138.7h-3v-3h3V138.7z M132.4,132.7h-3v-3h3V132.7z M132.4,126.7
		h-3v-3h3V126.7z M132.4,120.6h-3v-3h3V120.6z M138.5,138.7h-3v-3h3V138.7z M138.5,132.7h-3v-3h3V132.7z M138.5,126.7h-3v-3h3V126.7
		z M138.5,120.6h-3v-3h3V120.6z M144.5,138.7h-3v-3h3V138.7z M144.5,132.7h-3v-3h3V132.7z M144.5,126.7h-3v-3h3V126.7z M144.5,120.6
		h-3v-3h3V120.6z M150.5,138.7h-3v-3h3V138.7z M150.5,132.7h-3v-3h3V132.7z M150.5,126.7h-3v-3h3V126.7z M150.5,120.6h-3v-3h3V120.6
		z"/>
	<path fill="#FFFFFF" d="M117.5,105.8v44.8h44.8v-44.8H117.5z M156.7,144.9h-33.5v-33.5h33.5V144.9z"/>
</g>
<path fill="#FFFFFF" d="M140,12.7c-64,0-116.1,52.1-116.1,116.1S76,244.9,140,244.9s116.1-52.1,116.1-116.1S204,12.7,140,12.7z
	 M140,238.3c-60.4,0-109.5-49.1-109.5-109.5S79.6,19.3,140,19.3s109.5,49.1,109.5,109.5S200.4,238.3,140,238.3z"/>
<path fill="#FFFFFF" d="M112,150.3c-2.4,0-4.3,1.9-4.3,4.3s1.9,4.3,4.3,4.3s4.3-1.9,4.3-4.3S114.4,150.3,112,150.3z M112,157.4
	c-1.5,0-2.7-1.2-2.7-2.7s1.2-2.7,2.7-2.7s2.7,1.2,2.7,2.7S113.5,157.4,112,157.4z"/>
<path fill="#FFFFFF" d="M168.4,150.3c-2.4,0-4.3,1.9-4.3,4.3s1.9,4.3,4.3,4.3c2.4,0,4.3-1.9,4.3-4.3S170.8,150.3,168.4,150.3z
	 M168.4,157.4c-1.5,0-2.7-1.2-2.7-2.7s1.2-2.7,2.7-2.7s2.7,1.2,2.7,2.7S169.9,157.4,168.4,157.4z"/>
<path fill="#FFFFFF" d="M112,97.5c-2.4,0-4.3,1.9-4.3,4.3s1.9,4.3,4.3,4.3s4.3-1.9,4.3-4.3S114.4,97.5,112,97.5z M112,104.5
	c-1.5,0-2.7-1.2-2.7-2.7s1.2-2.7,2.7-2.7s2.7,1.2,2.7,2.7S113.5,104.5,112,104.5z"/>
<path fill="#FFFFFF" d="M168.4,97.5c-2.4,0-4.3,1.9-4.3,4.3s1.9,4.3,4.3,4.3c2.4,0,4.3-1.9,4.3-4.3S170.8,97.5,168.4,97.5z
	 M168.4,104.5c-1.5,0-2.7-1.2-2.7-2.7s1.2-2.7,2.7-2.7s2.7,1.2,2.7,2.7S169.9,104.5,168.4,104.5z"/>
</svg>
