<?xml version="1.0" encoding="utf-8"?>
<!-- Generator: Adobe Illustrator 22.1.0, SVG Export Plug-In . SVG Version: 6.00 Build 0)  -->
<svg version="1.1" baseProfile="tiny" id="Layer_1" xmlns="http://www.w3.org/2000/svg" xmlns:xlink="http://www.w3.org/1999/xlink"
	 x="0px" y="0px" width="520px" height="520px" viewBox="0 0 520 520" xml:space="preserve">
<g>
	<polygon fill="#FFFFFF" points="201.8,98 146,153.8 146,162.2 210.2,98 	"/>
	<path fill="#FFFFFF" d="M189.8,98l-1.7,1.7c-7.7,18.2-22.2,32.7-40.4,40.4l-1.7,1.7v8.5L198.2,98H189.8z"/>
	<polygon fill="#FFFFFF" points="213.8,98 146,165.8 146,174.2 222.2,98 	"/>
	<polygon fill="#FFFFFF" points="225.8,98 146,177.8 146,186.2 234.2,98 	"/>
	<polygon fill="#FFFFFF" points="237.8,98 146,189.8 146,198.2 246.2,98 	"/>
	<polygon fill="#FFFFFF" points="249.8,98 146,201.8 146,210.2 258.2,98 	"/>
	<polygon fill="#FFFFFF" points="261.8,98 146,213.8 146,222.2 270.2,98 	"/>
	<polygon fill="#FFFFFF" points="273.8,98 146,225.8 146,234.2 282.2,98 	"/>
	<polygon fill="#FFFFFF" points="285.8,98 146,237.8 146,246.2 294.2,98 	"/>
	<polygon fill="#FFFFFF" points="297.8,98 146,249.8 146,258.2 306.2,98 	"/>
	<polygon fill="#FFFFFF" points="309.8,98 146,261.8 146,270.2 318.2,98 	"/>
	<polygon fill="#FFFFFF" points="321.8,98 146,273.8 146,282.2 330.2,98 	"/>
	<path fill="#FFFFFF" d="M146,285.8v8.5l188.7-188.7c-1-1.9-1.9-3.8-2.7-5.8L146,285.8z"/>
	<path fill="#FFFFFF" d="M146,302.3c0,1.3,0.1,2.5,0.2,3.8L339.2,113c-1.2-1.7-2.3-3.4-3.3-5.2L146,297.8V302.3z"/>
	<path fill="#FFFFFF" d="M147.9,316.3l196.5-196.5c-1.3-1.5-2.6-3.1-3.8-4.7L146.5,309.3C146.8,311.7,147.3,314,147.9,316.3z"/>
	<path fill="#FFFFFF" d="M151.2,325.1l199.2-199.2c-1.5-1.4-2.9-2.8-4.2-4.2L148.7,319C149.4,321.1,150.2,323.1,151.2,325.1z"/>
	<path fill="#FFFFFF" d="M155.5,332.7l201.4-201.4c-1.6-1.2-3.2-2.5-4.7-3.8L152.3,327.4C153.3,329.2,154.4,331,155.5,332.7z"/>
	<path fill="#FFFFFF" d="M160.9,339.3l203.3-203.3c-1.8-1-3.5-2.1-5.2-3.3l-202,202C158.2,336.3,159.5,337.9,160.9,339.3z"/>
	<path fill="#FFFFFF" d="M167.3,345L372.2,140c-2-0.8-3.9-1.7-5.8-2.7L162.7,341.1C164.1,342.4,165.7,343.7,167.3,345z"/>
	<polygon fill="#FFFFFF" points="174.1,350.1 374,150.2 374,141.8 169.3,346.5 	"/>
	<polygon fill="#FFFFFF" points="181,355.2 374,162.2 374,153.8 176.1,351.6 	"/>
	<polygon fill="#FFFFFF" points="187.9,360.4 374,174.2 374,165.8 183,356.8 	"/>
	<polygon fill="#FFFFFF" points="194.7,365.5 374,186.2 374,177.8 189.9,361.9 	"/>
	<polygon fill="#FFFFFF" points="201.6,370.7 374,198.2 374,189.8 196.7,367 	"/>
	<polygon fill="#FFFFFF" points="208.4,375.8 374,210.2 374,201.8 203.6,372.2 	"/>
	<polygon fill="#FFFFFF" points="215.3,381 374,222.2 374,213.8 210.4,377.3 	"/>
	<polygon fill="#FFFFFF" points="222.1,386.1 374,234.2 374,225.8 217.3,382.5 	"/>
	<polygon fill="#FFFFFF" points="229,391.2 374,246.2 374,237.8 224.1,387.6 	"/>
	<polygon fill="#FFFFFF" points="235.9,396.4 374,258.2 374,249.8 231,392.8 	"/>
	<polygon fill="#FFFFFF" points="242.7,401.5 374,270.2 374,261.8 237.9,397.9 	"/>
	<polygon fill="#FFFFFF" points="249.6,406.7 374,282.2 374,273.8 244.7,403 	"/>
	<polygon fill="#FFFFFF" points="256.4,411.8 374,294.2 374,285.8 251.6,408.2 	"/>
	<path fill="#FFFFFF" d="M260,414.5l23-17.2l90.8-90.9c0.1-1.4,0.2-2.7,0.2-4.1v-4.6L258.4,413.3L260,414.5z"/>
	<path fill="#FFFFFF" d="M331,361.3l39.2-39.2c1.5-3.8,2.6-7.7,3.2-11.7L297,386.7L331,361.3z"/>
	<path fill="#FFFFFF" d="M352.7,345c5.9-4.4,10.7-9.9,14.2-16.1L345,350.7L352.7,345z"/>
</g>
<path fill="#FFFFFF" d="M339,87.2c6,22.3,23.5,39.8,45.8,45.8v169.3c0,20.1-9.6,39.3-25.7,51.3L260,428l-99.1-74.4
	c-16.1-12.1-25.7-31.2-25.7-51.3V133c22.3-6,39.8-23.5,45.8-45.8H339 M353.6,68H166.4c-1.3,0-2.4,1.1-2.4,2.4
	c0,25.2-20.4,45.6-45.6,45.6c-1.3,0-2.4,1.1-2.4,2.4v183.9c0,26.2,12.4,50.9,33.3,66.7L260,452l110.7-83
	c21-15.7,33.3-40.4,33.3-66.7V118.4c0-1.3-1.1-2.4-2.4-2.4c-25.2,0-45.6-20.4-45.6-45.6C356,69.1,354.9,68,353.6,68L353.6,68z"/>
</svg>
