<?xml version="1.0" encoding="utf-8"?>
<!-- Generator: Adobe Illustrator 25.4.1, SVG Export Plug-In . SVG Version: 6.00 Build 0)  -->
<svg version="1.1" id="Layer_2_1_" xmlns="http://www.w3.org/2000/svg" xmlns:xlink="http://www.w3.org/1999/xlink" x="0px" y="0px"
	 viewBox="0 0 300 300" style="enable-background:new 0 0 300 300;" xml:space="preserve">
<style type="text/css">
	.st0{fill:#FFFFFF;}
</style>
<g>
	<polygon class="st0" points="150.7,140.4 150.7,166 150.6,177.1 182.4,158.7 182.5,122 181,122.8 	"/>
	<polygon class="st0" points="181.9,121 149.9,102.5 118.2,121 150.2,139.4 173.3,125.9 	"/>
	<polygon class="st0" points="117.5,158.7 149.5,177.2 149.5,166.2 149.6,140.4 117.6,122 	"/>
	<path class="st0" d="M277.5,144.8l25-7.5l-109.6-21.9l0,0l-43-24.8l-42.7,24.8l0,0L-2.5,137.3l25,7.5l84.7-16.9l0,3.5l-79.7,15.9
		l25,7.5l54.6-10.9l0,3.5l-49.6,9.9l25,7.5l24.6-4.9l0,4.9l43,24.8l42.7-24.8l0-4.9l24.7,4.9l25-7.5l-49.7-9.9l0-3.5l54.7,10.9
		l25-7.5l-79.6-15.9l0-3.5L277.5,144.8z M186.7,119.6l-0.1,40.8l0,0.7l-0.6,0.4L150.7,182l-0.6,0.4l-0.6-0.4L114,161.5l-0.6-0.4
		l0-0.7l0.1-40.8l0-0.7l0.6-0.4l35.2-20.5l0.6-0.4l0.6,0.4l35.5,20.5l0.6,0.4L186.7,119.6z"/>
	<polygon class="st0" points="191.8,179.1 187.8,181.4 187.8,182.6 150.1,204.5 112.1,182.6 112.1,181.4 108.1,179.1 107.3,178.6 
		107.1,178.6 107.1,185.5 150.1,210.3 192.8,185.5 192.8,178.7 192.5,178.7 	"/>
	<polygon class="st0" points="191.8,169.1 187.8,171.4 187.8,172.6 150.1,194.5 112.1,172.6 112.1,171.4 108.1,169.1 107.3,168.6 
		107.1,168.6 107.1,175.5 150.1,200.3 192.8,175.5 192.8,168.7 192.5,168.7 	"/>
</g>
</svg>
