<?xml version="1.0" encoding="utf-8"?>
<!-- Generator: Adobe Illustrator 22.1.0, SVG Export Plug-In . SVG Version: 6.00 Build 0)  -->
<svg version="1.1" baseProfile="tiny" id="Layer_1" xmlns="http://www.w3.org/2000/svg" xmlns:xlink="http://www.w3.org/1999/xlink"
	 x="0px" y="0px" width="520px" height="520px" viewBox="0 0 520 520" xml:space="preserve">
<g>
	<path fill="#FFFFFF" d="M260.1,452.9c-0.7,0-1.4,0-2.1,0c-51.5-0.5-99.7-21.1-135.8-57.9c-36-36.8-55.6-85.4-55-136.9
		c0.5-51.5,21.1-99.7,57.9-135.8c36.3-35.5,84.1-55,134.9-55c0.7,0,1.4,0,2.1,0c51.5,0.5,99.7,21.1,135.8,57.9
		c36,36.8,55.6,85.4,55,136.9c-0.5,51.5-21.1,99.7-57.9,135.8C358.6,433.4,310.8,452.9,260.1,452.9z M259.9,72.9
		c-49.2,0-95.6,18.9-130.9,53.4c-35.7,35-55.7,81.8-56.2,131.8c-0.5,50,18.4,97.2,53.4,132.9c35,35.7,81.8,55.7,131.8,56.2
		c0.7,0,1.4,0,2,0c49.2,0,95.6-18.9,130.9-53.4c35.7-35,55.7-81.8,56.2-131.8l2.8,0l-2.8,0c0.5-50-18.4-97.2-53.4-132.9
		C358.8,93.4,312,73.5,262,72.9C261.3,72.9,260.6,72.9,259.9,72.9z"/>
</g>
<g>
	<path fill="#FFFFFF" d="M260,441.5c-0.7,0-1.3,0-1.9,0c-48.4-0.5-93.8-19.9-127.7-54.5c-33.9-34.6-52.3-80.4-51.8-128.8
		s19.9-93.8,54.5-127.7c34.6-33.9,80.3-52.3,128.8-51.8c48.4,0.5,93.8,19.9,127.7,54.5c33.9,34.6,52.3,80.4,51.8,128.8l-1,0l1,0
		C440.3,361.4,359.1,441.5,260,441.5z M259.9,80.7c-47.2,0-91.7,18.1-125.4,51.2c-34.2,33.5-53.4,78.4-53.9,126.3
		c-1,98.9,78.6,180.2,177.5,181.3c0.6,0,1.3,0,1.9,0c98,0,178.3-79.2,179.3-177.5c1-98.9-78.6-180.2-177.5-181.3
		C261.2,80.7,260.6,80.7,259.9,80.7z"/>
</g>
<path fill="#FFFFFF" d="M411.7,108.4C371.2,67.9,317.3,45.6,260,45.6s-111.2,22.3-151.7,62.8c-40.5,40.5-62.8,94.4-62.8,151.7
	s22.3,111.2,62.8,151.7c40.5,40.5,94.4,62.8,151.7,62.8s111.2-22.3,151.7-62.8c40.5-40.5,62.8-94.4,62.8-151.7
	S452.2,148.9,411.7,108.4z M407.5,410.1l-10.3-10.5c-1.4,1.3-2.8,2.7-4.2,4l10,10.8c-1.5,1.4-3,2.8-4.6,4.1l-9.7-11.1
	c-1.4,1.3-2.9,2.5-4.4,3.7l9.4,11.4c-1.6,1.3-3.2,2.6-4.8,3.9l-9-11.6c-1.5,1.2-3,2.3-4.6,3.5l8.7,11.9c-1.7,1.2-3.3,2.4-5,3.6
	l-8.3-12.1c-1.6,1.1-3.2,2.1-4.8,3.2l8,12.4c-1.7,1.1-3.5,2.2-5.2,3.3l-7.6-12.6c-1.6,1-3.3,2-5,2.9l7.2,12.8c-1.8,1-3.6,2-5.4,3
	l-6.9-13.1c-1.7,0.9-3.4,1.8-5.1,2.6l6.5,13.3c-1.9,0.9-3.7,1.8-5.6,2.7l-6.1-13.5c-1.7,0.8-3.5,1.6-5.3,2.3l5.7,13.6
	c-1.9,0.8-3.8,1.6-5.8,2.3l-5.3-13.8c-1.8,0.7-3.6,1.4-5.4,2l4.9,14c-1.9,0.7-3.9,1.3-5.9,2l-4.5-14.1c-1.8,0.6-3.7,1.1-5.5,1.7
	l4,14.2c-2,0.6-4,1.1-6,1.6l-3.6-14.3c-1.9,0.5-3.7,0.9-5.6,1.3l3.2,14.4c-2,0.4-4,0.9-6.1,1.2l-2.8-14.5c-1.9,0.4-3.8,0.7-5.7,1
	l2.3,14.6c-2,0.3-4.1,0.6-6.1,0.9l-1.9-14.7c-1.9,0.2-3.8,0.5-5.7,0.7l1.5,14.8c-2,0.2-4.1,0.4-6.2,0.5l-1.1-14.8
	c-1.9,0.1-3.8,0.2-5.7,0.3l0.6,14.8c-2.1,0.1-4.1,0.1-6.2,0.2l-0.2-14.8c-1.9,0-3.8,0-5.8,0l-0.2,14.8c-2.1,0-4.1-0.1-6.2-0.2
	l0.7-14.8c-1.9-0.1-3.8-0.2-5.7-0.3l-1.1,14.8c-2.1-0.2-4.1-0.3-6.2-0.5l1.5-14.7c-1.9-0.2-3.8-0.4-5.7-0.7l-1.9,14.7
	c-2-0.3-4.1-0.6-6.1-0.9l2.4-14.6c-1.9-0.3-3.8-0.6-5.7-1l-2.8,14.5c-2-0.4-4-0.8-6.1-1.3L217,451c-1.9-0.4-3.7-0.9-5.6-1.3
	l-3.7,14.3c-2-0.5-4-1.1-6-1.6l4.1-14.2c-1.8-0.5-3.7-1.1-5.5-1.7l-4.5,14.1c-2-0.6-3.9-1.3-5.9-2l4.9-13.9c-1.8-0.6-3.6-1.3-5.4-2
	l-5.3,13.8c-1.9-0.7-3.8-1.5-5.7-2.3l5.7-13.6c-1.7-0.7-3.5-1.5-5.2-2.3l-6.1,13.4c-1.9-0.9-3.7-1.7-5.6-2.6l6.5-13.2
	c-1.7-0.8-3.4-1.7-5.1-2.6l-6.9,13c-1.8-1-3.6-1.9-5.4-3l7.3-12.8c-1.7-0.9-3.3-1.9-4.9-2.9l-7.6,12.6c-1.8-1.1-3.5-2.2-5.2-3.3
	l8-12.4c-1.6-1-3.2-2.1-4.8-3.2l-8.4,12.1c-1.7-1.2-3.4-2.4-5-3.6l8.7-11.9c-1.6-1.1-3.1-2.3-4.6-3.5l-9.1,11.6
	c-1.6-1.3-3.2-2.5-4.8-3.9l9.4-11.4c-1.5-1.2-2.9-2.5-4.4-3.7l-9.7,11.1c-1.5-1.4-3.1-2.7-4.6-4.1l10-10.8c-1.4-1.3-2.8-2.7-4.2-4
	l-10.3,10.5c-1.5-1.4-2.9-2.9-4.3-4.4l10.6-10.2c-1.3-1.4-2.6-2.8-3.9-4.2l-10.9,9.9c-1.4-1.5-2.7-3.1-4.1-4.6l11.2-9.5
	c-1.2-1.4-2.5-2.9-3.7-4.4l-11.5,9.2c-1.3-1.6-2.6-3.2-3.8-4.9l11.8-8.9c-1.2-1.5-2.3-3.1-3.4-4.6l-12,8.5c-1.2-1.7-2.4-3.4-3.5-5.1
	l12.3-8.2c-1.1-1.6-2.1-3.2-3.1-4.8l-12.5,7.8c-1.1-1.7-2.2-3.5-3.2-5.3l12.7-7.4c-1-1.7-1.9-3.3-2.8-5l-13,7.1
	c-1-1.8-1.9-3.6-2.9-5.5l13.2-6.7c-0.9-1.7-1.7-3.4-2.5-5.2l-13.3,6.3c-0.9-1.9-1.7-3.7-2.6-5.6l13.5-5.9c-0.8-1.8-1.5-3.5-2.2-5.3
	l-13.7,5.5c-0.8-1.9-1.5-3.8-2.2-5.8l13.9-5.1c-0.7-1.8-1.3-3.6-1.9-5.4l-14,4.7c-0.7-2-1.3-3.9-1.9-5.9l14.2-4.3
	c-0.5-1.8-1.1-3.7-1.6-5.5l-14.3,3.8c-0.5-2-1-4-1.5-6l14.4-3.4c-0.4-1.9-0.9-3.7-1.2-5.6l-14.5,3c-0.4-2-0.8-4-1.2-6.1l14.6-2.6
	c-0.3-1.9-0.6-3.8-0.9-5.7l-14.7,2.1c-0.3-2-0.6-4.1-0.8-6.1l14.7-1.7c-0.2-1.9-0.4-3.8-0.6-5.7l-14.8,1.3c-0.2-2-0.3-4.1-0.4-6.2
	l14.8-0.8c-0.1-1.9-0.2-3.8-0.2-5.7l-14.8,0.4c-0.1-2-0.1-4-0.1-6c0-0.1,0-0.1,0-0.2l14.8,0c0-1.9,0-3.9,0.1-5.8l-14.8-0.4
	c0.1-2.1,0.2-4.1,0.3-6.2l14.8,0.9c0.1-1.9,0.3-3.9,0.4-5.7l-14.8-1.3c0.2-2.1,0.4-4.1,0.6-6.1l14.7,1.7c0.2-1.9,0.5-3.8,0.8-5.7
	l-14.7-2.2c0.3-2,0.6-4.1,1-6.1l14.6,2.6c0.3-1.9,0.7-3.8,1.1-5.6l-14.5-3c0.4-2,0.9-4,1.4-6l14.4,3.5c0.4-1.9,0.9-3.7,1.4-5.6
	L56.8,205c0.5-2,1.1-4,1.7-5.9l14.2,4.3c0.6-1.8,1.1-3.7,1.7-5.5l-14-4.7c0.7-2,1.3-3.9,2.1-5.8l13.9,5.1c0.7-1.8,1.4-3.6,2.1-5.4
	l-13.7-5.5c0.8-1.9,1.6-3.8,2.4-5.7l13.5,5.9c0.8-1.7,1.6-3.5,2.4-5.2l-13.3-6.3c0.9-1.9,1.8-3.7,2.7-5.5l13.2,6.7
	c0.9-1.7,1.8-3.4,2.7-5.1l-12.9-7.1c1-1.8,2-3.6,3-5.4l12.7,7.4c1-1.6,2-3.3,3-4.9l-12.5-7.8c1.1-1.7,2.2-3.5,3.3-5.2l12.3,8.2
	c1.1-1.6,2.2-3.2,3.3-4.7l-12-8.5c1.2-1.7,2.4-3.3,3.7-5l11.8,8.9c1.2-1.5,2.3-3.1,3.5-4.5l-11.5-9.2c1.3-1.6,2.6-3.2,3.9-4.8
	l11.2,9.5c1.2-1.5,2.5-2.9,3.8-4.3l-10.9-9.9c1.4-1.5,2.8-3,4.2-4.5l10.6,10.2c1.3-1.4,2.7-2.8,4-4.1l-10.3-10.5
	c1.5-1.4,3-2.9,4.5-4.3l10,10.8c1.4-1.3,2.8-2.6,4.3-3.9l-9.7-11.1c1.5-1.4,3.1-2.7,4.7-4l9.4,11.4c1.5-1.2,3-2.4,4.5-3.6l-9-11.6
	c1.6-1.3,3.3-2.5,4.9-3.7l8.7,11.9c1.5-1.1,3.1-2.2,4.7-3.3l-8.4-12.1c1.7-1.2,3.4-2.3,5.1-3.4l8,12.4c1.6-1,3.2-2.1,4.9-3
	l-7.6-12.6c1.8-1.1,3.5-2.1,5.3-3.1l7.3,12.8c1.7-0.9,3.4-1.9,5-2.8l-6.9-13c1.8-1,3.7-1.9,5.5-2.8l6.5,13.3
	c1.7-0.8,3.5-1.7,5.2-2.5l-6.1-13.5c1.9-0.9,3.8-1.7,5.7-2.5l5.7,13.6c1.8-0.7,3.6-1.5,5.3-2.1l-5.3-13.8c1.9-0.7,3.9-1.5,5.8-2.1
	l4.9,13.9c1.8-0.6,3.7-1.3,5.5-1.8l-4.5-14.1c2-0.6,3.9-1.2,5.9-1.8l4.1,14.2c1.8-0.5,3.7-1,5.5-1.5l-3.6-14.3c2-0.5,4-1,6-1.4
	l3.2,14.4c1.9-0.4,3.8-0.8,5.6-1.2l-2.8-14.5c2-0.4,4-0.7,6.1-1.1l2.4,14.6c1.9-0.3,3.8-0.6,5.7-0.8l-1.9-14.7
	c2-0.3,4.1-0.5,6.1-0.7l1.5,14.8c1.9-0.2,3.8-0.4,5.7-0.5l-1.1-14.8c2-0.1,4.1-0.3,6.2-0.4l0.6,14.8c1.9-0.1,3.8-0.1,5.7-0.2
	L257,49.6c1,0,2,0,3,0c1.1,0,2.1,0,3.2,0L263,64.5c1.9,0,3.8,0.1,5.7,0.2l0.6-14.8c2.1,0.1,4.1,0.2,6.2,0.4L274.4,65
	c1.9,0.1,3.8,0.3,5.7,0.5l1.5-14.7c2.1,0.2,4.1,0.5,6.1,0.7l-1.9,14.7c1.9,0.3,3.8,0.5,5.7,0.8l2.4-14.6c2,0.3,4.1,0.7,6.1,1.1
	L297.2,68c1.9,0.4,3.8,0.8,5.6,1.2l3.2-14.4c2,0.5,4,0.9,6,1.4l-3.6,14.3c1.8,0.5,3.7,1,5.5,1.5l4.1-14.2c2,0.6,4,1.2,5.9,1.8
	l-4.5,14.1c1.8,0.6,3.7,1.2,5.4,1.8l4.9-13.9c1.9,0.7,3.9,1.4,5.8,2.1l-5.3,13.8c1.8,0.7,3.5,1.4,5.3,2.1l5.7-13.6
	c1.9,0.8,3.8,1.6,5.6,2.5l-6.1,13.4c1.7,0.8,3.5,1.6,5.2,2.4l6.5-13.2c1.8,0.9,3.7,1.8,5.5,2.8l-6.9,13c1.7,0.9,3.4,1.8,5,2.8
	l7.3-12.8c1.8,1,3.6,2,5.3,3.1l-7.6,12.6c1.6,1,3.3,2,4.9,3l8-12.4c1.7,1.1,3.4,2.3,5.1,3.4l-8.3,12.1c1.6,1.1,3.1,2.2,4.7,3.3
	l8.7-11.9c1.7,1.2,3.3,2.5,4.9,3.7l-9,11.6c1.5,1.2,3,2.4,4.5,3.6l9.4-11.4c1.6,1.3,3.1,2.7,4.7,4l-9.7,11.1
	c1.4,1.3,2.9,2.6,4.3,3.8l10-10.8c1.5,1.4,3,2.8,4.5,4.3l-10.3,10.5c1.3,1.3,2.7,2.7,4,4.1l10.6-10.2c1.4,1.5,2.8,3,4.2,4.5
	l-10.9,9.9c1.3,1.4,2.6,2.9,3.8,4.3l11.2-9.5c1.3,1.6,2.6,3.2,3.9,4.8l-11.5,9.2c1.2,1.5,2.4,3,3.5,4.5l11.8-8.9
	c1.2,1.6,2.5,3.3,3.7,5l-12,8.5c1.1,1.6,2.2,3.2,3.3,4.7l12.3-8.2c1.1,1.7,2.3,3.4,3.4,5.2l-12.5,7.8c1,1.6,2,3.3,3,4.9l12.7-7.5
	c1,1.8,2.1,3.6,3.1,5.4l-12.9,7.1c0.9,1.7,1.8,3.4,2.7,5.1l13.2-6.7c0.9,1.8,1.8,3.7,2.7,5.6l-13.3,6.3c0.8,1.7,1.6,3.5,2.4,5.2
	l13.5-5.9c0.8,1.9,1.6,3.8,2.4,5.7l-13.7,5.5c0.7,1.8,1.4,3.6,2.1,5.4l13.9-5.1c0.7,1.9,1.4,3.9,2.1,5.8l-14,4.7
	c0.6,1.8,1.2,3.7,1.7,5.5l14.2-4.3c0.6,2,1.2,4,1.7,5.9l-14.3,3.8c0.5,1.9,1,3.7,1.4,5.6l14.4-3.4c0.5,2,0.9,4,1.4,6l-14.5,3
	c0.4,1.9,0.8,3.8,1.1,5.6l14.6-2.6c0.4,2,0.7,4.1,1,6.1l-14.7,2.2c0.3,1.9,0.5,3.8,0.7,5.7l14.7-1.7c0.2,2,0.4,4.1,0.6,6.1
	l-14.8,1.3c0.2,1.9,0.3,3.8,0.4,5.7l14.8-0.9c0.1,2,0.2,4.1,0.3,6.2l-14.8,0.4c0.1,1.9,0.1,3.8,0.1,5.7l0,0.4h14.8
	c0,2.1,0,4.1-0.1,6.2l-14.8-0.5c-0.1,1.9-0.1,3.8-0.3,5.7l14.8,0.9c-0.1,2.1-0.3,4.1-0.5,6.2l-14.8-1.3c-0.2,1.9-0.4,3.8-0.6,5.7
	l14.7,1.7c-0.2,2.1-0.5,4.1-0.8,6.1l-14.7-2.2c-0.3,1.9-0.6,3.8-0.9,5.7l14.6,2.6c-0.4,2-0.8,4.1-1.2,6.1l-14.5-3
	c-0.4,1.9-0.8,3.8-1.3,5.6l14.4,3.5c-0.5,2-1,4-1.5,6l-14.3-3.9c-0.5,1.9-1,3.7-1.6,5.5l14.1,4.3c-0.6,2-1.2,3.9-1.9,5.9l-14-4.7
	c-0.6,1.8-1.3,3.6-1.9,5.4l13.9,5.1c-0.7,1.9-1.5,3.9-2.2,5.8l-13.7-5.5c-0.7,1.8-1.5,3.5-2.2,5.3l13.5,5.9
	c-0.8,1.9-1.7,3.8-2.6,5.6l-13.3-6.3c-0.8,1.7-1.7,3.4-2.5,5.1l13.2,6.7c-0.9,1.8-1.9,3.6-2.9,5.4l-12.9-7.1c-0.9,1.7-1.9,3.3-2.8,5
	l12.7,7.5c-1,1.8-2.1,3.5-3.2,5.3l-12.5-7.8c-1,1.6-2.1,3.3-3.1,4.8l12.3,8.2c-1.1,1.7-2.3,3.4-3.5,5.1l-12-8.5
	c-1.1,1.6-2.3,3.1-3.4,4.6l11.7,8.9c-1.2,1.6-2.5,3.3-3.8,4.9l-11.5-9.2c-1.2,1.5-2.4,3-3.7,4.4l11.2,9.6c-1.3,1.6-2.7,3.1-4.1,4.6
	l-10.9-9.9c-1.3,1.4-2.6,2.8-3.9,4.2l10.6,10.2C410.5,407.2,409,408.6,407.5,410.1z"/>
<g>
	<g>
		<path fill="#FFFFFF" d="M176.1,375.2c-9.7-4.7-17.6-12.5-22.5-22c-1.1,1.9-2.9,3.4-4.9,4.1c-1.7,0.6-3.5,0.7-5.3,0.2
			c12.2,24.7,39.8,38.2,66.8,32.5c-1.4-1.1-2.5-2.6-3.1-4.3c-0.7-2.1-0.7-4.4,0.2-6.4C196.8,381.4,185.7,380,176.1,375.2z"/>
	</g>
	<g>
		<path fill="#FFFFFF" d="M201.9,268.9l-9.7-14.8c-1.8-2.8-5.3-4-8.4-2.9l-6.3,2.2L173,240c-1.1-3.2-4.6-4.9-7.8-3.8
			c-3.2,1.1-4.9,4.6-3.8,7.8l4.6,13.3l-6.3,2.2c-3.1,1.1-5.1,4.2-4.8,7.5l1.5,17.6c-5.2,4.6-9.6,10.1-12.9,16.3
			c-7.4,13.4-9.5,29-6,43.8c0.5,2.1,1.1,4.1,1.8,6.1c1.2,3.5,5.1,5.4,8.6,4.2c3.5-1.2,5.4-5.1,4.2-8.6c-0.6-1.7-1.1-3.5-1.5-5.4
			c-5.3-24,8.2-48.2,31.5-56.2c25.2-8.7,52.9,4.7,61.6,30c8,23.3-2.6,48.8-24.8,59.4c-1.7,0.8-3.5,1.5-5.1,2.1
			c-3.5,1.2-5.4,5.1-4.2,8.6c1.2,3.5,5.1,5.4,8.6,4.2c2-0.7,4-1.5,5.9-2.4c13.8-6.4,24.8-17.7,30.8-31.8c6.1-14.2,6.7-30,1.6-44.6
			C247.9,286.2,226,270.5,201.9,268.9z M147.6,354.4c-3.2,1.1-6.7-0.6-7.8-3.8c-1.1-3.2,0.6-6.7,3.8-7.8c3.2-1.1,6.7,0.6,7.8,3.8
			C152.5,349.8,150.8,353.3,147.6,354.4z M165.1,264.1c1.6-0.6,3.3,0.3,3.9,1.9c0.4,1.1,0.1,2.2-0.6,3l1.5,4.5
			c0.3,0.8-0.1,1.7-0.9,1.9c-0.8,0.3-1.7-0.1-1.9-0.9l-1.5-4.5c-1-0.2-1.9-0.9-2.3-2C162.6,266.4,163.5,264.7,165.1,264.1z
			 M217.8,388.6c-3.2,1.1-6.7-0.6-7.8-3.8c-1.1-3.2,0.6-6.7,3.8-7.8s6.7,0.6,7.8,3.8C222.7,384,221,387.5,217.8,388.6z"/>
	</g>
	<g>
		<path fill="#FFFFFF" d="M214.2,378.1c-2.6,0.9-3.9,3.7-3,6.2c0.9,2.6,3.7,3.9,6.2,3c2.6-0.9,3.9-3.7,3-6.2
			C219.5,378.6,216.7,377.3,214.2,378.1z M219.3,381.6c0.1,0.3-0.1,0.7-0.4,0.8l-2.3,0.8l0.8,2.3c0.1,0.3-0.1,0.7-0.4,0.8
			c-0.3,0.1-0.7-0.1-0.8-0.4l-0.8-2.3l-2.3,0.8c-0.3,0.1-0.7-0.1-0.8-0.4c-0.1-0.3,0.1-0.7,0.4-0.8l2.3-0.8l-0.8-2.3
			c-0.1-0.3,0.1-0.7,0.4-0.8c0.3-0.1,0.7,0.1,0.8,0.4l0.8,2.3l2.3-0.8C218.8,381.1,219.1,381.3,219.3,381.6z"/>
	</g>
	<g>
		<path fill="#FFFFFF" d="M144,344c-2.6,0.9-3.9,3.7-3,6.2s3.7,3.9,6.2,3c2.6-0.9,3.9-3.7,3-6.2C149.4,344.5,146.6,343.1,144,344z
			 M149.1,347.4c0.1,0.3-0.1,0.7-0.4,0.8l-2.3,0.8l0.8,2.3c0.1,0.3-0.1,0.7-0.4,0.8c-0.3,0.1-0.7-0.1-0.8-0.4l-0.8-2.3l-2.3,0.8
			c-0.3,0.1-0.7-0.1-0.8-0.4s0.1-0.7,0.4-0.8l2.3-0.8l-0.8-2.3c-0.1-0.3,0.1-0.7,0.4-0.8c0.3-0.1,0.7,0.1,0.8,0.4l0.8,2.3l2.3-0.8
			C148.7,346.9,149,347.1,149.1,347.4z"/>
	</g>
	<g>
		<path fill="#FFFFFF" d="M400,268.2c2,10.5,0.6,21.5-4.1,31.2c-4.7,9.7-12.5,17.6-22,22.5c1.9,1.1,3.4,2.9,4.1,4.9
			c0.6,1.7,0.7,3.5,0.2,5.3c24.7-12.2,38.2-39.8,32.5-66.8c-1.1,1.4-2.6,2.5-4.3,3.1C404.4,269.1,402.1,269,400,268.2z"/>
	</g>
	<g>
		<path fill="#FFFFFF" d="M367.1,323.4c-1.7,0.6-3.5,1.1-5.4,1.5c-24,5.3-48.2-8.2-56.2-31.5c-8.7-25.2,4.7-52.9,30-61.6
			c23.3-8,48.8,2.6,59.4,24.8c0.8,1.7,1.5,3.5,2.1,5.1c1.2,3.5,5.1,5.4,8.6,4.2c3.5-1.2,5.4-5.1,4.2-8.6c-0.7-2-1.5-4-2.4-5.9
			c-6.4-13.8-17.7-24.8-31.8-30.8c-6.5-2.8-13.3-4.4-20.3-4.9l-9.7-14.8c-1.8-2.8-5.3-4-8.4-2.9l-6.8,2.4l-4.6-13.3
			c-1.1-3.2-4.6-4.9-7.8-3.8c-3.2,1.1-4.9,4.6-3.8,7.8l4.6,13.3l-5.7,2c-3.1,1.1-5.1,4.2-4.8,7.5l1.5,17.6
			c-17.9,16.1-25.5,42.1-17.2,66.3c5,14.6,15.2,26.7,28.8,34.1c13.4,7.4,29,9.5,43.8,6c2.1-0.5,4.1-1.1,6.1-1.8
			c3.5-1.2,5.4-5.1,4.2-8.6C374.5,324.1,370.6,322.2,367.1,323.4z M401.5,253.9c3.2-1.1,6.7,0.6,7.8,3.8c1.1,3.2-0.6,6.7-3.8,7.8
			c-3.2,1.1-6.7-0.6-7.8-3.8C396.6,258.5,398.3,255,401.5,253.9z M336,205.1c1.6-0.6,3.3,0.3,3.9,1.9c0.4,1.1,0.1,2.2-0.6,3l1.5,4.5
			c0.3,0.8-0.1,1.7-0.9,1.9c-0.8,0.3-1.7-0.1-1.9-0.9l-1.5-4.5c-1-0.2-1.9-0.9-2.3-2C333.6,207.4,334.4,205.7,336,205.1z
			 M371.3,335.6c-3.2,1.1-6.7-0.6-7.8-3.8c-1.1-3.2,0.6-6.7,3.8-7.8c3.2-1.1,6.7,0.6,7.8,3.8C376.2,331,374.5,334.5,371.3,335.6z"/>
	</g>
	<g>
		<path fill="#FFFFFF" d="M367.7,325.2c-2.6,0.9-3.9,3.7-3,6.2c0.9,2.6,3.7,3.9,6.2,3c2.6-0.9,3.9-3.7,3-6.2
			S370.3,324.3,367.7,325.2z M372.8,328.6c0.1,0.3-0.1,0.7-0.4,0.8l-2.3,0.8l0.8,2.3c0.1,0.3-0.1,0.7-0.4,0.8
			c-0.3,0.1-0.7-0.1-0.8-0.4l-0.8-2.3l-2.3,0.8c-0.3,0.1-0.7-0.1-0.8-0.4c-0.1-0.3,0.1-0.7,0.4-0.8l2.3-0.8l-0.8-2.3
			c-0.1-0.3,0.1-0.7,0.4-0.8c0.3-0.1,0.7,0.1,0.8,0.4l0.8,2.3l2.3-0.8C372.3,328.1,372.7,328.3,372.8,328.6z"/>
	</g>
	<g>
		<path fill="#FFFFFF" d="M405.1,264.3c2.6-0.9,3.9-3.7,3-6.2c-0.9-2.6-3.7-3.9-6.2-3c-2.6,0.9-3.9,3.7-3,6.2
			S402.5,265.2,405.1,264.3z M400,260.9c-0.1-0.3,0.1-0.7,0.4-0.8l2.3-0.8l-0.8-2.3c-0.1-0.3,0.1-0.7,0.4-0.8
			c0.3-0.1,0.7,0.1,0.8,0.4l0.8,2.3l2.3-0.8c0.3-0.1,0.7,0.1,0.8,0.4c0.1,0.3-0.1,0.7-0.4,0.8l-2.3,0.8l0.8,2.3
			c0.1,0.3-0.1,0.7-0.4,0.8c-0.3,0.1-0.7-0.1-0.8-0.4l-0.8-2.3l-2.3,0.8C400.4,261.4,400.1,261.2,400,260.9z"/>
	</g>
	<g>
		<path fill="#FFFFFF" d="M168.8,183.6c-3.3-0.6-6.5,1.5-7.2,4.9l-6.5,33.7c-0.6,3.3,1.5,6.5,4.9,7.2c3.3,0.6,6.5-1.5,7.2-4.9
			l6.5-33.7C174.3,187.5,172.1,184.3,168.8,183.6z"/>
	</g>
	<g>
		<path fill="#FFFFFF" d="M318.1,174.8c2.2-2.6,1.9-6.4-0.6-8.6l-25.9-22.5c-2.6-2.2-6.4-1.9-8.6,0.6l0,0c-2.2,2.6-1.9,6.4,0.6,8.6
			l25.9,22.5C312,177.6,315.9,177.3,318.1,174.8z"/>
	</g>
	<g>
		<path fill="#FFFFFF" d="M272.4,141.7c-1.1-3.2-4.6-4.9-7.8-3.8l-32.4,11.2c-3.2,1.1-4.9,4.6-3.8,7.8c1.1,3.2,4.6,4.9,7.8,3.8
			l32.4-11.2C271.8,148.4,273.5,144.9,272.4,141.7z"/>
	</g>
	<g>
		<path fill="#FFFFFF" d="M219.6,159.9c-1.1-3.2-4.6-4.9-7.8-3.8l-32.4,11.2c-3.2,1.1-4.9,4.6-3.8,7.8c1.1,3.2,4.6,4.9,7.8,3.8
			l32.4-11.2C219,166.6,220.7,163.1,219.6,159.9z"/>
	</g>
	<g>
		<path fill="#FFFFFF" d="M162.7,255.3l-4-11.7c-0.4-1.2-0.5-2.5-0.3-3.7l-3.5-10.1c-1.9-1.7-3-4.3-2.4-7l2.3-12l-0.6,0.2
			c-7.6,2.6-11.7,11-9.1,18.6l5.4,15.8C152.5,251,157.3,254.6,162.7,255.3z"/>
	</g>
	<g>
		<path fill="#FFFFFF" d="M182.5,234.5l-5.4-15.8c-1-2.8-2.7-5.1-4.9-6.8l-2.6,13.3l3.4,9.8c0.9,0.8,1.6,1.8,2,3.1l4,11.7
			C182.8,245.9,184.3,240,182.5,234.5z"/>
	</g>
	<g>
		<path fill="#FFFFFF" d="M157.5,197.2l2-10.4c0.2-0.8,0.4-1.5,0.8-2.2c0.1-1.2,0.5-2.3,1.3-3.2l10.9-12.6c0.5-0.6,1.1-1,1.8-1.4
			c0.8-0.9,1.9-1.6,3.1-2.1l9.7-3.3l-0.9-0.7c-3-2.6-6.7-3.8-10.6-3.5c-3.9,0.3-7.5,2.1-10,5l-10.9,12.6c-2.6,3-3.8,6.7-3.5,10.6
			c0.3,3.9,2.1,7.5,5,10L157.5,197.2z"/>
	</g>
	<g>
		<path fill="#FFFFFF" d="M191.1,184.9c1.8-2.1,2.9-4.6,3.4-7.2l-11.4,3.9c-0.5,0.2-1.1,0.3-1.6,0.4l-5,5.8c0.1,0.7,0.1,1.5-0.1,2.3
			l-2.2,11.6c2.3-0.8,4.4-2.3,6.1-4.2L191.1,184.9z"/>
	</g>
	<g>
		<path fill="#FFFFFF" d="M265.7,159.1l16.4,3.2c2.6,0.5,5.1,0.3,7.5-0.5c0.1,0,0.2-0.1,0.3-0.1l-8.9-7.7c-0.5-0.4-0.9-0.9-1.3-1.5
			l-8-1.6c-0.4,0.2-0.8,0.4-1.2,0.5l-11.9,4.1C260.6,157.3,263.1,158.6,265.7,159.1z"/>
	</g>
	<g>
		<path fill="#FFFFFF" d="M268.8,135c0.5-0.1,1.1,0,1.6,0.1l16.4,3.2c0.9,0.2,1.8,0.6,2.5,1.2c1.1,0.3,2.1,0.8,3,1.5l7.6,6.6
			l0.2-1.2c0.7-3.8-0.1-7.7-2.2-11c-2.2-3.2-5.5-5.4-9.3-6.2l-16.4-3.2c-3.8-0.7-7.7,0.1-11,2.2c-3.2,2.2-5.4,5.5-6.2,9.3l-0.2,1.1
			l10.1-3.5C266.2,134.8,267.6,134.7,268.8,135z"/>
	</g>
	<g>
		<path fill="#FFFFFF" d="M216.2,153.2l10.7-3.7c0.8-1,1.9-1.8,3.3-2.3l11-3.8c-3.8-3.7-9.6-5.2-15-3.4l-15.8,5.4
			c-5.4,1.9-9,6.6-9.7,11.9l11.5-4C213.5,152.9,214.9,152.9,216.2,153.2z"/>
	</g>
	<g>
		<path fill="#FFFFFF" d="M235.8,163.4c-1.1,0.4-2.2,0.5-3.3,0.3l-11.9,4.1c-0.8,0.8-1.7,1.4-2.8,1.7l-11.7,4
			c3.8,4,9.8,5.6,15.3,3.7l15.8-5.4c5.5-1.9,9.2-6.8,9.8-12.3L235.8,163.4z"/>
	</g>
	<g>
		<path fill="#FFFFFF" d="M322.4,172.3l3.7,10.8c0.9,0.9,1.7,2,2.1,3.3l3.6,10.5c3.9-3.8,5.4-9.7,3.5-15.2L330,166
			c-2.6-7.6-11-11.7-18.6-9.1l-0.5,0.2l9.2,8C322.2,166.9,323,169.7,322.4,172.3z"/>
	</g>
	<g>
		<path fill="#FFFFFF" d="M303.5,192.8c1.9,5.5,6.7,9.1,12.1,9.8L312,192c-0.5-1.3-0.6-2.6-0.4-3.9l-3.7-10.8l-10.1-8.8
			c-0.7,2.7-0.7,5.7,0.3,8.5L303.5,192.8z"/>
	</g>
</g>
</svg>
