<?xml version="1.0" encoding="utf-8"?>
<!-- Generator: Adobe Illustrator 26.4.1, SVG Export Plug-In . SVG Version: 6.00 Build 0)  -->
<svg version="1.1" baseProfile="tiny" id="icon_x5F_reputation_x5F_aciedo_x5F_05"
	 xmlns="http://www.w3.org/2000/svg" xmlns:xlink="http://www.w3.org/1999/xlink" x="0px" y="0px" viewBox="0 0 280 280"
	 overflow="visible" xml:space="preserve">
<g>
	<path fill="#FFFFFF" d="M56.4,80.4c-1,0-2-0.4-2.8-1.1c-1.5-1.5-1.5-4,0-5.5s4-1.5,5.5,0s1.5,4,0,5.5C58.4,80,57.4,80.4,56.4,80.4z
		 M56.4,74.6c-0.5,0-1,0.2-1.3,0.6c-0.7,0.7-0.7,1.9,0,2.7c0.7,0.7,1.9,0.7,2.7,0c0.7-0.7,0.7-1.9,0-2.7
		C57.3,74.8,56.8,74.6,56.4,74.6z"/>
</g>
<g>
	<path fill="#FFFFFF" d="M86.4,50.4c-1,0-2-0.4-2.8-1.1c-1.5-1.5-1.5-4,0-5.5s4-1.5,5.5,0s1.5,4,0,5.5C88.4,50,87.4,50.4,86.4,50.4z
		 M86.4,44.6c-0.5,0-1,0.2-1.3,0.6c-0.7,0.7-0.7,1.9,0,2.7c0.7,0.7,1.9,0.7,2.7,0c0.7-0.7,0.7-1.9,0-2.7
		C87.3,44.8,86.8,44.6,86.4,44.6z"/>
</g>
<g>
	<g>
		<path fill="#FFFFFF" d="M68.9,62.9c-1,0-2-0.4-2.8-1.1c-1.5-1.5-1.5-4,0-5.5s4-1.5,5.5,0s1.5,4,0,5.5
			C70.9,62.5,69.9,62.9,68.9,62.9z M68.9,57.1c-0.5,0-1,0.2-1.3,0.6c-0.7,0.7-0.7,1.9,0,2.7c0.7,0.7,1.9,0.7,2.7,0
			c0.7-0.7,0.7-1.9,0-2.7C69.8,57.3,69.3,57.1,68.9,57.1z"/>
	</g>
	<g>
		<g>
			<g>
				<g>
					<polygon fill="#FFFFFF" points="70,61.8 71.6,60.3 105.5,93.8 104,95.3 					"/>
				</g>
			</g>
		</g>
	</g>
</g>
<g>
	<path fill="#FFFFFF" d="M194.1,49.8c-1,0-2-0.4-2.8-1.1c-1.5-1.5-1.5-4,0-5.5s4-1.5,5.5,0s1.5,4,0,5.5
		C196.1,49.4,195.1,49.8,194.1,49.8z M194.1,44c-0.5,0-1,0.2-1.3,0.6c-0.7,0.7-0.7,1.9,0,2.7c0.7,0.7,1.9,0.7,2.7,0
		c0.7-0.7,0.7-1.9,0-2.7C195.1,44.2,194.6,44,194.1,44z"/>
</g>
<g>
	<path fill="#FFFFFF" d="M224.1,79.8c-1,0-2-0.4-2.8-1.1c-1.5-1.5-1.5-4,0-5.5s4-1.5,5.5,0s1.5,4,0,5.5
		C226.1,79.4,225.1,79.8,224.1,79.8z M224.1,74c-0.5,0-1,0.2-1.3,0.6c-0.7,0.7-0.7,1.9,0,2.7c0.7,0.7,1.9,0.7,2.7,0
		c0.7-0.7,0.7-1.9,0-2.7C225.1,74.2,224.6,74,224.1,74z"/>
</g>
<g>
	<g>
		<path fill="#FFFFFF" d="M211.6,62.3c-1,0-2-0.4-2.8-1.1c-1.5-1.5-1.5-4,0-5.5s4-1.5,5.5,0s1.5,4,0,5.5
			C213.6,61.9,212.6,62.3,211.6,62.3z M211.6,56.5c-0.5,0-1,0.2-1.3,0.6c-0.7,0.7-0.7,1.9,0,2.7c0.7,0.7,1.9,0.7,2.7,0
			c0.7-0.7,0.7-1.9,0-2.7C212.6,56.7,212.1,56.5,211.6,56.5z"/>
	</g>
	<g>
		<g>
			<g>
				<g>
					<polygon fill="#FFFFFF" points="175.2,93.5 208.7,59.6 210.2,61.1 176.7,95.1 					"/>
				</g>
			</g>
		</g>
	</g>
</g>
<g>
	<g>
		<g>
			<rect x="138.9" y="29" fill="#FFFFFF" width="2.1" height="63.4"/>
		</g>
		<g>
			<circle fill="#FFFFFF" cx="140" cy="29.1" r="2.7"/>
		</g>
	</g>
	<g>
		<g>
			<polygon fill="#FFFFFF" points="121.1,92.3 119,92.3 119,82.3 106.4,67.9 106.4,37.9 108.4,37.9 108.4,67.1 121.1,81.5 			"/>
		</g>
		<g>
			<circle fill="#FFFFFF" cx="107.4" cy="37.9" r="2.7"/>
		</g>
	</g>
	<g>
		<g>
			<polygon fill="#FFFFFF" points="161,92.3 158.9,92.3 158.9,81.5 171.5,67.1 171.5,37.9 173.6,37.9 173.6,67.9 161,82.3 			"/>
		</g>
		<g>
			<circle fill="#FFFFFF" cx="172.6" cy="37.9" r="2.7"/>
		</g>
	</g>
	<g>
		<g>
			<polygon fill="#FFFFFF" points="150.9,92.3 148.9,92.3 148.9,66.5 156.5,57.1 156.5,32.9 158.6,32.9 158.6,57.9 150.9,67.2 			
				"/>
		</g>
		<g>
			<circle fill="#FFFFFF" cx="157.5" cy="32.9" r="2.7"/>
		</g>
	</g>
	<g>
		<g>
			<polygon fill="#FFFFFF" points="131,92.3 129,92.3 129,67.2 121.3,57.9 121.3,32.9 123.4,32.9 123.4,57.1 131,66.5 			"/>
		</g>
		<g>
			<circle fill="#FFFFFF" cx="122.3" cy="32.9" r="2.7"/>
		</g>
	</g>
</g>
<g>
	<g>
		<g>
			<rect x="138.9" y="164.2" fill="#FFFFFF" width="2.1" height="68.4"/>
		</g>
		<g>
			<circle fill="#FFFFFF" cx="139.9" cy="232.4" r="2.7"/>
		</g>
	</g>
	<g>
		<g>
			<polygon fill="#FFFFFF" points="173.5,223.6 171.4,223.6 171.4,194.4 158.8,180 158.8,164.2 160.9,164.2 160.9,179.3 
				173.5,193.6 			"/>
		</g>
		<g>
			<circle fill="#FFFFFF" cx="172.5" cy="223.6" r="2.7"/>
		</g>
	</g>
	<g>
		<g>
			<polygon fill="#FFFFFF" points="108.4,223.6 106.3,223.6 106.3,193.6 118.9,179.3 118.9,164.2 121,164.2 121,180 108.4,194.4 			
				"/>
		</g>
		<g>
			<circle fill="#FFFFFF" cx="107.3" cy="223.6" r="2.7"/>
		</g>
	</g>
	<g>
		<g>
			<polygon fill="#FFFFFF" points="123.4,228.6 121.3,228.6 121.3,203.7 128.9,194.3 128.9,164.2 131,164.2 131,195 123.4,204.4 			
				"/>
		</g>
		<g>
			<circle fill="#FFFFFF" cx="122.4" cy="228.6" r="2.7"/>
		</g>
	</g>
	<g>
		<g>
			<polygon fill="#FFFFFF" points="156.5,228.6 156.5,204.4 148.8,195 148.8,164.2 150.9,164.2 150.9,194.3 158.5,203.6 
				158.6,228.6 			"/>
		</g>
		<g>
			<circle fill="#FFFFFF" cx="157.5" cy="228.6" r="2.7"/>
		</g>
	</g>
</g>
<g>
	<g>
		<g>
			<rect x="178.1" y="127.1" fill="#FFFFFF" width="63.4" height="2.1"/>
		</g>
		<g>
			<circle fill="#FFFFFF" cx="241.2" cy="128.2" r="2.7"/>
		</g>
	</g>
	<g>
		<g>
			<polygon fill="#FFFFFF" points="191.4,109.3 178.1,109.3 178.1,107.2 190.6,107.2 205,94.6 232.5,94.6 232.5,96.7 205.8,96.7 			
				"/>
		</g>
		<g>
			<circle fill="#FFFFFF" cx="232.5" cy="95.6" r="2.7"/>
		</g>
	</g>
	<g>
		<g>
			<polygon fill="#FFFFFF" points="232.5,161.8 205,161.8 190.6,149.2 178.1,149.2 178.1,147.1 191.4,147.1 205.8,159.8 
				232.5,159.8 			"/>
		</g>
		<g>
			<circle fill="#FFFFFF" cx="232.5" cy="160.8" r="2.7"/>
		</g>
	</g>
	<g>
		<g>
			<polygon fill="#FFFFFF" points="237.5,146.8 215,146.8 205.6,139.2 178.1,139.2 178.1,137.1 206.4,137.1 215.8,144.7 
				237.5,144.7 			"/>
		</g>
		<g>
			<circle fill="#FFFFFF" cx="237.5" cy="145.8" r="2.7"/>
		</g>
	</g>
	<g>
		<g>
			<polygon fill="#FFFFFF" points="206.4,119.3 178.1,119.3 178.1,117.2 205.6,117.2 215,109.6 237.5,109.5 237.5,111.6 
				215.8,111.7 			"/>
		</g>
		<g>
			<circle fill="#FFFFFF" cx="237.5" cy="110.6" r="2.7"/>
		</g>
	</g>
</g>
<g>
	<g>
		<g>
			<rect x="38.8" y="127.1" fill="#FFFFFF" width="63.4" height="2.1"/>
		</g>
		<g>
			<circle fill="#FFFFFF" cx="39" cy="128.1" r="2.7"/>
		</g>
	</g>
	<g>
		<g>
			<polygon fill="#FFFFFF" points="75.3,161.8 47.7,161.8 47.7,159.7 74.5,159.7 88.9,147.1 102.2,147.1 102.2,149.1 89.6,149.1 			
				"/>
		</g>
		<g>
			<circle fill="#FFFFFF" cx="47.7" cy="160.7" r="2.7"/>
		</g>
	</g>
	<g>
		<g>
			<polygon fill="#FFFFFF" points="102.2,109.2 88.9,109.2 74.5,96.6 47.7,96.6 47.7,94.5 75.3,94.5 89.6,107.2 102.2,107.2 			"/>
		</g>
		<g>
			<circle fill="#FFFFFF" cx="47.7" cy="95.6" r="2.7"/>
		</g>
	</g>
	<g>
		<g>
			<polygon fill="#FFFFFF" points="102.2,119.3 73.9,119.3 64.5,111.6 42.7,111.6 42.7,109.6 65.2,109.6 74.6,117.2 102.2,117.2 			
				"/>
		</g>
		<g>
			<circle fill="#FFFFFF" cx="42.7" cy="110.6" r="2.7"/>
		</g>
	</g>
	<g>
		<g>
			<polygon fill="#FFFFFF" points="42.7,146.8 42.7,144.7 64.5,144.7 73.9,137.1 102.2,137.1 102.2,139.2 74.6,139.2 65.2,146.8 			
				"/>
		</g>
		<g>
			<circle fill="#FFFFFF" cx="42.7" cy="145.8" r="2.7"/>
		</g>
	</g>
</g>
<g>
	<path fill="#FFFFFF" d="M56.1,184.3c-1,0-2-0.4-2.8-1.1c-1.5-1.5-1.5-4,0-5.5s4-1.5,5.5,0s1.5,4,0,5.5
		C58.1,183.9,57.1,184.3,56.1,184.3z M56.1,178.5c-0.5,0-1,0.2-1.3,0.6c-0.7,0.7-0.7,1.9,0,2.7c0.7,0.7,1.9,0.7,2.7,0
		c0.7-0.7,0.7-1.9,0-2.7C57.1,178.7,56.6,178.5,56.1,178.5z"/>
</g>
<g>
	<path fill="#FFFFFF" d="M86.1,214.3c-1,0-2-0.4-2.8-1.1c-1.5-1.5-1.5-4,0-5.5s4-1.5,5.5,0s1.5,4,0,5.5
		C88.1,213.9,87.1,214.3,86.1,214.3z M86.1,208.5c-0.5,0-1,0.2-1.3,0.6c-0.7,0.7-0.7,1.9,0,2.7c0.7,0.7,1.9,0.7,2.7,0
		c0.7-0.7,0.7-1.9,0-2.7C87.1,208.7,86.6,208.5,86.1,208.5z"/>
</g>
<g>
	<g>
		<path fill="#FFFFFF" d="M68.6,201.8c-1,0-2-0.4-2.8-1.1c-1.5-1.5-1.5-4,0-5.5s4-1.5,5.5,0s1.5,4,0,5.5
			C70.6,201.4,69.6,201.8,68.6,201.8z M68.6,196c-0.5,0-1,0.2-1.3,0.6c-0.7,0.7-0.7,1.9,0,2.7c0.7,0.7,1.9,0.7,2.7,0
			c0.7-0.7,0.7-1.9,0-2.7C69.6,196.2,69.1,196,68.6,196z"/>
	</g>
	<g>
		<g>
			<g>
				<g>
					<polygon fill="#FFFFFF" points="69.9,195 103.8,161.5 105.4,163.1 71.4,196.6 					"/>
				</g>
			</g>
		</g>
	</g>
</g>
<g>
	<path fill="#FFFFFF" d="M193.9,214.8c-1,0-2-0.4-2.8-1.1l0,0l0,0l0,0c-0.7-0.7-1.1-1.7-1.1-2.8c0-1,0.4-2,1.1-2.8
		c1.5-1.5,4-1.5,5.5,0c0.7,0.7,1.1,1.7,1.1,2.8c0,1-0.4,2-1.1,2.8C195.9,214.5,194.9,214.8,193.9,214.8z M193.9,209.1
		c-0.5,0-1,0.2-1.3,0.6c-0.4,0.4-0.6,0.8-0.6,1.3s0.2,1,0.6,1.3l0,0c0.7,0.7,1.9,0.7,2.7,0c0.4-0.4,0.6-0.8,0.6-1.3s-0.2-1-0.6-1.3
		C194.8,209.2,194.4,209.1,193.9,209.1z"/>
</g>
<g>
	<path fill="#FFFFFF" d="M223.9,184.8c-1,0-2-0.4-2.8-1.1c-0.7-0.7-1.1-1.7-1.1-2.8c0-1,0.4-2,1.1-2.8c1.5-1.5,4-1.5,5.5,0
		c0.7,0.7,1.1,1.7,1.1,2.8c0,1-0.4,2-1.1,2.8S224.9,184.8,223.9,184.8z M223.9,179.1c-0.5,0-1,0.2-1.3,0.6c-0.4,0.4-0.6,0.8-0.6,1.3
		s0.2,1,0.6,1.3c0.7,0.7,1.9,0.7,2.7,0c0.4-0.4,0.6-0.8,0.6-1.3s-0.2-1-0.6-1.3C224.8,179.2,224.4,179.1,223.9,179.1z"/>
</g>
<g>
	<g>
		<path fill="#FFFFFF" d="M211.4,202.3c-1,0-2-0.4-2.8-1.1c-0.7-0.7-1.1-1.7-1.1-2.8c0-1,0.4-2,1.1-2.8c1.5-1.5,4-1.5,5.5,0
			c0.7,0.7,1.1,1.7,1.1,2.8c0,1-0.4,2-1.1,2.8S212.4,202.3,211.4,202.3z M211.4,196.6c-0.5,0-1,0.2-1.3,0.6
			c-0.4,0.4-0.6,0.8-0.6,1.3s0.2,1,0.6,1.3c0.7,0.7,1.9,0.7,2.7,0c0.4-0.4,0.6-0.8,0.6-1.3s-0.2-1-0.6-1.3
			C212.3,196.7,211.9,196.6,211.4,196.6z"/>
	</g>
	<g>
		<g>
			<g>
				<g>
					<polygon fill="#FFFFFF" points="174.9,163.4 176.5,161.9 210,195.8 208.4,197.4 					"/>
				</g>
			</g>
		</g>
	</g>
</g>
<g>
	<g>
		<g>
			<polygon fill="#FFFFFF" points="139.8,250.5 143.4,259.1 152.7,259.8 145.6,265.9 147.8,274.9 139.8,270.1 131.9,274.9 
				134,265.9 127,259.8 136.2,259.1 			"/>
		</g>
	</g>
	<g>
		<g>
			<polygon fill="#FFFFFF" points="171.7,246.3 177.4,253.7 186.5,252 181.3,259.7 185.7,267.9 176.8,265.2 170.4,272 170.1,262.7 
				161.7,258.7 170.5,255.5 			"/>
		</g>
	</g>
	<g>
		<g>
			<polygon fill="#FFFFFF" points="201.3,234.1 208.7,239.7 217.1,235.7 214,244.5 220.4,251.2 211.1,251 206.7,259.2 204,250.3 
				194.8,248.6 202.5,243.3 			"/>
		</g>
	</g>
	<g>
		<g>
			<polygon fill="#FFFFFF" points="108.3,246.3 102.6,253.7 93.5,252 98.7,259.7 94.3,267.9 103.2,265.2 109.6,272 109.9,262.7 
				118.3,258.7 109.5,255.5 			"/>
		</g>
	</g>
	<g>
		<g>
			<polygon fill="#FFFFFF" points="78.7,234.1 71.3,239.7 62.9,235.7 66,244.5 59.6,251.2 68.9,251 73.3,259.2 76,250.3 85.2,248.6 
				77.5,243.3 			"/>
		</g>
	</g>
</g>
<path fill="#FFFFFF" d="M173.6,166.2h-67.2l-6.4-6.4V96.5l6.4-6.4h67.3l6.4,6.4v63.3L173.6,166.2z M108.1,162h63.8l3.9-3.9V98.3
	l-3.9-3.9h-63.8l-3.9,3.9v59.8L108.1,162z"/>
<g>
	<g>
		<path fill="#FFFFFF" d="M112,158.9c-2.4,0-4.3-1.9-4.3-4.3s1.9-4.3,4.3-4.3s4.3,1.9,4.3,4.3S114.4,158.9,112,158.9z M112,152
			c-1.5,0-2.7,1.2-2.7,2.7s1.2,2.7,2.7,2.7s2.7-1.2,2.7-2.7S113.5,152,112,152z"/>
	</g>
	<g>
		<path fill="#FFFFFF" d="M168.4,158.9c-2.4,0-4.3-1.9-4.3-4.3s1.9-4.3,4.3-4.3s4.3,1.9,4.3,4.3S170.8,158.9,168.4,158.9z
			 M168.4,152c-1.5,0-2.7,1.2-2.7,2.7s1.2,2.7,2.7,2.7s2.7-1.2,2.7-2.7S169.9,152,168.4,152z"/>
	</g>
	<g>
		<path fill="#FFFFFF" d="M112,106.1c-2.4,0-4.3-1.9-4.3-4.3s1.9-4.3,4.3-4.3s4.3,1.9,4.3,4.3S114.4,106.1,112,106.1z M112,99.1
			c-1.5,0-2.7,1.2-2.7,2.7s1.2,2.7,2.7,2.7s2.7-1.2,2.7-2.7S113.5,99.1,112,99.1z"/>
	</g>
	<g>
		<path fill="#FFFFFF" d="M168.4,106.1c-2.4,0-4.3-1.9-4.3-4.3s1.9-4.3,4.3-4.3s4.3,1.9,4.3,4.3S170.8,106.1,168.4,106.1z
			 M168.4,99.1c-1.5,0-2.7,1.2-2.7,2.7s1.2,2.7,2.7,2.7s2.7-1.2,2.7-2.7S169.9,99.1,168.4,99.1z"/>
	</g>
</g>
<g>
	<path fill="#FFFFFF" d="M155,113.1h-30.2v30.2H155V113.1z M132.4,138.7h-3v-3h3V138.7z M132.4,132.7h-3v-3h3V132.7z M132.4,126.7
		h-3v-3h3V126.7z M132.4,120.6h-3v-3h3V120.6z M138.5,138.7h-3v-3h3V138.7z M138.5,132.7h-3v-3h3V132.7z M138.5,126.7h-3v-3h3V126.7
		z M138.5,120.6h-3v-3h3V120.6z M144.5,138.7h-3v-3h3V138.7z M144.5,132.7h-3v-3h3V132.7z M144.5,126.7h-3v-3h3V126.7z M144.5,120.6
		h-3v-3h3V120.6z M150.5,138.7h-3v-3h3V138.7z M150.5,132.7h-3v-3h3V132.7z M150.5,126.7h-3v-3h3V126.7z M150.5,120.6h-3v-3h3V120.6
		z"/>
	<path fill="#FFFFFF" d="M117.5,105.8v44.8h44.8v-44.8H117.5z M156.7,144.9h-33.5v-33.5h33.5V144.9z"/>
</g>
<path fill="#FFFFFF" d="M140,12.7c-64,0-116.1,52.1-116.1,116.1S76,244.9,140,244.9s116.1-52.1,116.1-116.1S204,12.7,140,12.7z
	 M140,238.3c-60.4,0-109.5-49.1-109.5-109.5S79.6,19.3,140,19.3s109.5,49.1,109.5,109.5S200.4,238.3,140,238.3z"/>
</svg>
