<?xml version="1.0" encoding="utf-8"?>
<!-- Generator: Adobe Illustrator 25.4.1, SVG Export Plug-In . SVG Version: 6.00 Build 0)  -->
<svg version="1.1" id="Layer_2_1_" xmlns="http://www.w3.org/2000/svg" xmlns:xlink="http://www.w3.org/1999/xlink" x="0px" y="0px"
	 viewBox="0 0 300 300" style="enable-background:new 0 0 300 300;" xml:space="preserve">
<style type="text/css">
	.st0{fill:#FFFFFF;}
</style>
<g>
	<path class="st0" d="M100,185.7l50,50l50-50v-75H100V185.7z M110,120.7h80v60.9l-40,40l-40-40V120.7z"/>
	<polygon class="st0" points="205,110.7 205,125.7 275,125.7 290,110.7 	"/>
	<polygon class="st0" points="205,145.7 255,145.7 270,130.7 205,130.7 	"/>
	<polygon class="st0" points="205,165.7 220,165.7 235,150.7 205,150.7 	"/>
	<polygon class="st0" points="205,180.7 215,170.7 205,170.7 	"/>
	<polygon class="st0" points="25,125.7 95,125.7 95,110.7 10,110.7 	"/>
	<polygon class="st0" points="45,145.7 95,145.7 95,130.7 30,130.7 	"/>
	<polygon class="st0" points="80,165.7 95,165.7 95,150.7 65,150.7 	"/>
	<polygon class="st0" points="95,180.7 95,170.7 85,170.7 	"/>
	<path class="st0" d="M142.6,83.1l-0.9,5.2l-0.9,5l4.5-2.4l4.7-2.5l4.7,2.5l4.5,2.4l-0.9-5l-0.9-5.2l3.8-3.7l3.6-3.5l-5-0.7
		l-5.3-0.8l-2.4-4.8l-2.2-4.5l-2.2,4.5l-2.4,4.8l-5.3,0.8l-5,0.7l3.6,3.5L142.6,83.1z M147.1,76.7l2.9-6l2.9,6l6.6,1l-4.8,4.6
		l1.1,6.5l-5.9-3.1l-5.9,3.1l1.1-6.5l-4.8-4.6L147.1,76.7z"/>
	<path class="st0" d="M191.4,88.5l-0.1-5.3l-0.1-5.1l-4,3.2l-4.2,3.3l-5.1-1.5l-4.9-1.5l1.8,4.7l1.9,5l-3,4.4l-2.9,4.2l5.1-0.2
		l5.3-0.3l3.2,4.2l3.1,4l1.3-4.9l1.4-5.1l5-1.8l4.8-1.7l-4.2-2.8L191.4,88.5z M188.2,95.7l-1.7,6.4l-4-5.3l-6.6,0.3l3.8-5.5
		l-2.4-6.2l6.4,1.9l5.2-4.2l0.1,6.6l5.6,3.6L188.2,95.7z"/>
	<path class="st0" d="M109.7,97.6l1.4,5.1l1.3,4.9l3.1-4l3.2-4.2l5.3,0.3l5.1,0.2l-2.9-4.2l-3-4.4l1.9-5l1.8-4.7l-4.9,1.5l-5.1,1.5
		l-4.2-3.3l-4-3.2l-0.1,5.1l-0.1,5.3l-4.5,2.9l-4.2,2.8l4.8,1.7L109.7,97.6z M111,89.8l0.1-6.6l5.2,4.2l6.4-1.9l-2.4,6.2l3.8,5.5
		l-6.6-0.3l-4,5.3l-1.7-6.4l-6.3-2.2L111,89.8z"/>
	<rect x="159.7" y="130.7" class="st0" width="8.5" height="50"/>
	<rect x="174.7" y="130.7" class="st0" width="8.5" height="50"/>
	<polygon class="st0" points="143.7,130.7 134.7,164.3 125.7,130.7 115.3,130.7 128.7,180.7 140.6,180.7 154,130.7 	"/>
</g>
</svg>
