<?xml version="1.0" encoding="utf-8"?>
<!-- Generator: Adobe Illustrator 25.4.1, SVG Export Plug-In . SVG Version: 6.00 Build 0)  -->
<svg version="1.1" id="Layer_2_1_" xmlns="http://www.w3.org/2000/svg" xmlns:xlink="http://www.w3.org/1999/xlink" x="0px" y="0px"
	 viewBox="0 0 300 300" style="enable-background:new 0 0 300 300;" xml:space="preserve">
<style type="text/css">
	.st0{fill:#FFFFFF;}
</style>
<g>
	<path class="st0" d="M193.6,123.7l-2.5-1.4l-35.5-20.5l-2.5-1.4l-2.5-1.4l-2.5,1.5l-2.5,1.5l-35.2,20.5l-2.5,1.4l-2.5,1.4l0,2.9
		l0,2.9l-0.1,40.8l0,2.9l0,2.9l2.5,1.4l2.5,1.4l35.5,20.5l2.5,1.4l2.5,1.4l2.5-1.5l2.5-1.5l35.2-20.5l2.5-1.4l2.5-1.4l0-2.9l0-2.9
		l0.1-40.8l0-2.9l0-2.9L193.6,123.7z M149.7,193.9l-35.5-20.5l-1-0.6l0-1.2l0.1-40.8l0-1.1l1-0.6l35.2-20.5l1-0.6l1,0.6l35.5,20.5
		l1,0.6l0,1.2l-0.1,40.8l0,1.1l-1,0.6l-35.2,20.5l-1,0.6L149.7,193.9z"/>
	<path class="st0" d="M162.1,164.9l2.2-2.2c0.4-0.4,0.4-1,0-1.4l-10.1-10.1l10.1-10.1c0.4-0.4,0.4-1,0-1.4l-2.2-2.2
		c-0.4-0.4-1-0.4-1.4,0l-10.1,10.1l-10.1-10.1c-0.4-0.4-1-0.4-1.4,0l-2.2,2.2c-0.4,0.4-0.4,1,0,1.4l10.1,10.1l-10.1,10.1
		c-0.4,0.4-0.4,1,0,1.4l2.2,2.2c0.4,0.4,1,0.4,1.4,0l10.1-10.1l10.1,10.1C161.1,165.3,161.7,165.3,162.1,164.9z"/>
</g>
</svg>
