<?xml version="1.0" encoding="utf-8"?>
<!-- Generator: Adobe Illustrator 27.8.0, SVG Export Plug-In . SVG Version: 6.00 Build 0)  -->
<svg version="1.1" baseProfile="tiny" id="Layer_1" xmlns="http://www.w3.org/2000/svg" xmlns:xlink="http://www.w3.org/1999/xlink"
	 x="0px" y="0px" viewBox="0 0 26.1 83.3" overflow="visible" xml:space="preserve">
<path fill="#FFFFFF" d="M21.9,3.5C19.4,1.2,16.2,0,13,0C9.8,0,6.6,1.2,4.1,3.5c-4.5,4.2-5.4,10.9-2.3,16.2l8.5,14.2v46.6
	c0,1.5,1.2,2.7,2.7,2.7c1.5,0,2.7-1.2,2.7-2.7V33.9l8.5-14.2c1.2-2.1,1.8-4.4,1.8-6.7C26.1,9.5,24.7,6,21.9,3.5z M13,21.1
	c-4.6,0-8.4-3.8-8.4-8.4c0-4.6,3.8-8.4,8.4-8.4c4.6,0,8.4,3.8,8.4,8.4C21.4,17.4,17.7,21.1,13,21.1z"/>
</svg>
