<?xml version="1.0" encoding="utf-8"?>
<!-- Generator: Adobe Illustrator 22.1.0, SVG Export Plug-In . SVG Version: 6.00 Build 0)  -->
<svg version="1.1" baseProfile="tiny" id="Layer_1" xmlns="http://www.w3.org/2000/svg" xmlns:xlink="http://www.w3.org/1999/xlink"
	 x="0px" y="0px" width="128px" height="128px" viewBox="0 0 128 128" xml:space="preserve">
<g>
	<g>
		<g>
			<polygon points="72.1,74.6 72.1,49.4 83.1,74.6 90.7,74.6 65.2,16.3 65.1,16.3 65.1,74.6 			"/>
			<path d="M85.9,81l3.9,8.8c1.8-2.2,3.3-4.6,4.5-7.1L93.5,81H85.9z"/>
			<polygon points="65.1,81 65.1,114.8 72.1,101.7 72.1,81 			"/>
		</g>
		<g>
			<path d="M33.6,81l-0.7,1.7c1.2,2.6,2.7,5,4.5,7.1l3.9-8.8H33.6z"/>
			<polygon points="44,74.6 55,49.4 55,74.6 62,74.6 62,16.3 61.9,16.3 36.4,74.6 			"/>
			<polygon points="55,81 55,101.7 62,114.8 62,81 			"/>
		</g>
		<path d="M79.2,45c7.5,5.1,12.4,13.6,12.4,23.4c0,1.5-0.1,2.9-0.3,4.3L95,81c1.6-3.9,2.4-8.2,2.4-12.6c0-14.4-9-26.8-21.8-31.6
			L79.2,45z"/>
		<path d="M35.7,72.8c-0.2-1.4-0.3-2.9-0.3-4.4c0-9.7,5-18.3,12.5-23.4l3.6-8.3c-12.7,4.9-21.8,17.2-21.8,31.6
			c0,4.5,0.9,8.7,2.4,12.7L35.7,72.8z"/>
		<path d="M86.2,85.1c-3.2,4.4-7.6,7.7-12.8,9.7v6c6-1.8,11.3-5.3,15.3-9.8L86.2,85.1z"/>
		<path d="M53.7,94.8c-5.1-1.9-9.6-5.3-12.8-9.7L38.3,91c4.1,4.5,9.4,8,15.4,9.8V94.8z"/>
	</g>
	<path d="M97.2,49.2c-3.2-5.6-7.8-10.4-13.4-13.8c-2.1-1.3-4.3-2.4-6.6-3.3l0,0L63.5,0.8l-5.1,11.9l-8.5,19.4l0,0
		c-2.3,0.9-4.5,2-6.6,3.3c-5.5,3.4-10.2,8.2-13.4,13.8c-3.3,5.8-5.1,12.5-5.1,19.2c0,8.6,2.8,16.8,8,23.6
		c4.9,6.3,11.7,11.1,19.3,13.4l5.9,11l5.5,10.2l5.5-10.2l5.9-11c7.6-2.3,14.4-7.1,19.3-13.4c5.2-6.8,8-15,8-23.6
		C102.3,61.7,100.5,55,97.2,49.2z M73.4,103.5l-6.3,11.9l-3.6,6.6l-3.6-6.6l-6.3-11.8c-15.4-4.3-26.6-18.4-26.6-35.1
		c0-13.2,7-24.7,17.4-31.1c2-1.2,4-2.3,6.2-3.1l0.9-0.3l8.9-20.3l3.1-7.2l3.1,7.2l8.9,20.3l0.9,0.3c2.2,0.8,4.3,1.9,6.2,3.1
		C93.1,43.7,100,55.3,100,68.4C100,85.1,88.8,99.2,73.4,103.5z"/>
	<g>
		<path d="M35.2,80.2l0.6-0.9h1.5v0.9h1.1v-4.7h-0.1h-1.1l-3.1,4.7H35.2z M37.4,77v1.6h-1.1L37.4,77z"/>
		<polygon points="40.2,75.5 41.2,75.5 41.2,75.5 42.2,78.2 42.9,75.5 43.8,75.5 43.5,76.6 43.5,76.6 42.7,80.2 41.8,80.2 41.8,80 
			41.8,80 40.7,77.3 39.9,80.2 38.9,80.2 		"/>
		<polygon points="44.4,75.5 45.4,75.5 45.5,78.4 47.2,75.5 48.5,75.5 45.7,80.2 44.5,80.2 		"/>
		<polygon points="48.7,75.5 47.8,80.2 48.9,80.2 49.7,75.5 		"/>
		<polygon points="50.7,79.3 51.4,75.5 50.3,75.5 49.5,80.2 50.1,80.2 50.1,80.2 52.9,80.2 52.9,79.3 		"/>
		<path d="M56.3,75.5l-1.7,4.7h1.2l0.4-1h1.5l0.3,1H59l-1.2-4.7H56.3z M56.4,78.5l0.6-1.7l0.4,1.7H56.4z"/>
		<path d="M80.9,75.5l-0.8,4.7h1.2l0.2-1h1.4l0.5,1h1.1l-2.2-4.7H80.9z M81.5,78.5l0.3-1.7l0.8,1.7H81.5z"/>
		<polygon points="62.8,76.4 62.8,75.5 62,75.5 60.6,75.5 59.5,75.5 59.4,80.2 60.5,80.2 60.5,80.2 62.8,80.2 62.8,79.3 60.5,79.3 
			60.5,78.3 62.3,78.3 62.3,77.4 60.5,77.4 60.6,76.4 		"/>
		<polygon points="89.5,80.2 88.2,75.5 89.3,75.5 90.7,75.5 91,75.5 91.5,76.4 89.4,76.4 89.8,77.4 91.3,77.4 91.7,78.3 90.1,78.3 
			90.4,79.3 92.3,79.3 92.9,80.2 		"/>
		<polygon points="65.9,78.4 66,78.4 66.9,78.4 66.9,75.5 65.8,75.5 65.8,75.5 65.8,75.5 64.3,75.5 64.3,75.5 63.9,75.5 63.2,75.5 
			63.2,80.2 64.3,80.2 64.3,76.6 65.8,76.6 65.8,77.5 64.5,77.5 64.5,78.4 64.5,78.4 66.1,80.2 67.5,80.2 		"/>
		<path d="M67.7,75.5l-0.3,0.3v4l0.4,0.3h0.2l0,0h3.1l0.3-0.4l-0.3-3.9l-0.5-0.4h-2.6l0,0H67.7z M68.6,76.4h1.5l0.2,2.9h-1.8V76.4z"
			/>
		<path d="M75.5,78.2L75.5,78.2L72.9,77l-0.1-0.6h1.7l0.1,0.9h0.9c0-0.1,0.1-0.4,0-0.9c-0.1-0.6-0.6-0.9-0.6-0.9H72v0l0,0
			c0,0-0.3,0.2-0.3,1c0,0.8,0.2,1,0.2,1l2.7,1.3l0,0.5h-1.6L73,78.4h-0.9l0,0c0,0-0.1,0.3,0,1c0.1,0.7,0.5,0.7,0.5,0.7h2.8l0,0
			c0,0,0.3-0.2,0.3-1C75.7,78.4,75.5,78.2,75.5,78.2z"/>
		<path d="M79.4,75.6c0-0.1-0.2-0.1-0.2-0.1h-0.9H77h-0.7h-0.3l0.7,4.7h1l-0.2-1.4h1.4h0.8c0,0,0.2,0,0.2-0.1
			C79.8,78.5,79.5,75.9,79.4,75.6z M77.3,77.7l-0.2-1.2h1.4l0.2,1.2H77.3z"/>
		<polygon points="87.2,78.4 87.4,79.3 85.7,79.3 85,76.5 86.7,76.5 86.9,77.2 87.9,77.2 87.4,75.5 83.7,75.5 84.9,80.2 89,80.2 
			88.4,78.4 		"/>
	</g>
</g>
</svg>
