<?xml version="1.0" encoding="utf-8"?>
<!-- Generator: Adobe Illustrator 22.1.0, SVG Export Plug-In . SVG Version: 6.00 Build 0)  -->
<svg version="1.1" baseProfile="tiny" id="Layer_1" xmlns="http://www.w3.org/2000/svg" xmlns:xlink="http://www.w3.org/1999/xlink"
	 x="0px" y="0px" width="128px" height="128px" viewBox="0 0 128 128" xml:space="preserve">
<path fill="#B2B2B2" d="M64,21.1l11.4,27.5l1.4,3.4l3.7,0.3l29.7,2.4L87.5,73.9l-2.8,2.4l0.9,3.6l6.9,28.9L67.1,93.3L64,91.4
	l-3.1,1.9l-25.4,15.5l6.9-28.9l0.9-3.6l-2.8-2.4L17.9,54.6l29.7-2.4l3.7-0.3l1.4-3.4L64,21.1 M64,5.4L47,46.2L3,49.8l33.6,28.7
	l-10.3,43l37.7-23l37.7,23l-10.3-43L125,49.8l-44-3.5L64,5.4L64,5.4z"/>
</svg>
