<?xml version="1.0" encoding="utf-8"?>
<!-- Generator: Adobe Illustrator 22.1.0, SVG Export Plug-In . SVG Version: 6.00 Build 0)  -->
<svg version="1.1" baseProfile="tiny" id="Layer_1" xmlns="http://www.w3.org/2000/svg" xmlns:xlink="http://www.w3.org/1999/xlink"
	 x="0px" y="0px" width="3840px" height="183.1px" viewBox="0 0 3840 183.1" xml:space="preserve">
<path fill="#FFFFFF" d="M188.3,9.2h47.8c9.5,0,17.2,7.7,17.2,17.2v130.1c0,9.5-7.7,17.2-17.2,17.2h-47.8c-9.5,0-17.2-7.7-17.2-17.2
	V26.5C171.1,17,178.8,9.2,188.3,9.2z"/>
<path fill="#FFFFFF" d="M311.8,9.2h47.8c9.5,0,17.2,7.7,17.2,17.2v130.1c0,9.5-7.7,17.2-17.2,17.2h-47.8c-9.5,0-17.2-7.7-17.2-17.2
	V26.5C294.5,17,302.2,9.2,311.8,9.2z"/>
<path fill="#FFFFFF" d="M435.2,9.2H483c9.5,0,17.2,7.7,17.2,17.2v130.1c0,9.5-7.7,17.2-17.2,17.2h-47.8c-9.5,0-17.2-7.7-17.2-17.2
	V26.5C418,17,425.7,9.2,435.2,9.2z"/>
<path fill="#FFFFFF" d="M558.7,9.2h47.8c9.5,0,17.2,7.7,17.2,17.2v130.1c0,9.5-7.7,17.2-17.2,17.2h-47.8c-9.5,0-17.2-7.7-17.2-17.2
	V26.5C541.4,17,549.1,9.2,558.7,9.2z"/>
<path fill="#FFFFFF" d="M682.1,9.2H730c9.5,0,17.2,7.7,17.2,17.2v130.1c0,9.5-7.7,17.2-17.2,17.2h-47.8c-9.5,0-17.2-7.7-17.2-17.2
	V26.5C664.9,17,672.6,9.2,682.1,9.2z"/>
<path fill="#FFFFFF" d="M805.6,9.2h47.8c9.5,0,17.2,7.7,17.2,17.2v130.1c0,9.5-7.7,17.2-17.2,17.2h-47.8c-9.5,0-17.2-7.7-17.2-17.2
	V26.5C788.3,17,796.1,9.2,805.6,9.2z"/>
<path fill="#FFFFFF" d="M929,9.2h47.8c9.5,0,17.2,7.7,17.2,17.2v130.1c0,9.5-7.7,17.2-17.2,17.2H929c-9.5,0-17.2-7.7-17.2-17.2V26.5
	C911.8,17,919.5,9.2,929,9.2z"/>
<path fill="#FFFFFF" d="M1052.5,9.2h47.8c9.5,0,17.2,7.7,17.2,17.2v130.1c0,9.5-7.7,17.2-17.2,17.2h-47.8c-9.5,0-17.2-7.7-17.2-17.2
	V26.5C1035.2,17,1043,9.2,1052.5,9.2z"/>
<path fill="#FFFFFF" d="M1175.9,9.2h47.8c9.5,0,17.2,7.7,17.2,17.2v130.1c0,9.5-7.7,17.2-17.2,17.2h-47.8c-9.5,0-17.2-7.7-17.2-17.2
	V26.5C1158.7,17,1166.4,9.2,1175.9,9.2z"/>
<path fill="#FFFFFF" d="M1299.4,9.2h47.8c9.5,0,17.2,7.7,17.2,17.2v130.1c0,9.5-7.7,17.2-17.2,17.2h-47.8c-9.5,0-17.2-7.7-17.2-17.2
	V26.5C1282.2,17,1289.9,9.2,1299.4,9.2z"/>
<path fill="#FFFFFF" d="M1422.8,9.2h47.8c9.5,0,17.2,7.7,17.2,17.2v130.1c0,9.5-7.7,17.2-17.2,17.2h-47.8c-9.5,0-17.2-7.7-17.2-17.2
	V26.5C1405.6,17,1413.3,9.2,1422.8,9.2z"/>
<path fill="#FFFFFF" d="M1546.3,9.2h47.8c9.5,0,17.2,7.7,17.2,17.2v130.1c0,9.5-7.7,17.2-17.2,17.2h-47.8c-9.5,0-17.2-7.7-17.2-17.2
	V26.5C1529.1,17,1536.8,9.2,1546.3,9.2z"/>
<path fill="#FFFFFF" d="M1669.7,9.2h47.8c9.5,0,17.2,7.7,17.2,17.2v130.1c0,9.5-7.7,17.2-17.2,17.2h-47.8c-9.5,0-17.2-7.7-17.2-17.2
	V26.5C1652.5,17,1660.2,9.2,1669.7,9.2z"/>
<path fill="#FFFFFF" d="M1793.2,9.2h47.8c9.5,0,17.2,7.7,17.2,17.2v130.1c0,9.5-7.7,17.2-17.2,17.2h-47.8c-9.5,0-17.2-7.7-17.2-17.2
	V26.5C1776,17,1783.7,9.2,1793.2,9.2z"/>
<path fill="#FFFFFF" d="M1916.7,9.2h47.8c9.5,0,17.2,7.7,17.2,17.2v130.1c0,9.5-7.7,17.2-17.2,17.2h-47.8c-9.5,0-17.2-7.7-17.2-17.2
	V26.5C1899.4,17,1907.1,9.2,1916.7,9.2z"/>
<path fill="#FFFFFF" d="M2040.1,9.2h47.8c9.5,0,17.2,7.7,17.2,17.2v130.1c0,9.5-7.7,17.2-17.2,17.2h-47.8c-9.5,0-17.2-7.7-17.2-17.2
	V26.5C2022.9,17,2030.6,9.2,2040.1,9.2z"/>
<path fill="#FFFFFF" d="M2163.6,9.2h47.8c9.5,0,17.2,7.7,17.2,17.2v130.1c0,9.5-7.7,17.2-17.2,17.2h-47.8c-9.5,0-17.2-7.7-17.2-17.2
	V26.5C2146.3,17,2154,9.2,2163.6,9.2z"/>
<path fill="#FFFFFF" d="M2287,9.2h47.8c9.5,0,17.2,7.7,17.2,17.2v130.1c0,9.5-7.7,17.2-17.2,17.2H2287c-9.5,0-17.2-7.7-17.2-17.2
	V26.5C2269.8,17,2277.5,9.2,2287,9.2z"/>
<path fill="#FFFFFF" d="M2410.5,9.2h47.8c9.5,0,17.2,7.7,17.2,17.2v130.1c0,9.5-7.7,17.2-17.2,17.2h-47.8c-9.5,0-17.2-7.7-17.2-17.2
	V26.5C2393.2,17,2401,9.2,2410.5,9.2z"/>
<path fill="#FFFFFF" d="M2533.9,9.2h47.8c9.5,0,17.2,7.7,17.2,17.2v130.1c0,9.5-7.7,17.2-17.2,17.2h-47.8c-9.5,0-17.2-7.7-17.2-17.2
	V26.5C2516.7,17,2524.4,9.2,2533.9,9.2z"/>
<path fill="#FFFFFF" d="M2657.4,9.2h47.8c9.5,0,17.2,7.7,17.2,17.2v130.1c0,9.5-7.7,17.2-17.2,17.2h-47.8c-9.5,0-17.2-7.7-17.2-17.2
	V26.5C2640.1,17,2647.9,9.2,2657.4,9.2z"/>
<path fill="#FFFFFF" d="M2780.8,9.2h47.8c9.5,0,17.2,7.7,17.2,17.2v130.1c0,9.5-7.7,17.2-17.2,17.2h-47.8c-9.5,0-17.2-7.7-17.2-17.2
	V26.5C2763.6,17,2771.3,9.2,2780.8,9.2z"/>
<path fill="#FFFFFF" d="M2904.3,9.2h47.8c9.5,0,17.2,7.7,17.2,17.2v130.1c0,9.5-7.7,17.2-17.2,17.2h-47.8c-9.5,0-17.2-7.7-17.2-17.2
	V26.5C2887.1,17,2894.8,9.2,2904.3,9.2z"/>
<path fill="#FFFFFF" d="M3027.7,9.2h47.8c9.5,0,17.2,7.7,17.2,17.2v130.1c0,9.5-7.7,17.2-17.2,17.2h-47.8c-9.5,0-17.2-7.7-17.2-17.2
	V26.5C3010.5,17,3018.2,9.2,3027.7,9.2z"/>
<path fill="#FFFFFF" d="M3151.2,9.2h47.8c9.5,0,17.2,7.7,17.2,17.2v130.1c0,9.5-7.7,17.2-17.2,17.2h-47.8c-9.5,0-17.2-7.7-17.2-17.2
	V26.5C3134,17,3141.7,9.2,3151.2,9.2z"/>
<path fill="#FFFFFF" d="M3274.7,9.2h47.8c9.5,0,17.2,7.7,17.2,17.2v130.1c0,9.5-7.7,17.2-17.2,17.2h-47.8c-9.5,0-17.2-7.7-17.2-17.2
	V26.5C3257.4,17,3265.1,9.2,3274.7,9.2z"/>
<path fill="#FFFFFF" d="M3398.1,9.2h47.8c9.5,0,17.2,7.7,17.2,17.2v130.1c0,9.5-7.7,17.2-17.2,17.2h-47.8c-9.5,0-17.2-7.7-17.2-17.2
	V26.5C3380.9,17,3388.6,9.2,3398.1,9.2z"/>
<path fill="#FFFFFF" d="M3521.6,9.2h47.8c9.5,0,17.2,7.7,17.2,17.2v130.1c0,9.5-7.7,17.2-17.2,17.2h-47.8c-9.5,0-17.2-7.7-17.2-17.2
	V26.5C3504.3,17,3512,9.2,3521.6,9.2z"/>
<path fill="#FFFFFF" d="M3645,9.2h47.8c9.5,0,17.2,7.7,17.2,17.2v130.1c0,9.5-7.7,17.2-17.2,17.2H3645c-9.5,0-17.2-7.7-17.2-17.2
	V26.5C3627.8,17,3635.5,9.2,3645,9.2z"/>
<path fill="#FFFFFF" d="M3768.5,9.2h47.8c9.5,0,17.2,7.7,17.2,17.2v130.1c0,9.5-7.7,17.2-17.2,17.2h-47.8c-9.5,0-17.2-7.7-17.2-17.2
	V26.5C3751.2,17,3759,9.2,3768.5,9.2z"/>
<path fill="#FFFFFF" d="M88.8,9.2L6.5,91.5l82.3,82.3h23.9c9.5,0,17.2-7.7,17.2-17.2V26.5c0-9.5-7.7-17.2-17.2-17.2H88.8z"/>
</svg>
