<?xml version="1.0" encoding="utf-8"?>
<!-- Generator: Adobe Illustrator 26.5.3, SVG Export Plug-In . SVG Version: 6.00 Build 0)  -->
<svg version="1.1" baseProfile="tiny" id="Layer_1" xmlns="http://www.w3.org/2000/svg" xmlns:xlink="http://www.w3.org/1999/xlink"
	 x="0px" y="0px" viewBox="0 0 2469 164.6" overflow="visible" xml:space="preserve">
<path fill="#FFFFFF" d="M181.8,0h47.8c9.5,0,17.2,7.7,17.2,17.2v130.1c0,9.5-7.7,17.2-17.2,17.2h-47.8c-9.5,0-17.2-7.7-17.2-17.2
	v-130C164.6,7.8,172.3,0,181.8,0z"/>
<path fill="#FFFFFF" d="M305.3,0h47.8c9.5,0,17.2,7.7,17.2,17.2v130.1c0,9.5-7.7,17.2-17.2,17.2h-47.8c-9.5,0-17.2-7.7-17.2-17.2
	v-130C288,7.8,295.7,0,305.3,0z"/>
<path fill="#FFFFFF" d="M428.7,0h47.8c9.5,0,17.2,7.7,17.2,17.2v130.1c0,9.5-7.7,17.2-17.2,17.2h-47.8c-9.5,0-17.2-7.7-17.2-17.2
	v-130C411.5,7.8,419.2,0,428.7,0z"/>
<path fill="#FFFFFF" d="M552.2,0H600c9.5,0,17.2,7.7,17.2,17.2v130.1c0,9.5-7.7,17.2-17.2,17.2h-47.8c-9.5,0-17.2-7.7-17.2-17.2
	v-130C534.9,7.8,542.6,0,552.2,0z"/>
<path fill="#FFFFFF" d="M675.6,0h47.9c9.5,0,17.2,7.7,17.2,17.2v130.1c0,9.5-7.7,17.2-17.2,17.2h-47.8c-9.5,0-17.2-7.7-17.2-17.2
	v-130C658.4,7.8,666.1,0,675.6,0z"/>
<path fill="#FFFFFF" d="M799.1,0h47.8c9.5,0,17.2,7.7,17.2,17.2v130.1c0,9.5-7.7,17.2-17.2,17.2h-47.8c-9.5,0-17.2-7.7-17.2-17.2
	v-130C781.8,7.8,789.6,0,799.1,0z"/>
<path fill="#FFFFFF" d="M922.5,0h47.8c9.5,0,17.2,7.7,17.2,17.2v130.1c0,9.5-7.7,17.2-17.2,17.2h-47.8c-9.5,0-17.2-7.7-17.2-17.2
	v-130C905.3,7.8,913,0,922.5,0z"/>
<path fill="#FFFFFF" d="M1046,0h47.8c9.5,0,17.2,7.7,17.2,17.2v130.1c0,9.5-7.7,17.2-17.2,17.2H1046c-9.5,0-17.2-7.7-17.2-17.2v-130
	C1028.7,7.8,1036.5,0,1046,0z"/>
<path fill="#FFFFFF" d="M1169.4,0h47.8c9.5,0,17.2,7.7,17.2,17.2v130.1c0,9.5-7.7,17.2-17.2,17.2h-47.8c-9.5,0-17.2-7.7-17.2-17.2
	v-130C1152.2,7.8,1159.9,0,1169.4,0z"/>
<path fill="#FFFFFF" d="M1292.9,0h47.8c9.5,0,17.2,7.7,17.2,17.2v130.1c0,9.5-7.7,17.2-17.2,17.2h-47.8c-9.5,0-17.2-7.7-17.2-17.2
	v-130C1275.7,7.8,1283.4,0,1292.9,0z"/>
<path fill="#FFFFFF" d="M1416.3,0h47.8c9.5,0,17.2,7.7,17.2,17.2v130.1c0,9.5-7.7,17.2-17.2,17.2h-47.8c-9.5,0-17.2-7.7-17.2-17.2
	v-130C1399.1,7.8,1406.8,0,1416.3,0z"/>
<path fill="#FFFFFF" d="M1539.8,0h47.8c9.5,0,17.2,7.7,17.2,17.2v130.1c0,9.5-7.7,17.2-17.2,17.2h-47.8c-9.5,0-17.2-7.7-17.2-17.2
	v-130C1522.6,7.8,1530.3,0,1539.8,0z"/>
<path fill="#FFFFFF" d="M1663.2,0h47.8c9.5,0,17.2,7.7,17.2,17.2v130.1c0,9.5-7.7,17.2-17.2,17.2h-47.8c-9.5,0-17.2-7.7-17.2-17.2
	v-130C1646,7.8,1653.7,0,1663.2,0z"/>
<path fill="#FFFFFF" d="M1786.7,0h47.8c9.5,0,17.2,7.7,17.2,17.2v130.1c0,9.5-7.7,17.2-17.2,17.2h-47.8c-9.5,0-17.2-7.7-17.2-17.2
	v-130C1769.5,7.8,1777.2,0,1786.7,0z"/>
<path fill="#FFFFFF" d="M1910.2,0h47.8c9.5,0,17.2,7.7,17.2,17.2v130.1c0,9.5-7.7,17.2-17.2,17.2h-47.8c-9.5,0-17.2-7.7-17.2-17.2
	v-130C1892.9,7.8,1900.6,0,1910.2,0z"/>
<path fill="#FFFFFF" d="M2033.6,0h47.8c9.5,0,17.2,7.7,17.2,17.2v130.1c0,9.5-7.7,17.2-17.2,17.2h-47.8c-9.5,0-17.2-7.7-17.2-17.2
	v-130C2016.4,7.8,2024.1,0,2033.6,0z"/>
<path fill="#FFFFFF" d="M2157.1,0h47.8c9.5,0,17.2,7.7,17.2,17.2v130.1c0,9.5-7.7,17.2-17.2,17.2h-47.8c-9.5,0-17.2-7.7-17.2-17.2
	v-130C2139.8,7.8,2147.5,0,2157.1,0z"/>
<path fill="#FFFFFF" d="M2280.5,0h47.8c9.5,0,17.2,7.7,17.2,17.2v130.1c0,9.5-7.7,17.2-17.2,17.2h-47.8c-9.5,0-17.2-7.7-17.2-17.2
	v-130C2263.3,7.8,2271,0,2280.5,0z"/>
<path fill="#FFFFFF" d="M2404,0h47.8c9.5,0,17.2,7.7,17.2,17.2v130.1c0,9.5-7.7,17.2-17.2,17.2H2404c-9.5,0-17.2-7.7-17.2-17.2v-130
	C2386.7,7.8,2394.5,0,2404,0z"/>
<path fill="#FFFFFF" d="M82.3,0L0,82.3l82.3,82.3h23.9c9.5,0,17.2-7.7,17.2-17.2V17.3c0-9.5-7.7-17.2-17.2-17.2L82.3,0L82.3,0z"/>
</svg>
