<?xml version="1.0" encoding="utf-8"?>
<!-- Generator: Adobe Illustrator 25.4.1, SVG Export Plug-In . SVG Version: 6.00 Build 0)  -->
<svg version="1.1" baseProfile="tiny" id="Layer_1" xmlns="http://www.w3.org/2000/svg" xmlns:xlink="http://www.w3.org/1999/xlink"
	 x="0px" y="0px" viewBox="0 0 600 600" overflow="visible" xml:space="preserve">
<g>
	<path d="M299.8,124.2v-5.4h3.4v5.4c0,0.8,0.6,1.4,1.4,1.4h3.8c0.8,0,1.4-0.6,1.4-1.4v-5.4h3.4v5.4c0,0.8,0.6,1.4,1.4,1.4h3.8
		c0.8,0,1.4-0.6,1.4-1.4v-5.4h3.4v5.4c0,0.8,0.6,1.4,1.4,1.4h3.8c0.8,0,1.4-0.6,1.4-1.4v-5.4h3.4v5.4c0,0.8,0.6,1.4,1.4,1.4h3.8
		c0.8,0,1.4-0.6,1.4-1.4v-5.4h3.4v5.4c0,0.8,0.6,1.4,1.4,1.4h3.8c0.8,0,1.4-0.6,1.4-1.4v-5.4h3.4v5.4c0,0.8,0.6,1.4,1.4,1.4h3.8
		c0.8,0,1.4-0.6,1.4-1.4v-5.4h3.4v5.4c0,0.8,0.6,1.4,1.4,1.4h3.8c0.8,0,1.4-0.6,1.4-1.4v-5.4h3.4v5.4c0,0.8,0.6,1.4,1.4,1.4h3.8
		c0.8,0,1.4-0.6,1.4-1.4v-5.4h3.4v5.4c0,0.8,0.6,1.4,1.4,1.4h3.8c0.8,0,1.4-0.6,1.4-1.4v-5.4h3.4v5.4c0,0.8,0.6,1.4,1.4,1.4h3.8
		c0.8,0,1.4-0.6,1.4-1.4v-5.4h3.4v5.4c0,0.8,0.6,1.4,1.4,1.4h3.8c0.8,0,1.4-0.6,1.4-1.4v-5.4h3.4v5.4c0,0.8,0.6,1.4,1.4,1.4h3.8
		c0.8,0,1.4-0.6,1.4-1.4v-5.4h3.4v5.4c0,0.8,0.6,1.4,1.4,1.4h3.8c0.8,0,1.4-0.6,1.4-1.4v-5.4h7.8v35.8c4.6,4.6,7.1,7.1,11.7,11.7h85
		c4.6-4.6,7.1-7.1,11.7-11.7v-85c-4.6-4.6-7.1-7.1-11.7-11.7h-85c-4.6,4.6-7.1,7.1-11.7,11.7v35.8h-7.8v-5.4c0-0.8-0.6-1.4-1.4-1.4
		h-3.8c-0.8,0-1.4,0.6-1.4,1.4v5.4h-3.4v-5.4c0-0.8-0.6-1.4-1.4-1.4h-3.8c-0.8,0-1.4,0.6-1.4,1.4v5.4h-3.4v-5.4
		c0-0.8-0.6-1.4-1.4-1.4h-3.8c-0.8,0-1.4,0.6-1.4,1.4v5.4h-3.4v-5.4c0-0.8-0.6-1.4-1.4-1.4h-3.8c-0.8,0-1.4,0.6-1.4,1.4v5.4h-3.4
		v-5.4c0-0.8-0.6-1.4-1.4-1.4h-3.8c-0.8,0-1.4,0.6-1.4,1.4v5.4h-3.4v-5.4c0-0.8-0.6-1.4-1.4-1.4h-3.8c-0.8,0-1.4,0.6-1.4,1.4v5.4
		h-3.4v-5.4c0-0.8-0.6-1.4-1.4-1.4h-3.8c-0.8,0-1.4,0.6-1.4,1.4v5.4h-3.4v-5.4c0-0.8-0.6-1.4-1.4-1.4h-3.8c-0.8,0-1.4,0.6-1.4,1.4
		v5.4h-3.4v-5.4c0-0.8-0.6-1.4-1.4-1.4h-3.8c-0.8,0-1.4,0.6-1.4,1.4v5.4h-3.4v-5.4c0-0.8-0.6-1.4-1.4-1.4h-3.8
		c-0.8,0-1.4,0.6-1.4,1.4v5.4h-3.4v-5.4c0-0.8-0.6-1.4-1.4-1.4h-3.8c-0.8,0-1.4,0.6-1.4,1.4v5.4h-3.4v-5.4c0-0.8-0.6-1.4-1.4-1.4
		h-3.8c-0.8,0-1.4,0.6-1.4,1.4v5.4h-3.4v-5.4c0-0.8-0.6-1.4-1.4-1.4h-3.8c-0.8,0-1.4,0.6-1.4,1.4v5.4h-3.4v-5.4
		c0-0.8-0.6-1.4-1.4-1.4h-3.8c-0.8,0-1.4,0.6-1.4,1.4v5.4h-3.4v-5.4c0-0.8-0.6-1.4-1.4-1.4h-3.8c-0.8,0-1.4,0.6-1.4,1.4v5.4h-3.4
		v-5.4c0-0.8-0.6-1.4-1.4-1.4h-3.8c-0.8,0-1.4,0.6-1.4,1.4v5.4h-3.4v-5.4c0-0.8-0.6-1.4-1.4-1.4h-3.8c-0.8,0-1.4,0.6-1.4,1.4v5.4
		h-9.7v-20c0-1.8-1.4-3.2-3.2-3.2H45.3c-1.8,0-3.2,1.4-3.2,3.2v53.2c0,1.8,1.4,3.2,3.2,3.2h13.4l13.7,13.7l-5.6,5.6
		c-0.5,0.5-0.5,1.4,0,2l2.7,2.7c0.5,0.5,1.4,0.5,2,0l5.6-5.6l5.3,5.3l-5.6,5.6c-0.5,0.5-0.5,1.4,0,2l2.7,2.7c0.5,0.5,1.4,0.5,2,0
		l5.6-5.6l5.3,5.3l-5.6,5.6c-0.5,0.5-0.5,1.4,0,2l2.7,2.7c0.5,0.5,1.4,0.5,2,0l5.6-5.6l5.3,5.3l-5.6,5.6c-0.5,0.5-0.5,1.4,0,2
		l2.7,2.7c0.5,0.5,1.4,0.5,2,0l5.6-5.6l5.3,5.3l-5.6,5.6c-0.5,0.5-0.5,1.4,0,2l2.7,2.7c0.5,0.5,1.4,0.5,2,0l5.6-5.6l5.3,5.3
		l-5.6,5.6c-0.5,0.5-0.5,1.4,0,2l2.7,2.7c0.5,0.5,1.4,0.5,2,0l5.6-5.6l29.7,29.7l-13.1,13.1l-8.5-8.5c-4.4,0-6.9,0-11.3,0
		l-20.6,20.6c0,4.4,0,6.9,0,11.3l20.6,20.6c4.4,0,6.9,0,11.3,0l20.6-20.6c0-4.4,0-6.9,0-11.3l-7.4-7.4l13.1-13.1l45.3,45.3
		l-13.1,13.1l-8.5-8.5c-4.4,0-6.9,0-11.3,0l-20.6,20.6c0,4.4,0,6.9,0,11.3l20.6,20.6c4.4,0,6.9,0,11.3,0l20.6-20.6
		c0-4.4,0-6.9,0-11.3l-7.4-7.4l13.1-13.1l5.9,5.9l6-6l-5.9-5.9l14.2-14.2l7.4,7.4c4.4,0,6.9,0,11.3,0l20.6-20.6c0-4.4,0-6.9,0-11.3
		l-20.6-20.6c-4.4,0-6.9,0-11.3,0l-20.6,20.6c0,4.4,0,6.9,0,11.3l8.5,8.5L212.8,284l-45.3-45.3l14.2-14.2l7.4,7.4
		c4.4,0,6.9,0,11.3,0l20.6-20.6c0-4.4,0-6.9,0-11.3l-20.6-20.6c-4.4,0-6.9,0-11.3,0l-20.6,20.6c0,4.4,0,6.9,0,11.3l8.5,8.5
		L162.8,234l-29.7-29.7l5.5-5.5c0.5-0.5,0.5-1.4,0-2l-2.7-2.7c-0.5-0.5-1.4-0.5-2,0l-5.5,5.5l-5.3-5.3l5.5-5.5c0.5-0.5,0.5-1.4,0-2
		l-2.7-2.7c-0.5-0.5-1.4-0.5-2,0l-5.5,5.5l-5.3-5.3l5.5-5.5c0.5-0.5,0.5-1.4,0-2l-2.7-2.7c-0.5-0.5-1.4-0.5-2,0l-5.5,5.5l-5.3-5.3
		l5.5-5.5c0.5-0.5,0.5-1.4,0-2l-2.7-2.7c-0.5-0.5-1.4-0.5-2,0l-5.5,5.5l-5.3-5.3l5.5-5.5c0.5-0.5,0.5-1.4,0-2l-2.7-2.7
		c-0.5-0.5-1.4-0.5-2,0l-5.5,5.5l-5.3-5.3l5.5-5.5c0.5-0.5,0.5-1.4,0-2l-2.7-2.7c-0.5-0.5-1.4-0.5-2,0l-5.5,5.5l-7.7-7.7h179.6
		c1.8,0,3.2-1.4,3.2-3.2v-20h9.7v5.4c0,0.8,0.6,1.4,1.4,1.4h3.8c0.8,0,1.4-0.6,1.4-1.4v-5.4h3.4v5.4c0,0.8,0.6,1.4,1.4,1.4h3.8
		c0.8,0,1.4-0.6,1.4-1.4v-5.4h3.4v5.4c0,0.8,0.6,1.4,1.4,1.4h3.8c0.8,0,1.4-0.6,1.4-1.4v-5.4h3.4v5.4c0,0.8,0.6,1.4,1.4,1.4h3.8
		C299.1,125.6,299.8,125,299.8,124.2z"/>
</g>
<path fill="#010101" d="M571.5,529.3l-15.2-51c-0.5-1.7-2.3-2.7-4-2.2l-12.8,3.8l-17.1-9.2l3.8-7c0.3-0.6,0.1-1.5-0.6-1.9l-3.4-1.8
	c-0.6-0.3-1.5-0.1-1.9,0.6l-3.8,7l-6.6-3.6l3.8-7c0.3-0.6,0.1-1.5-0.6-1.9l-3.4-1.8c-0.6-0.3-1.5-0.1-1.9,0.6l-3.8,7l-6.6-3.6l3.8-7
	c0.3-0.6,0.1-1.5-0.6-1.9l-3.4-1.8c-0.6-0.3-1.5-0.1-1.9,0.6l-3.8,7l-6.6-3.6l3.8-7c0.3-0.6,0.1-1.5-0.6-1.9l-3.4-1.8
	c-0.6-0.3-1.5-0.1-1.9,0.6l-3.8,7l-6.6-3.6l3.8-7c0.3-0.6,0.1-1.5-0.6-1.9l-3.4-1.8c-0.6-0.3-1.5-0.1-1.9,0.6l-3.8,7l-6.6-3.6l3.8-7
	c0.3-0.6,0.1-1.5-0.6-1.9l-3.4-1.8c-0.6-0.3-1.5-0.1-1.9,0.6l-3.8,7L417.4,414l8.8-16.3l10.6,5.7c4.2-1.3,6.6-2,10.8-3.2l13.9-25.6
	c-1.3-4.2-2-6.6-3.2-10.8l-25.6-13.9c-4.2,1.3-6.6,2-10.8,3.2l-13.9,25.6c1.3,4.2,2,6.6,3.2,10.8l9.2,5l-8.8,16.3l-56.4-30.5
	L364,364l10.6,5.7c4.2-1.3,6.6-2,10.8-3.2l13.9-25.6c-1.3-4.2-2-6.6-3.2-10.8l-25.6-13.9c-4.2,1.3-6.6,2-10.8,3.2l-13.9,25.6
	c1.3,4.2,2,6.6,3.2,10.8l9.2,5l-8.8,16.3l-7.3-4l-4,7.5l7.3,4l-9.5,17.6l-9.3-5c-4.2,1.3-6.6,2-10.8,3.2l-13.9,25.6
	c1.3,4.2,2,6.6,3.2,10.8l25.6,13.9c4.3-1.3,6.6-2,10.8-3.2l13.9-25.6c-1.3-4.2-2-6.6-3.2-10.8l-10.5-5.7l9.5-17.6l56.4,30.5
	l-9.5,17.6l-9.3-5c-4.2,1.3-6.6,2-10.8,3.2l-13.9,25.6c1.3,4.2,2,6.6,3.2,10.8l25.6,13.9c4.3-1.3,6.6-2,10.8-3.2l13.9-25.6
	c-1.3-4.2-2-6.6-3.2-10.8l-10.5-5.7l9.5-17.6l36.9,19.9l-3.7,6.8c-0.3,0.7-0.1,1.6,0.6,1.9l3.4,1.8c0.6,0.3,1.5,0.1,1.9-0.6l3.7-6.8
	l6.6,3.6l-3.7,6.8c-0.3,0.7-0.1,1.6,0.6,1.9l3.4,1.8c0.6,0.3,1.5,0.1,1.9-0.6l3.7-6.8l6.6,3.6l-3.7,6.8c-0.3,0.7-0.1,1.6,0.6,1.9
	l3.4,1.8c0.6,0.3,1.5,0.1,1.9-0.6l3.7-6.8l6.6,3.6l-3.7,6.8c-0.3,0.7-0.1,1.6,0.6,1.9l3.4,1.8c0.6,0.3,1.5,0.1,1.9-0.6l3.7-6.8
	l6.6,3.6l-3.7,6.8c-0.3,0.7-0.1,1.6,0.6,1.9l3.4,1.8c0.6,0.3,1.5,0.1,1.9-0.6l3.7-6.8l6.6,3.6l-3.7,6.8c-0.3,0.7-0.1,1.6,0.6,1.9
	l3.4,1.8c0.6,0.3,1.5,0.1,1.9-0.6l3.7-6.8l9.6,5.2l-172.1,51.3c-1.7,0.5-2.7,2.3-2.2,4l5.7,19.2l-9.3,2.8l-1.6-5.3
	c-0.2-0.8-1-1.2-1.7-0.9l-3.6,1.1c-0.8,0.2-1.2,1-0.9,1.7l1.6,5.3l-3.3,1l-1.6-5.3c-0.2-0.8-1-1.2-1.7-0.9l-3.6,1.1
	c-0.8,0.2-1.2,1-0.9,1.7l1.6,5.3l-3.3,1l-1.6-5.3c-0.2-0.8-1-1.2-1.7-0.9l-3.6,1.1c-0.8,0.2-1.2,1-0.9,1.7l1.6,5.3l-3.3,1l-1.6-5.3
	c-0.2-0.8-1-1.2-1.7-0.9l-3.6,1.1c-0.8,0.2-1.2,1-0.9,1.7l1.6,5.3l-3.3,1l-1.6-5.3c-0.2-0.8-1-1.2-1.7-0.9l-3.6,1.1
	c-0.8,0.2-1.2,1-0.9,1.7l1.6,5.3l-3.3,1l-1.6-5.3c-0.2-0.8-1-1.2-1.7-0.9l-3.6,1.1c-0.8,0.2-1.2,1-0.9,1.7l1.6,5.3l-3.3,1l-1.6-5.3
	c-0.2-0.8-1-1.2-1.7-0.9l-3.6,1.1c-0.8,0.2-1.2,1-0.9,1.7l1.6,5.3l-3.3,1l-1.6-5.3c-0.2-0.8-1-1.2-1.7-0.9l-3.6,1.1
	c-0.8,0.2-1.2,1-0.9,1.7l1.6,5.3l-3.3,1l-1.6-5.3c-0.2-0.8-1-1.2-1.7-0.9l-3.6,1.1c-0.8,0.2-1.2,1-0.9,1.7l1.6,5.3l-3.3,1l-1.6-5.3
	c-0.2-0.8-1-1.2-1.7-0.9l-3.6,1.1c-0.8,0.2-1.2,1-0.9,1.7l1.6,5.3l-3.3,1l-1.6-5.3c-0.2-0.8-1-1.2-1.7-0.9l-3.6,1.1
	c-0.8,0.2-1.2,1-0.9,1.7l1.6,5.3l-3.3,1l-1.6-5.3c-0.2-0.8-1-1.2-1.7-0.9l-3.6,1.1c-0.8,0.2-1.2,1-0.9,1.7l1.6,5.3l-3.3,1l-1.6-5.3
	c-0.2-0.8-1-1.2-1.7-0.9l-3.6,1.1c-0.8,0.2-1.2,1-0.9,1.7l1.6,5.3l-3.3,1l-1.6-5.3c-0.2-0.8-1-1.2-1.7-0.9l-3.6,1.1
	c-0.8,0.2-1.2,1-0.9,1.7l1.6,5.3l-3.3,1l-1.6-5.3c-0.2-0.8-1-1.2-1.7-0.9l-3.6,1.1c-0.8,0.2-1.2,1-0.9,1.7l1.6,5.3l-3.3,1l-1.6-5.3
	c-0.2-0.8-1-1.2-1.7-0.9l-3.6,1.1c-0.8,0.2-1.2,1-0.9,1.7l1.6,5.3l-3.3,1l-1.6-5.3c-0.2-0.8-1-1.2-1.7-0.9l-3.6,1.1
	c-0.8,0.2-1.2,1-0.9,1.7l1.6,5.3l-7.4,2.2l-10.3-34.5c-5.7-3.1-8.8-4.8-14.6-7.9l-81.5,24.3c-3.1,5.7-4.8,8.8-7.9,14.6l24.3,81.5
	c5.7,3.1,8.9,4.9,14.6,7.9l81.5-24.3c3.1-5.7,4.8-8.8,7.9-14.6l-10.2-34.2l7.4-2.2l1.5,5.1c0.2,0.8,1.1,1.1,1.7,0.9l3.6-1.1
	c0.8-0.2,1.2-1,0.9-1.7l-1.5-5.1l3.3-1l1.5,5.1c0.2,0.8,1.1,1.1,1.7,0.9l3.6-1.1c0.8-0.2,1.2-1,0.9-1.7l-1.5-5.1l3.3-1l1.5,5.1
	c0.2,0.8,1.1,1.1,1.7,0.9l3.6-1.1c0.8-0.2,1.2-1,0.9-1.7l-1.5-5.1l3.3-1l1.5,5.1c0.2,0.8,1.1,1.1,1.7,0.9l3.6-1.1
	c0.8-0.2,1.2-1,0.9-1.7l-1.5-5.1l3.3-1l1.5,5.1c0.2,0.8,1.1,1.1,1.7,0.9l3.6-1.1c0.8-0.2,1.2-1,0.9-1.7l-1.5-5.1l3.3-1l1.5,5.1
	c0.2,0.8,1.1,1.1,1.7,0.9l3.6-1.1c0.8-0.2,1.2-1,0.9-1.7l-1.5-5.1l3.3-1l1.5,5.1c0.2,0.8,1.1,1.1,1.7,0.9l3.6-1.1
	c0.8-0.2,1.2-1,0.9-1.7l-1.5-5.1l3.3-1l1.5,5.1c0.2,0.8,1.1,1.1,1.7,0.9l3.6-1.1c0.8-0.2,1.2-1,0.9-1.7l-1.5-5.1l3.3-1l1.5,5.1
	c0.2,0.8,1.1,1.1,1.7,0.9l3.6-1.1c0.8-0.2,1.2-1,0.9-1.7l-1.5-5.1l3.3-1l1.5,5.1c0.2,0.8,1.1,1.1,1.7,0.9l3.6-1.1
	c0.8-0.2,1.2-1,0.9-1.7l-1.5-5.1l3.3-1l1.5,5.1c0.2,0.8,1.1,1.1,1.7,0.9l3.6-1.1c0.8-0.2,1.2-1,0.9-1.7l-1.5-5.1l3.3-1l1.5,5.1
	c0.2,0.8,1.1,1.1,1.7,0.9l3.6-1.1c0.8-0.2,1.2-1,0.9-1.7l-1.5-5.1l3.3-1l1.5,5.1c0.2,0.8,1.1,1.1,1.7,0.9l3.6-1.1
	c0.8-0.2,1.2-1,0.9-1.7l-1.5-5.1l3.3-1l1.5,5.1c0.2,0.8,1.1,1.1,1.7,0.9l3.6-1.1c0.8-0.2,1.2-1,0.9-1.7l-1.5-5.1l3.3-1l1.5,5.1
	c0.2,0.8,1.1,1.1,1.7,0.9l3.6-1.1c0.8-0.2,1.2-1,0.9-1.7l-1.5-5.1l3.3-1l1.5,5.1c0.2,0.8,1.1,1.1,1.7,0.9l3.6-1.1
	c0.8-0.2,1.2-1,0.9-1.7l-1.5-5.1l3.3-1l1.5,5.1c0.2,0.8,1.1,1.1,1.7,0.9l3.6-1.1c0.8-0.2,1.2-1,0.9-1.7l-1.5-5.1l9.3-2.8l0-0.1
	l5.7,19.2c0.5,1.7,2.3,2.7,4,2.2l196.5-58.6C571,532.7,572,531,571.5,529.3z"/>
</svg>
