<?xml version="1.0" encoding="utf-8"?>
<!-- Generator: Adobe Illustrator 25.4.1, SVG Export Plug-In . SVG Version: 6.00 Build 0)  -->
<svg version="1.1" baseProfile="tiny" id="Layer_1" xmlns="http://www.w3.org/2000/svg" xmlns:xlink="http://www.w3.org/1999/xlink"
	 x="0px" y="0px" viewBox="0 0 600 600" overflow="visible" xml:space="preserve">
<path fill="none" stroke="#000000" stroke-linejoin="round" stroke-miterlimit="10" d="M253.5,105.5v-20c0-1.8-1.4-3.2-3.2-3.2h-205
	c-1.8,0-3.2,1.4-3.2,3.2v53.2c0,1.8,1.4,3.2,3.2,3.2h13.4l158.7,158.7l6-6L70.7,141.9h179.6c1.8,0,3.2-1.4,3.2-3.2v-20h184.7v-13.3
	H253.5V105.5z"/>
<path fill="none" stroke="#000000" stroke-miterlimit="10" d="M268.4,98.7h-3.8c-0.8,0-1.4,0.6-1.4,1.4v24.1c0,0.8,0.6,1.4,1.4,1.4
	h3.8c0.8,0,1.4-0.6,1.4-1.4v-24.1C269.8,99.3,269.1,98.7,268.4,98.7z"/>
<path fill="none" stroke="#000000" stroke-miterlimit="10" d="M88.6,146.9l-2.7-2.7c-0.5-0.5-1.4-0.5-2,0l-17.1,17.1
	c-0.5,0.5-0.5,1.4,0,2l2.7,2.7c0.5,0.5,1.4,0.5,2,0l17.1-17.1C89.1,148.3,89.1,147.4,88.6,146.9z"/>
<path fill="none" stroke="#000000" stroke-miterlimit="10" d="M98.6,156.9l-2.7-2.7c-0.5-0.5-1.4-0.5-2,0l-17.1,17.1
	c-0.5,0.5-0.5,1.4,0,2l2.7,2.7c0.5,0.5,1.4,0.5,2,0l17.1-17.1C99.1,158.3,99.1,157.4,98.6,156.9z"/>
<path fill="none" stroke="#000000" stroke-miterlimit="10" d="M108.6,166.9l-2.7-2.7c-0.5-0.5-1.4-0.5-2,0l-17.1,17.1
	c-0.5,0.5-0.5,1.4,0,2l2.7,2.7c0.5,0.5,1.4,0.5,2,0l17.1-17.1C109.1,168.3,109.1,167.4,108.6,166.9z"/>
<path fill="none" stroke="#000000" stroke-miterlimit="10" d="M118.6,176.9l-2.7-2.7c-0.5-0.5-1.4-0.5-2,0l-17.1,17.1
	c-0.5,0.5-0.5,1.4,0,2l2.7,2.7c0.5,0.5,1.4,0.5,2,0l17.1-17.1C119.1,178.3,119.1,177.4,118.6,176.9z"/>
<path fill="none" stroke="#000000" stroke-miterlimit="10" d="M128.6,186.9l-2.7-2.7c-0.5-0.5-1.4-0.5-2,0l-17.1,17.1
	c-0.5,0.5-0.5,1.4,0,2l2.7,2.7c0.5,0.5,1.4,0.5,2,0l17.1-17.1C129.1,188.3,129.1,187.4,128.6,186.9z"/>
<path fill="none" stroke="#000000" stroke-miterlimit="10" d="M138.6,196.9l-2.7-2.7c-0.5-0.5-1.4-0.5-2,0l-17.1,17.1
	c-0.5,0.5-0.5,1.4,0,2l2.7,2.7c0.5,0.5,1.4,0.5,2,0l17.1-17.1C139.1,198.3,139.1,197.4,138.6,196.9z"/>
<path fill="none" stroke="#000000" stroke-miterlimit="10" d="M182.1,222.1l-2.7-2.7c-0.5-0.5-1.4-0.5-2,0l-36.2,36.2
	c-0.5,0.5-0.5,1.4,0,2l2.7,2.7c0.5,0.5,1.4,0.5,2,0l36.2-36.2C182.7,223.5,182.7,222.6,182.1,222.1z"/>
<path fill="none" stroke="#000000" stroke-miterlimit="10" d="M278.4,98.7h-3.8c-0.8,0-1.4,0.6-1.4,1.4v24.1c0,0.8,0.6,1.4,1.4,1.4
	h3.8c0.8,0,1.4-0.6,1.4-1.4v-24.1C279.8,99.3,279.1,98.7,278.4,98.7z"/>
<path fill="none" stroke="#000000" stroke-miterlimit="10" d="M288.4,98.7h-3.8c-0.8,0-1.4,0.6-1.4,1.4v24.1c0,0.8,0.6,1.4,1.4,1.4
	h3.8c0.8,0,1.4-0.6,1.4-1.4v-24.1C289.8,99.3,289.1,98.7,288.4,98.7z"/>
<path fill="none" stroke="#000000" stroke-miterlimit="10" d="M298.4,98.7h-3.8c-0.8,0-1.4,0.6-1.4,1.4v24.1c0,0.8,0.6,1.4,1.4,1.4
	h3.8c0.8,0,1.4-0.6,1.4-1.4v-24.1C299.8,99.3,299.1,98.7,298.4,98.7z"/>
<path fill="none" stroke="#000000" stroke-miterlimit="10" d="M308.4,98.7h-3.8c-0.8,0-1.4,0.6-1.4,1.4v24.1c0,0.8,0.6,1.4,1.4,1.4
	h3.8c0.8,0,1.4-0.6,1.4-1.4v-24.1C309.8,99.3,309.1,98.7,308.4,98.7z"/>
<path fill="none" stroke="#000000" stroke-miterlimit="10" d="M318.4,98.7h-3.8c-0.8,0-1.4,0.6-1.4,1.4v24.1c0,0.8,0.6,1.4,1.4,1.4
	h3.8c0.8,0,1.4-0.6,1.4-1.4v-24.1C319.8,99.3,319.1,98.7,318.4,98.7z"/>
<path fill="none" stroke="#000000" stroke-miterlimit="10" d="M328.4,98.7h-3.8c-0.8,0-1.4,0.6-1.4,1.4v24.1c0,0.8,0.6,1.4,1.4,1.4
	h3.8c0.8,0,1.4-0.6,1.4-1.4v-24.1C329.8,99.3,329.1,98.7,328.4,98.7z"/>
<path fill="none" stroke="#000000" stroke-miterlimit="10" d="M338.4,98.7h-3.8c-0.8,0-1.4,0.6-1.4,1.4v24.1c0,0.8,0.6,1.4,1.4,1.4
	h3.8c0.8,0,1.4-0.6,1.4-1.4v-24.1C339.8,99.3,339.1,98.7,338.4,98.7z"/>
<path fill="none" stroke="#000000" stroke-miterlimit="10" d="M348.4,98.7h-3.8c-0.8,0-1.4,0.6-1.4,1.4v24.1c0,0.8,0.6,1.4,1.4,1.4
	h3.8c0.8,0,1.4-0.6,1.4-1.4v-24.1C349.8,99.3,349.1,98.7,348.4,98.7z"/>
<path fill="none" stroke="#000000" stroke-miterlimit="10" d="M358.4,98.7h-3.8c-0.8,0-1.4,0.6-1.4,1.4v24.1c0,0.8,0.6,1.4,1.4,1.4
	h3.8c0.8,0,1.4-0.6,1.4-1.4v-24.1C359.8,99.3,359.1,98.7,358.4,98.7z"/>
<path fill="none" stroke="#000000" stroke-miterlimit="10" d="M368.4,98.7h-3.8c-0.8,0-1.4,0.6-1.4,1.4v24.1c0,0.8,0.6,1.4,1.4,1.4
	h3.8c0.8,0,1.4-0.6,1.4-1.4v-24.1C369.8,99.3,369.1,98.7,368.4,98.7z"/>
<path fill="none" stroke="#000000" stroke-miterlimit="10" d="M378.4,98.7h-3.8c-0.8,0-1.4,0.6-1.4,1.4v24.1c0,0.8,0.6,1.4,1.4,1.4
	h3.8c0.8,0,1.4-0.6,1.4-1.4v-24.1C379.8,99.3,379.1,98.7,378.4,98.7z"/>
<path fill="none" stroke="#000000" stroke-miterlimit="10" d="M388.4,98.7h-3.8c-0.8,0-1.4,0.6-1.4,1.4v24.1c0,0.8,0.6,1.4,1.4,1.4
	h3.8c0.8,0,1.4-0.6,1.4-1.4v-24.1C389.8,99.3,389.1,98.7,388.4,98.7z"/>
<path fill="none" stroke="#000000" stroke-miterlimit="10" d="M398.4,98.7h-3.8c-0.8,0-1.4,0.6-1.4,1.4v24.1c0,0.8,0.6,1.4,1.4,1.4
	h3.8c0.8,0,1.4-0.6,1.4-1.4v-24.1C399.8,99.3,399.1,98.7,398.4,98.7z"/>
<path fill="none" stroke="#000000" stroke-miterlimit="10" d="M408.4,98.7h-3.8c-0.8,0-1.4,0.6-1.4,1.4v24.1c0,0.8,0.6,1.4,1.4,1.4
	h3.8c0.8,0,1.4-0.6,1.4-1.4v-24.1C409.8,99.3,409.1,98.7,408.4,98.7z"/>
<path fill="none" stroke="#000000" stroke-miterlimit="10" d="M418.4,98.7h-3.8c-0.8,0-1.4,0.6-1.4,1.4v24.1c0,0.8,0.6,1.4,1.4,1.4
	h3.8c0.8,0,1.4-0.6,1.4-1.4v-24.1C419.8,99.3,419.1,98.7,418.4,98.7z"/>
<path fill="none" stroke="#000000" stroke-miterlimit="10" d="M428.4,98.7h-3.8c-0.8,0-1.4,0.6-1.4,1.4v24.1c0,0.8,0.6,1.4,1.4,1.4
	h3.8c0.8,0,1.4-0.6,1.4-1.4v-24.1C429.8,99.3,429.1,98.7,428.4,98.7z"/>
<path fill="none" stroke="#000000" stroke-miterlimit="10" d="M70.9,96.2h-9.5c-2.4,0-4.3,1.9-4.3,4.3v23.4c0,2.4,1.9,4.3,4.3,4.3
	h9.5c2.4,0,4.3-1.9,4.3-4.3v-23.4C75.2,98.1,73.3,96.2,70.9,96.2z"/>
<path fill="none" stroke="#000000" stroke-miterlimit="10" d="M100.9,96.2h-9.5c-2.4,0-4.3,1.9-4.3,4.3v23.4c0,2.4,1.9,4.3,4.3,4.3
	h9.5c2.4,0,4.3-1.9,4.3-4.3v-23.4C105.2,98.1,103.3,96.2,100.9,96.2z"/>
<path fill="none" stroke="#000000" stroke-miterlimit="10" d="M130.9,96.2h-9.5c-2.4,0-4.3,1.9-4.3,4.3v23.4c0,2.4,1.9,4.3,4.3,4.3
	h9.5c2.4,0,4.3-1.9,4.3-4.3v-23.4C135.2,98.1,133.3,96.2,130.9,96.2z"/>
<path fill="none" stroke="#000000" stroke-miterlimit="10" d="M160.9,96.2h-9.5c-2.4,0-4.3,1.9-4.3,4.3v23.4c0,2.4,1.9,4.3,4.3,4.3
	h9.5c2.4,0,4.3-1.9,4.3-4.3v-23.4C165.2,98.1,163.3,96.2,160.9,96.2z"/>
<path fill="none" stroke="#000000" stroke-linejoin="round" stroke-miterlimit="10" d="M534.2,58h-85c-4.6,4.6-7.1,7.1-11.7,11.7v85
	c4.6,4.6,7.1,7.1,11.7,11.7h85c4.6-4.6,7.1-7.1,11.7-11.7v-85C541.3,65.1,538.8,62.5,534.2,58z"/>
<path fill="none" stroke="#000000" stroke-width="2" stroke-linejoin="round" stroke-miterlimit="10" d="M517.5,78.4h-51.6
	c-3.1,3.1-4.9,4.9-8,8V138c3.1,3.1,4.9,4.9,8,8h51.6c3.1-3.1,4.9-4.9,8-8V86.3C522.4,83.2,520.6,81.5,517.5,78.4z"/>
<path fill="none" stroke="#000000" stroke-linejoin="round" stroke-miterlimit="10" d="M189.1,179.5l-20.6,20.6c0,4.4,0,6.9,0,11.3
	l20.6,20.6c4.4,0,6.9,0,11.3,0l20.6-20.6c0-4.4,0-6.9,0-11.3l-20.6-20.6C195.9,179.5,193.5,179.5,189.1,179.5z"/>
<path fill="none" stroke="#000000" stroke-width="0.5" stroke-linejoin="round" stroke-miterlimit="10" d="M191.4,186.1l-16.3,16.3
	c0,2.6,0,4.1,0,6.7l16.3,16.3c2.6,0,4.1,0,6.7,0l16.3-16.3c0-2.6,0-4.1,0-6.7L198,186.1C195.4,186.1,194,186.1,191.4,186.1z"/>
<path fill="none" stroke="#000000" stroke-linejoin="round" stroke-miterlimit="10" d="M123.9,244.6l-20.6,20.6c0,4.4,0,6.9,0,11.3
	l20.6,20.6c4.4,0,6.9,0,11.3,0l20.6-20.6c0-4.4,0-6.9,0-11.3l-20.6-20.6C130.8,244.6,128.3,244.6,123.9,244.6z"/>
<path fill="none" stroke="#000000" stroke-width="0.5" stroke-linejoin="round" stroke-miterlimit="10" d="M126.2,251.3L110,267.6
	c0,2.6,0,4.1,0,6.7l16.3,16.3c2.6,0,4.1,0,6.7,0l16.3-16.3c0-2.6,0-4.1,0-6.7L133,251.3C130.3,251.3,128.8,251.3,126.2,251.3z"/>
<path fill="none" stroke="#000000" stroke-miterlimit="10" d="M232.1,272.1l-2.7-2.7c-0.5-0.5-1.4-0.5-2,0l-36.2,36.2
	c-0.5,0.5-0.5,1.4,0,2l2.7,2.7c0.5,0.5,1.4,0.5,2,0l36.2-36.2C232.7,273.5,232.7,272.6,232.1,272.1z"/>
<path fill="none" stroke="#000000" stroke-linejoin="round" stroke-miterlimit="10" d="M239.1,229.5l-20.6,20.6c0,4.4,0,6.9,0,11.3
	l20.6,20.6c4.4,0,6.9,0,11.3,0l20.6-20.6c0-4.4,0-6.9,0-11.3l-20.6-20.6C245.9,229.5,243.5,229.5,239.1,229.5z"/>
<path fill="none" stroke="#000000" stroke-width="0.5" stroke-linejoin="round" stroke-miterlimit="10" d="M241.4,236.1l-16.3,16.3
	c0,2.6,0,4.1,0,6.7l16.3,16.3c2.6,0,4.1,0,6.7,0l16.3-16.3c0-2.6,0-4.1,0-6.7L248,236.1C245.4,236.1,244,236.1,241.4,236.1z"/>
<path fill="none" stroke="#000000" stroke-linejoin="round" stroke-miterlimit="10" d="M173.9,294.6l-20.6,20.6c0,4.4,0,6.9,0,11.3
	l20.6,20.6c4.4,0,6.9,0,11.3,0l20.6-20.6c0-4.4,0-6.9,0-11.3l-20.6-20.6C180.8,294.6,178.3,294.6,173.9,294.6z"/>
<path fill="none" stroke="#000000" stroke-width="0.5" stroke-linejoin="round" stroke-miterlimit="10" d="M176.2,301.3L160,317.6
	c0,2.6,0,4.1,0,6.7l16.3,16.3c2.6,0,4.1,0,6.7,0l16.3-16.3c0-2.6,0-4.1,0-6.7L183,301.3C180.3,301.3,178.8,301.3,176.2,301.3z"/>
<path fill="none" stroke="#000000" stroke-linejoin="round" stroke-miterlimit="10" d="M363.2,570.5l5.7,19.2c0.5,1.7,2.3,2.7,4,2.2
	l196.5-58.6c1.7-0.5,2.7-2.3,2.2-4l-15.2-51c-0.5-1.7-2.3-2.7-4-2.2l-12.8,3.8L342,373.2l-4,7.5l190,102.7l-172.1,51.3
	c-1.7,0.5-2.7,2.3-2.2,4l5.7,19.2l-177,52.8l3.8,12.7L363.2,570.5L363.2,570.5z"/>
<path fill="none" stroke="#000000" stroke-miterlimit="10" d="M350.8,581.3l3.6-1.1c0.8-0.2,1.2-1,0.9-1.7l-6.9-23.1
	c-0.2-0.8-1-1.2-1.7-0.9l-3.6,1.1c-0.8,0.2-1.2,1-0.9,1.7l6.9,23.1C349.3,581.1,350.2,581.5,350.8,581.3z"/>
<path fill="none" stroke="#000000" stroke-miterlimit="10" d="M509.4,483.7l3.4,1.8c0.6,0.3,1.5,0.1,1.9-0.6l11.5-21.3
	c0.3-0.6,0.1-1.5-0.6-1.9l-3.4-1.8c-0.6-0.3-1.5-0.1-1.9,0.6l-11.5,21.3C508.5,482.5,508.7,483.4,509.4,483.7z"/>
<path fill="none" stroke="#000000" stroke-miterlimit="10" d="M496.9,477l3.4,1.8c0.6,0.3,1.5,0.1,1.9-0.6l11.5-21.3
	c0.3-0.6,0.1-1.5-0.6-1.9l-3.4-1.8c-0.6-0.3-1.5-0.1-1.9,0.6l-11.5,21.3C496,475.8,496.3,476.6,496.9,477z"/>
<path fill="none" stroke="#000000" stroke-miterlimit="10" d="M484.5,470.2l3.4,1.8c0.6,0.3,1.5,0.1,1.9-0.6l11.5-21.3
	c0.3-0.6,0.1-1.5-0.6-1.9l-3.4-1.8c-0.6-0.3-1.5-0.1-1.9,0.6l-11.5,21.3C483.6,469,483.9,469.9,484.5,470.2z"/>
<path fill="none" stroke="#000000" stroke-miterlimit="10" d="M472,463.5l3.4,1.8c0.6,0.3,1.5,0.1,1.9-0.6l11.5-21.3
	c0.3-0.6,0.1-1.5-0.6-1.9l-3.4-1.8c-0.6-0.3-1.5-0.1-1.9,0.6l-11.5,21.3C471.2,462.3,471.4,463.2,472,463.5z"/>
<path fill="none" stroke="#000000" stroke-miterlimit="10" d="M459.6,456.8l3.4,1.8c0.6,0.3,1.5,0.1,1.9-0.6l11.5-21.3
	c0.3-0.6,0.1-1.5-0.6-1.9l-3.4-1.8c-0.6-0.3-1.5-0.1-1.9,0.6L459,454.9C458.7,455.6,459,456.5,459.6,456.8z"/>
<path fill="none" stroke="#000000" stroke-miterlimit="10" d="M447.2,450.1l3.4,1.8c0.6,0.3,1.5,0.1,1.9-0.6l11.5-21.3
	c0.3-0.6,0.1-1.5-0.6-1.9l-3.4-1.8c-0.6-0.3-1.5-0.1-1.9,0.6l-11.5,21.3C446.3,448.9,446.5,449.7,447.2,450.1z"/>
<path fill="none" stroke="#000000" stroke-miterlimit="10" d="M398.3,438.3l3.4,1.8c0.6,0.3,1.5,0.1,1.9-0.6l24.3-45
	c0.3-0.6,0.1-1.5-0.6-1.9l-3.4-1.8c-0.6-0.3-1.5-0.1-1.9,0.6l-24.3,45C397.3,437.2,397.6,438,398.3,438.3z"/>
<path fill="none" stroke="#000000" stroke-miterlimit="10" d="M341.2,584.1l3.6-1.1c0.8-0.2,1.2-1,0.9-1.7l-6.9-23.1
	c-0.2-0.8-1-1.2-1.7-0.9l-3.6,1.1c-0.8,0.2-1.2,1-0.9,1.7l6.9,23.1C339.7,583.9,340.6,584.3,341.2,584.1z"/>
<path fill="none" stroke="#000000" stroke-miterlimit="10" d="M331.7,587l3.6-1.1c0.8-0.2,1.2-1,0.9-1.7l-6.9-23.1
	c-0.2-0.8-1-1.2-1.7-0.9l-3.6,1.1c-0.8,0.2-1.2,1-0.9,1.7l6.9,23.1C330.1,586.8,331,587.2,331.7,587z"/>
<path fill="none" stroke="#000000" stroke-miterlimit="10" d="M322.1,589.8l3.6-1.1c0.8-0.2,1.2-1,0.9-1.7l-6.9-23.1
	c-0.2-0.8-1-1.2-1.7-0.9l-3.6,1.1c-0.8,0.2-1.2,1-0.9,1.7l6.9,23.1C320.6,589.7,321.4,590,322.1,589.8z"/>
<path fill="none" stroke="#000000" stroke-miterlimit="10" d="M312.5,592.7l3.6-1.1c0.8-0.2,1.2-1,0.9-1.7l-6.9-23.1
	c-0.2-0.8-1-1.2-1.7-0.9l-3.6,1.1c-0.8,0.2-1.2,1-0.9,1.7l6.9,23.1C311,592.5,311.8,592.9,312.5,592.7z"/>
<path fill="none" stroke="#000000" stroke-miterlimit="10" d="M302.9,595.5l3.6-1.1c0.8-0.2,1.2-1,0.9-1.7l-6.9-23.1
	c-0.2-0.8-1-1.2-1.7-0.9l-3.6,1.1c-0.8,0.2-1.2,1-0.9,1.7l6.9,23.1C301.4,595.4,302.2,595.7,302.9,595.5z"/>
<path fill="none" stroke="#000000" stroke-miterlimit="10" d="M293.3,598.4l3.6-1.1c0.8-0.2,1.2-1,0.9-1.7l-6.9-23.1
	c-0.2-0.8-1-1.2-1.7-0.9l-3.6,1.1c-0.8,0.2-1.2,1-0.9,1.7l6.9,23.1C291.8,598.2,292.7,598.6,293.3,598.4z"/>
<path fill="none" stroke="#000000" stroke-miterlimit="10" d="M283.7,601.3l3.6-1.1c0.8-0.2,1.2-1,0.9-1.7l-6.9-23.1
	c-0.2-0.8-1-1.2-1.7-0.9l-3.6,1.1c-0.8,0.2-1.2,1-0.9,1.7l6.9,23.1C282.2,601.1,283.1,601.5,283.7,601.3z"/>
<path fill="none" stroke="#000000" stroke-miterlimit="10" d="M274.2,604.1l3.6-1.1c0.8-0.2,1.2-1,0.9-1.7l-6.9-23.1
	c-0.2-0.8-1-1.2-1.7-0.9l-3.6,1.1c-0.8,0.2-1.2,1-0.9,1.7l6.9,23.1C272.6,603.9,273.5,604.3,274.2,604.1z"/>
<path fill="none" stroke="#000000" stroke-miterlimit="10" d="M264.6,607l3.6-1.1c0.8-0.2,1.2-1,0.9-1.7l-6.9-23.1
	c-0.2-0.8-1-1.2-1.7-0.9l-3.6,1.1c-0.8,0.2-1.2,1-0.9,1.7l6.9,23.1C263.1,606.8,263.9,607.2,264.6,607z"/>
<path fill="none" stroke="#000000" stroke-miterlimit="10" d="M255,609.8l3.6-1.1c0.8-0.2,1.2-1,0.9-1.7l-6.9-23.1
	c-0.2-0.8-1-1.2-1.7-0.9l-3.6,1.1c-0.8,0.2-1.2,1-0.9,1.7l6.9,23.1C253.5,609.6,254.3,610,255,609.8z"/>
<path fill="none" stroke="#000000" stroke-miterlimit="10" d="M245.4,612.7l3.6-1.1c0.8-0.2,1.2-1,0.9-1.7l-6.9-23.1
	c-0.2-0.8-1-1.2-1.7-0.9l-3.6,1.1c-0.8,0.2-1.2,1-0.9,1.7l6.9,23.1C243.9,612.5,244.7,612.9,245.4,612.7z"/>
<path fill="none" stroke="#000000" stroke-miterlimit="10" d="M235.8,615.5l3.6-1.1c0.8-0.2,1.2-1,0.9-1.7l-6.9-23.1
	c-0.2-0.8-1-1.2-1.7-0.9l-3.6,1.1c-0.8,0.2-1.2,1-0.9,1.7l6.9,23.1C234.3,615.4,235.2,615.7,235.8,615.5z"/>
<path fill="none" stroke="#000000" stroke-miterlimit="10" d="M226.2,618.4l3.6-1.1c0.8-0.2,1.2-1,0.9-1.7l-6.9-23.1
	c-0.2-0.8-1-1.2-1.7-0.9l-3.6,1.1c-0.8,0.2-1.2,1-0.9,1.7l6.9,23.1C224.7,618.2,225.6,618.6,226.2,618.4z"/>
<path fill="none" stroke="#000000" stroke-miterlimit="10" d="M216.7,621.3l3.6-1.1c0.8-0.2,1.2-1,0.9-1.7l-6.9-23.1
	c-0.2-0.8-1-1.2-1.7-0.9l-3.6,1.1c-0.8,0.2-1.2,1-0.9,1.7l6.9,23.1C215.1,621.1,216,621.5,216.7,621.3z"/>
<path fill="none" stroke="#000000" stroke-miterlimit="10" d="M207.1,624.1l3.6-1.1c0.8-0.2,1.2-1,0.9-1.7l-6.9-23.1
	c-0.2-0.8-1-1.2-1.7-0.9l-3.6,1.1c-0.8,0.2-1.2,1-0.9,1.7l6.9,23.1C205.6,623.9,206.4,624.3,207.1,624.1z"/>
<path fill="none" stroke="#000000" stroke-miterlimit="10" d="M197.5,627l3.6-1.1c0.8-0.2,1.2-1,0.9-1.7l-6.9-23.1
	c-0.2-0.8-1-1.2-1.7-0.9l-3.6,1.1c-0.8,0.2-1.2,1-0.9,1.7l6.9,23.1C196,626.8,196.8,627.2,197.5,627z"/>
<path fill="none" stroke="#000000" stroke-miterlimit="10" d="M540.8,527.2l9.1-2.7c2.3-0.7,3.6-3,2.9-5.3l-6.7-22.4
	c-0.7-2.3-3-3.6-5.3-2.9l-9.1,2.7c-2.3,0.7-3.6,3-2.9,5.3l6.7,22.4C536.1,526.6,538.5,527.9,540.8,527.2z"/>
<path fill="none" stroke="#000000" stroke-miterlimit="10" d="M512.1,535.8l9.1-2.7c2.3-0.7,3.6-3,2.9-5.3l-6.7-22.4
	c-0.7-2.3-3-3.6-5.3-2.9l-9.1,2.7c-2.3,0.7-3.6,3-2.9,5.3l6.7,22.4C507.4,535.2,509.8,536.5,512.1,535.8z"/>
<path fill="none" stroke="#000000" stroke-miterlimit="10" d="M483.3,544.4l9.1-2.7c2.3-0.7,3.6-3,2.9-5.3l-6.7-22.4
	c-0.7-2.3-3-3.6-5.3-2.9l-9.1,2.7c-2.3,0.7-3.6,3-2.9,5.3l6.7,22.4C478.6,543.8,481,545.1,483.3,544.4z"/>
<path fill="none" stroke="#000000" stroke-miterlimit="10" d="M454.6,552.9l9.1-2.7c2.3-0.7,3.6-3,2.9-5.3l-6.7-22.4
	c-0.7-2.3-3-3.6-5.3-2.9l-9.1,2.7c-2.3,0.7-3.6,3-2.9,5.3l6.7,22.4C449.9,552.3,452.3,553.6,454.6,552.9z"/>
<path fill="none" stroke="#000000" stroke-linejoin="round" stroke-miterlimit="10" d="M107.7,696.2l81.5-24.3
	c3.1-5.7,4.8-8.8,7.9-14.6l-24.3-81.5c-5.7-3.1-8.8-4.8-14.6-7.9l-81.5,24.3c-3.1,5.7-4.8,8.8-7.9,14.6l24.3,81.5
	C98.9,691.4,102,693.2,107.7,696.2z"/>
<path fill="none" stroke="#000000" stroke-width="2" stroke-linejoin="round" stroke-miterlimit="10" d="M117.9,671.9l49.4-14.7
	c2.1-3.9,3.3-6.1,5.4-10L158,597.7c-3.9-2.1-6.1-3.3-10-5.4l-49.4,14.7c-2.1,3.9-3.3,6.1-5.4,10l14.8,49.5
	C111.8,668.7,114,669.8,117.9,671.9z"/>
<path fill="none" stroke="#000000" stroke-linejoin="round" stroke-miterlimit="10" d="M403.7,481.2l13.9-25.6
	c-1.3-4.2-2-6.6-3.2-10.8l-25.6-13.9c-4.2,1.3-6.6,2-10.8,3.2l-13.9,25.6c1.3,4.2,2,6.6,3.2,10.8l25.6,13.9
	C397.2,483.1,399.5,482.4,403.7,481.2z"/>
<path fill="none" stroke="#000000" stroke-width="0.5" stroke-linejoin="round" stroke-miterlimit="10" d="M399.6,475.5l11-20.3
	c-0.7-2.5-1.2-3.9-1.9-6.4l-20.3-11c-2.5,0.7-3.9,1.2-6.4,1.9L371,460c0.7,2.5,1.2,3.9,1.9,6.4l20.4,10.9
	C395.8,476.6,397.2,476.2,399.6,475.5z"/>
<path fill="none" stroke="#000000" stroke-linejoin="round" stroke-miterlimit="10" d="M447.6,400.2l13.9-25.6
	c-1.3-4.2-2-6.6-3.2-10.8l-25.6-13.9c-4.2,1.3-6.6,2-10.8,3.2l-13.9,25.6c1.3,4.2,2,6.6,3.2,10.8l25.6,13.9
	C441,402.1,443.4,401.4,447.6,400.2z"/>
<path fill="none" stroke="#000000" stroke-width="0.5" stroke-linejoin="round" stroke-miterlimit="10" d="M443.5,394.4l10.9-20.2
	c-0.7-2.5-1.2-3.9-1.9-6.4l-20.3-11c-2.5,0.7-3.9,1.2-6.4,1.9l-11,20.3c0.7,2.5,1.2,3.9,1.9,6.4l20.3,11
	C439.6,395.6,441,395.1,443.5,394.4z"/>
<path fill="none" stroke="#000000" stroke-miterlimit="10" d="M336.1,404.7l3.4,1.8c0.6,0.3,1.5,0.1,1.9-0.6l24.3-45
	c0.3-0.6,0.1-1.5-0.6-1.9l-3.4-1.8c-0.6-0.3-1.5-0.1-1.9,0.6l-24.3,45C335.1,403.5,335.4,404.4,336.1,404.7z"/>
<path fill="none" stroke="#000000" stroke-linejoin="round" stroke-miterlimit="10" d="M341.5,447.5l13.9-25.6
	c-1.3-4.2-2-6.6-3.2-10.8l-25.6-13.9c-4.2,1.3-6.6,2-10.8,3.2l-13.9,25.6c1.3,4.2,2,6.6,3.2,10.8l25.6,13.9
	C335,449.5,337.3,448.8,341.5,447.5z"/>
<path fill="none" stroke="#000000" stroke-width="0.5" stroke-linejoin="round" stroke-miterlimit="10" d="M337.4,441.9l11-20.3
	c-0.7-2.5-1.2-3.9-1.9-6.4l-20.3-11c-2.5,0.7-3.9,1.2-6.4,1.9l-11,20.3c0.7,2.5,1.2,3.9,1.9,6.4l20.4,10.9
	C333.6,443,335,442.6,337.4,441.9z"/>
<path fill="none" stroke="#000000" stroke-linejoin="round" stroke-miterlimit="10" d="M385.4,366.5l13.9-25.6
	c-1.3-4.2-2-6.6-3.2-10.8l-25.6-13.9c-4.2,1.3-6.6,2-10.8,3.2l-13.9,25.6c1.3,4.2,2,6.6,3.2,10.8l25.6,13.9
	C378.8,368.5,381.2,367.8,385.4,366.5z"/>
<path fill="none" stroke="#000000" stroke-width="0.5" stroke-linejoin="round" stroke-miterlimit="10" d="M381.3,360.8l10.9-20.2
	c-0.7-2.5-1.2-3.9-1.9-6.4l-20.3-11c-2.5,0.7-3.9,1.2-6.4,1.9l-11,20.3c0.7,2.5,1.2,3.9,1.9,6.4l20.3,11
	C377.4,361.9,378.8,361.5,381.3,360.8z"/>
</svg>
