<?xml version="1.0" encoding="utf-8"?>
<!-- Generator: Adobe Illustrator 27.8.0, SVG Export Plug-In . SVG Version: 6.00 Build 0)  -->
<svg version="1.1" baseProfile="tiny" id="Layer_1" xmlns="http://www.w3.org/2000/svg" xmlns:xlink="http://www.w3.org/1999/xlink"
	 x="0px" y="0px" viewBox="0 0 64 64" overflow="visible" xml:space="preserve">
<path fill="#3C4B37" d="M41.3,24.8h-2v-1.4c0-0.7-0.1-1.4-0.4-2.1l-1-2.4L34.8,20l-1.9-3.1L29,18.2c-2.9,0.9-4.8,3.6-4.8,6.6h-2
	c0-3.9,2.5-7.3,6.2-8.5l5.4-1.8l1.9,3l3.5-1.3l1.7,4.2c0.4,0.9,0.5,1.9,0.5,2.9V24.8z"/>
<path fill="#3C4B37" d="M43.4,26.5"/>
<path fill="#3C4B37" d="M27.4,42.4l1.9,0.5c-0.3,0.9-1,1.7-1.9,2l-4.8,1.7c-1.4,0.5-2.5,1.5-3.2,2.9h-2.2c0.8-2.2,2.5-4,4.7-4.8
	l4.8-1.7C27,42.9,27.3,42.7,27.4,42.4z"/>
<path fill="#3C4B37" d="M20.2,30.2c0-1.6,1.3-3,3-3h1v5c0,0.8,0.1,1.6,0.4,2.4c-0.5,0.4-1.2,0.9-1.7,1.3C22.5,35,22.3,34,22.2,33
	C21,32.6,20.2,31.5,20.2,30.2z"/>
<path fill="#3C4B37" d="M40.7,35.6c-0.6-0.5-1.3-1-1.7-1.3c0.2-0.7,0.3-1.4,0.3-2.1v-5h1c1.6,0,3,1.3,3,3c0,1.3-0.8,2.4-2,2.8
	C41.2,33.9,41,34.8,40.7,35.6z"/>
<path fill="#3C4B37" d="M46.7,49.5h-2.2c-0.6-1.3-1.8-2.4-3.2-2.9l-4.8-1.7c-0.9-0.3-1.6-1.1-1.9-2l1.9-0.5c0.1,0.3,0.3,0.6,0.7,0.7
	l4.8,1.7C44.3,45.5,46,47.3,46.7,49.5z"/>
<path fill="#7AFFAC" d="M40.4,36.9c-0.3,0.8-1,2.2-2.5,3.4c-2.4,2-5.1,2-5.9,1.9c-0.8,0-3.5,0-5.9-1.9c-1.5-1.2-2.2-2.6-2.5-3.4
	c0.5-0.4,1.1-0.8,1.6-1.2l4,1.2h5.6l4-1.2C39.3,36.1,39.8,36.5,40.4,36.9z"/>
<path d="M32,34.3C32,34.3,32,34.3,32,34.3C32,34.3,32,34.3,32,34.3C32,34.3,32,34.3,32,34.3z"/>
</svg>
