<?xml version="1.0" encoding="utf-8"?>
<!-- Generator: Adobe Illustrator 27.8.0, SVG Export Plug-In . SVG Version: 6.00 Build 0)  -->
<svg version="1.1" baseProfile="tiny" id="Layer_1" xmlns="http://www.w3.org/2000/svg" xmlns:xlink="http://www.w3.org/1999/xlink"
	 x="0px" y="0px" viewBox="0 0 64 64" overflow="visible" xml:space="preserve">
<path fill="#3C4B37" d="M41.3,24.8h-2v-1.4c0-0.7-0.1-1.4-0.4-2.1l-1-2.4L34.8,20l-1.9-3.1L29,18.2c-2.9,0.9-4.8,3.6-4.8,6.6h-2
	c0-3.9,2.5-7.3,6.2-8.5l5.4-1.8l1.9,3l3.5-1.3l1.7,4.2c0.4,0.9,0.5,1.9,0.5,2.9V24.8z"/>
<path fill="#3C4B37" d="M46.7,49.5h-2.2c-0.6-1.3-1.8-2.4-3.2-2.9l-4.8-1.7c-1.2-0.4-2-1.6-2-2.9v-0.7c-0.9,0.3-1.8,0.4-2.8,0.4
	c-0.8,0-1.6-0.1-2.3-0.3V42c0,1.3-0.8,2.5-2,2.9l-4.8,1.7c-1.4,0.5-2.5,1.5-3.2,2.9h-2.2c0.8-2.2,2.5-4,4.7-4.8l4.8-1.7
	c0.4-0.2,0.7-0.6,0.7-1v-1.3c-2.9-1.5-4.9-4.4-5.2-7.7c-1.2-0.4-2-1.5-2-2.8c0-1.6,1.3-3,3-3h1v5c0,4.2,3.4,7.6,7.6,7.6
	c4.2,0,7.6-3.4,7.6-7.6v-5h1c1.6,0,3,1.3,3,3c0,1.3-0.8,2.4-2,2.8c-0.3,3.2-2.1,5.9-4.7,7.5V42c0,0.5,0.3,0.9,0.7,1l4.8,1.7
	C44.3,45.5,46,47.3,46.7,49.5z"/>
<path fill="#7AFFAC" d="M29.4,30.6L29.4,30.6c0.5,0.2,0.8,0.9,0.5,1.4l-1.1,2.4l-2.4-1.1c-0.5-0.2-0.8-0.9-0.5-1.4l0,0
	c0.2-0.5,0.9-0.8,1.4-0.5l0.5,0.2l0.2-0.5C28.3,30.6,28.9,30.4,29.4,30.6z"/>
<path fill="#7AFFAC" d="M36.5,30.5c-0.2,0.9-0.6,2.3-1.8,3.9c-0.9,1.2-1.9,2-2.7,2.6L36.5,30.5z"/>
<path fill="#7AFFAC" d="M38.1,31.4c-0.2,0.9-0.6,2.3-1.8,3.9c-0.9,1.2-1.9,2-2.7,2.6L38.1,31.4z"/>
<path fill="#7AFFAC" d="M35,29.5c-0.2,0.9-0.6,2.3-1.8,3.9c-0.9,1.2-1.9,2-2.7,2.6L35,29.5z"/>
</svg>
