<?xml version="1.0" encoding="utf-8"?>
<!-- Generator: Adobe Illustrator 27.8.0, SVG Export Plug-In . SVG Version: 6.00 Build 0)  -->
<svg version="1.1" baseProfile="tiny" id="Layer_1" xmlns="http://www.w3.org/2000/svg" xmlns:xlink="http://www.w3.org/1999/xlink"
	 x="0px" y="0px" viewBox="0 0 196.6 3" overflow="visible" xml:space="preserve">
<line id="opacity:30" fill="none" stroke="#8DCCFF" stroke-linecap="round" stroke-miterlimit="10" x1="30.4" y1="0.6" x2="164.9" y2="0.6"/>
<line id="opacity:50" fill="none" stroke="#8DCCFF" stroke-linecap="round" stroke-miterlimit="10" x1="169.1" y1="0.6" x2="173.6" y2="0.6"/>
<path id="opacity:70_00000005252827087348641670000009782865738544099246_" fill="#FFFFFF" d="M4.4,2.6C4.3,2.5,4.2,2.3,4.2,2.1V0.2
	c0,0,0,0,0,0c0,0,0,0,0,0h0.4c0,0,0,0,0,0c0,0,0,0,0,0v2c0,0.1,0,0.2,0.1,0.3C4.8,2.4,4.9,2.5,5,2.5s0.2,0,0.2-0.1
	c0.1-0.1,0.1-0.1,0.1-0.3v-2c0,0,0,0,0,0c0,0,0,0,0,0h0.4c0,0,0,0,0,0c0,0,0,0,0,0v1.9c0,0.2-0.1,0.4-0.2,0.6S5.2,2.9,5,2.9
	C4.7,2.9,4.6,2.8,4.4,2.6z"/>
<path id="opacity:70_00000111160313130160818860000005301098106067779495_" fill="#FFFFFF" d="M6.4,2.7C6.3,2.5,6.2,2.4,6.2,2.2V2.1
	c0,0,0,0,0,0c0,0,0,0,0,0h0.4c0,0,0,0,0,0c0,0,0,0,0,0v0.1c0,0.1,0,0.2,0.1,0.2c0.1,0.1,0.1,0.1,0.2,0.1c0.1,0,0.1,0,0.2-0.1
	c0.1-0.1,0.1-0.1,0.1-0.2c0-0.1,0-0.1,0-0.2S7.1,1.9,7,1.8C7,1.8,6.9,1.7,6.8,1.6C6.7,1.6,6.6,1.5,6.5,1.4C6.4,1.3,6.3,1.2,6.3,1.1
	C6.2,1,6.2,0.9,6.2,0.8c0-0.2,0.1-0.4,0.2-0.5c0.1-0.1,0.3-0.2,0.5-0.2c0.2,0,0.4,0.1,0.5,0.2c0.1,0.1,0.2,0.3,0.2,0.5v0.1
	c0,0,0,0,0,0c0,0,0,0,0,0H7.2c0,0,0,0,0,0c0,0,0,0,0,0V0.8c0-0.1,0-0.2-0.1-0.2C7.1,0.5,7,0.5,6.9,0.5c-0.1,0-0.1,0-0.2,0.1
	c0,0.1-0.1,0.1-0.1,0.2c0,0.1,0,0.2,0.1,0.2C6.8,1.1,6.9,1.2,7,1.3c0.2,0.1,0.3,0.2,0.4,0.3s0.1,0.2,0.2,0.2S7.6,2,7.6,2.1
	c0,0.2-0.1,0.4-0.2,0.5C7.3,2.8,7.1,2.9,6.9,2.9C6.7,2.9,6.5,2.8,6.4,2.7z"/>
<path id="opacity:70_00000129916038228290931660000013078337837853537212_" fill="#FFFFFF" d="M9.5,0.5C9.5,0.5,9.5,0.5,9.5,0.5
	l-0.9,0c0,0,0,0,0,0v0.7c0,0,0,0,0,0h0.5c0,0,0,0,0,0c0,0,0,0,0,0v0.3c0,0,0,0,0,0c0,0,0,0,0,0H8.6c0,0,0,0,0,0v0.7c0,0,0,0,0,0h0.8
	c0,0,0,0,0,0c0,0,0,0,0,0v0.3c0,0,0,0,0,0c0,0,0,0,0,0H8.2c0,0,0,0,0,0c0,0,0,0,0,0V0.2c0,0,0,0,0,0c0,0,0,0,0,0h1.3c0,0,0,0,0,0
	c0,0,0,0,0,0L9.5,0.5C9.5,0.5,9.5,0.5,9.5,0.5z"/>
<path id="opacity:70_00000132805505350843479820000009599696528796791941_" fill="#FFFFFF" d="M11,2.8l-0.3-1.1c0,0,0,0,0,0h-0.2
	c0,0,0,0,0,0v1.1c0,0,0,0,0,0s0,0,0,0h-0.4c0,0,0,0,0,0c0,0,0,0,0,0V0.2c0,0,0,0,0,0c0,0,0,0,0,0h0.7c0.1,0,0.3,0,0.4,0.1
	c0.1,0.1,0.2,0.2,0.2,0.3c0.1,0.1,0.1,0.3,0.1,0.4c0,0.2,0,0.3-0.1,0.4s-0.1,0.2-0.3,0.3c0,0,0,0,0,0l0.4,1.2c0,0,0,0,0,0
	c0,0,0,0,0,0L11,2.8C11.1,2.8,11,2.8,11,2.8z M10.5,0.5v0.8c0,0,0,0,0,0h0.2c0.1,0,0.2,0,0.2-0.1C11,1.1,11,1,11,0.9
	c0-0.1,0-0.2-0.1-0.3c-0.1-0.1-0.1-0.1-0.2-0.1L10.5,0.5C10.5,0.5,10.5,0.5,10.5,0.5z"/>
<path id="opacity:70_00000036938222043258772250000007532640036462751651_" fill="#FFFFFF" d="M13,2.8C13,2.8,13,2.8,13,2.8l0-2.6
	c0,0,0,0,0,0c0,0,0,0,0,0h0.4c0,0,0,0,0,0c0,0,0,0,0,0v2.3c0,0,0,0,0,0h0.8c0,0,0,0,0,0c0,0,0,0,0,0v0.3c0,0,0,0,0,0c0,0,0,0,0,0
	L13,2.8C13,2.8,13,2.8,13,2.8z"/>
<path id="opacity:70_00000152983626118429381340000000526901569100662950_" fill="#FFFFFF" d="M14.9,2.7c-0.1-0.1-0.2-0.3-0.2-0.5
	V0.8c0-0.2,0.1-0.4,0.2-0.5c0.1-0.1,0.3-0.2,0.5-0.2s0.4,0.1,0.5,0.2c0.1,0.1,0.2,0.3,0.2,0.5v1.3c0,0.2-0.1,0.4-0.2,0.5
	c-0.1,0.1-0.3,0.2-0.5,0.2S15,2.8,14.9,2.7z M15.6,2.4c0.1-0.1,0.1-0.1,0.1-0.2V0.8c0-0.1,0-0.2-0.1-0.2c-0.1-0.1-0.1-0.1-0.2-0.1
	s-0.2,0-0.2,0.1s-0.1,0.1-0.1,0.2v1.3c0,0.1,0,0.2,0.1,0.2s0.1,0.1,0.2,0.1S15.6,2.4,15.6,2.4z"/>
<path id="opacity:70" fill="#FFFFFF" d="M16.9,2.7c-0.1-0.1-0.2-0.3-0.2-0.5V0.8c0-0.2,0.1-0.4,0.2-0.5c0.1-0.1,0.3-0.2,0.5-0.2
	s0.4,0.1,0.5,0.2c0.1,0.1,0.2,0.3,0.2,0.5v0.2c0,0,0,0,0,0c0,0,0,0,0,0h-0.4c0,0,0,0,0,0c0,0,0,0,0,0V0.8c0-0.1,0-0.2-0.1-0.2
	s-0.1-0.1-0.2-0.1s-0.2,0-0.2,0.1c-0.1,0.1-0.1,0.1-0.1,0.2v1.4c0,0.1,0,0.2,0.1,0.2c0.1,0.1,0.1,0.1,0.2,0.1s0.2,0,0.2-0.1
	s0.1-0.1,0.1-0.2V1.8c0,0,0,0,0,0h-0.2c0,0,0,0,0,0c0,0,0,0,0,0V1.4c0,0,0,0,0,0s0,0,0,0h0.7c0,0,0,0,0,0c0,0,0,0,0,0v0.7
	c0,0.2-0.1,0.4-0.2,0.5c-0.1,0.1-0.3,0.2-0.5,0.2S17,2.8,16.9,2.7z"/>
<path id="opacity:50_00000097472621379945154580000002583511172430718620_" fill="#FFFFFF" d="M178.4,2.8l-0.1-0.4c0,0,0,0,0,0h-0.6
	c0,0,0,0,0,0l-0.1,0.4c0,0,0,0,0,0h-0.4c0,0-0.1,0,0-0.1l0.6-2.6c0,0,0,0,0.1,0h0.4c0,0,0,0,0,0l0.6,2.6v0c0,0,0,0,0,0L178.4,2.8
	C178.5,2.8,178.4,2.8,178.4,2.8z M177.9,2h0.4c0,0,0,0,0,0l-0.2-1.2c0,0,0,0,0,0c0,0,0,0,0,0L177.9,2C177.8,2,177.8,2,177.9,2z"/>
<path id="opacity:50_00000160896206741535000280000011138781496073244814_" fill="#FFFFFF" d="M180.5,0.2c0.1,0.1,0.2,0.2,0.2,0.3
	s0.1,0.3,0.1,0.4c0,0.2-0.1,0.4-0.2,0.6s-0.3,0.2-0.5,0.2h-0.3c0,0,0,0,0,0v1.1c0,0,0,0,0,0s0,0,0,0h-0.4c0,0,0,0,0,0c0,0,0,0,0,0
	V0.2c0,0,0,0,0,0c0,0,0,0,0,0h0.7C180.3,0.1,180.4,0.2,180.5,0.2z M180.3,1.2c0.1-0.1,0.1-0.2,0.1-0.3c0-0.1,0-0.2-0.1-0.3
	c-0.1-0.1-0.1-0.1-0.2-0.1h-0.2c0,0,0,0,0,0v0.8c0,0,0,0,0,0h0.2C180.1,1.3,180.2,1.3,180.3,1.2z"/>
<path id="opacity:50_00000047757420982219053450000011506613195199048067_" fill="#FFFFFF" d="M182.6,0.5
	C182.6,0.5,182.6,0.5,182.6,0.5l-0.9,0c0,0,0,0,0,0v0.7c0,0,0,0,0,0h0.5c0,0,0,0,0,0c0,0,0,0,0,0v0.3c0,0,0,0,0,0c0,0,0,0,0,0h-0.5
	c0,0,0,0,0,0v0.7c0,0,0,0,0,0h0.8c0,0,0,0,0,0c0,0,0,0,0,0v0.3c0,0,0,0,0,0c0,0,0,0,0,0h-1.3c0,0,0,0,0,0c0,0,0,0,0,0V0.2
	c0,0,0,0,0,0c0,0,0,0,0,0h1.3c0,0,0,0,0,0c0,0,0,0,0,0L182.6,0.5C182.7,0.5,182.7,0.5,182.6,0.5z"/>
<path id="opacity:50_00000050642042363758870360000007438050460942566057_" fill="#FFFFFF" d="M183.4,2.6c-0.1-0.1-0.2-0.3-0.2-0.6
	V0.2c0,0,0,0,0,0c0,0,0,0,0,0h0.4c0,0,0,0,0,0c0,0,0,0,0,0v2c0,0.1,0,0.2,0.1,0.3c0.1,0.1,0.1,0.1,0.2,0.1s0.2,0,0.2-0.1
	c0.1-0.1,0.1-0.1,0.1-0.3v-2c0,0,0,0,0,0c0,0,0,0,0,0h0.4c0,0,0,0,0,0c0,0,0,0,0,0v1.9c0,0.2-0.1,0.4-0.2,0.6s-0.3,0.2-0.5,0.2
	C183.7,2.9,183.5,2.8,183.4,2.6z"/>
<path id="opacity:50_00000172402553199163598470000002799025210918133632_" fill="#FFFFFF" d="M185.1,1.8
	C185.1,1.8,185.1,1.8,185.1,1.8l0-0.3c0,0,0,0,0,0c0,0,0,0,0,0h1c0,0,0,0,0,0s0,0,0,0v0.3c0,0,0,0,0,0c0,0,0,0,0,0L185.1,1.8
	C185.2,1.9,185.1,1.8,185.1,1.8z"/>
<path id="opacity:50_00000163780061045691787020000012872737721013877943_" fill="#FFFFFF" d="M188,2c0,0.1,0,0.1,0,0.3
	c0,0.2-0.1,0.3-0.2,0.5c-0.1,0.1-0.3,0.2-0.5,0.2c-0.2,0-0.3,0-0.5-0.1c-0.1-0.1-0.2-0.2-0.2-0.4c0-0.1,0-0.2,0-0.2l0-1.3
	c0-0.2,0.1-0.4,0.2-0.5c0.1-0.1,0.3-0.2,0.5-0.2c0.2,0,0.4,0.1,0.5,0.2c0.1,0.1,0.2,0.3,0.2,0.5v0.1c0,0,0,0,0,0s0,0,0,0h-0.4
	c0,0,0,0,0,0s0,0,0,0V0.8c0-0.1,0-0.2-0.1-0.2c0-0.1-0.1-0.1-0.2-0.1c-0.1,0-0.1,0-0.2,0.1s-0.1,0.1-0.1,0.2v0.4c0,0,0,0,0,0
	c0,0,0,0,0,0c0.1-0.1,0.2-0.1,0.3-0.1c0.2,0,0.3,0.1,0.4,0.2c0.1,0.1,0.2,0.3,0.2,0.5C188,1.8,188,1.9,188,2z M187.6,2
	c0-0.1,0-0.2,0-0.3c0-0.1-0.1-0.2-0.2-0.2c-0.1,0-0.1,0-0.2,0.1c0,0-0.1,0.1-0.1,0.2c0,0.1,0,0.2,0,0.3c0,0.1,0,0.2,0,0.3
	c0,0.1,0,0.1,0.1,0.2c0,0,0.1,0.1,0.2,0.1s0.1,0,0.2-0.1c0,0,0.1-0.1,0.1-0.2C187.6,2.1,187.6,2,187.6,2z"/>
<path id="opacity:50_00000140711488837155667180000002190402770509800857_" fill="#FFFFFF" d="M188.7,0.1h0.4c0,0,0,0,0,0
	c0,0,0,0,0,0v2.6c0,0,0,0,0,0c0,0,0,0,0,0h-0.4c0,0,0,0,0,0c0,0,0,0,0,0V0.6c0,0,0,0,0,0s0,0,0,0l-0.3,0.1h0c0,0,0,0,0,0l0-0.3
	c0,0,0,0,0-0.1L188.7,0.1C188.7,0.1,188.7,0.1,188.7,0.1z"/>
<path id="opacity:50_00000022527337513645564790000002622497444271558575_" fill="#FFFFFF" d="M191,2c0,0.1,0,0.2,0,0.3
	c0,0.2-0.1,0.3-0.2,0.4c-0.1,0.1-0.3,0.1-0.4,0.1c-0.2,0-0.4-0.1-0.5-0.2c-0.1-0.1-0.2-0.2-0.2-0.4c0-0.1,0-0.1,0-0.2c0,0,0,0,0,0
	h0.4c0,0,0,0,0,0c0,0.1,0,0.2,0,0.2c0,0.1,0,0.1,0.1,0.2c0,0,0.1,0.1,0.2,0.1c0.1,0,0.1,0,0.2-0.1s0.1-0.1,0.1-0.2
	c0-0.1,0-0.2,0-0.3c0-0.1,0-0.2,0-0.3c0-0.1,0-0.1-0.1-0.2c0,0-0.1-0.1-0.1-0.1c0,0-0.1,0-0.1,0c0,0,0,0,0,0c0,0,0,0,0,0L190,1.2
	c0,0,0,0,0,0c0,0,0,0,0,0l0.5-0.7c0,0,0,0,0,0c0,0,0,0,0,0h-0.7c0,0,0,0,0,0s0,0,0,0V0.2c0,0,0,0,0,0c0,0,0,0,0,0h1.3c0,0,0,0,0,0
	c0,0,0,0,0,0v0.3c0,0,0,0,0,0.1l-0.4,0.6c0,0,0,0,0,0c0.1,0,0.2,0.1,0.3,0.2c0.1,0.1,0.1,0.2,0.2,0.3C191,1.7,191,1.9,191,2z"/>
<path id="opacity:50_00000148631160646168230300000012304693952023649458_" fill="#FFFFFF" d="M192.6,1.4c0.1,0,0.1,0.1,0.2,0.2
	c0.1,0.1,0.1,0.3,0.1,0.4c0,0.1,0,0.3-0.1,0.4c-0.1,0.1-0.1,0.2-0.2,0.3c-0.1,0.1-0.2,0.1-0.4,0.1c-0.1,0-0.3,0-0.4-0.1
	s-0.2-0.2-0.2-0.3c0-0.1-0.1-0.2-0.1-0.4c0-0.2,0-0.3,0.1-0.4c0-0.1,0.1-0.2,0.2-0.2c0,0,0,0,0,0c-0.1-0.1-0.2-0.1-0.2-0.2
	c-0.1-0.1-0.1-0.2-0.1-0.4c0-0.1,0-0.3,0.1-0.4c0.1-0.1,0.1-0.2,0.2-0.3c0.1-0.1,0.2-0.1,0.4-0.1c0.1,0,0.3,0,0.4,0.1
	c0.1,0.1,0.2,0.1,0.2,0.3c0.1,0.1,0.1,0.2,0.1,0.4c0,0.1,0,0.3-0.1,0.4C192.7,1.3,192.7,1.3,192.6,1.4
	C192.6,1.4,192.6,1.4,192.6,1.4z M191.9,0.7c0,0,0,0.1,0,0.2c0,0.1,0,0.2,0,0.2c0,0.1,0,0.1,0.1,0.1c0,0,0.1,0,0.1,0
	c0.1,0,0.1,0,0.1,0s0.1-0.1,0.1-0.1c0-0.1,0-0.1,0-0.2c0-0.1,0-0.2,0-0.2c0-0.1,0-0.1-0.1-0.1c0,0-0.1,0-0.1,0c0,0-0.1,0-0.1,0
	C192,0.5,192,0.6,191.9,0.7L191.9,0.7z M192.4,2c0-0.1,0-0.2,0-0.3c0-0.1,0-0.1-0.1-0.1c0,0-0.1-0.1-0.1-0.1s-0.1,0-0.1,0.1
	c0,0-0.1,0.1-0.1,0.2c0,0.1,0,0.1,0,0.2c0,0.1,0,0.2,0,0.2c0,0.1,0,0.1,0.1,0.2c0,0,0.1,0.1,0.1,0.1c0.1,0,0.1,0,0.2-0.1
	s0.1-0.1,0.1-0.2C192.4,2.2,192.4,2.1,192.4,2z"/>
<path fill="#FF4F72" d="M194.7,0.1h-0.2c-0.2,0-0.3,0.1-0.3,0.3v2.1c0,0.2,0.1,0.3,0.3,0.3h0.2c0.2,0,0.3-0.1,0.3-0.3V0.4
	C195,0.2,194.9,0.1,194.7,0.1z"/>
<circle fill="#FFFFFF" cx="196.3" cy="2.5" r="0.3"/>
<circle fill="#FFFFFF" cx="196.3" cy="0.4" r="0.3"/>
<circle fill="#FFFFFF" cx="2" cy="2.5" r="0.3"/>
<circle fill="#FFFFFF" cx="2" cy="0.4" r="0.3"/>
<circle fill="#FFFFFF" cx="23.6" cy="0.4" r="0.3"/>
<circle fill="#FFFFFF" cx="25.5" cy="0.4" r="0.3"/>
<circle fill="#FFFFFF" cx="27.3" cy="0.4" r="0.3"/>
<line id="opacity:30_00000092436725067127926980000015811217501312615596_" fill="none" stroke="#FFFFFF" stroke-width="0.5" stroke-linecap="round" stroke-miterlimit="10" x1="20.9" y1="2.7" x2="20.9" y2="0.2"/>
<line fill="none" stroke="#FFFFFF" stroke-width="0.5" stroke-linecap="round" stroke-miterlimit="10" x1="0.2" y1="2.7" x2="0.2" y2="0.2"/>
</svg>
