<?xml version="1.0" encoding="utf-8"?>
<!-- Generator: Adobe Illustrator 27.2.0, SVG Export Plug-In . SVG Version: 6.00 Build 0)  -->
<svg version="1.1" baseProfile="tiny" id="Layer_1" xmlns="http://www.w3.org/2000/svg" xmlns:xlink="http://www.w3.org/1999/xlink"
	 x="0px" y="0px" viewBox="0 0 18.2 18.2" overflow="visible" xml:space="preserve">
<path fill="#A0DDFF" d="M11,0.6L11,0.6c0,0.2,0.2,0.4,0.4,0.5c2.7,0.8,4.9,3,5.7,5.7c0.1,0.2,0.3,0.4,0.5,0.4l0,0
	c0.3,0,0.6-0.3,0.5-0.7c-0.9-3.1-3.3-5.5-6.4-6.4C11.4,0,11,0.3,11,0.6z"/>
<path fill="#A0DDFF" d="M0.6,7.2L0.6,7.2c0.3,0,0.5-0.2,0.5-0.4c0.8-2.7,3-4.9,5.7-5.7c0.2,0,0.4-0.2,0.4-0.5l0,0
	c0-0.3-0.3-0.6-0.7-0.5C3.4,1,1,3.4,0.1,6.5C0,6.8,0.3,7.2,0.6,7.2z"/>
<path fill="#A0DDFF" d="M17.1,11.4c-0.8,2.7-3,4.9-5.7,5.7c-0.2,0.1-0.4,0.3-0.4,0.5l0,0c0,0.3,0.3,0.6,0.7,0.5
	c3.1-0.9,5.5-3.3,6.4-6.4c0.1-0.3-0.2-0.7-0.5-0.7l0,0C17.3,11,17.1,11.2,17.1,11.4z"/>
<path fill="#A0DDFF" d="M0.6,11L0.6,11c-0.3,0-0.6,0.3-0.5,0.7c0.9,3.1,3.3,5.5,6.4,6.4c0.3,0.1,0.7-0.2,0.7-0.5l0,0
	c0-0.2-0.2-0.4-0.4-0.5c-2.7-0.8-4.9-3-5.7-5.7C1.1,11.2,0.9,11,0.6,11z"/>
<path d="M17.6,7.3c-0.2,0-0.5-0.2-0.6-0.5c-0.8-2.7-3-4.9-5.6-5.6c-0.2-0.1-0.5-0.3-0.5-0.6c0-0.2,0.1-0.4,0.3-0.5
	C11.4,0,11.6,0,11.8,0c3.1,0.9,5.6,3.3,6.5,6.5c0.1,0.2,0,0.4-0.1,0.6C18,7.2,17.8,7.3,17.6,7.3z M11.6,0.2c-0.1,0-0.2,0-0.3,0.1
	c-0.1,0.1-0.2,0.2-0.2,0.3c0,0.2,0.2,0.3,0.3,0.4c2.7,0.8,4.9,3,5.8,5.8c0.1,0.2,0.2,0.3,0.4,0.3c0.1,0,0.2-0.1,0.3-0.2
	C18,6.8,18.1,6.7,18,6.5C17.1,3.5,14.8,1.1,11.6,0.2C11.7,0.2,11.6,0.2,11.6,0.2z"/>
<path d="M0.6,7.3C0.4,7.3,0.3,7.2,0.1,7C0,6.9,0,6.7,0,6.5C0.9,3.4,3.4,0.9,6.5,0C6.7,0,6.9,0,7.1,0.1c0.2,0.1,0.2,0.3,0.2,0.5
	c0,0.4-0.2,0.6-0.5,0.6C4.2,2,2,4.2,1.2,6.8C1.2,7.1,1,7.3,0.6,7.3z M6.7,0.2c0,0-0.1,0-0.1,0C3.5,1.1,1.1,3.5,0.2,6.5
	c0,0.1,0,0.3,0.1,0.4C0.4,7,0.5,7.1,0.6,7.1C0.9,7.1,1,7,1,6.8l0,0C1.8,4,4,1.8,6.8,1l0,0C7,1,7.1,0.9,7.1,0.6
	c0-0.1-0.1-0.2-0.2-0.3C6.9,0.2,6.8,0.2,6.7,0.2z"/>
<path d="M11.6,18.2c-0.1,0-0.3,0-0.4-0.1c-0.2-0.1-0.2-0.3-0.2-0.5c0-0.3,0.2-0.5,0.5-0.6c2.7-0.8,4.8-3,5.6-5.6
	c0-0.2,0.2-0.5,0.6-0.5c0.2,0,0.4,0.1,0.5,0.3s0.2,0.4,0.1,0.5c-0.9,3.1-3.3,5.6-6.5,6.5C11.7,18.2,11.6,18.2,11.6,18.2z M17.6,11.1
	c-0.2,0-0.4,0.2-0.4,0.3l0,0c-0.8,2.7-3,5-5.8,5.8c-0.2,0.1-0.3,0.2-0.3,0.4c0,0.1,0.1,0.2,0.2,0.3c0.1,0.1,0.3,0.1,0.4,0.1
	c3.1-0.9,5.4-3.3,6.3-6.3c0-0.1,0-0.3-0.1-0.4S17.7,11.1,17.6,11.1z"/>
<path d="M6.6,18.2c-0.1,0-0.1,0-0.2,0c-3.1-0.9-5.6-3.3-6.5-6.5c-0.1-0.2,0-0.4,0.1-0.6c0.1-0.2,0.3-0.2,0.5-0.2
	c0.4,0,0.6,0.2,0.6,0.5c0.8,2.7,3,4.8,5.6,5.6c0.2,0.1,0.5,0.3,0.5,0.6c0,0.2-0.1,0.4-0.3,0.5C6.9,18.2,6.8,18.2,6.6,18.2z
	 M0.6,11.1c-0.1,0-0.2,0.1-0.3,0.2c-0.1,0.1-0.1,0.3-0.1,0.4c0.9,3.1,3.3,5.4,6.3,6.3c0.1,0,0.3,0,0.4-0.1c0.1-0.1,0.2-0.2,0.2-0.3
	c0-0.2-0.2-0.3-0.3-0.4c-2.7-0.8-4.9-3-5.8-5.8l0,0C1,11.3,0.9,11.1,0.6,11.1z"/>
</svg>
