<?xml version="1.0" encoding="utf-8"?>
<!-- Generator: Adobe Illustrator 27.8.0, SVG Export Plug-In . SVG Version: 6.00 Build 0)  -->
<svg version="1.1" baseProfile="tiny" id="Layer_1" xmlns="http://www.w3.org/2000/svg" xmlns:xlink="http://www.w3.org/1999/xlink"
	 x="0px" y="0px" viewBox="0 0 64 64" overflow="visible" xml:space="preserve">
<path fill="#7AFFAC" d="M34,21.3c0,0.2,0,0.4,0,0.5l-7.1,2.4c-0.8,0.3-1.7,0.4-2.5,0.4h-2c0-3.9,2.5-7.3,6.2-8.5l5.4-1.8l1.8,2.8
	C34.7,18.2,34,19.6,34,21.3z"/>
<path fill="#7AFFAC" d="M42.1,22.7c-0.5,0.8-1.4,1.4-2.5,1.4c-1.6,0-2.9-1.3-2.9-2.9c0-1.1,0.7-2.1,1.6-2.6l1.3-1.3h-0.1
	c-2.1,0-3.9,1.7-3.9,3.9c0,2.1,1.7,3.9,3.9,3.9c2.1,0,3.9-1.7,3.9-3.8L42.1,22.7z"/>
<path fill="#7AFFAC" d="M50.5,14.4l-0.8,0.8l-3.9-3.9l0.8-0.8l1.3,1.3l0.3-0.3c0.4-0.4,0.6-0.8,0.8-1.3c0.1-0.2,0.2-0.4,0.4-0.6
	c0.6-0.6,1.5-0.6,2.1,0c0.6,0.6,0.6,1.5,0,2.1c-0.2,0.2-0.4,0.3-0.6,0.4c-0.5,0.2-1,0.4-1.3,0.8l-0.3,0.3L50.5,14.4z"/>
<path fill="#7AFFAC" d="M47.9,15.1l-5.4,5.4c-0.4,0.4-0.9,0.4-1.3,0v0l-1,1c-0.2,0.2-0.5,0.2-0.7,0v0c-0.2-0.2-0.2-0.5,0-0.7l1-1
	l0,0c-0.4-0.4-0.4-0.9,0-1.3l5.4-5.4L47.9,15.1z"/>
<path fill="#3C4B37" d="M46.9,49.4h-2.2c-0.6-1.3-1.8-2.4-3.2-2.9l-4.8-1.7c-1.2-0.4-2-1.6-2-2.9v-0.7c-0.9,0.3-1.9,0.4-2.8,0.4
	c-0.8,0-1.6-0.1-2.3-0.3v0.6c0,1.3-0.8,2.5-2,2.9l-4.8,1.7c-1.4,0.5-2.5,1.5-3.2,2.9h-2.2c0.8-2.2,2.5-4,4.7-4.8l4.8-1.7
	c0.4-0.2,0.7-0.6,0.7-1v-1.3c-2.9-1.5-4.9-4.4-5.2-7.7c-1.2-0.4-2-1.5-2-2.8c0-1.6,1.3-3,3-3h1c0.6,0,1.3-0.1,1.9-0.3l7.9-2.7
	l1.3,1.3c1.1,1.1,2.6,1.7,4.1,1.7h0.9c1.6,0,3,1.3,3,3c0,1.3-0.8,2.4-2,2.8c-0.3,3.2-2.1,5.9-4.7,7.5v1.5c0,0.5,0.3,0.9,0.7,1
	l4.8,1.7C44.5,45.4,46.2,47.2,46.9,49.4z"/>
</svg>
