<?xml version="1.0" encoding="utf-8"?>
<!-- Generator: Adobe Illustrator 27.2.0, SVG Export Plug-In . SVG Version: 6.00 Build 0)  -->
<svg version="1.1" baseProfile="tiny" id="Layer_1" xmlns="http://www.w3.org/2000/svg" xmlns:xlink="http://www.w3.org/1999/xlink"
	 x="0px" y="0px" viewBox="0 0 13.8 13.8" overflow="visible" xml:space="preserve">
<path fill="#A0DDFF" d="M6.9,13.7c-3.7,0-6.8-3.1-6.8-6.8c0-3.7,3.1-6.8,6.8-6.8c3.7,0,6.8,3.1,6.8,6.8
	C13.7,10.6,10.6,13.7,6.9,13.7z M6.9,1.1c-3.2,0-5.8,2.6-5.8,5.8s2.6,5.8,5.8,5.8s5.8-2.6,5.8-5.8S10.1,1.1,6.9,1.1z"/>
<path d="M6.9,13.8C3.1,13.8,0,10.7,0,6.9S3.1,0,6.9,0s6.9,3.1,6.9,6.9S10.7,13.8,6.9,13.8z M6.9,0.2c-3.7,0-6.7,3-6.7,6.7
	s3,6.7,6.7,6.7s6.7-3,6.7-6.7S10.6,0.2,6.9,0.2z M6.9,12.8C3.6,12.8,1,10.2,1,6.9S3.6,1,6.9,1s5.9,2.6,5.9,5.9S10.2,12.8,6.9,12.8z
	 M6.9,1.2c-3.1,0-5.7,2.6-5.7,5.7c0,3.1,2.6,5.7,5.7,5.7c3.1,0,5.7-2.6,5.7-5.7C12.6,3.8,10,1.2,6.9,1.2z"/>
</svg>
