<?xml version="1.0" encoding="utf-8"?>
<!-- Generator: Adobe Illustrator 27.8.0, SVG Export Plug-In . SVG Version: 6.00 Build 0)  -->
<svg version="1.1" baseProfile="tiny" id="Layer_1" xmlns="http://www.w3.org/2000/svg" xmlns:xlink="http://www.w3.org/1999/xlink"
	 x="0px" y="0px" viewBox="0 0 83.1 56.7" overflow="visible" xml:space="preserve">
<g id="opacity:85">
	<path d="M33.6,55.7c-4.5,0-8.7-1.7-11.9-4.9L2.3,31.4c-0.8-0.8-1.3-1.9-1.3-3s0.4-2.2,1.3-3L21.8,5.9C24.9,2.8,29.2,1,33.6,1H76
		c3.3,0,6,2.7,6,6v42.6c0,3.3-2.7,6-6,6H33.6z"/>
	<path d="M76,2c2.8,0,5,2.3,5,5v42.6c0,2.8-2.3,5-5,5H33.6c-4.2,0-8.2-1.6-11.2-4.6L3,30.6c-0.6-0.6-1-1.4-1-2.3
		c0-0.9,0.3-1.7,1-2.3L22.5,6.6c3-3,6.9-4.6,11.2-4.6H76 M76,0H33.6C28.9,0,24.4,1.9,21,5.2L1.6,24.6c-2.1,2.1-2.1,5.4,0,7.5
		L21,51.5c3.3,3.3,7.9,5.2,12.6,5.2H76c3.9,0,7-3.2,7-7V7C83.1,3.2,79.9,0,76,0L76,0z"/>
</g>
<path id="opacity:100" d="M76,3c2.2,0,4,1.8,4,4v42.6c0,2.2-1.8,4-4,4H33.6c-4,0-7.7-1.5-10.5-4.3L3.7,30c-0.4-0.4-0.7-1-0.7-1.6
	c0-0.6,0.2-1.2,0.7-1.6L23.2,7.3C26,4.5,29.7,3,33.6,3H76 M76,0H33.6C28.9,0,24.4,1.9,21,5.2L1.6,24.6c-2.1,2.1-2.1,5.4,0,7.5
	L21,51.5c3.3,3.3,7.9,5.2,12.6,5.2H76c3.9,0,7-3.2,7-7V7C83.1,3.2,79.9,0,76,0L76,0z"/>
</svg>
