<?xml version="1.0" encoding="utf-8"?>
<!-- Generator: Adobe Illustrator 27.8.0, SVG Export Plug-In . SVG Version: 6.00 Build 0)  -->
<svg version="1.1" baseProfile="tiny" id="Layer_1" xmlns="http://www.w3.org/2000/svg" xmlns:xlink="http://www.w3.org/1999/xlink"
	 x="0px" y="0px" viewBox="0 0 64 64" overflow="visible" xml:space="preserve">
<path fill="#3C4B37" d="M41.6,24.8h-2v-1.4c0-0.7-0.1-1.4-0.4-2.1l-1-2.4L35.1,20l-1.9-3.1l-3.9,1.3c-2.9,0.9-4.8,3.6-4.8,6.6h-2
	c0-3.9,2.5-7.3,6.2-8.5l5.4-1.8l1.9,3l3.5-1.3l1.7,4.2c0.4,0.9,0.5,1.9,0.5,2.9V24.8z"/>
<path fill="#3C4B37" d="M46.7,49.5h-2.2c-0.6-1.3-1.8-2.4-3.2-2.9l-4.8-1.7c-1.2-0.4-2-1.6-2-2.9v-0.7c-0.9,0.3-1.8,0.4-2.8,0.4
	c-0.8,0-1.6-0.1-2.3-0.3V42c0,1.3-0.8,2.5-2,2.9l-4.8,1.7c-1.4,0.5-2.5,1.5-3.2,2.9h-2.2c0.8-2.2,2.5-4,4.7-4.8l4.8-1.7
	c0.4-0.2,0.7-0.6,0.7-1v-1.3c-2.9-1.5-4.9-4.4-5.2-7.7c-1.2-0.4-2-1.5-2-2.8c0-1.6,1.3-3,3-3h1v5c0,4.2,3.4,7.6,7.6,7.6
	c4.2,0,7.6-3.4,7.6-7.6v-5h1c1.6,0,3,1.3,3,3c0,1.3-0.8,2.4-2,2.8c-0.3,3.2-2.1,5.9-4.7,7.5V42c0,0.5,0.3,0.9,0.7,1l4.8,1.7
	C44.3,45.5,46,47.3,46.7,49.5z"/>
<path fill="#7AFFAC" d="M37.6,25c0-0.1-0.1-0.1-0.1-0.2h0C37.5,24.9,37.6,25,37.6,25z"/>
<path fill="#7AFFAC" d="M37.4,29.9c-0.3,0.2-0.3,0.7,0,0.9c0,0.1,0.1,0.1,0.2,0.1c-0.1,0-0.2,0.1-0.3,0.2c-0.1,0.1-0.2,0.2-0.2,0.4
	c0-0.1-0.1-0.1-0.1-0.2c-0.3-0.2-0.7-0.2-0.9,0c-0.3,0.3-0.3,0.7,0,0.9c0,0,0.1,0.1,0.1,0.1c-0.1,0-0.2,0.1-0.3,0.2
	c-0.1,0.1-0.2,0.2-0.2,0.4c0-0.1-0.1-0.1-0.1-0.2c-0.2-0.2-0.7-0.2-0.9,0c-0.2,0.3-0.2,0.7,0,0.9c0,0,0.1,0.1,0.1,0.1
	c-0.1,0-0.2,0.1-0.3,0.2c-0.1,0.1-0.2,0.2-0.2,0.4c0-0.1-0.1-0.1-0.1-0.2c-0.2-0.3-0.7-0.3-0.9,0c-0.2,0.2-0.2,0.7,0,0.9
	c0.1,0,0.1,0.1,0.2,0.1c-0.1,0-0.2,0.1-0.3,0.2c-0.1,0.1-0.2,0.2-0.2,0.4c0-0.1-0.1-0.1-0.1-0.2c-0.2-0.3-0.7-0.3-0.9,0
	c-0.3,0.2-0.3,0.7,0,0.9c0,0,0.1,0.1,0.2,0.1c-0.1,0-0.2,0.1-0.3,0.2c-0.1,0.1-0.2,0.2-0.2,0.4c0-0.1-0.1-0.1-0.1-0.2
	c-0.3-0.2-0.7-0.2-0.9,0c-0.3,0.3-0.3,0.7,0,0.9c0,0,0.1,0.1,0.1,0.1c0.2,0.1,0.5,0.1,0.7,0.1c0,0,0,0,0,0c0,0,0-0.1,0-0.1
	c0,0,0.1,0,0.1-0.1c0,0,0.1-0.1,0.1-0.1c0,0,0.1,0,0.1,0c0,0,0.1,0.1,0.1,0.1c0.1,0.1,0.1,0.1,0.2,0.1c0,0,0,0.1,0,0.1h0
	c0.3,0,0.5,0,0.8,0c0,0,0-0.1,0-0.1c0,0,0.1,0,0.1-0.1c0,0,0,0,0-0.1c0.1-0.1,0.2-0.1,0.2,0c0,0,0,0,0,0c0,0,0,0.1,0,0.2
	c2.8-0.5,4.9-3,4.9-5.9v-2.5C37.6,29.8,37.5,29.8,37.4,29.9z M33.1,36.8c0,0-0.1,0.1-0.2,0.1c0,0-0.1,0.1-0.1,0.1c0,0-0.1,0-0.1,0
	c0-0.1-0.1-0.1-0.1-0.2c0,0-0.1-0.1-0.1-0.1c0,0,0-0.1,0-0.1c0,0,0.1,0,0.1-0.1c0,0,0.1-0.1,0.1-0.1c0,0,0.1,0,0.1,0
	c0,0,0.1,0.1,0.1,0.1c0,0.1,0.1,0.1,0.2,0.1C33.2,36.7,33.2,36.8,33.1,36.8z M34.3,36.7C34.3,36.7,34.3,36.7,34.3,36.7
	c-0.1,0.1-0.1,0.1-0.1,0.1c0,0.1-0.1,0.1-0.2,0c0,0,0,0,0,0c-0.1,0-0.1-0.2,0-0.2c0,0,0.1,0,0.1-0.1c0,0,0,0,0,0
	c0.1-0.1,0.2-0.1,0.2,0c0,0,0,0,0,0C34.4,36.6,34.4,36.7,34.3,36.7z M34.6,35.4c0,0-0.1,0.1-0.1,0.1c0,0-0.1,0.1-0.1,0.1
	c0,0-0.1,0-0.1,0c0-0.1-0.1-0.1-0.1-0.2c0,0-0.1-0.1-0.1-0.1c0,0,0-0.1,0-0.1c0,0,0.1,0,0.1-0.1c0,0,0.1-0.1,0.1-0.1
	c0,0,0.1,0,0.1,0c0,0.1,0.1,0.1,0.1,0.1c0.1,0.1,0.1,0.1,0.2,0.1C34.6,35.3,34.6,35.3,34.6,35.4z M35.7,35.3
	C35.7,35.3,35.7,35.3,35.7,35.3c-0.1,0.1-0.1,0.1-0.1,0.1c0,0.1-0.1,0.1-0.2,0c0,0,0,0,0,0c-0.1-0.1-0.1-0.2,0-0.2c0,0,0,0,0.1-0.1
	c0,0,0,0,0.1,0c0-0.1,0.1-0.1,0.2,0c0,0,0,0,0,0C35.8,35.2,35.8,35.2,35.7,35.3z M36,34c-0.1,0-0.1,0.1-0.1,0.1c0,0-0.1,0.1-0.1,0.1
	c0,0-0.1,0-0.1,0c0-0.1-0.1-0.1-0.1-0.2c0,0-0.1-0.1-0.1-0.1c0,0,0-0.1,0-0.1c0,0,0.1-0.1,0.1-0.1c0,0,0.1-0.1,0.1-0.1
	c0,0,0.1,0,0.1,0c0,0,0.1,0.1,0.1,0.1c0.1,0.1,0.1,0.1,0.2,0.1C36,33.9,36,33.9,36,34z M37.2,33.9C37.2,33.9,37.1,33.9,37.2,33.9
	c-0.1,0.1-0.1,0.1-0.1,0.1c0,0.1-0.1,0.1-0.2,0c0,0,0,0,0,0c-0.1,0-0.1-0.2,0-0.2c0,0,0,0,0.1-0.1c0,0,0,0,0,0c0-0.1,0.1-0.1,0.2,0
	c0,0,0,0,0,0C37.2,33.7,37.2,33.8,37.2,33.9z M37.4,32.5c-0.1,0-0.1,0.1-0.2,0.1c0,0-0.1,0.1-0.1,0.1c0,0-0.1,0-0.1,0
	c0-0.1-0.1-0.1-0.1-0.2c0,0-0.1-0.1-0.1-0.1c0,0,0-0.1,0-0.1c0,0,0.1-0.1,0.1-0.1c0,0,0.1-0.1,0.1-0.1c0,0,0.1,0,0.1,0
	c0,0,0.1,0.1,0.1,0.2c0.1,0,0.1,0.1,0.2,0.1C37.5,32.4,37.5,32.5,37.4,32.5z M37.4,29.9c-0.3,0.2-0.3,0.7,0,0.9
	c0,0.1,0.1,0.1,0.2,0.1c-0.1,0-0.2,0.1-0.3,0.2c-0.1,0.1-0.2,0.2-0.2,0.4c0-0.1-0.1-0.1-0.1-0.2c-0.3-0.2-0.7-0.2-0.9,0
	c-0.3,0.3-0.3,0.7,0,0.9c0,0,0.1,0.1,0.1,0.1c-0.1,0-0.2,0.1-0.3,0.2c-0.1,0.1-0.2,0.2-0.2,0.4c0-0.1-0.1-0.1-0.1-0.2
	c-0.2-0.2-0.7-0.2-0.9,0c-0.2,0.3-0.2,0.7,0,0.9c0,0,0.1,0.1,0.1,0.1c-0.1,0-0.2,0.1-0.3,0.2c-0.1,0.1-0.2,0.2-0.2,0.4
	c0-0.1-0.1-0.1-0.1-0.2c-0.2-0.3-0.7-0.3-0.9,0c-0.2,0.2-0.2,0.7,0,0.9c0.1,0,0.1,0.1,0.2,0.1c-0.1,0-0.2,0.1-0.3,0.2
	c-0.1,0.1-0.2,0.2-0.2,0.4c0-0.1-0.1-0.1-0.1-0.2c-0.2-0.3-0.7-0.3-0.9,0c-0.3,0.2-0.3,0.7,0,0.9c0,0,0.1,0.1,0.2,0.1
	c-0.1,0-0.2,0.1-0.3,0.2c-0.1,0.1-0.2,0.2-0.2,0.4c0-0.1-0.1-0.1-0.1-0.2c-0.3-0.2-0.7-0.2-0.9,0c-0.3,0.3-0.3,0.7,0,0.9
	c0,0,0.1,0.1,0.1,0.1c0.2,0.1,0.5,0.1,0.7,0.1c0,0,0,0,0,0c0,0,0-0.1,0-0.1c0,0,0.1,0,0.1-0.1c0,0,0.1-0.1,0.1-0.1c0,0,0.1,0,0.1,0
	c0,0,0.1,0.1,0.1,0.1c0.1,0.1,0.1,0.1,0.2,0.1c0,0,0,0.1,0,0.1h0c0.3,0,0.5,0,0.8,0c0,0,0-0.1,0-0.1c0,0,0.1,0,0.1-0.1
	c0,0,0,0,0-0.1c0.1-0.1,0.2-0.1,0.2,0c0,0,0,0,0,0c0,0,0,0.1,0,0.2c2.8-0.5,4.9-3,4.9-5.9v-2.5C37.6,29.8,37.5,29.8,37.4,29.9z
	 M33.1,36.8c0,0-0.1,0.1-0.2,0.1c0,0-0.1,0.1-0.1,0.1c0,0-0.1,0-0.1,0c0-0.1-0.1-0.1-0.1-0.2c0,0-0.1-0.1-0.1-0.1c0,0,0-0.1,0-0.1
	c0,0,0.1,0,0.1-0.1c0,0,0.1-0.1,0.1-0.1c0,0,0.1,0,0.1,0c0,0,0.1,0.1,0.1,0.1c0,0.1,0.1,0.1,0.2,0.1C33.2,36.7,33.2,36.8,33.1,36.8z
	 M34.3,36.7C34.3,36.7,34.3,36.7,34.3,36.7c-0.1,0.1-0.1,0.1-0.1,0.1c0,0.1-0.1,0.1-0.2,0c0,0,0,0,0,0c-0.1,0-0.1-0.2,0-0.2
	c0,0,0.1,0,0.1-0.1c0,0,0,0,0,0c0.1-0.1,0.2-0.1,0.2,0c0,0,0,0,0,0C34.4,36.6,34.4,36.7,34.3,36.7z M34.6,35.4c0,0-0.1,0.1-0.1,0.1
	c0,0-0.1,0.1-0.1,0.1c0,0-0.1,0-0.1,0c0-0.1-0.1-0.1-0.1-0.2c0,0-0.1-0.1-0.1-0.1c0,0,0-0.1,0-0.1c0,0,0.1,0,0.1-0.1
	c0,0,0.1-0.1,0.1-0.1c0,0,0.1,0,0.1,0c0,0.1,0.1,0.1,0.1,0.1c0.1,0.1,0.1,0.1,0.2,0.1C34.6,35.3,34.6,35.3,34.6,35.4z M35.7,35.3
	C35.7,35.3,35.7,35.3,35.7,35.3c-0.1,0.1-0.1,0.1-0.1,0.1c0,0.1-0.1,0.1-0.2,0c0,0,0,0,0,0c-0.1-0.1-0.1-0.2,0-0.2c0,0,0,0,0.1-0.1
	c0,0,0,0,0.1,0c0-0.1,0.1-0.1,0.2,0c0,0,0,0,0,0C35.8,35.2,35.8,35.2,35.7,35.3z M36,34c-0.1,0-0.1,0.1-0.1,0.1c0,0-0.1,0.1-0.1,0.1
	c0,0-0.1,0-0.1,0c0-0.1-0.1-0.1-0.1-0.2c0,0-0.1-0.1-0.1-0.1c0,0,0-0.1,0-0.1c0,0,0.1-0.1,0.1-0.1c0,0,0.1-0.1,0.1-0.1
	c0,0,0.1,0,0.1,0c0,0,0.1,0.1,0.1,0.1c0.1,0.1,0.1,0.1,0.2,0.1C36,33.9,36,33.9,36,34z M37.2,33.9C37.2,33.9,37.1,33.9,37.2,33.9
	c-0.1,0.1-0.1,0.1-0.1,0.1c0,0.1-0.1,0.1-0.2,0c0,0,0,0,0,0c-0.1,0-0.1-0.2,0-0.2c0,0,0,0,0.1-0.1c0,0,0,0,0,0c0-0.1,0.1-0.1,0.2,0
	c0,0,0,0,0,0C37.2,33.7,37.2,33.8,37.2,33.9z M37.4,32.5c-0.1,0-0.1,0.1-0.2,0.1c0,0-0.1,0.1-0.1,0.1c0,0-0.1,0-0.1,0
	c0-0.1-0.1-0.1-0.1-0.2c0,0-0.1-0.1-0.1-0.1c0,0,0-0.1,0-0.1c0,0,0.1-0.1,0.1-0.1c0,0,0.1-0.1,0.1-0.1c0,0,0.1,0,0.1,0
	c0,0,0.1,0.1,0.1,0.2c0.1,0,0.1,0.1,0.2,0.1C37.5,32.4,37.5,32.5,37.4,32.5z"/>
<path fill="#7AFFAC" d="M37.8,27.1v1c-0.1,0-0.2-0.1-0.3-0.1c-0.2-0.2-0.2-0.5,0-0.7C37.6,27.1,37.7,27.1,37.8,27.1z"/>
<path fill="#7AFFAC" d="M36.8,26.5c0.2-0.2,0.2-0.5,0-0.6c-0.2-0.2-0.5-0.2-0.6,0c-0.2,0.2-0.2,0.5,0,0.6
	C36.3,26.7,36.6,26.7,36.8,26.5z"/>
<circle fill="#7AFFAC" cx="35.2" cy="24.9" r="0.3"/>
<path fill="#7AFFAC" d="M34,23.7c0.1-0.1,0.1-0.2,0-0.3c-0.1-0.1-0.2-0.1-0.3,0c-0.1,0.1-0.1,0.2,0,0.3C33.7,23.8,33.9,23.8,34,23.7
	z"/>
<circle fill="#7AFFAC" cx="36.5" cy="29" r="0.5"/>
<path fill="#7AFFAC" d="M35.4,27.9c0.2-0.2,0.2-0.5,0-0.6c-0.2-0.2-0.5-0.2-0.6,0c-0.2,0.2-0.2,0.5,0,0.6
	C34.9,28.1,35.2,28.1,35.4,27.9z"/>
<circle fill="#7AFFAC" cx="33.7" cy="26.3" r="0.3"/>
<path fill="#7AFFAC" d="M32.6,25.1c0.1-0.1,0.1-0.2,0-0.3s-0.2-0.1-0.3,0c-0.1,0.1-0.1,0.2,0,0.3C32.3,25.2,32.5,25.2,32.6,25.1z"/>
<circle fill="#7AFFAC" cx="35" cy="30.4" r="0.5"/>
<path fill="#7AFFAC" d="M34,29.3c0.2-0.2,0.2-0.5,0-0.6c-0.2-0.2-0.5-0.2-0.6,0c-0.2,0.2-0.2,0.5,0,0.6C33.5,29.5,33.8,29.5,34,29.3
	z"/>
<circle fill="#7AFFAC" cx="32.3" cy="27.7" r="0.3"/>
<path fill="#7AFFAC" d="M31.1,26.5c0.1-0.1,0.1-0.2,0-0.3c-0.1-0.1-0.2-0.1-0.3,0c-0.1,0.1-0.1,0.2,0,0.3
	C30.9,26.6,31.1,26.6,31.1,26.5z"/>
<circle fill="#7AFFAC" cx="33.6" cy="31.8" r="0.5"/>
<path fill="#7AFFAC" d="M32.6,30.7c0.2-0.2,0.2-0.5,0-0.6c-0.2-0.2-0.5-0.2-0.6,0c-0.2,0.2-0.2,0.5,0,0.6
	C32.1,30.9,32.4,30.9,32.6,30.7z"/>
<circle fill="#7AFFAC" cx="30.9" cy="29.1" r="0.3"/>
<path fill="#7AFFAC" d="M29.7,27.9c0.1-0.1,0.1-0.2,0-0.3c-0.1-0.1-0.2-0.1-0.3,0c-0.1,0.1-0.1,0.2,0,0.3C29.5,28,29.6,28,29.7,27.9
	z"/>
<circle fill="#7AFFAC" cx="32.2" cy="33.3" r="0.5"/>
<path fill="#7AFFAC" d="M31.1,32.2c0.2-0.2,0.2-0.5,0-0.6c-0.2-0.2-0.5-0.2-0.6,0c-0.2,0.2-0.2,0.5,0,0.6
	C30.7,32.3,30.9,32.3,31.1,32.2z"/>
<circle fill="#7AFFAC" cx="29.5" cy="30.5" r="0.3"/>
<path fill="#7AFFAC" d="M28.3,29.4c0.1-0.1,0.1-0.2,0-0.3c-0.1-0.1-0.2-0.1-0.3,0c-0.1,0.1-0.1,0.2,0,0.3
	C28.1,29.5,28.2,29.5,28.3,29.4z"/>
<circle fill="#7AFFAC" cx="30.8" cy="34.7" r="0.5"/>
<path fill="#7AFFAC" d="M29.7,33.6c0.2-0.2,0.2-0.5,0-0.6c-0.2-0.2-0.5-0.2-0.6,0c-0.2,0.2-0.2,0.5,0,0.6
	C29.2,33.8,29.5,33.8,29.7,33.6z"/>
<circle fill="#7AFFAC" cx="28.1" cy="32" r="0.3"/>
<path fill="#7AFFAC" d="M26.9,30.8c0.1-0.1,0.1-0.2,0-0.3c-0.1-0.1-0.2-0.1-0.3,0c-0.1,0.1-0.1,0.2,0,0.3
	C26.6,30.9,26.8,30.9,26.9,30.8z"/>
<circle fill="#7AFFAC" cx="29.3" cy="36.1" r="0.5"/>
<path fill="#7AFFAC" d="M28.2,35.1c0.2-0.2,0.2-0.5,0-0.6c-0.2-0.2-0.5-0.2-0.6,0c-0.2,0.2-0.2,0.5,0,0.6
	C27.8,35.2,28.1,35.2,28.2,35.1z"/>
<circle fill="#7AFFAC" cx="26.6" cy="33.4" r="0.3"/>
<path fill="#7AFFAC" d="M37.8,26.6L37.8,26.6c-0.1,0-0.2,0-0.3-0.1c-0.2-0.2-0.2-0.5,0-0.7c0.1-0.1,0.1-0.1,0.2-0.1
	C37.7,25.9,37.8,26.2,37.8,26.6z"/>
<path fill="#7AFFAC" d="M36.8,25.1c-0.2,0.2-0.5,0.2-0.7,0c-0.2-0.2-0.2-0.5,0-0.7c0.1-0.1,0.2-0.1,0.4-0.1l0,0
	c0.1,0.1,0.2,0.2,0.4,0.2c0,0,0,0,0,0C37,24.7,37,24.9,36.8,25.1z"/>
<circle fill="#7AFFAC" cx="35.1" cy="23.4" r="0.3"/>
<path fill="#7AFFAC" d="M37.8,28.3v1.2c-0.2,0-0.3-0.1-0.4-0.2c-0.2-0.2-0.2-0.6,0-0.9C37.5,28.3,37.6,28.3,37.8,28.3z"/>
<circle fill="#7AFFAC" cx="36.4" cy="27.5" r="0.5"/>
<path fill="#7AFFAC" d="M35.4,26.4c0.2-0.2,0.2-0.4,0-0.6c-0.2-0.2-0.4-0.2-0.6,0c-0.2,0.2-0.2,0.4,0,0.6
	C35,26.6,35.3,26.6,35.4,26.4z"/>
<circle fill="#7AFFAC" cx="33.7" cy="24.8" r="0.3"/>
<path fill="#7AFFAC" d="M32.5,23.6c0.1-0.1,0.1-0.2,0-0.3s-0.2-0.1-0.3,0c-0.1,0.1-0.1,0.2,0,0.3C32.3,23.7,32.4,23.7,32.5,23.6z"/>
<circle fill="#7AFFAC" cx="36.4" cy="30.3" r="0.6"/>
<circle fill="#7AFFAC" cx="35" cy="28.9" r="0.5"/>
<path fill="#7AFFAC" d="M34,27.9c0.2-0.2,0.2-0.4,0-0.6c-0.2-0.2-0.4-0.2-0.6,0c-0.2,0.2-0.2,0.4,0,0.6C33.6,28.1,33.8,28.1,34,27.9
	z"/>
<circle fill="#7AFFAC" cx="32.3" cy="26.2" r="0.3"/>
<path fill="#7AFFAC" d="M31.1,25c0.1-0.1,0.1-0.2,0-0.3c-0.1-0.1-0.2-0.1-0.3,0c-0.1,0.1-0.1,0.2,0,0.3C30.9,25.1,31,25.1,31.1,25z"
	/>
<circle fill="#7AFFAC" cx="34.9" cy="31.7" r="0.6"/>
<circle fill="#7AFFAC" cx="33.6" cy="30.3" r="0.5"/>
<path fill="#7AFFAC" d="M32.6,29.3c0.2-0.2,0.2-0.4,0-0.6c-0.2-0.2-0.4-0.2-0.6,0c-0.2,0.2-0.2,0.4,0,0.6
	C32.1,29.5,32.4,29.5,32.6,29.3z"/>
<circle fill="#7AFFAC" cx="30.9" cy="27.6" r="0.3"/>
<path fill="#7AFFAC" d="M29.7,26.4c0.1-0.1,0.1-0.2,0-0.3c-0.1-0.1-0.2-0.1-0.3,0c-0.1,0.1-0.1,0.2,0,0.3
	C29.4,26.5,29.6,26.5,29.7,26.4z"/>
<circle fill="#7AFFAC" cx="33.5" cy="33.1" r="0.6"/>
<circle fill="#7AFFAC" cx="32.1" cy="31.8" r="0.5"/>
<path fill="#7AFFAC" d="M31.1,30.8c0.2-0.2,0.2-0.4,0-0.6c-0.2-0.2-0.4-0.2-0.6,0c-0.2,0.2-0.2,0.4,0,0.6
	C30.7,30.9,31,30.9,31.1,30.8z"/>
<circle fill="#7AFFAC" cx="29.4" cy="29" r="0.3"/>
<path fill="#7AFFAC" d="M28.3,27.9c0.1-0.1,0.1-0.2,0-0.3c-0.1-0.1-0.2-0.1-0.3,0c-0.1,0.1-0.1,0.2,0,0.3C28,28,28.2,28,28.3,27.9z"
	/>
<circle fill="#7AFFAC" cx="32.1" cy="34.6" r="0.6"/>
<circle fill="#7AFFAC" cx="30.7" cy="33.2" r="0.5"/>
<path fill="#7AFFAC" d="M29.7,32.1c0.2-0.2,0.2-0.4,0-0.6c-0.2-0.2-0.4-0.2-0.6,0c-0.2,0.2-0.2,0.4,0,0.6
	C29.3,32.3,29.6,32.3,29.7,32.1z"/>
<circle fill="#7AFFAC" cx="28" cy="30.5" r="0.3"/>
<path fill="#7AFFAC" d="M26.8,29.3c0.1-0.1,0.1-0.2,0-0.3c-0.1-0.1-0.2-0.1-0.3,0c-0.1,0.1-0.1,0.2,0,0.3
	C26.6,29.4,26.7,29.4,26.8,29.3z"/>
<circle fill="#7AFFAC" cx="30.7" cy="36" r="0.6"/>
<circle fill="#7AFFAC" cx="29.3" cy="34.6" r="0.5"/>
<path fill="#7AFFAC" d="M28.3,33.6c0.2-0.2,0.2-0.4,0-0.6c-0.2-0.2-0.4-0.2-0.6,0c-0.2,0.2-0.2,0.4,0,0.6
	C27.8,33.8,28.1,33.8,28.3,33.6z"/>
<circle fill="#7AFFAC" cx="26.6" cy="31.9" r="0.3"/>
<path fill="#7AFFAC" d="M29.7,37.9c-0.4-0.1-0.7-0.3-1.1-0.5c0-0.1,0.1-0.2,0.2-0.3c0.2-0.2,0.6-0.2,0.9,0
	C29.9,37.2,29.9,37.6,29.7,37.9z"/>
<circle fill="#7AFFAC" cx="27.9" cy="36" r="0.5"/>
<path fill="#7AFFAC" d="M26.9,35c-0.1,0.1-0.3,0.2-0.4,0.1c-0.1-0.2-0.2-0.4-0.3-0.6v0c0,0,0-0.1,0.1-0.1c0.2-0.2,0.4-0.2,0.6,0
	C27.1,34.5,27.1,34.8,26.9,35z"/>
</svg>
