<?xml version="1.0" encoding="utf-8"?>
<!-- Generator: Adobe Illustrator 27.8.0, SVG Export Plug-In . SVG Version: 6.00 Build 0)  -->
<svg version="1.1" baseProfile="tiny" id="Layer_1" xmlns="http://www.w3.org/2000/svg" xmlns:xlink="http://www.w3.org/1999/xlink"
	 x="0px" y="0px" viewBox="0 0 64 64" overflow="visible" xml:space="preserve">
<path fill="#273024" d="M52.5,49.5h-8.2l-0.6-1.3c-1-2-2.5-3.5-4.5-4.5l-4-1.9c-0.1-0.1-0.2-0.2-0.2-0.4v-1.2c0-0.1,0-0.3,0.1-0.4
	l1-1.7c1-1.8,1.5-3.8,1.5-5.9V29h2.8v2.9l4.4-3.8l-4.4-3.8v2.8h-2.8v-4.6c0-0.9-0.2-1.8-0.5-2.6L35.6,16l4-1.5l1.9,3l3.4-1.3
	l1.7,4.2c0.4,0.9,0.5,1.9,0.5,2.9v4c1.1,0.4,2,1.5,2,2.8c0,1.3-0.8,2.4-2,2.8c-0.3,3.2-2.1,5.9-4.7,7.5V42c0,0.4,0.3,0.8,0.7,1
	l4.8,1.7C50,45.5,51.8,47.3,52.5,49.5z"/>
<path fill="#3C4B37" d="M35.5,22.4h-2c-0.1-0.4-0.2-0.8-0.3-1.1l-1-2.4L29,20l-1.9-3.1l-3.9,1.3c-2.9,0.9-4.8,3.6-4.8,6.6h-2
	c0-3.9,2.5-7.3,6.2-8.5l5.4-1.8l1.9,3l3.5-1.3l1.7,4.2C35.2,21.1,35.4,21.7,35.5,22.4z"/>
<path fill="#D4FFBF" d="M39.1,29.5L39.1,29.5z"/>
<path fill="#3C4B37" d="M41,49.5h-2.2c-0.6-1.3-1.8-2.4-3.2-2.9l-4.8-1.7c-1.2-0.4-2-1.6-2-2.9v-0.7c-0.9,0.3-1.9,0.4-2.8,0.4
	c-0.8,0-1.6-0.1-2.3-0.3V42c0,1.3-0.8,2.5-2,2.9l-4.8,1.7c-1.4,0.5-2.5,1.5-3.2,2.9h-2.2c0.8-2.2,2.5-4,4.7-4.8L21,43
	c0.4-0.2,0.7-0.6,0.7-1v-1.3c-2.9-1.5-4.9-4.4-5.2-7.7c-1.2-0.4-2-1.5-2-2.8c0-1.6,1.3-3,3-3h1v5c0,4.2,3.4,7.6,7.6,7.6
	c3.5,0,6.5-2.4,7.3-5.7h2c-0.5,2.7-2.2,5-4.5,6.4V42c0,0.5,0.3,0.9,0.7,1l4.8,1.7C38.5,45.5,40.2,47.3,41,49.5z"/>
<path fill="#D4FFBF" d="M33.7,26.7"/>
<path fill="#7AFFAC" d="M30.2,32c-2.2,0-4-1.7-4-4s1.7-4,4-4c2.2,0,4,1.7,4,4S32.4,32,30.2,32z M30.2,25.5c-1.3,0-2.5,1.1-2.5,2.5
	s1.1,2.5,2.5,2.5s2.5-1.1,2.5-2.5S31.6,25.5,30.2,25.5z"/>
<rect x="33.5" y="26.9" fill="#7AFFAC" width="4.1" height="2"/>
</svg>
