<?xml version="1.0" encoding="utf-8"?>
<!-- Generator: Adobe Illustrator 28.5.0, SVG Export Plug-In . SVG Version: 9.03 Build 54727)  -->
<svg version="1.1" baseProfile="tiny" id="Layer_1" xmlns="http://www.w3.org/2000/svg" xmlns:xlink="http://www.w3.org/1999/xlink"
	 x="0px" y="0px" viewBox="0 0 64 64" overflow="visible" xml:space="preserve">
<path fill="#3C4B37" d="M41.3,24.8h-2v-1.4c0-0.7-0.1-1.4-0.4-2.1l-1-2.4L34.8,20l-1.9-3.1L29,18.2c-2.9,0.9-4.8,3.6-4.8,6.6h-2
	c0-3.9,2.5-7.3,6.2-8.5l5.4-1.8l1.9,3l3.5-1.3l1.7,4.2c0.4,0.9,0.5,1.9,0.5,2.9v1.5C41.4,24.8,41.3,24.8,41.3,24.8z"/>
<path fill="#3C4B37" d="M46.7,49.5h-2.2c-0.6-1.3-1.8-2.4-3.2-2.9l-4.8-1.7c-1.2-0.4-2-1.6-2-2.9v-0.7c-0.9,0.3-1.8,0.4-2.8,0.4
	c-0.8,0-1.6-0.1-2.3-0.3V42c0,1.3-0.8,2.5-2,2.9l-4.8,1.7c-1.4,0.5-2.5,1.5-3.2,2.9h-2.2c0.8-2.2,2.5-4,4.7-4.8l4.8-1.7
	c0.4-0.2,0.7-0.6,0.7-1v-1.3c-2-1-3.6-2.7-4.4-4.8l0.5-1.7c0.1-0.2,0.1-0.4,0.1-0.6c0-0.9-0.6-1.8-1.6-2.1c-0.5-0.2-1-0.1-1.4,0.1
	c-0.2-0.4-0.4-0.9-0.4-1.4c0-1.6,1.3-3,3-3h1v5c0,4.2,3.4,7.6,7.6,7.6c4.2,0,7.6-3.4,7.6-7.6v-5h1c1.6,0,3,1.3,3,3
	c0,0.5-0.1,1-0.3,1.4c-0.4-0.2-0.9-0.2-1.4,0c-0.9,0.3-1.5,1.1-1.5,2.1c0,0.2,0,0.4,0.1,0.7l0.5,1.6c-0.8,1.9-2.2,3.5-4,4.6V42
	c0,0.5,0.3,0.9,0.7,1l4.8,1.7C44.3,45.5,46,47.3,46.7,49.5z"/>
<path fill="#7AFFAC" d="M43.2,40.1c-0.2,0.1-0.4,0.1-0.6,0.1c-0.9,0-1.7-0.5-2-1.4c0-0.1,0-0.1-0.1-0.2l0.7-1l0.3,0.8
	c0.1,0.2,0.3,0.4,0.5,0.4c0.1,0,0.1,0,0.2,0c0.3-0.1,0.4-0.4,0.3-0.7l-0.7-2.2l-0.6-1.7c0,0,0,0,0,0c0-0.1,0-0.2,0-0.3
	c0-0.4,0.3-0.8,0.7-1c0.6-0.2,1.1,0.1,1.3,0.7l1.3,3.9C44.9,38.5,44.3,39.7,43.2,40.1z"/>
<path fill="#7AFFAC" d="M20.5,40.1c0.2,0.1,0.4,0.1,0.6,0.1c0.9,0,1.7-0.5,2-1.4c0-0.1,0-0.1,0.1-0.2l-0.7-1l-0.3,0.8
	c-0.1,0.2-0.3,0.4-0.5,0.4c-0.1,0-0.1,0-0.2,0c-0.3-0.1-0.4-0.4-0.3-0.7l0.7-2.2l0.6-1.7c0,0,0,0,0,0c0-0.1,0-0.2,0-0.3
	c0-0.4-0.3-0.8-0.7-1c-0.6-0.2-1.1,0.1-1.3,0.7l-1.3,3.9C18.8,38.5,19.4,39.7,20.5,40.1z"/>
</svg>
