<?xml version="1.0" encoding="utf-8"?>
<!-- Generator: Adobe Illustrator 27.8.0, SVG Export Plug-In . SVG Version: 6.00 Build 0)  -->
<svg version="1.1" baseProfile="tiny" id="Layer_1" xmlns="http://www.w3.org/2000/svg" xmlns:xlink="http://www.w3.org/1999/xlink"
	 x="0px" y="0px" viewBox="0 0 68.1 68.1" overflow="visible" xml:space="preserve">
<path fill="#32FFB6" d="M31.9,68C31.8,68,31.8,68,31.9,68c-0.1,0-0.2,0-0.2,0c-0.7-0.1-1.2-0.7-1.1-1.4s0.7-1.2,1.4-1.1
	c0.7,0.1,1.2,0.7,1.2,1.3C33,67.5,32.5,68,31.9,68z"/>
<path id="opacity:80_00000153664705332748302040000009622521008171400075_" fill="#32FFB6" d="M40.7,67.5c-0.6,0-1.1-0.4-1.2-1
	c-0.1-0.7,0.3-1.3,1-1.5c0.7-0.1,1.4,0.3,1.5,1c0.1,0.7-0.2,1.3-0.9,1.5c0,0-0.1,0-0.1,0C40.8,67.4,40.7,67.5,40.7,67.5z"/>
<path id="opacity:8_00000075855532106705011150000000132790374574249614_" fill="#32FFB6" d="M23.1,66.2c-0.1,0-0.3,0-0.4-0.1
	c0,0-0.1,0-0.1,0c-0.6-0.2-1-1-0.7-1.6c0.2-0.6,1-1,1.6-0.7c0.6,0.2,1,1,0.8,1.6C24.1,65.9,23.6,66.2,23.1,66.2z"/>
<path id="opacity:70" fill="#32FFB6" d="M49.1,64.5c-0.4,0-0.9-0.2-1.1-0.6c-0.3-0.6-0.1-1.4,0.5-1.7c0,0,0.1-0.1,0.1-0.1
	c0.6-0.3,1.4-0.1,1.7,0.6c0.3,0.6,0.1,1.4-0.6,1.7l-0.6-1.1l0.5,1.1C49.5,64.4,49.3,64.5,49.1,64.5z"/>
<path id="opacity:9_00000025444818601704760710000016663450197896944547_" fill="#32FFB6" d="M15.1,62.1c-0.2,0-0.5-0.1-0.7-0.2
	c0,0-0.1-0.1-0.1-0.1c-0.6-0.4-0.7-1.2-0.3-1.7c0.4-0.6,1.2-0.7,1.7-0.3c0.6,0.4,0.7,1.2,0.3,1.8C15.9,61.9,15.5,62.1,15.1,62.1z"/>
<path id="opacity:60_00000039815714170603737370000003110387112113246615_" fill="#32FFB6" d="M56.4,59.3c-0.3,0-0.7-0.1-0.9-0.4
	c-0.5-0.5-0.5-1.3,0-1.8c0,0,0.1-0.1,0.1-0.1c0.5-0.5,1.3-0.4,1.8,0.1c0.5,0.5,0.4,1.3-0.1,1.8L56.5,58l0.8,1
	C57,59.2,56.7,59.3,56.4,59.3z"/>
<path id="opacity:9_00000139993012699192791800000015063054589360987312_" fill="#32FFB6" d="M8.6,56.1c-0.4,0-0.7-0.2-1-0.5l1-0.8
	l-1,0.7c-0.4-0.5-0.4-1.3,0.2-1.8c0.5-0.4,1.3-0.4,1.8,0.2c0,0,0.1,0.1,0.1,0.1c0.4,0.5,0.3,1.3-0.2,1.8C9.2,56,8.9,56.1,8.6,56.1z"
	/>
<path id="opacity:45" fill="#32FFB6" d="M62.1,52.4c-0.2,0-0.4-0.1-0.6-0.2c-0.6-0.4-0.8-1.1-0.4-1.7c0,0,0.1-0.1,0.1-0.1
	c0.4-0.6,1.1-0.8,1.7-0.4c0.6,0.4,0.8,1.1,0.4,1.7l-1.1-0.7l1,0.7C62.9,52.2,62.5,52.4,62.1,52.4z"/>
<path id="opacity:12" fill="#32FFB6" d="M3.9,48.4c-0.5,0-0.9-0.3-1.1-0.7c0,0,0-0.1,0-0.1c-0.3-0.6,0-1.4,0.6-1.6
	c0.6-0.3,1.4,0,1.6,0.6c0.3,0.6,0,1.4-0.6,1.7C4.3,48.4,4.1,48.4,3.9,48.4z"/>
<path fill="#32FFB6" d="M65.6,44.3c-0.1,0-0.2,0-0.3,0c-0.7-0.2-1.1-0.9-0.9-1.5c0,0,0-0.1,0-0.1c0.2-0.7,0.9-1.1,1.5-0.9
	c0.7,0.2,1.1,0.9,0.9,1.5l-1.2-0.3l1.2,0.4C66.7,43.9,66.2,44.3,65.6,44.3z"/>
<path id="opavity:18_00000113339382526369652600000003033063878141818250_" fill="#32FFB6" d="M1.6,39.8c-0.6,0-1.2-0.5-1.2-1.1
	l1.2-0.2l-1.3,0.1c-0.1-0.7,0.4-1.3,1.1-1.4c0.7-0.1,1.3,0.4,1.4,1.1c0,0,0,0.1,0,0.1c0.1,0.7-0.4,1.3-1.1,1.4
	C1.7,39.8,1.6,39.8,1.6,39.8z"/>
<path id="opacity:20_00000032617628274966740630000014393050863148212640_" fill="#32FFB6" d="M66.9,35.4c-0.7,0-1.2-0.6-1.2-1.2
	c0,0,0,0,0-0.1c0,0,0,0,0-0.1c0-0.7,0.6-1.3,1.2-1.3s1.2,0.5,1.2,1.2V34c0,0,0,0,0,0s0,0,0,0v0.1C68.1,34.8,67.6,35.4,66.9,35.4z"/>
<path id="opacity:20" fill="#32FFB6" d="M1.5,30.9c-0.1,0-0.1,0-0.2,0c-0.7-0.1-1.2-0.7-1.1-1.4c0,0,0-0.1,0-0.1
	c0.1-0.7,0.7-1.2,1.4-1.1c0.7,0.1,1.2,0.7,1.1,1.4C2.7,30.4,2.2,30.9,1.5,30.9z"/>
<path id="opavity:18" fill="#32FFB6" d="M65.7,26.4c-0.5,0-1-0.3-1.2-0.9c0,0,0-0.1,0-0.1c-0.2-0.7,0.2-1.4,0.9-1.5
	c0.7-0.2,1.4,0.2,1.5,0.9l-1.2,0.3l1.2-0.3c0.2,0.7-0.2,1.4-0.8,1.6C65.9,26.4,65.8,26.4,65.7,26.4z"/>
<path fill="#32FFB6" d="M3.9,22.3c-0.2,0-0.3,0-0.5-0.1c-0.6-0.3-0.9-1-0.6-1.6l1.1,0.5l-1.1-0.6c0.3-0.6,1-0.9,1.6-0.7
	c0.6,0.3,0.9,1,0.7,1.6c0,0,0,0.1,0,0.1C4.9,22,4.4,22.3,3.9,22.3z"/>
<path id="opacity:12_00000137104238766881301030000001405357276691175070_" fill="#32FFB6" d="M62.1,18.2c-0.4,0-0.8-0.2-1.1-0.6
	c-0.4-0.6-0.2-1.4,0.4-1.7c0.6-0.4,1.3-0.2,1.7,0.4c0,0,0.1,0.1,0.1,0.1c0.4,0.6,0.2,1.4-0.4,1.7C62.5,18.2,62.3,18.2,62.1,18.2z"/>
<path id="opacity:60" fill="#32FFB6" d="M8.6,14.6c-0.3,0-0.5-0.1-0.8-0.3c-0.5-0.4-0.7-1.2-0.2-1.7c0,0,0.1-0.1,0.1-0.1
	c0.4-0.5,1.2-0.6,1.8-0.2s0.6,1.2,0.2,1.8C9.3,14.4,8.9,14.6,8.6,14.6z"/>
<path id="opacity:9_00000158024013444529008240000017887025239897281153_" fill="#32FFB6" d="M56.4,11.3c-0.3,0-0.6-0.1-0.9-0.3
	c-0.5-0.5-0.6-1.3-0.1-1.8c0.5-0.5,1.2-0.6,1.7-0.1c0,0,0.1,0.1,0.1,0.1c0.5,0.5,0.5,1.3,0.1,1.8C57.1,11.2,56.8,11.3,56.4,11.3z"/>
<path id="opacity:70_00000115482552331816808620000001574978441765280134_" fill="#32FFB6" d="M14.4,8.4c-0.3-0.2-0.6-0.5-0.6-1
	c-0.1-0.7,0.4-1.3,1.1-1.4l0.1,1.2L15,6c0.7-0.1,1.3,0.4,1.4,1.1c0.1,0.7-0.4,1.3-1.1,1.4c0,0-0.1,0-0.1,0
	C14.9,8.6,14.7,8.5,14.4,8.4z"/>
<path id="opacity:9" fill="#32FFB6" d="M49.1,6.2c-0.2,0-0.4,0-0.6-0.1C48,5.7,47.7,4.9,48,4.3c0.3-0.6,1-0.9,1.6-0.6l0.1,0
	c0.6,0.3,0.9,1.1,0.5,1.7C50,5.9,49.6,6.2,49.1,6.2z"/>
<path id="opacity:80" fill="#32FFB6" d="M23.1,4.4c-0.5,0-1-0.3-1.2-0.8c-0.2-0.6,0.1-1.3,0.7-1.6c0,0,0.1,0,0.1,0
	c0.7-0.2,1.4,0.1,1.6,0.8c0.2,0.7-0.1,1.4-0.8,1.6C23.3,4.4,23.2,4.4,23.1,4.4z"/>
<path id="opacity:8" fill="#32FFB6" d="M40.7,3.2c-0.1,0-0.2,0-0.3,0c-0.7-0.1-1.2-0.8-1-1.5c0.1-0.7,0.7-1.1,1.4-1c0,0,0.1,0,0.1,0
	c0.7,0.1,1.1,0.8,1,1.5C41.8,2.8,41.3,3.2,40.7,3.2z"/>
<path fill="#32FFB6" d="M31.8,2.6c-0.7,0-1.2-0.5-1.3-1.2c0-0.7,0.4-1.3,1.1-1.3c0,0,0.1,0,0.1,0c0.7,0,1.3,0.5,1.3,1.2
	C33.1,1.9,32.6,2.5,31.8,2.6C31.9,2.6,31.8,2.6,31.8,2.6z"/>
</svg>
