<?xml version="1.0" encoding="utf-8"?>
<!-- Generator: Adobe Illustrator 27.2.0, SVG Export Plug-In . SVG Version: 6.00 Build 0)  -->
<svg version="1.1" baseProfile="tiny" id="Layer_1" xmlns="http://www.w3.org/2000/svg" xmlns:xlink="http://www.w3.org/1999/xlink"
	 x="0px" y="0px" viewBox="0 0 20 20" overflow="visible" xml:space="preserve">
<path fill="#A0DDFF" d="M11.9,1.5L11.9,1.5c0,0.2,0.2,0.4,0.4,0.5C15,2.8,17.2,5,18,7.7c0.1,0.2,0.3,0.4,0.5,0.4l0,0
	c0.3,0,0.6-0.3,0.5-0.7c-0.9-3.1-3.3-5.5-6.4-6.4C12.3,0.9,11.9,1.2,11.9,1.5z"/>
<path fill="#A0DDFF" d="M1.5,8.1L1.5,8.1C1.8,8.1,2,7.9,2,7.7C2.8,5,5,2.8,7.7,2c0.2,0,0.4-0.2,0.4-0.5l0,0c0-0.3-0.3-0.6-0.7-0.5
	C4.3,1.9,1.9,4.3,1,7.4C0.9,7.7,1.2,8.1,1.5,8.1z"/>
<path fill="#A0DDFF" d="M18,12.3c-0.8,2.7-3,4.9-5.7,5.7c-0.2,0.1-0.4,0.3-0.4,0.5l0,0c0,0.3,0.3,0.6,0.7,0.5
	c3.1-0.9,5.5-3.3,6.4-6.4c0.1-0.3-0.2-0.7-0.5-0.7l0,0C18.2,11.9,18,12.1,18,12.3z"/>
<path fill="#A0DDFF" d="M1.5,11.9L1.5,11.9c-0.3,0-0.6,0.3-0.5,0.7c0.9,3.1,3.3,5.5,6.4,6.4c0.3,0.1,0.7-0.2,0.7-0.5l0,0
	c0-0.2-0.2-0.4-0.4-0.5C5,17.2,2.8,15,2,12.3C2,12.1,1.8,11.9,1.5,11.9z"/>
<path d="M12.5,1c0,0,0.1,0,0.1,0c3.1,0.9,5.5,3.3,6.4,6.4c0.1,0.4-0.2,0.7-0.5,0.7c-0.2,0-0.4-0.2-0.5-0.4C17.2,5,15,2.8,12.3,2
	c-0.2-0.1-0.4-0.3-0.4-0.5C11.9,1.3,12.2,1,12.5,1 M12.5,0c-0.8,0-1.6,0.7-1.6,1.5c0,0.7,0.5,1.2,1,1.4L12,3L12,3
	c2.4,0.7,4.3,2.6,5,5l0,0.1l0,0.1c0.2,0.4,0.7,1,1.4,1c0.5,0,0.9-0.2,1.2-0.6C20,8.2,20.1,7.7,20,7.2c-1-3.5-3.7-6.1-7.1-7.1
	C12.8,0,12.6,0,12.5,0L12.5,0z"/>
<path d="M7.6,1c0.3,0,0.5,0.3,0.5,0.5C8.1,1.8,7.9,2,7.7,2C5,2.8,2.8,5,2,7.7c0,0.2-0.2,0.4-0.5,0.4S0.9,7.7,1,7.4
	C1.9,4.3,4.3,1.9,7.4,1C7.5,1,7.5,1,7.6,1 M7.6,0C7.4,0,7.3,0,7.2,0c-3.5,1-6.1,3.7-7.1,7.1c-0.1,0.4,0,0.9,0.2,1.3
	c0.3,0.4,0.7,0.7,1.2,0.7c0.8,0,1.4-0.5,1.5-1.2C3.7,5.6,5.6,3.7,7.9,3c0.7-0.1,1.2-0.7,1.2-1.5C9.1,0.7,8.4,0,7.6,0L7.6,0z"/>
<path d="M18.5,11.9c0.3,0,0.6,0.4,0.5,0.7c-0.9,3.1-3.3,5.5-6.4,6.4c-0.1,0-0.1,0-0.2,0c-0.3,0-0.5-0.3-0.5-0.5
	c0-0.2,0.2-0.4,0.4-0.5c2.7-0.8,4.9-3,5.7-5.7C18,12.1,18.2,11.9,18.5,11.9 M18.5,10.9c-0.8,0-1.4,0.5-1.5,1.2
	c-0.7,2.4-2.6,4.2-5,4.9l-0.1,0l-0.1,0c-0.4,0.2-1,0.7-1,1.4c0,0.8,0.7,1.5,1.5,1.5c0.1,0,0.3,0,0.4,0c3.5-1,6.1-3.7,7.1-7.1
	c0.1-0.4,0-0.9-0.2-1.3C19.4,11.2,19,10.9,18.5,10.9L18.5,10.9z"/>
<path d="M1.5,11.9c0.3,0,0.5,0.2,0.5,0.4C2.8,15,5,17.2,7.7,18c0.2,0.1,0.4,0.3,0.4,0.5c0,0.3-0.3,0.5-0.6,0.5c0,0-0.1,0-0.1,0
	c-3.1-0.9-5.5-3.3-6.4-6.4C0.9,12.2,1.2,11.9,1.5,11.9 M1.5,10.9c-0.5,0-0.9,0.2-1.2,0.6c-0.3,0.4-0.4,0.9-0.3,1.4
	c1,3.5,3.7,6.1,7.1,7.1C7.2,20,7.4,20,7.5,20c0.8,0,1.6-0.7,1.6-1.5c0-0.7-0.5-1.2-1-1.4l-0.1,0l-0.1,0c-2.4-0.7-4.3-2.6-5-4.9
	C2.9,11.4,2.3,10.9,1.5,10.9L1.5,10.9z"/>
</svg>
