<?xml version="1.0" encoding="utf-8"?>
<!-- Generator: Adobe Illustrator 27.8.0, SVG Export Plug-In . SVG Version: 6.00 Build 0)  -->
<svg version="1.1" baseProfile="tiny" id="Layer_1" xmlns="http://www.w3.org/2000/svg" xmlns:xlink="http://www.w3.org/1999/xlink"
	 x="0px" y="0px" viewBox="0 0 18 18" overflow="visible" xml:space="preserve">
<path fill="#A0DDFF" d="M10.9,0.5L10.9,0.5c0,0.2,0.2,0.4,0.4,0.5C14,1.8,16.2,4,17,6.7c0.1,0.2,0.3,0.4,0.5,0.4h0
	c0.3,0,0.6-0.3,0.5-0.7c-0.9-3.1-3.3-5.5-6.4-6.4C11.3-0.1,10.9,0.2,10.9,0.5z"/>
<path fill="#A0DDFF" d="M0.5,7.1L0.5,7.1C0.8,7.1,1,6.9,1,6.7C1.8,4,4,1.8,6.7,1C6.9,1,7.1,0.8,7.1,0.5v0c0-0.3-0.3-0.6-0.7-0.5
	C3.3,0.9,0.9,3.3,0,6.4C-0.1,6.7,0.2,7.1,0.5,7.1z"/>
<path fill="#A0DDFF" d="M17,11.3C16.2,14,14,16.2,11.3,17c-0.2,0.1-0.4,0.3-0.4,0.5v0c0,0.3,0.3,0.6,0.7,0.5
	c3.1-0.9,5.5-3.3,6.4-6.4c0.1-0.3-0.2-0.7-0.5-0.7h0C17.2,10.9,17,11.1,17,11.3z"/>
<path fill="#A0DDFF" d="M0.5,10.9L0.5,10.9c-0.3,0-0.6,0.3-0.5,0.7c0.9,3.1,3.3,5.5,6.4,6.4c0.3,0.1,0.7-0.2,0.7-0.5v0
	c0-0.2-0.2-0.4-0.4-0.5C4,16.2,1.8,14,1,11.3C1,11.1,0.8,10.9,0.5,10.9z"/>
</svg>
