<?xml version="1.0" encoding="utf-8"?>
<!-- Generator: Adobe Illustrator 27.8.0, SVG Export Plug-In . SVG Version: 6.00 Build 0)  -->
<svg version="1.1" baseProfile="tiny" id="Layer_1" xmlns="http://www.w3.org/2000/svg" xmlns:xlink="http://www.w3.org/1999/xlink"
	 x="0px" y="0px" viewBox="0 0 157.1 100.8" overflow="visible" xml:space="preserve">
<path fill="#8DCCFF" d="M157.1,30.7c0,9,0,9.2,0,9.2s0,20.6,0,30.2c0,26.4-13.7,30.7-34.7,30.7h0c-1.3,0-2.5-1-2.6-2.3l-0.2-1.6
	c-0.3-3.1-2.9-5.5-6.1-5.5h-70c-3.1,0-5.7,2.4-6.1,5.5l-0.2,1.6c-0.1,1.3-1.3,2.3-2.6,2.3h0c-21,0-34.7-4.3-34.7-30.7V51.5
	c0-6.4,0-11.5,0-11.5s0-0.3,0-9.2C0,4.3,13.7,0,34.7,0h87.7C143.4,0,157.1,4.3,157.1,30.7z"/>
</svg>
