<?xml version="1.0" encoding="utf-8"?>
<!-- Generator: Adobe Illustrator 27.8.0, SVG Export Plug-In . SVG Version: 6.00 Build 0)  -->
<svg version="1.1" baseProfile="tiny" id="Layer_1" xmlns="http://www.w3.org/2000/svg" xmlns:xlink="http://www.w3.org/1999/xlink"
	 x="0px" y="0px" viewBox="0 0 64 64" overflow="visible" xml:space="preserve">
<path fill="#FFFFFF" d="M46,30.2c-7.7,0-14,6.3-14,14c0,7.7,6.3,14,14,14c7.8,0,14-6.3,14-14C60,36.5,53.7,30.2,46,30.2z M54.5,41.9
	l-9.3,9.3c-0.4,0.4-1,0.7-1.6,0.7c-0.6,0-1.2-0.2-1.6-0.7l-5.5-5.5c-0.9-0.9-0.9-2.3,0-3.2c0.9-0.9,2.3-0.9,3.2,0l3.9,3.9l7.7-7.7
	c0.9-0.9,2.3-0.9,3.2,0C55.4,39.5,55.4,41,54.5,41.9z"/>
<path fill="#FFFFFF" d="M38.9,27c-4.1,1.5-6.9,4-9,7.5c-0.4,0.7-2.5,4.6-2.5,9c0,4.1,1.6,7.8,3.1,9.9l-1.1,7.9
	c-0.2,1.5-1.5,2.7-3.1,2.7H19c-1.5,0-2.8-1.1-3-2.7l-4.2-30.9l-3,15.5c-0.3,1.5-1.6,2.5-3,2.5c-0.2,0-0.4,0-0.6-0.1
	c-1.7-0.3-2.8-1.9-2.4-3.6l3-15.5c0.9-4.4,4.3-7.8,8.7-8.7c2.2,1.7,4.8,2.6,6.3,2.9h0c2.8,0.5,5,0.3,8-0.9c0.6-0.2,1.1-0.5,1.6-0.8
	c0.5-0.3,0.9-0.6,1.3-0.9C34.9,21.5,37.6,23.8,38.9,27z"/>
<g>
	<g>
		<path fill="#FFFFFF" d="M32.6,9.5c0,5.3-4.3,9.5-9.5,9.5c-5.3,0-9.5-4.3-9.5-9.5c0-5.3,4.3-9.5,9.5-9.5C28.4,0,32.6,4.3,32.6,9.5z
			"/>
	</g>
</g>
</svg>
