<?xml version="1.0" encoding="utf-8"?>
<!-- Generator: Adobe Illustrator 27.8.0, SVG Export Plug-In . SVG Version: 6.00 Build 0)  -->
<svg version="1.1" baseProfile="tiny" id="Layer_1" xmlns="http://www.w3.org/2000/svg" xmlns:xlink="http://www.w3.org/1999/xlink"
	 x="0px" y="0px" viewBox="0 0 64 64" overflow="visible" xml:space="preserve">
<g id="BG">
</g>
<g id="scratch">
</g>
<g id="ring_x5F_greeble">
</g>
<g id="Layer_20">
</g>
<g id="Layer_21">
</g>
<g id="greeble_04">
</g>
<g id="greeble_05">
</g>
<g id="greeble_08" display="none">
</g>
<g id="ring_greeble">
</g>
<g id="sub_menu_button">
</g>
<g id="big_button">
	<g>
		<g>
			<path fill="#FFFFFF" d="M31.4,32.3l-4.3,4.4l-3.8-3.9c1.4-1.5,2.4-3.4,3.1-5.4c0.3,0.2,0.5,0.4,0.7,0.6L31.4,32.3z"/>
			<path fill="#FFFFFF" d="M51.3,36.3v-4.2h-3.7c-0.2,0-0.4,0.2-0.6,0.2l-5.4,5.4l-2.3,2.4L27.1,52.1c-1.3,1.3-3.1,2.1-5,2.1h-7.5
				V48h7.5c0.2,0,0.4,0,0.6-0.2L42.5,28c1.3-1.3,3.1-2.1,5-2.1h3.7v-4.2L64,29L51.3,36.3z"/>
			<path fill="#FFFFFF" d="M51.3,58.4v-4.2h-3.7c-1.9,0-3.7-0.8-5-2.1L38.3,48l4.3-4.5l4.3,4.3c0.2,0.2,0.4,0.2,0.6,0.2h3.7v-4.2
				L64,51.1L51.3,58.4z"/>
		</g>
	</g>
</g>
<g id="yellow_button">
</g>
<g id="menu_bar">
</g>
<g id="scroll_bar_01">
</g>
<path fill="#FFFFFF" d="M11.6,10.9C5.2,10.9,0,16.1,0,22.5C0,29,5.2,34.2,11.6,34.2c6.4,0,11.6-5.2,11.6-11.6
	C23.3,16.1,18.1,10.9,11.6,10.9z M17.7,28.7h-3c-0.1,0-0.2-0.1-0.3-0.2L14,26.8c0,0-0.1-0.1-0.1-0.1H9.4c0,0-0.1,0-0.1,0.1l-0.5,1.7
	c0,0.1-0.1,0.2-0.3,0.2h-3c-0.1,0-0.1,0-0.2-0.1c0,0,0-0.1,0-0.2l4.2-13.2c0-0.1,0.1-0.2,0.3-0.2h3.7c0.1,0,0.2,0.1,0.2,0.2
	l4.2,13.2c0,0,0,0,0,0.1C17.9,28.7,17.9,28.7,17.7,28.7z"/>
<path fill="#FFFFFF" d="M11.7,19.1l1.5,5c0,0.1,0,0.1-0.1,0.1h-2.9c-0.1,0-0.1,0-0.1-0.1l1.5-5C11.6,19.1,11.6,19.1,11.7,19.1
	C11.6,19,11.7,19.1,11.7,19.1z"/>
</svg>
