<?xml version="1.0" encoding="utf-8"?>
<!-- Generator: Adobe Illustrator 27.8.0, SVG Export Plug-In . SVG Version: 6.00 Build 0)  -->
<svg version="1.1" baseProfile="tiny" id="Layer_1" xmlns="http://www.w3.org/2000/svg" xmlns:xlink="http://www.w3.org/1999/xlink"
	 x="0px" y="0px" viewBox="0 0 64 64" overflow="visible" xml:space="preserve">
<path fill="#FFFFFF" d="M58.2,22.8H43.8V7c0-3.9-3.2-7-7-7H7.1C3.2,0,0,3.2,0,7v29.7c0,3.9,3.1,7,7,7h15.7v14.5
	c0,3.2,2.6,5.8,5.8,5.8h29.7c3.2,0,5.7-2.6,5.7-5.8V28.5C64,25.3,61.4,22.8,58.2,22.8z M38.7,52.4l4.5-4.5l-4.7-4.7
	c-1.2-1.2-2.9-1.9-4.6-1.9H7.1c-2.5,0-4.5-2-4.5-4.5V7c0-2.5,2-4.5,4.5-4.5h29.7c2.5,0,4.5,2,4.5,4.5v26.3c0,1.7,0.7,3.4,1.9,4.6
	l5,5l4.5-4.5c0.3-0.3,0.9-0.1,0.9,0.4l0.2,12.9c0,1-0.8,1.8-1.8,1.8l-12.9-0.2C38.6,53.3,38.4,52.7,38.7,52.4z"/>
<path fill="#32FF7E" d="M32.8,34.9H10.9c-1.1,0-2-0.9-2-2V10.9c0-1.1,0.9-2,2-2h21.9c1.1,0,2,0.9,2,2v21.9
	C34.9,34,34,34.9,32.8,34.9z"/>
</svg>
