<?xml version="1.0" encoding="utf-8"?>
<!-- Generator: Adobe Illustrator 27.8.0, SVG Export Plug-In . SVG Version: 6.00 Build 0)  -->
<svg version="1.1" baseProfile="tiny" id="Layer_1" xmlns="http://www.w3.org/2000/svg" xmlns:xlink="http://www.w3.org/1999/xlink"
	 x="0px" y="0px" viewBox="0 0 64 64" overflow="visible" xml:space="preserve">
<path fill="#7AFFAC" d="M1.3,15.5c-0.7,0-1.3-0.6-1.3-1.3v-1.3C0,5.8,5.8,0,12.9,0h1.3c0.7,0,1.3,0.6,1.3,1.3s-0.6,1.3-1.3,1.3h-1.3
	C7.2,2.5,2.5,7.2,2.5,12.9v1.3C2.5,14.9,2,15.5,1.3,15.5z"/>
<path fill="#7AFFAC" d="M14.2,64h-1.3C5.8,64,0,58.2,0,51.1v-1.3c0-0.7,0.6-1.3,1.3-1.3s1.3,0.6,1.3,1.3v1.3
	c0,5.7,4.7,10.4,10.4,10.4h1.3c0.7,0,1.3,0.6,1.3,1.3C15.5,63.4,14.9,64,14.2,64z"/>
<path fill="#7AFFAC" d="M62.7,15.5c-0.7,0-1.3-0.6-1.3-1.3v-1.3c0-5.7-4.7-10.4-10.4-10.4h-1.3c-0.7,0-1.3-0.6-1.3-1.3
	S49.1,0,49.8,0h1.3C58.2,0,64,5.8,64,12.9v1.3C64,14.9,63.4,15.5,62.7,15.5z"/>
<path fill="#7AFFAC" d="M51.1,64h-1.3c-0.7,0-1.3-0.6-1.3-1.3s0.6-1.3,1.3-1.3h1.3c5.7,0,10.4-4.7,10.4-10.4v-1.3
	c0-0.7,0.6-1.3,1.3-1.3s1.3,0.6,1.3,1.3V51C64,58.2,58.2,64,51.1,64z"/>
</svg>
