<?xml version="1.0" encoding="utf-8"?>
<!-- Generator: Adobe Illustrator 27.8.0, SVG Export Plug-In . SVG Version: 6.00 Build 0)  -->
<svg version="1.1" baseProfile="tiny" id="Layer_1" xmlns="http://www.w3.org/2000/svg" xmlns:xlink="http://www.w3.org/1999/xlink"
	 x="0px" y="0px" viewBox="0 0 64 64" overflow="visible" xml:space="preserve">
<circle fill="#7AFFAC" cx="38.6" cy="20.3" r="3.3"/>
<path fill="#7AFFAC" d="M41.9,29.4v8.8L42.8,51h-2.5l-0.7-10.7c0-0.5-0.5-0.9-1-0.9s-0.9,0.4-1,0.9L36.9,51h-2.5l0.8-12.8v-1.6
	l4.5-2.3l-4-7.8h5.8c1,0,2,0.6,2.5,1.5l3.7,7.1l-2.1,1.1L41.9,29.4z"/>
<circle fill="#3C4B37" cx="26.5" cy="16.6" r="3.6"/>
<path fill="#3C4B37" d="M30.3,26.7v9.9l0,0L31.2,51h-2.8l-0.8-12c0-0.6-0.5-1-1.1-1l0,0c-0.6,0-1.1,0.4-1.1,1l-0.8,12h-2.8l1-14.4
	v-9.9l-3.9,7.6l-2.4-1.2l4.1-7.9c0.5-1,1.6-1.7,2.8-1.7h6.5c1.2,0,2.2,0.6,2.8,1.7l4.1,7.9l-2.4,1.2L30.3,26.7z"/>
</svg>
