<?xml version="1.0" encoding="utf-8"?>
<!-- Generator: Adobe Illustrator 27.8.0, SVG Export Plug-In . SVG Version: 6.00 Build 0)  -->
<svg version="1.1" baseProfile="tiny" id="Layer_1" xmlns="http://www.w3.org/2000/svg" xmlns:xlink="http://www.w3.org/1999/xlink"
	 x="0px" y="0px" viewBox="0 0 64 64" overflow="visible" xml:space="preserve">
<path fill="#FFFFFF" d="M11.1,20.7l2.7,37.3c0.2,3.3,3,5.9,6.4,5.9h23.8c3.4,0,6.1-2.6,6.4-5.9l2.7-37.3H11.1z M42.2,48.9
	c0.8,0.8,0.8,2.2,0,3c-0.4,0.4-1,0.6-1.5,0.6c-0.6,0-1.1-0.2-1.5-0.6L32,44.8L24.9,52c-0.4,0.4-1,0.6-1.5,0.6
	c-0.6,0-1.1-0.2-1.5-0.6c-0.8-0.8-0.8-2.2,0-3l7.1-7.1l-7.1-7.1c-0.8-0.8-0.8-2.2,0-3c0.8-0.8,2.2-0.8,3,0l7.1,7.1l7.1-7.1
	c0.8-0.8,2.2-0.8,3,0c0.8,0.8,0.8,2.2,0,3L35,41.8L42.2,48.9z"/>
<path fill="#FFFFFF" d="M56.9,11.8c-0.4-0.4-0.9-0.6-1.5-0.6h-9.5v-8c0-1.7-1.4-3.2-3.2-3.2H21.3c-1.8,0-3.2,1.4-3.2,3.2v8H8.6
	c-1.2,0-2.1,0.9-2.1,2.1c0,0.6,0.2,1.1,0.6,1.5c0.4,0.4,0.9,0.6,1.5,0.6h46.8c1.2,0,2.1-0.9,2.1-2.1C57.5,12.7,57.2,12.2,56.9,11.8z
	 M22.6,4.5h18.7v6.7H22.6V4.5z"/>
</svg>
