<?xml version="1.0" encoding="utf-8"?>
<!-- Generator: Adobe Illustrator 27.8.0, SVG Export Plug-In . SVG Version: 6.00 Build 0)  -->
<svg version="1.1" baseProfile="tiny" id="Layer_1" xmlns="http://www.w3.org/2000/svg" xmlns:xlink="http://www.w3.org/1999/xlink"
	 x="0px" y="0px" viewBox="0 0 64 64" overflow="visible" xml:space="preserve">
<path fill="#FFFFFF" d="M63.4,53.3L36.1,6c-1.8-3.1-6.3-3.1-8.1,0L0.6,53.3c-1.8,3.1,0.5,7,4.1,7h54.6
	C62.9,60.3,65.2,56.4,63.4,53.3z M28.5,21.7h7c0.4,0,0.6,0.2,0.6,0.7l-0.8,18.8c0,0.2-0.1,0.4-0.2,0.5c-0.1,0.1-0.3,0.2-0.5,0.2
	h-5.3c-0.2,0-0.4-0.1-0.5-0.2c-0.1-0.1-0.2-0.3-0.2-0.5l-0.8-18.8C27.9,22,28.1,21.7,28.5,21.7z M35,51.7c-0.8,0.8-1.8,1.2-3,1.2
	c-1.2,0-2.2-0.4-3-1.2c-0.8-0.8-1.2-1.8-1.2-3c0-1.2,0.4-2.3,1.2-3c0.8-0.8,1.8-1.2,3-1.2c1.2,0,2.2,0.4,3,1.2
	c0.8,0.8,1.2,1.8,1.2,3C36.2,49.9,35.8,50.9,35,51.7z"/>
</svg>
