<?xml version="1.0" encoding="utf-8"?>
<!-- Generator: Adobe Illustrator 28.7.1, SVG Export Plug-In . SVG Version: 9.03 Build 54978)  -->
<svg version="1.1" baseProfile="tiny" id="Layer_1" xmlns="http://www.w3.org/2000/svg" xmlns:xlink="http://www.w3.org/1999/xlink"
	 x="0px" y="0px" viewBox="0 0 226.11 64" overflow="visible" xml:space="preserve">
<path fill="#BC519E" d="M0,31.32c0-3.79,0.31-7.54,0.92-11.27c0.61-3.73,1.61-7.3,3.01-10.71C5.32,5.92,7.19,2.81,9.52,0h11.09
	c-3.13,4.35-5.4,9.28-6.8,14.78c-1.41,5.5-2.11,10.99-2.11,16.48c0,3.6,0.31,7.24,0.92,10.9c0.61,3.66,1.57,7.2,2.87,10.61
	c1.3,3.41,2.99,6.53,5.05,9.37H9.52c-2.34-2.72-4.2-5.76-5.59-9.11c-1.39-3.36-2.4-6.88-3.01-10.56C0.31,38.77,0,35.06,0,31.32z
	 M24.99,31.32c0-3.79,0.31-7.54,0.92-11.27s1.61-7.3,3.01-10.71c1.39-3.41,3.26-6.52,5.59-9.34H45.6c-3.13,4.35-5.4,9.28-6.8,14.78
	c-1.41,5.5-2.11,10.99-2.11,16.48c0,3.6,0.31,7.24,0.92,10.9c0.61,3.66,1.57,7.2,2.87,10.61c1.3,3.41,2.99,6.53,5.05,9.37H34.52
	c-2.34-2.72-4.2-5.76-5.59-9.11c-1.39-3.36-2.4-6.88-3.01-10.56S24.99,35.06,24.99,31.32z M99.37,26.19c0,3.83-0.46,7.32-1.38,10.46
	c-0.92,3.14-2.35,5.84-4.3,8.11c-1.95,2.27-4.45,4.01-7.52,5.22c-3.06,1.21-6.72,1.82-10.98,1.82c-4.17,0-7.78-0.61-10.83-1.82
	c-3.05-1.21-5.56-2.95-7.53-5.2c-1.97-2.26-3.43-4.96-4.39-8.11c-0.95-3.15-1.43-6.67-1.43-10.54c0-5.17,0.86-9.66,2.57-13.48
	c1.71-3.82,4.36-6.78,7.94-8.88c3.58-2.1,8.16-3.15,13.74-3.15c5.67,0,10.27,1.05,13.82,3.16c3.55,2.11,6.15,5.08,7.8,8.91
	C98.54,16.52,99.37,21.02,99.37,26.19z M65.15,26.19c0,2.99,0.34,5.57,1.02,7.72c0.68,2.15,1.76,3.81,3.23,4.96
	c1.47,1.16,3.4,1.73,5.78,1.73c2.47,0,4.44-0.58,5.9-1.73c1.46-1.16,2.52-2.81,3.16-4.96c0.65-2.15,0.97-4.73,0.97-7.72
	c0-4.49-0.75-8.04-2.24-10.64c-1.5-2.61-4.07-3.91-7.72-3.91c-2.43,0-4.38,0.59-5.87,1.77c-1.49,1.18-2.56,2.86-3.23,5.03
	C65.49,20.61,65.15,23.19,65.15,26.19z M137.93,64h-35.09v-8.37h35.09V64z M176.15,26.32c0,3.99-0.32,7.56-0.95,10.69
	s-1.65,5.81-3.04,8.01c-1.39,2.2-3.24,3.88-5.53,5.03c-2.29,1.16-5.1,1.73-8.43,1.73c-4.15,0-7.55-1.01-10.2-3.04
	c-2.65-2.03-4.61-4.94-5.87-8.74c-1.26-3.8-1.89-8.36-1.89-13.69c0-5.37,0.57-9.97,1.72-13.79c1.15-3.82,3.03-6.75,5.66-8.79
	c2.63-2.04,6.15-3.06,10.58-3.06c4.15,0,7.54,1.01,10.18,3.04c2.64,2.03,4.6,4.95,5.87,8.77C175.52,16.32,176.15,20.93,176.15,26.32
	z M153.6,26.32c0,3.24,0.12,5.96,0.36,8.16c0.24,2.2,0.69,3.85,1.36,4.95c0.67,1.1,1.63,1.65,2.87,1.65c1.25,0,2.2-0.55,2.86-1.65
	c0.66-1.1,1.11-2.74,1.36-4.93c0.25-2.19,0.37-4.91,0.37-8.18c0-3.29-0.12-6.03-0.37-8.23c-0.25-2.2-0.7-3.86-1.36-4.98
	c-0.66-1.12-1.61-1.68-2.86-1.68c-1.25,0-2.2,0.56-2.87,1.68c-0.67,1.12-1.12,2.78-1.36,4.98C153.72,20.29,153.6,23.03,153.6,26.32z
	 M201.11,31.32c0,3.74-0.31,7.45-0.92,11.14c-0.61,3.68-1.61,7.2-3.01,10.56c-1.39,3.35-3.27,6.39-5.63,9.11h-11.02
	c2.08-2.83,3.77-5.96,5.07-9.37c1.29-3.41,2.25-6.95,2.86-10.61c0.61-3.66,0.92-7.29,0.92-10.9c0-3.67-0.31-7.35-0.92-11.04
	c-0.61-3.68-1.57-7.25-2.87-10.69c-1.3-3.45-3.01-6.62-5.12-9.52h11.09c2.36,2.81,4.23,5.92,5.63,9.34
	c1.39,3.41,2.4,6.98,3.01,10.71C200.81,23.78,201.11,27.53,201.11,31.32z M226.11,31.32c0,3.74-0.31,7.45-0.92,11.14
	c-0.61,3.68-1.61,7.2-3.01,10.56c-1.39,3.35-3.27,6.39-5.63,9.11h-11.02c2.08-2.83,3.77-5.96,5.07-9.37
	c1.29-3.41,2.25-6.95,2.86-10.61c0.61-3.66,0.92-7.29,0.92-10.9c0-3.67-0.31-7.35-0.92-11.04c-0.61-3.68-1.57-7.25-2.87-10.69
	c-1.3-3.45-3.01-6.62-5.12-9.52h11.09c2.36,2.81,4.23,5.92,5.63,9.34c1.39,3.41,2.4,6.98,3.01,10.71
	C225.8,23.78,226.11,27.53,226.11,31.32z"/>
</svg>
