<?xml version="1.0" encoding="utf-8"?>
<!-- Generator: Adobe Illustrator 28.7.1, SVG Export Plug-In . SVG Version: 9.03 Build 54978)  -->
<svg version="1.1" baseProfile="tiny" id="Layer_1" xmlns="http://www.w3.org/2000/svg" xmlns:xlink="http://www.w3.org/1999/xlink"
	 x="0px" y="0px" viewBox="0 0 437.4 64" overflow="visible" xml:space="preserve">
<path fill="#C74D9C" d="M301.15,23.49L286.5,0h18.79l7.28,13.46L320.02,0h18.84l-15.03,23.49l15.62,24.47h-18.79l-8.09-14.56
	l-8.04,14.56H285.7L301.15,23.49z M383.39,64h-43.68V53.59h43.68V64z M399.09,23.49L384.45,0h18.79l7.28,13.46L417.97,0h18.84
	l-15.03,23.49l15.62,24.47h-18.79l-8.09-14.56l-8.04,14.56h-18.84L399.09,23.49z M0,31.32V18.12h23.92v13.21H0z M27.56,31.32V18.12
	h23.92v13.21H27.56z M55.11,31.32V18.12h23.92v13.21H55.11z M82.67,31.32V18.12h23.92v13.21H82.67z M110.22,31.32V18.12h23.92v13.21
	H110.22z M137.78,31.32V18.12h23.92v13.21H137.78z M165.33,31.32V18.12h23.92v13.21H165.33z M192.89,31.32V18.12h23.92v13.21H192.89
	z M220.45,31.32V18.12h23.91v13.21H220.45z"/>
</svg>
