<?xml version="1.0" encoding="utf-8"?>
<!-- Generator: Adobe Illustrator 27.8.0, SVG Export Plug-In . SVG Version: 6.00 Build 0)  -->
<svg version="1.1" id="Layer_1" xmlns="http://www.w3.org/2000/svg" xmlns:xlink="http://www.w3.org/1999/xlink" x="0px" y="0px"
	 viewBox="0 0 64 64" style="enable-background:new 0 0 64 64;" xml:space="preserve">
<style type="text/css">
	.st0{fill:#FFF100;}
</style>
<polygon class="st0" points="14.7,28.9 9.6,28.9 6.9,26 25.7,7.2 28.6,10 28.6,14.9 26.1,17.4 23.4,17.5 16.9,24 16.8,26.7 "/>
<rect x="28.3" y="2.2" transform="matrix(0.7071 0.7071 -0.7071 0.7071 13.5368 -20.9025)" class="st0" width="7.3" height="7.3"/>
<rect x="28.3" y="54.9" transform="matrix(0.7071 0.7071 -0.7071 0.7071 50.6008 -5.3809)" class="st0" width="7" height="7"/>
<rect x="55.3" y="28.8" transform="matrix(-0.7071 0.7071 -0.7071 -0.7071 122.6834 13.2924)" class="st0" width="6.6" height="6.6"/>
<rect x="2.2" y="28.6" transform="matrix(-0.7071 0.7071 -0.7071 -0.7071 32.2425 50.7659)" class="st0" width="6.9" height="6.9"/>
<polygon class="st0" points="35.7,15 35.6,9.9 38.5,7.2 57.3,26 54.5,29 49.6,28.9 47.1,26.5 47.1,23.7 40.6,17.2 37.8,17.2 "/>
<polygon class="st0" points="49.2,35.4 54.3,35.3 57,38.2 38.2,57 35.3,54.2 35.3,49.3 37.8,46.8 40.5,46.8 47,40.3 47.1,37.5 "/>
<polygon class="st0" points="28.5,49 28.6,54.1 25.7,56.8 6.9,38 9.7,35 14.6,35.1 17.1,37.5 17.1,40.3 23.6,46.8 26.4,46.8 "/>
</svg>
