<?xml version="1.0" encoding="utf-8"?>
<!-- Generator: Adobe Illustrator 27.7.0, SVG Export Plug-In . SVG Version: 6.00 Build 0)  -->
<svg version="1.1" id="Layer_1" xmlns="http://www.w3.org/2000/svg" xmlns:xlink="http://www.w3.org/1999/xlink" x="0px" y="0px"
	 viewBox="0 0 256 256" style="enable-background:new 0 0 256 256;" xml:space="preserve">
<style type="text/css">
	.st0{fill:#97ECF0;}
</style>
<path class="st0" d="M255.8,0.2l-5,40.3h-4.2l-1.2-4.1c-2.7-13-12.8-23.1-25.8-25.8l-4.1-1.2V5.2L255.8,0.2z M245.3,219.5
	c-2.7,13-12.8,23.1-25.8,25.8l-4.1,1.2v4.2l40.3,5l-5-40.3h-4.2L245.3,219.5z M10.7,219.5l-1.2-4.1H5.2l-5,40.3l40.3-5v-4.2
	l-4.1-1.2C23.5,242.6,13.4,232.5,10.7,219.5z M10.7,36.5c2.7-13,12.8-23.1,25.8-25.8l4.1-1.2V5.2l-40.3-5l5,40.3h4.2L10.7,36.5z
	 M40.6,215.4h9.9v-9.9h-9.9V215.4z M215.4,205.5h-9.9v9.9h9.9V205.5z M40.6,50.5h9.9v-9.9h-9.9V50.5z M215.4,40.6h-9.9v9.9h9.9V40.6
	z"/>
</svg>
