<?xml version="1.0" encoding="utf-8"?>
<!-- Generator: Adobe Illustrator 25.4.1, SVG Export Plug-In . SVG Version: 6.00 Build 0)  -->
<svg version="1.1" baseProfile="tiny" xmlns="http://www.w3.org/2000/svg" xmlns:xlink="http://www.w3.org/1999/xlink" x="0px"
	 y="0px" viewBox="0 0 64 64" overflow="visible" xml:space="preserve">
<g id="BG">
</g>
<g id="_x30_0">
</g>
<g id="scratch">
</g>
<g id="Main">
	
		<image width="1024" height="1024" xlink:href="../../../../../Objects/UI/3D_Icons/!source/ui_icon_vehicle_player.jpg"  transform="matrix(6.250000e-02 0 0 6.250000e-02 5.454780e-04 8.823401e-04)">
	</image>
	<g>
		<path fill="#FFFFFF" d="M32,0C14.3,0,0,14.3,0,32c0,17.7,14.3,32,32,32c17.7,0,32-14.3,32-32C64,14.3,49.7,0,32,0z M32,62.1
			C15.4,62.1,1.9,48.6,1.9,32C1.9,15.4,15.4,1.9,32,1.9c16.6,0,30.1,13.5,30.1,30.1C62.1,48.6,48.6,62.1,32,62.1z"/>
		<g>
			<g>
				<g>
					<polygon fill="#FFFFFF" points="40,48.4 40,53.2 34.3,54.7 34.3,45.3 32.3,44.3 31.6,47 29.4,48 27.2,47 26.4,44.3 24.5,45.3 
						24.5,54.7 18.8,53.2 18.8,48.4 20.8,45.7 20.8,41.3 21.5,39.9 20.5,39.2 19.1,40.1 8.8,41.5 8.8,32 10.4,31 11.5,34.4 
						23.6,26.1 26.5,9.3 32.3,9.3 35.3,26.4 26.2,32.4 37.5,40.3 37.6,40.4 38,41.3 38,45.7 					"/>
				</g>
			</g>
		</g>
		<g>
			<polygon fill="#FFFFFF" points="58.4,29 58.4,36 46.7,36 46.7,41.6 33.6,32.5 46.7,23.4 46.7,29 			"/>
		</g>
	</g>
</g>
<g id="_x30_1">
</g>
</svg>
