<?xml version="1.0" encoding="utf-8"?>
<!-- Generator: Adobe Illustrator 25.4.1, SVG Export Plug-In . SVG Version: 6.00 Build 0)  -->
<svg version="1.1" baseProfile="tiny" xmlns="http://www.w3.org/2000/svg" xmlns:xlink="http://www.w3.org/1999/xlink" x="0px"
	 y="0px" viewBox="0 0 64 64" overflow="visible" xml:space="preserve">
<g id="Imagery" display="none">
	
		<image display="inline" width="1024" height="1024" xlink:href="../../../../../Objects/UI/3D_Icons/!source/ui_icon_hacking.jpg"  transform="matrix(6.250000e-02 0 0 6.250000e-02 -1.207687e-05 6.421316e-06)">
	</image>
</g>
<g id="Main" display="none">
	<rect x="-1088" y="-276" display="inline" fill="#3F3F3F" width="2056" height="446"/>
	<g>
		<rect x="-10" display="inline" fill="#FF5050" width="10" height="10"/>
	</g>
</g>
<g id="_x30_1">
	<g>
		<path fill="#FFFFFF" d="M21.2,27.3v23.8c0,2.4,1.2,3.7,3.6,3.7l14.7-0.2c2.4,0,3.3-1.3,3.3-3.6V27.1L21.2,27.3z M29.8,51.1l0-11.2
			h-3l2.3-10h8.5l-2.4,6.2H40L29.8,51.1z"/>
		<path fill="#FFFFFF" d="M42.7,23.6H21.1V9.1h21.5V23.6z M24.1,21.1h15.6v-9.4H24.1V21.1z"/>
		<g>
			<rect x="28" y="14.7" fill="#FFFFFF" width="2.7" height="2.7"/>
			<rect x="33.3" y="14.7" fill="#FFFFFF" width="2.7" height="2.7"/>
		</g>
	</g>
</g>
<g id="RINGS" display="none">
	<path display="inline" fill="#FFFFFF" d="M32,0C14.3,0,0,14.3,0,32c0,17.7,14.3,32,32,32c17.7,0,32-14.3,32-32C64,14.3,49.7,0,32,0
		z M32,62.1C15.4,62.1,1.9,48.6,1.9,32C1.9,15.4,15.4,1.9,32,1.9c16.6,0,30.1,13.5,30.1,30.1C62.1,48.6,48.6,62.1,32,62.1z"/>
</g>
</svg>
