<?xml version="1.0" encoding="utf-8"?>
<!-- Generator: Adobe Illustrator 25.4.1, SVG Export Plug-In . SVG Version: 6.00 Build 0)  -->
<svg version="1.1" baseProfile="tiny" xmlns="http://www.w3.org/2000/svg" xmlns:xlink="http://www.w3.org/1999/xlink" x="0px"
	 y="0px" viewBox="0 0 64 64" overflow="visible" xml:space="preserve">
<g id="Imagery" display="none">
	
		<image display="inline" width="1024" height="1024" xlink:href="../../../../../Objects/UI/3D_Icons/!source/ui_icon_enemy.jpg"  transform="matrix(6.250000e-02 0 0 6.250000e-02 -2.516266e-05 9.654868e-06)">
	</image>
</g>
<g id="Main" display="none">
	<rect x="-1606" y="-276" display="inline" fill="#3F3F3F" width="2056" height="446"/>
</g>
<g id="_x30_1">
	<path fill="#FFFFFF" d="M47.7,37.4l-7.2,4.7l-5.3-2.3l0.1-4.7l10.9-2.5L48,32L47,26.1L45.8,26l1.4-8.7l-0.1-1.2
		c-2.3-2.4-4.8-4.4-7.3-5.2C36.4,9.8,32,9.5,32,9.5s0,0,0,0c0,0,0,0,0,0s-4.4,0.3-7.7,1.4c-2.5,0.8-5,2.8-7.3,5.2l-0.1,1.2l1.4,8.7
		L17,26.1L16.1,32l1.7,0.7l10.9,2.5l0.1,4.7l-5.3,2.3l-7.2-4.7l-1.2,4.3l5.3,5.9l3.5,1l2.6,4.3h11l2.6-4.3l3.5-1l5.3-5.9L47.7,37.4z
		 M35,46.9h-2.7h-0.6H29l-0.7-1.6l2-3.4h1.4h0.6h1.4l2,3.4L35,46.9z"/>
</g>
<g id="RINGS" display="none">
	<path display="inline" fill="#FFFFFF" d="M34,0C16.3,0,2,14.3,2,32c0,17.7,14.3,32,32,32c17.7,0,32-14.3,32-32C66,14.3,51.7,0,34,0
		z M34,62.1C17.4,62.1,3.9,48.6,3.9,32C3.9,15.4,17.4,1.9,34,1.9c16.6,0,30.1,13.5,30.1,30.1C64.1,48.6,50.6,62.1,34,62.1z"/>
</g>
</svg>
