<?xml version="1.0" encoding="utf-8"?>
<!-- Generator: Adobe Illustrator 25.4.1, SVG Export Plug-In . SVG Version: 6.00 Build 0)  -->
<svg version="1.1" baseProfile="tiny" xmlns="http://www.w3.org/2000/svg" xmlns:xlink="http://www.w3.org/1999/xlink" x="0px"
	 y="0px" viewBox="0 0 64 64" overflow="visible" xml:space="preserve">
<g id="Imagery" display="none">
	
		<image display="inline" width="1024" height="1024" xlink:href="../../../../../Objects/UI/3D_Icons/!source/ui_icon_settlement.jpg"  transform="matrix(6.250000e-02 0 0 6.250000e-02 0 6.421316e-06)">
	</image>
</g>
<g id="Main" display="none">
	<rect x="-718" y="-276" display="inline" fill="#3F3F3F" width="2056" height="446"/>
	<g>
	</g>
</g>
<g id="_x30_1">
	<g>
		<g>
			<polygon fill="#FFFFFF" points="27.5,20.3 7.5,26.3 7.5,41.4 27.5,41.4 			"/>
		</g>
		<g>
			<polygon fill="#FFFFFF" points="45.5,17.3 32,11.5 32,41.4 45.5,41.4 			"/>
		</g>
		<g>
			<rect x="50.1" y="25.3" fill="#FFFFFF" width="6.4" height="16.2"/>
		</g>
	</g>
</g>
<g id="RINGS" display="none">
	<path display="inline" fill="#FFFFFF" d="M32,0C14.3,0,0,14.3,0,32c0,17.7,14.3,32,32,32c17.7,0,32-14.3,32-32C64,14.3,49.7,0,32,0
		z M32,62.1C15.4,62.1,1.9,48.6,1.9,32C1.9,15.4,15.4,1.9,32,1.9c16.6,0,30.1,13.5,30.1,30.1C62.1,48.6,48.6,62.1,32,62.1z"/>
</g>
</svg>
