<?xml version="1.0" encoding="utf-8"?>
<!-- Generator: Adobe Illustrator 25.4.1, SVG Export Plug-In . SVG Version: 6.00 Build 0)  -->
<svg version="1.1" baseProfile="tiny" xmlns="http://www.w3.org/2000/svg" xmlns:xlink="http://www.w3.org/1999/xlink" x="0px"
	 y="0px" viewBox="0 0 64 64" overflow="visible" xml:space="preserve">
<g id="Imagery" display="none">
	
		<image display="inline" width="1024" height="1024" xlink:href="../../../../../Objects/UI/3D_Icons/!source/ui_icon_combatarrow_x3.jpg"  transform="matrix(6.250000e-02 0 0 6.250000e-02 0 1.369681e-05)">
	</image>
</g>
<g id="Main" display="none">
	<rect x="-718" y="-148" display="inline" fill="#3F3F3F" width="2056" height="446"/>
	<g>
	</g>
</g>
<g id="_x30_1">
	<g>
		<polygon fill="#FFFFFF" points="22,21.8 30.6,13.1 31.1,13.1 31.4,3.4 31.2,3.4 31.1,4.4 24.5,13.1 24.1,13.1 21.2,22.7 
			21.7,22.8 		"/>
		<polygon fill="#FFFFFF" points="42,21.8 33.4,13.1 32.9,13.1 32.6,3.4 32.8,3.4 32.9,4.4 39.5,13.1 39.9,13.1 42.8,22.7 
			42.3,22.8 		"/>
		<polygon fill="#FFFFFF" points="18.3,35.5 30.1,25.2 30.7,25.2 31.1,13.9 30.8,13.9 30.8,15.1 21.7,25.2 21.1,25.2 17.2,36.6 
			17.9,36.6 		"/>
		<polygon fill="#FFFFFF" points="45.7,35.5 33.9,25.2 33.3,25.2 32.9,13.9 33.2,13.9 33.2,15.1 42.3,25.2 42.9,25.2 46.8,36.6 
			46.1,36.6 		"/>
		<polygon fill="#FFFFFF" points="13,50.9 29.4,39.2 30.2,39.2 30.8,26.2 30.4,26.2 30.3,27.6 17.8,39.2 17,39.2 11.6,52.2 
			12.5,52.2 		"/>
		<polygon fill="#FFFFFF" points="51,50.9 34.6,39.2 33.8,39.2 33.2,26.2 33.6,26.2 33.7,27.6 46.2,39.2 47,39.2 52.4,52.2 
			51.5,52.2 		"/>
	</g>
</g>
<g id="RINGS" display="none">
	<g display="inline">
		<path fill="#FFFFFF" d="M32,0C14.3,0,0,14.3,0,32c0,17.7,14.3,32,32,32c17.7,0,32-14.3,32-32C64,14.3,49.7,0,32,0z M32,62.1
			C15.4,62.1,1.9,48.6,1.9,32C1.9,15.4,15.4,1.9,32,1.9c16.6,0,30.1,13.5,30.1,30.1C62.1,48.6,48.6,62.1,32,62.1z"/>
	</g>
</g>
</svg>
