<?xml version="1.0" encoding="utf-8"?>
<!-- Generator: Adobe Illustrator 25.4.1, SVG Export Plug-In . SVG Version: 6.00 Build 0)  -->
<svg version="1.1" baseProfile="tiny" xmlns="http://www.w3.org/2000/svg" xmlns:xlink="http://www.w3.org/1999/xlink" x="0px"
	 y="0px" viewBox="0 0 64 64" overflow="visible" xml:space="preserve">
<g id="BG">
</g>
<g id="_x30_0">
</g>
<g id="scratch">
</g>
<g id="Main">
	
		<image width="1024" height="1024" xlink:href="../../../../../Objects/UI/3D_Icons/!source/ui_icon_entrance_exit.jpg"  transform="matrix(6.250000e-02 0 0 6.250000e-02 -6.627562e-04 8.823401e-04)">
	</image>
	<g>
		<path fill="#FFFFFF" d="M32,0C14.3,0,0,14.3,0,32c0,17.7,14.3,32,32,32c17.7,0,32-14.3,32-32C64,14.3,49.7,0,32,0z M32,62.1
			C15.4,62.1,1.9,48.6,1.9,32C1.9,15.4,15.4,1.9,32,1.9c16.6,0,30.1,13.5,30.1,30.1C62.1,48.6,48.6,62.1,32,62.1z"/>
		<g>
			<g>
				<g>
					<polygon fill="#FFFFFF" points="45.2,38.3 45.2,33.4 30.7,33.4 30.7,29 45.2,29 45.2,24.1 57.5,31.2 					"/>
				</g>
			</g>
			<g>
				<polygon fill="#FFFFFF" points="46.2,53.3 17.5,53.3 17.5,10.6 46.2,10.6 46.2,20.5 41.4,20.5 41.4,15.3 22.2,15.3 22.2,48.6 
					41.4,48.6 41.4,41.5 46.2,41.5 				"/>
			</g>
		</g>
	</g>
</g>
<g id="_x30_1">
</g>
</svg>
