<?xml version="1.0" encoding="utf-8"?>
<!-- Generator: Adobe Illustrator 25.4.1, SVG Export Plug-In . SVG Version: 6.00 Build 0)  -->
<svg version="1.1" baseProfile="tiny" xmlns="http://www.w3.org/2000/svg" xmlns:xlink="http://www.w3.org/1999/xlink" x="0px"
	 y="0px" viewBox="0 0 64 64" overflow="visible" xml:space="preserve">
<g id="Imagery" display="none">
	
		<image display="inline" width="1024" height="1024" xlink:href="../../../../../Objects/UI/3D_Icons/!source/ui_icon_meds.jpg"  transform="matrix(6.250000e-02 0 0 6.250000e-02 -8.338080e-06 0)">
	</image>
</g>
<g id="Main" display="none">
	<rect x="-940" y="-276" display="inline" fill="#3F3F3F" width="2056" height="446"/>
	<g>
	</g>
</g>
<g id="_x30_1">
	<g>
		<path fill="#FFFFFF" d="M55.4,29.7c0-1.8-0.7-3.6-1.5-4.4l-9.6-9.6c-1.7-1.7-3-2-4.9-2c-1.8,0-3.6,0.7-4.9,2c-2.7,2.7-2.7,7,0,9.7
			l9.1,9.1c1.3,1.3,3.1,2,4.9,2c1.8,0,3.5-0.7,4.9-2C54.6,33.3,55.4,31.6,55.4,29.7z M37.2,18.4c0.6-0.6,1.4-0.9,2.3-0.9
			c0.9,0,1.7,0.3,2.3,0.9l5.2,5.2c0.9,0.9,1.3,3.1-0.1,4.6c-1.3,1.3-3.2,1.2-4.1,0.3l-5.5-5.5C35.9,21.7,35.9,19.6,37.2,18.4z"/>
		<path fill="#FFFFFF" d="M25.8,53.8c1.8-0.4,3.3-1.5,3.9-2.5l7.1-11.5c1.3-2.1,1.3-3.4,0.8-5.2c-0.4-1.8-1.5-3.3-3.1-4.3
			c-3.2-2-7.5-1-9.4,2.2l-6.8,11c-1,1.6-1.2,3.5-0.8,5.2c0.4,1.7,1.5,3.3,3.1,4.3C22.2,53.9,24.1,54.2,25.8,53.8z M32.7,33.5
			c0.7,0.5,1.2,1.2,1.4,2c0.2,0.8,0.1,1.7-0.4,2.4l-3.8,6.2c-0.7,1.1-2.7,2-4.5,0.9c-1.5-0.9-1.9-2.9-1.3-3.9l4.1-6.6
			C29.2,33,31.2,32.5,32.7,33.5z"/>
		<path fill="#FFFFFF" d="M24.4,28.2c2.9-1.1,4.9-4,4.9-7.1c0-4.2-3.5-7.7-7.7-7.7c-3.9,0-7,2.9-7.6,6.6c-2.9,1.1-4.9,4-4.9,7.1
			c0,4.2,3.5,7.7,7.7,7.7C20.7,34.8,23.9,31.9,24.4,28.2z M21.6,16.6c2.5,0,4.5,2,4.5,4.5c0,2.1-1.5,3.9-3.5,4.3c-0.1,0-0.1,0-0.2,0
			c-0.1,0-0.2,0-0.3,0c-0.2,0-0.3,0-0.5,0c-2.4,0-4.4-1.9-4.4-4.3v-0.1C17.2,18.6,19.2,16.6,21.6,16.6z M16.8,31.6
			c-2.5,0-4.5-2-4.5-4.5c0-1.5,0.8-2.9,2-3.7c0,0,0,0,0,0c0.1,0.3,0.2,0.6,0.4,0.9c0,0.1,0.1,0.1,0.1,0.2c0.2,0.3,0.3,0.6,0.5,0.8
			c0,0,0,0,0,0c0.2,0.3,0.4,0.5,0.6,0.7c0.1,0.1,0.1,0.1,0.2,0.2c0.2,0.2,0.5,0.5,0.7,0.7c0,0,0,0,0.1,0.1c0.2,0.2,0.5,0.4,0.7,0.5
			c0.1,0,0.1,0.1,0.2,0.1c0.3,0.2,0.6,0.3,0.9,0.4c0,0,0.1,0,0.1,0c0.3,0.1,0.6,0.2,0.8,0.3c0.1,0,0.2,0,0.2,0.1
			c0.3,0.1,0.7,0.1,1,0.2c0,0,0,0,0,0C20.3,30.4,18.7,31.6,16.8,31.6z"/>
	</g>
</g>
<g id="RINGS" display="none">
	<path display="inline" fill="#FFFFFF" d="M32,0C14.3,0,0,14.3,0,32c0,17.7,14.3,32,32,32c17.7,0,32-14.3,32-32C64,14.3,49.7,0,32,0
		z M32,62.1C15.4,62.1,1.9,48.6,1.9,32C1.9,15.4,15.4,1.9,32,1.9c16.6,0,30.1,13.5,30.1,30.1C62.1,48.6,48.6,62.1,32,62.1z"/>
</g>
</svg>
