<?xml version="1.0" encoding="utf-8"?>
<!-- Generator: Adobe Illustrator 25.4.1, SVG Export Plug-In . SVG Version: 6.00 Build 0)  -->
<svg version="1.1" baseProfile="tiny" xmlns="http://www.w3.org/2000/svg" xmlns:xlink="http://www.w3.org/1999/xlink" x="0px"
	 y="0px" viewBox="0 0 64 64" overflow="visible" xml:space="preserve">
<g id="Imagery" display="none">
	
		<image display="inline" width="1024" height="1024" xlink:href="../../../../../Objects/UI/3D_Icons/!source/ui_icon_event.jpg"  transform="matrix(6.250000e-02 0 0 6.250000e-02 0 9.654868e-06)">
	</image>
</g>
<g id="Main" display="none">
	<rect x="-1310" y="-276" display="inline" fill="#3F3F3F" width="2056" height="446"/>
	<g>
	</g>
</g>
<g id="_x30_1">
	<g>
		<g>
			<rect x="11.7" y="12.3" fill="#FFFFFF" width="40.3" height="7.7"/>
		</g>
		<path fill="#FFFFFF" d="M11.7,25.6v26.3H52V25.6H11.7z M20.5,47.4c-1.8,0-3.3-1.5-3.3-3.3s1.5-3.3,3.3-3.3s3.3,1.5,3.3,3.3
			S22.3,47.4,20.5,47.4z M20.5,36c-1.8,0-3.3-1.5-3.3-3.3c0-1.8,1.5-3.3,3.3-3.3s3.3,1.5,3.3,3.3C23.8,34.5,22.3,36,20.5,36z
			 M32.2,47.4c-1.8,0-3.3-1.5-3.3-3.3s1.5-3.3,3.3-3.3c1.8,0,3.3,1.5,3.3,3.3S34,47.4,32.2,47.4z M32.2,36c-1.8,0-3.3-1.5-3.3-3.3
			c0-1.8,1.5-3.3,3.3-3.3c1.8,0,3.3,1.5,3.3,3.3C35.5,34.5,34,36,32.2,36z M43.9,47.4c-1.8,0-3.3-1.5-3.3-3.3s1.5-3.3,3.3-3.3
			s3.3,1.5,3.3,3.3S45.7,47.4,43.9,47.4z M43.9,36c-1.8,0-3.3-1.5-3.3-3.3c0-1.8,1.5-3.3,3.3-3.3s3.3,1.5,3.3,3.3
			C47.2,34.5,45.7,36,43.9,36z"/>
	</g>
</g>
<g id="RINGS" display="none">
	<path display="inline" fill="#FFFFFF" d="M32,0C14.3,0,0,14.3,0,32c0,17.7,14.3,32,32,32c17.7,0,32-14.3,32-32C64,14.3,49.7,0,32,0
		z M32,62.1C15.4,62.1,1.9,48.6,1.9,32C1.9,15.4,15.4,1.9,32,1.9c16.6,0,30.1,13.5,30.1,30.1C62.1,48.6,48.6,62.1,32,62.1z"/>
</g>
</svg>
