<?xml version="1.0" encoding="utf-8"?>
<!-- Generator: Adobe Illustrator 27.8.0, SVG Export Plug-In . SVG Version: 6.00 Build 0)  -->
<svg version="1.1" baseProfile="tiny" id="Layer_1" xmlns="http://www.w3.org/2000/svg" xmlns:xlink="http://www.w3.org/1999/xlink"
	 x="0px" y="0px" viewBox="0 0 64 64" overflow="visible" xml:space="preserve">
<polygon fill="#FFFFFF" points="47.02,30.39 38.15,21.52 41.69,17.98 47.02,23.31 55.95,14.38 59.49,17.92 "/>
<path fill="#FFFFFF" d="M11.32,56h-3V26.7c0-1.9,0.83-3.62,2.35-4.86L29.92,7.3c1.4-1.09,3.32-1.11,4.86-0.03l6.04,4.53l-1.8,2.4
	l-6-4.5c-0.42-0.29-0.9-0.31-1.28-0.02L12.53,24.2c-0.76,0.62-1.2,1.53-1.2,2.5V56z"/>
<rect x="53.32" y="32" fill="#FFFFFF" width="3" height="24"/>
<path fill="#FFFFFF" d="M38.31,47.1V49l2.6,3.3V56l-4.5-2.8c-0.6-0.4-1-1-1-1.8v-7c0-0.3-0.1-0.6-0.4-0.8l0,0
	c-0.6-0.5-1.4-0.2-1.7,0.4l-0.8,2.1h-2.9l-0.8-2.1c-0.3-0.7-1.1-0.9-1.7-0.4l0,0c-0.3,0.2-0.4,0.5-0.4,0.8v7c0,0.7-0.4,1.4-1,1.8
	l-4.5,2.8v-3.7l2.6-3.3v-1.9l-1.9-1.5l-4.4,4.3V45l7.3-10c1.1-1.5,1.9-3.3,2.4-5.1l1.6-6.6c0.3-1,1.2-1.8,2.3-1.8l0,0
	c1.1,0,2,0.7,2.3,1.8l1.6,6.5c0.5,1.9,1.3,3.6,2.4,5.2l7.3,10v4.9l-4.4-4.3L38.31,47.1z"/>
</svg>
