<?xml version="1.0" encoding="utf-8"?>
<!-- Generator: Adobe Illustrator 25.4.1, SVG Export Plug-In . SVG Version: 6.00 Build 0)  -->
<svg version="1.1" baseProfile="tiny" xmlns="http://www.w3.org/2000/svg" xmlns:xlink="http://www.w3.org/1999/xlink" x="0px"
	 y="0px" viewBox="0 0 64 64" overflow="visible" xml:space="preserve">
<g id="Imagery" display="none">
	
		<image display="inline" width="1024" height="1024" xlink:href="../../../../../Objects/UI/3D_Icons/!source/ui_icon_arrow_x1.jpg"  transform="matrix(6.250000e-02 0 0 6.250000e-02 0 1.369681e-05)">
	</image>
</g>
<g id="Main" display="none">
	<rect x="-274" y="-148" display="inline" fill="#3F3F3F" width="2056" height="446"/>
	<g>
	</g>
</g>
<g id="_x30_1">
	<path fill="#FFFFFF" d="M45,39.3c0,0-1.8-2.5-6.7-7.9c-1.4-1.5-2.7-2.8-3.7-3.8c-1.2-1.2-1.8-1.9-2.3-2.2c-0.1-0.1-0.2-0.2-0.4-0.2
		c0,0,0,0,0,0c0,0,0,0,0,0s0,0,0,0c0,0,0,0,0,0c-0.1,0-0.2,0-0.4,0.2c-0.4,0.4-1.1,1.1-2.3,2.2c-1,1-2.3,2.3-3.7,3.8
		c-4.9,5.4-6.7,7.9-6.7,7.9c1.1-0.9,1.7-1.3,3.5-2.6c2.3-1.6,5.6-3.9,9.5-4c3.8,0,7.2,2.4,9.5,4C43.3,38,43.9,38.4,45,39.3z"/>
</g>
<g id="RINGS" display="none">
	<g display="inline">
		<path fill="#FFFFFF" d="M32,0C14.3,0,0,14.3,0,32c0,17.7,14.3,32,32,32c17.7,0,32-14.3,32-32C64,14.3,49.7,0,32,0z M32,62.1
			C15.4,62.1,1.9,48.6,1.9,32C1.9,15.4,15.4,1.9,32,1.9c16.6,0,30.1,13.5,30.1,30.1C62.1,48.6,48.6,62.1,32,62.1z"/>
	</g>
</g>
</svg>
