<?xml version="1.0" encoding="utf-8"?>
<!-- Generator: Adobe Illustrator 25.4.1, SVG Export Plug-In . SVG Version: 6.00 Build 0)  -->
<svg version="1.1" baseProfile="tiny" xmlns="http://www.w3.org/2000/svg" xmlns:xlink="http://www.w3.org/1999/xlink" x="0px"
	 y="0px" viewBox="0 0 64 64" overflow="visible" xml:space="preserve">
<g id="Imagery" display="none">
	
		<image display="inline" width="1024" height="1024" xlink:href="../../../../../Objects/UI/3D_Icons/!source/ui_icon_spacestation.jpg"  transform="matrix(6.250001e-02 0 0 6.249996e-02 7.474385e-05 9.569671e-05)">
	</image>
</g>
<g id="Main" display="none">
	<rect x="-644" y="-276" display="inline" fill="#3F3F3F" width="2056" height="446"/>
	<g>
		<rect x="64" y="0" display="inline" fill="#FF5050" width="10" height="10"/>
	</g>
</g>
<g id="_x30_1">
	<g>
		<polygon fill="#FFFFFF" points="36.8,32 32,27.2 26.3,32.8 27.5,34 23.9,37.5 26.4,40.1 30,36.5 31.2,37.7 		"/>
		<g>
			<path fill="#FFFFFF" d="M24.5,48.5l-9-9c-0.9-0.9-0.9-2.3,0-3.2l0.2-0.2c0.9-0.9,2.3-0.9,3.2,0l9,9c0.9,0.9,0.9,2.3,0,3.2
				l-0.2,0.2C26.8,49.4,25.4,49.4,24.5,48.5z"/>
		</g>
		<g>
			
				<rect x="13.7" y="45.9" transform="matrix(0.7071 -0.7071 0.7071 0.7071 -28.9494 25.4925)" fill="#FFFFFF" width="5.1" height="3.6"/>
		</g>
		<path fill="#FFFFFF" d="M43.3,20.7c-7.6-7.6-16.1-11.3-19.1-8.3c-3,3,0.8,11.5,8.3,19.1s16.1,11.3,19.1,8.3
			C54.6,36.8,50.8,28.3,43.3,20.7z M35.2,28.8c-5.9-5.9-9.5-11.9-8-13.5s7.5,2.1,13.5,8s9.5,11.9,8,13.5S41.1,34.8,35.2,28.8z"/>
		<g>
			<g>
				
					<rect x="33.8" y="15" transform="matrix(0.7071 -0.7071 0.7071 0.7071 0.1369 34.1889)" fill="#FFFFFF" width="15" height="3.8"/>
			</g>
			<g>
				
					<rect x="40.2" y="22.5" transform="matrix(0.7071 -0.7071 0.7071 0.7071 -4.1746 38.795)" fill="#FFFFFF" width="9.1" height="3.8"/>
			</g>
		</g>
		<g>
			<g>
				
					<rect x="13.6" y="24.3" transform="matrix(0.7071 0.7071 -0.7071 0.7071 24.3325 -6.0062)" fill="#FFFFFF" width="11.7" height="4.2"/>
			</g>
			<g>
				
					<rect x="31.8" y="42.5" transform="matrix(0.7071 0.7071 -0.7071 0.7071 42.5323 -13.5449)" fill="#FFFFFF" width="11.7" height="4.2"/>
			</g>
		</g>
	</g>
</g>
<g id="RINGS" display="none">
	<path display="inline" fill="#FFFFFF" d="M32,0C14.3,0,0,14.3,0,32c0,17.7,14.3,32,32,32c17.7,0,32-14.3,32-32C64,14.3,49.7,0,32,0
		z M32,62.1C15.4,62.1,1.9,48.6,1.9,32C1.9,15.4,15.4,1.9,32,1.9c16.6,0,30.1,13.5,30.1,30.1C62.1,48.6,48.6,62.1,32,62.1z"/>
</g>
</svg>
