<?xml version="1.0" encoding="utf-8"?>
<!-- Generator: Adobe Illustrator 25.4.1, SVG Export Plug-In . SVG Version: 6.00 Build 0)  -->
<svg version="1.1" baseProfile="tiny" xmlns="http://www.w3.org/2000/svg" xmlns:xlink="http://www.w3.org/1999/xlink" x="0px"
	 y="0px" viewBox="0 0 64 64" overflow="visible" xml:space="preserve">
<g id="Imagery" display="none">
	
		<image display="inline" width="1024" height="1024" xlink:href="../../../../../Objects/UI/3D_Icons/!source/ui_icon_bar.jpg"  transform="matrix(6.250000e-02 0 0 6.250000e-02 -1.581567e-05 6.421315e-06)">
	</image>
</g>
<g id="Main" display="none">
	<rect x="-1236" y="-276" display="inline" fill="#3F3F3F" width="2056" height="446"/>
	<g>
	</g>
</g>
<g id="_x30_1">
	<g>
		<polygon fill="#FFFFFF" points="31.8,41.7 43.9,24.3 19.6,24.3 		"/>
		<g>
			<path fill="#FFFFFF" d="M45,16.2c-3.4,0-6.3,2.1-7.5,5h6.6h5.9l-3.4,4.9l-4.1,6c0.8,0.2,1.6,0.4,2.5,0.4c4.5,0,8.1-3.6,8.1-8.1
				C53.1,19.9,49.5,16.2,45,16.2z"/>
		</g>
		<g>
			<rect x="30" y="32.2" fill="#FFFFFF" width="3.4" height="18.4"/>
		</g>
		<g>
			<rect x="24.2" y="48.6" fill="#FFFFFF" width="14.9" height="4.3"/>
		</g>
		<polygon fill="#FFFFFF" points="30.5,29.6 23.3,17.4 15.1,15.8 15.5,13.7 24.5,15.6 32.2,28.4 		"/>
	</g>
</g>
<g id="RINGS" display="none">
	<path display="inline" fill="#FFFFFF" d="M32,0C14.3,0,0,14.3,0,32c0,17.7,14.3,32,32,32c17.7,0,32-14.3,32-32C64,14.3,49.7,0,32,0
		z M32,62.1C15.4,62.1,1.9,48.6,1.9,32C1.9,15.4,15.4,1.9,32,1.9c16.6,0,30.1,13.5,30.1,30.1C62.1,48.6,48.6,62.1,32,62.1z"/>
</g>
</svg>
