<?xml version="1.0" encoding="utf-8"?>
<!-- Generator: Adobe Illustrator 29.0.1, SVG Export Plug-In . SVG Version: 9.03 Build 54978)  -->
<svg version="1.1" baseProfile="tiny" id="Layer_1" xmlns="http://www.w3.org/2000/svg" xmlns:xlink="http://www.w3.org/1999/xlink"
	 x="0px" y="0px" viewBox="0 0 379 155.5" overflow="visible" xml:space="preserve">
<rect id="_x3C_Path_x3E__opacity:100_00000081618444125741933710000006849261402225131410_" y="0" fill="#C5534E" width="2" height="155.5"/>
<path id="_x3C_Compound_Path_x3E__opacity:100_00000016077546626216557680000015123398824518298036_" fill="#53AC9F" d="M378,1v23.3
	l-2.9,1.2l-0.6,0.3v0.7v100v0.7l0.6,0.3l2.9,1.2v25.8H4.5V1H378 M379,0H3.5v155.5H379V128l-3.5-1.5v-100L379,25V0L379,0z"/>
<g id="_x3C_Group_x3E__colorstyle:Base_00000096737644369868483380000012244308258865433753_">
	<rect x="360.2" y="144.1" fill="#53AC9F" width="1.2" height="1.2"/>
	<rect x="361.3" y="142.8" fill="#53AC9F" width="1.2" height="1.3"/>
	<rect x="362.5" y="141.6" fill="#53AC9F" width="1.2" height="1.2"/>
	<rect x="363.7" y="140.4" fill="#53AC9F" width="1.2" height="1.2"/>
	<rect x="362.5" y="139.1" fill="#53AC9F" width="1.2" height="1.3"/>
	<rect x="361.3" y="137.9" fill="#53AC9F" width="1.2" height="1.2"/>
	<rect x="360.2" y="136.6" fill="#53AC9F" width="1.2" height="1.2"/>
	<rect x="360.2" y="129.2" fill="#53AC9F" width="1.2" height="1.2"/>
	<rect x="361.3" y="128" fill="#53AC9F" width="1.2" height="1.2"/>
	<rect x="362.5" y="126.7" fill="#53AC9F" width="1.2" height="1.3"/>
	<rect x="363.7" y="125.5" fill="#53AC9F" width="1.2" height="1.2"/>
	<rect x="362.5" y="124.3" fill="#53AC9F" width="1.2" height="1.2"/>
	<rect x="361.3" y="123" fill="#53AC9F" width="1.2" height="1.3"/>
	<rect x="360.2" y="121.8" fill="#53AC9F" width="1.2" height="1.2"/>
	<rect x="361.3" y="120.5" fill="#53AC9F" width="1.2" height="1.2"/>
	<rect x="362.5" y="119.3" fill="#53AC9F" width="1.2" height="1.3"/>
	<rect x="363.7" y="118" fill="#53AC9F" width="1.2" height="1.2"/>
	<rect x="362.5" y="116.8" fill="#53AC9F" width="1.2" height="1.2"/>
	<rect x="361.3" y="115.6" fill="#53AC9F" width="1.2" height="1.2"/>
	<rect x="360.2" y="114.3" fill="#53AC9F" width="1.2" height="1.3"/>
	<rect x="361.3" y="113.1" fill="#53AC9F" width="1.2" height="1.2"/>
	<rect x="362.5" y="111.9" fill="#53AC9F" width="1.2" height="1.2"/>
	<rect x="363.7" y="110.6" fill="#53AC9F" width="1.2" height="1.3"/>
	<rect x="362.5" y="109.4" fill="#53AC9F" width="1.2" height="1.2"/>
	<rect x="361.3" y="108.1" fill="#53AC9F" width="1.2" height="1.2"/>
	<rect x="360.2" y="106.9" fill="#53AC9F" width="1.2" height="1.3"/>
	<rect x="361.3" y="105.6" fill="#53AC9F" width="1.2" height="1.2"/>
	<rect x="362.5" y="104.4" fill="#53AC9F" width="1.2" height="1.2"/>
	<rect x="363.7" y="103.2" fill="#53AC9F" width="1.2" height="1.3"/>
	<rect x="362.5" y="101.9" fill="#53AC9F" width="1.2" height="1.2"/>
	<rect x="361.3" y="100.7" fill="#53AC9F" width="1.2" height="1.2"/>
	<rect x="360.2" y="99.4" fill="#53AC9F" width="1.2" height="1.3"/>
	<rect x="361.3" y="98.2" fill="#53AC9F" width="1.2" height="1.2"/>
	<rect x="362.5" y="97" fill="#53AC9F" width="1.2" height="1.2"/>
	<rect x="363.7" y="95.7" fill="#53AC9F" width="1.2" height="1.2"/>
	<rect x="362.5" y="94.5" fill="#53AC9F" width="1.2" height="1.3"/>
	<rect x="361.3" y="93.3" fill="#53AC9F" width="1.2" height="1.2"/>
	<rect x="360.2" y="92" fill="#53AC9F" width="1.2" height="1.2"/>
	<rect x="361.3" y="90.8" fill="#53AC9F" width="1.2" height="1.3"/>
	<rect x="362.5" y="89.5" fill="#53AC9F" width="1.2" height="1.2"/>
	<rect x="363.7" y="88.3" fill="#53AC9F" width="1.2" height="1.2"/>
	<rect x="362.5" y="87" fill="#53AC9F" width="1.2" height="1.3"/>
	<rect x="361.3" y="85.8" fill="#53AC9F" width="1.2" height="1.2"/>
	<rect x="360.2" y="84.6" fill="#53AC9F" width="1.2" height="1.2"/>
	<rect x="361.3" y="83.3" fill="#53AC9F" width="1.2" height="1.3"/>
	<rect x="362.5" y="82.1" fill="#53AC9F" width="1.2" height="1.2"/>
	<rect x="363.7" y="80.9" fill="#53AC9F" width="1.2" height="1.2"/>
	<rect x="362.5" y="79.6" fill="#53AC9F" width="1.2" height="1.3"/>
	<rect x="361.3" y="78.4" fill="#53AC9F" width="1.2" height="1.2"/>
	<rect x="360.2" y="77.1" fill="#53AC9F" width="1.2" height="1.2"/>
	<rect x="361.3" y="75.9" fill="#53AC9F" width="1.2" height="1.2"/>
	<rect x="362.5" y="74.6" fill="#53AC9F" width="1.2" height="1.3"/>
	<rect x="363.7" y="73.4" fill="#53AC9F" width="1.2" height="1.2"/>
	<rect x="362.5" y="72.2" fill="#53AC9F" width="1.2" height="1.2"/>
	<rect x="361.3" y="70.9" fill="#53AC9F" width="1.2" height="1.3"/>
	<rect x="360.2" y="69.7" fill="#53AC9F" width="1.2" height="1.2"/>
	<rect x="361.3" y="68.5" fill="#53AC9F" width="1.2" height="1.2"/>
	<rect x="362.5" y="67.2" fill="#53AC9F" width="1.2" height="1.3"/>
	<rect x="363.7" y="66" fill="#53AC9F" width="1.2" height="1.2"/>
	<rect x="362.5" y="64.7" fill="#53AC9F" width="1.2" height="1.2"/>
	<rect x="361.3" y="63.5" fill="#53AC9F" width="1.2" height="1.3"/>
	<rect x="360.2" y="62.3" fill="#53AC9F" width="1.2" height="1.2"/>
	<rect x="361.3" y="61" fill="#53AC9F" width="1.2" height="1.2"/>
	<rect x="362.5" y="59.8" fill="#53AC9F" width="1.2" height="1.3"/>
	<rect x="363.7" y="58.5" fill="#53AC9F" width="1.2" height="1.2"/>
	<rect x="362.5" y="57.3" fill="#53AC9F" width="1.2" height="1.2"/>
	<rect x="361.3" y="56.1" fill="#53AC9F" width="1.2" height="1.2"/>
	<rect x="360.2" y="54.8" fill="#53AC9F" width="1.2" height="1.3"/>
	<rect x="361.3" y="53.6" fill="#53AC9F" width="1.2" height="1.2"/>
	<rect x="362.5" y="52.3" fill="#53AC9F" width="1.2" height="1.2"/>
	<rect x="363.7" y="51.1" fill="#53AC9F" width="1.2" height="1.3"/>
	<rect x="362.5" y="49.9" fill="#53AC9F" width="1.2" height="1.2"/>
	<rect x="361.3" y="48.6" fill="#53AC9F" width="1.2" height="1.2"/>
	<rect x="360.2" y="47.4" fill="#53AC9F" width="1.2" height="1.3"/>
	<rect x="361.3" y="46.1" fill="#53AC9F" width="1.2" height="1.2"/>
	<rect x="362.5" y="44.9" fill="#53AC9F" width="1.2" height="1.2"/>
	<rect x="363.7" y="43.7" fill="#53AC9F" width="1.2" height="1.3"/>
	<rect x="362.5" y="42.4" fill="#53AC9F" width="1.2" height="1.2"/>
	<rect x="361.3" y="41.2" fill="#53AC9F" width="1.2" height="1.2"/>
	<rect x="360.2" y="39.9" fill="#53AC9F" width="1.2" height="1.3"/>
	<rect x="361.3" y="38.7" fill="#53AC9F" width="1.2" height="1.2"/>
	<rect x="362.5" y="37.5" fill="#53AC9F" width="1.2" height="1.2"/>
	<rect x="363.7" y="36.2" fill="#53AC9F" width="1.2" height="1.2"/>
	<rect x="362.5" y="35" fill="#53AC9F" width="1.2" height="1.3"/>
	<rect x="361.3" y="33.7" fill="#53AC9F" width="1.2" height="1.2"/>
	<rect x="360.2" y="32.5" fill="#53AC9F" width="1.2" height="1.2"/>
	<rect x="361.3" y="31.3" fill="#53AC9F" width="1.2" height="1.3"/>
	<rect x="362.5" y="30" fill="#53AC9F" width="1.2" height="1.2"/>
	<rect x="363.7" y="28.8" fill="#53AC9F" width="1.2" height="1.2"/>
	<rect x="362.5" y="27.5" fill="#53AC9F" width="1.2" height="1.3"/>
	<rect x="361.3" y="26.3" fill="#53AC9F" width="1.2" height="1.2"/>
	<rect x="360.2" y="25.1" fill="#53AC9F" width="1.2" height="1.2"/>
	<rect x="360.2" y="17.6" fill="#53AC9F" width="1.2" height="1.2"/>
	<rect x="361.3" y="16.4" fill="#53AC9F" width="1.2" height="1.2"/>
	<rect x="362.5" y="15.1" fill="#53AC9F" width="1.2" height="1.3"/>
	<rect x="363.7" y="13.9" fill="#53AC9F" width="1.2" height="1.2"/>
	<rect x="362.5" y="12.7" fill="#53AC9F" width="1.2" height="1.2"/>
	<rect x="361.3" y="11.4" fill="#53AC9F" width="1.2" height="1.3"/>
	<rect x="360.2" y="10.2" fill="#53AC9F" width="1.2" height="1.2"/>
</g>
</svg>
