<?xml version="1.0" encoding="utf-8"?>
<!-- Generator: Adobe Illustrator 29.0.1, SVG Export Plug-In . SVG Version: 9.03 Build 54978)  -->
<svg version="1.1" baseProfile="tiny" id="Layer_1" xmlns="http://www.w3.org/2000/svg" xmlns:xlink="http://www.w3.org/1999/xlink"
	 x="0px" y="0px" viewBox="0 0 589.1 6.3" overflow="visible" xml:space="preserve">
<g id="_x3C_Group_x3E__colorstyle:Accent_1_00000006705983901504256360000010445756147770552470_">
	<rect y="0.8" fill="#C5534E" width="1.2" height="1.2"/>
	<rect x="3.7" y="4.3" fill="#C5534E" width="1.2" height="1.2"/>
	<rect x="7.4" y="0.8" fill="#C5534E" width="1.3" height="1.2"/>
	<rect x="11.1" y="4.3" fill="#C5534E" width="1.3" height="1.2"/>
	<rect x="14.9" y="0.8" fill="#C5534E" width="1.3" height="1.2"/>
	<rect x="18.6" y="4.3" fill="#C5534E" width="1.3" height="1.2"/>
	<rect x="22.3" y="0.8" fill="#C5534E" width="1.3" height="1.2"/>
	<rect x="26" y="4.3" fill="#C5534E" width="1.2" height="1.2"/>
	<rect x="29.7" y="0.8" fill="#C5534E" width="1.2" height="1.2"/>
	<rect x="33.5" y="4.3" fill="#C5534E" width="1.2" height="1.2"/>
	<rect x="37.2" y="0.8" fill="#C5534E" width="1.2" height="1.2"/>
	<rect x="40.9" y="4.3" fill="#C5534E" width="1.2" height="1.2"/>
	<rect x="44.6" y="0.8" fill="#C5534E" width="1.2" height="1.2"/>
	<rect x="48.4" y="4.3" fill="#C5534E" width="1.2" height="1.2"/>
	<rect x="52.1" y="0.8" fill="#C5534E" width="1.2" height="1.2"/>
	<rect x="55.8" y="4.3" fill="#C5534E" width="1.2" height="1.2"/>
	<rect x="59.5" y="0.8" fill="#C5534E" width="1.2" height="1.2"/>
	<rect x="63.2" y="4.3" fill="#C5534E" width="1.2" height="1.2"/>
	<rect x="66.9" y="0.8" fill="#C5534E" width="1.3" height="1.2"/>
	<rect x="70.7" y="4.3" fill="#C5534E" width="1.3" height="1.2"/>
	<rect x="74.4" y="0.8" fill="#C5534E" width="1.3" height="1.2"/>
	<rect x="78.1" y="4.3" fill="#C5534E" width="1.3" height="1.2"/>
	<rect x="81.8" y="0.8" fill="#C5534E" width="1.3" height="1.2"/>
	<rect x="85.5" y="4.3" fill="#C5534E" width="1.2" height="1.2"/>
	<rect x="89.3" y="0.8" fill="#C5534E" width="1.2" height="1.2"/>
	<rect x="93" y="4.3" fill="#C5534E" width="1.2" height="1.2"/>
	<rect x="96.7" y="0.8" fill="#C5534E" width="1.2" height="1.2"/>
	<rect x="100.4" y="4.3" fill="#C5534E" width="1.2" height="1.2"/>
	<rect x="104.1" y="0.8" fill="#C5534E" width="1.2" height="1.2"/>
	<rect x="107.9" y="4.3" fill="#C5534E" width="1.2" height="1.2"/>
	<rect x="111.6" y="0.8" fill="#C5534E" width="1.2" height="1.2"/>
	<rect x="115.3" y="4.3" fill="#C5534E" width="1.2" height="1.2"/>
	<rect x="119" y="0.8" fill="#C5534E" width="1.2" height="1.2"/>
	<rect x="122.7" y="4.3" fill="#C5534E" width="1.2" height="1.2"/>
	<rect x="126.4" y="0.8" fill="#C5534E" width="1.3" height="1.2"/>
	<rect x="130.2" y="4.3" fill="#C5534E" width="1.3" height="1.2"/>
	<rect x="133.9" y="0.8" fill="#C5534E" width="1.3" height="1.2"/>
	<rect x="137.6" y="4.3" fill="#C5534E" width="1.3" height="1.2"/>
	<rect x="141.3" y="0.8" fill="#C5534E" width="1.3" height="1.2"/>
	<rect x="145" y="4.3" fill="#C5534E" width="1.2" height="1.2"/>
	<rect x="148.8" y="0.8" fill="#C5534E" width="1.2" height="1.2"/>
	<rect x="152.5" y="4.3" fill="#C5534E" width="1.2" height="1.2"/>
	<rect x="156.2" y="0.8" fill="#C5534E" width="1.2" height="1.2"/>
	<rect x="159.9" y="4.3" fill="#C5534E" width="1.2" height="1.2"/>
	<rect x="163.6" y="0.8" fill="#C5534E" width="1.2" height="1.2"/>
	<rect x="167.4" y="4.3" fill="#C5534E" width="1.2" height="1.2"/>
	<rect x="171.1" y="0.8" fill="#C5534E" width="1.2" height="1.2"/>
	<rect x="174.8" y="4.3" fill="#C5534E" width="1.2" height="1.2"/>
	<rect x="178.5" y="0.8" fill="#C5534E" width="1.2" height="1.2"/>
	<rect x="182.2" y="4.3" fill="#C5534E" width="1.2" height="1.2"/>
	<rect x="185.9" y="0.8" fill="#C5534E" width="1.3" height="1.2"/>
	<rect x="189.7" y="4.3" fill="#C5534E" width="1.3" height="1.2"/>
	<rect x="193.4" y="0.8" fill="#C5534E" width="1.3" height="1.2"/>
	<rect x="197.1" y="4.3" fill="#C5534E" width="1.3" height="1.2"/>
	<rect x="200.8" y="0.8" fill="#C5534E" width="1.3" height="1.2"/>
	<rect x="204.5" y="4.3" fill="#C5534E" width="1.2" height="1.2"/>
	<rect x="208.3" y="0.8" fill="#C5534E" width="1.2" height="1.2"/>
	<rect x="212" y="4.3" fill="#C5534E" width="1.2" height="1.2"/>
	<rect x="215.7" y="0.8" fill="#C5534E" width="1.2" height="1.2"/>
	<rect x="219.4" y="4.3" fill="#C5534E" width="1.2" height="1.2"/>
	<rect x="223.2" y="0.8" fill="#C5534E" width="1.2" height="1.2"/>
	<rect x="226.9" y="4.3" fill="#C5534E" width="1.2" height="1.2"/>
	<rect x="230.6" y="0.8" fill="#C5534E" width="1.2" height="1.2"/>
	<rect x="234.3" y="4.3" fill="#C5534E" width="1.2" height="1.2"/>
	<rect x="238" y="0.8" fill="#C5534E" width="1.2" height="1.2"/>
	<rect x="241.7" y="4.3" fill="#C5534E" width="1.2" height="1.2"/>
	<rect x="245.5" y="0.8" fill="#C5534E" width="1.3" height="1.2"/>
	<rect x="249.2" y="4.3" fill="#C5534E" width="1.3" height="1.2"/>
	<rect x="252.9" y="0.8" fill="#C5534E" width="1.3" height="1.2"/>
	<rect x="256.6" y="4.3" fill="#C5534E" width="1.3" height="1.2"/>
	<rect x="260.3" y="0.8" fill="#C5534E" width="1.3" height="1.2"/>
	<rect x="264.1" y="4.3" fill="#C5534E" width="1.2" height="1.2"/>
	<rect x="267.8" y="0.8" fill="#C5534E" width="1.2" height="1.2"/>
	<rect x="271.5" y="4.3" fill="#C5534E" width="1.2" height="1.2"/>
	<rect x="275.2" y="0.8" fill="#C5534E" width="1.2" height="1.2"/>
	<rect x="278.9" y="4.3" fill="#C5534E" width="1.2" height="1.2"/>
	<rect x="282.7" y="0.8" fill="#C5534E" width="1.2" height="1.2"/>
	<rect x="286.4" y="4.3" fill="#C5534E" width="1.2" height="1.2"/>
	<rect x="290.1" y="0.8" fill="#C5534E" width="1.2" height="1.2"/>
	<rect x="293.8" y="4.3" fill="#C5534E" width="1.2" height="1.2"/>
	<rect x="297.5" y="0.8" fill="#C5534E" width="1.2" height="1.2"/>
	<rect x="301.3" y="4.3" fill="#C5534E" width="1.2" height="1.2"/>
	<rect x="305" y="0.8" fill="#C5534E" width="1.3" height="1.2"/>
	<rect x="308.7" y="4.3" fill="#C5534E" width="1.3" height="1.2"/>
	<rect x="312.4" y="0.8" fill="#C5534E" width="1.3" height="1.2"/>
	<rect x="316.1" y="4.3" fill="#C5534E" width="1.3" height="1.2"/>
	<rect x="319.8" y="0.8" fill="#C5534E" width="1.3" height="1.2"/>
	<rect x="323.6" y="4.3" fill="#C5534E" width="1.2" height="1.2"/>
	<rect x="327.3" y="0.8" fill="#C5534E" width="1.2" height="1.2"/>
	<rect x="331" y="4.3" fill="#C5534E" width="1.2" height="1.2"/>
	<rect x="334.7" y="0.8" fill="#C5534E" width="1.2" height="1.2"/>
	<rect x="338.4" y="4.3" fill="#C5534E" width="1.2" height="1.2"/>
	<rect x="342.2" y="0.8" fill="#C5534E" width="1.2" height="1.2"/>
	<rect x="345.9" y="4.3" fill="#C5534E" width="1.2" height="1.2"/>
	<rect x="349.6" y="0.8" fill="#C5534E" width="1.2" height="1.2"/>
	<rect x="353.3" y="4.3" fill="#C5534E" width="1.2" height="1.2"/>
	<rect x="357" y="0.8" fill="#C5534E" width="1.2" height="1.2"/>
	<rect x="360.8" y="4.3" fill="#C5534E" width="1.2" height="1.2"/>
	<rect x="364.5" y="0.8" fill="#C5534E" width="1.2" height="1.2"/>
	<rect x="368.2" y="4.3" fill="#C5534E" width="1.2" height="1.2"/>
	<rect x="371.9" y="0.8" fill="#C5534E" width="1.2" height="1.2"/>
	<rect x="375.6" y="4.3" fill="#C5534E" width="1.2" height="1.2"/>
	<rect x="379.4" y="0.8" fill="#C5534E" width="1.2" height="1.2"/>
	<rect x="383.1" y="4.3" fill="#C5534E" width="1.2" height="1.2"/>
	<rect x="386.8" y="0.8" fill="#C5534E" width="1.2" height="1.2"/>
	<rect x="390.5" y="4.3" fill="#C5534E" width="1.2" height="1.2"/>
	<rect x="394.2" y="0.8" fill="#C5534E" width="1.3" height="1.2"/>
	<rect x="397.9" y="4.3" fill="#C5534E" width="1.3" height="1.2"/>
	<rect x="401.7" y="0.8" fill="#C5534E" width="1.3" height="1.2"/>
	<rect x="405.4" y="4.3" fill="#C5534E" width="1.3" height="1.2"/>
	<rect x="409.1" y="0.8" fill="#C5534E" width="1.3" height="1.2"/>
	<rect x="412.8" y="4.3" fill="#C5534E" width="1.2" height="1.2"/>
	<rect x="416.6" y="0.8" fill="#C5534E" width="1.2" height="1.2"/>
	<rect x="420.3" y="4.3" fill="#C5534E" width="1.2" height="1.2"/>
	<rect x="424" y="0.8" fill="#C5534E" width="1.2" height="1.2"/>
	<rect x="427.7" y="4.3" fill="#C5534E" width="1.2" height="1.2"/>
	<rect x="431.4" y="0.8" fill="#C5534E" width="1.2" height="1.2"/>
	<rect x="435.2" y="4.3" fill="#C5534E" width="1.2" height="1.2"/>
	<rect x="438.9" y="0.8" fill="#C5534E" width="1.2" height="1.2"/>
	<rect x="442.6" y="4.3" fill="#C5534E" width="1.2" height="1.2"/>
	<rect x="446.3" y="0.8" fill="#C5534E" width="1.2" height="1.2"/>
	<rect x="450" y="4.3" fill="#C5534E" width="1.2" height="1.2"/>
	<rect x="453.7" y="0.8" fill="#C5534E" width="1.3" height="1.2"/>
	<rect x="457.5" y="4.3" fill="#C5534E" width="1.3" height="1.2"/>
	<rect x="461.2" y="0.8" fill="#C5534E" width="1.3" height="1.2"/>
	<rect x="464.9" y="4.3" fill="#C5534E" width="1.3" height="1.2"/>
	<rect x="468.6" y="0.8" fill="#C5534E" width="1.3" height="1.2"/>
	<rect x="472.3" y="4.3" fill="#C5534E" width="1.2" height="1.2"/>
	<rect x="476.1" y="0.8" fill="#C5534E" width="1.2" height="1.2"/>
	<rect x="479.8" y="4.3" fill="#C5534E" width="1.2" height="1.2"/>
	<rect x="483.5" y="0.8" fill="#C5534E" width="1.2" height="1.2"/>
	<rect x="487.2" y="4.3" fill="#C5534E" width="1.2" height="1.2"/>
	<rect x="490.9" y="0.8" fill="#C5534E" width="1.2" height="1.2"/>
	<rect x="494.7" y="4.3" fill="#C5534E" width="1.2" height="1.2"/>
	<rect x="498.4" y="0.8" fill="#C5534E" width="1.2" height="1.2"/>
	<rect x="502.1" y="4.3" fill="#C5534E" width="1.2" height="1.2"/>
	<rect x="505.8" y="0.8" fill="#C5534E" width="1.2" height="1.2"/>
	<rect x="509.5" y="4.3" fill="#C5534E" width="1.2" height="1.2"/>
	<rect x="513.3" y="0.8" fill="#C5534E" width="1.2" height="1.2"/>
	<rect x="517" y="4.3" fill="#C5534E" width="1.2" height="1.2"/>
	<rect x="520.7" y="0.8" fill="#C5534E" width="1.2" height="1.2"/>
	<rect x="524.4" y="4.3" fill="#C5534E" width="1.2" height="1.2"/>
	<rect x="528.1" y="0.8" fill="#C5534E" width="1.2" height="1.2"/>
	<rect x="531.9" y="4.3" fill="#C5534E" width="1.2" height="1.2"/>
	<rect x="535.6" y="0.8" fill="#C5534E" width="1.2" height="1.2"/>
	<rect x="539.3" y="4.3" fill="#C5534E" width="1.2" height="1.2"/>
	<rect x="543" y="0.8" fill="#C5534E" width="1.3" height="1.2"/>
	<rect x="546.7" y="4.3" fill="#C5534E" width="1.3" height="1.2"/>
	<rect x="550.4" y="0.8" fill="#C5534E" width="1.3" height="1.2"/>
	<rect x="554.2" y="4.3" fill="#C5534E" width="1.3" height="1.2"/>
	<rect x="557.9" y="0.8" fill="#C5534E" width="1.3" height="1.2"/>
	<rect x="561.6" y="4.3" fill="#C5534E" width="1.2" height="1.2"/>
	<rect x="565.3" y="0.8" fill="#C5534E" width="1.2" height="1.2"/>
	<rect x="569.1" y="4.3" fill="#C5534E" width="1.2" height="1.2"/>
	<rect x="572.8" y="0.8" fill="#C5534E" width="1.2" height="1.2"/>
	<rect x="576.5" y="4.3" fill="#C5534E" width="1.2" height="1.2"/>
	<rect x="580.2" y="0.8" fill="#C5534E" width="1.2" height="1.2"/>
	<rect x="583.9" y="4.3" fill="#C5534E" width="1.2" height="1.2"/>
	<rect x="587.7" y="0.8" fill="#C5534E" width="1.2" height="1.2"/>
</g>
<g id="_x3C_Group_x3E__colorstyle:Base_00000114057289046945248260000009071606900126049446_">
	<rect y="4.3" fill="#53AC9F" width="1.2" height="1.2"/>
	<rect x="1.2" y="3.1" fill="#53AC9F" width="1.2" height="1.2"/>
	<rect x="2.5" y="2" fill="#53AC9F" width="1.3" height="1.2"/>
	<rect x="3.7" y="0.8" fill="#53AC9F" width="1.2" height="1.2"/>
	<rect x="5" y="2" fill="#53AC9F" width="1.2" height="1.2"/>
	<rect x="6.2" y="3.1" fill="#53AC9F" width="1.2" height="1.2"/>
	<rect x="7.4" y="4.3" fill="#53AC9F" width="1.3" height="1.2"/>
	<rect x="8.7" y="3.1" fill="#53AC9F" width="1.2" height="1.2"/>
	<rect x="9.9" y="2" fill="#53AC9F" width="1.2" height="1.2"/>
	<rect x="11.1" y="0.8" fill="#53AC9F" width="1.3" height="1.2"/>
	<rect x="12.4" y="2" fill="#53AC9F" width="1.2" height="1.2"/>
	<rect x="13.6" y="3.1" fill="#53AC9F" width="1.2" height="1.2"/>
	<rect x="14.9" y="4.3" fill="#53AC9F" width="1.3" height="1.2"/>
	<rect x="16.1" y="3.1" fill="#53AC9F" width="1.2" height="1.2"/>
	<rect x="17.4" y="2" fill="#53AC9F" width="1.2" height="1.2"/>
	<rect x="18.6" y="0.8" fill="#53AC9F" width="1.3" height="1.2"/>
	<rect x="19.8" y="2" fill="#53AC9F" width="1.2" height="1.2"/>
	<rect x="21.1" y="3.1" fill="#53AC9F" width="1.2" height="1.2"/>
	<rect x="22.3" y="4.3" fill="#53AC9F" width="1.3" height="1.2"/>
	<rect x="23.6" y="3.1" fill="#53AC9F" width="1.2" height="1.2"/>
	<rect x="24.8" y="2" fill="#53AC9F" width="1.2" height="1.2"/>
	<rect x="26" y="0.8" fill="#53AC9F" width="1.2" height="1.2"/>
	<rect x="27.3" y="2" fill="#53AC9F" width="1.3" height="1.2"/>
	<rect x="28.5" y="3.1" fill="#53AC9F" width="1.2" height="1.2"/>
	<rect x="29.7" y="4.3" fill="#53AC9F" width="1.2" height="1.2"/>
	<rect x="31" y="3.1" fill="#53AC9F" width="1.3" height="1.2"/>
	<rect x="32.2" y="2" fill="#53AC9F" width="1.2" height="1.2"/>
	<rect x="33.5" y="0.8" fill="#53AC9F" width="1.2" height="1.2"/>
	<rect x="34.7" y="2" fill="#53AC9F" width="1.3" height="1.2"/>
	<rect x="36" y="3.1" fill="#53AC9F" width="1.2" height="1.2"/>
	<rect x="37.2" y="4.3" fill="#53AC9F" width="1.2" height="1.2"/>
	<rect x="38.4" y="3.1" fill="#53AC9F" width="1.3" height="1.2"/>
	<rect x="39.7" y="2" fill="#53AC9F" width="1.2" height="1.2"/>
	<rect x="40.9" y="0.8" fill="#53AC9F" width="1.2" height="1.2"/>
	<rect x="42.1" y="2" fill="#53AC9F" width="1.3" height="1.2"/>
	<rect x="43.4" y="3.1" fill="#53AC9F" width="1.2" height="1.2"/>
	<rect x="44.6" y="4.3" fill="#53AC9F" width="1.2" height="1.2"/>
	<rect x="45.9" y="3.1" fill="#53AC9F" width="1.2" height="1.2"/>
	<rect x="47.1" y="2" fill="#53AC9F" width="1.3" height="1.2"/>
	<rect x="48.4" y="0.8" fill="#53AC9F" width="1.2" height="1.2"/>
	<rect x="49.6" y="2" fill="#53AC9F" width="1.2" height="1.2"/>
	<rect x="50.8" y="3.1" fill="#53AC9F" width="1.3" height="1.2"/>
	<rect x="52.1" y="4.3" fill="#53AC9F" width="1.2" height="1.2"/>
	<rect x="53.3" y="3.1" fill="#53AC9F" width="1.2" height="1.2"/>
	<rect x="54.5" y="2" fill="#53AC9F" width="1.3" height="1.2"/>
	<rect x="55.8" y="0.8" fill="#53AC9F" width="1.2" height="1.2"/>
	<rect x="57" y="2" fill="#53AC9F" width="1.2" height="1.2"/>
	<rect x="58.3" y="3.1" fill="#53AC9F" width="1.3" height="1.2"/>
	<rect x="59.5" y="4.3" fill="#53AC9F" width="1.2" height="1.2"/>
	<rect x="60.7" y="3.1" fill="#53AC9F" width="1.2" height="1.2"/>
	<rect x="62" y="2" fill="#53AC9F" width="1.3" height="1.2"/>
	<rect x="63.2" y="0.8" fill="#53AC9F" width="1.2" height="1.2"/>
	<rect x="64.5" y="2" fill="#53AC9F" width="1.2" height="1.2"/>
	<rect x="65.7" y="3.1" fill="#53AC9F" width="1.2" height="1.2"/>
	<rect x="66.9" y="4.3" fill="#53AC9F" width="1.3" height="1.2"/>
	<rect x="68.2" y="3.1" fill="#53AC9F" width="1.2" height="1.2"/>
	<rect x="69.4" y="2" fill="#53AC9F" width="1.2" height="1.2"/>
	<rect x="70.7" y="0.8" fill="#53AC9F" width="1.3" height="1.2"/>
	<rect x="71.9" y="2" fill="#53AC9F" width="1.2" height="1.2"/>
	<rect x="73.1" y="3.1" fill="#53AC9F" width="1.2" height="1.2"/>
	<rect x="74.4" y="4.3" fill="#53AC9F" width="1.3" height="1.2"/>
	<rect x="75.6" y="3.1" fill="#53AC9F" width="1.2" height="1.2"/>
	<rect x="76.9" y="2" fill="#53AC9F" width="1.2" height="1.2"/>
	<rect x="78.1" y="0.8" fill="#53AC9F" width="1.3" height="1.2"/>
	<rect x="79.3" y="2" fill="#53AC9F" width="1.2" height="1.2"/>
	<rect x="80.6" y="3.1" fill="#53AC9F" width="1.2" height="1.2"/>
	<rect x="81.8" y="4.3" fill="#53AC9F" width="1.3" height="1.2"/>
	<rect x="83.1" y="3.1" fill="#53AC9F" width="1.2" height="1.2"/>
	<rect x="84.3" y="2" fill="#53AC9F" width="1.2" height="1.2"/>
	<rect x="85.5" y="0.8" fill="#53AC9F" width="1.2" height="1.2"/>
	<rect x="86.8" y="2" fill="#53AC9F" width="1.3" height="1.2"/>
	<rect x="88" y="3.1" fill="#53AC9F" width="1.2" height="1.2"/>
	<rect x="89.3" y="4.3" fill="#53AC9F" width="1.2" height="1.2"/>
	<rect x="90.5" y="3.1" fill="#53AC9F" width="1.3" height="1.2"/>
	<rect x="91.7" y="2" fill="#53AC9F" width="1.2" height="1.2"/>
	<rect x="93" y="0.8" fill="#53AC9F" width="1.2" height="1.2"/>
	<rect x="94.2" y="2" fill="#53AC9F" width="1.3" height="1.2"/>
	<rect x="95.5" y="3.1" fill="#53AC9F" width="1.2" height="1.2"/>
	<rect x="96.7" y="4.3" fill="#53AC9F" width="1.2" height="1.2"/>
	<rect x="97.9" y="3.1" fill="#53AC9F" width="1.3" height="1.2"/>
	<rect x="99.2" y="2" fill="#53AC9F" width="1.2" height="1.2"/>
	<rect x="100.4" y="0.8" fill="#53AC9F" width="1.2" height="1.2"/>
	<rect x="101.7" y="2" fill="#53AC9F" width="1.3" height="1.2"/>
	<rect x="102.9" y="3.1" fill="#53AC9F" width="1.2" height="1.2"/>
	<rect x="104.1" y="4.3" fill="#53AC9F" width="1.2" height="1.2"/>
	<rect x="105.4" y="3.1" fill="#53AC9F" width="1.2" height="1.2"/>
	<rect x="106.6" y="2" fill="#53AC9F" width="1.3" height="1.2"/>
	<rect x="107.9" y="0.8" fill="#53AC9F" width="1.2" height="1.2"/>
	<rect x="109.1" y="2" fill="#53AC9F" width="1.2" height="1.2"/>
	<rect x="110.3" y="3.1" fill="#53AC9F" width="1.3" height="1.2"/>
	<rect x="111.6" y="4.3" fill="#53AC9F" width="1.2" height="1.2"/>
	<rect x="112.8" y="3.1" fill="#53AC9F" width="1.2" height="1.2"/>
	<rect x="114" y="2" fill="#53AC9F" width="1.3" height="1.2"/>
	<rect x="115.3" y="0.8" fill="#53AC9F" width="1.2" height="1.2"/>
	<rect x="116.5" y="2" fill="#53AC9F" width="1.2" height="1.2"/>
	<rect x="117.8" y="3.1" fill="#53AC9F" width="1.3" height="1.2"/>
	<rect x="119" y="4.3" fill="#53AC9F" width="1.2" height="1.2"/>
	<rect x="120.2" y="3.1" fill="#53AC9F" width="1.2" height="1.2"/>
	<rect x="121.5" y="2" fill="#53AC9F" width="1.3" height="1.2"/>
	<rect x="122.7" y="0.8" fill="#53AC9F" width="1.2" height="1.2"/>
	<rect x="124" y="2" fill="#53AC9F" width="1.2" height="1.2"/>
	<rect x="125.2" y="3.1" fill="#53AC9F" width="1.2" height="1.2"/>
	<rect x="126.4" y="4.3" fill="#53AC9F" width="1.3" height="1.2"/>
	<rect x="127.7" y="3.1" fill="#53AC9F" width="1.2" height="1.2"/>
	<rect x="128.9" y="2" fill="#53AC9F" width="1.2" height="1.2"/>
	<rect x="130.2" y="0.8" fill="#53AC9F" width="1.3" height="1.2"/>
	<rect x="131.4" y="2" fill="#53AC9F" width="1.2" height="1.2"/>
	<rect x="132.6" y="3.1" fill="#53AC9F" width="1.2" height="1.2"/>
	<rect x="133.9" y="4.3" fill="#53AC9F" width="1.3" height="1.2"/>
	<rect x="135.1" y="3.1" fill="#53AC9F" width="1.2" height="1.2"/>
	<rect x="136.4" y="2" fill="#53AC9F" width="1.2" height="1.2"/>
	<rect x="137.6" y="0.8" fill="#53AC9F" width="1.3" height="1.2"/>
	<rect x="138.9" y="2" fill="#53AC9F" width="1.2" height="1.2"/>
	<rect x="140.1" y="3.1" fill="#53AC9F" width="1.2" height="1.2"/>
	<rect x="141.3" y="4.3" fill="#53AC9F" width="1.3" height="1.2"/>
	<rect x="142.6" y="3.1" fill="#53AC9F" width="1.2" height="1.2"/>
	<rect x="143.8" y="2" fill="#53AC9F" width="1.2" height="1.2"/>
	<rect x="145" y="0.8" fill="#53AC9F" width="1.2" height="1.2"/>
	<rect x="146.3" y="2" fill="#53AC9F" width="1.3" height="1.2"/>
	<rect x="147.5" y="3.1" fill="#53AC9F" width="1.2" height="1.2"/>
	<rect x="148.8" y="4.3" fill="#53AC9F" width="1.2" height="1.2"/>
	<rect x="150" y="3.1" fill="#53AC9F" width="1.3" height="1.2"/>
	<rect x="151.2" y="2" fill="#53AC9F" width="1.2" height="1.2"/>
	<rect x="152.5" y="0.8" fill="#53AC9F" width="1.2" height="1.2"/>
	<rect x="153.7" y="2" fill="#53AC9F" width="1.3" height="1.2"/>
	<rect x="155" y="3.1" fill="#53AC9F" width="1.2" height="1.2"/>
	<rect x="156.2" y="4.3" fill="#53AC9F" width="1.2" height="1.2"/>
	<rect x="157.4" y="3.1" fill="#53AC9F" width="1.3" height="1.2"/>
	<rect x="158.7" y="2" fill="#53AC9F" width="1.2" height="1.2"/>
	<rect x="159.9" y="0.8" fill="#53AC9F" width="1.2" height="1.2"/>
	<rect x="161.2" y="2" fill="#53AC9F" width="1.3" height="1.2"/>
	<rect x="162.4" y="3.1" fill="#53AC9F" width="1.2" height="1.2"/>
	<rect x="163.6" y="4.3" fill="#53AC9F" width="1.2" height="1.2"/>
	<rect x="164.9" y="3.1" fill="#53AC9F" width="1.2" height="1.2"/>
	<rect x="166.1" y="2" fill="#53AC9F" width="1.3" height="1.2"/>
	<rect x="167.4" y="0.8" fill="#53AC9F" width="1.2" height="1.2"/>
	<rect x="168.6" y="2" fill="#53AC9F" width="1.2" height="1.2"/>
	<rect x="169.8" y="3.1" fill="#53AC9F" width="1.3" height="1.2"/>
	<rect x="171.1" y="4.3" fill="#53AC9F" width="1.2" height="1.2"/>
	<rect x="172.3" y="3.1" fill="#53AC9F" width="1.2" height="1.2"/>
	<rect x="173.5" y="2" fill="#53AC9F" width="1.3" height="1.2"/>
	<rect x="174.8" y="0.8" fill="#53AC9F" width="1.2" height="1.2"/>
	<rect x="176" y="2" fill="#53AC9F" width="1.2" height="1.2"/>
	<rect x="177.3" y="3.1" fill="#53AC9F" width="1.3" height="1.2"/>
	<rect x="178.5" y="4.3" fill="#53AC9F" width="1.2" height="1.2"/>
	<rect x="179.8" y="3.1" fill="#53AC9F" width="1.2" height="1.2"/>
	<rect x="181" y="2" fill="#53AC9F" width="1.3" height="1.2"/>
	<rect x="182.2" y="0.8" fill="#53AC9F" width="1.2" height="1.2"/>
	<rect x="183.5" y="2" fill="#53AC9F" width="1.2" height="1.2"/>
	<rect x="184.7" y="3.1" fill="#53AC9F" width="1.2" height="1.2"/>
	<rect x="185.9" y="4.3" fill="#53AC9F" width="1.3" height="1.2"/>
	<rect x="187.2" y="3.1" fill="#53AC9F" width="1.2" height="1.2"/>
	<rect x="188.4" y="2" fill="#53AC9F" width="1.2" height="1.2"/>
	<rect x="189.7" y="0.8" fill="#53AC9F" width="1.3" height="1.2"/>
	<rect x="190.9" y="2" fill="#53AC9F" width="1.2" height="1.2"/>
	<rect x="192.2" y="3.1" fill="#53AC9F" width="1.2" height="1.2"/>
	<rect x="193.4" y="4.3" fill="#53AC9F" width="1.3" height="1.2"/>
	<rect x="194.6" y="3.1" fill="#53AC9F" width="1.2" height="1.2"/>
	<rect x="195.9" y="2" fill="#53AC9F" width="1.2" height="1.2"/>
	<rect x="197.1" y="0.8" fill="#53AC9F" width="1.3" height="1.2"/>
	<rect x="198.4" y="2" fill="#53AC9F" width="1.2" height="1.2"/>
	<rect x="199.6" y="3.1" fill="#53AC9F" width="1.2" height="1.2"/>
	<rect x="200.8" y="4.3" fill="#53AC9F" width="1.3" height="1.2"/>
	<rect x="202.1" y="3.1" fill="#53AC9F" width="1.2" height="1.2"/>
	<rect x="203.3" y="2" fill="#53AC9F" width="1.2" height="1.2"/>
	<rect x="204.5" y="0.8" fill="#53AC9F" width="1.2" height="1.2"/>
	<rect x="205.8" y="2" fill="#53AC9F" width="1.3" height="1.2"/>
	<rect x="207" y="3.1" fill="#53AC9F" width="1.2" height="1.2"/>
	<rect x="208.3" y="4.3" fill="#53AC9F" width="1.2" height="1.2"/>
	<rect x="209.5" y="3.1" fill="#53AC9F" width="1.3" height="1.2"/>
	<rect x="210.8" y="2" fill="#53AC9F" width="1.2" height="1.2"/>
	<rect x="212" y="0.8" fill="#53AC9F" width="1.2" height="1.2"/>
	<rect x="213.2" y="2" fill="#53AC9F" width="1.3" height="1.2"/>
	<rect x="214.5" y="3.1" fill="#53AC9F" width="1.2" height="1.2"/>
	<rect x="215.7" y="4.3" fill="#53AC9F" width="1.2" height="1.2"/>
	<rect x="216.9" y="3.1" fill="#53AC9F" width="1.3" height="1.2"/>
	<rect x="218.2" y="2" fill="#53AC9F" width="1.2" height="1.2"/>
	<rect x="219.4" y="0.8" fill="#53AC9F" width="1.2" height="1.2"/>
	<rect x="220.7" y="2" fill="#53AC9F" width="1.3" height="1.2"/>
	<rect x="221.9" y="3.1" fill="#53AC9F" width="1.2" height="1.2"/>
	<rect x="223.2" y="4.3" fill="#53AC9F" width="1.2" height="1.2"/>
	<rect x="224.4" y="3.1" fill="#53AC9F" width="1.2" height="1.2"/>
	<rect x="225.6" y="2" fill="#53AC9F" width="1.3" height="1.2"/>
	<rect x="226.9" y="0.8" fill="#53AC9F" width="1.2" height="1.2"/>
	<rect x="228.1" y="2" fill="#53AC9F" width="1.2" height="1.2"/>
	<rect x="229.3" y="3.1" fill="#53AC9F" width="1.3" height="1.2"/>
	<rect x="230.6" y="4.3" fill="#53AC9F" width="1.2" height="1.2"/>
	<rect x="231.8" y="3.1" fill="#53AC9F" width="1.2" height="1.2"/>
	<rect x="233.1" y="2" fill="#53AC9F" width="1.3" height="1.2"/>
	<rect x="234.3" y="0.8" fill="#53AC9F" width="1.2" height="1.2"/>
	<rect x="235.5" y="2" fill="#53AC9F" width="1.2" height="1.2"/>
	<rect x="236.8" y="3.1" fill="#53AC9F" width="1.3" height="1.2"/>
	<rect x="238" y="4.3" fill="#53AC9F" width="1.2" height="1.2"/>
	<rect x="239.3" y="3.1" fill="#53AC9F" width="1.2" height="1.2"/>
	<rect x="240.5" y="2" fill="#53AC9F" width="1.3" height="1.2"/>
	<rect x="241.7" y="0.8" fill="#53AC9F" width="1.2" height="1.2"/>
	<rect x="243" y="2" fill="#53AC9F" width="1.2" height="1.2"/>
	<rect x="244.2" y="3.1" fill="#53AC9F" width="1.2" height="1.2"/>
	<rect x="245.5" y="4.3" fill="#53AC9F" width="1.3" height="1.2"/>
	<rect x="246.7" y="3.1" fill="#53AC9F" width="1.2" height="1.2"/>
	<rect x="247.9" y="2" fill="#53AC9F" width="1.2" height="1.2"/>
	<rect x="249.2" y="0.8" fill="#53AC9F" width="1.3" height="1.2"/>
	<rect x="250.4" y="2" fill="#53AC9F" width="1.2" height="1.2"/>
	<rect x="251.7" y="3.1" fill="#53AC9F" width="1.2" height="1.2"/>
	<rect x="252.9" y="4.3" fill="#53AC9F" width="1.3" height="1.2"/>
	<rect x="254.1" y="3.1" fill="#53AC9F" width="1.2" height="1.2"/>
	<rect x="255.4" y="2" fill="#53AC9F" width="1.2" height="1.2"/>
	<rect x="256.6" y="0.8" fill="#53AC9F" width="1.3" height="1.2"/>
	<rect x="257.9" y="2" fill="#53AC9F" width="1.2" height="1.2"/>
	<rect x="259.1" y="3.1" fill="#53AC9F" width="1.2" height="1.2"/>
	<rect x="260.3" y="4.3" fill="#53AC9F" width="1.3" height="1.2"/>
	<rect x="261.6" y="3.1" fill="#53AC9F" width="1.2" height="1.2"/>
	<rect x="262.8" y="2" fill="#53AC9F" width="1.2" height="1.2"/>
	<rect x="264.1" y="0.8" fill="#53AC9F" width="1.2" height="1.2"/>
	<rect x="265.3" y="2" fill="#53AC9F" width="1.3" height="1.2"/>
	<rect x="266.5" y="3.1" fill="#53AC9F" width="1.2" height="1.2"/>
	<rect x="267.8" y="4.3" fill="#53AC9F" width="1.2" height="1.2"/>
	<rect x="269" y="3.1" fill="#53AC9F" width="1.3" height="1.2"/>
	<rect x="270.3" y="2" fill="#53AC9F" width="1.2" height="1.2"/>
	<rect x="271.5" y="0.8" fill="#53AC9F" width="1.2" height="1.2"/>
	<rect x="272.7" y="2" fill="#53AC9F" width="1.3" height="1.2"/>
	<rect x="274" y="3.1" fill="#53AC9F" width="1.2" height="1.2"/>
	<rect x="275.2" y="4.3" fill="#53AC9F" width="1.2" height="1.2"/>
	<rect x="276.5" y="3.1" fill="#53AC9F" width="1.3" height="1.2"/>
	<rect x="277.7" y="2" fill="#53AC9F" width="1.2" height="1.2"/>
	<rect x="278.9" y="0.8" fill="#53AC9F" width="1.2" height="1.2"/>
	<rect x="280.2" y="2" fill="#53AC9F" width="1.3" height="1.2"/>
	<rect x="281.4" y="3.1" fill="#53AC9F" width="1.2" height="1.2"/>
	<rect x="282.7" y="4.3" fill="#53AC9F" width="1.2" height="1.2"/>
	<rect x="283.9" y="3.1" fill="#53AC9F" width="1.2" height="1.2"/>
	<rect x="285.1" y="2" fill="#53AC9F" width="1.3" height="1.2"/>
	<rect x="286.4" y="0.8" fill="#53AC9F" width="1.2" height="1.2"/>
	<rect x="287.6" y="2" fill="#53AC9F" width="1.2" height="1.2"/>
	<rect x="288.8" y="3.1" fill="#53AC9F" width="1.3" height="1.2"/>
	<rect x="290.1" y="4.3" fill="#53AC9F" width="1.2" height="1.2"/>
	<rect x="291.3" y="3.1" fill="#53AC9F" width="1.2" height="1.2"/>
	<rect x="292.6" y="2" fill="#53AC9F" width="1.3" height="1.2"/>
	<rect x="293.8" y="0.8" fill="#53AC9F" width="1.2" height="1.2"/>
	<rect x="295" y="2" fill="#53AC9F" width="1.2" height="1.2"/>
	<rect x="296.3" y="3.1" fill="#53AC9F" width="1.3" height="1.2"/>
	<rect x="297.5" y="4.3" fill="#53AC9F" width="1.2" height="1.2"/>
	<rect x="298.8" y="3.1" fill="#53AC9F" width="1.2" height="1.2"/>
	<rect x="300" y="2" fill="#53AC9F" width="1.3" height="1.2"/>
	<rect x="301.3" y="0.8" fill="#53AC9F" width="1.2" height="1.2"/>
	<rect x="302.5" y="2" fill="#53AC9F" width="1.2" height="1.2"/>
	<rect x="303.7" y="3.1" fill="#53AC9F" width="1.2" height="1.2"/>
	<rect x="305" y="4.3" fill="#53AC9F" width="1.3" height="1.2"/>
	<rect x="306.2" y="3.1" fill="#53AC9F" width="1.2" height="1.2"/>
	<rect x="307.4" y="2" fill="#53AC9F" width="1.2" height="1.2"/>
	<rect x="308.7" y="0.8" fill="#53AC9F" width="1.3" height="1.2"/>
	<rect x="309.9" y="2" fill="#53AC9F" width="1.2" height="1.2"/>
	<rect x="311.2" y="3.1" fill="#53AC9F" width="1.2" height="1.2"/>
	<rect x="312.4" y="4.3" fill="#53AC9F" width="1.3" height="1.2"/>
	<rect x="313.6" y="3.1" fill="#53AC9F" width="1.2" height="1.2"/>
	<rect x="314.9" y="2" fill="#53AC9F" width="1.2" height="1.2"/>
	<rect x="316.1" y="0.8" fill="#53AC9F" width="1.3" height="1.2"/>
	<rect x="317.4" y="2" fill="#53AC9F" width="1.2" height="1.2"/>
	<rect x="318.6" y="3.1" fill="#53AC9F" width="1.2" height="1.2"/>
	<rect x="319.8" y="4.3" fill="#53AC9F" width="1.3" height="1.2"/>
	<rect x="321.1" y="3.1" fill="#53AC9F" width="1.2" height="1.2"/>
	<rect x="322.3" y="2" fill="#53AC9F" width="1.2" height="1.2"/>
	<rect x="323.6" y="0.8" fill="#53AC9F" width="1.2" height="1.2"/>
	<rect x="324.8" y="2" fill="#53AC9F" width="1.3" height="1.2"/>
	<rect x="326" y="3.1" fill="#53AC9F" width="1.2" height="1.2"/>
	<rect x="327.3" y="4.3" fill="#53AC9F" width="1.2" height="1.2"/>
	<rect x="328.5" y="3.1" fill="#53AC9F" width="1.3" height="1.2"/>
	<rect x="329.8" y="2" fill="#53AC9F" width="1.2" height="1.2"/>
	<rect x="331" y="0.8" fill="#53AC9F" width="1.2" height="1.2"/>
	<rect x="332.2" y="2" fill="#53AC9F" width="1.3" height="1.2"/>
	<rect x="333.5" y="3.1" fill="#53AC9F" width="1.2" height="1.2"/>
	<rect x="334.7" y="4.3" fill="#53AC9F" width="1.2" height="1.2"/>
	<rect x="336" y="3.1" fill="#53AC9F" width="1.3" height="1.2"/>
	<rect x="337.2" y="2" fill="#53AC9F" width="1.2" height="1.2"/>
	<rect x="338.4" y="0.8" fill="#53AC9F" width="1.2" height="1.2"/>
	<rect x="339.7" y="2" fill="#53AC9F" width="1.3" height="1.2"/>
	<rect x="340.9" y="3.1" fill="#53AC9F" width="1.2" height="1.2"/>
	<rect x="342.2" y="4.3" fill="#53AC9F" width="1.2" height="1.2"/>
	<rect x="343.4" y="3.1" fill="#53AC9F" width="1.2" height="1.2"/>
	<rect x="344.6" y="2" fill="#53AC9F" width="1.3" height="1.2"/>
	<rect x="345.9" y="0.8" fill="#53AC9F" width="1.2" height="1.2"/>
	<rect x="347.1" y="2" fill="#53AC9F" width="1.2" height="1.2"/>
	<rect x="348.4" y="3.1" fill="#53AC9F" width="1.3" height="1.2"/>
	<rect x="349.6" y="4.3" fill="#53AC9F" width="1.2" height="1.2"/>
	<rect x="350.9" y="3.1" fill="#53AC9F" width="1.2" height="1.2"/>
	<rect x="352.1" y="2" fill="#53AC9F" width="1.2" height="1.2"/>
	<rect x="353.3" y="0.8" fill="#53AC9F" width="1.2" height="1.2"/>
	<rect x="354.6" y="2" fill="#53AC9F" width="1.3" height="1.2"/>
	<rect x="355.8" y="3.1" fill="#53AC9F" width="1.2" height="1.2"/>
	<rect x="357" y="4.3" fill="#53AC9F" width="1.2" height="1.2"/>
	<rect x="358.3" y="3.1" fill="#53AC9F" width="1.3" height="1.2"/>
	<rect x="359.5" y="2" fill="#53AC9F" width="1.2" height="1.2"/>
	<rect x="360.8" y="0.8" fill="#53AC9F" width="1.2" height="1.2"/>
	<rect x="362" y="2" fill="#53AC9F" width="1.3" height="1.2"/>
	<rect x="363.3" y="3.1" fill="#53AC9F" width="1.2" height="1.2"/>
	<rect x="364.5" y="4.3" fill="#53AC9F" width="1.2" height="1.2"/>
	<rect x="365.7" y="3.1" fill="#53AC9F" width="1.3" height="1.2"/>
	<rect x="367" y="2" fill="#53AC9F" width="1.2" height="1.2"/>
	<rect x="368.2" y="0.8" fill="#53AC9F" width="1.2" height="1.2"/>
	<rect x="369.4" y="2" fill="#53AC9F" width="1.3" height="1.2"/>
	<rect x="370.7" y="3.1" fill="#53AC9F" width="1.2" height="1.2"/>
	<rect x="371.9" y="4.3" fill="#53AC9F" width="1.2" height="1.2"/>
	<rect x="373.2" y="3.1" fill="#53AC9F" width="1.2" height="1.2"/>
	<rect x="374.4" y="2" fill="#53AC9F" width="1.3" height="1.2"/>
	<rect x="375.6" y="0.8" fill="#53AC9F" width="1.2" height="1.2"/>
	<rect x="376.9" y="2" fill="#53AC9F" width="1.2" height="1.2"/>
	<rect x="378.1" y="3.1" fill="#53AC9F" width="1.3" height="1.2"/>
	<rect x="379.4" y="4.3" fill="#53AC9F" width="1.2" height="1.2"/>
	<rect x="380.6" y="3.1" fill="#53AC9F" width="1.2" height="1.2"/>
	<rect x="381.8" y="2" fill="#53AC9F" width="1.3" height="1.2"/>
	<rect x="383.1" y="0.8" fill="#53AC9F" width="1.2" height="1.2"/>
	<rect x="384.3" y="2" fill="#53AC9F" width="1.2" height="1.2"/>
	<rect x="385.6" y="3.1" fill="#53AC9F" width="1.2" height="1.2"/>
	<rect x="386.8" y="4.3" fill="#53AC9F" width="1.3" height="1.2"/>
	<rect x="388" y="3.1" fill="#53AC9F" width="1.2" height="1.2"/>
	<rect x="389.3" y="2" fill="#53AC9F" width="1.2" height="1.2"/>
	<rect x="390.5" y="0.8" fill="#53AC9F" width="1.3" height="1.2"/>
	<rect x="391.8" y="2" fill="#53AC9F" width="1.2" height="1.2"/>
	<rect x="393" y="3.1" fill="#53AC9F" width="1.2" height="1.2"/>
	<rect x="394.2" y="4.3" fill="#53AC9F" width="1.3" height="1.2"/>
	<rect x="395.5" y="3.1" fill="#53AC9F" width="1.2" height="1.2"/>
	<rect x="396.7" y="2" fill="#53AC9F" width="1.2" height="1.2"/>
	<rect x="398" y="0.8" fill="#53AC9F" width="1.3" height="1.2"/>
	<rect x="399.2" y="2" fill="#53AC9F" width="1.2" height="1.2"/>
	<rect x="400.4" y="3.1" fill="#53AC9F" width="1.2" height="1.2"/>
	<rect x="401.7" y="4.3" fill="#53AC9F" width="1.3" height="1.2"/>
	<rect x="402.9" y="3.1" fill="#53AC9F" width="1.2" height="1.2"/>
	<rect x="404.2" y="2" fill="#53AC9F" width="1.2" height="1.2"/>
	<rect x="405.4" y="0.8" fill="#53AC9F" width="1.2" height="1.2"/>
	<rect x="406.6" y="2" fill="#53AC9F" width="1.3" height="1.2"/>
	<rect x="407.9" y="3.1" fill="#53AC9F" width="1.2" height="1.2"/>
	<rect x="409.1" y="4.3" fill="#53AC9F" width="1.2" height="1.2"/>
	<rect x="410.4" y="3.1" fill="#53AC9F" width="1.3" height="1.2"/>
	<rect x="411.6" y="2" fill="#53AC9F" width="1.2" height="1.2"/>
	<rect x="412.8" y="0.8" fill="#53AC9F" width="1.2" height="1.2"/>
	<rect x="414.1" y="2" fill="#53AC9F" width="1.3" height="1.2"/>
	<rect x="415.3" y="3.1" fill="#53AC9F" width="1.2" height="1.2"/>
	<rect x="416.6" y="4.3" fill="#53AC9F" width="1.2" height="1.2"/>
	<rect x="417.8" y="3.1" fill="#53AC9F" width="1.3" height="1.2"/>
	<rect x="419" y="2" fill="#53AC9F" width="1.2" height="1.2"/>
	<rect x="420.3" y="0.8" fill="#53AC9F" width="1.2" height="1.2"/>
	<rect x="421.5" y="2" fill="#53AC9F" width="1.3" height="1.2"/>
	<rect x="422.8" y="3.1" fill="#53AC9F" width="1.2" height="1.2"/>
	<rect x="424" y="4.3" fill="#53AC9F" width="1.2" height="1.2"/>
	<rect x="425.2" y="3.1" fill="#53AC9F" width="1.2" height="1.2"/>
	<rect x="426.5" y="2" fill="#53AC9F" width="1.3" height="1.2"/>
	<rect x="427.7" y="0.8" fill="#53AC9F" width="1.2" height="1.2"/>
	<rect x="429" y="2" fill="#53AC9F" width="1.2" height="1.2"/>
	<rect x="430.2" y="3.1" fill="#53AC9F" width="1.3" height="1.2"/>
	<rect x="431.4" y="4.3" fill="#53AC9F" width="1.2" height="1.2"/>
	<rect x="432.7" y="3.1" fill="#53AC9F" width="1.2" height="1.2"/>
	<rect x="433.9" y="2" fill="#53AC9F" width="1.2" height="1.2"/>
	<rect x="435.2" y="0.8" fill="#53AC9F" width="1.2" height="1.2"/>
	<rect x="436.4" y="2" fill="#53AC9F" width="1.3" height="1.2"/>
	<rect x="437.7" y="3.1" fill="#53AC9F" width="1.2" height="1.2"/>
	<rect x="438.9" y="4.3" fill="#53AC9F" width="1.2" height="1.2"/>
	<rect x="440.1" y="3.1" fill="#53AC9F" width="1.3" height="1.2"/>
	<rect x="441.4" y="2" fill="#53AC9F" width="1.2" height="1.2"/>
	<rect x="442.6" y="0.8" fill="#53AC9F" width="1.2" height="1.2"/>
	<rect x="443.8" y="2" fill="#53AC9F" width="1.3" height="1.2"/>
	<rect x="445.1" y="3.1" fill="#53AC9F" width="1.2" height="1.2"/>
	<rect x="446.3" y="4.3" fill="#53AC9F" width="1.2" height="1.2"/>
	<rect x="447.6" y="3.1" fill="#53AC9F" width="1.3" height="1.2"/>
	<rect x="448.8" y="2" fill="#53AC9F" width="1.2" height="1.2"/>
	<rect x="450" y="0.8" fill="#53AC9F" width="1.2" height="1.2"/>
	<rect x="451.3" y="2" fill="#53AC9F" width="1.3" height="1.2"/>
	<rect x="452.5" y="3.1" fill="#53AC9F" width="1.2" height="1.2"/>
	<rect x="453.8" y="4.3" fill="#53AC9F" width="1.2" height="1.2"/>
	<rect x="455" y="3.1" fill="#53AC9F" width="1.2" height="1.2"/>
	<rect x="456.2" y="2" fill="#53AC9F" width="1.3" height="1.2"/>
	<rect x="457.5" y="0.8" fill="#53AC9F" width="1.2" height="1.2"/>
	<rect x="458.7" y="2" fill="#53AC9F" width="1.2" height="1.2"/>
	<rect x="460" y="3.1" fill="#53AC9F" width="1.3" height="1.2"/>
	<rect x="461.2" y="4.3" fill="#53AC9F" width="1.2" height="1.2"/>
	<rect x="462.4" y="3.1" fill="#53AC9F" width="1.2" height="1.2"/>
	<rect x="463.7" y="2" fill="#53AC9F" width="1.3" height="1.2"/>
	<rect x="464.9" y="0.8" fill="#53AC9F" width="1.2" height="1.2"/>
	<rect x="466.2" y="2" fill="#53AC9F" width="1.2" height="1.2"/>
	<rect x="467.4" y="3.1" fill="#53AC9F" width="1.3" height="1.2"/>
	<rect x="468.7" y="4.3" fill="#53AC9F" width="1.2" height="1.2"/>
	<rect x="469.9" y="3.1" fill="#53AC9F" width="1.2" height="1.2"/>
	<rect x="471.1" y="2" fill="#53AC9F" width="1.2" height="1.2"/>
	<rect x="472.4" y="0.8" fill="#53AC9F" width="1.2" height="1.2"/>
	<rect x="473.6" y="2" fill="#53AC9F" width="1.3" height="1.2"/>
	<rect x="474.9" y="3.1" fill="#53AC9F" width="1.2" height="1.2"/>
	<rect x="476.1" y="4.3" fill="#53AC9F" width="1.2" height="1.2"/>
	<rect x="477.3" y="3.1" fill="#53AC9F" width="1.3" height="1.2"/>
	<rect x="478.6" y="2" fill="#53AC9F" width="1.2" height="1.2"/>
	<rect x="479.8" y="0.8" fill="#53AC9F" width="1.2" height="1.2"/>
	<rect x="481" y="2" fill="#53AC9F" width="1.3" height="1.2"/>
	<rect x="482.3" y="3.1" fill="#53AC9F" width="1.2" height="1.2"/>
	<rect x="483.5" y="4.3" fill="#53AC9F" width="1.2" height="1.2"/>
	<rect x="484.8" y="3.1" fill="#53AC9F" width="1.3" height="1.2"/>
	<rect x="486" y="2" fill="#53AC9F" width="1.2" height="1.2"/>
	<rect x="487.3" y="0.8" fill="#53AC9F" width="1.2" height="1.2"/>
	<rect x="488.5" y="2" fill="#53AC9F" width="1.3" height="1.2"/>
	<rect x="489.7" y="3.1" fill="#53AC9F" width="1.2" height="1.2"/>
	<rect x="491" y="4.3" fill="#53AC9F" width="1.2" height="1.2"/>
	<rect x="492.2" y="3.1" fill="#53AC9F" width="1.2" height="1.2"/>
	<rect x="493.4" y="2" fill="#53AC9F" width="1.3" height="1.2"/>
	<rect x="494.7" y="0.8" fill="#53AC9F" width="1.2" height="1.2"/>
	<rect x="495.9" y="2" fill="#53AC9F" width="1.2" height="1.2"/>
	<rect x="497.2" y="3.1" fill="#53AC9F" width="1.3" height="1.2"/>
	<rect x="498.4" y="4.3" fill="#53AC9F" width="1.2" height="1.2"/>
	<rect x="499.7" y="3.1" fill="#53AC9F" width="1.2" height="1.2"/>
	<rect x="500.9" y="2" fill="#53AC9F" width="1.3" height="1.2"/>
	<rect x="502.1" y="0.8" fill="#53AC9F" width="1.2" height="1.2"/>
	<rect x="503.4" y="2" fill="#53AC9F" width="1.2" height="1.2"/>
	<rect x="504.6" y="3.1" fill="#53AC9F" width="1.2" height="1.2"/>
	<rect x="505.8" y="4.3" fill="#53AC9F" width="1.3" height="1.2"/>
	<rect x="507.1" y="3.1" fill="#53AC9F" width="1.2" height="1.2"/>
	<rect x="508.3" y="2" fill="#53AC9F" width="1.2" height="1.2"/>
	<rect x="509.6" y="0.8" fill="#53AC9F" width="1.3" height="1.2"/>
	<rect x="510.8" y="2" fill="#53AC9F" width="1.2" height="1.2"/>
	<rect x="512" y="3.1" fill="#53AC9F" width="1.2" height="1.2"/>
	<rect x="513.3" y="4.3" fill="#53AC9F" width="1.3" height="1.2"/>
	<rect x="514.5" y="3.1" fill="#53AC9F" width="1.2" height="1.2"/>
	<rect x="515.8" y="2" fill="#53AC9F" width="1.2" height="1.2"/>
	<rect x="517" y="0.8" fill="#53AC9F" width="1.3" height="1.2"/>
	<rect x="518.3" y="2" fill="#53AC9F" width="1.2" height="1.2"/>
	<rect x="519.5" y="3.1" fill="#53AC9F" width="1.2" height="1.2"/>
	<rect x="520.7" y="4.3" fill="#53AC9F" width="1.3" height="1.2"/>
	<rect x="522" y="3.1" fill="#53AC9F" width="1.2" height="1.2"/>
	<rect x="523.2" y="2" fill="#53AC9F" width="1.2" height="1.2"/>
	<rect x="524.4" y="0.8" fill="#53AC9F" width="1.2" height="1.2"/>
	<rect x="525.7" y="2" fill="#53AC9F" width="1.3" height="1.2"/>
	<rect x="526.9" y="3.1" fill="#53AC9F" width="1.2" height="1.2"/>
	<rect x="528.2" y="4.3" fill="#53AC9F" width="1.2" height="1.2"/>
	<rect x="529.4" y="3.1" fill="#53AC9F" width="1.3" height="1.2"/>
	<rect x="530.7" y="2" fill="#53AC9F" width="1.2" height="1.2"/>
	<rect x="531.9" y="0.8" fill="#53AC9F" width="1.2" height="1.2"/>
	<rect x="533.1" y="2" fill="#53AC9F" width="1.3" height="1.2"/>
	<rect x="534.4" y="3.1" fill="#53AC9F" width="1.2" height="1.2"/>
	<rect x="535.6" y="4.3" fill="#53AC9F" width="1.2" height="1.2"/>
	<rect x="536.8" y="3.1" fill="#53AC9F" width="1.3" height="1.2"/>
	<rect x="538.1" y="2" fill="#53AC9F" width="1.2" height="1.2"/>
	<rect x="539.3" y="0.8" fill="#53AC9F" width="1.2" height="1.2"/>
	<rect x="540.6" y="2" fill="#53AC9F" width="1.3" height="1.2"/>
	<rect x="541.8" y="3.1" fill="#53AC9F" width="1.2" height="1.2"/>
	<rect x="543" y="4.3" fill="#53AC9F" width="1.2" height="1.2"/>
	<rect x="544.3" y="3.1" fill="#53AC9F" width="1.2" height="1.2"/>
	<rect x="545.5" y="2" fill="#53AC9F" width="1.3" height="1.2"/>
	<rect x="546.8" y="0.8" fill="#53AC9F" width="1.2" height="1.2"/>
	<rect x="548" y="2" fill="#53AC9F" width="1.2" height="1.2"/>
	<rect x="549.2" y="3.1" fill="#53AC9F" width="1.3" height="1.2"/>
	<rect x="550.5" y="4.3" fill="#53AC9F" width="1.2" height="1.2"/>
	<rect x="551.7" y="3.1" fill="#53AC9F" width="1.2" height="1.2"/>
	<rect x="553" y="2" fill="#53AC9F" width="1.2" height="1.2"/>
	<rect x="554.2" y="0.8" fill="#53AC9F" width="1.2" height="1.2"/>
	<rect x="555.4" y="2" fill="#53AC9F" width="1.3" height="1.2"/>
	<rect x="556.7" y="3.1" fill="#53AC9F" width="1.2" height="1.2"/>
	<rect x="557.9" y="4.3" fill="#53AC9F" width="1.2" height="1.2"/>
	<rect x="559.2" y="3.1" fill="#53AC9F" width="1.3" height="1.2"/>
	<rect x="560.4" y="2" fill="#53AC9F" width="1.2" height="1.2"/>
	<rect x="561.7" y="0.8" fill="#53AC9F" width="1.2" height="1.2"/>
	<rect x="562.9" y="2" fill="#53AC9F" width="1.3" height="1.2"/>
	<rect x="564.1" y="3.1" fill="#53AC9F" width="1.2" height="1.2"/>
	<rect x="565.4" y="4.3" fill="#53AC9F" width="1.2" height="1.2"/>
	<rect x="566.6" y="3.1" fill="#53AC9F" width="1.3" height="1.2"/>
	<rect x="567.9" y="2" fill="#53AC9F" width="1.2" height="1.2"/>
	<rect x="569.1" y="0.8" fill="#53AC9F" width="1.2" height="1.2"/>
	<rect x="570.3" y="2" fill="#53AC9F" width="1.3" height="1.2"/>
	<rect x="571.6" y="3.1" fill="#53AC9F" width="1.2" height="1.2"/>
	<rect x="572.8" y="4.3" fill="#53AC9F" width="1.2" height="1.2"/>
	<rect x="574" y="3.1" fill="#53AC9F" width="1.2" height="1.2"/>
	<rect x="575.3" y="2" fill="#53AC9F" width="1.3" height="1.2"/>
	<rect x="576.5" y="0.8" fill="#53AC9F" width="1.2" height="1.2"/>
	<rect x="577.8" y="2" fill="#53AC9F" width="1.2" height="1.2"/>
	<rect x="579" y="3.1" fill="#53AC9F" width="1.3" height="1.2"/>
	<rect x="580.3" y="4.3" fill="#53AC9F" width="1.2" height="1.2"/>
	<rect x="581.5" y="3.1" fill="#53AC9F" width="1.2" height="1.2"/>
	<rect x="582.7" y="2" fill="#53AC9F" width="1.3" height="1.2"/>
	<rect x="584" y="0.8" fill="#53AC9F" width="1.2" height="1.2"/>
	<rect x="585.2" y="2" fill="#53AC9F" width="1.2" height="1.2"/>
	<rect x="586.4" y="3.1" fill="#53AC9F" width="1.3" height="1.2"/>
	<rect x="587.7" y="4.3" fill="#53AC9F" width="1.2" height="1.2"/>
</g>
</svg>
