<?xml version="1.0" encoding="utf-8"?>
<!-- Generator: Adobe Illustrator 29.0.1, SVG Export Plug-In . SVG Version: 9.03 Build 54978)  -->
<svg version="1.1" baseProfile="tiny" id="Layer_1" xmlns="http://www.w3.org/2000/svg" xmlns:xlink="http://www.w3.org/1999/xlink"
	 x="0px" y="0px" viewBox="0 0 379 155.5" overflow="visible" xml:space="preserve">
<rect id="_x3C_Path_x3E__opacity:70_00000139275361675325964380000011852315350965698971_" y="0" fill="#C5534E" width="2" height="155.5"/>
<path id="_x3C_Compound_Path_x3E__opacity:30_00000021821024751702887500000006655914144619592328_" fill="#53AC9F" d="M378,1v23.3
	l-2.9,1.2l-0.6,0.3v0.7v100v0.7l0.6,0.3l2.9,1.2v25.8H4.5V1H378 M379,0H3.5v155.5H379V128l-3.5-1.5v-100L379,25V0L379,0z"/>
<g id="_x3C_Group_x3E__colorstyle:Base_00000070102289251104484510000005601972004294936708_">
	<rect x="360.2" y="143.1" fill="#53AC9F" width="1.2" height="1.2"/>
	<rect x="361.3" y="141.9" fill="#53AC9F" width="1.2" height="1.3"/>
	<rect x="362.5" y="140.7" fill="#53AC9F" width="1.2" height="1.2"/>
	<rect x="363.7" y="139.4" fill="#53AC9F" width="1.2" height="1.2"/>
	<rect x="362.5" y="138.2" fill="#53AC9F" width="1.2" height="1.3"/>
	<rect x="361.3" y="136.9" fill="#53AC9F" width="1.2" height="1.2"/>
	<rect x="360.2" y="135.7" fill="#53AC9F" width="1.2" height="1.2"/>
	<rect x="360.2" y="128.3" fill="#53AC9F" width="1.2" height="1.2"/>
	<rect x="361.3" y="127" fill="#53AC9F" width="1.2" height="1.2"/>
	<rect x="362.5" y="125.8" fill="#53AC9F" width="1.2" height="1.3"/>
	<rect x="363.7" y="124.5" fill="#53AC9F" width="1.2" height="1.2"/>
	<rect x="362.5" y="123.3" fill="#53AC9F" width="1.2" height="1.2"/>
	<rect x="361.3" y="122.1" fill="#53AC9F" width="1.2" height="1.3"/>
	<rect x="360.2" y="120.8" fill="#53AC9F" width="1.2" height="1.2"/>
	<rect x="361.3" y="119.6" fill="#53AC9F" width="1.2" height="1.2"/>
	<rect x="362.5" y="118.3" fill="#53AC9F" width="1.2" height="1.3"/>
	<rect x="363.7" y="117.1" fill="#53AC9F" width="1.2" height="1.2"/>
	<rect x="362.5" y="115.9" fill="#53AC9F" width="1.2" height="1.2"/>
	<rect x="361.3" y="114.6" fill="#53AC9F" width="1.2" height="1.2"/>
	<rect x="360.2" y="113.4" fill="#53AC9F" width="1.2" height="1.3"/>
	<rect x="361.3" y="112.2" fill="#53AC9F" width="1.2" height="1.2"/>
	<rect x="362.5" y="110.9" fill="#53AC9F" width="1.2" height="1.2"/>
	<rect x="363.7" y="109.7" fill="#53AC9F" width="1.2" height="1.3"/>
	<rect x="362.5" y="108.4" fill="#53AC9F" width="1.2" height="1.2"/>
	<rect x="361.3" y="107.2" fill="#53AC9F" width="1.2" height="1.2"/>
	<rect x="360.2" y="105.9" fill="#53AC9F" width="1.2" height="1.3"/>
	<rect x="361.3" y="104.7" fill="#53AC9F" width="1.2" height="1.2"/>
	<rect x="362.5" y="103.5" fill="#53AC9F" width="1.2" height="1.2"/>
	<rect x="363.7" y="102.2" fill="#53AC9F" width="1.2" height="1.3"/>
	<rect x="362.5" y="101" fill="#53AC9F" width="1.2" height="1.2"/>
	<rect x="361.3" y="99.8" fill="#53AC9F" width="1.2" height="1.2"/>
	<rect x="360.2" y="98.5" fill="#53AC9F" width="1.2" height="1.3"/>
	<rect x="361.3" y="97.3" fill="#53AC9F" width="1.2" height="1.2"/>
	<rect x="362.5" y="96" fill="#53AC9F" width="1.2" height="1.2"/>
	<rect x="363.7" y="94.8" fill="#53AC9F" width="1.2" height="1.2"/>
	<rect x="362.5" y="93.5" fill="#53AC9F" width="1.2" height="1.3"/>
	<rect x="361.3" y="92.3" fill="#53AC9F" width="1.2" height="1.2"/>
	<rect x="360.2" y="91.1" fill="#53AC9F" width="1.2" height="1.2"/>
	<rect x="361.3" y="89.8" fill="#53AC9F" width="1.2" height="1.3"/>
	<rect x="362.5" y="88.6" fill="#53AC9F" width="1.2" height="1.2"/>
	<rect x="363.7" y="87.4" fill="#53AC9F" width="1.2" height="1.2"/>
	<rect x="362.5" y="86.1" fill="#53AC9F" width="1.2" height="1.3"/>
	<rect x="361.3" y="84.9" fill="#53AC9F" width="1.2" height="1.2"/>
	<rect x="360.2" y="83.6" fill="#53AC9F" width="1.2" height="1.2"/>
	<rect x="361.3" y="82.4" fill="#53AC9F" width="1.2" height="1.3"/>
	<rect x="362.5" y="81.2" fill="#53AC9F" width="1.2" height="1.2"/>
	<rect x="363.7" y="79.9" fill="#53AC9F" width="1.2" height="1.2"/>
	<rect x="362.5" y="78.7" fill="#53AC9F" width="1.2" height="1.3"/>
	<rect x="361.3" y="77.4" fill="#53AC9F" width="1.2" height="1.2"/>
	<rect x="360.2" y="76.2" fill="#53AC9F" width="1.2" height="1.2"/>
	<rect x="361.3" y="75" fill="#53AC9F" width="1.2" height="1.2"/>
	<rect x="362.5" y="73.7" fill="#53AC9F" width="1.2" height="1.3"/>
	<rect x="363.7" y="72.5" fill="#53AC9F" width="1.2" height="1.2"/>
	<rect x="362.5" y="71.2" fill="#53AC9F" width="1.2" height="1.2"/>
	<rect x="361.3" y="70" fill="#53AC9F" width="1.2" height="1.3"/>
	<rect x="360.2" y="68.8" fill="#53AC9F" width="1.2" height="1.2"/>
	<rect x="361.3" y="67.5" fill="#53AC9F" width="1.2" height="1.2"/>
	<rect x="362.5" y="66.3" fill="#53AC9F" width="1.2" height="1.3"/>
	<rect x="363.7" y="65" fill="#53AC9F" width="1.2" height="1.2"/>
	<rect x="362.5" y="63.8" fill="#53AC9F" width="1.2" height="1.2"/>
	<rect x="361.3" y="62.6" fill="#53AC9F" width="1.2" height="1.3"/>
	<rect x="360.2" y="61.3" fill="#53AC9F" width="1.2" height="1.2"/>
	<rect x="361.3" y="60.1" fill="#53AC9F" width="1.2" height="1.2"/>
	<rect x="362.5" y="58.8" fill="#53AC9F" width="1.2" height="1.3"/>
	<rect x="363.7" y="57.6" fill="#53AC9F" width="1.2" height="1.2"/>
	<rect x="362.5" y="56.4" fill="#53AC9F" width="1.2" height="1.2"/>
	<rect x="361.3" y="55.1" fill="#53AC9F" width="1.2" height="1.2"/>
	<rect x="360.2" y="53.9" fill="#53AC9F" width="1.2" height="1.3"/>
	<rect x="361.3" y="52.6" fill="#53AC9F" width="1.2" height="1.2"/>
	<rect x="362.5" y="51.4" fill="#53AC9F" width="1.2" height="1.2"/>
	<rect x="363.7" y="50.2" fill="#53AC9F" width="1.2" height="1.3"/>
	<rect x="362.5" y="48.9" fill="#53AC9F" width="1.2" height="1.2"/>
	<rect x="361.3" y="47.7" fill="#53AC9F" width="1.2" height="1.2"/>
	<rect x="360.2" y="46.4" fill="#53AC9F" width="1.2" height="1.3"/>
	<rect x="361.3" y="45.2" fill="#53AC9F" width="1.2" height="1.2"/>
	<rect x="362.5" y="44" fill="#53AC9F" width="1.2" height="1.2"/>
	<rect x="363.7" y="42.7" fill="#53AC9F" width="1.2" height="1.3"/>
	<rect x="362.5" y="41.5" fill="#53AC9F" width="1.2" height="1.2"/>
	<rect x="361.3" y="40.2" fill="#53AC9F" width="1.2" height="1.2"/>
	<rect x="360.2" y="39" fill="#53AC9F" width="1.2" height="1.3"/>
	<rect x="361.3" y="37.8" fill="#53AC9F" width="1.2" height="1.2"/>
	<rect x="362.5" y="36.5" fill="#53AC9F" width="1.2" height="1.2"/>
	<rect x="363.7" y="35.3" fill="#53AC9F" width="1.2" height="1.2"/>
	<rect x="362.5" y="34" fill="#53AC9F" width="1.2" height="1.3"/>
	<rect x="361.3" y="32.8" fill="#53AC9F" width="1.2" height="1.2"/>
	<rect x="360.2" y="31.6" fill="#53AC9F" width="1.2" height="1.2"/>
	<rect x="361.3" y="30.3" fill="#53AC9F" width="1.2" height="1.3"/>
	<rect x="362.5" y="29.1" fill="#53AC9F" width="1.2" height="1.2"/>
	<rect x="363.7" y="27.9" fill="#53AC9F" width="1.2" height="1.2"/>
	<rect x="362.5" y="26.6" fill="#53AC9F" width="1.2" height="1.3"/>
	<rect x="361.3" y="25.4" fill="#53AC9F" width="1.2" height="1.2"/>
	<rect x="360.2" y="24.1" fill="#53AC9F" width="1.2" height="1.2"/>
	<rect x="360.2" y="16.7" fill="#53AC9F" width="1.2" height="1.2"/>
	<rect x="361.3" y="15.5" fill="#53AC9F" width="1.2" height="1.2"/>
	<rect x="362.5" y="14.2" fill="#53AC9F" width="1.2" height="1.3"/>
	<rect x="363.7" y="13" fill="#53AC9F" width="1.2" height="1.2"/>
	<rect x="362.5" y="11.7" fill="#53AC9F" width="1.2" height="1.2"/>
	<rect x="361.3" y="10.5" fill="#53AC9F" width="1.2" height="1.3"/>
	<rect x="360.2" y="9.2" fill="#53AC9F" width="1.2" height="1.2"/>
</g>
</svg>
