<?xml version="1.0" encoding="utf-8"?>
<!-- Generator: Adobe Illustrator 27.4.0, SVG Export Plug-In . SVG Version: 6.00 Build 0)  -->
<svg version="1.1" baseProfile="tiny" xmlns="http://www.w3.org/2000/svg" xmlns:xlink="http://www.w3.org/1999/xlink" x="0px"
	 y="0px" viewBox="0 0 37.9 15.6" overflow="visible" xml:space="preserve">
<g id="Layer_1">
	<polygon id="lvl1" fill="#92B7C6" points="9.9,11.6 0,15.6 9.9,15.6 	"/>
</g>
<g id="Layer_2">
	<path id="lvl2" fill="#92B7C6" d="M11.3,11l7.8-3.2v7.9h-7.8V11z M9.9,11.6L0,15.6h9.9V11.6z"/>
</g>
<g id="Layer_3">
	<path id="lvl3" fill="#92B7C6" d="M11.3,11l7.8-3.2v7.9h-7.8V11z M28.4,3.9l-7.8,3.2v8.5h7.8V3.9z M9.9,11.6L0,15.6h9.9V11.6z"/>
</g>
<g id="Layer_4">
	<path id="lvl4" fill="#92B7C6" d="M11.3,11l7.8-3.2v7.9h-7.8V11z M28.4,3.9l-7.8,3.2v8.5h7.8V3.9z M9.9,11.6L0,15.6h9.9V11.6z
		 M29.8,3.3v12.3h8V0L29.8,3.3z"/>
</g>
</svg>
