<?xml version="1.0" encoding="utf-8"?>
<!-- Generator: Adobe Illustrator 27.4.0, SVG Export Plug-In . SVG Version: 6.00 Build 0)  -->
<svg version="1.1" baseProfile="tiny" id="Layer_1" xmlns="http://www.w3.org/2000/svg" xmlns:xlink="http://www.w3.org/1999/xlink"
	 x="0px" y="0px" viewBox="0 0 764.2 578.4" overflow="visible" xml:space="preserve">
<g>
	<path fill="#6DB7C6" d="M723.3,544.2h-0.7v-18.1h0.7V544.2z M732,534.8h-18.1v0.7H732V534.8z M661.6,526.1h-0.7v18.1h0.7V526.1z
		 M670.3,534.8h-18.1v0.7h18.1V534.8z M600,526.1h-0.7v18.1h0.7V526.1z M608.7,534.8h-18.1v0.7h18.1V534.8z M538.3,526.1h-0.7v18.1
		h0.7V526.1z M547,534.8h-18.1v0.7H547V534.8z M476.6,526.1h-0.7v18.1h0.7V526.1z M485.3,534.8h-18.1v0.7h18.1V534.8z M414.9,526.1
		h-0.7v18.1h0.7V526.1z M423.6,534.8h-18.1v0.7h18.1V534.8z M353.3,526.1h-0.7v18.1h0.7V526.1z M362,534.8h-18.1v0.7H362V534.8z
		 M291.6,526.1h-0.7v18.1h0.7V526.1z M300.3,534.8h-18.1v0.7h18.1V534.8z M229.9,526.1h-0.7v18.1h0.7V526.1z M238.6,534.8h-18.1v0.7
		h18.1V534.8z M168.3,526.1h-0.7v18.1h0.7V526.1z M176.9,534.8h-18.1v0.7h18.1V534.8z M106.6,526.1h-0.7v18.1h0.7V526.1z
		 M115.3,534.8H97.2v0.7h18.1V534.8z M44.9,526.1h-0.7v18.1h0.7V526.1z M53.6,534.8H35.5v0.7h18.1V534.8z M723.3,464.4h-0.7v18.1
		h0.7V464.4z M732,473.1h-18.1v0.7H732V473.1z M661.6,464.4h-0.7v18.1h0.7V464.4z M670.3,473.1h-18.1v0.7h18.1V473.1z M600,464.4
		h-0.7v18.1h0.7V464.4z M608.7,473.1h-18.1v0.7h18.1V473.1z M538.3,464.4h-0.7v18.1h0.7V464.4z M547,473.1h-18.1v0.7H547V473.1z
		 M476.6,464.4h-0.7v18.1h0.7V464.4z M485.3,473.1h-18.1v0.7h18.1V473.1z M414.9,464.4h-0.7v18.1h0.7V464.4z M423.6,473.1h-18.1v0.7
		h18.1V473.1z M353.3,464.4h-0.7v18.1h0.7V464.4z M362,473.1h-18.1v0.7H362V473.1z M291.6,464.4h-0.7v18.1h0.7V464.4z M300.3,473.1
		h-18.1v0.7h18.1V473.1z M229.9,464.4h-0.7v18.1h0.7V464.4z M238.6,473.1h-18.1v0.7h18.1V473.1z M168.3,464.4h-0.7v18.1h0.7V464.4z
		 M176.9,473.1h-18.1v0.7h18.1V473.1z M106.6,464.4h-0.7v18.1h0.7V464.4z M115.3,473.1H97.2v0.7h18.1V473.1z M44.9,464.4h-0.7v18.1
		h0.7V464.4z M53.6,473.1H35.5v0.7h18.1V473.1z M723.3,402.7h-0.7v18.1h0.7V402.7z M732,411.4h-18.1v0.7H732V411.4z M661.6,402.7
		h-0.7v18.1h0.7V402.7z M670.3,411.4h-18.1v0.7h18.1V411.4z M600,402.7h-0.7v18.1h0.7V402.7z M608.7,411.4h-18.1v0.7h18.1V411.4z
		 M538.3,402.7h-0.7v18.1h0.7V402.7z M547,411.4h-18.1v0.7H547V411.4z M476.6,402.7h-0.7v18.1h0.7V402.7z M485.3,411.4h-18.1v0.7
		h18.1V411.4z M414.9,402.7h-0.7v18.1h0.7V402.7z M423.6,411.4h-18.1v0.7h18.1V411.4z M353.3,402.7h-0.7v18.1h0.7V402.7z M362,411.4
		h-18.1v0.7H362V411.4z M291.6,402.7h-0.7v18.1h0.7V402.7z M300.3,411.4h-18.1v0.7h18.1V411.4z M229.9,402.7h-0.7v18.1h0.7V402.7z
		 M238.6,411.4h-18.1v0.7h18.1V411.4z M168.3,402.7h-0.7v18.1h0.7V402.7z M176.9,411.4h-18.1v0.7h18.1V411.4z M106.6,402.7h-0.7
		v18.1h0.7V402.7z M115.3,411.4H97.2v0.7h18.1V411.4z M44.9,402.7h-0.7v18.1h0.7V402.7z M53.6,411.4H35.5v0.7h18.1V411.4z
		 M723.3,341.1h-0.7v18.1h0.7V341.1z M732,349.8h-18.1v0.7H732V349.8z M661.6,341.1h-0.7v18.1h0.7V341.1z M670.3,349.8h-18.1v0.7
		h18.1V349.8z M600,341.1h-0.7v18.1h0.7V341.1z M608.7,349.8h-18.1v0.7h18.1V349.8z M538.3,341.1h-0.7v18.1h0.7V341.1z M547,349.8
		h-18.1v0.7H547V349.8z M476.6,341.1h-0.7v18.1h0.7V341.1z M485.3,349.8h-18.1v0.7h18.1V349.8z M414.9,341.1h-0.7v18.1h0.7V341.1z
		 M423.6,349.8h-18.1v0.7h18.1V349.8z M353.3,341.1h-0.7v18.1h0.7V341.1z M362,349.8h-18.1v0.7H362V349.8z M291.6,341.1h-0.7v18.1
		h0.7V341.1z M300.3,349.8h-18.1v0.7h18.1V349.8z M229.9,341.1h-0.7v18.1h0.7V341.1z M238.6,349.8h-18.1v0.7h18.1V349.8z
		 M168.3,341.1h-0.7v18.1h0.7V341.1z M176.9,349.8h-18.1v0.7h18.1V349.8z M106.6,341.1h-0.7v18.1h0.7V341.1z M115.3,349.8H97.2v0.7
		h18.1V349.8z M44.9,341.1h-0.7v18.1h0.7V341.1z M53.6,349.8H35.5v0.7h18.1V349.8z M723.3,279.4h-0.7v18.1h0.7V279.4z M732,288.1
		h-18.1v0.7H732V288.1z M661.6,279.4h-0.7v18.1h0.7V279.4z M670.3,288.1h-18.1v0.7h18.1V288.1z M600,279.4h-0.7v18.1h0.7V279.4z
		 M608.7,288.1h-18.1v0.7h18.1V288.1z M538.3,279.4h-0.7v18.1h0.7V279.4z M547,288.1h-18.1v0.7H547V288.1z M476.6,279.4h-0.7v18.1
		h0.7V279.4z M485.3,288.1h-18.1v0.7h18.1V288.1z M414.9,279.4h-0.7v18.1h0.7V279.4z M423.6,288.1h-18.1v0.7h18.1V288.1z
		 M353.3,279.4h-0.7v18.1h0.7V279.4z M362,288.1h-18.1v0.7H362V288.1z M291.6,279.4h-0.7v18.1h0.7V279.4z M300.3,288.1h-18.1v0.7
		h18.1V288.1z M229.9,279.4h-0.7v18.1h0.7V279.4z M238.6,288.1h-18.1v0.7h18.1V288.1z M168.3,279.4h-0.7v18.1h0.7V279.4z
		 M176.9,288.1h-18.1v0.7h18.1V288.1z M106.6,279.4h-0.7v18.1h0.7V279.4z M115.3,288.1H97.2v0.7h18.1V288.1z M44.9,279.4h-0.7v18.1
		h0.7V279.4z M53.6,288.1H35.5v0.7h18.1V288.1z M723.3,217.7h-0.7v18.1h0.7V217.7z M732,226.4h-18.1v0.7H732V226.4z M661.6,217.7
		h-0.7v18.1h0.7V217.7z M670.3,226.4h-18.1v0.7h18.1V226.4z M600,217.7h-0.7v18.1h0.7V217.7z M608.7,226.4h-18.1v0.7h18.1V226.4z
		 M538.3,217.7h-0.7v18.1h0.7V217.7z M547,226.4h-18.1v0.7H547V226.4z M476.6,217.7h-0.7v18.1h0.7V217.7z M485.3,226.4h-18.1v0.7
		h18.1V226.4z M414.9,217.7h-0.7v18.1h0.7V217.7z M423.6,226.4h-18.1v0.7h18.1V226.4z M353.3,217.7h-0.7v18.1h0.7V217.7z M362,226.4
		h-18.1v0.7H362V226.4z M291.6,217.7h-0.7v18.1h0.7V217.7z M300.3,226.4h-18.1v0.7h18.1V226.4z M229.9,217.7h-0.7v18.1h0.7V217.7z
		 M238.6,226.4h-18.1v0.7h18.1V226.4z M168.3,217.7h-0.7v18.1h0.7V217.7z M176.9,226.4h-18.1v0.7h18.1V226.4z M106.6,217.7h-0.7
		v18.1h0.7V217.7z M115.3,226.4H97.2v0.7h18.1V226.4z M44.9,217.7h-0.7v18.1h0.7V217.7z M53.6,226.4H35.5v0.7h18.1V226.4z
		 M723.3,156.1h-0.7v18.1h0.7V156.1z M732,164.7h-18.1v0.7H732V164.7z M661.6,156.1h-0.7v18.1h0.7V156.1z M670.3,164.7h-18.1v0.7
		h18.1V164.7z M600,156.1h-0.7v18.1h0.7V156.1z M608.7,164.7h-18.1v0.7h18.1V164.7z M538.3,156.1h-0.7v18.1h0.7V156.1z M547,164.7
		h-18.1v0.7H547V164.7z M476.6,156.1h-0.7v18.1h0.7V156.1z M485.3,164.7h-18.1v0.7h18.1V164.7z M414.9,156.1h-0.7v18.1h0.7V156.1z
		 M423.6,164.7h-18.1v0.7h18.1V164.7z M353.3,156.1h-0.7v18.1h0.7V156.1z M362,164.7h-18.1v0.7H362V164.7z M291.6,156.1h-0.7v18.1
		h0.7V156.1z M300.3,164.7h-18.1v0.7h18.1V164.7z M229.9,156.1h-0.7v18.1h0.7V156.1z M238.6,164.7h-18.1v0.7h18.1V164.7z
		 M168.3,156.1h-0.7v18.1h0.7V156.1z M176.9,164.7h-18.1v0.7h18.1V164.7z M106.6,156.1h-0.7v18.1h0.7V156.1z M115.3,164.7H97.2v0.7
		h18.1V164.7z M44.9,156.1h-0.7v18.1h0.7V156.1z M53.6,164.7H35.5v0.7h18.1V164.7z M723.3,94.4h-0.7v18.1h0.7V94.4z M732,103.1
		h-18.1v0.7H732V103.1z M661.6,94.4h-0.7v18.1h0.7V94.4z M670.3,103.1h-18.1v0.7h18.1V103.1z M600,94.4h-0.7v18.1h0.7V94.4z
		 M608.7,103.1h-18.1v0.7h18.1V103.1z M538.3,94.4h-0.7v18.1h0.7V94.4z M547,103.1h-18.1v0.7H547V103.1z M476.6,94.4h-0.7v18.1h0.7
		V94.4z M485.3,103.1h-18.1v0.7h18.1V103.1z M414.9,94.4h-0.7v18.1h0.7V94.4z M423.6,103.1h-18.1v0.7h18.1V103.1z M353.3,94.4h-0.7
		v18.1h0.7V94.4z M362,103.1h-18.1v0.7H362V103.1z M291.6,94.4h-0.7v18.1h0.7V94.4z M300.3,103.1h-18.1v0.7h18.1V103.1z M229.9,94.4
		h-0.7v18.1h0.7V94.4z M238.6,103.1h-18.1v0.7h18.1V103.1z M168.3,94.4h-0.7v18.1h0.7V94.4z M176.9,103.1h-18.1v0.7h18.1V103.1z
		 M106.6,94.4h-0.7v18.1h0.7V94.4z M115.3,103.1H97.2v0.7h18.1V103.1z M44.9,94.4h-0.7v18.1h0.7V94.4z M53.6,103.1H35.5v0.7h18.1
		V103.1z M723.3,32.7h-0.7v18.1h0.7V32.7z M732,41.4h-18.1v0.7H732V41.4z M661.6,32.7h-0.7v18.1h0.7V32.7z M670.3,41.4h-18.1v0.7
		h18.1V41.4z M600,32.7h-0.7v18.1h0.7V32.7z M608.7,41.4h-18.1v0.7h18.1V41.4z M538.3,32.7h-0.7v18.1h0.7V32.7z M547,41.4h-18.1v0.7
		H547V41.4z M476.6,32.7h-0.7v18.1h0.7V32.7z M485.3,41.4h-18.1v0.7h18.1V41.4z M414.9,32.7h-0.7v18.1h0.7V32.7z M423.6,41.4h-18.1
		v0.7h18.1V41.4z M353.3,32.7h-0.7v18.1h0.7V32.7z M362,41.4h-18.1v0.7H362V41.4z M291.6,32.7h-0.7v18.1h0.7V32.7z M300.3,41.4
		h-18.1v0.7h18.1V41.4z M229.9,32.7h-0.7v18.1h0.7V32.7z M238.6,41.4h-18.1v0.7h18.1V41.4z M168.3,32.7h-0.7v18.1h0.7V32.7z
		 M176.9,41.4h-18.1v0.7h18.1V41.4z M106.6,32.7h-0.7v18.1h0.7V32.7z M115.3,41.4H97.2v0.7h18.1V41.4z M44.9,32.7h-0.7v18.1h0.7
		V32.7z M53.6,41.4H35.5v0.7h18.1V41.4z"/>
	<image width="765" height="579" xlink:href="E48D8BD2.png"  transform="matrix(1 0 0 1 -0.2885 -0.39)">
	</image>
</g>
</svg>
