<?xml version="1.0" encoding="utf-8"?>
<!-- Generator: Adobe Illustrator 27.4.0, SVG Export Plug-In . SVG Version: 6.00 Build 0)  -->
<svg version="1.1" baseProfile="tiny" id="Layer_1" xmlns="http://www.w3.org/2000/svg" xmlns:xlink="http://www.w3.org/1999/xlink"
	 x="0px" y="0px" viewBox="0 0 81.6 81.6" overflow="visible" xml:space="preserve">
<image width="83" height="83" xlink:href="8142ECA7.png"  transform="matrix(1 0 0 1 -0.5593 -0.427)">
</image>
<path fill="#487B89" d="M26.5,70.9V36.8c0-0.5-0.2-1.2-1.2-3.6c-0.4-0.9-0.9-2.3-1-2.7v-5.3c0-1.2-0.9-2.2-2-2.4c0-0.9,0-4.6,0-7.3
	c0-3.1-3.3-8.7-3.3-8.7s-3.3,5.6-3.3,8.7c0,2.7,0,6.4,0,7.3c-1.1,0.2-2,1.2-2,2.4v5.3c-0.1,0.4-0.7,1.8-1,2.7
	c-1,2.4-1.2,3.1-1.2,3.6v34.1L10,71.6v0.8c0,1.4,1.1,2.5,2.5,2.5h12.9c1.4,0,2.5-1.1,2.5-2.5v-0.8L26.5,70.9z M23.9,72.2h-9.8V36.9
	c0.1-0.4,0.7-1.8,1-2.7c1-2.4,1.2-3.1,1.2-3.6v-5.1h5.3v5.1c0,0.5,0.2,1.2,1.2,3.6c0.4,0.9,0.9,2.3,1,2.7V72.2z M48.2,70.9V36.8
	c0-0.5-0.2-1.2-1.2-3.6c-0.4-0.9-0.9-2.3-1-2.7v-5.3c0-1.2-0.9-2.2-2-2.4c0-0.9,0-4.6,0-7.3c0-3.1-3.3-8.7-3.3-8.7s-3.3,5.6-3.3,8.7
	c0,2.7,0,6.4,0,7.3c-1.1,0.2-2,1.2-2,2.4v5.3c-0.1,0.4-0.7,1.8-1,2.7c-1,2.4-1.2,3.1-1.2,3.6v34.1l-1.3,0.7v0.8
	c0,1.4,1.1,2.5,2.5,2.5h12.9c1.4,0,2.5-1.1,2.5-2.5v-0.8L48.2,70.9z M45.5,72.2h-9.8V36.9c0.1-0.4,0.7-1.8,1-2.7
	c1-2.4,1.2-3.1,1.2-3.6v-5.1h5.3v5.1c0,0.5,0.2,1.2,1.2,3.6c0.4,0.9,0.9,2.3,1,2.7V72.2z M70.2,70.9V36.8c0-0.5-0.2-1.2-1.2-3.6
	c-0.4-0.9-0.9-2.3-1-2.7v-5.3c0-1.2-0.9-2.2-2-2.4c0-0.9,0-4.6,0-7.3c0-3.1-3.3-8.7-3.3-8.7s-3.3,5.6-3.3,8.7c0,2.7,0,6.4,0,7.3
	c-1.1,0.2-2,1.2-2,2.4v5.3c-0.1,0.4-0.7,1.8-1,2.7c-1,2.4-1.2,3.1-1.2,3.6v34.1l-1.3,0.7v0.8c0,1.4,1.1,2.5,2.5,2.5h12.9
	c1.4,0,2.5-1.1,2.5-2.5v-0.8L70.2,70.9z M67.6,72.2h-9.8V36.9c0.1-0.4,0.7-1.8,1-2.7c1-2.4,1.2-3.1,1.2-3.6v-5.1h5.3v5.1
	c0,0.5,0.2,1.2,1.2,3.6c0.4,0.9,0.9,2.3,1,2.7V72.2z"/>
</svg>
