<?xml version="1.0" encoding="utf-8"?>
<!-- Generator: Adobe Illustrator 27.4.0, SVG Export Plug-In . SVG Version: 6.00 Build 0)  -->
<svg version="1.1" baseProfile="tiny" id="Layer_1" xmlns="http://www.w3.org/2000/svg" xmlns:xlink="http://www.w3.org/1999/xlink"
	 x="0px" y="0px" viewBox="0 0 763.9 578.4" overflow="visible" xml:space="preserve">
<g>
	<g>
		<path fill="#BBCBD3" d="M761.9,556.5h2v9.3c0,6.9-5.6,12.6-12.6,12.6H741v-2h10.3c5.8,0,10.6-4.7,10.6-10.6V556.5z"/>
		
			<rect x="644.9" y="364.6" transform="matrix(0.593 -0.8052 0.8052 0.593 -132.2545 719.1116)" fill="#BBCBD3" width="0.5" height="251.5"/>
		<rect x="387" y="577.1" fill="#BBCBD3" width="348.1" height="0.8"/>
		<rect x="762.5" y="294.9" fill="#BBCBD3" width="0.8" height="254.6"/>
		<path fill="#BBCBD3" d="M2,556.5H0v9.3c0,6.9,5.6,12.6,12.6,12.6h10.3v-2H12.6c-5.8,0-10.6-4.7-10.6-10.6V556.5z"/>
		
			<rect x="-7.1" y="490.1" transform="matrix(0.8052 -0.593 0.593 0.8052 -267.6629 165.8958)" fill="#BBCBD3" width="251.5" height="0.5"/>
		<rect x="28.8" y="577.1" fill="#BBCBD3" width="348.1" height="0.8"/>
		<rect x="0.6" y="294.9" fill="#BBCBD3" width="0.8" height="254.6"/>
	</g>
	<g>
		<path fill="#BBCBD3" d="M761.9,21.9h2v-9.3c0-6.9-5.6-12.6-12.6-12.6H741v2h10.3c5.8,0,10.6,4.7,10.6,10.6V21.9z"/>
		
			<rect x="519.4" y="87.8" transform="matrix(0.8052 -0.593 0.593 0.8052 73.458 399.7303)" fill="#BBCBD3" width="251.5" height="0.5"/>
		<rect x="387" y="0.6" fill="#BBCBD3" width="348.1" height="0.8"/>
		<rect x="762.5" y="28.9" fill="#BBCBD3" width="0.8" height="254.6"/>
		<path fill="#BBCBD3" d="M2,21.9H0v-9.3C0,5.6,5.6,0,12.6,0h10.3v2H12.6C6.7,2,2,6.7,2,12.6V21.9z"/>
		
			<rect x="118.4" y="-37.7" transform="matrix(0.593 -0.8052 0.8052 0.593 -22.5897 131.4099)" fill="#BBCBD3" width="0.5" height="251.5"/>
		<rect x="28.8" y="0.6" fill="#BBCBD3" width="348.1" height="0.8"/>
		<rect x="0.6" y="28.9" fill="#BBCBD3" width="0.8" height="254.6"/>
	</g>
</g>
</svg>
