<?xml version="1.0" encoding="utf-8"?>
<!-- Generator: Adobe Illustrator 25.4.1, SVG Export Plug-In . SVG Version: 6.00 Build 0)  -->
<svg version="1.1" baseProfile="tiny" id="Layer_1" xmlns="http://www.w3.org/2000/svg" xmlns:xlink="http://www.w3.org/1999/xlink"
	 x="0px" y="0px" width="25px" height="25px" viewBox="0 0 25 25" overflow="visible" xml:space="preserve">
<path d="M12.5,19.2c-3.6,0-6.6-3-6.6-6.6h1.9c0,2.6,2.1,4.7,4.7,4.7s4.7-2.1,4.7-4.7s-2.1-4.7-4.7-4.7V6c3.6,0,6.6,3,6.6,6.6
	S16.1,19.2,12.5,19.2z"/>
<path d="M12.5,24.8c-6.7,0-12.1-5.4-12.1-12.1h1.9c0,5.7,4.6,10.3,10.3,10.3c5.7,0,10.3-4.6,10.3-10.3c0-5.7-4.6-10.3-10.3-10.3V0.5
	c6.7,0,12.1,5.4,12.1,12.1C24.6,19.3,19.2,24.8,12.5,24.8z"/>
<circle cx="12.5" cy="12.6" r="1.5"/>
<path d="M8.7,1l-2,2.1C6.7,3.2,6.6,3.3,6.5,3.3L5.7,2.5C4.4,1.1,3.4,0.6,0.4,0.6l0,5l1.4,0L3.2,7L1.3,9.1C1.1,9.4,1.3,9.9,1.7,9.9H9
	c0.3,0,0.5-0.2,0.5-0.5v-8C9.5,0.9,9,0.7,8.7,1z"/>
</svg>
