<?xml version="1.0" encoding="utf-8"?>
<!-- Generator: Adobe Illustrator 25.4.2, SVG Export Plug-In . SVG Version: 6.00 Build 0)  -->
<svg version="1.1" baseProfile="tiny" id="Layer_1" xmlns="http://www.w3.org/2000/svg" xmlns:xlink="http://www.w3.org/1999/xlink"
	 x="0px" y="0px" viewBox="0 0 40 40" overflow="visible" xml:space="preserve">
<path fill="#FFFFFF" d="M16.3,8.2c0,1.7-1.3,3-3,3s-3-1.3-3-3s1.4-3,3-3S16.3,6.5,16.3,8.2z"/>
<path fill="#FFFFFF" d="M19.7,21.4c-0.7,0.3-1.4-0.1-1.8-0.7l-1.4-3.2v16.1c0,0.7-0.6,1.3-1.3,1.3s-1.4-0.6-1.4-1.3v-9.9h-1v9.9
	c0,0.7-0.6,1.3-1.4,1.3c-0.7,0-1.3-0.6-1.3-1.3V17.4l-1.4,3.2c-0.3,0.7-1.1,1-1.8,0.7s-1-1.1-0.7-1.8l3.5-6.9
	c0.2-0.4,0.7-0.7,1.1-0.7h4.8c0.5,0,0.9,0.3,1.1,0.7l3.5,6.9C20.7,20.3,20.4,21.1,19.7,21.4z"/>
<polygon fill="#FFFFFF" points="33.7,27.7 28.2,33.6 22.7,27.8 26.9,27.8 26.9,22.1 29.5,22.1 29.5,27.7 "/>
<polygon fill="#FFFFFF" points="33.7,12.2 29.4,12.2 29.4,17.8 26.8,17.8 26.8,12.2 22.7,12.2 28.1,6.4 "/>
</svg>
