<?xml version="1.0" encoding="utf-8"?>
<!-- Generator: Adobe Illustrator 25.4.2, SVG Export Plug-In . SVG Version: 6.00 Build 0)  -->
<svg version="1.1" baseProfile="tiny" id="Layer_1" xmlns="http://www.w3.org/2000/svg" xmlns:xlink="http://www.w3.org/1999/xlink"
	 x="0px" y="0px" viewBox="0 0 40 40" overflow="visible" xml:space="preserve">
<path fill="#FFFFFF" d="M31.8,9.9c0,1.4-1.2,2.6-2.6,2.6c-1.4,0-2.6-1.1-2.6-2.6c0-1.4,1.2-2.6,2.6-2.6C30.7,7.3,31.8,8.5,31.8,9.9z
	"/>
<path fill="#FFFFFF" d="M34.7,21.2c-0.6,0.3-1.2,0-1.5-0.6l-1-2.1l1.7,6.4h-1.9v6.6c0,0.6-0.5,1.2-1.2,1.1c-0.6,0-1.1-0.6-1.1-1.2
	v-6.5h-0.8v6.6c0,0.6-0.5,1.2-1.2,1.1c-0.6,0-1.1-0.6-1.1-1.2v-6.5h-1.9l1.6-6.4l-1,2.1c-0.3,0.6-0.9,0.8-1.5,0.6
	c-0.6-0.2-0.8-0.9-0.6-1.5l3-5.9c0.2-0.4,0.6-0.6,1-0.6h4.1c0.4,0,0.8,0.2,1,0.6l3,5.9C35.5,20.2,35.3,20.9,34.7,21.2z"/>
<path fill="#FFFFFF" d="M13.3,9.9c0,1.4-1.2,2.6-2.6,2.6c-1.4,0-2.6-1.1-2.6-2.6c0-1.4,1.1-2.6,2.6-2.6C12.2,7.3,13.3,8.5,13.3,9.9z
	"/>
<path fill="#FFFFFF" d="M16.2,21.2c-0.6,0.2-1.2-0.1-1.5-0.6l-1.2-2.8v13.7c0,0.6-0.5,1.1-1.1,1.1c-0.6,0-1.1-0.5-1.1-1.1v-8.4h-0.8
	v8.4c0,0.6-0.5,1.1-1.1,1.1c-0.6,0-1.1-0.5-1.1-1.1V17.8l-1.2,2.8c-0.2,0.6-0.9,0.9-1.5,0.6c-0.6-0.2-0.9-0.9-0.6-1.5l3-5.9
	c0.2-0.4,0.6-0.6,1-0.6h4.1c0.4,0,0.8,0.2,1,0.6l3,5.9C17.1,20.2,16.8,20.9,16.2,21.2z"/>
<rect x="19.2" y="7.3" fill="#FFFFFF" width="1.5" height="25.3"/>
</svg>
