<?xml version="1.0" encoding="utf-8"?>
<!-- Generator: Adobe Illustrator 25.4.2, SVG Export Plug-In . SVG Version: 6.00 Build 0)  -->
<svg version="1.1" baseProfile="tiny" id="Layer_1" xmlns="http://www.w3.org/2000/svg" xmlns:xlink="http://www.w3.org/1999/xlink"
	 x="0px" y="0px" viewBox="0 0 40 40" overflow="visible" xml:space="preserve">
<path fill="#FFFFFF" d="M32.6,22v-3.9L30.3,17c-0.2-0.8-0.5-1.5-0.9-2.2l0.9-2.4l-2.7-2.7l-2.3,0.8c-0.7-0.4-1.5-0.8-2.4-1l-1-2.2
	H18l-1,2.2c-0.8,0.2-1.7,0.6-2.4,1l-2.3-0.8l-2.7,2.7l0.9,2.4c-0.4,0.7-0.7,1.4-0.9,2.2l-2.4,1.1V22l2.5,1.2
	c0.2,0.7,0.5,1.3,0.8,1.9l-1,2.7l2.7,2.7l2.8-1c0.5,0.3,1.1,0.5,1.7,0.7l1.2,2.7h3.9l1.2-2.7c0.6-0.2,1.2-0.4,1.7-0.7l2.8,1l2.7-2.7
	l-1-2.7c0.3-0.6,0.6-1.2,0.8-1.9L32.6,22z M20,25.9c-3.4,0-6.1-2.7-6.1-6.1s2.7-6.1,6.1-6.1s6.1,2.7,6.1,6.1S23.4,25.9,20,25.9z"/>
</svg>
