<?xml version="1.0" encoding="utf-8"?>
<!-- Generator: Adobe Illustrator 25.4.2, SVG Export Plug-In . SVG Version: 6.00 Build 0)  -->
<svg version="1.1" baseProfile="tiny" id="Layer_1" xmlns="http://www.w3.org/2000/svg" xmlns:xlink="http://www.w3.org/1999/xlink"
	 x="0px" y="0px" viewBox="0 0 40 40" overflow="visible" xml:space="preserve">
<path fill="#FFFFFF" d="M7.9,8.9v15h24.1v-15H7.9z M13.6,19.3v2.6h-1.7v-2.6c-0.8-0.3-1.3-1.1-1.3-2s0.5-1.6,1.3-2v-4.8h1.7v4.8
	c0.8,0.3,1.3,1.1,1.3,2S14.3,19,13.6,19.3z M24.4,20.9h-7.2v-1.6h7.2V20.9z M29.3,20.9h-3v-1.6h3V20.9z M29.3,17.3H17.2v-1.7h12.1
	V17.3z M29.3,13.7H17.2v-1.6h12.1V13.7z"/>
<polygon fill="#FFFFFF" points="32.1,26.1 32.1,28.9 25,28.9 25,31.4 15,31.4 15,28.9 7.9,28.9 7.9,26.1 "/>
</svg>
