<?xml version="1.0" encoding="utf-8"?>
<!-- Generator: Adobe Illustrator 25.4.2, SVG Export Plug-In . SVG Version: 6.00 Build 0)  -->
<svg version="1.1" baseProfile="tiny" id="Layer_1" xmlns="http://www.w3.org/2000/svg" xmlns:xlink="http://www.w3.org/1999/xlink"
	 x="0px" y="0px" viewBox="0 0 40 40" overflow="visible" xml:space="preserve">
<path fill="#FFFFFF" d="M20,5L9,9.6v12.5c0,7.5,10,12.4,10.4,12.6l0.6,0.3l0.6-0.3C21,34.5,31,29.6,31,22.1V9.6L20,5z M29.7,22.1
	c0,6.7-9.7,11.4-9.7,11.4s-9.7-4.6-9.7-11.4c0-6.7,0-11.6,0-11.6l9.7-4l9.7,4C29.7,10.5,29.7,15.4,29.7,22.1z"/>
<path fill="#FFFFFF" d="M20,8.9l-7.9,3.3c0,0,0,4,0,9.5c0,2.4,1.5,4.5,3.3,6.1v-7.4l2.5,0.8v8.5c0.2,0.2,0.5,0.3,0.7,0.5v-6.5
	l1.5,3.5l1.5-3.5v6.5c0.3-0.2,0.7-0.4,1.1-0.7v-8.2l2.5-0.8v7c1.6-1.5,2.9-3.5,2.9-5.8c0-5.5,0-9.5,0-9.5L20,8.9z M21.5,20.2
	L20,24.6l-1.5-4.4l-4.4-1.5l4.4-1.5l1.5-4.4l1.5,4.4l4.4,1.5L21.5,20.2z"/>
</svg>
