<?xml version="1.0" encoding="utf-8"?>
<!-- Generator: Adobe Illustrator 25.4.2, SVG Export Plug-In . SVG Version: 6.00 Build 0)  -->
<svg version="1.1" baseProfile="tiny" id="Layer_1" xmlns="http://www.w3.org/2000/svg" xmlns:xlink="http://www.w3.org/1999/xlink"
	 x="0px" y="0px" viewBox="0 0 40 40" overflow="visible" xml:space="preserve">
<path fill="#FFFFFF" d="M27.2,21.4v11.9c0,0.7-0.5,1.2-1.2,1.2H14c-0.7,0-1.2-0.6-1.2-1.2V21.4c0-0.7,0.5-1.2,1.2-1.2h4.5v5.4
	c0,0.3,0.3,0.6,0.6,0.6h1.7c0.3,0,0.6-0.3,0.6-0.6v-5.4H26C26.6,20.2,27.2,20.7,27.2,21.4z"/>
<path fill="#FFFFFF" d="M15.9,11.5v5.5h-2.2v-4.5h-2V15l-3.6-3.5L11.7,8v2.4h3C15.4,10.4,15.9,10.9,15.9,11.5z"/>
<path fill="#FFFFFF" d="M28.3,15v-2.4h-2v4.5h-2.2v-5.5c0-0.6,0.5-1.2,1.2-1.2h3V8l3.6,3.5L28.3,15z"/>
<polygon fill="#FFFFFF" points="23.5,9.1 21.1,9.1 21.1,17.1 18.9,17.1 18.9,9.1 16.5,9.1 20,5.5 "/>
</svg>
