<?xml version="1.0" encoding="utf-8"?>
<!-- Generator: Adobe Illustrator 25.4.2, SVG Export Plug-In . SVG Version: 6.00 Build 0)  -->
<svg version="1.1" baseProfile="tiny" id="Layer_1" xmlns="http://www.w3.org/2000/svg" xmlns:xlink="http://www.w3.org/1999/xlink"
	 x="0px" y="0px" viewBox="0 0 40 40" overflow="visible" xml:space="preserve">
<polygon fill="#FFFFFF" points="12.5,14.9 12.5,12.2 8.6,12.2 8.6,9.7 12.5,9.7 12.5,7.1 16.5,11 "/>
<path fill="#FFFFFF" d="M34.2,29l-4-3.9v2.5h-4.9c-0.5-1.3-1.8-2.2-3.3-2.2s-2.8,0.9-3.4,2.2h-5.5c-1.7,0-3.1-1.4-3.1-3.1
	c0-1.7,1.4-3.1,3.1-3.1h0.5c0.5,1.3,1.8,2.2,3.3,2.2s2.8-0.9,3.3-2.2h6.4c3.3,0,6-2.7,6-6c0-3.3-2.7-5.9-6-5.9h-1.5
	c-0.5-1.3-1.8-2.2-3.3-2.2c-2,0-3.6,1.6-3.6,3.6c0,2,1.6,3.6,3.6,3.6c1.5,0,2.8-0.9,3.3-2.2h1.5c1.7,0,3.1,1.4,3.1,3.1
	c0,1.7-1.4,3.1-3.1,3.1h-6.4c-0.6-1.3-1.8-2.2-3.3-2.2s-2.8,0.9-3.3,2.2h-0.5c-3.3,0-5.9,2.7-5.9,6c0,3.3,2.7,5.9,5.9,5.9h5.5
	c0.6,1.3,1.9,2.2,3.4,2.2s2.8-0.9,3.3-2.2h4.9v2.5L34.2,29z M21.9,12.6c-0.9,0-1.6-0.7-1.6-1.6c0-0.9,0.7-1.6,1.6-1.6
	c0.9,0,1.6,0.7,1.6,1.6C23.5,11.8,22.8,12.6,21.9,12.6z M17,18.4c0.9,0,1.6,0.7,1.6,1.6s-0.7,1.6-1.6,1.6c-0.9,0-1.6-0.7-1.6-1.6
	S16.1,18.4,17,18.4z M21.9,30.6c-0.9,0-1.6-0.7-1.6-1.6c0-0.9,0.7-1.6,1.6-1.6c0.9,0,1.6,0.7,1.6,1.6C23.5,29.9,22.8,30.6,21.9,30.6
	z"/>
</svg>
