<?xml version="1.0" encoding="utf-8"?>
<!-- Generator: Adobe Illustrator 25.4.2, SVG Export Plug-In . SVG Version: 6.00 Build 0)  -->
<svg version="1.1" baseProfile="tiny" id="Layer_1" xmlns="http://www.w3.org/2000/svg" xmlns:xlink="http://www.w3.org/1999/xlink"
	 x="0px" y="0px" viewBox="0 0 40 40" overflow="visible" xml:space="preserve">
<g>
	<path fill="#FFFFFF" d="M28.6,13.9v16.2c0,0.2-0.2,0.4-0.4,0.4h-5.9v-7.1h3.4L20,16.8l-5.6,6.6h3.4v7.1h-5.9
		c-0.2,0-0.4-0.2-0.4-0.4V13.9c0-0.2,0.2-0.4,0.4-0.4h16.2C28.4,13.4,28.6,13.6,28.6,13.9z"/>
	<g>
		<g>
			<path fill="#FFFFFF" d="M33.1,11.7v18.8h-2V11.7c0-0.7-0.5-1.2-1.2-1.2H10.2C9.5,10.5,9,11,9,11.7v18.8h-2V11.7
				c0-1.8,1.5-3.3,3.3-3.3h19.6C31.6,8.4,33.1,9.9,33.1,11.7z"/>
		</g>
	</g>
</g>
</svg>
