<?xml version="1.0" encoding="utf-8"?>
<!-- Generator: Adobe Illustrator 25.4.2, SVG Export Plug-In . SVG Version: 6.00 Build 0)  -->
<svg version="1.1" baseProfile="tiny" id="Layer_1" xmlns="http://www.w3.org/2000/svg" xmlns:xlink="http://www.w3.org/1999/xlink"
	 x="0px" y="0px" viewBox="0 0 40 40" overflow="visible" xml:space="preserve">
<path fill="#FFFFFF" d="M35.2,22.3l-6.1-10.6c-0.2-0.4-0.7-0.6-1.1-0.6H12c-0.5,0-0.9,0.2-1.1,0.6L4.8,22.3c-0.2,0.4-0.2,0.9,0,1.3
	l6.1,10.6c0.2,0.4,0.7,0.6,1.1,0.6h1.4c0.4,0.8,1.2,1.3,2.1,1.3c0.9,0,1.7-0.5,2.1-1.3h4.8c0.4,0.8,1.2,1.3,2.1,1.3
	c0.9,0,1.7-0.5,2.1-1.3H28c0.5,0,0.9-0.2,1.1-0.6l6.1-10.6C35.5,23.2,35.5,22.7,35.2,22.3z M16.6,33.8c0,0.5-0.3,0.8-0.7,1
	c-0.1,0.1-0.3,0.1-0.5,0.1c-0.2,0-0.3,0-0.5-0.1c-0.4-0.2-0.7-0.6-0.7-1v-1.7c0-0.6,0.5-1.1,1.1-1.1c0.3,0,0.6,0.1,0.8,0.3
	c0.2,0.2,0.3,0.5,0.3,0.8V33.8z M25.6,33.8c0,0.5-0.3,0.8-0.7,1c-0.1,0.1-0.3,0.1-0.5,0.1c-0.2,0-0.3,0-0.5-0.1
	c-0.4-0.2-0.7-0.6-0.7-1v-1.7c0-0.6,0.5-1.1,1.1-1.1c0.3,0,0.6,0.1,0.8,0.3c0.2,0.2,0.3,0.5,0.3,0.8V33.8z M32.6,23.2l-3.3,5.8H10.7
	l-3.3-5.8c-0.1-0.1-0.1-0.3,0-0.5l5.2-8.9c0.1-0.1,0.2-0.2,0.4-0.2h1.6c0.2,0,0.3,0.1,0.4,0.2l0.5,0.8c0.1,0.1,0.2,0.2,0.4,0.2h8.3
	c0.2,0,0.3-0.1,0.4-0.2l0.5-0.8c0.1-0.1,0.2-0.2,0.4-0.2H27c0.2,0,0.3,0.1,0.4,0.2l5.2,8.9C32.7,22.9,32.7,23,32.6,23.2z"/>
<path fill="#FFFFFF" d="M29.2,3.6l-1.3,3.3c-0.5,1.3-1.8,2.2-3.2,2.2h-9.2c-1.4,0-2.7-0.9-3.2-2.2l-1.3-3.3h2.7l1,2.4
	c0.2,0.5,0.7,0.9,1.3,0.9h8.5c0.6,0,1.1-0.3,1.3-0.9l1-2.4H29.2z"/>
</svg>
