<?xml version="1.0" encoding="utf-8"?>
<!-- Generator: Adobe Illustrator 25.4.2, SVG Export Plug-In . SVG Version: 6.00 Build 0)  -->
<svg version="1.1" baseProfile="tiny" id="Layer_1" xmlns="http://www.w3.org/2000/svg" xmlns:xlink="http://www.w3.org/1999/xlink"
	 x="0px" y="0px" viewBox="0 0 40 40" overflow="visible" xml:space="preserve">
<path fill="#FFFFFF" d="M29,3.7L27.8,7c-0.5,1.3-1.8,2.1-3.2,2.1h-9.1c-1.4,0-2.7-0.8-3.2-2.1L11,3.7h2.6l1,2.3
	c0.2,0.5,0.7,0.8,1.3,0.8h8.3c0.6,0,1.1-0.3,1.3-0.8l1-2.3C26.4,3.7,29,3.7,29,3.7z"/>
<path fill="#FFFFFF" d="M35,22.2l-6-10.5c-0.2-0.4-0.6-0.6-1.1-0.6H12.1c-0.4,0-0.8,0.2-1.1,0.6L5,22.2c-0.2,0.4-0.2,0.8,0,1.3
	l6,10.4c0.2,0.4,0.6,0.6,1.1,0.6h1.4c0.4,0.8,1.2,1.3,2.1,1.3c0.9,0,1.7-0.5,2.1-1.3h4.8c0.4,0.8,1.2,1.3,2.1,1.3s1.7-0.5,2.1-1.3
	h1.4c0.4,0,0.8-0.2,1.1-0.6l6-10.4C35.2,23,35.2,22.5,35,22.2z M16.7,33.3c0,0.6-0.5,1.1-1.1,1.1s-1.1-0.5-1.1-1.1v-1.7
	c0-0.6,0.5-1.1,1.1-1.1c0.3,0,0.6,0.1,0.8,0.3s0.3,0.5,0.3,0.8C16.7,31.6,16.7,33.3,16.7,33.3z M25.5,33.3c0,0.6-0.5,1.1-1.1,1.1
	s-1.1-0.5-1.1-1.1v-1.7c0-0.6,0.5-1.1,1.1-1.1c0.3,0,0.6,0.1,0.8,0.3s0.3,0.5,0.3,0.8C25.5,31.6,25.5,33.3,25.5,33.3z M32.4,23
	l-3.3,5.7H10.9L7.6,23c-0.1-0.1-0.1-0.3,0-0.4l5.1-8.8c0.1-0.1,0.2-0.2,0.4-0.2h1.6c0.2,0,0.3,0.1,0.4,0.2l0.4,0.8
	c0.1,0.1,0.2,0.2,0.4,0.2h8.2c0.2,0,0.3-0.1,0.4-0.2l0.5-0.8c0.1-0.1,0.2-0.2,0.4-0.2H27c0.2,0,0.3,0.1,0.4,0.2l5,8.8
	C32.5,22.6,32.5,22.8,32.4,23z"/>
</svg>
