<?xml version="1.0" encoding="utf-8"?>
<!-- Generator: Adobe Illustrator 25.4.2, SVG Export Plug-In . SVG Version: 6.00 Build 0)  -->
<svg version="1.1" baseProfile="tiny" id="Layer_1" xmlns="http://www.w3.org/2000/svg" xmlns:xlink="http://www.w3.org/1999/xlink"
	 x="0px" y="0px" viewBox="0 0 40 40" overflow="visible" xml:space="preserve">
<polygon fill="#FFFFFF" points="29.7,6.7 28.3,11.5 24.9,10.9 27.8,6.7 "/>
<path fill="#FFFFFF" d="M27.9,13l-6.6-1.4L19,8.8c-0.4-0.5-0.9-0.7-1.5-0.7h-4.8c-1.3,0-2.4,1.1-2.4,2.4V31c0,0.9,0.7,1.6,1.6,1.6
	h15.8c0.9,0,1.6-0.7,1.6-1.6V14.8C29.3,13.9,28.7,13.2,27.9,13z M11.9,10.9c0-0.4,0.2-0.7,0.4-0.9s0.5-0.4,0.9-0.4h3.9
	c0.7,0,1.3,0.6,1.3,1.3c0,0.4-0.2,0.7-0.4,0.9s-0.5,0.4-0.9,0.4h-3.9C12.5,12.2,11.9,11.6,11.9,10.9z M20.3,27.3
	c-0.5,0.5-1.2,0.8-1.9,0.8c-0.7,0-1.4-0.3-1.9-0.8c-0.8-0.8-1-2-0.5-3.1l2.5-5.4l0.8,1.7l-0.5,1c-0.7,1.5-0.4,3.2,0.8,4.4
	c0.4,0.4,0.8,0.7,1.3,0.8C20.6,26.9,20.5,27.1,20.3,27.3z M24.1,25.1c-0.5,0.5-1.2,0.8-1.9,0.8c-0.7,0-1.4-0.3-1.9-0.8
	c-0.8-0.8-1-2-0.6-3.1l2.5-5.4l2.5,5.4C25.2,23,25,24.3,24.1,25.1z"/>
</svg>
