<?xml version="1.0" encoding="utf-8"?>
<!-- Generator: Adobe Illustrator 25.4.2, SVG Export Plug-In . SVG Version: 6.00 Build 0)  -->
<svg version="1.1" baseProfile="tiny" id="Layer_1" xmlns="http://www.w3.org/2000/svg" xmlns:xlink="http://www.w3.org/1999/xlink"
	 x="0px" y="0px" viewBox="0 0 40 40" overflow="visible" xml:space="preserve">
<path fill="#FFFFFF" d="M20,6.2C12.4,6.2,6.2,12.4,6.2,20c0,7.6,6.2,13.8,13.8,13.8S33.8,27.6,33.8,20C33.8,12.4,27.6,6.2,20,6.2z
	 M9.5,20c0-5.8,4.7-10.5,10.5-10.5c2.2,0,4.2,0.7,6,1.8L11.3,26C10.2,24.3,9.5,22.2,9.5,20z M20,30.5c-2.2,0-4.2-0.7-6-1.8L28.7,14
	c1.2,1.7,1.8,3.8,1.8,6C30.5,25.8,25.8,30.5,20,30.5z"/>
</svg>
