<?xml version="1.0" encoding="utf-8"?>
<!-- Generator: Adobe Illustrator 25.4.2, SVG Export Plug-In . SVG Version: 6.00 Build 0)  -->
<svg version="1.1" baseProfile="tiny" id="Layer_1" xmlns="http://www.w3.org/2000/svg" xmlns:xlink="http://www.w3.org/1999/xlink"
	 x="0px" y="0px" viewBox="0 0 40 40" overflow="visible" xml:space="preserve">
<path fill="#FFFFFF" d="M33.5,18v4.1l-2.9,1.3l0,0c-0.1,0.3-0.2,0.6-0.3,0.9L29,22.9c1-3.2,0.3-6.9-2.3-9.5c-3.7-3.7-9.6-3.7-13.3,0
	c-3.7,3.7-3.7,9.6,0,13.3c2.6,2.6,6.4,3.4,9.7,2.3l1.3,1.3c-0.3,0.1-0.7,0.3-1,0.4L22,33.5H18l-1.2-2.8c-0.7-0.2-1.4-0.5-2-0.8
	l-2.8,1L9,28.1l1-2.6c-0.4-0.7-0.8-1.5-1-2.3l-2.5-1.1l0-4.1l2.4-1.1h0c0.2-0.9,0.6-1.8,1-2.6L9,11.9l2.9-2.9l2.4,0.9l0,0
	c0.8-0.5,1.7-0.8,2.6-1L18,6.6H22L23.2,9c0.8,0.2,1.6,0.6,2.3,1l2.6-1L31,12l-1,2.8c0.3,0.6,0.6,1.3,0.8,2L33.5,18z"/>
<path fill="#FFFFFF" d="M32.4,32.4c-0.8,0.8-2,0.8-2.8,0l-5.1-5.1l0.6-0.6l-2.4-2.4c-2,1.3-4.8,1.1-6.6-0.7
	c-1.6-1.6-1.9-3.9-1.1-5.8l4.1,4.1l2.7-2.7l-4.1-4.1c1.9-0.8,4.2-0.5,5.8,1.1c1.8,1.8,2,4.5,0.7,6.5l2.4,2.4l0.6-0.6l5.1,5.1
	C33.2,30.4,33.2,31.6,32.4,32.4z"/>
</svg>
