<?xml version="1.0" encoding="utf-8"?>
<!-- Generator: Adobe Illustrator 25.4.2, SVG Export Plug-In . SVG Version: 6.00 Build 0)  -->
<svg version="1.1" baseProfile="tiny" id="Layer_1" xmlns="http://www.w3.org/2000/svg" xmlns:xlink="http://www.w3.org/1999/xlink"
	 x="0px" y="0px" viewBox="0 0 40 40" overflow="visible" xml:space="preserve">
<rect x="7.4" y="31.8" fill="#FFFFFF" width="7.2" height="1.9"/>
<rect x="7.4" y="28.1" fill="#FFFFFF" width="7.2" height="1.9"/>
<rect x="16.4" y="28.1" fill="#FFFFFF" width="7.2" height="1.9"/>
<rect x="16.4" y="31.8" fill="#FFFFFF" width="7.2" height="1.9"/>
<rect x="25.4" y="31.8" fill="#FFFFFF" width="7.2" height="1.9"/>
<rect x="25.4" y="28.1" fill="#FFFFFF" width="7.2" height="1.9"/>
<polygon fill="#FFFFFF" points="30.8,21.8 30.8,24.3 23.6,24.3 23.6,26.2 16.4,26.2 16.4,24.3 9.2,24.3 9.2,21.8 "/>
<path fill="#FFFFFF" d="M9.2,6.5v13.4h7l0.9-4.5c0.2-0.8,0.9-1.4,1.7-1.4h2.4c0.8,0,1.5,0.6,1.7,1.4l0.9,4.5h7V6.5H9.2z M20,12.9
	c-1.2,0-2.2-1-2.2-2.2c0-1.2,1-2.2,2.2-2.2s2.2,1,2.2,2.2C22.2,12,21.2,12.9,20,12.9z"/>
</svg>
