<?xml version="1.0" encoding="utf-8"?>
<!-- Generator: Adobe Illustrator 25.4.2, SVG Export Plug-In . SVG Version: 6.00 Build 0)  -->
<svg version="1.1" baseProfile="tiny" id="Layer_1" xmlns="http://www.w3.org/2000/svg" xmlns:xlink="http://www.w3.org/1999/xlink"
	 x="0px" y="0px" viewBox="0 0 237.5 114.5" overflow="visible" xml:space="preserve">
<path fill="#FFFFFF" d="M233.3,30l3.4-2.2c0.5-0.3,0.8-0.8,0.8-1.4V1.9c0-1-0.8-1.9-1.9-1.9H14.4v1h212.1c0.8,0,1.5,0.7,1.5,1.5
	v109.4c0,0.9-0.7,1.5-1.5,1.5H14.4v1h221.2c1,0,1.9-0.9,1.9-1.9V88.1c0-0.6-0.3-1.1-0.8-1.4l-3.4-2.2c-0.6-0.4-0.9-1-0.9-1.6V31.6
	C232.4,30.9,232.8,30.3,233.3,30z M0,6.1v102.3c0,3.3,2.7,6.1,6.1,6.1h3.5v-1H6.1c-2.8,0-5.1-2.3-5.1-5.1V6.1C1,3.3,3.3,1,6.1,1h3.5
	V0H6.1C2.7,0,0,2.7,0,6.1z"/>
<circle fill="#FFFFFF" cx="12.4" cy="2.6" r="0.8"/>
</svg>
