<?xml version="1.0" encoding="utf-8"?>
<!-- Generator: Adobe Illustrator 25.4.2, SVG Export Plug-In . SVG Version: 6.00 Build 0)  -->
<svg version="1.1" baseProfile="tiny" id="ring_x5F_main"
	 xmlns="http://www.w3.org/2000/svg" xmlns:xlink="http://www.w3.org/1999/xlink" x="0px" y="0px" viewBox="0 0 598.9 598.8"
	 overflow="visible" xml:space="preserve">
<path fill="#FFFFFF" d="M402.4,580.7c-32.6,11.9-67.3,18.1-103,18.1c-80,0-155.2-31.2-211.7-87.7c-9-9.1-17.5-18.6-25.2-28.5
	l9.7-7.4c52.6,67.9,134.9,111.6,227.2,111.6c26.7,0,52.6-3.7,77.2-10.5l3-3.5c0.9-1.1,2.1-1.8,3.5-2.2l14.2-4L402.4,580.7z"/>
<path fill="#FFFFFF" d="M405.7,26.2c25.6,9.9,49.7,23.5,71.7,40.2l3.9-4.9C430.8,22.7,369.6,1.2,305.1,0v16.8
	c6.6,0.2,13.7,0.6,21.1,1.4c5.4,0.6,10.5,1.3,15.4,2.1c1,0.2,2-0.1,2.9-0.6c1.2-0.8,2.5-1.6,3.7-2.5c0.9-0.6,1.9-0.8,3-0.6
	c45.5,8.3,87.2,27.3,122.6,54.3l2.4-3c-21.8-16.6-45.7-30-71.1-39.9c-0.5-0.2-0.8-0.8-0.6-1.3C404.6,26.2,405.2,26,405.7,26.2z"/>
<path fill="#FFFFFF" d="M511.2,87.7c-6.8-6.8-13.8-13.2-21.1-19.2l-7.5,9.5C546.3,130.8,587,210.5,587,299.4
	c0,62-19.7,119.4-53.2,166.4l9.9,7.1c35.9-50.3,55.3-110.4,55.3-173.5C598.9,219.4,567.7,144.2,511.2,87.7z"/>
<path fill="#FFFFFF" d="M536.9,481.9c-7.9,10.2-16.4,20-25.7,29.2c-28.6,28.6-62,50.7-98.3,65.6l-4.6-11.3l8.7-3.4
	c1.3-0.5,2.8-0.6,4.1-0.2l5.2,1.5c1.5,0.5,3.2,0.3,4.7-0.4c34.7-17.4,66-41.5,92.4-71.6c3.4-3.9,6.8-7.9,10-12L536.9,481.9z"/>
<path fill="#FFFFFF" d="M87.7,87.7C31.2,144.2,0,219.4,0,299.4c0,63.4,19.6,123.8,55.8,174.2l9.7-7.4C31.8,419.2,12,361.6,12,299.4
	C12,142.8,137.9,15,293.8,12V0C216,1.4,142.9,32.4,87.7,87.7z"/>
</svg>
