<?xml version="1.0" encoding="utf-8"?>
<!-- Generator: Adobe Illustrator 25.4.2, SVG Export Plug-In . SVG Version: 6.00 Build 0)  -->
<svg version="1.1" baseProfile="tiny" id="Layer_1" xmlns="http://www.w3.org/2000/svg" xmlns:xlink="http://www.w3.org/1999/xlink"
	 x="0px" y="0px" viewBox="0 0 128 128" overflow="visible" xml:space="preserve">
<g>
	<g>
		<polygon fill="#FFFFFF" points="122.8,83.9 100.6,108.5 78.6,83.9 96.1,83.9 96.1,62.5 105.2,62.5 105.2,83.9 		"/>
	</g>
	<path fill="#FFFFFF" d="M125.4,45.1L125.4,45.1c-1.6,3.4-5.4,5-8.9,3.9l-18-5.9c-4.3-1.4-9-1.4-13.3,0.1l-21.2,7.3l9.1,9.7
		c3.7,3.9,3.7,10.1-0.1,14l0,0L34.8,50.4c-1.4-0.9-2.4-2.3-2.7-3.9l-0.8-4.2l-1.7,4.3c-0.9,2.2-0.4,4.7,1.3,6.4l6.1,6.1L23,66.2
		L0,37.6l26.2-6.7c6.4-1.6,13-2.5,19.6-2.5h41.7c3.3,0,6.5,0.8,9.5,2.3L125.4,45.1z"/>
	<path fill="#FFFFFF" d="M76.9,23.9h12.6c2.8,0,5.5,0.6,8.1,1.8l6,2.8l15.3,0.6c2.7,0.1,5.2-1,7-2.9l2.1-2.3l-26.5-4
		c-3.7-0.6-7.5-0.4-11.2,0.6L76.9,23.9z"/>
</g>
</svg>
