<?xml version="1.0" encoding="utf-8"?>
<!-- Generator: Adobe Illustrator 25.4.2, SVG Export Plug-In . SVG Version: 6.00 Build 0)  -->
<svg version="1.1" id="Layer_1" xmlns="http://www.w3.org/2000/svg" xmlns:xlink="http://www.w3.org/1999/xlink" x="0px" y="0px"
	 viewBox="0 0 256 665.7" style="enable-background:new 0 0 256 665.7;" xml:space="preserve">
<style type="text/css">
	.st0{fill:#FFFFFF;}
</style>
<g>
	<path class="st0" d="M20.5,1.9c0-1.1,0.9-1.9,1.9-1.9l229.2,0c2.4,0,4.4,2,4.4,4.4v58.8c0,1.1-0.6,2.1-1.6,2.5l-5.4,2.5
		c-1,0.5-1.6,1.4-1.6,2.5v524.1c0,1.1,0.6,2.1,1.6,2.5l5.4,2.5c1,0.5,1.6,1.4,1.6,2.5v58.8c0,2.4-2,4.4-4.4,4.4l-229.2,0
		c-1.1,0-1.9-0.9-1.9-1.9l0,0c0-1.1,0.9-1.9,1.9-1.9h215.8c2.1,0,3.9-1.7,3.9-3.9V7.7c0-2.1-1.7-3.9-3.9-3.9H22.4
		C21.3,3.9,20.5,3,20.5,1.9L20.5,1.9z"/>
	<path class="st0" d="M12.5,3.9H1.9C0.9,3.9,0,3,0,2v0C0,0.9,0.9,0,1.9,0h10.6c1.1,0,1.9,0.9,1.9,1.9v0C14.5,3,13.6,3.9,12.5,3.9z"
		/>
	<path class="st0" d="M12.5,665.7H1.9c-1.1,0-1.9-0.9-1.9-1.9v0c0-1.1,0.9-1.9,1.9-1.9h10.6c1.1,0,1.9,0.9,1.9,1.9v0
		C14.5,664.8,13.6,665.7,12.5,665.7z"/>
</g>
</svg>
