<?xml version="1.0" encoding="utf-8"?>
<!-- Generator: Adobe Illustrator 27.8.0, SVG Export Plug-In . SVG Version: 6.00 Build 0)  -->
<svg version="1.1" baseProfile="tiny" id="Layer_1" xmlns="http://www.w3.org/2000/svg" xmlns:xlink="http://www.w3.org/1999/xlink"
	 x="0px" y="0px" viewBox="0 0 10.4 227.2" overflow="visible" xml:space="preserve">
<path fill="#FFFFFF" d="M8.6,227.2H2.2c-1.2,0-2.2-1-2.2-2.2V2.2C-0.1,1,0.9,0,2.1,0h6.5c1,0,1.8,0.8,1.8,1.8V12
	c0,1.3-0.3,2.5-1,3.6l-2.1,3.6c-0.6,1.1-1,2.4-1,3.6v181.6c0,1.1,0.3,2.3,0.8,3.3l2.5,4.9c0.5,1,0.8,2.1,0.8,3.3v9.4
	C10.4,226.4,9.6,227.2,8.6,227.2z"/>
</svg>
