<?xml version="1.0" encoding="utf-8"?>
<!-- Generator: Adobe Illustrator 25.4.1, SVG Export Plug-In . SVG Version: 6.00 Build 0)  -->
<svg version="1.1" baseProfile="tiny" id="Layer_2" xmlns="http://www.w3.org/2000/svg" xmlns:xlink="http://www.w3.org/1999/xlink"
	 x="0px" y="0px" viewBox="0 0 1938.2 920.7" overflow="visible" xml:space="preserve">
<rect x="1461.3" y="807.3" fill="#FFFFFF" width="1.6" height="0.8"/>
<rect x="1470.3" y="807.3" fill="#FFFFFF" width="1.6" height="0.8"/>
<rect x="-0.9" y="719.7" fill="#FFFFFF" width="1.6" height="0.8"/>
<rect x="184.2" y="719.7" fill="#FFFFFF" width="1.6" height="0.8"/>
<rect x="8" y="719.7" fill="#FFFFFF" width="1.6" height="0.8"/>
<rect x="175.1" y="719.7" fill="#FFFFFF" width="1.6" height="0.8"/>
<rect x="217.1" y="719.7" fill="#FFFFFF" width="1.6" height="0.8"/>
<rect x="402.1" y="719.7" fill="#FFFFFF" width="1.6" height="0.8"/>
<rect x="226" y="719.7" fill="#FFFFFF" width="1.6" height="0.8"/>
<rect x="393" y="719.7" fill="#FFFFFF" width="1.6" height="0.8"/>
<rect x="1698" y="371.4" fill="#FFFFFF" width="1.6" height="0.8"/>
<rect x="1883.1" y="368.7" fill="#FFFFFF" width="1.6" height="0.8"/>
<rect x="1707" y="371.4" fill="#FFFFFF" width="1.6" height="0.8"/>
<rect x="1874" y="368.7" fill="#FFFFFF" width="1.6" height="0.8"/>
<rect x="235.8" y="283.8" fill="#FFFFFF" width="1.6" height="0.8"/>
<rect x="420.9" y="283.8" fill="#FFFFFF" width="1.6" height="0.8"/>
<rect x="244.7" y="283.8" fill="#FFFFFF" width="1.6" height="0.8"/>
<rect x="411.8" y="283.8" fill="#FFFFFF" width="1.6" height="0.8"/>
<rect x="453.8" y="283.8" fill="#FFFFFF" width="1.6" height="0.8"/>
<rect x="638.8" y="283.8" fill="#FFFFFF" width="1.6" height="0.8"/>
<rect x="462.7" y="283.8" fill="#FFFFFF" width="1.6" height="0.8"/>
<rect x="629.7" y="283.8" fill="#FFFFFF" width="1.6" height="0.8"/>
<text transform="matrix(1 0 0 1 1465.511 799.3097)" fill="#FFFFFF" font-family="'TitilliumWeb-Regular'" font-size="5.3594px">AA</text>
<text transform="matrix(1 0 0 1 1646.8381 799.3097)" fill="#FFFFFF" font-family="'TitilliumWeb-Regular'" font-size="5.3594px">PW</text>
<text transform="matrix(1 0 0 1 1671.8489 799.3097)" fill="#FFFFFF" font-family="'TitilliumWeb-Regular'" font-size="5.3594px">MF</text>
<text transform="matrix(1 0 0 1 32.7596 163.3248)" fill="#FFFFFF" font-family="'TitilliumWeb-Regular'" font-size="5.3594px">AA</text>
<text transform="matrix(1 0 0 1 214.0867 163.3248)" fill="#FFFFFF" font-family="'TitilliumWeb-Regular'" font-size="5.3594px">PW</text>
<text transform="matrix(1 0 0 1 239.097 163.3248)" fill="#FFFFFF" font-family="'TitilliumWeb-Regular'" font-size="5.3594px">MF</text>
<text transform="matrix(1 0 0 1 1032.2913 9.6881)" fill="#FFFFFF" font-family="'TitilliumWeb-Regular'" font-size="5.3594px">AA</text>
<text transform="matrix(1 0 0 1 1213.6184 9.6881)" fill="#FFFFFF" font-family="'TitilliumWeb-Regular'" font-size="5.3594px">PW</text>
<text transform="matrix(1 0 0 1 1238.6292 9.6881)" fill="#FFFFFF" font-family="'TitilliumWeb-Regular'" font-size="5.3594px">MF</text>
<rect x="1606" y="596.5" fill="#FFFFFF" width="1" height="0.5"/>
<path fill="#FFFFFF" d="M1607,906.8h-1v-1h1V906.8z M1607,890.5h-1v-1h1V890.5z M1607,874.2h-1v-1h1V874.2z M1607,857.9h-1v-1h1
	V857.9z M1607,841.6h-1v-1h1V841.6z M1607,825.3h-1v-1h1V825.3z M1607,809h-1v-1h1V809z M1607,792.7h-1v-1h1V792.7z M1607,776.4h-1
	v-1h1V776.4z M1607,760.1h-1v-1h1V760.1z M1607,743.8h-1v-1h1V743.8z M1607,727.5h-1v-1h1V727.5z M1607,711.2h-1v-1h1V711.2z
	 M1607,694.9h-1v-1h1V694.9z M1607,678.6h-1v-1h1V678.6z M1607,662.3h-1v-1h1V662.3z M1607,646h-1v-1h1V646z M1607,629.6h-1v-1h1
	V629.6z M1607,613.3h-1v-1h1V613.3z"/>
<rect x="1606" y="922.1" fill="#FFFFFF" width="1" height="0.5"/>
<rect x="6.2" y="-1.9" fill="#FFFFFF" width="1" height="0.5"/>
<path fill="#FFFFFF" d="M7.2,308.3h-1v-1h1V308.3z M7.2,292h-1v-1h1V292z M7.2,275.7h-1v-1h1V275.7z M7.2,259.4h-1v-1h1V259.4z
	 M7.2,243.1h-1v-1h1V243.1z M7.2,226.8h-1v-1h1V226.8z M7.2,210.5h-1v-1h1V210.5z M7.2,194.2h-1v-1h1V194.2z M7.2,177.9h-1v-1h1
	V177.9z M7.2,161.6h-1v-1h1V161.6z M7.2,145.3h-1v-1h1V145.3z M7.2,129h-1v-1h1V129z M7.2,112.7h-1v-1h1V112.7z M7.2,96.4h-1v-1h1
	V96.4z M7.2,80.1h-1v-1h1V80.1z M7.2,63.8h-1v-1h1V63.8z M7.2,47.5h-1v-1h1V47.5z M7.2,31.2h-1v-1h1V31.2z M7.2,14.9h-1v-1h1V14.9z"
	/>
<rect x="6.2" y="323.6" fill="#FFFFFF" width="1" height="0.5"/>
<rect x="38.4" y="727.9" fill="#FFFFFF" width="1" height="0.5"/>
<path fill="#FFFFFF" d="M39.4,904.4h-1v-1h1V904.4z M39.4,888.4h-1v-1h1V888.4z M39.4,872.4h-1v-1h1V872.4z M39.4,856.4h-1v-1h1
	V856.4z M39.4,840.4h-1v-1h1V840.4z M39.4,824.4h-1v-1h1V824.4z M39.4,808.4h-1v-1h1V808.4z M39.4,792.4h-1v-1h1V792.4z M39.4,776.4
	h-1v-1h1V776.4z M39.4,760.4h-1v-1h1V760.4z M39.4,744.4h-1v-1h1V744.4z"/>
<rect x="38.4" y="919.4" fill="#FFFFFF" width="1" height="0.5"/>
<rect x="1467.3" y="602.9" fill="#FFFFFF" width="1.6" height="0.8"/>
<rect x="1458.2" y="602.9" fill="#FFFFFF" width="1.6" height="0.8"/>
<rect x="547.1" y="412.7" fill="#FFFFFF" width="1.6" height="0.8"/>
<rect x="732.1" y="412.7" fill="#FFFFFF" width="1.6" height="0.8"/>
<rect x="556" y="412.7" fill="#FFFFFF" width="1.6" height="0.8"/>
<rect x="723" y="412.7" fill="#FFFFFF" width="1.6" height="0.8"/>
<rect x="765" y="412.7" fill="#FFFFFF" width="1.6" height="0.8"/>
<rect x="774" y="412.7" fill="#FFFFFF" width="1.6" height="0.8"/>
<rect x="950.1" y="412.7" fill="#FFFFFF" width="1.6" height="0.8"/>
<rect x="941" y="412.7" fill="#FFFFFF" width="1.6" height="0.8"/>
<text transform="matrix(1 0 0 1 332.4046 183.2076)" fill="#FFFFFF" font-family="'TitilliumWeb-Regular'" font-size="5.3594px">AA</text>
<text transform="matrix(1 0 0 1 1264.05 51.0089)" fill="#FFFFFF" font-family="'TitilliumWeb-Regular'" font-size="5.3594px">PW</text>
<text transform="matrix(1 0 0 1 1289.0608 51.0089)" fill="#FFFFFF" font-family="'TitilliumWeb-Regular'" font-size="5.3594px">MF</text>
<text transform="matrix(1 0 0 1 1386.4231 83.1652)" fill="#FFFFFF" font-family="'TitilliumWeb-Regular'" font-size="5.3594px">PW</text>
<text transform="matrix(1 0 0 1 1411.4338 83.1652)" fill="#FFFFFF" font-family="'TitilliumWeb-Regular'" font-size="5.3594px">MF</text>
<g>
	<rect x="160.3" y="643.7" fill="#FFFFFF" width="1" height="0.5"/>
	<path fill="#FFFFFF" d="M161.3,820.2h-1v-1h1V820.2z M161.3,804.2h-1v-1h1V804.2z M161.3,788.2h-1v-1h1V788.2z M161.3,772.2h-1v-1
		h1V772.2z M161.3,756.2h-1v-1h1V756.2z M161.3,740.2h-1v-1h1V740.2z M161.3,724.2h-1v-1h1V724.2z M161.3,708.2h-1v-1h1V708.2z
		 M161.3,692.2h-1v-1h1V692.2z M161.3,676.2h-1v-1h1V676.2z M161.3,660.2h-1v-1h1V660.2z"/>
	<rect x="160.3" y="835.2" fill="#FFFFFF" width="1" height="0.5"/>
</g>
</svg>
