<?xml version="1.0" encoding="utf-8"?>
<!-- Generator: Adobe Illustrator 26.0.1, SVG Export Plug-In . SVG Version: 6.00 Build 0)  -->
<svg version="1.1" baseProfile="tiny" id="Layer_1" xmlns="http://www.w3.org/2000/svg" xmlns:xlink="http://www.w3.org/1999/xlink"
	 x="0px" y="0px" viewBox="0 0 1920 1080" overflow="visible" xml:space="preserve">
<polyline fill="none" stroke="#AC7C45" stroke-width="16" stroke-miterlimit="10" points="597.4,544.6 427.9,375.1 462.7,296.7 
	732.7,296.7 766.9,375.1 597.4,544.6 "/>
<polyline fill="none" stroke="#AC7C45" stroke-width="16" stroke-miterlimit="10" points="462,296.7 388.5,296.7 349.8,372.8 
	527.1,548.9 597.4,548.9 667.8,548.9 844.7,372 806.4,296.7 732.7,296.7 "/>
<line fill="none" stroke="#E1E2DF" stroke-width="16" stroke-miterlimit="10" x1="899.3" y1="332.2" x2="983.9" y2="332.2"/>
<line fill="none" stroke="#E1E2DF" stroke-width="16" stroke-miterlimit="10" x1="1009.1" y1="365.2" x2="1063.2" y2="365.2"/>
<line fill="none" stroke="#E1E2DF" stroke-width="16" stroke-miterlimit="10" x1="941.6" y1="335.8" x2="941.6" y2="407.3"/>
<polyline fill="none" stroke="#E1E2DF" stroke-width="16" stroke-miterlimit="10" points="1003.2,407.3 1003.2,332.2 1003.2,332.2 
	1069.1,332.2 1069.1,407.3 "/>
<path fill="none" stroke="#E1E2DF" stroke-width="16" stroke-miterlimit="10" d="M1092.1,507.1v-65.7l0,0h55.7
	c5.6,0,10.1,4.5,10.1,10.1V497c0,5.6-4.5,10.1-10.1,10.1H1092.1z"/>
<rect x="1315.6" y="441.3" fill="none" stroke="#E1E2DF" stroke-width="16" stroke-miterlimit="10" width="65.8" height="65.7"/>
<polyline fill="none" stroke="#E1E2DF" stroke-width="16" stroke-miterlimit="10" points="1572.2,323.5 1572.2,365.2 1533.3,398.5 
	1497.2,398.5 "/>
<polyline fill="none" stroke="#E1E2DF" stroke-width="16" stroke-miterlimit="10" points="1506.4,323.5 1506.4,365.2 1572.2,365.2 
	"/>
<line fill="none" stroke="#E1E2DF" stroke-width="16" stroke-miterlimit="10" x1="906.2" y1="474.3" x2="964.1" y2="474.3"/>
<polyline fill="none" stroke="#E1E2DF" stroke-width="16" stroke-miterlimit="10" points="902.2,516.3 902.2,441.3 902.2,441.3 
	968.1,441.3 968.1,516.3 "/>
<line fill="none" stroke="#E1E2DF" stroke-width="16" stroke-miterlimit="10" x1="1321.4" y1="365.2" x2="1377.9" y2="365.2"/>
<polyline fill="none" stroke="#E1E2DF" stroke-width="16" stroke-miterlimit="10" points="1316.7,407.3 1316.7,332.2 1316.7,332.2 
	1382.6,332.2 1382.6,407.3 "/>
<line fill="none" stroke="#E1E2DF" stroke-width="16" stroke-miterlimit="10" x1="1098.4" y1="323.5" x2="1098.4" y2="407.3"/>
<line fill="none" stroke="#E1E2DF" stroke-width="16" stroke-miterlimit="10" x1="1178.5" y1="323.5" x2="1178.5" y2="407.3"/>
<polyline fill="none" stroke="#E1E2DF" stroke-width="16" stroke-miterlimit="10" points="1101.5,330.4 1138.4,361.6 1175.4,330.4 
	"/>
<line fill="none" stroke="#E1E2DF" stroke-width="16" stroke-miterlimit="10" x1="1207.9" y1="323.5" x2="1207.9" y2="407.3"/>
<line fill="none" stroke="#E1E2DF" stroke-width="16" stroke-miterlimit="10" x1="1288" y1="323.5" x2="1288" y2="407.3"/>
<line fill="none" stroke="#E1E2DF" stroke-width="16" stroke-miterlimit="10" x1="1410.4" y1="323.5" x2="1410.4" y2="407.3"/>
<line fill="none" stroke="#E1E2DF" stroke-width="16" stroke-miterlimit="10" x1="1476.9" y1="323.5" x2="1476.9" y2="407.3"/>
<polyline fill="none" stroke="#E1E2DF" stroke-width="16" stroke-miterlimit="10" points="1211,330.4 1247.9,361.6 1284.9,330.4 "/>
<line fill="none" stroke="#E1E2DF" stroke-width="16" stroke-miterlimit="10" x1="1412.5" y1="329.3" x2="1474.7" y2="401.2"/>
<line fill="none" stroke="#E1E2DF" stroke-width="16" stroke-miterlimit="10" x1="996.6" y1="432.4" x2="996.6" y2="516.2"/>
<line fill="none" stroke="#E1E2DF" stroke-width="16" stroke-miterlimit="10" x1="1063.2" y1="432.4" x2="1063.2" y2="516.2"/>
<line fill="none" stroke="#E1E2DF" stroke-width="16" stroke-miterlimit="10" x1="998.8" y1="438.3" x2="1061" y2="510.2"/>
<line fill="none" stroke="#E1E2DF" stroke-width="16" stroke-miterlimit="10" x1="1410.3" y1="432.4" x2="1410.3" y2="516.2"/>
<line fill="none" stroke="#E1E2DF" stroke-width="16" stroke-miterlimit="10" x1="1476.9" y1="432.4" x2="1476.9" y2="516.2"/>
<line fill="none" stroke="#E1E2DF" stroke-width="16" stroke-miterlimit="10" x1="1412.5" y1="438.3" x2="1474.7" y2="510.2"/>
<polyline fill="none" stroke="#E1E2DF" stroke-width="16" stroke-miterlimit="10" points="1293.7,441.3 1219.2,441.3 1219.2,474.3 
	1284.9,474.3 1284.9,507.1 1211,507.1 "/>
<polyline fill="none" stroke="#E1E2DF" stroke-width="16" stroke-miterlimit="10" points="1579.9,441.3 1505.4,441.3 1505.4,474.3 
	1571.1,474.3 1571.1,507.1 1497.2,507.1 "/>
<polyline fill="none" stroke="#AC7C45" stroke-width="16" stroke-miterlimit="10" points="445.1,389.7 536.6,389.7 536.6,481.2 "/>
<polyline fill="none" stroke="#AC7C45" stroke-width="16" stroke-miterlimit="10" points="658.2,481.2 658.2,389.7 749.7,389.7 "/>
</svg>
