<?xml version="1.0" encoding="utf-8"?>
<!-- Generator: Adobe Illustrator 28.6.0, SVG Export Plug-In . SVG Version: 9.03 Build 54939)  -->
<svg version="1.1" baseProfile="tiny" id="Layer_3" xmlns="http://www.w3.org/2000/svg" xmlns:xlink="http://www.w3.org/1999/xlink"
	 x="0px" y="0px" viewBox="0 0 1078 912" overflow="visible" xml:space="preserve">
<rect x="482.5" y="539.7" fill="#EB4D4A" width="57.7" height="5"/>
<rect x="572.7" y="539.7" fill="#EB4D4A" width="57.7" height="5"/>
<rect x="662.9" y="539.7" fill="#EB4D4A" width="57.7" height="5"/>
<rect x="753.2" y="539.7" fill="#EB4D4A" width="57.7" height="5"/>
<rect id="opacity:15" x="476.5" y="165.8" fill="#661C17" width="119.1" height="14.8"/>
<path fill="#F3504D" d="M484.2,174.8h0.9v2.7h-0.9V174.8z M485.1,172h0.9v2.7h-0.9V172z M486,169.4h0.9v2.7H486V169.4z"/>
<path fill="#F3504D" d="M488.7,174.8h0.9v2.7h-0.9V174.8z M489.6,172h0.9v2.7h-0.9V172z M490.5,169.4h0.9v2.7h-0.9V169.4z"/>
<polygon fill="#EB4D4A" points="280.1,153.3 271.2,142.8 289,142.8 "/>
<polygon fill="#EB4D4A" points="280.1,678.7 271.2,689.2 289,689.2 "/>
<polygon id="opacity:15_00000007412028645067779530000016538984019510611879_" fill="#FF9E39" points="20.2,752.4 393.9,752.6 
	19.8,893.1 "/>
<rect id="opacity:12_00000091733819212898053220000001414061273623442561_" x="1028" y="265" fill="#FF9E39" width="28.4" height="202.5"/>
<rect x="1039.6" y="512.7" fill="#FF9E39" width="11.6" height="11.6"/>
<rect x="1039.6" y="212" fill="#FF9E39" width="11.6" height="11.6"/>
<polygon fill="#EB4D4A" points="37.4,483.2 37.4,451.8 56,467.5 "/>
</svg>
