<?xml version="1.0" encoding="utf-8"?>
<!-- Generator: Adobe Illustrator 28.1.0, SVG Export Plug-In . SVG Version: 6.00 Build 0)  -->
<svg version="1.1" baseProfile="tiny" id="Layer_1" xmlns="http://www.w3.org/2000/svg" xmlns:xlink="http://www.w3.org/1999/xlink"
	 x="0px" y="0px" width="901.2px" height="54.6px" viewBox="0 0 901.2 54.6" overflow="visible" xml:space="preserve">
<path id="colorstyle:Selected" fill="#F49A3E" d="M782.9,0l7.8,0v7.8h-7.8V0z M775.1,15.6h7.8V7.8h-7.8V15.6z M767.3,23.4h7.8v-7.8
	h-7.8V23.4z M759.5,31.2h7.8v-7.8h-7.8V31.2z M767.3,39h7.8v-7.8h-7.8V39z M775.1,46.8h7.8V39h-7.8V46.8z M782.9,54.6h7.8v-7.8h-7.8
	V54.6z M838.3,7.8h7.8V0l-7.8,0V7.8z M830.5,15.6h7.8V7.8h-7.8V15.6z M822.7,23.4h7.8v-7.8h-7.8V23.4z M814.9,31.2h7.8v-7.8h-7.8
	V31.2z M822.7,39h7.8v-7.8h-7.8V39z M830.5,46.8h7.8V39h-7.8V46.8z M838.3,54.6h7.8v-7.8h-7.8V54.6z M893.4,7.8h7.8V0l-7.8,0V7.8z
	 M885.6,15.6h7.8V7.8h-7.8V15.6z M877.8,23.4h7.8v-7.8h-7.8V23.4z M870,31.2h7.8v-7.8H870V31.2z M877.8,39h7.8v-7.8h-7.8V39z
	 M885.6,46.8h7.8V39h-7.8V46.8z M893.4,54.6h7.8v-7.8h-7.8V54.6z M118.3,0l-7.8,0v7.8h7.8V0z M126.1,7.8h-7.8v7.8h7.8V7.8z
	 M133.9,15.6h-7.8v7.8h7.8V15.6z M141.7,23.4h-7.8v7.8h7.8V23.4z M133.9,31.2h-7.8V39h7.8V31.2z M126.1,39h-7.8v7.8h7.8V39z
	 M118.3,46.8h-7.8v7.8h7.8V46.8z M62.9,0l-7.8,0v7.8h7.8V0z M70.7,7.8h-7.8v7.8h7.8V7.8z M78.5,15.6h-7.8v7.8h7.8V15.6z M86.3,23.4
	h-7.8v7.8h7.8V23.4z M78.5,31.2h-7.8V39h7.8V31.2z M70.7,39h-7.8v7.8h7.8V39z M62.9,46.8h-7.8v7.8h7.8V46.8z M7.8,0L0,0l0,7.8h7.8V0
	z M15.6,7.8H7.8v7.8h7.8V7.8z M23.4,15.6h-7.8v7.8h7.8V15.6z M31.2,23.4h-7.8v7.8h7.8V23.4z M23.4,31.2h-7.8V39h7.8V31.2z M15.6,39
	H7.8v7.8h7.8V39z M7.8,46.8H0l0,7.8h7.8V46.8z"/>
</svg>
