<?xml version="1.0" encoding="utf-8"?>
<!-- Generator: Adobe Illustrator 27.8.0, SVG Export Plug-In . SVG Version: 6.00 Build 0)  -->
<svg version="1.1" baseProfile="tiny" id="Layer_1" xmlns="http://www.w3.org/2000/svg" xmlns:xlink="http://www.w3.org/1999/xlink"
	 x="0px" y="0px" viewBox="0 0 488.1 867" overflow="visible" xml:space="preserve">
<polygon id="opacity:11_00000010278206707030980660000008794484380153675684_" fill="#FF9E39" points="15.3,31.7 15.3,33.3 
	4.5,33.3 4.5,161.5 2.8,161.5 2.8,31.7 "/>
<rect x="2.8" y="402.8" fill="#FF9E39" width="1.6" height="1.2"/>
<rect x="2.8" y="599" fill="#FF9E39" width="1.6" height="2.7"/>
<polygon id="opacity:11_00000009587598448775853690000014075760438307472773_" fill="#FF9E39" points="480,31.7 480,161.5 
	478.3,161.5 478.3,33.3 467.5,33.3 467.5,31.7 "/>
<rect x="478.3" y="402.8" fill="#FF9E39" width="1.6" height="1.2"/>
<rect x="478.3" y="599" fill="#FF9E39" width="1.6" height="2.7"/>
<path id="opacity:20_00000183967616433475983180000003369192269945165211_" fill="#FF9E39" d="M165.7,40.3h1.1v3.4h-1.1V40.3z
	 M166.8,36.9h1.1v3.4h-1.1V36.9z M167.9,33.5h1.1v3.4h-1.1V33.5z"/>
<path id="opacity:20_00000123417792304546644160000014199199759129921932_" fill="#FF9E39" d="M171.3,40.3h1.1v3.4h-1.1V40.3z
	 M172.4,36.9h1.1v3.4h-1.1V36.9z M173.6,33.5h1.1v3.4h-1.1V33.5z"/>
<path id="opacity:20_00000165941986428608378890000016842503942599818141_" fill="#FF9E39" d="M177,33.5h1.1v7.9H177V33.5z
	 M178.1,41.4h1.1v1.1h-1.1V41.4z M179.2,42.6h1.1v1.1h-1.1V42.6z M180.3,41.4h1.1v1.1h-1.1V41.4z M181.5,33.5h1.1v7.9h-1.1V33.5z"/>
<path id="opacity:20_00000038396508531298061250000009547603002392964286_" fill="#FF9E39" d="M184.8,33.5h5.6v1.1H186V38h2.3v1.1
	H186v3.4h4.5v1.1h-5.6L184.8,33.5L184.8,33.5z"/>
<path id="opacity:20_00000096777405203370139710000018161618038978420630_" fill="#FF9E39" d="M192.7,33.5h1.1V38h3.4v-4.5h1.1v10.1
	h-1.1v-4.4h-3.4v4.5h-1.1V33.5z"/>
<path id="opacity:20_00000032618784377905290200000002165088028249498532_" fill="#FF9E39" d="M201.8,33.5h1.1v10.1h-1.1V33.5z"/>
<path id="opacity:20_00000163067578954882055730000001505992936748010666_" fill="#FF9E39" d="M206.3,34.7h1.1v7.9h-1.1V34.7z
	 M207.4,33.5h3.4v1.1h-3.4V33.5z M207.4,42.6h3.4v1.1h-3.4V42.6z M210.8,34.7h1.1v1.1h-1.1V34.7z M210.8,41.4h1.1v1.1h-1.1V41.4z"/>
<path id="opacity:20_00000069388778000434932580000014030990636236836263_" fill="#FF9E39" d="M214.2,33.5h1.1v9h4.5v1.1h-5.6V33.5z
	"/>
<path id="opacity:20_00000062882157027033259730000006993512313772067756_" fill="#FF9E39" d="M222,33.5h5.6v1.1h-4.5V38h2.3v1.1
	h-2.3v3.4h4.5v1.1H222V33.5z"/>
<path id="opacity:20_00000103223479439216538330000001230484342809311885_" fill="#FF9E39" d="M228.8,44.8h5.6v1.1h-5.6V44.8z"/>
<path id="opacity:20_00000183233833970165854630000013725858285226673811_" fill="#FF9E39" d="M235.6,33.5h4.5v1.1h-3.4v7.9h3.4v1.1
	h-4.5V33.5z M240.1,34.7h1.1v7.9h-1.1V34.7z"/>
<path id="opacity:20_00000180350058313780918920000004486661431711099801_" fill="#FF9E39" d="M243.5,34.7h1.1v4.5h3.4v-4.5h1.1v9
	H248v-3.4h-3.4v3.4h-1.1V34.7z M244.6,33.5h3.4v1.1h-3.4V33.5z"/>
<path id="opacity:20_00000044879552719685682480000015615897538271416484_" fill="#FF9E39" d="M251.4,33.5h5.6v1.1h-2.3v9h-1.1v-9
	h-2.3v-1.1H251.4z"/>
<path id="opacity:20_00000150061257563092329150000007892603687022841755_" fill="#FF9E39" d="M259.3,34.7h1.1v4.5h3.4v-4.5h1.1v9
	h-1.1v-3.4h-3.4v3.4h-1.1V34.7z M260.4,33.5h3.4v1.1h-3.4V33.5z"/>
<path id="opacity:20_00000061462258674490247740000014233742224695771045_" fill="#FF9E39" d="M268.3,35.8h1.1v1.1h-1.1V35.8z
	 M268.3,42.6h1.1v1.1h-1.1V42.6z"/>
<path id="opacity:20_00000102529329512189830440000018148830425389343926_" fill="#FF9E39" d="M277.3,34.7h1.1v3.4h-1.1V34.7z
	 M277.3,41.4h1.1v1.1h-1.1V41.4z M278.4,33.5h3.4v1.1h-3.4V33.5z M278.4,38h3.4v1.1h-3.4V38z M278.4,42.6h3.4v1.1h-3.4V42.6z
	 M281.8,34.7h1.1v1.1h-1.1V34.7z M281.8,39.2h1.1v3.4h-1.1V39.2z"/>
<path id="opacity:20_00000090259327602135015530000001144021345715233416_" fill="#FF9E39" d="M285.2,33.5h1.1v3.4h-1.1V33.5z
	 M286.3,36.9h1.1V38h-1.1V36.9z M287.4,38h1.1v5.6h-1.1V38z M288.6,36.9h1.1V38h-1.1V36.9z M289.7,33.5h1.1v3.4h-1.1V33.5z"/>
<path id="opacity:20_00000182516867518594247490000000868589775804935323_" fill="#FF9E39" d="M293.1,33.5h1.1v3.4h1.1V38h-1.1v5.6
	h-1.1V33.5z M295.3,38h1.1v1.1h-1.1V38z M297.6,33.5h1.1v10.1h-1.1v-3.4h-1.1v-1h1.1V33.5z"/>
<path id="opacity:20_00000136376394545604867640000008855581734759387808_" fill="#FF9E39" d="M301,34.7h1.1v7.9H301V34.7z
	 M302.1,33.5h3.4v1.1h-3.4V33.5z M302.1,42.6h3.4v1.1h-3.4V42.6z M305.5,34.7h1.1v1.1h-1.1V34.7z M305.5,41.4h1.1v1.1h-1.1V41.4z"/>
<path id="opacity:20_00000087385707378132265210000001714288298468385929_" fill="#FF9E39" d="M308.9,33.5h5.6v1.1H310V38h2.3v1.1
	H310v3.4h4.5v1.1h-5.6V33.5z"/>
<path id="opacity:20" fill="#FF9E39" d="M316.8,33.5h4.5v1.1h-3.4v7.9h3.4v1.1h-4.5V33.5z M321.3,34.7h1.1v7.9h-1.1V34.7z"/>
<rect id="opacity:3_00000007424881965346221640000003937103263248427185_" x="2.8" y="601.7" fill="#FF9E39" width="1.6" height="75"/>
<rect id="opacity:3_00000083802996593952205790000004709246074245368709_" x="478.3" y="601.7" fill="#FF9E39" width="1.6" height="75"/>
<rect id="opacity:5_00000062899878679847666740000000370636234518571666_" x="2.8" y="404" fill="#FF9E39" width="1.6" height="195"/>
<rect id="opacity:5_00000109750504145838953570000004493972359220141961_" x="478.3" y="404" fill="#FF9E39" width="1.6" height="195"/>
<rect id="opacity:8_00000181767685701987245410000005732352484973575300_" x="478.3" y="161.5" fill="#FF9E39" width="1.6" height="241.3"/>
<rect id="opacity:8_00000066477736988305715590000012363598987475453333_" x="2.8" y="161.5" fill="#FF9E39" width="1.6" height="241.3"/>
<rect x="8.2" y="685.2" fill="#EB4D4A" width="28.9" height="2.5"/>
<rect x="46.5" y="685.2" fill="#EB4D4A" width="28.9" height="2.5"/>
<rect x="84.8" y="685.2" fill="#EB4D4A" width="28.9" height="2.5"/>
<rect x="123.1" y="685.2" fill="#EB4D4A" width="28.9" height="2.5"/>
<rect x="161.4" y="685.2" fill="#EB4D4A" width="28.9" height="2.5"/>
<rect x="199.6" y="685.2" fill="#EB4D4A" width="28.9" height="2.5"/>
<rect x="237.9" y="685.2" fill="#EB4D4A" width="28.9" height="2.5"/>
<rect x="276.2" y="685.2" fill="#EB4D4A" width="28.9" height="2.5"/>
<rect x="314.5" y="685.2" fill="#EB4D4A" width="28.9" height="2.5"/>
<rect x="352.7" y="685.2" fill="#EB4D4A" width="28.9" height="2.5"/>
<rect x="391" y="685.2" fill="#EB4D4A" width="28.9" height="2.5"/>
<rect x="429.3" y="685.2" fill="#EB4D4A" width="28.9" height="2.5"/>
<rect id="opacity:9_00000156554492811212047030000018404808713003747975_" x="0" y="863.4" fill="#F0B25B" width="232.1" height="3.6"/>
<rect id="opacity:9_00000173119133629562754600000008200443657532382370_" x="256" y="863.4" fill="#F0B25B" width="232.1" height="3.6"/>
<rect id="opacity:4_00000130621474358783753040000003246525655727215026_" x="251.8" y="697" fill="#FF9E39" width="230.4" height="157"/>
<rect id="opacity:4" x="5.9" y="697" fill="#FF9E39" width="230.4" height="157"/>
<rect id="opacity:15" x="186.7" y="651.2" fill="#661C17" width="114.7" height="18.9"/>
<path fill="#F3504D" d="M196.5,662.7h1.2v3.5h-1.2V662.7z M197.7,659.2h1.2v3.5h-1.2V659.2z M198.8,655.8h1.2v3.5h-1.2V655.8z"/>
<path fill="#F3504D" d="M202.3,662.7h1.2v3.5h-1.2V662.7z M203.5,659.2h1.2v3.5h-1.2V659.2z M204.6,655.8h1.2v3.5h-1.2V655.8z"/>
<path fill="#F3504D" d="M208.1,656.9h1.2v3.5h-1.2V656.9z M208.1,663.9h1.2v1.2h-1.2V663.9z M209.3,655.8h3.5v1.2h-3.5V655.8z
	 M209.3,660.4h3.5v1.2h-3.5V660.4z M209.3,665h3.5v1.2h-3.5V665z M212.7,656.9h1.2v1.2h-1.2V656.9z M212.7,661.6h1.2v3.5h-1.2V661.6
	z"/>
<path fill="#F3504D" d="M216.2,655.8h1.2v3.5h-1.2V655.8z M217.4,659.2h1.2v1.2h-1.2V659.2z M218.5,660.4h1.2v5.8h-1.2V660.4z
	 M219.7,659.2h1.2v1.2h-1.2V659.2z M220.9,655.8h1.2v3.5h-1.2V655.8z"/>
<path fill="#F3504D" d="M224.3,656.9h1.2v3.5h-1.2V656.9z M224.3,663.9h1.2v1.2h-1.2V663.9z M225.5,655.8h3.5v1.2h-3.5V655.8z
	 M225.5,660.4h3.5v1.2h-3.5V660.4z M225.5,665h3.5v1.2h-3.5V665z M229,656.9h1.2v1.2H229V656.9z M229,661.6h1.2v3.5H229V661.6z"/>
<path fill="#F3504D" d="M232.5,655.8h5.8v1.2h-2.3v9.3h-1.2v-9.3h-2.3V655.8z"/>
<path fill="#F3504D" d="M240.6,655.8h5.8v1.2h-4.6v3.5h2.3v1.2h-2.3v3.5h4.6v1.2h-5.8V655.8z"/>
<path fill="#F3504D" d="M248.7,655.8h1.2v2.3h1.2v1.2h-1.2v7h-1.2V655.8z M251,659.2h1.2v1.2H251V659.2z M252.2,660.4h1.2v1.2h-1.2
	V660.4z M253.3,659.2h1.2v1.2h-1.2V659.2z M255.6,655.8h1.2v10.4h-1.2v-7h-1.2v-1.2h1.2V655.8z"/>
<path fill="#F3504D" d="M264.9,655.8h1.2v10.4h-1.2V655.8z"/>
<path fill="#F3504D" d="M269.6,655.8h1.2v3.5h1.2v1.2h-1.2v5.8h-1.2V655.8z M271.9,660.4h1.2v1.2h-1.2V660.4z M274.2,655.8h1.2v10.4
	h-1.2v-3.5H273v-1.2h1.2V655.8z"/>
<path fill="#F3504D" d="M277.7,655.8h5.8v1.2h-4.6v3.5h2.3v1.2h-2.3v4.6h-1.2V655.8z"/>
<path fill="#F3504D" d="M285.8,656.9h1.2v8.1h-1.2V656.9z M287,655.8h3.5v1.2H287V655.8z M287,665h3.5v1.2H287V665z M290.4,656.9
	h1.2v8.1h-1.2V656.9z"/>
</svg>
