<?xml version="1.0" encoding="utf-8"?>
<!-- Generator: Adobe Illustrator 27.8.0, SVG Export Plug-In . SVG Version: 6.00 Build 0)  -->
<svg version="1.1" baseProfile="tiny" id="Layer_1" xmlns="http://www.w3.org/2000/svg" xmlns:xlink="http://www.w3.org/1999/xlink"
	 x="0px" y="0px" viewBox="0 0 488.1 867" overflow="visible" xml:space="preserve">
<rect id="opacity:80" x="183.7" y="187" fill="#661C17" width="120.6" height="19.9"/>
<rect id="opacity:9" y="281.2" fill="#FF9E39" width="488.2" height="103.7"/>
<rect id="opacity:10" y="160" fill="#FF9E39" width="488.1" height="121.2"/>
<rect id="opacity:11" fill="#FF9E39" width="488.1" height="160"/>
<rect id="opacity:8" x="-0.1" y="384.9" fill="#FF9E39" width="488.2" height="89.7"/>
<rect id="opacity:7" y="474.6" fill="#FF9E39" width="488.1" height="79.2"/>
<rect id="opacity:6" y="553.8" fill="#FF9E39" width="488.2" height="67.7"/>
<rect id="opacity:5" x="-0.1" y="621.5" fill="#FF9E39" width="488.2" height="55.8"/>
<rect id="opacity:4" x="0.1" y="677.3" fill="#FF9E39" width="488" height="46.1"/>
<rect id="opacity:3" x="-0.2" y="723.3" fill="#FF9E39" width="488.3" height="34.6"/>
<rect id="opacity:2" y="757.9" fill="#FF9E39" width="488.1" height="29.3"/>
<rect id="opacity:1" x="-0.1" y="787.3" fill="#FF9E39" width="488.2" height="79.7"/>
<path fill="#C1342B" d="M6,173.5h12v2.6H6V173.5z"/>
<path fill="#C1342B" d="M23.2,173.5h12v2.6h-12V173.5z"/>
<path fill="#C1342B" d="M40.3,173.5h12v2.6h-12V173.5z"/>
<path fill="#C1342B" d="M57.5,173.5h12v2.6h-12V173.5z"/>
<path fill="#C1342B" d="M74.7,173.5h12v2.6h-12V173.5z"/>
<path fill="#C1342B" d="M91.9,173.5h12v2.6h-12V173.5z"/>
<path fill="#C1342B" d="M109.1,173.5h12v2.6h-12V173.5z"/>
<path fill="#C1342B" d="M126.3,173.5h12v2.6h-12V173.5z"/>
<path fill="#C1342B" d="M143.5,173.5h12v2.6h-12V173.5z"/>
<path fill="#C1342B" d="M160.7,173.5h12v2.6h-12V173.5z"/>
<path fill="#C1342B" d="M177.9,173.5h12v2.6h-12V173.5z"/>
<path fill="#C1342B" d="M195,173.5h12v2.6h-12V173.5z"/>
<path fill="#C1342B" d="M212.2,173.5h12v2.6h-12V173.5z"/>
<path fill="#C1342B" d="M229.4,173.5h12v2.6h-12V173.5z"/>
<path fill="#C1342B" d="M246.6,173.5h12v2.6h-12V173.5z"/>
<path fill="#C1342B" d="M263.8,173.5h12v2.6h-12V173.5z"/>
<path fill="#C1342B" d="M281,173.5h12v2.6h-12V173.5z"/>
<path fill="#C1342B" d="M298.2,173.5h12v2.6h-12V173.5z"/>
<path fill="#C1342B" d="M315.4,173.5h12v2.6h-12V173.5z"/>
<path fill="#C1342B" d="M332.6,173.5h12v2.6h-12V173.5z"/>
<path fill="#C1342B" d="M349.7,173.5h12v2.6h-12V173.5z"/>
<path fill="#C1342B" d="M366.9,173.5h12v2.6h-12V173.5z"/>
<path fill="#C1342B" d="M384.1,173.5h12v2.6h-12V173.5z"/>
<path fill="#C1342B" d="M401.3,173.5h12v2.6h-12V173.5z"/>
<path fill="#C1342B" d="M418.5,173.5h12v2.6h-12V173.5z"/>
<path fill="#C1342B" d="M435.7,173.5h12v2.6h-12V173.5z"/>
<path fill="#C1342B" d="M452.9,173.5h12v2.6h-12V173.5z"/>
<path fill="#C1342B" d="M470.1,173.5h12v2.6h-12V173.5z"/>
<polygon id="opacity:11_00000010278206707030980660000008794484380153675684_" fill="#FF9E39" points="15.3,185.7 15.3,187.3 
	4.5,187.3 4.5,341.3 2.8,341.3 2.8,185.7 "/>
<rect x="2.8" y="582.6" fill="#FF9E39" width="1.6" height="1.2"/>
<rect x="2.8" y="778.8" fill="#FF9E39" width="1.6" height="2.7"/>
<polygon id="opacity:11_00000009587598448775853690000014075760438307472773_" fill="#FF9E39" points="480,185.7 480,341.3 
	478.3,341.3 478.3,187.3 467.5,187.3 467.5,185.7 "/>
<rect x="478.3" y="582.6" fill="#FF9E39" width="1.6" height="1.2"/>
<rect x="478.3" y="778.8" fill="#FF9E39" width="1.6" height="2.7"/>
<path fill="#F3504D" d="M194,198.5h1.2v3.7H194V198.5z M195.3,194.9h1.2v3.7h-1.2V194.9z M196.5,191.2h1.2v3.7h-1.2V191.2z"/>
<path fill="#F3504D" d="M200.1,198.5h1.2v3.7h-1.2V198.5z M201.4,194.9h1.2v3.7h-1.2V194.9z M202.6,191.2h1.2v3.7h-1.2V191.2z"/>
<path fill="#F3504D" d="M206.2,192.4h1.2v3.7h-1.2V192.4z M206.2,199.7h1.2v1.2h-1.2V199.7z M207.5,191.2h3.7v1.2h-3.7V191.2z
	 M207.5,196.1h3.7v1.2h-3.7V196.1z M207.5,200.9h3.7v1.2h-3.7V200.9z M211.1,192.4h1.2v1.2h-1.2V192.4z M211.1,197.3h1.2v3.7h-1.2
	V197.3z"/>
<path fill="#F3504D" d="M214.8,191.2h1.2v3.7h-1.2V191.2z M216,194.9h1.2v1.2H216V194.9z M217.2,196.1h1.2v6.1h-1.2V196.1z
	 M218.4,194.9h1.2v1.2h-1.2V194.9z M219.6,191.2h1.2v3.7h-1.2V191.2z"/>
<path fill="#F3504D" d="M223.3,192.4h1.2v3.7h-1.2V192.4z M223.3,199.7h1.2v1.2h-1.2V199.7z M224.5,191.2h3.7v1.2h-3.7V191.2z
	 M224.5,196.1h3.7v1.2h-3.7V196.1z M224.5,200.9h3.7v1.2h-3.7V200.9z M228.2,192.4h1.2v1.2h-1.2V192.4z M228.2,197.3h1.2v3.7h-1.2
	V197.3z"/>
<path fill="#F3504D" d="M231.8,191.2h6.1v1.2h-2.4v9.8h-1.2v-9.8h-2.4v-1.2H231.8z"/>
<path fill="#F3504D" d="M240.4,191.2h6.1v1.2h-4.9v3.7h2.4v1.2h-2.4v3.7h4.9v1.2h-6.1V191.2z"/>
<path fill="#F3504D" d="M248.9,191.2h1.2v2.4h1.2v1.2h-1.2v7.3h-1.2V191.2z M251.3,194.9h1.2v1.2h-1.2V194.9z M252.6,196.1h1.2v1.2
	h-1.2V196.1z M253.8,194.9h1.2v1.2h-1.2V194.9z M256.2,191.2h1.2v11h-1.2v-7.3H255v-1.2h1.2V191.2z"/>
<path fill="#F3504D" d="M266,191.2h1.2v11H266V191.2z"/>
<path fill="#F3504D" d="M270.9,191.2h1.2v3.7h1.2v1.2h-1.2v6.1h-1.2V191.2z M273.3,196.1h1.2v1.2h-1.2V196.1z M275.7,191.2h1.2v11
	h-1.2v-3.7h-1.2v-1.2h1.2V191.2z"/>
<path fill="#F3504D" d="M279.4,191.2h6.1v1.2h-4.9v3.7h2.4v1.2h-2.4v4.9h-1.2V191.2z"/>
<path fill="#F3504D" d="M287.9,192.4h1.2v8.5h-1.2V192.4z M289.2,191.2h3.7v1.2h-3.7V191.2z M289.2,200.9h3.7v1.2h-3.7V200.9z
	 M292.8,192.4h1.2v8.5h-1.2V192.4z"/>
<path id="opacity:20_00000183967616433475983180000003369192269945165211_" fill="#FF9E39" d="M165.7,229.3h1.1v3.4h-1.1V229.3z
	 M166.8,225.9h1.1v3.4h-1.1V225.9z M167.9,222.5h1.1v3.4h-1.1V222.5z"/>
<path id="opacity:20_00000123417792304546644160000014199199759129921932_" fill="#FF9E39" d="M171.3,229.3h1.1v3.4h-1.1V229.3z
	 M172.4,225.9h1.1v3.4h-1.1V225.9z M173.6,222.5h1.1v3.4h-1.1V222.5z"/>
<path id="opacity:20_00000165941986428608378890000016842503942599818141_" fill="#FF9E39" d="M177,222.5h1.1v7.9H177V222.5z
	 M178.1,230.4h1.1v1.1h-1.1V230.4z M179.2,231.6h1.1v1.1h-1.1V231.6z M180.3,230.4h1.1v1.1h-1.1V230.4z M181.5,222.5h1.1v7.9h-1.1
	V222.5z"/>
<path id="opacity:20_00000038396508531298061250000009547603002392964286_" fill="#FF9E39" d="M184.8,222.5h5.6v1.1H186v3.4h2.3v1.1
	H186v3.4h4.5v1.1h-5.6L184.8,222.5L184.8,222.5z"/>
<path id="opacity:20_00000096777405203370139710000018161618038978420630_" fill="#FF9E39" d="M192.7,222.5h1.1v4.5h3.4v-4.5h1.1
	v10.1h-1.1v-4.4h-3.4v4.5h-1.1V222.5z"/>
<path id="opacity:20_00000032618784377905290200000002165088028249498532_" fill="#FF9E39" d="M201.8,222.5h1.1v10.1h-1.1V222.5z"/>
<path id="opacity:20_00000163067578954882055730000001505992936748010666_" fill="#FF9E39" d="M206.3,223.7h1.1v7.9h-1.1V223.7z
	 M207.4,222.5h3.4v1.1h-3.4V222.5z M207.4,231.6h3.4v1.1h-3.4V231.6z M210.8,223.7h1.1v1.1h-1.1V223.7z M210.8,230.4h1.1v1.1h-1.1
	V230.4z"/>
<path id="opacity:20_00000069388778000434932580000014030990636236836263_" fill="#FF9E39" d="M214.2,222.5h1.1v9h4.5v1.1h-5.6
	V222.5z"/>
<path id="opacity:20_00000062882157027033259730000006993512313772067756_" fill="#FF9E39" d="M222,222.5h5.6v1.1h-4.5v3.4h2.3v1.1
	h-2.3v3.4h4.5v1.1H222V222.5z"/>
<path id="opacity:20_00000103223479439216538330000001230484342809311885_" fill="#FF9E39" d="M228.8,233.8h5.6v1.1h-5.6V233.8z"/>
<path id="opacity:20_00000183233833970165854630000013725858285226673811_" fill="#FF9E39" d="M235.6,222.5h4.5v1.1h-3.4v7.9h3.4
	v1.1h-4.5V222.5z M240.1,223.7h1.1v7.9h-1.1V223.7z"/>
<path id="opacity:20_00000180350058313780918920000004486661431711099801_" fill="#FF9E39" d="M243.5,223.7h1.1v4.5h3.4v-4.5h1.1v9
	H248v-3.4h-3.4v3.4h-1.1V223.7z M244.6,222.5h3.4v1.1h-3.4V222.5z"/>
<path id="opacity:20_00000044879552719685682480000015615897538271416484_" fill="#FF9E39" d="M251.4,222.5h5.6v1.1h-2.3v9h-1.1v-9
	h-2.3v-1.1H251.4z"/>
<path id="opacity:20_00000150061257563092329150000007892603687022841755_" fill="#FF9E39" d="M259.3,223.7h1.1v4.5h3.4v-4.5h1.1v9
	h-1.1v-3.4h-3.4v3.4h-1.1V223.7z M260.4,222.5h3.4v1.1h-3.4V222.5z"/>
<path id="opacity:20_00000061462258674490247740000014233742224695771045_" fill="#FF9E39" d="M268.3,224.8h1.1v1.1h-1.1V224.8z
	 M268.3,231.6h1.1v1.1h-1.1V231.6z"/>
<path id="opacity:20_00000102529329512189830440000018148830425389343926_" fill="#FF9E39" d="M277.3,223.7h1.1v3.4h-1.1V223.7z
	 M277.3,230.4h1.1v1.1h-1.1V230.4z M278.4,222.5h3.4v1.1h-3.4V222.5z M278.4,227h3.4v1.1h-3.4V227z M278.4,231.6h3.4v1.1h-3.4V231.6
	z M281.8,223.7h1.1v1.1h-1.1V223.7z M281.8,228.2h1.1v3.4h-1.1V228.2z"/>
<path id="opacity:20_00000090259327602135015530000001144021345715233416_" fill="#FF9E39" d="M285.2,222.5h1.1v3.4h-1.1V222.5z
	 M286.3,225.9h1.1v1.1h-1.1V225.9z M287.4,227h1.1v5.6h-1.1V227z M288.6,225.9h1.1v1.1h-1.1V225.9z M289.7,222.5h1.1v3.4h-1.1V222.5
	z"/>
<path id="opacity:20_00000182516867518594247490000000868589775804935323_" fill="#FF9E39" d="M293.1,222.5h1.1v3.4h1.1v1.1h-1.1
	v5.6h-1.1V222.5z M295.3,227h1.1v1.1h-1.1V227z M297.6,222.5h1.1v10.1h-1.1v-3.4h-1.1v-1h1.1V222.5z"/>
<path id="opacity:20_00000136376394545604867640000008855581734759387808_" fill="#FF9E39" d="M301,223.7h1.1v7.9H301V223.7z
	 M302.1,222.5h3.4v1.1h-3.4V222.5z M302.1,231.6h3.4v1.1h-3.4V231.6z M305.5,223.7h1.1v1.1h-1.1V223.7z M305.5,230.4h1.1v1.1h-1.1
	V230.4z"/>
<path id="opacity:20_00000087385707378132265210000001714288298468385929_" fill="#FF9E39" d="M308.9,222.5h5.6v1.1H310v3.4h2.3v1.1
	H310v3.4h4.5v1.1h-5.6V222.5z"/>
<path id="opacity:20" fill="#FF9E39" d="M316.8,222.5h4.5v1.1h-3.4v7.9h3.4v1.1h-4.5V222.5z M321.3,223.7h1.1v7.9h-1.1V223.7z"/>
<rect id="opacity:30_00000166666213583622893040000000780222178766123656_" x="130.4" y="195.2" fill="#FF9E39" width="42.4" height="3.5"/>
<rect id="opacity:30" x="315.3" y="195.2" fill="#FF9E39" width="42.4" height="3.5"/>
<rect id="opacity:3_00000007424881965346221640000003937103263248427185_" x="2.8" y="781.5" fill="#FF9E39" width="1.6" height="70.8"/>
<rect id="opacity:3_00000083802996593952205790000004709246074245368709_" x="478.3" y="781.5" fill="#FF9E39" width="1.6" height="70.8"/>
<rect id="opacity:5_00000062899878679847666740000000370636234518571666_" x="2.8" y="583.8" fill="#FF9E39" width="1.6" height="195"/>
<rect id="opacity:5_00000109750504145838953570000004493972359220141961_" x="478.3" y="583.8" fill="#FF9E39" width="1.6" height="195"/>
<rect id="opacity:8_00000181767685701987245410000005732352484973575300_" x="478.3" y="341.3" fill="#FF9E39" width="1.6" height="241.3"/>
<rect id="opacity:8_00000066477736988305715590000012363598987475453333_" x="2.8" y="341.3" fill="#FF9E39" width="1.6" height="241.3"/>
</svg>
