<?xml version="1.0" encoding="utf-8"?>
<!-- Generator: Adobe Illustrator 27.8.0, SVG Export Plug-In . SVG Version: 6.00 Build 0)  -->
<svg version="1.1" baseProfile="tiny" id="Layer_1" xmlns="http://www.w3.org/2000/svg" xmlns:xlink="http://www.w3.org/1999/xlink"
	 x="0px" y="0px" viewBox="0 0 488.1 867" overflow="visible" xml:space="preserve">
<rect id="opacity:9" y="281.2" fill="#FF9E39" width="488.2" height="103.7"/>
<rect id="opacity:10" y="160" fill="#FF9E39" width="488.1" height="121.2"/>
<rect id="opacity:11" fill="#FF9E39" width="488.1" height="160"/>
<rect id="opacity:8" x="-0.1" y="384.9" fill="#FF9E39" width="488.2" height="89.7"/>
<rect id="opacity:7" y="474.6" fill="#FF9E39" width="488.1" height="79.2"/>
<rect id="opacity:6" y="553.8" fill="#FF9E39" width="488.2" height="67.7"/>
<rect id="opacity:5" x="-0.1" y="621.5" fill="#FF9E39" width="488.2" height="55.8"/>
<rect id="opacity:4" x="0.1" y="677.3" fill="#FF9E39" width="488" height="46.1"/>
<rect id="opacity:3" x="-0.2" y="723.3" fill="#FF9E39" width="488.3" height="34.6"/>
<rect id="opacity:2" y="757.9" fill="#FF9E39" width="488.1" height="29.3"/>
<rect id="opacity:1" x="-0.1" y="787.3" fill="#FF9E39" width="488.2" height="79.7"/>
<polygon id="opacity:11_00000010278206707030980660000008794484380153675684_" fill="#FF9E39" points="15.3,5.9 15.3,7.5 4.5,7.5 
	4.5,161.5 2.8,161.5 2.8,5.9 "/>
<rect x="2.8" y="402.8" fill="#FF9E39" width="1.6" height="1.2"/>
<rect x="2.8" y="599" fill="#FF9E39" width="1.6" height="2.7"/>
<polygon id="opacity:11_00000009587598448775853690000014075760438307472773_" fill="#FF9E39" points="480,5.9 480,161.5 
	478.3,161.5 478.3,7.5 467.5,7.5 467.5,5.9 "/>
<rect x="478.3" y="402.8" fill="#FF9E39" width="1.6" height="1.2"/>
<rect x="478.3" y="599" fill="#FF9E39" width="1.6" height="2.7"/>
<path id="opacity:20_00000183967616433475983180000003369192269945165211_" fill="#FF9E39" d="M165.7,15.2h1.1v3.4h-1.1V15.2z
	 M166.8,11.8h1.1v3.4h-1.1V11.8z M167.9,8.4h1.1v3.4h-1.1V8.4z"/>
<path id="opacity:20_00000123417792304546644160000014199199759129921932_" fill="#FF9E39" d="M171.3,15.2h1.1v3.4h-1.1V15.2z
	 M172.4,11.8h1.1v3.4h-1.1V11.8z M173.6,8.4h1.1v3.4h-1.1V8.4z"/>
<path id="opacity:20_00000165941986428608378890000016842503942599818141_" fill="#FF9E39" d="M177,8.4h1.1v7.9H177V8.4z
	 M178.1,16.3h1.1v1.1h-1.1V16.3z M179.2,17.5h1.1v1.1h-1.1V17.5z M180.3,16.3h1.1v1.1h-1.1V16.3z M181.5,8.4h1.1v7.9h-1.1V8.4z"/>
<path id="opacity:20_00000038396508531298061250000009547603002392964286_" fill="#FF9E39" d="M184.8,8.4h5.6v1.1H186v3.4h2.3V14
	H186v3.4h4.5v1.1h-5.6L184.8,8.4L184.8,8.4z"/>
<path id="opacity:20_00000096777405203370139710000018161618038978420630_" fill="#FF9E39" d="M192.7,8.4h1.1v4.5h3.4V8.4h1.1v10.1
	h-1.1v-4.4h-3.4v4.5h-1.1V8.4z"/>
<path id="opacity:20_00000032618784377905290200000002165088028249498532_" fill="#FF9E39" d="M201.8,8.4h1.1v10.1h-1.1V8.4z"/>
<path id="opacity:20_00000163067578954882055730000001505992936748010666_" fill="#FF9E39" d="M206.3,9.6h1.1v7.9h-1.1V9.6z
	 M207.4,8.4h3.4v1.1h-3.4V8.4z M207.4,17.5h3.4v1.1h-3.4V17.5z M210.8,9.6h1.1v1.1h-1.1V9.6z M210.8,16.3h1.1v1.1h-1.1V16.3z"/>
<path id="opacity:20_00000069388778000434932580000014030990636236836263_" fill="#FF9E39" d="M214.2,8.4h1.1v9h4.5v1.1h-5.6V8.4z"
	/>
<path id="opacity:20_00000062882157027033259730000006993512313772067756_" fill="#FF9E39" d="M222,8.4h5.6v1.1h-4.5v3.4h2.3V14
	h-2.3v3.4h4.5v1.1H222V8.4z"/>
<path id="opacity:20_00000103223479439216538330000001230484342809311885_" fill="#FF9E39" d="M228.8,19.7h5.6v1.1h-5.6V19.7z"/>
<path id="opacity:20_00000183233833970165854630000013725858285226673811_" fill="#FF9E39" d="M235.6,8.4h4.5v1.1h-3.4v7.9h3.4v1.1
	h-4.5V8.4z M240.1,9.6h1.1v7.9h-1.1V9.6z"/>
<path id="opacity:20_00000180350058313780918920000004486661431711099801_" fill="#FF9E39" d="M243.5,9.6h1.1v4.5h3.4V9.6h1.1v9H248
	v-3.4h-3.4v3.4h-1.1V9.6z M244.6,8.4h3.4v1.1h-3.4V8.4z"/>
<path id="opacity:20_00000044879552719685682480000015615897538271416484_" fill="#FF9E39" d="M251.4,8.4h5.6v1.1h-2.3v9h-1.1v-9
	h-2.3V8.4H251.4z"/>
<path id="opacity:20_00000150061257563092329150000007892603687022841755_" fill="#FF9E39" d="M259.3,9.6h1.1v4.5h3.4V9.6h1.1v9
	h-1.1v-3.4h-3.4v3.4h-1.1V9.6z M260.4,8.4h3.4v1.1h-3.4V8.4z"/>
<path id="opacity:20_00000061462258674490247740000014233742224695771045_" fill="#FF9E39" d="M268.3,10.7h1.1v1.1h-1.1V10.7z
	 M268.3,17.5h1.1v1.1h-1.1V17.5z"/>
<path id="opacity:20_00000102529329512189830440000018148830425389343926_" fill="#FF9E39" d="M277.3,9.6h1.1V13h-1.1V9.6z
	 M277.3,16.3h1.1v1.1h-1.1V16.3z M278.4,8.4h3.4v1.1h-3.4V8.4z M278.4,12.9h3.4V14h-3.4V12.9z M278.4,17.5h3.4v1.1h-3.4V17.5z
	 M281.8,9.6h1.1v1.1h-1.1V9.6z M281.8,14.1h1.1v3.4h-1.1V14.1z"/>
<path id="opacity:20_00000090259327602135015530000001144021345715233416_" fill="#FF9E39" d="M285.2,8.4h1.1v3.4h-1.1V8.4z
	 M286.3,11.8h1.1v1.1h-1.1V11.8z M287.4,12.9h1.1v5.6h-1.1V12.9z M288.6,11.8h1.1v1.1h-1.1V11.8z M289.7,8.4h1.1v3.4h-1.1V8.4z"/>
<path id="opacity:20_00000182516867518594247490000000868589775804935323_" fill="#FF9E39" d="M293.1,8.4h1.1v3.4h1.1v1.1h-1.1v5.6
	h-1.1V8.4z M295.3,12.9h1.1V14h-1.1V12.9z M297.6,8.4h1.1v10.1h-1.1v-3.4h-1.1v-1h1.1V8.4z"/>
<path id="opacity:20_00000136376394545604867640000008855581734759387808_" fill="#FF9E39" d="M301,9.6h1.1v7.9H301V9.6z M302.1,8.4
	h3.4v1.1h-3.4V8.4z M302.1,17.5h3.4v1.1h-3.4V17.5z M305.5,9.6h1.1v1.1h-1.1V9.6z M305.5,16.3h1.1v1.1h-1.1V16.3z"/>
<path id="opacity:20_00000087385707378132265210000001714288298468385929_" fill="#FF9E39" d="M308.9,8.4h5.6v1.1H310v3.4h2.3V14
	H310v3.4h4.5v1.1h-5.6V8.4z"/>
<path id="opacity:20" fill="#FF9E39" d="M316.8,8.4h4.5v1.1h-3.4v7.9h3.4v1.1h-4.5V8.4z M321.3,9.6h1.1v7.9h-1.1V9.6z"/>
<rect id="opacity:3_00000007424881965346221640000003937103263248427185_" x="2.8" y="601.7" fill="#FF9E39" width="1.6" height="70.8"/>
<rect id="opacity:3_00000083802996593952205790000004709246074245368709_" x="478.3" y="601.7" fill="#FF9E39" width="1.6" height="70.8"/>
<rect id="opacity:5_00000062899878679847666740000000370636234518571666_" x="2.8" y="404" fill="#FF9E39" width="1.6" height="195"/>
<rect id="opacity:5_00000109750504145838953570000004493972359220141961_" x="478.3" y="404" fill="#FF9E39" width="1.6" height="195"/>
<rect id="opacity:8_00000181767685701987245410000005732352484973575300_" x="478.3" y="161.5" fill="#FF9E39" width="1.6" height="241.3"/>
<rect id="opacity:8_00000066477736988305715590000012363598987475453333_" x="2.8" y="161.5" fill="#FF9E39" width="1.6" height="241.3"/>
</svg>
