<?xml version="1.0" encoding="utf-8"?>
<!-- Generator: Adobe Illustrator 28.6.0, SVG Export Plug-In . SVG Version: 9.03 Build 54939)  -->
<svg version="1.1" baseProfile="tiny" id="animated"
	 xmlns="http://www.w3.org/2000/svg" xmlns:xlink="http://www.w3.org/1999/xlink" x="0px" y="0px" viewBox="0 0 500 500"
	 overflow="visible" xml:space="preserve">
<g id="_x30_">
	<polygon id="colorstyle:Base_opacity:20" fill="#FFFFFF" points="66.7,146.6 93.4,143.2 93.4,297.2 66.7,287.5 	"/>
	<polygon id="colorstyle:Base_opacity:30" fill="#FFFFFF" points="108.4,141.3 135.8,137.8 135.8,312.7 108.4,302.7 	"/>
	<polygon id="colorstyle:Base_opacity:40" fill="#FFFFFF" points="150.8,135.9 178.1,132.4 178.1,328.2 150.8,318.2 	"/>
	<polygon id="colorstyle:Base_opacity:50" fill="#FFFFFF" points="193.2,130.5 220.5,127 220.5,343.6 193.2,333.6 	"/>
	<polygon id="colorstyle:Base_opacity:60" fill="#FFFFFF" points="235.6,125.1 262.9,121.7 262.9,359.1 235.6,349.1 	"/>
	<polygon id="colorstyle:Base_opacity:70" fill="#FFFFFF" points="277.9,119.7 305.3,116.3 305.3,374.6 277.9,364.6 	"/>
	<polygon id="colorstyle:Base_opacity:80" fill="#FFFFFF" points="320.3,114.4 347.7,110.9 347.7,390 320.3,380 	"/>
	<polygon id="colorstyle:Base_opacity:90" fill="#FFFFFF" points="362.7,109 390,105.5 390,403.5 384.6,403.5 362.7,395.5 	"/>
	<polygon id="colorstyle:Base_opacity:100_00000125581339475330735380000007425801637813817256_" fill="#FFFFFF" points="
		431.7,100.2 431.7,403.5 405.1,403.5 405.1,103.6 	"/>
	<path id="colorstyle:Base_opacity:100_00000022555482177078921380000010249665663089103801_" fill="#FFFFFF" d="M11.6,101.1v221.6
		l372.9,139.5h103.9V37.8L11.6,101.1z M462.4,436.2h-73.2L37.6,304.7V123.9l424.8-56.4V436.2z"/>
</g>
<g id="_x31__00000019672538897143003120000007496718085296671929_">
	<polygon id="colorstyle:Base_opacity:100_00000073684386838036607230000004157327794003394964_" fill="#FFFFFF" points="
		66.7,146.6 93.4,143.2 93.4,297.2 66.7,287.5 	"/>
	<polygon id="colorstyle:Base_opacity:30_00000112606384665483398130000013016505354312091528_" fill="#FFFFFF" points="
		108.4,141.3 135.8,137.8 135.8,312.7 108.4,302.7 	"/>
	<polygon id="colorstyle:Base_opacity:40_00000017499223476971163560000000069378854387457173_" fill="#FFFFFF" points="
		150.8,135.9 178.1,132.4 178.1,328.2 150.8,318.2 	"/>
	<polygon id="colorstyle:Base_opacity:50_00000075162005313883617280000014554273299276649656_" fill="#FFFFFF" points="
		193.2,130.5 220.5,127 220.5,343.6 193.2,333.6 	"/>
	<polygon id="colorstyle:Base_opacity:60_00000134242037385284827680000017043508492085780615_" fill="#FFFFFF" points="
		235.6,125.1 262.9,121.7 262.9,359.1 235.6,349.1 	"/>
	<polygon id="colorstyle:Base_opacity:70_00000072260664549639844750000017940595670825322384_" fill="#FFFFFF" points="
		277.9,119.7 305.3,116.3 305.3,374.6 277.9,364.6 	"/>
	<polygon id="colorstyle:Base_opacity:80_00000174598982339492182700000006515477212443431602_" fill="#FFFFFF" points="
		320.3,114.4 347.7,110.9 347.7,390 320.3,380 	"/>
	<polygon id="colorstyle:Base_opacity:90_00000006689351238850411170000011840922554721956997_" fill="#FFFFFF" points="362.7,109 
		390,105.5 390,403.5 384.6,403.5 362.7,395.5 	"/>
	<polygon id="colorstyle:Base_opacity:100_00000085959346543889419940000003034840587168848519_" fill="#FFFFFF" points="
		431.7,100.2 431.7,403.5 405.1,403.5 405.1,103.6 	"/>
	<path id="colorstyle:Base_opacity:100_00000158000154937040456850000009729681764236865724_" fill="#FFFFFF" d="M11.6,101.1v221.6
		l372.9,139.5h103.9V37.8L11.6,101.1z M462.4,436.2h-73.2L37.6,304.7V123.9l424.8-56.4V436.2z"/>
</g>
<g id="_x32__00000057148087836681633980000007249838976676558525_">
	<polygon id="colorstyle:Base_opacity:20_00000109014960443070470660000009845290550670250941_" fill="#FFFFFF" points="66.7,146.6 
		93.4,143.2 93.4,297.2 66.7,287.5 	"/>
	<polygon id="colorstyle:Base_opacity:100_00000000925752065436589070000001329450115342065561_" fill="#FFFFFF" points="
		108.4,141.3 135.8,137.8 135.8,312.7 108.4,302.7 	"/>
	<polygon id="colorstyle:Base_opacity:40_00000174604249294103787430000009643241929313774755_" fill="#FFFFFF" points="
		150.8,135.9 178.1,132.4 178.1,328.2 150.8,318.2 	"/>
	<polygon id="colorstyle:Base_opacity:50_00000042716454071867132950000002079341629483601538_" fill="#FFFFFF" points="
		193.2,130.5 220.5,127 220.5,343.6 193.2,333.6 	"/>
	<polygon id="colorstyle:Base_opacity:60_00000150099227344000701940000014052006510332993959_" fill="#FFFFFF" points="
		235.6,125.1 262.9,121.7 262.9,359.1 235.6,349.1 	"/>
	<polygon id="colorstyle:Base_opacity:70_00000056400119208389133010000018154517728526756020_" fill="#FFFFFF" points="
		277.9,119.7 305.3,116.3 305.3,374.6 277.9,364.6 	"/>
	<polygon id="colorstyle:Base_opacity:80_00000039847576552869885170000005304469361972027787_" fill="#FFFFFF" points="
		320.3,114.4 347.7,110.9 347.7,390 320.3,380 	"/>
	<polygon id="colorstyle:Base_opacity:90_00000172435380696450404080000001171176674736594103_" fill="#FFFFFF" points="362.7,109 
		390,105.5 390,403.5 384.6,403.5 362.7,395.5 	"/>
	<polygon id="colorstyle:Base_opacity:100_00000052061861321578244520000011232140518491701160_" fill="#FFFFFF" points="
		431.7,100.2 431.7,403.5 405.1,403.5 405.1,103.6 	"/>
	<path id="colorstyle:Base_opacity:100_00000047021962410297089100000004328898781066573214_" fill="#FFFFFF" d="M11.6,101.1v221.6
		l372.9,139.5h103.9V37.8L11.6,101.1z M462.4,436.2h-73.2L37.6,304.7V123.9l424.8-56.4V436.2z"/>
</g>
<g id="_x33_">
	<polygon id="colorstyle:Base_opacity:20_00000123431155273662324580000001564646879973802114_" fill="#FFFFFF" points="66.7,146.6 
		93.4,143.2 93.4,297.2 66.7,287.5 	"/>
	<polygon id="colorstyle:Base_opacity:30_00000160175341492803725500000000578088807919498381_" fill="#FFFFFF" points="
		108.4,141.3 135.8,137.8 135.8,312.7 108.4,302.7 	"/>
	<polygon id="colorstyle:Base_opacity:100_00000095320989345166791560000013594579248921788827_" fill="#FFFFFF" points="
		150.8,135.9 178.1,132.4 178.1,328.2 150.8,318.2 	"/>
	<polygon id="colorstyle:Base_opacity:50_00000137834069961756977400000016905627595169308603_" fill="#FFFFFF" points="
		193.2,130.5 220.5,127 220.5,343.6 193.2,333.6 	"/>
	<polygon id="colorstyle:Base_opacity:60_00000062161468061484360420000001383230794943782323_" fill="#FFFFFF" points="
		235.6,125.1 262.9,121.7 262.9,359.1 235.6,349.1 	"/>
	<polygon id="colorstyle:Base_opacity:70_00000170243227410169201580000003135351015586219650_" fill="#FFFFFF" points="
		277.9,119.7 305.3,116.3 305.3,374.6 277.9,364.6 	"/>
	<polygon id="colorstyle:Base_opacity:80_00000000936423866801374550000000358310262280645522_" fill="#FFFFFF" points="
		320.3,114.4 347.7,110.9 347.7,390 320.3,380 	"/>
	<polygon id="colorstyle:Base_opacity:90_00000090252491058514738700000017029372222305482891_" fill="#FFFFFF" points="362.7,109 
		390,105.5 390,403.5 384.6,403.5 362.7,395.5 	"/>
	<polygon id="colorstyle:Base_opacity:100_00000155127399020226857170000018402431664097242806_" fill="#FFFFFF" points="
		431.7,100.2 431.7,403.5 405.1,403.5 405.1,103.6 	"/>
	<path id="colorstyle:Base_opacity:100_00000150093056530525519250000005886597980004711330_" fill="#FFFFFF" d="M11.6,101.1v221.6
		l372.9,139.5h103.9V37.8L11.6,101.1z M462.4,436.2h-73.2L37.6,304.7V123.9l424.8-56.4V436.2z"/>
</g>
<g id="_x34_">
	<polygon id="colorstyle:Base_opacity:20_00000065063779756542064780000016811737412469463426_" fill="#FFFFFF" points="66.7,146.6 
		93.4,143.2 93.4,297.2 66.7,287.5 	"/>
	<polygon id="colorstyle:Base_opacity:30_00000170273463585118782540000015636994230513206191_" fill="#FFFFFF" points="
		108.4,141.3 135.8,137.8 135.8,312.7 108.4,302.7 	"/>
	<polygon id="colorstyle:Base_opacity:40_00000104697847655334436080000000150017020931795100_" fill="#FFFFFF" points="
		150.8,135.9 178.1,132.4 178.1,328.2 150.8,318.2 	"/>
	<polygon id="colorstyle:Base_opacity:100_00000154415217145052885910000002235712935957799554_" fill="#FFFFFF" points="
		193.2,130.5 220.5,127 220.5,343.6 193.2,333.6 	"/>
	<polygon id="colorstyle:Base_opacity:60_00000153694731670887658190000011845822957911011978_" fill="#FFFFFF" points="
		235.6,125.1 262.9,121.7 262.9,359.1 235.6,349.1 	"/>
	<polygon id="colorstyle:Base_opacity:70_00000066475483945954764040000006932706337786306482_" fill="#FFFFFF" points="
		277.9,119.7 305.3,116.3 305.3,374.6 277.9,364.6 	"/>
	<polygon id="colorstyle:Base_opacity:80_00000142140193752315767370000013539388953222945423_" fill="#FFFFFF" points="
		320.3,114.4 347.7,110.9 347.7,390 320.3,380 	"/>
	<polygon id="colorstyle:Base_opacity:90_00000159439810312328078640000001687006135057628324_" fill="#FFFFFF" points="362.7,109 
		390,105.5 390,403.5 384.6,403.5 362.7,395.5 	"/>
	<polygon id="colorstyle:Base_opacity:100_00000004529498041429868290000011504433105336427192_" fill="#FFFFFF" points="
		431.7,100.2 431.7,403.5 405.1,403.5 405.1,103.6 	"/>
	<path id="colorstyle:Base_opacity:100_00000127733234488008124280000018366035326783091874_" fill="#FFFFFF" d="M11.6,101.1v221.6
		l372.9,139.5h103.9V37.8L11.6,101.1z M462.4,436.2h-73.2L37.6,304.7V123.9l424.8-56.4V436.2z"/>
</g>
<g id="_x35__00000142879734022871925110000003573551153672230559_">
	<polygon id="colorstyle:Base_opacity:20_00000121991602543578514970000017959266076981667742_" fill="#FFFFFF" points="66.7,146.6 
		93.4,143.2 93.4,297.2 66.7,287.5 	"/>
	<polygon id="colorstyle:Base_opacity:30_00000053540992070804829080000004946686016920932778_" fill="#FFFFFF" points="
		108.4,141.3 135.8,137.8 135.8,312.7 108.4,302.7 	"/>
	<polygon id="colorstyle:Base_opacity:40_00000114795379610464032590000014860641781978029711_" fill="#FFFFFF" points="
		150.8,135.9 178.1,132.4 178.1,328.2 150.8,318.2 	"/>
	<polygon id="colorstyle:Base_opacity:50_00000004542829406571291060000018305083758984781962_" fill="#FFFFFF" points="
		193.2,130.5 220.5,127 220.5,343.6 193.2,333.6 	"/>
	<polygon id="colorstyle:Base_opacity:100_00000175301908933548349070000003733144768473236120_" fill="#FFFFFF" points="
		235.6,125.1 262.9,121.7 262.9,359.1 235.6,349.1 	"/>
	<polygon id="colorstyle:Base_opacity:70_00000152234535225764627960000001612782844657620096_" fill="#FFFFFF" points="
		277.9,119.7 305.3,116.3 305.3,374.6 277.9,364.6 	"/>
	<polygon id="colorstyle:Base_opacity:80_00000111900121617222744300000005878190923355580571_" fill="#FFFFFF" points="
		320.3,114.4 347.7,110.9 347.7,390 320.3,380 	"/>
	<polygon id="colorstyle:Base_opacity:90_00000062886880209763987620000013620363236843036033_" fill="#FFFFFF" points="362.7,109 
		390,105.5 390,403.5 384.6,403.5 362.7,395.5 	"/>
	<polygon id="colorstyle:Base_opacity:100_00000070118422777091317730000010103133012885136027_" fill="#FFFFFF" points="
		431.7,100.2 431.7,403.5 405.1,403.5 405.1,103.6 	"/>
	<path id="colorstyle:Base_opacity:100_00000049185891300903231510000016460720758873021061_" fill="#FFFFFF" d="M11.6,101.1v221.6
		l372.9,139.5h103.9V37.8L11.6,101.1z M462.4,436.2h-73.2L37.6,304.7V123.9l424.8-56.4V436.2z"/>
</g>
<g id="_x36__00000065775119285002962020000001022826427781873039_">
	<polygon id="colorstyle:Base_opacity:20_00000042729992477227154090000000279841941468735422_" fill="#FFFFFF" points="66.7,146.6 
		93.4,143.2 93.4,297.2 66.7,287.5 	"/>
	<polygon id="colorstyle:Base_opacity:30_00000183958448513514107050000012232594921523885709_" fill="#FFFFFF" points="
		108.4,141.3 135.8,137.8 135.8,312.7 108.4,302.7 	"/>
	<polygon id="colorstyle:Base_opacity:40_00000062179211729315492810000009293109289554172292_" fill="#FFFFFF" points="
		150.8,135.9 178.1,132.4 178.1,328.2 150.8,318.2 	"/>
	<polygon id="colorstyle:Base_opacity:50_00000122706427583867838500000018413906289574004141_" fill="#FFFFFF" points="
		193.2,130.5 220.5,127 220.5,343.6 193.2,333.6 	"/>
	<polygon id="colorstyle:Base_opacity:60_00000013908485029460612650000005107502168760246919_" fill="#FFFFFF" points="
		235.6,125.1 262.9,121.7 262.9,359.1 235.6,349.1 	"/>
	<polygon id="colorstyle:Base_opacity:100_00000036253600200819167560000011603273577617694862_" fill="#FFFFFF" points="
		277.9,119.7 305.3,116.3 305.3,374.6 277.9,364.6 	"/>
	<polygon id="colorstyle:Base_opacity:80_00000029738932224766930330000015629903706221278083_" fill="#FFFFFF" points="
		320.3,114.4 347.7,110.9 347.7,390 320.3,380 	"/>
	<polygon id="colorstyle:Base_opacity:90_00000089547345009590349630000005925196576311520179_" fill="#FFFFFF" points="362.7,109 
		390,105.5 390,403.5 384.6,403.5 362.7,395.5 	"/>
	<polygon id="colorstyle:Base_opacity:100_00000118375551712036488180000000761749716509353654_" fill="#FFFFFF" points="
		431.7,100.2 431.7,403.5 405.1,403.5 405.1,103.6 	"/>
	<path id="colorstyle:Base_opacity:100_00000072989712146718837250000004763816905348922768_" fill="#FFFFFF" d="M11.6,101.1v221.6
		l372.9,139.5h103.9V37.8L11.6,101.1z M462.4,436.2h-73.2L37.6,304.7V123.9l424.8-56.4V436.2z"/>
</g>
<g id="_x37__00000183243331510736019100000013881482908125747870_">
	<polygon id="colorstyle:Base_opacity:20_00000048499132311208063290000017743467789170805948_" fill="#FFFFFF" points="66.7,146.6 
		93.4,143.2 93.4,297.2 66.7,287.5 	"/>
	<polygon id="colorstyle:Base_opacity:30_00000006696718152027383620000014604217515260706176_" fill="#FFFFFF" points="
		108.4,141.3 135.8,137.8 135.8,312.7 108.4,302.7 	"/>
	<polygon id="colorstyle:Base_opacity:40_00000005248074499684825720000015206766297701862038_" fill="#FFFFFF" points="
		150.8,135.9 178.1,132.4 178.1,328.2 150.8,318.2 	"/>
	<polygon id="colorstyle:Base_opacity:50_00000113342179481212970740000009317914409638159289_" fill="#FFFFFF" points="
		193.2,130.5 220.5,127 220.5,343.6 193.2,333.6 	"/>
	<polygon id="colorstyle:Base_opacity:60_00000131331380100405951530000003551089022505925562_" fill="#FFFFFF" points="
		235.6,125.1 262.9,121.7 262.9,359.1 235.6,349.1 	"/>
	<polygon id="colorstyle:Base_opacity:70_00000116230532087682038450000008904693939014058158_" fill="#FFFFFF" points="
		277.9,119.7 305.3,116.3 305.3,374.6 277.9,364.6 	"/>
	<polygon id="colorstyle:Base_opacity:100_00000094610343263243458730000007447653287154418358_" fill="#FFFFFF" points="
		320.3,114.4 347.7,110.9 347.7,390 320.3,380 	"/>
	<polygon id="colorstyle:Base_opacity:90_00000106148340607284251650000006251053574473477790_" fill="#FFFFFF" points="362.7,109 
		390,105.5 390,403.5 384.6,403.5 362.7,395.5 	"/>
	<polygon id="colorstyle:Base_opacity:100_00000044894374160279201340000007573693855785624993_" fill="#FFFFFF" points="
		431.7,100.2 431.7,403.5 405.1,403.5 405.1,103.6 	"/>
	<path id="colorstyle:Base_opacity:100_00000006702317501208233600000007490552505773229719_" fill="#FFFFFF" d="M11.6,101.1v221.6
		l372.9,139.5h103.9V37.8L11.6,101.1z M462.4,436.2h-73.2L37.6,304.7V123.9l424.8-56.4V436.2z"/>
</g>
<g id="_x38__00000031919117805821344000000016115059144218553791_">
	<polygon id="colorstyle:Base_opacity:20_00000004544994703374278780000003227087066024317350_" fill="#FFFFFF" points="66.7,146.6 
		93.4,143.2 93.4,297.2 66.7,287.5 	"/>
	<polygon id="colorstyle:Base_opacity:30_00000022523376959365857430000008776676905073971125_" fill="#FFFFFF" points="
		108.4,141.3 135.8,137.8 135.8,312.7 108.4,302.7 	"/>
	<polygon id="colorstyle:Base_opacity:40_00000109711671890987735710000012503383433427935167_" fill="#FFFFFF" points="
		150.8,135.9 178.1,132.4 178.1,328.2 150.8,318.2 	"/>
	<polygon id="colorstyle:Base_opacity:50_00000110435927117371496870000010401141301818247870_" fill="#FFFFFF" points="
		193.2,130.5 220.5,127 220.5,343.6 193.2,333.6 	"/>
	<polygon id="colorstyle:Base_opacity:60_00000088828626220389419160000007214184319198340526_" fill="#FFFFFF" points="
		235.6,125.1 262.9,121.7 262.9,359.1 235.6,349.1 	"/>
	<polygon id="colorstyle:Base_opacity:70_00000042704206836114258140000000213065189029459853_" fill="#FFFFFF" points="
		277.9,119.7 305.3,116.3 305.3,374.6 277.9,364.6 	"/>
	<polygon id="colorstyle:Base_opacity:80_00000073714191392988479440000016662553280277068719_" fill="#FFFFFF" points="
		320.3,114.4 347.7,110.9 347.7,390 320.3,380 	"/>
	<polygon id="colorstyle:Base_opacity:100_00000179606389416300351720000005714530300027756211_" fill="#FFFFFF" points="362.7,109 
		390,105.5 390,403.5 384.6,403.5 362.7,395.5 	"/>
	<polygon id="colorstyle:Base_opacity:100_00000056403682659584343790000003215048691818210179_" fill="#FFFFFF" points="
		431.7,100.2 431.7,403.5 405.1,403.5 405.1,103.6 	"/>
	<path id="colorstyle:Base_opacity:100_00000134241962100636277820000015922829423614665642_" fill="#FFFFFF" d="M11.6,101.1v221.6
		l372.9,139.5h103.9V37.8L11.6,101.1z M462.4,436.2h-73.2L37.6,304.7V123.9l424.8-56.4V436.2z"/>
</g>
<g id="_x39__00000049919376800542913340000003322347646366684574_">
	<polygon id="colorstyle:Base_opacity:20_00000000189178275834257180000016675217191865754016_" fill="#FFFFFF" points="66.7,146.6 
		93.4,143.2 93.4,297.2 66.7,287.5 	"/>
	<polygon id="colorstyle:Base_opacity:30_00000165941854158924665840000003321549937621893761_" fill="#FFFFFF" points="
		108.4,141.3 135.8,137.8 135.8,312.7 108.4,302.7 	"/>
	<polygon id="colorstyle:Base_opacity:40_00000085937081214115430370000006771375325656504207_" fill="#FFFFFF" points="
		150.8,135.9 178.1,132.4 178.1,328.2 150.8,318.2 	"/>
	<polygon id="colorstyle:Base_opacity:50_00000062894238779191593960000008307188826141576333_" fill="#FFFFFF" points="
		193.2,130.5 220.5,127 220.5,343.6 193.2,333.6 	"/>
	<polygon id="colorstyle:Base_opacity:60_00000138541449803836501370000009144386209173453700_" fill="#FFFFFF" points="
		235.6,125.1 262.9,121.7 262.9,359.1 235.6,349.1 	"/>
	<polygon id="colorstyle:Base_opacity:70_00000166636037991322757860000018116636586338304645_" fill="#FFFFFF" points="
		277.9,119.7 305.3,116.3 305.3,374.6 277.9,364.6 	"/>
	<polygon id="colorstyle:Base_opacity:80_00000099650153225193319400000012087181050703057322_" fill="#FFFFFF" points="
		320.3,114.4 347.7,110.9 347.7,390 320.3,380 	"/>
	<polygon id="colorstyle:Base_opacity:90_00000109000174258456966240000018203174921240756884_" fill="#FFFFFF" points="362.7,109 
		390,105.5 390,403.5 384.6,403.5 362.7,395.5 	"/>
	<polygon id="colorstyle:Base_opacity:100_00000116213058212368586170000005432305231189340554_" fill="#FFFFFF" points="
		431.7,100.2 431.7,403.5 405.1,403.5 405.1,103.6 	"/>
	<path id="colorstyle:Base_opacity:100_00000170972396345302916720000008534997146729055647_" fill="#FFFFFF" d="M11.6,101.1v221.6
		l372.9,139.5h103.9V37.8L11.6,101.1z M462.4,436.2h-73.2L37.6,304.7V123.9l424.8-56.4V436.2z"/>
</g>
</svg>
