<?xml version="1.0" encoding="utf-8"?>
<!-- Generator: Adobe Illustrator 28.1.0, SVG Export Plug-In . SVG Version: 6.00 Build 0)  -->
<svg version="1.1" baseProfile="tiny" id="Layer_1" xmlns="http://www.w3.org/2000/svg" xmlns:xlink="http://www.w3.org/1999/xlink"
	 x="0px" y="0px" width="928.5px" height="6.1px" viewBox="0 0 928.5 6.1" overflow="visible" xml:space="preserve">
<path id="colorstyle:Critical_opacity:80" fill="#C04E17" d="M0,0h30.3v6.1H0V0z M64.2,0h30.3v6.1H64.2V0z M128.3,0h30.3v6.1h-30.3
	V0z M192.5,0h30.3v6.1h-30.3V0z M256.6,0h30.3v6.1h-30.3V0z M320.8,0h30.3v6.1h-30.3V0z M385,0h30.3v6.1H385V0z M449.1,0h30.3v6.1
	h-30.3V0z M513.3,0h30.3v6.1h-30.3V0z M577.4,0h30.3v6.1h-30.3V0z M641.6,0h30.3v6.1h-30.3V0z M705.7,0H736v6.1h-30.3V0z M769.9,0
	h30.3v6.1h-30.3V0z M834.1,0h30.3v6.1h-30.3V0z M898.2,0h30.3v6.1h-30.3V0z"/>
</svg>
