<?xml version="1.0" encoding="utf-8"?>
<!-- Generator: Adobe Illustrator 28.6.0, SVG Export Plug-In . SVG Version: 9.03 Build 54939)  -->
<svg version="1.1" baseProfile="tiny" id="Layer_1" xmlns="http://www.w3.org/2000/svg" xmlns:xlink="http://www.w3.org/1999/xlink"
	 x="0px" y="0px" viewBox="0 0 166.2 6.3" overflow="visible" xml:space="preserve">
<rect id="colorstyle:Critical_opacity:50" x="99.8" y="0" transform="matrix(-1 -5.117474e-11 5.117474e-11 -1 265.9613 6.3391)" fill="#ED2024" width="66.4" height="6.3"/>
<rect id="colorstyle:Critical_opacity:60" x="66.6" y="0" transform="matrix(-1 -5.117030e-11 5.117030e-11 -1 164.1641 6.3391)" fill="#ED2024" width="30.9" height="6.3"/>
<rect id="colorstyle:Critical_opacity:70" x="44" y="0" transform="matrix(-1 -5.118318e-11 5.118318e-11 -1 108.3295 6.3391)" fill="#ED2024" width="20.4" height="6.3"/>
<rect id="colorstyle:Critical_opacity:80" x="32.1" y="0" transform="matrix(-1 -5.122492e-11 5.122492e-11 -1 73.816 6.3391)" fill="#ED2024" width="9.6" height="6.3"/>
<rect id="colorstyle:Critical_opacity:90" x="25" y="0" transform="matrix(-1 -5.112989e-11 5.112989e-11 -1 54.899 6.3391)" fill="#ED2024" width="4.8" height="6.3"/>
<rect id="colorstyle:Critical_opacity:100" x="20.4" y="0" transform="matrix(-1 -5.112989e-11 5.112989e-11 -1 43.1862 6.3391)" fill="#ED2024" width="2.4" height="6.3"/>
</svg>
