<?xml version="1.0" encoding="utf-8"?>
<!-- Generator: Adobe Illustrator 26.0.1, SVG Export Plug-In . SVG Version: 6.00 Build 0)  -->
<svg version="1.1" baseProfile="tiny" id="Layer_1" xmlns="http://www.w3.org/2000/svg" xmlns:xlink="http://www.w3.org/1999/xlink"
	 x="0px" y="0px" viewBox="0 0 1920 1080" overflow="visible" xml:space="preserve">
<g>
	<path fill="none" stroke="#382304" stroke-width="2.6738" stroke-miterlimit="10" d="M1480.4,510.4
		c-28.5-67.3-69.2-127.7-121-179.5c-51.9-51.9-112.3-92.6-179.5-121c-69.7-29.5-143.6-44.4-219.9-44.4
		c-76.2,0-150.2,14.9-219.9,44.4c-67.3,28.5-127.7,69.2-179.5,121c-51.9,51.9-92.6,112.3-121,179.5C410.1,580,395.2,654,395.2,730.2
		c0,76.2,14.9,150.2,44.4,219.9c28.5,67.3,69.2,127.7,121,179.5c51.9,51.9,112.3,92.6,179.5,121c69.7,29.5,143.6,44.4,219.9,44.4
		c76.2,0,150.2-14.9,219.9-44.4c67.3-28.5,127.7-69.2,179.5-121c51.9-51.9,92.6-112.3,121-179.5c29.5-69.7,44.4-143.6,44.4-219.9
		C1524.8,654,1509.9,580,1480.4,510.4z M960,1188.9c-252.9,0-458.7-205.8-458.7-458.7c0-252.9,205.8-458.7,458.7-458.7
		s458.7,205.8,458.7,458.7C1418.7,983.1,1212.9,1188.9,960,1188.9z"/>
	<path fill="none" stroke="#382304" stroke-width="2.6738" stroke-miterlimit="10" d="M1208.3,481.9
		c-57.3-57.3-130.9-92.3-210.3-100.8v-74.1h-76v74.1c-79.4,8.5-153,43.5-210.3,100.8c-57.3,57.3-92.3,130.9-100.8,210.3h-74.1v76
		h74.1c8.5,79.4,43.5,153,100.8,210.3c57.3,57.3,130.9,92.3,210.3,100.8v74.1h76v-74.1c79.4-8.5,153-43.5,210.3-100.8
		c57.3-57.3,92.3-130.9,100.8-210.3h74.1v-76h-74.1C1300.6,612.8,1265.6,539.2,1208.3,481.9z M1232.5,692.2h-85.3
		c-15.2-74.9-74.3-134-149.2-149.2v-85.3C1119.4,474.5,1215.7,570.8,1232.5,692.2z M922,457.7V543c-74.9,15.2-134,74.3-149.2,149.2
		h-85.3C704.3,570.8,800.6,474.5,922,457.7z M687.5,768.2h85.3c15.2,74.9,74.3,134,149.2,149.2v85.3
		C800.6,985.9,704.3,889.6,687.5,768.2z M998,1002.8v-85.3c74.9-15.2,134-74.3,149.2-149.2h85.3
		C1215.7,889.6,1119.4,985.9,998,1002.8z"/>
</g>
</svg>
