<?xml version="1.0" encoding="utf-8"?>
<!-- Generator: Adobe Illustrator 27.8.0, SVG Export Plug-In . SVG Version: 6.00 Build 0)  -->
<svg version="1.1" baseProfile="tiny" id="Layer_1" xmlns="http://www.w3.org/2000/svg" xmlns:xlink="http://www.w3.org/1999/xlink"
	 x="0px" y="0px" viewBox="0 0 144.1 938" overflow="visible" xml:space="preserve">
<path id="opacity:4_colorstyle:Accent1" fill="#6CB8C7" d="M128.5,65.7v806.5c0,4.9,2.7,9.5,7.1,11.8l8.5,4.5v23.4H40.5V639
	l21.7-11.4c4.4-2.3,7.1-6.8,7.1-11.8V322.2c0-4.9-2.7-9.5-7.1-11.8L40.5,299V26.1h103.6v23.4l-8.5,4.5
	C131.2,56.3,128.5,60.8,128.5,65.7z"/>
<path id="opacity:100_colorstyle:Base_00000119099169384534512180000001569604194014430132_" fill="#6CB8C7" d="M128.9,0H55.7
	c-8.4,0-15.2,6.8-15.2,15.2l0,0h103.6l0,0C144.1,6.8,137.3,0,128.9,0z"/>
<path id="opacity:100_colorstyle:Base" fill="#6CB8C7" d="M128.9,938H55.7c-8.4,0-15.2-6.8-15.2-15.2l0,0h103.6l0,0
	C144.1,931.2,137.3,938,128.9,938z"/>
</svg>
