<?xml version="1.0" encoding="utf-8"?>
<!-- Generator: Adobe Illustrator 27.8.0, SVG Export Plug-In . SVG Version: 6.00 Build 0)  -->
<svg version="1.1" baseProfile="tiny" id="A" xmlns="http://www.w3.org/2000/svg" xmlns:xlink="http://www.w3.org/1999/xlink"
	 x="0px" y="0px" viewBox="0 0 849.6 73.3" overflow="visible" xml:space="preserve">
<path id="colorstyle:Critical_00000078032606418998413710000012821142197916937363_" fill="#F40000" d="M834,17.3
	c1.3-0.5,2.4-1.2,3.4-2.2c1.7-1.8,2.8-4.1,2.8-6.7h9.4c0,3.8-2.5,7.3-6.2,8.4l-3.2,1v15.3h-9.5V21.8C830.7,19.7,832.1,17.9,834,17.3
	z"/>
<path id="colorstyle:Critical_00000139266344216981165570000006415262455458170531_" fill="#F40000" d="M840.2,55.5l3.2,1
	c1.8,0.6,3.4,1.7,4.5,3.2s1.7,3.4,1.7,5.3h-9.3c0-2.6-1.1-5-2.8-6.7c-0.9-1-2.1-1.7-3.4-2.2c-2-0.7-3.3-2.5-3.3-4.6V40.2h9.4
	L840.2,55.5L840.2,55.5z"/>
<path id="colorstyle:Critical_00000155137235127828929700000012352763008317901961_" fill="#F40000" d="M806.2,17.3
	c1.3-0.5,2.4-1.2,3.4-2.2c1.7-1.8,2.8-4.1,2.8-6.7h9.4c0,3.8-2.5,7.3-6.2,8.4l-3.2,1v15.3H803V21.8C803,19.7,804.3,17.9,806.2,17.3z
	"/>
<path id="colorstyle:Critical_00000152944978489432156280000016642801427790840720_" fill="#F40000" d="M812.6,40.2v15.3l3.2,1
	c1.8,0.6,3.4,1.7,4.5,3.2s1.7,3.4,1.7,5.3h-9.4c0-2.6-1.1-5-2.8-6.7c-0.9-1-2.1-1.7-3.4-2.2c-2-0.7-3.3-2.5-3.3-4.6V40.2H812.6
	L812.6,40.2z"/>
<path id="colorstyle:Critical_00000168828964998103315210000017840662932333854629_" fill="#F40000" d="M778.5,17.3
	c1.3-0.5,2.4-1.2,3.4-2.2c1.7-1.8,2.8-4.1,2.8-6.7h9.4c0,3.8-2.5,7.3-6.2,8.4l-3.2,1v15.3h-9.4V21.8
	C775.3,19.7,776.6,17.9,778.5,17.3z"/>
<path id="colorstyle:Critical_00000094599359069980892550000009498029941043353998_" fill="#F40000" d="M784.8,40.2v15.3l3.2,1
	c1.8,0.6,3.4,1.7,4.5,3.2s1.7,3.4,1.7,5.3h-9.4c0-2.6-1.1-5-2.8-6.7c-0.9-1-2.1-1.7-3.4-2.2c-2-0.7-3.3-2.5-3.3-4.6V40.2H784.8
	L784.8,40.2z"/>
<path id="colorstyle:Critical_00000065048472577847213680000001417991695514534282_" fill="#F40000" d="M750.8,17.3
	c1.3-0.5,2.4-1.2,3.4-2.2c1.7-1.8,2.8-4.1,2.8-6.7h9.4c0,3.8-2.5,7.3-6.2,8.4l-3.2,1v15.3h-9.4V21.8
	C747.6,19.7,748.9,17.9,750.8,17.3z"/>
<path id="colorstyle:Critical_00000064315724758407002990000008468583309303939236_" fill="#F40000" d="M757.1,40.2v15.3l3.2,1
	c1.8,0.6,3.4,1.7,4.5,3.2s1.7,3.4,1.7,5.3h-9.4c0-2.6-1.1-5-2.8-6.7c-0.9-1-2.1-1.7-3.4-2.2c-2-0.7-3.3-2.5-3.3-4.6V40.2H757.1
	L757.1,40.2z"/>
<path id="colorstyle:Critical_00000159465703157833470390000012664097343046377136_" fill="#F40000" d="M723.1,17.3
	c1.3-0.5,2.4-1.2,3.4-2.2c1.7-1.8,2.8-4.1,2.8-6.7h9.4c0,3.8-2.5,7.3-6.2,8.4l-3.2,1v15.3h-9.4V21.8
	C719.9,19.7,721.2,17.9,723.1,17.3z"/>
<path id="colorstyle:Critical_00000076580699836161282850000015357636455940598703_" fill="#F40000" d="M729.4,40.2v15.3l3.2,1
	c1.8,0.6,3.4,1.7,4.5,3.2s1.7,3.4,1.7,5.3h-9.4c0-2.6-1.1-5-2.8-6.7c-0.9-1-2.1-1.7-3.4-2.2c-2-0.7-3.3-2.5-3.3-4.6V40.2H729.4
	L729.4,40.2z"/>
<path id="colorstyle:Critical_00000132790958122325694080000001292248670176618376_" fill="#F40000" d="M695.4,17.3
	c1.3-0.5,2.4-1.2,3.4-2.2c1.7-1.8,2.8-4.1,2.8-6.7h9.4c0,3.8-2.5,7.3-6.2,8.4l-3.2,1v15.3h-9.4V21.8
	C692.2,19.7,693.5,17.9,695.4,17.3z"/>
<path id="colorstyle:Critical_00000011727047828984645210000003838006618791483307_" fill="#F40000" d="M701.7,40.2v15.3l3.2,1
	c1.8,0.6,3.4,1.7,4.5,3.2s1.7,3.4,1.7,5.3h-9.4c0-2.6-1.1-5-2.8-6.7c-0.9-1-2.1-1.7-3.4-2.2c-2-0.7-3.3-2.5-3.3-4.6V40.2H701.7
	L701.7,40.2z"/>
<path id="colorstyle:Critical_00000098907372274309614530000007471582845650677911_" fill="#F40000" d="M667.7,17.3
	c1.3-0.5,2.4-1.2,3.4-2.2c1.7-1.8,2.8-4.1,2.8-6.7h9.4c0,3.8-2.5,7.3-6.2,8.4l-3.2,1v15.3h-9.4V21.8
	C664.5,19.7,665.8,17.9,667.7,17.3z"/>
<path id="colorstyle:Critical_00000047028266816173285560000017608538030849575605_" fill="#F40000" d="M674,40.2v15.3l3.2,1
	c1.8,0.6,3.4,1.7,4.5,3.2s1.7,3.4,1.7,5.3H674c0-2.6-1.1-5-2.8-6.7c-0.9-1-2.1-1.7-3.4-2.2c-2-0.7-3.3-2.5-3.3-4.6V40.2H674
	L674,40.2z"/>
<path id="colorstyle:Critical_00000005225673075751185160000001603000541972947344_" fill="#F40000" d="M640,17.3
	c1.3-0.5,2.4-1.2,3.4-2.2c1.7-1.8,2.8-4.1,2.8-6.7h9.4c0,3.8-2.5,7.3-6.2,8.4l-3.2,1v15.3h-9.4V21.8C636.8,19.7,638.1,17.9,640,17.3
	z"/>
<path id="colorstyle:Critical_00000011718533991527931600000013708438883571759751_" fill="#F40000" d="M646.2,55.5l3.2,1
	c1.8,0.6,3.4,1.7,4.5,3.2s1.7,3.4,1.7,5.3h-9.3c0-2.6-1.1-5-2.8-6.7c-0.9-1-2.1-1.7-3.4-2.2c-2-0.7-3.3-2.5-3.3-4.6V40.2h9.4
	L646.2,55.5L646.2,55.5z"/>
<path id="colorstyle:Base_00000129916260729741335800000003538063029045621925_" fill="#1C0DFF" d="M612.3,17.3
	c1.3-0.5,2.4-1.2,3.4-2.2c1.7-1.8,2.8-4.1,2.8-6.7h9.4c0,3.8-2.5,7.3-6.2,8.4l-3.2,1v15.3h-9.4V21.8
	C609.1,19.7,610.4,17.9,612.3,17.3z"/>
<path id="colorstyle:Base_00000023243787526627823760000007205414870958753675_" fill="#1C0DFF" d="M618.6,40.2v15.3l3.2,1
	c1.8,0.6,3.4,1.7,4.5,3.2s1.7,3.4,1.7,5.3h-9.4c0-2.6-1.1-5-2.8-6.7c-0.9-1-2.1-1.7-3.4-2.2c-2-0.7-3.3-2.5-3.3-4.6V40.2H618.6
	L618.6,40.2z"/>
<path id="colorstyle:Base_00000088836260442171437430000006529346929299648416_" fill="#1C0DFF" d="M584.5,17.3
	c1.3-0.5,2.4-1.2,3.4-2.2c1.7-1.8,2.8-4.1,2.8-6.7h9.4c0,3.8-2.5,7.3-6.2,8.4l-3.2,1v15.3h-9.4V21.8
	C581.3,19.7,582.7,17.9,584.5,17.3z"/>
<path id="colorstyle:Base_00000181058996568675846430000000631265148094188200_" fill="#1C0DFF" d="M590.9,40.2v15.3l3.2,1
	c1.8,0.6,3.4,1.7,4.5,3.2s1.7,3.4,1.7,5.3h-9.4c0-2.6-1.1-5-2.8-6.7c-0.9-1-2.1-1.7-3.4-2.2c-2-0.7-3.3-2.5-3.3-4.6V40.2H590.9
	L590.9,40.2z"/>
<path id="colorstyle:Base_00000132082148541376214970000018423058203140767885_" fill="#1C0DFF" d="M556.8,17.3
	c1.3-0.5,2.4-1.2,3.4-2.2c1.7-1.8,2.8-4.1,2.8-6.7h9.4c0,3.8-2.5,7.3-6.2,8.4l-3.2,1v15.3h-9.4V21.8
	C553.6,19.7,554.9,17.9,556.8,17.3z"/>
<path id="colorstyle:Base_00000075137196976225820640000013319291478711111098_" fill="#1C0DFF" d="M563.2,40.2v15.3l3.2,1
	c1.8,0.6,3.4,1.7,4.5,3.2s1.7,3.4,1.7,5.3h-9.4c0-2.6-1.1-5-2.8-6.7c-0.9-1-2.1-1.7-3.4-2.2c-2-0.7-3.3-2.5-3.3-4.6V40.2H563.2
	L563.2,40.2z"/>
<path id="colorstyle:Base_00000178202658775021450570000000850876469931841176_" fill="#1C0DFF" d="M529.1,17.3
	c1.3-0.5,2.4-1.2,3.4-2.2c1.7-1.8,2.8-4.1,2.8-6.7h9.4c0,3.8-2.5,7.3-6.2,8.4l-3.2,1v15.3h-9.4V21.8
	C525.9,19.7,527.2,17.9,529.1,17.3z"/>
<path id="colorstyle:Base_00000007401933949508718930000017526390939704006302_" fill="#1C0DFF" d="M535.4,40.2v15.3l3.2,1
	c1.8,0.6,3.4,1.7,4.5,3.2s1.7,3.4,1.7,5.3h-9.4c0-2.6-1.1-5-2.8-6.7c-0.9-1-2.1-1.7-3.4-2.2c-2-0.7-3.3-2.5-3.3-4.6V40.2H535.4
	L535.4,40.2z"/>
<path id="colorstyle:Base_00000127738031040281754570000009152064993160648382_" fill="#1C0DFF" d="M501.4,17.3
	c1.3-0.5,2.4-1.2,3.4-2.2c1.7-1.8,2.8-4.1,2.8-6.7h9.4c0,3.8-2.5,7.3-6.2,8.4l-3.2,1v15.3h-9.4V21.8
	C498.2,19.7,499.5,17.9,501.4,17.3z"/>
<path id="colorstyle:Base_00000116217716061629829250000004116322285172670133_" fill="#1C0DFF" d="M507.7,40.2v15.3l3.2,1
	c1.8,0.6,3.4,1.7,4.5,3.2s1.7,3.4,1.7,5.3h-9.4c0-2.6-1.1-5-2.8-6.7c-0.9-1-2.1-1.7-3.4-2.2c-2-0.7-3.3-2.5-3.3-4.6V40.2H507.7
	L507.7,40.2z"/>
<path id="colorstyle:Base_00000155138944214881415300000014956548660707637400_" fill="#1C0DFF" d="M473.7,17.3
	c1.3-0.5,2.4-1.2,3.4-2.2c1.7-1.8,2.8-4.1,2.8-6.7h9.4c0,3.8-2.5,7.3-6.2,8.4l-3.2,1v15.3h-9.4V21.8
	C470.5,19.7,471.8,17.9,473.7,17.3z"/>
<path id="colorstyle:Base_00000088837072976593280000000017333723983161282744_" fill="#1C0DFF" d="M480,40.2v15.3l3.2,1
	c1.8,0.6,3.4,1.7,4.5,3.2s1.7,3.4,1.7,5.3H480c0-2.6-1.1-5-2.8-6.7c-0.9-1-2.1-1.7-3.4-2.2c-2-0.7-3.3-2.5-3.3-4.6V40.2H480
	L480,40.2z"/>
<path id="colorstyle:Base_00000070116681181435845000000002136751358576041391_" fill="#1C0DFF" d="M446,17.3
	c1.3-0.5,2.4-1.2,3.4-2.2c1.7-1.8,2.8-4.1,2.8-6.7h9.4c0,3.8-2.5,7.3-6.2,8.4l-3.2,1v15.3h-9.4V21.8C442.8,19.7,444.1,17.9,446,17.3
	z"/>
<path id="colorstyle:Base_00000051366584426488287880000011590736613819286403_" fill="#1C0DFF" d="M452.2,40.2v15.3l3.2,1
	c1.8,0.6,3.4,1.7,4.5,3.2s1.7,3.4,1.7,5.3h-9.3c0-2.6-1.1-5-2.8-6.7c-0.9-1-2.1-1.7-3.4-2.2c-2-0.7-3.3-2.5-3.3-4.6V40.2H452.2
	L452.2,40.2z"/>
<path id="colorstyle:Base_00000114762523790410681670000009015494266525053374_" fill="#1C0DFF" d="M418.3,17.3
	c1.3-0.5,2.4-1.2,3.4-2.2c1.7-1.8,2.8-4.1,2.8-6.7h9.4c0,3.8-2.5,7.3-6.2,8.4l-3.2,1v15.3h-9.4V21.8
	C415.1,19.7,416.4,17.9,418.3,17.3z"/>
<path id="colorstyle:Base_00000110430520022988794130000000171624147459308679_" fill="#1C0DFF" d="M424.6,40.2v15.3l3.2,1
	c1.8,0.6,3.4,1.7,4.5,3.2s1.7,3.4,1.7,5.3h-9.4c0-2.6-1.1-5-2.8-6.7c-0.9-1-2.1-1.7-3.4-2.2c-2-0.7-3.3-2.5-3.3-4.6V40.2H424.6
	L424.6,40.2z"/>
<path id="colorstyle:Base_00000155133114128511843760000013022704671114210718_" fill="#1C0DFF" d="M390.6,17.3
	c1.3-0.5,2.4-1.2,3.4-2.2c1.7-1.8,2.8-4.1,2.8-6.7h9.4c0,3.8-2.5,7.3-6.2,8.4l-3.2,1v15.3h-9.4V21.8
	C387.4,19.7,388.7,17.9,390.6,17.3z"/>
<path id="colorstyle:Base_00000010289886295136891620000006032388607817366947_" fill="#1C0DFF" d="M396.9,40.2v15.3l3.2,1
	c1.8,0.6,3.4,1.7,4.5,3.2s1.7,3.4,1.7,5.3h-9.4c0-2.6-1.1-5-2.8-6.7c-0.9-1-2.1-1.7-3.4-2.2c-2-0.7-3.3-2.5-3.3-4.6V40.2H396.9
	L396.9,40.2z"/>
<path id="colorstyle:Base_00000005975427660749447150000016574302777893453503_" fill="#1C0DFF" d="M362.9,17.3
	c1.3-0.5,2.4-1.2,3.4-2.2c1.7-1.8,2.8-4.1,2.8-6.7h9.4c0,3.8-2.5,7.3-6.2,8.4l-3.2,1v15.3h-9.4V21.8C359.7,19.7,361,17.9,362.9,17.3
	z"/>
<path id="colorstyle:Base_00000134228186236154067170000004172391488410417314_" fill="#1C0DFF" d="M369.2,40.2v15.3l3.2,1
	c1.8,0.6,3.4,1.7,4.5,3.2s1.7,3.4,1.7,5.3h-9.4c0-2.6-1.1-5-2.8-6.7c-0.9-1-2.1-1.7-3.4-2.2c-2-0.7-3.3-2.5-3.3-4.6V40.2H369.2
	L369.2,40.2z"/>
<path id="colorstyle:Base_00000059281555734544304400000006170418179019749267_" fill="#1C0DFF" d="M335.1,17.3
	c1.3-0.5,2.4-1.2,3.4-2.2c1.7-1.8,2.8-4.1,2.8-6.7h9.4c0,3.8-2.5,7.3-6.2,8.4l-3.2,1v15.3h-9.4V21.8
	C331.9,19.7,333.3,17.9,335.1,17.3z"/>
<path id="colorstyle:Base_00000151537883540253388790000016905142564846573203_" fill="#1C0DFF" d="M341.5,40.2v15.3l3.2,1
	c1.8,0.6,3.4,1.7,4.5,3.2s1.7,3.4,1.7,5.3h-9.4c0-2.6-1.1-5-2.8-6.7c-0.9-1-2.1-1.7-3.4-2.2c-2-0.7-3.3-2.5-3.3-4.6V40.2H341.5
	L341.5,40.2z"/>
<path id="colorstyle:Base_00000087380347083200208700000005475680574590126526_" fill="#1C0DFF" d="M307.4,17.3
	c1.3-0.5,2.4-1.2,3.4-2.2c1.7-1.8,2.8-4.1,2.8-6.7h9.4c0,3.8-2.5,7.3-6.2,8.4l-3.2,1v15.3h-9.4V21.8
	C304.2,19.7,305.5,17.9,307.4,17.3z"/>
<path id="colorstyle:Base_00000008121063061156983800000007655219495637429935_" fill="#1C0DFF" d="M313.8,40.2v15.3l3.2,1
	c1.8,0.6,3.4,1.7,4.5,3.2s1.7,3.4,1.7,5.3h-9.4c0-2.6-1.1-5-2.8-6.7c-0.9-1-2.1-1.7-3.4-2.2c-2-0.7-3.3-2.5-3.3-4.6V40.2H313.8
	L313.8,40.2z"/>
<path id="colorstyle:Base_00000067937249538022209060000007635363723549119934_" fill="#1C0DFF" d="M279.7,17.3
	c1.3-0.5,2.4-1.2,3.4-2.2c1.7-1.8,2.8-4.1,2.8-6.7h9.4c0,3.8-2.5,7.3-6.2,8.4l-3.2,1v15.3h-9.4V21.8
	C276.5,19.7,277.8,17.9,279.7,17.3z"/>
<path id="colorstyle:Base_00000017485001579180724560000005015711437044001724_" fill="#1C0DFF" d="M286,40.2v15.3l3.2,1
	c1.8,0.6,3.4,1.7,4.5,3.2s1.7,3.4,1.7,5.3H286c0-2.6-1.1-5-2.8-6.7c-0.9-1-2.1-1.7-3.4-2.2c-2-0.7-3.3-2.5-3.3-4.6V40.2H286
	L286,40.2z"/>
<path id="colorstyle:Base_00000058562516669575579440000003400849645633651100_" fill="#1C0DFF" d="M252,17.3
	c1.3-0.5,2.4-1.2,3.4-2.2c1.7-1.8,2.8-4.1,2.8-6.7h9.4c0,3.8-2.5,7.3-6.2,8.4l-3.2,1v15.3h-9.4V21.8C248.8,19.7,250.1,17.9,252,17.3
	z"/>
<path id="colorstyle:Base_00000033352482494134039100000013654324007557684363_" fill="#1C0DFF" d="M258.3,40.2v15.3l3.2,1
	c1.8,0.6,3.4,1.7,4.5,3.2s1.7,3.4,1.7,5.3h-9.4c0-2.6-1.1-5-2.8-6.7c-0.9-1-2.1-1.7-3.4-2.2c-2-0.7-3.3-2.5-3.3-4.6V40.2H258.3
	L258.3,40.2z"/>
<path id="colorstyle:Base_00000135680987882333272520000018035399917005188760_" fill="#1C0DFF" d="M224.3,17.3
	c1.3-0.5,2.4-1.2,3.4-2.2c1.7-1.8,2.8-4.1,2.8-6.7h9.4c0,3.8-2.5,7.3-6.2,8.4l-3.2,1v15.3h-9.4V21.8
	C221.1,19.7,222.4,17.9,224.3,17.3z"/>
<path id="colorstyle:Base_00000039837222360711354900000001247565193650262441_" fill="#1C0DFF" d="M230.6,40.2v15.3l3.2,1
	c1.8,0.6,3.4,1.7,4.5,3.2s1.7,3.4,1.7,5.3h-9.4c0-2.6-1.1-5-2.8-6.7c-0.9-1-2.1-1.7-3.4-2.2c-2-0.7-3.3-2.5-3.3-4.6V40.2H230.6
	L230.6,40.2z"/>
<path id="colorstyle:Base_00000111150017481998609170000011950000005902010530_" fill="#1C0DFF" d="M196.6,17.3
	c1.3-0.5,2.4-1.2,3.4-2.2c1.7-1.8,2.8-4.1,2.8-6.7h9.4c0,3.8-2.5,7.3-6.2,8.4l-3.2,1v15.3h-9.4V21.8
	C193.4,19.7,194.7,17.9,196.6,17.3z"/>
<path id="colorstyle:Base_00000142869876694336892080000010916915533682377397_" fill="#1C0DFF" d="M202.9,40.2v15.3l3.2,1
	c1.8,0.6,3.4,1.7,4.5,3.2s1.7,3.4,1.7,5.3h-9.4c0-2.6-1.1-5-2.8-6.7c-0.9-1-2.1-1.7-3.4-2.2c-2-0.7-3.3-2.5-3.3-4.6V40.2H202.9
	L202.9,40.2z"/>
<path id="colorstyle:Positive_00000141447087738795218140000007863088872936287368_" fill="#19DB67" d="M169.5,17.3
	c1.3-0.5,2.4-1.2,3.4-2.2c1.7-1.8,2.8-4.1,2.8-6.7h9.4c0,3.8-2.5,7.3-6.2,8.4l-3.2,1v15.3h-9.4V21.8
	C166.3,19.7,167.6,17.9,169.5,17.3z"/>
<path id="colorstyle:Positive_00000062905382391273616280000016895055638929617818_" fill="#19DB67" d="M175.8,40.2v15.3l3.2,1
	c1.8,0.6,3.4,1.7,4.5,3.2s1.7,3.4,1.7,5.3h-9.4c0-2.6-1.1-5-2.8-6.7c-0.9-1-2.1-1.7-3.4-2.2c-2-0.7-3.3-2.5-3.3-4.6V40.2H175.8
	L175.8,40.2z"/>
<path id="colorstyle:Positive_00000098181730765011975550000017947840668512006552_" fill="#19DB67" d="M30.9,17.3
	c1.3-0.5,2.4-1.2,3.4-2.2c1.7-1.8,2.8-4.1,2.8-6.7h9.4c0,3.8-2.5,7.3-6.2,8.4l-3.2,1v15.3h-9.4V21.8C27.7,19.7,29,17.9,30.9,17.3z"
	/>
<path id="colorstyle:Positive_00000169554969954335580020000006743883868106732727_" fill="#19DB67" d="M37.2,40.2v15.3l3.2,1
	c1.8,0.6,3.4,1.7,4.5,3.2s1.7,3.4,1.7,5.3h-9.4c0-2.6-1.1-5-2.8-6.7c-0.9-1-2.1-1.7-3.4-2.2c-2-0.7-3.3-2.5-3.3-4.6V40.2H37.2
	L37.2,40.2z"/>
<path id="colorstyle:Positive_00000072959940157423224350000013429478914158765708_" fill="#19DB67" d="M3.2,17.3
	c1.3-0.5,2.4-1.2,3.4-2.2c1.7-1.8,2.8-4.1,2.8-6.7h9.4c0,3.8-2.5,7.3-6.2,8.4l-3.2,1v15.3H0V21.8C0,19.7,1.3,17.9,3.2,17.3z"/>
<path id="colorstyle:Positive_00000181801619326066825390000011909903108576307377_" fill="#19DB67" d="M9.5,40.2v15.3l3.2,1
	c1.8,0.6,3.4,1.7,4.5,3.2s1.7,3.4,1.7,5.3H9.5c0-2.6-1.1-5-2.8-6.7c-0.9-1-2.1-1.7-3.4-2.2c-2-0.7-3.3-2.5-3.3-4.6V40.2h9.4H9.5z"/>
<path id="colorstyle:Positive_00000093165827535817064320000009116329513930836136_" fill="#19DB67" d="M86.3,17.3
	c1.3-0.5,2.4-1.2,3.4-2.2c1.7-1.8,2.8-4.1,2.8-6.7h9.4c0,3.8-2.5,7.3-6.2,8.4l-3.2,1v15.3h-9.4V21.8C83.1,19.7,84.4,17.9,86.3,17.3z
	"/>
<path id="colorstyle:Positive_00000033332762148407894990000015873342642229539718_" fill="#19DB67" d="M92.7,40.2v15.3l3.2,1
	c1.8,0.6,3.4,1.7,4.5,3.2s1.7,3.4,1.7,5.3h-9.4c0-2.6-1.1-5-2.8-6.7c-0.9-1-2.1-1.7-3.4-2.2c-2-0.7-3.3-2.5-3.3-4.6V40.2h9.4H92.7z"
	/>
<path id="colorstyle:Positive_00000094610525876578498490000002150124926407034256_" fill="#19DB67" d="M58.6,17.3
	c1.3-0.5,2.4-1.2,3.4-2.2c1.7-1.8,2.8-4.1,2.8-6.7h9.4c0,3.8-2.5,7.3-6.2,8.4l-3.2,1v15.3h-9.4V21.8C55.4,19.7,56.7,17.9,58.6,17.3z
	"/>
<path id="colorstyle:Positive_00000103985687968478922300000012114247335831739048_" fill="#19DB67" d="M64.9,40.2v15.3l3.2,1
	c1.8,0.6,3.4,1.7,4.5,3.2s1.7,3.4,1.7,5.3h-9.4c0-2.6-1.1-5-2.8-6.7c-0.9-1-2.1-1.7-3.4-2.2c-2-0.7-3.3-2.5-3.3-4.6V40.2h9.4H64.9z"
	/>
<path id="colorstyle:Positive_00000041982625304611550050000005009829207493572263_" fill="#19DB67" d="M141.8,17.3
	c1.3-0.5,2.4-1.2,3.4-2.2c1.7-1.8,2.8-4.1,2.8-6.7h9.4c0,3.8-2.5,7.3-6.2,8.4l-3.2,1v15.3h-9.4V21.8
	C138.6,19.7,139.9,17.9,141.8,17.3z"/>
<path id="colorstyle:Positive_00000060713831123960080680000011554021622566450333_" fill="#19DB67" d="M148.1,40.2v15.3l3.2,1
	c1.8,0.6,3.4,1.7,4.5,3.2s1.7,3.4,1.7,5.3h-9.4c0-2.6-1.1-5-2.8-6.7c-0.9-1-2.1-1.7-3.4-2.2c-2-0.7-3.3-2.5-3.3-4.6V40.2H148.1
	L148.1,40.2z"/>
<path id="colorstyle:Positive_00000075130622911631741370000006443862327111159686_" fill="#19DB67" d="M114,17.3
	c1.3-0.5,2.4-1.2,3.4-2.2c1.7-1.8,2.8-4.1,2.8-6.7h9.4c0,3.8-2.5,7.3-6.2,8.4l-3.2,1v15.3h-9.4V21.8C110.8,19.7,112.2,17.9,114,17.3
	z"/>
<path id="colorstyle:Positive_00000085969759359321512980000001402371710585850535_" fill="#19DB67" d="M120.4,40.2v15.3l3.2,1
	c1.8,0.6,3.4,1.7,4.5,3.2s1.7,3.4,1.7,5.3h-9.4c0-2.6-1.1-5-2.8-6.7c-0.9-1-2.1-1.7-3.4-2.2c-2-0.7-3.3-2.5-3.3-4.6V40.2H120.4
	L120.4,40.2z"/>
</svg>
