<?xml version="1.0" encoding="utf-8"?>
<!-- Generator: Adobe Illustrator 27.8.0, SVG Export Plug-In . SVG Version: 6.00 Build 0)  -->
<svg version="1.1" baseProfile="tiny" id="Layer_1" xmlns="http://www.w3.org/2000/svg" xmlns:xlink="http://www.w3.org/1999/xlink"
	 x="0px" y="0px" viewBox="0 0 210.5 36.7" overflow="visible" xml:space="preserve">
<path id="opacity:100_colorstyle:Critical" fill="#FF002E" d="M210.6,18.4c0,10.1-8.2,18.4-18.4,18.4c-5.8,0-10.9-2.7-14.3-6.9
	c-2-2.5-5.1-3.9-8.3-3.9H40.9c-3.2,0-6.2,1.5-8.3,4c-3.3,4.1-8.3,6.7-14,6.8C8.3,37-0.2,28.5,0,18.1c0.2-10,8.3-18,18.4-18
	c5.8,0,10.9,2.7,14.3,6.9c2,2.5,5.1,3.9,8.3,3.9h128.7c3.2,0,6.3-1.4,8.3-3.9c3.3-4.3,8.5-7,14.2-7C202.4,0,210.6,8.2,210.6,18.4z"
	/>
</svg>
