<?xml version="1.0" encoding="utf-8"?>
<!-- Generator: Adobe Illustrator 27.8.0, SVG Export Plug-In . SVG Version: 6.00 Build 0)  -->
<svg version="1.1" baseProfile="tiny" id="Layer_1" xmlns="http://www.w3.org/2000/svg" xmlns:xlink="http://www.w3.org/1999/xlink"
	 x="0px" y="0px" viewBox="0 0 144.1 938" overflow="visible" xml:space="preserve">
<path id="opacity:2_colorstyle:Base" fill="#6CB8C7" d="M109.3,918.1H34.8c-7.9,0-14.3-6.4-14.3-14.3V572.3h17.4
	c5.4,0,9.8-4.4,9.8-9.8V378.3c0-5.4-4.4-9.8-9.8-9.8H20.5V37.2c0-7.9,6.4-14.3,14.3-14.3h74.5c7.9,0,14.3,6.4,14.3,14.3v866.6
	C123.6,911.6,117.2,918.1,109.3,918.1z"/>
<path id="opacity:100_colorstyle:Base" fill="#6CB8C7" d="M3.6,905.5c2,0,3.6,1.6,3.6,3.6c0,12.1,9.8,21.9,21.9,21.9h86
	c12.1,0,21.9-9.8,21.9-21.9c0-2,1.6-3.6,3.6-3.6c2,0,3.5,1.6,3.5,3.6c0,16-13,29-29,29H29c-16,0-29-13-29-29
	C0.1,907.1,1.6,905.5,3.6,905.5z"/>
<path id="opacity:100_colorstyle:Base_00000063622521759429965970000015031756369171481999_" fill="#6CB8C7" d="M29,0h86
	c16,0,29,13,29,29c0,2-1.6,3.6-3.6,3.6c-2,0-3.6-1.6-3.6-3.6c0-12.1-9.8-21.9-21.9-21.9H29C16.9,7.1,7.1,16.9,7.1,29
	c0,2-1.6,3.6-3.6,3.6S0,31,0,29C0.1,13,13.1,0,29,0z"/>
<path id="opacity:15_colorstyle:Accent2" fill="#6CB8C7" d="M7.2,47.6v320.9H0.1V47.6c0-2,1.6-3.6,3.6-3.6C5.6,44,7.2,45.6,7.2,47.6
	z"/>
<path id="opacity:15_colorstyle:Accent2_00000030473621210686031400000000198578810238475681_" fill="#6CB8C7" d="M3.6,896.8
	c-2,0-3.6-1.6-3.6-3.6V572.3h7.1v320.9C7.2,895.2,5.6,896.8,3.6,896.8z"/>
</svg>
