<?xml version="1.0" encoding="utf-8"?>
<!-- Generator: Adobe Illustrator 27.8.0, SVG Export Plug-In . SVG Version: 6.00 Build 0)  -->
<svg version="1.1" baseProfile="tiny" id="Layer_1" xmlns="http://www.w3.org/2000/svg" xmlns:xlink="http://www.w3.org/1999/xlink"
	 x="0px" y="0px" viewBox="0 0 2582.9 493.2" overflow="visible" xml:space="preserve">
<path id="opacity:2_colorstyle:Base" fill="#6CB8C7" d="M2514.5,119v255c0,27.1-22,49.1-49.1,49.1h-820.3v-52.5
	c0-18.5-15-33.5-33.5-33.5H981c-18.5,0-33.5,15-33.5,33.5v52.5H127.2c-27.1,0-49.1-22-49.1-49.1V119c0-27.1,22-49.1,49.1-49.1
	h2338.2C2492.5,69.9,2514.5,91.9,2514.5,119z"/>
<path id="opacity:100_colorstyle:Base" fill="#6CB8C7" d="M2471.5,480.8c0-6.7,5.4-12.2,12.2-12.2c41.3,0,74.9-33.6,74.9-74.9V99.2
	c0-41.3-33.6-74.9-74.9-74.9c-6.7,0-12.2-5.4-12.2-12.2S2477,0,2483.7,0c54.7,0,99.2,44.5,99.2,99.2v294.6
	c0,54.7-44.5,99.2-99.2,99.2C2477,493,2471.5,487.6,2471.5,480.8z"/>
<path id="opacity:100_colorstyle:Base_00000063622521759429965970000015031756369171481999_" fill="#6CB8C7" d="M0,393.8V99.2
	C0,44.5,44.5,0,99.2,0c6.7,0,12.2,5.4,12.2,12.2S106,24.4,99.2,24.4c-41.3,0-74.9,33.6-74.9,74.9v294.6c0,41.3,33.6,74.9,74.9,74.9
	c6.7,0,12.2,5.4,12.2,12.2s-5.4,12.2-12.2,12.2C44.5,493,0,448.5,0,393.8z"/>
<path id="opacity:15_colorstyle:Accent2" fill="#6CB8C7" d="M163,468.6h784.4V493H163c-6.8,0-12.2-5.4-12.2-12.2
	C150.8,474.1,156.2,468.6,163,468.6z"/>
<path id="opacity:15_colorstyle:Accent2_00000030473621210686031400000000198578810238475681_" fill="#6CB8C7" d="M2441.8,480.8
	c0,6.8-5.5,12.2-12.2,12.2h-784.4v-24.4h784.4C2436.3,468.6,2441.8,474,2441.8,480.8z"/>
</svg>
