<?xml version="1.0" encoding="utf-8"?>
<!-- Generator: Adobe Illustrator 27.8.0, SVG Export Plug-In . SVG Version: 6.00 Build 0)  -->
<svg version="1.1" baseProfile="tiny" id="AA" xmlns="http://www.w3.org/2000/svg" xmlns:xlink="http://www.w3.org/1999/xlink"
	 x="0px" y="0px" viewBox="0 0 1127.3 73.3" overflow="visible" xml:space="preserve">
<rect id="opacity:5_colorstyle:Accent1_00000137834411385808304710000003157817370604116613_" x="557.6" y="-557.6" transform="matrix(-1.836970e-16 1 -1 -1.836970e-16 569.7379 -557.5621)" fill="#6CB8C7" width="12.2" height="1127.3"/>
<rect id="opacity:25_colorstyle:Accent1" x="546.7" y="-527" transform="matrix(-1.836970e-16 1 -1 -1.836970e-16 600.2999 -527.0001)" fill="#6CB8C7" width="34" height="1127.3"/>
<rect id="opacity:5_colorstyle:Accent1" x="557.6" y="-496.4" transform="matrix(-1.836970e-16 1 -1 -1.836970e-16 630.8621 -496.438)" fill="#6CB8C7" width="12.2" height="1127.3"/>
<rect id="opacity:100_colorstyle:Base_00000145030400029701603230000003066772298368862870_" x="559.9" y="-506.3" transform="matrix(-1.836970e-16 1 -1 -1.836970e-16 621.0276 -506.2724)" fill="#63F6FF" width="7.5" height="1127.3"/>
<rect id="opacity:100_colorstyle:Base" x="559.9" y="-547.7" transform="matrix(-1.836970e-16 1 -1 -1.836970e-16 579.5723 -547.7278)" fill="#63F6FF" width="7.5" height="1127.3"/>
</svg>
