<?xml version="1.0" encoding="utf-8"?>
<!-- Generator: Adobe Illustrator 26.5.0, SVG Export Plug-In . SVG Version: 6.00 Build 0)  -->
<svg version="1.1" baseProfile="tiny" id="Layer_1" xmlns="http://www.w3.org/2000/svg" xmlns:xlink="http://www.w3.org/1999/xlink"
	 x="0px" y="0px" viewBox="0 0 93.8 19.7" overflow="visible" xml:space="preserve">
<g id="Corner_1_00000005246427189715671120000004892870893787130259_">
	<path d="M8.4,0.2v0.5H0.7c0,0,0,0,0,0v7.7H0.2V0.7C0.1,0.6,0,0.5,0,0.4C0,0.2,0.2,0,0.4,0c0.1,0,0.2,0.1,0.3,0.2H8.4z"/>
</g>
<g id="Corner_2_00000137114554769767441280000013336367389693837985_">
	<path d="M93.8,0.4c0,0.1-0.1,0.2-0.1,0.3v7.7h-0.5V0.7c0,0,0,0-0.1,0h-7.7V0.2h7.7C93.2,0.1,93.3,0,93.4,0
		C93.6,0,93.8,0.2,93.8,0.4z"/>
</g>
<g id="Corner_3_00000006698957014599648610000014910110687232851629_">
	<path d="M8.4,19v0.5H0.7c-0.1,0.1-0.2,0.2-0.3,0.2c-0.2,0-0.4-0.2-0.4-0.4c0-0.1,0.1-0.2,0.2-0.3v-7.7h0.5V19c0,0,0,0,0,0H8.4z"/>
</g>
<g id="Corner_4_00000073683056877286056040000012785810501632313222_">
	<path d="M93.8,19.3c0,0.2-0.2,0.4-0.4,0.4c-0.1,0-0.2-0.1-0.3-0.2h-7.7V19h7.7c0,0,0,0,0.1,0v-7.7h0.5V19
		C93.7,19.1,93.8,19.2,93.8,19.3z"/>
</g>
</svg>
