<?xml version="1.0" encoding="utf-8"?>
<!-- Generator: Adobe Illustrator 26.5.0, SVG Export Plug-In . SVG Version: 6.00 Build 0)  -->
<svg version="1.1" baseProfile="tiny" id="Layer_1" xmlns="http://www.w3.org/2000/svg" xmlns:xlink="http://www.w3.org/1999/xlink"
	 x="0px" y="0px" viewBox="0 0 79.2 7.6" overflow="visible" xml:space="preserve">
<path fill="none" stroke="#6CB8C7" stroke-width="0.5" stroke-miterlimit="10" d="M0.2,1.3V0.7c0-0.3,0.2-0.5,0.5-0.5h77.8
	c0.3,0,0.5,0.2,0.5,0.5v0.6"/>
<path fill="none" stroke="#6CB8C7" stroke-width="0.5" stroke-miterlimit="10" d="M79,6.3v0.6c0,0.3-0.2,0.5-0.5,0.5H0.7
	c-0.3,0-0.5-0.2-0.5-0.5V6.3"/>
<path fill="none" stroke="#24373A" stroke-width="0.5" stroke-miterlimit="10" d="M3,6.3H1.4c-0.1,0-0.1-0.1-0.1-0.1V1.4
	c0-0.1,0.1-0.1,0.1-0.1H3c0.1,0,0.1,0.1,0.1,0.1v4.7C3.2,6.2,3.1,6.3,3,6.3z"/>
<path fill="none" stroke="#24373A" stroke-width="0.5" stroke-miterlimit="10" d="M77.8,6.3h-1.6c-0.1,0-0.1-0.1-0.1-0.1V1.4
	c0-0.1,0.1-0.1,0.1-0.1h1.6c0.1,0,0.1,0.1,0.1,0.1v4.7C77.9,6.2,77.9,6.3,77.8,6.3z"/>
</svg>
