<?xml version="1.0" encoding="utf-8"?>
<!-- Generator: Adobe Illustrator 28.7.10, SVG Export Plug-In . SVG Version: 9.03 Build 57640)  -->
<svg version="1.1" baseProfile="tiny" id="Layer_1" xmlns="http://www.w3.org/2000/svg" xmlns:xlink="http://www.w3.org/1999/xlink"
	 x="0px" y="0px" viewBox="0 0 448.7 280.1" overflow="visible" xml:space="preserve">
<polyline id="opacity:30_00000005976249011627940830000016565370694856809105_" fill="none" stroke="#AAA6D4" stroke-miterlimit="10" points="
	326,36.6 356.6,5.9 425.9,5.9 430.7,10.8 "/>
<line id="opacity:30_00000125579306830781285120000003675892002565300903_" fill="none" stroke="#AAA6D4" stroke-width="1.5" stroke-miterlimit="10" x1="428.7" y1="8.8" x2="430.7" y2="10.8"/>
<polyline id="opacity:30_00000053522218979176119880000000933968148529378947_" fill="none" stroke="#AAA6D4" stroke-width="1.5" stroke-miterlimit="10" points="
	359.4,5.9 356.6,5.9 354.6,7.9 "/>
<polyline id="opacity:30_00000115511181356162777090000000229724013151700414_" fill="none" stroke="#AAA6D4" stroke-miterlimit="10" points="
	326,243 356.6,273.6 425.9,273.6 430.7,268.8 "/>
<line id="opacity:30_00000005245310140754042980000009075539398326329986_" fill="none" stroke="#AAA6D4" stroke-width="1.5" stroke-miterlimit="10" x1="428.7" y1="270.8" x2="430.7" y2="268.8"/>
<polyline id="opacity:30_00000124857509881216062820000016160105059901869724_" fill="none" stroke="#AAA6D4" stroke-width="1.5" stroke-miterlimit="10" points="
	359.4,273.6 356.6,273.6 354.6,271.6 "/>
<polyline id="opacity:30_00000120541001003048360580000016074627258031740558_" fill="none" stroke="#AAA6D4" stroke-miterlimit="10" points="
	119.6,36.6 89,5.9 19.7,5.9 14.9,10.8 "/>
<line id="opacity:30_00000102505246429831883860000014776631025085611949_" fill="none" stroke="#AAA6D4" stroke-width="1.5" stroke-miterlimit="10" x1="16.9" y1="8.8" x2="14.9" y2="10.8"/>
<polyline id="opacity:30_00000048489530200222465870000006245704381811788423_" fill="none" stroke="#AAA6D4" stroke-width="1.5" stroke-miterlimit="10" points="
	86.2,5.9 89,5.9 91,7.9 "/>
<polyline id="opacity:30_00000066498479280887383240000007252780967184221569_" fill="none" stroke="#AAA6D4" stroke-miterlimit="10" points="
	119.6,243 89,273.6 19.7,273.6 14.9,268.8 "/>
<line id="opacity:30_00000093171204435803697070000007702333970971460245_" fill="none" stroke="#AAA6D4" stroke-width="1.5" stroke-miterlimit="10" x1="16.9" y1="270.8" x2="14.9" y2="268.8"/>
<polyline id="opacity:30" fill="none" stroke="#AAA6D4" stroke-width="1.5" stroke-miterlimit="10" points="86.2,273.6 89,273.6 
	91,271.6 "/>
</svg>
