<?xml version="1.0" encoding="utf-8"?>
<!-- Generator: Adobe Illustrator 28.7.8, SVG Export Plug-In . SVG Version: 9.03 Build 56881)  -->
<svg version="1.1" baseProfile="tiny" id="Layer_1" xmlns="http://www.w3.org/2000/svg" xmlns:xlink="http://www.w3.org/1999/xlink"
	 x="0px" y="0px" viewBox="0 0 381.2 737.7" overflow="visible" xml:space="preserve">
<polygon id="opacity:30_colorstyle:Base_00000080204852229581117430000009689338275679985070_" fill="#AAA6D4" points="323.2,59.8 
	315,51.6 315,25.9 323.2,17.7 323.9,18.4 316,26.3 316,51.2 323.9,59.1 "/>
<rect id="opacity:40_colorstyle:Base_00000075858776622888064820000015376527432808980119_" x="321.1" y="18.3" transform="matrix(0.7071 -0.7071 0.7071 0.7071 80.9812 233.6564)" fill="#AAA6D4" width="2.8" height="1.5"/>
<rect id="opacity:40_colorstyle:Base_00000132768374842655519530000005981991728156248709_" x="321.8" y="57" transform="matrix(0.7071 -0.7071 0.7071 0.7071 53.18 245.2112)" fill="#AAA6D4" width="1.5" height="2.8"/>
<polygon id="opacity:30_colorstyle:Base_00000121277225694054940290000010636821350695818418_" fill="#AAA6D4" points="323.2,719.2 
	315,711 315,685.3 323.2,677.2 323.9,677.9 316,685.7 316,710.6 323.9,718.5 "/>
<rect id="opacity:40_colorstyle:Base_00000124131658850511670780000011006106940175100812_" x="321.1" y="677.8" transform="matrix(0.7071 -0.7071 0.7071 0.7071 -385.3202 426.8047)" fill="#AAA6D4" width="2.8" height="1.5"/>
<rect id="opacity:40_colorstyle:Base_00000087412671745744432960000002139564396835853975_" x="321.8" y="716.5" transform="matrix(0.7071 -0.7071 0.7071 0.7071 -413.1217 438.3597)" fill="#AAA6D4" width="1.5" height="2.8"/>
<polygon id="opacity:30_colorstyle:Base_00000183210972335157104320000000312376619121263788_" fill="#AAA6D4" points="15.9,360.7 
	15,360.5 43.4,248.5 61.3,234.6 61.9,235.4 44.2,249.1 "/>
<rect id="opacity:40_colorstyle:Base_00000137824838889047648170000001596346900927181723_" x="59.1" y="235.1" transform="matrix(0.7898 -0.6134 0.6134 0.7898 -131.9473 86.68)" fill="#AAA6D4" width="2.8" height="1.5"/>
<polygon id="opacity:40_colorstyle:Base_00000088811982968989154070000013054483150084638910_" fill="#AAA6D4" points="43.8,251.7 
	42.4,251.4 43.1,248.4 45.6,246.5 46.5,247.7 44.5,249.3 "/>
<rect id="opacity:40_colorstyle:Base_00000167358780141117433440000012043759381780465554_" x="14.4" y="358.5" transform="matrix(0.2468 -0.9691 0.9691 0.2468 -336.2346 285.8934)" fill="#AAA6D4" width="2.8" height="1.5"/>
<polygon id="opacity:20_colorstyle:Base_00000113347381072855282190000013756576787159031440_" fill="#AAA6D4" points="8.6,360.7 
	7.6,360.5 36,248.5 53.9,234.6 54.6,235.4 36.9,249.1 "/>
<rect id="opacity:40_colorstyle:Base_00000008858997877427858390000010112988406304794027_" x="51.7" y="235.1" transform="matrix(0.7898 -0.6134 0.6134 0.7898 -133.4951 82.1634)" fill="#AAA6D4" width="2.8" height="1.5"/>
<rect id="opacity:40_colorstyle:Base_00000166647160986212455850000002763733280666773930_" x="7" y="358.5" transform="matrix(0.2468 -0.9691 0.9691 0.2468 -341.781 278.7573)" fill="#AAA6D4" width="2.8" height="1.5"/>
<polygon id="opacity:10_colorstyle:Base_00000161625877844044192790000014808884618122159251_" fill="#AAA6D4" points="1.2,360.7 
	0.2,360.5 28.6,248.5 46.6,234.6 47.2,235.4 29.5,249.1 "/>
<rect id="opacity:40_colorstyle:Base_00000067218637673066869380000014383677047050430651_" x="44.4" y="235.1" transform="matrix(0.7898 -0.6134 0.6134 0.7898 -135.043 77.6465)" fill="#AAA6D4" width="2.8" height="1.5"/>
<rect id="opacity:40_colorstyle:Base_00000006708309510757191840000016581506519058514564_" x="-0.3" y="358.5" transform="matrix(0.2468 -0.9691 0.9691 0.2468 -347.3276 271.6208)" fill="#AAA6D4" width="2.8" height="1.5"/>
<polygon id="opacity:30_colorstyle:Base_00000049943350184719122730000013864363305003478678_" fill="#AAA6D4" points="61.3,503.1 
	43.4,489.1 43.3,489 15,377.2 15.9,376.9 44.2,488.6 61.9,502.3 "/>
<rect id="opacity:40_colorstyle:Base_00000036958474500547348290000005564216414621795492_" x="59.7" y="500.4" transform="matrix(0.6133 -0.7899 0.7899 0.6133 -372.9662 241.8378)" fill="#AAA6D4" width="1.5" height="2.8"/>
<polygon id="opacity:40_colorstyle:Base_00000078006769968515795050000011901014052868442538_" fill="#AAA6D4" points="45.6,491.2 
	43.1,489.3 42.4,486.3 43.8,485.9 44.5,488.4 46.5,490 "/>
<rect id="opacity:40_colorstyle:Base_00000100346658990757352260000006928202850027868837_" x="15.1" y="377" transform="matrix(0.969 -0.247 0.247 0.969 -92.9723 15.6262)" fill="#AAA6D4" width="1.5" height="2.8"/>
<polygon id="opacity:20_colorstyle:Base_00000093170238442825269670000014628454307604375472_" fill="#AAA6D4" points="53.9,503.1 
	36,489.1 35.9,489 7.6,377.2 8.6,376.9 36.9,488.6 54.6,502.3 "/>
<rect id="opacity:40_colorstyle:Base_00000091013052396040939880000006966919984077018520_" x="52.4" y="500.4" transform="matrix(0.6133 -0.7899 0.7899 0.6133 -375.8138 236.0214)" fill="#AAA6D4" width="1.5" height="2.8"/>
<rect id="opacity:40_colorstyle:Base_00000046323558830158223410000012074304190301014461_" x="7.7" y="377" transform="matrix(0.9691 -0.2468 0.2468 0.9691 -93.1392 13.7903)" fill="#AAA6D4" width="1.5" height="2.8"/>
<polygon id="opacity:10_colorstyle:Base_00000013151615235944156760000007653322449750227902_" fill="#AAA6D4" points="46.6,503.1 
	28.6,489.1 28.6,489 0.2,377.2 1.2,376.9 29.5,488.6 47.2,502.3 "/>
<rect id="opacity:40_colorstyle:Base_00000008128030066559523800000001234622572966269322_" x="45" y="500.4" transform="matrix(0.6133 -0.7899 0.7899 0.6133 -378.6616 230.2047)" fill="#AAA6D4" width="1.5" height="2.8"/>
<rect id="opacity:40_colorstyle:Base_00000111906969416688259870000003415522969600512395_" x="0.3" y="377" transform="matrix(0.9691 -0.2468 0.2468 0.9691 -93.367 11.9727)" fill="#AAA6D4" width="1.5" height="2.8"/>
<polygon id="opacity:30_colorstyle:Base_00000114795995497844352490000013484830786456658054_" fill="#AAA6D4" points="83.1,195.2 
	82.1,194.8 170.1,5.9 192.2,0.2 192.4,1.2 170.8,6.7 "/>
<rect id="opacity:40_colorstyle:Base_00000049907867791876950370000001317242819822954631_" x="189.5" y="0.3" transform="matrix(0.9689 -0.2474 0.2474 0.9689 5.671 47.2755)" fill="#AAA6D4" width="2.8" height="1.5"/>
<polygon id="opacity:40_colorstyle:Base_00000096745912998665852370000014688359147097549238_" fill="#AAA6D4" points="169.9,9.2 
	168.6,8.5 169.9,5.7 173,4.9 173.4,6.3 171,6.9 "/>
<rect id="opacity:40_colorstyle:Base_00000070076248283273424030000013816636576274079123_" x="81.8" y="193" transform="matrix(0.422 -0.9066 0.9066 0.422 -127.5351 187.3861)" fill="#AAA6D4" width="2.8" height="1.5"/>
<rect id="opacity:20_colorstyle:Base_00000024685268076604894070000003267749451158611384_" x="15.9" y="101.2" transform="matrix(0.4236 -0.9058 0.9058 0.4236 -23.5508 166.2951)" fill="#AAA6D4" width="206.1" height="1"/>
<rect id="opacity:40_colorstyle:Base_00000102540093418674066980000013974169427503732115_" x="74.4" y="193" transform="matrix(0.4239 -0.9057 0.9057 0.4239 -131.7558 180.2868)" fill="#AAA6D4" width="2.8" height="1.5"/>
<rect id="opacity:10_colorstyle:Base_00000041992711225185162070000009568895980182288300_" x="9.3" y="102.2" transform="matrix(0.4256 -0.9049 0.9049 0.4256 -28.9777 159.667)" fill="#AAA6D4" width="204.1" height="1"/>
<rect id="opacity:40_colorstyle:Base_00000033341281050392747530000012763678422598258348_" x="67.1" y="193" transform="matrix(0.4257 -0.9048 0.9048 0.4257 -135.962 173.2027)" fill="#AAA6D4" width="2.8" height="1.5"/>
<polygon id="opacity:30_colorstyle:Base_00000027585462916973244130000014881328432821756070_" fill="#AAA6D4" points="192.2,737.4 
	170.1,731.8 170,731.6 82.1,542.9 83.1,542.5 170.8,730.9 192.4,736.5 "/>
<rect id="opacity:40_colorstyle:Base_00000175317182556840737630000004539649589918998185_" x="190.2" y="735.2" transform="matrix(0.2474 -0.9689 0.9689 0.2474 -570.0041 739.3273)" fill="#AAA6D4" width="1.5" height="2.8"/>
<polygon id="opacity:40_colorstyle:Base_00000123398842394705602230000011163842992517561758_" fill="#AAA6D4" points="173,732.8 
	169.9,732 168.6,729.1 169.9,728.5 171,730.7 173.4,731.3 "/>
<rect id="opacity:40_colorstyle:Base_00000038398684297450660150000015548474280119025310_" x="82.4" y="542.5" transform="matrix(0.9066 -0.4221 0.4221 0.9066 -221.8069 85.9359)" fill="#AAA6D4" width="1.5" height="2.8"/>
<rect id="opacity:20_colorstyle:Base" x="118.4" y="533" transform="matrix(0.9058 -0.4237 0.4237 0.9058 -258.2982 110.3033)" fill="#AAA6D4" width="1" height="206.1"/>
<rect id="opacity:40_colorstyle:Base_00000019643700571615877070000011919287951398042003_" x="75.1" y="542.5" transform="matrix(0.9058 -0.4237 0.4237 0.9058 -223.3493 83.3833)" fill="#AAA6D4" width="1.5" height="2.8"/>
<rect id="opacity:10_colorstyle:Base_00000070837495962500389550000016392309624880289209_" x="110.8" y="533" transform="matrix(0.905 -0.4255 0.4255 0.905 -259.5995 107.6885)" fill="#AAA6D4" width="1" height="204.1"/>
<rect id="opacity:40_colorstyle:Base_00000152971917501115087470000015115277204237579165_" x="67.7" y="542.5" transform="matrix(0.9049 -0.4256 0.4256 0.9049 -225.002 80.8703)" fill="#AAA6D4" width="1.5" height="2.8"/>
<polygon id="opacity:30_colorstyle:Base_00000182519828754818246320000009346053809433284507_" fill="#AAA6D4" points="226.4,266 
	195.9,235.5 127.1,235.5 122.4,240.2 121.7,239.5 126.7,234.5 196.4,234.5 227.1,265.3 "/>
<rect id="opacity:40_colorstyle:Base_00000091728441416005651660000013356260476777551253_" x="121.6" y="238.1" transform="matrix(0.7071 -0.7071 0.7071 0.7071 -132.8538 156.9419)" fill="#AAA6D4" width="2.8" height="1.5"/>
<polygon id="opacity:40_colorstyle:Base_00000034070454513682376860000008841711911959254160_" fill="#AAA6D4" points="197.6,237.5 
	195.8,235.7 193.3,235.7 193.3,234.2 196.5,234.2 198.7,236.5 "/>
<polygon id="opacity:30_colorstyle:Base_00000022550088735070667740000002118808269760296334_" fill="#AAA6D4" points="196.4,503.2 
	126.7,503.2 121.7,498.2 122.4,497.5 127.1,502.2 195.9,502.2 226.4,471.7 227.1,472.4 "/>
<rect id="opacity:40_colorstyle:Base_00000102531968702938997070000014467195673699124361_" x="122.3" y="497.4" transform="matrix(0.7071 -0.7071 0.7071 0.7071 -316.6938 233.0909)" fill="#AAA6D4" width="1.5" height="2.8"/>
<polygon id="opacity:40_colorstyle:Base_00000124869052842585327520000016262936343489118623_" fill="#AAA6D4" points="196.5,503.4 
	193.3,503.4 193.3,501.9 195.8,501.9 197.6,500.2 198.7,501.2 "/>
<rect id="opacity:30_colorstyle:Base_00000044177277499534832120000003936427686319362971_" x="364.9" y="79.5" transform="matrix(0.7071 -0.7071 0.7071 0.7071 35.3225 288.0969)" fill="#AAA6D4" width="1" height="43.8"/>
<rect id="opacity:40_colorstyle:Base_00000029744832884287973950000013505559131104795542_" x="350.2" y="85.5" transform="matrix(0.707 -0.7072 0.7072 0.707 41.3393 273.6582)" fill="#AAA6D4" width="1.5" height="2.8"/>
<rect id="opacity:30_colorstyle:Base" x="343.5" y="635.8" transform="matrix(0.7071 -0.7071 0.7071 0.7071 -342.8729 444.7474)" fill="#AAA6D4" width="43.8" height="1"/>
<rect id="opacity:40_colorstyle:Base" x="349.5" y="650" transform="matrix(0.7071 -0.7071 0.7071 0.7071 -357.347 438.752)" fill="#AAA6D4" width="2.8" height="1.5"/>
<path id="opacity:10_colorstyle:Base_00000080165184499820271440000001002342965169333695_" fill="#AAA6D4" d="M52.4,368
	c0,0.7-0.3,1.1-0.9,1.2l0.9,2h-0.8l-0.9-2h-1.5v2h-0.7v-4.9h2.7c0.8,0,1.2,0.4,1.2,1.2V368z M49.2,368.5h1.9c0.2,0,0.3,0,0.4-0.1
	s0.1-0.2,0.1-0.4v-0.5c0-0.2,0-0.3-0.1-0.4s-0.2-0.1-0.4-0.1h-1.9V368.5z"/>
<path id="opacity:10_colorstyle:Base_00000024704136515843784000000017202474282623496637_" fill="#AAA6D4" d="M54.4,369.1
	c-0.1,0-0.2,0-0.3-0.1c-0.1,0-0.2-0.1-0.2-0.2c-0.1-0.1-0.1-0.1-0.2-0.2c0-0.1-0.1-0.2-0.1-0.3V367c0-0.1,0-0.2,0.1-0.3
	c0-0.1,0.1-0.2,0.2-0.2c0.1-0.1,0.1-0.1,0.2-0.2c0.1,0,0.2-0.1,0.3-0.1h2.4c0.1,0,0.2,0,0.3,0.1c0.1,0,0.2,0.1,0.2,0.2
	c0.1,0.1,0.1,0.1,0.2,0.2c0,0.1,0.1,0.2,0.1,0.3v0.6h-0.7V367h-2.4v1.4h2.4c0.1,0,0.2,0,0.3,0.1c0.1,0,0.2,0.1,0.2,0.2
	c0.1,0.1,0.1,0.1,0.2,0.2c0,0.1,0.1,0.2,0.1,0.3v1.4c0,0.1,0,0.2-0.1,0.3c0,0.1-0.1,0.2-0.2,0.2c-0.1,0.1-0.1,0.1-0.2,0.2
	c-0.1,0-0.2,0.1-0.3,0.1h-2.4c-0.1,0-0.2,0-0.3-0.1c-0.1,0-0.2-0.1-0.2-0.2c-0.1-0.1-0.1-0.1-0.2-0.2c0-0.1-0.1-0.2-0.1-0.3v-0.6
	h0.7v0.6h2.4v-1.4H54.4z"/>
<path id="opacity:10_colorstyle:Base_00000016063463912138814840000014593257447403357370_" fill="#AAA6D4" d="M59.6,366.3v4.9h-0.7
	v-4.9H59.6z"/>
<path id="opacity:10_colorstyle:Base_00000072995739947294579750000009193287575235043743_" fill="#AAA6D4" d="M64.7,371.2l-1.9-4.9
	h0.8l1.5,4l1.5-4h0.7l-1.9,4.9H64.7z"/>
<path id="opacity:10_colorstyle:Base_00000027575696766449192190000000582240598241108876_" fill="#AAA6D4" d="M71.8,370
	c0,0.4-0.1,0.7-0.3,0.9c-0.2,0.2-0.5,0.3-0.9,0.3h-1.3c-0.8,0-1.2-0.4-1.2-1.2v-0.3h0.7v0.3c0,0.2,0,0.3,0.1,0.4
	c0.1,0.1,0.2,0.1,0.4,0.1h1.3c0.2,0,0.3,0,0.4-0.1c0.1-0.1,0.1-0.2,0.1-0.4v-0.7c0-0.2,0-0.3-0.1-0.4s-0.2-0.1-0.4-0.1h-2.3v-2.5
	h3.4v0.7h-2.7v1.1h1.7c0.4,0,0.7,0.1,0.9,0.3c0.2,0.2,0.3,0.5,0.3,0.9V370z"/>
<path id="opacity:10_colorstyle:Base_00000044164823095578854460000006924917550454598800_" fill="#AAA6D4" d="M72.9,370.2h1v1h-1
	V370.2z"/>
<path id="opacity:10_colorstyle:Base_00000137822773683951853690000004021459966097000872_" fill="#AAA6D4" d="M75,369.7h0.7v0.3
	c0,0.2,0,0.3,0.1,0.4c0.1,0.1,0.2,0.1,0.4,0.1h1.4c0.2,0,0.3,0,0.4-0.1c0.1-0.1,0.1-0.2,0.1-0.4v-0.4c0-0.2,0-0.3-0.1-0.4
	c-0.1-0.1-0.2-0.1-0.4-0.1h-1.4v-0.7h1.4c0.2,0,0.3-0.1,0.4-0.1c0.1-0.1,0.1-0.2,0.1-0.4v-0.3c0-0.2,0-0.3-0.1-0.4
	c-0.1-0.1-0.2-0.1-0.4-0.1h-1.3c-0.2,0-0.3,0-0.4,0.1c-0.1,0.1-0.1,0.2-0.1,0.4v0.3H75v-0.3c0-0.8,0.4-1.2,1.2-1.2h1.3
	c0.4,0,0.7,0.1,0.9,0.3c0.2,0.2,0.3,0.5,0.3,0.9v0.1c0,0.3,0,0.5-0.1,0.7c-0.1,0.2-0.2,0.3-0.4,0.4c0.2,0.1,0.4,0.2,0.5,0.4
	s0.2,0.4,0.2,0.7v0.2c0,0.8-0.4,1.2-1.2,1.2h-1.5c-0.8,0-1.2-0.4-1.2-1.2V369.7z"/>
<path id="opacity:10_colorstyle:Base" fill="#AAA6D4" d="M83.5,374.1h-40v-10.7h40V374.1z M44.1,373.6h39V364h-39V373.6z"/>
</svg>
