<?xml version="1.0" encoding="utf-8"?>
<!-- Generator: Adobe Illustrator 26.4.0, SVG Export Plug-In . SVG Version: 6.00 Build 0)  -->
<svg version="1.1" baseProfile="tiny" id="Layer_2_00000109710672556821065370000006173369108229199534_"
	 xmlns="http://www.w3.org/2000/svg" xmlns:xlink="http://www.w3.org/1999/xlink" x="0px" y="0px" viewBox="0 0 386.3 672"
	 overflow="visible" xml:space="preserve">
<path fill="#EE2B2F" d="M329.9,476.3h-284v82.5l23.4,33.8H176l4.7,5.5h173.6v-85.2L329.9,476.3z"/>
<path fill="#EE2B2F" d="M352.8,618.4v27.9l-7.4,10.8H90.9l-26.7-38.8L352.8,618.4 M354.8,616.4H60.4l29.5,42.8h256.6l8.3-12.2V616.4
	L354.8,616.4z"/>
<path fill="#EE2B2F" d="M332.1,12h-309v62h332l0.2-26.9L332.1,12L332.1,12L332.1,12z"/>
<polygon fill="#EE2B2F" points="352.6,672 295.9,672 295.9,670 351.5,670 384.3,621.5 384.3,72.7 337.1,2 76.9,2 73.9,5.2 71.1,5.3 
	76,0 338.2,0 386.3,72.1 386.3,622.1 "/>
<polygon fill="#EE2B2F" points="71.2,668.6 8.7,574 7.7,82.5 11.5,78 11.6,10.9 17.4,4.7 62.6,4.7 67.3,0 7.5,0 0.1,7.8 0,580.7 
	61.6,672 287.1,672 283.2,668.6 "/>
</svg>
