<?xml version="1.0" encoding="utf-8"?>
<!-- Generator: Adobe Illustrator 26.0.1, SVG Export Plug-In . SVG Version: 6.00 Build 0)  -->
<svg version="1.1" baseProfile="tiny" id="Layer_1" xmlns="http://www.w3.org/2000/svg" xmlns:xlink="http://www.w3.org/1999/xlink"
	 x="0px" y="0px" width="638.2px" height="492.6px" viewBox="0 0 638.2 492.6" overflow="visible" xml:space="preserve">
<polygon fill="#191A21" points="432.5,466.8 456.4,443 456.4,492.6 "/>
<polygon fill="#191A21" points="432.5,409.6 456.4,385.8 456.4,435.4 "/>
<polygon fill="#191A21" points="432.5,352.5 456.4,328.6 456.4,378.2 "/>
<polygon fill="#191A21" points="432.5,296 456.4,272.2 456.4,321.8 "/>
<rect x="506.1" y="267.8" fill="#393B4C" width="4.7" height="224.9"/>
<polygon fill="#191A21" points="583,25.7 559.2,49.4 559.2,0 "/>
<polygon fill="#191A21" points="583,82.6 559.2,106.3 559.2,56.9 "/>
<polygon fill="#191A21" points="583,139.5 559.2,163.3 559.2,113.9 "/>
<polygon fill="#191A21" points="583,195.8 559.2,219.5 559.2,170.1 "/>
<rect x="505.1" y="-0.1" fill="#393B4C" width="4.7" height="222.4"/>
<polygon fill="#191A21" points="623.4,229.9 638.2,244.7 623.4,259.5 335.9,259.6 350.7,244.7 335.9,229.9 "/>
<polygon fill="#191A21" points="293,230 307.7,244.8 293,259.6 330.3,259.7 345.1,244.8 330.3,230 "/>
<polygon fill="#191A21" points="287.5,229.9 302.3,244.7 287.5,259.5 0,259.6 14.9,244.7 0,229.9 "/>
</svg>
