<?xml version="1.0" encoding="utf-8"?>
<!-- Generator: Adobe Illustrator 26.0.1, SVG Export Plug-In . SVG Version: 6.00 Build 0)  -->
<svg version="1.1" baseProfile="tiny" id="Layer_1" xmlns="http://www.w3.org/2000/svg" xmlns:xlink="http://www.w3.org/1999/xlink"
	 x="0px" y="0px" viewBox="0 0 64 64" overflow="visible" xml:space="preserve">
<path d="M63.2,30.9l-14.5-25l-0.6-1.1h-1.3H17.9h-1.3L16,5.8l-14.5,25L0.9,32l0.6,1.1l14.5,25l0.6,1.1h1.3h28.9h1.3l0.6-1.1l14.5-25
	l0.6-1.1L63.2,30.9z M46.9,6.9l6.3,11H25.6l6.3-11H46.9z M17.9,6.9h12.9L16.8,31.3l-6.4-11.2L17.9,6.9z M3.5,32L9.8,21L24,45.6H11.3
	L3.5,32z M17.9,57l-6.1-10.5H40L33.9,57H17.9z M46.9,57H35l13.8-23.9l5.9,10.3L46.9,57z M55.2,42.5L41.6,18.8h12.2L61.3,32
	L55.2,42.5z"/>
</svg>
