<?xml version="1.0" encoding="utf-8"?>
<!-- Generator: Adobe Illustrator 26.0.2, SVG Export Plug-In . SVG Version: 6.00 Build 0)  -->
<svg version="1.1" baseProfile="tiny" id="Layer_1" xmlns="http://www.w3.org/2000/svg" xmlns:xlink="http://www.w3.org/1999/xlink"
	 x="0px" y="0px" viewBox="0 0 1782.4 17.1" overflow="visible" xml:space="preserve">
<path fill="#D9E3F4" d="M374.1,16.4H45c-0.1,0-3.5,0-12.7-3.6C20.5,8.3,1.1,1.4,0.9,1.4l0.2-0.5C1.3,1,20.6,7.8,32.5,12.4
	c9.1,3.5,12.5,3.5,12.5,3.5h329.1V16.4z"/>
<path fill="#D9E3F4" d="M1737.3,16.4h-329.1v-0.5h329.1c0,0,3.4-0.1,12.5-3.5c11.8-4.5,31.2-11.4,31.4-11.5l0.2,0.5
	c-0.2,0.1-19.6,6.9-31.4,11.5C1740.8,16.3,1737.4,16.4,1737.3,16.4z"/>
<rect x="413" y="15.9" fill="#D9E3F4" width="956.6" height="0.5"/>
</svg>
