<?xml version="1.0" encoding="utf-8"?>
<!-- Generator: Adobe Illustrator 26.0.2, SVG Export Plug-In . SVG Version: 6.00 Build 0)  -->
<svg version="1.1" baseProfile="tiny" id="Layer_1" xmlns="http://www.w3.org/2000/svg" xmlns:xlink="http://www.w3.org/1999/xlink"
	 x="0px" y="0px" viewBox="0 0 228.9 120.1" overflow="visible" xml:space="preserve">
<path fill="#FFFFFF" d="M91.7,119.7H12.5c-6.5,0-11.7-5.3-11.7-11.7V12.4C0.7,5.9,6,0.6,12.5,0.6h204.3c6.5,0,11.7,5.3,11.7,11.7
	v28.9c0,4.1-2.2,8-5.7,10.1l-0.2,0.1L112.4,79.8c0,0-1,0.3-2.1,0.5c-4.8,1-6.9,5.4-6.9,9.2V108C103.4,114.4,98.2,119.7,91.7,119.7z
	 M12.5,2.2C6.8,2.2,2.3,6.8,2.3,12.4V108c0,5.6,4.6,10.2,10.2,10.2h79.2c5.6,0,10.2-4.6,10.2-10.2V89.5c0-4.3,2.5-9.5,8.1-10.7
	c1.1-0.2,2-0.5,2-0.5L222,50c3-1.8,4.9-5.2,4.9-8.7V12.4c0-5.6-4.6-10.2-10.2-10.2C216.7,2.2,12.5,2.2,12.5,2.2z"/>
</svg>
