<?xml version="1.0" encoding="utf-8"?>
<!-- Generator: Adobe Illustrator 25.3.1, SVG Export Plug-In . SVG Version: 6.00 Build 0)  -->
<svg version="1.1" baseProfile="tiny" id="Layer_1" xmlns="http://www.w3.org/2000/svg" xmlns:xlink="http://www.w3.org/1999/xlink"
	 x="0px" y="0px" viewBox="0 0 55 41" overflow="visible" xml:space="preserve">
<rect x="26" y="38" fill="#101B1D" width="3" height="3"/>
<path fill="#2C494F" d="M52,25.9h3v7.7c0,4-3.3,7.3-7.3,7.3H34.2v-3h13.5c2.4,0,4.3-1.9,4.3-4.3V25.9z"/>
<path fill="#2C494F" d="M0,25.9h3v7.7C3,36.1,4.9,38,7.3,38h13.5v3H7.3c-4,0-7.3-3.3-7.3-7.3V25.9z"/>
<rect x="52" y="2.3" fill="#101B1D" width="3" height="18.6"/>
<rect y="2.3" fill="#101B1D" width="3" height="18.6"/>
<rect x="52" y="0" fill="#355960" width="3" height="2.3"/>
<line fill="none" x1="3" y1="2.3" x2="3" y2="2.3"/>
<rect y="0" fill="#355960" width="3" height="2.3"/>
</svg>
