<?xml version="1.0" encoding="utf-8"?>
<!-- Generator: Adobe Illustrator 28.5.0, SVG Export Plug-In . SVG Version: 9.03 Build 54727)  -->
<svg version="1.1" baseProfile="tiny" id="Layer_1" xmlns="http://www.w3.org/2000/svg" xmlns:xlink="http://www.w3.org/1999/xlink"
	 x="0px" y="0px" viewBox="0 0 299 36.6" overflow="visible" xml:space="preserve">
<rect id="colorstyle:Bright_opacity:100_00000007419714232473725670000011157537646370767039_" x="295" y="11.2" fill="#FFFFFF" width="1" height="2"/>
<rect id="colorstyle:Bright_opacity:100_00000019657295539065413680000000023886542156310703_" x="298" y="11.2" fill="#FFFFFF" width="1" height="2"/>
<rect id="colorstyle:Bright_opacity:100_00000047024585584120575450000013933686039104213943_" x="290.3" y="11.2" fill="#FFFFFF" width="1" height="2"/>
<rect id="colorstyle:Bright_opacity:100_00000076568583226232498960000014614073471229934980_" x="180.3" y="11.2" fill="#FFFFFF" width="1" height="2"/>
<rect id="colorstyle:Base_opacity:100_00000171000614850360846220000005384904164037072054_" x="181.3" y="12.6" fill="#FFFFFF" width="109" height="0.6"/>
<rect id="colorstyle:Base_opacity:100" x="181.3" y="11.2" fill="#FFFFFF" width="109" height="0.6"/>
<rect id="colorstyle:Bright_opacity:100_00000123414036328058799870000004201378721374446257_" x="46.1" y="11.4" fill="#FFFFFF" width="1" height="2"/>
<rect id="colorstyle:Bright_opacity:100_00000093885140440329990460000010087918843417022886_" x="36.8" y="2.8" fill="#FFFFFF" width="1.5" height="1"/>
<rect id="colorstyle:Bright_opacity:100_00000116230045782144516270000000495286101879671712_" x="36.8" y="0.8" fill="#FFFFFF" width="1.5" height="1"/>
<rect id="colorstyle:Base_opacity:100_00000067219794597833723180000004743908527383040401_" x="48.9" y="11.1" width="129.3" height="2.5"/>
<path id="colorstyle:Base_opacity:100_00000070094240939014538970000007572675996054955956_" d="M44.5,13.1h-2.1
	c-3.1,0-5.6-2.5-5.6-5.6V5.1h1.5v2.4c0,2.3,1.9,4.1,4.1,4.1h2.1V13.1z"/>
<path id="colorstyle:Base_opacity:100_00000026123224869112563010000014167078232862480771_" d="M78.2,17.2h-4c-1.2,0-2.2-1-2.2-2.2
	V15h3.9C77.2,15,78.2,16,78.2,17.2L78.2,17.2z"/>
</svg>
