<?xml version="1.0" encoding="utf-8"?>
<!-- Generator: Adobe Illustrator 27.8.0, SVG Export Plug-In . SVG Version: 6.00 Build 0)  -->
<svg version="1.1" baseProfile="tiny" id="Layer_1" xmlns="http://www.w3.org/2000/svg" xmlns:xlink="http://www.w3.org/1999/xlink"
	 x="0px" y="0px" viewBox="0 0 1567.1 398.1" overflow="visible" xml:space="preserve">
<path id="opacity:100_colorstyle:Critical" fill="#FFFFFF" d="M1356.5,215.2l116.9,116.9c8.9,8.9,8.9,23.4,0,32.4l-26.9,26.9
	c-8.9,8.9-23.4,8.9-32.3,0L1263.8,241H42.6c-23,0-42.2-18.2-42.6-41.2c-0.4-23.5,18.5-42.6,41.9-42.6h1221.8L1414.2,6.7
	c8.9-8.9,23.4-8.9,32.3,0l26.9,26.9c8.9,8.9,8.9,23.4,0,32.3l-116.9,116.9C1347.5,191.8,1347.5,206.3,1356.5,215.2z"/>
</svg>
