<?xml version="1.0" encoding="utf-8"?>
<!-- Generator: Adobe Illustrator 27.8.0, SVG Export Plug-In . SVG Version: 6.00 Build 0)  -->
<svg version="1.1" baseProfile="tiny" id="Layer_1" xmlns="http://www.w3.org/2000/svg" xmlns:xlink="http://www.w3.org/1999/xlink"
	 x="0px" y="0px" viewBox="0 0 392.5 392.5" overflow="visible" xml:space="preserve">
<path id="opacity:50_colorstyle:Accent1_00000131325524114288102220000014377424762606540463_" fill="#6CB8C7" d="M199.3,65.4v1.8
	c0,1.6-1.3,3-3,3s-3-1.3-3-3v-1.8c0-1.6,1.3-3,3-3S199.3,63.8,199.3,65.4z"/>
<path id="opacity:50_colorstyle:Accent1_00000161612563283228742570000012099016345485586612_" fill="#6CB8C7" d="M199.3,79.7v1.8
	c0,1.6-1.3,3-3,3s-3-1.3-3-3v-1.8c0-1.6,1.3-3,3-3S199.3,78.1,199.3,79.7z"/>
<path id="opacity:50_colorstyle:Accent1_00000016776465600528498110000011331755347094927782_" fill="#6CB8C7" d="M199.3,94.1v1.8
	c0,1.6-1.3,3-3,3s-3-1.3-3-3v-1.8c0-1.6,1.3-3,3-3S199.3,92.5,199.3,94.1z"/>
<path id="opacity:50_colorstyle:Accent1_00000101825466085286588860000014869075493608763011_" fill="#6CB8C7" d="M199.3,24.5v1.8
	c0,1.6-1.3,3-3,3s-3-1.3-3-3v-1.8c0-1.6,1.3-3,3-3S199.3,22.9,199.3,24.5z"/>
<path id="opacity:50_colorstyle:Accent1_00000172426847135952947680000012716026223821748882_" fill="#6CB8C7" d="M199.3,38.8v1.8
	c0,1.6-1.3,3-3,3s-3-1.3-3-3v-1.8c0-1.6,1.3-3,3-3S199.3,37.2,199.3,38.8z"/>
<path id="opacity:50_colorstyle:Accent1_00000047741100546365821980000003348902422805763990_" fill="#6CB8C7" d="M199.3,53.2V55
	c0,1.6-1.3,3-3,3s-3-1.3-3-3v-1.8c0-1.6,1.3-3,3-3S199.3,51.6,199.3,53.2z"/>
<path id="opacity:50_colorstyle:Accent1_00000062193367466873651080000007352555207064383409_" fill="#6CB8C7" d="M199.3,108.4v1.8
	c0,1.6-1.3,3-3,3s-3-1.3-3-3v-1.8c0-1.6,1.3-3,3-3S199.3,106.8,199.3,108.4z"/>
<path id="opacity:50_colorstyle:Accent1_00000107559964486074585630000011698050648931333026_" fill="#6CB8C7" d="M199.3,122.7v1.8
	c0,1.6-1.3,3-3,3s-3-1.3-3-3v-1.8c0-1.6,1.3-3,3-3S199.3,121,199.3,122.7z"/>
<path id="opacity:50_colorstyle:Accent1_00000026878791012237113600000007224877724677188789_" fill="#6CB8C7" d="M199.3,137v1.8
	c0,1.6-1.3,3-3,3s-3-1.3-3-3V137c0-1.6,1.3-3,3-3S199.3,135.4,199.3,137z"/>
<path id="opacity:50_colorstyle:Accent1_00000030462355363732281300000003773811780074999997_" fill="#6CB8C7" d="M199.3,151.4v1.8
	c0,1.6-1.3,3-3,3s-3-1.3-3-3v-1.8c0-1.6,1.3-3,3-3S199.3,149.8,199.3,151.4z"/>
<path id="opacity:50_colorstyle:Accent1_00000016788935710563217370000008029880462238549412_" fill="#6CB8C7" d="M199.3,165.7v1.8
	c0,1.6-1.3,3-3,3s-3-1.3-3-3v-1.8c0-1.6,1.3-3,3-3S199.3,164,199.3,165.7z"/>
<path id="opacity:50_colorstyle:Accent1_00000024688923869999077070000010464735610703655612_" fill="#6CB8C7" d="M199.3,180v1.8
	c0,1.6-1.3,3-3,3s-3-1.3-3-3V180c0-1.6,1.3-3,3-3S199.3,178.4,199.3,180z"/>
<path id="opacity:50_colorstyle:Accent1_00000039834341008260389510000001169879712272274848_" fill="#6CB8C7" d="M199.3,194.3v1.8
	c0,1.6-1.3,3-3,3s-3-1.3-3-3v-1.8c0-1.6,1.3-3,3-3S199.3,192.6,199.3,194.3z"/>
<path id="opacity:50_colorstyle:Accent1_00000168083904603706781290000000423149263316417680_" fill="#6CB8C7" d="M199.3,208.7v1.8
	c0,1.6-1.3,3-3,3s-3-1.3-3-3v-1.8c0-1.6,1.3-3,3-3S199.3,207.1,199.3,208.7z"/>
<path id="opacity:50_colorstyle:Accent1_00000146474602722576739350000012687611965756745126_" fill="#6CB8C7" d="M196.3,371
	c-1.7,0-3-1.4-3-3v-1.8c0-1.7,1.3-3,3-3s3,1.4,3,3v1.8C199.3,369.6,198,371,196.3,371z"/>
<path id="opacity:50_colorstyle:Accent1_00000039836993934481400800000009681118107179994268_" fill="#6CB8C7" d="M196.3,356.7
	c-1.7,0-3-1.4-3-3v-1.8c0-1.7,1.3-3,3-3s3,1.4,3,3v1.8C199.3,355.3,198,356.7,196.3,356.7z"/>
<path id="opacity:50_colorstyle:Accent1_00000010281571058574623820000015192162936153566349_" fill="#6CB8C7" d="M196.3,342.4
	c-1.7,0-3-1.4-3-3v-1.8c0-1.7,1.3-3,3-3s3,1.4,3,3v1.8C199.3,341,198,342.4,196.3,342.4z"/>
<path id="opacity:50_colorstyle:Accent1_00000111178731164675314550000003475064662662188966_" fill="#6CB8C7" d="M196.3,328.1
	c-1.7,0-3-1.4-3-3v-1.8c0-1.7,1.3-3,3-3s3,1.4,3,3v1.8C199.3,326.7,198,328.1,196.3,328.1z"/>
<path id="opacity:50_colorstyle:Accent1_00000098189997235899744280000013859179374026483896_" fill="#6CB8C7" d="M196.3,313.7
	c-1.7,0-3-1.4-3-3v-1.8c0-1.7,1.3-3,3-3s3,1.4,3,3v1.8C199.3,312.4,198,313.7,196.3,313.7z"/>
<path id="opacity:50_colorstyle:Accent1_00000148659000850572314000000015329996694281859496_" fill="#6CB8C7" d="M196.3,299.4
	c-1.7,0-3-1.4-3-3v-1.8c0-1.7,1.3-3,3-3s3,1.4,3,3v1.8C199.3,298,198,299.4,196.3,299.4z"/>
<path id="opacity:50_colorstyle:Accent1_00000026880612884947888670000008754177737157332121_" fill="#6CB8C7" d="M196.3,285.1
	c-1.7,0-3-1.4-3-3v-1.8c0-1.7,1.3-3,3-3s3,1.4,3,3v1.8C199.3,283.7,198,285.1,196.3,285.1z"/>
<path id="opacity:50_colorstyle:Accent1_00000081615653482554190480000000878176130515648925_" fill="#6CB8C7" d="M196.3,270.8
	c-1.7,0-3-1.4-3-3V266c0-1.7,1.3-3,3-3s3,1.4,3,3v1.8C199.3,269.5,198,270.8,196.3,270.8z"/>
<path id="opacity:50_colorstyle:Accent1_00000088132136166733625740000000646614340878283940_" fill="#6CB8C7" d="M196.3,256.4
	c-1.7,0-3-1.4-3-3v-1.8c0-1.7,1.3-3,3-3s3,1.4,3,3v1.8C199.3,255,198,256.4,196.3,256.4z"/>
<path id="opacity:50_colorstyle:Accent1_00000005955938027239208400000005224077583785940615_" fill="#6CB8C7" d="M196.3,242.1
	c-1.7,0-3-1.4-3-3v-1.8c0-1.7,1.3-3,3-3s3,1.4,3,3v1.8C199.3,240.8,198,242.1,196.3,242.1z"/>
<path id="opacity:50_colorstyle:Accent1_00000031927738109473374350000005126354171386755223_" fill="#6CB8C7" d="M196.3,227.8
	c-1.7,0-3-1.4-3-3V223c0-1.7,1.3-3,3-3s3,1.4,3,3v1.8C199.3,226.4,198,227.8,196.3,227.8z"/>
<path id="opacity:50_colorstyle:Accent1_00000040548690042202086090000012779339706662028981_" fill="#6CB8C7" d="M73.8,150.1
	l1.7,0.6c1.5,0.5,2.4,2.2,1.8,3.8s-2.2,2.4-3.8,1.8l-1.7-0.6c-1.5-0.5-2.4-2.2-1.8-3.8S72.3,149.6,73.8,150.1z"/>
<path id="opacity:50_colorstyle:Accent1_00000135676950053379825530000008397538633679883674_" fill="#6CB8C7" d="M87.3,154.8
	l1.7,0.6c1.5,0.5,2.4,2.2,1.8,3.8s-2.2,2.4-3.8,1.8l-1.7-0.6c-1.5-0.5-2.4-2.2-1.8-3.8C84,155.1,85.8,154.3,87.3,154.8z"/>
<path id="opacity:50_colorstyle:Accent1_00000173843916463746036420000009183963019442638008_" fill="#6CB8C7" d="M100.9,159.6
	l1.7,0.6c1.5,0.5,2.4,2.2,1.8,3.8s-2.2,2.4-3.8,1.8l-1.7-0.6c-1.5-0.5-2.4-2.2-1.8-3.8C97.6,159.8,99.4,159.1,100.9,159.6z"/>
<path id="opacity:50_colorstyle:Accent1_00000044161853609254958440000008944493656484864409_" fill="#6CB8C7" d="M35.2,136.6
	l1.7,0.6c1.5,0.5,2.4,2.2,1.8,3.8c-0.6,1.6-2.2,2.4-3.8,1.8l-1.7-0.6c-1.5-0.5-2.4-2.2-1.8-3.8C32,136.8,33.7,136.1,35.2,136.6z"/>
<path id="opacity:50_colorstyle:Accent1_00000014634060976937262630000005212429141155957906_" fill="#6CB8C7" d="M48.7,141.3
	l1.7,0.6c1.5,0.5,2.4,2.2,1.8,3.8c-0.6,1.6-2.2,2.4-3.8,1.8l-1.7-0.6c-1.5-0.5-2.4-2.2-1.8-3.8C45.5,141.5,47.2,140.8,48.7,141.3z"
	/>
<path id="opacity:50_colorstyle:Accent1_00000065761262719789257040000008787928434499034253_" fill="#6CB8C7" d="M62.3,146.1
	l1.7,0.6c1.5,0.5,2.4,2.2,1.8,3.8s-2.2,2.4-3.8,1.8l-1.7-0.6c-1.5-0.5-2.4-2.2-1.8-3.8C59,146.3,60.8,145.6,62.3,146.1z"/>
<path id="opacity:50_colorstyle:Accent1_00000109711689064964365990000015157650975190161545_" fill="#6CB8C7" d="M114.4,164.3
	l1.7,0.6c1.5,0.5,2.4,2.2,1.8,3.8s-2.2,2.4-3.8,1.8l-1.7-0.6c-1.5-0.5-2.4-2.2-1.8-3.8C111.1,164.6,112.9,163.8,114.4,164.3z"/>
<path id="opacity:50_colorstyle:Accent1_00000126304677592317137610000012533248310438543283_" fill="#6CB8C7" d="M127.9,169.1
	l1.7,0.6c1.5,0.5,2.4,2.2,1.8,3.8c-0.6,1.6-2.2,2.4-3.8,1.8l-1.7-0.6c-1.5-0.5-2.4-2.2-1.8-3.8C124.6,169.3,126.3,168.5,127.9,169.1
	z"/>
<path id="opacity:50_colorstyle:Accent1_00000137112606254984410550000010949269944928855972_" fill="#6CB8C7" d="M141.4,173.8
	l1.7,0.6c1.5,0.5,2.4,2.2,1.8,3.8c-0.6,1.6-2.2,2.4-3.8,1.8l-1.7-0.6c-1.5-0.5-2.4-2.2-1.8-3.8C138.1,174,139.9,173.3,141.4,173.8z"
	/>
<path id="opacity:50_colorstyle:Accent1_00000077291136069668951610000001535668974550220693_" fill="#6CB8C7" d="M155,178.6
	l1.7,0.6c1.5,0.5,2.4,2.2,1.8,3.8c-0.6,1.6-2.2,2.4-3.8,1.8l-1.7-0.6c-1.5-0.5-2.4-2.2-1.8-3.8C151.7,178.8,153.5,178,155,178.6z"/>
<path id="opacity:50_colorstyle:Accent1_00000152975922000508708810000006294824284784014723_" fill="#6CB8C7" d="M168.5,183.3
	l1.7,0.6c1.5,0.5,2.4,2.2,1.8,3.8c-0.6,1.6-2.2,2.4-3.8,1.8l-1.7-0.6c-1.5-0.5-2.4-2.2-1.8-3.8C165.2,183.5,166.9,182.7,168.5,183.3
	z"/>
<path id="opacity:50_colorstyle:Accent1_00000005241679750367000200000013604733714806946751_" fill="#6CB8C7" d="M361.2,254.1
	c-0.6,1.6-2.3,2.4-3.8,1.8l-1.7-0.6c-1.6-0.6-2.4-2.2-1.8-3.8s2.3-2.4,3.8-1.8l1.7,0.6C360.9,250.8,361.8,252.5,361.2,254.1z"/>
<path id="opacity:50_colorstyle:Accent1_00000178895152786070057250000013895416184702150294_" fill="#6CB8C7" d="M347.7,249.3
	c-0.6,1.6-2.3,2.4-3.8,1.8l-1.7-0.6c-1.6-0.6-2.4-2.2-1.8-3.8s2.3-2.4,3.8-1.8l1.7,0.6C347.4,246.1,348.3,247.7,347.7,249.3z"/>
<path id="opacity:50_colorstyle:Accent1_00000089571447773716454800000004755023673803195826_" fill="#6CB8C7" d="M334.2,244.6
	c-0.6,1.6-2.3,2.4-3.8,1.8l-1.7-0.6c-1.6-0.6-2.4-2.2-1.8-3.8s2.3-2.4,3.8-1.8l1.7,0.6C333.9,241.3,334.8,243,334.2,244.6z"/>
<path id="opacity:50_colorstyle:Accent1_00000005246454028853879310000000198300186651904426_" fill="#6CB8C7" d="M320.7,239.9
	c-0.6,1.6-2.3,2.4-3.8,1.8l-1.7-0.6c-1.6-0.6-2.4-2.2-1.8-3.8s2.3-2.4,3.8-1.8l1.7,0.6C320.4,236.6,321.3,238.3,320.7,239.9z"/>
<path id="opacity:50_colorstyle:Accent1_00000164497097079733792690000013371174007582219649_" fill="#6CB8C7" d="M307.1,235.1
	c-0.6,1.6-2.3,2.4-3.8,1.8l-1.7-0.6c-1.6-0.6-2.4-2.2-1.8-3.8s2.3-2.4,3.8-1.8l1.7,0.6C306.9,231.9,307.7,233.5,307.1,235.1z"/>
<path id="opacity:50_colorstyle:Accent1_00000085251149790410377160000002033188782645905554_" fill="#6CB8C7" d="M293.6,230.4
	c-0.6,1.6-2.3,2.4-3.8,1.8l-1.7-0.6c-1.6-0.6-2.4-2.2-1.8-3.8s2.3-2.4,3.8-1.8l1.7,0.6C293.3,227.1,294.2,228.8,293.6,230.4z"/>
<path id="opacity:50_colorstyle:Accent1_00000038375459788285409030000010784981727349824387_" fill="#6CB8C7" d="M280.1,225.7
	c-0.6,1.6-2.3,2.4-3.8,1.8l-1.7-0.6c-1.6-0.6-2.4-2.2-1.8-3.8s2.3-2.4,3.8-1.8l1.7,0.6C279.8,222.4,280.7,224,280.1,225.7z"/>
<path id="opacity:50_colorstyle:Accent1_00000005987841963309645220000014185172645617598858_" fill="#6CB8C7" d="M266.6,220.9
	c-0.6,1.6-2.3,2.4-3.8,1.8l-1.7-0.6c-1.6-0.6-2.4-2.2-1.8-3.8s2.3-2.4,3.8-1.8l1.7,0.6C266.4,217.7,267.2,219.3,266.6,220.9z"/>
<path id="opacity:50_colorstyle:Accent1_00000155826683056897177060000014434275793931313028_" fill="#6CB8C7" d="M253.1,216.2
	c-0.6,1.6-2.3,2.4-3.8,1.8l-1.7-0.6c-1.6-0.6-2.4-2.2-1.8-3.8c0.6-1.6,2.3-2.4,3.8-1.8l1.7,0.6C252.7,212.9,253.6,214.6,253.1,216.2
	z"/>
<path id="opacity:50_colorstyle:Accent1_00000124881536421146224770000007297592266964467894_" fill="#6CB8C7" d="M239.6,211.4
	c-0.6,1.6-2.3,2.4-3.8,1.8l-1.7-0.6c-1.6-0.6-2.4-2.2-1.8-3.8c0.6-1.6,2.3-2.4,3.8-1.8l1.7,0.6C239.3,208.2,240.1,209.8,239.6,211.4
	z"/>
<path id="opacity:50_colorstyle:Accent1_00000168806153503062056830000006681559947436280712_" fill="#6CB8C7" d="M226.1,206.7
	c-0.6,1.6-2.3,2.4-3.8,1.8l-1.7-0.6c-1.6-0.6-2.4-2.2-1.8-3.8c0.6-1.6,2.3-2.4,3.8-1.8l1.7,0.6C225.7,203.4,226.6,205.1,226.1,206.7
	z"/>
<path id="opacity:50_colorstyle:Accent1_00000170973842779599344450000016762233765980727461_" fill="#6CB8C7" d="M327.1,199.3h-1.8
	c-1.6,0-3-1.3-3-3s1.3-3,3-3h1.8c1.6,0,3,1.3,3,3S328.7,199.3,327.1,199.3z"/>
<path id="opacity:50_colorstyle:Accent1_00000098922694958320342320000001463038893937931948_" fill="#6CB8C7" d="M312.8,199.3H311
	c-1.6,0-3-1.3-3-3s1.3-3,3-3h1.8c1.6,0,3,1.3,3,3S314.4,199.3,312.8,199.3z"/>
<path id="opacity:50_colorstyle:Accent1_00000075123342369483314920000011615193589410840456_" fill="#6CB8C7" d="M298.4,199.3h-1.8
	c-1.6,0-3-1.3-3-3s1.3-3,3-3h1.8c1.6,0,3,1.3,3,3S300,199.3,298.4,199.3z"/>
<path id="opacity:50_colorstyle:Accent1_00000113320497319260646860000011318639015316735367_" fill="#6CB8C7" d="M368,199.3h-1.8
	c-1.6,0-3-1.3-3-3s1.3-3,3-3h1.8c1.6,0,3,1.3,3,3S369.6,199.3,368,199.3z"/>
<path id="opacity:50_colorstyle:Accent1_00000077309498689306340130000010077483717952357273_" fill="#6CB8C7" d="M353.7,199.3h-1.8
	c-1.6,0-3-1.3-3-3s1.3-3,3-3h1.8c1.6,0,3,1.3,3,3S355.3,199.3,353.7,199.3z"/>
<path id="opacity:50_colorstyle:Accent1_00000164482755482445837260000016361508026953514420_" fill="#6CB8C7" d="M339.3,199.3h-1.8
	c-1.6,0-3-1.3-3-3s1.3-3,3-3h1.8c1.6,0,3,1.3,3,3S340.9,199.3,339.3,199.3z"/>
<path id="opacity:50_colorstyle:Accent1_00000136377931581658496360000013089257470331085200_" fill="#6CB8C7" d="M284.1,199.3h-1.8
	c-1.6,0-3-1.3-3-3s1.3-3,3-3h1.8c1.6,0,3,1.3,3,3S285.7,199.3,284.1,199.3z"/>
<path id="opacity:50_colorstyle:Accent1_00000168093006241551074340000013040975706719389083_" fill="#6CB8C7" d="M269.8,199.3H268
	c-1.6,0-3-1.3-3-3s1.3-3,3-3h1.8c1.6,0,3,1.3,3,3S271.5,199.3,269.8,199.3z"/>
<path id="opacity:50_colorstyle:Accent1_00000090282837213707450000000010055416575988844942_" fill="#6CB8C7" d="M255.5,199.3h-1.8
	c-1.6,0-3-1.3-3-3s1.3-3,3-3h1.8c1.6,0,3,1.3,3,3S257.1,199.3,255.5,199.3z"/>
<path id="opacity:50_colorstyle:Accent1_00000103967658681435857860000004531736508847750574_" fill="#6CB8C7" d="M241.1,199.3h-1.8
	c-1.6,0-3-1.3-3-3s1.3-3,3-3h1.8c1.6,0,3,1.3,3,3S242.7,199.3,241.1,199.3z"/>
<path id="opacity:50_colorstyle:Accent1_00000163072250959287449280000004556478539750584705_" fill="#6CB8C7" d="M226.8,199.3H225
	c-1.6,0-3-1.3-3-3s1.3-3,3-3h1.8c1.6,0,3,1.3,3,3S228.5,199.3,226.8,199.3z"/>
<path id="opacity:50_colorstyle:Accent1_00000052786525846517983280000013161410170247668917_" fill="#6CB8C7" d="M212.5,199.3h-1.8
	c-1.6,0-3-1.3-3-3s1.3-3,3-3h1.8c1.6,0,3,1.3,3,3S214.1,199.3,212.5,199.3z"/>
<path id="opacity:50_colorstyle:Accent1_00000169554025829466551120000017291287648057247621_" fill="#6CB8C7" d="M183.8,199.3H182
	c-1.6,0-3-1.3-3-3s1.3-3,3-3h1.8c1.6,0,3,1.3,3,3S185.4,199.3,183.8,199.3z"/>
<path id="opacity:50_colorstyle:Accent1_00000117641051523233445580000018039305525396019372_" fill="#6CB8C7" d="M21.5,196.3
	c0-1.7,1.4-3,3-3h1.8c1.7,0,3,1.3,3,3s-1.4,3-3,3h-1.8C22.9,199.3,21.5,198,21.5,196.3z"/>
<path id="opacity:50_colorstyle:Accent1_00000137839746544072647320000000035555427908631950_" fill="#6CB8C7" d="M35.8,196.3
	c0-1.7,1.4-3,3-3h1.8c1.7,0,3,1.3,3,3s-1.4,3-3,3h-1.8C37.2,199.3,35.8,198,35.8,196.3z"/>
<path id="opacity:50_colorstyle:Accent1_00000115479079320980310400000001075461442100458421_" fill="#6CB8C7" d="M50.1,196.3
	c0-1.7,1.4-3,3-3h1.8c1.7,0,3,1.3,3,3s-1.4,3-3,3h-1.8C51.5,199.3,50.1,198,50.1,196.3z"/>
<path id="opacity:50_colorstyle:Accent1_00000139294821243954873630000013624620725072904114_" fill="#6CB8C7" d="M64.4,196.3
	c0-1.7,1.4-3,3-3h1.8c1.7,0,3,1.3,3,3s-1.4,3-3,3h-1.8C65.8,199.3,64.4,198,64.4,196.3z"/>
<path id="opacity:50_colorstyle:Accent1_00000002383906708453151750000010873461970452069048_" fill="#6CB8C7" d="M78.8,196.3
	c0-1.7,1.4-3,3-3h1.8c1.7,0,3,1.3,3,3s-1.4,3-3,3h-1.8C80.1,199.3,78.8,198,78.8,196.3z"/>
<path id="opacity:50_colorstyle:Accent1_00000080181207169529954380000000047210464593267599_" fill="#6CB8C7" d="M93.1,196.3
	c0-1.7,1.4-3,3-3h1.8c1.7,0,3,1.3,3,3s-1.4,3-3,3h-1.8C94.5,199.3,93.1,198,93.1,196.3z"/>
<path id="opacity:50_colorstyle:Accent1_00000147215658233830757920000017659952490731495863_" fill="#6CB8C7" d="M107.4,196.3
	c0-1.7,1.4-3,3-3h1.8c1.7,0,3,1.3,3,3s-1.4,3-3,3h-1.8C108.8,199.3,107.4,198,107.4,196.3z"/>
<path id="opacity:50_colorstyle:Accent1_00000046305173690958226620000009538776818512453029_" fill="#6CB8C7" d="M121.7,196.3
	c0-1.7,1.4-3,3-3h1.8c1.7,0,3,1.3,3,3s-1.4,3-3,3h-1.8C123,199.3,121.7,198,121.7,196.3z"/>
<path id="opacity:50_colorstyle:Accent1_00000176009092684874091340000012074130605136234670_" fill="#6CB8C7" d="M136.1,196.3
	c0-1.7,1.4-3,3-3h1.8c1.7,0,3,1.3,3,3s-1.4,3-3,3h-1.8C137.5,199.3,136.1,198,136.1,196.3z"/>
<path id="opacity:50_colorstyle:Accent1_00000082332625642988094660000012122295587281900962_" fill="#6CB8C7" d="M150.4,196.3
	c0-1.7,1.4-3,3-3h1.8c1.7,0,3,1.3,3,3s-1.4,3-3,3h-1.8C151.7,199.3,150.4,198,150.4,196.3z"/>
<path id="opacity:50_colorstyle:Accent1" fill="#6CB8C7" d="M164.7,196.3c0-1.7,1.4-3,3-3h1.8c1.7,0,3,1.3,3,3s-1.4,3-3,3h-1.8
	C166.1,199.3,164.7,198,164.7,196.3z"/>
</svg>
