<?xml version="1.0" encoding="utf-8"?>
<!-- Generator: Adobe Illustrator 27.8.0, SVG Export Plug-In . SVG Version: 6.00 Build 0)  -->
<svg version="1.1" baseProfile="tiny" id="Layer_1" xmlns="http://www.w3.org/2000/svg" xmlns:xlink="http://www.w3.org/1999/xlink"
	 x="0px" y="0px" viewBox="0 0 406.7 7572.8" overflow="visible" xml:space="preserve">
<path id="opacity:70_colorstyle:Base_00000153687733978712751680000017935330009808044943_" fill="#6CB8C7" d="M66.1,7262.8
	c-29.2-0.4-52.5-24.7-52.5-54l0-6819.8c0-53,10.4-104.5,30.9-153c19.8-46.8,48.1-88.8,84.2-124.9s78.1-64.4,124.9-84.2
	c29.5-12.5,60.2-21.2,91.6-26.2c32.3-5.1,61.5,19.9,61.5,52.6v0c0,26.3-19.2,48.5-45.2,52.6C224.8,127.6,120,246.3,120,389v6820.6
	C120,7239.2,95.8,7263.2,66.1,7262.8z"/>
<circle id="opacity:100_colorstyle:Bright_00000110463411715973010130000001076094080693486747_" fill="#FFFFFF" cx="63.7" cy="7509.2" r="63.7"/>
</svg>
