<?xml version="1.0" encoding="utf-8"?>
<!-- Generator: Adobe Illustrator 27.8.0, SVG Export Plug-In . SVG Version: 6.00 Build 0)  -->
<svg version="1.1" baseProfile="tiny" id="Layer_1" xmlns="http://www.w3.org/2000/svg" xmlns:xlink="http://www.w3.org/1999/xlink"
	 x="0px" y="0px" viewBox="0 0 362.4 2869.1" overflow="visible" xml:space="preserve">
<path id="opacity:100_colorstyle:Accent1_00000060715536890962689450000007639706584971354522_" fill="#6CB8C7" d="M12.2,135.2
	C5.4,135.2,0,129.7,0,123V95.3C0,42.8,42.8,0,95.3,0H123c6.7,0,12.2,5.4,12.2,12.2s-5.4,12.2-12.2,12.2H95.3c-39.2,0-71,31.9-71,71
	V123C24.3,129.7,18.9,135.2,12.2,135.2z"/>
<path id="opacity:100_colorstyle:Accent1" fill="#6CB8C7" d="M123,2869.1H95.3c-52.6,0-95.3-42.8-95.3-95.3v-27.6
	c0-6.7,5.4-12.2,12.2-12.2s12.2,5.4,12.2,12.2v27.6c0,39.2,31.9,71,71,71H123c6.7,0,12.2,5.4,12.2,12.2S129.7,2869.1,123,2869.1z"/>
</svg>
