<?xml version="1.0" encoding="utf-8"?>
<!-- Generator: Adobe Illustrator 27.8.0, SVG Export Plug-In . SVG Version: 6.00 Build 0)  -->
<svg version="1.1" baseProfile="tiny" id="Layer_1" xmlns="http://www.w3.org/2000/svg" xmlns:xlink="http://www.w3.org/1999/xlink"
	 x="0px" y="0px" viewBox="0 0 403 3618.3" overflow="visible" xml:space="preserve">
<path id="opacity:15_colorstyle:Base" fill="#6CB8C7" d="M119,81.5h165c27.1,0,49.1,22,49.1,49.1v3373.6c0,27.1-22,49.1-49.1,49.1
	H119c-27.1,0-49.1-22-49.1-49.1V130.6C69.9,103.5,91.9,81.5,119,81.5z"/>
<path id="opacity:100_colorstyle:Base" fill="#6CB8C7" d="M390.8,111.4c-6.7,0-12.2-5.4-12.2-12.2c0-41.3-33.6-74.9-74.9-74.9H99.2
	c-41.3,0-74.9,33.6-74.9,74.9c0,6.7-5.4,12.2-12.2,12.2S0,105.9,0,99.2C0,44.5,44.5,0,99.2,0h204.6C358.5,0,403,44.5,403,99.2
	C403,105.9,397.6,111.4,390.8,111.4z"/>
<path id="opacity:100_colorstyle:Base_00000063622521759429965970000015031756369171481999_" fill="#6CB8C7" d="M303.8,3618.3H99.2
	c-54.7,0-99.2-44.5-99.2-99.2c0-6.7,5.4-12.2,12.2-12.2s12.2,5.4,12.2,12.2c0,41.3,33.6,74.9,74.9,74.9h204.6
	c41.3,0,74.9-33.6,74.9-74.9c0-6.7,5.4-12.2,12.2-12.2s12.2,5.4,12.2,12.2C403,3573.8,358.5,3618.3,303.8,3618.3z"/>
<path id="opacity:45_colorstyle:Accent1" fill="#6CB8C7" d="M390.8,3476.8c-6.7,0-12.2-5.4-12.2-12.2V162.7
	c0-6.7,5.4-12.2,12.2-12.2S403,156,403,162.7v3301.9C403,3471.4,397.6,3476.8,390.8,3476.8z"/>
</svg>
