<?xml version="1.0" encoding="utf-8"?>
<!-- Generator: Adobe Illustrator 27.8.0, SVG Export Plug-In . SVG Version: 6.00 Build 0)  -->
<svg version="1.1" baseProfile="tiny" id="Layer_1" xmlns="http://www.w3.org/2000/svg" xmlns:xlink="http://www.w3.org/1999/xlink"
	 x="0px" y="0px" viewBox="0 0 392.5 392.5" overflow="visible" xml:space="preserve">
<path id="opacity:85_colorstyle:Accent1" fill="#6CB8C7" d="M199.3,65.4v1.8c0,1.6-1.3,3-3,3s-3-1.3-3-3v-1.8c0-1.6,1.3-3,3-3
	S199.3,63.8,199.3,65.4z"/>
<path id="opacity:50_colorstyle:Accent1_00000072982179303762275750000010284957008686664110_" fill="#6CB8C7" d="M199.3,79.7v1.8
	c0,1.6-1.3,3-3,3s-3-1.3-3-3v-1.8c0-1.6,1.3-3,3-3S199.3,78.1,199.3,79.7z"/>
<path id="opacity:50_colorstyle:Accent1_00000023969431855792831850000014015984448691565724_" fill="#6CB8C7" d="M199.3,94.1v1.8
	c0,1.6-1.3,3-3,3s-3-1.3-3-3v-1.8c0-1.6,1.3-3,3-3S199.3,92.5,199.3,94.1z"/>
<path id="opacity:50_colorstyle:Accent1_00000139259419868191503460000009808063840131948702_" fill="#6CB8C7" d="M199.3,24.5v1.8
	c0,1.6-1.3,3-3,3s-3-1.3-3-3v-1.8c0-1.6,1.3-3,3-3S199.3,22.9,199.3,24.5z"/>
<path id="opacity:50_colorstyle:Accent1_00000159454629550960698110000012986730312783790475_" fill="#6CB8C7" d="M199.3,38.8v1.8
	c0,1.6-1.3,3-3,3s-3-1.3-3-3v-1.8c0-1.6,1.3-3,3-3S199.3,37.2,199.3,38.8z"/>
<path id="opacity:50_colorstyle:Accent1_00000142870989199591588420000008423708982100717984_" fill="#6CB8C7" d="M199.3,53.2V55
	c0,1.6-1.3,3-3,3s-3-1.3-3-3v-1.8c0-1.6,1.3-3,3-3S199.3,51.6,199.3,53.2z"/>
<path id="opacity:50_colorstyle:Accent1_00000021112184132030919480000009675892956476042129_" fill="#6CB8C7" d="M199.3,108.4v1.8
	c0,1.6-1.3,3-3,3s-3-1.3-3-3v-1.8c0-1.6,1.3-3,3-3S199.3,106.8,199.3,108.4z"/>
<path id="opacity:50_colorstyle:Accent1_00000142159544529612875310000015004269758013314963_" fill="#6CB8C7" d="M199.3,122.7v1.8
	c0,1.6-1.3,3-3,3s-3-1.3-3-3v-1.8c0-1.6,1.3-3,3-3S199.3,121,199.3,122.7z"/>
<path id="opacity:50_colorstyle:Accent1_00000178188135781334020710000002367607734402832317_" fill="#6CB8C7" d="M199.3,137v1.8
	c0,1.6-1.3,3-3,3s-3-1.3-3-3V137c0-1.6,1.3-3,3-3S199.3,135.4,199.3,137z"/>
<path id="opacity:50_colorstyle:Accent1_00000034791552117741691100000009743244472944020133_" fill="#6CB8C7" d="M199.3,151.4v1.8
	c0,1.6-1.3,3-3,3s-3-1.3-3-3v-1.8c0-1.6,1.3-3,3-3S199.3,149.8,199.3,151.4z"/>
<path id="opacity:50_colorstyle:Accent1_00000039098113527956031480000017100328957822742662_" fill="#6CB8C7" d="M199.3,165.7v1.8
	c0,1.6-1.3,3-3,3s-3-1.3-3-3v-1.8c0-1.6,1.3-3,3-3S199.3,164,199.3,165.7z"/>
<path id="opacity:50_colorstyle:Accent1_00000067212218606596996420000005633067264951534998_" fill="#6CB8C7" d="M199.3,180v1.8
	c0,1.6-1.3,3-3,3s-3-1.3-3-3V180c0-1.6,1.3-3,3-3S199.3,178.4,199.3,180z"/>
<path id="opacity:50_colorstyle:Accent1_00000091727249316125371580000005516738144262283149_" fill="#6CB8C7" d="M199.3,194.3v1.8
	c0,1.6-1.3,3-3,3s-3-1.3-3-3v-1.8c0-1.6,1.3-3,3-3S199.3,192.6,199.3,194.3z"/>
<path id="opacity:50_colorstyle:Accent1_00000084525622652444544440000017287138776233431447_" fill="#6CB8C7" d="M199.3,208.7v1.8
	c0,1.6-1.3,3-3,3s-3-1.3-3-3v-1.8c0-1.6,1.3-3,3-3S199.3,207.1,199.3,208.7z"/>
<path id="opacity:50_colorstyle:Accent1_00000107548625758012483150000005506802979937708970_" fill="#6CB8C7" d="M196.3,371
	c-1.7,0-3-1.4-3-3v-1.8c0-1.7,1.3-3,3-3s3,1.4,3,3v1.8C199.3,369.6,198,371,196.3,371z"/>
<path id="opacity:50_colorstyle:Accent1_00000165235444693603920350000001154578749613128871_" fill="#6CB8C7" d="M196.3,356.7
	c-1.7,0-3-1.4-3-3v-1.8c0-1.7,1.3-3,3-3s3,1.4,3,3v1.8C199.3,355.3,198,356.7,196.3,356.7z"/>
<path id="opacity:50_colorstyle:Accent1_00000179622183587725707390000010881996449426456972_" fill="#6CB8C7" d="M196.3,342.4
	c-1.7,0-3-1.4-3-3v-1.8c0-1.7,1.3-3,3-3s3,1.4,3,3v1.8C199.3,341,198,342.4,196.3,342.4z"/>
<path id="opacity:50_colorstyle:Accent1_00000152953821883780938300000004427267886905420172_" fill="#6CB8C7" d="M196.3,328.1
	c-1.7,0-3-1.4-3-3v-1.8c0-1.7,1.3-3,3-3s3,1.4,3,3v1.8C199.3,326.7,198,328.1,196.3,328.1z"/>
<path id="opacity:50_colorstyle:Accent1_00000004512799828349900230000011231489162095099269_" fill="#6CB8C7" d="M196.3,313.7
	c-1.7,0-3-1.4-3-3v-1.8c0-1.7,1.3-3,3-3s3,1.4,3,3v1.8C199.3,312.4,198,313.7,196.3,313.7z"/>
<path id="opacity:50_colorstyle:Accent1_00000173847494134941918400000010094817015502041518_" fill="#6CB8C7" d="M196.3,299.4
	c-1.7,0-3-1.4-3-3v-1.8c0-1.7,1.3-3,3-3s3,1.4,3,3v1.8C199.3,298,198,299.4,196.3,299.4z"/>
<path id="opacity:50_colorstyle:Accent1_00000073715655433181999400000007718224008470317243_" fill="#6CB8C7" d="M196.3,285.1
	c-1.7,0-3-1.4-3-3v-1.8c0-1.7,1.3-3,3-3s3,1.4,3,3v1.8C199.3,283.7,198,285.1,196.3,285.1z"/>
<path id="opacity:50_colorstyle:Accent1_00000173872013797519865420000005381781535659461565_" fill="#6CB8C7" d="M196.3,270.8
	c-1.7,0-3-1.4-3-3V266c0-1.7,1.3-3,3-3s3,1.4,3,3v1.8C199.3,269.5,198,270.8,196.3,270.8z"/>
<path id="opacity:50_colorstyle:Accent1_00000075161102524505490980000003503836813920475064_" fill="#6CB8C7" d="M196.3,256.4
	c-1.7,0-3-1.4-3-3v-1.8c0-1.7,1.3-3,3-3s3,1.4,3,3v1.8C199.3,255,198,256.4,196.3,256.4z"/>
<path id="opacity:50_colorstyle:Accent1_00000161622792305810590130000002053201112484522417_" fill="#6CB8C7" d="M196.3,242.1
	c-1.7,0-3-1.4-3-3v-1.8c0-1.7,1.3-3,3-3s3,1.4,3,3v1.8C199.3,240.8,198,242.1,196.3,242.1z"/>
<path id="opacity:50_colorstyle:Accent1_00000101065184945618109750000014408353167258161029_" fill="#6CB8C7" d="M196.3,227.8
	c-1.7,0-3-1.4-3-3V223c0-1.7,1.3-3,3-3s3,1.4,3,3v1.8C199.3,226.4,198,227.8,196.3,227.8z"/>
<path id="opacity:50_colorstyle:Accent1_00000060029039792344193160000000428579110166196671_" fill="#6CB8C7" d="M327.1,199.3h-1.8
	c-1.6,0-3-1.3-3-3s1.3-3,3-3h1.8c1.6,0,3,1.3,3,3S328.7,199.3,327.1,199.3z"/>
<path id="opacity:50_colorstyle:Accent1_00000152948657821569054680000000259486004757125254_" fill="#6CB8C7" d="M312.8,199.3H311
	c-1.6,0-3-1.3-3-3s1.3-3,3-3h1.8c1.6,0,3,1.3,3,3S314.4,199.3,312.8,199.3z"/>
<path id="opacity:50_colorstyle:Accent1_00000171001286847956883710000011304145697892413577_" fill="#6CB8C7" d="M298.4,199.3h-1.8
	c-1.6,0-3-1.3-3-3s1.3-3,3-3h1.8c1.6,0,3,1.3,3,3S300,199.3,298.4,199.3z"/>
<path id="opacity:50_colorstyle:Accent1_00000026133633380332464490000007911399150139574461_" fill="#6CB8C7" d="M368,199.3h-1.8
	c-1.6,0-3-1.3-3-3s1.3-3,3-3h1.8c1.6,0,3,1.3,3,3S369.6,199.3,368,199.3z"/>
<path id="opacity:50_colorstyle:Accent1_00000121985805388334209920000005185859698840945541_" fill="#6CB8C7" d="M353.7,199.3h-1.8
	c-1.6,0-3-1.3-3-3s1.3-3,3-3h1.8c1.6,0,3,1.3,3,3S355.3,199.3,353.7,199.3z"/>
<path id="opacity:50_colorstyle:Accent1_00000080913757443443132460000012312519337548533654_" fill="#6CB8C7" d="M339.3,199.3h-1.8
	c-1.6,0-3-1.3-3-3s1.3-3,3-3h1.8c1.6,0,3,1.3,3,3S340.9,199.3,339.3,199.3z"/>
<path id="opacity:50_colorstyle:Accent1_00000081641386179231553720000009392592607608139158_" fill="#6CB8C7" d="M284.1,199.3h-1.8
	c-1.6,0-3-1.3-3-3s1.3-3,3-3h1.8c1.6,0,3,1.3,3,3S285.7,199.3,284.1,199.3z"/>
<path id="opacity:50_colorstyle:Accent1_00000075138063005382123100000018189069438488792198_" fill="#6CB8C7" d="M269.8,199.3H268
	c-1.6,0-3-1.3-3-3s1.3-3,3-3h1.8c1.6,0,3,1.3,3,3S271.5,199.3,269.8,199.3z"/>
<path id="opacity:50_colorstyle:Accent1_00000147910825321193589220000012026324537608296608_" fill="#6CB8C7" d="M255.5,199.3h-1.8
	c-1.6,0-3-1.3-3-3s1.3-3,3-3h1.8c1.6,0,3,1.3,3,3S257.1,199.3,255.5,199.3z"/>
<path id="opacity:50_colorstyle:Accent1_00000135691447049070221890000006768338884514179494_" fill="#6CB8C7" d="M241.1,199.3h-1.8
	c-1.6,0-3-1.3-3-3s1.3-3,3-3h1.8c1.6,0,3,1.3,3,3S242.7,199.3,241.1,199.3z"/>
<path id="opacity:50_colorstyle:Accent1_00000124845586519962068700000008418554613847127716_" fill="#6CB8C7" d="M226.8,199.3H225
	c-1.6,0-3-1.3-3-3s1.3-3,3-3h1.8c1.6,0,3,1.3,3,3S228.5,199.3,226.8,199.3z"/>
<path id="opacity:50_colorstyle:Accent1_00000109004379345725769020000017276810291198191787_" fill="#6CB8C7" d="M212.5,199.3h-1.8
	c-1.6,0-3-1.3-3-3s1.3-3,3-3h1.8c1.6,0,3,1.3,3,3S214.1,199.3,212.5,199.3z"/>
<path id="opacity:50_colorstyle:Accent1_00000164474988040258287040000003296270560362962054_" fill="#6CB8C7" d="M183.8,199.3H182
	c-1.6,0-3-1.3-3-3s1.3-3,3-3h1.8c1.6,0,3,1.3,3,3S185.4,199.3,183.8,199.3z"/>
<path id="opacity:50_colorstyle:Accent1_00000125578913312268844840000004128388033888928133_" fill="#6CB8C7" d="M21.5,196.3
	c0-1.7,1.4-3,3-3h1.8c1.7,0,3,1.3,3,3s-1.4,3-3,3h-1.8C22.9,199.3,21.5,198,21.5,196.3z"/>
<path id="opacity:50_colorstyle:Accent1_00000062175126823002838030000003112337017304674199_" fill="#6CB8C7" d="M35.8,196.3
	c0-1.7,1.4-3,3-3h1.8c1.7,0,3,1.3,3,3s-1.4,3-3,3h-1.8C37.2,199.3,35.8,198,35.8,196.3z"/>
<path id="opacity:50_colorstyle:Accent1_00000103969627198794456160000002472192569212048017_" fill="#6CB8C7" d="M50.1,196.3
	c0-1.7,1.4-3,3-3h1.8c1.7,0,3,1.3,3,3s-1.4,3-3,3h-1.8C51.5,199.3,50.1,198,50.1,196.3z"/>
<path id="opacity:50_colorstyle:Accent1_00000078044354036612865290000007368596501884500873_" fill="#6CB8C7" d="M64.4,196.3
	c0-1.7,1.4-3,3-3h1.8c1.7,0,3,1.3,3,3s-1.4,3-3,3h-1.8C65.8,199.3,64.4,198,64.4,196.3z"/>
<path id="opacity:50_colorstyle:Accent1_00000150101968042668311730000003835363709970601114_" fill="#6CB8C7" d="M78.8,196.3
	c0-1.7,1.4-3,3-3h1.8c1.7,0,3,1.3,3,3s-1.4,3-3,3h-1.8C80.1,199.3,78.8,198,78.8,196.3z"/>
<path id="opacity:50_colorstyle:Accent1_00000152944073254539921470000008376638004866829464_" fill="#6CB8C7" d="M93.1,196.3
	c0-1.7,1.4-3,3-3h1.8c1.7,0,3,1.3,3,3s-1.4,3-3,3h-1.8C94.5,199.3,93.1,198,93.1,196.3z"/>
<path id="opacity:50_colorstyle:Accent1_00000052092292473407863790000002155712928850844575_" fill="#6CB8C7" d="M107.4,196.3
	c0-1.7,1.4-3,3-3h1.8c1.7,0,3,1.3,3,3s-1.4,3-3,3h-1.8C108.8,199.3,107.4,198,107.4,196.3z"/>
<path id="opacity:50_colorstyle:Accent1_00000108289601427259798760000003778116625434926768_" fill="#6CB8C7" d="M121.7,196.3
	c0-1.7,1.4-3,3-3h1.8c1.7,0,3,1.3,3,3s-1.4,3-3,3h-1.8C123,199.3,121.7,198,121.7,196.3z"/>
<path id="opacity:50_colorstyle:Accent1_00000138532293990454335290000010331997091246798484_" fill="#6CB8C7" d="M136.1,196.3
	c0-1.7,1.4-3,3-3h1.8c1.7,0,3,1.3,3,3s-1.4,3-3,3h-1.8C137.5,199.3,136.1,198,136.1,196.3z"/>
<path id="opacity:50_colorstyle:Accent1_00000116212871506134218380000012014719818778901919_" fill="#6CB8C7" d="M150.4,196.3
	c0-1.7,1.4-3,3-3h1.8c1.7,0,3,1.3,3,3s-1.4,3-3,3h-1.8C151.7,199.3,150.4,198,150.4,196.3z"/>
<path id="opacity:50_colorstyle:Accent1" fill="#6CB8C7" d="M164.7,196.3c0-1.7,1.4-3,3-3h1.8c1.7,0,3,1.3,3,3s-1.4,3-3,3h-1.8
	C166.1,199.3,164.7,198,164.7,196.3z"/>
</svg>
