<?xml version="1.0" encoding="utf-8"?>
<!-- Generator: Adobe Illustrator 27.8.0, SVG Export Plug-In . SVG Version: 6.00 Build 0)  -->
<svg version="1.1" baseProfile="tiny" id="Layer_1" xmlns="http://www.w3.org/2000/svg" xmlns:xlink="http://www.w3.org/1999/xlink"
	 x="0px" y="0px" viewBox="0 0 74.1 20.1" overflow="visible" xml:space="preserve">
<path id="opacity:100_colorstyle:Critical" fill="#DB193B" d="M59.1,0.2l-4.9,6.3C52.4,8.7,49.8,10,47,10H25.8
	c-2.8,0-5.5-1.3-7.2-3.5l-4.9-6.3H59.1z"/>
<path id="opacity:100_colorstyle:Bright" fill="#FFFFFF" d="M52.4,20.1H21.7c-4.9,0-9.4-2.2-12.4-6L0.4,2.7C-0.2,2-0.1,0.9,0.6,0.4
	C1.4-0.2,2.4-0.1,3,0.6l8.9,11.3c2.4,3,6,4.8,9.8,4.8h30.7c3.9,0,7.4-1.7,9.8-4.8l8.9-11.3c0.6-0.7,1.6-0.8,2.3-0.3
	c0.7,0.6,0.8,1.6,0.3,2.3L64.8,14C61.8,17.9,57.3,20.1,52.4,20.1z"/>
</svg>
