<?xml version="1.0" encoding="utf-8"?>
<!-- Generator: Adobe Illustrator 27.8.0, SVG Export Plug-In . SVG Version: 6.00 Build 0)  -->
<svg version="1.1" baseProfile="tiny" id="animated"
	 xmlns="http://www.w3.org/2000/svg" xmlns:xlink="http://www.w3.org/1999/xlink" x="0px" y="0px" viewBox="0 0 100.9 127.5"
	 overflow="visible" xml:space="preserve">
<g id="_x31__00000057854392559573341090000006311743309225224596_">
	<path id="colorstyle:Base_00000065775198992161635400000001202195579797776311_" fill="#FFFFFF" d="M26.8,65.8l7.6,7.5L8.6,100
		l-7.9-7.6l11.2-11.5C5.3,72.6,1.4,62,1.4,50.6s3.9-22,10.5-30.3L0,8.6l8.2-8.2l26.3,26.4l-7.9,8l-6.4-6.2c-4.6,6-7.2,13.8-7.2,22
		s2.7,15.9,7.2,22.1L26.8,65.8z"/>
	<path id="colorstyle:Base_00000181053597164393592410000009799133765968311205_" fill="#FFFFFF" d="M100.9,91.5l-8.1,8.3L66.4,73.5
		l7.9-8.1l6.9,6.8c4.3-6.1,6.8-13.7,6.8-21.6c0-8.6-2.9-16.4-7.6-22.7L74,34.4l-7.8-7.6L92.3,0l7.9,7.8L88.5,19.7
		c6.9,8.4,11.1,19.2,11.1,30.9c0,11.2-3.8,21.5-10.2,29.7L100.9,91.5z"/>
	<circle id="opacity:30_colorstyle:Positive" fill="#FFFFFF" cx="50.5" cy="50.6" r="7.9"/>
</g>
<g id="_x30__00000143616879962195521950000002065610265348523430_" display="none">
	<path id="colorstyle:Base_00000075865982050287237200000018094422022824924545_" display="inline" fill="#FFFFFF" d="M26.8,65.8
		l7.6,7.5L8.6,100l-7.9-7.6l11.2-11.5C5.3,72.6,1.4,62,1.4,50.6s3.9-22,10.5-30.3L0,8.6l8.2-8.2l26.3,26.4l-7.9,8l-6.4-6.2
		c-4.6,6-7.2,13.8-7.2,22s2.7,15.9,7.2,22.1L26.8,65.8z"/>
	<path id="colorstyle:Base" display="inline" fill="#FFFFFF" d="M100.9,91.5l-8.1,8.3L66.4,73.5l7.9-8.1l6.9,6.8
		c4.3-6.1,6.8-13.7,6.8-21.6c0-8.6-2.9-16.4-7.6-22.7L74,34.4l-7.8-7.6L92.3,0l7.9,7.8L88.5,19.7c6.9,8.4,11.1,19.2,11.1,30.9
		c0,11.2-3.8,21.5-10.2,29.7L100.9,91.5z"/>
	<circle id="colorstyle:Positive" display="inline" fill="#FFFFFF" cx="50.5" cy="50.6" r="7.9"/>
	<polygon id="colorstyle:Positive_00000144313382443939235060000011839625360730272651_" display="inline" fill="#FFFFFF" points="
		75.1,108.5 58,108.5 58,127.5 42.9,127.5 42.9,108.5 25.8,108.5 50.5,83.2 	"/>
</g>
</svg>
