<?xml version="1.0" encoding="utf-8"?>
<!-- Generator: Adobe Illustrator 27.8.0, SVG Export Plug-In . SVG Version: 6.00 Build 0)  -->
<svg version="1.1" baseProfile="tiny" id="Layer_1" xmlns="http://www.w3.org/2000/svg" xmlns:xlink="http://www.w3.org/1999/xlink"
	 x="0px" y="0px" viewBox="0 0 406.7 7572.8" overflow="visible" xml:space="preserve">
<path id="opacity:70_colorstyle:Base_00000153687733978712751680000017935330009808044943_" fill="#6CB8C7" d="M120,363.3v6820.6
	c0,142.7,104.8,261.4,241.5,283.1c26,4.1,45.2,26.3,45.2,52.6l0,0c0,32.7-29.2,57.7-61.5,52.6c-31.4-5-62.1-13.7-91.6-26.2
	c-46.8-19.8-88.8-48.1-124.9-84.2s-64.4-78.1-84.2-124.9c-20.5-48.5-30.9-100-30.9-153V364.1c0-29.3,23.3-53.6,52.5-54
	C95.8,309.7,120,333.7,120,363.3z"/>
<circle id="opacity:100_colorstyle:Bright_00000110463411715973010130000001076094080693486747_" fill="#FFFFFF" cx="63.7" cy="63.7" r="63.7"/>
</svg>
