<?xml version="1.0" encoding="utf-8"?>
<!-- Generator: Adobe Illustrator 27.8.0, SVG Export Plug-In . SVG Version: 6.00 Build 0)  -->
<svg version="1.1" baseProfile="tiny" id="Layer_1" xmlns="http://www.w3.org/2000/svg" xmlns:xlink="http://www.w3.org/1999/xlink"
	 x="0px" y="0px" viewBox="0 0 2164.4 562.3" overflow="visible" xml:space="preserve">
<path id="opacity:100_colorstyle:Critical" fill="#FF002E" d="M2164.4,281.1c0,155.2-125.8,281.1-281.1,281.1
	c-88.5,0-167.5-40.9-219-105c-30.8-38.3-77.6-60.1-126.7-60.1H626c-49.3,0-95.5,22.7-126.5,60.9c-50.6,62.5-127.6,102.8-214,104.1
	C127,564.7-2.8,434.4,0,276C2.8,123.1,127.6,0,281.1,0c88.5,0,167.5,40.9,219,105c30.8,38.3,77.6,60.1,126.7,60.1h910.8
	c49.1,0,95.9-21.8,126.7-60.1c51.5-64,130.5-105,219-105C2038.6,0,2164.4,125.9,2164.4,281.1z"/>
</svg>
