<?xml version="1.0" encoding="utf-8"?>
<!-- Generator: Adobe Illustrator 28.5.0, SVG Export Plug-In . SVG Version: 9.03 Build 54727)  -->
<svg version="1.1" baseProfile="tiny" id="Layer_1" xmlns="http://www.w3.org/2000/svg" xmlns:xlink="http://www.w3.org/1999/xlink"
	 x="0px" y="0px" viewBox="0 0 97.3 97.3" overflow="visible" xml:space="preserve">
<path id="opacity:10_colorstyle:Positive" fill="#DDDDDD" d="M94.8,50.9H81.3c-1.2,0-2.2-1-2.2-2.2s1-2.2,2.2-2.2h13.5
	c1.2,0,2.2,1,2.2,2.2C97.1,49.9,96.1,50.9,94.8,50.9z"/>
<path id="opacity:40_colorstyle:Positive" fill="#A3A3A3" d="M81.3,83.5c-0.6,0-1.2-0.2-1.6-0.7l-9.6-9.6c-0.9-0.9-0.9-2.3,0-3.2
	c0.9-0.9,2.3-0.9,3.2,0l9.6,9.6c0.9,0.9,0.9,2.3,0,3.2C82.4,83.3,81.9,83.5,81.3,83.5z"/>
<path id="opacity:70_colorstyle:Positive" fill="#545454" d="M48.6,97.1c-1.2,0-2.2-1-2.2-2.2V81.3c0-1.2,1-2.2,2.2-2.2
	s2.2,1,2.2,2.2v13.5C50.9,96.1,49.9,97.1,48.6,97.1z"/>
<path id="opacity:25_colorstyle:Positive" fill="#BCBCBC" d="M91.1,69c-0.3,0-0.6-0.1-0.9-0.2l-12.4-5.3c-1.1-0.5-1.7-1.8-1.2-2.9
	c0.5-1.1,1.8-1.7,2.9-1.2L92,64.7c1.1,0.5,1.7,1.8,1.2,2.9C92.8,68.5,92,69,91.1,69z"/>
<path id="opacity:55_colorstyle:Positive" fill="#707070" d="M65.9,93.7c-0.9,0-1.7-0.5-2.1-1.4l-5-12.5c-0.5-1.2,0.1-2.5,1.2-2.9
	c1.1-0.5,2.5,0.1,2.9,1.2l5,12.5c0.5,1.2-0.1,2.5-1.2,2.9C66.4,93.7,66.2,93.7,65.9,93.7z"/>
<path id="opacity:85_colorstyle:Positive" fill="#232323" d="M30.5,93.4c-0.3,0-0.6-0.1-0.9-0.2c-1.1-0.5-1.7-1.8-1.2-3l5.3-12.4
	c0.5-1.1,1.8-1.7,2.9-1.2c1.1,0.5,1.7,1.8,1.2,3L32.6,92C32.2,92.9,31.4,93.4,30.5,93.4z"/>
<path id="colorstyle:Positive" d="M48.6,18.3c-1.2,0-2.2-1-2.2-2.2V2.5c0-1.2,1-2.2,2.2-2.2s2.2,1,2.2,2.2V16
	C50.9,17.2,49.9,18.3,48.6,18.3z M73.3,27.2l9.6-9.6c0.9-0.9,0.9-2.3,0-3.2s-2.3-0.9-3.2,0L70.1,24c-0.9,0.9-0.9,2.3,0,3.2
	c0.4,0.4,1,0.7,1.6,0.7C72.3,27.8,72.9,27.6,73.3,27.2z M17.6,82.9l9.6-9.6c0.9-0.9,0.9-2.3,0-3.2c-0.9-0.9-2.3-0.9-3.2,0l-9.6,9.6
	c-0.9,0.9-0.9,2.3,0,3.2c0.4,0.4,1,0.7,1.6,0.7S17.2,83.3,17.6,82.9z M18.3,48.7c0-1.2-1-2.2-2.2-2.2H2.5c-1.2,0-2.2,1-2.2,2.2
	s1,2.2,2.2,2.2H16C17.2,50.9,18.3,49.9,18.3,48.7z M27.2,27.2c0.9-0.9,0.9-2.3,0-3.2l-9.6-9.6c-0.9-0.9-2.3-0.9-3.2,0
	s-0.9,2.3,0,3.2l9.6,9.6c0.4,0.4,1,0.7,1.6,0.7C26.1,27.8,26.7,27.6,27.2,27.2z M63.5,19.5l5.3-12.4c0.5-1.1,0-2.5-1.2-2.9
	c-1.1-0.5-2.5,0-2.9,1.2l-5.3,12.4c-0.5,1.1,0,2.5,1.2,3c0.3,0.1,0.6,0.2,0.9,0.2C62.3,20.9,63.1,20.3,63.5,19.5z M79.8,38.6
	l12.5-5.1c1.2-0.5,1.7-1.8,1.2-2.9c-0.5-1.2-1.8-1.7-2.9-1.2l-12.5,5.1c-1.2,0.5-1.7,1.8-1.2,2.9c0.4,0.9,1.2,1.4,2.1,1.4
	C79.2,38.7,79.5,38.7,79.8,38.6z M6.7,68l12.5-5c1.2-0.5,1.7-1.8,1.2-2.9c-0.5-1.2-1.8-1.7-2.9-1.2L5,63.8c-1.2,0.5-1.7,1.8-1.2,2.9
	c0.4,0.9,1.2,1.4,2.1,1.4C6.1,68.1,6.4,68.1,6.7,68z M20.7,36.7c0.5-1.1,0-2.5-1.2-2.9L7.1,28.5c-1.1-0.5-2.5,0-2.9,1.2
	c-0.5,1.1,0,2.5,1.2,2.9l12.4,5.3c0.3,0.1,0.6,0.2,0.9,0.2C19.5,38.1,20.3,37.6,20.7,36.7z M37.3,20.4c1.2-0.5,1.7-1.8,1.2-2.9
	L33.5,5c-0.5-1.2-1.8-1.7-2.9-1.2c-1.2,0.5-1.7,1.8-1.2,2.9l5,12.5c0.4,0.9,1.2,1.4,2.1,1.4C36.7,20.6,37,20.6,37.3,20.4z"/>
</svg>
