<?xml version="1.0" encoding="utf-8"?>
<!-- Generator: Adobe Illustrator 28.5.0, SVG Export Plug-In . SVG Version: 9.03 Build 54727)  -->
<svg version="1.1" baseProfile="tiny" id="Layer_1" xmlns="http://www.w3.org/2000/svg" xmlns:xlink="http://www.w3.org/1999/xlink"
	 x="0px" y="0px" viewBox="0 0 14.9 12.4" overflow="visible" xml:space="preserve">
<path fill="#CBFFF2" d="M14.2,10.9H9.1c-1.4,0-2.6-1.2-2.6-2.6V2.6l3.6,3.6c0.3,0.3,0.8,0.3,1.1,0c0.3-0.3,0.3-0.8,0-1.1L6.2,0.2
	C6.2,0.2,6.1,0.1,6,0.1C5.8,0,5.6,0,5.4,0.1c-0.1,0-0.2,0.1-0.3,0.2L0.2,5.1c-0.3,0.3-0.3,0.8,0,1.1c0.2,0.2,0.3,0.2,0.5,0.2
	s0.4-0.1,0.5-0.2l3.6-3.6v5.6c0,2.3,1.9,4.2,4.2,4.2h5.1c0.4,0,0.8-0.3,0.8-0.8S14.6,10.9,14.2,10.9z"/>
</svg>
