<?xml version="1.0" encoding="utf-8"?>
<!-- Generator: Adobe Illustrator 28.5.0, SVG Export Plug-In . SVG Version: 9.03 Build 54727)  -->
<svg version="1.1" baseProfile="tiny" id="Layer_1" xmlns="http://www.w3.org/2000/svg" xmlns:xlink="http://www.w3.org/1999/xlink"
	 x="0px" y="0px" viewBox="0 0 11.4 11.4" overflow="visible" xml:space="preserve">
<path fill="#CBFFF2" d="M6.8,5.7l4.4-4.4c0.3-0.3,0.3-0.8,0-1.1c-0.3-0.3-0.8-0.3-1.1,0L5.7,4.6L1.3,0.2C1-0.1,0.5-0.1,0.2,0.2
	c-0.3,0.3-0.3,0.8,0,1.1l4.4,4.4l-4.4,4.4c-0.3,0.3-0.3,0.8,0,1.1c0.2,0.2,0.3,0.2,0.5,0.2s0.4-0.1,0.5-0.2l4.4-4.4l4.4,4.4
	c0.2,0.2,0.3,0.2,0.5,0.2s0.4-0.1,0.5-0.2c0.3-0.3,0.3-0.8,0-1.1L6.8,5.7z"/>
</svg>
