<?xml version="1.0" encoding="utf-8"?>
<!-- Generator: Adobe Illustrator 28.5.0, SVG Export Plug-In . SVG Version: 9.03 Build 54727)  -->
<svg version="1.1" baseProfile="tiny" id="Layer_1" xmlns="http://www.w3.org/2000/svg" xmlns:xlink="http://www.w3.org/1999/xlink"
	 x="0px" y="0px" viewBox="0 0 111.8 97.5" overflow="visible" xml:space="preserve">
<path id="opacity:10_00000077291113608867236570000015706096267395403932_" fill="#CCCCCC" d="M95.4,87h-79l39.5-68.4L95.4,87z"/>
<path d="M109.2,97.5H2.6c-0.9,0-1.8-0.5-2.2-1.3c-0.5-0.8-0.5-1.8,0-2.6L53.7,1.3C54.1,0.5,55,0,55.9,0c0.9,0,1.8,0.5,2.2,1.3
	l53.3,92.4c0.5,0.8,0.5,1.8,0,2.6C111,97,110.1,97.5,109.2,97.5z M7,92.4h97.8L55.9,7.7L7,92.4z M51,71.5H60v9.1H51V71.5z
	 M53.8,64.5l-2.5-27.3h8.4l-2.5,27.3H53.8z"/>
</svg>
