<?xml version="1.0" encoding="utf-8"?>
<!-- Generator: Adobe Illustrator 28.5.0, SVG Export Plug-In . SVG Version: 9.03 Build 54727)  -->
<svg version="1.1" baseProfile="tiny" id="Layer_1" xmlns="http://www.w3.org/2000/svg" xmlns:xlink="http://www.w3.org/1999/xlink"
	 x="0px" y="0px" viewBox="0 0 97.5 97.5" overflow="visible" xml:space="preserve">
<path id="opacity:20_colorstyle:Positive" fill="#CCCCCC" d="M88.7,48.8c0,22.1-17.9,40-40,40s-40-17.9-40-40s17.9-40,40-40
	S88.7,26.7,88.7,48.8z"/>
<path id="colorstyle:Positive" d="M48.8,97.5C21.9,97.5,0,75.7,0,48.8S21.9,0,48.8,0s48.8,21.9,48.8,48.8S75.7,97.5,48.8,97.5z
	 M48.8,4.6C24.4,4.6,4.6,24.4,4.6,48.8S24.4,93,48.8,93C73.1,93,93,73.1,93,48.8S73.1,4.6,48.8,4.6z M46.3,50
	c-0.6,0-1.2,0.2-1.7,0.7l-5.8,5.8V36.8c0-1.3-1.1-2.4-2.4-2.4S34,35.5,34,36.8v19.7l-5.8-5.8c-0.9-0.9-2.5-0.9-3.4,0s-0.9,2.5,0,3.4
	l9.9,9.9c0.1,0.1,0.2,0.2,0.4,0.3c0,0,0,0,0.1,0c0.1,0.1,0.2,0.1,0.3,0.2h0.1c0.1,0,0.2,0.1,0.3,0.1c0.2,0,0.3,0,0.5,0s0.3,0,0.5,0
	c0.1,0,0.2-0.1,0.3-0.1h0.1c0.1-0.1,0.2-0.1,0.3-0.2c0,0,0,0,0.1,0c0.1-0.1,0.3-0.2,0.4-0.3l9.9-9.9c0.9-0.9,0.9-2.5,0-3.4
	C47.5,50.3,46.9,50,46.3,50z M71.8,38.8c0-1.3-1.1-2.4-2.4-2.4h-19c-1.3,0-2.4,1.1-2.4,2.4s1.1,2.4,2.4,2.4h19
	C70.7,41.2,71.8,40.1,71.8,38.8z M69.4,57.4H56.8c-1.3,0-2.4,1.1-2.4,2.4c0,1.3,1.1,2.4,2.4,2.4h12.6c1.3,0,2.4-1.1,2.4-2.4
	C71.8,58.4,70.7,57.4,69.4,57.4z"/>
</svg>
