<?xml version="1.0" encoding="utf-8"?>
<!-- Generator: Adobe Illustrator 28.5.0, SVG Export Plug-In . SVG Version: 9.03 Build 54727)  -->
<svg version="1.1" baseProfile="tiny" id="Layer_1" xmlns="http://www.w3.org/2000/svg" xmlns:xlink="http://www.w3.org/1999/xlink"
	 x="0px" y="0px" viewBox="0 0 945.5 938.3" overflow="visible" xml:space="preserve">
<path id="opacity:1_colorstyle:Accent1" fill="#CCFFEC" d="M939.7,919l4.5,4.5c1.7,1.7,1.7,4.4,0,6.1l0,0c-1.7,1.7-4.4,1.7-6.1,0
	l-5.8-5.8c-0.8-0.8-1.9-1.3-3-1.3H16.1c-1.1,0-2.2,0.5-3,1.3l-5.8,5.8c-1.7,1.7-4.4,1.7-6.1,0l0,0c-1.7-1.7-1.7-4.4,0-6.1l4.5-4.5
	c0.8-0.8,1.3-1.9,1.3-3V24.7c0-1.1-0.5-2.2-1.3-3l-4.5-4.5c-1.7-1.7-1.7-4.4,0-6.1l0,0c1.7-1.7,4.4-1.7,6.1,0l5.7,5.7
	c0.8,0.8,1.9,1.3,3,1.3h913.3c1.1,0,2.2-0.5,3-1.3l5.7-5.7c1.7-1.7,4.4-1.7,6.1,0l0,0c1.7,1.7,1.7,4.4,0,6.1l-4.5,4.5
	c-0.8,0.8-1.3,1.9-1.3,3V916C938.5,917.1,938.9,918.2,939.7,919z"/>
<path id="opacity:100_colorstyle:Positive" fill="#2BFF95" d="M943.3,14.2c0,1.1-0.9,2-2,2c-1.1,0-2-0.9-2-2s0.9-2,2-2
	C942.3,12.1,943.3,13.1,943.3,14.2z M941.4,924.3c-1.1,0-2,0.9-2,2c0,1.1,0.9,2,2,2c1.1,0,2-0.9,2-2
	C943.4,925.2,942.5,924.3,941.4,924.3z M4.6,12.6c-1.1,0-2,0.9-2,2s0.9,2,2,2s2-0.9,2-2S5.7,12.6,4.6,12.6z M4.6,924.3
	c-1.1,0-2,0.9-2,2c0,1.1,0.9,2,2,2s2-0.9,2-2C6.7,925.2,5.7,924.3,4.6,924.3z"/>
<path id="opacity:100_colorstyle:Positive_00000077302842008926599470000010022219044245856429_" fill="#2BFF95" d="M935.2,938.3
	H9.7L16,932c0.8-0.7,1.8-1.2,2.8-1.2h907.4c1.1,0,2.1,0.4,2.8,1.2L935.2,938.3z"/>
<path id="opacity:10_colorstyle:Positive" fill="#2BFF95" d="M920.3,9.6h-11.7c-0.5,0-1-0.4-1-1s0.4-1,1-1h11.7
	c0.8,0,1.6-0.3,2.2-0.9l6.4-6.4c0.4-0.4,1-0.4,1.4,0c0.4,0.4,0.4,1,0,1.4l-6.4,6.4C922.9,9.1,921.6,9.6,920.3,9.6z M903.5,8.6
	c0-0.5-0.4-1-1-1H854c-0.5,0-1,0.4-1,1s0.4,1,1,1h48.5C903,9.6,903.5,9.1,903.5,8.6z M848.9,8.6c0-0.5-0.4-1-1-1h-48.5
	c-0.5,0-1,0.4-1,1s0.4,1,1,1h48.5C848.5,9.6,848.9,9.1,848.9,8.6z M794.3,8.6c0-0.5-0.4-1-1-1h-48.5c-0.5,0-1,0.4-1,1s0.4,1,1,1
	h48.5C793.9,9.6,794.3,9.1,794.3,8.6z M739.8,8.6c0-0.5-0.4-1-1-1h-48.5c-0.5,0-1,0.4-1,1s0.4,1,1,1h48.5
	C739.3,9.6,739.8,9.1,739.8,8.6z M685.2,8.6c0-0.5-0.4-1-1-1h-48.5c-0.5,0-1,0.4-1,1s0.4,1,1,1h48.5C684.8,9.6,685.2,9.1,685.2,8.6z
	 M303.3,8.6c0-0.5-0.4-1-1-1h-48.5c-0.5,0-1,0.4-1,1s0.4,1,1,1h48.5C302.9,9.6,303.3,9.1,303.3,8.6z M630.7,8.6c0-0.5-0.4-1-1-1
	h-322c-0.5,0-1,0.4-1,1s0.4,1,1,1h322C630.2,9.6,630.7,9.1,630.7,8.6z M248.8,8.6c0-0.5-0.4-1-1-1h-48.5c-0.5,0-1,0.4-1,1s0.4,1,1,1
	h48.5C248.3,9.6,248.8,9.1,248.8,8.6z M194.2,8.6c0-0.5-0.4-1-1-1h-48.5c-0.5,0-1,0.4-1,1s0.4,1,1,1h48.5
	C193.8,9.6,194.2,9.1,194.2,8.6z M139.6,8.6c0-0.5-0.4-1-1-1H90.2c-0.5,0-1,0.4-1,1s0.4,1,1,1h48.5C139.2,9.6,139.6,9.1,139.6,8.6z
	 M85.1,8.6c0-0.5-0.4-1-1-1H35.6c-0.5,0-1,0.4-1,1s0.4,1,1,1h48.5C84.6,9.6,85.1,9.1,85.1,8.6z M30.5,8.6c0-0.5-0.4-1-1-1H17.8
	c-0.8,0-1.6-0.3-2.2-0.9L9.2,0.3c-0.4-0.4-1-0.4-1.4,0s-0.4,1,0,1.4l6.4,6.4c0.9,0.9,2.2,1.5,3.5,1.5h11.7
	C30.1,9.6,30.5,9.1,30.5,8.6z"/>
</svg>
