<?xml version="1.0" encoding="utf-8"?>
<!-- Generator: Adobe Illustrator 28.5.0, SVG Export Plug-In . SVG Version: 9.03 Build 54727)  -->
<svg version="1.1" baseProfile="tiny" id="Layer_1" xmlns="http://www.w3.org/2000/svg" xmlns:xlink="http://www.w3.org/1999/xlink"
	 x="0px" y="0px" viewBox="0 0 130.2 26.3" overflow="visible" xml:space="preserve">
<rect id="colorstyle:Bright_opacity:100_00000007419714232473725670000011157537646370767039_" x="126.2" y="9.6" fill="#FFFFFF" width="1" height="2"/>
<rect id="colorstyle:Bright_opacity:100_00000019657295539065413680000000023886542156310703_" x="129.2" y="9.6" fill="#FFFFFF" width="1" height="2"/>
<rect id="colorstyle:Bright_opacity:100_00000047024585584120575450000013933686039104213943_" x="122.5" y="9.6" fill="#FFFFFF" width="1" height="2"/>
<rect id="colorstyle:Bright_opacity:100_00000076568583226232498960000014614073471229934980_" x="59.6" y="9.6" fill="#FFFFFF" width="1" height="2"/>
<rect id="colorstyle:Base_opacity:100_00000171000614850360846220000005384904164037072054_" x="60.6" y="11" fill="#FFFFFF" width="61.9" height="0.6"/>
<rect id="colorstyle:Base_opacity:100" x="60.6" y="9.6" fill="#FFFFFF" width="61.9" height="0.6"/>
<polygon id="colorstyle:Base_opacity:100_00000023974201216049408990000001862594582889295030_" fill="#FFFFFF" points="58.5,9.6 
	58.5,11.6 19.2,11.6 19.2,9.5 19.3,9.6 "/>
<path id="colorstyle:Base_opacity:100_00000061436837887470016380000006522084779191245976_" fill="#FFFFFF" d="M33.8,14.5h-3.9
	c-0.6,0-1.1-0.5-1.1-1.1v-0.3h3.9c0.6,0,1.1,0.5,1.1,1.1V14.5z"/>
<rect id="colorstyle:Bright_opacity:100_00000123414036328058799870000004201378721374446257_" x="17.6" y="9.6" fill="#FFFFFF" width="0.9" height="1.7"/>
<rect id="colorstyle:Bright_opacity:100_00000093885140440329990460000010087918843417022886_" x="9.5" y="2.3" fill="#FFFFFF" width="1.3" height="0.8"/>
<rect id="colorstyle:Bright_opacity:100_00000116230045782144516270000000495286101879671712_" x="9.5" y="0.6" fill="#FFFFFF" width="1.3" height="0.8"/>
<path id="colorstyle:Base_opacity:100_00000070094240939014538970000007572675996054955956_" d="M16.2,11.1h-1.8
	c-2.7,0-4.8-2.1-4.8-4.7V4.3h1.3v2c0,2,1.6,3.5,3.5,3.5h1.8V11.1z"/>
</svg>
