<?xml version="1.0" encoding="utf-8"?>
<!-- Generator: Adobe Illustrator 27.9.0, SVG Export Plug-In . SVG Version: 6.00 Build 0)  -->
<svg version="1.1" baseProfile="tiny" id="Layer_1" xmlns="http://www.w3.org/2000/svg" xmlns:xlink="http://www.w3.org/1999/xlink"
	 x="0px" y="0px" viewBox="0 0 1834.2 955.8" overflow="visible" xml:space="preserve">
<path fill="#FFFFFF" d="M1812.1,955.8H69.4L0,886.5V22.2L22.2,0h642.1c4.5,0,8.8,1.9,11.9,5.1L688.6,19c2.7,2.8,6.5,4.5,10.4,4.5
	h436.3c4,0,7.9-1.7,10.6-4.7L1157,5.4c3.1-3.4,7.5-5.4,12.1-5.4h643l22.2,22.2v911.5L1812.1,955.8z M70.2,953.8h1741l21-21V23
	l-21-21H1169c-4,0-7.9,1.7-10.6,4.7l-11.2,13.5c-3.1,3.4-7.5,5.4-12.1,5.4H698.9c-4.5,0-8.8-1.9-11.9-5.1l-12.4-14
	C672,3.6,668.2,2,664.3,2H23L2,23v862.6L70.2,953.8z"/>
</svg>
