<?xml version="1.0" encoding="utf-8"?>
<!-- Generator: Adobe Illustrator 27.9.0, SVG Export Plug-In . SVG Version: 6.00 Build 0)  -->
<svg version="1.1" baseProfile="tiny" id="Layer_1" xmlns="http://www.w3.org/2000/svg" xmlns:xlink="http://www.w3.org/1999/xlink"
	 x="0px" y="0px" viewBox="0 0 1827 952" overflow="visible" xml:space="preserve">
<path fill="#FFFFFF" d="M10,1h590c2.2,0,4.3,0.8,6,2.3l14.9,13.3c1.7,1.5,3.8,2.3,6,2.3h572.5c2.2,0,4.3-0.8,6-2.3l14.9-13.3
	c1.7-1.5,3.8-2.3,6-2.3H1817c5,0,9,4,9,9v932c0,5-4,9-9,9l0,0H10c-5,0-9-4-9-9l0,0V10C1,5,5,1,10,1"/>
</svg>
