<?xml version="1.0" encoding="utf-8"?>
<!-- Generator: Adobe Illustrator 28.7.4, SVG Export Plug-In . SVG Version: 9.03 Build 55973)  -->
<svg version="1.1" baseProfile="tiny" id="A" xmlns="http://www.w3.org/2000/svg" xmlns:xlink="http://www.w3.org/1999/xlink"
	 x="0px" y="0px" viewBox="0 0 1685.2 123.4" overflow="visible" xml:space="preserve">
<path id="opacity:50_colorstyle:Bright" fill="#FFFFFF" d="M1639.5,46.6c0,0.9-0.8,1.8-1.7,1.8h-471.1c-0.8,0-1.6,0-2.4-0.1v-3.5
	c0.8,0.1,1.6,0.1,2.4,0.1h471.1C1638.8,44.9,1639.5,45.7,1639.5,46.6z"/>
<path id="opacity:100_colorstyle:Base" fill="#6CB8C7" d="M1625.7,77.7L1100,78.5H521.1v0.1l-36.8,0l-4.2-6.2h40.9v-0.1l335.4,0.1
	l140.1,0h6.6l156.4,0.1c2.9,0,5-2.2,5-5.7l0.2-0.9c0-2.2,1.3-3.4,3-3.4l429.2,0.1L1625.7,77.7z"/>
<path id="opacity:100_colorstyle:Base_00000129888471636748005850000004314084238222824376_" fill="#6CB8C7" d="M3.9,57.6l14.7,20.8
	h414.8l-4.2-6.2H70.8c-5.3,0-10.4-2.4-13.8-6.6l-6.6-8.2L3.9,57.6z"/>
<polygon id="opacity:100_colorstyle:Bright" fill="#FFFFFF" points="445.6,78.5 451.4,78.5 447.1,72.3 441.3,72.3 "/>
<polygon id="opacity:100_colorstyle:Bright_00000118381169900261390480000001610236146439251589_" fill="#FFFFFF" points="466,78.5 
	471.8,78.5 467.6,72.3 461.7,72.3 "/>
<polygon id="opacity:100_colorstyle:Bright_00000021829837302054405210000003312266218487886222_" fill="#FFFFFF" points="
	1638.2,77.4 1652.9,77.4 1624.4,62.5 1606.9,62.6 "/>
<polygon id="opacity:100_colorstyle:Bright_00000062875013448431733830000000262149162890908039_" fill="#FFFFFF" points="
	1667.4,77.4 1682.1,77.4 1653.7,62.5 1636.1,62.6 "/>
</svg>
