<?xml version="1.0" encoding="utf-8"?>
<!-- Generator: Adobe Illustrator 26.0.1, SVG Export Plug-In . SVG Version: 6.00 Build 0)  -->
<svg version="1.1" baseProfile="tiny" id="Layer_1" xmlns="http://www.w3.org/2000/svg" xmlns:xlink="http://www.w3.org/1999/xlink"
	 x="0px" y="0px" viewBox="0 0 155 205" overflow="visible" xml:space="preserve">
<g>
	<polyline fill="none" stroke="#F42745" stroke-width="7" stroke-linejoin="bevel" stroke-miterlimit="10" points="124.1,83.5 
		124.1,62.5 105.3,43.8 105.3,26.7 86.8,8.1 66.8,8.1 	"/>
	<polyline fill="none" stroke="#F42745" stroke-width="7" stroke-linejoin="bevel" stroke-miterlimit="10" points="105.3,35.5 
		96.4,44.4 96.4,93.9 	"/>
	
		<line fill="none" stroke="#F42745" stroke-width="7" stroke-linejoin="bevel" stroke-miterlimit="10" x1="82.2" y1="19.5" x2="92.6" y2="29.9"/>
	
		<line fill="none" stroke="#F42745" stroke-width="7" stroke-linejoin="bevel" stroke-miterlimit="10" x1="114.5" y1="29.5" x2="114.5" y2="38.8"/>
	<polyline fill="none" stroke="#F42745" stroke-width="7" stroke-linejoin="bevel" stroke-miterlimit="10" points="105.4,8.1 
		124.1,26.7 124.1,48.1 	"/>
	<polyline fill="none" stroke="#F42745" stroke-width="7" stroke-linejoin="bevel" stroke-miterlimit="10" points="133.8,36.5 
		142.5,45.2 142.5,80.8 123.9,99.4 123.9,113.9 105.4,132.3 105.4,195.7 137.2,163.9 	"/>
	<polyline fill="none" stroke="#F42745" stroke-width="7" stroke-linejoin="bevel" stroke-miterlimit="10" points="105.4,138.2 
		115,147.8 115,160.1 	"/>
	<polyline fill="none" stroke="#F42745" stroke-width="7" stroke-linejoin="bevel" stroke-miterlimit="10" points="124.1,128.9 
		124.1,152.3 142.6,133.7 142.6,127.4 142.6,97.2 	"/>
	<polyline fill="none" stroke="#F42745" stroke-width="7" stroke-linejoin="bevel" stroke-miterlimit="10" points="133.6,108.9 
		133.6,118.5 142.6,127.4 	"/>
	<polyline fill="none" stroke="#F42745" stroke-width="7" stroke-linejoin="bevel" stroke-miterlimit="10" points="131.1,145.3 
		131.1,157.9 113.9,175.2 	"/>
	<polyline fill="none" stroke="#F42745" stroke-width="7" stroke-linejoin="bevel" stroke-miterlimit="10" points="111.7,112 
		96,127.7 96,146.8 105.4,156.2 	"/>
	<polyline fill="none" stroke="#F42745" stroke-width="7" stroke-linejoin="bevel" stroke-miterlimit="10" points="105.3,164.4 
		96.8,173 96.8,196.9 	"/>
	<polyline fill="none" stroke="#F42745" stroke-width="7" stroke-linejoin="bevel" stroke-miterlimit="10" points="142.5,51.7 
		133.5,60.6 133.5,68.3 	"/>
	<polyline fill="none" stroke="#F42745" stroke-width="7" stroke-linejoin="bevel" stroke-miterlimit="10" points="105.3,55.8 
		114.6,65.1 114.6,75.8 	"/>
	<polyline fill="none" stroke="#F42745" stroke-width="7" stroke-linejoin="bevel" stroke-miterlimit="10" points="105.4,68.8 
		105.4,102.8 86.8,121.4 86.8,150.9 68.3,132.4 68.3,77.9 86.9,59.3 86.9,40.4 68.5,22 68.5,52.2 49.6,71.1 49.6,91.3 	"/>
	<polyline fill="none" stroke="#F42745" stroke-width="7" stroke-linejoin="bevel" stroke-miterlimit="10" points="59.3,19.5 
		59.3,34.3 68.5,43.4 	"/>
	<polyline fill="none" stroke="#F42745" stroke-width="7" stroke-linejoin="bevel" stroke-miterlimit="10" points="77.8,45.4 
		77.8,55.3 66.8,66.4 	"/>
	
		<line fill="none" stroke="#F42745" stroke-width="7" stroke-linejoin="bevel" stroke-miterlimit="10" x1="86.8" y1="74.7" x2="86.8" y2="105.8"/>
	<polyline fill="none" stroke="#F42745" stroke-width="7" stroke-linejoin="bevel" stroke-miterlimit="10" points="86.8,83.5 
		77.8,92.5 77.8,99.3 	"/>
	<polyline fill="none" stroke="#F42745" stroke-width="7" stroke-linejoin="bevel" stroke-miterlimit="10" points="105.4,79.3 
		114.4,88.3 114.4,103 	"/>
	<polyline fill="none" stroke="#F42745" stroke-width="7" stroke-linejoin="bevel" stroke-miterlimit="10" points="68.3,117.2 
		59.7,125.8 59.7,140.8 	"/>
	<polyline fill="none" stroke="#F42745" stroke-width="7" stroke-linejoin="bevel" stroke-miterlimit="10" points="77.8,116.7 
		77.8,127.2 86.7,136 	"/>
	<polyline fill="none" stroke="#F42745" stroke-width="7" stroke-linejoin="bevel" stroke-miterlimit="10" points="68.3,150.2 
		68.3,177.9 86.9,196.4 86.9,163.8 	"/>
	<polyline fill="none" stroke="#F42745" stroke-width="7" stroke-linejoin="bevel" stroke-miterlimit="10" points="86.9,184.1 
		77.7,175 77.7,159.1 	"/>
	
		<line fill="none" stroke="#F42745" stroke-width="7" stroke-linejoin="bevel" stroke-miterlimit="10" x1="64.4" y1="186.2" x2="74.9" y2="196.7"/>
	<polyline fill="none" stroke="#F42745" stroke-width="7" stroke-linejoin="bevel" stroke-miterlimit="10" points="59.1,161.6 
		59.1,178.2 49.7,187.6 	"/>
	<polyline fill="none" stroke="#F42745" stroke-width="7" stroke-linejoin="bevel" stroke-miterlimit="10" points="12.4,116.7 
		12.4,159.1 49.8,196.5 49.8,165.9 31.2,147.2 31.2,116.7 12.4,97.8 12.4,45.4 18.2,39.5 	"/>
	<polyline fill="none" stroke="#F42745" stroke-width="7" stroke-linejoin="bevel" stroke-miterlimit="10" points="31.2,124.3 
		22.3,133.3 22.3,153.7 38.4,169.8 	"/>
	<polyline fill="none" stroke="#F42745" stroke-width="7" stroke-linejoin="bevel" stroke-miterlimit="10" points="30.4,101.9 
		39.9,111.4 39.9,131 31.1,139.7 	"/>
	<polyline fill="none" stroke="#F42745" stroke-width="7" stroke-linejoin="bevel" stroke-miterlimit="10" points="49.6,149.6 
		49.6,106.9 31.1,88.4 31.1,26.8 49.5,8.4 49.5,55.3 	"/>
	<polyline fill="none" stroke="#F42745" stroke-width="7" stroke-linejoin="bevel" stroke-miterlimit="10" points="40.3,78.5 
		40.3,36.5 49.5,27.4 	"/>
	<polyline fill="none" stroke="#F42745" stroke-width="7" stroke-linejoin="bevel" stroke-miterlimit="10" points="31.1,44.4 
		22.1,53.4 22.1,90.8 	"/>
	<polyline fill="none" stroke="#F42745" stroke-width="7" stroke-linejoin="bevel" stroke-miterlimit="10" points="58.5,75.4 
		58.5,113 49.6,121.9 	"/>
</g>
</svg>
